<?xml version="1.0" encoding="UTF-8" standalone="yes"?>
<svg version="1.2" width="1546" height="1546" baseProfile="tiny-ps" xmlns="http://www.w3.org/2000/svg">
  <title>bimi-svg-tiny-12-ps</title>
  <path d="M0 0 C3.91142184 0.00314112 7.82207039 -0.02032314 11.73339844 -0.0456543 C34.77101136 -0.10378717 57.61779564 1.61864644 80.32714844 5.62817383 C81.55780029 5.84127197 82.78845215 6.05437012 84.05639648 6.27392578 C137.34943212 15.739032 189.65646118 34.32176074 236.07714844 62.31567383 C237.2593175 63.01770325 238.44159699 63.71954677 239.62402344 64.42114258 C246.04128928 68.29225443 252.3161368 72.38558853 258.57714844 76.50317383 C259.34373779 77.00268555 260.11032715 77.50219727 260.90014648 78.0168457 C265.09044299 80.80018472 268.66600388 83.61349908 272.07714844 87.31567383 C267.16621455 89.07536378 262.24928499 90.23075408 257.15917969 91.31176758 C255.35089597 91.70324749 253.54271363 92.0951959 251.73461914 92.48754883 C250.78334137 92.6931543 249.8320636 92.89875977 248.85195923 93.1105957 C214.25640491 100.6149894 180.00495941 109.30366007 146.15679932 119.67889404 C144.0443308 120.32572244 141.93071541 120.96869016 139.81689453 121.61108398 C81.52284417 139.36111441 23.54222655 160.81201184 -29.92285156 190.31567383 C-30.80424805 190.7982666 -31.68564453 191.28085937 -32.59375 191.77807617 C-50.61710828 201.67563862 -68.39406081 212.15648781 -84.88989258 224.47265625 C-88.72594033 227.31567383 -88.72594033 227.31567383 -90.92285156 227.31567383 C-90.92285156 227.97567383 -90.92285156 228.63567383 -90.92285156 229.31567383 C-92.71582031 230.68286133 -92.71582031 230.68286133 -95.11035156 232.19067383 C-97.83150315 233.93631824 -100.34037563 235.65324648 -102.86035156 237.69067383 C-104.92285156 239.31567383 -104.92285156 239.31567383 -106.92285156 239.31567383 C-106.92285156 239.97567383 -106.92285156 240.63567383 -106.92285156 241.31567383 C-108.36425781 242.58520508 -108.36425781 242.58520508 -110.48535156 244.12817383 C-121.33540341 252.37961295 -131.28399824 261.49869135 -140.92285156 271.12817383 C-141.71159668 271.91611328 -142.5003418 272.70405273 -143.31298828 273.51586914 C-148.04465768 278.29279362 -152.56053392 283.2002051 -156.92285156 288.31567383 C-158.15261719 289.74073242 -158.15261719 289.74073242 -159.40722656 291.19458008 C-191.19821013 328.850452 -213.198914 373.40441798 -220.92285156 422.31567383 C-221.03854492 423.01305664 -221.15423828 423.71043945 -221.2734375 424.42895508 C-227.59280643 464.25785599 -223.89459404 508.75700807 -199.92285156 542.31567383 C-196.22863178 546.94745596 -192.1314336 551.15359546 -187.92285156 555.31567383 C-187.25769531 555.99114258 -186.59253906 556.66661133 -185.90722656 557.36254883 C-165.62827181 576.58347116 -136.33237344 582.87149158 -109.30957031 582.53051758 C-90.37219753 581.98106416 -70.42100215 577.53861215 -52.92285156 570.31567383 C-52.26559082 570.04916016 -51.60833008 569.78264648 -50.93115234 569.50805664 C-32.22521605 561.90735773 -14.32509315 553.332766 3.07617188 543.07739258 C5.35444948 541.73993316 7.63885588 540.41645104 9.9296875 539.10083008 C19.37671488 533.64855867 28.47783783 527.82931356 37.46133423 521.64593506 C41.14016377 519.11562876 44.83310044 516.6060919 48.52636719 514.09692383 C49.25865036 513.59921478 49.99093353 513.10150574 50.7454071 512.5887146 C61.0447623 505.60485531 71.53522449 498.92686647 82.07714844 492.31567383 C82.98174805 491.74703613 83.88634766 491.17839844 84.81835938 490.5925293 C97.39856587 482.69848399 110.12723387 475.06858084 122.94824219 467.57250977 C124.67206297 466.55482291 126.37763051 465.5062592 128.07714844 464.44848633 C130.07714844 463.31567383 130.07714844 463.31567383 132.07714844 463.31567383 C132.8522386 504.39545244 110.39692874 538.99783768 84.39013672 568.80297852 C83.26260025 570.10201458 82.15070746 571.41459997 81.04199219 572.72973633 C77.73667686 576.62985783 74.26548178 580.03842318 70.36621094 583.34301758 C68.12983417 585.27027059 65.9593334 587.25830787 63.796875 589.26782227 C57.75638899 594.87711998 51.54467533 600.1989029 45.07714844 605.31567383 C43.60181641 606.48356445 43.60181641 606.48356445 42.09667969 607.67504883 C26.42008057 619.90474354 9.9563016 630.82215198 -6.92285156 641.31567383 C-7.59493652 641.73413574 -8.26702148 642.15259766 -8.95947266 642.58374023 C-25.7730972 652.99690314 -43.12786713 662.69111082 -60.92285156 671.31567383 C-62.6328726 672.18568453 -64.34284271 673.0557975 -66.05175781 673.92797852 C-73.96300385 677.94553718 -81.97852315 681.74487662 -90.01049805 685.51364136 C-91.3021529 686.11996784 -92.59319518 686.72760143 -93.88354492 687.33670044 C-101.36080409 690.86236856 -108.87845082 694.16303049 -116.57566833 697.18028259 C-120.24888552 698.6254339 -123.85267426 700.1611443 -127.43066406 701.82739258 C-134.09418016 704.91071389 -140.94357918 707.50709053 -147.79785156 710.12817383 C-149.18805508 710.66177261 -150.57819095 711.19554768 -151.96826172 711.72949219 C-154.04632197 712.52738625 -156.12456693 713.32477863 -158.20346069 714.12049866 C-161.96063189 715.55893152 -165.71117913 717.01246366 -169.45410156 718.48754883 C-183.28628868 723.90934827 -197.36748968 728.55021212 -211.47724915 733.18522644 C-216.27274362 734.76323031 -221.05590301 736.37433247 -225.83300781 738.00708008 C-240.79147515 743.10701438 -255.82761055 747.91342273 -270.96762085 752.44830322 C-272.86224314 753.01639609 -274.75586303 753.58784533 -276.64834595 754.1630249 C-288.64966429 757.80087958 -300.48857125 760.64299184 -312.92285156 762.31567383 C-314.84883179 762.58287231 -314.84883179 762.58287231 -316.8137207 762.85546875 C-321.48240551 763.42520824 -326.15548611 763.66223887 -330.85253906 763.86645508 C-331.80377655 763.90829422 -332.75501404 763.95013336 -333.7350769 763.99324036 C-345.17041976 764.45682906 -356.60448621 764.51470819 -368.04785156 764.50317383 C-369.1655896 764.50256958 -370.28332764 764.50196533 -371.43493652 764.50134277 C-388.34536035 764.47659964 -405.09857776 764.17395166 -421.92285156 762.31567383 C-423.16824707 762.1814502 -424.41364258 762.04722656 -425.69677734 761.90893555 C-471.51410588 756.88292053 -529.55341509 745.97763352 -560.58300781 708.14379883 C-563.13033571 704.93729397 -565.53746501 701.64412018 -567.92285156 698.31567383 C-568.426875 697.64020508 -568.93089844 696.96473633 -569.45019531 696.26879883 C-581.83259865 678.38750071 -584.2868644 653.65807195 -580.73535156 632.75317383 C-576.17362181 608.46203257 -565.57337639 585.77715234 -551.92285156 565.31567383 C-551.16530145 564.1457735 -550.40886143 562.97515386 -549.65332031 561.80395508 C-541.59344497 549.3973256 -532.52049914 537.9919624 -522.80615234 526.84472656 C-520.67965166 524.40129205 -518.72275513 522.01552918 -516.92285156 519.31567383 C-516.26285156 519.31567383 -515.60285156 519.31567383 -514.92285156 519.31567383 C-514.65928864 518.72712112 -514.39572571 518.13856842 -514.12417603 517.53218079 C-512.87104964 515.22009654 -511.55865593 513.70395958 -509.70166016 511.8515625 C-509.04692719 511.1937529 -508.39219421 510.5359433 -507.71762085 509.85820007 C-507.00933136 509.1570961 -506.30104187 508.45599213 -505.57128906 507.73364258 C-504.83842682 507.00123856 -504.10556458 506.26883453 -503.35049438 505.51423645 C-501.79771328 503.96447536 -500.24250354 502.41714438 -498.68505859 500.87207031 C-496.32241328 498.52754715 -493.96773421 496.17525635 -491.61425781 493.8215332 C-490.10040323 492.31259965 -488.5860944 490.80412167 -487.07128906 489.29614258 C-486.37514496 488.6011113 -485.67900085 487.90608002 -484.96176147 487.18998718 C-480.97476276 483.24074786 -476.89022972 479.45772827 -472.63853455 475.79447937 C-470.42355725 473.88531507 -468.2685122 471.91363329 -466.11035156 469.94067383 C-452.90135561 458.01588582 -452.90135561 458.01588582 -447.13769531 454.72583008 C-443.56622009 450.83940995 -444.27050071 446.6588785 -444.29785156 441.56567383 C-444.25722777 439.29859881 -444.20866137 437.03165609 -444.15332031 434.76489258 C-444.12415527 433.55752441 -444.09499023 432.35015625 -444.06494141 431.10620117 C-440.55368137 337.43640157 -405.44446547 243.39900387 -346.92285156 170.31567383 C-346.41125488 169.67017578 -345.8996582 169.02467773 -345.37255859 168.35961914 C-334.1642599 154.22841709 -334.1642599 154.22841709 -327.68847656 148.03833008 C-323.92760882 144.36898787 -320.56608964 140.30644732 -317.22363281 136.25708008 C-316.69125 135.61641602 -316.15886719 134.97575195 -315.61035156 134.31567383 C-314.90458984 133.44942383 -314.90458984 133.44942383 -314.18457031 132.56567383 C-312.92285156 131.31567383 -312.92285156 131.31567383 -310.92285156 131.31567383 C-310.59285156 130.32567383 -310.26285156 129.33567383 -309.92285156 128.31567383 C-308.60253906 126.98364258 -308.60253906 126.98364258 -306.79785156 125.50317383 C-303.26117 122.51353294 -299.86892002 119.40856923 -296.50512695 116.22827148 C-290.19755763 110.26609607 -283.80512914 104.61294203 -276.92285156 99.31567383 C-275.83283912 98.44772603 -274.7444034 97.57779583 -273.65722656 96.70629883 C-265.9638018 90.55798807 -258.10134125 84.80426123 -249.92285156 79.31567383 C-249.24351562 78.8588623 -248.56417969 78.40205078 -247.86425781 77.93139648 C-214.11339709 55.31567383 -214.11339709 55.31567383 -208.92285156 55.31567383 C-208.92285156 54.65567383 -208.92285156 53.99567383 -208.92285156 53.31567383 C-207.1552963 52.47540987 -205.38367894 51.64368661 -203.61035156 50.81567383 C-202.13115234 50.11958008 -202.13115234 50.11958008 -200.62207031 49.40942383 C-197.92285156 48.31567383 -197.92285156 48.31567383 -194.92285156 48.31567383 C-194.92285156 47.65567383 -194.92285156 46.99567383 -194.92285156 46.31567383 C-191.26022482 44.64000554 -187.59277767 42.97529048 -183.92285156 41.31567383 C-182.84197266 40.82067383 -182.84197266 40.82067383 -181.73925781 40.31567383 C-178.93384071 39.06077758 -177.03709691 38.31567383 -173.92285156 38.31567383 C-173.92285156 37.65567383 -173.92285156 36.99567383 -173.92285156 36.31567383 C-172.9934375 35.98954102 -172.06402344 35.6634082 -171.10644531 35.32739258 C-169.87023437 34.89040039 -168.63402344 34.4534082 -167.36035156 34.00317383 C-166.1421875 33.57391602 -164.92402344 33.1446582 -163.66894531 32.70239258 C-161.2449509 31.80508495 -158.84088179 30.85109924 -156.46582031 29.83129883 C-152.62188352 28.18692454 -148.74251204 26.75783117 -144.79785156 25.37817383 C-144.0543042 25.1172998 -143.31075684 24.85642578 -142.54467773 24.58764648 C-136.05298825 22.32827372 -129.5168544 20.25701379 -122.92285156 18.31567383 C-121.87484375 17.99985352 -120.82683594 17.6840332 -119.74707031 17.35864258 C-100.06876924 11.55458433 -80.00954343 7.32189135 -59.73535156 4.25317383 C-58.67364746 4.09067139 -57.61194336 3.92816895 -56.51806641 3.76074219 C-52.99035228 3.24158809 -49.45959064 2.76939725 -45.92285156 2.31567383 C-45.23719116 2.22526825 -44.55153076 2.13486267 -43.84509277 2.04171753 C-29.246611 0.16942381 -14.70395694 -0.02456118 0 0 Z " fill="#3CA9A9" transform="translate(763.9228515625,106.684326171875)"/>
  <path d="M0 0 C26.43973731 -0.51464209 52.76920572 1.61275628 78.96728516 5.06640625 C79.80050293 5.17033691 80.6337207 5.27426758 81.4921875 5.38134766 C114.7393909 9.58106675 155.34656275 20.37023576 180.96728516 43.06640625 C182.29373047 44.20916016 182.29373047 44.20916016 183.64697266 45.375 C186.13215809 47.56152072 188.55418536 49.80096116 190.96728516 52.06640625 C191.58087891 52.60394531 192.19447266 53.14148438 192.82666016 53.6953125 C208.27861993 67.83598211 215.64026839 89.90893297 217.12744141 110.2578125 C217.6857363 125.76870094 214.38150274 141.5984937 208.96728516 156.06640625 C208.71462891 156.74622559 208.46197266 157.42604492 208.20166016 158.12646484 C200.38637919 178.79960697 189.23698083 197.44802754 175.96728516 215.06640625 C175.19642578 216.09378906 174.42556641 217.12117187 173.63134766 218.1796875 C165.14716674 229.397209 156.06150494 240.02499726 146.47509766 250.3125 C144.69382322 252.26857239 142.97727298 254.22719127 141.29150391 256.26171875 C137.82621657 260.4433596 134.01919885 264.03867747 129.90478516 267.56640625 C127.66725408 269.49976643 125.82121876 271.24898925 123.96728516 273.56640625 C121.64492687 276.4693541 119.04722956 278.71309894 116.22900391 281.125 C113.83928991 283.17627437 111.49400282 285.2702633 109.15478516 287.37890625 C108.31302734 288.136875 107.47126953 288.89484375 106.60400391 289.67578125 C104.8082917 291.30389365 103.0194763 292.93963787 101.23681641 294.58203125 C96.08631313 299.31846022 90.86494579 303.86636966 85.35400391 308.1796875 C84.17257812 309.11361328 84.17257812 309.11361328 82.96728516 310.06640625 C81.35853516 311.07960938 81.35853516 311.07960938 79.71728516 312.11328125 C77.70724547 313.81373965 77.04398113 314.73470244 76.44506836 317.32495117 C76.25053959 320.23054018 76.24103555 323.09202033 76.27978516 326.00390625 C76.24565962 328.27616744 76.20366402 330.54832079 76.15478516 332.8203125 C76.11998047 334.60526123 76.11998047 334.60526123 76.08447266 336.42626953 C73.59327496 413.809098 45.77088451 492.40753915 3.96728516 557.06640625 C3.51764404 557.7634668 3.06800293 558.46052734 2.60473633 559.17871094 C-2.0036264 566.28147489 -6.72199055 573.15521029 -12.11865234 579.69140625 C-14.11417132 582.16747877 -15.94810254 584.71925961 -17.78271484 587.31640625 C-24.99802427 597.32201112 -33.33766581 606.45749864 -41.76025391 615.45263672 C-44.36736899 618.23888761 -46.90900827 621.06550088 -49.40380859 623.953125 C-53.04266303 628.12913657 -56.86470115 632.09018967 -60.78271484 636.00390625 C-61.82661377 637.04768433 -61.82661377 637.04768433 -62.89160156 638.11254883 C-68.33422781 643.49556596 -73.99146346 648.36189831 -80.03271484 653.06640625 C-81.22440144 654.08234916 -82.41267215 655.10233442 -83.59521484 656.12890625 C-86.03271484 658.06640625 -86.03271484 658.06640625 -88.03271484 658.06640625 C-88.03271484 658.72640625 -88.03271484 659.38640625 -88.03271484 660.06640625 C-93.83328709 665.48100886 -100.34693685 670.09913078 -106.88427734 674.57421875 C-109.36146472 676.29473798 -111.6846609 678.17491835 -114.03271484 680.06640625 C-116.80102137 681.96961699 -119.57657399 683.79740011 -122.47021484 685.50390625 C-124.57401125 686.78670894 -126.53947256 688.12421151 -128.53271484 689.56640625 C-131.29019309 691.55890666 -134.09463432 693.34655424 -137.03271484 695.06640625 C-137.58185547 695.42347656 -138.13099609 695.78054688 -138.69677734 696.1484375 C-143.6501632 699.35896537 -148.78014014 701.99057141 -154.10302734 704.5390625 C-157.08675272 706.02256045 -157.08675272 706.02256045 -159.88427734 708.00390625 C-163.5458948 710.40258369 -167.30713024 712.19407883 -171.28271484 714.00390625 C-172.80663865 714.70728067 -174.3300797 715.411702 -175.85302734 716.1171875 C-176.5790918 716.45314941 -177.30515625 716.78911133 -178.05322266 717.13525391 C-180.45199245 718.26363427 -182.80612367 719.46810377 -185.15771484 720.69140625 C-189.34223348 722.80896058 -193.62674496 724.61776091 -197.97021484 726.37890625 C-198.62199707 726.64590332 -199.2737793 726.91290039 -199.9453125 727.18798828 C-202.80428056 728.3251374 -204.92558006 729.06640625 -208.03271484 729.06640625 C-208.03271484 729.72640625 -208.03271484 730.38640625 -208.03271484 731.06640625 C-208.59555176 731.25227295 -209.15838867 731.43813965 -209.73828125 731.62963867 C-212.37866291 732.50268111 -215.01826398 733.37805378 -217.65771484 734.25390625 C-218.62467285 734.57415771 -219.59163086 734.89440918 -220.58789062 735.22436523 C-225.73248947 736.93651586 -230.83334422 738.71664343 -235.90771484 740.62890625 C-244.91171479 743.89231771 -254.22205652 746.1021838 -263.50292969 748.42919922 C-265.54333029 748.94313915 -267.57972184 749.47298061 -269.61474609 750.0078125 C-282.66980878 753.41891643 -296.02351416 755.47899488 -309.36938477 757.37402344 C-311.59867631 757.69189982 -313.82639632 758.01952835 -316.05419922 758.34765625 C-334.89720353 761.08010429 -353.57816725 761.30769137 -372.59521484 761.31640625 C-373.25371681 761.31684811 -373.91221878 761.31728996 -374.59067535 761.31774521 C-394.250956 761.32465903 -413.56954962 761.0913443 -433.03271484 758.06640625 C-434.21172363 757.88948242 -435.39073242 757.71255859 -436.60546875 757.53027344 C-445.11871025 756.22815566 -453.58084301 754.71873134 -462.03271484 753.06640625 C-463.16273926 752.8461377 -464.29276367 752.62586914 -465.45703125 752.39892578 C-483.37176565 748.83152314 -500.71292305 743.846157 -518.03271484 738.06640625 C-519.65306641 737.52693359 -519.65306641 737.52693359 -521.30615234 736.9765625 C-555.99900457 725.28378638 -589.43240074 709.18843098 -620.03271484 689.06640625 C-621.13099609 688.36257813 -622.22927734 687.65875 -623.36083984 686.93359375 C-624.48101244 686.20761868 -625.60081142 685.48106677 -626.72021484 684.75390625 C-628.24195313 683.76970703 -628.24195313 683.76970703 -629.79443359 682.765625 C-630.53306641 682.20488281 -631.27169922 681.64414062 -632.03271484 681.06640625 C-632.03271484 680.40640625 -632.03271484 679.74640625 -632.03271484 679.06640625 C-627.78360899 678.06259064 -623.53339782 677.06351861 -619.28271484 676.06640625 C-618.283349 675.83165588 -618.283349 675.83165588 -617.26379395 675.59216309 C-609.35567714 673.73696467 -601.44152881 671.92080662 -593.50146484 670.20703125 C-519.54426887 654.21804443 -446.48362298 632.21585165 -377.03271484 602.06640625 C-376.11465057 601.66844849 -376.11465057 601.66844849 -375.17803955 601.26245117 C-361.278547 595.23190109 -347.44371824 589.12511843 -334.03271484 582.06640625 C-333.01064941 581.53144531 -331.98858398 580.99648438 -330.93554688 580.4453125 C-316.33893164 572.78564137 -301.93430966 564.94404316 -288.03271484 556.06640625 C-286.95739502 555.38650635 -286.95739502 555.38650635 -285.86035156 554.69287109 C-276.01712154 548.46543258 -266.4105577 541.97453118 -257.03271484 535.06640625 C-256.37883789 534.58526367 -255.72496094 534.10412109 -255.05126953 533.60839844 C-243.58644149 525.14717034 -232.44303185 516.46646297 -222.02880859 506.71875 C-220.03271484 505.06640625 -220.03271484 505.06640625 -218.03271484 505.06640625 C-217.70271484 504.07640625 -217.37271484 503.08640625 -217.03271484 502.06640625 C-215.46630859 500.5234375 -215.46630859 500.5234375 -213.47021484 498.87890625 C-207.1677747 493.52183213 -201.435801 487.70609507 -196.05615234 481.42578125 C-194.51588298 479.6297915 -192.95473139 477.85168743 -191.38427734 476.08203125 C-146.64244965 425.35715413 -120.36361933 359.14160207 -124.03271484 291.06640625 C-125.9501232 266.76383288 -132.44119619 243.93755125 -146.90771484 224.06640625 C-149.03271484 221.06640625 -149.03271484 221.06640625 -149.03271484 219.06640625 C-149.69271484 219.06640625 -150.35271484 219.06640625 -151.03271484 219.06640625 C-152.51318359 217.52734375 -152.51318359 217.52734375 -154.22021484 215.44140625 C-157.14278114 211.97853358 -160.19102386 209.09129717 -163.74755859 206.29296875 C-164.17166016 205.88820313 -164.59576172 205.4834375 -165.03271484 205.06640625 C-165.03271484 204.40640625 -165.03271484 203.74640625 -165.03271484 203.06640625 C-165.74298828 202.81503906 -166.45326172 202.56367188 -167.18505859 202.3046875 C-170.31769598 200.94248441 -172.81344198 199.23331742 -175.59521484 197.25390625 C-203.99324295 178.09129045 -241.4096217 177.05730524 -274.03271484 183.06640625 C-287.27615368 185.82744249 -300.33669897 189.38811677 -313.03271484 194.06640625 C-313.83273926 194.35773438 -314.63276367 194.6490625 -315.45703125 194.94921875 C-326.92056946 199.14335208 -338.08622526 203.65377573 -349.03271484 209.06640625 C-350.04785156 209.56446777 -351.06298828 210.0625293 -352.10888672 210.57568359 C-377.77999973 223.18893205 -402.02804545 236.99293364 -425.78039551 252.92626953 C-436.82635045 260.33074312 -448.04607482 267.42709523 -459.36328125 274.41064453 C-461.92305 275.99838476 -464.47040489 277.60397029 -467.01318359 279.21875 C-467.76317627 279.69376953 -468.51316895 280.16878906 -469.28588867 280.65820312 C-470.65628932 281.52733767 -472.02476275 282.39952185 -473.39086914 283.27539062 C-477.80937466 286.06640625 -477.80937466 286.06640625 -480.03271484 286.06640625 C-477.14903164 251.05025309 -456.18279611 218.48261831 -433.03271484 193.06640625 C-431.3717078 191.72602901 -429.7059902 190.39143648 -428.03271484 189.06640625 C-427.70271484 188.40640625 -427.37271484 187.74640625 -427.03271484 187.06640625 C-426.37271484 187.06640625 -425.71271484 187.06640625 -425.03271484 187.06640625 C-424.70271484 186.07640625 -424.37271484 185.08640625 -424.03271484 184.06640625 C-423.37271484 184.06640625 -422.71271484 184.06640625 -422.03271484 184.06640625 C-421.70271484 183.07640625 -421.37271484 182.08640625 -421.03271484 181.06640625 C-420.37271484 181.06640625 -419.71271484 181.06640625 -419.03271484 181.06640625 C-419.03271484 180.40640625 -419.03271484 179.74640625 -419.03271484 179.06640625 C-417.77490234 177.76171875 -417.77490234 177.76171875 -415.90771484 176.19140625 C-415.17681641 175.57136719 -414.44591797 174.95132813 -413.69287109 174.3125 C-412.81501953 173.57128906 -411.93716797 172.83007812 -411.03271484 172.06640625 C-409.96759853 171.14213733 -408.90388078 170.21625512 -407.84130859 169.2890625 C-400.12626329 162.5754156 -392.24920647 156.15854855 -384.03271484 150.06640625 C-383.35724609 149.56496094 -382.68177734 149.06351563 -381.98583984 148.546875 C-371.2668327 140.62329238 -360.33165629 133.13727349 -349.03271484 126.06640625 C-348.32179688 125.62087402 -347.61087891 125.1753418 -346.87841797 124.71630859 C-341.6312995 121.44098464 -336.34516955 118.2345368 -331.03271484 115.06640625 C-330.28199707 114.61749023 -329.5312793 114.16857422 -328.7578125 113.70605469 C-290.61040252 91.03957494 -250.11278317 72.67945529 -209.03271484 56.06640625 C-207.96591492 55.63325104 -207.96591492 55.63325104 -206.87756348 55.19134521 C-170.08743254 40.25790531 -132.48675947 27.38855267 -94.53271484 15.75390625 C-93.03618881 15.29372604 -93.03618881 15.29372604 -91.50942993 14.82424927 C-56.4923947 4.0967477 -56.4923947 4.0967477 -40.34521484 2.31640625 C-39.35448975 2.20063232 -38.36376465 2.0848584 -37.34301758 1.96557617 C-24.91834842 0.6037145 -12.48602342 0.2734019 0 0 Z " fill="#569BC8" transform="translate(1147.03271484375,248.93359375)"/>
  <path d="M0 0 C0.89847656 -0.020625 1.79695313 -0.04125 2.72265625 -0.0625 C3.59535156 -0.06765625 4.46804687 -0.0728125 5.3671875 -0.078125 C6.1597998 -0.0874707 6.95241211 -0.09681641 7.76904297 -0.10644531 C10.94212566 0.3736273 12.60131316 1.24517118 15.125 3.25 C16.52024228 5.65668663 17.6276521 7.87126793 18.69921875 10.4140625 C19.02021545 11.14102829 19.34121216 11.86799408 19.67193604 12.61698914 C20.73336594 15.03023386 21.77274518 17.45234678 22.8125 19.875 C23.56114761 21.58811101 24.31125702 23.30058386 25.06274414 25.01245117 C26.63793589 28.60716111 28.20428793 32.20553393 29.76367188 35.80712891 C32.02614905 41.02977727 34.31366347 46.24110801 36.609375 51.44921875 C39.61159613 58.26368866 42.60702823 65.08106541 45.59375 71.90234375 C45.96840393 72.75796906 46.34305786 73.61359436 46.72906494 74.49514771 C47.48474141 76.22094718 48.24041768 77.94674674 48.99609375 79.67254639 C58.34523489 101.01796601 67.71712609 122.35345446 77.12698364 143.67218018 C77.94592352 145.52777637 78.76451829 147.38352492 79.58273315 149.23944092 C84.01168695 159.28371034 88.47568984 169.30526563 93.125 179.25 C93.88660706 177.51522836 94.64821401 175.78045668 95.40982056 174.04568481 C96.10380897 172.46493458 96.79779911 170.88418509 97.49179077 169.30343628 C99.47861625 164.77791044 101.46540906 160.25237027 103.45214844 155.72680664 C107.57943953 146.32540303 111.70712547 136.92417327 115.8359375 127.5234375 C123.16380066 110.83807654 130.48734576 94.15089252 137.78466797 77.45214844 C141.08354201 69.90514011 144.39326668 62.36298403 147.7109375 54.82421875 C148.51304039 53.00065964 149.31512368 51.17709192 150.1171875 49.35351562 C151.2875112 46.69271672 152.4582857 44.03212265 153.63085938 41.37231445 C154.72141202 38.89854537 155.81017453 36.42399585 156.8984375 33.94921875 C157.24944519 33.15329315 157.60045288 32.35736755 157.96209717 31.537323 C159.79656784 27.35780551 161.58096555 23.16373563 163.30175781 18.93603516 C163.65654205 18.07017288 164.01132629 17.20431061 164.37686157 16.31221008 C165.04942361 14.66343673 165.71367235 13.01123816 166.36801147 11.35514832 C168.05428983 7.22848668 169.51866602 4.0715849 173.125 1.25 C177.26903622 -0.13134541 181.16006538 0.06575821 185.5 0.0625 C186.35078125 0.05025391 187.2015625 0.03800781 188.078125 0.02539062 C196.63340258 0.00540166 196.63340258 0.00540166 200.125 2.25 C202.73471453 6.9070565 202.40726871 11.66977754 202.38569641 16.85302734 C202.38952196 17.8256571 202.39334751 18.79828686 202.39728898 19.80039024 C202.40761487 23.06229417 202.40362759 26.32402194 202.3996582 29.5859375 C202.40400485 31.92336185 202.40918785 34.26078477 202.41514587 36.59820557 C202.42855098 42.94929835 202.42911293 49.30033168 202.42658257 55.65143585 C202.42537894 61.61993391 202.43158781 67.58842192 202.43701603 73.55691695 C202.44789062 86.09843123 202.44572929 98.63991861 202.43963119 111.18143439 C202.43446037 122.65585703 202.44572193 134.13019482 202.46472941 145.60460067 C202.48409817 157.38743045 202.49236561 169.17022006 202.48860615 180.95306587 C202.48679046 187.56792284 202.48945819 194.18270206 202.50332069 200.79754639 C202.51586446 207.01588359 202.51398762 213.23405047 202.50090981 219.45238495 C202.49853708 221.73689582 202.50130348 224.02141855 202.50953293 226.30591583 C202.5199429 229.41980104 202.51194582 232.53310862 202.4992218 235.64697266 C202.50659609 236.55504354 202.51397037 237.46311443 202.52156812 238.39870262 C202.48054394 243.15728534 202.26229201 246.40615687 199.125 250.25 C196.18776222 251.71861889 193.51907643 251.49793404 190.25 251.5625 C189.01507813 251.59988281 187.78015625 251.63726563 186.5078125 251.67578125 C183.125 251.25 183.125 251.25 180.94601059 249.73274612 C178.42331934 246.29333618 178.56487693 243.20526781 178.60601807 239.10028076 C178.59476619 237.85783785 178.59476619 237.85783785 178.583287 236.59029508 C178.5629644 233.81091994 178.57112135 231.03235704 178.57910156 228.25292969 C178.57036903 226.26220897 178.55988438 224.27149528 178.54777527 222.28079224 C178.51985553 216.8720551 178.51651191 211.46354632 178.51749516 206.05474758 C178.51437119 200.40389802 178.48876377 194.7531521 178.46551514 189.10235596 C178.424912 178.39978524 178.40460427 167.69727553 178.39154124 156.99463964 C178.37568581 144.81092699 178.33727633 132.62731837 178.29694796 120.44366598 C178.21448996 95.37914554 178.16043471 70.3146279 178.125 45.25 C175.54803803 51.07843151 172.97151778 56.90705815 170.39527893 62.73580933 C169.52210567 64.71123487 168.64883788 66.68661864 167.77546692 68.66195679 C161.38498356 83.11580811 155.02799762 97.58372621 148.703125 112.06640625 C146.09579849 118.03574629 143.47967209 124.00118628 140.859375 129.96484375 C140.48939896 130.80694901 140.11942291 131.64905426 139.73823547 132.51667786 C138.21677649 135.97940259 136.69518683 139.44206962 135.17294312 142.90444946 C130.89732917 152.6302311 126.63630405 162.36198467 122.41015625 172.109375 C121.64104028 173.88143267 120.87191604 175.65348676 120.1027832 177.42553711 C118.65881538 180.75289025 117.21916385 184.08206456 115.78198242 187.41235352 C105.3998329 211.4001114 105.3998329 211.4001114 101.125 214.25 C98.28066775 214.55123274 95.59700694 214.71152693 92.75 214.75 C91.99460937 214.79125 91.23921875 214.8325 90.4609375 214.875 C89.72359375 214.8853125 88.98625 214.895625 88.2265625 214.90625 C87.55963379 214.92494141 86.89270508 214.94363281 86.20556641 214.96289062 C82.23430016 213.60216574 80.06505736 209.94551285 78.10522461 206.41070557 C77.10337363 204.35420999 76.17349735 202.27765282 75.26171875 200.1796875 C74.738591 199.00817139 74.738591 199.00817139 74.20489502 197.81298828 C73.06494358 195.25428096 71.93873608 192.68977003 70.8125 190.125 C70.01139026 188.32007899 69.20937475 186.51555976 68.40649414 184.71142578 C66.76369196 181.01568947 65.12640937 177.317588 63.49414062 173.6171875 C61.33376237 168.71968832 59.16185759 163.82741465 56.984375 158.9375 C54.68556182 153.77369858 52.38912868 148.60886183 50.09706116 143.44206238 C46.44137299 135.20220818 42.76800831 126.97041066 39.08335876 118.74346924 C38.53628391 117.52189778 38.53628391 117.52189778 37.97815704 116.27564812 C37.28150507 114.72015154 36.5848098 113.16467435 35.88805389 111.60922432 C29.75967506 97.926384 23.66445846 84.22893031 17.578125 70.52734375 C16.65448172 68.44851721 15.73081646 66.36970043 14.80712891 64.29089355 C12.57950049 59.27737435 10.35213871 54.26373676 8.125 49.25 C8.12261165 50.25552257 8.12022329 51.26104513 8.11776257 52.29703808 C8.05899882 76.75030094 7.98313538 101.20346501 7.88928509 125.65661907 C7.84429693 137.48192645 7.80488922 149.3072035 7.77856445 161.13256836 C7.75560885 171.43813554 7.72223813 181.74360701 7.67629844 192.04909831 C7.65233336 197.507063 7.63362611 202.96493271 7.62738609 208.42294884 C7.62135012 213.55866979 7.60140412 218.69414761 7.57072449 223.82977867 C7.56192038 225.71596592 7.55822657 227.60218491 7.55999184 229.48839188 C7.56164003 232.06181349 7.54498442 234.63448991 7.52372742 237.20780945 C7.52857499 237.95587111 7.53342257 238.70393277 7.53841704 239.47466296 C7.4780877 243.89384591 6.85435968 246.73635762 4.125 250.25 C1.18776222 251.71861889 -1.48092357 251.49793404 -4.75 251.5625 C-5.98492187 251.59988281 -7.21984375 251.63726563 -8.4921875 251.67578125 C-11.875 251.25 -11.875 251.25 -14.05510044 249.82597351 C-16.82282054 245.90840914 -16.42477325 242.29718753 -16.37620544 237.60864258 C-16.38173984 236.61982747 -16.38727424 235.63101236 -16.39297634 234.61223316 C-16.40662058 231.28941238 -16.39159274 227.96733781 -16.37670898 224.64453125 C-16.38049077 222.26622192 -16.38598965 219.8879148 -16.39308167 217.50961304 C-16.40561783 211.7147871 -16.39945216 205.92020152 -16.38440608 200.125386 C-16.36755457 193.37867796 -16.37075515 186.63202429 -16.37450016 179.88530171 C-16.38038022 167.84829512 -16.36620151 155.8113931 -16.34155273 143.77441406 C-16.3176315 132.09143148 -16.31054827 120.40858861 -16.32104492 108.72558594 C-16.33245158 96.00691808 -16.33438733 83.28831486 -16.31994683 70.56964779 C-16.31842097 69.21369871 -16.31690061 67.85774963 -16.31538582 66.50180054 C-16.3142491 65.50104271 -16.3142491 65.50104271 -16.31308941 64.48006755 C-16.30834463 59.77605944 -16.31019939 55.07208018 -16.31445122 50.36807251 C-16.31921438 44.03810686 -16.30914654 37.70833525 -16.28749657 31.37840652 C-16.28191954 29.0515572 -16.28147174 26.72468927 -16.28644943 24.39783859 C-16.29237987 21.22879431 -16.27993982 18.06034775 -16.26268005 14.89135742 C-16.2686901 13.96412778 -16.27470014 13.03689814 -16.28089231 12.08157063 C-16.21944841 5.90452873 -16.21944841 5.90452873 -14.53827 2.70991516 C-10.5150459 -0.82142122 -5.03491667 0.02864817 0 0 Z " fill="#7A7EFE" transform="translate(199.875,1070.75)"/>
  <path d="M0 0 C1.18864655 -0.00262848 1.18864655 -0.00262848 2.40130615 -0.00531006 C5.03041761 -0.0097218 7.65946202 -0.00678903 10.28857422 -0.00341797 C12.1268617 -0.00409214 13.9651491 -0.00506311 15.80343628 -0.00631714 C19.66877079 -0.00779396 23.53408223 -0.0056435 27.39941406 -0.00097656 C32.30654344 0.00466474 37.21361745 0.00147763 42.12074471 -0.00454903 C45.92679239 -0.00820326 49.73282747 -0.00699306 53.53887558 -0.00442123 C55.34461346 -0.00376239 57.15035256 -0.00454314 58.95608902 -0.00690079 C90.57327579 -0.03906712 90.57327579 -0.03906712 102.53076172 2.87939453 C103.27656494 3.05494873 104.02236816 3.23050293 104.79077148 3.41137695 C122.01821024 7.65738036 136.52759951 16.20157477 146.40576172 31.12939453 C157.60429939 50.02141576 159.65349 75.41970891 154.59326172 96.56689453 C150.63711789 111.50772708 141.89427308 125.95051584 128.49414062 134.18945312 C112.83403654 143.15143847 96.96353123 145.76021638 79.21826172 147.12939453 C79.56381104 147.56993164 79.90936035 148.01046875 80.26538086 148.46435547 C87.17545464 157.28476138 94.01775712 166.14848458 100.71826172 175.12939453 C106.18589825 182.45749197 111.74528733 189.70527384 117.375 196.90942383 C121.19689693 201.80381954 124.95606531 206.73833338 128.65966797 211.72314453 C130.80648146 214.59880888 132.99319308 217.44268995 135.18310547 220.28564453 C135.89740723 221.21530029 136.61170898 222.14495605 137.34765625 223.1027832 C138.7735663 224.95716791 140.20278776 226.80901233 141.63574219 228.65795898 C145.21061425 233.31450581 148.62808635 237.84706838 151.21826172 243.12939453 C150.65574505 246.22323621 149.80494786 247.54974299 147.58935547 249.73876953 C144.26688398 251.68736895 141.60979992 251.59903546 137.78076172 251.62939453 C136.48267578 251.66033203 135.18458984 251.69126953 133.84716797 251.72314453 C127.45152765 250.67671038 124.63444025 245.55681341 120.90576172 240.62939453 C120.49334229 240.08677979 120.08092285 239.54416504 119.65600586 238.98510742 C118.71500555 237.7467179 117.77557381 236.50713551 116.83740234 235.26660156 C115.00685063 232.85033955 113.1677377 230.44073566 111.32763672 228.03173828 C105.07989174 219.84997422 98.84850508 211.65756642 92.68701172 203.41064453 C89.22566957 198.79552166 85.71727022 194.21597053 82.21826172 189.62939453 C73.66850287 178.41975417 73.66850287 178.41975417 69.65576172 173.06689453 C68.94033203 172.18259766 68.22490234 171.29830078 67.48779297 170.38720703 C65.53020451 167.57717472 64.25640646 165.08919208 62.85498047 161.99658203 C59.61216563 155.68923001 56.5081044 150.71301659 50.21826172 147.12939453 C43.01766374 145.47035153 35.45517489 145.93072274 28.11669922 146.04736328 C26.08894101 146.04585449 24.06118135 146.04015606 22.03344727 146.03015137 C17.09371347 146.01483595 12.15744964 146.05652166 7.21826172 146.12939453 C7.22714417 147.38584778 7.23602661 148.64230103 7.24517822 149.93682861 C7.32620169 161.76731305 7.38619724 173.59774134 7.42551041 185.42844009 C7.44640106 191.51100461 7.47474617 197.59334547 7.52001953 203.67578125 C7.56342382 209.54371087 7.58738769 215.41142513 7.59777069 221.27950287 C7.60517175 223.52026511 7.61962396 225.76101533 7.64118195 228.0016861 C7.6701433 231.13598775 7.67422068 234.26939506 7.67236328 237.40380859 C7.69393494 238.79887383 7.69393494 238.79887383 7.71594238 240.22212219 C7.67569448 246.48277122 7.67569448 246.48277122 5.39691162 249.70404053 C2.28901208 251.7373443 -0.09780226 251.66061433 -3.78173828 251.62939453 C-5.60705078 251.64486328 -5.60705078 251.64486328 -7.46923828 251.66064453 C-10.78173828 251.12939453 -10.78173828 251.12939453 -12.95702362 249.69877625 C-15.73412016 245.78834509 -15.33478124 242.17551537 -15.28967285 237.48803711 C-15.29591281 236.499222 -15.30215278 235.51040689 -15.30858183 234.49162769 C-15.32457294 231.16881988 -15.31188331 227.84673941 -15.29931641 224.52392578 C-15.30473479 222.14561534 -15.31185584 219.76730826 -15.32055664 217.38900757 C-15.33692792 211.5941902 -15.33449687 205.79960509 -15.32290608 200.00478053 C-15.31387653 195.29570105 -15.31264566 190.58667965 -15.31700134 185.87759399 C-15.31792074 184.87268314 -15.31792074 184.87268314 -15.31885871 183.84747106 C-15.3201376 182.4865461 -15.32143445 181.12562116 -15.32274908 179.76469624 C-15.33415826 166.99999465 -15.32103592 154.23540793 -15.29954761 141.47072518 C-15.28167628 130.51541941 -15.28478029 119.56028318 -15.30322266 108.60498047 C-15.32462345 95.88630602 -15.33305959 83.16773226 -15.3207736 70.44904232 C-15.31949939 69.09309325 -15.31824191 67.73714417 -15.31700134 66.38119507 C-15.31638424 65.71402318 -15.31576714 65.0468513 -15.31513134 64.35946208 C-15.31167605 59.65543917 -15.3175106 54.95148007 -15.32691956 50.24746704 C-15.33845172 43.9174598 -15.33050017 37.58777353 -15.30734253 31.25780106 C-15.30204139 28.93095051 -15.30359306 26.60407307 -15.31239319 24.27723312 C-15.32327644 21.10803807 -15.30967178 17.93988038 -15.28967285 14.77075195 C-15.29859574 13.84352231 -15.30751863 12.91629267 -15.3167119 11.96096516 C-15.24049404 5.76124007 -15.24049404 5.76124007 -12.93749237 2.58930969 C-8.78106448 -0.22549749 -4.82633939 -0.01306155 0 0 Z M7.21826172 23.12939453 C7.21826172 56.45939453 7.21826172 89.78939453 7.21826172 124.12939453 C20.60388672 124.19126953 33.98951172 124.25314453 47.78076172 124.31689453 C51.97738525 124.34420654 56.17400879 124.37151855 60.49780273 124.3996582 C64.32292573 124.40970328 64.32292573 124.40970328 68.14805603 124.41572571 C69.82658793 124.42027486 71.50511124 124.43070336 73.18357849 124.44612122 C90.87573742 124.60023932 108.42797465 123.58412348 122.15576172 110.94189453 C132.31979558 99.98609716 134.67308489 84.50173634 134.14111328 70.03076172 C133.32076322 56.79138959 130.46055386 45.17411152 120.90966797 35.38720703 C113.71336818 29.35025307 105.62601522 26.03599285 96.44702148 24.45629883 C95.35031175 24.26690625 95.35031175 24.26690625 94.23144627 24.07368755 C85.52078538 22.69759657 76.85409436 22.75191629 68.05810547 22.83642578 C66.48686037 22.8408544 64.91561079 22.84390394 63.34436035 22.84558105 C57.61475856 22.86110388 51.88525243 22.90298555 46.15576172 22.94189453 C33.30638672 23.00376953 20.45701172 23.06564453 7.21826172 23.12939453 Z " fill="#7A7DFE" transform="translate(650.78173828125,1070.87060546875)"/>
  <path d="M0 0 C1.22818451 -0.0112793 2.45636902 -0.02255859 3.72177124 -0.03417969 C5.07989738 -0.02640274 6.43802119 -0.01821008 7.79614258 -0.00964355 C9.22865511 -0.01506461 10.66116206 -0.02218719 12.09365845 -0.03088379 C15.98213489 -0.04912236 19.87018692 -0.04204767 23.75867081 -0.02936745 C27.82740678 -0.01924243 31.89610635 -0.02863173 35.96484375 -0.03491211 C42.79767381 -0.04218999 49.63033095 -0.0325972 56.46313477 -0.0135498 C64.36354143 0.00821932 72.26353519 0.00116804 80.16393185 -0.02085543 C86.94622044 -0.0390055 93.72838471 -0.04156971 100.51068974 -0.03110075 C104.56183198 -0.02486361 108.61278013 -0.0240361 112.66390991 -0.0372467 C116.47257191 -0.04879901 120.28070143 -0.04079149 124.08930588 -0.01766968 C125.48731985 -0.01237917 126.88537861 -0.0139023 128.28337479 -0.02272034 C130.19101617 -0.03364394 132.09875544 -0.01751878 134.00634766 0 C135.07411942 0.0015081 136.14189117 0.0030162 137.24201965 0.00457001 C140.68308475 0.63188385 141.8376861 1.82207783 144.00317383 4.50793457 C146.19674442 8.89507576 145.3827464 14.85161791 144.31567383 19.50793457 C142.55700441 22.18781177 141.02752182 22.52987206 138.00317383 23.50793457 C135.43576336 23.75403023 135.43576336 23.75403023 132.65641785 23.7484436 C131.59777527 23.75119293 130.53913269 23.75394226 129.44841003 23.7567749 C128.2975441 23.74958435 127.14667816 23.7423938 125.9609375 23.73498535 C124.13104782 23.73542343 124.13104782 23.73542343 122.26419067 23.73587036 C118.92771871 23.73471739 115.59149553 23.7247006 112.25506759 23.71072245 C108.76504868 23.69820318 105.2750263 23.69704365 101.7849884 23.69467163 C95.18004516 23.68846037 88.57516829 23.67205436 81.97025424 23.65197265 C73.71105789 23.62740737 65.45185073 23.61647319 57.19262695 23.60559082 C42.46275757 23.58612259 27.73303297 23.54605642 13.00317383 23.50793457 C13.00317383 53.53793457 13.00317383 83.56793457 13.00317383 114.50793457 C21.40270508 114.46152832 29.80223633 114.41512207 38.45629883 114.36730957 C44.44564434 114.34427958 50.43495667 114.32377341 56.42431831 114.3069191 C64.18751916 114.28473616 71.95054847 114.25655489 79.71362305 114.20617676 C86.51522265 114.1620591 93.31663641 114.13881229 100.11837006 114.1284256 C102.71638666 114.12102138 105.31439284 114.10656316 107.91233063 114.08501434 C111.54472504 114.05607704 115.1763472 114.05197467 118.80883789 114.05383301 C119.88849319 114.0394519 120.9681485 114.0250708 122.08052063 114.01025391 C129.36973013 114.05074148 129.36973013 114.05074148 132.64031982 116.41131592 C135.77337337 121.23121481 135.4748837 125.87181486 135.00317383 131.50793457 C133.63064676 134.62731426 133.02363083 135.99770607 130.00317383 137.50793457 C128.44464097 137.60043035 126.8821666 137.62986069 125.32089233 137.62818909 C123.8400843 137.63025108 123.8400843 137.63025108 122.32936096 137.63235474 C121.24251511 137.62875946 120.15566925 137.62516418 119.03588867 137.62145996 C117.32369896 137.621679 117.32369896 137.621679 115.57691956 137.62190247 C111.78929774 137.62120363 108.00172459 137.61341255 104.21411133 137.60559082 C101.59380114 137.60372654 98.9734906 137.60230268 96.35317993 137.6013031 C90.15190222 137.59819209 83.95064209 137.58998179 77.74937212 137.57995361 C69.99803856 137.56769026 62.24670216 137.56220818 54.49536133 137.5567627 C40.66461846 137.54701625 26.83391396 137.52698518 13.00317383 137.50793457 C13.00317383 167.20793457 13.00317383 196.90793457 13.00317383 227.50793457 C21.96860352 227.48473145 30.9340332 227.46152832 40.17114258 227.43762207 C46.56635513 227.42610613 52.96155991 227.41585318 59.35677624 227.40742683 C67.64461237 227.39633825 75.93240831 227.38225408 84.22021484 227.35705566 C90.7813475 227.33711658 97.34244984 227.32421689 103.90361196 227.31975758 C107.37745721 227.31715108 110.85121574 227.31102821 114.32503319 227.29647446 C118.20368445 227.28035655 122.082251 227.27995522 125.9609375 227.28088379 C127.6872364 227.27009796 127.6872364 227.27009796 129.44841003 227.25909424 C131.0363739 227.26321823 131.0363739 227.26321823 132.65641785 227.26742554 C133.57360187 227.26558195 134.49078588 227.26373837 135.43576336 227.26183891 C138.30259499 227.53663518 140.42562597 228.23516963 143.00317383 229.50793457 C145.86651439 233.87112019 145.5569031 239.47478345 145.00317383 244.50793457 C142.97685804 249.02109247 142.97685804 249.02109247 140.00317383 250.50793457 C138.08650187 250.61022156 136.16624076 250.64743699 134.24685669 250.65510559 C133.02142151 250.66226089 131.79598633 250.6694162 130.53341675 250.67678833 C129.16803004 250.67962869 127.80264306 250.68234041 126.43725586 250.68493652 C125.00504389 250.6912002 123.57283355 250.69784691 122.140625 250.70484924 C118.24391058 250.72226596 114.34720843 250.73281248 110.45046473 250.74105477 C108.01717445 250.74620273 105.58388801 250.7522785 103.15060043 250.7585659 C95.54094669 250.7776185 87.93130266 250.79185038 80.32162964 250.80017787 C71.53067743 250.80995639 62.73997661 250.83629148 53.94911301 250.87667876 C47.15840599 250.90680901 40.36777117 250.92164373 33.57699859 250.92495888 C29.51907512 250.92731261 25.46142018 250.93631471 21.40356827 250.96142006 C17.58679037 250.98465252 13.77045874 250.98895382 9.95362854 250.97865868 C8.55236708 250.97816204 7.151084 250.98452001 5.74988937 250.99821472 C3.83782688 251.01585776 1.92557173 251.00646694 0.01345825 250.99568176 C-1.05691114 250.99807012 -2.12728054 251.00045847 -3.23008537 251.0029192 C-5.99682617 250.50793457 -5.99682617 250.50793457 -8.34072304 249.08003521 C-10.88086955 245.13492314 -10.54903153 241.46701554 -10.50476074 236.86657715 C-10.5110007 235.87776204 -10.51724067 234.88894693 -10.52366972 233.87016773 C-10.53966083 230.54735992 -10.5269712 227.22527945 -10.5144043 223.90246582 C-10.51982268 221.52415538 -10.52694373 219.1458483 -10.53564453 216.76754761 C-10.55201582 210.97273024 -10.54958476 205.17814513 -10.53799397 199.38332057 C-10.52896442 194.67424109 -10.52773355 189.96521969 -10.53208923 185.25613403 C-10.53300863 184.25122318 -10.53300863 184.25122318 -10.5339466 183.2260111 C-10.53522549 181.86508614 -10.53652234 180.5041612 -10.53783697 179.14323628 C-10.54924615 166.37853469 -10.53612381 153.61394797 -10.5146355 140.84926522 C-10.49676417 129.89395945 -10.49986818 118.93882321 -10.51831055 107.98352051 C-10.53971134 95.26484606 -10.54814749 82.5462723 -10.53586149 69.82758236 C-10.53458728 68.47163329 -10.5333298 67.11568421 -10.53208923 65.75973511 C-10.53147213 65.09256322 -10.53085503 64.42539134 -10.53021923 63.73800212 C-10.52676394 59.03397921 -10.53259849 54.33002011 -10.54200745 49.62600708 C-10.55353961 43.29599983 -10.54558806 36.96631357 -10.52243042 30.63634109 C-10.51712928 28.30949055 -10.51868095 25.98261311 -10.52748108 23.65577316 C-10.53836433 20.48657811 -10.52475967 17.31842042 -10.50476074 14.14929199 C-10.51368363 13.22206235 -10.52260652 12.29483271 -10.53179979 11.3395052 C-10.48461651 7.50151525 -10.44940672 5.21013785 -8.3398819 1.93709564 C-5.36471964 0.12237735 -3.48094877 0.00491643 0 0 Z " fill="#7A7EFE" transform="translate(1033.996826171875,1071.4920654296875)"/>
  <path d="M0 0 C1.8253125 -0.01546875 1.8253125 -0.01546875 3.6875 -0.03125 C7.52106559 0.58356712 8.65615493 1.48004578 11 4.5 C12.24283629 6.98567258 12.13854874 8.66617903 12.15821838 11.44802856 C12.1680072 12.494133 12.17779602 13.54023743 12.18788147 14.61804199 C12.19651466 16.34649353 12.19651466 16.34649353 12.20532227 18.10986328 C12.21522186 19.31959808 12.22512146 20.52933289 12.23532104 21.77572632 C12.26154305 25.09781077 12.28339092 28.41987074 12.30332303 31.74199533 C12.32516736 35.21204643 12.35256363 38.6820535 12.37937927 42.15206909 C12.42932721 48.72518195 12.47425822 55.29831921 12.51740164 61.87147987 C12.56675608 69.35387964 12.62168085 76.83623524 12.67708123 84.31859231 C12.79093351 99.71235407 12.89776546 115.10615643 13 130.5 C15.85846007 127.67097124 18.71094984 124.83599221 21.5625 122 C22.36236328 121.20851563 23.16222656 120.41703125 23.98632812 119.6015625 C28.31169001 115.29385516 32.48858777 110.92774567 36.44691467 106.2791748 C39.28315313 103.03005262 42.36951787 100.02831825 45.4375 97 C46.12126709 96.32001953 46.80503418 95.64003906 47.50952148 94.93945312 C50.39737773 92.06774857 53.29123075 89.20211562 56.18457031 86.3359375 C58.31265725 84.22607213 60.43762917 82.11310355 62.5625 80 C63.20437256 79.36642578 63.84624512 78.73285156 64.50756836 78.08007812 C68.26466386 74.34307929 71.79294022 70.47881771 75.25585938 66.46899414 C78.10809473 63.24905039 81.15776624 60.23876419 84.21875 57.21875 C84.88032104 56.56096558 85.54189209 55.90318115 86.22351074 55.22546387 C89.01578144 52.44933442 91.81405416 49.67928463 94.61181641 46.90869141 C96.67040898 44.8683292 98.72587903 42.82485669 100.78125 40.78125 C101.71124817 39.86369934 101.71124817 39.86369934 102.66003418 38.9276123 C106.38947416 35.21878946 109.8929965 31.3778847 113.33102417 27.39828491 C115.73831112 24.66024856 118.2807162 22.07563819 120.86328125 19.50390625 C121.38133835 18.98489243 121.89939545 18.4658786 122.43315125 17.93113708 C123.51158133 16.8520348 124.59124166 15.77416062 125.67211914 14.69750977 C127.33012955 13.04492818 128.98263976 11.38697801 130.63476562 9.72851562 C131.68978311 8.67415781 132.74511014 7.62010962 133.80078125 6.56640625 C134.29347 6.07169327 134.78615875 5.57698029 135.29377747 5.067276 C139.80022357 0.591862 142.67153089 0.26984694 148.875 0.1875 C149.59558594 0.15849609 150.31617188 0.12949219 151.05859375 0.09960938 C154.63536075 0.05679356 156.58341399 0.1764316 159.44921875 2.40234375 C161.91891058 5.74295965 161.91891058 5.74295965 162 8.5 C159.77322245 14.20455374 156.08478064 17.73532691 151.75 21.875 C147.87186491 25.62101426 144.06430722 29.3543859 140.546875 33.4453125 C136.08653019 38.62973926 131.19255334 43.35561399 126.31640625 48.14453125 C122.2817751 52.13538702 118.46028262 56.21652009 114.75976562 60.51757812 C111.03608091 64.71240607 106.96344461 68.57416927 102.9609375 72.5 C99.68299366 75.73997537 96.50864439 79.00697069 93.5 82.5 C89.24967188 87.43462131 84.60741662 91.94253389 79.9609375 96.5 C76.00033602 100.41472579 72.25460592 104.43314641 68.62060547 108.65234375 C66.37058247 111.21760046 63.99201541 113.60376563 61.5625 116 C60.69753906 116.8559375 59.83257813 117.711875 58.94140625 118.59375 C58.30074219 119.2228125 57.66007813 119.851875 57 120.5 C58.28895717 123.31351786 59.66268505 125.4325707 61.79296875 127.671875 C62.33727539 128.24969727 62.88158203 128.82751953 63.44238281 129.42285156 C64.01827148 130.02581055 64.59416016 130.62876953 65.1875 131.25 C66.37452696 132.50963593 67.56073245 133.7700465 68.74609375 135.03125 C69.31312012 135.63324219 69.88014648 136.23523437 70.46435547 136.85546875 C72.8169212 139.37484598 75.0760403 141.9692744 77.328125 144.578125 C79.35758073 146.91105074 81.427647 149.20511245 83.5 151.5 C86.17048344 154.45869751 88.82298058 157.42926472 91.4375 160.4375 C94.24822525 163.66559512 97.115799 166.83738443 100 170 C103.45328153 173.78662998 106.86099051 177.6047632 110.22265625 181.47265625 C112.29359487 183.83489173 114.39512848 186.16795853 116.5 188.5 C119.18983431 191.48062721 121.86310364 194.47245233 124.5 197.5 C128.61081039 202.21701284 132.80667845 206.85638889 137 211.5 C150.98578317 226.98761224 150.98578317 226.98761224 157.375 234.75 C158.04273438 235.55953125 158.71046875 236.3690625 159.3984375 237.203125 C160.95453219 239.43479251 161.72951291 240.81168957 162 243.5 C159.66666667 249.16666667 159.66666667 249.16666667 157 250.5 C144.75248175 251.81758143 144.75248175 251.81758143 139.6171875 249.359375 C137.51409862 247.54667078 135.78921032 245.62491046 134 243.5 C132.63167011 242.03978227 131.2632035 240.5796889 129.8918457 239.12231445 C125.80187377 234.73573888 121.86183603 230.21473173 117.93359375 225.68359375 C114.86067171 222.21336461 111.6999028 218.82487958 108.54980469 215.42480469 C103.98403358 210.49354346 99.48255338 205.50702032 95 200.5 C90.15529061 195.09662142 85.28790925 189.71635577 80.375 184.375 C77.39781719 181.13782784 74.44047144 177.88862271 71.5625 174.5625 C68.48786607 171.01597981 65.3142604 167.56805296 62.125 164.125 C54.62393488 156.02702078 47.23928252 147.833322 40 139.5 C29.49691882 144.31761807 18.29470412 154.05538761 13 164.5 C9.01416675 176.50886141 10.54244777 190.43931953 11.13201904 202.87280273 C11.36888995 208.39840173 11.44646687 213.92823697 11.54384995 219.45773125 C11.62166137 223.75003363 11.72332215 228.03681984 11.90240479 232.32620239 C11.93009445 233.10917694 11.95778412 233.89215149 11.98631287 234.69885254 C12.0385576 236.15191114 12.10262695 237.60461663 12.18122864 239.05648804 C12.32087737 243.41967033 11.68466167 246.03673084 9 249.5 C6.06276222 250.96861889 3.39407643 250.74793404 0.125 250.8125 C-1.10992188 250.84988281 -2.34484375 250.88726563 -3.6171875 250.92578125 C-7 250.5 -7 250.5 -9.17967987 249.07597351 C-11.94760267 245.15902742 -11.55305208 241.54706814 -11.50793457 236.85864258 C-11.51417453 235.86982747 -11.5204145 234.88101236 -11.52684355 233.86223316 C-11.54283466 230.53942535 -11.53014503 227.21734488 -11.51757812 223.89453125 C-11.5229965 221.51622081 -11.53011756 219.13791373 -11.53881836 216.75961304 C-11.55518964 210.96479567 -11.55275859 205.17021056 -11.5411678 199.375386 C-11.53213825 194.66630652 -11.53090738 189.95728512 -11.53526306 185.24819946 C-11.53618246 184.24328861 -11.53618246 184.24328861 -11.53712043 183.21807653 C-11.53839932 181.85715157 -11.53969617 180.49622663 -11.5410108 179.13530171 C-11.55241998 166.37060012 -11.53929764 153.6060134 -11.51780933 140.84133065 C-11.499938 129.88602488 -11.50304201 118.93088864 -11.52148438 107.97558594 C-11.54288517 95.25691148 -11.55132131 82.53833773 -11.53903532 69.81964779 C-11.53776111 68.46369872 -11.53650363 67.10774964 -11.53526306 65.75180054 C-11.53464596 65.08462865 -11.53402886 64.41745677 -11.53339306 63.73006755 C-11.52993777 59.02604464 -11.53577232 54.32208554 -11.54518127 49.61807251 C-11.55671344 43.28806526 -11.54876189 36.958379 -11.52560425 30.62840652 C-11.52030311 28.30155598 -11.52185478 25.97467854 -11.53065491 23.64783859 C-11.54153815 20.47864354 -11.5279335 17.31048585 -11.50793457 14.14135742 C-11.51685746 13.21412778 -11.52578034 12.28689814 -11.53497362 11.33157063 C-11.45893251 5.14622312 -11.45893251 5.14622312 -9.17528534 1.93061829 C-6.07033572 -0.11141161 -3.68572217 -0.03123493 0 0 Z " fill="#7A7EFE" transform="translate(844,1071.5)"/>
  <path d="M0 0 C0.87140625 -0.00515625 1.7428125 -0.0103125 2.640625 -0.015625 C3.99414062 0.00757813 3.99414062 0.00757813 5.375 0.03125 C6.27734375 0.01578125 7.1796875 0.0003125 8.109375 -0.015625 C8.98078125 -0.01046875 9.8521875 -0.0053125 10.75 0 C11.54148437 0.00451172 12.33296875 0.00902344 13.1484375 0.01367188 C16.21461323 0.72642325 17.31517401 2.18196039 19.375 4.53125 C20.51867676 6.81283569 20.51867676 6.81283569 21.43945312 9.36083984 C21.79583359 10.32958542 22.15221405 11.29833099 22.51939392 12.2964325 C22.89455643 13.35103165 23.26971893 14.4056308 23.65625 15.4921875 C24.06206802 16.60419022 24.46788605 17.71619293 24.88600159 18.8618927 C25.99399211 21.90338519 27.0921846 24.94820778 28.18654251 27.99462509 C29.34813507 31.21999385 30.52289642 34.44055376 31.69702148 37.66137695 C33.15263795 41.65645454 34.60732334 45.65185611 36.05674744 49.64918518 C40.38646102 61.58921165 44.78680074 73.50248062 49.20849609 85.40875244 C50.86309381 89.86497458 52.5146363 94.32232661 54.16622925 98.77966309 C55.40757199 102.12974447 56.6493051 105.47968096 57.89111328 108.82958984 C61.63878389 118.94017222 65.38316863 129.05197159 69.12783813 139.16366577 C70.36662668 142.50864037 71.60553303 145.8535713 72.84448242 149.19848633 C76.72501117 159.67520998 80.60504936 170.15211466 84.48358154 180.62957764 C86.30154806 185.54054925 88.11975922 190.45143027 89.93798828 195.36230469 C90.79878721 197.6874549 91.65946829 200.01264874 92.52001953 202.33789062 C93.3310319 204.5292608 94.14232323 206.72052775 94.95391846 208.91168213 C95.71797453 210.97606469 96.48067218 213.04095063 97.24188232 215.10638428 C98.880036 219.5434305 100.53514053 223.9696612 102.27441406 228.36816406 C102.55962921 229.09774323 102.84484436 229.82732239 103.13870239 230.57901001 C103.87773952 232.46075719 104.62986978 234.33734851 105.38330078 236.21337891 C106.4702523 239.84993013 106.66534923 242.75556467 106.375 246.53125 C104.84375 248.9375 104.84375 248.9375 102.375 250.53125 C98.84375 251.0625 98.84375 251.0625 94.875 251.03125 C92.91046875 251.04671875 92.91046875 251.04671875 90.90625 251.0625 C86.71559982 250.4320482 85.99575484 249.76031892 83.375 246.53125 C82.23097214 244.07871157 81.25759447 241.71822656 80.33984375 239.18359375 C80.05092758 238.41393784 79.76201141 237.64428192 79.46434021 236.8513031 C78.80265706 235.0857236 78.14583831 233.31831647 77.49285889 231.54949951 C76.25983821 228.22031003 75.00654473 224.89917881 73.75048828 221.57861328 C71.55346353 215.76760736 69.3701374 209.9515966 67.19548988 204.13218117 C65.67400668 200.06075083 64.14766415 195.99118977 62.61764622 191.92295933 C61.62529727 189.28110331 60.63727088 186.63764624 59.65043449 183.99372673 C58.95335356 182.12960553 58.25156596 180.26724654 57.54969788 178.40492249 C57.13183517 177.28202316 56.71397247 176.15912384 56.28344727 175.00219727 C55.72887596 173.52143456 55.72887596 173.52143456 55.1631012 172.01075745 C54.375 169.53125 54.375 169.53125 54.375 166.53125 C22.035 166.53125 -10.305 166.53125 -43.625 166.53125 C-44.285 169.50125 -44.945 172.47125 -45.625 175.53125 C-46.263956 177.52192191 -46.94693018 179.49931324 -47.68457031 181.45556641 C-48.08548889 182.52763336 -48.48640747 183.59970032 -48.8994751 184.70425415 C-49.5447818 186.40139053 -49.5447818 186.40139053 -50.203125 188.1328125 C-50.65218201 189.32748138 -51.10123901 190.52215027 -51.56390381 191.75302124 C-52.51262804 194.27379315 -53.46349105 196.79361245 -54.41845703 199.31201172 C-55.62488807 202.49360362 -56.82479271 205.67760252 -58.02228546 208.8625679 C-60.48593039 215.41502259 -62.96871722 221.95990982 -65.46850586 228.49865723 C-66.48534012 231.16502978 -67.49103824 233.83527977 -68.49414062 236.50683594 C-69.01083172 237.85645972 -69.52831397 239.20578109 -70.046875 240.5546875 C-70.4603418 241.64442871 -70.87380859 242.73416992 -71.29980469 243.85693359 C-72.73449626 246.75221942 -74.11307259 248.50705814 -76.625 250.53125 C-80.15625 251.0625 -80.15625 251.0625 -84.125 251.03125 C-86.08953125 251.04671875 -86.08953125 251.04671875 -88.09375 251.0625 C-91.625 250.53125 -91.625 250.53125 -94.09375 248.9375 C-96.23086574 245.57917526 -95.91364256 243.49512569 -95.625 239.53125 C-94.83516861 236.49609943 -93.73823966 233.60725144 -92.609375 230.68359375 C-92.12540253 229.38839561 -92.12540253 229.38839561 -91.63165283 228.06703186 C-90.55654627 225.19689206 -89.46563454 222.33302131 -88.375 219.46875 C-87.60685869 217.42558629 -86.83995854 215.38195559 -86.07421875 213.33789062 C-84.4429241 208.98630533 -82.80620254 204.63681526 -81.16601562 200.28857422 C-77.36170475 190.18910421 -73.62670513 180.06396474 -69.88562012 169.94094849 C-68.19188401 165.35976707 -66.49491688 160.77978543 -64.7979126 156.19981384 C-59.89953107 142.97969509 -55.01043715 129.75615671 -50.125 116.53125 C-45.61295934 104.31768277 -41.09831382 92.10508557 -36.578125 79.89453125 C-36.14939087 78.73624817 -35.72065674 77.57796509 -35.27893066 76.38458252 C-33.12849808 70.57595553 -30.97620708 64.7680279 -28.8203125 58.96142578 C-23.65243459 45.03971677 -23.65243459 45.03971677 -18.55792236 31.09104919 C-17.35922503 27.78213626 -16.15331649 24.47587406 -14.94689941 21.16976929 C-14.40627023 19.68087106 -13.86961433 18.19052306 -13.33728027 16.69863892 C-12.62004604 14.68861748 -11.88971757 12.68383045 -11.15625 10.6796875 C-10.75986328 9.57802246 -10.36347656 8.47635742 -9.95507812 7.34130859 C-7.67901781 2.53267162 -5.44790245 0.03105482 0 0 Z M4.375 36.53125 C4.17471695 37.08056183 3.9744339 37.62987366 3.76808167 38.1958313 C1.15939729 45.34985532 -1.45114317 52.50320107 -4.0625 59.65625 C-4.48595703 60.81629547 -4.90941406 61.97634094 -5.34570312 63.17153931 C-12.27153091 82.13970892 -19.24747683 101.08884196 -26.27905273 120.01806641 C-26.94645584 121.81803236 -27.61385514 123.61799973 -28.28125 125.41796875 C-28.57733658 126.2127211 -28.87342316 127.00747345 -29.17848206 127.8263092 C-31.1078425 133.03352801 -32.86674041 138.25647124 -34.625 143.53125 C-8.225 143.53125 18.175 143.53125 45.375 143.53125 C38.49688286 123.75048819 38.49688286 123.75048819 31.33569336 104.07666016 C30.99504852 103.16072083 30.65440369 102.24478149 30.30343628 101.30108643 C29.95580231 100.36641541 29.60816833 99.43174438 29.25 98.46875 C28.51609619 96.49016849 27.78245833 94.51148832 27.04907227 92.53271484 C25.93002254 89.51346546 24.81081751 86.49427485 23.69075012 83.47540283 C19.88167649 73.20835969 16.09563655 62.93287253 12.3125 52.65625 C11.70493898 51.00642034 11.09735509 49.3565991 10.48974609 47.70678711 C9.11789155 43.98170836 7.74633931 40.25651846 6.375 36.53125 C5.715 36.53125 5.055 36.53125 4.375 36.53125 Z " fill="#7A7DFE" transform="translate(513.625,1071.46875)"/>
  <path d="M0 0 C0.69973731 -0.00709439 1.39947463 -0.01418877 2.1204161 -0.02149814 C4.45925327 -0.03906551 6.79642567 -0.02098211 9.13523865 -0.00291443 C10.81420142 -0.00805374 12.49315879 -0.0153351 14.17210388 -0.02459717 C18.72791931 -0.04311666 23.28314976 -0.03016986 27.83894086 -0.01050687 C32.60567743 0.00587376 37.37237678 -0.00293232 42.13912964 -0.00802612 C50.14297333 -0.0125473 58.14658334 0.00332531 66.15037537 0.03126526 C75.40669722 0.06332822 84.66259785 0.06329729 93.91894966 0.04605049 C102.8213146 0.03019366 111.72352494 0.03691281 120.6258831 0.0539875 C124.41570584 0.06086391 128.20540489 0.05981955 131.99522591 0.05244255 C136.45640862 0.04478822 140.91711118 0.05687769 145.37821198 0.08429146 C147.01649233 0.09118496 148.65481745 0.09126292 150.29309654 0.08407593 C152.52747861 0.07540245 154.76037154 0.09129881 156.99462891 0.11352539 C158.87087621 0.11773577 158.87087621 0.11773577 160.7850275 0.12203121 C164.5218472 0.72271199 165.71362194 1.60935467 167.93382263 4.62818909 C168.46507263 7.94068909 168.46507263 7.94068909 168.43382263 11.62818909 C168.44929138 13.45350159 168.44929138 13.45350159 168.46507263 15.31568909 C167.85025551 19.14925468 166.95377685 20.28434402 163.93382263 22.62818909 C160.99135536 24.09942272 158.38197241 23.74743673 155.09739685 23.74171448 C154.39484772 23.7418605 153.69229858 23.74200653 152.96846008 23.74215698 C150.6417789 23.74145923 148.31517736 23.73367327 145.98851013 23.72584534 C144.37711124 23.72398067 142.76571179 23.722557 141.15431213 23.72155762 C136.90953511 23.71773629 132.66479221 23.70790927 128.42002869 23.69685364 C124.08999595 23.68663127 119.7599577 23.68205822 115.42991638 23.67701721 C106.93120279 23.66628667 98.43251695 23.64921484 89.93382263 23.62818909 C89.93658801 24.76255496 89.93935339 25.89692083 89.94220257 27.06566143 C90.00875715 54.64828794 90.05807896 82.23090406 90.08925915 109.81359386 C90.10473785 123.1522956 90.12584658 136.49093798 90.16014099 149.8296051 C90.19001258 161.45355826 90.20939033 173.07747305 90.21608812 184.70146352 C90.22000416 190.85810394 90.22922834 197.01463457 90.2510128 203.17123985 C90.27134248 208.96351145 90.27766352 214.75562779 90.27314568 220.54793167 C90.27397245 222.67602824 90.27995893 224.8041299 90.29143906 226.93219566 C90.30632793 229.83395634 90.30278927 232.73512803 90.29458618 235.63690186 C90.30332471 236.48223722 90.31206323 237.32757259 90.32106656 238.19852418 C90.28561682 242.82643717 89.94379503 245.87045854 86.93382263 249.62818909 C83.99658485 251.09680798 81.32789906 250.87612313 78.05882263 250.94068909 C76.82390076 250.9780719 75.58897888 251.01545471 74.31663513 251.05397034 C70.93382263 250.62818909 70.93382263 250.62818909 68.75246048 249.16076279 C66.06656486 245.42047518 66.39156037 242.180862 66.45280457 237.68122864 C66.44938687 236.76717876 66.44596917 235.85312889 66.4424479 234.91138053 C66.43584759 231.8417317 66.45788085 228.77295297 66.47972107 225.7033844 C66.48084908 223.50577821 66.4802166 221.3081705 66.47795105 219.11056519 C66.47680117 213.13772058 66.50035503 207.16519585 66.52824688 201.19242573 C66.55321482 194.95307337 66.5555989 188.71371406 66.56034851 182.47431946 C66.57137715 171.99967779 66.59637925 161.52513529 66.63206482 151.05055237 C66.66878242 140.26182137 66.69709539 129.4731223 66.71409607 118.68434143 C66.71567241 117.68676775 66.71567241 117.68676775 66.7172806 116.66904107 C66.72250076 113.33267591 66.72754657 109.99631054 66.73252821 106.65994501 C66.77436323 78.98261113 66.84474171 51.30540837 66.93382263 23.62818909 C66.04290421 23.63263031 65.15198578 23.63707153 64.23406982 23.64164734 C55.83272061 23.68174285 47.4314036 23.71218308 39.02998066 23.73181343 C34.71085842 23.74224489 30.39181534 23.75639246 26.07273865 23.77906799 C21.90358898 23.8008191 17.73451538 23.81276252 13.56531334 23.81794357 C11.97572317 23.82163525 10.3861371 23.82884419 8.79657936 23.8396492 C6.56790333 23.85419435 4.33954055 23.85616578 2.11082458 23.85523987 C0.84285538 23.85968109 -0.42511383 23.86412231 -1.73150635 23.86869812 C-4.98278345 23.63420377 -7.18150227 23.11051156 -10.06617737 21.62818909 C-12.34111281 18.52348996 -12.42273119 15.46659043 -12.50367737 11.69068909 C-12.54363831 10.67104065 -12.58359924 9.65139221 -12.62477112 8.60084534 C-11.31481527 1.6296817 -6.46573368 0.00302981 0 0 Z " fill="#7A7EFE" transform="translate(1193.066177368164,1071.371810913086)"/>
  <path d="M0 0 C0.66 0.33 1.32 0.66 2 1 C-7.57 10.57 -17.14 20.14 -27 30 C-27 27 -27 27 -25.1015625 24.84375 C-24.28429687 24.0703125 -23.46703125 23.296875 -22.625 22.5 C-20.04782096 20.04554377 -17.98069878 17.97104817 -16 15 C-15.34 15 -14.68 15 -14 15 C-13.67 14.01 -13.34 13.02 -13 12 C-11.328125 10.3515625 -11.328125 10.3515625 -9.25 8.625 C-6.00331159 5.87465784 -2.96094821 3.05347784 0 0 Z " fill="#0CBF8E" transform="translate(467,223)"/>
</svg>