<svg xmlns="http://www.w3.org/2000/svg" width="512" height="512" viewBox="132.18 130.60 289.22 250.80" preserveAspectRatio="xMidYMid meet">
  <defs>
    <filter id="glow" x="-30%" y="-30%" width="160%" height="160%">
      <feGaussianBlur in="SourceGraphic" stdDeviation="2.4" result="blur" />
      <feMerge>
        <feMergeNode in="blur" />
        <feMergeNode in="SourceGraphic" />
      </feMerge>
    </filter>
    <clipPath id="hull-clip">
      <path d="M 284.69,360.50 C 283.93,360.53 283.09,360.59 282.31,360.50 C 281.54,360.41 280.77,360.22 280.02,359.95 C 279.27,359.67 278.54,359.30 277.82,358.84 C 277.10,358.37 276.39,357.82 275.70,357.17 C 275.01,356.52 274.33,355.79 273.67,354.95 C 273.01,354.12 272.36,353.20 271.73,352.18 C 271.09,351.16 270.47,350.05 269.87,348.85 C 269.26,347.65 268.67,346.36 268.09,344.97 C 267.52,343.58 266.95,341.93 266.41,340.53 C 265.86,339.13 265.34,337.81 264.84,336.56 C 264.34,335.32 263.86,334.15 263.41,333.06 C 262.95,331.97 262.51,330.96 262.09,330.03 C 261.68,329.10 261.28,328.24 260.91,327.47 C 260.53,326.69 260.18,325.99 259.84,325.38 C 259.51,324.76 259.20,324.21 258.91,323.75 C 258.61,323.29 258.34,322.90 258.09,322.59 C 257.84,322.29 257.77,322.22 257.41,321.91 C 257.04,321.59 256.55,321.19 255.91,320.70 C 255.28,320.20 254.52,319.63 253.62,318.96 C 252.72,318.30 251.68,317.54 250.52,316.70 C 249.35,315.86 248.05,314.94 246.61,313.92 C 245.17,312.91 243.60,311.81 241.90,310.62 C 240.19,309.43 238.36,308.15 236.38,306.79 C 234.41,305.43 232.30,303.98 230.06,302.44 C 227.82,300.90 225.17,299.10 222.94,297.56 C 220.70,296.03 218.61,294.58 216.66,293.23 C 214.71,291.87 212.91,290.61 211.24,289.43 C 209.58,288.25 208.05,287.17 206.67,286.17 C 205.29,285.18 204.05,284.27 202.95,283.45 C 201.86,282.64 200.90,281.91 200.09,281.27 C 199.27,280.64 198.60,280.09 198.07,279.63 C 197.54,279.18 197.15,278.81 196.91,278.53 C 196.66,278.25 196.68,278.15 196.59,277.97 C 196.51,277.79 196.44,277.62 196.38,277.46 C 196.33,277.30 196.29,277.15 196.27,277.01 C 196.25,276.87 196.25,276.73 196.27,276.61 C 196.28,276.49 196.31,276.37 196.36,276.27 C 196.41,276.16 196.47,276.06 196.55,275.98 C 196.64,275.89 196.74,275.81 196.85,275.74 C 196.97,275.67 197.10,275.61 197.25,275.56 C 197.40,275.51 197.60,275.49 197.75,275.44 C 197.90,275.38 198.05,275.32 198.18,275.24 C 198.31,275.17 198.43,275.08 198.54,274.98 C 198.65,274.88 198.74,274.76 198.83,274.64 C 198.91,274.52 198.99,274.38 199.05,274.23 C 199.11,274.09 199.16,273.93 199.20,273.76 C 199.23,273.59 199.26,273.40 199.27,273.21 C 199.29,273.02 199.29,272.81 199.28,272.59 C 199.27,272.38 199.30,272.12 199.22,271.91 C 199.14,271.69 198.99,271.48 198.79,271.29 C 198.58,271.10 198.32,270.91 197.99,270.74 C 197.67,270.57 197.28,270.41 196.83,270.27 C 196.38,270.12 195.87,269.98 195.30,269.86 C 194.73,269.74 194.09,269.62 193.40,269.52 C 192.70,269.42 191.95,269.33 191.13,269.26 C 190.32,269.18 189.44,269.12 188.50,269.06 C 187.56,269.01 186.48,268.99 185.50,268.94 C 184.52,268.88 183.55,268.82 182.61,268.73 C 181.66,268.65 180.74,268.56 179.83,268.45 C 178.92,268.35 178.03,268.23 177.16,268.09 C 176.28,267.96 175.43,267.82 174.59,267.66 C 173.76,267.50 172.94,267.33 172.14,267.14 C 171.34,266.96 170.56,266.76 169.80,266.55 C 169.03,266.34 168.29,266.11 167.56,265.88 C 166.84,265.64 166.12,265.37 165.44,265.12 C 164.76,264.88 164.11,264.64 163.49,264.40 C 162.87,264.16 162.29,263.93 161.73,263.70 C 161.17,263.46 160.64,263.24 160.14,263.02 C 159.64,262.79 159.17,262.57 158.73,262.36 C 158.30,262.14 157.89,261.93 157.51,261.73 C 157.13,261.52 156.78,261.32 156.46,261.12 C 156.14,260.92 155.85,260.72 155.59,260.53 C 155.33,260.34 155.12,260.16 154.91,259.97 C 154.70,259.78 154.50,259.58 154.33,259.38 C 154.15,259.17 154.00,258.96 153.86,258.75 C 153.72,258.54 153.60,258.32 153.50,258.09 C 153.40,257.87 153.32,257.64 153.25,257.41 C 153.18,257.17 153.14,256.93 153.11,256.69 C 153.08,256.44 153.07,256.19 153.08,255.94 C 153.09,255.68 153.11,255.42 153.16,255.16 C 153.20,254.89 153.24,254.62 153.34,254.34 C 153.44,254.07 153.58,253.80 153.76,253.52 C 153.93,253.25 154.15,252.97 154.40,252.70 C 154.65,252.42 154.94,252.14 155.27,251.86 C 155.59,251.58 155.96,251.30 156.36,251.02 C 156.76,250.73 157.20,250.45 157.68,250.16 C 158.16,249.88 158.67,249.59 159.23,249.30 C 159.78,249.02 160.37,248.73 161.00,248.44 C 161.63,248.15 162.30,247.84 163.00,247.56 C 163.70,247.28 164.43,247.02 165.19,246.77 C 165.95,246.51 166.74,246.27 167.56,246.05 C 168.39,245.82 169.24,245.61 170.12,245.41 C 171.01,245.21 171.93,245.02 172.88,244.84 C 173.82,244.67 174.80,244.51 175.81,244.36 C 176.82,244.21 177.86,244.08 178.94,243.95 C 180.01,243.83 181.11,243.72 182.25,243.62 C 183.39,243.53 184.66,243.46 185.75,243.38 C 186.84,243.29 187.86,243.21 188.80,243.12 C 189.74,243.04 190.60,242.96 191.39,242.88 C 192.18,242.79 192.89,242.71 193.53,242.62 C 194.17,242.54 194.73,242.46 195.22,242.38 C 195.71,242.29 196.12,242.21 196.45,242.12 C 196.79,242.04 197.05,241.96 197.23,241.88 C 197.42,241.79 197.53,241.71 197.56,241.62 C 197.60,241.54 197.51,241.45 197.44,241.38 C 197.37,241.30 197.28,241.23 197.16,241.17 C 197.04,241.11 196.89,241.06 196.72,241.02 C 196.55,240.97 196.35,240.93 196.12,240.91 C 195.90,240.88 195.65,240.86 195.38,240.84 C 195.10,240.83 194.80,240.83 194.47,240.83 C 194.14,240.83 193.79,240.84 193.41,240.86 C 193.03,240.88 192.62,240.90 192.19,240.94 C 191.76,240.97 191.25,241.03 190.81,241.06 C 190.38,241.10 189.97,241.12 189.59,241.13 C 189.20,241.15 188.84,241.15 188.51,241.15 C 188.17,241.14 187.86,241.13 187.58,241.11 C 187.29,241.09 187.03,241.06 186.80,241.02 C 186.56,240.98 186.35,240.93 186.16,240.87 C 185.98,240.81 185.82,240.74 185.68,240.66 C 185.54,240.59 185.43,240.50 185.34,240.41 C 185.26,240.31 185.21,240.20 185.16,240.09 C 185.10,239.99 185.05,239.89 185.02,239.80 C 184.98,239.70 184.95,239.61 184.92,239.52 C 184.90,239.42 184.88,239.34 184.88,239.25 C 184.87,239.16 184.87,239.08 184.88,239.00 C 184.88,238.92 184.90,238.84 184.92,238.77 C 184.95,238.69 184.98,238.62 185.02,238.55 C 185.05,238.48 185.10,238.41 185.16,238.34 C 185.21,238.28 185.25,238.21 185.34,238.16 C 185.44,238.10 185.57,238.04 185.73,237.99 C 185.89,237.94 186.08,237.89 186.30,237.85 C 186.53,237.81 186.79,237.77 187.08,237.73 C 187.37,237.70 187.69,237.67 188.05,237.64 C 188.40,237.61 188.79,237.59 189.21,237.57 C 189.63,237.55 190.08,237.54 190.57,237.52 C 191.06,237.51 191.57,237.50 192.12,237.50 C 192.68,237.50 193.34,237.51 193.88,237.50 C 194.41,237.49 194.90,237.48 195.34,237.46 C 195.77,237.44 196.17,237.42 196.51,237.38 C 196.85,237.35 197.14,237.31 197.39,237.27 C 197.64,237.22 197.83,237.17 197.98,237.11 C 198.13,237.05 198.24,236.99 198.29,236.91 C 198.34,236.84 198.35,236.76 198.30,236.68 C 198.26,236.60 198.17,236.50 198.03,236.41 C 197.89,236.31 197.64,236.20 197.47,236.09 C 197.29,235.99 197.13,235.89 196.98,235.78 C 196.84,235.68 196.70,235.57 196.58,235.47 C 196.46,235.36 196.35,235.26 196.25,235.16 C 196.15,235.05 196.07,234.95 196.00,234.84 C 195.93,234.74 195.87,234.64 195.83,234.53 C 195.78,234.43 195.75,234.32 195.73,234.22 C 195.72,234.11 195.71,234.01 195.72,233.91 C 195.73,233.80 195.61,233.80 195.78,233.59 C 195.95,233.39 196.28,233.08 196.76,232.68 C 197.24,232.27 197.87,231.77 198.65,231.16 C 199.43,230.56 200.37,229.85 201.45,229.05 C 202.54,228.24 203.78,227.33 205.17,226.33 C 206.56,225.32 208.11,224.21 209.80,223.01 C 211.50,221.80 213.35,220.49 215.35,219.09 C 217.35,217.68 219.51,216.17 221.81,214.56 C 224.12,212.95 226.87,211.05 229.19,209.44 C 231.51,207.82 233.69,206.30 235.73,204.87 C 237.77,203.44 239.67,202.10 241.43,200.85 C 243.19,199.61 244.81,198.45 246.30,197.39 C 247.78,196.33 249.12,195.36 250.33,194.48 C 251.53,193.61 252.60,192.82 253.52,192.13 C 254.45,191.44 255.24,190.84 255.88,190.34 C 256.53,189.83 257.04,189.42 257.41,189.09 C 257.77,188.77 257.86,188.66 258.09,188.41 C 258.32,188.15 258.55,187.87 258.78,187.56 C 259.01,187.26 259.24,186.92 259.47,186.56 C 259.70,186.20 259.93,185.82 260.16,185.41 C 260.39,184.99 260.61,184.56 260.84,184.09 C 261.07,183.63 261.30,183.14 261.53,182.62 C 261.76,182.11 261.99,181.57 262.22,181.00 C 262.45,180.43 262.68,179.84 262.91,179.22 C 263.14,178.60 263.36,177.94 263.59,177.28 C 263.83,176.63 264.07,175.96 264.32,175.29 C 264.57,174.62 264.82,173.93 265.09,173.24 C 265.35,172.55 265.62,171.85 265.89,171.14 C 266.17,170.43 266.45,169.71 266.73,168.98 C 267.02,168.26 267.32,167.52 267.62,166.77 C 267.92,166.03 268.23,165.27 268.54,164.51 C 268.85,163.74 269.17,162.97 269.50,162.19 C 269.83,161.40 270.14,160.55 270.50,159.81 C 270.86,159.07 271.25,158.38 271.67,157.73 C 272.09,157.09 272.54,156.50 273.02,155.95 C 273.49,155.41 274.00,154.91 274.53,154.47 C 275.07,154.02 275.63,153.63 276.22,153.28 C 276.81,152.93 277.43,152.64 278.08,152.39 C 278.73,152.14 279.40,151.95 280.11,151.80 C 280.82,151.65 281.55,151.55 282.31,151.50 C 283.08,151.45 283.93,151.48 284.69,151.50 C 285.44,151.52 286.16,151.57 286.84,151.63 C 287.51,151.70 288.15,151.79 288.76,151.90 C 289.36,152.01 289.93,152.14 290.45,152.30 C 290.98,152.45 291.47,152.63 291.92,152.83 C 292.37,153.03 292.79,153.25 293.16,153.49 C 293.54,153.74 293.88,154.00 294.18,154.29 C 294.48,154.58 294.74,154.89 294.97,155.22 C 295.19,155.55 295.33,155.92 295.53,156.28 C 295.74,156.65 295.96,157.02 296.20,157.41 C 296.43,157.80 296.69,158.20 296.96,158.62 C 297.23,159.03 297.52,159.45 297.83,159.89 C 298.13,160.33 298.46,160.77 298.80,161.23 C 299.14,161.69 299.49,162.17 299.87,162.65 C 300.24,163.13 300.63,163.63 301.04,164.13 C 301.45,164.64 301.87,165.16 302.31,165.69 C 302.75,166.22 303.19,166.74 303.69,167.31 C 304.18,167.89 304.71,168.50 305.28,169.14 C 305.85,169.78 306.45,170.46 307.09,171.17 C 307.73,171.88 308.41,172.63 309.12,173.41 C 309.84,174.18 310.59,175.00 311.38,175.84 C 312.16,176.69 312.98,177.57 313.84,178.48 C 314.70,179.40 315.60,180.35 316.53,181.33 C 317.46,182.31 318.43,183.33 319.44,184.38 C 320.44,185.42 321.58,186.60 322.56,187.62 C 323.54,188.65 324.46,189.60 325.31,190.50 C 326.17,191.40 326.96,192.23 327.69,193.00 C 328.42,193.77 329.08,194.48 329.69,195.12 C 330.29,195.77 330.83,196.35 331.31,196.88 C 331.79,197.40 332.21,197.85 332.56,198.25 C 332.92,198.65 333.21,198.98 333.44,199.25 C 333.67,199.52 333.83,199.73 333.94,199.88 C 334.04,200.02 334.03,200.04 334.06,200.12 C 334.09,200.21 334.11,200.30 334.12,200.39 C 334.14,200.48 334.14,200.58 334.12,200.67 C 334.11,200.77 334.09,200.87 334.06,200.97 C 334.03,201.07 333.99,201.17 333.94,201.28 C 333.89,201.39 333.82,201.50 333.75,201.61 C 333.68,201.72 333.59,201.84 333.50,201.95 C 333.41,202.07 333.30,202.19 333.19,202.31 C 333.07,202.43 332.92,202.56 332.81,202.69 C 332.70,202.81 332.60,202.94 332.52,203.06 C 332.43,203.19 332.36,203.31 332.30,203.44 C 332.24,203.56 332.19,203.69 332.16,203.81 C 332.12,203.94 332.10,204.06 332.09,204.19 C 332.09,204.31 332.09,204.44 332.11,204.56 C 332.13,204.69 332.16,204.81 332.20,204.94 C 332.25,205.06 332.30,205.19 332.38,205.31 C 332.45,205.44 332.49,205.51 332.62,205.69 C 332.76,205.86 332.94,206.09 333.16,206.37 C 333.39,206.64 333.67,206.97 333.99,207.35 C 334.32,207.73 334.69,208.16 335.11,208.64 C 335.53,209.12 336.00,209.65 336.52,210.23 C 337.03,210.82 337.60,211.45 338.21,212.13 C 338.82,212.82 339.49,213.55 340.20,214.34 C 340.90,215.12 341.66,215.96 342.47,216.84 C 343.27,217.73 344.20,218.76 345.03,219.66 C 345.86,220.55 346.67,221.41 347.45,222.23 C 348.23,223.04 348.98,223.82 349.71,224.55 C 350.44,225.29 351.15,225.99 351.83,226.64 C 352.51,227.30 353.17,227.91 353.80,228.48 C 354.43,229.06 355.04,229.59 355.62,230.09 C 356.20,230.58 356.76,231.03 357.29,231.45 C 357.82,231.86 358.33,232.23 358.81,232.56 C 359.30,232.89 359.68,233.15 360.19,233.44 C 360.69,233.72 361.24,234.01 361.84,234.28 C 362.44,234.56 363.09,234.83 363.78,235.09 C 364.47,235.36 365.21,235.62 366.00,235.88 C 366.79,236.13 367.62,236.38 368.50,236.62 C 369.38,236.87 370.31,237.11 371.28,237.34 C 372.26,237.58 373.28,237.81 374.34,238.03 C 375.41,238.26 376.53,238.47 377.69,238.69 C 378.85,238.90 380.16,239.08 381.31,239.31 C 382.46,239.54 383.55,239.79 384.59,240.05 C 385.62,240.32 386.59,240.61 387.51,240.91 C 388.42,241.22 389.28,241.55 390.08,241.89 C 390.88,242.24 391.62,242.60 392.30,242.98 C 392.98,243.37 393.60,243.77 394.16,244.20 C 394.73,244.62 395.23,245.06 395.68,245.52 C 396.13,245.99 396.51,246.47 396.84,246.97 C 397.17,247.47 397.40,248.03 397.66,248.53 C 397.91,249.03 398.15,249.51 398.37,249.96 C 398.59,250.42 398.79,250.85 398.98,251.26 C 399.16,251.67 399.33,252.06 399.48,252.42 C 399.64,252.79 399.77,253.13 399.89,253.45 C 400.01,253.77 400.11,254.07 400.20,254.35 C 400.28,254.63 400.35,254.88 400.40,255.12 C 400.45,255.35 400.48,255.56 400.50,255.75 C 400.52,255.94 400.52,256.06 400.50,256.25 C 400.48,256.44 400.44,256.65 400.38,256.88 C 400.32,257.12 400.25,257.37 400.15,257.65 C 400.05,257.93 399.93,258.23 399.80,258.55 C 399.66,258.87 399.50,259.21 399.33,259.58 C 399.15,259.94 398.96,260.33 398.74,260.74 C 398.53,261.15 398.29,261.58 398.04,262.04 C 397.79,262.49 397.51,262.97 397.22,263.47 C 396.93,263.97 396.64,264.53 396.28,265.03 C 395.92,265.53 395.50,266.01 395.04,266.46 C 394.57,266.92 394.06,267.35 393.49,267.76 C 392.93,268.17 392.31,268.56 391.64,268.92 C 390.97,269.29 390.25,269.63 389.48,269.95 C 388.71,270.27 387.89,270.57 387.02,270.85 C 386.15,271.13 385.23,271.38 384.26,271.62 C 383.29,271.85 382.26,272.06 381.19,272.25 C 380.11,272.44 378.90,272.57 377.81,272.75 C 376.72,272.93 375.67,273.11 374.66,273.31 C 373.64,273.51 372.66,273.72 371.72,273.94 C 370.78,274.16 369.87,274.39 369.00,274.62 C 368.13,274.86 367.30,275.11 366.50,275.38 C 365.70,275.64 364.94,275.91 364.22,276.19 C 363.49,276.47 362.81,276.76 362.16,277.06 C 361.51,277.36 360.89,277.68 360.31,278.00 C 359.73,278.32 359.25,278.62 358.69,279.00 C 358.12,279.38 357.54,279.80 356.93,280.26 C 356.32,280.72 355.69,281.23 355.04,281.77 C 354.39,282.32 353.71,282.91 353.02,283.55 C 352.32,284.18 351.60,284.86 350.86,285.58 C 350.12,286.30 349.36,287.06 348.57,287.87 C 347.79,288.67 346.98,289.52 346.15,290.41 C 345.32,291.31 344.47,292.24 343.59,293.22 C 342.72,294.20 341.74,295.31 340.91,296.28 C 340.07,297.25 339.31,298.16 338.60,299.02 C 337.90,299.88 337.26,300.69 336.68,301.45 C 336.10,302.20 335.59,302.90 335.14,303.55 C 334.69,304.19 334.31,304.79 333.98,305.33 C 333.66,305.87 333.40,306.36 333.21,306.79 C 333.02,307.22 332.89,307.60 332.82,307.93 C 332.75,308.26 332.75,308.53 332.81,308.75 C 332.87,308.97 333.16,308.99 333.19,309.25 C 333.21,309.51 333.14,309.85 332.97,310.28 C 332.80,310.71 332.53,311.23 332.16,311.84 C 331.79,312.45 331.32,313.15 330.75,313.94 C 330.18,314.72 329.52,315.60 328.75,316.56 C 327.98,317.53 327.12,318.58 326.16,319.72 C 325.19,320.86 324.13,322.09 322.97,323.41 C 321.81,324.72 320.55,326.13 319.19,327.62 C 317.83,329.12 316.20,330.86 314.81,332.38 C 313.43,333.89 312.12,335.33 310.88,336.71 C 309.65,338.09 308.49,339.39 307.40,340.63 C 306.31,341.87 305.30,343.04 304.36,344.14 C 303.42,345.24 302.56,346.27 301.77,347.23 C 300.98,348.20 300.26,349.09 299.62,349.91 C 298.98,350.74 298.41,351.49 297.91,352.18 C 297.42,352.87 297.00,353.48 296.66,354.03 C 296.31,354.58 296.15,355.02 295.84,355.47 C 295.54,355.92 295.20,356.34 294.84,356.73 C 294.47,357.12 294.07,357.48 293.63,357.80 C 293.20,358.13 292.73,358.43 292.23,358.70 C 291.74,358.97 291.20,359.21 290.64,359.42 C 290.08,359.63 289.48,359.81 288.85,359.96 C 288.22,360.11 287.56,360.23 286.87,360.32 C 286.17,360.41 285.45,360.47 284.69,360.50 Z" />
    </clipPath>
  </defs>
  <path d="M 284.69,360.50 C 283.93,360.53 283.09,360.59 282.31,360.50 C 281.54,360.41 280.77,360.22 280.02,359.95 C 279.27,359.67 278.54,359.30 277.82,358.84 C 277.10,358.37 276.39,357.82 275.70,357.17 C 275.01,356.52 274.33,355.79 273.67,354.95 C 273.01,354.12 272.36,353.20 271.73,352.18 C 271.09,351.16 270.47,350.05 269.87,348.85 C 269.26,347.65 268.67,346.36 268.09,344.97 C 267.52,343.58 266.95,341.93 266.41,340.53 C 265.86,339.13 265.34,337.81 264.84,336.56 C 264.34,335.32 263.86,334.15 263.41,333.06 C 262.95,331.97 262.51,330.96 262.09,330.03 C 261.68,329.10 261.28,328.24 260.91,327.47 C 260.53,326.69 260.18,325.99 259.84,325.38 C 259.51,324.76 259.20,324.21 258.91,323.75 C 258.61,323.29 258.34,322.90 258.09,322.59 C 257.84,322.29 257.77,322.22 257.41,321.91 C 257.04,321.59 256.55,321.19 255.91,320.70 C 255.28,320.20 254.52,319.63 253.62,318.96 C 252.72,318.30 251.68,317.54 250.52,316.70 C 249.35,315.86 248.05,314.94 246.61,313.92 C 245.17,312.91 243.60,311.81 241.90,310.62 C 240.19,309.43 238.36,308.15 236.38,306.79 C 234.41,305.43 232.30,303.98 230.06,302.44 C 227.82,300.90 225.17,299.10 222.94,297.56 C 220.70,296.03 218.61,294.58 216.66,293.23 C 214.71,291.87 212.91,290.61 211.24,289.43 C 209.58,288.25 208.05,287.17 206.67,286.17 C 205.29,285.18 204.05,284.27 202.95,283.45 C 201.86,282.64 200.90,281.91 200.09,281.27 C 199.27,280.64 198.60,280.09 198.07,279.63 C 197.54,279.18 197.15,278.81 196.91,278.53 C 196.66,278.25 196.68,278.15 196.59,277.97 C 196.51,277.79 196.44,277.62 196.38,277.46 C 196.33,277.30 196.29,277.15 196.27,277.01 C 196.25,276.87 196.25,276.73 196.27,276.61 C 196.28,276.49 196.31,276.37 196.36,276.27 C 196.41,276.16 196.47,276.06 196.55,275.98 C 196.64,275.89 196.74,275.81 196.85,275.74 C 196.97,275.67 197.10,275.61 197.25,275.56 C 197.40,275.51 197.60,275.49 197.75,275.44 C 197.90,275.38 198.05,275.32 198.18,275.24 C 198.31,275.17 198.43,275.08 198.54,274.98 C 198.65,274.88 198.74,274.76 198.83,274.64 C 198.91,274.52 198.99,274.38 199.05,274.23 C 199.11,274.09 199.16,273.93 199.20,273.76 C 199.23,273.59 199.26,273.40 199.27,273.21 C 199.29,273.02 199.29,272.81 199.28,272.59 C 199.27,272.38 199.30,272.12 199.22,271.91 C 199.14,271.69 198.99,271.48 198.79,271.29 C 198.58,271.10 198.32,270.91 197.99,270.74 C 197.67,270.57 197.28,270.41 196.83,270.27 C 196.38,270.12 195.87,269.98 195.30,269.86 C 194.73,269.74 194.09,269.62 193.40,269.52 C 192.70,269.42 191.95,269.33 191.13,269.26 C 190.32,269.18 189.44,269.12 188.50,269.06 C 187.56,269.01 186.48,268.99 185.50,268.94 C 184.52,268.88 183.55,268.82 182.61,268.73 C 181.66,268.65 180.74,268.56 179.83,268.45 C 178.92,268.35 178.03,268.23 177.16,268.09 C 176.28,267.96 175.43,267.82 174.59,267.66 C 173.76,267.50 172.94,267.33 172.14,267.14 C 171.34,266.96 170.56,266.76 169.80,266.55 C 169.03,266.34 168.29,266.11 167.56,265.88 C 166.84,265.64 166.12,265.37 165.44,265.12 C 164.76,264.88 164.11,264.64 163.49,264.40 C 162.87,264.16 162.29,263.93 161.73,263.70 C 161.17,263.46 160.64,263.24 160.14,263.02 C 159.64,262.79 159.17,262.57 158.73,262.36 C 158.30,262.14 157.89,261.93 157.51,261.73 C 157.13,261.52 156.78,261.32 156.46,261.12 C 156.14,260.92 155.85,260.72 155.59,260.53 C 155.33,260.34 155.12,260.16 154.91,259.97 C 154.70,259.78 154.50,259.58 154.33,259.38 C 154.15,259.17 154.00,258.96 153.86,258.75 C 153.72,258.54 153.60,258.32 153.50,258.09 C 153.40,257.87 153.32,257.64 153.25,257.41 C 153.18,257.17 153.14,256.93 153.11,256.69 C 153.08,256.44 153.07,256.19 153.08,255.94 C 153.09,255.68 153.11,255.42 153.16,255.16 C 153.20,254.89 153.24,254.62 153.34,254.34 C 153.44,254.07 153.58,253.80 153.76,253.52 C 153.93,253.25 154.15,252.97 154.40,252.70 C 154.65,252.42 154.94,252.14 155.27,251.86 C 155.59,251.58 155.96,251.30 156.36,251.02 C 156.76,250.73 157.20,250.45 157.68,250.16 C 158.16,249.88 158.67,249.59 159.23,249.30 C 159.78,249.02 160.37,248.73 161.00,248.44 C 161.63,248.15 162.30,247.84 163.00,247.56 C 163.70,247.28 164.43,247.02 165.19,246.77 C 165.95,246.51 166.74,246.27 167.56,246.05 C 168.39,245.82 169.24,245.61 170.12,245.41 C 171.01,245.21 171.93,245.02 172.88,244.84 C 173.82,244.67 174.80,244.51 175.81,244.36 C 176.82,244.21 177.86,244.08 178.94,243.95 C 180.01,243.83 181.11,243.72 182.25,243.62 C 183.39,243.53 184.66,243.46 185.75,243.38 C 186.84,243.29 187.86,243.21 188.80,243.12 C 189.74,243.04 190.60,242.96 191.39,242.88 C 192.18,242.79 192.89,242.71 193.53,242.62 C 194.17,242.54 194.73,242.46 195.22,242.38 C 195.71,242.29 196.12,242.21 196.45,242.12 C 196.79,242.04 197.05,241.96 197.23,241.88 C 197.42,241.79 197.53,241.71 197.56,241.62 C 197.60,241.54 197.51,241.45 197.44,241.38 C 197.37,241.30 197.28,241.23 197.16,241.17 C 197.04,241.11 196.89,241.06 196.72,241.02 C 196.55,240.97 196.35,240.93 196.12,240.91 C 195.90,240.88 195.65,240.86 195.38,240.84 C 195.10,240.83 194.80,240.83 194.47,240.83 C 194.14,240.83 193.79,240.84 193.41,240.86 C 193.03,240.88 192.62,240.90 192.19,240.94 C 191.76,240.97 191.25,241.03 190.81,241.06 C 190.38,241.10 189.97,241.12 189.59,241.13 C 189.20,241.15 188.84,241.15 188.51,241.15 C 188.17,241.14 187.86,241.13 187.58,241.11 C 187.29,241.09 187.03,241.06 186.80,241.02 C 186.56,240.98 186.35,240.93 186.16,240.87 C 185.98,240.81 185.82,240.74 185.68,240.66 C 185.54,240.59 185.43,240.50 185.34,240.41 C 185.26,240.31 185.21,240.20 185.16,240.09 C 185.10,239.99 185.05,239.89 185.02,239.80 C 184.98,239.70 184.95,239.61 184.92,239.52 C 184.90,239.42 184.88,239.34 184.88,239.25 C 184.87,239.16 184.87,239.08 184.88,239.00 C 184.88,238.92 184.90,238.84 184.92,238.77 C 184.95,238.69 184.98,238.62 185.02,238.55 C 185.05,238.48 185.10,238.41 185.16,238.34 C 185.21,238.28 185.25,238.21 185.34,238.16 C 185.44,238.10 185.57,238.04 185.73,237.99 C 185.89,237.94 186.08,237.89 186.30,237.85 C 186.53,237.81 186.79,237.77 187.08,237.73 C 187.37,237.70 187.69,237.67 188.05,237.64 C 188.40,237.61 188.79,237.59 189.21,237.57 C 189.63,237.55 190.08,237.54 190.57,237.52 C 191.06,237.51 191.57,237.50 192.12,237.50 C 192.68,237.50 193.34,237.51 193.88,237.50 C 194.41,237.49 194.90,237.48 195.34,237.46 C 195.77,237.44 196.17,237.42 196.51,237.38 C 196.85,237.35 197.14,237.31 197.39,237.27 C 197.64,237.22 197.83,237.17 197.98,237.11 C 198.13,237.05 198.24,236.99 198.29,236.91 C 198.34,236.84 198.35,236.76 198.30,236.68 C 198.26,236.60 198.17,236.50 198.03,236.41 C 197.89,236.31 197.64,236.20 197.47,236.09 C 197.29,235.99 197.13,235.89 196.98,235.78 C 196.84,235.68 196.70,235.57 196.58,235.47 C 196.46,235.36 196.35,235.26 196.25,235.16 C 196.15,235.05 196.07,234.95 196.00,234.84 C 195.93,234.74 195.87,234.64 195.83,234.53 C 195.78,234.43 195.75,234.32 195.73,234.22 C 195.72,234.11 195.71,234.01 195.72,233.91 C 195.73,233.80 195.61,233.80 195.78,233.59 C 195.95,233.39 196.28,233.08 196.76,232.68 C 197.24,232.27 197.87,231.77 198.65,231.16 C 199.43,230.56 200.37,229.85 201.45,229.05 C 202.54,228.24 203.78,227.33 205.17,226.33 C 206.56,225.32 208.11,224.21 209.80,223.01 C 211.50,221.80 213.35,220.49 215.35,219.09 C 217.35,217.68 219.51,216.17 221.81,214.56 C 224.12,212.95 226.87,211.05 229.19,209.44 C 231.51,207.82 233.69,206.30 235.73,204.87 C 237.77,203.44 239.67,202.10 241.43,200.85 C 243.19,199.61 244.81,198.45 246.30,197.39 C 247.78,196.33 249.12,195.36 250.33,194.48 C 251.53,193.61 252.60,192.82 253.52,192.13 C 254.45,191.44 255.24,190.84 255.88,190.34 C 256.53,189.83 257.04,189.42 257.41,189.09 C 257.77,188.77 257.86,188.66 258.09,188.41 C 258.32,188.15 258.55,187.87 258.78,187.56 C 259.01,187.26 259.24,186.92 259.47,186.56 C 259.70,186.20 259.93,185.82 260.16,185.41 C 260.39,184.99 260.61,184.56 260.84,184.09 C 261.07,183.63 261.30,183.14 261.53,182.62 C 261.76,182.11 261.99,181.57 262.22,181.00 C 262.45,180.43 262.68,179.84 262.91,179.22 C 263.14,178.60 263.36,177.94 263.59,177.28 C 263.83,176.63 264.07,175.96 264.32,175.29 C 264.57,174.62 264.82,173.93 265.09,173.24 C 265.35,172.55 265.62,171.85 265.89,171.14 C 266.17,170.43 266.45,169.71 266.73,168.98 C 267.02,168.26 267.32,167.52 267.62,166.77 C 267.92,166.03 268.23,165.27 268.54,164.51 C 268.85,163.74 269.17,162.97 269.50,162.19 C 269.83,161.40 270.14,160.55 270.50,159.81 C 270.86,159.07 271.25,158.38 271.67,157.73 C 272.09,157.09 272.54,156.50 273.02,155.95 C 273.49,155.41 274.00,154.91 274.53,154.47 C 275.07,154.02 275.63,153.63 276.22,153.28 C 276.81,152.93 277.43,152.64 278.08,152.39 C 278.73,152.14 279.40,151.95 280.11,151.80 C 280.82,151.65 281.55,151.55 282.31,151.50 C 283.08,151.45 283.93,151.48 284.69,151.50 C 285.44,151.52 286.16,151.57 286.84,151.63 C 287.51,151.70 288.15,151.79 288.76,151.90 C 289.36,152.01 289.93,152.14 290.45,152.30 C 290.98,152.45 291.47,152.63 291.92,152.83 C 292.37,153.03 292.79,153.25 293.16,153.49 C 293.54,153.74 293.88,154.00 294.18,154.29 C 294.48,154.58 294.74,154.89 294.97,155.22 C 295.19,155.55 295.33,155.92 295.53,156.28 C 295.74,156.65 295.96,157.02 296.20,157.41 C 296.43,157.80 296.69,158.20 296.96,158.62 C 297.23,159.03 297.52,159.45 297.83,159.89 C 298.13,160.33 298.46,160.77 298.80,161.23 C 299.14,161.69 299.49,162.17 299.87,162.65 C 300.24,163.13 300.63,163.63 301.04,164.13 C 301.45,164.64 301.87,165.16 302.31,165.69 C 302.75,166.22 303.19,166.74 303.69,167.31 C 304.18,167.89 304.71,168.50 305.28,169.14 C 305.85,169.78 306.45,170.46 307.09,171.17 C 307.73,171.88 308.41,172.63 309.12,173.41 C 309.84,174.18 310.59,175.00 311.38,175.84 C 312.16,176.69 312.98,177.57 313.84,178.48 C 314.70,179.40 315.60,180.35 316.53,181.33 C 317.46,182.31 318.43,183.33 319.44,184.38 C 320.44,185.42 321.58,186.60 322.56,187.62 C 323.54,188.65 324.46,189.60 325.31,190.50 C 326.17,191.40 326.96,192.23 327.69,193.00 C 328.42,193.77 329.08,194.48 329.69,195.12 C 330.29,195.77 330.83,196.35 331.31,196.88 C 331.79,197.40 332.21,197.85 332.56,198.25 C 332.92,198.65 333.21,198.98 333.44,199.25 C 333.67,199.52 333.83,199.73 333.94,199.88 C 334.04,200.02 334.03,200.04 334.06,200.12 C 334.09,200.21 334.11,200.30 334.12,200.39 C 334.14,200.48 334.14,200.58 334.12,200.67 C 334.11,200.77 334.09,200.87 334.06,200.97 C 334.03,201.07 333.99,201.17 333.94,201.28 C 333.89,201.39 333.82,201.50 333.75,201.61 C 333.68,201.72 333.59,201.84 333.50,201.95 C 333.41,202.07 333.30,202.19 333.19,202.31 C 333.07,202.43 332.92,202.56 332.81,202.69 C 332.70,202.81 332.60,202.94 332.52,203.06 C 332.43,203.19 332.36,203.31 332.30,203.44 C 332.24,203.56 332.19,203.69 332.16,203.81 C 332.12,203.94 332.10,204.06 332.09,204.19 C 332.09,204.31 332.09,204.44 332.11,204.56 C 332.13,204.69 332.16,204.81 332.20,204.94 C 332.25,205.06 332.30,205.19 332.38,205.31 C 332.45,205.44 332.49,205.51 332.62,205.69 C 332.76,205.86 332.94,206.09 333.16,206.37 C 333.39,206.64 333.67,206.97 333.99,207.35 C 334.32,207.73 334.69,208.16 335.11,208.64 C 335.53,209.12 336.00,209.65 336.52,210.23 C 337.03,210.82 337.60,211.45 338.21,212.13 C 338.82,212.82 339.49,213.55 340.20,214.34 C 340.90,215.12 341.66,215.96 342.47,216.84 C 343.27,217.73 344.20,218.76 345.03,219.66 C 345.86,220.55 346.67,221.41 347.45,222.23 C 348.23,223.04 348.98,223.82 349.71,224.55 C 350.44,225.29 351.15,225.99 351.83,226.64 C 352.51,227.30 353.17,227.91 353.80,228.48 C 354.43,229.06 355.04,229.59 355.62,230.09 C 356.20,230.58 356.76,231.03 357.29,231.45 C 357.82,231.86 358.33,232.23 358.81,232.56 C 359.30,232.89 359.68,233.15 360.19,233.44 C 360.69,233.72 361.24,234.01 361.84,234.28 C 362.44,234.56 363.09,234.83 363.78,235.09 C 364.47,235.36 365.21,235.62 366.00,235.88 C 366.79,236.13 367.62,236.38 368.50,236.62 C 369.38,236.87 370.31,237.11 371.28,237.34 C 372.26,237.58 373.28,237.81 374.34,238.03 C 375.41,238.26 376.53,238.47 377.69,238.69 C 378.85,238.90 380.16,239.08 381.31,239.31 C 382.46,239.54 383.55,239.79 384.59,240.05 C 385.62,240.32 386.59,240.61 387.51,240.91 C 388.42,241.22 389.28,241.55 390.08,241.89 C 390.88,242.24 391.62,242.60 392.30,242.98 C 392.98,243.37 393.60,243.77 394.16,244.20 C 394.73,244.62 395.23,245.06 395.68,245.52 C 396.13,245.99 396.51,246.47 396.84,246.97 C 397.17,247.47 397.40,248.03 397.66,248.53 C 397.91,249.03 398.15,249.51 398.37,249.96 C 398.59,250.42 398.79,250.85 398.98,251.26 C 399.16,251.67 399.33,252.06 399.48,252.42 C 399.64,252.79 399.77,253.13 399.89,253.45 C 400.01,253.77 400.11,254.07 400.20,254.35 C 400.28,254.63 400.35,254.88 400.40,255.12 C 400.45,255.35 400.48,255.56 400.50,255.75 C 400.52,255.94 400.52,256.06 400.50,256.25 C 400.48,256.44 400.44,256.65 400.38,256.88 C 400.32,257.12 400.25,257.37 400.15,257.65 C 400.05,257.93 399.93,258.23 399.80,258.55 C 399.66,258.87 399.50,259.21 399.33,259.58 C 399.15,259.94 398.96,260.33 398.74,260.74 C 398.53,261.15 398.29,261.58 398.04,262.04 C 397.79,262.49 397.51,262.97 397.22,263.47 C 396.93,263.97 396.64,264.53 396.28,265.03 C 395.92,265.53 395.50,266.01 395.04,266.46 C 394.57,266.92 394.06,267.35 393.49,267.76 C 392.93,268.17 392.31,268.56 391.64,268.92 C 390.97,269.29 390.25,269.63 389.48,269.95 C 388.71,270.27 387.89,270.57 387.02,270.85 C 386.15,271.13 385.23,271.38 384.26,271.62 C 383.29,271.85 382.26,272.06 381.19,272.25 C 380.11,272.44 378.90,272.57 377.81,272.75 C 376.72,272.93 375.67,273.11 374.66,273.31 C 373.64,273.51 372.66,273.72 371.72,273.94 C 370.78,274.16 369.87,274.39 369.00,274.62 C 368.13,274.86 367.30,275.11 366.50,275.38 C 365.70,275.64 364.94,275.91 364.22,276.19 C 363.49,276.47 362.81,276.76 362.16,277.06 C 361.51,277.36 360.89,277.68 360.31,278.00 C 359.73,278.32 359.25,278.62 358.69,279.00 C 358.12,279.38 357.54,279.80 356.93,280.26 C 356.32,280.72 355.69,281.23 355.04,281.77 C 354.39,282.32 353.71,282.91 353.02,283.55 C 352.32,284.18 351.60,284.86 350.86,285.58 C 350.12,286.30 349.36,287.06 348.57,287.87 C 347.79,288.67 346.98,289.52 346.15,290.41 C 345.32,291.31 344.47,292.24 343.59,293.22 C 342.72,294.20 341.74,295.31 340.91,296.28 C 340.07,297.25 339.31,298.16 338.60,299.02 C 337.90,299.88 337.26,300.69 336.68,301.45 C 336.10,302.20 335.59,302.90 335.14,303.55 C 334.69,304.19 334.31,304.79 333.98,305.33 C 333.66,305.87 333.40,306.36 333.21,306.79 C 333.02,307.22 332.89,307.60 332.82,307.93 C 332.75,308.26 332.75,308.53 332.81,308.75 C 332.87,308.97 333.16,308.99 333.19,309.25 C 333.21,309.51 333.14,309.85 332.97,310.28 C 332.80,310.71 332.53,311.23 332.16,311.84 C 331.79,312.45 331.32,313.15 330.75,313.94 C 330.18,314.72 329.52,315.60 328.75,316.56 C 327.98,317.53 327.12,318.58 326.16,319.72 C 325.19,320.86 324.13,322.09 322.97,323.41 C 321.81,324.72 320.55,326.13 319.19,327.62 C 317.83,329.12 316.20,330.86 314.81,332.38 C 313.43,333.89 312.12,335.33 310.88,336.71 C 309.65,338.09 308.49,339.39 307.40,340.63 C 306.31,341.87 305.30,343.04 304.36,344.14 C 303.42,345.24 302.56,346.27 301.77,347.23 C 300.98,348.20 300.26,349.09 299.62,349.91 C 298.98,350.74 298.41,351.49 297.91,352.18 C 297.42,352.87 297.00,353.48 296.66,354.03 C 296.31,354.58 296.15,355.02 295.84,355.47 C 295.54,355.92 295.20,356.34 294.84,356.73 C 294.47,357.12 294.07,357.48 293.63,357.80 C 293.20,358.13 292.73,358.43 292.23,358.70 C 291.74,358.97 291.20,359.21 290.64,359.42 C 290.08,359.63 289.48,359.81 288.85,359.96 C 288.22,360.11 287.56,360.23 286.87,360.32 C 286.17,360.41 285.45,360.47 284.69,360.50 Z" stroke="none" fill="currentColor" opacity="0.11" />
  <path d="M188.73,262.63L189.50,250.66 M350.78,229.50L343.65,229.93 M282.98,235.09L275.17,234.02 M278.74,251.96L272.09,251.93 M275.33,233.78L259.73,231.45 M246.50,242.35L257.83,231.72 M350.78,282.85L343.65,282.42 M282.98,277.26L275.17,278.32 M278.74,260.39L272.09,260.41 M275.33,278.57L259.73,280.89 M246.50,269.99L257.83,280.63 M350.25,226.15L344.21,219.32 M274.74,236.54L262.83,233.57 M305.33,242.95L309.22,248.60 M322.03,249.24L309.06,248.71 M309.06,248.71L319.00,249.09 M274.74,275.80L262.83,278.77 M305.33,269.39L309.22,263.74 M319.00,263.26L309.06,263.63 M309.06,263.63L322.03,263.11 M242.97,213.73L264.76,193.77 M318.60,305.68L307.69,306.38 M338.18,284.83L323.48,302.63 M305.31,284.57L339.86,281.82 M304.44,283.96L339.85,281.76 M285.42,297.83L296.51,308.51 M326.36,305.85L342.15,285.74 M338.68,284.11L323.91,302.74 M285.48,297.18L295.21,287.18 M306.55,228.28L337.53,230.71 M306.55,228.28L339.45,230.86 M318.60,206.66L307.69,205.97 M304.44,228.39L339.85,230.59 M285.42,214.51L296.51,203.84 M339.86,230.53L305.31,227.77 M324.51,227.65L294.99,227.35 M326.36,206.50L342.16,226.61 M338.68,228.23L323.91,209.60 M295.21,225.17L285.48,215.16 M296.67,203.91L285.56,214.61 M305.31,227.72L339.85,230.46 M305.31,227.72L339.66,230.42 M299.93,201.34L319.01,202.53 M324.73,207.87L342.05,226.70 M293.12,205.19L304.95,205.55 M294.43,227.34L324.61,225.75 M324.75,214.78L323.70,205.48 M324.75,215.25L324.72,227.70 M213.52,269.75L203.63,269.75 M213.52,275.12L203.63,275.12 M308.16,268.84L283.89,268.95 M308.16,259.19L283.89,259.30 M308.16,253.61L283.89,253.72 M282.21,243.52L263.65,243.54 M214.02,237.22L204.12,237.22 M214.02,242.59L204.12,242.59 M214.02,237.22L204.12,237.22 M214.02,242.59L204.12,242.59 M214.02,237.22L204.12,237.22 M214.02,242.59L204.12,242.59 M220.59,275.29L236.67,290.26 M238.62,291.03L263.91,291.05 M236.67,290.26L220.59,275.29 M229.05,282.15L255.02,282.17 M227.10,281.38L220.59,275.29 M245.27,295.55L251.78,295.55 M251.78,295.55L258.29,295.55 M224.33,279.96L231.88,286.83 M233.68,287.53L263.34,287.55 M223.26,275.25L230.20,275.25 M237.13,275.25L230.20,275.25 M251.07,275.27L244.07,275.25 M244.07,275.25L237.13,275.25 M229.79,275.26L222.80,275.27 M239.02,292.55L268.36,292.57 M264.80,295.55L271.32,295.53 M258.29,295.55L264.80,295.55 M220.59,237.05L236.67,222.08 M263.91,221.29L238.62,221.31 M236.67,222.08L220.59,237.05 M255.02,230.18L229.05,230.20 M227.10,230.97L220.59,237.05 M245.27,216.80L251.78,216.80 M251.78,216.80L258.29,216.80 M239.02,219.80L268.36,219.78 M224.33,232.39L231.88,225.52 M233.68,224.82L263.34,224.80 M244.07,237.09L237.13,237.09 M237.13,237.09L230.20,237.09 M230.20,237.09L223.26,237.10 M229.79,237.09L222.80,237.08 M264.80,216.80L271.32,216.82 M258.29,216.80L264.80,216.80 M251.07,237.07L244.07,237.09 M272.37,263.42L283.09,263.43 M272.37,263.91L283.09,263.91 M272.36,255.22L280.43,255.22 M272.36,254.73L280.30,254.73 M273.75,259.29L273.77,259.32 M272.23,263.73L260.35,263.32 M273.00,271.14L273.02,264.56 M273.02,270.64L273.05,264.06 M269.35,264.53L269.33,271.14 M272.23,248.61L260.35,249.02 M268.14,272.28L268.16,263.85 M268.14,272.28L268.11,263.84 M268.11,263.84L268.14,272.36 M274.66,272.28L274.68,263.85 M274.66,272.28L274.63,263.84 M274.63,263.84L274.66,272.36 M273.02,247.81L272.99,241.21 M273.04,248.27L273.02,241.68 M269.32,241.22L269.34,247.84 M182.21,254.52L181.27,254.52 M186.81,245.85L187.69,249.69 M187.17,248.24L186.81,245.85 M237.29,253.15L245.58,253.31 M235.52,253.12L222.55,253.02 M241.61,237.07L226.82,241.25 M241.61,237.07L234.30,239.27 M280.83,214.61L272.14,215.65 M220.19,253.01L208.10,252.88 M351.25,232.16L342.09,231.13 M310.57,253.50L291.43,253.14 M249.73,211.86L260.16,213.22 M268.99,212.19L245.92,213.75 M250.31,213.66L241.91,212.29 M298.91,225.08L290.56,215.38 M304.35,229.47L294.86,230.00 M261.03,250.98L250.68,251.06 M237.29,259.19L245.58,259.04 M222.55,259.32L235.52,259.23 M267.25,295.62L244.36,296.32 M241.61,275.28L226.82,271.09 M241.61,275.28L234.30,273.08 M280.83,297.73L272.14,296.70 M208.10,259.46L220.19,259.34 M291.43,259.21L310.57,258.85 M260.16,299.12L249.73,300.48 M268.99,300.16L245.92,298.59 M250.31,298.69L241.91,300.05 M298.91,287.27L290.56,296.96 M304.35,282.87L294.86,282.34 M255.87,234.75L268.99,212.19 M268.99,212.19L268.71,215.37 M255.87,277.60L268.99,300.16 M266.75,316.04L272.06,307.84 M228.61,242.39L249.95,242.32 M228.61,242.39L221.36,243.47 M317.69,248.72L326.64,249.21 M211.14,244.95L219.85,243.69 M334.45,233.55L320.66,232.31 M317.58,236.86L311.66,238.72 M228.61,269.96L249.95,270.02 M228.61,269.96L221.36,268.88 M317.69,263.62L326.64,263.14 M334.45,278.79L320.66,280.04 M317.58,275.49L311.66,273.62 M332.76,274.86L332.63,264.12 M332.76,274.86L332.77,256.09 M332.76,237.33L332.63,248.07 M332.76,237.33L332.77,256.09 M357.01,231.67L364.46,236.26 M357.01,280.68L364.46,276.08 M336.35,257.78L366.72,257.77 M366.72,257.33L336.35,257.33 M381.04,247.87L339.09,243.07 M381.04,264.48L339.09,269.28 M344.11,235.68L350.40,232.16 M350.40,280.18L344.11,276.67 M273.95,352.85L275.70,360.55 M319.57,312.12L297.31,329.61 M297.31,329.61L319.57,312.12 M321.97,310.09L315.36,310.09 M321.97,311.64L315.36,311.64 M311.14,323.43L311.22,312.15 M292.80,321.65L275.50,321.58 M275.10,321.14L275.00,312.15 M303.94,323.38L311.13,323.44 M311.14,323.43L311.30,312.14 M275.86,321.03L292.98,321.10 M275.86,321.03L293.01,321.00 M296.12,322.67L303.92,322.77 M296.12,322.67L303.92,322.79 M275.81,313.33L299.21,314.02 M303.92,322.77L310.58,322.87 M303.92,322.79L310.58,322.87 M303.92,313.08L310.65,313.35 M275.81,313.33L303.93,313.27 M310.65,313.35L303.93,313.27 M292.75,320.08L298.77,315.73 M292.75,320.08L304.34,314.75 M292.75,320.08L303.68,314.35 M275.65,313.30L303.91,313.20 M303.91,313.20L310.70,313.26 M344.13,292.94L332.43,306.50 M303.39,344.37L296.55,352.86 M268.85,322.32L276.82,351.52 M273.49,336.00L276.82,351.52 M287.56,310.40L274.33,310.38 M278.22,353.26L288.50,353.05 M281.66,302.70L288.62,301.24 M277.49,316.81L276.82,351.52 M298.20,314.20L309.65,323.78 M309.65,323.78L301.16,316.69 M273.95,159.50L275.70,151.80 M321.97,200.63L315.36,200.63 M321.97,202.18L315.36,202.18 M304.32,189.11L311.05,189.05 M311.14,188.92L311.22,200.20 M292.80,190.70L275.50,190.77 M275.09,191.20L275.00,200.20 M303.94,188.98L311.12,188.91 M311.30,200.21L311.14,188.92 M275.86,191.32L293.01,191.35 M275.86,191.32L292.98,191.25 M296.12,189.68L303.92,189.58 M275.81,199.02L299.21,198.33 M296.12,189.68L303.92,189.56 M303.92,189.58L310.58,189.48 M303.92,189.56L310.58,189.48 M292.75,192.27L298.77,196.62 M275.81,199.02L303.93,199.08 M292.75,192.27L304.34,197.60 M292.75,192.27L303.68,198.00 M303.92,199.27L310.64,199.00 M303.93,199.08L310.64,199.00 M275.65,199.05L303.91,199.14 M303.91,199.14L310.70,199.09 M344.12,219.41L332.43,205.85 M303.39,167.98L296.54,159.49 M268.85,190.03L276.82,160.83 M273.49,176.35L276.82,160.83 M287.56,201.95L274.33,201.97 M288.49,159.30L278.22,159.09 M281.67,209.65L288.62,211.11 M277.49,195.54L276.82,160.83 M298.20,198.15L309.66,188.58 M301.16,195.66L309.66,188.58" stroke="currentColor" stroke-width="0.6" stroke-linecap="round" fill="none" opacity="0.55" clip-path="url(#hull-clip)" filter="url(#glow)" />
  <path d="M 284.69,360.50 C 283.93,360.53 283.09,360.59 282.31,360.50 C 281.54,360.41 280.77,360.22 280.02,359.95 C 279.27,359.67 278.54,359.30 277.82,358.84 C 277.10,358.37 276.39,357.82 275.70,357.17 C 275.01,356.52 274.33,355.79 273.67,354.95 C 273.01,354.12 272.36,353.20 271.73,352.18 C 271.09,351.16 270.47,350.05 269.87,348.85 C 269.26,347.65 268.67,346.36 268.09,344.97 C 267.52,343.58 266.95,341.93 266.41,340.53 C 265.86,339.13 265.34,337.81 264.84,336.56 C 264.34,335.32 263.86,334.15 263.41,333.06 C 262.95,331.97 262.51,330.96 262.09,330.03 C 261.68,329.10 261.28,328.24 260.91,327.47 C 260.53,326.69 260.18,325.99 259.84,325.38 C 259.51,324.76 259.20,324.21 258.91,323.75 C 258.61,323.29 258.34,322.90 258.09,322.59 C 257.84,322.29 257.77,322.22 257.41,321.91 C 257.04,321.59 256.55,321.19 255.91,320.70 C 255.28,320.20 254.52,319.63 253.62,318.96 C 252.72,318.30 251.68,317.54 250.52,316.70 C 249.35,315.86 248.05,314.94 246.61,313.92 C 245.17,312.91 243.60,311.81 241.90,310.62 C 240.19,309.43 238.36,308.15 236.38,306.79 C 234.41,305.43 232.30,303.98 230.06,302.44 C 227.82,300.90 225.17,299.10 222.94,297.56 C 220.70,296.03 218.61,294.58 216.66,293.23 C 214.71,291.87 212.91,290.61 211.24,289.43 C 209.58,288.25 208.05,287.17 206.67,286.17 C 205.29,285.18 204.05,284.27 202.95,283.45 C 201.86,282.64 200.90,281.91 200.09,281.27 C 199.27,280.64 198.60,280.09 198.07,279.63 C 197.54,279.18 197.15,278.81 196.91,278.53 C 196.66,278.25 196.68,278.15 196.59,277.97 C 196.51,277.79 196.44,277.62 196.38,277.46 C 196.33,277.30 196.29,277.15 196.27,277.01 C 196.25,276.87 196.25,276.73 196.27,276.61 C 196.28,276.49 196.31,276.37 196.36,276.27 C 196.41,276.16 196.47,276.06 196.55,275.98 C 196.64,275.89 196.74,275.81 196.85,275.74 C 196.97,275.67 197.10,275.61 197.25,275.56 C 197.40,275.51 197.60,275.49 197.75,275.44 C 197.90,275.38 198.05,275.32 198.18,275.24 C 198.31,275.17 198.43,275.08 198.54,274.98 C 198.65,274.88 198.74,274.76 198.83,274.64 C 198.91,274.52 198.99,274.38 199.05,274.23 C 199.11,274.09 199.16,273.93 199.20,273.76 C 199.23,273.59 199.26,273.40 199.27,273.21 C 199.29,273.02 199.29,272.81 199.28,272.59 C 199.27,272.38 199.30,272.12 199.22,271.91 C 199.14,271.69 198.99,271.48 198.79,271.29 C 198.58,271.10 198.32,270.91 197.99,270.74 C 197.67,270.57 197.28,270.41 196.83,270.27 C 196.38,270.12 195.87,269.98 195.30,269.86 C 194.73,269.74 194.09,269.62 193.40,269.52 C 192.70,269.42 191.95,269.33 191.13,269.26 C 190.32,269.18 189.44,269.12 188.50,269.06 C 187.56,269.01 186.48,268.99 185.50,268.94 C 184.52,268.88 183.55,268.82 182.61,268.73 C 181.66,268.65 180.74,268.56 179.83,268.45 C 178.92,268.35 178.03,268.23 177.16,268.09 C 176.28,267.96 175.43,267.82 174.59,267.66 C 173.76,267.50 172.94,267.33 172.14,267.14 C 171.34,266.96 170.56,266.76 169.80,266.55 C 169.03,266.34 168.29,266.11 167.56,265.88 C 166.84,265.64 166.12,265.37 165.44,265.12 C 164.76,264.88 164.11,264.64 163.49,264.40 C 162.87,264.16 162.29,263.93 161.73,263.70 C 161.17,263.46 160.64,263.24 160.14,263.02 C 159.64,262.79 159.17,262.57 158.73,262.36 C 158.30,262.14 157.89,261.93 157.51,261.73 C 157.13,261.52 156.78,261.32 156.46,261.12 C 156.14,260.92 155.85,260.72 155.59,260.53 C 155.33,260.34 155.12,260.16 154.91,259.97 C 154.70,259.78 154.50,259.58 154.33,259.38 C 154.15,259.17 154.00,258.96 153.86,258.75 C 153.72,258.54 153.60,258.32 153.50,258.09 C 153.40,257.87 153.32,257.64 153.25,257.41 C 153.18,257.17 153.14,256.93 153.11,256.69 C 153.08,256.44 153.07,256.19 153.08,255.94 C 153.09,255.68 153.11,255.42 153.16,255.16 C 153.20,254.89 153.24,254.62 153.34,254.34 C 153.44,254.07 153.58,253.80 153.76,253.52 C 153.93,253.25 154.15,252.97 154.40,252.70 C 154.65,252.42 154.94,252.14 155.27,251.86 C 155.59,251.58 155.96,251.30 156.36,251.02 C 156.76,250.73 157.20,250.45 157.68,250.16 C 158.16,249.88 158.67,249.59 159.23,249.30 C 159.78,249.02 160.37,248.73 161.00,248.44 C 161.63,248.15 162.30,247.84 163.00,247.56 C 163.70,247.28 164.43,247.02 165.19,246.77 C 165.95,246.51 166.74,246.27 167.56,246.05 C 168.39,245.82 169.24,245.61 170.12,245.41 C 171.01,245.21 171.93,245.02 172.88,244.84 C 173.82,244.67 174.80,244.51 175.81,244.36 C 176.82,244.21 177.86,244.08 178.94,243.95 C 180.01,243.83 181.11,243.72 182.25,243.62 C 183.39,243.53 184.66,243.46 185.75,243.38 C 186.84,243.29 187.86,243.21 188.80,243.12 C 189.74,243.04 190.60,242.96 191.39,242.88 C 192.18,242.79 192.89,242.71 193.53,242.62 C 194.17,242.54 194.73,242.46 195.22,242.38 C 195.71,242.29 196.12,242.21 196.45,242.12 C 196.79,242.04 197.05,241.96 197.23,241.88 C 197.42,241.79 197.53,241.71 197.56,241.62 C 197.60,241.54 197.51,241.45 197.44,241.38 C 197.37,241.30 197.28,241.23 197.16,241.17 C 197.04,241.11 196.89,241.06 196.72,241.02 C 196.55,240.97 196.35,240.93 196.12,240.91 C 195.90,240.88 195.65,240.86 195.38,240.84 C 195.10,240.83 194.80,240.83 194.47,240.83 C 194.14,240.83 193.79,240.84 193.41,240.86 C 193.03,240.88 192.62,240.90 192.19,240.94 C 191.76,240.97 191.25,241.03 190.81,241.06 C 190.38,241.10 189.97,241.12 189.59,241.13 C 189.20,241.15 188.84,241.15 188.51,241.15 C 188.17,241.14 187.86,241.13 187.58,241.11 C 187.29,241.09 187.03,241.06 186.80,241.02 C 186.56,240.98 186.35,240.93 186.16,240.87 C 185.98,240.81 185.82,240.74 185.68,240.66 C 185.54,240.59 185.43,240.50 185.34,240.41 C 185.26,240.31 185.21,240.20 185.16,240.09 C 185.10,239.99 185.05,239.89 185.02,239.80 C 184.98,239.70 184.95,239.61 184.92,239.52 C 184.90,239.42 184.88,239.34 184.88,239.25 C 184.87,239.16 184.87,239.08 184.88,239.00 C 184.88,238.92 184.90,238.84 184.92,238.77 C 184.95,238.69 184.98,238.62 185.02,238.55 C 185.05,238.48 185.10,238.41 185.16,238.34 C 185.21,238.28 185.25,238.21 185.34,238.16 C 185.44,238.10 185.57,238.04 185.73,237.99 C 185.89,237.94 186.08,237.89 186.30,237.85 C 186.53,237.81 186.79,237.77 187.08,237.73 C 187.37,237.70 187.69,237.67 188.05,237.64 C 188.40,237.61 188.79,237.59 189.21,237.57 C 189.63,237.55 190.08,237.54 190.57,237.52 C 191.06,237.51 191.57,237.50 192.12,237.50 C 192.68,237.50 193.34,237.51 193.88,237.50 C 194.41,237.49 194.90,237.48 195.34,237.46 C 195.77,237.44 196.17,237.42 196.51,237.38 C 196.85,237.35 197.14,237.31 197.39,237.27 C 197.64,237.22 197.83,237.17 197.98,237.11 C 198.13,237.05 198.24,236.99 198.29,236.91 C 198.34,236.84 198.35,236.76 198.30,236.68 C 198.26,236.60 198.17,236.50 198.03,236.41 C 197.89,236.31 197.64,236.20 197.47,236.09 C 197.29,235.99 197.13,235.89 196.98,235.78 C 196.84,235.68 196.70,235.57 196.58,235.47 C 196.46,235.36 196.35,235.26 196.25,235.16 C 196.15,235.05 196.07,234.95 196.00,234.84 C 195.93,234.74 195.87,234.64 195.83,234.53 C 195.78,234.43 195.75,234.32 195.73,234.22 C 195.72,234.11 195.71,234.01 195.72,233.91 C 195.73,233.80 195.61,233.80 195.78,233.59 C 195.95,233.39 196.28,233.08 196.76,232.68 C 197.24,232.27 197.87,231.77 198.65,231.16 C 199.43,230.56 200.37,229.85 201.45,229.05 C 202.54,228.24 203.78,227.33 205.17,226.33 C 206.56,225.32 208.11,224.21 209.80,223.01 C 211.50,221.80 213.35,220.49 215.35,219.09 C 217.35,217.68 219.51,216.17 221.81,214.56 C 224.12,212.95 226.87,211.05 229.19,209.44 C 231.51,207.82 233.69,206.30 235.73,204.87 C 237.77,203.44 239.67,202.10 241.43,200.85 C 243.19,199.61 244.81,198.45 246.30,197.39 C 247.78,196.33 249.12,195.36 250.33,194.48 C 251.53,193.61 252.60,192.82 253.52,192.13 C 254.45,191.44 255.24,190.84 255.88,190.34 C 256.53,189.83 257.04,189.42 257.41,189.09 C 257.77,188.77 257.86,188.66 258.09,188.41 C 258.32,188.15 258.55,187.87 258.78,187.56 C 259.01,187.26 259.24,186.92 259.47,186.56 C 259.70,186.20 259.93,185.82 260.16,185.41 C 260.39,184.99 260.61,184.56 260.84,184.09 C 261.07,183.63 261.30,183.14 261.53,182.62 C 261.76,182.11 261.99,181.57 262.22,181.00 C 262.45,180.43 262.68,179.84 262.91,179.22 C 263.14,178.60 263.36,177.94 263.59,177.28 C 263.83,176.63 264.07,175.96 264.32,175.29 C 264.57,174.62 264.82,173.93 265.09,173.24 C 265.35,172.55 265.62,171.85 265.89,171.14 C 266.17,170.43 266.45,169.71 266.73,168.98 C 267.02,168.26 267.32,167.52 267.62,166.77 C 267.92,166.03 268.23,165.27 268.54,164.51 C 268.85,163.74 269.17,162.97 269.50,162.19 C 269.83,161.40 270.14,160.55 270.50,159.81 C 270.86,159.07 271.25,158.38 271.67,157.73 C 272.09,157.09 272.54,156.50 273.02,155.95 C 273.49,155.41 274.00,154.91 274.53,154.47 C 275.07,154.02 275.63,153.63 276.22,153.28 C 276.81,152.93 277.43,152.64 278.08,152.39 C 278.73,152.14 279.40,151.95 280.11,151.80 C 280.82,151.65 281.55,151.55 282.31,151.50 C 283.08,151.45 283.93,151.48 284.69,151.50 C 285.44,151.52 286.16,151.57 286.84,151.63 C 287.51,151.70 288.15,151.79 288.76,151.90 C 289.36,152.01 289.93,152.14 290.45,152.30 C 290.98,152.45 291.47,152.63 291.92,152.83 C 292.37,153.03 292.79,153.25 293.16,153.49 C 293.54,153.74 293.88,154.00 294.18,154.29 C 294.48,154.58 294.74,154.89 294.97,155.22 C 295.19,155.55 295.33,155.92 295.53,156.28 C 295.74,156.65 295.96,157.02 296.20,157.41 C 296.43,157.80 296.69,158.20 296.96,158.62 C 297.23,159.03 297.52,159.45 297.83,159.89 C 298.13,160.33 298.46,160.77 298.80,161.23 C 299.14,161.69 299.49,162.17 299.87,162.65 C 300.24,163.13 300.63,163.63 301.04,164.13 C 301.45,164.64 301.87,165.16 302.31,165.69 C 302.75,166.22 303.19,166.74 303.69,167.31 C 304.18,167.89 304.71,168.50 305.28,169.14 C 305.85,169.78 306.45,170.46 307.09,171.17 C 307.73,171.88 308.41,172.63 309.12,173.41 C 309.84,174.18 310.59,175.00 311.38,175.84 C 312.16,176.69 312.98,177.57 313.84,178.48 C 314.70,179.40 315.60,180.35 316.53,181.33 C 317.46,182.31 318.43,183.33 319.44,184.38 C 320.44,185.42 321.58,186.60 322.56,187.62 C 323.54,188.65 324.46,189.60 325.31,190.50 C 326.17,191.40 326.96,192.23 327.69,193.00 C 328.42,193.77 329.08,194.48 329.69,195.12 C 330.29,195.77 330.83,196.35 331.31,196.88 C 331.79,197.40 332.21,197.85 332.56,198.25 C 332.92,198.65 333.21,198.98 333.44,199.25 C 333.67,199.52 333.83,199.73 333.94,199.88 C 334.04,200.02 334.03,200.04 334.06,200.12 C 334.09,200.21 334.11,200.30 334.12,200.39 C 334.14,200.48 334.14,200.58 334.12,200.67 C 334.11,200.77 334.09,200.87 334.06,200.97 C 334.03,201.07 333.99,201.17 333.94,201.28 C 333.89,201.39 333.82,201.50 333.75,201.61 C 333.68,201.72 333.59,201.84 333.50,201.95 C 333.41,202.07 333.30,202.19 333.19,202.31 C 333.07,202.43 332.92,202.56 332.81,202.69 C 332.70,202.81 332.60,202.94 332.52,203.06 C 332.43,203.19 332.36,203.31 332.30,203.44 C 332.24,203.56 332.19,203.69 332.16,203.81 C 332.12,203.94 332.10,204.06 332.09,204.19 C 332.09,204.31 332.09,204.44 332.11,204.56 C 332.13,204.69 332.16,204.81 332.20,204.94 C 332.25,205.06 332.30,205.19 332.38,205.31 C 332.45,205.44 332.49,205.51 332.62,205.69 C 332.76,205.86 332.94,206.09 333.16,206.37 C 333.39,206.64 333.67,206.97 333.99,207.35 C 334.32,207.73 334.69,208.16 335.11,208.64 C 335.53,209.12 336.00,209.65 336.52,210.23 C 337.03,210.82 337.60,211.45 338.21,212.13 C 338.82,212.82 339.49,213.55 340.20,214.34 C 340.90,215.12 341.66,215.96 342.47,216.84 C 343.27,217.73 344.20,218.76 345.03,219.66 C 345.86,220.55 346.67,221.41 347.45,222.23 C 348.23,223.04 348.98,223.82 349.71,224.55 C 350.44,225.29 351.15,225.99 351.83,226.64 C 352.51,227.30 353.17,227.91 353.80,228.48 C 354.43,229.06 355.04,229.59 355.62,230.09 C 356.20,230.58 356.76,231.03 357.29,231.45 C 357.82,231.86 358.33,232.23 358.81,232.56 C 359.30,232.89 359.68,233.15 360.19,233.44 C 360.69,233.72 361.24,234.01 361.84,234.28 C 362.44,234.56 363.09,234.83 363.78,235.09 C 364.47,235.36 365.21,235.62 366.00,235.88 C 366.79,236.13 367.62,236.38 368.50,236.62 C 369.38,236.87 370.31,237.11 371.28,237.34 C 372.26,237.58 373.28,237.81 374.34,238.03 C 375.41,238.26 376.53,238.47 377.69,238.69 C 378.85,238.90 380.16,239.08 381.31,239.31 C 382.46,239.54 383.55,239.79 384.59,240.05 C 385.62,240.32 386.59,240.61 387.51,240.91 C 388.42,241.22 389.28,241.55 390.08,241.89 C 390.88,242.24 391.62,242.60 392.30,242.98 C 392.98,243.37 393.60,243.77 394.16,244.20 C 394.73,244.62 395.23,245.06 395.68,245.52 C 396.13,245.99 396.51,246.47 396.84,246.97 C 397.17,247.47 397.40,248.03 397.66,248.53 C 397.91,249.03 398.15,249.51 398.37,249.96 C 398.59,250.42 398.79,250.85 398.98,251.26 C 399.16,251.67 399.33,252.06 399.48,252.42 C 399.64,252.79 399.77,253.13 399.89,253.45 C 400.01,253.77 400.11,254.07 400.20,254.35 C 400.28,254.63 400.35,254.88 400.40,255.12 C 400.45,255.35 400.48,255.56 400.50,255.75 C 400.52,255.94 400.52,256.06 400.50,256.25 C 400.48,256.44 400.44,256.65 400.38,256.88 C 400.32,257.12 400.25,257.37 400.15,257.65 C 400.05,257.93 399.93,258.23 399.80,258.55 C 399.66,258.87 399.50,259.21 399.33,259.58 C 399.15,259.94 398.96,260.33 398.74,260.74 C 398.53,261.15 398.29,261.58 398.04,262.04 C 397.79,262.49 397.51,262.97 397.22,263.47 C 396.93,263.97 396.64,264.53 396.28,265.03 C 395.92,265.53 395.50,266.01 395.04,266.46 C 394.57,266.92 394.06,267.35 393.49,267.76 C 392.93,268.17 392.31,268.56 391.64,268.92 C 390.97,269.29 390.25,269.63 389.48,269.95 C 388.71,270.27 387.89,270.57 387.02,270.85 C 386.15,271.13 385.23,271.38 384.26,271.62 C 383.29,271.85 382.26,272.06 381.19,272.25 C 380.11,272.44 378.90,272.57 377.81,272.75 C 376.72,272.93 375.67,273.11 374.66,273.31 C 373.64,273.51 372.66,273.72 371.72,273.94 C 370.78,274.16 369.87,274.39 369.00,274.62 C 368.13,274.86 367.30,275.11 366.50,275.38 C 365.70,275.64 364.94,275.91 364.22,276.19 C 363.49,276.47 362.81,276.76 362.16,277.06 C 361.51,277.36 360.89,277.68 360.31,278.00 C 359.73,278.32 359.25,278.62 358.69,279.00 C 358.12,279.38 357.54,279.80 356.93,280.26 C 356.32,280.72 355.69,281.23 355.04,281.77 C 354.39,282.32 353.71,282.91 353.02,283.55 C 352.32,284.18 351.60,284.86 350.86,285.58 C 350.12,286.30 349.36,287.06 348.57,287.87 C 347.79,288.67 346.98,289.52 346.15,290.41 C 345.32,291.31 344.47,292.24 343.59,293.22 C 342.72,294.20 341.74,295.31 340.91,296.28 C 340.07,297.25 339.31,298.16 338.60,299.02 C 337.90,299.88 337.26,300.69 336.68,301.45 C 336.10,302.20 335.59,302.90 335.14,303.55 C 334.69,304.19 334.31,304.79 333.98,305.33 C 333.66,305.87 333.40,306.36 333.21,306.79 C 333.02,307.22 332.89,307.60 332.82,307.93 C 332.75,308.26 332.75,308.53 332.81,308.75 C 332.87,308.97 333.16,308.99 333.19,309.25 C 333.21,309.51 333.14,309.85 332.97,310.28 C 332.80,310.71 332.53,311.23 332.16,311.84 C 331.79,312.45 331.32,313.15 330.75,313.94 C 330.18,314.72 329.52,315.60 328.75,316.56 C 327.98,317.53 327.12,318.58 326.16,319.72 C 325.19,320.86 324.13,322.09 322.97,323.41 C 321.81,324.72 320.55,326.13 319.19,327.62 C 317.83,329.12 316.20,330.86 314.81,332.38 C 313.43,333.89 312.12,335.33 310.88,336.71 C 309.65,338.09 308.49,339.39 307.40,340.63 C 306.31,341.87 305.30,343.04 304.36,344.14 C 303.42,345.24 302.56,346.27 301.77,347.23 C 300.98,348.20 300.26,349.09 299.62,349.91 C 298.98,350.74 298.41,351.49 297.91,352.18 C 297.42,352.87 297.00,353.48 296.66,354.03 C 296.31,354.58 296.15,355.02 295.84,355.47 C 295.54,355.92 295.20,356.34 294.84,356.73 C 294.47,357.12 294.07,357.48 293.63,357.80 C 293.20,358.13 292.73,358.43 292.23,358.70 C 291.74,358.97 291.20,359.21 290.64,359.42 C 290.08,359.63 289.48,359.81 288.85,359.96 C 288.22,360.11 287.56,360.23 286.87,360.32 C 286.17,360.41 285.45,360.47 284.69,360.50 Z" fill="none" stroke="currentColor" stroke-width="1.5" stroke-linejoin="round" stroke-linecap="round" filter="url(#glow)" />
</svg>