<svg xmlns="http://www.w3.org/2000/svg" width="512" height="512" viewBox="136.24 153.68 221.33 224.36" preserveAspectRatio="xMidYMid meet">
  <defs>
    <filter id="glow" x="-30%" y="-30%" width="160%" height="160%">
      <feGaussianBlur in="SourceGraphic" stdDeviation="2.4" result="blur" />
      <feMerge>
        <feMergeNode in="blur" />
        <feMergeNode in="SourceGraphic" />
      </feMerge>
    </filter>
    <clipPath id="hull-clip">
      <path d="M 305.19,357.44 C 304.74,357.17 304.34,356.92 303.81,356.56 C 303.29,356.21 302.69,355.78 302.03,355.30 C 301.37,354.81 300.64,354.26 299.84,353.64 C 299.05,353.02 298.18,352.34 297.25,351.59 C 296.32,350.85 295.32,350.03 294.25,349.16 C 293.18,348.28 292.05,347.34 290.84,346.33 C 289.64,345.32 288.37,344.25 287.03,343.11 C 285.69,341.97 284.29,340.77 282.81,339.50 C 281.34,338.23 279.65,336.73 278.19,335.50 C 276.73,334.27 275.35,333.14 274.06,332.11 C 272.77,331.08 271.56,330.15 270.44,329.33 C 269.31,328.50 268.27,327.78 267.31,327.16 C 266.35,326.53 265.48,326.01 264.69,325.59 C 263.90,325.17 263.19,324.86 262.56,324.64 C 261.94,324.42 261.40,324.31 260.94,324.30 C 260.48,324.28 260.10,324.37 259.81,324.56 C 259.52,324.75 259.40,325.16 259.19,325.44 C 258.97,325.71 258.76,325.97 258.53,326.20 C 258.31,326.44 258.08,326.66 257.84,326.86 C 257.61,327.06 257.37,327.24 257.12,327.41 C 256.88,327.57 256.63,327.72 256.38,327.84 C 256.12,327.97 255.86,328.08 255.59,328.17 C 255.33,328.26 255.06,328.34 254.78,328.39 C 254.51,328.45 254.22,328.48 253.94,328.50 C 253.65,328.52 253.41,328.55 253.06,328.50 C 252.72,328.45 252.32,328.34 251.88,328.19 C 251.43,328.03 250.93,327.82 250.38,327.56 C 249.82,327.30 249.22,326.99 248.56,326.62 C 247.91,326.26 247.20,325.84 246.44,325.38 C 245.68,324.91 244.86,324.39 244.00,323.81 C 243.14,323.24 242.22,322.61 241.25,321.94 C 240.28,321.26 239.26,320.53 238.19,319.75 C 237.11,318.97 235.88,318.03 234.81,317.25 C 233.74,316.47 232.73,315.73 231.77,315.05 C 230.80,314.36 229.90,313.73 229.05,313.14 C 228.20,312.55 227.40,312.02 226.66,311.53 C 225.91,311.04 225.23,310.61 224.59,310.22 C 223.96,309.83 223.38,309.49 222.86,309.20 C 222.34,308.91 221.87,308.67 221.45,308.48 C 221.04,308.29 220.68,308.15 220.38,308.06 C 220.07,307.97 219.83,307.98 219.62,307.94 C 219.42,307.90 219.25,307.85 219.12,307.81 C 219.00,307.77 218.92,307.73 218.88,307.69 C 218.83,307.65 218.83,307.60 218.88,307.56 C 218.92,307.52 219.00,307.48 219.12,307.44 C 219.25,307.40 219.42,307.35 219.62,307.31 C 219.83,307.27 220.08,307.23 220.38,307.19 C 220.67,307.15 221.00,307.10 221.38,307.06 C 221.75,307.02 222.22,306.98 222.62,306.94 C 223.03,306.89 223.43,306.85 223.81,306.80 C 224.20,306.75 224.57,306.70 224.94,306.64 C 225.30,306.59 225.66,306.53 226.00,306.47 C 226.34,306.41 226.68,306.35 227.00,306.28 C 227.32,306.22 227.64,306.15 227.94,306.08 C 228.24,306.01 228.53,305.93 228.81,305.86 C 229.09,305.78 229.36,305.71 229.62,305.62 C 229.89,305.54 230.14,305.46 230.38,305.38 C 230.61,305.29 230.82,305.21 231.02,305.12 C 231.21,305.04 231.39,304.96 231.55,304.88 C 231.71,304.79 231.85,304.71 231.97,304.62 C 232.09,304.54 232.20,304.46 232.28,304.38 C 232.37,304.29 232.43,304.21 232.48,304.12 C 232.53,304.04 232.57,303.96 232.58,303.88 C 232.59,303.79 232.59,303.71 232.56,303.62 C 232.54,303.54 232.52,303.45 232.44,303.38 C 232.35,303.30 232.22,303.22 232.05,303.16 C 231.87,303.09 231.65,303.03 231.39,302.97 C 231.13,302.91 230.82,302.86 230.47,302.81 C 230.12,302.77 229.72,302.72 229.28,302.69 C 228.84,302.65 228.36,302.62 227.83,302.59 C 227.30,302.57 226.73,302.55 226.11,302.53 C 225.49,302.52 224.83,302.51 224.12,302.50 C 223.42,302.49 222.62,302.53 221.88,302.50 C 221.13,302.47 220.40,302.41 219.67,302.33 C 218.95,302.24 218.23,302.13 217.52,301.98 C 216.80,301.84 216.10,301.67 215.41,301.47 C 214.71,301.27 214.02,301.04 213.34,300.78 C 212.66,300.52 211.99,300.24 211.33,299.92 C 210.66,299.61 210.01,299.26 209.36,298.89 C 208.71,298.52 208.07,298.12 207.44,297.69 C 206.80,297.26 206.15,296.75 205.56,296.31 C 204.97,295.88 204.41,295.46 203.88,295.07 C 203.36,294.68 202.86,294.31 202.40,293.96 C 201.94,293.61 201.51,293.29 201.11,292.98 C 200.71,292.68 200.35,292.40 200.02,292.14 C 199.68,291.88 199.38,291.64 199.12,291.43 C 198.85,291.21 198.62,291.02 198.41,290.85 C 198.21,290.68 198.04,290.53 197.91,290.41 C 197.77,290.28 197.69,290.20 197.59,290.09 C 197.50,289.99 197.41,289.89 197.33,289.78 C 197.25,289.68 197.17,289.57 197.11,289.47 C 197.04,289.36 196.99,289.26 196.94,289.16 C 196.89,289.05 196.85,288.95 196.81,288.84 C 196.78,288.74 196.75,288.64 196.73,288.53 C 196.72,288.43 196.71,288.32 196.70,288.22 C 196.70,288.11 196.71,288.01 196.72,287.91 C 196.73,287.80 196.81,287.70 196.78,287.59 C 196.76,287.48 196.69,287.37 196.57,287.24 C 196.45,287.12 196.29,286.99 196.09,286.85 C 195.88,286.71 195.63,286.57 195.33,286.42 C 195.03,286.27 194.69,286.12 194.30,285.95 C 193.91,285.79 193.47,285.62 192.99,285.45 C 192.51,285.27 191.99,285.09 191.41,284.90 C 190.84,284.71 190.23,284.51 189.56,284.31 C 188.90,284.11 188.14,283.89 187.44,283.69 C 186.73,283.49 186.03,283.30 185.33,283.12 C 184.63,282.95 183.93,282.78 183.23,282.62 C 182.54,282.47 181.85,282.32 181.16,282.19 C 180.47,282.05 179.78,281.93 179.09,281.81 C 178.41,281.70 177.73,281.59 177.05,281.50 C 176.37,281.41 175.69,281.32 175.02,281.25 C 174.34,281.18 173.67,281.11 173.00,281.06 C 172.33,281.01 171.63,280.98 171.00,280.94 C 170.37,280.89 169.78,280.85 169.23,280.80 C 168.68,280.75 168.17,280.70 167.70,280.64 C 167.23,280.59 166.80,280.53 166.41,280.47 C 166.01,280.41 165.66,280.35 165.34,280.28 C 165.03,280.22 164.75,280.15 164.52,280.08 C 164.28,280.01 164.08,279.93 163.92,279.86 C 163.76,279.78 163.64,279.71 163.56,279.62 C 163.48,279.54 163.45,279.45 163.44,279.38 C 163.43,279.30 163.45,279.22 163.50,279.16 C 163.55,279.09 163.64,279.03 163.75,278.97 C 163.86,278.91 164.01,278.86 164.19,278.81 C 164.36,278.77 164.57,278.72 164.81,278.69 C 165.05,278.65 165.32,278.62 165.62,278.59 C 165.93,278.57 166.26,278.55 166.62,278.53 C 166.99,278.52 167.39,278.51 167.81,278.50 C 168.24,278.49 168.74,278.51 169.19,278.50 C 169.63,278.49 170.07,278.48 170.49,278.46 C 170.92,278.44 171.33,278.42 171.73,278.38 C 172.13,278.35 172.51,278.31 172.89,278.27 C 173.27,278.22 173.63,278.17 173.98,278.11 C 174.34,278.05 174.68,277.99 175.01,277.91 C 175.34,277.84 175.65,277.76 175.96,277.68 C 176.27,277.60 176.56,277.50 176.84,277.41 C 177.13,277.31 177.43,277.19 177.66,277.09 C 177.88,276.99 178.07,276.90 178.20,276.81 C 178.34,276.72 178.43,276.64 178.48,276.56 C 178.53,276.48 178.54,276.41 178.50,276.34 C 178.46,276.28 178.38,276.21 178.25,276.16 C 178.12,276.10 177.95,276.05 177.73,276.00 C 177.52,275.95 177.26,275.91 176.95,275.88 C 176.65,275.84 176.30,275.81 175.91,275.78 C 175.51,275.76 175.04,275.76 174.59,275.72 C 174.15,275.68 173.69,275.62 173.22,275.55 C 172.75,275.47 172.27,275.38 171.78,275.27 C 171.29,275.15 170.79,275.02 170.28,274.88 C 169.77,274.73 169.25,274.56 168.72,274.38 C 168.19,274.19 167.65,273.99 167.09,273.77 C 166.54,273.54 165.98,273.30 165.41,273.05 C 164.83,272.79 164.25,272.51 163.66,272.22 C 163.06,271.92 162.41,271.58 161.84,271.28 C 161.27,270.98 160.74,270.68 160.24,270.40 C 159.74,270.11 159.28,269.84 158.85,269.57 C 158.42,269.30 158.03,269.05 157.67,268.80 C 157.31,268.55 156.99,268.31 156.70,268.08 C 156.42,267.85 156.16,267.63 155.95,267.41 C 155.73,267.20 155.55,267.00 155.40,266.80 C 155.25,266.61 155.14,266.43 155.06,266.25 C 154.99,266.07 154.95,265.92 154.94,265.75 C 154.92,265.58 154.93,265.40 154.96,265.23 C 154.99,265.05 155.05,264.87 155.13,264.68 C 155.21,264.49 155.32,264.30 155.45,264.11 C 155.58,263.92 155.74,263.72 155.92,263.52 C 156.10,263.31 156.31,263.11 156.54,262.90 C 156.77,262.69 157.02,262.48 157.30,262.26 C 157.58,262.04 157.89,261.82 158.22,261.59 C 158.55,261.37 158.90,261.13 159.28,260.91 C 159.66,260.68 160.06,260.47 160.48,260.27 C 160.91,260.06 161.36,259.86 161.83,259.67 C 162.30,259.48 162.79,259.30 163.31,259.12 C 163.83,258.95 164.37,258.78 164.94,258.62 C 165.50,258.47 166.09,258.32 166.70,258.17 C 167.32,258.03 167.95,257.89 168.61,257.77 C 169.27,257.64 169.95,257.52 170.66,257.41 C 171.36,257.29 172.18,257.20 172.84,257.09 C 173.51,256.99 174.11,256.89 174.66,256.78 C 175.20,256.68 175.68,256.57 176.09,256.47 C 176.51,256.36 176.86,256.26 177.16,256.16 C 177.45,256.05 177.68,255.95 177.84,255.84 C 178.01,255.74 178.11,255.64 178.16,255.53 C 178.20,255.43 178.18,255.32 178.09,255.22 C 178.01,255.11 177.86,255.01 177.66,254.91 C 177.45,254.80 177.12,254.69 176.84,254.59 C 176.56,254.50 176.27,254.40 175.98,254.32 C 175.68,254.24 175.37,254.16 175.05,254.09 C 174.74,254.01 174.41,253.95 174.08,253.89 C 173.74,253.83 173.40,253.78 173.05,253.73 C 172.69,253.69 172.33,253.65 171.96,253.62 C 171.59,253.58 171.21,253.56 170.82,253.54 C 170.43,253.52 170.03,253.51 169.62,253.50 C 169.22,253.49 168.77,253.51 168.38,253.50 C 167.98,253.49 167.62,253.48 167.28,253.47 C 166.94,253.45 166.63,253.43 166.34,253.41 C 166.06,253.38 165.80,253.35 165.56,253.31 C 165.33,253.28 165.12,253.23 164.94,253.19 C 164.76,253.14 164.60,253.09 164.47,253.03 C 164.34,252.97 164.23,252.91 164.16,252.84 C 164.08,252.78 164.03,252.70 164.00,252.62 C 163.97,252.55 163.96,252.46 164.00,252.38 C 164.04,252.29 164.12,252.22 164.25,252.14 C 164.38,252.07 164.54,251.99 164.75,251.92 C 164.96,251.85 165.21,251.78 165.50,251.72 C 165.79,251.65 166.12,251.59 166.50,251.53 C 166.88,251.47 167.29,251.41 167.75,251.36 C 168.21,251.30 168.71,251.25 169.25,251.20 C 169.79,251.15 170.38,251.11 171.00,251.06 C 171.62,251.02 172.34,250.99 173.00,250.94 C 173.66,250.89 174.32,250.83 174.97,250.77 C 175.62,250.70 176.27,250.63 176.91,250.55 C 177.55,250.47 178.18,250.38 178.81,250.28 C 179.44,250.18 180.07,250.08 180.69,249.97 C 181.31,249.86 181.92,249.74 182.53,249.61 C 183.14,249.48 183.74,249.35 184.34,249.20 C 184.94,249.06 185.54,248.91 186.12,248.75 C 186.71,248.59 187.31,248.43 187.88,248.25 C 188.44,248.07 188.99,247.89 189.52,247.69 C 190.04,247.49 190.55,247.28 191.05,247.06 C 191.54,246.84 192.01,246.61 192.47,246.38 C 192.92,246.14 193.36,245.89 193.78,245.62 C 194.20,245.36 194.60,245.09 194.98,244.81 C 195.37,244.53 195.73,244.24 196.08,243.94 C 196.42,243.64 196.75,243.32 197.06,243.00 C 197.37,242.68 197.63,242.34 197.94,242.00 C 198.25,241.66 198.58,241.32 198.92,240.97 C 199.27,240.62 199.63,240.27 200.02,239.91 C 200.40,239.55 200.80,239.18 201.22,238.81 C 201.64,238.44 202.08,238.07 202.53,237.69 C 202.99,237.31 203.46,236.92 203.95,236.53 C 204.45,236.14 204.96,235.74 205.48,235.34 C 206.01,234.94 206.56,234.54 207.12,234.12 C 207.69,233.71 208.28,233.27 208.88,232.88 C 209.47,232.48 210.07,232.12 210.69,231.78 C 211.30,231.44 211.93,231.13 212.56,230.84 C 213.20,230.56 213.84,230.30 214.50,230.06 C 215.16,229.83 215.82,229.62 216.50,229.44 C 217.18,229.26 217.86,229.10 218.56,228.97 C 219.26,228.84 219.97,228.73 220.69,228.66 C 221.41,228.58 222.14,228.53 222.88,228.50 C 223.61,228.47 224.42,228.51 225.12,228.50 C 225.83,228.49 226.48,228.48 227.09,228.47 C 227.70,228.45 228.27,228.43 228.78,228.41 C 229.30,228.38 229.77,228.35 230.19,228.31 C 230.61,228.28 230.98,228.23 231.31,228.19 C 231.64,228.14 231.92,228.09 232.16,228.03 C 232.39,227.97 232.58,227.91 232.72,227.84 C 232.86,227.78 232.95,227.70 233.00,227.62 C 233.05,227.55 233.04,227.46 233.00,227.38 C 232.96,227.29 232.88,227.22 232.75,227.14 C 232.62,227.07 232.46,226.99 232.25,226.92 C 232.04,226.85 231.79,226.78 231.50,226.72 C 231.21,226.65 230.88,226.59 230.50,226.53 C 230.12,226.47 229.71,226.41 229.25,226.36 C 228.79,226.30 228.29,226.25 227.75,226.20 C 227.21,226.15 226.62,226.11 226.00,226.06 C 225.38,226.02 224.63,225.98 224.00,225.94 C 223.37,225.89 222.79,225.85 222.24,225.80 C 221.70,225.76 221.19,225.71 220.73,225.66 C 220.26,225.62 219.84,225.57 219.45,225.52 C 219.07,225.46 218.73,225.41 218.42,225.36 C 218.12,225.31 217.86,225.25 217.63,225.20 C 217.41,225.14 217.23,225.08 217.09,225.02 C 216.94,224.96 216.84,224.90 216.78,224.84 C 216.72,224.78 216.72,224.72 216.72,224.66 C 216.72,224.60 216.73,224.54 216.77,224.48 C 216.80,224.43 216.85,224.38 216.92,224.33 C 216.99,224.28 217.08,224.23 217.19,224.19 C 217.29,224.14 217.42,224.10 217.56,224.06 C 217.71,224.02 217.87,223.99 218.05,223.95 C 218.23,223.92 218.42,223.89 218.64,223.86 C 218.86,223.83 219.09,223.80 219.34,223.78 C 219.60,223.76 219.83,223.79 220.16,223.72 C 220.48,223.65 220.85,223.52 221.27,223.35 C 221.70,223.18 222.17,222.95 222.70,222.68 C 223.22,222.40 223.80,222.08 224.42,221.70 C 225.05,221.33 225.73,220.90 226.45,220.42 C 227.18,219.94 227.96,219.42 228.79,218.84 C 229.62,218.26 230.50,217.63 231.43,216.95 C 232.36,216.26 233.34,215.53 234.38,214.75 C 235.41,213.97 236.59,213.03 237.62,212.25 C 238.66,211.47 239.64,210.74 240.58,210.06 C 241.51,209.39 242.40,208.76 243.23,208.19 C 244.07,207.61 244.86,207.09 245.59,206.62 C 246.33,206.16 247.02,205.74 247.66,205.38 C 248.29,205.01 248.88,204.70 249.42,204.44 C 249.96,204.18 250.45,203.97 250.89,203.81 C 251.33,203.66 251.72,203.55 252.06,203.50 C 252.40,203.45 252.65,203.48 252.94,203.50 C 253.23,203.52 253.51,203.55 253.80,203.61 C 254.08,203.66 254.36,203.74 254.64,203.83 C 254.92,203.92 255.20,204.03 255.47,204.16 C 255.74,204.28 256.01,204.43 256.28,204.59 C 256.55,204.76 256.82,204.94 257.08,205.14 C 257.34,205.34 257.60,205.56 257.86,205.80 C 258.12,206.03 258.37,206.29 258.62,206.56 C 258.88,206.84 259.11,207.19 259.38,207.44 C 259.64,207.68 259.91,207.88 260.20,208.03 C 260.49,208.18 260.79,208.29 261.11,208.34 C 261.42,208.40 261.75,208.41 262.09,208.38 C 262.43,208.34 262.79,208.26 263.16,208.12 C 263.52,207.99 263.90,207.82 264.30,207.59 C 264.69,207.37 265.10,207.10 265.52,206.78 C 265.93,206.46 266.37,206.10 266.81,205.69 C 267.26,205.28 267.67,204.82 268.19,204.31 C 268.71,203.81 269.29,203.26 269.94,202.67 C 270.58,202.08 271.29,201.45 272.06,200.77 C 272.83,200.09 273.67,199.36 274.56,198.59 C 275.46,197.83 276.42,197.01 277.44,196.16 C 278.46,195.30 279.54,194.40 280.69,193.45 C 281.83,192.51 283.04,191.52 284.31,190.48 C 285.58,189.45 286.92,188.37 288.31,187.25 C 289.71,186.13 291.30,184.84 292.69,183.75 C 294.07,182.66 295.39,181.65 296.62,180.72 C 297.86,179.79 299.03,178.93 300.12,178.16 C 301.22,177.38 302.24,176.68 303.19,176.06 C 304.14,175.44 305.01,174.90 305.81,174.44 C 306.61,173.97 307.34,173.59 308.00,173.28 C 308.66,172.97 309.24,172.74 309.75,172.59 C 310.26,172.44 310.70,172.37 311.06,172.38 C 311.43,172.38 311.66,172.54 311.94,172.62 C 312.22,172.71 312.49,172.80 312.74,172.90 C 313.00,172.99 313.24,173.09 313.48,173.20 C 313.71,173.30 313.93,173.40 314.14,173.52 C 314.35,173.63 314.55,173.74 314.73,173.86 C 314.92,173.98 315.10,174.10 315.26,174.23 C 315.42,174.35 315.57,174.48 315.71,174.62 C 315.85,174.75 315.98,174.89 316.09,175.03 C 316.21,175.17 316.38,175.22 316.41,175.47 C 316.43,175.71 316.37,176.06 316.23,176.51 C 316.08,176.95 315.86,177.50 315.55,178.15 C 315.25,178.80 314.86,179.54 314.39,180.39 C 313.92,181.24 313.37,182.19 312.73,183.23 C 312.10,184.28 311.38,185.43 310.59,186.68 C 309.79,187.93 308.91,189.28 307.95,190.73 C 306.98,192.18 305.94,193.73 304.81,195.38 C 303.69,197.02 302.33,198.98 301.19,200.62 C 300.05,202.27 298.97,203.80 297.96,205.23 C 296.95,206.65 296.01,207.97 295.13,209.18 C 294.26,210.39 293.45,211.49 292.70,212.48 C 291.96,213.48 291.28,214.36 290.67,215.14 C 290.06,215.92 289.52,216.59 289.04,217.15 C 288.56,217.71 288.15,218.16 287.80,218.51 C 287.46,218.85 287.18,219.09 286.97,219.22 C 286.76,219.35 286.68,219.25 286.53,219.28 C 286.39,219.31 286.24,219.35 286.09,219.41 C 285.95,219.46 285.80,219.52 285.66,219.59 C 285.51,219.67 285.36,219.75 285.22,219.84 C 285.07,219.94 284.93,220.04 284.78,220.16 C 284.64,220.27 284.49,220.40 284.34,220.53 C 284.20,220.67 284.05,220.81 283.91,220.97 C 283.76,221.12 283.61,221.29 283.47,221.47 C 283.32,221.65 283.15,221.83 283.03,222.03 C 282.91,222.23 282.81,222.44 282.73,222.66 C 282.66,222.88 282.61,223.10 282.58,223.34 C 282.55,223.58 282.54,223.83 282.56,224.09 C 282.58,224.35 282.62,224.62 282.69,224.91 C 282.75,225.19 282.84,225.48 282.95,225.78 C 283.07,226.08 283.20,226.40 283.36,226.72 C 283.52,227.04 283.70,227.38 283.91,227.72 C 284.11,228.06 284.36,228.44 284.59,228.78 C 284.83,229.12 285.08,229.45 285.34,229.76 C 285.59,230.07 285.86,230.37 286.13,230.65 C 286.41,230.93 286.69,231.20 286.98,231.45 C 287.28,231.71 287.58,231.95 287.89,232.17 C 288.20,232.40 288.52,232.61 288.85,232.80 C 289.18,233.00 289.52,233.18 289.87,233.35 C 290.21,233.52 290.57,233.67 290.94,233.81 C 291.30,233.95 291.70,234.08 292.06,234.19 C 292.43,234.30 292.79,234.40 293.14,234.48 C 293.49,234.57 293.84,234.64 294.17,234.70 C 294.51,234.76 294.84,234.81 295.16,234.84 C 295.48,234.88 295.79,234.90 296.09,234.91 C 296.40,234.91 296.70,234.91 296.98,234.89 C 297.27,234.87 297.55,234.84 297.83,234.80 C 298.10,234.75 298.37,234.70 298.62,234.62 C 298.88,234.55 299.12,234.47 299.38,234.38 C 299.62,234.28 299.88,234.18 300.12,234.08 C 300.38,233.97 300.62,233.86 300.88,233.73 C 301.12,233.61 301.38,233.48 301.62,233.34 C 301.88,233.21 302.12,233.06 302.38,232.91 C 302.62,232.75 302.88,232.59 303.12,232.42 C 303.38,232.25 303.62,232.08 303.88,231.89 C 304.12,231.71 304.38,231.51 304.62,231.31 C 304.88,231.11 305.13,230.88 305.38,230.69 C 305.62,230.49 305.87,230.32 306.11,230.16 C 306.35,229.99 306.59,229.85 306.83,229.72 C 307.07,229.59 307.30,229.47 307.53,229.38 C 307.76,229.28 307.99,229.19 308.22,229.12 C 308.45,229.06 308.67,229.01 308.89,228.97 C 309.11,228.93 309.33,228.91 309.55,228.91 C 309.76,228.90 309.98,228.91 310.19,228.94 C 310.40,228.96 310.61,229.02 310.81,229.06 C 311.01,229.11 311.21,229.15 311.40,229.20 C 311.59,229.24 311.77,229.29 311.95,229.34 C 312.12,229.38 312.29,229.43 312.45,229.48 C 312.62,229.54 312.77,229.59 312.92,229.64 C 313.07,229.69 313.21,229.75 313.35,229.80 C 313.49,229.86 313.62,229.92 313.74,229.98 C 313.87,230.04 313.98,230.10 314.09,230.16 C 314.20,230.22 314.30,230.26 314.41,230.34 C 314.51,230.42 314.61,230.52 314.72,230.64 C 314.82,230.76 314.93,230.89 315.03,231.05 C 315.14,231.20 315.24,231.37 315.34,231.56 C 315.45,231.75 315.55,231.96 315.66,232.19 C 315.76,232.41 315.86,232.66 315.97,232.92 C 316.07,233.18 316.18,233.47 316.28,233.77 C 316.39,234.07 316.49,234.38 316.59,234.72 C 316.70,235.05 316.79,235.44 316.91,235.78 C 317.03,236.13 317.17,236.46 317.32,236.79 C 317.48,237.12 317.65,237.43 317.84,237.74 C 318.02,238.05 318.23,238.35 318.45,238.64 C 318.68,238.93 318.92,239.21 319.17,239.48 C 319.43,239.76 319.70,240.02 319.99,240.27 C 320.28,240.53 320.59,240.77 320.91,241.01 C 321.24,241.24 321.58,241.47 321.94,241.69 C 322.30,241.90 322.70,242.12 323.06,242.31 C 323.42,242.51 323.77,242.69 324.11,242.86 C 324.45,243.03 324.77,243.18 325.08,243.33 C 325.39,243.47 325.68,243.60 325.97,243.72 C 326.25,243.84 326.52,243.94 326.78,244.03 C 327.04,244.12 327.28,244.20 327.52,244.27 C 327.75,244.33 327.97,244.38 328.17,244.42 C 328.38,244.46 328.57,244.49 328.75,244.50 C 328.93,244.51 329.07,244.49 329.25,244.50 C 329.43,244.51 329.62,244.54 329.82,244.59 C 330.02,244.63 330.24,244.69 330.46,244.76 C 330.69,244.83 330.92,244.92 331.17,245.02 C 331.42,245.12 331.68,245.23 331.95,245.36 C 332.23,245.49 332.51,245.63 332.80,245.79 C 333.10,245.95 333.41,246.12 333.73,246.30 C 334.05,246.49 334.38,246.69 334.72,246.91 C 335.06,247.12 335.46,247.37 335.78,247.59 C 336.11,247.82 336.40,248.04 336.67,248.25 C 336.94,248.46 337.18,248.67 337.39,248.88 C 337.60,249.08 337.78,249.28 337.94,249.47 C 338.09,249.66 338.22,249.85 338.31,250.03 C 338.41,250.21 338.48,250.39 338.52,250.56 C 338.55,250.73 338.57,250.90 338.55,251.06 C 338.53,251.22 338.48,251.38 338.41,251.53 C 338.33,251.68 338.20,251.83 338.09,251.97 C 337.99,252.11 337.87,252.23 337.76,252.35 C 337.64,252.47 337.52,252.58 337.40,252.68 C 337.27,252.78 337.15,252.87 337.02,252.95 C 336.88,253.04 336.75,253.11 336.61,253.17 C 336.47,253.24 336.33,253.29 336.18,253.34 C 336.03,253.38 335.88,253.42 335.73,253.45 C 335.57,253.47 335.41,253.49 335.25,253.50 C 335.09,253.51 334.92,253.49 334.75,253.50 C 334.58,253.51 334.42,253.53 334.25,253.56 C 334.08,253.59 333.92,253.64 333.75,253.69 C 333.58,253.74 333.42,253.80 333.25,253.88 C 333.08,253.95 332.92,254.03 332.75,254.12 C 332.58,254.22 332.42,254.32 332.25,254.44 C 332.08,254.55 331.92,254.68 331.75,254.81 C 331.58,254.95 331.42,255.09 331.25,255.25 C 331.08,255.41 330.93,255.59 330.75,255.75 C 330.57,255.91 330.38,256.05 330.17,256.19 C 329.97,256.32 329.75,256.45 329.52,256.56 C 329.28,256.68 329.04,256.78 328.78,256.88 C 328.52,256.97 328.25,257.05 327.97,257.12 C 327.68,257.20 327.39,257.26 327.08,257.31 C 326.77,257.36 326.45,257.41 326.11,257.44 C 325.77,257.47 325.42,257.49 325.06,257.50 C 324.70,257.51 324.30,257.49 323.94,257.50 C 323.57,257.51 323.21,257.54 322.87,257.57 C 322.52,257.61 322.18,257.65 321.85,257.71 C 321.52,257.77 321.20,257.84 320.89,257.92 C 320.58,258.00 320.28,258.10 319.98,258.20 C 319.69,258.31 319.41,258.43 319.13,258.55 C 318.86,258.68 318.59,258.82 318.34,258.98 C 318.08,259.13 317.83,259.29 317.59,259.47 C 317.36,259.64 317.12,259.83 316.91,260.03 C 316.69,260.23 316.49,260.43 316.30,260.65 C 316.12,260.86 315.95,261.09 315.79,261.32 C 315.63,261.55 315.49,261.80 315.36,262.05 C 315.23,262.30 315.12,262.56 315.02,262.83 C 314.92,263.10 314.83,263.38 314.76,263.66 C 314.69,263.95 314.63,264.25 314.59,264.55 C 314.54,264.86 314.51,265.18 314.50,265.50 C 314.49,265.82 314.49,266.18 314.50,266.50 C 314.51,266.82 314.53,267.13 314.55,267.43 C 314.58,267.73 314.62,268.01 314.66,268.29 C 314.71,268.56 314.76,268.83 314.83,269.08 C 314.89,269.33 314.96,269.57 315.05,269.80 C 315.13,270.02 315.22,270.24 315.32,270.45 C 315.42,270.65 315.53,270.84 315.65,271.02 C 315.77,271.20 315.89,271.37 316.03,271.53 C 316.17,271.69 316.30,271.83 316.47,271.97 C 316.64,272.11 316.83,272.24 317.04,272.37 C 317.25,272.49 317.49,272.61 317.74,272.73 C 318.00,272.84 318.28,272.95 318.58,273.05 C 318.88,273.15 319.20,273.24 319.55,273.33 C 319.89,273.42 320.26,273.50 320.65,273.57 C 321.04,273.64 321.45,273.71 321.88,273.77 C 322.32,273.83 322.77,273.89 323.25,273.94 C 323.73,273.99 324.28,274.02 324.75,274.06 C 325.22,274.11 325.67,274.16 326.09,274.22 C 326.52,274.28 326.91,274.34 327.28,274.41 C 327.65,274.47 327.99,274.55 328.31,274.62 C 328.63,274.70 328.92,274.79 329.19,274.88 C 329.45,274.96 329.69,275.06 329.91,275.16 C 330.12,275.26 330.31,275.36 330.47,275.47 C 330.63,275.58 330.77,275.69 330.88,275.81 C 330.98,275.93 331.03,276.07 331.12,276.19 C 331.22,276.31 331.32,276.42 331.42,276.53 C 331.53,276.64 331.64,276.74 331.77,276.84 C 331.89,276.94 332.02,277.04 332.16,277.12 C 332.29,277.21 332.44,277.30 332.59,277.38 C 332.75,277.45 332.91,277.53 333.08,277.59 C 333.25,277.66 333.42,277.72 333.61,277.78 C 333.79,277.84 333.99,277.89 334.19,277.94 C 334.39,277.98 334.61,278.02 334.81,278.06 C 335.01,278.11 335.21,278.16 335.40,278.21 C 335.59,278.26 335.77,278.32 335.95,278.38 C 336.12,278.44 336.29,278.51 336.45,278.58 C 336.62,278.65 336.77,278.72 336.92,278.80 C 337.07,278.87 337.21,278.95 337.35,279.04 C 337.49,279.12 337.62,279.21 337.74,279.30 C 337.87,279.40 337.98,279.49 338.09,279.59 C 338.20,279.69 338.32,279.80 338.41,279.91 C 338.50,280.01 338.58,280.11 338.64,280.22 C 338.71,280.32 338.76,280.43 338.80,280.53 C 338.84,280.64 338.86,280.74 338.88,280.84 C 338.89,280.95 338.89,281.05 338.88,281.16 C 338.86,281.26 338.84,281.36 338.80,281.47 C 338.76,281.57 338.71,281.68 338.64,281.78 C 338.58,281.89 338.50,281.99 338.41,282.09 C 338.32,282.20 338.21,282.30 338.09,282.41 C 337.98,282.51 337.86,282.63 337.73,282.74 C 337.60,282.86 337.45,282.98 337.30,283.10 C 337.15,283.23 337.00,283.35 336.83,283.48 C 336.66,283.62 336.48,283.75 336.30,283.89 C 336.11,284.03 335.92,284.17 335.71,284.32 C 335.51,284.47 335.29,284.62 335.07,284.77 C 334.85,284.93 334.62,285.09 334.38,285.25 C 334.13,285.41 333.87,285.59 333.62,285.75 C 333.38,285.91 333.13,286.05 332.89,286.19 C 332.65,286.32 332.41,286.45 332.17,286.56 C 331.93,286.68 331.70,286.78 331.47,286.88 C 331.24,286.97 331.01,287.05 330.78,287.12 C 330.55,287.20 330.33,287.26 330.11,287.31 C 329.89,287.36 329.67,287.41 329.45,287.44 C 329.24,287.47 329.02,287.49 328.81,287.50 C 328.60,287.51 328.40,287.49 328.19,287.50 C 327.97,287.51 327.76,287.53 327.53,287.56 C 327.31,287.59 327.08,287.64 326.84,287.69 C 326.61,287.74 326.37,287.80 326.12,287.88 C 325.88,287.95 325.63,288.03 325.38,288.12 C 325.12,288.22 324.86,288.32 324.59,288.44 C 324.33,288.55 324.06,288.68 323.78,288.81 C 323.51,288.95 323.22,289.09 322.94,289.25 C 322.65,289.41 322.35,289.57 322.06,289.75 C 321.78,289.93 321.49,290.14 321.22,290.36 C 320.94,290.58 320.67,290.82 320.41,291.08 C 320.14,291.34 319.88,291.61 319.62,291.91 C 319.37,292.20 319.12,292.51 318.88,292.84 C 318.63,293.17 318.39,293.52 318.16,293.89 C 317.92,294.26 317.69,294.64 317.47,295.05 C 317.24,295.45 317.03,295.87 316.81,296.31 C 316.60,296.75 316.40,297.26 316.19,297.69 C 315.97,298.12 315.76,298.52 315.53,298.89 C 315.31,299.26 315.08,299.61 314.84,299.92 C 314.61,300.24 314.37,300.52 314.12,300.78 C 313.88,301.04 313.63,301.27 313.38,301.47 C 313.12,301.67 312.86,301.84 312.59,301.98 C 312.33,302.13 312.06,302.24 311.78,302.33 C 311.51,302.41 311.22,302.47 310.94,302.50 C 310.65,302.53 310.35,302.51 310.06,302.50 C 309.77,302.49 309.49,302.46 309.20,302.42 C 308.92,302.38 308.64,302.33 308.36,302.27 C 308.08,302.20 307.80,302.12 307.53,302.03 C 307.26,301.94 306.99,301.84 306.72,301.72 C 306.45,301.60 306.18,301.47 305.92,301.33 C 305.66,301.18 305.40,301.03 305.14,300.86 C 304.88,300.69 304.63,300.51 304.38,300.31 C 304.12,300.12 303.87,299.89 303.62,299.69 C 303.38,299.49 303.13,299.30 302.89,299.12 C 302.65,298.95 302.41,298.78 302.17,298.62 C 301.93,298.47 301.70,298.32 301.47,298.19 C 301.24,298.05 301.01,297.93 300.78,297.81 C 300.55,297.70 300.33,297.59 300.11,297.50 C 299.89,297.41 299.67,297.32 299.45,297.25 C 299.24,297.18 299.02,297.11 298.81,297.06 C 298.60,297.01 298.41,296.97 298.19,296.94 C 297.97,296.91 297.74,296.89 297.50,296.88 C 297.26,296.86 297.01,296.86 296.75,296.88 C 296.49,296.89 296.22,296.91 295.94,296.94 C 295.66,296.97 295.36,297.01 295.06,297.06 C 294.76,297.11 294.45,297.18 294.12,297.25 C 293.80,297.32 293.47,297.41 293.12,297.50 C 292.78,297.59 292.43,297.70 292.06,297.81 C 291.70,297.93 291.30,298.05 290.94,298.19 C 290.57,298.32 290.21,298.47 289.87,298.63 C 289.52,298.79 289.18,298.96 288.85,299.15 C 288.52,299.33 288.20,299.53 287.89,299.73 C 287.58,299.94 287.28,300.16 286.98,300.39 C 286.69,300.62 286.41,300.86 286.13,301.12 C 285.86,301.37 285.59,301.64 285.34,301.91 C 285.08,302.19 284.83,302.48 284.59,302.78 C 284.36,303.08 284.11,303.41 283.91,303.72 C 283.70,304.02 283.51,304.32 283.34,304.61 C 283.18,304.90 283.03,305.18 282.91,305.45 C 282.78,305.73 282.68,305.99 282.59,306.25 C 282.51,306.51 282.45,306.76 282.41,307.00 C 282.36,307.24 282.34,307.48 282.34,307.70 C 282.34,307.93 282.36,308.15 282.41,308.36 C 282.45,308.57 282.51,308.77 282.59,308.97 C 282.68,309.16 282.80,309.35 282.91,309.53 C 283.02,309.71 283.13,309.88 283.25,310.05 C 283.37,310.21 283.49,310.37 283.62,310.52 C 283.76,310.66 283.89,310.80 284.03,310.94 C 284.17,311.07 284.32,311.20 284.47,311.31 C 284.62,311.43 284.78,311.54 284.94,311.64 C 285.10,311.74 285.27,311.84 285.44,311.92 C 285.61,312.01 285.79,312.09 285.97,312.16 C 286.15,312.23 286.28,312.18 286.53,312.34 C 286.78,312.50 287.10,312.76 287.48,313.12 C 287.86,313.47 288.30,313.93 288.80,314.48 C 289.31,315.03 289.88,315.68 290.52,316.42 C 291.15,317.17 291.85,318.01 292.61,318.95 C 293.37,319.89 294.20,320.93 295.09,322.07 C 295.98,323.21 296.93,324.44 297.95,325.77 C 298.96,327.11 300.04,328.54 301.19,330.06 C 302.33,331.59 303.68,333.40 304.81,334.94 C 305.94,336.47 306.99,337.92 307.97,339.28 C 308.94,340.64 309.84,341.91 310.66,343.09 C 311.47,344.28 312.21,345.37 312.88,346.38 C 313.54,347.38 314.12,348.30 314.62,349.12 C 315.13,349.95 315.56,350.69 315.91,351.34 C 316.26,351.99 316.53,352.56 316.72,353.03 C 316.91,353.51 317.03,353.89 317.06,354.19 C 317.10,354.48 316.99,354.61 316.94,354.81 C 316.88,355.02 316.81,355.22 316.73,355.41 C 316.64,355.61 316.54,355.80 316.43,355.99 C 316.32,356.18 316.19,356.37 316.05,356.55 C 315.90,356.73 315.75,356.90 315.58,357.08 C 315.41,357.25 315.22,357.42 315.02,357.59 C 314.82,357.75 314.61,357.91 314.38,358.07 C 314.15,358.23 313.91,358.38 313.66,358.53 C 313.40,358.68 313.13,358.85 312.84,358.97 C 312.56,359.09 312.27,359.18 311.96,359.24 C 311.65,359.31 311.34,359.34 311.01,359.35 C 310.68,359.36 310.34,359.34 309.98,359.30 C 309.63,359.25 309.27,359.18 308.89,359.08 C 308.51,358.98 308.13,358.85 307.73,358.70 C 307.33,358.54 306.92,358.36 306.49,358.15 C 306.07,357.94 305.63,357.70 305.19,357.44 Z" />
    </clipPath>
  </defs>
  <path d="M 305.19,357.44 C 304.74,357.17 304.34,356.92 303.81,356.56 C 303.29,356.21 302.69,355.78 302.03,355.30 C 301.37,354.81 300.64,354.26 299.84,353.64 C 299.05,353.02 298.18,352.34 297.25,351.59 C 296.32,350.85 295.32,350.03 294.25,349.16 C 293.18,348.28 292.05,347.34 290.84,346.33 C 289.64,345.32 288.37,344.25 287.03,343.11 C 285.69,341.97 284.29,340.77 282.81,339.50 C 281.34,338.23 279.65,336.73 278.19,335.50 C 276.73,334.27 275.35,333.14 274.06,332.11 C 272.77,331.08 271.56,330.15 270.44,329.33 C 269.31,328.50 268.27,327.78 267.31,327.16 C 266.35,326.53 265.48,326.01 264.69,325.59 C 263.90,325.17 263.19,324.86 262.56,324.64 C 261.94,324.42 261.40,324.31 260.94,324.30 C 260.48,324.28 260.10,324.37 259.81,324.56 C 259.52,324.75 259.40,325.16 259.19,325.44 C 258.97,325.71 258.76,325.97 258.53,326.20 C 258.31,326.44 258.08,326.66 257.84,326.86 C 257.61,327.06 257.37,327.24 257.12,327.41 C 256.88,327.57 256.63,327.72 256.38,327.84 C 256.12,327.97 255.86,328.08 255.59,328.17 C 255.33,328.26 255.06,328.34 254.78,328.39 C 254.51,328.45 254.22,328.48 253.94,328.50 C 253.65,328.52 253.41,328.55 253.06,328.50 C 252.72,328.45 252.32,328.34 251.88,328.19 C 251.43,328.03 250.93,327.82 250.38,327.56 C 249.82,327.30 249.22,326.99 248.56,326.62 C 247.91,326.26 247.20,325.84 246.44,325.38 C 245.68,324.91 244.86,324.39 244.00,323.81 C 243.14,323.24 242.22,322.61 241.25,321.94 C 240.28,321.26 239.26,320.53 238.19,319.75 C 237.11,318.97 235.88,318.03 234.81,317.25 C 233.74,316.47 232.73,315.73 231.77,315.05 C 230.80,314.36 229.90,313.73 229.05,313.14 C 228.20,312.55 227.40,312.02 226.66,311.53 C 225.91,311.04 225.23,310.61 224.59,310.22 C 223.96,309.83 223.38,309.49 222.86,309.20 C 222.34,308.91 221.87,308.67 221.45,308.48 C 221.04,308.29 220.68,308.15 220.38,308.06 C 220.07,307.97 219.83,307.98 219.62,307.94 C 219.42,307.90 219.25,307.85 219.12,307.81 C 219.00,307.77 218.92,307.73 218.88,307.69 C 218.83,307.65 218.83,307.60 218.88,307.56 C 218.92,307.52 219.00,307.48 219.12,307.44 C 219.25,307.40 219.42,307.35 219.62,307.31 C 219.83,307.27 220.08,307.23 220.38,307.19 C 220.67,307.15 221.00,307.10 221.38,307.06 C 221.75,307.02 222.22,306.98 222.62,306.94 C 223.03,306.89 223.43,306.85 223.81,306.80 C 224.20,306.75 224.57,306.70 224.94,306.64 C 225.30,306.59 225.66,306.53 226.00,306.47 C 226.34,306.41 226.68,306.35 227.00,306.28 C 227.32,306.22 227.64,306.15 227.94,306.08 C 228.24,306.01 228.53,305.93 228.81,305.86 C 229.09,305.78 229.36,305.71 229.62,305.62 C 229.89,305.54 230.14,305.46 230.38,305.38 C 230.61,305.29 230.82,305.21 231.02,305.12 C 231.21,305.04 231.39,304.96 231.55,304.88 C 231.71,304.79 231.85,304.71 231.97,304.62 C 232.09,304.54 232.20,304.46 232.28,304.38 C 232.37,304.29 232.43,304.21 232.48,304.12 C 232.53,304.04 232.57,303.96 232.58,303.88 C 232.59,303.79 232.59,303.71 232.56,303.62 C 232.54,303.54 232.52,303.45 232.44,303.38 C 232.35,303.30 232.22,303.22 232.05,303.16 C 231.87,303.09 231.65,303.03 231.39,302.97 C 231.13,302.91 230.82,302.86 230.47,302.81 C 230.12,302.77 229.72,302.72 229.28,302.69 C 228.84,302.65 228.36,302.62 227.83,302.59 C 227.30,302.57 226.73,302.55 226.11,302.53 C 225.49,302.52 224.83,302.51 224.12,302.50 C 223.42,302.49 222.62,302.53 221.88,302.50 C 221.13,302.47 220.40,302.41 219.67,302.33 C 218.95,302.24 218.23,302.13 217.52,301.98 C 216.80,301.84 216.10,301.67 215.41,301.47 C 214.71,301.27 214.02,301.04 213.34,300.78 C 212.66,300.52 211.99,300.24 211.33,299.92 C 210.66,299.61 210.01,299.26 209.36,298.89 C 208.71,298.52 208.07,298.12 207.44,297.69 C 206.80,297.26 206.15,296.75 205.56,296.31 C 204.97,295.88 204.41,295.46 203.88,295.07 C 203.36,294.68 202.86,294.31 202.40,293.96 C 201.94,293.61 201.51,293.29 201.11,292.98 C 200.71,292.68 200.35,292.40 200.02,292.14 C 199.68,291.88 199.38,291.64 199.12,291.43 C 198.85,291.21 198.62,291.02 198.41,290.85 C 198.21,290.68 198.04,290.53 197.91,290.41 C 197.77,290.28 197.69,290.20 197.59,290.09 C 197.50,289.99 197.41,289.89 197.33,289.78 C 197.25,289.68 197.17,289.57 197.11,289.47 C 197.04,289.36 196.99,289.26 196.94,289.16 C 196.89,289.05 196.85,288.95 196.81,288.84 C 196.78,288.74 196.75,288.64 196.73,288.53 C 196.72,288.43 196.71,288.32 196.70,288.22 C 196.70,288.11 196.71,288.01 196.72,287.91 C 196.73,287.80 196.81,287.70 196.78,287.59 C 196.76,287.48 196.69,287.37 196.57,287.24 C 196.45,287.12 196.29,286.99 196.09,286.85 C 195.88,286.71 195.63,286.57 195.33,286.42 C 195.03,286.27 194.69,286.12 194.30,285.95 C 193.91,285.79 193.47,285.62 192.99,285.45 C 192.51,285.27 191.99,285.09 191.41,284.90 C 190.84,284.71 190.23,284.51 189.56,284.31 C 188.90,284.11 188.14,283.89 187.44,283.69 C 186.73,283.49 186.03,283.30 185.33,283.12 C 184.63,282.95 183.93,282.78 183.23,282.62 C 182.54,282.47 181.85,282.32 181.16,282.19 C 180.47,282.05 179.78,281.93 179.09,281.81 C 178.41,281.70 177.73,281.59 177.05,281.50 C 176.37,281.41 175.69,281.32 175.02,281.25 C 174.34,281.18 173.67,281.11 173.00,281.06 C 172.33,281.01 171.63,280.98 171.00,280.94 C 170.37,280.89 169.78,280.85 169.23,280.80 C 168.68,280.75 168.17,280.70 167.70,280.64 C 167.23,280.59 166.80,280.53 166.41,280.47 C 166.01,280.41 165.66,280.35 165.34,280.28 C 165.03,280.22 164.75,280.15 164.52,280.08 C 164.28,280.01 164.08,279.93 163.92,279.86 C 163.76,279.78 163.64,279.71 163.56,279.62 C 163.48,279.54 163.45,279.45 163.44,279.38 C 163.43,279.30 163.45,279.22 163.50,279.16 C 163.55,279.09 163.64,279.03 163.75,278.97 C 163.86,278.91 164.01,278.86 164.19,278.81 C 164.36,278.77 164.57,278.72 164.81,278.69 C 165.05,278.65 165.32,278.62 165.62,278.59 C 165.93,278.57 166.26,278.55 166.62,278.53 C 166.99,278.52 167.39,278.51 167.81,278.50 C 168.24,278.49 168.74,278.51 169.19,278.50 C 169.63,278.49 170.07,278.48 170.49,278.46 C 170.92,278.44 171.33,278.42 171.73,278.38 C 172.13,278.35 172.51,278.31 172.89,278.27 C 173.27,278.22 173.63,278.17 173.98,278.11 C 174.34,278.05 174.68,277.99 175.01,277.91 C 175.34,277.84 175.65,277.76 175.96,277.68 C 176.27,277.60 176.56,277.50 176.84,277.41 C 177.13,277.31 177.43,277.19 177.66,277.09 C 177.88,276.99 178.07,276.90 178.20,276.81 C 178.34,276.72 178.43,276.64 178.48,276.56 C 178.53,276.48 178.54,276.41 178.50,276.34 C 178.46,276.28 178.38,276.21 178.25,276.16 C 178.12,276.10 177.95,276.05 177.73,276.00 C 177.52,275.95 177.26,275.91 176.95,275.88 C 176.65,275.84 176.30,275.81 175.91,275.78 C 175.51,275.76 175.04,275.76 174.59,275.72 C 174.15,275.68 173.69,275.62 173.22,275.55 C 172.75,275.47 172.27,275.38 171.78,275.27 C 171.29,275.15 170.79,275.02 170.28,274.88 C 169.77,274.73 169.25,274.56 168.72,274.38 C 168.19,274.19 167.65,273.99 167.09,273.77 C 166.54,273.54 165.98,273.30 165.41,273.05 C 164.83,272.79 164.25,272.51 163.66,272.22 C 163.06,271.92 162.41,271.58 161.84,271.28 C 161.27,270.98 160.74,270.68 160.24,270.40 C 159.74,270.11 159.28,269.84 158.85,269.57 C 158.42,269.30 158.03,269.05 157.67,268.80 C 157.31,268.55 156.99,268.31 156.70,268.08 C 156.42,267.85 156.16,267.63 155.95,267.41 C 155.73,267.20 155.55,267.00 155.40,266.80 C 155.25,266.61 155.14,266.43 155.06,266.25 C 154.99,266.07 154.95,265.92 154.94,265.75 C 154.92,265.58 154.93,265.40 154.96,265.23 C 154.99,265.05 155.05,264.87 155.13,264.68 C 155.21,264.49 155.32,264.30 155.45,264.11 C 155.58,263.92 155.74,263.72 155.92,263.52 C 156.10,263.31 156.31,263.11 156.54,262.90 C 156.77,262.69 157.02,262.48 157.30,262.26 C 157.58,262.04 157.89,261.82 158.22,261.59 C 158.55,261.37 158.90,261.13 159.28,260.91 C 159.66,260.68 160.06,260.47 160.48,260.27 C 160.91,260.06 161.36,259.86 161.83,259.67 C 162.30,259.48 162.79,259.30 163.31,259.12 C 163.83,258.95 164.37,258.78 164.94,258.62 C 165.50,258.47 166.09,258.32 166.70,258.17 C 167.32,258.03 167.95,257.89 168.61,257.77 C 169.27,257.64 169.95,257.52 170.66,257.41 C 171.36,257.29 172.18,257.20 172.84,257.09 C 173.51,256.99 174.11,256.89 174.66,256.78 C 175.20,256.68 175.68,256.57 176.09,256.47 C 176.51,256.36 176.86,256.26 177.16,256.16 C 177.45,256.05 177.68,255.95 177.84,255.84 C 178.01,255.74 178.11,255.64 178.16,255.53 C 178.20,255.43 178.18,255.32 178.09,255.22 C 178.01,255.11 177.86,255.01 177.66,254.91 C 177.45,254.80 177.12,254.69 176.84,254.59 C 176.56,254.50 176.27,254.40 175.98,254.32 C 175.68,254.24 175.37,254.16 175.05,254.09 C 174.74,254.01 174.41,253.95 174.08,253.89 C 173.74,253.83 173.40,253.78 173.05,253.73 C 172.69,253.69 172.33,253.65 171.96,253.62 C 171.59,253.58 171.21,253.56 170.82,253.54 C 170.43,253.52 170.03,253.51 169.62,253.50 C 169.22,253.49 168.77,253.51 168.38,253.50 C 167.98,253.49 167.62,253.48 167.28,253.47 C 166.94,253.45 166.63,253.43 166.34,253.41 C 166.06,253.38 165.80,253.35 165.56,253.31 C 165.33,253.28 165.12,253.23 164.94,253.19 C 164.76,253.14 164.60,253.09 164.47,253.03 C 164.34,252.97 164.23,252.91 164.16,252.84 C 164.08,252.78 164.03,252.70 164.00,252.62 C 163.97,252.55 163.96,252.46 164.00,252.38 C 164.04,252.29 164.12,252.22 164.25,252.14 C 164.38,252.07 164.54,251.99 164.75,251.92 C 164.96,251.85 165.21,251.78 165.50,251.72 C 165.79,251.65 166.12,251.59 166.50,251.53 C 166.88,251.47 167.29,251.41 167.75,251.36 C 168.21,251.30 168.71,251.25 169.25,251.20 C 169.79,251.15 170.38,251.11 171.00,251.06 C 171.62,251.02 172.34,250.99 173.00,250.94 C 173.66,250.89 174.32,250.83 174.97,250.77 C 175.62,250.70 176.27,250.63 176.91,250.55 C 177.55,250.47 178.18,250.38 178.81,250.28 C 179.44,250.18 180.07,250.08 180.69,249.97 C 181.31,249.86 181.92,249.74 182.53,249.61 C 183.14,249.48 183.74,249.35 184.34,249.20 C 184.94,249.06 185.54,248.91 186.12,248.75 C 186.71,248.59 187.31,248.43 187.88,248.25 C 188.44,248.07 188.99,247.89 189.52,247.69 C 190.04,247.49 190.55,247.28 191.05,247.06 C 191.54,246.84 192.01,246.61 192.47,246.38 C 192.92,246.14 193.36,245.89 193.78,245.62 C 194.20,245.36 194.60,245.09 194.98,244.81 C 195.37,244.53 195.73,244.24 196.08,243.94 C 196.42,243.64 196.75,243.32 197.06,243.00 C 197.37,242.68 197.63,242.34 197.94,242.00 C 198.25,241.66 198.58,241.32 198.92,240.97 C 199.27,240.62 199.63,240.27 200.02,239.91 C 200.40,239.55 200.80,239.18 201.22,238.81 C 201.64,238.44 202.08,238.07 202.53,237.69 C 202.99,237.31 203.46,236.92 203.95,236.53 C 204.45,236.14 204.96,235.74 205.48,235.34 C 206.01,234.94 206.56,234.54 207.12,234.12 C 207.69,233.71 208.28,233.27 208.88,232.88 C 209.47,232.48 210.07,232.12 210.69,231.78 C 211.30,231.44 211.93,231.13 212.56,230.84 C 213.20,230.56 213.84,230.30 214.50,230.06 C 215.16,229.83 215.82,229.62 216.50,229.44 C 217.18,229.26 217.86,229.10 218.56,228.97 C 219.26,228.84 219.97,228.73 220.69,228.66 C 221.41,228.58 222.14,228.53 222.88,228.50 C 223.61,228.47 224.42,228.51 225.12,228.50 C 225.83,228.49 226.48,228.48 227.09,228.47 C 227.70,228.45 228.27,228.43 228.78,228.41 C 229.30,228.38 229.77,228.35 230.19,228.31 C 230.61,228.28 230.98,228.23 231.31,228.19 C 231.64,228.14 231.92,228.09 232.16,228.03 C 232.39,227.97 232.58,227.91 232.72,227.84 C 232.86,227.78 232.95,227.70 233.00,227.62 C 233.05,227.55 233.04,227.46 233.00,227.38 C 232.96,227.29 232.88,227.22 232.75,227.14 C 232.62,227.07 232.46,226.99 232.25,226.92 C 232.04,226.85 231.79,226.78 231.50,226.72 C 231.21,226.65 230.88,226.59 230.50,226.53 C 230.12,226.47 229.71,226.41 229.25,226.36 C 228.79,226.30 228.29,226.25 227.75,226.20 C 227.21,226.15 226.62,226.11 226.00,226.06 C 225.38,226.02 224.63,225.98 224.00,225.94 C 223.37,225.89 222.79,225.85 222.24,225.80 C 221.70,225.76 221.19,225.71 220.73,225.66 C 220.26,225.62 219.84,225.57 219.45,225.52 C 219.07,225.46 218.73,225.41 218.42,225.36 C 218.12,225.31 217.86,225.25 217.63,225.20 C 217.41,225.14 217.23,225.08 217.09,225.02 C 216.94,224.96 216.84,224.90 216.78,224.84 C 216.72,224.78 216.72,224.72 216.72,224.66 C 216.72,224.60 216.73,224.54 216.77,224.48 C 216.80,224.43 216.85,224.38 216.92,224.33 C 216.99,224.28 217.08,224.23 217.19,224.19 C 217.29,224.14 217.42,224.10 217.56,224.06 C 217.71,224.02 217.87,223.99 218.05,223.95 C 218.23,223.92 218.42,223.89 218.64,223.86 C 218.86,223.83 219.09,223.80 219.34,223.78 C 219.60,223.76 219.83,223.79 220.16,223.72 C 220.48,223.65 220.85,223.52 221.27,223.35 C 221.70,223.18 222.17,222.95 222.70,222.68 C 223.22,222.40 223.80,222.08 224.42,221.70 C 225.05,221.33 225.73,220.90 226.45,220.42 C 227.18,219.94 227.96,219.42 228.79,218.84 C 229.62,218.26 230.50,217.63 231.43,216.95 C 232.36,216.26 233.34,215.53 234.38,214.75 C 235.41,213.97 236.59,213.03 237.62,212.25 C 238.66,211.47 239.64,210.74 240.58,210.06 C 241.51,209.39 242.40,208.76 243.23,208.19 C 244.07,207.61 244.86,207.09 245.59,206.62 C 246.33,206.16 247.02,205.74 247.66,205.38 C 248.29,205.01 248.88,204.70 249.42,204.44 C 249.96,204.18 250.45,203.97 250.89,203.81 C 251.33,203.66 251.72,203.55 252.06,203.50 C 252.40,203.45 252.65,203.48 252.94,203.50 C 253.23,203.52 253.51,203.55 253.80,203.61 C 254.08,203.66 254.36,203.74 254.64,203.83 C 254.92,203.92 255.20,204.03 255.47,204.16 C 255.74,204.28 256.01,204.43 256.28,204.59 C 256.55,204.76 256.82,204.94 257.08,205.14 C 257.34,205.34 257.60,205.56 257.86,205.80 C 258.12,206.03 258.37,206.29 258.62,206.56 C 258.88,206.84 259.11,207.19 259.38,207.44 C 259.64,207.68 259.91,207.88 260.20,208.03 C 260.49,208.18 260.79,208.29 261.11,208.34 C 261.42,208.40 261.75,208.41 262.09,208.38 C 262.43,208.34 262.79,208.26 263.16,208.12 C 263.52,207.99 263.90,207.82 264.30,207.59 C 264.69,207.37 265.10,207.10 265.52,206.78 C 265.93,206.46 266.37,206.10 266.81,205.69 C 267.26,205.28 267.67,204.82 268.19,204.31 C 268.71,203.81 269.29,203.26 269.94,202.67 C 270.58,202.08 271.29,201.45 272.06,200.77 C 272.83,200.09 273.67,199.36 274.56,198.59 C 275.46,197.83 276.42,197.01 277.44,196.16 C 278.46,195.30 279.54,194.40 280.69,193.45 C 281.83,192.51 283.04,191.52 284.31,190.48 C 285.58,189.45 286.92,188.37 288.31,187.25 C 289.71,186.13 291.30,184.84 292.69,183.75 C 294.07,182.66 295.39,181.65 296.62,180.72 C 297.86,179.79 299.03,178.93 300.12,178.16 C 301.22,177.38 302.24,176.68 303.19,176.06 C 304.14,175.44 305.01,174.90 305.81,174.44 C 306.61,173.97 307.34,173.59 308.00,173.28 C 308.66,172.97 309.24,172.74 309.75,172.59 C 310.26,172.44 310.70,172.37 311.06,172.38 C 311.43,172.38 311.66,172.54 311.94,172.62 C 312.22,172.71 312.49,172.80 312.74,172.90 C 313.00,172.99 313.24,173.09 313.48,173.20 C 313.71,173.30 313.93,173.40 314.14,173.52 C 314.35,173.63 314.55,173.74 314.73,173.86 C 314.92,173.98 315.10,174.10 315.26,174.23 C 315.42,174.35 315.57,174.48 315.71,174.62 C 315.85,174.75 315.98,174.89 316.09,175.03 C 316.21,175.17 316.38,175.22 316.41,175.47 C 316.43,175.71 316.37,176.06 316.23,176.51 C 316.08,176.95 315.86,177.50 315.55,178.15 C 315.25,178.80 314.86,179.54 314.39,180.39 C 313.92,181.24 313.37,182.19 312.73,183.23 C 312.10,184.28 311.38,185.43 310.59,186.68 C 309.79,187.93 308.91,189.28 307.95,190.73 C 306.98,192.18 305.94,193.73 304.81,195.38 C 303.69,197.02 302.33,198.98 301.19,200.62 C 300.05,202.27 298.97,203.80 297.96,205.23 C 296.95,206.65 296.01,207.97 295.13,209.18 C 294.26,210.39 293.45,211.49 292.70,212.48 C 291.96,213.48 291.28,214.36 290.67,215.14 C 290.06,215.92 289.52,216.59 289.04,217.15 C 288.56,217.71 288.15,218.16 287.80,218.51 C 287.46,218.85 287.18,219.09 286.97,219.22 C 286.76,219.35 286.68,219.25 286.53,219.28 C 286.39,219.31 286.24,219.35 286.09,219.41 C 285.95,219.46 285.80,219.52 285.66,219.59 C 285.51,219.67 285.36,219.75 285.22,219.84 C 285.07,219.94 284.93,220.04 284.78,220.16 C 284.64,220.27 284.49,220.40 284.34,220.53 C 284.20,220.67 284.05,220.81 283.91,220.97 C 283.76,221.12 283.61,221.29 283.47,221.47 C 283.32,221.65 283.15,221.83 283.03,222.03 C 282.91,222.23 282.81,222.44 282.73,222.66 C 282.66,222.88 282.61,223.10 282.58,223.34 C 282.55,223.58 282.54,223.83 282.56,224.09 C 282.58,224.35 282.62,224.62 282.69,224.91 C 282.75,225.19 282.84,225.48 282.95,225.78 C 283.07,226.08 283.20,226.40 283.36,226.72 C 283.52,227.04 283.70,227.38 283.91,227.72 C 284.11,228.06 284.36,228.44 284.59,228.78 C 284.83,229.12 285.08,229.45 285.34,229.76 C 285.59,230.07 285.86,230.37 286.13,230.65 C 286.41,230.93 286.69,231.20 286.98,231.45 C 287.28,231.71 287.58,231.95 287.89,232.17 C 288.20,232.40 288.52,232.61 288.85,232.80 C 289.18,233.00 289.52,233.18 289.87,233.35 C 290.21,233.52 290.57,233.67 290.94,233.81 C 291.30,233.95 291.70,234.08 292.06,234.19 C 292.43,234.30 292.79,234.40 293.14,234.48 C 293.49,234.57 293.84,234.64 294.17,234.70 C 294.51,234.76 294.84,234.81 295.16,234.84 C 295.48,234.88 295.79,234.90 296.09,234.91 C 296.40,234.91 296.70,234.91 296.98,234.89 C 297.27,234.87 297.55,234.84 297.83,234.80 C 298.10,234.75 298.37,234.70 298.62,234.62 C 298.88,234.55 299.12,234.47 299.38,234.38 C 299.62,234.28 299.88,234.18 300.12,234.08 C 300.38,233.97 300.62,233.86 300.88,233.73 C 301.12,233.61 301.38,233.48 301.62,233.34 C 301.88,233.21 302.12,233.06 302.38,232.91 C 302.62,232.75 302.88,232.59 303.12,232.42 C 303.38,232.25 303.62,232.08 303.88,231.89 C 304.12,231.71 304.38,231.51 304.62,231.31 C 304.88,231.11 305.13,230.88 305.38,230.69 C 305.62,230.49 305.87,230.32 306.11,230.16 C 306.35,229.99 306.59,229.85 306.83,229.72 C 307.07,229.59 307.30,229.47 307.53,229.38 C 307.76,229.28 307.99,229.19 308.22,229.12 C 308.45,229.06 308.67,229.01 308.89,228.97 C 309.11,228.93 309.33,228.91 309.55,228.91 C 309.76,228.90 309.98,228.91 310.19,228.94 C 310.40,228.96 310.61,229.02 310.81,229.06 C 311.01,229.11 311.21,229.15 311.40,229.20 C 311.59,229.24 311.77,229.29 311.95,229.34 C 312.12,229.38 312.29,229.43 312.45,229.48 C 312.62,229.54 312.77,229.59 312.92,229.64 C 313.07,229.69 313.21,229.75 313.35,229.80 C 313.49,229.86 313.62,229.92 313.74,229.98 C 313.87,230.04 313.98,230.10 314.09,230.16 C 314.20,230.22 314.30,230.26 314.41,230.34 C 314.51,230.42 314.61,230.52 314.72,230.64 C 314.82,230.76 314.93,230.89 315.03,231.05 C 315.14,231.20 315.24,231.37 315.34,231.56 C 315.45,231.75 315.55,231.96 315.66,232.19 C 315.76,232.41 315.86,232.66 315.97,232.92 C 316.07,233.18 316.18,233.47 316.28,233.77 C 316.39,234.07 316.49,234.38 316.59,234.72 C 316.70,235.05 316.79,235.44 316.91,235.78 C 317.03,236.13 317.17,236.46 317.32,236.79 C 317.48,237.12 317.65,237.43 317.84,237.74 C 318.02,238.05 318.23,238.35 318.45,238.64 C 318.68,238.93 318.92,239.21 319.17,239.48 C 319.43,239.76 319.70,240.02 319.99,240.27 C 320.28,240.53 320.59,240.77 320.91,241.01 C 321.24,241.24 321.58,241.47 321.94,241.69 C 322.30,241.90 322.70,242.12 323.06,242.31 C 323.42,242.51 323.77,242.69 324.11,242.86 C 324.45,243.03 324.77,243.18 325.08,243.33 C 325.39,243.47 325.68,243.60 325.97,243.72 C 326.25,243.84 326.52,243.94 326.78,244.03 C 327.04,244.12 327.28,244.20 327.52,244.27 C 327.75,244.33 327.97,244.38 328.17,244.42 C 328.38,244.46 328.57,244.49 328.75,244.50 C 328.93,244.51 329.07,244.49 329.25,244.50 C 329.43,244.51 329.62,244.54 329.82,244.59 C 330.02,244.63 330.24,244.69 330.46,244.76 C 330.69,244.83 330.92,244.92 331.17,245.02 C 331.42,245.12 331.68,245.23 331.95,245.36 C 332.23,245.49 332.51,245.63 332.80,245.79 C 333.10,245.95 333.41,246.12 333.73,246.30 C 334.05,246.49 334.38,246.69 334.72,246.91 C 335.06,247.12 335.46,247.37 335.78,247.59 C 336.11,247.82 336.40,248.04 336.67,248.25 C 336.94,248.46 337.18,248.67 337.39,248.88 C 337.60,249.08 337.78,249.28 337.94,249.47 C 338.09,249.66 338.22,249.85 338.31,250.03 C 338.41,250.21 338.48,250.39 338.52,250.56 C 338.55,250.73 338.57,250.90 338.55,251.06 C 338.53,251.22 338.48,251.38 338.41,251.53 C 338.33,251.68 338.20,251.83 338.09,251.97 C 337.99,252.11 337.87,252.23 337.76,252.35 C 337.64,252.47 337.52,252.58 337.40,252.68 C 337.27,252.78 337.15,252.87 337.02,252.95 C 336.88,253.04 336.75,253.11 336.61,253.17 C 336.47,253.24 336.33,253.29 336.18,253.34 C 336.03,253.38 335.88,253.42 335.73,253.45 C 335.57,253.47 335.41,253.49 335.25,253.50 C 335.09,253.51 334.92,253.49 334.75,253.50 C 334.58,253.51 334.42,253.53 334.25,253.56 C 334.08,253.59 333.92,253.64 333.75,253.69 C 333.58,253.74 333.42,253.80 333.25,253.88 C 333.08,253.95 332.92,254.03 332.75,254.12 C 332.58,254.22 332.42,254.32 332.25,254.44 C 332.08,254.55 331.92,254.68 331.75,254.81 C 331.58,254.95 331.42,255.09 331.25,255.25 C 331.08,255.41 330.93,255.59 330.75,255.75 C 330.57,255.91 330.38,256.05 330.17,256.19 C 329.97,256.32 329.75,256.45 329.52,256.56 C 329.28,256.68 329.04,256.78 328.78,256.88 C 328.52,256.97 328.25,257.05 327.97,257.12 C 327.68,257.20 327.39,257.26 327.08,257.31 C 326.77,257.36 326.45,257.41 326.11,257.44 C 325.77,257.47 325.42,257.49 325.06,257.50 C 324.70,257.51 324.30,257.49 323.94,257.50 C 323.57,257.51 323.21,257.54 322.87,257.57 C 322.52,257.61 322.18,257.65 321.85,257.71 C 321.52,257.77 321.20,257.84 320.89,257.92 C 320.58,258.00 320.28,258.10 319.98,258.20 C 319.69,258.31 319.41,258.43 319.13,258.55 C 318.86,258.68 318.59,258.82 318.34,258.98 C 318.08,259.13 317.83,259.29 317.59,259.47 C 317.36,259.64 317.12,259.83 316.91,260.03 C 316.69,260.23 316.49,260.43 316.30,260.65 C 316.12,260.86 315.95,261.09 315.79,261.32 C 315.63,261.55 315.49,261.80 315.36,262.05 C 315.23,262.30 315.12,262.56 315.02,262.83 C 314.92,263.10 314.83,263.38 314.76,263.66 C 314.69,263.95 314.63,264.25 314.59,264.55 C 314.54,264.86 314.51,265.18 314.50,265.50 C 314.49,265.82 314.49,266.18 314.50,266.50 C 314.51,266.82 314.53,267.13 314.55,267.43 C 314.58,267.73 314.62,268.01 314.66,268.29 C 314.71,268.56 314.76,268.83 314.83,269.08 C 314.89,269.33 314.96,269.57 315.05,269.80 C 315.13,270.02 315.22,270.24 315.32,270.45 C 315.42,270.65 315.53,270.84 315.65,271.02 C 315.77,271.20 315.89,271.37 316.03,271.53 C 316.17,271.69 316.30,271.83 316.47,271.97 C 316.64,272.11 316.83,272.24 317.04,272.37 C 317.25,272.49 317.49,272.61 317.74,272.73 C 318.00,272.84 318.28,272.95 318.58,273.05 C 318.88,273.15 319.20,273.24 319.55,273.33 C 319.89,273.42 320.26,273.50 320.65,273.57 C 321.04,273.64 321.45,273.71 321.88,273.77 C 322.32,273.83 322.77,273.89 323.25,273.94 C 323.73,273.99 324.28,274.02 324.75,274.06 C 325.22,274.11 325.67,274.16 326.09,274.22 C 326.52,274.28 326.91,274.34 327.28,274.41 C 327.65,274.47 327.99,274.55 328.31,274.62 C 328.63,274.70 328.92,274.79 329.19,274.88 C 329.45,274.96 329.69,275.06 329.91,275.16 C 330.12,275.26 330.31,275.36 330.47,275.47 C 330.63,275.58 330.77,275.69 330.88,275.81 C 330.98,275.93 331.03,276.07 331.12,276.19 C 331.22,276.31 331.32,276.42 331.42,276.53 C 331.53,276.64 331.64,276.74 331.77,276.84 C 331.89,276.94 332.02,277.04 332.16,277.12 C 332.29,277.21 332.44,277.30 332.59,277.38 C 332.75,277.45 332.91,277.53 333.08,277.59 C 333.25,277.66 333.42,277.72 333.61,277.78 C 333.79,277.84 333.99,277.89 334.19,277.94 C 334.39,277.98 334.61,278.02 334.81,278.06 C 335.01,278.11 335.21,278.16 335.40,278.21 C 335.59,278.26 335.77,278.32 335.95,278.38 C 336.12,278.44 336.29,278.51 336.45,278.58 C 336.62,278.65 336.77,278.72 336.92,278.80 C 337.07,278.87 337.21,278.95 337.35,279.04 C 337.49,279.12 337.62,279.21 337.74,279.30 C 337.87,279.40 337.98,279.49 338.09,279.59 C 338.20,279.69 338.32,279.80 338.41,279.91 C 338.50,280.01 338.58,280.11 338.64,280.22 C 338.71,280.32 338.76,280.43 338.80,280.53 C 338.84,280.64 338.86,280.74 338.88,280.84 C 338.89,280.95 338.89,281.05 338.88,281.16 C 338.86,281.26 338.84,281.36 338.80,281.47 C 338.76,281.57 338.71,281.68 338.64,281.78 C 338.58,281.89 338.50,281.99 338.41,282.09 C 338.32,282.20 338.21,282.30 338.09,282.41 C 337.98,282.51 337.86,282.63 337.73,282.74 C 337.60,282.86 337.45,282.98 337.30,283.10 C 337.15,283.23 337.00,283.35 336.83,283.48 C 336.66,283.62 336.48,283.75 336.30,283.89 C 336.11,284.03 335.92,284.17 335.71,284.32 C 335.51,284.47 335.29,284.62 335.07,284.77 C 334.85,284.93 334.62,285.09 334.38,285.25 C 334.13,285.41 333.87,285.59 333.62,285.75 C 333.38,285.91 333.13,286.05 332.89,286.19 C 332.65,286.32 332.41,286.45 332.17,286.56 C 331.93,286.68 331.70,286.78 331.47,286.88 C 331.24,286.97 331.01,287.05 330.78,287.12 C 330.55,287.20 330.33,287.26 330.11,287.31 C 329.89,287.36 329.67,287.41 329.45,287.44 C 329.24,287.47 329.02,287.49 328.81,287.50 C 328.60,287.51 328.40,287.49 328.19,287.50 C 327.97,287.51 327.76,287.53 327.53,287.56 C 327.31,287.59 327.08,287.64 326.84,287.69 C 326.61,287.74 326.37,287.80 326.12,287.88 C 325.88,287.95 325.63,288.03 325.38,288.12 C 325.12,288.22 324.86,288.32 324.59,288.44 C 324.33,288.55 324.06,288.68 323.78,288.81 C 323.51,288.95 323.22,289.09 322.94,289.25 C 322.65,289.41 322.35,289.57 322.06,289.75 C 321.78,289.93 321.49,290.14 321.22,290.36 C 320.94,290.58 320.67,290.82 320.41,291.08 C 320.14,291.34 319.88,291.61 319.62,291.91 C 319.37,292.20 319.12,292.51 318.88,292.84 C 318.63,293.17 318.39,293.52 318.16,293.89 C 317.92,294.26 317.69,294.64 317.47,295.05 C 317.24,295.45 317.03,295.87 316.81,296.31 C 316.60,296.75 316.40,297.26 316.19,297.69 C 315.97,298.12 315.76,298.52 315.53,298.89 C 315.31,299.26 315.08,299.61 314.84,299.92 C 314.61,300.24 314.37,300.52 314.12,300.78 C 313.88,301.04 313.63,301.27 313.38,301.47 C 313.12,301.67 312.86,301.84 312.59,301.98 C 312.33,302.13 312.06,302.24 311.78,302.33 C 311.51,302.41 311.22,302.47 310.94,302.50 C 310.65,302.53 310.35,302.51 310.06,302.50 C 309.77,302.49 309.49,302.46 309.20,302.42 C 308.92,302.38 308.64,302.33 308.36,302.27 C 308.08,302.20 307.80,302.12 307.53,302.03 C 307.26,301.94 306.99,301.84 306.72,301.72 C 306.45,301.60 306.18,301.47 305.92,301.33 C 305.66,301.18 305.40,301.03 305.14,300.86 C 304.88,300.69 304.63,300.51 304.38,300.31 C 304.12,300.12 303.87,299.89 303.62,299.69 C 303.38,299.49 303.13,299.30 302.89,299.12 C 302.65,298.95 302.41,298.78 302.17,298.62 C 301.93,298.47 301.70,298.32 301.47,298.19 C 301.24,298.05 301.01,297.93 300.78,297.81 C 300.55,297.70 300.33,297.59 300.11,297.50 C 299.89,297.41 299.67,297.32 299.45,297.25 C 299.24,297.18 299.02,297.11 298.81,297.06 C 298.60,297.01 298.41,296.97 298.19,296.94 C 297.97,296.91 297.74,296.89 297.50,296.88 C 297.26,296.86 297.01,296.86 296.75,296.88 C 296.49,296.89 296.22,296.91 295.94,296.94 C 295.66,296.97 295.36,297.01 295.06,297.06 C 294.76,297.11 294.45,297.18 294.12,297.25 C 293.80,297.32 293.47,297.41 293.12,297.50 C 292.78,297.59 292.43,297.70 292.06,297.81 C 291.70,297.93 291.30,298.05 290.94,298.19 C 290.57,298.32 290.21,298.47 289.87,298.63 C 289.52,298.79 289.18,298.96 288.85,299.15 C 288.52,299.33 288.20,299.53 287.89,299.73 C 287.58,299.94 287.28,300.16 286.98,300.39 C 286.69,300.62 286.41,300.86 286.13,301.12 C 285.86,301.37 285.59,301.64 285.34,301.91 C 285.08,302.19 284.83,302.48 284.59,302.78 C 284.36,303.08 284.11,303.41 283.91,303.72 C 283.70,304.02 283.51,304.32 283.34,304.61 C 283.18,304.90 283.03,305.18 282.91,305.45 C 282.78,305.73 282.68,305.99 282.59,306.25 C 282.51,306.51 282.45,306.76 282.41,307.00 C 282.36,307.24 282.34,307.48 282.34,307.70 C 282.34,307.93 282.36,308.15 282.41,308.36 C 282.45,308.57 282.51,308.77 282.59,308.97 C 282.68,309.16 282.80,309.35 282.91,309.53 C 283.02,309.71 283.13,309.88 283.25,310.05 C 283.37,310.21 283.49,310.37 283.62,310.52 C 283.76,310.66 283.89,310.80 284.03,310.94 C 284.17,311.07 284.32,311.20 284.47,311.31 C 284.62,311.43 284.78,311.54 284.94,311.64 C 285.10,311.74 285.27,311.84 285.44,311.92 C 285.61,312.01 285.79,312.09 285.97,312.16 C 286.15,312.23 286.28,312.18 286.53,312.34 C 286.78,312.50 287.10,312.76 287.48,313.12 C 287.86,313.47 288.30,313.93 288.80,314.48 C 289.31,315.03 289.88,315.68 290.52,316.42 C 291.15,317.17 291.85,318.01 292.61,318.95 C 293.37,319.89 294.20,320.93 295.09,322.07 C 295.98,323.21 296.93,324.44 297.95,325.77 C 298.96,327.11 300.04,328.54 301.19,330.06 C 302.33,331.59 303.68,333.40 304.81,334.94 C 305.94,336.47 306.99,337.92 307.97,339.28 C 308.94,340.64 309.84,341.91 310.66,343.09 C 311.47,344.28 312.21,345.37 312.88,346.38 C 313.54,347.38 314.12,348.30 314.62,349.12 C 315.13,349.95 315.56,350.69 315.91,351.34 C 316.26,351.99 316.53,352.56 316.72,353.03 C 316.91,353.51 317.03,353.89 317.06,354.19 C 317.10,354.48 316.99,354.61 316.94,354.81 C 316.88,355.02 316.81,355.22 316.73,355.41 C 316.64,355.61 316.54,355.80 316.43,355.99 C 316.32,356.18 316.19,356.37 316.05,356.55 C 315.90,356.73 315.75,356.90 315.58,357.08 C 315.41,357.25 315.22,357.42 315.02,357.59 C 314.82,357.75 314.61,357.91 314.38,358.07 C 314.15,358.23 313.91,358.38 313.66,358.53 C 313.40,358.68 313.13,358.85 312.84,358.97 C 312.56,359.09 312.27,359.18 311.96,359.24 C 311.65,359.31 311.34,359.34 311.01,359.35 C 310.68,359.36 310.34,359.34 309.98,359.30 C 309.63,359.25 309.27,359.18 308.89,359.08 C 308.51,358.98 308.13,358.85 307.73,358.70 C 307.33,358.54 306.92,358.36 306.49,358.15 C 306.07,357.94 305.63,357.70 305.19,357.44 Z" stroke="none" fill="currentColor" opacity="0.11" />
  <path d="M176.99,270.63L182.33,270.63 M182.33,262.09L176.99,262.09 M165.66,266.83L169.40,266.81 M165.66,265.89L169.40,265.91 M176.65,270.56L182.95,270.56 M182.95,262.16L176.65,262.16 M209.70,262.38L186.91,262.33 M209.70,270.34L186.91,270.38 M291.20,240.55L320.93,242.54 M196.79,253.62L188.48,254.08 M196.79,279.10L188.48,278.64 M280.63,268.61L280.63,263.58 M318.43,240.35L297.41,235.85 M318.46,292.34L297.35,296.91 M315.62,295.41L297.58,296.82 M230.74,247.20L239.98,247.49 M256.88,258.57L251.24,258.68 M256.88,274.17L251.24,274.06 M186.21,263.12L186.21,269.60 M277.30,264.21L277.53,270.62 M277.47,262.10L277.53,270.62 M239.33,265.12L234.59,265.12 M239.34,265.49L234.58,265.49 M239.37,265.79L234.60,265.79 M234.66,264.93L239.37,264.93 M272.41,260.31L257.53,260.33 M272.37,260.10L257.48,260.12 M257.56,260.69L272.44,260.68 M256.06,261.07L246.75,261.91 M256.05,260.76L246.74,261.60 M256.01,260.39L246.69,261.24 M255.96,260.19L246.63,261.03 M305.05,262.61L298.28,262.03 M305.04,263.07L298.26,262.55 M305.00,263.34L298.21,262.82 M287.02,262.82L293.74,263.33 M287.07,262.56L293.78,263.07 M287.10,262.23L293.80,262.74 M239.33,267.60L234.59,267.60 M239.34,267.23L234.58,267.23 M239.37,266.93L234.60,266.93 M234.66,267.78L239.37,267.78 M272.37,272.62L257.48,272.60 M257.53,272.39L272.41,272.41 M257.56,272.03L272.44,272.04 M256.06,271.64L246.75,270.80 M256.05,271.96L246.74,271.11 M256.01,272.32L246.69,271.48 M255.96,272.53L246.63,271.69 M305.04,269.65L298.26,270.17 M305.00,269.38L298.21,269.90 M287.02,269.90L293.74,269.39 M287.07,270.16L293.78,269.65 M287.10,270.49L293.80,269.98 M300.79,281.20L307.66,282.04 M301.95,251.48L306.78,251.95 M297.32,258.31L289.26,260.78 M284.96,261.42L276.71,261.42 M302.45,258.03L307.75,258.14 M307.93,252.03L315.05,252.81 M308.17,252.13L315.43,252.96 M304.01,254.46L298.27,254.41 M282.23,245.27L282.23,237.03 M306.78,280.77L301.95,281.24 M297.32,274.41L289.26,271.94 M302.45,274.69L307.75,274.58 M307.93,280.69L315.05,279.91 M308.17,280.59L315.43,279.76 M282.23,287.45L282.23,295.69 M261.56,236.60L287.73,236.60 M261.56,235.81L287.73,235.81 M261.56,235.14L287.73,235.14 M240.40,264.61L244.93,261.59 M245.18,261.73L240.64,264.75 M240.24,264.70L244.77,261.68 M245.37,262.06L240.83,265.08 M294.97,260.47L288.21,260.39 M294.98,260.66L288.22,260.58 M294.97,260.99L288.22,260.92 M288.21,261.22L294.91,261.29 M306.26,260.76L299.37,260.63 M306.28,260.96L299.35,260.85 M306.25,261.29L299.35,261.19 M306.20,261.55L299.37,261.47 M277.72,260.35L283.60,260.46 M277.78,260.56L283.62,260.66 M283.60,260.99L277.79,260.89 M277.66,261.18L283.54,261.30 M240.64,267.97L245.18,270.99 M240.40,268.11L244.93,271.13 M245.37,270.66L240.83,267.64 M240.24,268.02L244.77,271.04 M288.21,272.33L294.97,272.25 M294.98,272.06L288.22,272.14 M294.97,271.73L288.22,271.80 M294.91,271.43L288.21,271.50 M299.37,272.08L306.26,271.96 M306.28,271.76L299.35,271.87 M306.25,271.43L299.35,271.53 M306.20,271.17L299.37,271.25 M277.72,272.37L283.60,272.26 M277.78,272.16L283.62,272.06 M283.60,271.73L277.79,271.83 M277.66,271.54L283.54,271.42 M278.48,285.21L272.82,285.22 M278.48,285.21L284.13,285.21 M272.82,285.57L278.48,285.57 M284.13,285.57L278.48,285.57 M272.82,285.47L278.48,285.46 M284.14,285.46L278.48,285.46 M272.82,247.51L278.48,247.51 M278.48,247.51L284.13,247.51 M278.48,247.15L272.82,247.15 M278.48,247.15L284.14,247.15 M272.82,247.25L278.48,247.25 M284.14,247.26L278.48,247.25 M258.30,261.09L263.82,261.09 M264.18,260.85L258.30,260.87 M258.30,271.10L263.82,271.10 M264.18,270.86L258.30,270.89 M324.41,290.01L329.68,285.26 M324.64,289.80L329.86,285.16 M323.93,289.73L326.70,285.19 M327.07,284.28L328.21,277.42 M315.89,289.60L322.04,289.61 M178.26,279.28L171.15,279.28 M178.33,280.68L173.07,280.67 M177.90,281.07L172.66,281.01 M178.26,253.65L171.15,253.64 M173.07,252.26L178.33,252.25 M177.90,251.86L172.66,251.92 M286.10,243.48L279.45,243.13 M286.11,243.35L279.44,242.99 M286.13,243.25L279.43,242.89 M271.44,241.84L266.29,241.66 M271.46,241.77L266.29,241.59 M286.10,289.24L279.45,289.59 M286.11,289.37L279.44,289.73 M286.13,289.47L279.43,289.83 M271.44,290.88L266.29,291.06 M271.46,290.95L266.29,291.13 M268.68,243.28L277.75,243.39 M268.51,252.75L278.33,252.83 M276.93,243.90L290.82,243.87 M268.68,289.44L277.75,289.33 M268.51,279.97L278.33,279.89 M276.93,288.82L290.82,288.85 M247.57,303.74L242.35,303.82 M287.73,297.73L261.56,297.73 M231.59,307.13L224.48,307.14 M231.66,308.53L226.40,308.52 M231.23,308.92L225.99,308.86 M265.52,292.93L290.38,291.38 M261.56,296.11L288.34,296.11 M261.62,293.61L278.63,293.61 M286.03,293.61L291.33,293.61 M246.60,312.32L246.85,290.85 M231.59,225.59L224.49,225.58 M226.40,224.20L231.66,224.19 M231.24,223.80L225.99,223.86 M249.09,273.53L254.42,273.53 M254.42,273.53L259.76,273.53 M244.20,273.21L249.08,273.21 M264.39,273.21L259.51,273.21 M254.42,259.19L249.09,259.19 M254.42,259.19L259.76,259.19 M244.20,259.51L249.08,259.51 M259.51,259.51L264.39,259.51 M289.12,259.60L282.51,259.53 M289.12,259.39L282.51,259.31 M289.12,273.07L282.51,273.17 M289.12,273.28L282.51,273.40 M265.50,232.50L274.14,232.50 M274.14,231.86L265.50,231.86 M265.50,230.08L274.14,230.08 M274.14,229.99L265.50,229.99 M265.50,300.22L274.14,300.22 M265.50,300.86L274.14,300.86 M265.50,302.64L274.14,302.64 M265.50,302.73L274.14,302.73 M249.39,294.63L256.34,301.09 M288.34,295.15L261.56,295.15 M246.84,290.85L246.65,307.70 M200.00,259.28L199.00,257.53 M200.00,273.44L199.00,275.19 M215.44,261.51L215.34,261.50 M185.16,261.52L184.23,261.48 M215.34,271.22L215.44,271.21 M185.16,271.20L184.23,271.24 M242.28,232.56L236.38,234.89 M242.28,232.56L237.80,231.89 M268.19,235.47L272.37,240.41 M260.99,234.55L265.45,239.75 M235.40,251.45L254.81,251.32 M291.76,253.94L291.54,253.91 M215.11,261.50L219.59,260.32 M236.38,234.89L236.38,247.43 M236.38,247.43L236.73,234.93 M183.99,260.92L184.00,266.36 M242.28,300.16L236.38,297.83 M242.28,300.16L237.80,300.83 M268.19,297.25L272.37,292.31 M260.99,298.17L265.45,292.97 M254.81,281.40L235.40,281.27 M291.76,278.78L291.54,278.81 M219.59,272.40L215.11,271.22 M236.38,285.29L236.38,297.83 M236.38,285.29L236.73,297.79 M183.99,271.80L184.00,266.36 M184.87,260.69L178.32,260.19 M178.32,272.53L184.87,272.03 M184.87,272.03L177.99,272.51 M185.01,261.16L190.29,262.36 M190.29,262.36L180.87,260.48 M185.01,271.56L190.29,270.36 M190.29,270.36L180.87,272.24 M179.78,265.11L179.09,265.11 M184.67,273.46L184.09,271.58 M172.66,261.74L177.29,262.77" stroke="currentColor" stroke-width="0.6" stroke-linecap="round" fill="none" opacity="0.55" clip-path="url(#hull-clip)" filter="url(#glow)" />
  <path d="M 305.19,357.44 C 304.74,357.17 304.34,356.92 303.81,356.56 C 303.29,356.21 302.69,355.78 302.03,355.30 C 301.37,354.81 300.64,354.26 299.84,353.64 C 299.05,353.02 298.18,352.34 297.25,351.59 C 296.32,350.85 295.32,350.03 294.25,349.16 C 293.18,348.28 292.05,347.34 290.84,346.33 C 289.64,345.32 288.37,344.25 287.03,343.11 C 285.69,341.97 284.29,340.77 282.81,339.50 C 281.34,338.23 279.65,336.73 278.19,335.50 C 276.73,334.27 275.35,333.14 274.06,332.11 C 272.77,331.08 271.56,330.15 270.44,329.33 C 269.31,328.50 268.27,327.78 267.31,327.16 C 266.35,326.53 265.48,326.01 264.69,325.59 C 263.90,325.17 263.19,324.86 262.56,324.64 C 261.94,324.42 261.40,324.31 260.94,324.30 C 260.48,324.28 260.10,324.37 259.81,324.56 C 259.52,324.75 259.40,325.16 259.19,325.44 C 258.97,325.71 258.76,325.97 258.53,326.20 C 258.31,326.44 258.08,326.66 257.84,326.86 C 257.61,327.06 257.37,327.24 257.12,327.41 C 256.88,327.57 256.63,327.72 256.38,327.84 C 256.12,327.97 255.86,328.08 255.59,328.17 C 255.33,328.26 255.06,328.34 254.78,328.39 C 254.51,328.45 254.22,328.48 253.94,328.50 C 253.65,328.52 253.41,328.55 253.06,328.50 C 252.72,328.45 252.32,328.34 251.88,328.19 C 251.43,328.03 250.93,327.82 250.38,327.56 C 249.82,327.30 249.22,326.99 248.56,326.62 C 247.91,326.26 247.20,325.84 246.44,325.38 C 245.68,324.91 244.86,324.39 244.00,323.81 C 243.14,323.24 242.22,322.61 241.25,321.94 C 240.28,321.26 239.26,320.53 238.19,319.75 C 237.11,318.97 235.88,318.03 234.81,317.25 C 233.74,316.47 232.73,315.73 231.77,315.05 C 230.80,314.36 229.90,313.73 229.05,313.14 C 228.20,312.55 227.40,312.02 226.66,311.53 C 225.91,311.04 225.23,310.61 224.59,310.22 C 223.96,309.83 223.38,309.49 222.86,309.20 C 222.34,308.91 221.87,308.67 221.45,308.48 C 221.04,308.29 220.68,308.15 220.38,308.06 C 220.07,307.97 219.83,307.98 219.62,307.94 C 219.42,307.90 219.25,307.85 219.12,307.81 C 219.00,307.77 218.92,307.73 218.88,307.69 C 218.83,307.65 218.83,307.60 218.88,307.56 C 218.92,307.52 219.00,307.48 219.12,307.44 C 219.25,307.40 219.42,307.35 219.62,307.31 C 219.83,307.27 220.08,307.23 220.38,307.19 C 220.67,307.15 221.00,307.10 221.38,307.06 C 221.75,307.02 222.22,306.98 222.62,306.94 C 223.03,306.89 223.43,306.85 223.81,306.80 C 224.20,306.75 224.57,306.70 224.94,306.64 C 225.30,306.59 225.66,306.53 226.00,306.47 C 226.34,306.41 226.68,306.35 227.00,306.28 C 227.32,306.22 227.64,306.15 227.94,306.08 C 228.24,306.01 228.53,305.93 228.81,305.86 C 229.09,305.78 229.36,305.71 229.62,305.62 C 229.89,305.54 230.14,305.46 230.38,305.38 C 230.61,305.29 230.82,305.21 231.02,305.12 C 231.21,305.04 231.39,304.96 231.55,304.88 C 231.71,304.79 231.85,304.71 231.97,304.62 C 232.09,304.54 232.20,304.46 232.28,304.38 C 232.37,304.29 232.43,304.21 232.48,304.12 C 232.53,304.04 232.57,303.96 232.58,303.88 C 232.59,303.79 232.59,303.71 232.56,303.62 C 232.54,303.54 232.52,303.45 232.44,303.38 C 232.35,303.30 232.22,303.22 232.05,303.16 C 231.87,303.09 231.65,303.03 231.39,302.97 C 231.13,302.91 230.82,302.86 230.47,302.81 C 230.12,302.77 229.72,302.72 229.28,302.69 C 228.84,302.65 228.36,302.62 227.83,302.59 C 227.30,302.57 226.73,302.55 226.11,302.53 C 225.49,302.52 224.83,302.51 224.12,302.50 C 223.42,302.49 222.62,302.53 221.88,302.50 C 221.13,302.47 220.40,302.41 219.67,302.33 C 218.95,302.24 218.23,302.13 217.52,301.98 C 216.80,301.84 216.10,301.67 215.41,301.47 C 214.71,301.27 214.02,301.04 213.34,300.78 C 212.66,300.52 211.99,300.24 211.33,299.92 C 210.66,299.61 210.01,299.26 209.36,298.89 C 208.71,298.52 208.07,298.12 207.44,297.69 C 206.80,297.26 206.15,296.75 205.56,296.31 C 204.97,295.88 204.41,295.46 203.88,295.07 C 203.36,294.68 202.86,294.31 202.40,293.96 C 201.94,293.61 201.51,293.29 201.11,292.98 C 200.71,292.68 200.35,292.40 200.02,292.14 C 199.68,291.88 199.38,291.64 199.12,291.43 C 198.85,291.21 198.62,291.02 198.41,290.85 C 198.21,290.68 198.04,290.53 197.91,290.41 C 197.77,290.28 197.69,290.20 197.59,290.09 C 197.50,289.99 197.41,289.89 197.33,289.78 C 197.25,289.68 197.17,289.57 197.11,289.47 C 197.04,289.36 196.99,289.26 196.94,289.16 C 196.89,289.05 196.85,288.95 196.81,288.84 C 196.78,288.74 196.75,288.64 196.73,288.53 C 196.72,288.43 196.71,288.32 196.70,288.22 C 196.70,288.11 196.71,288.01 196.72,287.91 C 196.73,287.80 196.81,287.70 196.78,287.59 C 196.76,287.48 196.69,287.37 196.57,287.24 C 196.45,287.12 196.29,286.99 196.09,286.85 C 195.88,286.71 195.63,286.57 195.33,286.42 C 195.03,286.27 194.69,286.12 194.30,285.95 C 193.91,285.79 193.47,285.62 192.99,285.45 C 192.51,285.27 191.99,285.09 191.41,284.90 C 190.84,284.71 190.23,284.51 189.56,284.31 C 188.90,284.11 188.14,283.89 187.44,283.69 C 186.73,283.49 186.03,283.30 185.33,283.12 C 184.63,282.95 183.93,282.78 183.23,282.62 C 182.54,282.47 181.85,282.32 181.16,282.19 C 180.47,282.05 179.78,281.93 179.09,281.81 C 178.41,281.70 177.73,281.59 177.05,281.50 C 176.37,281.41 175.69,281.32 175.02,281.25 C 174.34,281.18 173.67,281.11 173.00,281.06 C 172.33,281.01 171.63,280.98 171.00,280.94 C 170.37,280.89 169.78,280.85 169.23,280.80 C 168.68,280.75 168.17,280.70 167.70,280.64 C 167.23,280.59 166.80,280.53 166.41,280.47 C 166.01,280.41 165.66,280.35 165.34,280.28 C 165.03,280.22 164.75,280.15 164.52,280.08 C 164.28,280.01 164.08,279.93 163.92,279.86 C 163.76,279.78 163.64,279.71 163.56,279.62 C 163.48,279.54 163.45,279.45 163.44,279.38 C 163.43,279.30 163.45,279.22 163.50,279.16 C 163.55,279.09 163.64,279.03 163.75,278.97 C 163.86,278.91 164.01,278.86 164.19,278.81 C 164.36,278.77 164.57,278.72 164.81,278.69 C 165.05,278.65 165.32,278.62 165.62,278.59 C 165.93,278.57 166.26,278.55 166.62,278.53 C 166.99,278.52 167.39,278.51 167.81,278.50 C 168.24,278.49 168.74,278.51 169.19,278.50 C 169.63,278.49 170.07,278.48 170.49,278.46 C 170.92,278.44 171.33,278.42 171.73,278.38 C 172.13,278.35 172.51,278.31 172.89,278.27 C 173.27,278.22 173.63,278.17 173.98,278.11 C 174.34,278.05 174.68,277.99 175.01,277.91 C 175.34,277.84 175.65,277.76 175.96,277.68 C 176.27,277.60 176.56,277.50 176.84,277.41 C 177.13,277.31 177.43,277.19 177.66,277.09 C 177.88,276.99 178.07,276.90 178.20,276.81 C 178.34,276.72 178.43,276.64 178.48,276.56 C 178.53,276.48 178.54,276.41 178.50,276.34 C 178.46,276.28 178.38,276.21 178.25,276.16 C 178.12,276.10 177.95,276.05 177.73,276.00 C 177.52,275.95 177.26,275.91 176.95,275.88 C 176.65,275.84 176.30,275.81 175.91,275.78 C 175.51,275.76 175.04,275.76 174.59,275.72 C 174.15,275.68 173.69,275.62 173.22,275.55 C 172.75,275.47 172.27,275.38 171.78,275.27 C 171.29,275.15 170.79,275.02 170.28,274.88 C 169.77,274.73 169.25,274.56 168.72,274.38 C 168.19,274.19 167.65,273.99 167.09,273.77 C 166.54,273.54 165.98,273.30 165.41,273.05 C 164.83,272.79 164.25,272.51 163.66,272.22 C 163.06,271.92 162.41,271.58 161.84,271.28 C 161.27,270.98 160.74,270.68 160.24,270.40 C 159.74,270.11 159.28,269.84 158.85,269.57 C 158.42,269.30 158.03,269.05 157.67,268.80 C 157.31,268.55 156.99,268.31 156.70,268.08 C 156.42,267.85 156.16,267.63 155.95,267.41 C 155.73,267.20 155.55,267.00 155.40,266.80 C 155.25,266.61 155.14,266.43 155.06,266.25 C 154.99,266.07 154.95,265.92 154.94,265.75 C 154.92,265.58 154.93,265.40 154.96,265.23 C 154.99,265.05 155.05,264.87 155.13,264.68 C 155.21,264.49 155.32,264.30 155.45,264.11 C 155.58,263.92 155.74,263.72 155.92,263.52 C 156.10,263.31 156.31,263.11 156.54,262.90 C 156.77,262.69 157.02,262.48 157.30,262.26 C 157.58,262.04 157.89,261.82 158.22,261.59 C 158.55,261.37 158.90,261.13 159.28,260.91 C 159.66,260.68 160.06,260.47 160.48,260.27 C 160.91,260.06 161.36,259.86 161.83,259.67 C 162.30,259.48 162.79,259.30 163.31,259.12 C 163.83,258.95 164.37,258.78 164.94,258.62 C 165.50,258.47 166.09,258.32 166.70,258.17 C 167.32,258.03 167.95,257.89 168.61,257.77 C 169.27,257.64 169.95,257.52 170.66,257.41 C 171.36,257.29 172.18,257.20 172.84,257.09 C 173.51,256.99 174.11,256.89 174.66,256.78 C 175.20,256.68 175.68,256.57 176.09,256.47 C 176.51,256.36 176.86,256.26 177.16,256.16 C 177.45,256.05 177.68,255.95 177.84,255.84 C 178.01,255.74 178.11,255.64 178.16,255.53 C 178.20,255.43 178.18,255.32 178.09,255.22 C 178.01,255.11 177.86,255.01 177.66,254.91 C 177.45,254.80 177.12,254.69 176.84,254.59 C 176.56,254.50 176.27,254.40 175.98,254.32 C 175.68,254.24 175.37,254.16 175.05,254.09 C 174.74,254.01 174.41,253.95 174.08,253.89 C 173.74,253.83 173.40,253.78 173.05,253.73 C 172.69,253.69 172.33,253.65 171.96,253.62 C 171.59,253.58 171.21,253.56 170.82,253.54 C 170.43,253.52 170.03,253.51 169.62,253.50 C 169.22,253.49 168.77,253.51 168.38,253.50 C 167.98,253.49 167.62,253.48 167.28,253.47 C 166.94,253.45 166.63,253.43 166.34,253.41 C 166.06,253.38 165.80,253.35 165.56,253.31 C 165.33,253.28 165.12,253.23 164.94,253.19 C 164.76,253.14 164.60,253.09 164.47,253.03 C 164.34,252.97 164.23,252.91 164.16,252.84 C 164.08,252.78 164.03,252.70 164.00,252.62 C 163.97,252.55 163.96,252.46 164.00,252.38 C 164.04,252.29 164.12,252.22 164.25,252.14 C 164.38,252.07 164.54,251.99 164.75,251.92 C 164.96,251.85 165.21,251.78 165.50,251.72 C 165.79,251.65 166.12,251.59 166.50,251.53 C 166.88,251.47 167.29,251.41 167.75,251.36 C 168.21,251.30 168.71,251.25 169.25,251.20 C 169.79,251.15 170.38,251.11 171.00,251.06 C 171.62,251.02 172.34,250.99 173.00,250.94 C 173.66,250.89 174.32,250.83 174.97,250.77 C 175.62,250.70 176.27,250.63 176.91,250.55 C 177.55,250.47 178.18,250.38 178.81,250.28 C 179.44,250.18 180.07,250.08 180.69,249.97 C 181.31,249.86 181.92,249.74 182.53,249.61 C 183.14,249.48 183.74,249.35 184.34,249.20 C 184.94,249.06 185.54,248.91 186.12,248.75 C 186.71,248.59 187.31,248.43 187.88,248.25 C 188.44,248.07 188.99,247.89 189.52,247.69 C 190.04,247.49 190.55,247.28 191.05,247.06 C 191.54,246.84 192.01,246.61 192.47,246.38 C 192.92,246.14 193.36,245.89 193.78,245.62 C 194.20,245.36 194.60,245.09 194.98,244.81 C 195.37,244.53 195.73,244.24 196.08,243.94 C 196.42,243.64 196.75,243.32 197.06,243.00 C 197.37,242.68 197.63,242.34 197.94,242.00 C 198.25,241.66 198.58,241.32 198.92,240.97 C 199.27,240.62 199.63,240.27 200.02,239.91 C 200.40,239.55 200.80,239.18 201.22,238.81 C 201.64,238.44 202.08,238.07 202.53,237.69 C 202.99,237.31 203.46,236.92 203.95,236.53 C 204.45,236.14 204.96,235.74 205.48,235.34 C 206.01,234.94 206.56,234.54 207.12,234.12 C 207.69,233.71 208.28,233.27 208.88,232.88 C 209.47,232.48 210.07,232.12 210.69,231.78 C 211.30,231.44 211.93,231.13 212.56,230.84 C 213.20,230.56 213.84,230.30 214.50,230.06 C 215.16,229.83 215.82,229.62 216.50,229.44 C 217.18,229.26 217.86,229.10 218.56,228.97 C 219.26,228.84 219.97,228.73 220.69,228.66 C 221.41,228.58 222.14,228.53 222.88,228.50 C 223.61,228.47 224.42,228.51 225.12,228.50 C 225.83,228.49 226.48,228.48 227.09,228.47 C 227.70,228.45 228.27,228.43 228.78,228.41 C 229.30,228.38 229.77,228.35 230.19,228.31 C 230.61,228.28 230.98,228.23 231.31,228.19 C 231.64,228.14 231.92,228.09 232.16,228.03 C 232.39,227.97 232.58,227.91 232.72,227.84 C 232.86,227.78 232.95,227.70 233.00,227.62 C 233.05,227.55 233.04,227.46 233.00,227.38 C 232.96,227.29 232.88,227.22 232.75,227.14 C 232.62,227.07 232.46,226.99 232.25,226.92 C 232.04,226.85 231.79,226.78 231.50,226.72 C 231.21,226.65 230.88,226.59 230.50,226.53 C 230.12,226.47 229.71,226.41 229.25,226.36 C 228.79,226.30 228.29,226.25 227.75,226.20 C 227.21,226.15 226.62,226.11 226.00,226.06 C 225.38,226.02 224.63,225.98 224.00,225.94 C 223.37,225.89 222.79,225.85 222.24,225.80 C 221.70,225.76 221.19,225.71 220.73,225.66 C 220.26,225.62 219.84,225.57 219.45,225.52 C 219.07,225.46 218.73,225.41 218.42,225.36 C 218.12,225.31 217.86,225.25 217.63,225.20 C 217.41,225.14 217.23,225.08 217.09,225.02 C 216.94,224.96 216.84,224.90 216.78,224.84 C 216.72,224.78 216.72,224.72 216.72,224.66 C 216.72,224.60 216.73,224.54 216.77,224.48 C 216.80,224.43 216.85,224.38 216.92,224.33 C 216.99,224.28 217.08,224.23 217.19,224.19 C 217.29,224.14 217.42,224.10 217.56,224.06 C 217.71,224.02 217.87,223.99 218.05,223.95 C 218.23,223.92 218.42,223.89 218.64,223.86 C 218.86,223.83 219.09,223.80 219.34,223.78 C 219.60,223.76 219.83,223.79 220.16,223.72 C 220.48,223.65 220.85,223.52 221.27,223.35 C 221.70,223.18 222.17,222.95 222.70,222.68 C 223.22,222.40 223.80,222.08 224.42,221.70 C 225.05,221.33 225.73,220.90 226.45,220.42 C 227.18,219.94 227.96,219.42 228.79,218.84 C 229.62,218.26 230.50,217.63 231.43,216.95 C 232.36,216.26 233.34,215.53 234.38,214.75 C 235.41,213.97 236.59,213.03 237.62,212.25 C 238.66,211.47 239.64,210.74 240.58,210.06 C 241.51,209.39 242.40,208.76 243.23,208.19 C 244.07,207.61 244.86,207.09 245.59,206.62 C 246.33,206.16 247.02,205.74 247.66,205.38 C 248.29,205.01 248.88,204.70 249.42,204.44 C 249.96,204.18 250.45,203.97 250.89,203.81 C 251.33,203.66 251.72,203.55 252.06,203.50 C 252.40,203.45 252.65,203.48 252.94,203.50 C 253.23,203.52 253.51,203.55 253.80,203.61 C 254.08,203.66 254.36,203.74 254.64,203.83 C 254.92,203.92 255.20,204.03 255.47,204.16 C 255.74,204.28 256.01,204.43 256.28,204.59 C 256.55,204.76 256.82,204.94 257.08,205.14 C 257.34,205.34 257.60,205.56 257.86,205.80 C 258.12,206.03 258.37,206.29 258.62,206.56 C 258.88,206.84 259.11,207.19 259.38,207.44 C 259.64,207.68 259.91,207.88 260.20,208.03 C 260.49,208.18 260.79,208.29 261.11,208.34 C 261.42,208.40 261.75,208.41 262.09,208.38 C 262.43,208.34 262.79,208.26 263.16,208.12 C 263.52,207.99 263.90,207.82 264.30,207.59 C 264.69,207.37 265.10,207.10 265.52,206.78 C 265.93,206.46 266.37,206.10 266.81,205.69 C 267.26,205.28 267.67,204.82 268.19,204.31 C 268.71,203.81 269.29,203.26 269.94,202.67 C 270.58,202.08 271.29,201.45 272.06,200.77 C 272.83,200.09 273.67,199.36 274.56,198.59 C 275.46,197.83 276.42,197.01 277.44,196.16 C 278.46,195.30 279.54,194.40 280.69,193.45 C 281.83,192.51 283.04,191.52 284.31,190.48 C 285.58,189.45 286.92,188.37 288.31,187.25 C 289.71,186.13 291.30,184.84 292.69,183.75 C 294.07,182.66 295.39,181.65 296.62,180.72 C 297.86,179.79 299.03,178.93 300.12,178.16 C 301.22,177.38 302.24,176.68 303.19,176.06 C 304.14,175.44 305.01,174.90 305.81,174.44 C 306.61,173.97 307.34,173.59 308.00,173.28 C 308.66,172.97 309.24,172.74 309.75,172.59 C 310.26,172.44 310.70,172.37 311.06,172.38 C 311.43,172.38 311.66,172.54 311.94,172.62 C 312.22,172.71 312.49,172.80 312.74,172.90 C 313.00,172.99 313.24,173.09 313.48,173.20 C 313.71,173.30 313.93,173.40 314.14,173.52 C 314.35,173.63 314.55,173.74 314.73,173.86 C 314.92,173.98 315.10,174.10 315.26,174.23 C 315.42,174.35 315.57,174.48 315.71,174.62 C 315.85,174.75 315.98,174.89 316.09,175.03 C 316.21,175.17 316.38,175.22 316.41,175.47 C 316.43,175.71 316.37,176.06 316.23,176.51 C 316.08,176.95 315.86,177.50 315.55,178.15 C 315.25,178.80 314.86,179.54 314.39,180.39 C 313.92,181.24 313.37,182.19 312.73,183.23 C 312.10,184.28 311.38,185.43 310.59,186.68 C 309.79,187.93 308.91,189.28 307.95,190.73 C 306.98,192.18 305.94,193.73 304.81,195.38 C 303.69,197.02 302.33,198.98 301.19,200.62 C 300.05,202.27 298.97,203.80 297.96,205.23 C 296.95,206.65 296.01,207.97 295.13,209.18 C 294.26,210.39 293.45,211.49 292.70,212.48 C 291.96,213.48 291.28,214.36 290.67,215.14 C 290.06,215.92 289.52,216.59 289.04,217.15 C 288.56,217.71 288.15,218.16 287.80,218.51 C 287.46,218.85 287.18,219.09 286.97,219.22 C 286.76,219.35 286.68,219.25 286.53,219.28 C 286.39,219.31 286.24,219.35 286.09,219.41 C 285.95,219.46 285.80,219.52 285.66,219.59 C 285.51,219.67 285.36,219.75 285.22,219.84 C 285.07,219.94 284.93,220.04 284.78,220.16 C 284.64,220.27 284.49,220.40 284.34,220.53 C 284.20,220.67 284.05,220.81 283.91,220.97 C 283.76,221.12 283.61,221.29 283.47,221.47 C 283.32,221.65 283.15,221.83 283.03,222.03 C 282.91,222.23 282.81,222.44 282.73,222.66 C 282.66,222.88 282.61,223.10 282.58,223.34 C 282.55,223.58 282.54,223.83 282.56,224.09 C 282.58,224.35 282.62,224.62 282.69,224.91 C 282.75,225.19 282.84,225.48 282.95,225.78 C 283.07,226.08 283.20,226.40 283.36,226.72 C 283.52,227.04 283.70,227.38 283.91,227.72 C 284.11,228.06 284.36,228.44 284.59,228.78 C 284.83,229.12 285.08,229.45 285.34,229.76 C 285.59,230.07 285.86,230.37 286.13,230.65 C 286.41,230.93 286.69,231.20 286.98,231.45 C 287.28,231.71 287.58,231.95 287.89,232.17 C 288.20,232.40 288.52,232.61 288.85,232.80 C 289.18,233.00 289.52,233.18 289.87,233.35 C 290.21,233.52 290.57,233.67 290.94,233.81 C 291.30,233.95 291.70,234.08 292.06,234.19 C 292.43,234.30 292.79,234.40 293.14,234.48 C 293.49,234.57 293.84,234.64 294.17,234.70 C 294.51,234.76 294.84,234.81 295.16,234.84 C 295.48,234.88 295.79,234.90 296.09,234.91 C 296.40,234.91 296.70,234.91 296.98,234.89 C 297.27,234.87 297.55,234.84 297.83,234.80 C 298.10,234.75 298.37,234.70 298.62,234.62 C 298.88,234.55 299.12,234.47 299.38,234.38 C 299.62,234.28 299.88,234.18 300.12,234.08 C 300.38,233.97 300.62,233.86 300.88,233.73 C 301.12,233.61 301.38,233.48 301.62,233.34 C 301.88,233.21 302.12,233.06 302.38,232.91 C 302.62,232.75 302.88,232.59 303.12,232.42 C 303.38,232.25 303.62,232.08 303.88,231.89 C 304.12,231.71 304.38,231.51 304.62,231.31 C 304.88,231.11 305.13,230.88 305.38,230.69 C 305.62,230.49 305.87,230.32 306.11,230.16 C 306.35,229.99 306.59,229.85 306.83,229.72 C 307.07,229.59 307.30,229.47 307.53,229.38 C 307.76,229.28 307.99,229.19 308.22,229.12 C 308.45,229.06 308.67,229.01 308.89,228.97 C 309.11,228.93 309.33,228.91 309.55,228.91 C 309.76,228.90 309.98,228.91 310.19,228.94 C 310.40,228.96 310.61,229.02 310.81,229.06 C 311.01,229.11 311.21,229.15 311.40,229.20 C 311.59,229.24 311.77,229.29 311.95,229.34 C 312.12,229.38 312.29,229.43 312.45,229.48 C 312.62,229.54 312.77,229.59 312.92,229.64 C 313.07,229.69 313.21,229.75 313.35,229.80 C 313.49,229.86 313.62,229.92 313.74,229.98 C 313.87,230.04 313.98,230.10 314.09,230.16 C 314.20,230.22 314.30,230.26 314.41,230.34 C 314.51,230.42 314.61,230.52 314.72,230.64 C 314.82,230.76 314.93,230.89 315.03,231.05 C 315.14,231.20 315.24,231.37 315.34,231.56 C 315.45,231.75 315.55,231.96 315.66,232.19 C 315.76,232.41 315.86,232.66 315.97,232.92 C 316.07,233.18 316.18,233.47 316.28,233.77 C 316.39,234.07 316.49,234.38 316.59,234.72 C 316.70,235.05 316.79,235.44 316.91,235.78 C 317.03,236.13 317.17,236.46 317.32,236.79 C 317.48,237.12 317.65,237.43 317.84,237.74 C 318.02,238.05 318.23,238.35 318.45,238.64 C 318.68,238.93 318.92,239.21 319.17,239.48 C 319.43,239.76 319.70,240.02 319.99,240.27 C 320.28,240.53 320.59,240.77 320.91,241.01 C 321.24,241.24 321.58,241.47 321.94,241.69 C 322.30,241.90 322.70,242.12 323.06,242.31 C 323.42,242.51 323.77,242.69 324.11,242.86 C 324.45,243.03 324.77,243.18 325.08,243.33 C 325.39,243.47 325.68,243.60 325.97,243.72 C 326.25,243.84 326.52,243.94 326.78,244.03 C 327.04,244.12 327.28,244.20 327.52,244.27 C 327.75,244.33 327.97,244.38 328.17,244.42 C 328.38,244.46 328.57,244.49 328.75,244.50 C 328.93,244.51 329.07,244.49 329.25,244.50 C 329.43,244.51 329.62,244.54 329.82,244.59 C 330.02,244.63 330.24,244.69 330.46,244.76 C 330.69,244.83 330.92,244.92 331.17,245.02 C 331.42,245.12 331.68,245.23 331.95,245.36 C 332.23,245.49 332.51,245.63 332.80,245.79 C 333.10,245.95 333.41,246.12 333.73,246.30 C 334.05,246.49 334.38,246.69 334.72,246.91 C 335.06,247.12 335.46,247.37 335.78,247.59 C 336.11,247.82 336.40,248.04 336.67,248.25 C 336.94,248.46 337.18,248.67 337.39,248.88 C 337.60,249.08 337.78,249.28 337.94,249.47 C 338.09,249.66 338.22,249.85 338.31,250.03 C 338.41,250.21 338.48,250.39 338.52,250.56 C 338.55,250.73 338.57,250.90 338.55,251.06 C 338.53,251.22 338.48,251.38 338.41,251.53 C 338.33,251.68 338.20,251.83 338.09,251.97 C 337.99,252.11 337.87,252.23 337.76,252.35 C 337.64,252.47 337.52,252.58 337.40,252.68 C 337.27,252.78 337.15,252.87 337.02,252.95 C 336.88,253.04 336.75,253.11 336.61,253.17 C 336.47,253.24 336.33,253.29 336.18,253.34 C 336.03,253.38 335.88,253.42 335.73,253.45 C 335.57,253.47 335.41,253.49 335.25,253.50 C 335.09,253.51 334.92,253.49 334.75,253.50 C 334.58,253.51 334.42,253.53 334.25,253.56 C 334.08,253.59 333.92,253.64 333.75,253.69 C 333.58,253.74 333.42,253.80 333.25,253.88 C 333.08,253.95 332.92,254.03 332.75,254.12 C 332.58,254.22 332.42,254.32 332.25,254.44 C 332.08,254.55 331.92,254.68 331.75,254.81 C 331.58,254.95 331.42,255.09 331.25,255.25 C 331.08,255.41 330.93,255.59 330.75,255.75 C 330.57,255.91 330.38,256.05 330.17,256.19 C 329.97,256.32 329.75,256.45 329.52,256.56 C 329.28,256.68 329.04,256.78 328.78,256.88 C 328.52,256.97 328.25,257.05 327.97,257.12 C 327.68,257.20 327.39,257.26 327.08,257.31 C 326.77,257.36 326.45,257.41 326.11,257.44 C 325.77,257.47 325.42,257.49 325.06,257.50 C 324.70,257.51 324.30,257.49 323.94,257.50 C 323.57,257.51 323.21,257.54 322.87,257.57 C 322.52,257.61 322.18,257.65 321.85,257.71 C 321.52,257.77 321.20,257.84 320.89,257.92 C 320.58,258.00 320.28,258.10 319.98,258.20 C 319.69,258.31 319.41,258.43 319.13,258.55 C 318.86,258.68 318.59,258.82 318.34,258.98 C 318.08,259.13 317.83,259.29 317.59,259.47 C 317.36,259.64 317.12,259.83 316.91,260.03 C 316.69,260.23 316.49,260.43 316.30,260.65 C 316.12,260.86 315.95,261.09 315.79,261.32 C 315.63,261.55 315.49,261.80 315.36,262.05 C 315.23,262.30 315.12,262.56 315.02,262.83 C 314.92,263.10 314.83,263.38 314.76,263.66 C 314.69,263.95 314.63,264.25 314.59,264.55 C 314.54,264.86 314.51,265.18 314.50,265.50 C 314.49,265.82 314.49,266.18 314.50,266.50 C 314.51,266.82 314.53,267.13 314.55,267.43 C 314.58,267.73 314.62,268.01 314.66,268.29 C 314.71,268.56 314.76,268.83 314.83,269.08 C 314.89,269.33 314.96,269.57 315.05,269.80 C 315.13,270.02 315.22,270.24 315.32,270.45 C 315.42,270.65 315.53,270.84 315.65,271.02 C 315.77,271.20 315.89,271.37 316.03,271.53 C 316.17,271.69 316.30,271.83 316.47,271.97 C 316.64,272.11 316.83,272.24 317.04,272.37 C 317.25,272.49 317.49,272.61 317.74,272.73 C 318.00,272.84 318.28,272.95 318.58,273.05 C 318.88,273.15 319.20,273.24 319.55,273.33 C 319.89,273.42 320.26,273.50 320.65,273.57 C 321.04,273.64 321.45,273.71 321.88,273.77 C 322.32,273.83 322.77,273.89 323.25,273.94 C 323.73,273.99 324.28,274.02 324.75,274.06 C 325.22,274.11 325.67,274.16 326.09,274.22 C 326.52,274.28 326.91,274.34 327.28,274.41 C 327.65,274.47 327.99,274.55 328.31,274.62 C 328.63,274.70 328.92,274.79 329.19,274.88 C 329.45,274.96 329.69,275.06 329.91,275.16 C 330.12,275.26 330.31,275.36 330.47,275.47 C 330.63,275.58 330.77,275.69 330.88,275.81 C 330.98,275.93 331.03,276.07 331.12,276.19 C 331.22,276.31 331.32,276.42 331.42,276.53 C 331.53,276.64 331.64,276.74 331.77,276.84 C 331.89,276.94 332.02,277.04 332.16,277.12 C 332.29,277.21 332.44,277.30 332.59,277.38 C 332.75,277.45 332.91,277.53 333.08,277.59 C 333.25,277.66 333.42,277.72 333.61,277.78 C 333.79,277.84 333.99,277.89 334.19,277.94 C 334.39,277.98 334.61,278.02 334.81,278.06 C 335.01,278.11 335.21,278.16 335.40,278.21 C 335.59,278.26 335.77,278.32 335.95,278.38 C 336.12,278.44 336.29,278.51 336.45,278.58 C 336.62,278.65 336.77,278.72 336.92,278.80 C 337.07,278.87 337.21,278.95 337.35,279.04 C 337.49,279.12 337.62,279.21 337.74,279.30 C 337.87,279.40 337.98,279.49 338.09,279.59 C 338.20,279.69 338.32,279.80 338.41,279.91 C 338.50,280.01 338.58,280.11 338.64,280.22 C 338.71,280.32 338.76,280.43 338.80,280.53 C 338.84,280.64 338.86,280.74 338.88,280.84 C 338.89,280.95 338.89,281.05 338.88,281.16 C 338.86,281.26 338.84,281.36 338.80,281.47 C 338.76,281.57 338.71,281.68 338.64,281.78 C 338.58,281.89 338.50,281.99 338.41,282.09 C 338.32,282.20 338.21,282.30 338.09,282.41 C 337.98,282.51 337.86,282.63 337.73,282.74 C 337.60,282.86 337.45,282.98 337.30,283.10 C 337.15,283.23 337.00,283.35 336.83,283.48 C 336.66,283.62 336.48,283.75 336.30,283.89 C 336.11,284.03 335.92,284.17 335.71,284.32 C 335.51,284.47 335.29,284.62 335.07,284.77 C 334.85,284.93 334.62,285.09 334.38,285.25 C 334.13,285.41 333.87,285.59 333.62,285.75 C 333.38,285.91 333.13,286.05 332.89,286.19 C 332.65,286.32 332.41,286.45 332.17,286.56 C 331.93,286.68 331.70,286.78 331.47,286.88 C 331.24,286.97 331.01,287.05 330.78,287.12 C 330.55,287.20 330.33,287.26 330.11,287.31 C 329.89,287.36 329.67,287.41 329.45,287.44 C 329.24,287.47 329.02,287.49 328.81,287.50 C 328.60,287.51 328.40,287.49 328.19,287.50 C 327.97,287.51 327.76,287.53 327.53,287.56 C 327.31,287.59 327.08,287.64 326.84,287.69 C 326.61,287.74 326.37,287.80 326.12,287.88 C 325.88,287.95 325.63,288.03 325.38,288.12 C 325.12,288.22 324.86,288.32 324.59,288.44 C 324.33,288.55 324.06,288.68 323.78,288.81 C 323.51,288.95 323.22,289.09 322.94,289.25 C 322.65,289.41 322.35,289.57 322.06,289.75 C 321.78,289.93 321.49,290.14 321.22,290.36 C 320.94,290.58 320.67,290.82 320.41,291.08 C 320.14,291.34 319.88,291.61 319.62,291.91 C 319.37,292.20 319.12,292.51 318.88,292.84 C 318.63,293.17 318.39,293.52 318.16,293.89 C 317.92,294.26 317.69,294.64 317.47,295.05 C 317.24,295.45 317.03,295.87 316.81,296.31 C 316.60,296.75 316.40,297.26 316.19,297.69 C 315.97,298.12 315.76,298.52 315.53,298.89 C 315.31,299.26 315.08,299.61 314.84,299.92 C 314.61,300.24 314.37,300.52 314.12,300.78 C 313.88,301.04 313.63,301.27 313.38,301.47 C 313.12,301.67 312.86,301.84 312.59,301.98 C 312.33,302.13 312.06,302.24 311.78,302.33 C 311.51,302.41 311.22,302.47 310.94,302.50 C 310.65,302.53 310.35,302.51 310.06,302.50 C 309.77,302.49 309.49,302.46 309.20,302.42 C 308.92,302.38 308.64,302.33 308.36,302.27 C 308.08,302.20 307.80,302.12 307.53,302.03 C 307.26,301.94 306.99,301.84 306.72,301.72 C 306.45,301.60 306.18,301.47 305.92,301.33 C 305.66,301.18 305.40,301.03 305.14,300.86 C 304.88,300.69 304.63,300.51 304.38,300.31 C 304.12,300.12 303.87,299.89 303.62,299.69 C 303.38,299.49 303.13,299.30 302.89,299.12 C 302.65,298.95 302.41,298.78 302.17,298.62 C 301.93,298.47 301.70,298.32 301.47,298.19 C 301.24,298.05 301.01,297.93 300.78,297.81 C 300.55,297.70 300.33,297.59 300.11,297.50 C 299.89,297.41 299.67,297.32 299.45,297.25 C 299.24,297.18 299.02,297.11 298.81,297.06 C 298.60,297.01 298.41,296.97 298.19,296.94 C 297.97,296.91 297.74,296.89 297.50,296.88 C 297.26,296.86 297.01,296.86 296.75,296.88 C 296.49,296.89 296.22,296.91 295.94,296.94 C 295.66,296.97 295.36,297.01 295.06,297.06 C 294.76,297.11 294.45,297.18 294.12,297.25 C 293.80,297.32 293.47,297.41 293.12,297.50 C 292.78,297.59 292.43,297.70 292.06,297.81 C 291.70,297.93 291.30,298.05 290.94,298.19 C 290.57,298.32 290.21,298.47 289.87,298.63 C 289.52,298.79 289.18,298.96 288.85,299.15 C 288.52,299.33 288.20,299.53 287.89,299.73 C 287.58,299.94 287.28,300.16 286.98,300.39 C 286.69,300.62 286.41,300.86 286.13,301.12 C 285.86,301.37 285.59,301.64 285.34,301.91 C 285.08,302.19 284.83,302.48 284.59,302.78 C 284.36,303.08 284.11,303.41 283.91,303.72 C 283.70,304.02 283.51,304.32 283.34,304.61 C 283.18,304.90 283.03,305.18 282.91,305.45 C 282.78,305.73 282.68,305.99 282.59,306.25 C 282.51,306.51 282.45,306.76 282.41,307.00 C 282.36,307.24 282.34,307.48 282.34,307.70 C 282.34,307.93 282.36,308.15 282.41,308.36 C 282.45,308.57 282.51,308.77 282.59,308.97 C 282.68,309.16 282.80,309.35 282.91,309.53 C 283.02,309.71 283.13,309.88 283.25,310.05 C 283.37,310.21 283.49,310.37 283.62,310.52 C 283.76,310.66 283.89,310.80 284.03,310.94 C 284.17,311.07 284.32,311.20 284.47,311.31 C 284.62,311.43 284.78,311.54 284.94,311.64 C 285.10,311.74 285.27,311.84 285.44,311.92 C 285.61,312.01 285.79,312.09 285.97,312.16 C 286.15,312.23 286.28,312.18 286.53,312.34 C 286.78,312.50 287.10,312.76 287.48,313.12 C 287.86,313.47 288.30,313.93 288.80,314.48 C 289.31,315.03 289.88,315.68 290.52,316.42 C 291.15,317.17 291.85,318.01 292.61,318.95 C 293.37,319.89 294.20,320.93 295.09,322.07 C 295.98,323.21 296.93,324.44 297.95,325.77 C 298.96,327.11 300.04,328.54 301.19,330.06 C 302.33,331.59 303.68,333.40 304.81,334.94 C 305.94,336.47 306.99,337.92 307.97,339.28 C 308.94,340.64 309.84,341.91 310.66,343.09 C 311.47,344.28 312.21,345.37 312.88,346.38 C 313.54,347.38 314.12,348.30 314.62,349.12 C 315.13,349.95 315.56,350.69 315.91,351.34 C 316.26,351.99 316.53,352.56 316.72,353.03 C 316.91,353.51 317.03,353.89 317.06,354.19 C 317.10,354.48 316.99,354.61 316.94,354.81 C 316.88,355.02 316.81,355.22 316.73,355.41 C 316.64,355.61 316.54,355.80 316.43,355.99 C 316.32,356.18 316.19,356.37 316.05,356.55 C 315.90,356.73 315.75,356.90 315.58,357.08 C 315.41,357.25 315.22,357.42 315.02,357.59 C 314.82,357.75 314.61,357.91 314.38,358.07 C 314.15,358.23 313.91,358.38 313.66,358.53 C 313.40,358.68 313.13,358.85 312.84,358.97 C 312.56,359.09 312.27,359.18 311.96,359.24 C 311.65,359.31 311.34,359.34 311.01,359.35 C 310.68,359.36 310.34,359.34 309.98,359.30 C 309.63,359.25 309.27,359.18 308.89,359.08 C 308.51,358.98 308.13,358.85 307.73,358.70 C 307.33,358.54 306.92,358.36 306.49,358.15 C 306.07,357.94 305.63,357.70 305.19,357.44 Z" fill="none" stroke="currentColor" stroke-width="1.5" stroke-linejoin="round" stroke-linecap="round" filter="url(#glow)" />
</svg>