<svg xmlns="http://www.w3.org/2000/svg" width="512" height="512" viewBox="132.30 128.30 292.78 254.40" preserveAspectRatio="xMidYMid meet">
  <defs>
    <filter id="glow" x="-30%" y="-30%" width="160%" height="160%">
      <feGaussianBlur in="SourceGraphic" stdDeviation="2.4" result="blur" />
      <feMerge>
        <feMergeNode in="blur" />
        <feMergeNode in="SourceGraphic" />
      </feMerge>
    </filter>
    <clipPath id="hull-clip">
      <path d="M 289.81,361.50 C 288.98,361.52 288.02,361.52 287.19,361.50 C 286.35,361.48 285.56,361.43 284.80,361.35 C 284.05,361.28 283.34,361.18 282.66,361.05 C 281.99,360.93 281.36,360.78 280.77,360.61 C 280.17,360.44 279.62,360.24 279.11,360.02 C 278.60,359.79 278.13,359.55 277.70,359.27 C 277.26,359.00 276.87,358.70 276.52,358.38 C 276.17,358.06 275.86,357.71 275.59,357.34 C 275.32,356.97 275.14,356.60 274.91,356.16 C 274.67,355.72 274.42,355.24 274.16,354.71 C 273.91,354.19 273.64,353.62 273.37,353.01 C 273.09,352.40 272.81,351.74 272.52,351.05 C 272.22,350.35 271.92,349.61 271.61,348.83 C 271.30,348.05 270.98,347.22 270.65,346.35 C 270.32,345.48 269.98,344.57 269.63,343.62 C 269.29,342.66 268.93,341.67 268.56,340.62 C 268.20,339.58 267.85,338.44 267.44,337.38 C 267.03,336.31 266.59,335.27 266.12,334.24 C 265.64,333.22 265.14,332.21 264.60,331.23 C 264.06,330.24 263.49,329.27 262.89,328.33 C 262.29,327.38 261.65,326.45 260.98,325.55 C 260.32,324.64 259.62,323.75 258.88,322.88 C 258.15,322.01 257.38,321.17 256.59,320.34 C 255.79,319.51 254.96,318.70 254.09,317.91 C 253.23,317.12 252.28,316.33 251.41,315.59 C 250.53,314.86 249.68,314.15 248.85,313.48 C 248.02,312.80 247.21,312.16 246.43,311.55 C 245.64,310.95 244.88,310.37 244.14,309.83 C 243.40,309.29 242.68,308.77 241.98,308.30 C 241.29,307.82 240.61,307.37 239.96,306.96 C 239.31,306.55 238.68,306.17 238.07,305.82 C 237.46,305.47 236.88,305.16 236.31,304.88 C 235.75,304.59 235.25,304.41 234.69,304.12 C 234.12,303.84 233.53,303.52 232.92,303.17 C 232.31,302.82 231.67,302.43 231.02,302.02 C 230.36,301.60 229.67,301.14 228.97,300.66 C 228.26,300.17 227.53,299.65 226.78,299.09 C 226.03,298.54 225.25,297.95 224.45,297.33 C 223.65,296.71 222.83,296.05 221.98,295.36 C 221.14,294.67 220.27,293.95 219.38,293.19 C 218.48,292.43 217.50,291.57 216.62,290.81 C 215.75,290.06 214.92,289.33 214.13,288.65 C 213.35,287.96 212.60,287.31 211.90,286.70 C 211.20,286.08 210.54,285.50 209.92,284.95 C 209.31,284.41 208.73,283.90 208.20,283.42 C 207.67,282.95 207.19,282.51 206.74,282.10 C 206.30,281.70 205.90,281.33 205.54,280.99 C 205.18,280.66 204.87,280.36 204.59,280.09 C 204.32,279.83 204.12,279.63 203.91,279.41 C 203.69,279.18 203.49,278.96 203.30,278.74 C 203.12,278.52 202.95,278.31 202.79,278.10 C 202.63,277.89 202.49,277.69 202.36,277.48 C 202.23,277.28 202.12,277.08 202.02,276.89 C 201.92,276.70 201.83,276.51 201.76,276.32 C 201.69,276.13 201.63,275.95 201.59,275.77 C 201.54,275.60 201.51,275.42 201.50,275.25 C 201.49,275.08 201.49,274.91 201.50,274.75 C 201.51,274.59 201.54,274.44 201.59,274.30 C 201.63,274.17 201.69,274.04 201.76,273.91 C 201.83,273.79 201.92,273.68 202.02,273.58 C 202.12,273.48 202.23,273.38 202.36,273.30 C 202.49,273.21 202.63,273.14 202.79,273.07 C 202.95,273.00 203.12,272.95 203.30,272.90 C 203.49,272.85 203.69,272.81 203.91,272.78 C 204.12,272.75 204.38,272.75 204.59,272.72 C 204.81,272.69 205.01,272.66 205.20,272.62 C 205.38,272.58 205.55,272.53 205.71,272.48 C 205.87,272.42 206.01,272.36 206.14,272.30 C 206.27,272.23 206.38,272.16 206.48,272.08 C 206.58,272.00 206.67,271.91 206.74,271.82 C 206.81,271.73 206.87,271.63 206.91,271.52 C 206.96,271.42 206.99,271.31 207.00,271.19 C 207.01,271.07 207.09,270.93 207.00,270.81 C 206.91,270.69 206.73,270.57 206.47,270.45 C 206.20,270.34 205.85,270.22 205.41,270.11 C 204.96,270.00 204.43,269.89 203.81,269.78 C 203.19,269.67 202.48,269.57 201.69,269.47 C 200.89,269.37 200.01,269.27 199.03,269.17 C 198.06,269.08 196.99,268.98 195.84,268.89 C 194.69,268.80 193.45,268.71 192.12,268.62 C 190.80,268.54 189.24,268.47 187.88,268.38 C 186.51,268.28 185.20,268.18 183.94,268.08 C 182.68,267.97 181.47,267.86 180.31,267.73 C 179.16,267.61 178.05,267.48 177.00,267.34 C 175.95,267.21 174.95,267.06 174.00,266.91 C 173.05,266.75 172.16,266.59 171.31,266.42 C 170.47,266.25 169.68,266.08 168.94,265.89 C 168.20,265.71 167.51,265.51 166.88,265.31 C 166.24,265.11 165.69,264.89 165.12,264.69 C 164.56,264.48 164.02,264.27 163.51,264.07 C 162.99,263.87 162.50,263.66 162.02,263.46 C 161.55,263.26 161.10,263.06 160.67,262.86 C 160.24,262.66 159.84,262.46 159.45,262.27 C 159.07,262.07 158.71,261.87 158.37,261.68 C 158.03,261.49 157.71,261.29 157.41,261.10 C 157.12,260.91 156.85,260.72 156.59,260.53 C 156.34,260.34 156.12,260.16 155.91,259.97 C 155.69,259.78 155.49,259.59 155.30,259.40 C 155.12,259.21 154.95,259.01 154.79,258.82 C 154.63,258.63 154.49,258.43 154.36,258.23 C 154.23,258.04 154.12,257.84 154.02,257.64 C 153.92,257.44 153.83,257.24 153.76,257.04 C 153.69,256.84 153.63,256.63 153.59,256.43 C 153.54,256.23 153.51,256.02 153.50,255.81 C 153.49,255.61 153.49,255.39 153.50,255.19 C 153.51,254.98 153.54,254.77 153.59,254.57 C 153.63,254.37 153.69,254.16 153.76,253.96 C 153.83,253.76 153.92,253.56 154.02,253.36 C 154.12,253.16 154.23,252.96 154.36,252.77 C 154.49,252.57 154.63,252.37 154.79,252.18 C 154.95,251.99 155.12,251.79 155.30,251.60 C 155.49,251.41 155.69,251.22 155.91,251.03 C 156.12,250.84 156.33,250.66 156.59,250.47 C 156.86,250.28 157.15,250.08 157.48,249.88 C 157.80,249.68 158.16,249.48 158.55,249.27 C 158.95,249.07 159.37,248.86 159.83,248.64 C 160.29,248.43 160.77,248.21 161.30,247.98 C 161.82,247.76 162.37,247.54 162.96,247.30 C 163.55,247.07 164.17,246.84 164.82,246.60 C 165.47,246.36 166.16,246.12 166.88,245.88 C 167.59,245.63 168.34,245.36 169.12,245.12 C 169.91,244.89 170.72,244.66 171.56,244.45 C 172.41,244.24 173.28,244.04 174.19,243.86 C 175.09,243.67 176.03,243.50 177.00,243.34 C 177.97,243.18 178.97,243.04 180.00,242.91 C 181.03,242.77 182.09,242.65 183.19,242.55 C 184.28,242.44 185.41,242.35 186.56,242.27 C 187.72,242.18 188.91,242.12 190.12,242.06 C 191.34,242.01 192.70,241.98 193.88,241.94 C 195.05,241.89 196.14,241.84 197.16,241.78 C 198.17,241.72 199.11,241.66 199.97,241.59 C 200.83,241.53 201.61,241.45 202.31,241.38 C 203.02,241.30 203.64,241.21 204.19,241.12 C 204.73,241.04 205.20,240.94 205.59,240.84 C 205.98,240.74 206.30,240.64 206.53,240.53 C 206.77,240.42 206.92,240.31 207.00,240.19 C 207.08,240.07 207.01,239.93 207.00,239.81 C 206.99,239.69 206.96,239.58 206.91,239.48 C 206.87,239.37 206.81,239.27 206.74,239.18 C 206.67,239.09 206.58,239.00 206.48,238.92 C 206.38,238.84 206.27,238.77 206.14,238.70 C 206.01,238.64 205.87,238.58 205.71,238.52 C 205.55,238.47 205.38,238.42 205.20,238.38 C 205.01,238.34 204.81,238.31 204.59,238.28 C 204.38,238.25 204.12,238.25 203.91,238.22 C 203.69,238.19 203.49,238.15 203.30,238.10 C 203.12,238.05 202.95,238.00 202.79,237.93 C 202.63,237.86 202.49,237.79 202.36,237.70 C 202.23,237.62 202.12,237.52 202.02,237.42 C 201.92,237.32 201.83,237.21 201.76,237.09 C 201.69,236.96 201.63,236.83 201.59,236.70 C 201.54,236.56 201.51,236.41 201.50,236.25 C 201.49,236.09 201.43,235.97 201.50,235.75 C 201.57,235.53 201.71,235.26 201.93,234.93 C 202.14,234.60 202.43,234.22 202.79,233.79 C 203.15,233.36 203.58,232.87 204.08,232.33 C 204.58,231.79 205.15,231.19 205.80,230.55 C 206.44,229.90 207.16,229.20 207.95,228.45 C 208.73,227.69 209.59,226.88 210.52,226.02 C 211.45,225.16 212.46,224.25 213.53,223.28 C 214.61,222.31 215.86,221.19 216.97,220.22 C 218.08,219.25 219.15,218.32 220.18,217.45 C 221.21,216.57 222.21,215.74 223.16,214.96 C 224.12,214.18 225.04,213.45 225.92,212.77 C 226.80,212.08 227.65,211.45 228.45,210.86 C 229.26,210.27 230.03,209.73 230.76,209.24 C 231.49,208.75 232.18,208.31 232.84,207.91 C 233.49,207.52 234.11,207.17 234.69,206.88 C 235.27,206.58 235.75,206.41 236.31,206.12 C 236.88,205.84 237.46,205.53 238.07,205.18 C 238.68,204.83 239.31,204.45 239.96,204.04 C 240.61,203.63 241.29,203.18 241.98,202.70 C 242.68,202.23 243.40,201.71 244.14,201.17 C 244.88,200.63 245.64,200.05 246.43,199.45 C 247.21,198.84 248.02,198.20 248.85,197.52 C 249.68,196.85 250.53,196.14 251.41,195.41 C 252.28,194.67 253.23,193.88 254.09,193.09 C 254.96,192.30 255.79,191.49 256.59,190.66 C 257.38,189.83 258.15,188.99 258.88,188.12 C 259.62,187.25 260.32,186.36 260.98,185.45 C 261.65,184.55 262.29,183.62 262.89,182.67 C 263.49,181.73 264.06,180.76 264.60,179.77 C 265.14,178.79 265.64,177.78 266.12,176.76 C 266.59,175.73 267.03,174.69 267.44,173.62 C 267.85,172.56 268.20,171.42 268.56,170.38 C 268.93,169.33 269.29,168.34 269.63,167.38 C 269.98,166.43 270.32,165.52 270.65,164.65 C 270.98,163.78 271.30,162.95 271.61,162.17 C 271.92,161.39 272.22,160.65 272.52,159.95 C 272.81,159.26 273.09,158.60 273.37,157.99 C 273.64,157.38 273.91,156.81 274.16,156.29 C 274.42,155.76 274.67,155.28 274.91,154.84 C 275.14,154.40 275.32,154.03 275.59,153.66 C 275.86,153.29 276.17,152.94 276.52,152.62 C 276.87,152.30 277.26,152.00 277.70,151.73 C 278.13,151.45 278.60,151.21 279.11,150.98 C 279.62,150.76 280.17,150.56 280.77,150.39 C 281.36,150.22 281.99,150.07 282.66,149.95 C 283.34,149.82 284.05,149.72 284.80,149.65 C 285.56,149.57 286.35,149.52 287.19,149.50 C 288.02,149.48 288.98,149.48 289.81,149.50 C 290.64,149.52 291.43,149.57 292.18,149.63 C 292.93,149.70 293.63,149.79 294.29,149.90 C 294.95,150.01 295.57,150.14 296.14,150.30 C 296.71,150.45 297.25,150.63 297.73,150.83 C 298.22,151.03 298.67,151.25 299.07,151.49 C 299.47,151.74 299.83,152.00 300.15,152.29 C 300.46,152.58 300.74,152.89 300.97,153.22 C 301.20,153.55 301.26,153.85 301.53,154.28 C 301.80,154.72 302.16,155.23 302.59,155.83 C 303.03,156.42 303.55,157.10 304.16,157.86 C 304.76,158.62 305.45,159.46 306.22,160.38 C 306.99,161.29 307.84,162.29 308.78,163.38 C 309.72,164.46 310.74,165.62 311.84,166.86 C 312.95,168.10 314.14,169.42 315.41,170.83 C 316.68,172.23 318.03,173.72 319.47,175.28 C 320.91,176.85 322.55,178.67 324.03,180.22 C 325.51,181.77 326.95,183.23 328.34,184.59 C 329.74,185.96 331.09,187.23 332.41,188.41 C 333.72,189.58 334.99,190.67 336.22,191.66 C 337.45,192.65 338.64,193.54 339.78,194.34 C 340.93,195.15 342.03,195.85 343.09,196.47 C 344.16,197.08 345.18,197.60 346.16,198.03 C 347.14,198.46 348.07,198.79 348.97,199.03 C 349.86,199.27 350.73,199.33 351.53,199.47 C 352.33,199.61 353.08,199.74 353.77,199.88 C 354.46,200.01 355.09,200.13 355.67,200.25 C 356.25,200.37 356.78,200.48 357.25,200.59 C 357.72,200.70 358.14,200.81 358.50,200.91 C 358.86,201.01 359.17,201.10 359.42,201.19 C 359.67,201.28 359.87,201.36 360.02,201.44 C 360.16,201.52 360.25,201.59 360.28,201.66 C 360.32,201.72 360.27,201.79 360.22,201.84 C 360.17,201.90 360.08,201.96 359.96,202.01 C 359.84,202.06 359.69,202.11 359.51,202.15 C 359.32,202.19 359.11,202.23 358.86,202.27 C 358.61,202.30 358.33,202.33 358.02,202.36 C 357.70,202.39 357.36,202.41 356.98,202.43 C 356.60,202.45 356.19,202.46 355.74,202.48 C 355.30,202.49 354.82,202.50 354.31,202.50 C 353.80,202.50 353.22,202.50 352.69,202.50 C 352.15,202.50 351.63,202.49 351.11,202.48 C 350.59,202.48 350.08,202.47 349.58,202.45 C 349.08,202.44 348.58,202.42 348.09,202.41 C 347.61,202.39 347.13,202.37 346.66,202.34 C 346.18,202.32 345.72,202.29 345.27,202.27 C 344.81,202.24 344.36,202.21 343.92,202.17 C 343.48,202.14 343.05,202.10 342.62,202.06 C 342.20,202.02 341.78,201.97 341.38,201.94 C 340.97,201.91 340.59,201.89 340.22,201.89 C 339.85,201.89 339.49,201.90 339.16,201.92 C 338.82,201.95 338.49,201.98 338.19,202.03 C 337.88,202.08 337.59,202.14 337.31,202.22 C 337.04,202.29 336.78,202.38 336.53,202.48 C 336.29,202.59 336.06,202.70 335.84,202.83 C 335.63,202.96 335.43,203.10 335.25,203.25 C 335.07,203.40 334.99,203.59 334.75,203.75 C 334.51,203.91 334.21,204.05 333.83,204.19 C 333.45,204.32 333.00,204.45 332.48,204.56 C 331.97,204.68 331.38,204.78 330.72,204.88 C 330.06,204.97 329.33,205.05 328.53,205.12 C 327.73,205.20 326.86,205.26 325.92,205.31 C 324.98,205.36 323.97,205.41 322.89,205.44 C 321.81,205.47 320.66,205.49 319.44,205.50 C 318.22,205.51 316.79,205.48 315.56,205.50 C 314.33,205.52 313.16,205.55 312.05,205.60 C 310.95,205.65 309.90,205.72 308.91,205.80 C 307.93,205.89 307.00,205.99 306.14,206.11 C 305.28,206.23 304.48,206.36 303.73,206.52 C 302.99,206.67 302.31,206.84 301.70,207.02 C 301.08,207.21 300.52,207.41 300.02,207.63 C 299.53,207.85 299.09,208.09 298.72,208.34 C 298.35,208.60 298.07,208.90 297.78,209.16 C 297.49,209.41 297.22,209.66 296.97,209.89 C 296.72,210.12 296.49,210.34 296.28,210.55 C 296.07,210.75 295.89,210.95 295.72,211.12 C 295.55,211.30 295.41,211.47 295.28,211.62 C 295.16,211.78 295.05,211.92 294.97,212.05 C 294.89,212.17 294.82,212.29 294.78,212.39 C 294.74,212.49 294.72,212.58 294.72,212.66 C 294.72,212.73 294.74,212.78 294.78,212.84 C 294.82,212.90 294.87,212.96 294.95,213.02 C 295.02,213.08 295.11,213.14 295.21,213.20 C 295.32,213.25 295.44,213.31 295.58,213.36 C 295.72,213.41 295.87,213.46 296.05,213.52 C 296.22,213.57 296.41,213.62 296.62,213.66 C 296.82,213.71 297.05,213.76 297.29,213.80 C 297.53,213.85 297.79,213.89 298.06,213.94 C 298.34,213.98 298.65,214.01 298.94,214.06 C 299.23,214.12 299.52,214.18 299.81,214.27 C 300.10,214.35 300.40,214.44 300.69,214.55 C 300.98,214.65 301.27,214.77 301.56,214.91 C 301.85,215.04 302.15,215.18 302.44,215.34 C 302.73,215.50 303.02,215.67 303.31,215.86 C 303.60,216.04 303.90,216.24 304.19,216.45 C 304.48,216.66 304.77,216.89 305.06,217.12 C 305.35,217.36 305.62,217.64 305.94,217.88 C 306.25,218.11 306.58,218.34 306.94,218.56 C 307.29,218.78 307.67,218.99 308.06,219.19 C 308.46,219.39 308.88,219.57 309.31,219.75 C 309.75,219.93 310.21,220.09 310.69,220.25 C 311.17,220.41 311.67,220.55 312.19,220.69 C 312.71,220.82 313.25,220.95 313.81,221.06 C 314.38,221.18 314.96,221.28 315.56,221.38 C 316.17,221.47 316.81,221.54 317.44,221.62 C 318.06,221.71 318.69,221.78 319.31,221.86 C 319.94,221.93 320.56,222.01 321.19,222.08 C 321.81,222.15 322.44,222.22 323.06,222.28 C 323.69,222.35 324.31,222.41 324.94,222.47 C 325.56,222.53 326.19,222.59 326.81,222.64 C 327.44,222.70 328.06,222.75 328.69,222.80 C 329.31,222.85 329.94,222.89 330.56,222.94 C 331.19,222.98 331.83,223.04 332.44,223.06 C 333.05,223.09 333.65,223.10 334.23,223.09 C 334.82,223.09 335.39,223.07 335.95,223.03 C 336.51,222.99 337.06,222.94 337.59,222.88 C 338.13,222.81 338.65,222.72 339.16,222.62 C 339.66,222.53 340.16,222.41 340.64,222.28 C 341.12,222.15 341.59,222.01 342.05,221.84 C 342.50,221.68 342.95,221.51 343.38,221.31 C 343.80,221.12 344.18,220.88 344.62,220.69 C 345.07,220.50 345.53,220.33 346.02,220.17 C 346.50,220.02 347.01,219.88 347.55,219.77 C 348.08,219.65 348.64,219.55 349.22,219.47 C 349.80,219.39 350.40,219.33 351.03,219.28 C 351.66,219.24 352.31,219.21 352.98,219.20 C 353.66,219.20 354.36,219.21 355.08,219.23 C 355.80,219.26 356.54,219.31 357.31,219.38 C 358.08,219.44 358.95,219.54 359.69,219.62 C 360.42,219.71 361.10,219.81 361.71,219.91 C 362.33,220.02 362.88,220.13 363.38,220.24 C 363.88,220.36 364.32,220.48 364.70,220.61 C 365.08,220.74 365.41,220.87 365.67,221.02 C 365.94,221.16 366.14,221.31 366.29,221.46 C 366.44,221.62 366.52,221.78 366.55,221.95 C 366.58,222.11 366.56,222.29 366.47,222.47 C 366.38,222.65 366.16,222.85 366.03,223.03 C 365.90,223.21 365.80,223.38 365.71,223.54 C 365.62,223.70 365.56,223.85 365.51,223.99 C 365.46,224.13 365.43,224.27 365.42,224.39 C 365.41,224.51 365.42,224.63 365.45,224.73 C 365.48,224.84 365.53,224.94 365.60,225.02 C 365.67,225.11 365.76,225.19 365.87,225.26 C 365.98,225.33 366.10,225.39 366.25,225.44 C 366.40,225.49 366.61,225.52 366.75,225.56 C 366.89,225.60 367.01,225.64 367.10,225.68 C 367.19,225.72 367.26,225.75 367.30,225.79 C 367.35,225.82 367.37,225.86 367.36,225.89 C 367.35,225.92 367.32,225.95 367.27,225.98 C 367.21,226.01 367.13,226.04 367.02,226.07 C 366.92,226.10 366.79,226.12 366.63,226.15 C 366.48,226.17 366.30,226.20 366.09,226.22 C 365.89,226.24 365.63,226.26 365.41,226.28 C 365.18,226.31 364.97,226.34 364.77,226.38 C 364.56,226.41 364.36,226.45 364.17,226.50 C 363.98,226.55 363.80,226.60 363.62,226.66 C 363.45,226.71 363.28,226.78 363.12,226.84 C 362.97,226.91 362.82,226.98 362.67,227.06 C 362.53,227.14 362.39,227.22 362.27,227.31 C 362.14,227.40 362.02,227.49 361.91,227.59 C 361.79,227.69 361.68,227.80 361.59,227.91 C 361.50,228.01 361.42,228.12 361.36,228.23 C 361.29,228.35 361.24,228.46 361.20,228.58 C 361.16,228.70 361.14,228.82 361.12,228.94 C 361.11,229.06 361.11,229.18 361.12,229.31 C 361.14,229.44 361.16,229.57 361.20,229.70 C 361.24,229.84 361.29,229.97 361.36,230.11 C 361.42,230.25 361.50,230.39 361.59,230.53 C 361.68,230.67 361.78,230.82 361.91,230.97 C 362.03,231.12 362.18,231.27 362.35,231.43 C 362.52,231.59 362.71,231.75 362.93,231.91 C 363.14,232.08 363.38,232.25 363.64,232.42 C 363.90,232.60 364.18,232.77 364.48,232.95 C 364.79,233.13 365.11,233.32 365.46,233.51 C 365.81,233.70 366.18,233.89 366.57,234.09 C 366.96,234.28 367.38,234.48 367.81,234.69 C 368.25,234.89 368.69,235.11 369.19,235.31 C 369.68,235.52 370.21,235.72 370.78,235.92 C 371.35,236.12 371.95,236.32 372.59,236.52 C 373.23,236.71 373.91,236.90 374.62,237.09 C 375.34,237.28 376.09,237.47 376.88,237.66 C 377.66,237.84 378.48,238.02 379.34,238.20 C 380.20,238.38 381.10,238.56 382.03,238.73 C 382.96,238.91 383.93,239.08 384.94,239.25 C 385.94,239.42 387.07,239.56 388.06,239.75 C 389.06,239.94 390.00,240.17 390.90,240.41 C 391.80,240.66 392.64,240.94 393.45,241.24 C 394.25,241.55 395.00,241.88 395.70,242.23 C 396.41,242.59 397.06,242.98 397.67,243.39 C 398.28,243.80 398.84,244.24 399.35,244.71 C 399.86,245.18 400.33,245.67 400.74,246.20 C 401.16,246.72 401.52,247.27 401.84,247.84 C 402.16,248.42 402.42,249.05 402.66,249.66 C 402.89,250.26 403.10,250.86 403.27,251.45 C 403.43,252.05 403.57,252.64 403.67,253.23 C 403.77,253.83 403.84,254.41 403.88,255.00 C 403.91,255.59 403.91,256.17 403.88,256.75 C 403.84,257.33 403.77,257.91 403.67,258.48 C 403.57,259.06 403.43,259.63 403.27,260.20 C 403.10,260.77 402.89,261.34 402.66,261.91 C 402.42,262.47 402.16,263.06 401.84,263.59 C 401.52,264.13 401.16,264.64 400.74,265.13 C 400.33,265.62 399.86,266.08 399.35,266.52 C 398.84,266.96 398.28,267.38 397.67,267.77 C 397.06,268.15 396.41,268.52 395.70,268.86 C 395.00,269.20 394.25,269.51 393.45,269.80 C 392.64,270.10 391.80,270.36 390.90,270.60 C 390.00,270.84 389.06,271.06 388.06,271.25 C 387.07,271.44 385.94,271.58 384.94,271.75 C 383.93,271.92 382.96,272.09 382.03,272.27 C 381.10,272.44 380.20,272.62 379.34,272.80 C 378.48,272.98 377.66,273.16 376.88,273.34 C 376.09,273.53 375.34,273.72 374.62,273.91 C 373.91,274.10 373.23,274.29 372.59,274.48 C 371.95,274.68 371.35,274.88 370.78,275.08 C 370.21,275.28 369.68,275.48 369.19,275.69 C 368.69,275.89 368.25,276.11 367.81,276.31 C 367.38,276.52 366.96,276.72 366.57,276.91 C 366.18,277.11 365.81,277.30 365.46,277.49 C 365.11,277.68 364.79,277.87 364.48,278.05 C 364.18,278.23 363.90,278.40 363.64,278.58 C 363.38,278.75 363.14,278.92 362.93,279.09 C 362.71,279.25 362.52,279.41 362.35,279.57 C 362.18,279.73 362.03,279.88 361.91,280.03 C 361.78,280.18 361.68,280.33 361.59,280.47 C 361.50,280.61 361.42,280.75 361.36,280.89 C 361.29,281.03 361.24,281.16 361.20,281.30 C 361.16,281.43 361.14,281.56 361.12,281.69 C 361.11,281.82 361.11,281.94 361.12,282.06 C 361.14,282.18 361.16,282.30 361.20,282.42 C 361.24,282.54 361.29,282.65 361.36,282.77 C 361.42,282.88 361.50,282.99 361.59,283.09 C 361.68,283.20 361.79,283.31 361.91,283.41 C 362.02,283.51 362.14,283.60 362.27,283.69 C 362.39,283.78 362.53,283.86 362.67,283.94 C 362.82,284.02 362.97,284.09 363.12,284.16 C 363.28,284.22 363.45,284.29 363.62,284.34 C 363.80,284.40 363.98,284.45 364.17,284.50 C 364.36,284.55 364.56,284.59 364.77,284.62 C 364.97,284.66 365.18,284.69 365.41,284.72 C 365.63,284.74 365.89,284.76 366.09,284.78 C 366.30,284.80 366.48,284.83 366.63,284.85 C 366.79,284.88 366.92,284.90 367.02,284.93 C 367.13,284.96 367.21,284.99 367.27,285.02 C 367.32,285.05 367.35,285.08 367.36,285.11 C 367.37,285.14 367.35,285.18 367.30,285.21 C 367.26,285.25 367.19,285.28 367.10,285.32 C 367.01,285.36 366.89,285.40 366.75,285.44 C 366.61,285.48 366.40,285.51 366.25,285.56 C 366.10,285.61 365.98,285.67 365.87,285.74 C 365.76,285.81 365.67,285.89 365.60,285.98 C 365.53,286.06 365.48,286.16 365.45,286.27 C 365.42,286.37 365.41,286.49 365.42,286.61 C 365.43,286.73 365.46,286.87 365.51,287.01 C 365.56,287.15 365.62,287.30 365.71,287.46 C 365.80,287.62 365.90,287.79 366.03,287.97 C 366.16,288.15 366.38,288.35 366.47,288.53 C 366.56,288.71 366.58,288.89 366.55,289.05 C 366.52,289.22 366.44,289.38 366.29,289.54 C 366.14,289.69 365.94,289.84 365.67,289.98 C 365.41,290.13 365.08,290.26 364.70,290.39 C 364.32,290.52 363.88,290.64 363.38,290.76 C 362.88,290.87 362.33,290.98 361.71,291.09 C 361.10,291.19 360.42,291.29 359.69,291.38 C 358.95,291.46 358.08,291.56 357.31,291.62 C 356.54,291.69 355.80,291.74 355.08,291.77 C 354.36,291.79 353.66,291.80 352.98,291.80 C 352.31,291.79 351.66,291.76 351.03,291.72 C 350.40,291.67 349.80,291.61 349.22,291.53 C 348.64,291.45 348.08,291.35 347.55,291.23 C 347.01,291.12 346.50,290.98 346.02,290.83 C 345.53,290.67 345.07,290.50 344.62,290.31 C 344.18,290.12 343.80,289.88 343.38,289.69 C 342.95,289.49 342.50,289.32 342.05,289.16 C 341.59,288.99 341.12,288.85 340.64,288.72 C 340.16,288.59 339.66,288.47 339.16,288.38 C 338.65,288.28 338.13,288.19 337.59,288.12 C 337.06,288.06 336.51,288.01 335.95,287.97 C 335.39,287.93 334.82,287.91 334.23,287.91 C 333.65,287.90 333.05,287.91 332.44,287.94 C 331.83,287.96 331.19,288.02 330.56,288.06 C 329.93,288.11 329.30,288.15 328.67,288.20 C 328.04,288.25 327.40,288.30 326.77,288.36 C 326.13,288.41 325.49,288.47 324.84,288.53 C 324.20,288.59 323.55,288.65 322.91,288.72 C 322.26,288.78 321.61,288.85 320.95,288.92 C 320.30,288.99 319.64,289.07 318.98,289.14 C 318.33,289.22 317.66,289.29 317.00,289.38 C 316.34,289.46 315.64,289.53 315.00,289.62 C 314.36,289.72 313.74,289.82 313.16,289.94 C 312.57,290.05 312.01,290.18 311.47,290.31 C 310.93,290.45 310.42,290.59 309.94,290.75 C 309.45,290.91 308.99,291.07 308.56,291.25 C 308.13,291.43 307.72,291.61 307.34,291.81 C 306.96,292.01 306.61,292.22 306.28,292.44 C 305.95,292.66 305.65,292.89 305.38,293.12 C 305.10,293.36 304.88,293.64 304.62,293.88 C 304.37,294.11 304.12,294.34 303.86,294.55 C 303.60,294.76 303.34,294.96 303.08,295.14 C 302.82,295.33 302.55,295.50 302.28,295.66 C 302.01,295.82 301.74,295.96 301.47,296.09 C 301.20,296.23 300.92,296.35 300.64,296.45 C 300.36,296.56 300.08,296.65 299.80,296.73 C 299.51,296.82 299.23,296.88 298.94,296.94 C 298.65,296.99 298.34,297.02 298.06,297.06 C 297.79,297.11 297.53,297.15 297.29,297.20 C 297.05,297.24 296.82,297.29 296.62,297.34 C 296.41,297.38 296.22,297.43 296.05,297.48 C 295.87,297.54 295.72,297.59 295.58,297.64 C 295.44,297.69 295.32,297.75 295.21,297.80 C 295.11,297.86 295.02,297.92 294.95,297.98 C 294.87,298.04 294.82,298.10 294.78,298.16 C 294.74,298.22 294.72,298.27 294.72,298.34 C 294.72,298.42 294.74,298.51 294.78,298.61 C 294.82,298.71 294.89,298.83 294.97,298.95 C 295.05,299.08 295.16,299.22 295.28,299.38 C 295.41,299.53 295.55,299.70 295.72,299.88 C 295.89,300.05 296.07,300.25 296.28,300.45 C 296.49,300.66 296.72,300.88 296.97,301.11 C 297.22,301.34 297.49,301.59 297.78,301.84 C 298.07,302.10 298.35,302.40 298.72,302.66 C 299.09,302.91 299.53,303.15 300.02,303.37 C 300.52,303.59 301.08,303.79 301.70,303.98 C 302.31,304.16 302.99,304.33 303.73,304.48 C 304.48,304.64 305.28,304.77 306.14,304.89 C 307.00,305.01 307.93,305.11 308.91,305.20 C 309.90,305.28 310.95,305.35 312.05,305.40 C 313.16,305.45 314.33,305.48 315.56,305.50 C 316.79,305.52 318.22,305.49 319.44,305.50 C 320.66,305.51 321.81,305.53 322.89,305.56 C 323.97,305.59 324.98,305.64 325.92,305.69 C 326.86,305.74 327.73,305.80 328.53,305.88 C 329.33,305.95 330.06,306.03 330.72,306.12 C 331.38,306.22 331.97,306.32 332.48,306.44 C 333.00,306.55 333.45,306.68 333.83,306.81 C 334.21,306.95 334.51,307.09 334.75,307.25 C 334.99,307.41 335.03,307.60 335.25,307.75 C 335.47,307.90 335.74,308.05 336.05,308.18 C 336.37,308.31 336.74,308.43 337.16,308.54 C 337.58,308.65 338.06,308.74 338.58,308.83 C 339.10,308.91 339.67,308.99 340.30,309.05 C 340.92,309.11 341.60,309.16 342.32,309.20 C 343.05,309.23 343.82,309.26 344.65,309.27 C 345.48,309.29 346.35,309.29 347.28,309.28 C 348.21,309.27 349.31,309.23 350.22,309.22 C 351.13,309.21 351.97,309.20 352.73,309.20 C 353.50,309.21 354.20,309.22 354.83,309.23 C 355.46,309.25 356.01,309.28 356.50,309.31 C 356.99,309.35 357.40,309.39 357.75,309.44 C 358.10,309.49 358.37,309.54 358.58,309.61 C 358.78,309.67 358.92,309.75 358.98,309.83 C 359.05,309.91 359.04,310.00 358.97,310.09 C 358.89,310.19 358.71,310.30 358.53,310.41 C 358.35,310.51 358.13,310.61 357.88,310.71 C 357.63,310.81 357.35,310.91 357.02,311.01 C 356.70,311.11 356.35,311.20 355.95,311.30 C 355.56,311.39 355.13,311.49 354.67,311.58 C 354.21,311.67 353.71,311.76 353.18,311.85 C 352.65,311.94 352.08,312.03 351.48,312.12 C 350.87,312.20 350.24,312.29 349.56,312.38 C 348.89,312.46 348.20,312.44 347.44,312.62 C 346.68,312.81 345.87,313.08 345.01,313.46 C 344.15,313.84 343.24,314.31 342.27,314.88 C 341.31,315.45 340.30,316.12 339.23,316.89 C 338.17,317.66 337.06,318.52 335.89,319.48 C 334.73,320.45 333.51,321.51 332.24,322.66 C 330.98,323.82 329.66,325.08 328.29,326.43 C 326.92,327.78 325.50,329.23 324.03,330.78 C 322.56,332.33 320.91,334.15 319.47,335.72 C 318.03,337.28 316.68,338.77 315.41,340.17 C 314.14,341.58 312.95,342.90 311.84,344.14 C 310.74,345.38 309.72,346.54 308.78,347.62 C 307.84,348.71 306.99,349.71 306.22,350.62 C 305.45,351.54 304.76,352.38 304.16,353.14 C 303.55,353.90 303.03,354.58 302.59,355.17 C 302.16,355.77 301.80,356.28 301.53,356.72 C 301.26,357.15 301.20,357.45 300.97,357.78 C 300.74,358.11 300.46,358.42 300.15,358.71 C 299.83,359.00 299.47,359.26 299.07,359.51 C 298.67,359.75 298.22,359.97 297.73,360.17 C 297.25,360.37 296.71,360.55 296.14,360.70 C 295.57,360.86 294.95,360.99 294.29,361.10 C 293.63,361.21 292.93,361.30 292.18,361.37 C 291.43,361.43 290.64,361.48 289.81,361.50 Z" />
    </clipPath>
  </defs>
  <path d="M 289.81,361.50 C 288.98,361.52 288.02,361.52 287.19,361.50 C 286.35,361.48 285.56,361.43 284.80,361.35 C 284.05,361.28 283.34,361.18 282.66,361.05 C 281.99,360.93 281.36,360.78 280.77,360.61 C 280.17,360.44 279.62,360.24 279.11,360.02 C 278.60,359.79 278.13,359.55 277.70,359.27 C 277.26,359.00 276.87,358.70 276.52,358.38 C 276.17,358.06 275.86,357.71 275.59,357.34 C 275.32,356.97 275.14,356.60 274.91,356.16 C 274.67,355.72 274.42,355.24 274.16,354.71 C 273.91,354.19 273.64,353.62 273.37,353.01 C 273.09,352.40 272.81,351.74 272.52,351.05 C 272.22,350.35 271.92,349.61 271.61,348.83 C 271.30,348.05 270.98,347.22 270.65,346.35 C 270.32,345.48 269.98,344.57 269.63,343.62 C 269.29,342.66 268.93,341.67 268.56,340.62 C 268.20,339.58 267.85,338.44 267.44,337.38 C 267.03,336.31 266.59,335.27 266.12,334.24 C 265.64,333.22 265.14,332.21 264.60,331.23 C 264.06,330.24 263.49,329.27 262.89,328.33 C 262.29,327.38 261.65,326.45 260.98,325.55 C 260.32,324.64 259.62,323.75 258.88,322.88 C 258.15,322.01 257.38,321.17 256.59,320.34 C 255.79,319.51 254.96,318.70 254.09,317.91 C 253.23,317.12 252.28,316.33 251.41,315.59 C 250.53,314.86 249.68,314.15 248.85,313.48 C 248.02,312.80 247.21,312.16 246.43,311.55 C 245.64,310.95 244.88,310.37 244.14,309.83 C 243.40,309.29 242.68,308.77 241.98,308.30 C 241.29,307.82 240.61,307.37 239.96,306.96 C 239.31,306.55 238.68,306.17 238.07,305.82 C 237.46,305.47 236.88,305.16 236.31,304.88 C 235.75,304.59 235.25,304.41 234.69,304.12 C 234.12,303.84 233.53,303.52 232.92,303.17 C 232.31,302.82 231.67,302.43 231.02,302.02 C 230.36,301.60 229.67,301.14 228.97,300.66 C 228.26,300.17 227.53,299.65 226.78,299.09 C 226.03,298.54 225.25,297.95 224.45,297.33 C 223.65,296.71 222.83,296.05 221.98,295.36 C 221.14,294.67 220.27,293.95 219.38,293.19 C 218.48,292.43 217.50,291.57 216.62,290.81 C 215.75,290.06 214.92,289.33 214.13,288.65 C 213.35,287.96 212.60,287.31 211.90,286.70 C 211.20,286.08 210.54,285.50 209.92,284.95 C 209.31,284.41 208.73,283.90 208.20,283.42 C 207.67,282.95 207.19,282.51 206.74,282.10 C 206.30,281.70 205.90,281.33 205.54,280.99 C 205.18,280.66 204.87,280.36 204.59,280.09 C 204.32,279.83 204.12,279.63 203.91,279.41 C 203.69,279.18 203.49,278.96 203.30,278.74 C 203.12,278.52 202.95,278.31 202.79,278.10 C 202.63,277.89 202.49,277.69 202.36,277.48 C 202.23,277.28 202.12,277.08 202.02,276.89 C 201.92,276.70 201.83,276.51 201.76,276.32 C 201.69,276.13 201.63,275.95 201.59,275.77 C 201.54,275.60 201.51,275.42 201.50,275.25 C 201.49,275.08 201.49,274.91 201.50,274.75 C 201.51,274.59 201.54,274.44 201.59,274.30 C 201.63,274.17 201.69,274.04 201.76,273.91 C 201.83,273.79 201.92,273.68 202.02,273.58 C 202.12,273.48 202.23,273.38 202.36,273.30 C 202.49,273.21 202.63,273.14 202.79,273.07 C 202.95,273.00 203.12,272.95 203.30,272.90 C 203.49,272.85 203.69,272.81 203.91,272.78 C 204.12,272.75 204.38,272.75 204.59,272.72 C 204.81,272.69 205.01,272.66 205.20,272.62 C 205.38,272.58 205.55,272.53 205.71,272.48 C 205.87,272.42 206.01,272.36 206.14,272.30 C 206.27,272.23 206.38,272.16 206.48,272.08 C 206.58,272.00 206.67,271.91 206.74,271.82 C 206.81,271.73 206.87,271.63 206.91,271.52 C 206.96,271.42 206.99,271.31 207.00,271.19 C 207.01,271.07 207.09,270.93 207.00,270.81 C 206.91,270.69 206.73,270.57 206.47,270.45 C 206.20,270.34 205.85,270.22 205.41,270.11 C 204.96,270.00 204.43,269.89 203.81,269.78 C 203.19,269.67 202.48,269.57 201.69,269.47 C 200.89,269.37 200.01,269.27 199.03,269.17 C 198.06,269.08 196.99,268.98 195.84,268.89 C 194.69,268.80 193.45,268.71 192.12,268.62 C 190.80,268.54 189.24,268.47 187.88,268.38 C 186.51,268.28 185.20,268.18 183.94,268.08 C 182.68,267.97 181.47,267.86 180.31,267.73 C 179.16,267.61 178.05,267.48 177.00,267.34 C 175.95,267.21 174.95,267.06 174.00,266.91 C 173.05,266.75 172.16,266.59 171.31,266.42 C 170.47,266.25 169.68,266.08 168.94,265.89 C 168.20,265.71 167.51,265.51 166.88,265.31 C 166.24,265.11 165.69,264.89 165.12,264.69 C 164.56,264.48 164.02,264.27 163.51,264.07 C 162.99,263.87 162.50,263.66 162.02,263.46 C 161.55,263.26 161.10,263.06 160.67,262.86 C 160.24,262.66 159.84,262.46 159.45,262.27 C 159.07,262.07 158.71,261.87 158.37,261.68 C 158.03,261.49 157.71,261.29 157.41,261.10 C 157.12,260.91 156.85,260.72 156.59,260.53 C 156.34,260.34 156.12,260.16 155.91,259.97 C 155.69,259.78 155.49,259.59 155.30,259.40 C 155.12,259.21 154.95,259.01 154.79,258.82 C 154.63,258.63 154.49,258.43 154.36,258.23 C 154.23,258.04 154.12,257.84 154.02,257.64 C 153.92,257.44 153.83,257.24 153.76,257.04 C 153.69,256.84 153.63,256.63 153.59,256.43 C 153.54,256.23 153.51,256.02 153.50,255.81 C 153.49,255.61 153.49,255.39 153.50,255.19 C 153.51,254.98 153.54,254.77 153.59,254.57 C 153.63,254.37 153.69,254.16 153.76,253.96 C 153.83,253.76 153.92,253.56 154.02,253.36 C 154.12,253.16 154.23,252.96 154.36,252.77 C 154.49,252.57 154.63,252.37 154.79,252.18 C 154.95,251.99 155.12,251.79 155.30,251.60 C 155.49,251.41 155.69,251.22 155.91,251.03 C 156.12,250.84 156.33,250.66 156.59,250.47 C 156.86,250.28 157.15,250.08 157.48,249.88 C 157.80,249.68 158.16,249.48 158.55,249.27 C 158.95,249.07 159.37,248.86 159.83,248.64 C 160.29,248.43 160.77,248.21 161.30,247.98 C 161.82,247.76 162.37,247.54 162.96,247.30 C 163.55,247.07 164.17,246.84 164.82,246.60 C 165.47,246.36 166.16,246.12 166.88,245.88 C 167.59,245.63 168.34,245.36 169.12,245.12 C 169.91,244.89 170.72,244.66 171.56,244.45 C 172.41,244.24 173.28,244.04 174.19,243.86 C 175.09,243.67 176.03,243.50 177.00,243.34 C 177.97,243.18 178.97,243.04 180.00,242.91 C 181.03,242.77 182.09,242.65 183.19,242.55 C 184.28,242.44 185.41,242.35 186.56,242.27 C 187.72,242.18 188.91,242.12 190.12,242.06 C 191.34,242.01 192.70,241.98 193.88,241.94 C 195.05,241.89 196.14,241.84 197.16,241.78 C 198.17,241.72 199.11,241.66 199.97,241.59 C 200.83,241.53 201.61,241.45 202.31,241.38 C 203.02,241.30 203.64,241.21 204.19,241.12 C 204.73,241.04 205.20,240.94 205.59,240.84 C 205.98,240.74 206.30,240.64 206.53,240.53 C 206.77,240.42 206.92,240.31 207.00,240.19 C 207.08,240.07 207.01,239.93 207.00,239.81 C 206.99,239.69 206.96,239.58 206.91,239.48 C 206.87,239.37 206.81,239.27 206.74,239.18 C 206.67,239.09 206.58,239.00 206.48,238.92 C 206.38,238.84 206.27,238.77 206.14,238.70 C 206.01,238.64 205.87,238.58 205.71,238.52 C 205.55,238.47 205.38,238.42 205.20,238.38 C 205.01,238.34 204.81,238.31 204.59,238.28 C 204.38,238.25 204.12,238.25 203.91,238.22 C 203.69,238.19 203.49,238.15 203.30,238.10 C 203.12,238.05 202.95,238.00 202.79,237.93 C 202.63,237.86 202.49,237.79 202.36,237.70 C 202.23,237.62 202.12,237.52 202.02,237.42 C 201.92,237.32 201.83,237.21 201.76,237.09 C 201.69,236.96 201.63,236.83 201.59,236.70 C 201.54,236.56 201.51,236.41 201.50,236.25 C 201.49,236.09 201.43,235.97 201.50,235.75 C 201.57,235.53 201.71,235.26 201.93,234.93 C 202.14,234.60 202.43,234.22 202.79,233.79 C 203.15,233.36 203.58,232.87 204.08,232.33 C 204.58,231.79 205.15,231.19 205.80,230.55 C 206.44,229.90 207.16,229.20 207.95,228.45 C 208.73,227.69 209.59,226.88 210.52,226.02 C 211.45,225.16 212.46,224.25 213.53,223.28 C 214.61,222.31 215.86,221.19 216.97,220.22 C 218.08,219.25 219.15,218.32 220.18,217.45 C 221.21,216.57 222.21,215.74 223.16,214.96 C 224.12,214.18 225.04,213.45 225.92,212.77 C 226.80,212.08 227.65,211.45 228.45,210.86 C 229.26,210.27 230.03,209.73 230.76,209.24 C 231.49,208.75 232.18,208.31 232.84,207.91 C 233.49,207.52 234.11,207.17 234.69,206.88 C 235.27,206.58 235.75,206.41 236.31,206.12 C 236.88,205.84 237.46,205.53 238.07,205.18 C 238.68,204.83 239.31,204.45 239.96,204.04 C 240.61,203.63 241.29,203.18 241.98,202.70 C 242.68,202.23 243.40,201.71 244.14,201.17 C 244.88,200.63 245.64,200.05 246.43,199.45 C 247.21,198.84 248.02,198.20 248.85,197.52 C 249.68,196.85 250.53,196.14 251.41,195.41 C 252.28,194.67 253.23,193.88 254.09,193.09 C 254.96,192.30 255.79,191.49 256.59,190.66 C 257.38,189.83 258.15,188.99 258.88,188.12 C 259.62,187.25 260.32,186.36 260.98,185.45 C 261.65,184.55 262.29,183.62 262.89,182.67 C 263.49,181.73 264.06,180.76 264.60,179.77 C 265.14,178.79 265.64,177.78 266.12,176.76 C 266.59,175.73 267.03,174.69 267.44,173.62 C 267.85,172.56 268.20,171.42 268.56,170.38 C 268.93,169.33 269.29,168.34 269.63,167.38 C 269.98,166.43 270.32,165.52 270.65,164.65 C 270.98,163.78 271.30,162.95 271.61,162.17 C 271.92,161.39 272.22,160.65 272.52,159.95 C 272.81,159.26 273.09,158.60 273.37,157.99 C 273.64,157.38 273.91,156.81 274.16,156.29 C 274.42,155.76 274.67,155.28 274.91,154.84 C 275.14,154.40 275.32,154.03 275.59,153.66 C 275.86,153.29 276.17,152.94 276.52,152.62 C 276.87,152.30 277.26,152.00 277.70,151.73 C 278.13,151.45 278.60,151.21 279.11,150.98 C 279.62,150.76 280.17,150.56 280.77,150.39 C 281.36,150.22 281.99,150.07 282.66,149.95 C 283.34,149.82 284.05,149.72 284.80,149.65 C 285.56,149.57 286.35,149.52 287.19,149.50 C 288.02,149.48 288.98,149.48 289.81,149.50 C 290.64,149.52 291.43,149.57 292.18,149.63 C 292.93,149.70 293.63,149.79 294.29,149.90 C 294.95,150.01 295.57,150.14 296.14,150.30 C 296.71,150.45 297.25,150.63 297.73,150.83 C 298.22,151.03 298.67,151.25 299.07,151.49 C 299.47,151.74 299.83,152.00 300.15,152.29 C 300.46,152.58 300.74,152.89 300.97,153.22 C 301.20,153.55 301.26,153.85 301.53,154.28 C 301.80,154.72 302.16,155.23 302.59,155.83 C 303.03,156.42 303.55,157.10 304.16,157.86 C 304.76,158.62 305.45,159.46 306.22,160.38 C 306.99,161.29 307.84,162.29 308.78,163.38 C 309.72,164.46 310.74,165.62 311.84,166.86 C 312.95,168.10 314.14,169.42 315.41,170.83 C 316.68,172.23 318.03,173.72 319.47,175.28 C 320.91,176.85 322.55,178.67 324.03,180.22 C 325.51,181.77 326.95,183.23 328.34,184.59 C 329.74,185.96 331.09,187.23 332.41,188.41 C 333.72,189.58 334.99,190.67 336.22,191.66 C 337.45,192.65 338.64,193.54 339.78,194.34 C 340.93,195.15 342.03,195.85 343.09,196.47 C 344.16,197.08 345.18,197.60 346.16,198.03 C 347.14,198.46 348.07,198.79 348.97,199.03 C 349.86,199.27 350.73,199.33 351.53,199.47 C 352.33,199.61 353.08,199.74 353.77,199.88 C 354.46,200.01 355.09,200.13 355.67,200.25 C 356.25,200.37 356.78,200.48 357.25,200.59 C 357.72,200.70 358.14,200.81 358.50,200.91 C 358.86,201.01 359.17,201.10 359.42,201.19 C 359.67,201.28 359.87,201.36 360.02,201.44 C 360.16,201.52 360.25,201.59 360.28,201.66 C 360.32,201.72 360.27,201.79 360.22,201.84 C 360.17,201.90 360.08,201.96 359.96,202.01 C 359.84,202.06 359.69,202.11 359.51,202.15 C 359.32,202.19 359.11,202.23 358.86,202.27 C 358.61,202.30 358.33,202.33 358.02,202.36 C 357.70,202.39 357.36,202.41 356.98,202.43 C 356.60,202.45 356.19,202.46 355.74,202.48 C 355.30,202.49 354.82,202.50 354.31,202.50 C 353.80,202.50 353.22,202.50 352.69,202.50 C 352.15,202.50 351.63,202.49 351.11,202.48 C 350.59,202.48 350.08,202.47 349.58,202.45 C 349.08,202.44 348.58,202.42 348.09,202.41 C 347.61,202.39 347.13,202.37 346.66,202.34 C 346.18,202.32 345.72,202.29 345.27,202.27 C 344.81,202.24 344.36,202.21 343.92,202.17 C 343.48,202.14 343.05,202.10 342.62,202.06 C 342.20,202.02 341.78,201.97 341.38,201.94 C 340.97,201.91 340.59,201.89 340.22,201.89 C 339.85,201.89 339.49,201.90 339.16,201.92 C 338.82,201.95 338.49,201.98 338.19,202.03 C 337.88,202.08 337.59,202.14 337.31,202.22 C 337.04,202.29 336.78,202.38 336.53,202.48 C 336.29,202.59 336.06,202.70 335.84,202.83 C 335.63,202.96 335.43,203.10 335.25,203.25 C 335.07,203.40 334.99,203.59 334.75,203.75 C 334.51,203.91 334.21,204.05 333.83,204.19 C 333.45,204.32 333.00,204.45 332.48,204.56 C 331.97,204.68 331.38,204.78 330.72,204.88 C 330.06,204.97 329.33,205.05 328.53,205.12 C 327.73,205.20 326.86,205.26 325.92,205.31 C 324.98,205.36 323.97,205.41 322.89,205.44 C 321.81,205.47 320.66,205.49 319.44,205.50 C 318.22,205.51 316.79,205.48 315.56,205.50 C 314.33,205.52 313.16,205.55 312.05,205.60 C 310.95,205.65 309.90,205.72 308.91,205.80 C 307.93,205.89 307.00,205.99 306.14,206.11 C 305.28,206.23 304.48,206.36 303.73,206.52 C 302.99,206.67 302.31,206.84 301.70,207.02 C 301.08,207.21 300.52,207.41 300.02,207.63 C 299.53,207.85 299.09,208.09 298.72,208.34 C 298.35,208.60 298.07,208.90 297.78,209.16 C 297.49,209.41 297.22,209.66 296.97,209.89 C 296.72,210.12 296.49,210.34 296.28,210.55 C 296.07,210.75 295.89,210.95 295.72,211.12 C 295.55,211.30 295.41,211.47 295.28,211.62 C 295.16,211.78 295.05,211.92 294.97,212.05 C 294.89,212.17 294.82,212.29 294.78,212.39 C 294.74,212.49 294.72,212.58 294.72,212.66 C 294.72,212.73 294.74,212.78 294.78,212.84 C 294.82,212.90 294.87,212.96 294.95,213.02 C 295.02,213.08 295.11,213.14 295.21,213.20 C 295.32,213.25 295.44,213.31 295.58,213.36 C 295.72,213.41 295.87,213.46 296.05,213.52 C 296.22,213.57 296.41,213.62 296.62,213.66 C 296.82,213.71 297.05,213.76 297.29,213.80 C 297.53,213.85 297.79,213.89 298.06,213.94 C 298.34,213.98 298.65,214.01 298.94,214.06 C 299.23,214.12 299.52,214.18 299.81,214.27 C 300.10,214.35 300.40,214.44 300.69,214.55 C 300.98,214.65 301.27,214.77 301.56,214.91 C 301.85,215.04 302.15,215.18 302.44,215.34 C 302.73,215.50 303.02,215.67 303.31,215.86 C 303.60,216.04 303.90,216.24 304.19,216.45 C 304.48,216.66 304.77,216.89 305.06,217.12 C 305.35,217.36 305.62,217.64 305.94,217.88 C 306.25,218.11 306.58,218.34 306.94,218.56 C 307.29,218.78 307.67,218.99 308.06,219.19 C 308.46,219.39 308.88,219.57 309.31,219.75 C 309.75,219.93 310.21,220.09 310.69,220.25 C 311.17,220.41 311.67,220.55 312.19,220.69 C 312.71,220.82 313.25,220.95 313.81,221.06 C 314.38,221.18 314.96,221.28 315.56,221.38 C 316.17,221.47 316.81,221.54 317.44,221.62 C 318.06,221.71 318.69,221.78 319.31,221.86 C 319.94,221.93 320.56,222.01 321.19,222.08 C 321.81,222.15 322.44,222.22 323.06,222.28 C 323.69,222.35 324.31,222.41 324.94,222.47 C 325.56,222.53 326.19,222.59 326.81,222.64 C 327.44,222.70 328.06,222.75 328.69,222.80 C 329.31,222.85 329.94,222.89 330.56,222.94 C 331.19,222.98 331.83,223.04 332.44,223.06 C 333.05,223.09 333.65,223.10 334.23,223.09 C 334.82,223.09 335.39,223.07 335.95,223.03 C 336.51,222.99 337.06,222.94 337.59,222.88 C 338.13,222.81 338.65,222.72 339.16,222.62 C 339.66,222.53 340.16,222.41 340.64,222.28 C 341.12,222.15 341.59,222.01 342.05,221.84 C 342.50,221.68 342.95,221.51 343.38,221.31 C 343.80,221.12 344.18,220.88 344.62,220.69 C 345.07,220.50 345.53,220.33 346.02,220.17 C 346.50,220.02 347.01,219.88 347.55,219.77 C 348.08,219.65 348.64,219.55 349.22,219.47 C 349.80,219.39 350.40,219.33 351.03,219.28 C 351.66,219.24 352.31,219.21 352.98,219.20 C 353.66,219.20 354.36,219.21 355.08,219.23 C 355.80,219.26 356.54,219.31 357.31,219.38 C 358.08,219.44 358.95,219.54 359.69,219.62 C 360.42,219.71 361.10,219.81 361.71,219.91 C 362.33,220.02 362.88,220.13 363.38,220.24 C 363.88,220.36 364.32,220.48 364.70,220.61 C 365.08,220.74 365.41,220.87 365.67,221.02 C 365.94,221.16 366.14,221.31 366.29,221.46 C 366.44,221.62 366.52,221.78 366.55,221.95 C 366.58,222.11 366.56,222.29 366.47,222.47 C 366.38,222.65 366.16,222.85 366.03,223.03 C 365.90,223.21 365.80,223.38 365.71,223.54 C 365.62,223.70 365.56,223.85 365.51,223.99 C 365.46,224.13 365.43,224.27 365.42,224.39 C 365.41,224.51 365.42,224.63 365.45,224.73 C 365.48,224.84 365.53,224.94 365.60,225.02 C 365.67,225.11 365.76,225.19 365.87,225.26 C 365.98,225.33 366.10,225.39 366.25,225.44 C 366.40,225.49 366.61,225.52 366.75,225.56 C 366.89,225.60 367.01,225.64 367.10,225.68 C 367.19,225.72 367.26,225.75 367.30,225.79 C 367.35,225.82 367.37,225.86 367.36,225.89 C 367.35,225.92 367.32,225.95 367.27,225.98 C 367.21,226.01 367.13,226.04 367.02,226.07 C 366.92,226.10 366.79,226.12 366.63,226.15 C 366.48,226.17 366.30,226.20 366.09,226.22 C 365.89,226.24 365.63,226.26 365.41,226.28 C 365.18,226.31 364.97,226.34 364.77,226.38 C 364.56,226.41 364.36,226.45 364.17,226.50 C 363.98,226.55 363.80,226.60 363.62,226.66 C 363.45,226.71 363.28,226.78 363.12,226.84 C 362.97,226.91 362.82,226.98 362.67,227.06 C 362.53,227.14 362.39,227.22 362.27,227.31 C 362.14,227.40 362.02,227.49 361.91,227.59 C 361.79,227.69 361.68,227.80 361.59,227.91 C 361.50,228.01 361.42,228.12 361.36,228.23 C 361.29,228.35 361.24,228.46 361.20,228.58 C 361.16,228.70 361.14,228.82 361.12,228.94 C 361.11,229.06 361.11,229.18 361.12,229.31 C 361.14,229.44 361.16,229.57 361.20,229.70 C 361.24,229.84 361.29,229.97 361.36,230.11 C 361.42,230.25 361.50,230.39 361.59,230.53 C 361.68,230.67 361.78,230.82 361.91,230.97 C 362.03,231.12 362.18,231.27 362.35,231.43 C 362.52,231.59 362.71,231.75 362.93,231.91 C 363.14,232.08 363.38,232.25 363.64,232.42 C 363.90,232.60 364.18,232.77 364.48,232.95 C 364.79,233.13 365.11,233.32 365.46,233.51 C 365.81,233.70 366.18,233.89 366.57,234.09 C 366.96,234.28 367.38,234.48 367.81,234.69 C 368.25,234.89 368.69,235.11 369.19,235.31 C 369.68,235.52 370.21,235.72 370.78,235.92 C 371.35,236.12 371.95,236.32 372.59,236.52 C 373.23,236.71 373.91,236.90 374.62,237.09 C 375.34,237.28 376.09,237.47 376.88,237.66 C 377.66,237.84 378.48,238.02 379.34,238.20 C 380.20,238.38 381.10,238.56 382.03,238.73 C 382.96,238.91 383.93,239.08 384.94,239.25 C 385.94,239.42 387.07,239.56 388.06,239.75 C 389.06,239.94 390.00,240.17 390.90,240.41 C 391.80,240.66 392.64,240.94 393.45,241.24 C 394.25,241.55 395.00,241.88 395.70,242.23 C 396.41,242.59 397.06,242.98 397.67,243.39 C 398.28,243.80 398.84,244.24 399.35,244.71 C 399.86,245.18 400.33,245.67 400.74,246.20 C 401.16,246.72 401.52,247.27 401.84,247.84 C 402.16,248.42 402.42,249.05 402.66,249.66 C 402.89,250.26 403.10,250.86 403.27,251.45 C 403.43,252.05 403.57,252.64 403.67,253.23 C 403.77,253.83 403.84,254.41 403.88,255.00 C 403.91,255.59 403.91,256.17 403.88,256.75 C 403.84,257.33 403.77,257.91 403.67,258.48 C 403.57,259.06 403.43,259.63 403.27,260.20 C 403.10,260.77 402.89,261.34 402.66,261.91 C 402.42,262.47 402.16,263.06 401.84,263.59 C 401.52,264.13 401.16,264.64 400.74,265.13 C 400.33,265.62 399.86,266.08 399.35,266.52 C 398.84,266.96 398.28,267.38 397.67,267.77 C 397.06,268.15 396.41,268.52 395.70,268.86 C 395.00,269.20 394.25,269.51 393.45,269.80 C 392.64,270.10 391.80,270.36 390.90,270.60 C 390.00,270.84 389.06,271.06 388.06,271.25 C 387.07,271.44 385.94,271.58 384.94,271.75 C 383.93,271.92 382.96,272.09 382.03,272.27 C 381.10,272.44 380.20,272.62 379.34,272.80 C 378.48,272.98 377.66,273.16 376.88,273.34 C 376.09,273.53 375.34,273.72 374.62,273.91 C 373.91,274.10 373.23,274.29 372.59,274.48 C 371.95,274.68 371.35,274.88 370.78,275.08 C 370.21,275.28 369.68,275.48 369.19,275.69 C 368.69,275.89 368.25,276.11 367.81,276.31 C 367.38,276.52 366.96,276.72 366.57,276.91 C 366.18,277.11 365.81,277.30 365.46,277.49 C 365.11,277.68 364.79,277.87 364.48,278.05 C 364.18,278.23 363.90,278.40 363.64,278.58 C 363.38,278.75 363.14,278.92 362.93,279.09 C 362.71,279.25 362.52,279.41 362.35,279.57 C 362.18,279.73 362.03,279.88 361.91,280.03 C 361.78,280.18 361.68,280.33 361.59,280.47 C 361.50,280.61 361.42,280.75 361.36,280.89 C 361.29,281.03 361.24,281.16 361.20,281.30 C 361.16,281.43 361.14,281.56 361.12,281.69 C 361.11,281.82 361.11,281.94 361.12,282.06 C 361.14,282.18 361.16,282.30 361.20,282.42 C 361.24,282.54 361.29,282.65 361.36,282.77 C 361.42,282.88 361.50,282.99 361.59,283.09 C 361.68,283.20 361.79,283.31 361.91,283.41 C 362.02,283.51 362.14,283.60 362.27,283.69 C 362.39,283.78 362.53,283.86 362.67,283.94 C 362.82,284.02 362.97,284.09 363.12,284.16 C 363.28,284.22 363.45,284.29 363.62,284.34 C 363.80,284.40 363.98,284.45 364.17,284.50 C 364.36,284.55 364.56,284.59 364.77,284.62 C 364.97,284.66 365.18,284.69 365.41,284.72 C 365.63,284.74 365.89,284.76 366.09,284.78 C 366.30,284.80 366.48,284.83 366.63,284.85 C 366.79,284.88 366.92,284.90 367.02,284.93 C 367.13,284.96 367.21,284.99 367.27,285.02 C 367.32,285.05 367.35,285.08 367.36,285.11 C 367.37,285.14 367.35,285.18 367.30,285.21 C 367.26,285.25 367.19,285.28 367.10,285.32 C 367.01,285.36 366.89,285.40 366.75,285.44 C 366.61,285.48 366.40,285.51 366.25,285.56 C 366.10,285.61 365.98,285.67 365.87,285.74 C 365.76,285.81 365.67,285.89 365.60,285.98 C 365.53,286.06 365.48,286.16 365.45,286.27 C 365.42,286.37 365.41,286.49 365.42,286.61 C 365.43,286.73 365.46,286.87 365.51,287.01 C 365.56,287.15 365.62,287.30 365.71,287.46 C 365.80,287.62 365.90,287.79 366.03,287.97 C 366.16,288.15 366.38,288.35 366.47,288.53 C 366.56,288.71 366.58,288.89 366.55,289.05 C 366.52,289.22 366.44,289.38 366.29,289.54 C 366.14,289.69 365.94,289.84 365.67,289.98 C 365.41,290.13 365.08,290.26 364.70,290.39 C 364.32,290.52 363.88,290.64 363.38,290.76 C 362.88,290.87 362.33,290.98 361.71,291.09 C 361.10,291.19 360.42,291.29 359.69,291.38 C 358.95,291.46 358.08,291.56 357.31,291.62 C 356.54,291.69 355.80,291.74 355.08,291.77 C 354.36,291.79 353.66,291.80 352.98,291.80 C 352.31,291.79 351.66,291.76 351.03,291.72 C 350.40,291.67 349.80,291.61 349.22,291.53 C 348.64,291.45 348.08,291.35 347.55,291.23 C 347.01,291.12 346.50,290.98 346.02,290.83 C 345.53,290.67 345.07,290.50 344.62,290.31 C 344.18,290.12 343.80,289.88 343.38,289.69 C 342.95,289.49 342.50,289.32 342.05,289.16 C 341.59,288.99 341.12,288.85 340.64,288.72 C 340.16,288.59 339.66,288.47 339.16,288.38 C 338.65,288.28 338.13,288.19 337.59,288.12 C 337.06,288.06 336.51,288.01 335.95,287.97 C 335.39,287.93 334.82,287.91 334.23,287.91 C 333.65,287.90 333.05,287.91 332.44,287.94 C 331.83,287.96 331.19,288.02 330.56,288.06 C 329.93,288.11 329.30,288.15 328.67,288.20 C 328.04,288.25 327.40,288.30 326.77,288.36 C 326.13,288.41 325.49,288.47 324.84,288.53 C 324.20,288.59 323.55,288.65 322.91,288.72 C 322.26,288.78 321.61,288.85 320.95,288.92 C 320.30,288.99 319.64,289.07 318.98,289.14 C 318.33,289.22 317.66,289.29 317.00,289.38 C 316.34,289.46 315.64,289.53 315.00,289.62 C 314.36,289.72 313.74,289.82 313.16,289.94 C 312.57,290.05 312.01,290.18 311.47,290.31 C 310.93,290.45 310.42,290.59 309.94,290.75 C 309.45,290.91 308.99,291.07 308.56,291.25 C 308.13,291.43 307.72,291.61 307.34,291.81 C 306.96,292.01 306.61,292.22 306.28,292.44 C 305.95,292.66 305.65,292.89 305.38,293.12 C 305.10,293.36 304.88,293.64 304.62,293.88 C 304.37,294.11 304.12,294.34 303.86,294.55 C 303.60,294.76 303.34,294.96 303.08,295.14 C 302.82,295.33 302.55,295.50 302.28,295.66 C 302.01,295.82 301.74,295.96 301.47,296.09 C 301.20,296.23 300.92,296.35 300.64,296.45 C 300.36,296.56 300.08,296.65 299.80,296.73 C 299.51,296.82 299.23,296.88 298.94,296.94 C 298.65,296.99 298.34,297.02 298.06,297.06 C 297.79,297.11 297.53,297.15 297.29,297.20 C 297.05,297.24 296.82,297.29 296.62,297.34 C 296.41,297.38 296.22,297.43 296.05,297.48 C 295.87,297.54 295.72,297.59 295.58,297.64 C 295.44,297.69 295.32,297.75 295.21,297.80 C 295.11,297.86 295.02,297.92 294.95,297.98 C 294.87,298.04 294.82,298.10 294.78,298.16 C 294.74,298.22 294.72,298.27 294.72,298.34 C 294.72,298.42 294.74,298.51 294.78,298.61 C 294.82,298.71 294.89,298.83 294.97,298.95 C 295.05,299.08 295.16,299.22 295.28,299.38 C 295.41,299.53 295.55,299.70 295.72,299.88 C 295.89,300.05 296.07,300.25 296.28,300.45 C 296.49,300.66 296.72,300.88 296.97,301.11 C 297.22,301.34 297.49,301.59 297.78,301.84 C 298.07,302.10 298.35,302.40 298.72,302.66 C 299.09,302.91 299.53,303.15 300.02,303.37 C 300.52,303.59 301.08,303.79 301.70,303.98 C 302.31,304.16 302.99,304.33 303.73,304.48 C 304.48,304.64 305.28,304.77 306.14,304.89 C 307.00,305.01 307.93,305.11 308.91,305.20 C 309.90,305.28 310.95,305.35 312.05,305.40 C 313.16,305.45 314.33,305.48 315.56,305.50 C 316.79,305.52 318.22,305.49 319.44,305.50 C 320.66,305.51 321.81,305.53 322.89,305.56 C 323.97,305.59 324.98,305.64 325.92,305.69 C 326.86,305.74 327.73,305.80 328.53,305.88 C 329.33,305.95 330.06,306.03 330.72,306.12 C 331.38,306.22 331.97,306.32 332.48,306.44 C 333.00,306.55 333.45,306.68 333.83,306.81 C 334.21,306.95 334.51,307.09 334.75,307.25 C 334.99,307.41 335.03,307.60 335.25,307.75 C 335.47,307.90 335.74,308.05 336.05,308.18 C 336.37,308.31 336.74,308.43 337.16,308.54 C 337.58,308.65 338.06,308.74 338.58,308.83 C 339.10,308.91 339.67,308.99 340.30,309.05 C 340.92,309.11 341.60,309.16 342.32,309.20 C 343.05,309.23 343.82,309.26 344.65,309.27 C 345.48,309.29 346.35,309.29 347.28,309.28 C 348.21,309.27 349.31,309.23 350.22,309.22 C 351.13,309.21 351.97,309.20 352.73,309.20 C 353.50,309.21 354.20,309.22 354.83,309.23 C 355.46,309.25 356.01,309.28 356.50,309.31 C 356.99,309.35 357.40,309.39 357.75,309.44 C 358.10,309.49 358.37,309.54 358.58,309.61 C 358.78,309.67 358.92,309.75 358.98,309.83 C 359.05,309.91 359.04,310.00 358.97,310.09 C 358.89,310.19 358.71,310.30 358.53,310.41 C 358.35,310.51 358.13,310.61 357.88,310.71 C 357.63,310.81 357.35,310.91 357.02,311.01 C 356.70,311.11 356.35,311.20 355.95,311.30 C 355.56,311.39 355.13,311.49 354.67,311.58 C 354.21,311.67 353.71,311.76 353.18,311.85 C 352.65,311.94 352.08,312.03 351.48,312.12 C 350.87,312.20 350.24,312.29 349.56,312.38 C 348.89,312.46 348.20,312.44 347.44,312.62 C 346.68,312.81 345.87,313.08 345.01,313.46 C 344.15,313.84 343.24,314.31 342.27,314.88 C 341.31,315.45 340.30,316.12 339.23,316.89 C 338.17,317.66 337.06,318.52 335.89,319.48 C 334.73,320.45 333.51,321.51 332.24,322.66 C 330.98,323.82 329.66,325.08 328.29,326.43 C 326.92,327.78 325.50,329.23 324.03,330.78 C 322.56,332.33 320.91,334.15 319.47,335.72 C 318.03,337.28 316.68,338.77 315.41,340.17 C 314.14,341.58 312.95,342.90 311.84,344.14 C 310.74,345.38 309.72,346.54 308.78,347.62 C 307.84,348.71 306.99,349.71 306.22,350.62 C 305.45,351.54 304.76,352.38 304.16,353.14 C 303.55,353.90 303.03,354.58 302.59,355.17 C 302.16,355.77 301.80,356.28 301.53,356.72 C 301.26,357.15 301.20,357.45 300.97,357.78 C 300.74,358.11 300.46,358.42 300.15,358.71 C 299.83,359.00 299.47,359.26 299.07,359.51 C 298.67,359.75 298.22,359.97 297.73,360.17 C 297.25,360.37 296.71,360.55 296.14,360.70 C 295.57,360.86 294.95,360.99 294.29,361.10 C 293.63,361.21 292.93,361.30 292.18,361.37 C 291.43,361.43 290.64,361.48 289.81,361.50 Z" stroke="none" fill="currentColor" opacity="0.11" />
  <path d="M181.74,262.50L175.02,262.51 M175.02,249.48L181.74,249.49 M177.85,257.76L185.81,257.76 M177.85,254.04L185.81,254.04 M260.89,231.42L249.06,242.29 M284.91,248.52L294.76,248.37 M275.16,251.70L263.15,251.68 M263.15,251.68L252.95,251.66 M308.17,263.55L304.33,271.21 M284.94,263.73L285.49,274.52 M203.75,257.95L232.75,257.95 M203.75,257.24L232.75,257.24 M216.59,261.30L199.46,261.18 M203.75,254.05L232.75,254.05 M203.75,254.76L232.75,254.76 M241.14,271.82L249.95,273.02 M241.14,240.19L249.95,238.98 M201.81,257.07L193.04,257.07 M201.81,254.93L193.04,254.93 M216.59,250.70L199.46,250.82 M260.91,280.52L248.84,270.06 M249.80,275.16L242.09,273.55 M249.80,236.84L242.09,238.45 M326.62,272.76L345.83,270.76 M265.87,278.98L277.87,275.98 M322.81,263.18L312.72,263.49 M265.79,233.09L277.84,236.17 M312.72,248.51L319.03,248.64 M240.60,248.91L248.40,241.73 M248.40,241.73L259.53,231.49 M260.71,231.19L278.21,214.67 M278.21,214.67L261.40,230.59 M260.71,231.19L248.93,242.16 M248.48,270.36L259.52,280.52 M275.32,248.34L263.27,248.75 M271.16,272.32L271.18,263.78 M271.16,272.32L271.13,263.77 M271.13,263.77L271.16,272.40 M277.77,272.33L277.79,263.78 M277.77,272.33L277.74,263.77 M277.74,263.77L277.77,272.41 M275.32,263.65L263.27,263.24 M276.85,259.15L276.87,259.18 M238.22,221.20L221.57,236.65 M221.08,237.16L228.17,230.48 M230.17,230.07L236.69,229.71 M236.69,229.71L229.74,230.09 M236.69,229.71L229.69,229.73 M249.34,229.69L238.35,229.71 M249.34,229.69L238.35,229.71 M228.17,230.49L221.08,237.16 M245.95,243.22L223.42,242.82 M250.28,213.92L257.63,214.01 M232.66,226.58L222.18,236.33 M238.21,290.31L221.57,274.86 M230.17,281.44L236.68,281.80 M236.68,281.80L229.74,281.42 M236.68,281.80L229.69,281.78 M228.16,281.02L221.08,274.34 M249.33,281.82L238.35,281.80 M223.42,268.69L245.95,268.29 M250.28,297.59L257.63,297.49 M232.66,284.93L222.18,275.18 M285.76,244.78L274.68,244.53 M298.70,243.94L293.32,240.26 M350.68,219.95L345.74,222.57 M351.49,226.31L358.46,226.55 M346.20,230.91L353.17,231.15 M340.91,235.51L347.88,235.75 M298.74,294.98L303.11,290.09 M304.86,289.19L339.08,285.28 M353.17,280.86L346.20,281.09 M347.99,276.29L340.92,276.50 M222.61,259.22L210.35,259.35 M222.61,252.80L210.35,252.68 M238.14,259.11L224.99,259.20 M238.14,252.91L224.99,252.82 M259.75,278.10L255.13,273.69 M236.56,274.05L259.14,273.68 M236.91,273.15L255.13,273.69 M236.56,238.06L258.67,237.23 M236.91,238.88L252.76,241.97 M244.01,298.81L272.07,300.59 M228.18,244.40L220.67,245.72 M284.91,302.21L289.50,299.39 M289.50,299.39L285.07,301.51 M321.32,275.56L315.31,273.67 M231.14,269.99L255.13,273.69 M231.14,269.99L223.79,268.89 M213.43,267.39L222.27,268.67 M213.43,244.63L222.27,243.36 M321.32,236.44L315.31,238.33 M231.14,242.04L252.76,241.97 M231.14,242.04L223.79,243.14 M184.39,254.25L183.43,254.25 M345.99,273.74L335.51,272.19 M335.51,265.82L335.51,255.92 M345.99,238.09L335.51,239.65 M359.06,266.12L350.60,266.32 M359.06,261.79L350.60,261.99 M359.06,257.47L350.60,257.67 M359.06,253.15L350.60,253.35 M359.06,248.82L350.60,249.03 M359.06,244.50L350.60,244.70 M385.46,257.14L382.48,262.70 M385.46,257.14L381.11,264.19 M346.17,233.23L360.46,230.65 M334.63,267.03L334.72,277.97 M391.04,256.99L386.47,265.80 M391.04,255.01L386.31,245.97 M391.97,256.88L387.41,265.70 M391.97,256.88L386.16,266.78 M392.37,256.00L386.11,245.43 M391.97,255.12L387.25,246.07 M382.65,248.16L387.11,256.00 M383.04,248.59L387.11,256.00 M387.41,246.30L392.08,255.38 M340.45,256.00L340.45,272.62 M344.00,256.00L344.80,273.82 M344.80,238.17L344.00,256.00 M335.32,202.94L330.96,204.12 M294.07,193.93L276.00,190.63 M294.07,193.93L275.96,193.17 M330.62,199.42L342.93,200.25 M325.74,199.69L319.04,199.69 M325.74,201.27L319.04,201.27 M314.10,175.86L306.41,167.37 M314.10,175.86L303.03,163.63 M305.61,171.31L299.44,164.45 M314.21,179.60L300.07,163.90 M324.14,181.25L306.66,161.87 M307.19,161.91L324.65,181.22 M329.51,195.22L319.12,183.29 M327.83,195.08L316.92,182.97 M307.85,188.02L314.67,187.96 M342.20,200.45L348.90,200.90 M344.80,200.55L351.86,201.03 M336.48,201.08L349.43,201.95 M294.07,318.08L276.01,321.38 M294.07,318.08L275.96,318.83 M330.63,312.59L342.93,311.75 M325.73,310.65L319.02,310.65 M325.73,312.22L319.02,312.22 M319.12,328.71L329.51,316.78 M327.83,316.92L316.92,329.03 M339.59,314.18L324.93,330.48 M314.10,336.14L306.41,344.63 M314.10,336.14L303.03,348.37 M299.44,347.55L305.61,340.69 M313.89,332.41L299.68,348.11 M313.92,332.38L299.77,348.09 M324.14,330.75L306.66,350.13 M324.65,330.78L307.19,350.09 M288.16,303.37L276.27,310.70 M288.16,303.37L276.87,310.22 M288.16,303.37L278.37,309.95 M288.16,303.37L276.59,312.65 M273.91,313.98L265.26,320.66 M276.59,312.65L271.40,318.71 M273.91,313.98L270.27,320.34 M282.71,304.28L288.16,303.37 M336.48,310.92L349.43,310.05" stroke="currentColor" stroke-width="0.6" stroke-linecap="round" fill="none" opacity="0.55" clip-path="url(#hull-clip)" filter="url(#glow)" />
  <path d="M 289.81,361.50 C 288.98,361.52 288.02,361.52 287.19,361.50 C 286.35,361.48 285.56,361.43 284.80,361.35 C 284.05,361.28 283.34,361.18 282.66,361.05 C 281.99,360.93 281.36,360.78 280.77,360.61 C 280.17,360.44 279.62,360.24 279.11,360.02 C 278.60,359.79 278.13,359.55 277.70,359.27 C 277.26,359.00 276.87,358.70 276.52,358.38 C 276.17,358.06 275.86,357.71 275.59,357.34 C 275.32,356.97 275.14,356.60 274.91,356.16 C 274.67,355.72 274.42,355.24 274.16,354.71 C 273.91,354.19 273.64,353.62 273.37,353.01 C 273.09,352.40 272.81,351.74 272.52,351.05 C 272.22,350.35 271.92,349.61 271.61,348.83 C 271.30,348.05 270.98,347.22 270.65,346.35 C 270.32,345.48 269.98,344.57 269.63,343.62 C 269.29,342.66 268.93,341.67 268.56,340.62 C 268.20,339.58 267.85,338.44 267.44,337.38 C 267.03,336.31 266.59,335.27 266.12,334.24 C 265.64,333.22 265.14,332.21 264.60,331.23 C 264.06,330.24 263.49,329.27 262.89,328.33 C 262.29,327.38 261.65,326.45 260.98,325.55 C 260.32,324.64 259.62,323.75 258.88,322.88 C 258.15,322.01 257.38,321.17 256.59,320.34 C 255.79,319.51 254.96,318.70 254.09,317.91 C 253.23,317.12 252.28,316.33 251.41,315.59 C 250.53,314.86 249.68,314.15 248.85,313.48 C 248.02,312.80 247.21,312.16 246.43,311.55 C 245.64,310.95 244.88,310.37 244.14,309.83 C 243.40,309.29 242.68,308.77 241.98,308.30 C 241.29,307.82 240.61,307.37 239.96,306.96 C 239.31,306.55 238.68,306.17 238.07,305.82 C 237.46,305.47 236.88,305.16 236.31,304.88 C 235.75,304.59 235.25,304.41 234.69,304.12 C 234.12,303.84 233.53,303.52 232.92,303.17 C 232.31,302.82 231.67,302.43 231.02,302.02 C 230.36,301.60 229.67,301.14 228.97,300.66 C 228.26,300.17 227.53,299.65 226.78,299.09 C 226.03,298.54 225.25,297.95 224.45,297.33 C 223.65,296.71 222.83,296.05 221.98,295.36 C 221.14,294.67 220.27,293.95 219.38,293.19 C 218.48,292.43 217.50,291.57 216.62,290.81 C 215.75,290.06 214.92,289.33 214.13,288.65 C 213.35,287.96 212.60,287.31 211.90,286.70 C 211.20,286.08 210.54,285.50 209.92,284.95 C 209.31,284.41 208.73,283.90 208.20,283.42 C 207.67,282.95 207.19,282.51 206.74,282.10 C 206.30,281.70 205.90,281.33 205.54,280.99 C 205.18,280.66 204.87,280.36 204.59,280.09 C 204.32,279.83 204.12,279.63 203.91,279.41 C 203.69,279.18 203.49,278.96 203.30,278.74 C 203.12,278.52 202.95,278.31 202.79,278.10 C 202.63,277.89 202.49,277.69 202.36,277.48 C 202.23,277.28 202.12,277.08 202.02,276.89 C 201.92,276.70 201.83,276.51 201.76,276.32 C 201.69,276.13 201.63,275.95 201.59,275.77 C 201.54,275.60 201.51,275.42 201.50,275.25 C 201.49,275.08 201.49,274.91 201.50,274.75 C 201.51,274.59 201.54,274.44 201.59,274.30 C 201.63,274.17 201.69,274.04 201.76,273.91 C 201.83,273.79 201.92,273.68 202.02,273.58 C 202.12,273.48 202.23,273.38 202.36,273.30 C 202.49,273.21 202.63,273.14 202.79,273.07 C 202.95,273.00 203.12,272.95 203.30,272.90 C 203.49,272.85 203.69,272.81 203.91,272.78 C 204.12,272.75 204.38,272.75 204.59,272.72 C 204.81,272.69 205.01,272.66 205.20,272.62 C 205.38,272.58 205.55,272.53 205.71,272.48 C 205.87,272.42 206.01,272.36 206.14,272.30 C 206.27,272.23 206.38,272.16 206.48,272.08 C 206.58,272.00 206.67,271.91 206.74,271.82 C 206.81,271.73 206.87,271.63 206.91,271.52 C 206.96,271.42 206.99,271.31 207.00,271.19 C 207.01,271.07 207.09,270.93 207.00,270.81 C 206.91,270.69 206.73,270.57 206.47,270.45 C 206.20,270.34 205.85,270.22 205.41,270.11 C 204.96,270.00 204.43,269.89 203.81,269.78 C 203.19,269.67 202.48,269.57 201.69,269.47 C 200.89,269.37 200.01,269.27 199.03,269.17 C 198.06,269.08 196.99,268.98 195.84,268.89 C 194.69,268.80 193.45,268.71 192.12,268.62 C 190.80,268.54 189.24,268.47 187.88,268.38 C 186.51,268.28 185.20,268.18 183.94,268.08 C 182.68,267.97 181.47,267.86 180.31,267.73 C 179.16,267.61 178.05,267.48 177.00,267.34 C 175.95,267.21 174.95,267.06 174.00,266.91 C 173.05,266.75 172.16,266.59 171.31,266.42 C 170.47,266.25 169.68,266.08 168.94,265.89 C 168.20,265.71 167.51,265.51 166.88,265.31 C 166.24,265.11 165.69,264.89 165.12,264.69 C 164.56,264.48 164.02,264.27 163.51,264.07 C 162.99,263.87 162.50,263.66 162.02,263.46 C 161.55,263.26 161.10,263.06 160.67,262.86 C 160.24,262.66 159.84,262.46 159.45,262.27 C 159.07,262.07 158.71,261.87 158.37,261.68 C 158.03,261.49 157.71,261.29 157.41,261.10 C 157.12,260.91 156.85,260.72 156.59,260.53 C 156.34,260.34 156.12,260.16 155.91,259.97 C 155.69,259.78 155.49,259.59 155.30,259.40 C 155.12,259.21 154.95,259.01 154.79,258.82 C 154.63,258.63 154.49,258.43 154.36,258.23 C 154.23,258.04 154.12,257.84 154.02,257.64 C 153.92,257.44 153.83,257.24 153.76,257.04 C 153.69,256.84 153.63,256.63 153.59,256.43 C 153.54,256.23 153.51,256.02 153.50,255.81 C 153.49,255.61 153.49,255.39 153.50,255.19 C 153.51,254.98 153.54,254.77 153.59,254.57 C 153.63,254.37 153.69,254.16 153.76,253.96 C 153.83,253.76 153.92,253.56 154.02,253.36 C 154.12,253.16 154.23,252.96 154.36,252.77 C 154.49,252.57 154.63,252.37 154.79,252.18 C 154.95,251.99 155.12,251.79 155.30,251.60 C 155.49,251.41 155.69,251.22 155.91,251.03 C 156.12,250.84 156.33,250.66 156.59,250.47 C 156.86,250.28 157.15,250.08 157.48,249.88 C 157.80,249.68 158.16,249.48 158.55,249.27 C 158.95,249.07 159.37,248.86 159.83,248.64 C 160.29,248.43 160.77,248.21 161.30,247.98 C 161.82,247.76 162.37,247.54 162.96,247.30 C 163.55,247.07 164.17,246.84 164.82,246.60 C 165.47,246.36 166.16,246.12 166.88,245.88 C 167.59,245.63 168.34,245.36 169.12,245.12 C 169.91,244.89 170.72,244.66 171.56,244.45 C 172.41,244.24 173.28,244.04 174.19,243.86 C 175.09,243.67 176.03,243.50 177.00,243.34 C 177.97,243.18 178.97,243.04 180.00,242.91 C 181.03,242.77 182.09,242.65 183.19,242.55 C 184.28,242.44 185.41,242.35 186.56,242.27 C 187.72,242.18 188.91,242.12 190.12,242.06 C 191.34,242.01 192.70,241.98 193.88,241.94 C 195.05,241.89 196.14,241.84 197.16,241.78 C 198.17,241.72 199.11,241.66 199.97,241.59 C 200.83,241.53 201.61,241.45 202.31,241.38 C 203.02,241.30 203.64,241.21 204.19,241.12 C 204.73,241.04 205.20,240.94 205.59,240.84 C 205.98,240.74 206.30,240.64 206.53,240.53 C 206.77,240.42 206.92,240.31 207.00,240.19 C 207.08,240.07 207.01,239.93 207.00,239.81 C 206.99,239.69 206.96,239.58 206.91,239.48 C 206.87,239.37 206.81,239.27 206.74,239.18 C 206.67,239.09 206.58,239.00 206.48,238.92 C 206.38,238.84 206.27,238.77 206.14,238.70 C 206.01,238.64 205.87,238.58 205.71,238.52 C 205.55,238.47 205.38,238.42 205.20,238.38 C 205.01,238.34 204.81,238.31 204.59,238.28 C 204.38,238.25 204.12,238.25 203.91,238.22 C 203.69,238.19 203.49,238.15 203.30,238.10 C 203.12,238.05 202.95,238.00 202.79,237.93 C 202.63,237.86 202.49,237.79 202.36,237.70 C 202.23,237.62 202.12,237.52 202.02,237.42 C 201.92,237.32 201.83,237.21 201.76,237.09 C 201.69,236.96 201.63,236.83 201.59,236.70 C 201.54,236.56 201.51,236.41 201.50,236.25 C 201.49,236.09 201.43,235.97 201.50,235.75 C 201.57,235.53 201.71,235.26 201.93,234.93 C 202.14,234.60 202.43,234.22 202.79,233.79 C 203.15,233.36 203.58,232.87 204.08,232.33 C 204.58,231.79 205.15,231.19 205.80,230.55 C 206.44,229.90 207.16,229.20 207.95,228.45 C 208.73,227.69 209.59,226.88 210.52,226.02 C 211.45,225.16 212.46,224.25 213.53,223.28 C 214.61,222.31 215.86,221.19 216.97,220.22 C 218.08,219.25 219.15,218.32 220.18,217.45 C 221.21,216.57 222.21,215.74 223.16,214.96 C 224.12,214.18 225.04,213.45 225.92,212.77 C 226.80,212.08 227.65,211.45 228.45,210.86 C 229.26,210.27 230.03,209.73 230.76,209.24 C 231.49,208.75 232.18,208.31 232.84,207.91 C 233.49,207.52 234.11,207.17 234.69,206.88 C 235.27,206.58 235.75,206.41 236.31,206.12 C 236.88,205.84 237.46,205.53 238.07,205.18 C 238.68,204.83 239.31,204.45 239.96,204.04 C 240.61,203.63 241.29,203.18 241.98,202.70 C 242.68,202.23 243.40,201.71 244.14,201.17 C 244.88,200.63 245.64,200.05 246.43,199.45 C 247.21,198.84 248.02,198.20 248.85,197.52 C 249.68,196.85 250.53,196.14 251.41,195.41 C 252.28,194.67 253.23,193.88 254.09,193.09 C 254.96,192.30 255.79,191.49 256.59,190.66 C 257.38,189.83 258.15,188.99 258.88,188.12 C 259.62,187.25 260.32,186.36 260.98,185.45 C 261.65,184.55 262.29,183.62 262.89,182.67 C 263.49,181.73 264.06,180.76 264.60,179.77 C 265.14,178.79 265.64,177.78 266.12,176.76 C 266.59,175.73 267.03,174.69 267.44,173.62 C 267.85,172.56 268.20,171.42 268.56,170.38 C 268.93,169.33 269.29,168.34 269.63,167.38 C 269.98,166.43 270.32,165.52 270.65,164.65 C 270.98,163.78 271.30,162.95 271.61,162.17 C 271.92,161.39 272.22,160.65 272.52,159.95 C 272.81,159.26 273.09,158.60 273.37,157.99 C 273.64,157.38 273.91,156.81 274.16,156.29 C 274.42,155.76 274.67,155.28 274.91,154.84 C 275.14,154.40 275.32,154.03 275.59,153.66 C 275.86,153.29 276.17,152.94 276.52,152.62 C 276.87,152.30 277.26,152.00 277.70,151.73 C 278.13,151.45 278.60,151.21 279.11,150.98 C 279.62,150.76 280.17,150.56 280.77,150.39 C 281.36,150.22 281.99,150.07 282.66,149.95 C 283.34,149.82 284.05,149.72 284.80,149.65 C 285.56,149.57 286.35,149.52 287.19,149.50 C 288.02,149.48 288.98,149.48 289.81,149.50 C 290.64,149.52 291.43,149.57 292.18,149.63 C 292.93,149.70 293.63,149.79 294.29,149.90 C 294.95,150.01 295.57,150.14 296.14,150.30 C 296.71,150.45 297.25,150.63 297.73,150.83 C 298.22,151.03 298.67,151.25 299.07,151.49 C 299.47,151.74 299.83,152.00 300.15,152.29 C 300.46,152.58 300.74,152.89 300.97,153.22 C 301.20,153.55 301.26,153.85 301.53,154.28 C 301.80,154.72 302.16,155.23 302.59,155.83 C 303.03,156.42 303.55,157.10 304.16,157.86 C 304.76,158.62 305.45,159.46 306.22,160.38 C 306.99,161.29 307.84,162.29 308.78,163.38 C 309.72,164.46 310.74,165.62 311.84,166.86 C 312.95,168.10 314.14,169.42 315.41,170.83 C 316.68,172.23 318.03,173.72 319.47,175.28 C 320.91,176.85 322.55,178.67 324.03,180.22 C 325.51,181.77 326.95,183.23 328.34,184.59 C 329.74,185.96 331.09,187.23 332.41,188.41 C 333.72,189.58 334.99,190.67 336.22,191.66 C 337.45,192.65 338.64,193.54 339.78,194.34 C 340.93,195.15 342.03,195.85 343.09,196.47 C 344.16,197.08 345.18,197.60 346.16,198.03 C 347.14,198.46 348.07,198.79 348.97,199.03 C 349.86,199.27 350.73,199.33 351.53,199.47 C 352.33,199.61 353.08,199.74 353.77,199.88 C 354.46,200.01 355.09,200.13 355.67,200.25 C 356.25,200.37 356.78,200.48 357.25,200.59 C 357.72,200.70 358.14,200.81 358.50,200.91 C 358.86,201.01 359.17,201.10 359.42,201.19 C 359.67,201.28 359.87,201.36 360.02,201.44 C 360.16,201.52 360.25,201.59 360.28,201.66 C 360.32,201.72 360.27,201.79 360.22,201.84 C 360.17,201.90 360.08,201.96 359.96,202.01 C 359.84,202.06 359.69,202.11 359.51,202.15 C 359.32,202.19 359.11,202.23 358.86,202.27 C 358.61,202.30 358.33,202.33 358.02,202.36 C 357.70,202.39 357.36,202.41 356.98,202.43 C 356.60,202.45 356.19,202.46 355.74,202.48 C 355.30,202.49 354.82,202.50 354.31,202.50 C 353.80,202.50 353.22,202.50 352.69,202.50 C 352.15,202.50 351.63,202.49 351.11,202.48 C 350.59,202.48 350.08,202.47 349.58,202.45 C 349.08,202.44 348.58,202.42 348.09,202.41 C 347.61,202.39 347.13,202.37 346.66,202.34 C 346.18,202.32 345.72,202.29 345.27,202.27 C 344.81,202.24 344.36,202.21 343.92,202.17 C 343.48,202.14 343.05,202.10 342.62,202.06 C 342.20,202.02 341.78,201.97 341.38,201.94 C 340.97,201.91 340.59,201.89 340.22,201.89 C 339.85,201.89 339.49,201.90 339.16,201.92 C 338.82,201.95 338.49,201.98 338.19,202.03 C 337.88,202.08 337.59,202.14 337.31,202.22 C 337.04,202.29 336.78,202.38 336.53,202.48 C 336.29,202.59 336.06,202.70 335.84,202.83 C 335.63,202.96 335.43,203.10 335.25,203.25 C 335.07,203.40 334.99,203.59 334.75,203.75 C 334.51,203.91 334.21,204.05 333.83,204.19 C 333.45,204.32 333.00,204.45 332.48,204.56 C 331.97,204.68 331.38,204.78 330.72,204.88 C 330.06,204.97 329.33,205.05 328.53,205.12 C 327.73,205.20 326.86,205.26 325.92,205.31 C 324.98,205.36 323.97,205.41 322.89,205.44 C 321.81,205.47 320.66,205.49 319.44,205.50 C 318.22,205.51 316.79,205.48 315.56,205.50 C 314.33,205.52 313.16,205.55 312.05,205.60 C 310.95,205.65 309.90,205.72 308.91,205.80 C 307.93,205.89 307.00,205.99 306.14,206.11 C 305.28,206.23 304.48,206.36 303.73,206.52 C 302.99,206.67 302.31,206.84 301.70,207.02 C 301.08,207.21 300.52,207.41 300.02,207.63 C 299.53,207.85 299.09,208.09 298.72,208.34 C 298.35,208.60 298.07,208.90 297.78,209.16 C 297.49,209.41 297.22,209.66 296.97,209.89 C 296.72,210.12 296.49,210.34 296.28,210.55 C 296.07,210.75 295.89,210.95 295.72,211.12 C 295.55,211.30 295.41,211.47 295.28,211.62 C 295.16,211.78 295.05,211.92 294.97,212.05 C 294.89,212.17 294.82,212.29 294.78,212.39 C 294.74,212.49 294.72,212.58 294.72,212.66 C 294.72,212.73 294.74,212.78 294.78,212.84 C 294.82,212.90 294.87,212.96 294.95,213.02 C 295.02,213.08 295.11,213.14 295.21,213.20 C 295.32,213.25 295.44,213.31 295.58,213.36 C 295.72,213.41 295.87,213.46 296.05,213.52 C 296.22,213.57 296.41,213.62 296.62,213.66 C 296.82,213.71 297.05,213.76 297.29,213.80 C 297.53,213.85 297.79,213.89 298.06,213.94 C 298.34,213.98 298.65,214.01 298.94,214.06 C 299.23,214.12 299.52,214.18 299.81,214.27 C 300.10,214.35 300.40,214.44 300.69,214.55 C 300.98,214.65 301.27,214.77 301.56,214.91 C 301.85,215.04 302.15,215.18 302.44,215.34 C 302.73,215.50 303.02,215.67 303.31,215.86 C 303.60,216.04 303.90,216.24 304.19,216.45 C 304.48,216.66 304.77,216.89 305.06,217.12 C 305.35,217.36 305.62,217.64 305.94,217.88 C 306.25,218.11 306.58,218.34 306.94,218.56 C 307.29,218.78 307.67,218.99 308.06,219.19 C 308.46,219.39 308.88,219.57 309.31,219.75 C 309.75,219.93 310.21,220.09 310.69,220.25 C 311.17,220.41 311.67,220.55 312.19,220.69 C 312.71,220.82 313.25,220.95 313.81,221.06 C 314.38,221.18 314.96,221.28 315.56,221.38 C 316.17,221.47 316.81,221.54 317.44,221.62 C 318.06,221.71 318.69,221.78 319.31,221.86 C 319.94,221.93 320.56,222.01 321.19,222.08 C 321.81,222.15 322.44,222.22 323.06,222.28 C 323.69,222.35 324.31,222.41 324.94,222.47 C 325.56,222.53 326.19,222.59 326.81,222.64 C 327.44,222.70 328.06,222.75 328.69,222.80 C 329.31,222.85 329.94,222.89 330.56,222.94 C 331.19,222.98 331.83,223.04 332.44,223.06 C 333.05,223.09 333.65,223.10 334.23,223.09 C 334.82,223.09 335.39,223.07 335.95,223.03 C 336.51,222.99 337.06,222.94 337.59,222.88 C 338.13,222.81 338.65,222.72 339.16,222.62 C 339.66,222.53 340.16,222.41 340.64,222.28 C 341.12,222.15 341.59,222.01 342.05,221.84 C 342.50,221.68 342.95,221.51 343.38,221.31 C 343.80,221.12 344.18,220.88 344.62,220.69 C 345.07,220.50 345.53,220.33 346.02,220.17 C 346.50,220.02 347.01,219.88 347.55,219.77 C 348.08,219.65 348.64,219.55 349.22,219.47 C 349.80,219.39 350.40,219.33 351.03,219.28 C 351.66,219.24 352.31,219.21 352.98,219.20 C 353.66,219.20 354.36,219.21 355.08,219.23 C 355.80,219.26 356.54,219.31 357.31,219.38 C 358.08,219.44 358.95,219.54 359.69,219.62 C 360.42,219.71 361.10,219.81 361.71,219.91 C 362.33,220.02 362.88,220.13 363.38,220.24 C 363.88,220.36 364.32,220.48 364.70,220.61 C 365.08,220.74 365.41,220.87 365.67,221.02 C 365.94,221.16 366.14,221.31 366.29,221.46 C 366.44,221.62 366.52,221.78 366.55,221.95 C 366.58,222.11 366.56,222.29 366.47,222.47 C 366.38,222.65 366.16,222.85 366.03,223.03 C 365.90,223.21 365.80,223.38 365.71,223.54 C 365.62,223.70 365.56,223.85 365.51,223.99 C 365.46,224.13 365.43,224.27 365.42,224.39 C 365.41,224.51 365.42,224.63 365.45,224.73 C 365.48,224.84 365.53,224.94 365.60,225.02 C 365.67,225.11 365.76,225.19 365.87,225.26 C 365.98,225.33 366.10,225.39 366.25,225.44 C 366.40,225.49 366.61,225.52 366.75,225.56 C 366.89,225.60 367.01,225.64 367.10,225.68 C 367.19,225.72 367.26,225.75 367.30,225.79 C 367.35,225.82 367.37,225.86 367.36,225.89 C 367.35,225.92 367.32,225.95 367.27,225.98 C 367.21,226.01 367.13,226.04 367.02,226.07 C 366.92,226.10 366.79,226.12 366.63,226.15 C 366.48,226.17 366.30,226.20 366.09,226.22 C 365.89,226.24 365.63,226.26 365.41,226.28 C 365.18,226.31 364.97,226.34 364.77,226.38 C 364.56,226.41 364.36,226.45 364.17,226.50 C 363.98,226.55 363.80,226.60 363.62,226.66 C 363.45,226.71 363.28,226.78 363.12,226.84 C 362.97,226.91 362.82,226.98 362.67,227.06 C 362.53,227.14 362.39,227.22 362.27,227.31 C 362.14,227.40 362.02,227.49 361.91,227.59 C 361.79,227.69 361.68,227.80 361.59,227.91 C 361.50,228.01 361.42,228.12 361.36,228.23 C 361.29,228.35 361.24,228.46 361.20,228.58 C 361.16,228.70 361.14,228.82 361.12,228.94 C 361.11,229.06 361.11,229.18 361.12,229.31 C 361.14,229.44 361.16,229.57 361.20,229.70 C 361.24,229.84 361.29,229.97 361.36,230.11 C 361.42,230.25 361.50,230.39 361.59,230.53 C 361.68,230.67 361.78,230.82 361.91,230.97 C 362.03,231.12 362.18,231.27 362.35,231.43 C 362.52,231.59 362.71,231.75 362.93,231.91 C 363.14,232.08 363.38,232.25 363.64,232.42 C 363.90,232.60 364.18,232.77 364.48,232.95 C 364.79,233.13 365.11,233.32 365.46,233.51 C 365.81,233.70 366.18,233.89 366.57,234.09 C 366.96,234.28 367.38,234.48 367.81,234.69 C 368.25,234.89 368.69,235.11 369.19,235.31 C 369.68,235.52 370.21,235.72 370.78,235.92 C 371.35,236.12 371.95,236.32 372.59,236.52 C 373.23,236.71 373.91,236.90 374.62,237.09 C 375.34,237.28 376.09,237.47 376.88,237.66 C 377.66,237.84 378.48,238.02 379.34,238.20 C 380.20,238.38 381.10,238.56 382.03,238.73 C 382.96,238.91 383.93,239.08 384.94,239.25 C 385.94,239.42 387.07,239.56 388.06,239.75 C 389.06,239.94 390.00,240.17 390.90,240.41 C 391.80,240.66 392.64,240.94 393.45,241.24 C 394.25,241.55 395.00,241.88 395.70,242.23 C 396.41,242.59 397.06,242.98 397.67,243.39 C 398.28,243.80 398.84,244.24 399.35,244.71 C 399.86,245.18 400.33,245.67 400.74,246.20 C 401.16,246.72 401.52,247.27 401.84,247.84 C 402.16,248.42 402.42,249.05 402.66,249.66 C 402.89,250.26 403.10,250.86 403.27,251.45 C 403.43,252.05 403.57,252.64 403.67,253.23 C 403.77,253.83 403.84,254.41 403.88,255.00 C 403.91,255.59 403.91,256.17 403.88,256.75 C 403.84,257.33 403.77,257.91 403.67,258.48 C 403.57,259.06 403.43,259.63 403.27,260.20 C 403.10,260.77 402.89,261.34 402.66,261.91 C 402.42,262.47 402.16,263.06 401.84,263.59 C 401.52,264.13 401.16,264.64 400.74,265.13 C 400.33,265.62 399.86,266.08 399.35,266.52 C 398.84,266.96 398.28,267.38 397.67,267.77 C 397.06,268.15 396.41,268.52 395.70,268.86 C 395.00,269.20 394.25,269.51 393.45,269.80 C 392.64,270.10 391.80,270.36 390.90,270.60 C 390.00,270.84 389.06,271.06 388.06,271.25 C 387.07,271.44 385.94,271.58 384.94,271.75 C 383.93,271.92 382.96,272.09 382.03,272.27 C 381.10,272.44 380.20,272.62 379.34,272.80 C 378.48,272.98 377.66,273.16 376.88,273.34 C 376.09,273.53 375.34,273.72 374.62,273.91 C 373.91,274.10 373.23,274.29 372.59,274.48 C 371.95,274.68 371.35,274.88 370.78,275.08 C 370.21,275.28 369.68,275.48 369.19,275.69 C 368.69,275.89 368.25,276.11 367.81,276.31 C 367.38,276.52 366.96,276.72 366.57,276.91 C 366.18,277.11 365.81,277.30 365.46,277.49 C 365.11,277.68 364.79,277.87 364.48,278.05 C 364.18,278.23 363.90,278.40 363.64,278.58 C 363.38,278.75 363.14,278.92 362.93,279.09 C 362.71,279.25 362.52,279.41 362.35,279.57 C 362.18,279.73 362.03,279.88 361.91,280.03 C 361.78,280.18 361.68,280.33 361.59,280.47 C 361.50,280.61 361.42,280.75 361.36,280.89 C 361.29,281.03 361.24,281.16 361.20,281.30 C 361.16,281.43 361.14,281.56 361.12,281.69 C 361.11,281.82 361.11,281.94 361.12,282.06 C 361.14,282.18 361.16,282.30 361.20,282.42 C 361.24,282.54 361.29,282.65 361.36,282.77 C 361.42,282.88 361.50,282.99 361.59,283.09 C 361.68,283.20 361.79,283.31 361.91,283.41 C 362.02,283.51 362.14,283.60 362.27,283.69 C 362.39,283.78 362.53,283.86 362.67,283.94 C 362.82,284.02 362.97,284.09 363.12,284.16 C 363.28,284.22 363.45,284.29 363.62,284.34 C 363.80,284.40 363.98,284.45 364.17,284.50 C 364.36,284.55 364.56,284.59 364.77,284.62 C 364.97,284.66 365.18,284.69 365.41,284.72 C 365.63,284.74 365.89,284.76 366.09,284.78 C 366.30,284.80 366.48,284.83 366.63,284.85 C 366.79,284.88 366.92,284.90 367.02,284.93 C 367.13,284.96 367.21,284.99 367.27,285.02 C 367.32,285.05 367.35,285.08 367.36,285.11 C 367.37,285.14 367.35,285.18 367.30,285.21 C 367.26,285.25 367.19,285.28 367.10,285.32 C 367.01,285.36 366.89,285.40 366.75,285.44 C 366.61,285.48 366.40,285.51 366.25,285.56 C 366.10,285.61 365.98,285.67 365.87,285.74 C 365.76,285.81 365.67,285.89 365.60,285.98 C 365.53,286.06 365.48,286.16 365.45,286.27 C 365.42,286.37 365.41,286.49 365.42,286.61 C 365.43,286.73 365.46,286.87 365.51,287.01 C 365.56,287.15 365.62,287.30 365.71,287.46 C 365.80,287.62 365.90,287.79 366.03,287.97 C 366.16,288.15 366.38,288.35 366.47,288.53 C 366.56,288.71 366.58,288.89 366.55,289.05 C 366.52,289.22 366.44,289.38 366.29,289.54 C 366.14,289.69 365.94,289.84 365.67,289.98 C 365.41,290.13 365.08,290.26 364.70,290.39 C 364.32,290.52 363.88,290.64 363.38,290.76 C 362.88,290.87 362.33,290.98 361.71,291.09 C 361.10,291.19 360.42,291.29 359.69,291.38 C 358.95,291.46 358.08,291.56 357.31,291.62 C 356.54,291.69 355.80,291.74 355.08,291.77 C 354.36,291.79 353.66,291.80 352.98,291.80 C 352.31,291.79 351.66,291.76 351.03,291.72 C 350.40,291.67 349.80,291.61 349.22,291.53 C 348.64,291.45 348.08,291.35 347.55,291.23 C 347.01,291.12 346.50,290.98 346.02,290.83 C 345.53,290.67 345.07,290.50 344.62,290.31 C 344.18,290.12 343.80,289.88 343.38,289.69 C 342.95,289.49 342.50,289.32 342.05,289.16 C 341.59,288.99 341.12,288.85 340.64,288.72 C 340.16,288.59 339.66,288.47 339.16,288.38 C 338.65,288.28 338.13,288.19 337.59,288.12 C 337.06,288.06 336.51,288.01 335.95,287.97 C 335.39,287.93 334.82,287.91 334.23,287.91 C 333.65,287.90 333.05,287.91 332.44,287.94 C 331.83,287.96 331.19,288.02 330.56,288.06 C 329.93,288.11 329.30,288.15 328.67,288.20 C 328.04,288.25 327.40,288.30 326.77,288.36 C 326.13,288.41 325.49,288.47 324.84,288.53 C 324.20,288.59 323.55,288.65 322.91,288.72 C 322.26,288.78 321.61,288.85 320.95,288.92 C 320.30,288.99 319.64,289.07 318.98,289.14 C 318.33,289.22 317.66,289.29 317.00,289.38 C 316.34,289.46 315.64,289.53 315.00,289.62 C 314.36,289.72 313.74,289.82 313.16,289.94 C 312.57,290.05 312.01,290.18 311.47,290.31 C 310.93,290.45 310.42,290.59 309.94,290.75 C 309.45,290.91 308.99,291.07 308.56,291.25 C 308.13,291.43 307.72,291.61 307.34,291.81 C 306.96,292.01 306.61,292.22 306.28,292.44 C 305.95,292.66 305.65,292.89 305.38,293.12 C 305.10,293.36 304.88,293.64 304.62,293.88 C 304.37,294.11 304.12,294.34 303.86,294.55 C 303.60,294.76 303.34,294.96 303.08,295.14 C 302.82,295.33 302.55,295.50 302.28,295.66 C 302.01,295.82 301.74,295.96 301.47,296.09 C 301.20,296.23 300.92,296.35 300.64,296.45 C 300.36,296.56 300.08,296.65 299.80,296.73 C 299.51,296.82 299.23,296.88 298.94,296.94 C 298.65,296.99 298.34,297.02 298.06,297.06 C 297.79,297.11 297.53,297.15 297.29,297.20 C 297.05,297.24 296.82,297.29 296.62,297.34 C 296.41,297.38 296.22,297.43 296.05,297.48 C 295.87,297.54 295.72,297.59 295.58,297.64 C 295.44,297.69 295.32,297.75 295.21,297.80 C 295.11,297.86 295.02,297.92 294.95,297.98 C 294.87,298.04 294.82,298.10 294.78,298.16 C 294.74,298.22 294.72,298.27 294.72,298.34 C 294.72,298.42 294.74,298.51 294.78,298.61 C 294.82,298.71 294.89,298.83 294.97,298.95 C 295.05,299.08 295.16,299.22 295.28,299.38 C 295.41,299.53 295.55,299.70 295.72,299.88 C 295.89,300.05 296.07,300.25 296.28,300.45 C 296.49,300.66 296.72,300.88 296.97,301.11 C 297.22,301.34 297.49,301.59 297.78,301.84 C 298.07,302.10 298.35,302.40 298.72,302.66 C 299.09,302.91 299.53,303.15 300.02,303.37 C 300.52,303.59 301.08,303.79 301.70,303.98 C 302.31,304.16 302.99,304.33 303.73,304.48 C 304.48,304.64 305.28,304.77 306.14,304.89 C 307.00,305.01 307.93,305.11 308.91,305.20 C 309.90,305.28 310.95,305.35 312.05,305.40 C 313.16,305.45 314.33,305.48 315.56,305.50 C 316.79,305.52 318.22,305.49 319.44,305.50 C 320.66,305.51 321.81,305.53 322.89,305.56 C 323.97,305.59 324.98,305.64 325.92,305.69 C 326.86,305.74 327.73,305.80 328.53,305.88 C 329.33,305.95 330.06,306.03 330.72,306.12 C 331.38,306.22 331.97,306.32 332.48,306.44 C 333.00,306.55 333.45,306.68 333.83,306.81 C 334.21,306.95 334.51,307.09 334.75,307.25 C 334.99,307.41 335.03,307.60 335.25,307.75 C 335.47,307.90 335.74,308.05 336.05,308.18 C 336.37,308.31 336.74,308.43 337.16,308.54 C 337.58,308.65 338.06,308.74 338.58,308.83 C 339.10,308.91 339.67,308.99 340.30,309.05 C 340.92,309.11 341.60,309.16 342.32,309.20 C 343.05,309.23 343.82,309.26 344.65,309.27 C 345.48,309.29 346.35,309.29 347.28,309.28 C 348.21,309.27 349.31,309.23 350.22,309.22 C 351.13,309.21 351.97,309.20 352.73,309.20 C 353.50,309.21 354.20,309.22 354.83,309.23 C 355.46,309.25 356.01,309.28 356.50,309.31 C 356.99,309.35 357.40,309.39 357.75,309.44 C 358.10,309.49 358.37,309.54 358.58,309.61 C 358.78,309.67 358.92,309.75 358.98,309.83 C 359.05,309.91 359.04,310.00 358.97,310.09 C 358.89,310.19 358.71,310.30 358.53,310.41 C 358.35,310.51 358.13,310.61 357.88,310.71 C 357.63,310.81 357.35,310.91 357.02,311.01 C 356.70,311.11 356.35,311.20 355.95,311.30 C 355.56,311.39 355.13,311.49 354.67,311.58 C 354.21,311.67 353.71,311.76 353.18,311.85 C 352.65,311.94 352.08,312.03 351.48,312.12 C 350.87,312.20 350.24,312.29 349.56,312.38 C 348.89,312.46 348.20,312.44 347.44,312.62 C 346.68,312.81 345.87,313.08 345.01,313.46 C 344.15,313.84 343.24,314.31 342.27,314.88 C 341.31,315.45 340.30,316.12 339.23,316.89 C 338.17,317.66 337.06,318.52 335.89,319.48 C 334.73,320.45 333.51,321.51 332.24,322.66 C 330.98,323.82 329.66,325.08 328.29,326.43 C 326.92,327.78 325.50,329.23 324.03,330.78 C 322.56,332.33 320.91,334.15 319.47,335.72 C 318.03,337.28 316.68,338.77 315.41,340.17 C 314.14,341.58 312.95,342.90 311.84,344.14 C 310.74,345.38 309.72,346.54 308.78,347.62 C 307.84,348.71 306.99,349.71 306.22,350.62 C 305.45,351.54 304.76,352.38 304.16,353.14 C 303.55,353.90 303.03,354.58 302.59,355.17 C 302.16,355.77 301.80,356.28 301.53,356.72 C 301.26,357.15 301.20,357.45 300.97,357.78 C 300.74,358.11 300.46,358.42 300.15,358.71 C 299.83,359.00 299.47,359.26 299.07,359.51 C 298.67,359.75 298.22,359.97 297.73,360.17 C 297.25,360.37 296.71,360.55 296.14,360.70 C 295.57,360.86 294.95,360.99 294.29,361.10 C 293.63,361.21 292.93,361.30 292.18,361.37 C 291.43,361.43 290.64,361.48 289.81,361.50 Z" fill="none" stroke="currentColor" stroke-width="1.5" stroke-linejoin="round" stroke-linecap="round" filter="url(#glow)" />
</svg>