<svg xmlns="http://www.w3.org/2000/svg" width="512" height="512" viewBox="136.24 153.68 221.33 224.36" preserveAspectRatio="xMidYMid meet">
  <defs>
    <filter id="glow" x="-30%" y="-30%" width="160%" height="160%">
      <feGaussianBlur in="SourceGraphic" stdDeviation="2.4" result="blur" />
      <feMerge>
        <feMergeNode in="blur" />
        <feMergeNode in="SourceGraphic" />
      </feMerge>
    </filter>
    <clipPath id="hull-clip">
      <path d="M 305.19,357.44 C 304.74,357.17 304.34,356.92 303.81,356.56 C 303.29,356.21 302.69,355.78 302.03,355.30 C 301.37,354.81 300.64,354.26 299.84,353.64 C 299.05,353.02 298.18,352.34 297.25,351.59 C 296.32,350.85 295.32,350.03 294.25,349.16 C 293.18,348.28 292.05,347.34 290.84,346.33 C 289.64,345.32 288.37,344.25 287.03,343.11 C 285.69,341.97 284.29,340.77 282.81,339.50 C 281.34,338.23 279.65,336.73 278.19,335.50 C 276.73,334.27 275.35,333.14 274.06,332.11 C 272.77,331.08 271.56,330.15 270.44,329.33 C 269.31,328.50 268.27,327.78 267.31,327.16 C 266.35,326.53 265.48,326.01 264.69,325.59 C 263.90,325.17 263.19,324.86 262.56,324.64 C 261.94,324.42 261.40,324.31 260.94,324.30 C 260.48,324.28 260.10,324.37 259.81,324.56 C 259.52,324.75 259.41,325.17 259.19,325.44 C 258.97,325.71 258.74,325.96 258.50,326.19 C 258.26,326.42 258.01,326.62 257.75,326.81 C 257.49,327.00 257.22,327.17 256.94,327.31 C 256.66,327.46 256.36,327.58 256.06,327.69 C 255.76,327.79 255.45,327.88 255.12,327.94 C 254.80,328.00 254.47,328.04 254.12,328.06 C 253.78,328.08 253.43,328.08 253.06,328.06 C 252.70,328.04 252.35,328.02 251.94,327.94 C 251.53,327.86 251.09,327.74 250.61,327.58 C 250.13,327.42 249.62,327.22 249.08,326.98 C 248.53,326.75 247.96,326.47 247.34,326.16 C 246.73,325.84 246.09,325.49 245.41,325.09 C 244.73,324.70 244.01,324.27 243.27,323.80 C 242.52,323.33 241.74,322.82 240.92,322.27 C 240.11,321.72 239.26,321.13 238.38,320.50 C 237.49,319.87 236.49,319.14 235.62,318.50 C 234.76,317.86 233.96,317.26 233.20,316.69 C 232.45,316.11 231.75,315.57 231.11,315.06 C 230.47,314.55 229.88,314.07 229.34,313.62 C 228.81,313.18 228.33,312.76 227.91,312.38 C 227.48,311.99 227.11,311.64 226.80,311.31 C 226.48,310.99 226.22,310.70 226.02,310.44 C 225.81,310.18 225.66,309.95 225.56,309.75 C 225.47,309.55 225.50,309.41 225.44,309.25 C 225.38,309.09 225.30,308.95 225.20,308.81 C 225.11,308.68 224.99,308.55 224.86,308.44 C 224.73,308.32 224.58,308.22 224.41,308.12 C 224.24,308.03 224.05,307.95 223.84,307.88 C 223.64,307.80 223.41,307.74 223.17,307.69 C 222.93,307.64 222.67,307.59 222.39,307.56 C 222.11,307.53 221.82,307.51 221.50,307.50 C 221.18,307.49 220.81,307.51 220.50,307.50 C 220.19,307.49 219.90,307.48 219.64,307.45 C 219.38,307.43 219.14,307.40 218.92,307.36 C 218.71,307.32 218.51,307.27 218.34,307.22 C 218.17,307.16 218.03,307.10 217.91,307.03 C 217.78,306.96 217.68,306.88 217.61,306.80 C 217.53,306.71 217.48,306.62 217.45,306.52 C 217.42,306.41 217.42,306.30 217.44,306.19 C 217.46,306.07 217.52,305.93 217.56,305.81 C 217.61,305.70 217.66,305.59 217.72,305.50 C 217.78,305.41 217.84,305.32 217.91,305.25 C 217.97,305.18 218.05,305.11 218.12,305.06 C 218.20,305.01 218.29,304.97 218.38,304.94 C 218.46,304.91 218.56,304.89 218.66,304.88 C 218.76,304.86 218.86,304.86 218.97,304.88 C 219.08,304.89 219.19,304.91 219.31,304.94 C 219.43,304.97 219.57,305.03 219.69,305.06 C 219.81,305.10 219.93,305.13 220.04,305.15 C 220.15,305.17 220.26,305.19 220.37,305.20 C 220.47,305.20 220.57,305.21 220.67,305.20 C 220.77,305.20 220.86,305.19 220.95,305.17 C 221.04,305.15 221.13,305.13 221.21,305.10 C 221.29,305.07 221.37,305.04 221.45,304.99 C 221.52,304.95 221.59,304.90 221.66,304.84 C 221.72,304.79 221.82,304.72 221.84,304.66 C 221.87,304.59 221.87,304.52 221.83,304.44 C 221.79,304.36 221.72,304.28 221.61,304.19 C 221.50,304.10 221.36,304.01 221.19,303.91 C 221.01,303.81 220.80,303.70 220.56,303.59 C 220.32,303.48 220.04,303.37 219.73,303.25 C 219.42,303.13 219.08,303.01 218.70,302.88 C 218.33,302.74 217.91,302.61 217.47,302.47 C 217.02,302.33 216.51,302.19 216.03,302.03 C 215.55,301.87 215.07,301.70 214.59,301.51 C 214.10,301.32 213.62,301.12 213.13,300.90 C 212.65,300.68 212.16,300.45 211.67,300.20 C 211.18,299.96 210.69,299.70 210.20,299.42 C 209.71,299.15 209.22,298.86 208.73,298.55 C 208.23,298.25 207.74,297.93 207.24,297.60 C 206.75,297.27 206.25,296.92 205.75,296.56 C 205.25,296.20 204.73,295.80 204.25,295.44 C 203.77,295.08 203.32,294.74 202.90,294.41 C 202.47,294.09 202.07,293.78 201.70,293.49 C 201.32,293.20 200.97,292.93 200.64,292.67 C 200.31,292.42 200.01,292.18 199.73,291.95 C 199.46,291.73 199.20,291.52 198.98,291.34 C 198.75,291.15 198.55,290.98 198.37,290.82 C 198.19,290.67 198.04,290.53 197.91,290.41 C 197.78,290.29 197.69,290.20 197.59,290.09 C 197.50,289.99 197.41,289.89 197.33,289.78 C 197.25,289.68 197.17,289.57 197.11,289.47 C 197.04,289.36 196.99,289.26 196.94,289.16 C 196.89,289.05 196.85,288.95 196.81,288.84 C 196.78,288.74 196.75,288.64 196.73,288.53 C 196.72,288.43 196.71,288.32 196.70,288.22 C 196.70,288.11 196.71,288.01 196.72,287.91 C 196.73,287.80 196.81,287.71 196.78,287.59 C 196.75,287.48 196.68,287.36 196.55,287.23 C 196.43,287.10 196.26,286.95 196.04,286.80 C 195.82,286.65 195.55,286.50 195.23,286.33 C 194.92,286.16 194.55,285.98 194.14,285.80 C 193.73,285.61 193.27,285.42 192.76,285.21 C 192.25,285.01 191.69,284.79 191.09,284.57 C 190.48,284.35 189.83,284.12 189.12,283.88 C 188.42,283.63 187.61,283.36 186.88,283.12 C 186.14,282.89 185.41,282.67 184.70,282.47 C 183.99,282.27 183.29,282.08 182.61,281.91 C 181.92,281.73 181.25,281.58 180.59,281.44 C 179.93,281.30 179.29,281.17 178.66,281.06 C 178.02,280.95 177.40,280.86 176.80,280.78 C 176.19,280.70 175.60,280.64 175.02,280.59 C 174.43,280.55 173.87,280.52 173.31,280.50 C 172.76,280.48 172.20,280.51 171.69,280.50 C 171.18,280.49 170.71,280.48 170.27,280.47 C 169.83,280.45 169.42,280.43 169.05,280.41 C 168.67,280.38 168.34,280.35 168.03,280.31 C 167.73,280.28 167.46,280.23 167.22,280.19 C 166.98,280.14 166.78,280.09 166.61,280.03 C 166.44,279.97 166.30,279.91 166.20,279.84 C 166.10,279.78 166.03,279.70 166.00,279.62 C 165.97,279.55 165.97,279.45 166.00,279.38 C 166.03,279.30 166.09,279.22 166.19,279.16 C 166.28,279.09 166.41,279.03 166.56,278.97 C 166.72,278.91 166.91,278.86 167.12,278.81 C 167.34,278.77 167.59,278.72 167.88,278.69 C 168.16,278.65 168.47,278.62 168.81,278.59 C 169.16,278.57 169.53,278.55 169.94,278.53 C 170.34,278.52 170.78,278.51 171.25,278.50 C 171.72,278.49 172.28,278.51 172.75,278.50 C 173.22,278.49 173.67,278.48 174.09,278.45 C 174.52,278.43 174.91,278.40 175.28,278.36 C 175.65,278.32 175.99,278.27 176.31,278.22 C 176.63,278.16 176.92,278.10 177.19,278.03 C 177.45,277.96 177.69,277.88 177.91,277.80 C 178.12,277.71 178.31,277.62 178.47,277.52 C 178.63,277.41 178.77,277.30 178.88,277.19 C 178.98,277.07 179.07,276.93 179.12,276.81 C 179.18,276.70 179.20,276.59 179.19,276.48 C 179.18,276.38 179.14,276.29 179.06,276.20 C 178.99,276.12 178.89,276.04 178.75,275.97 C 178.61,275.90 178.45,275.84 178.25,275.78 C 178.05,275.73 177.82,275.68 177.56,275.64 C 177.30,275.60 177.01,275.57 176.69,275.55 C 176.36,275.52 176.01,275.51 175.62,275.50 C 175.24,275.49 174.80,275.52 174.38,275.50 C 173.95,275.48 173.51,275.44 173.05,275.38 C 172.60,275.32 172.14,275.25 171.66,275.15 C 171.19,275.05 170.70,274.93 170.20,274.80 C 169.70,274.66 169.19,274.50 168.67,274.33 C 168.15,274.15 167.62,273.96 167.07,273.74 C 166.52,273.53 165.97,273.29 165.40,273.04 C 164.83,272.79 164.25,272.51 163.66,272.22 C 163.06,271.93 162.41,271.58 161.84,271.28 C 161.27,270.98 160.74,270.68 160.24,270.40 C 159.74,270.11 159.28,269.84 158.85,269.57 C 158.42,269.30 158.03,269.05 157.67,268.80 C 157.31,268.55 156.99,268.31 156.70,268.08 C 156.42,267.85 156.16,267.63 155.95,267.41 C 155.73,267.20 155.55,267.00 155.40,266.80 C 155.25,266.61 155.14,266.43 155.06,266.25 C 154.99,266.07 154.95,265.92 154.94,265.75 C 154.92,265.58 154.93,265.40 154.96,265.23 C 154.99,265.05 155.05,264.87 155.13,264.68 C 155.21,264.49 155.32,264.30 155.45,264.11 C 155.58,263.92 155.74,263.72 155.92,263.52 C 156.10,263.31 156.31,263.11 156.54,262.90 C 156.77,262.69 157.02,262.48 157.30,262.26 C 157.58,262.04 157.89,261.82 158.22,261.59 C 158.55,261.37 158.90,261.13 159.28,260.91 C 159.66,260.68 160.06,260.47 160.48,260.27 C 160.91,260.06 161.36,259.86 161.83,259.67 C 162.30,259.48 162.79,259.30 163.31,259.12 C 163.83,258.95 164.37,258.78 164.94,258.62 C 165.50,258.47 166.09,258.32 166.70,258.17 C 167.32,258.03 167.95,257.89 168.61,257.77 C 169.27,257.64 169.95,257.52 170.66,257.41 C 171.36,257.29 172.17,257.20 172.84,257.09 C 173.52,256.99 174.15,256.89 174.72,256.78 C 175.29,256.68 175.81,256.57 176.28,256.47 C 176.75,256.36 177.17,256.26 177.53,256.16 C 177.90,256.05 178.21,255.95 178.47,255.84 C 178.73,255.74 178.94,255.64 179.09,255.53 C 179.25,255.43 179.35,255.32 179.41,255.22 C 179.46,255.11 179.46,255.01 179.41,254.91 C 179.35,254.80 179.22,254.69 179.09,254.59 C 178.96,254.50 178.81,254.40 178.63,254.32 C 178.45,254.24 178.25,254.16 178.02,254.09 C 177.80,254.01 177.54,253.95 177.27,253.89 C 176.99,253.83 176.69,253.78 176.36,253.73 C 176.03,253.69 175.68,253.65 175.30,253.62 C 174.93,253.58 174.53,253.56 174.10,253.54 C 173.68,253.52 173.23,253.51 172.75,253.50 C 172.27,253.49 171.72,253.51 171.25,253.50 C 170.78,253.49 170.34,253.48 169.94,253.47 C 169.53,253.45 169.16,253.43 168.81,253.41 C 168.47,253.38 168.16,253.35 167.88,253.31 C 167.59,253.28 167.34,253.23 167.12,253.19 C 166.91,253.14 166.72,253.09 166.56,253.03 C 166.41,252.97 166.28,252.91 166.19,252.84 C 166.09,252.78 166.03,252.70 166.00,252.62 C 165.97,252.55 165.97,252.45 166.00,252.38 C 166.03,252.30 166.09,252.22 166.19,252.16 C 166.28,252.09 166.41,252.03 166.56,251.97 C 166.72,251.91 166.91,251.86 167.12,251.81 C 167.34,251.77 167.59,251.72 167.88,251.69 C 168.16,251.65 168.47,251.62 168.81,251.59 C 169.16,251.57 169.53,251.55 169.94,251.53 C 170.34,251.52 170.78,251.51 171.25,251.50 C 171.72,251.49 172.23,251.52 172.75,251.50 C 173.27,251.48 173.80,251.45 174.34,251.41 C 174.89,251.36 175.45,251.30 176.03,251.22 C 176.61,251.14 177.20,251.05 177.81,250.94 C 178.42,250.83 179.05,250.70 179.69,250.56 C 180.33,250.42 180.98,250.27 181.66,250.09 C 182.33,249.92 183.02,249.73 183.72,249.53 C 184.42,249.33 185.14,249.11 185.88,248.88 C 186.61,248.64 187.41,248.38 188.12,248.12 C 188.84,247.87 189.52,247.62 190.17,247.36 C 190.82,247.10 191.43,246.84 192.02,246.58 C 192.60,246.32 193.14,246.05 193.66,245.78 C 194.17,245.51 194.65,245.24 195.09,244.97 C 195.54,244.70 195.95,244.42 196.33,244.14 C 196.71,243.86 197.05,243.58 197.36,243.30 C 197.67,243.01 197.95,242.73 198.19,242.44 C 198.43,242.15 198.59,241.86 198.81,241.56 C 199.04,241.27 199.28,240.96 199.55,240.66 C 199.81,240.35 200.09,240.04 200.39,239.72 C 200.69,239.40 201.01,239.08 201.34,238.75 C 201.68,238.42 202.03,238.09 202.41,237.75 C 202.78,237.41 203.17,237.07 203.58,236.72 C 203.99,236.37 204.41,236.02 204.86,235.66 C 205.30,235.30 205.77,234.93 206.25,234.56 C 206.73,234.19 207.26,233.79 207.75,233.44 C 208.24,233.08 208.73,232.75 209.20,232.44 C 209.68,232.12 210.15,231.83 210.61,231.56 C 211.07,231.29 211.52,231.04 211.97,230.81 C 212.41,230.58 212.85,230.38 213.28,230.19 C 213.71,230.00 214.13,229.83 214.55,229.69 C 214.96,229.54 215.37,229.42 215.77,229.31 C 216.16,229.21 216.55,229.12 216.94,229.06 C 217.32,229.00 217.71,228.98 218.06,228.94 C 218.41,228.89 218.74,228.85 219.05,228.80 C 219.35,228.75 219.63,228.70 219.89,228.64 C 220.15,228.59 220.38,228.53 220.59,228.47 C 220.80,228.41 220.99,228.35 221.16,228.28 C 221.32,228.22 221.46,228.15 221.58,228.08 C 221.70,228.01 221.79,227.93 221.86,227.86 C 221.93,227.78 221.98,227.71 222.00,227.62 C 222.02,227.54 222.01,227.45 222.00,227.38 C 221.99,227.30 221.96,227.22 221.92,227.16 C 221.88,227.09 221.83,227.03 221.77,226.97 C 221.70,226.91 221.62,226.86 221.53,226.81 C 221.44,226.77 221.34,226.72 221.22,226.69 C 221.10,226.65 220.97,226.62 220.83,226.59 C 220.68,226.57 220.53,226.55 220.36,226.53 C 220.19,226.52 220.01,226.51 219.81,226.50 C 219.62,226.49 219.38,226.51 219.19,226.50 C 218.99,226.49 218.81,226.48 218.64,226.47 C 218.47,226.45 218.32,226.43 218.17,226.41 C 218.03,226.38 217.90,226.35 217.78,226.31 C 217.66,226.28 217.56,226.23 217.47,226.19 C 217.38,226.14 217.30,226.09 217.23,226.03 C 217.17,225.97 217.12,225.91 217.08,225.84 C 217.04,225.78 217.01,225.70 217.00,225.62 C 216.99,225.55 216.98,225.46 217.00,225.38 C 217.02,225.29 217.07,225.22 217.14,225.14 C 217.21,225.07 217.30,224.99 217.42,224.92 C 217.54,224.85 217.68,224.78 217.84,224.72 C 218.01,224.65 218.20,224.59 218.41,224.53 C 218.62,224.47 218.85,224.41 219.11,224.36 C 219.37,224.30 219.65,224.25 219.95,224.20 C 220.26,224.15 220.59,224.11 220.94,224.06 C 221.29,224.02 221.71,223.98 222.06,223.94 C 222.41,223.89 222.73,223.85 223.02,223.80 C 223.32,223.76 223.58,223.71 223.82,223.66 C 224.06,223.62 224.27,223.57 224.45,223.52 C 224.64,223.46 224.79,223.41 224.92,223.36 C 225.05,223.31 225.15,223.25 225.23,223.20 C 225.30,223.14 225.35,223.08 225.37,223.02 C 225.39,222.96 225.38,222.90 225.34,222.84 C 225.31,222.78 225.21,222.72 225.16,222.66 C 225.11,222.59 225.07,222.52 225.05,222.44 C 225.02,222.36 225.01,222.28 225.02,222.19 C 225.02,222.10 225.03,222.01 225.06,221.91 C 225.09,221.81 225.13,221.70 225.19,221.59 C 225.24,221.48 225.31,221.37 225.39,221.25 C 225.47,221.13 225.57,221.01 225.67,220.88 C 225.78,220.74 225.90,220.61 226.03,220.47 C 226.16,220.33 226.28,220.21 226.47,220.03 C 226.66,219.86 226.90,219.65 227.18,219.41 C 227.46,219.18 227.79,218.91 228.16,218.62 C 228.54,218.32 228.96,218.00 229.42,217.64 C 229.89,217.29 230.40,216.90 230.95,216.48 C 231.51,216.07 232.11,215.62 232.76,215.15 C 233.40,214.67 234.10,214.17 234.84,213.63 C 235.57,213.10 236.36,212.53 237.19,211.94 C 238.02,211.34 238.97,210.65 239.81,210.06 C 240.65,209.48 241.46,208.93 242.23,208.42 C 243.01,207.91 243.75,207.45 244.45,207.02 C 245.16,206.59 245.83,206.20 246.47,205.84 C 247.11,205.49 247.71,205.18 248.28,204.91 C 248.85,204.63 249.39,204.40 249.89,204.20 C 250.39,204.01 250.86,203.85 251.30,203.73 C 251.73,203.62 252.13,203.54 252.50,203.50 C 252.87,203.46 253.17,203.48 253.50,203.50 C 253.83,203.52 254.14,203.55 254.45,203.61 C 254.76,203.66 255.07,203.74 255.36,203.83 C 255.65,203.92 255.94,204.03 256.22,204.16 C 256.50,204.28 256.77,204.43 257.03,204.59 C 257.29,204.76 257.55,204.94 257.80,205.14 C 258.04,205.34 258.28,205.56 258.52,205.80 C 258.75,206.03 258.97,206.29 259.19,206.56 C 259.40,206.84 259.60,207.18 259.81,207.44 C 260.02,207.70 260.24,207.92 260.45,208.11 C 260.67,208.30 260.89,208.46 261.11,208.58 C 261.33,208.70 261.55,208.79 261.78,208.84 C 262.01,208.90 262.24,208.92 262.47,208.91 C 262.70,208.89 262.93,208.85 263.17,208.77 C 263.41,208.68 263.65,208.57 263.89,208.42 C 264.13,208.27 264.38,208.09 264.62,207.88 C 264.87,207.66 265.04,207.45 265.38,207.12 C 265.71,206.80 266.14,206.41 266.66,205.95 C 267.17,205.49 267.78,204.96 268.47,204.36 C 269.16,203.76 269.94,203.09 270.81,202.34 C 271.68,201.60 272.64,200.79 273.69,199.91 C 274.73,199.02 275.87,198.07 277.09,197.05 C 278.32,196.02 279.63,194.93 281.03,193.77 C 282.43,192.60 283.92,191.37 285.50,190.06 C 287.08,188.76 288.92,187.22 290.50,185.94 C 292.08,184.65 293.58,183.46 294.98,182.36 C 296.39,181.26 297.72,180.25 298.95,179.33 C 300.19,178.41 301.34,177.58 302.41,176.84 C 303.47,176.11 304.45,175.46 305.34,174.91 C 306.24,174.35 307.04,173.89 307.77,173.52 C 308.49,173.14 309.12,172.86 309.67,172.67 C 310.22,172.48 310.68,172.38 311.06,172.38 C 311.44,172.37 311.66,172.53 311.94,172.62 C 312.22,172.72 312.49,172.82 312.74,172.93 C 313.00,173.04 313.24,173.16 313.48,173.29 C 313.71,173.42 313.93,173.56 314.14,173.70 C 314.35,173.85 314.55,174.01 314.73,174.17 C 314.92,174.34 315.10,174.51 315.26,174.70 C 315.42,174.88 315.57,175.07 315.71,175.27 C 315.85,175.48 315.98,175.69 316.09,175.91 C 316.21,176.13 316.38,176.27 316.41,176.59 C 316.43,176.91 316.37,177.32 316.23,177.82 C 316.08,178.32 315.86,178.91 315.55,179.59 C 315.25,180.26 314.86,181.03 314.39,181.89 C 313.92,182.75 313.37,183.70 312.73,184.73 C 312.10,185.77 311.38,186.90 310.59,188.12 C 309.79,189.33 308.91,190.64 307.95,192.04 C 306.98,193.44 305.94,194.92 304.81,196.50 C 303.69,198.08 302.33,199.94 301.19,201.50 C 300.05,203.06 298.97,204.52 297.96,205.88 C 296.95,207.24 296.01,208.50 295.13,209.65 C 294.26,210.80 293.45,211.85 292.70,212.80 C 291.96,213.74 291.28,214.59 290.67,215.33 C 290.06,216.07 289.52,216.71 289.04,217.24 C 288.56,217.78 288.15,218.21 287.80,218.54 C 287.46,218.87 287.18,219.10 286.97,219.22 C 286.76,219.34 286.68,219.25 286.53,219.28 C 286.39,219.32 286.24,219.36 286.09,219.42 C 285.95,219.48 285.80,219.55 285.66,219.64 C 285.51,219.73 285.36,219.83 285.22,219.94 C 285.07,220.05 284.93,220.17 284.78,220.31 C 284.64,220.45 284.49,220.60 284.34,220.77 C 284.20,220.93 284.05,221.11 283.91,221.30 C 283.76,221.49 283.61,221.69 283.47,221.91 C 283.32,222.12 283.15,222.36 283.03,222.59 C 282.91,222.83 282.81,223.07 282.73,223.31 C 282.66,223.56 282.61,223.81 282.58,224.06 C 282.55,224.32 282.54,224.58 282.56,224.84 C 282.58,225.11 282.62,225.38 282.69,225.66 C 282.75,225.93 282.84,226.21 282.95,226.50 C 283.07,226.79 283.20,227.08 283.36,227.38 C 283.52,227.67 283.70,227.97 283.91,228.28 C 284.11,228.59 284.36,228.92 284.59,229.22 C 284.83,229.52 285.08,229.81 285.34,230.09 C 285.59,230.36 285.86,230.63 286.13,230.88 C 286.41,231.14 286.69,231.38 286.98,231.61 C 287.28,231.84 287.58,232.06 287.89,232.27 C 288.20,232.47 288.52,232.67 288.85,232.85 C 289.18,233.04 289.52,233.21 289.87,233.37 C 290.21,233.53 290.57,233.68 290.94,233.81 C 291.30,233.95 291.70,234.08 292.06,234.19 C 292.43,234.30 292.79,234.40 293.14,234.48 C 293.49,234.57 293.84,234.64 294.17,234.70 C 294.51,234.76 294.84,234.81 295.16,234.84 C 295.48,234.88 295.79,234.90 296.09,234.91 C 296.40,234.91 296.70,234.91 296.98,234.89 C 297.27,234.87 297.55,234.84 297.83,234.80 C 298.10,234.75 298.37,234.70 298.62,234.62 C 298.88,234.55 299.12,234.47 299.38,234.38 C 299.62,234.28 299.88,234.18 300.12,234.08 C 300.38,233.97 300.62,233.86 300.88,233.73 C 301.12,233.61 301.38,233.48 301.62,233.34 C 301.88,233.21 302.12,233.06 302.38,232.91 C 302.62,232.75 302.88,232.59 303.12,232.42 C 303.38,232.25 303.62,232.08 303.88,231.89 C 304.12,231.71 304.38,231.51 304.62,231.31 C 304.88,231.11 305.13,230.88 305.38,230.69 C 305.62,230.49 305.87,230.32 306.11,230.16 C 306.35,229.99 306.59,229.85 306.83,229.72 C 307.07,229.59 307.30,229.47 307.53,229.38 C 307.76,229.28 307.99,229.19 308.22,229.12 C 308.45,229.06 308.67,229.01 308.89,228.97 C 309.11,228.93 309.33,228.91 309.55,228.91 C 309.76,228.90 309.98,228.91 310.19,228.94 C 310.40,228.96 310.61,229.02 310.81,229.06 C 311.01,229.11 311.21,229.15 311.40,229.20 C 311.59,229.24 311.77,229.29 311.95,229.34 C 312.12,229.38 312.29,229.43 312.45,229.48 C 312.62,229.54 312.77,229.59 312.92,229.64 C 313.07,229.69 313.21,229.75 313.35,229.80 C 313.49,229.86 313.62,229.92 313.74,229.98 C 313.87,230.04 313.98,230.10 314.09,230.16 C 314.20,230.22 314.30,230.26 314.41,230.34 C 314.51,230.42 314.61,230.52 314.72,230.64 C 314.82,230.76 314.93,230.89 315.03,231.05 C 315.14,231.20 315.24,231.37 315.34,231.56 C 315.45,231.75 315.55,231.96 315.66,232.19 C 315.76,232.41 315.86,232.66 315.97,232.92 C 316.07,233.18 316.18,233.47 316.28,233.77 C 316.39,234.07 316.49,234.38 316.59,234.72 C 316.70,235.05 316.79,235.44 316.91,235.78 C 317.03,236.13 317.17,236.46 317.32,236.79 C 317.48,237.12 317.65,237.43 317.84,237.74 C 318.02,238.05 318.23,238.35 318.45,238.64 C 318.68,238.93 318.92,239.21 319.17,239.48 C 319.43,239.76 319.70,240.02 319.99,240.27 C 320.28,240.53 320.59,240.77 320.91,241.01 C 321.24,241.24 321.58,241.47 321.94,241.69 C 322.30,241.90 322.70,242.12 323.06,242.31 C 323.42,242.51 323.77,242.69 324.11,242.86 C 324.45,243.03 324.77,243.18 325.08,243.33 C 325.39,243.47 325.68,243.60 325.97,243.72 C 326.25,243.84 326.52,243.94 326.78,244.03 C 327.04,244.12 327.28,244.20 327.52,244.27 C 327.75,244.33 327.97,244.38 328.17,244.42 C 328.38,244.46 328.57,244.49 328.75,244.50 C 328.93,244.51 329.07,244.49 329.25,244.50 C 329.43,244.51 329.62,244.54 329.82,244.59 C 330.02,244.63 330.24,244.69 330.46,244.76 C 330.69,244.83 330.92,244.92 331.17,245.02 C 331.42,245.12 331.68,245.23 331.95,245.36 C 332.23,245.49 332.51,245.63 332.80,245.79 C 333.10,245.95 333.41,246.12 333.73,246.30 C 334.05,246.49 334.38,246.69 334.72,246.91 C 335.06,247.12 335.46,247.37 335.78,247.59 C 336.11,247.82 336.40,248.04 336.67,248.25 C 336.94,248.46 337.18,248.67 337.39,248.88 C 337.60,249.08 337.78,249.28 337.94,249.47 C 338.09,249.66 338.22,249.85 338.31,250.03 C 338.41,250.21 338.48,250.39 338.52,250.56 C 338.55,250.73 338.57,250.90 338.55,251.06 C 338.53,251.22 338.48,251.38 338.41,251.53 C 338.33,251.68 338.20,251.83 338.09,251.97 C 337.99,252.11 337.87,252.23 337.76,252.35 C 337.64,252.47 337.52,252.58 337.40,252.68 C 337.27,252.78 337.15,252.87 337.02,252.95 C 336.88,253.04 336.75,253.11 336.61,253.17 C 336.47,253.24 336.33,253.29 336.18,253.34 C 336.03,253.38 335.88,253.42 335.73,253.45 C 335.57,253.47 335.41,253.49 335.25,253.50 C 335.09,253.51 334.92,253.49 334.75,253.50 C 334.58,253.51 334.42,253.53 334.25,253.56 C 334.08,253.59 333.92,253.64 333.75,253.69 C 333.58,253.74 333.42,253.80 333.25,253.88 C 333.08,253.95 332.92,254.03 332.75,254.12 C 332.58,254.22 332.42,254.32 332.25,254.44 C 332.08,254.55 331.92,254.68 331.75,254.81 C 331.58,254.95 331.42,255.09 331.25,255.25 C 331.08,255.41 330.93,255.59 330.75,255.75 C 330.57,255.91 330.38,256.05 330.17,256.19 C 329.97,256.32 329.75,256.45 329.52,256.56 C 329.28,256.68 329.04,256.78 328.78,256.88 C 328.52,256.97 328.25,257.05 327.97,257.12 C 327.68,257.20 327.39,257.26 327.08,257.31 C 326.77,257.36 326.45,257.41 326.11,257.44 C 325.77,257.47 325.42,257.49 325.06,257.50 C 324.70,257.51 324.30,257.49 323.94,257.50 C 323.57,257.51 323.21,257.54 322.87,257.57 C 322.52,257.61 322.18,257.65 321.85,257.71 C 321.52,257.77 321.20,257.84 320.89,257.92 C 320.58,258.00 320.28,258.10 319.98,258.20 C 319.69,258.31 319.41,258.43 319.13,258.55 C 318.86,258.68 318.59,258.82 318.34,258.98 C 318.08,259.13 317.83,259.29 317.59,259.47 C 317.36,259.64 317.12,259.83 316.91,260.03 C 316.69,260.23 316.49,260.43 316.30,260.65 C 316.12,260.86 315.95,261.09 315.79,261.32 C 315.63,261.55 315.49,261.80 315.36,262.05 C 315.23,262.30 315.12,262.56 315.02,262.83 C 314.92,263.10 314.83,263.38 314.76,263.66 C 314.69,263.95 314.63,264.25 314.59,264.55 C 314.54,264.86 314.51,265.18 314.50,265.50 C 314.49,265.82 314.49,266.18 314.50,266.50 C 314.51,266.82 314.53,267.13 314.55,267.43 C 314.58,267.73 314.62,268.01 314.66,268.29 C 314.71,268.56 314.76,268.83 314.83,269.08 C 314.89,269.33 314.96,269.57 315.05,269.80 C 315.13,270.02 315.22,270.24 315.32,270.45 C 315.42,270.65 315.53,270.84 315.65,271.02 C 315.77,271.20 315.89,271.37 316.03,271.53 C 316.17,271.69 316.30,271.83 316.47,271.97 C 316.64,272.11 316.83,272.24 317.04,272.37 C 317.25,272.49 317.49,272.61 317.74,272.73 C 318.00,272.84 318.28,272.95 318.58,273.05 C 318.88,273.15 319.20,273.24 319.55,273.33 C 319.89,273.42 320.26,273.50 320.65,273.57 C 321.04,273.64 321.45,273.71 321.88,273.77 C 322.32,273.83 322.77,273.89 323.25,273.94 C 323.73,273.99 324.28,274.02 324.75,274.06 C 325.22,274.11 325.67,274.16 326.09,274.22 C 326.52,274.28 326.91,274.34 327.28,274.41 C 327.65,274.47 327.99,274.55 328.31,274.62 C 328.63,274.70 328.92,274.79 329.19,274.88 C 329.45,274.96 329.69,275.06 329.91,275.16 C 330.12,275.26 330.31,275.36 330.47,275.47 C 330.63,275.58 330.77,275.69 330.88,275.81 C 330.98,275.93 331.03,276.07 331.12,276.19 C 331.22,276.31 331.32,276.42 331.42,276.53 C 331.53,276.64 331.64,276.74 331.77,276.84 C 331.89,276.94 332.02,277.04 332.16,277.12 C 332.29,277.21 332.44,277.30 332.59,277.38 C 332.75,277.45 332.91,277.53 333.08,277.59 C 333.25,277.66 333.42,277.72 333.61,277.78 C 333.79,277.84 333.99,277.89 334.19,277.94 C 334.39,277.98 334.61,278.02 334.81,278.06 C 335.01,278.11 335.21,278.16 335.40,278.21 C 335.59,278.26 335.77,278.32 335.95,278.38 C 336.12,278.44 336.29,278.51 336.45,278.58 C 336.62,278.65 336.77,278.72 336.92,278.80 C 337.07,278.87 337.21,278.95 337.35,279.04 C 337.49,279.12 337.62,279.21 337.74,279.30 C 337.87,279.40 337.98,279.49 338.09,279.59 C 338.20,279.69 338.32,279.80 338.41,279.91 C 338.50,280.01 338.58,280.11 338.64,280.22 C 338.71,280.32 338.76,280.43 338.80,280.53 C 338.84,280.64 338.86,280.74 338.88,280.84 C 338.89,280.95 338.89,281.05 338.88,281.16 C 338.86,281.26 338.84,281.36 338.80,281.47 C 338.76,281.57 338.71,281.68 338.64,281.78 C 338.58,281.89 338.50,281.99 338.41,282.09 C 338.32,282.20 338.21,282.30 338.09,282.41 C 337.98,282.51 337.86,282.63 337.73,282.74 C 337.60,282.86 337.45,282.98 337.30,283.10 C 337.15,283.23 337.00,283.35 336.83,283.48 C 336.66,283.62 336.48,283.75 336.30,283.89 C 336.11,284.03 335.92,284.17 335.71,284.32 C 335.51,284.47 335.29,284.62 335.07,284.77 C 334.85,284.93 334.62,285.09 334.38,285.25 C 334.13,285.41 333.87,285.59 333.62,285.75 C 333.38,285.91 333.13,286.05 332.89,286.19 C 332.65,286.32 332.41,286.45 332.17,286.56 C 331.93,286.68 331.70,286.78 331.47,286.88 C 331.24,286.97 331.01,287.05 330.78,287.12 C 330.55,287.20 330.33,287.26 330.11,287.31 C 329.89,287.36 329.67,287.41 329.45,287.44 C 329.24,287.47 329.02,287.49 328.81,287.50 C 328.60,287.51 328.40,287.49 328.19,287.50 C 327.97,287.51 327.76,287.53 327.53,287.56 C 327.31,287.59 327.08,287.64 326.84,287.69 C 326.61,287.74 326.37,287.80 326.12,287.88 C 325.88,287.95 325.63,288.03 325.38,288.12 C 325.12,288.22 324.86,288.32 324.59,288.44 C 324.33,288.55 324.06,288.68 323.78,288.81 C 323.51,288.95 323.22,289.09 322.94,289.25 C 322.65,289.41 322.35,289.57 322.06,289.75 C 321.78,289.93 321.49,290.14 321.22,290.36 C 320.94,290.58 320.67,290.82 320.41,291.08 C 320.14,291.34 319.88,291.61 319.62,291.91 C 319.37,292.20 319.12,292.51 318.88,292.84 C 318.63,293.17 318.39,293.52 318.16,293.89 C 317.92,294.26 317.69,294.64 317.47,295.05 C 317.24,295.45 317.03,295.87 316.81,296.31 C 316.60,296.75 316.40,297.26 316.19,297.69 C 315.97,298.12 315.76,298.52 315.53,298.89 C 315.31,299.26 315.08,299.61 314.84,299.92 C 314.61,300.24 314.37,300.52 314.12,300.78 C 313.88,301.04 313.63,301.27 313.38,301.47 C 313.12,301.67 312.86,301.84 312.59,301.98 C 312.33,302.13 312.06,302.24 311.78,302.33 C 311.51,302.41 311.22,302.47 310.94,302.50 C 310.65,302.53 310.35,302.51 310.06,302.50 C 309.77,302.49 309.49,302.46 309.20,302.42 C 308.92,302.38 308.64,302.33 308.36,302.27 C 308.08,302.20 307.80,302.12 307.53,302.03 C 307.26,301.94 306.99,301.84 306.72,301.72 C 306.45,301.60 306.18,301.47 305.92,301.33 C 305.66,301.18 305.40,301.03 305.14,300.86 C 304.88,300.69 304.63,300.51 304.38,300.31 C 304.12,300.12 303.87,299.89 303.62,299.69 C 303.38,299.49 303.13,299.30 302.89,299.12 C 302.65,298.95 302.41,298.78 302.17,298.62 C 301.93,298.47 301.70,298.32 301.47,298.19 C 301.24,298.05 301.01,297.93 300.78,297.81 C 300.55,297.70 300.33,297.59 300.11,297.50 C 299.89,297.41 299.67,297.32 299.45,297.25 C 299.24,297.18 299.02,297.11 298.81,297.06 C 298.60,297.01 298.41,296.97 298.19,296.94 C 297.97,296.91 297.74,296.89 297.50,296.88 C 297.26,296.86 297.01,296.86 296.75,296.88 C 296.49,296.89 296.22,296.91 295.94,296.94 C 295.66,296.97 295.36,297.01 295.06,297.06 C 294.76,297.11 294.45,297.18 294.12,297.25 C 293.80,297.32 293.47,297.41 293.12,297.50 C 292.78,297.59 292.43,297.70 292.06,297.81 C 291.70,297.93 291.30,298.05 290.94,298.19 C 290.57,298.32 290.21,298.47 289.87,298.63 C 289.52,298.79 289.18,298.96 288.85,299.15 C 288.52,299.33 288.20,299.53 287.89,299.73 C 287.58,299.94 287.28,300.16 286.98,300.39 C 286.69,300.62 286.41,300.86 286.13,301.12 C 285.86,301.37 285.59,301.64 285.34,301.91 C 285.08,302.19 284.83,302.48 284.59,302.78 C 284.36,303.08 284.11,303.41 283.91,303.72 C 283.70,304.02 283.51,304.32 283.34,304.61 C 283.18,304.90 283.03,305.18 282.91,305.45 C 282.78,305.73 282.68,305.99 282.59,306.25 C 282.51,306.51 282.45,306.76 282.41,307.00 C 282.36,307.24 282.34,307.48 282.34,307.70 C 282.34,307.93 282.36,308.15 282.41,308.36 C 282.45,308.57 282.51,308.77 282.59,308.97 C 282.68,309.16 282.80,309.35 282.91,309.53 C 283.02,309.71 283.13,309.88 283.25,310.05 C 283.37,310.21 283.49,310.37 283.62,310.52 C 283.76,310.66 283.89,310.80 284.03,310.94 C 284.17,311.07 284.32,311.20 284.47,311.31 C 284.62,311.43 284.78,311.54 284.94,311.64 C 285.10,311.74 285.27,311.84 285.44,311.92 C 285.61,312.01 285.79,312.09 285.97,312.16 C 286.15,312.23 286.28,312.18 286.53,312.34 C 286.78,312.50 287.10,312.76 287.48,313.12 C 287.86,313.47 288.30,313.93 288.80,314.48 C 289.31,315.03 289.88,315.68 290.52,316.42 C 291.15,317.17 291.85,318.01 292.61,318.95 C 293.37,319.89 294.20,320.93 295.09,322.07 C 295.98,323.21 296.93,324.44 297.95,325.77 C 298.96,327.11 300.04,328.54 301.19,330.06 C 302.33,331.59 303.68,333.40 304.81,334.94 C 305.94,336.47 306.99,337.92 307.97,339.28 C 308.94,340.64 309.84,341.91 310.66,343.09 C 311.47,344.28 312.21,345.37 312.88,346.38 C 313.54,347.38 314.12,348.30 314.62,349.12 C 315.13,349.95 315.56,350.69 315.91,351.34 C 316.26,351.99 316.53,352.56 316.72,353.03 C 316.91,353.51 317.03,353.89 317.06,354.19 C 317.10,354.48 316.99,354.61 316.94,354.81 C 316.88,355.02 316.81,355.22 316.73,355.41 C 316.64,355.61 316.54,355.80 316.43,355.99 C 316.32,356.18 316.19,356.37 316.05,356.55 C 315.90,356.73 315.75,356.90 315.58,357.08 C 315.41,357.25 315.22,357.42 315.02,357.59 C 314.82,357.75 314.61,357.91 314.38,358.07 C 314.15,358.23 313.91,358.38 313.66,358.53 C 313.40,358.68 313.13,358.85 312.84,358.97 C 312.56,359.09 312.27,359.18 311.96,359.24 C 311.65,359.31 311.34,359.34 311.01,359.35 C 310.68,359.36 310.34,359.34 309.98,359.30 C 309.63,359.25 309.27,359.18 308.89,359.08 C 308.51,358.98 308.13,358.85 307.73,358.70 C 307.33,358.54 306.92,358.36 306.49,358.15 C 306.07,357.94 305.63,357.70 305.19,357.44 Z" />
    </clipPath>
  </defs>
  <path d="M 305.19,357.44 C 304.74,357.17 304.34,356.92 303.81,356.56 C 303.29,356.21 302.69,355.78 302.03,355.30 C 301.37,354.81 300.64,354.26 299.84,353.64 C 299.05,353.02 298.18,352.34 297.25,351.59 C 296.32,350.85 295.32,350.03 294.25,349.16 C 293.18,348.28 292.05,347.34 290.84,346.33 C 289.64,345.32 288.37,344.25 287.03,343.11 C 285.69,341.97 284.29,340.77 282.81,339.50 C 281.34,338.23 279.65,336.73 278.19,335.50 C 276.73,334.27 275.35,333.14 274.06,332.11 C 272.77,331.08 271.56,330.15 270.44,329.33 C 269.31,328.50 268.27,327.78 267.31,327.16 C 266.35,326.53 265.48,326.01 264.69,325.59 C 263.90,325.17 263.19,324.86 262.56,324.64 C 261.94,324.42 261.40,324.31 260.94,324.30 C 260.48,324.28 260.10,324.37 259.81,324.56 C 259.52,324.75 259.41,325.17 259.19,325.44 C 258.97,325.71 258.74,325.96 258.50,326.19 C 258.26,326.42 258.01,326.62 257.75,326.81 C 257.49,327.00 257.22,327.17 256.94,327.31 C 256.66,327.46 256.36,327.58 256.06,327.69 C 255.76,327.79 255.45,327.88 255.12,327.94 C 254.80,328.00 254.47,328.04 254.12,328.06 C 253.78,328.08 253.43,328.08 253.06,328.06 C 252.70,328.04 252.35,328.02 251.94,327.94 C 251.53,327.86 251.09,327.74 250.61,327.58 C 250.13,327.42 249.62,327.22 249.08,326.98 C 248.53,326.75 247.96,326.47 247.34,326.16 C 246.73,325.84 246.09,325.49 245.41,325.09 C 244.73,324.70 244.01,324.27 243.27,323.80 C 242.52,323.33 241.74,322.82 240.92,322.27 C 240.11,321.72 239.26,321.13 238.38,320.50 C 237.49,319.87 236.49,319.14 235.62,318.50 C 234.76,317.86 233.96,317.26 233.20,316.69 C 232.45,316.11 231.75,315.57 231.11,315.06 C 230.47,314.55 229.88,314.07 229.34,313.62 C 228.81,313.18 228.33,312.76 227.91,312.38 C 227.48,311.99 227.11,311.64 226.80,311.31 C 226.48,310.99 226.22,310.70 226.02,310.44 C 225.81,310.18 225.66,309.95 225.56,309.75 C 225.47,309.55 225.50,309.41 225.44,309.25 C 225.38,309.09 225.30,308.95 225.20,308.81 C 225.11,308.68 224.99,308.55 224.86,308.44 C 224.73,308.32 224.58,308.22 224.41,308.12 C 224.24,308.03 224.05,307.95 223.84,307.88 C 223.64,307.80 223.41,307.74 223.17,307.69 C 222.93,307.64 222.67,307.59 222.39,307.56 C 222.11,307.53 221.82,307.51 221.50,307.50 C 221.18,307.49 220.81,307.51 220.50,307.50 C 220.19,307.49 219.90,307.48 219.64,307.45 C 219.38,307.43 219.14,307.40 218.92,307.36 C 218.71,307.32 218.51,307.27 218.34,307.22 C 218.17,307.16 218.03,307.10 217.91,307.03 C 217.78,306.96 217.68,306.88 217.61,306.80 C 217.53,306.71 217.48,306.62 217.45,306.52 C 217.42,306.41 217.42,306.30 217.44,306.19 C 217.46,306.07 217.52,305.93 217.56,305.81 C 217.61,305.70 217.66,305.59 217.72,305.50 C 217.78,305.41 217.84,305.32 217.91,305.25 C 217.97,305.18 218.05,305.11 218.12,305.06 C 218.20,305.01 218.29,304.97 218.38,304.94 C 218.46,304.91 218.56,304.89 218.66,304.88 C 218.76,304.86 218.86,304.86 218.97,304.88 C 219.08,304.89 219.19,304.91 219.31,304.94 C 219.43,304.97 219.57,305.03 219.69,305.06 C 219.81,305.10 219.93,305.13 220.04,305.15 C 220.15,305.17 220.26,305.19 220.37,305.20 C 220.47,305.20 220.57,305.21 220.67,305.20 C 220.77,305.20 220.86,305.19 220.95,305.17 C 221.04,305.15 221.13,305.13 221.21,305.10 C 221.29,305.07 221.37,305.04 221.45,304.99 C 221.52,304.95 221.59,304.90 221.66,304.84 C 221.72,304.79 221.82,304.72 221.84,304.66 C 221.87,304.59 221.87,304.52 221.83,304.44 C 221.79,304.36 221.72,304.28 221.61,304.19 C 221.50,304.10 221.36,304.01 221.19,303.91 C 221.01,303.81 220.80,303.70 220.56,303.59 C 220.32,303.48 220.04,303.37 219.73,303.25 C 219.42,303.13 219.08,303.01 218.70,302.88 C 218.33,302.74 217.91,302.61 217.47,302.47 C 217.02,302.33 216.51,302.19 216.03,302.03 C 215.55,301.87 215.07,301.70 214.59,301.51 C 214.10,301.32 213.62,301.12 213.13,300.90 C 212.65,300.68 212.16,300.45 211.67,300.20 C 211.18,299.96 210.69,299.70 210.20,299.42 C 209.71,299.15 209.22,298.86 208.73,298.55 C 208.23,298.25 207.74,297.93 207.24,297.60 C 206.75,297.27 206.25,296.92 205.75,296.56 C 205.25,296.20 204.73,295.80 204.25,295.44 C 203.77,295.08 203.32,294.74 202.90,294.41 C 202.47,294.09 202.07,293.78 201.70,293.49 C 201.32,293.20 200.97,292.93 200.64,292.67 C 200.31,292.42 200.01,292.18 199.73,291.95 C 199.46,291.73 199.20,291.52 198.98,291.34 C 198.75,291.15 198.55,290.98 198.37,290.82 C 198.19,290.67 198.04,290.53 197.91,290.41 C 197.78,290.29 197.69,290.20 197.59,290.09 C 197.50,289.99 197.41,289.89 197.33,289.78 C 197.25,289.68 197.17,289.57 197.11,289.47 C 197.04,289.36 196.99,289.26 196.94,289.16 C 196.89,289.05 196.85,288.95 196.81,288.84 C 196.78,288.74 196.75,288.64 196.73,288.53 C 196.72,288.43 196.71,288.32 196.70,288.22 C 196.70,288.11 196.71,288.01 196.72,287.91 C 196.73,287.80 196.81,287.71 196.78,287.59 C 196.75,287.48 196.68,287.36 196.55,287.23 C 196.43,287.10 196.26,286.95 196.04,286.80 C 195.82,286.65 195.55,286.50 195.23,286.33 C 194.92,286.16 194.55,285.98 194.14,285.80 C 193.73,285.61 193.27,285.42 192.76,285.21 C 192.25,285.01 191.69,284.79 191.09,284.57 C 190.48,284.35 189.83,284.12 189.12,283.88 C 188.42,283.63 187.61,283.36 186.88,283.12 C 186.14,282.89 185.41,282.67 184.70,282.47 C 183.99,282.27 183.29,282.08 182.61,281.91 C 181.92,281.73 181.25,281.58 180.59,281.44 C 179.93,281.30 179.29,281.17 178.66,281.06 C 178.02,280.95 177.40,280.86 176.80,280.78 C 176.19,280.70 175.60,280.64 175.02,280.59 C 174.43,280.55 173.87,280.52 173.31,280.50 C 172.76,280.48 172.20,280.51 171.69,280.50 C 171.18,280.49 170.71,280.48 170.27,280.47 C 169.83,280.45 169.42,280.43 169.05,280.41 C 168.67,280.38 168.34,280.35 168.03,280.31 C 167.73,280.28 167.46,280.23 167.22,280.19 C 166.98,280.14 166.78,280.09 166.61,280.03 C 166.44,279.97 166.30,279.91 166.20,279.84 C 166.10,279.78 166.03,279.70 166.00,279.62 C 165.97,279.55 165.97,279.45 166.00,279.38 C 166.03,279.30 166.09,279.22 166.19,279.16 C 166.28,279.09 166.41,279.03 166.56,278.97 C 166.72,278.91 166.91,278.86 167.12,278.81 C 167.34,278.77 167.59,278.72 167.88,278.69 C 168.16,278.65 168.47,278.62 168.81,278.59 C 169.16,278.57 169.53,278.55 169.94,278.53 C 170.34,278.52 170.78,278.51 171.25,278.50 C 171.72,278.49 172.28,278.51 172.75,278.50 C 173.22,278.49 173.67,278.48 174.09,278.45 C 174.52,278.43 174.91,278.40 175.28,278.36 C 175.65,278.32 175.99,278.27 176.31,278.22 C 176.63,278.16 176.92,278.10 177.19,278.03 C 177.45,277.96 177.69,277.88 177.91,277.80 C 178.12,277.71 178.31,277.62 178.47,277.52 C 178.63,277.41 178.77,277.30 178.88,277.19 C 178.98,277.07 179.07,276.93 179.12,276.81 C 179.18,276.70 179.20,276.59 179.19,276.48 C 179.18,276.38 179.14,276.29 179.06,276.20 C 178.99,276.12 178.89,276.04 178.75,275.97 C 178.61,275.90 178.45,275.84 178.25,275.78 C 178.05,275.73 177.82,275.68 177.56,275.64 C 177.30,275.60 177.01,275.57 176.69,275.55 C 176.36,275.52 176.01,275.51 175.62,275.50 C 175.24,275.49 174.80,275.52 174.38,275.50 C 173.95,275.48 173.51,275.44 173.05,275.38 C 172.60,275.32 172.14,275.25 171.66,275.15 C 171.19,275.05 170.70,274.93 170.20,274.80 C 169.70,274.66 169.19,274.50 168.67,274.33 C 168.15,274.15 167.62,273.96 167.07,273.74 C 166.52,273.53 165.97,273.29 165.40,273.04 C 164.83,272.79 164.25,272.51 163.66,272.22 C 163.06,271.93 162.41,271.58 161.84,271.28 C 161.27,270.98 160.74,270.68 160.24,270.40 C 159.74,270.11 159.28,269.84 158.85,269.57 C 158.42,269.30 158.03,269.05 157.67,268.80 C 157.31,268.55 156.99,268.31 156.70,268.08 C 156.42,267.85 156.16,267.63 155.95,267.41 C 155.73,267.20 155.55,267.00 155.40,266.80 C 155.25,266.61 155.14,266.43 155.06,266.25 C 154.99,266.07 154.95,265.92 154.94,265.75 C 154.92,265.58 154.93,265.40 154.96,265.23 C 154.99,265.05 155.05,264.87 155.13,264.68 C 155.21,264.49 155.32,264.30 155.45,264.11 C 155.58,263.92 155.74,263.72 155.92,263.52 C 156.10,263.31 156.31,263.11 156.54,262.90 C 156.77,262.69 157.02,262.48 157.30,262.26 C 157.58,262.04 157.89,261.82 158.22,261.59 C 158.55,261.37 158.90,261.13 159.28,260.91 C 159.66,260.68 160.06,260.47 160.48,260.27 C 160.91,260.06 161.36,259.86 161.83,259.67 C 162.30,259.48 162.79,259.30 163.31,259.12 C 163.83,258.95 164.37,258.78 164.94,258.62 C 165.50,258.47 166.09,258.32 166.70,258.17 C 167.32,258.03 167.95,257.89 168.61,257.77 C 169.27,257.64 169.95,257.52 170.66,257.41 C 171.36,257.29 172.17,257.20 172.84,257.09 C 173.52,256.99 174.15,256.89 174.72,256.78 C 175.29,256.68 175.81,256.57 176.28,256.47 C 176.75,256.36 177.17,256.26 177.53,256.16 C 177.90,256.05 178.21,255.95 178.47,255.84 C 178.73,255.74 178.94,255.64 179.09,255.53 C 179.25,255.43 179.35,255.32 179.41,255.22 C 179.46,255.11 179.46,255.01 179.41,254.91 C 179.35,254.80 179.22,254.69 179.09,254.59 C 178.96,254.50 178.81,254.40 178.63,254.32 C 178.45,254.24 178.25,254.16 178.02,254.09 C 177.80,254.01 177.54,253.95 177.27,253.89 C 176.99,253.83 176.69,253.78 176.36,253.73 C 176.03,253.69 175.68,253.65 175.30,253.62 C 174.93,253.58 174.53,253.56 174.10,253.54 C 173.68,253.52 173.23,253.51 172.75,253.50 C 172.27,253.49 171.72,253.51 171.25,253.50 C 170.78,253.49 170.34,253.48 169.94,253.47 C 169.53,253.45 169.16,253.43 168.81,253.41 C 168.47,253.38 168.16,253.35 167.88,253.31 C 167.59,253.28 167.34,253.23 167.12,253.19 C 166.91,253.14 166.72,253.09 166.56,253.03 C 166.41,252.97 166.28,252.91 166.19,252.84 C 166.09,252.78 166.03,252.70 166.00,252.62 C 165.97,252.55 165.97,252.45 166.00,252.38 C 166.03,252.30 166.09,252.22 166.19,252.16 C 166.28,252.09 166.41,252.03 166.56,251.97 C 166.72,251.91 166.91,251.86 167.12,251.81 C 167.34,251.77 167.59,251.72 167.88,251.69 C 168.16,251.65 168.47,251.62 168.81,251.59 C 169.16,251.57 169.53,251.55 169.94,251.53 C 170.34,251.52 170.78,251.51 171.25,251.50 C 171.72,251.49 172.23,251.52 172.75,251.50 C 173.27,251.48 173.80,251.45 174.34,251.41 C 174.89,251.36 175.45,251.30 176.03,251.22 C 176.61,251.14 177.20,251.05 177.81,250.94 C 178.42,250.83 179.05,250.70 179.69,250.56 C 180.33,250.42 180.98,250.27 181.66,250.09 C 182.33,249.92 183.02,249.73 183.72,249.53 C 184.42,249.33 185.14,249.11 185.88,248.88 C 186.61,248.64 187.41,248.38 188.12,248.12 C 188.84,247.87 189.52,247.62 190.17,247.36 C 190.82,247.10 191.43,246.84 192.02,246.58 C 192.60,246.32 193.14,246.05 193.66,245.78 C 194.17,245.51 194.65,245.24 195.09,244.97 C 195.54,244.70 195.95,244.42 196.33,244.14 C 196.71,243.86 197.05,243.58 197.36,243.30 C 197.67,243.01 197.95,242.73 198.19,242.44 C 198.43,242.15 198.59,241.86 198.81,241.56 C 199.04,241.27 199.28,240.96 199.55,240.66 C 199.81,240.35 200.09,240.04 200.39,239.72 C 200.69,239.40 201.01,239.08 201.34,238.75 C 201.68,238.42 202.03,238.09 202.41,237.75 C 202.78,237.41 203.17,237.07 203.58,236.72 C 203.99,236.37 204.41,236.02 204.86,235.66 C 205.30,235.30 205.77,234.93 206.25,234.56 C 206.73,234.19 207.26,233.79 207.75,233.44 C 208.24,233.08 208.73,232.75 209.20,232.44 C 209.68,232.12 210.15,231.83 210.61,231.56 C 211.07,231.29 211.52,231.04 211.97,230.81 C 212.41,230.58 212.85,230.38 213.28,230.19 C 213.71,230.00 214.13,229.83 214.55,229.69 C 214.96,229.54 215.37,229.42 215.77,229.31 C 216.16,229.21 216.55,229.12 216.94,229.06 C 217.32,229.00 217.71,228.98 218.06,228.94 C 218.41,228.89 218.74,228.85 219.05,228.80 C 219.35,228.75 219.63,228.70 219.89,228.64 C 220.15,228.59 220.38,228.53 220.59,228.47 C 220.80,228.41 220.99,228.35 221.16,228.28 C 221.32,228.22 221.46,228.15 221.58,228.08 C 221.70,228.01 221.79,227.93 221.86,227.86 C 221.93,227.78 221.98,227.71 222.00,227.62 C 222.02,227.54 222.01,227.45 222.00,227.38 C 221.99,227.30 221.96,227.22 221.92,227.16 C 221.88,227.09 221.83,227.03 221.77,226.97 C 221.70,226.91 221.62,226.86 221.53,226.81 C 221.44,226.77 221.34,226.72 221.22,226.69 C 221.10,226.65 220.97,226.62 220.83,226.59 C 220.68,226.57 220.53,226.55 220.36,226.53 C 220.19,226.52 220.01,226.51 219.81,226.50 C 219.62,226.49 219.38,226.51 219.19,226.50 C 218.99,226.49 218.81,226.48 218.64,226.47 C 218.47,226.45 218.32,226.43 218.17,226.41 C 218.03,226.38 217.90,226.35 217.78,226.31 C 217.66,226.28 217.56,226.23 217.47,226.19 C 217.38,226.14 217.30,226.09 217.23,226.03 C 217.17,225.97 217.12,225.91 217.08,225.84 C 217.04,225.78 217.01,225.70 217.00,225.62 C 216.99,225.55 216.98,225.46 217.00,225.38 C 217.02,225.29 217.07,225.22 217.14,225.14 C 217.21,225.07 217.30,224.99 217.42,224.92 C 217.54,224.85 217.68,224.78 217.84,224.72 C 218.01,224.65 218.20,224.59 218.41,224.53 C 218.62,224.47 218.85,224.41 219.11,224.36 C 219.37,224.30 219.65,224.25 219.95,224.20 C 220.26,224.15 220.59,224.11 220.94,224.06 C 221.29,224.02 221.71,223.98 222.06,223.94 C 222.41,223.89 222.73,223.85 223.02,223.80 C 223.32,223.76 223.58,223.71 223.82,223.66 C 224.06,223.62 224.27,223.57 224.45,223.52 C 224.64,223.46 224.79,223.41 224.92,223.36 C 225.05,223.31 225.15,223.25 225.23,223.20 C 225.30,223.14 225.35,223.08 225.37,223.02 C 225.39,222.96 225.38,222.90 225.34,222.84 C 225.31,222.78 225.21,222.72 225.16,222.66 C 225.11,222.59 225.07,222.52 225.05,222.44 C 225.02,222.36 225.01,222.28 225.02,222.19 C 225.02,222.10 225.03,222.01 225.06,221.91 C 225.09,221.81 225.13,221.70 225.19,221.59 C 225.24,221.48 225.31,221.37 225.39,221.25 C 225.47,221.13 225.57,221.01 225.67,220.88 C 225.78,220.74 225.90,220.61 226.03,220.47 C 226.16,220.33 226.28,220.21 226.47,220.03 C 226.66,219.86 226.90,219.65 227.18,219.41 C 227.46,219.18 227.79,218.91 228.16,218.62 C 228.54,218.32 228.96,218.00 229.42,217.64 C 229.89,217.29 230.40,216.90 230.95,216.48 C 231.51,216.07 232.11,215.62 232.76,215.15 C 233.40,214.67 234.10,214.17 234.84,213.63 C 235.57,213.10 236.36,212.53 237.19,211.94 C 238.02,211.34 238.97,210.65 239.81,210.06 C 240.65,209.48 241.46,208.93 242.23,208.42 C 243.01,207.91 243.75,207.45 244.45,207.02 C 245.16,206.59 245.83,206.20 246.47,205.84 C 247.11,205.49 247.71,205.18 248.28,204.91 C 248.85,204.63 249.39,204.40 249.89,204.20 C 250.39,204.01 250.86,203.85 251.30,203.73 C 251.73,203.62 252.13,203.54 252.50,203.50 C 252.87,203.46 253.17,203.48 253.50,203.50 C 253.83,203.52 254.14,203.55 254.45,203.61 C 254.76,203.66 255.07,203.74 255.36,203.83 C 255.65,203.92 255.94,204.03 256.22,204.16 C 256.50,204.28 256.77,204.43 257.03,204.59 C 257.29,204.76 257.55,204.94 257.80,205.14 C 258.04,205.34 258.28,205.56 258.52,205.80 C 258.75,206.03 258.97,206.29 259.19,206.56 C 259.40,206.84 259.60,207.18 259.81,207.44 C 260.02,207.70 260.24,207.92 260.45,208.11 C 260.67,208.30 260.89,208.46 261.11,208.58 C 261.33,208.70 261.55,208.79 261.78,208.84 C 262.01,208.90 262.24,208.92 262.47,208.91 C 262.70,208.89 262.93,208.85 263.17,208.77 C 263.41,208.68 263.65,208.57 263.89,208.42 C 264.13,208.27 264.38,208.09 264.62,207.88 C 264.87,207.66 265.04,207.45 265.38,207.12 C 265.71,206.80 266.14,206.41 266.66,205.95 C 267.17,205.49 267.78,204.96 268.47,204.36 C 269.16,203.76 269.94,203.09 270.81,202.34 C 271.68,201.60 272.64,200.79 273.69,199.91 C 274.73,199.02 275.87,198.07 277.09,197.05 C 278.32,196.02 279.63,194.93 281.03,193.77 C 282.43,192.60 283.92,191.37 285.50,190.06 C 287.08,188.76 288.92,187.22 290.50,185.94 C 292.08,184.65 293.58,183.46 294.98,182.36 C 296.39,181.26 297.72,180.25 298.95,179.33 C 300.19,178.41 301.34,177.58 302.41,176.84 C 303.47,176.11 304.45,175.46 305.34,174.91 C 306.24,174.35 307.04,173.89 307.77,173.52 C 308.49,173.14 309.12,172.86 309.67,172.67 C 310.22,172.48 310.68,172.38 311.06,172.38 C 311.44,172.37 311.66,172.53 311.94,172.62 C 312.22,172.72 312.49,172.82 312.74,172.93 C 313.00,173.04 313.24,173.16 313.48,173.29 C 313.71,173.42 313.93,173.56 314.14,173.70 C 314.35,173.85 314.55,174.01 314.73,174.17 C 314.92,174.34 315.10,174.51 315.26,174.70 C 315.42,174.88 315.57,175.07 315.71,175.27 C 315.85,175.48 315.98,175.69 316.09,175.91 C 316.21,176.13 316.38,176.27 316.41,176.59 C 316.43,176.91 316.37,177.32 316.23,177.82 C 316.08,178.32 315.86,178.91 315.55,179.59 C 315.25,180.26 314.86,181.03 314.39,181.89 C 313.92,182.75 313.37,183.70 312.73,184.73 C 312.10,185.77 311.38,186.90 310.59,188.12 C 309.79,189.33 308.91,190.64 307.95,192.04 C 306.98,193.44 305.94,194.92 304.81,196.50 C 303.69,198.08 302.33,199.94 301.19,201.50 C 300.05,203.06 298.97,204.52 297.96,205.88 C 296.95,207.24 296.01,208.50 295.13,209.65 C 294.26,210.80 293.45,211.85 292.70,212.80 C 291.96,213.74 291.28,214.59 290.67,215.33 C 290.06,216.07 289.52,216.71 289.04,217.24 C 288.56,217.78 288.15,218.21 287.80,218.54 C 287.46,218.87 287.18,219.10 286.97,219.22 C 286.76,219.34 286.68,219.25 286.53,219.28 C 286.39,219.32 286.24,219.36 286.09,219.42 C 285.95,219.48 285.80,219.55 285.66,219.64 C 285.51,219.73 285.36,219.83 285.22,219.94 C 285.07,220.05 284.93,220.17 284.78,220.31 C 284.64,220.45 284.49,220.60 284.34,220.77 C 284.20,220.93 284.05,221.11 283.91,221.30 C 283.76,221.49 283.61,221.69 283.47,221.91 C 283.32,222.12 283.15,222.36 283.03,222.59 C 282.91,222.83 282.81,223.07 282.73,223.31 C 282.66,223.56 282.61,223.81 282.58,224.06 C 282.55,224.32 282.54,224.58 282.56,224.84 C 282.58,225.11 282.62,225.38 282.69,225.66 C 282.75,225.93 282.84,226.21 282.95,226.50 C 283.07,226.79 283.20,227.08 283.36,227.38 C 283.52,227.67 283.70,227.97 283.91,228.28 C 284.11,228.59 284.36,228.92 284.59,229.22 C 284.83,229.52 285.08,229.81 285.34,230.09 C 285.59,230.36 285.86,230.63 286.13,230.88 C 286.41,231.14 286.69,231.38 286.98,231.61 C 287.28,231.84 287.58,232.06 287.89,232.27 C 288.20,232.47 288.52,232.67 288.85,232.85 C 289.18,233.04 289.52,233.21 289.87,233.37 C 290.21,233.53 290.57,233.68 290.94,233.81 C 291.30,233.95 291.70,234.08 292.06,234.19 C 292.43,234.30 292.79,234.40 293.14,234.48 C 293.49,234.57 293.84,234.64 294.17,234.70 C 294.51,234.76 294.84,234.81 295.16,234.84 C 295.48,234.88 295.79,234.90 296.09,234.91 C 296.40,234.91 296.70,234.91 296.98,234.89 C 297.27,234.87 297.55,234.84 297.83,234.80 C 298.10,234.75 298.37,234.70 298.62,234.62 C 298.88,234.55 299.12,234.47 299.38,234.38 C 299.62,234.28 299.88,234.18 300.12,234.08 C 300.38,233.97 300.62,233.86 300.88,233.73 C 301.12,233.61 301.38,233.48 301.62,233.34 C 301.88,233.21 302.12,233.06 302.38,232.91 C 302.62,232.75 302.88,232.59 303.12,232.42 C 303.38,232.25 303.62,232.08 303.88,231.89 C 304.12,231.71 304.38,231.51 304.62,231.31 C 304.88,231.11 305.13,230.88 305.38,230.69 C 305.62,230.49 305.87,230.32 306.11,230.16 C 306.35,229.99 306.59,229.85 306.83,229.72 C 307.07,229.59 307.30,229.47 307.53,229.38 C 307.76,229.28 307.99,229.19 308.22,229.12 C 308.45,229.06 308.67,229.01 308.89,228.97 C 309.11,228.93 309.33,228.91 309.55,228.91 C 309.76,228.90 309.98,228.91 310.19,228.94 C 310.40,228.96 310.61,229.02 310.81,229.06 C 311.01,229.11 311.21,229.15 311.40,229.20 C 311.59,229.24 311.77,229.29 311.95,229.34 C 312.12,229.38 312.29,229.43 312.45,229.48 C 312.62,229.54 312.77,229.59 312.92,229.64 C 313.07,229.69 313.21,229.75 313.35,229.80 C 313.49,229.86 313.62,229.92 313.74,229.98 C 313.87,230.04 313.98,230.10 314.09,230.16 C 314.20,230.22 314.30,230.26 314.41,230.34 C 314.51,230.42 314.61,230.52 314.72,230.64 C 314.82,230.76 314.93,230.89 315.03,231.05 C 315.14,231.20 315.24,231.37 315.34,231.56 C 315.45,231.75 315.55,231.96 315.66,232.19 C 315.76,232.41 315.86,232.66 315.97,232.92 C 316.07,233.18 316.18,233.47 316.28,233.77 C 316.39,234.07 316.49,234.38 316.59,234.72 C 316.70,235.05 316.79,235.44 316.91,235.78 C 317.03,236.13 317.17,236.46 317.32,236.79 C 317.48,237.12 317.65,237.43 317.84,237.74 C 318.02,238.05 318.23,238.35 318.45,238.64 C 318.68,238.93 318.92,239.21 319.17,239.48 C 319.43,239.76 319.70,240.02 319.99,240.27 C 320.28,240.53 320.59,240.77 320.91,241.01 C 321.24,241.24 321.58,241.47 321.94,241.69 C 322.30,241.90 322.70,242.12 323.06,242.31 C 323.42,242.51 323.77,242.69 324.11,242.86 C 324.45,243.03 324.77,243.18 325.08,243.33 C 325.39,243.47 325.68,243.60 325.97,243.72 C 326.25,243.84 326.52,243.94 326.78,244.03 C 327.04,244.12 327.28,244.20 327.52,244.27 C 327.75,244.33 327.97,244.38 328.17,244.42 C 328.38,244.46 328.57,244.49 328.75,244.50 C 328.93,244.51 329.07,244.49 329.25,244.50 C 329.43,244.51 329.62,244.54 329.82,244.59 C 330.02,244.63 330.24,244.69 330.46,244.76 C 330.69,244.83 330.92,244.92 331.17,245.02 C 331.42,245.12 331.68,245.23 331.95,245.36 C 332.23,245.49 332.51,245.63 332.80,245.79 C 333.10,245.95 333.41,246.12 333.73,246.30 C 334.05,246.49 334.38,246.69 334.72,246.91 C 335.06,247.12 335.46,247.37 335.78,247.59 C 336.11,247.82 336.40,248.04 336.67,248.25 C 336.94,248.46 337.18,248.67 337.39,248.88 C 337.60,249.08 337.78,249.28 337.94,249.47 C 338.09,249.66 338.22,249.85 338.31,250.03 C 338.41,250.21 338.48,250.39 338.52,250.56 C 338.55,250.73 338.57,250.90 338.55,251.06 C 338.53,251.22 338.48,251.38 338.41,251.53 C 338.33,251.68 338.20,251.83 338.09,251.97 C 337.99,252.11 337.87,252.23 337.76,252.35 C 337.64,252.47 337.52,252.58 337.40,252.68 C 337.27,252.78 337.15,252.87 337.02,252.95 C 336.88,253.04 336.75,253.11 336.61,253.17 C 336.47,253.24 336.33,253.29 336.18,253.34 C 336.03,253.38 335.88,253.42 335.73,253.45 C 335.57,253.47 335.41,253.49 335.25,253.50 C 335.09,253.51 334.92,253.49 334.75,253.50 C 334.58,253.51 334.42,253.53 334.25,253.56 C 334.08,253.59 333.92,253.64 333.75,253.69 C 333.58,253.74 333.42,253.80 333.25,253.88 C 333.08,253.95 332.92,254.03 332.75,254.12 C 332.58,254.22 332.42,254.32 332.25,254.44 C 332.08,254.55 331.92,254.68 331.75,254.81 C 331.58,254.95 331.42,255.09 331.25,255.25 C 331.08,255.41 330.93,255.59 330.75,255.75 C 330.57,255.91 330.38,256.05 330.17,256.19 C 329.97,256.32 329.75,256.45 329.52,256.56 C 329.28,256.68 329.04,256.78 328.78,256.88 C 328.52,256.97 328.25,257.05 327.97,257.12 C 327.68,257.20 327.39,257.26 327.08,257.31 C 326.77,257.36 326.45,257.41 326.11,257.44 C 325.77,257.47 325.42,257.49 325.06,257.50 C 324.70,257.51 324.30,257.49 323.94,257.50 C 323.57,257.51 323.21,257.54 322.87,257.57 C 322.52,257.61 322.18,257.65 321.85,257.71 C 321.52,257.77 321.20,257.84 320.89,257.92 C 320.58,258.00 320.28,258.10 319.98,258.20 C 319.69,258.31 319.41,258.43 319.13,258.55 C 318.86,258.68 318.59,258.82 318.34,258.98 C 318.08,259.13 317.83,259.29 317.59,259.47 C 317.36,259.64 317.12,259.83 316.91,260.03 C 316.69,260.23 316.49,260.43 316.30,260.65 C 316.12,260.86 315.95,261.09 315.79,261.32 C 315.63,261.55 315.49,261.80 315.36,262.05 C 315.23,262.30 315.12,262.56 315.02,262.83 C 314.92,263.10 314.83,263.38 314.76,263.66 C 314.69,263.95 314.63,264.25 314.59,264.55 C 314.54,264.86 314.51,265.18 314.50,265.50 C 314.49,265.82 314.49,266.18 314.50,266.50 C 314.51,266.82 314.53,267.13 314.55,267.43 C 314.58,267.73 314.62,268.01 314.66,268.29 C 314.71,268.56 314.76,268.83 314.83,269.08 C 314.89,269.33 314.96,269.57 315.05,269.80 C 315.13,270.02 315.22,270.24 315.32,270.45 C 315.42,270.65 315.53,270.84 315.65,271.02 C 315.77,271.20 315.89,271.37 316.03,271.53 C 316.17,271.69 316.30,271.83 316.47,271.97 C 316.64,272.11 316.83,272.24 317.04,272.37 C 317.25,272.49 317.49,272.61 317.74,272.73 C 318.00,272.84 318.28,272.95 318.58,273.05 C 318.88,273.15 319.20,273.24 319.55,273.33 C 319.89,273.42 320.26,273.50 320.65,273.57 C 321.04,273.64 321.45,273.71 321.88,273.77 C 322.32,273.83 322.77,273.89 323.25,273.94 C 323.73,273.99 324.28,274.02 324.75,274.06 C 325.22,274.11 325.67,274.16 326.09,274.22 C 326.52,274.28 326.91,274.34 327.28,274.41 C 327.65,274.47 327.99,274.55 328.31,274.62 C 328.63,274.70 328.92,274.79 329.19,274.88 C 329.45,274.96 329.69,275.06 329.91,275.16 C 330.12,275.26 330.31,275.36 330.47,275.47 C 330.63,275.58 330.77,275.69 330.88,275.81 C 330.98,275.93 331.03,276.07 331.12,276.19 C 331.22,276.31 331.32,276.42 331.42,276.53 C 331.53,276.64 331.64,276.74 331.77,276.84 C 331.89,276.94 332.02,277.04 332.16,277.12 C 332.29,277.21 332.44,277.30 332.59,277.38 C 332.75,277.45 332.91,277.53 333.08,277.59 C 333.25,277.66 333.42,277.72 333.61,277.78 C 333.79,277.84 333.99,277.89 334.19,277.94 C 334.39,277.98 334.61,278.02 334.81,278.06 C 335.01,278.11 335.21,278.16 335.40,278.21 C 335.59,278.26 335.77,278.32 335.95,278.38 C 336.12,278.44 336.29,278.51 336.45,278.58 C 336.62,278.65 336.77,278.72 336.92,278.80 C 337.07,278.87 337.21,278.95 337.35,279.04 C 337.49,279.12 337.62,279.21 337.74,279.30 C 337.87,279.40 337.98,279.49 338.09,279.59 C 338.20,279.69 338.32,279.80 338.41,279.91 C 338.50,280.01 338.58,280.11 338.64,280.22 C 338.71,280.32 338.76,280.43 338.80,280.53 C 338.84,280.64 338.86,280.74 338.88,280.84 C 338.89,280.95 338.89,281.05 338.88,281.16 C 338.86,281.26 338.84,281.36 338.80,281.47 C 338.76,281.57 338.71,281.68 338.64,281.78 C 338.58,281.89 338.50,281.99 338.41,282.09 C 338.32,282.20 338.21,282.30 338.09,282.41 C 337.98,282.51 337.86,282.63 337.73,282.74 C 337.60,282.86 337.45,282.98 337.30,283.10 C 337.15,283.23 337.00,283.35 336.83,283.48 C 336.66,283.62 336.48,283.75 336.30,283.89 C 336.11,284.03 335.92,284.17 335.71,284.32 C 335.51,284.47 335.29,284.62 335.07,284.77 C 334.85,284.93 334.62,285.09 334.38,285.25 C 334.13,285.41 333.87,285.59 333.62,285.75 C 333.38,285.91 333.13,286.05 332.89,286.19 C 332.65,286.32 332.41,286.45 332.17,286.56 C 331.93,286.68 331.70,286.78 331.47,286.88 C 331.24,286.97 331.01,287.05 330.78,287.12 C 330.55,287.20 330.33,287.26 330.11,287.31 C 329.89,287.36 329.67,287.41 329.45,287.44 C 329.24,287.47 329.02,287.49 328.81,287.50 C 328.60,287.51 328.40,287.49 328.19,287.50 C 327.97,287.51 327.76,287.53 327.53,287.56 C 327.31,287.59 327.08,287.64 326.84,287.69 C 326.61,287.74 326.37,287.80 326.12,287.88 C 325.88,287.95 325.63,288.03 325.38,288.12 C 325.12,288.22 324.86,288.32 324.59,288.44 C 324.33,288.55 324.06,288.68 323.78,288.81 C 323.51,288.95 323.22,289.09 322.94,289.25 C 322.65,289.41 322.35,289.57 322.06,289.75 C 321.78,289.93 321.49,290.14 321.22,290.36 C 320.94,290.58 320.67,290.82 320.41,291.08 C 320.14,291.34 319.88,291.61 319.62,291.91 C 319.37,292.20 319.12,292.51 318.88,292.84 C 318.63,293.17 318.39,293.52 318.16,293.89 C 317.92,294.26 317.69,294.64 317.47,295.05 C 317.24,295.45 317.03,295.87 316.81,296.31 C 316.60,296.75 316.40,297.26 316.19,297.69 C 315.97,298.12 315.76,298.52 315.53,298.89 C 315.31,299.26 315.08,299.61 314.84,299.92 C 314.61,300.24 314.37,300.52 314.12,300.78 C 313.88,301.04 313.63,301.27 313.38,301.47 C 313.12,301.67 312.86,301.84 312.59,301.98 C 312.33,302.13 312.06,302.24 311.78,302.33 C 311.51,302.41 311.22,302.47 310.94,302.50 C 310.65,302.53 310.35,302.51 310.06,302.50 C 309.77,302.49 309.49,302.46 309.20,302.42 C 308.92,302.38 308.64,302.33 308.36,302.27 C 308.08,302.20 307.80,302.12 307.53,302.03 C 307.26,301.94 306.99,301.84 306.72,301.72 C 306.45,301.60 306.18,301.47 305.92,301.33 C 305.66,301.18 305.40,301.03 305.14,300.86 C 304.88,300.69 304.63,300.51 304.38,300.31 C 304.12,300.12 303.87,299.89 303.62,299.69 C 303.38,299.49 303.13,299.30 302.89,299.12 C 302.65,298.95 302.41,298.78 302.17,298.62 C 301.93,298.47 301.70,298.32 301.47,298.19 C 301.24,298.05 301.01,297.93 300.78,297.81 C 300.55,297.70 300.33,297.59 300.11,297.50 C 299.89,297.41 299.67,297.32 299.45,297.25 C 299.24,297.18 299.02,297.11 298.81,297.06 C 298.60,297.01 298.41,296.97 298.19,296.94 C 297.97,296.91 297.74,296.89 297.50,296.88 C 297.26,296.86 297.01,296.86 296.75,296.88 C 296.49,296.89 296.22,296.91 295.94,296.94 C 295.66,296.97 295.36,297.01 295.06,297.06 C 294.76,297.11 294.45,297.18 294.12,297.25 C 293.80,297.32 293.47,297.41 293.12,297.50 C 292.78,297.59 292.43,297.70 292.06,297.81 C 291.70,297.93 291.30,298.05 290.94,298.19 C 290.57,298.32 290.21,298.47 289.87,298.63 C 289.52,298.79 289.18,298.96 288.85,299.15 C 288.52,299.33 288.20,299.53 287.89,299.73 C 287.58,299.94 287.28,300.16 286.98,300.39 C 286.69,300.62 286.41,300.86 286.13,301.12 C 285.86,301.37 285.59,301.64 285.34,301.91 C 285.08,302.19 284.83,302.48 284.59,302.78 C 284.36,303.08 284.11,303.41 283.91,303.72 C 283.70,304.02 283.51,304.32 283.34,304.61 C 283.18,304.90 283.03,305.18 282.91,305.45 C 282.78,305.73 282.68,305.99 282.59,306.25 C 282.51,306.51 282.45,306.76 282.41,307.00 C 282.36,307.24 282.34,307.48 282.34,307.70 C 282.34,307.93 282.36,308.15 282.41,308.36 C 282.45,308.57 282.51,308.77 282.59,308.97 C 282.68,309.16 282.80,309.35 282.91,309.53 C 283.02,309.71 283.13,309.88 283.25,310.05 C 283.37,310.21 283.49,310.37 283.62,310.52 C 283.76,310.66 283.89,310.80 284.03,310.94 C 284.17,311.07 284.32,311.20 284.47,311.31 C 284.62,311.43 284.78,311.54 284.94,311.64 C 285.10,311.74 285.27,311.84 285.44,311.92 C 285.61,312.01 285.79,312.09 285.97,312.16 C 286.15,312.23 286.28,312.18 286.53,312.34 C 286.78,312.50 287.10,312.76 287.48,313.12 C 287.86,313.47 288.30,313.93 288.80,314.48 C 289.31,315.03 289.88,315.68 290.52,316.42 C 291.15,317.17 291.85,318.01 292.61,318.95 C 293.37,319.89 294.20,320.93 295.09,322.07 C 295.98,323.21 296.93,324.44 297.95,325.77 C 298.96,327.11 300.04,328.54 301.19,330.06 C 302.33,331.59 303.68,333.40 304.81,334.94 C 305.94,336.47 306.99,337.92 307.97,339.28 C 308.94,340.64 309.84,341.91 310.66,343.09 C 311.47,344.28 312.21,345.37 312.88,346.38 C 313.54,347.38 314.12,348.30 314.62,349.12 C 315.13,349.95 315.56,350.69 315.91,351.34 C 316.26,351.99 316.53,352.56 316.72,353.03 C 316.91,353.51 317.03,353.89 317.06,354.19 C 317.10,354.48 316.99,354.61 316.94,354.81 C 316.88,355.02 316.81,355.22 316.73,355.41 C 316.64,355.61 316.54,355.80 316.43,355.99 C 316.32,356.18 316.19,356.37 316.05,356.55 C 315.90,356.73 315.75,356.90 315.58,357.08 C 315.41,357.25 315.22,357.42 315.02,357.59 C 314.82,357.75 314.61,357.91 314.38,358.07 C 314.15,358.23 313.91,358.38 313.66,358.53 C 313.40,358.68 313.13,358.85 312.84,358.97 C 312.56,359.09 312.27,359.18 311.96,359.24 C 311.65,359.31 311.34,359.34 311.01,359.35 C 310.68,359.36 310.34,359.34 309.98,359.30 C 309.63,359.25 309.27,359.18 308.89,359.08 C 308.51,358.98 308.13,358.85 307.73,358.70 C 307.33,358.54 306.92,358.36 306.49,358.15 C 306.07,357.94 305.63,357.70 305.19,357.44 Z" stroke="none" fill="currentColor" opacity="0.11" />
  <path d="M176.99,270.63L182.33,270.63 M182.33,262.09L176.99,262.09 M165.66,266.83L169.40,266.81 M165.66,265.89L169.40,265.91 M176.65,270.56L182.95,270.56 M182.95,262.16L176.65,262.16 M209.70,262.38L186.91,262.33 M209.70,270.34L186.91,270.38 M291.20,240.55L320.93,242.54 M196.79,253.62L188.48,254.08 M196.79,279.10L188.48,278.64 M280.63,268.61L280.63,263.58 M318.43,240.35L297.41,235.85 M318.46,292.34L297.35,296.91 M315.62,295.41L297.58,296.82 M230.74,247.20L239.98,247.49 M256.88,258.57L251.24,258.68 M256.88,274.17L251.24,274.06 M186.21,263.12L186.21,269.60 M277.30,264.21L277.53,270.62 M277.47,262.10L277.53,270.62 M239.33,265.12L234.59,265.12 M239.34,265.49L234.58,265.49 M239.37,265.79L234.60,265.79 M234.66,264.93L239.37,264.93 M272.41,260.31L257.53,260.33 M272.37,260.10L257.48,260.12 M257.56,260.69L272.44,260.68 M256.06,261.07L246.75,261.91 M256.05,260.76L246.74,261.60 M256.01,260.39L246.69,261.24 M255.96,260.19L246.63,261.03 M305.05,262.61L298.28,262.03 M305.04,263.07L298.26,262.55 M305.00,263.34L298.21,262.82 M287.02,262.82L293.74,263.33 M287.07,262.56L293.78,263.07 M287.10,262.23L293.80,262.74 M239.33,267.60L234.59,267.60 M239.34,267.23L234.58,267.23 M239.37,266.93L234.60,266.93 M234.66,267.78L239.37,267.78 M272.37,272.62L257.48,272.60 M257.53,272.39L272.41,272.41 M257.56,272.03L272.44,272.04 M256.06,271.64L246.75,270.80 M256.05,271.96L246.74,271.11 M256.01,272.32L246.69,271.48 M255.96,272.53L246.63,271.69 M305.04,269.65L298.26,270.17 M305.00,269.38L298.21,269.90 M287.02,269.90L293.74,269.39 M287.07,270.16L293.78,269.65 M287.10,270.49L293.80,269.98 M300.79,281.20L307.66,282.04 M301.95,251.48L306.78,251.95 M297.32,258.31L289.26,260.78 M284.96,261.42L276.71,261.42 M302.45,258.03L307.75,258.14 M307.93,252.03L315.05,252.81 M308.17,252.13L315.43,252.96 M304.01,254.46L298.27,254.41 M282.23,245.27L282.23,237.03 M306.78,280.77L301.95,281.24 M297.32,274.41L289.26,271.94 M302.45,274.69L307.75,274.58 M307.93,280.69L315.05,279.91 M308.17,280.59L315.43,279.76 M282.23,287.45L282.23,295.69 M261.56,236.60L287.73,236.60 M261.56,235.81L287.73,235.81 M261.56,235.14L287.73,235.14 M240.40,264.61L244.93,261.59 M245.18,261.73L240.64,264.75 M240.24,264.70L244.77,261.68 M245.37,262.06L240.83,265.08 M294.97,260.47L288.21,260.39 M294.98,260.66L288.22,260.58 M294.97,260.99L288.22,260.92 M288.21,261.22L294.91,261.29 M306.26,260.76L299.37,260.63 M306.28,260.96L299.35,260.85 M306.25,261.29L299.35,261.19 M306.20,261.55L299.37,261.47 M277.72,260.35L283.60,260.46 M277.78,260.56L283.62,260.66 M283.60,260.99L277.79,260.89 M277.66,261.18L283.54,261.30 M240.64,267.97L245.18,270.99 M240.40,268.11L244.93,271.13 M245.37,270.66L240.83,267.64 M240.24,268.02L244.77,271.04 M288.21,272.33L294.97,272.25 M294.98,272.06L288.22,272.14 M294.97,271.73L288.22,271.80 M294.91,271.43L288.21,271.50 M299.37,272.08L306.26,271.96 M306.28,271.76L299.35,271.87 M306.25,271.43L299.35,271.53 M306.20,271.17L299.37,271.25 M277.72,272.37L283.60,272.26 M277.78,272.16L283.62,272.06 M283.60,271.73L277.79,271.83 M277.66,271.54L283.54,271.42 M278.48,285.21L272.82,285.22 M278.48,285.21L284.13,285.21 M272.82,285.57L278.48,285.57 M284.13,285.57L278.48,285.57 M272.82,285.47L278.48,285.46 M284.14,285.46L278.48,285.46 M272.82,247.51L278.48,247.51 M278.48,247.51L284.13,247.51 M278.48,247.15L272.82,247.15 M278.48,247.15L284.14,247.15 M272.82,247.25L278.48,247.25 M284.14,247.26L278.48,247.25 M258.30,261.09L263.82,261.09 M264.18,260.85L258.30,260.87 M258.30,271.10L263.82,271.10 M264.18,270.86L258.30,270.89 M324.41,290.01L329.68,285.26 M324.64,289.80L329.86,285.16 M323.93,289.73L326.70,285.19 M327.07,284.28L328.21,277.42 M315.89,289.60L322.04,289.61 M286.10,243.48L279.45,243.13 M286.11,243.35L279.44,242.99 M286.13,243.25L279.43,242.89 M271.44,241.84L266.29,241.66 M271.46,241.77L266.29,241.59 M286.10,289.24L279.45,289.59 M286.11,289.37L279.44,289.73 M286.13,289.47L279.43,289.83 M271.44,290.88L266.29,291.06 M271.46,290.95L266.29,291.13 M268.68,243.28L277.75,243.39 M268.51,252.75L278.33,252.83 M276.93,243.90L290.82,243.87 M268.68,289.44L277.75,289.33 M268.51,279.97L278.33,279.89 M276.93,288.82L290.82,288.85 M247.57,303.74L242.35,303.82 M287.73,297.73L261.56,297.73 M265.52,292.93L290.38,291.38 M261.56,296.11L288.34,296.11 M261.62,293.61L278.63,293.61 M286.03,293.61L291.33,293.61 M246.60,312.32L246.85,290.85 M249.09,273.53L254.42,273.53 M254.42,273.53L259.76,273.53 M244.20,273.21L249.08,273.21 M264.39,273.21L259.51,273.21 M254.42,259.19L249.09,259.19 M254.42,259.19L259.76,259.19 M244.20,259.51L249.08,259.51 M259.51,259.51L264.39,259.51 M289.12,259.60L282.51,259.53 M289.12,259.39L282.51,259.31 M289.12,273.07L282.51,273.17 M289.12,273.28L282.51,273.40 M265.50,232.50L274.14,232.50 M274.14,231.86L265.50,231.86 M265.50,230.08L274.14,230.08 M274.14,229.99L265.50,229.99 M265.50,300.22L274.14,300.22 M265.50,300.86L274.14,300.86 M265.50,302.64L274.14,302.64 M265.50,302.73L274.14,302.73 M249.39,294.63L256.34,301.09 M288.34,295.15L261.56,295.15 M246.84,290.85L246.65,307.70 M200.00,259.28L199.00,257.53 M200.00,273.44L199.00,275.19 M215.44,261.51L215.34,261.50 M185.16,261.52L184.23,261.48 M215.34,271.22L215.44,271.21 M185.16,271.20L184.23,271.24 M242.28,232.56L236.38,234.89 M242.28,232.56L237.80,231.89 M268.19,235.47L272.37,240.41 M260.99,234.55L265.45,239.75 M235.40,251.45L254.81,251.32 M291.76,253.94L291.54,253.91 M215.11,261.50L219.59,260.32 M236.38,234.89L236.38,247.43 M236.38,247.43L236.73,234.93 M183.99,260.92L184.00,266.36 M242.28,300.16L236.38,297.83 M242.28,300.16L237.80,300.83 M268.19,297.25L272.37,292.31 M260.99,298.17L265.45,292.97 M254.81,281.40L235.40,281.27 M291.76,278.78L291.54,278.81 M219.59,272.40L215.11,271.22 M236.38,285.29L236.38,297.83 M236.38,285.29L236.73,297.79 M183.99,271.80L184.00,266.36 M184.87,260.69L178.32,260.19 M178.32,272.53L184.87,272.03 M184.87,272.03L177.99,272.51 M185.01,261.16L190.29,262.36 M190.29,262.36L180.87,260.48 M185.01,271.56L190.29,270.36 M190.29,270.36L180.87,272.24 M179.78,265.11L179.09,265.11 M184.67,273.46L184.09,271.58 M172.66,261.74L177.29,262.77" stroke="currentColor" stroke-width="0.6" stroke-linecap="round" fill="none" opacity="0.55" clip-path="url(#hull-clip)" filter="url(#glow)" />
  <path d="M 305.19,357.44 C 304.74,357.17 304.34,356.92 303.81,356.56 C 303.29,356.21 302.69,355.78 302.03,355.30 C 301.37,354.81 300.64,354.26 299.84,353.64 C 299.05,353.02 298.18,352.34 297.25,351.59 C 296.32,350.85 295.32,350.03 294.25,349.16 C 293.18,348.28 292.05,347.34 290.84,346.33 C 289.64,345.32 288.37,344.25 287.03,343.11 C 285.69,341.97 284.29,340.77 282.81,339.50 C 281.34,338.23 279.65,336.73 278.19,335.50 C 276.73,334.27 275.35,333.14 274.06,332.11 C 272.77,331.08 271.56,330.15 270.44,329.33 C 269.31,328.50 268.27,327.78 267.31,327.16 C 266.35,326.53 265.48,326.01 264.69,325.59 C 263.90,325.17 263.19,324.86 262.56,324.64 C 261.94,324.42 261.40,324.31 260.94,324.30 C 260.48,324.28 260.10,324.37 259.81,324.56 C 259.52,324.75 259.41,325.17 259.19,325.44 C 258.97,325.71 258.74,325.96 258.50,326.19 C 258.26,326.42 258.01,326.62 257.75,326.81 C 257.49,327.00 257.22,327.17 256.94,327.31 C 256.66,327.46 256.36,327.58 256.06,327.69 C 255.76,327.79 255.45,327.88 255.12,327.94 C 254.80,328.00 254.47,328.04 254.12,328.06 C 253.78,328.08 253.43,328.08 253.06,328.06 C 252.70,328.04 252.35,328.02 251.94,327.94 C 251.53,327.86 251.09,327.74 250.61,327.58 C 250.13,327.42 249.62,327.22 249.08,326.98 C 248.53,326.75 247.96,326.47 247.34,326.16 C 246.73,325.84 246.09,325.49 245.41,325.09 C 244.73,324.70 244.01,324.27 243.27,323.80 C 242.52,323.33 241.74,322.82 240.92,322.27 C 240.11,321.72 239.26,321.13 238.38,320.50 C 237.49,319.87 236.49,319.14 235.62,318.50 C 234.76,317.86 233.96,317.26 233.20,316.69 C 232.45,316.11 231.75,315.57 231.11,315.06 C 230.47,314.55 229.88,314.07 229.34,313.62 C 228.81,313.18 228.33,312.76 227.91,312.38 C 227.48,311.99 227.11,311.64 226.80,311.31 C 226.48,310.99 226.22,310.70 226.02,310.44 C 225.81,310.18 225.66,309.95 225.56,309.75 C 225.47,309.55 225.50,309.41 225.44,309.25 C 225.38,309.09 225.30,308.95 225.20,308.81 C 225.11,308.68 224.99,308.55 224.86,308.44 C 224.73,308.32 224.58,308.22 224.41,308.12 C 224.24,308.03 224.05,307.95 223.84,307.88 C 223.64,307.80 223.41,307.74 223.17,307.69 C 222.93,307.64 222.67,307.59 222.39,307.56 C 222.11,307.53 221.82,307.51 221.50,307.50 C 221.18,307.49 220.81,307.51 220.50,307.50 C 220.19,307.49 219.90,307.48 219.64,307.45 C 219.38,307.43 219.14,307.40 218.92,307.36 C 218.71,307.32 218.51,307.27 218.34,307.22 C 218.17,307.16 218.03,307.10 217.91,307.03 C 217.78,306.96 217.68,306.88 217.61,306.80 C 217.53,306.71 217.48,306.62 217.45,306.52 C 217.42,306.41 217.42,306.30 217.44,306.19 C 217.46,306.07 217.52,305.93 217.56,305.81 C 217.61,305.70 217.66,305.59 217.72,305.50 C 217.78,305.41 217.84,305.32 217.91,305.25 C 217.97,305.18 218.05,305.11 218.12,305.06 C 218.20,305.01 218.29,304.97 218.38,304.94 C 218.46,304.91 218.56,304.89 218.66,304.88 C 218.76,304.86 218.86,304.86 218.97,304.88 C 219.08,304.89 219.19,304.91 219.31,304.94 C 219.43,304.97 219.57,305.03 219.69,305.06 C 219.81,305.10 219.93,305.13 220.04,305.15 C 220.15,305.17 220.26,305.19 220.37,305.20 C 220.47,305.20 220.57,305.21 220.67,305.20 C 220.77,305.20 220.86,305.19 220.95,305.17 C 221.04,305.15 221.13,305.13 221.21,305.10 C 221.29,305.07 221.37,305.04 221.45,304.99 C 221.52,304.95 221.59,304.90 221.66,304.84 C 221.72,304.79 221.82,304.72 221.84,304.66 C 221.87,304.59 221.87,304.52 221.83,304.44 C 221.79,304.36 221.72,304.28 221.61,304.19 C 221.50,304.10 221.36,304.01 221.19,303.91 C 221.01,303.81 220.80,303.70 220.56,303.59 C 220.32,303.48 220.04,303.37 219.73,303.25 C 219.42,303.13 219.08,303.01 218.70,302.88 C 218.33,302.74 217.91,302.61 217.47,302.47 C 217.02,302.33 216.51,302.19 216.03,302.03 C 215.55,301.87 215.07,301.70 214.59,301.51 C 214.10,301.32 213.62,301.12 213.13,300.90 C 212.65,300.68 212.16,300.45 211.67,300.20 C 211.18,299.96 210.69,299.70 210.20,299.42 C 209.71,299.15 209.22,298.86 208.73,298.55 C 208.23,298.25 207.74,297.93 207.24,297.60 C 206.75,297.27 206.25,296.92 205.75,296.56 C 205.25,296.20 204.73,295.80 204.25,295.44 C 203.77,295.08 203.32,294.74 202.90,294.41 C 202.47,294.09 202.07,293.78 201.70,293.49 C 201.32,293.20 200.97,292.93 200.64,292.67 C 200.31,292.42 200.01,292.18 199.73,291.95 C 199.46,291.73 199.20,291.52 198.98,291.34 C 198.75,291.15 198.55,290.98 198.37,290.82 C 198.19,290.67 198.04,290.53 197.91,290.41 C 197.78,290.29 197.69,290.20 197.59,290.09 C 197.50,289.99 197.41,289.89 197.33,289.78 C 197.25,289.68 197.17,289.57 197.11,289.47 C 197.04,289.36 196.99,289.26 196.94,289.16 C 196.89,289.05 196.85,288.95 196.81,288.84 C 196.78,288.74 196.75,288.64 196.73,288.53 C 196.72,288.43 196.71,288.32 196.70,288.22 C 196.70,288.11 196.71,288.01 196.72,287.91 C 196.73,287.80 196.81,287.71 196.78,287.59 C 196.75,287.48 196.68,287.36 196.55,287.23 C 196.43,287.10 196.26,286.95 196.04,286.80 C 195.82,286.65 195.55,286.50 195.23,286.33 C 194.92,286.16 194.55,285.98 194.14,285.80 C 193.73,285.61 193.27,285.42 192.76,285.21 C 192.25,285.01 191.69,284.79 191.09,284.57 C 190.48,284.35 189.83,284.12 189.12,283.88 C 188.42,283.63 187.61,283.36 186.88,283.12 C 186.14,282.89 185.41,282.67 184.70,282.47 C 183.99,282.27 183.29,282.08 182.61,281.91 C 181.92,281.73 181.25,281.58 180.59,281.44 C 179.93,281.30 179.29,281.17 178.66,281.06 C 178.02,280.95 177.40,280.86 176.80,280.78 C 176.19,280.70 175.60,280.64 175.02,280.59 C 174.43,280.55 173.87,280.52 173.31,280.50 C 172.76,280.48 172.20,280.51 171.69,280.50 C 171.18,280.49 170.71,280.48 170.27,280.47 C 169.83,280.45 169.42,280.43 169.05,280.41 C 168.67,280.38 168.34,280.35 168.03,280.31 C 167.73,280.28 167.46,280.23 167.22,280.19 C 166.98,280.14 166.78,280.09 166.61,280.03 C 166.44,279.97 166.30,279.91 166.20,279.84 C 166.10,279.78 166.03,279.70 166.00,279.62 C 165.97,279.55 165.97,279.45 166.00,279.38 C 166.03,279.30 166.09,279.22 166.19,279.16 C 166.28,279.09 166.41,279.03 166.56,278.97 C 166.72,278.91 166.91,278.86 167.12,278.81 C 167.34,278.77 167.59,278.72 167.88,278.69 C 168.16,278.65 168.47,278.62 168.81,278.59 C 169.16,278.57 169.53,278.55 169.94,278.53 C 170.34,278.52 170.78,278.51 171.25,278.50 C 171.72,278.49 172.28,278.51 172.75,278.50 C 173.22,278.49 173.67,278.48 174.09,278.45 C 174.52,278.43 174.91,278.40 175.28,278.36 C 175.65,278.32 175.99,278.27 176.31,278.22 C 176.63,278.16 176.92,278.10 177.19,278.03 C 177.45,277.96 177.69,277.88 177.91,277.80 C 178.12,277.71 178.31,277.62 178.47,277.52 C 178.63,277.41 178.77,277.30 178.88,277.19 C 178.98,277.07 179.07,276.93 179.12,276.81 C 179.18,276.70 179.20,276.59 179.19,276.48 C 179.18,276.38 179.14,276.29 179.06,276.20 C 178.99,276.12 178.89,276.04 178.75,275.97 C 178.61,275.90 178.45,275.84 178.25,275.78 C 178.05,275.73 177.82,275.68 177.56,275.64 C 177.30,275.60 177.01,275.57 176.69,275.55 C 176.36,275.52 176.01,275.51 175.62,275.50 C 175.24,275.49 174.80,275.52 174.38,275.50 C 173.95,275.48 173.51,275.44 173.05,275.38 C 172.60,275.32 172.14,275.25 171.66,275.15 C 171.19,275.05 170.70,274.93 170.20,274.80 C 169.70,274.66 169.19,274.50 168.67,274.33 C 168.15,274.15 167.62,273.96 167.07,273.74 C 166.52,273.53 165.97,273.29 165.40,273.04 C 164.83,272.79 164.25,272.51 163.66,272.22 C 163.06,271.93 162.41,271.58 161.84,271.28 C 161.27,270.98 160.74,270.68 160.24,270.40 C 159.74,270.11 159.28,269.84 158.85,269.57 C 158.42,269.30 158.03,269.05 157.67,268.80 C 157.31,268.55 156.99,268.31 156.70,268.08 C 156.42,267.85 156.16,267.63 155.95,267.41 C 155.73,267.20 155.55,267.00 155.40,266.80 C 155.25,266.61 155.14,266.43 155.06,266.25 C 154.99,266.07 154.95,265.92 154.94,265.75 C 154.92,265.58 154.93,265.40 154.96,265.23 C 154.99,265.05 155.05,264.87 155.13,264.68 C 155.21,264.49 155.32,264.30 155.45,264.11 C 155.58,263.92 155.74,263.72 155.92,263.52 C 156.10,263.31 156.31,263.11 156.54,262.90 C 156.77,262.69 157.02,262.48 157.30,262.26 C 157.58,262.04 157.89,261.82 158.22,261.59 C 158.55,261.37 158.90,261.13 159.28,260.91 C 159.66,260.68 160.06,260.47 160.48,260.27 C 160.91,260.06 161.36,259.86 161.83,259.67 C 162.30,259.48 162.79,259.30 163.31,259.12 C 163.83,258.95 164.37,258.78 164.94,258.62 C 165.50,258.47 166.09,258.32 166.70,258.17 C 167.32,258.03 167.95,257.89 168.61,257.77 C 169.27,257.64 169.95,257.52 170.66,257.41 C 171.36,257.29 172.17,257.20 172.84,257.09 C 173.52,256.99 174.15,256.89 174.72,256.78 C 175.29,256.68 175.81,256.57 176.28,256.47 C 176.75,256.36 177.17,256.26 177.53,256.16 C 177.90,256.05 178.21,255.95 178.47,255.84 C 178.73,255.74 178.94,255.64 179.09,255.53 C 179.25,255.43 179.35,255.32 179.41,255.22 C 179.46,255.11 179.46,255.01 179.41,254.91 C 179.35,254.80 179.22,254.69 179.09,254.59 C 178.96,254.50 178.81,254.40 178.63,254.32 C 178.45,254.24 178.25,254.16 178.02,254.09 C 177.80,254.01 177.54,253.95 177.27,253.89 C 176.99,253.83 176.69,253.78 176.36,253.73 C 176.03,253.69 175.68,253.65 175.30,253.62 C 174.93,253.58 174.53,253.56 174.10,253.54 C 173.68,253.52 173.23,253.51 172.75,253.50 C 172.27,253.49 171.72,253.51 171.25,253.50 C 170.78,253.49 170.34,253.48 169.94,253.47 C 169.53,253.45 169.16,253.43 168.81,253.41 C 168.47,253.38 168.16,253.35 167.88,253.31 C 167.59,253.28 167.34,253.23 167.12,253.19 C 166.91,253.14 166.72,253.09 166.56,253.03 C 166.41,252.97 166.28,252.91 166.19,252.84 C 166.09,252.78 166.03,252.70 166.00,252.62 C 165.97,252.55 165.97,252.45 166.00,252.38 C 166.03,252.30 166.09,252.22 166.19,252.16 C 166.28,252.09 166.41,252.03 166.56,251.97 C 166.72,251.91 166.91,251.86 167.12,251.81 C 167.34,251.77 167.59,251.72 167.88,251.69 C 168.16,251.65 168.47,251.62 168.81,251.59 C 169.16,251.57 169.53,251.55 169.94,251.53 C 170.34,251.52 170.78,251.51 171.25,251.50 C 171.72,251.49 172.23,251.52 172.75,251.50 C 173.27,251.48 173.80,251.45 174.34,251.41 C 174.89,251.36 175.45,251.30 176.03,251.22 C 176.61,251.14 177.20,251.05 177.81,250.94 C 178.42,250.83 179.05,250.70 179.69,250.56 C 180.33,250.42 180.98,250.27 181.66,250.09 C 182.33,249.92 183.02,249.73 183.72,249.53 C 184.42,249.33 185.14,249.11 185.88,248.88 C 186.61,248.64 187.41,248.38 188.12,248.12 C 188.84,247.87 189.52,247.62 190.17,247.36 C 190.82,247.10 191.43,246.84 192.02,246.58 C 192.60,246.32 193.14,246.05 193.66,245.78 C 194.17,245.51 194.65,245.24 195.09,244.97 C 195.54,244.70 195.95,244.42 196.33,244.14 C 196.71,243.86 197.05,243.58 197.36,243.30 C 197.67,243.01 197.95,242.73 198.19,242.44 C 198.43,242.15 198.59,241.86 198.81,241.56 C 199.04,241.27 199.28,240.96 199.55,240.66 C 199.81,240.35 200.09,240.04 200.39,239.72 C 200.69,239.40 201.01,239.08 201.34,238.75 C 201.68,238.42 202.03,238.09 202.41,237.75 C 202.78,237.41 203.17,237.07 203.58,236.72 C 203.99,236.37 204.41,236.02 204.86,235.66 C 205.30,235.30 205.77,234.93 206.25,234.56 C 206.73,234.19 207.26,233.79 207.75,233.44 C 208.24,233.08 208.73,232.75 209.20,232.44 C 209.68,232.12 210.15,231.83 210.61,231.56 C 211.07,231.29 211.52,231.04 211.97,230.81 C 212.41,230.58 212.85,230.38 213.28,230.19 C 213.71,230.00 214.13,229.83 214.55,229.69 C 214.96,229.54 215.37,229.42 215.77,229.31 C 216.16,229.21 216.55,229.12 216.94,229.06 C 217.32,229.00 217.71,228.98 218.06,228.94 C 218.41,228.89 218.74,228.85 219.05,228.80 C 219.35,228.75 219.63,228.70 219.89,228.64 C 220.15,228.59 220.38,228.53 220.59,228.47 C 220.80,228.41 220.99,228.35 221.16,228.28 C 221.32,228.22 221.46,228.15 221.58,228.08 C 221.70,228.01 221.79,227.93 221.86,227.86 C 221.93,227.78 221.98,227.71 222.00,227.62 C 222.02,227.54 222.01,227.45 222.00,227.38 C 221.99,227.30 221.96,227.22 221.92,227.16 C 221.88,227.09 221.83,227.03 221.77,226.97 C 221.70,226.91 221.62,226.86 221.53,226.81 C 221.44,226.77 221.34,226.72 221.22,226.69 C 221.10,226.65 220.97,226.62 220.83,226.59 C 220.68,226.57 220.53,226.55 220.36,226.53 C 220.19,226.52 220.01,226.51 219.81,226.50 C 219.62,226.49 219.38,226.51 219.19,226.50 C 218.99,226.49 218.81,226.48 218.64,226.47 C 218.47,226.45 218.32,226.43 218.17,226.41 C 218.03,226.38 217.90,226.35 217.78,226.31 C 217.66,226.28 217.56,226.23 217.47,226.19 C 217.38,226.14 217.30,226.09 217.23,226.03 C 217.17,225.97 217.12,225.91 217.08,225.84 C 217.04,225.78 217.01,225.70 217.00,225.62 C 216.99,225.55 216.98,225.46 217.00,225.38 C 217.02,225.29 217.07,225.22 217.14,225.14 C 217.21,225.07 217.30,224.99 217.42,224.92 C 217.54,224.85 217.68,224.78 217.84,224.72 C 218.01,224.65 218.20,224.59 218.41,224.53 C 218.62,224.47 218.85,224.41 219.11,224.36 C 219.37,224.30 219.65,224.25 219.95,224.20 C 220.26,224.15 220.59,224.11 220.94,224.06 C 221.29,224.02 221.71,223.98 222.06,223.94 C 222.41,223.89 222.73,223.85 223.02,223.80 C 223.32,223.76 223.58,223.71 223.82,223.66 C 224.06,223.62 224.27,223.57 224.45,223.52 C 224.64,223.46 224.79,223.41 224.92,223.36 C 225.05,223.31 225.15,223.25 225.23,223.20 C 225.30,223.14 225.35,223.08 225.37,223.02 C 225.39,222.96 225.38,222.90 225.34,222.84 C 225.31,222.78 225.21,222.72 225.16,222.66 C 225.11,222.59 225.07,222.52 225.05,222.44 C 225.02,222.36 225.01,222.28 225.02,222.19 C 225.02,222.10 225.03,222.01 225.06,221.91 C 225.09,221.81 225.13,221.70 225.19,221.59 C 225.24,221.48 225.31,221.37 225.39,221.25 C 225.47,221.13 225.57,221.01 225.67,220.88 C 225.78,220.74 225.90,220.61 226.03,220.47 C 226.16,220.33 226.28,220.21 226.47,220.03 C 226.66,219.86 226.90,219.65 227.18,219.41 C 227.46,219.18 227.79,218.91 228.16,218.62 C 228.54,218.32 228.96,218.00 229.42,217.64 C 229.89,217.29 230.40,216.90 230.95,216.48 C 231.51,216.07 232.11,215.62 232.76,215.15 C 233.40,214.67 234.10,214.17 234.84,213.63 C 235.57,213.10 236.36,212.53 237.19,211.94 C 238.02,211.34 238.97,210.65 239.81,210.06 C 240.65,209.48 241.46,208.93 242.23,208.42 C 243.01,207.91 243.75,207.45 244.45,207.02 C 245.16,206.59 245.83,206.20 246.47,205.84 C 247.11,205.49 247.71,205.18 248.28,204.91 C 248.85,204.63 249.39,204.40 249.89,204.20 C 250.39,204.01 250.86,203.85 251.30,203.73 C 251.73,203.62 252.13,203.54 252.50,203.50 C 252.87,203.46 253.17,203.48 253.50,203.50 C 253.83,203.52 254.14,203.55 254.45,203.61 C 254.76,203.66 255.07,203.74 255.36,203.83 C 255.65,203.92 255.94,204.03 256.22,204.16 C 256.50,204.28 256.77,204.43 257.03,204.59 C 257.29,204.76 257.55,204.94 257.80,205.14 C 258.04,205.34 258.28,205.56 258.52,205.80 C 258.75,206.03 258.97,206.29 259.19,206.56 C 259.40,206.84 259.60,207.18 259.81,207.44 C 260.02,207.70 260.24,207.92 260.45,208.11 C 260.67,208.30 260.89,208.46 261.11,208.58 C 261.33,208.70 261.55,208.79 261.78,208.84 C 262.01,208.90 262.24,208.92 262.47,208.91 C 262.70,208.89 262.93,208.85 263.17,208.77 C 263.41,208.68 263.65,208.57 263.89,208.42 C 264.13,208.27 264.38,208.09 264.62,207.88 C 264.87,207.66 265.04,207.45 265.38,207.12 C 265.71,206.80 266.14,206.41 266.66,205.95 C 267.17,205.49 267.78,204.96 268.47,204.36 C 269.16,203.76 269.94,203.09 270.81,202.34 C 271.68,201.60 272.64,200.79 273.69,199.91 C 274.73,199.02 275.87,198.07 277.09,197.05 C 278.32,196.02 279.63,194.93 281.03,193.77 C 282.43,192.60 283.92,191.37 285.50,190.06 C 287.08,188.76 288.92,187.22 290.50,185.94 C 292.08,184.65 293.58,183.46 294.98,182.36 C 296.39,181.26 297.72,180.25 298.95,179.33 C 300.19,178.41 301.34,177.58 302.41,176.84 C 303.47,176.11 304.45,175.46 305.34,174.91 C 306.24,174.35 307.04,173.89 307.77,173.52 C 308.49,173.14 309.12,172.86 309.67,172.67 C 310.22,172.48 310.68,172.38 311.06,172.38 C 311.44,172.37 311.66,172.53 311.94,172.62 C 312.22,172.72 312.49,172.82 312.74,172.93 C 313.00,173.04 313.24,173.16 313.48,173.29 C 313.71,173.42 313.93,173.56 314.14,173.70 C 314.35,173.85 314.55,174.01 314.73,174.17 C 314.92,174.34 315.10,174.51 315.26,174.70 C 315.42,174.88 315.57,175.07 315.71,175.27 C 315.85,175.48 315.98,175.69 316.09,175.91 C 316.21,176.13 316.38,176.27 316.41,176.59 C 316.43,176.91 316.37,177.32 316.23,177.82 C 316.08,178.32 315.86,178.91 315.55,179.59 C 315.25,180.26 314.86,181.03 314.39,181.89 C 313.92,182.75 313.37,183.70 312.73,184.73 C 312.10,185.77 311.38,186.90 310.59,188.12 C 309.79,189.33 308.91,190.64 307.95,192.04 C 306.98,193.44 305.94,194.92 304.81,196.50 C 303.69,198.08 302.33,199.94 301.19,201.50 C 300.05,203.06 298.97,204.52 297.96,205.88 C 296.95,207.24 296.01,208.50 295.13,209.65 C 294.26,210.80 293.45,211.85 292.70,212.80 C 291.96,213.74 291.28,214.59 290.67,215.33 C 290.06,216.07 289.52,216.71 289.04,217.24 C 288.56,217.78 288.15,218.21 287.80,218.54 C 287.46,218.87 287.18,219.10 286.97,219.22 C 286.76,219.34 286.68,219.25 286.53,219.28 C 286.39,219.32 286.24,219.36 286.09,219.42 C 285.95,219.48 285.80,219.55 285.66,219.64 C 285.51,219.73 285.36,219.83 285.22,219.94 C 285.07,220.05 284.93,220.17 284.78,220.31 C 284.64,220.45 284.49,220.60 284.34,220.77 C 284.20,220.93 284.05,221.11 283.91,221.30 C 283.76,221.49 283.61,221.69 283.47,221.91 C 283.32,222.12 283.15,222.36 283.03,222.59 C 282.91,222.83 282.81,223.07 282.73,223.31 C 282.66,223.56 282.61,223.81 282.58,224.06 C 282.55,224.32 282.54,224.58 282.56,224.84 C 282.58,225.11 282.62,225.38 282.69,225.66 C 282.75,225.93 282.84,226.21 282.95,226.50 C 283.07,226.79 283.20,227.08 283.36,227.38 C 283.52,227.67 283.70,227.97 283.91,228.28 C 284.11,228.59 284.36,228.92 284.59,229.22 C 284.83,229.52 285.08,229.81 285.34,230.09 C 285.59,230.36 285.86,230.63 286.13,230.88 C 286.41,231.14 286.69,231.38 286.98,231.61 C 287.28,231.84 287.58,232.06 287.89,232.27 C 288.20,232.47 288.52,232.67 288.85,232.85 C 289.18,233.04 289.52,233.21 289.87,233.37 C 290.21,233.53 290.57,233.68 290.94,233.81 C 291.30,233.95 291.70,234.08 292.06,234.19 C 292.43,234.30 292.79,234.40 293.14,234.48 C 293.49,234.57 293.84,234.64 294.17,234.70 C 294.51,234.76 294.84,234.81 295.16,234.84 C 295.48,234.88 295.79,234.90 296.09,234.91 C 296.40,234.91 296.70,234.91 296.98,234.89 C 297.27,234.87 297.55,234.84 297.83,234.80 C 298.10,234.75 298.37,234.70 298.62,234.62 C 298.88,234.55 299.12,234.47 299.38,234.38 C 299.62,234.28 299.88,234.18 300.12,234.08 C 300.38,233.97 300.62,233.86 300.88,233.73 C 301.12,233.61 301.38,233.48 301.62,233.34 C 301.88,233.21 302.12,233.06 302.38,232.91 C 302.62,232.75 302.88,232.59 303.12,232.42 C 303.38,232.25 303.62,232.08 303.88,231.89 C 304.12,231.71 304.38,231.51 304.62,231.31 C 304.88,231.11 305.13,230.88 305.38,230.69 C 305.62,230.49 305.87,230.32 306.11,230.16 C 306.35,229.99 306.59,229.85 306.83,229.72 C 307.07,229.59 307.30,229.47 307.53,229.38 C 307.76,229.28 307.99,229.19 308.22,229.12 C 308.45,229.06 308.67,229.01 308.89,228.97 C 309.11,228.93 309.33,228.91 309.55,228.91 C 309.76,228.90 309.98,228.91 310.19,228.94 C 310.40,228.96 310.61,229.02 310.81,229.06 C 311.01,229.11 311.21,229.15 311.40,229.20 C 311.59,229.24 311.77,229.29 311.95,229.34 C 312.12,229.38 312.29,229.43 312.45,229.48 C 312.62,229.54 312.77,229.59 312.92,229.64 C 313.07,229.69 313.21,229.75 313.35,229.80 C 313.49,229.86 313.62,229.92 313.74,229.98 C 313.87,230.04 313.98,230.10 314.09,230.16 C 314.20,230.22 314.30,230.26 314.41,230.34 C 314.51,230.42 314.61,230.52 314.72,230.64 C 314.82,230.76 314.93,230.89 315.03,231.05 C 315.14,231.20 315.24,231.37 315.34,231.56 C 315.45,231.75 315.55,231.96 315.66,232.19 C 315.76,232.41 315.86,232.66 315.97,232.92 C 316.07,233.18 316.18,233.47 316.28,233.77 C 316.39,234.07 316.49,234.38 316.59,234.72 C 316.70,235.05 316.79,235.44 316.91,235.78 C 317.03,236.13 317.17,236.46 317.32,236.79 C 317.48,237.12 317.65,237.43 317.84,237.74 C 318.02,238.05 318.23,238.35 318.45,238.64 C 318.68,238.93 318.92,239.21 319.17,239.48 C 319.43,239.76 319.70,240.02 319.99,240.27 C 320.28,240.53 320.59,240.77 320.91,241.01 C 321.24,241.24 321.58,241.47 321.94,241.69 C 322.30,241.90 322.70,242.12 323.06,242.31 C 323.42,242.51 323.77,242.69 324.11,242.86 C 324.45,243.03 324.77,243.18 325.08,243.33 C 325.39,243.47 325.68,243.60 325.97,243.72 C 326.25,243.84 326.52,243.94 326.78,244.03 C 327.04,244.12 327.28,244.20 327.52,244.27 C 327.75,244.33 327.97,244.38 328.17,244.42 C 328.38,244.46 328.57,244.49 328.75,244.50 C 328.93,244.51 329.07,244.49 329.25,244.50 C 329.43,244.51 329.62,244.54 329.82,244.59 C 330.02,244.63 330.24,244.69 330.46,244.76 C 330.69,244.83 330.92,244.92 331.17,245.02 C 331.42,245.12 331.68,245.23 331.95,245.36 C 332.23,245.49 332.51,245.63 332.80,245.79 C 333.10,245.95 333.41,246.12 333.73,246.30 C 334.05,246.49 334.38,246.69 334.72,246.91 C 335.06,247.12 335.46,247.37 335.78,247.59 C 336.11,247.82 336.40,248.04 336.67,248.25 C 336.94,248.46 337.18,248.67 337.39,248.88 C 337.60,249.08 337.78,249.28 337.94,249.47 C 338.09,249.66 338.22,249.85 338.31,250.03 C 338.41,250.21 338.48,250.39 338.52,250.56 C 338.55,250.73 338.57,250.90 338.55,251.06 C 338.53,251.22 338.48,251.38 338.41,251.53 C 338.33,251.68 338.20,251.83 338.09,251.97 C 337.99,252.11 337.87,252.23 337.76,252.35 C 337.64,252.47 337.52,252.58 337.40,252.68 C 337.27,252.78 337.15,252.87 337.02,252.95 C 336.88,253.04 336.75,253.11 336.61,253.17 C 336.47,253.24 336.33,253.29 336.18,253.34 C 336.03,253.38 335.88,253.42 335.73,253.45 C 335.57,253.47 335.41,253.49 335.25,253.50 C 335.09,253.51 334.92,253.49 334.75,253.50 C 334.58,253.51 334.42,253.53 334.25,253.56 C 334.08,253.59 333.92,253.64 333.75,253.69 C 333.58,253.74 333.42,253.80 333.25,253.88 C 333.08,253.95 332.92,254.03 332.75,254.12 C 332.58,254.22 332.42,254.32 332.25,254.44 C 332.08,254.55 331.92,254.68 331.75,254.81 C 331.58,254.95 331.42,255.09 331.25,255.25 C 331.08,255.41 330.93,255.59 330.75,255.75 C 330.57,255.91 330.38,256.05 330.17,256.19 C 329.97,256.32 329.75,256.45 329.52,256.56 C 329.28,256.68 329.04,256.78 328.78,256.88 C 328.52,256.97 328.25,257.05 327.97,257.12 C 327.68,257.20 327.39,257.26 327.08,257.31 C 326.77,257.36 326.45,257.41 326.11,257.44 C 325.77,257.47 325.42,257.49 325.06,257.50 C 324.70,257.51 324.30,257.49 323.94,257.50 C 323.57,257.51 323.21,257.54 322.87,257.57 C 322.52,257.61 322.18,257.65 321.85,257.71 C 321.52,257.77 321.20,257.84 320.89,257.92 C 320.58,258.00 320.28,258.10 319.98,258.20 C 319.69,258.31 319.41,258.43 319.13,258.55 C 318.86,258.68 318.59,258.82 318.34,258.98 C 318.08,259.13 317.83,259.29 317.59,259.47 C 317.36,259.64 317.12,259.83 316.91,260.03 C 316.69,260.23 316.49,260.43 316.30,260.65 C 316.12,260.86 315.95,261.09 315.79,261.32 C 315.63,261.55 315.49,261.80 315.36,262.05 C 315.23,262.30 315.12,262.56 315.02,262.83 C 314.92,263.10 314.83,263.38 314.76,263.66 C 314.69,263.95 314.63,264.25 314.59,264.55 C 314.54,264.86 314.51,265.18 314.50,265.50 C 314.49,265.82 314.49,266.18 314.50,266.50 C 314.51,266.82 314.53,267.13 314.55,267.43 C 314.58,267.73 314.62,268.01 314.66,268.29 C 314.71,268.56 314.76,268.83 314.83,269.08 C 314.89,269.33 314.96,269.57 315.05,269.80 C 315.13,270.02 315.22,270.24 315.32,270.45 C 315.42,270.65 315.53,270.84 315.65,271.02 C 315.77,271.20 315.89,271.37 316.03,271.53 C 316.17,271.69 316.30,271.83 316.47,271.97 C 316.64,272.11 316.83,272.24 317.04,272.37 C 317.25,272.49 317.49,272.61 317.74,272.73 C 318.00,272.84 318.28,272.95 318.58,273.05 C 318.88,273.15 319.20,273.24 319.55,273.33 C 319.89,273.42 320.26,273.50 320.65,273.57 C 321.04,273.64 321.45,273.71 321.88,273.77 C 322.32,273.83 322.77,273.89 323.25,273.94 C 323.73,273.99 324.28,274.02 324.75,274.06 C 325.22,274.11 325.67,274.16 326.09,274.22 C 326.52,274.28 326.91,274.34 327.28,274.41 C 327.65,274.47 327.99,274.55 328.31,274.62 C 328.63,274.70 328.92,274.79 329.19,274.88 C 329.45,274.96 329.69,275.06 329.91,275.16 C 330.12,275.26 330.31,275.36 330.47,275.47 C 330.63,275.58 330.77,275.69 330.88,275.81 C 330.98,275.93 331.03,276.07 331.12,276.19 C 331.22,276.31 331.32,276.42 331.42,276.53 C 331.53,276.64 331.64,276.74 331.77,276.84 C 331.89,276.94 332.02,277.04 332.16,277.12 C 332.29,277.21 332.44,277.30 332.59,277.38 C 332.75,277.45 332.91,277.53 333.08,277.59 C 333.25,277.66 333.42,277.72 333.61,277.78 C 333.79,277.84 333.99,277.89 334.19,277.94 C 334.39,277.98 334.61,278.02 334.81,278.06 C 335.01,278.11 335.21,278.16 335.40,278.21 C 335.59,278.26 335.77,278.32 335.95,278.38 C 336.12,278.44 336.29,278.51 336.45,278.58 C 336.62,278.65 336.77,278.72 336.92,278.80 C 337.07,278.87 337.21,278.95 337.35,279.04 C 337.49,279.12 337.62,279.21 337.74,279.30 C 337.87,279.40 337.98,279.49 338.09,279.59 C 338.20,279.69 338.32,279.80 338.41,279.91 C 338.50,280.01 338.58,280.11 338.64,280.22 C 338.71,280.32 338.76,280.43 338.80,280.53 C 338.84,280.64 338.86,280.74 338.88,280.84 C 338.89,280.95 338.89,281.05 338.88,281.16 C 338.86,281.26 338.84,281.36 338.80,281.47 C 338.76,281.57 338.71,281.68 338.64,281.78 C 338.58,281.89 338.50,281.99 338.41,282.09 C 338.32,282.20 338.21,282.30 338.09,282.41 C 337.98,282.51 337.86,282.63 337.73,282.74 C 337.60,282.86 337.45,282.98 337.30,283.10 C 337.15,283.23 337.00,283.35 336.83,283.48 C 336.66,283.62 336.48,283.75 336.30,283.89 C 336.11,284.03 335.92,284.17 335.71,284.32 C 335.51,284.47 335.29,284.62 335.07,284.77 C 334.85,284.93 334.62,285.09 334.38,285.25 C 334.13,285.41 333.87,285.59 333.62,285.75 C 333.38,285.91 333.13,286.05 332.89,286.19 C 332.65,286.32 332.41,286.45 332.17,286.56 C 331.93,286.68 331.70,286.78 331.47,286.88 C 331.24,286.97 331.01,287.05 330.78,287.12 C 330.55,287.20 330.33,287.26 330.11,287.31 C 329.89,287.36 329.67,287.41 329.45,287.44 C 329.24,287.47 329.02,287.49 328.81,287.50 C 328.60,287.51 328.40,287.49 328.19,287.50 C 327.97,287.51 327.76,287.53 327.53,287.56 C 327.31,287.59 327.08,287.64 326.84,287.69 C 326.61,287.74 326.37,287.80 326.12,287.88 C 325.88,287.95 325.63,288.03 325.38,288.12 C 325.12,288.22 324.86,288.32 324.59,288.44 C 324.33,288.55 324.06,288.68 323.78,288.81 C 323.51,288.95 323.22,289.09 322.94,289.25 C 322.65,289.41 322.35,289.57 322.06,289.75 C 321.78,289.93 321.49,290.14 321.22,290.36 C 320.94,290.58 320.67,290.82 320.41,291.08 C 320.14,291.34 319.88,291.61 319.62,291.91 C 319.37,292.20 319.12,292.51 318.88,292.84 C 318.63,293.17 318.39,293.52 318.16,293.89 C 317.92,294.26 317.69,294.64 317.47,295.05 C 317.24,295.45 317.03,295.87 316.81,296.31 C 316.60,296.75 316.40,297.26 316.19,297.69 C 315.97,298.12 315.76,298.52 315.53,298.89 C 315.31,299.26 315.08,299.61 314.84,299.92 C 314.61,300.24 314.37,300.52 314.12,300.78 C 313.88,301.04 313.63,301.27 313.38,301.47 C 313.12,301.67 312.86,301.84 312.59,301.98 C 312.33,302.13 312.06,302.24 311.78,302.33 C 311.51,302.41 311.22,302.47 310.94,302.50 C 310.65,302.53 310.35,302.51 310.06,302.50 C 309.77,302.49 309.49,302.46 309.20,302.42 C 308.92,302.38 308.64,302.33 308.36,302.27 C 308.08,302.20 307.80,302.12 307.53,302.03 C 307.26,301.94 306.99,301.84 306.72,301.72 C 306.45,301.60 306.18,301.47 305.92,301.33 C 305.66,301.18 305.40,301.03 305.14,300.86 C 304.88,300.69 304.63,300.51 304.38,300.31 C 304.12,300.12 303.87,299.89 303.62,299.69 C 303.38,299.49 303.13,299.30 302.89,299.12 C 302.65,298.95 302.41,298.78 302.17,298.62 C 301.93,298.47 301.70,298.32 301.47,298.19 C 301.24,298.05 301.01,297.93 300.78,297.81 C 300.55,297.70 300.33,297.59 300.11,297.50 C 299.89,297.41 299.67,297.32 299.45,297.25 C 299.24,297.18 299.02,297.11 298.81,297.06 C 298.60,297.01 298.41,296.97 298.19,296.94 C 297.97,296.91 297.74,296.89 297.50,296.88 C 297.26,296.86 297.01,296.86 296.75,296.88 C 296.49,296.89 296.22,296.91 295.94,296.94 C 295.66,296.97 295.36,297.01 295.06,297.06 C 294.76,297.11 294.45,297.18 294.12,297.25 C 293.80,297.32 293.47,297.41 293.12,297.50 C 292.78,297.59 292.43,297.70 292.06,297.81 C 291.70,297.93 291.30,298.05 290.94,298.19 C 290.57,298.32 290.21,298.47 289.87,298.63 C 289.52,298.79 289.18,298.96 288.85,299.15 C 288.52,299.33 288.20,299.53 287.89,299.73 C 287.58,299.94 287.28,300.16 286.98,300.39 C 286.69,300.62 286.41,300.86 286.13,301.12 C 285.86,301.37 285.59,301.64 285.34,301.91 C 285.08,302.19 284.83,302.48 284.59,302.78 C 284.36,303.08 284.11,303.41 283.91,303.72 C 283.70,304.02 283.51,304.32 283.34,304.61 C 283.18,304.90 283.03,305.18 282.91,305.45 C 282.78,305.73 282.68,305.99 282.59,306.25 C 282.51,306.51 282.45,306.76 282.41,307.00 C 282.36,307.24 282.34,307.48 282.34,307.70 C 282.34,307.93 282.36,308.15 282.41,308.36 C 282.45,308.57 282.51,308.77 282.59,308.97 C 282.68,309.16 282.80,309.35 282.91,309.53 C 283.02,309.71 283.13,309.88 283.25,310.05 C 283.37,310.21 283.49,310.37 283.62,310.52 C 283.76,310.66 283.89,310.80 284.03,310.94 C 284.17,311.07 284.32,311.20 284.47,311.31 C 284.62,311.43 284.78,311.54 284.94,311.64 C 285.10,311.74 285.27,311.84 285.44,311.92 C 285.61,312.01 285.79,312.09 285.97,312.16 C 286.15,312.23 286.28,312.18 286.53,312.34 C 286.78,312.50 287.10,312.76 287.48,313.12 C 287.86,313.47 288.30,313.93 288.80,314.48 C 289.31,315.03 289.88,315.68 290.52,316.42 C 291.15,317.17 291.85,318.01 292.61,318.95 C 293.37,319.89 294.20,320.93 295.09,322.07 C 295.98,323.21 296.93,324.44 297.95,325.77 C 298.96,327.11 300.04,328.54 301.19,330.06 C 302.33,331.59 303.68,333.40 304.81,334.94 C 305.94,336.47 306.99,337.92 307.97,339.28 C 308.94,340.64 309.84,341.91 310.66,343.09 C 311.47,344.28 312.21,345.37 312.88,346.38 C 313.54,347.38 314.12,348.30 314.62,349.12 C 315.13,349.95 315.56,350.69 315.91,351.34 C 316.26,351.99 316.53,352.56 316.72,353.03 C 316.91,353.51 317.03,353.89 317.06,354.19 C 317.10,354.48 316.99,354.61 316.94,354.81 C 316.88,355.02 316.81,355.22 316.73,355.41 C 316.64,355.61 316.54,355.80 316.43,355.99 C 316.32,356.18 316.19,356.37 316.05,356.55 C 315.90,356.73 315.75,356.90 315.58,357.08 C 315.41,357.25 315.22,357.42 315.02,357.59 C 314.82,357.75 314.61,357.91 314.38,358.07 C 314.15,358.23 313.91,358.38 313.66,358.53 C 313.40,358.68 313.13,358.85 312.84,358.97 C 312.56,359.09 312.27,359.18 311.96,359.24 C 311.65,359.31 311.34,359.34 311.01,359.35 C 310.68,359.36 310.34,359.34 309.98,359.30 C 309.63,359.25 309.27,359.18 308.89,359.08 C 308.51,358.98 308.13,358.85 307.73,358.70 C 307.33,358.54 306.92,358.36 306.49,358.15 C 306.07,357.94 305.63,357.70 305.19,357.44 Z" fill="none" stroke="currentColor" stroke-width="1.5" stroke-linejoin="round" stroke-linecap="round" filter="url(#glow)" />
</svg>