<svg xmlns="http://www.w3.org/2000/svg" width="512" height="512" viewBox="120.02 101.80 288.71 248.40" preserveAspectRatio="xMidYMid meet">
  <defs>
    <filter id="glow" x="-30%" y="-30%" width="160%" height="160%">
      <feGaussianBlur in="SourceGraphic" stdDeviation="2.4" result="blur" />
      <feMerge>
        <feMergeNode in="blur" />
        <feMergeNode in="SourceGraphic" />
      </feMerge>
    </filter>
    <clipPath id="hull-clip">
      <path d="M 270.31,329.50 C 269.69,329.61 269.21,329.52 268.69,329.50 C 268.17,329.48 267.66,329.43 267.18,329.35 C 266.70,329.28 266.23,329.18 265.79,329.05 C 265.35,328.93 264.92,328.78 264.52,328.61 C 264.11,328.44 263.73,328.24 263.36,328.02 C 262.99,327.79 262.65,327.55 262.32,327.27 C 261.99,327.00 261.69,326.70 261.40,326.38 C 261.11,326.06 260.84,325.71 260.59,325.34 C 260.35,324.97 260.14,324.59 259.91,324.16 C 259.67,323.72 259.42,323.24 259.16,322.73 C 258.91,322.21 258.64,321.65 258.37,321.05 C 258.09,320.46 257.81,319.82 257.52,319.14 C 257.22,318.46 256.92,317.74 256.61,316.98 C 256.30,316.23 255.98,315.43 255.65,314.59 C 255.32,313.75 254.98,312.87 254.63,311.95 C 254.29,311.02 253.93,310.06 253.56,309.06 C 253.20,308.06 252.84,306.95 252.44,305.94 C 252.03,304.92 251.59,303.94 251.12,302.98 C 250.66,302.03 250.16,301.10 249.62,300.20 C 249.09,299.30 248.53,298.43 247.94,297.59 C 247.34,296.75 246.72,295.94 246.06,295.16 C 245.41,294.37 244.72,293.62 244.00,292.89 C 243.28,292.16 242.53,291.47 241.75,290.80 C 240.97,290.13 240.16,289.49 239.31,288.88 C 238.47,288.26 237.51,287.68 236.69,287.12 C 235.87,286.57 235.11,286.06 234.40,285.57 C 233.69,285.08 233.04,284.63 232.45,284.21 C 231.85,283.79 231.31,283.40 230.83,283.05 C 230.35,282.69 229.92,282.37 229.55,282.08 C 229.18,281.79 228.86,281.53 228.60,281.30 C 228.34,281.08 228.14,280.89 227.99,280.73 C 227.85,280.57 227.75,280.44 227.72,280.34 C 227.68,280.25 227.72,280.21 227.78,280.16 C 227.84,280.10 227.94,280.05 228.07,280.01 C 228.20,279.96 228.38,279.93 228.59,279.90 C 228.80,279.87 229.04,279.85 229.33,279.83 C 229.61,279.81 229.94,279.80 230.30,279.80 C 230.66,279.79 231.06,279.80 231.49,279.80 C 231.93,279.81 232.40,279.83 232.91,279.85 C 233.43,279.87 233.98,279.90 234.56,279.94 C 235.15,279.97 235.85,280.03 236.44,280.06 C 237.03,280.10 237.58,280.13 238.10,280.15 C 238.62,280.17 239.11,280.19 239.55,280.20 C 240.00,280.20 240.42,280.21 240.80,280.20 C 241.18,280.20 241.52,280.19 241.83,280.17 C 242.14,280.15 242.41,280.13 242.65,280.10 C 242.89,280.07 243.09,280.04 243.26,279.99 C 243.43,279.95 243.56,279.90 243.66,279.84 C 243.75,279.79 243.79,279.72 243.84,279.66 C 243.90,279.59 243.94,279.52 243.97,279.45 C 244.00,279.38 244.02,279.31 244.03,279.23 C 244.04,279.16 244.04,279.08 244.03,279.00 C 244.02,278.92 244.00,278.84 243.97,278.75 C 243.94,278.66 243.90,278.58 243.84,278.48 C 243.79,278.39 243.73,278.30 243.66,278.20 C 243.58,278.11 243.50,278.01 243.41,277.91 C 243.31,277.80 243.24,277.69 243.09,277.59 C 242.95,277.50 242.76,277.41 242.53,277.33 C 242.30,277.25 242.03,277.17 241.72,277.11 C 241.41,277.04 241.05,276.99 240.66,276.94 C 240.26,276.89 239.82,276.85 239.34,276.81 C 238.86,276.78 238.34,276.75 237.78,276.73 C 237.22,276.72 236.61,276.71 235.97,276.70 C 235.32,276.70 234.64,276.71 233.91,276.72 C 233.18,276.73 232.32,276.77 231.59,276.78 C 230.87,276.79 230.20,276.80 229.58,276.80 C 228.96,276.79 228.38,276.78 227.86,276.77 C 227.34,276.75 226.86,276.72 226.44,276.69 C 226.01,276.65 225.64,276.61 225.31,276.56 C 224.99,276.51 224.71,276.46 224.48,276.39 C 224.26,276.33 224.08,276.25 223.95,276.17 C 223.83,276.09 223.75,276.00 223.72,275.91 C 223.69,275.81 223.72,275.69 223.78,275.59 C 223.85,275.50 223.95,275.41 224.10,275.34 C 224.25,275.26 224.44,275.19 224.68,275.13 C 224.92,275.07 225.19,275.02 225.52,274.98 C 225.84,274.94 226.20,274.91 226.61,274.89 C 227.02,274.87 227.47,274.86 227.96,274.85 C 228.45,274.85 228.99,274.85 229.57,274.87 C 230.15,274.88 230.77,274.90 231.44,274.94 C 232.10,274.97 232.89,275.03 233.56,275.06 C 234.24,275.09 234.88,275.11 235.48,275.11 C 236.09,275.11 236.66,275.10 237.20,275.08 C 237.74,275.05 238.25,275.02 238.72,274.97 C 239.19,274.92 239.63,274.86 240.03,274.78 C 240.43,274.71 240.80,274.62 241.14,274.52 C 241.48,274.41 241.78,274.30 242.05,274.17 C 242.32,274.04 242.55,273.90 242.75,273.75 C 242.95,273.60 243.18,273.41 243.25,273.25 C 243.32,273.09 243.29,272.95 243.17,272.81 C 243.05,272.68 242.83,272.55 242.52,272.44 C 242.20,272.32 241.79,272.22 241.28,272.12 C 240.77,272.03 240.17,271.95 239.47,271.88 C 238.77,271.80 237.97,271.74 237.08,271.69 C 236.18,271.64 235.20,271.59 234.11,271.56 C 233.02,271.53 231.84,271.51 230.56,271.50 C 229.28,271.49 227.80,271.54 226.44,271.50 C 225.07,271.46 223.71,271.37 222.37,271.24 C 221.02,271.11 219.68,270.94 218.35,270.73 C 217.02,270.51 215.70,270.25 214.39,269.95 C 213.08,269.65 211.78,269.31 210.48,268.92 C 209.19,268.54 207.91,268.11 206.63,267.63 C 205.36,267.16 204.09,266.64 202.84,266.09 C 201.58,265.53 200.33,264.93 199.09,264.28 C 197.86,263.64 196.56,262.88 195.41,262.22 C 194.25,261.56 193.17,260.92 192.16,260.30 C 191.16,259.69 190.23,259.10 189.37,258.54 C 188.51,257.98 187.73,257.44 187.02,256.92 C 186.31,256.41 185.67,255.92 185.11,255.45 C 184.55,254.99 184.06,254.55 183.65,254.13 C 183.24,253.72 182.90,253.33 182.63,252.96 C 182.37,252.60 182.18,252.25 182.06,251.94 C 181.95,251.62 181.95,251.34 181.94,251.06 C 181.93,250.79 181.95,250.53 182.01,250.29 C 182.06,250.05 182.15,249.82 182.27,249.62 C 182.39,249.41 182.55,249.22 182.73,249.05 C 182.92,248.87 183.14,248.72 183.39,248.58 C 183.64,248.44 183.93,248.32 184.24,248.21 C 184.56,248.11 184.91,248.02 185.29,247.95 C 185.67,247.87 186.08,247.82 186.53,247.78 C 186.98,247.74 187.51,247.74 187.97,247.72 C 188.42,247.69 188.86,247.66 189.27,247.62 C 189.67,247.59 190.06,247.55 190.42,247.50 C 190.78,247.45 191.12,247.40 191.44,247.34 C 191.75,247.29 192.04,247.22 192.31,247.16 C 192.58,247.09 192.83,247.02 193.05,246.94 C 193.27,246.86 193.47,246.78 193.64,246.69 C 193.82,246.60 193.97,246.51 194.09,246.41 C 194.22,246.31 194.31,246.20 194.41,246.09 C 194.50,245.98 194.58,245.87 194.66,245.75 C 194.73,245.63 194.79,245.51 194.84,245.38 C 194.90,245.24 194.94,245.11 194.97,244.97 C 195.00,244.83 195.02,244.68 195.03,244.53 C 195.04,244.38 195.04,244.22 195.03,244.06 C 195.02,243.90 195.00,243.73 194.97,243.56 C 194.94,243.39 194.90,243.21 194.84,243.03 C 194.79,242.85 194.80,242.65 194.66,242.47 C 194.51,242.29 194.28,242.11 193.96,241.95 C 193.64,241.78 193.24,241.62 192.76,241.46 C 192.27,241.31 191.70,241.16 191.05,241.02 C 190.39,240.87 189.65,240.74 188.83,240.61 C 188.00,240.48 187.10,240.36 186.10,240.24 C 185.11,240.13 184.03,240.02 182.87,239.91 C 181.70,239.81 180.46,239.71 179.12,239.62 C 177.79,239.54 176.24,239.47 174.88,239.38 C 173.51,239.28 172.18,239.18 170.91,239.06 C 169.63,238.95 168.40,238.82 167.22,238.69 C 166.04,238.55 164.90,238.41 163.81,238.25 C 162.72,238.09 161.68,237.93 160.69,237.75 C 159.69,237.57 158.74,237.39 157.84,237.19 C 156.94,236.99 156.09,236.78 155.28,236.56 C 154.47,236.34 153.71,236.11 153.00,235.88 C 152.29,235.64 151.63,235.37 151.00,235.12 C 150.37,234.88 149.76,234.64 149.20,234.41 C 148.63,234.18 148.09,233.96 147.59,233.74 C 147.08,233.52 146.61,233.31 146.17,233.11 C 145.73,232.90 145.33,232.71 144.95,232.52 C 144.58,232.32 144.24,232.14 143.93,231.96 C 143.62,231.78 143.35,231.61 143.10,231.45 C 142.86,231.28 142.65,231.12 142.47,230.97 C 142.29,230.82 142.17,230.68 142.03,230.53 C 141.90,230.38 141.77,230.22 141.66,230.05 C 141.54,229.88 141.44,229.70 141.34,229.52 C 141.25,229.33 141.17,229.14 141.09,228.94 C 141.02,228.74 140.96,228.53 140.91,228.31 C 140.85,228.10 140.81,227.87 140.78,227.64 C 140.75,227.41 140.73,227.17 140.72,226.92 C 140.71,226.67 140.71,226.42 140.72,226.16 C 140.73,225.89 140.70,225.62 140.78,225.34 C 140.86,225.07 140.99,224.78 141.18,224.49 C 141.37,224.20 141.61,223.90 141.91,223.60 C 142.21,223.30 142.57,222.99 142.98,222.67 C 143.40,222.36 143.87,222.03 144.39,221.70 C 144.92,221.37 145.50,221.04 146.13,220.70 C 146.77,220.35 147.46,220.00 148.21,219.65 C 148.96,219.29 149.76,218.93 150.62,218.56 C 151.49,218.19 152.43,217.79 153.38,217.44 C 154.32,217.08 155.28,216.75 156.27,216.44 C 157.25,216.12 158.26,215.83 159.30,215.56 C 160.33,215.29 161.39,215.04 162.47,214.81 C 163.55,214.58 164.65,214.38 165.78,214.19 C 166.91,214.00 168.06,213.83 169.23,213.69 C 170.41,213.54 171.61,213.42 172.83,213.31 C 174.05,213.21 175.29,213.12 176.56,213.06 C 177.83,213.00 179.22,212.99 180.44,212.94 C 181.65,212.88 182.79,212.82 183.85,212.74 C 184.91,212.67 185.90,212.58 186.80,212.48 C 187.71,212.38 188.54,212.26 189.30,212.14 C 190.05,212.02 190.73,211.88 191.33,211.73 C 191.93,211.59 192.45,211.43 192.90,211.26 C 193.35,211.09 193.71,210.90 194.01,210.71 C 194.30,210.52 194.52,210.31 194.66,210.09 C 194.80,209.88 194.79,209.62 194.84,209.41 C 194.90,209.19 194.95,208.98 194.98,208.78 C 195.02,208.58 195.05,208.40 195.08,208.22 C 195.10,208.04 195.12,207.88 195.12,207.72 C 195.13,207.56 195.13,207.42 195.12,207.28 C 195.12,207.15 195.10,207.02 195.08,206.91 C 195.05,206.79 195.02,206.69 194.98,206.59 C 194.95,206.50 194.90,206.42 194.84,206.34 C 194.79,206.27 194.74,206.21 194.66,206.16 C 194.57,206.10 194.46,206.04 194.32,205.99 C 194.18,205.94 194.02,205.89 193.84,205.85 C 193.65,205.81 193.44,205.77 193.20,205.73 C 192.97,205.70 192.71,205.67 192.42,205.64 C 192.14,205.61 191.83,205.59 191.49,205.57 C 191.16,205.55 190.80,205.54 190.41,205.52 C 190.03,205.51 189.62,205.50 189.19,205.50 C 188.75,205.50 188.25,205.50 187.81,205.50 C 187.38,205.50 186.97,205.49 186.59,205.48 C 186.20,205.46 185.84,205.45 185.51,205.43 C 185.17,205.41 184.86,205.39 184.58,205.36 C 184.29,205.33 184.03,205.30 183.80,205.27 C 183.56,205.23 183.35,205.19 183.16,205.15 C 182.98,205.11 182.82,205.06 182.68,205.01 C 182.54,204.96 182.43,204.90 182.34,204.84 C 182.26,204.79 182.21,204.73 182.16,204.66 C 182.10,204.58 182.05,204.50 182.01,204.40 C 181.96,204.30 181.93,204.19 181.90,204.07 C 181.87,203.95 181.85,203.82 181.83,203.67 C 181.81,203.53 181.80,203.37 181.80,203.20 C 181.79,203.04 181.80,202.86 181.80,202.66 C 181.81,202.47 181.83,202.27 181.85,202.05 C 181.87,201.84 181.90,201.61 181.94,201.38 C 181.97,201.14 181.95,200.90 182.06,200.62 C 182.18,200.35 182.36,200.04 182.62,199.71 C 182.87,199.38 183.20,199.02 183.60,198.63 C 184.00,198.25 184.47,197.83 185.02,197.39 C 185.56,196.95 186.17,196.48 186.86,195.98 C 187.55,195.49 188.30,194.96 189.13,194.41 C 189.96,193.86 190.86,193.29 191.84,192.68 C 192.81,192.07 193.85,191.44 194.97,190.78 C 196.08,190.12 197.34,189.36 198.53,188.72 C 199.73,188.07 200.93,187.47 202.13,186.91 C 203.34,186.36 204.55,185.84 205.77,185.37 C 206.99,184.89 208.22,184.46 209.45,184.08 C 210.69,183.69 211.93,183.35 213.17,183.05 C 214.42,182.75 215.67,182.49 216.93,182.27 C 218.19,182.06 219.45,181.89 220.73,181.76 C 222.00,181.63 223.28,181.54 224.56,181.50 C 225.85,181.46 227.22,181.50 228.44,181.50 C 229.65,181.50 230.80,181.49 231.87,181.48 C 232.94,181.46 233.93,181.45 234.85,181.43 C 235.77,181.41 236.62,181.39 237.39,181.36 C 238.16,181.33 238.86,181.30 239.48,181.27 C 240.11,181.23 240.66,181.19 241.13,181.15 C 241.61,181.11 242.01,181.06 242.34,181.01 C 242.66,180.96 242.92,180.90 243.09,180.84 C 243.27,180.79 243.32,180.72 243.41,180.66 C 243.49,180.59 243.57,180.52 243.62,180.45 C 243.68,180.38 243.72,180.31 243.75,180.23 C 243.78,180.16 243.79,180.08 243.78,180.00 C 243.78,179.92 243.76,179.84 243.72,179.75 C 243.68,179.66 243.63,179.58 243.56,179.48 C 243.49,179.39 243.41,179.30 243.31,179.20 C 243.21,179.11 243.10,179.01 242.97,178.91 C 242.84,178.80 242.71,178.69 242.53,178.59 C 242.35,178.50 242.13,178.40 241.88,178.32 C 241.63,178.24 241.35,178.16 241.02,178.09 C 240.70,178.01 240.35,177.95 239.95,177.89 C 239.56,177.83 239.13,177.78 238.67,177.73 C 238.21,177.69 237.71,177.65 237.18,177.62 C 236.65,177.58 236.08,177.56 235.48,177.54 C 234.87,177.52 234.24,177.51 233.56,177.50 C 232.89,177.49 232.10,177.51 231.44,177.50 C 230.77,177.49 230.15,177.48 229.58,177.47 C 229.00,177.45 228.47,177.43 227.98,177.41 C 227.50,177.38 227.05,177.35 226.66,177.31 C 226.26,177.28 225.90,177.23 225.59,177.19 C 225.28,177.14 225.02,177.09 224.80,177.03 C 224.58,176.97 224.40,176.91 224.27,176.84 C 224.13,176.78 224.04,176.70 224.00,176.62 C 223.96,176.55 223.99,176.45 224.00,176.38 C 224.01,176.30 224.03,176.22 224.06,176.16 C 224.09,176.09 224.14,176.03 224.19,175.97 C 224.24,175.91 224.30,175.86 224.38,175.81 C 224.45,175.77 224.53,175.72 224.62,175.69 C 224.72,175.65 224.82,175.62 224.94,175.59 C 225.05,175.57 225.18,175.55 225.31,175.53 C 225.45,175.52 225.59,175.51 225.75,175.50 C 225.91,175.49 226.05,175.50 226.25,175.50 C 226.45,175.50 226.68,175.50 226.95,175.49 C 227.21,175.49 227.51,175.48 227.84,175.48 C 228.17,175.47 228.53,175.46 228.92,175.45 C 229.32,175.44 229.74,175.43 230.20,175.42 C 230.66,175.41 231.15,175.40 231.68,175.38 C 232.20,175.37 232.76,175.35 233.35,175.34 C 233.94,175.32 234.56,175.30 235.22,175.28 C 235.87,175.26 236.64,175.24 237.28,175.22 C 237.92,175.19 238.52,175.16 239.08,175.12 C 239.63,175.09 240.14,175.05 240.61,175.00 C 241.08,174.95 241.50,174.90 241.88,174.84 C 242.25,174.79 242.59,174.72 242.88,174.66 C 243.16,174.59 243.41,174.52 243.61,174.44 C 243.81,174.36 243.97,174.28 244.08,174.19 C 244.19,174.10 244.26,174.01 244.28,173.91 C 244.30,173.81 244.28,173.69 244.22,173.59 C 244.16,173.49 244.05,173.40 243.91,173.31 C 243.76,173.22 243.57,173.14 243.34,173.06 C 243.11,172.98 242.84,172.91 242.53,172.84 C 242.22,172.78 241.86,172.71 241.47,172.66 C 241.07,172.60 240.64,172.55 240.16,172.50 C 239.68,172.45 239.16,172.41 238.59,172.38 C 238.03,172.34 237.43,172.31 236.78,172.28 C 236.14,172.26 235.32,172.27 234.72,172.22 C 234.12,172.17 233.60,172.10 233.17,172.00 C 232.74,171.90 232.40,171.78 232.14,171.62 C 231.88,171.47 231.71,171.30 231.62,171.09 C 231.54,170.89 231.54,170.66 231.62,170.41 C 231.71,170.15 231.88,169.87 232.14,169.56 C 232.40,169.26 232.74,168.92 233.17,168.56 C 233.60,168.20 234.12,167.82 234.72,167.41 C 235.32,166.99 236.12,166.52 236.78,166.09 C 237.44,165.67 238.07,165.26 238.67,164.86 C 239.27,164.46 239.85,164.08 240.39,163.70 C 240.93,163.33 241.45,162.97 241.94,162.62 C 242.42,162.28 242.88,161.95 243.31,161.62 C 243.74,161.30 244.14,161.00 244.52,160.70 C 244.89,160.41 245.23,160.13 245.55,159.86 C 245.86,159.59 246.15,159.34 246.41,159.09 C 246.66,158.85 246.85,158.70 247.09,158.41 C 247.34,158.11 247.60,157.75 247.88,157.32 C 248.16,156.89 248.46,156.40 248.77,155.84 C 249.09,155.27 249.42,154.65 249.77,153.95 C 250.11,153.26 250.48,152.50 250.86,151.67 C 251.24,150.85 251.64,149.95 252.05,148.99 C 252.47,148.03 252.90,147.01 253.35,145.91 C 253.80,144.82 254.27,143.66 254.75,142.44 C 255.23,141.21 255.77,139.78 256.25,138.56 C 256.73,137.35 257.18,136.20 257.62,135.13 C 258.05,134.06 258.46,133.07 258.85,132.15 C 259.24,131.23 259.61,130.38 259.95,129.61 C 260.30,128.84 260.62,128.14 260.92,127.52 C 261.22,126.89 261.50,126.34 261.76,125.87 C 262.01,125.39 262.25,124.99 262.46,124.66 C 262.67,124.34 262.86,124.08 263.03,123.91 C 263.20,123.73 263.31,123.69 263.47,123.59 C 263.63,123.50 263.81,123.40 264.01,123.32 C 264.20,123.24 264.42,123.16 264.65,123.09 C 264.88,123.01 265.13,122.95 265.39,122.89 C 265.65,122.83 265.94,122.78 266.23,122.73 C 266.53,122.69 266.85,122.65 267.18,122.62 C 267.51,122.58 267.86,122.56 268.23,122.54 C 268.59,122.52 268.98,122.51 269.38,122.50 C 269.77,122.49 270.12,122.38 270.62,122.50 C 271.13,122.62 271.74,122.85 272.43,123.20 C 273.12,123.54 273.91,124.01 274.79,124.59 C 275.67,125.17 276.64,125.86 277.70,126.67 C 278.77,127.48 279.92,128.41 281.17,129.45 C 282.42,130.50 283.76,131.65 285.20,132.93 C 286.63,134.20 288.15,135.60 289.77,137.10 C 291.39,138.61 293.10,140.23 294.91,141.97 C 296.71,143.71 298.81,145.77 300.59,147.53 C 302.37,149.29 304.04,150.96 305.59,152.54 C 307.13,154.12 308.57,155.60 309.88,156.99 C 311.20,158.38 312.40,159.68 313.48,160.89 C 314.57,162.10 315.54,163.21 316.39,164.23 C 317.24,165.26 317.98,166.19 318.60,167.02 C 319.22,167.86 319.73,168.61 320.12,169.26 C 320.51,169.91 320.78,170.47 320.94,170.94 C 321.10,171.40 320.97,171.65 321.06,172.06 C 321.15,172.47 321.29,172.91 321.48,173.38 C 321.66,173.86 321.90,174.36 322.18,174.90 C 322.46,175.44 322.79,176.01 323.17,176.61 C 323.55,177.21 323.98,177.85 324.45,178.52 C 324.93,179.18 325.45,179.88 326.02,180.62 C 326.60,181.35 327.21,182.12 327.88,182.91 C 328.55,183.71 329.27,184.54 330.03,185.41 C 330.80,186.27 331.68,187.24 332.47,188.09 C 333.26,188.95 334.03,189.76 334.77,190.54 C 335.52,191.31 336.24,192.05 336.95,192.74 C 337.65,193.44 338.33,194.09 338.98,194.70 C 339.64,195.32 340.28,195.89 340.89,196.42 C 341.50,196.95 342.10,197.45 342.66,197.90 C 343.23,198.35 343.78,198.76 344.30,199.13 C 344.83,199.50 345.33,199.83 345.81,200.12 C 346.29,200.42 346.74,200.63 347.19,200.88 C 347.63,201.12 348.06,201.37 348.47,201.61 C 348.88,201.85 349.28,202.09 349.66,202.33 C 350.04,202.57 350.40,202.80 350.75,203.03 C 351.10,203.26 351.43,203.49 351.75,203.72 C 352.07,203.95 352.37,204.17 352.66,204.39 C 352.94,204.61 353.21,204.83 353.47,205.05 C 353.72,205.26 353.96,205.48 354.19,205.69 C 354.41,205.90 354.55,206.10 354.81,206.31 C 355.08,206.52 355.39,206.74 355.77,206.95 C 356.14,207.17 356.57,207.39 357.05,207.61 C 357.53,207.83 358.07,208.05 358.66,208.28 C 359.25,208.51 359.89,208.74 360.59,208.97 C 361.29,209.20 362.05,209.43 362.86,209.67 C 363.67,209.91 364.53,210.15 365.45,210.39 C 366.37,210.63 367.35,210.88 368.38,211.12 C 369.40,211.37 370.59,211.61 371.62,211.88 C 372.66,212.14 373.64,212.41 374.57,212.70 C 375.50,212.98 376.38,213.28 377.21,213.59 C 378.04,213.89 378.82,214.21 379.55,214.55 C 380.27,214.88 380.95,215.22 381.58,215.58 C 382.20,215.93 382.78,216.30 383.30,216.68 C 383.83,217.06 384.30,217.45 384.73,217.85 C 385.15,218.25 385.52,218.67 385.84,219.09 C 386.17,219.52 386.42,219.96 386.66,220.41 C 386.90,220.85 387.10,221.30 387.28,221.75 C 387.46,222.20 387.60,222.66 387.72,223.12 C 387.83,223.59 387.92,224.06 387.97,224.53 C 388.02,225.01 388.04,225.48 388.03,225.97 C 388.02,226.45 387.98,226.94 387.91,227.44 C 387.83,227.93 387.73,228.43 387.59,228.94 C 387.46,229.44 387.29,229.95 387.09,230.47 C 386.90,230.98 386.69,231.53 386.41,232.03 C 386.12,232.54 385.79,233.02 385.40,233.49 C 385.01,233.96 384.57,234.42 384.07,234.85 C 383.57,235.29 383.02,235.71 382.42,236.11 C 381.82,236.51 381.16,236.90 380.45,237.27 C 379.74,237.63 378.98,237.99 378.16,238.32 C 377.35,238.65 376.48,238.97 375.55,239.27 C 374.63,239.57 373.65,239.86 372.62,240.12 C 371.60,240.39 370.41,240.62 369.38,240.88 C 368.34,241.12 367.36,241.38 366.44,241.62 C 365.51,241.88 364.64,242.12 363.81,242.38 C 362.99,242.62 362.22,242.88 361.50,243.12 C 360.78,243.38 360.11,243.62 359.50,243.88 C 358.89,244.12 358.32,244.38 357.81,244.62 C 357.30,244.88 356.84,245.12 356.44,245.38 C 356.03,245.62 355.68,245.88 355.38,246.12 C 355.07,246.38 354.88,246.64 354.62,246.88 C 354.38,247.11 354.12,247.34 353.88,247.56 C 353.62,247.78 353.38,247.99 353.12,248.19 C 352.88,248.39 352.62,248.57 352.38,248.75 C 352.12,248.93 351.88,249.09 351.62,249.25 C 351.38,249.41 351.12,249.55 350.88,249.69 C 350.62,249.82 350.38,249.95 350.12,250.06 C 349.88,250.18 349.62,250.28 349.38,250.38 C 349.12,250.47 348.88,250.53 348.62,250.62 C 348.37,250.72 348.10,250.83 347.83,250.95 C 347.55,251.08 347.27,251.21 346.98,251.36 C 346.70,251.51 346.40,251.67 346.09,251.84 C 345.79,252.02 345.48,252.21 345.16,252.41 C 344.84,252.61 344.51,252.82 344.17,253.05 C 343.84,253.27 343.49,253.51 343.14,253.77 C 342.79,254.02 342.43,254.28 342.06,254.56 C 341.70,254.84 341.33,255.12 340.94,255.44 C 340.55,255.76 340.14,256.11 339.71,256.49 C 339.29,256.87 338.84,257.29 338.38,257.73 C 337.92,258.17 337.45,258.64 336.95,259.14 C 336.46,259.64 335.95,260.17 335.42,260.73 C 334.89,261.30 334.35,261.89 333.79,262.51 C 333.23,263.13 332.65,263.78 332.05,264.46 C 331.46,265.14 330.85,265.85 330.22,266.59 C 329.59,267.33 328.89,268.16 328.28,268.91 C 327.67,269.65 327.10,270.37 326.57,271.07 C 326.04,271.77 325.54,272.44 325.09,273.09 C 324.63,273.73 324.21,274.36 323.83,274.95 C 323.45,275.55 323.10,276.12 322.80,276.67 C 322.49,277.22 322.22,277.74 321.99,278.24 C 321.76,278.74 321.57,279.21 321.41,279.66 C 321.26,280.11 321.14,280.54 321.06,280.94 C 320.98,281.34 321.09,281.60 320.94,282.06 C 320.78,282.53 320.51,283.08 320.13,283.73 C 319.75,284.37 319.26,285.11 318.65,285.93 C 318.04,286.75 317.32,287.67 316.48,288.67 C 315.65,289.68 314.70,290.77 313.64,291.95 C 312.58,293.14 311.40,294.41 310.12,295.77 C 308.83,297.14 307.43,298.59 305.91,300.13 C 304.40,301.68 302.77,303.31 301.03,305.03 C 299.29,306.75 297.24,308.77 295.47,310.47 C 293.70,312.17 292.01,313.75 290.40,315.23 C 288.79,316.70 287.26,318.06 285.82,319.30 C 284.38,320.55 283.01,321.68 281.73,322.70 C 280.45,323.72 279.26,324.63 278.14,325.42 C 277.02,326.21 275.99,326.89 275.04,327.46 C 274.09,328.03 273.22,328.48 272.43,328.82 C 271.64,329.16 270.94,329.39 270.31,329.50 Z" />
    </clipPath>
  </defs>
  <path d="M 270.31,329.50 C 269.69,329.61 269.21,329.52 268.69,329.50 C 268.17,329.48 267.66,329.43 267.18,329.35 C 266.70,329.28 266.23,329.18 265.79,329.05 C 265.35,328.93 264.92,328.78 264.52,328.61 C 264.11,328.44 263.73,328.24 263.36,328.02 C 262.99,327.79 262.65,327.55 262.32,327.27 C 261.99,327.00 261.69,326.70 261.40,326.38 C 261.11,326.06 260.84,325.71 260.59,325.34 C 260.35,324.97 260.14,324.59 259.91,324.16 C 259.67,323.72 259.42,323.24 259.16,322.73 C 258.91,322.21 258.64,321.65 258.37,321.05 C 258.09,320.46 257.81,319.82 257.52,319.14 C 257.22,318.46 256.92,317.74 256.61,316.98 C 256.30,316.23 255.98,315.43 255.65,314.59 C 255.32,313.75 254.98,312.87 254.63,311.95 C 254.29,311.02 253.93,310.06 253.56,309.06 C 253.20,308.06 252.84,306.95 252.44,305.94 C 252.03,304.92 251.59,303.94 251.12,302.98 C 250.66,302.03 250.16,301.10 249.62,300.20 C 249.09,299.30 248.53,298.43 247.94,297.59 C 247.34,296.75 246.72,295.94 246.06,295.16 C 245.41,294.37 244.72,293.62 244.00,292.89 C 243.28,292.16 242.53,291.47 241.75,290.80 C 240.97,290.13 240.16,289.49 239.31,288.88 C 238.47,288.26 237.51,287.68 236.69,287.12 C 235.87,286.57 235.11,286.06 234.40,285.57 C 233.69,285.08 233.04,284.63 232.45,284.21 C 231.85,283.79 231.31,283.40 230.83,283.05 C 230.35,282.69 229.92,282.37 229.55,282.08 C 229.18,281.79 228.86,281.53 228.60,281.30 C 228.34,281.08 228.14,280.89 227.99,280.73 C 227.85,280.57 227.75,280.44 227.72,280.34 C 227.68,280.25 227.72,280.21 227.78,280.16 C 227.84,280.10 227.94,280.05 228.07,280.01 C 228.20,279.96 228.38,279.93 228.59,279.90 C 228.80,279.87 229.04,279.85 229.33,279.83 C 229.61,279.81 229.94,279.80 230.30,279.80 C 230.66,279.79 231.06,279.80 231.49,279.80 C 231.93,279.81 232.40,279.83 232.91,279.85 C 233.43,279.87 233.98,279.90 234.56,279.94 C 235.15,279.97 235.85,280.03 236.44,280.06 C 237.03,280.10 237.58,280.13 238.10,280.15 C 238.62,280.17 239.11,280.19 239.55,280.20 C 240.00,280.20 240.42,280.21 240.80,280.20 C 241.18,280.20 241.52,280.19 241.83,280.17 C 242.14,280.15 242.41,280.13 242.65,280.10 C 242.89,280.07 243.09,280.04 243.26,279.99 C 243.43,279.95 243.56,279.90 243.66,279.84 C 243.75,279.79 243.79,279.72 243.84,279.66 C 243.90,279.59 243.94,279.52 243.97,279.45 C 244.00,279.38 244.02,279.31 244.03,279.23 C 244.04,279.16 244.04,279.08 244.03,279.00 C 244.02,278.92 244.00,278.84 243.97,278.75 C 243.94,278.66 243.90,278.58 243.84,278.48 C 243.79,278.39 243.73,278.30 243.66,278.20 C 243.58,278.11 243.50,278.01 243.41,277.91 C 243.31,277.80 243.24,277.69 243.09,277.59 C 242.95,277.50 242.76,277.41 242.53,277.33 C 242.30,277.25 242.03,277.17 241.72,277.11 C 241.41,277.04 241.05,276.99 240.66,276.94 C 240.26,276.89 239.82,276.85 239.34,276.81 C 238.86,276.78 238.34,276.75 237.78,276.73 C 237.22,276.72 236.61,276.71 235.97,276.70 C 235.32,276.70 234.64,276.71 233.91,276.72 C 233.18,276.73 232.32,276.77 231.59,276.78 C 230.87,276.79 230.20,276.80 229.58,276.80 C 228.96,276.79 228.38,276.78 227.86,276.77 C 227.34,276.75 226.86,276.72 226.44,276.69 C 226.01,276.65 225.64,276.61 225.31,276.56 C 224.99,276.51 224.71,276.46 224.48,276.39 C 224.26,276.33 224.08,276.25 223.95,276.17 C 223.83,276.09 223.75,276.00 223.72,275.91 C 223.69,275.81 223.72,275.69 223.78,275.59 C 223.85,275.50 223.95,275.41 224.10,275.34 C 224.25,275.26 224.44,275.19 224.68,275.13 C 224.92,275.07 225.19,275.02 225.52,274.98 C 225.84,274.94 226.20,274.91 226.61,274.89 C 227.02,274.87 227.47,274.86 227.96,274.85 C 228.45,274.85 228.99,274.85 229.57,274.87 C 230.15,274.88 230.77,274.90 231.44,274.94 C 232.10,274.97 232.89,275.03 233.56,275.06 C 234.24,275.09 234.88,275.11 235.48,275.11 C 236.09,275.11 236.66,275.10 237.20,275.08 C 237.74,275.05 238.25,275.02 238.72,274.97 C 239.19,274.92 239.63,274.86 240.03,274.78 C 240.43,274.71 240.80,274.62 241.14,274.52 C 241.48,274.41 241.78,274.30 242.05,274.17 C 242.32,274.04 242.55,273.90 242.75,273.75 C 242.95,273.60 243.18,273.41 243.25,273.25 C 243.32,273.09 243.29,272.95 243.17,272.81 C 243.05,272.68 242.83,272.55 242.52,272.44 C 242.20,272.32 241.79,272.22 241.28,272.12 C 240.77,272.03 240.17,271.95 239.47,271.88 C 238.77,271.80 237.97,271.74 237.08,271.69 C 236.18,271.64 235.20,271.59 234.11,271.56 C 233.02,271.53 231.84,271.51 230.56,271.50 C 229.28,271.49 227.80,271.54 226.44,271.50 C 225.07,271.46 223.71,271.37 222.37,271.24 C 221.02,271.11 219.68,270.94 218.35,270.73 C 217.02,270.51 215.70,270.25 214.39,269.95 C 213.08,269.65 211.78,269.31 210.48,268.92 C 209.19,268.54 207.91,268.11 206.63,267.63 C 205.36,267.16 204.09,266.64 202.84,266.09 C 201.58,265.53 200.33,264.93 199.09,264.28 C 197.86,263.64 196.56,262.88 195.41,262.22 C 194.25,261.56 193.17,260.92 192.16,260.30 C 191.16,259.69 190.23,259.10 189.37,258.54 C 188.51,257.98 187.73,257.44 187.02,256.92 C 186.31,256.41 185.67,255.92 185.11,255.45 C 184.55,254.99 184.06,254.55 183.65,254.13 C 183.24,253.72 182.90,253.33 182.63,252.96 C 182.37,252.60 182.18,252.25 182.06,251.94 C 181.95,251.62 181.95,251.34 181.94,251.06 C 181.93,250.79 181.95,250.53 182.01,250.29 C 182.06,250.05 182.15,249.82 182.27,249.62 C 182.39,249.41 182.55,249.22 182.73,249.05 C 182.92,248.87 183.14,248.72 183.39,248.58 C 183.64,248.44 183.93,248.32 184.24,248.21 C 184.56,248.11 184.91,248.02 185.29,247.95 C 185.67,247.87 186.08,247.82 186.53,247.78 C 186.98,247.74 187.51,247.74 187.97,247.72 C 188.42,247.69 188.86,247.66 189.27,247.62 C 189.67,247.59 190.06,247.55 190.42,247.50 C 190.78,247.45 191.12,247.40 191.44,247.34 C 191.75,247.29 192.04,247.22 192.31,247.16 C 192.58,247.09 192.83,247.02 193.05,246.94 C 193.27,246.86 193.47,246.78 193.64,246.69 C 193.82,246.60 193.97,246.51 194.09,246.41 C 194.22,246.31 194.31,246.20 194.41,246.09 C 194.50,245.98 194.58,245.87 194.66,245.75 C 194.73,245.63 194.79,245.51 194.84,245.38 C 194.90,245.24 194.94,245.11 194.97,244.97 C 195.00,244.83 195.02,244.68 195.03,244.53 C 195.04,244.38 195.04,244.22 195.03,244.06 C 195.02,243.90 195.00,243.73 194.97,243.56 C 194.94,243.39 194.90,243.21 194.84,243.03 C 194.79,242.85 194.80,242.65 194.66,242.47 C 194.51,242.29 194.28,242.11 193.96,241.95 C 193.64,241.78 193.24,241.62 192.76,241.46 C 192.27,241.31 191.70,241.16 191.05,241.02 C 190.39,240.87 189.65,240.74 188.83,240.61 C 188.00,240.48 187.10,240.36 186.10,240.24 C 185.11,240.13 184.03,240.02 182.87,239.91 C 181.70,239.81 180.46,239.71 179.12,239.62 C 177.79,239.54 176.24,239.47 174.88,239.38 C 173.51,239.28 172.18,239.18 170.91,239.06 C 169.63,238.95 168.40,238.82 167.22,238.69 C 166.04,238.55 164.90,238.41 163.81,238.25 C 162.72,238.09 161.68,237.93 160.69,237.75 C 159.69,237.57 158.74,237.39 157.84,237.19 C 156.94,236.99 156.09,236.78 155.28,236.56 C 154.47,236.34 153.71,236.11 153.00,235.88 C 152.29,235.64 151.63,235.37 151.00,235.12 C 150.37,234.88 149.76,234.64 149.20,234.41 C 148.63,234.18 148.09,233.96 147.59,233.74 C 147.08,233.52 146.61,233.31 146.17,233.11 C 145.73,232.90 145.33,232.71 144.95,232.52 C 144.58,232.32 144.24,232.14 143.93,231.96 C 143.62,231.78 143.35,231.61 143.10,231.45 C 142.86,231.28 142.65,231.12 142.47,230.97 C 142.29,230.82 142.17,230.68 142.03,230.53 C 141.90,230.38 141.77,230.22 141.66,230.05 C 141.54,229.88 141.44,229.70 141.34,229.52 C 141.25,229.33 141.17,229.14 141.09,228.94 C 141.02,228.74 140.96,228.53 140.91,228.31 C 140.85,228.10 140.81,227.87 140.78,227.64 C 140.75,227.41 140.73,227.17 140.72,226.92 C 140.71,226.67 140.71,226.42 140.72,226.16 C 140.73,225.89 140.70,225.62 140.78,225.34 C 140.86,225.07 140.99,224.78 141.18,224.49 C 141.37,224.20 141.61,223.90 141.91,223.60 C 142.21,223.30 142.57,222.99 142.98,222.67 C 143.40,222.36 143.87,222.03 144.39,221.70 C 144.92,221.37 145.50,221.04 146.13,220.70 C 146.77,220.35 147.46,220.00 148.21,219.65 C 148.96,219.29 149.76,218.93 150.62,218.56 C 151.49,218.19 152.43,217.79 153.38,217.44 C 154.32,217.08 155.28,216.75 156.27,216.44 C 157.25,216.12 158.26,215.83 159.30,215.56 C 160.33,215.29 161.39,215.04 162.47,214.81 C 163.55,214.58 164.65,214.38 165.78,214.19 C 166.91,214.00 168.06,213.83 169.23,213.69 C 170.41,213.54 171.61,213.42 172.83,213.31 C 174.05,213.21 175.29,213.12 176.56,213.06 C 177.83,213.00 179.22,212.99 180.44,212.94 C 181.65,212.88 182.79,212.82 183.85,212.74 C 184.91,212.67 185.90,212.58 186.80,212.48 C 187.71,212.38 188.54,212.26 189.30,212.14 C 190.05,212.02 190.73,211.88 191.33,211.73 C 191.93,211.59 192.45,211.43 192.90,211.26 C 193.35,211.09 193.71,210.90 194.01,210.71 C 194.30,210.52 194.52,210.31 194.66,210.09 C 194.80,209.88 194.79,209.62 194.84,209.41 C 194.90,209.19 194.95,208.98 194.98,208.78 C 195.02,208.58 195.05,208.40 195.08,208.22 C 195.10,208.04 195.12,207.88 195.12,207.72 C 195.13,207.56 195.13,207.42 195.12,207.28 C 195.12,207.15 195.10,207.02 195.08,206.91 C 195.05,206.79 195.02,206.69 194.98,206.59 C 194.95,206.50 194.90,206.42 194.84,206.34 C 194.79,206.27 194.74,206.21 194.66,206.16 C 194.57,206.10 194.46,206.04 194.32,205.99 C 194.18,205.94 194.02,205.89 193.84,205.85 C 193.65,205.81 193.44,205.77 193.20,205.73 C 192.97,205.70 192.71,205.67 192.42,205.64 C 192.14,205.61 191.83,205.59 191.49,205.57 C 191.16,205.55 190.80,205.54 190.41,205.52 C 190.03,205.51 189.62,205.50 189.19,205.50 C 188.75,205.50 188.25,205.50 187.81,205.50 C 187.38,205.50 186.97,205.49 186.59,205.48 C 186.20,205.46 185.84,205.45 185.51,205.43 C 185.17,205.41 184.86,205.39 184.58,205.36 C 184.29,205.33 184.03,205.30 183.80,205.27 C 183.56,205.23 183.35,205.19 183.16,205.15 C 182.98,205.11 182.82,205.06 182.68,205.01 C 182.54,204.96 182.43,204.90 182.34,204.84 C 182.26,204.79 182.21,204.73 182.16,204.66 C 182.10,204.58 182.05,204.50 182.01,204.40 C 181.96,204.30 181.93,204.19 181.90,204.07 C 181.87,203.95 181.85,203.82 181.83,203.67 C 181.81,203.53 181.80,203.37 181.80,203.20 C 181.79,203.04 181.80,202.86 181.80,202.66 C 181.81,202.47 181.83,202.27 181.85,202.05 C 181.87,201.84 181.90,201.61 181.94,201.38 C 181.97,201.14 181.95,200.90 182.06,200.62 C 182.18,200.35 182.36,200.04 182.62,199.71 C 182.87,199.38 183.20,199.02 183.60,198.63 C 184.00,198.25 184.47,197.83 185.02,197.39 C 185.56,196.95 186.17,196.48 186.86,195.98 C 187.55,195.49 188.30,194.96 189.13,194.41 C 189.96,193.86 190.86,193.29 191.84,192.68 C 192.81,192.07 193.85,191.44 194.97,190.78 C 196.08,190.12 197.34,189.36 198.53,188.72 C 199.73,188.07 200.93,187.47 202.13,186.91 C 203.34,186.36 204.55,185.84 205.77,185.37 C 206.99,184.89 208.22,184.46 209.45,184.08 C 210.69,183.69 211.93,183.35 213.17,183.05 C 214.42,182.75 215.67,182.49 216.93,182.27 C 218.19,182.06 219.45,181.89 220.73,181.76 C 222.00,181.63 223.28,181.54 224.56,181.50 C 225.85,181.46 227.22,181.50 228.44,181.50 C 229.65,181.50 230.80,181.49 231.87,181.48 C 232.94,181.46 233.93,181.45 234.85,181.43 C 235.77,181.41 236.62,181.39 237.39,181.36 C 238.16,181.33 238.86,181.30 239.48,181.27 C 240.11,181.23 240.66,181.19 241.13,181.15 C 241.61,181.11 242.01,181.06 242.34,181.01 C 242.66,180.96 242.92,180.90 243.09,180.84 C 243.27,180.79 243.32,180.72 243.41,180.66 C 243.49,180.59 243.57,180.52 243.62,180.45 C 243.68,180.38 243.72,180.31 243.75,180.23 C 243.78,180.16 243.79,180.08 243.78,180.00 C 243.78,179.92 243.76,179.84 243.72,179.75 C 243.68,179.66 243.63,179.58 243.56,179.48 C 243.49,179.39 243.41,179.30 243.31,179.20 C 243.21,179.11 243.10,179.01 242.97,178.91 C 242.84,178.80 242.71,178.69 242.53,178.59 C 242.35,178.50 242.13,178.40 241.88,178.32 C 241.63,178.24 241.35,178.16 241.02,178.09 C 240.70,178.01 240.35,177.95 239.95,177.89 C 239.56,177.83 239.13,177.78 238.67,177.73 C 238.21,177.69 237.71,177.65 237.18,177.62 C 236.65,177.58 236.08,177.56 235.48,177.54 C 234.87,177.52 234.24,177.51 233.56,177.50 C 232.89,177.49 232.10,177.51 231.44,177.50 C 230.77,177.49 230.15,177.48 229.58,177.47 C 229.00,177.45 228.47,177.43 227.98,177.41 C 227.50,177.38 227.05,177.35 226.66,177.31 C 226.26,177.28 225.90,177.23 225.59,177.19 C 225.28,177.14 225.02,177.09 224.80,177.03 C 224.58,176.97 224.40,176.91 224.27,176.84 C 224.13,176.78 224.04,176.70 224.00,176.62 C 223.96,176.55 223.99,176.45 224.00,176.38 C 224.01,176.30 224.03,176.22 224.06,176.16 C 224.09,176.09 224.14,176.03 224.19,175.97 C 224.24,175.91 224.30,175.86 224.38,175.81 C 224.45,175.77 224.53,175.72 224.62,175.69 C 224.72,175.65 224.82,175.62 224.94,175.59 C 225.05,175.57 225.18,175.55 225.31,175.53 C 225.45,175.52 225.59,175.51 225.75,175.50 C 225.91,175.49 226.05,175.50 226.25,175.50 C 226.45,175.50 226.68,175.50 226.95,175.49 C 227.21,175.49 227.51,175.48 227.84,175.48 C 228.17,175.47 228.53,175.46 228.92,175.45 C 229.32,175.44 229.74,175.43 230.20,175.42 C 230.66,175.41 231.15,175.40 231.68,175.38 C 232.20,175.37 232.76,175.35 233.35,175.34 C 233.94,175.32 234.56,175.30 235.22,175.28 C 235.87,175.26 236.64,175.24 237.28,175.22 C 237.92,175.19 238.52,175.16 239.08,175.12 C 239.63,175.09 240.14,175.05 240.61,175.00 C 241.08,174.95 241.50,174.90 241.88,174.84 C 242.25,174.79 242.59,174.72 242.88,174.66 C 243.16,174.59 243.41,174.52 243.61,174.44 C 243.81,174.36 243.97,174.28 244.08,174.19 C 244.19,174.10 244.26,174.01 244.28,173.91 C 244.30,173.81 244.28,173.69 244.22,173.59 C 244.16,173.49 244.05,173.40 243.91,173.31 C 243.76,173.22 243.57,173.14 243.34,173.06 C 243.11,172.98 242.84,172.91 242.53,172.84 C 242.22,172.78 241.86,172.71 241.47,172.66 C 241.07,172.60 240.64,172.55 240.16,172.50 C 239.68,172.45 239.16,172.41 238.59,172.38 C 238.03,172.34 237.43,172.31 236.78,172.28 C 236.14,172.26 235.32,172.27 234.72,172.22 C 234.12,172.17 233.60,172.10 233.17,172.00 C 232.74,171.90 232.40,171.78 232.14,171.62 C 231.88,171.47 231.71,171.30 231.62,171.09 C 231.54,170.89 231.54,170.66 231.62,170.41 C 231.71,170.15 231.88,169.87 232.14,169.56 C 232.40,169.26 232.74,168.92 233.17,168.56 C 233.60,168.20 234.12,167.82 234.72,167.41 C 235.32,166.99 236.12,166.52 236.78,166.09 C 237.44,165.67 238.07,165.26 238.67,164.86 C 239.27,164.46 239.85,164.08 240.39,163.70 C 240.93,163.33 241.45,162.97 241.94,162.62 C 242.42,162.28 242.88,161.95 243.31,161.62 C 243.74,161.30 244.14,161.00 244.52,160.70 C 244.89,160.41 245.23,160.13 245.55,159.86 C 245.86,159.59 246.15,159.34 246.41,159.09 C 246.66,158.85 246.85,158.70 247.09,158.41 C 247.34,158.11 247.60,157.75 247.88,157.32 C 248.16,156.89 248.46,156.40 248.77,155.84 C 249.09,155.27 249.42,154.65 249.77,153.95 C 250.11,153.26 250.48,152.50 250.86,151.67 C 251.24,150.85 251.64,149.95 252.05,148.99 C 252.47,148.03 252.90,147.01 253.35,145.91 C 253.80,144.82 254.27,143.66 254.75,142.44 C 255.23,141.21 255.77,139.78 256.25,138.56 C 256.73,137.35 257.18,136.20 257.62,135.13 C 258.05,134.06 258.46,133.07 258.85,132.15 C 259.24,131.23 259.61,130.38 259.95,129.61 C 260.30,128.84 260.62,128.14 260.92,127.52 C 261.22,126.89 261.50,126.34 261.76,125.87 C 262.01,125.39 262.25,124.99 262.46,124.66 C 262.67,124.34 262.86,124.08 263.03,123.91 C 263.20,123.73 263.31,123.69 263.47,123.59 C 263.63,123.50 263.81,123.40 264.01,123.32 C 264.20,123.24 264.42,123.16 264.65,123.09 C 264.88,123.01 265.13,122.95 265.39,122.89 C 265.65,122.83 265.94,122.78 266.23,122.73 C 266.53,122.69 266.85,122.65 267.18,122.62 C 267.51,122.58 267.86,122.56 268.23,122.54 C 268.59,122.52 268.98,122.51 269.38,122.50 C 269.77,122.49 270.12,122.38 270.62,122.50 C 271.13,122.62 271.74,122.85 272.43,123.20 C 273.12,123.54 273.91,124.01 274.79,124.59 C 275.67,125.17 276.64,125.86 277.70,126.67 C 278.77,127.48 279.92,128.41 281.17,129.45 C 282.42,130.50 283.76,131.65 285.20,132.93 C 286.63,134.20 288.15,135.60 289.77,137.10 C 291.39,138.61 293.10,140.23 294.91,141.97 C 296.71,143.71 298.81,145.77 300.59,147.53 C 302.37,149.29 304.04,150.96 305.59,152.54 C 307.13,154.12 308.57,155.60 309.88,156.99 C 311.20,158.38 312.40,159.68 313.48,160.89 C 314.57,162.10 315.54,163.21 316.39,164.23 C 317.24,165.26 317.98,166.19 318.60,167.02 C 319.22,167.86 319.73,168.61 320.12,169.26 C 320.51,169.91 320.78,170.47 320.94,170.94 C 321.10,171.40 320.97,171.65 321.06,172.06 C 321.15,172.47 321.29,172.91 321.48,173.38 C 321.66,173.86 321.90,174.36 322.18,174.90 C 322.46,175.44 322.79,176.01 323.17,176.61 C 323.55,177.21 323.98,177.85 324.45,178.52 C 324.93,179.18 325.45,179.88 326.02,180.62 C 326.60,181.35 327.21,182.12 327.88,182.91 C 328.55,183.71 329.27,184.54 330.03,185.41 C 330.80,186.27 331.68,187.24 332.47,188.09 C 333.26,188.95 334.03,189.76 334.77,190.54 C 335.52,191.31 336.24,192.05 336.95,192.74 C 337.65,193.44 338.33,194.09 338.98,194.70 C 339.64,195.32 340.28,195.89 340.89,196.42 C 341.50,196.95 342.10,197.45 342.66,197.90 C 343.23,198.35 343.78,198.76 344.30,199.13 C 344.83,199.50 345.33,199.83 345.81,200.12 C 346.29,200.42 346.74,200.63 347.19,200.88 C 347.63,201.12 348.06,201.37 348.47,201.61 C 348.88,201.85 349.28,202.09 349.66,202.33 C 350.04,202.57 350.40,202.80 350.75,203.03 C 351.10,203.26 351.43,203.49 351.75,203.72 C 352.07,203.95 352.37,204.17 352.66,204.39 C 352.94,204.61 353.21,204.83 353.47,205.05 C 353.72,205.26 353.96,205.48 354.19,205.69 C 354.41,205.90 354.55,206.10 354.81,206.31 C 355.08,206.52 355.39,206.74 355.77,206.95 C 356.14,207.17 356.57,207.39 357.05,207.61 C 357.53,207.83 358.07,208.05 358.66,208.28 C 359.25,208.51 359.89,208.74 360.59,208.97 C 361.29,209.20 362.05,209.43 362.86,209.67 C 363.67,209.91 364.53,210.15 365.45,210.39 C 366.37,210.63 367.35,210.88 368.38,211.12 C 369.40,211.37 370.59,211.61 371.62,211.88 C 372.66,212.14 373.64,212.41 374.57,212.70 C 375.50,212.98 376.38,213.28 377.21,213.59 C 378.04,213.89 378.82,214.21 379.55,214.55 C 380.27,214.88 380.95,215.22 381.58,215.58 C 382.20,215.93 382.78,216.30 383.30,216.68 C 383.83,217.06 384.30,217.45 384.73,217.85 C 385.15,218.25 385.52,218.67 385.84,219.09 C 386.17,219.52 386.42,219.96 386.66,220.41 C 386.90,220.85 387.10,221.30 387.28,221.75 C 387.46,222.20 387.60,222.66 387.72,223.12 C 387.83,223.59 387.92,224.06 387.97,224.53 C 388.02,225.01 388.04,225.48 388.03,225.97 C 388.02,226.45 387.98,226.94 387.91,227.44 C 387.83,227.93 387.73,228.43 387.59,228.94 C 387.46,229.44 387.29,229.95 387.09,230.47 C 386.90,230.98 386.69,231.53 386.41,232.03 C 386.12,232.54 385.79,233.02 385.40,233.49 C 385.01,233.96 384.57,234.42 384.07,234.85 C 383.57,235.29 383.02,235.71 382.42,236.11 C 381.82,236.51 381.16,236.90 380.45,237.27 C 379.74,237.63 378.98,237.99 378.16,238.32 C 377.35,238.65 376.48,238.97 375.55,239.27 C 374.63,239.57 373.65,239.86 372.62,240.12 C 371.60,240.39 370.41,240.62 369.38,240.88 C 368.34,241.12 367.36,241.38 366.44,241.62 C 365.51,241.88 364.64,242.12 363.81,242.38 C 362.99,242.62 362.22,242.88 361.50,243.12 C 360.78,243.38 360.11,243.62 359.50,243.88 C 358.89,244.12 358.32,244.38 357.81,244.62 C 357.30,244.88 356.84,245.12 356.44,245.38 C 356.03,245.62 355.68,245.88 355.38,246.12 C 355.07,246.38 354.88,246.64 354.62,246.88 C 354.38,247.11 354.12,247.34 353.88,247.56 C 353.62,247.78 353.38,247.99 353.12,248.19 C 352.88,248.39 352.62,248.57 352.38,248.75 C 352.12,248.93 351.88,249.09 351.62,249.25 C 351.38,249.41 351.12,249.55 350.88,249.69 C 350.62,249.82 350.38,249.95 350.12,250.06 C 349.88,250.18 349.62,250.28 349.38,250.38 C 349.12,250.47 348.88,250.53 348.62,250.62 C 348.37,250.72 348.10,250.83 347.83,250.95 C 347.55,251.08 347.27,251.21 346.98,251.36 C 346.70,251.51 346.40,251.67 346.09,251.84 C 345.79,252.02 345.48,252.21 345.16,252.41 C 344.84,252.61 344.51,252.82 344.17,253.05 C 343.84,253.27 343.49,253.51 343.14,253.77 C 342.79,254.02 342.43,254.28 342.06,254.56 C 341.70,254.84 341.33,255.12 340.94,255.44 C 340.55,255.76 340.14,256.11 339.71,256.49 C 339.29,256.87 338.84,257.29 338.38,257.73 C 337.92,258.17 337.45,258.64 336.95,259.14 C 336.46,259.64 335.95,260.17 335.42,260.73 C 334.89,261.30 334.35,261.89 333.79,262.51 C 333.23,263.13 332.65,263.78 332.05,264.46 C 331.46,265.14 330.85,265.85 330.22,266.59 C 329.59,267.33 328.89,268.16 328.28,268.91 C 327.67,269.65 327.10,270.37 326.57,271.07 C 326.04,271.77 325.54,272.44 325.09,273.09 C 324.63,273.73 324.21,274.36 323.83,274.95 C 323.45,275.55 323.10,276.12 322.80,276.67 C 322.49,277.22 322.22,277.74 321.99,278.24 C 321.76,278.74 321.57,279.21 321.41,279.66 C 321.26,280.11 321.14,280.54 321.06,280.94 C 320.98,281.34 321.09,281.60 320.94,282.06 C 320.78,282.53 320.51,283.08 320.13,283.73 C 319.75,284.37 319.26,285.11 318.65,285.93 C 318.04,286.75 317.32,287.67 316.48,288.67 C 315.65,289.68 314.70,290.77 313.64,291.95 C 312.58,293.14 311.40,294.41 310.12,295.77 C 308.83,297.14 307.43,298.59 305.91,300.13 C 304.40,301.68 302.77,303.31 301.03,305.03 C 299.29,306.75 297.24,308.77 295.47,310.47 C 293.70,312.17 292.01,313.75 290.40,315.23 C 288.79,316.70 287.26,318.06 285.82,319.30 C 284.38,320.55 283.01,321.68 281.73,322.70 C 280.45,323.72 279.26,324.63 278.14,325.42 C 277.02,326.21 275.99,326.89 275.04,327.46 C 274.09,328.03 273.22,328.48 272.43,328.82 C 271.64,329.16 270.94,329.39 270.31,329.50 Z" stroke="none" fill="currentColor" opacity="0.11" />
  <path d="M249.49,204.26L243.67,198.56 M243.51,244.24L249.49,244.08 M243.51,255.01L249.49,249.31 M249.49,266.71L243.51,256.86 M243.68,209.73L236.82,217.17 M248.33,269.08L243.51,267.69 M255.79,184.25L255.78,185.88 M255.79,184.25L243.67,187.88 M243.67,187.88L255.79,184.39 M255.79,184.39L243.68,186.86 M269.33,241.66L269.33,242.57 M244.19,248.18L244.32,231.39 M256.05,234.68L256.05,242.62 M256.56,234.68L256.56,242.62 M256.55,242.93L256.55,234.38 M256.20,234.27L256.20,243.03 M262.56,234.68L262.56,242.62 M263.07,234.68L263.07,242.62 M263.07,242.93L263.07,234.38 M262.72,234.27L262.72,243.03 M244.32,222.18L244.19,205.39 M256.05,218.89L256.05,210.95 M256.56,210.95L256.56,218.89 M262.56,218.89L262.56,210.95 M263.08,210.95L263.08,218.89 M217.49,252.04L223.95,252.40 M223.95,252.40L217.07,252.02 M223.95,252.40L217.02,252.37 M223.96,252.40L217.02,252.37 M225.60,252.40L236.49,252.42 M210.81,239.41L233.13,239.01 M237.43,268.04L244.71,267.95 M219.97,255.50L209.58,245.84 M246.78,274.21L255.93,274.21 M246.78,179.35L255.93,179.35 M225.47,192.73L208.97,208.05 M208.49,208.56L215.51,201.94 M217.49,201.52L223.95,201.17 M223.95,201.17L217.07,201.55 M223.95,201.17L217.02,201.19 M236.49,201.15L225.60,201.17 M236.49,201.15L225.60,201.17 M215.51,201.94L208.49,208.56 M233.13,214.56L210.81,214.16 M237.43,185.53L244.71,185.62 M219.97,198.07L209.58,207.73 M260.07,324.16L263.15,329.71 M310.62,281.02L303.98,281.02 M310.62,282.58L303.98,282.58 M333.36,263.83L322.52,276.19 M257.19,307.78L258.63,295.41 M246.74,283.33L258.71,280.95 M262.39,158.58L262.65,171.54 M262.39,158.58L262.29,171.18 M310.66,170.99L304.02,170.99 M310.66,172.54L304.02,172.54 M260.88,142.46L254.26,145.08 M333.29,189.75L322.44,177.38 M257.12,145.79L258.55,158.16 M246.66,170.24L258.63,172.62 M292.89,159.42L299.65,159.36 M377.62,216.66L357.03,211.84 M377.62,236.87L357.03,241.69 M354.00,236.51L347.89,242.52 M330.47,228.40L360.98,228.40 M360.98,227.95L330.47,227.95 M327.55,237.20L321.13,236.77 M318.58,237.08L328.03,239.87 M318.70,237.02L327.98,239.77 M325.95,228.18L316.76,227.56 M357.36,237.05L353.10,241.67 M319.97,219.15L326.23,218.36 M326.27,218.08L319.87,218.88 M325.24,236.32L318.92,238.68 M326.53,213.33L320.32,214.44 M320.21,214.17L326.57,213.05 M347.51,204.05L336.32,211.42 M354.79,210.99L382.10,217.75 M170.38,225.08L169.44,225.08 M173.23,220.58L172.94,227.48 M181.31,231.48L175.02,231.88 M183.49,222.21L176.31,222.85 M183.61,222.68L176.32,223.32 M178.48,234.17L184.79,235.62 M178.49,233.81L184.92,235.29 M171.11,235.09L182.82,235.27 M185.90,221.96L177.35,222.71 M268.89,225.83L260.79,225.83 M178.76,225.99L184.99,226.66 M320.61,225.66L327.00,225.13 M320.61,225.98L327.13,225.43 M326.81,220.07L320.54,218.77 M325.32,214.76L318.77,214.44 M326.99,216.18L320.39,216.73 M306.11,209.54L332.52,215.05 M328.65,193.23L335.55,200.30 M200.10,218.50L205.83,216.43 M299.77,214.16L304.82,219.39 M306.23,220.17L306.08,226.83 M332.21,203.36L328.32,197.80 M184.99,226.91L178.76,227.58 M320.61,227.91L327.00,228.43 M320.61,227.59L327.13,228.13 M320.54,234.79L326.81,233.49 M318.77,239.13L325.32,238.80 M320.39,236.83L326.99,237.38 M306.11,244.13L332.52,238.61 M328.65,260.44L335.55,253.37 M200.10,235.06L205.83,237.13 M306.08,226.83L306.23,233.50 M332.21,250.20L328.32,255.77 M238.87,223.17L223.28,223.59 M237.33,211.46L217.61,212.61 M237.33,211.46L218.39,218.15 M223.28,230.07L238.87,230.50 M237.33,242.20L217.61,241.05 M237.33,242.20L218.39,235.52 M271.25,272.69L261.74,276.00" stroke="currentColor" stroke-width="0.6" stroke-linecap="round" fill="none" opacity="0.55" clip-path="url(#hull-clip)" filter="url(#glow)" />
  <path d="M 270.31,329.50 C 269.69,329.61 269.21,329.52 268.69,329.50 C 268.17,329.48 267.66,329.43 267.18,329.35 C 266.70,329.28 266.23,329.18 265.79,329.05 C 265.35,328.93 264.92,328.78 264.52,328.61 C 264.11,328.44 263.73,328.24 263.36,328.02 C 262.99,327.79 262.65,327.55 262.32,327.27 C 261.99,327.00 261.69,326.70 261.40,326.38 C 261.11,326.06 260.84,325.71 260.59,325.34 C 260.35,324.97 260.14,324.59 259.91,324.16 C 259.67,323.72 259.42,323.24 259.16,322.73 C 258.91,322.21 258.64,321.65 258.37,321.05 C 258.09,320.46 257.81,319.82 257.52,319.14 C 257.22,318.46 256.92,317.74 256.61,316.98 C 256.30,316.23 255.98,315.43 255.65,314.59 C 255.32,313.75 254.98,312.87 254.63,311.95 C 254.29,311.02 253.93,310.06 253.56,309.06 C 253.20,308.06 252.84,306.95 252.44,305.94 C 252.03,304.92 251.59,303.94 251.12,302.98 C 250.66,302.03 250.16,301.10 249.62,300.20 C 249.09,299.30 248.53,298.43 247.94,297.59 C 247.34,296.75 246.72,295.94 246.06,295.16 C 245.41,294.37 244.72,293.62 244.00,292.89 C 243.28,292.16 242.53,291.47 241.75,290.80 C 240.97,290.13 240.16,289.49 239.31,288.88 C 238.47,288.26 237.51,287.68 236.69,287.12 C 235.87,286.57 235.11,286.06 234.40,285.57 C 233.69,285.08 233.04,284.63 232.45,284.21 C 231.85,283.79 231.31,283.40 230.83,283.05 C 230.35,282.69 229.92,282.37 229.55,282.08 C 229.18,281.79 228.86,281.53 228.60,281.30 C 228.34,281.08 228.14,280.89 227.99,280.73 C 227.85,280.57 227.75,280.44 227.72,280.34 C 227.68,280.25 227.72,280.21 227.78,280.16 C 227.84,280.10 227.94,280.05 228.07,280.01 C 228.20,279.96 228.38,279.93 228.59,279.90 C 228.80,279.87 229.04,279.85 229.33,279.83 C 229.61,279.81 229.94,279.80 230.30,279.80 C 230.66,279.79 231.06,279.80 231.49,279.80 C 231.93,279.81 232.40,279.83 232.91,279.85 C 233.43,279.87 233.98,279.90 234.56,279.94 C 235.15,279.97 235.85,280.03 236.44,280.06 C 237.03,280.10 237.58,280.13 238.10,280.15 C 238.62,280.17 239.11,280.19 239.55,280.20 C 240.00,280.20 240.42,280.21 240.80,280.20 C 241.18,280.20 241.52,280.19 241.83,280.17 C 242.14,280.15 242.41,280.13 242.65,280.10 C 242.89,280.07 243.09,280.04 243.26,279.99 C 243.43,279.95 243.56,279.90 243.66,279.84 C 243.75,279.79 243.79,279.72 243.84,279.66 C 243.90,279.59 243.94,279.52 243.97,279.45 C 244.00,279.38 244.02,279.31 244.03,279.23 C 244.04,279.16 244.04,279.08 244.03,279.00 C 244.02,278.92 244.00,278.84 243.97,278.75 C 243.94,278.66 243.90,278.58 243.84,278.48 C 243.79,278.39 243.73,278.30 243.66,278.20 C 243.58,278.11 243.50,278.01 243.41,277.91 C 243.31,277.80 243.24,277.69 243.09,277.59 C 242.95,277.50 242.76,277.41 242.53,277.33 C 242.30,277.25 242.03,277.17 241.72,277.11 C 241.41,277.04 241.05,276.99 240.66,276.94 C 240.26,276.89 239.82,276.85 239.34,276.81 C 238.86,276.78 238.34,276.75 237.78,276.73 C 237.22,276.72 236.61,276.71 235.97,276.70 C 235.32,276.70 234.64,276.71 233.91,276.72 C 233.18,276.73 232.32,276.77 231.59,276.78 C 230.87,276.79 230.20,276.80 229.58,276.80 C 228.96,276.79 228.38,276.78 227.86,276.77 C 227.34,276.75 226.86,276.72 226.44,276.69 C 226.01,276.65 225.64,276.61 225.31,276.56 C 224.99,276.51 224.71,276.46 224.48,276.39 C 224.26,276.33 224.08,276.25 223.95,276.17 C 223.83,276.09 223.75,276.00 223.72,275.91 C 223.69,275.81 223.72,275.69 223.78,275.59 C 223.85,275.50 223.95,275.41 224.10,275.34 C 224.25,275.26 224.44,275.19 224.68,275.13 C 224.92,275.07 225.19,275.02 225.52,274.98 C 225.84,274.94 226.20,274.91 226.61,274.89 C 227.02,274.87 227.47,274.86 227.96,274.85 C 228.45,274.85 228.99,274.85 229.57,274.87 C 230.15,274.88 230.77,274.90 231.44,274.94 C 232.10,274.97 232.89,275.03 233.56,275.06 C 234.24,275.09 234.88,275.11 235.48,275.11 C 236.09,275.11 236.66,275.10 237.20,275.08 C 237.74,275.05 238.25,275.02 238.72,274.97 C 239.19,274.92 239.63,274.86 240.03,274.78 C 240.43,274.71 240.80,274.62 241.14,274.52 C 241.48,274.41 241.78,274.30 242.05,274.17 C 242.32,274.04 242.55,273.90 242.75,273.75 C 242.95,273.60 243.18,273.41 243.25,273.25 C 243.32,273.09 243.29,272.95 243.17,272.81 C 243.05,272.68 242.83,272.55 242.52,272.44 C 242.20,272.32 241.79,272.22 241.28,272.12 C 240.77,272.03 240.17,271.95 239.47,271.88 C 238.77,271.80 237.97,271.74 237.08,271.69 C 236.18,271.64 235.20,271.59 234.11,271.56 C 233.02,271.53 231.84,271.51 230.56,271.50 C 229.28,271.49 227.80,271.54 226.44,271.50 C 225.07,271.46 223.71,271.37 222.37,271.24 C 221.02,271.11 219.68,270.94 218.35,270.73 C 217.02,270.51 215.70,270.25 214.39,269.95 C 213.08,269.65 211.78,269.31 210.48,268.92 C 209.19,268.54 207.91,268.11 206.63,267.63 C 205.36,267.16 204.09,266.64 202.84,266.09 C 201.58,265.53 200.33,264.93 199.09,264.28 C 197.86,263.64 196.56,262.88 195.41,262.22 C 194.25,261.56 193.17,260.92 192.16,260.30 C 191.16,259.69 190.23,259.10 189.37,258.54 C 188.51,257.98 187.73,257.44 187.02,256.92 C 186.31,256.41 185.67,255.92 185.11,255.45 C 184.55,254.99 184.06,254.55 183.65,254.13 C 183.24,253.72 182.90,253.33 182.63,252.96 C 182.37,252.60 182.18,252.25 182.06,251.94 C 181.95,251.62 181.95,251.34 181.94,251.06 C 181.93,250.79 181.95,250.53 182.01,250.29 C 182.06,250.05 182.15,249.82 182.27,249.62 C 182.39,249.41 182.55,249.22 182.73,249.05 C 182.92,248.87 183.14,248.72 183.39,248.58 C 183.64,248.44 183.93,248.32 184.24,248.21 C 184.56,248.11 184.91,248.02 185.29,247.95 C 185.67,247.87 186.08,247.82 186.53,247.78 C 186.98,247.74 187.51,247.74 187.97,247.72 C 188.42,247.69 188.86,247.66 189.27,247.62 C 189.67,247.59 190.06,247.55 190.42,247.50 C 190.78,247.45 191.12,247.40 191.44,247.34 C 191.75,247.29 192.04,247.22 192.31,247.16 C 192.58,247.09 192.83,247.02 193.05,246.94 C 193.27,246.86 193.47,246.78 193.64,246.69 C 193.82,246.60 193.97,246.51 194.09,246.41 C 194.22,246.31 194.31,246.20 194.41,246.09 C 194.50,245.98 194.58,245.87 194.66,245.75 C 194.73,245.63 194.79,245.51 194.84,245.38 C 194.90,245.24 194.94,245.11 194.97,244.97 C 195.00,244.83 195.02,244.68 195.03,244.53 C 195.04,244.38 195.04,244.22 195.03,244.06 C 195.02,243.90 195.00,243.73 194.97,243.56 C 194.94,243.39 194.90,243.21 194.84,243.03 C 194.79,242.85 194.80,242.65 194.66,242.47 C 194.51,242.29 194.28,242.11 193.96,241.95 C 193.64,241.78 193.24,241.62 192.76,241.46 C 192.27,241.31 191.70,241.16 191.05,241.02 C 190.39,240.87 189.65,240.74 188.83,240.61 C 188.00,240.48 187.10,240.36 186.10,240.24 C 185.11,240.13 184.03,240.02 182.87,239.91 C 181.70,239.81 180.46,239.71 179.12,239.62 C 177.79,239.54 176.24,239.47 174.88,239.38 C 173.51,239.28 172.18,239.18 170.91,239.06 C 169.63,238.95 168.40,238.82 167.22,238.69 C 166.04,238.55 164.90,238.41 163.81,238.25 C 162.72,238.09 161.68,237.93 160.69,237.75 C 159.69,237.57 158.74,237.39 157.84,237.19 C 156.94,236.99 156.09,236.78 155.28,236.56 C 154.47,236.34 153.71,236.11 153.00,235.88 C 152.29,235.64 151.63,235.37 151.00,235.12 C 150.37,234.88 149.76,234.64 149.20,234.41 C 148.63,234.18 148.09,233.96 147.59,233.74 C 147.08,233.52 146.61,233.31 146.17,233.11 C 145.73,232.90 145.33,232.71 144.95,232.52 C 144.58,232.32 144.24,232.14 143.93,231.96 C 143.62,231.78 143.35,231.61 143.10,231.45 C 142.86,231.28 142.65,231.12 142.47,230.97 C 142.29,230.82 142.17,230.68 142.03,230.53 C 141.90,230.38 141.77,230.22 141.66,230.05 C 141.54,229.88 141.44,229.70 141.34,229.52 C 141.25,229.33 141.17,229.14 141.09,228.94 C 141.02,228.74 140.96,228.53 140.91,228.31 C 140.85,228.10 140.81,227.87 140.78,227.64 C 140.75,227.41 140.73,227.17 140.72,226.92 C 140.71,226.67 140.71,226.42 140.72,226.16 C 140.73,225.89 140.70,225.62 140.78,225.34 C 140.86,225.07 140.99,224.78 141.18,224.49 C 141.37,224.20 141.61,223.90 141.91,223.60 C 142.21,223.30 142.57,222.99 142.98,222.67 C 143.40,222.36 143.87,222.03 144.39,221.70 C 144.92,221.37 145.50,221.04 146.13,220.70 C 146.77,220.35 147.46,220.00 148.21,219.65 C 148.96,219.29 149.76,218.93 150.62,218.56 C 151.49,218.19 152.43,217.79 153.38,217.44 C 154.32,217.08 155.28,216.75 156.27,216.44 C 157.25,216.12 158.26,215.83 159.30,215.56 C 160.33,215.29 161.39,215.04 162.47,214.81 C 163.55,214.58 164.65,214.38 165.78,214.19 C 166.91,214.00 168.06,213.83 169.23,213.69 C 170.41,213.54 171.61,213.42 172.83,213.31 C 174.05,213.21 175.29,213.12 176.56,213.06 C 177.83,213.00 179.22,212.99 180.44,212.94 C 181.65,212.88 182.79,212.82 183.85,212.74 C 184.91,212.67 185.90,212.58 186.80,212.48 C 187.71,212.38 188.54,212.26 189.30,212.14 C 190.05,212.02 190.73,211.88 191.33,211.73 C 191.93,211.59 192.45,211.43 192.90,211.26 C 193.35,211.09 193.71,210.90 194.01,210.71 C 194.30,210.52 194.52,210.31 194.66,210.09 C 194.80,209.88 194.79,209.62 194.84,209.41 C 194.90,209.19 194.95,208.98 194.98,208.78 C 195.02,208.58 195.05,208.40 195.08,208.22 C 195.10,208.04 195.12,207.88 195.12,207.72 C 195.13,207.56 195.13,207.42 195.12,207.28 C 195.12,207.15 195.10,207.02 195.08,206.91 C 195.05,206.79 195.02,206.69 194.98,206.59 C 194.95,206.50 194.90,206.42 194.84,206.34 C 194.79,206.27 194.74,206.21 194.66,206.16 C 194.57,206.10 194.46,206.04 194.32,205.99 C 194.18,205.94 194.02,205.89 193.84,205.85 C 193.65,205.81 193.44,205.77 193.20,205.73 C 192.97,205.70 192.71,205.67 192.42,205.64 C 192.14,205.61 191.83,205.59 191.49,205.57 C 191.16,205.55 190.80,205.54 190.41,205.52 C 190.03,205.51 189.62,205.50 189.19,205.50 C 188.75,205.50 188.25,205.50 187.81,205.50 C 187.38,205.50 186.97,205.49 186.59,205.48 C 186.20,205.46 185.84,205.45 185.51,205.43 C 185.17,205.41 184.86,205.39 184.58,205.36 C 184.29,205.33 184.03,205.30 183.80,205.27 C 183.56,205.23 183.35,205.19 183.16,205.15 C 182.98,205.11 182.82,205.06 182.68,205.01 C 182.54,204.96 182.43,204.90 182.34,204.84 C 182.26,204.79 182.21,204.73 182.16,204.66 C 182.10,204.58 182.05,204.50 182.01,204.40 C 181.96,204.30 181.93,204.19 181.90,204.07 C 181.87,203.95 181.85,203.82 181.83,203.67 C 181.81,203.53 181.80,203.37 181.80,203.20 C 181.79,203.04 181.80,202.86 181.80,202.66 C 181.81,202.47 181.83,202.27 181.85,202.05 C 181.87,201.84 181.90,201.61 181.94,201.38 C 181.97,201.14 181.95,200.90 182.06,200.62 C 182.18,200.35 182.36,200.04 182.62,199.71 C 182.87,199.38 183.20,199.02 183.60,198.63 C 184.00,198.25 184.47,197.83 185.02,197.39 C 185.56,196.95 186.17,196.48 186.86,195.98 C 187.55,195.49 188.30,194.96 189.13,194.41 C 189.96,193.86 190.86,193.29 191.84,192.68 C 192.81,192.07 193.85,191.44 194.97,190.78 C 196.08,190.12 197.34,189.36 198.53,188.72 C 199.73,188.07 200.93,187.47 202.13,186.91 C 203.34,186.36 204.55,185.84 205.77,185.37 C 206.99,184.89 208.22,184.46 209.45,184.08 C 210.69,183.69 211.93,183.35 213.17,183.05 C 214.42,182.75 215.67,182.49 216.93,182.27 C 218.19,182.06 219.45,181.89 220.73,181.76 C 222.00,181.63 223.28,181.54 224.56,181.50 C 225.85,181.46 227.22,181.50 228.44,181.50 C 229.65,181.50 230.80,181.49 231.87,181.48 C 232.94,181.46 233.93,181.45 234.85,181.43 C 235.77,181.41 236.62,181.39 237.39,181.36 C 238.16,181.33 238.86,181.30 239.48,181.27 C 240.11,181.23 240.66,181.19 241.13,181.15 C 241.61,181.11 242.01,181.06 242.34,181.01 C 242.66,180.96 242.92,180.90 243.09,180.84 C 243.27,180.79 243.32,180.72 243.41,180.66 C 243.49,180.59 243.57,180.52 243.62,180.45 C 243.68,180.38 243.72,180.31 243.75,180.23 C 243.78,180.16 243.79,180.08 243.78,180.00 C 243.78,179.92 243.76,179.84 243.72,179.75 C 243.68,179.66 243.63,179.58 243.56,179.48 C 243.49,179.39 243.41,179.30 243.31,179.20 C 243.21,179.11 243.10,179.01 242.97,178.91 C 242.84,178.80 242.71,178.69 242.53,178.59 C 242.35,178.50 242.13,178.40 241.88,178.32 C 241.63,178.24 241.35,178.16 241.02,178.09 C 240.70,178.01 240.35,177.95 239.95,177.89 C 239.56,177.83 239.13,177.78 238.67,177.73 C 238.21,177.69 237.71,177.65 237.18,177.62 C 236.65,177.58 236.08,177.56 235.48,177.54 C 234.87,177.52 234.24,177.51 233.56,177.50 C 232.89,177.49 232.10,177.51 231.44,177.50 C 230.77,177.49 230.15,177.48 229.58,177.47 C 229.00,177.45 228.47,177.43 227.98,177.41 C 227.50,177.38 227.05,177.35 226.66,177.31 C 226.26,177.28 225.90,177.23 225.59,177.19 C 225.28,177.14 225.02,177.09 224.80,177.03 C 224.58,176.97 224.40,176.91 224.27,176.84 C 224.13,176.78 224.04,176.70 224.00,176.62 C 223.96,176.55 223.99,176.45 224.00,176.38 C 224.01,176.30 224.03,176.22 224.06,176.16 C 224.09,176.09 224.14,176.03 224.19,175.97 C 224.24,175.91 224.30,175.86 224.38,175.81 C 224.45,175.77 224.53,175.72 224.62,175.69 C 224.72,175.65 224.82,175.62 224.94,175.59 C 225.05,175.57 225.18,175.55 225.31,175.53 C 225.45,175.52 225.59,175.51 225.75,175.50 C 225.91,175.49 226.05,175.50 226.25,175.50 C 226.45,175.50 226.68,175.50 226.95,175.49 C 227.21,175.49 227.51,175.48 227.84,175.48 C 228.17,175.47 228.53,175.46 228.92,175.45 C 229.32,175.44 229.74,175.43 230.20,175.42 C 230.66,175.41 231.15,175.40 231.68,175.38 C 232.20,175.37 232.76,175.35 233.35,175.34 C 233.94,175.32 234.56,175.30 235.22,175.28 C 235.87,175.26 236.64,175.24 237.28,175.22 C 237.92,175.19 238.52,175.16 239.08,175.12 C 239.63,175.09 240.14,175.05 240.61,175.00 C 241.08,174.95 241.50,174.90 241.88,174.84 C 242.25,174.79 242.59,174.72 242.88,174.66 C 243.16,174.59 243.41,174.52 243.61,174.44 C 243.81,174.36 243.97,174.28 244.08,174.19 C 244.19,174.10 244.26,174.01 244.28,173.91 C 244.30,173.81 244.28,173.69 244.22,173.59 C 244.16,173.49 244.05,173.40 243.91,173.31 C 243.76,173.22 243.57,173.14 243.34,173.06 C 243.11,172.98 242.84,172.91 242.53,172.84 C 242.22,172.78 241.86,172.71 241.47,172.66 C 241.07,172.60 240.64,172.55 240.16,172.50 C 239.68,172.45 239.16,172.41 238.59,172.38 C 238.03,172.34 237.43,172.31 236.78,172.28 C 236.14,172.26 235.32,172.27 234.72,172.22 C 234.12,172.17 233.60,172.10 233.17,172.00 C 232.74,171.90 232.40,171.78 232.14,171.62 C 231.88,171.47 231.71,171.30 231.62,171.09 C 231.54,170.89 231.54,170.66 231.62,170.41 C 231.71,170.15 231.88,169.87 232.14,169.56 C 232.40,169.26 232.74,168.92 233.17,168.56 C 233.60,168.20 234.12,167.82 234.72,167.41 C 235.32,166.99 236.12,166.52 236.78,166.09 C 237.44,165.67 238.07,165.26 238.67,164.86 C 239.27,164.46 239.85,164.08 240.39,163.70 C 240.93,163.33 241.45,162.97 241.94,162.62 C 242.42,162.28 242.88,161.95 243.31,161.62 C 243.74,161.30 244.14,161.00 244.52,160.70 C 244.89,160.41 245.23,160.13 245.55,159.86 C 245.86,159.59 246.15,159.34 246.41,159.09 C 246.66,158.85 246.85,158.70 247.09,158.41 C 247.34,158.11 247.60,157.75 247.88,157.32 C 248.16,156.89 248.46,156.40 248.77,155.84 C 249.09,155.27 249.42,154.65 249.77,153.95 C 250.11,153.26 250.48,152.50 250.86,151.67 C 251.24,150.85 251.64,149.95 252.05,148.99 C 252.47,148.03 252.90,147.01 253.35,145.91 C 253.80,144.82 254.27,143.66 254.75,142.44 C 255.23,141.21 255.77,139.78 256.25,138.56 C 256.73,137.35 257.18,136.20 257.62,135.13 C 258.05,134.06 258.46,133.07 258.85,132.15 C 259.24,131.23 259.61,130.38 259.95,129.61 C 260.30,128.84 260.62,128.14 260.92,127.52 C 261.22,126.89 261.50,126.34 261.76,125.87 C 262.01,125.39 262.25,124.99 262.46,124.66 C 262.67,124.34 262.86,124.08 263.03,123.91 C 263.20,123.73 263.31,123.69 263.47,123.59 C 263.63,123.50 263.81,123.40 264.01,123.32 C 264.20,123.24 264.42,123.16 264.65,123.09 C 264.88,123.01 265.13,122.95 265.39,122.89 C 265.65,122.83 265.94,122.78 266.23,122.73 C 266.53,122.69 266.85,122.65 267.18,122.62 C 267.51,122.58 267.86,122.56 268.23,122.54 C 268.59,122.52 268.98,122.51 269.38,122.50 C 269.77,122.49 270.12,122.38 270.62,122.50 C 271.13,122.62 271.74,122.85 272.43,123.20 C 273.12,123.54 273.91,124.01 274.79,124.59 C 275.67,125.17 276.64,125.86 277.70,126.67 C 278.77,127.48 279.92,128.41 281.17,129.45 C 282.42,130.50 283.76,131.65 285.20,132.93 C 286.63,134.20 288.15,135.60 289.77,137.10 C 291.39,138.61 293.10,140.23 294.91,141.97 C 296.71,143.71 298.81,145.77 300.59,147.53 C 302.37,149.29 304.04,150.96 305.59,152.54 C 307.13,154.12 308.57,155.60 309.88,156.99 C 311.20,158.38 312.40,159.68 313.48,160.89 C 314.57,162.10 315.54,163.21 316.39,164.23 C 317.24,165.26 317.98,166.19 318.60,167.02 C 319.22,167.86 319.73,168.61 320.12,169.26 C 320.51,169.91 320.78,170.47 320.94,170.94 C 321.10,171.40 320.97,171.65 321.06,172.06 C 321.15,172.47 321.29,172.91 321.48,173.38 C 321.66,173.86 321.90,174.36 322.18,174.90 C 322.46,175.44 322.79,176.01 323.17,176.61 C 323.55,177.21 323.98,177.85 324.45,178.52 C 324.93,179.18 325.45,179.88 326.02,180.62 C 326.60,181.35 327.21,182.12 327.88,182.91 C 328.55,183.71 329.27,184.54 330.03,185.41 C 330.80,186.27 331.68,187.24 332.47,188.09 C 333.26,188.95 334.03,189.76 334.77,190.54 C 335.52,191.31 336.24,192.05 336.95,192.74 C 337.65,193.44 338.33,194.09 338.98,194.70 C 339.64,195.32 340.28,195.89 340.89,196.42 C 341.50,196.95 342.10,197.45 342.66,197.90 C 343.23,198.35 343.78,198.76 344.30,199.13 C 344.83,199.50 345.33,199.83 345.81,200.12 C 346.29,200.42 346.74,200.63 347.19,200.88 C 347.63,201.12 348.06,201.37 348.47,201.61 C 348.88,201.85 349.28,202.09 349.66,202.33 C 350.04,202.57 350.40,202.80 350.75,203.03 C 351.10,203.26 351.43,203.49 351.75,203.72 C 352.07,203.95 352.37,204.17 352.66,204.39 C 352.94,204.61 353.21,204.83 353.47,205.05 C 353.72,205.26 353.96,205.48 354.19,205.69 C 354.41,205.90 354.55,206.10 354.81,206.31 C 355.08,206.52 355.39,206.74 355.77,206.95 C 356.14,207.17 356.57,207.39 357.05,207.61 C 357.53,207.83 358.07,208.05 358.66,208.28 C 359.25,208.51 359.89,208.74 360.59,208.97 C 361.29,209.20 362.05,209.43 362.86,209.67 C 363.67,209.91 364.53,210.15 365.45,210.39 C 366.37,210.63 367.35,210.88 368.38,211.12 C 369.40,211.37 370.59,211.61 371.62,211.88 C 372.66,212.14 373.64,212.41 374.57,212.70 C 375.50,212.98 376.38,213.28 377.21,213.59 C 378.04,213.89 378.82,214.21 379.55,214.55 C 380.27,214.88 380.95,215.22 381.58,215.58 C 382.20,215.93 382.78,216.30 383.30,216.68 C 383.83,217.06 384.30,217.45 384.73,217.85 C 385.15,218.25 385.52,218.67 385.84,219.09 C 386.17,219.52 386.42,219.96 386.66,220.41 C 386.90,220.85 387.10,221.30 387.28,221.75 C 387.46,222.20 387.60,222.66 387.72,223.12 C 387.83,223.59 387.92,224.06 387.97,224.53 C 388.02,225.01 388.04,225.48 388.03,225.97 C 388.02,226.45 387.98,226.94 387.91,227.44 C 387.83,227.93 387.73,228.43 387.59,228.94 C 387.46,229.44 387.29,229.95 387.09,230.47 C 386.90,230.98 386.69,231.53 386.41,232.03 C 386.12,232.54 385.79,233.02 385.40,233.49 C 385.01,233.96 384.57,234.42 384.07,234.85 C 383.57,235.29 383.02,235.71 382.42,236.11 C 381.82,236.51 381.16,236.90 380.45,237.27 C 379.74,237.63 378.98,237.99 378.16,238.32 C 377.35,238.65 376.48,238.97 375.55,239.27 C 374.63,239.57 373.65,239.86 372.62,240.12 C 371.60,240.39 370.41,240.62 369.38,240.88 C 368.34,241.12 367.36,241.38 366.44,241.62 C 365.51,241.88 364.64,242.12 363.81,242.38 C 362.99,242.62 362.22,242.88 361.50,243.12 C 360.78,243.38 360.11,243.62 359.50,243.88 C 358.89,244.12 358.32,244.38 357.81,244.62 C 357.30,244.88 356.84,245.12 356.44,245.38 C 356.03,245.62 355.68,245.88 355.38,246.12 C 355.07,246.38 354.88,246.64 354.62,246.88 C 354.38,247.11 354.12,247.34 353.88,247.56 C 353.62,247.78 353.38,247.99 353.12,248.19 C 352.88,248.39 352.62,248.57 352.38,248.75 C 352.12,248.93 351.88,249.09 351.62,249.25 C 351.38,249.41 351.12,249.55 350.88,249.69 C 350.62,249.82 350.38,249.95 350.12,250.06 C 349.88,250.18 349.62,250.28 349.38,250.38 C 349.12,250.47 348.88,250.53 348.62,250.62 C 348.37,250.72 348.10,250.83 347.83,250.95 C 347.55,251.08 347.27,251.21 346.98,251.36 C 346.70,251.51 346.40,251.67 346.09,251.84 C 345.79,252.02 345.48,252.21 345.16,252.41 C 344.84,252.61 344.51,252.82 344.17,253.05 C 343.84,253.27 343.49,253.51 343.14,253.77 C 342.79,254.02 342.43,254.28 342.06,254.56 C 341.70,254.84 341.33,255.12 340.94,255.44 C 340.55,255.76 340.14,256.11 339.71,256.49 C 339.29,256.87 338.84,257.29 338.38,257.73 C 337.92,258.17 337.45,258.64 336.95,259.14 C 336.46,259.64 335.95,260.17 335.42,260.73 C 334.89,261.30 334.35,261.89 333.79,262.51 C 333.23,263.13 332.65,263.78 332.05,264.46 C 331.46,265.14 330.85,265.85 330.22,266.59 C 329.59,267.33 328.89,268.16 328.28,268.91 C 327.67,269.65 327.10,270.37 326.57,271.07 C 326.04,271.77 325.54,272.44 325.09,273.09 C 324.63,273.73 324.21,274.36 323.83,274.95 C 323.45,275.55 323.10,276.12 322.80,276.67 C 322.49,277.22 322.22,277.74 321.99,278.24 C 321.76,278.74 321.57,279.21 321.41,279.66 C 321.26,280.11 321.14,280.54 321.06,280.94 C 320.98,281.34 321.09,281.60 320.94,282.06 C 320.78,282.53 320.51,283.08 320.13,283.73 C 319.75,284.37 319.26,285.11 318.65,285.93 C 318.04,286.75 317.32,287.67 316.48,288.67 C 315.65,289.68 314.70,290.77 313.64,291.95 C 312.58,293.14 311.40,294.41 310.12,295.77 C 308.83,297.14 307.43,298.59 305.91,300.13 C 304.40,301.68 302.77,303.31 301.03,305.03 C 299.29,306.75 297.24,308.77 295.47,310.47 C 293.70,312.17 292.01,313.75 290.40,315.23 C 288.79,316.70 287.26,318.06 285.82,319.30 C 284.38,320.55 283.01,321.68 281.73,322.70 C 280.45,323.72 279.26,324.63 278.14,325.42 C 277.02,326.21 275.99,326.89 275.04,327.46 C 274.09,328.03 273.22,328.48 272.43,328.82 C 271.64,329.16 270.94,329.39 270.31,329.50 Z" fill="none" stroke="currentColor" stroke-width="1.5" stroke-linejoin="round" stroke-linecap="round" filter="url(#glow)" />
</svg>