<svg xmlns="http://www.w3.org/2000/svg" width="512" height="512" viewBox="150.12 201.50 295.33 144.00" preserveAspectRatio="xMidYMid meet">
  <defs>
    <filter id="glow" x="-30%" y="-30%" width="160%" height="160%">
      <feGaussianBlur in="SourceGraphic" stdDeviation="2.4" result="blur" />
      <feMerge>
        <feMergeNode in="blur" />
        <feMergeNode in="SourceGraphic" />
      </feMerge>
    </filter>
    <clipPath id="hull-clip">
      <path d="M 327.50,333.50 C 327.18,333.52 326.83,333.52 326.50,333.50 C 326.17,333.48 325.86,333.44 325.55,333.38 C 325.24,333.31 324.93,333.23 324.64,333.12 C 324.35,333.02 324.06,332.90 323.78,332.75 C 323.50,332.60 323.23,332.44 322.97,332.25 C 322.71,332.06 322.45,331.85 322.20,331.62 C 321.96,331.40 321.72,331.15 321.48,330.88 C 321.25,330.60 321.03,330.31 320.81,330.00 C 320.60,329.69 320.39,329.31 320.19,329.00 C 319.98,328.69 319.77,328.39 319.57,328.12 C 319.37,327.84 319.16,327.59 318.96,327.35 C 318.76,327.12 318.56,326.90 318.36,326.70 C 318.16,326.51 317.96,326.33 317.77,326.17 C 317.57,326.01 317.37,325.88 317.18,325.76 C 316.99,325.64 316.79,325.54 316.60,325.46 C 316.41,325.38 316.22,325.32 316.03,325.28 C 315.84,325.24 315.63,325.25 315.47,325.22 C 315.31,325.19 315.18,325.16 315.07,325.12 C 314.96,325.08 314.89,325.03 314.84,324.98 C 314.79,324.92 314.76,324.86 314.77,324.80 C 314.77,324.73 314.80,324.66 314.86,324.58 C 314.92,324.50 315.00,324.41 315.12,324.32 C 315.23,324.23 315.37,324.13 315.54,324.02 C 315.71,323.92 315.90,323.81 316.12,323.69 C 316.35,323.57 316.65,323.48 316.88,323.31 C 317.10,323.15 317.30,322.94 317.48,322.70 C 317.65,322.45 317.80,322.16 317.93,321.84 C 318.06,321.51 318.16,321.14 318.23,320.73 C 318.31,320.33 318.36,319.88 318.39,319.39 C 318.42,318.90 318.42,318.37 318.40,317.80 C 318.38,317.24 318.33,316.63 318.26,315.98 C 318.19,315.33 318.09,314.64 317.97,313.91 C 317.85,313.18 317.68,312.31 317.53,311.59 C 317.39,310.88 317.24,310.23 317.10,309.63 C 316.96,309.04 316.82,308.50 316.68,308.02 C 316.54,307.55 316.40,307.13 316.27,306.77 C 316.13,306.40 315.99,306.10 315.86,305.86 C 315.73,305.62 315.59,305.43 315.46,305.30 C 315.33,305.18 315.20,305.11 315.07,305.10 C 314.94,305.09 314.81,305.14 314.69,305.25 C 314.56,305.36 314.51,305.60 314.31,305.75 C 314.11,305.90 313.84,306.04 313.48,306.16 C 313.13,306.28 312.71,306.38 312.20,306.47 C 311.70,306.56 311.12,306.63 310.47,306.69 C 309.82,306.74 309.09,306.79 308.28,306.81 C 307.48,306.84 306.60,306.85 305.64,306.84 C 304.68,306.84 303.65,306.82 302.55,306.78 C 301.44,306.74 300.26,306.69 299.00,306.62 C 297.74,306.56 296.33,306.45 295.00,306.38 C 293.67,306.30 292.35,306.25 291.03,306.20 C 289.71,306.16 288.40,306.13 287.09,306.11 C 285.79,306.09 284.48,306.09 283.19,306.09 C 281.89,306.10 280.60,306.12 279.31,306.16 C 278.03,306.19 276.74,306.24 275.47,306.30 C 274.19,306.36 272.92,306.43 271.66,306.52 C 270.39,306.60 269.13,306.70 267.88,306.81 C 266.62,306.92 265.31,307.09 264.12,307.19 C 262.94,307.28 261.82,307.34 260.77,307.38 C 259.71,307.41 258.72,307.41 257.80,307.38 C 256.87,307.34 256.01,307.28 255.22,307.19 C 254.42,307.09 253.70,306.97 253.03,306.81 C 252.37,306.66 251.77,306.47 251.23,306.25 C 250.70,306.03 250.23,305.78 249.83,305.50 C 249.42,305.22 249.09,304.91 248.81,304.56 C 248.54,304.22 248.47,303.82 248.19,303.44 C 247.91,303.05 247.56,302.66 247.14,302.27 C 246.72,301.87 246.23,301.46 245.67,301.05 C 245.11,300.63 244.48,300.21 243.78,299.78 C 243.08,299.35 242.31,298.91 241.47,298.47 C 240.63,298.02 239.72,297.57 238.73,297.11 C 237.75,296.65 236.70,296.18 235.58,295.70 C 234.46,295.23 233.26,294.74 232.00,294.25 C 230.74,293.76 229.26,293.23 228.00,292.75 C 226.74,292.27 225.57,291.80 224.47,291.34 C 223.37,290.89 222.35,290.45 221.41,290.03 C 220.46,289.61 219.60,289.20 218.81,288.81 C 218.03,288.42 217.32,288.05 216.69,287.69 C 216.06,287.33 215.51,286.98 215.03,286.66 C 214.56,286.33 214.16,286.02 213.84,285.72 C 213.53,285.42 213.29,285.14 213.12,284.88 C 212.96,284.61 213.01,284.36 212.88,284.12 C 212.74,283.89 212.54,283.66 212.30,283.45 C 212.05,283.24 211.75,283.04 211.39,282.86 C 211.03,282.67 210.62,282.50 210.16,282.34 C 209.69,282.18 209.17,282.04 208.59,281.91 C 208.02,281.77 207.39,281.65 206.70,281.55 C 206.02,281.44 205.28,281.35 204.48,281.27 C 203.69,281.18 202.84,281.12 201.94,281.06 C 201.03,281.01 199.99,280.98 199.06,280.94 C 198.14,280.89 197.24,280.84 196.38,280.78 C 195.51,280.72 194.68,280.66 193.88,280.59 C 193.07,280.53 192.30,280.45 191.56,280.38 C 190.82,280.30 190.11,280.21 189.44,280.12 C 188.76,280.04 188.11,279.94 187.50,279.84 C 186.89,279.74 186.30,279.64 185.75,279.53 C 185.20,279.42 184.68,279.31 184.19,279.19 C 183.70,279.07 183.28,278.92 182.81,278.81 C 182.35,278.70 181.87,278.61 181.39,278.53 C 180.91,278.45 180.42,278.39 179.92,278.34 C 179.42,278.30 178.92,278.27 178.41,278.25 C 177.89,278.23 177.37,278.23 176.84,278.25 C 176.32,278.27 175.78,278.30 175.23,278.34 C 174.69,278.39 174.14,278.45 173.58,278.53 C 173.02,278.61 172.45,278.70 171.88,278.81 C 171.30,278.92 170.68,279.09 170.12,279.19 C 169.57,279.29 169.05,279.36 168.55,279.41 C 168.06,279.46 167.60,279.49 167.16,279.49 C 166.73,279.49 166.33,279.47 165.95,279.42 C 165.58,279.37 165.24,279.30 164.92,279.20 C 164.61,279.11 164.32,278.98 164.07,278.84 C 163.82,278.69 163.59,278.52 163.40,278.32 C 163.20,278.12 163.04,277.90 162.91,277.66 C 162.77,277.41 162.68,277.11 162.59,276.84 C 162.50,276.57 162.42,276.30 162.36,276.03 C 162.29,275.76 162.24,275.49 162.20,275.22 C 162.16,274.95 162.14,274.68 162.12,274.41 C 162.11,274.14 162.11,273.86 162.12,273.59 C 162.14,273.32 162.16,273.05 162.20,272.78 C 162.24,272.51 162.29,272.24 162.36,271.97 C 162.42,271.70 162.50,271.43 162.59,271.16 C 162.68,270.89 162.77,270.59 162.91,270.34 C 163.04,270.10 163.20,269.87 163.40,269.66 C 163.59,269.46 163.82,269.28 164.07,269.12 C 164.32,268.96 164.61,268.82 164.92,268.70 C 165.24,268.59 165.58,268.49 165.95,268.42 C 166.33,268.35 166.73,268.30 167.16,268.27 C 167.60,268.25 168.06,268.24 168.55,268.26 C 169.05,268.27 169.57,268.31 170.12,268.38 C 170.68,268.44 171.30,268.55 171.88,268.62 C 172.45,268.70 173.03,268.75 173.59,268.80 C 174.16,268.84 174.72,268.87 175.28,268.89 C 175.84,268.91 176.39,268.91 176.94,268.91 C 177.48,268.90 178.03,268.88 178.56,268.84 C 179.10,268.81 179.63,268.76 180.16,268.70 C 180.68,268.64 181.20,268.57 181.72,268.48 C 182.23,268.40 182.74,268.30 183.25,268.19 C 183.76,268.08 184.23,267.93 184.75,267.81 C 185.27,267.70 185.82,267.59 186.39,267.48 C 186.96,267.38 187.55,267.29 188.17,267.20 C 188.79,267.12 189.43,267.04 190.09,266.97 C 190.76,266.90 191.45,266.84 192.16,266.78 C 192.87,266.73 193.60,266.68 194.36,266.64 C 195.12,266.60 195.90,266.57 196.70,266.55 C 197.51,266.52 198.34,266.51 199.19,266.50 C 200.04,266.49 200.98,266.52 201.81,266.50 C 202.64,266.48 203.43,266.45 204.17,266.39 C 204.91,266.34 205.61,266.26 206.27,266.17 C 206.92,266.08 207.53,265.97 208.09,265.84 C 208.66,265.72 209.18,265.57 209.66,265.41 C 210.13,265.24 210.57,265.06 210.95,264.86 C 211.34,264.66 211.68,264.44 211.98,264.20 C 212.28,263.97 212.54,263.71 212.75,263.44 C 212.96,263.16 213.04,262.86 213.25,262.56 C 213.46,262.27 213.72,261.97 214.03,261.67 C 214.34,261.37 214.69,261.07 215.09,260.77 C 215.49,260.46 215.94,260.15 216.44,259.84 C 216.93,259.53 217.47,259.22 218.06,258.91 C 218.65,258.59 219.29,258.27 219.97,257.95 C 220.65,257.63 221.38,257.31 222.16,256.98 C 222.93,256.66 223.76,256.33 224.62,256.00 C 225.49,255.67 226.51,255.32 227.38,255.00 C 228.24,254.68 229.06,254.37 229.83,254.08 C 230.60,253.78 231.32,253.50 231.98,253.23 C 232.65,252.97 233.27,252.71 233.84,252.47 C 234.41,252.23 234.93,252.00 235.41,251.78 C 235.88,251.57 236.30,251.36 236.67,251.17 C 237.04,250.98 237.37,250.80 237.64,250.64 C 237.91,250.48 238.14,250.33 238.31,250.19 C 238.49,250.05 238.55,249.93 238.69,249.81 C 238.82,249.69 238.96,249.58 239.11,249.47 C 239.26,249.36 239.41,249.26 239.58,249.16 C 239.74,249.06 239.91,248.96 240.09,248.88 C 240.27,248.79 240.46,248.70 240.66,248.62 C 240.85,248.55 241.05,248.47 241.27,248.41 C 241.48,248.34 241.70,248.28 241.92,248.22 C 242.15,248.16 242.38,248.11 242.62,248.06 C 242.87,248.02 243.13,248.00 243.38,247.94 C 243.62,247.88 243.87,247.79 244.11,247.69 C 244.35,247.58 244.59,247.46 244.83,247.31 C 245.07,247.17 245.30,247.00 245.53,246.81 C 245.76,246.62 245.99,246.42 246.22,246.19 C 246.45,245.96 246.67,245.71 246.89,245.44 C 247.11,245.17 247.33,244.88 247.55,244.56 C 247.76,244.25 247.98,243.92 248.19,243.56 C 248.40,243.21 248.54,242.78 248.81,242.44 C 249.08,242.09 249.42,241.78 249.81,241.50 C 250.21,241.22 250.67,240.97 251.19,240.75 C 251.71,240.53 252.29,240.34 252.94,240.19 C 253.58,240.03 254.29,239.91 255.06,239.81 C 255.83,239.72 256.67,239.66 257.56,239.62 C 258.46,239.59 259.42,239.59 260.44,239.62 C 261.46,239.66 262.54,239.72 263.69,239.81 C 264.83,239.91 266.10,240.08 267.31,240.19 C 268.53,240.30 269.75,240.40 270.98,240.48 C 272.22,240.57 273.46,240.64 274.70,240.70 C 275.95,240.76 277.21,240.81 278.47,240.84 C 279.73,240.88 281.00,240.90 282.28,240.91 C 283.56,240.91 284.85,240.91 286.14,240.89 C 287.43,240.87 288.74,240.84 290.05,240.80 C 291.36,240.75 292.67,240.70 294.00,240.62 C 295.33,240.55 296.74,240.44 298.00,240.38 C 299.26,240.31 300.45,240.26 301.56,240.22 C 302.68,240.18 303.72,240.16 304.69,240.16 C 305.66,240.15 306.55,240.16 307.38,240.19 C 308.20,240.21 308.95,240.26 309.62,240.31 C 310.30,240.37 310.91,240.44 311.44,240.53 C 311.97,240.62 312.43,240.72 312.81,240.84 C 313.20,240.96 313.51,241.10 313.75,241.25 C 313.99,241.40 314.09,241.62 314.25,241.75 C 314.41,241.88 314.57,241.98 314.73,242.04 C 314.88,242.10 315.03,242.13 315.18,242.12 C 315.33,242.11 315.47,242.06 315.61,241.98 C 315.75,241.90 315.88,241.79 316.02,241.64 C 316.15,241.49 316.27,241.31 316.40,241.09 C 316.52,240.87 316.64,240.61 316.76,240.32 C 316.87,240.03 316.99,239.70 317.09,239.34 C 317.20,238.98 317.31,238.55 317.41,238.16 C 317.51,237.76 317.60,237.37 317.70,236.98 C 317.79,236.58 317.88,236.19 317.96,235.80 C 318.05,235.42 318.13,235.03 318.20,234.64 C 318.28,234.25 318.35,233.87 318.42,233.48 C 318.49,233.10 318.56,232.72 318.62,232.34 C 318.68,231.95 318.74,231.57 318.79,231.20 C 318.84,230.82 318.89,230.44 318.94,230.06 C 318.98,229.69 319.04,229.30 319.06,228.94 C 319.09,228.58 319.09,228.23 319.08,227.91 C 319.07,227.58 319.03,227.27 318.98,226.97 C 318.93,226.67 318.87,226.39 318.78,226.12 C 318.70,225.86 318.59,225.61 318.47,225.38 C 318.35,225.14 318.21,224.92 318.05,224.72 C 317.89,224.52 317.71,224.33 317.52,224.16 C 317.32,223.98 317.11,223.83 316.88,223.69 C 316.64,223.55 316.35,223.43 316.12,223.31 C 315.90,223.19 315.71,223.08 315.55,222.98 C 315.39,222.87 315.26,222.77 315.16,222.68 C 315.06,222.59 314.99,222.50 314.95,222.42 C 314.91,222.34 314.90,222.27 314.92,222.20 C 314.94,222.14 314.99,222.08 315.07,222.02 C 315.15,221.97 315.26,221.92 315.40,221.88 C 315.54,221.84 315.71,221.81 315.91,221.78 C 316.11,221.75 316.37,221.76 316.59,221.72 C 316.82,221.68 317.05,221.62 317.27,221.54 C 317.50,221.46 317.72,221.36 317.95,221.24 C 318.17,221.12 318.39,220.99 318.61,220.83 C 318.83,220.67 319.05,220.49 319.27,220.30 C 319.48,220.10 319.70,219.88 319.91,219.65 C 320.13,219.41 320.34,219.16 320.55,218.88 C 320.77,218.61 320.98,218.31 321.19,218.00 C 321.40,217.69 321.60,217.31 321.81,217.00 C 322.03,216.69 322.24,216.40 322.47,216.12 C 322.69,215.85 322.92,215.60 323.16,215.38 C 323.39,215.15 323.63,214.94 323.88,214.75 C 324.12,214.56 324.37,214.40 324.62,214.25 C 324.88,214.10 325.14,213.98 325.41,213.88 C 325.67,213.77 325.94,213.69 326.22,213.62 C 326.49,213.56 326.78,213.52 327.06,213.50 C 327.35,213.48 327.65,213.48 327.94,213.50 C 328.22,213.52 328.50,213.55 328.77,213.60 C 329.05,213.65 329.31,213.72 329.57,213.80 C 329.83,213.89 330.08,213.99 330.33,214.11 C 330.57,214.23 330.81,214.36 331.05,214.52 C 331.28,214.67 331.51,214.84 331.73,215.02 C 331.95,215.21 332.16,215.41 332.37,215.63 C 332.57,215.85 332.77,216.09 332.97,216.34 C 333.16,216.60 333.36,216.88 333.53,217.16 C 333.71,217.43 333.87,217.71 334.02,217.99 C 334.18,218.27 334.32,218.56 334.45,218.85 C 334.57,219.14 334.69,219.44 334.80,219.73 C 334.90,220.03 335.00,220.33 335.08,220.64 C 335.16,220.95 335.23,221.26 335.29,221.57 C 335.35,221.88 335.39,222.20 335.43,222.52 C 335.46,222.85 335.49,223.17 335.50,223.50 C 335.51,223.83 335.49,224.17 335.50,224.50 C 335.51,224.83 335.52,225.15 335.55,225.47 C 335.57,225.79 335.60,226.10 335.64,226.41 C 335.68,226.71 335.73,227.02 335.78,227.31 C 335.84,227.61 335.90,227.90 335.97,228.19 C 336.04,228.47 336.12,228.76 336.20,229.03 C 336.29,229.31 336.38,229.58 336.48,229.84 C 336.59,230.11 336.70,230.37 336.81,230.62 C 336.93,230.88 337.05,231.11 337.19,231.38 C 337.32,231.64 337.46,231.91 337.61,232.19 C 337.76,232.47 337.91,232.76 338.08,233.06 C 338.24,233.36 338.41,233.68 338.59,234.00 C 338.77,234.32 338.96,234.66 339.16,235.00 C 339.35,235.34 339.55,235.70 339.77,236.06 C 339.98,236.43 340.20,236.80 340.42,237.19 C 340.65,237.57 340.88,237.97 341.12,238.38 C 341.37,238.78 341.62,239.23 341.88,239.62 C 342.12,240.02 342.38,240.40 342.62,240.77 C 342.88,241.13 343.12,241.47 343.38,241.80 C 343.62,242.12 343.88,242.43 344.12,242.72 C 344.38,243.01 344.62,243.28 344.88,243.53 C 345.12,243.78 345.38,244.02 345.62,244.23 C 345.88,244.45 346.12,244.65 346.38,244.83 C 346.62,245.01 346.88,245.17 347.12,245.31 C 347.38,245.46 347.65,245.57 347.88,245.69 C 348.10,245.81 348.31,245.92 348.49,246.02 C 348.68,246.13 348.84,246.23 348.98,246.32 C 349.12,246.41 349.23,246.50 349.33,246.58 C 349.42,246.66 349.50,246.73 349.55,246.80 C 349.60,246.86 349.63,246.92 349.63,246.98 C 349.64,247.03 349.62,247.08 349.59,247.12 C 349.55,247.16 349.49,247.19 349.41,247.22 C 349.32,247.25 349.19,247.26 349.09,247.28 C 349.00,247.31 348.90,247.33 348.82,247.37 C 348.74,247.40 348.66,247.44 348.59,247.48 C 348.51,247.52 348.45,247.56 348.39,247.61 C 348.33,247.66 348.28,247.71 348.23,247.77 C 348.19,247.82 348.15,247.88 348.12,247.95 C 348.08,248.01 348.06,248.08 348.04,248.15 C 348.02,248.22 348.01,248.30 348.00,248.38 C 347.99,248.45 347.98,248.54 348.00,248.62 C 348.02,248.71 348.05,248.80 348.09,248.89 C 348.14,248.98 348.20,249.08 348.28,249.17 C 348.36,249.27 348.45,249.37 348.56,249.47 C 348.67,249.57 348.80,249.67 348.94,249.78 C 349.08,249.89 349.23,250.00 349.41,250.11 C 349.58,250.22 349.77,250.34 349.97,250.45 C 350.17,250.57 350.39,250.69 350.62,250.81 C 350.86,250.93 351.14,251.07 351.38,251.19 C 351.61,251.30 351.84,251.40 352.05,251.49 C 352.27,251.58 352.47,251.66 352.66,251.73 C 352.86,251.79 353.04,251.85 353.20,251.89 C 353.37,251.93 353.53,251.96 353.67,251.98 C 353.82,252.00 353.95,252.01 354.07,252.01 C 354.19,252.00 354.30,251.99 354.40,251.96 C 354.50,251.93 354.58,251.89 354.66,251.84 C 354.73,251.79 354.79,251.73 354.84,251.66 C 354.89,251.58 354.93,251.50 354.96,251.41 C 354.99,251.32 355.00,251.23 355.01,251.12 C 355.01,251.01 355.00,250.89 354.98,250.77 C 354.96,250.64 354.93,250.50 354.89,250.36 C 354.85,250.21 354.79,250.06 354.73,249.90 C 354.66,249.74 354.58,249.56 354.49,249.38 C 354.40,249.20 354.30,249.01 354.19,248.81 C 354.07,248.61 353.93,248.39 353.81,248.19 C 353.70,247.98 353.59,247.79 353.48,247.59 C 353.38,247.40 353.29,247.21 353.20,247.03 C 353.12,246.85 353.04,246.67 352.97,246.50 C 352.90,246.33 352.84,246.16 352.78,246.00 C 352.73,245.84 352.68,245.68 352.64,245.53 C 352.60,245.38 352.57,245.23 352.55,245.09 C 352.52,244.95 352.51,244.82 352.50,244.69 C 352.49,244.56 352.49,244.44 352.50,244.31 C 352.51,244.19 352.52,244.07 352.54,243.95 C 352.56,243.82 352.58,243.70 352.62,243.59 C 352.65,243.47 352.69,243.35 352.73,243.23 C 352.78,243.12 352.83,243.00 352.89,242.89 C 352.95,242.78 353.01,242.67 353.09,242.55 C 353.16,242.44 353.24,242.33 353.32,242.23 C 353.40,242.12 353.50,242.01 353.59,241.91 C 353.69,241.80 353.76,241.69 353.91,241.59 C 354.05,241.50 354.24,241.40 354.46,241.32 C 354.69,241.24 354.95,241.16 355.26,241.09 C 355.56,241.01 355.91,240.95 356.30,240.89 C 356.68,240.83 357.11,240.78 357.58,240.73 C 358.05,240.69 358.55,240.65 359.10,240.62 C 359.65,240.58 360.24,240.56 360.87,240.54 C 361.50,240.52 362.17,240.51 362.88,240.50 C 363.58,240.49 364.41,240.51 365.12,240.50 C 365.84,240.49 366.52,240.48 367.17,240.47 C 367.82,240.45 368.43,240.43 369.02,240.41 C 369.60,240.38 370.14,240.35 370.66,240.31 C 371.17,240.28 371.65,240.23 372.09,240.19 C 372.54,240.14 372.95,240.09 373.33,240.03 C 373.71,239.97 374.05,239.91 374.36,239.84 C 374.67,239.78 374.95,239.70 375.19,239.62 C 375.43,239.55 375.60,239.45 375.81,239.38 C 376.03,239.30 376.25,239.23 376.48,239.17 C 376.72,239.11 376.96,239.06 377.20,239.02 C 377.45,238.97 377.71,238.93 377.97,238.91 C 378.23,238.88 378.50,238.86 378.78,238.84 C 379.06,238.83 379.35,238.83 379.64,238.83 C 379.93,238.83 380.24,238.84 380.55,238.86 C 380.86,238.88 381.17,238.90 381.50,238.94 C 381.83,238.97 382.14,239.01 382.50,239.06 C 382.86,239.12 383.25,239.19 383.66,239.27 C 384.08,239.36 384.52,239.46 384.99,239.57 C 385.46,239.68 385.96,239.81 386.48,239.95 C 387.01,240.10 387.56,240.25 388.14,240.42 C 388.72,240.59 389.33,240.78 389.96,240.98 C 390.60,241.18 391.26,241.39 391.95,241.62 C 392.63,241.85 393.35,242.09 394.09,242.34 C 394.84,242.60 395.69,242.88 396.41,243.16 C 397.12,243.43 397.77,243.71 398.37,243.99 C 398.96,244.27 399.50,244.56 399.98,244.85 C 400.45,245.14 400.87,245.44 401.23,245.73 C 401.60,246.03 401.90,246.33 402.14,246.64 C 402.38,246.95 402.57,247.26 402.70,247.57 C 402.82,247.88 402.89,248.20 402.90,248.52 C 402.91,248.85 402.86,249.17 402.75,249.50 C 402.64,249.83 402.42,250.19 402.25,250.50 C 402.08,250.81 401.92,251.11 401.76,251.38 C 401.60,251.66 401.43,251.91 401.27,252.15 C 401.11,252.38 400.95,252.60 400.80,252.80 C 400.64,252.99 400.48,253.17 400.33,253.33 C 400.17,253.49 400.02,253.62 399.87,253.74 C 399.71,253.86 399.56,253.96 399.41,254.04 C 399.26,254.12 399.12,254.18 398.97,254.22 C 398.82,254.26 398.67,254.26 398.53,254.28 C 398.39,254.31 398.27,254.33 398.15,254.37 C 398.03,254.40 397.92,254.44 397.82,254.48 C 397.72,254.52 397.63,254.56 397.55,254.61 C 397.46,254.66 397.39,254.71 397.33,254.77 C 397.26,254.82 397.21,254.88 397.16,254.95 C 397.12,255.01 397.08,255.08 397.05,255.15 C 397.03,255.22 397.01,255.30 397.00,255.38 C 396.99,255.45 396.98,255.55 397.00,255.62 C 397.02,255.70 397.05,255.78 397.09,255.84 C 397.14,255.91 397.20,255.97 397.28,256.03 C 397.36,256.09 397.45,256.14 397.56,256.19 C 397.67,256.23 397.80,256.28 397.94,256.31 C 398.08,256.35 398.23,256.38 398.41,256.41 C 398.58,256.43 398.77,256.45 398.97,256.47 C 399.17,256.48 399.39,256.49 399.62,256.50 C 399.86,256.51 400.11,256.48 400.38,256.50 C 400.64,256.52 400.91,256.55 401.19,256.59 C 401.47,256.64 401.76,256.70 402.06,256.78 C 402.36,256.86 402.68,256.95 403.00,257.06 C 403.32,257.17 403.66,257.30 404.00,257.44 C 404.34,257.58 404.70,257.73 405.06,257.91 C 405.43,258.08 405.80,258.27 406.19,258.47 C 406.57,258.67 406.97,258.89 407.38,259.12 C 407.78,259.36 408.22,259.64 408.62,259.88 C 409.03,260.11 409.41,260.33 409.78,260.53 C 410.15,260.73 410.51,260.92 410.84,261.09 C 411.18,261.27 411.51,261.42 411.81,261.56 C 412.12,261.70 412.41,261.83 412.69,261.94 C 412.96,262.05 413.22,262.14 413.47,262.22 C 413.71,262.30 413.94,262.36 414.16,262.41 C 414.37,262.45 414.57,262.48 414.75,262.50 C 414.93,262.52 415.08,262.49 415.25,262.50 C 415.42,262.51 415.58,262.53 415.75,262.56 C 415.92,262.59 416.08,262.64 416.25,262.69 C 416.42,262.74 416.58,262.80 416.75,262.88 C 416.92,262.95 417.08,263.03 417.25,263.12 C 417.42,263.22 417.58,263.32 417.75,263.44 C 417.92,263.55 418.08,263.68 418.25,263.81 C 418.42,263.95 418.58,264.09 418.75,264.25 C 418.92,264.41 419.08,264.59 419.25,264.75 C 419.42,264.91 419.58,265.05 419.75,265.19 C 419.92,265.32 420.08,265.45 420.25,265.56 C 420.42,265.68 420.58,265.78 420.75,265.88 C 420.92,265.97 421.08,266.05 421.25,266.12 C 421.42,266.20 421.58,266.26 421.75,266.31 C 421.92,266.36 422.08,266.41 422.25,266.44 C 422.42,266.47 422.58,266.49 422.75,266.50 C 422.92,266.51 423.08,266.49 423.25,266.50 C 423.42,266.51 423.61,266.53 423.80,266.56 C 423.99,266.59 424.18,266.64 424.39,266.69 C 424.60,266.74 424.81,266.80 425.03,266.88 C 425.25,266.95 425.48,267.03 425.72,267.12 C 425.96,267.22 426.20,267.32 426.45,267.44 C 426.71,267.55 426.97,267.68 427.23,267.81 C 427.50,267.95 427.78,268.09 428.06,268.25 C 428.35,268.41 428.66,268.58 428.94,268.75 C 429.22,268.92 429.49,269.09 429.74,269.26 C 430.00,269.43 430.24,269.60 430.48,269.77 C 430.71,269.95 430.93,270.12 431.14,270.30 C 431.35,270.47 431.55,270.65 431.73,270.83 C 431.92,271.01 432.10,271.19 432.26,271.37 C 432.42,271.55 432.57,271.73 432.71,271.91 C 432.85,272.10 432.98,272.28 433.09,272.47 C 433.21,272.65 433.35,272.84 433.41,273.03 C 433.47,273.22 433.48,273.42 433.45,273.62 C 433.42,273.83 433.35,274.04 433.23,274.25 C 433.12,274.46 432.96,274.68 432.75,274.91 C 432.54,275.13 432.29,275.36 432.00,275.59 C 431.71,275.83 431.37,276.07 430.98,276.31 C 430.60,276.56 430.17,276.81 429.70,277.06 C 429.23,277.32 428.72,277.58 428.16,277.84 C 427.60,278.11 426.92,278.39 426.34,278.66 C 425.77,278.92 425.23,279.17 424.73,279.41 C 424.22,279.66 423.75,279.89 423.30,280.12 C 422.86,280.34 422.45,280.56 422.08,280.77 C 421.70,280.97 421.36,281.17 421.05,281.36 C 420.74,281.55 420.46,281.73 420.21,281.90 C 419.96,282.07 419.75,282.23 419.57,282.38 C 419.39,282.54 419.24,282.68 419.12,282.81 C 419.01,282.95 418.97,283.07 418.88,283.19 C 418.78,283.30 418.68,283.41 418.58,283.52 C 418.47,283.62 418.36,283.71 418.23,283.80 C 418.11,283.88 417.98,283.96 417.84,284.03 C 417.71,284.10 417.56,284.16 417.41,284.22 C 417.25,284.27 417.09,284.32 416.92,284.36 C 416.75,284.40 416.58,284.43 416.39,284.45 C 416.21,284.48 416.01,284.49 415.81,284.50 C 415.61,284.51 415.39,284.49 415.19,284.50 C 414.99,284.51 414.79,284.52 414.61,284.55 C 414.42,284.57 414.25,284.60 414.08,284.64 C 413.91,284.68 413.75,284.73 413.59,284.78 C 413.44,284.84 413.29,284.90 413.16,284.97 C 413.02,285.04 412.89,285.12 412.77,285.20 C 412.64,285.29 412.53,285.38 412.42,285.48 C 412.32,285.59 412.22,285.70 412.12,285.81 C 412.03,285.93 411.97,286.06 411.88,286.19 C 411.78,286.32 411.66,286.45 411.53,286.58 C 411.40,286.71 411.26,286.85 411.09,286.98 C 410.93,287.12 410.76,287.26 410.56,287.41 C 410.37,287.55 410.16,287.70 409.94,287.84 C 409.71,287.99 409.47,288.14 409.22,288.30 C 408.96,288.45 408.69,288.61 408.41,288.77 C 408.12,288.92 407.82,289.09 407.50,289.25 C 407.18,289.41 406.83,289.59 406.50,289.75 C 406.17,289.91 405.85,290.05 405.53,290.19 C 405.21,290.32 404.90,290.45 404.59,290.56 C 404.29,290.68 403.98,290.78 403.69,290.88 C 403.39,290.97 403.10,291.05 402.81,291.12 C 402.53,291.20 402.24,291.26 401.97,291.31 C 401.69,291.36 401.42,291.41 401.16,291.44 C 400.89,291.47 400.63,291.49 400.38,291.50 C 400.12,291.51 399.85,291.50 399.62,291.50 C 399.40,291.50 399.20,291.51 399.02,291.52 C 398.85,291.54 398.70,291.55 398.57,291.57 C 398.44,291.59 398.34,291.61 398.27,291.64 C 398.19,291.67 398.14,291.70 398.11,291.73 C 398.08,291.77 398.08,291.81 398.10,291.85 C 398.12,291.89 398.17,291.94 398.24,291.99 C 398.31,292.04 398.41,292.10 398.53,292.16 C 398.65,292.21 398.82,292.26 398.97,292.34 C 399.12,292.42 399.26,292.52 399.41,292.63 C 399.56,292.75 399.71,292.88 399.87,293.02 C 400.02,293.17 400.17,293.33 400.33,293.52 C 400.48,293.70 400.64,293.89 400.80,294.11 C 400.95,294.32 401.11,294.56 401.27,294.80 C 401.43,295.05 401.60,295.32 401.76,295.60 C 401.92,295.88 402.08,296.18 402.25,296.50 C 402.42,296.82 402.64,297.17 402.75,297.50 C 402.86,297.83 402.90,298.16 402.88,298.49 C 402.87,298.82 402.79,299.15 402.65,299.48 C 402.51,299.80 402.31,300.13 402.05,300.45 C 401.79,300.78 401.46,301.10 401.08,301.42 C 400.69,301.74 400.25,302.06 399.74,302.38 C 399.24,302.70 398.67,303.02 398.04,303.34 C 397.41,303.65 396.72,303.97 395.97,304.28 C 395.22,304.60 394.37,304.93 393.53,305.22 C 392.69,305.51 391.82,305.77 390.93,306.01 C 390.04,306.25 389.11,306.46 388.16,306.65 C 387.21,306.84 386.24,307.00 385.23,307.14 C 384.23,307.28 383.20,307.39 382.14,307.48 C 381.08,307.57 380.00,307.64 378.88,307.68 C 377.77,307.72 376.63,307.74 375.46,307.73 C 374.29,307.72 373.10,307.68 371.88,307.62 C 370.65,307.57 369.30,307.46 368.12,307.38 C 366.95,307.29 365.84,307.19 364.80,307.09 C 363.77,306.98 362.81,306.87 361.91,306.76 C 361.02,306.64 360.20,306.52 359.45,306.39 C 358.70,306.26 358.03,306.13 357.42,305.98 C 356.82,305.84 356.28,305.69 355.82,305.54 C 355.36,305.38 354.97,305.22 354.65,305.05 C 354.33,304.89 354.08,304.71 353.91,304.53 C 353.73,304.35 353.68,304.16 353.59,303.97 C 353.50,303.77 353.43,303.57 353.37,303.37 C 353.31,303.16 353.26,302.95 353.23,302.73 C 353.19,302.51 353.18,302.28 353.17,302.05 C 353.17,301.81 353.18,301.57 353.20,301.33 C 353.23,301.08 353.27,300.83 353.32,300.57 C 353.37,300.31 353.44,300.05 353.52,299.77 C 353.61,299.50 353.70,299.22 353.81,298.94 C 353.92,298.65 354.08,298.33 354.19,298.06 C 354.30,297.79 354.39,297.54 354.46,297.30 C 354.54,297.07 354.59,296.86 354.63,296.66 C 354.67,296.47 354.70,296.30 354.70,296.14 C 354.71,295.99 354.70,295.85 354.67,295.73 C 354.64,295.62 354.60,295.52 354.54,295.45 C 354.48,295.37 354.40,295.31 354.30,295.27 C 354.21,295.24 354.10,295.22 353.97,295.22 C 353.84,295.22 353.68,295.25 353.53,295.28 C 353.38,295.31 353.23,295.35 353.08,295.39 C 352.92,295.43 352.77,295.49 352.61,295.55 C 352.45,295.61 352.29,295.67 352.12,295.75 C 351.96,295.83 351.79,295.91 351.62,296.00 C 351.46,296.09 351.28,296.19 351.11,296.30 C 350.93,296.40 350.76,296.52 350.58,296.64 C 350.40,296.76 350.22,296.89 350.03,297.03 C 349.85,297.17 349.64,297.33 349.47,297.47 C 349.30,297.61 349.15,297.75 349.02,297.88 C 348.89,298.02 348.79,298.15 348.70,298.27 C 348.61,298.40 348.54,298.52 348.48,298.64 C 348.43,298.76 348.40,298.87 348.39,298.98 C 348.38,299.10 348.39,299.20 348.41,299.30 C 348.44,299.41 348.49,299.51 348.55,299.60 C 348.62,299.70 348.71,299.79 348.81,299.88 C 348.92,299.96 349.09,300.04 349.19,300.12 C 349.29,300.21 349.37,300.29 349.42,300.38 C 349.48,300.46 349.51,300.54 349.52,300.62 C 349.52,300.71 349.51,300.79 349.47,300.88 C 349.43,300.96 349.37,301.04 349.28,301.12 C 349.20,301.21 349.09,301.29 348.95,301.38 C 348.82,301.46 348.66,301.54 348.48,301.62 C 348.30,301.71 348.10,301.79 347.88,301.88 C 347.65,301.96 347.38,302.02 347.12,302.12 C 346.87,302.23 346.62,302.37 346.36,302.53 C 346.10,302.69 345.84,302.88 345.58,303.09 C 345.32,303.31 345.05,303.55 344.78,303.81 C 344.51,304.08 344.24,304.37 343.97,304.69 C 343.70,305.01 343.42,305.35 343.14,305.72 C 342.86,306.09 342.58,306.48 342.30,306.91 C 342.01,307.33 341.73,307.78 341.44,308.25 C 341.15,308.72 340.84,309.27 340.56,309.75 C 340.28,310.23 340.02,310.69 339.77,311.12 C 339.51,311.56 339.27,311.98 339.05,312.38 C 338.82,312.77 338.61,313.15 338.41,313.50 C 338.21,313.85 338.02,314.19 337.84,314.50 C 337.67,314.81 337.51,315.10 337.36,315.38 C 337.21,315.65 337.08,315.90 336.95,316.12 C 336.83,316.35 336.72,316.56 336.62,316.75 C 336.53,316.94 336.45,317.07 336.38,317.25 C 336.30,317.43 336.22,317.61 336.16,317.81 C 336.09,318.01 336.03,318.22 335.97,318.44 C 335.91,318.66 335.86,318.89 335.81,319.12 C 335.77,319.36 335.72,319.61 335.69,319.88 C 335.65,320.14 335.62,320.41 335.59,320.69 C 335.57,320.97 335.55,321.26 335.53,321.56 C 335.52,321.86 335.51,322.18 335.50,322.50 C 335.49,322.82 335.51,323.17 335.50,323.50 C 335.49,323.83 335.46,324.15 335.43,324.48 C 335.39,324.80 335.35,325.12 335.29,325.43 C 335.23,325.74 335.16,326.05 335.08,326.36 C 335.00,326.67 334.90,326.97 334.80,327.27 C 334.69,327.56 334.57,327.86 334.45,328.15 C 334.32,328.44 334.18,328.73 334.02,329.01 C 333.87,329.29 333.71,329.57 333.53,329.84 C 333.36,330.12 333.17,330.40 332.97,330.66 C 332.77,330.91 332.57,331.15 332.35,331.37 C 332.14,331.59 331.91,331.79 331.68,331.98 C 331.45,332.16 331.20,332.33 330.95,332.48 C 330.70,332.64 330.44,332.77 330.17,332.89 C 329.90,333.01 329.62,333.11 329.34,333.20 C 329.05,333.28 328.75,333.35 328.45,333.40 C 328.14,333.45 327.82,333.48 327.50,333.50 Z" />
    </clipPath>
  </defs>
  <path d="M 327.50,333.50 C 327.18,333.52 326.83,333.52 326.50,333.50 C 326.17,333.48 325.86,333.44 325.55,333.38 C 325.24,333.31 324.93,333.23 324.64,333.12 C 324.35,333.02 324.06,332.90 323.78,332.75 C 323.50,332.60 323.23,332.44 322.97,332.25 C 322.71,332.06 322.45,331.85 322.20,331.62 C 321.96,331.40 321.72,331.15 321.48,330.88 C 321.25,330.60 321.03,330.31 320.81,330.00 C 320.60,329.69 320.39,329.31 320.19,329.00 C 319.98,328.69 319.77,328.39 319.57,328.12 C 319.37,327.84 319.16,327.59 318.96,327.35 C 318.76,327.12 318.56,326.90 318.36,326.70 C 318.16,326.51 317.96,326.33 317.77,326.17 C 317.57,326.01 317.37,325.88 317.18,325.76 C 316.99,325.64 316.79,325.54 316.60,325.46 C 316.41,325.38 316.22,325.32 316.03,325.28 C 315.84,325.24 315.63,325.25 315.47,325.22 C 315.31,325.19 315.18,325.16 315.07,325.12 C 314.96,325.08 314.89,325.03 314.84,324.98 C 314.79,324.92 314.76,324.86 314.77,324.80 C 314.77,324.73 314.80,324.66 314.86,324.58 C 314.92,324.50 315.00,324.41 315.12,324.32 C 315.23,324.23 315.37,324.13 315.54,324.02 C 315.71,323.92 315.90,323.81 316.12,323.69 C 316.35,323.57 316.65,323.48 316.88,323.31 C 317.10,323.15 317.30,322.94 317.48,322.70 C 317.65,322.45 317.80,322.16 317.93,321.84 C 318.06,321.51 318.16,321.14 318.23,320.73 C 318.31,320.33 318.36,319.88 318.39,319.39 C 318.42,318.90 318.42,318.37 318.40,317.80 C 318.38,317.24 318.33,316.63 318.26,315.98 C 318.19,315.33 318.09,314.64 317.97,313.91 C 317.85,313.18 317.68,312.31 317.53,311.59 C 317.39,310.88 317.24,310.23 317.10,309.63 C 316.96,309.04 316.82,308.50 316.68,308.02 C 316.54,307.55 316.40,307.13 316.27,306.77 C 316.13,306.40 315.99,306.10 315.86,305.86 C 315.73,305.62 315.59,305.43 315.46,305.30 C 315.33,305.18 315.20,305.11 315.07,305.10 C 314.94,305.09 314.81,305.14 314.69,305.25 C 314.56,305.36 314.51,305.60 314.31,305.75 C 314.11,305.90 313.84,306.04 313.48,306.16 C 313.13,306.28 312.71,306.38 312.20,306.47 C 311.70,306.56 311.12,306.63 310.47,306.69 C 309.82,306.74 309.09,306.79 308.28,306.81 C 307.48,306.84 306.60,306.85 305.64,306.84 C 304.68,306.84 303.65,306.82 302.55,306.78 C 301.44,306.74 300.26,306.69 299.00,306.62 C 297.74,306.56 296.33,306.45 295.00,306.38 C 293.67,306.30 292.35,306.25 291.03,306.20 C 289.71,306.16 288.40,306.13 287.09,306.11 C 285.79,306.09 284.48,306.09 283.19,306.09 C 281.89,306.10 280.60,306.12 279.31,306.16 C 278.03,306.19 276.74,306.24 275.47,306.30 C 274.19,306.36 272.92,306.43 271.66,306.52 C 270.39,306.60 269.13,306.70 267.88,306.81 C 266.62,306.92 265.31,307.09 264.12,307.19 C 262.94,307.28 261.82,307.34 260.77,307.38 C 259.71,307.41 258.72,307.41 257.80,307.38 C 256.87,307.34 256.01,307.28 255.22,307.19 C 254.42,307.09 253.70,306.97 253.03,306.81 C 252.37,306.66 251.77,306.47 251.23,306.25 C 250.70,306.03 250.23,305.78 249.83,305.50 C 249.42,305.22 249.09,304.91 248.81,304.56 C 248.54,304.22 248.47,303.82 248.19,303.44 C 247.91,303.05 247.56,302.66 247.14,302.27 C 246.72,301.87 246.23,301.46 245.67,301.05 C 245.11,300.63 244.48,300.21 243.78,299.78 C 243.08,299.35 242.31,298.91 241.47,298.47 C 240.63,298.02 239.72,297.57 238.73,297.11 C 237.75,296.65 236.70,296.18 235.58,295.70 C 234.46,295.23 233.26,294.74 232.00,294.25 C 230.74,293.76 229.26,293.23 228.00,292.75 C 226.74,292.27 225.57,291.80 224.47,291.34 C 223.37,290.89 222.35,290.45 221.41,290.03 C 220.46,289.61 219.60,289.20 218.81,288.81 C 218.03,288.42 217.32,288.05 216.69,287.69 C 216.06,287.33 215.51,286.98 215.03,286.66 C 214.56,286.33 214.16,286.02 213.84,285.72 C 213.53,285.42 213.29,285.14 213.12,284.88 C 212.96,284.61 213.01,284.36 212.88,284.12 C 212.74,283.89 212.54,283.66 212.30,283.45 C 212.05,283.24 211.75,283.04 211.39,282.86 C 211.03,282.67 210.62,282.50 210.16,282.34 C 209.69,282.18 209.17,282.04 208.59,281.91 C 208.02,281.77 207.39,281.65 206.70,281.55 C 206.02,281.44 205.28,281.35 204.48,281.27 C 203.69,281.18 202.84,281.12 201.94,281.06 C 201.03,281.01 199.99,280.98 199.06,280.94 C 198.14,280.89 197.24,280.84 196.38,280.78 C 195.51,280.72 194.68,280.66 193.88,280.59 C 193.07,280.53 192.30,280.45 191.56,280.38 C 190.82,280.30 190.11,280.21 189.44,280.12 C 188.76,280.04 188.11,279.94 187.50,279.84 C 186.89,279.74 186.30,279.64 185.75,279.53 C 185.20,279.42 184.68,279.31 184.19,279.19 C 183.70,279.07 183.28,278.92 182.81,278.81 C 182.35,278.70 181.87,278.61 181.39,278.53 C 180.91,278.45 180.42,278.39 179.92,278.34 C 179.42,278.30 178.92,278.27 178.41,278.25 C 177.89,278.23 177.37,278.23 176.84,278.25 C 176.32,278.27 175.78,278.30 175.23,278.34 C 174.69,278.39 174.14,278.45 173.58,278.53 C 173.02,278.61 172.45,278.70 171.88,278.81 C 171.30,278.92 170.68,279.09 170.12,279.19 C 169.57,279.29 169.05,279.36 168.55,279.41 C 168.06,279.46 167.60,279.49 167.16,279.49 C 166.73,279.49 166.33,279.47 165.95,279.42 C 165.58,279.37 165.24,279.30 164.92,279.20 C 164.61,279.11 164.32,278.98 164.07,278.84 C 163.82,278.69 163.59,278.52 163.40,278.32 C 163.20,278.12 163.04,277.90 162.91,277.66 C 162.77,277.41 162.68,277.11 162.59,276.84 C 162.50,276.57 162.42,276.30 162.36,276.03 C 162.29,275.76 162.24,275.49 162.20,275.22 C 162.16,274.95 162.14,274.68 162.12,274.41 C 162.11,274.14 162.11,273.86 162.12,273.59 C 162.14,273.32 162.16,273.05 162.20,272.78 C 162.24,272.51 162.29,272.24 162.36,271.97 C 162.42,271.70 162.50,271.43 162.59,271.16 C 162.68,270.89 162.77,270.59 162.91,270.34 C 163.04,270.10 163.20,269.87 163.40,269.66 C 163.59,269.46 163.82,269.28 164.07,269.12 C 164.32,268.96 164.61,268.82 164.92,268.70 C 165.24,268.59 165.58,268.49 165.95,268.42 C 166.33,268.35 166.73,268.30 167.16,268.27 C 167.60,268.25 168.06,268.24 168.55,268.26 C 169.05,268.27 169.57,268.31 170.12,268.38 C 170.68,268.44 171.30,268.55 171.88,268.62 C 172.45,268.70 173.03,268.75 173.59,268.80 C 174.16,268.84 174.72,268.87 175.28,268.89 C 175.84,268.91 176.39,268.91 176.94,268.91 C 177.48,268.90 178.03,268.88 178.56,268.84 C 179.10,268.81 179.63,268.76 180.16,268.70 C 180.68,268.64 181.20,268.57 181.72,268.48 C 182.23,268.40 182.74,268.30 183.25,268.19 C 183.76,268.08 184.23,267.93 184.75,267.81 C 185.27,267.70 185.82,267.59 186.39,267.48 C 186.96,267.38 187.55,267.29 188.17,267.20 C 188.79,267.12 189.43,267.04 190.09,266.97 C 190.76,266.90 191.45,266.84 192.16,266.78 C 192.87,266.73 193.60,266.68 194.36,266.64 C 195.12,266.60 195.90,266.57 196.70,266.55 C 197.51,266.52 198.34,266.51 199.19,266.50 C 200.04,266.49 200.98,266.52 201.81,266.50 C 202.64,266.48 203.43,266.45 204.17,266.39 C 204.91,266.34 205.61,266.26 206.27,266.17 C 206.92,266.08 207.53,265.97 208.09,265.84 C 208.66,265.72 209.18,265.57 209.66,265.41 C 210.13,265.24 210.57,265.06 210.95,264.86 C 211.34,264.66 211.68,264.44 211.98,264.20 C 212.28,263.97 212.54,263.71 212.75,263.44 C 212.96,263.16 213.04,262.86 213.25,262.56 C 213.46,262.27 213.72,261.97 214.03,261.67 C 214.34,261.37 214.69,261.07 215.09,260.77 C 215.49,260.46 215.94,260.15 216.44,259.84 C 216.93,259.53 217.47,259.22 218.06,258.91 C 218.65,258.59 219.29,258.27 219.97,257.95 C 220.65,257.63 221.38,257.31 222.16,256.98 C 222.93,256.66 223.76,256.33 224.62,256.00 C 225.49,255.67 226.51,255.32 227.38,255.00 C 228.24,254.68 229.06,254.37 229.83,254.08 C 230.60,253.78 231.32,253.50 231.98,253.23 C 232.65,252.97 233.27,252.71 233.84,252.47 C 234.41,252.23 234.93,252.00 235.41,251.78 C 235.88,251.57 236.30,251.36 236.67,251.17 C 237.04,250.98 237.37,250.80 237.64,250.64 C 237.91,250.48 238.14,250.33 238.31,250.19 C 238.49,250.05 238.55,249.93 238.69,249.81 C 238.82,249.69 238.96,249.58 239.11,249.47 C 239.26,249.36 239.41,249.26 239.58,249.16 C 239.74,249.06 239.91,248.96 240.09,248.88 C 240.27,248.79 240.46,248.70 240.66,248.62 C 240.85,248.55 241.05,248.47 241.27,248.41 C 241.48,248.34 241.70,248.28 241.92,248.22 C 242.15,248.16 242.38,248.11 242.62,248.06 C 242.87,248.02 243.13,248.00 243.38,247.94 C 243.62,247.88 243.87,247.79 244.11,247.69 C 244.35,247.58 244.59,247.46 244.83,247.31 C 245.07,247.17 245.30,247.00 245.53,246.81 C 245.76,246.62 245.99,246.42 246.22,246.19 C 246.45,245.96 246.67,245.71 246.89,245.44 C 247.11,245.17 247.33,244.88 247.55,244.56 C 247.76,244.25 247.98,243.92 248.19,243.56 C 248.40,243.21 248.54,242.78 248.81,242.44 C 249.08,242.09 249.42,241.78 249.81,241.50 C 250.21,241.22 250.67,240.97 251.19,240.75 C 251.71,240.53 252.29,240.34 252.94,240.19 C 253.58,240.03 254.29,239.91 255.06,239.81 C 255.83,239.72 256.67,239.66 257.56,239.62 C 258.46,239.59 259.42,239.59 260.44,239.62 C 261.46,239.66 262.54,239.72 263.69,239.81 C 264.83,239.91 266.10,240.08 267.31,240.19 C 268.53,240.30 269.75,240.40 270.98,240.48 C 272.22,240.57 273.46,240.64 274.70,240.70 C 275.95,240.76 277.21,240.81 278.47,240.84 C 279.73,240.88 281.00,240.90 282.28,240.91 C 283.56,240.91 284.85,240.91 286.14,240.89 C 287.43,240.87 288.74,240.84 290.05,240.80 C 291.36,240.75 292.67,240.70 294.00,240.62 C 295.33,240.55 296.74,240.44 298.00,240.38 C 299.26,240.31 300.45,240.26 301.56,240.22 C 302.68,240.18 303.72,240.16 304.69,240.16 C 305.66,240.15 306.55,240.16 307.38,240.19 C 308.20,240.21 308.95,240.26 309.62,240.31 C 310.30,240.37 310.91,240.44 311.44,240.53 C 311.97,240.62 312.43,240.72 312.81,240.84 C 313.20,240.96 313.51,241.10 313.75,241.25 C 313.99,241.40 314.09,241.62 314.25,241.75 C 314.41,241.88 314.57,241.98 314.73,242.04 C 314.88,242.10 315.03,242.13 315.18,242.12 C 315.33,242.11 315.47,242.06 315.61,241.98 C 315.75,241.90 315.88,241.79 316.02,241.64 C 316.15,241.49 316.27,241.31 316.40,241.09 C 316.52,240.87 316.64,240.61 316.76,240.32 C 316.87,240.03 316.99,239.70 317.09,239.34 C 317.20,238.98 317.31,238.55 317.41,238.16 C 317.51,237.76 317.60,237.37 317.70,236.98 C 317.79,236.58 317.88,236.19 317.96,235.80 C 318.05,235.42 318.13,235.03 318.20,234.64 C 318.28,234.25 318.35,233.87 318.42,233.48 C 318.49,233.10 318.56,232.72 318.62,232.34 C 318.68,231.95 318.74,231.57 318.79,231.20 C 318.84,230.82 318.89,230.44 318.94,230.06 C 318.98,229.69 319.04,229.30 319.06,228.94 C 319.09,228.58 319.09,228.23 319.08,227.91 C 319.07,227.58 319.03,227.27 318.98,226.97 C 318.93,226.67 318.87,226.39 318.78,226.12 C 318.70,225.86 318.59,225.61 318.47,225.38 C 318.35,225.14 318.21,224.92 318.05,224.72 C 317.89,224.52 317.71,224.33 317.52,224.16 C 317.32,223.98 317.11,223.83 316.88,223.69 C 316.64,223.55 316.35,223.43 316.12,223.31 C 315.90,223.19 315.71,223.08 315.55,222.98 C 315.39,222.87 315.26,222.77 315.16,222.68 C 315.06,222.59 314.99,222.50 314.95,222.42 C 314.91,222.34 314.90,222.27 314.92,222.20 C 314.94,222.14 314.99,222.08 315.07,222.02 C 315.15,221.97 315.26,221.92 315.40,221.88 C 315.54,221.84 315.71,221.81 315.91,221.78 C 316.11,221.75 316.37,221.76 316.59,221.72 C 316.82,221.68 317.05,221.62 317.27,221.54 C 317.50,221.46 317.72,221.36 317.95,221.24 C 318.17,221.12 318.39,220.99 318.61,220.83 C 318.83,220.67 319.05,220.49 319.27,220.30 C 319.48,220.10 319.70,219.88 319.91,219.65 C 320.13,219.41 320.34,219.16 320.55,218.88 C 320.77,218.61 320.98,218.31 321.19,218.00 C 321.40,217.69 321.60,217.31 321.81,217.00 C 322.03,216.69 322.24,216.40 322.47,216.12 C 322.69,215.85 322.92,215.60 323.16,215.38 C 323.39,215.15 323.63,214.94 323.88,214.75 C 324.12,214.56 324.37,214.40 324.62,214.25 C 324.88,214.10 325.14,213.98 325.41,213.88 C 325.67,213.77 325.94,213.69 326.22,213.62 C 326.49,213.56 326.78,213.52 327.06,213.50 C 327.35,213.48 327.65,213.48 327.94,213.50 C 328.22,213.52 328.50,213.55 328.77,213.60 C 329.05,213.65 329.31,213.72 329.57,213.80 C 329.83,213.89 330.08,213.99 330.33,214.11 C 330.57,214.23 330.81,214.36 331.05,214.52 C 331.28,214.67 331.51,214.84 331.73,215.02 C 331.95,215.21 332.16,215.41 332.37,215.63 C 332.57,215.85 332.77,216.09 332.97,216.34 C 333.16,216.60 333.36,216.88 333.53,217.16 C 333.71,217.43 333.87,217.71 334.02,217.99 C 334.18,218.27 334.32,218.56 334.45,218.85 C 334.57,219.14 334.69,219.44 334.80,219.73 C 334.90,220.03 335.00,220.33 335.08,220.64 C 335.16,220.95 335.23,221.26 335.29,221.57 C 335.35,221.88 335.39,222.20 335.43,222.52 C 335.46,222.85 335.49,223.17 335.50,223.50 C 335.51,223.83 335.49,224.17 335.50,224.50 C 335.51,224.83 335.52,225.15 335.55,225.47 C 335.57,225.79 335.60,226.10 335.64,226.41 C 335.68,226.71 335.73,227.02 335.78,227.31 C 335.84,227.61 335.90,227.90 335.97,228.19 C 336.04,228.47 336.12,228.76 336.20,229.03 C 336.29,229.31 336.38,229.58 336.48,229.84 C 336.59,230.11 336.70,230.37 336.81,230.62 C 336.93,230.88 337.05,231.11 337.19,231.38 C 337.32,231.64 337.46,231.91 337.61,232.19 C 337.76,232.47 337.91,232.76 338.08,233.06 C 338.24,233.36 338.41,233.68 338.59,234.00 C 338.77,234.32 338.96,234.66 339.16,235.00 C 339.35,235.34 339.55,235.70 339.77,236.06 C 339.98,236.43 340.20,236.80 340.42,237.19 C 340.65,237.57 340.88,237.97 341.12,238.38 C 341.37,238.78 341.62,239.23 341.88,239.62 C 342.12,240.02 342.38,240.40 342.62,240.77 C 342.88,241.13 343.12,241.47 343.38,241.80 C 343.62,242.12 343.88,242.43 344.12,242.72 C 344.38,243.01 344.62,243.28 344.88,243.53 C 345.12,243.78 345.38,244.02 345.62,244.23 C 345.88,244.45 346.12,244.65 346.38,244.83 C 346.62,245.01 346.88,245.17 347.12,245.31 C 347.38,245.46 347.65,245.57 347.88,245.69 C 348.10,245.81 348.31,245.92 348.49,246.02 C 348.68,246.13 348.84,246.23 348.98,246.32 C 349.12,246.41 349.23,246.50 349.33,246.58 C 349.42,246.66 349.50,246.73 349.55,246.80 C 349.60,246.86 349.63,246.92 349.63,246.98 C 349.64,247.03 349.62,247.08 349.59,247.12 C 349.55,247.16 349.49,247.19 349.41,247.22 C 349.32,247.25 349.19,247.26 349.09,247.28 C 349.00,247.31 348.90,247.33 348.82,247.37 C 348.74,247.40 348.66,247.44 348.59,247.48 C 348.51,247.52 348.45,247.56 348.39,247.61 C 348.33,247.66 348.28,247.71 348.23,247.77 C 348.19,247.82 348.15,247.88 348.12,247.95 C 348.08,248.01 348.06,248.08 348.04,248.15 C 348.02,248.22 348.01,248.30 348.00,248.38 C 347.99,248.45 347.98,248.54 348.00,248.62 C 348.02,248.71 348.05,248.80 348.09,248.89 C 348.14,248.98 348.20,249.08 348.28,249.17 C 348.36,249.27 348.45,249.37 348.56,249.47 C 348.67,249.57 348.80,249.67 348.94,249.78 C 349.08,249.89 349.23,250.00 349.41,250.11 C 349.58,250.22 349.77,250.34 349.97,250.45 C 350.17,250.57 350.39,250.69 350.62,250.81 C 350.86,250.93 351.14,251.07 351.38,251.19 C 351.61,251.30 351.84,251.40 352.05,251.49 C 352.27,251.58 352.47,251.66 352.66,251.73 C 352.86,251.79 353.04,251.85 353.20,251.89 C 353.37,251.93 353.53,251.96 353.67,251.98 C 353.82,252.00 353.95,252.01 354.07,252.01 C 354.19,252.00 354.30,251.99 354.40,251.96 C 354.50,251.93 354.58,251.89 354.66,251.84 C 354.73,251.79 354.79,251.73 354.84,251.66 C 354.89,251.58 354.93,251.50 354.96,251.41 C 354.99,251.32 355.00,251.23 355.01,251.12 C 355.01,251.01 355.00,250.89 354.98,250.77 C 354.96,250.64 354.93,250.50 354.89,250.36 C 354.85,250.21 354.79,250.06 354.73,249.90 C 354.66,249.74 354.58,249.56 354.49,249.38 C 354.40,249.20 354.30,249.01 354.19,248.81 C 354.07,248.61 353.93,248.39 353.81,248.19 C 353.70,247.98 353.59,247.79 353.48,247.59 C 353.38,247.40 353.29,247.21 353.20,247.03 C 353.12,246.85 353.04,246.67 352.97,246.50 C 352.90,246.33 352.84,246.16 352.78,246.00 C 352.73,245.84 352.68,245.68 352.64,245.53 C 352.60,245.38 352.57,245.23 352.55,245.09 C 352.52,244.95 352.51,244.82 352.50,244.69 C 352.49,244.56 352.49,244.44 352.50,244.31 C 352.51,244.19 352.52,244.07 352.54,243.95 C 352.56,243.82 352.58,243.70 352.62,243.59 C 352.65,243.47 352.69,243.35 352.73,243.23 C 352.78,243.12 352.83,243.00 352.89,242.89 C 352.95,242.78 353.01,242.67 353.09,242.55 C 353.16,242.44 353.24,242.33 353.32,242.23 C 353.40,242.12 353.50,242.01 353.59,241.91 C 353.69,241.80 353.76,241.69 353.91,241.59 C 354.05,241.50 354.24,241.40 354.46,241.32 C 354.69,241.24 354.95,241.16 355.26,241.09 C 355.56,241.01 355.91,240.95 356.30,240.89 C 356.68,240.83 357.11,240.78 357.58,240.73 C 358.05,240.69 358.55,240.65 359.10,240.62 C 359.65,240.58 360.24,240.56 360.87,240.54 C 361.50,240.52 362.17,240.51 362.88,240.50 C 363.58,240.49 364.41,240.51 365.12,240.50 C 365.84,240.49 366.52,240.48 367.17,240.47 C 367.82,240.45 368.43,240.43 369.02,240.41 C 369.60,240.38 370.14,240.35 370.66,240.31 C 371.17,240.28 371.65,240.23 372.09,240.19 C 372.54,240.14 372.95,240.09 373.33,240.03 C 373.71,239.97 374.05,239.91 374.36,239.84 C 374.67,239.78 374.95,239.70 375.19,239.62 C 375.43,239.55 375.60,239.45 375.81,239.38 C 376.03,239.30 376.25,239.23 376.48,239.17 C 376.72,239.11 376.96,239.06 377.20,239.02 C 377.45,238.97 377.71,238.93 377.97,238.91 C 378.23,238.88 378.50,238.86 378.78,238.84 C 379.06,238.83 379.35,238.83 379.64,238.83 C 379.93,238.83 380.24,238.84 380.55,238.86 C 380.86,238.88 381.17,238.90 381.50,238.94 C 381.83,238.97 382.14,239.01 382.50,239.06 C 382.86,239.12 383.25,239.19 383.66,239.27 C 384.08,239.36 384.52,239.46 384.99,239.57 C 385.46,239.68 385.96,239.81 386.48,239.95 C 387.01,240.10 387.56,240.25 388.14,240.42 C 388.72,240.59 389.33,240.78 389.96,240.98 C 390.60,241.18 391.26,241.39 391.95,241.62 C 392.63,241.85 393.35,242.09 394.09,242.34 C 394.84,242.60 395.69,242.88 396.41,243.16 C 397.12,243.43 397.77,243.71 398.37,243.99 C 398.96,244.27 399.50,244.56 399.98,244.85 C 400.45,245.14 400.87,245.44 401.23,245.73 C 401.60,246.03 401.90,246.33 402.14,246.64 C 402.38,246.95 402.57,247.26 402.70,247.57 C 402.82,247.88 402.89,248.20 402.90,248.52 C 402.91,248.85 402.86,249.17 402.75,249.50 C 402.64,249.83 402.42,250.19 402.25,250.50 C 402.08,250.81 401.92,251.11 401.76,251.38 C 401.60,251.66 401.43,251.91 401.27,252.15 C 401.11,252.38 400.95,252.60 400.80,252.80 C 400.64,252.99 400.48,253.17 400.33,253.33 C 400.17,253.49 400.02,253.62 399.87,253.74 C 399.71,253.86 399.56,253.96 399.41,254.04 C 399.26,254.12 399.12,254.18 398.97,254.22 C 398.82,254.26 398.67,254.26 398.53,254.28 C 398.39,254.31 398.27,254.33 398.15,254.37 C 398.03,254.40 397.92,254.44 397.82,254.48 C 397.72,254.52 397.63,254.56 397.55,254.61 C 397.46,254.66 397.39,254.71 397.33,254.77 C 397.26,254.82 397.21,254.88 397.16,254.95 C 397.12,255.01 397.08,255.08 397.05,255.15 C 397.03,255.22 397.01,255.30 397.00,255.38 C 396.99,255.45 396.98,255.55 397.00,255.62 C 397.02,255.70 397.05,255.78 397.09,255.84 C 397.14,255.91 397.20,255.97 397.28,256.03 C 397.36,256.09 397.45,256.14 397.56,256.19 C 397.67,256.23 397.80,256.28 397.94,256.31 C 398.08,256.35 398.23,256.38 398.41,256.41 C 398.58,256.43 398.77,256.45 398.97,256.47 C 399.17,256.48 399.39,256.49 399.62,256.50 C 399.86,256.51 400.11,256.48 400.38,256.50 C 400.64,256.52 400.91,256.55 401.19,256.59 C 401.47,256.64 401.76,256.70 402.06,256.78 C 402.36,256.86 402.68,256.95 403.00,257.06 C 403.32,257.17 403.66,257.30 404.00,257.44 C 404.34,257.58 404.70,257.73 405.06,257.91 C 405.43,258.08 405.80,258.27 406.19,258.47 C 406.57,258.67 406.97,258.89 407.38,259.12 C 407.78,259.36 408.22,259.64 408.62,259.88 C 409.03,260.11 409.41,260.33 409.78,260.53 C 410.15,260.73 410.51,260.92 410.84,261.09 C 411.18,261.27 411.51,261.42 411.81,261.56 C 412.12,261.70 412.41,261.83 412.69,261.94 C 412.96,262.05 413.22,262.14 413.47,262.22 C 413.71,262.30 413.94,262.36 414.16,262.41 C 414.37,262.45 414.57,262.48 414.75,262.50 C 414.93,262.52 415.08,262.49 415.25,262.50 C 415.42,262.51 415.58,262.53 415.75,262.56 C 415.92,262.59 416.08,262.64 416.25,262.69 C 416.42,262.74 416.58,262.80 416.75,262.88 C 416.92,262.95 417.08,263.03 417.25,263.12 C 417.42,263.22 417.58,263.32 417.75,263.44 C 417.92,263.55 418.08,263.68 418.25,263.81 C 418.42,263.95 418.58,264.09 418.75,264.25 C 418.92,264.41 419.08,264.59 419.25,264.75 C 419.42,264.91 419.58,265.05 419.75,265.19 C 419.92,265.32 420.08,265.45 420.25,265.56 C 420.42,265.68 420.58,265.78 420.75,265.88 C 420.92,265.97 421.08,266.05 421.25,266.12 C 421.42,266.20 421.58,266.26 421.75,266.31 C 421.92,266.36 422.08,266.41 422.25,266.44 C 422.42,266.47 422.58,266.49 422.75,266.50 C 422.92,266.51 423.08,266.49 423.25,266.50 C 423.42,266.51 423.61,266.53 423.80,266.56 C 423.99,266.59 424.18,266.64 424.39,266.69 C 424.60,266.74 424.81,266.80 425.03,266.88 C 425.25,266.95 425.48,267.03 425.72,267.12 C 425.96,267.22 426.20,267.32 426.45,267.44 C 426.71,267.55 426.97,267.68 427.23,267.81 C 427.50,267.95 427.78,268.09 428.06,268.25 C 428.35,268.41 428.66,268.58 428.94,268.75 C 429.22,268.92 429.49,269.09 429.74,269.26 C 430.00,269.43 430.24,269.60 430.48,269.77 C 430.71,269.95 430.93,270.12 431.14,270.30 C 431.35,270.47 431.55,270.65 431.73,270.83 C 431.92,271.01 432.10,271.19 432.26,271.37 C 432.42,271.55 432.57,271.73 432.71,271.91 C 432.85,272.10 432.98,272.28 433.09,272.47 C 433.21,272.65 433.35,272.84 433.41,273.03 C 433.47,273.22 433.48,273.42 433.45,273.62 C 433.42,273.83 433.35,274.04 433.23,274.25 C 433.12,274.46 432.96,274.68 432.75,274.91 C 432.54,275.13 432.29,275.36 432.00,275.59 C 431.71,275.83 431.37,276.07 430.98,276.31 C 430.60,276.56 430.17,276.81 429.70,277.06 C 429.23,277.32 428.72,277.58 428.16,277.84 C 427.60,278.11 426.92,278.39 426.34,278.66 C 425.77,278.92 425.23,279.17 424.73,279.41 C 424.22,279.66 423.75,279.89 423.30,280.12 C 422.86,280.34 422.45,280.56 422.08,280.77 C 421.70,280.97 421.36,281.17 421.05,281.36 C 420.74,281.55 420.46,281.73 420.21,281.90 C 419.96,282.07 419.75,282.23 419.57,282.38 C 419.39,282.54 419.24,282.68 419.12,282.81 C 419.01,282.95 418.97,283.07 418.88,283.19 C 418.78,283.30 418.68,283.41 418.58,283.52 C 418.47,283.62 418.36,283.71 418.23,283.80 C 418.11,283.88 417.98,283.96 417.84,284.03 C 417.71,284.10 417.56,284.16 417.41,284.22 C 417.25,284.27 417.09,284.32 416.92,284.36 C 416.75,284.40 416.58,284.43 416.39,284.45 C 416.21,284.48 416.01,284.49 415.81,284.50 C 415.61,284.51 415.39,284.49 415.19,284.50 C 414.99,284.51 414.79,284.52 414.61,284.55 C 414.42,284.57 414.25,284.60 414.08,284.64 C 413.91,284.68 413.75,284.73 413.59,284.78 C 413.44,284.84 413.29,284.90 413.16,284.97 C 413.02,285.04 412.89,285.12 412.77,285.20 C 412.64,285.29 412.53,285.38 412.42,285.48 C 412.32,285.59 412.22,285.70 412.12,285.81 C 412.03,285.93 411.97,286.06 411.88,286.19 C 411.78,286.32 411.66,286.45 411.53,286.58 C 411.40,286.71 411.26,286.85 411.09,286.98 C 410.93,287.12 410.76,287.26 410.56,287.41 C 410.37,287.55 410.16,287.70 409.94,287.84 C 409.71,287.99 409.47,288.14 409.22,288.30 C 408.96,288.45 408.69,288.61 408.41,288.77 C 408.12,288.92 407.82,289.09 407.50,289.25 C 407.18,289.41 406.83,289.59 406.50,289.75 C 406.17,289.91 405.85,290.05 405.53,290.19 C 405.21,290.32 404.90,290.45 404.59,290.56 C 404.29,290.68 403.98,290.78 403.69,290.88 C 403.39,290.97 403.10,291.05 402.81,291.12 C 402.53,291.20 402.24,291.26 401.97,291.31 C 401.69,291.36 401.42,291.41 401.16,291.44 C 400.89,291.47 400.63,291.49 400.38,291.50 C 400.12,291.51 399.85,291.50 399.62,291.50 C 399.40,291.50 399.20,291.51 399.02,291.52 C 398.85,291.54 398.70,291.55 398.57,291.57 C 398.44,291.59 398.34,291.61 398.27,291.64 C 398.19,291.67 398.14,291.70 398.11,291.73 C 398.08,291.77 398.08,291.81 398.10,291.85 C 398.12,291.89 398.17,291.94 398.24,291.99 C 398.31,292.04 398.41,292.10 398.53,292.16 C 398.65,292.21 398.82,292.26 398.97,292.34 C 399.12,292.42 399.26,292.52 399.41,292.63 C 399.56,292.75 399.71,292.88 399.87,293.02 C 400.02,293.17 400.17,293.33 400.33,293.52 C 400.48,293.70 400.64,293.89 400.80,294.11 C 400.95,294.32 401.11,294.56 401.27,294.80 C 401.43,295.05 401.60,295.32 401.76,295.60 C 401.92,295.88 402.08,296.18 402.25,296.50 C 402.42,296.82 402.64,297.17 402.75,297.50 C 402.86,297.83 402.90,298.16 402.88,298.49 C 402.87,298.82 402.79,299.15 402.65,299.48 C 402.51,299.80 402.31,300.13 402.05,300.45 C 401.79,300.78 401.46,301.10 401.08,301.42 C 400.69,301.74 400.25,302.06 399.74,302.38 C 399.24,302.70 398.67,303.02 398.04,303.34 C 397.41,303.65 396.72,303.97 395.97,304.28 C 395.22,304.60 394.37,304.93 393.53,305.22 C 392.69,305.51 391.82,305.77 390.93,306.01 C 390.04,306.25 389.11,306.46 388.16,306.65 C 387.21,306.84 386.24,307.00 385.23,307.14 C 384.23,307.28 383.20,307.39 382.14,307.48 C 381.08,307.57 380.00,307.64 378.88,307.68 C 377.77,307.72 376.63,307.74 375.46,307.73 C 374.29,307.72 373.10,307.68 371.88,307.62 C 370.65,307.57 369.30,307.46 368.12,307.38 C 366.95,307.29 365.84,307.19 364.80,307.09 C 363.77,306.98 362.81,306.87 361.91,306.76 C 361.02,306.64 360.20,306.52 359.45,306.39 C 358.70,306.26 358.03,306.13 357.42,305.98 C 356.82,305.84 356.28,305.69 355.82,305.54 C 355.36,305.38 354.97,305.22 354.65,305.05 C 354.33,304.89 354.08,304.71 353.91,304.53 C 353.73,304.35 353.68,304.16 353.59,303.97 C 353.50,303.77 353.43,303.57 353.37,303.37 C 353.31,303.16 353.26,302.95 353.23,302.73 C 353.19,302.51 353.18,302.28 353.17,302.05 C 353.17,301.81 353.18,301.57 353.20,301.33 C 353.23,301.08 353.27,300.83 353.32,300.57 C 353.37,300.31 353.44,300.05 353.52,299.77 C 353.61,299.50 353.70,299.22 353.81,298.94 C 353.92,298.65 354.08,298.33 354.19,298.06 C 354.30,297.79 354.39,297.54 354.46,297.30 C 354.54,297.07 354.59,296.86 354.63,296.66 C 354.67,296.47 354.70,296.30 354.70,296.14 C 354.71,295.99 354.70,295.85 354.67,295.73 C 354.64,295.62 354.60,295.52 354.54,295.45 C 354.48,295.37 354.40,295.31 354.30,295.27 C 354.21,295.24 354.10,295.22 353.97,295.22 C 353.84,295.22 353.68,295.25 353.53,295.28 C 353.38,295.31 353.23,295.35 353.08,295.39 C 352.92,295.43 352.77,295.49 352.61,295.55 C 352.45,295.61 352.29,295.67 352.12,295.75 C 351.96,295.83 351.79,295.91 351.62,296.00 C 351.46,296.09 351.28,296.19 351.11,296.30 C 350.93,296.40 350.76,296.52 350.58,296.64 C 350.40,296.76 350.22,296.89 350.03,297.03 C 349.85,297.17 349.64,297.33 349.47,297.47 C 349.30,297.61 349.15,297.75 349.02,297.88 C 348.89,298.02 348.79,298.15 348.70,298.27 C 348.61,298.40 348.54,298.52 348.48,298.64 C 348.43,298.76 348.40,298.87 348.39,298.98 C 348.38,299.10 348.39,299.20 348.41,299.30 C 348.44,299.41 348.49,299.51 348.55,299.60 C 348.62,299.70 348.71,299.79 348.81,299.88 C 348.92,299.96 349.09,300.04 349.19,300.12 C 349.29,300.21 349.37,300.29 349.42,300.38 C 349.48,300.46 349.51,300.54 349.52,300.62 C 349.52,300.71 349.51,300.79 349.47,300.88 C 349.43,300.96 349.37,301.04 349.28,301.12 C 349.20,301.21 349.09,301.29 348.95,301.38 C 348.82,301.46 348.66,301.54 348.48,301.62 C 348.30,301.71 348.10,301.79 347.88,301.88 C 347.65,301.96 347.38,302.02 347.12,302.12 C 346.87,302.23 346.62,302.37 346.36,302.53 C 346.10,302.69 345.84,302.88 345.58,303.09 C 345.32,303.31 345.05,303.55 344.78,303.81 C 344.51,304.08 344.24,304.37 343.97,304.69 C 343.70,305.01 343.42,305.35 343.14,305.72 C 342.86,306.09 342.58,306.48 342.30,306.91 C 342.01,307.33 341.73,307.78 341.44,308.25 C 341.15,308.72 340.84,309.27 340.56,309.75 C 340.28,310.23 340.02,310.69 339.77,311.12 C 339.51,311.56 339.27,311.98 339.05,312.38 C 338.82,312.77 338.61,313.15 338.41,313.50 C 338.21,313.85 338.02,314.19 337.84,314.50 C 337.67,314.81 337.51,315.10 337.36,315.38 C 337.21,315.65 337.08,315.90 336.95,316.12 C 336.83,316.35 336.72,316.56 336.62,316.75 C 336.53,316.94 336.45,317.07 336.38,317.25 C 336.30,317.43 336.22,317.61 336.16,317.81 C 336.09,318.01 336.03,318.22 335.97,318.44 C 335.91,318.66 335.86,318.89 335.81,319.12 C 335.77,319.36 335.72,319.61 335.69,319.88 C 335.65,320.14 335.62,320.41 335.59,320.69 C 335.57,320.97 335.55,321.26 335.53,321.56 C 335.52,321.86 335.51,322.18 335.50,322.50 C 335.49,322.82 335.51,323.17 335.50,323.50 C 335.49,323.83 335.46,324.15 335.43,324.48 C 335.39,324.80 335.35,325.12 335.29,325.43 C 335.23,325.74 335.16,326.05 335.08,326.36 C 335.00,326.67 334.90,326.97 334.80,327.27 C 334.69,327.56 334.57,327.86 334.45,328.15 C 334.32,328.44 334.18,328.73 334.02,329.01 C 333.87,329.29 333.71,329.57 333.53,329.84 C 333.36,330.12 333.17,330.40 332.97,330.66 C 332.77,330.91 332.57,331.15 332.35,331.37 C 332.14,331.59 331.91,331.79 331.68,331.98 C 331.45,332.16 331.20,332.33 330.95,332.48 C 330.70,332.64 330.44,332.77 330.17,332.89 C 329.90,333.01 329.62,333.11 329.34,333.20 C 329.05,333.28 328.75,333.35 328.45,333.40 C 328.14,333.45 327.82,333.48 327.50,333.50 Z" stroke="none" fill="currentColor" opacity="0.11" />
  <path d="M388.78,264.22L370.41,264.22 M388.77,264.08L370.41,264.08 M388.79,264.32L370.41,264.32 M388.76,264.02L370.41,264.02 M389.03,264.59L370.79,264.59 M370.79,264.46L389.01,264.46 M370.79,264.40L389.01,264.40 M370.79,264.70L389.03,264.70 M370.79,265.08L395.40,265.08 M370.79,264.98L395.40,264.98 M370.79,264.84L395.40,264.84 M370.79,264.78L395.40,264.78 M388.78,284.09L370.41,284.09 M388.79,283.98L370.41,283.99 M388.77,284.23L370.41,284.23 M388.77,284.29L370.41,284.29 M389.03,283.71L370.79,283.72 M389.02,283.85L370.79,283.85 M370.79,283.91L389.01,283.91 M370.79,283.60L389.03,283.60 M395.40,283.22L370.79,283.23 M370.79,283.33L395.40,283.33 M370.79,283.47L395.40,283.47 M370.79,283.53L395.40,283.53 M312.79,258.61L302.20,254.01 M312.79,258.61L302.20,254.01 M180.57,269.18L193.28,267.26 M285.85,291.45L296.76,290.68 M285.85,256.98L296.76,257.75 M302.53,258.58L302.53,291.53 M301.91,291.48L301.91,258.52 M301.29,291.43L301.29,258.46 M301.03,291.41L301.03,258.43 M320.14,254.88L306.05,254.80 M320.10,254.62L306.04,254.54 M262.74,245.40L249.79,250.76 M251.68,258.62L242.01,261.60 M251.62,261.53L266.29,258.56 M249.79,297.68L262.74,303.03 M294.52,306.42L265.59,307.19 M265.59,306.30L294.47,305.49 M251.68,289.81L242.01,286.83 M251.62,286.90L266.29,289.87 M278.59,292.75L267.16,292.88 M278.66,292.66L267.14,292.84 M232.98,282.14L245.41,285.10 M292.22,297.70L310.70,297.77 M292.06,250.62L310.90,250.56 M282.92,283.50L274.19,278.93 M282.94,283.45L274.21,278.89 M274.31,278.69L283.04,283.25 M310.94,297.76L292.08,297.86 M310.94,297.66L292.08,297.76 M315.63,295.98L286.79,296.48 M315.63,252.35L286.79,251.85 M286.79,251.85L315.63,252.35 M285.73,267.33L264.61,269.52 M265.14,262.62L279.91,264.29 M265.14,262.70L279.91,264.47 M330.12,299.23L344.19,298.36 M330.32,299.54L344.36,298.69 M330.31,299.51L344.36,298.66 M330.30,299.44L344.35,298.59 M344.36,249.64L330.32,248.79 M344.36,249.70L330.31,248.85 M321.55,276.77L338.17,275.38 M316.16,269.43L328.30,269.33 M316.16,269.47L328.30,269.38 M316.16,269.53L328.30,269.44 M313.38,276.79L336.18,276.79 M336.18,271.54L313.38,271.54 M348.92,286.19L336.05,286.19 M348.92,262.14L336.05,262.14 M330.99,280.06L341.20,280.07 M332.28,257.33L347.51,257.30 M404.12,247.12L381.19,246.87 M402.87,247.19L381.90,246.60 M360.66,246.72L374.99,246.77 M404.12,301.14L381.19,301.39 M402.87,301.07L381.90,301.66 M360.66,301.54L374.99,301.49 M404.12,247.12L381.19,246.87 M402.87,247.19L381.90,246.60 M360.66,246.72L374.99,246.77 M404.12,301.14L381.19,301.39 M402.87,301.07L381.90,301.66 M360.66,301.54L374.99,301.49 M333.52,281.91L346.91,281.92 M333.52,281.92L346.91,281.93 M333.52,281.85L346.91,281.87 M346.92,281.76L333.51,281.75 M346.93,281.68L333.51,281.66 M332.91,291.02L346.30,291.00 M332.90,291.00L346.30,290.98 M332.90,290.91L346.31,290.90 M332.89,290.81L346.31,290.79 M333.52,266.42L346.91,266.40 M333.52,266.41L346.91,266.39 M333.52,266.48L346.91,266.46 M346.92,266.56L333.38,266.56 M346.93,266.65L333.51,266.66 M332.89,257.52L346.31,257.53 M332.90,257.41L346.31,257.43 M332.90,257.33L346.30,257.34 M332.91,257.31L346.30,257.32" stroke="currentColor" stroke-width="0.6" stroke-linecap="round" fill="none" opacity="0.55" clip-path="url(#hull-clip)" filter="url(#glow)" />
  <path d="M 327.50,333.50 C 327.18,333.52 326.83,333.52 326.50,333.50 C 326.17,333.48 325.86,333.44 325.55,333.38 C 325.24,333.31 324.93,333.23 324.64,333.12 C 324.35,333.02 324.06,332.90 323.78,332.75 C 323.50,332.60 323.23,332.44 322.97,332.25 C 322.71,332.06 322.45,331.85 322.20,331.62 C 321.96,331.40 321.72,331.15 321.48,330.88 C 321.25,330.60 321.03,330.31 320.81,330.00 C 320.60,329.69 320.39,329.31 320.19,329.00 C 319.98,328.69 319.77,328.39 319.57,328.12 C 319.37,327.84 319.16,327.59 318.96,327.35 C 318.76,327.12 318.56,326.90 318.36,326.70 C 318.16,326.51 317.96,326.33 317.77,326.17 C 317.57,326.01 317.37,325.88 317.18,325.76 C 316.99,325.64 316.79,325.54 316.60,325.46 C 316.41,325.38 316.22,325.32 316.03,325.28 C 315.84,325.24 315.63,325.25 315.47,325.22 C 315.31,325.19 315.18,325.16 315.07,325.12 C 314.96,325.08 314.89,325.03 314.84,324.98 C 314.79,324.92 314.76,324.86 314.77,324.80 C 314.77,324.73 314.80,324.66 314.86,324.58 C 314.92,324.50 315.00,324.41 315.12,324.32 C 315.23,324.23 315.37,324.13 315.54,324.02 C 315.71,323.92 315.90,323.81 316.12,323.69 C 316.35,323.57 316.65,323.48 316.88,323.31 C 317.10,323.15 317.30,322.94 317.48,322.70 C 317.65,322.45 317.80,322.16 317.93,321.84 C 318.06,321.51 318.16,321.14 318.23,320.73 C 318.31,320.33 318.36,319.88 318.39,319.39 C 318.42,318.90 318.42,318.37 318.40,317.80 C 318.38,317.24 318.33,316.63 318.26,315.98 C 318.19,315.33 318.09,314.64 317.97,313.91 C 317.85,313.18 317.68,312.31 317.53,311.59 C 317.39,310.88 317.24,310.23 317.10,309.63 C 316.96,309.04 316.82,308.50 316.68,308.02 C 316.54,307.55 316.40,307.13 316.27,306.77 C 316.13,306.40 315.99,306.10 315.86,305.86 C 315.73,305.62 315.59,305.43 315.46,305.30 C 315.33,305.18 315.20,305.11 315.07,305.10 C 314.94,305.09 314.81,305.14 314.69,305.25 C 314.56,305.36 314.51,305.60 314.31,305.75 C 314.11,305.90 313.84,306.04 313.48,306.16 C 313.13,306.28 312.71,306.38 312.20,306.47 C 311.70,306.56 311.12,306.63 310.47,306.69 C 309.82,306.74 309.09,306.79 308.28,306.81 C 307.48,306.84 306.60,306.85 305.64,306.84 C 304.68,306.84 303.65,306.82 302.55,306.78 C 301.44,306.74 300.26,306.69 299.00,306.62 C 297.74,306.56 296.33,306.45 295.00,306.38 C 293.67,306.30 292.35,306.25 291.03,306.20 C 289.71,306.16 288.40,306.13 287.09,306.11 C 285.79,306.09 284.48,306.09 283.19,306.09 C 281.89,306.10 280.60,306.12 279.31,306.16 C 278.03,306.19 276.74,306.24 275.47,306.30 C 274.19,306.36 272.92,306.43 271.66,306.52 C 270.39,306.60 269.13,306.70 267.88,306.81 C 266.62,306.92 265.31,307.09 264.12,307.19 C 262.94,307.28 261.82,307.34 260.77,307.38 C 259.71,307.41 258.72,307.41 257.80,307.38 C 256.87,307.34 256.01,307.28 255.22,307.19 C 254.42,307.09 253.70,306.97 253.03,306.81 C 252.37,306.66 251.77,306.47 251.23,306.25 C 250.70,306.03 250.23,305.78 249.83,305.50 C 249.42,305.22 249.09,304.91 248.81,304.56 C 248.54,304.22 248.47,303.82 248.19,303.44 C 247.91,303.05 247.56,302.66 247.14,302.27 C 246.72,301.87 246.23,301.46 245.67,301.05 C 245.11,300.63 244.48,300.21 243.78,299.78 C 243.08,299.35 242.31,298.91 241.47,298.47 C 240.63,298.02 239.72,297.57 238.73,297.11 C 237.75,296.65 236.70,296.18 235.58,295.70 C 234.46,295.23 233.26,294.74 232.00,294.25 C 230.74,293.76 229.26,293.23 228.00,292.75 C 226.74,292.27 225.57,291.80 224.47,291.34 C 223.37,290.89 222.35,290.45 221.41,290.03 C 220.46,289.61 219.60,289.20 218.81,288.81 C 218.03,288.42 217.32,288.05 216.69,287.69 C 216.06,287.33 215.51,286.98 215.03,286.66 C 214.56,286.33 214.16,286.02 213.84,285.72 C 213.53,285.42 213.29,285.14 213.12,284.88 C 212.96,284.61 213.01,284.36 212.88,284.12 C 212.74,283.89 212.54,283.66 212.30,283.45 C 212.05,283.24 211.75,283.04 211.39,282.86 C 211.03,282.67 210.62,282.50 210.16,282.34 C 209.69,282.18 209.17,282.04 208.59,281.91 C 208.02,281.77 207.39,281.65 206.70,281.55 C 206.02,281.44 205.28,281.35 204.48,281.27 C 203.69,281.18 202.84,281.12 201.94,281.06 C 201.03,281.01 199.99,280.98 199.06,280.94 C 198.14,280.89 197.24,280.84 196.38,280.78 C 195.51,280.72 194.68,280.66 193.88,280.59 C 193.07,280.53 192.30,280.45 191.56,280.38 C 190.82,280.30 190.11,280.21 189.44,280.12 C 188.76,280.04 188.11,279.94 187.50,279.84 C 186.89,279.74 186.30,279.64 185.75,279.53 C 185.20,279.42 184.68,279.31 184.19,279.19 C 183.70,279.07 183.28,278.92 182.81,278.81 C 182.35,278.70 181.87,278.61 181.39,278.53 C 180.91,278.45 180.42,278.39 179.92,278.34 C 179.42,278.30 178.92,278.27 178.41,278.25 C 177.89,278.23 177.37,278.23 176.84,278.25 C 176.32,278.27 175.78,278.30 175.23,278.34 C 174.69,278.39 174.14,278.45 173.58,278.53 C 173.02,278.61 172.45,278.70 171.88,278.81 C 171.30,278.92 170.68,279.09 170.12,279.19 C 169.57,279.29 169.05,279.36 168.55,279.41 C 168.06,279.46 167.60,279.49 167.16,279.49 C 166.73,279.49 166.33,279.47 165.95,279.42 C 165.58,279.37 165.24,279.30 164.92,279.20 C 164.61,279.11 164.32,278.98 164.07,278.84 C 163.82,278.69 163.59,278.52 163.40,278.32 C 163.20,278.12 163.04,277.90 162.91,277.66 C 162.77,277.41 162.68,277.11 162.59,276.84 C 162.50,276.57 162.42,276.30 162.36,276.03 C 162.29,275.76 162.24,275.49 162.20,275.22 C 162.16,274.95 162.14,274.68 162.12,274.41 C 162.11,274.14 162.11,273.86 162.12,273.59 C 162.14,273.32 162.16,273.05 162.20,272.78 C 162.24,272.51 162.29,272.24 162.36,271.97 C 162.42,271.70 162.50,271.43 162.59,271.16 C 162.68,270.89 162.77,270.59 162.91,270.34 C 163.04,270.10 163.20,269.87 163.40,269.66 C 163.59,269.46 163.82,269.28 164.07,269.12 C 164.32,268.96 164.61,268.82 164.92,268.70 C 165.24,268.59 165.58,268.49 165.95,268.42 C 166.33,268.35 166.73,268.30 167.16,268.27 C 167.60,268.25 168.06,268.24 168.55,268.26 C 169.05,268.27 169.57,268.31 170.12,268.38 C 170.68,268.44 171.30,268.55 171.88,268.62 C 172.45,268.70 173.03,268.75 173.59,268.80 C 174.16,268.84 174.72,268.87 175.28,268.89 C 175.84,268.91 176.39,268.91 176.94,268.91 C 177.48,268.90 178.03,268.88 178.56,268.84 C 179.10,268.81 179.63,268.76 180.16,268.70 C 180.68,268.64 181.20,268.57 181.72,268.48 C 182.23,268.40 182.74,268.30 183.25,268.19 C 183.76,268.08 184.23,267.93 184.75,267.81 C 185.27,267.70 185.82,267.59 186.39,267.48 C 186.96,267.38 187.55,267.29 188.17,267.20 C 188.79,267.12 189.43,267.04 190.09,266.97 C 190.76,266.90 191.45,266.84 192.16,266.78 C 192.87,266.73 193.60,266.68 194.36,266.64 C 195.12,266.60 195.90,266.57 196.70,266.55 C 197.51,266.52 198.34,266.51 199.19,266.50 C 200.04,266.49 200.98,266.52 201.81,266.50 C 202.64,266.48 203.43,266.45 204.17,266.39 C 204.91,266.34 205.61,266.26 206.27,266.17 C 206.92,266.08 207.53,265.97 208.09,265.84 C 208.66,265.72 209.18,265.57 209.66,265.41 C 210.13,265.24 210.57,265.06 210.95,264.86 C 211.34,264.66 211.68,264.44 211.98,264.20 C 212.28,263.97 212.54,263.71 212.75,263.44 C 212.96,263.16 213.04,262.86 213.25,262.56 C 213.46,262.27 213.72,261.97 214.03,261.67 C 214.34,261.37 214.69,261.07 215.09,260.77 C 215.49,260.46 215.94,260.15 216.44,259.84 C 216.93,259.53 217.47,259.22 218.06,258.91 C 218.65,258.59 219.29,258.27 219.97,257.95 C 220.65,257.63 221.38,257.31 222.16,256.98 C 222.93,256.66 223.76,256.33 224.62,256.00 C 225.49,255.67 226.51,255.32 227.38,255.00 C 228.24,254.68 229.06,254.37 229.83,254.08 C 230.60,253.78 231.32,253.50 231.98,253.23 C 232.65,252.97 233.27,252.71 233.84,252.47 C 234.41,252.23 234.93,252.00 235.41,251.78 C 235.88,251.57 236.30,251.36 236.67,251.17 C 237.04,250.98 237.37,250.80 237.64,250.64 C 237.91,250.48 238.14,250.33 238.31,250.19 C 238.49,250.05 238.55,249.93 238.69,249.81 C 238.82,249.69 238.96,249.58 239.11,249.47 C 239.26,249.36 239.41,249.26 239.58,249.16 C 239.74,249.06 239.91,248.96 240.09,248.88 C 240.27,248.79 240.46,248.70 240.66,248.62 C 240.85,248.55 241.05,248.47 241.27,248.41 C 241.48,248.34 241.70,248.28 241.92,248.22 C 242.15,248.16 242.38,248.11 242.62,248.06 C 242.87,248.02 243.13,248.00 243.38,247.94 C 243.62,247.88 243.87,247.79 244.11,247.69 C 244.35,247.58 244.59,247.46 244.83,247.31 C 245.07,247.17 245.30,247.00 245.53,246.81 C 245.76,246.62 245.99,246.42 246.22,246.19 C 246.45,245.96 246.67,245.71 246.89,245.44 C 247.11,245.17 247.33,244.88 247.55,244.56 C 247.76,244.25 247.98,243.92 248.19,243.56 C 248.40,243.21 248.54,242.78 248.81,242.44 C 249.08,242.09 249.42,241.78 249.81,241.50 C 250.21,241.22 250.67,240.97 251.19,240.75 C 251.71,240.53 252.29,240.34 252.94,240.19 C 253.58,240.03 254.29,239.91 255.06,239.81 C 255.83,239.72 256.67,239.66 257.56,239.62 C 258.46,239.59 259.42,239.59 260.44,239.62 C 261.46,239.66 262.54,239.72 263.69,239.81 C 264.83,239.91 266.10,240.08 267.31,240.19 C 268.53,240.30 269.75,240.40 270.98,240.48 C 272.22,240.57 273.46,240.64 274.70,240.70 C 275.95,240.76 277.21,240.81 278.47,240.84 C 279.73,240.88 281.00,240.90 282.28,240.91 C 283.56,240.91 284.85,240.91 286.14,240.89 C 287.43,240.87 288.74,240.84 290.05,240.80 C 291.36,240.75 292.67,240.70 294.00,240.62 C 295.33,240.55 296.74,240.44 298.00,240.38 C 299.26,240.31 300.45,240.26 301.56,240.22 C 302.68,240.18 303.72,240.16 304.69,240.16 C 305.66,240.15 306.55,240.16 307.38,240.19 C 308.20,240.21 308.95,240.26 309.62,240.31 C 310.30,240.37 310.91,240.44 311.44,240.53 C 311.97,240.62 312.43,240.72 312.81,240.84 C 313.20,240.96 313.51,241.10 313.75,241.25 C 313.99,241.40 314.09,241.62 314.25,241.75 C 314.41,241.88 314.57,241.98 314.73,242.04 C 314.88,242.10 315.03,242.13 315.18,242.12 C 315.33,242.11 315.47,242.06 315.61,241.98 C 315.75,241.90 315.88,241.79 316.02,241.64 C 316.15,241.49 316.27,241.31 316.40,241.09 C 316.52,240.87 316.64,240.61 316.76,240.32 C 316.87,240.03 316.99,239.70 317.09,239.34 C 317.20,238.98 317.31,238.55 317.41,238.16 C 317.51,237.76 317.60,237.37 317.70,236.98 C 317.79,236.58 317.88,236.19 317.96,235.80 C 318.05,235.42 318.13,235.03 318.20,234.64 C 318.28,234.25 318.35,233.87 318.42,233.48 C 318.49,233.10 318.56,232.72 318.62,232.34 C 318.68,231.95 318.74,231.57 318.79,231.20 C 318.84,230.82 318.89,230.44 318.94,230.06 C 318.98,229.69 319.04,229.30 319.06,228.94 C 319.09,228.58 319.09,228.23 319.08,227.91 C 319.07,227.58 319.03,227.27 318.98,226.97 C 318.93,226.67 318.87,226.39 318.78,226.12 C 318.70,225.86 318.59,225.61 318.47,225.38 C 318.35,225.14 318.21,224.92 318.05,224.72 C 317.89,224.52 317.71,224.33 317.52,224.16 C 317.32,223.98 317.11,223.83 316.88,223.69 C 316.64,223.55 316.35,223.43 316.12,223.31 C 315.90,223.19 315.71,223.08 315.55,222.98 C 315.39,222.87 315.26,222.77 315.16,222.68 C 315.06,222.59 314.99,222.50 314.95,222.42 C 314.91,222.34 314.90,222.27 314.92,222.20 C 314.94,222.14 314.99,222.08 315.07,222.02 C 315.15,221.97 315.26,221.92 315.40,221.88 C 315.54,221.84 315.71,221.81 315.91,221.78 C 316.11,221.75 316.37,221.76 316.59,221.72 C 316.82,221.68 317.05,221.62 317.27,221.54 C 317.50,221.46 317.72,221.36 317.95,221.24 C 318.17,221.12 318.39,220.99 318.61,220.83 C 318.83,220.67 319.05,220.49 319.27,220.30 C 319.48,220.10 319.70,219.88 319.91,219.65 C 320.13,219.41 320.34,219.16 320.55,218.88 C 320.77,218.61 320.98,218.31 321.19,218.00 C 321.40,217.69 321.60,217.31 321.81,217.00 C 322.03,216.69 322.24,216.40 322.47,216.12 C 322.69,215.85 322.92,215.60 323.16,215.38 C 323.39,215.15 323.63,214.94 323.88,214.75 C 324.12,214.56 324.37,214.40 324.62,214.25 C 324.88,214.10 325.14,213.98 325.41,213.88 C 325.67,213.77 325.94,213.69 326.22,213.62 C 326.49,213.56 326.78,213.52 327.06,213.50 C 327.35,213.48 327.65,213.48 327.94,213.50 C 328.22,213.52 328.50,213.55 328.77,213.60 C 329.05,213.65 329.31,213.72 329.57,213.80 C 329.83,213.89 330.08,213.99 330.33,214.11 C 330.57,214.23 330.81,214.36 331.05,214.52 C 331.28,214.67 331.51,214.84 331.73,215.02 C 331.95,215.21 332.16,215.41 332.37,215.63 C 332.57,215.85 332.77,216.09 332.97,216.34 C 333.16,216.60 333.36,216.88 333.53,217.16 C 333.71,217.43 333.87,217.71 334.02,217.99 C 334.18,218.27 334.32,218.56 334.45,218.85 C 334.57,219.14 334.69,219.44 334.80,219.73 C 334.90,220.03 335.00,220.33 335.08,220.64 C 335.16,220.95 335.23,221.26 335.29,221.57 C 335.35,221.88 335.39,222.20 335.43,222.52 C 335.46,222.85 335.49,223.17 335.50,223.50 C 335.51,223.83 335.49,224.17 335.50,224.50 C 335.51,224.83 335.52,225.15 335.55,225.47 C 335.57,225.79 335.60,226.10 335.64,226.41 C 335.68,226.71 335.73,227.02 335.78,227.31 C 335.84,227.61 335.90,227.90 335.97,228.19 C 336.04,228.47 336.12,228.76 336.20,229.03 C 336.29,229.31 336.38,229.58 336.48,229.84 C 336.59,230.11 336.70,230.37 336.81,230.62 C 336.93,230.88 337.05,231.11 337.19,231.38 C 337.32,231.64 337.46,231.91 337.61,232.19 C 337.76,232.47 337.91,232.76 338.08,233.06 C 338.24,233.36 338.41,233.68 338.59,234.00 C 338.77,234.32 338.96,234.66 339.16,235.00 C 339.35,235.34 339.55,235.70 339.77,236.06 C 339.98,236.43 340.20,236.80 340.42,237.19 C 340.65,237.57 340.88,237.97 341.12,238.38 C 341.37,238.78 341.62,239.23 341.88,239.62 C 342.12,240.02 342.38,240.40 342.62,240.77 C 342.88,241.13 343.12,241.47 343.38,241.80 C 343.62,242.12 343.88,242.43 344.12,242.72 C 344.38,243.01 344.62,243.28 344.88,243.53 C 345.12,243.78 345.38,244.02 345.62,244.23 C 345.88,244.45 346.12,244.65 346.38,244.83 C 346.62,245.01 346.88,245.17 347.12,245.31 C 347.38,245.46 347.65,245.57 347.88,245.69 C 348.10,245.81 348.31,245.92 348.49,246.02 C 348.68,246.13 348.84,246.23 348.98,246.32 C 349.12,246.41 349.23,246.50 349.33,246.58 C 349.42,246.66 349.50,246.73 349.55,246.80 C 349.60,246.86 349.63,246.92 349.63,246.98 C 349.64,247.03 349.62,247.08 349.59,247.12 C 349.55,247.16 349.49,247.19 349.41,247.22 C 349.32,247.25 349.19,247.26 349.09,247.28 C 349.00,247.31 348.90,247.33 348.82,247.37 C 348.74,247.40 348.66,247.44 348.59,247.48 C 348.51,247.52 348.45,247.56 348.39,247.61 C 348.33,247.66 348.28,247.71 348.23,247.77 C 348.19,247.82 348.15,247.88 348.12,247.95 C 348.08,248.01 348.06,248.08 348.04,248.15 C 348.02,248.22 348.01,248.30 348.00,248.38 C 347.99,248.45 347.98,248.54 348.00,248.62 C 348.02,248.71 348.05,248.80 348.09,248.89 C 348.14,248.98 348.20,249.08 348.28,249.17 C 348.36,249.27 348.45,249.37 348.56,249.47 C 348.67,249.57 348.80,249.67 348.94,249.78 C 349.08,249.89 349.23,250.00 349.41,250.11 C 349.58,250.22 349.77,250.34 349.97,250.45 C 350.17,250.57 350.39,250.69 350.62,250.81 C 350.86,250.93 351.14,251.07 351.38,251.19 C 351.61,251.30 351.84,251.40 352.05,251.49 C 352.27,251.58 352.47,251.66 352.66,251.73 C 352.86,251.79 353.04,251.85 353.20,251.89 C 353.37,251.93 353.53,251.96 353.67,251.98 C 353.82,252.00 353.95,252.01 354.07,252.01 C 354.19,252.00 354.30,251.99 354.40,251.96 C 354.50,251.93 354.58,251.89 354.66,251.84 C 354.73,251.79 354.79,251.73 354.84,251.66 C 354.89,251.58 354.93,251.50 354.96,251.41 C 354.99,251.32 355.00,251.23 355.01,251.12 C 355.01,251.01 355.00,250.89 354.98,250.77 C 354.96,250.64 354.93,250.50 354.89,250.36 C 354.85,250.21 354.79,250.06 354.73,249.90 C 354.66,249.74 354.58,249.56 354.49,249.38 C 354.40,249.20 354.30,249.01 354.19,248.81 C 354.07,248.61 353.93,248.39 353.81,248.19 C 353.70,247.98 353.59,247.79 353.48,247.59 C 353.38,247.40 353.29,247.21 353.20,247.03 C 353.12,246.85 353.04,246.67 352.97,246.50 C 352.90,246.33 352.84,246.16 352.78,246.00 C 352.73,245.84 352.68,245.68 352.64,245.53 C 352.60,245.38 352.57,245.23 352.55,245.09 C 352.52,244.95 352.51,244.82 352.50,244.69 C 352.49,244.56 352.49,244.44 352.50,244.31 C 352.51,244.19 352.52,244.07 352.54,243.95 C 352.56,243.82 352.58,243.70 352.62,243.59 C 352.65,243.47 352.69,243.35 352.73,243.23 C 352.78,243.12 352.83,243.00 352.89,242.89 C 352.95,242.78 353.01,242.67 353.09,242.55 C 353.16,242.44 353.24,242.33 353.32,242.23 C 353.40,242.12 353.50,242.01 353.59,241.91 C 353.69,241.80 353.76,241.69 353.91,241.59 C 354.05,241.50 354.24,241.40 354.46,241.32 C 354.69,241.24 354.95,241.16 355.26,241.09 C 355.56,241.01 355.91,240.95 356.30,240.89 C 356.68,240.83 357.11,240.78 357.58,240.73 C 358.05,240.69 358.55,240.65 359.10,240.62 C 359.65,240.58 360.24,240.56 360.87,240.54 C 361.50,240.52 362.17,240.51 362.88,240.50 C 363.58,240.49 364.41,240.51 365.12,240.50 C 365.84,240.49 366.52,240.48 367.17,240.47 C 367.82,240.45 368.43,240.43 369.02,240.41 C 369.60,240.38 370.14,240.35 370.66,240.31 C 371.17,240.28 371.65,240.23 372.09,240.19 C 372.54,240.14 372.95,240.09 373.33,240.03 C 373.71,239.97 374.05,239.91 374.36,239.84 C 374.67,239.78 374.95,239.70 375.19,239.62 C 375.43,239.55 375.60,239.45 375.81,239.38 C 376.03,239.30 376.25,239.23 376.48,239.17 C 376.72,239.11 376.96,239.06 377.20,239.02 C 377.45,238.97 377.71,238.93 377.97,238.91 C 378.23,238.88 378.50,238.86 378.78,238.84 C 379.06,238.83 379.35,238.83 379.64,238.83 C 379.93,238.83 380.24,238.84 380.55,238.86 C 380.86,238.88 381.17,238.90 381.50,238.94 C 381.83,238.97 382.14,239.01 382.50,239.06 C 382.86,239.12 383.25,239.19 383.66,239.27 C 384.08,239.36 384.52,239.46 384.99,239.57 C 385.46,239.68 385.96,239.81 386.48,239.95 C 387.01,240.10 387.56,240.25 388.14,240.42 C 388.72,240.59 389.33,240.78 389.96,240.98 C 390.60,241.18 391.26,241.39 391.95,241.62 C 392.63,241.85 393.35,242.09 394.09,242.34 C 394.84,242.60 395.69,242.88 396.41,243.16 C 397.12,243.43 397.77,243.71 398.37,243.99 C 398.96,244.27 399.50,244.56 399.98,244.85 C 400.45,245.14 400.87,245.44 401.23,245.73 C 401.60,246.03 401.90,246.33 402.14,246.64 C 402.38,246.95 402.57,247.26 402.70,247.57 C 402.82,247.88 402.89,248.20 402.90,248.52 C 402.91,248.85 402.86,249.17 402.75,249.50 C 402.64,249.83 402.42,250.19 402.25,250.50 C 402.08,250.81 401.92,251.11 401.76,251.38 C 401.60,251.66 401.43,251.91 401.27,252.15 C 401.11,252.38 400.95,252.60 400.80,252.80 C 400.64,252.99 400.48,253.17 400.33,253.33 C 400.17,253.49 400.02,253.62 399.87,253.74 C 399.71,253.86 399.56,253.96 399.41,254.04 C 399.26,254.12 399.12,254.18 398.97,254.22 C 398.82,254.26 398.67,254.26 398.53,254.28 C 398.39,254.31 398.27,254.33 398.15,254.37 C 398.03,254.40 397.92,254.44 397.82,254.48 C 397.72,254.52 397.63,254.56 397.55,254.61 C 397.46,254.66 397.39,254.71 397.33,254.77 C 397.26,254.82 397.21,254.88 397.16,254.95 C 397.12,255.01 397.08,255.08 397.05,255.15 C 397.03,255.22 397.01,255.30 397.00,255.38 C 396.99,255.45 396.98,255.55 397.00,255.62 C 397.02,255.70 397.05,255.78 397.09,255.84 C 397.14,255.91 397.20,255.97 397.28,256.03 C 397.36,256.09 397.45,256.14 397.56,256.19 C 397.67,256.23 397.80,256.28 397.94,256.31 C 398.08,256.35 398.23,256.38 398.41,256.41 C 398.58,256.43 398.77,256.45 398.97,256.47 C 399.17,256.48 399.39,256.49 399.62,256.50 C 399.86,256.51 400.11,256.48 400.38,256.50 C 400.64,256.52 400.91,256.55 401.19,256.59 C 401.47,256.64 401.76,256.70 402.06,256.78 C 402.36,256.86 402.68,256.95 403.00,257.06 C 403.32,257.17 403.66,257.30 404.00,257.44 C 404.34,257.58 404.70,257.73 405.06,257.91 C 405.43,258.08 405.80,258.27 406.19,258.47 C 406.57,258.67 406.97,258.89 407.38,259.12 C 407.78,259.36 408.22,259.64 408.62,259.88 C 409.03,260.11 409.41,260.33 409.78,260.53 C 410.15,260.73 410.51,260.92 410.84,261.09 C 411.18,261.27 411.51,261.42 411.81,261.56 C 412.12,261.70 412.41,261.83 412.69,261.94 C 412.96,262.05 413.22,262.14 413.47,262.22 C 413.71,262.30 413.94,262.36 414.16,262.41 C 414.37,262.45 414.57,262.48 414.75,262.50 C 414.93,262.52 415.08,262.49 415.25,262.50 C 415.42,262.51 415.58,262.53 415.75,262.56 C 415.92,262.59 416.08,262.64 416.25,262.69 C 416.42,262.74 416.58,262.80 416.75,262.88 C 416.92,262.95 417.08,263.03 417.25,263.12 C 417.42,263.22 417.58,263.32 417.75,263.44 C 417.92,263.55 418.08,263.68 418.25,263.81 C 418.42,263.95 418.58,264.09 418.75,264.25 C 418.92,264.41 419.08,264.59 419.25,264.75 C 419.42,264.91 419.58,265.05 419.75,265.19 C 419.92,265.32 420.08,265.45 420.25,265.56 C 420.42,265.68 420.58,265.78 420.75,265.88 C 420.92,265.97 421.08,266.05 421.25,266.12 C 421.42,266.20 421.58,266.26 421.75,266.31 C 421.92,266.36 422.08,266.41 422.25,266.44 C 422.42,266.47 422.58,266.49 422.75,266.50 C 422.92,266.51 423.08,266.49 423.25,266.50 C 423.42,266.51 423.61,266.53 423.80,266.56 C 423.99,266.59 424.18,266.64 424.39,266.69 C 424.60,266.74 424.81,266.80 425.03,266.88 C 425.25,266.95 425.48,267.03 425.72,267.12 C 425.96,267.22 426.20,267.32 426.45,267.44 C 426.71,267.55 426.97,267.68 427.23,267.81 C 427.50,267.95 427.78,268.09 428.06,268.25 C 428.35,268.41 428.66,268.58 428.94,268.75 C 429.22,268.92 429.49,269.09 429.74,269.26 C 430.00,269.43 430.24,269.60 430.48,269.77 C 430.71,269.95 430.93,270.12 431.14,270.30 C 431.35,270.47 431.55,270.65 431.73,270.83 C 431.92,271.01 432.10,271.19 432.26,271.37 C 432.42,271.55 432.57,271.73 432.71,271.91 C 432.85,272.10 432.98,272.28 433.09,272.47 C 433.21,272.65 433.35,272.84 433.41,273.03 C 433.47,273.22 433.48,273.42 433.45,273.62 C 433.42,273.83 433.35,274.04 433.23,274.25 C 433.12,274.46 432.96,274.68 432.75,274.91 C 432.54,275.13 432.29,275.36 432.00,275.59 C 431.71,275.83 431.37,276.07 430.98,276.31 C 430.60,276.56 430.17,276.81 429.70,277.06 C 429.23,277.32 428.72,277.58 428.16,277.84 C 427.60,278.11 426.92,278.39 426.34,278.66 C 425.77,278.92 425.23,279.17 424.73,279.41 C 424.22,279.66 423.75,279.89 423.30,280.12 C 422.86,280.34 422.45,280.56 422.08,280.77 C 421.70,280.97 421.36,281.17 421.05,281.36 C 420.74,281.55 420.46,281.73 420.21,281.90 C 419.96,282.07 419.75,282.23 419.57,282.38 C 419.39,282.54 419.24,282.68 419.12,282.81 C 419.01,282.95 418.97,283.07 418.88,283.19 C 418.78,283.30 418.68,283.41 418.58,283.52 C 418.47,283.62 418.36,283.71 418.23,283.80 C 418.11,283.88 417.98,283.96 417.84,284.03 C 417.71,284.10 417.56,284.16 417.41,284.22 C 417.25,284.27 417.09,284.32 416.92,284.36 C 416.75,284.40 416.58,284.43 416.39,284.45 C 416.21,284.48 416.01,284.49 415.81,284.50 C 415.61,284.51 415.39,284.49 415.19,284.50 C 414.99,284.51 414.79,284.52 414.61,284.55 C 414.42,284.57 414.25,284.60 414.08,284.64 C 413.91,284.68 413.75,284.73 413.59,284.78 C 413.44,284.84 413.29,284.90 413.16,284.97 C 413.02,285.04 412.89,285.12 412.77,285.20 C 412.64,285.29 412.53,285.38 412.42,285.48 C 412.32,285.59 412.22,285.70 412.12,285.81 C 412.03,285.93 411.97,286.06 411.88,286.19 C 411.78,286.32 411.66,286.45 411.53,286.58 C 411.40,286.71 411.26,286.85 411.09,286.98 C 410.93,287.12 410.76,287.26 410.56,287.41 C 410.37,287.55 410.16,287.70 409.94,287.84 C 409.71,287.99 409.47,288.14 409.22,288.30 C 408.96,288.45 408.69,288.61 408.41,288.77 C 408.12,288.92 407.82,289.09 407.50,289.25 C 407.18,289.41 406.83,289.59 406.50,289.75 C 406.17,289.91 405.85,290.05 405.53,290.19 C 405.21,290.32 404.90,290.45 404.59,290.56 C 404.29,290.68 403.98,290.78 403.69,290.88 C 403.39,290.97 403.10,291.05 402.81,291.12 C 402.53,291.20 402.24,291.26 401.97,291.31 C 401.69,291.36 401.42,291.41 401.16,291.44 C 400.89,291.47 400.63,291.49 400.38,291.50 C 400.12,291.51 399.85,291.50 399.62,291.50 C 399.40,291.50 399.20,291.51 399.02,291.52 C 398.85,291.54 398.70,291.55 398.57,291.57 C 398.44,291.59 398.34,291.61 398.27,291.64 C 398.19,291.67 398.14,291.70 398.11,291.73 C 398.08,291.77 398.08,291.81 398.10,291.85 C 398.12,291.89 398.17,291.94 398.24,291.99 C 398.31,292.04 398.41,292.10 398.53,292.16 C 398.65,292.21 398.82,292.26 398.97,292.34 C 399.12,292.42 399.26,292.52 399.41,292.63 C 399.56,292.75 399.71,292.88 399.87,293.02 C 400.02,293.17 400.17,293.33 400.33,293.52 C 400.48,293.70 400.64,293.89 400.80,294.11 C 400.95,294.32 401.11,294.56 401.27,294.80 C 401.43,295.05 401.60,295.32 401.76,295.60 C 401.92,295.88 402.08,296.18 402.25,296.50 C 402.42,296.82 402.64,297.17 402.75,297.50 C 402.86,297.83 402.90,298.16 402.88,298.49 C 402.87,298.82 402.79,299.15 402.65,299.48 C 402.51,299.80 402.31,300.13 402.05,300.45 C 401.79,300.78 401.46,301.10 401.08,301.42 C 400.69,301.74 400.25,302.06 399.74,302.38 C 399.24,302.70 398.67,303.02 398.04,303.34 C 397.41,303.65 396.72,303.97 395.97,304.28 C 395.22,304.60 394.37,304.93 393.53,305.22 C 392.69,305.51 391.82,305.77 390.93,306.01 C 390.04,306.25 389.11,306.46 388.16,306.65 C 387.21,306.84 386.24,307.00 385.23,307.14 C 384.23,307.28 383.20,307.39 382.14,307.48 C 381.08,307.57 380.00,307.64 378.88,307.68 C 377.77,307.72 376.63,307.74 375.46,307.73 C 374.29,307.72 373.10,307.68 371.88,307.62 C 370.65,307.57 369.30,307.46 368.12,307.38 C 366.95,307.29 365.84,307.19 364.80,307.09 C 363.77,306.98 362.81,306.87 361.91,306.76 C 361.02,306.64 360.20,306.52 359.45,306.39 C 358.70,306.26 358.03,306.13 357.42,305.98 C 356.82,305.84 356.28,305.69 355.82,305.54 C 355.36,305.38 354.97,305.22 354.65,305.05 C 354.33,304.89 354.08,304.71 353.91,304.53 C 353.73,304.35 353.68,304.16 353.59,303.97 C 353.50,303.77 353.43,303.57 353.37,303.37 C 353.31,303.16 353.26,302.95 353.23,302.73 C 353.19,302.51 353.18,302.28 353.17,302.05 C 353.17,301.81 353.18,301.57 353.20,301.33 C 353.23,301.08 353.27,300.83 353.32,300.57 C 353.37,300.31 353.44,300.05 353.52,299.77 C 353.61,299.50 353.70,299.22 353.81,298.94 C 353.92,298.65 354.08,298.33 354.19,298.06 C 354.30,297.79 354.39,297.54 354.46,297.30 C 354.54,297.07 354.59,296.86 354.63,296.66 C 354.67,296.47 354.70,296.30 354.70,296.14 C 354.71,295.99 354.70,295.85 354.67,295.73 C 354.64,295.62 354.60,295.52 354.54,295.45 C 354.48,295.37 354.40,295.31 354.30,295.27 C 354.21,295.24 354.10,295.22 353.97,295.22 C 353.84,295.22 353.68,295.25 353.53,295.28 C 353.38,295.31 353.23,295.35 353.08,295.39 C 352.92,295.43 352.77,295.49 352.61,295.55 C 352.45,295.61 352.29,295.67 352.12,295.75 C 351.96,295.83 351.79,295.91 351.62,296.00 C 351.46,296.09 351.28,296.19 351.11,296.30 C 350.93,296.40 350.76,296.52 350.58,296.64 C 350.40,296.76 350.22,296.89 350.03,297.03 C 349.85,297.17 349.64,297.33 349.47,297.47 C 349.30,297.61 349.15,297.75 349.02,297.88 C 348.89,298.02 348.79,298.15 348.70,298.27 C 348.61,298.40 348.54,298.52 348.48,298.64 C 348.43,298.76 348.40,298.87 348.39,298.98 C 348.38,299.10 348.39,299.20 348.41,299.30 C 348.44,299.41 348.49,299.51 348.55,299.60 C 348.62,299.70 348.71,299.79 348.81,299.88 C 348.92,299.96 349.09,300.04 349.19,300.12 C 349.29,300.21 349.37,300.29 349.42,300.38 C 349.48,300.46 349.51,300.54 349.52,300.62 C 349.52,300.71 349.51,300.79 349.47,300.88 C 349.43,300.96 349.37,301.04 349.28,301.12 C 349.20,301.21 349.09,301.29 348.95,301.38 C 348.82,301.46 348.66,301.54 348.48,301.62 C 348.30,301.71 348.10,301.79 347.88,301.88 C 347.65,301.96 347.38,302.02 347.12,302.12 C 346.87,302.23 346.62,302.37 346.36,302.53 C 346.10,302.69 345.84,302.88 345.58,303.09 C 345.32,303.31 345.05,303.55 344.78,303.81 C 344.51,304.08 344.24,304.37 343.97,304.69 C 343.70,305.01 343.42,305.35 343.14,305.72 C 342.86,306.09 342.58,306.48 342.30,306.91 C 342.01,307.33 341.73,307.78 341.44,308.25 C 341.15,308.72 340.84,309.27 340.56,309.75 C 340.28,310.23 340.02,310.69 339.77,311.12 C 339.51,311.56 339.27,311.98 339.05,312.38 C 338.82,312.77 338.61,313.15 338.41,313.50 C 338.21,313.85 338.02,314.19 337.84,314.50 C 337.67,314.81 337.51,315.10 337.36,315.38 C 337.21,315.65 337.08,315.90 336.95,316.12 C 336.83,316.35 336.72,316.56 336.62,316.75 C 336.53,316.94 336.45,317.07 336.38,317.25 C 336.30,317.43 336.22,317.61 336.16,317.81 C 336.09,318.01 336.03,318.22 335.97,318.44 C 335.91,318.66 335.86,318.89 335.81,319.12 C 335.77,319.36 335.72,319.61 335.69,319.88 C 335.65,320.14 335.62,320.41 335.59,320.69 C 335.57,320.97 335.55,321.26 335.53,321.56 C 335.52,321.86 335.51,322.18 335.50,322.50 C 335.49,322.82 335.51,323.17 335.50,323.50 C 335.49,323.83 335.46,324.15 335.43,324.48 C 335.39,324.80 335.35,325.12 335.29,325.43 C 335.23,325.74 335.16,326.05 335.08,326.36 C 335.00,326.67 334.90,326.97 334.80,327.27 C 334.69,327.56 334.57,327.86 334.45,328.15 C 334.32,328.44 334.18,328.73 334.02,329.01 C 333.87,329.29 333.71,329.57 333.53,329.84 C 333.36,330.12 333.17,330.40 332.97,330.66 C 332.77,330.91 332.57,331.15 332.35,331.37 C 332.14,331.59 331.91,331.79 331.68,331.98 C 331.45,332.16 331.20,332.33 330.95,332.48 C 330.70,332.64 330.44,332.77 330.17,332.89 C 329.90,333.01 329.62,333.11 329.34,333.20 C 329.05,333.28 328.75,333.35 328.45,333.40 C 328.14,333.45 327.82,333.48 327.50,333.50 Z" fill="none" stroke="currentColor" stroke-width="1.5" stroke-linejoin="round" stroke-linecap="round" filter="url(#glow)" />
</svg>