<svg xmlns="http://www.w3.org/2000/svg" width="512" height="512" viewBox="115.49 102.46 254.02 252.11" preserveAspectRatio="xMidYMid meet">
  <defs>
    <filter id="glow" x="-30%" y="-30%" width="160%" height="160%">
      <feGaussianBlur in="SourceGraphic" stdDeviation="2.4" result="blur" />
      <feMerge>
        <feMergeNode in="blur" />
        <feMergeNode in="SourceGraphic" />
      </feMerge>
    </filter>
    <clipPath id="hull-clip">
      <path d="M 249.91,333.41 C 249.79,333.33 249.72,333.27 249.59,333.09 C 249.47,332.92 249.33,332.67 249.16,332.35 C 249.00,332.03 248.82,331.64 248.62,331.18 C 248.42,330.72 248.19,330.18 247.95,329.58 C 247.71,328.97 247.45,328.30 247.17,327.55 C 246.89,326.80 246.59,325.98 246.27,325.09 C 245.95,324.19 245.62,323.23 245.26,322.20 C 244.90,321.16 244.52,320.05 244.12,318.88 C 243.73,317.70 243.32,316.30 242.88,315.12 C 242.43,313.95 241.96,312.84 241.47,311.81 C 240.97,310.78 240.45,309.82 239.91,308.94 C 239.36,308.05 238.79,307.24 238.19,306.50 C 237.59,305.76 236.96,305.09 236.31,304.50 C 235.66,303.91 234.98,303.39 234.28,302.94 C 233.58,302.49 232.85,302.11 232.09,301.81 C 231.34,301.51 230.56,301.28 229.75,301.12 C 228.94,300.97 228.03,300.96 227.25,300.88 C 226.47,300.79 225.74,300.70 225.07,300.62 C 224.40,300.53 223.78,300.44 223.21,300.35 C 222.64,300.26 222.13,300.17 221.67,300.08 C 221.21,299.99 220.81,299.89 220.45,299.80 C 220.10,299.70 219.80,299.61 219.55,299.51 C 219.31,299.41 219.12,299.31 218.98,299.21 C 218.84,299.11 218.75,299.01 218.72,298.91 C 218.69,298.80 218.72,298.69 218.78,298.59 C 218.84,298.50 218.94,298.40 219.07,298.32 C 219.20,298.24 219.38,298.16 219.59,298.09 C 219.80,298.01 220.04,297.95 220.33,297.89 C 220.61,297.83 220.94,297.78 221.30,297.73 C 221.66,297.69 222.06,297.65 222.49,297.62 C 222.93,297.58 223.40,297.56 223.91,297.54 C 224.43,297.52 224.98,297.51 225.56,297.50 C 226.15,297.49 226.85,297.50 227.44,297.50 C 228.03,297.50 228.59,297.49 229.12,297.48 C 229.64,297.46 230.14,297.45 230.60,297.43 C 231.06,297.41 231.49,297.39 231.89,297.36 C 232.29,297.33 232.65,297.30 232.98,297.27 C 233.32,297.23 233.62,297.19 233.88,297.15 C 234.15,297.11 234.38,297.06 234.59,297.01 C 234.79,296.96 234.96,296.90 235.09,296.84 C 235.23,296.79 235.33,296.79 235.41,296.66 C 235.48,296.53 235.52,296.33 235.52,296.07 C 235.53,295.81 235.50,295.48 235.45,295.09 C 235.39,294.69 235.30,294.23 235.17,293.70 C 235.05,293.18 234.89,292.58 234.70,291.92 C 234.51,291.26 234.29,290.54 234.04,289.74 C 233.79,288.95 233.50,288.09 233.18,287.16 C 232.86,286.24 232.51,285.25 232.12,284.19 C 231.74,283.13 231.28,281.90 230.88,280.81 C 230.47,279.73 230.07,278.68 229.68,277.68 C 229.29,276.68 228.91,275.71 228.54,274.79 C 228.17,273.87 227.81,272.98 227.45,272.14 C 227.10,271.30 226.76,270.50 226.42,269.73 C 226.09,268.97 225.76,268.25 225.45,267.57 C 225.13,266.89 224.82,266.25 224.52,265.65 C 224.23,265.05 223.94,264.49 223.66,263.97 C 223.38,263.45 223.11,262.97 222.84,262.53 C 222.58,262.09 222.33,261.69 222.09,261.32 C 221.84,260.95 221.61,260.63 221.38,260.34 C 221.16,260.05 220.94,259.79 220.73,259.58 C 220.53,259.36 220.33,259.19 220.14,259.05 C 219.95,258.91 219.77,258.81 219.60,258.74 C 219.43,258.68 219.27,258.65 219.12,258.66 C 218.96,258.68 218.82,258.73 218.69,258.81 C 218.55,258.90 218.44,259.07 218.31,259.19 C 218.19,259.30 218.06,259.41 217.94,259.52 C 217.81,259.62 217.69,259.71 217.56,259.80 C 217.44,259.88 217.31,259.96 217.19,260.03 C 217.06,260.10 216.94,260.16 216.81,260.22 C 216.69,260.27 216.56,260.32 216.44,260.36 C 216.31,260.40 216.19,260.43 216.06,260.45 C 215.94,260.48 215.81,260.49 215.69,260.50 C 215.56,260.51 215.43,260.51 215.31,260.50 C 215.19,260.49 215.08,260.46 214.97,260.42 C 214.86,260.38 214.76,260.33 214.66,260.27 C 214.56,260.20 214.46,260.12 214.38,260.03 C 214.29,259.94 214.20,259.84 214.12,259.72 C 214.05,259.60 213.97,259.47 213.91,259.33 C 213.84,259.18 213.78,259.03 213.72,258.86 C 213.66,258.69 213.61,258.51 213.56,258.31 C 213.52,258.12 213.52,257.89 213.44,257.69 C 213.35,257.49 213.22,257.29 213.05,257.11 C 212.87,256.92 212.65,256.75 212.39,256.58 C 212.13,256.41 211.82,256.25 211.47,256.09 C 211.12,255.94 210.72,255.79 210.28,255.66 C 209.84,255.52 209.36,255.39 208.83,255.27 C 208.30,255.14 207.73,255.03 207.11,254.92 C 206.49,254.82 205.83,254.72 205.12,254.62 C 204.42,254.53 203.60,254.49 202.88,254.38 C 202.15,254.26 201.44,254.11 200.75,253.92 C 200.06,253.74 199.40,253.52 198.75,253.27 C 198.10,253.01 197.48,252.73 196.88,252.41 C 196.27,252.09 195.69,251.73 195.12,251.34 C 194.56,250.96 194.02,250.53 193.50,250.08 C 192.98,249.62 192.48,249.13 192.00,248.61 C 191.52,248.09 191.06,247.53 190.62,246.94 C 190.19,246.35 189.79,245.65 189.38,245.06 C 188.96,244.48 188.54,243.93 188.12,243.42 C 187.71,242.91 187.29,242.45 186.88,242.02 C 186.46,241.59 186.04,241.20 185.62,240.84 C 185.21,240.49 184.79,240.18 184.38,239.91 C 183.96,239.63 183.54,239.40 183.12,239.20 C 182.71,239.01 182.29,238.85 181.88,238.73 C 181.46,238.62 181.04,238.54 180.62,238.50 C 180.21,238.46 179.77,238.49 179.38,238.50 C 178.98,238.51 178.60,238.52 178.25,238.55 C 177.90,238.57 177.56,238.60 177.25,238.64 C 176.94,238.68 176.65,238.73 176.38,238.78 C 176.10,238.84 175.85,238.90 175.62,238.97 C 175.40,239.04 175.19,239.12 175.00,239.20 C 174.81,239.29 174.65,239.38 174.50,239.48 C 174.35,239.59 174.23,239.70 174.12,239.81 C 174.02,239.93 173.98,240.08 173.88,240.19 C 173.77,240.30 173.63,240.39 173.47,240.47 C 173.31,240.55 173.12,240.61 172.91,240.66 C 172.69,240.70 172.45,240.73 172.19,240.75 C 171.92,240.77 171.63,240.77 171.31,240.75 C 170.99,240.73 170.65,240.70 170.28,240.66 C 169.91,240.61 169.52,240.55 169.09,240.47 C 168.67,240.39 168.22,240.30 167.75,240.19 C 167.28,240.08 166.75,239.93 166.25,239.81 C 165.75,239.70 165.25,239.59 164.75,239.48 C 164.25,239.38 163.75,239.29 163.25,239.20 C 162.75,239.12 162.25,239.04 161.75,238.97 C 161.25,238.90 160.75,238.84 160.25,238.78 C 159.75,238.73 159.25,238.68 158.75,238.64 C 158.25,238.60 157.75,238.57 157.25,238.55 C 156.75,238.52 156.25,238.51 155.75,238.50 C 155.25,238.49 154.73,238.50 154.25,238.50 C 153.77,238.50 153.32,238.49 152.90,238.48 C 152.47,238.46 152.07,238.45 151.70,238.43 C 151.32,238.41 150.97,238.39 150.64,238.36 C 150.31,238.33 150.01,238.30 149.73,238.27 C 149.46,238.23 149.20,238.19 148.98,238.15 C 148.75,238.11 148.55,238.06 148.37,238.01 C 148.19,237.96 148.04,237.90 147.91,237.84 C 147.78,237.79 147.69,237.72 147.59,237.66 C 147.50,237.59 147.41,237.52 147.33,237.45 C 147.25,237.38 147.17,237.31 147.11,237.23 C 147.04,237.16 146.99,237.08 146.94,237.00 C 146.89,236.92 146.85,236.84 146.81,236.75 C 146.78,236.66 146.75,236.58 146.73,236.48 C 146.72,236.39 146.71,236.30 146.70,236.20 C 146.70,236.11 146.71,236.01 146.72,235.91 C 146.73,235.80 146.79,235.70 146.78,235.59 C 146.77,235.49 146.74,235.39 146.67,235.28 C 146.61,235.18 146.51,235.07 146.39,234.97 C 146.27,234.86 146.12,234.76 145.94,234.66 C 145.76,234.55 145.55,234.45 145.31,234.34 C 145.08,234.24 144.81,234.14 144.52,234.03 C 144.22,233.93 143.90,233.82 143.55,233.72 C 143.20,233.61 142.82,233.51 142.41,233.41 C 142.00,233.30 141.50,233.21 141.09,233.09 C 140.68,232.97 140.30,232.83 139.95,232.68 C 139.59,232.52 139.26,232.35 138.96,232.16 C 138.66,231.98 138.39,231.77 138.14,231.55 C 137.89,231.32 137.68,231.08 137.48,230.83 C 137.29,230.57 137.13,230.30 136.99,230.01 C 136.86,229.72 136.75,229.41 136.66,229.09 C 136.58,228.76 136.53,228.42 136.50,228.06 C 136.47,227.70 136.48,227.30 136.50,226.94 C 136.52,226.58 136.57,226.24 136.65,225.91 C 136.72,225.59 136.82,225.28 136.95,224.99 C 137.07,224.70 137.22,224.43 137.39,224.17 C 137.56,223.92 137.76,223.68 137.98,223.45 C 138.21,223.23 138.45,223.02 138.73,222.84 C 139.00,222.65 139.30,222.48 139.62,222.32 C 139.94,222.17 140.29,222.03 140.66,221.91 C 141.03,221.79 141.46,221.70 141.84,221.59 C 142.22,221.49 142.58,221.37 142.93,221.26 C 143.27,221.14 143.60,221.02 143.91,220.90 C 144.23,220.77 144.52,220.65 144.80,220.52 C 145.07,220.38 145.33,220.25 145.58,220.11 C 145.82,219.97 146.05,219.83 146.26,219.68 C 146.47,219.53 146.66,219.38 146.84,219.23 C 147.01,219.07 147.17,218.91 147.31,218.75 C 147.45,218.59 147.55,218.41 147.69,218.25 C 147.82,218.09 147.96,217.94 148.11,217.80 C 148.26,217.65 148.41,217.52 148.58,217.39 C 148.74,217.26 148.91,217.14 149.09,217.03 C 149.27,216.92 149.46,216.82 149.66,216.72 C 149.85,216.62 150.05,216.53 150.27,216.45 C 150.48,216.37 150.70,216.30 150.92,216.23 C 151.15,216.17 151.38,216.11 151.62,216.06 C 151.87,216.01 152.11,215.98 152.38,215.94 C 152.64,215.90 152.91,215.86 153.20,215.83 C 153.49,215.79 153.79,215.76 154.11,215.73 C 154.42,215.71 154.75,215.68 155.09,215.66 C 155.43,215.63 155.79,215.61 156.16,215.59 C 156.52,215.58 156.90,215.56 157.30,215.55 C 157.69,215.53 158.10,215.52 158.52,215.52 C 158.93,215.51 159.37,215.50 159.81,215.50 C 160.26,215.50 160.74,215.51 161.19,215.50 C 161.64,215.49 162.07,215.48 162.50,215.47 C 162.93,215.45 163.34,215.43 163.75,215.41 C 164.16,215.38 164.55,215.35 164.94,215.31 C 165.32,215.28 165.70,215.23 166.06,215.19 C 166.43,215.14 166.78,215.09 167.12,215.03 C 167.47,214.97 167.80,214.91 168.12,214.84 C 168.45,214.78 168.76,214.70 169.06,214.62 C 169.36,214.55 169.66,214.45 169.94,214.38 C 170.22,214.30 170.49,214.25 170.75,214.20 C 171.01,214.16 171.26,214.13 171.50,214.11 C 171.74,214.09 171.97,214.09 172.19,214.09 C 172.41,214.10 172.61,214.12 172.81,214.16 C 173.01,214.19 173.20,214.24 173.38,214.30 C 173.55,214.36 173.72,214.43 173.88,214.52 C 174.03,214.60 174.18,214.70 174.31,214.81 C 174.45,214.92 174.55,215.07 174.69,215.19 C 174.82,215.30 174.97,215.41 175.12,215.52 C 175.28,215.62 175.45,215.71 175.62,215.80 C 175.80,215.88 175.99,215.96 176.19,216.03 C 176.39,216.10 176.59,216.16 176.81,216.22 C 177.03,216.27 177.26,216.32 177.50,216.36 C 177.74,216.40 177.99,216.43 178.25,216.45 C 178.51,216.48 178.78,216.49 179.06,216.50 C 179.34,216.51 179.65,216.51 179.94,216.50 C 180.22,216.49 180.50,216.47 180.77,216.45 C 181.05,216.42 181.31,216.38 181.57,216.34 C 181.83,216.29 182.08,216.24 182.33,216.17 C 182.57,216.11 182.81,216.04 183.05,215.95 C 183.28,215.87 183.51,215.78 183.73,215.68 C 183.95,215.58 184.16,215.47 184.37,215.35 C 184.57,215.23 184.77,215.11 184.97,214.97 C 185.16,214.83 185.34,214.70 185.53,214.53 C 185.73,214.36 185.93,214.18 186.14,213.97 C 186.35,213.76 186.57,213.53 186.80,213.28 C 187.02,213.03 187.26,212.76 187.50,212.47 C 187.74,212.18 187.99,211.86 188.25,211.53 C 188.51,211.20 188.77,210.84 189.05,210.47 C 189.32,210.09 189.60,209.70 189.89,209.28 C 190.18,208.86 190.48,208.43 190.78,207.97 C 191.09,207.51 191.38,206.99 191.72,206.53 C 192.06,206.08 192.43,205.65 192.82,205.24 C 193.21,204.84 193.64,204.46 194.09,204.10 C 194.54,203.75 195.01,203.42 195.52,203.11 C 196.02,202.80 196.55,202.52 197.11,202.27 C 197.67,202.01 198.25,201.78 198.87,201.57 C 199.48,201.36 200.12,201.18 200.79,201.02 C 201.46,200.87 202.15,200.73 202.88,200.62 C 203.60,200.52 204.42,200.46 205.12,200.38 C 205.83,200.29 206.50,200.21 207.12,200.13 C 207.74,200.05 208.32,199.98 208.85,199.90 C 209.39,199.82 209.88,199.75 210.33,199.67 C 210.78,199.60 211.18,199.52 211.55,199.45 C 211.91,199.38 212.23,199.31 212.51,199.24 C 212.79,199.17 213.02,199.11 213.21,199.04 C 213.40,198.97 213.55,198.91 213.66,198.84 C 213.76,198.78 213.79,198.73 213.84,198.66 C 213.90,198.59 213.95,198.51 214.00,198.42 C 214.05,198.34 214.09,198.24 214.12,198.14 C 214.16,198.04 214.19,197.93 214.22,197.81 C 214.24,197.70 214.27,197.57 214.28,197.44 C 214.30,197.30 214.31,197.16 214.31,197.02 C 214.32,196.87 214.32,196.71 214.31,196.55 C 214.31,196.38 214.30,196.21 214.28,196.03 C 214.27,195.85 214.22,195.63 214.22,195.47 C 214.21,195.30 214.23,195.16 214.26,195.04 C 214.29,194.92 214.33,194.82 214.40,194.74 C 214.46,194.67 214.54,194.61 214.64,194.58 C 214.74,194.55 214.85,194.54 214.98,194.55 C 215.12,194.56 215.26,194.59 215.43,194.65 C 215.60,194.70 215.78,194.78 215.98,194.88 C 216.18,194.98 216.39,195.11 216.62,195.25 C 216.86,195.39 217.12,195.62 217.38,195.75 C 217.63,195.88 217.88,195.96 218.13,196.01 C 218.39,196.05 218.64,196.06 218.90,196.02 C 219.15,195.99 219.41,195.91 219.67,195.80 C 219.93,195.68 220.19,195.52 220.45,195.33 C 220.71,195.13 220.98,194.89 221.24,194.62 C 221.51,194.34 221.77,194.02 222.04,193.66 C 222.31,193.31 222.57,192.91 222.84,192.47 C 223.11,192.03 223.38,191.55 223.66,191.03 C 223.94,190.51 224.23,189.95 224.52,189.35 C 224.82,188.75 225.13,188.11 225.45,187.43 C 225.76,186.75 226.09,186.03 226.42,185.27 C 226.76,184.50 227.10,183.70 227.45,182.86 C 227.81,182.02 228.17,181.13 228.54,180.21 C 228.91,179.29 229.29,178.32 229.68,177.32 C 230.07,176.32 230.47,175.27 230.88,174.19 C 231.28,173.10 231.74,171.87 232.12,170.81 C 232.51,169.75 232.87,168.76 233.20,167.84 C 233.52,166.91 233.82,166.05 234.09,165.26 C 234.35,164.46 234.59,163.74 234.80,163.08 C 235.00,162.42 235.18,161.82 235.33,161.30 C 235.48,160.77 235.59,160.31 235.68,159.91 C 235.77,159.52 235.82,159.19 235.85,158.93 C 235.88,158.67 235.88,158.47 235.84,158.34 C 235.81,158.21 235.76,158.21 235.66,158.16 C 235.56,158.10 235.42,158.04 235.24,157.99 C 235.07,157.94 234.85,157.89 234.60,157.85 C 234.35,157.81 234.06,157.77 233.73,157.73 C 233.41,157.70 233.04,157.67 232.64,157.64 C 232.24,157.61 231.80,157.59 231.32,157.57 C 230.84,157.55 230.33,157.54 229.77,157.52 C 229.22,157.51 228.63,157.50 228.00,157.50 C 227.37,157.50 226.63,157.51 226.00,157.50 C 225.37,157.49 224.79,157.48 224.24,157.46 C 223.70,157.44 223.19,157.42 222.73,157.38 C 222.26,157.35 221.84,157.31 221.45,157.27 C 221.07,157.22 220.73,157.17 220.42,157.11 C 220.12,157.05 219.86,156.99 219.63,156.91 C 219.41,156.84 219.23,156.76 219.09,156.68 C 218.94,156.60 218.84,156.50 218.78,156.41 C 218.72,156.31 218.69,156.20 218.72,156.09 C 218.75,155.99 218.84,155.89 218.98,155.79 C 219.12,155.69 219.31,155.59 219.55,155.49 C 219.80,155.39 220.10,155.30 220.45,155.20 C 220.81,155.11 221.21,155.01 221.67,154.92 C 222.13,154.83 222.64,154.74 223.21,154.65 C 223.78,154.56 224.40,154.47 225.07,154.38 C 225.74,154.30 226.47,154.21 227.25,154.12 C 228.03,154.04 228.94,154.04 229.75,153.88 C 230.56,153.71 231.35,153.47 232.12,153.15 C 232.88,152.83 233.63,152.43 234.35,151.95 C 235.07,151.46 235.77,150.90 236.45,150.27 C 237.13,149.63 237.79,148.91 238.42,148.11 C 239.06,147.31 239.67,146.43 240.26,145.48 C 240.85,144.52 241.42,143.48 241.96,142.37 C 242.51,141.25 243.03,140.06 243.53,138.78 C 244.03,137.51 244.49,135.97 244.97,134.72 C 245.44,133.47 245.91,132.32 246.38,131.28 C 246.84,130.24 247.30,129.30 247.75,128.47 C 248.20,127.64 248.65,126.91 249.09,126.28 C 249.54,125.66 249.97,125.14 250.41,124.72 C 250.84,124.30 251.27,123.99 251.69,123.78 C 252.11,123.57 252.53,123.47 252.94,123.47 C 253.35,123.47 253.76,123.57 254.16,123.78 C 254.56,123.99 254.98,124.37 255.34,124.72 C 255.71,125.06 256.05,125.44 256.37,125.85 C 256.68,126.26 256.97,126.70 257.23,127.18 C 257.49,127.65 257.72,128.16 257.92,128.70 C 258.13,129.24 258.30,129.82 258.45,130.42 C 258.60,131.03 258.73,131.67 258.82,132.34 C 258.92,133.01 258.98,133.71 259.02,134.45 C 259.06,135.18 259.08,135.95 259.06,136.75 C 259.05,137.55 258.98,138.39 258.94,139.25 C 258.89,140.11 258.85,140.99 258.80,141.91 C 258.75,142.82 258.70,143.76 258.64,144.72 C 258.59,145.68 258.53,146.67 258.47,147.69 C 258.41,148.70 258.35,149.74 258.28,150.81 C 258.22,151.88 258.15,152.97 258.08,154.09 C 258.01,155.21 257.93,156.36 257.86,157.53 C 257.78,158.70 257.71,159.90 257.62,161.12 C 257.54,162.35 257.43,163.73 257.38,164.88 C 257.32,166.02 257.30,167.07 257.30,168.01 C 257.31,168.95 257.35,169.79 257.41,170.52 C 257.48,171.26 257.58,171.89 257.70,172.42 C 257.83,172.95 257.99,173.38 258.17,173.70 C 258.36,174.03 258.57,174.25 258.82,174.37 C 259.07,174.49 259.34,174.50 259.65,174.41 C 259.95,174.33 260.29,174.14 260.66,173.84 C 261.02,173.55 261.45,173.03 261.84,172.66 C 262.24,172.28 262.62,171.93 263.01,171.60 C 263.39,171.27 263.77,170.96 264.15,170.68 C 264.52,170.39 264.90,170.13 265.27,169.89 C 265.63,169.65 266.00,169.43 266.36,169.23 C 266.72,169.04 267.08,168.86 267.43,168.71 C 267.78,168.56 268.13,168.43 268.48,168.32 C 268.82,168.21 269.16,168.13 269.50,168.06 C 269.84,168.00 270.18,167.97 270.50,167.94 C 270.82,167.90 271.13,167.88 271.43,167.87 C 271.73,167.85 272.01,167.85 272.29,167.85 C 272.56,167.86 272.83,167.87 273.08,167.89 C 273.33,167.91 273.57,167.94 273.80,167.98 C 274.02,168.02 274.24,168.07 274.45,168.13 C 274.65,168.19 274.84,168.26 275.02,168.34 C 275.20,168.41 275.37,168.50 275.53,168.59 C 275.69,168.69 275.87,168.74 275.97,168.91 C 276.07,169.07 276.13,169.30 276.14,169.59 C 276.15,169.89 276.12,170.24 276.05,170.66 C 275.97,171.07 275.85,171.55 275.69,172.09 C 275.52,172.64 275.32,173.24 275.06,173.91 C 274.81,174.57 274.51,175.30 274.17,176.09 C 273.83,176.89 273.45,177.74 273.02,178.66 C 272.59,179.57 272.11,180.55 271.59,181.59 C 271.08,182.64 270.38,183.87 269.91,184.91 C 269.43,185.94 269.04,186.92 268.74,187.82 C 268.44,188.73 268.23,189.56 268.10,190.34 C 267.98,191.11 267.94,191.81 267.98,192.45 C 268.03,193.09 268.17,193.67 268.39,194.17 C 268.61,194.68 268.92,195.12 269.32,195.49 C 269.72,195.87 270.20,196.17 270.77,196.41 C 271.35,196.65 272.00,196.83 272.75,196.94 C 273.50,197.05 274.41,197.03 275.25,197.06 C 276.09,197.09 276.94,197.11 277.80,197.12 C 278.65,197.14 279.52,197.14 280.39,197.12 C 281.26,197.11 282.14,197.09 283.03,197.06 C 283.92,197.03 284.82,196.99 285.72,196.94 C 286.62,196.89 287.53,196.82 288.45,196.75 C 289.37,196.68 290.30,196.59 291.23,196.50 C 292.17,196.41 293.11,196.30 294.06,196.19 C 295.01,196.07 295.99,195.93 296.94,195.81 C 297.88,195.70 298.81,195.59 299.72,195.48 C 300.63,195.38 301.53,195.29 302.41,195.20 C 303.29,195.12 304.15,195.04 305.00,194.97 C 305.85,194.90 306.68,194.84 307.50,194.78 C 308.32,194.73 309.12,194.68 309.91,194.64 C 310.69,194.60 311.46,194.57 312.22,194.55 C 312.97,194.52 313.71,194.51 314.44,194.50 C 315.16,194.49 315.88,194.50 316.56,194.50 C 317.24,194.50 317.90,194.49 318.53,194.48 C 319.16,194.48 319.77,194.47 320.34,194.45 C 320.92,194.44 321.47,194.42 322.00,194.41 C 322.53,194.39 323.03,194.37 323.50,194.34 C 323.97,194.32 324.42,194.29 324.84,194.27 C 325.27,194.24 325.66,194.21 326.03,194.17 C 326.40,194.14 326.74,194.10 327.06,194.06 C 327.38,194.02 327.66,193.99 327.94,193.94 C 328.22,193.89 328.49,193.82 328.75,193.75 C 329.01,193.68 329.26,193.59 329.50,193.50 C 329.74,193.41 329.97,193.30 330.19,193.19 C 330.41,193.07 330.61,192.95 330.81,192.81 C 331.01,192.68 331.20,192.53 331.38,192.38 C 331.55,192.22 331.72,192.05 331.88,191.88 C 332.03,191.70 332.18,191.51 332.31,191.31 C 332.45,191.11 332.56,190.88 332.69,190.69 C 332.82,190.49 332.95,190.31 333.09,190.14 C 333.23,189.97 333.38,189.82 333.53,189.67 C 333.68,189.53 333.84,189.40 334.00,189.28 C 334.16,189.16 334.33,189.06 334.50,188.97 C 334.67,188.88 334.85,188.80 335.03,188.73 C 335.21,188.67 335.40,188.62 335.59,188.58 C 335.79,188.54 335.98,188.51 336.19,188.50 C 336.39,188.49 336.61,188.49 336.81,188.50 C 337.01,188.51 337.21,188.53 337.39,188.56 C 337.58,188.59 337.75,188.64 337.92,188.69 C 338.09,188.74 338.25,188.80 338.41,188.88 C 338.56,188.95 338.71,189.03 338.84,189.12 C 338.98,189.22 339.11,189.32 339.23,189.44 C 339.36,189.55 339.47,189.68 339.58,189.81 C 339.68,189.95 339.78,190.09 339.88,190.25 C 339.97,190.41 340.03,190.59 340.12,190.75 C 340.22,190.91 340.33,191.06 340.46,191.20 C 340.59,191.33 340.73,191.46 340.88,191.59 C 341.04,191.71 341.21,191.82 341.39,191.92 C 341.57,192.02 341.77,192.12 341.98,192.20 C 342.20,192.29 342.42,192.36 342.66,192.43 C 342.90,192.50 343.16,192.55 343.43,192.60 C 343.70,192.65 343.98,192.69 344.28,192.72 C 344.58,192.75 344.93,192.75 345.22,192.78 C 345.51,192.81 345.79,192.84 346.04,192.88 C 346.29,192.92 346.53,192.97 346.74,193.02 C 346.96,193.08 347.15,193.14 347.33,193.20 C 347.50,193.27 347.66,193.34 347.80,193.42 C 347.93,193.50 348.05,193.59 348.15,193.68 C 348.25,193.77 348.32,193.87 348.38,193.98 C 348.44,194.08 348.48,194.19 348.50,194.31 C 348.52,194.43 348.52,194.56 348.50,194.69 C 348.48,194.82 348.43,194.96 348.37,195.10 C 348.30,195.25 348.21,195.40 348.10,195.55 C 347.99,195.71 347.86,195.88 347.70,196.05 C 347.55,196.22 347.37,196.39 347.17,196.58 C 346.97,196.76 346.75,196.95 346.51,197.15 C 346.26,197.35 346.00,197.55 345.71,197.76 C 345.42,197.97 345.11,198.18 344.78,198.41 C 344.45,198.63 344.08,198.88 343.72,199.09 C 343.36,199.31 342.98,199.52 342.60,199.71 C 342.22,199.90 341.83,200.09 341.43,200.26 C 341.03,200.43 340.62,200.59 340.20,200.73 C 339.79,200.88 339.36,201.02 338.92,201.14 C 338.49,201.26 338.04,201.38 337.59,201.48 C 337.13,201.58 336.67,201.67 336.20,201.74 C 335.72,201.82 335.24,201.88 334.75,201.94 C 334.26,201.99 333.72,202.02 333.25,202.06 C 332.78,202.11 332.33,202.15 331.91,202.20 C 331.50,202.24 331.11,202.29 330.74,202.34 C 330.38,202.38 330.04,202.43 329.73,202.48 C 329.43,202.54 329.14,202.59 328.89,202.64 C 328.64,202.69 328.41,202.75 328.21,202.80 C 328.01,202.86 327.84,202.92 327.70,202.98 C 327.55,203.04 327.43,203.10 327.34,203.16 C 327.25,203.22 327.21,203.28 327.16,203.34 C 327.10,203.41 327.06,203.48 327.02,203.55 C 326.99,203.63 326.96,203.71 326.95,203.79 C 326.93,203.87 326.92,203.96 326.92,204.05 C 326.92,204.14 326.93,204.23 326.95,204.33 C 326.97,204.43 327.00,204.53 327.04,204.63 C 327.08,204.74 327.12,204.85 327.18,204.96 C 327.24,205.07 327.30,205.19 327.38,205.31 C 327.45,205.43 327.55,205.55 327.62,205.69 C 327.70,205.82 327.76,205.96 327.81,206.11 C 327.86,206.26 327.91,206.41 327.94,206.58 C 327.97,206.74 327.99,206.91 328.00,207.09 C 328.01,207.27 328.01,207.46 328.00,207.66 C 327.99,207.85 327.97,208.05 327.94,208.27 C 327.91,208.48 327.86,208.70 327.81,208.92 C 327.76,209.15 327.70,209.38 327.62,209.62 C 327.55,209.87 327.45,210.04 327.38,210.38 C 327.30,210.71 327.23,211.12 327.17,211.62 C 327.11,212.12 327.06,212.71 327.02,213.38 C 326.97,214.04 326.93,214.79 326.91,215.62 C 326.88,216.46 326.86,217.38 326.84,218.38 C 326.83,219.38 326.83,220.46 326.83,221.62 C 326.83,222.79 326.84,224.04 326.86,225.38 C 326.88,226.71 326.90,228.12 326.94,229.62 C 326.97,231.12 327.00,232.89 327.06,234.38 C 327.13,235.86 327.22,237.26 327.34,238.55 C 327.45,239.85 327.59,241.06 327.76,242.16 C 327.92,243.27 328.11,244.29 328.33,245.20 C 328.54,246.12 328.78,246.94 329.05,247.67 C 329.31,248.40 329.60,249.03 329.91,249.57 C 330.23,250.11 330.57,250.55 330.93,250.90 C 331.29,251.25 331.68,251.50 332.09,251.66 C 332.51,251.81 332.98,251.77 333.41,251.84 C 333.84,251.91 334.26,251.99 334.68,252.07 C 335.10,252.15 335.51,252.24 335.91,252.34 C 336.32,252.43 336.72,252.53 337.11,252.64 C 337.50,252.75 337.89,252.86 338.27,252.98 C 338.64,253.11 339.02,253.23 339.38,253.37 C 339.75,253.50 340.11,253.64 340.46,253.79 C 340.81,253.94 341.16,254.09 341.50,254.25 C 341.84,254.41 342.18,254.59 342.50,254.75 C 342.82,254.91 343.12,255.07 343.41,255.23 C 343.70,255.38 343.98,255.53 344.24,255.68 C 344.50,255.83 344.75,255.97 344.98,256.11 C 345.22,256.25 345.44,256.38 345.64,256.52 C 345.85,256.65 346.04,256.77 346.21,256.90 C 346.39,257.02 346.55,257.14 346.70,257.26 C 346.84,257.37 346.98,257.49 347.09,257.59 C 347.21,257.70 347.31,257.80 347.41,257.91 C 347.50,258.01 347.60,258.12 347.68,258.23 C 347.76,258.33 347.84,258.44 347.91,258.55 C 347.99,258.67 348.05,258.78 348.11,258.89 C 348.17,259.00 348.22,259.12 348.27,259.23 C 348.31,259.35 348.35,259.47 348.38,259.59 C 348.42,259.70 348.44,259.82 348.46,259.95 C 348.48,260.07 348.49,260.19 348.50,260.31 C 348.51,260.44 348.52,260.57 348.50,260.69 C 348.48,260.81 348.44,260.92 348.38,261.02 C 348.32,261.13 348.25,261.23 348.15,261.32 C 348.05,261.41 347.93,261.50 347.80,261.58 C 347.66,261.66 347.50,261.73 347.33,261.80 C 347.15,261.86 346.96,261.92 346.74,261.98 C 346.53,262.03 346.29,262.08 346.04,262.12 C 345.79,262.16 345.51,262.19 345.22,262.22 C 344.93,262.25 344.58,262.25 344.28,262.28 C 343.98,262.31 343.70,262.34 343.43,262.38 C 343.16,262.42 342.90,262.47 342.66,262.52 C 342.42,262.58 342.20,262.64 341.98,262.70 C 341.77,262.77 341.57,262.84 341.39,262.92 C 341.21,263.00 341.04,263.09 340.88,263.18 C 340.73,263.27 340.59,263.37 340.46,263.48 C 340.33,263.58 340.22,263.69 340.12,263.81 C 340.03,263.93 339.97,264.07 339.88,264.19 C 339.78,264.31 339.68,264.42 339.58,264.53 C 339.47,264.64 339.36,264.74 339.23,264.84 C 339.11,264.94 338.98,265.04 338.84,265.12 C 338.71,265.21 338.56,265.30 338.41,265.38 C 338.25,265.45 338.09,265.53 337.92,265.59 C 337.75,265.66 337.58,265.72 337.39,265.78 C 337.21,265.84 337.01,265.89 336.81,265.94 C 336.61,265.98 336.39,266.04 336.19,266.06 C 335.98,266.09 335.79,266.10 335.59,266.09 C 335.40,266.09 335.21,266.07 335.03,266.03 C 334.85,265.99 334.67,265.94 334.50,265.88 C 334.33,265.81 334.16,265.72 334.00,265.62 C 333.84,265.53 333.68,265.41 333.53,265.28 C 333.38,265.15 333.23,265.01 333.09,264.84 C 332.95,264.68 332.82,264.51 332.69,264.31 C 332.56,264.12 332.45,263.89 332.31,263.69 C 332.18,263.49 332.04,263.30 331.89,263.12 C 331.74,262.95 331.59,262.78 331.42,262.62 C 331.26,262.47 331.09,262.32 330.91,262.19 C 330.73,262.05 330.54,261.93 330.34,261.81 C 330.15,261.70 329.95,261.59 329.73,261.50 C 329.52,261.41 329.30,261.32 329.08,261.25 C 328.85,261.18 328.62,261.11 328.38,261.06 C 328.13,261.01 328.02,260.98 327.62,260.94 C 327.23,260.89 326.70,260.84 326.03,260.78 C 325.36,260.72 324.55,260.66 323.59,260.59 C 322.64,260.53 321.55,260.45 320.31,260.38 C 319.08,260.30 317.70,260.21 316.19,260.12 C 314.67,260.04 313.02,259.94 311.22,259.84 C 309.42,259.74 307.48,259.64 305.41,259.53 C 303.33,259.42 301.11,259.31 298.75,259.19 C 296.39,259.07 293.60,258.93 291.25,258.81 C 288.90,258.70 286.71,258.60 284.66,258.51 C 282.62,258.42 280.73,258.34 278.99,258.27 C 277.25,258.21 275.67,258.15 274.23,258.11 C 272.80,258.07 271.52,258.04 270.39,258.02 C 269.26,258.00 268.29,257.99 267.46,257.99 C 266.64,258.00 265.96,258.01 265.45,258.04 C 264.93,258.07 264.56,258.11 264.34,258.16 C 264.13,258.21 264.21,258.28 264.16,258.34 C 264.10,258.40 264.06,258.46 264.02,258.52 C 263.99,258.58 263.96,258.64 263.95,258.70 C 263.93,258.75 263.92,258.81 263.92,258.86 C 263.92,258.91 263.93,258.96 263.95,259.02 C 263.97,259.07 264.00,259.12 264.04,259.16 C 264.08,259.21 264.12,259.26 264.18,259.30 C 264.24,259.35 264.30,259.39 264.38,259.44 C 264.45,259.48 264.52,259.46 264.62,259.56 C 264.73,259.67 264.87,259.83 265.03,260.06 C 265.19,260.29 265.38,260.58 265.59,260.94 C 265.81,261.29 266.05,261.71 266.31,262.19 C 266.58,262.67 266.87,263.21 267.19,263.81 C 267.51,264.42 267.85,265.08 268.22,265.81 C 268.59,266.54 268.98,267.33 269.41,268.19 C 269.83,269.04 270.28,269.96 270.75,270.94 C 271.22,271.92 271.79,273.08 272.25,274.06 C 272.71,275.05 273.12,275.97 273.49,276.84 C 273.86,277.70 274.19,278.51 274.48,279.26 C 274.76,280.01 275.00,280.70 275.20,281.33 C 275.40,281.96 275.56,282.53 275.67,283.05 C 275.79,283.56 275.86,284.02 275.88,284.41 C 275.91,284.81 275.89,285.15 275.84,285.43 C 275.78,285.71 275.68,285.93 275.53,286.09 C 275.39,286.26 275.16,286.31 274.97,286.41 C 274.77,286.50 274.57,286.59 274.37,286.66 C 274.16,286.74 273.95,286.81 273.73,286.87 C 273.51,286.93 273.28,286.98 273.05,287.02 C 272.81,287.06 272.57,287.09 272.33,287.11 C 272.08,287.13 271.83,287.14 271.57,287.15 C 271.31,287.15 271.05,287.15 270.77,287.13 C 270.50,287.12 270.22,287.10 269.94,287.06 C 269.65,287.03 269.34,286.98 269.06,286.94 C 268.79,286.89 268.53,286.84 268.29,286.79 C 268.05,286.74 267.82,286.68 267.62,286.62 C 267.41,286.56 267.22,286.49 267.05,286.42 C 266.87,286.35 266.72,286.28 266.58,286.20 C 266.44,286.13 266.32,286.05 266.21,285.96 C 266.11,285.88 266.02,285.79 265.95,285.70 C 265.87,285.60 265.82,285.51 265.78,285.41 C 265.74,285.31 265.76,285.21 265.72,285.09 C 265.68,284.98 265.61,284.85 265.52,284.71 C 265.44,284.57 265.33,284.42 265.20,284.26 C 265.06,284.10 264.91,283.92 264.73,283.73 C 264.56,283.55 264.36,283.35 264.14,283.14 C 263.92,282.93 263.68,282.71 263.41,282.48 C 263.15,282.24 262.86,282.00 262.55,281.74 C 262.25,281.49 261.92,281.22 261.56,280.94 C 261.21,280.66 260.78,280.21 260.44,280.06 C 260.09,279.92 259.78,279.92 259.50,280.08 C 259.22,280.23 258.97,280.53 258.75,280.98 C 258.53,281.43 258.34,282.03 258.19,282.78 C 258.03,283.53 257.91,284.42 257.81,285.47 C 257.72,286.51 257.66,287.71 257.62,289.05 C 257.59,290.39 257.59,291.88 257.62,293.52 C 257.66,295.15 257.72,296.94 257.81,298.88 C 257.91,300.81 258.09,303.15 258.19,305.12 C 258.28,307.10 258.35,308.96 258.38,310.71 C 258.42,312.46 258.42,314.10 258.40,315.63 C 258.37,317.16 258.32,318.58 258.23,319.89 C 258.15,321.20 258.04,322.40 257.89,323.48 C 257.75,324.57 257.57,325.55 257.37,326.41 C 257.16,327.28 256.93,328.04 256.66,328.68 C 256.40,329.32 256.11,329.86 255.78,330.28 C 255.46,330.70 255.06,330.93 254.72,331.22 C 254.38,331.51 254.06,331.77 253.75,332.00 C 253.44,332.23 253.15,332.44 252.88,332.62 C 252.60,332.81 252.34,332.96 252.09,333.09 C 251.85,333.22 251.62,333.33 251.41,333.41 C 251.19,333.48 250.99,333.54 250.81,333.56 C 250.63,333.59 250.46,333.59 250.31,333.56 C 250.16,333.54 250.03,333.48 249.91,333.41 Z" />
    </clipPath>
  </defs>
  <path d="M 249.91,333.41 C 249.79,333.33 249.72,333.27 249.59,333.09 C 249.47,332.92 249.33,332.67 249.16,332.35 C 249.00,332.03 248.82,331.64 248.62,331.18 C 248.42,330.72 248.19,330.18 247.95,329.58 C 247.71,328.97 247.45,328.30 247.17,327.55 C 246.89,326.80 246.59,325.98 246.27,325.09 C 245.95,324.19 245.62,323.23 245.26,322.20 C 244.90,321.16 244.52,320.05 244.12,318.88 C 243.73,317.70 243.32,316.30 242.88,315.12 C 242.43,313.95 241.96,312.84 241.47,311.81 C 240.97,310.78 240.45,309.82 239.91,308.94 C 239.36,308.05 238.79,307.24 238.19,306.50 C 237.59,305.76 236.96,305.09 236.31,304.50 C 235.66,303.91 234.98,303.39 234.28,302.94 C 233.58,302.49 232.85,302.11 232.09,301.81 C 231.34,301.51 230.56,301.28 229.75,301.12 C 228.94,300.97 228.03,300.96 227.25,300.88 C 226.47,300.79 225.74,300.70 225.07,300.62 C 224.40,300.53 223.78,300.44 223.21,300.35 C 222.64,300.26 222.13,300.17 221.67,300.08 C 221.21,299.99 220.81,299.89 220.45,299.80 C 220.10,299.70 219.80,299.61 219.55,299.51 C 219.31,299.41 219.12,299.31 218.98,299.21 C 218.84,299.11 218.75,299.01 218.72,298.91 C 218.69,298.80 218.72,298.69 218.78,298.59 C 218.84,298.50 218.94,298.40 219.07,298.32 C 219.20,298.24 219.38,298.16 219.59,298.09 C 219.80,298.01 220.04,297.95 220.33,297.89 C 220.61,297.83 220.94,297.78 221.30,297.73 C 221.66,297.69 222.06,297.65 222.49,297.62 C 222.93,297.58 223.40,297.56 223.91,297.54 C 224.43,297.52 224.98,297.51 225.56,297.50 C 226.15,297.49 226.85,297.50 227.44,297.50 C 228.03,297.50 228.59,297.49 229.12,297.48 C 229.64,297.46 230.14,297.45 230.60,297.43 C 231.06,297.41 231.49,297.39 231.89,297.36 C 232.29,297.33 232.65,297.30 232.98,297.27 C 233.32,297.23 233.62,297.19 233.88,297.15 C 234.15,297.11 234.38,297.06 234.59,297.01 C 234.79,296.96 234.96,296.90 235.09,296.84 C 235.23,296.79 235.33,296.79 235.41,296.66 C 235.48,296.53 235.52,296.33 235.52,296.07 C 235.53,295.81 235.50,295.48 235.45,295.09 C 235.39,294.69 235.30,294.23 235.17,293.70 C 235.05,293.18 234.89,292.58 234.70,291.92 C 234.51,291.26 234.29,290.54 234.04,289.74 C 233.79,288.95 233.50,288.09 233.18,287.16 C 232.86,286.24 232.51,285.25 232.12,284.19 C 231.74,283.13 231.28,281.90 230.88,280.81 C 230.47,279.73 230.07,278.68 229.68,277.68 C 229.29,276.68 228.91,275.71 228.54,274.79 C 228.17,273.87 227.81,272.98 227.45,272.14 C 227.10,271.30 226.76,270.50 226.42,269.73 C 226.09,268.97 225.76,268.25 225.45,267.57 C 225.13,266.89 224.82,266.25 224.52,265.65 C 224.23,265.05 223.94,264.49 223.66,263.97 C 223.38,263.45 223.11,262.97 222.84,262.53 C 222.58,262.09 222.33,261.69 222.09,261.32 C 221.84,260.95 221.61,260.63 221.38,260.34 C 221.16,260.05 220.94,259.79 220.73,259.58 C 220.53,259.36 220.33,259.19 220.14,259.05 C 219.95,258.91 219.77,258.81 219.60,258.74 C 219.43,258.68 219.27,258.65 219.12,258.66 C 218.96,258.68 218.82,258.73 218.69,258.81 C 218.55,258.90 218.44,259.07 218.31,259.19 C 218.19,259.30 218.06,259.41 217.94,259.52 C 217.81,259.62 217.69,259.71 217.56,259.80 C 217.44,259.88 217.31,259.96 217.19,260.03 C 217.06,260.10 216.94,260.16 216.81,260.22 C 216.69,260.27 216.56,260.32 216.44,260.36 C 216.31,260.40 216.19,260.43 216.06,260.45 C 215.94,260.48 215.81,260.49 215.69,260.50 C 215.56,260.51 215.43,260.51 215.31,260.50 C 215.19,260.49 215.08,260.46 214.97,260.42 C 214.86,260.38 214.76,260.33 214.66,260.27 C 214.56,260.20 214.46,260.12 214.38,260.03 C 214.29,259.94 214.20,259.84 214.12,259.72 C 214.05,259.60 213.97,259.47 213.91,259.33 C 213.84,259.18 213.78,259.03 213.72,258.86 C 213.66,258.69 213.61,258.51 213.56,258.31 C 213.52,258.12 213.52,257.89 213.44,257.69 C 213.35,257.49 213.22,257.29 213.05,257.11 C 212.87,256.92 212.65,256.75 212.39,256.58 C 212.13,256.41 211.82,256.25 211.47,256.09 C 211.12,255.94 210.72,255.79 210.28,255.66 C 209.84,255.52 209.36,255.39 208.83,255.27 C 208.30,255.14 207.73,255.03 207.11,254.92 C 206.49,254.82 205.83,254.72 205.12,254.62 C 204.42,254.53 203.60,254.49 202.88,254.38 C 202.15,254.26 201.44,254.11 200.75,253.92 C 200.06,253.74 199.40,253.52 198.75,253.27 C 198.10,253.01 197.48,252.73 196.88,252.41 C 196.27,252.09 195.69,251.73 195.12,251.34 C 194.56,250.96 194.02,250.53 193.50,250.08 C 192.98,249.62 192.48,249.13 192.00,248.61 C 191.52,248.09 191.06,247.53 190.62,246.94 C 190.19,246.35 189.79,245.65 189.38,245.06 C 188.96,244.48 188.54,243.93 188.12,243.42 C 187.71,242.91 187.29,242.45 186.88,242.02 C 186.46,241.59 186.04,241.20 185.62,240.84 C 185.21,240.49 184.79,240.18 184.38,239.91 C 183.96,239.63 183.54,239.40 183.12,239.20 C 182.71,239.01 182.29,238.85 181.88,238.73 C 181.46,238.62 181.04,238.54 180.62,238.50 C 180.21,238.46 179.77,238.49 179.38,238.50 C 178.98,238.51 178.60,238.52 178.25,238.55 C 177.90,238.57 177.56,238.60 177.25,238.64 C 176.94,238.68 176.65,238.73 176.38,238.78 C 176.10,238.84 175.85,238.90 175.62,238.97 C 175.40,239.04 175.19,239.12 175.00,239.20 C 174.81,239.29 174.65,239.38 174.50,239.48 C 174.35,239.59 174.23,239.70 174.12,239.81 C 174.02,239.93 173.98,240.08 173.88,240.19 C 173.77,240.30 173.63,240.39 173.47,240.47 C 173.31,240.55 173.12,240.61 172.91,240.66 C 172.69,240.70 172.45,240.73 172.19,240.75 C 171.92,240.77 171.63,240.77 171.31,240.75 C 170.99,240.73 170.65,240.70 170.28,240.66 C 169.91,240.61 169.52,240.55 169.09,240.47 C 168.67,240.39 168.22,240.30 167.75,240.19 C 167.28,240.08 166.75,239.93 166.25,239.81 C 165.75,239.70 165.25,239.59 164.75,239.48 C 164.25,239.38 163.75,239.29 163.25,239.20 C 162.75,239.12 162.25,239.04 161.75,238.97 C 161.25,238.90 160.75,238.84 160.25,238.78 C 159.75,238.73 159.25,238.68 158.75,238.64 C 158.25,238.60 157.75,238.57 157.25,238.55 C 156.75,238.52 156.25,238.51 155.75,238.50 C 155.25,238.49 154.73,238.50 154.25,238.50 C 153.77,238.50 153.32,238.49 152.90,238.48 C 152.47,238.46 152.07,238.45 151.70,238.43 C 151.32,238.41 150.97,238.39 150.64,238.36 C 150.31,238.33 150.01,238.30 149.73,238.27 C 149.46,238.23 149.20,238.19 148.98,238.15 C 148.75,238.11 148.55,238.06 148.37,238.01 C 148.19,237.96 148.04,237.90 147.91,237.84 C 147.78,237.79 147.69,237.72 147.59,237.66 C 147.50,237.59 147.41,237.52 147.33,237.45 C 147.25,237.38 147.17,237.31 147.11,237.23 C 147.04,237.16 146.99,237.08 146.94,237.00 C 146.89,236.92 146.85,236.84 146.81,236.75 C 146.78,236.66 146.75,236.58 146.73,236.48 C 146.72,236.39 146.71,236.30 146.70,236.20 C 146.70,236.11 146.71,236.01 146.72,235.91 C 146.73,235.80 146.79,235.70 146.78,235.59 C 146.77,235.49 146.74,235.39 146.67,235.28 C 146.61,235.18 146.51,235.07 146.39,234.97 C 146.27,234.86 146.12,234.76 145.94,234.66 C 145.76,234.55 145.55,234.45 145.31,234.34 C 145.08,234.24 144.81,234.14 144.52,234.03 C 144.22,233.93 143.90,233.82 143.55,233.72 C 143.20,233.61 142.82,233.51 142.41,233.41 C 142.00,233.30 141.50,233.21 141.09,233.09 C 140.68,232.97 140.30,232.83 139.95,232.68 C 139.59,232.52 139.26,232.35 138.96,232.16 C 138.66,231.98 138.39,231.77 138.14,231.55 C 137.89,231.32 137.68,231.08 137.48,230.83 C 137.29,230.57 137.13,230.30 136.99,230.01 C 136.86,229.72 136.75,229.41 136.66,229.09 C 136.58,228.76 136.53,228.42 136.50,228.06 C 136.47,227.70 136.48,227.30 136.50,226.94 C 136.52,226.58 136.57,226.24 136.65,225.91 C 136.72,225.59 136.82,225.28 136.95,224.99 C 137.07,224.70 137.22,224.43 137.39,224.17 C 137.56,223.92 137.76,223.68 137.98,223.45 C 138.21,223.23 138.45,223.02 138.73,222.84 C 139.00,222.65 139.30,222.48 139.62,222.32 C 139.94,222.17 140.29,222.03 140.66,221.91 C 141.03,221.79 141.46,221.70 141.84,221.59 C 142.22,221.49 142.58,221.37 142.93,221.26 C 143.27,221.14 143.60,221.02 143.91,220.90 C 144.23,220.77 144.52,220.65 144.80,220.52 C 145.07,220.38 145.33,220.25 145.58,220.11 C 145.82,219.97 146.05,219.83 146.26,219.68 C 146.47,219.53 146.66,219.38 146.84,219.23 C 147.01,219.07 147.17,218.91 147.31,218.75 C 147.45,218.59 147.55,218.41 147.69,218.25 C 147.82,218.09 147.96,217.94 148.11,217.80 C 148.26,217.65 148.41,217.52 148.58,217.39 C 148.74,217.26 148.91,217.14 149.09,217.03 C 149.27,216.92 149.46,216.82 149.66,216.72 C 149.85,216.62 150.05,216.53 150.27,216.45 C 150.48,216.37 150.70,216.30 150.92,216.23 C 151.15,216.17 151.38,216.11 151.62,216.06 C 151.87,216.01 152.11,215.98 152.38,215.94 C 152.64,215.90 152.91,215.86 153.20,215.83 C 153.49,215.79 153.79,215.76 154.11,215.73 C 154.42,215.71 154.75,215.68 155.09,215.66 C 155.43,215.63 155.79,215.61 156.16,215.59 C 156.52,215.58 156.90,215.56 157.30,215.55 C 157.69,215.53 158.10,215.52 158.52,215.52 C 158.93,215.51 159.37,215.50 159.81,215.50 C 160.26,215.50 160.74,215.51 161.19,215.50 C 161.64,215.49 162.07,215.48 162.50,215.47 C 162.93,215.45 163.34,215.43 163.75,215.41 C 164.16,215.38 164.55,215.35 164.94,215.31 C 165.32,215.28 165.70,215.23 166.06,215.19 C 166.43,215.14 166.78,215.09 167.12,215.03 C 167.47,214.97 167.80,214.91 168.12,214.84 C 168.45,214.78 168.76,214.70 169.06,214.62 C 169.36,214.55 169.66,214.45 169.94,214.38 C 170.22,214.30 170.49,214.25 170.75,214.20 C 171.01,214.16 171.26,214.13 171.50,214.11 C 171.74,214.09 171.97,214.09 172.19,214.09 C 172.41,214.10 172.61,214.12 172.81,214.16 C 173.01,214.19 173.20,214.24 173.38,214.30 C 173.55,214.36 173.72,214.43 173.88,214.52 C 174.03,214.60 174.18,214.70 174.31,214.81 C 174.45,214.92 174.55,215.07 174.69,215.19 C 174.82,215.30 174.97,215.41 175.12,215.52 C 175.28,215.62 175.45,215.71 175.62,215.80 C 175.80,215.88 175.99,215.96 176.19,216.03 C 176.39,216.10 176.59,216.16 176.81,216.22 C 177.03,216.27 177.26,216.32 177.50,216.36 C 177.74,216.40 177.99,216.43 178.25,216.45 C 178.51,216.48 178.78,216.49 179.06,216.50 C 179.34,216.51 179.65,216.51 179.94,216.50 C 180.22,216.49 180.50,216.47 180.77,216.45 C 181.05,216.42 181.31,216.38 181.57,216.34 C 181.83,216.29 182.08,216.24 182.33,216.17 C 182.57,216.11 182.81,216.04 183.05,215.95 C 183.28,215.87 183.51,215.78 183.73,215.68 C 183.95,215.58 184.16,215.47 184.37,215.35 C 184.57,215.23 184.77,215.11 184.97,214.97 C 185.16,214.83 185.34,214.70 185.53,214.53 C 185.73,214.36 185.93,214.18 186.14,213.97 C 186.35,213.76 186.57,213.53 186.80,213.28 C 187.02,213.03 187.26,212.76 187.50,212.47 C 187.74,212.18 187.99,211.86 188.25,211.53 C 188.51,211.20 188.77,210.84 189.05,210.47 C 189.32,210.09 189.60,209.70 189.89,209.28 C 190.18,208.86 190.48,208.43 190.78,207.97 C 191.09,207.51 191.38,206.99 191.72,206.53 C 192.06,206.08 192.43,205.65 192.82,205.24 C 193.21,204.84 193.64,204.46 194.09,204.10 C 194.54,203.75 195.01,203.42 195.52,203.11 C 196.02,202.80 196.55,202.52 197.11,202.27 C 197.67,202.01 198.25,201.78 198.87,201.57 C 199.48,201.36 200.12,201.18 200.79,201.02 C 201.46,200.87 202.15,200.73 202.88,200.62 C 203.60,200.52 204.42,200.46 205.12,200.38 C 205.83,200.29 206.50,200.21 207.12,200.13 C 207.74,200.05 208.32,199.98 208.85,199.90 C 209.39,199.82 209.88,199.75 210.33,199.67 C 210.78,199.60 211.18,199.52 211.55,199.45 C 211.91,199.38 212.23,199.31 212.51,199.24 C 212.79,199.17 213.02,199.11 213.21,199.04 C 213.40,198.97 213.55,198.91 213.66,198.84 C 213.76,198.78 213.79,198.73 213.84,198.66 C 213.90,198.59 213.95,198.51 214.00,198.42 C 214.05,198.34 214.09,198.24 214.12,198.14 C 214.16,198.04 214.19,197.93 214.22,197.81 C 214.24,197.70 214.27,197.57 214.28,197.44 C 214.30,197.30 214.31,197.16 214.31,197.02 C 214.32,196.87 214.32,196.71 214.31,196.55 C 214.31,196.38 214.30,196.21 214.28,196.03 C 214.27,195.85 214.22,195.63 214.22,195.47 C 214.21,195.30 214.23,195.16 214.26,195.04 C 214.29,194.92 214.33,194.82 214.40,194.74 C 214.46,194.67 214.54,194.61 214.64,194.58 C 214.74,194.55 214.85,194.54 214.98,194.55 C 215.12,194.56 215.26,194.59 215.43,194.65 C 215.60,194.70 215.78,194.78 215.98,194.88 C 216.18,194.98 216.39,195.11 216.62,195.25 C 216.86,195.39 217.12,195.62 217.38,195.75 C 217.63,195.88 217.88,195.96 218.13,196.01 C 218.39,196.05 218.64,196.06 218.90,196.02 C 219.15,195.99 219.41,195.91 219.67,195.80 C 219.93,195.68 220.19,195.52 220.45,195.33 C 220.71,195.13 220.98,194.89 221.24,194.62 C 221.51,194.34 221.77,194.02 222.04,193.66 C 222.31,193.31 222.57,192.91 222.84,192.47 C 223.11,192.03 223.38,191.55 223.66,191.03 C 223.94,190.51 224.23,189.95 224.52,189.35 C 224.82,188.75 225.13,188.11 225.45,187.43 C 225.76,186.75 226.09,186.03 226.42,185.27 C 226.76,184.50 227.10,183.70 227.45,182.86 C 227.81,182.02 228.17,181.13 228.54,180.21 C 228.91,179.29 229.29,178.32 229.68,177.32 C 230.07,176.32 230.47,175.27 230.88,174.19 C 231.28,173.10 231.74,171.87 232.12,170.81 C 232.51,169.75 232.87,168.76 233.20,167.84 C 233.52,166.91 233.82,166.05 234.09,165.26 C 234.35,164.46 234.59,163.74 234.80,163.08 C 235.00,162.42 235.18,161.82 235.33,161.30 C 235.48,160.77 235.59,160.31 235.68,159.91 C 235.77,159.52 235.82,159.19 235.85,158.93 C 235.88,158.67 235.88,158.47 235.84,158.34 C 235.81,158.21 235.76,158.21 235.66,158.16 C 235.56,158.10 235.42,158.04 235.24,157.99 C 235.07,157.94 234.85,157.89 234.60,157.85 C 234.35,157.81 234.06,157.77 233.73,157.73 C 233.41,157.70 233.04,157.67 232.64,157.64 C 232.24,157.61 231.80,157.59 231.32,157.57 C 230.84,157.55 230.33,157.54 229.77,157.52 C 229.22,157.51 228.63,157.50 228.00,157.50 C 227.37,157.50 226.63,157.51 226.00,157.50 C 225.37,157.49 224.79,157.48 224.24,157.46 C 223.70,157.44 223.19,157.42 222.73,157.38 C 222.26,157.35 221.84,157.31 221.45,157.27 C 221.07,157.22 220.73,157.17 220.42,157.11 C 220.12,157.05 219.86,156.99 219.63,156.91 C 219.41,156.84 219.23,156.76 219.09,156.68 C 218.94,156.60 218.84,156.50 218.78,156.41 C 218.72,156.31 218.69,156.20 218.72,156.09 C 218.75,155.99 218.84,155.89 218.98,155.79 C 219.12,155.69 219.31,155.59 219.55,155.49 C 219.80,155.39 220.10,155.30 220.45,155.20 C 220.81,155.11 221.21,155.01 221.67,154.92 C 222.13,154.83 222.64,154.74 223.21,154.65 C 223.78,154.56 224.40,154.47 225.07,154.38 C 225.74,154.30 226.47,154.21 227.25,154.12 C 228.03,154.04 228.94,154.04 229.75,153.88 C 230.56,153.71 231.35,153.47 232.12,153.15 C 232.88,152.83 233.63,152.43 234.35,151.95 C 235.07,151.46 235.77,150.90 236.45,150.27 C 237.13,149.63 237.79,148.91 238.42,148.11 C 239.06,147.31 239.67,146.43 240.26,145.48 C 240.85,144.52 241.42,143.48 241.96,142.37 C 242.51,141.25 243.03,140.06 243.53,138.78 C 244.03,137.51 244.49,135.97 244.97,134.72 C 245.44,133.47 245.91,132.32 246.38,131.28 C 246.84,130.24 247.30,129.30 247.75,128.47 C 248.20,127.64 248.65,126.91 249.09,126.28 C 249.54,125.66 249.97,125.14 250.41,124.72 C 250.84,124.30 251.27,123.99 251.69,123.78 C 252.11,123.57 252.53,123.47 252.94,123.47 C 253.35,123.47 253.76,123.57 254.16,123.78 C 254.56,123.99 254.98,124.37 255.34,124.72 C 255.71,125.06 256.05,125.44 256.37,125.85 C 256.68,126.26 256.97,126.70 257.23,127.18 C 257.49,127.65 257.72,128.16 257.92,128.70 C 258.13,129.24 258.30,129.82 258.45,130.42 C 258.60,131.03 258.73,131.67 258.82,132.34 C 258.92,133.01 258.98,133.71 259.02,134.45 C 259.06,135.18 259.08,135.95 259.06,136.75 C 259.05,137.55 258.98,138.39 258.94,139.25 C 258.89,140.11 258.85,140.99 258.80,141.91 C 258.75,142.82 258.70,143.76 258.64,144.72 C 258.59,145.68 258.53,146.67 258.47,147.69 C 258.41,148.70 258.35,149.74 258.28,150.81 C 258.22,151.88 258.15,152.97 258.08,154.09 C 258.01,155.21 257.93,156.36 257.86,157.53 C 257.78,158.70 257.71,159.90 257.62,161.12 C 257.54,162.35 257.43,163.73 257.38,164.88 C 257.32,166.02 257.30,167.07 257.30,168.01 C 257.31,168.95 257.35,169.79 257.41,170.52 C 257.48,171.26 257.58,171.89 257.70,172.42 C 257.83,172.95 257.99,173.38 258.17,173.70 C 258.36,174.03 258.57,174.25 258.82,174.37 C 259.07,174.49 259.34,174.50 259.65,174.41 C 259.95,174.33 260.29,174.14 260.66,173.84 C 261.02,173.55 261.45,173.03 261.84,172.66 C 262.24,172.28 262.62,171.93 263.01,171.60 C 263.39,171.27 263.77,170.96 264.15,170.68 C 264.52,170.39 264.90,170.13 265.27,169.89 C 265.63,169.65 266.00,169.43 266.36,169.23 C 266.72,169.04 267.08,168.86 267.43,168.71 C 267.78,168.56 268.13,168.43 268.48,168.32 C 268.82,168.21 269.16,168.13 269.50,168.06 C 269.84,168.00 270.18,167.97 270.50,167.94 C 270.82,167.90 271.13,167.88 271.43,167.87 C 271.73,167.85 272.01,167.85 272.29,167.85 C 272.56,167.86 272.83,167.87 273.08,167.89 C 273.33,167.91 273.57,167.94 273.80,167.98 C 274.02,168.02 274.24,168.07 274.45,168.13 C 274.65,168.19 274.84,168.26 275.02,168.34 C 275.20,168.41 275.37,168.50 275.53,168.59 C 275.69,168.69 275.87,168.74 275.97,168.91 C 276.07,169.07 276.13,169.30 276.14,169.59 C 276.15,169.89 276.12,170.24 276.05,170.66 C 275.97,171.07 275.85,171.55 275.69,172.09 C 275.52,172.64 275.32,173.24 275.06,173.91 C 274.81,174.57 274.51,175.30 274.17,176.09 C 273.83,176.89 273.45,177.74 273.02,178.66 C 272.59,179.57 272.11,180.55 271.59,181.59 C 271.08,182.64 270.38,183.87 269.91,184.91 C 269.43,185.94 269.04,186.92 268.74,187.82 C 268.44,188.73 268.23,189.56 268.10,190.34 C 267.98,191.11 267.94,191.81 267.98,192.45 C 268.03,193.09 268.17,193.67 268.39,194.17 C 268.61,194.68 268.92,195.12 269.32,195.49 C 269.72,195.87 270.20,196.17 270.77,196.41 C 271.35,196.65 272.00,196.83 272.75,196.94 C 273.50,197.05 274.41,197.03 275.25,197.06 C 276.09,197.09 276.94,197.11 277.80,197.12 C 278.65,197.14 279.52,197.14 280.39,197.12 C 281.26,197.11 282.14,197.09 283.03,197.06 C 283.92,197.03 284.82,196.99 285.72,196.94 C 286.62,196.89 287.53,196.82 288.45,196.75 C 289.37,196.68 290.30,196.59 291.23,196.50 C 292.17,196.41 293.11,196.30 294.06,196.19 C 295.01,196.07 295.99,195.93 296.94,195.81 C 297.88,195.70 298.81,195.59 299.72,195.48 C 300.63,195.38 301.53,195.29 302.41,195.20 C 303.29,195.12 304.15,195.04 305.00,194.97 C 305.85,194.90 306.68,194.84 307.50,194.78 C 308.32,194.73 309.12,194.68 309.91,194.64 C 310.69,194.60 311.46,194.57 312.22,194.55 C 312.97,194.52 313.71,194.51 314.44,194.50 C 315.16,194.49 315.88,194.50 316.56,194.50 C 317.24,194.50 317.90,194.49 318.53,194.48 C 319.16,194.48 319.77,194.47 320.34,194.45 C 320.92,194.44 321.47,194.42 322.00,194.41 C 322.53,194.39 323.03,194.37 323.50,194.34 C 323.97,194.32 324.42,194.29 324.84,194.27 C 325.27,194.24 325.66,194.21 326.03,194.17 C 326.40,194.14 326.74,194.10 327.06,194.06 C 327.38,194.02 327.66,193.99 327.94,193.94 C 328.22,193.89 328.49,193.82 328.75,193.75 C 329.01,193.68 329.26,193.59 329.50,193.50 C 329.74,193.41 329.97,193.30 330.19,193.19 C 330.41,193.07 330.61,192.95 330.81,192.81 C 331.01,192.68 331.20,192.53 331.38,192.38 C 331.55,192.22 331.72,192.05 331.88,191.88 C 332.03,191.70 332.18,191.51 332.31,191.31 C 332.45,191.11 332.56,190.88 332.69,190.69 C 332.82,190.49 332.95,190.31 333.09,190.14 C 333.23,189.97 333.38,189.82 333.53,189.67 C 333.68,189.53 333.84,189.40 334.00,189.28 C 334.16,189.16 334.33,189.06 334.50,188.97 C 334.67,188.88 334.85,188.80 335.03,188.73 C 335.21,188.67 335.40,188.62 335.59,188.58 C 335.79,188.54 335.98,188.51 336.19,188.50 C 336.39,188.49 336.61,188.49 336.81,188.50 C 337.01,188.51 337.21,188.53 337.39,188.56 C 337.58,188.59 337.75,188.64 337.92,188.69 C 338.09,188.74 338.25,188.80 338.41,188.88 C 338.56,188.95 338.71,189.03 338.84,189.12 C 338.98,189.22 339.11,189.32 339.23,189.44 C 339.36,189.55 339.47,189.68 339.58,189.81 C 339.68,189.95 339.78,190.09 339.88,190.25 C 339.97,190.41 340.03,190.59 340.12,190.75 C 340.22,190.91 340.33,191.06 340.46,191.20 C 340.59,191.33 340.73,191.46 340.88,191.59 C 341.04,191.71 341.21,191.82 341.39,191.92 C 341.57,192.02 341.77,192.12 341.98,192.20 C 342.20,192.29 342.42,192.36 342.66,192.43 C 342.90,192.50 343.16,192.55 343.43,192.60 C 343.70,192.65 343.98,192.69 344.28,192.72 C 344.58,192.75 344.93,192.75 345.22,192.78 C 345.51,192.81 345.79,192.84 346.04,192.88 C 346.29,192.92 346.53,192.97 346.74,193.02 C 346.96,193.08 347.15,193.14 347.33,193.20 C 347.50,193.27 347.66,193.34 347.80,193.42 C 347.93,193.50 348.05,193.59 348.15,193.68 C 348.25,193.77 348.32,193.87 348.38,193.98 C 348.44,194.08 348.48,194.19 348.50,194.31 C 348.52,194.43 348.52,194.56 348.50,194.69 C 348.48,194.82 348.43,194.96 348.37,195.10 C 348.30,195.25 348.21,195.40 348.10,195.55 C 347.99,195.71 347.86,195.88 347.70,196.05 C 347.55,196.22 347.37,196.39 347.17,196.58 C 346.97,196.76 346.75,196.95 346.51,197.15 C 346.26,197.35 346.00,197.55 345.71,197.76 C 345.42,197.97 345.11,198.18 344.78,198.41 C 344.45,198.63 344.08,198.88 343.72,199.09 C 343.36,199.31 342.98,199.52 342.60,199.71 C 342.22,199.90 341.83,200.09 341.43,200.26 C 341.03,200.43 340.62,200.59 340.20,200.73 C 339.79,200.88 339.36,201.02 338.92,201.14 C 338.49,201.26 338.04,201.38 337.59,201.48 C 337.13,201.58 336.67,201.67 336.20,201.74 C 335.72,201.82 335.24,201.88 334.75,201.94 C 334.26,201.99 333.72,202.02 333.25,202.06 C 332.78,202.11 332.33,202.15 331.91,202.20 C 331.50,202.24 331.11,202.29 330.74,202.34 C 330.38,202.38 330.04,202.43 329.73,202.48 C 329.43,202.54 329.14,202.59 328.89,202.64 C 328.64,202.69 328.41,202.75 328.21,202.80 C 328.01,202.86 327.84,202.92 327.70,202.98 C 327.55,203.04 327.43,203.10 327.34,203.16 C 327.25,203.22 327.21,203.28 327.16,203.34 C 327.10,203.41 327.06,203.48 327.02,203.55 C 326.99,203.63 326.96,203.71 326.95,203.79 C 326.93,203.87 326.92,203.96 326.92,204.05 C 326.92,204.14 326.93,204.23 326.95,204.33 C 326.97,204.43 327.00,204.53 327.04,204.63 C 327.08,204.74 327.12,204.85 327.18,204.96 C 327.24,205.07 327.30,205.19 327.38,205.31 C 327.45,205.43 327.55,205.55 327.62,205.69 C 327.70,205.82 327.76,205.96 327.81,206.11 C 327.86,206.26 327.91,206.41 327.94,206.58 C 327.97,206.74 327.99,206.91 328.00,207.09 C 328.01,207.27 328.01,207.46 328.00,207.66 C 327.99,207.85 327.97,208.05 327.94,208.27 C 327.91,208.48 327.86,208.70 327.81,208.92 C 327.76,209.15 327.70,209.38 327.62,209.62 C 327.55,209.87 327.45,210.04 327.38,210.38 C 327.30,210.71 327.23,211.12 327.17,211.62 C 327.11,212.12 327.06,212.71 327.02,213.38 C 326.97,214.04 326.93,214.79 326.91,215.62 C 326.88,216.46 326.86,217.38 326.84,218.38 C 326.83,219.38 326.83,220.46 326.83,221.62 C 326.83,222.79 326.84,224.04 326.86,225.38 C 326.88,226.71 326.90,228.12 326.94,229.62 C 326.97,231.12 327.00,232.89 327.06,234.38 C 327.13,235.86 327.22,237.26 327.34,238.55 C 327.45,239.85 327.59,241.06 327.76,242.16 C 327.92,243.27 328.11,244.29 328.33,245.20 C 328.54,246.12 328.78,246.94 329.05,247.67 C 329.31,248.40 329.60,249.03 329.91,249.57 C 330.23,250.11 330.57,250.55 330.93,250.90 C 331.29,251.25 331.68,251.50 332.09,251.66 C 332.51,251.81 332.98,251.77 333.41,251.84 C 333.84,251.91 334.26,251.99 334.68,252.07 C 335.10,252.15 335.51,252.24 335.91,252.34 C 336.32,252.43 336.72,252.53 337.11,252.64 C 337.50,252.75 337.89,252.86 338.27,252.98 C 338.64,253.11 339.02,253.23 339.38,253.37 C 339.75,253.50 340.11,253.64 340.46,253.79 C 340.81,253.94 341.16,254.09 341.50,254.25 C 341.84,254.41 342.18,254.59 342.50,254.75 C 342.82,254.91 343.12,255.07 343.41,255.23 C 343.70,255.38 343.98,255.53 344.24,255.68 C 344.50,255.83 344.75,255.97 344.98,256.11 C 345.22,256.25 345.44,256.38 345.64,256.52 C 345.85,256.65 346.04,256.77 346.21,256.90 C 346.39,257.02 346.55,257.14 346.70,257.26 C 346.84,257.37 346.98,257.49 347.09,257.59 C 347.21,257.70 347.31,257.80 347.41,257.91 C 347.50,258.01 347.60,258.12 347.68,258.23 C 347.76,258.33 347.84,258.44 347.91,258.55 C 347.99,258.67 348.05,258.78 348.11,258.89 C 348.17,259.00 348.22,259.12 348.27,259.23 C 348.31,259.35 348.35,259.47 348.38,259.59 C 348.42,259.70 348.44,259.82 348.46,259.95 C 348.48,260.07 348.49,260.19 348.50,260.31 C 348.51,260.44 348.52,260.57 348.50,260.69 C 348.48,260.81 348.44,260.92 348.38,261.02 C 348.32,261.13 348.25,261.23 348.15,261.32 C 348.05,261.41 347.93,261.50 347.80,261.58 C 347.66,261.66 347.50,261.73 347.33,261.80 C 347.15,261.86 346.96,261.92 346.74,261.98 C 346.53,262.03 346.29,262.08 346.04,262.12 C 345.79,262.16 345.51,262.19 345.22,262.22 C 344.93,262.25 344.58,262.25 344.28,262.28 C 343.98,262.31 343.70,262.34 343.43,262.38 C 343.16,262.42 342.90,262.47 342.66,262.52 C 342.42,262.58 342.20,262.64 341.98,262.70 C 341.77,262.77 341.57,262.84 341.39,262.92 C 341.21,263.00 341.04,263.09 340.88,263.18 C 340.73,263.27 340.59,263.37 340.46,263.48 C 340.33,263.58 340.22,263.69 340.12,263.81 C 340.03,263.93 339.97,264.07 339.88,264.19 C 339.78,264.31 339.68,264.42 339.58,264.53 C 339.47,264.64 339.36,264.74 339.23,264.84 C 339.11,264.94 338.98,265.04 338.84,265.12 C 338.71,265.21 338.56,265.30 338.41,265.38 C 338.25,265.45 338.09,265.53 337.92,265.59 C 337.75,265.66 337.58,265.72 337.39,265.78 C 337.21,265.84 337.01,265.89 336.81,265.94 C 336.61,265.98 336.39,266.04 336.19,266.06 C 335.98,266.09 335.79,266.10 335.59,266.09 C 335.40,266.09 335.21,266.07 335.03,266.03 C 334.85,265.99 334.67,265.94 334.50,265.88 C 334.33,265.81 334.16,265.72 334.00,265.62 C 333.84,265.53 333.68,265.41 333.53,265.28 C 333.38,265.15 333.23,265.01 333.09,264.84 C 332.95,264.68 332.82,264.51 332.69,264.31 C 332.56,264.12 332.45,263.89 332.31,263.69 C 332.18,263.49 332.04,263.30 331.89,263.12 C 331.74,262.95 331.59,262.78 331.42,262.62 C 331.26,262.47 331.09,262.32 330.91,262.19 C 330.73,262.05 330.54,261.93 330.34,261.81 C 330.15,261.70 329.95,261.59 329.73,261.50 C 329.52,261.41 329.30,261.32 329.08,261.25 C 328.85,261.18 328.62,261.11 328.38,261.06 C 328.13,261.01 328.02,260.98 327.62,260.94 C 327.23,260.89 326.70,260.84 326.03,260.78 C 325.36,260.72 324.55,260.66 323.59,260.59 C 322.64,260.53 321.55,260.45 320.31,260.38 C 319.08,260.30 317.70,260.21 316.19,260.12 C 314.67,260.04 313.02,259.94 311.22,259.84 C 309.42,259.74 307.48,259.64 305.41,259.53 C 303.33,259.42 301.11,259.31 298.75,259.19 C 296.39,259.07 293.60,258.93 291.25,258.81 C 288.90,258.70 286.71,258.60 284.66,258.51 C 282.62,258.42 280.73,258.34 278.99,258.27 C 277.25,258.21 275.67,258.15 274.23,258.11 C 272.80,258.07 271.52,258.04 270.39,258.02 C 269.26,258.00 268.29,257.99 267.46,257.99 C 266.64,258.00 265.96,258.01 265.45,258.04 C 264.93,258.07 264.56,258.11 264.34,258.16 C 264.13,258.21 264.21,258.28 264.16,258.34 C 264.10,258.40 264.06,258.46 264.02,258.52 C 263.99,258.58 263.96,258.64 263.95,258.70 C 263.93,258.75 263.92,258.81 263.92,258.86 C 263.92,258.91 263.93,258.96 263.95,259.02 C 263.97,259.07 264.00,259.12 264.04,259.16 C 264.08,259.21 264.12,259.26 264.18,259.30 C 264.24,259.35 264.30,259.39 264.38,259.44 C 264.45,259.48 264.52,259.46 264.62,259.56 C 264.73,259.67 264.87,259.83 265.03,260.06 C 265.19,260.29 265.38,260.58 265.59,260.94 C 265.81,261.29 266.05,261.71 266.31,262.19 C 266.58,262.67 266.87,263.21 267.19,263.81 C 267.51,264.42 267.85,265.08 268.22,265.81 C 268.59,266.54 268.98,267.33 269.41,268.19 C 269.83,269.04 270.28,269.96 270.75,270.94 C 271.22,271.92 271.79,273.08 272.25,274.06 C 272.71,275.05 273.12,275.97 273.49,276.84 C 273.86,277.70 274.19,278.51 274.48,279.26 C 274.76,280.01 275.00,280.70 275.20,281.33 C 275.40,281.96 275.56,282.53 275.67,283.05 C 275.79,283.56 275.86,284.02 275.88,284.41 C 275.91,284.81 275.89,285.15 275.84,285.43 C 275.78,285.71 275.68,285.93 275.53,286.09 C 275.39,286.26 275.16,286.31 274.97,286.41 C 274.77,286.50 274.57,286.59 274.37,286.66 C 274.16,286.74 273.95,286.81 273.73,286.87 C 273.51,286.93 273.28,286.98 273.05,287.02 C 272.81,287.06 272.57,287.09 272.33,287.11 C 272.08,287.13 271.83,287.14 271.57,287.15 C 271.31,287.15 271.05,287.15 270.77,287.13 C 270.50,287.12 270.22,287.10 269.94,287.06 C 269.65,287.03 269.34,286.98 269.06,286.94 C 268.79,286.89 268.53,286.84 268.29,286.79 C 268.05,286.74 267.82,286.68 267.62,286.62 C 267.41,286.56 267.22,286.49 267.05,286.42 C 266.87,286.35 266.72,286.28 266.58,286.20 C 266.44,286.13 266.32,286.05 266.21,285.96 C 266.11,285.88 266.02,285.79 265.95,285.70 C 265.87,285.60 265.82,285.51 265.78,285.41 C 265.74,285.31 265.76,285.21 265.72,285.09 C 265.68,284.98 265.61,284.85 265.52,284.71 C 265.44,284.57 265.33,284.42 265.20,284.26 C 265.06,284.10 264.91,283.92 264.73,283.73 C 264.56,283.55 264.36,283.35 264.14,283.14 C 263.92,282.93 263.68,282.71 263.41,282.48 C 263.15,282.24 262.86,282.00 262.55,281.74 C 262.25,281.49 261.92,281.22 261.56,280.94 C 261.21,280.66 260.78,280.21 260.44,280.06 C 260.09,279.92 259.78,279.92 259.50,280.08 C 259.22,280.23 258.97,280.53 258.75,280.98 C 258.53,281.43 258.34,282.03 258.19,282.78 C 258.03,283.53 257.91,284.42 257.81,285.47 C 257.72,286.51 257.66,287.71 257.62,289.05 C 257.59,290.39 257.59,291.88 257.62,293.52 C 257.66,295.15 257.72,296.94 257.81,298.88 C 257.91,300.81 258.09,303.15 258.19,305.12 C 258.28,307.10 258.35,308.96 258.38,310.71 C 258.42,312.46 258.42,314.10 258.40,315.63 C 258.37,317.16 258.32,318.58 258.23,319.89 C 258.15,321.20 258.04,322.40 257.89,323.48 C 257.75,324.57 257.57,325.55 257.37,326.41 C 257.16,327.28 256.93,328.04 256.66,328.68 C 256.40,329.32 256.11,329.86 255.78,330.28 C 255.46,330.70 255.06,330.93 254.72,331.22 C 254.38,331.51 254.06,331.77 253.75,332.00 C 253.44,332.23 253.15,332.44 252.88,332.62 C 252.60,332.81 252.34,332.96 252.09,333.09 C 251.85,333.22 251.62,333.33 251.41,333.41 C 251.19,333.48 250.99,333.54 250.81,333.56 C 250.63,333.59 250.46,333.59 250.31,333.56 C 250.16,333.54 250.03,333.48 249.91,333.41 Z" stroke="none" fill="currentColor" opacity="0.11" />
  <path d="M172.67,235.15L179.10,235.18 M180.59,232.47L171.51,232.42 M192.69,218.58L185.26,218.88 M192.66,218.65L185.26,218.95 M192.69,237.30L185.26,236.99 M192.66,237.22L185.26,236.92 M198.87,229.72L198.89,229.79 M198.87,226.15L198.89,226.09 M200.00,223.96L194.59,223.42 M186.34,235.58L193.40,235.58 M186.34,220.29L193.40,220.29 M199.22,225.26L199.18,225.26 M199.14,225.34L199.09,225.34 M199.19,225.98L199.15,225.98 M199.09,230.52L199.14,230.52 M199.18,230.61L199.22,230.61 M199.19,229.89L199.15,229.89 M194.59,232.45L200.00,231.91 M194.12,232.47L185.04,232.42 M154.41,224.88L154.41,230.99 M194.70,230.61L188.98,230.65 M194.75,230.70L188.98,230.65 M195.40,231.06L201.00,231.22 M194.75,230.70L188.96,230.98 M195.31,231.06L188.96,230.98 M194.70,225.30L188.98,225.23 M194.75,225.20L188.98,225.23 M195.40,224.82L201.00,224.65 M194.75,225.20L188.96,224.89 M195.31,224.82L188.96,224.89 M181.14,224.82L175.43,224.89 M181.14,231.06L175.43,230.98 M166.92,229.16L157.97,229.20 M157.97,229.24L166.94,229.21 M166.92,226.71L157.97,226.68 M157.97,226.63L166.94,226.67 M181.40,231.05L183.85,230.63 M183.87,230.61L181.42,231.01 M171.50,232.26L180.64,232.28 M171.50,232.31L180.64,232.32 M178.43,218.93L157.44,220.18 M178.46,218.97L157.41,220.23 M163.59,233.17L153.84,232.65 M160.71,230.90L153.83,230.75 M163.59,222.70L153.84,223.23 M160.71,224.97L153.83,225.13 M178.43,236.95L157.44,235.70 M178.46,236.90L157.41,235.65 M172.77,235.22L179.82,235.21 M181.42,224.86L183.87,225.26 M181.40,224.83L183.85,225.24 M200.16,224.77L195.07,224.30 M200.16,225.23L194.93,224.83 M196.62,235.07L201.58,233.88 M199.13,226.08L199.09,226.07 M195.07,231.57L200.16,231.10 M194.93,231.05L200.16,230.65 M194.17,232.33L185.02,232.31 M194.16,232.28L185.02,232.26 M198.96,233.41L194.11,234.53 M198.96,222.47L194.11,221.34 M196.62,220.80L201.58,221.99 M247.48,222.36L229.45,222.53 M247.48,233.52L229.45,233.38 M213.60,213.81L213.67,213.76 M213.60,242.07L213.67,242.12 M208.10,241.29L213.67,242.12 M208.10,214.59L213.67,213.76 M249.29,252.67L254.74,254.08 M249.29,203.21L254.74,201.79 M250.80,210.05L245.50,216.39 M250.80,245.83L245.50,239.49 M210.86,245.58L213.88,251.48 M210.83,244.80L204.17,241.74 M211.16,253.00L205.96,244.62 M210.22,252.78L204.99,244.56 M212.11,253.19L206.96,244.68 M213.07,253.39L207.96,244.73 M214.53,252.24L210.12,244.86 M214.03,253.60L208.97,244.77 M209.01,252.35L204.08,244.56 M210.46,244.75L203.98,241.60 M210.86,210.30L213.88,204.40 M210.83,211.08L204.16,214.14 M211.16,202.87L205.96,211.26 M210.22,203.09L204.99,211.32 M212.11,202.69L206.96,211.20 M213.07,202.48L207.96,211.15 M210.12,211.02L214.53,203.64 M208.97,211.11L214.03,202.28 M204.08,211.32L209.01,203.53 M203.98,214.28L210.46,211.13 M241.60,225.65L234.91,225.67 M241.60,230.70L234.91,230.72 M243.26,208.74L238.63,206.48 M249.63,202.54L250.52,199.80 M245.51,200.63L247.11,198.05 M245.62,200.54L247.20,197.96 M250.46,197.98L249.63,200.48 M243.26,247.14L238.63,249.40 M249.63,253.33L250.52,256.07 M245.51,255.24L247.11,257.82 M245.62,255.33L247.20,257.91 M250.46,257.88L249.63,255.38 M241.49,223.17L247.10,223.21 M241.49,232.71L247.10,232.67 M236.59,240.05L242.29,240.02 M229.77,240.05L235.77,239.87 M236.59,215.81L242.29,215.84 M235.39,231.84L229.08,231.84 M233.42,220.25L225.22,220.29 M233.42,221.65L225.22,221.62 M227.43,220.35L233.50,220.06 M233.00,220.09L226.96,220.37 M233.50,221.85L227.43,221.56 M233.00,221.81L226.96,221.54 M233.42,234.23L225.22,234.26 M233.42,235.62L225.22,235.59 M227.43,234.32L233.50,234.03 M233.00,234.06L226.96,234.34 M233.50,235.82L227.43,235.53 M233.00,235.78L226.96,235.51 M247.37,230.41L235.94,230.26 M231.64,227.94L245.74,227.94 M235.94,225.61L247.37,225.47 M251.36,122.37L259.72,129.28 M247.73,129.05L245.92,134.42 M243.45,141.77L241.49,147.56 M241.49,147.56L237.29,159.39 M252.97,153.22L246.51,153.17 M252.62,153.32L245.07,153.32 M252.62,153.13L245.04,153.14 M252.62,153.10L245.04,153.10 M245.07,159.35L252.62,159.35 M252.62,159.55L245.04,159.53 M252.62,159.57L245.04,159.57 M239.14,156.97L233.16,156.93 M219.42,156.23L239.34,156.23 M219.42,156.47L239.34,156.47 M238.32,156.23L219.39,156.22 M219.40,156.22L238.38,156.24 M219.42,157.41L239.33,157.41 M239.33,157.52L219.41,157.54 M239.34,156.96L219.26,157.02 M239.33,157.14L219.42,157.13 M219.42,157.36L239.33,157.46 M219.41,157.52L239.34,157.53 M239.33,156.95L219.25,156.97 M239.33,157.08L219.25,157.18 M239.34,155.16L219.41,155.15 M239.33,155.23L219.42,155.32 M239.33,155.55L219.42,155.55 M219.25,155.27L239.33,155.22 M219.42,155.17L239.33,155.17 M219.41,155.28L239.33,155.29 M239.33,155.74L219.26,155.72 M239.34,155.63L219.26,155.63 M219.26,155.44L239.33,155.44 M253.01,156.39L254.32,145.46 M252.92,156.77L251.97,164.94 M180.19,218.02L186.06,217.98 M201.56,220.06L201.60,227.94 M201.60,227.94L201.56,235.82 M215.98,234.20L215.92,227.94 M194.84,226.53L197.73,226.53 M198.24,226.49L195.34,226.52 M194.84,229.38L197.73,229.38 M185.08,233.85L184.24,237.62 M184.24,218.26L178.90,218.49 M184.24,218.26L185.08,222.03 M182.85,232.17L182.85,223.71 M158.45,220.32L167.34,219.62 M172.21,222.69L157.12,223.38 M158.50,220.65L167.38,219.98 M171.83,232.40L156.87,231.45 M158.31,235.09L172.88,233.06 M172.88,233.06L158.41,235.22 M158.41,220.65L172.87,222.79 M172.87,222.79L158.31,220.79 M185.19,218.80L185.68,221.38 M185.68,234.50L185.19,237.08 M185.21,222.42L193.83,221.46 M193.85,234.13L185.29,233.41 M185.25,222.01L184.41,218.25 M185.21,233.54L193.83,234.42 M202.40,220.86L193.85,221.75 M193.85,221.75L202.52,221.05 M202.41,234.97L193.83,234.42 M202.41,234.97L193.85,234.13 M193.85,234.13L202.51,234.77 M198.49,231.25L198.47,224.71 M198.82,224.47L198.83,231.36 M193.20,234.65L187.76,234.41 M172.10,228.61L166.18,228.62 M166.18,227.26L172.10,227.25 M163.58,219.13L155.39,219.13 M157.60,217.53L163.66,217.52 M163.17,217.07L157.13,217.14 M163.58,236.74L155.39,236.75 M163.66,238.36L157.60,238.35 M163.17,238.81L157.13,238.74 M180.17,228.26L174.09,228.26 M182.84,228.04L180.21,228.04 M182.76,227.65L180.12,227.65 M186.04,219.07L180.18,219.28 M186.02,216.92L180.22,217.29 M185.31,219.72L185.34,218.91 M182.51,219.74L182.45,219.08 M194.34,240.69L188.78,240.34 M242.33,251.38L228.95,254.05 M253.00,249.33L251.41,244.19 M250.10,243.06L256.93,243.08 M188.78,215.51L194.42,215.22 M242.33,204.50L228.95,201.83 M253.00,206.54L251.41,211.69 M239.36,212.80L221.97,212.63 M250.10,212.83L256.93,212.80 M215.36,210.10L223.98,207.73 M274.97,201.69L268.90,202.31 M268.90,202.31L285.70,200.54 M285.70,200.54L269.08,202.12 M268.90,253.57L275.15,254.20 M221.20,243.36L218.01,243.24 M212.26,242.16L213.28,243.43 M240.17,244.44L228.42,247.21 M206.23,228.69L206.21,234.07 M208.49,238.86L214.05,242.24 M214.05,242.24L208.31,241.43 M206.23,227.19L206.21,221.79 M208.49,216.96L214.20,213.56 M208.46,214.44L214.20,213.56 M221.20,212.62L218.01,212.64 M212.36,213.94L213.37,212.75 M240.17,211.44L228.42,208.66 M239.13,243.01L222.00,243.36 M221.12,243.40L217.79,243.21 M214.02,244.77L211.81,241.69 M211.81,241.69L213.69,243.38 M213.69,243.38L211.45,241.50 M211.45,241.50L213.61,243.14 M228.80,247.18L241.23,245.70 M251.04,244.05L252.61,249.26 M229.60,254.42L242.31,251.87 M242.31,251.87L229.63,254.31 M242.49,252.78L229.38,254.51 M217.79,212.69L221.12,212.50 M214.02,211.13L211.81,214.21 M211.81,214.21L213.69,212.52 M213.69,212.52L211.45,214.40 M211.45,214.40L213.61,212.76 M228.80,208.72L241.23,210.20 M251.04,211.85L252.61,206.64 M242.49,203.09L229.39,201.39 M247.74,232.26L229.18,232.26 M229.18,230.96L247.74,230.96 M247.74,225.44L229.18,225.44 M229.18,230.48L247.74,230.48 M247.74,223.65L229.18,223.65 M229.18,224.95L247.74,224.95 M247.76,233.58L229.16,233.66 M238.46,232.61L245.91,232.61 M238.46,232.61L231.01,232.61 M229.18,222.32L237.99,222.27 M229.18,222.32L247.77,222.35 M247.73,222.75L229.19,222.75 M245.87,222.67L238.46,222.67 M245.87,222.77L238.46,222.77 M238.46,223.30L245.91,223.30 M238.46,223.30L231.01,223.30 M285.32,214.19L269.06,207.76 M285.55,214.10L269.05,207.98 M285.32,241.69L269.06,248.12 M279.17,217.88L269.80,216.61 M258.22,224.13L256.48,218.39 M256.48,218.39L258.25,224.07 M259.83,218.22L265.62,218.51 M256.48,237.49L258.26,231.82 M259.83,237.67L265.62,237.37 M264.48,249.60L258.90,251.57 M285.38,241.52L269.43,246.53 M285.38,241.52L269.05,247.90 M264.48,206.28L258.90,204.31 M285.38,214.36L269.43,209.35 M285.38,214.36L269.05,207.98 M277.54,238.06L269.70,239.06 M272.50,241.95L280.36,241.11 M277.54,217.82L269.70,216.82 M272.50,213.93L280.36,214.77 M319.83,261.13L278.98,258.02 M319.83,194.75L272.94,198.31 M321.47,194.63L345.28,192.81 M334.48,253.05L319.60,251.06 M310.26,247.89L288.71,247.77 M310.26,207.99L288.71,208.11 M334.48,202.83L319.60,204.82 M318.02,250.85L275.86,245.18 M273.47,211.14L318.04,205.13 M323.77,235.92L323.73,241.68 M323.73,241.68L322.46,250.58 M323.73,214.75L323.77,220.52 M323.73,214.75L322.46,205.86 M306.38,255.63L336.59,258.24 M303.95,254.48L294.73,253.37 M336.66,259.38L295.08,255.36 M319.86,237.01L320.19,228.22 M319.42,242.17L318.32,249.63 M319.75,219.42L320.03,228.22 M318.49,206.66L319.61,214.26 M318.32,206.81L319.42,214.26 M286.84,206.25L301.37,204.47 M306.38,200.25L336.59,197.64 M303.95,201.39L294.73,202.51 M336.66,196.50L295.09,200.52 M296.55,199.50L308.58,198.27 M296.55,256.38L308.58,257.61 M286.84,249.63L301.40,251.38 M286.84,249.63L301.37,251.41 M287.18,206.21L301.39,204.43 M306.56,242.11L295.54,241.87 M295.54,235.96L306.56,238.27 M295.51,240.13L306.58,240.87 M295.54,239.64L306.58,240.76 M295.54,238.10L306.58,239.54 M306.56,213.79L295.54,214.02 M306.56,217.63L295.54,219.94 M295.54,217.80L306.58,216.36 M295.54,216.25L306.58,215.14 M306.56,231.79L295.54,233.93 M306.56,224.11L295.54,221.98 M305.97,229.44L295.86,230.44 M305.97,226.46L295.86,225.45 M295.86,226.43L305.97,226.71 M295.53,226.39L306.58,226.69 M295.86,229.47L305.97,229.18 M295.53,229.50L306.58,229.20 M275.74,280.67L270.13,280.55 M275.74,280.67L270.17,280.47 M275.83,280.83L270.13,280.71 M261.78,280.74L246.79,267.16 M246.48,266.70L243.33,258.38 M265.73,260.94L261.18,257.17 M265.73,260.94L259.66,260.88 M270.13,280.71L260.89,263.54 M269.16,285.90L249.43,267.56 M249.80,265.86L256.70,262.90 M249.96,266.14L256.80,263.17 M269.35,285.70L249.63,267.34 M275.74,280.67L265.86,261.09 M270.13,280.55L261.02,263.49 M275.74,175.21L270.14,175.33 M275.74,175.21L270.17,175.41 M275.83,175.05L270.13,175.17 M261.78,175.13L246.79,188.72 M246.47,189.19L243.34,197.50 M265.73,194.94L261.18,198.70 M265.73,194.94L259.66,195.00 M270.13,175.17L260.89,192.34 M269.35,170.18L249.63,188.54 M269.16,169.98L249.44,188.32 M249.80,190.02L256.70,192.98 M249.96,189.74L256.81,192.71 M249.86,189.95L256.72,192.96 M261.02,192.39L270.13,175.33 M256.61,276.92L250.28,275.52 M251.36,333.51L259.70,326.58 M247.73,326.83L245.92,321.46 M243.45,314.11L241.50,308.32 M241.50,308.32L237.29,296.49 M248.06,325.99L246.45,319.15 M253.00,296.40L246.54,296.35 M252.66,296.51L245.12,296.51 M252.66,296.32L245.08,296.33 M252.66,296.29L245.08,296.29 M245.12,302.54L252.66,302.54 M252.66,302.74L245.08,302.72 M252.66,302.76L245.08,302.76 M239.17,300.15L233.19,300.11 M219.44,299.40L239.36,299.41 M219.44,299.65L239.36,299.65 M238.35,299.41L219.42,299.40 M219.43,299.40L238.40,299.41 M219.45,300.59L239.36,300.59 M239.36,300.70L219.44,300.72 M239.37,300.14L219.29,300.20 M239.36,300.33L219.46,300.32 M219.45,300.55L239.36,300.64 M219.45,300.71L239.38,300.71 M239.36,300.14L219.29,300.15 M239.37,300.27L219.29,300.37 M239.37,298.34L219.44,298.34 M239.36,298.41L219.46,298.51 M239.36,298.73L219.46,298.74 M219.29,298.46L239.36,298.41 M219.45,298.35L239.36,298.35 M219.44,298.46L239.36,298.47 M239.36,298.92L219.29,298.91 M239.37,298.81L219.29,298.81 M219.29,298.63L239.36,298.62 M252.92,299.09L252.06,290.88 M251.94,290.51L250.60,278.02 M252.36,298.92L251.38,290.70" stroke="currentColor" stroke-width="0.6" stroke-linecap="round" fill="none" opacity="0.55" clip-path="url(#hull-clip)" filter="url(#glow)" />
  <path d="M 249.91,333.41 C 249.79,333.33 249.72,333.27 249.59,333.09 C 249.47,332.92 249.33,332.67 249.16,332.35 C 249.00,332.03 248.82,331.64 248.62,331.18 C 248.42,330.72 248.19,330.18 247.95,329.58 C 247.71,328.97 247.45,328.30 247.17,327.55 C 246.89,326.80 246.59,325.98 246.27,325.09 C 245.95,324.19 245.62,323.23 245.26,322.20 C 244.90,321.16 244.52,320.05 244.12,318.88 C 243.73,317.70 243.32,316.30 242.88,315.12 C 242.43,313.95 241.96,312.84 241.47,311.81 C 240.97,310.78 240.45,309.82 239.91,308.94 C 239.36,308.05 238.79,307.24 238.19,306.50 C 237.59,305.76 236.96,305.09 236.31,304.50 C 235.66,303.91 234.98,303.39 234.28,302.94 C 233.58,302.49 232.85,302.11 232.09,301.81 C 231.34,301.51 230.56,301.28 229.75,301.12 C 228.94,300.97 228.03,300.96 227.25,300.88 C 226.47,300.79 225.74,300.70 225.07,300.62 C 224.40,300.53 223.78,300.44 223.21,300.35 C 222.64,300.26 222.13,300.17 221.67,300.08 C 221.21,299.99 220.81,299.89 220.45,299.80 C 220.10,299.70 219.80,299.61 219.55,299.51 C 219.31,299.41 219.12,299.31 218.98,299.21 C 218.84,299.11 218.75,299.01 218.72,298.91 C 218.69,298.80 218.72,298.69 218.78,298.59 C 218.84,298.50 218.94,298.40 219.07,298.32 C 219.20,298.24 219.38,298.16 219.59,298.09 C 219.80,298.01 220.04,297.95 220.33,297.89 C 220.61,297.83 220.94,297.78 221.30,297.73 C 221.66,297.69 222.06,297.65 222.49,297.62 C 222.93,297.58 223.40,297.56 223.91,297.54 C 224.43,297.52 224.98,297.51 225.56,297.50 C 226.15,297.49 226.85,297.50 227.44,297.50 C 228.03,297.50 228.59,297.49 229.12,297.48 C 229.64,297.46 230.14,297.45 230.60,297.43 C 231.06,297.41 231.49,297.39 231.89,297.36 C 232.29,297.33 232.65,297.30 232.98,297.27 C 233.32,297.23 233.62,297.19 233.88,297.15 C 234.15,297.11 234.38,297.06 234.59,297.01 C 234.79,296.96 234.96,296.90 235.09,296.84 C 235.23,296.79 235.33,296.79 235.41,296.66 C 235.48,296.53 235.52,296.33 235.52,296.07 C 235.53,295.81 235.50,295.48 235.45,295.09 C 235.39,294.69 235.30,294.23 235.17,293.70 C 235.05,293.18 234.89,292.58 234.70,291.92 C 234.51,291.26 234.29,290.54 234.04,289.74 C 233.79,288.95 233.50,288.09 233.18,287.16 C 232.86,286.24 232.51,285.25 232.12,284.19 C 231.74,283.13 231.28,281.90 230.88,280.81 C 230.47,279.73 230.07,278.68 229.68,277.68 C 229.29,276.68 228.91,275.71 228.54,274.79 C 228.17,273.87 227.81,272.98 227.45,272.14 C 227.10,271.30 226.76,270.50 226.42,269.73 C 226.09,268.97 225.76,268.25 225.45,267.57 C 225.13,266.89 224.82,266.25 224.52,265.65 C 224.23,265.05 223.94,264.49 223.66,263.97 C 223.38,263.45 223.11,262.97 222.84,262.53 C 222.58,262.09 222.33,261.69 222.09,261.32 C 221.84,260.95 221.61,260.63 221.38,260.34 C 221.16,260.05 220.94,259.79 220.73,259.58 C 220.53,259.36 220.33,259.19 220.14,259.05 C 219.95,258.91 219.77,258.81 219.60,258.74 C 219.43,258.68 219.27,258.65 219.12,258.66 C 218.96,258.68 218.82,258.73 218.69,258.81 C 218.55,258.90 218.44,259.07 218.31,259.19 C 218.19,259.30 218.06,259.41 217.94,259.52 C 217.81,259.62 217.69,259.71 217.56,259.80 C 217.44,259.88 217.31,259.96 217.19,260.03 C 217.06,260.10 216.94,260.16 216.81,260.22 C 216.69,260.27 216.56,260.32 216.44,260.36 C 216.31,260.40 216.19,260.43 216.06,260.45 C 215.94,260.48 215.81,260.49 215.69,260.50 C 215.56,260.51 215.43,260.51 215.31,260.50 C 215.19,260.49 215.08,260.46 214.97,260.42 C 214.86,260.38 214.76,260.33 214.66,260.27 C 214.56,260.20 214.46,260.12 214.38,260.03 C 214.29,259.94 214.20,259.84 214.12,259.72 C 214.05,259.60 213.97,259.47 213.91,259.33 C 213.84,259.18 213.78,259.03 213.72,258.86 C 213.66,258.69 213.61,258.51 213.56,258.31 C 213.52,258.12 213.52,257.89 213.44,257.69 C 213.35,257.49 213.22,257.29 213.05,257.11 C 212.87,256.92 212.65,256.75 212.39,256.58 C 212.13,256.41 211.82,256.25 211.47,256.09 C 211.12,255.94 210.72,255.79 210.28,255.66 C 209.84,255.52 209.36,255.39 208.83,255.27 C 208.30,255.14 207.73,255.03 207.11,254.92 C 206.49,254.82 205.83,254.72 205.12,254.62 C 204.42,254.53 203.60,254.49 202.88,254.38 C 202.15,254.26 201.44,254.11 200.75,253.92 C 200.06,253.74 199.40,253.52 198.75,253.27 C 198.10,253.01 197.48,252.73 196.88,252.41 C 196.27,252.09 195.69,251.73 195.12,251.34 C 194.56,250.96 194.02,250.53 193.50,250.08 C 192.98,249.62 192.48,249.13 192.00,248.61 C 191.52,248.09 191.06,247.53 190.62,246.94 C 190.19,246.35 189.79,245.65 189.38,245.06 C 188.96,244.48 188.54,243.93 188.12,243.42 C 187.71,242.91 187.29,242.45 186.88,242.02 C 186.46,241.59 186.04,241.20 185.62,240.84 C 185.21,240.49 184.79,240.18 184.38,239.91 C 183.96,239.63 183.54,239.40 183.12,239.20 C 182.71,239.01 182.29,238.85 181.88,238.73 C 181.46,238.62 181.04,238.54 180.62,238.50 C 180.21,238.46 179.77,238.49 179.38,238.50 C 178.98,238.51 178.60,238.52 178.25,238.55 C 177.90,238.57 177.56,238.60 177.25,238.64 C 176.94,238.68 176.65,238.73 176.38,238.78 C 176.10,238.84 175.85,238.90 175.62,238.97 C 175.40,239.04 175.19,239.12 175.00,239.20 C 174.81,239.29 174.65,239.38 174.50,239.48 C 174.35,239.59 174.23,239.70 174.12,239.81 C 174.02,239.93 173.98,240.08 173.88,240.19 C 173.77,240.30 173.63,240.39 173.47,240.47 C 173.31,240.55 173.12,240.61 172.91,240.66 C 172.69,240.70 172.45,240.73 172.19,240.75 C 171.92,240.77 171.63,240.77 171.31,240.75 C 170.99,240.73 170.65,240.70 170.28,240.66 C 169.91,240.61 169.52,240.55 169.09,240.47 C 168.67,240.39 168.22,240.30 167.75,240.19 C 167.28,240.08 166.75,239.93 166.25,239.81 C 165.75,239.70 165.25,239.59 164.75,239.48 C 164.25,239.38 163.75,239.29 163.25,239.20 C 162.75,239.12 162.25,239.04 161.75,238.97 C 161.25,238.90 160.75,238.84 160.25,238.78 C 159.75,238.73 159.25,238.68 158.75,238.64 C 158.25,238.60 157.75,238.57 157.25,238.55 C 156.75,238.52 156.25,238.51 155.75,238.50 C 155.25,238.49 154.73,238.50 154.25,238.50 C 153.77,238.50 153.32,238.49 152.90,238.48 C 152.47,238.46 152.07,238.45 151.70,238.43 C 151.32,238.41 150.97,238.39 150.64,238.36 C 150.31,238.33 150.01,238.30 149.73,238.27 C 149.46,238.23 149.20,238.19 148.98,238.15 C 148.75,238.11 148.55,238.06 148.37,238.01 C 148.19,237.96 148.04,237.90 147.91,237.84 C 147.78,237.79 147.69,237.72 147.59,237.66 C 147.50,237.59 147.41,237.52 147.33,237.45 C 147.25,237.38 147.17,237.31 147.11,237.23 C 147.04,237.16 146.99,237.08 146.94,237.00 C 146.89,236.92 146.85,236.84 146.81,236.75 C 146.78,236.66 146.75,236.58 146.73,236.48 C 146.72,236.39 146.71,236.30 146.70,236.20 C 146.70,236.11 146.71,236.01 146.72,235.91 C 146.73,235.80 146.79,235.70 146.78,235.59 C 146.77,235.49 146.74,235.39 146.67,235.28 C 146.61,235.18 146.51,235.07 146.39,234.97 C 146.27,234.86 146.12,234.76 145.94,234.66 C 145.76,234.55 145.55,234.45 145.31,234.34 C 145.08,234.24 144.81,234.14 144.52,234.03 C 144.22,233.93 143.90,233.82 143.55,233.72 C 143.20,233.61 142.82,233.51 142.41,233.41 C 142.00,233.30 141.50,233.21 141.09,233.09 C 140.68,232.97 140.30,232.83 139.95,232.68 C 139.59,232.52 139.26,232.35 138.96,232.16 C 138.66,231.98 138.39,231.77 138.14,231.55 C 137.89,231.32 137.68,231.08 137.48,230.83 C 137.29,230.57 137.13,230.30 136.99,230.01 C 136.86,229.72 136.75,229.41 136.66,229.09 C 136.58,228.76 136.53,228.42 136.50,228.06 C 136.47,227.70 136.48,227.30 136.50,226.94 C 136.52,226.58 136.57,226.24 136.65,225.91 C 136.72,225.59 136.82,225.28 136.95,224.99 C 137.07,224.70 137.22,224.43 137.39,224.17 C 137.56,223.92 137.76,223.68 137.98,223.45 C 138.21,223.23 138.45,223.02 138.73,222.84 C 139.00,222.65 139.30,222.48 139.62,222.32 C 139.94,222.17 140.29,222.03 140.66,221.91 C 141.03,221.79 141.46,221.70 141.84,221.59 C 142.22,221.49 142.58,221.37 142.93,221.26 C 143.27,221.14 143.60,221.02 143.91,220.90 C 144.23,220.77 144.52,220.65 144.80,220.52 C 145.07,220.38 145.33,220.25 145.58,220.11 C 145.82,219.97 146.05,219.83 146.26,219.68 C 146.47,219.53 146.66,219.38 146.84,219.23 C 147.01,219.07 147.17,218.91 147.31,218.75 C 147.45,218.59 147.55,218.41 147.69,218.25 C 147.82,218.09 147.96,217.94 148.11,217.80 C 148.26,217.65 148.41,217.52 148.58,217.39 C 148.74,217.26 148.91,217.14 149.09,217.03 C 149.27,216.92 149.46,216.82 149.66,216.72 C 149.85,216.62 150.05,216.53 150.27,216.45 C 150.48,216.37 150.70,216.30 150.92,216.23 C 151.15,216.17 151.38,216.11 151.62,216.06 C 151.87,216.01 152.11,215.98 152.38,215.94 C 152.64,215.90 152.91,215.86 153.20,215.83 C 153.49,215.79 153.79,215.76 154.11,215.73 C 154.42,215.71 154.75,215.68 155.09,215.66 C 155.43,215.63 155.79,215.61 156.16,215.59 C 156.52,215.58 156.90,215.56 157.30,215.55 C 157.69,215.53 158.10,215.52 158.52,215.52 C 158.93,215.51 159.37,215.50 159.81,215.50 C 160.26,215.50 160.74,215.51 161.19,215.50 C 161.64,215.49 162.07,215.48 162.50,215.47 C 162.93,215.45 163.34,215.43 163.75,215.41 C 164.16,215.38 164.55,215.35 164.94,215.31 C 165.32,215.28 165.70,215.23 166.06,215.19 C 166.43,215.14 166.78,215.09 167.12,215.03 C 167.47,214.97 167.80,214.91 168.12,214.84 C 168.45,214.78 168.76,214.70 169.06,214.62 C 169.36,214.55 169.66,214.45 169.94,214.38 C 170.22,214.30 170.49,214.25 170.75,214.20 C 171.01,214.16 171.26,214.13 171.50,214.11 C 171.74,214.09 171.97,214.09 172.19,214.09 C 172.41,214.10 172.61,214.12 172.81,214.16 C 173.01,214.19 173.20,214.24 173.38,214.30 C 173.55,214.36 173.72,214.43 173.88,214.52 C 174.03,214.60 174.18,214.70 174.31,214.81 C 174.45,214.92 174.55,215.07 174.69,215.19 C 174.82,215.30 174.97,215.41 175.12,215.52 C 175.28,215.62 175.45,215.71 175.62,215.80 C 175.80,215.88 175.99,215.96 176.19,216.03 C 176.39,216.10 176.59,216.16 176.81,216.22 C 177.03,216.27 177.26,216.32 177.50,216.36 C 177.74,216.40 177.99,216.43 178.25,216.45 C 178.51,216.48 178.78,216.49 179.06,216.50 C 179.34,216.51 179.65,216.51 179.94,216.50 C 180.22,216.49 180.50,216.47 180.77,216.45 C 181.05,216.42 181.31,216.38 181.57,216.34 C 181.83,216.29 182.08,216.24 182.33,216.17 C 182.57,216.11 182.81,216.04 183.05,215.95 C 183.28,215.87 183.51,215.78 183.73,215.68 C 183.95,215.58 184.16,215.47 184.37,215.35 C 184.57,215.23 184.77,215.11 184.97,214.97 C 185.16,214.83 185.34,214.70 185.53,214.53 C 185.73,214.36 185.93,214.18 186.14,213.97 C 186.35,213.76 186.57,213.53 186.80,213.28 C 187.02,213.03 187.26,212.76 187.50,212.47 C 187.74,212.18 187.99,211.86 188.25,211.53 C 188.51,211.20 188.77,210.84 189.05,210.47 C 189.32,210.09 189.60,209.70 189.89,209.28 C 190.18,208.86 190.48,208.43 190.78,207.97 C 191.09,207.51 191.38,206.99 191.72,206.53 C 192.06,206.08 192.43,205.65 192.82,205.24 C 193.21,204.84 193.64,204.46 194.09,204.10 C 194.54,203.75 195.01,203.42 195.52,203.11 C 196.02,202.80 196.55,202.52 197.11,202.27 C 197.67,202.01 198.25,201.78 198.87,201.57 C 199.48,201.36 200.12,201.18 200.79,201.02 C 201.46,200.87 202.15,200.73 202.88,200.62 C 203.60,200.52 204.42,200.46 205.12,200.38 C 205.83,200.29 206.50,200.21 207.12,200.13 C 207.74,200.05 208.32,199.98 208.85,199.90 C 209.39,199.82 209.88,199.75 210.33,199.67 C 210.78,199.60 211.18,199.52 211.55,199.45 C 211.91,199.38 212.23,199.31 212.51,199.24 C 212.79,199.17 213.02,199.11 213.21,199.04 C 213.40,198.97 213.55,198.91 213.66,198.84 C 213.76,198.78 213.79,198.73 213.84,198.66 C 213.90,198.59 213.95,198.51 214.00,198.42 C 214.05,198.34 214.09,198.24 214.12,198.14 C 214.16,198.04 214.19,197.93 214.22,197.81 C 214.24,197.70 214.27,197.57 214.28,197.44 C 214.30,197.30 214.31,197.16 214.31,197.02 C 214.32,196.87 214.32,196.71 214.31,196.55 C 214.31,196.38 214.30,196.21 214.28,196.03 C 214.27,195.85 214.22,195.63 214.22,195.47 C 214.21,195.30 214.23,195.16 214.26,195.04 C 214.29,194.92 214.33,194.82 214.40,194.74 C 214.46,194.67 214.54,194.61 214.64,194.58 C 214.74,194.55 214.85,194.54 214.98,194.55 C 215.12,194.56 215.26,194.59 215.43,194.65 C 215.60,194.70 215.78,194.78 215.98,194.88 C 216.18,194.98 216.39,195.11 216.62,195.25 C 216.86,195.39 217.12,195.62 217.38,195.75 C 217.63,195.88 217.88,195.96 218.13,196.01 C 218.39,196.05 218.64,196.06 218.90,196.02 C 219.15,195.99 219.41,195.91 219.67,195.80 C 219.93,195.68 220.19,195.52 220.45,195.33 C 220.71,195.13 220.98,194.89 221.24,194.62 C 221.51,194.34 221.77,194.02 222.04,193.66 C 222.31,193.31 222.57,192.91 222.84,192.47 C 223.11,192.03 223.38,191.55 223.66,191.03 C 223.94,190.51 224.23,189.95 224.52,189.35 C 224.82,188.75 225.13,188.11 225.45,187.43 C 225.76,186.75 226.09,186.03 226.42,185.27 C 226.76,184.50 227.10,183.70 227.45,182.86 C 227.81,182.02 228.17,181.13 228.54,180.21 C 228.91,179.29 229.29,178.32 229.68,177.32 C 230.07,176.32 230.47,175.27 230.88,174.19 C 231.28,173.10 231.74,171.87 232.12,170.81 C 232.51,169.75 232.87,168.76 233.20,167.84 C 233.52,166.91 233.82,166.05 234.09,165.26 C 234.35,164.46 234.59,163.74 234.80,163.08 C 235.00,162.42 235.18,161.82 235.33,161.30 C 235.48,160.77 235.59,160.31 235.68,159.91 C 235.77,159.52 235.82,159.19 235.85,158.93 C 235.88,158.67 235.88,158.47 235.84,158.34 C 235.81,158.21 235.76,158.21 235.66,158.16 C 235.56,158.10 235.42,158.04 235.24,157.99 C 235.07,157.94 234.85,157.89 234.60,157.85 C 234.35,157.81 234.06,157.77 233.73,157.73 C 233.41,157.70 233.04,157.67 232.64,157.64 C 232.24,157.61 231.80,157.59 231.32,157.57 C 230.84,157.55 230.33,157.54 229.77,157.52 C 229.22,157.51 228.63,157.50 228.00,157.50 C 227.37,157.50 226.63,157.51 226.00,157.50 C 225.37,157.49 224.79,157.48 224.24,157.46 C 223.70,157.44 223.19,157.42 222.73,157.38 C 222.26,157.35 221.84,157.31 221.45,157.27 C 221.07,157.22 220.73,157.17 220.42,157.11 C 220.12,157.05 219.86,156.99 219.63,156.91 C 219.41,156.84 219.23,156.76 219.09,156.68 C 218.94,156.60 218.84,156.50 218.78,156.41 C 218.72,156.31 218.69,156.20 218.72,156.09 C 218.75,155.99 218.84,155.89 218.98,155.79 C 219.12,155.69 219.31,155.59 219.55,155.49 C 219.80,155.39 220.10,155.30 220.45,155.20 C 220.81,155.11 221.21,155.01 221.67,154.92 C 222.13,154.83 222.64,154.74 223.21,154.65 C 223.78,154.56 224.40,154.47 225.07,154.38 C 225.74,154.30 226.47,154.21 227.25,154.12 C 228.03,154.04 228.94,154.04 229.75,153.88 C 230.56,153.71 231.35,153.47 232.12,153.15 C 232.88,152.83 233.63,152.43 234.35,151.95 C 235.07,151.46 235.77,150.90 236.45,150.27 C 237.13,149.63 237.79,148.91 238.42,148.11 C 239.06,147.31 239.67,146.43 240.26,145.48 C 240.85,144.52 241.42,143.48 241.96,142.37 C 242.51,141.25 243.03,140.06 243.53,138.78 C 244.03,137.51 244.49,135.97 244.97,134.72 C 245.44,133.47 245.91,132.32 246.38,131.28 C 246.84,130.24 247.30,129.30 247.75,128.47 C 248.20,127.64 248.65,126.91 249.09,126.28 C 249.54,125.66 249.97,125.14 250.41,124.72 C 250.84,124.30 251.27,123.99 251.69,123.78 C 252.11,123.57 252.53,123.47 252.94,123.47 C 253.35,123.47 253.76,123.57 254.16,123.78 C 254.56,123.99 254.98,124.37 255.34,124.72 C 255.71,125.06 256.05,125.44 256.37,125.85 C 256.68,126.26 256.97,126.70 257.23,127.18 C 257.49,127.65 257.72,128.16 257.92,128.70 C 258.13,129.24 258.30,129.82 258.45,130.42 C 258.60,131.03 258.73,131.67 258.82,132.34 C 258.92,133.01 258.98,133.71 259.02,134.45 C 259.06,135.18 259.08,135.95 259.06,136.75 C 259.05,137.55 258.98,138.39 258.94,139.25 C 258.89,140.11 258.85,140.99 258.80,141.91 C 258.75,142.82 258.70,143.76 258.64,144.72 C 258.59,145.68 258.53,146.67 258.47,147.69 C 258.41,148.70 258.35,149.74 258.28,150.81 C 258.22,151.88 258.15,152.97 258.08,154.09 C 258.01,155.21 257.93,156.36 257.86,157.53 C 257.78,158.70 257.71,159.90 257.62,161.12 C 257.54,162.35 257.43,163.73 257.38,164.88 C 257.32,166.02 257.30,167.07 257.30,168.01 C 257.31,168.95 257.35,169.79 257.41,170.52 C 257.48,171.26 257.58,171.89 257.70,172.42 C 257.83,172.95 257.99,173.38 258.17,173.70 C 258.36,174.03 258.57,174.25 258.82,174.37 C 259.07,174.49 259.34,174.50 259.65,174.41 C 259.95,174.33 260.29,174.14 260.66,173.84 C 261.02,173.55 261.45,173.03 261.84,172.66 C 262.24,172.28 262.62,171.93 263.01,171.60 C 263.39,171.27 263.77,170.96 264.15,170.68 C 264.52,170.39 264.90,170.13 265.27,169.89 C 265.63,169.65 266.00,169.43 266.36,169.23 C 266.72,169.04 267.08,168.86 267.43,168.71 C 267.78,168.56 268.13,168.43 268.48,168.32 C 268.82,168.21 269.16,168.13 269.50,168.06 C 269.84,168.00 270.18,167.97 270.50,167.94 C 270.82,167.90 271.13,167.88 271.43,167.87 C 271.73,167.85 272.01,167.85 272.29,167.85 C 272.56,167.86 272.83,167.87 273.08,167.89 C 273.33,167.91 273.57,167.94 273.80,167.98 C 274.02,168.02 274.24,168.07 274.45,168.13 C 274.65,168.19 274.84,168.26 275.02,168.34 C 275.20,168.41 275.37,168.50 275.53,168.59 C 275.69,168.69 275.87,168.74 275.97,168.91 C 276.07,169.07 276.13,169.30 276.14,169.59 C 276.15,169.89 276.12,170.24 276.05,170.66 C 275.97,171.07 275.85,171.55 275.69,172.09 C 275.52,172.64 275.32,173.24 275.06,173.91 C 274.81,174.57 274.51,175.30 274.17,176.09 C 273.83,176.89 273.45,177.74 273.02,178.66 C 272.59,179.57 272.11,180.55 271.59,181.59 C 271.08,182.64 270.38,183.87 269.91,184.91 C 269.43,185.94 269.04,186.92 268.74,187.82 C 268.44,188.73 268.23,189.56 268.10,190.34 C 267.98,191.11 267.94,191.81 267.98,192.45 C 268.03,193.09 268.17,193.67 268.39,194.17 C 268.61,194.68 268.92,195.12 269.32,195.49 C 269.72,195.87 270.20,196.17 270.77,196.41 C 271.35,196.65 272.00,196.83 272.75,196.94 C 273.50,197.05 274.41,197.03 275.25,197.06 C 276.09,197.09 276.94,197.11 277.80,197.12 C 278.65,197.14 279.52,197.14 280.39,197.12 C 281.26,197.11 282.14,197.09 283.03,197.06 C 283.92,197.03 284.82,196.99 285.72,196.94 C 286.62,196.89 287.53,196.82 288.45,196.75 C 289.37,196.68 290.30,196.59 291.23,196.50 C 292.17,196.41 293.11,196.30 294.06,196.19 C 295.01,196.07 295.99,195.93 296.94,195.81 C 297.88,195.70 298.81,195.59 299.72,195.48 C 300.63,195.38 301.53,195.29 302.41,195.20 C 303.29,195.12 304.15,195.04 305.00,194.97 C 305.85,194.90 306.68,194.84 307.50,194.78 C 308.32,194.73 309.12,194.68 309.91,194.64 C 310.69,194.60 311.46,194.57 312.22,194.55 C 312.97,194.52 313.71,194.51 314.44,194.50 C 315.16,194.49 315.88,194.50 316.56,194.50 C 317.24,194.50 317.90,194.49 318.53,194.48 C 319.16,194.48 319.77,194.47 320.34,194.45 C 320.92,194.44 321.47,194.42 322.00,194.41 C 322.53,194.39 323.03,194.37 323.50,194.34 C 323.97,194.32 324.42,194.29 324.84,194.27 C 325.27,194.24 325.66,194.21 326.03,194.17 C 326.40,194.14 326.74,194.10 327.06,194.06 C 327.38,194.02 327.66,193.99 327.94,193.94 C 328.22,193.89 328.49,193.82 328.75,193.75 C 329.01,193.68 329.26,193.59 329.50,193.50 C 329.74,193.41 329.97,193.30 330.19,193.19 C 330.41,193.07 330.61,192.95 330.81,192.81 C 331.01,192.68 331.20,192.53 331.38,192.38 C 331.55,192.22 331.72,192.05 331.88,191.88 C 332.03,191.70 332.18,191.51 332.31,191.31 C 332.45,191.11 332.56,190.88 332.69,190.69 C 332.82,190.49 332.95,190.31 333.09,190.14 C 333.23,189.97 333.38,189.82 333.53,189.67 C 333.68,189.53 333.84,189.40 334.00,189.28 C 334.16,189.16 334.33,189.06 334.50,188.97 C 334.67,188.88 334.85,188.80 335.03,188.73 C 335.21,188.67 335.40,188.62 335.59,188.58 C 335.79,188.54 335.98,188.51 336.19,188.50 C 336.39,188.49 336.61,188.49 336.81,188.50 C 337.01,188.51 337.21,188.53 337.39,188.56 C 337.58,188.59 337.75,188.64 337.92,188.69 C 338.09,188.74 338.25,188.80 338.41,188.88 C 338.56,188.95 338.71,189.03 338.84,189.12 C 338.98,189.22 339.11,189.32 339.23,189.44 C 339.36,189.55 339.47,189.68 339.58,189.81 C 339.68,189.95 339.78,190.09 339.88,190.25 C 339.97,190.41 340.03,190.59 340.12,190.75 C 340.22,190.91 340.33,191.06 340.46,191.20 C 340.59,191.33 340.73,191.46 340.88,191.59 C 341.04,191.71 341.21,191.82 341.39,191.92 C 341.57,192.02 341.77,192.12 341.98,192.20 C 342.20,192.29 342.42,192.36 342.66,192.43 C 342.90,192.50 343.16,192.55 343.43,192.60 C 343.70,192.65 343.98,192.69 344.28,192.72 C 344.58,192.75 344.93,192.75 345.22,192.78 C 345.51,192.81 345.79,192.84 346.04,192.88 C 346.29,192.92 346.53,192.97 346.74,193.02 C 346.96,193.08 347.15,193.14 347.33,193.20 C 347.50,193.27 347.66,193.34 347.80,193.42 C 347.93,193.50 348.05,193.59 348.15,193.68 C 348.25,193.77 348.32,193.87 348.38,193.98 C 348.44,194.08 348.48,194.19 348.50,194.31 C 348.52,194.43 348.52,194.56 348.50,194.69 C 348.48,194.82 348.43,194.96 348.37,195.10 C 348.30,195.25 348.21,195.40 348.10,195.55 C 347.99,195.71 347.86,195.88 347.70,196.05 C 347.55,196.22 347.37,196.39 347.17,196.58 C 346.97,196.76 346.75,196.95 346.51,197.15 C 346.26,197.35 346.00,197.55 345.71,197.76 C 345.42,197.97 345.11,198.18 344.78,198.41 C 344.45,198.63 344.08,198.88 343.72,199.09 C 343.36,199.31 342.98,199.52 342.60,199.71 C 342.22,199.90 341.83,200.09 341.43,200.26 C 341.03,200.43 340.62,200.59 340.20,200.73 C 339.79,200.88 339.36,201.02 338.92,201.14 C 338.49,201.26 338.04,201.38 337.59,201.48 C 337.13,201.58 336.67,201.67 336.20,201.74 C 335.72,201.82 335.24,201.88 334.75,201.94 C 334.26,201.99 333.72,202.02 333.25,202.06 C 332.78,202.11 332.33,202.15 331.91,202.20 C 331.50,202.24 331.11,202.29 330.74,202.34 C 330.38,202.38 330.04,202.43 329.73,202.48 C 329.43,202.54 329.14,202.59 328.89,202.64 C 328.64,202.69 328.41,202.75 328.21,202.80 C 328.01,202.86 327.84,202.92 327.70,202.98 C 327.55,203.04 327.43,203.10 327.34,203.16 C 327.25,203.22 327.21,203.28 327.16,203.34 C 327.10,203.41 327.06,203.48 327.02,203.55 C 326.99,203.63 326.96,203.71 326.95,203.79 C 326.93,203.87 326.92,203.96 326.92,204.05 C 326.92,204.14 326.93,204.23 326.95,204.33 C 326.97,204.43 327.00,204.53 327.04,204.63 C 327.08,204.74 327.12,204.85 327.18,204.96 C 327.24,205.07 327.30,205.19 327.38,205.31 C 327.45,205.43 327.55,205.55 327.62,205.69 C 327.70,205.82 327.76,205.96 327.81,206.11 C 327.86,206.26 327.91,206.41 327.94,206.58 C 327.97,206.74 327.99,206.91 328.00,207.09 C 328.01,207.27 328.01,207.46 328.00,207.66 C 327.99,207.85 327.97,208.05 327.94,208.27 C 327.91,208.48 327.86,208.70 327.81,208.92 C 327.76,209.15 327.70,209.38 327.62,209.62 C 327.55,209.87 327.45,210.04 327.38,210.38 C 327.30,210.71 327.23,211.12 327.17,211.62 C 327.11,212.12 327.06,212.71 327.02,213.38 C 326.97,214.04 326.93,214.79 326.91,215.62 C 326.88,216.46 326.86,217.38 326.84,218.38 C 326.83,219.38 326.83,220.46 326.83,221.62 C 326.83,222.79 326.84,224.04 326.86,225.38 C 326.88,226.71 326.90,228.12 326.94,229.62 C 326.97,231.12 327.00,232.89 327.06,234.38 C 327.13,235.86 327.22,237.26 327.34,238.55 C 327.45,239.85 327.59,241.06 327.76,242.16 C 327.92,243.27 328.11,244.29 328.33,245.20 C 328.54,246.12 328.78,246.94 329.05,247.67 C 329.31,248.40 329.60,249.03 329.91,249.57 C 330.23,250.11 330.57,250.55 330.93,250.90 C 331.29,251.25 331.68,251.50 332.09,251.66 C 332.51,251.81 332.98,251.77 333.41,251.84 C 333.84,251.91 334.26,251.99 334.68,252.07 C 335.10,252.15 335.51,252.24 335.91,252.34 C 336.32,252.43 336.72,252.53 337.11,252.64 C 337.50,252.75 337.89,252.86 338.27,252.98 C 338.64,253.11 339.02,253.23 339.38,253.37 C 339.75,253.50 340.11,253.64 340.46,253.79 C 340.81,253.94 341.16,254.09 341.50,254.25 C 341.84,254.41 342.18,254.59 342.50,254.75 C 342.82,254.91 343.12,255.07 343.41,255.23 C 343.70,255.38 343.98,255.53 344.24,255.68 C 344.50,255.83 344.75,255.97 344.98,256.11 C 345.22,256.25 345.44,256.38 345.64,256.52 C 345.85,256.65 346.04,256.77 346.21,256.90 C 346.39,257.02 346.55,257.14 346.70,257.26 C 346.84,257.37 346.98,257.49 347.09,257.59 C 347.21,257.70 347.31,257.80 347.41,257.91 C 347.50,258.01 347.60,258.12 347.68,258.23 C 347.76,258.33 347.84,258.44 347.91,258.55 C 347.99,258.67 348.05,258.78 348.11,258.89 C 348.17,259.00 348.22,259.12 348.27,259.23 C 348.31,259.35 348.35,259.47 348.38,259.59 C 348.42,259.70 348.44,259.82 348.46,259.95 C 348.48,260.07 348.49,260.19 348.50,260.31 C 348.51,260.44 348.52,260.57 348.50,260.69 C 348.48,260.81 348.44,260.92 348.38,261.02 C 348.32,261.13 348.25,261.23 348.15,261.32 C 348.05,261.41 347.93,261.50 347.80,261.58 C 347.66,261.66 347.50,261.73 347.33,261.80 C 347.15,261.86 346.96,261.92 346.74,261.98 C 346.53,262.03 346.29,262.08 346.04,262.12 C 345.79,262.16 345.51,262.19 345.22,262.22 C 344.93,262.25 344.58,262.25 344.28,262.28 C 343.98,262.31 343.70,262.34 343.43,262.38 C 343.16,262.42 342.90,262.47 342.66,262.52 C 342.42,262.58 342.20,262.64 341.98,262.70 C 341.77,262.77 341.57,262.84 341.39,262.92 C 341.21,263.00 341.04,263.09 340.88,263.18 C 340.73,263.27 340.59,263.37 340.46,263.48 C 340.33,263.58 340.22,263.69 340.12,263.81 C 340.03,263.93 339.97,264.07 339.88,264.19 C 339.78,264.31 339.68,264.42 339.58,264.53 C 339.47,264.64 339.36,264.74 339.23,264.84 C 339.11,264.94 338.98,265.04 338.84,265.12 C 338.71,265.21 338.56,265.30 338.41,265.38 C 338.25,265.45 338.09,265.53 337.92,265.59 C 337.75,265.66 337.58,265.72 337.39,265.78 C 337.21,265.84 337.01,265.89 336.81,265.94 C 336.61,265.98 336.39,266.04 336.19,266.06 C 335.98,266.09 335.79,266.10 335.59,266.09 C 335.40,266.09 335.21,266.07 335.03,266.03 C 334.85,265.99 334.67,265.94 334.50,265.88 C 334.33,265.81 334.16,265.72 334.00,265.62 C 333.84,265.53 333.68,265.41 333.53,265.28 C 333.38,265.15 333.23,265.01 333.09,264.84 C 332.95,264.68 332.82,264.51 332.69,264.31 C 332.56,264.12 332.45,263.89 332.31,263.69 C 332.18,263.49 332.04,263.30 331.89,263.12 C 331.74,262.95 331.59,262.78 331.42,262.62 C 331.26,262.47 331.09,262.32 330.91,262.19 C 330.73,262.05 330.54,261.93 330.34,261.81 C 330.15,261.70 329.95,261.59 329.73,261.50 C 329.52,261.41 329.30,261.32 329.08,261.25 C 328.85,261.18 328.62,261.11 328.38,261.06 C 328.13,261.01 328.02,260.98 327.62,260.94 C 327.23,260.89 326.70,260.84 326.03,260.78 C 325.36,260.72 324.55,260.66 323.59,260.59 C 322.64,260.53 321.55,260.45 320.31,260.38 C 319.08,260.30 317.70,260.21 316.19,260.12 C 314.67,260.04 313.02,259.94 311.22,259.84 C 309.42,259.74 307.48,259.64 305.41,259.53 C 303.33,259.42 301.11,259.31 298.75,259.19 C 296.39,259.07 293.60,258.93 291.25,258.81 C 288.90,258.70 286.71,258.60 284.66,258.51 C 282.62,258.42 280.73,258.34 278.99,258.27 C 277.25,258.21 275.67,258.15 274.23,258.11 C 272.80,258.07 271.52,258.04 270.39,258.02 C 269.26,258.00 268.29,257.99 267.46,257.99 C 266.64,258.00 265.96,258.01 265.45,258.04 C 264.93,258.07 264.56,258.11 264.34,258.16 C 264.13,258.21 264.21,258.28 264.16,258.34 C 264.10,258.40 264.06,258.46 264.02,258.52 C 263.99,258.58 263.96,258.64 263.95,258.70 C 263.93,258.75 263.92,258.81 263.92,258.86 C 263.92,258.91 263.93,258.96 263.95,259.02 C 263.97,259.07 264.00,259.12 264.04,259.16 C 264.08,259.21 264.12,259.26 264.18,259.30 C 264.24,259.35 264.30,259.39 264.38,259.44 C 264.45,259.48 264.52,259.46 264.62,259.56 C 264.73,259.67 264.87,259.83 265.03,260.06 C 265.19,260.29 265.38,260.58 265.59,260.94 C 265.81,261.29 266.05,261.71 266.31,262.19 C 266.58,262.67 266.87,263.21 267.19,263.81 C 267.51,264.42 267.85,265.08 268.22,265.81 C 268.59,266.54 268.98,267.33 269.41,268.19 C 269.83,269.04 270.28,269.96 270.75,270.94 C 271.22,271.92 271.79,273.08 272.25,274.06 C 272.71,275.05 273.12,275.97 273.49,276.84 C 273.86,277.70 274.19,278.51 274.48,279.26 C 274.76,280.01 275.00,280.70 275.20,281.33 C 275.40,281.96 275.56,282.53 275.67,283.05 C 275.79,283.56 275.86,284.02 275.88,284.41 C 275.91,284.81 275.89,285.15 275.84,285.43 C 275.78,285.71 275.68,285.93 275.53,286.09 C 275.39,286.26 275.16,286.31 274.97,286.41 C 274.77,286.50 274.57,286.59 274.37,286.66 C 274.16,286.74 273.95,286.81 273.73,286.87 C 273.51,286.93 273.28,286.98 273.05,287.02 C 272.81,287.06 272.57,287.09 272.33,287.11 C 272.08,287.13 271.83,287.14 271.57,287.15 C 271.31,287.15 271.05,287.15 270.77,287.13 C 270.50,287.12 270.22,287.10 269.94,287.06 C 269.65,287.03 269.34,286.98 269.06,286.94 C 268.79,286.89 268.53,286.84 268.29,286.79 C 268.05,286.74 267.82,286.68 267.62,286.62 C 267.41,286.56 267.22,286.49 267.05,286.42 C 266.87,286.35 266.72,286.28 266.58,286.20 C 266.44,286.13 266.32,286.05 266.21,285.96 C 266.11,285.88 266.02,285.79 265.95,285.70 C 265.87,285.60 265.82,285.51 265.78,285.41 C 265.74,285.31 265.76,285.21 265.72,285.09 C 265.68,284.98 265.61,284.85 265.52,284.71 C 265.44,284.57 265.33,284.42 265.20,284.26 C 265.06,284.10 264.91,283.92 264.73,283.73 C 264.56,283.55 264.36,283.35 264.14,283.14 C 263.92,282.93 263.68,282.71 263.41,282.48 C 263.15,282.24 262.86,282.00 262.55,281.74 C 262.25,281.49 261.92,281.22 261.56,280.94 C 261.21,280.66 260.78,280.21 260.44,280.06 C 260.09,279.92 259.78,279.92 259.50,280.08 C 259.22,280.23 258.97,280.53 258.75,280.98 C 258.53,281.43 258.34,282.03 258.19,282.78 C 258.03,283.53 257.91,284.42 257.81,285.47 C 257.72,286.51 257.66,287.71 257.62,289.05 C 257.59,290.39 257.59,291.88 257.62,293.52 C 257.66,295.15 257.72,296.94 257.81,298.88 C 257.91,300.81 258.09,303.15 258.19,305.12 C 258.28,307.10 258.35,308.96 258.38,310.71 C 258.42,312.46 258.42,314.10 258.40,315.63 C 258.37,317.16 258.32,318.58 258.23,319.89 C 258.15,321.20 258.04,322.40 257.89,323.48 C 257.75,324.57 257.57,325.55 257.37,326.41 C 257.16,327.28 256.93,328.04 256.66,328.68 C 256.40,329.32 256.11,329.86 255.78,330.28 C 255.46,330.70 255.06,330.93 254.72,331.22 C 254.38,331.51 254.06,331.77 253.75,332.00 C 253.44,332.23 253.15,332.44 252.88,332.62 C 252.60,332.81 252.34,332.96 252.09,333.09 C 251.85,333.22 251.62,333.33 251.41,333.41 C 251.19,333.48 250.99,333.54 250.81,333.56 C 250.63,333.59 250.46,333.59 250.31,333.56 C 250.16,333.54 250.03,333.48 249.91,333.41 Z" fill="none" stroke="currentColor" stroke-width="1.5" stroke-linejoin="round" stroke-linecap="round" filter="url(#glow)" />
</svg>