<svg xmlns="http://www.w3.org/2000/svg" width="512" height="512" viewBox="98.73 91.08 344.69 333.18" preserveAspectRatio="xMidYMid meet">
  <defs>
    <filter id="glow" x="-30%" y="-30%" width="160%" height="160%">
      <feGaussianBlur in="SourceGraphic" stdDeviation="2.4" result="blur" />
      <feMerge>
        <feMergeNode in="blur" />
        <feMergeNode in="SourceGraphic" />
      </feMerge>
    </filter>
    <clipPath id="hull-clip">
      <path d="M 266.06,396.50 C 265.68,396.51 265.30,396.51 264.94,396.50 C 264.58,396.49 264.23,396.47 263.90,396.45 C 263.57,396.42 263.25,396.38 262.95,396.34 C 262.64,396.29 262.35,396.24 262.08,396.17 C 261.80,396.11 261.54,396.04 261.30,395.95 C 261.05,395.87 260.82,395.78 260.60,395.68 C 260.38,395.58 260.18,395.47 259.99,395.35 C 259.80,395.23 259.63,395.11 259.47,394.97 C 259.31,394.83 259.17,394.70 259.03,394.53 C 258.89,394.37 258.75,394.18 258.62,393.98 C 258.48,393.77 258.35,393.55 258.23,393.30 C 258.10,393.06 257.98,392.80 257.86,392.52 C 257.74,392.23 257.63,391.93 257.52,391.61 C 257.40,391.29 257.30,390.95 257.20,390.59 C 257.09,390.23 256.99,389.85 256.90,389.45 C 256.80,389.05 256.71,388.63 256.62,388.19 C 256.54,387.75 256.46,387.25 256.38,386.81 C 256.29,386.38 256.20,385.96 256.12,385.57 C 256.03,385.18 255.94,384.81 255.85,384.46 C 255.76,384.11 255.67,383.79 255.58,383.48 C 255.49,383.18 255.39,382.90 255.30,382.64 C 255.20,382.38 255.11,382.14 255.01,381.93 C 254.91,381.71 254.81,381.52 254.71,381.35 C 254.61,381.18 254.51,381.03 254.41,380.91 C 254.30,380.78 254.23,380.70 254.09,380.59 C 253.95,380.49 253.78,380.39 253.56,380.30 C 253.35,380.20 253.10,380.11 252.81,380.02 C 252.53,379.92 252.20,379.84 251.84,379.75 C 251.48,379.66 251.09,379.58 250.66,379.50 C 250.22,379.42 249.76,379.34 249.25,379.27 C 248.74,379.19 248.20,379.12 247.62,379.05 C 247.05,378.98 246.43,378.91 245.78,378.84 C 245.13,378.78 244.36,378.72 243.72,378.66 C 243.08,378.59 242.48,378.52 241.92,378.44 C 241.37,378.36 240.86,378.28 240.39,378.19 C 239.92,378.10 239.50,378.01 239.12,377.91 C 238.75,377.81 238.41,377.70 238.12,377.59 C 237.84,377.48 237.59,377.37 237.39,377.25 C 237.19,377.13 237.03,377.01 236.92,376.88 C 236.81,376.74 236.74,376.61 236.72,376.47 C 236.70,376.33 236.73,376.17 236.78,376.03 C 236.84,375.89 236.93,375.76 237.05,375.63 C 237.18,375.51 237.34,375.39 237.54,375.27 C 237.74,375.16 237.97,375.05 238.23,374.95 C 238.50,374.85 238.80,374.76 239.14,374.67 C 239.48,374.58 239.85,374.50 240.26,374.43 C 240.67,374.36 241.11,374.29 241.59,374.23 C 242.06,374.17 242.58,374.11 243.12,374.06 C 243.67,374.01 244.32,373.98 244.88,373.94 C 245.43,373.89 245.94,373.85 246.43,373.80 C 246.92,373.76 247.37,373.71 247.79,373.66 C 248.21,373.62 248.60,373.57 248.95,373.52 C 249.31,373.46 249.63,373.41 249.92,373.36 C 250.21,373.31 250.47,373.25 250.70,373.20 C 250.92,373.14 251.11,373.08 251.27,373.02 C 251.43,372.96 251.56,372.90 251.66,372.84 C 251.75,372.78 251.82,372.82 251.84,372.66 C 251.87,372.50 251.85,372.24 251.79,371.88 C 251.73,371.53 251.63,371.07 251.49,370.52 C 251.35,369.97 251.17,369.32 250.95,368.58 C 250.73,367.83 250.47,366.99 250.17,366.05 C 249.87,365.11 249.53,364.07 249.15,362.93 C 248.77,361.79 248.35,360.56 247.88,359.23 C 247.42,357.89 246.92,356.46 246.38,354.94 C 245.83,353.41 245.20,351.65 244.62,350.06 C 244.05,348.48 243.48,346.93 242.92,345.42 C 242.36,343.91 241.81,342.45 241.27,341.02 C 240.72,339.59 240.18,338.20 239.66,336.84 C 239.13,335.49 238.61,334.18 238.09,332.91 C 237.58,331.63 237.08,330.40 236.58,329.20 C 236.08,328.01 235.59,326.85 235.11,325.73 C 234.63,324.62 234.15,323.54 233.69,322.50 C 233.22,321.46 232.75,320.44 232.31,319.50 C 231.88,318.56 231.46,317.68 231.07,316.85 C 230.68,316.03 230.31,315.26 229.96,314.55 C 229.61,313.85 229.29,313.20 228.98,312.61 C 228.68,312.02 228.40,311.49 228.14,311.02 C 227.88,310.54 227.64,310.13 227.43,309.77 C 227.21,309.42 227.02,309.12 226.85,308.88 C 226.68,308.64 226.53,308.46 226.41,308.34 C 226.28,308.22 226.23,308.20 226.09,308.16 C 225.96,308.12 225.79,308.10 225.59,308.10 C 225.38,308.11 225.15,308.13 224.88,308.18 C 224.62,308.23 224.32,308.30 223.98,308.39 C 223.65,308.48 223.29,308.60 222.89,308.73 C 222.49,308.87 222.06,309.03 221.60,309.21 C 221.14,309.39 220.64,309.60 220.12,309.82 C 219.59,310.05 219.03,310.29 218.44,310.56 C 217.85,310.83 217.19,311.16 216.56,311.44 C 215.93,311.71 215.30,311.97 214.66,312.20 C 214.02,312.44 213.37,312.66 212.72,312.86 C 212.07,313.06 211.41,313.24 210.75,313.41 C 210.09,313.57 209.42,313.72 208.75,313.84 C 208.08,313.97 207.40,314.08 206.72,314.17 C 206.04,314.26 205.35,314.34 204.66,314.39 C 203.96,314.45 203.27,314.48 202.56,314.50 C 201.86,314.52 201.14,314.58 200.44,314.50 C 199.74,314.42 199.05,314.26 198.37,314.02 C 197.69,313.79 197.01,313.47 196.35,313.07 C 195.69,312.67 195.04,312.20 194.39,311.64 C 193.75,311.08 193.11,310.45 192.48,309.73 C 191.86,309.02 191.24,308.23 190.63,307.35 C 190.02,306.48 189.43,305.52 188.84,304.49 C 188.25,303.46 187.67,302.35 187.09,301.16 C 186.52,299.96 185.90,298.54 185.41,297.34 C 184.92,296.15 184.50,295.02 184.16,293.97 C 183.81,292.92 183.54,291.94 183.34,291.03 C 183.15,290.12 183.02,289.29 182.97,288.53 C 182.92,287.77 182.94,287.08 183.03,286.47 C 183.12,285.85 183.29,285.31 183.53,284.84 C 183.77,284.38 184.08,283.98 184.47,283.66 C 184.85,283.33 185.31,283.08 185.84,282.91 C 186.38,282.73 187.09,282.70 187.66,282.59 C 188.22,282.49 188.75,282.39 189.24,282.29 C 189.73,282.19 190.19,282.09 190.60,281.99 C 191.02,281.89 191.39,281.80 191.73,281.70 C 192.07,281.61 192.38,281.51 192.64,281.42 C 192.90,281.33 193.13,281.24 193.32,281.15 C 193.51,281.06 193.66,280.97 193.77,280.88 C 193.89,280.80 193.96,280.71 194.00,280.62 C 194.04,280.54 194.03,280.45 194.00,280.38 C 193.97,280.30 193.92,280.22 193.84,280.16 C 193.77,280.09 193.66,280.03 193.53,279.97 C 193.40,279.91 193.24,279.86 193.06,279.81 C 192.88,279.77 192.67,279.72 192.44,279.69 C 192.20,279.65 191.94,279.62 191.66,279.59 C 191.37,279.57 191.06,279.55 190.72,279.53 C 190.38,279.52 190.02,279.51 189.62,279.50 C 189.23,279.49 188.77,279.51 188.38,279.50 C 187.98,279.49 187.60,279.47 187.25,279.44 C 186.90,279.41 186.56,279.36 186.25,279.31 C 185.94,279.26 185.65,279.20 185.38,279.12 C 185.10,279.05 184.85,278.97 184.62,278.88 C 184.40,278.78 184.19,278.68 184.00,278.56 C 183.81,278.45 183.65,278.32 183.50,278.19 C 183.35,278.05 183.23,277.91 183.12,277.75 C 183.02,277.59 183.00,277.41 182.88,277.25 C 182.75,277.09 182.58,276.93 182.36,276.78 C 182.14,276.63 181.88,276.48 181.58,276.34 C 181.27,276.20 180.92,276.07 180.53,275.94 C 180.14,275.81 179.70,275.68 179.22,275.56 C 178.74,275.44 178.21,275.33 177.64,275.22 C 177.07,275.11 176.46,275.01 175.80,274.91 C 175.14,274.81 174.43,274.71 173.69,274.62 C 172.94,274.54 172.07,274.45 171.31,274.38 C 170.55,274.30 169.83,274.23 169.14,274.17 C 168.45,274.11 167.79,274.06 167.17,274.02 C 166.55,273.97 165.96,273.93 165.41,273.91 C 164.85,273.88 164.33,273.86 163.84,273.84 C 163.36,273.83 162.90,273.83 162.48,273.83 C 162.07,273.83 161.68,273.84 161.33,273.86 C 160.98,273.88 160.66,273.90 160.38,273.94 C 160.09,273.97 159.87,274.03 159.62,274.06 C 159.38,274.10 159.14,274.12 158.91,274.14 C 158.67,274.16 158.44,274.17 158.22,274.17 C 157.99,274.17 157.78,274.17 157.56,274.16 C 157.35,274.14 157.14,274.12 156.94,274.09 C 156.73,274.07 156.54,274.03 156.34,273.98 C 156.15,273.94 155.96,273.89 155.78,273.83 C 155.60,273.77 155.42,273.70 155.25,273.62 C 155.08,273.55 154.97,273.46 154.75,273.38 C 154.53,273.29 154.26,273.20 153.94,273.11 C 153.61,273.02 153.24,272.92 152.81,272.83 C 152.39,272.73 151.91,272.63 151.38,272.53 C 150.84,272.43 150.26,272.33 149.62,272.22 C 148.99,272.11 148.30,272.00 147.56,271.89 C 146.82,271.78 146.03,271.66 145.19,271.55 C 144.34,271.43 143.45,271.31 142.50,271.19 C 141.55,271.07 140.44,270.94 139.50,270.81 C 138.56,270.69 137.67,270.56 136.84,270.43 C 136.00,270.30 135.23,270.17 134.51,270.04 C 133.79,269.91 133.12,269.77 132.52,269.64 C 131.91,269.51 131.36,269.37 130.86,269.23 C 130.36,269.10 129.92,268.96 129.54,268.82 C 129.15,268.68 128.83,268.54 128.55,268.40 C 128.28,268.26 128.07,268.11 127.91,267.97 C 127.75,267.82 127.69,267.71 127.59,267.53 C 127.50,267.35 127.40,267.13 127.32,266.88 C 127.24,266.63 127.16,266.35 127.09,266.02 C 127.01,265.70 126.95,265.35 126.89,264.95 C 126.83,264.56 126.78,264.13 126.73,263.67 C 126.69,263.21 126.65,262.71 126.62,262.18 C 126.58,261.65 126.56,261.08 126.54,260.48 C 126.52,259.87 126.51,259.24 126.50,258.56 C 126.49,257.89 126.49,257.11 126.50,256.44 C 126.51,255.76 126.52,255.13 126.54,254.52 C 126.56,253.92 126.58,253.35 126.62,252.82 C 126.65,252.29 126.69,251.79 126.73,251.33 C 126.78,250.87 126.83,250.44 126.89,250.05 C 126.95,249.65 127.01,249.30 127.09,248.98 C 127.16,248.65 127.24,248.37 127.32,248.12 C 127.40,247.87 127.50,247.65 127.59,247.47 C 127.69,247.29 127.80,247.17 127.91,247.03 C 128.01,246.89 128.13,246.76 128.24,246.63 C 128.36,246.51 128.48,246.39 128.60,246.27 C 128.73,246.16 128.85,246.05 128.98,245.95 C 129.12,245.85 129.25,245.76 129.39,245.67 C 129.53,245.58 129.67,245.50 129.82,245.43 C 129.97,245.36 130.12,245.29 130.27,245.23 C 130.43,245.17 130.59,245.11 130.75,245.06 C 130.91,245.01 131.03,244.99 131.25,244.94 C 131.47,244.89 131.76,244.83 132.09,244.77 C 132.43,244.70 132.83,244.63 133.28,244.55 C 133.73,244.47 134.24,244.38 134.81,244.28 C 135.38,244.18 136.01,244.08 136.69,243.97 C 137.37,243.86 138.11,243.74 138.91,243.61 C 139.70,243.48 140.56,243.35 141.47,243.20 C 142.38,243.06 143.35,242.91 144.38,242.75 C 145.40,242.59 146.55,242.41 147.62,242.25 C 148.70,242.09 149.77,241.94 150.83,241.80 C 151.89,241.65 152.94,241.52 153.98,241.39 C 155.03,241.26 156.07,241.14 157.09,241.03 C 158.12,240.92 159.14,240.82 160.16,240.72 C 161.17,240.62 162.17,240.53 163.17,240.45 C 164.17,240.37 165.16,240.30 166.14,240.23 C 167.12,240.17 168.10,240.11 169.06,240.06 C 170.03,240.01 171.03,239.99 171.94,239.94 C 172.84,239.89 173.69,239.83 174.48,239.77 C 175.28,239.70 176.02,239.63 176.70,239.55 C 177.39,239.47 178.02,239.38 178.59,239.28 C 179.17,239.18 179.69,239.08 180.16,238.97 C 180.62,238.86 181.03,238.74 181.39,238.61 C 181.75,238.48 182.05,238.35 182.30,238.20 C 182.54,238.06 182.74,237.91 182.88,237.75 C 183.01,237.59 183.02,237.41 183.12,237.25 C 183.23,237.09 183.35,236.95 183.50,236.81 C 183.65,236.68 183.81,236.55 184.00,236.44 C 184.19,236.32 184.40,236.22 184.62,236.12 C 184.85,236.03 185.10,235.95 185.38,235.88 C 185.65,235.80 185.94,235.74 186.25,235.69 C 186.56,235.64 186.90,235.59 187.25,235.56 C 187.60,235.53 187.98,235.51 188.38,235.50 C 188.77,235.49 189.23,235.51 189.62,235.50 C 190.02,235.49 190.38,235.48 190.72,235.47 C 191.06,235.45 191.37,235.43 191.66,235.41 C 191.94,235.38 192.20,235.35 192.44,235.31 C 192.67,235.28 192.88,235.23 193.06,235.19 C 193.24,235.14 193.40,235.09 193.53,235.03 C 193.66,234.97 193.77,234.91 193.84,234.84 C 193.92,234.78 193.97,234.70 194.00,234.62 C 194.03,234.55 194.04,234.46 194.00,234.38 C 193.96,234.29 193.89,234.20 193.77,234.12 C 193.66,234.03 193.51,233.94 193.32,233.85 C 193.13,233.76 192.90,233.67 192.64,233.58 C 192.38,233.49 192.07,233.39 191.73,233.30 C 191.39,233.20 191.02,233.11 190.60,233.01 C 190.19,232.91 189.73,232.81 189.24,232.71 C 188.75,232.61 188.22,232.51 187.66,232.41 C 187.09,232.30 186.37,232.27 185.84,232.09 C 185.32,231.91 184.86,231.66 184.48,231.33 C 184.11,231.00 183.80,230.59 183.58,230.11 C 183.35,229.63 183.20,229.07 183.12,228.44 C 183.05,227.80 183.05,227.10 183.12,226.31 C 183.20,225.53 183.35,224.67 183.58,223.73 C 183.80,222.80 184.11,221.79 184.48,220.70 C 184.86,219.62 185.32,218.46 185.84,217.22 C 186.37,215.98 187.05,214.51 187.66,213.28 C 188.26,212.05 188.88,210.91 189.49,209.85 C 190.11,208.79 190.73,207.82 191.35,206.93 C 191.98,206.04 192.60,205.24 193.23,204.52 C 193.87,203.80 194.50,203.16 195.14,202.61 C 195.78,202.06 196.42,201.59 197.07,201.21 C 197.72,200.83 198.37,200.53 199.02,200.32 C 199.68,200.11 200.34,199.98 201.00,199.94 C 201.66,199.89 202.33,200.01 203.00,200.06 C 203.67,200.12 204.34,200.19 205.02,200.28 C 205.69,200.37 206.37,200.47 207.05,200.59 C 207.73,200.71 208.41,200.85 209.09,201.00 C 209.78,201.15 210.47,201.32 211.16,201.50 C 211.85,201.68 212.54,201.88 213.23,202.09 C 213.93,202.31 214.63,202.54 215.33,202.78 C 216.03,203.03 216.73,203.29 217.44,203.56 C 218.14,203.84 218.83,204.33 219.56,204.44 C 220.29,204.55 221.05,204.48 221.82,204.23 C 222.60,203.98 223.39,203.54 224.21,202.93 C 225.03,202.32 225.87,201.52 226.73,200.55 C 227.60,199.57 228.48,198.42 229.39,197.08 C 230.30,195.74 231.23,194.22 232.18,192.52 C 233.13,190.82 234.11,188.94 235.10,186.88 C 236.10,184.82 237.12,182.58 238.16,180.16 C 239.20,177.73 240.35,174.80 241.34,172.34 C 242.34,169.89 243.26,167.59 244.11,165.44 C 244.96,163.29 245.74,161.29 246.45,159.44 C 247.16,157.59 247.80,155.89 248.38,154.34 C 248.95,152.80 249.45,151.40 249.88,150.16 C 250.30,148.91 250.66,147.82 250.95,146.88 C 251.24,145.93 251.46,145.14 251.61,144.50 C 251.76,143.86 251.84,143.37 251.84,143.03 C 251.85,142.69 251.75,142.64 251.66,142.47 C 251.56,142.29 251.44,142.13 251.29,141.98 C 251.14,141.82 250.95,141.68 250.74,141.55 C 250.53,141.43 250.29,141.31 250.02,141.20 C 249.74,141.10 249.44,141.00 249.11,140.92 C 248.78,140.84 248.42,140.77 248.02,140.71 C 247.63,140.65 247.21,140.61 246.76,140.57 C 246.31,140.54 245.82,140.51 245.31,140.50 C 244.80,140.49 244.20,140.51 243.69,140.50 C 243.18,140.49 242.70,140.47 242.26,140.45 C 241.81,140.42 241.40,140.38 241.02,140.34 C 240.64,140.29 240.30,140.24 239.98,140.17 C 239.67,140.11 239.39,140.04 239.14,139.95 C 238.89,139.87 238.68,139.78 238.49,139.68 C 238.31,139.58 238.16,139.47 238.04,139.35 C 237.92,139.23 237.83,139.11 237.78,138.97 C 237.73,138.83 237.70,138.67 237.72,138.53 C 237.74,138.39 237.81,138.26 237.92,138.12 C 238.03,137.99 238.19,137.87 238.39,137.75 C 238.59,137.63 238.84,137.52 239.12,137.41 C 239.41,137.30 239.75,137.19 240.12,137.09 C 240.50,136.99 240.92,136.90 241.39,136.81 C 241.86,136.72 242.37,136.64 242.92,136.56 C 243.48,136.48 244.08,136.41 244.72,136.34 C 245.36,136.28 246.13,136.22 246.78,136.16 C 247.43,136.09 248.05,136.02 248.62,135.94 C 249.20,135.86 249.74,135.78 250.25,135.69 C 250.76,135.60 251.22,135.51 251.66,135.41 C 252.09,135.31 252.48,135.20 252.84,135.09 C 253.20,134.98 253.53,134.87 253.81,134.75 C 254.10,134.63 254.35,134.51 254.56,134.38 C 254.78,134.24 254.95,134.11 255.09,133.97 C 255.23,133.83 255.30,133.70 255.41,133.53 C 255.51,133.37 255.61,133.18 255.71,132.98 C 255.81,132.77 255.91,132.55 256.01,132.30 C 256.11,132.06 256.20,131.80 256.30,131.52 C 256.39,131.23 256.49,130.93 256.58,130.61 C 256.67,130.29 256.76,129.95 256.85,129.59 C 256.94,129.23 257.03,128.85 257.12,128.45 C 257.20,128.05 257.29,127.63 257.38,127.19 C 257.46,126.75 257.54,126.25 257.62,125.81 C 257.71,125.38 257.80,124.96 257.88,124.57 C 257.97,124.18 258.06,123.81 258.15,123.46 C 258.24,123.11 258.33,122.79 258.42,122.48 C 258.51,122.18 258.61,121.90 258.70,121.64 C 258.80,121.38 258.89,121.14 258.99,120.93 C 259.09,120.71 259.19,120.52 259.29,120.35 C 259.39,120.18 259.49,120.03 259.59,119.91 C 259.70,119.78 259.77,119.69 259.91,119.59 C 260.04,119.50 260.20,119.41 260.40,119.34 C 260.59,119.26 260.82,119.19 261.07,119.13 C 261.32,119.07 261.61,119.02 261.92,118.98 C 262.24,118.94 262.58,118.91 262.95,118.89 C 263.33,118.87 263.73,118.86 264.16,118.85 C 264.60,118.85 265.06,118.85 265.55,118.87 C 266.05,118.88 266.57,118.90 267.12,118.94 C 267.68,118.97 268.31,119.02 268.88,119.06 C 269.44,119.11 269.98,119.15 270.49,119.20 C 271.01,119.24 271.50,119.29 271.98,119.34 C 272.45,119.38 272.90,119.43 273.33,119.48 C 273.76,119.54 274.16,119.59 274.55,119.64 C 274.93,119.69 275.29,119.75 275.63,119.80 C 275.97,119.86 276.29,119.92 276.59,119.98 C 276.88,120.04 277.15,120.10 277.41,120.16 C 277.66,120.22 277.88,120.17 278.09,120.34 C 278.31,120.52 278.52,120.80 278.71,121.20 C 278.90,121.59 279.09,122.10 279.26,122.71 C 279.43,123.33 279.59,124.05 279.73,124.89 C 279.88,125.73 280.02,126.68 280.14,127.73 C 280.26,128.79 280.38,129.96 280.48,131.24 C 280.58,132.52 280.67,133.91 280.74,135.41 C 280.82,136.92 280.88,138.53 280.94,140.25 C 280.99,141.97 281.01,144.05 281.06,145.75 C 281.12,147.45 281.18,149.02 281.26,150.46 C 281.33,151.90 281.42,153.21 281.52,154.38 C 281.62,155.56 281.74,156.60 281.86,157.52 C 281.98,158.43 282.12,159.21 282.27,159.86 C 282.41,160.51 282.57,161.03 282.74,161.41 C 282.91,161.80 283.10,162.06 283.29,162.18 C 283.48,162.30 283.69,162.30 283.91,162.16 C 284.12,162.02 284.35,161.59 284.59,161.34 C 284.84,161.10 285.10,160.87 285.38,160.67 C 285.65,160.47 285.94,160.29 286.25,160.14 C 286.56,159.99 286.88,159.86 287.22,159.75 C 287.56,159.64 287.91,159.56 288.28,159.50 C 288.65,159.44 289.04,159.40 289.44,159.39 C 289.84,159.38 290.26,159.39 290.69,159.42 C 291.12,159.46 291.57,159.51 292.03,159.59 C 292.49,159.67 293.04,159.71 293.47,159.91 C 293.90,160.11 294.27,160.40 294.60,160.79 C 294.93,161.18 295.20,161.66 295.43,162.24 C 295.65,162.82 295.83,163.50 295.95,164.27 C 296.08,165.04 296.15,165.90 296.17,166.86 C 296.19,167.82 296.17,168.87 296.09,170.02 C 296.01,171.17 295.88,172.42 295.70,173.76 C 295.51,175.10 295.28,176.53 295.00,178.06 C 294.72,179.59 294.32,181.40 294.00,182.94 C 293.68,184.48 293.36,185.93 293.06,187.30 C 292.76,188.66 292.47,189.95 292.19,191.14 C 291.91,192.34 291.64,193.45 291.38,194.47 C 291.11,195.49 290.86,196.43 290.62,197.28 C 290.39,198.13 290.16,198.90 289.94,199.58 C 289.72,200.26 289.51,200.85 289.31,201.36 C 289.11,201.87 288.93,202.29 288.75,202.62 C 288.57,202.96 288.40,203.12 288.25,203.38 C 288.10,203.63 287.95,203.88 287.82,204.13 C 287.69,204.39 287.57,204.64 287.46,204.90 C 287.35,205.15 287.26,205.41 287.17,205.67 C 287.09,205.93 287.01,206.19 286.95,206.45 C 286.89,206.71 286.84,206.98 286.80,207.24 C 286.77,207.51 286.74,207.77 286.73,208.04 C 286.71,208.31 286.71,208.57 286.72,208.84 C 286.73,209.11 286.66,209.40 286.78,209.66 C 286.90,209.91 287.13,210.15 287.46,210.37 C 287.79,210.59 288.22,210.79 288.76,210.98 C 289.29,211.16 289.93,211.33 290.67,211.48 C 291.41,211.64 292.26,211.77 293.20,211.89 C 294.15,212.01 295.20,212.11 296.35,212.20 C 297.50,212.28 298.76,212.35 300.12,212.40 C 301.48,212.45 302.94,212.48 304.50,212.50 C 306.06,212.52 307.73,212.51 309.50,212.50 C 311.27,212.49 313.14,212.46 315.11,212.42 C 317.08,212.38 319.15,212.33 321.33,212.27 C 323.50,212.20 325.78,212.12 328.16,212.03 C 330.53,211.94 333.01,211.84 335.59,211.72 C 338.17,211.60 340.86,211.47 343.64,211.33 C 346.42,211.18 349.31,211.03 352.30,210.86 C 355.28,210.69 358.37,210.51 361.56,210.31 C 364.75,210.12 368.33,209.88 371.44,209.69 C 374.54,209.49 377.47,209.31 380.20,209.14 C 382.94,208.97 385.49,208.82 387.86,208.67 C 390.23,208.53 392.41,208.40 394.41,208.28 C 396.40,208.16 398.22,208.06 399.84,207.97 C 401.47,207.88 402.91,207.80 404.17,207.73 C 405.43,207.67 406.50,207.62 407.39,207.58 C 408.28,207.54 408.98,207.51 409.50,207.50 C 410.02,207.49 410.18,207.49 410.50,207.50 C 410.82,207.51 411.12,207.52 411.41,207.54 C 411.70,207.56 411.98,207.58 412.24,207.62 C 412.50,207.65 412.75,207.69 412.98,207.73 C 413.22,207.78 413.44,207.83 413.64,207.89 C 413.85,207.95 414.04,208.01 414.21,208.09 C 414.39,208.16 414.55,208.24 414.70,208.32 C 414.84,208.40 414.98,208.50 415.09,208.59 C 415.21,208.69 415.32,208.79 415.41,208.91 C 415.49,209.02 415.55,209.14 415.59,209.27 C 415.64,209.39 415.66,209.53 415.66,209.67 C 415.66,209.82 415.64,209.97 415.59,210.12 C 415.55,210.28 415.49,210.45 415.41,210.62 C 415.32,210.80 415.22,210.98 415.09,211.17 C 414.97,211.36 414.82,211.56 414.66,211.77 C 414.49,211.97 414.30,212.18 414.09,212.41 C 413.89,212.63 413.66,212.86 413.41,213.09 C 413.15,213.33 412.88,213.56 412.59,213.80 C 412.29,214.05 411.97,214.29 411.63,214.54 C 411.29,214.79 410.93,215.04 410.55,215.30 C 410.16,215.55 409.76,215.81 409.33,216.08 C 408.90,216.34 408.45,216.61 407.98,216.88 C 407.50,217.15 407.01,217.43 406.49,217.71 C 405.98,217.99 405.44,218.27 404.88,218.56 C 404.31,218.85 403.68,219.16 403.12,219.44 C 402.57,219.71 402.04,219.97 401.53,220.20 C 401.03,220.44 400.55,220.66 400.09,220.86 C 399.64,221.06 399.21,221.24 398.81,221.41 C 398.41,221.57 398.04,221.72 397.69,221.84 C 397.34,221.97 397.02,222.08 396.72,222.17 C 396.42,222.26 396.15,222.34 395.91,222.39 C 395.66,222.45 395.44,222.48 395.25,222.50 C 395.06,222.52 394.92,222.49 394.75,222.50 C 394.58,222.51 394.42,222.53 394.26,222.55 C 394.10,222.58 393.93,222.62 393.77,222.66 C 393.61,222.71 393.45,222.76 393.30,222.83 C 393.14,222.89 392.98,222.96 392.83,223.05 C 392.67,223.13 392.52,223.22 392.37,223.32 C 392.21,223.42 392.06,223.53 391.91,223.65 C 391.76,223.77 391.62,223.89 391.47,224.03 C 391.32,224.17 391.17,224.32 391.03,224.47 C 390.89,224.62 390.76,224.76 390.63,224.91 C 390.51,225.06 390.39,225.21 390.27,225.37 C 390.16,225.52 390.05,225.67 389.95,225.83 C 389.85,225.98 389.76,226.14 389.67,226.30 C 389.58,226.45 389.50,226.61 389.43,226.77 C 389.36,226.93 389.29,227.10 389.23,227.26 C 389.17,227.42 389.11,227.58 389.06,227.75 C 389.01,227.92 388.97,227.94 388.94,228.25 C 388.90,228.56 388.87,229.01 388.84,229.59 C 388.82,230.18 388.80,230.91 388.78,231.78 C 388.77,232.65 388.76,233.66 388.75,234.81 C 388.74,235.96 388.74,237.26 388.75,238.69 C 388.76,240.12 388.77,241.69 388.78,243.41 C 388.80,245.12 388.82,246.97 388.84,248.97 C 388.87,250.96 388.90,253.10 388.94,255.38 C 388.97,257.65 389.01,260.35 389.06,262.62 C 389.11,264.90 389.17,267.04 389.23,269.04 C 389.29,271.04 389.36,272.90 389.43,274.62 C 389.50,276.34 389.58,277.92 389.67,279.36 C 389.76,280.80 389.85,282.10 389.95,283.27 C 390.05,284.43 390.16,285.45 390.27,286.34 C 390.39,287.22 390.51,287.96 390.63,288.57 C 390.76,289.18 390.89,289.64 391.03,289.97 C 391.17,290.30 391.32,290.36 391.47,290.53 C 391.62,290.71 391.76,290.87 391.91,291.02 C 392.06,291.18 392.21,291.32 392.37,291.45 C 392.52,291.57 392.67,291.69 392.83,291.80 C 392.98,291.90 393.14,292.00 393.30,292.08 C 393.45,292.16 393.61,292.23 393.77,292.29 C 393.93,292.35 394.10,292.39 394.26,292.43 C 394.42,292.46 394.58,292.49 394.75,292.50 C 394.92,292.51 395.06,292.48 395.25,292.50 C 395.44,292.52 395.66,292.55 395.91,292.61 C 396.15,292.66 396.42,292.74 396.72,292.83 C 397.02,292.92 397.34,293.03 397.69,293.16 C 398.04,293.28 398.41,293.43 398.81,293.59 C 399.21,293.76 399.64,293.94 400.09,294.14 C 400.55,294.34 401.03,294.56 401.53,294.80 C 402.04,295.03 402.57,295.29 403.12,295.56 C 403.68,295.84 404.31,296.15 404.88,296.44 C 405.44,296.73 405.98,297.01 406.49,297.29 C 407.01,297.57 407.50,297.85 407.98,298.12 C 408.45,298.39 408.90,298.66 409.33,298.92 C 409.76,299.19 410.16,299.45 410.55,299.70 C 410.93,299.96 411.29,300.21 411.63,300.46 C 411.97,300.71 412.29,300.95 412.59,301.20 C 412.88,301.44 413.15,301.67 413.41,301.91 C 413.66,302.14 413.89,302.37 414.09,302.59 C 414.30,302.82 414.49,303.03 414.66,303.23 C 414.82,303.44 414.97,303.64 415.09,303.83 C 415.22,304.02 415.32,304.20 415.41,304.38 C 415.49,304.55 415.55,304.72 415.59,304.88 C 415.64,305.03 415.66,305.18 415.66,305.33 C 415.66,305.47 415.64,305.61 415.59,305.73 C 415.55,305.86 415.49,305.98 415.41,306.09 C 415.32,306.21 415.21,306.31 415.09,306.41 C 414.98,306.50 414.84,306.60 414.70,306.68 C 414.55,306.76 414.39,306.84 414.21,306.91 C 414.04,306.99 413.85,307.05 413.64,307.11 C 413.44,307.17 413.22,307.22 412.98,307.27 C 412.75,307.31 412.50,307.35 412.24,307.38 C 411.98,307.42 411.70,307.44 411.41,307.46 C 411.12,307.48 410.82,307.49 410.50,307.50 C 410.18,307.51 410.12,307.52 409.50,307.50 C 408.88,307.48 407.97,307.45 406.78,307.41 C 405.59,307.36 404.11,307.30 402.34,307.22 C 400.58,307.14 398.53,307.05 396.19,306.94 C 393.85,306.83 391.22,306.70 388.31,306.56 C 385.40,306.42 382.20,306.27 378.72,306.09 C 375.23,305.92 371.46,305.73 367.41,305.53 C 363.35,305.33 359.01,305.11 354.38,304.88 C 349.74,304.64 344.24,304.34 339.62,304.12 C 335.01,303.91 330.70,303.73 326.70,303.59 C 322.69,303.44 318.99,303.33 315.59,303.26 C 312.19,303.18 309.09,303.14 306.30,303.14 C 303.50,303.14 301.01,303.17 298.83,303.23 C 296.64,303.30 294.76,303.40 293.18,303.54 C 291.60,303.68 290.32,303.85 289.35,304.05 C 288.38,304.26 287.71,304.50 287.34,304.78 C 286.98,305.06 287.21,305.42 287.16,305.72 C 287.11,306.02 287.07,306.31 287.04,306.59 C 287.01,306.86 287.00,307.13 286.99,307.38 C 286.99,307.64 287.00,307.88 287.02,308.11 C 287.04,308.34 287.07,308.56 287.11,308.77 C 287.15,308.97 287.21,309.17 287.27,309.35 C 287.34,309.54 287.42,309.71 287.51,309.87 C 287.60,310.03 287.70,310.18 287.81,310.31 C 287.93,310.45 288.07,310.55 288.19,310.69 C 288.31,310.83 288.42,310.98 288.53,311.16 C 288.64,311.33 288.74,311.52 288.84,311.72 C 288.94,311.92 289.04,312.14 289.12,312.38 C 289.21,312.61 289.30,312.86 289.38,313.12 C 289.45,313.39 289.53,313.67 289.59,313.97 C 289.66,314.27 289.72,314.58 289.78,314.91 C 289.84,315.23 289.89,315.58 289.94,315.94 C 289.98,316.30 290.00,316.64 290.06,317.06 C 290.12,317.48 290.20,317.95 290.30,318.47 C 290.39,318.98 290.51,319.55 290.64,320.16 C 290.77,320.77 290.92,321.42 291.09,322.12 C 291.26,322.83 291.45,323.58 291.66,324.38 C 291.86,325.17 292.09,326.02 292.33,326.91 C 292.57,327.80 292.83,328.73 293.11,329.72 C 293.39,330.70 293.68,331.73 294.00,332.81 C 294.32,333.89 294.69,335.12 295.00,336.19 C 295.31,337.26 295.60,338.27 295.88,339.23 C 296.15,340.20 296.40,341.10 296.62,341.95 C 296.85,342.80 297.06,343.60 297.25,344.34 C 297.44,345.09 297.60,345.77 297.75,346.41 C 297.90,347.04 298.02,347.62 298.12,348.14 C 298.23,348.66 298.31,349.13 298.38,349.55 C 298.44,349.96 298.48,350.32 298.50,350.62 C 298.52,350.93 298.53,351.13 298.50,351.38 C 298.47,351.62 298.40,351.85 298.30,352.07 C 298.21,352.29 298.08,352.51 297.91,352.71 C 297.75,352.92 297.56,353.11 297.33,353.30 C 297.10,353.48 296.84,353.66 296.55,353.83 C 296.25,354.00 295.93,354.15 295.57,354.30 C 295.21,354.45 294.82,354.60 294.40,354.73 C 293.98,354.86 293.52,354.98 293.03,355.09 C 292.54,355.21 291.97,355.32 291.47,355.41 C 290.97,355.49 290.49,355.55 290.03,355.59 C 289.57,355.64 289.14,355.66 288.72,355.66 C 288.30,355.66 287.91,355.64 287.53,355.59 C 287.16,355.55 286.80,355.49 286.47,355.41 C 286.14,355.32 285.82,355.22 285.53,355.09 C 285.24,354.97 284.97,354.82 284.72,354.66 C 284.47,354.49 284.24,354.30 284.03,354.09 C 283.82,353.89 283.65,353.51 283.47,353.41 C 283.29,353.30 283.12,353.33 282.96,353.48 C 282.80,353.63 282.65,353.90 282.51,354.30 C 282.37,354.71 282.23,355.24 282.11,355.89 C 281.99,356.55 281.87,357.33 281.77,358.23 C 281.66,359.14 281.56,360.18 281.48,361.34 C 281.39,362.50 281.31,363.78 281.24,365.20 C 281.17,366.61 281.11,368.15 281.06,369.81 C 281.01,371.48 281.00,373.50 280.94,375.19 C 280.87,376.87 280.78,378.45 280.66,379.93 C 280.55,381.40 280.41,382.77 280.24,384.04 C 280.08,385.30 279.89,386.46 279.67,387.52 C 279.46,388.57 279.22,389.52 278.95,390.36 C 278.69,391.20 278.40,391.94 278.09,392.57 C 277.77,393.20 277.43,393.73 277.07,394.15 C 276.71,394.57 276.32,394.88 275.91,395.09 C 275.49,395.30 275.03,395.31 274.59,395.41 C 274.16,395.50 273.73,395.60 273.30,395.68 C 272.88,395.76 272.46,395.84 272.04,395.91 C 271.62,395.99 271.21,396.05 270.80,396.11 C 270.39,396.17 269.98,396.22 269.58,396.27 C 269.18,396.31 268.78,396.35 268.38,396.38 C 267.99,396.42 267.60,396.44 267.21,396.46 C 266.82,396.48 266.44,396.49 266.06,396.50 Z" />
    </clipPath>
  </defs>
  <path d="M 266.06,396.50 C 265.68,396.51 265.30,396.51 264.94,396.50 C 264.58,396.49 264.23,396.47 263.90,396.45 C 263.57,396.42 263.25,396.38 262.95,396.34 C 262.64,396.29 262.35,396.24 262.08,396.17 C 261.80,396.11 261.54,396.04 261.30,395.95 C 261.05,395.87 260.82,395.78 260.60,395.68 C 260.38,395.58 260.18,395.47 259.99,395.35 C 259.80,395.23 259.63,395.11 259.47,394.97 C 259.31,394.83 259.17,394.70 259.03,394.53 C 258.89,394.37 258.75,394.18 258.62,393.98 C 258.48,393.77 258.35,393.55 258.23,393.30 C 258.10,393.06 257.98,392.80 257.86,392.52 C 257.74,392.23 257.63,391.93 257.52,391.61 C 257.40,391.29 257.30,390.95 257.20,390.59 C 257.09,390.23 256.99,389.85 256.90,389.45 C 256.80,389.05 256.71,388.63 256.62,388.19 C 256.54,387.75 256.46,387.25 256.38,386.81 C 256.29,386.38 256.20,385.96 256.12,385.57 C 256.03,385.18 255.94,384.81 255.85,384.46 C 255.76,384.11 255.67,383.79 255.58,383.48 C 255.49,383.18 255.39,382.90 255.30,382.64 C 255.20,382.38 255.11,382.14 255.01,381.93 C 254.91,381.71 254.81,381.52 254.71,381.35 C 254.61,381.18 254.51,381.03 254.41,380.91 C 254.30,380.78 254.23,380.70 254.09,380.59 C 253.95,380.49 253.78,380.39 253.56,380.30 C 253.35,380.20 253.10,380.11 252.81,380.02 C 252.53,379.92 252.20,379.84 251.84,379.75 C 251.48,379.66 251.09,379.58 250.66,379.50 C 250.22,379.42 249.76,379.34 249.25,379.27 C 248.74,379.19 248.20,379.12 247.62,379.05 C 247.05,378.98 246.43,378.91 245.78,378.84 C 245.13,378.78 244.36,378.72 243.72,378.66 C 243.08,378.59 242.48,378.52 241.92,378.44 C 241.37,378.36 240.86,378.28 240.39,378.19 C 239.92,378.10 239.50,378.01 239.12,377.91 C 238.75,377.81 238.41,377.70 238.12,377.59 C 237.84,377.48 237.59,377.37 237.39,377.25 C 237.19,377.13 237.03,377.01 236.92,376.88 C 236.81,376.74 236.74,376.61 236.72,376.47 C 236.70,376.33 236.73,376.17 236.78,376.03 C 236.84,375.89 236.93,375.76 237.05,375.63 C 237.18,375.51 237.34,375.39 237.54,375.27 C 237.74,375.16 237.97,375.05 238.23,374.95 C 238.50,374.85 238.80,374.76 239.14,374.67 C 239.48,374.58 239.85,374.50 240.26,374.43 C 240.67,374.36 241.11,374.29 241.59,374.23 C 242.06,374.17 242.58,374.11 243.12,374.06 C 243.67,374.01 244.32,373.98 244.88,373.94 C 245.43,373.89 245.94,373.85 246.43,373.80 C 246.92,373.76 247.37,373.71 247.79,373.66 C 248.21,373.62 248.60,373.57 248.95,373.52 C 249.31,373.46 249.63,373.41 249.92,373.36 C 250.21,373.31 250.47,373.25 250.70,373.20 C 250.92,373.14 251.11,373.08 251.27,373.02 C 251.43,372.96 251.56,372.90 251.66,372.84 C 251.75,372.78 251.82,372.82 251.84,372.66 C 251.87,372.50 251.85,372.24 251.79,371.88 C 251.73,371.53 251.63,371.07 251.49,370.52 C 251.35,369.97 251.17,369.32 250.95,368.58 C 250.73,367.83 250.47,366.99 250.17,366.05 C 249.87,365.11 249.53,364.07 249.15,362.93 C 248.77,361.79 248.35,360.56 247.88,359.23 C 247.42,357.89 246.92,356.46 246.38,354.94 C 245.83,353.41 245.20,351.65 244.62,350.06 C 244.05,348.48 243.48,346.93 242.92,345.42 C 242.36,343.91 241.81,342.45 241.27,341.02 C 240.72,339.59 240.18,338.20 239.66,336.84 C 239.13,335.49 238.61,334.18 238.09,332.91 C 237.58,331.63 237.08,330.40 236.58,329.20 C 236.08,328.01 235.59,326.85 235.11,325.73 C 234.63,324.62 234.15,323.54 233.69,322.50 C 233.22,321.46 232.75,320.44 232.31,319.50 C 231.88,318.56 231.46,317.68 231.07,316.85 C 230.68,316.03 230.31,315.26 229.96,314.55 C 229.61,313.85 229.29,313.20 228.98,312.61 C 228.68,312.02 228.40,311.49 228.14,311.02 C 227.88,310.54 227.64,310.13 227.43,309.77 C 227.21,309.42 227.02,309.12 226.85,308.88 C 226.68,308.64 226.53,308.46 226.41,308.34 C 226.28,308.22 226.23,308.20 226.09,308.16 C 225.96,308.12 225.79,308.10 225.59,308.10 C 225.38,308.11 225.15,308.13 224.88,308.18 C 224.62,308.23 224.32,308.30 223.98,308.39 C 223.65,308.48 223.29,308.60 222.89,308.73 C 222.49,308.87 222.06,309.03 221.60,309.21 C 221.14,309.39 220.64,309.60 220.12,309.82 C 219.59,310.05 219.03,310.29 218.44,310.56 C 217.85,310.83 217.19,311.16 216.56,311.44 C 215.93,311.71 215.30,311.97 214.66,312.20 C 214.02,312.44 213.37,312.66 212.72,312.86 C 212.07,313.06 211.41,313.24 210.75,313.41 C 210.09,313.57 209.42,313.72 208.75,313.84 C 208.08,313.97 207.40,314.08 206.72,314.17 C 206.04,314.26 205.35,314.34 204.66,314.39 C 203.96,314.45 203.27,314.48 202.56,314.50 C 201.86,314.52 201.14,314.58 200.44,314.50 C 199.74,314.42 199.05,314.26 198.37,314.02 C 197.69,313.79 197.01,313.47 196.35,313.07 C 195.69,312.67 195.04,312.20 194.39,311.64 C 193.75,311.08 193.11,310.45 192.48,309.73 C 191.86,309.02 191.24,308.23 190.63,307.35 C 190.02,306.48 189.43,305.52 188.84,304.49 C 188.25,303.46 187.67,302.35 187.09,301.16 C 186.52,299.96 185.90,298.54 185.41,297.34 C 184.92,296.15 184.50,295.02 184.16,293.97 C 183.81,292.92 183.54,291.94 183.34,291.03 C 183.15,290.12 183.02,289.29 182.97,288.53 C 182.92,287.77 182.94,287.08 183.03,286.47 C 183.12,285.85 183.29,285.31 183.53,284.84 C 183.77,284.38 184.08,283.98 184.47,283.66 C 184.85,283.33 185.31,283.08 185.84,282.91 C 186.38,282.73 187.09,282.70 187.66,282.59 C 188.22,282.49 188.75,282.39 189.24,282.29 C 189.73,282.19 190.19,282.09 190.60,281.99 C 191.02,281.89 191.39,281.80 191.73,281.70 C 192.07,281.61 192.38,281.51 192.64,281.42 C 192.90,281.33 193.13,281.24 193.32,281.15 C 193.51,281.06 193.66,280.97 193.77,280.88 C 193.89,280.80 193.96,280.71 194.00,280.62 C 194.04,280.54 194.03,280.45 194.00,280.38 C 193.97,280.30 193.92,280.22 193.84,280.16 C 193.77,280.09 193.66,280.03 193.53,279.97 C 193.40,279.91 193.24,279.86 193.06,279.81 C 192.88,279.77 192.67,279.72 192.44,279.69 C 192.20,279.65 191.94,279.62 191.66,279.59 C 191.37,279.57 191.06,279.55 190.72,279.53 C 190.38,279.52 190.02,279.51 189.62,279.50 C 189.23,279.49 188.77,279.51 188.38,279.50 C 187.98,279.49 187.60,279.47 187.25,279.44 C 186.90,279.41 186.56,279.36 186.25,279.31 C 185.94,279.26 185.65,279.20 185.38,279.12 C 185.10,279.05 184.85,278.97 184.62,278.88 C 184.40,278.78 184.19,278.68 184.00,278.56 C 183.81,278.45 183.65,278.32 183.50,278.19 C 183.35,278.05 183.23,277.91 183.12,277.75 C 183.02,277.59 183.00,277.41 182.88,277.25 C 182.75,277.09 182.58,276.93 182.36,276.78 C 182.14,276.63 181.88,276.48 181.58,276.34 C 181.27,276.20 180.92,276.07 180.53,275.94 C 180.14,275.81 179.70,275.68 179.22,275.56 C 178.74,275.44 178.21,275.33 177.64,275.22 C 177.07,275.11 176.46,275.01 175.80,274.91 C 175.14,274.81 174.43,274.71 173.69,274.62 C 172.94,274.54 172.07,274.45 171.31,274.38 C 170.55,274.30 169.83,274.23 169.14,274.17 C 168.45,274.11 167.79,274.06 167.17,274.02 C 166.55,273.97 165.96,273.93 165.41,273.91 C 164.85,273.88 164.33,273.86 163.84,273.84 C 163.36,273.83 162.90,273.83 162.48,273.83 C 162.07,273.83 161.68,273.84 161.33,273.86 C 160.98,273.88 160.66,273.90 160.38,273.94 C 160.09,273.97 159.87,274.03 159.62,274.06 C 159.38,274.10 159.14,274.12 158.91,274.14 C 158.67,274.16 158.44,274.17 158.22,274.17 C 157.99,274.17 157.78,274.17 157.56,274.16 C 157.35,274.14 157.14,274.12 156.94,274.09 C 156.73,274.07 156.54,274.03 156.34,273.98 C 156.15,273.94 155.96,273.89 155.78,273.83 C 155.60,273.77 155.42,273.70 155.25,273.62 C 155.08,273.55 154.97,273.46 154.75,273.38 C 154.53,273.29 154.26,273.20 153.94,273.11 C 153.61,273.02 153.24,272.92 152.81,272.83 C 152.39,272.73 151.91,272.63 151.38,272.53 C 150.84,272.43 150.26,272.33 149.62,272.22 C 148.99,272.11 148.30,272.00 147.56,271.89 C 146.82,271.78 146.03,271.66 145.19,271.55 C 144.34,271.43 143.45,271.31 142.50,271.19 C 141.55,271.07 140.44,270.94 139.50,270.81 C 138.56,270.69 137.67,270.56 136.84,270.43 C 136.00,270.30 135.23,270.17 134.51,270.04 C 133.79,269.91 133.12,269.77 132.52,269.64 C 131.91,269.51 131.36,269.37 130.86,269.23 C 130.36,269.10 129.92,268.96 129.54,268.82 C 129.15,268.68 128.83,268.54 128.55,268.40 C 128.28,268.26 128.07,268.11 127.91,267.97 C 127.75,267.82 127.69,267.71 127.59,267.53 C 127.50,267.35 127.40,267.13 127.32,266.88 C 127.24,266.63 127.16,266.35 127.09,266.02 C 127.01,265.70 126.95,265.35 126.89,264.95 C 126.83,264.56 126.78,264.13 126.73,263.67 C 126.69,263.21 126.65,262.71 126.62,262.18 C 126.58,261.65 126.56,261.08 126.54,260.48 C 126.52,259.87 126.51,259.24 126.50,258.56 C 126.49,257.89 126.49,257.11 126.50,256.44 C 126.51,255.76 126.52,255.13 126.54,254.52 C 126.56,253.92 126.58,253.35 126.62,252.82 C 126.65,252.29 126.69,251.79 126.73,251.33 C 126.78,250.87 126.83,250.44 126.89,250.05 C 126.95,249.65 127.01,249.30 127.09,248.98 C 127.16,248.65 127.24,248.37 127.32,248.12 C 127.40,247.87 127.50,247.65 127.59,247.47 C 127.69,247.29 127.80,247.17 127.91,247.03 C 128.01,246.89 128.13,246.76 128.24,246.63 C 128.36,246.51 128.48,246.39 128.60,246.27 C 128.73,246.16 128.85,246.05 128.98,245.95 C 129.12,245.85 129.25,245.76 129.39,245.67 C 129.53,245.58 129.67,245.50 129.82,245.43 C 129.97,245.36 130.12,245.29 130.27,245.23 C 130.43,245.17 130.59,245.11 130.75,245.06 C 130.91,245.01 131.03,244.99 131.25,244.94 C 131.47,244.89 131.76,244.83 132.09,244.77 C 132.43,244.70 132.83,244.63 133.28,244.55 C 133.73,244.47 134.24,244.38 134.81,244.28 C 135.38,244.18 136.01,244.08 136.69,243.97 C 137.37,243.86 138.11,243.74 138.91,243.61 C 139.70,243.48 140.56,243.35 141.47,243.20 C 142.38,243.06 143.35,242.91 144.38,242.75 C 145.40,242.59 146.55,242.41 147.62,242.25 C 148.70,242.09 149.77,241.94 150.83,241.80 C 151.89,241.65 152.94,241.52 153.98,241.39 C 155.03,241.26 156.07,241.14 157.09,241.03 C 158.12,240.92 159.14,240.82 160.16,240.72 C 161.17,240.62 162.17,240.53 163.17,240.45 C 164.17,240.37 165.16,240.30 166.14,240.23 C 167.12,240.17 168.10,240.11 169.06,240.06 C 170.03,240.01 171.03,239.99 171.94,239.94 C 172.84,239.89 173.69,239.83 174.48,239.77 C 175.28,239.70 176.02,239.63 176.70,239.55 C 177.39,239.47 178.02,239.38 178.59,239.28 C 179.17,239.18 179.69,239.08 180.16,238.97 C 180.62,238.86 181.03,238.74 181.39,238.61 C 181.75,238.48 182.05,238.35 182.30,238.20 C 182.54,238.06 182.74,237.91 182.88,237.75 C 183.01,237.59 183.02,237.41 183.12,237.25 C 183.23,237.09 183.35,236.95 183.50,236.81 C 183.65,236.68 183.81,236.55 184.00,236.44 C 184.19,236.32 184.40,236.22 184.62,236.12 C 184.85,236.03 185.10,235.95 185.38,235.88 C 185.65,235.80 185.94,235.74 186.25,235.69 C 186.56,235.64 186.90,235.59 187.25,235.56 C 187.60,235.53 187.98,235.51 188.38,235.50 C 188.77,235.49 189.23,235.51 189.62,235.50 C 190.02,235.49 190.38,235.48 190.72,235.47 C 191.06,235.45 191.37,235.43 191.66,235.41 C 191.94,235.38 192.20,235.35 192.44,235.31 C 192.67,235.28 192.88,235.23 193.06,235.19 C 193.24,235.14 193.40,235.09 193.53,235.03 C 193.66,234.97 193.77,234.91 193.84,234.84 C 193.92,234.78 193.97,234.70 194.00,234.62 C 194.03,234.55 194.04,234.46 194.00,234.38 C 193.96,234.29 193.89,234.20 193.77,234.12 C 193.66,234.03 193.51,233.94 193.32,233.85 C 193.13,233.76 192.90,233.67 192.64,233.58 C 192.38,233.49 192.07,233.39 191.73,233.30 C 191.39,233.20 191.02,233.11 190.60,233.01 C 190.19,232.91 189.73,232.81 189.24,232.71 C 188.75,232.61 188.22,232.51 187.66,232.41 C 187.09,232.30 186.37,232.27 185.84,232.09 C 185.32,231.91 184.86,231.66 184.48,231.33 C 184.11,231.00 183.80,230.59 183.58,230.11 C 183.35,229.63 183.20,229.07 183.12,228.44 C 183.05,227.80 183.05,227.10 183.12,226.31 C 183.20,225.53 183.35,224.67 183.58,223.73 C 183.80,222.80 184.11,221.79 184.48,220.70 C 184.86,219.62 185.32,218.46 185.84,217.22 C 186.37,215.98 187.05,214.51 187.66,213.28 C 188.26,212.05 188.88,210.91 189.49,209.85 C 190.11,208.79 190.73,207.82 191.35,206.93 C 191.98,206.04 192.60,205.24 193.23,204.52 C 193.87,203.80 194.50,203.16 195.14,202.61 C 195.78,202.06 196.42,201.59 197.07,201.21 C 197.72,200.83 198.37,200.53 199.02,200.32 C 199.68,200.11 200.34,199.98 201.00,199.94 C 201.66,199.89 202.33,200.01 203.00,200.06 C 203.67,200.12 204.34,200.19 205.02,200.28 C 205.69,200.37 206.37,200.47 207.05,200.59 C 207.73,200.71 208.41,200.85 209.09,201.00 C 209.78,201.15 210.47,201.32 211.16,201.50 C 211.85,201.68 212.54,201.88 213.23,202.09 C 213.93,202.31 214.63,202.54 215.33,202.78 C 216.03,203.03 216.73,203.29 217.44,203.56 C 218.14,203.84 218.83,204.33 219.56,204.44 C 220.29,204.55 221.05,204.48 221.82,204.23 C 222.60,203.98 223.39,203.54 224.21,202.93 C 225.03,202.32 225.87,201.52 226.73,200.55 C 227.60,199.57 228.48,198.42 229.39,197.08 C 230.30,195.74 231.23,194.22 232.18,192.52 C 233.13,190.82 234.11,188.94 235.10,186.88 C 236.10,184.82 237.12,182.58 238.16,180.16 C 239.20,177.73 240.35,174.80 241.34,172.34 C 242.34,169.89 243.26,167.59 244.11,165.44 C 244.96,163.29 245.74,161.29 246.45,159.44 C 247.16,157.59 247.80,155.89 248.38,154.34 C 248.95,152.80 249.45,151.40 249.88,150.16 C 250.30,148.91 250.66,147.82 250.95,146.88 C 251.24,145.93 251.46,145.14 251.61,144.50 C 251.76,143.86 251.84,143.37 251.84,143.03 C 251.85,142.69 251.75,142.64 251.66,142.47 C 251.56,142.29 251.44,142.13 251.29,141.98 C 251.14,141.82 250.95,141.68 250.74,141.55 C 250.53,141.43 250.29,141.31 250.02,141.20 C 249.74,141.10 249.44,141.00 249.11,140.92 C 248.78,140.84 248.42,140.77 248.02,140.71 C 247.63,140.65 247.21,140.61 246.76,140.57 C 246.31,140.54 245.82,140.51 245.31,140.50 C 244.80,140.49 244.20,140.51 243.69,140.50 C 243.18,140.49 242.70,140.47 242.26,140.45 C 241.81,140.42 241.40,140.38 241.02,140.34 C 240.64,140.29 240.30,140.24 239.98,140.17 C 239.67,140.11 239.39,140.04 239.14,139.95 C 238.89,139.87 238.68,139.78 238.49,139.68 C 238.31,139.58 238.16,139.47 238.04,139.35 C 237.92,139.23 237.83,139.11 237.78,138.97 C 237.73,138.83 237.70,138.67 237.72,138.53 C 237.74,138.39 237.81,138.26 237.92,138.12 C 238.03,137.99 238.19,137.87 238.39,137.75 C 238.59,137.63 238.84,137.52 239.12,137.41 C 239.41,137.30 239.75,137.19 240.12,137.09 C 240.50,136.99 240.92,136.90 241.39,136.81 C 241.86,136.72 242.37,136.64 242.92,136.56 C 243.48,136.48 244.08,136.41 244.72,136.34 C 245.36,136.28 246.13,136.22 246.78,136.16 C 247.43,136.09 248.05,136.02 248.62,135.94 C 249.20,135.86 249.74,135.78 250.25,135.69 C 250.76,135.60 251.22,135.51 251.66,135.41 C 252.09,135.31 252.48,135.20 252.84,135.09 C 253.20,134.98 253.53,134.87 253.81,134.75 C 254.10,134.63 254.35,134.51 254.56,134.38 C 254.78,134.24 254.95,134.11 255.09,133.97 C 255.23,133.83 255.30,133.70 255.41,133.53 C 255.51,133.37 255.61,133.18 255.71,132.98 C 255.81,132.77 255.91,132.55 256.01,132.30 C 256.11,132.06 256.20,131.80 256.30,131.52 C 256.39,131.23 256.49,130.93 256.58,130.61 C 256.67,130.29 256.76,129.95 256.85,129.59 C 256.94,129.23 257.03,128.85 257.12,128.45 C 257.20,128.05 257.29,127.63 257.38,127.19 C 257.46,126.75 257.54,126.25 257.62,125.81 C 257.71,125.38 257.80,124.96 257.88,124.57 C 257.97,124.18 258.06,123.81 258.15,123.46 C 258.24,123.11 258.33,122.79 258.42,122.48 C 258.51,122.18 258.61,121.90 258.70,121.64 C 258.80,121.38 258.89,121.14 258.99,120.93 C 259.09,120.71 259.19,120.52 259.29,120.35 C 259.39,120.18 259.49,120.03 259.59,119.91 C 259.70,119.78 259.77,119.69 259.91,119.59 C 260.04,119.50 260.20,119.41 260.40,119.34 C 260.59,119.26 260.82,119.19 261.07,119.13 C 261.32,119.07 261.61,119.02 261.92,118.98 C 262.24,118.94 262.58,118.91 262.95,118.89 C 263.33,118.87 263.73,118.86 264.16,118.85 C 264.60,118.85 265.06,118.85 265.55,118.87 C 266.05,118.88 266.57,118.90 267.12,118.94 C 267.68,118.97 268.31,119.02 268.88,119.06 C 269.44,119.11 269.98,119.15 270.49,119.20 C 271.01,119.24 271.50,119.29 271.98,119.34 C 272.45,119.38 272.90,119.43 273.33,119.48 C 273.76,119.54 274.16,119.59 274.55,119.64 C 274.93,119.69 275.29,119.75 275.63,119.80 C 275.97,119.86 276.29,119.92 276.59,119.98 C 276.88,120.04 277.15,120.10 277.41,120.16 C 277.66,120.22 277.88,120.17 278.09,120.34 C 278.31,120.52 278.52,120.80 278.71,121.20 C 278.90,121.59 279.09,122.10 279.26,122.71 C 279.43,123.33 279.59,124.05 279.73,124.89 C 279.88,125.73 280.02,126.68 280.14,127.73 C 280.26,128.79 280.38,129.96 280.48,131.24 C 280.58,132.52 280.67,133.91 280.74,135.41 C 280.82,136.92 280.88,138.53 280.94,140.25 C 280.99,141.97 281.01,144.05 281.06,145.75 C 281.12,147.45 281.18,149.02 281.26,150.46 C 281.33,151.90 281.42,153.21 281.52,154.38 C 281.62,155.56 281.74,156.60 281.86,157.52 C 281.98,158.43 282.12,159.21 282.27,159.86 C 282.41,160.51 282.57,161.03 282.74,161.41 C 282.91,161.80 283.10,162.06 283.29,162.18 C 283.48,162.30 283.69,162.30 283.91,162.16 C 284.12,162.02 284.35,161.59 284.59,161.34 C 284.84,161.10 285.10,160.87 285.38,160.67 C 285.65,160.47 285.94,160.29 286.25,160.14 C 286.56,159.99 286.88,159.86 287.22,159.75 C 287.56,159.64 287.91,159.56 288.28,159.50 C 288.65,159.44 289.04,159.40 289.44,159.39 C 289.84,159.38 290.26,159.39 290.69,159.42 C 291.12,159.46 291.57,159.51 292.03,159.59 C 292.49,159.67 293.04,159.71 293.47,159.91 C 293.90,160.11 294.27,160.40 294.60,160.79 C 294.93,161.18 295.20,161.66 295.43,162.24 C 295.65,162.82 295.83,163.50 295.95,164.27 C 296.08,165.04 296.15,165.90 296.17,166.86 C 296.19,167.82 296.17,168.87 296.09,170.02 C 296.01,171.17 295.88,172.42 295.70,173.76 C 295.51,175.10 295.28,176.53 295.00,178.06 C 294.72,179.59 294.32,181.40 294.00,182.94 C 293.68,184.48 293.36,185.93 293.06,187.30 C 292.76,188.66 292.47,189.95 292.19,191.14 C 291.91,192.34 291.64,193.45 291.38,194.47 C 291.11,195.49 290.86,196.43 290.62,197.28 C 290.39,198.13 290.16,198.90 289.94,199.58 C 289.72,200.26 289.51,200.85 289.31,201.36 C 289.11,201.87 288.93,202.29 288.75,202.62 C 288.57,202.96 288.40,203.12 288.25,203.38 C 288.10,203.63 287.95,203.88 287.82,204.13 C 287.69,204.39 287.57,204.64 287.46,204.90 C 287.35,205.15 287.26,205.41 287.17,205.67 C 287.09,205.93 287.01,206.19 286.95,206.45 C 286.89,206.71 286.84,206.98 286.80,207.24 C 286.77,207.51 286.74,207.77 286.73,208.04 C 286.71,208.31 286.71,208.57 286.72,208.84 C 286.73,209.11 286.66,209.40 286.78,209.66 C 286.90,209.91 287.13,210.15 287.46,210.37 C 287.79,210.59 288.22,210.79 288.76,210.98 C 289.29,211.16 289.93,211.33 290.67,211.48 C 291.41,211.64 292.26,211.77 293.20,211.89 C 294.15,212.01 295.20,212.11 296.35,212.20 C 297.50,212.28 298.76,212.35 300.12,212.40 C 301.48,212.45 302.94,212.48 304.50,212.50 C 306.06,212.52 307.73,212.51 309.50,212.50 C 311.27,212.49 313.14,212.46 315.11,212.42 C 317.08,212.38 319.15,212.33 321.33,212.27 C 323.50,212.20 325.78,212.12 328.16,212.03 C 330.53,211.94 333.01,211.84 335.59,211.72 C 338.17,211.60 340.86,211.47 343.64,211.33 C 346.42,211.18 349.31,211.03 352.30,210.86 C 355.28,210.69 358.37,210.51 361.56,210.31 C 364.75,210.12 368.33,209.88 371.44,209.69 C 374.54,209.49 377.47,209.31 380.20,209.14 C 382.94,208.97 385.49,208.82 387.86,208.67 C 390.23,208.53 392.41,208.40 394.41,208.28 C 396.40,208.16 398.22,208.06 399.84,207.97 C 401.47,207.88 402.91,207.80 404.17,207.73 C 405.43,207.67 406.50,207.62 407.39,207.58 C 408.28,207.54 408.98,207.51 409.50,207.50 C 410.02,207.49 410.18,207.49 410.50,207.50 C 410.82,207.51 411.12,207.52 411.41,207.54 C 411.70,207.56 411.98,207.58 412.24,207.62 C 412.50,207.65 412.75,207.69 412.98,207.73 C 413.22,207.78 413.44,207.83 413.64,207.89 C 413.85,207.95 414.04,208.01 414.21,208.09 C 414.39,208.16 414.55,208.24 414.70,208.32 C 414.84,208.40 414.98,208.50 415.09,208.59 C 415.21,208.69 415.32,208.79 415.41,208.91 C 415.49,209.02 415.55,209.14 415.59,209.27 C 415.64,209.39 415.66,209.53 415.66,209.67 C 415.66,209.82 415.64,209.97 415.59,210.12 C 415.55,210.28 415.49,210.45 415.41,210.62 C 415.32,210.80 415.22,210.98 415.09,211.17 C 414.97,211.36 414.82,211.56 414.66,211.77 C 414.49,211.97 414.30,212.18 414.09,212.41 C 413.89,212.63 413.66,212.86 413.41,213.09 C 413.15,213.33 412.88,213.56 412.59,213.80 C 412.29,214.05 411.97,214.29 411.63,214.54 C 411.29,214.79 410.93,215.04 410.55,215.30 C 410.16,215.55 409.76,215.81 409.33,216.08 C 408.90,216.34 408.45,216.61 407.98,216.88 C 407.50,217.15 407.01,217.43 406.49,217.71 C 405.98,217.99 405.44,218.27 404.88,218.56 C 404.31,218.85 403.68,219.16 403.12,219.44 C 402.57,219.71 402.04,219.97 401.53,220.20 C 401.03,220.44 400.55,220.66 400.09,220.86 C 399.64,221.06 399.21,221.24 398.81,221.41 C 398.41,221.57 398.04,221.72 397.69,221.84 C 397.34,221.97 397.02,222.08 396.72,222.17 C 396.42,222.26 396.15,222.34 395.91,222.39 C 395.66,222.45 395.44,222.48 395.25,222.50 C 395.06,222.52 394.92,222.49 394.75,222.50 C 394.58,222.51 394.42,222.53 394.26,222.55 C 394.10,222.58 393.93,222.62 393.77,222.66 C 393.61,222.71 393.45,222.76 393.30,222.83 C 393.14,222.89 392.98,222.96 392.83,223.05 C 392.67,223.13 392.52,223.22 392.37,223.32 C 392.21,223.42 392.06,223.53 391.91,223.65 C 391.76,223.77 391.62,223.89 391.47,224.03 C 391.32,224.17 391.17,224.32 391.03,224.47 C 390.89,224.62 390.76,224.76 390.63,224.91 C 390.51,225.06 390.39,225.21 390.27,225.37 C 390.16,225.52 390.05,225.67 389.95,225.83 C 389.85,225.98 389.76,226.14 389.67,226.30 C 389.58,226.45 389.50,226.61 389.43,226.77 C 389.36,226.93 389.29,227.10 389.23,227.26 C 389.17,227.42 389.11,227.58 389.06,227.75 C 389.01,227.92 388.97,227.94 388.94,228.25 C 388.90,228.56 388.87,229.01 388.84,229.59 C 388.82,230.18 388.80,230.91 388.78,231.78 C 388.77,232.65 388.76,233.66 388.75,234.81 C 388.74,235.96 388.74,237.26 388.75,238.69 C 388.76,240.12 388.77,241.69 388.78,243.41 C 388.80,245.12 388.82,246.97 388.84,248.97 C 388.87,250.96 388.90,253.10 388.94,255.38 C 388.97,257.65 389.01,260.35 389.06,262.62 C 389.11,264.90 389.17,267.04 389.23,269.04 C 389.29,271.04 389.36,272.90 389.43,274.62 C 389.50,276.34 389.58,277.92 389.67,279.36 C 389.76,280.80 389.85,282.10 389.95,283.27 C 390.05,284.43 390.16,285.45 390.27,286.34 C 390.39,287.22 390.51,287.96 390.63,288.57 C 390.76,289.18 390.89,289.64 391.03,289.97 C 391.17,290.30 391.32,290.36 391.47,290.53 C 391.62,290.71 391.76,290.87 391.91,291.02 C 392.06,291.18 392.21,291.32 392.37,291.45 C 392.52,291.57 392.67,291.69 392.83,291.80 C 392.98,291.90 393.14,292.00 393.30,292.08 C 393.45,292.16 393.61,292.23 393.77,292.29 C 393.93,292.35 394.10,292.39 394.26,292.43 C 394.42,292.46 394.58,292.49 394.75,292.50 C 394.92,292.51 395.06,292.48 395.25,292.50 C 395.44,292.52 395.66,292.55 395.91,292.61 C 396.15,292.66 396.42,292.74 396.72,292.83 C 397.02,292.92 397.34,293.03 397.69,293.16 C 398.04,293.28 398.41,293.43 398.81,293.59 C 399.21,293.76 399.64,293.94 400.09,294.14 C 400.55,294.34 401.03,294.56 401.53,294.80 C 402.04,295.03 402.57,295.29 403.12,295.56 C 403.68,295.84 404.31,296.15 404.88,296.44 C 405.44,296.73 405.98,297.01 406.49,297.29 C 407.01,297.57 407.50,297.85 407.98,298.12 C 408.45,298.39 408.90,298.66 409.33,298.92 C 409.76,299.19 410.16,299.45 410.55,299.70 C 410.93,299.96 411.29,300.21 411.63,300.46 C 411.97,300.71 412.29,300.95 412.59,301.20 C 412.88,301.44 413.15,301.67 413.41,301.91 C 413.66,302.14 413.89,302.37 414.09,302.59 C 414.30,302.82 414.49,303.03 414.66,303.23 C 414.82,303.44 414.97,303.64 415.09,303.83 C 415.22,304.02 415.32,304.20 415.41,304.38 C 415.49,304.55 415.55,304.72 415.59,304.88 C 415.64,305.03 415.66,305.18 415.66,305.33 C 415.66,305.47 415.64,305.61 415.59,305.73 C 415.55,305.86 415.49,305.98 415.41,306.09 C 415.32,306.21 415.21,306.31 415.09,306.41 C 414.98,306.50 414.84,306.60 414.70,306.68 C 414.55,306.76 414.39,306.84 414.21,306.91 C 414.04,306.99 413.85,307.05 413.64,307.11 C 413.44,307.17 413.22,307.22 412.98,307.27 C 412.75,307.31 412.50,307.35 412.24,307.38 C 411.98,307.42 411.70,307.44 411.41,307.46 C 411.12,307.48 410.82,307.49 410.50,307.50 C 410.18,307.51 410.12,307.52 409.50,307.50 C 408.88,307.48 407.97,307.45 406.78,307.41 C 405.59,307.36 404.11,307.30 402.34,307.22 C 400.58,307.14 398.53,307.05 396.19,306.94 C 393.85,306.83 391.22,306.70 388.31,306.56 C 385.40,306.42 382.20,306.27 378.72,306.09 C 375.23,305.92 371.46,305.73 367.41,305.53 C 363.35,305.33 359.01,305.11 354.38,304.88 C 349.74,304.64 344.24,304.34 339.62,304.12 C 335.01,303.91 330.70,303.73 326.70,303.59 C 322.69,303.44 318.99,303.33 315.59,303.26 C 312.19,303.18 309.09,303.14 306.30,303.14 C 303.50,303.14 301.01,303.17 298.83,303.23 C 296.64,303.30 294.76,303.40 293.18,303.54 C 291.60,303.68 290.32,303.85 289.35,304.05 C 288.38,304.26 287.71,304.50 287.34,304.78 C 286.98,305.06 287.21,305.42 287.16,305.72 C 287.11,306.02 287.07,306.31 287.04,306.59 C 287.01,306.86 287.00,307.13 286.99,307.38 C 286.99,307.64 287.00,307.88 287.02,308.11 C 287.04,308.34 287.07,308.56 287.11,308.77 C 287.15,308.97 287.21,309.17 287.27,309.35 C 287.34,309.54 287.42,309.71 287.51,309.87 C 287.60,310.03 287.70,310.18 287.81,310.31 C 287.93,310.45 288.07,310.55 288.19,310.69 C 288.31,310.83 288.42,310.98 288.53,311.16 C 288.64,311.33 288.74,311.52 288.84,311.72 C 288.94,311.92 289.04,312.14 289.12,312.38 C 289.21,312.61 289.30,312.86 289.38,313.12 C 289.45,313.39 289.53,313.67 289.59,313.97 C 289.66,314.27 289.72,314.58 289.78,314.91 C 289.84,315.23 289.89,315.58 289.94,315.94 C 289.98,316.30 290.00,316.64 290.06,317.06 C 290.12,317.48 290.20,317.95 290.30,318.47 C 290.39,318.98 290.51,319.55 290.64,320.16 C 290.77,320.77 290.92,321.42 291.09,322.12 C 291.26,322.83 291.45,323.58 291.66,324.38 C 291.86,325.17 292.09,326.02 292.33,326.91 C 292.57,327.80 292.83,328.73 293.11,329.72 C 293.39,330.70 293.68,331.73 294.00,332.81 C 294.32,333.89 294.69,335.12 295.00,336.19 C 295.31,337.26 295.60,338.27 295.88,339.23 C 296.15,340.20 296.40,341.10 296.62,341.95 C 296.85,342.80 297.06,343.60 297.25,344.34 C 297.44,345.09 297.60,345.77 297.75,346.41 C 297.90,347.04 298.02,347.62 298.12,348.14 C 298.23,348.66 298.31,349.13 298.38,349.55 C 298.44,349.96 298.48,350.32 298.50,350.62 C 298.52,350.93 298.53,351.13 298.50,351.38 C 298.47,351.62 298.40,351.85 298.30,352.07 C 298.21,352.29 298.08,352.51 297.91,352.71 C 297.75,352.92 297.56,353.11 297.33,353.30 C 297.10,353.48 296.84,353.66 296.55,353.83 C 296.25,354.00 295.93,354.15 295.57,354.30 C 295.21,354.45 294.82,354.60 294.40,354.73 C 293.98,354.86 293.52,354.98 293.03,355.09 C 292.54,355.21 291.97,355.32 291.47,355.41 C 290.97,355.49 290.49,355.55 290.03,355.59 C 289.57,355.64 289.14,355.66 288.72,355.66 C 288.30,355.66 287.91,355.64 287.53,355.59 C 287.16,355.55 286.80,355.49 286.47,355.41 C 286.14,355.32 285.82,355.22 285.53,355.09 C 285.24,354.97 284.97,354.82 284.72,354.66 C 284.47,354.49 284.24,354.30 284.03,354.09 C 283.82,353.89 283.65,353.51 283.47,353.41 C 283.29,353.30 283.12,353.33 282.96,353.48 C 282.80,353.63 282.65,353.90 282.51,354.30 C 282.37,354.71 282.23,355.24 282.11,355.89 C 281.99,356.55 281.87,357.33 281.77,358.23 C 281.66,359.14 281.56,360.18 281.48,361.34 C 281.39,362.50 281.31,363.78 281.24,365.20 C 281.17,366.61 281.11,368.15 281.06,369.81 C 281.01,371.48 281.00,373.50 280.94,375.19 C 280.87,376.87 280.78,378.45 280.66,379.93 C 280.55,381.40 280.41,382.77 280.24,384.04 C 280.08,385.30 279.89,386.46 279.67,387.52 C 279.46,388.57 279.22,389.52 278.95,390.36 C 278.69,391.20 278.40,391.94 278.09,392.57 C 277.77,393.20 277.43,393.73 277.07,394.15 C 276.71,394.57 276.32,394.88 275.91,395.09 C 275.49,395.30 275.03,395.31 274.59,395.41 C 274.16,395.50 273.73,395.60 273.30,395.68 C 272.88,395.76 272.46,395.84 272.04,395.91 C 271.62,395.99 271.21,396.05 270.80,396.11 C 270.39,396.17 269.98,396.22 269.58,396.27 C 269.18,396.31 268.78,396.35 268.38,396.38 C 267.99,396.42 267.60,396.44 267.21,396.46 C 266.82,396.48 266.44,396.49 266.06,396.50 Z" stroke="none" fill="currentColor" opacity="0.11" />
  <path d="M194.18,262.71L184.66,262.71 M184.65,262.47L194.40,262.46 M194.18,253.24L184.66,253.24 M184.65,253.48L194.40,253.49 M177.73,266.20L185.91,265.90 M177.73,249.75L185.91,250.05 M298.56,257.95L298.67,244.26 M251.37,208.31L262.03,206.82 M298.56,257.95L298.67,271.64 M247.99,311.69L260.59,316.28 M262.03,309.09L251.37,307.59 M206.09,284.04L218.99,293.17 M221.07,230.31L234.92,219.35 M285.59,219.01L280.45,221.20 M234.92,296.55L221.07,285.59 M280.45,294.70L285.59,296.89 M290.19,236.11L295.03,243.36 M288.00,236.02L292.84,243.27 M294.32,272.37L289.61,279.37 M292.13,272.45L287.42,279.46 M288.00,279.92L292.84,272.68 M289.40,255.95L288.20,255.95 M273.71,286.68L281.92,278.47 M285.40,272.62L285.40,257.97 M242.47,289.92L266.62,289.92 M272.25,284.83L280.07,277.01 M283.06,271.96L283.06,257.97 M281.92,237.48L273.71,229.27 M285.40,257.97L285.40,243.33 M242.47,226.03L266.62,226.03 M283.06,243.99L283.06,257.97 M272.25,284.65L280.06,276.91 M282.86,272.07L282.87,257.96 M266.92,287.45L244.91,287.45 M282.87,257.96L282.86,243.88 M266.92,228.50L244.91,228.50 M271.96,252.18L271.98,252.18 M271.94,251.81L271.96,251.81 M241.80,240.16L233.49,240.40 M261.62,248.01L261.35,236.53 M253.14,248.01L253.41,236.53 M261.62,267.94L261.35,279.42 M253.14,267.94L253.41,279.42 M332.29,215.07L288.01,217.38 M295.23,232.92L285.67,234.20 M314.19,218.98L320.50,220.84 M313.54,218.31L320.37,220.59 M286.73,219.45L317.85,217.39 M304.82,226.58L312.27,226.36 M304.86,227.02L312.27,226.36 M312.01,225.77L304.73,226.33 M286.64,297.05L307.38,298.57 M288.07,291.94L295.23,292.33 M304.51,289.50L313.05,290.03 M307.97,298.05L286.70,296.63 M384.05,211.17L415.97,209.51 M415.97,306.43L384.05,304.77 M388.41,232.21L388.50,257.87 M385.19,233.92L385.27,223.55 M385.11,257.87L385.26,242.86 M385.20,281.82L385.27,292.19 M378.35,282.80L378.34,271.14 M377.90,282.78L377.92,271.14 M337.41,216.09L358.88,214.63 M337.44,215.49L358.88,214.25 M334.55,216.90L395.42,212.85 M350.40,218.97L333.83,220.31 M319.05,225.25L345.19,223.05 M314.05,296.78L320.45,294.48 M314.05,296.78L321.06,294.77 M320.70,295.47L314.41,297.32 M320.70,295.47L314.11,297.24 M314.11,297.24L320.50,294.92 M331.96,299.16L358.94,300.97 M331.86,299.65L358.84,301.47 M354.90,297.87L395.37,300.79 M395.32,301.45L354.80,298.55 M350.40,296.78L333.79,295.27 M313.25,298.25L329.35,299.31 M249.11,164.92L258.48,169.12 M248.96,165.01L258.28,169.20 M245.97,171.93L255.34,176.12 M245.94,171.76L255.26,175.93 M247.29,172.66L265.83,180.95 M265.83,180.79L247.40,172.55 M268.94,173.85L250.52,165.58 M269.05,173.74L250.53,165.42 M265.04,175.32L266.11,172.92 M264.81,172.14L263.71,174.61 M264.57,172.24L263.50,174.63 M257.66,172.01L258.73,169.62 M260.18,170.07L259.08,172.54 M260.27,170.31L259.19,172.71 M261.58,181.43L263.32,177.51 M261.58,181.43L263.18,177.83 M255.45,178.68L257.21,174.77 M255.45,178.68L257.06,175.09 M255.38,178.83L256.98,175.28 M255.71,178.11L256.98,175.28 M257.15,175.23L255.88,178.05 M259.14,171.15L256.06,177.74 M258.07,172.87L255.60,178.34 M260.09,172.52L259.00,175.78 M264.74,173.66L261.88,180.34 M263.09,173.86L261.37,176.85 M261.73,181.08L264.17,175.60 M261.76,180.68L263.02,177.86 M261.51,181.58L263.10,178.02 M261.83,180.85L263.10,178.02 M261.43,178.83L259.80,182.46 M262.14,179.14L260.52,182.78 M256.75,176.73L255.11,180.35 M257.45,177.04L255.83,180.68 M256.65,210.60L254.86,209.40 M244.91,204.71L235.97,228.86 M280.04,148.73L279.83,141.50 M261.40,139.73L249.56,139.69 M261.40,137.73L249.56,137.78 M252.75,139.90L261.52,140.32 M260.80,140.35L252.07,139.94 M261.52,137.76L252.75,138.17 M260.80,137.89L252.07,138.27 M276.67,136.78L268.98,136.76 M276.67,141.64L268.98,141.67 M251.23,153.54L254.05,145.26 M256.24,185.30L247.73,198.41 M273.98,187.39L274.79,175.56 M273.59,188.88L268.57,194.30 M273.24,188.50L267.76,194.25 M273.89,187.24L274.47,175.47 M258.32,162.65L266.07,163.02 M265.99,185.35L258.23,197.91 M265.35,184.91L257.70,197.37 M256.81,198.07L248.91,197.29 M266.21,163.32L258.22,162.56 M275.56,163.11L275.37,172.28 M265.73,164.45L258.25,164.02 M265.19,184.95L257.70,197.37 M265.28,185.09L257.70,197.37 M256.75,197.85L249.10,197.03 M274.80,204.59L282.25,206.33 M274.80,204.59L282.11,206.02 M287.86,183.86L283.97,199.14 M282.36,206.73L270.64,203.96 M292.17,178.37L285.83,204.61 M286.63,183.31L283.29,196.83 M228.44,285.18L257.13,290.07 M259.17,307.25L251.06,310.18 M249.24,351.14L258.60,346.94 M249.09,351.05L258.41,346.87 M246.10,344.13L255.47,339.94 M246.07,344.30L255.39,340.13 M265.95,335.12L247.42,343.41 M265.96,335.28L247.53,343.51 M269.07,342.22L250.65,350.48 M269.18,342.33L250.66,350.64 M265.17,340.74L266.24,343.14 M264.94,343.92L263.83,341.45 M264.70,343.83L263.63,341.43 M257.79,344.05L258.86,346.44 M260.31,345.99L259.21,343.53 M260.40,345.75L259.32,343.36 M261.71,334.64L263.45,338.56 M261.71,334.64L263.31,338.23 M255.58,337.38L257.34,341.29 M255.58,337.38L257.19,340.97 M264.87,342.40L262.01,335.72 M255.51,337.23L257.11,340.78 M255.84,337.96L257.11,340.78 M257.28,340.83L256.01,338.01 M259.27,344.91L256.19,338.33 M258.20,343.20L255.73,337.73 M260.22,343.55L259.13,340.28 M263.22,342.20L261.50,339.22 M264.30,340.46L261.86,334.98 M263.15,338.20L261.89,335.38 M261.64,334.49L263.23,338.04 M261.96,335.21L263.23,338.04 M262.27,336.92L260.65,333.28 M261.56,337.24L259.93,333.60 M257.58,339.02L255.96,335.38 M256.88,339.34L255.24,335.71 M239.68,299.74L235.38,287.20 M280.38,377.22L280.08,388.87 M261.15,378.22L249.30,378.17 M261.15,376.22L249.30,376.26 M252.50,377.78L261.26,378.19 M260.55,378.06L251.82,377.68 M261.26,375.63L252.50,376.05 M260.55,375.60L251.82,376.00 M276.41,374.31L268.73,374.28 M276.41,379.17L268.73,379.19 M249.83,361.92L252.83,370.21 M244.69,312.83L256.54,330.34 M256.54,330.34L259.70,344.22 M256.15,330.45L259.58,344.65 M278.97,352.70L278.89,343.64 M278.21,352.75L278.14,343.68 M278.21,352.75L277.92,372.53 M278.26,372.71L278.90,352.83 M274.95,376.53L266.93,376.83 M276.36,328.55L276.99,340.34 M275.87,328.69L276.52,340.43 M275.56,327.16L259.37,311.11 M275.56,327.16L258.95,311.39 M271.47,386.07L266.25,380.56 M267.43,352.79L258.12,353.19 M258.06,352.82L267.14,352.41 M269.26,350.74L267.66,331.79 M268.71,350.25L266.78,330.75 M266.78,330.75L258.71,318.04 M257.26,317.70L248.56,318.44 M257.32,317.13L248.54,317.89 M277.70,352.75L277.41,372.63 M266.90,351.40L258.09,351.80 M268.44,349.29L266.86,331.86 M248.68,318.65L257.18,317.90 M283.22,315.98L287.74,332.61 M283.22,315.98L287.39,332.64 M282.95,316.05L287.39,332.64 M290.88,337.19L284.20,310.64 M287.11,352.38L274.86,333.53 M287.09,352.42L274.85,333.57 M294.32,348.25L288.64,343.67 M288.02,344.58L286.26,337.48 M282.84,316.09L286.96,331.60 M280.96,308.18L269.29,310.93 M280.98,308.73L269.48,311.51 M269.40,311.39L281.13,308.57 M282.31,318.35L285.75,332.13 M281.83,318.55L285.31,332.26 M276.09,314.78L265.30,317.27 M264.01,319.11L286.07,353.10 M264.44,318.94L286.85,353.09 M276.01,314.17L265.15,316.78 M170.32,260.29L176.51,260.39 M170.45,260.43L176.59,260.52 M172.36,260.51L176.91,260.52 M170.45,255.52L176.59,255.43 M170.32,255.65L176.51,255.56 M172.36,255.44L176.91,255.43 M157.12,261.46L174.96,261.45 M174.91,261.32L157.17,261.33 M174.91,254.63L157.17,254.62 M174.96,254.50L157.12,254.49 M155.79,254.60L164.81,254.60 M155.70,254.72L164.68,254.73 M155.79,261.35L164.81,261.35 M155.70,261.22L164.68,261.22 M172.07,245.01L172.06,244.05 M172.39,245.01L172.39,244.07 M179.64,244.05L179.63,245.01 M172.30,244.07L172.30,242.83 M179.40,244.07L179.52,243.41 M164.94,248.39L172.35,248.00 M172.35,267.95L164.94,267.55 M276.13,213.64L287.17,218.08 M295.13,257.97L294.65,248.16 M293.29,257.97L293.32,248.17 M228.65,297.57L206.17,283.09 M288.48,282.05L280.15,286.93 M282.90,284.78L293.90,279.60 M231.72,282.03L228.65,297.57 M294.65,267.79L295.13,257.97 M293.32,267.78L293.29,257.97 M249.68,282.15L275.57,285.91 M233.78,303.94L210.40,313.44 M210.40,313.44L234.60,303.57 M308.93,248.15L308.93,251.75 M308.93,264.20L308.93,267.80 M337.09,257.97L325.28,257.97 M315.38,267.13L315.38,258.94 M316.61,267.45L316.61,258.94 M315.38,248.80L315.38,257.00 M316.61,256.99L316.61,248.49 M307.51,244.97L298.37,244.92 M298.37,246.60L307.26,246.63 M363.00,241.57L343.29,241.54 M343.29,244.48L363.00,244.49 M343.29,271.47L363.00,271.46 M363.00,274.38L343.29,274.40 M249.68,233.79L275.57,230.03 M210.40,202.51L234.60,212.38 M210.40,202.51L233.78,212.02 M276.36,219.20L248.40,225.41 M223.80,211.06L226.89,220.24" stroke="currentColor" stroke-width="0.6" stroke-linecap="round" fill="none" opacity="0.55" clip-path="url(#hull-clip)" filter="url(#glow)" />
  <path d="M 266.06,396.50 C 265.68,396.51 265.30,396.51 264.94,396.50 C 264.58,396.49 264.23,396.47 263.90,396.45 C 263.57,396.42 263.25,396.38 262.95,396.34 C 262.64,396.29 262.35,396.24 262.08,396.17 C 261.80,396.11 261.54,396.04 261.30,395.95 C 261.05,395.87 260.82,395.78 260.60,395.68 C 260.38,395.58 260.18,395.47 259.99,395.35 C 259.80,395.23 259.63,395.11 259.47,394.97 C 259.31,394.83 259.17,394.70 259.03,394.53 C 258.89,394.37 258.75,394.18 258.62,393.98 C 258.48,393.77 258.35,393.55 258.23,393.30 C 258.10,393.06 257.98,392.80 257.86,392.52 C 257.74,392.23 257.63,391.93 257.52,391.61 C 257.40,391.29 257.30,390.95 257.20,390.59 C 257.09,390.23 256.99,389.85 256.90,389.45 C 256.80,389.05 256.71,388.63 256.62,388.19 C 256.54,387.75 256.46,387.25 256.38,386.81 C 256.29,386.38 256.20,385.96 256.12,385.57 C 256.03,385.18 255.94,384.81 255.85,384.46 C 255.76,384.11 255.67,383.79 255.58,383.48 C 255.49,383.18 255.39,382.90 255.30,382.64 C 255.20,382.38 255.11,382.14 255.01,381.93 C 254.91,381.71 254.81,381.52 254.71,381.35 C 254.61,381.18 254.51,381.03 254.41,380.91 C 254.30,380.78 254.23,380.70 254.09,380.59 C 253.95,380.49 253.78,380.39 253.56,380.30 C 253.35,380.20 253.10,380.11 252.81,380.02 C 252.53,379.92 252.20,379.84 251.84,379.75 C 251.48,379.66 251.09,379.58 250.66,379.50 C 250.22,379.42 249.76,379.34 249.25,379.27 C 248.74,379.19 248.20,379.12 247.62,379.05 C 247.05,378.98 246.43,378.91 245.78,378.84 C 245.13,378.78 244.36,378.72 243.72,378.66 C 243.08,378.59 242.48,378.52 241.92,378.44 C 241.37,378.36 240.86,378.28 240.39,378.19 C 239.92,378.10 239.50,378.01 239.12,377.91 C 238.75,377.81 238.41,377.70 238.12,377.59 C 237.84,377.48 237.59,377.37 237.39,377.25 C 237.19,377.13 237.03,377.01 236.92,376.88 C 236.81,376.74 236.74,376.61 236.72,376.47 C 236.70,376.33 236.73,376.17 236.78,376.03 C 236.84,375.89 236.93,375.76 237.05,375.63 C 237.18,375.51 237.34,375.39 237.54,375.27 C 237.74,375.16 237.97,375.05 238.23,374.95 C 238.50,374.85 238.80,374.76 239.14,374.67 C 239.48,374.58 239.85,374.50 240.26,374.43 C 240.67,374.36 241.11,374.29 241.59,374.23 C 242.06,374.17 242.58,374.11 243.12,374.06 C 243.67,374.01 244.32,373.98 244.88,373.94 C 245.43,373.89 245.94,373.85 246.43,373.80 C 246.92,373.76 247.37,373.71 247.79,373.66 C 248.21,373.62 248.60,373.57 248.95,373.52 C 249.31,373.46 249.63,373.41 249.92,373.36 C 250.21,373.31 250.47,373.25 250.70,373.20 C 250.92,373.14 251.11,373.08 251.27,373.02 C 251.43,372.96 251.56,372.90 251.66,372.84 C 251.75,372.78 251.82,372.82 251.84,372.66 C 251.87,372.50 251.85,372.24 251.79,371.88 C 251.73,371.53 251.63,371.07 251.49,370.52 C 251.35,369.97 251.17,369.32 250.95,368.58 C 250.73,367.83 250.47,366.99 250.17,366.05 C 249.87,365.11 249.53,364.07 249.15,362.93 C 248.77,361.79 248.35,360.56 247.88,359.23 C 247.42,357.89 246.92,356.46 246.38,354.94 C 245.83,353.41 245.20,351.65 244.62,350.06 C 244.05,348.48 243.48,346.93 242.92,345.42 C 242.36,343.91 241.81,342.45 241.27,341.02 C 240.72,339.59 240.18,338.20 239.66,336.84 C 239.13,335.49 238.61,334.18 238.09,332.91 C 237.58,331.63 237.08,330.40 236.58,329.20 C 236.08,328.01 235.59,326.85 235.11,325.73 C 234.63,324.62 234.15,323.54 233.69,322.50 C 233.22,321.46 232.75,320.44 232.31,319.50 C 231.88,318.56 231.46,317.68 231.07,316.85 C 230.68,316.03 230.31,315.26 229.96,314.55 C 229.61,313.85 229.29,313.20 228.98,312.61 C 228.68,312.02 228.40,311.49 228.14,311.02 C 227.88,310.54 227.64,310.13 227.43,309.77 C 227.21,309.42 227.02,309.12 226.85,308.88 C 226.68,308.64 226.53,308.46 226.41,308.34 C 226.28,308.22 226.23,308.20 226.09,308.16 C 225.96,308.12 225.79,308.10 225.59,308.10 C 225.38,308.11 225.15,308.13 224.88,308.18 C 224.62,308.23 224.32,308.30 223.98,308.39 C 223.65,308.48 223.29,308.60 222.89,308.73 C 222.49,308.87 222.06,309.03 221.60,309.21 C 221.14,309.39 220.64,309.60 220.12,309.82 C 219.59,310.05 219.03,310.29 218.44,310.56 C 217.85,310.83 217.19,311.16 216.56,311.44 C 215.93,311.71 215.30,311.97 214.66,312.20 C 214.02,312.44 213.37,312.66 212.72,312.86 C 212.07,313.06 211.41,313.24 210.75,313.41 C 210.09,313.57 209.42,313.72 208.75,313.84 C 208.08,313.97 207.40,314.08 206.72,314.17 C 206.04,314.26 205.35,314.34 204.66,314.39 C 203.96,314.45 203.27,314.48 202.56,314.50 C 201.86,314.52 201.14,314.58 200.44,314.50 C 199.74,314.42 199.05,314.26 198.37,314.02 C 197.69,313.79 197.01,313.47 196.35,313.07 C 195.69,312.67 195.04,312.20 194.39,311.64 C 193.75,311.08 193.11,310.45 192.48,309.73 C 191.86,309.02 191.24,308.23 190.63,307.35 C 190.02,306.48 189.43,305.52 188.84,304.49 C 188.25,303.46 187.67,302.35 187.09,301.16 C 186.52,299.96 185.90,298.54 185.41,297.34 C 184.92,296.15 184.50,295.02 184.16,293.97 C 183.81,292.92 183.54,291.94 183.34,291.03 C 183.15,290.12 183.02,289.29 182.97,288.53 C 182.92,287.77 182.94,287.08 183.03,286.47 C 183.12,285.85 183.29,285.31 183.53,284.84 C 183.77,284.38 184.08,283.98 184.47,283.66 C 184.85,283.33 185.31,283.08 185.84,282.91 C 186.38,282.73 187.09,282.70 187.66,282.59 C 188.22,282.49 188.75,282.39 189.24,282.29 C 189.73,282.19 190.19,282.09 190.60,281.99 C 191.02,281.89 191.39,281.80 191.73,281.70 C 192.07,281.61 192.38,281.51 192.64,281.42 C 192.90,281.33 193.13,281.24 193.32,281.15 C 193.51,281.06 193.66,280.97 193.77,280.88 C 193.89,280.80 193.96,280.71 194.00,280.62 C 194.04,280.54 194.03,280.45 194.00,280.38 C 193.97,280.30 193.92,280.22 193.84,280.16 C 193.77,280.09 193.66,280.03 193.53,279.97 C 193.40,279.91 193.24,279.86 193.06,279.81 C 192.88,279.77 192.67,279.72 192.44,279.69 C 192.20,279.65 191.94,279.62 191.66,279.59 C 191.37,279.57 191.06,279.55 190.72,279.53 C 190.38,279.52 190.02,279.51 189.62,279.50 C 189.23,279.49 188.77,279.51 188.38,279.50 C 187.98,279.49 187.60,279.47 187.25,279.44 C 186.90,279.41 186.56,279.36 186.25,279.31 C 185.94,279.26 185.65,279.20 185.38,279.12 C 185.10,279.05 184.85,278.97 184.62,278.88 C 184.40,278.78 184.19,278.68 184.00,278.56 C 183.81,278.45 183.65,278.32 183.50,278.19 C 183.35,278.05 183.23,277.91 183.12,277.75 C 183.02,277.59 183.00,277.41 182.88,277.25 C 182.75,277.09 182.58,276.93 182.36,276.78 C 182.14,276.63 181.88,276.48 181.58,276.34 C 181.27,276.20 180.92,276.07 180.53,275.94 C 180.14,275.81 179.70,275.68 179.22,275.56 C 178.74,275.44 178.21,275.33 177.64,275.22 C 177.07,275.11 176.46,275.01 175.80,274.91 C 175.14,274.81 174.43,274.71 173.69,274.62 C 172.94,274.54 172.07,274.45 171.31,274.38 C 170.55,274.30 169.83,274.23 169.14,274.17 C 168.45,274.11 167.79,274.06 167.17,274.02 C 166.55,273.97 165.96,273.93 165.41,273.91 C 164.85,273.88 164.33,273.86 163.84,273.84 C 163.36,273.83 162.90,273.83 162.48,273.83 C 162.07,273.83 161.68,273.84 161.33,273.86 C 160.98,273.88 160.66,273.90 160.38,273.94 C 160.09,273.97 159.87,274.03 159.62,274.06 C 159.38,274.10 159.14,274.12 158.91,274.14 C 158.67,274.16 158.44,274.17 158.22,274.17 C 157.99,274.17 157.78,274.17 157.56,274.16 C 157.35,274.14 157.14,274.12 156.94,274.09 C 156.73,274.07 156.54,274.03 156.34,273.98 C 156.15,273.94 155.96,273.89 155.78,273.83 C 155.60,273.77 155.42,273.70 155.25,273.62 C 155.08,273.55 154.97,273.46 154.75,273.38 C 154.53,273.29 154.26,273.20 153.94,273.11 C 153.61,273.02 153.24,272.92 152.81,272.83 C 152.39,272.73 151.91,272.63 151.38,272.53 C 150.84,272.43 150.26,272.33 149.62,272.22 C 148.99,272.11 148.30,272.00 147.56,271.89 C 146.82,271.78 146.03,271.66 145.19,271.55 C 144.34,271.43 143.45,271.31 142.50,271.19 C 141.55,271.07 140.44,270.94 139.50,270.81 C 138.56,270.69 137.67,270.56 136.84,270.43 C 136.00,270.30 135.23,270.17 134.51,270.04 C 133.79,269.91 133.12,269.77 132.52,269.64 C 131.91,269.51 131.36,269.37 130.86,269.23 C 130.36,269.10 129.92,268.96 129.54,268.82 C 129.15,268.68 128.83,268.54 128.55,268.40 C 128.28,268.26 128.07,268.11 127.91,267.97 C 127.75,267.82 127.69,267.71 127.59,267.53 C 127.50,267.35 127.40,267.13 127.32,266.88 C 127.24,266.63 127.16,266.35 127.09,266.02 C 127.01,265.70 126.95,265.35 126.89,264.95 C 126.83,264.56 126.78,264.13 126.73,263.67 C 126.69,263.21 126.65,262.71 126.62,262.18 C 126.58,261.65 126.56,261.08 126.54,260.48 C 126.52,259.87 126.51,259.24 126.50,258.56 C 126.49,257.89 126.49,257.11 126.50,256.44 C 126.51,255.76 126.52,255.13 126.54,254.52 C 126.56,253.92 126.58,253.35 126.62,252.82 C 126.65,252.29 126.69,251.79 126.73,251.33 C 126.78,250.87 126.83,250.44 126.89,250.05 C 126.95,249.65 127.01,249.30 127.09,248.98 C 127.16,248.65 127.24,248.37 127.32,248.12 C 127.40,247.87 127.50,247.65 127.59,247.47 C 127.69,247.29 127.80,247.17 127.91,247.03 C 128.01,246.89 128.13,246.76 128.24,246.63 C 128.36,246.51 128.48,246.39 128.60,246.27 C 128.73,246.16 128.85,246.05 128.98,245.95 C 129.12,245.85 129.25,245.76 129.39,245.67 C 129.53,245.58 129.67,245.50 129.82,245.43 C 129.97,245.36 130.12,245.29 130.27,245.23 C 130.43,245.17 130.59,245.11 130.75,245.06 C 130.91,245.01 131.03,244.99 131.25,244.94 C 131.47,244.89 131.76,244.83 132.09,244.77 C 132.43,244.70 132.83,244.63 133.28,244.55 C 133.73,244.47 134.24,244.38 134.81,244.28 C 135.38,244.18 136.01,244.08 136.69,243.97 C 137.37,243.86 138.11,243.74 138.91,243.61 C 139.70,243.48 140.56,243.35 141.47,243.20 C 142.38,243.06 143.35,242.91 144.38,242.75 C 145.40,242.59 146.55,242.41 147.62,242.25 C 148.70,242.09 149.77,241.94 150.83,241.80 C 151.89,241.65 152.94,241.52 153.98,241.39 C 155.03,241.26 156.07,241.14 157.09,241.03 C 158.12,240.92 159.14,240.82 160.16,240.72 C 161.17,240.62 162.17,240.53 163.17,240.45 C 164.17,240.37 165.16,240.30 166.14,240.23 C 167.12,240.17 168.10,240.11 169.06,240.06 C 170.03,240.01 171.03,239.99 171.94,239.94 C 172.84,239.89 173.69,239.83 174.48,239.77 C 175.28,239.70 176.02,239.63 176.70,239.55 C 177.39,239.47 178.02,239.38 178.59,239.28 C 179.17,239.18 179.69,239.08 180.16,238.97 C 180.62,238.86 181.03,238.74 181.39,238.61 C 181.75,238.48 182.05,238.35 182.30,238.20 C 182.54,238.06 182.74,237.91 182.88,237.75 C 183.01,237.59 183.02,237.41 183.12,237.25 C 183.23,237.09 183.35,236.95 183.50,236.81 C 183.65,236.68 183.81,236.55 184.00,236.44 C 184.19,236.32 184.40,236.22 184.62,236.12 C 184.85,236.03 185.10,235.95 185.38,235.88 C 185.65,235.80 185.94,235.74 186.25,235.69 C 186.56,235.64 186.90,235.59 187.25,235.56 C 187.60,235.53 187.98,235.51 188.38,235.50 C 188.77,235.49 189.23,235.51 189.62,235.50 C 190.02,235.49 190.38,235.48 190.72,235.47 C 191.06,235.45 191.37,235.43 191.66,235.41 C 191.94,235.38 192.20,235.35 192.44,235.31 C 192.67,235.28 192.88,235.23 193.06,235.19 C 193.24,235.14 193.40,235.09 193.53,235.03 C 193.66,234.97 193.77,234.91 193.84,234.84 C 193.92,234.78 193.97,234.70 194.00,234.62 C 194.03,234.55 194.04,234.46 194.00,234.38 C 193.96,234.29 193.89,234.20 193.77,234.12 C 193.66,234.03 193.51,233.94 193.32,233.85 C 193.13,233.76 192.90,233.67 192.64,233.58 C 192.38,233.49 192.07,233.39 191.73,233.30 C 191.39,233.20 191.02,233.11 190.60,233.01 C 190.19,232.91 189.73,232.81 189.24,232.71 C 188.75,232.61 188.22,232.51 187.66,232.41 C 187.09,232.30 186.37,232.27 185.84,232.09 C 185.32,231.91 184.86,231.66 184.48,231.33 C 184.11,231.00 183.80,230.59 183.58,230.11 C 183.35,229.63 183.20,229.07 183.12,228.44 C 183.05,227.80 183.05,227.10 183.12,226.31 C 183.20,225.53 183.35,224.67 183.58,223.73 C 183.80,222.80 184.11,221.79 184.48,220.70 C 184.86,219.62 185.32,218.46 185.84,217.22 C 186.37,215.98 187.05,214.51 187.66,213.28 C 188.26,212.05 188.88,210.91 189.49,209.85 C 190.11,208.79 190.73,207.82 191.35,206.93 C 191.98,206.04 192.60,205.24 193.23,204.52 C 193.87,203.80 194.50,203.16 195.14,202.61 C 195.78,202.06 196.42,201.59 197.07,201.21 C 197.72,200.83 198.37,200.53 199.02,200.32 C 199.68,200.11 200.34,199.98 201.00,199.94 C 201.66,199.89 202.33,200.01 203.00,200.06 C 203.67,200.12 204.34,200.19 205.02,200.28 C 205.69,200.37 206.37,200.47 207.05,200.59 C 207.73,200.71 208.41,200.85 209.09,201.00 C 209.78,201.15 210.47,201.32 211.16,201.50 C 211.85,201.68 212.54,201.88 213.23,202.09 C 213.93,202.31 214.63,202.54 215.33,202.78 C 216.03,203.03 216.73,203.29 217.44,203.56 C 218.14,203.84 218.83,204.33 219.56,204.44 C 220.29,204.55 221.05,204.48 221.82,204.23 C 222.60,203.98 223.39,203.54 224.21,202.93 C 225.03,202.32 225.87,201.52 226.73,200.55 C 227.60,199.57 228.48,198.42 229.39,197.08 C 230.30,195.74 231.23,194.22 232.18,192.52 C 233.13,190.82 234.11,188.94 235.10,186.88 C 236.10,184.82 237.12,182.58 238.16,180.16 C 239.20,177.73 240.35,174.80 241.34,172.34 C 242.34,169.89 243.26,167.59 244.11,165.44 C 244.96,163.29 245.74,161.29 246.45,159.44 C 247.16,157.59 247.80,155.89 248.38,154.34 C 248.95,152.80 249.45,151.40 249.88,150.16 C 250.30,148.91 250.66,147.82 250.95,146.88 C 251.24,145.93 251.46,145.14 251.61,144.50 C 251.76,143.86 251.84,143.37 251.84,143.03 C 251.85,142.69 251.75,142.64 251.66,142.47 C 251.56,142.29 251.44,142.13 251.29,141.98 C 251.14,141.82 250.95,141.68 250.74,141.55 C 250.53,141.43 250.29,141.31 250.02,141.20 C 249.74,141.10 249.44,141.00 249.11,140.92 C 248.78,140.84 248.42,140.77 248.02,140.71 C 247.63,140.65 247.21,140.61 246.76,140.57 C 246.31,140.54 245.82,140.51 245.31,140.50 C 244.80,140.49 244.20,140.51 243.69,140.50 C 243.18,140.49 242.70,140.47 242.26,140.45 C 241.81,140.42 241.40,140.38 241.02,140.34 C 240.64,140.29 240.30,140.24 239.98,140.17 C 239.67,140.11 239.39,140.04 239.14,139.95 C 238.89,139.87 238.68,139.78 238.49,139.68 C 238.31,139.58 238.16,139.47 238.04,139.35 C 237.92,139.23 237.83,139.11 237.78,138.97 C 237.73,138.83 237.70,138.67 237.72,138.53 C 237.74,138.39 237.81,138.26 237.92,138.12 C 238.03,137.99 238.19,137.87 238.39,137.75 C 238.59,137.63 238.84,137.52 239.12,137.41 C 239.41,137.30 239.75,137.19 240.12,137.09 C 240.50,136.99 240.92,136.90 241.39,136.81 C 241.86,136.72 242.37,136.64 242.92,136.56 C 243.48,136.48 244.08,136.41 244.72,136.34 C 245.36,136.28 246.13,136.22 246.78,136.16 C 247.43,136.09 248.05,136.02 248.62,135.94 C 249.20,135.86 249.74,135.78 250.25,135.69 C 250.76,135.60 251.22,135.51 251.66,135.41 C 252.09,135.31 252.48,135.20 252.84,135.09 C 253.20,134.98 253.53,134.87 253.81,134.75 C 254.10,134.63 254.35,134.51 254.56,134.38 C 254.78,134.24 254.95,134.11 255.09,133.97 C 255.23,133.83 255.30,133.70 255.41,133.53 C 255.51,133.37 255.61,133.18 255.71,132.98 C 255.81,132.77 255.91,132.55 256.01,132.30 C 256.11,132.06 256.20,131.80 256.30,131.52 C 256.39,131.23 256.49,130.93 256.58,130.61 C 256.67,130.29 256.76,129.95 256.85,129.59 C 256.94,129.23 257.03,128.85 257.12,128.45 C 257.20,128.05 257.29,127.63 257.38,127.19 C 257.46,126.75 257.54,126.25 257.62,125.81 C 257.71,125.38 257.80,124.96 257.88,124.57 C 257.97,124.18 258.06,123.81 258.15,123.46 C 258.24,123.11 258.33,122.79 258.42,122.48 C 258.51,122.18 258.61,121.90 258.70,121.64 C 258.80,121.38 258.89,121.14 258.99,120.93 C 259.09,120.71 259.19,120.52 259.29,120.35 C 259.39,120.18 259.49,120.03 259.59,119.91 C 259.70,119.78 259.77,119.69 259.91,119.59 C 260.04,119.50 260.20,119.41 260.40,119.34 C 260.59,119.26 260.82,119.19 261.07,119.13 C 261.32,119.07 261.61,119.02 261.92,118.98 C 262.24,118.94 262.58,118.91 262.95,118.89 C 263.33,118.87 263.73,118.86 264.16,118.85 C 264.60,118.85 265.06,118.85 265.55,118.87 C 266.05,118.88 266.57,118.90 267.12,118.94 C 267.68,118.97 268.31,119.02 268.88,119.06 C 269.44,119.11 269.98,119.15 270.49,119.20 C 271.01,119.24 271.50,119.29 271.98,119.34 C 272.45,119.38 272.90,119.43 273.33,119.48 C 273.76,119.54 274.16,119.59 274.55,119.64 C 274.93,119.69 275.29,119.75 275.63,119.80 C 275.97,119.86 276.29,119.92 276.59,119.98 C 276.88,120.04 277.15,120.10 277.41,120.16 C 277.66,120.22 277.88,120.17 278.09,120.34 C 278.31,120.52 278.52,120.80 278.71,121.20 C 278.90,121.59 279.09,122.10 279.26,122.71 C 279.43,123.33 279.59,124.05 279.73,124.89 C 279.88,125.73 280.02,126.68 280.14,127.73 C 280.26,128.79 280.38,129.96 280.48,131.24 C 280.58,132.52 280.67,133.91 280.74,135.41 C 280.82,136.92 280.88,138.53 280.94,140.25 C 280.99,141.97 281.01,144.05 281.06,145.75 C 281.12,147.45 281.18,149.02 281.26,150.46 C 281.33,151.90 281.42,153.21 281.52,154.38 C 281.62,155.56 281.74,156.60 281.86,157.52 C 281.98,158.43 282.12,159.21 282.27,159.86 C 282.41,160.51 282.57,161.03 282.74,161.41 C 282.91,161.80 283.10,162.06 283.29,162.18 C 283.48,162.30 283.69,162.30 283.91,162.16 C 284.12,162.02 284.35,161.59 284.59,161.34 C 284.84,161.10 285.10,160.87 285.38,160.67 C 285.65,160.47 285.94,160.29 286.25,160.14 C 286.56,159.99 286.88,159.86 287.22,159.75 C 287.56,159.64 287.91,159.56 288.28,159.50 C 288.65,159.44 289.04,159.40 289.44,159.39 C 289.84,159.38 290.26,159.39 290.69,159.42 C 291.12,159.46 291.57,159.51 292.03,159.59 C 292.49,159.67 293.04,159.71 293.47,159.91 C 293.90,160.11 294.27,160.40 294.60,160.79 C 294.93,161.18 295.20,161.66 295.43,162.24 C 295.65,162.82 295.83,163.50 295.95,164.27 C 296.08,165.04 296.15,165.90 296.17,166.86 C 296.19,167.82 296.17,168.87 296.09,170.02 C 296.01,171.17 295.88,172.42 295.70,173.76 C 295.51,175.10 295.28,176.53 295.00,178.06 C 294.72,179.59 294.32,181.40 294.00,182.94 C 293.68,184.48 293.36,185.93 293.06,187.30 C 292.76,188.66 292.47,189.95 292.19,191.14 C 291.91,192.34 291.64,193.45 291.38,194.47 C 291.11,195.49 290.86,196.43 290.62,197.28 C 290.39,198.13 290.16,198.90 289.94,199.58 C 289.72,200.26 289.51,200.85 289.31,201.36 C 289.11,201.87 288.93,202.29 288.75,202.62 C 288.57,202.96 288.40,203.12 288.25,203.38 C 288.10,203.63 287.95,203.88 287.82,204.13 C 287.69,204.39 287.57,204.64 287.46,204.90 C 287.35,205.15 287.26,205.41 287.17,205.67 C 287.09,205.93 287.01,206.19 286.95,206.45 C 286.89,206.71 286.84,206.98 286.80,207.24 C 286.77,207.51 286.74,207.77 286.73,208.04 C 286.71,208.31 286.71,208.57 286.72,208.84 C 286.73,209.11 286.66,209.40 286.78,209.66 C 286.90,209.91 287.13,210.15 287.46,210.37 C 287.79,210.59 288.22,210.79 288.76,210.98 C 289.29,211.16 289.93,211.33 290.67,211.48 C 291.41,211.64 292.26,211.77 293.20,211.89 C 294.15,212.01 295.20,212.11 296.35,212.20 C 297.50,212.28 298.76,212.35 300.12,212.40 C 301.48,212.45 302.94,212.48 304.50,212.50 C 306.06,212.52 307.73,212.51 309.50,212.50 C 311.27,212.49 313.14,212.46 315.11,212.42 C 317.08,212.38 319.15,212.33 321.33,212.27 C 323.50,212.20 325.78,212.12 328.16,212.03 C 330.53,211.94 333.01,211.84 335.59,211.72 C 338.17,211.60 340.86,211.47 343.64,211.33 C 346.42,211.18 349.31,211.03 352.30,210.86 C 355.28,210.69 358.37,210.51 361.56,210.31 C 364.75,210.12 368.33,209.88 371.44,209.69 C 374.54,209.49 377.47,209.31 380.20,209.14 C 382.94,208.97 385.49,208.82 387.86,208.67 C 390.23,208.53 392.41,208.40 394.41,208.28 C 396.40,208.16 398.22,208.06 399.84,207.97 C 401.47,207.88 402.91,207.80 404.17,207.73 C 405.43,207.67 406.50,207.62 407.39,207.58 C 408.28,207.54 408.98,207.51 409.50,207.50 C 410.02,207.49 410.18,207.49 410.50,207.50 C 410.82,207.51 411.12,207.52 411.41,207.54 C 411.70,207.56 411.98,207.58 412.24,207.62 C 412.50,207.65 412.75,207.69 412.98,207.73 C 413.22,207.78 413.44,207.83 413.64,207.89 C 413.85,207.95 414.04,208.01 414.21,208.09 C 414.39,208.16 414.55,208.24 414.70,208.32 C 414.84,208.40 414.98,208.50 415.09,208.59 C 415.21,208.69 415.32,208.79 415.41,208.91 C 415.49,209.02 415.55,209.14 415.59,209.27 C 415.64,209.39 415.66,209.53 415.66,209.67 C 415.66,209.82 415.64,209.97 415.59,210.12 C 415.55,210.28 415.49,210.45 415.41,210.62 C 415.32,210.80 415.22,210.98 415.09,211.17 C 414.97,211.36 414.82,211.56 414.66,211.77 C 414.49,211.97 414.30,212.18 414.09,212.41 C 413.89,212.63 413.66,212.86 413.41,213.09 C 413.15,213.33 412.88,213.56 412.59,213.80 C 412.29,214.05 411.97,214.29 411.63,214.54 C 411.29,214.79 410.93,215.04 410.55,215.30 C 410.16,215.55 409.76,215.81 409.33,216.08 C 408.90,216.34 408.45,216.61 407.98,216.88 C 407.50,217.15 407.01,217.43 406.49,217.71 C 405.98,217.99 405.44,218.27 404.88,218.56 C 404.31,218.85 403.68,219.16 403.12,219.44 C 402.57,219.71 402.04,219.97 401.53,220.20 C 401.03,220.44 400.55,220.66 400.09,220.86 C 399.64,221.06 399.21,221.24 398.81,221.41 C 398.41,221.57 398.04,221.72 397.69,221.84 C 397.34,221.97 397.02,222.08 396.72,222.17 C 396.42,222.26 396.15,222.34 395.91,222.39 C 395.66,222.45 395.44,222.48 395.25,222.50 C 395.06,222.52 394.92,222.49 394.75,222.50 C 394.58,222.51 394.42,222.53 394.26,222.55 C 394.10,222.58 393.93,222.62 393.77,222.66 C 393.61,222.71 393.45,222.76 393.30,222.83 C 393.14,222.89 392.98,222.96 392.83,223.05 C 392.67,223.13 392.52,223.22 392.37,223.32 C 392.21,223.42 392.06,223.53 391.91,223.65 C 391.76,223.77 391.62,223.89 391.47,224.03 C 391.32,224.17 391.17,224.32 391.03,224.47 C 390.89,224.62 390.76,224.76 390.63,224.91 C 390.51,225.06 390.39,225.21 390.27,225.37 C 390.16,225.52 390.05,225.67 389.95,225.83 C 389.85,225.98 389.76,226.14 389.67,226.30 C 389.58,226.45 389.50,226.61 389.43,226.77 C 389.36,226.93 389.29,227.10 389.23,227.26 C 389.17,227.42 389.11,227.58 389.06,227.75 C 389.01,227.92 388.97,227.94 388.94,228.25 C 388.90,228.56 388.87,229.01 388.84,229.59 C 388.82,230.18 388.80,230.91 388.78,231.78 C 388.77,232.65 388.76,233.66 388.75,234.81 C 388.74,235.96 388.74,237.26 388.75,238.69 C 388.76,240.12 388.77,241.69 388.78,243.41 C 388.80,245.12 388.82,246.97 388.84,248.97 C 388.87,250.96 388.90,253.10 388.94,255.38 C 388.97,257.65 389.01,260.35 389.06,262.62 C 389.11,264.90 389.17,267.04 389.23,269.04 C 389.29,271.04 389.36,272.90 389.43,274.62 C 389.50,276.34 389.58,277.92 389.67,279.36 C 389.76,280.80 389.85,282.10 389.95,283.27 C 390.05,284.43 390.16,285.45 390.27,286.34 C 390.39,287.22 390.51,287.96 390.63,288.57 C 390.76,289.18 390.89,289.64 391.03,289.97 C 391.17,290.30 391.32,290.36 391.47,290.53 C 391.62,290.71 391.76,290.87 391.91,291.02 C 392.06,291.18 392.21,291.32 392.37,291.45 C 392.52,291.57 392.67,291.69 392.83,291.80 C 392.98,291.90 393.14,292.00 393.30,292.08 C 393.45,292.16 393.61,292.23 393.77,292.29 C 393.93,292.35 394.10,292.39 394.26,292.43 C 394.42,292.46 394.58,292.49 394.75,292.50 C 394.92,292.51 395.06,292.48 395.25,292.50 C 395.44,292.52 395.66,292.55 395.91,292.61 C 396.15,292.66 396.42,292.74 396.72,292.83 C 397.02,292.92 397.34,293.03 397.69,293.16 C 398.04,293.28 398.41,293.43 398.81,293.59 C 399.21,293.76 399.64,293.94 400.09,294.14 C 400.55,294.34 401.03,294.56 401.53,294.80 C 402.04,295.03 402.57,295.29 403.12,295.56 C 403.68,295.84 404.31,296.15 404.88,296.44 C 405.44,296.73 405.98,297.01 406.49,297.29 C 407.01,297.57 407.50,297.85 407.98,298.12 C 408.45,298.39 408.90,298.66 409.33,298.92 C 409.76,299.19 410.16,299.45 410.55,299.70 C 410.93,299.96 411.29,300.21 411.63,300.46 C 411.97,300.71 412.29,300.95 412.59,301.20 C 412.88,301.44 413.15,301.67 413.41,301.91 C 413.66,302.14 413.89,302.37 414.09,302.59 C 414.30,302.82 414.49,303.03 414.66,303.23 C 414.82,303.44 414.97,303.64 415.09,303.83 C 415.22,304.02 415.32,304.20 415.41,304.38 C 415.49,304.55 415.55,304.72 415.59,304.88 C 415.64,305.03 415.66,305.18 415.66,305.33 C 415.66,305.47 415.64,305.61 415.59,305.73 C 415.55,305.86 415.49,305.98 415.41,306.09 C 415.32,306.21 415.21,306.31 415.09,306.41 C 414.98,306.50 414.84,306.60 414.70,306.68 C 414.55,306.76 414.39,306.84 414.21,306.91 C 414.04,306.99 413.85,307.05 413.64,307.11 C 413.44,307.17 413.22,307.22 412.98,307.27 C 412.75,307.31 412.50,307.35 412.24,307.38 C 411.98,307.42 411.70,307.44 411.41,307.46 C 411.12,307.48 410.82,307.49 410.50,307.50 C 410.18,307.51 410.12,307.52 409.50,307.50 C 408.88,307.48 407.97,307.45 406.78,307.41 C 405.59,307.36 404.11,307.30 402.34,307.22 C 400.58,307.14 398.53,307.05 396.19,306.94 C 393.85,306.83 391.22,306.70 388.31,306.56 C 385.40,306.42 382.20,306.27 378.72,306.09 C 375.23,305.92 371.46,305.73 367.41,305.53 C 363.35,305.33 359.01,305.11 354.38,304.88 C 349.74,304.64 344.24,304.34 339.62,304.12 C 335.01,303.91 330.70,303.73 326.70,303.59 C 322.69,303.44 318.99,303.33 315.59,303.26 C 312.19,303.18 309.09,303.14 306.30,303.14 C 303.50,303.14 301.01,303.17 298.83,303.23 C 296.64,303.30 294.76,303.40 293.18,303.54 C 291.60,303.68 290.32,303.85 289.35,304.05 C 288.38,304.26 287.71,304.50 287.34,304.78 C 286.98,305.06 287.21,305.42 287.16,305.72 C 287.11,306.02 287.07,306.31 287.04,306.59 C 287.01,306.86 287.00,307.13 286.99,307.38 C 286.99,307.64 287.00,307.88 287.02,308.11 C 287.04,308.34 287.07,308.56 287.11,308.77 C 287.15,308.97 287.21,309.17 287.27,309.35 C 287.34,309.54 287.42,309.71 287.51,309.87 C 287.60,310.03 287.70,310.18 287.81,310.31 C 287.93,310.45 288.07,310.55 288.19,310.69 C 288.31,310.83 288.42,310.98 288.53,311.16 C 288.64,311.33 288.74,311.52 288.84,311.72 C 288.94,311.92 289.04,312.14 289.12,312.38 C 289.21,312.61 289.30,312.86 289.38,313.12 C 289.45,313.39 289.53,313.67 289.59,313.97 C 289.66,314.27 289.72,314.58 289.78,314.91 C 289.84,315.23 289.89,315.58 289.94,315.94 C 289.98,316.30 290.00,316.64 290.06,317.06 C 290.12,317.48 290.20,317.95 290.30,318.47 C 290.39,318.98 290.51,319.55 290.64,320.16 C 290.77,320.77 290.92,321.42 291.09,322.12 C 291.26,322.83 291.45,323.58 291.66,324.38 C 291.86,325.17 292.09,326.02 292.33,326.91 C 292.57,327.80 292.83,328.73 293.11,329.72 C 293.39,330.70 293.68,331.73 294.00,332.81 C 294.32,333.89 294.69,335.12 295.00,336.19 C 295.31,337.26 295.60,338.27 295.88,339.23 C 296.15,340.20 296.40,341.10 296.62,341.95 C 296.85,342.80 297.06,343.60 297.25,344.34 C 297.44,345.09 297.60,345.77 297.75,346.41 C 297.90,347.04 298.02,347.62 298.12,348.14 C 298.23,348.66 298.31,349.13 298.38,349.55 C 298.44,349.96 298.48,350.32 298.50,350.62 C 298.52,350.93 298.53,351.13 298.50,351.38 C 298.47,351.62 298.40,351.85 298.30,352.07 C 298.21,352.29 298.08,352.51 297.91,352.71 C 297.75,352.92 297.56,353.11 297.33,353.30 C 297.10,353.48 296.84,353.66 296.55,353.83 C 296.25,354.00 295.93,354.15 295.57,354.30 C 295.21,354.45 294.82,354.60 294.40,354.73 C 293.98,354.86 293.52,354.98 293.03,355.09 C 292.54,355.21 291.97,355.32 291.47,355.41 C 290.97,355.49 290.49,355.55 290.03,355.59 C 289.57,355.64 289.14,355.66 288.72,355.66 C 288.30,355.66 287.91,355.64 287.53,355.59 C 287.16,355.55 286.80,355.49 286.47,355.41 C 286.14,355.32 285.82,355.22 285.53,355.09 C 285.24,354.97 284.97,354.82 284.72,354.66 C 284.47,354.49 284.24,354.30 284.03,354.09 C 283.82,353.89 283.65,353.51 283.47,353.41 C 283.29,353.30 283.12,353.33 282.96,353.48 C 282.80,353.63 282.65,353.90 282.51,354.30 C 282.37,354.71 282.23,355.24 282.11,355.89 C 281.99,356.55 281.87,357.33 281.77,358.23 C 281.66,359.14 281.56,360.18 281.48,361.34 C 281.39,362.50 281.31,363.78 281.24,365.20 C 281.17,366.61 281.11,368.15 281.06,369.81 C 281.01,371.48 281.00,373.50 280.94,375.19 C 280.87,376.87 280.78,378.45 280.66,379.93 C 280.55,381.40 280.41,382.77 280.24,384.04 C 280.08,385.30 279.89,386.46 279.67,387.52 C 279.46,388.57 279.22,389.52 278.95,390.36 C 278.69,391.20 278.40,391.94 278.09,392.57 C 277.77,393.20 277.43,393.73 277.07,394.15 C 276.71,394.57 276.32,394.88 275.91,395.09 C 275.49,395.30 275.03,395.31 274.59,395.41 C 274.16,395.50 273.73,395.60 273.30,395.68 C 272.88,395.76 272.46,395.84 272.04,395.91 C 271.62,395.99 271.21,396.05 270.80,396.11 C 270.39,396.17 269.98,396.22 269.58,396.27 C 269.18,396.31 268.78,396.35 268.38,396.38 C 267.99,396.42 267.60,396.44 267.21,396.46 C 266.82,396.48 266.44,396.49 266.06,396.50 Z" fill="none" stroke="currentColor" stroke-width="1.5" stroke-linejoin="round" stroke-linecap="round" filter="url(#glow)" />
</svg>