<svg xmlns="http://www.w3.org/2000/svg" width="512" height="512" viewBox="157.62 184.88 190.75 142.50" preserveAspectRatio="xMidYMid meet">
  <defs>
    <filter id="glow" x="-30%" y="-30%" width="160%" height="160%">
      <feGaussianBlur in="SourceGraphic" stdDeviation="2.4" result="blur" />
      <feMerge>
        <feMergeNode in="blur" />
        <feMergeNode in="SourceGraphic" />
      </feMerge>
    </filter>
    <clipPath id="hull-clip">
      <path d="M 291.81,315.50 C 291.56,315.51 291.42,315.54 291.19,315.50 C 290.95,315.46 290.68,315.37 290.39,315.23 C 290.10,315.10 289.77,314.92 289.42,314.70 C 289.07,314.48 288.69,314.22 288.28,313.91 C 287.87,313.60 287.43,313.24 286.97,312.84 C 286.50,312.45 286.01,312.00 285.48,311.52 C 284.96,311.03 284.41,310.50 283.83,309.92 C 283.25,309.35 282.64,308.73 282.00,308.06 C 281.36,307.40 280.67,306.61 280.00,305.94 C 279.33,305.27 278.64,304.63 277.95,304.03 C 277.26,303.43 276.57,302.87 275.86,302.34 C 275.15,301.82 274.44,301.33 273.72,300.88 C 273.00,300.42 272.27,300.01 271.53,299.62 C 270.79,299.24 270.05,298.90 269.30,298.59 C 268.54,298.29 267.78,298.02 267.02,297.78 C 266.25,297.55 265.47,297.35 264.69,297.19 C 263.90,297.03 263.14,296.93 262.31,296.81 C 261.48,296.70 260.61,296.59 259.70,296.48 C 258.79,296.38 257.85,296.29 256.86,296.20 C 255.87,296.12 254.85,296.04 253.78,295.97 C 252.72,295.90 251.61,295.84 250.47,295.78 C 249.33,295.73 248.14,295.68 246.92,295.64 C 245.70,295.60 244.44,295.57 243.14,295.55 C 241.84,295.52 240.50,295.51 239.12,295.50 C 237.75,295.49 236.21,295.51 234.88,295.50 C 233.54,295.49 232.30,295.47 231.14,295.44 C 229.98,295.41 228.91,295.36 227.92,295.31 C 226.93,295.26 226.03,295.20 225.22,295.12 C 224.40,295.05 223.67,294.97 223.03,294.88 C 222.39,294.78 221.83,294.68 221.36,294.56 C 220.89,294.45 220.50,294.32 220.20,294.19 C 219.90,294.05 219.69,293.91 219.56,293.75 C 219.43,293.59 219.58,293.44 219.44,293.25 C 219.29,293.06 219.04,292.84 218.68,292.60 C 218.32,292.36 217.86,292.10 217.29,291.80 C 216.72,291.51 216.05,291.20 215.27,290.86 C 214.49,290.52 213.60,290.15 212.61,289.77 C 211.62,289.38 210.52,288.96 209.32,288.52 C 208.12,288.08 206.81,287.62 205.40,287.13 C 203.99,286.64 202.47,286.13 200.84,285.59 C 199.22,285.06 197.28,284.46 195.66,283.91 C 194.04,283.35 192.52,282.81 191.12,282.27 C 189.71,281.74 188.42,281.21 187.23,280.70 C 186.04,280.18 184.96,279.67 183.98,279.17 C 183.01,278.67 182.15,278.18 181.39,277.70 C 180.63,277.22 179.99,276.75 179.45,276.29 C 178.90,275.83 178.47,275.37 178.15,274.93 C 177.82,274.49 177.61,274.05 177.50,273.62 C 177.39,273.20 177.52,272.78 177.50,272.38 C 177.48,271.97 177.44,271.58 177.38,271.20 C 177.31,270.83 177.23,270.46 177.12,270.11 C 177.02,269.76 176.90,269.42 176.75,269.09 C 176.60,268.77 176.44,268.46 176.25,268.16 C 176.06,267.86 175.85,267.57 175.62,267.30 C 175.40,267.02 175.15,266.76 174.88,266.52 C 174.60,266.27 174.31,266.03 174.00,265.81 C 173.69,265.59 173.31,265.42 173.00,265.19 C 172.69,264.95 172.40,264.69 172.12,264.41 C 171.85,264.12 171.60,263.81 171.38,263.47 C 171.15,263.13 170.94,262.77 170.75,262.38 C 170.56,261.98 170.40,261.57 170.25,261.12 C 170.10,260.68 169.98,260.21 169.88,259.72 C 169.77,259.22 169.69,258.70 169.62,258.16 C 169.56,257.61 169.52,257.04 169.50,256.44 C 169.48,255.84 169.48,255.16 169.50,254.56 C 169.52,253.96 169.56,253.39 169.62,252.84 C 169.69,252.30 169.77,251.78 169.88,251.28 C 169.98,250.79 170.10,250.32 170.25,249.88 C 170.40,249.43 170.56,249.02 170.75,248.62 C 170.94,248.23 171.15,247.87 171.38,247.53 C 171.60,247.19 171.85,246.88 172.12,246.59 C 172.40,246.31 172.69,246.05 173.00,245.81 C 173.31,245.58 173.69,245.41 174.00,245.19 C 174.31,244.97 174.60,244.73 174.88,244.48 C 175.15,244.24 175.40,243.98 175.62,243.70 C 175.85,243.43 176.06,243.14 176.25,242.84 C 176.44,242.54 176.60,242.23 176.75,241.91 C 176.90,241.58 177.02,241.24 177.12,240.89 C 177.23,240.54 177.31,240.17 177.38,239.80 C 177.44,239.42 177.48,239.03 177.50,238.62 C 177.52,238.22 177.39,237.80 177.50,237.38 C 177.61,236.95 177.82,236.51 178.15,236.07 C 178.47,235.63 178.90,235.17 179.45,234.71 C 179.99,234.25 180.63,233.78 181.39,233.30 C 182.15,232.82 183.01,232.33 183.98,231.83 C 184.96,231.33 186.04,230.82 187.23,230.30 C 188.42,229.79 189.71,229.26 191.12,228.73 C 192.52,228.19 194.04,227.65 195.66,227.09 C 197.28,226.54 199.22,225.94 200.84,225.41 C 202.47,224.87 203.99,224.36 205.40,223.87 C 206.81,223.38 208.12,222.92 209.32,222.48 C 210.52,222.04 211.62,221.62 212.61,221.23 C 213.60,220.85 214.49,220.48 215.27,220.14 C 216.05,219.80 216.72,219.49 217.29,219.20 C 217.86,218.90 218.32,218.64 218.68,218.40 C 219.04,218.16 219.29,217.94 219.44,217.75 C 219.58,217.56 219.49,217.41 219.56,217.25 C 219.63,217.09 219.73,216.95 219.86,216.81 C 219.99,216.68 220.14,216.55 220.33,216.44 C 220.51,216.32 220.73,216.22 220.97,216.12 C 221.21,216.03 221.48,215.95 221.78,215.88 C 222.08,215.80 222.41,215.74 222.77,215.69 C 223.12,215.64 223.51,215.59 223.92,215.56 C 224.34,215.53 224.78,215.51 225.25,215.50 C 225.72,215.49 226.17,215.51 226.75,215.50 C 227.33,215.49 227.98,215.48 228.70,215.45 C 229.43,215.43 230.23,215.40 231.11,215.36 C 231.99,215.32 232.94,215.27 233.97,215.22 C 235.00,215.16 236.10,215.10 237.28,215.03 C 238.46,214.96 239.72,214.88 241.05,214.80 C 242.38,214.71 243.78,214.62 245.27,214.52 C 246.75,214.41 248.30,214.30 249.94,214.19 C 251.57,214.07 253.42,213.97 255.06,213.81 C 256.71,213.65 258.28,213.45 259.80,213.22 C 261.31,212.98 262.76,212.71 264.14,212.41 C 265.52,212.10 266.84,211.76 268.09,211.38 C 269.35,210.99 270.53,210.58 271.66,210.12 C 272.78,209.67 273.84,209.18 274.83,208.66 C 275.82,208.13 276.75,207.57 277.61,206.97 C 278.47,206.37 279.27,205.73 280.00,205.06 C 280.73,204.39 281.31,203.59 282.00,202.94 C 282.69,202.28 283.41,201.68 284.16,201.12 C 284.90,200.57 285.67,200.07 286.47,199.62 C 287.27,199.18 288.09,198.78 288.94,198.44 C 289.79,198.09 290.66,197.80 291.56,197.56 C 292.46,197.32 293.39,197.14 294.34,197.00 C 295.30,196.86 296.28,196.78 297.28,196.75 C 298.29,196.72 299.32,196.74 300.38,196.81 C 301.43,196.89 302.60,197.06 303.62,197.19 C 304.65,197.31 305.62,197.43 306.54,197.55 C 307.45,197.68 308.31,197.80 309.12,197.91 C 309.92,198.03 310.67,198.15 311.36,198.27 C 312.05,198.38 312.69,198.50 313.27,198.61 C 313.85,198.72 314.37,198.83 314.84,198.95 C 315.30,199.06 315.71,199.17 316.07,199.27 C 316.43,199.38 316.73,199.49 316.97,199.59 C 317.21,199.70 317.35,199.76 317.53,199.91 C 317.71,200.05 317.89,200.24 318.07,200.46 C 318.25,200.69 318.42,200.95 318.59,201.26 C 318.75,201.56 318.92,201.91 319.08,202.30 C 319.24,202.68 319.39,203.11 319.55,203.58 C 319.70,204.05 319.85,204.55 319.99,205.10 C 320.14,205.65 320.28,206.24 320.41,206.87 C 320.55,207.50 320.68,208.17 320.81,208.88 C 320.94,209.58 321.06,210.41 321.19,211.12 C 321.32,211.84 321.45,212.52 321.59,213.16 C 321.73,213.80 321.88,214.40 322.03,214.97 C 322.18,215.54 322.34,216.07 322.50,216.56 C 322.66,217.06 322.83,217.52 323.00,217.94 C 323.17,218.36 323.35,218.74 323.53,219.09 C 323.71,219.44 323.90,219.76 324.09,220.03 C 324.29,220.31 324.48,220.55 324.69,220.75 C 324.89,220.95 325.11,221.08 325.31,221.25 C 325.52,221.42 325.71,221.60 325.91,221.78 C 326.10,221.96 326.29,222.15 326.47,222.34 C 326.65,222.54 326.83,222.73 327.00,222.94 C 327.17,223.14 327.34,223.35 327.50,223.56 C 327.66,223.78 327.82,223.99 327.97,224.22 C 328.12,224.44 328.27,224.67 328.41,224.91 C 328.55,225.14 328.68,225.38 328.81,225.62 C 328.94,225.87 329.07,226.11 329.19,226.38 C 329.31,226.64 329.42,226.93 329.53,227.23 C 329.64,227.54 329.74,227.86 329.84,228.20 C 329.94,228.54 330.04,228.90 330.12,229.28 C 330.21,229.66 330.30,230.05 330.38,230.47 C 330.45,230.88 330.53,231.32 330.59,231.77 C 330.66,232.22 330.72,232.68 330.78,233.17 C 330.84,233.66 330.89,234.16 330.94,234.69 C 330.98,235.21 331.01,235.80 331.06,236.31 C 331.11,236.82 331.18,237.30 331.25,237.75 C 331.32,238.20 331.41,238.61 331.50,239.00 C 331.59,239.39 331.70,239.74 331.81,240.06 C 331.93,240.39 332.05,240.68 332.19,240.94 C 332.32,241.20 332.47,241.43 332.62,241.62 C 332.78,241.82 332.95,241.99 333.12,242.12 C 333.30,242.26 333.49,242.36 333.69,242.44 C 333.89,242.51 334.12,242.52 334.31,242.56 C 334.51,242.61 334.69,242.65 334.86,242.70 C 335.03,242.75 335.18,242.80 335.33,242.86 C 335.47,242.91 335.60,242.97 335.72,243.03 C 335.84,243.09 335.94,243.15 336.03,243.22 C 336.12,243.28 336.20,243.35 336.27,243.42 C 336.33,243.49 336.38,243.57 336.42,243.64 C 336.46,243.72 336.49,243.79 336.50,243.88 C 336.51,243.96 336.51,244.04 336.50,244.12 C 336.49,244.21 336.48,244.28 336.45,244.36 C 336.43,244.43 336.40,244.51 336.36,244.58 C 336.32,244.65 336.27,244.72 336.22,244.78 C 336.16,244.85 336.10,244.91 336.03,244.97 C 335.96,245.03 335.88,245.09 335.80,245.14 C 335.71,245.20 335.62,245.25 335.52,245.30 C 335.41,245.35 335.30,245.39 335.19,245.44 C 335.07,245.48 334.93,245.51 334.81,245.56 C 334.69,245.61 334.58,245.68 334.47,245.75 C 334.36,245.82 334.26,245.91 334.16,246.00 C 334.06,246.09 333.96,246.20 333.88,246.31 C 333.79,246.43 333.70,246.55 333.62,246.69 C 333.55,246.82 333.47,246.97 333.41,247.12 C 333.34,247.28 333.28,247.45 333.22,247.62 C 333.16,247.80 333.11,247.99 333.06,248.19 C 333.02,248.39 332.98,248.59 332.94,248.81 C 332.90,249.03 332.86,249.26 332.83,249.50 C 332.79,249.74 332.76,249.99 332.73,250.25 C 332.71,250.51 332.68,250.78 332.66,251.06 C 332.63,251.34 332.61,251.64 332.59,251.94 C 332.58,252.24 332.56,252.55 332.55,252.88 C 332.53,253.20 332.52,253.53 332.52,253.88 C 332.51,254.22 332.50,254.57 332.50,254.94 C 332.50,255.30 332.49,255.69 332.50,256.06 C 332.51,256.43 332.53,256.80 332.56,257.16 C 332.59,257.52 332.64,257.87 332.69,258.22 C 332.74,258.57 332.80,258.91 332.88,259.25 C 332.95,259.59 333.03,259.92 333.12,260.25 C 333.22,260.58 333.32,260.90 333.44,261.22 C 333.55,261.54 333.68,261.85 333.81,262.16 C 333.95,262.46 334.09,262.77 334.25,263.06 C 334.41,263.36 334.61,263.66 334.75,263.94 C 334.89,264.22 335.01,264.48 335.11,264.73 C 335.21,264.99 335.28,265.23 335.33,265.45 C 335.38,265.68 335.40,265.89 335.41,266.09 C 335.41,266.29 335.39,266.48 335.34,266.66 C 335.30,266.83 335.23,266.99 335.14,267.14 C 335.05,267.29 334.93,267.42 334.80,267.55 C 334.66,267.67 334.50,267.78 334.31,267.88 C 334.13,267.97 333.89,268.01 333.69,268.12 C 333.49,268.24 333.30,268.38 333.12,268.55 C 332.95,268.72 332.78,268.91 332.62,269.14 C 332.47,269.37 332.32,269.62 332.19,269.91 C 332.05,270.19 331.93,270.50 331.81,270.84 C 331.70,271.18 331.59,271.55 331.50,271.95 C 331.41,272.35 331.32,272.78 331.25,273.23 C 331.18,273.69 331.11,274.17 331.06,274.69 C 331.01,275.20 330.98,275.79 330.94,276.31 C 330.89,276.84 330.84,277.34 330.78,277.83 C 330.72,278.32 330.66,278.78 330.59,279.23 C 330.53,279.68 330.45,280.12 330.38,280.53 C 330.30,280.95 330.21,281.34 330.12,281.72 C 330.04,282.10 329.94,282.46 329.84,282.80 C 329.74,283.14 329.64,283.46 329.53,283.77 C 329.42,284.07 329.31,284.36 329.19,284.62 C 329.07,284.89 328.94,285.13 328.81,285.38 C 328.68,285.62 328.55,285.86 328.41,286.09 C 328.27,286.33 328.12,286.56 327.97,286.78 C 327.82,287.01 327.66,287.22 327.50,287.44 C 327.34,287.65 327.17,287.86 327.00,288.06 C 326.83,288.27 326.65,288.46 326.47,288.66 C 326.29,288.85 326.10,289.04 325.91,289.22 C 325.71,289.40 325.52,289.58 325.31,289.75 C 325.11,289.92 324.89,290.05 324.69,290.25 C 324.48,290.45 324.29,290.69 324.09,290.97 C 323.90,291.24 323.71,291.56 323.53,291.91 C 323.35,292.26 323.17,292.64 323.00,293.06 C 322.83,293.48 322.66,293.94 322.50,294.44 C 322.34,294.93 322.18,295.46 322.03,296.03 C 321.88,296.60 321.73,297.20 321.59,297.84 C 321.45,298.48 321.32,299.16 321.19,299.88 C 321.06,300.59 320.94,301.42 320.81,302.12 C 320.68,302.83 320.55,303.50 320.41,304.13 C 320.28,304.76 320.14,305.35 319.99,305.90 C 319.85,306.45 319.70,306.95 319.55,307.42 C 319.39,307.89 319.24,308.32 319.08,308.70 C 318.92,309.09 318.75,309.44 318.59,309.74 C 318.42,310.05 318.25,310.31 318.07,310.54 C 317.89,310.76 317.71,310.95 317.53,311.09 C 317.35,311.24 317.20,311.30 316.97,311.41 C 316.74,311.51 316.46,311.62 316.15,311.73 C 315.83,311.83 315.47,311.94 315.07,312.05 C 314.67,312.17 314.22,312.28 313.73,312.39 C 313.25,312.50 312.71,312.62 312.14,312.73 C 311.57,312.85 310.95,312.97 310.29,313.09 C 309.63,313.20 308.93,313.32 308.18,313.45 C 307.43,313.57 306.64,313.69 305.81,313.81 C 304.98,313.94 304.02,314.07 303.19,314.19 C 302.35,314.30 301.56,314.41 300.81,314.52 C 300.06,314.62 299.35,314.71 298.69,314.80 C 298.02,314.88 297.40,314.96 296.81,315.03 C 296.23,315.10 295.69,315.16 295.19,315.22 C 294.69,315.27 294.23,315.32 293.81,315.36 C 293.40,315.40 293.02,315.43 292.69,315.45 C 292.35,315.48 292.06,315.49 291.81,315.50 Z" />
    </clipPath>
  </defs>
  <path d="M 291.81,315.50 C 291.56,315.51 291.42,315.54 291.19,315.50 C 290.95,315.46 290.68,315.37 290.39,315.23 C 290.10,315.10 289.77,314.92 289.42,314.70 C 289.07,314.48 288.69,314.22 288.28,313.91 C 287.87,313.60 287.43,313.24 286.97,312.84 C 286.50,312.45 286.01,312.00 285.48,311.52 C 284.96,311.03 284.41,310.50 283.83,309.92 C 283.25,309.35 282.64,308.73 282.00,308.06 C 281.36,307.40 280.67,306.61 280.00,305.94 C 279.33,305.27 278.64,304.63 277.95,304.03 C 277.26,303.43 276.57,302.87 275.86,302.34 C 275.15,301.82 274.44,301.33 273.72,300.88 C 273.00,300.42 272.27,300.01 271.53,299.62 C 270.79,299.24 270.05,298.90 269.30,298.59 C 268.54,298.29 267.78,298.02 267.02,297.78 C 266.25,297.55 265.47,297.35 264.69,297.19 C 263.90,297.03 263.14,296.93 262.31,296.81 C 261.48,296.70 260.61,296.59 259.70,296.48 C 258.79,296.38 257.85,296.29 256.86,296.20 C 255.87,296.12 254.85,296.04 253.78,295.97 C 252.72,295.90 251.61,295.84 250.47,295.78 C 249.33,295.73 248.14,295.68 246.92,295.64 C 245.70,295.60 244.44,295.57 243.14,295.55 C 241.84,295.52 240.50,295.51 239.12,295.50 C 237.75,295.49 236.21,295.51 234.88,295.50 C 233.54,295.49 232.30,295.47 231.14,295.44 C 229.98,295.41 228.91,295.36 227.92,295.31 C 226.93,295.26 226.03,295.20 225.22,295.12 C 224.40,295.05 223.67,294.97 223.03,294.88 C 222.39,294.78 221.83,294.68 221.36,294.56 C 220.89,294.45 220.50,294.32 220.20,294.19 C 219.90,294.05 219.69,293.91 219.56,293.75 C 219.43,293.59 219.58,293.44 219.44,293.25 C 219.29,293.06 219.04,292.84 218.68,292.60 C 218.32,292.36 217.86,292.10 217.29,291.80 C 216.72,291.51 216.05,291.20 215.27,290.86 C 214.49,290.52 213.60,290.15 212.61,289.77 C 211.62,289.38 210.52,288.96 209.32,288.52 C 208.12,288.08 206.81,287.62 205.40,287.13 C 203.99,286.64 202.47,286.13 200.84,285.59 C 199.22,285.06 197.28,284.46 195.66,283.91 C 194.04,283.35 192.52,282.81 191.12,282.27 C 189.71,281.74 188.42,281.21 187.23,280.70 C 186.04,280.18 184.96,279.67 183.98,279.17 C 183.01,278.67 182.15,278.18 181.39,277.70 C 180.63,277.22 179.99,276.75 179.45,276.29 C 178.90,275.83 178.47,275.37 178.15,274.93 C 177.82,274.49 177.61,274.05 177.50,273.62 C 177.39,273.20 177.52,272.78 177.50,272.38 C 177.48,271.97 177.44,271.58 177.38,271.20 C 177.31,270.83 177.23,270.46 177.12,270.11 C 177.02,269.76 176.90,269.42 176.75,269.09 C 176.60,268.77 176.44,268.46 176.25,268.16 C 176.06,267.86 175.85,267.57 175.62,267.30 C 175.40,267.02 175.15,266.76 174.88,266.52 C 174.60,266.27 174.31,266.03 174.00,265.81 C 173.69,265.59 173.31,265.42 173.00,265.19 C 172.69,264.95 172.40,264.69 172.12,264.41 C 171.85,264.12 171.60,263.81 171.38,263.47 C 171.15,263.13 170.94,262.77 170.75,262.38 C 170.56,261.98 170.40,261.57 170.25,261.12 C 170.10,260.68 169.98,260.21 169.88,259.72 C 169.77,259.22 169.69,258.70 169.62,258.16 C 169.56,257.61 169.52,257.04 169.50,256.44 C 169.48,255.84 169.48,255.16 169.50,254.56 C 169.52,253.96 169.56,253.39 169.62,252.84 C 169.69,252.30 169.77,251.78 169.88,251.28 C 169.98,250.79 170.10,250.32 170.25,249.88 C 170.40,249.43 170.56,249.02 170.75,248.62 C 170.94,248.23 171.15,247.87 171.38,247.53 C 171.60,247.19 171.85,246.88 172.12,246.59 C 172.40,246.31 172.69,246.05 173.00,245.81 C 173.31,245.58 173.69,245.41 174.00,245.19 C 174.31,244.97 174.60,244.73 174.88,244.48 C 175.15,244.24 175.40,243.98 175.62,243.70 C 175.85,243.43 176.06,243.14 176.25,242.84 C 176.44,242.54 176.60,242.23 176.75,241.91 C 176.90,241.58 177.02,241.24 177.12,240.89 C 177.23,240.54 177.31,240.17 177.38,239.80 C 177.44,239.42 177.48,239.03 177.50,238.62 C 177.52,238.22 177.39,237.80 177.50,237.38 C 177.61,236.95 177.82,236.51 178.15,236.07 C 178.47,235.63 178.90,235.17 179.45,234.71 C 179.99,234.25 180.63,233.78 181.39,233.30 C 182.15,232.82 183.01,232.33 183.98,231.83 C 184.96,231.33 186.04,230.82 187.23,230.30 C 188.42,229.79 189.71,229.26 191.12,228.73 C 192.52,228.19 194.04,227.65 195.66,227.09 C 197.28,226.54 199.22,225.94 200.84,225.41 C 202.47,224.87 203.99,224.36 205.40,223.87 C 206.81,223.38 208.12,222.92 209.32,222.48 C 210.52,222.04 211.62,221.62 212.61,221.23 C 213.60,220.85 214.49,220.48 215.27,220.14 C 216.05,219.80 216.72,219.49 217.29,219.20 C 217.86,218.90 218.32,218.64 218.68,218.40 C 219.04,218.16 219.29,217.94 219.44,217.75 C 219.58,217.56 219.49,217.41 219.56,217.25 C 219.63,217.09 219.73,216.95 219.86,216.81 C 219.99,216.68 220.14,216.55 220.33,216.44 C 220.51,216.32 220.73,216.22 220.97,216.12 C 221.21,216.03 221.48,215.95 221.78,215.88 C 222.08,215.80 222.41,215.74 222.77,215.69 C 223.12,215.64 223.51,215.59 223.92,215.56 C 224.34,215.53 224.78,215.51 225.25,215.50 C 225.72,215.49 226.17,215.51 226.75,215.50 C 227.33,215.49 227.98,215.48 228.70,215.45 C 229.43,215.43 230.23,215.40 231.11,215.36 C 231.99,215.32 232.94,215.27 233.97,215.22 C 235.00,215.16 236.10,215.10 237.28,215.03 C 238.46,214.96 239.72,214.88 241.05,214.80 C 242.38,214.71 243.78,214.62 245.27,214.52 C 246.75,214.41 248.30,214.30 249.94,214.19 C 251.57,214.07 253.42,213.97 255.06,213.81 C 256.71,213.65 258.28,213.45 259.80,213.22 C 261.31,212.98 262.76,212.71 264.14,212.41 C 265.52,212.10 266.84,211.76 268.09,211.38 C 269.35,210.99 270.53,210.58 271.66,210.12 C 272.78,209.67 273.84,209.18 274.83,208.66 C 275.82,208.13 276.75,207.57 277.61,206.97 C 278.47,206.37 279.27,205.73 280.00,205.06 C 280.73,204.39 281.31,203.59 282.00,202.94 C 282.69,202.28 283.41,201.68 284.16,201.12 C 284.90,200.57 285.67,200.07 286.47,199.62 C 287.27,199.18 288.09,198.78 288.94,198.44 C 289.79,198.09 290.66,197.80 291.56,197.56 C 292.46,197.32 293.39,197.14 294.34,197.00 C 295.30,196.86 296.28,196.78 297.28,196.75 C 298.29,196.72 299.32,196.74 300.38,196.81 C 301.43,196.89 302.60,197.06 303.62,197.19 C 304.65,197.31 305.62,197.43 306.54,197.55 C 307.45,197.68 308.31,197.80 309.12,197.91 C 309.92,198.03 310.67,198.15 311.36,198.27 C 312.05,198.38 312.69,198.50 313.27,198.61 C 313.85,198.72 314.37,198.83 314.84,198.95 C 315.30,199.06 315.71,199.17 316.07,199.27 C 316.43,199.38 316.73,199.49 316.97,199.59 C 317.21,199.70 317.35,199.76 317.53,199.91 C 317.71,200.05 317.89,200.24 318.07,200.46 C 318.25,200.69 318.42,200.95 318.59,201.26 C 318.75,201.56 318.92,201.91 319.08,202.30 C 319.24,202.68 319.39,203.11 319.55,203.58 C 319.70,204.05 319.85,204.55 319.99,205.10 C 320.14,205.65 320.28,206.24 320.41,206.87 C 320.55,207.50 320.68,208.17 320.81,208.88 C 320.94,209.58 321.06,210.41 321.19,211.12 C 321.32,211.84 321.45,212.52 321.59,213.16 C 321.73,213.80 321.88,214.40 322.03,214.97 C 322.18,215.54 322.34,216.07 322.50,216.56 C 322.66,217.06 322.83,217.52 323.00,217.94 C 323.17,218.36 323.35,218.74 323.53,219.09 C 323.71,219.44 323.90,219.76 324.09,220.03 C 324.29,220.31 324.48,220.55 324.69,220.75 C 324.89,220.95 325.11,221.08 325.31,221.25 C 325.52,221.42 325.71,221.60 325.91,221.78 C 326.10,221.96 326.29,222.15 326.47,222.34 C 326.65,222.54 326.83,222.73 327.00,222.94 C 327.17,223.14 327.34,223.35 327.50,223.56 C 327.66,223.78 327.82,223.99 327.97,224.22 C 328.12,224.44 328.27,224.67 328.41,224.91 C 328.55,225.14 328.68,225.38 328.81,225.62 C 328.94,225.87 329.07,226.11 329.19,226.38 C 329.31,226.64 329.42,226.93 329.53,227.23 C 329.64,227.54 329.74,227.86 329.84,228.20 C 329.94,228.54 330.04,228.90 330.12,229.28 C 330.21,229.66 330.30,230.05 330.38,230.47 C 330.45,230.88 330.53,231.32 330.59,231.77 C 330.66,232.22 330.72,232.68 330.78,233.17 C 330.84,233.66 330.89,234.16 330.94,234.69 C 330.98,235.21 331.01,235.80 331.06,236.31 C 331.11,236.82 331.18,237.30 331.25,237.75 C 331.32,238.20 331.41,238.61 331.50,239.00 C 331.59,239.39 331.70,239.74 331.81,240.06 C 331.93,240.39 332.05,240.68 332.19,240.94 C 332.32,241.20 332.47,241.43 332.62,241.62 C 332.78,241.82 332.95,241.99 333.12,242.12 C 333.30,242.26 333.49,242.36 333.69,242.44 C 333.89,242.51 334.12,242.52 334.31,242.56 C 334.51,242.61 334.69,242.65 334.86,242.70 C 335.03,242.75 335.18,242.80 335.33,242.86 C 335.47,242.91 335.60,242.97 335.72,243.03 C 335.84,243.09 335.94,243.15 336.03,243.22 C 336.12,243.28 336.20,243.35 336.27,243.42 C 336.33,243.49 336.38,243.57 336.42,243.64 C 336.46,243.72 336.49,243.79 336.50,243.88 C 336.51,243.96 336.51,244.04 336.50,244.12 C 336.49,244.21 336.48,244.28 336.45,244.36 C 336.43,244.43 336.40,244.51 336.36,244.58 C 336.32,244.65 336.27,244.72 336.22,244.78 C 336.16,244.85 336.10,244.91 336.03,244.97 C 335.96,245.03 335.88,245.09 335.80,245.14 C 335.71,245.20 335.62,245.25 335.52,245.30 C 335.41,245.35 335.30,245.39 335.19,245.44 C 335.07,245.48 334.93,245.51 334.81,245.56 C 334.69,245.61 334.58,245.68 334.47,245.75 C 334.36,245.82 334.26,245.91 334.16,246.00 C 334.06,246.09 333.96,246.20 333.88,246.31 C 333.79,246.43 333.70,246.55 333.62,246.69 C 333.55,246.82 333.47,246.97 333.41,247.12 C 333.34,247.28 333.28,247.45 333.22,247.62 C 333.16,247.80 333.11,247.99 333.06,248.19 C 333.02,248.39 332.98,248.59 332.94,248.81 C 332.90,249.03 332.86,249.26 332.83,249.50 C 332.79,249.74 332.76,249.99 332.73,250.25 C 332.71,250.51 332.68,250.78 332.66,251.06 C 332.63,251.34 332.61,251.64 332.59,251.94 C 332.58,252.24 332.56,252.55 332.55,252.88 C 332.53,253.20 332.52,253.53 332.52,253.88 C 332.51,254.22 332.50,254.57 332.50,254.94 C 332.50,255.30 332.49,255.69 332.50,256.06 C 332.51,256.43 332.53,256.80 332.56,257.16 C 332.59,257.52 332.64,257.87 332.69,258.22 C 332.74,258.57 332.80,258.91 332.88,259.25 C 332.95,259.59 333.03,259.92 333.12,260.25 C 333.22,260.58 333.32,260.90 333.44,261.22 C 333.55,261.54 333.68,261.85 333.81,262.16 C 333.95,262.46 334.09,262.77 334.25,263.06 C 334.41,263.36 334.61,263.66 334.75,263.94 C 334.89,264.22 335.01,264.48 335.11,264.73 C 335.21,264.99 335.28,265.23 335.33,265.45 C 335.38,265.68 335.40,265.89 335.41,266.09 C 335.41,266.29 335.39,266.48 335.34,266.66 C 335.30,266.83 335.23,266.99 335.14,267.14 C 335.05,267.29 334.93,267.42 334.80,267.55 C 334.66,267.67 334.50,267.78 334.31,267.88 C 334.13,267.97 333.89,268.01 333.69,268.12 C 333.49,268.24 333.30,268.38 333.12,268.55 C 332.95,268.72 332.78,268.91 332.62,269.14 C 332.47,269.37 332.32,269.62 332.19,269.91 C 332.05,270.19 331.93,270.50 331.81,270.84 C 331.70,271.18 331.59,271.55 331.50,271.95 C 331.41,272.35 331.32,272.78 331.25,273.23 C 331.18,273.69 331.11,274.17 331.06,274.69 C 331.01,275.20 330.98,275.79 330.94,276.31 C 330.89,276.84 330.84,277.34 330.78,277.83 C 330.72,278.32 330.66,278.78 330.59,279.23 C 330.53,279.68 330.45,280.12 330.38,280.53 C 330.30,280.95 330.21,281.34 330.12,281.72 C 330.04,282.10 329.94,282.46 329.84,282.80 C 329.74,283.14 329.64,283.46 329.53,283.77 C 329.42,284.07 329.31,284.36 329.19,284.62 C 329.07,284.89 328.94,285.13 328.81,285.38 C 328.68,285.62 328.55,285.86 328.41,286.09 C 328.27,286.33 328.12,286.56 327.97,286.78 C 327.82,287.01 327.66,287.22 327.50,287.44 C 327.34,287.65 327.17,287.86 327.00,288.06 C 326.83,288.27 326.65,288.46 326.47,288.66 C 326.29,288.85 326.10,289.04 325.91,289.22 C 325.71,289.40 325.52,289.58 325.31,289.75 C 325.11,289.92 324.89,290.05 324.69,290.25 C 324.48,290.45 324.29,290.69 324.09,290.97 C 323.90,291.24 323.71,291.56 323.53,291.91 C 323.35,292.26 323.17,292.64 323.00,293.06 C 322.83,293.48 322.66,293.94 322.50,294.44 C 322.34,294.93 322.18,295.46 322.03,296.03 C 321.88,296.60 321.73,297.20 321.59,297.84 C 321.45,298.48 321.32,299.16 321.19,299.88 C 321.06,300.59 320.94,301.42 320.81,302.12 C 320.68,302.83 320.55,303.50 320.41,304.13 C 320.28,304.76 320.14,305.35 319.99,305.90 C 319.85,306.45 319.70,306.95 319.55,307.42 C 319.39,307.89 319.24,308.32 319.08,308.70 C 318.92,309.09 318.75,309.44 318.59,309.74 C 318.42,310.05 318.25,310.31 318.07,310.54 C 317.89,310.76 317.71,310.95 317.53,311.09 C 317.35,311.24 317.20,311.30 316.97,311.41 C 316.74,311.51 316.46,311.62 316.15,311.73 C 315.83,311.83 315.47,311.94 315.07,312.05 C 314.67,312.17 314.22,312.28 313.73,312.39 C 313.25,312.50 312.71,312.62 312.14,312.73 C 311.57,312.85 310.95,312.97 310.29,313.09 C 309.63,313.20 308.93,313.32 308.18,313.45 C 307.43,313.57 306.64,313.69 305.81,313.81 C 304.98,313.94 304.02,314.07 303.19,314.19 C 302.35,314.30 301.56,314.41 300.81,314.52 C 300.06,314.62 299.35,314.71 298.69,314.80 C 298.02,314.88 297.40,314.96 296.81,315.03 C 296.23,315.10 295.69,315.16 295.19,315.22 C 294.69,315.27 294.23,315.32 293.81,315.36 C 293.40,315.40 293.02,315.43 292.69,315.45 C 292.35,315.48 292.06,315.49 291.81,315.50 Z" stroke="none" fill="currentColor" opacity="0.11" />
  <path d="M237.73,244.57L233.36,244.57 M237.74,244.52L233.35,244.52 M237.73,244.67L233.36,244.67 M233.36,244.77L237.73,244.77 M233.35,244.80L237.74,244.80 M233.32,266.97L237.70,266.97 M233.31,267.02L237.71,267.02 M233.33,266.87L237.69,266.87 M237.70,266.77L233.32,266.77 M237.71,266.74L233.31,266.74 M282.39,271.86L282.40,271.89 M282.40,271.64L282.40,268.00 M282.40,267.24L282.40,255.99 M281.91,240.13L281.90,240.10 M281.90,240.35L281.90,243.99 M281.90,244.75L281.90,255.99 M298.32,238.03L287.46,238.03 M298.32,238.30L287.46,238.30 M298.32,238.56L287.46,238.56 M298.32,238.56L287.46,238.56 M313.03,238.84L305.74,238.83 M287.46,273.95L298.32,273.95 M287.46,273.69L298.32,273.69 M287.46,273.43L298.32,273.43 M287.46,273.43L298.32,273.43 M241.97,240.13L241.96,240.10 M241.96,240.35L241.96,243.99 M241.96,244.75L241.96,255.99 M229.42,278.34L229.42,275.77 M280.53,228.17L262.18,228.21 M279.02,228.21L262.18,228.21 M280.56,228.14L278.11,228.12 M244.31,246.93L280.03,245.36 M244.31,246.93L278.90,245.36 M253.94,242.86L270.79,242.86 M270.79,242.86L256.36,242.86 M270.79,242.86L259.25,242.86 M270.79,242.86L262.13,242.86 M270.79,242.86L265.02,242.86 M243.84,283.81L262.18,283.78 M245.35,283.78L262.18,283.78 M243.81,283.85L246.26,283.87 M280.06,265.05L244.34,266.63 M280.06,265.05L245.47,266.63 M270.42,269.12L253.57,269.12 M253.57,269.12L268.00,269.12 M253.57,269.12L265.12,269.12 M253.57,269.12L262.23,269.12 M253.57,269.12L259.35,269.12 M242.45,271.86L242.46,271.89 M242.46,271.64L242.46,268.00 M242.46,267.24L242.46,255.99 M205.45,260.33L205.45,255.99 M205.45,255.99L205.45,251.65 M174.54,263.53L178.23,264.14 M178.23,264.14L193.02,266.58 M195.18,266.93L199.78,267.69 M178.23,247.85L174.54,248.46 M178.23,247.85L193.02,245.41 M199.78,244.30L195.18,245.06 M180.98,255.99L181.93,261.54 M180.98,255.99L182.17,262.70 M174.21,261.72L174.19,255.99 M174.19,255.99L174.21,250.26 M195.18,266.50L199.83,267.25 M178.15,263.69L192.96,266.14 M178.15,263.69L174.49,263.08 M178.22,263.71L193.01,266.14 M174.08,255.99L174.10,261.72 M174.08,255.99L174.10,250.26 M199.84,267.25L195.22,266.50 M195.18,245.49L199.83,244.73 M192.96,245.85L178.15,248.29 M178.15,248.29L174.49,248.90 M178.22,248.28L193.01,245.84 M195.22,245.48L199.84,244.73 M203.29,255.99L203.30,247.93 M228.08,243.60L228.07,243.57 M228.07,243.82L228.07,247.46 M228.07,248.22L228.07,259.47 M228.56,268.39L228.57,268.41 M228.57,268.16L228.57,264.52 M228.57,263.77L228.57,252.52 M293.90,266.27L323.35,262.51 M323.35,262.51L313.23,263.75 M310.44,246.88L323.32,247.14 M246.47,249.66L259.18,255.99 M246.47,249.66L258.12,253.18 M310.44,265.11L323.32,264.85 M246.47,262.33L258.12,258.80 M280.77,285.49L296.76,269.10 M280.77,226.50L296.76,242.89 M280.77,226.50L296.83,242.91 M237.63,293.68L225.63,291.96 M277.93,301.76L288.67,314.52 M237.63,218.31L225.63,220.03 M277.93,210.22L288.67,197.46 M283.32,278.15L283.34,287.75 M283.34,224.24L283.32,233.84 M324.24,279.25L326.81,271.98 M324.24,232.74L326.81,240.00 M200.09,272.57L183.04,270.49 M222.86,275.77L229.54,279.24 M235.44,280.14L230.80,279.63 M247.94,281.55L254.19,282.25 M254.19,282.25L274.30,284.53 M184.61,270.09L184.58,264.87 M258.13,262.64L280.28,262.64 M200.09,239.42L183.04,241.50 M222.86,236.22L229.54,232.75 M235.44,231.85L230.80,232.36 M247.94,230.44L254.19,229.73 M254.19,229.73L274.30,227.46 M184.58,247.12L184.61,241.89 M284.31,220.07L277.13,220.18 M280.28,249.35L258.13,249.35 M254.98,256.68L249.89,256.68 M326.19,234.95L321.29,234.97 M329.16,273.55L327.05,277.62 M290.93,230.60L295.17,229.77 M309.73,223.90L295.86,226.38 M310.28,226.80L296.41,229.28 M296.10,227.45L310.77,224.82 M307.37,284.23L313.42,285.60 M307.30,284.63L313.03,285.63 M317.73,284.38L303.35,281.86 M305.20,287.05L300.86,286.28 M302.13,288.77L316.50,291.29 M308.03,287.73L312.87,288.58 M308.54,284.85L313.38,285.70 M309.73,288.09L295.86,285.61 M310.28,285.19L296.41,282.71 M296.10,284.54L310.77,287.16 M290.93,281.39L295.17,282.22 M307.15,310.97L314.27,310.08 M304.36,311.38L293.08,313.00 M313.46,309.94L301.91,311.73 M314.33,311.24L296.74,313.87 M294.94,310.02L290.29,314.05 M314.27,201.91L307.15,201.01 M304.36,200.61L293.08,198.99 M311.84,200.86L303.02,199.36 M294.94,201.97L290.28,197.94 M307.81,275.33L314.54,275.31 M319.87,274.59L324.44,274.59 M317.57,263.70L312.03,263.70 M182.64,255.32L186.62,255.32 M182.64,256.67L186.62,256.67 M182.70,256.67L186.26,256.67 M202.93,246.28L195.83,246.28 M195.80,246.33L202.91,246.33 M195.13,246.33L202.91,246.33 M187.22,249.00L187.22,253.33 M187.76,249.00L187.76,253.33 M202.93,265.71L195.83,265.71 M195.80,265.67L202.91,265.67 M195.13,265.67L202.91,265.67 M187.22,262.99L187.22,258.67 M187.76,262.99L187.76,258.67 M187.71,258.35L187.71,263.31 M187.64,258.44L187.64,263.22 M187.69,258.37L187.69,263.29 M187.71,253.64L187.71,248.68 M187.64,253.55L187.64,248.77 M187.69,253.62L187.69,248.70 M191.01,266.24L187.01,264.23 M191.05,266.21L187.01,264.17 M187.03,264.17L191.03,266.19 M191.05,245.78L187.01,247.82 M191.03,245.80L187.03,247.82 M191.01,245.75L187.01,247.76 M186.39,258.47L178.52,258.47 M178.33,263.22L178.33,258.63 M187.39,263.64L191.66,265.79 M191.67,265.84L187.34,263.65 M200.74,265.86L196.31,265.86 M200.77,265.86L196.34,265.86 M200.78,265.90L196.35,265.90 M183.39,265.15L189.26,267.33 M186.39,253.52L178.52,253.52 M178.33,248.78L178.33,253.36 M187.39,248.36L191.66,246.20 M191.67,246.15L187.34,248.34 M200.74,246.13L196.31,246.13 M200.77,246.13L196.34,246.13 M200.78,246.09L196.35,246.09 M183.39,246.84L189.26,244.66 M187.94,262.56L187.94,258.02 M188.64,263.69L192.69,265.72 M187.94,253.97L187.94,249.43 M188.64,248.30L192.69,246.27 M180.96,252.63L186.69,252.63 M180.97,253.15L186.70,253.15 M180.96,259.36L186.69,259.36 M180.97,258.84L186.70,258.84 M197.41,252.09L195.47,252.09 M204.86,259.65L199.43,259.78 M197.66,259.75L196.03,258.56 M197.66,257.86L196.03,257.86 M198.09,259.64L196.36,258.46 M197.66,252.24L196.03,253.43 M192.46,258.13L192.43,253.82 M192.56,253.82L192.60,258.13 M190.96,252.01L190.96,259.98 M191.23,252.02L191.26,260.17 M193.19,260.89L194.53,260.90 M192.92,260.18L194.35,260.21 M193.53,251.49L194.79,251.45 M194.19,260.48L194.19,251.51 M194.43,260.48L194.43,251.51 M194.68,260.48L194.68,251.51 M191.36,258.90L191.36,253.09 M192.04,253.09L192.04,258.90 M192.01,258.90L192.01,253.09 M192.60,258.90L192.60,253.09 M196.82,252.22L196.82,259.76 M196.87,252.22L196.87,259.76 M195.49,252.22L195.49,259.76 M197.90,257.76L196.33,257.76 M196.28,257.76L195.40,257.76 M196.24,254.19L195.40,254.19 M192.59,254.18L192.59,254.18 M195.13,258.08L192.73,258.08 M192.52,257.88L192.52,257.88 M192.59,257.81L192.59,257.81 M199.32,251.34L199.32,260.65 M191.68,259.76L191.68,252.23 M191.23,259.76L191.23,252.23 M190.79,259.76L190.79,252.23 M328.97,236.89L325.03,238.32 M216.68,245.33L208.14,245.32 M216.68,264.58L208.14,264.59 M280.76,271.45L280.74,282.55 M268.97,271.45L268.95,282.55 M262.32,271.45L262.29,282.55 M280.76,240.54L280.74,229.44 M268.97,240.54L268.95,229.44 M262.31,240.54L262.29,229.44 M248.13,236.12L257.42,234.92 M286.79,234.80L282.65,236.24 M282.65,236.24L288.77,236.29 M213.60,222.25L211.86,224.99 M287.71,234.27L282.58,236.68 M296.72,218.67L285.25,217.76 M285.36,216.75L278.00,217.85 M278.54,217.13L271.34,218.99 M248.13,275.87L257.42,277.06 M286.79,277.18L282.65,275.75 M282.65,275.75L288.77,275.70 M213.60,289.73L211.86,286.99 M287.71,277.71L282.58,275.30 M296.72,293.32L285.25,294.23 M285.36,295.24L278.00,294.13 M278.54,294.85L271.34,293.00 M186.88,233.35L200.11,230.98 M200.11,230.98L212.47,228.75 M200.11,231.84L212.47,228.75 M201.41,226.99L209.23,225.37 M268.96,216.56L275.32,221.48 M271.31,218.43L276.11,222.14 M271.31,218.43L269.72,215.22 M276.11,222.14L269.72,215.22 M269.72,215.22L278.57,217.67 M279.26,225.55L287.82,234.74 M287.82,234.74L283.70,237.45 M276.11,222.14L288.71,232.91 M269.72,215.22L288.71,232.91 M279.26,225.55L288.71,232.91 M269.72,215.22L280.31,218.84 M288.71,232.91L280.31,218.84 M248.86,217.57L255.59,217.57 M255.59,217.57L262.31,217.65 M287.82,234.74L290.40,236.41 M283.70,237.45L290.40,236.41 M285.30,217.26L305.60,223.38 M280.31,218.84L293.62,236.39 M293.62,236.39L322.74,239.65 M322.74,239.65L293.31,237.71 M293.31,237.71L323.07,241.54 M284.33,240.51L291.30,244.74 M214.73,234.61L226.31,234.20 M214.73,234.61L246.38,233.24 M226.31,234.20L246.38,233.24 M201.41,226.99L210.28,226.39 M213.20,222.54L210.28,226.39 M213.20,222.54L202.09,225.88 M213.20,222.54L212.66,226.46 M213.20,222.54L211.70,227.23 M210.28,226.39L202.64,225.97 M201.96,230.58L186.77,234.73 M201.96,230.58L184.64,235.09 M268.94,219.73L255.76,219.00 M280.36,219.25L269.03,218.86 M287.12,219.13L311.90,218.07 M295.26,253.58L313.23,254.16 M313.23,254.16L295.26,254.10 M214.77,231.14L230.37,230.11 M214.77,231.14L208.57,231.77 M186.88,278.64L200.11,281.01 M200.11,281.01L212.47,283.24 M200.11,280.15L212.47,283.24 M201.41,284.99L209.23,286.62 M268.96,295.42L275.32,290.51 M271.31,293.56L276.11,289.84 M271.31,293.56L269.72,296.77 M276.11,289.84L269.72,296.77 M269.72,296.77L278.57,294.32 M279.26,286.43L287.82,277.25 M287.82,277.25L283.70,274.54 M276.11,289.84L288.71,279.08 M269.72,296.77L288.71,279.08 M279.26,286.43L288.71,279.08 M269.72,296.77L280.31,293.15 M288.71,279.08L280.31,293.15 M248.86,294.42L255.59,294.42 M255.59,294.42L262.31,294.34 M287.82,277.25L290.40,275.58 M283.70,274.54L290.40,275.58 M285.30,294.73L305.60,288.61 M280.31,293.15L293.62,275.59 M293.62,275.59L322.74,272.33 M322.74,272.33L293.31,274.28 M293.31,274.28L323.07,270.45 M284.33,271.48L291.30,267.25 M214.73,277.38L226.31,277.79 M214.73,277.38L246.38,278.75 M226.31,277.79L246.38,278.75 M201.41,284.99L210.28,285.60 M213.20,289.45L210.28,285.60 M213.20,289.45L202.09,286.11 M213.20,289.45L212.66,285.53 M213.20,289.45L211.70,284.76 M210.28,285.60L202.64,286.02 M201.96,281.40L186.77,277.26 M201.96,281.40L184.64,276.89 M268.94,292.26L255.76,292.99 M269.03,293.12L280.36,292.74 M287.12,292.86L311.90,293.92 M295.26,258.41L313.23,257.83 M313.23,257.83L295.26,257.89 M214.77,280.85L230.37,281.88 M214.77,280.85L208.57,280.22" stroke="currentColor" stroke-width="0.6" stroke-linecap="round" fill="none" opacity="0.55" clip-path="url(#hull-clip)" filter="url(#glow)" />
  <path d="M 291.81,315.50 C 291.56,315.51 291.42,315.54 291.19,315.50 C 290.95,315.46 290.68,315.37 290.39,315.23 C 290.10,315.10 289.77,314.92 289.42,314.70 C 289.07,314.48 288.69,314.22 288.28,313.91 C 287.87,313.60 287.43,313.24 286.97,312.84 C 286.50,312.45 286.01,312.00 285.48,311.52 C 284.96,311.03 284.41,310.50 283.83,309.92 C 283.25,309.35 282.64,308.73 282.00,308.06 C 281.36,307.40 280.67,306.61 280.00,305.94 C 279.33,305.27 278.64,304.63 277.95,304.03 C 277.26,303.43 276.57,302.87 275.86,302.34 C 275.15,301.82 274.44,301.33 273.72,300.88 C 273.00,300.42 272.27,300.01 271.53,299.62 C 270.79,299.24 270.05,298.90 269.30,298.59 C 268.54,298.29 267.78,298.02 267.02,297.78 C 266.25,297.55 265.47,297.35 264.69,297.19 C 263.90,297.03 263.14,296.93 262.31,296.81 C 261.48,296.70 260.61,296.59 259.70,296.48 C 258.79,296.38 257.85,296.29 256.86,296.20 C 255.87,296.12 254.85,296.04 253.78,295.97 C 252.72,295.90 251.61,295.84 250.47,295.78 C 249.33,295.73 248.14,295.68 246.92,295.64 C 245.70,295.60 244.44,295.57 243.14,295.55 C 241.84,295.52 240.50,295.51 239.12,295.50 C 237.75,295.49 236.21,295.51 234.88,295.50 C 233.54,295.49 232.30,295.47 231.14,295.44 C 229.98,295.41 228.91,295.36 227.92,295.31 C 226.93,295.26 226.03,295.20 225.22,295.12 C 224.40,295.05 223.67,294.97 223.03,294.88 C 222.39,294.78 221.83,294.68 221.36,294.56 C 220.89,294.45 220.50,294.32 220.20,294.19 C 219.90,294.05 219.69,293.91 219.56,293.75 C 219.43,293.59 219.58,293.44 219.44,293.25 C 219.29,293.06 219.04,292.84 218.68,292.60 C 218.32,292.36 217.86,292.10 217.29,291.80 C 216.72,291.51 216.05,291.20 215.27,290.86 C 214.49,290.52 213.60,290.15 212.61,289.77 C 211.62,289.38 210.52,288.96 209.32,288.52 C 208.12,288.08 206.81,287.62 205.40,287.13 C 203.99,286.64 202.47,286.13 200.84,285.59 C 199.22,285.06 197.28,284.46 195.66,283.91 C 194.04,283.35 192.52,282.81 191.12,282.27 C 189.71,281.74 188.42,281.21 187.23,280.70 C 186.04,280.18 184.96,279.67 183.98,279.17 C 183.01,278.67 182.15,278.18 181.39,277.70 C 180.63,277.22 179.99,276.75 179.45,276.29 C 178.90,275.83 178.47,275.37 178.15,274.93 C 177.82,274.49 177.61,274.05 177.50,273.62 C 177.39,273.20 177.52,272.78 177.50,272.38 C 177.48,271.97 177.44,271.58 177.38,271.20 C 177.31,270.83 177.23,270.46 177.12,270.11 C 177.02,269.76 176.90,269.42 176.75,269.09 C 176.60,268.77 176.44,268.46 176.25,268.16 C 176.06,267.86 175.85,267.57 175.62,267.30 C 175.40,267.02 175.15,266.76 174.88,266.52 C 174.60,266.27 174.31,266.03 174.00,265.81 C 173.69,265.59 173.31,265.42 173.00,265.19 C 172.69,264.95 172.40,264.69 172.12,264.41 C 171.85,264.12 171.60,263.81 171.38,263.47 C 171.15,263.13 170.94,262.77 170.75,262.38 C 170.56,261.98 170.40,261.57 170.25,261.12 C 170.10,260.68 169.98,260.21 169.88,259.72 C 169.77,259.22 169.69,258.70 169.62,258.16 C 169.56,257.61 169.52,257.04 169.50,256.44 C 169.48,255.84 169.48,255.16 169.50,254.56 C 169.52,253.96 169.56,253.39 169.62,252.84 C 169.69,252.30 169.77,251.78 169.88,251.28 C 169.98,250.79 170.10,250.32 170.25,249.88 C 170.40,249.43 170.56,249.02 170.75,248.62 C 170.94,248.23 171.15,247.87 171.38,247.53 C 171.60,247.19 171.85,246.88 172.12,246.59 C 172.40,246.31 172.69,246.05 173.00,245.81 C 173.31,245.58 173.69,245.41 174.00,245.19 C 174.31,244.97 174.60,244.73 174.88,244.48 C 175.15,244.24 175.40,243.98 175.62,243.70 C 175.85,243.43 176.06,243.14 176.25,242.84 C 176.44,242.54 176.60,242.23 176.75,241.91 C 176.90,241.58 177.02,241.24 177.12,240.89 C 177.23,240.54 177.31,240.17 177.38,239.80 C 177.44,239.42 177.48,239.03 177.50,238.62 C 177.52,238.22 177.39,237.80 177.50,237.38 C 177.61,236.95 177.82,236.51 178.15,236.07 C 178.47,235.63 178.90,235.17 179.45,234.71 C 179.99,234.25 180.63,233.78 181.39,233.30 C 182.15,232.82 183.01,232.33 183.98,231.83 C 184.96,231.33 186.04,230.82 187.23,230.30 C 188.42,229.79 189.71,229.26 191.12,228.73 C 192.52,228.19 194.04,227.65 195.66,227.09 C 197.28,226.54 199.22,225.94 200.84,225.41 C 202.47,224.87 203.99,224.36 205.40,223.87 C 206.81,223.38 208.12,222.92 209.32,222.48 C 210.52,222.04 211.62,221.62 212.61,221.23 C 213.60,220.85 214.49,220.48 215.27,220.14 C 216.05,219.80 216.72,219.49 217.29,219.20 C 217.86,218.90 218.32,218.64 218.68,218.40 C 219.04,218.16 219.29,217.94 219.44,217.75 C 219.58,217.56 219.49,217.41 219.56,217.25 C 219.63,217.09 219.73,216.95 219.86,216.81 C 219.99,216.68 220.14,216.55 220.33,216.44 C 220.51,216.32 220.73,216.22 220.97,216.12 C 221.21,216.03 221.48,215.95 221.78,215.88 C 222.08,215.80 222.41,215.74 222.77,215.69 C 223.12,215.64 223.51,215.59 223.92,215.56 C 224.34,215.53 224.78,215.51 225.25,215.50 C 225.72,215.49 226.17,215.51 226.75,215.50 C 227.33,215.49 227.98,215.48 228.70,215.45 C 229.43,215.43 230.23,215.40 231.11,215.36 C 231.99,215.32 232.94,215.27 233.97,215.22 C 235.00,215.16 236.10,215.10 237.28,215.03 C 238.46,214.96 239.72,214.88 241.05,214.80 C 242.38,214.71 243.78,214.62 245.27,214.52 C 246.75,214.41 248.30,214.30 249.94,214.19 C 251.57,214.07 253.42,213.97 255.06,213.81 C 256.71,213.65 258.28,213.45 259.80,213.22 C 261.31,212.98 262.76,212.71 264.14,212.41 C 265.52,212.10 266.84,211.76 268.09,211.38 C 269.35,210.99 270.53,210.58 271.66,210.12 C 272.78,209.67 273.84,209.18 274.83,208.66 C 275.82,208.13 276.75,207.57 277.61,206.97 C 278.47,206.37 279.27,205.73 280.00,205.06 C 280.73,204.39 281.31,203.59 282.00,202.94 C 282.69,202.28 283.41,201.68 284.16,201.12 C 284.90,200.57 285.67,200.07 286.47,199.62 C 287.27,199.18 288.09,198.78 288.94,198.44 C 289.79,198.09 290.66,197.80 291.56,197.56 C 292.46,197.32 293.39,197.14 294.34,197.00 C 295.30,196.86 296.28,196.78 297.28,196.75 C 298.29,196.72 299.32,196.74 300.38,196.81 C 301.43,196.89 302.60,197.06 303.62,197.19 C 304.65,197.31 305.62,197.43 306.54,197.55 C 307.45,197.68 308.31,197.80 309.12,197.91 C 309.92,198.03 310.67,198.15 311.36,198.27 C 312.05,198.38 312.69,198.50 313.27,198.61 C 313.85,198.72 314.37,198.83 314.84,198.95 C 315.30,199.06 315.71,199.17 316.07,199.27 C 316.43,199.38 316.73,199.49 316.97,199.59 C 317.21,199.70 317.35,199.76 317.53,199.91 C 317.71,200.05 317.89,200.24 318.07,200.46 C 318.25,200.69 318.42,200.95 318.59,201.26 C 318.75,201.56 318.92,201.91 319.08,202.30 C 319.24,202.68 319.39,203.11 319.55,203.58 C 319.70,204.05 319.85,204.55 319.99,205.10 C 320.14,205.65 320.28,206.24 320.41,206.87 C 320.55,207.50 320.68,208.17 320.81,208.88 C 320.94,209.58 321.06,210.41 321.19,211.12 C 321.32,211.84 321.45,212.52 321.59,213.16 C 321.73,213.80 321.88,214.40 322.03,214.97 C 322.18,215.54 322.34,216.07 322.50,216.56 C 322.66,217.06 322.83,217.52 323.00,217.94 C 323.17,218.36 323.35,218.74 323.53,219.09 C 323.71,219.44 323.90,219.76 324.09,220.03 C 324.29,220.31 324.48,220.55 324.69,220.75 C 324.89,220.95 325.11,221.08 325.31,221.25 C 325.52,221.42 325.71,221.60 325.91,221.78 C 326.10,221.96 326.29,222.15 326.47,222.34 C 326.65,222.54 326.83,222.73 327.00,222.94 C 327.17,223.14 327.34,223.35 327.50,223.56 C 327.66,223.78 327.82,223.99 327.97,224.22 C 328.12,224.44 328.27,224.67 328.41,224.91 C 328.55,225.14 328.68,225.38 328.81,225.62 C 328.94,225.87 329.07,226.11 329.19,226.38 C 329.31,226.64 329.42,226.93 329.53,227.23 C 329.64,227.54 329.74,227.86 329.84,228.20 C 329.94,228.54 330.04,228.90 330.12,229.28 C 330.21,229.66 330.30,230.05 330.38,230.47 C 330.45,230.88 330.53,231.32 330.59,231.77 C 330.66,232.22 330.72,232.68 330.78,233.17 C 330.84,233.66 330.89,234.16 330.94,234.69 C 330.98,235.21 331.01,235.80 331.06,236.31 C 331.11,236.82 331.18,237.30 331.25,237.75 C 331.32,238.20 331.41,238.61 331.50,239.00 C 331.59,239.39 331.70,239.74 331.81,240.06 C 331.93,240.39 332.05,240.68 332.19,240.94 C 332.32,241.20 332.47,241.43 332.62,241.62 C 332.78,241.82 332.95,241.99 333.12,242.12 C 333.30,242.26 333.49,242.36 333.69,242.44 C 333.89,242.51 334.12,242.52 334.31,242.56 C 334.51,242.61 334.69,242.65 334.86,242.70 C 335.03,242.75 335.18,242.80 335.33,242.86 C 335.47,242.91 335.60,242.97 335.72,243.03 C 335.84,243.09 335.94,243.15 336.03,243.22 C 336.12,243.28 336.20,243.35 336.27,243.42 C 336.33,243.49 336.38,243.57 336.42,243.64 C 336.46,243.72 336.49,243.79 336.50,243.88 C 336.51,243.96 336.51,244.04 336.50,244.12 C 336.49,244.21 336.48,244.28 336.45,244.36 C 336.43,244.43 336.40,244.51 336.36,244.58 C 336.32,244.65 336.27,244.72 336.22,244.78 C 336.16,244.85 336.10,244.91 336.03,244.97 C 335.96,245.03 335.88,245.09 335.80,245.14 C 335.71,245.20 335.62,245.25 335.52,245.30 C 335.41,245.35 335.30,245.39 335.19,245.44 C 335.07,245.48 334.93,245.51 334.81,245.56 C 334.69,245.61 334.58,245.68 334.47,245.75 C 334.36,245.82 334.26,245.91 334.16,246.00 C 334.06,246.09 333.96,246.20 333.88,246.31 C 333.79,246.43 333.70,246.55 333.62,246.69 C 333.55,246.82 333.47,246.97 333.41,247.12 C 333.34,247.28 333.28,247.45 333.22,247.62 C 333.16,247.80 333.11,247.99 333.06,248.19 C 333.02,248.39 332.98,248.59 332.94,248.81 C 332.90,249.03 332.86,249.26 332.83,249.50 C 332.79,249.74 332.76,249.99 332.73,250.25 C 332.71,250.51 332.68,250.78 332.66,251.06 C 332.63,251.34 332.61,251.64 332.59,251.94 C 332.58,252.24 332.56,252.55 332.55,252.88 C 332.53,253.20 332.52,253.53 332.52,253.88 C 332.51,254.22 332.50,254.57 332.50,254.94 C 332.50,255.30 332.49,255.69 332.50,256.06 C 332.51,256.43 332.53,256.80 332.56,257.16 C 332.59,257.52 332.64,257.87 332.69,258.22 C 332.74,258.57 332.80,258.91 332.88,259.25 C 332.95,259.59 333.03,259.92 333.12,260.25 C 333.22,260.58 333.32,260.90 333.44,261.22 C 333.55,261.54 333.68,261.85 333.81,262.16 C 333.95,262.46 334.09,262.77 334.25,263.06 C 334.41,263.36 334.61,263.66 334.75,263.94 C 334.89,264.22 335.01,264.48 335.11,264.73 C 335.21,264.99 335.28,265.23 335.33,265.45 C 335.38,265.68 335.40,265.89 335.41,266.09 C 335.41,266.29 335.39,266.48 335.34,266.66 C 335.30,266.83 335.23,266.99 335.14,267.14 C 335.05,267.29 334.93,267.42 334.80,267.55 C 334.66,267.67 334.50,267.78 334.31,267.88 C 334.13,267.97 333.89,268.01 333.69,268.12 C 333.49,268.24 333.30,268.38 333.12,268.55 C 332.95,268.72 332.78,268.91 332.62,269.14 C 332.47,269.37 332.32,269.62 332.19,269.91 C 332.05,270.19 331.93,270.50 331.81,270.84 C 331.70,271.18 331.59,271.55 331.50,271.95 C 331.41,272.35 331.32,272.78 331.25,273.23 C 331.18,273.69 331.11,274.17 331.06,274.69 C 331.01,275.20 330.98,275.79 330.94,276.31 C 330.89,276.84 330.84,277.34 330.78,277.83 C 330.72,278.32 330.66,278.78 330.59,279.23 C 330.53,279.68 330.45,280.12 330.38,280.53 C 330.30,280.95 330.21,281.34 330.12,281.72 C 330.04,282.10 329.94,282.46 329.84,282.80 C 329.74,283.14 329.64,283.46 329.53,283.77 C 329.42,284.07 329.31,284.36 329.19,284.62 C 329.07,284.89 328.94,285.13 328.81,285.38 C 328.68,285.62 328.55,285.86 328.41,286.09 C 328.27,286.33 328.12,286.56 327.97,286.78 C 327.82,287.01 327.66,287.22 327.50,287.44 C 327.34,287.65 327.17,287.86 327.00,288.06 C 326.83,288.27 326.65,288.46 326.47,288.66 C 326.29,288.85 326.10,289.04 325.91,289.22 C 325.71,289.40 325.52,289.58 325.31,289.75 C 325.11,289.92 324.89,290.05 324.69,290.25 C 324.48,290.45 324.29,290.69 324.09,290.97 C 323.90,291.24 323.71,291.56 323.53,291.91 C 323.35,292.26 323.17,292.64 323.00,293.06 C 322.83,293.48 322.66,293.94 322.50,294.44 C 322.34,294.93 322.18,295.46 322.03,296.03 C 321.88,296.60 321.73,297.20 321.59,297.84 C 321.45,298.48 321.32,299.16 321.19,299.88 C 321.06,300.59 320.94,301.42 320.81,302.12 C 320.68,302.83 320.55,303.50 320.41,304.13 C 320.28,304.76 320.14,305.35 319.99,305.90 C 319.85,306.45 319.70,306.95 319.55,307.42 C 319.39,307.89 319.24,308.32 319.08,308.70 C 318.92,309.09 318.75,309.44 318.59,309.74 C 318.42,310.05 318.25,310.31 318.07,310.54 C 317.89,310.76 317.71,310.95 317.53,311.09 C 317.35,311.24 317.20,311.30 316.97,311.41 C 316.74,311.51 316.46,311.62 316.15,311.73 C 315.83,311.83 315.47,311.94 315.07,312.05 C 314.67,312.17 314.22,312.28 313.73,312.39 C 313.25,312.50 312.71,312.62 312.14,312.73 C 311.57,312.85 310.95,312.97 310.29,313.09 C 309.63,313.20 308.93,313.32 308.18,313.45 C 307.43,313.57 306.64,313.69 305.81,313.81 C 304.98,313.94 304.02,314.07 303.19,314.19 C 302.35,314.30 301.56,314.41 300.81,314.52 C 300.06,314.62 299.35,314.71 298.69,314.80 C 298.02,314.88 297.40,314.96 296.81,315.03 C 296.23,315.10 295.69,315.16 295.19,315.22 C 294.69,315.27 294.23,315.32 293.81,315.36 C 293.40,315.40 293.02,315.43 292.69,315.45 C 292.35,315.48 292.06,315.49 291.81,315.50 Z" fill="none" stroke="currentColor" stroke-width="1.5" stroke-linejoin="round" stroke-linecap="round" filter="url(#glow)" />
</svg>