<svg xmlns="http://www.w3.org/2000/svg" width="512" height="512" viewBox="151.49 102.79 253.40 252.10" preserveAspectRatio="xMidYMid meet">
  <defs>
    <filter id="glow" x="-30%" y="-30%" width="160%" height="160%">
      <feGaussianBlur in="SourceGraphic" stdDeviation="2.4" result="blur" />
      <feMerge>
        <feMergeNode in="blur" />
        <feMergeNode in="SourceGraphic" />
      </feMerge>
    </filter>
    <clipPath id="hull-clip">
      <path d="M 285.91,333.84 C 285.79,333.81 285.72,333.80 285.59,333.66 C 285.47,333.52 285.33,333.30 285.16,333.01 C 285.00,332.71 284.82,332.35 284.62,331.90 C 284.42,331.45 284.19,330.93 283.95,330.33 C 283.71,329.73 283.45,329.05 283.17,328.30 C 282.89,327.54 282.59,326.71 282.27,325.80 C 281.95,324.90 281.62,323.91 281.26,322.85 C 280.90,321.79 280.52,320.65 280.12,319.44 C 279.73,318.22 279.32,316.78 278.88,315.56 C 278.43,314.35 277.97,313.21 277.48,312.15 C 276.99,311.09 276.47,310.10 275.93,309.20 C 275.39,308.29 274.82,307.46 274.23,306.70 C 273.64,305.95 273.03,305.27 272.39,304.67 C 271.75,304.07 271.09,303.55 270.40,303.10 C 269.71,302.65 269.00,302.29 268.26,301.99 C 267.52,301.70 266.76,301.48 265.97,301.34 C 265.18,301.20 264.30,301.22 263.53,301.16 C 262.77,301.09 262.05,301.03 261.38,300.97 C 260.70,300.91 260.08,300.84 259.50,300.78 C 258.92,300.72 258.39,300.66 257.91,300.59 C 257.42,300.53 256.98,300.47 256.59,300.41 C 256.20,300.34 255.86,300.28 255.56,300.22 C 255.27,300.16 255.02,300.09 254.81,300.03 C 254.61,299.97 254.45,299.91 254.34,299.84 C 254.23,299.78 254.21,299.72 254.16,299.66 C 254.10,299.59 254.05,299.53 254.02,299.47 C 253.98,299.41 253.95,299.34 253.92,299.28 C 253.90,299.22 253.88,299.16 253.88,299.09 C 253.87,299.03 253.87,298.97 253.88,298.91 C 253.88,298.84 253.90,298.78 253.92,298.72 C 253.95,298.66 253.98,298.59 254.02,298.53 C 254.05,298.47 254.10,298.41 254.16,298.34 C 254.21,298.28 254.24,298.21 254.34,298.16 C 254.44,298.10 254.58,298.04 254.76,297.99 C 254.93,297.94 255.15,297.89 255.40,297.85 C 255.65,297.81 255.94,297.77 256.27,297.73 C 256.59,297.70 256.96,297.67 257.36,297.64 C 257.76,297.61 258.20,297.59 258.68,297.57 C 259.16,297.55 259.67,297.54 260.23,297.52 C 260.78,297.51 261.37,297.50 262.00,297.50 C 262.63,297.50 263.37,297.50 264.00,297.50 C 264.63,297.50 265.22,297.49 265.77,297.48 C 266.33,297.46 266.84,297.45 267.32,297.43 C 267.80,297.41 268.24,297.39 268.64,297.36 C 269.04,297.33 269.41,297.30 269.73,297.27 C 270.06,297.23 270.35,297.19 270.60,297.15 C 270.85,297.11 271.07,297.06 271.24,297.01 C 271.42,296.96 271.56,296.90 271.66,296.84 C 271.76,296.79 271.83,296.82 271.84,296.66 C 271.86,296.50 271.83,296.24 271.75,295.89 C 271.67,295.54 271.55,295.09 271.38,294.55 C 271.20,294.00 270.98,293.36 270.72,292.62 C 270.45,291.89 270.14,291.05 269.78,290.12 C 269.42,289.20 269.02,288.17 268.56,287.05 C 268.11,285.92 267.61,284.71 267.06,283.39 C 266.52,282.08 265.92,280.66 265.28,279.16 C 264.64,277.65 263.88,275.84 263.22,274.34 C 262.56,272.85 261.93,271.46 261.32,270.18 C 260.71,268.90 260.14,267.73 259.59,266.66 C 259.04,265.60 258.51,264.64 258.02,263.80 C 257.52,262.95 257.05,262.21 256.61,261.58 C 256.17,260.95 255.75,260.42 255.37,260.01 C 254.98,259.59 254.62,259.29 254.29,259.09 C 253.96,258.89 253.65,258.80 253.38,258.81 C 253.10,258.83 252.86,259.08 252.62,259.19 C 252.39,259.29 252.16,259.38 251.95,259.44 C 251.74,259.50 251.54,259.54 251.36,259.56 C 251.17,259.58 251.00,259.58 250.84,259.56 C 250.68,259.54 250.54,259.50 250.41,259.44 C 250.27,259.38 250.15,259.29 250.05,259.19 C 249.94,259.08 249.85,258.96 249.77,258.81 C 249.68,258.67 249.62,258.50 249.56,258.31 C 249.51,258.12 249.53,257.89 249.44,257.69 C 249.35,257.49 249.21,257.29 249.03,257.11 C 248.85,256.92 248.62,256.75 248.34,256.58 C 248.07,256.41 247.74,256.25 247.38,256.09 C 247.01,255.94 246.59,255.79 246.12,255.66 C 245.66,255.52 245.15,255.39 244.59,255.27 C 244.04,255.14 243.43,255.03 242.78,254.92 C 242.13,254.82 241.43,254.72 240.69,254.62 C 239.94,254.53 239.08,254.49 238.31,254.38 C 237.55,254.26 236.80,254.12 236.09,253.95 C 235.37,253.77 234.68,253.57 234.01,253.34 C 233.34,253.10 232.70,252.84 232.08,252.55 C 231.46,252.25 230.87,251.93 230.30,251.58 C 229.73,251.23 229.18,250.84 228.66,250.43 C 228.14,250.02 227.65,249.57 227.18,249.10 C 226.71,248.63 226.26,248.13 225.84,247.59 C 225.42,247.06 225.03,246.44 224.66,245.91 C 224.29,245.38 223.94,244.88 223.62,244.41 C 223.31,243.94 223.02,243.50 222.75,243.09 C 222.48,242.69 222.24,242.31 222.03,241.97 C 221.82,241.62 221.63,241.31 221.47,241.03 C 221.31,240.75 221.17,240.50 221.06,240.28 C 220.95,240.06 220.87,239.88 220.81,239.72 C 220.76,239.56 220.72,239.44 220.72,239.34 C 220.71,239.25 220.79,239.21 220.78,239.16 C 220.77,239.10 220.74,239.04 220.68,238.99 C 220.62,238.94 220.53,238.89 220.41,238.85 C 220.30,238.81 220.15,238.77 219.98,238.73 C 219.81,238.70 219.62,238.67 219.39,238.64 C 219.17,238.61 218.91,238.59 218.63,238.57 C 218.35,238.55 218.05,238.54 217.71,238.52 C 217.38,238.51 217.01,238.50 216.62,238.50 C 216.24,238.50 215.77,238.49 215.38,238.50 C 214.98,238.51 214.60,238.52 214.25,238.55 C 213.90,238.57 213.56,238.60 213.25,238.64 C 212.94,238.68 212.65,238.73 212.38,238.78 C 212.10,238.84 211.85,238.90 211.62,238.97 C 211.40,239.04 211.19,239.12 211.00,239.20 C 210.81,239.29 210.65,239.38 210.50,239.48 C 210.35,239.59 210.23,239.70 210.12,239.81 C 210.02,239.93 209.98,240.08 209.88,240.19 C 209.77,240.30 209.63,240.39 209.47,240.47 C 209.31,240.55 209.12,240.61 208.91,240.66 C 208.69,240.70 208.45,240.73 208.19,240.75 C 207.92,240.77 207.63,240.77 207.31,240.75 C 206.99,240.73 206.65,240.70 206.28,240.66 C 205.91,240.61 205.52,240.55 205.09,240.47 C 204.67,240.39 204.22,240.30 203.75,240.19 C 203.28,240.08 202.75,239.93 202.25,239.81 C 201.75,239.70 201.25,239.59 200.75,239.48 C 200.25,239.38 199.75,239.29 199.25,239.20 C 198.75,239.12 198.25,239.04 197.75,238.97 C 197.25,238.90 196.75,238.84 196.25,238.78 C 195.75,238.73 195.25,238.68 194.75,238.64 C 194.25,238.60 193.75,238.57 193.25,238.55 C 192.75,238.52 192.25,238.51 191.75,238.50 C 191.25,238.49 190.73,238.50 190.25,238.50 C 189.77,238.50 189.32,238.49 188.90,238.48 C 188.47,238.46 188.07,238.45 187.70,238.43 C 187.32,238.41 186.97,238.39 186.64,238.36 C 186.31,238.33 186.01,238.30 185.73,238.27 C 185.46,238.23 185.20,238.19 184.98,238.15 C 184.75,238.11 184.55,238.06 184.37,238.01 C 184.19,237.96 184.04,237.90 183.91,237.84 C 183.78,237.79 183.69,237.72 183.59,237.66 C 183.50,237.59 183.41,237.52 183.33,237.45 C 183.25,237.38 183.17,237.31 183.11,237.23 C 183.04,237.16 182.99,237.08 182.94,237.00 C 182.89,236.92 182.85,236.84 182.81,236.75 C 182.78,236.66 182.75,236.58 182.73,236.48 C 182.72,236.39 182.71,236.30 182.70,236.20 C 182.70,236.11 182.71,236.01 182.72,235.91 C 182.73,235.80 182.79,235.70 182.78,235.59 C 182.77,235.49 182.74,235.39 182.67,235.28 C 182.61,235.18 182.51,235.07 182.39,234.97 C 182.27,234.86 182.12,234.76 181.94,234.66 C 181.76,234.55 181.55,234.45 181.31,234.34 C 181.08,234.24 180.81,234.14 180.52,234.03 C 180.22,233.93 179.90,233.82 179.55,233.72 C 179.20,233.61 178.82,233.51 178.41,233.41 C 178.00,233.30 177.50,233.21 177.09,233.09 C 176.68,232.97 176.30,232.83 175.95,232.68 C 175.59,232.52 175.26,232.35 174.96,232.16 C 174.66,231.98 174.39,231.77 174.14,231.55 C 173.89,231.32 173.68,231.08 173.48,230.83 C 173.29,230.57 173.13,230.30 172.99,230.01 C 172.86,229.72 172.75,229.41 172.66,229.09 C 172.58,228.76 172.53,228.42 172.50,228.06 C 172.47,227.70 172.48,227.30 172.50,226.94 C 172.52,226.58 172.57,226.24 172.65,225.91 C 172.72,225.59 172.82,225.28 172.95,224.99 C 173.07,224.70 173.22,224.43 173.39,224.17 C 173.56,223.92 173.76,223.68 173.98,223.45 C 174.21,223.23 174.45,223.02 174.73,222.84 C 175.00,222.65 175.30,222.48 175.62,222.32 C 175.94,222.17 176.29,222.03 176.66,221.91 C 177.03,221.79 177.47,221.70 177.84,221.59 C 178.21,221.49 178.56,221.38 178.88,221.27 C 179.20,221.17 179.50,221.06 179.77,220.95 C 180.05,220.83 180.29,220.72 180.52,220.61 C 180.74,220.50 180.94,220.38 181.11,220.27 C 181.28,220.15 181.43,220.03 181.55,219.91 C 181.68,219.80 181.78,219.68 181.85,219.55 C 181.93,219.43 181.98,219.31 182.00,219.19 C 182.02,219.06 181.98,218.93 182.00,218.81 C 182.02,218.69 182.05,218.57 182.11,218.45 C 182.16,218.34 182.24,218.22 182.33,218.11 C 182.42,218.00 182.53,217.89 182.66,217.78 C 182.78,217.67 182.93,217.57 183.09,217.47 C 183.26,217.37 183.44,217.27 183.64,217.17 C 183.84,217.08 184.06,216.98 184.30,216.89 C 184.53,216.80 184.79,216.71 185.06,216.62 C 185.34,216.54 185.63,216.45 185.94,216.38 C 186.24,216.30 186.57,216.22 186.91,216.16 C 187.24,216.09 187.60,216.03 187.97,215.97 C 188.34,215.91 188.72,215.86 189.12,215.81 C 189.53,215.77 189.94,215.72 190.38,215.69 C 190.81,215.65 191.26,215.62 191.72,215.59 C 192.18,215.57 192.66,215.55 193.16,215.53 C 193.65,215.52 194.16,215.51 194.69,215.50 C 195.21,215.49 195.79,215.51 196.31,215.50 C 196.84,215.49 197.35,215.48 197.84,215.47 C 198.34,215.45 198.82,215.43 199.28,215.41 C 199.74,215.38 200.19,215.35 200.62,215.31 C 201.06,215.28 201.47,215.23 201.88,215.19 C 202.28,215.14 202.66,215.09 203.03,215.03 C 203.40,214.97 203.76,214.91 204.09,214.84 C 204.43,214.78 204.76,214.70 205.06,214.62 C 205.37,214.55 205.66,214.45 205.94,214.38 C 206.22,214.30 206.48,214.25 206.73,214.20 C 206.99,214.16 207.23,214.13 207.45,214.11 C 207.68,214.09 207.89,214.09 208.09,214.09 C 208.29,214.10 208.48,214.12 208.66,214.16 C 208.83,214.19 208.99,214.24 209.14,214.30 C 209.29,214.36 209.42,214.43 209.55,214.52 C 209.67,214.60 209.78,214.70 209.88,214.81 C 209.97,214.92 210.02,215.07 210.12,215.19 C 210.23,215.30 210.35,215.41 210.48,215.52 C 210.62,215.62 210.78,215.71 210.95,215.80 C 211.13,215.88 211.32,215.96 211.53,216.03 C 211.74,216.10 211.97,216.16 212.22,216.22 C 212.47,216.27 212.73,216.32 213.02,216.36 C 213.30,216.40 213.60,216.43 213.92,216.45 C 214.24,216.48 214.58,216.49 214.94,216.50 C 215.29,216.51 215.68,216.54 216.06,216.50 C 216.44,216.46 216.82,216.38 217.20,216.27 C 217.59,216.15 217.97,215.99 218.36,215.80 C 218.75,215.60 219.14,215.37 219.53,215.09 C 219.92,214.82 220.32,214.51 220.72,214.16 C 221.12,213.80 221.52,213.41 221.92,212.98 C 222.33,212.55 222.73,212.09 223.14,211.58 C 223.55,211.07 223.96,210.52 224.38,209.94 C 224.79,209.35 225.18,208.65 225.62,208.06 C 226.07,207.47 226.53,206.91 227.02,206.39 C 227.50,205.87 228.01,205.38 228.55,204.92 C 229.08,204.47 229.64,204.04 230.22,203.66 C 230.80,203.27 231.40,202.91 232.03,202.59 C 232.66,202.27 233.31,201.99 233.98,201.73 C 234.66,201.48 235.36,201.26 236.08,201.08 C 236.80,200.89 237.54,200.74 238.31,200.62 C 239.08,200.51 239.94,200.47 240.69,200.38 C 241.43,200.28 242.13,200.18 242.78,200.06 C 243.43,199.95 244.04,199.82 244.59,199.69 C 245.15,199.55 245.66,199.41 246.12,199.25 C 246.59,199.09 247.01,198.93 247.38,198.75 C 247.74,198.57 248.07,198.39 248.34,198.19 C 248.62,197.99 248.85,197.78 249.03,197.56 C 249.21,197.34 249.35,197.11 249.44,196.88 C 249.53,196.64 249.51,196.35 249.56,196.12 C 249.62,195.90 249.68,195.70 249.77,195.53 C 249.85,195.36 249.94,195.21 250.05,195.09 C 250.15,194.97 250.27,194.88 250.41,194.81 C 250.54,194.74 250.68,194.70 250.84,194.69 C 251.00,194.67 251.17,194.68 251.36,194.72 C 251.54,194.76 251.74,194.82 251.95,194.91 C 252.16,194.99 252.39,195.11 252.62,195.25 C 252.86,195.39 253.10,195.69 253.38,195.75 C 253.65,195.81 253.96,195.75 254.29,195.59 C 254.62,195.42 254.98,195.14 255.37,194.76 C 255.75,194.37 256.17,193.87 256.61,193.27 C 257.05,192.66 257.52,191.94 258.02,191.11 C 258.51,190.28 259.04,189.34 259.59,188.29 C 260.14,187.24 260.71,186.08 261.32,184.80 C 261.93,183.53 262.56,182.15 263.22,180.66 C 263.88,179.16 264.64,177.35 265.28,175.84 C 265.92,174.34 266.52,172.92 267.06,171.61 C 267.61,170.29 268.11,169.08 268.56,167.95 C 269.02,166.83 269.42,165.80 269.78,164.88 C 270.14,163.95 270.45,163.11 270.72,162.38 C 270.98,161.64 271.20,161.00 271.38,160.45 C 271.55,159.91 271.67,159.46 271.75,159.11 C 271.83,158.76 271.86,158.50 271.84,158.34 C 271.83,158.18 271.76,158.21 271.66,158.16 C 271.56,158.10 271.42,158.04 271.24,157.99 C 271.07,157.94 270.85,157.89 270.60,157.85 C 270.35,157.81 270.06,157.77 269.73,157.73 C 269.41,157.70 269.04,157.67 268.64,157.64 C 268.24,157.61 267.80,157.59 267.32,157.57 C 266.84,157.55 266.33,157.54 265.77,157.52 C 265.22,157.51 264.63,157.50 264.00,157.50 C 263.37,157.50 262.63,157.50 262.00,157.50 C 261.37,157.50 260.78,157.49 260.23,157.48 C 259.67,157.46 259.16,157.45 258.68,157.43 C 258.20,157.41 257.76,157.39 257.36,157.36 C 256.96,157.33 256.59,157.30 256.27,157.27 C 255.94,157.23 255.65,157.19 255.40,157.15 C 255.15,157.11 254.93,157.06 254.76,157.01 C 254.58,156.96 254.44,156.90 254.34,156.84 C 254.24,156.79 254.21,156.72 254.16,156.66 C 254.10,156.59 254.05,156.53 254.02,156.47 C 253.98,156.41 253.95,156.34 253.92,156.28 C 253.90,156.22 253.88,156.16 253.88,156.09 C 253.87,156.03 253.87,155.97 253.88,155.91 C 253.88,155.84 253.90,155.78 253.92,155.72 C 253.95,155.66 253.98,155.59 254.02,155.53 C 254.05,155.47 254.10,155.41 254.16,155.34 C 254.21,155.28 254.23,155.22 254.34,155.16 C 254.45,155.09 254.61,155.03 254.81,154.97 C 255.02,154.91 255.27,154.84 255.56,154.78 C 255.86,154.72 256.20,154.66 256.59,154.59 C 256.98,154.53 257.42,154.47 257.91,154.41 C 258.39,154.34 258.92,154.28 259.50,154.22 C 260.08,154.16 260.70,154.09 261.38,154.03 C 262.05,153.97 262.77,153.91 263.53,153.84 C 264.30,153.78 265.18,153.80 265.97,153.66 C 266.76,153.51 267.53,153.29 268.28,152.98 C 269.03,152.68 269.76,152.29 270.47,151.83 C 271.18,151.36 271.86,150.82 272.53,150.19 C 273.20,149.56 273.84,148.85 274.47,148.06 C 275.09,147.27 275.70,146.40 276.28,145.45 C 276.86,144.50 277.43,143.47 277.97,142.36 C 278.51,141.25 279.03,140.05 279.53,138.78 C 280.03,137.51 280.49,135.97 280.97,134.72 C 281.44,133.47 281.91,132.33 282.38,131.30 C 282.84,130.26 283.30,129.34 283.75,128.52 C 284.20,127.70 284.65,126.98 285.09,126.38 C 285.54,125.77 285.97,125.27 286.41,124.88 C 286.84,124.48 287.27,124.20 287.69,124.02 C 288.11,123.84 288.53,123.76 288.94,123.80 C 289.35,123.83 289.76,123.97 290.16,124.22 C 290.56,124.47 290.98,124.90 291.34,125.28 C 291.71,125.66 292.05,126.07 292.36,126.50 C 292.67,126.93 292.95,127.39 293.20,127.88 C 293.46,128.36 293.68,128.87 293.88,129.41 C 294.07,129.94 294.24,130.51 294.38,131.09 C 294.51,131.68 294.62,132.30 294.70,132.94 C 294.78,133.58 294.84,134.24 294.86,134.94 C 294.88,135.63 294.88,136.35 294.84,137.09 C 294.81,137.84 294.72,138.62 294.66,139.41 C 294.60,140.19 294.54,140.99 294.48,141.80 C 294.43,142.61 294.38,143.43 294.33,144.27 C 294.28,145.10 294.23,145.95 294.19,146.81 C 294.14,147.67 294.10,148.55 294.06,149.44 C 294.02,150.33 293.99,151.23 293.95,152.14 C 293.92,153.05 293.89,153.98 293.86,154.92 C 293.83,155.86 293.80,156.82 293.78,157.78 C 293.76,158.75 293.74,159.78 293.72,160.72 C 293.69,161.65 293.67,162.55 293.63,163.40 C 293.60,164.25 293.56,165.06 293.52,165.82 C 293.48,166.58 293.44,167.31 293.39,167.98 C 293.34,168.66 293.29,169.30 293.23,169.89 C 293.18,170.48 293.12,171.03 293.05,171.54 C 292.99,172.05 292.92,172.51 292.85,172.93 C 292.78,173.35 292.70,173.73 292.62,174.06 C 292.55,174.40 292.45,174.67 292.38,174.94 C 292.30,175.21 292.24,175.46 292.20,175.70 C 292.15,175.93 292.11,176.14 292.09,176.34 C 292.06,176.53 292.05,176.70 292.05,176.86 C 292.05,177.01 292.06,177.15 292.08,177.27 C 292.10,177.38 292.13,177.48 292.18,177.55 C 292.23,177.63 292.28,177.69 292.35,177.73 C 292.42,177.76 292.50,177.78 292.59,177.78 C 292.69,177.78 292.79,177.76 292.91,177.72 C 293.02,177.68 293.16,177.61 293.30,177.52 C 293.45,177.44 293.61,177.33 293.79,177.20 C 293.96,177.06 294.15,176.91 294.36,176.73 C 294.56,176.56 294.78,176.36 295.02,176.14 C 295.25,175.92 295.50,175.68 295.76,175.41 C 296.02,175.15 296.30,174.86 296.59,174.55 C 296.88,174.25 297.18,173.92 297.50,173.56 C 297.82,173.21 298.17,172.79 298.50,172.44 C 298.83,172.08 299.16,171.75 299.48,171.44 C 299.81,171.12 300.13,170.83 300.45,170.56 C 300.77,170.29 301.09,170.04 301.41,169.81 C 301.72,169.58 302.03,169.38 302.34,169.19 C 302.65,169.00 302.96,168.83 303.27,168.69 C 303.57,168.54 303.87,168.42 304.17,168.31 C 304.47,168.21 304.77,168.12 305.06,168.06 C 305.36,168.00 305.65,167.97 305.94,167.94 C 306.22,167.90 306.50,167.88 306.77,167.87 C 307.05,167.85 307.31,167.85 307.57,167.85 C 307.83,167.86 308.08,167.87 308.33,167.89 C 308.57,167.91 308.81,167.94 309.05,167.98 C 309.28,168.02 309.51,168.07 309.73,168.13 C 309.95,168.19 310.16,168.26 310.37,168.34 C 310.57,168.41 310.77,168.50 310.97,168.59 C 311.16,168.69 311.39,168.74 311.53,168.91 C 311.67,169.07 311.77,169.30 311.81,169.59 C 311.86,169.89 311.86,170.24 311.81,170.66 C 311.77,171.07 311.67,171.55 311.53,172.09 C 311.39,172.64 311.20,173.24 310.97,173.91 C 310.73,174.57 310.45,175.30 310.12,176.09 C 309.80,176.89 309.42,177.74 309.00,178.66 C 308.58,179.57 308.11,180.55 307.59,181.59 C 307.08,182.64 306.38,183.87 305.91,184.91 C 305.43,185.94 305.04,186.92 304.74,187.82 C 304.44,188.73 304.23,189.56 304.10,190.34 C 303.98,191.11 303.94,191.81 303.98,192.45 C 304.03,193.09 304.17,193.67 304.39,194.17 C 304.61,194.68 304.92,195.12 305.32,195.49 C 305.72,195.87 306.20,196.17 306.77,196.41 C 307.35,196.65 308.00,196.83 308.75,196.94 C 309.50,197.05 310.36,197.03 311.25,197.06 C 312.14,197.09 313.08,197.11 314.08,197.12 C 315.08,197.14 316.13,197.14 317.23,197.12 C 318.34,197.11 319.50,197.09 320.72,197.06 C 321.93,197.03 323.21,196.99 324.53,196.94 C 325.86,196.89 327.24,196.82 328.67,196.75 C 330.11,196.68 331.60,196.59 333.14,196.50 C 334.68,196.41 336.28,196.30 337.94,196.19 C 339.59,196.07 341.45,195.93 343.06,195.81 C 344.68,195.69 346.21,195.58 347.64,195.47 C 349.08,195.36 350.42,195.26 351.67,195.16 C 352.92,195.06 354.09,194.96 355.16,194.88 C 356.23,194.79 357.21,194.70 358.09,194.62 C 358.98,194.55 359.78,194.47 360.48,194.41 C 361.19,194.34 361.80,194.28 362.33,194.22 C 362.85,194.16 363.28,194.11 363.62,194.06 C 363.97,194.02 364.13,193.99 364.38,193.94 C 364.62,193.89 364.85,193.82 365.08,193.75 C 365.30,193.68 365.52,193.59 365.73,193.50 C 365.95,193.41 366.15,193.30 366.34,193.19 C 366.54,193.07 366.73,192.95 366.91,192.81 C 367.09,192.68 367.26,192.53 367.42,192.38 C 367.59,192.22 367.74,192.05 367.89,191.88 C 368.04,191.70 368.18,191.51 368.31,191.31 C 368.45,191.11 368.56,190.88 368.69,190.69 C 368.82,190.49 368.95,190.31 369.08,190.14 C 369.21,189.97 369.35,189.82 369.48,189.67 C 369.62,189.53 369.76,189.40 369.91,189.28 C 370.05,189.16 370.20,189.06 370.34,188.97 C 370.49,188.88 370.64,188.80 370.80,188.73 C 370.95,188.67 371.11,188.62 371.27,188.58 C 371.42,188.54 371.59,188.51 371.75,188.50 C 371.91,188.49 372.09,188.49 372.25,188.50 C 372.41,188.51 372.57,188.53 372.72,188.56 C 372.87,188.59 373.02,188.64 373.16,188.69 C 373.30,188.74 373.43,188.80 373.56,188.88 C 373.69,188.95 373.82,189.03 373.94,189.12 C 374.06,189.22 374.17,189.32 374.28,189.44 C 374.39,189.55 374.49,189.68 374.59,189.81 C 374.69,189.95 374.79,190.09 374.88,190.25 C 374.96,190.41 375.02,190.59 375.12,190.75 C 375.23,190.91 375.34,191.06 375.48,191.20 C 375.61,191.33 375.76,191.46 375.93,191.59 C 376.10,191.71 376.28,191.82 376.48,191.92 C 376.69,192.02 376.90,192.12 377.14,192.20 C 377.38,192.29 377.63,192.36 377.90,192.43 C 378.17,192.50 378.45,192.55 378.76,192.60 C 379.06,192.65 379.38,192.69 379.72,192.72 C 380.06,192.75 380.45,192.75 380.78,192.78 C 381.11,192.81 381.41,192.85 381.69,192.91 C 381.96,192.96 382.21,193.02 382.44,193.09 C 382.66,193.17 382.86,193.25 383.03,193.34 C 383.20,193.44 383.35,193.54 383.47,193.66 C 383.59,193.77 383.68,193.90 383.75,194.03 C 383.82,194.17 383.86,194.31 383.88,194.47 C 383.89,194.62 383.88,194.79 383.84,194.97 C 383.81,195.15 383.74,195.34 383.66,195.53 C 383.57,195.72 383.46,195.91 383.34,196.10 C 383.21,196.29 383.06,196.49 382.88,196.68 C 382.71,196.87 382.51,197.07 382.30,197.27 C 382.08,197.46 381.84,197.66 381.58,197.86 C 381.32,198.06 381.03,198.26 380.73,198.46 C 380.42,198.66 380.09,198.87 379.74,199.07 C 379.39,199.27 379.02,199.48 378.62,199.69 C 378.23,199.89 377.79,200.12 377.38,200.31 C 376.96,200.51 376.55,200.69 376.14,200.86 C 375.73,201.03 375.33,201.18 374.92,201.33 C 374.52,201.47 374.12,201.60 373.72,201.72 C 373.32,201.84 372.92,201.94 372.53,202.03 C 372.14,202.12 371.75,202.20 371.36,202.27 C 370.97,202.33 370.59,202.38 370.20,202.42 C 369.82,202.46 369.44,202.49 369.06,202.50 C 368.68,202.51 368.29,202.50 367.94,202.50 C 367.58,202.50 367.25,202.51 366.93,202.52 C 366.61,202.54 366.32,202.55 366.04,202.57 C 365.76,202.59 365.50,202.61 365.27,202.64 C 365.03,202.67 364.81,202.70 364.61,202.73 C 364.41,202.77 364.23,202.81 364.07,202.85 C 363.91,202.89 363.77,202.94 363.65,202.99 C 363.53,203.04 363.43,203.10 363.34,203.16 C 363.26,203.21 363.21,203.16 363.16,203.34 C 363.10,203.52 363.04,203.82 362.99,204.24 C 362.94,204.66 362.89,205.20 362.85,205.85 C 362.81,206.51 362.77,207.28 362.73,208.17 C 362.70,209.06 362.67,210.07 362.64,211.20 C 362.61,212.33 362.59,213.58 362.57,214.95 C 362.55,216.31 362.54,217.80 362.52,219.40 C 362.51,221.00 362.50,222.72 362.50,224.56 C 362.50,226.40 362.47,228.60 362.50,230.44 C 362.53,232.28 362.58,234.00 362.66,235.60 C 362.75,237.20 362.86,238.69 362.99,240.05 C 363.13,241.42 363.29,242.67 363.48,243.80 C 363.68,244.93 363.89,245.94 364.14,246.83 C 364.39,247.72 364.66,248.49 364.96,249.15 C 365.26,249.80 365.59,250.34 365.95,250.76 C 366.30,251.18 366.68,251.48 367.09,251.66 C 367.50,251.84 367.97,251.77 368.41,251.84 C 368.84,251.92 369.28,252.00 369.71,252.09 C 370.14,252.18 370.58,252.27 371.01,252.38 C 371.44,252.49 371.87,252.61 372.30,252.73 C 372.73,252.86 373.15,253.00 373.58,253.14 C 374.00,253.29 374.43,253.44 374.85,253.60 C 375.27,253.76 375.70,253.94 376.12,254.12 C 376.54,254.30 376.96,254.49 377.38,254.69 C 377.79,254.89 378.23,255.11 378.62,255.31 C 379.02,255.52 379.39,255.73 379.74,255.93 C 380.09,256.13 380.42,256.34 380.73,256.54 C 381.03,256.74 381.32,256.94 381.58,257.14 C 381.84,257.34 382.08,257.54 382.30,257.73 C 382.51,257.93 382.71,258.13 382.88,258.32 C 383.06,258.51 383.21,258.71 383.34,258.90 C 383.46,259.09 383.57,259.28 383.66,259.47 C 383.74,259.66 383.81,259.85 383.84,260.03 C 383.88,260.21 383.89,260.38 383.88,260.53 C 383.86,260.69 383.82,260.83 383.75,260.97 C 383.68,261.10 383.59,261.23 383.47,261.34 C 383.35,261.46 383.20,261.56 383.03,261.66 C 382.86,261.75 382.66,261.83 382.44,261.91 C 382.21,261.98 381.96,262.04 381.69,262.09 C 381.41,262.15 381.11,262.19 380.78,262.22 C 380.45,262.25 380.05,262.25 379.72,262.28 C 379.38,262.31 379.07,262.34 378.77,262.38 C 378.48,262.42 378.20,262.47 377.95,262.52 C 377.69,262.58 377.45,262.64 377.23,262.70 C 377.02,262.77 376.82,262.84 376.64,262.92 C 376.46,263.00 376.30,263.09 376.16,263.18 C 376.02,263.27 375.90,263.37 375.80,263.48 C 375.70,263.58 375.62,263.69 375.56,263.81 C 375.50,263.93 375.49,264.07 375.44,264.19 C 375.39,264.31 375.32,264.42 375.25,264.53 C 375.18,264.64 375.09,264.74 375.00,264.84 C 374.91,264.94 374.80,265.04 374.69,265.12 C 374.57,265.21 374.45,265.30 374.31,265.38 C 374.18,265.45 374.03,265.53 373.88,265.59 C 373.72,265.66 373.55,265.72 373.38,265.78 C 373.20,265.84 373.01,265.89 372.81,265.94 C 372.61,265.98 372.39,266.04 372.19,266.06 C 371.98,266.09 371.79,266.10 371.59,266.09 C 371.40,266.09 371.21,266.07 371.03,266.03 C 370.85,265.99 370.67,265.94 370.50,265.88 C 370.33,265.81 370.16,265.72 370.00,265.62 C 369.84,265.53 369.68,265.41 369.53,265.28 C 369.38,265.15 369.23,265.01 369.09,264.84 C 368.95,264.68 368.82,264.51 368.69,264.31 C 368.56,264.12 368.45,263.89 368.31,263.69 C 368.18,263.49 368.04,263.30 367.89,263.12 C 367.74,262.95 367.59,262.78 367.42,262.62 C 367.26,262.47 367.09,262.32 366.91,262.19 C 366.73,262.05 366.54,261.93 366.34,261.81 C 366.15,261.70 365.95,261.59 365.73,261.50 C 365.52,261.41 365.30,261.32 365.08,261.25 C 364.85,261.18 364.62,261.11 364.38,261.06 C 364.13,261.01 364.02,260.98 363.62,260.94 C 363.23,260.89 362.70,260.84 362.02,260.78 C 361.34,260.72 360.51,260.66 359.55,260.59 C 358.58,260.53 357.47,260.45 356.22,260.38 C 354.97,260.30 353.57,260.21 352.03,260.12 C 350.49,260.04 348.81,259.94 346.98,259.84 C 345.16,259.74 343.19,259.64 341.08,259.53 C 338.97,259.42 336.71,259.31 334.31,259.19 C 331.91,259.07 329.04,258.86 326.69,258.81 C 324.34,258.76 322.19,258.79 320.23,258.90 C 318.27,259.00 316.50,259.19 314.93,259.45 C 313.36,259.70 311.98,260.04 310.80,260.45 C 309.61,260.87 308.62,261.36 307.83,261.92 C 307.03,262.49 306.43,263.13 306.02,263.85 C 305.62,264.57 305.40,265.37 305.38,266.24 C 305.36,267.12 305.54,268.07 305.91,269.09 C 306.27,270.12 307.08,271.36 307.59,272.41 C 308.11,273.45 308.58,274.43 309.00,275.36 C 309.42,276.28 309.80,277.15 310.12,277.95 C 310.45,278.76 310.73,279.50 310.97,280.19 C 311.20,280.87 311.39,281.50 311.53,282.06 C 311.67,282.63 311.77,283.13 311.81,283.58 C 311.86,284.02 311.86,284.41 311.81,284.73 C 311.77,285.06 311.67,285.33 311.53,285.53 C 311.39,285.74 311.17,285.83 310.97,285.97 C 310.77,286.10 310.57,286.23 310.35,286.34 C 310.14,286.45 309.91,286.55 309.68,286.63 C 309.45,286.72 309.20,286.80 308.95,286.86 C 308.70,286.92 308.44,286.98 308.17,287.02 C 307.90,287.06 307.62,287.08 307.34,287.10 C 307.05,287.12 306.75,287.12 306.45,287.12 C 306.14,287.11 305.82,287.09 305.50,287.06 C 305.18,287.03 304.81,286.98 304.50,286.94 C 304.19,286.89 303.90,286.85 303.63,286.80 C 303.37,286.76 303.12,286.71 302.90,286.66 C 302.68,286.62 302.48,286.57 302.30,286.52 C 302.12,286.46 301.96,286.41 301.83,286.36 C 301.69,286.31 301.58,286.25 301.49,286.20 C 301.40,286.14 301.33,286.08 301.29,286.02 C 301.24,285.96 301.22,285.90 301.22,285.84 C 301.22,285.78 301.28,285.73 301.28,285.66 C 301.28,285.58 301.26,285.48 301.22,285.38 C 301.18,285.27 301.11,285.14 301.03,285.00 C 300.95,284.86 300.84,284.70 300.72,284.53 C 300.59,284.36 300.45,284.17 300.28,283.97 C 300.11,283.77 299.93,283.55 299.72,283.31 C 299.51,283.08 299.28,282.83 299.03,282.56 C 298.78,282.30 298.51,282.02 298.22,281.72 C 297.93,281.42 297.58,281.07 297.28,280.78 C 296.98,280.49 296.70,280.22 296.44,279.97 C 296.17,279.72 295.92,279.49 295.69,279.28 C 295.45,279.07 295.23,278.89 295.03,278.72 C 294.83,278.55 294.64,278.41 294.47,278.28 C 294.30,278.16 294.14,278.05 294.00,277.97 C 293.86,277.89 293.73,277.82 293.62,277.78 C 293.52,277.74 293.42,277.72 293.34,277.72 C 293.27,277.72 293.21,277.64 293.16,277.78 C 293.11,277.93 293.07,278.19 293.04,278.59 C 293.01,278.98 293.00,279.49 292.99,280.13 C 292.99,280.77 293.00,281.54 293.02,282.42 C 293.04,283.31 293.07,284.32 293.11,285.45 C 293.15,286.59 293.21,287.85 293.27,289.23 C 293.34,290.61 293.42,292.11 293.51,293.74 C 293.60,295.37 293.70,297.12 293.81,299.00 C 293.93,300.88 294.09,303.10 294.19,305.00 C 294.28,306.90 294.35,308.69 294.38,310.38 C 294.42,312.07 294.42,313.66 294.40,315.15 C 294.37,316.63 294.32,318.02 294.23,319.30 C 294.15,320.58 294.04,321.75 293.89,322.83 C 293.75,323.90 293.57,324.87 293.37,325.74 C 293.16,326.61 292.93,327.38 292.66,328.04 C 292.40,328.70 292.11,329.26 291.78,329.72 C 291.46,330.18 291.06,330.45 290.72,330.78 C 290.38,331.11 290.06,331.41 289.75,331.69 C 289.44,331.96 289.15,332.21 288.88,332.44 C 288.60,332.66 288.34,332.86 288.09,333.03 C 287.85,333.20 287.62,333.35 287.41,333.47 C 287.19,333.59 286.99,333.68 286.81,333.75 C 286.63,333.82 286.46,333.86 286.31,333.88 C 286.16,333.89 286.03,333.88 285.91,333.84 Z" />
    </clipPath>
  </defs>
  <path d="M 285.91,333.84 C 285.79,333.81 285.72,333.80 285.59,333.66 C 285.47,333.52 285.33,333.30 285.16,333.01 C 285.00,332.71 284.82,332.35 284.62,331.90 C 284.42,331.45 284.19,330.93 283.95,330.33 C 283.71,329.73 283.45,329.05 283.17,328.30 C 282.89,327.54 282.59,326.71 282.27,325.80 C 281.95,324.90 281.62,323.91 281.26,322.85 C 280.90,321.79 280.52,320.65 280.12,319.44 C 279.73,318.22 279.32,316.78 278.88,315.56 C 278.43,314.35 277.97,313.21 277.48,312.15 C 276.99,311.09 276.47,310.10 275.93,309.20 C 275.39,308.29 274.82,307.46 274.23,306.70 C 273.64,305.95 273.03,305.27 272.39,304.67 C 271.75,304.07 271.09,303.55 270.40,303.10 C 269.71,302.65 269.00,302.29 268.26,301.99 C 267.52,301.70 266.76,301.48 265.97,301.34 C 265.18,301.20 264.30,301.22 263.53,301.16 C 262.77,301.09 262.05,301.03 261.38,300.97 C 260.70,300.91 260.08,300.84 259.50,300.78 C 258.92,300.72 258.39,300.66 257.91,300.59 C 257.42,300.53 256.98,300.47 256.59,300.41 C 256.20,300.34 255.86,300.28 255.56,300.22 C 255.27,300.16 255.02,300.09 254.81,300.03 C 254.61,299.97 254.45,299.91 254.34,299.84 C 254.23,299.78 254.21,299.72 254.16,299.66 C 254.10,299.59 254.05,299.53 254.02,299.47 C 253.98,299.41 253.95,299.34 253.92,299.28 C 253.90,299.22 253.88,299.16 253.88,299.09 C 253.87,299.03 253.87,298.97 253.88,298.91 C 253.88,298.84 253.90,298.78 253.92,298.72 C 253.95,298.66 253.98,298.59 254.02,298.53 C 254.05,298.47 254.10,298.41 254.16,298.34 C 254.21,298.28 254.24,298.21 254.34,298.16 C 254.44,298.10 254.58,298.04 254.76,297.99 C 254.93,297.94 255.15,297.89 255.40,297.85 C 255.65,297.81 255.94,297.77 256.27,297.73 C 256.59,297.70 256.96,297.67 257.36,297.64 C 257.76,297.61 258.20,297.59 258.68,297.57 C 259.16,297.55 259.67,297.54 260.23,297.52 C 260.78,297.51 261.37,297.50 262.00,297.50 C 262.63,297.50 263.37,297.50 264.00,297.50 C 264.63,297.50 265.22,297.49 265.77,297.48 C 266.33,297.46 266.84,297.45 267.32,297.43 C 267.80,297.41 268.24,297.39 268.64,297.36 C 269.04,297.33 269.41,297.30 269.73,297.27 C 270.06,297.23 270.35,297.19 270.60,297.15 C 270.85,297.11 271.07,297.06 271.24,297.01 C 271.42,296.96 271.56,296.90 271.66,296.84 C 271.76,296.79 271.83,296.82 271.84,296.66 C 271.86,296.50 271.83,296.24 271.75,295.89 C 271.67,295.54 271.55,295.09 271.38,294.55 C 271.20,294.00 270.98,293.36 270.72,292.62 C 270.45,291.89 270.14,291.05 269.78,290.12 C 269.42,289.20 269.02,288.17 268.56,287.05 C 268.11,285.92 267.61,284.71 267.06,283.39 C 266.52,282.08 265.92,280.66 265.28,279.16 C 264.64,277.65 263.88,275.84 263.22,274.34 C 262.56,272.85 261.93,271.46 261.32,270.18 C 260.71,268.90 260.14,267.73 259.59,266.66 C 259.04,265.60 258.51,264.64 258.02,263.80 C 257.52,262.95 257.05,262.21 256.61,261.58 C 256.17,260.95 255.75,260.42 255.37,260.01 C 254.98,259.59 254.62,259.29 254.29,259.09 C 253.96,258.89 253.65,258.80 253.38,258.81 C 253.10,258.83 252.86,259.08 252.62,259.19 C 252.39,259.29 252.16,259.38 251.95,259.44 C 251.74,259.50 251.54,259.54 251.36,259.56 C 251.17,259.58 251.00,259.58 250.84,259.56 C 250.68,259.54 250.54,259.50 250.41,259.44 C 250.27,259.38 250.15,259.29 250.05,259.19 C 249.94,259.08 249.85,258.96 249.77,258.81 C 249.68,258.67 249.62,258.50 249.56,258.31 C 249.51,258.12 249.53,257.89 249.44,257.69 C 249.35,257.49 249.21,257.29 249.03,257.11 C 248.85,256.92 248.62,256.75 248.34,256.58 C 248.07,256.41 247.74,256.25 247.38,256.09 C 247.01,255.94 246.59,255.79 246.12,255.66 C 245.66,255.52 245.15,255.39 244.59,255.27 C 244.04,255.14 243.43,255.03 242.78,254.92 C 242.13,254.82 241.43,254.72 240.69,254.62 C 239.94,254.53 239.08,254.49 238.31,254.38 C 237.55,254.26 236.80,254.12 236.09,253.95 C 235.37,253.77 234.68,253.57 234.01,253.34 C 233.34,253.10 232.70,252.84 232.08,252.55 C 231.46,252.25 230.87,251.93 230.30,251.58 C 229.73,251.23 229.18,250.84 228.66,250.43 C 228.14,250.02 227.65,249.57 227.18,249.10 C 226.71,248.63 226.26,248.13 225.84,247.59 C 225.42,247.06 225.03,246.44 224.66,245.91 C 224.29,245.38 223.94,244.88 223.62,244.41 C 223.31,243.94 223.02,243.50 222.75,243.09 C 222.48,242.69 222.24,242.31 222.03,241.97 C 221.82,241.62 221.63,241.31 221.47,241.03 C 221.31,240.75 221.17,240.50 221.06,240.28 C 220.95,240.06 220.87,239.88 220.81,239.72 C 220.76,239.56 220.72,239.44 220.72,239.34 C 220.71,239.25 220.79,239.21 220.78,239.16 C 220.77,239.10 220.74,239.04 220.68,238.99 C 220.62,238.94 220.53,238.89 220.41,238.85 C 220.30,238.81 220.15,238.77 219.98,238.73 C 219.81,238.70 219.62,238.67 219.39,238.64 C 219.17,238.61 218.91,238.59 218.63,238.57 C 218.35,238.55 218.05,238.54 217.71,238.52 C 217.38,238.51 217.01,238.50 216.62,238.50 C 216.24,238.50 215.77,238.49 215.38,238.50 C 214.98,238.51 214.60,238.52 214.25,238.55 C 213.90,238.57 213.56,238.60 213.25,238.64 C 212.94,238.68 212.65,238.73 212.38,238.78 C 212.10,238.84 211.85,238.90 211.62,238.97 C 211.40,239.04 211.19,239.12 211.00,239.20 C 210.81,239.29 210.65,239.38 210.50,239.48 C 210.35,239.59 210.23,239.70 210.12,239.81 C 210.02,239.93 209.98,240.08 209.88,240.19 C 209.77,240.30 209.63,240.39 209.47,240.47 C 209.31,240.55 209.12,240.61 208.91,240.66 C 208.69,240.70 208.45,240.73 208.19,240.75 C 207.92,240.77 207.63,240.77 207.31,240.75 C 206.99,240.73 206.65,240.70 206.28,240.66 C 205.91,240.61 205.52,240.55 205.09,240.47 C 204.67,240.39 204.22,240.30 203.75,240.19 C 203.28,240.08 202.75,239.93 202.25,239.81 C 201.75,239.70 201.25,239.59 200.75,239.48 C 200.25,239.38 199.75,239.29 199.25,239.20 C 198.75,239.12 198.25,239.04 197.75,238.97 C 197.25,238.90 196.75,238.84 196.25,238.78 C 195.75,238.73 195.25,238.68 194.75,238.64 C 194.25,238.60 193.75,238.57 193.25,238.55 C 192.75,238.52 192.25,238.51 191.75,238.50 C 191.25,238.49 190.73,238.50 190.25,238.50 C 189.77,238.50 189.32,238.49 188.90,238.48 C 188.47,238.46 188.07,238.45 187.70,238.43 C 187.32,238.41 186.97,238.39 186.64,238.36 C 186.31,238.33 186.01,238.30 185.73,238.27 C 185.46,238.23 185.20,238.19 184.98,238.15 C 184.75,238.11 184.55,238.06 184.37,238.01 C 184.19,237.96 184.04,237.90 183.91,237.84 C 183.78,237.79 183.69,237.72 183.59,237.66 C 183.50,237.59 183.41,237.52 183.33,237.45 C 183.25,237.38 183.17,237.31 183.11,237.23 C 183.04,237.16 182.99,237.08 182.94,237.00 C 182.89,236.92 182.85,236.84 182.81,236.75 C 182.78,236.66 182.75,236.58 182.73,236.48 C 182.72,236.39 182.71,236.30 182.70,236.20 C 182.70,236.11 182.71,236.01 182.72,235.91 C 182.73,235.80 182.79,235.70 182.78,235.59 C 182.77,235.49 182.74,235.39 182.67,235.28 C 182.61,235.18 182.51,235.07 182.39,234.97 C 182.27,234.86 182.12,234.76 181.94,234.66 C 181.76,234.55 181.55,234.45 181.31,234.34 C 181.08,234.24 180.81,234.14 180.52,234.03 C 180.22,233.93 179.90,233.82 179.55,233.72 C 179.20,233.61 178.82,233.51 178.41,233.41 C 178.00,233.30 177.50,233.21 177.09,233.09 C 176.68,232.97 176.30,232.83 175.95,232.68 C 175.59,232.52 175.26,232.35 174.96,232.16 C 174.66,231.98 174.39,231.77 174.14,231.55 C 173.89,231.32 173.68,231.08 173.48,230.83 C 173.29,230.57 173.13,230.30 172.99,230.01 C 172.86,229.72 172.75,229.41 172.66,229.09 C 172.58,228.76 172.53,228.42 172.50,228.06 C 172.47,227.70 172.48,227.30 172.50,226.94 C 172.52,226.58 172.57,226.24 172.65,225.91 C 172.72,225.59 172.82,225.28 172.95,224.99 C 173.07,224.70 173.22,224.43 173.39,224.17 C 173.56,223.92 173.76,223.68 173.98,223.45 C 174.21,223.23 174.45,223.02 174.73,222.84 C 175.00,222.65 175.30,222.48 175.62,222.32 C 175.94,222.17 176.29,222.03 176.66,221.91 C 177.03,221.79 177.47,221.70 177.84,221.59 C 178.21,221.49 178.56,221.38 178.88,221.27 C 179.20,221.17 179.50,221.06 179.77,220.95 C 180.05,220.83 180.29,220.72 180.52,220.61 C 180.74,220.50 180.94,220.38 181.11,220.27 C 181.28,220.15 181.43,220.03 181.55,219.91 C 181.68,219.80 181.78,219.68 181.85,219.55 C 181.93,219.43 181.98,219.31 182.00,219.19 C 182.02,219.06 181.98,218.93 182.00,218.81 C 182.02,218.69 182.05,218.57 182.11,218.45 C 182.16,218.34 182.24,218.22 182.33,218.11 C 182.42,218.00 182.53,217.89 182.66,217.78 C 182.78,217.67 182.93,217.57 183.09,217.47 C 183.26,217.37 183.44,217.27 183.64,217.17 C 183.84,217.08 184.06,216.98 184.30,216.89 C 184.53,216.80 184.79,216.71 185.06,216.62 C 185.34,216.54 185.63,216.45 185.94,216.38 C 186.24,216.30 186.57,216.22 186.91,216.16 C 187.24,216.09 187.60,216.03 187.97,215.97 C 188.34,215.91 188.72,215.86 189.12,215.81 C 189.53,215.77 189.94,215.72 190.38,215.69 C 190.81,215.65 191.26,215.62 191.72,215.59 C 192.18,215.57 192.66,215.55 193.16,215.53 C 193.65,215.52 194.16,215.51 194.69,215.50 C 195.21,215.49 195.79,215.51 196.31,215.50 C 196.84,215.49 197.35,215.48 197.84,215.47 C 198.34,215.45 198.82,215.43 199.28,215.41 C 199.74,215.38 200.19,215.35 200.62,215.31 C 201.06,215.28 201.47,215.23 201.88,215.19 C 202.28,215.14 202.66,215.09 203.03,215.03 C 203.40,214.97 203.76,214.91 204.09,214.84 C 204.43,214.78 204.76,214.70 205.06,214.62 C 205.37,214.55 205.66,214.45 205.94,214.38 C 206.22,214.30 206.48,214.25 206.73,214.20 C 206.99,214.16 207.23,214.13 207.45,214.11 C 207.68,214.09 207.89,214.09 208.09,214.09 C 208.29,214.10 208.48,214.12 208.66,214.16 C 208.83,214.19 208.99,214.24 209.14,214.30 C 209.29,214.36 209.42,214.43 209.55,214.52 C 209.67,214.60 209.78,214.70 209.88,214.81 C 209.97,214.92 210.02,215.07 210.12,215.19 C 210.23,215.30 210.35,215.41 210.48,215.52 C 210.62,215.62 210.78,215.71 210.95,215.80 C 211.13,215.88 211.32,215.96 211.53,216.03 C 211.74,216.10 211.97,216.16 212.22,216.22 C 212.47,216.27 212.73,216.32 213.02,216.36 C 213.30,216.40 213.60,216.43 213.92,216.45 C 214.24,216.48 214.58,216.49 214.94,216.50 C 215.29,216.51 215.68,216.54 216.06,216.50 C 216.44,216.46 216.82,216.38 217.20,216.27 C 217.59,216.15 217.97,215.99 218.36,215.80 C 218.75,215.60 219.14,215.37 219.53,215.09 C 219.92,214.82 220.32,214.51 220.72,214.16 C 221.12,213.80 221.52,213.41 221.92,212.98 C 222.33,212.55 222.73,212.09 223.14,211.58 C 223.55,211.07 223.96,210.52 224.38,209.94 C 224.79,209.35 225.18,208.65 225.62,208.06 C 226.07,207.47 226.53,206.91 227.02,206.39 C 227.50,205.87 228.01,205.38 228.55,204.92 C 229.08,204.47 229.64,204.04 230.22,203.66 C 230.80,203.27 231.40,202.91 232.03,202.59 C 232.66,202.27 233.31,201.99 233.98,201.73 C 234.66,201.48 235.36,201.26 236.08,201.08 C 236.80,200.89 237.54,200.74 238.31,200.62 C 239.08,200.51 239.94,200.47 240.69,200.38 C 241.43,200.28 242.13,200.18 242.78,200.06 C 243.43,199.95 244.04,199.82 244.59,199.69 C 245.15,199.55 245.66,199.41 246.12,199.25 C 246.59,199.09 247.01,198.93 247.38,198.75 C 247.74,198.57 248.07,198.39 248.34,198.19 C 248.62,197.99 248.85,197.78 249.03,197.56 C 249.21,197.34 249.35,197.11 249.44,196.88 C 249.53,196.64 249.51,196.35 249.56,196.12 C 249.62,195.90 249.68,195.70 249.77,195.53 C 249.85,195.36 249.94,195.21 250.05,195.09 C 250.15,194.97 250.27,194.88 250.41,194.81 C 250.54,194.74 250.68,194.70 250.84,194.69 C 251.00,194.67 251.17,194.68 251.36,194.72 C 251.54,194.76 251.74,194.82 251.95,194.91 C 252.16,194.99 252.39,195.11 252.62,195.25 C 252.86,195.39 253.10,195.69 253.38,195.75 C 253.65,195.81 253.96,195.75 254.29,195.59 C 254.62,195.42 254.98,195.14 255.37,194.76 C 255.75,194.37 256.17,193.87 256.61,193.27 C 257.05,192.66 257.52,191.94 258.02,191.11 C 258.51,190.28 259.04,189.34 259.59,188.29 C 260.14,187.24 260.71,186.08 261.32,184.80 C 261.93,183.53 262.56,182.15 263.22,180.66 C 263.88,179.16 264.64,177.35 265.28,175.84 C 265.92,174.34 266.52,172.92 267.06,171.61 C 267.61,170.29 268.11,169.08 268.56,167.95 C 269.02,166.83 269.42,165.80 269.78,164.88 C 270.14,163.95 270.45,163.11 270.72,162.38 C 270.98,161.64 271.20,161.00 271.38,160.45 C 271.55,159.91 271.67,159.46 271.75,159.11 C 271.83,158.76 271.86,158.50 271.84,158.34 C 271.83,158.18 271.76,158.21 271.66,158.16 C 271.56,158.10 271.42,158.04 271.24,157.99 C 271.07,157.94 270.85,157.89 270.60,157.85 C 270.35,157.81 270.06,157.77 269.73,157.73 C 269.41,157.70 269.04,157.67 268.64,157.64 C 268.24,157.61 267.80,157.59 267.32,157.57 C 266.84,157.55 266.33,157.54 265.77,157.52 C 265.22,157.51 264.63,157.50 264.00,157.50 C 263.37,157.50 262.63,157.50 262.00,157.50 C 261.37,157.50 260.78,157.49 260.23,157.48 C 259.67,157.46 259.16,157.45 258.68,157.43 C 258.20,157.41 257.76,157.39 257.36,157.36 C 256.96,157.33 256.59,157.30 256.27,157.27 C 255.94,157.23 255.65,157.19 255.40,157.15 C 255.15,157.11 254.93,157.06 254.76,157.01 C 254.58,156.96 254.44,156.90 254.34,156.84 C 254.24,156.79 254.21,156.72 254.16,156.66 C 254.10,156.59 254.05,156.53 254.02,156.47 C 253.98,156.41 253.95,156.34 253.92,156.28 C 253.90,156.22 253.88,156.16 253.88,156.09 C 253.87,156.03 253.87,155.97 253.88,155.91 C 253.88,155.84 253.90,155.78 253.92,155.72 C 253.95,155.66 253.98,155.59 254.02,155.53 C 254.05,155.47 254.10,155.41 254.16,155.34 C 254.21,155.28 254.23,155.22 254.34,155.16 C 254.45,155.09 254.61,155.03 254.81,154.97 C 255.02,154.91 255.27,154.84 255.56,154.78 C 255.86,154.72 256.20,154.66 256.59,154.59 C 256.98,154.53 257.42,154.47 257.91,154.41 C 258.39,154.34 258.92,154.28 259.50,154.22 C 260.08,154.16 260.70,154.09 261.38,154.03 C 262.05,153.97 262.77,153.91 263.53,153.84 C 264.30,153.78 265.18,153.80 265.97,153.66 C 266.76,153.51 267.53,153.29 268.28,152.98 C 269.03,152.68 269.76,152.29 270.47,151.83 C 271.18,151.36 271.86,150.82 272.53,150.19 C 273.20,149.56 273.84,148.85 274.47,148.06 C 275.09,147.27 275.70,146.40 276.28,145.45 C 276.86,144.50 277.43,143.47 277.97,142.36 C 278.51,141.25 279.03,140.05 279.53,138.78 C 280.03,137.51 280.49,135.97 280.97,134.72 C 281.44,133.47 281.91,132.33 282.38,131.30 C 282.84,130.26 283.30,129.34 283.75,128.52 C 284.20,127.70 284.65,126.98 285.09,126.38 C 285.54,125.77 285.97,125.27 286.41,124.88 C 286.84,124.48 287.27,124.20 287.69,124.02 C 288.11,123.84 288.53,123.76 288.94,123.80 C 289.35,123.83 289.76,123.97 290.16,124.22 C 290.56,124.47 290.98,124.90 291.34,125.28 C 291.71,125.66 292.05,126.07 292.36,126.50 C 292.67,126.93 292.95,127.39 293.20,127.88 C 293.46,128.36 293.68,128.87 293.88,129.41 C 294.07,129.94 294.24,130.51 294.38,131.09 C 294.51,131.68 294.62,132.30 294.70,132.94 C 294.78,133.58 294.84,134.24 294.86,134.94 C 294.88,135.63 294.88,136.35 294.84,137.09 C 294.81,137.84 294.72,138.62 294.66,139.41 C 294.60,140.19 294.54,140.99 294.48,141.80 C 294.43,142.61 294.38,143.43 294.33,144.27 C 294.28,145.10 294.23,145.95 294.19,146.81 C 294.14,147.67 294.10,148.55 294.06,149.44 C 294.02,150.33 293.99,151.23 293.95,152.14 C 293.92,153.05 293.89,153.98 293.86,154.92 C 293.83,155.86 293.80,156.82 293.78,157.78 C 293.76,158.75 293.74,159.78 293.72,160.72 C 293.69,161.65 293.67,162.55 293.63,163.40 C 293.60,164.25 293.56,165.06 293.52,165.82 C 293.48,166.58 293.44,167.31 293.39,167.98 C 293.34,168.66 293.29,169.30 293.23,169.89 C 293.18,170.48 293.12,171.03 293.05,171.54 C 292.99,172.05 292.92,172.51 292.85,172.93 C 292.78,173.35 292.70,173.73 292.62,174.06 C 292.55,174.40 292.45,174.67 292.38,174.94 C 292.30,175.21 292.24,175.46 292.20,175.70 C 292.15,175.93 292.11,176.14 292.09,176.34 C 292.06,176.53 292.05,176.70 292.05,176.86 C 292.05,177.01 292.06,177.15 292.08,177.27 C 292.10,177.38 292.13,177.48 292.18,177.55 C 292.23,177.63 292.28,177.69 292.35,177.73 C 292.42,177.76 292.50,177.78 292.59,177.78 C 292.69,177.78 292.79,177.76 292.91,177.72 C 293.02,177.68 293.16,177.61 293.30,177.52 C 293.45,177.44 293.61,177.33 293.79,177.20 C 293.96,177.06 294.15,176.91 294.36,176.73 C 294.56,176.56 294.78,176.36 295.02,176.14 C 295.25,175.92 295.50,175.68 295.76,175.41 C 296.02,175.15 296.30,174.86 296.59,174.55 C 296.88,174.25 297.18,173.92 297.50,173.56 C 297.82,173.21 298.17,172.79 298.50,172.44 C 298.83,172.08 299.16,171.75 299.48,171.44 C 299.81,171.12 300.13,170.83 300.45,170.56 C 300.77,170.29 301.09,170.04 301.41,169.81 C 301.72,169.58 302.03,169.38 302.34,169.19 C 302.65,169.00 302.96,168.83 303.27,168.69 C 303.57,168.54 303.87,168.42 304.17,168.31 C 304.47,168.21 304.77,168.12 305.06,168.06 C 305.36,168.00 305.65,167.97 305.94,167.94 C 306.22,167.90 306.50,167.88 306.77,167.87 C 307.05,167.85 307.31,167.85 307.57,167.85 C 307.83,167.86 308.08,167.87 308.33,167.89 C 308.57,167.91 308.81,167.94 309.05,167.98 C 309.28,168.02 309.51,168.07 309.73,168.13 C 309.95,168.19 310.16,168.26 310.37,168.34 C 310.57,168.41 310.77,168.50 310.97,168.59 C 311.16,168.69 311.39,168.74 311.53,168.91 C 311.67,169.07 311.77,169.30 311.81,169.59 C 311.86,169.89 311.86,170.24 311.81,170.66 C 311.77,171.07 311.67,171.55 311.53,172.09 C 311.39,172.64 311.20,173.24 310.97,173.91 C 310.73,174.57 310.45,175.30 310.12,176.09 C 309.80,176.89 309.42,177.74 309.00,178.66 C 308.58,179.57 308.11,180.55 307.59,181.59 C 307.08,182.64 306.38,183.87 305.91,184.91 C 305.43,185.94 305.04,186.92 304.74,187.82 C 304.44,188.73 304.23,189.56 304.10,190.34 C 303.98,191.11 303.94,191.81 303.98,192.45 C 304.03,193.09 304.17,193.67 304.39,194.17 C 304.61,194.68 304.92,195.12 305.32,195.49 C 305.72,195.87 306.20,196.17 306.77,196.41 C 307.35,196.65 308.00,196.83 308.75,196.94 C 309.50,197.05 310.36,197.03 311.25,197.06 C 312.14,197.09 313.08,197.11 314.08,197.12 C 315.08,197.14 316.13,197.14 317.23,197.12 C 318.34,197.11 319.50,197.09 320.72,197.06 C 321.93,197.03 323.21,196.99 324.53,196.94 C 325.86,196.89 327.24,196.82 328.67,196.75 C 330.11,196.68 331.60,196.59 333.14,196.50 C 334.68,196.41 336.28,196.30 337.94,196.19 C 339.59,196.07 341.45,195.93 343.06,195.81 C 344.68,195.69 346.21,195.58 347.64,195.47 C 349.08,195.36 350.42,195.26 351.67,195.16 C 352.92,195.06 354.09,194.96 355.16,194.88 C 356.23,194.79 357.21,194.70 358.09,194.62 C 358.98,194.55 359.78,194.47 360.48,194.41 C 361.19,194.34 361.80,194.28 362.33,194.22 C 362.85,194.16 363.28,194.11 363.62,194.06 C 363.97,194.02 364.13,193.99 364.38,193.94 C 364.62,193.89 364.85,193.82 365.08,193.75 C 365.30,193.68 365.52,193.59 365.73,193.50 C 365.95,193.41 366.15,193.30 366.34,193.19 C 366.54,193.07 366.73,192.95 366.91,192.81 C 367.09,192.68 367.26,192.53 367.42,192.38 C 367.59,192.22 367.74,192.05 367.89,191.88 C 368.04,191.70 368.18,191.51 368.31,191.31 C 368.45,191.11 368.56,190.88 368.69,190.69 C 368.82,190.49 368.95,190.31 369.08,190.14 C 369.21,189.97 369.35,189.82 369.48,189.67 C 369.62,189.53 369.76,189.40 369.91,189.28 C 370.05,189.16 370.20,189.06 370.34,188.97 C 370.49,188.88 370.64,188.80 370.80,188.73 C 370.95,188.67 371.11,188.62 371.27,188.58 C 371.42,188.54 371.59,188.51 371.75,188.50 C 371.91,188.49 372.09,188.49 372.25,188.50 C 372.41,188.51 372.57,188.53 372.72,188.56 C 372.87,188.59 373.02,188.64 373.16,188.69 C 373.30,188.74 373.43,188.80 373.56,188.88 C 373.69,188.95 373.82,189.03 373.94,189.12 C 374.06,189.22 374.17,189.32 374.28,189.44 C 374.39,189.55 374.49,189.68 374.59,189.81 C 374.69,189.95 374.79,190.09 374.88,190.25 C 374.96,190.41 375.02,190.59 375.12,190.75 C 375.23,190.91 375.34,191.06 375.48,191.20 C 375.61,191.33 375.76,191.46 375.93,191.59 C 376.10,191.71 376.28,191.82 376.48,191.92 C 376.69,192.02 376.90,192.12 377.14,192.20 C 377.38,192.29 377.63,192.36 377.90,192.43 C 378.17,192.50 378.45,192.55 378.76,192.60 C 379.06,192.65 379.38,192.69 379.72,192.72 C 380.06,192.75 380.45,192.75 380.78,192.78 C 381.11,192.81 381.41,192.85 381.69,192.91 C 381.96,192.96 382.21,193.02 382.44,193.09 C 382.66,193.17 382.86,193.25 383.03,193.34 C 383.20,193.44 383.35,193.54 383.47,193.66 C 383.59,193.77 383.68,193.90 383.75,194.03 C 383.82,194.17 383.86,194.31 383.88,194.47 C 383.89,194.62 383.88,194.79 383.84,194.97 C 383.81,195.15 383.74,195.34 383.66,195.53 C 383.57,195.72 383.46,195.91 383.34,196.10 C 383.21,196.29 383.06,196.49 382.88,196.68 C 382.71,196.87 382.51,197.07 382.30,197.27 C 382.08,197.46 381.84,197.66 381.58,197.86 C 381.32,198.06 381.03,198.26 380.73,198.46 C 380.42,198.66 380.09,198.87 379.74,199.07 C 379.39,199.27 379.02,199.48 378.62,199.69 C 378.23,199.89 377.79,200.12 377.38,200.31 C 376.96,200.51 376.55,200.69 376.14,200.86 C 375.73,201.03 375.33,201.18 374.92,201.33 C 374.52,201.47 374.12,201.60 373.72,201.72 C 373.32,201.84 372.92,201.94 372.53,202.03 C 372.14,202.12 371.75,202.20 371.36,202.27 C 370.97,202.33 370.59,202.38 370.20,202.42 C 369.82,202.46 369.44,202.49 369.06,202.50 C 368.68,202.51 368.29,202.50 367.94,202.50 C 367.58,202.50 367.25,202.51 366.93,202.52 C 366.61,202.54 366.32,202.55 366.04,202.57 C 365.76,202.59 365.50,202.61 365.27,202.64 C 365.03,202.67 364.81,202.70 364.61,202.73 C 364.41,202.77 364.23,202.81 364.07,202.85 C 363.91,202.89 363.77,202.94 363.65,202.99 C 363.53,203.04 363.43,203.10 363.34,203.16 C 363.26,203.21 363.21,203.16 363.16,203.34 C 363.10,203.52 363.04,203.82 362.99,204.24 C 362.94,204.66 362.89,205.20 362.85,205.85 C 362.81,206.51 362.77,207.28 362.73,208.17 C 362.70,209.06 362.67,210.07 362.64,211.20 C 362.61,212.33 362.59,213.58 362.57,214.95 C 362.55,216.31 362.54,217.80 362.52,219.40 C 362.51,221.00 362.50,222.72 362.50,224.56 C 362.50,226.40 362.47,228.60 362.50,230.44 C 362.53,232.28 362.58,234.00 362.66,235.60 C 362.75,237.20 362.86,238.69 362.99,240.05 C 363.13,241.42 363.29,242.67 363.48,243.80 C 363.68,244.93 363.89,245.94 364.14,246.83 C 364.39,247.72 364.66,248.49 364.96,249.15 C 365.26,249.80 365.59,250.34 365.95,250.76 C 366.30,251.18 366.68,251.48 367.09,251.66 C 367.50,251.84 367.97,251.77 368.41,251.84 C 368.84,251.92 369.28,252.00 369.71,252.09 C 370.14,252.18 370.58,252.27 371.01,252.38 C 371.44,252.49 371.87,252.61 372.30,252.73 C 372.73,252.86 373.15,253.00 373.58,253.14 C 374.00,253.29 374.43,253.44 374.85,253.60 C 375.27,253.76 375.70,253.94 376.12,254.12 C 376.54,254.30 376.96,254.49 377.38,254.69 C 377.79,254.89 378.23,255.11 378.62,255.31 C 379.02,255.52 379.39,255.73 379.74,255.93 C 380.09,256.13 380.42,256.34 380.73,256.54 C 381.03,256.74 381.32,256.94 381.58,257.14 C 381.84,257.34 382.08,257.54 382.30,257.73 C 382.51,257.93 382.71,258.13 382.88,258.32 C 383.06,258.51 383.21,258.71 383.34,258.90 C 383.46,259.09 383.57,259.28 383.66,259.47 C 383.74,259.66 383.81,259.85 383.84,260.03 C 383.88,260.21 383.89,260.38 383.88,260.53 C 383.86,260.69 383.82,260.83 383.75,260.97 C 383.68,261.10 383.59,261.23 383.47,261.34 C 383.35,261.46 383.20,261.56 383.03,261.66 C 382.86,261.75 382.66,261.83 382.44,261.91 C 382.21,261.98 381.96,262.04 381.69,262.09 C 381.41,262.15 381.11,262.19 380.78,262.22 C 380.45,262.25 380.05,262.25 379.72,262.28 C 379.38,262.31 379.07,262.34 378.77,262.38 C 378.48,262.42 378.20,262.47 377.95,262.52 C 377.69,262.58 377.45,262.64 377.23,262.70 C 377.02,262.77 376.82,262.84 376.64,262.92 C 376.46,263.00 376.30,263.09 376.16,263.18 C 376.02,263.27 375.90,263.37 375.80,263.48 C 375.70,263.58 375.62,263.69 375.56,263.81 C 375.50,263.93 375.49,264.07 375.44,264.19 C 375.39,264.31 375.32,264.42 375.25,264.53 C 375.18,264.64 375.09,264.74 375.00,264.84 C 374.91,264.94 374.80,265.04 374.69,265.12 C 374.57,265.21 374.45,265.30 374.31,265.38 C 374.18,265.45 374.03,265.53 373.88,265.59 C 373.72,265.66 373.55,265.72 373.38,265.78 C 373.20,265.84 373.01,265.89 372.81,265.94 C 372.61,265.98 372.39,266.04 372.19,266.06 C 371.98,266.09 371.79,266.10 371.59,266.09 C 371.40,266.09 371.21,266.07 371.03,266.03 C 370.85,265.99 370.67,265.94 370.50,265.88 C 370.33,265.81 370.16,265.72 370.00,265.62 C 369.84,265.53 369.68,265.41 369.53,265.28 C 369.38,265.15 369.23,265.01 369.09,264.84 C 368.95,264.68 368.82,264.51 368.69,264.31 C 368.56,264.12 368.45,263.89 368.31,263.69 C 368.18,263.49 368.04,263.30 367.89,263.12 C 367.74,262.95 367.59,262.78 367.42,262.62 C 367.26,262.47 367.09,262.32 366.91,262.19 C 366.73,262.05 366.54,261.93 366.34,261.81 C 366.15,261.70 365.95,261.59 365.73,261.50 C 365.52,261.41 365.30,261.32 365.08,261.25 C 364.85,261.18 364.62,261.11 364.38,261.06 C 364.13,261.01 364.02,260.98 363.62,260.94 C 363.23,260.89 362.70,260.84 362.02,260.78 C 361.34,260.72 360.51,260.66 359.55,260.59 C 358.58,260.53 357.47,260.45 356.22,260.38 C 354.97,260.30 353.57,260.21 352.03,260.12 C 350.49,260.04 348.81,259.94 346.98,259.84 C 345.16,259.74 343.19,259.64 341.08,259.53 C 338.97,259.42 336.71,259.31 334.31,259.19 C 331.91,259.07 329.04,258.86 326.69,258.81 C 324.34,258.76 322.19,258.79 320.23,258.90 C 318.27,259.00 316.50,259.19 314.93,259.45 C 313.36,259.70 311.98,260.04 310.80,260.45 C 309.61,260.87 308.62,261.36 307.83,261.92 C 307.03,262.49 306.43,263.13 306.02,263.85 C 305.62,264.57 305.40,265.37 305.38,266.24 C 305.36,267.12 305.54,268.07 305.91,269.09 C 306.27,270.12 307.08,271.36 307.59,272.41 C 308.11,273.45 308.58,274.43 309.00,275.36 C 309.42,276.28 309.80,277.15 310.12,277.95 C 310.45,278.76 310.73,279.50 310.97,280.19 C 311.20,280.87 311.39,281.50 311.53,282.06 C 311.67,282.63 311.77,283.13 311.81,283.58 C 311.86,284.02 311.86,284.41 311.81,284.73 C 311.77,285.06 311.67,285.33 311.53,285.53 C 311.39,285.74 311.17,285.83 310.97,285.97 C 310.77,286.10 310.57,286.23 310.35,286.34 C 310.14,286.45 309.91,286.55 309.68,286.63 C 309.45,286.72 309.20,286.80 308.95,286.86 C 308.70,286.92 308.44,286.98 308.17,287.02 C 307.90,287.06 307.62,287.08 307.34,287.10 C 307.05,287.12 306.75,287.12 306.45,287.12 C 306.14,287.11 305.82,287.09 305.50,287.06 C 305.18,287.03 304.81,286.98 304.50,286.94 C 304.19,286.89 303.90,286.85 303.63,286.80 C 303.37,286.76 303.12,286.71 302.90,286.66 C 302.68,286.62 302.48,286.57 302.30,286.52 C 302.12,286.46 301.96,286.41 301.83,286.36 C 301.69,286.31 301.58,286.25 301.49,286.20 C 301.40,286.14 301.33,286.08 301.29,286.02 C 301.24,285.96 301.22,285.90 301.22,285.84 C 301.22,285.78 301.28,285.73 301.28,285.66 C 301.28,285.58 301.26,285.48 301.22,285.38 C 301.18,285.27 301.11,285.14 301.03,285.00 C 300.95,284.86 300.84,284.70 300.72,284.53 C 300.59,284.36 300.45,284.17 300.28,283.97 C 300.11,283.77 299.93,283.55 299.72,283.31 C 299.51,283.08 299.28,282.83 299.03,282.56 C 298.78,282.30 298.51,282.02 298.22,281.72 C 297.93,281.42 297.58,281.07 297.28,280.78 C 296.98,280.49 296.70,280.22 296.44,279.97 C 296.17,279.72 295.92,279.49 295.69,279.28 C 295.45,279.07 295.23,278.89 295.03,278.72 C 294.83,278.55 294.64,278.41 294.47,278.28 C 294.30,278.16 294.14,278.05 294.00,277.97 C 293.86,277.89 293.73,277.82 293.62,277.78 C 293.52,277.74 293.42,277.72 293.34,277.72 C 293.27,277.72 293.21,277.64 293.16,277.78 C 293.11,277.93 293.07,278.19 293.04,278.59 C 293.01,278.98 293.00,279.49 292.99,280.13 C 292.99,280.77 293.00,281.54 293.02,282.42 C 293.04,283.31 293.07,284.32 293.11,285.45 C 293.15,286.59 293.21,287.85 293.27,289.23 C 293.34,290.61 293.42,292.11 293.51,293.74 C 293.60,295.37 293.70,297.12 293.81,299.00 C 293.93,300.88 294.09,303.10 294.19,305.00 C 294.28,306.90 294.35,308.69 294.38,310.38 C 294.42,312.07 294.42,313.66 294.40,315.15 C 294.37,316.63 294.32,318.02 294.23,319.30 C 294.15,320.58 294.04,321.75 293.89,322.83 C 293.75,323.90 293.57,324.87 293.37,325.74 C 293.16,326.61 292.93,327.38 292.66,328.04 C 292.40,328.70 292.11,329.26 291.78,329.72 C 291.46,330.18 291.06,330.45 290.72,330.78 C 290.38,331.11 290.06,331.41 289.75,331.69 C 289.44,331.96 289.15,332.21 288.88,332.44 C 288.60,332.66 288.34,332.86 288.09,333.03 C 287.85,333.20 287.62,333.35 287.41,333.47 C 287.19,333.59 286.99,333.68 286.81,333.75 C 286.63,333.82 286.46,333.86 286.31,333.88 C 286.16,333.89 286.03,333.88 285.91,333.84 Z" stroke="none" fill="currentColor" opacity="0.11" />
  <path d="M208.35,235.15L214.78,235.18 M216.28,232.47L207.19,232.42 M228.38,218.58L220.95,218.88 M228.34,218.65L220.95,218.95 M228.38,237.30L220.95,236.99 M228.34,237.22L220.95,236.92 M234.55,229.72L234.58,229.79 M234.55,226.15L234.58,226.09 M235.68,223.96L230.28,223.42 M222.03,235.58L229.08,235.58 M222.03,220.29L229.08,220.29 M234.91,225.26L234.87,225.26 M234.82,225.34L234.78,225.34 M234.87,225.98L234.83,225.98 M234.78,230.52L234.82,230.52 M234.87,230.61L234.91,230.61 M234.87,229.89L234.83,229.89 M230.28,232.45L235.68,231.91 M229.80,232.47L220.72,232.42 M190.09,224.88L190.09,230.99 M230.39,230.61L224.66,230.65 M230.44,230.70L224.66,230.65 M231.08,231.06L236.68,231.22 M230.44,230.70L224.64,230.98 M231.00,231.06L224.64,230.98 M230.39,225.30L224.66,225.23 M230.44,225.20L224.66,225.23 M231.08,224.82L236.68,224.65 M230.44,225.20L224.64,224.89 M231.00,224.82L224.64,224.89 M216.82,224.82L211.12,224.89 M216.82,231.06L211.12,230.98 M202.61,229.16L193.66,229.20 M193.66,229.24L202.62,229.21 M202.61,226.71L193.66,226.68 M193.66,226.63L202.62,226.67 M217.09,231.05L219.53,230.63 M219.55,230.61L217.10,231.01 M207.18,232.26L216.32,232.28 M207.18,232.31L216.32,232.32 M214.12,218.93L193.12,220.18 M214.14,218.97L193.09,220.23 M199.27,233.17L189.52,232.65 M196.39,230.90L189.51,230.75 M199.27,222.70L189.52,223.23 M196.39,224.97L189.51,225.13 M214.12,236.95L193.12,235.70 M214.14,236.90L193.09,235.65 M208.45,235.22L215.51,235.21 M217.10,224.86L219.55,225.26 M217.09,224.83L219.53,225.24 M235.84,224.77L230.75,224.30 M235.84,225.23L230.61,224.83 M232.30,235.07L237.26,233.88 M234.82,226.08L234.78,226.07 M230.75,231.57L235.84,231.10 M230.61,231.05L235.84,230.65 M229.85,232.33L220.71,232.31 M229.85,232.28L220.71,232.26 M234.64,233.41L229.79,234.53 M234.64,222.47L229.79,221.34 M232.30,220.80L237.26,221.99 M283.17,222.36L265.13,222.53 M283.17,233.52L265.13,233.38 M249.28,213.81L249.35,213.76 M249.28,242.07L249.35,242.12 M243.78,241.29L249.35,242.12 M243.78,214.59L249.35,213.76 M284.97,252.67L290.43,254.08 M284.97,203.21L290.43,201.79 M286.48,210.05L281.19,216.39 M286.48,245.83L281.19,239.49 M246.55,245.58L249.56,251.48 M246.51,244.80L239.85,241.74 M246.84,253.00L241.64,244.62 M245.90,252.78L240.67,244.56 M247.79,253.19L242.64,244.68 M248.75,253.39L243.65,244.73 M250.21,252.24L245.81,244.86 M249.71,253.60L244.65,244.77 M244.69,252.35L239.77,244.56 M246.15,244.75L239.67,241.60 M246.55,210.30L249.56,204.40 M246.51,211.08L239.85,214.14 M246.84,202.87L241.64,211.26 M245.90,203.09L240.67,211.32 M247.79,202.69L242.64,211.20 M248.75,202.48L243.65,211.15 M245.81,211.02L250.21,203.64 M244.65,211.11L249.71,202.28 M239.77,211.32L244.69,203.53 M239.67,214.28L246.15,211.13 M277.29,225.65L270.60,225.67 M277.29,230.70L270.60,230.72 M278.94,208.74L274.32,206.48 M285.32,202.54L286.20,199.80 M281.20,200.63L282.79,198.05 M281.30,200.54L282.88,197.96 M286.14,197.98L285.31,200.48 M278.94,247.14L274.32,249.40 M285.32,253.33L286.20,256.07 M281.20,255.24L282.79,257.82 M281.30,255.33L282.88,257.91 M286.14,257.88L285.31,255.38 M283.35,232.33L283.43,223.55 M278.49,219.32L288.60,219.35 M278.49,236.56L288.60,236.53 M283.06,230.41L271.62,230.26 M267.33,227.94L281.42,227.94 M271.62,225.61L283.06,225.47 M287.05,122.37L295.40,129.28 M283.41,129.05L281.61,134.42 M279.13,141.77L277.18,147.56 M277.18,147.56L272.97,159.39 M288.66,153.22L282.19,153.17 M288.30,153.32L280.76,153.32 M288.30,153.13L280.72,153.14 M288.30,153.10L280.73,153.10 M280.76,159.35L288.30,159.35 M288.30,159.55L280.72,159.53 M288.30,159.57L280.73,159.57 M274.82,156.97L268.84,156.93 M255.10,156.23L275.02,156.23 M255.10,156.47L275.02,156.47 M274.00,156.23L255.07,156.22 M255.08,156.22L274.06,156.24 M255.10,157.41L275.02,157.41 M275.02,157.52L255.09,157.54 M275.02,156.96L254.94,157.02 M275.01,157.14L255.11,157.13 M255.10,157.36L275.01,157.46 M255.10,157.52L275.02,157.53 M275.01,156.95L254.93,156.97 M275.01,157.08L254.93,157.18 M275.02,155.16L255.09,155.15 M275.01,155.23L255.11,155.32 M275.01,155.55L255.11,155.55 M254.93,155.27L275.01,155.22 M255.10,155.17L275.02,155.17 M255.10,155.28L275.02,155.29 M275.01,155.74L254.94,155.72 M275.02,155.63L254.94,155.63 M254.94,155.44L275.01,155.44 M288.69,156.39L290.01,145.46 M288.60,156.77L287.66,164.94 M215.87,218.02L221.74,217.98 M237.24,220.06L237.28,227.94 M237.28,227.94L237.24,235.82 M251.66,234.20L251.60,227.94 M230.53,226.53L233.41,226.53 M233.92,226.49L231.03,226.52 M230.53,229.38L233.41,229.38 M220.76,233.85L219.92,237.62 M219.92,218.26L214.58,218.49 M219.92,218.26L220.76,222.03 M218.54,232.17L218.54,223.71 M194.13,220.32L203.02,219.62 M207.90,222.69L192.80,223.38 M194.19,220.65L203.06,219.98 M193.99,235.09L208.56,233.06 M208.56,233.06L194.10,235.22 M194.10,220.65L208.56,222.79 M208.56,222.79L193.99,220.79 M220.87,218.80L221.36,221.38 M221.36,234.50L220.87,237.08 M220.90,222.42L229.51,221.46 M229.54,234.13L220.97,233.41 M220.94,222.01L220.09,218.25 M220.89,233.54L229.51,234.42 M238.08,220.86L229.54,221.75 M229.54,221.75L238.20,221.05 M238.09,234.97L229.51,234.42 M238.09,234.97L229.54,234.13 M229.54,234.13L238.20,234.77 M234.17,231.25L234.15,224.71 M234.50,224.47L234.52,231.36 M228.88,234.65L223.44,234.41 M207.79,228.61L201.86,228.62 M201.86,227.26L207.79,227.25 M199.27,219.13L191.07,219.13 M193.28,217.53L199.35,217.52 M198.85,217.07L192.81,217.14 M199.27,236.74L191.07,236.75 M199.35,238.36L193.28,238.35 M198.85,238.81L192.81,238.74 M215.85,228.26L209.77,228.26 M218.52,228.04L215.89,228.04 M218.44,227.65L215.80,227.65 M221.72,219.07L215.86,219.28 M221.70,216.92L215.90,217.29 M220.99,219.72L221.02,218.91 M218.19,219.74L218.13,219.08 M230.03,240.69L224.47,240.34 M278.02,251.38L264.64,254.05 M288.68,249.33L287.10,244.19 M285.79,243.06L292.61,243.08 M224.47,215.51L230.10,215.22 M278.02,204.50L264.64,201.83 M288.68,206.54L287.10,211.69 M275.04,212.80L257.66,212.63 M285.79,212.83L292.61,212.80 M251.04,210.10L259.66,207.73 M310.65,201.69L304.58,202.31 M304.58,202.31L321.38,200.54 M321.38,200.54L304.77,202.12 M304.58,253.57L310.84,254.20 M256.88,243.36L253.69,243.24 M247.94,242.16L248.96,243.43 M275.86,244.44L264.10,247.21 M241.92,228.69L241.89,234.07 M244.18,238.86L249.73,242.24 M249.73,242.24L244.00,241.43 M241.92,227.19L241.89,221.79 M244.17,216.96L249.88,213.56 M244.15,214.44L249.88,213.56 M256.89,212.62L253.69,212.64 M248.04,213.94L249.05,212.75 M275.86,211.44L264.10,208.66 M274.81,243.01L257.68,243.36 M256.80,243.40L253.47,243.21 M249.71,244.77L247.49,241.69 M247.49,241.69L249.37,243.38 M249.37,243.38L247.13,241.50 M247.13,241.50L249.29,243.14 M264.48,247.18L276.91,245.70 M286.73,244.05L288.29,249.26 M265.28,254.42L277.99,251.87 M277.99,251.87L265.31,254.31 M278.18,252.78L265.07,254.51 M253.47,212.69L256.80,212.50 M249.71,211.13L247.49,214.21 M247.49,214.21L249.37,212.52 M249.37,212.52L247.13,214.40 M247.13,214.40L249.29,212.76 M264.48,208.72L276.91,210.20 M286.73,211.85L288.29,206.64 M278.18,203.09L265.07,201.39 M283.42,232.26L264.86,232.26 M264.86,230.96L283.42,230.96 M283.42,225.44L264.86,225.44 M264.86,230.48L283.42,230.48 M283.42,223.65L264.86,223.65 M264.86,224.95L283.42,224.95 M283.44,233.58L264.84,233.66 M274.14,232.61L281.59,232.61 M274.14,232.61L266.70,232.61 M264.86,222.32L273.68,222.27 M264.86,222.32L283.45,222.35 M283.41,222.75L264.88,222.75 M281.55,222.67L274.14,222.67 M281.56,222.77L274.14,222.77 M274.14,223.30L281.59,223.30 M274.14,223.30L266.70,223.30 M321.00,214.19L304.74,207.76 M321.23,214.10L304.73,207.98 M321.00,241.69L304.74,248.12 M314.85,217.88L305.48,216.61 M293.90,224.13L292.17,218.39 M292.17,218.39L293.93,224.07 M295.51,218.22L301.31,218.51 M292.17,237.49L293.95,231.82 M295.51,237.67L301.31,237.37 M300.16,249.60L294.59,251.57 M321.07,241.52L305.11,246.53 M321.07,241.52L304.73,247.90 M300.16,206.28L294.59,204.31 M321.07,214.36L305.11,209.35 M321.07,214.36L304.73,207.98 M313.22,238.06L305.38,239.06 M308.18,241.95L316.05,241.11 M313.22,217.82L305.38,216.82 M308.18,213.93L316.05,214.77 M355.51,261.13L314.66,258.02 M355.51,194.75L308.62,198.31 M357.15,194.63L380.97,192.81 M370.16,253.05L355.28,251.06 M345.94,247.89L324.39,247.77 M345.94,207.99L324.39,208.11 M370.16,202.83L355.28,204.82 M353.70,250.85L311.55,245.18 M309.15,211.14L353.72,205.13 M359.46,235.92L359.41,241.68 M359.41,241.68L358.14,250.58 M359.41,214.75L359.46,220.52 M359.41,214.75L358.14,205.86 M342.07,255.63L372.27,258.24 M339.63,254.48L330.41,253.37 M372.34,259.38L330.77,255.36 M355.54,237.01L355.88,228.22 M355.10,242.17L354.00,249.63 M355.43,219.42L355.71,228.22 M354.17,206.66L355.29,214.26 M354.00,206.81L355.10,214.26 M322.52,206.25L337.05,204.47 M342.07,200.25L372.27,197.64 M339.63,201.39L330.41,202.51 M372.34,196.50L330.77,200.52 M332.23,199.50L344.26,198.27 M332.23,256.38L344.26,257.61 M322.52,249.63L337.08,251.38 M322.52,249.63L337.05,251.41 M322.86,206.21L337.08,204.43 M342.24,242.11L331.22,241.87 M331.22,235.96L342.24,238.27 M331.19,240.13L342.27,240.87 M331.22,239.64L342.27,240.76 M331.22,238.10L342.27,239.54 M342.24,213.79L331.22,214.02 M342.24,217.63L331.22,219.94 M331.22,217.80L342.27,216.36 M331.22,216.25L342.27,215.14 M342.24,231.79L331.22,233.93 M342.24,224.11L331.22,221.98 M341.65,229.44L331.54,230.44 M341.65,226.46L331.54,225.45 M331.54,226.43L341.65,226.71 M331.22,226.39L342.26,226.69 M331.54,229.47L341.65,229.18 M331.22,229.50L342.26,229.20 M311.43,280.67L305.82,280.55 M311.43,280.67L305.85,280.47 M311.51,280.83L305.81,280.71 M297.46,280.74L282.47,267.16 M282.16,266.70L279.02,258.38 M301.42,260.94L296.86,257.17 M301.42,260.94L295.35,260.88 M305.81,280.71L296.57,263.54 M304.85,285.90L285.12,267.56 M285.49,265.86L292.38,262.90 M285.65,266.14L292.49,263.17 M305.03,285.70L285.32,267.34 M311.43,280.67L301.54,261.09 M305.82,280.55L296.71,263.49 M311.43,175.21L305.82,175.33 M311.43,175.21L305.85,175.41 M311.52,175.05L305.81,175.17 M297.46,175.13L282.47,188.72 M282.16,189.19L279.02,197.50 M301.42,194.94L296.86,198.70 M301.42,194.94L295.35,195.00 M305.81,175.17L296.57,192.34 M305.03,170.18L285.32,188.54 M304.85,169.98L285.12,188.32 M285.49,190.02L292.39,192.98 M285.65,189.74L292.49,192.71 M285.54,189.95L292.41,192.96 M296.71,192.39L305.82,175.33 M292.30,276.92L285.97,275.52 M287.04,333.51L295.38,326.58 M283.41,326.83L281.61,321.46 M279.13,314.11L277.18,308.32 M277.18,308.32L272.97,296.49 M283.75,325.99L282.14,319.15 M288.69,296.40L282.22,296.35 M288.34,296.51L280.80,296.51 M288.34,296.32L280.76,296.33 M288.34,296.29L280.77,296.29 M280.80,302.54L288.34,302.54 M288.34,302.74L280.76,302.72 M288.34,302.76L280.77,302.76 M274.85,300.15L268.87,300.11 M255.13,299.40L275.05,299.41 M255.12,299.65L275.05,299.65 M274.03,299.41L255.10,299.40 M255.11,299.40L274.08,299.41 M255.13,300.59L275.05,300.59 M275.05,300.70L255.12,300.72 M275.05,300.14L254.97,300.20 M275.05,300.33L255.14,300.32 M255.14,300.55L275.05,300.64 M255.13,300.71L275.06,300.71 M275.05,300.14L254.97,300.15 M275.05,300.27L254.97,300.37 M275.06,298.34L255.13,298.34 M275.05,298.41L255.14,298.51 M275.05,298.73L255.14,298.74 M254.97,298.46L275.05,298.41 M255.13,298.35L275.05,298.35 M255.12,298.46L275.05,298.47 M275.05,298.92L254.97,298.91 M275.05,298.81L254.97,298.81 M254.97,298.63L275.05,298.62 M288.60,299.09L287.75,290.88 M287.62,290.51L286.28,278.02 M288.04,298.92L287.06,290.70" stroke="currentColor" stroke-width="0.6" stroke-linecap="round" fill="none" opacity="0.55" clip-path="url(#hull-clip)" filter="url(#glow)" />
  <path d="M 285.91,333.84 C 285.79,333.81 285.72,333.80 285.59,333.66 C 285.47,333.52 285.33,333.30 285.16,333.01 C 285.00,332.71 284.82,332.35 284.62,331.90 C 284.42,331.45 284.19,330.93 283.95,330.33 C 283.71,329.73 283.45,329.05 283.17,328.30 C 282.89,327.54 282.59,326.71 282.27,325.80 C 281.95,324.90 281.62,323.91 281.26,322.85 C 280.90,321.79 280.52,320.65 280.12,319.44 C 279.73,318.22 279.32,316.78 278.88,315.56 C 278.43,314.35 277.97,313.21 277.48,312.15 C 276.99,311.09 276.47,310.10 275.93,309.20 C 275.39,308.29 274.82,307.46 274.23,306.70 C 273.64,305.95 273.03,305.27 272.39,304.67 C 271.75,304.07 271.09,303.55 270.40,303.10 C 269.71,302.65 269.00,302.29 268.26,301.99 C 267.52,301.70 266.76,301.48 265.97,301.34 C 265.18,301.20 264.30,301.22 263.53,301.16 C 262.77,301.09 262.05,301.03 261.38,300.97 C 260.70,300.91 260.08,300.84 259.50,300.78 C 258.92,300.72 258.39,300.66 257.91,300.59 C 257.42,300.53 256.98,300.47 256.59,300.41 C 256.20,300.34 255.86,300.28 255.56,300.22 C 255.27,300.16 255.02,300.09 254.81,300.03 C 254.61,299.97 254.45,299.91 254.34,299.84 C 254.23,299.78 254.21,299.72 254.16,299.66 C 254.10,299.59 254.05,299.53 254.02,299.47 C 253.98,299.41 253.95,299.34 253.92,299.28 C 253.90,299.22 253.88,299.16 253.88,299.09 C 253.87,299.03 253.87,298.97 253.88,298.91 C 253.88,298.84 253.90,298.78 253.92,298.72 C 253.95,298.66 253.98,298.59 254.02,298.53 C 254.05,298.47 254.10,298.41 254.16,298.34 C 254.21,298.28 254.24,298.21 254.34,298.16 C 254.44,298.10 254.58,298.04 254.76,297.99 C 254.93,297.94 255.15,297.89 255.40,297.85 C 255.65,297.81 255.94,297.77 256.27,297.73 C 256.59,297.70 256.96,297.67 257.36,297.64 C 257.76,297.61 258.20,297.59 258.68,297.57 C 259.16,297.55 259.67,297.54 260.23,297.52 C 260.78,297.51 261.37,297.50 262.00,297.50 C 262.63,297.50 263.37,297.50 264.00,297.50 C 264.63,297.50 265.22,297.49 265.77,297.48 C 266.33,297.46 266.84,297.45 267.32,297.43 C 267.80,297.41 268.24,297.39 268.64,297.36 C 269.04,297.33 269.41,297.30 269.73,297.27 C 270.06,297.23 270.35,297.19 270.60,297.15 C 270.85,297.11 271.07,297.06 271.24,297.01 C 271.42,296.96 271.56,296.90 271.66,296.84 C 271.76,296.79 271.83,296.82 271.84,296.66 C 271.86,296.50 271.83,296.24 271.75,295.89 C 271.67,295.54 271.55,295.09 271.38,294.55 C 271.20,294.00 270.98,293.36 270.72,292.62 C 270.45,291.89 270.14,291.05 269.78,290.12 C 269.42,289.20 269.02,288.17 268.56,287.05 C 268.11,285.92 267.61,284.71 267.06,283.39 C 266.52,282.08 265.92,280.66 265.28,279.16 C 264.64,277.65 263.88,275.84 263.22,274.34 C 262.56,272.85 261.93,271.46 261.32,270.18 C 260.71,268.90 260.14,267.73 259.59,266.66 C 259.04,265.60 258.51,264.64 258.02,263.80 C 257.52,262.95 257.05,262.21 256.61,261.58 C 256.17,260.95 255.75,260.42 255.37,260.01 C 254.98,259.59 254.62,259.29 254.29,259.09 C 253.96,258.89 253.65,258.80 253.38,258.81 C 253.10,258.83 252.86,259.08 252.62,259.19 C 252.39,259.29 252.16,259.38 251.95,259.44 C 251.74,259.50 251.54,259.54 251.36,259.56 C 251.17,259.58 251.00,259.58 250.84,259.56 C 250.68,259.54 250.54,259.50 250.41,259.44 C 250.27,259.38 250.15,259.29 250.05,259.19 C 249.94,259.08 249.85,258.96 249.77,258.81 C 249.68,258.67 249.62,258.50 249.56,258.31 C 249.51,258.12 249.53,257.89 249.44,257.69 C 249.35,257.49 249.21,257.29 249.03,257.11 C 248.85,256.92 248.62,256.75 248.34,256.58 C 248.07,256.41 247.74,256.25 247.38,256.09 C 247.01,255.94 246.59,255.79 246.12,255.66 C 245.66,255.52 245.15,255.39 244.59,255.27 C 244.04,255.14 243.43,255.03 242.78,254.92 C 242.13,254.82 241.43,254.72 240.69,254.62 C 239.94,254.53 239.08,254.49 238.31,254.38 C 237.55,254.26 236.80,254.12 236.09,253.95 C 235.37,253.77 234.68,253.57 234.01,253.34 C 233.34,253.10 232.70,252.84 232.08,252.55 C 231.46,252.25 230.87,251.93 230.30,251.58 C 229.73,251.23 229.18,250.84 228.66,250.43 C 228.14,250.02 227.65,249.57 227.18,249.10 C 226.71,248.63 226.26,248.13 225.84,247.59 C 225.42,247.06 225.03,246.44 224.66,245.91 C 224.29,245.38 223.94,244.88 223.62,244.41 C 223.31,243.94 223.02,243.50 222.75,243.09 C 222.48,242.69 222.24,242.31 222.03,241.97 C 221.82,241.62 221.63,241.31 221.47,241.03 C 221.31,240.75 221.17,240.50 221.06,240.28 C 220.95,240.06 220.87,239.88 220.81,239.72 C 220.76,239.56 220.72,239.44 220.72,239.34 C 220.71,239.25 220.79,239.21 220.78,239.16 C 220.77,239.10 220.74,239.04 220.68,238.99 C 220.62,238.94 220.53,238.89 220.41,238.85 C 220.30,238.81 220.15,238.77 219.98,238.73 C 219.81,238.70 219.62,238.67 219.39,238.64 C 219.17,238.61 218.91,238.59 218.63,238.57 C 218.35,238.55 218.05,238.54 217.71,238.52 C 217.38,238.51 217.01,238.50 216.62,238.50 C 216.24,238.50 215.77,238.49 215.38,238.50 C 214.98,238.51 214.60,238.52 214.25,238.55 C 213.90,238.57 213.56,238.60 213.25,238.64 C 212.94,238.68 212.65,238.73 212.38,238.78 C 212.10,238.84 211.85,238.90 211.62,238.97 C 211.40,239.04 211.19,239.12 211.00,239.20 C 210.81,239.29 210.65,239.38 210.50,239.48 C 210.35,239.59 210.23,239.70 210.12,239.81 C 210.02,239.93 209.98,240.08 209.88,240.19 C 209.77,240.30 209.63,240.39 209.47,240.47 C 209.31,240.55 209.12,240.61 208.91,240.66 C 208.69,240.70 208.45,240.73 208.19,240.75 C 207.92,240.77 207.63,240.77 207.31,240.75 C 206.99,240.73 206.65,240.70 206.28,240.66 C 205.91,240.61 205.52,240.55 205.09,240.47 C 204.67,240.39 204.22,240.30 203.75,240.19 C 203.28,240.08 202.75,239.93 202.25,239.81 C 201.75,239.70 201.25,239.59 200.75,239.48 C 200.25,239.38 199.75,239.29 199.25,239.20 C 198.75,239.12 198.25,239.04 197.75,238.97 C 197.25,238.90 196.75,238.84 196.25,238.78 C 195.75,238.73 195.25,238.68 194.75,238.64 C 194.25,238.60 193.75,238.57 193.25,238.55 C 192.75,238.52 192.25,238.51 191.75,238.50 C 191.25,238.49 190.73,238.50 190.25,238.50 C 189.77,238.50 189.32,238.49 188.90,238.48 C 188.47,238.46 188.07,238.45 187.70,238.43 C 187.32,238.41 186.97,238.39 186.64,238.36 C 186.31,238.33 186.01,238.30 185.73,238.27 C 185.46,238.23 185.20,238.19 184.98,238.15 C 184.75,238.11 184.55,238.06 184.37,238.01 C 184.19,237.96 184.04,237.90 183.91,237.84 C 183.78,237.79 183.69,237.72 183.59,237.66 C 183.50,237.59 183.41,237.52 183.33,237.45 C 183.25,237.38 183.17,237.31 183.11,237.23 C 183.04,237.16 182.99,237.08 182.94,237.00 C 182.89,236.92 182.85,236.84 182.81,236.75 C 182.78,236.66 182.75,236.58 182.73,236.48 C 182.72,236.39 182.71,236.30 182.70,236.20 C 182.70,236.11 182.71,236.01 182.72,235.91 C 182.73,235.80 182.79,235.70 182.78,235.59 C 182.77,235.49 182.74,235.39 182.67,235.28 C 182.61,235.18 182.51,235.07 182.39,234.97 C 182.27,234.86 182.12,234.76 181.94,234.66 C 181.76,234.55 181.55,234.45 181.31,234.34 C 181.08,234.24 180.81,234.14 180.52,234.03 C 180.22,233.93 179.90,233.82 179.55,233.72 C 179.20,233.61 178.82,233.51 178.41,233.41 C 178.00,233.30 177.50,233.21 177.09,233.09 C 176.68,232.97 176.30,232.83 175.95,232.68 C 175.59,232.52 175.26,232.35 174.96,232.16 C 174.66,231.98 174.39,231.77 174.14,231.55 C 173.89,231.32 173.68,231.08 173.48,230.83 C 173.29,230.57 173.13,230.30 172.99,230.01 C 172.86,229.72 172.75,229.41 172.66,229.09 C 172.58,228.76 172.53,228.42 172.50,228.06 C 172.47,227.70 172.48,227.30 172.50,226.94 C 172.52,226.58 172.57,226.24 172.65,225.91 C 172.72,225.59 172.82,225.28 172.95,224.99 C 173.07,224.70 173.22,224.43 173.39,224.17 C 173.56,223.92 173.76,223.68 173.98,223.45 C 174.21,223.23 174.45,223.02 174.73,222.84 C 175.00,222.65 175.30,222.48 175.62,222.32 C 175.94,222.17 176.29,222.03 176.66,221.91 C 177.03,221.79 177.47,221.70 177.84,221.59 C 178.21,221.49 178.56,221.38 178.88,221.27 C 179.20,221.17 179.50,221.06 179.77,220.95 C 180.05,220.83 180.29,220.72 180.52,220.61 C 180.74,220.50 180.94,220.38 181.11,220.27 C 181.28,220.15 181.43,220.03 181.55,219.91 C 181.68,219.80 181.78,219.68 181.85,219.55 C 181.93,219.43 181.98,219.31 182.00,219.19 C 182.02,219.06 181.98,218.93 182.00,218.81 C 182.02,218.69 182.05,218.57 182.11,218.45 C 182.16,218.34 182.24,218.22 182.33,218.11 C 182.42,218.00 182.53,217.89 182.66,217.78 C 182.78,217.67 182.93,217.57 183.09,217.47 C 183.26,217.37 183.44,217.27 183.64,217.17 C 183.84,217.08 184.06,216.98 184.30,216.89 C 184.53,216.80 184.79,216.71 185.06,216.62 C 185.34,216.54 185.63,216.45 185.94,216.38 C 186.24,216.30 186.57,216.22 186.91,216.16 C 187.24,216.09 187.60,216.03 187.97,215.97 C 188.34,215.91 188.72,215.86 189.12,215.81 C 189.53,215.77 189.94,215.72 190.38,215.69 C 190.81,215.65 191.26,215.62 191.72,215.59 C 192.18,215.57 192.66,215.55 193.16,215.53 C 193.65,215.52 194.16,215.51 194.69,215.50 C 195.21,215.49 195.79,215.51 196.31,215.50 C 196.84,215.49 197.35,215.48 197.84,215.47 C 198.34,215.45 198.82,215.43 199.28,215.41 C 199.74,215.38 200.19,215.35 200.62,215.31 C 201.06,215.28 201.47,215.23 201.88,215.19 C 202.28,215.14 202.66,215.09 203.03,215.03 C 203.40,214.97 203.76,214.91 204.09,214.84 C 204.43,214.78 204.76,214.70 205.06,214.62 C 205.37,214.55 205.66,214.45 205.94,214.38 C 206.22,214.30 206.48,214.25 206.73,214.20 C 206.99,214.16 207.23,214.13 207.45,214.11 C 207.68,214.09 207.89,214.09 208.09,214.09 C 208.29,214.10 208.48,214.12 208.66,214.16 C 208.83,214.19 208.99,214.24 209.14,214.30 C 209.29,214.36 209.42,214.43 209.55,214.52 C 209.67,214.60 209.78,214.70 209.88,214.81 C 209.97,214.92 210.02,215.07 210.12,215.19 C 210.23,215.30 210.35,215.41 210.48,215.52 C 210.62,215.62 210.78,215.71 210.95,215.80 C 211.13,215.88 211.32,215.96 211.53,216.03 C 211.74,216.10 211.97,216.16 212.22,216.22 C 212.47,216.27 212.73,216.32 213.02,216.36 C 213.30,216.40 213.60,216.43 213.92,216.45 C 214.24,216.48 214.58,216.49 214.94,216.50 C 215.29,216.51 215.68,216.54 216.06,216.50 C 216.44,216.46 216.82,216.38 217.20,216.27 C 217.59,216.15 217.97,215.99 218.36,215.80 C 218.75,215.60 219.14,215.37 219.53,215.09 C 219.92,214.82 220.32,214.51 220.72,214.16 C 221.12,213.80 221.52,213.41 221.92,212.98 C 222.33,212.55 222.73,212.09 223.14,211.58 C 223.55,211.07 223.96,210.52 224.38,209.94 C 224.79,209.35 225.18,208.65 225.62,208.06 C 226.07,207.47 226.53,206.91 227.02,206.39 C 227.50,205.87 228.01,205.38 228.55,204.92 C 229.08,204.47 229.64,204.04 230.22,203.66 C 230.80,203.27 231.40,202.91 232.03,202.59 C 232.66,202.27 233.31,201.99 233.98,201.73 C 234.66,201.48 235.36,201.26 236.08,201.08 C 236.80,200.89 237.54,200.74 238.31,200.62 C 239.08,200.51 239.94,200.47 240.69,200.38 C 241.43,200.28 242.13,200.18 242.78,200.06 C 243.43,199.95 244.04,199.82 244.59,199.69 C 245.15,199.55 245.66,199.41 246.12,199.25 C 246.59,199.09 247.01,198.93 247.38,198.75 C 247.74,198.57 248.07,198.39 248.34,198.19 C 248.62,197.99 248.85,197.78 249.03,197.56 C 249.21,197.34 249.35,197.11 249.44,196.88 C 249.53,196.64 249.51,196.35 249.56,196.12 C 249.62,195.90 249.68,195.70 249.77,195.53 C 249.85,195.36 249.94,195.21 250.05,195.09 C 250.15,194.97 250.27,194.88 250.41,194.81 C 250.54,194.74 250.68,194.70 250.84,194.69 C 251.00,194.67 251.17,194.68 251.36,194.72 C 251.54,194.76 251.74,194.82 251.95,194.91 C 252.16,194.99 252.39,195.11 252.62,195.25 C 252.86,195.39 253.10,195.69 253.38,195.75 C 253.65,195.81 253.96,195.75 254.29,195.59 C 254.62,195.42 254.98,195.14 255.37,194.76 C 255.75,194.37 256.17,193.87 256.61,193.27 C 257.05,192.66 257.52,191.94 258.02,191.11 C 258.51,190.28 259.04,189.34 259.59,188.29 C 260.14,187.24 260.71,186.08 261.32,184.80 C 261.93,183.53 262.56,182.15 263.22,180.66 C 263.88,179.16 264.64,177.35 265.28,175.84 C 265.92,174.34 266.52,172.92 267.06,171.61 C 267.61,170.29 268.11,169.08 268.56,167.95 C 269.02,166.83 269.42,165.80 269.78,164.88 C 270.14,163.95 270.45,163.11 270.72,162.38 C 270.98,161.64 271.20,161.00 271.38,160.45 C 271.55,159.91 271.67,159.46 271.75,159.11 C 271.83,158.76 271.86,158.50 271.84,158.34 C 271.83,158.18 271.76,158.21 271.66,158.16 C 271.56,158.10 271.42,158.04 271.24,157.99 C 271.07,157.94 270.85,157.89 270.60,157.85 C 270.35,157.81 270.06,157.77 269.73,157.73 C 269.41,157.70 269.04,157.67 268.64,157.64 C 268.24,157.61 267.80,157.59 267.32,157.57 C 266.84,157.55 266.33,157.54 265.77,157.52 C 265.22,157.51 264.63,157.50 264.00,157.50 C 263.37,157.50 262.63,157.50 262.00,157.50 C 261.37,157.50 260.78,157.49 260.23,157.48 C 259.67,157.46 259.16,157.45 258.68,157.43 C 258.20,157.41 257.76,157.39 257.36,157.36 C 256.96,157.33 256.59,157.30 256.27,157.27 C 255.94,157.23 255.65,157.19 255.40,157.15 C 255.15,157.11 254.93,157.06 254.76,157.01 C 254.58,156.96 254.44,156.90 254.34,156.84 C 254.24,156.79 254.21,156.72 254.16,156.66 C 254.10,156.59 254.05,156.53 254.02,156.47 C 253.98,156.41 253.95,156.34 253.92,156.28 C 253.90,156.22 253.88,156.16 253.88,156.09 C 253.87,156.03 253.87,155.97 253.88,155.91 C 253.88,155.84 253.90,155.78 253.92,155.72 C 253.95,155.66 253.98,155.59 254.02,155.53 C 254.05,155.47 254.10,155.41 254.16,155.34 C 254.21,155.28 254.23,155.22 254.34,155.16 C 254.45,155.09 254.61,155.03 254.81,154.97 C 255.02,154.91 255.27,154.84 255.56,154.78 C 255.86,154.72 256.20,154.66 256.59,154.59 C 256.98,154.53 257.42,154.47 257.91,154.41 C 258.39,154.34 258.92,154.28 259.50,154.22 C 260.08,154.16 260.70,154.09 261.38,154.03 C 262.05,153.97 262.77,153.91 263.53,153.84 C 264.30,153.78 265.18,153.80 265.97,153.66 C 266.76,153.51 267.53,153.29 268.28,152.98 C 269.03,152.68 269.76,152.29 270.47,151.83 C 271.18,151.36 271.86,150.82 272.53,150.19 C 273.20,149.56 273.84,148.85 274.47,148.06 C 275.09,147.27 275.70,146.40 276.28,145.45 C 276.86,144.50 277.43,143.47 277.97,142.36 C 278.51,141.25 279.03,140.05 279.53,138.78 C 280.03,137.51 280.49,135.97 280.97,134.72 C 281.44,133.47 281.91,132.33 282.38,131.30 C 282.84,130.26 283.30,129.34 283.75,128.52 C 284.20,127.70 284.65,126.98 285.09,126.38 C 285.54,125.77 285.97,125.27 286.41,124.88 C 286.84,124.48 287.27,124.20 287.69,124.02 C 288.11,123.84 288.53,123.76 288.94,123.80 C 289.35,123.83 289.76,123.97 290.16,124.22 C 290.56,124.47 290.98,124.90 291.34,125.28 C 291.71,125.66 292.05,126.07 292.36,126.50 C 292.67,126.93 292.95,127.39 293.20,127.88 C 293.46,128.36 293.68,128.87 293.88,129.41 C 294.07,129.94 294.24,130.51 294.38,131.09 C 294.51,131.68 294.62,132.30 294.70,132.94 C 294.78,133.58 294.84,134.24 294.86,134.94 C 294.88,135.63 294.88,136.35 294.84,137.09 C 294.81,137.84 294.72,138.62 294.66,139.41 C 294.60,140.19 294.54,140.99 294.48,141.80 C 294.43,142.61 294.38,143.43 294.33,144.27 C 294.28,145.10 294.23,145.95 294.19,146.81 C 294.14,147.67 294.10,148.55 294.06,149.44 C 294.02,150.33 293.99,151.23 293.95,152.14 C 293.92,153.05 293.89,153.98 293.86,154.92 C 293.83,155.86 293.80,156.82 293.78,157.78 C 293.76,158.75 293.74,159.78 293.72,160.72 C 293.69,161.65 293.67,162.55 293.63,163.40 C 293.60,164.25 293.56,165.06 293.52,165.82 C 293.48,166.58 293.44,167.31 293.39,167.98 C 293.34,168.66 293.29,169.30 293.23,169.89 C 293.18,170.48 293.12,171.03 293.05,171.54 C 292.99,172.05 292.92,172.51 292.85,172.93 C 292.78,173.35 292.70,173.73 292.62,174.06 C 292.55,174.40 292.45,174.67 292.38,174.94 C 292.30,175.21 292.24,175.46 292.20,175.70 C 292.15,175.93 292.11,176.14 292.09,176.34 C 292.06,176.53 292.05,176.70 292.05,176.86 C 292.05,177.01 292.06,177.15 292.08,177.27 C 292.10,177.38 292.13,177.48 292.18,177.55 C 292.23,177.63 292.28,177.69 292.35,177.73 C 292.42,177.76 292.50,177.78 292.59,177.78 C 292.69,177.78 292.79,177.76 292.91,177.72 C 293.02,177.68 293.16,177.61 293.30,177.52 C 293.45,177.44 293.61,177.33 293.79,177.20 C 293.96,177.06 294.15,176.91 294.36,176.73 C 294.56,176.56 294.78,176.36 295.02,176.14 C 295.25,175.92 295.50,175.68 295.76,175.41 C 296.02,175.15 296.30,174.86 296.59,174.55 C 296.88,174.25 297.18,173.92 297.50,173.56 C 297.82,173.21 298.17,172.79 298.50,172.44 C 298.83,172.08 299.16,171.75 299.48,171.44 C 299.81,171.12 300.13,170.83 300.45,170.56 C 300.77,170.29 301.09,170.04 301.41,169.81 C 301.72,169.58 302.03,169.38 302.34,169.19 C 302.65,169.00 302.96,168.83 303.27,168.69 C 303.57,168.54 303.87,168.42 304.17,168.31 C 304.47,168.21 304.77,168.12 305.06,168.06 C 305.36,168.00 305.65,167.97 305.94,167.94 C 306.22,167.90 306.50,167.88 306.77,167.87 C 307.05,167.85 307.31,167.85 307.57,167.85 C 307.83,167.86 308.08,167.87 308.33,167.89 C 308.57,167.91 308.81,167.94 309.05,167.98 C 309.28,168.02 309.51,168.07 309.73,168.13 C 309.95,168.19 310.16,168.26 310.37,168.34 C 310.57,168.41 310.77,168.50 310.97,168.59 C 311.16,168.69 311.39,168.74 311.53,168.91 C 311.67,169.07 311.77,169.30 311.81,169.59 C 311.86,169.89 311.86,170.24 311.81,170.66 C 311.77,171.07 311.67,171.55 311.53,172.09 C 311.39,172.64 311.20,173.24 310.97,173.91 C 310.73,174.57 310.45,175.30 310.12,176.09 C 309.80,176.89 309.42,177.74 309.00,178.66 C 308.58,179.57 308.11,180.55 307.59,181.59 C 307.08,182.64 306.38,183.87 305.91,184.91 C 305.43,185.94 305.04,186.92 304.74,187.82 C 304.44,188.73 304.23,189.56 304.10,190.34 C 303.98,191.11 303.94,191.81 303.98,192.45 C 304.03,193.09 304.17,193.67 304.39,194.17 C 304.61,194.68 304.92,195.12 305.32,195.49 C 305.72,195.87 306.20,196.17 306.77,196.41 C 307.35,196.65 308.00,196.83 308.75,196.94 C 309.50,197.05 310.36,197.03 311.25,197.06 C 312.14,197.09 313.08,197.11 314.08,197.12 C 315.08,197.14 316.13,197.14 317.23,197.12 C 318.34,197.11 319.50,197.09 320.72,197.06 C 321.93,197.03 323.21,196.99 324.53,196.94 C 325.86,196.89 327.24,196.82 328.67,196.75 C 330.11,196.68 331.60,196.59 333.14,196.50 C 334.68,196.41 336.28,196.30 337.94,196.19 C 339.59,196.07 341.45,195.93 343.06,195.81 C 344.68,195.69 346.21,195.58 347.64,195.47 C 349.08,195.36 350.42,195.26 351.67,195.16 C 352.92,195.06 354.09,194.96 355.16,194.88 C 356.23,194.79 357.21,194.70 358.09,194.62 C 358.98,194.55 359.78,194.47 360.48,194.41 C 361.19,194.34 361.80,194.28 362.33,194.22 C 362.85,194.16 363.28,194.11 363.62,194.06 C 363.97,194.02 364.13,193.99 364.38,193.94 C 364.62,193.89 364.85,193.82 365.08,193.75 C 365.30,193.68 365.52,193.59 365.73,193.50 C 365.95,193.41 366.15,193.30 366.34,193.19 C 366.54,193.07 366.73,192.95 366.91,192.81 C 367.09,192.68 367.26,192.53 367.42,192.38 C 367.59,192.22 367.74,192.05 367.89,191.88 C 368.04,191.70 368.18,191.51 368.31,191.31 C 368.45,191.11 368.56,190.88 368.69,190.69 C 368.82,190.49 368.95,190.31 369.08,190.14 C 369.21,189.97 369.35,189.82 369.48,189.67 C 369.62,189.53 369.76,189.40 369.91,189.28 C 370.05,189.16 370.20,189.06 370.34,188.97 C 370.49,188.88 370.64,188.80 370.80,188.73 C 370.95,188.67 371.11,188.62 371.27,188.58 C 371.42,188.54 371.59,188.51 371.75,188.50 C 371.91,188.49 372.09,188.49 372.25,188.50 C 372.41,188.51 372.57,188.53 372.72,188.56 C 372.87,188.59 373.02,188.64 373.16,188.69 C 373.30,188.74 373.43,188.80 373.56,188.88 C 373.69,188.95 373.82,189.03 373.94,189.12 C 374.06,189.22 374.17,189.32 374.28,189.44 C 374.39,189.55 374.49,189.68 374.59,189.81 C 374.69,189.95 374.79,190.09 374.88,190.25 C 374.96,190.41 375.02,190.59 375.12,190.75 C 375.23,190.91 375.34,191.06 375.48,191.20 C 375.61,191.33 375.76,191.46 375.93,191.59 C 376.10,191.71 376.28,191.82 376.48,191.92 C 376.69,192.02 376.90,192.12 377.14,192.20 C 377.38,192.29 377.63,192.36 377.90,192.43 C 378.17,192.50 378.45,192.55 378.76,192.60 C 379.06,192.65 379.38,192.69 379.72,192.72 C 380.06,192.75 380.45,192.75 380.78,192.78 C 381.11,192.81 381.41,192.85 381.69,192.91 C 381.96,192.96 382.21,193.02 382.44,193.09 C 382.66,193.17 382.86,193.25 383.03,193.34 C 383.20,193.44 383.35,193.54 383.47,193.66 C 383.59,193.77 383.68,193.90 383.75,194.03 C 383.82,194.17 383.86,194.31 383.88,194.47 C 383.89,194.62 383.88,194.79 383.84,194.97 C 383.81,195.15 383.74,195.34 383.66,195.53 C 383.57,195.72 383.46,195.91 383.34,196.10 C 383.21,196.29 383.06,196.49 382.88,196.68 C 382.71,196.87 382.51,197.07 382.30,197.27 C 382.08,197.46 381.84,197.66 381.58,197.86 C 381.32,198.06 381.03,198.26 380.73,198.46 C 380.42,198.66 380.09,198.87 379.74,199.07 C 379.39,199.27 379.02,199.48 378.62,199.69 C 378.23,199.89 377.79,200.12 377.38,200.31 C 376.96,200.51 376.55,200.69 376.14,200.86 C 375.73,201.03 375.33,201.18 374.92,201.33 C 374.52,201.47 374.12,201.60 373.72,201.72 C 373.32,201.84 372.92,201.94 372.53,202.03 C 372.14,202.12 371.75,202.20 371.36,202.27 C 370.97,202.33 370.59,202.38 370.20,202.42 C 369.82,202.46 369.44,202.49 369.06,202.50 C 368.68,202.51 368.29,202.50 367.94,202.50 C 367.58,202.50 367.25,202.51 366.93,202.52 C 366.61,202.54 366.32,202.55 366.04,202.57 C 365.76,202.59 365.50,202.61 365.27,202.64 C 365.03,202.67 364.81,202.70 364.61,202.73 C 364.41,202.77 364.23,202.81 364.07,202.85 C 363.91,202.89 363.77,202.94 363.65,202.99 C 363.53,203.04 363.43,203.10 363.34,203.16 C 363.26,203.21 363.21,203.16 363.16,203.34 C 363.10,203.52 363.04,203.82 362.99,204.24 C 362.94,204.66 362.89,205.20 362.85,205.85 C 362.81,206.51 362.77,207.28 362.73,208.17 C 362.70,209.06 362.67,210.07 362.64,211.20 C 362.61,212.33 362.59,213.58 362.57,214.95 C 362.55,216.31 362.54,217.80 362.52,219.40 C 362.51,221.00 362.50,222.72 362.50,224.56 C 362.50,226.40 362.47,228.60 362.50,230.44 C 362.53,232.28 362.58,234.00 362.66,235.60 C 362.75,237.20 362.86,238.69 362.99,240.05 C 363.13,241.42 363.29,242.67 363.48,243.80 C 363.68,244.93 363.89,245.94 364.14,246.83 C 364.39,247.72 364.66,248.49 364.96,249.15 C 365.26,249.80 365.59,250.34 365.95,250.76 C 366.30,251.18 366.68,251.48 367.09,251.66 C 367.50,251.84 367.97,251.77 368.41,251.84 C 368.84,251.92 369.28,252.00 369.71,252.09 C 370.14,252.18 370.58,252.27 371.01,252.38 C 371.44,252.49 371.87,252.61 372.30,252.73 C 372.73,252.86 373.15,253.00 373.58,253.14 C 374.00,253.29 374.43,253.44 374.85,253.60 C 375.27,253.76 375.70,253.94 376.12,254.12 C 376.54,254.30 376.96,254.49 377.38,254.69 C 377.79,254.89 378.23,255.11 378.62,255.31 C 379.02,255.52 379.39,255.73 379.74,255.93 C 380.09,256.13 380.42,256.34 380.73,256.54 C 381.03,256.74 381.32,256.94 381.58,257.14 C 381.84,257.34 382.08,257.54 382.30,257.73 C 382.51,257.93 382.71,258.13 382.88,258.32 C 383.06,258.51 383.21,258.71 383.34,258.90 C 383.46,259.09 383.57,259.28 383.66,259.47 C 383.74,259.66 383.81,259.85 383.84,260.03 C 383.88,260.21 383.89,260.38 383.88,260.53 C 383.86,260.69 383.82,260.83 383.75,260.97 C 383.68,261.10 383.59,261.23 383.47,261.34 C 383.35,261.46 383.20,261.56 383.03,261.66 C 382.86,261.75 382.66,261.83 382.44,261.91 C 382.21,261.98 381.96,262.04 381.69,262.09 C 381.41,262.15 381.11,262.19 380.78,262.22 C 380.45,262.25 380.05,262.25 379.72,262.28 C 379.38,262.31 379.07,262.34 378.77,262.38 C 378.48,262.42 378.20,262.47 377.95,262.52 C 377.69,262.58 377.45,262.64 377.23,262.70 C 377.02,262.77 376.82,262.84 376.64,262.92 C 376.46,263.00 376.30,263.09 376.16,263.18 C 376.02,263.27 375.90,263.37 375.80,263.48 C 375.70,263.58 375.62,263.69 375.56,263.81 C 375.50,263.93 375.49,264.07 375.44,264.19 C 375.39,264.31 375.32,264.42 375.25,264.53 C 375.18,264.64 375.09,264.74 375.00,264.84 C 374.91,264.94 374.80,265.04 374.69,265.12 C 374.57,265.21 374.45,265.30 374.31,265.38 C 374.18,265.45 374.03,265.53 373.88,265.59 C 373.72,265.66 373.55,265.72 373.38,265.78 C 373.20,265.84 373.01,265.89 372.81,265.94 C 372.61,265.98 372.39,266.04 372.19,266.06 C 371.98,266.09 371.79,266.10 371.59,266.09 C 371.40,266.09 371.21,266.07 371.03,266.03 C 370.85,265.99 370.67,265.94 370.50,265.88 C 370.33,265.81 370.16,265.72 370.00,265.62 C 369.84,265.53 369.68,265.41 369.53,265.28 C 369.38,265.15 369.23,265.01 369.09,264.84 C 368.95,264.68 368.82,264.51 368.69,264.31 C 368.56,264.12 368.45,263.89 368.31,263.69 C 368.18,263.49 368.04,263.30 367.89,263.12 C 367.74,262.95 367.59,262.78 367.42,262.62 C 367.26,262.47 367.09,262.32 366.91,262.19 C 366.73,262.05 366.54,261.93 366.34,261.81 C 366.15,261.70 365.95,261.59 365.73,261.50 C 365.52,261.41 365.30,261.32 365.08,261.25 C 364.85,261.18 364.62,261.11 364.38,261.06 C 364.13,261.01 364.02,260.98 363.62,260.94 C 363.23,260.89 362.70,260.84 362.02,260.78 C 361.34,260.72 360.51,260.66 359.55,260.59 C 358.58,260.53 357.47,260.45 356.22,260.38 C 354.97,260.30 353.57,260.21 352.03,260.12 C 350.49,260.04 348.81,259.94 346.98,259.84 C 345.16,259.74 343.19,259.64 341.08,259.53 C 338.97,259.42 336.71,259.31 334.31,259.19 C 331.91,259.07 329.04,258.86 326.69,258.81 C 324.34,258.76 322.19,258.79 320.23,258.90 C 318.27,259.00 316.50,259.19 314.93,259.45 C 313.36,259.70 311.98,260.04 310.80,260.45 C 309.61,260.87 308.62,261.36 307.83,261.92 C 307.03,262.49 306.43,263.13 306.02,263.85 C 305.62,264.57 305.40,265.37 305.38,266.24 C 305.36,267.12 305.54,268.07 305.91,269.09 C 306.27,270.12 307.08,271.36 307.59,272.41 C 308.11,273.45 308.58,274.43 309.00,275.36 C 309.42,276.28 309.80,277.15 310.12,277.95 C 310.45,278.76 310.73,279.50 310.97,280.19 C 311.20,280.87 311.39,281.50 311.53,282.06 C 311.67,282.63 311.77,283.13 311.81,283.58 C 311.86,284.02 311.86,284.41 311.81,284.73 C 311.77,285.06 311.67,285.33 311.53,285.53 C 311.39,285.74 311.17,285.83 310.97,285.97 C 310.77,286.10 310.57,286.23 310.35,286.34 C 310.14,286.45 309.91,286.55 309.68,286.63 C 309.45,286.72 309.20,286.80 308.95,286.86 C 308.70,286.92 308.44,286.98 308.17,287.02 C 307.90,287.06 307.62,287.08 307.34,287.10 C 307.05,287.12 306.75,287.12 306.45,287.12 C 306.14,287.11 305.82,287.09 305.50,287.06 C 305.18,287.03 304.81,286.98 304.50,286.94 C 304.19,286.89 303.90,286.85 303.63,286.80 C 303.37,286.76 303.12,286.71 302.90,286.66 C 302.68,286.62 302.48,286.57 302.30,286.52 C 302.12,286.46 301.96,286.41 301.83,286.36 C 301.69,286.31 301.58,286.25 301.49,286.20 C 301.40,286.14 301.33,286.08 301.29,286.02 C 301.24,285.96 301.22,285.90 301.22,285.84 C 301.22,285.78 301.28,285.73 301.28,285.66 C 301.28,285.58 301.26,285.48 301.22,285.38 C 301.18,285.27 301.11,285.14 301.03,285.00 C 300.95,284.86 300.84,284.70 300.72,284.53 C 300.59,284.36 300.45,284.17 300.28,283.97 C 300.11,283.77 299.93,283.55 299.72,283.31 C 299.51,283.08 299.28,282.83 299.03,282.56 C 298.78,282.30 298.51,282.02 298.22,281.72 C 297.93,281.42 297.58,281.07 297.28,280.78 C 296.98,280.49 296.70,280.22 296.44,279.97 C 296.17,279.72 295.92,279.49 295.69,279.28 C 295.45,279.07 295.23,278.89 295.03,278.72 C 294.83,278.55 294.64,278.41 294.47,278.28 C 294.30,278.16 294.14,278.05 294.00,277.97 C 293.86,277.89 293.73,277.82 293.62,277.78 C 293.52,277.74 293.42,277.72 293.34,277.72 C 293.27,277.72 293.21,277.64 293.16,277.78 C 293.11,277.93 293.07,278.19 293.04,278.59 C 293.01,278.98 293.00,279.49 292.99,280.13 C 292.99,280.77 293.00,281.54 293.02,282.42 C 293.04,283.31 293.07,284.32 293.11,285.45 C 293.15,286.59 293.21,287.85 293.27,289.23 C 293.34,290.61 293.42,292.11 293.51,293.74 C 293.60,295.37 293.70,297.12 293.81,299.00 C 293.93,300.88 294.09,303.10 294.19,305.00 C 294.28,306.90 294.35,308.69 294.38,310.38 C 294.42,312.07 294.42,313.66 294.40,315.15 C 294.37,316.63 294.32,318.02 294.23,319.30 C 294.15,320.58 294.04,321.75 293.89,322.83 C 293.75,323.90 293.57,324.87 293.37,325.74 C 293.16,326.61 292.93,327.38 292.66,328.04 C 292.40,328.70 292.11,329.26 291.78,329.72 C 291.46,330.18 291.06,330.45 290.72,330.78 C 290.38,331.11 290.06,331.41 289.75,331.69 C 289.44,331.96 289.15,332.21 288.88,332.44 C 288.60,332.66 288.34,332.86 288.09,333.03 C 287.85,333.20 287.62,333.35 287.41,333.47 C 287.19,333.59 286.99,333.68 286.81,333.75 C 286.63,333.82 286.46,333.86 286.31,333.88 C 286.16,333.89 286.03,333.88 285.91,333.84 Z" fill="none" stroke="currentColor" stroke-width="1.5" stroke-linejoin="round" stroke-linecap="round" filter="url(#glow)" />
</svg>