<svg xmlns="http://www.w3.org/2000/svg" width="512" height="512" viewBox="132.30 152.30 239.65 206.40" preserveAspectRatio="xMidYMid meet">
  <defs>
    <filter id="glow" x="-30%" y="-30%" width="160%" height="160%">
      <feGaussianBlur in="SourceGraphic" stdDeviation="2.4" result="blur" />
      <feMerge>
        <feMergeNode in="blur" />
        <feMergeNode in="SourceGraphic" />
      </feMerge>
    </filter>
    <clipPath id="hull-clip">
      <path d="M 293.44,341.50 C 292.80,341.51 292.16,341.51 291.56,341.50 C 290.96,341.49 290.38,341.46 289.83,341.42 C 289.27,341.38 288.74,341.33 288.23,341.27 C 287.73,341.20 287.24,341.12 286.78,341.03 C 286.32,340.94 285.88,340.84 285.47,340.72 C 285.05,340.60 284.66,340.47 284.30,340.33 C 283.93,340.18 283.59,340.03 283.27,339.86 C 282.95,339.69 282.65,339.51 282.38,339.31 C 282.10,339.12 281.89,338.88 281.62,338.69 C 281.36,338.49 281.08,338.32 280.78,338.16 C 280.48,337.99 280.17,337.85 279.84,337.72 C 279.52,337.59 279.17,337.47 278.81,337.38 C 278.45,337.28 278.08,337.19 277.69,337.12 C 277.30,337.06 276.89,337.01 276.47,336.97 C 276.05,336.93 275.61,336.91 275.16,336.91 C 274.70,336.90 274.23,336.91 273.75,336.94 C 273.27,336.96 272.73,337.03 272.25,337.06 C 271.77,337.10 271.32,337.13 270.88,337.15 C 270.45,337.17 270.04,337.19 269.65,337.20 C 269.26,337.20 268.89,337.21 268.55,337.20 C 268.20,337.20 267.88,337.19 267.58,337.17 C 267.28,337.15 267.00,337.13 266.74,337.10 C 266.49,337.07 266.25,337.04 266.04,336.99 C 265.83,336.95 265.64,336.90 265.47,336.84 C 265.30,336.79 265.17,336.76 265.03,336.66 C 264.90,336.55 264.77,336.41 264.66,336.23 C 264.54,336.05 264.44,335.84 264.34,335.58 C 264.25,335.32 264.17,335.02 264.09,334.69 C 264.02,334.35 263.96,333.98 263.91,333.56 C 263.85,333.15 263.81,332.70 263.78,332.20 C 263.75,331.71 263.73,331.18 263.72,330.61 C 263.71,330.04 263.71,329.43 263.72,328.78 C 263.73,328.13 263.73,327.36 263.78,326.72 C 263.83,326.07 263.91,325.47 264.02,324.91 C 264.13,324.36 264.27,323.84 264.45,323.37 C 264.62,322.89 264.82,322.46 265.05,322.08 C 265.28,321.69 265.54,321.35 265.83,321.05 C 266.12,320.75 266.44,320.49 266.79,320.27 C 267.14,320.06 267.52,319.89 267.93,319.76 C 268.34,319.63 268.78,319.54 269.25,319.50 C 269.72,319.46 270.26,319.51 270.75,319.50 C 271.24,319.49 271.71,319.48 272.17,319.45 C 272.63,319.43 273.08,319.40 273.52,319.36 C 273.95,319.32 274.37,319.27 274.78,319.22 C 275.19,319.16 275.59,319.10 275.97,319.03 C 276.35,318.96 276.72,318.88 277.08,318.80 C 277.43,318.71 277.78,318.62 278.11,318.52 C 278.44,318.41 278.76,318.30 279.06,318.19 C 279.37,318.07 279.66,317.94 279.94,317.81 C 280.22,317.68 280.49,317.55 280.75,317.42 C 281.01,317.29 281.26,317.15 281.50,317.02 C 281.74,316.88 281.97,316.74 282.19,316.59 C 282.41,316.45 282.61,316.30 282.81,316.16 C 283.01,316.01 283.20,315.86 283.38,315.70 C 283.55,315.55 283.72,315.39 283.88,315.23 C 284.03,315.08 284.18,314.91 284.31,314.75 C 284.45,314.59 284.54,314.41 284.69,314.25 C 284.83,314.09 285.00,313.94 285.20,313.80 C 285.39,313.67 285.60,313.54 285.84,313.41 C 286.07,313.29 286.33,313.18 286.61,313.08 C 286.89,312.98 287.19,312.88 287.52,312.80 C 287.84,312.71 288.19,312.64 288.55,312.57 C 288.92,312.50 289.31,312.45 289.73,312.40 C 290.14,312.35 290.57,312.31 291.03,312.28 C 291.49,312.25 292.03,312.25 292.47,312.22 C 292.91,312.18 293.31,312.14 293.67,312.08 C 294.03,312.02 294.36,311.95 294.64,311.86 C 294.92,311.77 295.17,311.67 295.38,311.56 C 295.58,311.45 295.75,311.33 295.88,311.19 C 296.00,311.05 296.09,310.90 296.14,310.73 C 296.19,310.57 296.20,310.39 296.17,310.20 C 296.14,310.01 296.08,309.81 295.97,309.59 C 295.86,309.38 295.74,309.15 295.53,308.91 C 295.33,308.66 295.06,308.39 294.74,308.10 C 294.42,307.81 294.04,307.51 293.60,307.18 C 293.16,306.85 292.67,306.51 292.11,306.14 C 291.55,305.77 290.94,305.39 290.27,304.98 C 289.59,304.58 288.86,304.15 288.07,303.71 C 287.28,303.27 286.43,302.80 285.52,302.32 C 284.62,301.84 283.65,301.33 282.62,300.81 C 281.60,300.29 280.41,299.70 279.38,299.19 C 278.34,298.67 277.36,298.18 276.42,297.72 C 275.49,297.26 274.60,296.82 273.77,296.41 C 272.93,295.99 272.14,295.61 271.41,295.25 C 270.67,294.89 269.98,294.56 269.34,294.25 C 268.71,293.94 268.12,293.66 267.58,293.41 C 267.04,293.15 266.55,292.92 266.11,292.72 C 265.67,292.52 265.28,292.34 264.94,292.19 C 264.60,292.04 264.37,291.93 264.06,291.81 C 263.76,291.70 263.43,291.59 263.09,291.48 C 262.76,291.38 262.40,291.29 262.03,291.20 C 261.66,291.12 261.28,291.04 260.88,290.97 C 260.47,290.90 260.06,290.84 259.62,290.78 C 259.19,290.73 258.74,290.68 258.28,290.64 C 257.82,290.60 257.34,290.57 256.84,290.55 C 256.35,290.52 255.84,290.51 255.31,290.50 C 254.79,290.49 254.26,290.52 253.69,290.50 C 253.12,290.48 252.52,290.43 251.89,290.36 C 251.26,290.29 250.61,290.20 249.92,290.08 C 249.24,289.96 248.52,289.82 247.78,289.66 C 247.04,289.49 246.27,289.30 245.47,289.09 C 244.67,288.88 243.84,288.65 242.98,288.39 C 242.13,288.13 241.24,287.85 240.33,287.55 C 239.41,287.24 238.47,286.91 237.50,286.56 C 236.53,286.21 235.48,285.79 234.50,285.44 C 233.52,285.09 232.55,284.76 231.61,284.45 C 230.66,284.15 229.74,283.87 228.83,283.61 C 227.92,283.35 227.03,283.12 226.16,282.91 C 225.28,282.70 224.43,282.51 223.59,282.34 C 222.76,282.18 221.94,282.04 221.14,281.92 C 220.34,281.80 219.56,281.71 218.80,281.64 C 218.03,281.57 217.29,281.52 216.56,281.50 C 215.84,281.48 215.11,281.51 214.44,281.50 C 213.77,281.49 213.14,281.48 212.55,281.47 C 211.96,281.45 211.40,281.43 210.89,281.41 C 210.38,281.38 209.90,281.35 209.47,281.31 C 209.03,281.28 208.64,281.23 208.28,281.19 C 207.92,281.14 207.61,281.09 207.33,281.03 C 207.05,280.97 206.81,280.91 206.61,280.84 C 206.41,280.78 206.25,280.70 206.12,280.62 C 206.00,280.55 205.97,280.45 205.88,280.38 C 205.78,280.30 205.68,280.23 205.56,280.17 C 205.45,280.11 205.32,280.06 205.19,280.02 C 205.05,279.97 204.91,279.93 204.75,279.91 C 204.59,279.88 204.43,279.86 204.25,279.84 C 204.07,279.83 203.89,279.83 203.69,279.83 C 203.49,279.83 203.28,279.84 203.06,279.86 C 202.84,279.88 202.61,279.90 202.38,279.94 C 202.14,279.97 201.86,280.03 201.62,280.06 C 201.39,280.10 201.16,280.12 200.94,280.14 C 200.72,280.16 200.51,280.17 200.31,280.17 C 200.11,280.17 199.93,280.17 199.75,280.16 C 199.57,280.14 199.41,280.12 199.25,280.09 C 199.09,280.07 198.95,280.03 198.81,279.98 C 198.68,279.94 198.55,279.89 198.44,279.83 C 198.32,279.77 198.22,279.70 198.12,279.62 C 198.03,279.55 197.97,279.45 197.88,279.38 C 197.78,279.30 197.68,279.22 197.56,279.16 C 197.45,279.09 197.32,279.03 197.19,278.97 C 197.05,278.91 196.91,278.86 196.75,278.81 C 196.59,278.77 196.43,278.72 196.25,278.69 C 196.07,278.65 195.89,278.62 195.69,278.59 C 195.49,278.57 195.28,278.55 195.06,278.53 C 194.84,278.52 194.61,278.51 194.38,278.50 C 194.14,278.49 193.87,278.48 193.62,278.50 C 193.38,278.52 193.13,278.55 192.89,278.61 C 192.65,278.66 192.41,278.74 192.17,278.83 C 191.93,278.92 191.70,279.03 191.47,279.16 C 191.24,279.28 191.01,279.43 190.78,279.59 C 190.55,279.76 190.33,279.94 190.11,280.14 C 189.89,280.34 189.67,280.56 189.45,280.80 C 189.24,281.03 189.02,281.29 188.81,281.56 C 188.60,281.84 188.43,282.17 188.19,282.44 C 187.94,282.71 187.66,282.95 187.34,283.17 C 187.03,283.39 186.67,283.59 186.28,283.77 C 185.89,283.94 185.46,284.09 185.00,284.22 C 184.54,284.35 184.04,284.45 183.50,284.53 C 182.96,284.61 182.39,284.67 181.78,284.70 C 181.17,284.74 180.53,284.75 179.84,284.73 C 179.16,284.72 178.44,284.68 177.69,284.62 C 176.93,284.57 176.07,284.48 175.31,284.38 C 174.56,284.27 173.84,284.15 173.16,284.00 C 172.47,283.85 171.83,283.69 171.22,283.50 C 170.61,283.31 170.04,283.10 169.50,282.88 C 168.96,282.65 168.46,282.40 168.00,282.12 C 167.54,281.85 167.11,281.56 166.72,281.25 C 166.33,280.94 165.97,280.60 165.66,280.25 C 165.34,279.90 165.06,279.52 164.81,279.12 C 164.57,278.73 164.41,278.27 164.19,277.88 C 163.96,277.48 163.72,277.11 163.47,276.77 C 163.21,276.42 162.94,276.10 162.66,275.80 C 162.37,275.50 162.07,275.22 161.75,274.97 C 161.43,274.72 161.10,274.49 160.75,274.28 C 160.40,274.08 160.04,273.89 159.66,273.73 C 159.28,273.58 158.88,273.44 158.47,273.33 C 158.06,273.22 157.63,273.13 157.19,273.06 C 156.74,273.00 156.25,272.98 155.81,272.94 C 155.38,272.89 154.97,272.84 154.59,272.79 C 154.20,272.74 153.84,272.68 153.51,272.62 C 153.17,272.56 152.86,272.49 152.58,272.42 C 152.29,272.35 152.03,272.28 151.80,272.20 C 151.56,272.13 151.35,272.05 151.16,271.96 C 150.98,271.88 150.82,271.79 150.68,271.70 C 150.54,271.60 150.43,271.51 150.34,271.41 C 150.26,271.31 150.21,271.27 150.16,271.09 C 150.10,270.92 150.04,270.68 149.99,270.37 C 149.94,270.06 149.89,269.68 149.85,269.23 C 149.81,268.78 149.77,268.26 149.73,267.67 C 149.70,267.08 149.67,266.43 149.64,265.70 C 149.61,264.98 149.59,264.18 149.57,263.32 C 149.55,262.46 149.54,261.52 149.52,260.52 C 149.51,259.52 149.50,258.45 149.50,257.31 C 149.50,256.17 149.50,254.83 149.50,253.69 C 149.50,252.55 149.51,251.48 149.52,250.48 C 149.54,249.48 149.55,248.54 149.57,247.68 C 149.59,246.82 149.61,246.02 149.64,245.30 C 149.67,244.57 149.70,243.92 149.73,243.33 C 149.77,242.74 149.81,242.22 149.85,241.77 C 149.89,241.32 149.94,240.94 149.99,240.63 C 150.04,240.32 150.10,240.08 150.16,239.91 C 150.21,239.73 150.26,239.69 150.34,239.59 C 150.43,239.49 150.54,239.40 150.68,239.30 C 150.82,239.21 150.98,239.12 151.16,239.04 C 151.35,238.95 151.56,238.87 151.80,238.80 C 152.03,238.72 152.29,238.65 152.58,238.58 C 152.86,238.51 153.17,238.44 153.51,238.38 C 153.84,238.32 154.20,238.26 154.59,238.21 C 154.97,238.16 155.38,238.11 155.81,238.06 C 156.25,238.02 156.74,238.00 157.19,237.94 C 157.63,237.87 158.06,237.78 158.47,237.67 C 158.88,237.56 159.28,237.42 159.66,237.27 C 160.04,237.11 160.40,236.92 160.75,236.72 C 161.10,236.51 161.43,236.28 161.75,236.03 C 162.07,235.78 162.37,235.50 162.66,235.20 C 162.94,234.90 163.21,234.58 163.47,234.23 C 163.72,233.89 163.96,233.52 164.19,233.12 C 164.41,232.73 164.57,232.27 164.81,231.88 C 165.06,231.48 165.34,231.10 165.66,230.75 C 165.97,230.40 166.33,230.06 166.72,229.75 C 167.11,229.44 167.54,229.15 168.00,228.88 C 168.46,228.60 168.96,228.35 169.50,228.12 C 170.04,227.90 170.61,227.69 171.22,227.50 C 171.83,227.31 172.47,227.15 173.16,227.00 C 173.84,226.85 174.56,226.73 175.31,226.62 C 176.07,226.52 176.93,226.43 177.69,226.38 C 178.44,226.32 179.16,226.28 179.84,226.27 C 180.53,226.25 181.17,226.26 181.78,226.30 C 182.39,226.33 182.96,226.39 183.50,226.47 C 184.04,226.55 184.54,226.65 185.00,226.78 C 185.46,226.91 185.89,227.06 186.28,227.23 C 186.67,227.41 187.03,227.61 187.34,227.83 C 187.66,228.05 187.94,228.29 188.19,228.56 C 188.43,228.83 188.60,229.16 188.81,229.44 C 189.02,229.71 189.24,229.97 189.45,230.20 C 189.67,230.44 189.89,230.66 190.11,230.86 C 190.33,231.06 190.55,231.24 190.78,231.41 C 191.01,231.57 191.24,231.72 191.47,231.84 C 191.70,231.97 191.93,232.08 192.17,232.17 C 192.41,232.26 192.65,232.34 192.89,232.39 C 193.13,232.45 193.38,232.48 193.62,232.50 C 193.87,232.52 194.12,232.50 194.38,232.50 C 194.63,232.50 194.89,232.49 195.16,232.48 C 195.42,232.48 195.69,232.47 195.97,232.45 C 196.24,232.44 196.53,232.42 196.81,232.41 C 197.10,232.39 197.39,232.37 197.69,232.34 C 197.98,232.32 198.29,232.29 198.59,232.27 C 198.90,232.24 199.21,232.21 199.53,232.17 C 199.85,232.14 200.17,232.10 200.50,232.06 C 200.83,232.02 201.18,231.98 201.50,231.94 C 201.82,231.89 202.12,231.85 202.41,231.80 C 202.69,231.75 202.96,231.70 203.22,231.64 C 203.47,231.59 203.71,231.53 203.94,231.47 C 204.16,231.41 204.37,231.35 204.56,231.28 C 204.76,231.22 204.93,231.15 205.09,231.08 C 205.26,231.01 205.40,230.93 205.53,230.86 C 205.66,230.78 205.78,230.71 205.88,230.62 C 205.97,230.54 206.00,230.45 206.12,230.38 C 206.25,230.30 206.41,230.22 206.61,230.16 C 206.81,230.09 207.05,230.03 207.33,229.97 C 207.61,229.91 207.92,229.86 208.28,229.81 C 208.64,229.77 209.03,229.72 209.47,229.69 C 209.90,229.65 210.38,229.62 210.89,229.59 C 211.40,229.57 211.96,229.55 212.55,229.53 C 213.14,229.52 213.77,229.51 214.44,229.50 C 215.11,229.49 215.84,229.52 216.56,229.50 C 217.29,229.48 218.03,229.43 218.80,229.36 C 219.56,229.29 220.34,229.20 221.14,229.08 C 221.94,228.96 222.76,228.82 223.59,228.66 C 224.43,228.49 225.28,228.30 226.16,228.09 C 227.03,227.88 227.92,227.65 228.83,227.39 C 229.74,227.13 230.66,226.85 231.61,226.55 C 232.55,226.24 233.52,225.91 234.50,225.56 C 235.48,225.21 236.53,224.79 237.50,224.44 C 238.47,224.08 239.42,223.75 240.34,223.44 C 241.27,223.12 242.16,222.83 243.03,222.56 C 243.90,222.29 244.74,222.04 245.56,221.81 C 246.38,221.58 247.17,221.38 247.94,221.19 C 248.70,221.00 249.44,220.83 250.16,220.69 C 250.87,220.54 251.56,220.42 252.22,220.31 C 252.88,220.21 253.52,220.12 254.12,220.06 C 254.73,220.00 255.24,220.02 255.88,219.94 C 256.51,219.86 257.18,219.74 257.91,219.59 C 258.63,219.44 259.40,219.26 260.22,219.03 C 261.04,218.81 261.90,218.55 262.81,218.25 C 263.72,217.95 264.68,217.62 265.69,217.25 C 266.69,216.88 267.74,216.47 268.84,216.03 C 269.94,215.59 271.09,215.11 272.28,214.59 C 273.47,214.08 274.71,213.53 276.00,212.94 C 277.29,212.35 278.74,211.66 280.00,211.06 C 281.26,210.46 282.44,209.89 283.55,209.35 C 284.67,208.81 285.70,208.29 286.66,207.80 C 287.63,207.32 288.51,206.86 289.33,206.42 C 290.14,205.99 290.88,205.58 291.55,205.20 C 292.21,204.82 292.80,204.47 293.32,204.15 C 293.84,203.82 294.28,203.53 294.65,203.26 C 295.02,202.99 295.31,202.75 295.53,202.53 C 295.75,202.32 295.85,202.15 295.97,201.97 C 296.09,201.79 296.19,201.61 296.27,201.44 C 296.34,201.27 296.39,201.10 296.42,200.94 C 296.45,200.78 296.46,200.62 296.44,200.47 C 296.42,200.32 296.38,200.17 296.31,200.03 C 296.25,199.89 296.16,199.76 296.05,199.62 C 295.93,199.49 295.80,199.37 295.64,199.25 C 295.48,199.13 295.30,199.02 295.09,198.91 C 294.89,198.80 294.64,198.69 294.41,198.59 C 294.18,198.50 293.94,198.41 293.71,198.34 C 293.48,198.26 293.24,198.19 293.01,198.13 C 292.77,198.07 292.54,198.02 292.30,197.98 C 292.06,197.94 291.82,197.91 291.58,197.89 C 291.34,197.87 291.10,197.86 290.85,197.85 C 290.61,197.85 290.36,197.85 290.12,197.87 C 289.87,197.88 289.62,197.90 289.38,197.94 C 289.13,197.97 288.88,198.04 288.62,198.06 C 288.37,198.09 288.11,198.09 287.84,198.08 C 287.58,198.07 287.31,198.03 287.03,197.98 C 286.76,197.93 286.47,197.87 286.19,197.78 C 285.90,197.70 285.61,197.59 285.31,197.47 C 285.02,197.35 284.71,197.21 284.41,197.05 C 284.10,196.89 283.79,196.71 283.47,196.52 C 283.15,196.32 282.83,196.11 282.50,195.88 C 282.17,195.64 281.85,195.36 281.50,195.12 C 281.15,194.89 280.79,194.68 280.41,194.48 C 280.03,194.29 279.63,194.11 279.22,193.95 C 278.81,193.79 278.38,193.65 277.94,193.53 C 277.49,193.41 277.04,193.30 276.56,193.22 C 276.09,193.13 275.60,193.07 275.09,193.02 C 274.59,192.97 274.07,192.93 273.53,192.92 C 272.99,192.91 272.44,192.91 271.88,192.94 C 271.31,192.96 270.67,193.07 270.12,193.06 C 269.58,193.06 269.06,193.00 268.59,192.90 C 268.11,192.80 267.67,192.64 267.26,192.45 C 266.85,192.25 266.48,192.00 266.14,191.70 C 265.80,191.41 265.50,191.06 265.23,190.67 C 264.97,190.28 264.74,189.84 264.54,189.35 C 264.34,188.86 264.18,188.33 264.05,187.74 C 263.93,187.16 263.84,186.52 263.78,185.84 C 263.73,185.16 263.73,184.34 263.72,183.66 C 263.71,182.97 263.71,182.32 263.72,181.72 C 263.73,181.11 263.75,180.55 263.78,180.03 C 263.81,179.51 263.85,179.03 263.91,178.59 C 263.96,178.16 264.02,177.76 264.09,177.41 C 264.17,177.05 264.25,176.74 264.34,176.47 C 264.44,176.20 264.54,175.97 264.66,175.78 C 264.77,175.59 264.90,175.45 265.03,175.34 C 265.17,175.24 265.31,175.21 265.47,175.16 C 265.63,175.10 265.80,175.05 265.99,175.01 C 266.18,174.96 266.38,174.93 266.60,174.90 C 266.82,174.87 267.05,174.85 267.30,174.83 C 267.54,174.81 267.80,174.80 268.08,174.80 C 268.35,174.79 268.64,174.80 268.95,174.80 C 269.25,174.81 269.57,174.83 269.90,174.85 C 270.23,174.87 270.58,174.90 270.94,174.94 C 271.30,174.97 271.70,175.03 272.06,175.06 C 272.43,175.10 272.79,175.12 273.14,175.14 C 273.49,175.16 273.84,175.17 274.17,175.17 C 274.51,175.17 274.84,175.17 275.16,175.16 C 275.48,175.14 275.79,175.12 276.09,175.09 C 276.40,175.07 276.70,175.03 276.98,174.98 C 277.27,174.94 277.55,174.89 277.83,174.83 C 278.10,174.77 278.37,174.70 278.62,174.62 C 278.88,174.55 279.13,174.46 279.38,174.38 C 279.62,174.29 279.85,174.19 280.08,174.09 C 280.30,173.99 280.52,173.89 280.73,173.78 C 280.95,173.67 281.15,173.56 281.34,173.44 C 281.54,173.32 281.73,173.19 281.91,173.06 C 282.09,172.93 282.26,172.80 282.42,172.66 C 282.59,172.52 282.74,172.37 282.89,172.22 C 283.04,172.07 283.18,171.91 283.31,171.75 C 283.45,171.59 283.53,171.41 283.69,171.25 C 283.84,171.09 284.03,170.95 284.25,170.81 C 284.47,170.68 284.72,170.55 285.00,170.44 C 285.28,170.32 285.59,170.22 285.94,170.12 C 286.28,170.03 286.66,169.95 287.06,169.88 C 287.47,169.80 287.91,169.74 288.38,169.69 C 288.84,169.64 289.34,169.59 289.88,169.56 C 290.41,169.53 290.97,169.51 291.56,169.50 C 292.16,169.49 292.80,169.49 293.44,169.50 C 294.07,169.51 294.71,169.52 295.36,169.53 C 296.01,169.55 296.66,169.57 297.33,169.59 C 297.99,169.62 298.66,169.65 299.34,169.69 C 300.02,169.72 300.71,169.77 301.41,169.81 C 302.10,169.86 302.80,169.91 303.52,169.97 C 304.23,170.03 304.95,170.09 305.67,170.16 C 306.40,170.22 307.13,170.30 307.88,170.38 C 308.62,170.45 309.42,170.54 310.12,170.62 C 310.83,170.71 311.50,170.80 312.12,170.88 C 312.74,170.97 313.32,171.06 313.85,171.15 C 314.39,171.24 314.88,171.33 315.33,171.42 C 315.78,171.51 316.18,171.61 316.55,171.70 C 316.91,171.80 317.23,171.89 317.51,171.99 C 317.79,172.09 318.02,172.19 318.21,172.29 C 318.40,172.39 318.55,172.49 318.66,172.59 C 318.76,172.70 318.79,172.80 318.84,172.91 C 318.89,173.01 318.93,173.12 318.96,173.23 C 318.99,173.33 319.00,173.44 319.01,173.55 C 319.01,173.67 319.00,173.78 318.98,173.89 C 318.96,174.00 318.93,174.12 318.89,174.23 C 318.85,174.35 318.79,174.47 318.73,174.59 C 318.66,174.70 318.58,174.82 318.49,174.95 C 318.40,175.07 318.30,175.19 318.19,175.31 C 318.07,175.44 317.93,175.54 317.81,175.69 C 317.70,175.84 317.59,176.02 317.48,176.22 C 317.38,176.42 317.29,176.65 317.20,176.91 C 317.12,177.16 317.04,177.44 316.97,177.75 C 316.90,178.06 316.84,178.39 316.78,178.75 C 316.73,179.11 316.68,179.49 316.64,179.91 C 316.60,180.32 316.57,180.76 316.55,181.22 C 316.52,181.68 316.51,182.17 316.50,182.69 C 316.49,183.20 316.49,183.79 316.50,184.31 C 316.51,184.83 316.52,185.33 316.55,185.80 C 316.57,186.27 316.60,186.72 316.64,187.14 C 316.68,187.57 316.73,187.97 316.78,188.34 C 316.84,188.72 316.90,189.08 316.97,189.41 C 317.04,189.74 317.12,190.04 317.20,190.33 C 317.29,190.61 317.38,190.87 317.48,191.11 C 317.59,191.35 317.70,191.56 317.81,191.75 C 317.93,191.94 318.09,192.08 318.19,192.25 C 318.29,192.42 318.36,192.59 318.41,192.77 C 318.45,192.94 318.47,193.12 318.47,193.30 C 318.46,193.48 318.43,193.66 318.38,193.84 C 318.32,194.03 318.23,194.22 318.12,194.41 C 318.02,194.60 317.88,194.79 317.72,194.98 C 317.56,195.18 317.37,195.38 317.16,195.58 C 316.94,195.78 316.70,195.98 316.44,196.19 C 316.17,196.39 315.83,196.61 315.56,196.81 C 315.29,197.02 315.04,197.21 314.81,197.41 C 314.58,197.60 314.38,197.79 314.19,197.97 C 314.00,198.15 313.83,198.33 313.69,198.50 C 313.54,198.67 313.42,198.84 313.31,199.00 C 313.21,199.16 313.12,199.32 313.06,199.47 C 313.00,199.62 312.96,199.77 312.94,199.91 C 312.92,200.05 312.92,200.18 312.94,200.31 C 312.96,200.44 313.00,200.57 313.06,200.69 C 313.13,200.81 313.22,200.93 313.34,201.04 C 313.45,201.15 313.59,201.26 313.76,201.37 C 313.92,201.47 314.11,201.57 314.33,201.67 C 314.54,201.77 314.78,201.86 315.05,201.95 C 315.31,202.04 315.60,202.13 315.91,202.21 C 316.23,202.29 316.57,202.37 316.93,202.45 C 317.29,202.52 317.68,202.59 318.09,202.66 C 318.51,202.72 319.00,202.78 319.41,202.84 C 319.82,202.91 320.20,202.98 320.55,203.05 C 320.90,203.12 321.22,203.19 321.52,203.27 C 321.81,203.34 322.08,203.42 322.31,203.50 C 322.55,203.58 322.76,203.66 322.94,203.75 C 323.12,203.84 323.27,203.92 323.39,204.02 C 323.51,204.11 323.61,204.20 323.67,204.30 C 323.74,204.39 323.77,204.49 323.78,204.59 C 323.79,204.70 323.72,204.79 323.72,204.91 C 323.72,205.03 323.73,205.16 323.77,205.31 C 323.80,205.46 323.85,205.63 323.92,205.81 C 323.99,205.99 324.08,206.19 324.19,206.41 C 324.29,206.62 324.42,206.85 324.56,207.09 C 324.71,207.34 324.87,207.60 325.05,207.88 C 325.23,208.15 325.42,208.44 325.64,208.75 C 325.86,209.06 326.09,209.38 326.34,209.72 C 326.60,210.06 326.87,210.44 327.16,210.78 C 327.44,211.12 327.74,211.44 328.05,211.74 C 328.37,212.05 328.70,212.33 329.04,212.60 C 329.38,212.87 329.74,213.12 330.11,213.36 C 330.48,213.60 330.87,213.81 331.27,214.02 C 331.67,214.22 332.08,214.40 332.51,214.57 C 332.94,214.74 333.38,214.89 333.84,215.02 C 334.29,215.16 334.76,215.27 335.25,215.38 C 335.74,215.48 336.25,215.51 336.75,215.62 C 337.25,215.74 337.75,215.87 338.26,216.04 C 338.76,216.20 339.27,216.40 339.77,216.62 C 340.28,216.84 340.79,217.08 341.30,217.36 C 341.81,217.63 342.32,217.94 342.83,218.27 C 343.34,218.60 343.85,218.95 344.37,219.34 C 344.88,219.72 345.40,220.13 345.91,220.57 C 346.43,221.01 346.95,221.48 347.47,221.97 C 347.99,222.46 348.54,222.99 349.03,223.53 C 349.52,224.07 349.98,224.62 350.40,225.20 C 350.82,225.77 351.21,226.36 351.57,226.96 C 351.93,227.57 352.25,228.19 352.55,228.83 C 352.84,229.47 353.10,230.12 353.33,230.80 C 353.56,231.47 353.75,232.16 353.91,232.87 C 354.08,233.57 354.21,234.30 354.30,235.04 C 354.40,235.78 354.47,236.54 354.50,237.31 C 354.53,238.09 354.51,238.94 354.50,239.69 C 354.49,240.43 354.48,241.14 354.47,241.80 C 354.45,242.46 354.43,243.07 354.41,243.64 C 354.38,244.21 354.35,244.74 354.31,245.22 C 354.28,245.70 354.23,246.14 354.19,246.53 C 354.14,246.92 354.09,247.27 354.03,247.58 C 353.97,247.88 353.91,248.14 353.84,248.36 C 353.78,248.58 353.70,248.75 353.62,248.88 C 353.55,249.00 353.45,249.03 353.38,249.12 C 353.30,249.22 353.25,249.32 353.20,249.42 C 353.16,249.53 353.13,249.64 353.11,249.77 C 353.09,249.89 353.09,250.02 353.09,250.16 C 353.10,250.29 353.12,250.44 353.16,250.59 C 353.19,250.75 353.24,250.91 353.30,251.08 C 353.36,251.25 353.43,251.42 353.52,251.61 C 353.60,251.79 353.70,251.99 353.81,252.19 C 353.92,252.39 354.08,252.60 354.19,252.81 C 354.30,253.02 354.39,253.23 354.47,253.44 C 354.55,253.65 354.61,253.85 354.66,254.06 C 354.70,254.27 354.73,254.48 354.75,254.69 C 354.77,254.90 354.77,255.10 354.75,255.31 C 354.73,255.52 354.70,255.73 354.66,255.94 C 354.61,256.15 354.55,256.35 354.47,256.56 C 354.39,256.77 354.30,256.98 354.19,257.19 C 354.08,257.40 353.92,257.61 353.81,257.81 C 353.70,258.02 353.60,258.21 353.52,258.41 C 353.43,258.60 353.36,258.79 353.30,258.97 C 353.24,259.15 353.19,259.33 353.16,259.50 C 353.12,259.67 353.10,259.84 353.09,260.00 C 353.09,260.16 353.09,260.32 353.11,260.47 C 353.13,260.62 353.16,260.77 353.20,260.91 C 353.25,261.05 353.30,261.18 353.38,261.31 C 353.45,261.44 353.55,261.52 353.62,261.69 C 353.70,261.85 353.78,262.06 353.84,262.31 C 353.91,262.56 353.97,262.85 354.03,263.19 C 354.09,263.52 354.14,263.90 354.19,264.31 C 354.23,264.73 354.28,265.19 354.31,265.69 C 354.35,266.19 354.38,266.73 354.41,267.31 C 354.43,267.90 354.45,268.52 354.47,269.19 C 354.48,269.85 354.49,270.56 354.50,271.31 C 354.51,272.06 354.53,272.91 354.50,273.69 C 354.47,274.46 354.40,275.22 354.30,275.96 C 354.21,276.70 354.08,277.43 353.91,278.13 C 353.75,278.84 353.56,279.53 353.33,280.20 C 353.10,280.88 352.84,281.53 352.55,282.17 C 352.25,282.81 351.93,283.43 351.57,284.04 C 351.21,284.64 350.82,285.23 350.40,285.80 C 349.98,286.38 349.52,286.93 349.03,287.47 C 348.54,288.01 347.99,288.54 347.47,289.03 C 346.95,289.52 346.43,289.99 345.91,290.43 C 345.40,290.87 344.88,291.28 344.37,291.66 C 343.85,292.05 343.34,292.40 342.83,292.73 C 342.32,293.06 341.81,293.37 341.30,293.64 C 340.79,293.92 340.28,294.16 339.77,294.38 C 339.27,294.60 338.76,294.80 338.26,294.96 C 337.75,295.13 337.25,295.26 336.75,295.38 C 336.25,295.49 335.74,295.52 335.25,295.62 C 334.76,295.73 334.29,295.84 333.84,295.98 C 333.38,296.11 332.94,296.26 332.51,296.43 C 332.08,296.60 331.67,296.78 331.27,296.98 C 330.87,297.19 330.48,297.40 330.11,297.64 C 329.74,297.88 329.38,298.13 329.04,298.40 C 328.70,298.67 328.37,298.95 328.05,299.26 C 327.74,299.56 327.44,299.88 327.16,300.22 C 326.87,300.56 326.60,300.94 326.34,301.28 C 326.09,301.62 325.86,301.94 325.64,302.25 C 325.42,302.56 325.23,302.85 325.05,303.12 C 324.87,303.40 324.71,303.66 324.56,303.91 C 324.42,304.15 324.29,304.38 324.19,304.59 C 324.08,304.81 323.99,305.01 323.92,305.19 C 323.85,305.37 323.80,305.54 323.77,305.69 C 323.73,305.84 323.72,305.97 323.72,306.09 C 323.72,306.21 323.79,306.30 323.78,306.41 C 323.77,306.51 323.74,306.61 323.67,306.70 C 323.61,306.80 323.51,306.89 323.39,306.98 C 323.27,307.08 323.12,307.16 322.94,307.25 C 322.76,307.34 322.55,307.42 322.31,307.50 C 322.08,307.58 321.81,307.66 321.52,307.73 C 321.22,307.81 320.90,307.88 320.55,307.95 C 320.20,308.02 319.82,308.09 319.41,308.16 C 319.00,308.22 318.51,308.28 318.09,308.34 C 317.68,308.41 317.29,308.48 316.93,308.55 C 316.57,308.63 316.23,308.71 315.91,308.79 C 315.60,308.87 315.31,308.96 315.05,309.05 C 314.78,309.14 314.54,309.23 314.33,309.33 C 314.11,309.43 313.92,309.53 313.76,309.63 C 313.59,309.74 313.45,309.85 313.34,309.96 C 313.22,310.07 313.13,310.19 313.06,310.31 C 313.00,310.43 312.96,310.56 312.94,310.69 C 312.92,310.82 312.92,310.95 312.94,311.09 C 312.96,311.23 313.00,311.38 313.06,311.53 C 313.12,311.68 313.21,311.84 313.31,312.00 C 313.42,312.16 313.54,312.33 313.69,312.50 C 313.83,312.67 314.00,312.85 314.19,313.03 C 314.38,313.21 314.58,313.40 314.81,313.59 C 315.04,313.79 315.29,313.98 315.56,314.19 C 315.83,314.39 316.17,314.61 316.44,314.81 C 316.70,315.02 316.94,315.22 317.16,315.42 C 317.37,315.62 317.56,315.82 317.72,316.02 C 317.88,316.21 318.02,316.40 318.12,316.59 C 318.23,316.78 318.32,316.97 318.38,317.16 C 318.43,317.34 318.46,317.52 318.47,317.70 C 318.47,317.88 318.45,318.06 318.41,318.23 C 318.36,318.41 318.29,318.58 318.19,318.75 C 318.09,318.92 317.93,319.06 317.81,319.25 C 317.70,319.44 317.59,319.65 317.48,319.89 C 317.38,320.13 317.29,320.39 317.20,320.67 C 317.12,320.96 317.04,321.26 316.97,321.59 C 316.90,321.92 316.84,322.28 316.78,322.66 C 316.73,323.03 316.68,323.43 316.64,323.86 C 316.60,324.28 316.57,324.73 316.55,325.20 C 316.52,325.67 316.51,326.17 316.50,326.69 C 316.49,327.21 316.49,327.80 316.50,328.31 C 316.51,328.83 316.52,329.32 316.55,329.78 C 316.57,330.24 316.60,330.68 316.64,331.09 C 316.68,331.51 316.73,331.89 316.78,332.25 C 316.84,332.61 316.90,332.94 316.97,333.25 C 317.04,333.56 317.12,333.84 317.20,334.09 C 317.29,334.35 317.38,334.58 317.48,334.78 C 317.59,334.98 317.70,335.16 317.81,335.31 C 317.93,335.46 318.07,335.56 318.19,335.69 C 318.30,335.81 318.40,335.93 318.49,336.05 C 318.58,336.18 318.66,336.30 318.73,336.41 C 318.79,336.53 318.85,336.65 318.89,336.77 C 318.93,336.88 318.96,337.00 318.98,337.11 C 319.00,337.22 319.01,337.33 319.01,337.45 C 319.00,337.56 318.99,337.67 318.96,337.77 C 318.93,337.88 318.89,337.99 318.84,338.09 C 318.79,338.20 318.76,338.30 318.66,338.41 C 318.55,338.51 318.40,338.61 318.21,338.71 C 318.02,338.81 317.79,338.91 317.51,339.01 C 317.23,339.11 316.91,339.20 316.55,339.30 C 316.18,339.39 315.78,339.49 315.33,339.58 C 314.88,339.67 314.39,339.76 313.85,339.85 C 313.32,339.94 312.74,340.03 312.12,340.12 C 311.50,340.20 310.83,340.29 310.12,340.38 C 309.42,340.46 308.62,340.55 307.88,340.62 C 307.13,340.70 306.40,340.78 305.67,340.84 C 304.95,340.91 304.23,340.97 303.52,341.03 C 302.80,341.09 302.10,341.14 301.41,341.19 C 300.71,341.23 300.02,341.28 299.34,341.31 C 298.66,341.35 297.99,341.38 297.33,341.41 C 296.66,341.43 296.01,341.45 295.36,341.47 C 294.71,341.48 294.07,341.49 293.44,341.50 Z" />
    </clipPath>
  </defs>
  <path d="M 293.44,341.50 C 292.80,341.51 292.16,341.51 291.56,341.50 C 290.96,341.49 290.38,341.46 289.83,341.42 C 289.27,341.38 288.74,341.33 288.23,341.27 C 287.73,341.20 287.24,341.12 286.78,341.03 C 286.32,340.94 285.88,340.84 285.47,340.72 C 285.05,340.60 284.66,340.47 284.30,340.33 C 283.93,340.18 283.59,340.03 283.27,339.86 C 282.95,339.69 282.65,339.51 282.38,339.31 C 282.10,339.12 281.89,338.88 281.62,338.69 C 281.36,338.49 281.08,338.32 280.78,338.16 C 280.48,337.99 280.17,337.85 279.84,337.72 C 279.52,337.59 279.17,337.47 278.81,337.38 C 278.45,337.28 278.08,337.19 277.69,337.12 C 277.30,337.06 276.89,337.01 276.47,336.97 C 276.05,336.93 275.61,336.91 275.16,336.91 C 274.70,336.90 274.23,336.91 273.75,336.94 C 273.27,336.96 272.73,337.03 272.25,337.06 C 271.77,337.10 271.32,337.13 270.88,337.15 C 270.45,337.17 270.04,337.19 269.65,337.20 C 269.26,337.20 268.89,337.21 268.55,337.20 C 268.20,337.20 267.88,337.19 267.58,337.17 C 267.28,337.15 267.00,337.13 266.74,337.10 C 266.49,337.07 266.25,337.04 266.04,336.99 C 265.83,336.95 265.64,336.90 265.47,336.84 C 265.30,336.79 265.17,336.76 265.03,336.66 C 264.90,336.55 264.77,336.41 264.66,336.23 C 264.54,336.05 264.44,335.84 264.34,335.58 C 264.25,335.32 264.17,335.02 264.09,334.69 C 264.02,334.35 263.96,333.98 263.91,333.56 C 263.85,333.15 263.81,332.70 263.78,332.20 C 263.75,331.71 263.73,331.18 263.72,330.61 C 263.71,330.04 263.71,329.43 263.72,328.78 C 263.73,328.13 263.73,327.36 263.78,326.72 C 263.83,326.07 263.91,325.47 264.02,324.91 C 264.13,324.36 264.27,323.84 264.45,323.37 C 264.62,322.89 264.82,322.46 265.05,322.08 C 265.28,321.69 265.54,321.35 265.83,321.05 C 266.12,320.75 266.44,320.49 266.79,320.27 C 267.14,320.06 267.52,319.89 267.93,319.76 C 268.34,319.63 268.78,319.54 269.25,319.50 C 269.72,319.46 270.26,319.51 270.75,319.50 C 271.24,319.49 271.71,319.48 272.17,319.45 C 272.63,319.43 273.08,319.40 273.52,319.36 C 273.95,319.32 274.37,319.27 274.78,319.22 C 275.19,319.16 275.59,319.10 275.97,319.03 C 276.35,318.96 276.72,318.88 277.08,318.80 C 277.43,318.71 277.78,318.62 278.11,318.52 C 278.44,318.41 278.76,318.30 279.06,318.19 C 279.37,318.07 279.66,317.94 279.94,317.81 C 280.22,317.68 280.49,317.55 280.75,317.42 C 281.01,317.29 281.26,317.15 281.50,317.02 C 281.74,316.88 281.97,316.74 282.19,316.59 C 282.41,316.45 282.61,316.30 282.81,316.16 C 283.01,316.01 283.20,315.86 283.38,315.70 C 283.55,315.55 283.72,315.39 283.88,315.23 C 284.03,315.08 284.18,314.91 284.31,314.75 C 284.45,314.59 284.54,314.41 284.69,314.25 C 284.83,314.09 285.00,313.94 285.20,313.80 C 285.39,313.67 285.60,313.54 285.84,313.41 C 286.07,313.29 286.33,313.18 286.61,313.08 C 286.89,312.98 287.19,312.88 287.52,312.80 C 287.84,312.71 288.19,312.64 288.55,312.57 C 288.92,312.50 289.31,312.45 289.73,312.40 C 290.14,312.35 290.57,312.31 291.03,312.28 C 291.49,312.25 292.03,312.25 292.47,312.22 C 292.91,312.18 293.31,312.14 293.67,312.08 C 294.03,312.02 294.36,311.95 294.64,311.86 C 294.92,311.77 295.17,311.67 295.38,311.56 C 295.58,311.45 295.75,311.33 295.88,311.19 C 296.00,311.05 296.09,310.90 296.14,310.73 C 296.19,310.57 296.20,310.39 296.17,310.20 C 296.14,310.01 296.08,309.81 295.97,309.59 C 295.86,309.38 295.74,309.15 295.53,308.91 C 295.33,308.66 295.06,308.39 294.74,308.10 C 294.42,307.81 294.04,307.51 293.60,307.18 C 293.16,306.85 292.67,306.51 292.11,306.14 C 291.55,305.77 290.94,305.39 290.27,304.98 C 289.59,304.58 288.86,304.15 288.07,303.71 C 287.28,303.27 286.43,302.80 285.52,302.32 C 284.62,301.84 283.65,301.33 282.62,300.81 C 281.60,300.29 280.41,299.70 279.38,299.19 C 278.34,298.67 277.36,298.18 276.42,297.72 C 275.49,297.26 274.60,296.82 273.77,296.41 C 272.93,295.99 272.14,295.61 271.41,295.25 C 270.67,294.89 269.98,294.56 269.34,294.25 C 268.71,293.94 268.12,293.66 267.58,293.41 C 267.04,293.15 266.55,292.92 266.11,292.72 C 265.67,292.52 265.28,292.34 264.94,292.19 C 264.60,292.04 264.37,291.93 264.06,291.81 C 263.76,291.70 263.43,291.59 263.09,291.48 C 262.76,291.38 262.40,291.29 262.03,291.20 C 261.66,291.12 261.28,291.04 260.88,290.97 C 260.47,290.90 260.06,290.84 259.62,290.78 C 259.19,290.73 258.74,290.68 258.28,290.64 C 257.82,290.60 257.34,290.57 256.84,290.55 C 256.35,290.52 255.84,290.51 255.31,290.50 C 254.79,290.49 254.26,290.52 253.69,290.50 C 253.12,290.48 252.52,290.43 251.89,290.36 C 251.26,290.29 250.61,290.20 249.92,290.08 C 249.24,289.96 248.52,289.82 247.78,289.66 C 247.04,289.49 246.27,289.30 245.47,289.09 C 244.67,288.88 243.84,288.65 242.98,288.39 C 242.13,288.13 241.24,287.85 240.33,287.55 C 239.41,287.24 238.47,286.91 237.50,286.56 C 236.53,286.21 235.48,285.79 234.50,285.44 C 233.52,285.09 232.55,284.76 231.61,284.45 C 230.66,284.15 229.74,283.87 228.83,283.61 C 227.92,283.35 227.03,283.12 226.16,282.91 C 225.28,282.70 224.43,282.51 223.59,282.34 C 222.76,282.18 221.94,282.04 221.14,281.92 C 220.34,281.80 219.56,281.71 218.80,281.64 C 218.03,281.57 217.29,281.52 216.56,281.50 C 215.84,281.48 215.11,281.51 214.44,281.50 C 213.77,281.49 213.14,281.48 212.55,281.47 C 211.96,281.45 211.40,281.43 210.89,281.41 C 210.38,281.38 209.90,281.35 209.47,281.31 C 209.03,281.28 208.64,281.23 208.28,281.19 C 207.92,281.14 207.61,281.09 207.33,281.03 C 207.05,280.97 206.81,280.91 206.61,280.84 C 206.41,280.78 206.25,280.70 206.12,280.62 C 206.00,280.55 205.97,280.45 205.88,280.38 C 205.78,280.30 205.68,280.23 205.56,280.17 C 205.45,280.11 205.32,280.06 205.19,280.02 C 205.05,279.97 204.91,279.93 204.75,279.91 C 204.59,279.88 204.43,279.86 204.25,279.84 C 204.07,279.83 203.89,279.83 203.69,279.83 C 203.49,279.83 203.28,279.84 203.06,279.86 C 202.84,279.88 202.61,279.90 202.38,279.94 C 202.14,279.97 201.86,280.03 201.62,280.06 C 201.39,280.10 201.16,280.12 200.94,280.14 C 200.72,280.16 200.51,280.17 200.31,280.17 C 200.11,280.17 199.93,280.17 199.75,280.16 C 199.57,280.14 199.41,280.12 199.25,280.09 C 199.09,280.07 198.95,280.03 198.81,279.98 C 198.68,279.94 198.55,279.89 198.44,279.83 C 198.32,279.77 198.22,279.70 198.12,279.62 C 198.03,279.55 197.97,279.45 197.88,279.38 C 197.78,279.30 197.68,279.22 197.56,279.16 C 197.45,279.09 197.32,279.03 197.19,278.97 C 197.05,278.91 196.91,278.86 196.75,278.81 C 196.59,278.77 196.43,278.72 196.25,278.69 C 196.07,278.65 195.89,278.62 195.69,278.59 C 195.49,278.57 195.28,278.55 195.06,278.53 C 194.84,278.52 194.61,278.51 194.38,278.50 C 194.14,278.49 193.87,278.48 193.62,278.50 C 193.38,278.52 193.13,278.55 192.89,278.61 C 192.65,278.66 192.41,278.74 192.17,278.83 C 191.93,278.92 191.70,279.03 191.47,279.16 C 191.24,279.28 191.01,279.43 190.78,279.59 C 190.55,279.76 190.33,279.94 190.11,280.14 C 189.89,280.34 189.67,280.56 189.45,280.80 C 189.24,281.03 189.02,281.29 188.81,281.56 C 188.60,281.84 188.43,282.17 188.19,282.44 C 187.94,282.71 187.66,282.95 187.34,283.17 C 187.03,283.39 186.67,283.59 186.28,283.77 C 185.89,283.94 185.46,284.09 185.00,284.22 C 184.54,284.35 184.04,284.45 183.50,284.53 C 182.96,284.61 182.39,284.67 181.78,284.70 C 181.17,284.74 180.53,284.75 179.84,284.73 C 179.16,284.72 178.44,284.68 177.69,284.62 C 176.93,284.57 176.07,284.48 175.31,284.38 C 174.56,284.27 173.84,284.15 173.16,284.00 C 172.47,283.85 171.83,283.69 171.22,283.50 C 170.61,283.31 170.04,283.10 169.50,282.88 C 168.96,282.65 168.46,282.40 168.00,282.12 C 167.54,281.85 167.11,281.56 166.72,281.25 C 166.33,280.94 165.97,280.60 165.66,280.25 C 165.34,279.90 165.06,279.52 164.81,279.12 C 164.57,278.73 164.41,278.27 164.19,277.88 C 163.96,277.48 163.72,277.11 163.47,276.77 C 163.21,276.42 162.94,276.10 162.66,275.80 C 162.37,275.50 162.07,275.22 161.75,274.97 C 161.43,274.72 161.10,274.49 160.75,274.28 C 160.40,274.08 160.04,273.89 159.66,273.73 C 159.28,273.58 158.88,273.44 158.47,273.33 C 158.06,273.22 157.63,273.13 157.19,273.06 C 156.74,273.00 156.25,272.98 155.81,272.94 C 155.38,272.89 154.97,272.84 154.59,272.79 C 154.20,272.74 153.84,272.68 153.51,272.62 C 153.17,272.56 152.86,272.49 152.58,272.42 C 152.29,272.35 152.03,272.28 151.80,272.20 C 151.56,272.13 151.35,272.05 151.16,271.96 C 150.98,271.88 150.82,271.79 150.68,271.70 C 150.54,271.60 150.43,271.51 150.34,271.41 C 150.26,271.31 150.21,271.27 150.16,271.09 C 150.10,270.92 150.04,270.68 149.99,270.37 C 149.94,270.06 149.89,269.68 149.85,269.23 C 149.81,268.78 149.77,268.26 149.73,267.67 C 149.70,267.08 149.67,266.43 149.64,265.70 C 149.61,264.98 149.59,264.18 149.57,263.32 C 149.55,262.46 149.54,261.52 149.52,260.52 C 149.51,259.52 149.50,258.45 149.50,257.31 C 149.50,256.17 149.50,254.83 149.50,253.69 C 149.50,252.55 149.51,251.48 149.52,250.48 C 149.54,249.48 149.55,248.54 149.57,247.68 C 149.59,246.82 149.61,246.02 149.64,245.30 C 149.67,244.57 149.70,243.92 149.73,243.33 C 149.77,242.74 149.81,242.22 149.85,241.77 C 149.89,241.32 149.94,240.94 149.99,240.63 C 150.04,240.32 150.10,240.08 150.16,239.91 C 150.21,239.73 150.26,239.69 150.34,239.59 C 150.43,239.49 150.54,239.40 150.68,239.30 C 150.82,239.21 150.98,239.12 151.16,239.04 C 151.35,238.95 151.56,238.87 151.80,238.80 C 152.03,238.72 152.29,238.65 152.58,238.58 C 152.86,238.51 153.17,238.44 153.51,238.38 C 153.84,238.32 154.20,238.26 154.59,238.21 C 154.97,238.16 155.38,238.11 155.81,238.06 C 156.25,238.02 156.74,238.00 157.19,237.94 C 157.63,237.87 158.06,237.78 158.47,237.67 C 158.88,237.56 159.28,237.42 159.66,237.27 C 160.04,237.11 160.40,236.92 160.75,236.72 C 161.10,236.51 161.43,236.28 161.75,236.03 C 162.07,235.78 162.37,235.50 162.66,235.20 C 162.94,234.90 163.21,234.58 163.47,234.23 C 163.72,233.89 163.96,233.52 164.19,233.12 C 164.41,232.73 164.57,232.27 164.81,231.88 C 165.06,231.48 165.34,231.10 165.66,230.75 C 165.97,230.40 166.33,230.06 166.72,229.75 C 167.11,229.44 167.54,229.15 168.00,228.88 C 168.46,228.60 168.96,228.35 169.50,228.12 C 170.04,227.90 170.61,227.69 171.22,227.50 C 171.83,227.31 172.47,227.15 173.16,227.00 C 173.84,226.85 174.56,226.73 175.31,226.62 C 176.07,226.52 176.93,226.43 177.69,226.38 C 178.44,226.32 179.16,226.28 179.84,226.27 C 180.53,226.25 181.17,226.26 181.78,226.30 C 182.39,226.33 182.96,226.39 183.50,226.47 C 184.04,226.55 184.54,226.65 185.00,226.78 C 185.46,226.91 185.89,227.06 186.28,227.23 C 186.67,227.41 187.03,227.61 187.34,227.83 C 187.66,228.05 187.94,228.29 188.19,228.56 C 188.43,228.83 188.60,229.16 188.81,229.44 C 189.02,229.71 189.24,229.97 189.45,230.20 C 189.67,230.44 189.89,230.66 190.11,230.86 C 190.33,231.06 190.55,231.24 190.78,231.41 C 191.01,231.57 191.24,231.72 191.47,231.84 C 191.70,231.97 191.93,232.08 192.17,232.17 C 192.41,232.26 192.65,232.34 192.89,232.39 C 193.13,232.45 193.38,232.48 193.62,232.50 C 193.87,232.52 194.12,232.50 194.38,232.50 C 194.63,232.50 194.89,232.49 195.16,232.48 C 195.42,232.48 195.69,232.47 195.97,232.45 C 196.24,232.44 196.53,232.42 196.81,232.41 C 197.10,232.39 197.39,232.37 197.69,232.34 C 197.98,232.32 198.29,232.29 198.59,232.27 C 198.90,232.24 199.21,232.21 199.53,232.17 C 199.85,232.14 200.17,232.10 200.50,232.06 C 200.83,232.02 201.18,231.98 201.50,231.94 C 201.82,231.89 202.12,231.85 202.41,231.80 C 202.69,231.75 202.96,231.70 203.22,231.64 C 203.47,231.59 203.71,231.53 203.94,231.47 C 204.16,231.41 204.37,231.35 204.56,231.28 C 204.76,231.22 204.93,231.15 205.09,231.08 C 205.26,231.01 205.40,230.93 205.53,230.86 C 205.66,230.78 205.78,230.71 205.88,230.62 C 205.97,230.54 206.00,230.45 206.12,230.38 C 206.25,230.30 206.41,230.22 206.61,230.16 C 206.81,230.09 207.05,230.03 207.33,229.97 C 207.61,229.91 207.92,229.86 208.28,229.81 C 208.64,229.77 209.03,229.72 209.47,229.69 C 209.90,229.65 210.38,229.62 210.89,229.59 C 211.40,229.57 211.96,229.55 212.55,229.53 C 213.14,229.52 213.77,229.51 214.44,229.50 C 215.11,229.49 215.84,229.52 216.56,229.50 C 217.29,229.48 218.03,229.43 218.80,229.36 C 219.56,229.29 220.34,229.20 221.14,229.08 C 221.94,228.96 222.76,228.82 223.59,228.66 C 224.43,228.49 225.28,228.30 226.16,228.09 C 227.03,227.88 227.92,227.65 228.83,227.39 C 229.74,227.13 230.66,226.85 231.61,226.55 C 232.55,226.24 233.52,225.91 234.50,225.56 C 235.48,225.21 236.53,224.79 237.50,224.44 C 238.47,224.08 239.42,223.75 240.34,223.44 C 241.27,223.12 242.16,222.83 243.03,222.56 C 243.90,222.29 244.74,222.04 245.56,221.81 C 246.38,221.58 247.17,221.38 247.94,221.19 C 248.70,221.00 249.44,220.83 250.16,220.69 C 250.87,220.54 251.56,220.42 252.22,220.31 C 252.88,220.21 253.52,220.12 254.12,220.06 C 254.73,220.00 255.24,220.02 255.88,219.94 C 256.51,219.86 257.18,219.74 257.91,219.59 C 258.63,219.44 259.40,219.26 260.22,219.03 C 261.04,218.81 261.90,218.55 262.81,218.25 C 263.72,217.95 264.68,217.62 265.69,217.25 C 266.69,216.88 267.74,216.47 268.84,216.03 C 269.94,215.59 271.09,215.11 272.28,214.59 C 273.47,214.08 274.71,213.53 276.00,212.94 C 277.29,212.35 278.74,211.66 280.00,211.06 C 281.26,210.46 282.44,209.89 283.55,209.35 C 284.67,208.81 285.70,208.29 286.66,207.80 C 287.63,207.32 288.51,206.86 289.33,206.42 C 290.14,205.99 290.88,205.58 291.55,205.20 C 292.21,204.82 292.80,204.47 293.32,204.15 C 293.84,203.82 294.28,203.53 294.65,203.26 C 295.02,202.99 295.31,202.75 295.53,202.53 C 295.75,202.32 295.85,202.15 295.97,201.97 C 296.09,201.79 296.19,201.61 296.27,201.44 C 296.34,201.27 296.39,201.10 296.42,200.94 C 296.45,200.78 296.46,200.62 296.44,200.47 C 296.42,200.32 296.38,200.17 296.31,200.03 C 296.25,199.89 296.16,199.76 296.05,199.62 C 295.93,199.49 295.80,199.37 295.64,199.25 C 295.48,199.13 295.30,199.02 295.09,198.91 C 294.89,198.80 294.64,198.69 294.41,198.59 C 294.18,198.50 293.94,198.41 293.71,198.34 C 293.48,198.26 293.24,198.19 293.01,198.13 C 292.77,198.07 292.54,198.02 292.30,197.98 C 292.06,197.94 291.82,197.91 291.58,197.89 C 291.34,197.87 291.10,197.86 290.85,197.85 C 290.61,197.85 290.36,197.85 290.12,197.87 C 289.87,197.88 289.62,197.90 289.38,197.94 C 289.13,197.97 288.88,198.04 288.62,198.06 C 288.37,198.09 288.11,198.09 287.84,198.08 C 287.58,198.07 287.31,198.03 287.03,197.98 C 286.76,197.93 286.47,197.87 286.19,197.78 C 285.90,197.70 285.61,197.59 285.31,197.47 C 285.02,197.35 284.71,197.21 284.41,197.05 C 284.10,196.89 283.79,196.71 283.47,196.52 C 283.15,196.32 282.83,196.11 282.50,195.88 C 282.17,195.64 281.85,195.36 281.50,195.12 C 281.15,194.89 280.79,194.68 280.41,194.48 C 280.03,194.29 279.63,194.11 279.22,193.95 C 278.81,193.79 278.38,193.65 277.94,193.53 C 277.49,193.41 277.04,193.30 276.56,193.22 C 276.09,193.13 275.60,193.07 275.09,193.02 C 274.59,192.97 274.07,192.93 273.53,192.92 C 272.99,192.91 272.44,192.91 271.88,192.94 C 271.31,192.96 270.67,193.07 270.12,193.06 C 269.58,193.06 269.06,193.00 268.59,192.90 C 268.11,192.80 267.67,192.64 267.26,192.45 C 266.85,192.25 266.48,192.00 266.14,191.70 C 265.80,191.41 265.50,191.06 265.23,190.67 C 264.97,190.28 264.74,189.84 264.54,189.35 C 264.34,188.86 264.18,188.33 264.05,187.74 C 263.93,187.16 263.84,186.52 263.78,185.84 C 263.73,185.16 263.73,184.34 263.72,183.66 C 263.71,182.97 263.71,182.32 263.72,181.72 C 263.73,181.11 263.75,180.55 263.78,180.03 C 263.81,179.51 263.85,179.03 263.91,178.59 C 263.96,178.16 264.02,177.76 264.09,177.41 C 264.17,177.05 264.25,176.74 264.34,176.47 C 264.44,176.20 264.54,175.97 264.66,175.78 C 264.77,175.59 264.90,175.45 265.03,175.34 C 265.17,175.24 265.31,175.21 265.47,175.16 C 265.63,175.10 265.80,175.05 265.99,175.01 C 266.18,174.96 266.38,174.93 266.60,174.90 C 266.82,174.87 267.05,174.85 267.30,174.83 C 267.54,174.81 267.80,174.80 268.08,174.80 C 268.35,174.79 268.64,174.80 268.95,174.80 C 269.25,174.81 269.57,174.83 269.90,174.85 C 270.23,174.87 270.58,174.90 270.94,174.94 C 271.30,174.97 271.70,175.03 272.06,175.06 C 272.43,175.10 272.79,175.12 273.14,175.14 C 273.49,175.16 273.84,175.17 274.17,175.17 C 274.51,175.17 274.84,175.17 275.16,175.16 C 275.48,175.14 275.79,175.12 276.09,175.09 C 276.40,175.07 276.70,175.03 276.98,174.98 C 277.27,174.94 277.55,174.89 277.83,174.83 C 278.10,174.77 278.37,174.70 278.62,174.62 C 278.88,174.55 279.13,174.46 279.38,174.38 C 279.62,174.29 279.85,174.19 280.08,174.09 C 280.30,173.99 280.52,173.89 280.73,173.78 C 280.95,173.67 281.15,173.56 281.34,173.44 C 281.54,173.32 281.73,173.19 281.91,173.06 C 282.09,172.93 282.26,172.80 282.42,172.66 C 282.59,172.52 282.74,172.37 282.89,172.22 C 283.04,172.07 283.18,171.91 283.31,171.75 C 283.45,171.59 283.53,171.41 283.69,171.25 C 283.84,171.09 284.03,170.95 284.25,170.81 C 284.47,170.68 284.72,170.55 285.00,170.44 C 285.28,170.32 285.59,170.22 285.94,170.12 C 286.28,170.03 286.66,169.95 287.06,169.88 C 287.47,169.80 287.91,169.74 288.38,169.69 C 288.84,169.64 289.34,169.59 289.88,169.56 C 290.41,169.53 290.97,169.51 291.56,169.50 C 292.16,169.49 292.80,169.49 293.44,169.50 C 294.07,169.51 294.71,169.52 295.36,169.53 C 296.01,169.55 296.66,169.57 297.33,169.59 C 297.99,169.62 298.66,169.65 299.34,169.69 C 300.02,169.72 300.71,169.77 301.41,169.81 C 302.10,169.86 302.80,169.91 303.52,169.97 C 304.23,170.03 304.95,170.09 305.67,170.16 C 306.40,170.22 307.13,170.30 307.88,170.38 C 308.62,170.45 309.42,170.54 310.12,170.62 C 310.83,170.71 311.50,170.80 312.12,170.88 C 312.74,170.97 313.32,171.06 313.85,171.15 C 314.39,171.24 314.88,171.33 315.33,171.42 C 315.78,171.51 316.18,171.61 316.55,171.70 C 316.91,171.80 317.23,171.89 317.51,171.99 C 317.79,172.09 318.02,172.19 318.21,172.29 C 318.40,172.39 318.55,172.49 318.66,172.59 C 318.76,172.70 318.79,172.80 318.84,172.91 C 318.89,173.01 318.93,173.12 318.96,173.23 C 318.99,173.33 319.00,173.44 319.01,173.55 C 319.01,173.67 319.00,173.78 318.98,173.89 C 318.96,174.00 318.93,174.12 318.89,174.23 C 318.85,174.35 318.79,174.47 318.73,174.59 C 318.66,174.70 318.58,174.82 318.49,174.95 C 318.40,175.07 318.30,175.19 318.19,175.31 C 318.07,175.44 317.93,175.54 317.81,175.69 C 317.70,175.84 317.59,176.02 317.48,176.22 C 317.38,176.42 317.29,176.65 317.20,176.91 C 317.12,177.16 317.04,177.44 316.97,177.75 C 316.90,178.06 316.84,178.39 316.78,178.75 C 316.73,179.11 316.68,179.49 316.64,179.91 C 316.60,180.32 316.57,180.76 316.55,181.22 C 316.52,181.68 316.51,182.17 316.50,182.69 C 316.49,183.20 316.49,183.79 316.50,184.31 C 316.51,184.83 316.52,185.33 316.55,185.80 C 316.57,186.27 316.60,186.72 316.64,187.14 C 316.68,187.57 316.73,187.97 316.78,188.34 C 316.84,188.72 316.90,189.08 316.97,189.41 C 317.04,189.74 317.12,190.04 317.20,190.33 C 317.29,190.61 317.38,190.87 317.48,191.11 C 317.59,191.35 317.70,191.56 317.81,191.75 C 317.93,191.94 318.09,192.08 318.19,192.25 C 318.29,192.42 318.36,192.59 318.41,192.77 C 318.45,192.94 318.47,193.12 318.47,193.30 C 318.46,193.48 318.43,193.66 318.38,193.84 C 318.32,194.03 318.23,194.22 318.12,194.41 C 318.02,194.60 317.88,194.79 317.72,194.98 C 317.56,195.18 317.37,195.38 317.16,195.58 C 316.94,195.78 316.70,195.98 316.44,196.19 C 316.17,196.39 315.83,196.61 315.56,196.81 C 315.29,197.02 315.04,197.21 314.81,197.41 C 314.58,197.60 314.38,197.79 314.19,197.97 C 314.00,198.15 313.83,198.33 313.69,198.50 C 313.54,198.67 313.42,198.84 313.31,199.00 C 313.21,199.16 313.12,199.32 313.06,199.47 C 313.00,199.62 312.96,199.77 312.94,199.91 C 312.92,200.05 312.92,200.18 312.94,200.31 C 312.96,200.44 313.00,200.57 313.06,200.69 C 313.13,200.81 313.22,200.93 313.34,201.04 C 313.45,201.15 313.59,201.26 313.76,201.37 C 313.92,201.47 314.11,201.57 314.33,201.67 C 314.54,201.77 314.78,201.86 315.05,201.95 C 315.31,202.04 315.60,202.13 315.91,202.21 C 316.23,202.29 316.57,202.37 316.93,202.45 C 317.29,202.52 317.68,202.59 318.09,202.66 C 318.51,202.72 319.00,202.78 319.41,202.84 C 319.82,202.91 320.20,202.98 320.55,203.05 C 320.90,203.12 321.22,203.19 321.52,203.27 C 321.81,203.34 322.08,203.42 322.31,203.50 C 322.55,203.58 322.76,203.66 322.94,203.75 C 323.12,203.84 323.27,203.92 323.39,204.02 C 323.51,204.11 323.61,204.20 323.67,204.30 C 323.74,204.39 323.77,204.49 323.78,204.59 C 323.79,204.70 323.72,204.79 323.72,204.91 C 323.72,205.03 323.73,205.16 323.77,205.31 C 323.80,205.46 323.85,205.63 323.92,205.81 C 323.99,205.99 324.08,206.19 324.19,206.41 C 324.29,206.62 324.42,206.85 324.56,207.09 C 324.71,207.34 324.87,207.60 325.05,207.88 C 325.23,208.15 325.42,208.44 325.64,208.75 C 325.86,209.06 326.09,209.38 326.34,209.72 C 326.60,210.06 326.87,210.44 327.16,210.78 C 327.44,211.12 327.74,211.44 328.05,211.74 C 328.37,212.05 328.70,212.33 329.04,212.60 C 329.38,212.87 329.74,213.12 330.11,213.36 C 330.48,213.60 330.87,213.81 331.27,214.02 C 331.67,214.22 332.08,214.40 332.51,214.57 C 332.94,214.74 333.38,214.89 333.84,215.02 C 334.29,215.16 334.76,215.27 335.25,215.38 C 335.74,215.48 336.25,215.51 336.75,215.62 C 337.25,215.74 337.75,215.87 338.26,216.04 C 338.76,216.20 339.27,216.40 339.77,216.62 C 340.28,216.84 340.79,217.08 341.30,217.36 C 341.81,217.63 342.32,217.94 342.83,218.27 C 343.34,218.60 343.85,218.95 344.37,219.34 C 344.88,219.72 345.40,220.13 345.91,220.57 C 346.43,221.01 346.95,221.48 347.47,221.97 C 347.99,222.46 348.54,222.99 349.03,223.53 C 349.52,224.07 349.98,224.62 350.40,225.20 C 350.82,225.77 351.21,226.36 351.57,226.96 C 351.93,227.57 352.25,228.19 352.55,228.83 C 352.84,229.47 353.10,230.12 353.33,230.80 C 353.56,231.47 353.75,232.16 353.91,232.87 C 354.08,233.57 354.21,234.30 354.30,235.04 C 354.40,235.78 354.47,236.54 354.50,237.31 C 354.53,238.09 354.51,238.94 354.50,239.69 C 354.49,240.43 354.48,241.14 354.47,241.80 C 354.45,242.46 354.43,243.07 354.41,243.64 C 354.38,244.21 354.35,244.74 354.31,245.22 C 354.28,245.70 354.23,246.14 354.19,246.53 C 354.14,246.92 354.09,247.27 354.03,247.58 C 353.97,247.88 353.91,248.14 353.84,248.36 C 353.78,248.58 353.70,248.75 353.62,248.88 C 353.55,249.00 353.45,249.03 353.38,249.12 C 353.30,249.22 353.25,249.32 353.20,249.42 C 353.16,249.53 353.13,249.64 353.11,249.77 C 353.09,249.89 353.09,250.02 353.09,250.16 C 353.10,250.29 353.12,250.44 353.16,250.59 C 353.19,250.75 353.24,250.91 353.30,251.08 C 353.36,251.25 353.43,251.42 353.52,251.61 C 353.60,251.79 353.70,251.99 353.81,252.19 C 353.92,252.39 354.08,252.60 354.19,252.81 C 354.30,253.02 354.39,253.23 354.47,253.44 C 354.55,253.65 354.61,253.85 354.66,254.06 C 354.70,254.27 354.73,254.48 354.75,254.69 C 354.77,254.90 354.77,255.10 354.75,255.31 C 354.73,255.52 354.70,255.73 354.66,255.94 C 354.61,256.15 354.55,256.35 354.47,256.56 C 354.39,256.77 354.30,256.98 354.19,257.19 C 354.08,257.40 353.92,257.61 353.81,257.81 C 353.70,258.02 353.60,258.21 353.52,258.41 C 353.43,258.60 353.36,258.79 353.30,258.97 C 353.24,259.15 353.19,259.33 353.16,259.50 C 353.12,259.67 353.10,259.84 353.09,260.00 C 353.09,260.16 353.09,260.32 353.11,260.47 C 353.13,260.62 353.16,260.77 353.20,260.91 C 353.25,261.05 353.30,261.18 353.38,261.31 C 353.45,261.44 353.55,261.52 353.62,261.69 C 353.70,261.85 353.78,262.06 353.84,262.31 C 353.91,262.56 353.97,262.85 354.03,263.19 C 354.09,263.52 354.14,263.90 354.19,264.31 C 354.23,264.73 354.28,265.19 354.31,265.69 C 354.35,266.19 354.38,266.73 354.41,267.31 C 354.43,267.90 354.45,268.52 354.47,269.19 C 354.48,269.85 354.49,270.56 354.50,271.31 C 354.51,272.06 354.53,272.91 354.50,273.69 C 354.47,274.46 354.40,275.22 354.30,275.96 C 354.21,276.70 354.08,277.43 353.91,278.13 C 353.75,278.84 353.56,279.53 353.33,280.20 C 353.10,280.88 352.84,281.53 352.55,282.17 C 352.25,282.81 351.93,283.43 351.57,284.04 C 351.21,284.64 350.82,285.23 350.40,285.80 C 349.98,286.38 349.52,286.93 349.03,287.47 C 348.54,288.01 347.99,288.54 347.47,289.03 C 346.95,289.52 346.43,289.99 345.91,290.43 C 345.40,290.87 344.88,291.28 344.37,291.66 C 343.85,292.05 343.34,292.40 342.83,292.73 C 342.32,293.06 341.81,293.37 341.30,293.64 C 340.79,293.92 340.28,294.16 339.77,294.38 C 339.27,294.60 338.76,294.80 338.26,294.96 C 337.75,295.13 337.25,295.26 336.75,295.38 C 336.25,295.49 335.74,295.52 335.25,295.62 C 334.76,295.73 334.29,295.84 333.84,295.98 C 333.38,296.11 332.94,296.26 332.51,296.43 C 332.08,296.60 331.67,296.78 331.27,296.98 C 330.87,297.19 330.48,297.40 330.11,297.64 C 329.74,297.88 329.38,298.13 329.04,298.40 C 328.70,298.67 328.37,298.95 328.05,299.26 C 327.74,299.56 327.44,299.88 327.16,300.22 C 326.87,300.56 326.60,300.94 326.34,301.28 C 326.09,301.62 325.86,301.94 325.64,302.25 C 325.42,302.56 325.23,302.85 325.05,303.12 C 324.87,303.40 324.71,303.66 324.56,303.91 C 324.42,304.15 324.29,304.38 324.19,304.59 C 324.08,304.81 323.99,305.01 323.92,305.19 C 323.85,305.37 323.80,305.54 323.77,305.69 C 323.73,305.84 323.72,305.97 323.72,306.09 C 323.72,306.21 323.79,306.30 323.78,306.41 C 323.77,306.51 323.74,306.61 323.67,306.70 C 323.61,306.80 323.51,306.89 323.39,306.98 C 323.27,307.08 323.12,307.16 322.94,307.25 C 322.76,307.34 322.55,307.42 322.31,307.50 C 322.08,307.58 321.81,307.66 321.52,307.73 C 321.22,307.81 320.90,307.88 320.55,307.95 C 320.20,308.02 319.82,308.09 319.41,308.16 C 319.00,308.22 318.51,308.28 318.09,308.34 C 317.68,308.41 317.29,308.48 316.93,308.55 C 316.57,308.63 316.23,308.71 315.91,308.79 C 315.60,308.87 315.31,308.96 315.05,309.05 C 314.78,309.14 314.54,309.23 314.33,309.33 C 314.11,309.43 313.92,309.53 313.76,309.63 C 313.59,309.74 313.45,309.85 313.34,309.96 C 313.22,310.07 313.13,310.19 313.06,310.31 C 313.00,310.43 312.96,310.56 312.94,310.69 C 312.92,310.82 312.92,310.95 312.94,311.09 C 312.96,311.23 313.00,311.38 313.06,311.53 C 313.12,311.68 313.21,311.84 313.31,312.00 C 313.42,312.16 313.54,312.33 313.69,312.50 C 313.83,312.67 314.00,312.85 314.19,313.03 C 314.38,313.21 314.58,313.40 314.81,313.59 C 315.04,313.79 315.29,313.98 315.56,314.19 C 315.83,314.39 316.17,314.61 316.44,314.81 C 316.70,315.02 316.94,315.22 317.16,315.42 C 317.37,315.62 317.56,315.82 317.72,316.02 C 317.88,316.21 318.02,316.40 318.12,316.59 C 318.23,316.78 318.32,316.97 318.38,317.16 C 318.43,317.34 318.46,317.52 318.47,317.70 C 318.47,317.88 318.45,318.06 318.41,318.23 C 318.36,318.41 318.29,318.58 318.19,318.75 C 318.09,318.92 317.93,319.06 317.81,319.25 C 317.70,319.44 317.59,319.65 317.48,319.89 C 317.38,320.13 317.29,320.39 317.20,320.67 C 317.12,320.96 317.04,321.26 316.97,321.59 C 316.90,321.92 316.84,322.28 316.78,322.66 C 316.73,323.03 316.68,323.43 316.64,323.86 C 316.60,324.28 316.57,324.73 316.55,325.20 C 316.52,325.67 316.51,326.17 316.50,326.69 C 316.49,327.21 316.49,327.80 316.50,328.31 C 316.51,328.83 316.52,329.32 316.55,329.78 C 316.57,330.24 316.60,330.68 316.64,331.09 C 316.68,331.51 316.73,331.89 316.78,332.25 C 316.84,332.61 316.90,332.94 316.97,333.25 C 317.04,333.56 317.12,333.84 317.20,334.09 C 317.29,334.35 317.38,334.58 317.48,334.78 C 317.59,334.98 317.70,335.16 317.81,335.31 C 317.93,335.46 318.07,335.56 318.19,335.69 C 318.30,335.81 318.40,335.93 318.49,336.05 C 318.58,336.18 318.66,336.30 318.73,336.41 C 318.79,336.53 318.85,336.65 318.89,336.77 C 318.93,336.88 318.96,337.00 318.98,337.11 C 319.00,337.22 319.01,337.33 319.01,337.45 C 319.00,337.56 318.99,337.67 318.96,337.77 C 318.93,337.88 318.89,337.99 318.84,338.09 C 318.79,338.20 318.76,338.30 318.66,338.41 C 318.55,338.51 318.40,338.61 318.21,338.71 C 318.02,338.81 317.79,338.91 317.51,339.01 C 317.23,339.11 316.91,339.20 316.55,339.30 C 316.18,339.39 315.78,339.49 315.33,339.58 C 314.88,339.67 314.39,339.76 313.85,339.85 C 313.32,339.94 312.74,340.03 312.12,340.12 C 311.50,340.20 310.83,340.29 310.12,340.38 C 309.42,340.46 308.62,340.55 307.88,340.62 C 307.13,340.70 306.40,340.78 305.67,340.84 C 304.95,340.91 304.23,340.97 303.52,341.03 C 302.80,341.09 302.10,341.14 301.41,341.19 C 300.71,341.23 300.02,341.28 299.34,341.31 C 298.66,341.35 297.99,341.38 297.33,341.41 C 296.66,341.43 296.01,341.45 295.36,341.47 C 294.71,341.48 294.07,341.49 293.44,341.50 Z" stroke="none" fill="currentColor" opacity="0.11" />
  <path d="M201.94,268.94L194.70,269.04 M198.94,265.76L204.43,265.76 M194.70,243.05L201.94,243.14 M189.05,243.16L201.29,243.78 M198.94,246.32L204.43,246.32 M184.79,271.04L177.62,269.96 M177.68,270.61L185.88,271.96 M178.82,270.85L185.88,271.96 M177.62,242.02L184.79,240.94 M185.88,240.02L178.82,241.13 M185.88,240.02L177.68,241.37 M198.90,269.66L198.90,261.09 M195.72,256.38L195.72,239.42 M279.41,251.96L279.41,260.11 M305.94,205.60L323.01,205.50 M305.92,204.98L323.03,204.88 M305.88,204.41L322.99,204.32 M305.85,204.23L322.92,204.14 M324.06,205.81L324.05,205.83 M324.62,205.50L324.62,205.52 M324.80,204.88L324.79,204.90 M324.48,204.32L324.48,204.34 M323.86,204.14L323.86,204.16 M323.12,205.09L323.12,205.07 M305.91,307.34L323.01,307.43 M305.86,307.74L322.96,307.83 M305.83,307.67L322.89,307.76 M323.73,306.21L323.72,306.20 M324.37,306.29L324.36,306.27 M324.77,306.79L324.77,306.77 M324.70,307.43L324.70,307.41 M324.19,307.83L324.19,307.81 M323.55,307.74L323.55,307.76 M323.15,307.25L323.15,307.24 M239.81,231.71L253.60,224.72 M239.96,232.01L253.77,225.00 M255.63,222.93L247.64,222.93 M246.55,223.10L246.55,223.10 M239.96,279.99L253.77,287.00 M255.63,289.07L247.64,289.07 M255.63,288.74L247.64,288.74 M246.83,289.07L246.83,289.07 M245.75,253.32L239.57,253.32 M245.79,253.32L239.55,253.32 M245.81,253.70L239.53,253.70 M245.79,254.09L239.55,254.09 M239.57,254.09L245.75,254.09 M239.57,258.68L245.75,258.68 M239.55,258.68L245.79,258.68 M239.53,258.30L245.81,258.30 M245.79,257.91L239.55,257.91 M245.75,257.91L239.57,257.91 M335.33,247.78L335.44,231.87 M304.32,259.67L304.32,265.43 M340.62,232.80L340.62,241.29 M340.62,241.29L340.62,232.80 M336.35,232.80L336.35,241.29 M334.76,234.05L330.29,232.80 M304.27,247.82L319.88,247.82 M319.88,247.82L304.27,247.97 M278.30,255.60L318.23,255.60 M318.23,255.60L302.64,255.60 M278.30,256.40L318.23,256.40 M318.23,256.40L302.64,256.40 M293.07,241.03L330.29,241.29 M263.39,238.05L263.43,230.02 M263.39,238.05L263.41,232.74 M263.39,238.07L263.42,232.80 M301.30,229.66L270.23,229.66 M303.30,232.80L303.32,212.95 M254.23,274.61L271.00,274.65 M340.62,270.75L340.62,279.19 M340.62,270.75L340.62,279.19 M336.35,270.75L336.35,279.19 M304.27,264.18L319.88,264.18 M304.27,264.03L319.88,264.18 M293.07,271.55L330.30,271.76 M293.07,270.97L330.25,270.78 M263.43,281.98L263.39,273.95 M263.41,279.26L263.39,273.95 M257.14,273.99L257.14,279.12 M257.29,273.93L257.29,279.12 M294.70,278.03L274.09,278.03 M274.09,278.03L330.29,278.20 M253.73,251.66L261.04,251.57 M263.72,260.64L255.85,260.63 M178.14,246.75L205.68,246.78 M181.27,249.73L181.19,263.45 M181.27,249.73L181.20,262.31 M172.68,253.44L167.17,253.48 M157.07,261.93L157.03,249.96 M168.52,253.39L170.21,253.40 M168.39,253.30L170.12,253.30 M168.25,253.36L169.95,253.36 M168.52,258.61L170.21,258.61 M168.39,258.71L170.12,258.71 M168.36,258.38L169.98,258.38 M168.25,258.64L169.95,258.64 M181.80,264.54L181.80,254.83 M181.80,254.83L181.81,247.42 M186.14,264.66L186.13,254.83 M186.09,264.65L186.09,254.83 M186.10,264.65L186.10,254.83 M186.13,254.83L186.14,247.45 M186.10,254.83L186.10,247.45 M186.09,254.83L186.09,247.46 M181.82,264.54L181.82,254.83 M181.82,254.83L181.83,247.43 M182.29,256.19L182.24,247.78 M182.24,247.78L182.29,255.90 M200.93,234.26L200.94,277.67 M171.17,274.37L172.14,274.51 M172.26,237.44L171.30,237.58 M208.12,262.16L201.87,262.21 M204.02,265.54L206.19,270.38 M204.02,246.46L206.19,241.62 M211.10,270.98L202.49,265.54 M211.10,241.02L202.49,246.46 M180.10,256.84L187.63,256.84 M221.23,257.71L226.68,257.71 M219.14,255.99L219.13,249.94 M238.77,259.08L230.66,255.98 M238.44,258.97L230.66,255.98 M232.15,246.12L232.15,246.12 M232.15,245.60L232.15,245.60 M231.70,245.33L231.70,245.33 M231.24,245.60L231.24,245.60 M231.24,246.12L231.24,246.12 M232.15,245.01L232.15,245.01 M232.15,244.48L232.15,244.48 M231.70,244.22L231.70,244.22 M231.24,244.48L231.24,244.48 M231.24,245.01L231.24,245.01 M216.57,239.23L230.21,239.23 M216.56,239.00L230.21,239.00 M216.56,238.52L230.21,238.52 M216.57,238.28L230.21,238.28 M216.04,272.85L230.21,272.85 M215.99,272.85L230.21,272.85 M230.21,273.26L215.96,273.26 M230.21,273.67L215.99,273.67 M230.21,273.67L216.04,273.67 M295.52,333.59L291.59,334.10 M291.59,334.10L294.46,333.60 M302.53,318.68L309.21,319.44 M287.98,340.57L295.60,340.59 M287.98,340.57L296.54,340.59 M306.21,336.36L306.21,322.82 M311.61,336.88L311.61,320.05 M311.61,320.05L311.61,335.53 M312.89,333.20L315.27,333.21 M312.56,332.17L312.56,323.40 M312.89,333.70L315.27,333.70 M312.89,322.37L315.27,322.37 M312.89,321.88L315.27,321.88 M317.23,322.36L312.35,322.37 M317.23,321.89L312.35,321.88 M312.06,333.71L314.40,333.71 M312.06,333.20L314.39,333.20 M311.74,332.17L311.74,323.40 M311.61,332.17L311.61,323.40 M314.22,333.21L316.33,333.18 M314.22,333.70L316.33,333.72 M312.06,322.38L314.39,322.38 M312.06,321.87L314.40,321.87 M314.22,322.37L316.33,322.39 M314.22,321.88L316.33,321.86 M317.23,333.22L312.35,333.21 M312.35,333.70L317.23,333.68 M287.22,331.89L289.09,331.87 M283.77,331.32L289.53,331.24 M265.45,319.65L265.45,337.38 M265.31,337.48L265.31,319.56 M265.02,337.38L265.02,319.65 M264.93,337.48L264.93,319.56 M264.65,337.38L264.65,319.65 M264.32,337.38L264.39,319.62 M264.44,337.38L264.44,319.65 M310.23,322.14L310.23,333.43 M309.97,333.43L309.97,322.14 M311.04,335.65L316.04,336.65 M305.62,332.15L305.26,323.56 M305.26,323.56L305.62,332.17 M307.33,331.57L305.62,332.17 M307.33,331.57L305.62,332.15 M302.13,315.25L306.73,325.04 M300.19,313.81L300.94,325.04 M311.65,315.24L310.20,325.04 M310.30,325.04L311.65,315.24 M300.98,312.28L300.98,320.44 M309.05,311.34L309.05,319.73 M303.58,313.00L303.58,319.73 M301.76,313.72L301.76,319.73 M306.72,207.45L302.30,195.64 M306.04,207.45L301.53,195.71 M300.00,195.98L300.85,191.15 M301.30,207.45L300.09,194.59 M300.09,194.59L301.04,207.45 M308.31,195.70L310.18,207.45 M307.56,195.60L310.92,207.45 M302.61,196.59L299.94,207.45 M302.61,196.59L304.20,191.62 M311.25,195.72L310.29,207.45 M311.55,195.70L309.89,207.45 M302.30,316.36L306.72,304.55 M301.53,316.29L306.04,304.55 M300.00,316.02L300.85,320.85 M300.09,317.41L301.30,304.55 M301.04,304.55L300.09,317.41 M308.31,316.30L310.18,304.55 M310.92,304.55L307.56,316.40 M299.94,304.55L302.61,315.41 M302.61,315.41L304.20,320.38 M311.25,316.28L310.29,304.55 M309.89,304.55L311.55,316.30 M301.57,203.29L301.57,194.67 M305.40,195.00L305.40,203.29 M301.57,203.29L301.57,194.90 M309.23,195.22L309.23,203.29 M309.23,194.48L309.23,203.29 M305.40,308.71L305.40,317.00 M301.57,308.71L301.57,317.33 M309.23,316.78L309.23,308.71 M301.57,308.71L301.57,317.10 M309.23,317.52L309.23,308.71 M206.67,266.89L202.88,266.46 M206.67,245.11L202.88,245.54 M296.70,177.72L292.83,177.72 M296.85,177.88L292.97,177.88 M297.22,177.72L303.77,177.72 M296.70,190.67L292.83,190.67 M292.97,190.50L296.85,190.50 M303.77,190.67L297.22,190.67 M296.73,193.39L296.66,198.44 M289.97,171.78L299.02,171.76 M290.09,171.85L299.15,171.83 M289.71,171.43L298.96,171.41 M287.98,171.43L296.54,171.41 M287.98,171.43L295.60,171.41 M287.98,196.96L295.60,196.98 M287.98,196.96L300.85,196.99 M298.35,196.98L308.68,196.96 M298.35,196.98L304.34,196.97 M308.68,196.96L304.34,196.97 M304.34,196.97L298.23,196.98 M306.21,189.18L306.21,175.64 M311.61,175.11L311.61,191.95 M311.61,191.95L311.61,176.47 M287.22,187.92L289.10,187.89 M283.78,187.35L289.53,187.27 M265.45,175.68L265.45,193.41 M265.31,193.51L265.31,175.59 M265.02,193.41L265.02,175.68 M264.93,193.51L264.93,175.59 M264.65,193.41L264.65,175.68 M264.32,193.41L264.39,175.65 M264.45,193.41L264.45,175.68 M310.23,178.56L310.23,189.85 M309.97,189.85L309.97,178.56 M311.04,176.34L316.04,175.35 M307.29,180.24L305.57,180.32 M305.63,188.37L305.26,179.88 M305.26,179.88L305.62,187.33 M305.58,180.58L307.78,179.89 M305.58,180.58L307.30,180.01 M302.13,200.22L306.72,190.44 M300.19,201.66L300.94,190.44 M311.65,200.23L310.20,190.44 M310.30,190.44L311.65,200.23 M300.98,203.19L300.98,195.04 M309.82,201.48L309.82,195.04 M307.22,202.66L307.22,195.75 M309.05,195.75L309.05,204.13" stroke="currentColor" stroke-width="0.6" stroke-linecap="round" fill="none" opacity="0.55" clip-path="url(#hull-clip)" filter="url(#glow)" />
  <path d="M 293.44,341.50 C 292.80,341.51 292.16,341.51 291.56,341.50 C 290.96,341.49 290.38,341.46 289.83,341.42 C 289.27,341.38 288.74,341.33 288.23,341.27 C 287.73,341.20 287.24,341.12 286.78,341.03 C 286.32,340.94 285.88,340.84 285.47,340.72 C 285.05,340.60 284.66,340.47 284.30,340.33 C 283.93,340.18 283.59,340.03 283.27,339.86 C 282.95,339.69 282.65,339.51 282.38,339.31 C 282.10,339.12 281.89,338.88 281.62,338.69 C 281.36,338.49 281.08,338.32 280.78,338.16 C 280.48,337.99 280.17,337.85 279.84,337.72 C 279.52,337.59 279.17,337.47 278.81,337.38 C 278.45,337.28 278.08,337.19 277.69,337.12 C 277.30,337.06 276.89,337.01 276.47,336.97 C 276.05,336.93 275.61,336.91 275.16,336.91 C 274.70,336.90 274.23,336.91 273.75,336.94 C 273.27,336.96 272.73,337.03 272.25,337.06 C 271.77,337.10 271.32,337.13 270.88,337.15 C 270.45,337.17 270.04,337.19 269.65,337.20 C 269.26,337.20 268.89,337.21 268.55,337.20 C 268.20,337.20 267.88,337.19 267.58,337.17 C 267.28,337.15 267.00,337.13 266.74,337.10 C 266.49,337.07 266.25,337.04 266.04,336.99 C 265.83,336.95 265.64,336.90 265.47,336.84 C 265.30,336.79 265.17,336.76 265.03,336.66 C 264.90,336.55 264.77,336.41 264.66,336.23 C 264.54,336.05 264.44,335.84 264.34,335.58 C 264.25,335.32 264.17,335.02 264.09,334.69 C 264.02,334.35 263.96,333.98 263.91,333.56 C 263.85,333.15 263.81,332.70 263.78,332.20 C 263.75,331.71 263.73,331.18 263.72,330.61 C 263.71,330.04 263.71,329.43 263.72,328.78 C 263.73,328.13 263.73,327.36 263.78,326.72 C 263.83,326.07 263.91,325.47 264.02,324.91 C 264.13,324.36 264.27,323.84 264.45,323.37 C 264.62,322.89 264.82,322.46 265.05,322.08 C 265.28,321.69 265.54,321.35 265.83,321.05 C 266.12,320.75 266.44,320.49 266.79,320.27 C 267.14,320.06 267.52,319.89 267.93,319.76 C 268.34,319.63 268.78,319.54 269.25,319.50 C 269.72,319.46 270.26,319.51 270.75,319.50 C 271.24,319.49 271.71,319.48 272.17,319.45 C 272.63,319.43 273.08,319.40 273.52,319.36 C 273.95,319.32 274.37,319.27 274.78,319.22 C 275.19,319.16 275.59,319.10 275.97,319.03 C 276.35,318.96 276.72,318.88 277.08,318.80 C 277.43,318.71 277.78,318.62 278.11,318.52 C 278.44,318.41 278.76,318.30 279.06,318.19 C 279.37,318.07 279.66,317.94 279.94,317.81 C 280.22,317.68 280.49,317.55 280.75,317.42 C 281.01,317.29 281.26,317.15 281.50,317.02 C 281.74,316.88 281.97,316.74 282.19,316.59 C 282.41,316.45 282.61,316.30 282.81,316.16 C 283.01,316.01 283.20,315.86 283.38,315.70 C 283.55,315.55 283.72,315.39 283.88,315.23 C 284.03,315.08 284.18,314.91 284.31,314.75 C 284.45,314.59 284.54,314.41 284.69,314.25 C 284.83,314.09 285.00,313.94 285.20,313.80 C 285.39,313.67 285.60,313.54 285.84,313.41 C 286.07,313.29 286.33,313.18 286.61,313.08 C 286.89,312.98 287.19,312.88 287.52,312.80 C 287.84,312.71 288.19,312.64 288.55,312.57 C 288.92,312.50 289.31,312.45 289.73,312.40 C 290.14,312.35 290.57,312.31 291.03,312.28 C 291.49,312.25 292.03,312.25 292.47,312.22 C 292.91,312.18 293.31,312.14 293.67,312.08 C 294.03,312.02 294.36,311.95 294.64,311.86 C 294.92,311.77 295.17,311.67 295.38,311.56 C 295.58,311.45 295.75,311.33 295.88,311.19 C 296.00,311.05 296.09,310.90 296.14,310.73 C 296.19,310.57 296.20,310.39 296.17,310.20 C 296.14,310.01 296.08,309.81 295.97,309.59 C 295.86,309.38 295.74,309.15 295.53,308.91 C 295.33,308.66 295.06,308.39 294.74,308.10 C 294.42,307.81 294.04,307.51 293.60,307.18 C 293.16,306.85 292.67,306.51 292.11,306.14 C 291.55,305.77 290.94,305.39 290.27,304.98 C 289.59,304.58 288.86,304.15 288.07,303.71 C 287.28,303.27 286.43,302.80 285.52,302.32 C 284.62,301.84 283.65,301.33 282.62,300.81 C 281.60,300.29 280.41,299.70 279.38,299.19 C 278.34,298.67 277.36,298.18 276.42,297.72 C 275.49,297.26 274.60,296.82 273.77,296.41 C 272.93,295.99 272.14,295.61 271.41,295.25 C 270.67,294.89 269.98,294.56 269.34,294.25 C 268.71,293.94 268.12,293.66 267.58,293.41 C 267.04,293.15 266.55,292.92 266.11,292.72 C 265.67,292.52 265.28,292.34 264.94,292.19 C 264.60,292.04 264.37,291.93 264.06,291.81 C 263.76,291.70 263.43,291.59 263.09,291.48 C 262.76,291.38 262.40,291.29 262.03,291.20 C 261.66,291.12 261.28,291.04 260.88,290.97 C 260.47,290.90 260.06,290.84 259.62,290.78 C 259.19,290.73 258.74,290.68 258.28,290.64 C 257.82,290.60 257.34,290.57 256.84,290.55 C 256.35,290.52 255.84,290.51 255.31,290.50 C 254.79,290.49 254.26,290.52 253.69,290.50 C 253.12,290.48 252.52,290.43 251.89,290.36 C 251.26,290.29 250.61,290.20 249.92,290.08 C 249.24,289.96 248.52,289.82 247.78,289.66 C 247.04,289.49 246.27,289.30 245.47,289.09 C 244.67,288.88 243.84,288.65 242.98,288.39 C 242.13,288.13 241.24,287.85 240.33,287.55 C 239.41,287.24 238.47,286.91 237.50,286.56 C 236.53,286.21 235.48,285.79 234.50,285.44 C 233.52,285.09 232.55,284.76 231.61,284.45 C 230.66,284.15 229.74,283.87 228.83,283.61 C 227.92,283.35 227.03,283.12 226.16,282.91 C 225.28,282.70 224.43,282.51 223.59,282.34 C 222.76,282.18 221.94,282.04 221.14,281.92 C 220.34,281.80 219.56,281.71 218.80,281.64 C 218.03,281.57 217.29,281.52 216.56,281.50 C 215.84,281.48 215.11,281.51 214.44,281.50 C 213.77,281.49 213.14,281.48 212.55,281.47 C 211.96,281.45 211.40,281.43 210.89,281.41 C 210.38,281.38 209.90,281.35 209.47,281.31 C 209.03,281.28 208.64,281.23 208.28,281.19 C 207.92,281.14 207.61,281.09 207.33,281.03 C 207.05,280.97 206.81,280.91 206.61,280.84 C 206.41,280.78 206.25,280.70 206.12,280.62 C 206.00,280.55 205.97,280.45 205.88,280.38 C 205.78,280.30 205.68,280.23 205.56,280.17 C 205.45,280.11 205.32,280.06 205.19,280.02 C 205.05,279.97 204.91,279.93 204.75,279.91 C 204.59,279.88 204.43,279.86 204.25,279.84 C 204.07,279.83 203.89,279.83 203.69,279.83 C 203.49,279.83 203.28,279.84 203.06,279.86 C 202.84,279.88 202.61,279.90 202.38,279.94 C 202.14,279.97 201.86,280.03 201.62,280.06 C 201.39,280.10 201.16,280.12 200.94,280.14 C 200.72,280.16 200.51,280.17 200.31,280.17 C 200.11,280.17 199.93,280.17 199.75,280.16 C 199.57,280.14 199.41,280.12 199.25,280.09 C 199.09,280.07 198.95,280.03 198.81,279.98 C 198.68,279.94 198.55,279.89 198.44,279.83 C 198.32,279.77 198.22,279.70 198.12,279.62 C 198.03,279.55 197.97,279.45 197.88,279.38 C 197.78,279.30 197.68,279.22 197.56,279.16 C 197.45,279.09 197.32,279.03 197.19,278.97 C 197.05,278.91 196.91,278.86 196.75,278.81 C 196.59,278.77 196.43,278.72 196.25,278.69 C 196.07,278.65 195.89,278.62 195.69,278.59 C 195.49,278.57 195.28,278.55 195.06,278.53 C 194.84,278.52 194.61,278.51 194.38,278.50 C 194.14,278.49 193.87,278.48 193.62,278.50 C 193.38,278.52 193.13,278.55 192.89,278.61 C 192.65,278.66 192.41,278.74 192.17,278.83 C 191.93,278.92 191.70,279.03 191.47,279.16 C 191.24,279.28 191.01,279.43 190.78,279.59 C 190.55,279.76 190.33,279.94 190.11,280.14 C 189.89,280.34 189.67,280.56 189.45,280.80 C 189.24,281.03 189.02,281.29 188.81,281.56 C 188.60,281.84 188.43,282.17 188.19,282.44 C 187.94,282.71 187.66,282.95 187.34,283.17 C 187.03,283.39 186.67,283.59 186.28,283.77 C 185.89,283.94 185.46,284.09 185.00,284.22 C 184.54,284.35 184.04,284.45 183.50,284.53 C 182.96,284.61 182.39,284.67 181.78,284.70 C 181.17,284.74 180.53,284.75 179.84,284.73 C 179.16,284.72 178.44,284.68 177.69,284.62 C 176.93,284.57 176.07,284.48 175.31,284.38 C 174.56,284.27 173.84,284.15 173.16,284.00 C 172.47,283.85 171.83,283.69 171.22,283.50 C 170.61,283.31 170.04,283.10 169.50,282.88 C 168.96,282.65 168.46,282.40 168.00,282.12 C 167.54,281.85 167.11,281.56 166.72,281.25 C 166.33,280.94 165.97,280.60 165.66,280.25 C 165.34,279.90 165.06,279.52 164.81,279.12 C 164.57,278.73 164.41,278.27 164.19,277.88 C 163.96,277.48 163.72,277.11 163.47,276.77 C 163.21,276.42 162.94,276.10 162.66,275.80 C 162.37,275.50 162.07,275.22 161.75,274.97 C 161.43,274.72 161.10,274.49 160.75,274.28 C 160.40,274.08 160.04,273.89 159.66,273.73 C 159.28,273.58 158.88,273.44 158.47,273.33 C 158.06,273.22 157.63,273.13 157.19,273.06 C 156.74,273.00 156.25,272.98 155.81,272.94 C 155.38,272.89 154.97,272.84 154.59,272.79 C 154.20,272.74 153.84,272.68 153.51,272.62 C 153.17,272.56 152.86,272.49 152.58,272.42 C 152.29,272.35 152.03,272.28 151.80,272.20 C 151.56,272.13 151.35,272.05 151.16,271.96 C 150.98,271.88 150.82,271.79 150.68,271.70 C 150.54,271.60 150.43,271.51 150.34,271.41 C 150.26,271.31 150.21,271.27 150.16,271.09 C 150.10,270.92 150.04,270.68 149.99,270.37 C 149.94,270.06 149.89,269.68 149.85,269.23 C 149.81,268.78 149.77,268.26 149.73,267.67 C 149.70,267.08 149.67,266.43 149.64,265.70 C 149.61,264.98 149.59,264.18 149.57,263.32 C 149.55,262.46 149.54,261.52 149.52,260.52 C 149.51,259.52 149.50,258.45 149.50,257.31 C 149.50,256.17 149.50,254.83 149.50,253.69 C 149.50,252.55 149.51,251.48 149.52,250.48 C 149.54,249.48 149.55,248.54 149.57,247.68 C 149.59,246.82 149.61,246.02 149.64,245.30 C 149.67,244.57 149.70,243.92 149.73,243.33 C 149.77,242.74 149.81,242.22 149.85,241.77 C 149.89,241.32 149.94,240.94 149.99,240.63 C 150.04,240.32 150.10,240.08 150.16,239.91 C 150.21,239.73 150.26,239.69 150.34,239.59 C 150.43,239.49 150.54,239.40 150.68,239.30 C 150.82,239.21 150.98,239.12 151.16,239.04 C 151.35,238.95 151.56,238.87 151.80,238.80 C 152.03,238.72 152.29,238.65 152.58,238.58 C 152.86,238.51 153.17,238.44 153.51,238.38 C 153.84,238.32 154.20,238.26 154.59,238.21 C 154.97,238.16 155.38,238.11 155.81,238.06 C 156.25,238.02 156.74,238.00 157.19,237.94 C 157.63,237.87 158.06,237.78 158.47,237.67 C 158.88,237.56 159.28,237.42 159.66,237.27 C 160.04,237.11 160.40,236.92 160.75,236.72 C 161.10,236.51 161.43,236.28 161.75,236.03 C 162.07,235.78 162.37,235.50 162.66,235.20 C 162.94,234.90 163.21,234.58 163.47,234.23 C 163.72,233.89 163.96,233.52 164.19,233.12 C 164.41,232.73 164.57,232.27 164.81,231.88 C 165.06,231.48 165.34,231.10 165.66,230.75 C 165.97,230.40 166.33,230.06 166.72,229.75 C 167.11,229.44 167.54,229.15 168.00,228.88 C 168.46,228.60 168.96,228.35 169.50,228.12 C 170.04,227.90 170.61,227.69 171.22,227.50 C 171.83,227.31 172.47,227.15 173.16,227.00 C 173.84,226.85 174.56,226.73 175.31,226.62 C 176.07,226.52 176.93,226.43 177.69,226.38 C 178.44,226.32 179.16,226.28 179.84,226.27 C 180.53,226.25 181.17,226.26 181.78,226.30 C 182.39,226.33 182.96,226.39 183.50,226.47 C 184.04,226.55 184.54,226.65 185.00,226.78 C 185.46,226.91 185.89,227.06 186.28,227.23 C 186.67,227.41 187.03,227.61 187.34,227.83 C 187.66,228.05 187.94,228.29 188.19,228.56 C 188.43,228.83 188.60,229.16 188.81,229.44 C 189.02,229.71 189.24,229.97 189.45,230.20 C 189.67,230.44 189.89,230.66 190.11,230.86 C 190.33,231.06 190.55,231.24 190.78,231.41 C 191.01,231.57 191.24,231.72 191.47,231.84 C 191.70,231.97 191.93,232.08 192.17,232.17 C 192.41,232.26 192.65,232.34 192.89,232.39 C 193.13,232.45 193.38,232.48 193.62,232.50 C 193.87,232.52 194.12,232.50 194.38,232.50 C 194.63,232.50 194.89,232.49 195.16,232.48 C 195.42,232.48 195.69,232.47 195.97,232.45 C 196.24,232.44 196.53,232.42 196.81,232.41 C 197.10,232.39 197.39,232.37 197.69,232.34 C 197.98,232.32 198.29,232.29 198.59,232.27 C 198.90,232.24 199.21,232.21 199.53,232.17 C 199.85,232.14 200.17,232.10 200.50,232.06 C 200.83,232.02 201.18,231.98 201.50,231.94 C 201.82,231.89 202.12,231.85 202.41,231.80 C 202.69,231.75 202.96,231.70 203.22,231.64 C 203.47,231.59 203.71,231.53 203.94,231.47 C 204.16,231.41 204.37,231.35 204.56,231.28 C 204.76,231.22 204.93,231.15 205.09,231.08 C 205.26,231.01 205.40,230.93 205.53,230.86 C 205.66,230.78 205.78,230.71 205.88,230.62 C 205.97,230.54 206.00,230.45 206.12,230.38 C 206.25,230.30 206.41,230.22 206.61,230.16 C 206.81,230.09 207.05,230.03 207.33,229.97 C 207.61,229.91 207.92,229.86 208.28,229.81 C 208.64,229.77 209.03,229.72 209.47,229.69 C 209.90,229.65 210.38,229.62 210.89,229.59 C 211.40,229.57 211.96,229.55 212.55,229.53 C 213.14,229.52 213.77,229.51 214.44,229.50 C 215.11,229.49 215.84,229.52 216.56,229.50 C 217.29,229.48 218.03,229.43 218.80,229.36 C 219.56,229.29 220.34,229.20 221.14,229.08 C 221.94,228.96 222.76,228.82 223.59,228.66 C 224.43,228.49 225.28,228.30 226.16,228.09 C 227.03,227.88 227.92,227.65 228.83,227.39 C 229.74,227.13 230.66,226.85 231.61,226.55 C 232.55,226.24 233.52,225.91 234.50,225.56 C 235.48,225.21 236.53,224.79 237.50,224.44 C 238.47,224.08 239.42,223.75 240.34,223.44 C 241.27,223.12 242.16,222.83 243.03,222.56 C 243.90,222.29 244.74,222.04 245.56,221.81 C 246.38,221.58 247.17,221.38 247.94,221.19 C 248.70,221.00 249.44,220.83 250.16,220.69 C 250.87,220.54 251.56,220.42 252.22,220.31 C 252.88,220.21 253.52,220.12 254.12,220.06 C 254.73,220.00 255.24,220.02 255.88,219.94 C 256.51,219.86 257.18,219.74 257.91,219.59 C 258.63,219.44 259.40,219.26 260.22,219.03 C 261.04,218.81 261.90,218.55 262.81,218.25 C 263.72,217.95 264.68,217.62 265.69,217.25 C 266.69,216.88 267.74,216.47 268.84,216.03 C 269.94,215.59 271.09,215.11 272.28,214.59 C 273.47,214.08 274.71,213.53 276.00,212.94 C 277.29,212.35 278.74,211.66 280.00,211.06 C 281.26,210.46 282.44,209.89 283.55,209.35 C 284.67,208.81 285.70,208.29 286.66,207.80 C 287.63,207.32 288.51,206.86 289.33,206.42 C 290.14,205.99 290.88,205.58 291.55,205.20 C 292.21,204.82 292.80,204.47 293.32,204.15 C 293.84,203.82 294.28,203.53 294.65,203.26 C 295.02,202.99 295.31,202.75 295.53,202.53 C 295.75,202.32 295.85,202.15 295.97,201.97 C 296.09,201.79 296.19,201.61 296.27,201.44 C 296.34,201.27 296.39,201.10 296.42,200.94 C 296.45,200.78 296.46,200.62 296.44,200.47 C 296.42,200.32 296.38,200.17 296.31,200.03 C 296.25,199.89 296.16,199.76 296.05,199.62 C 295.93,199.49 295.80,199.37 295.64,199.25 C 295.48,199.13 295.30,199.02 295.09,198.91 C 294.89,198.80 294.64,198.69 294.41,198.59 C 294.18,198.50 293.94,198.41 293.71,198.34 C 293.48,198.26 293.24,198.19 293.01,198.13 C 292.77,198.07 292.54,198.02 292.30,197.98 C 292.06,197.94 291.82,197.91 291.58,197.89 C 291.34,197.87 291.10,197.86 290.85,197.85 C 290.61,197.85 290.36,197.85 290.12,197.87 C 289.87,197.88 289.62,197.90 289.38,197.94 C 289.13,197.97 288.88,198.04 288.62,198.06 C 288.37,198.09 288.11,198.09 287.84,198.08 C 287.58,198.07 287.31,198.03 287.03,197.98 C 286.76,197.93 286.47,197.87 286.19,197.78 C 285.90,197.70 285.61,197.59 285.31,197.47 C 285.02,197.35 284.71,197.21 284.41,197.05 C 284.10,196.89 283.79,196.71 283.47,196.52 C 283.15,196.32 282.83,196.11 282.50,195.88 C 282.17,195.64 281.85,195.36 281.50,195.12 C 281.15,194.89 280.79,194.68 280.41,194.48 C 280.03,194.29 279.63,194.11 279.22,193.95 C 278.81,193.79 278.38,193.65 277.94,193.53 C 277.49,193.41 277.04,193.30 276.56,193.22 C 276.09,193.13 275.60,193.07 275.09,193.02 C 274.59,192.97 274.07,192.93 273.53,192.92 C 272.99,192.91 272.44,192.91 271.88,192.94 C 271.31,192.96 270.67,193.07 270.12,193.06 C 269.58,193.06 269.06,193.00 268.59,192.90 C 268.11,192.80 267.67,192.64 267.26,192.45 C 266.85,192.25 266.48,192.00 266.14,191.70 C 265.80,191.41 265.50,191.06 265.23,190.67 C 264.97,190.28 264.74,189.84 264.54,189.35 C 264.34,188.86 264.18,188.33 264.05,187.74 C 263.93,187.16 263.84,186.52 263.78,185.84 C 263.73,185.16 263.73,184.34 263.72,183.66 C 263.71,182.97 263.71,182.32 263.72,181.72 C 263.73,181.11 263.75,180.55 263.78,180.03 C 263.81,179.51 263.85,179.03 263.91,178.59 C 263.96,178.16 264.02,177.76 264.09,177.41 C 264.17,177.05 264.25,176.74 264.34,176.47 C 264.44,176.20 264.54,175.97 264.66,175.78 C 264.77,175.59 264.90,175.45 265.03,175.34 C 265.17,175.24 265.31,175.21 265.47,175.16 C 265.63,175.10 265.80,175.05 265.99,175.01 C 266.18,174.96 266.38,174.93 266.60,174.90 C 266.82,174.87 267.05,174.85 267.30,174.83 C 267.54,174.81 267.80,174.80 268.08,174.80 C 268.35,174.79 268.64,174.80 268.95,174.80 C 269.25,174.81 269.57,174.83 269.90,174.85 C 270.23,174.87 270.58,174.90 270.94,174.94 C 271.30,174.97 271.70,175.03 272.06,175.06 C 272.43,175.10 272.79,175.12 273.14,175.14 C 273.49,175.16 273.84,175.17 274.17,175.17 C 274.51,175.17 274.84,175.17 275.16,175.16 C 275.48,175.14 275.79,175.12 276.09,175.09 C 276.40,175.07 276.70,175.03 276.98,174.98 C 277.27,174.94 277.55,174.89 277.83,174.83 C 278.10,174.77 278.37,174.70 278.62,174.62 C 278.88,174.55 279.13,174.46 279.38,174.38 C 279.62,174.29 279.85,174.19 280.08,174.09 C 280.30,173.99 280.52,173.89 280.73,173.78 C 280.95,173.67 281.15,173.56 281.34,173.44 C 281.54,173.32 281.73,173.19 281.91,173.06 C 282.09,172.93 282.26,172.80 282.42,172.66 C 282.59,172.52 282.74,172.37 282.89,172.22 C 283.04,172.07 283.18,171.91 283.31,171.75 C 283.45,171.59 283.53,171.41 283.69,171.25 C 283.84,171.09 284.03,170.95 284.25,170.81 C 284.47,170.68 284.72,170.55 285.00,170.44 C 285.28,170.32 285.59,170.22 285.94,170.12 C 286.28,170.03 286.66,169.95 287.06,169.88 C 287.47,169.80 287.91,169.74 288.38,169.69 C 288.84,169.64 289.34,169.59 289.88,169.56 C 290.41,169.53 290.97,169.51 291.56,169.50 C 292.16,169.49 292.80,169.49 293.44,169.50 C 294.07,169.51 294.71,169.52 295.36,169.53 C 296.01,169.55 296.66,169.57 297.33,169.59 C 297.99,169.62 298.66,169.65 299.34,169.69 C 300.02,169.72 300.71,169.77 301.41,169.81 C 302.10,169.86 302.80,169.91 303.52,169.97 C 304.23,170.03 304.95,170.09 305.67,170.16 C 306.40,170.22 307.13,170.30 307.88,170.38 C 308.62,170.45 309.42,170.54 310.12,170.62 C 310.83,170.71 311.50,170.80 312.12,170.88 C 312.74,170.97 313.32,171.06 313.85,171.15 C 314.39,171.24 314.88,171.33 315.33,171.42 C 315.78,171.51 316.18,171.61 316.55,171.70 C 316.91,171.80 317.23,171.89 317.51,171.99 C 317.79,172.09 318.02,172.19 318.21,172.29 C 318.40,172.39 318.55,172.49 318.66,172.59 C 318.76,172.70 318.79,172.80 318.84,172.91 C 318.89,173.01 318.93,173.12 318.96,173.23 C 318.99,173.33 319.00,173.44 319.01,173.55 C 319.01,173.67 319.00,173.78 318.98,173.89 C 318.96,174.00 318.93,174.12 318.89,174.23 C 318.85,174.35 318.79,174.47 318.73,174.59 C 318.66,174.70 318.58,174.82 318.49,174.95 C 318.40,175.07 318.30,175.19 318.19,175.31 C 318.07,175.44 317.93,175.54 317.81,175.69 C 317.70,175.84 317.59,176.02 317.48,176.22 C 317.38,176.42 317.29,176.65 317.20,176.91 C 317.12,177.16 317.04,177.44 316.97,177.75 C 316.90,178.06 316.84,178.39 316.78,178.75 C 316.73,179.11 316.68,179.49 316.64,179.91 C 316.60,180.32 316.57,180.76 316.55,181.22 C 316.52,181.68 316.51,182.17 316.50,182.69 C 316.49,183.20 316.49,183.79 316.50,184.31 C 316.51,184.83 316.52,185.33 316.55,185.80 C 316.57,186.27 316.60,186.72 316.64,187.14 C 316.68,187.57 316.73,187.97 316.78,188.34 C 316.84,188.72 316.90,189.08 316.97,189.41 C 317.04,189.74 317.12,190.04 317.20,190.33 C 317.29,190.61 317.38,190.87 317.48,191.11 C 317.59,191.35 317.70,191.56 317.81,191.75 C 317.93,191.94 318.09,192.08 318.19,192.25 C 318.29,192.42 318.36,192.59 318.41,192.77 C 318.45,192.94 318.47,193.12 318.47,193.30 C 318.46,193.48 318.43,193.66 318.38,193.84 C 318.32,194.03 318.23,194.22 318.12,194.41 C 318.02,194.60 317.88,194.79 317.72,194.98 C 317.56,195.18 317.37,195.38 317.16,195.58 C 316.94,195.78 316.70,195.98 316.44,196.19 C 316.17,196.39 315.83,196.61 315.56,196.81 C 315.29,197.02 315.04,197.21 314.81,197.41 C 314.58,197.60 314.38,197.79 314.19,197.97 C 314.00,198.15 313.83,198.33 313.69,198.50 C 313.54,198.67 313.42,198.84 313.31,199.00 C 313.21,199.16 313.12,199.32 313.06,199.47 C 313.00,199.62 312.96,199.77 312.94,199.91 C 312.92,200.05 312.92,200.18 312.94,200.31 C 312.96,200.44 313.00,200.57 313.06,200.69 C 313.13,200.81 313.22,200.93 313.34,201.04 C 313.45,201.15 313.59,201.26 313.76,201.37 C 313.92,201.47 314.11,201.57 314.33,201.67 C 314.54,201.77 314.78,201.86 315.05,201.95 C 315.31,202.04 315.60,202.13 315.91,202.21 C 316.23,202.29 316.57,202.37 316.93,202.45 C 317.29,202.52 317.68,202.59 318.09,202.66 C 318.51,202.72 319.00,202.78 319.41,202.84 C 319.82,202.91 320.20,202.98 320.55,203.05 C 320.90,203.12 321.22,203.19 321.52,203.27 C 321.81,203.34 322.08,203.42 322.31,203.50 C 322.55,203.58 322.76,203.66 322.94,203.75 C 323.12,203.84 323.27,203.92 323.39,204.02 C 323.51,204.11 323.61,204.20 323.67,204.30 C 323.74,204.39 323.77,204.49 323.78,204.59 C 323.79,204.70 323.72,204.79 323.72,204.91 C 323.72,205.03 323.73,205.16 323.77,205.31 C 323.80,205.46 323.85,205.63 323.92,205.81 C 323.99,205.99 324.08,206.19 324.19,206.41 C 324.29,206.62 324.42,206.85 324.56,207.09 C 324.71,207.34 324.87,207.60 325.05,207.88 C 325.23,208.15 325.42,208.44 325.64,208.75 C 325.86,209.06 326.09,209.38 326.34,209.72 C 326.60,210.06 326.87,210.44 327.16,210.78 C 327.44,211.12 327.74,211.44 328.05,211.74 C 328.37,212.05 328.70,212.33 329.04,212.60 C 329.38,212.87 329.74,213.12 330.11,213.36 C 330.48,213.60 330.87,213.81 331.27,214.02 C 331.67,214.22 332.08,214.40 332.51,214.57 C 332.94,214.74 333.38,214.89 333.84,215.02 C 334.29,215.16 334.76,215.27 335.25,215.38 C 335.74,215.48 336.25,215.51 336.75,215.62 C 337.25,215.74 337.75,215.87 338.26,216.04 C 338.76,216.20 339.27,216.40 339.77,216.62 C 340.28,216.84 340.79,217.08 341.30,217.36 C 341.81,217.63 342.32,217.94 342.83,218.27 C 343.34,218.60 343.85,218.95 344.37,219.34 C 344.88,219.72 345.40,220.13 345.91,220.57 C 346.43,221.01 346.95,221.48 347.47,221.97 C 347.99,222.46 348.54,222.99 349.03,223.53 C 349.52,224.07 349.98,224.62 350.40,225.20 C 350.82,225.77 351.21,226.36 351.57,226.96 C 351.93,227.57 352.25,228.19 352.55,228.83 C 352.84,229.47 353.10,230.12 353.33,230.80 C 353.56,231.47 353.75,232.16 353.91,232.87 C 354.08,233.57 354.21,234.30 354.30,235.04 C 354.40,235.78 354.47,236.54 354.50,237.31 C 354.53,238.09 354.51,238.94 354.50,239.69 C 354.49,240.43 354.48,241.14 354.47,241.80 C 354.45,242.46 354.43,243.07 354.41,243.64 C 354.38,244.21 354.35,244.74 354.31,245.22 C 354.28,245.70 354.23,246.14 354.19,246.53 C 354.14,246.92 354.09,247.27 354.03,247.58 C 353.97,247.88 353.91,248.14 353.84,248.36 C 353.78,248.58 353.70,248.75 353.62,248.88 C 353.55,249.00 353.45,249.03 353.38,249.12 C 353.30,249.22 353.25,249.32 353.20,249.42 C 353.16,249.53 353.13,249.64 353.11,249.77 C 353.09,249.89 353.09,250.02 353.09,250.16 C 353.10,250.29 353.12,250.44 353.16,250.59 C 353.19,250.75 353.24,250.91 353.30,251.08 C 353.36,251.25 353.43,251.42 353.52,251.61 C 353.60,251.79 353.70,251.99 353.81,252.19 C 353.92,252.39 354.08,252.60 354.19,252.81 C 354.30,253.02 354.39,253.23 354.47,253.44 C 354.55,253.65 354.61,253.85 354.66,254.06 C 354.70,254.27 354.73,254.48 354.75,254.69 C 354.77,254.90 354.77,255.10 354.75,255.31 C 354.73,255.52 354.70,255.73 354.66,255.94 C 354.61,256.15 354.55,256.35 354.47,256.56 C 354.39,256.77 354.30,256.98 354.19,257.19 C 354.08,257.40 353.92,257.61 353.81,257.81 C 353.70,258.02 353.60,258.21 353.52,258.41 C 353.43,258.60 353.36,258.79 353.30,258.97 C 353.24,259.15 353.19,259.33 353.16,259.50 C 353.12,259.67 353.10,259.84 353.09,260.00 C 353.09,260.16 353.09,260.32 353.11,260.47 C 353.13,260.62 353.16,260.77 353.20,260.91 C 353.25,261.05 353.30,261.18 353.38,261.31 C 353.45,261.44 353.55,261.52 353.62,261.69 C 353.70,261.85 353.78,262.06 353.84,262.31 C 353.91,262.56 353.97,262.85 354.03,263.19 C 354.09,263.52 354.14,263.90 354.19,264.31 C 354.23,264.73 354.28,265.19 354.31,265.69 C 354.35,266.19 354.38,266.73 354.41,267.31 C 354.43,267.90 354.45,268.52 354.47,269.19 C 354.48,269.85 354.49,270.56 354.50,271.31 C 354.51,272.06 354.53,272.91 354.50,273.69 C 354.47,274.46 354.40,275.22 354.30,275.96 C 354.21,276.70 354.08,277.43 353.91,278.13 C 353.75,278.84 353.56,279.53 353.33,280.20 C 353.10,280.88 352.84,281.53 352.55,282.17 C 352.25,282.81 351.93,283.43 351.57,284.04 C 351.21,284.64 350.82,285.23 350.40,285.80 C 349.98,286.38 349.52,286.93 349.03,287.47 C 348.54,288.01 347.99,288.54 347.47,289.03 C 346.95,289.52 346.43,289.99 345.91,290.43 C 345.40,290.87 344.88,291.28 344.37,291.66 C 343.85,292.05 343.34,292.40 342.83,292.73 C 342.32,293.06 341.81,293.37 341.30,293.64 C 340.79,293.92 340.28,294.16 339.77,294.38 C 339.27,294.60 338.76,294.80 338.26,294.96 C 337.75,295.13 337.25,295.26 336.75,295.38 C 336.25,295.49 335.74,295.52 335.25,295.62 C 334.76,295.73 334.29,295.84 333.84,295.98 C 333.38,296.11 332.94,296.26 332.51,296.43 C 332.08,296.60 331.67,296.78 331.27,296.98 C 330.87,297.19 330.48,297.40 330.11,297.64 C 329.74,297.88 329.38,298.13 329.04,298.40 C 328.70,298.67 328.37,298.95 328.05,299.26 C 327.74,299.56 327.44,299.88 327.16,300.22 C 326.87,300.56 326.60,300.94 326.34,301.28 C 326.09,301.62 325.86,301.94 325.64,302.25 C 325.42,302.56 325.23,302.85 325.05,303.12 C 324.87,303.40 324.71,303.66 324.56,303.91 C 324.42,304.15 324.29,304.38 324.19,304.59 C 324.08,304.81 323.99,305.01 323.92,305.19 C 323.85,305.37 323.80,305.54 323.77,305.69 C 323.73,305.84 323.72,305.97 323.72,306.09 C 323.72,306.21 323.79,306.30 323.78,306.41 C 323.77,306.51 323.74,306.61 323.67,306.70 C 323.61,306.80 323.51,306.89 323.39,306.98 C 323.27,307.08 323.12,307.16 322.94,307.25 C 322.76,307.34 322.55,307.42 322.31,307.50 C 322.08,307.58 321.81,307.66 321.52,307.73 C 321.22,307.81 320.90,307.88 320.55,307.95 C 320.20,308.02 319.82,308.09 319.41,308.16 C 319.00,308.22 318.51,308.28 318.09,308.34 C 317.68,308.41 317.29,308.48 316.93,308.55 C 316.57,308.63 316.23,308.71 315.91,308.79 C 315.60,308.87 315.31,308.96 315.05,309.05 C 314.78,309.14 314.54,309.23 314.33,309.33 C 314.11,309.43 313.92,309.53 313.76,309.63 C 313.59,309.74 313.45,309.85 313.34,309.96 C 313.22,310.07 313.13,310.19 313.06,310.31 C 313.00,310.43 312.96,310.56 312.94,310.69 C 312.92,310.82 312.92,310.95 312.94,311.09 C 312.96,311.23 313.00,311.38 313.06,311.53 C 313.12,311.68 313.21,311.84 313.31,312.00 C 313.42,312.16 313.54,312.33 313.69,312.50 C 313.83,312.67 314.00,312.85 314.19,313.03 C 314.38,313.21 314.58,313.40 314.81,313.59 C 315.04,313.79 315.29,313.98 315.56,314.19 C 315.83,314.39 316.17,314.61 316.44,314.81 C 316.70,315.02 316.94,315.22 317.16,315.42 C 317.37,315.62 317.56,315.82 317.72,316.02 C 317.88,316.21 318.02,316.40 318.12,316.59 C 318.23,316.78 318.32,316.97 318.38,317.16 C 318.43,317.34 318.46,317.52 318.47,317.70 C 318.47,317.88 318.45,318.06 318.41,318.23 C 318.36,318.41 318.29,318.58 318.19,318.75 C 318.09,318.92 317.93,319.06 317.81,319.25 C 317.70,319.44 317.59,319.65 317.48,319.89 C 317.38,320.13 317.29,320.39 317.20,320.67 C 317.12,320.96 317.04,321.26 316.97,321.59 C 316.90,321.92 316.84,322.28 316.78,322.66 C 316.73,323.03 316.68,323.43 316.64,323.86 C 316.60,324.28 316.57,324.73 316.55,325.20 C 316.52,325.67 316.51,326.17 316.50,326.69 C 316.49,327.21 316.49,327.80 316.50,328.31 C 316.51,328.83 316.52,329.32 316.55,329.78 C 316.57,330.24 316.60,330.68 316.64,331.09 C 316.68,331.51 316.73,331.89 316.78,332.25 C 316.84,332.61 316.90,332.94 316.97,333.25 C 317.04,333.56 317.12,333.84 317.20,334.09 C 317.29,334.35 317.38,334.58 317.48,334.78 C 317.59,334.98 317.70,335.16 317.81,335.31 C 317.93,335.46 318.07,335.56 318.19,335.69 C 318.30,335.81 318.40,335.93 318.49,336.05 C 318.58,336.18 318.66,336.30 318.73,336.41 C 318.79,336.53 318.85,336.65 318.89,336.77 C 318.93,336.88 318.96,337.00 318.98,337.11 C 319.00,337.22 319.01,337.33 319.01,337.45 C 319.00,337.56 318.99,337.67 318.96,337.77 C 318.93,337.88 318.89,337.99 318.84,338.09 C 318.79,338.20 318.76,338.30 318.66,338.41 C 318.55,338.51 318.40,338.61 318.21,338.71 C 318.02,338.81 317.79,338.91 317.51,339.01 C 317.23,339.11 316.91,339.20 316.55,339.30 C 316.18,339.39 315.78,339.49 315.33,339.58 C 314.88,339.67 314.39,339.76 313.85,339.85 C 313.32,339.94 312.74,340.03 312.12,340.12 C 311.50,340.20 310.83,340.29 310.12,340.38 C 309.42,340.46 308.62,340.55 307.88,340.62 C 307.13,340.70 306.40,340.78 305.67,340.84 C 304.95,340.91 304.23,340.97 303.52,341.03 C 302.80,341.09 302.10,341.14 301.41,341.19 C 300.71,341.23 300.02,341.28 299.34,341.31 C 298.66,341.35 297.99,341.38 297.33,341.41 C 296.66,341.43 296.01,341.45 295.36,341.47 C 294.71,341.48 294.07,341.49 293.44,341.50 Z" fill="none" stroke="currentColor" stroke-width="1.5" stroke-linejoin="round" stroke-linecap="round" filter="url(#glow)" />
</svg>