<svg xmlns="http://www.w3.org/2000/svg" width="512" height="512" viewBox="128.57 150.72 285.46 238.39" preserveAspectRatio="xMidYMid meet">
  <defs>
    <filter id="glow" x="-30%" y="-30%" width="160%" height="160%">
      <feGaussianBlur in="SourceGraphic" stdDeviation="2.4" result="blur" />
      <feMerge>
        <feMergeNode in="blur" />
        <feMergeNode in="SourceGraphic" />
      </feMerge>
    </filter>
    <clipPath id="hull-clip">
      <path d="M 281.06,368.31 C 279.46,368.13 277.59,367.88 275.94,367.69 C 274.28,367.49 272.68,367.31 271.14,367.14 C 269.60,366.97 268.11,366.82 266.67,366.67 C 265.24,366.53 263.86,366.40 262.53,366.28 C 261.21,366.16 259.93,366.06 258.72,365.97 C 257.50,365.88 256.34,365.80 255.23,365.73 C 254.13,365.67 253.08,365.62 252.08,365.58 C 251.08,365.54 250.14,365.51 249.25,365.50 C 248.36,365.49 247.55,365.51 246.75,365.50 C 245.95,365.49 245.18,365.48 244.44,365.47 C 243.70,365.45 242.99,365.43 242.31,365.41 C 241.64,365.38 240.99,365.35 240.38,365.31 C 239.76,365.28 239.18,365.23 238.62,365.19 C 238.07,365.14 237.55,365.09 237.06,365.03 C 236.57,364.97 236.11,364.91 235.69,364.84 C 235.26,364.78 234.86,364.70 234.50,364.62 C 234.14,364.55 233.84,364.47 233.50,364.38 C 233.16,364.28 232.80,364.17 232.44,364.05 C 232.07,363.92 231.70,363.79 231.31,363.64 C 230.93,363.49 230.53,363.33 230.12,363.16 C 229.72,362.98 229.30,362.79 228.88,362.59 C 228.45,362.39 228.01,362.18 227.56,361.95 C 227.11,361.73 226.66,361.49 226.19,361.23 C 225.72,360.98 225.24,360.72 224.75,360.44 C 224.26,360.16 223.72,359.84 223.25,359.56 C 222.78,359.28 222.34,359.01 221.93,358.76 C 221.52,358.50 221.14,358.26 220.79,358.02 C 220.44,357.79 220.12,357.57 219.83,357.36 C 219.54,357.15 219.28,356.95 219.05,356.77 C 218.82,356.58 218.62,356.40 218.45,356.24 C 218.27,356.08 218.13,355.93 218.02,355.79 C 217.91,355.65 217.83,355.52 217.78,355.41 C 217.73,355.29 217.67,355.30 217.72,355.09 C 217.77,354.89 217.90,354.59 218.10,354.20 C 218.30,353.80 218.58,353.30 218.93,352.71 C 219.28,352.12 219.70,351.43 220.20,350.64 C 220.70,349.85 221.27,348.97 221.92,347.98 C 222.57,347.00 223.29,345.92 224.09,344.74 C 224.88,343.56 225.75,342.29 226.70,340.91 C 227.64,339.54 228.66,338.07 229.75,336.50 C 230.84,334.93 232.18,333.08 233.25,331.50 C 234.32,329.92 235.29,328.42 236.17,327.00 C 237.05,325.58 237.83,324.25 238.52,323.00 C 239.20,321.75 239.79,320.58 240.28,319.50 C 240.77,318.42 241.17,317.42 241.47,316.50 C 241.77,315.58 241.97,314.75 242.08,314.00 C 242.18,313.25 242.20,312.58 242.11,312.00 C 242.02,311.42 241.84,310.92 241.56,310.50 C 241.28,310.08 240.80,309.84 240.44,309.50 C 240.07,309.16 239.71,308.81 239.37,308.46 C 239.02,308.11 238.68,307.75 238.35,307.38 C 238.02,307.02 237.70,306.64 237.39,306.27 C 237.08,305.89 236.78,305.50 236.48,305.11 C 236.19,304.72 235.91,304.32 235.63,303.91 C 235.36,303.51 235.09,303.10 234.84,302.68 C 234.58,302.26 234.33,301.84 234.09,301.41 C 233.86,300.98 233.69,300.52 233.41,300.09 C 233.12,299.66 232.79,299.24 232.40,298.82 C 232.01,298.40 231.57,297.99 231.07,297.59 C 230.57,297.18 230.02,296.78 229.42,296.39 C 228.82,296.00 228.16,295.61 227.45,295.23 C 226.74,294.86 225.98,294.48 225.16,294.12 C 224.35,293.75 223.48,293.39 222.55,293.04 C 221.63,292.69 220.65,292.34 219.62,292.00 C 218.60,291.66 217.42,291.33 216.38,291.00 C 215.33,290.67 214.32,290.35 213.34,290.03 C 212.37,289.71 211.43,289.40 210.53,289.09 C 209.63,288.79 208.77,288.48 207.94,288.19 C 207.11,287.89 206.32,287.60 205.56,287.31 C 204.81,287.03 204.09,286.74 203.41,286.47 C 202.72,286.19 202.08,285.92 201.47,285.66 C 200.86,285.39 200.29,285.13 199.75,284.88 C 199.21,284.62 198.76,284.37 198.25,284.12 C 197.74,283.88 197.23,283.65 196.70,283.42 C 196.18,283.20 195.65,282.98 195.11,282.77 C 194.57,282.55 194.02,282.35 193.47,282.16 C 192.91,281.96 192.35,281.77 191.78,281.59 C 191.21,281.41 190.63,281.24 190.05,281.08 C 189.46,280.91 188.87,280.76 188.27,280.61 C 187.66,280.46 187.05,280.32 186.44,280.19 C 185.82,280.05 185.16,279.93 184.56,279.81 C 183.97,279.70 183.40,279.59 182.86,279.48 C 182.32,279.38 181.81,279.29 181.33,279.20 C 180.85,279.12 180.39,279.04 179.97,278.97 C 179.54,278.90 179.15,278.84 178.78,278.78 C 178.41,278.73 178.08,278.68 177.77,278.64 C 177.46,278.60 177.17,278.57 176.92,278.55 C 176.67,278.52 176.45,278.51 176.25,278.50 C 176.05,278.49 175.91,278.49 175.75,278.50 C 175.59,278.51 175.44,278.53 175.30,278.56 C 175.15,278.59 175.02,278.64 174.89,278.69 C 174.76,278.74 174.64,278.80 174.53,278.88 C 174.42,278.95 174.32,279.03 174.22,279.12 C 174.12,279.22 174.03,279.32 173.95,279.44 C 173.87,279.55 173.80,279.68 173.73,279.81 C 173.67,279.95 173.61,280.09 173.56,280.25 C 173.51,280.41 173.54,280.60 173.44,280.75 C 173.33,280.90 173.17,281.03 172.94,281.14 C 172.71,281.25 172.42,281.35 172.06,281.42 C 171.71,281.50 171.29,281.55 170.81,281.59 C 170.33,281.63 169.79,281.65 169.19,281.66 C 168.58,281.66 167.92,281.64 167.19,281.61 C 166.46,281.58 165.67,281.52 164.81,281.45 C 163.96,281.38 163.04,281.29 162.06,281.19 C 161.08,281.08 159.91,280.93 158.94,280.81 C 157.96,280.69 157.06,280.57 156.22,280.45 C 155.38,280.34 154.61,280.22 153.91,280.11 C 153.20,280.00 152.57,279.89 152.00,279.78 C 151.43,279.67 150.93,279.57 150.50,279.47 C 150.07,279.37 149.70,279.27 149.41,279.17 C 149.11,279.08 148.88,278.98 148.72,278.89 C 148.56,278.80 148.46,278.71 148.44,278.62 C 148.41,278.54 148.49,278.45 148.56,278.38 C 148.64,278.30 148.74,278.22 148.88,278.15 C 149.02,278.08 149.19,278.01 149.40,277.95 C 149.60,277.88 149.84,277.82 150.11,277.77 C 150.38,277.71 150.68,277.66 151.02,277.61 C 151.35,277.56 151.72,277.52 152.12,277.48 C 152.52,277.44 152.95,277.40 153.41,277.37 C 153.88,277.33 154.38,277.31 154.91,277.28 C 155.44,277.26 156.08,277.25 156.59,277.22 C 157.10,277.18 157.56,277.13 157.96,277.07 C 158.36,277.01 158.71,276.93 159.01,276.84 C 159.30,276.74 159.55,276.64 159.73,276.52 C 159.92,276.39 160.06,276.26 160.14,276.11 C 160.22,275.96 160.25,275.80 160.23,275.62 C 160.20,275.44 160.12,275.25 159.99,275.04 C 159.86,274.83 159.68,274.61 159.44,274.38 C 159.20,274.14 158.84,273.87 158.56,273.62 C 158.29,273.38 158.03,273.15 157.80,272.92 C 157.56,272.70 157.34,272.48 157.14,272.27 C 156.94,272.05 156.76,271.85 156.59,271.66 C 156.43,271.46 156.28,271.27 156.16,271.09 C 156.03,270.91 155.92,270.74 155.83,270.58 C 155.74,270.41 155.66,270.26 155.61,270.11 C 155.55,269.96 155.52,269.82 155.50,269.69 C 155.48,269.55 155.48,269.44 155.50,269.31 C 155.52,269.18 155.55,269.05 155.61,268.91 C 155.66,268.77 155.74,268.62 155.83,268.47 C 155.92,268.32 156.03,268.16 156.16,268.00 C 156.28,267.84 156.43,267.67 156.59,267.50 C 156.76,267.33 156.94,267.15 157.14,266.97 C 157.34,266.79 157.56,266.60 157.80,266.41 C 158.03,266.21 158.29,266.02 158.56,265.81 C 158.84,265.61 159.20,265.39 159.44,265.19 C 159.67,264.99 159.85,264.79 159.97,264.61 C 160.09,264.42 160.15,264.25 160.16,264.08 C 160.16,263.91 160.11,263.75 160.00,263.59 C 159.89,263.44 159.72,263.29 159.50,263.16 C 159.28,263.02 158.99,262.89 158.66,262.77 C 158.32,262.64 157.92,262.53 157.47,262.42 C 157.02,262.32 156.51,262.22 155.94,262.12 C 155.37,262.03 154.62,261.96 154.06,261.88 C 153.51,261.79 153.02,261.70 152.60,261.60 C 152.18,261.51 151.83,261.41 151.55,261.30 C 151.27,261.20 151.06,261.10 150.92,260.98 C 150.78,260.87 150.71,260.76 150.70,260.64 C 150.70,260.52 150.76,260.40 150.90,260.27 C 151.03,260.15 151.24,260.02 151.51,259.88 C 151.78,259.75 152.12,259.61 152.53,259.47 C 152.94,259.33 153.49,259.17 153.97,259.03 C 154.45,258.89 154.94,258.76 155.43,258.63 C 155.92,258.51 156.42,258.39 156.91,258.27 C 157.41,258.16 157.92,258.05 158.42,257.95 C 158.93,257.85 159.44,257.76 159.95,257.67 C 160.47,257.58 160.99,257.50 161.51,257.43 C 162.03,257.36 162.56,257.29 163.09,257.23 C 163.62,257.17 164.15,257.11 164.69,257.06 C 165.23,257.01 165.78,256.97 166.31,256.94 C 166.84,256.91 167.36,256.89 167.86,256.89 C 168.36,256.89 168.85,256.90 169.33,256.92 C 169.80,256.95 170.27,256.98 170.72,257.03 C 171.17,257.08 171.61,257.14 172.03,257.22 C 172.46,257.29 172.87,257.38 173.27,257.48 C 173.66,257.59 174.05,257.70 174.42,257.83 C 174.79,257.96 175.15,258.10 175.50,258.25 C 175.85,258.40 176.16,258.60 176.50,258.75 C 176.84,258.90 177.19,259.04 177.55,259.16 C 177.90,259.28 178.27,259.38 178.64,259.47 C 179.01,259.56 179.39,259.63 179.78,259.69 C 180.17,259.74 180.57,259.79 180.97,259.81 C 181.37,259.84 181.78,259.85 182.20,259.84 C 182.62,259.84 183.05,259.82 183.48,259.78 C 183.92,259.74 184.36,259.69 184.81,259.62 C 185.26,259.56 185.65,259.50 186.19,259.38 C 186.73,259.25 187.35,259.09 188.05,258.88 C 188.76,258.68 189.55,258.43 190.41,258.15 C 191.28,257.86 192.23,257.54 193.27,257.17 C 194.30,256.81 195.41,256.40 196.61,255.95 C 197.81,255.51 199.08,255.02 200.45,254.49 C 201.81,253.96 203.25,253.40 204.77,252.79 C 206.30,252.18 207.90,251.53 209.59,250.84 C 211.28,250.15 213.24,249.36 214.91,248.66 C 216.58,247.95 218.15,247.26 219.62,246.60 C 221.09,245.94 222.46,245.30 223.73,244.68 C 225.00,244.06 226.17,243.46 227.23,242.89 C 228.30,242.32 229.27,241.76 230.14,241.23 C 231.01,240.70 231.78,240.20 232.45,239.71 C 233.11,239.23 233.68,238.76 234.15,238.32 C 234.62,237.88 234.98,237.46 235.25,237.06 C 235.52,236.67 235.57,236.31 235.75,235.94 C 235.93,235.57 236.11,235.20 236.31,234.84 C 236.51,234.48 236.72,234.13 236.94,233.78 C 237.16,233.43 237.39,233.09 237.62,232.75 C 237.86,232.41 238.11,232.08 238.38,231.75 C 238.64,231.42 238.91,231.10 239.19,230.78 C 239.47,230.46 239.76,230.15 240.06,229.84 C 240.36,229.54 240.68,229.23 241.00,228.94 C 241.32,228.64 241.69,228.34 242.00,228.06 C 242.31,227.78 242.60,227.52 242.88,227.27 C 243.15,227.01 243.40,226.77 243.62,226.55 C 243.85,226.32 244.06,226.11 244.25,225.91 C 244.44,225.71 244.60,225.52 244.75,225.34 C 244.90,225.17 245.02,225.01 245.12,224.86 C 245.23,224.71 245.31,224.58 245.38,224.45 C 245.44,224.33 245.48,224.22 245.50,224.12 C 245.52,224.03 245.57,224.05 245.50,223.88 C 245.43,223.70 245.28,223.43 245.06,223.06 C 244.84,222.70 244.55,222.24 244.19,221.69 C 243.82,221.14 243.39,220.49 242.88,219.75 C 242.36,219.01 241.78,218.18 241.12,217.25 C 240.47,216.32 239.74,215.30 238.94,214.19 C 238.14,213.07 237.26,211.86 236.31,210.56 C 235.36,209.26 234.34,207.86 233.25,206.38 C 232.16,204.89 230.84,203.12 229.75,201.62 C 228.66,200.13 227.64,198.74 226.70,197.43 C 225.75,196.12 224.88,194.91 224.09,193.79 C 223.29,192.67 222.57,191.64 221.92,190.70 C 221.27,189.77 220.70,188.92 220.20,188.17 C 219.70,187.42 219.28,186.76 218.93,186.20 C 218.58,185.63 218.30,185.15 218.10,184.77 C 217.90,184.39 217.77,184.10 217.72,183.91 C 217.67,183.71 217.73,183.71 217.78,183.59 C 217.83,183.48 217.92,183.35 218.04,183.21 C 218.16,183.07 218.31,182.92 218.49,182.76 C 218.68,182.60 218.89,182.42 219.14,182.23 C 219.39,182.05 219.67,181.85 219.98,181.64 C 220.30,181.43 220.64,181.21 221.02,180.98 C 221.40,180.74 221.81,180.50 222.26,180.24 C 222.70,179.99 223.18,179.72 223.69,179.44 C 224.20,179.16 224.78,178.84 225.31,178.56 C 225.84,178.28 226.36,178.02 226.88,177.77 C 227.39,177.51 227.89,177.27 228.38,177.05 C 228.86,176.82 229.34,176.61 229.81,176.41 C 230.28,176.21 230.74,176.02 231.19,175.84 C 231.64,175.67 232.07,175.51 232.50,175.36 C 232.93,175.21 233.34,175.08 233.75,174.95 C 234.16,174.83 234.55,174.72 234.94,174.62 C 235.32,174.53 235.70,174.45 236.06,174.38 C 236.43,174.30 236.78,174.23 237.12,174.17 C 237.47,174.11 237.80,174.06 238.12,174.02 C 238.45,173.97 238.76,173.93 239.06,173.91 C 239.36,173.88 239.66,173.86 239.94,173.84 C 240.22,173.83 240.49,173.83 240.75,173.83 C 241.01,173.83 241.26,173.84 241.50,173.86 C 241.74,173.88 241.97,173.90 242.19,173.94 C 242.41,173.97 242.48,174.04 242.81,174.06 C 243.15,174.09 243.61,174.10 244.20,174.09 C 244.79,174.09 245.51,174.07 246.36,174.03 C 247.21,173.99 248.18,173.94 249.28,173.88 C 250.38,173.81 251.61,173.72 252.97,173.62 C 254.33,173.53 255.81,173.41 257.42,173.28 C 259.03,173.15 260.77,173.01 262.64,172.84 C 264.51,172.68 266.50,172.51 268.62,172.31 C 270.75,172.12 273.26,171.87 275.38,171.69 C 277.49,171.50 279.47,171.34 281.31,171.20 C 283.16,171.07 284.86,170.95 286.44,170.86 C 288.01,170.77 289.45,170.70 290.75,170.66 C 292.05,170.61 293.22,170.59 294.25,170.59 C 295.28,170.60 296.18,170.62 296.94,170.67 C 297.70,170.72 298.32,170.79 298.81,170.89 C 299.30,170.99 299.66,171.11 299.88,171.25 C 300.09,171.39 300.12,171.59 300.12,171.75 C 300.13,171.91 300.07,172.05 299.92,172.19 C 299.78,172.32 299.56,172.45 299.27,172.56 C 298.97,172.68 298.60,172.78 298.16,172.88 C 297.71,172.97 297.19,173.05 296.59,173.12 C 296.00,173.20 295.33,173.26 294.58,173.31 C 293.83,173.36 293.01,173.41 292.11,173.44 C 291.21,173.47 290.24,173.49 289.19,173.50 C 288.14,173.51 286.89,173.49 285.81,173.50 C 284.73,173.51 283.70,173.52 282.72,173.55 C 281.73,173.57 280.80,173.60 279.91,173.64 C 279.02,173.68 278.17,173.73 277.38,173.78 C 276.58,173.84 275.83,173.90 275.12,173.97 C 274.42,174.04 273.77,174.12 273.16,174.20 C 272.55,174.29 271.98,174.38 271.47,174.48 C 270.95,174.59 270.48,174.70 270.06,174.81 C 269.64,174.93 269.32,175.07 268.94,175.19 C 268.56,175.30 268.18,175.41 267.80,175.52 C 267.41,175.62 267.03,175.71 266.64,175.80 C 266.25,175.88 265.86,175.96 265.47,176.03 C 265.08,176.10 264.68,176.16 264.28,176.22 C 263.88,176.27 263.48,176.32 263.08,176.36 C 262.67,176.40 262.27,176.43 261.86,176.45 C 261.45,176.48 261.04,176.49 260.62,176.50 C 260.21,176.51 259.78,176.49 259.38,176.50 C 258.97,176.51 258.58,176.54 258.20,176.57 C 257.81,176.61 257.44,176.65 257.09,176.71 C 256.73,176.77 256.38,176.84 256.05,176.92 C 255.71,177.00 255.39,177.10 255.08,177.20 C 254.77,177.31 254.47,177.43 254.18,177.55 C 253.89,177.68 253.62,177.82 253.35,177.98 C 253.09,178.13 252.83,178.29 252.59,178.47 C 252.35,178.64 251.98,178.75 251.91,179.03 C 251.83,179.32 251.91,179.70 252.14,180.17 C 252.37,180.65 252.76,181.22 253.30,181.89 C 253.84,182.56 254.53,183.33 255.38,184.19 C 256.22,185.05 257.22,186.01 258.38,187.06 C 259.53,188.12 260.84,189.27 262.30,190.52 C 263.76,191.76 265.37,193.11 267.14,194.55 C 268.91,195.99 270.83,197.52 272.91,199.16 C 274.98,200.79 277.48,202.72 279.59,204.34 C 281.71,205.96 283.72,207.48 285.62,208.88 C 287.51,210.29 289.30,211.58 290.98,212.77 C 292.65,213.96 294.22,215.04 295.67,216.02 C 297.13,216.99 298.47,217.85 299.70,218.61 C 300.94,219.37 302.06,220.01 303.07,220.55 C 304.08,221.10 304.98,221.53 305.77,221.85 C 306.56,222.18 307.24,222.39 307.81,222.50 C 308.38,222.61 308.70,222.49 309.19,222.50 C 309.68,222.51 310.21,222.53 310.77,222.56 C 311.33,222.59 311.92,222.64 312.55,222.69 C 313.17,222.74 313.84,222.80 314.53,222.88 C 315.23,222.95 315.96,223.03 316.72,223.12 C 317.48,223.22 318.28,223.32 319.11,223.44 C 319.94,223.55 320.80,223.68 321.70,223.81 C 322.60,223.95 323.53,224.09 324.50,224.25 C 325.47,224.41 326.47,224.68 327.50,224.75 C 328.53,224.82 329.59,224.79 330.67,224.67 C 331.76,224.55 332.87,224.33 334.02,224.02 C 335.16,223.70 336.33,223.29 337.53,222.78 C 338.73,222.27 339.96,221.67 341.22,220.97 C 342.48,220.27 343.76,219.47 345.08,218.58 C 346.39,217.68 347.74,216.70 349.11,215.61 C 350.48,214.52 351.88,213.34 353.31,212.06 C 354.74,210.78 356.30,209.23 357.69,207.94 C 359.08,206.65 360.39,205.44 361.64,204.31 C 362.89,203.19 364.07,202.15 365.17,201.19 C 366.28,200.23 367.32,199.35 368.28,198.56 C 369.25,197.77 370.14,197.06 370.97,196.44 C 371.79,195.81 372.55,195.27 373.23,194.81 C 373.92,194.35 374.53,193.98 375.08,193.69 C 375.62,193.40 376.10,193.19 376.50,193.06 C 376.90,192.94 377.19,192.97 377.50,192.94 C 377.81,192.91 378.10,192.89 378.37,192.88 C 378.63,192.88 378.88,192.88 379.10,192.90 C 379.32,192.92 379.52,192.94 379.70,192.98 C 379.88,193.02 380.04,193.08 380.17,193.14 C 380.31,193.20 380.42,193.28 380.51,193.37 C 380.60,193.45 380.67,193.55 380.71,193.66 C 380.76,193.77 380.78,193.90 380.78,194.03 C 380.78,194.17 380.80,194.25 380.72,194.47 C 380.64,194.69 380.51,194.98 380.32,195.35 C 380.13,195.72 379.89,196.16 379.59,196.68 C 379.29,197.20 378.93,197.79 378.52,198.45 C 378.10,199.12 377.63,199.86 377.11,200.67 C 376.58,201.49 376.00,202.37 375.37,203.34 C 374.73,204.30 374.04,205.33 373.29,206.45 C 372.54,207.56 371.74,208.74 370.88,210.00 C 370.01,211.26 368.90,212.74 368.12,214.00 C 367.35,215.26 366.73,216.45 366.24,217.57 C 365.76,218.69 365.42,219.74 365.23,220.71 C 365.03,221.69 364.98,222.59 365.08,223.42 C 365.17,224.25 365.41,225.01 365.80,225.70 C 366.18,226.39 366.71,227.01 367.38,227.55 C 368.06,228.10 368.87,228.57 369.84,228.98 C 370.80,229.38 371.90,229.71 373.16,229.97 C 374.41,230.23 376.03,230.35 377.34,230.53 C 378.66,230.71 379.89,230.89 381.03,231.06 C 382.18,231.23 383.24,231.40 384.22,231.56 C 385.20,231.72 386.09,231.88 386.91,232.03 C 387.72,232.18 388.45,232.33 389.09,232.47 C 389.74,232.61 390.30,232.74 390.78,232.88 C 391.26,233.01 391.66,233.13 391.97,233.25 C 392.28,233.37 392.51,233.48 392.66,233.59 C 392.80,233.70 392.79,233.80 392.84,233.91 C 392.90,234.01 392.95,234.12 392.99,234.23 C 393.04,234.33 393.07,234.44 393.10,234.55 C 393.13,234.67 393.15,234.78 393.17,234.89 C 393.19,235.00 393.20,235.12 393.20,235.23 C 393.21,235.35 393.20,235.47 393.20,235.59 C 393.19,235.70 393.17,235.82 393.15,235.95 C 393.13,236.07 393.10,236.19 393.06,236.31 C 393.03,236.44 392.97,236.57 392.94,236.69 C 392.90,236.81 392.88,236.92 392.86,237.03 C 392.84,237.14 392.83,237.24 392.83,237.34 C 392.83,237.44 392.83,237.54 392.84,237.62 C 392.86,237.71 392.88,237.80 392.91,237.88 C 392.93,237.95 392.97,238.03 393.02,238.09 C 393.06,238.16 393.11,238.22 393.17,238.28 C 393.23,238.34 393.30,238.39 393.38,238.44 C 393.45,238.48 393.55,238.51 393.62,238.56 C 393.70,238.61 393.76,238.68 393.81,238.75 C 393.86,238.82 393.91,238.91 393.94,239.00 C 393.97,239.09 393.99,239.20 394.00,239.31 C 394.01,239.43 394.01,239.55 394.00,239.69 C 393.99,239.82 393.97,239.97 393.94,240.12 C 393.91,240.28 393.86,240.45 393.81,240.62 C 393.76,240.80 393.70,240.99 393.62,241.19 C 393.55,241.39 393.46,241.62 393.38,241.81 C 393.29,242.01 393.20,242.19 393.10,242.37 C 393.01,242.54 392.91,242.70 392.80,242.85 C 392.70,243.00 392.60,243.14 392.48,243.27 C 392.37,243.39 392.26,243.51 392.14,243.61 C 392.02,243.71 391.90,243.80 391.77,243.88 C 391.65,243.96 391.52,244.03 391.38,244.09 C 391.25,244.14 391.11,244.19 390.97,244.22 C 390.83,244.25 390.68,244.25 390.53,244.28 C 390.38,244.31 390.24,244.35 390.09,244.40 C 389.94,244.45 389.79,244.50 389.63,244.57 C 389.48,244.64 389.33,244.71 389.17,244.80 C 389.02,244.88 388.86,244.98 388.70,245.08 C 388.55,245.18 388.39,245.29 388.23,245.41 C 388.07,245.54 387.90,245.67 387.74,245.80 C 387.58,245.94 387.42,246.09 387.25,246.25 C 387.08,246.41 387.03,246.59 386.75,246.75 C 386.47,246.91 386.09,247.07 385.59,247.22 C 385.10,247.37 384.49,247.52 383.78,247.66 C 383.07,247.80 382.24,247.93 381.31,248.06 C 380.38,248.19 379.34,248.32 378.19,248.44 C 377.04,248.56 375.78,248.67 374.41,248.78 C 373.04,248.89 371.56,248.99 369.97,249.09 C 368.38,249.19 366.68,249.29 364.88,249.38 C 363.07,249.46 360.95,249.54 359.12,249.62 C 357.30,249.71 355.57,249.80 353.92,249.89 C 352.28,249.98 350.73,250.08 349.27,250.17 C 347.80,250.27 346.43,250.37 345.16,250.47 C 343.88,250.57 342.69,250.67 341.59,250.78 C 340.50,250.89 339.49,251.00 338.58,251.11 C 337.66,251.22 336.84,251.34 336.11,251.45 C 335.38,251.57 334.74,251.69 334.19,251.81 C 333.64,251.93 333.24,252.07 332.81,252.19 C 332.38,252.31 331.98,252.43 331.61,252.55 C 331.24,252.66 330.89,252.78 330.58,252.89 C 330.26,253.00 329.98,253.11 329.72,253.22 C 329.46,253.33 329.23,253.43 329.03,253.53 C 328.83,253.63 328.66,253.73 328.52,253.83 C 328.37,253.92 328.26,254.02 328.17,254.11 C 328.09,254.20 328.03,254.29 328.00,254.38 C 327.97,254.46 327.99,254.54 328.00,254.62 C 328.01,254.71 328.03,254.78 328.06,254.86 C 328.09,254.93 328.14,255.01 328.19,255.08 C 328.24,255.15 328.30,255.22 328.38,255.28 C 328.45,255.35 328.53,255.41 328.62,255.47 C 328.72,255.53 328.82,255.59 328.94,255.64 C 329.05,255.70 329.18,255.75 329.31,255.80 C 329.45,255.85 329.59,255.89 329.75,255.94 C 329.91,255.98 330.04,256.02 330.25,256.06 C 330.46,256.11 330.72,256.16 331.02,256.22 C 331.32,256.28 331.66,256.34 332.05,256.41 C 332.43,256.47 332.87,256.55 333.34,256.62 C 333.82,256.70 334.34,256.79 334.91,256.88 C 335.47,256.96 336.08,257.06 336.73,257.16 C 337.39,257.26 338.09,257.36 338.83,257.47 C 339.57,257.58 340.36,257.69 341.19,257.81 C 342.02,257.93 342.99,258.06 343.81,258.19 C 344.64,258.32 345.42,258.46 346.15,258.60 C 346.88,258.75 347.56,258.90 348.20,259.05 C 348.83,259.21 349.42,259.38 349.95,259.55 C 350.49,259.72 350.98,259.89 351.42,260.08 C 351.86,260.26 352.26,260.45 352.60,260.65 C 352.95,260.85 353.24,261.05 353.49,261.26 C 353.74,261.47 353.94,261.68 354.09,261.91 C 354.25,262.13 354.31,262.36 354.41,262.59 C 354.50,262.83 354.60,263.08 354.68,263.34 C 354.76,263.59 354.84,263.86 354.91,264.13 C 354.99,264.41 355.05,264.69 355.11,264.98 C 355.17,265.28 355.22,265.58 355.27,265.89 C 355.31,266.20 355.35,266.52 355.38,266.85 C 355.42,267.18 355.44,267.52 355.46,267.87 C 355.48,268.21 355.49,268.57 355.50,268.94 C 355.51,269.30 355.51,269.70 355.50,270.06 C 355.49,270.43 355.48,270.78 355.47,271.12 C 355.45,271.47 355.43,271.80 355.41,272.12 C 355.38,272.45 355.35,272.76 355.31,273.06 C 355.28,273.36 355.23,273.66 355.19,273.94 C 355.14,274.22 355.09,274.49 355.03,274.75 C 354.97,275.01 354.91,275.26 354.84,275.50 C 354.78,275.74 354.70,275.97 354.62,276.19 C 354.55,276.41 354.46,276.61 354.38,276.81 C 354.29,277.01 354.20,277.20 354.12,277.38 C 354.03,277.56 353.94,277.74 353.85,277.90 C 353.76,278.06 353.67,278.21 353.58,278.36 C 353.49,278.50 353.39,278.64 353.30,278.77 C 353.20,278.89 353.11,279.01 353.01,279.12 C 352.91,279.23 352.81,279.32 352.71,279.41 C 352.61,279.50 352.51,279.58 352.41,279.66 C 352.30,279.73 352.25,279.78 352.09,279.84 C 351.94,279.91 351.73,279.98 351.46,280.05 C 351.20,280.13 350.88,280.21 350.51,280.29 C 350.14,280.37 349.71,280.46 349.23,280.55 C 348.76,280.64 348.23,280.73 347.64,280.83 C 347.06,280.93 346.42,281.03 345.73,281.13 C 345.04,281.24 344.29,281.35 343.49,281.46 C 342.69,281.57 341.84,281.69 340.94,281.81 C 340.03,281.93 338.96,282.07 338.06,282.19 C 337.16,282.31 336.32,282.43 335.54,282.54 C 334.76,282.65 334.03,282.76 333.37,282.87 C 332.70,282.97 332.10,283.07 331.55,283.17 C 331.00,283.27 330.51,283.36 330.08,283.45 C 329.65,283.54 329.27,283.63 328.96,283.71 C 328.65,283.79 328.39,283.87 328.20,283.95 C 328.00,284.02 327.86,284.09 327.78,284.16 C 327.70,284.22 327.69,284.27 327.72,284.34 C 327.74,284.41 327.82,284.49 327.94,284.58 C 328.06,284.66 328.22,284.76 328.44,284.86 C 328.65,284.96 328.91,285.07 329.22,285.19 C 329.53,285.30 329.88,285.43 330.28,285.56 C 330.68,285.70 331.13,285.84 331.62,285.98 C 332.12,286.13 332.66,286.29 333.25,286.45 C 333.84,286.62 334.47,286.79 335.16,286.97 C 335.84,287.15 336.55,287.35 337.34,287.53 C 338.14,287.71 338.99,287.89 339.91,288.05 C 340.83,288.22 341.82,288.38 342.87,288.54 C 343.92,288.69 345.03,288.84 346.20,288.98 C 347.38,289.13 348.62,289.26 349.92,289.39 C 351.23,289.52 352.59,289.64 354.02,289.76 C 355.45,289.87 356.95,289.98 358.51,290.09 C 360.07,290.19 361.69,290.29 363.38,290.38 C 365.06,290.46 366.97,290.53 368.62,290.62 C 370.28,290.72 371.85,290.82 373.32,290.93 C 374.79,291.04 376.17,291.16 377.46,291.29 C 378.75,291.42 379.94,291.56 381.05,291.70 C 382.15,291.85 383.16,292.01 384.08,292.17 C 385.00,292.34 385.82,292.51 386.55,292.70 C 387.29,292.88 387.93,293.07 388.48,293.27 C 389.02,293.48 389.48,293.69 389.84,293.91 C 390.21,294.13 390.40,294.37 390.66,294.59 C 390.91,294.82 391.15,295.03 391.38,295.24 C 391.61,295.45 391.82,295.65 392.02,295.85 C 392.22,296.05 392.41,296.24 392.58,296.42 C 392.75,296.61 392.90,296.78 393.05,296.95 C 393.19,297.12 393.32,297.29 393.43,297.45 C 393.54,297.60 393.64,297.75 393.73,297.90 C 393.81,298.04 393.88,298.18 393.94,298.31 C 393.99,298.44 394.03,298.57 394.06,298.69 C 394.10,298.81 394.12,298.92 394.14,299.03 C 394.16,299.14 394.17,299.24 394.17,299.34 C 394.17,299.44 394.17,299.54 394.16,299.62 C 394.14,299.71 394.12,299.80 394.09,299.88 C 394.07,299.95 394.03,300.03 393.98,300.09 C 393.94,300.16 393.89,300.22 393.83,300.28 C 393.77,300.34 393.70,300.39 393.62,300.44 C 393.55,300.48 393.45,300.52 393.38,300.56 C 393.30,300.61 393.23,300.66 393.17,300.72 C 393.11,300.78 393.06,300.84 393.02,300.91 C 392.97,300.97 392.93,301.05 392.91,301.12 C 392.88,301.20 392.86,301.29 392.84,301.38 C 392.83,301.46 392.83,301.56 392.83,301.66 C 392.83,301.76 392.84,301.86 392.86,301.97 C 392.88,302.08 392.90,302.19 392.94,302.31 C 392.97,302.43 393.03,302.56 393.06,302.69 C 393.10,302.81 393.13,302.93 393.15,303.05 C 393.17,303.18 393.19,303.30 393.20,303.41 C 393.20,303.53 393.21,303.65 393.20,303.77 C 393.20,303.88 393.19,304.00 393.17,304.11 C 393.15,304.22 393.13,304.33 393.10,304.45 C 393.07,304.56 393.04,304.67 392.99,304.77 C 392.95,304.88 392.90,304.99 392.84,305.09 C 392.79,305.20 392.80,305.30 392.66,305.41 C 392.51,305.52 392.28,305.63 391.97,305.75 C 391.66,305.87 391.26,305.99 390.78,306.12 C 390.30,306.26 389.74,306.39 389.09,306.53 C 388.45,306.67 387.72,306.82 386.91,306.97 C 386.09,307.12 385.20,307.28 384.22,307.44 C 383.24,307.60 382.18,307.77 381.03,307.94 C 379.89,308.11 378.66,308.29 377.34,308.47 C 376.03,308.65 374.40,308.76 373.16,309.03 C 371.91,309.30 370.81,309.65 369.86,310.08 C 368.91,310.51 368.11,311.02 367.45,311.61 C 366.80,312.20 366.29,312.87 365.94,313.62 C 365.58,314.38 365.37,315.21 365.31,316.12 C 365.25,317.04 365.34,318.03 365.58,319.11 C 365.82,320.18 366.20,321.34 366.73,322.58 C 367.27,323.82 367.95,325.13 368.78,326.53 C 369.61,327.93 370.82,329.58 371.72,330.97 C 372.62,332.36 373.43,333.65 374.16,334.85 C 374.90,336.05 375.55,337.16 376.12,338.18 C 376.69,339.20 377.17,340.12 377.58,340.95 C 377.98,341.79 378.31,342.52 378.55,343.17 C 378.79,343.82 378.95,344.37 379.02,344.84 C 379.10,345.30 379.10,345.67 379.01,345.95 C 378.92,346.22 378.75,346.41 378.50,346.50 C 378.25,346.59 377.91,346.59 377.50,346.50 C 377.09,346.41 376.61,346.23 376.06,345.97 C 375.51,345.70 374.89,345.35 374.19,344.91 C 373.49,344.46 372.72,343.93 371.88,343.31 C 371.03,342.69 370.11,341.98 369.12,341.19 C 368.14,340.39 367.07,339.51 365.94,338.53 C 364.80,337.56 363.59,336.49 362.31,335.34 C 361.03,334.19 359.68,332.95 358.25,331.62 C 356.82,330.30 355.20,328.69 353.75,327.38 C 352.30,326.06 350.89,324.84 349.53,323.72 C 348.17,322.60 346.86,321.58 345.59,320.66 C 344.33,319.73 343.11,318.91 341.94,318.19 C 340.77,317.46 339.64,316.84 338.56,316.31 C 337.48,315.79 336.45,315.36 335.47,315.03 C 334.48,314.70 333.55,314.47 332.66,314.34 C 331.77,314.21 330.92,314.18 330.12,314.25 C 329.33,314.32 328.62,314.59 327.88,314.75 C 327.13,314.91 326.38,315.05 325.64,315.19 C 324.90,315.32 324.16,315.45 323.42,315.56 C 322.68,315.68 321.95,315.78 321.22,315.88 C 320.49,315.97 319.76,316.05 319.03,316.12 C 318.30,316.20 317.58,316.26 316.86,316.31 C 316.14,316.36 315.42,316.41 314.70,316.44 C 313.99,316.47 313.27,316.49 312.56,316.50 C 311.85,316.51 311.24,316.39 310.44,316.50 C 309.63,316.61 308.74,316.82 307.74,317.15 C 306.75,317.47 305.66,317.90 304.48,318.45 C 303.29,318.99 302.01,319.63 300.64,320.39 C 299.27,321.15 297.80,322.01 296.23,322.98 C 294.67,323.96 293.01,325.04 291.26,326.23 C 289.50,327.42 287.65,328.71 285.71,330.12 C 283.77,331.52 281.73,333.04 279.59,334.66 C 277.46,336.28 274.99,338.21 272.91,339.84 C 270.82,341.47 268.88,343.01 267.08,344.44 C 265.28,345.87 263.62,347.20 262.11,348.44 C 260.60,349.67 259.23,350.81 258.00,351.84 C 256.77,352.88 255.69,353.82 254.75,354.66 C 253.81,355.49 253.01,356.23 252.36,356.88 C 251.71,357.52 251.20,358.06 250.83,358.50 C 250.46,358.94 250.24,359.29 250.16,359.53 C 250.08,359.78 250.21,359.82 250.34,359.97 C 250.48,360.12 250.68,360.27 250.95,360.43 C 251.21,360.59 251.55,360.75 251.96,360.91 C 252.37,361.08 252.85,361.25 253.39,361.42 C 253.94,361.60 254.55,361.77 255.23,361.95 C 255.92,362.13 256.67,362.32 257.49,362.51 C 258.31,362.70 259.20,362.89 260.16,363.09 C 261.12,363.28 262.15,363.48 263.25,363.69 C 264.35,363.89 265.60,364.12 266.75,364.31 C 267.90,364.51 269.04,364.68 270.16,364.84 C 271.28,365.01 272.38,365.15 273.47,365.28 C 274.56,365.41 275.63,365.53 276.69,365.62 C 277.74,365.72 278.79,365.81 279.81,365.88 C 280.84,365.94 281.85,365.99 282.84,366.03 C 283.84,366.07 284.82,366.09 285.78,366.09 C 286.74,366.10 287.69,366.09 288.62,366.06 C 289.56,366.04 290.52,365.96 291.38,365.94 C 292.23,365.91 293.02,365.90 293.75,365.91 C 294.48,365.91 295.15,365.93 295.75,365.97 C 296.35,366.01 296.90,366.06 297.38,366.12 C 297.85,366.19 298.27,366.28 298.62,366.38 C 298.98,366.47 299.27,366.59 299.50,366.72 C 299.73,366.85 299.90,366.99 300.00,367.16 C 300.10,367.32 300.15,367.49 300.12,367.69 C 300.10,367.88 300.06,368.13 299.88,368.31 C 299.69,368.49 299.40,368.65 299.02,368.78 C 298.63,368.91 298.14,369.02 297.55,369.09 C 296.96,369.17 296.26,369.22 295.47,369.25 C 294.67,369.28 293.78,369.28 292.78,369.25 C 291.78,369.22 290.68,369.17 289.48,369.09 C 288.28,369.02 286.98,368.91 285.58,368.78 C 284.17,368.65 282.67,368.49 281.06,368.31 Z" />
    </clipPath>
  </defs>
  <path d="M 281.06,368.31 C 279.46,368.13 277.59,367.88 275.94,367.69 C 274.28,367.49 272.68,367.31 271.14,367.14 C 269.60,366.97 268.11,366.82 266.67,366.67 C 265.24,366.53 263.86,366.40 262.53,366.28 C 261.21,366.16 259.93,366.06 258.72,365.97 C 257.50,365.88 256.34,365.80 255.23,365.73 C 254.13,365.67 253.08,365.62 252.08,365.58 C 251.08,365.54 250.14,365.51 249.25,365.50 C 248.36,365.49 247.55,365.51 246.75,365.50 C 245.95,365.49 245.18,365.48 244.44,365.47 C 243.70,365.45 242.99,365.43 242.31,365.41 C 241.64,365.38 240.99,365.35 240.38,365.31 C 239.76,365.28 239.18,365.23 238.62,365.19 C 238.07,365.14 237.55,365.09 237.06,365.03 C 236.57,364.97 236.11,364.91 235.69,364.84 C 235.26,364.78 234.86,364.70 234.50,364.62 C 234.14,364.55 233.84,364.47 233.50,364.38 C 233.16,364.28 232.80,364.17 232.44,364.05 C 232.07,363.92 231.70,363.79 231.31,363.64 C 230.93,363.49 230.53,363.33 230.12,363.16 C 229.72,362.98 229.30,362.79 228.88,362.59 C 228.45,362.39 228.01,362.18 227.56,361.95 C 227.11,361.73 226.66,361.49 226.19,361.23 C 225.72,360.98 225.24,360.72 224.75,360.44 C 224.26,360.16 223.72,359.84 223.25,359.56 C 222.78,359.28 222.34,359.01 221.93,358.76 C 221.52,358.50 221.14,358.26 220.79,358.02 C 220.44,357.79 220.12,357.57 219.83,357.36 C 219.54,357.15 219.28,356.95 219.05,356.77 C 218.82,356.58 218.62,356.40 218.45,356.24 C 218.27,356.08 218.13,355.93 218.02,355.79 C 217.91,355.65 217.83,355.52 217.78,355.41 C 217.73,355.29 217.67,355.30 217.72,355.09 C 217.77,354.89 217.90,354.59 218.10,354.20 C 218.30,353.80 218.58,353.30 218.93,352.71 C 219.28,352.12 219.70,351.43 220.20,350.64 C 220.70,349.85 221.27,348.97 221.92,347.98 C 222.57,347.00 223.29,345.92 224.09,344.74 C 224.88,343.56 225.75,342.29 226.70,340.91 C 227.64,339.54 228.66,338.07 229.75,336.50 C 230.84,334.93 232.18,333.08 233.25,331.50 C 234.32,329.92 235.29,328.42 236.17,327.00 C 237.05,325.58 237.83,324.25 238.52,323.00 C 239.20,321.75 239.79,320.58 240.28,319.50 C 240.77,318.42 241.17,317.42 241.47,316.50 C 241.77,315.58 241.97,314.75 242.08,314.00 C 242.18,313.25 242.20,312.58 242.11,312.00 C 242.02,311.42 241.84,310.92 241.56,310.50 C 241.28,310.08 240.80,309.84 240.44,309.50 C 240.07,309.16 239.71,308.81 239.37,308.46 C 239.02,308.11 238.68,307.75 238.35,307.38 C 238.02,307.02 237.70,306.64 237.39,306.27 C 237.08,305.89 236.78,305.50 236.48,305.11 C 236.19,304.72 235.91,304.32 235.63,303.91 C 235.36,303.51 235.09,303.10 234.84,302.68 C 234.58,302.26 234.33,301.84 234.09,301.41 C 233.86,300.98 233.69,300.52 233.41,300.09 C 233.12,299.66 232.79,299.24 232.40,298.82 C 232.01,298.40 231.57,297.99 231.07,297.59 C 230.57,297.18 230.02,296.78 229.42,296.39 C 228.82,296.00 228.16,295.61 227.45,295.23 C 226.74,294.86 225.98,294.48 225.16,294.12 C 224.35,293.75 223.48,293.39 222.55,293.04 C 221.63,292.69 220.65,292.34 219.62,292.00 C 218.60,291.66 217.42,291.33 216.38,291.00 C 215.33,290.67 214.32,290.35 213.34,290.03 C 212.37,289.71 211.43,289.40 210.53,289.09 C 209.63,288.79 208.77,288.48 207.94,288.19 C 207.11,287.89 206.32,287.60 205.56,287.31 C 204.81,287.03 204.09,286.74 203.41,286.47 C 202.72,286.19 202.08,285.92 201.47,285.66 C 200.86,285.39 200.29,285.13 199.75,284.88 C 199.21,284.62 198.76,284.37 198.25,284.12 C 197.74,283.88 197.23,283.65 196.70,283.42 C 196.18,283.20 195.65,282.98 195.11,282.77 C 194.57,282.55 194.02,282.35 193.47,282.16 C 192.91,281.96 192.35,281.77 191.78,281.59 C 191.21,281.41 190.63,281.24 190.05,281.08 C 189.46,280.91 188.87,280.76 188.27,280.61 C 187.66,280.46 187.05,280.32 186.44,280.19 C 185.82,280.05 185.16,279.93 184.56,279.81 C 183.97,279.70 183.40,279.59 182.86,279.48 C 182.32,279.38 181.81,279.29 181.33,279.20 C 180.85,279.12 180.39,279.04 179.97,278.97 C 179.54,278.90 179.15,278.84 178.78,278.78 C 178.41,278.73 178.08,278.68 177.77,278.64 C 177.46,278.60 177.17,278.57 176.92,278.55 C 176.67,278.52 176.45,278.51 176.25,278.50 C 176.05,278.49 175.91,278.49 175.75,278.50 C 175.59,278.51 175.44,278.53 175.30,278.56 C 175.15,278.59 175.02,278.64 174.89,278.69 C 174.76,278.74 174.64,278.80 174.53,278.88 C 174.42,278.95 174.32,279.03 174.22,279.12 C 174.12,279.22 174.03,279.32 173.95,279.44 C 173.87,279.55 173.80,279.68 173.73,279.81 C 173.67,279.95 173.61,280.09 173.56,280.25 C 173.51,280.41 173.54,280.60 173.44,280.75 C 173.33,280.90 173.17,281.03 172.94,281.14 C 172.71,281.25 172.42,281.35 172.06,281.42 C 171.71,281.50 171.29,281.55 170.81,281.59 C 170.33,281.63 169.79,281.65 169.19,281.66 C 168.58,281.66 167.92,281.64 167.19,281.61 C 166.46,281.58 165.67,281.52 164.81,281.45 C 163.96,281.38 163.04,281.29 162.06,281.19 C 161.08,281.08 159.91,280.93 158.94,280.81 C 157.96,280.69 157.06,280.57 156.22,280.45 C 155.38,280.34 154.61,280.22 153.91,280.11 C 153.20,280.00 152.57,279.89 152.00,279.78 C 151.43,279.67 150.93,279.57 150.50,279.47 C 150.07,279.37 149.70,279.27 149.41,279.17 C 149.11,279.08 148.88,278.98 148.72,278.89 C 148.56,278.80 148.46,278.71 148.44,278.62 C 148.41,278.54 148.49,278.45 148.56,278.38 C 148.64,278.30 148.74,278.22 148.88,278.15 C 149.02,278.08 149.19,278.01 149.40,277.95 C 149.60,277.88 149.84,277.82 150.11,277.77 C 150.38,277.71 150.68,277.66 151.02,277.61 C 151.35,277.56 151.72,277.52 152.12,277.48 C 152.52,277.44 152.95,277.40 153.41,277.37 C 153.88,277.33 154.38,277.31 154.91,277.28 C 155.44,277.26 156.08,277.25 156.59,277.22 C 157.10,277.18 157.56,277.13 157.96,277.07 C 158.36,277.01 158.71,276.93 159.01,276.84 C 159.30,276.74 159.55,276.64 159.73,276.52 C 159.92,276.39 160.06,276.26 160.14,276.11 C 160.22,275.96 160.25,275.80 160.23,275.62 C 160.20,275.44 160.12,275.25 159.99,275.04 C 159.86,274.83 159.68,274.61 159.44,274.38 C 159.20,274.14 158.84,273.87 158.56,273.62 C 158.29,273.38 158.03,273.15 157.80,272.92 C 157.56,272.70 157.34,272.48 157.14,272.27 C 156.94,272.05 156.76,271.85 156.59,271.66 C 156.43,271.46 156.28,271.27 156.16,271.09 C 156.03,270.91 155.92,270.74 155.83,270.58 C 155.74,270.41 155.66,270.26 155.61,270.11 C 155.55,269.96 155.52,269.82 155.50,269.69 C 155.48,269.55 155.48,269.44 155.50,269.31 C 155.52,269.18 155.55,269.05 155.61,268.91 C 155.66,268.77 155.74,268.62 155.83,268.47 C 155.92,268.32 156.03,268.16 156.16,268.00 C 156.28,267.84 156.43,267.67 156.59,267.50 C 156.76,267.33 156.94,267.15 157.14,266.97 C 157.34,266.79 157.56,266.60 157.80,266.41 C 158.03,266.21 158.29,266.02 158.56,265.81 C 158.84,265.61 159.20,265.39 159.44,265.19 C 159.67,264.99 159.85,264.79 159.97,264.61 C 160.09,264.42 160.15,264.25 160.16,264.08 C 160.16,263.91 160.11,263.75 160.00,263.59 C 159.89,263.44 159.72,263.29 159.50,263.16 C 159.28,263.02 158.99,262.89 158.66,262.77 C 158.32,262.64 157.92,262.53 157.47,262.42 C 157.02,262.32 156.51,262.22 155.94,262.12 C 155.37,262.03 154.62,261.96 154.06,261.88 C 153.51,261.79 153.02,261.70 152.60,261.60 C 152.18,261.51 151.83,261.41 151.55,261.30 C 151.27,261.20 151.06,261.10 150.92,260.98 C 150.78,260.87 150.71,260.76 150.70,260.64 C 150.70,260.52 150.76,260.40 150.90,260.27 C 151.03,260.15 151.24,260.02 151.51,259.88 C 151.78,259.75 152.12,259.61 152.53,259.47 C 152.94,259.33 153.49,259.17 153.97,259.03 C 154.45,258.89 154.94,258.76 155.43,258.63 C 155.92,258.51 156.42,258.39 156.91,258.27 C 157.41,258.16 157.92,258.05 158.42,257.95 C 158.93,257.85 159.44,257.76 159.95,257.67 C 160.47,257.58 160.99,257.50 161.51,257.43 C 162.03,257.36 162.56,257.29 163.09,257.23 C 163.62,257.17 164.15,257.11 164.69,257.06 C 165.23,257.01 165.78,256.97 166.31,256.94 C 166.84,256.91 167.36,256.89 167.86,256.89 C 168.36,256.89 168.85,256.90 169.33,256.92 C 169.80,256.95 170.27,256.98 170.72,257.03 C 171.17,257.08 171.61,257.14 172.03,257.22 C 172.46,257.29 172.87,257.38 173.27,257.48 C 173.66,257.59 174.05,257.70 174.42,257.83 C 174.79,257.96 175.15,258.10 175.50,258.25 C 175.85,258.40 176.16,258.60 176.50,258.75 C 176.84,258.90 177.19,259.04 177.55,259.16 C 177.90,259.28 178.27,259.38 178.64,259.47 C 179.01,259.56 179.39,259.63 179.78,259.69 C 180.17,259.74 180.57,259.79 180.97,259.81 C 181.37,259.84 181.78,259.85 182.20,259.84 C 182.62,259.84 183.05,259.82 183.48,259.78 C 183.92,259.74 184.36,259.69 184.81,259.62 C 185.26,259.56 185.65,259.50 186.19,259.38 C 186.73,259.25 187.35,259.09 188.05,258.88 C 188.76,258.68 189.55,258.43 190.41,258.15 C 191.28,257.86 192.23,257.54 193.27,257.17 C 194.30,256.81 195.41,256.40 196.61,255.95 C 197.81,255.51 199.08,255.02 200.45,254.49 C 201.81,253.96 203.25,253.40 204.77,252.79 C 206.30,252.18 207.90,251.53 209.59,250.84 C 211.28,250.15 213.24,249.36 214.91,248.66 C 216.58,247.95 218.15,247.26 219.62,246.60 C 221.09,245.94 222.46,245.30 223.73,244.68 C 225.00,244.06 226.17,243.46 227.23,242.89 C 228.30,242.32 229.27,241.76 230.14,241.23 C 231.01,240.70 231.78,240.20 232.45,239.71 C 233.11,239.23 233.68,238.76 234.15,238.32 C 234.62,237.88 234.98,237.46 235.25,237.06 C 235.52,236.67 235.57,236.31 235.75,235.94 C 235.93,235.57 236.11,235.20 236.31,234.84 C 236.51,234.48 236.72,234.13 236.94,233.78 C 237.16,233.43 237.39,233.09 237.62,232.75 C 237.86,232.41 238.11,232.08 238.38,231.75 C 238.64,231.42 238.91,231.10 239.19,230.78 C 239.47,230.46 239.76,230.15 240.06,229.84 C 240.36,229.54 240.68,229.23 241.00,228.94 C 241.32,228.64 241.69,228.34 242.00,228.06 C 242.31,227.78 242.60,227.52 242.88,227.27 C 243.15,227.01 243.40,226.77 243.62,226.55 C 243.85,226.32 244.06,226.11 244.25,225.91 C 244.44,225.71 244.60,225.52 244.75,225.34 C 244.90,225.17 245.02,225.01 245.12,224.86 C 245.23,224.71 245.31,224.58 245.38,224.45 C 245.44,224.33 245.48,224.22 245.50,224.12 C 245.52,224.03 245.57,224.05 245.50,223.88 C 245.43,223.70 245.28,223.43 245.06,223.06 C 244.84,222.70 244.55,222.24 244.19,221.69 C 243.82,221.14 243.39,220.49 242.88,219.75 C 242.36,219.01 241.78,218.18 241.12,217.25 C 240.47,216.32 239.74,215.30 238.94,214.19 C 238.14,213.07 237.26,211.86 236.31,210.56 C 235.36,209.26 234.34,207.86 233.25,206.38 C 232.16,204.89 230.84,203.12 229.75,201.62 C 228.66,200.13 227.64,198.74 226.70,197.43 C 225.75,196.12 224.88,194.91 224.09,193.79 C 223.29,192.67 222.57,191.64 221.92,190.70 C 221.27,189.77 220.70,188.92 220.20,188.17 C 219.70,187.42 219.28,186.76 218.93,186.20 C 218.58,185.63 218.30,185.15 218.10,184.77 C 217.90,184.39 217.77,184.10 217.72,183.91 C 217.67,183.71 217.73,183.71 217.78,183.59 C 217.83,183.48 217.92,183.35 218.04,183.21 C 218.16,183.07 218.31,182.92 218.49,182.76 C 218.68,182.60 218.89,182.42 219.14,182.23 C 219.39,182.05 219.67,181.85 219.98,181.64 C 220.30,181.43 220.64,181.21 221.02,180.98 C 221.40,180.74 221.81,180.50 222.26,180.24 C 222.70,179.99 223.18,179.72 223.69,179.44 C 224.20,179.16 224.78,178.84 225.31,178.56 C 225.84,178.28 226.36,178.02 226.88,177.77 C 227.39,177.51 227.89,177.27 228.38,177.05 C 228.86,176.82 229.34,176.61 229.81,176.41 C 230.28,176.21 230.74,176.02 231.19,175.84 C 231.64,175.67 232.07,175.51 232.50,175.36 C 232.93,175.21 233.34,175.08 233.75,174.95 C 234.16,174.83 234.55,174.72 234.94,174.62 C 235.32,174.53 235.70,174.45 236.06,174.38 C 236.43,174.30 236.78,174.23 237.12,174.17 C 237.47,174.11 237.80,174.06 238.12,174.02 C 238.45,173.97 238.76,173.93 239.06,173.91 C 239.36,173.88 239.66,173.86 239.94,173.84 C 240.22,173.83 240.49,173.83 240.75,173.83 C 241.01,173.83 241.26,173.84 241.50,173.86 C 241.74,173.88 241.97,173.90 242.19,173.94 C 242.41,173.97 242.48,174.04 242.81,174.06 C 243.15,174.09 243.61,174.10 244.20,174.09 C 244.79,174.09 245.51,174.07 246.36,174.03 C 247.21,173.99 248.18,173.94 249.28,173.88 C 250.38,173.81 251.61,173.72 252.97,173.62 C 254.33,173.53 255.81,173.41 257.42,173.28 C 259.03,173.15 260.77,173.01 262.64,172.84 C 264.51,172.68 266.50,172.51 268.62,172.31 C 270.75,172.12 273.26,171.87 275.38,171.69 C 277.49,171.50 279.47,171.34 281.31,171.20 C 283.16,171.07 284.86,170.95 286.44,170.86 C 288.01,170.77 289.45,170.70 290.75,170.66 C 292.05,170.61 293.22,170.59 294.25,170.59 C 295.28,170.60 296.18,170.62 296.94,170.67 C 297.70,170.72 298.32,170.79 298.81,170.89 C 299.30,170.99 299.66,171.11 299.88,171.25 C 300.09,171.39 300.12,171.59 300.12,171.75 C 300.13,171.91 300.07,172.05 299.92,172.19 C 299.78,172.32 299.56,172.45 299.27,172.56 C 298.97,172.68 298.60,172.78 298.16,172.88 C 297.71,172.97 297.19,173.05 296.59,173.12 C 296.00,173.20 295.33,173.26 294.58,173.31 C 293.83,173.36 293.01,173.41 292.11,173.44 C 291.21,173.47 290.24,173.49 289.19,173.50 C 288.14,173.51 286.89,173.49 285.81,173.50 C 284.73,173.51 283.70,173.52 282.72,173.55 C 281.73,173.57 280.80,173.60 279.91,173.64 C 279.02,173.68 278.17,173.73 277.38,173.78 C 276.58,173.84 275.83,173.90 275.12,173.97 C 274.42,174.04 273.77,174.12 273.16,174.20 C 272.55,174.29 271.98,174.38 271.47,174.48 C 270.95,174.59 270.48,174.70 270.06,174.81 C 269.64,174.93 269.32,175.07 268.94,175.19 C 268.56,175.30 268.18,175.41 267.80,175.52 C 267.41,175.62 267.03,175.71 266.64,175.80 C 266.25,175.88 265.86,175.96 265.47,176.03 C 265.08,176.10 264.68,176.16 264.28,176.22 C 263.88,176.27 263.48,176.32 263.08,176.36 C 262.67,176.40 262.27,176.43 261.86,176.45 C 261.45,176.48 261.04,176.49 260.62,176.50 C 260.21,176.51 259.78,176.49 259.38,176.50 C 258.97,176.51 258.58,176.54 258.20,176.57 C 257.81,176.61 257.44,176.65 257.09,176.71 C 256.73,176.77 256.38,176.84 256.05,176.92 C 255.71,177.00 255.39,177.10 255.08,177.20 C 254.77,177.31 254.47,177.43 254.18,177.55 C 253.89,177.68 253.62,177.82 253.35,177.98 C 253.09,178.13 252.83,178.29 252.59,178.47 C 252.35,178.64 251.98,178.75 251.91,179.03 C 251.83,179.32 251.91,179.70 252.14,180.17 C 252.37,180.65 252.76,181.22 253.30,181.89 C 253.84,182.56 254.53,183.33 255.38,184.19 C 256.22,185.05 257.22,186.01 258.38,187.06 C 259.53,188.12 260.84,189.27 262.30,190.52 C 263.76,191.76 265.37,193.11 267.14,194.55 C 268.91,195.99 270.83,197.52 272.91,199.16 C 274.98,200.79 277.48,202.72 279.59,204.34 C 281.71,205.96 283.72,207.48 285.62,208.88 C 287.51,210.29 289.30,211.58 290.98,212.77 C 292.65,213.96 294.22,215.04 295.67,216.02 C 297.13,216.99 298.47,217.85 299.70,218.61 C 300.94,219.37 302.06,220.01 303.07,220.55 C 304.08,221.10 304.98,221.53 305.77,221.85 C 306.56,222.18 307.24,222.39 307.81,222.50 C 308.38,222.61 308.70,222.49 309.19,222.50 C 309.68,222.51 310.21,222.53 310.77,222.56 C 311.33,222.59 311.92,222.64 312.55,222.69 C 313.17,222.74 313.84,222.80 314.53,222.88 C 315.23,222.95 315.96,223.03 316.72,223.12 C 317.48,223.22 318.28,223.32 319.11,223.44 C 319.94,223.55 320.80,223.68 321.70,223.81 C 322.60,223.95 323.53,224.09 324.50,224.25 C 325.47,224.41 326.47,224.68 327.50,224.75 C 328.53,224.82 329.59,224.79 330.67,224.67 C 331.76,224.55 332.87,224.33 334.02,224.02 C 335.16,223.70 336.33,223.29 337.53,222.78 C 338.73,222.27 339.96,221.67 341.22,220.97 C 342.48,220.27 343.76,219.47 345.08,218.58 C 346.39,217.68 347.74,216.70 349.11,215.61 C 350.48,214.52 351.88,213.34 353.31,212.06 C 354.74,210.78 356.30,209.23 357.69,207.94 C 359.08,206.65 360.39,205.44 361.64,204.31 C 362.89,203.19 364.07,202.15 365.17,201.19 C 366.28,200.23 367.32,199.35 368.28,198.56 C 369.25,197.77 370.14,197.06 370.97,196.44 C 371.79,195.81 372.55,195.27 373.23,194.81 C 373.92,194.35 374.53,193.98 375.08,193.69 C 375.62,193.40 376.10,193.19 376.50,193.06 C 376.90,192.94 377.19,192.97 377.50,192.94 C 377.81,192.91 378.10,192.89 378.37,192.88 C 378.63,192.88 378.88,192.88 379.10,192.90 C 379.32,192.92 379.52,192.94 379.70,192.98 C 379.88,193.02 380.04,193.08 380.17,193.14 C 380.31,193.20 380.42,193.28 380.51,193.37 C 380.60,193.45 380.67,193.55 380.71,193.66 C 380.76,193.77 380.78,193.90 380.78,194.03 C 380.78,194.17 380.80,194.25 380.72,194.47 C 380.64,194.69 380.51,194.98 380.32,195.35 C 380.13,195.72 379.89,196.16 379.59,196.68 C 379.29,197.20 378.93,197.79 378.52,198.45 C 378.10,199.12 377.63,199.86 377.11,200.67 C 376.58,201.49 376.00,202.37 375.37,203.34 C 374.73,204.30 374.04,205.33 373.29,206.45 C 372.54,207.56 371.74,208.74 370.88,210.00 C 370.01,211.26 368.90,212.74 368.12,214.00 C 367.35,215.26 366.73,216.45 366.24,217.57 C 365.76,218.69 365.42,219.74 365.23,220.71 C 365.03,221.69 364.98,222.59 365.08,223.42 C 365.17,224.25 365.41,225.01 365.80,225.70 C 366.18,226.39 366.71,227.01 367.38,227.55 C 368.06,228.10 368.87,228.57 369.84,228.98 C 370.80,229.38 371.90,229.71 373.16,229.97 C 374.41,230.23 376.03,230.35 377.34,230.53 C 378.66,230.71 379.89,230.89 381.03,231.06 C 382.18,231.23 383.24,231.40 384.22,231.56 C 385.20,231.72 386.09,231.88 386.91,232.03 C 387.72,232.18 388.45,232.33 389.09,232.47 C 389.74,232.61 390.30,232.74 390.78,232.88 C 391.26,233.01 391.66,233.13 391.97,233.25 C 392.28,233.37 392.51,233.48 392.66,233.59 C 392.80,233.70 392.79,233.80 392.84,233.91 C 392.90,234.01 392.95,234.12 392.99,234.23 C 393.04,234.33 393.07,234.44 393.10,234.55 C 393.13,234.67 393.15,234.78 393.17,234.89 C 393.19,235.00 393.20,235.12 393.20,235.23 C 393.21,235.35 393.20,235.47 393.20,235.59 C 393.19,235.70 393.17,235.82 393.15,235.95 C 393.13,236.07 393.10,236.19 393.06,236.31 C 393.03,236.44 392.97,236.57 392.94,236.69 C 392.90,236.81 392.88,236.92 392.86,237.03 C 392.84,237.14 392.83,237.24 392.83,237.34 C 392.83,237.44 392.83,237.54 392.84,237.62 C 392.86,237.71 392.88,237.80 392.91,237.88 C 392.93,237.95 392.97,238.03 393.02,238.09 C 393.06,238.16 393.11,238.22 393.17,238.28 C 393.23,238.34 393.30,238.39 393.38,238.44 C 393.45,238.48 393.55,238.51 393.62,238.56 C 393.70,238.61 393.76,238.68 393.81,238.75 C 393.86,238.82 393.91,238.91 393.94,239.00 C 393.97,239.09 393.99,239.20 394.00,239.31 C 394.01,239.43 394.01,239.55 394.00,239.69 C 393.99,239.82 393.97,239.97 393.94,240.12 C 393.91,240.28 393.86,240.45 393.81,240.62 C 393.76,240.80 393.70,240.99 393.62,241.19 C 393.55,241.39 393.46,241.62 393.38,241.81 C 393.29,242.01 393.20,242.19 393.10,242.37 C 393.01,242.54 392.91,242.70 392.80,242.85 C 392.70,243.00 392.60,243.14 392.48,243.27 C 392.37,243.39 392.26,243.51 392.14,243.61 C 392.02,243.71 391.90,243.80 391.77,243.88 C 391.65,243.96 391.52,244.03 391.38,244.09 C 391.25,244.14 391.11,244.19 390.97,244.22 C 390.83,244.25 390.68,244.25 390.53,244.28 C 390.38,244.31 390.24,244.35 390.09,244.40 C 389.94,244.45 389.79,244.50 389.63,244.57 C 389.48,244.64 389.33,244.71 389.17,244.80 C 389.02,244.88 388.86,244.98 388.70,245.08 C 388.55,245.18 388.39,245.29 388.23,245.41 C 388.07,245.54 387.90,245.67 387.74,245.80 C 387.58,245.94 387.42,246.09 387.25,246.25 C 387.08,246.41 387.03,246.59 386.75,246.75 C 386.47,246.91 386.09,247.07 385.59,247.22 C 385.10,247.37 384.49,247.52 383.78,247.66 C 383.07,247.80 382.24,247.93 381.31,248.06 C 380.38,248.19 379.34,248.32 378.19,248.44 C 377.04,248.56 375.78,248.67 374.41,248.78 C 373.04,248.89 371.56,248.99 369.97,249.09 C 368.38,249.19 366.68,249.29 364.88,249.38 C 363.07,249.46 360.95,249.54 359.12,249.62 C 357.30,249.71 355.57,249.80 353.92,249.89 C 352.28,249.98 350.73,250.08 349.27,250.17 C 347.80,250.27 346.43,250.37 345.16,250.47 C 343.88,250.57 342.69,250.67 341.59,250.78 C 340.50,250.89 339.49,251.00 338.58,251.11 C 337.66,251.22 336.84,251.34 336.11,251.45 C 335.38,251.57 334.74,251.69 334.19,251.81 C 333.64,251.93 333.24,252.07 332.81,252.19 C 332.38,252.31 331.98,252.43 331.61,252.55 C 331.24,252.66 330.89,252.78 330.58,252.89 C 330.26,253.00 329.98,253.11 329.72,253.22 C 329.46,253.33 329.23,253.43 329.03,253.53 C 328.83,253.63 328.66,253.73 328.52,253.83 C 328.37,253.92 328.26,254.02 328.17,254.11 C 328.09,254.20 328.03,254.29 328.00,254.38 C 327.97,254.46 327.99,254.54 328.00,254.62 C 328.01,254.71 328.03,254.78 328.06,254.86 C 328.09,254.93 328.14,255.01 328.19,255.08 C 328.24,255.15 328.30,255.22 328.38,255.28 C 328.45,255.35 328.53,255.41 328.62,255.47 C 328.72,255.53 328.82,255.59 328.94,255.64 C 329.05,255.70 329.18,255.75 329.31,255.80 C 329.45,255.85 329.59,255.89 329.75,255.94 C 329.91,255.98 330.04,256.02 330.25,256.06 C 330.46,256.11 330.72,256.16 331.02,256.22 C 331.32,256.28 331.66,256.34 332.05,256.41 C 332.43,256.47 332.87,256.55 333.34,256.62 C 333.82,256.70 334.34,256.79 334.91,256.88 C 335.47,256.96 336.08,257.06 336.73,257.16 C 337.39,257.26 338.09,257.36 338.83,257.47 C 339.57,257.58 340.36,257.69 341.19,257.81 C 342.02,257.93 342.99,258.06 343.81,258.19 C 344.64,258.32 345.42,258.46 346.15,258.60 C 346.88,258.75 347.56,258.90 348.20,259.05 C 348.83,259.21 349.42,259.38 349.95,259.55 C 350.49,259.72 350.98,259.89 351.42,260.08 C 351.86,260.26 352.26,260.45 352.60,260.65 C 352.95,260.85 353.24,261.05 353.49,261.26 C 353.74,261.47 353.94,261.68 354.09,261.91 C 354.25,262.13 354.31,262.36 354.41,262.59 C 354.50,262.83 354.60,263.08 354.68,263.34 C 354.76,263.59 354.84,263.86 354.91,264.13 C 354.99,264.41 355.05,264.69 355.11,264.98 C 355.17,265.28 355.22,265.58 355.27,265.89 C 355.31,266.20 355.35,266.52 355.38,266.85 C 355.42,267.18 355.44,267.52 355.46,267.87 C 355.48,268.21 355.49,268.57 355.50,268.94 C 355.51,269.30 355.51,269.70 355.50,270.06 C 355.49,270.43 355.48,270.78 355.47,271.12 C 355.45,271.47 355.43,271.80 355.41,272.12 C 355.38,272.45 355.35,272.76 355.31,273.06 C 355.28,273.36 355.23,273.66 355.19,273.94 C 355.14,274.22 355.09,274.49 355.03,274.75 C 354.97,275.01 354.91,275.26 354.84,275.50 C 354.78,275.74 354.70,275.97 354.62,276.19 C 354.55,276.41 354.46,276.61 354.38,276.81 C 354.29,277.01 354.20,277.20 354.12,277.38 C 354.03,277.56 353.94,277.74 353.85,277.90 C 353.76,278.06 353.67,278.21 353.58,278.36 C 353.49,278.50 353.39,278.64 353.30,278.77 C 353.20,278.89 353.11,279.01 353.01,279.12 C 352.91,279.23 352.81,279.32 352.71,279.41 C 352.61,279.50 352.51,279.58 352.41,279.66 C 352.30,279.73 352.25,279.78 352.09,279.84 C 351.94,279.91 351.73,279.98 351.46,280.05 C 351.20,280.13 350.88,280.21 350.51,280.29 C 350.14,280.37 349.71,280.46 349.23,280.55 C 348.76,280.64 348.23,280.73 347.64,280.83 C 347.06,280.93 346.42,281.03 345.73,281.13 C 345.04,281.24 344.29,281.35 343.49,281.46 C 342.69,281.57 341.84,281.69 340.94,281.81 C 340.03,281.93 338.96,282.07 338.06,282.19 C 337.16,282.31 336.32,282.43 335.54,282.54 C 334.76,282.65 334.03,282.76 333.37,282.87 C 332.70,282.97 332.10,283.07 331.55,283.17 C 331.00,283.27 330.51,283.36 330.08,283.45 C 329.65,283.54 329.27,283.63 328.96,283.71 C 328.65,283.79 328.39,283.87 328.20,283.95 C 328.00,284.02 327.86,284.09 327.78,284.16 C 327.70,284.22 327.69,284.27 327.72,284.34 C 327.74,284.41 327.82,284.49 327.94,284.58 C 328.06,284.66 328.22,284.76 328.44,284.86 C 328.65,284.96 328.91,285.07 329.22,285.19 C 329.53,285.30 329.88,285.43 330.28,285.56 C 330.68,285.70 331.13,285.84 331.62,285.98 C 332.12,286.13 332.66,286.29 333.25,286.45 C 333.84,286.62 334.47,286.79 335.16,286.97 C 335.84,287.15 336.55,287.35 337.34,287.53 C 338.14,287.71 338.99,287.89 339.91,288.05 C 340.83,288.22 341.82,288.38 342.87,288.54 C 343.92,288.69 345.03,288.84 346.20,288.98 C 347.38,289.13 348.62,289.26 349.92,289.39 C 351.23,289.52 352.59,289.64 354.02,289.76 C 355.45,289.87 356.95,289.98 358.51,290.09 C 360.07,290.19 361.69,290.29 363.38,290.38 C 365.06,290.46 366.97,290.53 368.62,290.62 C 370.28,290.72 371.85,290.82 373.32,290.93 C 374.79,291.04 376.17,291.16 377.46,291.29 C 378.75,291.42 379.94,291.56 381.05,291.70 C 382.15,291.85 383.16,292.01 384.08,292.17 C 385.00,292.34 385.82,292.51 386.55,292.70 C 387.29,292.88 387.93,293.07 388.48,293.27 C 389.02,293.48 389.48,293.69 389.84,293.91 C 390.21,294.13 390.40,294.37 390.66,294.59 C 390.91,294.82 391.15,295.03 391.38,295.24 C 391.61,295.45 391.82,295.65 392.02,295.85 C 392.22,296.05 392.41,296.24 392.58,296.42 C 392.75,296.61 392.90,296.78 393.05,296.95 C 393.19,297.12 393.32,297.29 393.43,297.45 C 393.54,297.60 393.64,297.75 393.73,297.90 C 393.81,298.04 393.88,298.18 393.94,298.31 C 393.99,298.44 394.03,298.57 394.06,298.69 C 394.10,298.81 394.12,298.92 394.14,299.03 C 394.16,299.14 394.17,299.24 394.17,299.34 C 394.17,299.44 394.17,299.54 394.16,299.62 C 394.14,299.71 394.12,299.80 394.09,299.88 C 394.07,299.95 394.03,300.03 393.98,300.09 C 393.94,300.16 393.89,300.22 393.83,300.28 C 393.77,300.34 393.70,300.39 393.62,300.44 C 393.55,300.48 393.45,300.52 393.38,300.56 C 393.30,300.61 393.23,300.66 393.17,300.72 C 393.11,300.78 393.06,300.84 393.02,300.91 C 392.97,300.97 392.93,301.05 392.91,301.12 C 392.88,301.20 392.86,301.29 392.84,301.38 C 392.83,301.46 392.83,301.56 392.83,301.66 C 392.83,301.76 392.84,301.86 392.86,301.97 C 392.88,302.08 392.90,302.19 392.94,302.31 C 392.97,302.43 393.03,302.56 393.06,302.69 C 393.10,302.81 393.13,302.93 393.15,303.05 C 393.17,303.18 393.19,303.30 393.20,303.41 C 393.20,303.53 393.21,303.65 393.20,303.77 C 393.20,303.88 393.19,304.00 393.17,304.11 C 393.15,304.22 393.13,304.33 393.10,304.45 C 393.07,304.56 393.04,304.67 392.99,304.77 C 392.95,304.88 392.90,304.99 392.84,305.09 C 392.79,305.20 392.80,305.30 392.66,305.41 C 392.51,305.52 392.28,305.63 391.97,305.75 C 391.66,305.87 391.26,305.99 390.78,306.12 C 390.30,306.26 389.74,306.39 389.09,306.53 C 388.45,306.67 387.72,306.82 386.91,306.97 C 386.09,307.12 385.20,307.28 384.22,307.44 C 383.24,307.60 382.18,307.77 381.03,307.94 C 379.89,308.11 378.66,308.29 377.34,308.47 C 376.03,308.65 374.40,308.76 373.16,309.03 C 371.91,309.30 370.81,309.65 369.86,310.08 C 368.91,310.51 368.11,311.02 367.45,311.61 C 366.80,312.20 366.29,312.87 365.94,313.62 C 365.58,314.38 365.37,315.21 365.31,316.12 C 365.25,317.04 365.34,318.03 365.58,319.11 C 365.82,320.18 366.20,321.34 366.73,322.58 C 367.27,323.82 367.95,325.13 368.78,326.53 C 369.61,327.93 370.82,329.58 371.72,330.97 C 372.62,332.36 373.43,333.65 374.16,334.85 C 374.90,336.05 375.55,337.16 376.12,338.18 C 376.69,339.20 377.17,340.12 377.58,340.95 C 377.98,341.79 378.31,342.52 378.55,343.17 C 378.79,343.82 378.95,344.37 379.02,344.84 C 379.10,345.30 379.10,345.67 379.01,345.95 C 378.92,346.22 378.75,346.41 378.50,346.50 C 378.25,346.59 377.91,346.59 377.50,346.50 C 377.09,346.41 376.61,346.23 376.06,345.97 C 375.51,345.70 374.89,345.35 374.19,344.91 C 373.49,344.46 372.72,343.93 371.88,343.31 C 371.03,342.69 370.11,341.98 369.12,341.19 C 368.14,340.39 367.07,339.51 365.94,338.53 C 364.80,337.56 363.59,336.49 362.31,335.34 C 361.03,334.19 359.68,332.95 358.25,331.62 C 356.82,330.30 355.20,328.69 353.75,327.38 C 352.30,326.06 350.89,324.84 349.53,323.72 C 348.17,322.60 346.86,321.58 345.59,320.66 C 344.33,319.73 343.11,318.91 341.94,318.19 C 340.77,317.46 339.64,316.84 338.56,316.31 C 337.48,315.79 336.45,315.36 335.47,315.03 C 334.48,314.70 333.55,314.47 332.66,314.34 C 331.77,314.21 330.92,314.18 330.12,314.25 C 329.33,314.32 328.62,314.59 327.88,314.75 C 327.13,314.91 326.38,315.05 325.64,315.19 C 324.90,315.32 324.16,315.45 323.42,315.56 C 322.68,315.68 321.95,315.78 321.22,315.88 C 320.49,315.97 319.76,316.05 319.03,316.12 C 318.30,316.20 317.58,316.26 316.86,316.31 C 316.14,316.36 315.42,316.41 314.70,316.44 C 313.99,316.47 313.27,316.49 312.56,316.50 C 311.85,316.51 311.24,316.39 310.44,316.50 C 309.63,316.61 308.74,316.82 307.74,317.15 C 306.75,317.47 305.66,317.90 304.48,318.45 C 303.29,318.99 302.01,319.63 300.64,320.39 C 299.27,321.15 297.80,322.01 296.23,322.98 C 294.67,323.96 293.01,325.04 291.26,326.23 C 289.50,327.42 287.65,328.71 285.71,330.12 C 283.77,331.52 281.73,333.04 279.59,334.66 C 277.46,336.28 274.99,338.21 272.91,339.84 C 270.82,341.47 268.88,343.01 267.08,344.44 C 265.28,345.87 263.62,347.20 262.11,348.44 C 260.60,349.67 259.23,350.81 258.00,351.84 C 256.77,352.88 255.69,353.82 254.75,354.66 C 253.81,355.49 253.01,356.23 252.36,356.88 C 251.71,357.52 251.20,358.06 250.83,358.50 C 250.46,358.94 250.24,359.29 250.16,359.53 C 250.08,359.78 250.21,359.82 250.34,359.97 C 250.48,360.12 250.68,360.27 250.95,360.43 C 251.21,360.59 251.55,360.75 251.96,360.91 C 252.37,361.08 252.85,361.25 253.39,361.42 C 253.94,361.60 254.55,361.77 255.23,361.95 C 255.92,362.13 256.67,362.32 257.49,362.51 C 258.31,362.70 259.20,362.89 260.16,363.09 C 261.12,363.28 262.15,363.48 263.25,363.69 C 264.35,363.89 265.60,364.12 266.75,364.31 C 267.90,364.51 269.04,364.68 270.16,364.84 C 271.28,365.01 272.38,365.15 273.47,365.28 C 274.56,365.41 275.63,365.53 276.69,365.62 C 277.74,365.72 278.79,365.81 279.81,365.88 C 280.84,365.94 281.85,365.99 282.84,366.03 C 283.84,366.07 284.82,366.09 285.78,366.09 C 286.74,366.10 287.69,366.09 288.62,366.06 C 289.56,366.04 290.52,365.96 291.38,365.94 C 292.23,365.91 293.02,365.90 293.75,365.91 C 294.48,365.91 295.15,365.93 295.75,365.97 C 296.35,366.01 296.90,366.06 297.38,366.12 C 297.85,366.19 298.27,366.28 298.62,366.38 C 298.98,366.47 299.27,366.59 299.50,366.72 C 299.73,366.85 299.90,366.99 300.00,367.16 C 300.10,367.32 300.15,367.49 300.12,367.69 C 300.10,367.88 300.06,368.13 299.88,368.31 C 299.69,368.49 299.40,368.65 299.02,368.78 C 298.63,368.91 298.14,369.02 297.55,369.09 C 296.96,369.17 296.26,369.22 295.47,369.25 C 294.67,369.28 293.78,369.28 292.78,369.25 C 291.78,369.22 290.68,369.17 289.48,369.09 C 288.28,369.02 286.98,368.91 285.58,368.78 C 284.17,368.65 282.67,368.49 281.06,368.31 Z" stroke="none" fill="currentColor" opacity="0.11" />
  <path d="M205.11,276.31L205.11,270.12 M205.16,276.29L205.16,270.12 M205.11,263.93L205.11,270.12 M205.16,263.95L205.16,270.12 M222.56,280.80L233.45,280.80 M239.76,280.80L239.76,280.80 M239.76,280.97L239.76,280.97 M232.87,281.02L224.70,281.02 M224.70,281.02L232.32,281.02 M232.87,281.41L224.70,281.41 M225.35,281.41L235.63,281.41 M233.45,259.44L222.56,259.44 M239.76,259.44L239.76,259.44 M239.76,259.27L239.76,259.27 M232.87,259.21L224.70,259.21 M224.70,259.21L232.32,259.21 M232.87,258.83L224.70,258.83 M225.35,258.83L235.63,258.83 M221.76,267.12L234.55,267.12 M221.76,273.12L234.55,273.12 M239.85,254.78L239.80,261.01 M239.85,285.46L239.80,279.23 M239.33,280.30L239.33,280.30 M239.33,259.93L239.33,259.93 M212.84,258.49L237.44,258.49 M229.35,261.44L216.13,261.44 M234.17,258.67L224.68,258.68 M225.07,258.10L227.94,258.09 M233.59,262.73L226.68,262.54 M237.44,281.75L212.84,281.75 M229.35,278.80L216.13,278.80 M234.17,281.57L224.68,281.56 M227.94,282.15L225.07,282.14 M233.59,277.51L226.68,277.70 M164.15,273.67L174.47,273.67 M164.15,266.56L174.47,266.56 M185.52,264.37L179.02,264.37 M185.52,275.87L179.02,275.87 M229.29,270.12L229.28,276.85 M229.29,270.12L229.33,276.85 M229.28,263.39L229.29,270.12 M229.29,270.12L229.33,263.39 M239.89,270.06L239.89,270.06 M249.95,285.84L249.95,285.84 M276.07,275.71L258.29,275.70 M273.23,275.71L258.29,275.70 M292.37,267.83L292.46,267.87 M242.85,263.03L242.87,277.62 M279.54,274.11L274.83,267.05 M279.43,274.38L289.07,274.38 M279.43,274.38L274.75,267.27 M289.07,274.38L289.07,284.16 M289.07,284.16L273.61,284.16 M273.61,284.16L269.17,277.47 M281.45,268.65L281.52,259.42 M292.34,266.74L292.34,258.82 M292.34,257.66L292.34,257.66 M292.08,258.79L292.08,266.77 M292.34,267.91L292.34,267.91 M292.08,268.16L292.08,268.16 M279.41,271.29L279.55,271.52 M279.42,269.03L279.42,268.96 M279.36,269.09L279.36,269.01 M278.48,269.09L278.48,269.09 M281.55,262.06L289.82,262.06 M251.54,287.92L251.54,287.92 M292.69,253.44L292.66,271.63 M291.29,260.05L291.29,270.64 M259.10,279.68L248.18,279.68 M267.19,277.01L267.19,267.72 M248.48,279.68L260.90,279.68 M301.79,269.12L290.21,268.72 M290.21,268.72L300.93,268.89 M290.21,268.72L279.17,268.69 M290.13,271.11L297.70,270.72 M294.44,275.37L308.46,275.02 M294.44,264.87L308.46,265.22 M277.69,280.41L268.60,281.60 M255.99,278.54L269.98,278.67 M255.99,278.54L270.89,278.64 M270.89,278.64L283.05,278.77 M294.37,275.38L309.48,274.93 M277.67,259.88L268.60,258.64 M270.89,261.60L255.99,261.70 M255.99,261.70L269.98,261.57 M270.89,261.60L283.05,261.46 M309.48,265.34L294.37,264.86 M307.69,261.58L299.36,258.97 M307.69,278.66L299.33,281.25 M272.04,286.73L264.72,291.22 M308.18,277.02L299.75,276.95 M308.18,277.02L299.70,277.14 M303.30,278.81L297.40,281.71 M306.85,278.75L297.40,281.71 M303.30,278.81L297.10,281.95 M315.75,263.38L309.97,265.14 M306.75,261.45L297.40,258.53 M264.72,249.02L272.04,253.51 M340.61,281.61L324.98,283.63 M344.29,281.29L354.32,276.84 M344.29,258.95L354.32,263.39 M235.28,254.80L228.73,255.93 M298.92,252.37L287.27,250.77 M271.18,248.23L265.52,247.05 M270.64,248.31L257.79,246.08 M253.51,245.32L265.71,247.06 M272.54,253.71L264.86,249.14 M270.72,252.41L264.83,248.87 M293.36,251.99L269.42,248.43 M268.74,247.69L294.84,251.64 M287.27,289.47L298.92,287.87 M268.74,292.55L294.84,288.60 M258.18,293.53L270.37,291.98 M258.18,293.53L270.57,291.77 M258.18,293.53L270.82,291.86 M257.69,246.04L270.37,248.26 M270.37,248.26L258.18,246.71 M258.18,246.71L270.57,248.46 M258.18,246.71L270.82,248.37 M267.68,286.48L261.33,286.73 M285.13,268.94L265.10,268.98 M285.13,271.29L265.31,271.40 M268.37,268.88L282.91,268.95 M282.91,268.95L268.68,268.98 M268.42,271.35L285.13,271.29 M270.73,255.35L278.01,255.77 M270.73,284.89L278.01,284.47 M315.34,277.07L321.79,279.40 M315.10,277.02L308.84,276.32 M315.34,263.17L321.79,260.84 M315.10,263.22L308.84,263.92 M314.92,274.74L314.92,265.50 M308.80,276.31L289.01,274.11 M304.70,257.48L314.28,258.04 M291.79,251.96L269.86,248.96 M286.28,251.57L271.74,249.64 M291.79,288.28L269.86,291.28 M286.28,288.66L271.74,290.59 M261.31,277.64L288.81,274.00 M325.67,273.73L354.31,275.31 M243.05,294.93L251.13,294.09 M243.05,294.93L267.20,292.28 M251.13,294.09L267.20,292.28 M325.67,266.51L354.31,264.92 M251.76,290.08L258.44,289.17 M258.44,289.17L265.19,287.90 M250.80,250.32L257.93,251.24 M251.59,250.32L258.44,251.07 M258.44,251.07L265.19,252.34 M267.23,290.86L275.59,289.30 M336.09,296.64L342.26,296.64 M369.85,291.05L377.14,306.06 M379.79,291.71L382.25,292.61 M371.46,292.91L378.06,307.59 M314.79,290.85L306.04,290.62 M350.88,303.66L366.77,303.94 M352.66,289.80L359.07,291.44 M363.06,292.63L345.44,291.74 M344.13,289.88L370.23,290.68 M344.13,289.88L351.81,290.20 M370.23,290.68L351.81,290.20 M358.79,292.39L352.26,291.02 M358.79,292.39L351.98,290.96 M331.63,296.18L325.63,295.62 M264.83,293.33L260.72,295.08 M229.08,359.26L237.59,351.38 M255.74,366.48L285.23,369.31 M252.88,305.40L250.56,299.17 M249.18,298.99L257.15,298.71 M257.41,299.04L249.41,299.28 M278.17,297.04L285.47,297.10 M291.25,299.27L282.43,299.27 M286.32,294.09L296.50,295.75 M286.22,294.11L273.18,295.95 M305.12,293.97L305.22,295.01 M305.29,296.13L305.29,296.13 M309.65,296.77L309.73,296.84 M309.73,296.84L311.39,303.55 M296.82,301.77L287.09,301.77 M296.20,301.77L287.90,301.77 M287.90,303.53L296.20,303.53 M296.77,303.53L287.09,303.53 M300.73,300.40L277.34,300.40 M300.73,304.89L277.34,304.89 M298.93,305.47L283.85,305.45 M300.29,305.47L283.83,305.45 M295.55,309.07L277.70,308.56 M273.57,308.37L273.58,296.36 M308.03,296.97L308.03,296.97 M272.05,308.02L295.54,309.08 M272.00,307.94L295.54,308.70 M272.28,307.61L272.26,299.04 M309.78,297.58L310.97,303.59 M267.79,298.70L286.19,295.94 M267.79,298.70L285.98,296.17 M341.21,299.89L334.03,300.77 M382.45,346.56L376.14,346.56 M382.45,346.56L376.05,346.56 M275.59,250.94L267.23,249.37 M342.26,243.60L336.09,243.60 M369.85,249.19L377.14,234.17 M379.79,248.53L382.25,247.63 M371.46,247.33L378.06,232.64 M314.79,249.39L306.04,249.62 M350.88,236.58L366.77,236.30 M352.66,250.44L359.07,248.79 M345.44,248.50L363.06,247.60 M344.13,250.36L370.23,249.56 M344.13,250.36L351.81,250.04 M370.23,249.56L351.81,250.04 M351.98,249.28L358.79,247.85 M358.79,247.85L352.26,249.22 M331.63,244.05L325.63,244.62 M264.83,246.91L260.72,245.16 M237.59,188.86L229.08,180.97 M255.74,173.76L285.23,170.93 M249.41,240.95L257.41,241.20 M249.18,241.24L257.15,241.52 M305.12,246.27L305.22,245.23 M300.73,235.34L277.34,235.34 M298.93,234.77L283.85,234.79 M272.28,232.63L272.26,241.19 M341.21,240.35L334.03,239.47 M382.45,193.68L376.14,193.67 M382.45,193.68L376.05,193.67 M252.85,258.63L266.85,258.44 M227.67,285.94L218.50,285.96 M218.50,285.96L249.47,285.91 M252.84,281.60L266.85,281.80 M232.24,246.24L226.05,248.96 M226.05,248.96L232.03,246.36 M232.24,294.00L226.05,291.28 M226.05,291.28L232.03,293.88 M179.43,262.26L164.79,264.15 M179.43,262.26L170.42,263.42 M164.79,276.09L179.43,277.97 M179.43,277.97L170.42,276.81 M195.33,267.54L187.70,267.54 M195.33,272.70L187.70,272.70 M180.01,268.52L171.76,268.52 M180.01,271.72L171.76,271.72 M180.95,267.29L195.58,265.96 M187.50,268.90L196.17,268.90 M187.50,271.34L196.17,271.34 M244.68,273.44L256.60,274.02 M205.58,268.39L220.97,267.31 M202.04,258.06L202.10,259.16" stroke="currentColor" stroke-width="0.6" stroke-linecap="round" fill="none" opacity="0.55" clip-path="url(#hull-clip)" filter="url(#glow)" />
  <path d="M 281.06,368.31 C 279.46,368.13 277.59,367.88 275.94,367.69 C 274.28,367.49 272.68,367.31 271.14,367.14 C 269.60,366.97 268.11,366.82 266.67,366.67 C 265.24,366.53 263.86,366.40 262.53,366.28 C 261.21,366.16 259.93,366.06 258.72,365.97 C 257.50,365.88 256.34,365.80 255.23,365.73 C 254.13,365.67 253.08,365.62 252.08,365.58 C 251.08,365.54 250.14,365.51 249.25,365.50 C 248.36,365.49 247.55,365.51 246.75,365.50 C 245.95,365.49 245.18,365.48 244.44,365.47 C 243.70,365.45 242.99,365.43 242.31,365.41 C 241.64,365.38 240.99,365.35 240.38,365.31 C 239.76,365.28 239.18,365.23 238.62,365.19 C 238.07,365.14 237.55,365.09 237.06,365.03 C 236.57,364.97 236.11,364.91 235.69,364.84 C 235.26,364.78 234.86,364.70 234.50,364.62 C 234.14,364.55 233.84,364.47 233.50,364.38 C 233.16,364.28 232.80,364.17 232.44,364.05 C 232.07,363.92 231.70,363.79 231.31,363.64 C 230.93,363.49 230.53,363.33 230.12,363.16 C 229.72,362.98 229.30,362.79 228.88,362.59 C 228.45,362.39 228.01,362.18 227.56,361.95 C 227.11,361.73 226.66,361.49 226.19,361.23 C 225.72,360.98 225.24,360.72 224.75,360.44 C 224.26,360.16 223.72,359.84 223.25,359.56 C 222.78,359.28 222.34,359.01 221.93,358.76 C 221.52,358.50 221.14,358.26 220.79,358.02 C 220.44,357.79 220.12,357.57 219.83,357.36 C 219.54,357.15 219.28,356.95 219.05,356.77 C 218.82,356.58 218.62,356.40 218.45,356.24 C 218.27,356.08 218.13,355.93 218.02,355.79 C 217.91,355.65 217.83,355.52 217.78,355.41 C 217.73,355.29 217.67,355.30 217.72,355.09 C 217.77,354.89 217.90,354.59 218.10,354.20 C 218.30,353.80 218.58,353.30 218.93,352.71 C 219.28,352.12 219.70,351.43 220.20,350.64 C 220.70,349.85 221.27,348.97 221.92,347.98 C 222.57,347.00 223.29,345.92 224.09,344.74 C 224.88,343.56 225.75,342.29 226.70,340.91 C 227.64,339.54 228.66,338.07 229.75,336.50 C 230.84,334.93 232.18,333.08 233.25,331.50 C 234.32,329.92 235.29,328.42 236.17,327.00 C 237.05,325.58 237.83,324.25 238.52,323.00 C 239.20,321.75 239.79,320.58 240.28,319.50 C 240.77,318.42 241.17,317.42 241.47,316.50 C 241.77,315.58 241.97,314.75 242.08,314.00 C 242.18,313.25 242.20,312.58 242.11,312.00 C 242.02,311.42 241.84,310.92 241.56,310.50 C 241.28,310.08 240.80,309.84 240.44,309.50 C 240.07,309.16 239.71,308.81 239.37,308.46 C 239.02,308.11 238.68,307.75 238.35,307.38 C 238.02,307.02 237.70,306.64 237.39,306.27 C 237.08,305.89 236.78,305.50 236.48,305.11 C 236.19,304.72 235.91,304.32 235.63,303.91 C 235.36,303.51 235.09,303.10 234.84,302.68 C 234.58,302.26 234.33,301.84 234.09,301.41 C 233.86,300.98 233.69,300.52 233.41,300.09 C 233.12,299.66 232.79,299.24 232.40,298.82 C 232.01,298.40 231.57,297.99 231.07,297.59 C 230.57,297.18 230.02,296.78 229.42,296.39 C 228.82,296.00 228.16,295.61 227.45,295.23 C 226.74,294.86 225.98,294.48 225.16,294.12 C 224.35,293.75 223.48,293.39 222.55,293.04 C 221.63,292.69 220.65,292.34 219.62,292.00 C 218.60,291.66 217.42,291.33 216.38,291.00 C 215.33,290.67 214.32,290.35 213.34,290.03 C 212.37,289.71 211.43,289.40 210.53,289.09 C 209.63,288.79 208.77,288.48 207.94,288.19 C 207.11,287.89 206.32,287.60 205.56,287.31 C 204.81,287.03 204.09,286.74 203.41,286.47 C 202.72,286.19 202.08,285.92 201.47,285.66 C 200.86,285.39 200.29,285.13 199.75,284.88 C 199.21,284.62 198.76,284.37 198.25,284.12 C 197.74,283.88 197.23,283.65 196.70,283.42 C 196.18,283.20 195.65,282.98 195.11,282.77 C 194.57,282.55 194.02,282.35 193.47,282.16 C 192.91,281.96 192.35,281.77 191.78,281.59 C 191.21,281.41 190.63,281.24 190.05,281.08 C 189.46,280.91 188.87,280.76 188.27,280.61 C 187.66,280.46 187.05,280.32 186.44,280.19 C 185.82,280.05 185.16,279.93 184.56,279.81 C 183.97,279.70 183.40,279.59 182.86,279.48 C 182.32,279.38 181.81,279.29 181.33,279.20 C 180.85,279.12 180.39,279.04 179.97,278.97 C 179.54,278.90 179.15,278.84 178.78,278.78 C 178.41,278.73 178.08,278.68 177.77,278.64 C 177.46,278.60 177.17,278.57 176.92,278.55 C 176.67,278.52 176.45,278.51 176.25,278.50 C 176.05,278.49 175.91,278.49 175.75,278.50 C 175.59,278.51 175.44,278.53 175.30,278.56 C 175.15,278.59 175.02,278.64 174.89,278.69 C 174.76,278.74 174.64,278.80 174.53,278.88 C 174.42,278.95 174.32,279.03 174.22,279.12 C 174.12,279.22 174.03,279.32 173.95,279.44 C 173.87,279.55 173.80,279.68 173.73,279.81 C 173.67,279.95 173.61,280.09 173.56,280.25 C 173.51,280.41 173.54,280.60 173.44,280.75 C 173.33,280.90 173.17,281.03 172.94,281.14 C 172.71,281.25 172.42,281.35 172.06,281.42 C 171.71,281.50 171.29,281.55 170.81,281.59 C 170.33,281.63 169.79,281.65 169.19,281.66 C 168.58,281.66 167.92,281.64 167.19,281.61 C 166.46,281.58 165.67,281.52 164.81,281.45 C 163.96,281.38 163.04,281.29 162.06,281.19 C 161.08,281.08 159.91,280.93 158.94,280.81 C 157.96,280.69 157.06,280.57 156.22,280.45 C 155.38,280.34 154.61,280.22 153.91,280.11 C 153.20,280.00 152.57,279.89 152.00,279.78 C 151.43,279.67 150.93,279.57 150.50,279.47 C 150.07,279.37 149.70,279.27 149.41,279.17 C 149.11,279.08 148.88,278.98 148.72,278.89 C 148.56,278.80 148.46,278.71 148.44,278.62 C 148.41,278.54 148.49,278.45 148.56,278.38 C 148.64,278.30 148.74,278.22 148.88,278.15 C 149.02,278.08 149.19,278.01 149.40,277.95 C 149.60,277.88 149.84,277.82 150.11,277.77 C 150.38,277.71 150.68,277.66 151.02,277.61 C 151.35,277.56 151.72,277.52 152.12,277.48 C 152.52,277.44 152.95,277.40 153.41,277.37 C 153.88,277.33 154.38,277.31 154.91,277.28 C 155.44,277.26 156.08,277.25 156.59,277.22 C 157.10,277.18 157.56,277.13 157.96,277.07 C 158.36,277.01 158.71,276.93 159.01,276.84 C 159.30,276.74 159.55,276.64 159.73,276.52 C 159.92,276.39 160.06,276.26 160.14,276.11 C 160.22,275.96 160.25,275.80 160.23,275.62 C 160.20,275.44 160.12,275.25 159.99,275.04 C 159.86,274.83 159.68,274.61 159.44,274.38 C 159.20,274.14 158.84,273.87 158.56,273.62 C 158.29,273.38 158.03,273.15 157.80,272.92 C 157.56,272.70 157.34,272.48 157.14,272.27 C 156.94,272.05 156.76,271.85 156.59,271.66 C 156.43,271.46 156.28,271.27 156.16,271.09 C 156.03,270.91 155.92,270.74 155.83,270.58 C 155.74,270.41 155.66,270.26 155.61,270.11 C 155.55,269.96 155.52,269.82 155.50,269.69 C 155.48,269.55 155.48,269.44 155.50,269.31 C 155.52,269.18 155.55,269.05 155.61,268.91 C 155.66,268.77 155.74,268.62 155.83,268.47 C 155.92,268.32 156.03,268.16 156.16,268.00 C 156.28,267.84 156.43,267.67 156.59,267.50 C 156.76,267.33 156.94,267.15 157.14,266.97 C 157.34,266.79 157.56,266.60 157.80,266.41 C 158.03,266.21 158.29,266.02 158.56,265.81 C 158.84,265.61 159.20,265.39 159.44,265.19 C 159.67,264.99 159.85,264.79 159.97,264.61 C 160.09,264.42 160.15,264.25 160.16,264.08 C 160.16,263.91 160.11,263.75 160.00,263.59 C 159.89,263.44 159.72,263.29 159.50,263.16 C 159.28,263.02 158.99,262.89 158.66,262.77 C 158.32,262.64 157.92,262.53 157.47,262.42 C 157.02,262.32 156.51,262.22 155.94,262.12 C 155.37,262.03 154.62,261.96 154.06,261.88 C 153.51,261.79 153.02,261.70 152.60,261.60 C 152.18,261.51 151.83,261.41 151.55,261.30 C 151.27,261.20 151.06,261.10 150.92,260.98 C 150.78,260.87 150.71,260.76 150.70,260.64 C 150.70,260.52 150.76,260.40 150.90,260.27 C 151.03,260.15 151.24,260.02 151.51,259.88 C 151.78,259.75 152.12,259.61 152.53,259.47 C 152.94,259.33 153.49,259.17 153.97,259.03 C 154.45,258.89 154.94,258.76 155.43,258.63 C 155.92,258.51 156.42,258.39 156.91,258.27 C 157.41,258.16 157.92,258.05 158.42,257.95 C 158.93,257.85 159.44,257.76 159.95,257.67 C 160.47,257.58 160.99,257.50 161.51,257.43 C 162.03,257.36 162.56,257.29 163.09,257.23 C 163.62,257.17 164.15,257.11 164.69,257.06 C 165.23,257.01 165.78,256.97 166.31,256.94 C 166.84,256.91 167.36,256.89 167.86,256.89 C 168.36,256.89 168.85,256.90 169.33,256.92 C 169.80,256.95 170.27,256.98 170.72,257.03 C 171.17,257.08 171.61,257.14 172.03,257.22 C 172.46,257.29 172.87,257.38 173.27,257.48 C 173.66,257.59 174.05,257.70 174.42,257.83 C 174.79,257.96 175.15,258.10 175.50,258.25 C 175.85,258.40 176.16,258.60 176.50,258.75 C 176.84,258.90 177.19,259.04 177.55,259.16 C 177.90,259.28 178.27,259.38 178.64,259.47 C 179.01,259.56 179.39,259.63 179.78,259.69 C 180.17,259.74 180.57,259.79 180.97,259.81 C 181.37,259.84 181.78,259.85 182.20,259.84 C 182.62,259.84 183.05,259.82 183.48,259.78 C 183.92,259.74 184.36,259.69 184.81,259.62 C 185.26,259.56 185.65,259.50 186.19,259.38 C 186.73,259.25 187.35,259.09 188.05,258.88 C 188.76,258.68 189.55,258.43 190.41,258.15 C 191.28,257.86 192.23,257.54 193.27,257.17 C 194.30,256.81 195.41,256.40 196.61,255.95 C 197.81,255.51 199.08,255.02 200.45,254.49 C 201.81,253.96 203.25,253.40 204.77,252.79 C 206.30,252.18 207.90,251.53 209.59,250.84 C 211.28,250.15 213.24,249.36 214.91,248.66 C 216.58,247.95 218.15,247.26 219.62,246.60 C 221.09,245.94 222.46,245.30 223.73,244.68 C 225.00,244.06 226.17,243.46 227.23,242.89 C 228.30,242.32 229.27,241.76 230.14,241.23 C 231.01,240.70 231.78,240.20 232.45,239.71 C 233.11,239.23 233.68,238.76 234.15,238.32 C 234.62,237.88 234.98,237.46 235.25,237.06 C 235.52,236.67 235.57,236.31 235.75,235.94 C 235.93,235.57 236.11,235.20 236.31,234.84 C 236.51,234.48 236.72,234.13 236.94,233.78 C 237.16,233.43 237.39,233.09 237.62,232.75 C 237.86,232.41 238.11,232.08 238.38,231.75 C 238.64,231.42 238.91,231.10 239.19,230.78 C 239.47,230.46 239.76,230.15 240.06,229.84 C 240.36,229.54 240.68,229.23 241.00,228.94 C 241.32,228.64 241.69,228.34 242.00,228.06 C 242.31,227.78 242.60,227.52 242.88,227.27 C 243.15,227.01 243.40,226.77 243.62,226.55 C 243.85,226.32 244.06,226.11 244.25,225.91 C 244.44,225.71 244.60,225.52 244.75,225.34 C 244.90,225.17 245.02,225.01 245.12,224.86 C 245.23,224.71 245.31,224.58 245.38,224.45 C 245.44,224.33 245.48,224.22 245.50,224.12 C 245.52,224.03 245.57,224.05 245.50,223.88 C 245.43,223.70 245.28,223.43 245.06,223.06 C 244.84,222.70 244.55,222.24 244.19,221.69 C 243.82,221.14 243.39,220.49 242.88,219.75 C 242.36,219.01 241.78,218.18 241.12,217.25 C 240.47,216.32 239.74,215.30 238.94,214.19 C 238.14,213.07 237.26,211.86 236.31,210.56 C 235.36,209.26 234.34,207.86 233.25,206.38 C 232.16,204.89 230.84,203.12 229.75,201.62 C 228.66,200.13 227.64,198.74 226.70,197.43 C 225.75,196.12 224.88,194.91 224.09,193.79 C 223.29,192.67 222.57,191.64 221.92,190.70 C 221.27,189.77 220.70,188.92 220.20,188.17 C 219.70,187.42 219.28,186.76 218.93,186.20 C 218.58,185.63 218.30,185.15 218.10,184.77 C 217.90,184.39 217.77,184.10 217.72,183.91 C 217.67,183.71 217.73,183.71 217.78,183.59 C 217.83,183.48 217.92,183.35 218.04,183.21 C 218.16,183.07 218.31,182.92 218.49,182.76 C 218.68,182.60 218.89,182.42 219.14,182.23 C 219.39,182.05 219.67,181.85 219.98,181.64 C 220.30,181.43 220.64,181.21 221.02,180.98 C 221.40,180.74 221.81,180.50 222.26,180.24 C 222.70,179.99 223.18,179.72 223.69,179.44 C 224.20,179.16 224.78,178.84 225.31,178.56 C 225.84,178.28 226.36,178.02 226.88,177.77 C 227.39,177.51 227.89,177.27 228.38,177.05 C 228.86,176.82 229.34,176.61 229.81,176.41 C 230.28,176.21 230.74,176.02 231.19,175.84 C 231.64,175.67 232.07,175.51 232.50,175.36 C 232.93,175.21 233.34,175.08 233.75,174.95 C 234.16,174.83 234.55,174.72 234.94,174.62 C 235.32,174.53 235.70,174.45 236.06,174.38 C 236.43,174.30 236.78,174.23 237.12,174.17 C 237.47,174.11 237.80,174.06 238.12,174.02 C 238.45,173.97 238.76,173.93 239.06,173.91 C 239.36,173.88 239.66,173.86 239.94,173.84 C 240.22,173.83 240.49,173.83 240.75,173.83 C 241.01,173.83 241.26,173.84 241.50,173.86 C 241.74,173.88 241.97,173.90 242.19,173.94 C 242.41,173.97 242.48,174.04 242.81,174.06 C 243.15,174.09 243.61,174.10 244.20,174.09 C 244.79,174.09 245.51,174.07 246.36,174.03 C 247.21,173.99 248.18,173.94 249.28,173.88 C 250.38,173.81 251.61,173.72 252.97,173.62 C 254.33,173.53 255.81,173.41 257.42,173.28 C 259.03,173.15 260.77,173.01 262.64,172.84 C 264.51,172.68 266.50,172.51 268.62,172.31 C 270.75,172.12 273.26,171.87 275.38,171.69 C 277.49,171.50 279.47,171.34 281.31,171.20 C 283.16,171.07 284.86,170.95 286.44,170.86 C 288.01,170.77 289.45,170.70 290.75,170.66 C 292.05,170.61 293.22,170.59 294.25,170.59 C 295.28,170.60 296.18,170.62 296.94,170.67 C 297.70,170.72 298.32,170.79 298.81,170.89 C 299.30,170.99 299.66,171.11 299.88,171.25 C 300.09,171.39 300.12,171.59 300.12,171.75 C 300.13,171.91 300.07,172.05 299.92,172.19 C 299.78,172.32 299.56,172.45 299.27,172.56 C 298.97,172.68 298.60,172.78 298.16,172.88 C 297.71,172.97 297.19,173.05 296.59,173.12 C 296.00,173.20 295.33,173.26 294.58,173.31 C 293.83,173.36 293.01,173.41 292.11,173.44 C 291.21,173.47 290.24,173.49 289.19,173.50 C 288.14,173.51 286.89,173.49 285.81,173.50 C 284.73,173.51 283.70,173.52 282.72,173.55 C 281.73,173.57 280.80,173.60 279.91,173.64 C 279.02,173.68 278.17,173.73 277.38,173.78 C 276.58,173.84 275.83,173.90 275.12,173.97 C 274.42,174.04 273.77,174.12 273.16,174.20 C 272.55,174.29 271.98,174.38 271.47,174.48 C 270.95,174.59 270.48,174.70 270.06,174.81 C 269.64,174.93 269.32,175.07 268.94,175.19 C 268.56,175.30 268.18,175.41 267.80,175.52 C 267.41,175.62 267.03,175.71 266.64,175.80 C 266.25,175.88 265.86,175.96 265.47,176.03 C 265.08,176.10 264.68,176.16 264.28,176.22 C 263.88,176.27 263.48,176.32 263.08,176.36 C 262.67,176.40 262.27,176.43 261.86,176.45 C 261.45,176.48 261.04,176.49 260.62,176.50 C 260.21,176.51 259.78,176.49 259.38,176.50 C 258.97,176.51 258.58,176.54 258.20,176.57 C 257.81,176.61 257.44,176.65 257.09,176.71 C 256.73,176.77 256.38,176.84 256.05,176.92 C 255.71,177.00 255.39,177.10 255.08,177.20 C 254.77,177.31 254.47,177.43 254.18,177.55 C 253.89,177.68 253.62,177.82 253.35,177.98 C 253.09,178.13 252.83,178.29 252.59,178.47 C 252.35,178.64 251.98,178.75 251.91,179.03 C 251.83,179.32 251.91,179.70 252.14,180.17 C 252.37,180.65 252.76,181.22 253.30,181.89 C 253.84,182.56 254.53,183.33 255.38,184.19 C 256.22,185.05 257.22,186.01 258.38,187.06 C 259.53,188.12 260.84,189.27 262.30,190.52 C 263.76,191.76 265.37,193.11 267.14,194.55 C 268.91,195.99 270.83,197.52 272.91,199.16 C 274.98,200.79 277.48,202.72 279.59,204.34 C 281.71,205.96 283.72,207.48 285.62,208.88 C 287.51,210.29 289.30,211.58 290.98,212.77 C 292.65,213.96 294.22,215.04 295.67,216.02 C 297.13,216.99 298.47,217.85 299.70,218.61 C 300.94,219.37 302.06,220.01 303.07,220.55 C 304.08,221.10 304.98,221.53 305.77,221.85 C 306.56,222.18 307.24,222.39 307.81,222.50 C 308.38,222.61 308.70,222.49 309.19,222.50 C 309.68,222.51 310.21,222.53 310.77,222.56 C 311.33,222.59 311.92,222.64 312.55,222.69 C 313.17,222.74 313.84,222.80 314.53,222.88 C 315.23,222.95 315.96,223.03 316.72,223.12 C 317.48,223.22 318.28,223.32 319.11,223.44 C 319.94,223.55 320.80,223.68 321.70,223.81 C 322.60,223.95 323.53,224.09 324.50,224.25 C 325.47,224.41 326.47,224.68 327.50,224.75 C 328.53,224.82 329.59,224.79 330.67,224.67 C 331.76,224.55 332.87,224.33 334.02,224.02 C 335.16,223.70 336.33,223.29 337.53,222.78 C 338.73,222.27 339.96,221.67 341.22,220.97 C 342.48,220.27 343.76,219.47 345.08,218.58 C 346.39,217.68 347.74,216.70 349.11,215.61 C 350.48,214.52 351.88,213.34 353.31,212.06 C 354.74,210.78 356.30,209.23 357.69,207.94 C 359.08,206.65 360.39,205.44 361.64,204.31 C 362.89,203.19 364.07,202.15 365.17,201.19 C 366.28,200.23 367.32,199.35 368.28,198.56 C 369.25,197.77 370.14,197.06 370.97,196.44 C 371.79,195.81 372.55,195.27 373.23,194.81 C 373.92,194.35 374.53,193.98 375.08,193.69 C 375.62,193.40 376.10,193.19 376.50,193.06 C 376.90,192.94 377.19,192.97 377.50,192.94 C 377.81,192.91 378.10,192.89 378.37,192.88 C 378.63,192.88 378.88,192.88 379.10,192.90 C 379.32,192.92 379.52,192.94 379.70,192.98 C 379.88,193.02 380.04,193.08 380.17,193.14 C 380.31,193.20 380.42,193.28 380.51,193.37 C 380.60,193.45 380.67,193.55 380.71,193.66 C 380.76,193.77 380.78,193.90 380.78,194.03 C 380.78,194.17 380.80,194.25 380.72,194.47 C 380.64,194.69 380.51,194.98 380.32,195.35 C 380.13,195.72 379.89,196.16 379.59,196.68 C 379.29,197.20 378.93,197.79 378.52,198.45 C 378.10,199.12 377.63,199.86 377.11,200.67 C 376.58,201.49 376.00,202.37 375.37,203.34 C 374.73,204.30 374.04,205.33 373.29,206.45 C 372.54,207.56 371.74,208.74 370.88,210.00 C 370.01,211.26 368.90,212.74 368.12,214.00 C 367.35,215.26 366.73,216.45 366.24,217.57 C 365.76,218.69 365.42,219.74 365.23,220.71 C 365.03,221.69 364.98,222.59 365.08,223.42 C 365.17,224.25 365.41,225.01 365.80,225.70 C 366.18,226.39 366.71,227.01 367.38,227.55 C 368.06,228.10 368.87,228.57 369.84,228.98 C 370.80,229.38 371.90,229.71 373.16,229.97 C 374.41,230.23 376.03,230.35 377.34,230.53 C 378.66,230.71 379.89,230.89 381.03,231.06 C 382.18,231.23 383.24,231.40 384.22,231.56 C 385.20,231.72 386.09,231.88 386.91,232.03 C 387.72,232.18 388.45,232.33 389.09,232.47 C 389.74,232.61 390.30,232.74 390.78,232.88 C 391.26,233.01 391.66,233.13 391.97,233.25 C 392.28,233.37 392.51,233.48 392.66,233.59 C 392.80,233.70 392.79,233.80 392.84,233.91 C 392.90,234.01 392.95,234.12 392.99,234.23 C 393.04,234.33 393.07,234.44 393.10,234.55 C 393.13,234.67 393.15,234.78 393.17,234.89 C 393.19,235.00 393.20,235.12 393.20,235.23 C 393.21,235.35 393.20,235.47 393.20,235.59 C 393.19,235.70 393.17,235.82 393.15,235.95 C 393.13,236.07 393.10,236.19 393.06,236.31 C 393.03,236.44 392.97,236.57 392.94,236.69 C 392.90,236.81 392.88,236.92 392.86,237.03 C 392.84,237.14 392.83,237.24 392.83,237.34 C 392.83,237.44 392.83,237.54 392.84,237.62 C 392.86,237.71 392.88,237.80 392.91,237.88 C 392.93,237.95 392.97,238.03 393.02,238.09 C 393.06,238.16 393.11,238.22 393.17,238.28 C 393.23,238.34 393.30,238.39 393.38,238.44 C 393.45,238.48 393.55,238.51 393.62,238.56 C 393.70,238.61 393.76,238.68 393.81,238.75 C 393.86,238.82 393.91,238.91 393.94,239.00 C 393.97,239.09 393.99,239.20 394.00,239.31 C 394.01,239.43 394.01,239.55 394.00,239.69 C 393.99,239.82 393.97,239.97 393.94,240.12 C 393.91,240.28 393.86,240.45 393.81,240.62 C 393.76,240.80 393.70,240.99 393.62,241.19 C 393.55,241.39 393.46,241.62 393.38,241.81 C 393.29,242.01 393.20,242.19 393.10,242.37 C 393.01,242.54 392.91,242.70 392.80,242.85 C 392.70,243.00 392.60,243.14 392.48,243.27 C 392.37,243.39 392.26,243.51 392.14,243.61 C 392.02,243.71 391.90,243.80 391.77,243.88 C 391.65,243.96 391.52,244.03 391.38,244.09 C 391.25,244.14 391.11,244.19 390.97,244.22 C 390.83,244.25 390.68,244.25 390.53,244.28 C 390.38,244.31 390.24,244.35 390.09,244.40 C 389.94,244.45 389.79,244.50 389.63,244.57 C 389.48,244.64 389.33,244.71 389.17,244.80 C 389.02,244.88 388.86,244.98 388.70,245.08 C 388.55,245.18 388.39,245.29 388.23,245.41 C 388.07,245.54 387.90,245.67 387.74,245.80 C 387.58,245.94 387.42,246.09 387.25,246.25 C 387.08,246.41 387.03,246.59 386.75,246.75 C 386.47,246.91 386.09,247.07 385.59,247.22 C 385.10,247.37 384.49,247.52 383.78,247.66 C 383.07,247.80 382.24,247.93 381.31,248.06 C 380.38,248.19 379.34,248.32 378.19,248.44 C 377.04,248.56 375.78,248.67 374.41,248.78 C 373.04,248.89 371.56,248.99 369.97,249.09 C 368.38,249.19 366.68,249.29 364.88,249.38 C 363.07,249.46 360.95,249.54 359.12,249.62 C 357.30,249.71 355.57,249.80 353.92,249.89 C 352.28,249.98 350.73,250.08 349.27,250.17 C 347.80,250.27 346.43,250.37 345.16,250.47 C 343.88,250.57 342.69,250.67 341.59,250.78 C 340.50,250.89 339.49,251.00 338.58,251.11 C 337.66,251.22 336.84,251.34 336.11,251.45 C 335.38,251.57 334.74,251.69 334.19,251.81 C 333.64,251.93 333.24,252.07 332.81,252.19 C 332.38,252.31 331.98,252.43 331.61,252.55 C 331.24,252.66 330.89,252.78 330.58,252.89 C 330.26,253.00 329.98,253.11 329.72,253.22 C 329.46,253.33 329.23,253.43 329.03,253.53 C 328.83,253.63 328.66,253.73 328.52,253.83 C 328.37,253.92 328.26,254.02 328.17,254.11 C 328.09,254.20 328.03,254.29 328.00,254.38 C 327.97,254.46 327.99,254.54 328.00,254.62 C 328.01,254.71 328.03,254.78 328.06,254.86 C 328.09,254.93 328.14,255.01 328.19,255.08 C 328.24,255.15 328.30,255.22 328.38,255.28 C 328.45,255.35 328.53,255.41 328.62,255.47 C 328.72,255.53 328.82,255.59 328.94,255.64 C 329.05,255.70 329.18,255.75 329.31,255.80 C 329.45,255.85 329.59,255.89 329.75,255.94 C 329.91,255.98 330.04,256.02 330.25,256.06 C 330.46,256.11 330.72,256.16 331.02,256.22 C 331.32,256.28 331.66,256.34 332.05,256.41 C 332.43,256.47 332.87,256.55 333.34,256.62 C 333.82,256.70 334.34,256.79 334.91,256.88 C 335.47,256.96 336.08,257.06 336.73,257.16 C 337.39,257.26 338.09,257.36 338.83,257.47 C 339.57,257.58 340.36,257.69 341.19,257.81 C 342.02,257.93 342.99,258.06 343.81,258.19 C 344.64,258.32 345.42,258.46 346.15,258.60 C 346.88,258.75 347.56,258.90 348.20,259.05 C 348.83,259.21 349.42,259.38 349.95,259.55 C 350.49,259.72 350.98,259.89 351.42,260.08 C 351.86,260.26 352.26,260.45 352.60,260.65 C 352.95,260.85 353.24,261.05 353.49,261.26 C 353.74,261.47 353.94,261.68 354.09,261.91 C 354.25,262.13 354.31,262.36 354.41,262.59 C 354.50,262.83 354.60,263.08 354.68,263.34 C 354.76,263.59 354.84,263.86 354.91,264.13 C 354.99,264.41 355.05,264.69 355.11,264.98 C 355.17,265.28 355.22,265.58 355.27,265.89 C 355.31,266.20 355.35,266.52 355.38,266.85 C 355.42,267.18 355.44,267.52 355.46,267.87 C 355.48,268.21 355.49,268.57 355.50,268.94 C 355.51,269.30 355.51,269.70 355.50,270.06 C 355.49,270.43 355.48,270.78 355.47,271.12 C 355.45,271.47 355.43,271.80 355.41,272.12 C 355.38,272.45 355.35,272.76 355.31,273.06 C 355.28,273.36 355.23,273.66 355.19,273.94 C 355.14,274.22 355.09,274.49 355.03,274.75 C 354.97,275.01 354.91,275.26 354.84,275.50 C 354.78,275.74 354.70,275.97 354.62,276.19 C 354.55,276.41 354.46,276.61 354.38,276.81 C 354.29,277.01 354.20,277.20 354.12,277.38 C 354.03,277.56 353.94,277.74 353.85,277.90 C 353.76,278.06 353.67,278.21 353.58,278.36 C 353.49,278.50 353.39,278.64 353.30,278.77 C 353.20,278.89 353.11,279.01 353.01,279.12 C 352.91,279.23 352.81,279.32 352.71,279.41 C 352.61,279.50 352.51,279.58 352.41,279.66 C 352.30,279.73 352.25,279.78 352.09,279.84 C 351.94,279.91 351.73,279.98 351.46,280.05 C 351.20,280.13 350.88,280.21 350.51,280.29 C 350.14,280.37 349.71,280.46 349.23,280.55 C 348.76,280.64 348.23,280.73 347.64,280.83 C 347.06,280.93 346.42,281.03 345.73,281.13 C 345.04,281.24 344.29,281.35 343.49,281.46 C 342.69,281.57 341.84,281.69 340.94,281.81 C 340.03,281.93 338.96,282.07 338.06,282.19 C 337.16,282.31 336.32,282.43 335.54,282.54 C 334.76,282.65 334.03,282.76 333.37,282.87 C 332.70,282.97 332.10,283.07 331.55,283.17 C 331.00,283.27 330.51,283.36 330.08,283.45 C 329.65,283.54 329.27,283.63 328.96,283.71 C 328.65,283.79 328.39,283.87 328.20,283.95 C 328.00,284.02 327.86,284.09 327.78,284.16 C 327.70,284.22 327.69,284.27 327.72,284.34 C 327.74,284.41 327.82,284.49 327.94,284.58 C 328.06,284.66 328.22,284.76 328.44,284.86 C 328.65,284.96 328.91,285.07 329.22,285.19 C 329.53,285.30 329.88,285.43 330.28,285.56 C 330.68,285.70 331.13,285.84 331.62,285.98 C 332.12,286.13 332.66,286.29 333.25,286.45 C 333.84,286.62 334.47,286.79 335.16,286.97 C 335.84,287.15 336.55,287.35 337.34,287.53 C 338.14,287.71 338.99,287.89 339.91,288.05 C 340.83,288.22 341.82,288.38 342.87,288.54 C 343.92,288.69 345.03,288.84 346.20,288.98 C 347.38,289.13 348.62,289.26 349.92,289.39 C 351.23,289.52 352.59,289.64 354.02,289.76 C 355.45,289.87 356.95,289.98 358.51,290.09 C 360.07,290.19 361.69,290.29 363.38,290.38 C 365.06,290.46 366.97,290.53 368.62,290.62 C 370.28,290.72 371.85,290.82 373.32,290.93 C 374.79,291.04 376.17,291.16 377.46,291.29 C 378.75,291.42 379.94,291.56 381.05,291.70 C 382.15,291.85 383.16,292.01 384.08,292.17 C 385.00,292.34 385.82,292.51 386.55,292.70 C 387.29,292.88 387.93,293.07 388.48,293.27 C 389.02,293.48 389.48,293.69 389.84,293.91 C 390.21,294.13 390.40,294.37 390.66,294.59 C 390.91,294.82 391.15,295.03 391.38,295.24 C 391.61,295.45 391.82,295.65 392.02,295.85 C 392.22,296.05 392.41,296.24 392.58,296.42 C 392.75,296.61 392.90,296.78 393.05,296.95 C 393.19,297.12 393.32,297.29 393.43,297.45 C 393.54,297.60 393.64,297.75 393.73,297.90 C 393.81,298.04 393.88,298.18 393.94,298.31 C 393.99,298.44 394.03,298.57 394.06,298.69 C 394.10,298.81 394.12,298.92 394.14,299.03 C 394.16,299.14 394.17,299.24 394.17,299.34 C 394.17,299.44 394.17,299.54 394.16,299.62 C 394.14,299.71 394.12,299.80 394.09,299.88 C 394.07,299.95 394.03,300.03 393.98,300.09 C 393.94,300.16 393.89,300.22 393.83,300.28 C 393.77,300.34 393.70,300.39 393.62,300.44 C 393.55,300.48 393.45,300.52 393.38,300.56 C 393.30,300.61 393.23,300.66 393.17,300.72 C 393.11,300.78 393.06,300.84 393.02,300.91 C 392.97,300.97 392.93,301.05 392.91,301.12 C 392.88,301.20 392.86,301.29 392.84,301.38 C 392.83,301.46 392.83,301.56 392.83,301.66 C 392.83,301.76 392.84,301.86 392.86,301.97 C 392.88,302.08 392.90,302.19 392.94,302.31 C 392.97,302.43 393.03,302.56 393.06,302.69 C 393.10,302.81 393.13,302.93 393.15,303.05 C 393.17,303.18 393.19,303.30 393.20,303.41 C 393.20,303.53 393.21,303.65 393.20,303.77 C 393.20,303.88 393.19,304.00 393.17,304.11 C 393.15,304.22 393.13,304.33 393.10,304.45 C 393.07,304.56 393.04,304.67 392.99,304.77 C 392.95,304.88 392.90,304.99 392.84,305.09 C 392.79,305.20 392.80,305.30 392.66,305.41 C 392.51,305.52 392.28,305.63 391.97,305.75 C 391.66,305.87 391.26,305.99 390.78,306.12 C 390.30,306.26 389.74,306.39 389.09,306.53 C 388.45,306.67 387.72,306.82 386.91,306.97 C 386.09,307.12 385.20,307.28 384.22,307.44 C 383.24,307.60 382.18,307.77 381.03,307.94 C 379.89,308.11 378.66,308.29 377.34,308.47 C 376.03,308.65 374.40,308.76 373.16,309.03 C 371.91,309.30 370.81,309.65 369.86,310.08 C 368.91,310.51 368.11,311.02 367.45,311.61 C 366.80,312.20 366.29,312.87 365.94,313.62 C 365.58,314.38 365.37,315.21 365.31,316.12 C 365.25,317.04 365.34,318.03 365.58,319.11 C 365.82,320.18 366.20,321.34 366.73,322.58 C 367.27,323.82 367.95,325.13 368.78,326.53 C 369.61,327.93 370.82,329.58 371.72,330.97 C 372.62,332.36 373.43,333.65 374.16,334.85 C 374.90,336.05 375.55,337.16 376.12,338.18 C 376.69,339.20 377.17,340.12 377.58,340.95 C 377.98,341.79 378.31,342.52 378.55,343.17 C 378.79,343.82 378.95,344.37 379.02,344.84 C 379.10,345.30 379.10,345.67 379.01,345.95 C 378.92,346.22 378.75,346.41 378.50,346.50 C 378.25,346.59 377.91,346.59 377.50,346.50 C 377.09,346.41 376.61,346.23 376.06,345.97 C 375.51,345.70 374.89,345.35 374.19,344.91 C 373.49,344.46 372.72,343.93 371.88,343.31 C 371.03,342.69 370.11,341.98 369.12,341.19 C 368.14,340.39 367.07,339.51 365.94,338.53 C 364.80,337.56 363.59,336.49 362.31,335.34 C 361.03,334.19 359.68,332.95 358.25,331.62 C 356.82,330.30 355.20,328.69 353.75,327.38 C 352.30,326.06 350.89,324.84 349.53,323.72 C 348.17,322.60 346.86,321.58 345.59,320.66 C 344.33,319.73 343.11,318.91 341.94,318.19 C 340.77,317.46 339.64,316.84 338.56,316.31 C 337.48,315.79 336.45,315.36 335.47,315.03 C 334.48,314.70 333.55,314.47 332.66,314.34 C 331.77,314.21 330.92,314.18 330.12,314.25 C 329.33,314.32 328.62,314.59 327.88,314.75 C 327.13,314.91 326.38,315.05 325.64,315.19 C 324.90,315.32 324.16,315.45 323.42,315.56 C 322.68,315.68 321.95,315.78 321.22,315.88 C 320.49,315.97 319.76,316.05 319.03,316.12 C 318.30,316.20 317.58,316.26 316.86,316.31 C 316.14,316.36 315.42,316.41 314.70,316.44 C 313.99,316.47 313.27,316.49 312.56,316.50 C 311.85,316.51 311.24,316.39 310.44,316.50 C 309.63,316.61 308.74,316.82 307.74,317.15 C 306.75,317.47 305.66,317.90 304.48,318.45 C 303.29,318.99 302.01,319.63 300.64,320.39 C 299.27,321.15 297.80,322.01 296.23,322.98 C 294.67,323.96 293.01,325.04 291.26,326.23 C 289.50,327.42 287.65,328.71 285.71,330.12 C 283.77,331.52 281.73,333.04 279.59,334.66 C 277.46,336.28 274.99,338.21 272.91,339.84 C 270.82,341.47 268.88,343.01 267.08,344.44 C 265.28,345.87 263.62,347.20 262.11,348.44 C 260.60,349.67 259.23,350.81 258.00,351.84 C 256.77,352.88 255.69,353.82 254.75,354.66 C 253.81,355.49 253.01,356.23 252.36,356.88 C 251.71,357.52 251.20,358.06 250.83,358.50 C 250.46,358.94 250.24,359.29 250.16,359.53 C 250.08,359.78 250.21,359.82 250.34,359.97 C 250.48,360.12 250.68,360.27 250.95,360.43 C 251.21,360.59 251.55,360.75 251.96,360.91 C 252.37,361.08 252.85,361.25 253.39,361.42 C 253.94,361.60 254.55,361.77 255.23,361.95 C 255.92,362.13 256.67,362.32 257.49,362.51 C 258.31,362.70 259.20,362.89 260.16,363.09 C 261.12,363.28 262.15,363.48 263.25,363.69 C 264.35,363.89 265.60,364.12 266.75,364.31 C 267.90,364.51 269.04,364.68 270.16,364.84 C 271.28,365.01 272.38,365.15 273.47,365.28 C 274.56,365.41 275.63,365.53 276.69,365.62 C 277.74,365.72 278.79,365.81 279.81,365.88 C 280.84,365.94 281.85,365.99 282.84,366.03 C 283.84,366.07 284.82,366.09 285.78,366.09 C 286.74,366.10 287.69,366.09 288.62,366.06 C 289.56,366.04 290.52,365.96 291.38,365.94 C 292.23,365.91 293.02,365.90 293.75,365.91 C 294.48,365.91 295.15,365.93 295.75,365.97 C 296.35,366.01 296.90,366.06 297.38,366.12 C 297.85,366.19 298.27,366.28 298.62,366.38 C 298.98,366.47 299.27,366.59 299.50,366.72 C 299.73,366.85 299.90,366.99 300.00,367.16 C 300.10,367.32 300.15,367.49 300.12,367.69 C 300.10,367.88 300.06,368.13 299.88,368.31 C 299.69,368.49 299.40,368.65 299.02,368.78 C 298.63,368.91 298.14,369.02 297.55,369.09 C 296.96,369.17 296.26,369.22 295.47,369.25 C 294.67,369.28 293.78,369.28 292.78,369.25 C 291.78,369.22 290.68,369.17 289.48,369.09 C 288.28,369.02 286.98,368.91 285.58,368.78 C 284.17,368.65 282.67,368.49 281.06,368.31 Z" fill="none" stroke="currentColor" stroke-width="1.5" stroke-linejoin="round" stroke-linecap="round" filter="url(#glow)" />
</svg>