<svg xmlns="http://www.w3.org/2000/svg" width="512" height="512" viewBox="132.49 191.65 221.48 125.29" preserveAspectRatio="xMidYMid meet">
  <defs>
    <filter id="glow" x="-30%" y="-30%" width="160%" height="160%">
      <feGaussianBlur in="SourceGraphic" stdDeviation="2.4" result="blur" />
      <feMerge>
        <feMergeNode in="blur" />
        <feMergeNode in="SourceGraphic" />
      </feMerge>
    </filter>
    <clipPath id="hull-clip">
      <path d="M 175.69,306.50 C 175.54,306.51 175.48,306.53 175.31,306.50 C 175.15,306.47 174.94,306.42 174.69,306.34 C 174.44,306.27 174.15,306.16 173.81,306.03 C 173.48,305.90 173.10,305.74 172.69,305.56 C 172.27,305.38 171.81,305.17 171.31,304.94 C 170.81,304.70 170.27,304.44 169.69,304.16 C 169.10,303.87 168.48,303.56 167.81,303.22 C 167.15,302.88 166.44,302.52 165.69,302.12 C 164.94,301.73 164.09,301.30 163.31,300.88 C 162.54,300.45 161.78,300.03 161.04,299.60 C 160.30,299.17 159.57,298.74 158.87,298.30 C 158.16,297.87 157.47,297.43 156.80,296.98 C 156.12,296.54 155.47,296.09 154.83,295.64 C 154.19,295.19 153.57,294.73 152.96,294.27 C 152.36,293.81 151.77,293.35 151.20,292.88 C 150.62,292.42 150.07,291.94 149.53,291.47 C 148.99,290.99 148.45,290.49 147.97,290.03 C 147.48,289.57 147.03,289.12 146.62,288.70 C 146.20,288.27 145.82,287.86 145.48,287.46 C 145.13,287.07 144.82,286.69 144.55,286.33 C 144.27,285.97 144.03,285.62 143.83,285.30 C 143.62,284.97 143.45,284.66 143.32,284.37 C 143.19,284.07 143.09,283.80 143.02,283.54 C 142.96,283.28 142.93,283.04 142.94,282.81 C 142.94,282.59 143.02,282.39 143.06,282.19 C 143.11,281.99 143.16,281.79 143.21,281.60 C 143.26,281.41 143.32,281.23 143.38,281.05 C 143.44,280.88 143.51,280.71 143.58,280.55 C 143.65,280.38 143.72,280.23 143.80,280.08 C 143.87,279.93 143.95,279.79 144.04,279.65 C 144.12,279.51 144.21,279.38 144.30,279.26 C 144.40,279.13 144.49,279.02 144.59,278.91 C 144.69,278.80 144.76,278.69 144.91,278.59 C 145.06,278.49 145.26,278.40 145.50,278.31 C 145.74,278.22 146.04,278.14 146.38,278.06 C 146.71,277.98 147.10,277.91 147.53,277.84 C 147.96,277.78 148.44,277.71 148.97,277.66 C 149.49,277.60 150.07,277.55 150.69,277.50 C 151.31,277.45 151.97,277.41 152.69,277.38 C 153.40,277.34 154.16,277.31 154.97,277.28 C 155.78,277.26 156.73,277.24 157.53,277.22 C 158.33,277.19 159.08,277.16 159.77,277.12 C 160.46,277.09 161.09,277.05 161.67,277.00 C 162.25,276.95 162.78,276.90 163.25,276.84 C 163.72,276.79 164.14,276.72 164.50,276.66 C 164.86,276.59 165.17,276.52 165.42,276.44 C 165.67,276.36 165.87,276.28 166.02,276.19 C 166.16,276.10 166.25,276.01 166.28,275.91 C 166.32,275.81 166.29,275.72 166.22,275.59 C 166.15,275.47 166.04,275.32 165.88,275.16 C 165.71,274.99 165.51,274.80 165.25,274.59 C 164.99,274.39 164.69,274.16 164.34,273.91 C 163.99,273.66 163.60,273.39 163.16,273.09 C 162.71,272.80 162.22,272.49 161.69,272.16 C 161.15,271.82 160.57,271.47 159.94,271.09 C 159.31,270.72 158.63,270.32 157.91,269.91 C 157.18,269.49 156.30,269.01 155.59,268.59 C 154.88,268.18 154.24,267.79 153.65,267.41 C 153.06,267.04 152.54,266.69 152.07,266.37 C 151.61,266.04 151.20,265.74 150.86,265.45 C 150.52,265.17 150.24,264.91 150.02,264.67 C 149.80,264.43 149.64,264.22 149.54,264.02 C 149.44,263.83 149.40,263.66 149.43,263.51 C 149.45,263.36 149.54,263.23 149.69,263.12 C 149.83,263.02 150.13,262.96 150.31,262.88 C 150.49,262.79 150.64,262.70 150.77,262.61 C 150.89,262.52 150.98,262.42 151.05,262.33 C 151.11,262.23 151.15,262.13 151.16,262.03 C 151.16,261.93 151.14,261.83 151.09,261.72 C 151.04,261.61 150.97,261.50 150.86,261.39 C 150.75,261.28 150.62,261.16 150.45,261.05 C 150.29,260.93 150.10,260.81 149.88,260.69 C 149.65,260.57 149.36,260.46 149.12,260.31 C 148.89,260.17 148.67,260.01 148.47,259.83 C 148.27,259.65 148.08,259.45 147.91,259.23 C 147.73,259.02 147.58,258.78 147.44,258.53 C 147.30,258.28 147.17,258.01 147.06,257.72 C 146.95,257.43 146.86,257.12 146.78,256.80 C 146.70,256.47 146.64,256.13 146.59,255.77 C 146.55,255.40 146.52,255.02 146.50,254.62 C 146.48,254.23 146.48,253.77 146.50,253.38 C 146.52,252.98 146.55,252.60 146.59,252.23 C 146.64,251.87 146.70,251.53 146.78,251.20 C 146.86,250.88 146.95,250.57 147.06,250.28 C 147.17,249.99 147.30,249.72 147.44,249.47 C 147.58,249.22 147.73,248.98 147.91,248.77 C 148.08,248.55 148.27,248.35 148.47,248.17 C 148.67,247.99 148.89,247.83 149.12,247.69 C 149.36,247.54 149.65,247.43 149.88,247.31 C 150.10,247.19 150.29,247.07 150.45,246.95 C 150.62,246.84 150.75,246.72 150.86,246.61 C 150.97,246.50 151.04,246.39 151.09,246.28 C 151.14,246.17 151.16,246.07 151.16,245.97 C 151.15,245.87 151.11,245.77 151.05,245.67 C 150.98,245.58 150.89,245.48 150.77,245.39 C 150.64,245.30 150.49,245.21 150.31,245.12 C 150.13,245.04 149.83,244.98 149.69,244.88 C 149.54,244.77 149.46,244.64 149.44,244.48 C 149.42,244.33 149.46,244.15 149.56,243.95 C 149.67,243.75 149.83,243.53 150.06,243.28 C 150.29,243.03 150.58,242.76 150.94,242.47 C 151.29,242.17 151.71,241.86 152.19,241.52 C 152.67,241.17 153.21,240.81 153.81,240.42 C 154.42,240.03 155.08,239.62 155.81,239.19 C 156.54,238.75 157.45,238.25 158.19,237.81 C 158.93,237.38 159.62,236.96 160.26,236.57 C 160.90,236.18 161.49,235.81 162.02,235.46 C 162.56,235.11 163.05,234.79 163.48,234.48 C 163.92,234.18 164.31,233.90 164.64,233.64 C 164.98,233.38 165.26,233.14 165.49,232.93 C 165.73,232.71 165.91,232.52 166.04,232.35 C 166.17,232.18 166.25,232.03 166.28,231.91 C 166.31,231.78 166.29,231.69 166.22,231.59 C 166.15,231.50 166.02,231.40 165.85,231.32 C 165.68,231.24 165.45,231.16 165.18,231.09 C 164.90,231.01 164.58,230.95 164.20,230.89 C 163.83,230.83 163.40,230.78 162.92,230.73 C 162.44,230.69 161.92,230.65 161.34,230.62 C 160.76,230.58 160.13,230.56 159.45,230.54 C 158.76,230.52 158.03,230.51 157.25,230.50 C 156.47,230.49 155.54,230.51 154.75,230.50 C 153.96,230.49 153.22,230.48 152.52,230.46 C 151.83,230.44 151.18,230.42 150.57,230.38 C 149.96,230.35 149.40,230.31 148.89,230.27 C 148.38,230.22 147.91,230.17 147.48,230.11 C 147.06,230.05 146.68,229.99 146.35,229.91 C 146.02,229.84 145.73,229.76 145.49,229.68 C 145.25,229.60 145.06,229.50 144.91,229.41 C 144.76,229.31 144.69,229.20 144.59,229.09 C 144.49,228.98 144.40,228.87 144.30,228.74 C 144.21,228.62 144.12,228.49 144.04,228.35 C 143.95,228.21 143.87,228.07 143.80,227.92 C 143.72,227.77 143.65,227.62 143.58,227.45 C 143.51,227.29 143.44,227.12 143.38,226.95 C 143.32,226.77 143.26,226.59 143.21,226.40 C 143.16,226.21 143.11,226.01 143.06,225.81 C 143.02,225.61 142.96,225.40 142.94,225.19 C 142.92,224.97 142.91,224.75 142.93,224.52 C 142.95,224.30 142.98,224.06 143.04,223.82 C 143.10,223.58 143.17,223.33 143.27,223.08 C 143.36,222.82 143.48,222.56 143.61,222.30 C 143.74,222.03 143.90,221.76 144.07,221.48 C 144.24,221.20 144.44,220.91 144.65,220.62 C 144.86,220.32 145.09,220.02 145.34,219.72 C 145.60,219.41 145.85,219.11 146.16,218.78 C 146.46,218.46 146.81,218.12 147.20,217.77 C 147.58,217.43 148.00,217.07 148.46,216.70 C 148.92,216.32 149.42,215.94 149.95,215.55 C 150.49,215.15 151.06,214.75 151.67,214.33 C 152.28,213.91 152.93,213.48 153.62,213.04 C 154.30,212.60 155.03,212.14 155.79,211.68 C 156.55,211.21 157.35,210.74 158.19,210.25 C 159.02,209.76 159.97,209.22 160.81,208.75 C 161.65,208.28 162.45,207.83 163.22,207.41 C 163.98,206.98 164.71,206.59 165.41,206.22 C 166.10,205.85 166.76,205.51 167.38,205.19 C 167.99,204.87 168.58,204.58 169.12,204.31 C 169.67,204.05 170.18,203.81 170.66,203.59 C 171.13,203.38 171.57,203.19 171.97,203.03 C 172.37,202.87 172.73,202.73 173.06,202.62 C 173.39,202.52 173.63,202.45 173.94,202.38 C 174.24,202.30 174.56,202.25 174.89,202.20 C 175.22,202.16 175.57,202.13 175.92,202.11 C 176.28,202.09 176.65,202.09 177.03,202.09 C 177.41,202.10 177.81,202.12 178.22,202.16 C 178.63,202.19 179.05,202.24 179.48,202.30 C 179.92,202.36 180.37,202.43 180.83,202.52 C 181.29,202.60 181.76,202.70 182.25,202.81 C 182.74,202.92 183.27,203.05 183.75,203.19 C 184.23,203.32 184.70,203.46 185.14,203.61 C 185.59,203.76 186.01,203.91 186.42,204.08 C 186.83,204.24 187.22,204.41 187.59,204.59 C 187.97,204.77 188.32,204.96 188.66,205.16 C 188.99,205.35 189.31,205.55 189.61,205.77 C 189.91,205.98 190.19,206.20 190.45,206.42 C 190.72,206.65 190.96,206.88 191.19,207.12 C 191.41,207.37 191.59,207.63 191.81,207.88 C 192.04,208.12 192.28,208.36 192.55,208.59 C 192.81,208.83 193.09,209.06 193.39,209.28 C 193.69,209.51 194.01,209.72 194.34,209.94 C 194.68,210.15 195.03,210.36 195.41,210.56 C 195.78,210.77 196.17,210.96 196.58,211.16 C 196.99,211.35 197.41,211.54 197.86,211.72 C 198.30,211.90 198.77,212.08 199.25,212.25 C 199.73,212.42 200.27,212.59 200.75,212.75 C 201.23,212.91 201.68,213.07 202.10,213.23 C 202.53,213.38 202.93,213.53 203.30,213.68 C 203.68,213.83 204.03,213.97 204.36,214.11 C 204.69,214.25 204.99,214.38 205.27,214.52 C 205.54,214.65 205.80,214.77 206.02,214.90 C 206.25,215.02 206.45,215.14 206.63,215.26 C 206.81,215.37 206.96,215.49 207.09,215.59 C 207.22,215.70 207.31,215.80 207.41,215.91 C 207.50,216.01 207.58,216.12 207.66,216.23 C 207.73,216.35 207.79,216.46 207.84,216.58 C 207.90,216.70 207.94,216.82 207.97,216.94 C 208.00,217.06 208.02,217.18 208.03,217.31 C 208.04,217.44 208.04,217.57 208.03,217.70 C 208.02,217.84 208.00,217.97 207.97,218.11 C 207.94,218.25 207.90,218.39 207.84,218.53 C 207.79,218.67 207.74,218.82 207.66,218.97 C 207.58,219.12 207.48,219.27 207.36,219.42 C 207.24,219.58 207.11,219.73 206.95,219.89 C 206.80,220.05 206.63,220.21 206.44,220.38 C 206.25,220.54 206.04,220.71 205.81,220.88 C 205.59,221.04 205.34,221.22 205.08,221.39 C 204.82,221.57 204.53,221.74 204.23,221.92 C 203.93,222.10 203.62,222.28 203.28,222.47 C 202.95,222.65 202.54,222.85 202.22,223.03 C 201.90,223.21 201.60,223.39 201.34,223.56 C 201.08,223.73 200.85,223.90 200.66,224.06 C 200.46,224.22 200.29,224.38 200.16,224.53 C 200.02,224.68 199.92,224.83 199.84,224.97 C 199.77,225.11 199.73,225.24 199.72,225.38 C 199.71,225.51 199.73,225.63 199.78,225.75 C 199.83,225.87 199.92,225.98 200.03,226.09 C 200.15,226.20 200.30,226.31 200.47,226.41 C 200.63,226.50 200.82,226.60 201.02,226.68 C 201.23,226.76 201.45,226.84 201.70,226.91 C 201.94,226.99 202.20,227.05 202.48,227.11 C 202.77,227.17 203.07,227.22 203.39,227.27 C 203.71,227.31 204.05,227.35 204.41,227.38 C 204.77,227.42 205.15,227.44 205.55,227.46 C 205.95,227.48 206.37,227.49 206.81,227.50 C 207.25,227.51 207.70,227.48 208.19,227.50 C 208.67,227.52 209.18,227.55 209.72,227.61 C 210.26,227.66 210.82,227.74 211.41,227.83 C 211.99,227.92 212.61,228.03 213.25,228.16 C 213.89,228.28 214.56,228.43 215.25,228.59 C 215.94,228.76 216.66,228.94 217.41,229.14 C 218.15,229.34 218.92,229.56 219.72,229.80 C 220.52,230.03 221.34,230.29 222.19,230.56 C 223.04,230.84 223.98,231.17 224.81,231.44 C 225.64,231.70 226.43,231.94 227.17,232.16 C 227.91,232.37 228.61,232.56 229.27,232.72 C 229.92,232.88 230.53,233.02 231.09,233.12 C 231.66,233.23 232.18,233.32 232.66,233.38 C 233.13,233.43 233.57,233.46 233.95,233.47 C 234.34,233.47 234.68,233.45 234.98,233.41 C 235.28,233.36 235.54,233.29 235.75,233.19 C 235.96,233.09 236.09,232.92 236.25,232.81 C 236.41,232.71 236.55,232.62 236.69,232.55 C 236.82,232.48 236.95,232.42 237.06,232.39 C 237.18,232.36 237.28,232.34 237.38,232.34 C 237.47,232.35 237.55,232.37 237.62,232.41 C 237.70,232.45 237.76,232.50 237.81,232.58 C 237.86,232.65 237.91,232.75 237.94,232.86 C 237.97,232.97 237.99,233.10 238.00,233.25 C 238.01,233.40 237.99,233.60 238.00,233.75 C 238.01,233.90 238.02,234.04 238.03,234.16 C 238.05,234.28 238.07,234.38 238.09,234.47 C 238.12,234.56 238.15,234.63 238.19,234.69 C 238.22,234.74 238.27,234.79 238.31,234.81 C 238.36,234.84 238.41,234.85 238.47,234.84 C 238.53,234.84 238.59,234.82 238.66,234.78 C 238.72,234.74 238.80,234.69 238.88,234.62 C 238.95,234.56 239.04,234.45 239.12,234.38 C 239.21,234.30 239.29,234.25 239.38,234.20 C 239.46,234.16 239.54,234.13 239.62,234.11 C 239.71,234.09 239.79,234.09 239.88,234.09 C 239.96,234.10 240.04,234.12 240.12,234.16 C 240.21,234.19 240.29,234.24 240.38,234.30 C 240.46,234.36 240.54,234.43 240.62,234.52 C 240.71,234.60 240.79,234.70 240.88,234.81 C 240.96,234.92 241.02,235.06 241.12,235.19 C 241.23,235.31 241.35,235.44 241.48,235.56 C 241.62,235.69 241.78,235.81 241.95,235.94 C 242.13,236.06 242.32,236.19 242.53,236.31 C 242.74,236.44 242.97,236.56 243.22,236.69 C 243.47,236.81 243.73,236.94 244.02,237.06 C 244.30,237.19 244.60,237.31 244.92,237.44 C 245.24,237.56 245.58,237.69 245.94,237.81 C 246.29,237.94 246.70,238.08 247.06,238.19 C 247.42,238.30 247.77,238.39 248.11,238.47 C 248.45,238.55 248.77,238.61 249.08,238.66 C 249.39,238.70 249.68,238.73 249.97,238.75 C 250.25,238.77 250.52,238.77 250.78,238.75 C 251.04,238.73 251.28,238.70 251.52,238.66 C 251.75,238.61 251.97,238.55 252.17,238.47 C 252.38,238.39 252.57,238.30 252.75,238.19 C 252.93,238.08 253.05,237.93 253.25,237.81 C 253.45,237.70 253.68,237.59 253.95,237.48 C 254.22,237.38 254.52,237.29 254.86,237.20 C 255.20,237.12 255.57,237.04 255.97,236.97 C 256.37,236.90 256.81,236.84 257.28,236.78 C 257.75,236.73 258.26,236.68 258.80,236.64 C 259.34,236.60 259.91,236.57 260.52,236.55 C 261.12,236.52 261.76,236.51 262.44,236.50 C 263.11,236.49 263.88,236.49 264.56,236.50 C 265.24,236.51 265.90,236.54 266.53,236.58 C 267.16,236.62 267.77,236.67 268.34,236.73 C 268.92,236.80 269.47,236.88 270.00,236.97 C 270.53,237.06 271.03,237.16 271.50,237.28 C 271.97,237.40 272.42,237.53 272.84,237.67 C 273.27,237.82 273.66,237.97 274.03,238.14 C 274.40,238.31 274.74,238.49 275.06,238.69 C 275.38,238.88 275.64,239.14 275.94,239.31 C 276.23,239.49 276.53,239.64 276.83,239.75 C 277.13,239.86 277.43,239.95 277.73,240.00 C 278.04,240.05 278.35,240.07 278.66,240.06 C 278.97,240.05 279.28,240.01 279.59,239.94 C 279.91,239.86 280.23,239.76 280.55,239.62 C 280.87,239.49 281.19,239.32 281.52,239.12 C 281.84,238.93 282.17,238.70 282.50,238.44 C 282.83,238.18 283.17,237.84 283.50,237.56 C 283.83,237.29 284.15,237.03 284.47,236.78 C 284.79,236.54 285.10,236.31 285.41,236.09 C 285.71,235.88 286.02,235.68 286.31,235.50 C 286.61,235.32 286.90,235.15 287.19,235.00 C 287.47,234.85 287.76,234.71 288.03,234.59 C 288.31,234.47 288.58,234.37 288.84,234.28 C 289.11,234.19 289.37,234.12 289.62,234.06 C 289.88,234.01 290.14,233.99 290.38,233.94 C 290.61,233.89 290.84,233.83 291.05,233.76 C 291.27,233.69 291.47,233.61 291.66,233.52 C 291.86,233.44 292.04,233.34 292.20,233.23 C 292.37,233.13 292.53,233.01 292.67,232.89 C 292.82,232.77 292.95,232.63 293.07,232.49 C 293.19,232.35 293.30,232.20 293.40,232.04 C 293.50,231.88 293.58,231.71 293.66,231.53 C 293.73,231.35 293.82,231.16 293.84,230.97 C 293.87,230.78 293.87,230.59 293.83,230.41 C 293.79,230.22 293.72,230.03 293.61,229.84 C 293.50,229.66 293.36,229.47 293.19,229.28 C 293.01,229.09 292.80,228.91 292.56,228.72 C 292.32,228.53 292.04,228.34 291.73,228.16 C 291.42,227.97 291.08,227.78 290.70,227.59 C 290.33,227.41 289.91,227.22 289.47,227.03 C 289.02,226.84 288.49,226.66 288.03,226.47 C 287.57,226.28 287.12,226.09 286.69,225.89 C 286.26,225.70 285.84,225.50 285.44,225.30 C 285.04,225.10 284.65,224.89 284.28,224.69 C 283.91,224.48 283.56,224.27 283.22,224.06 C 282.88,223.85 282.56,223.64 282.25,223.42 C 281.94,223.21 281.65,222.99 281.38,222.77 C 281.10,222.54 280.84,222.32 280.59,222.09 C 280.35,221.87 280.08,221.64 279.91,221.41 C 279.73,221.17 279.61,220.93 279.55,220.69 C 279.48,220.44 279.47,220.19 279.52,219.94 C 279.56,219.68 279.66,219.42 279.81,219.16 C 279.97,218.89 280.17,218.62 280.44,218.34 C 280.70,218.07 281.02,217.79 281.39,217.50 C 281.76,217.21 282.19,216.92 282.67,216.62 C 283.15,216.33 283.69,216.03 284.28,215.72 C 284.87,215.41 285.61,215.09 286.22,214.78 C 286.83,214.48 287.41,214.18 287.96,213.88 C 288.51,213.59 289.02,213.30 289.51,213.02 C 289.99,212.74 290.44,212.47 290.86,212.20 C 291.28,211.94 291.66,211.68 292.02,211.42 C 292.37,211.17 292.69,210.92 292.98,210.68 C 293.26,210.44 293.52,210.20 293.74,209.98 C 293.96,209.75 294.15,209.53 294.31,209.31 C 294.47,209.10 294.55,208.89 294.69,208.69 C 294.82,208.49 294.97,208.29 295.12,208.11 C 295.28,207.92 295.45,207.75 295.62,207.58 C 295.80,207.41 295.99,207.25 296.19,207.09 C 296.39,206.94 296.59,206.79 296.81,206.66 C 297.03,206.52 297.26,206.39 297.50,206.27 C 297.74,206.14 297.99,206.03 298.25,205.92 C 298.51,205.82 298.78,205.72 299.06,205.62 C 299.34,205.53 299.64,205.46 299.94,205.38 C 300.23,205.29 300.54,205.21 300.84,205.12 C 301.15,205.04 301.46,204.96 301.78,204.88 C 302.10,204.79 302.42,204.71 302.75,204.62 C 303.08,204.54 303.41,204.46 303.75,204.38 C 304.09,204.29 304.43,204.21 304.78,204.12 C 305.13,204.04 305.48,203.96 305.84,203.88 C 306.20,203.79 306.57,203.71 306.94,203.62 C 307.31,203.54 307.64,203.41 308.06,203.38 C 308.49,203.34 308.96,203.35 309.48,203.41 C 310.01,203.46 310.58,203.57 311.20,203.72 C 311.83,203.87 312.50,204.07 313.22,204.31 C 313.94,204.56 314.71,204.85 315.53,205.19 C 316.35,205.53 317.22,205.91 318.14,206.34 C 319.06,206.78 320.03,207.26 321.05,207.78 C 322.07,208.31 323.13,208.88 324.25,209.50 C 325.37,210.12 326.64,210.86 327.75,211.50 C 328.86,212.14 329.90,212.76 330.88,213.35 C 331.87,213.94 332.79,214.51 333.65,215.05 C 334.51,215.60 335.31,216.12 336.05,216.61 C 336.79,217.10 337.46,217.57 338.08,218.02 C 338.69,218.46 339.25,218.88 339.74,219.27 C 340.24,219.67 340.67,220.04 341.04,220.38 C 341.41,220.73 341.72,221.05 341.97,221.34 C 342.22,221.64 342.36,221.89 342.53,222.16 C 342.70,222.43 342.84,222.70 342.97,222.97 C 343.09,223.24 343.20,223.51 343.28,223.78 C 343.36,224.05 343.43,224.32 343.47,224.59 C 343.51,224.86 343.53,225.14 343.53,225.41 C 343.53,225.68 343.51,225.95 343.47,226.22 C 343.43,226.49 343.36,226.76 343.28,227.03 C 343.20,227.30 343.09,227.57 342.97,227.84 C 342.84,228.11 342.72,228.40 342.53,228.66 C 342.34,228.91 342.10,229.15 341.81,229.38 C 341.53,229.60 341.19,229.81 340.81,230.00 C 340.43,230.19 340.01,230.37 339.53,230.53 C 339.06,230.69 338.54,230.84 337.97,230.97 C 337.40,231.10 336.79,231.21 336.12,231.31 C 335.46,231.41 334.76,231.49 334.00,231.56 C 333.24,231.63 332.44,231.68 331.59,231.72 C 330.74,231.76 329.70,231.74 328.91,231.78 C 328.11,231.82 327.42,231.89 326.82,231.98 C 326.23,232.06 325.73,232.17 325.34,232.30 C 324.94,232.44 324.65,232.59 324.45,232.77 C 324.26,232.94 324.17,233.14 324.17,233.36 C 324.18,233.58 324.29,233.82 324.49,234.09 C 324.70,234.35 325.01,234.64 325.41,234.95 C 325.82,235.25 326.33,235.58 326.94,235.94 C 327.55,236.29 328.40,236.64 329.06,237.06 C 329.73,237.48 330.35,237.95 330.92,238.45 C 331.50,238.96 332.03,239.51 332.52,240.11 C 333.00,240.71 333.45,241.35 333.84,242.03 C 334.24,242.72 334.60,243.45 334.91,244.22 C 335.22,244.99 335.48,245.81 335.70,246.67 C 335.92,247.53 336.10,248.44 336.23,249.39 C 336.37,250.34 336.46,251.34 336.50,252.38 C 336.54,253.41 336.53,254.60 336.50,255.62 C 336.47,256.65 336.42,257.62 336.34,258.54 C 336.25,259.45 336.14,260.31 336.01,261.12 C 335.87,261.92 335.71,262.67 335.52,263.36 C 335.32,264.05 335.11,264.69 334.86,265.27 C 334.61,265.85 334.34,266.37 334.04,266.84 C 333.74,267.30 333.41,267.71 333.05,268.07 C 332.70,268.43 332.32,268.73 331.91,268.97 C 331.50,269.21 331.02,269.34 330.59,269.53 C 330.17,269.72 329.76,269.91 329.36,270.09 C 328.96,270.28 328.58,270.47 328.20,270.66 C 327.83,270.84 327.47,271.03 327.12,271.22 C 326.78,271.41 326.45,271.59 326.12,271.78 C 325.80,271.97 325.50,272.16 325.20,272.34 C 324.91,272.53 324.63,272.72 324.36,272.91 C 324.09,273.09 323.84,273.28 323.59,273.47 C 323.35,273.66 323.07,273.85 322.91,274.03 C 322.74,274.21 322.65,274.38 322.62,274.53 C 322.60,274.69 322.64,274.83 322.75,274.97 C 322.86,275.10 323.04,275.23 323.28,275.34 C 323.53,275.46 323.84,275.56 324.22,275.66 C 324.60,275.75 325.05,275.83 325.56,275.91 C 326.08,275.98 326.66,276.04 327.31,276.09 C 327.96,276.15 328.68,276.19 329.47,276.22 C 330.26,276.25 331.22,276.24 332.03,276.28 C 332.84,276.32 333.61,276.37 334.33,276.44 C 335.05,276.51 335.73,276.59 336.36,276.69 C 336.99,276.79 337.58,276.90 338.12,277.03 C 338.67,277.16 339.17,277.31 339.62,277.47 C 340.08,277.63 340.49,277.81 340.86,278.00 C 341.23,278.19 341.55,278.40 341.83,278.62 C 342.11,278.85 342.34,279.09 342.53,279.34 C 342.72,279.60 342.84,279.89 342.97,280.16 C 343.09,280.43 343.20,280.70 343.28,280.97 C 343.36,281.24 343.43,281.51 343.47,281.78 C 343.51,282.05 343.53,282.32 343.53,282.59 C 343.53,282.86 343.51,283.14 343.47,283.41 C 343.43,283.68 343.36,283.95 343.28,284.22 C 343.20,284.49 343.09,284.76 342.97,285.03 C 342.84,285.30 342.70,285.57 342.53,285.84 C 342.36,286.11 342.21,286.36 341.97,286.66 C 341.73,286.95 341.43,287.26 341.07,287.60 C 340.71,287.94 340.30,288.30 339.84,288.68 C 339.37,289.06 338.85,289.46 338.27,289.89 C 337.69,290.32 337.05,290.76 336.36,291.23 C 335.67,291.70 334.92,292.20 334.12,292.71 C 333.31,293.23 332.45,293.76 331.54,294.32 C 330.62,294.88 329.65,295.46 328.62,296.06 C 327.60,296.67 326.40,297.35 325.38,297.94 C 324.35,298.53 323.37,299.08 322.45,299.59 C 321.53,300.11 320.67,300.59 319.86,301.03 C 319.05,301.47 318.29,301.88 317.59,302.25 C 316.89,302.62 316.25,302.95 315.66,303.25 C 315.07,303.55 314.53,303.81 314.05,304.03 C 313.57,304.26 313.14,304.44 312.77,304.59 C 312.39,304.74 312.08,304.86 311.81,304.94 C 311.55,305.02 311.42,305.03 311.19,305.06 C 310.96,305.09 310.71,305.11 310.44,305.11 C 310.17,305.11 309.88,305.10 309.56,305.08 C 309.25,305.05 308.92,305.02 308.56,304.97 C 308.21,304.92 307.83,304.86 307.44,304.78 C 307.04,304.71 306.62,304.62 306.19,304.52 C 305.75,304.41 305.29,304.30 304.81,304.17 C 304.33,304.04 303.83,303.90 303.31,303.75 C 302.79,303.60 302.20,303.42 301.69,303.25 C 301.17,303.08 300.68,302.91 300.22,302.73 C 299.76,302.56 299.32,302.38 298.91,302.20 C 298.49,302.02 298.11,301.84 297.75,301.66 C 297.39,301.47 297.06,301.28 296.75,301.09 C 296.44,300.90 296.16,300.71 295.91,300.52 C 295.65,300.32 295.42,300.12 295.22,299.92 C 295.02,299.72 294.84,299.52 294.69,299.31 C 294.54,299.11 294.47,298.90 294.31,298.69 C 294.15,298.47 293.96,298.25 293.74,298.02 C 293.52,297.80 293.26,297.56 292.98,297.32 C 292.69,297.08 292.37,296.83 292.02,296.58 C 291.66,296.32 291.28,296.06 290.86,295.80 C 290.44,295.53 289.99,295.26 289.51,294.98 C 289.02,294.70 288.51,294.41 287.96,294.12 C 287.41,293.82 286.83,293.52 286.22,293.22 C 285.61,292.91 284.87,292.59 284.28,292.28 C 283.69,291.97 283.15,291.67 282.67,291.38 C 282.19,291.08 281.76,290.79 281.39,290.50 C 281.02,290.21 280.70,289.93 280.44,289.66 C 280.17,289.38 279.97,289.11 279.81,288.84 C 279.66,288.58 279.56,288.32 279.52,288.06 C 279.47,287.81 279.48,287.56 279.55,287.31 C 279.61,287.07 279.73,286.83 279.91,286.59 C 280.08,286.36 280.35,286.13 280.59,285.91 C 280.83,285.68 281.09,285.47 281.35,285.26 C 281.62,285.05 281.89,284.85 282.18,284.65 C 282.47,284.45 282.77,284.26 283.08,284.08 C 283.39,283.89 283.71,283.72 284.05,283.55 C 284.38,283.38 284.73,283.21 285.09,283.05 C 285.44,282.90 285.81,282.75 286.20,282.60 C 286.58,282.46 286.97,282.32 287.38,282.19 C 287.78,282.06 288.23,281.93 288.62,281.81 C 289.02,281.69 289.39,281.57 289.74,281.46 C 290.09,281.35 290.42,281.24 290.73,281.13 C 291.03,281.03 291.32,280.93 291.58,280.83 C 291.84,280.73 292.08,280.64 292.30,280.55 C 292.51,280.46 292.71,280.37 292.88,280.29 C 293.06,280.21 293.21,280.13 293.34,280.05 C 293.46,279.98 293.57,279.91 293.66,279.84 C 293.74,279.78 293.79,279.73 293.84,279.66 C 293.90,279.59 293.95,279.51 293.98,279.42 C 294.02,279.34 294.05,279.24 294.08,279.14 C 294.10,279.04 294.12,278.93 294.12,278.81 C 294.13,278.70 294.13,278.57 294.12,278.44 C 294.12,278.30 294.10,278.16 294.08,278.02 C 294.05,277.87 294.02,277.71 293.98,277.55 C 293.95,277.38 293.90,277.21 293.84,277.03 C 293.79,276.85 293.73,276.65 293.66,276.47 C 293.58,276.29 293.50,276.12 293.40,275.96 C 293.30,275.80 293.19,275.65 293.07,275.51 C 292.95,275.37 292.82,275.23 292.67,275.11 C 292.53,274.99 292.37,274.87 292.20,274.77 C 292.04,274.66 291.86,274.56 291.66,274.48 C 291.47,274.39 291.27,274.31 291.05,274.24 C 290.84,274.17 290.61,274.11 290.38,274.06 C 290.14,274.01 289.88,273.99 289.62,273.94 C 289.37,273.88 289.11,273.81 288.84,273.72 C 288.58,273.63 288.31,273.53 288.03,273.41 C 287.76,273.29 287.47,273.15 287.19,273.00 C 286.90,272.85 286.61,272.68 286.31,272.50 C 286.02,272.32 285.71,272.12 285.41,271.91 C 285.10,271.69 284.79,271.46 284.47,271.22 C 284.15,270.97 283.83,270.71 283.50,270.44 C 283.17,270.16 282.83,269.82 282.50,269.56 C 282.17,269.30 281.84,269.07 281.52,268.88 C 281.19,268.68 280.87,268.51 280.55,268.38 C 280.23,268.24 279.91,268.14 279.59,268.06 C 279.28,267.99 278.97,267.95 278.66,267.94 C 278.35,267.93 278.04,267.95 277.73,268.00 C 277.43,268.05 277.13,268.14 276.83,268.25 C 276.53,268.36 276.23,268.51 275.94,268.69 C 275.64,268.86 275.38,269.12 275.06,269.31 C 274.74,269.51 274.40,269.69 274.03,269.86 C 273.66,270.03 273.27,270.18 272.84,270.33 C 272.42,270.47 271.97,270.60 271.50,270.72 C 271.03,270.84 270.53,270.94 270.00,271.03 C 269.47,271.12 268.92,271.20 268.34,271.27 C 267.77,271.33 267.16,271.38 266.53,271.42 C 265.90,271.46 265.24,271.49 264.56,271.50 C 263.88,271.51 263.11,271.51 262.44,271.50 C 261.76,271.49 261.12,271.48 260.52,271.45 C 259.91,271.43 259.34,271.40 258.80,271.36 C 258.26,271.32 257.75,271.27 257.28,271.22 C 256.81,271.16 256.37,271.10 255.97,271.03 C 255.57,270.96 255.20,270.88 254.86,270.80 C 254.52,270.71 254.22,270.62 253.95,270.52 C 253.68,270.41 253.45,270.30 253.25,270.19 C 253.05,270.07 252.93,269.92 252.75,269.81 C 252.57,269.70 252.38,269.61 252.17,269.53 C 251.97,269.45 251.75,269.39 251.52,269.34 C 251.28,269.30 251.04,269.27 250.78,269.25 C 250.52,269.23 250.25,269.23 249.97,269.25 C 249.68,269.27 249.39,269.30 249.08,269.34 C 248.77,269.39 248.45,269.45 248.11,269.53 C 247.77,269.61 247.42,269.70 247.06,269.81 C 246.70,269.92 246.29,270.06 245.94,270.19 C 245.58,270.31 245.24,270.44 244.92,270.56 C 244.60,270.69 244.30,270.81 244.02,270.94 C 243.73,271.06 243.47,271.19 243.22,271.31 C 242.97,271.44 242.74,271.56 242.53,271.69 C 242.32,271.81 242.13,271.94 241.95,272.06 C 241.78,272.19 241.62,272.31 241.48,272.44 C 241.35,272.56 241.23,272.69 241.12,272.81 C 241.02,272.94 240.96,273.07 240.88,273.19 C 240.79,273.30 240.71,273.41 240.62,273.50 C 240.54,273.59 240.46,273.68 240.38,273.75 C 240.29,273.82 240.21,273.89 240.12,273.94 C 240.04,273.99 239.96,274.03 239.88,274.06 C 239.79,274.09 239.71,274.11 239.62,274.12 C 239.54,274.14 239.46,274.14 239.38,274.12 C 239.29,274.11 239.21,274.09 239.12,274.06 C 239.04,274.03 238.95,273.97 238.88,273.94 C 238.80,273.91 238.72,273.89 238.66,273.88 C 238.59,273.86 238.53,273.86 238.47,273.88 C 238.41,273.89 238.36,273.91 238.31,273.94 C 238.27,273.97 238.22,274.01 238.19,274.06 C 238.15,274.11 238.12,274.18 238.09,274.25 C 238.07,274.32 238.05,274.41 238.03,274.50 C 238.02,274.59 238.01,274.70 238.00,274.81 C 237.99,274.93 238.01,275.08 238.00,275.19 C 237.99,275.30 237.98,275.39 237.95,275.47 C 237.93,275.55 237.90,275.61 237.86,275.66 C 237.82,275.70 237.77,275.73 237.72,275.75 C 237.66,275.77 237.60,275.77 237.53,275.75 C 237.46,275.73 237.38,275.70 237.30,275.66 C 237.21,275.61 237.12,275.55 237.02,275.47 C 236.91,275.39 236.80,275.30 236.69,275.19 C 236.57,275.08 236.49,274.91 236.31,274.81 C 236.14,274.71 235.91,274.64 235.64,274.59 C 235.37,274.55 235.04,274.53 234.67,274.53 C 234.30,274.54 233.88,274.57 233.41,274.62 C 232.93,274.68 232.41,274.77 231.84,274.88 C 231.27,274.98 230.65,275.12 229.98,275.28 C 229.32,275.44 228.60,275.63 227.83,275.84 C 227.06,276.06 226.24,276.30 225.38,276.56 C 224.51,276.83 223.51,277.16 222.62,277.44 C 221.74,277.71 220.88,277.97 220.05,278.20 C 219.22,278.44 218.41,278.66 217.64,278.86 C 216.87,279.06 216.12,279.24 215.41,279.41 C 214.69,279.57 214.00,279.72 213.34,279.84 C 212.68,279.97 212.05,280.08 211.45,280.17 C 210.85,280.26 210.28,280.34 209.73,280.39 C 209.19,280.45 208.67,280.48 208.19,280.50 C 207.70,280.52 207.25,280.49 206.81,280.50 C 206.37,280.51 205.95,280.52 205.55,280.54 C 205.15,280.56 204.77,280.58 204.41,280.62 C 204.05,280.65 203.71,280.69 203.39,280.73 C 203.07,280.78 202.77,280.83 202.48,280.89 C 202.20,280.95 201.94,281.01 201.70,281.09 C 201.45,281.16 201.23,281.24 201.02,281.32 C 200.82,281.40 200.63,281.50 200.47,281.59 C 200.30,281.69 200.15,281.80 200.03,281.91 C 199.92,282.02 199.83,282.13 199.78,282.25 C 199.73,282.37 199.71,282.49 199.72,282.62 C 199.73,282.76 199.77,282.89 199.84,283.03 C 199.92,283.17 200.02,283.32 200.16,283.47 C 200.29,283.62 200.46,283.78 200.66,283.94 C 200.85,284.10 201.08,284.27 201.34,284.44 C 201.60,284.61 201.90,284.79 202.22,284.97 C 202.54,285.15 202.95,285.35 203.28,285.53 C 203.62,285.72 203.93,285.90 204.23,286.08 C 204.53,286.26 204.82,286.43 205.08,286.61 C 205.34,286.78 205.59,286.96 205.81,287.12 C 206.04,287.29 206.25,287.46 206.44,287.62 C 206.63,287.79 206.80,287.95 206.95,288.11 C 207.11,288.27 207.24,288.42 207.36,288.58 C 207.48,288.73 207.58,288.88 207.66,289.03 C 207.74,289.18 207.79,289.33 207.84,289.47 C 207.90,289.61 207.94,289.75 207.97,289.89 C 208.00,290.03 208.02,290.16 208.03,290.30 C 208.04,290.43 208.04,290.56 208.03,290.69 C 208.02,290.82 208.00,290.94 207.97,291.06 C 207.94,291.18 207.90,291.30 207.84,291.42 C 207.79,291.54 207.73,291.65 207.66,291.77 C 207.58,291.88 207.50,291.99 207.41,292.09 C 207.31,292.20 207.22,292.30 207.09,292.41 C 206.96,292.51 206.81,292.63 206.63,292.74 C 206.45,292.86 206.25,292.98 206.02,293.10 C 205.80,293.23 205.54,293.35 205.27,293.48 C 204.99,293.62 204.69,293.75 204.36,293.89 C 204.03,294.03 203.68,294.17 203.30,294.32 C 202.93,294.47 202.53,294.62 202.10,294.77 C 201.68,294.93 201.23,295.09 200.75,295.25 C 200.27,295.41 199.73,295.58 199.25,295.75 C 198.77,295.92 198.30,296.10 197.86,296.28 C 197.41,296.46 196.99,296.65 196.58,296.84 C 196.17,297.04 195.78,297.23 195.41,297.44 C 195.03,297.64 194.68,297.85 194.34,298.06 C 194.01,298.28 193.69,298.49 193.39,298.72 C 193.09,298.94 192.81,299.17 192.55,299.41 C 192.28,299.64 192.04,299.88 191.81,300.12 C 191.59,300.37 191.41,300.63 191.19,300.88 C 190.96,301.12 190.72,301.35 190.45,301.58 C 190.19,301.80 189.91,302.02 189.61,302.23 C 189.31,302.45 188.99,302.65 188.66,302.84 C 188.32,303.04 187.97,303.23 187.59,303.41 C 187.22,303.59 186.83,303.76 186.42,303.92 C 186.01,304.09 185.59,304.24 185.14,304.39 C 184.70,304.54 184.23,304.68 183.75,304.81 C 183.27,304.95 182.73,305.07 182.25,305.19 C 181.77,305.30 181.32,305.41 180.89,305.52 C 180.46,305.62 180.05,305.71 179.67,305.80 C 179.29,305.88 178.93,305.96 178.59,306.03 C 178.26,306.10 177.95,306.16 177.66,306.22 C 177.37,306.27 177.10,306.32 176.86,306.36 C 176.62,306.40 176.40,306.43 176.20,306.45 C 176.01,306.48 175.84,306.49 175.69,306.50 Z" />
    </clipPath>
  </defs>
  <path d="M 175.69,306.50 C 175.54,306.51 175.48,306.53 175.31,306.50 C 175.15,306.47 174.94,306.42 174.69,306.34 C 174.44,306.27 174.15,306.16 173.81,306.03 C 173.48,305.90 173.10,305.74 172.69,305.56 C 172.27,305.38 171.81,305.17 171.31,304.94 C 170.81,304.70 170.27,304.44 169.69,304.16 C 169.10,303.87 168.48,303.56 167.81,303.22 C 167.15,302.88 166.44,302.52 165.69,302.12 C 164.94,301.73 164.09,301.30 163.31,300.88 C 162.54,300.45 161.78,300.03 161.04,299.60 C 160.30,299.17 159.57,298.74 158.87,298.30 C 158.16,297.87 157.47,297.43 156.80,296.98 C 156.12,296.54 155.47,296.09 154.83,295.64 C 154.19,295.19 153.57,294.73 152.96,294.27 C 152.36,293.81 151.77,293.35 151.20,292.88 C 150.62,292.42 150.07,291.94 149.53,291.47 C 148.99,290.99 148.45,290.49 147.97,290.03 C 147.48,289.57 147.03,289.12 146.62,288.70 C 146.20,288.27 145.82,287.86 145.48,287.46 C 145.13,287.07 144.82,286.69 144.55,286.33 C 144.27,285.97 144.03,285.62 143.83,285.30 C 143.62,284.97 143.45,284.66 143.32,284.37 C 143.19,284.07 143.09,283.80 143.02,283.54 C 142.96,283.28 142.93,283.04 142.94,282.81 C 142.94,282.59 143.02,282.39 143.06,282.19 C 143.11,281.99 143.16,281.79 143.21,281.60 C 143.26,281.41 143.32,281.23 143.38,281.05 C 143.44,280.88 143.51,280.71 143.58,280.55 C 143.65,280.38 143.72,280.23 143.80,280.08 C 143.87,279.93 143.95,279.79 144.04,279.65 C 144.12,279.51 144.21,279.38 144.30,279.26 C 144.40,279.13 144.49,279.02 144.59,278.91 C 144.69,278.80 144.76,278.69 144.91,278.59 C 145.06,278.49 145.26,278.40 145.50,278.31 C 145.74,278.22 146.04,278.14 146.38,278.06 C 146.71,277.98 147.10,277.91 147.53,277.84 C 147.96,277.78 148.44,277.71 148.97,277.66 C 149.49,277.60 150.07,277.55 150.69,277.50 C 151.31,277.45 151.97,277.41 152.69,277.38 C 153.40,277.34 154.16,277.31 154.97,277.28 C 155.78,277.26 156.73,277.24 157.53,277.22 C 158.33,277.19 159.08,277.16 159.77,277.12 C 160.46,277.09 161.09,277.05 161.67,277.00 C 162.25,276.95 162.78,276.90 163.25,276.84 C 163.72,276.79 164.14,276.72 164.50,276.66 C 164.86,276.59 165.17,276.52 165.42,276.44 C 165.67,276.36 165.87,276.28 166.02,276.19 C 166.16,276.10 166.25,276.01 166.28,275.91 C 166.32,275.81 166.29,275.72 166.22,275.59 C 166.15,275.47 166.04,275.32 165.88,275.16 C 165.71,274.99 165.51,274.80 165.25,274.59 C 164.99,274.39 164.69,274.16 164.34,273.91 C 163.99,273.66 163.60,273.39 163.16,273.09 C 162.71,272.80 162.22,272.49 161.69,272.16 C 161.15,271.82 160.57,271.47 159.94,271.09 C 159.31,270.72 158.63,270.32 157.91,269.91 C 157.18,269.49 156.30,269.01 155.59,268.59 C 154.88,268.18 154.24,267.79 153.65,267.41 C 153.06,267.04 152.54,266.69 152.07,266.37 C 151.61,266.04 151.20,265.74 150.86,265.45 C 150.52,265.17 150.24,264.91 150.02,264.67 C 149.80,264.43 149.64,264.22 149.54,264.02 C 149.44,263.83 149.40,263.66 149.43,263.51 C 149.45,263.36 149.54,263.23 149.69,263.12 C 149.83,263.02 150.13,262.96 150.31,262.88 C 150.49,262.79 150.64,262.70 150.77,262.61 C 150.89,262.52 150.98,262.42 151.05,262.33 C 151.11,262.23 151.15,262.13 151.16,262.03 C 151.16,261.93 151.14,261.83 151.09,261.72 C 151.04,261.61 150.97,261.50 150.86,261.39 C 150.75,261.28 150.62,261.16 150.45,261.05 C 150.29,260.93 150.10,260.81 149.88,260.69 C 149.65,260.57 149.36,260.46 149.12,260.31 C 148.89,260.17 148.67,260.01 148.47,259.83 C 148.27,259.65 148.08,259.45 147.91,259.23 C 147.73,259.02 147.58,258.78 147.44,258.53 C 147.30,258.28 147.17,258.01 147.06,257.72 C 146.95,257.43 146.86,257.12 146.78,256.80 C 146.70,256.47 146.64,256.13 146.59,255.77 C 146.55,255.40 146.52,255.02 146.50,254.62 C 146.48,254.23 146.48,253.77 146.50,253.38 C 146.52,252.98 146.55,252.60 146.59,252.23 C 146.64,251.87 146.70,251.53 146.78,251.20 C 146.86,250.88 146.95,250.57 147.06,250.28 C 147.17,249.99 147.30,249.72 147.44,249.47 C 147.58,249.22 147.73,248.98 147.91,248.77 C 148.08,248.55 148.27,248.35 148.47,248.17 C 148.67,247.99 148.89,247.83 149.12,247.69 C 149.36,247.54 149.65,247.43 149.88,247.31 C 150.10,247.19 150.29,247.07 150.45,246.95 C 150.62,246.84 150.75,246.72 150.86,246.61 C 150.97,246.50 151.04,246.39 151.09,246.28 C 151.14,246.17 151.16,246.07 151.16,245.97 C 151.15,245.87 151.11,245.77 151.05,245.67 C 150.98,245.58 150.89,245.48 150.77,245.39 C 150.64,245.30 150.49,245.21 150.31,245.12 C 150.13,245.04 149.83,244.98 149.69,244.88 C 149.54,244.77 149.46,244.64 149.44,244.48 C 149.42,244.33 149.46,244.15 149.56,243.95 C 149.67,243.75 149.83,243.53 150.06,243.28 C 150.29,243.03 150.58,242.76 150.94,242.47 C 151.29,242.17 151.71,241.86 152.19,241.52 C 152.67,241.17 153.21,240.81 153.81,240.42 C 154.42,240.03 155.08,239.62 155.81,239.19 C 156.54,238.75 157.45,238.25 158.19,237.81 C 158.93,237.38 159.62,236.96 160.26,236.57 C 160.90,236.18 161.49,235.81 162.02,235.46 C 162.56,235.11 163.05,234.79 163.48,234.48 C 163.92,234.18 164.31,233.90 164.64,233.64 C 164.98,233.38 165.26,233.14 165.49,232.93 C 165.73,232.71 165.91,232.52 166.04,232.35 C 166.17,232.18 166.25,232.03 166.28,231.91 C 166.31,231.78 166.29,231.69 166.22,231.59 C 166.15,231.50 166.02,231.40 165.85,231.32 C 165.68,231.24 165.45,231.16 165.18,231.09 C 164.90,231.01 164.58,230.95 164.20,230.89 C 163.83,230.83 163.40,230.78 162.92,230.73 C 162.44,230.69 161.92,230.65 161.34,230.62 C 160.76,230.58 160.13,230.56 159.45,230.54 C 158.76,230.52 158.03,230.51 157.25,230.50 C 156.47,230.49 155.54,230.51 154.75,230.50 C 153.96,230.49 153.22,230.48 152.52,230.46 C 151.83,230.44 151.18,230.42 150.57,230.38 C 149.96,230.35 149.40,230.31 148.89,230.27 C 148.38,230.22 147.91,230.17 147.48,230.11 C 147.06,230.05 146.68,229.99 146.35,229.91 C 146.02,229.84 145.73,229.76 145.49,229.68 C 145.25,229.60 145.06,229.50 144.91,229.41 C 144.76,229.31 144.69,229.20 144.59,229.09 C 144.49,228.98 144.40,228.87 144.30,228.74 C 144.21,228.62 144.12,228.49 144.04,228.35 C 143.95,228.21 143.87,228.07 143.80,227.92 C 143.72,227.77 143.65,227.62 143.58,227.45 C 143.51,227.29 143.44,227.12 143.38,226.95 C 143.32,226.77 143.26,226.59 143.21,226.40 C 143.16,226.21 143.11,226.01 143.06,225.81 C 143.02,225.61 142.96,225.40 142.94,225.19 C 142.92,224.97 142.91,224.75 142.93,224.52 C 142.95,224.30 142.98,224.06 143.04,223.82 C 143.10,223.58 143.17,223.33 143.27,223.08 C 143.36,222.82 143.48,222.56 143.61,222.30 C 143.74,222.03 143.90,221.76 144.07,221.48 C 144.24,221.20 144.44,220.91 144.65,220.62 C 144.86,220.32 145.09,220.02 145.34,219.72 C 145.60,219.41 145.85,219.11 146.16,218.78 C 146.46,218.46 146.81,218.12 147.20,217.77 C 147.58,217.43 148.00,217.07 148.46,216.70 C 148.92,216.32 149.42,215.94 149.95,215.55 C 150.49,215.15 151.06,214.75 151.67,214.33 C 152.28,213.91 152.93,213.48 153.62,213.04 C 154.30,212.60 155.03,212.14 155.79,211.68 C 156.55,211.21 157.35,210.74 158.19,210.25 C 159.02,209.76 159.97,209.22 160.81,208.75 C 161.65,208.28 162.45,207.83 163.22,207.41 C 163.98,206.98 164.71,206.59 165.41,206.22 C 166.10,205.85 166.76,205.51 167.38,205.19 C 167.99,204.87 168.58,204.58 169.12,204.31 C 169.67,204.05 170.18,203.81 170.66,203.59 C 171.13,203.38 171.57,203.19 171.97,203.03 C 172.37,202.87 172.73,202.73 173.06,202.62 C 173.39,202.52 173.63,202.45 173.94,202.38 C 174.24,202.30 174.56,202.25 174.89,202.20 C 175.22,202.16 175.57,202.13 175.92,202.11 C 176.28,202.09 176.65,202.09 177.03,202.09 C 177.41,202.10 177.81,202.12 178.22,202.16 C 178.63,202.19 179.05,202.24 179.48,202.30 C 179.92,202.36 180.37,202.43 180.83,202.52 C 181.29,202.60 181.76,202.70 182.25,202.81 C 182.74,202.92 183.27,203.05 183.75,203.19 C 184.23,203.32 184.70,203.46 185.14,203.61 C 185.59,203.76 186.01,203.91 186.42,204.08 C 186.83,204.24 187.22,204.41 187.59,204.59 C 187.97,204.77 188.32,204.96 188.66,205.16 C 188.99,205.35 189.31,205.55 189.61,205.77 C 189.91,205.98 190.19,206.20 190.45,206.42 C 190.72,206.65 190.96,206.88 191.19,207.12 C 191.41,207.37 191.59,207.63 191.81,207.88 C 192.04,208.12 192.28,208.36 192.55,208.59 C 192.81,208.83 193.09,209.06 193.39,209.28 C 193.69,209.51 194.01,209.72 194.34,209.94 C 194.68,210.15 195.03,210.36 195.41,210.56 C 195.78,210.77 196.17,210.96 196.58,211.16 C 196.99,211.35 197.41,211.54 197.86,211.72 C 198.30,211.90 198.77,212.08 199.25,212.25 C 199.73,212.42 200.27,212.59 200.75,212.75 C 201.23,212.91 201.68,213.07 202.10,213.23 C 202.53,213.38 202.93,213.53 203.30,213.68 C 203.68,213.83 204.03,213.97 204.36,214.11 C 204.69,214.25 204.99,214.38 205.27,214.52 C 205.54,214.65 205.80,214.77 206.02,214.90 C 206.25,215.02 206.45,215.14 206.63,215.26 C 206.81,215.37 206.96,215.49 207.09,215.59 C 207.22,215.70 207.31,215.80 207.41,215.91 C 207.50,216.01 207.58,216.12 207.66,216.23 C 207.73,216.35 207.79,216.46 207.84,216.58 C 207.90,216.70 207.94,216.82 207.97,216.94 C 208.00,217.06 208.02,217.18 208.03,217.31 C 208.04,217.44 208.04,217.57 208.03,217.70 C 208.02,217.84 208.00,217.97 207.97,218.11 C 207.94,218.25 207.90,218.39 207.84,218.53 C 207.79,218.67 207.74,218.82 207.66,218.97 C 207.58,219.12 207.48,219.27 207.36,219.42 C 207.24,219.58 207.11,219.73 206.95,219.89 C 206.80,220.05 206.63,220.21 206.44,220.38 C 206.25,220.54 206.04,220.71 205.81,220.88 C 205.59,221.04 205.34,221.22 205.08,221.39 C 204.82,221.57 204.53,221.74 204.23,221.92 C 203.93,222.10 203.62,222.28 203.28,222.47 C 202.95,222.65 202.54,222.85 202.22,223.03 C 201.90,223.21 201.60,223.39 201.34,223.56 C 201.08,223.73 200.85,223.90 200.66,224.06 C 200.46,224.22 200.29,224.38 200.16,224.53 C 200.02,224.68 199.92,224.83 199.84,224.97 C 199.77,225.11 199.73,225.24 199.72,225.38 C 199.71,225.51 199.73,225.63 199.78,225.75 C 199.83,225.87 199.92,225.98 200.03,226.09 C 200.15,226.20 200.30,226.31 200.47,226.41 C 200.63,226.50 200.82,226.60 201.02,226.68 C 201.23,226.76 201.45,226.84 201.70,226.91 C 201.94,226.99 202.20,227.05 202.48,227.11 C 202.77,227.17 203.07,227.22 203.39,227.27 C 203.71,227.31 204.05,227.35 204.41,227.38 C 204.77,227.42 205.15,227.44 205.55,227.46 C 205.95,227.48 206.37,227.49 206.81,227.50 C 207.25,227.51 207.70,227.48 208.19,227.50 C 208.67,227.52 209.18,227.55 209.72,227.61 C 210.26,227.66 210.82,227.74 211.41,227.83 C 211.99,227.92 212.61,228.03 213.25,228.16 C 213.89,228.28 214.56,228.43 215.25,228.59 C 215.94,228.76 216.66,228.94 217.41,229.14 C 218.15,229.34 218.92,229.56 219.72,229.80 C 220.52,230.03 221.34,230.29 222.19,230.56 C 223.04,230.84 223.98,231.17 224.81,231.44 C 225.64,231.70 226.43,231.94 227.17,232.16 C 227.91,232.37 228.61,232.56 229.27,232.72 C 229.92,232.88 230.53,233.02 231.09,233.12 C 231.66,233.23 232.18,233.32 232.66,233.38 C 233.13,233.43 233.57,233.46 233.95,233.47 C 234.34,233.47 234.68,233.45 234.98,233.41 C 235.28,233.36 235.54,233.29 235.75,233.19 C 235.96,233.09 236.09,232.92 236.25,232.81 C 236.41,232.71 236.55,232.62 236.69,232.55 C 236.82,232.48 236.95,232.42 237.06,232.39 C 237.18,232.36 237.28,232.34 237.38,232.34 C 237.47,232.35 237.55,232.37 237.62,232.41 C 237.70,232.45 237.76,232.50 237.81,232.58 C 237.86,232.65 237.91,232.75 237.94,232.86 C 237.97,232.97 237.99,233.10 238.00,233.25 C 238.01,233.40 237.99,233.60 238.00,233.75 C 238.01,233.90 238.02,234.04 238.03,234.16 C 238.05,234.28 238.07,234.38 238.09,234.47 C 238.12,234.56 238.15,234.63 238.19,234.69 C 238.22,234.74 238.27,234.79 238.31,234.81 C 238.36,234.84 238.41,234.85 238.47,234.84 C 238.53,234.84 238.59,234.82 238.66,234.78 C 238.72,234.74 238.80,234.69 238.88,234.62 C 238.95,234.56 239.04,234.45 239.12,234.38 C 239.21,234.30 239.29,234.25 239.38,234.20 C 239.46,234.16 239.54,234.13 239.62,234.11 C 239.71,234.09 239.79,234.09 239.88,234.09 C 239.96,234.10 240.04,234.12 240.12,234.16 C 240.21,234.19 240.29,234.24 240.38,234.30 C 240.46,234.36 240.54,234.43 240.62,234.52 C 240.71,234.60 240.79,234.70 240.88,234.81 C 240.96,234.92 241.02,235.06 241.12,235.19 C 241.23,235.31 241.35,235.44 241.48,235.56 C 241.62,235.69 241.78,235.81 241.95,235.94 C 242.13,236.06 242.32,236.19 242.53,236.31 C 242.74,236.44 242.97,236.56 243.22,236.69 C 243.47,236.81 243.73,236.94 244.02,237.06 C 244.30,237.19 244.60,237.31 244.92,237.44 C 245.24,237.56 245.58,237.69 245.94,237.81 C 246.29,237.94 246.70,238.08 247.06,238.19 C 247.42,238.30 247.77,238.39 248.11,238.47 C 248.45,238.55 248.77,238.61 249.08,238.66 C 249.39,238.70 249.68,238.73 249.97,238.75 C 250.25,238.77 250.52,238.77 250.78,238.75 C 251.04,238.73 251.28,238.70 251.52,238.66 C 251.75,238.61 251.97,238.55 252.17,238.47 C 252.38,238.39 252.57,238.30 252.75,238.19 C 252.93,238.08 253.05,237.93 253.25,237.81 C 253.45,237.70 253.68,237.59 253.95,237.48 C 254.22,237.38 254.52,237.29 254.86,237.20 C 255.20,237.12 255.57,237.04 255.97,236.97 C 256.37,236.90 256.81,236.84 257.28,236.78 C 257.75,236.73 258.26,236.68 258.80,236.64 C 259.34,236.60 259.91,236.57 260.52,236.55 C 261.12,236.52 261.76,236.51 262.44,236.50 C 263.11,236.49 263.88,236.49 264.56,236.50 C 265.24,236.51 265.90,236.54 266.53,236.58 C 267.16,236.62 267.77,236.67 268.34,236.73 C 268.92,236.80 269.47,236.88 270.00,236.97 C 270.53,237.06 271.03,237.16 271.50,237.28 C 271.97,237.40 272.42,237.53 272.84,237.67 C 273.27,237.82 273.66,237.97 274.03,238.14 C 274.40,238.31 274.74,238.49 275.06,238.69 C 275.38,238.88 275.64,239.14 275.94,239.31 C 276.23,239.49 276.53,239.64 276.83,239.75 C 277.13,239.86 277.43,239.95 277.73,240.00 C 278.04,240.05 278.35,240.07 278.66,240.06 C 278.97,240.05 279.28,240.01 279.59,239.94 C 279.91,239.86 280.23,239.76 280.55,239.62 C 280.87,239.49 281.19,239.32 281.52,239.12 C 281.84,238.93 282.17,238.70 282.50,238.44 C 282.83,238.18 283.17,237.84 283.50,237.56 C 283.83,237.29 284.15,237.03 284.47,236.78 C 284.79,236.54 285.10,236.31 285.41,236.09 C 285.71,235.88 286.02,235.68 286.31,235.50 C 286.61,235.32 286.90,235.15 287.19,235.00 C 287.47,234.85 287.76,234.71 288.03,234.59 C 288.31,234.47 288.58,234.37 288.84,234.28 C 289.11,234.19 289.37,234.12 289.62,234.06 C 289.88,234.01 290.14,233.99 290.38,233.94 C 290.61,233.89 290.84,233.83 291.05,233.76 C 291.27,233.69 291.47,233.61 291.66,233.52 C 291.86,233.44 292.04,233.34 292.20,233.23 C 292.37,233.13 292.53,233.01 292.67,232.89 C 292.82,232.77 292.95,232.63 293.07,232.49 C 293.19,232.35 293.30,232.20 293.40,232.04 C 293.50,231.88 293.58,231.71 293.66,231.53 C 293.73,231.35 293.82,231.16 293.84,230.97 C 293.87,230.78 293.87,230.59 293.83,230.41 C 293.79,230.22 293.72,230.03 293.61,229.84 C 293.50,229.66 293.36,229.47 293.19,229.28 C 293.01,229.09 292.80,228.91 292.56,228.72 C 292.32,228.53 292.04,228.34 291.73,228.16 C 291.42,227.97 291.08,227.78 290.70,227.59 C 290.33,227.41 289.91,227.22 289.47,227.03 C 289.02,226.84 288.49,226.66 288.03,226.47 C 287.57,226.28 287.12,226.09 286.69,225.89 C 286.26,225.70 285.84,225.50 285.44,225.30 C 285.04,225.10 284.65,224.89 284.28,224.69 C 283.91,224.48 283.56,224.27 283.22,224.06 C 282.88,223.85 282.56,223.64 282.25,223.42 C 281.94,223.21 281.65,222.99 281.38,222.77 C 281.10,222.54 280.84,222.32 280.59,222.09 C 280.35,221.87 280.08,221.64 279.91,221.41 C 279.73,221.17 279.61,220.93 279.55,220.69 C 279.48,220.44 279.47,220.19 279.52,219.94 C 279.56,219.68 279.66,219.42 279.81,219.16 C 279.97,218.89 280.17,218.62 280.44,218.34 C 280.70,218.07 281.02,217.79 281.39,217.50 C 281.76,217.21 282.19,216.92 282.67,216.62 C 283.15,216.33 283.69,216.03 284.28,215.72 C 284.87,215.41 285.61,215.09 286.22,214.78 C 286.83,214.48 287.41,214.18 287.96,213.88 C 288.51,213.59 289.02,213.30 289.51,213.02 C 289.99,212.74 290.44,212.47 290.86,212.20 C 291.28,211.94 291.66,211.68 292.02,211.42 C 292.37,211.17 292.69,210.92 292.98,210.68 C 293.26,210.44 293.52,210.20 293.74,209.98 C 293.96,209.75 294.15,209.53 294.31,209.31 C 294.47,209.10 294.55,208.89 294.69,208.69 C 294.82,208.49 294.97,208.29 295.12,208.11 C 295.28,207.92 295.45,207.75 295.62,207.58 C 295.80,207.41 295.99,207.25 296.19,207.09 C 296.39,206.94 296.59,206.79 296.81,206.66 C 297.03,206.52 297.26,206.39 297.50,206.27 C 297.74,206.14 297.99,206.03 298.25,205.92 C 298.51,205.82 298.78,205.72 299.06,205.62 C 299.34,205.53 299.64,205.46 299.94,205.38 C 300.23,205.29 300.54,205.21 300.84,205.12 C 301.15,205.04 301.46,204.96 301.78,204.88 C 302.10,204.79 302.42,204.71 302.75,204.62 C 303.08,204.54 303.41,204.46 303.75,204.38 C 304.09,204.29 304.43,204.21 304.78,204.12 C 305.13,204.04 305.48,203.96 305.84,203.88 C 306.20,203.79 306.57,203.71 306.94,203.62 C 307.31,203.54 307.64,203.41 308.06,203.38 C 308.49,203.34 308.96,203.35 309.48,203.41 C 310.01,203.46 310.58,203.57 311.20,203.72 C 311.83,203.87 312.50,204.07 313.22,204.31 C 313.94,204.56 314.71,204.85 315.53,205.19 C 316.35,205.53 317.22,205.91 318.14,206.34 C 319.06,206.78 320.03,207.26 321.05,207.78 C 322.07,208.31 323.13,208.88 324.25,209.50 C 325.37,210.12 326.64,210.86 327.75,211.50 C 328.86,212.14 329.90,212.76 330.88,213.35 C 331.87,213.94 332.79,214.51 333.65,215.05 C 334.51,215.60 335.31,216.12 336.05,216.61 C 336.79,217.10 337.46,217.57 338.08,218.02 C 338.69,218.46 339.25,218.88 339.74,219.27 C 340.24,219.67 340.67,220.04 341.04,220.38 C 341.41,220.73 341.72,221.05 341.97,221.34 C 342.22,221.64 342.36,221.89 342.53,222.16 C 342.70,222.43 342.84,222.70 342.97,222.97 C 343.09,223.24 343.20,223.51 343.28,223.78 C 343.36,224.05 343.43,224.32 343.47,224.59 C 343.51,224.86 343.53,225.14 343.53,225.41 C 343.53,225.68 343.51,225.95 343.47,226.22 C 343.43,226.49 343.36,226.76 343.28,227.03 C 343.20,227.30 343.09,227.57 342.97,227.84 C 342.84,228.11 342.72,228.40 342.53,228.66 C 342.34,228.91 342.10,229.15 341.81,229.38 C 341.53,229.60 341.19,229.81 340.81,230.00 C 340.43,230.19 340.01,230.37 339.53,230.53 C 339.06,230.69 338.54,230.84 337.97,230.97 C 337.40,231.10 336.79,231.21 336.12,231.31 C 335.46,231.41 334.76,231.49 334.00,231.56 C 333.24,231.63 332.44,231.68 331.59,231.72 C 330.74,231.76 329.70,231.74 328.91,231.78 C 328.11,231.82 327.42,231.89 326.82,231.98 C 326.23,232.06 325.73,232.17 325.34,232.30 C 324.94,232.44 324.65,232.59 324.45,232.77 C 324.26,232.94 324.17,233.14 324.17,233.36 C 324.18,233.58 324.29,233.82 324.49,234.09 C 324.70,234.35 325.01,234.64 325.41,234.95 C 325.82,235.25 326.33,235.58 326.94,235.94 C 327.55,236.29 328.40,236.64 329.06,237.06 C 329.73,237.48 330.35,237.95 330.92,238.45 C 331.50,238.96 332.03,239.51 332.52,240.11 C 333.00,240.71 333.45,241.35 333.84,242.03 C 334.24,242.72 334.60,243.45 334.91,244.22 C 335.22,244.99 335.48,245.81 335.70,246.67 C 335.92,247.53 336.10,248.44 336.23,249.39 C 336.37,250.34 336.46,251.34 336.50,252.38 C 336.54,253.41 336.53,254.60 336.50,255.62 C 336.47,256.65 336.42,257.62 336.34,258.54 C 336.25,259.45 336.14,260.31 336.01,261.12 C 335.87,261.92 335.71,262.67 335.52,263.36 C 335.32,264.05 335.11,264.69 334.86,265.27 C 334.61,265.85 334.34,266.37 334.04,266.84 C 333.74,267.30 333.41,267.71 333.05,268.07 C 332.70,268.43 332.32,268.73 331.91,268.97 C 331.50,269.21 331.02,269.34 330.59,269.53 C 330.17,269.72 329.76,269.91 329.36,270.09 C 328.96,270.28 328.58,270.47 328.20,270.66 C 327.83,270.84 327.47,271.03 327.12,271.22 C 326.78,271.41 326.45,271.59 326.12,271.78 C 325.80,271.97 325.50,272.16 325.20,272.34 C 324.91,272.53 324.63,272.72 324.36,272.91 C 324.09,273.09 323.84,273.28 323.59,273.47 C 323.35,273.66 323.07,273.85 322.91,274.03 C 322.74,274.21 322.65,274.38 322.62,274.53 C 322.60,274.69 322.64,274.83 322.75,274.97 C 322.86,275.10 323.04,275.23 323.28,275.34 C 323.53,275.46 323.84,275.56 324.22,275.66 C 324.60,275.75 325.05,275.83 325.56,275.91 C 326.08,275.98 326.66,276.04 327.31,276.09 C 327.96,276.15 328.68,276.19 329.47,276.22 C 330.26,276.25 331.22,276.24 332.03,276.28 C 332.84,276.32 333.61,276.37 334.33,276.44 C 335.05,276.51 335.73,276.59 336.36,276.69 C 336.99,276.79 337.58,276.90 338.12,277.03 C 338.67,277.16 339.17,277.31 339.62,277.47 C 340.08,277.63 340.49,277.81 340.86,278.00 C 341.23,278.19 341.55,278.40 341.83,278.62 C 342.11,278.85 342.34,279.09 342.53,279.34 C 342.72,279.60 342.84,279.89 342.97,280.16 C 343.09,280.43 343.20,280.70 343.28,280.97 C 343.36,281.24 343.43,281.51 343.47,281.78 C 343.51,282.05 343.53,282.32 343.53,282.59 C 343.53,282.86 343.51,283.14 343.47,283.41 C 343.43,283.68 343.36,283.95 343.28,284.22 C 343.20,284.49 343.09,284.76 342.97,285.03 C 342.84,285.30 342.70,285.57 342.53,285.84 C 342.36,286.11 342.21,286.36 341.97,286.66 C 341.73,286.95 341.43,287.26 341.07,287.60 C 340.71,287.94 340.30,288.30 339.84,288.68 C 339.37,289.06 338.85,289.46 338.27,289.89 C 337.69,290.32 337.05,290.76 336.36,291.23 C 335.67,291.70 334.92,292.20 334.12,292.71 C 333.31,293.23 332.45,293.76 331.54,294.32 C 330.62,294.88 329.65,295.46 328.62,296.06 C 327.60,296.67 326.40,297.35 325.38,297.94 C 324.35,298.53 323.37,299.08 322.45,299.59 C 321.53,300.11 320.67,300.59 319.86,301.03 C 319.05,301.47 318.29,301.88 317.59,302.25 C 316.89,302.62 316.25,302.95 315.66,303.25 C 315.07,303.55 314.53,303.81 314.05,304.03 C 313.57,304.26 313.14,304.44 312.77,304.59 C 312.39,304.74 312.08,304.86 311.81,304.94 C 311.55,305.02 311.42,305.03 311.19,305.06 C 310.96,305.09 310.71,305.11 310.44,305.11 C 310.17,305.11 309.88,305.10 309.56,305.08 C 309.25,305.05 308.92,305.02 308.56,304.97 C 308.21,304.92 307.83,304.86 307.44,304.78 C 307.04,304.71 306.62,304.62 306.19,304.52 C 305.75,304.41 305.29,304.30 304.81,304.17 C 304.33,304.04 303.83,303.90 303.31,303.75 C 302.79,303.60 302.20,303.42 301.69,303.25 C 301.17,303.08 300.68,302.91 300.22,302.73 C 299.76,302.56 299.32,302.38 298.91,302.20 C 298.49,302.02 298.11,301.84 297.75,301.66 C 297.39,301.47 297.06,301.28 296.75,301.09 C 296.44,300.90 296.16,300.71 295.91,300.52 C 295.65,300.32 295.42,300.12 295.22,299.92 C 295.02,299.72 294.84,299.52 294.69,299.31 C 294.54,299.11 294.47,298.90 294.31,298.69 C 294.15,298.47 293.96,298.25 293.74,298.02 C 293.52,297.80 293.26,297.56 292.98,297.32 C 292.69,297.08 292.37,296.83 292.02,296.58 C 291.66,296.32 291.28,296.06 290.86,295.80 C 290.44,295.53 289.99,295.26 289.51,294.98 C 289.02,294.70 288.51,294.41 287.96,294.12 C 287.41,293.82 286.83,293.52 286.22,293.22 C 285.61,292.91 284.87,292.59 284.28,292.28 C 283.69,291.97 283.15,291.67 282.67,291.38 C 282.19,291.08 281.76,290.79 281.39,290.50 C 281.02,290.21 280.70,289.93 280.44,289.66 C 280.17,289.38 279.97,289.11 279.81,288.84 C 279.66,288.58 279.56,288.32 279.52,288.06 C 279.47,287.81 279.48,287.56 279.55,287.31 C 279.61,287.07 279.73,286.83 279.91,286.59 C 280.08,286.36 280.35,286.13 280.59,285.91 C 280.83,285.68 281.09,285.47 281.35,285.26 C 281.62,285.05 281.89,284.85 282.18,284.65 C 282.47,284.45 282.77,284.26 283.08,284.08 C 283.39,283.89 283.71,283.72 284.05,283.55 C 284.38,283.38 284.73,283.21 285.09,283.05 C 285.44,282.90 285.81,282.75 286.20,282.60 C 286.58,282.46 286.97,282.32 287.38,282.19 C 287.78,282.06 288.23,281.93 288.62,281.81 C 289.02,281.69 289.39,281.57 289.74,281.46 C 290.09,281.35 290.42,281.24 290.73,281.13 C 291.03,281.03 291.32,280.93 291.58,280.83 C 291.84,280.73 292.08,280.64 292.30,280.55 C 292.51,280.46 292.71,280.37 292.88,280.29 C 293.06,280.21 293.21,280.13 293.34,280.05 C 293.46,279.98 293.57,279.91 293.66,279.84 C 293.74,279.78 293.79,279.73 293.84,279.66 C 293.90,279.59 293.95,279.51 293.98,279.42 C 294.02,279.34 294.05,279.24 294.08,279.14 C 294.10,279.04 294.12,278.93 294.12,278.81 C 294.13,278.70 294.13,278.57 294.12,278.44 C 294.12,278.30 294.10,278.16 294.08,278.02 C 294.05,277.87 294.02,277.71 293.98,277.55 C 293.95,277.38 293.90,277.21 293.84,277.03 C 293.79,276.85 293.73,276.65 293.66,276.47 C 293.58,276.29 293.50,276.12 293.40,275.96 C 293.30,275.80 293.19,275.65 293.07,275.51 C 292.95,275.37 292.82,275.23 292.67,275.11 C 292.53,274.99 292.37,274.87 292.20,274.77 C 292.04,274.66 291.86,274.56 291.66,274.48 C 291.47,274.39 291.27,274.31 291.05,274.24 C 290.84,274.17 290.61,274.11 290.38,274.06 C 290.14,274.01 289.88,273.99 289.62,273.94 C 289.37,273.88 289.11,273.81 288.84,273.72 C 288.58,273.63 288.31,273.53 288.03,273.41 C 287.76,273.29 287.47,273.15 287.19,273.00 C 286.90,272.85 286.61,272.68 286.31,272.50 C 286.02,272.32 285.71,272.12 285.41,271.91 C 285.10,271.69 284.79,271.46 284.47,271.22 C 284.15,270.97 283.83,270.71 283.50,270.44 C 283.17,270.16 282.83,269.82 282.50,269.56 C 282.17,269.30 281.84,269.07 281.52,268.88 C 281.19,268.68 280.87,268.51 280.55,268.38 C 280.23,268.24 279.91,268.14 279.59,268.06 C 279.28,267.99 278.97,267.95 278.66,267.94 C 278.35,267.93 278.04,267.95 277.73,268.00 C 277.43,268.05 277.13,268.14 276.83,268.25 C 276.53,268.36 276.23,268.51 275.94,268.69 C 275.64,268.86 275.38,269.12 275.06,269.31 C 274.74,269.51 274.40,269.69 274.03,269.86 C 273.66,270.03 273.27,270.18 272.84,270.33 C 272.42,270.47 271.97,270.60 271.50,270.72 C 271.03,270.84 270.53,270.94 270.00,271.03 C 269.47,271.12 268.92,271.20 268.34,271.27 C 267.77,271.33 267.16,271.38 266.53,271.42 C 265.90,271.46 265.24,271.49 264.56,271.50 C 263.88,271.51 263.11,271.51 262.44,271.50 C 261.76,271.49 261.12,271.48 260.52,271.45 C 259.91,271.43 259.34,271.40 258.80,271.36 C 258.26,271.32 257.75,271.27 257.28,271.22 C 256.81,271.16 256.37,271.10 255.97,271.03 C 255.57,270.96 255.20,270.88 254.86,270.80 C 254.52,270.71 254.22,270.62 253.95,270.52 C 253.68,270.41 253.45,270.30 253.25,270.19 C 253.05,270.07 252.93,269.92 252.75,269.81 C 252.57,269.70 252.38,269.61 252.17,269.53 C 251.97,269.45 251.75,269.39 251.52,269.34 C 251.28,269.30 251.04,269.27 250.78,269.25 C 250.52,269.23 250.25,269.23 249.97,269.25 C 249.68,269.27 249.39,269.30 249.08,269.34 C 248.77,269.39 248.45,269.45 248.11,269.53 C 247.77,269.61 247.42,269.70 247.06,269.81 C 246.70,269.92 246.29,270.06 245.94,270.19 C 245.58,270.31 245.24,270.44 244.92,270.56 C 244.60,270.69 244.30,270.81 244.02,270.94 C 243.73,271.06 243.47,271.19 243.22,271.31 C 242.97,271.44 242.74,271.56 242.53,271.69 C 242.32,271.81 242.13,271.94 241.95,272.06 C 241.78,272.19 241.62,272.31 241.48,272.44 C 241.35,272.56 241.23,272.69 241.12,272.81 C 241.02,272.94 240.96,273.07 240.88,273.19 C 240.79,273.30 240.71,273.41 240.62,273.50 C 240.54,273.59 240.46,273.68 240.38,273.75 C 240.29,273.82 240.21,273.89 240.12,273.94 C 240.04,273.99 239.96,274.03 239.88,274.06 C 239.79,274.09 239.71,274.11 239.62,274.12 C 239.54,274.14 239.46,274.14 239.38,274.12 C 239.29,274.11 239.21,274.09 239.12,274.06 C 239.04,274.03 238.95,273.97 238.88,273.94 C 238.80,273.91 238.72,273.89 238.66,273.88 C 238.59,273.86 238.53,273.86 238.47,273.88 C 238.41,273.89 238.36,273.91 238.31,273.94 C 238.27,273.97 238.22,274.01 238.19,274.06 C 238.15,274.11 238.12,274.18 238.09,274.25 C 238.07,274.32 238.05,274.41 238.03,274.50 C 238.02,274.59 238.01,274.70 238.00,274.81 C 237.99,274.93 238.01,275.08 238.00,275.19 C 237.99,275.30 237.98,275.39 237.95,275.47 C 237.93,275.55 237.90,275.61 237.86,275.66 C 237.82,275.70 237.77,275.73 237.72,275.75 C 237.66,275.77 237.60,275.77 237.53,275.75 C 237.46,275.73 237.38,275.70 237.30,275.66 C 237.21,275.61 237.12,275.55 237.02,275.47 C 236.91,275.39 236.80,275.30 236.69,275.19 C 236.57,275.08 236.49,274.91 236.31,274.81 C 236.14,274.71 235.91,274.64 235.64,274.59 C 235.37,274.55 235.04,274.53 234.67,274.53 C 234.30,274.54 233.88,274.57 233.41,274.62 C 232.93,274.68 232.41,274.77 231.84,274.88 C 231.27,274.98 230.65,275.12 229.98,275.28 C 229.32,275.44 228.60,275.63 227.83,275.84 C 227.06,276.06 226.24,276.30 225.38,276.56 C 224.51,276.83 223.51,277.16 222.62,277.44 C 221.74,277.71 220.88,277.97 220.05,278.20 C 219.22,278.44 218.41,278.66 217.64,278.86 C 216.87,279.06 216.12,279.24 215.41,279.41 C 214.69,279.57 214.00,279.72 213.34,279.84 C 212.68,279.97 212.05,280.08 211.45,280.17 C 210.85,280.26 210.28,280.34 209.73,280.39 C 209.19,280.45 208.67,280.48 208.19,280.50 C 207.70,280.52 207.25,280.49 206.81,280.50 C 206.37,280.51 205.95,280.52 205.55,280.54 C 205.15,280.56 204.77,280.58 204.41,280.62 C 204.05,280.65 203.71,280.69 203.39,280.73 C 203.07,280.78 202.77,280.83 202.48,280.89 C 202.20,280.95 201.94,281.01 201.70,281.09 C 201.45,281.16 201.23,281.24 201.02,281.32 C 200.82,281.40 200.63,281.50 200.47,281.59 C 200.30,281.69 200.15,281.80 200.03,281.91 C 199.92,282.02 199.83,282.13 199.78,282.25 C 199.73,282.37 199.71,282.49 199.72,282.62 C 199.73,282.76 199.77,282.89 199.84,283.03 C 199.92,283.17 200.02,283.32 200.16,283.47 C 200.29,283.62 200.46,283.78 200.66,283.94 C 200.85,284.10 201.08,284.27 201.34,284.44 C 201.60,284.61 201.90,284.79 202.22,284.97 C 202.54,285.15 202.95,285.35 203.28,285.53 C 203.62,285.72 203.93,285.90 204.23,286.08 C 204.53,286.26 204.82,286.43 205.08,286.61 C 205.34,286.78 205.59,286.96 205.81,287.12 C 206.04,287.29 206.25,287.46 206.44,287.62 C 206.63,287.79 206.80,287.95 206.95,288.11 C 207.11,288.27 207.24,288.42 207.36,288.58 C 207.48,288.73 207.58,288.88 207.66,289.03 C 207.74,289.18 207.79,289.33 207.84,289.47 C 207.90,289.61 207.94,289.75 207.97,289.89 C 208.00,290.03 208.02,290.16 208.03,290.30 C 208.04,290.43 208.04,290.56 208.03,290.69 C 208.02,290.82 208.00,290.94 207.97,291.06 C 207.94,291.18 207.90,291.30 207.84,291.42 C 207.79,291.54 207.73,291.65 207.66,291.77 C 207.58,291.88 207.50,291.99 207.41,292.09 C 207.31,292.20 207.22,292.30 207.09,292.41 C 206.96,292.51 206.81,292.63 206.63,292.74 C 206.45,292.86 206.25,292.98 206.02,293.10 C 205.80,293.23 205.54,293.35 205.27,293.48 C 204.99,293.62 204.69,293.75 204.36,293.89 C 204.03,294.03 203.68,294.17 203.30,294.32 C 202.93,294.47 202.53,294.62 202.10,294.77 C 201.68,294.93 201.23,295.09 200.75,295.25 C 200.27,295.41 199.73,295.58 199.25,295.75 C 198.77,295.92 198.30,296.10 197.86,296.28 C 197.41,296.46 196.99,296.65 196.58,296.84 C 196.17,297.04 195.78,297.23 195.41,297.44 C 195.03,297.64 194.68,297.85 194.34,298.06 C 194.01,298.28 193.69,298.49 193.39,298.72 C 193.09,298.94 192.81,299.17 192.55,299.41 C 192.28,299.64 192.04,299.88 191.81,300.12 C 191.59,300.37 191.41,300.63 191.19,300.88 C 190.96,301.12 190.72,301.35 190.45,301.58 C 190.19,301.80 189.91,302.02 189.61,302.23 C 189.31,302.45 188.99,302.65 188.66,302.84 C 188.32,303.04 187.97,303.23 187.59,303.41 C 187.22,303.59 186.83,303.76 186.42,303.92 C 186.01,304.09 185.59,304.24 185.14,304.39 C 184.70,304.54 184.23,304.68 183.75,304.81 C 183.27,304.95 182.73,305.07 182.25,305.19 C 181.77,305.30 181.32,305.41 180.89,305.52 C 180.46,305.62 180.05,305.71 179.67,305.80 C 179.29,305.88 178.93,305.96 178.59,306.03 C 178.26,306.10 177.95,306.16 177.66,306.22 C 177.37,306.27 177.10,306.32 176.86,306.36 C 176.62,306.40 176.40,306.43 176.20,306.45 C 176.01,306.48 175.84,306.49 175.69,306.50 Z" stroke="none" fill="currentColor" opacity="0.11" />
  <path d="M310.87,236.98L305.78,238.26 M311.05,237.01L305.63,238.35 M305.57,238.24L311.13,236.67 M310.87,272.05L305.78,270.77 M311.05,272.02L305.63,270.68 M305.67,270.79L311.13,272.36 M293.59,239.81L299.07,237.55 M293.59,239.81L300.32,237.14 M293.59,269.22L300.32,271.89 M293.59,269.22L299.07,271.49 M265.49,245.85L258.47,247.21 M258.47,261.82L265.64,263.22 M252.98,248.90L249.06,247.46 M312.01,261.08L324.86,261.16 M312.01,261.08L311.94,248.23 M243.79,247.54L237.71,246.55 M283.71,248.81L290.49,248.58 M237.71,262.48L243.79,261.50 M290.49,260.45L283.71,260.22 M306.62,229.98L298.64,236.67 M306.62,279.05L298.64,272.36 M281.32,246.26L277.10,242.82 M281.32,262.77L277.10,266.22 M309.30,274.24L307.48,268.03 M309.01,274.52L307.27,268.36 M307.39,267.50L309.23,273.81 M300.13,269.33L299.71,276.31 M300.04,268.79L299.64,275.89 M299.91,279.95L304.87,278.87 M304.87,278.87L309.83,277.79 M294.02,265.89L296.29,276.14 M319.58,288.21L301.35,290.85 M320.39,277.50L301.62,281.90 M301.56,282.08L279.81,286.99 M333.43,288.33L318.98,298.10 M296.39,282.72L289.76,284.14 M310.68,301.11L300.82,298.61 M320.09,293.21L328.20,287.21 M300.77,297.83L310.63,300.33 M307.09,272.16L301.59,272.27 M307.48,241.00L309.30,234.79 M307.39,241.53L309.23,235.22 M300.13,239.70L299.71,232.72 M300.04,240.24L299.64,233.14 M304.87,230.16L309.83,231.24 M305.09,228.85L300.13,227.77 M305.09,228.85L310.05,229.93 M296.29,232.89L294.02,243.14 M320.39,231.53L301.62,227.13 M301.56,226.95L279.81,222.04 M333.43,220.70L318.98,210.93 M296.39,226.31L289.76,224.89 M328.18,215.33L320.74,222.27 M300.86,210.40L310.72,207.93 M310.60,208.73L300.73,211.19 M307.09,236.87L301.59,236.76 M316.18,244.23L316.44,254.22 M322.67,244.97L318.18,254.19 M323.31,263.64L318.28,254.96 M330.25,247.02L325.11,246.21 M319.59,259.27L309.34,259.27 M306.23,259.36L311.52,259.36 M214.19,240.56L218.33,248.23 M250.46,241.46L246.41,241.57 M214.19,268.47L218.33,260.80 M250.46,267.57L246.41,267.46 M208.32,233.33L215.10,237.82 M170.92,247.98L168.55,254.19 M172.15,262.45L167.15,267.48 M208.32,275.70L216.20,270.48 M170.92,261.05L168.55,254.84 M222.57,254.72L222.57,248.71 M167.19,230.29L185.94,225.84 M186.00,225.66L207.74,220.70 M154.12,219.50L168.56,209.71 M191.18,225.03L197.81,223.59 M187.99,234.94L188.08,230.49 M176.54,207.43L186.41,209.90 M186.46,210.66L176.68,207.86 M167.94,214.74L159.59,220.41 M176.22,229.96L190.82,226.30 M176.45,230.87L191.06,227.20 M164.60,224.26L160.80,223.08 M168.01,289.48L186.19,292.14 M167.19,278.75L185.94,283.19 M186.00,283.37L207.74,288.33 M154.12,289.53L168.56,299.32 M191.18,284.00L197.81,285.44 M186.36,299.14L176.51,301.61 M176.72,301.15L186.49,298.36 M159.92,295.15L166.99,287.82 M176.36,278.64L190.97,282.31 M190.82,282.73L176.22,279.07 M191.06,281.83L176.45,278.16 M164.60,284.78L160.81,285.96 M189.31,251.70L183.22,251.70 M189.32,251.70L183.22,251.70 M189.31,257.34L183.22,257.34 M189.32,257.34L183.22,257.34" stroke="currentColor" stroke-width="0.6" stroke-linecap="round" fill="none" opacity="0.55" clip-path="url(#hull-clip)" filter="url(#glow)" />
  <path d="M 175.69,306.50 C 175.54,306.51 175.48,306.53 175.31,306.50 C 175.15,306.47 174.94,306.42 174.69,306.34 C 174.44,306.27 174.15,306.16 173.81,306.03 C 173.48,305.90 173.10,305.74 172.69,305.56 C 172.27,305.38 171.81,305.17 171.31,304.94 C 170.81,304.70 170.27,304.44 169.69,304.16 C 169.10,303.87 168.48,303.56 167.81,303.22 C 167.15,302.88 166.44,302.52 165.69,302.12 C 164.94,301.73 164.09,301.30 163.31,300.88 C 162.54,300.45 161.78,300.03 161.04,299.60 C 160.30,299.17 159.57,298.74 158.87,298.30 C 158.16,297.87 157.47,297.43 156.80,296.98 C 156.12,296.54 155.47,296.09 154.83,295.64 C 154.19,295.19 153.57,294.73 152.96,294.27 C 152.36,293.81 151.77,293.35 151.20,292.88 C 150.62,292.42 150.07,291.94 149.53,291.47 C 148.99,290.99 148.45,290.49 147.97,290.03 C 147.48,289.57 147.03,289.12 146.62,288.70 C 146.20,288.27 145.82,287.86 145.48,287.46 C 145.13,287.07 144.82,286.69 144.55,286.33 C 144.27,285.97 144.03,285.62 143.83,285.30 C 143.62,284.97 143.45,284.66 143.32,284.37 C 143.19,284.07 143.09,283.80 143.02,283.54 C 142.96,283.28 142.93,283.04 142.94,282.81 C 142.94,282.59 143.02,282.39 143.06,282.19 C 143.11,281.99 143.16,281.79 143.21,281.60 C 143.26,281.41 143.32,281.23 143.38,281.05 C 143.44,280.88 143.51,280.71 143.58,280.55 C 143.65,280.38 143.72,280.23 143.80,280.08 C 143.87,279.93 143.95,279.79 144.04,279.65 C 144.12,279.51 144.21,279.38 144.30,279.26 C 144.40,279.13 144.49,279.02 144.59,278.91 C 144.69,278.80 144.76,278.69 144.91,278.59 C 145.06,278.49 145.26,278.40 145.50,278.31 C 145.74,278.22 146.04,278.14 146.38,278.06 C 146.71,277.98 147.10,277.91 147.53,277.84 C 147.96,277.78 148.44,277.71 148.97,277.66 C 149.49,277.60 150.07,277.55 150.69,277.50 C 151.31,277.45 151.97,277.41 152.69,277.38 C 153.40,277.34 154.16,277.31 154.97,277.28 C 155.78,277.26 156.73,277.24 157.53,277.22 C 158.33,277.19 159.08,277.16 159.77,277.12 C 160.46,277.09 161.09,277.05 161.67,277.00 C 162.25,276.95 162.78,276.90 163.25,276.84 C 163.72,276.79 164.14,276.72 164.50,276.66 C 164.86,276.59 165.17,276.52 165.42,276.44 C 165.67,276.36 165.87,276.28 166.02,276.19 C 166.16,276.10 166.25,276.01 166.28,275.91 C 166.32,275.81 166.29,275.72 166.22,275.59 C 166.15,275.47 166.04,275.32 165.88,275.16 C 165.71,274.99 165.51,274.80 165.25,274.59 C 164.99,274.39 164.69,274.16 164.34,273.91 C 163.99,273.66 163.60,273.39 163.16,273.09 C 162.71,272.80 162.22,272.49 161.69,272.16 C 161.15,271.82 160.57,271.47 159.94,271.09 C 159.31,270.72 158.63,270.32 157.91,269.91 C 157.18,269.49 156.30,269.01 155.59,268.59 C 154.88,268.18 154.24,267.79 153.65,267.41 C 153.06,267.04 152.54,266.69 152.07,266.37 C 151.61,266.04 151.20,265.74 150.86,265.45 C 150.52,265.17 150.24,264.91 150.02,264.67 C 149.80,264.43 149.64,264.22 149.54,264.02 C 149.44,263.83 149.40,263.66 149.43,263.51 C 149.45,263.36 149.54,263.23 149.69,263.12 C 149.83,263.02 150.13,262.96 150.31,262.88 C 150.49,262.79 150.64,262.70 150.77,262.61 C 150.89,262.52 150.98,262.42 151.05,262.33 C 151.11,262.23 151.15,262.13 151.16,262.03 C 151.16,261.93 151.14,261.83 151.09,261.72 C 151.04,261.61 150.97,261.50 150.86,261.39 C 150.75,261.28 150.62,261.16 150.45,261.05 C 150.29,260.93 150.10,260.81 149.88,260.69 C 149.65,260.57 149.36,260.46 149.12,260.31 C 148.89,260.17 148.67,260.01 148.47,259.83 C 148.27,259.65 148.08,259.45 147.91,259.23 C 147.73,259.02 147.58,258.78 147.44,258.53 C 147.30,258.28 147.17,258.01 147.06,257.72 C 146.95,257.43 146.86,257.12 146.78,256.80 C 146.70,256.47 146.64,256.13 146.59,255.77 C 146.55,255.40 146.52,255.02 146.50,254.62 C 146.48,254.23 146.48,253.77 146.50,253.38 C 146.52,252.98 146.55,252.60 146.59,252.23 C 146.64,251.87 146.70,251.53 146.78,251.20 C 146.86,250.88 146.95,250.57 147.06,250.28 C 147.17,249.99 147.30,249.72 147.44,249.47 C 147.58,249.22 147.73,248.98 147.91,248.77 C 148.08,248.55 148.27,248.35 148.47,248.17 C 148.67,247.99 148.89,247.83 149.12,247.69 C 149.36,247.54 149.65,247.43 149.88,247.31 C 150.10,247.19 150.29,247.07 150.45,246.95 C 150.62,246.84 150.75,246.72 150.86,246.61 C 150.97,246.50 151.04,246.39 151.09,246.28 C 151.14,246.17 151.16,246.07 151.16,245.97 C 151.15,245.87 151.11,245.77 151.05,245.67 C 150.98,245.58 150.89,245.48 150.77,245.39 C 150.64,245.30 150.49,245.21 150.31,245.12 C 150.13,245.04 149.83,244.98 149.69,244.88 C 149.54,244.77 149.46,244.64 149.44,244.48 C 149.42,244.33 149.46,244.15 149.56,243.95 C 149.67,243.75 149.83,243.53 150.06,243.28 C 150.29,243.03 150.58,242.76 150.94,242.47 C 151.29,242.17 151.71,241.86 152.19,241.52 C 152.67,241.17 153.21,240.81 153.81,240.42 C 154.42,240.03 155.08,239.62 155.81,239.19 C 156.54,238.75 157.45,238.25 158.19,237.81 C 158.93,237.38 159.62,236.96 160.26,236.57 C 160.90,236.18 161.49,235.81 162.02,235.46 C 162.56,235.11 163.05,234.79 163.48,234.48 C 163.92,234.18 164.31,233.90 164.64,233.64 C 164.98,233.38 165.26,233.14 165.49,232.93 C 165.73,232.71 165.91,232.52 166.04,232.35 C 166.17,232.18 166.25,232.03 166.28,231.91 C 166.31,231.78 166.29,231.69 166.22,231.59 C 166.15,231.50 166.02,231.40 165.85,231.32 C 165.68,231.24 165.45,231.16 165.18,231.09 C 164.90,231.01 164.58,230.95 164.20,230.89 C 163.83,230.83 163.40,230.78 162.92,230.73 C 162.44,230.69 161.92,230.65 161.34,230.62 C 160.76,230.58 160.13,230.56 159.45,230.54 C 158.76,230.52 158.03,230.51 157.25,230.50 C 156.47,230.49 155.54,230.51 154.75,230.50 C 153.96,230.49 153.22,230.48 152.52,230.46 C 151.83,230.44 151.18,230.42 150.57,230.38 C 149.96,230.35 149.40,230.31 148.89,230.27 C 148.38,230.22 147.91,230.17 147.48,230.11 C 147.06,230.05 146.68,229.99 146.35,229.91 C 146.02,229.84 145.73,229.76 145.49,229.68 C 145.25,229.60 145.06,229.50 144.91,229.41 C 144.76,229.31 144.69,229.20 144.59,229.09 C 144.49,228.98 144.40,228.87 144.30,228.74 C 144.21,228.62 144.12,228.49 144.04,228.35 C 143.95,228.21 143.87,228.07 143.80,227.92 C 143.72,227.77 143.65,227.62 143.58,227.45 C 143.51,227.29 143.44,227.12 143.38,226.95 C 143.32,226.77 143.26,226.59 143.21,226.40 C 143.16,226.21 143.11,226.01 143.06,225.81 C 143.02,225.61 142.96,225.40 142.94,225.19 C 142.92,224.97 142.91,224.75 142.93,224.52 C 142.95,224.30 142.98,224.06 143.04,223.82 C 143.10,223.58 143.17,223.33 143.27,223.08 C 143.36,222.82 143.48,222.56 143.61,222.30 C 143.74,222.03 143.90,221.76 144.07,221.48 C 144.24,221.20 144.44,220.91 144.65,220.62 C 144.86,220.32 145.09,220.02 145.34,219.72 C 145.60,219.41 145.85,219.11 146.16,218.78 C 146.46,218.46 146.81,218.12 147.20,217.77 C 147.58,217.43 148.00,217.07 148.46,216.70 C 148.92,216.32 149.42,215.94 149.95,215.55 C 150.49,215.15 151.06,214.75 151.67,214.33 C 152.28,213.91 152.93,213.48 153.62,213.04 C 154.30,212.60 155.03,212.14 155.79,211.68 C 156.55,211.21 157.35,210.74 158.19,210.25 C 159.02,209.76 159.97,209.22 160.81,208.75 C 161.65,208.28 162.45,207.83 163.22,207.41 C 163.98,206.98 164.71,206.59 165.41,206.22 C 166.10,205.85 166.76,205.51 167.38,205.19 C 167.99,204.87 168.58,204.58 169.12,204.31 C 169.67,204.05 170.18,203.81 170.66,203.59 C 171.13,203.38 171.57,203.19 171.97,203.03 C 172.37,202.87 172.73,202.73 173.06,202.62 C 173.39,202.52 173.63,202.45 173.94,202.38 C 174.24,202.30 174.56,202.25 174.89,202.20 C 175.22,202.16 175.57,202.13 175.92,202.11 C 176.28,202.09 176.65,202.09 177.03,202.09 C 177.41,202.10 177.81,202.12 178.22,202.16 C 178.63,202.19 179.05,202.24 179.48,202.30 C 179.92,202.36 180.37,202.43 180.83,202.52 C 181.29,202.60 181.76,202.70 182.25,202.81 C 182.74,202.92 183.27,203.05 183.75,203.19 C 184.23,203.32 184.70,203.46 185.14,203.61 C 185.59,203.76 186.01,203.91 186.42,204.08 C 186.83,204.24 187.22,204.41 187.59,204.59 C 187.97,204.77 188.32,204.96 188.66,205.16 C 188.99,205.35 189.31,205.55 189.61,205.77 C 189.91,205.98 190.19,206.20 190.45,206.42 C 190.72,206.65 190.96,206.88 191.19,207.12 C 191.41,207.37 191.59,207.63 191.81,207.88 C 192.04,208.12 192.28,208.36 192.55,208.59 C 192.81,208.83 193.09,209.06 193.39,209.28 C 193.69,209.51 194.01,209.72 194.34,209.94 C 194.68,210.15 195.03,210.36 195.41,210.56 C 195.78,210.77 196.17,210.96 196.58,211.16 C 196.99,211.35 197.41,211.54 197.86,211.72 C 198.30,211.90 198.77,212.08 199.25,212.25 C 199.73,212.42 200.27,212.59 200.75,212.75 C 201.23,212.91 201.68,213.07 202.10,213.23 C 202.53,213.38 202.93,213.53 203.30,213.68 C 203.68,213.83 204.03,213.97 204.36,214.11 C 204.69,214.25 204.99,214.38 205.27,214.52 C 205.54,214.65 205.80,214.77 206.02,214.90 C 206.25,215.02 206.45,215.14 206.63,215.26 C 206.81,215.37 206.96,215.49 207.09,215.59 C 207.22,215.70 207.31,215.80 207.41,215.91 C 207.50,216.01 207.58,216.12 207.66,216.23 C 207.73,216.35 207.79,216.46 207.84,216.58 C 207.90,216.70 207.94,216.82 207.97,216.94 C 208.00,217.06 208.02,217.18 208.03,217.31 C 208.04,217.44 208.04,217.57 208.03,217.70 C 208.02,217.84 208.00,217.97 207.97,218.11 C 207.94,218.25 207.90,218.39 207.84,218.53 C 207.79,218.67 207.74,218.82 207.66,218.97 C 207.58,219.12 207.48,219.27 207.36,219.42 C 207.24,219.58 207.11,219.73 206.95,219.89 C 206.80,220.05 206.63,220.21 206.44,220.38 C 206.25,220.54 206.04,220.71 205.81,220.88 C 205.59,221.04 205.34,221.22 205.08,221.39 C 204.82,221.57 204.53,221.74 204.23,221.92 C 203.93,222.10 203.62,222.28 203.28,222.47 C 202.95,222.65 202.54,222.85 202.22,223.03 C 201.90,223.21 201.60,223.39 201.34,223.56 C 201.08,223.73 200.85,223.90 200.66,224.06 C 200.46,224.22 200.29,224.38 200.16,224.53 C 200.02,224.68 199.92,224.83 199.84,224.97 C 199.77,225.11 199.73,225.24 199.72,225.38 C 199.71,225.51 199.73,225.63 199.78,225.75 C 199.83,225.87 199.92,225.98 200.03,226.09 C 200.15,226.20 200.30,226.31 200.47,226.41 C 200.63,226.50 200.82,226.60 201.02,226.68 C 201.23,226.76 201.45,226.84 201.70,226.91 C 201.94,226.99 202.20,227.05 202.48,227.11 C 202.77,227.17 203.07,227.22 203.39,227.27 C 203.71,227.31 204.05,227.35 204.41,227.38 C 204.77,227.42 205.15,227.44 205.55,227.46 C 205.95,227.48 206.37,227.49 206.81,227.50 C 207.25,227.51 207.70,227.48 208.19,227.50 C 208.67,227.52 209.18,227.55 209.72,227.61 C 210.26,227.66 210.82,227.74 211.41,227.83 C 211.99,227.92 212.61,228.03 213.25,228.16 C 213.89,228.28 214.56,228.43 215.25,228.59 C 215.94,228.76 216.66,228.94 217.41,229.14 C 218.15,229.34 218.92,229.56 219.72,229.80 C 220.52,230.03 221.34,230.29 222.19,230.56 C 223.04,230.84 223.98,231.17 224.81,231.44 C 225.64,231.70 226.43,231.94 227.17,232.16 C 227.91,232.37 228.61,232.56 229.27,232.72 C 229.92,232.88 230.53,233.02 231.09,233.12 C 231.66,233.23 232.18,233.32 232.66,233.38 C 233.13,233.43 233.57,233.46 233.95,233.47 C 234.34,233.47 234.68,233.45 234.98,233.41 C 235.28,233.36 235.54,233.29 235.75,233.19 C 235.96,233.09 236.09,232.92 236.25,232.81 C 236.41,232.71 236.55,232.62 236.69,232.55 C 236.82,232.48 236.95,232.42 237.06,232.39 C 237.18,232.36 237.28,232.34 237.38,232.34 C 237.47,232.35 237.55,232.37 237.62,232.41 C 237.70,232.45 237.76,232.50 237.81,232.58 C 237.86,232.65 237.91,232.75 237.94,232.86 C 237.97,232.97 237.99,233.10 238.00,233.25 C 238.01,233.40 237.99,233.60 238.00,233.75 C 238.01,233.90 238.02,234.04 238.03,234.16 C 238.05,234.28 238.07,234.38 238.09,234.47 C 238.12,234.56 238.15,234.63 238.19,234.69 C 238.22,234.74 238.27,234.79 238.31,234.81 C 238.36,234.84 238.41,234.85 238.47,234.84 C 238.53,234.84 238.59,234.82 238.66,234.78 C 238.72,234.74 238.80,234.69 238.88,234.62 C 238.95,234.56 239.04,234.45 239.12,234.38 C 239.21,234.30 239.29,234.25 239.38,234.20 C 239.46,234.16 239.54,234.13 239.62,234.11 C 239.71,234.09 239.79,234.09 239.88,234.09 C 239.96,234.10 240.04,234.12 240.12,234.16 C 240.21,234.19 240.29,234.24 240.38,234.30 C 240.46,234.36 240.54,234.43 240.62,234.52 C 240.71,234.60 240.79,234.70 240.88,234.81 C 240.96,234.92 241.02,235.06 241.12,235.19 C 241.23,235.31 241.35,235.44 241.48,235.56 C 241.62,235.69 241.78,235.81 241.95,235.94 C 242.13,236.06 242.32,236.19 242.53,236.31 C 242.74,236.44 242.97,236.56 243.22,236.69 C 243.47,236.81 243.73,236.94 244.02,237.06 C 244.30,237.19 244.60,237.31 244.92,237.44 C 245.24,237.56 245.58,237.69 245.94,237.81 C 246.29,237.94 246.70,238.08 247.06,238.19 C 247.42,238.30 247.77,238.39 248.11,238.47 C 248.45,238.55 248.77,238.61 249.08,238.66 C 249.39,238.70 249.68,238.73 249.97,238.75 C 250.25,238.77 250.52,238.77 250.78,238.75 C 251.04,238.73 251.28,238.70 251.52,238.66 C 251.75,238.61 251.97,238.55 252.17,238.47 C 252.38,238.39 252.57,238.30 252.75,238.19 C 252.93,238.08 253.05,237.93 253.25,237.81 C 253.45,237.70 253.68,237.59 253.95,237.48 C 254.22,237.38 254.52,237.29 254.86,237.20 C 255.20,237.12 255.57,237.04 255.97,236.97 C 256.37,236.90 256.81,236.84 257.28,236.78 C 257.75,236.73 258.26,236.68 258.80,236.64 C 259.34,236.60 259.91,236.57 260.52,236.55 C 261.12,236.52 261.76,236.51 262.44,236.50 C 263.11,236.49 263.88,236.49 264.56,236.50 C 265.24,236.51 265.90,236.54 266.53,236.58 C 267.16,236.62 267.77,236.67 268.34,236.73 C 268.92,236.80 269.47,236.88 270.00,236.97 C 270.53,237.06 271.03,237.16 271.50,237.28 C 271.97,237.40 272.42,237.53 272.84,237.67 C 273.27,237.82 273.66,237.97 274.03,238.14 C 274.40,238.31 274.74,238.49 275.06,238.69 C 275.38,238.88 275.64,239.14 275.94,239.31 C 276.23,239.49 276.53,239.64 276.83,239.75 C 277.13,239.86 277.43,239.95 277.73,240.00 C 278.04,240.05 278.35,240.07 278.66,240.06 C 278.97,240.05 279.28,240.01 279.59,239.94 C 279.91,239.86 280.23,239.76 280.55,239.62 C 280.87,239.49 281.19,239.32 281.52,239.12 C 281.84,238.93 282.17,238.70 282.50,238.44 C 282.83,238.18 283.17,237.84 283.50,237.56 C 283.83,237.29 284.15,237.03 284.47,236.78 C 284.79,236.54 285.10,236.31 285.41,236.09 C 285.71,235.88 286.02,235.68 286.31,235.50 C 286.61,235.32 286.90,235.15 287.19,235.00 C 287.47,234.85 287.76,234.71 288.03,234.59 C 288.31,234.47 288.58,234.37 288.84,234.28 C 289.11,234.19 289.37,234.12 289.62,234.06 C 289.88,234.01 290.14,233.99 290.38,233.94 C 290.61,233.89 290.84,233.83 291.05,233.76 C 291.27,233.69 291.47,233.61 291.66,233.52 C 291.86,233.44 292.04,233.34 292.20,233.23 C 292.37,233.13 292.53,233.01 292.67,232.89 C 292.82,232.77 292.95,232.63 293.07,232.49 C 293.19,232.35 293.30,232.20 293.40,232.04 C 293.50,231.88 293.58,231.71 293.66,231.53 C 293.73,231.35 293.82,231.16 293.84,230.97 C 293.87,230.78 293.87,230.59 293.83,230.41 C 293.79,230.22 293.72,230.03 293.61,229.84 C 293.50,229.66 293.36,229.47 293.19,229.28 C 293.01,229.09 292.80,228.91 292.56,228.72 C 292.32,228.53 292.04,228.34 291.73,228.16 C 291.42,227.97 291.08,227.78 290.70,227.59 C 290.33,227.41 289.91,227.22 289.47,227.03 C 289.02,226.84 288.49,226.66 288.03,226.47 C 287.57,226.28 287.12,226.09 286.69,225.89 C 286.26,225.70 285.84,225.50 285.44,225.30 C 285.04,225.10 284.65,224.89 284.28,224.69 C 283.91,224.48 283.56,224.27 283.22,224.06 C 282.88,223.85 282.56,223.64 282.25,223.42 C 281.94,223.21 281.65,222.99 281.38,222.77 C 281.10,222.54 280.84,222.32 280.59,222.09 C 280.35,221.87 280.08,221.64 279.91,221.41 C 279.73,221.17 279.61,220.93 279.55,220.69 C 279.48,220.44 279.47,220.19 279.52,219.94 C 279.56,219.68 279.66,219.42 279.81,219.16 C 279.97,218.89 280.17,218.62 280.44,218.34 C 280.70,218.07 281.02,217.79 281.39,217.50 C 281.76,217.21 282.19,216.92 282.67,216.62 C 283.15,216.33 283.69,216.03 284.28,215.72 C 284.87,215.41 285.61,215.09 286.22,214.78 C 286.83,214.48 287.41,214.18 287.96,213.88 C 288.51,213.59 289.02,213.30 289.51,213.02 C 289.99,212.74 290.44,212.47 290.86,212.20 C 291.28,211.94 291.66,211.68 292.02,211.42 C 292.37,211.17 292.69,210.92 292.98,210.68 C 293.26,210.44 293.52,210.20 293.74,209.98 C 293.96,209.75 294.15,209.53 294.31,209.31 C 294.47,209.10 294.55,208.89 294.69,208.69 C 294.82,208.49 294.97,208.29 295.12,208.11 C 295.28,207.92 295.45,207.75 295.62,207.58 C 295.80,207.41 295.99,207.25 296.19,207.09 C 296.39,206.94 296.59,206.79 296.81,206.66 C 297.03,206.52 297.26,206.39 297.50,206.27 C 297.74,206.14 297.99,206.03 298.25,205.92 C 298.51,205.82 298.78,205.72 299.06,205.62 C 299.34,205.53 299.64,205.46 299.94,205.38 C 300.23,205.29 300.54,205.21 300.84,205.12 C 301.15,205.04 301.46,204.96 301.78,204.88 C 302.10,204.79 302.42,204.71 302.75,204.62 C 303.08,204.54 303.41,204.46 303.75,204.38 C 304.09,204.29 304.43,204.21 304.78,204.12 C 305.13,204.04 305.48,203.96 305.84,203.88 C 306.20,203.79 306.57,203.71 306.94,203.62 C 307.31,203.54 307.64,203.41 308.06,203.38 C 308.49,203.34 308.96,203.35 309.48,203.41 C 310.01,203.46 310.58,203.57 311.20,203.72 C 311.83,203.87 312.50,204.07 313.22,204.31 C 313.94,204.56 314.71,204.85 315.53,205.19 C 316.35,205.53 317.22,205.91 318.14,206.34 C 319.06,206.78 320.03,207.26 321.05,207.78 C 322.07,208.31 323.13,208.88 324.25,209.50 C 325.37,210.12 326.64,210.86 327.75,211.50 C 328.86,212.14 329.90,212.76 330.88,213.35 C 331.87,213.94 332.79,214.51 333.65,215.05 C 334.51,215.60 335.31,216.12 336.05,216.61 C 336.79,217.10 337.46,217.57 338.08,218.02 C 338.69,218.46 339.25,218.88 339.74,219.27 C 340.24,219.67 340.67,220.04 341.04,220.38 C 341.41,220.73 341.72,221.05 341.97,221.34 C 342.22,221.64 342.36,221.89 342.53,222.16 C 342.70,222.43 342.84,222.70 342.97,222.97 C 343.09,223.24 343.20,223.51 343.28,223.78 C 343.36,224.05 343.43,224.32 343.47,224.59 C 343.51,224.86 343.53,225.14 343.53,225.41 C 343.53,225.68 343.51,225.95 343.47,226.22 C 343.43,226.49 343.36,226.76 343.28,227.03 C 343.20,227.30 343.09,227.57 342.97,227.84 C 342.84,228.11 342.72,228.40 342.53,228.66 C 342.34,228.91 342.10,229.15 341.81,229.38 C 341.53,229.60 341.19,229.81 340.81,230.00 C 340.43,230.19 340.01,230.37 339.53,230.53 C 339.06,230.69 338.54,230.84 337.97,230.97 C 337.40,231.10 336.79,231.21 336.12,231.31 C 335.46,231.41 334.76,231.49 334.00,231.56 C 333.24,231.63 332.44,231.68 331.59,231.72 C 330.74,231.76 329.70,231.74 328.91,231.78 C 328.11,231.82 327.42,231.89 326.82,231.98 C 326.23,232.06 325.73,232.17 325.34,232.30 C 324.94,232.44 324.65,232.59 324.45,232.77 C 324.26,232.94 324.17,233.14 324.17,233.36 C 324.18,233.58 324.29,233.82 324.49,234.09 C 324.70,234.35 325.01,234.64 325.41,234.95 C 325.82,235.25 326.33,235.58 326.94,235.94 C 327.55,236.29 328.40,236.64 329.06,237.06 C 329.73,237.48 330.35,237.95 330.92,238.45 C 331.50,238.96 332.03,239.51 332.52,240.11 C 333.00,240.71 333.45,241.35 333.84,242.03 C 334.24,242.72 334.60,243.45 334.91,244.22 C 335.22,244.99 335.48,245.81 335.70,246.67 C 335.92,247.53 336.10,248.44 336.23,249.39 C 336.37,250.34 336.46,251.34 336.50,252.38 C 336.54,253.41 336.53,254.60 336.50,255.62 C 336.47,256.65 336.42,257.62 336.34,258.54 C 336.25,259.45 336.14,260.31 336.01,261.12 C 335.87,261.92 335.71,262.67 335.52,263.36 C 335.32,264.05 335.11,264.69 334.86,265.27 C 334.61,265.85 334.34,266.37 334.04,266.84 C 333.74,267.30 333.41,267.71 333.05,268.07 C 332.70,268.43 332.32,268.73 331.91,268.97 C 331.50,269.21 331.02,269.34 330.59,269.53 C 330.17,269.72 329.76,269.91 329.36,270.09 C 328.96,270.28 328.58,270.47 328.20,270.66 C 327.83,270.84 327.47,271.03 327.12,271.22 C 326.78,271.41 326.45,271.59 326.12,271.78 C 325.80,271.97 325.50,272.16 325.20,272.34 C 324.91,272.53 324.63,272.72 324.36,272.91 C 324.09,273.09 323.84,273.28 323.59,273.47 C 323.35,273.66 323.07,273.85 322.91,274.03 C 322.74,274.21 322.65,274.38 322.62,274.53 C 322.60,274.69 322.64,274.83 322.75,274.97 C 322.86,275.10 323.04,275.23 323.28,275.34 C 323.53,275.46 323.84,275.56 324.22,275.66 C 324.60,275.75 325.05,275.83 325.56,275.91 C 326.08,275.98 326.66,276.04 327.31,276.09 C 327.96,276.15 328.68,276.19 329.47,276.22 C 330.26,276.25 331.22,276.24 332.03,276.28 C 332.84,276.32 333.61,276.37 334.33,276.44 C 335.05,276.51 335.73,276.59 336.36,276.69 C 336.99,276.79 337.58,276.90 338.12,277.03 C 338.67,277.16 339.17,277.31 339.62,277.47 C 340.08,277.63 340.49,277.81 340.86,278.00 C 341.23,278.19 341.55,278.40 341.83,278.62 C 342.11,278.85 342.34,279.09 342.53,279.34 C 342.72,279.60 342.84,279.89 342.97,280.16 C 343.09,280.43 343.20,280.70 343.28,280.97 C 343.36,281.24 343.43,281.51 343.47,281.78 C 343.51,282.05 343.53,282.32 343.53,282.59 C 343.53,282.86 343.51,283.14 343.47,283.41 C 343.43,283.68 343.36,283.95 343.28,284.22 C 343.20,284.49 343.09,284.76 342.97,285.03 C 342.84,285.30 342.70,285.57 342.53,285.84 C 342.36,286.11 342.21,286.36 341.97,286.66 C 341.73,286.95 341.43,287.26 341.07,287.60 C 340.71,287.94 340.30,288.30 339.84,288.68 C 339.37,289.06 338.85,289.46 338.27,289.89 C 337.69,290.32 337.05,290.76 336.36,291.23 C 335.67,291.70 334.92,292.20 334.12,292.71 C 333.31,293.23 332.45,293.76 331.54,294.32 C 330.62,294.88 329.65,295.46 328.62,296.06 C 327.60,296.67 326.40,297.35 325.38,297.94 C 324.35,298.53 323.37,299.08 322.45,299.59 C 321.53,300.11 320.67,300.59 319.86,301.03 C 319.05,301.47 318.29,301.88 317.59,302.25 C 316.89,302.62 316.25,302.95 315.66,303.25 C 315.07,303.55 314.53,303.81 314.05,304.03 C 313.57,304.26 313.14,304.44 312.77,304.59 C 312.39,304.74 312.08,304.86 311.81,304.94 C 311.55,305.02 311.42,305.03 311.19,305.06 C 310.96,305.09 310.71,305.11 310.44,305.11 C 310.17,305.11 309.88,305.10 309.56,305.08 C 309.25,305.05 308.92,305.02 308.56,304.97 C 308.21,304.92 307.83,304.86 307.44,304.78 C 307.04,304.71 306.62,304.62 306.19,304.52 C 305.75,304.41 305.29,304.30 304.81,304.17 C 304.33,304.04 303.83,303.90 303.31,303.75 C 302.79,303.60 302.20,303.42 301.69,303.25 C 301.17,303.08 300.68,302.91 300.22,302.73 C 299.76,302.56 299.32,302.38 298.91,302.20 C 298.49,302.02 298.11,301.84 297.75,301.66 C 297.39,301.47 297.06,301.28 296.75,301.09 C 296.44,300.90 296.16,300.71 295.91,300.52 C 295.65,300.32 295.42,300.12 295.22,299.92 C 295.02,299.72 294.84,299.52 294.69,299.31 C 294.54,299.11 294.47,298.90 294.31,298.69 C 294.15,298.47 293.96,298.25 293.74,298.02 C 293.52,297.80 293.26,297.56 292.98,297.32 C 292.69,297.08 292.37,296.83 292.02,296.58 C 291.66,296.32 291.28,296.06 290.86,295.80 C 290.44,295.53 289.99,295.26 289.51,294.98 C 289.02,294.70 288.51,294.41 287.96,294.12 C 287.41,293.82 286.83,293.52 286.22,293.22 C 285.61,292.91 284.87,292.59 284.28,292.28 C 283.69,291.97 283.15,291.67 282.67,291.38 C 282.19,291.08 281.76,290.79 281.39,290.50 C 281.02,290.21 280.70,289.93 280.44,289.66 C 280.17,289.38 279.97,289.11 279.81,288.84 C 279.66,288.58 279.56,288.32 279.52,288.06 C 279.47,287.81 279.48,287.56 279.55,287.31 C 279.61,287.07 279.73,286.83 279.91,286.59 C 280.08,286.36 280.35,286.13 280.59,285.91 C 280.83,285.68 281.09,285.47 281.35,285.26 C 281.62,285.05 281.89,284.85 282.18,284.65 C 282.47,284.45 282.77,284.26 283.08,284.08 C 283.39,283.89 283.71,283.72 284.05,283.55 C 284.38,283.38 284.73,283.21 285.09,283.05 C 285.44,282.90 285.81,282.75 286.20,282.60 C 286.58,282.46 286.97,282.32 287.38,282.19 C 287.78,282.06 288.23,281.93 288.62,281.81 C 289.02,281.69 289.39,281.57 289.74,281.46 C 290.09,281.35 290.42,281.24 290.73,281.13 C 291.03,281.03 291.32,280.93 291.58,280.83 C 291.84,280.73 292.08,280.64 292.30,280.55 C 292.51,280.46 292.71,280.37 292.88,280.29 C 293.06,280.21 293.21,280.13 293.34,280.05 C 293.46,279.98 293.57,279.91 293.66,279.84 C 293.74,279.78 293.79,279.73 293.84,279.66 C 293.90,279.59 293.95,279.51 293.98,279.42 C 294.02,279.34 294.05,279.24 294.08,279.14 C 294.10,279.04 294.12,278.93 294.12,278.81 C 294.13,278.70 294.13,278.57 294.12,278.44 C 294.12,278.30 294.10,278.16 294.08,278.02 C 294.05,277.87 294.02,277.71 293.98,277.55 C 293.95,277.38 293.90,277.21 293.84,277.03 C 293.79,276.85 293.73,276.65 293.66,276.47 C 293.58,276.29 293.50,276.12 293.40,275.96 C 293.30,275.80 293.19,275.65 293.07,275.51 C 292.95,275.37 292.82,275.23 292.67,275.11 C 292.53,274.99 292.37,274.87 292.20,274.77 C 292.04,274.66 291.86,274.56 291.66,274.48 C 291.47,274.39 291.27,274.31 291.05,274.24 C 290.84,274.17 290.61,274.11 290.38,274.06 C 290.14,274.01 289.88,273.99 289.62,273.94 C 289.37,273.88 289.11,273.81 288.84,273.72 C 288.58,273.63 288.31,273.53 288.03,273.41 C 287.76,273.29 287.47,273.15 287.19,273.00 C 286.90,272.85 286.61,272.68 286.31,272.50 C 286.02,272.32 285.71,272.12 285.41,271.91 C 285.10,271.69 284.79,271.46 284.47,271.22 C 284.15,270.97 283.83,270.71 283.50,270.44 C 283.17,270.16 282.83,269.82 282.50,269.56 C 282.17,269.30 281.84,269.07 281.52,268.88 C 281.19,268.68 280.87,268.51 280.55,268.38 C 280.23,268.24 279.91,268.14 279.59,268.06 C 279.28,267.99 278.97,267.95 278.66,267.94 C 278.35,267.93 278.04,267.95 277.73,268.00 C 277.43,268.05 277.13,268.14 276.83,268.25 C 276.53,268.36 276.23,268.51 275.94,268.69 C 275.64,268.86 275.38,269.12 275.06,269.31 C 274.74,269.51 274.40,269.69 274.03,269.86 C 273.66,270.03 273.27,270.18 272.84,270.33 C 272.42,270.47 271.97,270.60 271.50,270.72 C 271.03,270.84 270.53,270.94 270.00,271.03 C 269.47,271.12 268.92,271.20 268.34,271.27 C 267.77,271.33 267.16,271.38 266.53,271.42 C 265.90,271.46 265.24,271.49 264.56,271.50 C 263.88,271.51 263.11,271.51 262.44,271.50 C 261.76,271.49 261.12,271.48 260.52,271.45 C 259.91,271.43 259.34,271.40 258.80,271.36 C 258.26,271.32 257.75,271.27 257.28,271.22 C 256.81,271.16 256.37,271.10 255.97,271.03 C 255.57,270.96 255.20,270.88 254.86,270.80 C 254.52,270.71 254.22,270.62 253.95,270.52 C 253.68,270.41 253.45,270.30 253.25,270.19 C 253.05,270.07 252.93,269.92 252.75,269.81 C 252.57,269.70 252.38,269.61 252.17,269.53 C 251.97,269.45 251.75,269.39 251.52,269.34 C 251.28,269.30 251.04,269.27 250.78,269.25 C 250.52,269.23 250.25,269.23 249.97,269.25 C 249.68,269.27 249.39,269.30 249.08,269.34 C 248.77,269.39 248.45,269.45 248.11,269.53 C 247.77,269.61 247.42,269.70 247.06,269.81 C 246.70,269.92 246.29,270.06 245.94,270.19 C 245.58,270.31 245.24,270.44 244.92,270.56 C 244.60,270.69 244.30,270.81 244.02,270.94 C 243.73,271.06 243.47,271.19 243.22,271.31 C 242.97,271.44 242.74,271.56 242.53,271.69 C 242.32,271.81 242.13,271.94 241.95,272.06 C 241.78,272.19 241.62,272.31 241.48,272.44 C 241.35,272.56 241.23,272.69 241.12,272.81 C 241.02,272.94 240.96,273.07 240.88,273.19 C 240.79,273.30 240.71,273.41 240.62,273.50 C 240.54,273.59 240.46,273.68 240.38,273.75 C 240.29,273.82 240.21,273.89 240.12,273.94 C 240.04,273.99 239.96,274.03 239.88,274.06 C 239.79,274.09 239.71,274.11 239.62,274.12 C 239.54,274.14 239.46,274.14 239.38,274.12 C 239.29,274.11 239.21,274.09 239.12,274.06 C 239.04,274.03 238.95,273.97 238.88,273.94 C 238.80,273.91 238.72,273.89 238.66,273.88 C 238.59,273.86 238.53,273.86 238.47,273.88 C 238.41,273.89 238.36,273.91 238.31,273.94 C 238.27,273.97 238.22,274.01 238.19,274.06 C 238.15,274.11 238.12,274.18 238.09,274.25 C 238.07,274.32 238.05,274.41 238.03,274.50 C 238.02,274.59 238.01,274.70 238.00,274.81 C 237.99,274.93 238.01,275.08 238.00,275.19 C 237.99,275.30 237.98,275.39 237.95,275.47 C 237.93,275.55 237.90,275.61 237.86,275.66 C 237.82,275.70 237.77,275.73 237.72,275.75 C 237.66,275.77 237.60,275.77 237.53,275.75 C 237.46,275.73 237.38,275.70 237.30,275.66 C 237.21,275.61 237.12,275.55 237.02,275.47 C 236.91,275.39 236.80,275.30 236.69,275.19 C 236.57,275.08 236.49,274.91 236.31,274.81 C 236.14,274.71 235.91,274.64 235.64,274.59 C 235.37,274.55 235.04,274.53 234.67,274.53 C 234.30,274.54 233.88,274.57 233.41,274.62 C 232.93,274.68 232.41,274.77 231.84,274.88 C 231.27,274.98 230.65,275.12 229.98,275.28 C 229.32,275.44 228.60,275.63 227.83,275.84 C 227.06,276.06 226.24,276.30 225.38,276.56 C 224.51,276.83 223.51,277.16 222.62,277.44 C 221.74,277.71 220.88,277.97 220.05,278.20 C 219.22,278.44 218.41,278.66 217.64,278.86 C 216.87,279.06 216.12,279.24 215.41,279.41 C 214.69,279.57 214.00,279.72 213.34,279.84 C 212.68,279.97 212.05,280.08 211.45,280.17 C 210.85,280.26 210.28,280.34 209.73,280.39 C 209.19,280.45 208.67,280.48 208.19,280.50 C 207.70,280.52 207.25,280.49 206.81,280.50 C 206.37,280.51 205.95,280.52 205.55,280.54 C 205.15,280.56 204.77,280.58 204.41,280.62 C 204.05,280.65 203.71,280.69 203.39,280.73 C 203.07,280.78 202.77,280.83 202.48,280.89 C 202.20,280.95 201.94,281.01 201.70,281.09 C 201.45,281.16 201.23,281.24 201.02,281.32 C 200.82,281.40 200.63,281.50 200.47,281.59 C 200.30,281.69 200.15,281.80 200.03,281.91 C 199.92,282.02 199.83,282.13 199.78,282.25 C 199.73,282.37 199.71,282.49 199.72,282.62 C 199.73,282.76 199.77,282.89 199.84,283.03 C 199.92,283.17 200.02,283.32 200.16,283.47 C 200.29,283.62 200.46,283.78 200.66,283.94 C 200.85,284.10 201.08,284.27 201.34,284.44 C 201.60,284.61 201.90,284.79 202.22,284.97 C 202.54,285.15 202.95,285.35 203.28,285.53 C 203.62,285.72 203.93,285.90 204.23,286.08 C 204.53,286.26 204.82,286.43 205.08,286.61 C 205.34,286.78 205.59,286.96 205.81,287.12 C 206.04,287.29 206.25,287.46 206.44,287.62 C 206.63,287.79 206.80,287.95 206.95,288.11 C 207.11,288.27 207.24,288.42 207.36,288.58 C 207.48,288.73 207.58,288.88 207.66,289.03 C 207.74,289.18 207.79,289.33 207.84,289.47 C 207.90,289.61 207.94,289.75 207.97,289.89 C 208.00,290.03 208.02,290.16 208.03,290.30 C 208.04,290.43 208.04,290.56 208.03,290.69 C 208.02,290.82 208.00,290.94 207.97,291.06 C 207.94,291.18 207.90,291.30 207.84,291.42 C 207.79,291.54 207.73,291.65 207.66,291.77 C 207.58,291.88 207.50,291.99 207.41,292.09 C 207.31,292.20 207.22,292.30 207.09,292.41 C 206.96,292.51 206.81,292.63 206.63,292.74 C 206.45,292.86 206.25,292.98 206.02,293.10 C 205.80,293.23 205.54,293.35 205.27,293.48 C 204.99,293.62 204.69,293.75 204.36,293.89 C 204.03,294.03 203.68,294.17 203.30,294.32 C 202.93,294.47 202.53,294.62 202.10,294.77 C 201.68,294.93 201.23,295.09 200.75,295.25 C 200.27,295.41 199.73,295.58 199.25,295.75 C 198.77,295.92 198.30,296.10 197.86,296.28 C 197.41,296.46 196.99,296.65 196.58,296.84 C 196.17,297.04 195.78,297.23 195.41,297.44 C 195.03,297.64 194.68,297.85 194.34,298.06 C 194.01,298.28 193.69,298.49 193.39,298.72 C 193.09,298.94 192.81,299.17 192.55,299.41 C 192.28,299.64 192.04,299.88 191.81,300.12 C 191.59,300.37 191.41,300.63 191.19,300.88 C 190.96,301.12 190.72,301.35 190.45,301.58 C 190.19,301.80 189.91,302.02 189.61,302.23 C 189.31,302.45 188.99,302.65 188.66,302.84 C 188.32,303.04 187.97,303.23 187.59,303.41 C 187.22,303.59 186.83,303.76 186.42,303.92 C 186.01,304.09 185.59,304.24 185.14,304.39 C 184.70,304.54 184.23,304.68 183.75,304.81 C 183.27,304.95 182.73,305.07 182.25,305.19 C 181.77,305.30 181.32,305.41 180.89,305.52 C 180.46,305.62 180.05,305.71 179.67,305.80 C 179.29,305.88 178.93,305.96 178.59,306.03 C 178.26,306.10 177.95,306.16 177.66,306.22 C 177.37,306.27 177.10,306.32 176.86,306.36 C 176.62,306.40 176.40,306.43 176.20,306.45 C 176.01,306.48 175.84,306.49 175.69,306.50 Z" fill="none" stroke="currentColor" stroke-width="1.5" stroke-linejoin="round" stroke-linecap="round" filter="url(#glow)" />
</svg>