<svg xmlns="http://www.w3.org/2000/svg" width="512" height="512" viewBox="115.70 189.31 242.04 181.30" preserveAspectRatio="xMidYMid meet">
  <defs>
    <filter id="glow" x="-30%" y="-30%" width="160%" height="160%">
      <feGaussianBlur in="SourceGraphic" stdDeviation="2.4" result="blur" />
      <feMerge>
        <feMergeNode in="blur" />
        <feMergeNode in="SourceGraphic" />
      </feMerge>
    </filter>
    <clipPath id="hull-clip">
      <path d="M 219.94,355.50 C 219.57,355.53 219.38,355.51 219.06,355.50 C 218.75,355.49 218.42,355.46 218.06,355.42 C 217.71,355.38 217.33,355.33 216.94,355.27 C 216.54,355.20 216.12,355.12 215.69,355.03 C 215.25,354.94 214.79,354.84 214.31,354.72 C 213.83,354.60 213.33,354.47 212.81,354.33 C 212.29,354.18 211.75,354.03 211.19,353.86 C 210.62,353.69 210.04,353.51 209.44,353.31 C 208.83,353.12 208.30,352.99 207.56,352.69 C 206.83,352.38 205.98,351.98 205.02,351.48 C 204.07,350.98 203.00,350.38 201.82,349.68 C 200.64,348.98 199.35,348.19 197.95,347.30 C 196.55,346.40 195.04,345.42 193.42,344.33 C 191.80,343.24 190.07,342.06 188.23,340.77 C 186.38,339.49 184.43,338.11 182.37,336.63 C 180.30,335.15 178.13,333.58 175.84,331.91 C 173.56,330.23 170.90,328.26 168.66,326.59 C 166.42,324.93 164.33,323.38 162.40,321.93 C 160.47,320.48 158.69,319.14 157.07,317.91 C 155.45,316.68 153.98,315.56 152.67,314.55 C 151.36,313.53 150.20,312.63 149.20,311.83 C 148.20,311.03 147.36,310.34 146.66,309.76 C 145.97,309.18 145.44,308.70 145.05,308.34 C 144.67,307.97 144.45,307.71 144.38,307.56 C 144.30,307.41 144.55,307.51 144.62,307.44 C 144.70,307.37 144.77,307.27 144.83,307.14 C 144.89,307.01 144.94,306.86 144.98,306.67 C 145.03,306.49 145.07,306.27 145.09,306.03 C 145.12,305.79 145.14,305.52 145.16,305.22 C 145.17,304.92 145.17,304.59 145.17,304.23 C 145.17,303.88 145.16,303.49 145.14,303.08 C 145.12,302.66 145.10,302.22 145.06,301.75 C 145.03,301.28 144.97,300.72 144.94,300.25 C 144.91,299.78 144.89,299.33 144.88,298.91 C 144.86,298.48 144.86,298.09 144.88,297.72 C 144.89,297.35 144.91,297.01 144.94,296.69 C 144.97,296.37 145.01,296.08 145.06,295.81 C 145.11,295.55 145.18,295.31 145.25,295.09 C 145.32,294.88 145.41,294.69 145.50,294.53 C 145.59,294.37 145.70,294.23 145.81,294.12 C 145.93,294.02 146.08,293.97 146.19,293.88 C 146.29,293.78 146.38,293.67 146.45,293.55 C 146.51,293.44 146.56,293.31 146.59,293.16 C 146.61,293.02 146.62,292.87 146.61,292.70 C 146.60,292.54 146.57,292.36 146.52,292.17 C 146.46,291.98 146.39,291.78 146.30,291.57 C 146.21,291.36 146.11,291.13 145.98,290.90 C 145.85,290.66 145.70,290.42 145.53,290.16 C 145.36,289.90 145.16,289.60 144.97,289.34 C 144.77,289.08 144.57,288.84 144.37,288.60 C 144.16,288.37 143.95,288.14 143.73,287.93 C 143.51,287.72 143.28,287.52 143.05,287.33 C 142.81,287.14 142.57,286.96 142.33,286.80 C 142.08,286.63 141.83,286.48 141.57,286.34 C 141.31,286.19 141.05,286.06 140.77,285.95 C 140.50,285.83 140.22,285.72 139.94,285.62 C 139.65,285.53 139.34,285.46 139.06,285.38 C 138.78,285.29 138.52,285.19 138.27,285.09 C 138.01,284.99 137.77,284.89 137.55,284.78 C 137.32,284.67 137.11,284.56 136.91,284.44 C 136.71,284.32 136.52,284.19 136.34,284.06 C 136.17,283.93 136.01,283.80 135.86,283.66 C 135.71,283.52 135.58,283.37 135.45,283.22 C 135.33,283.07 135.22,282.91 135.12,282.75 C 135.03,282.59 134.96,282.41 134.88,282.25 C 134.79,282.09 134.69,281.94 134.59,281.80 C 134.48,281.67 134.37,281.54 134.26,281.41 C 134.14,281.29 134.02,281.18 133.89,281.08 C 133.76,280.98 133.63,280.88 133.48,280.80 C 133.34,280.71 133.19,280.64 133.04,280.57 C 132.88,280.50 132.72,280.45 132.55,280.40 C 132.39,280.35 132.21,280.31 132.03,280.28 C 131.85,280.25 131.63,280.25 131.47,280.22 C 131.31,280.18 131.18,280.14 131.08,280.08 C 130.98,280.02 130.90,279.95 130.86,279.86 C 130.82,279.77 130.80,279.67 130.81,279.56 C 130.83,279.45 130.87,279.33 130.94,279.19 C 131.01,279.05 131.11,278.90 131.23,278.73 C 131.36,278.57 131.52,278.39 131.70,278.20 C 131.89,278.01 132.10,277.81 132.34,277.59 C 132.59,277.38 132.89,277.13 133.16,276.91 C 133.43,276.69 133.69,276.48 133.96,276.27 C 134.23,276.07 134.49,275.88 134.76,275.70 C 135.02,275.51 135.29,275.34 135.55,275.17 C 135.81,275.01 136.07,274.85 136.33,274.70 C 136.59,274.56 136.85,274.42 137.10,274.29 C 137.36,274.16 137.61,274.04 137.87,273.93 C 138.12,273.82 138.37,273.72 138.62,273.62 C 138.88,273.53 139.13,273.47 139.38,273.38 C 139.62,273.28 139.87,273.17 140.12,273.05 C 140.36,272.94 140.61,272.81 140.85,272.66 C 141.10,272.52 141.34,272.37 141.58,272.20 C 141.82,272.04 142.06,271.86 142.30,271.67 C 142.54,271.48 142.77,271.28 143.01,271.07 C 143.24,270.86 143.48,270.63 143.71,270.40 C 143.94,270.16 144.18,269.92 144.41,269.66 C 144.64,269.40 144.89,269.11 145.09,268.84 C 145.30,268.58 145.49,268.33 145.65,268.09 C 145.81,267.84 145.95,267.61 146.07,267.38 C 146.19,267.16 146.29,266.94 146.36,266.73 C 146.43,266.53 146.49,266.33 146.52,266.14 C 146.55,265.95 146.55,265.77 146.54,265.60 C 146.52,265.43 146.49,265.27 146.43,265.12 C 146.37,264.96 146.29,264.82 146.19,264.69 C 146.08,264.55 145.93,264.46 145.81,264.31 C 145.70,264.17 145.59,264.00 145.50,263.81 C 145.41,263.62 145.32,263.42 145.25,263.19 C 145.18,262.96 145.11,262.71 145.06,262.44 C 145.01,262.17 144.97,261.88 144.94,261.56 C 144.91,261.25 144.89,260.92 144.88,260.56 C 144.86,260.21 144.86,259.83 144.88,259.44 C 144.89,259.04 144.91,258.62 144.94,258.19 C 144.97,257.75 145.03,257.25 145.06,256.81 C 145.10,256.38 145.12,255.97 145.14,255.58 C 145.16,255.19 145.17,254.83 145.17,254.48 C 145.17,254.14 145.17,253.83 145.16,253.53 C 145.14,253.24 145.12,252.97 145.09,252.72 C 145.07,252.47 145.03,252.25 144.98,252.05 C 144.94,251.85 144.89,251.67 144.83,251.52 C 144.77,251.36 144.70,251.23 144.62,251.12 C 144.55,251.02 144.31,251.06 144.38,250.88 C 144.44,250.69 144.67,250.40 145.04,250.01 C 145.41,249.62 145.94,249.12 146.62,248.52 C 147.30,247.93 148.13,247.23 149.11,246.42 C 150.09,245.62 151.23,244.71 152.52,243.70 C 153.80,242.69 155.24,241.58 156.84,240.37 C 158.43,239.15 160.17,237.83 162.07,236.41 C 163.97,234.99 166.02,233.47 168.22,231.84 C 170.42,230.22 173.02,228.29 175.28,226.66 C 177.54,225.02 179.70,223.48 181.76,222.02 C 183.82,220.57 185.78,219.21 187.65,217.95 C 189.51,216.68 191.28,215.50 192.95,214.42 C 194.62,213.34 196.20,212.35 197.67,211.45 C 199.15,210.56 200.52,209.75 201.80,209.04 C 203.08,208.33 204.27,207.71 205.35,207.18 C 206.44,206.65 207.42,206.22 208.31,205.88 C 209.20,205.53 209.84,205.33 210.69,205.12 C 211.53,204.92 212.43,204.76 213.39,204.64 C 214.35,204.52 215.36,204.45 216.42,204.42 C 217.49,204.39 218.61,204.41 219.78,204.47 C 220.96,204.53 222.18,204.63 223.47,204.78 C 224.75,204.93 226.09,205.12 227.48,205.36 C 228.88,205.60 230.33,205.88 231.83,206.20 C 233.33,206.53 234.89,206.90 236.50,207.31 C 238.11,207.73 239.94,208.25 241.50,208.69 C 243.06,209.12 244.52,209.53 245.88,209.92 C 247.23,210.31 248.48,210.67 249.62,211.02 C 250.77,211.36 251.81,211.67 252.75,211.97 C 253.69,212.26 254.52,212.53 255.25,212.78 C 255.98,213.03 256.60,213.25 257.12,213.45 C 257.65,213.65 258.06,213.83 258.38,213.98 C 258.69,214.14 258.90,214.27 259.00,214.38 C 259.10,214.48 259.03,214.53 259.00,214.62 C 258.97,214.72 258.92,214.82 258.84,214.93 C 258.75,215.04 258.64,215.16 258.51,215.29 C 258.37,215.42 258.21,215.56 258.02,215.70 C 257.82,215.85 257.61,216.01 257.36,216.17 C 257.11,216.34 256.84,216.51 256.54,216.70 C 256.24,216.88 255.91,217.07 255.55,217.27 C 255.20,217.48 254.82,217.69 254.41,217.91 C 254.00,218.13 253.49,218.36 253.09,218.59 C 252.70,218.82 252.35,219.05 252.05,219.28 C 251.74,219.51 251.48,219.74 251.27,219.97 C 251.05,220.20 250.88,220.43 250.75,220.66 C 250.62,220.89 250.54,221.11 250.50,221.34 C 250.46,221.57 250.47,221.80 250.52,222.03 C 250.57,222.26 250.66,222.49 250.80,222.72 C 250.93,222.95 251.12,223.18 251.34,223.41 C 251.57,223.64 251.77,223.84 252.16,224.09 C 252.54,224.35 253.03,224.63 253.63,224.93 C 254.24,225.23 254.95,225.56 255.77,225.91 C 256.60,226.27 257.53,226.64 258.58,227.05 C 259.62,227.45 260.78,227.88 262.05,228.33 C 263.31,228.78 264.69,229.26 266.18,229.76 C 267.67,230.26 269.27,230.79 270.98,231.34 C 272.69,231.89 274.51,232.46 276.44,233.06 C 278.37,233.66 280.58,234.38 282.56,234.94 C 284.54,235.49 286.46,235.98 288.31,236.41 C 290.17,236.83 291.96,237.18 293.69,237.47 C 295.42,237.76 297.08,237.97 298.69,238.12 C 300.29,238.28 301.83,238.36 303.31,238.38 C 304.79,238.39 306.21,238.34 307.56,238.22 C 308.92,238.10 310.21,237.91 311.44,237.66 C 312.67,237.40 313.83,237.08 314.94,236.69 C 316.04,236.30 317.07,235.75 318.06,235.31 C 319.06,234.88 320.01,234.46 320.91,234.06 C 321.81,233.67 322.66,233.29 323.47,232.94 C 324.28,232.58 325.04,232.25 325.75,231.94 C 326.46,231.62 327.13,231.33 327.75,231.06 C 328.37,230.79 328.94,230.54 329.47,230.31 C 329.99,230.08 330.47,229.88 330.91,229.69 C 331.34,229.50 331.72,229.33 332.06,229.19 C 332.40,229.04 332.64,228.93 332.94,228.81 C 333.24,228.70 333.55,228.59 333.87,228.49 C 334.19,228.39 334.51,228.31 334.85,228.23 C 335.19,228.15 335.54,228.08 335.89,228.02 C 336.25,227.95 336.61,227.90 336.98,227.86 C 337.36,227.82 337.74,227.78 338.13,227.76 C 338.52,227.73 338.93,227.72 339.34,227.71 C 339.75,227.70 340.17,227.71 340.59,227.72 C 341.02,227.73 341.57,227.72 341.91,227.78 C 342.24,227.84 342.46,227.94 342.59,228.09 C 342.71,228.23 342.72,228.41 342.63,228.63 C 342.54,228.86 342.35,229.12 342.05,229.42 C 341.75,229.73 341.34,230.07 340.83,230.45 C 340.32,230.84 339.70,231.26 338.98,231.73 C 338.25,232.19 337.43,232.70 336.49,233.24 C 335.56,233.79 334.52,234.37 333.38,235.00 C 332.23,235.63 330.80,236.37 329.62,237.00 C 328.45,237.63 327.36,238.24 326.35,238.80 C 325.34,239.37 324.41,239.91 323.55,240.41 C 322.70,240.92 321.93,241.39 321.23,241.83 C 320.54,242.27 319.93,242.67 319.39,243.05 C 318.86,243.42 318.40,243.76 318.02,244.07 C 317.65,244.38 317.35,244.65 317.13,244.90 C 316.92,245.14 316.78,245.35 316.72,245.53 C 316.66,245.71 316.71,245.83 316.78,245.97 C 316.85,246.11 316.96,246.25 317.12,246.38 C 317.27,246.52 317.48,246.65 317.73,246.77 C 317.98,246.90 318.27,247.02 318.61,247.14 C 318.95,247.26 319.33,247.37 319.77,247.48 C 320.20,247.60 320.67,247.70 321.20,247.80 C 321.72,247.91 322.29,248.01 322.90,248.10 C 323.51,248.20 324.17,248.29 324.88,248.38 C 325.58,248.46 326.40,248.54 327.12,248.62 C 327.85,248.71 328.54,248.80 329.21,248.90 C 329.88,248.99 330.52,249.09 331.13,249.20 C 331.75,249.30 332.33,249.40 332.89,249.52 C 333.45,249.63 333.98,249.74 334.48,249.86 C 334.99,249.98 335.46,250.10 335.91,250.23 C 336.36,250.35 336.79,250.48 337.18,250.62 C 337.57,250.75 337.94,250.89 338.28,251.03 C 338.62,251.17 339.00,251.33 339.22,251.47 C 339.44,251.61 339.57,251.74 339.62,251.87 C 339.66,251.99 339.61,252.11 339.48,252.23 C 339.34,252.34 339.11,252.45 338.80,252.55 C 338.48,252.65 338.07,252.74 337.58,252.83 C 337.08,252.92 336.50,253.00 335.82,253.07 C 335.14,253.14 334.38,253.21 333.52,253.27 C 332.67,253.33 331.72,253.39 330.69,253.44 C 329.65,253.49 328.34,253.52 327.31,253.56 C 326.28,253.60 325.35,253.64 324.51,253.68 C 323.67,253.72 322.92,253.75 322.27,253.79 C 321.62,253.82 321.07,253.86 320.61,253.89 C 320.15,253.92 319.79,253.95 319.52,253.98 C 319.25,254.01 319.07,254.04 318.99,254.07 C 318.91,254.10 318.93,254.12 319.04,254.15 C 319.15,254.17 319.36,254.20 319.66,254.22 C 319.96,254.24 320.44,254.25 320.84,254.28 C 321.24,254.32 321.65,254.36 322.06,254.42 C 322.47,254.48 322.89,254.55 323.31,254.64 C 323.73,254.73 324.16,254.83 324.59,254.94 C 325.03,255.05 325.46,255.17 325.91,255.31 C 326.35,255.45 326.80,255.60 327.25,255.77 C 327.70,255.93 328.16,256.11 328.62,256.30 C 329.09,256.49 329.56,256.69 330.03,256.91 C 330.51,257.12 331.02,257.37 331.47,257.59 C 331.92,257.82 332.33,258.04 332.71,258.26 C 333.09,258.48 333.44,258.69 333.76,258.90 C 334.07,259.11 334.36,259.31 334.61,259.52 C 334.86,259.72 335.08,259.92 335.27,260.11 C 335.45,260.30 335.61,260.49 335.73,260.68 C 335.85,260.87 335.94,261.05 335.99,261.23 C 336.05,261.40 336.07,261.58 336.06,261.75 C 336.05,261.92 335.98,262.09 335.94,262.25 C 335.89,262.41 335.84,262.57 335.78,262.72 C 335.72,262.87 335.66,263.02 335.59,263.16 C 335.53,263.30 335.45,263.43 335.38,263.56 C 335.30,263.69 335.21,263.82 335.12,263.94 C 335.04,264.06 334.94,264.17 334.84,264.28 C 334.74,264.39 334.64,264.49 334.53,264.59 C 334.42,264.69 334.31,264.79 334.19,264.88 C 334.07,264.96 333.93,264.98 333.81,265.12 C 333.70,265.27 333.59,265.48 333.48,265.75 C 333.38,266.02 333.29,266.35 333.20,266.75 C 333.12,267.15 333.04,267.60 332.97,268.12 C 332.90,268.65 332.84,269.23 332.78,269.88 C 332.73,270.52 332.68,271.23 332.64,272.00 C 332.60,272.77 332.57,273.60 332.55,274.50 C 332.52,275.40 332.51,276.35 332.50,277.38 C 332.49,278.40 332.49,279.59 332.50,280.62 C 332.51,281.66 332.53,282.64 332.56,283.56 C 332.59,284.49 332.64,285.36 332.69,286.19 C 332.74,287.01 332.80,287.78 332.88,288.50 C 332.95,289.22 333.03,289.89 333.12,290.50 C 333.22,291.11 333.32,291.68 333.44,292.19 C 333.55,292.70 333.68,293.16 333.81,293.56 C 333.95,293.97 334.09,294.32 334.25,294.62 C 334.41,294.93 334.64,295.12 334.75,295.38 C 334.86,295.63 334.93,295.88 334.94,296.14 C 334.95,296.40 334.91,296.66 334.81,296.92 C 334.72,297.18 334.57,297.45 334.38,297.72 C 334.18,297.99 333.93,298.26 333.62,298.53 C 333.32,298.80 332.97,299.08 332.56,299.36 C 332.16,299.64 331.70,299.92 331.19,300.20 C 330.68,300.49 330.11,300.77 329.50,301.06 C 328.89,301.35 328.07,301.67 327.50,301.94 C 326.93,302.21 326.46,302.46 326.09,302.70 C 325.71,302.93 325.44,303.14 325.26,303.34 C 325.08,303.53 325.00,303.70 325.02,303.86 C 325.03,304.01 325.15,304.15 325.36,304.27 C 325.57,304.38 325.88,304.48 326.29,304.55 C 326.70,304.63 327.20,304.69 327.80,304.73 C 328.41,304.76 329.11,304.78 329.91,304.78 C 330.70,304.78 331.75,304.73 332.59,304.72 C 333.43,304.70 334.22,304.69 334.95,304.69 C 335.68,304.68 336.36,304.68 336.98,304.69 C 337.61,304.69 338.17,304.70 338.69,304.72 C 339.20,304.73 339.66,304.76 340.06,304.78 C 340.47,304.81 340.82,304.84 341.11,304.88 C 341.40,304.91 341.64,304.95 341.83,305.00 C 342.01,305.05 342.14,305.10 342.22,305.16 C 342.29,305.21 342.28,305.28 342.28,305.34 C 342.28,305.41 342.25,305.48 342.20,305.56 C 342.15,305.64 342.08,305.72 341.98,305.81 C 341.89,305.90 341.77,305.99 341.62,306.09 C 341.48,306.19 341.32,306.30 341.12,306.41 C 340.93,306.52 340.72,306.63 340.48,306.75 C 340.25,306.87 339.99,306.99 339.70,307.12 C 339.42,307.26 339.11,307.39 338.78,307.53 C 338.45,307.67 338.10,307.83 337.72,307.97 C 337.34,308.11 336.94,308.24 336.51,308.37 C 336.08,308.49 335.63,308.61 335.15,308.73 C 334.67,308.84 334.17,308.95 333.64,309.05 C 333.11,309.15 332.56,309.24 331.98,309.33 C 331.41,309.42 330.81,309.50 330.18,309.57 C 329.55,309.64 328.90,309.71 328.23,309.77 C 327.55,309.83 326.85,309.89 326.12,309.94 C 325.40,309.99 324.58,310.02 323.88,310.06 C 323.17,310.11 322.51,310.15 321.90,310.20 C 321.29,310.24 320.72,310.29 320.20,310.34 C 319.67,310.38 319.20,310.43 318.77,310.48 C 318.33,310.54 317.95,310.59 317.61,310.64 C 317.27,310.69 316.98,310.75 316.73,310.80 C 316.48,310.86 316.27,310.92 316.12,310.98 C 315.96,311.04 315.85,311.10 315.78,311.16 C 315.71,311.22 315.73,311.28 315.72,311.34 C 315.71,311.41 315.70,311.48 315.70,311.56 C 315.71,311.64 315.72,311.72 315.73,311.81 C 315.75,311.90 315.78,311.99 315.81,312.09 C 315.85,312.19 315.89,312.30 315.94,312.41 C 315.99,312.52 316.04,312.63 316.11,312.75 C 316.17,312.87 316.25,312.99 316.33,313.12 C 316.41,313.26 316.50,313.39 316.59,313.53 C 316.69,313.67 316.73,313.79 316.91,313.97 C 317.08,314.14 317.32,314.35 317.62,314.58 C 317.93,314.81 318.31,315.07 318.75,315.36 C 319.19,315.65 319.70,315.97 320.28,316.31 C 320.86,316.66 321.51,317.03 322.22,317.44 C 322.93,317.84 323.71,318.27 324.56,318.73 C 325.41,319.20 326.33,319.68 327.31,320.20 C 328.30,320.72 329.35,321.27 330.47,321.84 C 331.59,322.42 332.95,323.09 334.03,323.66 C 335.11,324.22 336.09,324.76 336.95,325.25 C 337.82,325.74 338.58,326.20 339.23,326.62 C 339.89,327.05 340.43,327.43 340.88,327.78 C 341.32,328.13 341.65,328.44 341.88,328.72 C 342.10,328.99 342.22,329.23 342.23,329.44 C 342.25,329.64 342.15,329.81 341.95,329.94 C 341.75,330.07 341.45,330.16 341.03,330.22 C 340.62,330.28 340.02,330.29 339.47,330.28 C 338.92,330.27 338.34,330.23 337.73,330.15 C 337.12,330.07 336.48,329.96 335.80,329.82 C 335.13,329.68 334.43,329.50 333.70,329.30 C 332.97,329.09 332.21,328.85 331.42,328.58 C 330.63,328.31 329.81,328.00 328.96,327.66 C 328.11,327.33 327.23,326.96 326.32,326.55 C 325.41,326.15 324.47,325.72 323.50,325.25 C 322.53,324.78 321.46,324.22 320.50,323.75 C 319.54,323.28 318.62,322.84 317.75,322.42 C 316.88,322.01 316.04,321.62 315.25,321.27 C 314.46,320.91 313.71,320.58 313.00,320.28 C 312.29,319.98 311.62,319.71 311.00,319.47 C 310.38,319.23 309.79,319.01 309.25,318.83 C 308.71,318.64 308.21,318.49 307.75,318.36 C 307.29,318.23 306.88,318.13 306.50,318.06 C 306.12,317.99 305.94,317.94 305.50,317.94 C 305.06,317.94 304.51,317.98 303.86,318.06 C 303.21,318.15 302.45,318.27 301.58,318.44 C 300.71,318.60 299.74,318.81 298.66,319.06 C 297.58,319.31 296.39,319.60 295.09,319.94 C 293.80,320.27 292.40,320.65 290.89,321.06 C 289.38,321.48 287.77,321.94 286.05,322.44 C 284.33,322.94 282.50,323.48 280.56,324.06 C 278.63,324.65 276.36,325.34 274.44,325.94 C 272.51,326.54 270.70,327.11 269.01,327.66 C 267.31,328.21 265.74,328.74 264.27,329.24 C 262.81,329.74 261.46,330.22 260.23,330.67 C 259.00,331.12 257.89,331.55 256.89,331.95 C 255.89,332.36 255.01,332.73 254.24,333.09 C 253.48,333.44 252.82,333.77 252.29,334.07 C 251.75,334.37 251.33,334.65 251.03,334.91 C 250.73,335.16 250.62,335.36 250.47,335.59 C 250.32,335.83 250.21,336.06 250.14,336.30 C 250.07,336.53 250.04,336.77 250.05,337.02 C 250.05,337.26 250.10,337.50 250.19,337.75 C 250.27,338.00 250.40,338.25 250.56,338.50 C 250.73,338.75 250.93,339.01 251.17,339.27 C 251.41,339.52 251.70,339.78 252.02,340.05 C 252.34,340.31 252.70,340.58 253.09,340.84 C 253.49,341.11 254.09,341.37 254.41,341.66 C 254.72,341.94 254.92,342.23 254.99,342.54 C 255.07,342.85 255.02,343.16 254.85,343.49 C 254.68,343.82 254.39,344.16 253.98,344.52 C 253.57,344.87 253.04,345.23 252.39,345.61 C 251.74,345.99 250.96,346.37 250.07,346.77 C 249.18,347.17 248.16,347.58 247.02,348.01 C 245.89,348.43 244.63,348.87 243.25,349.31 C 241.87,349.76 240.17,350.26 238.75,350.69 C 237.33,351.12 235.98,351.52 234.70,351.89 C 233.43,352.26 232.23,352.61 231.11,352.92 C 229.99,353.24 228.94,353.52 227.97,353.78 C 227.00,354.04 226.10,354.27 225.28,354.47 C 224.46,354.67 223.72,354.84 223.05,354.98 C 222.38,355.13 221.78,355.24 221.27,355.33 C 220.75,355.41 220.30,355.47 219.94,355.50 Z" />
    </clipPath>
  </defs>
  <path d="M 219.94,355.50 C 219.57,355.53 219.38,355.51 219.06,355.50 C 218.75,355.49 218.42,355.46 218.06,355.42 C 217.71,355.38 217.33,355.33 216.94,355.27 C 216.54,355.20 216.12,355.12 215.69,355.03 C 215.25,354.94 214.79,354.84 214.31,354.72 C 213.83,354.60 213.33,354.47 212.81,354.33 C 212.29,354.18 211.75,354.03 211.19,353.86 C 210.62,353.69 210.04,353.51 209.44,353.31 C 208.83,353.12 208.30,352.99 207.56,352.69 C 206.83,352.38 205.98,351.98 205.02,351.48 C 204.07,350.98 203.00,350.38 201.82,349.68 C 200.64,348.98 199.35,348.19 197.95,347.30 C 196.55,346.40 195.04,345.42 193.42,344.33 C 191.80,343.24 190.07,342.06 188.23,340.77 C 186.38,339.49 184.43,338.11 182.37,336.63 C 180.30,335.15 178.13,333.58 175.84,331.91 C 173.56,330.23 170.90,328.26 168.66,326.59 C 166.42,324.93 164.33,323.38 162.40,321.93 C 160.47,320.48 158.69,319.14 157.07,317.91 C 155.45,316.68 153.98,315.56 152.67,314.55 C 151.36,313.53 150.20,312.63 149.20,311.83 C 148.20,311.03 147.36,310.34 146.66,309.76 C 145.97,309.18 145.44,308.70 145.05,308.34 C 144.67,307.97 144.45,307.71 144.38,307.56 C 144.30,307.41 144.55,307.51 144.62,307.44 C 144.70,307.37 144.77,307.27 144.83,307.14 C 144.89,307.01 144.94,306.86 144.98,306.67 C 145.03,306.49 145.07,306.27 145.09,306.03 C 145.12,305.79 145.14,305.52 145.16,305.22 C 145.17,304.92 145.17,304.59 145.17,304.23 C 145.17,303.88 145.16,303.49 145.14,303.08 C 145.12,302.66 145.10,302.22 145.06,301.75 C 145.03,301.28 144.97,300.72 144.94,300.25 C 144.91,299.78 144.89,299.33 144.88,298.91 C 144.86,298.48 144.86,298.09 144.88,297.72 C 144.89,297.35 144.91,297.01 144.94,296.69 C 144.97,296.37 145.01,296.08 145.06,295.81 C 145.11,295.55 145.18,295.31 145.25,295.09 C 145.32,294.88 145.41,294.69 145.50,294.53 C 145.59,294.37 145.70,294.23 145.81,294.12 C 145.93,294.02 146.08,293.97 146.19,293.88 C 146.29,293.78 146.38,293.67 146.45,293.55 C 146.51,293.44 146.56,293.31 146.59,293.16 C 146.61,293.02 146.62,292.87 146.61,292.70 C 146.60,292.54 146.57,292.36 146.52,292.17 C 146.46,291.98 146.39,291.78 146.30,291.57 C 146.21,291.36 146.11,291.13 145.98,290.90 C 145.85,290.66 145.70,290.42 145.53,290.16 C 145.36,289.90 145.16,289.60 144.97,289.34 C 144.77,289.08 144.57,288.84 144.37,288.60 C 144.16,288.37 143.95,288.14 143.73,287.93 C 143.51,287.72 143.28,287.52 143.05,287.33 C 142.81,287.14 142.57,286.96 142.33,286.80 C 142.08,286.63 141.83,286.48 141.57,286.34 C 141.31,286.19 141.05,286.06 140.77,285.95 C 140.50,285.83 140.22,285.72 139.94,285.62 C 139.65,285.53 139.34,285.46 139.06,285.38 C 138.78,285.29 138.52,285.19 138.27,285.09 C 138.01,284.99 137.77,284.89 137.55,284.78 C 137.32,284.67 137.11,284.56 136.91,284.44 C 136.71,284.32 136.52,284.19 136.34,284.06 C 136.17,283.93 136.01,283.80 135.86,283.66 C 135.71,283.52 135.58,283.37 135.45,283.22 C 135.33,283.07 135.22,282.91 135.12,282.75 C 135.03,282.59 134.96,282.41 134.88,282.25 C 134.79,282.09 134.69,281.94 134.59,281.80 C 134.48,281.67 134.37,281.54 134.26,281.41 C 134.14,281.29 134.02,281.18 133.89,281.08 C 133.76,280.98 133.63,280.88 133.48,280.80 C 133.34,280.71 133.19,280.64 133.04,280.57 C 132.88,280.50 132.72,280.45 132.55,280.40 C 132.39,280.35 132.21,280.31 132.03,280.28 C 131.85,280.25 131.63,280.25 131.47,280.22 C 131.31,280.18 131.18,280.14 131.08,280.08 C 130.98,280.02 130.90,279.95 130.86,279.86 C 130.82,279.77 130.80,279.67 130.81,279.56 C 130.83,279.45 130.87,279.33 130.94,279.19 C 131.01,279.05 131.11,278.90 131.23,278.73 C 131.36,278.57 131.52,278.39 131.70,278.20 C 131.89,278.01 132.10,277.81 132.34,277.59 C 132.59,277.38 132.89,277.13 133.16,276.91 C 133.43,276.69 133.69,276.48 133.96,276.27 C 134.23,276.07 134.49,275.88 134.76,275.70 C 135.02,275.51 135.29,275.34 135.55,275.17 C 135.81,275.01 136.07,274.85 136.33,274.70 C 136.59,274.56 136.85,274.42 137.10,274.29 C 137.36,274.16 137.61,274.04 137.87,273.93 C 138.12,273.82 138.37,273.72 138.62,273.62 C 138.88,273.53 139.13,273.47 139.38,273.38 C 139.62,273.28 139.87,273.17 140.12,273.05 C 140.36,272.94 140.61,272.81 140.85,272.66 C 141.10,272.52 141.34,272.37 141.58,272.20 C 141.82,272.04 142.06,271.86 142.30,271.67 C 142.54,271.48 142.77,271.28 143.01,271.07 C 143.24,270.86 143.48,270.63 143.71,270.40 C 143.94,270.16 144.18,269.92 144.41,269.66 C 144.64,269.40 144.89,269.11 145.09,268.84 C 145.30,268.58 145.49,268.33 145.65,268.09 C 145.81,267.84 145.95,267.61 146.07,267.38 C 146.19,267.16 146.29,266.94 146.36,266.73 C 146.43,266.53 146.49,266.33 146.52,266.14 C 146.55,265.95 146.55,265.77 146.54,265.60 C 146.52,265.43 146.49,265.27 146.43,265.12 C 146.37,264.96 146.29,264.82 146.19,264.69 C 146.08,264.55 145.93,264.46 145.81,264.31 C 145.70,264.17 145.59,264.00 145.50,263.81 C 145.41,263.62 145.32,263.42 145.25,263.19 C 145.18,262.96 145.11,262.71 145.06,262.44 C 145.01,262.17 144.97,261.88 144.94,261.56 C 144.91,261.25 144.89,260.92 144.88,260.56 C 144.86,260.21 144.86,259.83 144.88,259.44 C 144.89,259.04 144.91,258.62 144.94,258.19 C 144.97,257.75 145.03,257.25 145.06,256.81 C 145.10,256.38 145.12,255.97 145.14,255.58 C 145.16,255.19 145.17,254.83 145.17,254.48 C 145.17,254.14 145.17,253.83 145.16,253.53 C 145.14,253.24 145.12,252.97 145.09,252.72 C 145.07,252.47 145.03,252.25 144.98,252.05 C 144.94,251.85 144.89,251.67 144.83,251.52 C 144.77,251.36 144.70,251.23 144.62,251.12 C 144.55,251.02 144.31,251.06 144.38,250.88 C 144.44,250.69 144.67,250.40 145.04,250.01 C 145.41,249.62 145.94,249.12 146.62,248.52 C 147.30,247.93 148.13,247.23 149.11,246.42 C 150.09,245.62 151.23,244.71 152.52,243.70 C 153.80,242.69 155.24,241.58 156.84,240.37 C 158.43,239.15 160.17,237.83 162.07,236.41 C 163.97,234.99 166.02,233.47 168.22,231.84 C 170.42,230.22 173.02,228.29 175.28,226.66 C 177.54,225.02 179.70,223.48 181.76,222.02 C 183.82,220.57 185.78,219.21 187.65,217.95 C 189.51,216.68 191.28,215.50 192.95,214.42 C 194.62,213.34 196.20,212.35 197.67,211.45 C 199.15,210.56 200.52,209.75 201.80,209.04 C 203.08,208.33 204.27,207.71 205.35,207.18 C 206.44,206.65 207.42,206.22 208.31,205.88 C 209.20,205.53 209.84,205.33 210.69,205.12 C 211.53,204.92 212.43,204.76 213.39,204.64 C 214.35,204.52 215.36,204.45 216.42,204.42 C 217.49,204.39 218.61,204.41 219.78,204.47 C 220.96,204.53 222.18,204.63 223.47,204.78 C 224.75,204.93 226.09,205.12 227.48,205.36 C 228.88,205.60 230.33,205.88 231.83,206.20 C 233.33,206.53 234.89,206.90 236.50,207.31 C 238.11,207.73 239.94,208.25 241.50,208.69 C 243.06,209.12 244.52,209.53 245.88,209.92 C 247.23,210.31 248.48,210.67 249.62,211.02 C 250.77,211.36 251.81,211.67 252.75,211.97 C 253.69,212.26 254.52,212.53 255.25,212.78 C 255.98,213.03 256.60,213.25 257.12,213.45 C 257.65,213.65 258.06,213.83 258.38,213.98 C 258.69,214.14 258.90,214.27 259.00,214.38 C 259.10,214.48 259.03,214.53 259.00,214.62 C 258.97,214.72 258.92,214.82 258.84,214.93 C 258.75,215.04 258.64,215.16 258.51,215.29 C 258.37,215.42 258.21,215.56 258.02,215.70 C 257.82,215.85 257.61,216.01 257.36,216.17 C 257.11,216.34 256.84,216.51 256.54,216.70 C 256.24,216.88 255.91,217.07 255.55,217.27 C 255.20,217.48 254.82,217.69 254.41,217.91 C 254.00,218.13 253.49,218.36 253.09,218.59 C 252.70,218.82 252.35,219.05 252.05,219.28 C 251.74,219.51 251.48,219.74 251.27,219.97 C 251.05,220.20 250.88,220.43 250.75,220.66 C 250.62,220.89 250.54,221.11 250.50,221.34 C 250.46,221.57 250.47,221.80 250.52,222.03 C 250.57,222.26 250.66,222.49 250.80,222.72 C 250.93,222.95 251.12,223.18 251.34,223.41 C 251.57,223.64 251.77,223.84 252.16,224.09 C 252.54,224.35 253.03,224.63 253.63,224.93 C 254.24,225.23 254.95,225.56 255.77,225.91 C 256.60,226.27 257.53,226.64 258.58,227.05 C 259.62,227.45 260.78,227.88 262.05,228.33 C 263.31,228.78 264.69,229.26 266.18,229.76 C 267.67,230.26 269.27,230.79 270.98,231.34 C 272.69,231.89 274.51,232.46 276.44,233.06 C 278.37,233.66 280.58,234.38 282.56,234.94 C 284.54,235.49 286.46,235.98 288.31,236.41 C 290.17,236.83 291.96,237.18 293.69,237.47 C 295.42,237.76 297.08,237.97 298.69,238.12 C 300.29,238.28 301.83,238.36 303.31,238.38 C 304.79,238.39 306.21,238.34 307.56,238.22 C 308.92,238.10 310.21,237.91 311.44,237.66 C 312.67,237.40 313.83,237.08 314.94,236.69 C 316.04,236.30 317.07,235.75 318.06,235.31 C 319.06,234.88 320.01,234.46 320.91,234.06 C 321.81,233.67 322.66,233.29 323.47,232.94 C 324.28,232.58 325.04,232.25 325.75,231.94 C 326.46,231.62 327.13,231.33 327.75,231.06 C 328.37,230.79 328.94,230.54 329.47,230.31 C 329.99,230.08 330.47,229.88 330.91,229.69 C 331.34,229.50 331.72,229.33 332.06,229.19 C 332.40,229.04 332.64,228.93 332.94,228.81 C 333.24,228.70 333.55,228.59 333.87,228.49 C 334.19,228.39 334.51,228.31 334.85,228.23 C 335.19,228.15 335.54,228.08 335.89,228.02 C 336.25,227.95 336.61,227.90 336.98,227.86 C 337.36,227.82 337.74,227.78 338.13,227.76 C 338.52,227.73 338.93,227.72 339.34,227.71 C 339.75,227.70 340.17,227.71 340.59,227.72 C 341.02,227.73 341.57,227.72 341.91,227.78 C 342.24,227.84 342.46,227.94 342.59,228.09 C 342.71,228.23 342.72,228.41 342.63,228.63 C 342.54,228.86 342.35,229.12 342.05,229.42 C 341.75,229.73 341.34,230.07 340.83,230.45 C 340.32,230.84 339.70,231.26 338.98,231.73 C 338.25,232.19 337.43,232.70 336.49,233.24 C 335.56,233.79 334.52,234.37 333.38,235.00 C 332.23,235.63 330.80,236.37 329.62,237.00 C 328.45,237.63 327.36,238.24 326.35,238.80 C 325.34,239.37 324.41,239.91 323.55,240.41 C 322.70,240.92 321.93,241.39 321.23,241.83 C 320.54,242.27 319.93,242.67 319.39,243.05 C 318.86,243.42 318.40,243.76 318.02,244.07 C 317.65,244.38 317.35,244.65 317.13,244.90 C 316.92,245.14 316.78,245.35 316.72,245.53 C 316.66,245.71 316.71,245.83 316.78,245.97 C 316.85,246.11 316.96,246.25 317.12,246.38 C 317.27,246.52 317.48,246.65 317.73,246.77 C 317.98,246.90 318.27,247.02 318.61,247.14 C 318.95,247.26 319.33,247.37 319.77,247.48 C 320.20,247.60 320.67,247.70 321.20,247.80 C 321.72,247.91 322.29,248.01 322.90,248.10 C 323.51,248.20 324.17,248.29 324.88,248.38 C 325.58,248.46 326.40,248.54 327.12,248.62 C 327.85,248.71 328.54,248.80 329.21,248.90 C 329.88,248.99 330.52,249.09 331.13,249.20 C 331.75,249.30 332.33,249.40 332.89,249.52 C 333.45,249.63 333.98,249.74 334.48,249.86 C 334.99,249.98 335.46,250.10 335.91,250.23 C 336.36,250.35 336.79,250.48 337.18,250.62 C 337.57,250.75 337.94,250.89 338.28,251.03 C 338.62,251.17 339.00,251.33 339.22,251.47 C 339.44,251.61 339.57,251.74 339.62,251.87 C 339.66,251.99 339.61,252.11 339.48,252.23 C 339.34,252.34 339.11,252.45 338.80,252.55 C 338.48,252.65 338.07,252.74 337.58,252.83 C 337.08,252.92 336.50,253.00 335.82,253.07 C 335.14,253.14 334.38,253.21 333.52,253.27 C 332.67,253.33 331.72,253.39 330.69,253.44 C 329.65,253.49 328.34,253.52 327.31,253.56 C 326.28,253.60 325.35,253.64 324.51,253.68 C 323.67,253.72 322.92,253.75 322.27,253.79 C 321.62,253.82 321.07,253.86 320.61,253.89 C 320.15,253.92 319.79,253.95 319.52,253.98 C 319.25,254.01 319.07,254.04 318.99,254.07 C 318.91,254.10 318.93,254.12 319.04,254.15 C 319.15,254.17 319.36,254.20 319.66,254.22 C 319.96,254.24 320.44,254.25 320.84,254.28 C 321.24,254.32 321.65,254.36 322.06,254.42 C 322.47,254.48 322.89,254.55 323.31,254.64 C 323.73,254.73 324.16,254.83 324.59,254.94 C 325.03,255.05 325.46,255.17 325.91,255.31 C 326.35,255.45 326.80,255.60 327.25,255.77 C 327.70,255.93 328.16,256.11 328.62,256.30 C 329.09,256.49 329.56,256.69 330.03,256.91 C 330.51,257.12 331.02,257.37 331.47,257.59 C 331.92,257.82 332.33,258.04 332.71,258.26 C 333.09,258.48 333.44,258.69 333.76,258.90 C 334.07,259.11 334.36,259.31 334.61,259.52 C 334.86,259.72 335.08,259.92 335.27,260.11 C 335.45,260.30 335.61,260.49 335.73,260.68 C 335.85,260.87 335.94,261.05 335.99,261.23 C 336.05,261.40 336.07,261.58 336.06,261.75 C 336.05,261.92 335.98,262.09 335.94,262.25 C 335.89,262.41 335.84,262.57 335.78,262.72 C 335.72,262.87 335.66,263.02 335.59,263.16 C 335.53,263.30 335.45,263.43 335.38,263.56 C 335.30,263.69 335.21,263.82 335.12,263.94 C 335.04,264.06 334.94,264.17 334.84,264.28 C 334.74,264.39 334.64,264.49 334.53,264.59 C 334.42,264.69 334.31,264.79 334.19,264.88 C 334.07,264.96 333.93,264.98 333.81,265.12 C 333.70,265.27 333.59,265.48 333.48,265.75 C 333.38,266.02 333.29,266.35 333.20,266.75 C 333.12,267.15 333.04,267.60 332.97,268.12 C 332.90,268.65 332.84,269.23 332.78,269.88 C 332.73,270.52 332.68,271.23 332.64,272.00 C 332.60,272.77 332.57,273.60 332.55,274.50 C 332.52,275.40 332.51,276.35 332.50,277.38 C 332.49,278.40 332.49,279.59 332.50,280.62 C 332.51,281.66 332.53,282.64 332.56,283.56 C 332.59,284.49 332.64,285.36 332.69,286.19 C 332.74,287.01 332.80,287.78 332.88,288.50 C 332.95,289.22 333.03,289.89 333.12,290.50 C 333.22,291.11 333.32,291.68 333.44,292.19 C 333.55,292.70 333.68,293.16 333.81,293.56 C 333.95,293.97 334.09,294.32 334.25,294.62 C 334.41,294.93 334.64,295.12 334.75,295.38 C 334.86,295.63 334.93,295.88 334.94,296.14 C 334.95,296.40 334.91,296.66 334.81,296.92 C 334.72,297.18 334.57,297.45 334.38,297.72 C 334.18,297.99 333.93,298.26 333.62,298.53 C 333.32,298.80 332.97,299.08 332.56,299.36 C 332.16,299.64 331.70,299.92 331.19,300.20 C 330.68,300.49 330.11,300.77 329.50,301.06 C 328.89,301.35 328.07,301.67 327.50,301.94 C 326.93,302.21 326.46,302.46 326.09,302.70 C 325.71,302.93 325.44,303.14 325.26,303.34 C 325.08,303.53 325.00,303.70 325.02,303.86 C 325.03,304.01 325.15,304.15 325.36,304.27 C 325.57,304.38 325.88,304.48 326.29,304.55 C 326.70,304.63 327.20,304.69 327.80,304.73 C 328.41,304.76 329.11,304.78 329.91,304.78 C 330.70,304.78 331.75,304.73 332.59,304.72 C 333.43,304.70 334.22,304.69 334.95,304.69 C 335.68,304.68 336.36,304.68 336.98,304.69 C 337.61,304.69 338.17,304.70 338.69,304.72 C 339.20,304.73 339.66,304.76 340.06,304.78 C 340.47,304.81 340.82,304.84 341.11,304.88 C 341.40,304.91 341.64,304.95 341.83,305.00 C 342.01,305.05 342.14,305.10 342.22,305.16 C 342.29,305.21 342.28,305.28 342.28,305.34 C 342.28,305.41 342.25,305.48 342.20,305.56 C 342.15,305.64 342.08,305.72 341.98,305.81 C 341.89,305.90 341.77,305.99 341.62,306.09 C 341.48,306.19 341.32,306.30 341.12,306.41 C 340.93,306.52 340.72,306.63 340.48,306.75 C 340.25,306.87 339.99,306.99 339.70,307.12 C 339.42,307.26 339.11,307.39 338.78,307.53 C 338.45,307.67 338.10,307.83 337.72,307.97 C 337.34,308.11 336.94,308.24 336.51,308.37 C 336.08,308.49 335.63,308.61 335.15,308.73 C 334.67,308.84 334.17,308.95 333.64,309.05 C 333.11,309.15 332.56,309.24 331.98,309.33 C 331.41,309.42 330.81,309.50 330.18,309.57 C 329.55,309.64 328.90,309.71 328.23,309.77 C 327.55,309.83 326.85,309.89 326.12,309.94 C 325.40,309.99 324.58,310.02 323.88,310.06 C 323.17,310.11 322.51,310.15 321.90,310.20 C 321.29,310.24 320.72,310.29 320.20,310.34 C 319.67,310.38 319.20,310.43 318.77,310.48 C 318.33,310.54 317.95,310.59 317.61,310.64 C 317.27,310.69 316.98,310.75 316.73,310.80 C 316.48,310.86 316.27,310.92 316.12,310.98 C 315.96,311.04 315.85,311.10 315.78,311.16 C 315.71,311.22 315.73,311.28 315.72,311.34 C 315.71,311.41 315.70,311.48 315.70,311.56 C 315.71,311.64 315.72,311.72 315.73,311.81 C 315.75,311.90 315.78,311.99 315.81,312.09 C 315.85,312.19 315.89,312.30 315.94,312.41 C 315.99,312.52 316.04,312.63 316.11,312.75 C 316.17,312.87 316.25,312.99 316.33,313.12 C 316.41,313.26 316.50,313.39 316.59,313.53 C 316.69,313.67 316.73,313.79 316.91,313.97 C 317.08,314.14 317.32,314.35 317.62,314.58 C 317.93,314.81 318.31,315.07 318.75,315.36 C 319.19,315.65 319.70,315.97 320.28,316.31 C 320.86,316.66 321.51,317.03 322.22,317.44 C 322.93,317.84 323.71,318.27 324.56,318.73 C 325.41,319.20 326.33,319.68 327.31,320.20 C 328.30,320.72 329.35,321.27 330.47,321.84 C 331.59,322.42 332.95,323.09 334.03,323.66 C 335.11,324.22 336.09,324.76 336.95,325.25 C 337.82,325.74 338.58,326.20 339.23,326.62 C 339.89,327.05 340.43,327.43 340.88,327.78 C 341.32,328.13 341.65,328.44 341.88,328.72 C 342.10,328.99 342.22,329.23 342.23,329.44 C 342.25,329.64 342.15,329.81 341.95,329.94 C 341.75,330.07 341.45,330.16 341.03,330.22 C 340.62,330.28 340.02,330.29 339.47,330.28 C 338.92,330.27 338.34,330.23 337.73,330.15 C 337.12,330.07 336.48,329.96 335.80,329.82 C 335.13,329.68 334.43,329.50 333.70,329.30 C 332.97,329.09 332.21,328.85 331.42,328.58 C 330.63,328.31 329.81,328.00 328.96,327.66 C 328.11,327.33 327.23,326.96 326.32,326.55 C 325.41,326.15 324.47,325.72 323.50,325.25 C 322.53,324.78 321.46,324.22 320.50,323.75 C 319.54,323.28 318.62,322.84 317.75,322.42 C 316.88,322.01 316.04,321.62 315.25,321.27 C 314.46,320.91 313.71,320.58 313.00,320.28 C 312.29,319.98 311.62,319.71 311.00,319.47 C 310.38,319.23 309.79,319.01 309.25,318.83 C 308.71,318.64 308.21,318.49 307.75,318.36 C 307.29,318.23 306.88,318.13 306.50,318.06 C 306.12,317.99 305.94,317.94 305.50,317.94 C 305.06,317.94 304.51,317.98 303.86,318.06 C 303.21,318.15 302.45,318.27 301.58,318.44 C 300.71,318.60 299.74,318.81 298.66,319.06 C 297.58,319.31 296.39,319.60 295.09,319.94 C 293.80,320.27 292.40,320.65 290.89,321.06 C 289.38,321.48 287.77,321.94 286.05,322.44 C 284.33,322.94 282.50,323.48 280.56,324.06 C 278.63,324.65 276.36,325.34 274.44,325.94 C 272.51,326.54 270.70,327.11 269.01,327.66 C 267.31,328.21 265.74,328.74 264.27,329.24 C 262.81,329.74 261.46,330.22 260.23,330.67 C 259.00,331.12 257.89,331.55 256.89,331.95 C 255.89,332.36 255.01,332.73 254.24,333.09 C 253.48,333.44 252.82,333.77 252.29,334.07 C 251.75,334.37 251.33,334.65 251.03,334.91 C 250.73,335.16 250.62,335.36 250.47,335.59 C 250.32,335.83 250.21,336.06 250.14,336.30 C 250.07,336.53 250.04,336.77 250.05,337.02 C 250.05,337.26 250.10,337.50 250.19,337.75 C 250.27,338.00 250.40,338.25 250.56,338.50 C 250.73,338.75 250.93,339.01 251.17,339.27 C 251.41,339.52 251.70,339.78 252.02,340.05 C 252.34,340.31 252.70,340.58 253.09,340.84 C 253.49,341.11 254.09,341.37 254.41,341.66 C 254.72,341.94 254.92,342.23 254.99,342.54 C 255.07,342.85 255.02,343.16 254.85,343.49 C 254.68,343.82 254.39,344.16 253.98,344.52 C 253.57,344.87 253.04,345.23 252.39,345.61 C 251.74,345.99 250.96,346.37 250.07,346.77 C 249.18,347.17 248.16,347.58 247.02,348.01 C 245.89,348.43 244.63,348.87 243.25,349.31 C 241.87,349.76 240.17,350.26 238.75,350.69 C 237.33,351.12 235.98,351.52 234.70,351.89 C 233.43,352.26 232.23,352.61 231.11,352.92 C 229.99,353.24 228.94,353.52 227.97,353.78 C 227.00,354.04 226.10,354.27 225.28,354.47 C 224.46,354.67 223.72,354.84 223.05,354.98 C 222.38,355.13 221.78,355.24 221.27,355.33 C 220.75,355.41 220.30,355.47 219.94,355.50 Z" stroke="none" fill="currentColor" opacity="0.11" />
  <path d="M212.03,276.59L211.98,282.93 M183.72,282.94L178.18,283.09 M183.72,276.57L178.27,276.57 M169.42,276.59L169.37,282.93 M169.44,284.08L169.10,289.41 M169.10,289.41L169.49,284.07 M170.25,267.46L170.16,272.74 M170.59,267.32L174.39,257.37 M175.95,298.15L172.54,292.76 M210.89,275.55L211.23,270.22 M211.23,270.22L210.85,275.56 M215.23,260.75L226.00,261.15 M215.23,260.75L216.90,267.92 M214.73,261.05L216.90,267.92 M226.03,299.73L222.55,295.72 M225.69,298.76L214.92,298.36 M225.69,298.76L224.03,291.59 M226.20,298.47L224.03,291.59 M216.12,297.31L215.14,300.92 M225.79,300.92L224.81,297.31 M222.74,295.55L224.25,292.57 M259.36,236.93L252.73,246.31 M237.49,247.00L239.88,248.69 M249.84,255.66L252.24,257.33 M247.46,242.21L241.21,251.09 M246.98,241.87L241.03,250.36 M247.75,255.38L253.82,246.65 M262.86,241.99L256.07,245.69 M248.30,231.80L247.15,239.44 M239.33,246.63L239.56,246.80 M239.33,246.63L239.62,246.79 M238.84,247.33L239.08,247.56 M238.84,247.33L239.07,247.50 M251.81,255.08L252.14,255.31 M240.94,247.17L238.54,245.51 M251.73,255.31L251.96,255.48 M251.96,255.48L251.72,255.26 M253.28,255.84L250.90,254.15 M251.47,256.18L251.24,256.02 M251.47,256.18L251.18,256.03 M251.37,256.41L251.04,256.17 M238.66,247.50L238.99,247.74 M239.43,246.41L239.76,246.64 M249.57,228.51L247.96,237.69 M249.71,228.40L256.28,231.66 M251.54,229.46L268.03,234.37 M252.56,228.00L248.74,235.66 M268.24,237.73L262.88,233.82 M266.86,236.95L268.32,237.80 M248.45,253.56L246.22,259.47 M248.45,253.56L253.24,249.44 M242.33,249.27L244.56,243.36 M242.33,249.27L237.54,253.40 M237.37,245.04L240.57,247.28 M243.92,261.15L248.27,258.82 M236.75,256.13L237.46,251.22 M246.87,254.78L254.75,243.54 M260.84,240.60L248.90,235.84 M248.90,235.87L260.81,240.61 M261.14,240.61L270.76,233.69 M260.98,240.84L270.57,233.96 M239.33,253.79L245.23,257.92 M256.91,241.05L260.77,245.31 M256.95,241.22L260.72,245.38 M242.48,241.83L245.99,240.77 M245.99,240.77L242.52,241.74 M255.42,250.89L255.21,247.23 M255.21,247.23L255.50,250.82 M243.59,259.06L238.78,255.69 M256.04,255.92L263.23,241.68 M251.29,254.42L252.88,249.58 M252.32,253.47L252.88,249.58 M252.71,250.25L251.44,254.20 M250.24,255.93L246.23,259.08 M249.69,257.23L246.23,259.08 M246.80,258.69L250.08,256.14 M240.55,246.90L244.56,243.75 M241.09,245.60L244.56,243.75 M243.98,244.14L240.71,246.69 M239.49,248.41L237.90,253.25 M238.46,249.36L237.90,253.25 M238.07,252.58L239.35,248.63 M245.77,235.02L251.00,237.15 M251.02,237.06L245.81,234.95 M260.67,245.46L256.88,241.26 M260.72,245.38L256.95,241.22 M246.85,254.76L254.78,243.51 M241.72,251.16L249.61,239.89 M245.36,257.97L239.25,253.68 M242.23,267.46L248.15,258.87 M237.44,308.15L231.40,299.64 M231.40,259.88L237.44,251.37 M242.23,292.06L248.15,300.65 M246.98,241.87L241.03,250.36 M235.23,258.41L225.11,269.44 M239.04,305.82L245.42,301.35 M239.69,305.61L244.89,301.97 M239.75,305.50L244.98,301.84 M245.06,302.20L240.05,305.70 M242.19,296.21L235.32,283.90 M242.30,296.16L235.39,282.88 M235.32,282.62L235.32,276.89 M235.39,276.64L242.30,263.36 M247.75,255.38L253.82,246.65 M254.75,243.54L246.88,254.78 M241.65,262.37L234.36,276.39 M234.36,283.13L241.65,297.14 M235.23,301.11L225.11,290.08 M213.16,283.89L213.16,275.63 M216.00,289.95L224.87,289.97 M224.87,269.55L216.00,269.57 M236.37,258.68L223.18,273.07 M244.85,301.28L239.06,305.30 M244.85,301.28L239.18,305.29 M213.43,273.11L222.97,273.16 M239.62,280.65L217.16,280.50 M217.16,280.50L239.62,280.67 M239.93,275.43L239.93,284.10 M239.93,275.43L239.97,284.14 M216.84,284.10L216.84,275.43 M216.84,284.10L216.80,275.38 M241.75,294.62L242.59,289.79 M229.17,260.30L233.75,259.49 M241.31,286.54L235.67,282.33 M241.20,286.60L235.59,282.40 M234.20,300.11L229.01,299.12 M233.96,300.07L229.13,299.22 M242.59,269.76L241.79,265.17 M212.85,284.45L234.42,284.39 M213.11,290.73L213.11,294.06 M242.08,293.14L245.95,301.05 M232.47,259.65L238.57,253.30 M238.57,306.22L232.47,299.87 M224.94,268.11L226.41,263.00 M224.56,290.22L226.51,296.84 M242.21,291.95L243.15,297.35 M231.30,259.93L236.06,257.20 M236.06,302.32L231.30,299.59 M232.80,297.05L231.30,299.66 M231.30,299.66L236.04,302.31 M240.60,254.22L239.75,255.48 M245.34,258.00L239.22,253.72 M239.22,253.72L245.32,258.04 M243.59,259.06L238.78,255.69 M240.58,280.36L250.87,284.34 M250.87,275.18L240.58,279.15 M241.68,285.39L235.77,283.66 M241.68,274.12L235.77,275.86 M243.78,277.00L239.94,278.52 M243.79,277.04L239.96,278.58 M243.78,282.51L239.94,281.00 M241.67,274.24L235.81,277.63 M241.67,285.28L235.81,281.89 M248.29,300.70L244.60,298.75 M248.31,300.59L244.61,298.63 M237.37,308.29L236.76,304.13 M246.93,303.38L249.87,304.90 M249.85,305.02L246.90,303.50 M249.97,305.19L247.01,303.67 M248.80,306.61L242.94,310.72 M240.85,311.22L240.42,307.94 M240.97,311.24L240.55,307.95 M241.09,311.41L240.67,308.10 M236.50,280.50L244.60,283.84 M236.50,279.02L244.03,275.92 M243.43,282.51L239.60,281.00 M243.21,282.48L239.37,280.93 M243.36,282.48L239.55,280.96 M239.60,278.52L243.43,277.01 M243.38,277.05L239.55,278.56 M243.21,277.04L239.37,278.58 M213.06,296.27L213.06,284.26 M214.17,281.57L242.61,281.57 M242.61,277.95L214.14,277.94 M242.43,286.66L236.27,282.67 M242.13,286.09L236.08,282.18 M242.59,286.32L236.43,282.33 M234.30,283.75L242.51,286.32 M242.45,272.84L236.27,276.85 M234.30,275.77L242.57,273.19 M236.08,277.34L242.14,273.42 M242.61,273.19L236.43,277.19 M236.49,287.23L241.54,296.93 M236.18,300.63L227.06,290.67 M236.49,272.29L241.54,262.58 M227.06,268.85L236.18,258.88 M239.23,253.72L237.48,257.45 M249.65,239.91L241.67,251.28 M246.85,254.76L254.74,243.48 M249.61,239.89L241.72,251.16 M254.78,243.51L246.89,254.78 M245.36,257.97L239.25,253.68 M245.34,258.00L239.22,253.72 M239.23,305.80L237.48,302.07 M237.48,257.45L239.23,253.72 M213.27,286.30L222.97,286.31 M235.28,264.94L242.23,255.01 M145.67,273.57L139.27,276.89 M145.67,285.95L139.27,282.63 M141.48,280.86L141.44,280.49 M141.48,278.66L141.44,279.03 M167.73,271.40L167.44,272.34 M167.73,288.12L167.44,287.18 M141.59,280.76L141.56,280.40 M141.56,279.12L141.59,278.76 M141.48,280.86L141.44,280.49 M141.44,279.03L141.48,278.66 M269.69,232.95L253.45,227.91 M269.69,232.99L253.44,227.94 M253.52,227.84L270.11,232.99 M268.55,265.30L274.93,265.26 M275.37,266.27L268.27,266.92 M274.85,265.17L268.57,265.21 M268.64,264.81L274.68,264.77 M268.68,264.59L274.61,264.55 M284.80,275.57L277.89,273.90 M327.22,299.61L332.61,297.40 M322.25,301.62L326.62,299.72 M326.62,299.72L322.07,301.66 M322.05,257.86L326.62,259.80 M326.62,259.80L322.25,257.90 M284.14,277.56L284.99,264.25 M284.99,264.25L284.15,276.54 M321.89,298.46L321.89,279.76 M321.12,279.76L321.12,298.46 M321.20,279.76L321.20,261.06 M321.89,279.76L321.89,261.06 M321.98,279.76L321.98,261.06 M278.34,281.61L273.91,286.13 M270.10,303.12L278.26,301.48 M270.20,267.14L276.55,262.93 M276.55,261.66L270.27,265.34 M270.20,267.14L276.44,263.04 M276.55,261.66L270.90,264.96 M276.55,261.66L273.64,263.41 M276.55,261.66L273.55,263.45 M270.90,264.96L273.55,263.45 M328.28,278.04L328.28,268.17 M257.15,244.05L253.78,248.86 M245.08,242.93L248.62,237.97 M245.17,242.79L248.77,237.96 M248.77,237.96L245.08,242.93 M249.18,238.67L250.65,236.50 M249.47,238.24L246.48,242.42 M256.07,243.51L257.62,241.37 M246.04,305.10L248.57,306.24 M242.56,310.45L242.34,307.69 M245.95,305.05L245.69,304.54 M245.69,304.54L245.95,305.05 M241.94,309.81L243.05,311.40 M248.18,305.44L249.29,307.03 M243.06,311.41L244.17,312.99 M249.30,307.04L250.40,308.62 M291.07,254.67L309.46,248.34 M309.46,311.18L291.07,304.85 M249.93,272.32L242.20,272.31 M244.28,270.80L250.00,270.79 M249.54,270.37L243.84,270.44 M249.93,287.21L242.20,287.21 M250.00,288.73L244.28,288.72 M249.54,289.15L243.84,289.08 M251.59,283.12L267.46,281.90 M253.08,277.44L224.68,279.46 M248.23,278.62L224.39,277.64 M279.96,310.81L317.09,313.87 M224.39,281.88L248.23,280.90 M231.72,250.50L237.04,243.04 M235.10,263.15L237.24,257.98 M231.72,309.02L237.04,316.48 M235.10,296.37L237.24,301.54 M289.99,305.30L295.15,307.27 M246.22,278.97L256.34,281.34 M253.96,279.59L263.54,280.55 M235.02,241.17L235.24,236.22 M236.27,235.75L235.71,241.84 M214.15,270.77L207.39,270.87 M207.54,269.94L213.91,269.96 M208.05,290.40L208.35,284.86 M209.20,284.42L208.93,290.85 M309.23,312.21L298.97,312.75 M222.07,283.07L166.61,290.04 M141.08,282.56L141.07,276.96 M153.34,277.66L151.68,278.22 M153.34,281.86L151.68,281.29 M153.60,282.16L159.08,282.19 M153.60,277.36L159.08,277.33 M145.73,280.42L138.00,280.39 M145.73,279.10L138.00,279.13 M140.08,280.33L145.80,280.60 M145.34,280.57L139.64,280.31 M145.80,278.92L140.08,279.19 M145.34,278.95L139.64,279.21 M232.99,255.25L230.57,244.69 M232.99,255.25L230.74,244.55 M208.83,222.75L188.03,233.51 M213.91,260.69L228.02,260.98 M216.97,260.75L228.02,260.98 M200.23,232.76L206.29,232.77 M258.74,252.67L265.46,247.60 M258.57,252.61L228.34,243.49 M258.72,252.59L265.37,247.57 M227.93,244.37L258.76,253.68 M258.90,253.65L267.26,247.35 M265.36,247.49L245.37,238.74 M208.90,222.77L245.37,238.74 M245.38,238.65L265.45,247.44 M208.74,222.69L153.98,251.05 M154.09,251.13L165.37,252.85 M233.11,255.66L228.85,260.92 M228.68,260.99L208.53,260.35 M230.18,261.04L208.53,260.35 M233.42,255.89L220.44,241.15 M208.55,261.31L230.95,262.03 M231.08,261.96L234.89,256.22 M234.88,256.09L223.39,243.04 M220.46,241.11L228.34,243.49 M198.20,241.82L189.75,251.49 M198.20,241.82L190.69,244.37 M208.53,260.35L187.06,261.88 M208.55,261.31L187.96,262.78 M208.74,222.77L154.08,251.06 M165.62,253.76L190.94,245.15 M208.90,222.68L245.38,238.65 M166.60,252.33L153.90,251.04 M166.60,252.33L154.02,251.06 M205.78,227.41L206.25,233.39 M221.35,230.16L227.52,232.78 M220.81,230.54L221.32,238.83 M227.64,233.44L221.90,239.04 M219.52,230.29L213.29,236.54 M220.09,230.50L220.58,238.86 M213.45,237.17L220.04,239.27 M219.00,229.77L212.74,236.06 M218.87,229.11L212.67,226.48 M212.18,235.83L212.11,226.84 M250.12,248.28L254.25,244.79 M250.25,248.91L256.63,250.94 M254.92,244.96L257.06,250.49 M246.21,241.35L247.96,247.59 M245.57,241.16L240.90,245.34 M247.50,248.03L241.04,245.97 M247.44,241.25L253.45,243.80 M246.97,241.65L248.74,247.80 M253.55,244.45L249.37,247.99 M231.69,242.41L236.89,237.54 M231.84,243.04L238.36,245.12 M237.50,237.73L238.85,244.69 M244.92,240.78L240.21,245.01 M244.81,240.13L238.73,237.55 M239.60,244.81L238.23,237.94 M222.49,239.47L228.20,233.91 M222.64,240.10L229.20,242.20 M228.79,234.12L229.72,241.78 M230.03,233.85L236.16,236.46 M229.51,234.24L230.46,241.82 M236.28,237.11L231.05,242.03 M232.99,304.27L230.57,314.83 M232.99,304.27L230.74,314.98 M208.84,336.77L188.03,326.01 M228.02,298.54L213.91,298.83 M228.02,298.54L216.97,298.77 M200.23,326.76L206.29,326.75 M258.74,306.85L265.47,311.92 M258.72,306.93L265.37,311.95 M258.57,306.91L228.34,316.03 M227.93,315.15L258.76,305.84 M258.90,305.87L267.26,312.17 M265.36,312.03L245.37,320.78 M245.37,320.78L208.90,336.75 M208.75,336.74L154.08,308.46 M167.76,307.48L190.66,315.27 M165.62,305.75L190.94,314.37 M265.45,312.08L245.38,320.87 M208.74,336.83L153.98,308.47 M165.37,306.67L154.09,308.39 M233.11,303.86L228.85,298.60 M220.44,318.37L233.43,303.63 M234.89,303.30L231.08,297.56 M234.88,303.43L223.39,316.48 M208.55,298.21L230.95,297.49 M208.53,299.17L228.68,298.53 M220.46,318.41L228.34,316.03 M198.20,317.70L189.75,308.03 M198.20,317.70L190.69,315.15 M195.35,315.83L189.80,309.48 M187.06,297.64L208.54,299.17 M208.55,298.21L187.96,296.74 M166.60,307.12L154.02,308.39 M166.60,307.12L153.90,308.41 M206.25,326.06L205.78,332.04 M206.17,325.91L206.53,321.54 M221.35,329.36L227.52,326.74 M220.81,328.98L221.32,320.69 M227.64,326.08L221.90,320.47 M213.29,322.98L219.52,329.23 M213.45,322.35L220.04,320.24 M220.09,329.02L220.58,320.66 M212.67,333.04L218.87,330.41 M212.11,332.68L212.18,323.68 M219.00,329.75L212.74,323.46 M250.12,311.24L254.25,314.73 M250.25,310.61L256.63,308.58 M254.92,314.56L257.05,309.02 M240.90,314.18L245.57,318.36 M241.04,313.55L247.50,311.49 M246.21,318.17L247.96,311.93 M247.44,318.27L253.45,315.72 M246.97,317.87L248.74,311.72 M253.55,315.07L249.37,311.53 M231.69,317.11L236.89,321.98 M231.84,316.48L238.36,314.40 M237.50,321.79L238.85,314.83 M238.73,321.97L244.81,319.39 M238.23,321.58L239.60,314.71 M244.92,318.74L240.21,314.51 M222.49,320.05L228.20,325.61 M222.64,319.41L229.20,317.32 M228.79,325.40L229.72,317.74 M230.03,325.67L236.16,323.06 M229.51,325.28L230.46,317.70 M236.28,322.41L231.05,317.49 M227.69,320.62L218.08,319.53 M217.49,319.49L227.21,320.60 M228.08,316.99L218.46,315.90 M260.22,344.60L226.22,354.84 M258.32,343.79L248.45,339.32 M203.29,341.47L212.70,348.72 M248.63,338.99L212.94,348.50 M200.13,341.38L191.33,341.29 M145.13,284.86L148.77,287.95 M148.77,287.95L145.22,284.94 M147.55,251.64L164.71,238.78 M147.55,251.64L161.24,242.20 M201.72,221.01L168.85,246.06 M145.35,250.86L165.23,248.78 M201.72,221.01L161.46,251.53 M150.73,293.65L150.36,293.51 M202.24,338.77L168.52,314.63 M202.24,338.77L163.79,311.15 M231.72,250.50L237.04,243.04 M235.10,263.15L237.24,257.98 M231.72,309.02L237.04,316.48 M235.10,296.37L237.24,301.54 M233.86,256.11L223.37,242.88 M152.49,290.48L145.63,287.77 M150.55,293.12L145.41,285.95 M166.26,324.86L145.17,309.40 M148.91,308.30L162.18,305.66 M254.73,270.91L260.04,272.21 M248.75,261.76L254.00,263.63 M255.96,304.83L261.36,303.61 M248.45,220.20L258.32,215.73 M203.29,218.04L212.70,210.80 M248.63,220.53L212.94,211.02 M200.13,218.14L191.33,218.23" stroke="currentColor" stroke-width="0.6" stroke-linecap="round" fill="none" opacity="0.55" clip-path="url(#hull-clip)" filter="url(#glow)" />
  <path d="M 219.94,355.50 C 219.57,355.53 219.38,355.51 219.06,355.50 C 218.75,355.49 218.42,355.46 218.06,355.42 C 217.71,355.38 217.33,355.33 216.94,355.27 C 216.54,355.20 216.12,355.12 215.69,355.03 C 215.25,354.94 214.79,354.84 214.31,354.72 C 213.83,354.60 213.33,354.47 212.81,354.33 C 212.29,354.18 211.75,354.03 211.19,353.86 C 210.62,353.69 210.04,353.51 209.44,353.31 C 208.83,353.12 208.30,352.99 207.56,352.69 C 206.83,352.38 205.98,351.98 205.02,351.48 C 204.07,350.98 203.00,350.38 201.82,349.68 C 200.64,348.98 199.35,348.19 197.95,347.30 C 196.55,346.40 195.04,345.42 193.42,344.33 C 191.80,343.24 190.07,342.06 188.23,340.77 C 186.38,339.49 184.43,338.11 182.37,336.63 C 180.30,335.15 178.13,333.58 175.84,331.91 C 173.56,330.23 170.90,328.26 168.66,326.59 C 166.42,324.93 164.33,323.38 162.40,321.93 C 160.47,320.48 158.69,319.14 157.07,317.91 C 155.45,316.68 153.98,315.56 152.67,314.55 C 151.36,313.53 150.20,312.63 149.20,311.83 C 148.20,311.03 147.36,310.34 146.66,309.76 C 145.97,309.18 145.44,308.70 145.05,308.34 C 144.67,307.97 144.45,307.71 144.38,307.56 C 144.30,307.41 144.55,307.51 144.62,307.44 C 144.70,307.37 144.77,307.27 144.83,307.14 C 144.89,307.01 144.94,306.86 144.98,306.67 C 145.03,306.49 145.07,306.27 145.09,306.03 C 145.12,305.79 145.14,305.52 145.16,305.22 C 145.17,304.92 145.17,304.59 145.17,304.23 C 145.17,303.88 145.16,303.49 145.14,303.08 C 145.12,302.66 145.10,302.22 145.06,301.75 C 145.03,301.28 144.97,300.72 144.94,300.25 C 144.91,299.78 144.89,299.33 144.88,298.91 C 144.86,298.48 144.86,298.09 144.88,297.72 C 144.89,297.35 144.91,297.01 144.94,296.69 C 144.97,296.37 145.01,296.08 145.06,295.81 C 145.11,295.55 145.18,295.31 145.25,295.09 C 145.32,294.88 145.41,294.69 145.50,294.53 C 145.59,294.37 145.70,294.23 145.81,294.12 C 145.93,294.02 146.08,293.97 146.19,293.88 C 146.29,293.78 146.38,293.67 146.45,293.55 C 146.51,293.44 146.56,293.31 146.59,293.16 C 146.61,293.02 146.62,292.87 146.61,292.70 C 146.60,292.54 146.57,292.36 146.52,292.17 C 146.46,291.98 146.39,291.78 146.30,291.57 C 146.21,291.36 146.11,291.13 145.98,290.90 C 145.85,290.66 145.70,290.42 145.53,290.16 C 145.36,289.90 145.16,289.60 144.97,289.34 C 144.77,289.08 144.57,288.84 144.37,288.60 C 144.16,288.37 143.95,288.14 143.73,287.93 C 143.51,287.72 143.28,287.52 143.05,287.33 C 142.81,287.14 142.57,286.96 142.33,286.80 C 142.08,286.63 141.83,286.48 141.57,286.34 C 141.31,286.19 141.05,286.06 140.77,285.95 C 140.50,285.83 140.22,285.72 139.94,285.62 C 139.65,285.53 139.34,285.46 139.06,285.38 C 138.78,285.29 138.52,285.19 138.27,285.09 C 138.01,284.99 137.77,284.89 137.55,284.78 C 137.32,284.67 137.11,284.56 136.91,284.44 C 136.71,284.32 136.52,284.19 136.34,284.06 C 136.17,283.93 136.01,283.80 135.86,283.66 C 135.71,283.52 135.58,283.37 135.45,283.22 C 135.33,283.07 135.22,282.91 135.12,282.75 C 135.03,282.59 134.96,282.41 134.88,282.25 C 134.79,282.09 134.69,281.94 134.59,281.80 C 134.48,281.67 134.37,281.54 134.26,281.41 C 134.14,281.29 134.02,281.18 133.89,281.08 C 133.76,280.98 133.63,280.88 133.48,280.80 C 133.34,280.71 133.19,280.64 133.04,280.57 C 132.88,280.50 132.72,280.45 132.55,280.40 C 132.39,280.35 132.21,280.31 132.03,280.28 C 131.85,280.25 131.63,280.25 131.47,280.22 C 131.31,280.18 131.18,280.14 131.08,280.08 C 130.98,280.02 130.90,279.95 130.86,279.86 C 130.82,279.77 130.80,279.67 130.81,279.56 C 130.83,279.45 130.87,279.33 130.94,279.19 C 131.01,279.05 131.11,278.90 131.23,278.73 C 131.36,278.57 131.52,278.39 131.70,278.20 C 131.89,278.01 132.10,277.81 132.34,277.59 C 132.59,277.38 132.89,277.13 133.16,276.91 C 133.43,276.69 133.69,276.48 133.96,276.27 C 134.23,276.07 134.49,275.88 134.76,275.70 C 135.02,275.51 135.29,275.34 135.55,275.17 C 135.81,275.01 136.07,274.85 136.33,274.70 C 136.59,274.56 136.85,274.42 137.10,274.29 C 137.36,274.16 137.61,274.04 137.87,273.93 C 138.12,273.82 138.37,273.72 138.62,273.62 C 138.88,273.53 139.13,273.47 139.38,273.38 C 139.62,273.28 139.87,273.17 140.12,273.05 C 140.36,272.94 140.61,272.81 140.85,272.66 C 141.10,272.52 141.34,272.37 141.58,272.20 C 141.82,272.04 142.06,271.86 142.30,271.67 C 142.54,271.48 142.77,271.28 143.01,271.07 C 143.24,270.86 143.48,270.63 143.71,270.40 C 143.94,270.16 144.18,269.92 144.41,269.66 C 144.64,269.40 144.89,269.11 145.09,268.84 C 145.30,268.58 145.49,268.33 145.65,268.09 C 145.81,267.84 145.95,267.61 146.07,267.38 C 146.19,267.16 146.29,266.94 146.36,266.73 C 146.43,266.53 146.49,266.33 146.52,266.14 C 146.55,265.95 146.55,265.77 146.54,265.60 C 146.52,265.43 146.49,265.27 146.43,265.12 C 146.37,264.96 146.29,264.82 146.19,264.69 C 146.08,264.55 145.93,264.46 145.81,264.31 C 145.70,264.17 145.59,264.00 145.50,263.81 C 145.41,263.62 145.32,263.42 145.25,263.19 C 145.18,262.96 145.11,262.71 145.06,262.44 C 145.01,262.17 144.97,261.88 144.94,261.56 C 144.91,261.25 144.89,260.92 144.88,260.56 C 144.86,260.21 144.86,259.83 144.88,259.44 C 144.89,259.04 144.91,258.62 144.94,258.19 C 144.97,257.75 145.03,257.25 145.06,256.81 C 145.10,256.38 145.12,255.97 145.14,255.58 C 145.16,255.19 145.17,254.83 145.17,254.48 C 145.17,254.14 145.17,253.83 145.16,253.53 C 145.14,253.24 145.12,252.97 145.09,252.72 C 145.07,252.47 145.03,252.25 144.98,252.05 C 144.94,251.85 144.89,251.67 144.83,251.52 C 144.77,251.36 144.70,251.23 144.62,251.12 C 144.55,251.02 144.31,251.06 144.38,250.88 C 144.44,250.69 144.67,250.40 145.04,250.01 C 145.41,249.62 145.94,249.12 146.62,248.52 C 147.30,247.93 148.13,247.23 149.11,246.42 C 150.09,245.62 151.23,244.71 152.52,243.70 C 153.80,242.69 155.24,241.58 156.84,240.37 C 158.43,239.15 160.17,237.83 162.07,236.41 C 163.97,234.99 166.02,233.47 168.22,231.84 C 170.42,230.22 173.02,228.29 175.28,226.66 C 177.54,225.02 179.70,223.48 181.76,222.02 C 183.82,220.57 185.78,219.21 187.65,217.95 C 189.51,216.68 191.28,215.50 192.95,214.42 C 194.62,213.34 196.20,212.35 197.67,211.45 C 199.15,210.56 200.52,209.75 201.80,209.04 C 203.08,208.33 204.27,207.71 205.35,207.18 C 206.44,206.65 207.42,206.22 208.31,205.88 C 209.20,205.53 209.84,205.33 210.69,205.12 C 211.53,204.92 212.43,204.76 213.39,204.64 C 214.35,204.52 215.36,204.45 216.42,204.42 C 217.49,204.39 218.61,204.41 219.78,204.47 C 220.96,204.53 222.18,204.63 223.47,204.78 C 224.75,204.93 226.09,205.12 227.48,205.36 C 228.88,205.60 230.33,205.88 231.83,206.20 C 233.33,206.53 234.89,206.90 236.50,207.31 C 238.11,207.73 239.94,208.25 241.50,208.69 C 243.06,209.12 244.52,209.53 245.88,209.92 C 247.23,210.31 248.48,210.67 249.62,211.02 C 250.77,211.36 251.81,211.67 252.75,211.97 C 253.69,212.26 254.52,212.53 255.25,212.78 C 255.98,213.03 256.60,213.25 257.12,213.45 C 257.65,213.65 258.06,213.83 258.38,213.98 C 258.69,214.14 258.90,214.27 259.00,214.38 C 259.10,214.48 259.03,214.53 259.00,214.62 C 258.97,214.72 258.92,214.82 258.84,214.93 C 258.75,215.04 258.64,215.16 258.51,215.29 C 258.37,215.42 258.21,215.56 258.02,215.70 C 257.82,215.85 257.61,216.01 257.36,216.17 C 257.11,216.34 256.84,216.51 256.54,216.70 C 256.24,216.88 255.91,217.07 255.55,217.27 C 255.20,217.48 254.82,217.69 254.41,217.91 C 254.00,218.13 253.49,218.36 253.09,218.59 C 252.70,218.82 252.35,219.05 252.05,219.28 C 251.74,219.51 251.48,219.74 251.27,219.97 C 251.05,220.20 250.88,220.43 250.75,220.66 C 250.62,220.89 250.54,221.11 250.50,221.34 C 250.46,221.57 250.47,221.80 250.52,222.03 C 250.57,222.26 250.66,222.49 250.80,222.72 C 250.93,222.95 251.12,223.18 251.34,223.41 C 251.57,223.64 251.77,223.84 252.16,224.09 C 252.54,224.35 253.03,224.63 253.63,224.93 C 254.24,225.23 254.95,225.56 255.77,225.91 C 256.60,226.27 257.53,226.64 258.58,227.05 C 259.62,227.45 260.78,227.88 262.05,228.33 C 263.31,228.78 264.69,229.26 266.18,229.76 C 267.67,230.26 269.27,230.79 270.98,231.34 C 272.69,231.89 274.51,232.46 276.44,233.06 C 278.37,233.66 280.58,234.38 282.56,234.94 C 284.54,235.49 286.46,235.98 288.31,236.41 C 290.17,236.83 291.96,237.18 293.69,237.47 C 295.42,237.76 297.08,237.97 298.69,238.12 C 300.29,238.28 301.83,238.36 303.31,238.38 C 304.79,238.39 306.21,238.34 307.56,238.22 C 308.92,238.10 310.21,237.91 311.44,237.66 C 312.67,237.40 313.83,237.08 314.94,236.69 C 316.04,236.30 317.07,235.75 318.06,235.31 C 319.06,234.88 320.01,234.46 320.91,234.06 C 321.81,233.67 322.66,233.29 323.47,232.94 C 324.28,232.58 325.04,232.25 325.75,231.94 C 326.46,231.62 327.13,231.33 327.75,231.06 C 328.37,230.79 328.94,230.54 329.47,230.31 C 329.99,230.08 330.47,229.88 330.91,229.69 C 331.34,229.50 331.72,229.33 332.06,229.19 C 332.40,229.04 332.64,228.93 332.94,228.81 C 333.24,228.70 333.55,228.59 333.87,228.49 C 334.19,228.39 334.51,228.31 334.85,228.23 C 335.19,228.15 335.54,228.08 335.89,228.02 C 336.25,227.95 336.61,227.90 336.98,227.86 C 337.36,227.82 337.74,227.78 338.13,227.76 C 338.52,227.73 338.93,227.72 339.34,227.71 C 339.75,227.70 340.17,227.71 340.59,227.72 C 341.02,227.73 341.57,227.72 341.91,227.78 C 342.24,227.84 342.46,227.94 342.59,228.09 C 342.71,228.23 342.72,228.41 342.63,228.63 C 342.54,228.86 342.35,229.12 342.05,229.42 C 341.75,229.73 341.34,230.07 340.83,230.45 C 340.32,230.84 339.70,231.26 338.98,231.73 C 338.25,232.19 337.43,232.70 336.49,233.24 C 335.56,233.79 334.52,234.37 333.38,235.00 C 332.23,235.63 330.80,236.37 329.62,237.00 C 328.45,237.63 327.36,238.24 326.35,238.80 C 325.34,239.37 324.41,239.91 323.55,240.41 C 322.70,240.92 321.93,241.39 321.23,241.83 C 320.54,242.27 319.93,242.67 319.39,243.05 C 318.86,243.42 318.40,243.76 318.02,244.07 C 317.65,244.38 317.35,244.65 317.13,244.90 C 316.92,245.14 316.78,245.35 316.72,245.53 C 316.66,245.71 316.71,245.83 316.78,245.97 C 316.85,246.11 316.96,246.25 317.12,246.38 C 317.27,246.52 317.48,246.65 317.73,246.77 C 317.98,246.90 318.27,247.02 318.61,247.14 C 318.95,247.26 319.33,247.37 319.77,247.48 C 320.20,247.60 320.67,247.70 321.20,247.80 C 321.72,247.91 322.29,248.01 322.90,248.10 C 323.51,248.20 324.17,248.29 324.88,248.38 C 325.58,248.46 326.40,248.54 327.12,248.62 C 327.85,248.71 328.54,248.80 329.21,248.90 C 329.88,248.99 330.52,249.09 331.13,249.20 C 331.75,249.30 332.33,249.40 332.89,249.52 C 333.45,249.63 333.98,249.74 334.48,249.86 C 334.99,249.98 335.46,250.10 335.91,250.23 C 336.36,250.35 336.79,250.48 337.18,250.62 C 337.57,250.75 337.94,250.89 338.28,251.03 C 338.62,251.17 339.00,251.33 339.22,251.47 C 339.44,251.61 339.57,251.74 339.62,251.87 C 339.66,251.99 339.61,252.11 339.48,252.23 C 339.34,252.34 339.11,252.45 338.80,252.55 C 338.48,252.65 338.07,252.74 337.58,252.83 C 337.08,252.92 336.50,253.00 335.82,253.07 C 335.14,253.14 334.38,253.21 333.52,253.27 C 332.67,253.33 331.72,253.39 330.69,253.44 C 329.65,253.49 328.34,253.52 327.31,253.56 C 326.28,253.60 325.35,253.64 324.51,253.68 C 323.67,253.72 322.92,253.75 322.27,253.79 C 321.62,253.82 321.07,253.86 320.61,253.89 C 320.15,253.92 319.79,253.95 319.52,253.98 C 319.25,254.01 319.07,254.04 318.99,254.07 C 318.91,254.10 318.93,254.12 319.04,254.15 C 319.15,254.17 319.36,254.20 319.66,254.22 C 319.96,254.24 320.44,254.25 320.84,254.28 C 321.24,254.32 321.65,254.36 322.06,254.42 C 322.47,254.48 322.89,254.55 323.31,254.64 C 323.73,254.73 324.16,254.83 324.59,254.94 C 325.03,255.05 325.46,255.17 325.91,255.31 C 326.35,255.45 326.80,255.60 327.25,255.77 C 327.70,255.93 328.16,256.11 328.62,256.30 C 329.09,256.49 329.56,256.69 330.03,256.91 C 330.51,257.12 331.02,257.37 331.47,257.59 C 331.92,257.82 332.33,258.04 332.71,258.26 C 333.09,258.48 333.44,258.69 333.76,258.90 C 334.07,259.11 334.36,259.31 334.61,259.52 C 334.86,259.72 335.08,259.92 335.27,260.11 C 335.45,260.30 335.61,260.49 335.73,260.68 C 335.85,260.87 335.94,261.05 335.99,261.23 C 336.05,261.40 336.07,261.58 336.06,261.75 C 336.05,261.92 335.98,262.09 335.94,262.25 C 335.89,262.41 335.84,262.57 335.78,262.72 C 335.72,262.87 335.66,263.02 335.59,263.16 C 335.53,263.30 335.45,263.43 335.38,263.56 C 335.30,263.69 335.21,263.82 335.12,263.94 C 335.04,264.06 334.94,264.17 334.84,264.28 C 334.74,264.39 334.64,264.49 334.53,264.59 C 334.42,264.69 334.31,264.79 334.19,264.88 C 334.07,264.96 333.93,264.98 333.81,265.12 C 333.70,265.27 333.59,265.48 333.48,265.75 C 333.38,266.02 333.29,266.35 333.20,266.75 C 333.12,267.15 333.04,267.60 332.97,268.12 C 332.90,268.65 332.84,269.23 332.78,269.88 C 332.73,270.52 332.68,271.23 332.64,272.00 C 332.60,272.77 332.57,273.60 332.55,274.50 C 332.52,275.40 332.51,276.35 332.50,277.38 C 332.49,278.40 332.49,279.59 332.50,280.62 C 332.51,281.66 332.53,282.64 332.56,283.56 C 332.59,284.49 332.64,285.36 332.69,286.19 C 332.74,287.01 332.80,287.78 332.88,288.50 C 332.95,289.22 333.03,289.89 333.12,290.50 C 333.22,291.11 333.32,291.68 333.44,292.19 C 333.55,292.70 333.68,293.16 333.81,293.56 C 333.95,293.97 334.09,294.32 334.25,294.62 C 334.41,294.93 334.64,295.12 334.75,295.38 C 334.86,295.63 334.93,295.88 334.94,296.14 C 334.95,296.40 334.91,296.66 334.81,296.92 C 334.72,297.18 334.57,297.45 334.38,297.72 C 334.18,297.99 333.93,298.26 333.62,298.53 C 333.32,298.80 332.97,299.08 332.56,299.36 C 332.16,299.64 331.70,299.92 331.19,300.20 C 330.68,300.49 330.11,300.77 329.50,301.06 C 328.89,301.35 328.07,301.67 327.50,301.94 C 326.93,302.21 326.46,302.46 326.09,302.70 C 325.71,302.93 325.44,303.14 325.26,303.34 C 325.08,303.53 325.00,303.70 325.02,303.86 C 325.03,304.01 325.15,304.15 325.36,304.27 C 325.57,304.38 325.88,304.48 326.29,304.55 C 326.70,304.63 327.20,304.69 327.80,304.73 C 328.41,304.76 329.11,304.78 329.91,304.78 C 330.70,304.78 331.75,304.73 332.59,304.72 C 333.43,304.70 334.22,304.69 334.95,304.69 C 335.68,304.68 336.36,304.68 336.98,304.69 C 337.61,304.69 338.17,304.70 338.69,304.72 C 339.20,304.73 339.66,304.76 340.06,304.78 C 340.47,304.81 340.82,304.84 341.11,304.88 C 341.40,304.91 341.64,304.95 341.83,305.00 C 342.01,305.05 342.14,305.10 342.22,305.16 C 342.29,305.21 342.28,305.28 342.28,305.34 C 342.28,305.41 342.25,305.48 342.20,305.56 C 342.15,305.64 342.08,305.72 341.98,305.81 C 341.89,305.90 341.77,305.99 341.62,306.09 C 341.48,306.19 341.32,306.30 341.12,306.41 C 340.93,306.52 340.72,306.63 340.48,306.75 C 340.25,306.87 339.99,306.99 339.70,307.12 C 339.42,307.26 339.11,307.39 338.78,307.53 C 338.45,307.67 338.10,307.83 337.72,307.97 C 337.34,308.11 336.94,308.24 336.51,308.37 C 336.08,308.49 335.63,308.61 335.15,308.73 C 334.67,308.84 334.17,308.95 333.64,309.05 C 333.11,309.15 332.56,309.24 331.98,309.33 C 331.41,309.42 330.81,309.50 330.18,309.57 C 329.55,309.64 328.90,309.71 328.23,309.77 C 327.55,309.83 326.85,309.89 326.12,309.94 C 325.40,309.99 324.58,310.02 323.88,310.06 C 323.17,310.11 322.51,310.15 321.90,310.20 C 321.29,310.24 320.72,310.29 320.20,310.34 C 319.67,310.38 319.20,310.43 318.77,310.48 C 318.33,310.54 317.95,310.59 317.61,310.64 C 317.27,310.69 316.98,310.75 316.73,310.80 C 316.48,310.86 316.27,310.92 316.12,310.98 C 315.96,311.04 315.85,311.10 315.78,311.16 C 315.71,311.22 315.73,311.28 315.72,311.34 C 315.71,311.41 315.70,311.48 315.70,311.56 C 315.71,311.64 315.72,311.72 315.73,311.81 C 315.75,311.90 315.78,311.99 315.81,312.09 C 315.85,312.19 315.89,312.30 315.94,312.41 C 315.99,312.52 316.04,312.63 316.11,312.75 C 316.17,312.87 316.25,312.99 316.33,313.12 C 316.41,313.26 316.50,313.39 316.59,313.53 C 316.69,313.67 316.73,313.79 316.91,313.97 C 317.08,314.14 317.32,314.35 317.62,314.58 C 317.93,314.81 318.31,315.07 318.75,315.36 C 319.19,315.65 319.70,315.97 320.28,316.31 C 320.86,316.66 321.51,317.03 322.22,317.44 C 322.93,317.84 323.71,318.27 324.56,318.73 C 325.41,319.20 326.33,319.68 327.31,320.20 C 328.30,320.72 329.35,321.27 330.47,321.84 C 331.59,322.42 332.95,323.09 334.03,323.66 C 335.11,324.22 336.09,324.76 336.95,325.25 C 337.82,325.74 338.58,326.20 339.23,326.62 C 339.89,327.05 340.43,327.43 340.88,327.78 C 341.32,328.13 341.65,328.44 341.88,328.72 C 342.10,328.99 342.22,329.23 342.23,329.44 C 342.25,329.64 342.15,329.81 341.95,329.94 C 341.75,330.07 341.45,330.16 341.03,330.22 C 340.62,330.28 340.02,330.29 339.47,330.28 C 338.92,330.27 338.34,330.23 337.73,330.15 C 337.12,330.07 336.48,329.96 335.80,329.82 C 335.13,329.68 334.43,329.50 333.70,329.30 C 332.97,329.09 332.21,328.85 331.42,328.58 C 330.63,328.31 329.81,328.00 328.96,327.66 C 328.11,327.33 327.23,326.96 326.32,326.55 C 325.41,326.15 324.47,325.72 323.50,325.25 C 322.53,324.78 321.46,324.22 320.50,323.75 C 319.54,323.28 318.62,322.84 317.75,322.42 C 316.88,322.01 316.04,321.62 315.25,321.27 C 314.46,320.91 313.71,320.58 313.00,320.28 C 312.29,319.98 311.62,319.71 311.00,319.47 C 310.38,319.23 309.79,319.01 309.25,318.83 C 308.71,318.64 308.21,318.49 307.75,318.36 C 307.29,318.23 306.88,318.13 306.50,318.06 C 306.12,317.99 305.94,317.94 305.50,317.94 C 305.06,317.94 304.51,317.98 303.86,318.06 C 303.21,318.15 302.45,318.27 301.58,318.44 C 300.71,318.60 299.74,318.81 298.66,319.06 C 297.58,319.31 296.39,319.60 295.09,319.94 C 293.80,320.27 292.40,320.65 290.89,321.06 C 289.38,321.48 287.77,321.94 286.05,322.44 C 284.33,322.94 282.50,323.48 280.56,324.06 C 278.63,324.65 276.36,325.34 274.44,325.94 C 272.51,326.54 270.70,327.11 269.01,327.66 C 267.31,328.21 265.74,328.74 264.27,329.24 C 262.81,329.74 261.46,330.22 260.23,330.67 C 259.00,331.12 257.89,331.55 256.89,331.95 C 255.89,332.36 255.01,332.73 254.24,333.09 C 253.48,333.44 252.82,333.77 252.29,334.07 C 251.75,334.37 251.33,334.65 251.03,334.91 C 250.73,335.16 250.62,335.36 250.47,335.59 C 250.32,335.83 250.21,336.06 250.14,336.30 C 250.07,336.53 250.04,336.77 250.05,337.02 C 250.05,337.26 250.10,337.50 250.19,337.75 C 250.27,338.00 250.40,338.25 250.56,338.50 C 250.73,338.75 250.93,339.01 251.17,339.27 C 251.41,339.52 251.70,339.78 252.02,340.05 C 252.34,340.31 252.70,340.58 253.09,340.84 C 253.49,341.11 254.09,341.37 254.41,341.66 C 254.72,341.94 254.92,342.23 254.99,342.54 C 255.07,342.85 255.02,343.16 254.85,343.49 C 254.68,343.82 254.39,344.16 253.98,344.52 C 253.57,344.87 253.04,345.23 252.39,345.61 C 251.74,345.99 250.96,346.37 250.07,346.77 C 249.18,347.17 248.16,347.58 247.02,348.01 C 245.89,348.43 244.63,348.87 243.25,349.31 C 241.87,349.76 240.17,350.26 238.75,350.69 C 237.33,351.12 235.98,351.52 234.70,351.89 C 233.43,352.26 232.23,352.61 231.11,352.92 C 229.99,353.24 228.94,353.52 227.97,353.78 C 227.00,354.04 226.10,354.27 225.28,354.47 C 224.46,354.67 223.72,354.84 223.05,354.98 C 222.38,355.13 221.78,355.24 221.27,355.33 C 220.75,355.41 220.30,355.47 219.94,355.50 Z" fill="none" stroke="currentColor" stroke-width="1.5" stroke-linejoin="round" stroke-linecap="round" filter="url(#glow)" />
</svg>