<svg xmlns="http://www.w3.org/2000/svg" width="512" height="512" viewBox="114.32 115.10 278.58 304.80" preserveAspectRatio="xMidYMid meet">
  <defs>
    <filter id="glow" x="-30%" y="-30%" width="160%" height="160%">
      <feGaussianBlur in="SourceGraphic" stdDeviation="2.4" result="blur" />
      <feMerge>
        <feMergeNode in="blur" />
        <feMergeNode in="SourceGraphic" />
      </feMerge>
    </filter>
    <clipPath id="hull-clip">
      <path d="M 292.38,394.50 C 291.41,394.58 290.55,394.60 289.62,394.50 C 288.70,394.40 287.75,394.19 286.80,393.88 C 285.84,393.56 284.87,393.15 283.89,392.62 C 282.91,392.10 281.91,391.48 280.91,390.75 C 279.90,390.02 278.88,389.19 277.84,388.25 C 276.81,387.31 275.76,386.27 274.70,385.12 C 273.64,383.98 272.57,382.73 271.48,381.38 C 270.40,380.02 269.30,378.56 268.19,377.00 C 267.08,375.44 265.92,373.57 264.81,372.00 C 263.70,370.43 262.61,368.97 261.53,367.61 C 260.45,366.25 259.39,364.99 258.34,363.83 C 257.30,362.67 256.27,361.61 255.25,360.66 C 254.23,359.70 253.23,358.85 252.25,358.09 C 251.27,357.34 250.30,356.69 249.34,356.14 C 248.39,355.59 247.45,355.14 246.53,354.80 C 245.61,354.45 244.70,354.21 243.81,354.06 C 242.92,353.92 242.14,354.10 241.19,353.94 C 240.24,353.77 239.21,353.49 238.11,353.08 C 237.01,352.67 235.83,352.14 234.58,351.48 C 233.33,350.83 232.00,350.05 230.59,349.16 C 229.19,348.26 227.71,347.24 226.16,346.09 C 224.60,344.95 222.97,343.68 221.27,342.30 C 219.56,340.91 217.78,339.40 215.92,337.77 C 214.07,336.13 212.13,334.38 210.12,332.50 C 208.12,330.62 205.92,328.38 203.88,326.50 C 201.83,324.62 199.82,322.88 197.84,321.25 C 195.87,319.62 193.93,318.12 192.03,316.75 C 190.13,315.38 188.27,314.12 186.44,313.00 C 184.61,311.88 182.82,310.88 181.06,310.00 C 179.31,309.12 177.59,308.38 175.91,307.75 C 174.22,307.12 172.58,306.62 170.97,306.25 C 169.36,305.88 167.79,305.62 166.25,305.50 C 164.71,305.38 163.17,305.50 161.75,305.50 C 160.33,305.50 158.98,305.49 157.71,305.48 C 156.44,305.46 155.25,305.45 154.13,305.43 C 153.02,305.41 151.98,305.39 151.02,305.36 C 150.05,305.33 149.17,305.30 148.36,305.27 C 147.55,305.23 146.82,305.19 146.16,305.15 C 145.51,305.11 144.93,305.06 144.43,305.01 C 143.93,304.96 143.50,304.90 143.16,304.84 C 142.81,304.79 142.60,304.73 142.34,304.66 C 142.09,304.58 141.86,304.48 141.64,304.38 C 141.42,304.27 141.23,304.14 141.05,304.00 C 140.87,303.86 140.71,303.70 140.56,303.53 C 140.42,303.36 140.29,303.17 140.19,302.97 C 140.08,302.77 139.99,302.55 139.92,302.31 C 139.85,302.08 139.80,301.83 139.77,301.56 C 139.73,301.30 139.72,301.02 139.72,300.72 C 139.72,300.42 139.68,300.08 139.78,299.78 C 139.88,299.49 140.05,299.21 140.30,298.95 C 140.54,298.70 140.87,298.46 141.27,298.23 C 141.66,298.01 142.14,297.81 142.69,297.62 C 143.24,297.44 143.86,297.27 144.56,297.12 C 145.26,296.98 146.04,296.85 146.89,296.73 C 147.74,296.62 148.67,296.53 149.67,296.45 C 150.67,296.38 151.75,296.32 152.91,296.28 C 154.06,296.24 155.47,296.26 156.59,296.22 C 157.72,296.18 158.74,296.11 159.66,296.02 C 160.58,295.94 161.40,295.83 162.12,295.70 C 162.83,295.56 163.44,295.41 163.95,295.23 C 164.46,295.06 164.87,294.86 165.17,294.64 C 165.48,294.42 165.68,294.18 165.77,293.91 C 165.87,293.65 165.87,293.36 165.76,293.05 C 165.65,292.75 165.44,292.42 165.12,292.06 C 164.81,291.71 164.25,291.30 163.88,290.94 C 163.50,290.58 163.16,290.23 162.86,289.89 C 162.56,289.55 162.30,289.23 162.08,288.92 C 161.86,288.61 161.67,288.32 161.53,288.03 C 161.39,287.75 161.28,287.48 161.22,287.22 C 161.15,286.96 161.13,286.72 161.14,286.48 C 161.15,286.25 161.21,286.03 161.30,285.83 C 161.39,285.62 161.52,285.43 161.69,285.25 C 161.86,285.07 162.14,284.92 162.31,284.75 C 162.49,284.58 162.63,284.42 162.73,284.25 C 162.84,284.08 162.91,283.92 162.95,283.75 C 162.99,283.58 163.00,283.42 162.97,283.25 C 162.94,283.08 162.88,282.92 162.78,282.75 C 162.68,282.58 162.55,282.42 162.39,282.25 C 162.23,282.08 162.03,281.92 161.80,281.75 C 161.57,281.58 161.30,281.42 161.00,281.25 C 160.70,281.08 160.30,280.91 160.00,280.75 C 159.70,280.59 159.43,280.43 159.19,280.28 C 158.95,280.13 158.74,279.98 158.56,279.84 C 158.39,279.70 158.24,279.57 158.12,279.44 C 158.01,279.31 157.93,279.18 157.88,279.06 C 157.82,278.94 157.80,278.83 157.81,278.72 C 157.82,278.61 157.86,278.51 157.94,278.41 C 158.01,278.31 158.11,278.21 158.25,278.12 C 158.39,278.04 158.62,277.96 158.75,277.88 C 158.88,277.79 158.99,277.71 159.05,277.63 C 159.12,277.55 159.16,277.48 159.16,277.40 C 159.17,277.32 159.14,277.25 159.08,277.17 C 159.02,277.10 158.92,277.02 158.80,276.95 C 158.67,276.88 158.51,276.81 158.32,276.74 C 158.13,276.67 157.90,276.61 157.65,276.54 C 157.39,276.47 157.10,276.41 156.78,276.34 C 156.46,276.28 156.07,276.22 155.72,276.16 C 155.37,276.09 155.03,276.02 154.70,275.94 C 154.37,275.86 154.05,275.78 153.73,275.69 C 153.42,275.60 153.11,275.51 152.81,275.41 C 152.51,275.31 152.22,275.20 151.94,275.09 C 151.65,274.98 151.38,274.87 151.11,274.75 C 150.84,274.63 150.58,274.51 150.33,274.38 C 150.08,274.24 149.83,274.11 149.59,273.97 C 149.36,273.83 149.12,273.69 148.91,273.53 C 148.69,273.37 148.49,273.20 148.30,273.01 C 148.12,272.82 147.95,272.62 147.79,272.40 C 147.63,272.18 147.49,271.95 147.36,271.70 C 147.23,271.46 147.12,271.20 147.02,270.92 C 146.92,270.65 146.83,270.36 146.76,270.05 C 146.69,269.75 146.63,269.43 146.59,269.10 C 146.54,268.77 146.51,268.42 146.50,268.06 C 146.49,267.70 146.50,267.29 146.50,266.94 C 146.50,266.58 146.51,266.25 146.52,265.93 C 146.54,265.61 146.55,265.32 146.57,265.04 C 146.59,264.76 146.61,264.50 146.64,264.27 C 146.67,264.03 146.70,263.81 146.73,263.61 C 146.77,263.41 146.81,263.23 146.85,263.07 C 146.89,262.91 146.94,262.77 146.99,262.65 C 147.04,262.53 147.10,262.43 147.16,262.34 C 147.21,262.26 147.25,262.22 147.34,262.16 C 147.44,262.09 147.57,262.02 147.73,261.94 C 147.90,261.86 148.10,261.78 148.33,261.69 C 148.56,261.60 148.83,261.51 149.12,261.41 C 149.42,261.31 149.76,261.20 150.12,261.09 C 150.49,260.98 150.89,260.87 151.33,260.75 C 151.76,260.63 152.23,260.51 152.73,260.38 C 153.24,260.24 153.77,260.11 154.34,259.97 C 154.91,259.83 155.61,259.67 156.16,259.53 C 156.70,259.39 157.20,259.26 157.63,259.13 C 158.07,259.01 158.45,258.89 158.77,258.77 C 159.10,258.66 159.37,258.55 159.58,258.45 C 159.79,258.35 159.95,258.26 160.05,258.17 C 160.15,258.08 160.19,258.00 160.18,257.93 C 160.17,257.86 160.10,257.79 159.98,257.73 C 159.85,257.67 159.67,257.61 159.44,257.56 C 159.20,257.51 158.81,257.49 158.56,257.44 C 158.31,257.39 158.10,257.32 157.94,257.25 C 157.77,257.18 157.65,257.09 157.56,257.00 C 157.48,256.91 157.44,256.80 157.44,256.69 C 157.44,256.57 157.48,256.45 157.56,256.31 C 157.65,256.18 157.77,256.03 157.94,255.88 C 158.10,255.72 158.31,255.55 158.56,255.38 C 158.81,255.20 159.10,255.01 159.44,254.81 C 159.77,254.61 160.22,254.39 160.56,254.19 C 160.90,253.98 161.20,253.78 161.47,253.58 C 161.73,253.38 161.96,253.18 162.16,252.98 C 162.35,252.79 162.51,252.60 162.62,252.41 C 162.74,252.22 162.83,252.03 162.88,251.84 C 162.92,251.66 162.93,251.48 162.91,251.30 C 162.88,251.12 162.82,250.94 162.72,250.77 C 162.62,250.59 162.48,250.42 162.31,250.25 C 162.14,250.08 161.81,249.96 161.69,249.75 C 161.56,249.54 161.52,249.27 161.57,248.96 C 161.62,248.65 161.75,248.29 161.96,247.88 C 162.18,247.48 162.48,247.02 162.86,246.52 C 163.24,246.01 163.71,245.46 164.27,244.86 C 164.82,244.26 165.46,243.61 166.18,242.91 C 166.90,242.22 167.71,241.47 168.60,240.68 C 169.49,239.89 170.47,239.05 171.53,238.16 C 172.59,237.27 173.78,236.34 174.97,235.34 C 176.16,234.35 177.40,233.30 178.68,232.20 C 179.96,231.09 181.29,229.93 182.66,228.71 C 184.04,227.49 185.46,226.22 186.92,224.89 C 188.39,223.56 189.90,222.18 191.45,220.73 C 193.01,219.29 194.61,217.80 196.26,216.24 C 197.90,214.69 199.60,213.08 201.34,211.41 C 203.07,209.75 204.86,208.03 206.69,206.25 C 208.52,204.47 210.49,202.47 212.31,200.75 C 214.13,199.03 215.89,197.41 217.59,195.91 C 219.30,194.40 220.94,193.01 222.53,191.72 C 224.12,190.43 225.65,189.26 227.12,188.19 C 228.60,187.12 230.02,186.16 231.38,185.31 C 232.73,184.46 234.04,183.72 235.28,183.09 C 236.53,182.46 237.71,181.94 238.84,181.53 C 239.97,181.12 241.05,180.82 242.06,180.62 C 243.08,180.43 243.98,180.55 244.94,180.38 C 245.89,180.20 246.84,179.95 247.79,179.60 C 248.74,179.26 249.68,178.82 250.62,178.30 C 251.56,177.79 252.49,177.18 253.42,176.48 C 254.35,175.79 255.28,175.01 256.20,174.14 C 257.13,173.27 258.05,172.32 258.96,171.27 C 259.88,170.23 260.79,169.10 261.70,167.88 C 262.60,166.67 263.51,165.36 264.41,163.97 C 265.31,162.58 266.24,160.93 267.09,159.53 C 267.94,158.14 268.74,156.82 269.50,155.59 C 270.26,154.36 270.96,153.22 271.62,152.16 C 272.29,151.09 272.90,150.11 273.47,149.22 C 274.04,148.32 274.56,147.51 275.03,146.78 C 275.51,146.05 275.93,145.41 276.31,144.84 C 276.69,144.28 277.03,143.80 277.31,143.41 C 277.60,143.01 277.84,142.70 278.03,142.47 C 278.22,142.24 278.32,142.17 278.47,142.03 C 278.61,141.89 278.76,141.77 278.90,141.65 C 279.04,141.53 279.18,141.42 279.32,141.32 C 279.46,141.22 279.60,141.13 279.73,141.05 C 279.87,140.96 280.01,140.89 280.14,140.83 C 280.27,140.76 280.41,140.71 280.54,140.66 C 280.67,140.62 280.80,140.58 280.93,140.55 C 281.06,140.53 281.19,140.51 281.31,140.50 C 281.44,140.49 281.52,140.50 281.69,140.50 C 281.85,140.50 282.06,140.50 282.31,140.50 C 282.56,140.50 282.85,140.50 283.19,140.50 C 283.52,140.50 283.90,140.50 284.31,140.50 C 284.73,140.50 285.19,140.50 285.69,140.50 C 286.19,140.50 286.73,140.50 287.31,140.50 C 287.90,140.50 288.52,140.50 289.19,140.50 C 289.85,140.50 290.56,140.50 291.31,140.50 C 292.06,140.50 292.83,140.42 293.69,140.50 C 294.54,140.58 295.45,140.75 296.43,141.01 C 297.40,141.26 298.44,141.60 299.54,142.02 C 300.64,142.45 301.80,142.95 303.02,143.55 C 304.24,144.14 305.52,144.82 306.86,145.58 C 308.20,146.34 309.61,147.19 311.07,148.12 C 312.54,149.05 314.06,150.06 315.65,151.16 C 317.24,152.26 318.88,153.45 320.59,154.72 C 322.30,155.99 324.24,157.49 325.91,158.78 C 327.57,160.08 329.13,161.31 330.59,162.49 C 332.04,163.67 333.39,164.79 334.63,165.85 C 335.88,166.91 337.01,167.92 338.05,168.86 C 339.08,169.80 340.01,170.69 340.83,171.52 C 341.65,172.34 342.37,173.11 342.98,173.82 C 343.59,174.53 344.09,175.18 344.49,175.77 C 344.89,176.37 345.19,176.90 345.38,177.38 C 345.56,177.85 345.52,178.21 345.62,178.62 C 345.73,179.04 345.85,179.44 346.00,179.84 C 346.15,180.24 346.31,180.64 346.50,181.03 C 346.69,181.42 346.90,181.81 347.12,182.19 C 347.35,182.57 347.60,182.94 347.88,183.31 C 348.15,183.68 348.44,184.05 348.75,184.41 C 349.06,184.77 349.40,185.12 349.75,185.47 C 350.10,185.82 350.48,186.16 350.88,186.50 C 351.27,186.84 351.73,187.17 352.12,187.50 C 352.52,187.83 352.88,188.17 353.22,188.50 C 353.56,188.83 353.87,189.17 354.16,189.50 C 354.44,189.83 354.70,190.17 354.94,190.50 C 355.17,190.83 355.38,191.17 355.56,191.50 C 355.74,191.83 355.90,192.17 356.03,192.50 C 356.16,192.83 356.27,193.17 356.34,193.50 C 356.42,193.83 356.47,194.17 356.50,194.50 C 356.53,194.83 356.58,195.19 356.50,195.50 C 356.42,195.81 356.27,196.11 356.04,196.38 C 355.81,196.66 355.50,196.91 355.12,197.15 C 354.73,197.38 354.27,197.60 353.73,197.80 C 353.20,197.99 352.58,198.17 351.89,198.33 C 351.20,198.49 350.43,198.62 349.59,198.74 C 348.74,198.86 347.82,198.96 346.82,199.04 C 345.82,199.12 344.75,199.18 343.59,199.22 C 342.44,199.26 341.08,199.26 339.91,199.28 C 338.74,199.30 337.62,199.33 336.57,199.35 C 335.52,199.38 334.52,199.40 333.59,199.43 C 332.65,199.46 331.77,199.49 330.95,199.52 C 330.13,199.55 329.37,199.58 328.67,199.61 C 327.97,199.64 327.33,199.68 326.74,199.71 C 326.16,199.75 325.63,199.78 325.16,199.82 C 324.70,199.86 324.29,199.90 323.94,199.94 C 323.59,199.98 323.34,200.01 323.06,200.06 C 322.79,200.11 322.52,200.17 322.27,200.23 C 322.02,200.29 321.79,200.36 321.57,200.43 C 321.35,200.50 321.14,200.58 320.95,200.67 C 320.76,200.76 320.58,200.85 320.42,200.95 C 320.26,201.05 320.11,201.16 319.98,201.27 C 319.84,201.39 319.72,201.51 319.62,201.63 C 319.51,201.76 319.42,201.89 319.34,202.03 C 319.27,202.17 319.21,202.33 319.16,202.47 C 319.10,202.61 319.05,202.74 319.02,202.88 C 318.98,203.01 318.95,203.13 318.92,203.25 C 318.90,203.37 318.88,203.48 318.88,203.59 C 318.87,203.70 318.87,203.81 318.88,203.91 C 318.88,204.01 318.90,204.10 318.92,204.19 C 318.95,204.28 318.98,204.36 319.02,204.44 C 319.05,204.52 319.10,204.59 319.16,204.66 C 319.21,204.72 319.22,204.79 319.34,204.84 C 319.47,204.90 319.66,204.96 319.91,205.01 C 320.17,205.06 320.49,205.11 320.87,205.15 C 321.25,205.19 321.69,205.23 322.20,205.27 C 322.71,205.30 323.29,205.33 323.92,205.36 C 324.56,205.39 325.26,205.41 326.02,205.43 C 326.79,205.45 327.62,205.46 328.51,205.48 C 329.40,205.49 330.36,205.50 331.38,205.50 C 332.39,205.50 333.61,205.50 334.62,205.50 C 335.64,205.50 336.60,205.51 337.49,205.52 C 338.38,205.54 339.21,205.55 339.98,205.57 C 340.74,205.59 341.44,205.61 342.08,205.64 C 342.71,205.67 343.29,205.70 343.80,205.73 C 344.31,205.77 344.75,205.81 345.13,205.85 C 345.51,205.89 345.83,205.94 346.09,205.99 C 346.34,206.04 346.53,206.10 346.66,206.16 C 346.78,206.21 346.79,206.28 346.84,206.34 C 346.90,206.41 346.95,206.47 346.98,206.53 C 347.02,206.59 347.05,206.66 347.08,206.72 C 347.10,206.78 347.12,206.84 347.12,206.91 C 347.13,206.97 347.13,207.03 347.12,207.09 C 347.12,207.16 347.10,207.22 347.08,207.28 C 347.05,207.34 347.02,207.41 346.98,207.47 C 346.95,207.53 346.90,207.59 346.84,207.66 C 346.79,207.72 346.74,207.78 346.66,207.84 C 346.58,207.90 346.48,207.96 346.36,208.02 C 346.24,208.07 346.11,208.12 345.95,208.17 C 345.80,208.22 345.63,208.27 345.44,208.31 C 345.25,208.36 345.04,208.40 344.81,208.44 C 344.59,208.48 344.34,208.51 344.08,208.55 C 343.82,208.58 343.53,208.61 343.23,208.64 C 342.93,208.67 342.62,208.70 342.28,208.72 C 341.95,208.74 341.51,208.74 341.22,208.78 C 340.92,208.82 340.69,208.89 340.52,208.97 C 340.34,209.05 340.23,209.16 340.17,209.28 C 340.12,209.41 340.12,209.55 340.19,209.72 C 340.25,209.89 340.38,210.07 340.56,210.28 C 340.75,210.49 340.99,210.72 341.30,210.97 C 341.60,211.22 341.97,211.49 342.39,211.78 C 342.82,212.07 343.30,212.39 343.84,212.72 C 344.39,213.05 345.09,213.43 345.66,213.78 C 346.22,214.13 346.75,214.47 347.23,214.80 C 347.72,215.13 348.17,215.45 348.58,215.77 C 348.99,216.08 349.36,216.39 349.69,216.69 C 350.02,216.99 350.31,217.28 350.56,217.56 C 350.82,217.85 351.03,218.12 351.20,218.39 C 351.38,218.66 351.51,218.92 351.61,219.17 C 351.71,219.42 351.76,219.67 351.78,219.91 C 351.80,220.14 351.73,220.37 351.72,220.59 C 351.71,220.82 351.71,221.03 351.72,221.23 C 351.73,221.44 351.75,221.64 351.78,221.83 C 351.81,222.02 351.85,222.20 351.91,222.38 C 351.96,222.55 352.02,222.72 352.09,222.88 C 352.17,223.03 352.25,223.18 352.34,223.33 C 352.44,223.47 352.54,223.61 352.66,223.73 C 352.77,223.86 352.90,223.98 353.03,224.09 C 353.17,224.21 353.30,224.30 353.47,224.41 C 353.64,224.51 353.83,224.61 354.05,224.70 C 354.26,224.80 354.50,224.89 354.77,224.98 C 355.03,225.08 355.32,225.16 355.62,225.25 C 355.93,225.34 356.27,225.42 356.62,225.50 C 356.98,225.58 357.36,225.66 357.77,225.73 C 358.17,225.81 358.60,225.88 359.05,225.95 C 359.50,226.02 359.97,226.09 360.47,226.16 C 360.97,226.22 361.54,226.24 362.03,226.34 C 362.52,226.45 362.98,226.61 363.40,226.80 C 363.82,227.00 364.21,227.25 364.57,227.54 C 364.93,227.83 365.25,228.17 365.55,228.55 C 365.84,228.93 366.10,229.36 366.33,229.83 C 366.56,230.30 366.75,230.82 366.91,231.38 C 367.08,231.95 367.21,232.56 367.30,233.21 C 367.40,233.87 367.47,234.57 367.50,235.31 C 367.53,236.06 367.51,236.94 367.50,237.69 C 367.49,238.44 367.46,239.14 367.41,239.80 C 367.37,240.47 367.31,241.09 367.24,241.66 C 367.17,242.24 367.08,242.77 366.98,243.27 C 366.88,243.76 366.77,244.20 366.64,244.61 C 366.51,245.01 366.37,245.38 366.21,245.70 C 366.05,246.01 365.88,246.29 365.70,246.52 C 365.51,246.76 365.31,246.95 365.09,247.09 C 364.88,247.24 364.64,247.31 364.41,247.41 C 364.17,247.50 363.94,247.59 363.70,247.67 C 363.47,247.75 363.23,247.83 362.98,247.89 C 362.74,247.96 362.50,248.01 362.25,248.06 C 362.00,248.11 361.75,248.15 361.50,248.19 C 361.25,248.22 360.99,248.25 360.73,248.27 C 360.48,248.28 360.22,248.29 359.95,248.30 C 359.69,248.30 359.42,248.29 359.16,248.28 C 358.89,248.27 358.59,248.23 358.34,248.22 C 358.10,248.21 357.88,248.21 357.70,248.23 C 357.51,248.24 357.35,248.27 357.21,248.30 C 357.08,248.34 356.97,248.39 356.89,248.45 C 356.81,248.51 356.76,248.59 356.73,248.67 C 356.71,248.76 356.71,248.85 356.74,248.96 C 356.77,249.07 356.83,249.19 356.91,249.32 C 357.00,249.45 357.11,249.60 357.25,249.75 C 357.39,249.90 357.59,250.01 357.75,250.25 C 357.91,250.49 358.05,250.79 358.19,251.17 C 358.32,251.55 358.45,252.00 358.56,252.52 C 358.68,253.03 358.78,253.62 358.88,254.28 C 358.97,254.94 359.05,255.67 359.12,256.47 C 359.20,257.27 359.26,258.14 359.31,259.08 C 359.36,260.02 359.41,261.03 359.44,262.11 C 359.47,263.19 359.49,264.34 359.50,265.56 C 359.51,266.78 359.51,268.22 359.50,269.44 C 359.49,270.66 359.47,271.81 359.44,272.89 C 359.41,273.97 359.36,274.98 359.31,275.92 C 359.26,276.86 359.20,277.73 359.12,278.53 C 359.05,279.33 358.97,280.06 358.88,280.72 C 358.78,281.38 358.68,281.97 358.56,282.48 C 358.45,283.00 358.32,283.45 358.19,283.83 C 358.05,284.21 357.91,284.51 357.75,284.75 C 357.59,284.99 357.39,285.10 357.25,285.25 C 357.11,285.40 356.98,285.55 356.88,285.68 C 356.78,285.81 356.70,285.93 356.65,286.04 C 356.59,286.15 356.56,286.24 356.55,286.33 C 356.54,286.41 356.55,286.49 356.58,286.55 C 356.61,286.61 356.67,286.66 356.74,286.70 C 356.82,286.73 356.92,286.76 357.04,286.77 C 357.16,286.79 357.30,286.79 357.47,286.78 C 357.63,286.77 357.84,286.73 358.03,286.72 C 358.23,286.71 358.43,286.70 358.64,286.70 C 358.85,286.71 359.07,286.72 359.30,286.73 C 359.52,286.75 359.76,286.78 360.00,286.81 C 360.24,286.85 360.49,286.89 360.75,286.94 C 361.01,286.99 361.27,287.04 361.55,287.11 C 361.82,287.17 362.10,287.25 362.39,287.33 C 362.68,287.41 362.98,287.50 363.28,287.59 C 363.59,287.69 363.93,287.76 364.22,287.91 C 364.51,288.05 364.79,288.24 365.04,288.48 C 365.29,288.71 365.53,288.99 365.74,289.30 C 365.96,289.62 366.15,289.99 366.33,290.39 C 366.50,290.80 366.66,291.24 366.80,291.73 C 366.93,292.23 367.05,292.76 367.15,293.34 C 367.25,293.91 367.32,294.53 367.38,295.20 C 367.44,295.86 367.48,296.56 367.50,297.31 C 367.52,298.06 367.51,298.94 367.50,299.69 C 367.49,300.43 367.46,301.13 367.41,301.79 C 367.37,302.44 367.31,303.05 367.24,303.62 C 367.17,304.18 367.08,304.70 366.98,305.17 C 366.88,305.64 366.77,306.07 366.64,306.45 C 366.51,306.83 366.37,307.17 366.21,307.46 C 366.05,307.75 365.88,308.00 365.70,308.20 C 365.51,308.39 365.31,308.55 365.09,308.66 C 364.88,308.76 364.63,308.79 364.41,308.84 C 364.18,308.90 363.95,308.95 363.73,308.99 C 363.50,309.04 363.28,309.07 363.05,309.10 C 362.83,309.13 362.61,309.15 362.39,309.17 C 362.17,309.19 361.95,309.20 361.73,309.20 C 361.52,309.21 361.30,309.20 361.09,309.20 C 360.87,309.19 360.66,309.17 360.45,309.15 C 360.23,309.13 360.02,309.10 359.81,309.06 C 359.60,309.03 359.40,308.97 359.19,308.94 C 358.98,308.91 358.77,308.89 358.56,308.88 C 358.35,308.86 358.15,308.86 357.94,308.88 C 357.73,308.89 357.52,308.91 357.31,308.94 C 357.10,308.97 356.90,309.01 356.69,309.06 C 356.48,309.11 356.27,309.18 356.06,309.25 C 355.85,309.32 355.65,309.41 355.44,309.50 C 355.23,309.59 355.02,309.70 354.81,309.81 C 354.60,309.93 354.38,310.06 354.19,310.19 C 353.99,310.32 353.81,310.46 353.65,310.60 C 353.48,310.75 353.33,310.90 353.20,311.05 C 353.06,311.21 352.94,311.38 352.83,311.55 C 352.72,311.72 352.63,311.89 352.55,312.08 C 352.47,312.26 352.40,312.45 352.35,312.65 C 352.30,312.85 352.26,313.05 352.24,313.26 C 352.22,313.47 352.21,313.68 352.22,313.91 C 352.23,314.13 352.30,314.36 352.28,314.59 C 352.26,314.83 352.20,315.08 352.10,315.34 C 352.00,315.59 351.86,315.86 351.68,316.13 C 351.50,316.41 351.28,316.69 351.02,316.98 C 350.75,317.28 350.45,317.58 350.11,317.89 C 349.77,318.20 349.38,318.52 348.96,318.85 C 348.54,319.18 348.07,319.52 347.57,319.87 C 347.07,320.21 346.52,320.57 345.94,320.94 C 345.35,321.30 344.63,321.71 344.06,322.06 C 343.50,322.42 343.00,322.75 342.55,323.05 C 342.11,323.36 341.73,323.65 341.41,323.91 C 341.10,324.18 340.84,324.42 340.64,324.64 C 340.44,324.86 340.31,325.06 340.23,325.23 C 340.16,325.41 340.15,325.56 340.20,325.70 C 340.24,325.83 340.35,325.94 340.52,326.02 C 340.69,326.11 340.93,326.18 341.22,326.22 C 341.51,326.26 341.95,326.26 342.28,326.28 C 342.62,326.30 342.93,326.33 343.23,326.36 C 343.53,326.39 343.82,326.42 344.08,326.45 C 344.34,326.49 344.59,326.52 344.81,326.56 C 345.04,326.60 345.25,326.64 345.44,326.69 C 345.63,326.73 345.80,326.78 345.95,326.83 C 346.11,326.88 346.24,326.93 346.36,326.98 C 346.48,327.04 346.58,327.10 346.66,327.16 C 346.74,327.22 346.79,327.28 346.84,327.34 C 346.90,327.41 346.95,327.47 346.98,327.53 C 347.02,327.59 347.05,327.66 347.08,327.72 C 347.10,327.78 347.12,327.84 347.12,327.91 C 347.13,327.97 347.13,328.03 347.12,328.09 C 347.12,328.16 347.10,328.22 347.08,328.28 C 347.05,328.34 347.02,328.41 346.98,328.47 C 346.95,328.53 346.90,328.59 346.84,328.66 C 346.79,328.72 346.78,328.79 346.66,328.84 C 346.53,328.90 346.34,328.96 346.09,329.01 C 345.83,329.06 345.51,329.11 345.13,329.15 C 344.75,329.19 344.31,329.23 343.80,329.27 C 343.29,329.30 342.71,329.33 342.08,329.36 C 341.44,329.39 340.74,329.41 339.98,329.43 C 339.21,329.45 338.38,329.46 337.49,329.48 C 336.60,329.49 335.64,329.50 334.62,329.50 C 333.61,329.50 332.39,329.50 331.38,329.50 C 330.36,329.50 329.40,329.51 328.51,329.52 C 327.62,329.54 326.79,329.55 326.02,329.57 C 325.26,329.59 324.56,329.61 323.92,329.64 C 323.29,329.67 322.71,329.70 322.20,329.73 C 321.69,329.77 321.25,329.81 320.87,329.85 C 320.49,329.89 320.17,329.94 319.91,329.99 C 319.66,330.04 319.47,330.10 319.34,330.16 C 319.22,330.21 319.21,330.28 319.16,330.34 C 319.10,330.41 319.05,330.48 319.02,330.56 C 318.98,330.64 318.95,330.72 318.92,330.81 C 318.90,330.90 318.88,330.99 318.88,331.09 C 318.87,331.19 318.87,331.30 318.88,331.41 C 318.88,331.52 318.90,331.63 318.92,331.75 C 318.95,331.87 318.98,331.99 319.02,332.12 C 319.05,332.26 319.10,332.39 319.16,332.53 C 319.21,332.67 319.27,332.83 319.34,332.97 C 319.42,333.11 319.51,333.24 319.62,333.37 C 319.72,333.49 319.84,333.61 319.98,333.73 C 320.11,333.84 320.26,333.95 320.42,334.05 C 320.58,334.15 320.76,334.24 320.95,334.33 C 321.14,334.42 321.35,334.50 321.57,334.57 C 321.79,334.64 322.02,334.71 322.27,334.77 C 322.52,334.83 322.79,334.89 323.06,334.94 C 323.34,334.99 323.59,335.02 323.94,335.06 C 324.29,335.10 324.69,335.14 325.16,335.17 C 325.62,335.21 326.14,335.24 326.72,335.27 C 327.30,335.29 327.93,335.32 328.62,335.34 C 329.32,335.37 330.07,335.39 330.88,335.41 C 331.68,335.42 332.55,335.44 333.47,335.45 C 334.39,335.47 335.37,335.48 336.41,335.48 C 337.44,335.49 338.54,335.50 339.69,335.50 C 340.84,335.50 342.18,335.48 343.31,335.50 C 344.45,335.52 345.51,335.57 346.49,335.63 C 347.48,335.70 348.39,335.79 349.23,335.90 C 350.06,336.01 350.83,336.14 351.52,336.30 C 352.20,336.45 352.82,336.63 353.36,336.83 C 353.90,337.03 354.37,337.25 354.76,337.49 C 355.15,337.74 355.47,338.00 355.71,338.29 C 355.95,338.58 356.12,338.89 356.22,339.22 C 356.31,339.55 356.29,339.93 356.28,340.28 C 356.27,340.63 356.24,340.99 356.18,341.34 C 356.12,341.69 356.03,342.04 355.91,342.38 C 355.80,342.73 355.65,343.08 355.48,343.42 C 355.31,343.77 355.12,344.11 354.89,344.45 C 354.67,344.80 354.41,345.14 354.13,345.48 C 353.85,345.82 353.55,346.15 353.21,346.49 C 352.88,346.83 352.51,347.17 352.12,347.50 C 351.74,347.83 351.27,348.16 350.88,348.50 C 350.48,348.84 350.11,349.17 349.77,349.52 C 349.42,349.86 349.10,350.20 348.80,350.55 C 348.50,350.89 348.22,351.24 347.97,351.59 C 347.72,351.95 347.49,352.30 347.28,352.66 C 347.08,353.01 346.89,353.37 346.73,353.73 C 346.58,354.10 346.44,354.46 346.33,354.83 C 346.22,355.20 346.13,355.57 346.06,355.94 C 346.00,356.31 345.99,356.70 345.94,357.06 C 345.89,357.42 345.83,357.77 345.77,358.10 C 345.71,358.43 345.64,358.75 345.57,359.05 C 345.50,359.36 345.42,359.65 345.33,359.92 C 345.24,360.20 345.15,360.46 345.05,360.70 C 344.95,360.95 344.84,361.18 344.73,361.40 C 344.61,361.62 344.49,361.82 344.37,362.01 C 344.24,362.20 344.11,362.37 343.97,362.53 C 343.83,362.69 343.77,362.75 343.53,362.97 C 343.29,363.18 342.95,363.47 342.52,363.82 C 342.09,364.17 341.57,364.60 340.95,365.09 C 340.32,365.58 339.61,366.14 338.80,366.77 C 337.99,367.39 337.08,368.09 336.08,368.86 C 335.08,369.63 333.98,370.46 332.79,371.37 C 331.60,372.27 330.31,373.25 328.93,374.29 C 327.55,375.33 326.07,376.44 324.50,377.62 C 322.93,378.81 321.12,380.20 319.50,381.38 C 317.88,382.55 316.31,383.64 314.78,384.66 C 313.26,385.67 311.78,386.61 310.34,387.47 C 308.91,388.33 307.53,389.11 306.19,389.81 C 304.85,390.52 303.56,391.14 302.31,391.69 C 301.07,392.23 299.87,392.70 298.72,393.09 C 297.57,393.48 296.46,393.80 295.41,394.03 C 294.35,394.27 293.34,394.42 292.38,394.50 Z" />
    </clipPath>
  </defs>
  <path d="M 292.38,394.50 C 291.41,394.58 290.55,394.60 289.62,394.50 C 288.70,394.40 287.75,394.19 286.80,393.88 C 285.84,393.56 284.87,393.15 283.89,392.62 C 282.91,392.10 281.91,391.48 280.91,390.75 C 279.90,390.02 278.88,389.19 277.84,388.25 C 276.81,387.31 275.76,386.27 274.70,385.12 C 273.64,383.98 272.57,382.73 271.48,381.38 C 270.40,380.02 269.30,378.56 268.19,377.00 C 267.08,375.44 265.92,373.57 264.81,372.00 C 263.70,370.43 262.61,368.97 261.53,367.61 C 260.45,366.25 259.39,364.99 258.34,363.83 C 257.30,362.67 256.27,361.61 255.25,360.66 C 254.23,359.70 253.23,358.85 252.25,358.09 C 251.27,357.34 250.30,356.69 249.34,356.14 C 248.39,355.59 247.45,355.14 246.53,354.80 C 245.61,354.45 244.70,354.21 243.81,354.06 C 242.92,353.92 242.14,354.10 241.19,353.94 C 240.24,353.77 239.21,353.49 238.11,353.08 C 237.01,352.67 235.83,352.14 234.58,351.48 C 233.33,350.83 232.00,350.05 230.59,349.16 C 229.19,348.26 227.71,347.24 226.16,346.09 C 224.60,344.95 222.97,343.68 221.27,342.30 C 219.56,340.91 217.78,339.40 215.92,337.77 C 214.07,336.13 212.13,334.38 210.12,332.50 C 208.12,330.62 205.92,328.38 203.88,326.50 C 201.83,324.62 199.82,322.88 197.84,321.25 C 195.87,319.62 193.93,318.12 192.03,316.75 C 190.13,315.38 188.27,314.12 186.44,313.00 C 184.61,311.88 182.82,310.88 181.06,310.00 C 179.31,309.12 177.59,308.38 175.91,307.75 C 174.22,307.12 172.58,306.62 170.97,306.25 C 169.36,305.88 167.79,305.62 166.25,305.50 C 164.71,305.38 163.17,305.50 161.75,305.50 C 160.33,305.50 158.98,305.49 157.71,305.48 C 156.44,305.46 155.25,305.45 154.13,305.43 C 153.02,305.41 151.98,305.39 151.02,305.36 C 150.05,305.33 149.17,305.30 148.36,305.27 C 147.55,305.23 146.82,305.19 146.16,305.15 C 145.51,305.11 144.93,305.06 144.43,305.01 C 143.93,304.96 143.50,304.90 143.16,304.84 C 142.81,304.79 142.60,304.73 142.34,304.66 C 142.09,304.58 141.86,304.48 141.64,304.38 C 141.42,304.27 141.23,304.14 141.05,304.00 C 140.87,303.86 140.71,303.70 140.56,303.53 C 140.42,303.36 140.29,303.17 140.19,302.97 C 140.08,302.77 139.99,302.55 139.92,302.31 C 139.85,302.08 139.80,301.83 139.77,301.56 C 139.73,301.30 139.72,301.02 139.72,300.72 C 139.72,300.42 139.68,300.08 139.78,299.78 C 139.88,299.49 140.05,299.21 140.30,298.95 C 140.54,298.70 140.87,298.46 141.27,298.23 C 141.66,298.01 142.14,297.81 142.69,297.62 C 143.24,297.44 143.86,297.27 144.56,297.12 C 145.26,296.98 146.04,296.85 146.89,296.73 C 147.74,296.62 148.67,296.53 149.67,296.45 C 150.67,296.38 151.75,296.32 152.91,296.28 C 154.06,296.24 155.47,296.26 156.59,296.22 C 157.72,296.18 158.74,296.11 159.66,296.02 C 160.58,295.94 161.40,295.83 162.12,295.70 C 162.83,295.56 163.44,295.41 163.95,295.23 C 164.46,295.06 164.87,294.86 165.17,294.64 C 165.48,294.42 165.68,294.18 165.77,293.91 C 165.87,293.65 165.87,293.36 165.76,293.05 C 165.65,292.75 165.44,292.42 165.12,292.06 C 164.81,291.71 164.25,291.30 163.88,290.94 C 163.50,290.58 163.16,290.23 162.86,289.89 C 162.56,289.55 162.30,289.23 162.08,288.92 C 161.86,288.61 161.67,288.32 161.53,288.03 C 161.39,287.75 161.28,287.48 161.22,287.22 C 161.15,286.96 161.13,286.72 161.14,286.48 C 161.15,286.25 161.21,286.03 161.30,285.83 C 161.39,285.62 161.52,285.43 161.69,285.25 C 161.86,285.07 162.14,284.92 162.31,284.75 C 162.49,284.58 162.63,284.42 162.73,284.25 C 162.84,284.08 162.91,283.92 162.95,283.75 C 162.99,283.58 163.00,283.42 162.97,283.25 C 162.94,283.08 162.88,282.92 162.78,282.75 C 162.68,282.58 162.55,282.42 162.39,282.25 C 162.23,282.08 162.03,281.92 161.80,281.75 C 161.57,281.58 161.30,281.42 161.00,281.25 C 160.70,281.08 160.30,280.91 160.00,280.75 C 159.70,280.59 159.43,280.43 159.19,280.28 C 158.95,280.13 158.74,279.98 158.56,279.84 C 158.39,279.70 158.24,279.57 158.12,279.44 C 158.01,279.31 157.93,279.18 157.88,279.06 C 157.82,278.94 157.80,278.83 157.81,278.72 C 157.82,278.61 157.86,278.51 157.94,278.41 C 158.01,278.31 158.11,278.21 158.25,278.12 C 158.39,278.04 158.62,277.96 158.75,277.88 C 158.88,277.79 158.99,277.71 159.05,277.63 C 159.12,277.55 159.16,277.48 159.16,277.40 C 159.17,277.32 159.14,277.25 159.08,277.17 C 159.02,277.10 158.92,277.02 158.80,276.95 C 158.67,276.88 158.51,276.81 158.32,276.74 C 158.13,276.67 157.90,276.61 157.65,276.54 C 157.39,276.47 157.10,276.41 156.78,276.34 C 156.46,276.28 156.07,276.22 155.72,276.16 C 155.37,276.09 155.03,276.02 154.70,275.94 C 154.37,275.86 154.05,275.78 153.73,275.69 C 153.42,275.60 153.11,275.51 152.81,275.41 C 152.51,275.31 152.22,275.20 151.94,275.09 C 151.65,274.98 151.38,274.87 151.11,274.75 C 150.84,274.63 150.58,274.51 150.33,274.38 C 150.08,274.24 149.83,274.11 149.59,273.97 C 149.36,273.83 149.12,273.69 148.91,273.53 C 148.69,273.37 148.49,273.20 148.30,273.01 C 148.12,272.82 147.95,272.62 147.79,272.40 C 147.63,272.18 147.49,271.95 147.36,271.70 C 147.23,271.46 147.12,271.20 147.02,270.92 C 146.92,270.65 146.83,270.36 146.76,270.05 C 146.69,269.75 146.63,269.43 146.59,269.10 C 146.54,268.77 146.51,268.42 146.50,268.06 C 146.49,267.70 146.50,267.29 146.50,266.94 C 146.50,266.58 146.51,266.25 146.52,265.93 C 146.54,265.61 146.55,265.32 146.57,265.04 C 146.59,264.76 146.61,264.50 146.64,264.27 C 146.67,264.03 146.70,263.81 146.73,263.61 C 146.77,263.41 146.81,263.23 146.85,263.07 C 146.89,262.91 146.94,262.77 146.99,262.65 C 147.04,262.53 147.10,262.43 147.16,262.34 C 147.21,262.26 147.25,262.22 147.34,262.16 C 147.44,262.09 147.57,262.02 147.73,261.94 C 147.90,261.86 148.10,261.78 148.33,261.69 C 148.56,261.60 148.83,261.51 149.12,261.41 C 149.42,261.31 149.76,261.20 150.12,261.09 C 150.49,260.98 150.89,260.87 151.33,260.75 C 151.76,260.63 152.23,260.51 152.73,260.38 C 153.24,260.24 153.77,260.11 154.34,259.97 C 154.91,259.83 155.61,259.67 156.16,259.53 C 156.70,259.39 157.20,259.26 157.63,259.13 C 158.07,259.01 158.45,258.89 158.77,258.77 C 159.10,258.66 159.37,258.55 159.58,258.45 C 159.79,258.35 159.95,258.26 160.05,258.17 C 160.15,258.08 160.19,258.00 160.18,257.93 C 160.17,257.86 160.10,257.79 159.98,257.73 C 159.85,257.67 159.67,257.61 159.44,257.56 C 159.20,257.51 158.81,257.49 158.56,257.44 C 158.31,257.39 158.10,257.32 157.94,257.25 C 157.77,257.18 157.65,257.09 157.56,257.00 C 157.48,256.91 157.44,256.80 157.44,256.69 C 157.44,256.57 157.48,256.45 157.56,256.31 C 157.65,256.18 157.77,256.03 157.94,255.88 C 158.10,255.72 158.31,255.55 158.56,255.38 C 158.81,255.20 159.10,255.01 159.44,254.81 C 159.77,254.61 160.22,254.39 160.56,254.19 C 160.90,253.98 161.20,253.78 161.47,253.58 C 161.73,253.38 161.96,253.18 162.16,252.98 C 162.35,252.79 162.51,252.60 162.62,252.41 C 162.74,252.22 162.83,252.03 162.88,251.84 C 162.92,251.66 162.93,251.48 162.91,251.30 C 162.88,251.12 162.82,250.94 162.72,250.77 C 162.62,250.59 162.48,250.42 162.31,250.25 C 162.14,250.08 161.81,249.96 161.69,249.75 C 161.56,249.54 161.52,249.27 161.57,248.96 C 161.62,248.65 161.75,248.29 161.96,247.88 C 162.18,247.48 162.48,247.02 162.86,246.52 C 163.24,246.01 163.71,245.46 164.27,244.86 C 164.82,244.26 165.46,243.61 166.18,242.91 C 166.90,242.22 167.71,241.47 168.60,240.68 C 169.49,239.89 170.47,239.05 171.53,238.16 C 172.59,237.27 173.78,236.34 174.97,235.34 C 176.16,234.35 177.40,233.30 178.68,232.20 C 179.96,231.09 181.29,229.93 182.66,228.71 C 184.04,227.49 185.46,226.22 186.92,224.89 C 188.39,223.56 189.90,222.18 191.45,220.73 C 193.01,219.29 194.61,217.80 196.26,216.24 C 197.90,214.69 199.60,213.08 201.34,211.41 C 203.07,209.75 204.86,208.03 206.69,206.25 C 208.52,204.47 210.49,202.47 212.31,200.75 C 214.13,199.03 215.89,197.41 217.59,195.91 C 219.30,194.40 220.94,193.01 222.53,191.72 C 224.12,190.43 225.65,189.26 227.12,188.19 C 228.60,187.12 230.02,186.16 231.38,185.31 C 232.73,184.46 234.04,183.72 235.28,183.09 C 236.53,182.46 237.71,181.94 238.84,181.53 C 239.97,181.12 241.05,180.82 242.06,180.62 C 243.08,180.43 243.98,180.55 244.94,180.38 C 245.89,180.20 246.84,179.95 247.79,179.60 C 248.74,179.26 249.68,178.82 250.62,178.30 C 251.56,177.79 252.49,177.18 253.42,176.48 C 254.35,175.79 255.28,175.01 256.20,174.14 C 257.13,173.27 258.05,172.32 258.96,171.27 C 259.88,170.23 260.79,169.10 261.70,167.88 C 262.60,166.67 263.51,165.36 264.41,163.97 C 265.31,162.58 266.24,160.93 267.09,159.53 C 267.94,158.14 268.74,156.82 269.50,155.59 C 270.26,154.36 270.96,153.22 271.62,152.16 C 272.29,151.09 272.90,150.11 273.47,149.22 C 274.04,148.32 274.56,147.51 275.03,146.78 C 275.51,146.05 275.93,145.41 276.31,144.84 C 276.69,144.28 277.03,143.80 277.31,143.41 C 277.60,143.01 277.84,142.70 278.03,142.47 C 278.22,142.24 278.32,142.17 278.47,142.03 C 278.61,141.89 278.76,141.77 278.90,141.65 C 279.04,141.53 279.18,141.42 279.32,141.32 C 279.46,141.22 279.60,141.13 279.73,141.05 C 279.87,140.96 280.01,140.89 280.14,140.83 C 280.27,140.76 280.41,140.71 280.54,140.66 C 280.67,140.62 280.80,140.58 280.93,140.55 C 281.06,140.53 281.19,140.51 281.31,140.50 C 281.44,140.49 281.52,140.50 281.69,140.50 C 281.85,140.50 282.06,140.50 282.31,140.50 C 282.56,140.50 282.85,140.50 283.19,140.50 C 283.52,140.50 283.90,140.50 284.31,140.50 C 284.73,140.50 285.19,140.50 285.69,140.50 C 286.19,140.50 286.73,140.50 287.31,140.50 C 287.90,140.50 288.52,140.50 289.19,140.50 C 289.85,140.50 290.56,140.50 291.31,140.50 C 292.06,140.50 292.83,140.42 293.69,140.50 C 294.54,140.58 295.45,140.75 296.43,141.01 C 297.40,141.26 298.44,141.60 299.54,142.02 C 300.64,142.45 301.80,142.95 303.02,143.55 C 304.24,144.14 305.52,144.82 306.86,145.58 C 308.20,146.34 309.61,147.19 311.07,148.12 C 312.54,149.05 314.06,150.06 315.65,151.16 C 317.24,152.26 318.88,153.45 320.59,154.72 C 322.30,155.99 324.24,157.49 325.91,158.78 C 327.57,160.08 329.13,161.31 330.59,162.49 C 332.04,163.67 333.39,164.79 334.63,165.85 C 335.88,166.91 337.01,167.92 338.05,168.86 C 339.08,169.80 340.01,170.69 340.83,171.52 C 341.65,172.34 342.37,173.11 342.98,173.82 C 343.59,174.53 344.09,175.18 344.49,175.77 C 344.89,176.37 345.19,176.90 345.38,177.38 C 345.56,177.85 345.52,178.21 345.62,178.62 C 345.73,179.04 345.85,179.44 346.00,179.84 C 346.15,180.24 346.31,180.64 346.50,181.03 C 346.69,181.42 346.90,181.81 347.12,182.19 C 347.35,182.57 347.60,182.94 347.88,183.31 C 348.15,183.68 348.44,184.05 348.75,184.41 C 349.06,184.77 349.40,185.12 349.75,185.47 C 350.10,185.82 350.48,186.16 350.88,186.50 C 351.27,186.84 351.73,187.17 352.12,187.50 C 352.52,187.83 352.88,188.17 353.22,188.50 C 353.56,188.83 353.87,189.17 354.16,189.50 C 354.44,189.83 354.70,190.17 354.94,190.50 C 355.17,190.83 355.38,191.17 355.56,191.50 C 355.74,191.83 355.90,192.17 356.03,192.50 C 356.16,192.83 356.27,193.17 356.34,193.50 C 356.42,193.83 356.47,194.17 356.50,194.50 C 356.53,194.83 356.58,195.19 356.50,195.50 C 356.42,195.81 356.27,196.11 356.04,196.38 C 355.81,196.66 355.50,196.91 355.12,197.15 C 354.73,197.38 354.27,197.60 353.73,197.80 C 353.20,197.99 352.58,198.17 351.89,198.33 C 351.20,198.49 350.43,198.62 349.59,198.74 C 348.74,198.86 347.82,198.96 346.82,199.04 C 345.82,199.12 344.75,199.18 343.59,199.22 C 342.44,199.26 341.08,199.26 339.91,199.28 C 338.74,199.30 337.62,199.33 336.57,199.35 C 335.52,199.38 334.52,199.40 333.59,199.43 C 332.65,199.46 331.77,199.49 330.95,199.52 C 330.13,199.55 329.37,199.58 328.67,199.61 C 327.97,199.64 327.33,199.68 326.74,199.71 C 326.16,199.75 325.63,199.78 325.16,199.82 C 324.70,199.86 324.29,199.90 323.94,199.94 C 323.59,199.98 323.34,200.01 323.06,200.06 C 322.79,200.11 322.52,200.17 322.27,200.23 C 322.02,200.29 321.79,200.36 321.57,200.43 C 321.35,200.50 321.14,200.58 320.95,200.67 C 320.76,200.76 320.58,200.85 320.42,200.95 C 320.26,201.05 320.11,201.16 319.98,201.27 C 319.84,201.39 319.72,201.51 319.62,201.63 C 319.51,201.76 319.42,201.89 319.34,202.03 C 319.27,202.17 319.21,202.33 319.16,202.47 C 319.10,202.61 319.05,202.74 319.02,202.88 C 318.98,203.01 318.95,203.13 318.92,203.25 C 318.90,203.37 318.88,203.48 318.88,203.59 C 318.87,203.70 318.87,203.81 318.88,203.91 C 318.88,204.01 318.90,204.10 318.92,204.19 C 318.95,204.28 318.98,204.36 319.02,204.44 C 319.05,204.52 319.10,204.59 319.16,204.66 C 319.21,204.72 319.22,204.79 319.34,204.84 C 319.47,204.90 319.66,204.96 319.91,205.01 C 320.17,205.06 320.49,205.11 320.87,205.15 C 321.25,205.19 321.69,205.23 322.20,205.27 C 322.71,205.30 323.29,205.33 323.92,205.36 C 324.56,205.39 325.26,205.41 326.02,205.43 C 326.79,205.45 327.62,205.46 328.51,205.48 C 329.40,205.49 330.36,205.50 331.38,205.50 C 332.39,205.50 333.61,205.50 334.62,205.50 C 335.64,205.50 336.60,205.51 337.49,205.52 C 338.38,205.54 339.21,205.55 339.98,205.57 C 340.74,205.59 341.44,205.61 342.08,205.64 C 342.71,205.67 343.29,205.70 343.80,205.73 C 344.31,205.77 344.75,205.81 345.13,205.85 C 345.51,205.89 345.83,205.94 346.09,205.99 C 346.34,206.04 346.53,206.10 346.66,206.16 C 346.78,206.21 346.79,206.28 346.84,206.34 C 346.90,206.41 346.95,206.47 346.98,206.53 C 347.02,206.59 347.05,206.66 347.08,206.72 C 347.10,206.78 347.12,206.84 347.12,206.91 C 347.13,206.97 347.13,207.03 347.12,207.09 C 347.12,207.16 347.10,207.22 347.08,207.28 C 347.05,207.34 347.02,207.41 346.98,207.47 C 346.95,207.53 346.90,207.59 346.84,207.66 C 346.79,207.72 346.74,207.78 346.66,207.84 C 346.58,207.90 346.48,207.96 346.36,208.02 C 346.24,208.07 346.11,208.12 345.95,208.17 C 345.80,208.22 345.63,208.27 345.44,208.31 C 345.25,208.36 345.04,208.40 344.81,208.44 C 344.59,208.48 344.34,208.51 344.08,208.55 C 343.82,208.58 343.53,208.61 343.23,208.64 C 342.93,208.67 342.62,208.70 342.28,208.72 C 341.95,208.74 341.51,208.74 341.22,208.78 C 340.92,208.82 340.69,208.89 340.52,208.97 C 340.34,209.05 340.23,209.16 340.17,209.28 C 340.12,209.41 340.12,209.55 340.19,209.72 C 340.25,209.89 340.38,210.07 340.56,210.28 C 340.75,210.49 340.99,210.72 341.30,210.97 C 341.60,211.22 341.97,211.49 342.39,211.78 C 342.82,212.07 343.30,212.39 343.84,212.72 C 344.39,213.05 345.09,213.43 345.66,213.78 C 346.22,214.13 346.75,214.47 347.23,214.80 C 347.72,215.13 348.17,215.45 348.58,215.77 C 348.99,216.08 349.36,216.39 349.69,216.69 C 350.02,216.99 350.31,217.28 350.56,217.56 C 350.82,217.85 351.03,218.12 351.20,218.39 C 351.38,218.66 351.51,218.92 351.61,219.17 C 351.71,219.42 351.76,219.67 351.78,219.91 C 351.80,220.14 351.73,220.37 351.72,220.59 C 351.71,220.82 351.71,221.03 351.72,221.23 C 351.73,221.44 351.75,221.64 351.78,221.83 C 351.81,222.02 351.85,222.20 351.91,222.38 C 351.96,222.55 352.02,222.72 352.09,222.88 C 352.17,223.03 352.25,223.18 352.34,223.33 C 352.44,223.47 352.54,223.61 352.66,223.73 C 352.77,223.86 352.90,223.98 353.03,224.09 C 353.17,224.21 353.30,224.30 353.47,224.41 C 353.64,224.51 353.83,224.61 354.05,224.70 C 354.26,224.80 354.50,224.89 354.77,224.98 C 355.03,225.08 355.32,225.16 355.62,225.25 C 355.93,225.34 356.27,225.42 356.62,225.50 C 356.98,225.58 357.36,225.66 357.77,225.73 C 358.17,225.81 358.60,225.88 359.05,225.95 C 359.50,226.02 359.97,226.09 360.47,226.16 C 360.97,226.22 361.54,226.24 362.03,226.34 C 362.52,226.45 362.98,226.61 363.40,226.80 C 363.82,227.00 364.21,227.25 364.57,227.54 C 364.93,227.83 365.25,228.17 365.55,228.55 C 365.84,228.93 366.10,229.36 366.33,229.83 C 366.56,230.30 366.75,230.82 366.91,231.38 C 367.08,231.95 367.21,232.56 367.30,233.21 C 367.40,233.87 367.47,234.57 367.50,235.31 C 367.53,236.06 367.51,236.94 367.50,237.69 C 367.49,238.44 367.46,239.14 367.41,239.80 C 367.37,240.47 367.31,241.09 367.24,241.66 C 367.17,242.24 367.08,242.77 366.98,243.27 C 366.88,243.76 366.77,244.20 366.64,244.61 C 366.51,245.01 366.37,245.38 366.21,245.70 C 366.05,246.01 365.88,246.29 365.70,246.52 C 365.51,246.76 365.31,246.95 365.09,247.09 C 364.88,247.24 364.64,247.31 364.41,247.41 C 364.17,247.50 363.94,247.59 363.70,247.67 C 363.47,247.75 363.23,247.83 362.98,247.89 C 362.74,247.96 362.50,248.01 362.25,248.06 C 362.00,248.11 361.75,248.15 361.50,248.19 C 361.25,248.22 360.99,248.25 360.73,248.27 C 360.48,248.28 360.22,248.29 359.95,248.30 C 359.69,248.30 359.42,248.29 359.16,248.28 C 358.89,248.27 358.59,248.23 358.34,248.22 C 358.10,248.21 357.88,248.21 357.70,248.23 C 357.51,248.24 357.35,248.27 357.21,248.30 C 357.08,248.34 356.97,248.39 356.89,248.45 C 356.81,248.51 356.76,248.59 356.73,248.67 C 356.71,248.76 356.71,248.85 356.74,248.96 C 356.77,249.07 356.83,249.19 356.91,249.32 C 357.00,249.45 357.11,249.60 357.25,249.75 C 357.39,249.90 357.59,250.01 357.75,250.25 C 357.91,250.49 358.05,250.79 358.19,251.17 C 358.32,251.55 358.45,252.00 358.56,252.52 C 358.68,253.03 358.78,253.62 358.88,254.28 C 358.97,254.94 359.05,255.67 359.12,256.47 C 359.20,257.27 359.26,258.14 359.31,259.08 C 359.36,260.02 359.41,261.03 359.44,262.11 C 359.47,263.19 359.49,264.34 359.50,265.56 C 359.51,266.78 359.51,268.22 359.50,269.44 C 359.49,270.66 359.47,271.81 359.44,272.89 C 359.41,273.97 359.36,274.98 359.31,275.92 C 359.26,276.86 359.20,277.73 359.12,278.53 C 359.05,279.33 358.97,280.06 358.88,280.72 C 358.78,281.38 358.68,281.97 358.56,282.48 C 358.45,283.00 358.32,283.45 358.19,283.83 C 358.05,284.21 357.91,284.51 357.75,284.75 C 357.59,284.99 357.39,285.10 357.25,285.25 C 357.11,285.40 356.98,285.55 356.88,285.68 C 356.78,285.81 356.70,285.93 356.65,286.04 C 356.59,286.15 356.56,286.24 356.55,286.33 C 356.54,286.41 356.55,286.49 356.58,286.55 C 356.61,286.61 356.67,286.66 356.74,286.70 C 356.82,286.73 356.92,286.76 357.04,286.77 C 357.16,286.79 357.30,286.79 357.47,286.78 C 357.63,286.77 357.84,286.73 358.03,286.72 C 358.23,286.71 358.43,286.70 358.64,286.70 C 358.85,286.71 359.07,286.72 359.30,286.73 C 359.52,286.75 359.76,286.78 360.00,286.81 C 360.24,286.85 360.49,286.89 360.75,286.94 C 361.01,286.99 361.27,287.04 361.55,287.11 C 361.82,287.17 362.10,287.25 362.39,287.33 C 362.68,287.41 362.98,287.50 363.28,287.59 C 363.59,287.69 363.93,287.76 364.22,287.91 C 364.51,288.05 364.79,288.24 365.04,288.48 C 365.29,288.71 365.53,288.99 365.74,289.30 C 365.96,289.62 366.15,289.99 366.33,290.39 C 366.50,290.80 366.66,291.24 366.80,291.73 C 366.93,292.23 367.05,292.76 367.15,293.34 C 367.25,293.91 367.32,294.53 367.38,295.20 C 367.44,295.86 367.48,296.56 367.50,297.31 C 367.52,298.06 367.51,298.94 367.50,299.69 C 367.49,300.43 367.46,301.13 367.41,301.79 C 367.37,302.44 367.31,303.05 367.24,303.62 C 367.17,304.18 367.08,304.70 366.98,305.17 C 366.88,305.64 366.77,306.07 366.64,306.45 C 366.51,306.83 366.37,307.17 366.21,307.46 C 366.05,307.75 365.88,308.00 365.70,308.20 C 365.51,308.39 365.31,308.55 365.09,308.66 C 364.88,308.76 364.63,308.79 364.41,308.84 C 364.18,308.90 363.95,308.95 363.73,308.99 C 363.50,309.04 363.28,309.07 363.05,309.10 C 362.83,309.13 362.61,309.15 362.39,309.17 C 362.17,309.19 361.95,309.20 361.73,309.20 C 361.52,309.21 361.30,309.20 361.09,309.20 C 360.87,309.19 360.66,309.17 360.45,309.15 C 360.23,309.13 360.02,309.10 359.81,309.06 C 359.60,309.03 359.40,308.97 359.19,308.94 C 358.98,308.91 358.77,308.89 358.56,308.88 C 358.35,308.86 358.15,308.86 357.94,308.88 C 357.73,308.89 357.52,308.91 357.31,308.94 C 357.10,308.97 356.90,309.01 356.69,309.06 C 356.48,309.11 356.27,309.18 356.06,309.25 C 355.85,309.32 355.65,309.41 355.44,309.50 C 355.23,309.59 355.02,309.70 354.81,309.81 C 354.60,309.93 354.38,310.06 354.19,310.19 C 353.99,310.32 353.81,310.46 353.65,310.60 C 353.48,310.75 353.33,310.90 353.20,311.05 C 353.06,311.21 352.94,311.38 352.83,311.55 C 352.72,311.72 352.63,311.89 352.55,312.08 C 352.47,312.26 352.40,312.45 352.35,312.65 C 352.30,312.85 352.26,313.05 352.24,313.26 C 352.22,313.47 352.21,313.68 352.22,313.91 C 352.23,314.13 352.30,314.36 352.28,314.59 C 352.26,314.83 352.20,315.08 352.10,315.34 C 352.00,315.59 351.86,315.86 351.68,316.13 C 351.50,316.41 351.28,316.69 351.02,316.98 C 350.75,317.28 350.45,317.58 350.11,317.89 C 349.77,318.20 349.38,318.52 348.96,318.85 C 348.54,319.18 348.07,319.52 347.57,319.87 C 347.07,320.21 346.52,320.57 345.94,320.94 C 345.35,321.30 344.63,321.71 344.06,322.06 C 343.50,322.42 343.00,322.75 342.55,323.05 C 342.11,323.36 341.73,323.65 341.41,323.91 C 341.10,324.18 340.84,324.42 340.64,324.64 C 340.44,324.86 340.31,325.06 340.23,325.23 C 340.16,325.41 340.15,325.56 340.20,325.70 C 340.24,325.83 340.35,325.94 340.52,326.02 C 340.69,326.11 340.93,326.18 341.22,326.22 C 341.51,326.26 341.95,326.26 342.28,326.28 C 342.62,326.30 342.93,326.33 343.23,326.36 C 343.53,326.39 343.82,326.42 344.08,326.45 C 344.34,326.49 344.59,326.52 344.81,326.56 C 345.04,326.60 345.25,326.64 345.44,326.69 C 345.63,326.73 345.80,326.78 345.95,326.83 C 346.11,326.88 346.24,326.93 346.36,326.98 C 346.48,327.04 346.58,327.10 346.66,327.16 C 346.74,327.22 346.79,327.28 346.84,327.34 C 346.90,327.41 346.95,327.47 346.98,327.53 C 347.02,327.59 347.05,327.66 347.08,327.72 C 347.10,327.78 347.12,327.84 347.12,327.91 C 347.13,327.97 347.13,328.03 347.12,328.09 C 347.12,328.16 347.10,328.22 347.08,328.28 C 347.05,328.34 347.02,328.41 346.98,328.47 C 346.95,328.53 346.90,328.59 346.84,328.66 C 346.79,328.72 346.78,328.79 346.66,328.84 C 346.53,328.90 346.34,328.96 346.09,329.01 C 345.83,329.06 345.51,329.11 345.13,329.15 C 344.75,329.19 344.31,329.23 343.80,329.27 C 343.29,329.30 342.71,329.33 342.08,329.36 C 341.44,329.39 340.74,329.41 339.98,329.43 C 339.21,329.45 338.38,329.46 337.49,329.48 C 336.60,329.49 335.64,329.50 334.62,329.50 C 333.61,329.50 332.39,329.50 331.38,329.50 C 330.36,329.50 329.40,329.51 328.51,329.52 C 327.62,329.54 326.79,329.55 326.02,329.57 C 325.26,329.59 324.56,329.61 323.92,329.64 C 323.29,329.67 322.71,329.70 322.20,329.73 C 321.69,329.77 321.25,329.81 320.87,329.85 C 320.49,329.89 320.17,329.94 319.91,329.99 C 319.66,330.04 319.47,330.10 319.34,330.16 C 319.22,330.21 319.21,330.28 319.16,330.34 C 319.10,330.41 319.05,330.48 319.02,330.56 C 318.98,330.64 318.95,330.72 318.92,330.81 C 318.90,330.90 318.88,330.99 318.88,331.09 C 318.87,331.19 318.87,331.30 318.88,331.41 C 318.88,331.52 318.90,331.63 318.92,331.75 C 318.95,331.87 318.98,331.99 319.02,332.12 C 319.05,332.26 319.10,332.39 319.16,332.53 C 319.21,332.67 319.27,332.83 319.34,332.97 C 319.42,333.11 319.51,333.24 319.62,333.37 C 319.72,333.49 319.84,333.61 319.98,333.73 C 320.11,333.84 320.26,333.95 320.42,334.05 C 320.58,334.15 320.76,334.24 320.95,334.33 C 321.14,334.42 321.35,334.50 321.57,334.57 C 321.79,334.64 322.02,334.71 322.27,334.77 C 322.52,334.83 322.79,334.89 323.06,334.94 C 323.34,334.99 323.59,335.02 323.94,335.06 C 324.29,335.10 324.69,335.14 325.16,335.17 C 325.62,335.21 326.14,335.24 326.72,335.27 C 327.30,335.29 327.93,335.32 328.62,335.34 C 329.32,335.37 330.07,335.39 330.88,335.41 C 331.68,335.42 332.55,335.44 333.47,335.45 C 334.39,335.47 335.37,335.48 336.41,335.48 C 337.44,335.49 338.54,335.50 339.69,335.50 C 340.84,335.50 342.18,335.48 343.31,335.50 C 344.45,335.52 345.51,335.57 346.49,335.63 C 347.48,335.70 348.39,335.79 349.23,335.90 C 350.06,336.01 350.83,336.14 351.52,336.30 C 352.20,336.45 352.82,336.63 353.36,336.83 C 353.90,337.03 354.37,337.25 354.76,337.49 C 355.15,337.74 355.47,338.00 355.71,338.29 C 355.95,338.58 356.12,338.89 356.22,339.22 C 356.31,339.55 356.29,339.93 356.28,340.28 C 356.27,340.63 356.24,340.99 356.18,341.34 C 356.12,341.69 356.03,342.04 355.91,342.38 C 355.80,342.73 355.65,343.08 355.48,343.42 C 355.31,343.77 355.12,344.11 354.89,344.45 C 354.67,344.80 354.41,345.14 354.13,345.48 C 353.85,345.82 353.55,346.15 353.21,346.49 C 352.88,346.83 352.51,347.17 352.12,347.50 C 351.74,347.83 351.27,348.16 350.88,348.50 C 350.48,348.84 350.11,349.17 349.77,349.52 C 349.42,349.86 349.10,350.20 348.80,350.55 C 348.50,350.89 348.22,351.24 347.97,351.59 C 347.72,351.95 347.49,352.30 347.28,352.66 C 347.08,353.01 346.89,353.37 346.73,353.73 C 346.58,354.10 346.44,354.46 346.33,354.83 C 346.22,355.20 346.13,355.57 346.06,355.94 C 346.00,356.31 345.99,356.70 345.94,357.06 C 345.89,357.42 345.83,357.77 345.77,358.10 C 345.71,358.43 345.64,358.75 345.57,359.05 C 345.50,359.36 345.42,359.65 345.33,359.92 C 345.24,360.20 345.15,360.46 345.05,360.70 C 344.95,360.95 344.84,361.18 344.73,361.40 C 344.61,361.62 344.49,361.82 344.37,362.01 C 344.24,362.20 344.11,362.37 343.97,362.53 C 343.83,362.69 343.77,362.75 343.53,362.97 C 343.29,363.18 342.95,363.47 342.52,363.82 C 342.09,364.17 341.57,364.60 340.95,365.09 C 340.32,365.58 339.61,366.14 338.80,366.77 C 337.99,367.39 337.08,368.09 336.08,368.86 C 335.08,369.63 333.98,370.46 332.79,371.37 C 331.60,372.27 330.31,373.25 328.93,374.29 C 327.55,375.33 326.07,376.44 324.50,377.62 C 322.93,378.81 321.12,380.20 319.50,381.38 C 317.88,382.55 316.31,383.64 314.78,384.66 C 313.26,385.67 311.78,386.61 310.34,387.47 C 308.91,388.33 307.53,389.11 306.19,389.81 C 304.85,390.52 303.56,391.14 302.31,391.69 C 301.07,392.23 299.87,392.70 298.72,393.09 C 297.57,393.48 296.46,393.80 295.41,394.03 C 294.35,394.27 293.34,394.42 292.38,394.50 Z" stroke="none" fill="currentColor" opacity="0.11" />
  <path d="M200.91,297.07L194.00,297.07 M194.00,294.11L200.91,294.11 M200.91,303.09L194.00,303.09 M200.91,306.04L194.00,306.04 M155.31,297.43L185.08,297.43 M155.31,305.90L185.08,305.90 M155.31,296.90L185.08,296.90 M155.31,305.90L185.08,305.90 M155.31,297.43L185.08,297.43 M262.63,259.42L248.36,260.09 M259.07,274.85L257.57,275.13 M257.41,260.99L258.06,260.83 M248.36,276.00L262.63,276.67 M169.09,252.76L175.59,252.71 M247.36,248.26L217.12,248.30 M267.12,240.59L239.29,240.61 M192.49,261.78L198.79,262.59 M299.69,222.53L302.46,214.99 M258.41,222.72L268.37,211.13 M319.45,205.20L311.26,208.05 M299.69,313.56L302.46,321.10 M200.49,273.43L208.00,273.55 M301.92,310.09L312.70,297.53 M292.85,210.00L281.28,210.00 M302.07,226.50L312.81,238.71 M302.07,226.50L301.96,216.79 M281.28,210.00L269.10,210.00 M220.72,286.80L182.49,286.80 M292.85,326.08L302.23,326.10 M320.36,293.67L313.19,297.10 M312.85,297.36L301.87,310.02 M209.10,258.96L201.94,259.19 M209.10,277.13L201.94,276.89 M167.87,277.50L176.25,278.20 M245.61,301.64L240.73,297.41 M240.73,297.41L235.85,293.18 M292.27,337.61L286.84,337.61 M300.25,337.61L294.11,337.61 M301.15,341.99L292.15,341.99 M292.15,333.24L301.15,333.24 M210.96,268.04L217.20,268.04 M218.89,268.04L224.31,268.04 M210.02,263.67L219.02,263.67 M219.02,272.42L210.02,272.42 M292.27,198.48L286.84,198.48 M300.25,198.48L294.11,198.48 M301.15,202.85L292.15,202.85 M292.15,194.10L301.15,194.10 M235.37,241.89L241.95,241.91 M235.37,300.73L241.95,300.75 M234.04,290.46L227.57,292.50 M213.82,302.79L245.91,302.79 M213.82,302.79L245.91,302.79 M318.97,236.00L340.90,236.00 M340.90,236.00L351.04,236.00 M316.93,236.00L296.18,236.00 M340.90,237.08L351.04,237.08 M340.90,237.08L318.97,237.08 M316.93,237.08L296.18,237.08 M332.38,227.70L342.89,227.70 M332.38,225.00L342.89,225.00 M332.07,230.17L341.84,230.17 M341.84,230.17L351.04,230.17 M351.04,229.09L341.84,229.09 M341.84,229.09L332.07,229.09 M329.63,231.43L337.45,231.35 M329.54,231.13L337.45,231.04 M337.45,231.04L329.54,231.13 M344.71,231.43L337.45,231.35 M344.81,231.13L337.45,231.04 M344.81,231.13L337.45,231.04 M325.54,241.30L272.27,241.30 M325.54,244.40L272.27,244.40 M319.33,238.30L329.56,238.30 M319.33,241.31L329.56,241.31 M329.56,238.34L318.22,238.34 M329.56,241.31L341.09,241.31 M341.09,238.30L329.56,238.30 M341.09,238.34L329.56,238.34 M345.01,230.72L352.45,230.71 M345.01,230.51L352.37,230.51 M333.26,235.40L321.64,235.40 M321.64,235.44L333.26,235.44 M333.26,241.50L321.64,241.50 M340.71,235.44L352.45,235.45 M349.67,241.49L340.71,241.50 M352.37,235.66L340.71,235.66 M340.71,241.31L349.68,241.31 M333.26,241.54L340.71,241.54 M340.71,241.50L333.26,241.50 M340.71,235.44L333.26,235.44 M333.26,235.40L340.71,235.40 M340.71,235.66L333.26,235.66 M340.71,241.31L333.26,241.31 M350.52,235.40L340.71,235.40 M321.64,235.66L333.26,235.66 M333.26,241.31L321.64,241.31 M329.67,235.78L340.90,235.78 M329.67,237.29L340.90,237.29 M316.86,235.78L310.21,235.78 M316.86,237.29L310.21,237.29 M310.21,235.78L303.20,235.78 M310.21,237.29L303.20,237.29 M332.38,230.38L341.84,230.38 M341.84,228.87L351.04,228.87 M332.38,228.87L341.84,228.87 M340.90,235.78L351.04,235.78 M319.28,235.78L329.67,235.78 M340.90,237.29L351.04,237.29 M319.28,237.29L329.67,237.29 M303.20,235.78L296.18,235.78 M303.20,237.29L296.18,237.29 M341.84,230.38L351.04,230.38 M341.12,224.87L332.33,224.87 M341.12,227.89L332.33,227.89 M341.12,227.84L331.42,227.84 M340.47,241.50L331.03,241.50 M331.03,241.50L321.60,241.48 M321.60,235.92L331.03,235.89 M340.47,235.89L331.03,235.89 M278.66,239.14L289.05,239.11 M278.66,239.14L289.04,239.12 M289.05,239.11L319.86,239.11 M289.04,239.12L319.86,239.12 M288.99,247.70L319.68,247.61 M288.99,246.15L319.68,246.10 M288.99,246.15L278.63,245.90 M319.86,239.11L348.28,239.11 M348.62,252.30L319.86,252.45 M289.05,246.66L319.86,246.66 M348.27,246.66L319.86,246.66 M319.86,246.56L289.05,246.56 M289.05,246.56L278.63,246.54 M269.23,245.98L269.21,239.11 M269.21,239.11L269.25,219.14 M327.70,230.76L327.09,224.40 M269.18,219.13L269.18,219.13 M319.86,211.99L299.52,211.99 M319.86,211.99L330.12,212.00 M336.61,212.76L340.92,218.17 M344.51,220.36L350.09,221.53 M349.96,221.48L343.82,217.57 M352.16,249.44L352.16,249.44 M292.56,223.45L309.93,223.55 M309.93,223.55L309.94,238.34 M275.07,229.85L275.19,223.55 M275.19,223.55L292.56,223.45 M275.07,232.07L275.18,238.34 M292.56,238.56L275.18,238.34 M292.56,238.56L309.94,238.34 M329.72,234.57L350.31,234.52 M329.72,235.51L350.31,235.46 M329.72,226.59L350.31,226.54 M350.31,225.60L329.72,225.65 M355.41,228.32L348.65,228.33 M355.41,234.15L348.65,234.15 M325.83,231.90L325.83,222.74 M311.49,233.07L324.66,233.07 M310.34,222.74L310.33,231.90 M325.72,222.77L325.74,222.77 M310.46,231.91L310.43,231.91 M310.46,222.77L310.43,222.77 M325.72,231.91L325.74,231.91 M322.88,220.89L322.88,227.34 M313.30,227.34L313.30,220.89 M322.88,227.34L322.88,233.80 M313.30,233.80L313.30,227.34 M334.40,238.17L334.40,231.12 M347.28,238.17L347.28,231.12 M332.38,311.09L342.89,311.09 M342.89,308.39L332.38,308.39 M329.63,304.66L337.45,304.74 M329.54,304.96L337.45,305.05 M337.45,305.05L329.54,304.96 M344.71,304.66L337.45,304.74 M344.81,304.96L337.45,305.05 M344.81,304.96L337.45,305.05 M329.56,297.75L341.09,297.75 M329.56,297.75L318.22,297.75 M333.26,300.69L321.64,300.69 M333.26,294.55L340.71,294.55 M340.71,300.69L350.52,300.69 M333.26,300.69L340.71,300.69 M341.12,308.25L331.42,308.25 M327.70,305.33L327.09,311.69 M336.78,323.18L343.82,318.52 M343.82,318.52L349.96,314.61 M355.41,307.77L348.65,307.76 M355.41,301.93L348.65,301.94 M325.83,313.35L325.83,304.19 M324.66,303.02L311.49,303.02 M310.33,304.19L310.34,313.35 M325.72,304.18L325.74,304.18 M310.46,313.32L310.43,313.32 M310.46,304.18L310.43,304.18 M325.72,313.32L325.74,313.32 M322.88,302.29L322.88,308.75 M313.30,308.75L313.30,302.29 M322.88,308.75L322.88,315.20 M313.30,315.20L313.30,308.75 M334.66,300.45L334.66,302.31 M334.54,302.19L334.53,300.33 M347.54,302.31L347.54,300.45 M192.94,250.01L177.35,256.95 M186.75,259.52L200.49,259.53 M192.94,286.07L177.35,279.14 M186.75,276.57L200.49,276.56 M255.10,314.95L267.37,315.16 M267.37,315.16L255.10,316.43 M268.54,319.19L252.38,319.39 M252.01,318.36L268.54,318.62 M167.21,287.96L182.54,278.82 M175.79,252.54L200.49,242.96 M175.75,282.06L190.38,290.08 M246.43,333.50L236.95,318.78 M236.95,217.31L246.43,202.59 M227.60,223.81L195.79,242.14 M225.94,220.90L231.77,217.30 M216.11,274.03L215.63,262.65 M318.00,213.60L305.12,214.00 M305.12,322.09L318.00,322.49 M300.71,324.36L339.05,324.77 M309.72,319.03L348.06,319.43 M314.23,316.37L352.56,316.77 M352.56,219.32L314.23,219.72 M176.18,248.16L186.84,242.74 M230.79,225.30L221.15,223.48 M230.39,218.02L239.28,219.84 M240.18,316.25L231.30,318.07 M239.17,207.20L248.06,209.03 M248.06,327.06L239.17,328.89 M222.55,230.17L212.33,228.40 M216.53,225.97L226.70,227.79 M245.26,323.10L236.36,324.93 M236.36,211.16L245.26,212.99 M233.62,214.77L242.51,216.59 M242.51,319.50L233.62,321.32 M235.59,222.51L226.70,220.69 M206.78,239.82L195.47,238.12 M207.90,230.82L218.42,232.60 M214.47,234.94L203.69,233.37 M242.80,216.59L233.48,214.77 M233.48,321.32L242.80,319.50 M199.04,235.76L209.90,237.47 M251.10,204.96L242.21,203.13 M242.21,332.96L251.10,331.13 M235.93,211.14L245.17,213.02 M245.17,323.07L235.93,324.95 M204.62,233.37L215.81,234.94 M248.06,327.01L238.56,328.93 M238.56,207.16L248.06,209.07 M250.74,204.99L241.33,203.09 M217.67,225.97L228.23,227.79 M232.52,225.30L222.15,223.48 M207.52,239.82L196.21,238.12 M211.43,237.47L200.35,235.77 M193.62,246.27L182.15,245.34 M176.67,248.41L188.14,249.34 M188.14,286.75L176.67,287.68 M238.32,314.78L228.10,314.20 M226.73,220.35L191.00,240.77 M257.07,225.19L270.28,208.75 M300.40,302.49L294.47,303.83 M257.23,261.76L249.46,261.76 M257.23,261.76L249.46,261.76 M257.23,274.80L249.46,274.80 M257.48,262.15L257.48,269.17 M249.21,269.17L249.21,262.15 M249.26,268.90L249.26,262.41 M257.10,262.15L257.10,269.17 M257.12,269.17L257.12,262.15 M257.14,269.15L257.14,262.17 M255.62,269.15L255.62,262.17 M251.07,269.15L251.07,262.17 M256.07,262.15L256.07,269.17 M250.62,269.17L250.62,262.15 M247.50,275.16L258.41,275.16 M247.50,260.93L258.41,260.93 M255.46,259.56L262.14,259.56 M255.46,251.18L248.79,251.18 M249.04,259.55L249.04,250.44 M261.88,259.55L261.88,250.44 M301.02,190.30L293.43,190.81 M293.43,190.81L301.06,190.08 M301.02,184.31L293.43,184.82 M293.43,184.82L301.06,184.09 M301.02,190.99L293.43,191.20 M265.78,195.43L276.01,192.30 M276.01,192.30L265.67,195.74 M292.13,200.66L319.39,200.88 M319.39,200.88L292.13,200.46 M319.39,197.96L312.31,198.02 M282.10,191.04L298.40,191.06 M298.40,191.06L317.99,192.48 M310.17,194.06L271.58,194.06 M281.44,190.19L303.75,190.67 M294.96,214.41L295.11,207.93 M305.89,190.49L305.59,151.75 M305.59,151.75L305.89,190.49 M355.67,194.96L320.49,194.03 M342.14,172.05L286.84,172.46 M342.14,172.99L286.84,172.58 M334.69,166.27L288.60,166.68 M306.25,161.66L325.79,161.25 M306.25,160.72L325.79,161.13 M283.48,144.63L247.14,202.57 M239.15,270.40L228.34,270.40 M239.15,265.69L228.34,265.69 M209.04,214.09L259.30,213.12 M212.71,210.42L262.02,209.46 M216.40,206.74L264.57,205.82 M223.77,199.38L269.19,198.51 M229.66,188.35L276.88,187.56 M235.28,187.90L276.88,187.56 M225.87,192.02L274.76,191.22 M279.74,184.40L238.96,184.22 M262.02,326.63L212.71,325.67 M264.57,330.26L216.40,329.35 M276.88,348.53L235.28,348.19 M276.88,348.53L229.66,347.73 M274.76,344.87L231.61,344.52 M274.76,344.87L225.87,344.07 M238.96,351.86L279.74,351.69 M255.47,284.79L248.79,284.79 M255.47,284.79L262.15,284.79 M249.05,285.53L249.05,276.42 M261.89,276.42L261.89,285.53 M293.43,345.28L301.02,345.79 M293.43,345.28L301.06,346.01 M293.43,351.27L301.02,351.78 M293.43,351.27L301.06,352.00 M293.43,344.90L301.02,345.10 M265.67,340.35L276.01,343.79 M276.01,343.79L265.78,340.66 M292.13,335.43L319.39,335.21 M319.39,335.21L292.13,335.63 M312.31,338.07L319.39,338.14 M298.40,345.03L317.99,343.60 M300.78,333.94L319.23,332.85 M320.49,342.06L355.67,341.13 M286.84,363.63L342.14,364.04 M286.84,363.51L342.14,363.10 M334.69,369.82L288.60,369.41 M325.79,374.96L306.25,375.36 M325.79,374.84L306.25,374.43 M249.63,335.99L285.92,394.52 M249.08,336.15L285.45,394.99 M247.14,333.52L283.48,391.46 M253.35,351.41L262.25,349.58 M265.63,354.60L256.73,356.44 M262.63,365.98L271.53,364.14 M268.64,359.37L259.75,361.21 M244.83,337.22L253.73,335.39 M250.73,346.41L259.63,344.58 M256.70,339.88L247.81,341.71 M277.36,373.51L268.47,375.34 M277.23,390.27L286.12,388.44 M283.24,383.24L274.35,385.07 M274.41,368.87L265.52,370.70 M271.54,380.14L280.43,378.31 M253.19,350.79L262.08,348.95 M250.30,346.41L259.20,344.58 M244.14,337.26L253.56,335.35 M256.47,339.85L247.15,341.74 M232.75,262.98L216.84,262.98 M216.84,273.10L232.75,273.10 M317.12,264.31L316.81,271.79 M316.81,271.79L316.62,264.31 M316.62,264.31L317.12,271.78 M308.41,280.01L319.77,279.98 M308.41,256.19L319.77,256.22 M272.50,251.05L274.53,256.13 M309.22,287.24L302.99,286.56 M307.99,256.19L319.63,256.19 M319.63,255.31L308.00,255.51" stroke="currentColor" stroke-width="0.6" stroke-linecap="round" fill="none" opacity="0.55" clip-path="url(#hull-clip)" filter="url(#glow)" />
  <path d="M 292.38,394.50 C 291.41,394.58 290.55,394.60 289.62,394.50 C 288.70,394.40 287.75,394.19 286.80,393.88 C 285.84,393.56 284.87,393.15 283.89,392.62 C 282.91,392.10 281.91,391.48 280.91,390.75 C 279.90,390.02 278.88,389.19 277.84,388.25 C 276.81,387.31 275.76,386.27 274.70,385.12 C 273.64,383.98 272.57,382.73 271.48,381.38 C 270.40,380.02 269.30,378.56 268.19,377.00 C 267.08,375.44 265.92,373.57 264.81,372.00 C 263.70,370.43 262.61,368.97 261.53,367.61 C 260.45,366.25 259.39,364.99 258.34,363.83 C 257.30,362.67 256.27,361.61 255.25,360.66 C 254.23,359.70 253.23,358.85 252.25,358.09 C 251.27,357.34 250.30,356.69 249.34,356.14 C 248.39,355.59 247.45,355.14 246.53,354.80 C 245.61,354.45 244.70,354.21 243.81,354.06 C 242.92,353.92 242.14,354.10 241.19,353.94 C 240.24,353.77 239.21,353.49 238.11,353.08 C 237.01,352.67 235.83,352.14 234.58,351.48 C 233.33,350.83 232.00,350.05 230.59,349.16 C 229.19,348.26 227.71,347.24 226.16,346.09 C 224.60,344.95 222.97,343.68 221.27,342.30 C 219.56,340.91 217.78,339.40 215.92,337.77 C 214.07,336.13 212.13,334.38 210.12,332.50 C 208.12,330.62 205.92,328.38 203.88,326.50 C 201.83,324.62 199.82,322.88 197.84,321.25 C 195.87,319.62 193.93,318.12 192.03,316.75 C 190.13,315.38 188.27,314.12 186.44,313.00 C 184.61,311.88 182.82,310.88 181.06,310.00 C 179.31,309.12 177.59,308.38 175.91,307.75 C 174.22,307.12 172.58,306.62 170.97,306.25 C 169.36,305.88 167.79,305.62 166.25,305.50 C 164.71,305.38 163.17,305.50 161.75,305.50 C 160.33,305.50 158.98,305.49 157.71,305.48 C 156.44,305.46 155.25,305.45 154.13,305.43 C 153.02,305.41 151.98,305.39 151.02,305.36 C 150.05,305.33 149.17,305.30 148.36,305.27 C 147.55,305.23 146.82,305.19 146.16,305.15 C 145.51,305.11 144.93,305.06 144.43,305.01 C 143.93,304.96 143.50,304.90 143.16,304.84 C 142.81,304.79 142.60,304.73 142.34,304.66 C 142.09,304.58 141.86,304.48 141.64,304.38 C 141.42,304.27 141.23,304.14 141.05,304.00 C 140.87,303.86 140.71,303.70 140.56,303.53 C 140.42,303.36 140.29,303.17 140.19,302.97 C 140.08,302.77 139.99,302.55 139.92,302.31 C 139.85,302.08 139.80,301.83 139.77,301.56 C 139.73,301.30 139.72,301.02 139.72,300.72 C 139.72,300.42 139.68,300.08 139.78,299.78 C 139.88,299.49 140.05,299.21 140.30,298.95 C 140.54,298.70 140.87,298.46 141.27,298.23 C 141.66,298.01 142.14,297.81 142.69,297.62 C 143.24,297.44 143.86,297.27 144.56,297.12 C 145.26,296.98 146.04,296.85 146.89,296.73 C 147.74,296.62 148.67,296.53 149.67,296.45 C 150.67,296.38 151.75,296.32 152.91,296.28 C 154.06,296.24 155.47,296.26 156.59,296.22 C 157.72,296.18 158.74,296.11 159.66,296.02 C 160.58,295.94 161.40,295.83 162.12,295.70 C 162.83,295.56 163.44,295.41 163.95,295.23 C 164.46,295.06 164.87,294.86 165.17,294.64 C 165.48,294.42 165.68,294.18 165.77,293.91 C 165.87,293.65 165.87,293.36 165.76,293.05 C 165.65,292.75 165.44,292.42 165.12,292.06 C 164.81,291.71 164.25,291.30 163.88,290.94 C 163.50,290.58 163.16,290.23 162.86,289.89 C 162.56,289.55 162.30,289.23 162.08,288.92 C 161.86,288.61 161.67,288.32 161.53,288.03 C 161.39,287.75 161.28,287.48 161.22,287.22 C 161.15,286.96 161.13,286.72 161.14,286.48 C 161.15,286.25 161.21,286.03 161.30,285.83 C 161.39,285.62 161.52,285.43 161.69,285.25 C 161.86,285.07 162.14,284.92 162.31,284.75 C 162.49,284.58 162.63,284.42 162.73,284.25 C 162.84,284.08 162.91,283.92 162.95,283.75 C 162.99,283.58 163.00,283.42 162.97,283.25 C 162.94,283.08 162.88,282.92 162.78,282.75 C 162.68,282.58 162.55,282.42 162.39,282.25 C 162.23,282.08 162.03,281.92 161.80,281.75 C 161.57,281.58 161.30,281.42 161.00,281.25 C 160.70,281.08 160.30,280.91 160.00,280.75 C 159.70,280.59 159.43,280.43 159.19,280.28 C 158.95,280.13 158.74,279.98 158.56,279.84 C 158.39,279.70 158.24,279.57 158.12,279.44 C 158.01,279.31 157.93,279.18 157.88,279.06 C 157.82,278.94 157.80,278.83 157.81,278.72 C 157.82,278.61 157.86,278.51 157.94,278.41 C 158.01,278.31 158.11,278.21 158.25,278.12 C 158.39,278.04 158.62,277.96 158.75,277.88 C 158.88,277.79 158.99,277.71 159.05,277.63 C 159.12,277.55 159.16,277.48 159.16,277.40 C 159.17,277.32 159.14,277.25 159.08,277.17 C 159.02,277.10 158.92,277.02 158.80,276.95 C 158.67,276.88 158.51,276.81 158.32,276.74 C 158.13,276.67 157.90,276.61 157.65,276.54 C 157.39,276.47 157.10,276.41 156.78,276.34 C 156.46,276.28 156.07,276.22 155.72,276.16 C 155.37,276.09 155.03,276.02 154.70,275.94 C 154.37,275.86 154.05,275.78 153.73,275.69 C 153.42,275.60 153.11,275.51 152.81,275.41 C 152.51,275.31 152.22,275.20 151.94,275.09 C 151.65,274.98 151.38,274.87 151.11,274.75 C 150.84,274.63 150.58,274.51 150.33,274.38 C 150.08,274.24 149.83,274.11 149.59,273.97 C 149.36,273.83 149.12,273.69 148.91,273.53 C 148.69,273.37 148.49,273.20 148.30,273.01 C 148.12,272.82 147.95,272.62 147.79,272.40 C 147.63,272.18 147.49,271.95 147.36,271.70 C 147.23,271.46 147.12,271.20 147.02,270.92 C 146.92,270.65 146.83,270.36 146.76,270.05 C 146.69,269.75 146.63,269.43 146.59,269.10 C 146.54,268.77 146.51,268.42 146.50,268.06 C 146.49,267.70 146.50,267.29 146.50,266.94 C 146.50,266.58 146.51,266.25 146.52,265.93 C 146.54,265.61 146.55,265.32 146.57,265.04 C 146.59,264.76 146.61,264.50 146.64,264.27 C 146.67,264.03 146.70,263.81 146.73,263.61 C 146.77,263.41 146.81,263.23 146.85,263.07 C 146.89,262.91 146.94,262.77 146.99,262.65 C 147.04,262.53 147.10,262.43 147.16,262.34 C 147.21,262.26 147.25,262.22 147.34,262.16 C 147.44,262.09 147.57,262.02 147.73,261.94 C 147.90,261.86 148.10,261.78 148.33,261.69 C 148.56,261.60 148.83,261.51 149.12,261.41 C 149.42,261.31 149.76,261.20 150.12,261.09 C 150.49,260.98 150.89,260.87 151.33,260.75 C 151.76,260.63 152.23,260.51 152.73,260.38 C 153.24,260.24 153.77,260.11 154.34,259.97 C 154.91,259.83 155.61,259.67 156.16,259.53 C 156.70,259.39 157.20,259.26 157.63,259.13 C 158.07,259.01 158.45,258.89 158.77,258.77 C 159.10,258.66 159.37,258.55 159.58,258.45 C 159.79,258.35 159.95,258.26 160.05,258.17 C 160.15,258.08 160.19,258.00 160.18,257.93 C 160.17,257.86 160.10,257.79 159.98,257.73 C 159.85,257.67 159.67,257.61 159.44,257.56 C 159.20,257.51 158.81,257.49 158.56,257.44 C 158.31,257.39 158.10,257.32 157.94,257.25 C 157.77,257.18 157.65,257.09 157.56,257.00 C 157.48,256.91 157.44,256.80 157.44,256.69 C 157.44,256.57 157.48,256.45 157.56,256.31 C 157.65,256.18 157.77,256.03 157.94,255.88 C 158.10,255.72 158.31,255.55 158.56,255.38 C 158.81,255.20 159.10,255.01 159.44,254.81 C 159.77,254.61 160.22,254.39 160.56,254.19 C 160.90,253.98 161.20,253.78 161.47,253.58 C 161.73,253.38 161.96,253.18 162.16,252.98 C 162.35,252.79 162.51,252.60 162.62,252.41 C 162.74,252.22 162.83,252.03 162.88,251.84 C 162.92,251.66 162.93,251.48 162.91,251.30 C 162.88,251.12 162.82,250.94 162.72,250.77 C 162.62,250.59 162.48,250.42 162.31,250.25 C 162.14,250.08 161.81,249.96 161.69,249.75 C 161.56,249.54 161.52,249.27 161.57,248.96 C 161.62,248.65 161.75,248.29 161.96,247.88 C 162.18,247.48 162.48,247.02 162.86,246.52 C 163.24,246.01 163.71,245.46 164.27,244.86 C 164.82,244.26 165.46,243.61 166.18,242.91 C 166.90,242.22 167.71,241.47 168.60,240.68 C 169.49,239.89 170.47,239.05 171.53,238.16 C 172.59,237.27 173.78,236.34 174.97,235.34 C 176.16,234.35 177.40,233.30 178.68,232.20 C 179.96,231.09 181.29,229.93 182.66,228.71 C 184.04,227.49 185.46,226.22 186.92,224.89 C 188.39,223.56 189.90,222.18 191.45,220.73 C 193.01,219.29 194.61,217.80 196.26,216.24 C 197.90,214.69 199.60,213.08 201.34,211.41 C 203.07,209.75 204.86,208.03 206.69,206.25 C 208.52,204.47 210.49,202.47 212.31,200.75 C 214.13,199.03 215.89,197.41 217.59,195.91 C 219.30,194.40 220.94,193.01 222.53,191.72 C 224.12,190.43 225.65,189.26 227.12,188.19 C 228.60,187.12 230.02,186.16 231.38,185.31 C 232.73,184.46 234.04,183.72 235.28,183.09 C 236.53,182.46 237.71,181.94 238.84,181.53 C 239.97,181.12 241.05,180.82 242.06,180.62 C 243.08,180.43 243.98,180.55 244.94,180.38 C 245.89,180.20 246.84,179.95 247.79,179.60 C 248.74,179.26 249.68,178.82 250.62,178.30 C 251.56,177.79 252.49,177.18 253.42,176.48 C 254.35,175.79 255.28,175.01 256.20,174.14 C 257.13,173.27 258.05,172.32 258.96,171.27 C 259.88,170.23 260.79,169.10 261.70,167.88 C 262.60,166.67 263.51,165.36 264.41,163.97 C 265.31,162.58 266.24,160.93 267.09,159.53 C 267.94,158.14 268.74,156.82 269.50,155.59 C 270.26,154.36 270.96,153.22 271.62,152.16 C 272.29,151.09 272.90,150.11 273.47,149.22 C 274.04,148.32 274.56,147.51 275.03,146.78 C 275.51,146.05 275.93,145.41 276.31,144.84 C 276.69,144.28 277.03,143.80 277.31,143.41 C 277.60,143.01 277.84,142.70 278.03,142.47 C 278.22,142.24 278.32,142.17 278.47,142.03 C 278.61,141.89 278.76,141.77 278.90,141.65 C 279.04,141.53 279.18,141.42 279.32,141.32 C 279.46,141.22 279.60,141.13 279.73,141.05 C 279.87,140.96 280.01,140.89 280.14,140.83 C 280.27,140.76 280.41,140.71 280.54,140.66 C 280.67,140.62 280.80,140.58 280.93,140.55 C 281.06,140.53 281.19,140.51 281.31,140.50 C 281.44,140.49 281.52,140.50 281.69,140.50 C 281.85,140.50 282.06,140.50 282.31,140.50 C 282.56,140.50 282.85,140.50 283.19,140.50 C 283.52,140.50 283.90,140.50 284.31,140.50 C 284.73,140.50 285.19,140.50 285.69,140.50 C 286.19,140.50 286.73,140.50 287.31,140.50 C 287.90,140.50 288.52,140.50 289.19,140.50 C 289.85,140.50 290.56,140.50 291.31,140.50 C 292.06,140.50 292.83,140.42 293.69,140.50 C 294.54,140.58 295.45,140.75 296.43,141.01 C 297.40,141.26 298.44,141.60 299.54,142.02 C 300.64,142.45 301.80,142.95 303.02,143.55 C 304.24,144.14 305.52,144.82 306.86,145.58 C 308.20,146.34 309.61,147.19 311.07,148.12 C 312.54,149.05 314.06,150.06 315.65,151.16 C 317.24,152.26 318.88,153.45 320.59,154.72 C 322.30,155.99 324.24,157.49 325.91,158.78 C 327.57,160.08 329.13,161.31 330.59,162.49 C 332.04,163.67 333.39,164.79 334.63,165.85 C 335.88,166.91 337.01,167.92 338.05,168.86 C 339.08,169.80 340.01,170.69 340.83,171.52 C 341.65,172.34 342.37,173.11 342.98,173.82 C 343.59,174.53 344.09,175.18 344.49,175.77 C 344.89,176.37 345.19,176.90 345.38,177.38 C 345.56,177.85 345.52,178.21 345.62,178.62 C 345.73,179.04 345.85,179.44 346.00,179.84 C 346.15,180.24 346.31,180.64 346.50,181.03 C 346.69,181.42 346.90,181.81 347.12,182.19 C 347.35,182.57 347.60,182.94 347.88,183.31 C 348.15,183.68 348.44,184.05 348.75,184.41 C 349.06,184.77 349.40,185.12 349.75,185.47 C 350.10,185.82 350.48,186.16 350.88,186.50 C 351.27,186.84 351.73,187.17 352.12,187.50 C 352.52,187.83 352.88,188.17 353.22,188.50 C 353.56,188.83 353.87,189.17 354.16,189.50 C 354.44,189.83 354.70,190.17 354.94,190.50 C 355.17,190.83 355.38,191.17 355.56,191.50 C 355.74,191.83 355.90,192.17 356.03,192.50 C 356.16,192.83 356.27,193.17 356.34,193.50 C 356.42,193.83 356.47,194.17 356.50,194.50 C 356.53,194.83 356.58,195.19 356.50,195.50 C 356.42,195.81 356.27,196.11 356.04,196.38 C 355.81,196.66 355.50,196.91 355.12,197.15 C 354.73,197.38 354.27,197.60 353.73,197.80 C 353.20,197.99 352.58,198.17 351.89,198.33 C 351.20,198.49 350.43,198.62 349.59,198.74 C 348.74,198.86 347.82,198.96 346.82,199.04 C 345.82,199.12 344.75,199.18 343.59,199.22 C 342.44,199.26 341.08,199.26 339.91,199.28 C 338.74,199.30 337.62,199.33 336.57,199.35 C 335.52,199.38 334.52,199.40 333.59,199.43 C 332.65,199.46 331.77,199.49 330.95,199.52 C 330.13,199.55 329.37,199.58 328.67,199.61 C 327.97,199.64 327.33,199.68 326.74,199.71 C 326.16,199.75 325.63,199.78 325.16,199.82 C 324.70,199.86 324.29,199.90 323.94,199.94 C 323.59,199.98 323.34,200.01 323.06,200.06 C 322.79,200.11 322.52,200.17 322.27,200.23 C 322.02,200.29 321.79,200.36 321.57,200.43 C 321.35,200.50 321.14,200.58 320.95,200.67 C 320.76,200.76 320.58,200.85 320.42,200.95 C 320.26,201.05 320.11,201.16 319.98,201.27 C 319.84,201.39 319.72,201.51 319.62,201.63 C 319.51,201.76 319.42,201.89 319.34,202.03 C 319.27,202.17 319.21,202.33 319.16,202.47 C 319.10,202.61 319.05,202.74 319.02,202.88 C 318.98,203.01 318.95,203.13 318.92,203.25 C 318.90,203.37 318.88,203.48 318.88,203.59 C 318.87,203.70 318.87,203.81 318.88,203.91 C 318.88,204.01 318.90,204.10 318.92,204.19 C 318.95,204.28 318.98,204.36 319.02,204.44 C 319.05,204.52 319.10,204.59 319.16,204.66 C 319.21,204.72 319.22,204.79 319.34,204.84 C 319.47,204.90 319.66,204.96 319.91,205.01 C 320.17,205.06 320.49,205.11 320.87,205.15 C 321.25,205.19 321.69,205.23 322.20,205.27 C 322.71,205.30 323.29,205.33 323.92,205.36 C 324.56,205.39 325.26,205.41 326.02,205.43 C 326.79,205.45 327.62,205.46 328.51,205.48 C 329.40,205.49 330.36,205.50 331.38,205.50 C 332.39,205.50 333.61,205.50 334.62,205.50 C 335.64,205.50 336.60,205.51 337.49,205.52 C 338.38,205.54 339.21,205.55 339.98,205.57 C 340.74,205.59 341.44,205.61 342.08,205.64 C 342.71,205.67 343.29,205.70 343.80,205.73 C 344.31,205.77 344.75,205.81 345.13,205.85 C 345.51,205.89 345.83,205.94 346.09,205.99 C 346.34,206.04 346.53,206.10 346.66,206.16 C 346.78,206.21 346.79,206.28 346.84,206.34 C 346.90,206.41 346.95,206.47 346.98,206.53 C 347.02,206.59 347.05,206.66 347.08,206.72 C 347.10,206.78 347.12,206.84 347.12,206.91 C 347.13,206.97 347.13,207.03 347.12,207.09 C 347.12,207.16 347.10,207.22 347.08,207.28 C 347.05,207.34 347.02,207.41 346.98,207.47 C 346.95,207.53 346.90,207.59 346.84,207.66 C 346.79,207.72 346.74,207.78 346.66,207.84 C 346.58,207.90 346.48,207.96 346.36,208.02 C 346.24,208.07 346.11,208.12 345.95,208.17 C 345.80,208.22 345.63,208.27 345.44,208.31 C 345.25,208.36 345.04,208.40 344.81,208.44 C 344.59,208.48 344.34,208.51 344.08,208.55 C 343.82,208.58 343.53,208.61 343.23,208.64 C 342.93,208.67 342.62,208.70 342.28,208.72 C 341.95,208.74 341.51,208.74 341.22,208.78 C 340.92,208.82 340.69,208.89 340.52,208.97 C 340.34,209.05 340.23,209.16 340.17,209.28 C 340.12,209.41 340.12,209.55 340.19,209.72 C 340.25,209.89 340.38,210.07 340.56,210.28 C 340.75,210.49 340.99,210.72 341.30,210.97 C 341.60,211.22 341.97,211.49 342.39,211.78 C 342.82,212.07 343.30,212.39 343.84,212.72 C 344.39,213.05 345.09,213.43 345.66,213.78 C 346.22,214.13 346.75,214.47 347.23,214.80 C 347.72,215.13 348.17,215.45 348.58,215.77 C 348.99,216.08 349.36,216.39 349.69,216.69 C 350.02,216.99 350.31,217.28 350.56,217.56 C 350.82,217.85 351.03,218.12 351.20,218.39 C 351.38,218.66 351.51,218.92 351.61,219.17 C 351.71,219.42 351.76,219.67 351.78,219.91 C 351.80,220.14 351.73,220.37 351.72,220.59 C 351.71,220.82 351.71,221.03 351.72,221.23 C 351.73,221.44 351.75,221.64 351.78,221.83 C 351.81,222.02 351.85,222.20 351.91,222.38 C 351.96,222.55 352.02,222.72 352.09,222.88 C 352.17,223.03 352.25,223.18 352.34,223.33 C 352.44,223.47 352.54,223.61 352.66,223.73 C 352.77,223.86 352.90,223.98 353.03,224.09 C 353.17,224.21 353.30,224.30 353.47,224.41 C 353.64,224.51 353.83,224.61 354.05,224.70 C 354.26,224.80 354.50,224.89 354.77,224.98 C 355.03,225.08 355.32,225.16 355.62,225.25 C 355.93,225.34 356.27,225.42 356.62,225.50 C 356.98,225.58 357.36,225.66 357.77,225.73 C 358.17,225.81 358.60,225.88 359.05,225.95 C 359.50,226.02 359.97,226.09 360.47,226.16 C 360.97,226.22 361.54,226.24 362.03,226.34 C 362.52,226.45 362.98,226.61 363.40,226.80 C 363.82,227.00 364.21,227.25 364.57,227.54 C 364.93,227.83 365.25,228.17 365.55,228.55 C 365.84,228.93 366.10,229.36 366.33,229.83 C 366.56,230.30 366.75,230.82 366.91,231.38 C 367.08,231.95 367.21,232.56 367.30,233.21 C 367.40,233.87 367.47,234.57 367.50,235.31 C 367.53,236.06 367.51,236.94 367.50,237.69 C 367.49,238.44 367.46,239.14 367.41,239.80 C 367.37,240.47 367.31,241.09 367.24,241.66 C 367.17,242.24 367.08,242.77 366.98,243.27 C 366.88,243.76 366.77,244.20 366.64,244.61 C 366.51,245.01 366.37,245.38 366.21,245.70 C 366.05,246.01 365.88,246.29 365.70,246.52 C 365.51,246.76 365.31,246.95 365.09,247.09 C 364.88,247.24 364.64,247.31 364.41,247.41 C 364.17,247.50 363.94,247.59 363.70,247.67 C 363.47,247.75 363.23,247.83 362.98,247.89 C 362.74,247.96 362.50,248.01 362.25,248.06 C 362.00,248.11 361.75,248.15 361.50,248.19 C 361.25,248.22 360.99,248.25 360.73,248.27 C 360.48,248.28 360.22,248.29 359.95,248.30 C 359.69,248.30 359.42,248.29 359.16,248.28 C 358.89,248.27 358.59,248.23 358.34,248.22 C 358.10,248.21 357.88,248.21 357.70,248.23 C 357.51,248.24 357.35,248.27 357.21,248.30 C 357.08,248.34 356.97,248.39 356.89,248.45 C 356.81,248.51 356.76,248.59 356.73,248.67 C 356.71,248.76 356.71,248.85 356.74,248.96 C 356.77,249.07 356.83,249.19 356.91,249.32 C 357.00,249.45 357.11,249.60 357.25,249.75 C 357.39,249.90 357.59,250.01 357.75,250.25 C 357.91,250.49 358.05,250.79 358.19,251.17 C 358.32,251.55 358.45,252.00 358.56,252.52 C 358.68,253.03 358.78,253.62 358.88,254.28 C 358.97,254.94 359.05,255.67 359.12,256.47 C 359.20,257.27 359.26,258.14 359.31,259.08 C 359.36,260.02 359.41,261.03 359.44,262.11 C 359.47,263.19 359.49,264.34 359.50,265.56 C 359.51,266.78 359.51,268.22 359.50,269.44 C 359.49,270.66 359.47,271.81 359.44,272.89 C 359.41,273.97 359.36,274.98 359.31,275.92 C 359.26,276.86 359.20,277.73 359.12,278.53 C 359.05,279.33 358.97,280.06 358.88,280.72 C 358.78,281.38 358.68,281.97 358.56,282.48 C 358.45,283.00 358.32,283.45 358.19,283.83 C 358.05,284.21 357.91,284.51 357.75,284.75 C 357.59,284.99 357.39,285.10 357.25,285.25 C 357.11,285.40 356.98,285.55 356.88,285.68 C 356.78,285.81 356.70,285.93 356.65,286.04 C 356.59,286.15 356.56,286.24 356.55,286.33 C 356.54,286.41 356.55,286.49 356.58,286.55 C 356.61,286.61 356.67,286.66 356.74,286.70 C 356.82,286.73 356.92,286.76 357.04,286.77 C 357.16,286.79 357.30,286.79 357.47,286.78 C 357.63,286.77 357.84,286.73 358.03,286.72 C 358.23,286.71 358.43,286.70 358.64,286.70 C 358.85,286.71 359.07,286.72 359.30,286.73 C 359.52,286.75 359.76,286.78 360.00,286.81 C 360.24,286.85 360.49,286.89 360.75,286.94 C 361.01,286.99 361.27,287.04 361.55,287.11 C 361.82,287.17 362.10,287.25 362.39,287.33 C 362.68,287.41 362.98,287.50 363.28,287.59 C 363.59,287.69 363.93,287.76 364.22,287.91 C 364.51,288.05 364.79,288.24 365.04,288.48 C 365.29,288.71 365.53,288.99 365.74,289.30 C 365.96,289.62 366.15,289.99 366.33,290.39 C 366.50,290.80 366.66,291.24 366.80,291.73 C 366.93,292.23 367.05,292.76 367.15,293.34 C 367.25,293.91 367.32,294.53 367.38,295.20 C 367.44,295.86 367.48,296.56 367.50,297.31 C 367.52,298.06 367.51,298.94 367.50,299.69 C 367.49,300.43 367.46,301.13 367.41,301.79 C 367.37,302.44 367.31,303.05 367.24,303.62 C 367.17,304.18 367.08,304.70 366.98,305.17 C 366.88,305.64 366.77,306.07 366.64,306.45 C 366.51,306.83 366.37,307.17 366.21,307.46 C 366.05,307.75 365.88,308.00 365.70,308.20 C 365.51,308.39 365.31,308.55 365.09,308.66 C 364.88,308.76 364.63,308.79 364.41,308.84 C 364.18,308.90 363.95,308.95 363.73,308.99 C 363.50,309.04 363.28,309.07 363.05,309.10 C 362.83,309.13 362.61,309.15 362.39,309.17 C 362.17,309.19 361.95,309.20 361.73,309.20 C 361.52,309.21 361.30,309.20 361.09,309.20 C 360.87,309.19 360.66,309.17 360.45,309.15 C 360.23,309.13 360.02,309.10 359.81,309.06 C 359.60,309.03 359.40,308.97 359.19,308.94 C 358.98,308.91 358.77,308.89 358.56,308.88 C 358.35,308.86 358.15,308.86 357.94,308.88 C 357.73,308.89 357.52,308.91 357.31,308.94 C 357.10,308.97 356.90,309.01 356.69,309.06 C 356.48,309.11 356.27,309.18 356.06,309.25 C 355.85,309.32 355.65,309.41 355.44,309.50 C 355.23,309.59 355.02,309.70 354.81,309.81 C 354.60,309.93 354.38,310.06 354.19,310.19 C 353.99,310.32 353.81,310.46 353.65,310.60 C 353.48,310.75 353.33,310.90 353.20,311.05 C 353.06,311.21 352.94,311.38 352.83,311.55 C 352.72,311.72 352.63,311.89 352.55,312.08 C 352.47,312.26 352.40,312.45 352.35,312.65 C 352.30,312.85 352.26,313.05 352.24,313.26 C 352.22,313.47 352.21,313.68 352.22,313.91 C 352.23,314.13 352.30,314.36 352.28,314.59 C 352.26,314.83 352.20,315.08 352.10,315.34 C 352.00,315.59 351.86,315.86 351.68,316.13 C 351.50,316.41 351.28,316.69 351.02,316.98 C 350.75,317.28 350.45,317.58 350.11,317.89 C 349.77,318.20 349.38,318.52 348.96,318.85 C 348.54,319.18 348.07,319.52 347.57,319.87 C 347.07,320.21 346.52,320.57 345.94,320.94 C 345.35,321.30 344.63,321.71 344.06,322.06 C 343.50,322.42 343.00,322.75 342.55,323.05 C 342.11,323.36 341.73,323.65 341.41,323.91 C 341.10,324.18 340.84,324.42 340.64,324.64 C 340.44,324.86 340.31,325.06 340.23,325.23 C 340.16,325.41 340.15,325.56 340.20,325.70 C 340.24,325.83 340.35,325.94 340.52,326.02 C 340.69,326.11 340.93,326.18 341.22,326.22 C 341.51,326.26 341.95,326.26 342.28,326.28 C 342.62,326.30 342.93,326.33 343.23,326.36 C 343.53,326.39 343.82,326.42 344.08,326.45 C 344.34,326.49 344.59,326.52 344.81,326.56 C 345.04,326.60 345.25,326.64 345.44,326.69 C 345.63,326.73 345.80,326.78 345.95,326.83 C 346.11,326.88 346.24,326.93 346.36,326.98 C 346.48,327.04 346.58,327.10 346.66,327.16 C 346.74,327.22 346.79,327.28 346.84,327.34 C 346.90,327.41 346.95,327.47 346.98,327.53 C 347.02,327.59 347.05,327.66 347.08,327.72 C 347.10,327.78 347.12,327.84 347.12,327.91 C 347.13,327.97 347.13,328.03 347.12,328.09 C 347.12,328.16 347.10,328.22 347.08,328.28 C 347.05,328.34 347.02,328.41 346.98,328.47 C 346.95,328.53 346.90,328.59 346.84,328.66 C 346.79,328.72 346.78,328.79 346.66,328.84 C 346.53,328.90 346.34,328.96 346.09,329.01 C 345.83,329.06 345.51,329.11 345.13,329.15 C 344.75,329.19 344.31,329.23 343.80,329.27 C 343.29,329.30 342.71,329.33 342.08,329.36 C 341.44,329.39 340.74,329.41 339.98,329.43 C 339.21,329.45 338.38,329.46 337.49,329.48 C 336.60,329.49 335.64,329.50 334.62,329.50 C 333.61,329.50 332.39,329.50 331.38,329.50 C 330.36,329.50 329.40,329.51 328.51,329.52 C 327.62,329.54 326.79,329.55 326.02,329.57 C 325.26,329.59 324.56,329.61 323.92,329.64 C 323.29,329.67 322.71,329.70 322.20,329.73 C 321.69,329.77 321.25,329.81 320.87,329.85 C 320.49,329.89 320.17,329.94 319.91,329.99 C 319.66,330.04 319.47,330.10 319.34,330.16 C 319.22,330.21 319.21,330.28 319.16,330.34 C 319.10,330.41 319.05,330.48 319.02,330.56 C 318.98,330.64 318.95,330.72 318.92,330.81 C 318.90,330.90 318.88,330.99 318.88,331.09 C 318.87,331.19 318.87,331.30 318.88,331.41 C 318.88,331.52 318.90,331.63 318.92,331.75 C 318.95,331.87 318.98,331.99 319.02,332.12 C 319.05,332.26 319.10,332.39 319.16,332.53 C 319.21,332.67 319.27,332.83 319.34,332.97 C 319.42,333.11 319.51,333.24 319.62,333.37 C 319.72,333.49 319.84,333.61 319.98,333.73 C 320.11,333.84 320.26,333.95 320.42,334.05 C 320.58,334.15 320.76,334.24 320.95,334.33 C 321.14,334.42 321.35,334.50 321.57,334.57 C 321.79,334.64 322.02,334.71 322.27,334.77 C 322.52,334.83 322.79,334.89 323.06,334.94 C 323.34,334.99 323.59,335.02 323.94,335.06 C 324.29,335.10 324.69,335.14 325.16,335.17 C 325.62,335.21 326.14,335.24 326.72,335.27 C 327.30,335.29 327.93,335.32 328.62,335.34 C 329.32,335.37 330.07,335.39 330.88,335.41 C 331.68,335.42 332.55,335.44 333.47,335.45 C 334.39,335.47 335.37,335.48 336.41,335.48 C 337.44,335.49 338.54,335.50 339.69,335.50 C 340.84,335.50 342.18,335.48 343.31,335.50 C 344.45,335.52 345.51,335.57 346.49,335.63 C 347.48,335.70 348.39,335.79 349.23,335.90 C 350.06,336.01 350.83,336.14 351.52,336.30 C 352.20,336.45 352.82,336.63 353.36,336.83 C 353.90,337.03 354.37,337.25 354.76,337.49 C 355.15,337.74 355.47,338.00 355.71,338.29 C 355.95,338.58 356.12,338.89 356.22,339.22 C 356.31,339.55 356.29,339.93 356.28,340.28 C 356.27,340.63 356.24,340.99 356.18,341.34 C 356.12,341.69 356.03,342.04 355.91,342.38 C 355.80,342.73 355.65,343.08 355.48,343.42 C 355.31,343.77 355.12,344.11 354.89,344.45 C 354.67,344.80 354.41,345.14 354.13,345.48 C 353.85,345.82 353.55,346.15 353.21,346.49 C 352.88,346.83 352.51,347.17 352.12,347.50 C 351.74,347.83 351.27,348.16 350.88,348.50 C 350.48,348.84 350.11,349.17 349.77,349.52 C 349.42,349.86 349.10,350.20 348.80,350.55 C 348.50,350.89 348.22,351.24 347.97,351.59 C 347.72,351.95 347.49,352.30 347.28,352.66 C 347.08,353.01 346.89,353.37 346.73,353.73 C 346.58,354.10 346.44,354.46 346.33,354.83 C 346.22,355.20 346.13,355.57 346.06,355.94 C 346.00,356.31 345.99,356.70 345.94,357.06 C 345.89,357.42 345.83,357.77 345.77,358.10 C 345.71,358.43 345.64,358.75 345.57,359.05 C 345.50,359.36 345.42,359.65 345.33,359.92 C 345.24,360.20 345.15,360.46 345.05,360.70 C 344.95,360.95 344.84,361.18 344.73,361.40 C 344.61,361.62 344.49,361.82 344.37,362.01 C 344.24,362.20 344.11,362.37 343.97,362.53 C 343.83,362.69 343.77,362.75 343.53,362.97 C 343.29,363.18 342.95,363.47 342.52,363.82 C 342.09,364.17 341.57,364.60 340.95,365.09 C 340.32,365.58 339.61,366.14 338.80,366.77 C 337.99,367.39 337.08,368.09 336.08,368.86 C 335.08,369.63 333.98,370.46 332.79,371.37 C 331.60,372.27 330.31,373.25 328.93,374.29 C 327.55,375.33 326.07,376.44 324.50,377.62 C 322.93,378.81 321.12,380.20 319.50,381.38 C 317.88,382.55 316.31,383.64 314.78,384.66 C 313.26,385.67 311.78,386.61 310.34,387.47 C 308.91,388.33 307.53,389.11 306.19,389.81 C 304.85,390.52 303.56,391.14 302.31,391.69 C 301.07,392.23 299.87,392.70 298.72,393.09 C 297.57,393.48 296.46,393.80 295.41,394.03 C 294.35,394.27 293.34,394.42 292.38,394.50 Z" fill="none" stroke="currentColor" stroke-width="1.5" stroke-linejoin="round" stroke-linecap="round" filter="url(#glow)" />
</svg>