<svg xmlns="http://www.w3.org/2000/svg" width="512" height="512" viewBox="103.52 149.74 276.47 236.46" preserveAspectRatio="xMidYMid meet">
  <defs>
    <filter id="glow" x="-30%" y="-30%" width="160%" height="160%">
      <feGaussianBlur in="SourceGraphic" stdDeviation="2.4" result="blur" />
      <feMerge>
        <feMergeNode in="blur" />
        <feMergeNode in="SourceGraphic" />
      </feMerge>
    </filter>
    <clipPath id="hull-clip">
      <path d="M 255.69,366.50 C 255.56,366.51 255.43,366.51 255.31,366.50 C 255.19,366.49 255.07,366.48 254.96,366.46 C 254.85,366.44 254.74,366.42 254.63,366.38 C 254.53,366.35 254.43,366.31 254.33,366.27 C 254.23,366.22 254.14,366.17 254.05,366.11 C 253.96,366.05 253.87,365.99 253.79,365.91 C 253.71,365.84 253.63,365.76 253.55,365.68 C 253.48,365.60 253.41,365.50 253.34,365.41 C 253.28,365.31 253.22,365.24 253.16,365.09 C 253.10,364.95 253.04,364.77 252.98,364.55 C 252.92,364.34 252.86,364.08 252.80,363.79 C 252.75,363.50 252.69,363.17 252.64,362.80 C 252.59,362.43 252.54,362.02 252.48,361.58 C 252.43,361.13 252.38,360.65 252.34,360.13 C 252.29,359.61 252.24,359.06 252.20,358.46 C 252.15,357.87 252.11,357.23 252.06,356.56 C 252.02,355.89 251.98,355.11 251.94,354.44 C 251.89,353.77 251.84,353.13 251.79,352.54 C 251.74,351.94 251.68,351.39 251.62,350.87 C 251.56,350.35 251.49,349.87 251.42,349.42 C 251.35,348.98 251.28,348.57 251.20,348.20 C 251.13,347.83 251.05,347.50 250.96,347.21 C 250.88,346.92 250.79,346.66 250.70,346.45 C 250.60,346.23 250.51,346.05 250.41,345.91 C 250.31,345.76 250.20,345.69 250.09,345.59 C 249.99,345.50 249.89,345.41 249.79,345.34 C 249.69,345.26 249.59,345.19 249.49,345.13 C 249.39,345.07 249.30,345.02 249.20,344.98 C 249.11,344.94 249.01,344.91 248.92,344.89 C 248.83,344.87 248.74,344.86 248.65,344.85 C 248.56,344.85 248.47,344.85 248.38,344.87 C 248.30,344.88 248.21,344.90 248.12,344.94 C 248.04,344.97 247.96,345.03 247.88,345.06 C 247.79,345.09 247.70,345.11 247.61,345.12 C 247.52,345.14 247.42,345.14 247.33,345.12 C 247.23,345.11 247.13,345.09 247.03,345.06 C 246.93,345.03 246.83,344.99 246.72,344.94 C 246.61,344.89 246.50,344.82 246.39,344.75 C 246.28,344.68 246.16,344.59 246.05,344.50 C 245.93,344.41 245.81,344.30 245.69,344.19 C 245.57,344.07 245.44,343.93 245.31,343.81 C 245.18,343.69 245.05,343.58 244.91,343.47 C 244.77,343.36 244.62,343.26 244.47,343.16 C 244.32,343.06 244.16,342.96 244.00,342.88 C 243.84,342.79 243.67,342.70 243.50,342.62 C 243.33,342.55 243.15,342.47 242.97,342.41 C 242.79,342.34 242.60,342.28 242.41,342.22 C 242.21,342.16 242.02,342.11 241.81,342.06 C 241.61,342.02 241.46,341.98 241.19,341.94 C 240.92,341.90 240.59,341.85 240.20,341.81 C 239.82,341.77 239.37,341.73 238.86,341.69 C 238.35,341.65 237.78,341.60 237.16,341.56 C 236.53,341.52 235.84,341.48 235.09,341.44 C 234.35,341.40 233.54,341.35 232.67,341.31 C 231.80,341.27 230.88,341.23 229.89,341.19 C 228.90,341.15 227.86,341.10 226.75,341.06 C 225.64,341.02 224.35,340.98 223.25,340.94 C 222.15,340.89 221.12,340.85 220.16,340.80 C 219.20,340.76 218.31,340.71 217.49,340.66 C 216.67,340.62 215.92,340.57 215.23,340.52 C 214.55,340.46 213.94,340.41 213.39,340.36 C 212.85,340.31 212.37,340.25 211.96,340.20 C 211.55,340.14 211.21,340.08 210.95,340.02 C 210.68,339.96 210.48,339.90 210.34,339.84 C 210.21,339.78 210.21,339.77 210.16,339.66 C 210.10,339.55 210.04,339.39 209.99,339.18 C 209.94,338.97 209.89,338.72 209.85,338.41 C 209.81,338.11 209.77,337.76 209.73,337.36 C 209.70,336.96 209.67,336.51 209.64,336.02 C 209.61,335.52 209.59,334.98 209.57,334.38 C 209.55,333.79 209.54,333.15 209.52,332.46 C 209.51,331.77 209.50,331.04 209.50,330.25 C 209.50,329.46 209.49,328.54 209.50,327.75 C 209.51,326.96 209.52,326.22 209.55,325.52 C 209.57,324.82 209.60,324.16 209.64,323.55 C 209.68,322.93 209.73,322.37 209.78,321.84 C 209.84,321.32 209.90,320.84 209.97,320.41 C 210.04,319.97 210.12,319.58 210.20,319.23 C 210.29,318.89 210.38,318.59 210.48,318.33 C 210.59,318.07 210.70,317.86 210.81,317.69 C 210.93,317.52 211.10,317.47 211.19,317.31 C 211.27,317.15 211.32,316.96 211.34,316.73 C 211.35,316.50 211.32,316.23 211.26,315.93 C 211.19,315.63 211.09,315.29 210.95,314.92 C 210.81,314.55 210.64,314.14 210.42,313.70 C 210.21,313.26 209.95,312.79 209.66,312.27 C 209.37,311.76 209.05,311.21 208.68,310.63 C 208.31,310.05 207.91,309.43 207.47,308.78 C 207.03,308.13 206.65,307.42 206.03,306.72 C 205.41,306.02 204.65,305.30 203.74,304.57 C 202.84,303.84 201.79,303.10 200.60,302.34 C 199.41,301.58 198.08,300.80 196.61,300.02 C 195.14,299.23 193.52,298.43 191.77,297.61 C 190.01,296.79 188.11,295.96 186.07,295.12 C 184.03,294.27 181.85,293.41 179.52,292.54 C 177.20,291.67 174.73,290.78 172.12,289.88 C 169.52,288.97 166.48,288.00 163.88,287.12 C 161.27,286.25 158.82,285.42 156.52,284.64 C 154.21,283.86 152.05,283.12 150.05,282.42 C 148.04,281.73 146.18,281.08 144.47,280.47 C 142.76,279.86 141.20,279.30 139.78,278.78 C 138.37,278.26 137.10,277.79 135.98,277.36 C 134.87,276.93 133.90,276.54 133.08,276.20 C 132.26,275.86 131.59,275.57 131.06,275.31 C 130.54,275.06 130.30,274.90 129.94,274.69 C 129.58,274.48 129.23,274.27 128.90,274.05 C 128.57,273.84 128.25,273.63 127.95,273.41 C 127.64,273.20 127.35,272.98 127.08,272.77 C 126.80,272.55 126.54,272.33 126.30,272.11 C 126.05,271.89 125.82,271.67 125.60,271.45 C 125.38,271.22 125.18,271.00 124.99,270.77 C 124.80,270.55 124.63,270.32 124.47,270.09 C 124.31,269.87 124.16,269.63 124.03,269.41 C 123.90,269.18 123.79,268.96 123.69,268.75 C 123.59,268.54 123.51,268.33 123.44,268.12 C 123.37,267.92 123.32,267.72 123.28,267.53 C 123.24,267.34 123.22,267.15 123.22,266.97 C 123.21,266.79 123.22,266.61 123.25,266.44 C 123.28,266.27 123.32,266.10 123.38,265.94 C 123.43,265.78 123.51,265.62 123.59,265.47 C 123.68,265.32 123.79,265.18 123.91,265.03 C 124.03,264.88 124.17,264.73 124.32,264.57 C 124.48,264.41 124.65,264.25 124.84,264.09 C 125.02,263.92 125.23,263.75 125.45,263.58 C 125.68,263.40 125.92,263.23 126.17,263.05 C 126.43,262.87 126.70,262.68 126.99,262.49 C 127.28,262.30 127.59,262.11 127.91,261.91 C 128.24,261.72 128.58,261.52 128.94,261.31 C 129.30,261.11 129.53,260.94 130.06,260.69 C 130.59,260.43 131.27,260.13 132.11,259.78 C 132.95,259.43 133.93,259.04 135.08,258.59 C 136.22,258.15 137.52,257.66 138.97,257.12 C 140.42,256.59 142.02,256.01 143.78,255.38 C 145.54,254.74 147.45,254.07 149.52,253.34 C 151.58,252.62 153.80,251.85 156.17,251.03 C 158.54,250.21 161.07,249.35 163.75,248.44 C 166.43,247.53 169.57,246.50 172.25,245.56 C 174.93,244.62 177.47,243.70 179.85,242.79 C 182.24,241.88 184.47,240.99 186.55,240.12 C 188.64,239.24 190.57,238.39 192.36,237.55 C 194.14,236.71 195.78,235.88 197.27,235.08 C 198.75,234.27 200.09,233.48 201.27,232.71 C 202.46,231.94 203.50,231.18 204.38,230.45 C 205.27,229.71 206.01,228.99 206.59,228.28 C 207.18,227.58 207.50,226.87 207.91,226.22 C 208.31,225.57 208.68,224.95 209.01,224.37 C 209.34,223.79 209.64,223.24 209.90,222.73 C 210.16,222.21 210.39,221.74 210.58,221.30 C 210.77,220.86 210.93,220.45 211.05,220.08 C 211.17,219.71 211.25,219.37 211.30,219.07 C 211.36,218.77 211.37,218.50 211.35,218.27 C 211.33,218.04 211.28,217.85 211.19,217.69 C 211.10,217.53 210.93,217.48 210.81,217.31 C 210.70,217.15 210.59,216.94 210.48,216.69 C 210.38,216.44 210.29,216.15 210.20,215.81 C 210.12,215.48 210.04,215.10 209.97,214.69 C 209.90,214.27 209.84,213.81 209.78,213.31 C 209.73,212.81 209.68,212.27 209.64,211.69 C 209.60,211.10 209.57,210.48 209.55,209.81 C 209.52,209.15 209.51,208.44 209.50,207.69 C 209.49,206.94 209.48,206.06 209.50,205.31 C 209.52,204.56 209.55,203.86 209.60,203.20 C 209.65,202.53 209.72,201.91 209.80,201.34 C 209.89,200.76 209.99,200.23 210.11,199.73 C 210.23,199.24 210.36,198.80 210.52,198.39 C 210.67,197.99 210.84,197.62 211.02,197.30 C 211.21,196.99 211.41,196.71 211.63,196.48 C 211.85,196.24 212.09,196.05 212.34,195.91 C 212.60,195.76 212.83,195.69 213.16,195.59 C 213.48,195.49 213.87,195.40 214.30,195.30 C 214.74,195.21 215.24,195.12 215.79,195.04 C 216.34,194.95 216.95,194.87 217.61,194.80 C 218.27,194.72 218.99,194.65 219.77,194.58 C 220.54,194.51 221.37,194.44 222.26,194.38 C 223.14,194.32 224.09,194.26 225.09,194.21 C 226.08,194.16 227.14,194.11 228.25,194.06 C 229.36,194.02 230.65,193.98 231.75,193.94 C 232.85,193.89 233.88,193.84 234.84,193.78 C 235.81,193.72 236.70,193.66 237.53,193.59 C 238.36,193.53 239.12,193.45 239.81,193.38 C 240.51,193.30 241.13,193.21 241.69,193.12 C 242.24,193.04 242.73,192.94 243.16,192.84 C 243.58,192.74 243.93,192.64 244.22,192.53 C 244.51,192.42 244.72,192.31 244.88,192.19 C 245.03,192.07 245.04,191.93 245.12,191.81 C 245.21,191.70 245.31,191.59 245.41,191.48 C 245.51,191.38 245.61,191.29 245.72,191.20 C 245.83,191.12 245.94,191.04 246.06,190.97 C 246.18,190.90 246.31,190.84 246.44,190.78 C 246.57,190.73 246.70,190.68 246.84,190.64 C 246.98,190.60 247.13,190.57 247.28,190.55 C 247.43,190.52 247.59,190.51 247.75,190.50 C 247.91,190.49 248.08,190.52 248.25,190.50 C 248.42,190.48 248.58,190.45 248.74,190.40 C 248.90,190.35 249.07,190.28 249.23,190.20 C 249.39,190.11 249.55,190.01 249.70,189.89 C 249.86,189.77 250.02,189.64 250.17,189.48 C 250.33,189.33 250.48,189.16 250.63,188.98 C 250.79,188.79 250.94,188.59 251.09,188.37 C 251.24,188.15 251.38,187.91 251.53,187.66 C 251.68,187.40 251.84,187.12 251.97,186.84 C 252.10,186.57 252.22,186.30 252.32,186.02 C 252.42,185.75 252.51,185.47 252.59,185.20 C 252.66,184.92 252.72,184.64 252.77,184.36 C 252.81,184.08 252.84,183.80 252.86,183.52 C 252.88,183.23 252.88,182.95 252.87,182.66 C 252.86,182.38 252.83,182.09 252.79,181.80 C 252.75,181.52 252.69,181.23 252.62,180.94 C 252.56,180.65 252.44,180.36 252.38,180.06 C 252.31,179.77 252.25,179.47 252.21,179.16 C 252.17,178.86 252.14,178.55 252.13,178.24 C 252.12,177.93 252.12,177.62 252.14,177.30 C 252.16,176.98 252.19,176.65 252.23,176.33 C 252.28,176.00 252.34,175.67 252.41,175.34 C 252.49,175.00 252.58,174.66 252.68,174.32 C 252.78,173.98 252.90,173.63 253.03,173.28 C 253.16,172.93 253.32,172.54 253.47,172.22 C 253.61,171.89 253.76,171.60 253.91,171.33 C 254.05,171.06 254.20,170.82 254.34,170.61 C 254.49,170.40 254.64,170.22 254.78,170.06 C 254.93,169.91 255.07,169.78 255.22,169.69 C 255.36,169.59 255.51,169.52 255.66,169.48 C 255.80,169.45 255.95,169.43 256.09,169.45 C 256.24,169.47 256.39,169.52 256.53,169.59 C 256.68,169.67 256.83,169.78 256.97,169.91 C 257.11,170.03 257.25,170.17 257.39,170.33 C 257.53,170.49 257.66,170.66 257.80,170.86 C 257.93,171.05 258.06,171.27 258.19,171.50 C 258.32,171.73 258.44,171.98 258.56,172.25 C 258.68,172.52 258.80,172.80 258.92,173.11 C 259.04,173.41 259.15,173.74 259.27,174.08 C 259.38,174.42 259.49,174.78 259.59,175.16 C 259.70,175.53 259.74,175.98 259.91,176.34 C 260.07,176.71 260.30,177.05 260.59,177.37 C 260.87,177.68 261.22,177.97 261.63,178.23 C 262.04,178.49 262.51,178.72 263.05,178.92 C 263.58,179.13 264.17,179.30 264.83,179.45 C 265.48,179.60 266.20,179.73 266.98,179.82 C 267.75,179.92 268.59,179.98 269.49,180.02 C 270.39,180.06 271.35,180.08 272.38,180.06 C 273.40,180.05 274.61,179.94 275.62,179.94 C 276.64,179.94 277.59,179.98 278.48,180.07 C 279.36,180.16 280.18,180.29 280.93,180.46 C 281.68,180.63 282.37,180.85 282.98,181.11 C 283.60,181.37 284.15,181.67 284.64,182.02 C 285.13,182.36 285.55,182.75 285.90,183.18 C 286.25,183.61 286.54,184.08 286.76,184.60 C 286.98,185.12 287.13,185.68 287.22,186.28 C 287.31,186.88 287.25,187.60 287.28,188.22 C 287.32,188.83 287.37,189.42 287.43,189.98 C 287.49,190.53 287.57,191.06 287.66,191.55 C 287.76,192.05 287.86,192.52 287.98,192.95 C 288.11,193.39 288.24,193.80 288.39,194.17 C 288.54,194.55 288.70,194.89 288.88,195.21 C 289.06,195.53 289.25,195.81 289.46,196.07 C 289.67,196.33 289.89,196.55 290.12,196.75 C 290.36,196.95 290.62,197.05 290.88,197.25 C 291.13,197.45 291.39,197.68 291.66,197.95 C 291.93,198.21 292.21,198.51 292.49,198.84 C 292.77,199.17 293.06,199.53 293.36,199.92 C 293.65,200.32 293.96,200.74 294.27,201.20 C 294.57,201.66 294.89,202.15 295.21,202.68 C 295.53,203.20 295.86,203.76 296.20,204.35 C 296.53,204.94 296.87,205.56 297.22,206.22 C 297.57,206.87 297.80,207.65 298.28,208.28 C 298.77,208.92 299.38,209.50 300.12,210.03 C 300.87,210.56 301.74,211.04 302.75,211.47 C 303.76,211.90 304.89,212.27 306.16,212.59 C 307.42,212.92 308.82,213.19 310.34,213.41 C 311.87,213.62 313.53,213.79 315.31,213.91 C 317.10,214.02 319.02,214.08 321.06,214.09 C 323.11,214.10 325.29,214.06 327.59,213.97 C 329.90,213.88 332.62,213.60 334.91,213.53 C 337.19,213.47 339.32,213.48 341.30,213.58 C 343.27,213.67 345.10,213.85 346.77,214.11 C 348.43,214.37 349.95,214.71 351.31,215.12 C 352.67,215.54 353.88,216.04 354.94,216.62 C 355.99,217.21 356.89,217.87 357.64,218.61 C 358.39,219.35 358.98,220.17 359.42,221.08 C 359.86,221.98 360.15,222.97 360.28,224.03 C 360.41,225.10 360.28,226.39 360.22,227.47 C 360.16,228.54 360.06,229.55 359.93,230.48 C 359.80,231.41 359.62,232.27 359.41,233.05 C 359.20,233.84 358.96,234.56 358.67,235.20 C 358.39,235.85 358.06,236.42 357.70,236.92 C 357.34,237.42 356.94,237.85 356.51,238.21 C 356.07,238.57 355.60,238.86 355.09,239.07 C 354.57,239.29 354.02,239.43 353.44,239.50 C 352.85,239.57 352.17,239.51 351.56,239.50 C 350.96,239.49 350.37,239.47 349.80,239.44 C 349.23,239.41 348.67,239.36 348.14,239.31 C 347.61,239.26 347.09,239.20 346.59,239.12 C 346.10,239.05 345.62,238.97 345.16,238.88 C 344.70,238.78 344.25,238.68 343.83,238.56 C 343.40,238.45 343.00,238.32 342.61,238.19 C 342.22,238.05 341.85,237.91 341.50,237.75 C 341.15,237.59 340.81,237.40 340.50,237.25 C 340.19,237.10 339.90,236.97 339.63,236.85 C 339.37,236.74 339.12,236.64 338.90,236.55 C 338.68,236.47 338.48,236.41 338.30,236.36 C 338.12,236.31 337.96,236.28 337.83,236.27 C 337.69,236.25 337.58,236.25 337.49,236.27 C 337.40,236.29 337.33,236.33 337.29,236.38 C 337.24,236.44 337.22,236.51 337.22,236.59 C 337.22,236.68 337.27,236.80 337.28,236.91 C 337.29,237.01 337.28,237.12 337.26,237.23 C 337.24,237.33 337.20,237.44 337.15,237.55 C 337.10,237.67 337.03,237.78 336.95,237.89 C 336.87,238.00 336.78,238.12 336.67,238.23 C 336.56,238.35 336.44,238.47 336.30,238.59 C 336.17,238.70 336.02,238.82 335.85,238.95 C 335.69,239.07 335.51,239.19 335.31,239.31 C 335.12,239.44 334.87,239.57 334.69,239.69 C 334.50,239.81 334.34,239.92 334.20,240.03 C 334.07,240.14 333.95,240.24 333.86,240.34 C 333.77,240.44 333.70,240.54 333.66,240.62 C 333.61,240.71 333.59,240.80 333.59,240.88 C 333.60,240.95 333.62,241.03 333.67,241.09 C 333.72,241.16 333.79,241.22 333.89,241.28 C 333.99,241.34 334.11,241.39 334.25,241.44 C 334.39,241.48 334.59,241.52 334.75,241.56 C 334.91,241.61 335.06,241.66 335.20,241.72 C 335.35,241.78 335.48,241.84 335.61,241.91 C 335.74,241.97 335.86,242.05 335.97,242.12 C 336.08,242.20 336.18,242.29 336.28,242.38 C 336.38,242.46 336.47,242.56 336.55,242.66 C 336.63,242.76 336.70,242.86 336.77,242.97 C 336.83,243.08 336.89,243.19 336.94,243.31 C 336.99,243.43 337.03,243.56 337.06,243.69 C 337.10,243.81 337.12,243.93 337.13,244.05 C 337.15,244.18 337.15,244.30 337.15,244.41 C 337.14,244.53 337.13,244.65 337.11,244.77 C 337.09,244.88 337.06,245.00 337.02,245.11 C 336.98,245.22 336.93,245.33 336.87,245.45 C 336.81,245.56 336.74,245.67 336.66,245.77 C 336.59,245.88 336.50,245.99 336.41,246.09 C 336.31,246.20 336.22,246.31 336.09,246.41 C 335.97,246.50 335.83,246.60 335.66,246.68 C 335.50,246.76 335.32,246.84 335.12,246.91 C 334.92,246.99 334.69,247.05 334.45,247.11 C 334.21,247.17 333.95,247.22 333.67,247.27 C 333.39,247.31 333.09,247.35 332.77,247.38 C 332.45,247.42 332.12,247.44 331.76,247.46 C 331.40,247.48 331.02,247.49 330.62,247.50 C 330.23,247.51 329.77,247.51 329.38,247.50 C 328.98,247.49 328.61,247.47 328.27,247.44 C 327.92,247.41 327.60,247.36 327.30,247.31 C 327.00,247.26 326.72,247.20 326.47,247.12 C 326.22,247.05 325.99,246.97 325.78,246.88 C 325.58,246.78 325.39,246.68 325.23,246.56 C 325.08,246.45 324.94,246.32 324.83,246.19 C 324.72,246.05 324.63,245.91 324.56,245.75 C 324.50,245.59 324.49,245.40 324.44,245.25 C 324.38,245.10 324.31,244.96 324.23,244.84 C 324.14,244.71 324.04,244.60 323.93,244.51 C 323.82,244.41 323.69,244.33 323.55,244.27 C 323.40,244.20 323.25,244.15 323.08,244.11 C 322.91,244.07 322.72,244.05 322.52,244.04 C 322.32,244.03 322.11,244.04 321.88,244.05 C 321.65,244.07 321.41,244.11 321.16,244.16 C 320.90,244.20 320.60,244.27 320.34,244.34 C 320.09,244.42 319.85,244.50 319.63,244.60 C 319.41,244.70 319.21,244.81 319.02,244.93 C 318.84,245.05 318.67,245.18 318.52,245.33 C 318.36,245.47 318.23,245.63 318.11,245.80 C 317.99,245.96 317.89,246.14 317.80,246.34 C 317.72,246.53 317.65,246.73 317.60,246.95 C 317.55,247.16 317.52,247.39 317.50,247.62 C 317.48,247.86 317.48,248.13 317.50,248.38 C 317.52,248.62 317.55,248.85 317.59,249.08 C 317.64,249.30 317.70,249.52 317.78,249.73 C 317.86,249.95 317.95,250.15 318.06,250.34 C 318.17,250.54 318.30,250.73 318.44,250.91 C 318.58,251.09 318.73,251.26 318.91,251.42 C 319.08,251.59 319.27,251.74 319.47,251.89 C 319.67,252.04 319.89,252.18 320.12,252.31 C 320.36,252.45 320.63,252.53 320.88,252.69 C 321.12,252.85 321.35,253.05 321.58,253.28 C 321.80,253.52 322.02,253.79 322.23,254.09 C 322.45,254.40 322.65,254.74 322.84,255.12 C 323.04,255.51 323.23,255.92 323.41,256.38 C 323.59,256.83 323.76,257.32 323.92,257.84 C 324.09,258.37 324.24,258.93 324.39,259.53 C 324.54,260.13 324.68,260.77 324.81,261.44 C 324.95,262.11 325.08,262.87 325.19,263.56 C 325.30,264.25 325.39,264.92 325.47,265.58 C 325.55,266.23 325.61,266.87 325.66,267.48 C 325.70,268.10 325.73,268.70 325.75,269.28 C 325.77,269.86 325.77,270.42 325.75,270.97 C 325.73,271.51 325.70,272.04 325.66,272.55 C 325.61,273.05 325.55,273.54 325.47,274.02 C 325.39,274.49 325.30,274.94 325.19,275.38 C 325.08,275.81 324.95,276.22 324.81,276.62 C 324.68,277.03 324.53,277.42 324.38,277.80 C 324.22,278.17 324.05,278.54 323.88,278.89 C 323.70,279.24 323.51,279.58 323.31,279.91 C 323.11,280.23 322.91,280.54 322.69,280.84 C 322.47,281.14 322.24,281.43 322.00,281.70 C 321.76,281.98 321.51,282.24 321.25,282.48 C 320.99,282.73 320.72,282.97 320.44,283.19 C 320.16,283.41 319.83,283.60 319.56,283.81 C 319.30,284.02 319.05,284.24 318.84,284.46 C 318.62,284.68 318.43,284.90 318.26,285.13 C 318.09,285.36 317.95,285.59 317.83,285.83 C 317.71,286.06 317.62,286.30 317.55,286.55 C 317.48,286.79 317.43,287.04 317.41,287.29 C 317.39,287.54 317.40,287.80 317.43,288.05 C 317.46,288.31 317.51,288.58 317.59,288.84 C 317.67,289.11 317.80,289.40 317.91,289.66 C 318.01,289.91 318.13,290.15 318.24,290.37 C 318.36,290.59 318.48,290.79 318.60,290.98 C 318.73,291.16 318.85,291.33 318.98,291.48 C 319.12,291.64 319.25,291.77 319.39,291.89 C 319.53,292.01 319.67,292.11 319.82,292.20 C 319.97,292.28 320.12,292.35 320.27,292.40 C 320.43,292.45 320.59,292.48 320.75,292.50 C 320.91,292.52 321.09,292.51 321.25,292.50 C 321.41,292.49 321.57,292.46 321.72,292.42 C 321.87,292.38 322.02,292.33 322.16,292.27 C 322.30,292.20 322.43,292.12 322.56,292.03 C 322.69,291.94 322.82,291.84 322.94,291.72 C 323.06,291.60 323.17,291.47 323.28,291.33 C 323.39,291.18 323.49,291.03 323.59,290.86 C 323.69,290.69 323.79,290.51 323.88,290.31 C 323.96,290.12 324.02,289.88 324.12,289.69 C 324.23,289.49 324.36,289.32 324.52,289.16 C 324.67,288.99 324.85,288.85 325.05,288.72 C 325.25,288.59 325.47,288.47 325.72,288.38 C 325.97,288.28 326.24,288.19 326.53,288.12 C 326.83,288.06 327.14,288.01 327.48,287.97 C 327.83,287.93 328.19,287.91 328.58,287.91 C 328.97,287.90 329.38,287.91 329.81,287.94 C 330.25,287.96 330.75,288.01 331.19,288.06 C 331.62,288.11 332.03,288.17 332.41,288.23 C 332.80,288.29 333.16,288.36 333.49,288.43 C 333.83,288.50 334.14,288.58 334.42,288.67 C 334.71,288.76 334.97,288.85 335.20,288.95 C 335.44,289.05 335.65,289.16 335.84,289.27 C 336.02,289.39 336.18,289.51 336.32,289.63 C 336.46,289.76 336.57,289.89 336.66,290.03 C 336.74,290.17 336.80,290.32 336.84,290.47 C 336.89,290.61 336.92,290.76 336.93,290.90 C 336.94,291.04 336.94,291.18 336.91,291.32 C 336.89,291.46 336.85,291.60 336.80,291.73 C 336.74,291.87 336.67,292.01 336.58,292.14 C 336.49,292.27 336.38,292.41 336.26,292.54 C 336.13,292.67 335.99,292.80 335.84,292.93 C 335.68,293.06 335.50,293.19 335.31,293.31 C 335.12,293.44 334.87,293.57 334.69,293.69 C 334.50,293.81 334.34,293.92 334.20,294.02 C 334.05,294.13 333.93,294.23 333.84,294.32 C 333.74,294.41 333.66,294.50 333.61,294.58 C 333.56,294.66 333.52,294.73 333.52,294.80 C 333.51,294.86 333.52,294.92 333.55,294.98 C 333.59,295.03 333.65,295.08 333.73,295.12 C 333.81,295.16 333.91,295.19 334.03,295.22 C 334.15,295.25 334.33,295.25 334.47,295.28 C 334.61,295.31 334.74,295.35 334.87,295.40 C 334.99,295.45 335.11,295.50 335.23,295.57 C 335.34,295.64 335.45,295.71 335.55,295.80 C 335.65,295.88 335.74,295.98 335.83,296.08 C 335.92,296.18 336.00,296.29 336.07,296.41 C 336.14,296.54 336.21,296.67 336.27,296.80 C 336.33,296.94 336.39,297.09 336.44,297.25 C 336.49,297.41 336.50,297.60 336.56,297.75 C 336.62,297.90 336.71,298.02 336.81,298.12 C 336.92,298.23 337.04,298.31 337.19,298.38 C 337.33,298.44 337.50,298.48 337.69,298.50 C 337.88,298.52 338.08,298.52 338.31,298.50 C 338.54,298.48 338.79,298.44 339.06,298.38 C 339.33,298.31 339.62,298.23 339.94,298.12 C 340.25,298.02 340.58,297.90 340.94,297.75 C 341.29,297.60 341.67,297.41 342.06,297.25 C 342.45,297.09 342.85,296.95 343.27,296.81 C 343.68,296.68 344.11,296.55 344.55,296.44 C 344.99,296.32 345.44,296.22 345.91,296.12 C 346.37,296.03 346.85,295.95 347.34,295.88 C 347.84,295.80 348.34,295.74 348.86,295.69 C 349.38,295.64 349.91,295.59 350.45,295.56 C 351.00,295.53 351.55,295.51 352.12,295.50 C 352.70,295.49 353.33,295.43 353.88,295.50 C 354.42,295.57 354.94,295.71 355.41,295.93 C 355.89,296.14 356.33,296.43 356.74,296.79 C 357.15,297.15 357.52,297.58 357.86,298.08 C 358.20,298.58 358.50,299.15 358.77,299.80 C 359.03,300.44 359.26,301.16 359.46,301.95 C 359.66,302.73 359.82,303.59 359.95,304.52 C 360.07,305.45 360.16,306.46 360.22,307.53 C 360.27,308.61 360.41,309.90 360.28,310.97 C 360.15,312.04 359.86,313.03 359.42,313.94 C 358.98,314.85 358.39,315.68 357.64,316.44 C 356.89,317.19 355.99,317.87 354.94,318.47 C 353.88,319.07 352.67,319.59 351.31,320.03 C 349.95,320.47 348.43,320.84 346.77,321.12 C 345.10,321.41 343.27,321.62 341.30,321.75 C 339.32,321.88 337.19,321.93 334.91,321.91 C 332.62,321.88 329.90,321.65 327.59,321.59 C 325.28,321.54 323.10,321.54 321.05,321.59 C 318.99,321.65 317.07,321.75 315.27,321.91 C 313.47,322.06 311.79,322.27 310.25,322.53 C 308.71,322.79 307.29,323.10 306.00,323.47 C 304.71,323.83 303.55,324.25 302.52,324.72 C 301.48,325.19 300.58,325.71 299.80,326.28 C 299.02,326.85 298.37,327.48 297.84,328.16 C 297.32,328.83 297.04,329.65 296.66,330.34 C 296.27,331.04 295.89,331.69 295.52,332.30 C 295.15,332.92 294.80,333.50 294.45,334.04 C 294.10,334.58 293.75,335.08 293.42,335.55 C 293.09,336.01 292.77,336.44 292.45,336.83 C 292.14,337.22 291.83,337.57 291.54,337.88 C 291.24,338.20 290.96,338.47 290.68,338.71 C 290.40,338.95 290.13,339.15 289.88,339.31 C 289.62,339.48 289.36,339.53 289.12,339.69 C 288.89,339.84 288.68,340.02 288.48,340.23 C 288.29,340.45 288.11,340.68 287.95,340.95 C 287.79,341.22 287.65,341.52 287.53,341.84 C 287.41,342.17 287.30,342.52 287.22,342.91 C 287.13,343.29 287.07,343.70 287.02,344.14 C 286.97,344.58 286.93,345.05 286.92,345.55 C 286.91,346.04 286.91,346.57 286.94,347.12 C 286.96,347.68 287.03,348.32 287.06,348.88 C 287.10,349.43 287.13,349.94 287.15,350.43 C 287.17,350.92 287.19,351.37 287.20,351.79 C 287.20,352.21 287.21,352.60 287.20,352.95 C 287.20,353.31 287.19,353.63 287.17,353.92 C 287.15,354.21 287.13,354.47 287.10,354.70 C 287.07,354.92 287.04,355.11 286.99,355.27 C 286.95,355.43 286.90,355.56 286.84,355.66 C 286.79,355.75 286.78,355.79 286.66,355.84 C 286.53,355.90 286.34,355.95 286.09,355.99 C 285.83,356.04 285.51,356.07 285.13,356.10 C 284.75,356.13 284.31,356.15 283.80,356.17 C 283.29,356.19 282.71,356.20 282.08,356.20 C 281.44,356.21 280.74,356.20 279.98,356.20 C 279.21,356.19 278.38,356.17 277.49,356.15 C 276.60,356.13 275.64,356.10 274.62,356.06 C 273.61,356.03 272.39,355.96 271.38,355.94 C 270.36,355.92 269.41,355.91 268.52,355.93 C 267.64,355.95 266.82,355.98 266.07,356.04 C 265.32,356.10 264.63,356.17 264.02,356.27 C 263.40,356.36 262.85,356.48 262.36,356.61 C 261.87,356.74 261.45,356.90 261.10,357.07 C 260.75,357.24 260.46,357.44 260.24,357.65 C 260.02,357.86 259.87,358.09 259.78,358.34 C 259.69,358.60 259.74,358.89 259.72,359.16 C 259.69,359.42 259.66,359.68 259.62,359.94 C 259.59,360.19 259.55,360.44 259.50,360.69 C 259.45,360.93 259.40,361.17 259.34,361.41 C 259.29,361.64 259.22,361.87 259.16,362.09 C 259.09,362.32 259.02,362.54 258.94,362.75 C 258.86,362.96 258.78,363.17 258.69,363.38 C 258.60,363.58 258.51,363.78 258.41,363.97 C 258.31,364.16 258.20,364.36 258.09,364.53 C 257.99,364.71 257.88,364.87 257.77,365.02 C 257.67,365.18 257.56,365.32 257.45,365.45 C 257.33,365.57 257.22,365.69 257.11,365.80 C 257.00,365.90 256.88,366.00 256.77,366.08 C 256.65,366.16 256.53,366.23 256.41,366.29 C 256.30,366.35 256.18,366.39 256.05,366.43 C 255.93,366.46 255.81,366.49 255.69,366.50 Z" />
    </clipPath>
  </defs>
  <path d="M 255.69,366.50 C 255.56,366.51 255.43,366.51 255.31,366.50 C 255.19,366.49 255.07,366.48 254.96,366.46 C 254.85,366.44 254.74,366.42 254.63,366.38 C 254.53,366.35 254.43,366.31 254.33,366.27 C 254.23,366.22 254.14,366.17 254.05,366.11 C 253.96,366.05 253.87,365.99 253.79,365.91 C 253.71,365.84 253.63,365.76 253.55,365.68 C 253.48,365.60 253.41,365.50 253.34,365.41 C 253.28,365.31 253.22,365.24 253.16,365.09 C 253.10,364.95 253.04,364.77 252.98,364.55 C 252.92,364.34 252.86,364.08 252.80,363.79 C 252.75,363.50 252.69,363.17 252.64,362.80 C 252.59,362.43 252.54,362.02 252.48,361.58 C 252.43,361.13 252.38,360.65 252.34,360.13 C 252.29,359.61 252.24,359.06 252.20,358.46 C 252.15,357.87 252.11,357.23 252.06,356.56 C 252.02,355.89 251.98,355.11 251.94,354.44 C 251.89,353.77 251.84,353.13 251.79,352.54 C 251.74,351.94 251.68,351.39 251.62,350.87 C 251.56,350.35 251.49,349.87 251.42,349.42 C 251.35,348.98 251.28,348.57 251.20,348.20 C 251.13,347.83 251.05,347.50 250.96,347.21 C 250.88,346.92 250.79,346.66 250.70,346.45 C 250.60,346.23 250.51,346.05 250.41,345.91 C 250.31,345.76 250.20,345.69 250.09,345.59 C 249.99,345.50 249.89,345.41 249.79,345.34 C 249.69,345.26 249.59,345.19 249.49,345.13 C 249.39,345.07 249.30,345.02 249.20,344.98 C 249.11,344.94 249.01,344.91 248.92,344.89 C 248.83,344.87 248.74,344.86 248.65,344.85 C 248.56,344.85 248.47,344.85 248.38,344.87 C 248.30,344.88 248.21,344.90 248.12,344.94 C 248.04,344.97 247.96,345.03 247.88,345.06 C 247.79,345.09 247.70,345.11 247.61,345.12 C 247.52,345.14 247.42,345.14 247.33,345.12 C 247.23,345.11 247.13,345.09 247.03,345.06 C 246.93,345.03 246.83,344.99 246.72,344.94 C 246.61,344.89 246.50,344.82 246.39,344.75 C 246.28,344.68 246.16,344.59 246.05,344.50 C 245.93,344.41 245.81,344.30 245.69,344.19 C 245.57,344.07 245.44,343.93 245.31,343.81 C 245.18,343.69 245.05,343.58 244.91,343.47 C 244.77,343.36 244.62,343.26 244.47,343.16 C 244.32,343.06 244.16,342.96 244.00,342.88 C 243.84,342.79 243.67,342.70 243.50,342.62 C 243.33,342.55 243.15,342.47 242.97,342.41 C 242.79,342.34 242.60,342.28 242.41,342.22 C 242.21,342.16 242.02,342.11 241.81,342.06 C 241.61,342.02 241.46,341.98 241.19,341.94 C 240.92,341.90 240.59,341.85 240.20,341.81 C 239.82,341.77 239.37,341.73 238.86,341.69 C 238.35,341.65 237.78,341.60 237.16,341.56 C 236.53,341.52 235.84,341.48 235.09,341.44 C 234.35,341.40 233.54,341.35 232.67,341.31 C 231.80,341.27 230.88,341.23 229.89,341.19 C 228.90,341.15 227.86,341.10 226.75,341.06 C 225.64,341.02 224.35,340.98 223.25,340.94 C 222.15,340.89 221.12,340.85 220.16,340.80 C 219.20,340.76 218.31,340.71 217.49,340.66 C 216.67,340.62 215.92,340.57 215.23,340.52 C 214.55,340.46 213.94,340.41 213.39,340.36 C 212.85,340.31 212.37,340.25 211.96,340.20 C 211.55,340.14 211.21,340.08 210.95,340.02 C 210.68,339.96 210.48,339.90 210.34,339.84 C 210.21,339.78 210.21,339.77 210.16,339.66 C 210.10,339.55 210.04,339.39 209.99,339.18 C 209.94,338.97 209.89,338.72 209.85,338.41 C 209.81,338.11 209.77,337.76 209.73,337.36 C 209.70,336.96 209.67,336.51 209.64,336.02 C 209.61,335.52 209.59,334.98 209.57,334.38 C 209.55,333.79 209.54,333.15 209.52,332.46 C 209.51,331.77 209.50,331.04 209.50,330.25 C 209.50,329.46 209.49,328.54 209.50,327.75 C 209.51,326.96 209.52,326.22 209.55,325.52 C 209.57,324.82 209.60,324.16 209.64,323.55 C 209.68,322.93 209.73,322.37 209.78,321.84 C 209.84,321.32 209.90,320.84 209.97,320.41 C 210.04,319.97 210.12,319.58 210.20,319.23 C 210.29,318.89 210.38,318.59 210.48,318.33 C 210.59,318.07 210.70,317.86 210.81,317.69 C 210.93,317.52 211.10,317.47 211.19,317.31 C 211.27,317.15 211.32,316.96 211.34,316.73 C 211.35,316.50 211.32,316.23 211.26,315.93 C 211.19,315.63 211.09,315.29 210.95,314.92 C 210.81,314.55 210.64,314.14 210.42,313.70 C 210.21,313.26 209.95,312.79 209.66,312.27 C 209.37,311.76 209.05,311.21 208.68,310.63 C 208.31,310.05 207.91,309.43 207.47,308.78 C 207.03,308.13 206.65,307.42 206.03,306.72 C 205.41,306.02 204.65,305.30 203.74,304.57 C 202.84,303.84 201.79,303.10 200.60,302.34 C 199.41,301.58 198.08,300.80 196.61,300.02 C 195.14,299.23 193.52,298.43 191.77,297.61 C 190.01,296.79 188.11,295.96 186.07,295.12 C 184.03,294.27 181.85,293.41 179.52,292.54 C 177.20,291.67 174.73,290.78 172.12,289.88 C 169.52,288.97 166.48,288.00 163.88,287.12 C 161.27,286.25 158.82,285.42 156.52,284.64 C 154.21,283.86 152.05,283.12 150.05,282.42 C 148.04,281.73 146.18,281.08 144.47,280.47 C 142.76,279.86 141.20,279.30 139.78,278.78 C 138.37,278.26 137.10,277.79 135.98,277.36 C 134.87,276.93 133.90,276.54 133.08,276.20 C 132.26,275.86 131.59,275.57 131.06,275.31 C 130.54,275.06 130.30,274.90 129.94,274.69 C 129.58,274.48 129.23,274.27 128.90,274.05 C 128.57,273.84 128.25,273.63 127.95,273.41 C 127.64,273.20 127.35,272.98 127.08,272.77 C 126.80,272.55 126.54,272.33 126.30,272.11 C 126.05,271.89 125.82,271.67 125.60,271.45 C 125.38,271.22 125.18,271.00 124.99,270.77 C 124.80,270.55 124.63,270.32 124.47,270.09 C 124.31,269.87 124.16,269.63 124.03,269.41 C 123.90,269.18 123.79,268.96 123.69,268.75 C 123.59,268.54 123.51,268.33 123.44,268.12 C 123.37,267.92 123.32,267.72 123.28,267.53 C 123.24,267.34 123.22,267.15 123.22,266.97 C 123.21,266.79 123.22,266.61 123.25,266.44 C 123.28,266.27 123.32,266.10 123.38,265.94 C 123.43,265.78 123.51,265.62 123.59,265.47 C 123.68,265.32 123.79,265.18 123.91,265.03 C 124.03,264.88 124.17,264.73 124.32,264.57 C 124.48,264.41 124.65,264.25 124.84,264.09 C 125.02,263.92 125.23,263.75 125.45,263.58 C 125.68,263.40 125.92,263.23 126.17,263.05 C 126.43,262.87 126.70,262.68 126.99,262.49 C 127.28,262.30 127.59,262.11 127.91,261.91 C 128.24,261.72 128.58,261.52 128.94,261.31 C 129.30,261.11 129.53,260.94 130.06,260.69 C 130.59,260.43 131.27,260.13 132.11,259.78 C 132.95,259.43 133.93,259.04 135.08,258.59 C 136.22,258.15 137.52,257.66 138.97,257.12 C 140.42,256.59 142.02,256.01 143.78,255.38 C 145.54,254.74 147.45,254.07 149.52,253.34 C 151.58,252.62 153.80,251.85 156.17,251.03 C 158.54,250.21 161.07,249.35 163.75,248.44 C 166.43,247.53 169.57,246.50 172.25,245.56 C 174.93,244.62 177.47,243.70 179.85,242.79 C 182.24,241.88 184.47,240.99 186.55,240.12 C 188.64,239.24 190.57,238.39 192.36,237.55 C 194.14,236.71 195.78,235.88 197.27,235.08 C 198.75,234.27 200.09,233.48 201.27,232.71 C 202.46,231.94 203.50,231.18 204.38,230.45 C 205.27,229.71 206.01,228.99 206.59,228.28 C 207.18,227.58 207.50,226.87 207.91,226.22 C 208.31,225.57 208.68,224.95 209.01,224.37 C 209.34,223.79 209.64,223.24 209.90,222.73 C 210.16,222.21 210.39,221.74 210.58,221.30 C 210.77,220.86 210.93,220.45 211.05,220.08 C 211.17,219.71 211.25,219.37 211.30,219.07 C 211.36,218.77 211.37,218.50 211.35,218.27 C 211.33,218.04 211.28,217.85 211.19,217.69 C 211.10,217.53 210.93,217.48 210.81,217.31 C 210.70,217.15 210.59,216.94 210.48,216.69 C 210.38,216.44 210.29,216.15 210.20,215.81 C 210.12,215.48 210.04,215.10 209.97,214.69 C 209.90,214.27 209.84,213.81 209.78,213.31 C 209.73,212.81 209.68,212.27 209.64,211.69 C 209.60,211.10 209.57,210.48 209.55,209.81 C 209.52,209.15 209.51,208.44 209.50,207.69 C 209.49,206.94 209.48,206.06 209.50,205.31 C 209.52,204.56 209.55,203.86 209.60,203.20 C 209.65,202.53 209.72,201.91 209.80,201.34 C 209.89,200.76 209.99,200.23 210.11,199.73 C 210.23,199.24 210.36,198.80 210.52,198.39 C 210.67,197.99 210.84,197.62 211.02,197.30 C 211.21,196.99 211.41,196.71 211.63,196.48 C 211.85,196.24 212.09,196.05 212.34,195.91 C 212.60,195.76 212.83,195.69 213.16,195.59 C 213.48,195.49 213.87,195.40 214.30,195.30 C 214.74,195.21 215.24,195.12 215.79,195.04 C 216.34,194.95 216.95,194.87 217.61,194.80 C 218.27,194.72 218.99,194.65 219.77,194.58 C 220.54,194.51 221.37,194.44 222.26,194.38 C 223.14,194.32 224.09,194.26 225.09,194.21 C 226.08,194.16 227.14,194.11 228.25,194.06 C 229.36,194.02 230.65,193.98 231.75,193.94 C 232.85,193.89 233.88,193.84 234.84,193.78 C 235.81,193.72 236.70,193.66 237.53,193.59 C 238.36,193.53 239.12,193.45 239.81,193.38 C 240.51,193.30 241.13,193.21 241.69,193.12 C 242.24,193.04 242.73,192.94 243.16,192.84 C 243.58,192.74 243.93,192.64 244.22,192.53 C 244.51,192.42 244.72,192.31 244.88,192.19 C 245.03,192.07 245.04,191.93 245.12,191.81 C 245.21,191.70 245.31,191.59 245.41,191.48 C 245.51,191.38 245.61,191.29 245.72,191.20 C 245.83,191.12 245.94,191.04 246.06,190.97 C 246.18,190.90 246.31,190.84 246.44,190.78 C 246.57,190.73 246.70,190.68 246.84,190.64 C 246.98,190.60 247.13,190.57 247.28,190.55 C 247.43,190.52 247.59,190.51 247.75,190.50 C 247.91,190.49 248.08,190.52 248.25,190.50 C 248.42,190.48 248.58,190.45 248.74,190.40 C 248.90,190.35 249.07,190.28 249.23,190.20 C 249.39,190.11 249.55,190.01 249.70,189.89 C 249.86,189.77 250.02,189.64 250.17,189.48 C 250.33,189.33 250.48,189.16 250.63,188.98 C 250.79,188.79 250.94,188.59 251.09,188.37 C 251.24,188.15 251.38,187.91 251.53,187.66 C 251.68,187.40 251.84,187.12 251.97,186.84 C 252.10,186.57 252.22,186.30 252.32,186.02 C 252.42,185.75 252.51,185.47 252.59,185.20 C 252.66,184.92 252.72,184.64 252.77,184.36 C 252.81,184.08 252.84,183.80 252.86,183.52 C 252.88,183.23 252.88,182.95 252.87,182.66 C 252.86,182.38 252.83,182.09 252.79,181.80 C 252.75,181.52 252.69,181.23 252.62,180.94 C 252.56,180.65 252.44,180.36 252.38,180.06 C 252.31,179.77 252.25,179.47 252.21,179.16 C 252.17,178.86 252.14,178.55 252.13,178.24 C 252.12,177.93 252.12,177.62 252.14,177.30 C 252.16,176.98 252.19,176.65 252.23,176.33 C 252.28,176.00 252.34,175.67 252.41,175.34 C 252.49,175.00 252.58,174.66 252.68,174.32 C 252.78,173.98 252.90,173.63 253.03,173.28 C 253.16,172.93 253.32,172.54 253.47,172.22 C 253.61,171.89 253.76,171.60 253.91,171.33 C 254.05,171.06 254.20,170.82 254.34,170.61 C 254.49,170.40 254.64,170.22 254.78,170.06 C 254.93,169.91 255.07,169.78 255.22,169.69 C 255.36,169.59 255.51,169.52 255.66,169.48 C 255.80,169.45 255.95,169.43 256.09,169.45 C 256.24,169.47 256.39,169.52 256.53,169.59 C 256.68,169.67 256.83,169.78 256.97,169.91 C 257.11,170.03 257.25,170.17 257.39,170.33 C 257.53,170.49 257.66,170.66 257.80,170.86 C 257.93,171.05 258.06,171.27 258.19,171.50 C 258.32,171.73 258.44,171.98 258.56,172.25 C 258.68,172.52 258.80,172.80 258.92,173.11 C 259.04,173.41 259.15,173.74 259.27,174.08 C 259.38,174.42 259.49,174.78 259.59,175.16 C 259.70,175.53 259.74,175.98 259.91,176.34 C 260.07,176.71 260.30,177.05 260.59,177.37 C 260.87,177.68 261.22,177.97 261.63,178.23 C 262.04,178.49 262.51,178.72 263.05,178.92 C 263.58,179.13 264.17,179.30 264.83,179.45 C 265.48,179.60 266.20,179.73 266.98,179.82 C 267.75,179.92 268.59,179.98 269.49,180.02 C 270.39,180.06 271.35,180.08 272.38,180.06 C 273.40,180.05 274.61,179.94 275.62,179.94 C 276.64,179.94 277.59,179.98 278.48,180.07 C 279.36,180.16 280.18,180.29 280.93,180.46 C 281.68,180.63 282.37,180.85 282.98,181.11 C 283.60,181.37 284.15,181.67 284.64,182.02 C 285.13,182.36 285.55,182.75 285.90,183.18 C 286.25,183.61 286.54,184.08 286.76,184.60 C 286.98,185.12 287.13,185.68 287.22,186.28 C 287.31,186.88 287.25,187.60 287.28,188.22 C 287.32,188.83 287.37,189.42 287.43,189.98 C 287.49,190.53 287.57,191.06 287.66,191.55 C 287.76,192.05 287.86,192.52 287.98,192.95 C 288.11,193.39 288.24,193.80 288.39,194.17 C 288.54,194.55 288.70,194.89 288.88,195.21 C 289.06,195.53 289.25,195.81 289.46,196.07 C 289.67,196.33 289.89,196.55 290.12,196.75 C 290.36,196.95 290.62,197.05 290.88,197.25 C 291.13,197.45 291.39,197.68 291.66,197.95 C 291.93,198.21 292.21,198.51 292.49,198.84 C 292.77,199.17 293.06,199.53 293.36,199.92 C 293.65,200.32 293.96,200.74 294.27,201.20 C 294.57,201.66 294.89,202.15 295.21,202.68 C 295.53,203.20 295.86,203.76 296.20,204.35 C 296.53,204.94 296.87,205.56 297.22,206.22 C 297.57,206.87 297.80,207.65 298.28,208.28 C 298.77,208.92 299.38,209.50 300.12,210.03 C 300.87,210.56 301.74,211.04 302.75,211.47 C 303.76,211.90 304.89,212.27 306.16,212.59 C 307.42,212.92 308.82,213.19 310.34,213.41 C 311.87,213.62 313.53,213.79 315.31,213.91 C 317.10,214.02 319.02,214.08 321.06,214.09 C 323.11,214.10 325.29,214.06 327.59,213.97 C 329.90,213.88 332.62,213.60 334.91,213.53 C 337.19,213.47 339.32,213.48 341.30,213.58 C 343.27,213.67 345.10,213.85 346.77,214.11 C 348.43,214.37 349.95,214.71 351.31,215.12 C 352.67,215.54 353.88,216.04 354.94,216.62 C 355.99,217.21 356.89,217.87 357.64,218.61 C 358.39,219.35 358.98,220.17 359.42,221.08 C 359.86,221.98 360.15,222.97 360.28,224.03 C 360.41,225.10 360.28,226.39 360.22,227.47 C 360.16,228.54 360.06,229.55 359.93,230.48 C 359.80,231.41 359.62,232.27 359.41,233.05 C 359.20,233.84 358.96,234.56 358.67,235.20 C 358.39,235.85 358.06,236.42 357.70,236.92 C 357.34,237.42 356.94,237.85 356.51,238.21 C 356.07,238.57 355.60,238.86 355.09,239.07 C 354.57,239.29 354.02,239.43 353.44,239.50 C 352.85,239.57 352.17,239.51 351.56,239.50 C 350.96,239.49 350.37,239.47 349.80,239.44 C 349.23,239.41 348.67,239.36 348.14,239.31 C 347.61,239.26 347.09,239.20 346.59,239.12 C 346.10,239.05 345.62,238.97 345.16,238.88 C 344.70,238.78 344.25,238.68 343.83,238.56 C 343.40,238.45 343.00,238.32 342.61,238.19 C 342.22,238.05 341.85,237.91 341.50,237.75 C 341.15,237.59 340.81,237.40 340.50,237.25 C 340.19,237.10 339.90,236.97 339.63,236.85 C 339.37,236.74 339.12,236.64 338.90,236.55 C 338.68,236.47 338.48,236.41 338.30,236.36 C 338.12,236.31 337.96,236.28 337.83,236.27 C 337.69,236.25 337.58,236.25 337.49,236.27 C 337.40,236.29 337.33,236.33 337.29,236.38 C 337.24,236.44 337.22,236.51 337.22,236.59 C 337.22,236.68 337.27,236.80 337.28,236.91 C 337.29,237.01 337.28,237.12 337.26,237.23 C 337.24,237.33 337.20,237.44 337.15,237.55 C 337.10,237.67 337.03,237.78 336.95,237.89 C 336.87,238.00 336.78,238.12 336.67,238.23 C 336.56,238.35 336.44,238.47 336.30,238.59 C 336.17,238.70 336.02,238.82 335.85,238.95 C 335.69,239.07 335.51,239.19 335.31,239.31 C 335.12,239.44 334.87,239.57 334.69,239.69 C 334.50,239.81 334.34,239.92 334.20,240.03 C 334.07,240.14 333.95,240.24 333.86,240.34 C 333.77,240.44 333.70,240.54 333.66,240.62 C 333.61,240.71 333.59,240.80 333.59,240.88 C 333.60,240.95 333.62,241.03 333.67,241.09 C 333.72,241.16 333.79,241.22 333.89,241.28 C 333.99,241.34 334.11,241.39 334.25,241.44 C 334.39,241.48 334.59,241.52 334.75,241.56 C 334.91,241.61 335.06,241.66 335.20,241.72 C 335.35,241.78 335.48,241.84 335.61,241.91 C 335.74,241.97 335.86,242.05 335.97,242.12 C 336.08,242.20 336.18,242.29 336.28,242.38 C 336.38,242.46 336.47,242.56 336.55,242.66 C 336.63,242.76 336.70,242.86 336.77,242.97 C 336.83,243.08 336.89,243.19 336.94,243.31 C 336.99,243.43 337.03,243.56 337.06,243.69 C 337.10,243.81 337.12,243.93 337.13,244.05 C 337.15,244.18 337.15,244.30 337.15,244.41 C 337.14,244.53 337.13,244.65 337.11,244.77 C 337.09,244.88 337.06,245.00 337.02,245.11 C 336.98,245.22 336.93,245.33 336.87,245.45 C 336.81,245.56 336.74,245.67 336.66,245.77 C 336.59,245.88 336.50,245.99 336.41,246.09 C 336.31,246.20 336.22,246.31 336.09,246.41 C 335.97,246.50 335.83,246.60 335.66,246.68 C 335.50,246.76 335.32,246.84 335.12,246.91 C 334.92,246.99 334.69,247.05 334.45,247.11 C 334.21,247.17 333.95,247.22 333.67,247.27 C 333.39,247.31 333.09,247.35 332.77,247.38 C 332.45,247.42 332.12,247.44 331.76,247.46 C 331.40,247.48 331.02,247.49 330.62,247.50 C 330.23,247.51 329.77,247.51 329.38,247.50 C 328.98,247.49 328.61,247.47 328.27,247.44 C 327.92,247.41 327.60,247.36 327.30,247.31 C 327.00,247.26 326.72,247.20 326.47,247.12 C 326.22,247.05 325.99,246.97 325.78,246.88 C 325.58,246.78 325.39,246.68 325.23,246.56 C 325.08,246.45 324.94,246.32 324.83,246.19 C 324.72,246.05 324.63,245.91 324.56,245.75 C 324.50,245.59 324.49,245.40 324.44,245.25 C 324.38,245.10 324.31,244.96 324.23,244.84 C 324.14,244.71 324.04,244.60 323.93,244.51 C 323.82,244.41 323.69,244.33 323.55,244.27 C 323.40,244.20 323.25,244.15 323.08,244.11 C 322.91,244.07 322.72,244.05 322.52,244.04 C 322.32,244.03 322.11,244.04 321.88,244.05 C 321.65,244.07 321.41,244.11 321.16,244.16 C 320.90,244.20 320.60,244.27 320.34,244.34 C 320.09,244.42 319.85,244.50 319.63,244.60 C 319.41,244.70 319.21,244.81 319.02,244.93 C 318.84,245.05 318.67,245.18 318.52,245.33 C 318.36,245.47 318.23,245.63 318.11,245.80 C 317.99,245.96 317.89,246.14 317.80,246.34 C 317.72,246.53 317.65,246.73 317.60,246.95 C 317.55,247.16 317.52,247.39 317.50,247.62 C 317.48,247.86 317.48,248.13 317.50,248.38 C 317.52,248.62 317.55,248.85 317.59,249.08 C 317.64,249.30 317.70,249.52 317.78,249.73 C 317.86,249.95 317.95,250.15 318.06,250.34 C 318.17,250.54 318.30,250.73 318.44,250.91 C 318.58,251.09 318.73,251.26 318.91,251.42 C 319.08,251.59 319.27,251.74 319.47,251.89 C 319.67,252.04 319.89,252.18 320.12,252.31 C 320.36,252.45 320.63,252.53 320.88,252.69 C 321.12,252.85 321.35,253.05 321.58,253.28 C 321.80,253.52 322.02,253.79 322.23,254.09 C 322.45,254.40 322.65,254.74 322.84,255.12 C 323.04,255.51 323.23,255.92 323.41,256.38 C 323.59,256.83 323.76,257.32 323.92,257.84 C 324.09,258.37 324.24,258.93 324.39,259.53 C 324.54,260.13 324.68,260.77 324.81,261.44 C 324.95,262.11 325.08,262.87 325.19,263.56 C 325.30,264.25 325.39,264.92 325.47,265.58 C 325.55,266.23 325.61,266.87 325.66,267.48 C 325.70,268.10 325.73,268.70 325.75,269.28 C 325.77,269.86 325.77,270.42 325.75,270.97 C 325.73,271.51 325.70,272.04 325.66,272.55 C 325.61,273.05 325.55,273.54 325.47,274.02 C 325.39,274.49 325.30,274.94 325.19,275.38 C 325.08,275.81 324.95,276.22 324.81,276.62 C 324.68,277.03 324.53,277.42 324.38,277.80 C 324.22,278.17 324.05,278.54 323.88,278.89 C 323.70,279.24 323.51,279.58 323.31,279.91 C 323.11,280.23 322.91,280.54 322.69,280.84 C 322.47,281.14 322.24,281.43 322.00,281.70 C 321.76,281.98 321.51,282.24 321.25,282.48 C 320.99,282.73 320.72,282.97 320.44,283.19 C 320.16,283.41 319.83,283.60 319.56,283.81 C 319.30,284.02 319.05,284.24 318.84,284.46 C 318.62,284.68 318.43,284.90 318.26,285.13 C 318.09,285.36 317.95,285.59 317.83,285.83 C 317.71,286.06 317.62,286.30 317.55,286.55 C 317.48,286.79 317.43,287.04 317.41,287.29 C 317.39,287.54 317.40,287.80 317.43,288.05 C 317.46,288.31 317.51,288.58 317.59,288.84 C 317.67,289.11 317.80,289.40 317.91,289.66 C 318.01,289.91 318.13,290.15 318.24,290.37 C 318.36,290.59 318.48,290.79 318.60,290.98 C 318.73,291.16 318.85,291.33 318.98,291.48 C 319.12,291.64 319.25,291.77 319.39,291.89 C 319.53,292.01 319.67,292.11 319.82,292.20 C 319.97,292.28 320.12,292.35 320.27,292.40 C 320.43,292.45 320.59,292.48 320.75,292.50 C 320.91,292.52 321.09,292.51 321.25,292.50 C 321.41,292.49 321.57,292.46 321.72,292.42 C 321.87,292.38 322.02,292.33 322.16,292.27 C 322.30,292.20 322.43,292.12 322.56,292.03 C 322.69,291.94 322.82,291.84 322.94,291.72 C 323.06,291.60 323.17,291.47 323.28,291.33 C 323.39,291.18 323.49,291.03 323.59,290.86 C 323.69,290.69 323.79,290.51 323.88,290.31 C 323.96,290.12 324.02,289.88 324.12,289.69 C 324.23,289.49 324.36,289.32 324.52,289.16 C 324.67,288.99 324.85,288.85 325.05,288.72 C 325.25,288.59 325.47,288.47 325.72,288.38 C 325.97,288.28 326.24,288.19 326.53,288.12 C 326.83,288.06 327.14,288.01 327.48,287.97 C 327.83,287.93 328.19,287.91 328.58,287.91 C 328.97,287.90 329.38,287.91 329.81,287.94 C 330.25,287.96 330.75,288.01 331.19,288.06 C 331.62,288.11 332.03,288.17 332.41,288.23 C 332.80,288.29 333.16,288.36 333.49,288.43 C 333.83,288.50 334.14,288.58 334.42,288.67 C 334.71,288.76 334.97,288.85 335.20,288.95 C 335.44,289.05 335.65,289.16 335.84,289.27 C 336.02,289.39 336.18,289.51 336.32,289.63 C 336.46,289.76 336.57,289.89 336.66,290.03 C 336.74,290.17 336.80,290.32 336.84,290.47 C 336.89,290.61 336.92,290.76 336.93,290.90 C 336.94,291.04 336.94,291.18 336.91,291.32 C 336.89,291.46 336.85,291.60 336.80,291.73 C 336.74,291.87 336.67,292.01 336.58,292.14 C 336.49,292.27 336.38,292.41 336.26,292.54 C 336.13,292.67 335.99,292.80 335.84,292.93 C 335.68,293.06 335.50,293.19 335.31,293.31 C 335.12,293.44 334.87,293.57 334.69,293.69 C 334.50,293.81 334.34,293.92 334.20,294.02 C 334.05,294.13 333.93,294.23 333.84,294.32 C 333.74,294.41 333.66,294.50 333.61,294.58 C 333.56,294.66 333.52,294.73 333.52,294.80 C 333.51,294.86 333.52,294.92 333.55,294.98 C 333.59,295.03 333.65,295.08 333.73,295.12 C 333.81,295.16 333.91,295.19 334.03,295.22 C 334.15,295.25 334.33,295.25 334.47,295.28 C 334.61,295.31 334.74,295.35 334.87,295.40 C 334.99,295.45 335.11,295.50 335.23,295.57 C 335.34,295.64 335.45,295.71 335.55,295.80 C 335.65,295.88 335.74,295.98 335.83,296.08 C 335.92,296.18 336.00,296.29 336.07,296.41 C 336.14,296.54 336.21,296.67 336.27,296.80 C 336.33,296.94 336.39,297.09 336.44,297.25 C 336.49,297.41 336.50,297.60 336.56,297.75 C 336.62,297.90 336.71,298.02 336.81,298.12 C 336.92,298.23 337.04,298.31 337.19,298.38 C 337.33,298.44 337.50,298.48 337.69,298.50 C 337.88,298.52 338.08,298.52 338.31,298.50 C 338.54,298.48 338.79,298.44 339.06,298.38 C 339.33,298.31 339.62,298.23 339.94,298.12 C 340.25,298.02 340.58,297.90 340.94,297.75 C 341.29,297.60 341.67,297.41 342.06,297.25 C 342.45,297.09 342.85,296.95 343.27,296.81 C 343.68,296.68 344.11,296.55 344.55,296.44 C 344.99,296.32 345.44,296.22 345.91,296.12 C 346.37,296.03 346.85,295.95 347.34,295.88 C 347.84,295.80 348.34,295.74 348.86,295.69 C 349.38,295.64 349.91,295.59 350.45,295.56 C 351.00,295.53 351.55,295.51 352.12,295.50 C 352.70,295.49 353.33,295.43 353.88,295.50 C 354.42,295.57 354.94,295.71 355.41,295.93 C 355.89,296.14 356.33,296.43 356.74,296.79 C 357.15,297.15 357.52,297.58 357.86,298.08 C 358.20,298.58 358.50,299.15 358.77,299.80 C 359.03,300.44 359.26,301.16 359.46,301.95 C 359.66,302.73 359.82,303.59 359.95,304.52 C 360.07,305.45 360.16,306.46 360.22,307.53 C 360.27,308.61 360.41,309.90 360.28,310.97 C 360.15,312.04 359.86,313.03 359.42,313.94 C 358.98,314.85 358.39,315.68 357.64,316.44 C 356.89,317.19 355.99,317.87 354.94,318.47 C 353.88,319.07 352.67,319.59 351.31,320.03 C 349.95,320.47 348.43,320.84 346.77,321.12 C 345.10,321.41 343.27,321.62 341.30,321.75 C 339.32,321.88 337.19,321.93 334.91,321.91 C 332.62,321.88 329.90,321.65 327.59,321.59 C 325.28,321.54 323.10,321.54 321.05,321.59 C 318.99,321.65 317.07,321.75 315.27,321.91 C 313.47,322.06 311.79,322.27 310.25,322.53 C 308.71,322.79 307.29,323.10 306.00,323.47 C 304.71,323.83 303.55,324.25 302.52,324.72 C 301.48,325.19 300.58,325.71 299.80,326.28 C 299.02,326.85 298.37,327.48 297.84,328.16 C 297.32,328.83 297.04,329.65 296.66,330.34 C 296.27,331.04 295.89,331.69 295.52,332.30 C 295.15,332.92 294.80,333.50 294.45,334.04 C 294.10,334.58 293.75,335.08 293.42,335.55 C 293.09,336.01 292.77,336.44 292.45,336.83 C 292.14,337.22 291.83,337.57 291.54,337.88 C 291.24,338.20 290.96,338.47 290.68,338.71 C 290.40,338.95 290.13,339.15 289.88,339.31 C 289.62,339.48 289.36,339.53 289.12,339.69 C 288.89,339.84 288.68,340.02 288.48,340.23 C 288.29,340.45 288.11,340.68 287.95,340.95 C 287.79,341.22 287.65,341.52 287.53,341.84 C 287.41,342.17 287.30,342.52 287.22,342.91 C 287.13,343.29 287.07,343.70 287.02,344.14 C 286.97,344.58 286.93,345.05 286.92,345.55 C 286.91,346.04 286.91,346.57 286.94,347.12 C 286.96,347.68 287.03,348.32 287.06,348.88 C 287.10,349.43 287.13,349.94 287.15,350.43 C 287.17,350.92 287.19,351.37 287.20,351.79 C 287.20,352.21 287.21,352.60 287.20,352.95 C 287.20,353.31 287.19,353.63 287.17,353.92 C 287.15,354.21 287.13,354.47 287.10,354.70 C 287.07,354.92 287.04,355.11 286.99,355.27 C 286.95,355.43 286.90,355.56 286.84,355.66 C 286.79,355.75 286.78,355.79 286.66,355.84 C 286.53,355.90 286.34,355.95 286.09,355.99 C 285.83,356.04 285.51,356.07 285.13,356.10 C 284.75,356.13 284.31,356.15 283.80,356.17 C 283.29,356.19 282.71,356.20 282.08,356.20 C 281.44,356.21 280.74,356.20 279.98,356.20 C 279.21,356.19 278.38,356.17 277.49,356.15 C 276.60,356.13 275.64,356.10 274.62,356.06 C 273.61,356.03 272.39,355.96 271.38,355.94 C 270.36,355.92 269.41,355.91 268.52,355.93 C 267.64,355.95 266.82,355.98 266.07,356.04 C 265.32,356.10 264.63,356.17 264.02,356.27 C 263.40,356.36 262.85,356.48 262.36,356.61 C 261.87,356.74 261.45,356.90 261.10,357.07 C 260.75,357.24 260.46,357.44 260.24,357.65 C 260.02,357.86 259.87,358.09 259.78,358.34 C 259.69,358.60 259.74,358.89 259.72,359.16 C 259.69,359.42 259.66,359.68 259.62,359.94 C 259.59,360.19 259.55,360.44 259.50,360.69 C 259.45,360.93 259.40,361.17 259.34,361.41 C 259.29,361.64 259.22,361.87 259.16,362.09 C 259.09,362.32 259.02,362.54 258.94,362.75 C 258.86,362.96 258.78,363.17 258.69,363.38 C 258.60,363.58 258.51,363.78 258.41,363.97 C 258.31,364.16 258.20,364.36 258.09,364.53 C 257.99,364.71 257.88,364.87 257.77,365.02 C 257.67,365.18 257.56,365.32 257.45,365.45 C 257.33,365.57 257.22,365.69 257.11,365.80 C 257.00,365.90 256.88,366.00 256.77,366.08 C 256.65,366.16 256.53,366.23 256.41,366.29 C 256.30,366.35 256.18,366.39 256.05,366.43 C 255.93,366.46 255.81,366.49 255.69,366.50 Z" stroke="none" fill="currentColor" opacity="0.11" />
  <path d="M270.36,293.53L263.95,293.53 M269.82,302.34L263.49,302.34 M259.03,293.53L252.61,293.53 M258.49,302.34L252.15,302.34 M251.31,296.53L258.14,296.53 M258.14,296.69L251.31,296.69 M258.14,296.99L251.31,296.99 M251.31,296.69L258.14,296.69 M251.31,296.99L258.14,296.99 M251.31,298.12L258.14,298.12 M258.14,298.58L251.31,298.58 M258.14,298.43L251.31,298.43 M258.14,298.12L251.31,298.12 M251.31,298.43L258.14,298.43 M263.82,296.53L270.66,296.53 M270.66,296.69L263.82,296.69 M270.66,296.99L263.82,296.99 M263.82,296.69L270.66,296.69 M263.82,296.99L270.66,296.99 M263.82,298.12L270.66,298.12 M270.66,298.58L263.82,298.58 M270.66,298.43L263.82,298.43 M270.66,298.12L263.82,298.12 M263.82,298.43L270.66,298.43 M263.82,237.97L270.66,237.97 M270.66,238.13L263.82,238.13 M270.66,238.43L263.82,238.43 M263.82,238.13L270.66,238.13 M263.82,238.43L270.66,238.43 M263.82,239.57L270.66,239.57 M270.66,240.03L263.82,240.03 M270.66,239.87L263.82,239.87 M270.66,239.57L263.82,239.57 M263.82,239.87L270.66,239.87 M251.31,237.97L258.14,237.97 M258.14,238.13L251.31,238.13 M258.14,238.43L251.31,238.43 M251.31,238.13L258.14,238.13 M251.31,238.43L258.14,238.43 M251.31,239.57L258.14,239.57 M258.14,240.03L251.31,240.03 M258.14,239.87L251.31,239.87 M258.14,239.57L251.31,239.57 M251.31,239.87L258.14,239.87 M208.63,283.58L220.44,283.90 M220.41,283.91L206.72,283.65 M220.06,283.90L206.72,283.65 M220.44,284.53L198.56,283.50 M211.11,282.15L200.20,282.09 M221.72,253.06L221.72,253.51 M208.63,252.97L220.44,252.66 M220.41,252.65L206.72,252.90 M220.06,252.66L206.72,252.90 M220.44,252.03L198.56,253.06 M247.79,291.60L255.31,291.60 M247.79,291.60L255.31,291.60 M263.87,271.23L263.87,280.87 M265.65,270.79L265.65,280.87 M238.98,291.52L231.46,291.51 M238.98,291.49L231.46,291.53 M269.44,267.84L269.44,258.20 M267.66,268.28L267.66,258.20 M256.56,244.96L249.04,244.96 M256.56,244.96L249.04,244.95 M265.66,265.33L265.66,255.68 M263.88,265.76L263.88,255.68 M269.44,277.92L269.44,268.28 M267.66,278.36L267.66,268.28 M172.23,257.12L172.17,267.59 M172.23,257.12L172.17,268.27 M172.23,279.41L172.17,268.27 M172.23,279.41L172.17,268.95 M302.44,249.57L307.70,250.52 M307.70,286.04L302.44,286.99 M256.98,259.33L257.21,251.66 M239.81,277.23L239.58,284.90 M296.44,273.08L304.35,273.08 M296.44,263.48L304.35,263.47 M265.00,277.23L264.77,284.90 M307.53,288.03L307.53,275.64 M307.27,288.03L307.27,275.65 M303.35,277.54L294.84,277.60 M303.35,277.56L294.84,277.60 M294.84,277.50L303.35,277.50 M307.53,260.92L307.53,248.53 M307.27,248.53L307.27,260.91 M303.35,259.00L294.84,258.96 M303.35,259.01L294.84,258.96 M303.35,259.06L294.84,259.06 M227.69,219.51L233.27,223.87 M227.69,317.05L233.27,312.69 M267.08,336.08L276.14,336.08 M283.91,335.77L266.41,335.77 M266.41,335.77L283.91,335.77 M267.16,335.14L276.06,335.14 M276.06,334.09L267.16,334.09 M267.16,334.09L276.06,334.09 M283.91,333.46L266.41,333.46 M266.41,333.46L283.91,333.46 M281.48,336.61L274.44,336.59 M281.43,330.55L282.62,321.58 M276.06,201.42L267.16,201.42 M267.16,201.42L276.06,201.42 M283.91,200.80L266.41,200.80 M266.39,200.81L283.91,200.80 M267.08,203.42L276.14,203.42 M276.06,202.48L267.16,202.48 M267.16,202.48L276.06,202.48 M283.91,203.10L266.39,203.09 M266.41,203.10L283.91,203.10 M281.48,199.95L274.44,199.97 M238.14,266.06L248.20,266.19 M248.55,271.12L238.17,271.18 M234.59,269.00L227.35,269.00 M234.49,267.60L227.25,267.60 M227.44,267.60L234.68,267.60 M312.50,274.64L312.92,281.70 M312.22,283.26L312.18,274.86 M308.96,255.03L292.95,255.05 M308.96,281.53L292.95,281.51 M229.90,258.70L221.81,258.64 M229.85,258.69L221.76,258.65 M229.86,257.73L221.77,257.68 M229.90,278.97L221.81,278.91 M221.77,277.95L229.86,278.00 M221.82,277.94L229.90,277.98 M221.96,279.29L221.95,269.10 M198.34,255.64L198.33,261.70 M221.41,268.19L221.40,279.19 M268.63,272.65L262.69,272.73 M268.65,272.58L262.71,272.42 M268.65,263.98L262.71,264.14 M186.13,273.26L175.94,273.28 M175.94,273.28L167.16,273.22 M175.94,273.28L164.41,273.16 M173.19,273.23L158.76,273.16 M158.58,273.19L171.78,273.26 M158.58,263.37L171.78,263.30 M164.41,263.39L175.94,263.27 M175.94,263.27L167.16,263.34 M175.94,263.27L186.13,263.30 M158.76,263.40L173.19,263.33 M144.70,268.28L153.48,268.28 M153.48,268.28L160.19,268.28 M293.45,260.51L293.45,268.28 M293.45,276.05L293.45,268.28 M265.15,268.28L256.61,268.28 M273.44,268.28L265.15,268.28 M256.61,268.28L265.15,268.28 M265.15,268.28L273.44,268.28 M288.56,268.28L278.97,268.28 M192.27,253.24L196.99,252.89 M278.82,268.28L288.10,268.28 M278.97,268.28L288.56,268.28 M286.87,297.37L308.05,299.66 M286.87,297.37L308.48,299.71 M263.70,211.02L263.65,202.30 M263.65,202.35L263.63,192.85 M263.63,192.85L263.31,199.64 M266.01,209.78L266.07,202.34 M248.55,207.13L248.62,214.66 M248.62,214.66L248.80,208.01 M273.71,211.01L273.67,203.18 M273.33,199.64L273.64,190.91 M273.64,190.91L273.67,203.78 M263.65,334.26L263.70,325.53 M266.07,334.22L266.01,326.78 M248.55,329.46L248.62,321.90 M248.80,328.09L248.62,321.90 M273.67,333.37L273.71,325.55 M273.33,336.92L273.64,345.65 M273.64,345.65L273.67,332.78 M263.63,343.70L263.31,336.92 M263.63,343.70L263.65,334.21 M306.00,287.84L311.47,285.82 M273.82,204.82L273.78,212.04 M273.82,331.74L273.78,324.52 M264.32,268.28L270.92,268.28 M264.32,268.28L257.77,268.28 M245.06,268.28L251.43,268.28 M248.80,225.70L249.63,209.36 M248.80,225.70L249.63,196.47 M263.11,209.50L263.34,196.48 M263.11,209.50L263.34,198.38 M276.59,225.70L276.37,198.38 M276.59,225.70L276.37,196.48 M287.50,222.49L278.90,222.68 M264.32,268.28L270.92,268.28 M264.32,268.28L257.77,268.28 M245.06,268.28L251.43,268.28 M248.80,310.86L249.63,327.20 M248.80,310.86L249.63,340.09 M276.59,310.86L276.38,340.08 M276.59,310.86L276.37,338.18 M263.35,338.18L263.11,327.06 M263.11,327.06L263.34,340.08 M287.50,314.07L278.90,313.88 M228.14,292.68L223.27,293.32 M213.17,283.54L205.80,284.62 M264.79,215.41L284.99,215.41 M284.99,321.14L264.79,321.14 M264.35,344.01L276.47,344.01 M264.35,344.64L276.47,344.64 M264.35,194.36L276.47,194.36 M264.35,191.82L276.47,191.82" stroke="currentColor" stroke-width="0.6" stroke-linecap="round" fill="none" opacity="0.55" clip-path="url(#hull-clip)" filter="url(#glow)" />
  <path d="M 255.69,366.50 C 255.56,366.51 255.43,366.51 255.31,366.50 C 255.19,366.49 255.07,366.48 254.96,366.46 C 254.85,366.44 254.74,366.42 254.63,366.38 C 254.53,366.35 254.43,366.31 254.33,366.27 C 254.23,366.22 254.14,366.17 254.05,366.11 C 253.96,366.05 253.87,365.99 253.79,365.91 C 253.71,365.84 253.63,365.76 253.55,365.68 C 253.48,365.60 253.41,365.50 253.34,365.41 C 253.28,365.31 253.22,365.24 253.16,365.09 C 253.10,364.95 253.04,364.77 252.98,364.55 C 252.92,364.34 252.86,364.08 252.80,363.79 C 252.75,363.50 252.69,363.17 252.64,362.80 C 252.59,362.43 252.54,362.02 252.48,361.58 C 252.43,361.13 252.38,360.65 252.34,360.13 C 252.29,359.61 252.24,359.06 252.20,358.46 C 252.15,357.87 252.11,357.23 252.06,356.56 C 252.02,355.89 251.98,355.11 251.94,354.44 C 251.89,353.77 251.84,353.13 251.79,352.54 C 251.74,351.94 251.68,351.39 251.62,350.87 C 251.56,350.35 251.49,349.87 251.42,349.42 C 251.35,348.98 251.28,348.57 251.20,348.20 C 251.13,347.83 251.05,347.50 250.96,347.21 C 250.88,346.92 250.79,346.66 250.70,346.45 C 250.60,346.23 250.51,346.05 250.41,345.91 C 250.31,345.76 250.20,345.69 250.09,345.59 C 249.99,345.50 249.89,345.41 249.79,345.34 C 249.69,345.26 249.59,345.19 249.49,345.13 C 249.39,345.07 249.30,345.02 249.20,344.98 C 249.11,344.94 249.01,344.91 248.92,344.89 C 248.83,344.87 248.74,344.86 248.65,344.85 C 248.56,344.85 248.47,344.85 248.38,344.87 C 248.30,344.88 248.21,344.90 248.12,344.94 C 248.04,344.97 247.96,345.03 247.88,345.06 C 247.79,345.09 247.70,345.11 247.61,345.12 C 247.52,345.14 247.42,345.14 247.33,345.12 C 247.23,345.11 247.13,345.09 247.03,345.06 C 246.93,345.03 246.83,344.99 246.72,344.94 C 246.61,344.89 246.50,344.82 246.39,344.75 C 246.28,344.68 246.16,344.59 246.05,344.50 C 245.93,344.41 245.81,344.30 245.69,344.19 C 245.57,344.07 245.44,343.93 245.31,343.81 C 245.18,343.69 245.05,343.58 244.91,343.47 C 244.77,343.36 244.62,343.26 244.47,343.16 C 244.32,343.06 244.16,342.96 244.00,342.88 C 243.84,342.79 243.67,342.70 243.50,342.62 C 243.33,342.55 243.15,342.47 242.97,342.41 C 242.79,342.34 242.60,342.28 242.41,342.22 C 242.21,342.16 242.02,342.11 241.81,342.06 C 241.61,342.02 241.46,341.98 241.19,341.94 C 240.92,341.90 240.59,341.85 240.20,341.81 C 239.82,341.77 239.37,341.73 238.86,341.69 C 238.35,341.65 237.78,341.60 237.16,341.56 C 236.53,341.52 235.84,341.48 235.09,341.44 C 234.35,341.40 233.54,341.35 232.67,341.31 C 231.80,341.27 230.88,341.23 229.89,341.19 C 228.90,341.15 227.86,341.10 226.75,341.06 C 225.64,341.02 224.35,340.98 223.25,340.94 C 222.15,340.89 221.12,340.85 220.16,340.80 C 219.20,340.76 218.31,340.71 217.49,340.66 C 216.67,340.62 215.92,340.57 215.23,340.52 C 214.55,340.46 213.94,340.41 213.39,340.36 C 212.85,340.31 212.37,340.25 211.96,340.20 C 211.55,340.14 211.21,340.08 210.95,340.02 C 210.68,339.96 210.48,339.90 210.34,339.84 C 210.21,339.78 210.21,339.77 210.16,339.66 C 210.10,339.55 210.04,339.39 209.99,339.18 C 209.94,338.97 209.89,338.72 209.85,338.41 C 209.81,338.11 209.77,337.76 209.73,337.36 C 209.70,336.96 209.67,336.51 209.64,336.02 C 209.61,335.52 209.59,334.98 209.57,334.38 C 209.55,333.79 209.54,333.15 209.52,332.46 C 209.51,331.77 209.50,331.04 209.50,330.25 C 209.50,329.46 209.49,328.54 209.50,327.75 C 209.51,326.96 209.52,326.22 209.55,325.52 C 209.57,324.82 209.60,324.16 209.64,323.55 C 209.68,322.93 209.73,322.37 209.78,321.84 C 209.84,321.32 209.90,320.84 209.97,320.41 C 210.04,319.97 210.12,319.58 210.20,319.23 C 210.29,318.89 210.38,318.59 210.48,318.33 C 210.59,318.07 210.70,317.86 210.81,317.69 C 210.93,317.52 211.10,317.47 211.19,317.31 C 211.27,317.15 211.32,316.96 211.34,316.73 C 211.35,316.50 211.32,316.23 211.26,315.93 C 211.19,315.63 211.09,315.29 210.95,314.92 C 210.81,314.55 210.64,314.14 210.42,313.70 C 210.21,313.26 209.95,312.79 209.66,312.27 C 209.37,311.76 209.05,311.21 208.68,310.63 C 208.31,310.05 207.91,309.43 207.47,308.78 C 207.03,308.13 206.65,307.42 206.03,306.72 C 205.41,306.02 204.65,305.30 203.74,304.57 C 202.84,303.84 201.79,303.10 200.60,302.34 C 199.41,301.58 198.08,300.80 196.61,300.02 C 195.14,299.23 193.52,298.43 191.77,297.61 C 190.01,296.79 188.11,295.96 186.07,295.12 C 184.03,294.27 181.85,293.41 179.52,292.54 C 177.20,291.67 174.73,290.78 172.12,289.88 C 169.52,288.97 166.48,288.00 163.88,287.12 C 161.27,286.25 158.82,285.42 156.52,284.64 C 154.21,283.86 152.05,283.12 150.05,282.42 C 148.04,281.73 146.18,281.08 144.47,280.47 C 142.76,279.86 141.20,279.30 139.78,278.78 C 138.37,278.26 137.10,277.79 135.98,277.36 C 134.87,276.93 133.90,276.54 133.08,276.20 C 132.26,275.86 131.59,275.57 131.06,275.31 C 130.54,275.06 130.30,274.90 129.94,274.69 C 129.58,274.48 129.23,274.27 128.90,274.05 C 128.57,273.84 128.25,273.63 127.95,273.41 C 127.64,273.20 127.35,272.98 127.08,272.77 C 126.80,272.55 126.54,272.33 126.30,272.11 C 126.05,271.89 125.82,271.67 125.60,271.45 C 125.38,271.22 125.18,271.00 124.99,270.77 C 124.80,270.55 124.63,270.32 124.47,270.09 C 124.31,269.87 124.16,269.63 124.03,269.41 C 123.90,269.18 123.79,268.96 123.69,268.75 C 123.59,268.54 123.51,268.33 123.44,268.12 C 123.37,267.92 123.32,267.72 123.28,267.53 C 123.24,267.34 123.22,267.15 123.22,266.97 C 123.21,266.79 123.22,266.61 123.25,266.44 C 123.28,266.27 123.32,266.10 123.38,265.94 C 123.43,265.78 123.51,265.62 123.59,265.47 C 123.68,265.32 123.79,265.18 123.91,265.03 C 124.03,264.88 124.17,264.73 124.32,264.57 C 124.48,264.41 124.65,264.25 124.84,264.09 C 125.02,263.92 125.23,263.75 125.45,263.58 C 125.68,263.40 125.92,263.23 126.17,263.05 C 126.43,262.87 126.70,262.68 126.99,262.49 C 127.28,262.30 127.59,262.11 127.91,261.91 C 128.24,261.72 128.58,261.52 128.94,261.31 C 129.30,261.11 129.53,260.94 130.06,260.69 C 130.59,260.43 131.27,260.13 132.11,259.78 C 132.95,259.43 133.93,259.04 135.08,258.59 C 136.22,258.15 137.52,257.66 138.97,257.12 C 140.42,256.59 142.02,256.01 143.78,255.38 C 145.54,254.74 147.45,254.07 149.52,253.34 C 151.58,252.62 153.80,251.85 156.17,251.03 C 158.54,250.21 161.07,249.35 163.75,248.44 C 166.43,247.53 169.57,246.50 172.25,245.56 C 174.93,244.62 177.47,243.70 179.85,242.79 C 182.24,241.88 184.47,240.99 186.55,240.12 C 188.64,239.24 190.57,238.39 192.36,237.55 C 194.14,236.71 195.78,235.88 197.27,235.08 C 198.75,234.27 200.09,233.48 201.27,232.71 C 202.46,231.94 203.50,231.18 204.38,230.45 C 205.27,229.71 206.01,228.99 206.59,228.28 C 207.18,227.58 207.50,226.87 207.91,226.22 C 208.31,225.57 208.68,224.95 209.01,224.37 C 209.34,223.79 209.64,223.24 209.90,222.73 C 210.16,222.21 210.39,221.74 210.58,221.30 C 210.77,220.86 210.93,220.45 211.05,220.08 C 211.17,219.71 211.25,219.37 211.30,219.07 C 211.36,218.77 211.37,218.50 211.35,218.27 C 211.33,218.04 211.28,217.85 211.19,217.69 C 211.10,217.53 210.93,217.48 210.81,217.31 C 210.70,217.15 210.59,216.94 210.48,216.69 C 210.38,216.44 210.29,216.15 210.20,215.81 C 210.12,215.48 210.04,215.10 209.97,214.69 C 209.90,214.27 209.84,213.81 209.78,213.31 C 209.73,212.81 209.68,212.27 209.64,211.69 C 209.60,211.10 209.57,210.48 209.55,209.81 C 209.52,209.15 209.51,208.44 209.50,207.69 C 209.49,206.94 209.48,206.06 209.50,205.31 C 209.52,204.56 209.55,203.86 209.60,203.20 C 209.65,202.53 209.72,201.91 209.80,201.34 C 209.89,200.76 209.99,200.23 210.11,199.73 C 210.23,199.24 210.36,198.80 210.52,198.39 C 210.67,197.99 210.84,197.62 211.02,197.30 C 211.21,196.99 211.41,196.71 211.63,196.48 C 211.85,196.24 212.09,196.05 212.34,195.91 C 212.60,195.76 212.83,195.69 213.16,195.59 C 213.48,195.49 213.87,195.40 214.30,195.30 C 214.74,195.21 215.24,195.12 215.79,195.04 C 216.34,194.95 216.95,194.87 217.61,194.80 C 218.27,194.72 218.99,194.65 219.77,194.58 C 220.54,194.51 221.37,194.44 222.26,194.38 C 223.14,194.32 224.09,194.26 225.09,194.21 C 226.08,194.16 227.14,194.11 228.25,194.06 C 229.36,194.02 230.65,193.98 231.75,193.94 C 232.85,193.89 233.88,193.84 234.84,193.78 C 235.81,193.72 236.70,193.66 237.53,193.59 C 238.36,193.53 239.12,193.45 239.81,193.38 C 240.51,193.30 241.13,193.21 241.69,193.12 C 242.24,193.04 242.73,192.94 243.16,192.84 C 243.58,192.74 243.93,192.64 244.22,192.53 C 244.51,192.42 244.72,192.31 244.88,192.19 C 245.03,192.07 245.04,191.93 245.12,191.81 C 245.21,191.70 245.31,191.59 245.41,191.48 C 245.51,191.38 245.61,191.29 245.72,191.20 C 245.83,191.12 245.94,191.04 246.06,190.97 C 246.18,190.90 246.31,190.84 246.44,190.78 C 246.57,190.73 246.70,190.68 246.84,190.64 C 246.98,190.60 247.13,190.57 247.28,190.55 C 247.43,190.52 247.59,190.51 247.75,190.50 C 247.91,190.49 248.08,190.52 248.25,190.50 C 248.42,190.48 248.58,190.45 248.74,190.40 C 248.90,190.35 249.07,190.28 249.23,190.20 C 249.39,190.11 249.55,190.01 249.70,189.89 C 249.86,189.77 250.02,189.64 250.17,189.48 C 250.33,189.33 250.48,189.16 250.63,188.98 C 250.79,188.79 250.94,188.59 251.09,188.37 C 251.24,188.15 251.38,187.91 251.53,187.66 C 251.68,187.40 251.84,187.12 251.97,186.84 C 252.10,186.57 252.22,186.30 252.32,186.02 C 252.42,185.75 252.51,185.47 252.59,185.20 C 252.66,184.92 252.72,184.64 252.77,184.36 C 252.81,184.08 252.84,183.80 252.86,183.52 C 252.88,183.23 252.88,182.95 252.87,182.66 C 252.86,182.38 252.83,182.09 252.79,181.80 C 252.75,181.52 252.69,181.23 252.62,180.94 C 252.56,180.65 252.44,180.36 252.38,180.06 C 252.31,179.77 252.25,179.47 252.21,179.16 C 252.17,178.86 252.14,178.55 252.13,178.24 C 252.12,177.93 252.12,177.62 252.14,177.30 C 252.16,176.98 252.19,176.65 252.23,176.33 C 252.28,176.00 252.34,175.67 252.41,175.34 C 252.49,175.00 252.58,174.66 252.68,174.32 C 252.78,173.98 252.90,173.63 253.03,173.28 C 253.16,172.93 253.32,172.54 253.47,172.22 C 253.61,171.89 253.76,171.60 253.91,171.33 C 254.05,171.06 254.20,170.82 254.34,170.61 C 254.49,170.40 254.64,170.22 254.78,170.06 C 254.93,169.91 255.07,169.78 255.22,169.69 C 255.36,169.59 255.51,169.52 255.66,169.48 C 255.80,169.45 255.95,169.43 256.09,169.45 C 256.24,169.47 256.39,169.52 256.53,169.59 C 256.68,169.67 256.83,169.78 256.97,169.91 C 257.11,170.03 257.25,170.17 257.39,170.33 C 257.53,170.49 257.66,170.66 257.80,170.86 C 257.93,171.05 258.06,171.27 258.19,171.50 C 258.32,171.73 258.44,171.98 258.56,172.25 C 258.68,172.52 258.80,172.80 258.92,173.11 C 259.04,173.41 259.15,173.74 259.27,174.08 C 259.38,174.42 259.49,174.78 259.59,175.16 C 259.70,175.53 259.74,175.98 259.91,176.34 C 260.07,176.71 260.30,177.05 260.59,177.37 C 260.87,177.68 261.22,177.97 261.63,178.23 C 262.04,178.49 262.51,178.72 263.05,178.92 C 263.58,179.13 264.17,179.30 264.83,179.45 C 265.48,179.60 266.20,179.73 266.98,179.82 C 267.75,179.92 268.59,179.98 269.49,180.02 C 270.39,180.06 271.35,180.08 272.38,180.06 C 273.40,180.05 274.61,179.94 275.62,179.94 C 276.64,179.94 277.59,179.98 278.48,180.07 C 279.36,180.16 280.18,180.29 280.93,180.46 C 281.68,180.63 282.37,180.85 282.98,181.11 C 283.60,181.37 284.15,181.67 284.64,182.02 C 285.13,182.36 285.55,182.75 285.90,183.18 C 286.25,183.61 286.54,184.08 286.76,184.60 C 286.98,185.12 287.13,185.68 287.22,186.28 C 287.31,186.88 287.25,187.60 287.28,188.22 C 287.32,188.83 287.37,189.42 287.43,189.98 C 287.49,190.53 287.57,191.06 287.66,191.55 C 287.76,192.05 287.86,192.52 287.98,192.95 C 288.11,193.39 288.24,193.80 288.39,194.17 C 288.54,194.55 288.70,194.89 288.88,195.21 C 289.06,195.53 289.25,195.81 289.46,196.07 C 289.67,196.33 289.89,196.55 290.12,196.75 C 290.36,196.95 290.62,197.05 290.88,197.25 C 291.13,197.45 291.39,197.68 291.66,197.95 C 291.93,198.21 292.21,198.51 292.49,198.84 C 292.77,199.17 293.06,199.53 293.36,199.92 C 293.65,200.32 293.96,200.74 294.27,201.20 C 294.57,201.66 294.89,202.15 295.21,202.68 C 295.53,203.20 295.86,203.76 296.20,204.35 C 296.53,204.94 296.87,205.56 297.22,206.22 C 297.57,206.87 297.80,207.65 298.28,208.28 C 298.77,208.92 299.38,209.50 300.12,210.03 C 300.87,210.56 301.74,211.04 302.75,211.47 C 303.76,211.90 304.89,212.27 306.16,212.59 C 307.42,212.92 308.82,213.19 310.34,213.41 C 311.87,213.62 313.53,213.79 315.31,213.91 C 317.10,214.02 319.02,214.08 321.06,214.09 C 323.11,214.10 325.29,214.06 327.59,213.97 C 329.90,213.88 332.62,213.60 334.91,213.53 C 337.19,213.47 339.32,213.48 341.30,213.58 C 343.27,213.67 345.10,213.85 346.77,214.11 C 348.43,214.37 349.95,214.71 351.31,215.12 C 352.67,215.54 353.88,216.04 354.94,216.62 C 355.99,217.21 356.89,217.87 357.64,218.61 C 358.39,219.35 358.98,220.17 359.42,221.08 C 359.86,221.98 360.15,222.97 360.28,224.03 C 360.41,225.10 360.28,226.39 360.22,227.47 C 360.16,228.54 360.06,229.55 359.93,230.48 C 359.80,231.41 359.62,232.27 359.41,233.05 C 359.20,233.84 358.96,234.56 358.67,235.20 C 358.39,235.85 358.06,236.42 357.70,236.92 C 357.34,237.42 356.94,237.85 356.51,238.21 C 356.07,238.57 355.60,238.86 355.09,239.07 C 354.57,239.29 354.02,239.43 353.44,239.50 C 352.85,239.57 352.17,239.51 351.56,239.50 C 350.96,239.49 350.37,239.47 349.80,239.44 C 349.23,239.41 348.67,239.36 348.14,239.31 C 347.61,239.26 347.09,239.20 346.59,239.12 C 346.10,239.05 345.62,238.97 345.16,238.88 C 344.70,238.78 344.25,238.68 343.83,238.56 C 343.40,238.45 343.00,238.32 342.61,238.19 C 342.22,238.05 341.85,237.91 341.50,237.75 C 341.15,237.59 340.81,237.40 340.50,237.25 C 340.19,237.10 339.90,236.97 339.63,236.85 C 339.37,236.74 339.12,236.64 338.90,236.55 C 338.68,236.47 338.48,236.41 338.30,236.36 C 338.12,236.31 337.96,236.28 337.83,236.27 C 337.69,236.25 337.58,236.25 337.49,236.27 C 337.40,236.29 337.33,236.33 337.29,236.38 C 337.24,236.44 337.22,236.51 337.22,236.59 C 337.22,236.68 337.27,236.80 337.28,236.91 C 337.29,237.01 337.28,237.12 337.26,237.23 C 337.24,237.33 337.20,237.44 337.15,237.55 C 337.10,237.67 337.03,237.78 336.95,237.89 C 336.87,238.00 336.78,238.12 336.67,238.23 C 336.56,238.35 336.44,238.47 336.30,238.59 C 336.17,238.70 336.02,238.82 335.85,238.95 C 335.69,239.07 335.51,239.19 335.31,239.31 C 335.12,239.44 334.87,239.57 334.69,239.69 C 334.50,239.81 334.34,239.92 334.20,240.03 C 334.07,240.14 333.95,240.24 333.86,240.34 C 333.77,240.44 333.70,240.54 333.66,240.62 C 333.61,240.71 333.59,240.80 333.59,240.88 C 333.60,240.95 333.62,241.03 333.67,241.09 C 333.72,241.16 333.79,241.22 333.89,241.28 C 333.99,241.34 334.11,241.39 334.25,241.44 C 334.39,241.48 334.59,241.52 334.75,241.56 C 334.91,241.61 335.06,241.66 335.20,241.72 C 335.35,241.78 335.48,241.84 335.61,241.91 C 335.74,241.97 335.86,242.05 335.97,242.12 C 336.08,242.20 336.18,242.29 336.28,242.38 C 336.38,242.46 336.47,242.56 336.55,242.66 C 336.63,242.76 336.70,242.86 336.77,242.97 C 336.83,243.08 336.89,243.19 336.94,243.31 C 336.99,243.43 337.03,243.56 337.06,243.69 C 337.10,243.81 337.12,243.93 337.13,244.05 C 337.15,244.18 337.15,244.30 337.15,244.41 C 337.14,244.53 337.13,244.65 337.11,244.77 C 337.09,244.88 337.06,245.00 337.02,245.11 C 336.98,245.22 336.93,245.33 336.87,245.45 C 336.81,245.56 336.74,245.67 336.66,245.77 C 336.59,245.88 336.50,245.99 336.41,246.09 C 336.31,246.20 336.22,246.31 336.09,246.41 C 335.97,246.50 335.83,246.60 335.66,246.68 C 335.50,246.76 335.32,246.84 335.12,246.91 C 334.92,246.99 334.69,247.05 334.45,247.11 C 334.21,247.17 333.95,247.22 333.67,247.27 C 333.39,247.31 333.09,247.35 332.77,247.38 C 332.45,247.42 332.12,247.44 331.76,247.46 C 331.40,247.48 331.02,247.49 330.62,247.50 C 330.23,247.51 329.77,247.51 329.38,247.50 C 328.98,247.49 328.61,247.47 328.27,247.44 C 327.92,247.41 327.60,247.36 327.30,247.31 C 327.00,247.26 326.72,247.20 326.47,247.12 C 326.22,247.05 325.99,246.97 325.78,246.88 C 325.58,246.78 325.39,246.68 325.23,246.56 C 325.08,246.45 324.94,246.32 324.83,246.19 C 324.72,246.05 324.63,245.91 324.56,245.75 C 324.50,245.59 324.49,245.40 324.44,245.25 C 324.38,245.10 324.31,244.96 324.23,244.84 C 324.14,244.71 324.04,244.60 323.93,244.51 C 323.82,244.41 323.69,244.33 323.55,244.27 C 323.40,244.20 323.25,244.15 323.08,244.11 C 322.91,244.07 322.72,244.05 322.52,244.04 C 322.32,244.03 322.11,244.04 321.88,244.05 C 321.65,244.07 321.41,244.11 321.16,244.16 C 320.90,244.20 320.60,244.27 320.34,244.34 C 320.09,244.42 319.85,244.50 319.63,244.60 C 319.41,244.70 319.21,244.81 319.02,244.93 C 318.84,245.05 318.67,245.18 318.52,245.33 C 318.36,245.47 318.23,245.63 318.11,245.80 C 317.99,245.96 317.89,246.14 317.80,246.34 C 317.72,246.53 317.65,246.73 317.60,246.95 C 317.55,247.16 317.52,247.39 317.50,247.62 C 317.48,247.86 317.48,248.13 317.50,248.38 C 317.52,248.62 317.55,248.85 317.59,249.08 C 317.64,249.30 317.70,249.52 317.78,249.73 C 317.86,249.95 317.95,250.15 318.06,250.34 C 318.17,250.54 318.30,250.73 318.44,250.91 C 318.58,251.09 318.73,251.26 318.91,251.42 C 319.08,251.59 319.27,251.74 319.47,251.89 C 319.67,252.04 319.89,252.18 320.12,252.31 C 320.36,252.45 320.63,252.53 320.88,252.69 C 321.12,252.85 321.35,253.05 321.58,253.28 C 321.80,253.52 322.02,253.79 322.23,254.09 C 322.45,254.40 322.65,254.74 322.84,255.12 C 323.04,255.51 323.23,255.92 323.41,256.38 C 323.59,256.83 323.76,257.32 323.92,257.84 C 324.09,258.37 324.24,258.93 324.39,259.53 C 324.54,260.13 324.68,260.77 324.81,261.44 C 324.95,262.11 325.08,262.87 325.19,263.56 C 325.30,264.25 325.39,264.92 325.47,265.58 C 325.55,266.23 325.61,266.87 325.66,267.48 C 325.70,268.10 325.73,268.70 325.75,269.28 C 325.77,269.86 325.77,270.42 325.75,270.97 C 325.73,271.51 325.70,272.04 325.66,272.55 C 325.61,273.05 325.55,273.54 325.47,274.02 C 325.39,274.49 325.30,274.94 325.19,275.38 C 325.08,275.81 324.95,276.22 324.81,276.62 C 324.68,277.03 324.53,277.42 324.38,277.80 C 324.22,278.17 324.05,278.54 323.88,278.89 C 323.70,279.24 323.51,279.58 323.31,279.91 C 323.11,280.23 322.91,280.54 322.69,280.84 C 322.47,281.14 322.24,281.43 322.00,281.70 C 321.76,281.98 321.51,282.24 321.25,282.48 C 320.99,282.73 320.72,282.97 320.44,283.19 C 320.16,283.41 319.83,283.60 319.56,283.81 C 319.30,284.02 319.05,284.24 318.84,284.46 C 318.62,284.68 318.43,284.90 318.26,285.13 C 318.09,285.36 317.95,285.59 317.83,285.83 C 317.71,286.06 317.62,286.30 317.55,286.55 C 317.48,286.79 317.43,287.04 317.41,287.29 C 317.39,287.54 317.40,287.80 317.43,288.05 C 317.46,288.31 317.51,288.58 317.59,288.84 C 317.67,289.11 317.80,289.40 317.91,289.66 C 318.01,289.91 318.13,290.15 318.24,290.37 C 318.36,290.59 318.48,290.79 318.60,290.98 C 318.73,291.16 318.85,291.33 318.98,291.48 C 319.12,291.64 319.25,291.77 319.39,291.89 C 319.53,292.01 319.67,292.11 319.82,292.20 C 319.97,292.28 320.12,292.35 320.27,292.40 C 320.43,292.45 320.59,292.48 320.75,292.50 C 320.91,292.52 321.09,292.51 321.25,292.50 C 321.41,292.49 321.57,292.46 321.72,292.42 C 321.87,292.38 322.02,292.33 322.16,292.27 C 322.30,292.20 322.43,292.12 322.56,292.03 C 322.69,291.94 322.82,291.84 322.94,291.72 C 323.06,291.60 323.17,291.47 323.28,291.33 C 323.39,291.18 323.49,291.03 323.59,290.86 C 323.69,290.69 323.79,290.51 323.88,290.31 C 323.96,290.12 324.02,289.88 324.12,289.69 C 324.23,289.49 324.36,289.32 324.52,289.16 C 324.67,288.99 324.85,288.85 325.05,288.72 C 325.25,288.59 325.47,288.47 325.72,288.38 C 325.97,288.28 326.24,288.19 326.53,288.12 C 326.83,288.06 327.14,288.01 327.48,287.97 C 327.83,287.93 328.19,287.91 328.58,287.91 C 328.97,287.90 329.38,287.91 329.81,287.94 C 330.25,287.96 330.75,288.01 331.19,288.06 C 331.62,288.11 332.03,288.17 332.41,288.23 C 332.80,288.29 333.16,288.36 333.49,288.43 C 333.83,288.50 334.14,288.58 334.42,288.67 C 334.71,288.76 334.97,288.85 335.20,288.95 C 335.44,289.05 335.65,289.16 335.84,289.27 C 336.02,289.39 336.18,289.51 336.32,289.63 C 336.46,289.76 336.57,289.89 336.66,290.03 C 336.74,290.17 336.80,290.32 336.84,290.47 C 336.89,290.61 336.92,290.76 336.93,290.90 C 336.94,291.04 336.94,291.18 336.91,291.32 C 336.89,291.46 336.85,291.60 336.80,291.73 C 336.74,291.87 336.67,292.01 336.58,292.14 C 336.49,292.27 336.38,292.41 336.26,292.54 C 336.13,292.67 335.99,292.80 335.84,292.93 C 335.68,293.06 335.50,293.19 335.31,293.31 C 335.12,293.44 334.87,293.57 334.69,293.69 C 334.50,293.81 334.34,293.92 334.20,294.02 C 334.05,294.13 333.93,294.23 333.84,294.32 C 333.74,294.41 333.66,294.50 333.61,294.58 C 333.56,294.66 333.52,294.73 333.52,294.80 C 333.51,294.86 333.52,294.92 333.55,294.98 C 333.59,295.03 333.65,295.08 333.73,295.12 C 333.81,295.16 333.91,295.19 334.03,295.22 C 334.15,295.25 334.33,295.25 334.47,295.28 C 334.61,295.31 334.74,295.35 334.87,295.40 C 334.99,295.45 335.11,295.50 335.23,295.57 C 335.34,295.64 335.45,295.71 335.55,295.80 C 335.65,295.88 335.74,295.98 335.83,296.08 C 335.92,296.18 336.00,296.29 336.07,296.41 C 336.14,296.54 336.21,296.67 336.27,296.80 C 336.33,296.94 336.39,297.09 336.44,297.25 C 336.49,297.41 336.50,297.60 336.56,297.75 C 336.62,297.90 336.71,298.02 336.81,298.12 C 336.92,298.23 337.04,298.31 337.19,298.38 C 337.33,298.44 337.50,298.48 337.69,298.50 C 337.88,298.52 338.08,298.52 338.31,298.50 C 338.54,298.48 338.79,298.44 339.06,298.38 C 339.33,298.31 339.62,298.23 339.94,298.12 C 340.25,298.02 340.58,297.90 340.94,297.75 C 341.29,297.60 341.67,297.41 342.06,297.25 C 342.45,297.09 342.85,296.95 343.27,296.81 C 343.68,296.68 344.11,296.55 344.55,296.44 C 344.99,296.32 345.44,296.22 345.91,296.12 C 346.37,296.03 346.85,295.95 347.34,295.88 C 347.84,295.80 348.34,295.74 348.86,295.69 C 349.38,295.64 349.91,295.59 350.45,295.56 C 351.00,295.53 351.55,295.51 352.12,295.50 C 352.70,295.49 353.33,295.43 353.88,295.50 C 354.42,295.57 354.94,295.71 355.41,295.93 C 355.89,296.14 356.33,296.43 356.74,296.79 C 357.15,297.15 357.52,297.58 357.86,298.08 C 358.20,298.58 358.50,299.15 358.77,299.80 C 359.03,300.44 359.26,301.16 359.46,301.95 C 359.66,302.73 359.82,303.59 359.95,304.52 C 360.07,305.45 360.16,306.46 360.22,307.53 C 360.27,308.61 360.41,309.90 360.28,310.97 C 360.15,312.04 359.86,313.03 359.42,313.94 C 358.98,314.85 358.39,315.68 357.64,316.44 C 356.89,317.19 355.99,317.87 354.94,318.47 C 353.88,319.07 352.67,319.59 351.31,320.03 C 349.95,320.47 348.43,320.84 346.77,321.12 C 345.10,321.41 343.27,321.62 341.30,321.75 C 339.32,321.88 337.19,321.93 334.91,321.91 C 332.62,321.88 329.90,321.65 327.59,321.59 C 325.28,321.54 323.10,321.54 321.05,321.59 C 318.99,321.65 317.07,321.75 315.27,321.91 C 313.47,322.06 311.79,322.27 310.25,322.53 C 308.71,322.79 307.29,323.10 306.00,323.47 C 304.71,323.83 303.55,324.25 302.52,324.72 C 301.48,325.19 300.58,325.71 299.80,326.28 C 299.02,326.85 298.37,327.48 297.84,328.16 C 297.32,328.83 297.04,329.65 296.66,330.34 C 296.27,331.04 295.89,331.69 295.52,332.30 C 295.15,332.92 294.80,333.50 294.45,334.04 C 294.10,334.58 293.75,335.08 293.42,335.55 C 293.09,336.01 292.77,336.44 292.45,336.83 C 292.14,337.22 291.83,337.57 291.54,337.88 C 291.24,338.20 290.96,338.47 290.68,338.71 C 290.40,338.95 290.13,339.15 289.88,339.31 C 289.62,339.48 289.36,339.53 289.12,339.69 C 288.89,339.84 288.68,340.02 288.48,340.23 C 288.29,340.45 288.11,340.68 287.95,340.95 C 287.79,341.22 287.65,341.52 287.53,341.84 C 287.41,342.17 287.30,342.52 287.22,342.91 C 287.13,343.29 287.07,343.70 287.02,344.14 C 286.97,344.58 286.93,345.05 286.92,345.55 C 286.91,346.04 286.91,346.57 286.94,347.12 C 286.96,347.68 287.03,348.32 287.06,348.88 C 287.10,349.43 287.13,349.94 287.15,350.43 C 287.17,350.92 287.19,351.37 287.20,351.79 C 287.20,352.21 287.21,352.60 287.20,352.95 C 287.20,353.31 287.19,353.63 287.17,353.92 C 287.15,354.21 287.13,354.47 287.10,354.70 C 287.07,354.92 287.04,355.11 286.99,355.27 C 286.95,355.43 286.90,355.56 286.84,355.66 C 286.79,355.75 286.78,355.79 286.66,355.84 C 286.53,355.90 286.34,355.95 286.09,355.99 C 285.83,356.04 285.51,356.07 285.13,356.10 C 284.75,356.13 284.31,356.15 283.80,356.17 C 283.29,356.19 282.71,356.20 282.08,356.20 C 281.44,356.21 280.74,356.20 279.98,356.20 C 279.21,356.19 278.38,356.17 277.49,356.15 C 276.60,356.13 275.64,356.10 274.62,356.06 C 273.61,356.03 272.39,355.96 271.38,355.94 C 270.36,355.92 269.41,355.91 268.52,355.93 C 267.64,355.95 266.82,355.98 266.07,356.04 C 265.32,356.10 264.63,356.17 264.02,356.27 C 263.40,356.36 262.85,356.48 262.36,356.61 C 261.87,356.74 261.45,356.90 261.10,357.07 C 260.75,357.24 260.46,357.44 260.24,357.65 C 260.02,357.86 259.87,358.09 259.78,358.34 C 259.69,358.60 259.74,358.89 259.72,359.16 C 259.69,359.42 259.66,359.68 259.62,359.94 C 259.59,360.19 259.55,360.44 259.50,360.69 C 259.45,360.93 259.40,361.17 259.34,361.41 C 259.29,361.64 259.22,361.87 259.16,362.09 C 259.09,362.32 259.02,362.54 258.94,362.75 C 258.86,362.96 258.78,363.17 258.69,363.38 C 258.60,363.58 258.51,363.78 258.41,363.97 C 258.31,364.16 258.20,364.36 258.09,364.53 C 257.99,364.71 257.88,364.87 257.77,365.02 C 257.67,365.18 257.56,365.32 257.45,365.45 C 257.33,365.57 257.22,365.69 257.11,365.80 C 257.00,365.90 256.88,366.00 256.77,366.08 C 256.65,366.16 256.53,366.23 256.41,366.29 C 256.30,366.35 256.18,366.39 256.05,366.43 C 255.93,366.46 255.81,366.49 255.69,366.50 Z" fill="none" stroke="currentColor" stroke-width="1.5" stroke-linejoin="round" stroke-linecap="round" filter="url(#glow)" />
</svg>