<svg xmlns="http://www.w3.org/2000/svg" width="512" height="512" viewBox="143.00 195.63 246.00 137.99" preserveAspectRatio="xMidYMid meet">
  <defs>
    <filter id="glow" x="-30%" y="-30%" width="160%" height="160%">
      <feGaussianBlur in="SourceGraphic" stdDeviation="2.4" result="blur" />
      <feMerge>
        <feMergeNode in="blur" />
        <feMergeNode in="SourceGraphic" />
      </feMerge>
    </filter>
    <clipPath id="hull-clip">
      <path d="M 305.50,322.06 C 305.19,322.03 304.84,322.01 304.50,321.94 C 304.16,321.86 303.82,321.75 303.47,321.61 C 303.12,321.47 302.77,321.29 302.41,321.08 C 302.05,320.87 301.68,320.62 301.31,320.34 C 300.94,320.07 300.57,319.75 300.19,319.41 C 299.81,319.06 299.42,318.68 299.03,318.27 C 298.64,317.85 298.24,317.40 297.84,316.92 C 297.44,316.44 297.04,315.92 296.62,315.38 C 296.21,314.83 295.79,314.17 295.38,313.62 C 294.96,313.08 294.55,312.56 294.15,312.09 C 293.74,311.61 293.34,311.17 292.95,310.76 C 292.55,310.35 292.15,309.98 291.77,309.64 C 291.38,309.30 290.99,309.00 290.61,308.73 C 290.23,308.47 289.85,308.24 289.48,308.04 C 289.10,307.84 288.73,307.68 288.37,307.55 C 288.00,307.43 287.64,307.34 287.28,307.28 C 286.92,307.23 286.55,307.24 286.22,307.22 C 285.89,307.20 285.58,307.17 285.30,307.14 C 285.01,307.11 284.75,307.08 284.52,307.05 C 284.28,307.01 284.07,306.98 283.88,306.94 C 283.68,306.90 283.52,306.86 283.38,306.81 C 283.23,306.77 283.11,306.72 283.02,306.67 C 282.92,306.62 282.85,306.57 282.80,306.52 C 282.75,306.46 282.72,306.40 282.72,306.34 C 282.72,306.28 282.74,306.22 282.78,306.16 C 282.82,306.10 282.87,306.04 282.94,305.98 C 283.01,305.93 283.09,305.88 283.19,305.83 C 283.29,305.78 283.40,305.73 283.53,305.69 C 283.66,305.64 283.81,305.60 283.97,305.56 C 284.13,305.52 284.31,305.49 284.50,305.45 C 284.69,305.42 284.90,305.39 285.12,305.36 C 285.35,305.33 285.59,305.30 285.84,305.28 C 286.10,305.26 286.42,305.26 286.66,305.22 C 286.90,305.17 287.10,305.11 287.28,305.02 C 287.46,304.92 287.60,304.81 287.72,304.67 C 287.83,304.53 287.92,304.37 287.97,304.19 C 288.02,304.00 288.04,303.79 288.03,303.56 C 288.02,303.33 287.98,303.08 287.91,302.80 C 287.83,302.52 287.73,302.22 287.59,301.89 C 287.46,301.57 287.29,301.22 287.09,300.84 C 286.90,300.47 286.69,300.04 286.41,299.66 C 286.12,299.27 285.78,298.90 285.38,298.54 C 284.99,298.18 284.53,297.83 284.02,297.49 C 283.51,297.15 282.95,296.83 282.33,296.52 C 281.71,296.20 281.03,295.90 280.30,295.61 C 279.56,295.32 278.77,295.04 277.93,294.77 C 277.08,294.51 276.18,294.25 275.23,294.01 C 274.27,293.76 273.26,293.53 272.19,293.31 C 271.12,293.09 269.90,292.88 268.81,292.69 C 267.73,292.49 266.69,292.31 265.69,292.14 C 264.69,291.97 263.73,291.82 262.81,291.67 C 261.90,291.53 261.02,291.40 260.19,291.28 C 259.35,291.16 258.56,291.06 257.81,290.97 C 257.06,290.88 256.35,290.80 255.69,290.73 C 255.02,290.67 254.40,290.62 253.81,290.58 C 253.23,290.54 252.69,290.51 252.19,290.50 C 251.69,290.49 251.25,290.51 250.81,290.50 C 250.38,290.49 249.96,290.47 249.56,290.44 C 249.17,290.41 248.79,290.36 248.44,290.31 C 248.08,290.26 247.75,290.20 247.44,290.12 C 247.12,290.05 246.83,289.97 246.56,289.88 C 246.29,289.78 246.04,289.68 245.81,289.56 C 245.58,289.45 245.38,289.32 245.19,289.19 C 245.00,289.05 244.83,288.91 244.69,288.75 C 244.54,288.59 244.47,288.42 244.31,288.25 C 244.16,288.08 243.98,287.90 243.77,287.72 C 243.55,287.54 243.32,287.35 243.05,287.16 C 242.78,286.96 242.48,286.77 242.16,286.56 C 241.83,286.36 241.48,286.15 241.09,285.94 C 240.71,285.72 240.30,285.51 239.86,285.28 C 239.42,285.06 238.95,284.83 238.45,284.59 C 237.96,284.36 237.43,284.12 236.88,283.88 C 236.32,283.63 235.71,283.36 235.12,283.12 C 234.54,282.89 233.97,282.66 233.39,282.45 C 232.82,282.24 232.24,282.04 231.67,281.86 C 231.10,281.67 230.53,281.50 229.97,281.34 C 229.40,281.18 228.84,281.04 228.28,280.91 C 227.72,280.77 227.16,280.65 226.61,280.55 C 226.05,280.44 225.50,280.35 224.95,280.27 C 224.40,280.18 223.86,280.12 223.31,280.06 C 222.77,280.01 222.20,279.97 221.69,279.94 C 221.18,279.90 220.71,279.88 220.27,279.86 C 219.83,279.84 219.42,279.83 219.05,279.83 C 218.67,279.83 218.34,279.83 218.03,279.84 C 217.73,279.86 217.46,279.88 217.22,279.91 C 216.98,279.93 216.78,279.97 216.61,280.02 C 216.44,280.06 216.30,280.11 216.20,280.17 C 216.10,280.23 216.03,280.30 216.00,280.38 C 215.97,280.45 216.02,280.55 216.00,280.62 C 215.98,280.70 215.93,280.78 215.86,280.84 C 215.79,280.91 215.70,280.97 215.58,281.03 C 215.46,281.09 215.32,281.14 215.16,281.19 C 214.99,281.23 214.80,281.28 214.59,281.31 C 214.38,281.35 214.15,281.38 213.89,281.41 C 213.63,281.43 213.35,281.45 213.05,281.47 C 212.74,281.48 212.41,281.49 212.06,281.50 C 211.71,281.51 211.32,281.51 210.94,281.50 C 210.56,281.49 210.17,281.46 209.78,281.42 C 209.39,281.38 208.99,281.33 208.59,281.27 C 208.19,281.20 207.79,281.12 207.38,281.03 C 206.96,280.94 206.55,280.84 206.12,280.72 C 205.70,280.60 205.28,280.47 204.84,280.33 C 204.41,280.18 203.97,280.03 203.53,279.86 C 203.09,279.69 202.64,279.51 202.19,279.31 C 201.73,279.12 201.31,278.89 200.81,278.69 C 200.31,278.48 199.77,278.28 199.19,278.08 C 198.60,277.88 197.98,277.68 197.31,277.48 C 196.65,277.29 195.94,277.10 195.19,276.91 C 194.44,276.72 193.65,276.53 192.81,276.34 C 191.98,276.16 191.10,275.98 190.19,275.80 C 189.27,275.62 188.31,275.44 187.31,275.27 C 186.31,275.09 185.27,274.92 184.19,274.75 C 183.10,274.58 181.90,274.42 180.81,274.25 C 179.72,274.08 178.66,273.90 177.63,273.73 C 176.61,273.55 175.61,273.37 174.65,273.18 C 173.69,272.99 172.76,272.80 171.86,272.61 C 170.96,272.42 170.10,272.22 169.27,272.02 C 168.43,271.81 167.63,271.61 166.87,271.40 C 166.10,271.19 165.37,270.98 164.66,270.76 C 163.96,270.54 163.29,270.32 162.66,270.09 C 162.02,269.87 161.41,269.63 160.84,269.41 C 160.28,269.18 159.75,268.95 159.26,268.73 C 158.77,268.50 158.31,268.28 157.90,268.05 C 157.48,267.83 157.11,267.61 156.77,267.39 C 156.43,267.17 156.12,266.95 155.86,266.73 C 155.60,266.52 155.37,266.30 155.18,266.09 C 154.99,265.87 154.84,265.66 154.73,265.45 C 154.61,265.23 154.54,265.02 154.50,264.81 C 154.46,264.60 154.48,264.39 154.50,264.19 C 154.52,263.98 154.57,263.78 154.63,263.59 C 154.70,263.39 154.79,263.20 154.90,263.01 C 155.01,262.82 155.14,262.63 155.30,262.45 C 155.45,262.27 155.63,262.10 155.83,261.92 C 156.03,261.75 156.25,261.58 156.49,261.41 C 156.74,261.25 157.00,261.09 157.29,260.93 C 157.58,260.77 157.89,260.62 158.22,260.47 C 158.55,260.32 158.86,260.18 159.28,260.03 C 159.70,259.88 160.19,259.72 160.74,259.55 C 161.30,259.39 161.92,259.22 162.60,259.04 C 163.29,258.86 164.04,258.68 164.86,258.48 C 165.68,258.29 166.56,258.10 167.52,257.89 C 168.47,257.69 169.49,257.48 170.57,257.26 C 171.65,257.04 172.81,256.82 174.02,256.59 C 175.24,256.36 176.52,256.12 177.88,255.88 C 179.23,255.63 180.77,255.37 182.12,255.12 C 183.48,254.88 184.77,254.63 186.00,254.39 C 187.23,254.15 188.40,253.91 189.50,253.67 C 190.60,253.43 191.65,253.20 192.62,252.97 C 193.60,252.74 194.52,252.51 195.38,252.28 C 196.23,252.05 197.02,251.83 197.75,251.61 C 198.48,251.39 199.15,251.17 199.75,250.95 C 200.35,250.74 200.90,250.52 201.38,250.31 C 201.85,250.10 202.21,249.88 202.62,249.69 C 203.04,249.49 203.44,249.31 203.84,249.14 C 204.24,248.97 204.64,248.82 205.03,248.67 C 205.42,248.53 205.81,248.40 206.19,248.28 C 206.57,248.16 206.94,248.06 207.31,247.97 C 207.68,247.88 208.05,247.80 208.41,247.73 C 208.77,247.67 209.12,247.62 209.47,247.58 C 209.82,247.54 210.16,247.51 210.50,247.50 C 210.84,247.49 211.18,247.49 211.50,247.50 C 211.82,247.51 212.12,247.52 212.41,247.55 C 212.69,247.57 212.96,247.60 213.22,247.64 C 213.47,247.68 213.71,247.73 213.94,247.78 C 214.16,247.84 214.37,247.90 214.56,247.97 C 214.76,248.04 214.93,248.12 215.09,248.20 C 215.26,248.29 215.40,248.38 215.53,248.48 C 215.66,248.59 215.78,248.70 215.88,248.81 C 215.97,248.93 216.03,249.07 216.12,249.19 C 216.22,249.30 216.34,249.41 216.47,249.50 C 216.60,249.59 216.74,249.68 216.91,249.75 C 217.07,249.82 217.24,249.89 217.44,249.94 C 217.63,249.99 217.84,250.03 218.06,250.06 C 218.29,250.09 218.53,250.11 218.78,250.12 C 219.04,250.14 219.31,250.14 219.59,250.12 C 219.88,250.11 220.18,250.09 220.50,250.06 C 220.82,250.03 221.17,249.98 221.50,249.94 C 221.83,249.89 222.17,249.85 222.50,249.80 C 222.83,249.75 223.17,249.70 223.50,249.64 C 223.83,249.59 224.17,249.53 224.50,249.47 C 224.83,249.41 225.17,249.35 225.50,249.28 C 225.83,249.22 226.17,249.15 226.50,249.08 C 226.83,249.01 227.17,248.93 227.50,248.86 C 227.83,248.78 228.17,248.71 228.50,248.62 C 228.83,248.54 229.16,248.47 229.50,248.38 C 229.84,248.28 230.18,248.18 230.53,248.08 C 230.88,247.97 231.23,247.86 231.59,247.73 C 231.95,247.61 232.32,247.48 232.69,247.34 C 233.06,247.21 233.43,247.06 233.81,246.91 C 234.19,246.75 234.58,246.59 234.97,246.42 C 235.36,246.25 235.76,246.08 236.16,245.89 C 236.56,245.71 236.96,245.51 237.38,245.31 C 237.79,245.11 238.22,244.89 238.62,244.69 C 239.03,244.48 239.41,244.28 239.78,244.08 C 240.15,243.88 240.51,243.68 240.84,243.48 C 241.18,243.29 241.51,243.10 241.81,242.91 C 242.12,242.72 242.41,242.53 242.69,242.34 C 242.96,242.16 243.22,241.98 243.47,241.80 C 243.71,241.62 243.94,241.44 244.16,241.27 C 244.37,241.09 244.57,240.92 244.75,240.75 C 244.93,240.58 245.08,240.40 245.25,240.25 C 245.42,240.10 245.60,239.96 245.78,239.83 C 245.96,239.70 246.15,239.59 246.34,239.48 C 246.54,239.38 246.73,239.29 246.94,239.22 C 247.14,239.14 247.35,239.08 247.56,239.03 C 247.78,238.98 247.99,238.95 248.22,238.92 C 248.44,238.90 248.67,238.89 248.91,238.89 C 249.14,238.89 249.38,238.91 249.62,238.94 C 249.87,238.97 250.06,239.04 250.38,239.06 C 250.69,239.09 251.07,239.09 251.52,239.08 C 251.96,239.07 252.47,239.03 253.05,238.98 C 253.62,238.93 254.26,238.87 254.97,238.78 C 255.67,238.70 256.45,238.59 257.28,238.47 C 258.12,238.35 259.02,238.21 259.98,238.05 C 260.95,237.89 261.98,237.71 263.08,237.52 C 264.17,237.32 265.34,237.11 266.56,236.88 C 267.79,236.64 269.22,236.37 270.44,236.12 C 271.66,235.88 272.80,235.64 273.88,235.41 C 274.95,235.17 275.95,234.94 276.88,234.72 C 277.80,234.49 278.66,234.28 279.44,234.06 C 280.22,233.85 280.93,233.64 281.56,233.44 C 282.20,233.23 282.76,233.04 283.25,232.84 C 283.74,232.65 284.16,232.46 284.50,232.28 C 284.84,232.10 285.11,231.92 285.31,231.75 C 285.51,231.58 285.56,231.42 285.69,231.25 C 285.81,231.08 285.93,230.90 286.05,230.73 C 286.18,230.55 286.30,230.37 286.41,230.18 C 286.53,229.99 286.65,229.80 286.77,229.61 C 286.88,229.42 287.00,229.22 287.11,229.02 C 287.22,228.81 287.33,228.61 287.45,228.40 C 287.56,228.19 287.67,227.98 287.77,227.76 C 287.88,227.54 287.99,227.32 288.09,227.09 C 288.20,226.87 288.33,226.62 288.41,226.41 C 288.49,226.19 288.54,225.98 288.57,225.79 C 288.60,225.60 288.61,225.41 288.59,225.24 C 288.57,225.07 288.52,224.91 288.45,224.77 C 288.38,224.62 288.29,224.48 288.17,224.36 C 288.05,224.24 287.91,224.12 287.74,224.02 C 287.57,223.92 287.38,223.83 287.16,223.76 C 286.95,223.68 286.70,223.62 286.44,223.56 C 286.17,223.51 285.81,223.48 285.56,223.44 C 285.31,223.39 285.10,223.35 284.93,223.30 C 284.76,223.26 284.63,223.21 284.54,223.16 C 284.45,223.12 284.40,223.07 284.39,223.02 C 284.38,222.96 284.41,222.91 284.48,222.86 C 284.56,222.81 284.67,222.75 284.82,222.70 C 284.97,222.64 285.17,222.58 285.40,222.52 C 285.63,222.46 285.90,222.40 286.22,222.34 C 286.53,222.28 286.93,222.25 287.28,222.16 C 287.64,222.06 287.99,221.94 288.35,221.79 C 288.71,221.64 289.07,221.45 289.43,221.24 C 289.79,221.03 290.15,220.79 290.52,220.52 C 290.88,220.24 291.24,219.94 291.61,219.61 C 291.98,219.28 292.34,218.92 292.71,218.52 C 293.08,218.13 293.45,217.71 293.82,217.26 C 294.19,216.81 294.56,216.32 294.94,215.81 C 295.31,215.30 295.69,214.70 296.06,214.19 C 296.44,213.67 296.81,213.19 297.19,212.73 C 297.56,212.28 297.94,211.85 298.31,211.45 C 298.69,211.05 299.06,210.68 299.44,210.34 C 299.81,210.00 300.19,209.69 300.56,209.41 C 300.94,209.12 301.31,208.87 301.69,208.64 C 302.06,208.41 302.44,208.22 302.81,208.05 C 303.19,207.88 303.56,207.74 303.94,207.62 C 304.31,207.51 304.71,207.44 305.06,207.38 C 305.42,207.31 305.75,207.25 306.05,207.21 C 306.36,207.17 306.65,207.14 306.91,207.13 C 307.18,207.12 307.42,207.12 307.64,207.14 C 307.86,207.16 308.06,207.19 308.23,207.23 C 308.41,207.28 308.56,207.34 308.70,207.41 C 308.83,207.49 308.94,207.58 309.02,207.68 C 309.11,207.78 309.18,207.90 309.22,208.03 C 309.26,208.16 309.27,208.29 309.28,208.47 C 309.29,208.65 309.28,208.87 309.26,209.12 C 309.24,209.37 309.20,209.65 309.15,209.98 C 309.10,210.30 309.03,210.65 308.95,211.05 C 308.87,211.44 308.78,211.87 308.67,212.33 C 308.56,212.79 308.44,213.29 308.30,213.82 C 308.17,214.35 308.02,214.92 307.85,215.52 C 307.69,216.13 307.51,216.76 307.31,217.44 C 307.12,218.11 306.88,218.89 306.69,219.56 C 306.50,220.23 306.32,220.86 306.16,221.45 C 306.01,222.03 305.87,222.58 305.74,223.09 C 305.62,223.59 305.51,224.06 305.42,224.48 C 305.33,224.91 305.26,225.30 305.20,225.64 C 305.15,225.99 305.11,226.29 305.09,226.55 C 305.06,226.82 305.06,227.04 305.07,227.23 C 305.08,227.41 305.11,227.55 305.16,227.66 C 305.20,227.76 305.27,227.79 305.34,227.84 C 305.42,227.90 305.50,227.94 305.60,227.98 C 305.70,228.01 305.81,228.04 305.93,228.05 C 306.05,228.07 306.18,228.08 306.33,228.08 C 306.47,228.08 306.63,228.07 306.80,228.05 C 306.96,228.03 307.14,228.00 307.34,227.96 C 307.53,227.92 307.73,227.88 307.95,227.82 C 308.16,227.76 308.39,227.70 308.62,227.62 C 308.86,227.55 309.13,227.47 309.38,227.38 C 309.62,227.28 309.85,227.17 310.07,227.04 C 310.29,226.91 310.51,226.77 310.71,226.62 C 310.92,226.46 311.11,226.29 311.30,226.11 C 311.48,225.93 311.66,225.73 311.83,225.52 C 312.00,225.30 312.15,225.08 312.30,224.84 C 312.45,224.60 312.60,224.34 312.73,224.07 C 312.86,223.80 312.98,223.52 313.09,223.22 C 313.21,222.92 313.30,222.58 313.41,222.28 C 313.51,221.98 313.61,221.70 313.72,221.42 C 313.82,221.15 313.93,220.89 314.03,220.64 C 314.14,220.39 314.24,220.16 314.34,219.94 C 314.45,219.72 314.55,219.51 314.66,219.31 C 314.76,219.12 314.86,218.93 314.97,218.77 C 315.07,218.60 315.18,218.44 315.28,218.30 C 315.39,218.15 315.49,218.02 315.59,217.91 C 315.70,217.79 315.80,217.69 315.91,217.59 C 316.01,217.50 316.12,217.40 316.23,217.32 C 316.33,217.24 316.44,217.16 316.55,217.09 C 316.67,217.01 316.78,216.95 316.89,216.89 C 317.00,216.83 317.12,216.78 317.23,216.73 C 317.35,216.69 317.47,216.65 317.59,216.62 C 317.70,216.58 317.82,216.56 317.95,216.54 C 318.07,216.52 318.19,216.51 318.31,216.50 C 318.44,216.49 318.55,216.47 318.69,216.50 C 318.82,216.53 318.97,216.59 319.13,216.68 C 319.29,216.77 319.46,216.89 319.65,217.04 C 319.83,217.19 320.03,217.37 320.23,217.58 C 320.44,217.79 320.66,218.03 320.89,218.30 C 321.12,218.57 321.36,218.87 321.62,219.20 C 321.87,219.52 322.14,219.88 322.41,220.27 C 322.69,220.66 322.98,221.08 323.28,221.53 C 323.58,221.98 323.93,222.51 324.22,222.97 C 324.51,223.43 324.77,223.87 325.01,224.29 C 325.25,224.71 325.46,225.11 325.65,225.49 C 325.84,225.87 326.00,226.24 326.14,226.58 C 326.28,226.92 326.39,227.24 326.48,227.55 C 326.57,227.85 326.64,228.13 326.68,228.40 C 326.72,228.66 326.74,228.91 326.73,229.13 C 326.72,229.36 326.68,229.56 326.62,229.75 C 326.57,229.94 326.45,230.09 326.38,230.25 C 326.30,230.41 326.24,230.57 326.18,230.73 C 326.12,230.88 326.08,231.03 326.04,231.18 C 326.00,231.33 325.97,231.47 325.95,231.61 C 325.93,231.75 325.92,231.88 325.92,232.02 C 325.92,232.15 325.93,232.27 325.95,232.40 C 325.96,232.52 325.99,232.64 326.02,232.76 C 326.06,232.87 326.10,232.99 326.16,233.09 C 326.21,233.20 326.26,233.31 326.34,233.41 C 326.43,233.50 326.54,233.60 326.68,233.68 C 326.82,233.76 326.98,233.84 327.16,233.91 C 327.35,233.99 327.56,234.05 327.80,234.11 C 328.03,234.17 328.29,234.22 328.58,234.27 C 328.86,234.31 329.17,234.35 329.51,234.38 C 329.84,234.42 330.20,234.44 330.59,234.46 C 330.97,234.48 331.38,234.49 331.81,234.50 C 332.25,234.51 332.71,234.48 333.19,234.50 C 333.66,234.52 334.15,234.57 334.66,234.64 C 335.16,234.71 335.68,234.80 336.22,234.92 C 336.76,235.04 337.31,235.18 337.88,235.34 C 338.44,235.51 339.03,235.70 339.62,235.91 C 340.22,236.12 340.84,236.35 341.47,236.61 C 342.10,236.87 342.74,237.15 343.41,237.45 C 344.07,237.76 344.74,238.09 345.44,238.44 C 346.13,238.79 346.84,239.21 347.56,239.56 C 348.28,239.92 349.01,240.26 349.75,240.58 C 350.49,240.90 351.24,241.20 352.00,241.48 C 352.76,241.77 353.53,242.03 354.31,242.28 C 355.09,242.53 355.89,242.76 356.69,242.97 C 357.49,243.18 358.30,243.37 359.12,243.55 C 359.95,243.72 360.78,243.88 361.62,244.02 C 362.47,244.15 363.32,244.27 364.19,244.38 C 365.05,244.48 365.99,244.54 366.81,244.62 C 367.64,244.71 368.41,244.80 369.13,244.90 C 369.86,244.99 370.53,245.09 371.15,245.20 C 371.77,245.30 372.34,245.40 372.86,245.52 C 373.38,245.63 373.85,245.74 374.27,245.86 C 374.68,245.98 375.05,246.10 375.37,246.23 C 375.68,246.35 375.95,246.48 376.16,246.62 C 376.38,246.75 376.54,246.89 376.66,247.03 C 376.77,247.17 376.79,247.32 376.84,247.47 C 376.90,247.62 376.96,247.78 377.01,247.95 C 377.06,248.11 377.11,248.28 377.15,248.46 C 377.19,248.64 377.23,248.82 377.27,249.02 C 377.30,249.21 377.33,249.40 377.36,249.61 C 377.39,249.81 377.41,250.02 377.43,250.24 C 377.45,250.46 377.46,250.68 377.48,250.91 C 377.49,251.14 377.50,251.38 377.50,251.62 C 377.50,251.87 377.51,252.14 377.50,252.38 C 377.49,252.61 377.48,252.84 377.47,253.06 C 377.45,253.28 377.43,253.49 377.41,253.69 C 377.38,253.89 377.35,254.07 377.31,254.25 C 377.28,254.43 377.23,254.59 377.19,254.75 C 377.14,254.91 377.09,255.05 377.03,255.19 C 376.97,255.32 376.91,255.45 376.84,255.56 C 376.78,255.68 376.70,255.78 376.62,255.88 C 376.55,255.97 376.45,256.04 376.38,256.12 C 376.30,256.21 376.24,256.30 376.19,256.39 C 376.14,256.48 376.09,256.58 376.06,256.67 C 376.03,256.77 376.01,256.87 376.00,256.97 C 375.99,257.07 375.99,257.17 376.00,257.28 C 376.01,257.39 376.03,257.50 376.06,257.61 C 376.09,257.72 376.14,257.84 376.19,257.95 C 376.24,258.07 376.30,258.19 376.38,258.31 C 376.45,258.43 376.55,258.55 376.62,258.69 C 376.70,258.83 376.78,258.98 376.84,259.16 C 376.91,259.33 376.97,259.52 377.03,259.72 C 377.09,259.92 377.14,260.14 377.19,260.38 C 377.23,260.61 377.28,260.86 377.31,261.12 C 377.35,261.39 377.38,261.67 377.41,261.97 C 377.43,262.27 377.45,262.58 377.47,262.91 C 377.48,263.23 377.49,263.58 377.50,263.94 C 377.51,264.30 377.51,264.70 377.50,265.06 C 377.49,265.42 377.48,265.77 377.45,266.09 C 377.43,266.42 377.40,266.73 377.36,267.03 C 377.32,267.33 377.27,267.61 377.22,267.88 C 377.16,268.14 377.10,268.39 377.03,268.62 C 376.96,268.86 376.88,269.08 376.80,269.28 C 376.71,269.48 376.62,269.67 376.52,269.84 C 376.41,270.02 376.30,270.17 376.19,270.31 C 376.07,270.45 375.92,270.57 375.81,270.69 C 375.70,270.81 375.61,270.93 375.53,271.05 C 375.45,271.16 375.39,271.28 375.34,271.39 C 375.30,271.50 375.27,271.61 375.25,271.72 C 375.23,271.83 375.23,271.93 375.25,272.03 C 375.27,272.13 375.30,272.23 375.34,272.33 C 375.39,272.42 375.45,272.52 375.53,272.61 C 375.61,272.70 375.70,272.79 375.81,272.88 C 375.92,272.96 376.07,273.02 376.19,273.12 C 376.30,273.23 376.41,273.35 376.50,273.48 C 376.59,273.62 376.68,273.78 376.75,273.95 C 376.82,274.13 376.89,274.32 376.94,274.53 C 376.99,274.74 377.03,274.97 377.06,275.22 C 377.09,275.47 377.11,275.73 377.12,276.02 C 377.14,276.30 377.14,276.60 377.12,276.92 C 377.11,277.24 377.09,277.58 377.06,277.94 C 377.03,278.29 377.03,278.70 376.94,279.06 C 376.85,279.42 376.70,279.76 376.51,280.09 C 376.31,280.41 376.07,280.72 375.77,281.01 C 375.48,281.30 375.13,281.57 374.73,281.83 C 374.34,282.08 373.89,282.32 373.39,282.55 C 372.89,282.77 372.34,282.98 371.74,283.16 C 371.14,283.35 370.49,283.52 369.79,283.68 C 369.09,283.83 368.33,283.97 367.53,284.09 C 366.73,284.21 365.81,284.29 364.97,284.41 C 364.12,284.53 363.29,284.67 362.46,284.82 C 361.63,284.98 360.82,285.15 360.01,285.34 C 359.20,285.52 358.40,285.73 357.61,285.95 C 356.82,286.18 356.04,286.42 355.27,286.67 C 354.49,286.93 353.73,287.20 352.98,287.49 C 352.22,287.78 351.48,288.09 350.74,288.41 C 350.01,288.74 349.28,289.08 348.56,289.44 C 347.85,289.80 347.13,290.21 346.44,290.56 C 345.74,290.91 345.06,291.24 344.39,291.55 C 343.72,291.85 343.07,292.13 342.42,292.39 C 341.78,292.65 341.15,292.88 340.53,293.09 C 339.91,293.30 339.31,293.49 338.72,293.66 C 338.13,293.82 337.55,293.96 336.98,294.08 C 336.42,294.20 335.87,294.29 335.33,294.36 C 334.79,294.43 334.26,294.48 333.75,294.50 C 333.24,294.52 332.72,294.49 332.25,294.50 C 331.78,294.51 331.33,294.52 330.91,294.54 C 330.50,294.56 330.11,294.58 329.74,294.62 C 329.38,294.65 329.04,294.69 328.73,294.73 C 328.43,294.78 328.14,294.83 327.89,294.89 C 327.64,294.95 327.41,295.01 327.21,295.09 C 327.01,295.16 326.84,295.24 326.70,295.32 C 326.55,295.40 326.43,295.50 326.34,295.59 C 326.25,295.69 326.21,295.80 326.16,295.91 C 326.10,296.01 326.06,296.13 326.02,296.24 C 325.99,296.36 325.96,296.48 325.95,296.60 C 325.93,296.73 325.92,296.85 325.92,296.98 C 325.92,297.12 325.93,297.25 325.95,297.39 C 325.97,297.53 326.00,297.67 326.04,297.82 C 326.08,297.97 326.12,298.12 326.18,298.27 C 326.24,298.43 326.30,298.59 326.38,298.75 C 326.45,298.91 326.56,299.07 326.62,299.25 C 326.69,299.43 326.74,299.62 326.78,299.83 C 326.82,300.03 326.84,300.25 326.84,300.48 C 326.85,300.72 326.84,300.96 326.81,301.22 C 326.79,301.48 326.74,301.75 326.69,302.03 C 326.63,302.32 326.56,302.61 326.47,302.92 C 326.38,303.23 326.28,303.55 326.16,303.89 C 326.04,304.23 325.90,304.58 325.75,304.94 C 325.60,305.30 325.42,305.70 325.25,306.06 C 325.08,306.42 324.92,306.77 324.76,307.10 C 324.60,307.43 324.43,307.75 324.27,308.05 C 324.11,308.36 323.95,308.65 323.80,308.92 C 323.64,309.20 323.48,309.46 323.33,309.70 C 323.17,309.95 323.02,310.18 322.87,310.40 C 322.71,310.62 322.56,310.82 322.41,311.01 C 322.26,311.20 322.12,311.37 321.97,311.53 C 321.82,311.69 321.68,311.84 321.53,311.97 C 321.38,312.10 321.22,312.21 321.06,312.30 C 320.90,312.39 320.73,312.46 320.56,312.52 C 320.39,312.57 320.21,312.61 320.03,312.62 C 319.85,312.64 319.66,312.64 319.47,312.62 C 319.28,312.61 319.08,312.57 318.88,312.52 C 318.67,312.46 318.46,312.39 318.25,312.30 C 318.04,312.21 317.82,312.10 317.59,311.97 C 317.37,311.84 317.13,311.69 316.91,311.53 C 316.68,311.38 316.46,311.21 316.25,311.03 C 316.04,310.85 315.83,310.67 315.62,310.47 C 315.42,310.27 315.22,310.06 315.03,309.84 C 314.84,309.62 314.65,309.40 314.47,309.16 C 314.29,308.92 314.11,308.67 313.94,308.41 C 313.77,308.15 313.60,307.88 313.44,307.59 C 313.28,307.31 313.12,307.02 312.97,306.72 C 312.82,306.42 312.68,306.08 312.53,305.78 C 312.38,305.49 312.23,305.21 312.07,304.95 C 311.91,304.68 311.75,304.44 311.59,304.21 C 311.42,303.98 311.25,303.77 311.08,303.58 C 310.90,303.38 310.73,303.21 310.55,303.05 C 310.37,302.89 310.18,302.74 309.99,302.62 C 309.80,302.49 309.61,302.38 309.41,302.29 C 309.22,302.20 309.02,302.12 308.81,302.06 C 308.61,302.00 308.39,301.97 308.19,301.94 C 307.99,301.90 307.80,301.87 307.62,301.85 C 307.44,301.83 307.26,301.81 307.10,301.80 C 306.94,301.80 306.79,301.79 306.64,301.80 C 306.50,301.80 306.36,301.81 306.23,301.83 C 306.11,301.85 305.99,301.87 305.88,301.90 C 305.77,301.93 305.68,301.96 305.59,302.01 C 305.50,302.05 305.42,302.10 305.34,302.16 C 305.27,302.21 305.20,302.24 305.16,302.34 C 305.11,302.44 305.08,302.58 305.07,302.76 C 305.06,302.93 305.06,303.15 305.09,303.40 C 305.11,303.65 305.15,303.94 305.20,304.27 C 305.26,304.59 305.33,304.96 305.42,305.36 C 305.51,305.76 305.62,306.20 305.74,306.68 C 305.87,307.16 306.01,307.67 306.16,308.23 C 306.32,308.78 306.50,309.37 306.69,310.00 C 306.88,310.63 307.12,311.37 307.31,312.00 C 307.51,312.63 307.69,313.24 307.85,313.80 C 308.02,314.37 308.17,314.91 308.30,315.41 C 308.44,315.92 308.56,316.39 308.67,316.83 C 308.78,317.27 308.87,317.67 308.95,318.05 C 309.03,318.42 309.10,318.76 309.15,319.07 C 309.20,319.38 309.24,319.65 309.26,319.90 C 309.28,320.14 309.29,320.35 309.28,320.53 C 309.27,320.71 309.26,320.83 309.22,320.97 C 309.18,321.10 309.12,321.23 309.04,321.34 C 308.96,321.45 308.86,321.55 308.74,321.63 C 308.62,321.72 308.49,321.80 308.33,321.86 C 308.17,321.92 307.99,321.98 307.80,322.02 C 307.60,322.06 307.38,322.08 307.15,322.10 C 306.91,322.12 306.66,322.12 306.38,322.12 C 306.11,322.11 305.81,322.09 305.50,322.06 Z" />
    </clipPath>
  </defs>
  <path d="M 305.50,322.06 C 305.19,322.03 304.84,322.01 304.50,321.94 C 304.16,321.86 303.82,321.75 303.47,321.61 C 303.12,321.47 302.77,321.29 302.41,321.08 C 302.05,320.87 301.68,320.62 301.31,320.34 C 300.94,320.07 300.57,319.75 300.19,319.41 C 299.81,319.06 299.42,318.68 299.03,318.27 C 298.64,317.85 298.24,317.40 297.84,316.92 C 297.44,316.44 297.04,315.92 296.62,315.38 C 296.21,314.83 295.79,314.17 295.38,313.62 C 294.96,313.08 294.55,312.56 294.15,312.09 C 293.74,311.61 293.34,311.17 292.95,310.76 C 292.55,310.35 292.15,309.98 291.77,309.64 C 291.38,309.30 290.99,309.00 290.61,308.73 C 290.23,308.47 289.85,308.24 289.48,308.04 C 289.10,307.84 288.73,307.68 288.37,307.55 C 288.00,307.43 287.64,307.34 287.28,307.28 C 286.92,307.23 286.55,307.24 286.22,307.22 C 285.89,307.20 285.58,307.17 285.30,307.14 C 285.01,307.11 284.75,307.08 284.52,307.05 C 284.28,307.01 284.07,306.98 283.88,306.94 C 283.68,306.90 283.52,306.86 283.38,306.81 C 283.23,306.77 283.11,306.72 283.02,306.67 C 282.92,306.62 282.85,306.57 282.80,306.52 C 282.75,306.46 282.72,306.40 282.72,306.34 C 282.72,306.28 282.74,306.22 282.78,306.16 C 282.82,306.10 282.87,306.04 282.94,305.98 C 283.01,305.93 283.09,305.88 283.19,305.83 C 283.29,305.78 283.40,305.73 283.53,305.69 C 283.66,305.64 283.81,305.60 283.97,305.56 C 284.13,305.52 284.31,305.49 284.50,305.45 C 284.69,305.42 284.90,305.39 285.12,305.36 C 285.35,305.33 285.59,305.30 285.84,305.28 C 286.10,305.26 286.42,305.26 286.66,305.22 C 286.90,305.17 287.10,305.11 287.28,305.02 C 287.46,304.92 287.60,304.81 287.72,304.67 C 287.83,304.53 287.92,304.37 287.97,304.19 C 288.02,304.00 288.04,303.79 288.03,303.56 C 288.02,303.33 287.98,303.08 287.91,302.80 C 287.83,302.52 287.73,302.22 287.59,301.89 C 287.46,301.57 287.29,301.22 287.09,300.84 C 286.90,300.47 286.69,300.04 286.41,299.66 C 286.12,299.27 285.78,298.90 285.38,298.54 C 284.99,298.18 284.53,297.83 284.02,297.49 C 283.51,297.15 282.95,296.83 282.33,296.52 C 281.71,296.20 281.03,295.90 280.30,295.61 C 279.56,295.32 278.77,295.04 277.93,294.77 C 277.08,294.51 276.18,294.25 275.23,294.01 C 274.27,293.76 273.26,293.53 272.19,293.31 C 271.12,293.09 269.90,292.88 268.81,292.69 C 267.73,292.49 266.69,292.31 265.69,292.14 C 264.69,291.97 263.73,291.82 262.81,291.67 C 261.90,291.53 261.02,291.40 260.19,291.28 C 259.35,291.16 258.56,291.06 257.81,290.97 C 257.06,290.88 256.35,290.80 255.69,290.73 C 255.02,290.67 254.40,290.62 253.81,290.58 C 253.23,290.54 252.69,290.51 252.19,290.50 C 251.69,290.49 251.25,290.51 250.81,290.50 C 250.38,290.49 249.96,290.47 249.56,290.44 C 249.17,290.41 248.79,290.36 248.44,290.31 C 248.08,290.26 247.75,290.20 247.44,290.12 C 247.12,290.05 246.83,289.97 246.56,289.88 C 246.29,289.78 246.04,289.68 245.81,289.56 C 245.58,289.45 245.38,289.32 245.19,289.19 C 245.00,289.05 244.83,288.91 244.69,288.75 C 244.54,288.59 244.47,288.42 244.31,288.25 C 244.16,288.08 243.98,287.90 243.77,287.72 C 243.55,287.54 243.32,287.35 243.05,287.16 C 242.78,286.96 242.48,286.77 242.16,286.56 C 241.83,286.36 241.48,286.15 241.09,285.94 C 240.71,285.72 240.30,285.51 239.86,285.28 C 239.42,285.06 238.95,284.83 238.45,284.59 C 237.96,284.36 237.43,284.12 236.88,283.88 C 236.32,283.63 235.71,283.36 235.12,283.12 C 234.54,282.89 233.97,282.66 233.39,282.45 C 232.82,282.24 232.24,282.04 231.67,281.86 C 231.10,281.67 230.53,281.50 229.97,281.34 C 229.40,281.18 228.84,281.04 228.28,280.91 C 227.72,280.77 227.16,280.65 226.61,280.55 C 226.05,280.44 225.50,280.35 224.95,280.27 C 224.40,280.18 223.86,280.12 223.31,280.06 C 222.77,280.01 222.20,279.97 221.69,279.94 C 221.18,279.90 220.71,279.88 220.27,279.86 C 219.83,279.84 219.42,279.83 219.05,279.83 C 218.67,279.83 218.34,279.83 218.03,279.84 C 217.73,279.86 217.46,279.88 217.22,279.91 C 216.98,279.93 216.78,279.97 216.61,280.02 C 216.44,280.06 216.30,280.11 216.20,280.17 C 216.10,280.23 216.03,280.30 216.00,280.38 C 215.97,280.45 216.02,280.55 216.00,280.62 C 215.98,280.70 215.93,280.78 215.86,280.84 C 215.79,280.91 215.70,280.97 215.58,281.03 C 215.46,281.09 215.32,281.14 215.16,281.19 C 214.99,281.23 214.80,281.28 214.59,281.31 C 214.38,281.35 214.15,281.38 213.89,281.41 C 213.63,281.43 213.35,281.45 213.05,281.47 C 212.74,281.48 212.41,281.49 212.06,281.50 C 211.71,281.51 211.32,281.51 210.94,281.50 C 210.56,281.49 210.17,281.46 209.78,281.42 C 209.39,281.38 208.99,281.33 208.59,281.27 C 208.19,281.20 207.79,281.12 207.38,281.03 C 206.96,280.94 206.55,280.84 206.12,280.72 C 205.70,280.60 205.28,280.47 204.84,280.33 C 204.41,280.18 203.97,280.03 203.53,279.86 C 203.09,279.69 202.64,279.51 202.19,279.31 C 201.73,279.12 201.31,278.89 200.81,278.69 C 200.31,278.48 199.77,278.28 199.19,278.08 C 198.60,277.88 197.98,277.68 197.31,277.48 C 196.65,277.29 195.94,277.10 195.19,276.91 C 194.44,276.72 193.65,276.53 192.81,276.34 C 191.98,276.16 191.10,275.98 190.19,275.80 C 189.27,275.62 188.31,275.44 187.31,275.27 C 186.31,275.09 185.27,274.92 184.19,274.75 C 183.10,274.58 181.90,274.42 180.81,274.25 C 179.72,274.08 178.66,273.90 177.63,273.73 C 176.61,273.55 175.61,273.37 174.65,273.18 C 173.69,272.99 172.76,272.80 171.86,272.61 C 170.96,272.42 170.10,272.22 169.27,272.02 C 168.43,271.81 167.63,271.61 166.87,271.40 C 166.10,271.19 165.37,270.98 164.66,270.76 C 163.96,270.54 163.29,270.32 162.66,270.09 C 162.02,269.87 161.41,269.63 160.84,269.41 C 160.28,269.18 159.75,268.95 159.26,268.73 C 158.77,268.50 158.31,268.28 157.90,268.05 C 157.48,267.83 157.11,267.61 156.77,267.39 C 156.43,267.17 156.12,266.95 155.86,266.73 C 155.60,266.52 155.37,266.30 155.18,266.09 C 154.99,265.87 154.84,265.66 154.73,265.45 C 154.61,265.23 154.54,265.02 154.50,264.81 C 154.46,264.60 154.48,264.39 154.50,264.19 C 154.52,263.98 154.57,263.78 154.63,263.59 C 154.70,263.39 154.79,263.20 154.90,263.01 C 155.01,262.82 155.14,262.63 155.30,262.45 C 155.45,262.27 155.63,262.10 155.83,261.92 C 156.03,261.75 156.25,261.58 156.49,261.41 C 156.74,261.25 157.00,261.09 157.29,260.93 C 157.58,260.77 157.89,260.62 158.22,260.47 C 158.55,260.32 158.86,260.18 159.28,260.03 C 159.70,259.88 160.19,259.72 160.74,259.55 C 161.30,259.39 161.92,259.22 162.60,259.04 C 163.29,258.86 164.04,258.68 164.86,258.48 C 165.68,258.29 166.56,258.10 167.52,257.89 C 168.47,257.69 169.49,257.48 170.57,257.26 C 171.65,257.04 172.81,256.82 174.02,256.59 C 175.24,256.36 176.52,256.12 177.88,255.88 C 179.23,255.63 180.77,255.37 182.12,255.12 C 183.48,254.88 184.77,254.63 186.00,254.39 C 187.23,254.15 188.40,253.91 189.50,253.67 C 190.60,253.43 191.65,253.20 192.62,252.97 C 193.60,252.74 194.52,252.51 195.38,252.28 C 196.23,252.05 197.02,251.83 197.75,251.61 C 198.48,251.39 199.15,251.17 199.75,250.95 C 200.35,250.74 200.90,250.52 201.38,250.31 C 201.85,250.10 202.21,249.88 202.62,249.69 C 203.04,249.49 203.44,249.31 203.84,249.14 C 204.24,248.97 204.64,248.82 205.03,248.67 C 205.42,248.53 205.81,248.40 206.19,248.28 C 206.57,248.16 206.94,248.06 207.31,247.97 C 207.68,247.88 208.05,247.80 208.41,247.73 C 208.77,247.67 209.12,247.62 209.47,247.58 C 209.82,247.54 210.16,247.51 210.50,247.50 C 210.84,247.49 211.18,247.49 211.50,247.50 C 211.82,247.51 212.12,247.52 212.41,247.55 C 212.69,247.57 212.96,247.60 213.22,247.64 C 213.47,247.68 213.71,247.73 213.94,247.78 C 214.16,247.84 214.37,247.90 214.56,247.97 C 214.76,248.04 214.93,248.12 215.09,248.20 C 215.26,248.29 215.40,248.38 215.53,248.48 C 215.66,248.59 215.78,248.70 215.88,248.81 C 215.97,248.93 216.03,249.07 216.12,249.19 C 216.22,249.30 216.34,249.41 216.47,249.50 C 216.60,249.59 216.74,249.68 216.91,249.75 C 217.07,249.82 217.24,249.89 217.44,249.94 C 217.63,249.99 217.84,250.03 218.06,250.06 C 218.29,250.09 218.53,250.11 218.78,250.12 C 219.04,250.14 219.31,250.14 219.59,250.12 C 219.88,250.11 220.18,250.09 220.50,250.06 C 220.82,250.03 221.17,249.98 221.50,249.94 C 221.83,249.89 222.17,249.85 222.50,249.80 C 222.83,249.75 223.17,249.70 223.50,249.64 C 223.83,249.59 224.17,249.53 224.50,249.47 C 224.83,249.41 225.17,249.35 225.50,249.28 C 225.83,249.22 226.17,249.15 226.50,249.08 C 226.83,249.01 227.17,248.93 227.50,248.86 C 227.83,248.78 228.17,248.71 228.50,248.62 C 228.83,248.54 229.16,248.47 229.50,248.38 C 229.84,248.28 230.18,248.18 230.53,248.08 C 230.88,247.97 231.23,247.86 231.59,247.73 C 231.95,247.61 232.32,247.48 232.69,247.34 C 233.06,247.21 233.43,247.06 233.81,246.91 C 234.19,246.75 234.58,246.59 234.97,246.42 C 235.36,246.25 235.76,246.08 236.16,245.89 C 236.56,245.71 236.96,245.51 237.38,245.31 C 237.79,245.11 238.22,244.89 238.62,244.69 C 239.03,244.48 239.41,244.28 239.78,244.08 C 240.15,243.88 240.51,243.68 240.84,243.48 C 241.18,243.29 241.51,243.10 241.81,242.91 C 242.12,242.72 242.41,242.53 242.69,242.34 C 242.96,242.16 243.22,241.98 243.47,241.80 C 243.71,241.62 243.94,241.44 244.16,241.27 C 244.37,241.09 244.57,240.92 244.75,240.75 C 244.93,240.58 245.08,240.40 245.25,240.25 C 245.42,240.10 245.60,239.96 245.78,239.83 C 245.96,239.70 246.15,239.59 246.34,239.48 C 246.54,239.38 246.73,239.29 246.94,239.22 C 247.14,239.14 247.35,239.08 247.56,239.03 C 247.78,238.98 247.99,238.95 248.22,238.92 C 248.44,238.90 248.67,238.89 248.91,238.89 C 249.14,238.89 249.38,238.91 249.62,238.94 C 249.87,238.97 250.06,239.04 250.38,239.06 C 250.69,239.09 251.07,239.09 251.52,239.08 C 251.96,239.07 252.47,239.03 253.05,238.98 C 253.62,238.93 254.26,238.87 254.97,238.78 C 255.67,238.70 256.45,238.59 257.28,238.47 C 258.12,238.35 259.02,238.21 259.98,238.05 C 260.95,237.89 261.98,237.71 263.08,237.52 C 264.17,237.32 265.34,237.11 266.56,236.88 C 267.79,236.64 269.22,236.37 270.44,236.12 C 271.66,235.88 272.80,235.64 273.88,235.41 C 274.95,235.17 275.95,234.94 276.88,234.72 C 277.80,234.49 278.66,234.28 279.44,234.06 C 280.22,233.85 280.93,233.64 281.56,233.44 C 282.20,233.23 282.76,233.04 283.25,232.84 C 283.74,232.65 284.16,232.46 284.50,232.28 C 284.84,232.10 285.11,231.92 285.31,231.75 C 285.51,231.58 285.56,231.42 285.69,231.25 C 285.81,231.08 285.93,230.90 286.05,230.73 C 286.18,230.55 286.30,230.37 286.41,230.18 C 286.53,229.99 286.65,229.80 286.77,229.61 C 286.88,229.42 287.00,229.22 287.11,229.02 C 287.22,228.81 287.33,228.61 287.45,228.40 C 287.56,228.19 287.67,227.98 287.77,227.76 C 287.88,227.54 287.99,227.32 288.09,227.09 C 288.20,226.87 288.33,226.62 288.41,226.41 C 288.49,226.19 288.54,225.98 288.57,225.79 C 288.60,225.60 288.61,225.41 288.59,225.24 C 288.57,225.07 288.52,224.91 288.45,224.77 C 288.38,224.62 288.29,224.48 288.17,224.36 C 288.05,224.24 287.91,224.12 287.74,224.02 C 287.57,223.92 287.38,223.83 287.16,223.76 C 286.95,223.68 286.70,223.62 286.44,223.56 C 286.17,223.51 285.81,223.48 285.56,223.44 C 285.31,223.39 285.10,223.35 284.93,223.30 C 284.76,223.26 284.63,223.21 284.54,223.16 C 284.45,223.12 284.40,223.07 284.39,223.02 C 284.38,222.96 284.41,222.91 284.48,222.86 C 284.56,222.81 284.67,222.75 284.82,222.70 C 284.97,222.64 285.17,222.58 285.40,222.52 C 285.63,222.46 285.90,222.40 286.22,222.34 C 286.53,222.28 286.93,222.25 287.28,222.16 C 287.64,222.06 287.99,221.94 288.35,221.79 C 288.71,221.64 289.07,221.45 289.43,221.24 C 289.79,221.03 290.15,220.79 290.52,220.52 C 290.88,220.24 291.24,219.94 291.61,219.61 C 291.98,219.28 292.34,218.92 292.71,218.52 C 293.08,218.13 293.45,217.71 293.82,217.26 C 294.19,216.81 294.56,216.32 294.94,215.81 C 295.31,215.30 295.69,214.70 296.06,214.19 C 296.44,213.67 296.81,213.19 297.19,212.73 C 297.56,212.28 297.94,211.85 298.31,211.45 C 298.69,211.05 299.06,210.68 299.44,210.34 C 299.81,210.00 300.19,209.69 300.56,209.41 C 300.94,209.12 301.31,208.87 301.69,208.64 C 302.06,208.41 302.44,208.22 302.81,208.05 C 303.19,207.88 303.56,207.74 303.94,207.62 C 304.31,207.51 304.71,207.44 305.06,207.38 C 305.42,207.31 305.75,207.25 306.05,207.21 C 306.36,207.17 306.65,207.14 306.91,207.13 C 307.18,207.12 307.42,207.12 307.64,207.14 C 307.86,207.16 308.06,207.19 308.23,207.23 C 308.41,207.28 308.56,207.34 308.70,207.41 C 308.83,207.49 308.94,207.58 309.02,207.68 C 309.11,207.78 309.18,207.90 309.22,208.03 C 309.26,208.16 309.27,208.29 309.28,208.47 C 309.29,208.65 309.28,208.87 309.26,209.12 C 309.24,209.37 309.20,209.65 309.15,209.98 C 309.10,210.30 309.03,210.65 308.95,211.05 C 308.87,211.44 308.78,211.87 308.67,212.33 C 308.56,212.79 308.44,213.29 308.30,213.82 C 308.17,214.35 308.02,214.92 307.85,215.52 C 307.69,216.13 307.51,216.76 307.31,217.44 C 307.12,218.11 306.88,218.89 306.69,219.56 C 306.50,220.23 306.32,220.86 306.16,221.45 C 306.01,222.03 305.87,222.58 305.74,223.09 C 305.62,223.59 305.51,224.06 305.42,224.48 C 305.33,224.91 305.26,225.30 305.20,225.64 C 305.15,225.99 305.11,226.29 305.09,226.55 C 305.06,226.82 305.06,227.04 305.07,227.23 C 305.08,227.41 305.11,227.55 305.16,227.66 C 305.20,227.76 305.27,227.79 305.34,227.84 C 305.42,227.90 305.50,227.94 305.60,227.98 C 305.70,228.01 305.81,228.04 305.93,228.05 C 306.05,228.07 306.18,228.08 306.33,228.08 C 306.47,228.08 306.63,228.07 306.80,228.05 C 306.96,228.03 307.14,228.00 307.34,227.96 C 307.53,227.92 307.73,227.88 307.95,227.82 C 308.16,227.76 308.39,227.70 308.62,227.62 C 308.86,227.55 309.13,227.47 309.38,227.38 C 309.62,227.28 309.85,227.17 310.07,227.04 C 310.29,226.91 310.51,226.77 310.71,226.62 C 310.92,226.46 311.11,226.29 311.30,226.11 C 311.48,225.93 311.66,225.73 311.83,225.52 C 312.00,225.30 312.15,225.08 312.30,224.84 C 312.45,224.60 312.60,224.34 312.73,224.07 C 312.86,223.80 312.98,223.52 313.09,223.22 C 313.21,222.92 313.30,222.58 313.41,222.28 C 313.51,221.98 313.61,221.70 313.72,221.42 C 313.82,221.15 313.93,220.89 314.03,220.64 C 314.14,220.39 314.24,220.16 314.34,219.94 C 314.45,219.72 314.55,219.51 314.66,219.31 C 314.76,219.12 314.86,218.93 314.97,218.77 C 315.07,218.60 315.18,218.44 315.28,218.30 C 315.39,218.15 315.49,218.02 315.59,217.91 C 315.70,217.79 315.80,217.69 315.91,217.59 C 316.01,217.50 316.12,217.40 316.23,217.32 C 316.33,217.24 316.44,217.16 316.55,217.09 C 316.67,217.01 316.78,216.95 316.89,216.89 C 317.00,216.83 317.12,216.78 317.23,216.73 C 317.35,216.69 317.47,216.65 317.59,216.62 C 317.70,216.58 317.82,216.56 317.95,216.54 C 318.07,216.52 318.19,216.51 318.31,216.50 C 318.44,216.49 318.55,216.47 318.69,216.50 C 318.82,216.53 318.97,216.59 319.13,216.68 C 319.29,216.77 319.46,216.89 319.65,217.04 C 319.83,217.19 320.03,217.37 320.23,217.58 C 320.44,217.79 320.66,218.03 320.89,218.30 C 321.12,218.57 321.36,218.87 321.62,219.20 C 321.87,219.52 322.14,219.88 322.41,220.27 C 322.69,220.66 322.98,221.08 323.28,221.53 C 323.58,221.98 323.93,222.51 324.22,222.97 C 324.51,223.43 324.77,223.87 325.01,224.29 C 325.25,224.71 325.46,225.11 325.65,225.49 C 325.84,225.87 326.00,226.24 326.14,226.58 C 326.28,226.92 326.39,227.24 326.48,227.55 C 326.57,227.85 326.64,228.13 326.68,228.40 C 326.72,228.66 326.74,228.91 326.73,229.13 C 326.72,229.36 326.68,229.56 326.62,229.75 C 326.57,229.94 326.45,230.09 326.38,230.25 C 326.30,230.41 326.24,230.57 326.18,230.73 C 326.12,230.88 326.08,231.03 326.04,231.18 C 326.00,231.33 325.97,231.47 325.95,231.61 C 325.93,231.75 325.92,231.88 325.92,232.02 C 325.92,232.15 325.93,232.27 325.95,232.40 C 325.96,232.52 325.99,232.64 326.02,232.76 C 326.06,232.87 326.10,232.99 326.16,233.09 C 326.21,233.20 326.26,233.31 326.34,233.41 C 326.43,233.50 326.54,233.60 326.68,233.68 C 326.82,233.76 326.98,233.84 327.16,233.91 C 327.35,233.99 327.56,234.05 327.80,234.11 C 328.03,234.17 328.29,234.22 328.58,234.27 C 328.86,234.31 329.17,234.35 329.51,234.38 C 329.84,234.42 330.20,234.44 330.59,234.46 C 330.97,234.48 331.38,234.49 331.81,234.50 C 332.25,234.51 332.71,234.48 333.19,234.50 C 333.66,234.52 334.15,234.57 334.66,234.64 C 335.16,234.71 335.68,234.80 336.22,234.92 C 336.76,235.04 337.31,235.18 337.88,235.34 C 338.44,235.51 339.03,235.70 339.62,235.91 C 340.22,236.12 340.84,236.35 341.47,236.61 C 342.10,236.87 342.74,237.15 343.41,237.45 C 344.07,237.76 344.74,238.09 345.44,238.44 C 346.13,238.79 346.84,239.21 347.56,239.56 C 348.28,239.92 349.01,240.26 349.75,240.58 C 350.49,240.90 351.24,241.20 352.00,241.48 C 352.76,241.77 353.53,242.03 354.31,242.28 C 355.09,242.53 355.89,242.76 356.69,242.97 C 357.49,243.18 358.30,243.37 359.12,243.55 C 359.95,243.72 360.78,243.88 361.62,244.02 C 362.47,244.15 363.32,244.27 364.19,244.38 C 365.05,244.48 365.99,244.54 366.81,244.62 C 367.64,244.71 368.41,244.80 369.13,244.90 C 369.86,244.99 370.53,245.09 371.15,245.20 C 371.77,245.30 372.34,245.40 372.86,245.52 C 373.38,245.63 373.85,245.74 374.27,245.86 C 374.68,245.98 375.05,246.10 375.37,246.23 C 375.68,246.35 375.95,246.48 376.16,246.62 C 376.38,246.75 376.54,246.89 376.66,247.03 C 376.77,247.17 376.79,247.32 376.84,247.47 C 376.90,247.62 376.96,247.78 377.01,247.95 C 377.06,248.11 377.11,248.28 377.15,248.46 C 377.19,248.64 377.23,248.82 377.27,249.02 C 377.30,249.21 377.33,249.40 377.36,249.61 C 377.39,249.81 377.41,250.02 377.43,250.24 C 377.45,250.46 377.46,250.68 377.48,250.91 C 377.49,251.14 377.50,251.38 377.50,251.62 C 377.50,251.87 377.51,252.14 377.50,252.38 C 377.49,252.61 377.48,252.84 377.47,253.06 C 377.45,253.28 377.43,253.49 377.41,253.69 C 377.38,253.89 377.35,254.07 377.31,254.25 C 377.28,254.43 377.23,254.59 377.19,254.75 C 377.14,254.91 377.09,255.05 377.03,255.19 C 376.97,255.32 376.91,255.45 376.84,255.56 C 376.78,255.68 376.70,255.78 376.62,255.88 C 376.55,255.97 376.45,256.04 376.38,256.12 C 376.30,256.21 376.24,256.30 376.19,256.39 C 376.14,256.48 376.09,256.58 376.06,256.67 C 376.03,256.77 376.01,256.87 376.00,256.97 C 375.99,257.07 375.99,257.17 376.00,257.28 C 376.01,257.39 376.03,257.50 376.06,257.61 C 376.09,257.72 376.14,257.84 376.19,257.95 C 376.24,258.07 376.30,258.19 376.38,258.31 C 376.45,258.43 376.55,258.55 376.62,258.69 C 376.70,258.83 376.78,258.98 376.84,259.16 C 376.91,259.33 376.97,259.52 377.03,259.72 C 377.09,259.92 377.14,260.14 377.19,260.38 C 377.23,260.61 377.28,260.86 377.31,261.12 C 377.35,261.39 377.38,261.67 377.41,261.97 C 377.43,262.27 377.45,262.58 377.47,262.91 C 377.48,263.23 377.49,263.58 377.50,263.94 C 377.51,264.30 377.51,264.70 377.50,265.06 C 377.49,265.42 377.48,265.77 377.45,266.09 C 377.43,266.42 377.40,266.73 377.36,267.03 C 377.32,267.33 377.27,267.61 377.22,267.88 C 377.16,268.14 377.10,268.39 377.03,268.62 C 376.96,268.86 376.88,269.08 376.80,269.28 C 376.71,269.48 376.62,269.67 376.52,269.84 C 376.41,270.02 376.30,270.17 376.19,270.31 C 376.07,270.45 375.92,270.57 375.81,270.69 C 375.70,270.81 375.61,270.93 375.53,271.05 C 375.45,271.16 375.39,271.28 375.34,271.39 C 375.30,271.50 375.27,271.61 375.25,271.72 C 375.23,271.83 375.23,271.93 375.25,272.03 C 375.27,272.13 375.30,272.23 375.34,272.33 C 375.39,272.42 375.45,272.52 375.53,272.61 C 375.61,272.70 375.70,272.79 375.81,272.88 C 375.92,272.96 376.07,273.02 376.19,273.12 C 376.30,273.23 376.41,273.35 376.50,273.48 C 376.59,273.62 376.68,273.78 376.75,273.95 C 376.82,274.13 376.89,274.32 376.94,274.53 C 376.99,274.74 377.03,274.97 377.06,275.22 C 377.09,275.47 377.11,275.73 377.12,276.02 C 377.14,276.30 377.14,276.60 377.12,276.92 C 377.11,277.24 377.09,277.58 377.06,277.94 C 377.03,278.29 377.03,278.70 376.94,279.06 C 376.85,279.42 376.70,279.76 376.51,280.09 C 376.31,280.41 376.07,280.72 375.77,281.01 C 375.48,281.30 375.13,281.57 374.73,281.83 C 374.34,282.08 373.89,282.32 373.39,282.55 C 372.89,282.77 372.34,282.98 371.74,283.16 C 371.14,283.35 370.49,283.52 369.79,283.68 C 369.09,283.83 368.33,283.97 367.53,284.09 C 366.73,284.21 365.81,284.29 364.97,284.41 C 364.12,284.53 363.29,284.67 362.46,284.82 C 361.63,284.98 360.82,285.15 360.01,285.34 C 359.20,285.52 358.40,285.73 357.61,285.95 C 356.82,286.18 356.04,286.42 355.27,286.67 C 354.49,286.93 353.73,287.20 352.98,287.49 C 352.22,287.78 351.48,288.09 350.74,288.41 C 350.01,288.74 349.28,289.08 348.56,289.44 C 347.85,289.80 347.13,290.21 346.44,290.56 C 345.74,290.91 345.06,291.24 344.39,291.55 C 343.72,291.85 343.07,292.13 342.42,292.39 C 341.78,292.65 341.15,292.88 340.53,293.09 C 339.91,293.30 339.31,293.49 338.72,293.66 C 338.13,293.82 337.55,293.96 336.98,294.08 C 336.42,294.20 335.87,294.29 335.33,294.36 C 334.79,294.43 334.26,294.48 333.75,294.50 C 333.24,294.52 332.72,294.49 332.25,294.50 C 331.78,294.51 331.33,294.52 330.91,294.54 C 330.50,294.56 330.11,294.58 329.74,294.62 C 329.38,294.65 329.04,294.69 328.73,294.73 C 328.43,294.78 328.14,294.83 327.89,294.89 C 327.64,294.95 327.41,295.01 327.21,295.09 C 327.01,295.16 326.84,295.24 326.70,295.32 C 326.55,295.40 326.43,295.50 326.34,295.59 C 326.25,295.69 326.21,295.80 326.16,295.91 C 326.10,296.01 326.06,296.13 326.02,296.24 C 325.99,296.36 325.96,296.48 325.95,296.60 C 325.93,296.73 325.92,296.85 325.92,296.98 C 325.92,297.12 325.93,297.25 325.95,297.39 C 325.97,297.53 326.00,297.67 326.04,297.82 C 326.08,297.97 326.12,298.12 326.18,298.27 C 326.24,298.43 326.30,298.59 326.38,298.75 C 326.45,298.91 326.56,299.07 326.62,299.25 C 326.69,299.43 326.74,299.62 326.78,299.83 C 326.82,300.03 326.84,300.25 326.84,300.48 C 326.85,300.72 326.84,300.96 326.81,301.22 C 326.79,301.48 326.74,301.75 326.69,302.03 C 326.63,302.32 326.56,302.61 326.47,302.92 C 326.38,303.23 326.28,303.55 326.16,303.89 C 326.04,304.23 325.90,304.58 325.75,304.94 C 325.60,305.30 325.42,305.70 325.25,306.06 C 325.08,306.42 324.92,306.77 324.76,307.10 C 324.60,307.43 324.43,307.75 324.27,308.05 C 324.11,308.36 323.95,308.65 323.80,308.92 C 323.64,309.20 323.48,309.46 323.33,309.70 C 323.17,309.95 323.02,310.18 322.87,310.40 C 322.71,310.62 322.56,310.82 322.41,311.01 C 322.26,311.20 322.12,311.37 321.97,311.53 C 321.82,311.69 321.68,311.84 321.53,311.97 C 321.38,312.10 321.22,312.21 321.06,312.30 C 320.90,312.39 320.73,312.46 320.56,312.52 C 320.39,312.57 320.21,312.61 320.03,312.62 C 319.85,312.64 319.66,312.64 319.47,312.62 C 319.28,312.61 319.08,312.57 318.88,312.52 C 318.67,312.46 318.46,312.39 318.25,312.30 C 318.04,312.21 317.82,312.10 317.59,311.97 C 317.37,311.84 317.13,311.69 316.91,311.53 C 316.68,311.38 316.46,311.21 316.25,311.03 C 316.04,310.85 315.83,310.67 315.62,310.47 C 315.42,310.27 315.22,310.06 315.03,309.84 C 314.84,309.62 314.65,309.40 314.47,309.16 C 314.29,308.92 314.11,308.67 313.94,308.41 C 313.77,308.15 313.60,307.88 313.44,307.59 C 313.28,307.31 313.12,307.02 312.97,306.72 C 312.82,306.42 312.68,306.08 312.53,305.78 C 312.38,305.49 312.23,305.21 312.07,304.95 C 311.91,304.68 311.75,304.44 311.59,304.21 C 311.42,303.98 311.25,303.77 311.08,303.58 C 310.90,303.38 310.73,303.21 310.55,303.05 C 310.37,302.89 310.18,302.74 309.99,302.62 C 309.80,302.49 309.61,302.38 309.41,302.29 C 309.22,302.20 309.02,302.12 308.81,302.06 C 308.61,302.00 308.39,301.97 308.19,301.94 C 307.99,301.90 307.80,301.87 307.62,301.85 C 307.44,301.83 307.26,301.81 307.10,301.80 C 306.94,301.80 306.79,301.79 306.64,301.80 C 306.50,301.80 306.36,301.81 306.23,301.83 C 306.11,301.85 305.99,301.87 305.88,301.90 C 305.77,301.93 305.68,301.96 305.59,302.01 C 305.50,302.05 305.42,302.10 305.34,302.16 C 305.27,302.21 305.20,302.24 305.16,302.34 C 305.11,302.44 305.08,302.58 305.07,302.76 C 305.06,302.93 305.06,303.15 305.09,303.40 C 305.11,303.65 305.15,303.94 305.20,304.27 C 305.26,304.59 305.33,304.96 305.42,305.36 C 305.51,305.76 305.62,306.20 305.74,306.68 C 305.87,307.16 306.01,307.67 306.16,308.23 C 306.32,308.78 306.50,309.37 306.69,310.00 C 306.88,310.63 307.12,311.37 307.31,312.00 C 307.51,312.63 307.69,313.24 307.85,313.80 C 308.02,314.37 308.17,314.91 308.30,315.41 C 308.44,315.92 308.56,316.39 308.67,316.83 C 308.78,317.27 308.87,317.67 308.95,318.05 C 309.03,318.42 309.10,318.76 309.15,319.07 C 309.20,319.38 309.24,319.65 309.26,319.90 C 309.28,320.14 309.29,320.35 309.28,320.53 C 309.27,320.71 309.26,320.83 309.22,320.97 C 309.18,321.10 309.12,321.23 309.04,321.34 C 308.96,321.45 308.86,321.55 308.74,321.63 C 308.62,321.72 308.49,321.80 308.33,321.86 C 308.17,321.92 307.99,321.98 307.80,322.02 C 307.60,322.06 307.38,322.08 307.15,322.10 C 306.91,322.12 306.66,322.12 306.38,322.12 C 306.11,322.11 305.81,322.09 305.50,322.06 Z" stroke="none" fill="currentColor" opacity="0.11" />
  <path d="M217.04,254.21L217.09,254.38 M217.15,255.43L217.15,255.94 M217.15,255.94L217.14,255.47 M217.40,253.57L224.19,253.57 M217.40,253.57L224.19,253.57 M217.40,253.57L224.19,253.57 M217.40,253.57L224.19,253.57 M217.40,253.57L224.19,253.57 M217.40,253.57L224.19,253.57 M216.96,255.02L224.71,255.02 M194.37,261.43L194.37,268.14 M194.82,268.14L194.82,261.43 M194.61,261.43L194.61,268.14 M194.73,261.43L194.73,268.14 M194.56,270.32L173.15,270.44 M173.15,259.85L194.56,259.97 M213.58,259.80L198.11,262.41 M213.58,270.48L198.11,267.87 M199.75,272.70L206.23,273.84 M206.14,273.86L199.83,272.75 M199.76,272.69L206.23,273.84 M206.23,273.84L199.75,272.70 M206.14,273.87L199.83,272.76 M207.17,272.93L213.36,274.00 M199.83,257.58L206.14,256.47 M199.75,257.64L206.23,256.50 M206.23,256.49L199.75,257.63 M199.76,257.64L206.23,256.50 M206.14,256.47L199.83,257.58 M213.36,256.33L207.17,257.40 M198.51,271.00L198.51,271.00 M198.51,271.35L198.51,271.35 M198.31,271.42L198.31,271.42 M198.51,259.29L198.51,259.29 M198.51,258.94L198.51,258.94 M198.31,258.87L198.31,258.87 M209.09,256.37L209.09,265.30 M194.49,258.69L194.49,271.56 M200.17,267.95L212.61,270.02 M212.61,260.22L200.17,262.29 M200.22,262.32L212.54,260.27 M169.60,270.21L177.99,272.31 M177.99,257.98L169.60,260.07 M276.20,263.52L276.20,282.07 M276.20,282.07L276.20,263.52 M275.96,264.06L275.96,281.53 M285.09,272.67L285.09,254.12 M285.09,272.67L285.09,254.12 M284.85,272.13L284.85,254.66 M257.41,277.64L271.19,277.64 M266.67,251.46L248.13,251.88 M248.97,276.06L248.97,276.06 M248.96,276.37L248.96,276.37 M248.43,276.56L248.43,276.56 M248.22,276.34L248.22,276.34 M248.46,275.83L248.46,275.83 M262.71,278.57L262.71,278.57 M262.61,278.33L262.61,278.33 M262.71,278.10L262.71,278.10 M263.00,277.70L263.00,277.70 M262.76,277.60L262.76,277.60 M262.66,277.36L262.66,277.36 M265.64,279.27L273.45,279.27 M276.16,282.44L276.16,261.18 M276.16,282.44L276.03,261.18 M276.18,260.43L276.18,248.03 M226.79,278.02L226.82,278.02 M240.80,275.20L235.23,275.20 M228.27,278.35L228.27,278.35 M228.75,271.34L227.60,278.83 M225.62,275.02L225.62,275.02 M217.31,271.05L216.25,276.85 M219.37,271.33L226.11,272.52 M216.55,273.15L216.55,273.15 M216.61,273.22L216.61,273.22 M216.61,273.57L216.61,273.57 M216.61,257.39L216.61,257.39 M216.61,257.04L216.61,257.04 M216.55,256.98L216.55,256.98 M233.97,273.38L233.97,265.31 M233.90,276.86L233.90,276.86 M233.97,276.92L233.97,276.92 M233.97,277.27L233.97,277.27 M233.90,273.38L233.90,265.31 M233.73,265.31L233.73,273.40 M233.97,265.31L233.97,258.45 M233.90,254.98L233.90,254.98 M233.97,254.91L233.97,254.91 M233.97,254.56L233.97,254.56 M233.90,254.50L233.90,254.50 M233.90,258.45L233.90,265.31 M249.32,275.26L249.32,265.31 M249.26,278.73L249.26,278.73 M249.32,278.80L249.32,278.80 M249.32,279.15L249.32,279.15 M249.26,275.26L249.26,265.31 M249.32,265.31L249.32,255.68 M249.26,252.21L249.26,252.21 M249.32,252.14L249.32,252.14 M249.32,251.79L249.32,251.79 M249.26,251.73L249.26,251.73 M249.26,255.68L249.26,265.31 M276.05,275.68L276.05,265.31 M275.99,279.16L275.99,279.16 M276.05,279.22L276.05,279.22 M276.05,279.57L276.05,279.57 M275.99,275.68L275.99,265.31 M276.05,265.31L276.05,254.53 M275.99,251.05L275.99,251.05 M276.05,250.99L276.05,250.99 M276.05,250.64L276.05,250.64 M275.99,250.57L275.99,250.57 M275.99,254.53L275.99,265.31 M275.63,253.93L275.63,253.91 M276.31,259.48L276.31,259.47 M275.63,259.35L275.67,259.32 M285.11,252.71L285.11,277.60 M285.53,252.71L285.53,277.60 M284.98,276.76L277.73,276.80 M284.98,276.76L277.73,276.80 M236.45,277.13L242.08,277.75 M236.45,277.13L227.26,276.14 M236.45,277.13L242.08,277.75 M236.45,277.13L227.41,276.15 M285.02,253.58L284.96,276.80 M277.75,253.51L285.02,253.58 M277.69,276.73L284.96,276.80 M285.02,253.58L284.96,276.80 M277.75,253.51L285.02,253.58 M277.69,276.73L284.96,276.80 M275.68,276.68L275.63,253.69 M276.13,252.35L282.30,252.35 M258.31,289.32L257.17,284.28 M258.31,240.97L257.17,246.01 M343.37,283.18L340.96,279.89 M343.37,247.10L340.96,250.40 M333.08,283.51L313.83,283.51 M319.10,285.89L319.10,285.89 M331.17,285.89L331.27,285.89 M319.27,285.89L329.41,285.89 M340.14,280.72L331.62,280.72 M336.76,285.67L340.37,285.67 M323.84,284.29L324.02,284.28 M313.72,270.09L329.09,270.09 M356.75,283.70L369.31,283.70 M356.75,274.79L369.31,274.76 M369.31,270.03L356.75,270.08 M356.75,270.06L369.31,270.10 M356.75,281.74L369.31,281.77 M369.31,274.80L356.75,274.77 M313.83,246.77L333.08,246.77 M319.10,244.40L319.10,244.40 M331.06,244.49L331.07,244.49 M331.17,244.40L331.27,244.40 M329.41,244.40L319.27,244.40 M331.62,249.57L340.14,249.57 M340.14,244.62L331.62,244.64 M340.43,244.62L340.37,244.62 M331.62,244.64L324.02,246.01 M324.02,246.01L323.84,246.00 M313.72,260.20L329.09,260.20 M369.31,246.59L356.75,246.59 M369.31,255.53L356.75,255.50 M369.31,260.25L356.75,260.21 M369.31,260.19L356.75,260.23 M369.31,248.52L356.75,248.55 M369.31,255.48L356.75,255.51 M346.98,265.14L351.28,265.14 M351.28,265.14L346.98,265.14 M315.73,285.22L319.20,286.42 M324.38,288.89L341.67,288.92 M324.16,287.22L341.67,287.25 M324.38,284.95L341.67,284.97 M325.33,286.05L321.20,286.05 M335.60,279.39L323.33,279.39 M321.21,274.45L324.21,279.84 M323.39,280.75L320.17,275.06 M322.98,281.20L319.66,275.36 M325.31,280.25L342.30,280.22 M342.30,281.42L325.20,281.45 M322.97,289.00L313.71,288.99 M313.71,287.80L322.87,287.80 M329.51,284.85L325.00,288.20 M329.51,285.54L325.00,288.89 M314.49,284.82L329.79,284.82 M329.82,285.30L314.49,285.30 M329.68,285.24L314.91,285.24 M314.91,284.62L329.65,284.62 M329.68,285.24L314.91,285.24 M329.61,283.99L314.91,283.99 M324.38,241.40L341.67,241.37 M341.67,243.04L324.16,243.07 M341.67,245.31L324.38,245.34 M315.73,245.07L319.20,243.87 M329.26,240.35L337.98,240.36 M321.20,244.23L325.33,244.23 M335.29,254.22L323.33,254.22 M335.60,250.89L323.33,250.89 M320.17,255.23L323.39,249.54 M321.21,255.83L324.21,250.44 M325.31,250.03L342.30,250.07 M342.30,248.87L325.20,248.83 M342.30,248.27L325.15,248.23 M322.87,242.49L313.71,242.49 M322.97,241.29L313.71,241.29 M322.97,240.60L313.71,240.60 M325.00,241.40L329.51,244.75 M325.00,242.08L329.51,245.43 M324.33,243.08L328.81,246.41 M314.49,244.99L329.82,244.99 M314.49,245.47L329.79,245.47 M329.65,245.67L314.91,245.67 M329.68,245.05L314.91,245.05 M329.68,245.05L314.91,245.05 M347.63,281.07L354.51,281.07 M347.74,284.60L354.50,284.60 M354.97,285.57L347.99,285.57 M321.30,311.18L321.39,304.74 M322.01,311.18L322.01,304.72 M316.86,311.18L316.86,304.72 M317.48,304.74L317.57,311.18 M323.49,310.38L325.40,304.78 M315.38,310.38L313.47,304.78 M324.29,275.55L314.34,275.55 M324.29,276.99L314.34,276.99 M314.34,278.71L324.29,278.71 M322.65,279.41L316.18,279.57 M316.11,281.89L322.70,281.95 M324.49,281.02L314.15,281.02 M314.34,277.06L324.49,276.87 M322.31,284.67L316.32,284.67 M322.31,282.96L316.32,282.96 M317.33,219.11L317.24,225.55 M316.62,219.11L316.62,225.57 M321.77,219.11L321.77,225.57 M321.15,225.55L321.06,219.11 M315.14,219.91L313.23,225.50 M323.25,219.91L325.16,225.50 M314.34,255.20L324.29,254.73 M324.29,253.30L314.34,253.30 M324.29,251.58L314.34,251.58 M316.18,250.72L322.46,250.72 M322.53,248.40L315.93,248.33 M314.15,249.27L324.49,249.27 M324.49,253.42L314.34,253.22 M306.78,264.36L300.40,262.55 M314.48,283.14L309.65,281.70 M309.78,282.87L315.48,284.58 M320.77,273.10L314.37,271.28 M313.79,252.69L320.09,254.75 M314.50,254.25L319.88,255.99 M292.74,255.62L317.98,255.62 M307.14,260.58L308.39,260.58 M308.39,260.58L320.12,260.69 M308.39,260.58L320.11,260.58 M314.01,257.26L315.78,257.26 M304.75,258.98L304.75,258.99 M304.75,253.37L304.75,253.37 M307.79,258.99L307.78,258.98 M307.79,258.99L307.78,253.37 M307.78,253.37L307.78,253.37 M310.32,267.46L310.32,261.43 M313.35,261.43L313.35,267.46 M309.02,268.23L314.64,268.34 M307.14,260.79L308.39,260.79 M308.39,260.79L320.12,260.69 M308.39,260.79L320.11,260.79 M315.78,264.11L314.01,264.11 M304.74,262.39L304.75,262.39 M304.75,268.00L304.75,268.00 M307.78,268.00L307.78,268.00 M307.78,268.00L307.78,262.39 M307.78,262.39L307.78,262.39 M310.32,267.42L310.32,261.39 M313.35,261.39L313.35,267.42 M314.18,263.01L311.10,263.02 M314.50,276.76L314.51,270.98 M314.50,281.03L314.50,276.19 M310.80,271.02L310.80,276.77 M310.80,271.02L310.80,276.19 M310.80,276.19L310.80,281.03 M311.62,274.14L336.87,274.14 M311.62,274.14L336.87,274.14 M322.47,269.18L321.21,269.18 M321.21,269.18L309.48,269.07 M321.21,269.18L309.49,269.18 M315.59,272.50L313.82,272.50 M324.85,276.39L324.85,276.39 M324.85,270.78L324.86,270.77 M321.81,270.77L321.82,270.78 M321.81,270.77L321.82,276.39 M321.82,276.39L321.82,276.39 M317.20,271.19L317.20,271.19 M314.17,271.19L314.17,271.19 M322.47,268.97L321.21,268.97 M321.21,268.97L309.48,269.07 M321.21,268.97L309.49,268.97 M313.82,265.64L315.59,265.64 M324.86,267.37L324.85,267.36 M324.85,261.75L324.85,261.75 M321.82,261.75L321.82,261.75 M321.82,261.75L321.82,267.36 M321.82,267.36L321.82,267.36 M317.20,266.95L317.20,266.95 M314.17,266.95L314.17,266.95 M314.20,279.20L318.66,279.20 M314.20,251.09L318.66,251.09 M292.65,298.60L310.56,298.40 M292.65,231.69L310.56,231.88 M238.40,280.83L238.43,278.65 M245.37,281.36L263.48,283.18 M263.48,283.18L277.21,284.56 M238.40,249.46L238.43,251.64 M245.37,248.92L263.48,247.11 M263.48,247.11L277.21,245.73 M215.87,277.34L208.35,275.91 M208.35,275.91L216.57,277.47 M208.35,254.38L215.87,252.95 M208.35,254.38L216.57,252.81 M264.08,285.94L263.99,281.49 M313.14,279.04L289.54,279.39 M216.89,252.77L216.84,252.74 M264.08,244.35L263.99,248.80 M313.14,251.24L289.54,250.90 M179.64,273.88L185.54,274.38 M179.64,256.41L185.54,255.91 M225.69,275.71L225.64,275.64 M252.36,285.25L246.38,285.25 M252.36,285.14L246.38,285.14 M252.36,284.87L246.38,284.87 M252.36,284.61L246.38,284.61 M252.38,285.04L246.36,285.04 M246.36,284.90L252.38,284.90 M260.36,285.25L254.39,285.25 M260.36,285.14L254.39,285.14 M260.36,284.87L254.39,284.87 M260.36,284.61L254.39,284.61 M260.39,285.04L254.37,285.04 M254.37,284.90L260.39,284.90 M268.36,285.25L262.39,285.25 M268.36,285.14L262.39,285.14 M268.36,284.87L262.39,284.87 M268.36,284.61L262.39,284.61 M268.39,285.04L262.37,285.04 M262.37,284.90L268.39,284.90 M276.37,285.25L270.40,285.25 M276.37,285.14L270.40,285.14 M276.37,284.87L270.40,284.87 M276.37,284.61L270.40,284.61 M276.39,285.04L270.37,285.04 M270.37,284.90L276.39,284.90 M246.38,245.03L252.36,245.03 M246.38,245.14L252.36,245.14 M246.38,245.41L252.36,245.41 M246.38,245.68L252.36,245.68 M246.36,245.25L252.38,245.25 M252.38,245.39L246.36,245.39 M254.39,245.03L260.36,245.03 M254.39,245.14L260.36,245.14 M254.39,245.41L260.36,245.41 M254.39,245.68L260.36,245.68 M254.37,245.25L260.39,245.25 M260.39,245.39L254.37,245.39 M262.39,245.03L268.36,245.03 M262.39,245.14L268.36,245.14 M262.39,245.41L268.36,245.41 M262.39,245.68L268.36,245.68 M262.37,245.25L268.39,245.25 M268.39,245.39L262.37,245.39 M270.40,245.03L276.37,245.03 M270.40,245.14L276.37,245.14 M270.40,245.41L276.37,245.41 M270.40,245.68L276.37,245.68 M270.37,245.25L276.39,245.25 M276.39,245.39L270.37,245.39 M211.68,267.13L218.12,267.22 M211.68,267.84L218.14,267.84 M211.68,262.69L218.14,262.69 M218.12,263.31L211.68,263.40 M212.48,269.32L218.07,271.23 M212.48,261.21L218.07,259.30 M192.38,262.72L183.47,262.72 M192.38,267.56L183.47,267.56 M181.02,260.11L170.83,260.11 M170.76,260.76L181.02,260.76 M170.83,260.76L181.02,260.76 M170.02,260.84L164.69,261.94 M169.95,260.84L164.62,261.94 M180.19,260.20L171.05,260.20 M180.19,260.67L171.05,260.67 M180.04,260.67L170.98,260.67 M170.74,260.70L165.19,261.84 M170.67,260.70L165.12,261.84 M181.02,270.18L170.83,270.18 M170.83,269.52L181.02,269.52 M181.02,269.52L170.76,269.52 M170.02,269.45L164.69,268.35 M169.95,269.45L164.62,268.35 M180.19,270.09L171.05,270.09 M180.04,269.61L170.98,269.61 M171.05,269.61L180.19,269.61 M170.74,269.59L165.19,268.44 M170.67,269.59L165.12,268.44 M289.24,247.65L289.24,236.05 M289.24,247.65L289.24,242.85 M287.96,237.97L287.78,242.86 M287.96,237.97L287.78,245.53 M287.96,237.97L287.78,245.60 M289.28,236.42L289.28,248.02 M289.28,236.42L289.28,241.22 M289.28,282.27L289.28,293.86 M289.28,282.27L289.28,287.07 M289.29,294.31L289.29,282.72 M289.29,294.31L289.29,289.52 M288.01,279.86L287.82,284.84 M288.01,279.86L287.82,287.51 M288.01,279.86L287.82,287.58 M216.02,274.81L208.03,273.88 M208.03,273.88L199.22,272.73 M208.12,271.38L199.24,270.82 M287.21,276.08L265.56,271.39 M265.56,271.39L258.56,274.44 M258.56,274.44L234.83,273.14 M257.84,282.00L269.56,282.64 M269.56,282.64L287.58,283.77 M257.84,282.00L245.54,281.41 M245.54,281.41L236.60,279.94 M236.60,279.94L216.02,274.81 M216.02,255.48L208.03,256.40 M208.03,256.40L199.22,257.56 M216.02,255.48L236.60,250.34 M245.63,249.40L236.60,250.34 M245.63,249.40L257.81,248.29 M257.81,248.29L269.56,247.65 M269.56,247.65L287.58,246.52 M234.82,257.14L258.56,255.84 M258.56,255.84L265.56,258.90 M265.56,258.90L287.21,254.20 M258.97,288.63L258.44,284.29 M259.55,288.54L258.97,284.17 M271.10,291.75L263.87,290.63 M263.87,290.63L271.18,290.91 M277.79,292.41L271.01,291.45 M271.01,291.45L277.84,291.49 M286.73,294.34L277.27,293.18 M277.27,293.18L286.63,293.84 M257.00,289.48L256.93,282.51 M258.97,241.65L258.44,246.00 M258.97,246.11L259.55,241.75 M271.10,238.53L263.87,239.66 M263.87,239.66L271.18,239.38 M277.79,237.88L271.01,238.84 M271.01,238.84L277.84,238.79 M286.73,235.94L277.27,237.11 M277.27,237.11L286.63,236.45 M257.00,240.80L256.93,247.78 M258.12,240.81L257.60,247.76 M273.28,260.01L268.91,263.66 M248.53,277.48L249.04,281.33 M254.15,277.42L253.82,281.72 M247.92,273.54L247.80,265.14 M249.47,281.29L249.07,277.51 M253.85,277.45L253.60,281.72 M250.29,279.81L250.19,281.61 M248.53,252.80L249.04,248.96 M247.97,256.71L248.11,265.14 M247.93,256.75L247.80,265.14 M249.47,249.00L249.07,252.78 M253.85,252.84L253.61,248.56 M250.29,250.47L250.19,248.68 M257.24,289.24L266.07,290.45 M266.07,290.45L280.13,291.86 M257.24,241.25L266.07,239.84 M266.07,239.84L280.13,238.43 M280.83,271.38L286.95,271.38 M311.62,274.14L336.87,274.14 M309.49,269.18L321.21,269.18 M315.59,272.50L313.82,272.50 M324.85,276.39L324.85,276.39 M324.85,276.39L324.85,270.78 M321.82,270.78L321.82,270.78 M321.82,276.39L321.82,276.39 M321.82,276.39L321.82,270.78 M317.20,271.19L317.20,271.19 M314.17,271.19L314.17,271.19 M320.54,269.79L326.13,269.79 M311.93,268.97L320.52,268.97 M322.47,268.97L321.21,268.97 M321.21,268.97L309.49,268.97 M321.82,261.75L321.82,261.75 M321.82,261.75L321.82,267.36 M317.20,266.95L317.20,266.95 M314.17,266.95L314.17,266.95 M217.30,278.04L225.35,279.35" stroke="currentColor" stroke-width="0.6" stroke-linecap="round" fill="none" opacity="0.55" clip-path="url(#hull-clip)" filter="url(#glow)" />
  <path d="M 305.50,322.06 C 305.19,322.03 304.84,322.01 304.50,321.94 C 304.16,321.86 303.82,321.75 303.47,321.61 C 303.12,321.47 302.77,321.29 302.41,321.08 C 302.05,320.87 301.68,320.62 301.31,320.34 C 300.94,320.07 300.57,319.75 300.19,319.41 C 299.81,319.06 299.42,318.68 299.03,318.27 C 298.64,317.85 298.24,317.40 297.84,316.92 C 297.44,316.44 297.04,315.92 296.62,315.38 C 296.21,314.83 295.79,314.17 295.38,313.62 C 294.96,313.08 294.55,312.56 294.15,312.09 C 293.74,311.61 293.34,311.17 292.95,310.76 C 292.55,310.35 292.15,309.98 291.77,309.64 C 291.38,309.30 290.99,309.00 290.61,308.73 C 290.23,308.47 289.85,308.24 289.48,308.04 C 289.10,307.84 288.73,307.68 288.37,307.55 C 288.00,307.43 287.64,307.34 287.28,307.28 C 286.92,307.23 286.55,307.24 286.22,307.22 C 285.89,307.20 285.58,307.17 285.30,307.14 C 285.01,307.11 284.75,307.08 284.52,307.05 C 284.28,307.01 284.07,306.98 283.88,306.94 C 283.68,306.90 283.52,306.86 283.38,306.81 C 283.23,306.77 283.11,306.72 283.02,306.67 C 282.92,306.62 282.85,306.57 282.80,306.52 C 282.75,306.46 282.72,306.40 282.72,306.34 C 282.72,306.28 282.74,306.22 282.78,306.16 C 282.82,306.10 282.87,306.04 282.94,305.98 C 283.01,305.93 283.09,305.88 283.19,305.83 C 283.29,305.78 283.40,305.73 283.53,305.69 C 283.66,305.64 283.81,305.60 283.97,305.56 C 284.13,305.52 284.31,305.49 284.50,305.45 C 284.69,305.42 284.90,305.39 285.12,305.36 C 285.35,305.33 285.59,305.30 285.84,305.28 C 286.10,305.26 286.42,305.26 286.66,305.22 C 286.90,305.17 287.10,305.11 287.28,305.02 C 287.46,304.92 287.60,304.81 287.72,304.67 C 287.83,304.53 287.92,304.37 287.97,304.19 C 288.02,304.00 288.04,303.79 288.03,303.56 C 288.02,303.33 287.98,303.08 287.91,302.80 C 287.83,302.52 287.73,302.22 287.59,301.89 C 287.46,301.57 287.29,301.22 287.09,300.84 C 286.90,300.47 286.69,300.04 286.41,299.66 C 286.12,299.27 285.78,298.90 285.38,298.54 C 284.99,298.18 284.53,297.83 284.02,297.49 C 283.51,297.15 282.95,296.83 282.33,296.52 C 281.71,296.20 281.03,295.90 280.30,295.61 C 279.56,295.32 278.77,295.04 277.93,294.77 C 277.08,294.51 276.18,294.25 275.23,294.01 C 274.27,293.76 273.26,293.53 272.19,293.31 C 271.12,293.09 269.90,292.88 268.81,292.69 C 267.73,292.49 266.69,292.31 265.69,292.14 C 264.69,291.97 263.73,291.82 262.81,291.67 C 261.90,291.53 261.02,291.40 260.19,291.28 C 259.35,291.16 258.56,291.06 257.81,290.97 C 257.06,290.88 256.35,290.80 255.69,290.73 C 255.02,290.67 254.40,290.62 253.81,290.58 C 253.23,290.54 252.69,290.51 252.19,290.50 C 251.69,290.49 251.25,290.51 250.81,290.50 C 250.38,290.49 249.96,290.47 249.56,290.44 C 249.17,290.41 248.79,290.36 248.44,290.31 C 248.08,290.26 247.75,290.20 247.44,290.12 C 247.12,290.05 246.83,289.97 246.56,289.88 C 246.29,289.78 246.04,289.68 245.81,289.56 C 245.58,289.45 245.38,289.32 245.19,289.19 C 245.00,289.05 244.83,288.91 244.69,288.75 C 244.54,288.59 244.47,288.42 244.31,288.25 C 244.16,288.08 243.98,287.90 243.77,287.72 C 243.55,287.54 243.32,287.35 243.05,287.16 C 242.78,286.96 242.48,286.77 242.16,286.56 C 241.83,286.36 241.48,286.15 241.09,285.94 C 240.71,285.72 240.30,285.51 239.86,285.28 C 239.42,285.06 238.95,284.83 238.45,284.59 C 237.96,284.36 237.43,284.12 236.88,283.88 C 236.32,283.63 235.71,283.36 235.12,283.12 C 234.54,282.89 233.97,282.66 233.39,282.45 C 232.82,282.24 232.24,282.04 231.67,281.86 C 231.10,281.67 230.53,281.50 229.97,281.34 C 229.40,281.18 228.84,281.04 228.28,280.91 C 227.72,280.77 227.16,280.65 226.61,280.55 C 226.05,280.44 225.50,280.35 224.95,280.27 C 224.40,280.18 223.86,280.12 223.31,280.06 C 222.77,280.01 222.20,279.97 221.69,279.94 C 221.18,279.90 220.71,279.88 220.27,279.86 C 219.83,279.84 219.42,279.83 219.05,279.83 C 218.67,279.83 218.34,279.83 218.03,279.84 C 217.73,279.86 217.46,279.88 217.22,279.91 C 216.98,279.93 216.78,279.97 216.61,280.02 C 216.44,280.06 216.30,280.11 216.20,280.17 C 216.10,280.23 216.03,280.30 216.00,280.38 C 215.97,280.45 216.02,280.55 216.00,280.62 C 215.98,280.70 215.93,280.78 215.86,280.84 C 215.79,280.91 215.70,280.97 215.58,281.03 C 215.46,281.09 215.32,281.14 215.16,281.19 C 214.99,281.23 214.80,281.28 214.59,281.31 C 214.38,281.35 214.15,281.38 213.89,281.41 C 213.63,281.43 213.35,281.45 213.05,281.47 C 212.74,281.48 212.41,281.49 212.06,281.50 C 211.71,281.51 211.32,281.51 210.94,281.50 C 210.56,281.49 210.17,281.46 209.78,281.42 C 209.39,281.38 208.99,281.33 208.59,281.27 C 208.19,281.20 207.79,281.12 207.38,281.03 C 206.96,280.94 206.55,280.84 206.12,280.72 C 205.70,280.60 205.28,280.47 204.84,280.33 C 204.41,280.18 203.97,280.03 203.53,279.86 C 203.09,279.69 202.64,279.51 202.19,279.31 C 201.73,279.12 201.31,278.89 200.81,278.69 C 200.31,278.48 199.77,278.28 199.19,278.08 C 198.60,277.88 197.98,277.68 197.31,277.48 C 196.65,277.29 195.94,277.10 195.19,276.91 C 194.44,276.72 193.65,276.53 192.81,276.34 C 191.98,276.16 191.10,275.98 190.19,275.80 C 189.27,275.62 188.31,275.44 187.31,275.27 C 186.31,275.09 185.27,274.92 184.19,274.75 C 183.10,274.58 181.90,274.42 180.81,274.25 C 179.72,274.08 178.66,273.90 177.63,273.73 C 176.61,273.55 175.61,273.37 174.65,273.18 C 173.69,272.99 172.76,272.80 171.86,272.61 C 170.96,272.42 170.10,272.22 169.27,272.02 C 168.43,271.81 167.63,271.61 166.87,271.40 C 166.10,271.19 165.37,270.98 164.66,270.76 C 163.96,270.54 163.29,270.32 162.66,270.09 C 162.02,269.87 161.41,269.63 160.84,269.41 C 160.28,269.18 159.75,268.95 159.26,268.73 C 158.77,268.50 158.31,268.28 157.90,268.05 C 157.48,267.83 157.11,267.61 156.77,267.39 C 156.43,267.17 156.12,266.95 155.86,266.73 C 155.60,266.52 155.37,266.30 155.18,266.09 C 154.99,265.87 154.84,265.66 154.73,265.45 C 154.61,265.23 154.54,265.02 154.50,264.81 C 154.46,264.60 154.48,264.39 154.50,264.19 C 154.52,263.98 154.57,263.78 154.63,263.59 C 154.70,263.39 154.79,263.20 154.90,263.01 C 155.01,262.82 155.14,262.63 155.30,262.45 C 155.45,262.27 155.63,262.10 155.83,261.92 C 156.03,261.75 156.25,261.58 156.49,261.41 C 156.74,261.25 157.00,261.09 157.29,260.93 C 157.58,260.77 157.89,260.62 158.22,260.47 C 158.55,260.32 158.86,260.18 159.28,260.03 C 159.70,259.88 160.19,259.72 160.74,259.55 C 161.30,259.39 161.92,259.22 162.60,259.04 C 163.29,258.86 164.04,258.68 164.86,258.48 C 165.68,258.29 166.56,258.10 167.52,257.89 C 168.47,257.69 169.49,257.48 170.57,257.26 C 171.65,257.04 172.81,256.82 174.02,256.59 C 175.24,256.36 176.52,256.12 177.88,255.88 C 179.23,255.63 180.77,255.37 182.12,255.12 C 183.48,254.88 184.77,254.63 186.00,254.39 C 187.23,254.15 188.40,253.91 189.50,253.67 C 190.60,253.43 191.65,253.20 192.62,252.97 C 193.60,252.74 194.52,252.51 195.38,252.28 C 196.23,252.05 197.02,251.83 197.75,251.61 C 198.48,251.39 199.15,251.17 199.75,250.95 C 200.35,250.74 200.90,250.52 201.38,250.31 C 201.85,250.10 202.21,249.88 202.62,249.69 C 203.04,249.49 203.44,249.31 203.84,249.14 C 204.24,248.97 204.64,248.82 205.03,248.67 C 205.42,248.53 205.81,248.40 206.19,248.28 C 206.57,248.16 206.94,248.06 207.31,247.97 C 207.68,247.88 208.05,247.80 208.41,247.73 C 208.77,247.67 209.12,247.62 209.47,247.58 C 209.82,247.54 210.16,247.51 210.50,247.50 C 210.84,247.49 211.18,247.49 211.50,247.50 C 211.82,247.51 212.12,247.52 212.41,247.55 C 212.69,247.57 212.96,247.60 213.22,247.64 C 213.47,247.68 213.71,247.73 213.94,247.78 C 214.16,247.84 214.37,247.90 214.56,247.97 C 214.76,248.04 214.93,248.12 215.09,248.20 C 215.26,248.29 215.40,248.38 215.53,248.48 C 215.66,248.59 215.78,248.70 215.88,248.81 C 215.97,248.93 216.03,249.07 216.12,249.19 C 216.22,249.30 216.34,249.41 216.47,249.50 C 216.60,249.59 216.74,249.68 216.91,249.75 C 217.07,249.82 217.24,249.89 217.44,249.94 C 217.63,249.99 217.84,250.03 218.06,250.06 C 218.29,250.09 218.53,250.11 218.78,250.12 C 219.04,250.14 219.31,250.14 219.59,250.12 C 219.88,250.11 220.18,250.09 220.50,250.06 C 220.82,250.03 221.17,249.98 221.50,249.94 C 221.83,249.89 222.17,249.85 222.50,249.80 C 222.83,249.75 223.17,249.70 223.50,249.64 C 223.83,249.59 224.17,249.53 224.50,249.47 C 224.83,249.41 225.17,249.35 225.50,249.28 C 225.83,249.22 226.17,249.15 226.50,249.08 C 226.83,249.01 227.17,248.93 227.50,248.86 C 227.83,248.78 228.17,248.71 228.50,248.62 C 228.83,248.54 229.16,248.47 229.50,248.38 C 229.84,248.28 230.18,248.18 230.53,248.08 C 230.88,247.97 231.23,247.86 231.59,247.73 C 231.95,247.61 232.32,247.48 232.69,247.34 C 233.06,247.21 233.43,247.06 233.81,246.91 C 234.19,246.75 234.58,246.59 234.97,246.42 C 235.36,246.25 235.76,246.08 236.16,245.89 C 236.56,245.71 236.96,245.51 237.38,245.31 C 237.79,245.11 238.22,244.89 238.62,244.69 C 239.03,244.48 239.41,244.28 239.78,244.08 C 240.15,243.88 240.51,243.68 240.84,243.48 C 241.18,243.29 241.51,243.10 241.81,242.91 C 242.12,242.72 242.41,242.53 242.69,242.34 C 242.96,242.16 243.22,241.98 243.47,241.80 C 243.71,241.62 243.94,241.44 244.16,241.27 C 244.37,241.09 244.57,240.92 244.75,240.75 C 244.93,240.58 245.08,240.40 245.25,240.25 C 245.42,240.10 245.60,239.96 245.78,239.83 C 245.96,239.70 246.15,239.59 246.34,239.48 C 246.54,239.38 246.73,239.29 246.94,239.22 C 247.14,239.14 247.35,239.08 247.56,239.03 C 247.78,238.98 247.99,238.95 248.22,238.92 C 248.44,238.90 248.67,238.89 248.91,238.89 C 249.14,238.89 249.38,238.91 249.62,238.94 C 249.87,238.97 250.06,239.04 250.38,239.06 C 250.69,239.09 251.07,239.09 251.52,239.08 C 251.96,239.07 252.47,239.03 253.05,238.98 C 253.62,238.93 254.26,238.87 254.97,238.78 C 255.67,238.70 256.45,238.59 257.28,238.47 C 258.12,238.35 259.02,238.21 259.98,238.05 C 260.95,237.89 261.98,237.71 263.08,237.52 C 264.17,237.32 265.34,237.11 266.56,236.88 C 267.79,236.64 269.22,236.37 270.44,236.12 C 271.66,235.88 272.80,235.64 273.88,235.41 C 274.95,235.17 275.95,234.94 276.88,234.72 C 277.80,234.49 278.66,234.28 279.44,234.06 C 280.22,233.85 280.93,233.64 281.56,233.44 C 282.20,233.23 282.76,233.04 283.25,232.84 C 283.74,232.65 284.16,232.46 284.50,232.28 C 284.84,232.10 285.11,231.92 285.31,231.75 C 285.51,231.58 285.56,231.42 285.69,231.25 C 285.81,231.08 285.93,230.90 286.05,230.73 C 286.18,230.55 286.30,230.37 286.41,230.18 C 286.53,229.99 286.65,229.80 286.77,229.61 C 286.88,229.42 287.00,229.22 287.11,229.02 C 287.22,228.81 287.33,228.61 287.45,228.40 C 287.56,228.19 287.67,227.98 287.77,227.76 C 287.88,227.54 287.99,227.32 288.09,227.09 C 288.20,226.87 288.33,226.62 288.41,226.41 C 288.49,226.19 288.54,225.98 288.57,225.79 C 288.60,225.60 288.61,225.41 288.59,225.24 C 288.57,225.07 288.52,224.91 288.45,224.77 C 288.38,224.62 288.29,224.48 288.17,224.36 C 288.05,224.24 287.91,224.12 287.74,224.02 C 287.57,223.92 287.38,223.83 287.16,223.76 C 286.95,223.68 286.70,223.62 286.44,223.56 C 286.17,223.51 285.81,223.48 285.56,223.44 C 285.31,223.39 285.10,223.35 284.93,223.30 C 284.76,223.26 284.63,223.21 284.54,223.16 C 284.45,223.12 284.40,223.07 284.39,223.02 C 284.38,222.96 284.41,222.91 284.48,222.86 C 284.56,222.81 284.67,222.75 284.82,222.70 C 284.97,222.64 285.17,222.58 285.40,222.52 C 285.63,222.46 285.90,222.40 286.22,222.34 C 286.53,222.28 286.93,222.25 287.28,222.16 C 287.64,222.06 287.99,221.94 288.35,221.79 C 288.71,221.64 289.07,221.45 289.43,221.24 C 289.79,221.03 290.15,220.79 290.52,220.52 C 290.88,220.24 291.24,219.94 291.61,219.61 C 291.98,219.28 292.34,218.92 292.71,218.52 C 293.08,218.13 293.45,217.71 293.82,217.26 C 294.19,216.81 294.56,216.32 294.94,215.81 C 295.31,215.30 295.69,214.70 296.06,214.19 C 296.44,213.67 296.81,213.19 297.19,212.73 C 297.56,212.28 297.94,211.85 298.31,211.45 C 298.69,211.05 299.06,210.68 299.44,210.34 C 299.81,210.00 300.19,209.69 300.56,209.41 C 300.94,209.12 301.31,208.87 301.69,208.64 C 302.06,208.41 302.44,208.22 302.81,208.05 C 303.19,207.88 303.56,207.74 303.94,207.62 C 304.31,207.51 304.71,207.44 305.06,207.38 C 305.42,207.31 305.75,207.25 306.05,207.21 C 306.36,207.17 306.65,207.14 306.91,207.13 C 307.18,207.12 307.42,207.12 307.64,207.14 C 307.86,207.16 308.06,207.19 308.23,207.23 C 308.41,207.28 308.56,207.34 308.70,207.41 C 308.83,207.49 308.94,207.58 309.02,207.68 C 309.11,207.78 309.18,207.90 309.22,208.03 C 309.26,208.16 309.27,208.29 309.28,208.47 C 309.29,208.65 309.28,208.87 309.26,209.12 C 309.24,209.37 309.20,209.65 309.15,209.98 C 309.10,210.30 309.03,210.65 308.95,211.05 C 308.87,211.44 308.78,211.87 308.67,212.33 C 308.56,212.79 308.44,213.29 308.30,213.82 C 308.17,214.35 308.02,214.92 307.85,215.52 C 307.69,216.13 307.51,216.76 307.31,217.44 C 307.12,218.11 306.88,218.89 306.69,219.56 C 306.50,220.23 306.32,220.86 306.16,221.45 C 306.01,222.03 305.87,222.58 305.74,223.09 C 305.62,223.59 305.51,224.06 305.42,224.48 C 305.33,224.91 305.26,225.30 305.20,225.64 C 305.15,225.99 305.11,226.29 305.09,226.55 C 305.06,226.82 305.06,227.04 305.07,227.23 C 305.08,227.41 305.11,227.55 305.16,227.66 C 305.20,227.76 305.27,227.79 305.34,227.84 C 305.42,227.90 305.50,227.94 305.60,227.98 C 305.70,228.01 305.81,228.04 305.93,228.05 C 306.05,228.07 306.18,228.08 306.33,228.08 C 306.47,228.08 306.63,228.07 306.80,228.05 C 306.96,228.03 307.14,228.00 307.34,227.96 C 307.53,227.92 307.73,227.88 307.95,227.82 C 308.16,227.76 308.39,227.70 308.62,227.62 C 308.86,227.55 309.13,227.47 309.38,227.38 C 309.62,227.28 309.85,227.17 310.07,227.04 C 310.29,226.91 310.51,226.77 310.71,226.62 C 310.92,226.46 311.11,226.29 311.30,226.11 C 311.48,225.93 311.66,225.73 311.83,225.52 C 312.00,225.30 312.15,225.08 312.30,224.84 C 312.45,224.60 312.60,224.34 312.73,224.07 C 312.86,223.80 312.98,223.52 313.09,223.22 C 313.21,222.92 313.30,222.58 313.41,222.28 C 313.51,221.98 313.61,221.70 313.72,221.42 C 313.82,221.15 313.93,220.89 314.03,220.64 C 314.14,220.39 314.24,220.16 314.34,219.94 C 314.45,219.72 314.55,219.51 314.66,219.31 C 314.76,219.12 314.86,218.93 314.97,218.77 C 315.07,218.60 315.18,218.44 315.28,218.30 C 315.39,218.15 315.49,218.02 315.59,217.91 C 315.70,217.79 315.80,217.69 315.91,217.59 C 316.01,217.50 316.12,217.40 316.23,217.32 C 316.33,217.24 316.44,217.16 316.55,217.09 C 316.67,217.01 316.78,216.95 316.89,216.89 C 317.00,216.83 317.12,216.78 317.23,216.73 C 317.35,216.69 317.47,216.65 317.59,216.62 C 317.70,216.58 317.82,216.56 317.95,216.54 C 318.07,216.52 318.19,216.51 318.31,216.50 C 318.44,216.49 318.55,216.47 318.69,216.50 C 318.82,216.53 318.97,216.59 319.13,216.68 C 319.29,216.77 319.46,216.89 319.65,217.04 C 319.83,217.19 320.03,217.37 320.23,217.58 C 320.44,217.79 320.66,218.03 320.89,218.30 C 321.12,218.57 321.36,218.87 321.62,219.20 C 321.87,219.52 322.14,219.88 322.41,220.27 C 322.69,220.66 322.98,221.08 323.28,221.53 C 323.58,221.98 323.93,222.51 324.22,222.97 C 324.51,223.43 324.77,223.87 325.01,224.29 C 325.25,224.71 325.46,225.11 325.65,225.49 C 325.84,225.87 326.00,226.24 326.14,226.58 C 326.28,226.92 326.39,227.24 326.48,227.55 C 326.57,227.85 326.64,228.13 326.68,228.40 C 326.72,228.66 326.74,228.91 326.73,229.13 C 326.72,229.36 326.68,229.56 326.62,229.75 C 326.57,229.94 326.45,230.09 326.38,230.25 C 326.30,230.41 326.24,230.57 326.18,230.73 C 326.12,230.88 326.08,231.03 326.04,231.18 C 326.00,231.33 325.97,231.47 325.95,231.61 C 325.93,231.75 325.92,231.88 325.92,232.02 C 325.92,232.15 325.93,232.27 325.95,232.40 C 325.96,232.52 325.99,232.64 326.02,232.76 C 326.06,232.87 326.10,232.99 326.16,233.09 C 326.21,233.20 326.26,233.31 326.34,233.41 C 326.43,233.50 326.54,233.60 326.68,233.68 C 326.82,233.76 326.98,233.84 327.16,233.91 C 327.35,233.99 327.56,234.05 327.80,234.11 C 328.03,234.17 328.29,234.22 328.58,234.27 C 328.86,234.31 329.17,234.35 329.51,234.38 C 329.84,234.42 330.20,234.44 330.59,234.46 C 330.97,234.48 331.38,234.49 331.81,234.50 C 332.25,234.51 332.71,234.48 333.19,234.50 C 333.66,234.52 334.15,234.57 334.66,234.64 C 335.16,234.71 335.68,234.80 336.22,234.92 C 336.76,235.04 337.31,235.18 337.88,235.34 C 338.44,235.51 339.03,235.70 339.62,235.91 C 340.22,236.12 340.84,236.35 341.47,236.61 C 342.10,236.87 342.74,237.15 343.41,237.45 C 344.07,237.76 344.74,238.09 345.44,238.44 C 346.13,238.79 346.84,239.21 347.56,239.56 C 348.28,239.92 349.01,240.26 349.75,240.58 C 350.49,240.90 351.24,241.20 352.00,241.48 C 352.76,241.77 353.53,242.03 354.31,242.28 C 355.09,242.53 355.89,242.76 356.69,242.97 C 357.49,243.18 358.30,243.37 359.12,243.55 C 359.95,243.72 360.78,243.88 361.62,244.02 C 362.47,244.15 363.32,244.27 364.19,244.38 C 365.05,244.48 365.99,244.54 366.81,244.62 C 367.64,244.71 368.41,244.80 369.13,244.90 C 369.86,244.99 370.53,245.09 371.15,245.20 C 371.77,245.30 372.34,245.40 372.86,245.52 C 373.38,245.63 373.85,245.74 374.27,245.86 C 374.68,245.98 375.05,246.10 375.37,246.23 C 375.68,246.35 375.95,246.48 376.16,246.62 C 376.38,246.75 376.54,246.89 376.66,247.03 C 376.77,247.17 376.79,247.32 376.84,247.47 C 376.90,247.62 376.96,247.78 377.01,247.95 C 377.06,248.11 377.11,248.28 377.15,248.46 C 377.19,248.64 377.23,248.82 377.27,249.02 C 377.30,249.21 377.33,249.40 377.36,249.61 C 377.39,249.81 377.41,250.02 377.43,250.24 C 377.45,250.46 377.46,250.68 377.48,250.91 C 377.49,251.14 377.50,251.38 377.50,251.62 C 377.50,251.87 377.51,252.14 377.50,252.38 C 377.49,252.61 377.48,252.84 377.47,253.06 C 377.45,253.28 377.43,253.49 377.41,253.69 C 377.38,253.89 377.35,254.07 377.31,254.25 C 377.28,254.43 377.23,254.59 377.19,254.75 C 377.14,254.91 377.09,255.05 377.03,255.19 C 376.97,255.32 376.91,255.45 376.84,255.56 C 376.78,255.68 376.70,255.78 376.62,255.88 C 376.55,255.97 376.45,256.04 376.38,256.12 C 376.30,256.21 376.24,256.30 376.19,256.39 C 376.14,256.48 376.09,256.58 376.06,256.67 C 376.03,256.77 376.01,256.87 376.00,256.97 C 375.99,257.07 375.99,257.17 376.00,257.28 C 376.01,257.39 376.03,257.50 376.06,257.61 C 376.09,257.72 376.14,257.84 376.19,257.95 C 376.24,258.07 376.30,258.19 376.38,258.31 C 376.45,258.43 376.55,258.55 376.62,258.69 C 376.70,258.83 376.78,258.98 376.84,259.16 C 376.91,259.33 376.97,259.52 377.03,259.72 C 377.09,259.92 377.14,260.14 377.19,260.38 C 377.23,260.61 377.28,260.86 377.31,261.12 C 377.35,261.39 377.38,261.67 377.41,261.97 C 377.43,262.27 377.45,262.58 377.47,262.91 C 377.48,263.23 377.49,263.58 377.50,263.94 C 377.51,264.30 377.51,264.70 377.50,265.06 C 377.49,265.42 377.48,265.77 377.45,266.09 C 377.43,266.42 377.40,266.73 377.36,267.03 C 377.32,267.33 377.27,267.61 377.22,267.88 C 377.16,268.14 377.10,268.39 377.03,268.62 C 376.96,268.86 376.88,269.08 376.80,269.28 C 376.71,269.48 376.62,269.67 376.52,269.84 C 376.41,270.02 376.30,270.17 376.19,270.31 C 376.07,270.45 375.92,270.57 375.81,270.69 C 375.70,270.81 375.61,270.93 375.53,271.05 C 375.45,271.16 375.39,271.28 375.34,271.39 C 375.30,271.50 375.27,271.61 375.25,271.72 C 375.23,271.83 375.23,271.93 375.25,272.03 C 375.27,272.13 375.30,272.23 375.34,272.33 C 375.39,272.42 375.45,272.52 375.53,272.61 C 375.61,272.70 375.70,272.79 375.81,272.88 C 375.92,272.96 376.07,273.02 376.19,273.12 C 376.30,273.23 376.41,273.35 376.50,273.48 C 376.59,273.62 376.68,273.78 376.75,273.95 C 376.82,274.13 376.89,274.32 376.94,274.53 C 376.99,274.74 377.03,274.97 377.06,275.22 C 377.09,275.47 377.11,275.73 377.12,276.02 C 377.14,276.30 377.14,276.60 377.12,276.92 C 377.11,277.24 377.09,277.58 377.06,277.94 C 377.03,278.29 377.03,278.70 376.94,279.06 C 376.85,279.42 376.70,279.76 376.51,280.09 C 376.31,280.41 376.07,280.72 375.77,281.01 C 375.48,281.30 375.13,281.57 374.73,281.83 C 374.34,282.08 373.89,282.32 373.39,282.55 C 372.89,282.77 372.34,282.98 371.74,283.16 C 371.14,283.35 370.49,283.52 369.79,283.68 C 369.09,283.83 368.33,283.97 367.53,284.09 C 366.73,284.21 365.81,284.29 364.97,284.41 C 364.12,284.53 363.29,284.67 362.46,284.82 C 361.63,284.98 360.82,285.15 360.01,285.34 C 359.20,285.52 358.40,285.73 357.61,285.95 C 356.82,286.18 356.04,286.42 355.27,286.67 C 354.49,286.93 353.73,287.20 352.98,287.49 C 352.22,287.78 351.48,288.09 350.74,288.41 C 350.01,288.74 349.28,289.08 348.56,289.44 C 347.85,289.80 347.13,290.21 346.44,290.56 C 345.74,290.91 345.06,291.24 344.39,291.55 C 343.72,291.85 343.07,292.13 342.42,292.39 C 341.78,292.65 341.15,292.88 340.53,293.09 C 339.91,293.30 339.31,293.49 338.72,293.66 C 338.13,293.82 337.55,293.96 336.98,294.08 C 336.42,294.20 335.87,294.29 335.33,294.36 C 334.79,294.43 334.26,294.48 333.75,294.50 C 333.24,294.52 332.72,294.49 332.25,294.50 C 331.78,294.51 331.33,294.52 330.91,294.54 C 330.50,294.56 330.11,294.58 329.74,294.62 C 329.38,294.65 329.04,294.69 328.73,294.73 C 328.43,294.78 328.14,294.83 327.89,294.89 C 327.64,294.95 327.41,295.01 327.21,295.09 C 327.01,295.16 326.84,295.24 326.70,295.32 C 326.55,295.40 326.43,295.50 326.34,295.59 C 326.25,295.69 326.21,295.80 326.16,295.91 C 326.10,296.01 326.06,296.13 326.02,296.24 C 325.99,296.36 325.96,296.48 325.95,296.60 C 325.93,296.73 325.92,296.85 325.92,296.98 C 325.92,297.12 325.93,297.25 325.95,297.39 C 325.97,297.53 326.00,297.67 326.04,297.82 C 326.08,297.97 326.12,298.12 326.18,298.27 C 326.24,298.43 326.30,298.59 326.38,298.75 C 326.45,298.91 326.56,299.07 326.62,299.25 C 326.69,299.43 326.74,299.62 326.78,299.83 C 326.82,300.03 326.84,300.25 326.84,300.48 C 326.85,300.72 326.84,300.96 326.81,301.22 C 326.79,301.48 326.74,301.75 326.69,302.03 C 326.63,302.32 326.56,302.61 326.47,302.92 C 326.38,303.23 326.28,303.55 326.16,303.89 C 326.04,304.23 325.90,304.58 325.75,304.94 C 325.60,305.30 325.42,305.70 325.25,306.06 C 325.08,306.42 324.92,306.77 324.76,307.10 C 324.60,307.43 324.43,307.75 324.27,308.05 C 324.11,308.36 323.95,308.65 323.80,308.92 C 323.64,309.20 323.48,309.46 323.33,309.70 C 323.17,309.95 323.02,310.18 322.87,310.40 C 322.71,310.62 322.56,310.82 322.41,311.01 C 322.26,311.20 322.12,311.37 321.97,311.53 C 321.82,311.69 321.68,311.84 321.53,311.97 C 321.38,312.10 321.22,312.21 321.06,312.30 C 320.90,312.39 320.73,312.46 320.56,312.52 C 320.39,312.57 320.21,312.61 320.03,312.62 C 319.85,312.64 319.66,312.64 319.47,312.62 C 319.28,312.61 319.08,312.57 318.88,312.52 C 318.67,312.46 318.46,312.39 318.25,312.30 C 318.04,312.21 317.82,312.10 317.59,311.97 C 317.37,311.84 317.13,311.69 316.91,311.53 C 316.68,311.38 316.46,311.21 316.25,311.03 C 316.04,310.85 315.83,310.67 315.62,310.47 C 315.42,310.27 315.22,310.06 315.03,309.84 C 314.84,309.62 314.65,309.40 314.47,309.16 C 314.29,308.92 314.11,308.67 313.94,308.41 C 313.77,308.15 313.60,307.88 313.44,307.59 C 313.28,307.31 313.12,307.02 312.97,306.72 C 312.82,306.42 312.68,306.08 312.53,305.78 C 312.38,305.49 312.23,305.21 312.07,304.95 C 311.91,304.68 311.75,304.44 311.59,304.21 C 311.42,303.98 311.25,303.77 311.08,303.58 C 310.90,303.38 310.73,303.21 310.55,303.05 C 310.37,302.89 310.18,302.74 309.99,302.62 C 309.80,302.49 309.61,302.38 309.41,302.29 C 309.22,302.20 309.02,302.12 308.81,302.06 C 308.61,302.00 308.39,301.97 308.19,301.94 C 307.99,301.90 307.80,301.87 307.62,301.85 C 307.44,301.83 307.26,301.81 307.10,301.80 C 306.94,301.80 306.79,301.79 306.64,301.80 C 306.50,301.80 306.36,301.81 306.23,301.83 C 306.11,301.85 305.99,301.87 305.88,301.90 C 305.77,301.93 305.68,301.96 305.59,302.01 C 305.50,302.05 305.42,302.10 305.34,302.16 C 305.27,302.21 305.20,302.24 305.16,302.34 C 305.11,302.44 305.08,302.58 305.07,302.76 C 305.06,302.93 305.06,303.15 305.09,303.40 C 305.11,303.65 305.15,303.94 305.20,304.27 C 305.26,304.59 305.33,304.96 305.42,305.36 C 305.51,305.76 305.62,306.20 305.74,306.68 C 305.87,307.16 306.01,307.67 306.16,308.23 C 306.32,308.78 306.50,309.37 306.69,310.00 C 306.88,310.63 307.12,311.37 307.31,312.00 C 307.51,312.63 307.69,313.24 307.85,313.80 C 308.02,314.37 308.17,314.91 308.30,315.41 C 308.44,315.92 308.56,316.39 308.67,316.83 C 308.78,317.27 308.87,317.67 308.95,318.05 C 309.03,318.42 309.10,318.76 309.15,319.07 C 309.20,319.38 309.24,319.65 309.26,319.90 C 309.28,320.14 309.29,320.35 309.28,320.53 C 309.27,320.71 309.26,320.83 309.22,320.97 C 309.18,321.10 309.12,321.23 309.04,321.34 C 308.96,321.45 308.86,321.55 308.74,321.63 C 308.62,321.72 308.49,321.80 308.33,321.86 C 308.17,321.92 307.99,321.98 307.80,322.02 C 307.60,322.06 307.38,322.08 307.15,322.10 C 306.91,322.12 306.66,322.12 306.38,322.12 C 306.11,322.11 305.81,322.09 305.50,322.06 Z" fill="none" stroke="currentColor" stroke-width="1.5" stroke-linejoin="round" stroke-linecap="round" filter="url(#glow)" />
</svg>