<svg xmlns="http://www.w3.org/2000/svg" width="512" height="512" viewBox="270.02 237.80 140.08 92.40" preserveAspectRatio="xMidYMid meet">
  <defs>
    <filter id="glow" x="-30%" y="-30%" width="160%" height="160%">
      <feGaussianBlur in="SourceGraphic" stdDeviation="2.4" result="blur" />
      <feMerge>
        <feMergeNode in="blur" />
        <feMergeNode in="SourceGraphic" />
      </feMerge>
    </filter>
    <clipPath id="hull-clip">
      <path d="M 333.94,322.50 C 333.01,322.51 331.96,322.50 331.06,322.50 C 330.16,322.50 329.31,322.49 328.52,322.48 C 327.73,322.46 327.00,322.45 326.32,322.43 C 325.64,322.41 325.02,322.39 324.45,322.36 C 323.89,322.33 323.38,322.30 322.92,322.27 C 322.47,322.23 322.07,322.19 321.73,322.15 C 321.38,322.11 321.10,322.06 320.87,322.01 C 320.64,321.96 320.46,321.90 320.34,321.84 C 320.23,321.79 320.21,321.73 320.16,321.66 C 320.10,321.58 320.05,321.50 320.01,321.40 C 319.96,321.30 319.93,321.19 319.90,321.07 C 319.87,320.95 319.85,320.82 319.83,320.67 C 319.81,320.53 319.80,320.37 319.80,320.20 C 319.79,320.04 319.80,319.86 319.80,319.66 C 319.81,319.47 319.83,319.27 319.85,319.05 C 319.87,318.84 319.90,318.61 319.94,318.38 C 319.97,318.14 320.01,317.86 320.06,317.62 C 320.11,317.39 320.17,317.16 320.23,316.95 C 320.29,316.73 320.36,316.53 320.43,316.34 C 320.50,316.14 320.58,315.96 320.67,315.80 C 320.76,315.63 320.85,315.47 320.95,315.33 C 321.05,315.18 321.16,315.05 321.27,314.93 C 321.39,314.81 321.51,314.70 321.63,314.60 C 321.76,314.50 321.89,314.42 322.03,314.34 C 322.17,314.27 322.33,314.22 322.47,314.16 C 322.61,314.09 322.74,314.02 322.87,313.95 C 322.99,313.87 323.11,313.79 323.23,313.71 C 323.34,313.63 323.45,313.54 323.55,313.45 C 323.65,313.36 323.74,313.27 323.83,313.17 C 323.92,313.07 324.00,312.97 324.07,312.87 C 324.14,312.76 324.21,312.65 324.27,312.54 C 324.33,312.43 324.39,312.31 324.44,312.19 C 324.49,312.07 324.51,311.93 324.56,311.81 C 324.61,311.70 324.67,311.59 324.73,311.48 C 324.80,311.38 324.87,311.29 324.95,311.20 C 325.03,311.12 325.12,311.04 325.22,310.97 C 325.32,310.90 325.42,310.84 325.53,310.78 C 325.64,310.73 325.76,310.68 325.89,310.64 C 326.02,310.60 326.15,310.57 326.30,310.55 C 326.44,310.52 326.59,310.51 326.75,310.50 C 326.91,310.49 327.08,310.51 327.25,310.50 C 327.42,310.49 327.59,310.47 327.77,310.44 C 327.94,310.41 328.12,310.36 328.30,310.31 C 328.48,310.26 328.66,310.20 328.84,310.12 C 329.03,310.05 329.22,309.97 329.41,309.88 C 329.60,309.78 329.79,309.68 329.98,309.56 C 330.18,309.45 330.38,309.32 330.58,309.19 C 330.78,309.05 330.98,308.91 331.19,308.75 C 331.39,308.59 331.66,308.42 331.81,308.25 C 331.97,308.08 332.07,307.91 332.11,307.73 C 332.15,307.56 332.14,307.38 332.08,307.20 C 332.01,307.02 331.89,306.84 331.72,306.66 C 331.54,306.47 331.32,306.28 331.03,306.09 C 330.75,305.90 330.41,305.71 330.02,305.52 C 329.62,305.32 329.17,305.12 328.67,304.92 C 328.17,304.72 327.61,304.52 327.00,304.31 C 326.39,304.11 325.65,303.88 325.00,303.69 C 324.35,303.49 323.71,303.31 323.09,303.14 C 322.47,302.97 321.87,302.82 321.28,302.67 C 320.69,302.53 320.12,302.40 319.56,302.28 C 319.01,302.16 318.46,302.06 317.94,301.97 C 317.41,301.88 316.90,301.80 316.41,301.73 C 315.91,301.67 315.43,301.62 314.97,301.58 C 314.51,301.54 314.06,301.51 313.62,301.50 C 313.19,301.49 312.77,301.51 312.38,301.50 C 311.98,301.49 311.60,301.47 311.25,301.44 C 310.90,301.41 310.56,301.36 310.25,301.31 C 309.94,301.26 309.65,301.20 309.38,301.12 C 309.10,301.05 308.85,300.97 308.62,300.88 C 308.40,300.78 308.19,300.68 308.00,300.56 C 307.81,300.45 307.65,300.32 307.50,300.19 C 307.35,300.05 307.23,299.91 307.12,299.75 C 307.02,299.59 306.99,299.41 306.88,299.25 C 306.76,299.09 306.60,298.93 306.41,298.78 C 306.21,298.63 305.98,298.48 305.72,298.34 C 305.45,298.20 305.15,298.07 304.81,297.94 C 304.47,297.81 304.10,297.68 303.69,297.56 C 303.28,297.44 302.83,297.33 302.34,297.22 C 301.86,297.11 301.34,297.01 300.78,296.91 C 300.22,296.81 299.63,296.71 299.00,296.62 C 298.37,296.54 297.64,296.46 297.00,296.38 C 296.36,296.29 295.74,296.20 295.16,296.11 C 294.57,296.02 294.01,295.92 293.47,295.83 C 292.93,295.73 292.42,295.63 291.94,295.53 C 291.45,295.43 290.99,295.33 290.56,295.22 C 290.13,295.11 289.72,295.00 289.34,294.89 C 288.96,294.78 288.61,294.66 288.28,294.55 C 287.95,294.43 287.65,294.31 287.38,294.19 C 287.10,294.07 286.86,293.94 286.62,293.81 C 286.39,293.68 286.16,293.55 285.94,293.42 C 285.72,293.29 285.51,293.15 285.31,293.02 C 285.11,292.88 284.93,292.74 284.75,292.59 C 284.57,292.45 284.41,292.30 284.25,292.16 C 284.09,292.01 283.95,291.86 283.81,291.70 C 283.68,291.55 283.55,291.39 283.44,291.23 C 283.32,291.08 283.22,290.91 283.12,290.75 C 283.03,290.59 282.97,290.41 282.88,290.25 C 282.78,290.09 282.68,289.94 282.57,289.79 C 282.46,289.64 282.34,289.50 282.21,289.37 C 282.08,289.23 281.94,289.11 281.80,288.98 C 281.65,288.86 281.49,288.75 281.33,288.64 C 281.16,288.53 280.99,288.43 280.80,288.34 C 280.62,288.24 280.43,288.15 280.23,288.07 C 280.02,287.99 279.81,287.91 279.59,287.84 C 279.37,287.77 279.11,287.72 278.91,287.66 C 278.71,287.59 278.54,287.53 278.40,287.46 C 278.26,287.39 278.15,287.33 278.07,287.26 C 277.99,287.19 277.94,287.12 277.92,287.05 C 277.90,286.98 277.91,286.90 277.95,286.83 C 277.99,286.75 278.06,286.68 278.16,286.60 C 278.26,286.52 278.39,286.45 278.55,286.37 C 278.71,286.29 278.90,286.21 279.12,286.12 C 279.35,286.04 279.64,285.96 279.88,285.88 C 280.11,285.79 280.32,285.70 280.51,285.60 C 280.70,285.51 280.87,285.41 281.02,285.30 C 281.18,285.20 281.31,285.10 281.42,284.98 C 281.54,284.87 281.63,284.76 281.70,284.64 C 281.78,284.52 281.83,284.40 281.87,284.27 C 281.90,284.15 281.92,284.02 281.91,283.88 C 281.91,283.75 281.89,283.61 281.84,283.47 C 281.80,283.33 281.73,283.17 281.66,283.03 C 281.59,282.89 281.51,282.76 281.42,282.64 C 281.34,282.52 281.24,282.40 281.14,282.30 C 281.04,282.19 280.93,282.09 280.81,282.00 C 280.70,281.91 280.57,281.83 280.44,281.75 C 280.30,281.67 280.16,281.61 280.02,281.55 C 279.87,281.49 279.71,281.43 279.55,281.39 C 279.38,281.35 279.21,281.31 279.03,281.28 C 278.85,281.25 278.63,281.24 278.47,281.22 C 278.31,281.20 278.17,281.17 278.06,281.14 C 277.95,281.11 277.87,281.08 277.81,281.05 C 277.76,281.01 277.72,280.98 277.72,280.94 C 277.71,280.90 277.73,280.86 277.78,280.81 C 277.83,280.77 277.90,280.72 278.00,280.67 C 278.10,280.62 278.22,280.57 278.38,280.52 C 278.53,280.46 278.70,280.40 278.91,280.34 C 279.11,280.28 279.37,280.23 279.59,280.16 C 279.81,280.09 280.02,280.01 280.23,279.93 C 280.43,279.85 280.62,279.76 280.80,279.66 C 280.99,279.57 281.16,279.47 281.33,279.36 C 281.49,279.25 281.65,279.14 281.80,279.02 C 281.94,278.89 282.08,278.77 282.21,278.63 C 282.34,278.50 282.46,278.36 282.57,278.21 C 282.68,278.06 282.78,277.91 282.88,277.75 C 282.97,277.59 283.03,277.41 283.12,277.25 C 283.22,277.09 283.32,276.92 283.44,276.77 C 283.55,276.61 283.68,276.45 283.81,276.30 C 283.95,276.14 284.09,275.99 284.25,275.84 C 284.41,275.70 284.57,275.55 284.75,275.41 C 284.93,275.26 285.11,275.12 285.31,274.98 C 285.51,274.85 285.72,274.71 285.94,274.58 C 286.16,274.45 286.39,274.32 286.62,274.19 C 286.86,274.06 287.10,273.93 287.38,273.81 C 287.65,273.69 287.95,273.57 288.28,273.45 C 288.61,273.34 288.96,273.22 289.34,273.11 C 289.72,273.00 290.13,272.89 290.56,272.78 C 290.99,272.67 291.45,272.57 291.94,272.47 C 292.42,272.37 292.93,272.27 293.47,272.17 C 294.01,272.08 294.57,271.98 295.16,271.89 C 295.74,271.80 296.36,271.71 297.00,271.62 C 297.64,271.54 298.37,271.46 299.00,271.38 C 299.63,271.29 300.22,271.19 300.78,271.09 C 301.34,270.99 301.86,270.89 302.34,270.78 C 302.83,270.67 303.28,270.56 303.69,270.44 C 304.10,270.32 304.47,270.19 304.81,270.06 C 305.15,269.93 305.45,269.80 305.72,269.66 C 305.98,269.52 306.21,269.37 306.41,269.22 C 306.60,269.07 306.76,268.91 306.88,268.75 C 306.99,268.59 307.02,268.41 307.12,268.25 C 307.23,268.09 307.35,267.95 307.48,267.81 C 307.62,267.68 307.78,267.55 307.95,267.44 C 308.13,267.32 308.32,267.22 308.53,267.12 C 308.74,267.03 308.97,266.95 309.22,266.88 C 309.47,266.80 309.73,266.74 310.02,266.69 C 310.30,266.64 310.60,266.59 310.92,266.56 C 311.24,266.53 311.58,266.51 311.94,266.50 C 312.29,266.49 312.67,266.51 313.06,266.50 C 313.46,266.49 313.88,266.46 314.31,266.42 C 314.75,266.38 315.21,266.33 315.69,266.27 C 316.17,266.20 316.67,266.12 317.19,266.03 C 317.71,265.94 318.25,265.84 318.81,265.72 C 319.38,265.60 319.96,265.47 320.56,265.33 C 321.17,265.18 321.79,265.03 322.44,264.86 C 323.08,264.69 323.75,264.51 324.44,264.31 C 325.12,264.12 325.90,263.89 326.56,263.69 C 327.22,263.49 327.84,263.29 328.41,263.11 C 328.97,262.92 329.49,262.75 329.97,262.58 C 330.44,262.41 330.87,262.25 331.25,262.09 C 331.63,261.94 331.96,261.79 332.25,261.66 C 332.54,261.52 332.78,261.39 332.97,261.27 C 333.16,261.14 333.31,261.03 333.41,260.92 C 333.51,260.82 333.56,260.72 333.56,260.62 C 333.57,260.53 333.50,260.46 333.44,260.38 C 333.38,260.29 333.30,260.21 333.20,260.12 C 333.11,260.04 332.99,259.96 332.86,259.88 C 332.73,259.79 332.58,259.71 332.41,259.62 C 332.24,259.54 332.05,259.46 331.84,259.38 C 331.64,259.29 331.41,259.21 331.17,259.12 C 330.93,259.04 330.67,258.96 330.39,258.88 C 330.11,258.79 329.82,258.71 329.50,258.62 C 329.18,258.54 328.81,258.46 328.50,258.38 C 328.19,258.29 327.89,258.20 327.62,258.12 C 327.34,258.03 327.09,257.94 326.85,257.85 C 326.62,257.76 326.40,257.67 326.20,257.58 C 326.01,257.49 325.83,257.39 325.67,257.30 C 325.51,257.20 325.38,257.11 325.26,257.01 C 325.14,256.91 325.04,256.81 324.96,256.71 C 324.88,256.61 324.82,256.51 324.78,256.41 C 324.74,256.30 324.75,256.19 324.72,256.09 C 324.69,255.99 324.66,255.90 324.62,255.80 C 324.58,255.71 324.53,255.62 324.48,255.54 C 324.42,255.45 324.36,255.37 324.30,255.30 C 324.23,255.22 324.16,255.15 324.08,255.08 C 324.00,255.01 323.91,254.94 323.82,254.88 C 323.73,254.82 323.63,254.76 323.52,254.71 C 323.42,254.66 323.31,254.61 323.19,254.56 C 323.07,254.52 322.93,254.49 322.81,254.44 C 322.69,254.39 322.57,254.33 322.45,254.27 C 322.34,254.20 322.22,254.13 322.11,254.05 C 322.00,253.97 321.89,253.88 321.78,253.78 C 321.67,253.68 321.57,253.58 321.47,253.47 C 321.37,253.36 321.27,253.24 321.17,253.11 C 321.08,252.98 320.98,252.85 320.89,252.70 C 320.80,252.56 320.71,252.41 320.62,252.25 C 320.54,252.09 320.45,251.92 320.38,251.75 C 320.30,251.58 320.24,251.41 320.18,251.24 C 320.12,251.07 320.08,250.90 320.04,250.73 C 320.00,250.55 319.97,250.38 319.95,250.20 C 319.93,250.03 319.92,249.85 319.92,249.67 C 319.92,249.49 319.93,249.31 319.95,249.13 C 319.96,248.95 319.99,248.77 320.02,248.59 C 320.06,248.40 320.10,248.22 320.16,248.03 C 320.21,247.85 320.23,247.64 320.34,247.47 C 320.46,247.29 320.64,247.13 320.87,246.98 C 321.10,246.82 321.38,246.68 321.73,246.55 C 322.07,246.43 322.47,246.31 322.92,246.20 C 323.38,246.10 323.89,246.00 324.45,245.92 C 325.02,245.84 325.64,245.77 326.32,245.71 C 327.00,245.65 327.73,245.61 328.52,245.57 C 329.31,245.54 330.16,245.51 331.06,245.50 C 331.96,245.49 333.02,245.49 333.94,245.50 C 334.86,245.51 335.74,245.52 336.58,245.53 C 337.42,245.55 338.22,245.57 338.98,245.59 C 339.75,245.62 340.47,245.65 341.16,245.69 C 341.84,245.72 342.49,245.77 343.09,245.81 C 343.70,245.86 344.27,245.91 344.80,245.97 C 345.33,246.03 345.82,246.09 346.27,246.16 C 346.72,246.22 347.13,246.30 347.50,246.38 C 347.87,246.45 348.18,246.54 348.50,246.62 C 348.82,246.71 349.12,246.79 349.40,246.87 C 349.68,246.95 349.95,247.02 350.20,247.10 C 350.44,247.18 350.68,247.25 350.89,247.33 C 351.11,247.40 351.30,247.48 351.48,247.55 C 351.67,247.62 351.83,247.69 351.98,247.76 C 352.12,247.83 352.25,247.89 352.37,247.96 C 352.48,248.03 352.58,248.09 352.66,248.16 C 352.74,248.22 352.79,248.28 352.84,248.34 C 352.90,248.41 352.94,248.47 352.98,248.54 C 353.01,248.61 353.04,248.67 353.05,248.74 C 353.07,248.81 353.08,248.88 353.08,248.95 C 353.08,249.02 353.07,249.10 353.05,249.17 C 353.03,249.25 353.00,249.32 352.96,249.40 C 352.92,249.48 352.88,249.55 352.82,249.63 C 352.76,249.71 352.70,249.79 352.62,249.88 C 352.55,249.96 352.45,250.03 352.38,250.12 C 352.30,250.22 352.23,250.32 352.17,250.44 C 352.11,250.55 352.06,250.68 352.02,250.81 C 351.97,250.95 351.93,251.09 351.91,251.25 C 351.88,251.41 351.86,251.57 351.84,251.75 C 351.83,251.93 351.83,252.11 351.83,252.31 C 351.83,252.51 351.84,252.72 351.86,252.94 C 351.88,253.16 351.90,253.39 351.94,253.62 C 351.97,253.86 352.03,254.13 352.06,254.38 C 352.10,254.62 352.12,254.85 352.13,255.07 C 352.15,255.29 352.15,255.51 352.15,255.71 C 352.14,255.92 352.13,256.11 352.11,256.30 C 352.09,256.48 352.06,256.66 352.02,256.83 C 351.98,257.00 351.93,257.15 351.87,257.30 C 351.81,257.45 351.74,257.60 351.66,257.73 C 351.59,257.86 351.50,257.98 351.41,258.09 C 351.31,258.21 351.21,258.31 351.09,258.41 C 350.98,258.50 350.85,258.60 350.71,258.68 C 350.57,258.76 350.42,258.84 350.26,258.91 C 350.10,258.99 349.92,259.05 349.73,259.11 C 349.55,259.17 349.35,259.22 349.14,259.27 C 348.93,259.31 348.71,259.35 348.48,259.38 C 348.24,259.42 348.00,259.44 347.74,259.46 C 347.49,259.48 347.22,259.49 346.94,259.50 C 346.66,259.51 346.34,259.49 346.06,259.50 C 345.79,259.51 345.53,259.52 345.28,259.53 C 345.04,259.55 344.81,259.57 344.59,259.59 C 344.38,259.62 344.18,259.65 344.00,259.69 C 343.82,259.72 343.65,259.77 343.50,259.81 C 343.35,259.86 343.21,259.91 343.09,259.97 C 342.97,260.03 342.87,260.09 342.78,260.16 C 342.69,260.22 342.62,260.30 342.56,260.38 C 342.51,260.45 342.41,260.55 342.44,260.62 C 342.47,260.70 342.57,260.76 342.73,260.81 C 342.90,260.86 343.14,260.91 343.45,260.94 C 343.76,260.97 344.14,260.99 344.59,261.00 C 345.04,261.01 345.57,261.01 346.16,261.00 C 346.75,260.99 347.41,260.97 348.14,260.94 C 348.87,260.91 349.67,260.86 350.55,260.81 C 351.42,260.76 352.36,260.70 353.38,260.62 C 354.39,260.55 355.60,260.43 356.62,260.38 C 357.65,260.32 358.60,260.28 359.50,260.27 C 360.40,260.25 361.23,260.26 362.00,260.30 C 362.77,260.33 363.48,260.39 364.12,260.47 C 364.77,260.55 365.35,260.65 365.88,260.78 C 366.40,260.91 366.85,261.06 367.25,261.23 C 367.65,261.41 367.98,261.61 368.25,261.83 C 368.52,262.05 368.73,262.29 368.88,262.56 C 369.02,262.83 369.02,263.16 369.12,263.44 C 369.23,263.71 369.36,263.97 369.52,264.22 C 369.67,264.46 369.85,264.69 370.05,264.91 C 370.25,265.12 370.47,265.32 370.72,265.50 C 370.97,265.68 371.24,265.85 371.53,266.00 C 371.83,266.15 372.14,266.29 372.48,266.41 C 372.83,266.53 373.19,266.63 373.58,266.72 C 373.97,266.81 374.38,266.88 374.81,266.94 C 375.25,266.99 375.74,267.02 376.19,267.06 C 376.63,267.11 377.07,267.16 377.48,267.22 C 377.90,267.28 378.31,267.34 378.70,267.41 C 379.10,267.47 379.48,267.55 379.84,267.62 C 380.21,267.70 380.57,267.79 380.91,267.88 C 381.25,267.96 381.58,268.06 381.89,268.16 C 382.21,268.26 382.51,268.36 382.80,268.47 C 383.09,268.58 383.36,268.69 383.62,268.81 C 383.89,268.93 384.13,269.07 384.38,269.19 C 384.62,269.30 384.85,269.41 385.08,269.52 C 385.30,269.62 385.52,269.71 385.73,269.80 C 385.95,269.88 386.15,269.96 386.34,270.03 C 386.54,270.10 386.73,270.16 386.91,270.22 C 387.09,270.27 387.26,270.32 387.42,270.36 C 387.59,270.40 387.74,270.43 387.89,270.45 C 388.04,270.48 388.18,270.49 388.31,270.50 C 388.45,270.51 388.55,270.51 388.69,270.50 C 388.82,270.49 388.96,270.47 389.11,270.44 C 389.26,270.41 389.41,270.36 389.58,270.31 C 389.74,270.26 389.91,270.20 390.09,270.12 C 390.27,270.05 390.46,269.97 390.66,269.88 C 390.85,269.78 391.05,269.68 391.27,269.56 C 391.48,269.45 391.70,269.32 391.92,269.19 C 392.15,269.05 392.38,268.91 392.62,268.75 C 392.87,268.59 393.13,268.42 393.38,268.25 C 393.62,268.08 393.86,267.91 394.09,267.73 C 394.33,267.56 394.56,267.38 394.78,267.20 C 395.01,267.02 395.22,266.84 395.44,266.66 C 395.65,266.47 395.86,266.28 396.06,266.09 C 396.27,265.90 396.46,265.71 396.66,265.52 C 396.85,265.32 397.04,265.12 397.22,264.92 C 397.40,264.72 397.58,264.52 397.75,264.31 C 397.92,264.11 398.08,263.88 398.25,263.69 C 398.42,263.50 398.58,263.32 398.74,263.16 C 398.90,263.01 399.07,262.87 399.23,262.74 C 399.39,262.62 399.55,262.51 399.70,262.42 C 399.86,262.33 400.02,262.26 400.17,262.20 C 400.33,262.15 400.48,262.11 400.63,262.09 C 400.79,262.06 400.94,262.06 401.09,262.07 C 401.24,262.08 401.38,262.11 401.53,262.16 C 401.68,262.20 401.85,262.26 401.97,262.34 C 402.09,262.43 402.19,262.54 402.26,262.66 C 402.33,262.79 402.38,262.94 402.40,263.12 C 402.42,263.29 402.42,263.49 402.39,263.70 C 402.36,263.92 402.31,264.16 402.23,264.42 C 402.16,264.68 402.06,264.97 401.93,265.27 C 401.80,265.58 401.65,265.91 401.48,266.26 C 401.30,266.61 401.10,266.98 400.88,267.38 C 400.65,267.77 400.35,268.23 400.12,268.62 C 399.90,269.02 399.70,269.40 399.52,269.77 C 399.34,270.13 399.18,270.47 399.05,270.80 C 398.91,271.12 398.80,271.43 398.72,271.72 C 398.63,272.01 398.57,272.28 398.53,272.53 C 398.49,272.78 398.48,273.02 398.48,273.23 C 398.49,273.45 398.52,273.65 398.58,273.83 C 398.63,274.01 398.71,274.17 398.81,274.31 C 398.91,274.46 399.07,274.53 399.19,274.69 C 399.31,274.84 399.42,275.02 399.53,275.23 C 399.64,275.45 399.74,275.68 399.84,275.95 C 399.94,276.22 400.04,276.52 400.12,276.84 C 400.21,277.17 400.30,277.52 400.38,277.91 C 400.45,278.29 400.53,278.70 400.59,279.14 C 400.66,279.58 400.72,280.05 400.78,280.55 C 400.84,281.04 400.89,281.57 400.94,282.12 C 400.98,282.68 401.03,283.32 401.06,283.88 C 401.09,284.43 401.11,284.97 401.11,285.48 C 401.11,286.00 401.10,286.49 401.08,286.95 C 401.05,287.42 401.02,287.86 400.97,288.28 C 400.92,288.70 400.86,289.10 400.78,289.47 C 400.71,289.84 400.62,290.19 400.52,290.52 C 400.41,290.84 400.30,291.14 400.17,291.42 C 400.04,291.70 399.90,291.96 399.75,292.19 C 399.60,292.42 399.39,292.59 399.25,292.81 C 399.11,293.03 398.99,293.27 398.91,293.52 C 398.82,293.76 398.76,294.02 398.72,294.30 C 398.68,294.57 398.67,294.86 398.69,295.16 C 398.70,295.46 398.74,295.77 398.81,296.09 C 398.88,296.42 398.97,296.76 399.09,297.11 C 399.21,297.46 399.36,297.83 399.53,298.20 C 399.70,298.58 399.90,298.97 400.12,299.38 C 400.35,299.78 400.65,300.23 400.88,300.62 C 401.10,301.02 401.29,301.38 401.46,301.73 C 401.63,302.07 401.77,302.39 401.88,302.68 C 402.00,302.97 402.08,303.24 402.14,303.48 C 402.20,303.73 402.23,303.95 402.23,304.14 C 402.24,304.33 402.21,304.50 402.16,304.65 C 402.11,304.79 402.04,304.91 401.93,305.01 C 401.82,305.10 401.69,305.17 401.53,305.22 C 401.37,305.26 401.15,305.27 400.97,305.28 C 400.79,305.29 400.61,305.29 400.43,305.27 C 400.25,305.26 400.08,305.23 399.91,305.20 C 399.75,305.16 399.58,305.11 399.42,305.05 C 399.26,304.99 399.11,304.91 398.95,304.83 C 398.80,304.74 398.65,304.65 398.51,304.54 C 398.36,304.43 398.22,304.31 398.09,304.18 C 397.95,304.05 397.82,303.90 397.69,303.75 C 397.56,303.60 397.45,303.42 397.31,303.25 C 397.18,303.08 397.04,302.92 396.89,302.75 C 396.74,302.58 396.59,302.42 396.42,302.25 C 396.26,302.08 396.09,301.92 395.91,301.75 C 395.73,301.58 395.54,301.42 395.34,301.25 C 395.15,301.08 394.95,300.92 394.73,300.75 C 394.52,300.58 394.30,300.42 394.08,300.25 C 393.85,300.08 393.62,299.92 393.38,299.75 C 393.13,299.58 392.87,299.41 392.62,299.25 C 392.38,299.09 392.15,298.95 391.92,298.81 C 391.70,298.68 391.48,298.55 391.27,298.44 C 391.05,298.32 390.85,298.22 390.66,298.12 C 390.46,298.03 390.27,297.95 390.09,297.88 C 389.91,297.80 389.74,297.74 389.58,297.69 C 389.41,297.64 389.26,297.59 389.11,297.56 C 388.96,297.53 388.82,297.51 388.69,297.50 C 388.55,297.49 388.45,297.49 388.31,297.50 C 388.18,297.51 388.04,297.52 387.89,297.55 C 387.74,297.57 387.59,297.60 387.42,297.64 C 387.26,297.68 387.09,297.73 386.91,297.78 C 386.73,297.84 386.54,297.90 386.34,297.97 C 386.15,298.04 385.95,298.12 385.73,298.20 C 385.52,298.29 385.30,298.38 385.08,298.48 C 384.85,298.59 384.62,298.70 384.38,298.81 C 384.13,298.93 383.89,299.07 383.62,299.19 C 383.36,299.31 383.08,299.42 382.78,299.53 C 382.48,299.64 382.17,299.74 381.84,299.84 C 381.52,299.94 381.17,300.04 380.81,300.12 C 380.45,300.21 380.08,300.30 379.69,300.38 C 379.30,300.45 378.89,300.53 378.47,300.59 C 378.05,300.66 377.61,300.72 377.16,300.78 C 376.70,300.84 376.23,300.89 375.75,300.94 C 375.27,300.98 374.72,301.01 374.25,301.06 C 373.78,301.12 373.35,301.18 372.95,301.26 C 372.54,301.33 372.17,301.42 371.84,301.52 C 371.50,301.62 371.19,301.74 370.92,301.86 C 370.65,301.98 370.41,302.12 370.20,302.27 C 370.00,302.41 369.82,302.57 369.68,302.74 C 369.54,302.91 369.43,303.10 369.35,303.29 C 369.27,303.48 369.23,303.69 369.22,303.91 C 369.21,304.12 369.27,304.38 369.28,304.59 C 369.30,304.81 369.31,305.02 369.31,305.22 C 369.32,305.42 369.32,305.60 369.31,305.78 C 369.31,305.96 369.30,306.12 369.28,306.28 C 369.27,306.44 369.24,306.58 369.22,306.72 C 369.19,306.85 369.16,306.98 369.12,307.09 C 369.09,307.21 369.05,307.31 369.00,307.41 C 368.95,307.50 368.90,307.58 368.84,307.66 C 368.79,307.73 368.78,307.79 368.66,307.84 C 368.53,307.90 368.34,307.94 368.09,307.98 C 367.83,308.01 367.51,308.04 367.13,308.05 C 366.75,308.07 366.31,308.08 365.80,308.08 C 365.29,308.08 364.71,308.07 364.08,308.05 C 363.44,308.03 362.74,308.00 361.98,307.96 C 361.21,307.92 360.38,307.88 359.49,307.82 C 358.60,307.76 357.64,307.70 356.62,307.62 C 355.61,307.55 354.39,307.45 353.38,307.38 C 352.36,307.30 351.42,307.24 350.55,307.19 C 349.67,307.14 348.87,307.09 348.14,307.06 C 347.41,307.03 346.75,307.01 346.16,307.00 C 345.57,306.99 345.04,306.99 344.59,307.00 C 344.14,307.01 343.76,307.03 343.45,307.06 C 343.14,307.09 342.90,307.14 342.73,307.19 C 342.57,307.24 342.47,307.30 342.44,307.38 C 342.41,307.45 342.51,307.55 342.56,307.62 C 342.62,307.70 342.69,307.78 342.78,307.84 C 342.87,307.91 342.97,307.97 343.09,308.03 C 343.21,308.09 343.35,308.14 343.50,308.19 C 343.65,308.23 343.82,308.28 344.00,308.31 C 344.18,308.35 344.38,308.38 344.59,308.41 C 344.81,308.43 345.04,308.45 345.28,308.47 C 345.53,308.48 345.79,308.49 346.06,308.50 C 346.34,308.51 346.66,308.49 346.94,308.50 C 347.22,308.51 347.49,308.52 347.74,308.54 C 348.00,308.56 348.24,308.58 348.48,308.62 C 348.71,308.65 348.93,308.69 349.14,308.73 C 349.35,308.78 349.55,308.83 349.73,308.89 C 349.92,308.95 350.10,309.01 350.26,309.09 C 350.42,309.16 350.57,309.24 350.71,309.32 C 350.85,309.40 350.98,309.50 351.09,309.59 C 351.21,309.69 351.31,309.79 351.41,309.91 C 351.50,310.02 351.59,310.14 351.66,310.27 C 351.74,310.40 351.81,310.55 351.87,310.70 C 351.93,310.85 351.98,311.00 352.02,311.17 C 352.06,311.34 352.09,311.52 352.11,311.70 C 352.13,311.89 352.14,312.08 352.15,312.29 C 352.15,312.49 352.15,312.71 352.13,312.93 C 352.12,313.15 352.10,313.38 352.06,313.62 C 352.03,313.87 351.97,314.14 351.94,314.38 C 351.90,314.61 351.88,314.84 351.86,315.06 C 351.84,315.28 351.83,315.49 351.83,315.69 C 351.83,315.89 351.83,316.07 351.84,316.25 C 351.86,316.43 351.88,316.59 351.91,316.75 C 351.93,316.91 351.97,317.05 352.02,317.19 C 352.06,317.32 352.11,317.45 352.17,317.56 C 352.23,317.68 352.30,317.78 352.38,317.88 C 352.45,317.97 352.57,318.04 352.62,318.12 C 352.68,318.21 352.70,318.30 352.70,318.40 C 352.69,318.49 352.65,318.59 352.59,318.70 C 352.52,318.80 352.42,318.90 352.30,319.02 C 352.17,319.13 352.01,319.24 351.83,319.36 C 351.64,319.48 351.43,319.60 351.18,319.73 C 350.93,319.85 350.66,319.98 350.35,320.12 C 350.05,320.25 349.71,320.39 349.34,320.53 C 348.98,320.67 348.59,320.83 348.16,320.97 C 347.73,321.11 347.26,321.23 346.76,321.35 C 346.26,321.47 345.72,321.58 345.15,321.68 C 344.58,321.78 343.97,321.87 343.33,321.95 C 342.69,322.04 342.01,322.11 341.30,322.17 C 340.58,322.24 339.84,322.29 339.05,322.34 C 338.27,322.38 337.45,322.42 336.60,322.45 C 335.75,322.47 334.86,322.49 333.94,322.50 Z" />
    </clipPath>
  </defs>
  <path d="M 333.94,322.50 C 333.01,322.51 331.96,322.50 331.06,322.50 C 330.16,322.50 329.31,322.49 328.52,322.48 C 327.73,322.46 327.00,322.45 326.32,322.43 C 325.64,322.41 325.02,322.39 324.45,322.36 C 323.89,322.33 323.38,322.30 322.92,322.27 C 322.47,322.23 322.07,322.19 321.73,322.15 C 321.38,322.11 321.10,322.06 320.87,322.01 C 320.64,321.96 320.46,321.90 320.34,321.84 C 320.23,321.79 320.21,321.73 320.16,321.66 C 320.10,321.58 320.05,321.50 320.01,321.40 C 319.96,321.30 319.93,321.19 319.90,321.07 C 319.87,320.95 319.85,320.82 319.83,320.67 C 319.81,320.53 319.80,320.37 319.80,320.20 C 319.79,320.04 319.80,319.86 319.80,319.66 C 319.81,319.47 319.83,319.27 319.85,319.05 C 319.87,318.84 319.90,318.61 319.94,318.38 C 319.97,318.14 320.01,317.86 320.06,317.62 C 320.11,317.39 320.17,317.16 320.23,316.95 C 320.29,316.73 320.36,316.53 320.43,316.34 C 320.50,316.14 320.58,315.96 320.67,315.80 C 320.76,315.63 320.85,315.47 320.95,315.33 C 321.05,315.18 321.16,315.05 321.27,314.93 C 321.39,314.81 321.51,314.70 321.63,314.60 C 321.76,314.50 321.89,314.42 322.03,314.34 C 322.17,314.27 322.33,314.22 322.47,314.16 C 322.61,314.09 322.74,314.02 322.87,313.95 C 322.99,313.87 323.11,313.79 323.23,313.71 C 323.34,313.63 323.45,313.54 323.55,313.45 C 323.65,313.36 323.74,313.27 323.83,313.17 C 323.92,313.07 324.00,312.97 324.07,312.87 C 324.14,312.76 324.21,312.65 324.27,312.54 C 324.33,312.43 324.39,312.31 324.44,312.19 C 324.49,312.07 324.51,311.93 324.56,311.81 C 324.61,311.70 324.67,311.59 324.73,311.48 C 324.80,311.38 324.87,311.29 324.95,311.20 C 325.03,311.12 325.12,311.04 325.22,310.97 C 325.32,310.90 325.42,310.84 325.53,310.78 C 325.64,310.73 325.76,310.68 325.89,310.64 C 326.02,310.60 326.15,310.57 326.30,310.55 C 326.44,310.52 326.59,310.51 326.75,310.50 C 326.91,310.49 327.08,310.51 327.25,310.50 C 327.42,310.49 327.59,310.47 327.77,310.44 C 327.94,310.41 328.12,310.36 328.30,310.31 C 328.48,310.26 328.66,310.20 328.84,310.12 C 329.03,310.05 329.22,309.97 329.41,309.88 C 329.60,309.78 329.79,309.68 329.98,309.56 C 330.18,309.45 330.38,309.32 330.58,309.19 C 330.78,309.05 330.98,308.91 331.19,308.75 C 331.39,308.59 331.66,308.42 331.81,308.25 C 331.97,308.08 332.07,307.91 332.11,307.73 C 332.15,307.56 332.14,307.38 332.08,307.20 C 332.01,307.02 331.89,306.84 331.72,306.66 C 331.54,306.47 331.32,306.28 331.03,306.09 C 330.75,305.90 330.41,305.71 330.02,305.52 C 329.62,305.32 329.17,305.12 328.67,304.92 C 328.17,304.72 327.61,304.52 327.00,304.31 C 326.39,304.11 325.65,303.88 325.00,303.69 C 324.35,303.49 323.71,303.31 323.09,303.14 C 322.47,302.97 321.87,302.82 321.28,302.67 C 320.69,302.53 320.12,302.40 319.56,302.28 C 319.01,302.16 318.46,302.06 317.94,301.97 C 317.41,301.88 316.90,301.80 316.41,301.73 C 315.91,301.67 315.43,301.62 314.97,301.58 C 314.51,301.54 314.06,301.51 313.62,301.50 C 313.19,301.49 312.77,301.51 312.38,301.50 C 311.98,301.49 311.60,301.47 311.25,301.44 C 310.90,301.41 310.56,301.36 310.25,301.31 C 309.94,301.26 309.65,301.20 309.38,301.12 C 309.10,301.05 308.85,300.97 308.62,300.88 C 308.40,300.78 308.19,300.68 308.00,300.56 C 307.81,300.45 307.65,300.32 307.50,300.19 C 307.35,300.05 307.23,299.91 307.12,299.75 C 307.02,299.59 306.99,299.41 306.88,299.25 C 306.76,299.09 306.60,298.93 306.41,298.78 C 306.21,298.63 305.98,298.48 305.72,298.34 C 305.45,298.20 305.15,298.07 304.81,297.94 C 304.47,297.81 304.10,297.68 303.69,297.56 C 303.28,297.44 302.83,297.33 302.34,297.22 C 301.86,297.11 301.34,297.01 300.78,296.91 C 300.22,296.81 299.63,296.71 299.00,296.62 C 298.37,296.54 297.64,296.46 297.00,296.38 C 296.36,296.29 295.74,296.20 295.16,296.11 C 294.57,296.02 294.01,295.92 293.47,295.83 C 292.93,295.73 292.42,295.63 291.94,295.53 C 291.45,295.43 290.99,295.33 290.56,295.22 C 290.13,295.11 289.72,295.00 289.34,294.89 C 288.96,294.78 288.61,294.66 288.28,294.55 C 287.95,294.43 287.65,294.31 287.38,294.19 C 287.10,294.07 286.86,293.94 286.62,293.81 C 286.39,293.68 286.16,293.55 285.94,293.42 C 285.72,293.29 285.51,293.15 285.31,293.02 C 285.11,292.88 284.93,292.74 284.75,292.59 C 284.57,292.45 284.41,292.30 284.25,292.16 C 284.09,292.01 283.95,291.86 283.81,291.70 C 283.68,291.55 283.55,291.39 283.44,291.23 C 283.32,291.08 283.22,290.91 283.12,290.75 C 283.03,290.59 282.97,290.41 282.88,290.25 C 282.78,290.09 282.68,289.94 282.57,289.79 C 282.46,289.64 282.34,289.50 282.21,289.37 C 282.08,289.23 281.94,289.11 281.80,288.98 C 281.65,288.86 281.49,288.75 281.33,288.64 C 281.16,288.53 280.99,288.43 280.80,288.34 C 280.62,288.24 280.43,288.15 280.23,288.07 C 280.02,287.99 279.81,287.91 279.59,287.84 C 279.37,287.77 279.11,287.72 278.91,287.66 C 278.71,287.59 278.54,287.53 278.40,287.46 C 278.26,287.39 278.15,287.33 278.07,287.26 C 277.99,287.19 277.94,287.12 277.92,287.05 C 277.90,286.98 277.91,286.90 277.95,286.83 C 277.99,286.75 278.06,286.68 278.16,286.60 C 278.26,286.52 278.39,286.45 278.55,286.37 C 278.71,286.29 278.90,286.21 279.12,286.12 C 279.35,286.04 279.64,285.96 279.88,285.88 C 280.11,285.79 280.32,285.70 280.51,285.60 C 280.70,285.51 280.87,285.41 281.02,285.30 C 281.18,285.20 281.31,285.10 281.42,284.98 C 281.54,284.87 281.63,284.76 281.70,284.64 C 281.78,284.52 281.83,284.40 281.87,284.27 C 281.90,284.15 281.92,284.02 281.91,283.88 C 281.91,283.75 281.89,283.61 281.84,283.47 C 281.80,283.33 281.73,283.17 281.66,283.03 C 281.59,282.89 281.51,282.76 281.42,282.64 C 281.34,282.52 281.24,282.40 281.14,282.30 C 281.04,282.19 280.93,282.09 280.81,282.00 C 280.70,281.91 280.57,281.83 280.44,281.75 C 280.30,281.67 280.16,281.61 280.02,281.55 C 279.87,281.49 279.71,281.43 279.55,281.39 C 279.38,281.35 279.21,281.31 279.03,281.28 C 278.85,281.25 278.63,281.24 278.47,281.22 C 278.31,281.20 278.17,281.17 278.06,281.14 C 277.95,281.11 277.87,281.08 277.81,281.05 C 277.76,281.01 277.72,280.98 277.72,280.94 C 277.71,280.90 277.73,280.86 277.78,280.81 C 277.83,280.77 277.90,280.72 278.00,280.67 C 278.10,280.62 278.22,280.57 278.38,280.52 C 278.53,280.46 278.70,280.40 278.91,280.34 C 279.11,280.28 279.37,280.23 279.59,280.16 C 279.81,280.09 280.02,280.01 280.23,279.93 C 280.43,279.85 280.62,279.76 280.80,279.66 C 280.99,279.57 281.16,279.47 281.33,279.36 C 281.49,279.25 281.65,279.14 281.80,279.02 C 281.94,278.89 282.08,278.77 282.21,278.63 C 282.34,278.50 282.46,278.36 282.57,278.21 C 282.68,278.06 282.78,277.91 282.88,277.75 C 282.97,277.59 283.03,277.41 283.12,277.25 C 283.22,277.09 283.32,276.92 283.44,276.77 C 283.55,276.61 283.68,276.45 283.81,276.30 C 283.95,276.14 284.09,275.99 284.25,275.84 C 284.41,275.70 284.57,275.55 284.75,275.41 C 284.93,275.26 285.11,275.12 285.31,274.98 C 285.51,274.85 285.72,274.71 285.94,274.58 C 286.16,274.45 286.39,274.32 286.62,274.19 C 286.86,274.06 287.10,273.93 287.38,273.81 C 287.65,273.69 287.95,273.57 288.28,273.45 C 288.61,273.34 288.96,273.22 289.34,273.11 C 289.72,273.00 290.13,272.89 290.56,272.78 C 290.99,272.67 291.45,272.57 291.94,272.47 C 292.42,272.37 292.93,272.27 293.47,272.17 C 294.01,272.08 294.57,271.98 295.16,271.89 C 295.74,271.80 296.36,271.71 297.00,271.62 C 297.64,271.54 298.37,271.46 299.00,271.38 C 299.63,271.29 300.22,271.19 300.78,271.09 C 301.34,270.99 301.86,270.89 302.34,270.78 C 302.83,270.67 303.28,270.56 303.69,270.44 C 304.10,270.32 304.47,270.19 304.81,270.06 C 305.15,269.93 305.45,269.80 305.72,269.66 C 305.98,269.52 306.21,269.37 306.41,269.22 C 306.60,269.07 306.76,268.91 306.88,268.75 C 306.99,268.59 307.02,268.41 307.12,268.25 C 307.23,268.09 307.35,267.95 307.48,267.81 C 307.62,267.68 307.78,267.55 307.95,267.44 C 308.13,267.32 308.32,267.22 308.53,267.12 C 308.74,267.03 308.97,266.95 309.22,266.88 C 309.47,266.80 309.73,266.74 310.02,266.69 C 310.30,266.64 310.60,266.59 310.92,266.56 C 311.24,266.53 311.58,266.51 311.94,266.50 C 312.29,266.49 312.67,266.51 313.06,266.50 C 313.46,266.49 313.88,266.46 314.31,266.42 C 314.75,266.38 315.21,266.33 315.69,266.27 C 316.17,266.20 316.67,266.12 317.19,266.03 C 317.71,265.94 318.25,265.84 318.81,265.72 C 319.38,265.60 319.96,265.47 320.56,265.33 C 321.17,265.18 321.79,265.03 322.44,264.86 C 323.08,264.69 323.75,264.51 324.44,264.31 C 325.12,264.12 325.90,263.89 326.56,263.69 C 327.22,263.49 327.84,263.29 328.41,263.11 C 328.97,262.92 329.49,262.75 329.97,262.58 C 330.44,262.41 330.87,262.25 331.25,262.09 C 331.63,261.94 331.96,261.79 332.25,261.66 C 332.54,261.52 332.78,261.39 332.97,261.27 C 333.16,261.14 333.31,261.03 333.41,260.92 C 333.51,260.82 333.56,260.72 333.56,260.62 C 333.57,260.53 333.50,260.46 333.44,260.38 C 333.38,260.29 333.30,260.21 333.20,260.12 C 333.11,260.04 332.99,259.96 332.86,259.88 C 332.73,259.79 332.58,259.71 332.41,259.62 C 332.24,259.54 332.05,259.46 331.84,259.38 C 331.64,259.29 331.41,259.21 331.17,259.12 C 330.93,259.04 330.67,258.96 330.39,258.88 C 330.11,258.79 329.82,258.71 329.50,258.62 C 329.18,258.54 328.81,258.46 328.50,258.38 C 328.19,258.29 327.89,258.20 327.62,258.12 C 327.34,258.03 327.09,257.94 326.85,257.85 C 326.62,257.76 326.40,257.67 326.20,257.58 C 326.01,257.49 325.83,257.39 325.67,257.30 C 325.51,257.20 325.38,257.11 325.26,257.01 C 325.14,256.91 325.04,256.81 324.96,256.71 C 324.88,256.61 324.82,256.51 324.78,256.41 C 324.74,256.30 324.75,256.19 324.72,256.09 C 324.69,255.99 324.66,255.90 324.62,255.80 C 324.58,255.71 324.53,255.62 324.48,255.54 C 324.42,255.45 324.36,255.37 324.30,255.30 C 324.23,255.22 324.16,255.15 324.08,255.08 C 324.00,255.01 323.91,254.94 323.82,254.88 C 323.73,254.82 323.63,254.76 323.52,254.71 C 323.42,254.66 323.31,254.61 323.19,254.56 C 323.07,254.52 322.93,254.49 322.81,254.44 C 322.69,254.39 322.57,254.33 322.45,254.27 C 322.34,254.20 322.22,254.13 322.11,254.05 C 322.00,253.97 321.89,253.88 321.78,253.78 C 321.67,253.68 321.57,253.58 321.47,253.47 C 321.37,253.36 321.27,253.24 321.17,253.11 C 321.08,252.98 320.98,252.85 320.89,252.70 C 320.80,252.56 320.71,252.41 320.62,252.25 C 320.54,252.09 320.45,251.92 320.38,251.75 C 320.30,251.58 320.24,251.41 320.18,251.24 C 320.12,251.07 320.08,250.90 320.04,250.73 C 320.00,250.55 319.97,250.38 319.95,250.20 C 319.93,250.03 319.92,249.85 319.92,249.67 C 319.92,249.49 319.93,249.31 319.95,249.13 C 319.96,248.95 319.99,248.77 320.02,248.59 C 320.06,248.40 320.10,248.22 320.16,248.03 C 320.21,247.85 320.23,247.64 320.34,247.47 C 320.46,247.29 320.64,247.13 320.87,246.98 C 321.10,246.82 321.38,246.68 321.73,246.55 C 322.07,246.43 322.47,246.31 322.92,246.20 C 323.38,246.10 323.89,246.00 324.45,245.92 C 325.02,245.84 325.64,245.77 326.32,245.71 C 327.00,245.65 327.73,245.61 328.52,245.57 C 329.31,245.54 330.16,245.51 331.06,245.50 C 331.96,245.49 333.02,245.49 333.94,245.50 C 334.86,245.51 335.74,245.52 336.58,245.53 C 337.42,245.55 338.22,245.57 338.98,245.59 C 339.75,245.62 340.47,245.65 341.16,245.69 C 341.84,245.72 342.49,245.77 343.09,245.81 C 343.70,245.86 344.27,245.91 344.80,245.97 C 345.33,246.03 345.82,246.09 346.27,246.16 C 346.72,246.22 347.13,246.30 347.50,246.38 C 347.87,246.45 348.18,246.54 348.50,246.62 C 348.82,246.71 349.12,246.79 349.40,246.87 C 349.68,246.95 349.95,247.02 350.20,247.10 C 350.44,247.18 350.68,247.25 350.89,247.33 C 351.11,247.40 351.30,247.48 351.48,247.55 C 351.67,247.62 351.83,247.69 351.98,247.76 C 352.12,247.83 352.25,247.89 352.37,247.96 C 352.48,248.03 352.58,248.09 352.66,248.16 C 352.74,248.22 352.79,248.28 352.84,248.34 C 352.90,248.41 352.94,248.47 352.98,248.54 C 353.01,248.61 353.04,248.67 353.05,248.74 C 353.07,248.81 353.08,248.88 353.08,248.95 C 353.08,249.02 353.07,249.10 353.05,249.17 C 353.03,249.25 353.00,249.32 352.96,249.40 C 352.92,249.48 352.88,249.55 352.82,249.63 C 352.76,249.71 352.70,249.79 352.62,249.88 C 352.55,249.96 352.45,250.03 352.38,250.12 C 352.30,250.22 352.23,250.32 352.17,250.44 C 352.11,250.55 352.06,250.68 352.02,250.81 C 351.97,250.95 351.93,251.09 351.91,251.25 C 351.88,251.41 351.86,251.57 351.84,251.75 C 351.83,251.93 351.83,252.11 351.83,252.31 C 351.83,252.51 351.84,252.72 351.86,252.94 C 351.88,253.16 351.90,253.39 351.94,253.62 C 351.97,253.86 352.03,254.13 352.06,254.38 C 352.10,254.62 352.12,254.85 352.13,255.07 C 352.15,255.29 352.15,255.51 352.15,255.71 C 352.14,255.92 352.13,256.11 352.11,256.30 C 352.09,256.48 352.06,256.66 352.02,256.83 C 351.98,257.00 351.93,257.15 351.87,257.30 C 351.81,257.45 351.74,257.60 351.66,257.73 C 351.59,257.86 351.50,257.98 351.41,258.09 C 351.31,258.21 351.21,258.31 351.09,258.41 C 350.98,258.50 350.85,258.60 350.71,258.68 C 350.57,258.76 350.42,258.84 350.26,258.91 C 350.10,258.99 349.92,259.05 349.73,259.11 C 349.55,259.17 349.35,259.22 349.14,259.27 C 348.93,259.31 348.71,259.35 348.48,259.38 C 348.24,259.42 348.00,259.44 347.74,259.46 C 347.49,259.48 347.22,259.49 346.94,259.50 C 346.66,259.51 346.34,259.49 346.06,259.50 C 345.79,259.51 345.53,259.52 345.28,259.53 C 345.04,259.55 344.81,259.57 344.59,259.59 C 344.38,259.62 344.18,259.65 344.00,259.69 C 343.82,259.72 343.65,259.77 343.50,259.81 C 343.35,259.86 343.21,259.91 343.09,259.97 C 342.97,260.03 342.87,260.09 342.78,260.16 C 342.69,260.22 342.62,260.30 342.56,260.38 C 342.51,260.45 342.41,260.55 342.44,260.62 C 342.47,260.70 342.57,260.76 342.73,260.81 C 342.90,260.86 343.14,260.91 343.45,260.94 C 343.76,260.97 344.14,260.99 344.59,261.00 C 345.04,261.01 345.57,261.01 346.16,261.00 C 346.75,260.99 347.41,260.97 348.14,260.94 C 348.87,260.91 349.67,260.86 350.55,260.81 C 351.42,260.76 352.36,260.70 353.38,260.62 C 354.39,260.55 355.60,260.43 356.62,260.38 C 357.65,260.32 358.60,260.28 359.50,260.27 C 360.40,260.25 361.23,260.26 362.00,260.30 C 362.77,260.33 363.48,260.39 364.12,260.47 C 364.77,260.55 365.35,260.65 365.88,260.78 C 366.40,260.91 366.85,261.06 367.25,261.23 C 367.65,261.41 367.98,261.61 368.25,261.83 C 368.52,262.05 368.73,262.29 368.88,262.56 C 369.02,262.83 369.02,263.16 369.12,263.44 C 369.23,263.71 369.36,263.97 369.52,264.22 C 369.67,264.46 369.85,264.69 370.05,264.91 C 370.25,265.12 370.47,265.32 370.72,265.50 C 370.97,265.68 371.24,265.85 371.53,266.00 C 371.83,266.15 372.14,266.29 372.48,266.41 C 372.83,266.53 373.19,266.63 373.58,266.72 C 373.97,266.81 374.38,266.88 374.81,266.94 C 375.25,266.99 375.74,267.02 376.19,267.06 C 376.63,267.11 377.07,267.16 377.48,267.22 C 377.90,267.28 378.31,267.34 378.70,267.41 C 379.10,267.47 379.48,267.55 379.84,267.62 C 380.21,267.70 380.57,267.79 380.91,267.88 C 381.25,267.96 381.58,268.06 381.89,268.16 C 382.21,268.26 382.51,268.36 382.80,268.47 C 383.09,268.58 383.36,268.69 383.62,268.81 C 383.89,268.93 384.13,269.07 384.38,269.19 C 384.62,269.30 384.85,269.41 385.08,269.52 C 385.30,269.62 385.52,269.71 385.73,269.80 C 385.95,269.88 386.15,269.96 386.34,270.03 C 386.54,270.10 386.73,270.16 386.91,270.22 C 387.09,270.27 387.26,270.32 387.42,270.36 C 387.59,270.40 387.74,270.43 387.89,270.45 C 388.04,270.48 388.18,270.49 388.31,270.50 C 388.45,270.51 388.55,270.51 388.69,270.50 C 388.82,270.49 388.96,270.47 389.11,270.44 C 389.26,270.41 389.41,270.36 389.58,270.31 C 389.74,270.26 389.91,270.20 390.09,270.12 C 390.27,270.05 390.46,269.97 390.66,269.88 C 390.85,269.78 391.05,269.68 391.27,269.56 C 391.48,269.45 391.70,269.32 391.92,269.19 C 392.15,269.05 392.38,268.91 392.62,268.75 C 392.87,268.59 393.13,268.42 393.38,268.25 C 393.62,268.08 393.86,267.91 394.09,267.73 C 394.33,267.56 394.56,267.38 394.78,267.20 C 395.01,267.02 395.22,266.84 395.44,266.66 C 395.65,266.47 395.86,266.28 396.06,266.09 C 396.27,265.90 396.46,265.71 396.66,265.52 C 396.85,265.32 397.04,265.12 397.22,264.92 C 397.40,264.72 397.58,264.52 397.75,264.31 C 397.92,264.11 398.08,263.88 398.25,263.69 C 398.42,263.50 398.58,263.32 398.74,263.16 C 398.90,263.01 399.07,262.87 399.23,262.74 C 399.39,262.62 399.55,262.51 399.70,262.42 C 399.86,262.33 400.02,262.26 400.17,262.20 C 400.33,262.15 400.48,262.11 400.63,262.09 C 400.79,262.06 400.94,262.06 401.09,262.07 C 401.24,262.08 401.38,262.11 401.53,262.16 C 401.68,262.20 401.85,262.26 401.97,262.34 C 402.09,262.43 402.19,262.54 402.26,262.66 C 402.33,262.79 402.38,262.94 402.40,263.12 C 402.42,263.29 402.42,263.49 402.39,263.70 C 402.36,263.92 402.31,264.16 402.23,264.42 C 402.16,264.68 402.06,264.97 401.93,265.27 C 401.80,265.58 401.65,265.91 401.48,266.26 C 401.30,266.61 401.10,266.98 400.88,267.38 C 400.65,267.77 400.35,268.23 400.12,268.62 C 399.90,269.02 399.70,269.40 399.52,269.77 C 399.34,270.13 399.18,270.47 399.05,270.80 C 398.91,271.12 398.80,271.43 398.72,271.72 C 398.63,272.01 398.57,272.28 398.53,272.53 C 398.49,272.78 398.48,273.02 398.48,273.23 C 398.49,273.45 398.52,273.65 398.58,273.83 C 398.63,274.01 398.71,274.17 398.81,274.31 C 398.91,274.46 399.07,274.53 399.19,274.69 C 399.31,274.84 399.42,275.02 399.53,275.23 C 399.64,275.45 399.74,275.68 399.84,275.95 C 399.94,276.22 400.04,276.52 400.12,276.84 C 400.21,277.17 400.30,277.52 400.38,277.91 C 400.45,278.29 400.53,278.70 400.59,279.14 C 400.66,279.58 400.72,280.05 400.78,280.55 C 400.84,281.04 400.89,281.57 400.94,282.12 C 400.98,282.68 401.03,283.32 401.06,283.88 C 401.09,284.43 401.11,284.97 401.11,285.48 C 401.11,286.00 401.10,286.49 401.08,286.95 C 401.05,287.42 401.02,287.86 400.97,288.28 C 400.92,288.70 400.86,289.10 400.78,289.47 C 400.71,289.84 400.62,290.19 400.52,290.52 C 400.41,290.84 400.30,291.14 400.17,291.42 C 400.04,291.70 399.90,291.96 399.75,292.19 C 399.60,292.42 399.39,292.59 399.25,292.81 C 399.11,293.03 398.99,293.27 398.91,293.52 C 398.82,293.76 398.76,294.02 398.72,294.30 C 398.68,294.57 398.67,294.86 398.69,295.16 C 398.70,295.46 398.74,295.77 398.81,296.09 C 398.88,296.42 398.97,296.76 399.09,297.11 C 399.21,297.46 399.36,297.83 399.53,298.20 C 399.70,298.58 399.90,298.97 400.12,299.38 C 400.35,299.78 400.65,300.23 400.88,300.62 C 401.10,301.02 401.29,301.38 401.46,301.73 C 401.63,302.07 401.77,302.39 401.88,302.68 C 402.00,302.97 402.08,303.24 402.14,303.48 C 402.20,303.73 402.23,303.95 402.23,304.14 C 402.24,304.33 402.21,304.50 402.16,304.65 C 402.11,304.79 402.04,304.91 401.93,305.01 C 401.82,305.10 401.69,305.17 401.53,305.22 C 401.37,305.26 401.15,305.27 400.97,305.28 C 400.79,305.29 400.61,305.29 400.43,305.27 C 400.25,305.26 400.08,305.23 399.91,305.20 C 399.75,305.16 399.58,305.11 399.42,305.05 C 399.26,304.99 399.11,304.91 398.95,304.83 C 398.80,304.74 398.65,304.65 398.51,304.54 C 398.36,304.43 398.22,304.31 398.09,304.18 C 397.95,304.05 397.82,303.90 397.69,303.75 C 397.56,303.60 397.45,303.42 397.31,303.25 C 397.18,303.08 397.04,302.92 396.89,302.75 C 396.74,302.58 396.59,302.42 396.42,302.25 C 396.26,302.08 396.09,301.92 395.91,301.75 C 395.73,301.58 395.54,301.42 395.34,301.25 C 395.15,301.08 394.95,300.92 394.73,300.75 C 394.52,300.58 394.30,300.42 394.08,300.25 C 393.85,300.08 393.62,299.92 393.38,299.75 C 393.13,299.58 392.87,299.41 392.62,299.25 C 392.38,299.09 392.15,298.95 391.92,298.81 C 391.70,298.68 391.48,298.55 391.27,298.44 C 391.05,298.32 390.85,298.22 390.66,298.12 C 390.46,298.03 390.27,297.95 390.09,297.88 C 389.91,297.80 389.74,297.74 389.58,297.69 C 389.41,297.64 389.26,297.59 389.11,297.56 C 388.96,297.53 388.82,297.51 388.69,297.50 C 388.55,297.49 388.45,297.49 388.31,297.50 C 388.18,297.51 388.04,297.52 387.89,297.55 C 387.74,297.57 387.59,297.60 387.42,297.64 C 387.26,297.68 387.09,297.73 386.91,297.78 C 386.73,297.84 386.54,297.90 386.34,297.97 C 386.15,298.04 385.95,298.12 385.73,298.20 C 385.52,298.29 385.30,298.38 385.08,298.48 C 384.85,298.59 384.62,298.70 384.38,298.81 C 384.13,298.93 383.89,299.07 383.62,299.19 C 383.36,299.31 383.08,299.42 382.78,299.53 C 382.48,299.64 382.17,299.74 381.84,299.84 C 381.52,299.94 381.17,300.04 380.81,300.12 C 380.45,300.21 380.08,300.30 379.69,300.38 C 379.30,300.45 378.89,300.53 378.47,300.59 C 378.05,300.66 377.61,300.72 377.16,300.78 C 376.70,300.84 376.23,300.89 375.75,300.94 C 375.27,300.98 374.72,301.01 374.25,301.06 C 373.78,301.12 373.35,301.18 372.95,301.26 C 372.54,301.33 372.17,301.42 371.84,301.52 C 371.50,301.62 371.19,301.74 370.92,301.86 C 370.65,301.98 370.41,302.12 370.20,302.27 C 370.00,302.41 369.82,302.57 369.68,302.74 C 369.54,302.91 369.43,303.10 369.35,303.29 C 369.27,303.48 369.23,303.69 369.22,303.91 C 369.21,304.12 369.27,304.38 369.28,304.59 C 369.30,304.81 369.31,305.02 369.31,305.22 C 369.32,305.42 369.32,305.60 369.31,305.78 C 369.31,305.96 369.30,306.12 369.28,306.28 C 369.27,306.44 369.24,306.58 369.22,306.72 C 369.19,306.85 369.16,306.98 369.12,307.09 C 369.09,307.21 369.05,307.31 369.00,307.41 C 368.95,307.50 368.90,307.58 368.84,307.66 C 368.79,307.73 368.78,307.79 368.66,307.84 C 368.53,307.90 368.34,307.94 368.09,307.98 C 367.83,308.01 367.51,308.04 367.13,308.05 C 366.75,308.07 366.31,308.08 365.80,308.08 C 365.29,308.08 364.71,308.07 364.08,308.05 C 363.44,308.03 362.74,308.00 361.98,307.96 C 361.21,307.92 360.38,307.88 359.49,307.82 C 358.60,307.76 357.64,307.70 356.62,307.62 C 355.61,307.55 354.39,307.45 353.38,307.38 C 352.36,307.30 351.42,307.24 350.55,307.19 C 349.67,307.14 348.87,307.09 348.14,307.06 C 347.41,307.03 346.75,307.01 346.16,307.00 C 345.57,306.99 345.04,306.99 344.59,307.00 C 344.14,307.01 343.76,307.03 343.45,307.06 C 343.14,307.09 342.90,307.14 342.73,307.19 C 342.57,307.24 342.47,307.30 342.44,307.38 C 342.41,307.45 342.51,307.55 342.56,307.62 C 342.62,307.70 342.69,307.78 342.78,307.84 C 342.87,307.91 342.97,307.97 343.09,308.03 C 343.21,308.09 343.35,308.14 343.50,308.19 C 343.65,308.23 343.82,308.28 344.00,308.31 C 344.18,308.35 344.38,308.38 344.59,308.41 C 344.81,308.43 345.04,308.45 345.28,308.47 C 345.53,308.48 345.79,308.49 346.06,308.50 C 346.34,308.51 346.66,308.49 346.94,308.50 C 347.22,308.51 347.49,308.52 347.74,308.54 C 348.00,308.56 348.24,308.58 348.48,308.62 C 348.71,308.65 348.93,308.69 349.14,308.73 C 349.35,308.78 349.55,308.83 349.73,308.89 C 349.92,308.95 350.10,309.01 350.26,309.09 C 350.42,309.16 350.57,309.24 350.71,309.32 C 350.85,309.40 350.98,309.50 351.09,309.59 C 351.21,309.69 351.31,309.79 351.41,309.91 C 351.50,310.02 351.59,310.14 351.66,310.27 C 351.74,310.40 351.81,310.55 351.87,310.70 C 351.93,310.85 351.98,311.00 352.02,311.17 C 352.06,311.34 352.09,311.52 352.11,311.70 C 352.13,311.89 352.14,312.08 352.15,312.29 C 352.15,312.49 352.15,312.71 352.13,312.93 C 352.12,313.15 352.10,313.38 352.06,313.62 C 352.03,313.87 351.97,314.14 351.94,314.38 C 351.90,314.61 351.88,314.84 351.86,315.06 C 351.84,315.28 351.83,315.49 351.83,315.69 C 351.83,315.89 351.83,316.07 351.84,316.25 C 351.86,316.43 351.88,316.59 351.91,316.75 C 351.93,316.91 351.97,317.05 352.02,317.19 C 352.06,317.32 352.11,317.45 352.17,317.56 C 352.23,317.68 352.30,317.78 352.38,317.88 C 352.45,317.97 352.57,318.04 352.62,318.12 C 352.68,318.21 352.70,318.30 352.70,318.40 C 352.69,318.49 352.65,318.59 352.59,318.70 C 352.52,318.80 352.42,318.90 352.30,319.02 C 352.17,319.13 352.01,319.24 351.83,319.36 C 351.64,319.48 351.43,319.60 351.18,319.73 C 350.93,319.85 350.66,319.98 350.35,320.12 C 350.05,320.25 349.71,320.39 349.34,320.53 C 348.98,320.67 348.59,320.83 348.16,320.97 C 347.73,321.11 347.26,321.23 346.76,321.35 C 346.26,321.47 345.72,321.58 345.15,321.68 C 344.58,321.78 343.97,321.87 343.33,321.95 C 342.69,322.04 342.01,322.11 341.30,322.17 C 340.58,322.24 339.84,322.29 339.05,322.34 C 338.27,322.38 337.45,322.42 336.60,322.45 C 335.75,322.47 334.86,322.49 333.94,322.50 Z" stroke="none" fill="currentColor" opacity="0.11" />
  <path d="M329.79,269.71L329.79,269.71 M329.43,269.71L329.43,269.71 M329.61,270.14L329.61,270.14 M329.79,270.07L329.79,270.07 M338.66,268.80L338.66,268.80 M338.75,291.71L324.43,291.71 M324.20,276.07L324.20,276.07 M377.36,276.01L367.92,275.93 M377.36,275.68L367.92,275.76 M395.92,292.47L384.74,296.42 M395.92,276.48L384.74,272.52 M377.38,284.47L399.00,284.47 M377.38,284.47L399.00,284.47 M367.47,276.01L376.91,276.01 M367.47,275.76L376.91,275.76 M358.91,296.03L368.03,296.03 M359.08,276.01L368.51,276.01 M359.08,275.76L368.51,275.76 M369.65,297.06L369.64,297.07 M374.28,296.86L374.25,297.06 M374.25,297.06L374.27,297.07 M349.76,296.03L358.87,296.03 M349.92,276.01L359.36,276.01 M349.92,275.76L359.36,275.76 M313.55,288.86L313.55,279.71 M334.10,280.78L343.35,280.78 M326.05,271.89L335.14,270.19 M334.10,288.16L343.35,288.16 M326.05,297.06L335.14,298.76 M375.88,284.47L375.88,274.45 M375.88,284.47L375.88,294.49 M325.78,277.97L316.23,275.45 M325.79,277.90L316.83,275.39 M316.83,293.54L325.78,291.04 M395.15,277.50L378.70,277.48 M381.75,274.71L389.89,274.72 M389.89,294.22L381.75,294.24 M378.70,291.46L395.15,291.44 M307.85,274.93L307.86,270.82 M364.94,284.47L364.94,273.54 M364.94,284.47L364.94,295.41 M315.81,289.61L326.66,289.96 M364.93,268.62L364.93,266.42 M380.13,269.76L386.52,271.77 M364.93,300.33L364.93,302.53 M386.52,297.17L380.13,299.18 M316.19,295.49L315.76,295.58 M316.19,295.49L315.84,295.49 M315.48,287.27L315.78,297.62 M341.30,278.37L330.81,278.36 M341.30,277.97L330.81,277.97 M341.30,277.57L330.81,277.57 M341.30,290.57L330.81,290.58 M341.30,290.97L330.81,290.98 M341.30,291.37L330.81,291.37" stroke="currentColor" stroke-width="0.6" stroke-linecap="round" fill="none" opacity="0.55" clip-path="url(#hull-clip)" filter="url(#glow)" />
  <path d="M 333.94,322.50 C 333.01,322.51 331.96,322.50 331.06,322.50 C 330.16,322.50 329.31,322.49 328.52,322.48 C 327.73,322.46 327.00,322.45 326.32,322.43 C 325.64,322.41 325.02,322.39 324.45,322.36 C 323.89,322.33 323.38,322.30 322.92,322.27 C 322.47,322.23 322.07,322.19 321.73,322.15 C 321.38,322.11 321.10,322.06 320.87,322.01 C 320.64,321.96 320.46,321.90 320.34,321.84 C 320.23,321.79 320.21,321.73 320.16,321.66 C 320.10,321.58 320.05,321.50 320.01,321.40 C 319.96,321.30 319.93,321.19 319.90,321.07 C 319.87,320.95 319.85,320.82 319.83,320.67 C 319.81,320.53 319.80,320.37 319.80,320.20 C 319.79,320.04 319.80,319.86 319.80,319.66 C 319.81,319.47 319.83,319.27 319.85,319.05 C 319.87,318.84 319.90,318.61 319.94,318.38 C 319.97,318.14 320.01,317.86 320.06,317.62 C 320.11,317.39 320.17,317.16 320.23,316.95 C 320.29,316.73 320.36,316.53 320.43,316.34 C 320.50,316.14 320.58,315.96 320.67,315.80 C 320.76,315.63 320.85,315.47 320.95,315.33 C 321.05,315.18 321.16,315.05 321.27,314.93 C 321.39,314.81 321.51,314.70 321.63,314.60 C 321.76,314.50 321.89,314.42 322.03,314.34 C 322.17,314.27 322.33,314.22 322.47,314.16 C 322.61,314.09 322.74,314.02 322.87,313.95 C 322.99,313.87 323.11,313.79 323.23,313.71 C 323.34,313.63 323.45,313.54 323.55,313.45 C 323.65,313.36 323.74,313.27 323.83,313.17 C 323.92,313.07 324.00,312.97 324.07,312.87 C 324.14,312.76 324.21,312.65 324.27,312.54 C 324.33,312.43 324.39,312.31 324.44,312.19 C 324.49,312.07 324.51,311.93 324.56,311.81 C 324.61,311.70 324.67,311.59 324.73,311.48 C 324.80,311.38 324.87,311.29 324.95,311.20 C 325.03,311.12 325.12,311.04 325.22,310.97 C 325.32,310.90 325.42,310.84 325.53,310.78 C 325.64,310.73 325.76,310.68 325.89,310.64 C 326.02,310.60 326.15,310.57 326.30,310.55 C 326.44,310.52 326.59,310.51 326.75,310.50 C 326.91,310.49 327.08,310.51 327.25,310.50 C 327.42,310.49 327.59,310.47 327.77,310.44 C 327.94,310.41 328.12,310.36 328.30,310.31 C 328.48,310.26 328.66,310.20 328.84,310.12 C 329.03,310.05 329.22,309.97 329.41,309.88 C 329.60,309.78 329.79,309.68 329.98,309.56 C 330.18,309.45 330.38,309.32 330.58,309.19 C 330.78,309.05 330.98,308.91 331.19,308.75 C 331.39,308.59 331.66,308.42 331.81,308.25 C 331.97,308.08 332.07,307.91 332.11,307.73 C 332.15,307.56 332.14,307.38 332.08,307.20 C 332.01,307.02 331.89,306.84 331.72,306.66 C 331.54,306.47 331.32,306.28 331.03,306.09 C 330.75,305.90 330.41,305.71 330.02,305.52 C 329.62,305.32 329.17,305.12 328.67,304.92 C 328.17,304.72 327.61,304.52 327.00,304.31 C 326.39,304.11 325.65,303.88 325.00,303.69 C 324.35,303.49 323.71,303.31 323.09,303.14 C 322.47,302.97 321.87,302.82 321.28,302.67 C 320.69,302.53 320.12,302.40 319.56,302.28 C 319.01,302.16 318.46,302.06 317.94,301.97 C 317.41,301.88 316.90,301.80 316.41,301.73 C 315.91,301.67 315.43,301.62 314.97,301.58 C 314.51,301.54 314.06,301.51 313.62,301.50 C 313.19,301.49 312.77,301.51 312.38,301.50 C 311.98,301.49 311.60,301.47 311.25,301.44 C 310.90,301.41 310.56,301.36 310.25,301.31 C 309.94,301.26 309.65,301.20 309.38,301.12 C 309.10,301.05 308.85,300.97 308.62,300.88 C 308.40,300.78 308.19,300.68 308.00,300.56 C 307.81,300.45 307.65,300.32 307.50,300.19 C 307.35,300.05 307.23,299.91 307.12,299.75 C 307.02,299.59 306.99,299.41 306.88,299.25 C 306.76,299.09 306.60,298.93 306.41,298.78 C 306.21,298.63 305.98,298.48 305.72,298.34 C 305.45,298.20 305.15,298.07 304.81,297.94 C 304.47,297.81 304.10,297.68 303.69,297.56 C 303.28,297.44 302.83,297.33 302.34,297.22 C 301.86,297.11 301.34,297.01 300.78,296.91 C 300.22,296.81 299.63,296.71 299.00,296.62 C 298.37,296.54 297.64,296.46 297.00,296.38 C 296.36,296.29 295.74,296.20 295.16,296.11 C 294.57,296.02 294.01,295.92 293.47,295.83 C 292.93,295.73 292.42,295.63 291.94,295.53 C 291.45,295.43 290.99,295.33 290.56,295.22 C 290.13,295.11 289.72,295.00 289.34,294.89 C 288.96,294.78 288.61,294.66 288.28,294.55 C 287.95,294.43 287.65,294.31 287.38,294.19 C 287.10,294.07 286.86,293.94 286.62,293.81 C 286.39,293.68 286.16,293.55 285.94,293.42 C 285.72,293.29 285.51,293.15 285.31,293.02 C 285.11,292.88 284.93,292.74 284.75,292.59 C 284.57,292.45 284.41,292.30 284.25,292.16 C 284.09,292.01 283.95,291.86 283.81,291.70 C 283.68,291.55 283.55,291.39 283.44,291.23 C 283.32,291.08 283.22,290.91 283.12,290.75 C 283.03,290.59 282.97,290.41 282.88,290.25 C 282.78,290.09 282.68,289.94 282.57,289.79 C 282.46,289.64 282.34,289.50 282.21,289.37 C 282.08,289.23 281.94,289.11 281.80,288.98 C 281.65,288.86 281.49,288.75 281.33,288.64 C 281.16,288.53 280.99,288.43 280.80,288.34 C 280.62,288.24 280.43,288.15 280.23,288.07 C 280.02,287.99 279.81,287.91 279.59,287.84 C 279.37,287.77 279.11,287.72 278.91,287.66 C 278.71,287.59 278.54,287.53 278.40,287.46 C 278.26,287.39 278.15,287.33 278.07,287.26 C 277.99,287.19 277.94,287.12 277.92,287.05 C 277.90,286.98 277.91,286.90 277.95,286.83 C 277.99,286.75 278.06,286.68 278.16,286.60 C 278.26,286.52 278.39,286.45 278.55,286.37 C 278.71,286.29 278.90,286.21 279.12,286.12 C 279.35,286.04 279.64,285.96 279.88,285.88 C 280.11,285.79 280.32,285.70 280.51,285.60 C 280.70,285.51 280.87,285.41 281.02,285.30 C 281.18,285.20 281.31,285.10 281.42,284.98 C 281.54,284.87 281.63,284.76 281.70,284.64 C 281.78,284.52 281.83,284.40 281.87,284.27 C 281.90,284.15 281.92,284.02 281.91,283.88 C 281.91,283.75 281.89,283.61 281.84,283.47 C 281.80,283.33 281.73,283.17 281.66,283.03 C 281.59,282.89 281.51,282.76 281.42,282.64 C 281.34,282.52 281.24,282.40 281.14,282.30 C 281.04,282.19 280.93,282.09 280.81,282.00 C 280.70,281.91 280.57,281.83 280.44,281.75 C 280.30,281.67 280.16,281.61 280.02,281.55 C 279.87,281.49 279.71,281.43 279.55,281.39 C 279.38,281.35 279.21,281.31 279.03,281.28 C 278.85,281.25 278.63,281.24 278.47,281.22 C 278.31,281.20 278.17,281.17 278.06,281.14 C 277.95,281.11 277.87,281.08 277.81,281.05 C 277.76,281.01 277.72,280.98 277.72,280.94 C 277.71,280.90 277.73,280.86 277.78,280.81 C 277.83,280.77 277.90,280.72 278.00,280.67 C 278.10,280.62 278.22,280.57 278.38,280.52 C 278.53,280.46 278.70,280.40 278.91,280.34 C 279.11,280.28 279.37,280.23 279.59,280.16 C 279.81,280.09 280.02,280.01 280.23,279.93 C 280.43,279.85 280.62,279.76 280.80,279.66 C 280.99,279.57 281.16,279.47 281.33,279.36 C 281.49,279.25 281.65,279.14 281.80,279.02 C 281.94,278.89 282.08,278.77 282.21,278.63 C 282.34,278.50 282.46,278.36 282.57,278.21 C 282.68,278.06 282.78,277.91 282.88,277.75 C 282.97,277.59 283.03,277.41 283.12,277.25 C 283.22,277.09 283.32,276.92 283.44,276.77 C 283.55,276.61 283.68,276.45 283.81,276.30 C 283.95,276.14 284.09,275.99 284.25,275.84 C 284.41,275.70 284.57,275.55 284.75,275.41 C 284.93,275.26 285.11,275.12 285.31,274.98 C 285.51,274.85 285.72,274.71 285.94,274.58 C 286.16,274.45 286.39,274.32 286.62,274.19 C 286.86,274.06 287.10,273.93 287.38,273.81 C 287.65,273.69 287.95,273.57 288.28,273.45 C 288.61,273.34 288.96,273.22 289.34,273.11 C 289.72,273.00 290.13,272.89 290.56,272.78 C 290.99,272.67 291.45,272.57 291.94,272.47 C 292.42,272.37 292.93,272.27 293.47,272.17 C 294.01,272.08 294.57,271.98 295.16,271.89 C 295.74,271.80 296.36,271.71 297.00,271.62 C 297.64,271.54 298.37,271.46 299.00,271.38 C 299.63,271.29 300.22,271.19 300.78,271.09 C 301.34,270.99 301.86,270.89 302.34,270.78 C 302.83,270.67 303.28,270.56 303.69,270.44 C 304.10,270.32 304.47,270.19 304.81,270.06 C 305.15,269.93 305.45,269.80 305.72,269.66 C 305.98,269.52 306.21,269.37 306.41,269.22 C 306.60,269.07 306.76,268.91 306.88,268.75 C 306.99,268.59 307.02,268.41 307.12,268.25 C 307.23,268.09 307.35,267.95 307.48,267.81 C 307.62,267.68 307.78,267.55 307.95,267.44 C 308.13,267.32 308.32,267.22 308.53,267.12 C 308.74,267.03 308.97,266.95 309.22,266.88 C 309.47,266.80 309.73,266.74 310.02,266.69 C 310.30,266.64 310.60,266.59 310.92,266.56 C 311.24,266.53 311.58,266.51 311.94,266.50 C 312.29,266.49 312.67,266.51 313.06,266.50 C 313.46,266.49 313.88,266.46 314.31,266.42 C 314.75,266.38 315.21,266.33 315.69,266.27 C 316.17,266.20 316.67,266.12 317.19,266.03 C 317.71,265.94 318.25,265.84 318.81,265.72 C 319.38,265.60 319.96,265.47 320.56,265.33 C 321.17,265.18 321.79,265.03 322.44,264.86 C 323.08,264.69 323.75,264.51 324.44,264.31 C 325.12,264.12 325.90,263.89 326.56,263.69 C 327.22,263.49 327.84,263.29 328.41,263.11 C 328.97,262.92 329.49,262.75 329.97,262.58 C 330.44,262.41 330.87,262.25 331.25,262.09 C 331.63,261.94 331.96,261.79 332.25,261.66 C 332.54,261.52 332.78,261.39 332.97,261.27 C 333.16,261.14 333.31,261.03 333.41,260.92 C 333.51,260.82 333.56,260.72 333.56,260.62 C 333.57,260.53 333.50,260.46 333.44,260.38 C 333.38,260.29 333.30,260.21 333.20,260.12 C 333.11,260.04 332.99,259.96 332.86,259.88 C 332.73,259.79 332.58,259.71 332.41,259.62 C 332.24,259.54 332.05,259.46 331.84,259.38 C 331.64,259.29 331.41,259.21 331.17,259.12 C 330.93,259.04 330.67,258.96 330.39,258.88 C 330.11,258.79 329.82,258.71 329.50,258.62 C 329.18,258.54 328.81,258.46 328.50,258.38 C 328.19,258.29 327.89,258.20 327.62,258.12 C 327.34,258.03 327.09,257.94 326.85,257.85 C 326.62,257.76 326.40,257.67 326.20,257.58 C 326.01,257.49 325.83,257.39 325.67,257.30 C 325.51,257.20 325.38,257.11 325.26,257.01 C 325.14,256.91 325.04,256.81 324.96,256.71 C 324.88,256.61 324.82,256.51 324.78,256.41 C 324.74,256.30 324.75,256.19 324.72,256.09 C 324.69,255.99 324.66,255.90 324.62,255.80 C 324.58,255.71 324.53,255.62 324.48,255.54 C 324.42,255.45 324.36,255.37 324.30,255.30 C 324.23,255.22 324.16,255.15 324.08,255.08 C 324.00,255.01 323.91,254.94 323.82,254.88 C 323.73,254.82 323.63,254.76 323.52,254.71 C 323.42,254.66 323.31,254.61 323.19,254.56 C 323.07,254.52 322.93,254.49 322.81,254.44 C 322.69,254.39 322.57,254.33 322.45,254.27 C 322.34,254.20 322.22,254.13 322.11,254.05 C 322.00,253.97 321.89,253.88 321.78,253.78 C 321.67,253.68 321.57,253.58 321.47,253.47 C 321.37,253.36 321.27,253.24 321.17,253.11 C 321.08,252.98 320.98,252.85 320.89,252.70 C 320.80,252.56 320.71,252.41 320.62,252.25 C 320.54,252.09 320.45,251.92 320.38,251.75 C 320.30,251.58 320.24,251.41 320.18,251.24 C 320.12,251.07 320.08,250.90 320.04,250.73 C 320.00,250.55 319.97,250.38 319.95,250.20 C 319.93,250.03 319.92,249.85 319.92,249.67 C 319.92,249.49 319.93,249.31 319.95,249.13 C 319.96,248.95 319.99,248.77 320.02,248.59 C 320.06,248.40 320.10,248.22 320.16,248.03 C 320.21,247.85 320.23,247.64 320.34,247.47 C 320.46,247.29 320.64,247.13 320.87,246.98 C 321.10,246.82 321.38,246.68 321.73,246.55 C 322.07,246.43 322.47,246.31 322.92,246.20 C 323.38,246.10 323.89,246.00 324.45,245.92 C 325.02,245.84 325.64,245.77 326.32,245.71 C 327.00,245.65 327.73,245.61 328.52,245.57 C 329.31,245.54 330.16,245.51 331.06,245.50 C 331.96,245.49 333.02,245.49 333.94,245.50 C 334.86,245.51 335.74,245.52 336.58,245.53 C 337.42,245.55 338.22,245.57 338.98,245.59 C 339.75,245.62 340.47,245.65 341.16,245.69 C 341.84,245.72 342.49,245.77 343.09,245.81 C 343.70,245.86 344.27,245.91 344.80,245.97 C 345.33,246.03 345.82,246.09 346.27,246.16 C 346.72,246.22 347.13,246.30 347.50,246.38 C 347.87,246.45 348.18,246.54 348.50,246.62 C 348.82,246.71 349.12,246.79 349.40,246.87 C 349.68,246.95 349.95,247.02 350.20,247.10 C 350.44,247.18 350.68,247.25 350.89,247.33 C 351.11,247.40 351.30,247.48 351.48,247.55 C 351.67,247.62 351.83,247.69 351.98,247.76 C 352.12,247.83 352.25,247.89 352.37,247.96 C 352.48,248.03 352.58,248.09 352.66,248.16 C 352.74,248.22 352.79,248.28 352.84,248.34 C 352.90,248.41 352.94,248.47 352.98,248.54 C 353.01,248.61 353.04,248.67 353.05,248.74 C 353.07,248.81 353.08,248.88 353.08,248.95 C 353.08,249.02 353.07,249.10 353.05,249.17 C 353.03,249.25 353.00,249.32 352.96,249.40 C 352.92,249.48 352.88,249.55 352.82,249.63 C 352.76,249.71 352.70,249.79 352.62,249.88 C 352.55,249.96 352.45,250.03 352.38,250.12 C 352.30,250.22 352.23,250.32 352.17,250.44 C 352.11,250.55 352.06,250.68 352.02,250.81 C 351.97,250.95 351.93,251.09 351.91,251.25 C 351.88,251.41 351.86,251.57 351.84,251.75 C 351.83,251.93 351.83,252.11 351.83,252.31 C 351.83,252.51 351.84,252.72 351.86,252.94 C 351.88,253.16 351.90,253.39 351.94,253.62 C 351.97,253.86 352.03,254.13 352.06,254.38 C 352.10,254.62 352.12,254.85 352.13,255.07 C 352.15,255.29 352.15,255.51 352.15,255.71 C 352.14,255.92 352.13,256.11 352.11,256.30 C 352.09,256.48 352.06,256.66 352.02,256.83 C 351.98,257.00 351.93,257.15 351.87,257.30 C 351.81,257.45 351.74,257.60 351.66,257.73 C 351.59,257.86 351.50,257.98 351.41,258.09 C 351.31,258.21 351.21,258.31 351.09,258.41 C 350.98,258.50 350.85,258.60 350.71,258.68 C 350.57,258.76 350.42,258.84 350.26,258.91 C 350.10,258.99 349.92,259.05 349.73,259.11 C 349.55,259.17 349.35,259.22 349.14,259.27 C 348.93,259.31 348.71,259.35 348.48,259.38 C 348.24,259.42 348.00,259.44 347.74,259.46 C 347.49,259.48 347.22,259.49 346.94,259.50 C 346.66,259.51 346.34,259.49 346.06,259.50 C 345.79,259.51 345.53,259.52 345.28,259.53 C 345.04,259.55 344.81,259.57 344.59,259.59 C 344.38,259.62 344.18,259.65 344.00,259.69 C 343.82,259.72 343.65,259.77 343.50,259.81 C 343.35,259.86 343.21,259.91 343.09,259.97 C 342.97,260.03 342.87,260.09 342.78,260.16 C 342.69,260.22 342.62,260.30 342.56,260.38 C 342.51,260.45 342.41,260.55 342.44,260.62 C 342.47,260.70 342.57,260.76 342.73,260.81 C 342.90,260.86 343.14,260.91 343.45,260.94 C 343.76,260.97 344.14,260.99 344.59,261.00 C 345.04,261.01 345.57,261.01 346.16,261.00 C 346.75,260.99 347.41,260.97 348.14,260.94 C 348.87,260.91 349.67,260.86 350.55,260.81 C 351.42,260.76 352.36,260.70 353.38,260.62 C 354.39,260.55 355.60,260.43 356.62,260.38 C 357.65,260.32 358.60,260.28 359.50,260.27 C 360.40,260.25 361.23,260.26 362.00,260.30 C 362.77,260.33 363.48,260.39 364.12,260.47 C 364.77,260.55 365.35,260.65 365.88,260.78 C 366.40,260.91 366.85,261.06 367.25,261.23 C 367.65,261.41 367.98,261.61 368.25,261.83 C 368.52,262.05 368.73,262.29 368.88,262.56 C 369.02,262.83 369.02,263.16 369.12,263.44 C 369.23,263.71 369.36,263.97 369.52,264.22 C 369.67,264.46 369.85,264.69 370.05,264.91 C 370.25,265.12 370.47,265.32 370.72,265.50 C 370.97,265.68 371.24,265.85 371.53,266.00 C 371.83,266.15 372.14,266.29 372.48,266.41 C 372.83,266.53 373.19,266.63 373.58,266.72 C 373.97,266.81 374.38,266.88 374.81,266.94 C 375.25,266.99 375.74,267.02 376.19,267.06 C 376.63,267.11 377.07,267.16 377.48,267.22 C 377.90,267.28 378.31,267.34 378.70,267.41 C 379.10,267.47 379.48,267.55 379.84,267.62 C 380.21,267.70 380.57,267.79 380.91,267.88 C 381.25,267.96 381.58,268.06 381.89,268.16 C 382.21,268.26 382.51,268.36 382.80,268.47 C 383.09,268.58 383.36,268.69 383.62,268.81 C 383.89,268.93 384.13,269.07 384.38,269.19 C 384.62,269.30 384.85,269.41 385.08,269.52 C 385.30,269.62 385.52,269.71 385.73,269.80 C 385.95,269.88 386.15,269.96 386.34,270.03 C 386.54,270.10 386.73,270.16 386.91,270.22 C 387.09,270.27 387.26,270.32 387.42,270.36 C 387.59,270.40 387.74,270.43 387.89,270.45 C 388.04,270.48 388.18,270.49 388.31,270.50 C 388.45,270.51 388.55,270.51 388.69,270.50 C 388.82,270.49 388.96,270.47 389.11,270.44 C 389.26,270.41 389.41,270.36 389.58,270.31 C 389.74,270.26 389.91,270.20 390.09,270.12 C 390.27,270.05 390.46,269.97 390.66,269.88 C 390.85,269.78 391.05,269.68 391.27,269.56 C 391.48,269.45 391.70,269.32 391.92,269.19 C 392.15,269.05 392.38,268.91 392.62,268.75 C 392.87,268.59 393.13,268.42 393.38,268.25 C 393.62,268.08 393.86,267.91 394.09,267.73 C 394.33,267.56 394.56,267.38 394.78,267.20 C 395.01,267.02 395.22,266.84 395.44,266.66 C 395.65,266.47 395.86,266.28 396.06,266.09 C 396.27,265.90 396.46,265.71 396.66,265.52 C 396.85,265.32 397.04,265.12 397.22,264.92 C 397.40,264.72 397.58,264.52 397.75,264.31 C 397.92,264.11 398.08,263.88 398.25,263.69 C 398.42,263.50 398.58,263.32 398.74,263.16 C 398.90,263.01 399.07,262.87 399.23,262.74 C 399.39,262.62 399.55,262.51 399.70,262.42 C 399.86,262.33 400.02,262.26 400.17,262.20 C 400.33,262.15 400.48,262.11 400.63,262.09 C 400.79,262.06 400.94,262.06 401.09,262.07 C 401.24,262.08 401.38,262.11 401.53,262.16 C 401.68,262.20 401.85,262.26 401.97,262.34 C 402.09,262.43 402.19,262.54 402.26,262.66 C 402.33,262.79 402.38,262.94 402.40,263.12 C 402.42,263.29 402.42,263.49 402.39,263.70 C 402.36,263.92 402.31,264.16 402.23,264.42 C 402.16,264.68 402.06,264.97 401.93,265.27 C 401.80,265.58 401.65,265.91 401.48,266.26 C 401.30,266.61 401.10,266.98 400.88,267.38 C 400.65,267.77 400.35,268.23 400.12,268.62 C 399.90,269.02 399.70,269.40 399.52,269.77 C 399.34,270.13 399.18,270.47 399.05,270.80 C 398.91,271.12 398.80,271.43 398.72,271.72 C 398.63,272.01 398.57,272.28 398.53,272.53 C 398.49,272.78 398.48,273.02 398.48,273.23 C 398.49,273.45 398.52,273.65 398.58,273.83 C 398.63,274.01 398.71,274.17 398.81,274.31 C 398.91,274.46 399.07,274.53 399.19,274.69 C 399.31,274.84 399.42,275.02 399.53,275.23 C 399.64,275.45 399.74,275.68 399.84,275.95 C 399.94,276.22 400.04,276.52 400.12,276.84 C 400.21,277.17 400.30,277.52 400.38,277.91 C 400.45,278.29 400.53,278.70 400.59,279.14 C 400.66,279.58 400.72,280.05 400.78,280.55 C 400.84,281.04 400.89,281.57 400.94,282.12 C 400.98,282.68 401.03,283.32 401.06,283.88 C 401.09,284.43 401.11,284.97 401.11,285.48 C 401.11,286.00 401.10,286.49 401.08,286.95 C 401.05,287.42 401.02,287.86 400.97,288.28 C 400.92,288.70 400.86,289.10 400.78,289.47 C 400.71,289.84 400.62,290.19 400.52,290.52 C 400.41,290.84 400.30,291.14 400.17,291.42 C 400.04,291.70 399.90,291.96 399.75,292.19 C 399.60,292.42 399.39,292.59 399.25,292.81 C 399.11,293.03 398.99,293.27 398.91,293.52 C 398.82,293.76 398.76,294.02 398.72,294.30 C 398.68,294.57 398.67,294.86 398.69,295.16 C 398.70,295.46 398.74,295.77 398.81,296.09 C 398.88,296.42 398.97,296.76 399.09,297.11 C 399.21,297.46 399.36,297.83 399.53,298.20 C 399.70,298.58 399.90,298.97 400.12,299.38 C 400.35,299.78 400.65,300.23 400.88,300.62 C 401.10,301.02 401.29,301.38 401.46,301.73 C 401.63,302.07 401.77,302.39 401.88,302.68 C 402.00,302.97 402.08,303.24 402.14,303.48 C 402.20,303.73 402.23,303.95 402.23,304.14 C 402.24,304.33 402.21,304.50 402.16,304.65 C 402.11,304.79 402.04,304.91 401.93,305.01 C 401.82,305.10 401.69,305.17 401.53,305.22 C 401.37,305.26 401.15,305.27 400.97,305.28 C 400.79,305.29 400.61,305.29 400.43,305.27 C 400.25,305.26 400.08,305.23 399.91,305.20 C 399.75,305.16 399.58,305.11 399.42,305.05 C 399.26,304.99 399.11,304.91 398.95,304.83 C 398.80,304.74 398.65,304.65 398.51,304.54 C 398.36,304.43 398.22,304.31 398.09,304.18 C 397.95,304.05 397.82,303.90 397.69,303.75 C 397.56,303.60 397.45,303.42 397.31,303.25 C 397.18,303.08 397.04,302.92 396.89,302.75 C 396.74,302.58 396.59,302.42 396.42,302.25 C 396.26,302.08 396.09,301.92 395.91,301.75 C 395.73,301.58 395.54,301.42 395.34,301.25 C 395.15,301.08 394.95,300.92 394.73,300.75 C 394.52,300.58 394.30,300.42 394.08,300.25 C 393.85,300.08 393.62,299.92 393.38,299.75 C 393.13,299.58 392.87,299.41 392.62,299.25 C 392.38,299.09 392.15,298.95 391.92,298.81 C 391.70,298.68 391.48,298.55 391.27,298.44 C 391.05,298.32 390.85,298.22 390.66,298.12 C 390.46,298.03 390.27,297.95 390.09,297.88 C 389.91,297.80 389.74,297.74 389.58,297.69 C 389.41,297.64 389.26,297.59 389.11,297.56 C 388.96,297.53 388.82,297.51 388.69,297.50 C 388.55,297.49 388.45,297.49 388.31,297.50 C 388.18,297.51 388.04,297.52 387.89,297.55 C 387.74,297.57 387.59,297.60 387.42,297.64 C 387.26,297.68 387.09,297.73 386.91,297.78 C 386.73,297.84 386.54,297.90 386.34,297.97 C 386.15,298.04 385.95,298.12 385.73,298.20 C 385.52,298.29 385.30,298.38 385.08,298.48 C 384.85,298.59 384.62,298.70 384.38,298.81 C 384.13,298.93 383.89,299.07 383.62,299.19 C 383.36,299.31 383.08,299.42 382.78,299.53 C 382.48,299.64 382.17,299.74 381.84,299.84 C 381.52,299.94 381.17,300.04 380.81,300.12 C 380.45,300.21 380.08,300.30 379.69,300.38 C 379.30,300.45 378.89,300.53 378.47,300.59 C 378.05,300.66 377.61,300.72 377.16,300.78 C 376.70,300.84 376.23,300.89 375.75,300.94 C 375.27,300.98 374.72,301.01 374.25,301.06 C 373.78,301.12 373.35,301.18 372.95,301.26 C 372.54,301.33 372.17,301.42 371.84,301.52 C 371.50,301.62 371.19,301.74 370.92,301.86 C 370.65,301.98 370.41,302.12 370.20,302.27 C 370.00,302.41 369.82,302.57 369.68,302.74 C 369.54,302.91 369.43,303.10 369.35,303.29 C 369.27,303.48 369.23,303.69 369.22,303.91 C 369.21,304.12 369.27,304.38 369.28,304.59 C 369.30,304.81 369.31,305.02 369.31,305.22 C 369.32,305.42 369.32,305.60 369.31,305.78 C 369.31,305.96 369.30,306.12 369.28,306.28 C 369.27,306.44 369.24,306.58 369.22,306.72 C 369.19,306.85 369.16,306.98 369.12,307.09 C 369.09,307.21 369.05,307.31 369.00,307.41 C 368.95,307.50 368.90,307.58 368.84,307.66 C 368.79,307.73 368.78,307.79 368.66,307.84 C 368.53,307.90 368.34,307.94 368.09,307.98 C 367.83,308.01 367.51,308.04 367.13,308.05 C 366.75,308.07 366.31,308.08 365.80,308.08 C 365.29,308.08 364.71,308.07 364.08,308.05 C 363.44,308.03 362.74,308.00 361.98,307.96 C 361.21,307.92 360.38,307.88 359.49,307.82 C 358.60,307.76 357.64,307.70 356.62,307.62 C 355.61,307.55 354.39,307.45 353.38,307.38 C 352.36,307.30 351.42,307.24 350.55,307.19 C 349.67,307.14 348.87,307.09 348.14,307.06 C 347.41,307.03 346.75,307.01 346.16,307.00 C 345.57,306.99 345.04,306.99 344.59,307.00 C 344.14,307.01 343.76,307.03 343.45,307.06 C 343.14,307.09 342.90,307.14 342.73,307.19 C 342.57,307.24 342.47,307.30 342.44,307.38 C 342.41,307.45 342.51,307.55 342.56,307.62 C 342.62,307.70 342.69,307.78 342.78,307.84 C 342.87,307.91 342.97,307.97 343.09,308.03 C 343.21,308.09 343.35,308.14 343.50,308.19 C 343.65,308.23 343.82,308.28 344.00,308.31 C 344.18,308.35 344.38,308.38 344.59,308.41 C 344.81,308.43 345.04,308.45 345.28,308.47 C 345.53,308.48 345.79,308.49 346.06,308.50 C 346.34,308.51 346.66,308.49 346.94,308.50 C 347.22,308.51 347.49,308.52 347.74,308.54 C 348.00,308.56 348.24,308.58 348.48,308.62 C 348.71,308.65 348.93,308.69 349.14,308.73 C 349.35,308.78 349.55,308.83 349.73,308.89 C 349.92,308.95 350.10,309.01 350.26,309.09 C 350.42,309.16 350.57,309.24 350.71,309.32 C 350.85,309.40 350.98,309.50 351.09,309.59 C 351.21,309.69 351.31,309.79 351.41,309.91 C 351.50,310.02 351.59,310.14 351.66,310.27 C 351.74,310.40 351.81,310.55 351.87,310.70 C 351.93,310.85 351.98,311.00 352.02,311.17 C 352.06,311.34 352.09,311.52 352.11,311.70 C 352.13,311.89 352.14,312.08 352.15,312.29 C 352.15,312.49 352.15,312.71 352.13,312.93 C 352.12,313.15 352.10,313.38 352.06,313.62 C 352.03,313.87 351.97,314.14 351.94,314.38 C 351.90,314.61 351.88,314.84 351.86,315.06 C 351.84,315.28 351.83,315.49 351.83,315.69 C 351.83,315.89 351.83,316.07 351.84,316.25 C 351.86,316.43 351.88,316.59 351.91,316.75 C 351.93,316.91 351.97,317.05 352.02,317.19 C 352.06,317.32 352.11,317.45 352.17,317.56 C 352.23,317.68 352.30,317.78 352.38,317.88 C 352.45,317.97 352.57,318.04 352.62,318.12 C 352.68,318.21 352.70,318.30 352.70,318.40 C 352.69,318.49 352.65,318.59 352.59,318.70 C 352.52,318.80 352.42,318.90 352.30,319.02 C 352.17,319.13 352.01,319.24 351.83,319.36 C 351.64,319.48 351.43,319.60 351.18,319.73 C 350.93,319.85 350.66,319.98 350.35,320.12 C 350.05,320.25 349.71,320.39 349.34,320.53 C 348.98,320.67 348.59,320.83 348.16,320.97 C 347.73,321.11 347.26,321.23 346.76,321.35 C 346.26,321.47 345.72,321.58 345.15,321.68 C 344.58,321.78 343.97,321.87 343.33,321.95 C 342.69,322.04 342.01,322.11 341.30,322.17 C 340.58,322.24 339.84,322.29 339.05,322.34 C 338.27,322.38 337.45,322.42 336.60,322.45 C 335.75,322.47 334.86,322.49 333.94,322.50 Z" fill="none" stroke="currentColor" stroke-width="1.5" stroke-linejoin="round" stroke-linecap="round" filter="url(#glow)" />
</svg>