<svg xmlns="http://www.w3.org/2000/svg" width="512" height="512" viewBox="270.02 237.80 138.76 92.40" preserveAspectRatio="xMidYMid meet">
  <defs>
    <filter id="glow" x="-30%" y="-30%" width="160%" height="160%">
      <feGaussianBlur in="SourceGraphic" stdDeviation="2.4" result="blur" />
      <feMerge>
        <feMergeNode in="blur" />
        <feMergeNode in="SourceGraphic" />
      </feMerge>
    </filter>
    <clipPath id="hull-clip">
      <path d="M 333.94,322.50 C 333.02,322.51 331.96,322.50 331.06,322.50 C 330.16,322.50 329.31,322.49 328.52,322.48 C 327.73,322.46 327.00,322.45 326.32,322.43 C 325.64,322.41 325.02,322.39 324.45,322.36 C 323.89,322.33 323.38,322.30 322.92,322.27 C 322.47,322.23 322.07,322.19 321.73,322.15 C 321.38,322.11 321.10,322.06 320.87,322.01 C 320.64,321.96 320.46,321.90 320.34,321.84 C 320.23,321.79 320.21,321.73 320.16,321.66 C 320.10,321.58 320.05,321.50 320.01,321.40 C 319.96,321.30 319.93,321.19 319.90,321.07 C 319.87,320.95 319.85,320.82 319.83,320.67 C 319.81,320.53 319.80,320.37 319.80,320.20 C 319.79,320.04 319.80,319.86 319.80,319.66 C 319.81,319.47 319.83,319.27 319.85,319.05 C 319.87,318.84 319.90,318.61 319.94,318.38 C 319.97,318.14 320.01,317.86 320.06,317.62 C 320.11,317.39 320.17,317.16 320.23,316.95 C 320.29,316.73 320.36,316.53 320.43,316.34 C 320.50,316.14 320.58,315.96 320.67,315.80 C 320.76,315.63 320.85,315.47 320.95,315.33 C 321.05,315.18 321.16,315.05 321.27,314.93 C 321.39,314.81 321.51,314.70 321.63,314.60 C 321.76,314.50 321.89,314.42 322.03,314.34 C 322.17,314.27 322.33,314.22 322.47,314.16 C 322.61,314.09 322.74,314.02 322.87,313.95 C 322.99,313.87 323.11,313.79 323.23,313.71 C 323.34,313.63 323.45,313.54 323.55,313.45 C 323.65,313.36 323.74,313.27 323.83,313.17 C 323.92,313.07 324.00,312.97 324.07,312.87 C 324.14,312.76 324.21,312.65 324.27,312.54 C 324.33,312.43 324.39,312.31 324.44,312.19 C 324.49,312.07 324.51,311.93 324.56,311.81 C 324.61,311.70 324.67,311.59 324.73,311.48 C 324.80,311.38 324.87,311.29 324.95,311.20 C 325.03,311.12 325.12,311.04 325.22,310.97 C 325.32,310.90 325.42,310.84 325.53,310.78 C 325.64,310.73 325.76,310.68 325.89,310.64 C 326.02,310.60 326.15,310.57 326.30,310.55 C 326.44,310.52 326.59,310.51 326.75,310.50 C 326.91,310.49 327.08,310.51 327.25,310.50 C 327.42,310.49 327.59,310.47 327.77,310.44 C 327.94,310.41 328.12,310.36 328.30,310.31 C 328.48,310.26 328.66,310.20 328.84,310.12 C 329.03,310.05 329.22,309.97 329.41,309.88 C 329.60,309.78 329.79,309.68 329.98,309.56 C 330.18,309.45 330.38,309.32 330.58,309.19 C 330.78,309.05 330.98,308.91 331.19,308.75 C 331.39,308.59 331.66,308.42 331.81,308.25 C 331.97,308.08 332.07,307.91 332.11,307.73 C 332.15,307.56 332.14,307.38 332.08,307.20 C 332.01,307.02 331.89,306.84 331.72,306.66 C 331.54,306.47 331.32,306.28 331.03,306.09 C 330.75,305.90 330.41,305.71 330.02,305.52 C 329.62,305.32 329.17,305.12 328.67,304.92 C 328.17,304.72 327.61,304.52 327.00,304.31 C 326.39,304.11 325.65,303.88 325.00,303.69 C 324.35,303.49 323.71,303.31 323.09,303.14 C 322.47,302.97 321.87,302.82 321.28,302.67 C 320.69,302.53 320.12,302.40 319.56,302.28 C 319.01,302.16 318.46,302.06 317.94,301.97 C 317.41,301.88 316.90,301.80 316.41,301.73 C 315.91,301.67 315.43,301.62 314.97,301.58 C 314.51,301.54 314.06,301.51 313.62,301.50 C 313.19,301.49 312.77,301.51 312.38,301.50 C 311.98,301.49 311.60,301.47 311.25,301.44 C 310.90,301.41 310.56,301.36 310.25,301.31 C 309.94,301.26 309.65,301.20 309.38,301.12 C 309.10,301.05 308.85,300.97 308.62,300.88 C 308.40,300.78 308.19,300.68 308.00,300.56 C 307.81,300.45 307.65,300.32 307.50,300.19 C 307.35,300.05 307.23,299.91 307.12,299.75 C 307.02,299.59 306.99,299.41 306.88,299.25 C 306.76,299.09 306.60,298.93 306.41,298.78 C 306.21,298.63 305.98,298.48 305.72,298.34 C 305.45,298.20 305.15,298.07 304.81,297.94 C 304.47,297.81 304.10,297.68 303.69,297.56 C 303.28,297.44 302.83,297.33 302.34,297.22 C 301.86,297.11 301.34,297.01 300.78,296.91 C 300.22,296.81 299.63,296.71 299.00,296.62 C 298.37,296.54 297.64,296.46 297.00,296.38 C 296.36,296.29 295.74,296.20 295.16,296.11 C 294.57,296.02 294.01,295.92 293.47,295.83 C 292.93,295.73 292.42,295.63 291.94,295.53 C 291.45,295.43 290.99,295.33 290.56,295.22 C 290.13,295.11 289.72,295.00 289.34,294.89 C 288.96,294.78 288.61,294.66 288.28,294.55 C 287.95,294.43 287.65,294.31 287.38,294.19 C 287.10,294.07 286.86,293.94 286.62,293.81 C 286.39,293.68 286.16,293.55 285.94,293.42 C 285.72,293.29 285.51,293.15 285.31,293.02 C 285.11,292.88 284.93,292.74 284.75,292.59 C 284.57,292.45 284.41,292.30 284.25,292.16 C 284.09,292.01 283.95,291.86 283.81,291.70 C 283.68,291.55 283.55,291.39 283.44,291.23 C 283.32,291.08 283.22,290.91 283.12,290.75 C 283.03,290.59 282.97,290.41 282.88,290.25 C 282.78,290.09 282.68,289.94 282.57,289.79 C 282.46,289.64 282.34,289.50 282.21,289.37 C 282.08,289.23 281.94,289.11 281.80,288.98 C 281.65,288.86 281.49,288.75 281.33,288.64 C 281.16,288.53 280.99,288.43 280.80,288.34 C 280.62,288.24 280.43,288.15 280.23,288.07 C 280.02,287.99 279.81,287.91 279.59,287.84 C 279.37,287.77 279.11,287.72 278.91,287.66 C 278.71,287.59 278.54,287.53 278.40,287.46 C 278.26,287.39 278.15,287.33 278.07,287.26 C 277.99,287.19 277.94,287.12 277.92,287.05 C 277.90,286.98 277.91,286.90 277.95,286.83 C 277.99,286.75 278.06,286.68 278.16,286.60 C 278.26,286.52 278.39,286.45 278.55,286.37 C 278.71,286.29 278.90,286.21 279.12,286.12 C 279.35,286.04 279.64,285.96 279.88,285.88 C 280.11,285.79 280.32,285.70 280.51,285.60 C 280.70,285.51 280.87,285.41 281.02,285.30 C 281.18,285.20 281.31,285.10 281.42,284.98 C 281.54,284.87 281.63,284.76 281.70,284.64 C 281.78,284.52 281.83,284.40 281.87,284.27 C 281.90,284.15 281.92,284.02 281.91,283.88 C 281.91,283.75 281.89,283.61 281.84,283.47 C 281.80,283.33 281.73,283.17 281.66,283.03 C 281.59,282.89 281.51,282.76 281.42,282.64 C 281.34,282.52 281.24,282.40 281.14,282.30 C 281.04,282.19 280.93,282.09 280.81,282.00 C 280.70,281.91 280.57,281.83 280.44,281.75 C 280.30,281.67 280.16,281.61 280.02,281.55 C 279.87,281.49 279.71,281.43 279.55,281.39 C 279.38,281.35 279.21,281.31 279.03,281.28 C 278.85,281.25 278.63,281.24 278.47,281.22 C 278.31,281.20 278.17,281.17 278.06,281.14 C 277.95,281.11 277.87,281.08 277.81,281.05 C 277.76,281.01 277.72,280.98 277.72,280.94 C 277.71,280.90 277.73,280.86 277.78,280.81 C 277.83,280.77 277.90,280.72 278.00,280.67 C 278.10,280.62 278.22,280.57 278.38,280.52 C 278.53,280.46 278.70,280.40 278.91,280.34 C 279.11,280.28 279.37,280.23 279.59,280.16 C 279.81,280.09 280.02,280.01 280.23,279.93 C 280.43,279.85 280.62,279.76 280.80,279.66 C 280.99,279.57 281.16,279.47 281.33,279.36 C 281.49,279.25 281.65,279.14 281.80,279.02 C 281.94,278.89 282.08,278.77 282.21,278.63 C 282.34,278.50 282.46,278.36 282.57,278.21 C 282.68,278.06 282.78,277.91 282.88,277.75 C 282.97,277.59 283.03,277.41 283.12,277.25 C 283.22,277.09 283.32,276.92 283.44,276.77 C 283.55,276.61 283.68,276.45 283.81,276.30 C 283.95,276.14 284.09,275.99 284.25,275.84 C 284.41,275.70 284.57,275.55 284.75,275.41 C 284.93,275.26 285.11,275.12 285.31,274.98 C 285.51,274.85 285.72,274.71 285.94,274.58 C 286.16,274.45 286.39,274.32 286.62,274.19 C 286.86,274.06 287.10,273.93 287.38,273.81 C 287.65,273.69 287.95,273.57 288.28,273.45 C 288.61,273.34 288.96,273.22 289.34,273.11 C 289.72,273.00 290.13,272.89 290.56,272.78 C 290.99,272.67 291.45,272.57 291.94,272.47 C 292.42,272.37 292.93,272.27 293.47,272.17 C 294.01,272.08 294.57,271.98 295.16,271.89 C 295.74,271.80 296.36,271.71 297.00,271.62 C 297.64,271.54 298.37,271.46 299.00,271.38 C 299.63,271.29 300.22,271.19 300.78,271.09 C 301.34,270.99 301.86,270.89 302.34,270.78 C 302.83,270.67 303.28,270.56 303.69,270.44 C 304.10,270.32 304.47,270.19 304.81,270.06 C 305.15,269.93 305.45,269.80 305.72,269.66 C 305.98,269.52 306.21,269.37 306.41,269.22 C 306.60,269.07 306.76,268.91 306.88,268.75 C 306.99,268.59 307.02,268.41 307.12,268.25 C 307.23,268.09 307.35,267.95 307.48,267.81 C 307.62,267.68 307.78,267.55 307.95,267.44 C 308.13,267.32 308.32,267.22 308.53,267.12 C 308.74,267.03 308.97,266.95 309.22,266.88 C 309.47,266.80 309.73,266.74 310.02,266.69 C 310.30,266.64 310.60,266.59 310.92,266.56 C 311.24,266.53 311.58,266.51 311.94,266.50 C 312.29,266.49 312.67,266.51 313.06,266.50 C 313.46,266.49 313.88,266.46 314.31,266.42 C 314.75,266.38 315.21,266.33 315.69,266.27 C 316.17,266.20 316.67,266.12 317.19,266.03 C 317.71,265.94 318.25,265.84 318.81,265.72 C 319.38,265.60 319.96,265.47 320.56,265.33 C 321.17,265.18 321.79,265.03 322.44,264.86 C 323.08,264.69 323.75,264.51 324.44,264.31 C 325.12,264.12 325.90,263.89 326.56,263.69 C 327.22,263.49 327.84,263.29 328.41,263.11 C 328.97,262.92 329.49,262.75 329.97,262.58 C 330.44,262.41 330.87,262.25 331.25,262.09 C 331.63,261.94 331.96,261.79 332.25,261.66 C 332.54,261.52 332.78,261.39 332.97,261.27 C 333.16,261.14 333.31,261.03 333.41,260.92 C 333.51,260.82 333.56,260.72 333.56,260.62 C 333.57,260.53 333.50,260.46 333.44,260.38 C 333.38,260.29 333.30,260.21 333.20,260.12 C 333.11,260.04 332.99,259.96 332.86,259.88 C 332.73,259.79 332.58,259.71 332.41,259.62 C 332.24,259.54 332.05,259.46 331.84,259.38 C 331.64,259.29 331.41,259.21 331.17,259.12 C 330.93,259.04 330.67,258.96 330.39,258.88 C 330.11,258.79 329.82,258.71 329.50,258.62 C 329.18,258.54 328.81,258.46 328.50,258.38 C 328.19,258.29 327.89,258.20 327.62,258.12 C 327.34,258.03 327.09,257.94 326.85,257.85 C 326.62,257.76 326.40,257.67 326.20,257.58 C 326.01,257.49 325.83,257.39 325.67,257.30 C 325.51,257.20 325.38,257.11 325.26,257.01 C 325.14,256.91 325.04,256.81 324.96,256.71 C 324.88,256.61 324.82,256.51 324.78,256.41 C 324.74,256.30 324.75,256.19 324.72,256.09 C 324.69,255.99 324.66,255.90 324.62,255.80 C 324.58,255.71 324.53,255.62 324.48,255.54 C 324.42,255.45 324.36,255.37 324.30,255.30 C 324.23,255.22 324.16,255.15 324.08,255.08 C 324.00,255.01 323.91,254.94 323.82,254.88 C 323.73,254.82 323.63,254.76 323.52,254.71 C 323.42,254.66 323.31,254.61 323.19,254.56 C 323.07,254.52 322.93,254.49 322.81,254.44 C 322.69,254.38 322.57,254.31 322.45,254.22 C 322.34,254.13 322.22,254.03 322.11,253.91 C 322.00,253.79 321.89,253.65 321.78,253.50 C 321.67,253.35 321.57,253.18 321.47,253.00 C 321.37,252.82 321.27,252.62 321.17,252.41 C 321.08,252.19 320.98,251.96 320.89,251.72 C 320.80,251.47 320.71,251.21 320.62,250.94 C 320.54,250.66 320.44,250.34 320.38,250.06 C 320.31,249.79 320.27,249.52 320.26,249.27 C 320.24,249.02 320.25,248.79 320.27,248.57 C 320.30,248.35 320.35,248.14 320.42,247.95 C 320.49,247.76 320.59,247.58 320.70,247.42 C 320.82,247.26 320.96,247.11 321.12,246.98 C 321.28,246.84 321.46,246.72 321.66,246.62 C 321.87,246.51 322.10,246.42 322.34,246.34 C 322.59,246.27 322.86,246.21 323.16,246.16 C 323.46,246.10 323.79,246.04 324.15,245.99 C 324.51,245.94 324.90,245.89 325.32,245.85 C 325.74,245.81 326.19,245.77 326.67,245.73 C 327.15,245.70 327.66,245.67 328.20,245.64 C 328.74,245.61 329.31,245.59 329.91,245.57 C 330.51,245.55 331.14,245.54 331.80,245.52 C 332.46,245.51 333.15,245.50 333.88,245.50 C 334.60,245.50 335.40,245.49 336.12,245.50 C 336.85,245.51 337.55,245.52 338.22,245.53 C 338.89,245.55 339.54,245.57 340.16,245.59 C 340.78,245.62 341.37,245.65 341.94,245.69 C 342.51,245.72 343.05,245.77 343.56,245.81 C 344.08,245.86 344.57,245.91 345.03,245.97 C 345.49,246.03 345.93,246.09 346.34,246.16 C 346.76,246.22 347.14,246.30 347.50,246.38 C 347.86,246.45 348.18,246.54 348.50,246.62 C 348.82,246.71 349.13,246.81 349.43,246.91 C 349.73,247.02 350.01,247.13 350.29,247.24 C 350.56,247.36 350.83,247.48 351.08,247.61 C 351.33,247.74 351.57,247.87 351.80,248.02 C 352.02,248.16 352.24,248.31 352.45,248.46 C 352.65,248.62 352.84,248.78 353.02,248.95 C 353.20,249.11 353.37,249.29 353.53,249.47 C 353.69,249.65 353.83,249.84 353.97,250.03 C 354.11,250.22 354.23,250.41 354.35,250.60 C 354.47,250.79 354.58,250.99 354.68,251.18 C 354.78,251.37 354.87,251.57 354.95,251.77 C 355.04,251.96 355.11,252.16 355.17,252.36 C 355.24,252.56 355.29,252.76 355.34,252.96 C 355.38,253.16 355.42,253.37 355.45,253.57 C 355.47,253.77 355.49,253.98 355.50,254.19 C 355.51,254.39 355.51,254.61 355.50,254.81 C 355.49,255.01 355.47,255.21 355.45,255.40 C 355.42,255.59 355.38,255.77 355.34,255.95 C 355.29,256.12 355.24,256.29 355.17,256.45 C 355.11,256.62 355.04,256.77 354.95,256.92 C 354.87,257.07 354.78,257.21 354.68,257.35 C 354.58,257.49 354.47,257.62 354.35,257.74 C 354.23,257.87 354.11,257.98 353.97,258.09 C 353.83,258.20 353.68,258.31 353.53,258.41 C 353.38,258.50 353.23,258.60 353.07,258.68 C 352.91,258.76 352.75,258.84 352.59,258.91 C 352.42,258.99 352.25,259.05 352.08,259.11 C 351.90,259.17 351.73,259.22 351.55,259.27 C 351.37,259.31 351.18,259.35 350.99,259.38 C 350.80,259.42 350.61,259.44 350.41,259.46 C 350.22,259.48 350.02,259.49 349.81,259.50 C 349.61,259.51 349.38,259.49 349.19,259.50 C 348.99,259.51 348.82,259.52 348.66,259.53 C 348.49,259.55 348.35,259.57 348.22,259.59 C 348.09,259.62 347.97,259.65 347.88,259.69 C 347.78,259.72 347.69,259.77 347.62,259.81 C 347.56,259.86 347.51,259.91 347.47,259.97 C 347.43,260.03 347.41,260.09 347.41,260.16 C 347.40,260.22 347.41,260.30 347.44,260.38 C 347.46,260.45 347.51,260.55 347.56,260.62 C 347.61,260.70 347.68,260.76 347.75,260.81 C 347.82,260.86 347.91,260.91 348.00,260.94 C 348.09,260.97 348.20,260.99 348.31,261.00 C 348.43,261.01 348.55,261.01 348.69,261.00 C 348.82,260.99 348.97,260.97 349.12,260.94 C 349.28,260.91 349.45,260.86 349.62,260.81 C 349.80,260.76 349.99,260.70 350.19,260.62 C 350.39,260.55 350.58,260.45 350.81,260.38 C 351.05,260.30 351.31,260.22 351.59,260.16 C 351.88,260.09 352.19,260.03 352.53,259.97 C 352.87,259.91 353.23,259.86 353.62,259.81 C 354.02,259.77 354.43,259.72 354.88,259.69 C 355.32,259.65 355.79,259.62 356.28,259.59 C 356.78,259.57 357.30,259.55 357.84,259.53 C 358.39,259.52 358.96,259.51 359.56,259.50 C 360.16,259.49 360.85,259.48 361.44,259.50 C 362.03,259.52 362.59,259.55 363.11,259.61 C 363.63,259.66 364.12,259.74 364.58,259.83 C 365.03,259.92 365.46,260.03 365.84,260.16 C 366.23,260.28 366.59,260.43 366.91,260.59 C 367.23,260.76 367.51,260.94 367.77,261.14 C 368.02,261.34 368.24,261.56 368.42,261.80 C 368.61,262.03 368.76,262.29 368.88,262.56 C 368.99,262.84 369.02,263.16 369.12,263.44 C 369.23,263.72 369.37,263.98 369.53,264.23 C 369.69,264.49 369.88,264.73 370.09,264.95 C 370.31,265.18 370.55,265.39 370.81,265.59 C 371.08,265.79 371.37,265.98 371.69,266.16 C 372.01,266.33 372.35,266.49 372.72,266.64 C 373.09,266.79 373.48,266.92 373.91,267.05 C 374.33,267.17 374.78,267.28 375.25,267.38 C 375.72,267.47 376.27,267.55 376.75,267.62 C 377.23,267.70 377.68,267.78 378.11,267.84 C 378.54,267.91 378.95,267.97 379.33,268.03 C 379.71,268.09 380.07,268.14 380.41,268.19 C 380.74,268.23 381.05,268.28 381.34,268.31 C 381.63,268.35 381.90,268.38 382.14,268.41 C 382.38,268.43 382.60,268.45 382.80,268.47 C 382.99,268.48 383.16,268.49 383.31,268.50 C 383.46,268.51 383.56,268.51 383.69,268.50 C 383.82,268.49 383.95,268.46 384.08,268.42 C 384.21,268.38 384.35,268.33 384.48,268.27 C 384.62,268.20 384.76,268.12 384.91,268.03 C 385.05,267.94 385.20,267.84 385.34,267.72 C 385.49,267.60 385.64,267.47 385.80,267.33 C 385.95,267.18 386.11,267.03 386.27,266.86 C 386.42,266.69 386.59,266.51 386.75,266.31 C 386.91,266.12 387.08,265.88 387.25,265.69 C 387.42,265.49 387.58,265.31 387.75,265.14 C 387.92,264.97 388.08,264.82 388.25,264.67 C 388.42,264.53 388.58,264.40 388.75,264.28 C 388.92,264.16 389.08,264.06 389.25,263.97 C 389.42,263.88 389.58,263.80 389.75,263.73 C 389.92,263.67 390.08,263.62 390.25,263.58 C 390.42,263.54 390.58,263.51 390.75,263.50 C 390.92,263.49 391.09,263.48 391.25,263.50 C 391.41,263.52 391.57,263.57 391.73,263.63 C 391.88,263.70 392.03,263.79 392.18,263.90 C 392.33,264.01 392.47,264.14 392.61,264.30 C 392.75,264.45 392.88,264.63 393.02,264.83 C 393.15,265.03 393.27,265.25 393.40,265.49 C 393.52,265.74 393.64,266.00 393.76,266.29 C 393.87,266.58 393.99,266.89 394.09,267.22 C 394.20,267.55 394.30,267.94 394.41,268.28 C 394.52,268.62 394.63,268.95 394.76,269.27 C 394.88,269.59 395.01,269.90 395.15,270.20 C 395.29,270.49 395.43,270.77 395.58,271.05 C 395.73,271.32 395.88,271.58 396.05,271.83 C 396.21,272.08 396.38,272.31 396.55,272.54 C 396.73,272.76 396.91,272.98 397.10,273.18 C 397.29,273.38 397.49,273.57 397.69,273.75 C 397.89,273.93 398.11,274.06 398.31,274.25 C 398.51,274.44 398.70,274.66 398.88,274.91 C 399.05,275.15 399.22,275.42 399.38,275.72 C 399.53,276.02 399.68,276.34 399.81,276.69 C 399.95,277.04 400.07,277.41 400.19,277.81 C 400.30,278.21 400.41,278.64 400.50,279.09 C 400.59,279.55 400.68,280.03 400.75,280.53 C 400.82,281.04 400.89,281.57 400.94,282.12 C 400.99,282.68 401.04,283.31 401.06,283.88 C 401.09,284.44 401.09,284.98 401.08,285.50 C 401.07,286.02 401.03,286.52 400.98,287.00 C 400.93,287.48 400.87,287.94 400.78,288.38 C 400.70,288.81 400.59,289.23 400.47,289.62 C 400.35,290.02 400.21,290.40 400.05,290.75 C 399.89,291.10 399.71,291.44 399.52,291.75 C 399.32,292.06 399.11,292.35 398.88,292.62 C 398.64,292.90 398.37,293.12 398.12,293.38 C 397.88,293.63 397.65,293.89 397.43,294.16 C 397.21,294.43 396.99,294.71 396.79,294.99 C 396.58,295.27 396.39,295.56 396.20,295.86 C 396.02,296.15 395.84,296.46 395.67,296.77 C 395.50,297.07 395.35,297.39 395.20,297.71 C 395.05,298.03 394.90,298.36 394.77,298.70 C 394.64,299.03 394.52,299.37 394.41,299.72 C 394.29,300.07 394.20,300.45 394.09,300.78 C 393.99,301.11 393.87,301.42 393.76,301.71 C 393.64,302.00 393.52,302.26 393.40,302.51 C 393.27,302.75 393.15,302.97 393.02,303.17 C 392.88,303.37 392.75,303.55 392.61,303.70 C 392.47,303.86 392.33,303.99 392.18,304.10 C 392.03,304.21 391.88,304.30 391.73,304.37 C 391.57,304.43 391.41,304.48 391.25,304.50 C 391.09,304.52 390.92,304.51 390.75,304.50 C 390.58,304.49 390.42,304.46 390.25,304.42 C 390.08,304.38 389.92,304.33 389.75,304.27 C 389.58,304.20 389.42,304.12 389.25,304.03 C 389.08,303.94 388.92,303.84 388.75,303.72 C 388.58,303.60 388.42,303.47 388.25,303.33 C 388.08,303.18 387.92,303.03 387.75,302.86 C 387.58,302.69 387.42,302.51 387.25,302.31 C 387.08,302.12 386.91,301.88 386.75,301.69 C 386.59,301.49 386.42,301.31 386.27,301.14 C 386.11,300.97 385.95,300.82 385.80,300.67 C 385.64,300.53 385.49,300.40 385.34,300.28 C 385.20,300.16 385.05,300.06 384.91,299.97 C 384.76,299.88 384.62,299.80 384.48,299.73 C 384.35,299.67 384.21,299.62 384.08,299.58 C 383.95,299.54 383.82,299.51 383.69,299.50 C 383.56,299.49 383.46,299.49 383.31,299.50 C 383.16,299.51 382.98,299.52 382.78,299.53 C 382.58,299.55 382.35,299.57 382.09,299.59 C 381.84,299.62 381.56,299.65 381.25,299.69 C 380.94,299.72 380.61,299.77 380.25,299.81 C 379.89,299.86 379.51,299.91 379.09,299.97 C 378.68,300.03 378.24,300.09 377.78,300.16 C 377.32,300.22 376.83,300.30 376.31,300.38 C 375.80,300.45 375.19,300.53 374.69,300.62 C 374.18,300.72 373.71,300.82 373.27,300.93 C 372.84,301.04 372.44,301.16 372.07,301.29 C 371.70,301.42 371.37,301.56 371.08,301.70 C 370.78,301.85 370.52,302.01 370.30,302.17 C 370.07,302.34 369.88,302.51 369.73,302.70 C 369.57,302.88 369.45,303.07 369.37,303.27 C 369.28,303.48 369.23,303.69 369.22,303.91 C 369.20,304.13 369.27,304.38 369.28,304.59 C 369.30,304.81 369.31,305.02 369.31,305.22 C 369.32,305.42 369.32,305.60 369.31,305.78 C 369.31,305.96 369.30,306.12 369.28,306.28 C 369.27,306.44 369.24,306.58 369.22,306.72 C 369.19,306.85 369.16,306.98 369.12,307.09 C 369.09,307.21 369.05,307.31 369.00,307.41 C 368.95,307.50 368.90,307.58 368.84,307.66 C 368.79,307.73 368.75,307.79 368.66,307.84 C 368.56,307.90 368.43,307.96 368.26,308.01 C 368.09,308.06 367.89,308.11 367.65,308.15 C 367.41,308.19 367.14,308.23 366.83,308.27 C 366.52,308.30 366.18,308.33 365.80,308.36 C 365.42,308.39 365.00,308.41 364.55,308.43 C 364.11,308.45 363.62,308.46 363.10,308.48 C 362.58,308.49 362.03,308.50 361.44,308.50 C 360.85,308.50 360.16,308.51 359.56,308.50 C 358.96,308.49 358.39,308.48 357.84,308.47 C 357.30,308.45 356.78,308.43 356.28,308.41 C 355.79,308.38 355.32,308.35 354.88,308.31 C 354.43,308.28 354.02,308.23 353.62,308.19 C 353.23,308.14 352.87,308.09 352.53,308.03 C 352.19,307.97 351.88,307.91 351.59,307.84 C 351.31,307.78 351.05,307.70 350.81,307.62 C 350.58,307.55 350.39,307.45 350.19,307.38 C 349.99,307.30 349.80,307.24 349.62,307.19 C 349.45,307.14 349.28,307.09 349.12,307.06 C 348.97,307.03 348.82,307.01 348.69,307.00 C 348.55,306.99 348.43,306.99 348.31,307.00 C 348.20,307.01 348.09,307.03 348.00,307.06 C 347.91,307.09 347.82,307.14 347.75,307.19 C 347.68,307.24 347.61,307.30 347.56,307.38 C 347.51,307.45 347.46,307.55 347.44,307.62 C 347.41,307.70 347.40,307.78 347.41,307.84 C 347.41,307.91 347.43,307.97 347.47,308.03 C 347.51,308.09 347.56,308.14 347.62,308.19 C 347.69,308.23 347.78,308.28 347.88,308.31 C 347.97,308.35 348.09,308.38 348.22,308.41 C 348.35,308.43 348.49,308.45 348.66,308.47 C 348.82,308.48 348.99,308.49 349.19,308.50 C 349.38,308.51 349.61,308.49 349.81,308.50 C 350.02,308.51 350.22,308.52 350.41,308.54 C 350.61,308.56 350.80,308.58 350.99,308.62 C 351.18,308.65 351.37,308.69 351.55,308.73 C 351.73,308.78 351.90,308.83 352.08,308.89 C 352.25,308.95 352.42,309.01 352.59,309.09 C 352.75,309.16 352.91,309.24 353.07,309.32 C 353.23,309.40 353.38,309.50 353.53,309.59 C 353.68,309.69 353.83,309.80 353.97,309.91 C 354.11,310.02 354.23,310.13 354.35,310.26 C 354.47,310.38 354.58,310.51 354.68,310.65 C 354.78,310.79 354.87,310.93 354.95,311.08 C 355.04,311.23 355.11,311.38 355.17,311.55 C 355.24,311.71 355.29,311.88 355.34,312.05 C 355.38,312.23 355.42,312.41 355.45,312.60 C 355.47,312.79 355.49,312.99 355.50,313.19 C 355.51,313.39 355.51,313.61 355.50,313.81 C 355.49,314.02 355.47,314.23 355.45,314.43 C 355.42,314.63 355.38,314.84 355.34,315.04 C 355.29,315.24 355.24,315.44 355.17,315.64 C 355.11,315.84 355.04,316.04 354.95,316.23 C 354.87,316.43 354.78,316.63 354.68,316.82 C 354.58,317.01 354.47,317.21 354.35,317.40 C 354.23,317.59 354.11,317.78 353.97,317.97 C 353.83,318.16 353.69,318.35 353.53,318.53 C 353.37,318.71 353.20,318.89 353.02,319.05 C 352.84,319.22 352.65,319.38 352.45,319.54 C 352.24,319.69 352.02,319.84 351.80,319.98 C 351.57,320.13 351.33,320.26 351.08,320.39 C 350.83,320.52 350.56,320.64 350.29,320.76 C 350.01,320.87 349.73,320.98 349.43,321.09 C 349.13,321.19 348.82,321.29 348.50,321.38 C 348.18,321.46 347.87,321.55 347.50,321.62 C 347.13,321.70 346.72,321.78 346.27,321.84 C 345.82,321.91 345.33,321.97 344.80,322.03 C 344.27,322.09 343.70,322.14 343.09,322.19 C 342.49,322.23 341.84,322.28 341.16,322.31 C 340.47,322.35 339.75,322.38 338.98,322.41 C 338.22,322.43 337.42,322.45 336.58,322.47 C 335.74,322.48 334.86,322.49 333.94,322.50 Z" />
    </clipPath>
  </defs>
  <path d="M 333.94,322.50 C 333.02,322.51 331.96,322.50 331.06,322.50 C 330.16,322.50 329.31,322.49 328.52,322.48 C 327.73,322.46 327.00,322.45 326.32,322.43 C 325.64,322.41 325.02,322.39 324.45,322.36 C 323.89,322.33 323.38,322.30 322.92,322.27 C 322.47,322.23 322.07,322.19 321.73,322.15 C 321.38,322.11 321.10,322.06 320.87,322.01 C 320.64,321.96 320.46,321.90 320.34,321.84 C 320.23,321.79 320.21,321.73 320.16,321.66 C 320.10,321.58 320.05,321.50 320.01,321.40 C 319.96,321.30 319.93,321.19 319.90,321.07 C 319.87,320.95 319.85,320.82 319.83,320.67 C 319.81,320.53 319.80,320.37 319.80,320.20 C 319.79,320.04 319.80,319.86 319.80,319.66 C 319.81,319.47 319.83,319.27 319.85,319.05 C 319.87,318.84 319.90,318.61 319.94,318.38 C 319.97,318.14 320.01,317.86 320.06,317.62 C 320.11,317.39 320.17,317.16 320.23,316.95 C 320.29,316.73 320.36,316.53 320.43,316.34 C 320.50,316.14 320.58,315.96 320.67,315.80 C 320.76,315.63 320.85,315.47 320.95,315.33 C 321.05,315.18 321.16,315.05 321.27,314.93 C 321.39,314.81 321.51,314.70 321.63,314.60 C 321.76,314.50 321.89,314.42 322.03,314.34 C 322.17,314.27 322.33,314.22 322.47,314.16 C 322.61,314.09 322.74,314.02 322.87,313.95 C 322.99,313.87 323.11,313.79 323.23,313.71 C 323.34,313.63 323.45,313.54 323.55,313.45 C 323.65,313.36 323.74,313.27 323.83,313.17 C 323.92,313.07 324.00,312.97 324.07,312.87 C 324.14,312.76 324.21,312.65 324.27,312.54 C 324.33,312.43 324.39,312.31 324.44,312.19 C 324.49,312.07 324.51,311.93 324.56,311.81 C 324.61,311.70 324.67,311.59 324.73,311.48 C 324.80,311.38 324.87,311.29 324.95,311.20 C 325.03,311.12 325.12,311.04 325.22,310.97 C 325.32,310.90 325.42,310.84 325.53,310.78 C 325.64,310.73 325.76,310.68 325.89,310.64 C 326.02,310.60 326.15,310.57 326.30,310.55 C 326.44,310.52 326.59,310.51 326.75,310.50 C 326.91,310.49 327.08,310.51 327.25,310.50 C 327.42,310.49 327.59,310.47 327.77,310.44 C 327.94,310.41 328.12,310.36 328.30,310.31 C 328.48,310.26 328.66,310.20 328.84,310.12 C 329.03,310.05 329.22,309.97 329.41,309.88 C 329.60,309.78 329.79,309.68 329.98,309.56 C 330.18,309.45 330.38,309.32 330.58,309.19 C 330.78,309.05 330.98,308.91 331.19,308.75 C 331.39,308.59 331.66,308.42 331.81,308.25 C 331.97,308.08 332.07,307.91 332.11,307.73 C 332.15,307.56 332.14,307.38 332.08,307.20 C 332.01,307.02 331.89,306.84 331.72,306.66 C 331.54,306.47 331.32,306.28 331.03,306.09 C 330.75,305.90 330.41,305.71 330.02,305.52 C 329.62,305.32 329.17,305.12 328.67,304.92 C 328.17,304.72 327.61,304.52 327.00,304.31 C 326.39,304.11 325.65,303.88 325.00,303.69 C 324.35,303.49 323.71,303.31 323.09,303.14 C 322.47,302.97 321.87,302.82 321.28,302.67 C 320.69,302.53 320.12,302.40 319.56,302.28 C 319.01,302.16 318.46,302.06 317.94,301.97 C 317.41,301.88 316.90,301.80 316.41,301.73 C 315.91,301.67 315.43,301.62 314.97,301.58 C 314.51,301.54 314.06,301.51 313.62,301.50 C 313.19,301.49 312.77,301.51 312.38,301.50 C 311.98,301.49 311.60,301.47 311.25,301.44 C 310.90,301.41 310.56,301.36 310.25,301.31 C 309.94,301.26 309.65,301.20 309.38,301.12 C 309.10,301.05 308.85,300.97 308.62,300.88 C 308.40,300.78 308.19,300.68 308.00,300.56 C 307.81,300.45 307.65,300.32 307.50,300.19 C 307.35,300.05 307.23,299.91 307.12,299.75 C 307.02,299.59 306.99,299.41 306.88,299.25 C 306.76,299.09 306.60,298.93 306.41,298.78 C 306.21,298.63 305.98,298.48 305.72,298.34 C 305.45,298.20 305.15,298.07 304.81,297.94 C 304.47,297.81 304.10,297.68 303.69,297.56 C 303.28,297.44 302.83,297.33 302.34,297.22 C 301.86,297.11 301.34,297.01 300.78,296.91 C 300.22,296.81 299.63,296.71 299.00,296.62 C 298.37,296.54 297.64,296.46 297.00,296.38 C 296.36,296.29 295.74,296.20 295.16,296.11 C 294.57,296.02 294.01,295.92 293.47,295.83 C 292.93,295.73 292.42,295.63 291.94,295.53 C 291.45,295.43 290.99,295.33 290.56,295.22 C 290.13,295.11 289.72,295.00 289.34,294.89 C 288.96,294.78 288.61,294.66 288.28,294.55 C 287.95,294.43 287.65,294.31 287.38,294.19 C 287.10,294.07 286.86,293.94 286.62,293.81 C 286.39,293.68 286.16,293.55 285.94,293.42 C 285.72,293.29 285.51,293.15 285.31,293.02 C 285.11,292.88 284.93,292.74 284.75,292.59 C 284.57,292.45 284.41,292.30 284.25,292.16 C 284.09,292.01 283.95,291.86 283.81,291.70 C 283.68,291.55 283.55,291.39 283.44,291.23 C 283.32,291.08 283.22,290.91 283.12,290.75 C 283.03,290.59 282.97,290.41 282.88,290.25 C 282.78,290.09 282.68,289.94 282.57,289.79 C 282.46,289.64 282.34,289.50 282.21,289.37 C 282.08,289.23 281.94,289.11 281.80,288.98 C 281.65,288.86 281.49,288.75 281.33,288.64 C 281.16,288.53 280.99,288.43 280.80,288.34 C 280.62,288.24 280.43,288.15 280.23,288.07 C 280.02,287.99 279.81,287.91 279.59,287.84 C 279.37,287.77 279.11,287.72 278.91,287.66 C 278.71,287.59 278.54,287.53 278.40,287.46 C 278.26,287.39 278.15,287.33 278.07,287.26 C 277.99,287.19 277.94,287.12 277.92,287.05 C 277.90,286.98 277.91,286.90 277.95,286.83 C 277.99,286.75 278.06,286.68 278.16,286.60 C 278.26,286.52 278.39,286.45 278.55,286.37 C 278.71,286.29 278.90,286.21 279.12,286.12 C 279.35,286.04 279.64,285.96 279.88,285.88 C 280.11,285.79 280.32,285.70 280.51,285.60 C 280.70,285.51 280.87,285.41 281.02,285.30 C 281.18,285.20 281.31,285.10 281.42,284.98 C 281.54,284.87 281.63,284.76 281.70,284.64 C 281.78,284.52 281.83,284.40 281.87,284.27 C 281.90,284.15 281.92,284.02 281.91,283.88 C 281.91,283.75 281.89,283.61 281.84,283.47 C 281.80,283.33 281.73,283.17 281.66,283.03 C 281.59,282.89 281.51,282.76 281.42,282.64 C 281.34,282.52 281.24,282.40 281.14,282.30 C 281.04,282.19 280.93,282.09 280.81,282.00 C 280.70,281.91 280.57,281.83 280.44,281.75 C 280.30,281.67 280.16,281.61 280.02,281.55 C 279.87,281.49 279.71,281.43 279.55,281.39 C 279.38,281.35 279.21,281.31 279.03,281.28 C 278.85,281.25 278.63,281.24 278.47,281.22 C 278.31,281.20 278.17,281.17 278.06,281.14 C 277.95,281.11 277.87,281.08 277.81,281.05 C 277.76,281.01 277.72,280.98 277.72,280.94 C 277.71,280.90 277.73,280.86 277.78,280.81 C 277.83,280.77 277.90,280.72 278.00,280.67 C 278.10,280.62 278.22,280.57 278.38,280.52 C 278.53,280.46 278.70,280.40 278.91,280.34 C 279.11,280.28 279.37,280.23 279.59,280.16 C 279.81,280.09 280.02,280.01 280.23,279.93 C 280.43,279.85 280.62,279.76 280.80,279.66 C 280.99,279.57 281.16,279.47 281.33,279.36 C 281.49,279.25 281.65,279.14 281.80,279.02 C 281.94,278.89 282.08,278.77 282.21,278.63 C 282.34,278.50 282.46,278.36 282.57,278.21 C 282.68,278.06 282.78,277.91 282.88,277.75 C 282.97,277.59 283.03,277.41 283.12,277.25 C 283.22,277.09 283.32,276.92 283.44,276.77 C 283.55,276.61 283.68,276.45 283.81,276.30 C 283.95,276.14 284.09,275.99 284.25,275.84 C 284.41,275.70 284.57,275.55 284.75,275.41 C 284.93,275.26 285.11,275.12 285.31,274.98 C 285.51,274.85 285.72,274.71 285.94,274.58 C 286.16,274.45 286.39,274.32 286.62,274.19 C 286.86,274.06 287.10,273.93 287.38,273.81 C 287.65,273.69 287.95,273.57 288.28,273.45 C 288.61,273.34 288.96,273.22 289.34,273.11 C 289.72,273.00 290.13,272.89 290.56,272.78 C 290.99,272.67 291.45,272.57 291.94,272.47 C 292.42,272.37 292.93,272.27 293.47,272.17 C 294.01,272.08 294.57,271.98 295.16,271.89 C 295.74,271.80 296.36,271.71 297.00,271.62 C 297.64,271.54 298.37,271.46 299.00,271.38 C 299.63,271.29 300.22,271.19 300.78,271.09 C 301.34,270.99 301.86,270.89 302.34,270.78 C 302.83,270.67 303.28,270.56 303.69,270.44 C 304.10,270.32 304.47,270.19 304.81,270.06 C 305.15,269.93 305.45,269.80 305.72,269.66 C 305.98,269.52 306.21,269.37 306.41,269.22 C 306.60,269.07 306.76,268.91 306.88,268.75 C 306.99,268.59 307.02,268.41 307.12,268.25 C 307.23,268.09 307.35,267.95 307.48,267.81 C 307.62,267.68 307.78,267.55 307.95,267.44 C 308.13,267.32 308.32,267.22 308.53,267.12 C 308.74,267.03 308.97,266.95 309.22,266.88 C 309.47,266.80 309.73,266.74 310.02,266.69 C 310.30,266.64 310.60,266.59 310.92,266.56 C 311.24,266.53 311.58,266.51 311.94,266.50 C 312.29,266.49 312.67,266.51 313.06,266.50 C 313.46,266.49 313.88,266.46 314.31,266.42 C 314.75,266.38 315.21,266.33 315.69,266.27 C 316.17,266.20 316.67,266.12 317.19,266.03 C 317.71,265.94 318.25,265.84 318.81,265.72 C 319.38,265.60 319.96,265.47 320.56,265.33 C 321.17,265.18 321.79,265.03 322.44,264.86 C 323.08,264.69 323.75,264.51 324.44,264.31 C 325.12,264.12 325.90,263.89 326.56,263.69 C 327.22,263.49 327.84,263.29 328.41,263.11 C 328.97,262.92 329.49,262.75 329.97,262.58 C 330.44,262.41 330.87,262.25 331.25,262.09 C 331.63,261.94 331.96,261.79 332.25,261.66 C 332.54,261.52 332.78,261.39 332.97,261.27 C 333.16,261.14 333.31,261.03 333.41,260.92 C 333.51,260.82 333.56,260.72 333.56,260.62 C 333.57,260.53 333.50,260.46 333.44,260.38 C 333.38,260.29 333.30,260.21 333.20,260.12 C 333.11,260.04 332.99,259.96 332.86,259.88 C 332.73,259.79 332.58,259.71 332.41,259.62 C 332.24,259.54 332.05,259.46 331.84,259.38 C 331.64,259.29 331.41,259.21 331.17,259.12 C 330.93,259.04 330.67,258.96 330.39,258.88 C 330.11,258.79 329.82,258.71 329.50,258.62 C 329.18,258.54 328.81,258.46 328.50,258.38 C 328.19,258.29 327.89,258.20 327.62,258.12 C 327.34,258.03 327.09,257.94 326.85,257.85 C 326.62,257.76 326.40,257.67 326.20,257.58 C 326.01,257.49 325.83,257.39 325.67,257.30 C 325.51,257.20 325.38,257.11 325.26,257.01 C 325.14,256.91 325.04,256.81 324.96,256.71 C 324.88,256.61 324.82,256.51 324.78,256.41 C 324.74,256.30 324.75,256.19 324.72,256.09 C 324.69,255.99 324.66,255.90 324.62,255.80 C 324.58,255.71 324.53,255.62 324.48,255.54 C 324.42,255.45 324.36,255.37 324.30,255.30 C 324.23,255.22 324.16,255.15 324.08,255.08 C 324.00,255.01 323.91,254.94 323.82,254.88 C 323.73,254.82 323.63,254.76 323.52,254.71 C 323.42,254.66 323.31,254.61 323.19,254.56 C 323.07,254.52 322.93,254.49 322.81,254.44 C 322.69,254.38 322.57,254.31 322.45,254.22 C 322.34,254.13 322.22,254.03 322.11,253.91 C 322.00,253.79 321.89,253.65 321.78,253.50 C 321.67,253.35 321.57,253.18 321.47,253.00 C 321.37,252.82 321.27,252.62 321.17,252.41 C 321.08,252.19 320.98,251.96 320.89,251.72 C 320.80,251.47 320.71,251.21 320.62,250.94 C 320.54,250.66 320.44,250.34 320.38,250.06 C 320.31,249.79 320.27,249.52 320.26,249.27 C 320.24,249.02 320.25,248.79 320.27,248.57 C 320.30,248.35 320.35,248.14 320.42,247.95 C 320.49,247.76 320.59,247.58 320.70,247.42 C 320.82,247.26 320.96,247.11 321.12,246.98 C 321.28,246.84 321.46,246.72 321.66,246.62 C 321.87,246.51 322.10,246.42 322.34,246.34 C 322.59,246.27 322.86,246.21 323.16,246.16 C 323.46,246.10 323.79,246.04 324.15,245.99 C 324.51,245.94 324.90,245.89 325.32,245.85 C 325.74,245.81 326.19,245.77 326.67,245.73 C 327.15,245.70 327.66,245.67 328.20,245.64 C 328.74,245.61 329.31,245.59 329.91,245.57 C 330.51,245.55 331.14,245.54 331.80,245.52 C 332.46,245.51 333.15,245.50 333.88,245.50 C 334.60,245.50 335.40,245.49 336.12,245.50 C 336.85,245.51 337.55,245.52 338.22,245.53 C 338.89,245.55 339.54,245.57 340.16,245.59 C 340.78,245.62 341.37,245.65 341.94,245.69 C 342.51,245.72 343.05,245.77 343.56,245.81 C 344.08,245.86 344.57,245.91 345.03,245.97 C 345.49,246.03 345.93,246.09 346.34,246.16 C 346.76,246.22 347.14,246.30 347.50,246.38 C 347.86,246.45 348.18,246.54 348.50,246.62 C 348.82,246.71 349.13,246.81 349.43,246.91 C 349.73,247.02 350.01,247.13 350.29,247.24 C 350.56,247.36 350.83,247.48 351.08,247.61 C 351.33,247.74 351.57,247.87 351.80,248.02 C 352.02,248.16 352.24,248.31 352.45,248.46 C 352.65,248.62 352.84,248.78 353.02,248.95 C 353.20,249.11 353.37,249.29 353.53,249.47 C 353.69,249.65 353.83,249.84 353.97,250.03 C 354.11,250.22 354.23,250.41 354.35,250.60 C 354.47,250.79 354.58,250.99 354.68,251.18 C 354.78,251.37 354.87,251.57 354.95,251.77 C 355.04,251.96 355.11,252.16 355.17,252.36 C 355.24,252.56 355.29,252.76 355.34,252.96 C 355.38,253.16 355.42,253.37 355.45,253.57 C 355.47,253.77 355.49,253.98 355.50,254.19 C 355.51,254.39 355.51,254.61 355.50,254.81 C 355.49,255.01 355.47,255.21 355.45,255.40 C 355.42,255.59 355.38,255.77 355.34,255.95 C 355.29,256.12 355.24,256.29 355.17,256.45 C 355.11,256.62 355.04,256.77 354.95,256.92 C 354.87,257.07 354.78,257.21 354.68,257.35 C 354.58,257.49 354.47,257.62 354.35,257.74 C 354.23,257.87 354.11,257.98 353.97,258.09 C 353.83,258.20 353.68,258.31 353.53,258.41 C 353.38,258.50 353.23,258.60 353.07,258.68 C 352.91,258.76 352.75,258.84 352.59,258.91 C 352.42,258.99 352.25,259.05 352.08,259.11 C 351.90,259.17 351.73,259.22 351.55,259.27 C 351.37,259.31 351.18,259.35 350.99,259.38 C 350.80,259.42 350.61,259.44 350.41,259.46 C 350.22,259.48 350.02,259.49 349.81,259.50 C 349.61,259.51 349.38,259.49 349.19,259.50 C 348.99,259.51 348.82,259.52 348.66,259.53 C 348.49,259.55 348.35,259.57 348.22,259.59 C 348.09,259.62 347.97,259.65 347.88,259.69 C 347.78,259.72 347.69,259.77 347.62,259.81 C 347.56,259.86 347.51,259.91 347.47,259.97 C 347.43,260.03 347.41,260.09 347.41,260.16 C 347.40,260.22 347.41,260.30 347.44,260.38 C 347.46,260.45 347.51,260.55 347.56,260.62 C 347.61,260.70 347.68,260.76 347.75,260.81 C 347.82,260.86 347.91,260.91 348.00,260.94 C 348.09,260.97 348.20,260.99 348.31,261.00 C 348.43,261.01 348.55,261.01 348.69,261.00 C 348.82,260.99 348.97,260.97 349.12,260.94 C 349.28,260.91 349.45,260.86 349.62,260.81 C 349.80,260.76 349.99,260.70 350.19,260.62 C 350.39,260.55 350.58,260.45 350.81,260.38 C 351.05,260.30 351.31,260.22 351.59,260.16 C 351.88,260.09 352.19,260.03 352.53,259.97 C 352.87,259.91 353.23,259.86 353.62,259.81 C 354.02,259.77 354.43,259.72 354.88,259.69 C 355.32,259.65 355.79,259.62 356.28,259.59 C 356.78,259.57 357.30,259.55 357.84,259.53 C 358.39,259.52 358.96,259.51 359.56,259.50 C 360.16,259.49 360.85,259.48 361.44,259.50 C 362.03,259.52 362.59,259.55 363.11,259.61 C 363.63,259.66 364.12,259.74 364.58,259.83 C 365.03,259.92 365.46,260.03 365.84,260.16 C 366.23,260.28 366.59,260.43 366.91,260.59 C 367.23,260.76 367.51,260.94 367.77,261.14 C 368.02,261.34 368.24,261.56 368.42,261.80 C 368.61,262.03 368.76,262.29 368.88,262.56 C 368.99,262.84 369.02,263.16 369.12,263.44 C 369.23,263.72 369.37,263.98 369.53,264.23 C 369.69,264.49 369.88,264.73 370.09,264.95 C 370.31,265.18 370.55,265.39 370.81,265.59 C 371.08,265.79 371.37,265.98 371.69,266.16 C 372.01,266.33 372.35,266.49 372.72,266.64 C 373.09,266.79 373.48,266.92 373.91,267.05 C 374.33,267.17 374.78,267.28 375.25,267.38 C 375.72,267.47 376.27,267.55 376.75,267.62 C 377.23,267.70 377.68,267.78 378.11,267.84 C 378.54,267.91 378.95,267.97 379.33,268.03 C 379.71,268.09 380.07,268.14 380.41,268.19 C 380.74,268.23 381.05,268.28 381.34,268.31 C 381.63,268.35 381.90,268.38 382.14,268.41 C 382.38,268.43 382.60,268.45 382.80,268.47 C 382.99,268.48 383.16,268.49 383.31,268.50 C 383.46,268.51 383.56,268.51 383.69,268.50 C 383.82,268.49 383.95,268.46 384.08,268.42 C 384.21,268.38 384.35,268.33 384.48,268.27 C 384.62,268.20 384.76,268.12 384.91,268.03 C 385.05,267.94 385.20,267.84 385.34,267.72 C 385.49,267.60 385.64,267.47 385.80,267.33 C 385.95,267.18 386.11,267.03 386.27,266.86 C 386.42,266.69 386.59,266.51 386.75,266.31 C 386.91,266.12 387.08,265.88 387.25,265.69 C 387.42,265.49 387.58,265.31 387.75,265.14 C 387.92,264.97 388.08,264.82 388.25,264.67 C 388.42,264.53 388.58,264.40 388.75,264.28 C 388.92,264.16 389.08,264.06 389.25,263.97 C 389.42,263.88 389.58,263.80 389.75,263.73 C 389.92,263.67 390.08,263.62 390.25,263.58 C 390.42,263.54 390.58,263.51 390.75,263.50 C 390.92,263.49 391.09,263.48 391.25,263.50 C 391.41,263.52 391.57,263.57 391.73,263.63 C 391.88,263.70 392.03,263.79 392.18,263.90 C 392.33,264.01 392.47,264.14 392.61,264.30 C 392.75,264.45 392.88,264.63 393.02,264.83 C 393.15,265.03 393.27,265.25 393.40,265.49 C 393.52,265.74 393.64,266.00 393.76,266.29 C 393.87,266.58 393.99,266.89 394.09,267.22 C 394.20,267.55 394.30,267.94 394.41,268.28 C 394.52,268.62 394.63,268.95 394.76,269.27 C 394.88,269.59 395.01,269.90 395.15,270.20 C 395.29,270.49 395.43,270.77 395.58,271.05 C 395.73,271.32 395.88,271.58 396.05,271.83 C 396.21,272.08 396.38,272.31 396.55,272.54 C 396.73,272.76 396.91,272.98 397.10,273.18 C 397.29,273.38 397.49,273.57 397.69,273.75 C 397.89,273.93 398.11,274.06 398.31,274.25 C 398.51,274.44 398.70,274.66 398.88,274.91 C 399.05,275.15 399.22,275.42 399.38,275.72 C 399.53,276.02 399.68,276.34 399.81,276.69 C 399.95,277.04 400.07,277.41 400.19,277.81 C 400.30,278.21 400.41,278.64 400.50,279.09 C 400.59,279.55 400.68,280.03 400.75,280.53 C 400.82,281.04 400.89,281.57 400.94,282.12 C 400.99,282.68 401.04,283.31 401.06,283.88 C 401.09,284.44 401.09,284.98 401.08,285.50 C 401.07,286.02 401.03,286.52 400.98,287.00 C 400.93,287.48 400.87,287.94 400.78,288.38 C 400.70,288.81 400.59,289.23 400.47,289.62 C 400.35,290.02 400.21,290.40 400.05,290.75 C 399.89,291.10 399.71,291.44 399.52,291.75 C 399.32,292.06 399.11,292.35 398.88,292.62 C 398.64,292.90 398.37,293.12 398.12,293.38 C 397.88,293.63 397.65,293.89 397.43,294.16 C 397.21,294.43 396.99,294.71 396.79,294.99 C 396.58,295.27 396.39,295.56 396.20,295.86 C 396.02,296.15 395.84,296.46 395.67,296.77 C 395.50,297.07 395.35,297.39 395.20,297.71 C 395.05,298.03 394.90,298.36 394.77,298.70 C 394.64,299.03 394.52,299.37 394.41,299.72 C 394.29,300.07 394.20,300.45 394.09,300.78 C 393.99,301.11 393.87,301.42 393.76,301.71 C 393.64,302.00 393.52,302.26 393.40,302.51 C 393.27,302.75 393.15,302.97 393.02,303.17 C 392.88,303.37 392.75,303.55 392.61,303.70 C 392.47,303.86 392.33,303.99 392.18,304.10 C 392.03,304.21 391.88,304.30 391.73,304.37 C 391.57,304.43 391.41,304.48 391.25,304.50 C 391.09,304.52 390.92,304.51 390.75,304.50 C 390.58,304.49 390.42,304.46 390.25,304.42 C 390.08,304.38 389.92,304.33 389.75,304.27 C 389.58,304.20 389.42,304.12 389.25,304.03 C 389.08,303.94 388.92,303.84 388.75,303.72 C 388.58,303.60 388.42,303.47 388.25,303.33 C 388.08,303.18 387.92,303.03 387.75,302.86 C 387.58,302.69 387.42,302.51 387.25,302.31 C 387.08,302.12 386.91,301.88 386.75,301.69 C 386.59,301.49 386.42,301.31 386.27,301.14 C 386.11,300.97 385.95,300.82 385.80,300.67 C 385.64,300.53 385.49,300.40 385.34,300.28 C 385.20,300.16 385.05,300.06 384.91,299.97 C 384.76,299.88 384.62,299.80 384.48,299.73 C 384.35,299.67 384.21,299.62 384.08,299.58 C 383.95,299.54 383.82,299.51 383.69,299.50 C 383.56,299.49 383.46,299.49 383.31,299.50 C 383.16,299.51 382.98,299.52 382.78,299.53 C 382.58,299.55 382.35,299.57 382.09,299.59 C 381.84,299.62 381.56,299.65 381.25,299.69 C 380.94,299.72 380.61,299.77 380.25,299.81 C 379.89,299.86 379.51,299.91 379.09,299.97 C 378.68,300.03 378.24,300.09 377.78,300.16 C 377.32,300.22 376.83,300.30 376.31,300.38 C 375.80,300.45 375.19,300.53 374.69,300.62 C 374.18,300.72 373.71,300.82 373.27,300.93 C 372.84,301.04 372.44,301.16 372.07,301.29 C 371.70,301.42 371.37,301.56 371.08,301.70 C 370.78,301.85 370.52,302.01 370.30,302.17 C 370.07,302.34 369.88,302.51 369.73,302.70 C 369.57,302.88 369.45,303.07 369.37,303.27 C 369.28,303.48 369.23,303.69 369.22,303.91 C 369.20,304.13 369.27,304.38 369.28,304.59 C 369.30,304.81 369.31,305.02 369.31,305.22 C 369.32,305.42 369.32,305.60 369.31,305.78 C 369.31,305.96 369.30,306.12 369.28,306.28 C 369.27,306.44 369.24,306.58 369.22,306.72 C 369.19,306.85 369.16,306.98 369.12,307.09 C 369.09,307.21 369.05,307.31 369.00,307.41 C 368.95,307.50 368.90,307.58 368.84,307.66 C 368.79,307.73 368.75,307.79 368.66,307.84 C 368.56,307.90 368.43,307.96 368.26,308.01 C 368.09,308.06 367.89,308.11 367.65,308.15 C 367.41,308.19 367.14,308.23 366.83,308.27 C 366.52,308.30 366.18,308.33 365.80,308.36 C 365.42,308.39 365.00,308.41 364.55,308.43 C 364.11,308.45 363.62,308.46 363.10,308.48 C 362.58,308.49 362.03,308.50 361.44,308.50 C 360.85,308.50 360.16,308.51 359.56,308.50 C 358.96,308.49 358.39,308.48 357.84,308.47 C 357.30,308.45 356.78,308.43 356.28,308.41 C 355.79,308.38 355.32,308.35 354.88,308.31 C 354.43,308.28 354.02,308.23 353.62,308.19 C 353.23,308.14 352.87,308.09 352.53,308.03 C 352.19,307.97 351.88,307.91 351.59,307.84 C 351.31,307.78 351.05,307.70 350.81,307.62 C 350.58,307.55 350.39,307.45 350.19,307.38 C 349.99,307.30 349.80,307.24 349.62,307.19 C 349.45,307.14 349.28,307.09 349.12,307.06 C 348.97,307.03 348.82,307.01 348.69,307.00 C 348.55,306.99 348.43,306.99 348.31,307.00 C 348.20,307.01 348.09,307.03 348.00,307.06 C 347.91,307.09 347.82,307.14 347.75,307.19 C 347.68,307.24 347.61,307.30 347.56,307.38 C 347.51,307.45 347.46,307.55 347.44,307.62 C 347.41,307.70 347.40,307.78 347.41,307.84 C 347.41,307.91 347.43,307.97 347.47,308.03 C 347.51,308.09 347.56,308.14 347.62,308.19 C 347.69,308.23 347.78,308.28 347.88,308.31 C 347.97,308.35 348.09,308.38 348.22,308.41 C 348.35,308.43 348.49,308.45 348.66,308.47 C 348.82,308.48 348.99,308.49 349.19,308.50 C 349.38,308.51 349.61,308.49 349.81,308.50 C 350.02,308.51 350.22,308.52 350.41,308.54 C 350.61,308.56 350.80,308.58 350.99,308.62 C 351.18,308.65 351.37,308.69 351.55,308.73 C 351.73,308.78 351.90,308.83 352.08,308.89 C 352.25,308.95 352.42,309.01 352.59,309.09 C 352.75,309.16 352.91,309.24 353.07,309.32 C 353.23,309.40 353.38,309.50 353.53,309.59 C 353.68,309.69 353.83,309.80 353.97,309.91 C 354.11,310.02 354.23,310.13 354.35,310.26 C 354.47,310.38 354.58,310.51 354.68,310.65 C 354.78,310.79 354.87,310.93 354.95,311.08 C 355.04,311.23 355.11,311.38 355.17,311.55 C 355.24,311.71 355.29,311.88 355.34,312.05 C 355.38,312.23 355.42,312.41 355.45,312.60 C 355.47,312.79 355.49,312.99 355.50,313.19 C 355.51,313.39 355.51,313.61 355.50,313.81 C 355.49,314.02 355.47,314.23 355.45,314.43 C 355.42,314.63 355.38,314.84 355.34,315.04 C 355.29,315.24 355.24,315.44 355.17,315.64 C 355.11,315.84 355.04,316.04 354.95,316.23 C 354.87,316.43 354.78,316.63 354.68,316.82 C 354.58,317.01 354.47,317.21 354.35,317.40 C 354.23,317.59 354.11,317.78 353.97,317.97 C 353.83,318.16 353.69,318.35 353.53,318.53 C 353.37,318.71 353.20,318.89 353.02,319.05 C 352.84,319.22 352.65,319.38 352.45,319.54 C 352.24,319.69 352.02,319.84 351.80,319.98 C 351.57,320.13 351.33,320.26 351.08,320.39 C 350.83,320.52 350.56,320.64 350.29,320.76 C 350.01,320.87 349.73,320.98 349.43,321.09 C 349.13,321.19 348.82,321.29 348.50,321.38 C 348.18,321.46 347.87,321.55 347.50,321.62 C 347.13,321.70 346.72,321.78 346.27,321.84 C 345.82,321.91 345.33,321.97 344.80,322.03 C 344.27,322.09 343.70,322.14 343.09,322.19 C 342.49,322.23 341.84,322.28 341.16,322.31 C 340.47,322.35 339.75,322.38 338.98,322.41 C 338.22,322.43 337.42,322.45 336.58,322.47 C 335.74,322.48 334.86,322.49 333.94,322.50 Z" stroke="none" fill="currentColor" opacity="0.11" />
  <path d="M342.10,277.03L342.09,277.03 M341.98,276.83L341.97,276.83 M341.74,276.83L341.74,276.83 M341.63,277.03L341.62,277.03 M341.74,277.24L341.74,277.23 M342.10,276.29L342.09,276.29 M341.98,276.09L341.97,276.08 M341.74,276.09L341.74,276.08 M341.63,276.29L341.62,276.29 M341.74,276.49L341.74,276.49 M342.01,289.29L342.01,279.75 M342.01,279.75L342.01,289.29 M340.46,288.58L340.46,288.58 M340.51,288.83L340.51,288.83 M340.46,288.83L340.46,288.83 M340.46,289.73L340.46,289.73 M340.46,280.50L340.46,280.50 M340.51,280.25L340.51,280.25 M340.46,280.25L340.46,280.25 M340.46,279.37L340.46,279.37 M340.90,289.33L340.90,279.72 M340.90,279.72L340.90,289.33 M341.06,288.58L341.06,288.58 M341.06,280.50L341.06,280.50 M340.91,271.42L340.91,271.42 M340.91,277.62L340.91,277.62 M341.46,289.43L341.47,279.48 M341.75,279.48L341.73,289.43 M341.73,289.43L341.75,279.48 M341.49,279.48L341.47,289.43 M322.53,269.50L322.53,269.50 M322.18,269.50L322.18,269.50 M322.36,269.93L322.36,269.93 M322.53,269.85L322.53,269.85 M339.97,272.58L330.53,272.50 M339.97,272.25L330.53,272.32 M331.88,278.17L331.88,278.17 M317.44,275.64L317.44,275.64 M332.76,277.60L332.76,277.61 M318.50,277.12L318.50,277.12 M318.24,276.97L318.24,276.97 M318.77,276.97L318.77,276.97 M318.24,276.66L318.24,276.66 M318.77,276.66L318.77,276.66 M319.67,276.66L319.67,276.66 M319.40,276.51L319.40,276.51 M319.14,276.66L319.14,276.66 M319.14,276.97L319.14,276.97 M319.40,277.12L319.40,277.12 M332.45,278.67L332.45,278.67 M332.32,278.90L332.33,278.90 M332.19,278.68L332.20,278.68 M332.19,278.82L332.20,278.82 M332.45,278.82L332.46,278.82 M330.97,278.35L330.97,278.36 M330.88,278.51L330.88,278.52 M330.70,278.51L330.70,278.52 M330.61,278.35L330.61,278.36 M330.70,278.19L330.70,278.20 M339.07,293.56L324.42,293.56 M323.98,272.58L333.41,272.58 M323.98,272.32L333.41,272.32 M338.75,292.09L324.43,292.09 M373.40,296.87L373.40,296.87 M368.80,299.10L368.80,299.10 M368.80,299.32L368.80,299.32 M369.08,299.07L369.08,299.07 M368.59,299.37L368.59,299.37 M369.30,299.35L369.30,299.35 M369.14,299.35L369.14,299.35 M373.05,299.10L373.04,299.10 M373.05,299.32L373.05,299.32 M373.33,299.07L373.33,299.07 M372.84,299.37L372.84,299.37 M373.55,299.35L373.55,299.35 M373.38,299.35L373.38,299.35 M368.21,296.62L368.21,296.62 M368.78,299.00L368.78,299.00 M368.78,296.62L368.78,296.62 M369.00,299.03L369.00,299.03 M373.95,296.62L373.95,296.62 M373.38,296.62L373.38,296.62 M373.37,299.00L373.37,299.00 M373.16,299.03L373.16,299.03 M395.92,292.47L384.74,296.42 M395.92,276.48L384.74,272.52 M377.38,284.47L399.00,284.47 M377.38,284.47L399.00,284.47 M354.63,266.97L354.63,266.89 M354.38,266.97L354.38,266.89 M354.84,266.69L354.84,266.61 M354.69,266.69L354.69,266.61 M354.16,266.61L354.15,266.69 M354.32,266.69L354.32,266.61 M357.64,266.97L357.64,266.89 M357.39,266.97L357.39,266.89 M357.85,266.69L357.85,266.61 M357.70,266.69L357.70,266.61 M357.17,266.61L357.17,266.69 M357.33,266.69L357.33,266.61 M360.77,266.97L360.77,266.89 M360.52,266.97L360.52,266.89 M360.98,266.69L360.98,266.61 M360.83,266.69L360.83,266.61 M360.30,266.61L360.29,266.69 M360.46,266.69L360.46,266.61 M363.46,266.97L363.46,266.89 M363.21,266.97L363.21,266.89 M363.67,266.69L363.70,266.58 M363.67,266.69L363.67,266.61 M363.52,266.69L363.52,266.61 M362.99,266.61L362.98,266.69 M363.15,266.69L363.15,266.61 M364.03,294.19L353.85,294.19 M376.27,294.19L366.06,294.19 M376.21,274.86L366.07,274.86 M377.11,276.32L377.11,291.36 M354.34,283.18L364.27,283.18 M375.45,283.18L365.51,283.18 M364.05,274.86L353.82,274.86 M375.04,278.45L366.00,278.45 M375.04,278.28L366.00,278.28 M366.00,281.12L375.04,281.12 M366.00,281.29L375.04,281.29 M366.00,287.83L375.04,287.83 M366.00,287.66L375.04,287.66 M375.04,287.66L366.00,287.66 M366.00,290.49L375.04,290.49 M375.04,290.67L366.00,290.67 M366.00,290.67L375.04,290.67 M354.83,278.45L363.86,278.45 M363.86,278.28L354.83,278.28 M354.83,281.12L363.86,281.12 M354.83,281.29L363.86,281.29 M315.69,289.82L315.74,279.74 M316.08,289.84L316.13,279.74 M316.08,289.84L316.13,279.75 M315.89,289.83L315.94,279.75 M316.23,289.85L316.32,279.75 M316.04,289.84L316.13,279.75 M315.66,289.83L315.75,279.75 M315.65,289.29L315.65,279.75 M315.65,289.29L315.65,279.75 M317.20,288.58L317.20,288.58 M317.20,288.83L317.20,288.83 M317.15,288.83L317.15,288.83 M317.20,289.73L317.20,289.73 M317.20,280.50L317.20,280.50 M317.20,280.25L317.20,280.25 M317.15,280.25L317.15,280.25 M317.20,279.37L317.20,279.37 M317.31,278.00L317.31,278.00 M351.07,269.64L351.07,269.64 M344.71,272.32L344.71,272.32 M345.49,269.64L345.49,269.64 M341.51,289.29L341.51,279.75 M341.51,289.29L341.51,279.75 M343.06,289.73L343.06,289.73 M343.06,279.37L343.06,279.37 M343.17,278.44L343.17,278.44 M343.17,278.07L343.17,278.07 M343.17,295.06L343.17,295.06 M343.17,294.69L343.17,294.69 M343.17,291.48L343.17,291.48 M343.17,291.11L343.17,291.11 M343.82,276.01L353.25,276.01 M343.82,275.76L353.25,275.76 M313.55,288.86L313.55,279.71 M334.10,280.78L343.35,280.78 M326.05,271.89L335.14,270.19 M334.10,288.16L343.35,288.16 M326.05,297.06L335.14,298.76 M375.88,284.47L375.88,274.45 M375.88,284.47L375.88,294.49 M325.78,277.97L316.23,275.45 M325.79,277.90L316.83,275.39 M316.83,293.54L325.78,291.04 M395.15,277.50L378.70,277.48 M381.75,274.71L389.89,274.72 M389.89,294.22L381.75,294.24 M378.70,291.46L395.15,291.44 M307.85,274.93L307.86,270.82 M364.94,284.47L364.94,273.54 M364.94,284.47L364.94,295.41 M315.81,289.61L326.66,289.96 M364.93,268.62L364.93,266.42 M380.13,269.76L386.52,271.77 M364.93,300.33L364.93,302.53 M386.52,297.17L380.13,299.18 M316.19,295.49L315.76,295.58 M316.19,295.49L315.84,295.49 M315.48,287.27L315.78,297.62 M341.30,278.37L330.81,278.36 M341.30,277.97L330.81,277.97 M341.30,277.57L330.81,277.57 M341.30,290.57L330.81,290.58 M341.30,290.97L330.81,290.98 M341.30,291.37L330.81,291.37" stroke="currentColor" stroke-width="0.6" stroke-linecap="round" fill="none" opacity="0.55" clip-path="url(#hull-clip)" filter="url(#glow)" />
  <path d="M 333.94,322.50 C 333.02,322.51 331.96,322.50 331.06,322.50 C 330.16,322.50 329.31,322.49 328.52,322.48 C 327.73,322.46 327.00,322.45 326.32,322.43 C 325.64,322.41 325.02,322.39 324.45,322.36 C 323.89,322.33 323.38,322.30 322.92,322.27 C 322.47,322.23 322.07,322.19 321.73,322.15 C 321.38,322.11 321.10,322.06 320.87,322.01 C 320.64,321.96 320.46,321.90 320.34,321.84 C 320.23,321.79 320.21,321.73 320.16,321.66 C 320.10,321.58 320.05,321.50 320.01,321.40 C 319.96,321.30 319.93,321.19 319.90,321.07 C 319.87,320.95 319.85,320.82 319.83,320.67 C 319.81,320.53 319.80,320.37 319.80,320.20 C 319.79,320.04 319.80,319.86 319.80,319.66 C 319.81,319.47 319.83,319.27 319.85,319.05 C 319.87,318.84 319.90,318.61 319.94,318.38 C 319.97,318.14 320.01,317.86 320.06,317.62 C 320.11,317.39 320.17,317.16 320.23,316.95 C 320.29,316.73 320.36,316.53 320.43,316.34 C 320.50,316.14 320.58,315.96 320.67,315.80 C 320.76,315.63 320.85,315.47 320.95,315.33 C 321.05,315.18 321.16,315.05 321.27,314.93 C 321.39,314.81 321.51,314.70 321.63,314.60 C 321.76,314.50 321.89,314.42 322.03,314.34 C 322.17,314.27 322.33,314.22 322.47,314.16 C 322.61,314.09 322.74,314.02 322.87,313.95 C 322.99,313.87 323.11,313.79 323.23,313.71 C 323.34,313.63 323.45,313.54 323.55,313.45 C 323.65,313.36 323.74,313.27 323.83,313.17 C 323.92,313.07 324.00,312.97 324.07,312.87 C 324.14,312.76 324.21,312.65 324.27,312.54 C 324.33,312.43 324.39,312.31 324.44,312.19 C 324.49,312.07 324.51,311.93 324.56,311.81 C 324.61,311.70 324.67,311.59 324.73,311.48 C 324.80,311.38 324.87,311.29 324.95,311.20 C 325.03,311.12 325.12,311.04 325.22,310.97 C 325.32,310.90 325.42,310.84 325.53,310.78 C 325.64,310.73 325.76,310.68 325.89,310.64 C 326.02,310.60 326.15,310.57 326.30,310.55 C 326.44,310.52 326.59,310.51 326.75,310.50 C 326.91,310.49 327.08,310.51 327.25,310.50 C 327.42,310.49 327.59,310.47 327.77,310.44 C 327.94,310.41 328.12,310.36 328.30,310.31 C 328.48,310.26 328.66,310.20 328.84,310.12 C 329.03,310.05 329.22,309.97 329.41,309.88 C 329.60,309.78 329.79,309.68 329.98,309.56 C 330.18,309.45 330.38,309.32 330.58,309.19 C 330.78,309.05 330.98,308.91 331.19,308.75 C 331.39,308.59 331.66,308.42 331.81,308.25 C 331.97,308.08 332.07,307.91 332.11,307.73 C 332.15,307.56 332.14,307.38 332.08,307.20 C 332.01,307.02 331.89,306.84 331.72,306.66 C 331.54,306.47 331.32,306.28 331.03,306.09 C 330.75,305.90 330.41,305.71 330.02,305.52 C 329.62,305.32 329.17,305.12 328.67,304.92 C 328.17,304.72 327.61,304.52 327.00,304.31 C 326.39,304.11 325.65,303.88 325.00,303.69 C 324.35,303.49 323.71,303.31 323.09,303.14 C 322.47,302.97 321.87,302.82 321.28,302.67 C 320.69,302.53 320.12,302.40 319.56,302.28 C 319.01,302.16 318.46,302.06 317.94,301.97 C 317.41,301.88 316.90,301.80 316.41,301.73 C 315.91,301.67 315.43,301.62 314.97,301.58 C 314.51,301.54 314.06,301.51 313.62,301.50 C 313.19,301.49 312.77,301.51 312.38,301.50 C 311.98,301.49 311.60,301.47 311.25,301.44 C 310.90,301.41 310.56,301.36 310.25,301.31 C 309.94,301.26 309.65,301.20 309.38,301.12 C 309.10,301.05 308.85,300.97 308.62,300.88 C 308.40,300.78 308.19,300.68 308.00,300.56 C 307.81,300.45 307.65,300.32 307.50,300.19 C 307.35,300.05 307.23,299.91 307.12,299.75 C 307.02,299.59 306.99,299.41 306.88,299.25 C 306.76,299.09 306.60,298.93 306.41,298.78 C 306.21,298.63 305.98,298.48 305.72,298.34 C 305.45,298.20 305.15,298.07 304.81,297.94 C 304.47,297.81 304.10,297.68 303.69,297.56 C 303.28,297.44 302.83,297.33 302.34,297.22 C 301.86,297.11 301.34,297.01 300.78,296.91 C 300.22,296.81 299.63,296.71 299.00,296.62 C 298.37,296.54 297.64,296.46 297.00,296.38 C 296.36,296.29 295.74,296.20 295.16,296.11 C 294.57,296.02 294.01,295.92 293.47,295.83 C 292.93,295.73 292.42,295.63 291.94,295.53 C 291.45,295.43 290.99,295.33 290.56,295.22 C 290.13,295.11 289.72,295.00 289.34,294.89 C 288.96,294.78 288.61,294.66 288.28,294.55 C 287.95,294.43 287.65,294.31 287.38,294.19 C 287.10,294.07 286.86,293.94 286.62,293.81 C 286.39,293.68 286.16,293.55 285.94,293.42 C 285.72,293.29 285.51,293.15 285.31,293.02 C 285.11,292.88 284.93,292.74 284.75,292.59 C 284.57,292.45 284.41,292.30 284.25,292.16 C 284.09,292.01 283.95,291.86 283.81,291.70 C 283.68,291.55 283.55,291.39 283.44,291.23 C 283.32,291.08 283.22,290.91 283.12,290.75 C 283.03,290.59 282.97,290.41 282.88,290.25 C 282.78,290.09 282.68,289.94 282.57,289.79 C 282.46,289.64 282.34,289.50 282.21,289.37 C 282.08,289.23 281.94,289.11 281.80,288.98 C 281.65,288.86 281.49,288.75 281.33,288.64 C 281.16,288.53 280.99,288.43 280.80,288.34 C 280.62,288.24 280.43,288.15 280.23,288.07 C 280.02,287.99 279.81,287.91 279.59,287.84 C 279.37,287.77 279.11,287.72 278.91,287.66 C 278.71,287.59 278.54,287.53 278.40,287.46 C 278.26,287.39 278.15,287.33 278.07,287.26 C 277.99,287.19 277.94,287.12 277.92,287.05 C 277.90,286.98 277.91,286.90 277.95,286.83 C 277.99,286.75 278.06,286.68 278.16,286.60 C 278.26,286.52 278.39,286.45 278.55,286.37 C 278.71,286.29 278.90,286.21 279.12,286.12 C 279.35,286.04 279.64,285.96 279.88,285.88 C 280.11,285.79 280.32,285.70 280.51,285.60 C 280.70,285.51 280.87,285.41 281.02,285.30 C 281.18,285.20 281.31,285.10 281.42,284.98 C 281.54,284.87 281.63,284.76 281.70,284.64 C 281.78,284.52 281.83,284.40 281.87,284.27 C 281.90,284.15 281.92,284.02 281.91,283.88 C 281.91,283.75 281.89,283.61 281.84,283.47 C 281.80,283.33 281.73,283.17 281.66,283.03 C 281.59,282.89 281.51,282.76 281.42,282.64 C 281.34,282.52 281.24,282.40 281.14,282.30 C 281.04,282.19 280.93,282.09 280.81,282.00 C 280.70,281.91 280.57,281.83 280.44,281.75 C 280.30,281.67 280.16,281.61 280.02,281.55 C 279.87,281.49 279.71,281.43 279.55,281.39 C 279.38,281.35 279.21,281.31 279.03,281.28 C 278.85,281.25 278.63,281.24 278.47,281.22 C 278.31,281.20 278.17,281.17 278.06,281.14 C 277.95,281.11 277.87,281.08 277.81,281.05 C 277.76,281.01 277.72,280.98 277.72,280.94 C 277.71,280.90 277.73,280.86 277.78,280.81 C 277.83,280.77 277.90,280.72 278.00,280.67 C 278.10,280.62 278.22,280.57 278.38,280.52 C 278.53,280.46 278.70,280.40 278.91,280.34 C 279.11,280.28 279.37,280.23 279.59,280.16 C 279.81,280.09 280.02,280.01 280.23,279.93 C 280.43,279.85 280.62,279.76 280.80,279.66 C 280.99,279.57 281.16,279.47 281.33,279.36 C 281.49,279.25 281.65,279.14 281.80,279.02 C 281.94,278.89 282.08,278.77 282.21,278.63 C 282.34,278.50 282.46,278.36 282.57,278.21 C 282.68,278.06 282.78,277.91 282.88,277.75 C 282.97,277.59 283.03,277.41 283.12,277.25 C 283.22,277.09 283.32,276.92 283.44,276.77 C 283.55,276.61 283.68,276.45 283.81,276.30 C 283.95,276.14 284.09,275.99 284.25,275.84 C 284.41,275.70 284.57,275.55 284.75,275.41 C 284.93,275.26 285.11,275.12 285.31,274.98 C 285.51,274.85 285.72,274.71 285.94,274.58 C 286.16,274.45 286.39,274.32 286.62,274.19 C 286.86,274.06 287.10,273.93 287.38,273.81 C 287.65,273.69 287.95,273.57 288.28,273.45 C 288.61,273.34 288.96,273.22 289.34,273.11 C 289.72,273.00 290.13,272.89 290.56,272.78 C 290.99,272.67 291.45,272.57 291.94,272.47 C 292.42,272.37 292.93,272.27 293.47,272.17 C 294.01,272.08 294.57,271.98 295.16,271.89 C 295.74,271.80 296.36,271.71 297.00,271.62 C 297.64,271.54 298.37,271.46 299.00,271.38 C 299.63,271.29 300.22,271.19 300.78,271.09 C 301.34,270.99 301.86,270.89 302.34,270.78 C 302.83,270.67 303.28,270.56 303.69,270.44 C 304.10,270.32 304.47,270.19 304.81,270.06 C 305.15,269.93 305.45,269.80 305.72,269.66 C 305.98,269.52 306.21,269.37 306.41,269.22 C 306.60,269.07 306.76,268.91 306.88,268.75 C 306.99,268.59 307.02,268.41 307.12,268.25 C 307.23,268.09 307.35,267.95 307.48,267.81 C 307.62,267.68 307.78,267.55 307.95,267.44 C 308.13,267.32 308.32,267.22 308.53,267.12 C 308.74,267.03 308.97,266.95 309.22,266.88 C 309.47,266.80 309.73,266.74 310.02,266.69 C 310.30,266.64 310.60,266.59 310.92,266.56 C 311.24,266.53 311.58,266.51 311.94,266.50 C 312.29,266.49 312.67,266.51 313.06,266.50 C 313.46,266.49 313.88,266.46 314.31,266.42 C 314.75,266.38 315.21,266.33 315.69,266.27 C 316.17,266.20 316.67,266.12 317.19,266.03 C 317.71,265.94 318.25,265.84 318.81,265.72 C 319.38,265.60 319.96,265.47 320.56,265.33 C 321.17,265.18 321.79,265.03 322.44,264.86 C 323.08,264.69 323.75,264.51 324.44,264.31 C 325.12,264.12 325.90,263.89 326.56,263.69 C 327.22,263.49 327.84,263.29 328.41,263.11 C 328.97,262.92 329.49,262.75 329.97,262.58 C 330.44,262.41 330.87,262.25 331.25,262.09 C 331.63,261.94 331.96,261.79 332.25,261.66 C 332.54,261.52 332.78,261.39 332.97,261.27 C 333.16,261.14 333.31,261.03 333.41,260.92 C 333.51,260.82 333.56,260.72 333.56,260.62 C 333.57,260.53 333.50,260.46 333.44,260.38 C 333.38,260.29 333.30,260.21 333.20,260.12 C 333.11,260.04 332.99,259.96 332.86,259.88 C 332.73,259.79 332.58,259.71 332.41,259.62 C 332.24,259.54 332.05,259.46 331.84,259.38 C 331.64,259.29 331.41,259.21 331.17,259.12 C 330.93,259.04 330.67,258.96 330.39,258.88 C 330.11,258.79 329.82,258.71 329.50,258.62 C 329.18,258.54 328.81,258.46 328.50,258.38 C 328.19,258.29 327.89,258.20 327.62,258.12 C 327.34,258.03 327.09,257.94 326.85,257.85 C 326.62,257.76 326.40,257.67 326.20,257.58 C 326.01,257.49 325.83,257.39 325.67,257.30 C 325.51,257.20 325.38,257.11 325.26,257.01 C 325.14,256.91 325.04,256.81 324.96,256.71 C 324.88,256.61 324.82,256.51 324.78,256.41 C 324.74,256.30 324.75,256.19 324.72,256.09 C 324.69,255.99 324.66,255.90 324.62,255.80 C 324.58,255.71 324.53,255.62 324.48,255.54 C 324.42,255.45 324.36,255.37 324.30,255.30 C 324.23,255.22 324.16,255.15 324.08,255.08 C 324.00,255.01 323.91,254.94 323.82,254.88 C 323.73,254.82 323.63,254.76 323.52,254.71 C 323.42,254.66 323.31,254.61 323.19,254.56 C 323.07,254.52 322.93,254.49 322.81,254.44 C 322.69,254.38 322.57,254.31 322.45,254.22 C 322.34,254.13 322.22,254.03 322.11,253.91 C 322.00,253.79 321.89,253.65 321.78,253.50 C 321.67,253.35 321.57,253.18 321.47,253.00 C 321.37,252.82 321.27,252.62 321.17,252.41 C 321.08,252.19 320.98,251.96 320.89,251.72 C 320.80,251.47 320.71,251.21 320.62,250.94 C 320.54,250.66 320.44,250.34 320.38,250.06 C 320.31,249.79 320.27,249.52 320.26,249.27 C 320.24,249.02 320.25,248.79 320.27,248.57 C 320.30,248.35 320.35,248.14 320.42,247.95 C 320.49,247.76 320.59,247.58 320.70,247.42 C 320.82,247.26 320.96,247.11 321.12,246.98 C 321.28,246.84 321.46,246.72 321.66,246.62 C 321.87,246.51 322.10,246.42 322.34,246.34 C 322.59,246.27 322.86,246.21 323.16,246.16 C 323.46,246.10 323.79,246.04 324.15,245.99 C 324.51,245.94 324.90,245.89 325.32,245.85 C 325.74,245.81 326.19,245.77 326.67,245.73 C 327.15,245.70 327.66,245.67 328.20,245.64 C 328.74,245.61 329.31,245.59 329.91,245.57 C 330.51,245.55 331.14,245.54 331.80,245.52 C 332.46,245.51 333.15,245.50 333.88,245.50 C 334.60,245.50 335.40,245.49 336.12,245.50 C 336.85,245.51 337.55,245.52 338.22,245.53 C 338.89,245.55 339.54,245.57 340.16,245.59 C 340.78,245.62 341.37,245.65 341.94,245.69 C 342.51,245.72 343.05,245.77 343.56,245.81 C 344.08,245.86 344.57,245.91 345.03,245.97 C 345.49,246.03 345.93,246.09 346.34,246.16 C 346.76,246.22 347.14,246.30 347.50,246.38 C 347.86,246.45 348.18,246.54 348.50,246.62 C 348.82,246.71 349.13,246.81 349.43,246.91 C 349.73,247.02 350.01,247.13 350.29,247.24 C 350.56,247.36 350.83,247.48 351.08,247.61 C 351.33,247.74 351.57,247.87 351.80,248.02 C 352.02,248.16 352.24,248.31 352.45,248.46 C 352.65,248.62 352.84,248.78 353.02,248.95 C 353.20,249.11 353.37,249.29 353.53,249.47 C 353.69,249.65 353.83,249.84 353.97,250.03 C 354.11,250.22 354.23,250.41 354.35,250.60 C 354.47,250.79 354.58,250.99 354.68,251.18 C 354.78,251.37 354.87,251.57 354.95,251.77 C 355.04,251.96 355.11,252.16 355.17,252.36 C 355.24,252.56 355.29,252.76 355.34,252.96 C 355.38,253.16 355.42,253.37 355.45,253.57 C 355.47,253.77 355.49,253.98 355.50,254.19 C 355.51,254.39 355.51,254.61 355.50,254.81 C 355.49,255.01 355.47,255.21 355.45,255.40 C 355.42,255.59 355.38,255.77 355.34,255.95 C 355.29,256.12 355.24,256.29 355.17,256.45 C 355.11,256.62 355.04,256.77 354.95,256.92 C 354.87,257.07 354.78,257.21 354.68,257.35 C 354.58,257.49 354.47,257.62 354.35,257.74 C 354.23,257.87 354.11,257.98 353.97,258.09 C 353.83,258.20 353.68,258.31 353.53,258.41 C 353.38,258.50 353.23,258.60 353.07,258.68 C 352.91,258.76 352.75,258.84 352.59,258.91 C 352.42,258.99 352.25,259.05 352.08,259.11 C 351.90,259.17 351.73,259.22 351.55,259.27 C 351.37,259.31 351.18,259.35 350.99,259.38 C 350.80,259.42 350.61,259.44 350.41,259.46 C 350.22,259.48 350.02,259.49 349.81,259.50 C 349.61,259.51 349.38,259.49 349.19,259.50 C 348.99,259.51 348.82,259.52 348.66,259.53 C 348.49,259.55 348.35,259.57 348.22,259.59 C 348.09,259.62 347.97,259.65 347.88,259.69 C 347.78,259.72 347.69,259.77 347.62,259.81 C 347.56,259.86 347.51,259.91 347.47,259.97 C 347.43,260.03 347.41,260.09 347.41,260.16 C 347.40,260.22 347.41,260.30 347.44,260.38 C 347.46,260.45 347.51,260.55 347.56,260.62 C 347.61,260.70 347.68,260.76 347.75,260.81 C 347.82,260.86 347.91,260.91 348.00,260.94 C 348.09,260.97 348.20,260.99 348.31,261.00 C 348.43,261.01 348.55,261.01 348.69,261.00 C 348.82,260.99 348.97,260.97 349.12,260.94 C 349.28,260.91 349.45,260.86 349.62,260.81 C 349.80,260.76 349.99,260.70 350.19,260.62 C 350.39,260.55 350.58,260.45 350.81,260.38 C 351.05,260.30 351.31,260.22 351.59,260.16 C 351.88,260.09 352.19,260.03 352.53,259.97 C 352.87,259.91 353.23,259.86 353.62,259.81 C 354.02,259.77 354.43,259.72 354.88,259.69 C 355.32,259.65 355.79,259.62 356.28,259.59 C 356.78,259.57 357.30,259.55 357.84,259.53 C 358.39,259.52 358.96,259.51 359.56,259.50 C 360.16,259.49 360.85,259.48 361.44,259.50 C 362.03,259.52 362.59,259.55 363.11,259.61 C 363.63,259.66 364.12,259.74 364.58,259.83 C 365.03,259.92 365.46,260.03 365.84,260.16 C 366.23,260.28 366.59,260.43 366.91,260.59 C 367.23,260.76 367.51,260.94 367.77,261.14 C 368.02,261.34 368.24,261.56 368.42,261.80 C 368.61,262.03 368.76,262.29 368.88,262.56 C 368.99,262.84 369.02,263.16 369.12,263.44 C 369.23,263.72 369.37,263.98 369.53,264.23 C 369.69,264.49 369.88,264.73 370.09,264.95 C 370.31,265.18 370.55,265.39 370.81,265.59 C 371.08,265.79 371.37,265.98 371.69,266.16 C 372.01,266.33 372.35,266.49 372.72,266.64 C 373.09,266.79 373.48,266.92 373.91,267.05 C 374.33,267.17 374.78,267.28 375.25,267.38 C 375.72,267.47 376.27,267.55 376.75,267.62 C 377.23,267.70 377.68,267.78 378.11,267.84 C 378.54,267.91 378.95,267.97 379.33,268.03 C 379.71,268.09 380.07,268.14 380.41,268.19 C 380.74,268.23 381.05,268.28 381.34,268.31 C 381.63,268.35 381.90,268.38 382.14,268.41 C 382.38,268.43 382.60,268.45 382.80,268.47 C 382.99,268.48 383.16,268.49 383.31,268.50 C 383.46,268.51 383.56,268.51 383.69,268.50 C 383.82,268.49 383.95,268.46 384.08,268.42 C 384.21,268.38 384.35,268.33 384.48,268.27 C 384.62,268.20 384.76,268.12 384.91,268.03 C 385.05,267.94 385.20,267.84 385.34,267.72 C 385.49,267.60 385.64,267.47 385.80,267.33 C 385.95,267.18 386.11,267.03 386.27,266.86 C 386.42,266.69 386.59,266.51 386.75,266.31 C 386.91,266.12 387.08,265.88 387.25,265.69 C 387.42,265.49 387.58,265.31 387.75,265.14 C 387.92,264.97 388.08,264.82 388.25,264.67 C 388.42,264.53 388.58,264.40 388.75,264.28 C 388.92,264.16 389.08,264.06 389.25,263.97 C 389.42,263.88 389.58,263.80 389.75,263.73 C 389.92,263.67 390.08,263.62 390.25,263.58 C 390.42,263.54 390.58,263.51 390.75,263.50 C 390.92,263.49 391.09,263.48 391.25,263.50 C 391.41,263.52 391.57,263.57 391.73,263.63 C 391.88,263.70 392.03,263.79 392.18,263.90 C 392.33,264.01 392.47,264.14 392.61,264.30 C 392.75,264.45 392.88,264.63 393.02,264.83 C 393.15,265.03 393.27,265.25 393.40,265.49 C 393.52,265.74 393.64,266.00 393.76,266.29 C 393.87,266.58 393.99,266.89 394.09,267.22 C 394.20,267.55 394.30,267.94 394.41,268.28 C 394.52,268.62 394.63,268.95 394.76,269.27 C 394.88,269.59 395.01,269.90 395.15,270.20 C 395.29,270.49 395.43,270.77 395.58,271.05 C 395.73,271.32 395.88,271.58 396.05,271.83 C 396.21,272.08 396.38,272.31 396.55,272.54 C 396.73,272.76 396.91,272.98 397.10,273.18 C 397.29,273.38 397.49,273.57 397.69,273.75 C 397.89,273.93 398.11,274.06 398.31,274.25 C 398.51,274.44 398.70,274.66 398.88,274.91 C 399.05,275.15 399.22,275.42 399.38,275.72 C 399.53,276.02 399.68,276.34 399.81,276.69 C 399.95,277.04 400.07,277.41 400.19,277.81 C 400.30,278.21 400.41,278.64 400.50,279.09 C 400.59,279.55 400.68,280.03 400.75,280.53 C 400.82,281.04 400.89,281.57 400.94,282.12 C 400.99,282.68 401.04,283.31 401.06,283.88 C 401.09,284.44 401.09,284.98 401.08,285.50 C 401.07,286.02 401.03,286.52 400.98,287.00 C 400.93,287.48 400.87,287.94 400.78,288.38 C 400.70,288.81 400.59,289.23 400.47,289.62 C 400.35,290.02 400.21,290.40 400.05,290.75 C 399.89,291.10 399.71,291.44 399.52,291.75 C 399.32,292.06 399.11,292.35 398.88,292.62 C 398.64,292.90 398.37,293.12 398.12,293.38 C 397.88,293.63 397.65,293.89 397.43,294.16 C 397.21,294.43 396.99,294.71 396.79,294.99 C 396.58,295.27 396.39,295.56 396.20,295.86 C 396.02,296.15 395.84,296.46 395.67,296.77 C 395.50,297.07 395.35,297.39 395.20,297.71 C 395.05,298.03 394.90,298.36 394.77,298.70 C 394.64,299.03 394.52,299.37 394.41,299.72 C 394.29,300.07 394.20,300.45 394.09,300.78 C 393.99,301.11 393.87,301.42 393.76,301.71 C 393.64,302.00 393.52,302.26 393.40,302.51 C 393.27,302.75 393.15,302.97 393.02,303.17 C 392.88,303.37 392.75,303.55 392.61,303.70 C 392.47,303.86 392.33,303.99 392.18,304.10 C 392.03,304.21 391.88,304.30 391.73,304.37 C 391.57,304.43 391.41,304.48 391.25,304.50 C 391.09,304.52 390.92,304.51 390.75,304.50 C 390.58,304.49 390.42,304.46 390.25,304.42 C 390.08,304.38 389.92,304.33 389.75,304.27 C 389.58,304.20 389.42,304.12 389.25,304.03 C 389.08,303.94 388.92,303.84 388.75,303.72 C 388.58,303.60 388.42,303.47 388.25,303.33 C 388.08,303.18 387.92,303.03 387.75,302.86 C 387.58,302.69 387.42,302.51 387.25,302.31 C 387.08,302.12 386.91,301.88 386.75,301.69 C 386.59,301.49 386.42,301.31 386.27,301.14 C 386.11,300.97 385.95,300.82 385.80,300.67 C 385.64,300.53 385.49,300.40 385.34,300.28 C 385.20,300.16 385.05,300.06 384.91,299.97 C 384.76,299.88 384.62,299.80 384.48,299.73 C 384.35,299.67 384.21,299.62 384.08,299.58 C 383.95,299.54 383.82,299.51 383.69,299.50 C 383.56,299.49 383.46,299.49 383.31,299.50 C 383.16,299.51 382.98,299.52 382.78,299.53 C 382.58,299.55 382.35,299.57 382.09,299.59 C 381.84,299.62 381.56,299.65 381.25,299.69 C 380.94,299.72 380.61,299.77 380.25,299.81 C 379.89,299.86 379.51,299.91 379.09,299.97 C 378.68,300.03 378.24,300.09 377.78,300.16 C 377.32,300.22 376.83,300.30 376.31,300.38 C 375.80,300.45 375.19,300.53 374.69,300.62 C 374.18,300.72 373.71,300.82 373.27,300.93 C 372.84,301.04 372.44,301.16 372.07,301.29 C 371.70,301.42 371.37,301.56 371.08,301.70 C 370.78,301.85 370.52,302.01 370.30,302.17 C 370.07,302.34 369.88,302.51 369.73,302.70 C 369.57,302.88 369.45,303.07 369.37,303.27 C 369.28,303.48 369.23,303.69 369.22,303.91 C 369.20,304.13 369.27,304.38 369.28,304.59 C 369.30,304.81 369.31,305.02 369.31,305.22 C 369.32,305.42 369.32,305.60 369.31,305.78 C 369.31,305.96 369.30,306.12 369.28,306.28 C 369.27,306.44 369.24,306.58 369.22,306.72 C 369.19,306.85 369.16,306.98 369.12,307.09 C 369.09,307.21 369.05,307.31 369.00,307.41 C 368.95,307.50 368.90,307.58 368.84,307.66 C 368.79,307.73 368.75,307.79 368.66,307.84 C 368.56,307.90 368.43,307.96 368.26,308.01 C 368.09,308.06 367.89,308.11 367.65,308.15 C 367.41,308.19 367.14,308.23 366.83,308.27 C 366.52,308.30 366.18,308.33 365.80,308.36 C 365.42,308.39 365.00,308.41 364.55,308.43 C 364.11,308.45 363.62,308.46 363.10,308.48 C 362.58,308.49 362.03,308.50 361.44,308.50 C 360.85,308.50 360.16,308.51 359.56,308.50 C 358.96,308.49 358.39,308.48 357.84,308.47 C 357.30,308.45 356.78,308.43 356.28,308.41 C 355.79,308.38 355.32,308.35 354.88,308.31 C 354.43,308.28 354.02,308.23 353.62,308.19 C 353.23,308.14 352.87,308.09 352.53,308.03 C 352.19,307.97 351.88,307.91 351.59,307.84 C 351.31,307.78 351.05,307.70 350.81,307.62 C 350.58,307.55 350.39,307.45 350.19,307.38 C 349.99,307.30 349.80,307.24 349.62,307.19 C 349.45,307.14 349.28,307.09 349.12,307.06 C 348.97,307.03 348.82,307.01 348.69,307.00 C 348.55,306.99 348.43,306.99 348.31,307.00 C 348.20,307.01 348.09,307.03 348.00,307.06 C 347.91,307.09 347.82,307.14 347.75,307.19 C 347.68,307.24 347.61,307.30 347.56,307.38 C 347.51,307.45 347.46,307.55 347.44,307.62 C 347.41,307.70 347.40,307.78 347.41,307.84 C 347.41,307.91 347.43,307.97 347.47,308.03 C 347.51,308.09 347.56,308.14 347.62,308.19 C 347.69,308.23 347.78,308.28 347.88,308.31 C 347.97,308.35 348.09,308.38 348.22,308.41 C 348.35,308.43 348.49,308.45 348.66,308.47 C 348.82,308.48 348.99,308.49 349.19,308.50 C 349.38,308.51 349.61,308.49 349.81,308.50 C 350.02,308.51 350.22,308.52 350.41,308.54 C 350.61,308.56 350.80,308.58 350.99,308.62 C 351.18,308.65 351.37,308.69 351.55,308.73 C 351.73,308.78 351.90,308.83 352.08,308.89 C 352.25,308.95 352.42,309.01 352.59,309.09 C 352.75,309.16 352.91,309.24 353.07,309.32 C 353.23,309.40 353.38,309.50 353.53,309.59 C 353.68,309.69 353.83,309.80 353.97,309.91 C 354.11,310.02 354.23,310.13 354.35,310.26 C 354.47,310.38 354.58,310.51 354.68,310.65 C 354.78,310.79 354.87,310.93 354.95,311.08 C 355.04,311.23 355.11,311.38 355.17,311.55 C 355.24,311.71 355.29,311.88 355.34,312.05 C 355.38,312.23 355.42,312.41 355.45,312.60 C 355.47,312.79 355.49,312.99 355.50,313.19 C 355.51,313.39 355.51,313.61 355.50,313.81 C 355.49,314.02 355.47,314.23 355.45,314.43 C 355.42,314.63 355.38,314.84 355.34,315.04 C 355.29,315.24 355.24,315.44 355.17,315.64 C 355.11,315.84 355.04,316.04 354.95,316.23 C 354.87,316.43 354.78,316.63 354.68,316.82 C 354.58,317.01 354.47,317.21 354.35,317.40 C 354.23,317.59 354.11,317.78 353.97,317.97 C 353.83,318.16 353.69,318.35 353.53,318.53 C 353.37,318.71 353.20,318.89 353.02,319.05 C 352.84,319.22 352.65,319.38 352.45,319.54 C 352.24,319.69 352.02,319.84 351.80,319.98 C 351.57,320.13 351.33,320.26 351.08,320.39 C 350.83,320.52 350.56,320.64 350.29,320.76 C 350.01,320.87 349.73,320.98 349.43,321.09 C 349.13,321.19 348.82,321.29 348.50,321.38 C 348.18,321.46 347.87,321.55 347.50,321.62 C 347.13,321.70 346.72,321.78 346.27,321.84 C 345.82,321.91 345.33,321.97 344.80,322.03 C 344.27,322.09 343.70,322.14 343.09,322.19 C 342.49,322.23 341.84,322.28 341.16,322.31 C 340.47,322.35 339.75,322.38 338.98,322.41 C 338.22,322.43 337.42,322.45 336.58,322.47 C 335.74,322.48 334.86,322.49 333.94,322.50 Z" fill="none" stroke="currentColor" stroke-width="1.5" stroke-linejoin="round" stroke-linecap="round" filter="url(#glow)" />
</svg>