<svg xmlns="http://www.w3.org/2000/svg" width="512" height="512" viewBox="5.13 3.96 500.22 503.09" preserveAspectRatio="xMidYMid meet">
  <defs>
    <filter id="glow" x="-30%" y="-30%" width="160%" height="160%">
      <feGaussianBlur in="SourceGraphic" stdDeviation="2.4" result="blur" />
      <feMerge>
        <feMergeNode in="blur" />
        <feMergeNode in="SourceGraphic" />
      </feMerge>
    </filter>
    <clipPath id="hull-clip">
      <path d="M 245.81,465.06 C 244.89,465.03 244.10,464.99 243.19,464.94 C 242.28,464.88 241.34,464.81 240.36,464.72 C 239.38,464.63 238.37,464.53 237.33,464.41 C 236.28,464.29 235.21,464.15 234.09,464.00 C 232.98,463.85 231.84,463.68 230.66,463.50 C 229.48,463.32 228.26,463.12 227.02,462.91 C 225.77,462.69 224.49,462.46 223.17,462.22 C 221.86,461.97 220.51,461.71 219.12,461.44 C 217.74,461.16 216.21,460.85 214.88,460.56 C 213.54,460.28 212.30,460.01 211.13,459.74 C 209.97,459.48 208.89,459.22 207.90,458.98 C 206.90,458.73 206.00,458.49 205.17,458.27 C 204.35,458.04 203.61,457.82 202.95,457.61 C 202.30,457.40 201.73,457.20 201.24,457.01 C 200.76,456.82 200.36,456.63 200.04,456.46 C 199.72,456.29 199.49,456.12 199.34,455.97 C 199.20,455.81 199.21,455.69 199.16,455.53 C 199.10,455.37 199.05,455.20 199.01,455.01 C 198.96,454.82 198.93,454.62 198.90,454.40 C 198.87,454.18 198.85,453.95 198.83,453.70 C 198.81,453.46 198.80,453.20 198.80,452.92 C 198.79,452.65 198.80,452.36 198.80,452.05 C 198.81,451.75 198.83,451.43 198.85,451.10 C 198.87,450.77 198.90,450.42 198.94,450.06 C 198.97,449.70 199.05,449.30 199.06,448.94 C 199.08,448.58 199.07,448.23 199.04,447.90 C 199.01,447.57 198.95,447.25 198.87,446.95 C 198.79,446.64 198.68,446.35 198.55,446.08 C 198.42,445.80 198.26,445.54 198.08,445.30 C 197.90,445.05 197.69,444.82 197.46,444.60 C 197.23,444.38 196.98,444.18 196.70,443.99 C 196.42,443.80 196.11,443.63 195.78,443.47 C 195.45,443.31 195.06,443.14 194.72,443.03 C 194.38,442.92 194.04,442.84 193.72,442.80 C 193.40,442.75 193.08,442.74 192.78,442.77 C 192.48,442.79 192.19,442.85 191.91,442.94 C 191.62,443.03 191.35,443.15 191.09,443.31 C 190.83,443.47 190.58,443.66 190.34,443.89 C 190.10,444.12 189.88,444.38 189.66,444.67 C 189.44,444.97 189.23,445.29 189.03,445.66 C 188.83,446.02 188.65,446.47 188.47,446.84 C 188.28,447.22 188.10,447.57 187.92,447.91 C 187.74,448.24 187.57,448.55 187.39,448.84 C 187.22,449.14 187.04,449.41 186.88,449.66 C 186.71,449.91 186.54,450.14 186.38,450.34 C 186.21,450.55 186.05,450.74 185.89,450.91 C 185.73,451.07 185.58,451.22 185.42,451.34 C 185.27,451.47 185.12,451.57 184.97,451.66 C 184.82,451.74 184.76,451.83 184.53,451.84 C 184.31,451.86 184.00,451.83 183.62,451.76 C 183.23,451.68 182.77,451.56 182.23,451.40 C 181.68,451.23 181.06,451.02 180.36,450.77 C 179.66,450.51 178.88,450.21 178.02,449.86 C 177.15,449.51 176.21,449.12 175.20,448.68 C 174.18,448.24 173.08,447.76 171.90,447.23 C 170.72,446.70 169.46,446.12 168.12,445.50 C 166.79,444.88 165.24,444.15 163.88,443.50 C 162.51,442.85 161.19,442.21 159.92,441.59 C 158.65,440.97 157.43,440.37 156.27,439.78 C 155.10,439.19 153.98,438.62 152.91,438.06 C 151.84,437.51 150.82,436.96 149.84,436.44 C 148.87,435.91 147.95,435.40 147.08,434.91 C 146.21,434.41 145.38,433.93 144.61,433.47 C 143.84,433.01 143.11,432.56 142.44,432.12 C 141.76,431.69 141.22,431.33 140.56,430.88 C 139.91,430.42 139.22,429.94 138.50,429.42 C 137.78,428.90 137.03,428.35 136.25,427.77 C 135.47,427.18 134.66,426.56 133.81,425.91 C 132.97,425.25 132.09,424.57 131.19,423.84 C 130.28,423.12 129.34,422.37 128.38,421.58 C 127.41,420.79 126.41,419.97 125.38,419.11 C 124.34,418.25 123.28,417.36 122.19,416.44 C 121.09,415.51 119.88,414.49 118.81,413.56 C 117.74,412.63 116.73,411.73 115.77,410.85 C 114.82,409.98 113.92,409.13 113.07,408.30 C 112.23,407.48 111.44,406.69 110.70,405.92 C 109.97,405.15 109.29,404.42 108.67,403.70 C 108.05,402.99 107.49,402.31 106.98,401.65 C 106.47,400.99 106.01,400.36 105.62,399.76 C 105.22,399.15 104.88,398.58 104.59,398.03 C 104.31,397.48 104.18,397.04 103.91,396.47 C 103.63,395.90 103.32,395.29 102.96,394.63 C 102.60,393.98 102.20,393.27 101.76,392.52 C 101.31,391.77 100.83,390.98 100.30,390.14 C 99.77,389.30 99.19,388.42 98.58,387.48 C 97.96,386.55 97.30,385.58 96.60,384.55 C 95.90,383.53 95.15,382.46 94.37,381.35 C 93.58,380.24 92.75,379.08 91.88,377.88 C 91.00,376.67 90.00,375.31 89.12,374.12 C 88.25,372.94 87.40,371.82 86.60,370.76 C 85.80,369.70 85.03,368.70 84.30,367.77 C 83.58,366.84 82.89,365.98 82.23,365.17 C 81.58,364.37 80.97,363.63 80.39,362.95 C 79.81,362.28 79.27,361.67 78.77,361.12 C 78.27,360.57 77.81,360.08 77.38,359.66 C 76.96,359.24 76.57,358.89 76.22,358.59 C 75.87,358.30 75.58,358.13 75.28,357.91 C 74.98,357.68 74.70,357.46 74.42,357.23 C 74.15,357.01 73.89,356.79 73.64,356.58 C 73.39,356.36 73.16,356.15 72.94,355.94 C 72.72,355.73 72.51,355.52 72.31,355.31 C 72.12,355.11 71.93,354.90 71.77,354.70 C 71.60,354.50 71.44,354.30 71.30,354.11 C 71.15,353.91 71.02,353.72 70.91,353.53 C 70.79,353.34 70.73,353.25 70.59,352.97 C 70.45,352.69 70.28,352.31 70.07,351.84 C 69.86,351.36 69.62,350.80 69.34,350.13 C 69.06,349.47 68.74,348.71 68.39,347.86 C 68.04,347.01 67.65,346.06 67.23,345.02 C 66.81,343.97 66.36,342.83 65.87,341.60 C 65.38,340.37 64.85,339.04 64.29,337.62 C 63.73,336.19 63.13,334.68 62.50,333.06 C 61.87,331.45 61.14,329.62 60.50,327.94 C 59.86,326.26 59.24,324.61 58.66,322.98 C 58.07,321.36 57.51,319.77 56.97,318.20 C 56.43,316.64 55.92,315.10 55.44,313.59 C 54.95,312.09 54.49,310.61 54.06,309.16 C 53.63,307.71 53.22,306.28 52.84,304.89 C 52.46,303.50 52.11,302.13 51.78,300.80 C 51.45,299.46 51.15,298.15 50.88,296.88 C 50.60,295.60 50.36,294.30 50.12,293.12 C 49.89,291.95 49.68,290.84 49.48,289.80 C 49.29,288.76 49.11,287.79 48.95,286.89 C 48.79,285.99 48.65,285.16 48.53,284.41 C 48.41,283.65 48.30,282.96 48.22,282.34 C 48.13,281.73 48.07,281.18 48.02,280.70 C 47.97,280.23 47.93,279.82 47.92,279.48 C 47.91,279.15 47.91,278.88 47.94,278.69 C 47.96,278.49 48.03,278.46 48.06,278.31 C 48.10,278.17 48.12,278.00 48.14,277.81 C 48.16,277.62 48.17,277.42 48.17,277.19 C 48.17,276.96 48.17,276.71 48.16,276.44 C 48.14,276.17 48.12,275.88 48.09,275.56 C 48.07,275.25 48.03,274.92 47.98,274.56 C 47.94,274.21 47.89,273.83 47.83,273.44 C 47.77,273.04 47.70,272.62 47.62,272.19 C 47.55,271.75 47.45,271.25 47.38,270.81 C 47.30,270.37 47.24,269.95 47.20,269.54 C 47.15,269.13 47.11,268.74 47.09,268.37 C 47.06,267.99 47.05,267.64 47.05,267.30 C 47.05,266.96 47.06,266.63 47.08,266.33 C 47.10,266.02 47.13,265.73 47.18,265.46 C 47.23,265.19 47.28,264.93 47.35,264.70 C 47.42,264.46 47.50,264.24 47.59,264.03 C 47.69,263.83 47.79,263.65 47.91,263.47 C 48.03,263.29 48.16,263.12 48.31,262.97 C 48.46,262.81 48.63,262.67 48.81,262.53 C 48.99,262.40 49.19,262.27 49.41,262.16 C 49.62,262.04 49.85,261.94 50.09,261.84 C 50.34,261.75 50.60,261.67 50.88,261.59 C 51.15,261.52 51.44,261.46 51.75,261.41 C 52.06,261.35 52.38,261.31 52.72,261.28 C 53.06,261.25 53.45,261.26 53.78,261.22 C 54.11,261.17 54.42,261.10 54.71,261.01 C 55.00,260.91 55.26,260.79 55.51,260.65 C 55.75,260.50 55.97,260.33 56.17,260.14 C 56.37,259.95 56.55,259.73 56.70,259.48 C 56.86,259.24 56.99,258.97 57.10,258.68 C 57.21,258.39 57.30,258.07 57.37,257.73 C 57.43,257.38 57.48,257.02 57.50,256.62 C 57.52,256.23 57.50,255.77 57.50,255.38 C 57.50,254.98 57.49,254.61 57.48,254.26 C 57.46,253.91 57.45,253.58 57.43,253.27 C 57.41,252.97 57.39,252.68 57.36,252.42 C 57.33,252.16 57.30,251.92 57.27,251.70 C 57.23,251.49 57.19,251.29 57.15,251.12 C 57.11,250.94 57.06,250.79 57.01,250.66 C 56.96,250.54 56.90,250.43 56.84,250.34 C 56.79,250.26 56.73,250.21 56.66,250.16 C 56.58,250.10 56.49,250.04 56.38,249.99 C 56.28,249.94 56.16,249.89 56.02,249.85 C 55.89,249.81 55.74,249.77 55.58,249.73 C 55.42,249.70 55.24,249.67 55.05,249.64 C 54.86,249.61 54.65,249.59 54.43,249.57 C 54.21,249.55 53.98,249.54 53.73,249.52 C 53.48,249.51 53.21,249.50 52.94,249.50 C 52.66,249.50 52.34,249.51 52.06,249.50 C 51.78,249.49 51.51,249.46 51.26,249.41 C 51.00,249.37 50.76,249.31 50.52,249.24 C 50.29,249.17 50.07,249.08 49.86,248.98 C 49.65,248.88 49.45,248.77 49.27,248.64 C 49.08,248.51 48.90,248.37 48.74,248.21 C 48.58,248.05 48.43,247.88 48.29,247.70 C 48.15,247.51 48.02,247.31 47.91,247.09 C 47.79,246.88 47.68,246.69 47.59,246.41 C 47.50,246.13 47.43,245.80 47.37,245.41 C 47.31,245.03 47.26,244.60 47.23,244.12 C 47.19,243.63 47.18,243.10 47.17,242.52 C 47.17,241.93 47.18,241.30 47.20,240.61 C 47.23,239.92 47.27,239.19 47.32,238.40 C 47.37,237.61 47.44,236.77 47.52,235.88 C 47.61,234.99 47.70,234.05 47.81,233.06 C 47.92,232.07 48.05,230.99 48.19,229.94 C 48.33,228.88 48.48,227.82 48.64,226.73 C 48.80,225.65 48.98,224.56 49.17,223.45 C 49.36,222.35 49.57,221.23 49.78,220.09 C 50.00,218.96 50.23,217.82 50.47,216.66 C 50.71,215.50 50.97,214.33 51.23,213.14 C 51.50,211.96 51.78,210.76 52.08,209.55 C 52.37,208.34 52.68,207.11 53.00,205.88 C 53.32,204.64 53.65,203.38 54.00,202.12 C 54.35,200.87 54.71,199.62 55.08,198.36 C 55.45,197.10 55.84,195.84 56.23,194.58 C 56.63,193.32 57.04,192.05 57.47,190.78 C 57.89,189.51 58.33,188.24 58.78,186.97 C 59.23,185.70 59.70,184.42 60.17,183.14 C 60.65,181.86 61.14,180.58 61.64,179.30 C 62.14,178.01 62.66,176.73 63.19,175.44 C 63.72,174.15 64.28,172.80 64.81,171.56 C 65.35,170.33 65.88,169.14 66.41,168.02 C 66.93,166.89 67.45,165.82 67.97,164.80 C 68.48,163.78 68.99,162.82 69.50,161.91 C 70.01,161.00 70.51,160.14 71.00,159.34 C 71.49,158.54 71.98,157.80 72.47,157.11 C 72.95,156.42 73.43,155.78 73.91,155.20 C 74.38,154.62 74.85,154.10 75.31,153.62 C 75.78,153.15 76.21,152.83 76.69,152.38 C 77.17,151.92 77.67,151.42 78.19,150.88 C 78.71,150.33 79.25,149.75 79.81,149.12 C 80.38,148.50 80.96,147.83 81.56,147.12 C 82.17,146.42 82.79,145.67 83.44,144.88 C 84.08,144.08 84.75,143.25 85.44,142.38 C 86.12,141.50 86.83,140.58 87.56,139.62 C 88.29,138.67 89.04,137.67 89.81,136.62 C 90.58,135.58 91.43,134.42 92.19,133.38 C 92.94,132.33 93.65,131.33 94.33,130.36 C 95.00,129.39 95.64,128.47 96.23,127.58 C 96.83,126.69 97.39,125.84 97.91,125.03 C 98.42,124.22 98.90,123.45 99.34,122.72 C 99.78,121.99 100.18,121.29 100.55,120.64 C 100.91,119.99 101.23,119.37 101.52,118.80 C 101.80,118.22 102.04,117.68 102.25,117.19 C 102.46,116.69 102.48,116.33 102.75,115.81 C 103.02,115.29 103.40,114.70 103.88,114.05 C 104.37,113.40 104.95,112.69 105.65,111.91 C 106.34,111.14 107.14,110.30 108.05,109.39 C 108.95,108.49 109.96,107.52 111.08,106.48 C 112.19,105.45 113.42,104.36 114.74,103.20 C 116.07,102.04 117.50,100.81 119.04,99.52 C 120.58,98.24 122.22,96.88 123.97,95.47 C 125.72,94.05 127.74,92.45 129.53,91.03 C 131.32,89.62 133.05,88.26 134.71,86.98 C 136.37,85.69 137.97,84.46 139.51,83.30 C 141.04,82.14 142.51,81.05 143.92,80.02 C 145.33,78.98 146.67,78.01 147.95,77.11 C 149.23,76.20 150.45,75.36 151.60,74.59 C 152.75,73.81 153.84,73.10 154.87,72.45 C 155.89,71.80 156.85,71.21 157.75,70.69 C 158.65,70.17 159.43,69.76 160.25,69.31 C 161.07,68.87 161.89,68.43 162.69,68.02 C 163.49,67.60 164.28,67.19 165.06,66.80 C 165.84,66.40 166.61,66.02 167.38,65.66 C 168.14,65.29 168.89,64.93 169.62,64.59 C 170.36,64.25 171.09,63.92 171.81,63.61 C 172.53,63.29 173.24,62.99 173.94,62.70 C 174.64,62.41 175.32,62.14 176.00,61.88 C 176.68,61.61 177.37,61.35 178.00,61.12 C 178.63,60.90 179.23,60.69 179.79,60.51 C 180.35,60.32 180.88,60.16 181.37,60.02 C 181.86,59.88 182.31,59.77 182.73,59.67 C 183.15,59.58 183.54,59.50 183.89,59.45 C 184.24,59.40 184.56,59.37 184.84,59.37 C 185.12,59.36 185.36,59.38 185.57,59.41 C 185.78,59.45 185.95,59.51 186.09,59.59 C 186.23,59.68 186.31,59.80 186.41,59.91 C 186.51,60.02 186.60,60.13 186.70,60.26 C 186.79,60.38 186.88,60.51 186.96,60.65 C 187.05,60.79 187.13,60.93 187.20,61.08 C 187.28,61.23 187.35,61.38 187.42,61.55 C 187.49,61.71 187.56,61.88 187.62,62.05 C 187.68,62.23 187.74,62.41 187.79,62.60 C 187.84,62.79 187.89,62.99 187.94,63.19 C 187.98,63.39 188.01,63.61 188.06,63.81 C 188.11,64.01 188.17,64.20 188.23,64.38 C 188.29,64.56 188.36,64.74 188.43,64.90 C 188.50,65.06 188.58,65.21 188.67,65.36 C 188.76,65.50 188.85,65.64 188.95,65.77 C 189.05,65.89 189.16,66.01 189.27,66.12 C 189.39,66.23 189.51,66.32 189.63,66.41 C 189.76,66.50 189.89,66.58 190.03,66.66 C 190.17,66.73 190.31,66.79 190.47,66.84 C 190.62,66.89 190.79,66.93 190.97,66.95 C 191.15,66.98 191.33,66.99 191.53,66.98 C 191.73,66.98 191.94,66.97 192.16,66.94 C 192.38,66.91 192.60,66.87 192.84,66.81 C 193.08,66.76 193.33,66.69 193.59,66.61 C 193.85,66.53 194.12,66.43 194.41,66.33 C 194.69,66.22 194.98,66.10 195.28,65.97 C 195.58,65.84 195.93,65.69 196.22,65.53 C 196.51,65.38 196.77,65.21 197.01,65.04 C 197.25,64.87 197.46,64.68 197.65,64.49 C 197.84,64.30 198.00,64.10 198.14,63.89 C 198.28,63.68 198.39,63.46 198.48,63.23 C 198.57,63.01 198.64,62.77 198.68,62.52 C 198.72,62.28 198.74,62.02 198.73,61.76 C 198.72,61.49 198.68,61.22 198.62,60.94 C 198.57,60.65 198.45,60.35 198.38,60.06 C 198.30,59.78 198.24,59.51 198.18,59.24 C 198.12,58.98 198.08,58.72 198.04,58.48 C 198.00,58.23 197.97,57.99 197.95,57.77 C 197.93,57.54 197.92,57.32 197.92,57.11 C 197.92,56.90 197.93,56.70 197.95,56.51 C 197.96,56.32 197.99,56.13 198.02,55.96 C 198.06,55.79 198.10,55.62 198.16,55.47 C 198.21,55.31 198.20,55.19 198.34,55.03 C 198.49,54.88 198.72,54.71 199.04,54.54 C 199.36,54.37 199.76,54.18 200.24,53.99 C 200.73,53.80 201.30,53.60 201.95,53.39 C 202.61,53.18 203.35,52.96 204.17,52.73 C 205.00,52.51 205.90,52.27 206.90,52.02 C 207.89,51.78 208.97,51.52 210.13,51.26 C 211.30,50.99 212.54,50.72 213.88,50.44 C 215.21,50.15 216.76,49.84 218.12,49.56 C 219.49,49.29 220.79,49.03 222.05,48.80 C 223.30,48.56 224.50,48.34 225.64,48.14 C 226.78,47.94 227.87,47.76 228.91,47.59 C 229.94,47.43 230.92,47.28 231.84,47.16 C 232.77,47.03 233.64,46.92 234.45,46.83 C 235.27,46.74 236.03,46.66 236.73,46.61 C 237.44,46.55 238.09,46.52 238.69,46.50 C 239.28,46.48 239.77,46.50 240.31,46.50 C 240.85,46.50 241.40,46.49 241.94,46.48 C 242.48,46.48 243.02,46.47 243.56,46.45 C 244.10,46.44 244.65,46.42 245.19,46.41 C 245.73,46.39 246.27,46.37 246.81,46.34 C 247.35,46.32 247.90,46.29 248.44,46.27 C 248.98,46.24 249.52,46.21 250.06,46.17 C 250.60,46.14 251.15,46.10 251.69,46.06 C 252.23,46.02 252.72,45.97 253.31,45.94 C 253.91,45.91 254.56,45.89 255.27,45.88 C 255.97,45.86 256.73,45.86 257.55,45.88 C 258.36,45.89 259.23,45.91 260.16,45.94 C 261.08,45.97 262.06,46.01 263.09,46.06 C 264.13,46.11 265.22,46.18 266.36,46.25 C 267.50,46.32 268.70,46.41 269.95,46.50 C 271.21,46.59 272.51,46.70 273.88,46.81 C 275.24,46.93 276.78,47.05 278.12,47.19 C 279.47,47.32 280.76,47.46 281.97,47.61 C 283.18,47.76 284.33,47.91 285.41,48.08 C 286.48,48.24 287.49,48.41 288.44,48.59 C 289.38,48.77 290.26,48.96 291.06,49.16 C 291.87,49.35 292.61,49.55 293.28,49.77 C 293.95,49.98 294.56,50.20 295.09,50.42 C 295.63,50.65 296.10,50.88 296.50,51.12 C 296.90,51.37 297.14,51.62 297.50,51.88 C 297.86,52.12 298.24,52.38 298.66,52.62 C 299.07,52.88 299.51,53.12 299.97,53.38 C 300.43,53.62 300.92,53.88 301.44,54.12 C 301.95,54.38 302.49,54.62 303.06,54.88 C 303.63,55.12 304.22,55.38 304.84,55.62 C 305.46,55.88 306.11,56.12 306.78,56.38 C 307.45,56.62 308.15,56.88 308.88,57.12 C 309.60,57.38 310.37,57.62 311.12,57.88 C 311.88,58.12 312.63,58.38 313.39,58.62 C 314.15,58.88 314.91,59.12 315.67,59.38 C 316.43,59.62 317.20,59.88 317.97,60.12 C 318.74,60.38 319.51,60.62 320.28,60.88 C 321.05,61.12 321.83,61.38 322.61,61.62 C 323.39,61.88 324.17,62.12 324.95,62.38 C 325.74,62.62 326.52,62.88 327.31,63.12 C 328.10,63.38 328.92,63.64 329.69,63.88 C 330.46,64.11 331.20,64.33 331.92,64.53 C 332.64,64.73 333.34,64.92 334.02,65.09 C 334.69,65.27 335.34,65.42 335.97,65.56 C 336.60,65.70 337.20,65.83 337.78,65.94 C 338.36,66.05 338.92,66.14 339.45,66.22 C 339.99,66.30 340.50,66.36 340.98,66.41 C 341.47,66.45 341.93,66.48 342.38,66.50 C 342.82,66.52 343.11,66.42 343.62,66.50 C 344.14,66.58 344.75,66.74 345.45,66.98 C 346.16,67.23 346.96,67.55 347.86,67.95 C 348.76,68.36 349.75,68.84 350.84,69.41 C 351.93,69.97 353.12,70.62 354.41,71.34 C 355.69,72.07 357.07,72.88 358.55,73.77 C 360.02,74.65 361.60,75.62 363.27,76.67 C 364.93,77.72 366.70,78.85 368.56,80.06 C 370.42,81.27 372.54,82.65 374.44,83.94 C 376.34,85.22 378.19,86.49 379.98,87.76 C 381.77,89.02 383.50,90.28 385.18,91.52 C 386.86,92.77 388.48,94.01 390.05,95.23 C 391.61,96.46 393.12,97.68 394.58,98.89 C 396.03,100.10 397.43,101.30 398.77,102.49 C 400.12,103.68 401.40,104.87 402.63,106.04 C 403.86,107.21 405.04,108.38 406.16,109.53 C 407.27,110.69 408.35,111.89 409.34,112.97 C 410.34,114.05 411.28,115.06 412.15,116.01 C 413.02,116.95 413.83,117.83 414.57,118.65 C 415.31,119.46 415.99,120.21 416.61,120.89 C 417.23,121.57 417.78,122.19 418.27,122.73 C 418.75,123.28 419.18,123.76 419.54,124.18 C 419.90,124.60 420.20,124.94 420.43,125.23 C 420.66,125.51 420.83,125.73 420.94,125.88 C 421.04,126.02 421.04,126.03 421.06,126.12 C 421.08,126.22 421.08,126.33 421.05,126.45 C 421.02,126.58 420.97,126.71 420.89,126.86 C 420.82,127.01 420.72,127.17 420.59,127.34 C 420.47,127.52 420.33,127.71 420.16,127.91 C 419.99,128.11 419.79,128.32 419.58,128.55 C 419.36,128.77 419.12,129.01 418.86,129.27 C 418.60,129.52 418.31,129.78 418.00,130.06 C 417.69,130.34 417.30,130.65 417.00,130.94 C 416.70,131.22 416.42,131.51 416.17,131.78 C 415.92,132.06 415.71,132.33 415.52,132.59 C 415.33,132.86 415.16,133.12 415.03,133.38 C 414.90,133.63 414.79,133.88 414.72,134.12 C 414.64,134.37 414.60,134.61 414.58,134.84 C 414.56,135.08 414.57,135.31 414.61,135.53 C 414.65,135.76 414.72,135.97 414.81,136.19 C 414.91,136.40 415.06,136.61 415.19,136.81 C 415.32,137.02 415.45,137.22 415.59,137.41 C 415.72,137.61 415.86,137.80 416.01,137.99 C 416.15,138.18 416.30,138.37 416.45,138.55 C 416.61,138.73 416.76,138.90 416.92,139.08 C 417.08,139.25 417.25,139.42 417.41,139.59 C 417.58,139.75 417.75,139.91 417.93,140.07 C 418.11,140.23 418.29,140.38 418.47,140.53 C 418.65,140.68 418.83,140.85 419.03,140.97 C 419.23,141.09 419.43,141.19 419.65,141.27 C 419.86,141.35 420.09,141.41 420.32,141.45 C 420.55,141.48 420.80,141.49 421.05,141.48 C 421.30,141.48 421.56,141.44 421.83,141.39 C 422.10,141.34 422.38,141.26 422.66,141.16 C 422.95,141.07 423.25,140.95 423.55,140.80 C 423.86,140.66 424.18,140.50 424.50,140.31 C 424.82,140.13 425.15,139.82 425.50,139.69 C 425.85,139.56 426.23,139.50 426.62,139.52 C 427.01,139.55 427.42,139.64 427.85,139.82 C 428.28,140.00 428.73,140.25 429.20,140.58 C 429.67,140.91 430.16,141.31 430.67,141.80 C 431.18,142.28 431.71,142.84 432.26,143.48 C 432.81,144.11 433.37,144.83 433.96,145.62 C 434.55,146.41 435.15,147.27 435.78,148.22 C 436.41,149.16 437.08,150.25 437.72,151.28 C 438.36,152.31 438.98,153.36 439.60,154.41 C 440.22,155.47 440.83,156.54 441.43,157.62 C 442.03,158.70 442.62,159.79 443.20,160.89 C 443.79,161.99 444.36,163.11 444.92,164.23 C 445.49,165.36 446.04,166.50 446.59,167.65 C 447.13,168.80 447.67,169.96 448.20,171.13 C 448.72,172.31 449.24,173.49 449.75,174.69 C 450.26,175.88 450.76,177.09 451.25,178.31 C 451.74,179.54 452.22,180.78 452.69,182.03 C 453.16,183.29 453.61,184.56 454.06,185.84 C 454.51,187.13 454.95,188.43 455.38,189.75 C 455.80,191.07 456.22,192.40 456.62,193.75 C 457.03,195.10 457.43,196.46 457.81,197.84 C 458.20,199.22 458.57,200.62 458.94,202.03 C 459.30,203.44 459.66,204.87 460.00,206.31 C 460.34,207.76 460.70,209.30 461.00,210.69 C 461.30,212.08 461.58,213.40 461.83,214.66 C 462.08,215.91 462.29,217.10 462.48,218.22 C 462.67,219.34 462.84,220.39 462.97,221.38 C 463.10,222.36 463.21,223.28 463.28,224.12 C 463.36,224.97 463.40,225.76 463.42,226.47 C 463.44,227.18 463.43,227.83 463.39,228.41 C 463.35,228.98 463.28,229.49 463.19,229.94 C 463.09,230.38 462.93,230.60 462.81,231.06 C 462.70,231.52 462.59,232.06 462.48,232.69 C 462.38,233.31 462.29,234.02 462.20,234.81 C 462.12,235.60 462.04,236.48 461.97,237.44 C 461.90,238.40 461.84,239.44 461.78,240.56 C 461.73,241.69 461.68,242.90 461.64,244.19 C 461.60,245.48 461.57,246.85 461.55,248.31 C 461.52,249.77 461.51,251.31 461.50,252.94 C 461.49,254.56 461.49,256.43 461.50,258.06 C 461.51,259.69 461.52,261.24 461.55,262.70 C 461.57,264.17 461.60,265.55 461.64,266.86 C 461.68,268.16 461.73,269.39 461.78,270.53 C 461.84,271.67 461.90,272.74 461.97,273.72 C 462.04,274.70 462.12,275.60 462.20,276.42 C 462.29,277.24 462.38,277.98 462.48,278.64 C 462.59,279.30 462.70,279.88 462.81,280.38 C 462.93,280.87 463.09,281.15 463.19,281.62 C 463.28,282.10 463.35,282.65 463.39,283.25 C 463.43,283.85 463.44,284.52 463.42,285.25 C 463.40,285.98 463.36,286.77 463.28,287.62 C 463.21,288.48 463.10,289.40 462.97,290.38 C 462.84,291.35 462.67,292.40 462.48,293.50 C 462.29,294.60 462.08,295.77 461.83,297.00 C 461.58,298.23 461.30,299.52 461.00,300.88 C 460.70,302.23 460.33,303.75 460.00,305.12 C 459.67,306.50 459.34,307.84 459.02,309.14 C 458.69,310.44 458.37,311.70 458.05,312.92 C 457.73,314.14 457.41,315.33 457.09,316.47 C 456.78,317.61 456.47,318.72 456.16,319.78 C 455.85,320.85 455.54,321.87 455.23,322.86 C 454.93,323.85 454.63,324.79 454.33,325.70 C 454.03,326.61 453.73,327.48 453.44,328.31 C 453.14,329.14 452.88,329.86 452.56,330.69 C 452.24,331.51 451.89,332.37 451.52,333.27 C 451.14,334.16 450.73,335.09 450.30,336.05 C 449.86,337.01 449.40,338.00 448.91,339.03 C 448.41,340.06 447.89,341.12 447.34,342.22 C 446.79,343.32 446.22,344.45 445.61,345.61 C 445.00,346.77 444.37,347.97 443.70,349.20 C 443.04,350.43 442.35,351.70 441.62,353.00 C 440.90,354.30 440.09,355.75 439.38,357.00 C 438.66,358.25 437.99,359.43 437.35,360.52 C 436.71,361.62 436.12,362.63 435.55,363.57 C 434.99,364.51 434.47,365.36 433.98,366.14 C 433.50,366.92 433.05,367.62 432.64,368.23 C 432.23,368.85 431.86,369.39 431.52,369.85 C 431.19,370.31 430.89,370.69 430.63,370.99 C 430.37,371.29 430.15,371.51 429.97,371.66 C 429.79,371.80 429.69,371.80 429.53,371.84 C 429.37,371.89 429.20,371.91 429.02,371.91 C 428.84,371.92 428.65,371.90 428.45,371.87 C 428.24,371.83 428.02,371.78 427.80,371.70 C 427.57,371.63 427.33,371.54 427.08,371.42 C 426.83,371.31 426.56,371.18 426.29,371.02 C 426.01,370.87 425.73,370.70 425.43,370.51 C 425.13,370.32 424.82,370.11 424.50,369.88 C 424.18,369.64 423.83,369.34 423.50,369.12 C 423.17,368.91 422.85,368.73 422.52,368.59 C 422.20,368.44 421.88,368.33 421.57,368.26 C 421.26,368.18 420.95,368.14 420.64,368.14 C 420.33,368.14 420.03,368.17 419.73,368.23 C 419.44,368.30 419.14,368.40 418.85,368.54 C 418.56,368.68 418.27,368.85 417.99,369.05 C 417.71,369.26 417.43,369.50 417.16,369.78 C 416.88,370.06 416.58,370.41 416.34,370.72 C 416.11,371.03 415.92,371.34 415.76,371.65 C 415.60,371.96 415.48,372.26 415.40,372.57 C 415.32,372.88 415.27,373.18 415.27,373.48 C 415.26,373.79 415.29,374.09 415.36,374.39 C 415.43,374.69 415.54,374.99 415.68,375.29 C 415.82,375.59 416.01,375.88 416.23,376.18 C 416.45,376.48 416.70,376.77 417.00,377.06 C 417.30,377.36 417.69,377.65 418.00,377.94 C 418.31,378.22 418.60,378.51 418.86,378.78 C 419.12,379.06 419.36,379.33 419.58,379.59 C 419.79,379.86 419.99,380.12 420.16,380.38 C 420.33,380.63 420.47,380.88 420.59,381.12 C 420.72,381.37 420.82,381.61 420.89,381.84 C 420.97,382.08 421.02,382.31 421.05,382.53 C 421.08,382.76 421.08,382.97 421.06,383.19 C 421.04,383.40 420.99,383.60 420.94,383.81 C 420.89,384.02 420.83,384.23 420.77,384.44 C 420.70,384.65 420.63,384.85 420.55,385.06 C 420.47,385.27 420.38,385.48 420.28,385.69 C 420.18,385.90 420.08,386.10 419.97,386.31 C 419.86,386.52 419.74,386.73 419.61,386.94 C 419.48,387.15 419.35,387.35 419.20,387.56 C 419.06,387.77 418.91,387.98 418.75,388.19 C 418.59,388.40 418.46,388.56 418.25,388.81 C 418.04,389.06 417.79,389.36 417.49,389.70 C 417.20,390.03 416.86,390.41 416.48,390.84 C 416.10,391.26 415.67,391.73 415.20,392.23 C 414.74,392.74 414.23,393.30 413.67,393.89 C 413.12,394.49 412.52,395.12 411.88,395.80 C 411.24,396.49 410.56,397.21 409.84,397.98 C 409.11,398.74 408.34,399.55 407.53,400.41 C 406.72,401.26 405.81,402.22 404.97,403.09 C 404.13,403.96 403.30,404.81 402.49,405.63 C 401.68,406.45 400.88,407.25 400.10,408.02 C 399.32,408.80 398.55,409.54 397.80,410.27 C 397.04,410.99 396.30,411.69 395.58,412.36 C 394.85,413.03 394.14,413.68 393.45,414.30 C 392.75,414.93 392.07,415.53 391.40,416.10 C 390.73,416.68 390.08,417.23 389.44,417.75 C 388.80,418.27 388.23,418.73 387.56,419.25 C 386.89,419.77 386.17,420.31 385.41,420.88 C 384.64,421.44 383.83,422.02 382.97,422.62 C 382.11,423.23 381.20,423.85 380.25,424.50 C 379.30,425.15 378.30,425.81 377.25,426.50 C 376.20,427.19 375.11,427.90 373.97,428.62 C 372.83,429.35 371.64,430.10 370.41,430.88 C 369.17,431.65 367.89,432.44 366.56,433.25 C 365.23,434.06 363.75,434.97 362.44,435.75 C 361.12,436.53 359.87,437.26 358.67,437.94 C 357.48,438.61 356.34,439.24 355.27,439.81 C 354.19,440.39 353.17,440.91 352.22,441.38 C 351.26,441.84 350.37,442.26 349.53,442.62 C 348.70,442.99 347.92,443.30 347.20,443.56 C 346.49,443.82 345.83,444.03 345.23,444.19 C 344.64,444.34 344.10,444.45 343.62,444.50 C 343.15,444.55 342.84,444.48 342.38,444.50 C 341.91,444.52 341.40,444.57 340.84,444.64 C 340.29,444.71 339.68,444.80 339.03,444.92 C 338.38,445.04 337.68,445.18 336.94,445.34 C 336.19,445.51 335.40,445.70 334.56,445.91 C 333.72,446.12 332.84,446.35 331.91,446.61 C 330.97,446.87 329.99,447.15 328.97,447.45 C 327.94,447.76 326.87,448.09 325.75,448.44 C 324.63,448.79 323.37,449.20 322.25,449.56 C 321.13,449.92 320.07,450.27 319.05,450.59 C 318.03,450.92 317.06,451.23 316.14,451.53 C 315.22,451.83 314.35,452.11 313.53,452.38 C 312.71,452.64 311.94,452.89 311.22,453.12 C 310.50,453.36 309.83,453.58 309.20,453.78 C 308.58,453.98 308.01,454.17 307.48,454.34 C 306.96,454.52 306.49,454.67 306.06,454.81 C 305.64,454.95 305.31,455.05 304.94,455.19 C 304.57,455.32 304.20,455.46 303.83,455.61 C 303.46,455.76 303.10,455.91 302.73,456.08 C 302.37,456.24 302.01,456.41 301.66,456.59 C 301.30,456.77 300.95,456.96 300.59,457.16 C 300.24,457.35 299.89,457.55 299.55,457.77 C 299.20,457.98 298.86,458.20 298.52,458.42 C 298.17,458.65 297.84,458.88 297.50,459.12 C 297.16,459.37 296.91,459.63 296.50,459.88 C 296.09,460.12 295.60,460.35 295.03,460.58 C 294.46,460.80 293.82,461.02 293.09,461.23 C 292.37,461.45 291.57,461.65 290.69,461.84 C 289.81,462.04 288.85,462.23 287.81,462.41 C 286.78,462.59 285.66,462.76 284.47,462.92 C 283.28,463.09 282.01,463.24 280.66,463.39 C 279.31,463.54 277.88,463.68 276.38,463.81 C 274.87,463.95 273.16,464.07 271.62,464.19 C 270.09,464.30 268.59,464.41 267.14,464.50 C 265.69,464.59 264.28,464.68 262.92,464.75 C 261.56,464.82 260.24,464.89 258.97,464.94 C 257.70,464.99 256.47,465.03 255.28,465.06 C 254.10,465.09 252.96,465.11 251.86,465.12 C 250.76,465.14 249.71,465.14 248.70,465.12 C 247.70,465.11 246.73,465.09 245.81,465.06 Z" />
    </clipPath>
  </defs>
  <path d="M 245.81,465.06 C 244.89,465.03 244.10,464.99 243.19,464.94 C 242.28,464.88 241.34,464.81 240.36,464.72 C 239.38,464.63 238.37,464.53 237.33,464.41 C 236.28,464.29 235.21,464.15 234.09,464.00 C 232.98,463.85 231.84,463.68 230.66,463.50 C 229.48,463.32 228.26,463.12 227.02,462.91 C 225.77,462.69 224.49,462.46 223.17,462.22 C 221.86,461.97 220.51,461.71 219.12,461.44 C 217.74,461.16 216.21,460.85 214.88,460.56 C 213.54,460.28 212.30,460.01 211.13,459.74 C 209.97,459.48 208.89,459.22 207.90,458.98 C 206.90,458.73 206.00,458.49 205.17,458.27 C 204.35,458.04 203.61,457.82 202.95,457.61 C 202.30,457.40 201.73,457.20 201.24,457.01 C 200.76,456.82 200.36,456.63 200.04,456.46 C 199.72,456.29 199.49,456.12 199.34,455.97 C 199.20,455.81 199.21,455.69 199.16,455.53 C 199.10,455.37 199.05,455.20 199.01,455.01 C 198.96,454.82 198.93,454.62 198.90,454.40 C 198.87,454.18 198.85,453.95 198.83,453.70 C 198.81,453.46 198.80,453.20 198.80,452.92 C 198.79,452.65 198.80,452.36 198.80,452.05 C 198.81,451.75 198.83,451.43 198.85,451.10 C 198.87,450.77 198.90,450.42 198.94,450.06 C 198.97,449.70 199.05,449.30 199.06,448.94 C 199.08,448.58 199.07,448.23 199.04,447.90 C 199.01,447.57 198.95,447.25 198.87,446.95 C 198.79,446.64 198.68,446.35 198.55,446.08 C 198.42,445.80 198.26,445.54 198.08,445.30 C 197.90,445.05 197.69,444.82 197.46,444.60 C 197.23,444.38 196.98,444.18 196.70,443.99 C 196.42,443.80 196.11,443.63 195.78,443.47 C 195.45,443.31 195.06,443.14 194.72,443.03 C 194.38,442.92 194.04,442.84 193.72,442.80 C 193.40,442.75 193.08,442.74 192.78,442.77 C 192.48,442.79 192.19,442.85 191.91,442.94 C 191.62,443.03 191.35,443.15 191.09,443.31 C 190.83,443.47 190.58,443.66 190.34,443.89 C 190.10,444.12 189.88,444.38 189.66,444.67 C 189.44,444.97 189.23,445.29 189.03,445.66 C 188.83,446.02 188.65,446.47 188.47,446.84 C 188.28,447.22 188.10,447.57 187.92,447.91 C 187.74,448.24 187.57,448.55 187.39,448.84 C 187.22,449.14 187.04,449.41 186.88,449.66 C 186.71,449.91 186.54,450.14 186.38,450.34 C 186.21,450.55 186.05,450.74 185.89,450.91 C 185.73,451.07 185.58,451.22 185.42,451.34 C 185.27,451.47 185.12,451.57 184.97,451.66 C 184.82,451.74 184.76,451.83 184.53,451.84 C 184.31,451.86 184.00,451.83 183.62,451.76 C 183.23,451.68 182.77,451.56 182.23,451.40 C 181.68,451.23 181.06,451.02 180.36,450.77 C 179.66,450.51 178.88,450.21 178.02,449.86 C 177.15,449.51 176.21,449.12 175.20,448.68 C 174.18,448.24 173.08,447.76 171.90,447.23 C 170.72,446.70 169.46,446.12 168.12,445.50 C 166.79,444.88 165.24,444.15 163.88,443.50 C 162.51,442.85 161.19,442.21 159.92,441.59 C 158.65,440.97 157.43,440.37 156.27,439.78 C 155.10,439.19 153.98,438.62 152.91,438.06 C 151.84,437.51 150.82,436.96 149.84,436.44 C 148.87,435.91 147.95,435.40 147.08,434.91 C 146.21,434.41 145.38,433.93 144.61,433.47 C 143.84,433.01 143.11,432.56 142.44,432.12 C 141.76,431.69 141.22,431.33 140.56,430.88 C 139.91,430.42 139.22,429.94 138.50,429.42 C 137.78,428.90 137.03,428.35 136.25,427.77 C 135.47,427.18 134.66,426.56 133.81,425.91 C 132.97,425.25 132.09,424.57 131.19,423.84 C 130.28,423.12 129.34,422.37 128.38,421.58 C 127.41,420.79 126.41,419.97 125.38,419.11 C 124.34,418.25 123.28,417.36 122.19,416.44 C 121.09,415.51 119.88,414.49 118.81,413.56 C 117.74,412.63 116.73,411.73 115.77,410.85 C 114.82,409.98 113.92,409.13 113.07,408.30 C 112.23,407.48 111.44,406.69 110.70,405.92 C 109.97,405.15 109.29,404.42 108.67,403.70 C 108.05,402.99 107.49,402.31 106.98,401.65 C 106.47,400.99 106.01,400.36 105.62,399.76 C 105.22,399.15 104.88,398.58 104.59,398.03 C 104.31,397.48 104.18,397.04 103.91,396.47 C 103.63,395.90 103.32,395.29 102.96,394.63 C 102.60,393.98 102.20,393.27 101.76,392.52 C 101.31,391.77 100.83,390.98 100.30,390.14 C 99.77,389.30 99.19,388.42 98.58,387.48 C 97.96,386.55 97.30,385.58 96.60,384.55 C 95.90,383.53 95.15,382.46 94.37,381.35 C 93.58,380.24 92.75,379.08 91.88,377.88 C 91.00,376.67 90.00,375.31 89.12,374.12 C 88.25,372.94 87.40,371.82 86.60,370.76 C 85.80,369.70 85.03,368.70 84.30,367.77 C 83.58,366.84 82.89,365.98 82.23,365.17 C 81.58,364.37 80.97,363.63 80.39,362.95 C 79.81,362.28 79.27,361.67 78.77,361.12 C 78.27,360.57 77.81,360.08 77.38,359.66 C 76.96,359.24 76.57,358.89 76.22,358.59 C 75.87,358.30 75.58,358.13 75.28,357.91 C 74.98,357.68 74.70,357.46 74.42,357.23 C 74.15,357.01 73.89,356.79 73.64,356.58 C 73.39,356.36 73.16,356.15 72.94,355.94 C 72.72,355.73 72.51,355.52 72.31,355.31 C 72.12,355.11 71.93,354.90 71.77,354.70 C 71.60,354.50 71.44,354.30 71.30,354.11 C 71.15,353.91 71.02,353.72 70.91,353.53 C 70.79,353.34 70.73,353.25 70.59,352.97 C 70.45,352.69 70.28,352.31 70.07,351.84 C 69.86,351.36 69.62,350.80 69.34,350.13 C 69.06,349.47 68.74,348.71 68.39,347.86 C 68.04,347.01 67.65,346.06 67.23,345.02 C 66.81,343.97 66.36,342.83 65.87,341.60 C 65.38,340.37 64.85,339.04 64.29,337.62 C 63.73,336.19 63.13,334.68 62.50,333.06 C 61.87,331.45 61.14,329.62 60.50,327.94 C 59.86,326.26 59.24,324.61 58.66,322.98 C 58.07,321.36 57.51,319.77 56.97,318.20 C 56.43,316.64 55.92,315.10 55.44,313.59 C 54.95,312.09 54.49,310.61 54.06,309.16 C 53.63,307.71 53.22,306.28 52.84,304.89 C 52.46,303.50 52.11,302.13 51.78,300.80 C 51.45,299.46 51.15,298.15 50.88,296.88 C 50.60,295.60 50.36,294.30 50.12,293.12 C 49.89,291.95 49.68,290.84 49.48,289.80 C 49.29,288.76 49.11,287.79 48.95,286.89 C 48.79,285.99 48.65,285.16 48.53,284.41 C 48.41,283.65 48.30,282.96 48.22,282.34 C 48.13,281.73 48.07,281.18 48.02,280.70 C 47.97,280.23 47.93,279.82 47.92,279.48 C 47.91,279.15 47.91,278.88 47.94,278.69 C 47.96,278.49 48.03,278.46 48.06,278.31 C 48.10,278.17 48.12,278.00 48.14,277.81 C 48.16,277.62 48.17,277.42 48.17,277.19 C 48.17,276.96 48.17,276.71 48.16,276.44 C 48.14,276.17 48.12,275.88 48.09,275.56 C 48.07,275.25 48.03,274.92 47.98,274.56 C 47.94,274.21 47.89,273.83 47.83,273.44 C 47.77,273.04 47.70,272.62 47.62,272.19 C 47.55,271.75 47.45,271.25 47.38,270.81 C 47.30,270.37 47.24,269.95 47.20,269.54 C 47.15,269.13 47.11,268.74 47.09,268.37 C 47.06,267.99 47.05,267.64 47.05,267.30 C 47.05,266.96 47.06,266.63 47.08,266.33 C 47.10,266.02 47.13,265.73 47.18,265.46 C 47.23,265.19 47.28,264.93 47.35,264.70 C 47.42,264.46 47.50,264.24 47.59,264.03 C 47.69,263.83 47.79,263.65 47.91,263.47 C 48.03,263.29 48.16,263.12 48.31,262.97 C 48.46,262.81 48.63,262.67 48.81,262.53 C 48.99,262.40 49.19,262.27 49.41,262.16 C 49.62,262.04 49.85,261.94 50.09,261.84 C 50.34,261.75 50.60,261.67 50.88,261.59 C 51.15,261.52 51.44,261.46 51.75,261.41 C 52.06,261.35 52.38,261.31 52.72,261.28 C 53.06,261.25 53.45,261.26 53.78,261.22 C 54.11,261.17 54.42,261.10 54.71,261.01 C 55.00,260.91 55.26,260.79 55.51,260.65 C 55.75,260.50 55.97,260.33 56.17,260.14 C 56.37,259.95 56.55,259.73 56.70,259.48 C 56.86,259.24 56.99,258.97 57.10,258.68 C 57.21,258.39 57.30,258.07 57.37,257.73 C 57.43,257.38 57.48,257.02 57.50,256.62 C 57.52,256.23 57.50,255.77 57.50,255.38 C 57.50,254.98 57.49,254.61 57.48,254.26 C 57.46,253.91 57.45,253.58 57.43,253.27 C 57.41,252.97 57.39,252.68 57.36,252.42 C 57.33,252.16 57.30,251.92 57.27,251.70 C 57.23,251.49 57.19,251.29 57.15,251.12 C 57.11,250.94 57.06,250.79 57.01,250.66 C 56.96,250.54 56.90,250.43 56.84,250.34 C 56.79,250.26 56.73,250.21 56.66,250.16 C 56.58,250.10 56.49,250.04 56.38,249.99 C 56.28,249.94 56.16,249.89 56.02,249.85 C 55.89,249.81 55.74,249.77 55.58,249.73 C 55.42,249.70 55.24,249.67 55.05,249.64 C 54.86,249.61 54.65,249.59 54.43,249.57 C 54.21,249.55 53.98,249.54 53.73,249.52 C 53.48,249.51 53.21,249.50 52.94,249.50 C 52.66,249.50 52.34,249.51 52.06,249.50 C 51.78,249.49 51.51,249.46 51.26,249.41 C 51.00,249.37 50.76,249.31 50.52,249.24 C 50.29,249.17 50.07,249.08 49.86,248.98 C 49.65,248.88 49.45,248.77 49.27,248.64 C 49.08,248.51 48.90,248.37 48.74,248.21 C 48.58,248.05 48.43,247.88 48.29,247.70 C 48.15,247.51 48.02,247.31 47.91,247.09 C 47.79,246.88 47.68,246.69 47.59,246.41 C 47.50,246.13 47.43,245.80 47.37,245.41 C 47.31,245.03 47.26,244.60 47.23,244.12 C 47.19,243.63 47.18,243.10 47.17,242.52 C 47.17,241.93 47.18,241.30 47.20,240.61 C 47.23,239.92 47.27,239.19 47.32,238.40 C 47.37,237.61 47.44,236.77 47.52,235.88 C 47.61,234.99 47.70,234.05 47.81,233.06 C 47.92,232.07 48.05,230.99 48.19,229.94 C 48.33,228.88 48.48,227.82 48.64,226.73 C 48.80,225.65 48.98,224.56 49.17,223.45 C 49.36,222.35 49.57,221.23 49.78,220.09 C 50.00,218.96 50.23,217.82 50.47,216.66 C 50.71,215.50 50.97,214.33 51.23,213.14 C 51.50,211.96 51.78,210.76 52.08,209.55 C 52.37,208.34 52.68,207.11 53.00,205.88 C 53.32,204.64 53.65,203.38 54.00,202.12 C 54.35,200.87 54.71,199.62 55.08,198.36 C 55.45,197.10 55.84,195.84 56.23,194.58 C 56.63,193.32 57.04,192.05 57.47,190.78 C 57.89,189.51 58.33,188.24 58.78,186.97 C 59.23,185.70 59.70,184.42 60.17,183.14 C 60.65,181.86 61.14,180.58 61.64,179.30 C 62.14,178.01 62.66,176.73 63.19,175.44 C 63.72,174.15 64.28,172.80 64.81,171.56 C 65.35,170.33 65.88,169.14 66.41,168.02 C 66.93,166.89 67.45,165.82 67.97,164.80 C 68.48,163.78 68.99,162.82 69.50,161.91 C 70.01,161.00 70.51,160.14 71.00,159.34 C 71.49,158.54 71.98,157.80 72.47,157.11 C 72.95,156.42 73.43,155.78 73.91,155.20 C 74.38,154.62 74.85,154.10 75.31,153.62 C 75.78,153.15 76.21,152.83 76.69,152.38 C 77.17,151.92 77.67,151.42 78.19,150.88 C 78.71,150.33 79.25,149.75 79.81,149.12 C 80.38,148.50 80.96,147.83 81.56,147.12 C 82.17,146.42 82.79,145.67 83.44,144.88 C 84.08,144.08 84.75,143.25 85.44,142.38 C 86.12,141.50 86.83,140.58 87.56,139.62 C 88.29,138.67 89.04,137.67 89.81,136.62 C 90.58,135.58 91.43,134.42 92.19,133.38 C 92.94,132.33 93.65,131.33 94.33,130.36 C 95.00,129.39 95.64,128.47 96.23,127.58 C 96.83,126.69 97.39,125.84 97.91,125.03 C 98.42,124.22 98.90,123.45 99.34,122.72 C 99.78,121.99 100.18,121.29 100.55,120.64 C 100.91,119.99 101.23,119.37 101.52,118.80 C 101.80,118.22 102.04,117.68 102.25,117.19 C 102.46,116.69 102.48,116.33 102.75,115.81 C 103.02,115.29 103.40,114.70 103.88,114.05 C 104.37,113.40 104.95,112.69 105.65,111.91 C 106.34,111.14 107.14,110.30 108.05,109.39 C 108.95,108.49 109.96,107.52 111.08,106.48 C 112.19,105.45 113.42,104.36 114.74,103.20 C 116.07,102.04 117.50,100.81 119.04,99.52 C 120.58,98.24 122.22,96.88 123.97,95.47 C 125.72,94.05 127.74,92.45 129.53,91.03 C 131.32,89.62 133.05,88.26 134.71,86.98 C 136.37,85.69 137.97,84.46 139.51,83.30 C 141.04,82.14 142.51,81.05 143.92,80.02 C 145.33,78.98 146.67,78.01 147.95,77.11 C 149.23,76.20 150.45,75.36 151.60,74.59 C 152.75,73.81 153.84,73.10 154.87,72.45 C 155.89,71.80 156.85,71.21 157.75,70.69 C 158.65,70.17 159.43,69.76 160.25,69.31 C 161.07,68.87 161.89,68.43 162.69,68.02 C 163.49,67.60 164.28,67.19 165.06,66.80 C 165.84,66.40 166.61,66.02 167.38,65.66 C 168.14,65.29 168.89,64.93 169.62,64.59 C 170.36,64.25 171.09,63.92 171.81,63.61 C 172.53,63.29 173.24,62.99 173.94,62.70 C 174.64,62.41 175.32,62.14 176.00,61.88 C 176.68,61.61 177.37,61.35 178.00,61.12 C 178.63,60.90 179.23,60.69 179.79,60.51 C 180.35,60.32 180.88,60.16 181.37,60.02 C 181.86,59.88 182.31,59.77 182.73,59.67 C 183.15,59.58 183.54,59.50 183.89,59.45 C 184.24,59.40 184.56,59.37 184.84,59.37 C 185.12,59.36 185.36,59.38 185.57,59.41 C 185.78,59.45 185.95,59.51 186.09,59.59 C 186.23,59.68 186.31,59.80 186.41,59.91 C 186.51,60.02 186.60,60.13 186.70,60.26 C 186.79,60.38 186.88,60.51 186.96,60.65 C 187.05,60.79 187.13,60.93 187.20,61.08 C 187.28,61.23 187.35,61.38 187.42,61.55 C 187.49,61.71 187.56,61.88 187.62,62.05 C 187.68,62.23 187.74,62.41 187.79,62.60 C 187.84,62.79 187.89,62.99 187.94,63.19 C 187.98,63.39 188.01,63.61 188.06,63.81 C 188.11,64.01 188.17,64.20 188.23,64.38 C 188.29,64.56 188.36,64.74 188.43,64.90 C 188.50,65.06 188.58,65.21 188.67,65.36 C 188.76,65.50 188.85,65.64 188.95,65.77 C 189.05,65.89 189.16,66.01 189.27,66.12 C 189.39,66.23 189.51,66.32 189.63,66.41 C 189.76,66.50 189.89,66.58 190.03,66.66 C 190.17,66.73 190.31,66.79 190.47,66.84 C 190.62,66.89 190.79,66.93 190.97,66.95 C 191.15,66.98 191.33,66.99 191.53,66.98 C 191.73,66.98 191.94,66.97 192.16,66.94 C 192.38,66.91 192.60,66.87 192.84,66.81 C 193.08,66.76 193.33,66.69 193.59,66.61 C 193.85,66.53 194.12,66.43 194.41,66.33 C 194.69,66.22 194.98,66.10 195.28,65.97 C 195.58,65.84 195.93,65.69 196.22,65.53 C 196.51,65.38 196.77,65.21 197.01,65.04 C 197.25,64.87 197.46,64.68 197.65,64.49 C 197.84,64.30 198.00,64.10 198.14,63.89 C 198.28,63.68 198.39,63.46 198.48,63.23 C 198.57,63.01 198.64,62.77 198.68,62.52 C 198.72,62.28 198.74,62.02 198.73,61.76 C 198.72,61.49 198.68,61.22 198.62,60.94 C 198.57,60.65 198.45,60.35 198.38,60.06 C 198.30,59.78 198.24,59.51 198.18,59.24 C 198.12,58.98 198.08,58.72 198.04,58.48 C 198.00,58.23 197.97,57.99 197.95,57.77 C 197.93,57.54 197.92,57.32 197.92,57.11 C 197.92,56.90 197.93,56.70 197.95,56.51 C 197.96,56.32 197.99,56.13 198.02,55.96 C 198.06,55.79 198.10,55.62 198.16,55.47 C 198.21,55.31 198.20,55.19 198.34,55.03 C 198.49,54.88 198.72,54.71 199.04,54.54 C 199.36,54.37 199.76,54.18 200.24,53.99 C 200.73,53.80 201.30,53.60 201.95,53.39 C 202.61,53.18 203.35,52.96 204.17,52.73 C 205.00,52.51 205.90,52.27 206.90,52.02 C 207.89,51.78 208.97,51.52 210.13,51.26 C 211.30,50.99 212.54,50.72 213.88,50.44 C 215.21,50.15 216.76,49.84 218.12,49.56 C 219.49,49.29 220.79,49.03 222.05,48.80 C 223.30,48.56 224.50,48.34 225.64,48.14 C 226.78,47.94 227.87,47.76 228.91,47.59 C 229.94,47.43 230.92,47.28 231.84,47.16 C 232.77,47.03 233.64,46.92 234.45,46.83 C 235.27,46.74 236.03,46.66 236.73,46.61 C 237.44,46.55 238.09,46.52 238.69,46.50 C 239.28,46.48 239.77,46.50 240.31,46.50 C 240.85,46.50 241.40,46.49 241.94,46.48 C 242.48,46.48 243.02,46.47 243.56,46.45 C 244.10,46.44 244.65,46.42 245.19,46.41 C 245.73,46.39 246.27,46.37 246.81,46.34 C 247.35,46.32 247.90,46.29 248.44,46.27 C 248.98,46.24 249.52,46.21 250.06,46.17 C 250.60,46.14 251.15,46.10 251.69,46.06 C 252.23,46.02 252.72,45.97 253.31,45.94 C 253.91,45.91 254.56,45.89 255.27,45.88 C 255.97,45.86 256.73,45.86 257.55,45.88 C 258.36,45.89 259.23,45.91 260.16,45.94 C 261.08,45.97 262.06,46.01 263.09,46.06 C 264.13,46.11 265.22,46.18 266.36,46.25 C 267.50,46.32 268.70,46.41 269.95,46.50 C 271.21,46.59 272.51,46.70 273.88,46.81 C 275.24,46.93 276.78,47.05 278.12,47.19 C 279.47,47.32 280.76,47.46 281.97,47.61 C 283.18,47.76 284.33,47.91 285.41,48.08 C 286.48,48.24 287.49,48.41 288.44,48.59 C 289.38,48.77 290.26,48.96 291.06,49.16 C 291.87,49.35 292.61,49.55 293.28,49.77 C 293.95,49.98 294.56,50.20 295.09,50.42 C 295.63,50.65 296.10,50.88 296.50,51.12 C 296.90,51.37 297.14,51.62 297.50,51.88 C 297.86,52.12 298.24,52.38 298.66,52.62 C 299.07,52.88 299.51,53.12 299.97,53.38 C 300.43,53.62 300.92,53.88 301.44,54.12 C 301.95,54.38 302.49,54.62 303.06,54.88 C 303.63,55.12 304.22,55.38 304.84,55.62 C 305.46,55.88 306.11,56.12 306.78,56.38 C 307.45,56.62 308.15,56.88 308.88,57.12 C 309.60,57.38 310.37,57.62 311.12,57.88 C 311.88,58.12 312.63,58.38 313.39,58.62 C 314.15,58.88 314.91,59.12 315.67,59.38 C 316.43,59.62 317.20,59.88 317.97,60.12 C 318.74,60.38 319.51,60.62 320.28,60.88 C 321.05,61.12 321.83,61.38 322.61,61.62 C 323.39,61.88 324.17,62.12 324.95,62.38 C 325.74,62.62 326.52,62.88 327.31,63.12 C 328.10,63.38 328.92,63.64 329.69,63.88 C 330.46,64.11 331.20,64.33 331.92,64.53 C 332.64,64.73 333.34,64.92 334.02,65.09 C 334.69,65.27 335.34,65.42 335.97,65.56 C 336.60,65.70 337.20,65.83 337.78,65.94 C 338.36,66.05 338.92,66.14 339.45,66.22 C 339.99,66.30 340.50,66.36 340.98,66.41 C 341.47,66.45 341.93,66.48 342.38,66.50 C 342.82,66.52 343.11,66.42 343.62,66.50 C 344.14,66.58 344.75,66.74 345.45,66.98 C 346.16,67.23 346.96,67.55 347.86,67.95 C 348.76,68.36 349.75,68.84 350.84,69.41 C 351.93,69.97 353.12,70.62 354.41,71.34 C 355.69,72.07 357.07,72.88 358.55,73.77 C 360.02,74.65 361.60,75.62 363.27,76.67 C 364.93,77.72 366.70,78.85 368.56,80.06 C 370.42,81.27 372.54,82.65 374.44,83.94 C 376.34,85.22 378.19,86.49 379.98,87.76 C 381.77,89.02 383.50,90.28 385.18,91.52 C 386.86,92.77 388.48,94.01 390.05,95.23 C 391.61,96.46 393.12,97.68 394.58,98.89 C 396.03,100.10 397.43,101.30 398.77,102.49 C 400.12,103.68 401.40,104.87 402.63,106.04 C 403.86,107.21 405.04,108.38 406.16,109.53 C 407.27,110.69 408.35,111.89 409.34,112.97 C 410.34,114.05 411.28,115.06 412.15,116.01 C 413.02,116.95 413.83,117.83 414.57,118.65 C 415.31,119.46 415.99,120.21 416.61,120.89 C 417.23,121.57 417.78,122.19 418.27,122.73 C 418.75,123.28 419.18,123.76 419.54,124.18 C 419.90,124.60 420.20,124.94 420.43,125.23 C 420.66,125.51 420.83,125.73 420.94,125.88 C 421.04,126.02 421.04,126.03 421.06,126.12 C 421.08,126.22 421.08,126.33 421.05,126.45 C 421.02,126.58 420.97,126.71 420.89,126.86 C 420.82,127.01 420.72,127.17 420.59,127.34 C 420.47,127.52 420.33,127.71 420.16,127.91 C 419.99,128.11 419.79,128.32 419.58,128.55 C 419.36,128.77 419.12,129.01 418.86,129.27 C 418.60,129.52 418.31,129.78 418.00,130.06 C 417.69,130.34 417.30,130.65 417.00,130.94 C 416.70,131.22 416.42,131.51 416.17,131.78 C 415.92,132.06 415.71,132.33 415.52,132.59 C 415.33,132.86 415.16,133.12 415.03,133.38 C 414.90,133.63 414.79,133.88 414.72,134.12 C 414.64,134.37 414.60,134.61 414.58,134.84 C 414.56,135.08 414.57,135.31 414.61,135.53 C 414.65,135.76 414.72,135.97 414.81,136.19 C 414.91,136.40 415.06,136.61 415.19,136.81 C 415.32,137.02 415.45,137.22 415.59,137.41 C 415.72,137.61 415.86,137.80 416.01,137.99 C 416.15,138.18 416.30,138.37 416.45,138.55 C 416.61,138.73 416.76,138.90 416.92,139.08 C 417.08,139.25 417.25,139.42 417.41,139.59 C 417.58,139.75 417.75,139.91 417.93,140.07 C 418.11,140.23 418.29,140.38 418.47,140.53 C 418.65,140.68 418.83,140.85 419.03,140.97 C 419.23,141.09 419.43,141.19 419.65,141.27 C 419.86,141.35 420.09,141.41 420.32,141.45 C 420.55,141.48 420.80,141.49 421.05,141.48 C 421.30,141.48 421.56,141.44 421.83,141.39 C 422.10,141.34 422.38,141.26 422.66,141.16 C 422.95,141.07 423.25,140.95 423.55,140.80 C 423.86,140.66 424.18,140.50 424.50,140.31 C 424.82,140.13 425.15,139.82 425.50,139.69 C 425.85,139.56 426.23,139.50 426.62,139.52 C 427.01,139.55 427.42,139.64 427.85,139.82 C 428.28,140.00 428.73,140.25 429.20,140.58 C 429.67,140.91 430.16,141.31 430.67,141.80 C 431.18,142.28 431.71,142.84 432.26,143.48 C 432.81,144.11 433.37,144.83 433.96,145.62 C 434.55,146.41 435.15,147.27 435.78,148.22 C 436.41,149.16 437.08,150.25 437.72,151.28 C 438.36,152.31 438.98,153.36 439.60,154.41 C 440.22,155.47 440.83,156.54 441.43,157.62 C 442.03,158.70 442.62,159.79 443.20,160.89 C 443.79,161.99 444.36,163.11 444.92,164.23 C 445.49,165.36 446.04,166.50 446.59,167.65 C 447.13,168.80 447.67,169.96 448.20,171.13 C 448.72,172.31 449.24,173.49 449.75,174.69 C 450.26,175.88 450.76,177.09 451.25,178.31 C 451.74,179.54 452.22,180.78 452.69,182.03 C 453.16,183.29 453.61,184.56 454.06,185.84 C 454.51,187.13 454.95,188.43 455.38,189.75 C 455.80,191.07 456.22,192.40 456.62,193.75 C 457.03,195.10 457.43,196.46 457.81,197.84 C 458.20,199.22 458.57,200.62 458.94,202.03 C 459.30,203.44 459.66,204.87 460.00,206.31 C 460.34,207.76 460.70,209.30 461.00,210.69 C 461.30,212.08 461.58,213.40 461.83,214.66 C 462.08,215.91 462.29,217.10 462.48,218.22 C 462.67,219.34 462.84,220.39 462.97,221.38 C 463.10,222.36 463.21,223.28 463.28,224.12 C 463.36,224.97 463.40,225.76 463.42,226.47 C 463.44,227.18 463.43,227.83 463.39,228.41 C 463.35,228.98 463.28,229.49 463.19,229.94 C 463.09,230.38 462.93,230.60 462.81,231.06 C 462.70,231.52 462.59,232.06 462.48,232.69 C 462.38,233.31 462.29,234.02 462.20,234.81 C 462.12,235.60 462.04,236.48 461.97,237.44 C 461.90,238.40 461.84,239.44 461.78,240.56 C 461.73,241.69 461.68,242.90 461.64,244.19 C 461.60,245.48 461.57,246.85 461.55,248.31 C 461.52,249.77 461.51,251.31 461.50,252.94 C 461.49,254.56 461.49,256.43 461.50,258.06 C 461.51,259.69 461.52,261.24 461.55,262.70 C 461.57,264.17 461.60,265.55 461.64,266.86 C 461.68,268.16 461.73,269.39 461.78,270.53 C 461.84,271.67 461.90,272.74 461.97,273.72 C 462.04,274.70 462.12,275.60 462.20,276.42 C 462.29,277.24 462.38,277.98 462.48,278.64 C 462.59,279.30 462.70,279.88 462.81,280.38 C 462.93,280.87 463.09,281.15 463.19,281.62 C 463.28,282.10 463.35,282.65 463.39,283.25 C 463.43,283.85 463.44,284.52 463.42,285.25 C 463.40,285.98 463.36,286.77 463.28,287.62 C 463.21,288.48 463.10,289.40 462.97,290.38 C 462.84,291.35 462.67,292.40 462.48,293.50 C 462.29,294.60 462.08,295.77 461.83,297.00 C 461.58,298.23 461.30,299.52 461.00,300.88 C 460.70,302.23 460.33,303.75 460.00,305.12 C 459.67,306.50 459.34,307.84 459.02,309.14 C 458.69,310.44 458.37,311.70 458.05,312.92 C 457.73,314.14 457.41,315.33 457.09,316.47 C 456.78,317.61 456.47,318.72 456.16,319.78 C 455.85,320.85 455.54,321.87 455.23,322.86 C 454.93,323.85 454.63,324.79 454.33,325.70 C 454.03,326.61 453.73,327.48 453.44,328.31 C 453.14,329.14 452.88,329.86 452.56,330.69 C 452.24,331.51 451.89,332.37 451.52,333.27 C 451.14,334.16 450.73,335.09 450.30,336.05 C 449.86,337.01 449.40,338.00 448.91,339.03 C 448.41,340.06 447.89,341.12 447.34,342.22 C 446.79,343.32 446.22,344.45 445.61,345.61 C 445.00,346.77 444.37,347.97 443.70,349.20 C 443.04,350.43 442.35,351.70 441.62,353.00 C 440.90,354.30 440.09,355.75 439.38,357.00 C 438.66,358.25 437.99,359.43 437.35,360.52 C 436.71,361.62 436.12,362.63 435.55,363.57 C 434.99,364.51 434.47,365.36 433.98,366.14 C 433.50,366.92 433.05,367.62 432.64,368.23 C 432.23,368.85 431.86,369.39 431.52,369.85 C 431.19,370.31 430.89,370.69 430.63,370.99 C 430.37,371.29 430.15,371.51 429.97,371.66 C 429.79,371.80 429.69,371.80 429.53,371.84 C 429.37,371.89 429.20,371.91 429.02,371.91 C 428.84,371.92 428.65,371.90 428.45,371.87 C 428.24,371.83 428.02,371.78 427.80,371.70 C 427.57,371.63 427.33,371.54 427.08,371.42 C 426.83,371.31 426.56,371.18 426.29,371.02 C 426.01,370.87 425.73,370.70 425.43,370.51 C 425.13,370.32 424.82,370.11 424.50,369.88 C 424.18,369.64 423.83,369.34 423.50,369.12 C 423.17,368.91 422.85,368.73 422.52,368.59 C 422.20,368.44 421.88,368.33 421.57,368.26 C 421.26,368.18 420.95,368.14 420.64,368.14 C 420.33,368.14 420.03,368.17 419.73,368.23 C 419.44,368.30 419.14,368.40 418.85,368.54 C 418.56,368.68 418.27,368.85 417.99,369.05 C 417.71,369.26 417.43,369.50 417.16,369.78 C 416.88,370.06 416.58,370.41 416.34,370.72 C 416.11,371.03 415.92,371.34 415.76,371.65 C 415.60,371.96 415.48,372.26 415.40,372.57 C 415.32,372.88 415.27,373.18 415.27,373.48 C 415.26,373.79 415.29,374.09 415.36,374.39 C 415.43,374.69 415.54,374.99 415.68,375.29 C 415.82,375.59 416.01,375.88 416.23,376.18 C 416.45,376.48 416.70,376.77 417.00,377.06 C 417.30,377.36 417.69,377.65 418.00,377.94 C 418.31,378.22 418.60,378.51 418.86,378.78 C 419.12,379.06 419.36,379.33 419.58,379.59 C 419.79,379.86 419.99,380.12 420.16,380.38 C 420.33,380.63 420.47,380.88 420.59,381.12 C 420.72,381.37 420.82,381.61 420.89,381.84 C 420.97,382.08 421.02,382.31 421.05,382.53 C 421.08,382.76 421.08,382.97 421.06,383.19 C 421.04,383.40 420.99,383.60 420.94,383.81 C 420.89,384.02 420.83,384.23 420.77,384.44 C 420.70,384.65 420.63,384.85 420.55,385.06 C 420.47,385.27 420.38,385.48 420.28,385.69 C 420.18,385.90 420.08,386.10 419.97,386.31 C 419.86,386.52 419.74,386.73 419.61,386.94 C 419.48,387.15 419.35,387.35 419.20,387.56 C 419.06,387.77 418.91,387.98 418.75,388.19 C 418.59,388.40 418.46,388.56 418.25,388.81 C 418.04,389.06 417.79,389.36 417.49,389.70 C 417.20,390.03 416.86,390.41 416.48,390.84 C 416.10,391.26 415.67,391.73 415.20,392.23 C 414.74,392.74 414.23,393.30 413.67,393.89 C 413.12,394.49 412.52,395.12 411.88,395.80 C 411.24,396.49 410.56,397.21 409.84,397.98 C 409.11,398.74 408.34,399.55 407.53,400.41 C 406.72,401.26 405.81,402.22 404.97,403.09 C 404.13,403.96 403.30,404.81 402.49,405.63 C 401.68,406.45 400.88,407.25 400.10,408.02 C 399.32,408.80 398.55,409.54 397.80,410.27 C 397.04,410.99 396.30,411.69 395.58,412.36 C 394.85,413.03 394.14,413.68 393.45,414.30 C 392.75,414.93 392.07,415.53 391.40,416.10 C 390.73,416.68 390.08,417.23 389.44,417.75 C 388.80,418.27 388.23,418.73 387.56,419.25 C 386.89,419.77 386.17,420.31 385.41,420.88 C 384.64,421.44 383.83,422.02 382.97,422.62 C 382.11,423.23 381.20,423.85 380.25,424.50 C 379.30,425.15 378.30,425.81 377.25,426.50 C 376.20,427.19 375.11,427.90 373.97,428.62 C 372.83,429.35 371.64,430.10 370.41,430.88 C 369.17,431.65 367.89,432.44 366.56,433.25 C 365.23,434.06 363.75,434.97 362.44,435.75 C 361.12,436.53 359.87,437.26 358.67,437.94 C 357.48,438.61 356.34,439.24 355.27,439.81 C 354.19,440.39 353.17,440.91 352.22,441.38 C 351.26,441.84 350.37,442.26 349.53,442.62 C 348.70,442.99 347.92,443.30 347.20,443.56 C 346.49,443.82 345.83,444.03 345.23,444.19 C 344.64,444.34 344.10,444.45 343.62,444.50 C 343.15,444.55 342.84,444.48 342.38,444.50 C 341.91,444.52 341.40,444.57 340.84,444.64 C 340.29,444.71 339.68,444.80 339.03,444.92 C 338.38,445.04 337.68,445.18 336.94,445.34 C 336.19,445.51 335.40,445.70 334.56,445.91 C 333.72,446.12 332.84,446.35 331.91,446.61 C 330.97,446.87 329.99,447.15 328.97,447.45 C 327.94,447.76 326.87,448.09 325.75,448.44 C 324.63,448.79 323.37,449.20 322.25,449.56 C 321.13,449.92 320.07,450.27 319.05,450.59 C 318.03,450.92 317.06,451.23 316.14,451.53 C 315.22,451.83 314.35,452.11 313.53,452.38 C 312.71,452.64 311.94,452.89 311.22,453.12 C 310.50,453.36 309.83,453.58 309.20,453.78 C 308.58,453.98 308.01,454.17 307.48,454.34 C 306.96,454.52 306.49,454.67 306.06,454.81 C 305.64,454.95 305.31,455.05 304.94,455.19 C 304.57,455.32 304.20,455.46 303.83,455.61 C 303.46,455.76 303.10,455.91 302.73,456.08 C 302.37,456.24 302.01,456.41 301.66,456.59 C 301.30,456.77 300.95,456.96 300.59,457.16 C 300.24,457.35 299.89,457.55 299.55,457.77 C 299.20,457.98 298.86,458.20 298.52,458.42 C 298.17,458.65 297.84,458.88 297.50,459.12 C 297.16,459.37 296.91,459.63 296.50,459.88 C 296.09,460.12 295.60,460.35 295.03,460.58 C 294.46,460.80 293.82,461.02 293.09,461.23 C 292.37,461.45 291.57,461.65 290.69,461.84 C 289.81,462.04 288.85,462.23 287.81,462.41 C 286.78,462.59 285.66,462.76 284.47,462.92 C 283.28,463.09 282.01,463.24 280.66,463.39 C 279.31,463.54 277.88,463.68 276.38,463.81 C 274.87,463.95 273.16,464.07 271.62,464.19 C 270.09,464.30 268.59,464.41 267.14,464.50 C 265.69,464.59 264.28,464.68 262.92,464.75 C 261.56,464.82 260.24,464.89 258.97,464.94 C 257.70,464.99 256.47,465.03 255.28,465.06 C 254.10,465.09 252.96,465.11 251.86,465.12 C 250.76,465.14 249.71,465.14 248.70,465.12 C 247.70,465.11 246.73,465.09 245.81,465.06 Z" stroke="none" fill="currentColor" opacity="0.11" />
  <path d="M252.06,255.67L254.26,266.68 M256.30,250.61L244.81,252.81 M257.11,259.91L268.61,257.71 M256.30,250.61L244.98,252.81 M257.11,259.91L268.61,257.71 M258.19,288.96L258.19,276.46 M258.45,270.92L258.45,270.92 M257.95,270.41L257.95,270.41 M255.57,270.41L255.57,270.41 M255.07,270.92L255.07,270.92 M290.64,253.95L278.13,253.95 M272.59,253.69L272.59,253.69 M272.09,254.20L272.09,254.20 M272.09,256.58L272.09,256.58 M272.59,257.08L272.59,257.08 M184.76,241.60L183.51,255.08 M183.51,255.08L184.76,268.57 M184.76,241.60L188.46,228.57 M184.76,268.57L188.46,281.60 M188.46,228.57L194.50,216.45 M188.46,281.60L194.50,293.73 M194.50,293.73L202.67,304.54 M194.50,216.45L202.67,205.63 M212.68,196.51L224.19,189.38 M224.19,189.38L236.82,184.48 M236.82,184.48L250.14,182.00 M250.14,182.00L263.68,182.00 M263.68,182.00L277.00,184.48 M277.00,184.48L289.63,189.38 M289.63,189.38L301.15,196.51 M311.15,205.63L319.32,216.45 M319.32,216.45L325.35,228.57 M325.35,228.57L329.06,241.60 M329.06,241.60L330.31,255.08 M330.31,255.08L329.06,268.57 M329.06,268.57L325.35,281.60 M325.35,281.60L319.32,293.73 M319.32,293.73L311.15,304.54 M301.15,313.66L289.63,320.79 M289.63,320.79L277.00,325.68 M277.00,325.68L263.68,328.18 M263.68,328.18L250.14,328.18 M250.14,328.18L236.82,325.68 M236.82,325.68L224.19,320.79 M224.19,320.79L212.68,313.66 M242.90,308.97L256.91,311.20 M256.91,311.20L270.92,308.97 M270.92,308.97L283.06,302.23 M242.90,308.97L230.48,302.40 M230.48,302.40L242.90,308.35 M223.18,256.52L235.68,256.52 M241.22,256.78L241.22,256.78 M241.73,256.27L241.73,256.27 M241.73,253.89L241.73,253.89 M241.22,253.39L241.22,253.39 M255.62,221.51L255.62,234.01 M255.37,239.55L255.37,239.55 M255.87,240.05L255.87,240.05 M258.25,240.05L258.25,240.05 M258.75,239.55L258.75,239.55 M93.27,255.14L98.84,297.49 M99.80,297.24L94.26,255.14 M98.84,297.49L115.19,336.96 M99.80,297.24L116.05,336.46 M115.19,336.96L141.20,370.85 M116.05,336.46L141.90,370.15 M141.90,370.15L175.58,396.00 M141.20,370.85L175.09,396.86 M175.58,396.00L214.81,412.25 M175.09,396.86L214.55,413.21 M214.81,412.25L256.91,417.79 M214.55,413.21L256.91,418.78 M256.91,417.79L299.01,412.25 M256.91,418.78L299.26,413.21 M299.01,412.25L338.23,396.00 M299.26,413.21L338.73,396.86 M338.23,396.00L371.92,370.16 M338.73,396.86L372.62,370.85 M371.92,370.16L397.77,336.46 M372.62,370.85L398.63,336.96 M397.77,336.46L414.02,297.24 M398.63,336.96L414.97,297.49 M414.02,297.24L419.56,255.14 M414.97,297.49L420.55,255.14 M419.56,255.14L414.02,213.04 M420.55,255.14L414.97,212.79 M414.02,213.04L397.77,173.82 M414.97,212.79L398.63,173.32 M397.77,173.82L371.92,140.13 M398.63,173.32L372.62,139.43 M371.92,140.13L338.23,114.28 M372.62,139.43L338.73,113.42 M338.23,114.28L299.01,98.03 M338.73,113.42L299.26,97.08 M299.01,98.03L256.91,92.49 M299.26,97.08L256.91,91.50 M256.91,92.49L214.82,98.03 M256.91,91.50L214.55,97.08 M214.82,98.03L175.58,114.28 M214.55,97.08L175.09,113.42 M175.58,114.28L141.90,140.13 M175.09,113.42L141.20,139.43 M141.90,140.13L116.05,173.82 M141.20,139.43L115.19,173.32 M116.05,173.82L99.80,213.04 M99.80,213.04L94.26,255.14 M115.19,173.32L98.84,212.79 M98.84,212.79L93.27,255.14 M93.27,255.14L98.84,297.49 M99.80,297.24L94.26,255.14 M98.84,297.49L115.19,336.96 M99.80,297.24L116.05,336.46 M115.19,336.96L141.20,370.85 M116.05,336.46L141.90,370.15 M141.90,370.15L175.58,396.00 M141.20,370.85L175.09,396.86 M175.58,396.00L214.81,412.25 M175.09,396.86L214.55,413.21 M214.81,412.25L256.91,417.79 M214.55,413.21L256.91,418.78 M256.91,417.79L299.01,412.25 M256.91,418.78L299.26,413.21 M299.01,412.25L338.23,396.00 M299.26,413.21L338.73,396.86 M338.23,396.00L371.92,370.16 M338.73,396.86L372.62,370.85 M371.92,370.16L397.77,336.46 M372.62,370.85L398.63,336.96 M397.77,336.46L414.02,297.24 M398.63,336.96L414.97,297.49 M414.02,297.24L419.56,255.14 M414.97,297.49L420.55,255.14 M419.56,255.14L414.02,213.04 M420.55,255.14L414.97,212.79 M414.02,213.04L397.77,173.82 M414.97,212.79L398.63,173.32 M397.77,173.82L371.92,140.13 M398.63,173.32L372.62,139.43 M371.92,140.13L338.23,114.28 M372.62,139.43L338.73,113.42 M338.23,114.28L299.01,98.03 M338.73,113.42L299.26,97.08 M299.01,98.03L256.91,92.49 M299.26,97.08L256.91,91.50 M256.91,92.49L214.82,98.03 M256.91,91.50L214.55,97.08 M214.82,98.03L175.58,114.28 M214.55,97.08L175.09,113.42 M175.58,114.28L141.90,140.13 M175.09,113.42L141.20,139.43 M141.90,140.13L116.05,173.82 M141.20,139.43L115.19,173.32 M116.05,173.82L99.80,213.04 M99.80,213.04L94.26,255.14 M115.19,173.32L98.84,212.79 M98.84,212.79L93.27,255.14 M186.50,255.13L188.90,273.36 M186.50,255.13L188.90,273.36 M186.50,255.13L188.90,273.36 M58.46,255.13L65.20,306.42 M66.39,306.10L59.68,255.13 M65.20,306.42L85.00,354.21 M66.39,306.10L86.07,353.60 M85.00,354.21L116.50,395.25 M86.07,353.60L117.36,394.39 M117.36,394.39L158.15,425.68 M116.50,395.25L157.53,426.74 M158.15,425.68L205.64,445.36 M157.53,426.74L205.33,446.54 M205.64,445.36L256.62,452.06 M205.33,446.54L256.62,453.29 M256.62,452.06L307.58,445.36 M256.62,453.29L307.90,446.54 M307.58,445.36L355.08,425.68 M307.90,446.54L355.69,426.74 M355.08,425.68L395.87,394.39 M355.69,426.74L396.74,395.25 M395.87,394.39L427.17,353.60 M396.74,395.25L428.23,354.21 M427.17,353.60L446.84,306.10 M428.23,354.21L448.02,306.42 M446.84,306.10L453.55,255.13 M448.02,306.42L454.78,255.13 M453.55,255.13L446.84,204.16 M454.78,255.13L448.02,203.85 M446.84,204.16L427.17,156.66 M448.02,203.85L428.23,156.05 M427.17,156.66L395.87,115.88 M428.23,156.05L396.74,115.01 M395.87,115.88L355.08,84.58 M396.74,115.01L355.69,83.52 M355.08,84.58L307.59,64.91 M355.69,83.52L307.90,63.72 M307.59,64.91L256.62,58.19 M307.90,63.72L256.62,56.97 M256.62,58.19L205.64,64.91 M256.62,56.97L205.33,63.72 M205.64,64.91L158.15,84.58 M205.33,63.72L157.53,83.52 M158.15,84.58L117.36,115.88 M157.53,83.52L116.50,115.01 M117.36,115.88L86.07,156.66 M116.50,115.01L85.00,156.05 M86.07,156.66L66.39,204.16 M66.39,204.16L59.68,255.13 M85.00,156.05L65.21,203.85 M65.21,203.85L58.46,255.13 M58.46,255.13L65.20,306.42 M66.39,306.10L59.68,255.13 M65.20,306.42L85.00,354.21 M66.39,306.10L86.07,353.60 M85.00,354.21L116.50,395.25 M86.07,353.60L117.36,394.39 M117.36,394.39L158.15,425.68 M116.50,395.25L157.53,426.74 M158.15,425.68L205.64,445.36 M157.53,426.74L205.33,446.54 M205.64,445.36L256.62,452.06 M205.33,446.54L256.62,453.29 M256.62,452.06L307.58,445.36 M256.62,453.29L307.90,446.54 M307.58,445.36L355.08,425.68 M307.90,446.54L355.69,426.74 M355.08,425.68L395.87,394.39 M355.69,426.74L396.74,395.25 M395.87,394.39L427.17,353.60 M396.74,395.25L428.23,354.21 M427.17,353.60L446.84,306.10 M428.23,354.21L448.02,306.42 M446.84,306.10L453.55,255.13 M448.02,306.42L454.78,255.13 M453.55,255.13L446.84,204.16 M454.78,255.13L448.02,203.85 M446.84,204.16L427.17,156.66 M448.02,203.85L428.23,156.05 M427.17,156.66L395.87,115.88 M428.23,156.05L396.74,115.01 M395.87,115.88L355.08,84.58 M396.74,115.01L355.69,83.52 M355.08,84.58L307.59,64.91 M355.69,83.52L307.90,63.72 M307.59,64.91L256.62,58.19 M307.90,63.72L256.62,56.97 M256.62,58.19L205.64,64.91 M256.62,56.97L205.33,63.72 M205.64,64.91L158.15,84.58 M205.33,63.72L157.53,83.52 M158.15,84.58L117.36,115.88 M157.53,83.52L116.50,115.01 M117.36,115.88L86.07,156.66 M116.50,115.01L85.00,156.05 M86.07,156.66L66.39,204.16 M66.39,204.16L59.68,255.13 M85.00,156.05L65.21,203.85 M65.21,203.85L58.46,255.13 M135.21,255.13L139.36,286.63 M140.73,286.26L136.63,255.13 M139.36,286.63L151.52,315.98 M140.73,286.26L152.74,315.27 M151.52,315.98L170.86,341.18 M152.74,315.27L171.86,340.18 M171.86,340.18L196.77,359.30 M170.86,341.18L196.06,360.52 M196.77,359.30L225.78,371.31 M196.06,360.52L225.41,372.68 M225.78,371.31L256.91,375.41 M225.41,372.68L256.91,376.83 M256.91,375.41L288.04,371.31 M256.91,376.83L288.41,372.68 M288.04,371.31L317.05,359.30 M288.41,372.68L317.76,360.52 M317.05,359.30L341.96,340.18 M317.76,360.52L342.96,341.18 M341.96,340.18L361.08,315.27 M342.96,341.18L362.30,315.98 M361.08,315.27L373.09,286.26 M362.30,315.98L374.46,286.63 M373.09,286.26L377.19,255.13 M374.46,286.63L378.60,255.13 M377.19,255.13L373.09,224.00 M378.60,255.13L374.46,223.63 M373.09,224.00L361.08,194.99 M374.46,223.63L362.30,194.28 M361.08,194.99L341.96,170.08 M362.30,194.28L342.96,169.08 M341.96,170.08L317.05,150.97 M342.96,169.08L317.76,149.74 M317.05,150.97L288.04,138.95 M317.76,149.74L288.41,137.58 M288.04,138.95L256.91,134.85 M288.41,137.58L256.91,133.43 M256.91,134.85L225.78,138.95 M256.91,133.43L225.41,137.58 M225.78,138.95L196.77,150.97 M225.41,137.58L196.07,149.74 M196.77,150.97L171.86,170.08 M196.07,149.74L170.86,169.08 M171.86,170.08L152.74,194.99 M170.86,169.08L151.52,194.28 M152.74,194.99L140.73,224.00 M140.73,224.00L136.63,255.13 M151.52,194.28L139.36,223.63 M139.36,223.63L135.21,255.13 M150.55,255.13L154.17,282.66 M156.34,282.07L152.79,255.13 M154.17,282.66L164.80,308.31 M156.34,282.07L166.74,307.19 M164.80,308.31L181.70,330.34 M166.74,307.19L183.29,328.75 M183.29,328.75L204.86,345.30 M181.70,330.34L203.73,347.24 M204.86,345.30L229.96,355.70 M203.73,347.24L229.38,357.87 M229.96,355.70L256.91,359.25 M229.38,357.87L256.91,361.49 M256.91,359.25L283.86,355.70 M256.91,361.49L284.44,357.87 M283.86,355.70L308.96,345.30 M284.44,357.87L310.09,347.24 M308.96,345.30L330.53,328.75 M310.09,347.24L332.12,330.34 M330.53,328.75L347.08,307.19 M332.12,330.34L349.02,308.31 M347.08,307.19L357.48,282.08 M349.02,308.31L359.64,282.66 M357.48,282.08L361.02,255.13 M359.64,282.66L363.27,255.13 M361.02,255.13L357.48,228.18 M363.27,255.13L359.64,227.60 M357.48,228.18L347.08,203.08 M359.64,227.60L349.02,201.95 M347.08,203.08L330.53,181.51 M349.02,201.95L332.12,179.92 M330.53,181.51L308.97,164.96 M332.12,179.92L310.09,163.02 M308.97,164.96L283.86,154.56 M310.09,163.02L284.44,152.39 M283.86,154.56L256.91,151.02 M284.44,152.39L256.91,148.77 M256.91,151.02L229.97,154.56 M256.91,148.77L229.38,152.39 M229.97,154.56L204.86,164.96 M229.38,152.39L203.73,163.02 M204.86,164.96L183.29,181.51 M203.73,163.02L181.70,179.92 M183.29,181.51L166.74,203.07 M181.70,179.92L164.80,201.95 M166.74,203.07L156.34,228.18 M156.34,228.18L152.79,255.13 M164.80,201.95L154.17,227.60 M154.17,227.60L150.55,255.13 M135.21,255.13L139.36,286.63 M140.73,286.26L136.63,255.13 M139.36,286.63L151.52,315.98 M140.73,286.26L152.74,315.27 M151.52,315.98L170.86,341.18 M152.74,315.27L171.86,340.18 M171.86,340.18L196.77,359.30 M170.86,341.18L196.06,360.52 M196.77,359.30L225.78,371.31 M196.06,360.52L225.41,372.68 M225.78,371.31L256.91,375.41 M225.41,372.68L256.91,376.83 M256.91,375.41L288.04,371.31 M256.91,376.83L288.41,372.68 M288.04,371.31L317.05,359.30 M288.41,372.68L317.76,360.52 M317.05,359.30L341.96,340.18 M317.76,360.52L342.96,341.18 M341.96,340.18L361.08,315.27 M342.96,341.18L362.30,315.98 M361.08,315.27L373.09,286.26 M362.30,315.98L374.46,286.63 M373.09,286.26L377.19,255.13 M374.46,286.63L378.60,255.13 M377.19,255.13L373.09,224.00 M378.60,255.13L374.46,223.63 M373.09,224.00L361.08,194.99 M374.46,223.63L362.30,194.28 M361.08,194.99L341.96,170.08 M362.30,194.28L342.96,169.08 M341.96,170.08L317.05,150.97 M342.96,169.08L317.76,149.74 M317.05,150.97L288.04,138.95 M317.76,149.74L288.41,137.58 M288.04,138.95L256.91,134.85 M288.41,137.58L256.91,133.43 M256.91,134.85L225.78,138.95 M256.91,133.43L225.41,137.58 M225.78,138.95L196.77,150.97 M225.41,137.58L196.07,149.74 M196.77,150.97L171.86,170.08 M196.07,149.74L170.86,169.08 M171.86,170.08L152.74,194.99 M170.86,169.08L151.52,194.28 M152.74,194.99L140.73,224.00 M140.73,224.00L136.63,255.13 M151.52,194.28L139.36,223.63 M139.36,223.63L135.21,255.13" stroke="currentColor" stroke-width="0.6" stroke-linecap="round" fill="none" opacity="0.55" clip-path="url(#hull-clip)" filter="url(#glow)" />
  <path d="M 245.81,465.06 C 244.89,465.03 244.10,464.99 243.19,464.94 C 242.28,464.88 241.34,464.81 240.36,464.72 C 239.38,464.63 238.37,464.53 237.33,464.41 C 236.28,464.29 235.21,464.15 234.09,464.00 C 232.98,463.85 231.84,463.68 230.66,463.50 C 229.48,463.32 228.26,463.12 227.02,462.91 C 225.77,462.69 224.49,462.46 223.17,462.22 C 221.86,461.97 220.51,461.71 219.12,461.44 C 217.74,461.16 216.21,460.85 214.88,460.56 C 213.54,460.28 212.30,460.01 211.13,459.74 C 209.97,459.48 208.89,459.22 207.90,458.98 C 206.90,458.73 206.00,458.49 205.17,458.27 C 204.35,458.04 203.61,457.82 202.95,457.61 C 202.30,457.40 201.73,457.20 201.24,457.01 C 200.76,456.82 200.36,456.63 200.04,456.46 C 199.72,456.29 199.49,456.12 199.34,455.97 C 199.20,455.81 199.21,455.69 199.16,455.53 C 199.10,455.37 199.05,455.20 199.01,455.01 C 198.96,454.82 198.93,454.62 198.90,454.40 C 198.87,454.18 198.85,453.95 198.83,453.70 C 198.81,453.46 198.80,453.20 198.80,452.92 C 198.79,452.65 198.80,452.36 198.80,452.05 C 198.81,451.75 198.83,451.43 198.85,451.10 C 198.87,450.77 198.90,450.42 198.94,450.06 C 198.97,449.70 199.05,449.30 199.06,448.94 C 199.08,448.58 199.07,448.23 199.04,447.90 C 199.01,447.57 198.95,447.25 198.87,446.95 C 198.79,446.64 198.68,446.35 198.55,446.08 C 198.42,445.80 198.26,445.54 198.08,445.30 C 197.90,445.05 197.69,444.82 197.46,444.60 C 197.23,444.38 196.98,444.18 196.70,443.99 C 196.42,443.80 196.11,443.63 195.78,443.47 C 195.45,443.31 195.06,443.14 194.72,443.03 C 194.38,442.92 194.04,442.84 193.72,442.80 C 193.40,442.75 193.08,442.74 192.78,442.77 C 192.48,442.79 192.19,442.85 191.91,442.94 C 191.62,443.03 191.35,443.15 191.09,443.31 C 190.83,443.47 190.58,443.66 190.34,443.89 C 190.10,444.12 189.88,444.38 189.66,444.67 C 189.44,444.97 189.23,445.29 189.03,445.66 C 188.83,446.02 188.65,446.47 188.47,446.84 C 188.28,447.22 188.10,447.57 187.92,447.91 C 187.74,448.24 187.57,448.55 187.39,448.84 C 187.22,449.14 187.04,449.41 186.88,449.66 C 186.71,449.91 186.54,450.14 186.38,450.34 C 186.21,450.55 186.05,450.74 185.89,450.91 C 185.73,451.07 185.58,451.22 185.42,451.34 C 185.27,451.47 185.12,451.57 184.97,451.66 C 184.82,451.74 184.76,451.83 184.53,451.84 C 184.31,451.86 184.00,451.83 183.62,451.76 C 183.23,451.68 182.77,451.56 182.23,451.40 C 181.68,451.23 181.06,451.02 180.36,450.77 C 179.66,450.51 178.88,450.21 178.02,449.86 C 177.15,449.51 176.21,449.12 175.20,448.68 C 174.18,448.24 173.08,447.76 171.90,447.23 C 170.72,446.70 169.46,446.12 168.12,445.50 C 166.79,444.88 165.24,444.15 163.88,443.50 C 162.51,442.85 161.19,442.21 159.92,441.59 C 158.65,440.97 157.43,440.37 156.27,439.78 C 155.10,439.19 153.98,438.62 152.91,438.06 C 151.84,437.51 150.82,436.96 149.84,436.44 C 148.87,435.91 147.95,435.40 147.08,434.91 C 146.21,434.41 145.38,433.93 144.61,433.47 C 143.84,433.01 143.11,432.56 142.44,432.12 C 141.76,431.69 141.22,431.33 140.56,430.88 C 139.91,430.42 139.22,429.94 138.50,429.42 C 137.78,428.90 137.03,428.35 136.25,427.77 C 135.47,427.18 134.66,426.56 133.81,425.91 C 132.97,425.25 132.09,424.57 131.19,423.84 C 130.28,423.12 129.34,422.37 128.38,421.58 C 127.41,420.79 126.41,419.97 125.38,419.11 C 124.34,418.25 123.28,417.36 122.19,416.44 C 121.09,415.51 119.88,414.49 118.81,413.56 C 117.74,412.63 116.73,411.73 115.77,410.85 C 114.82,409.98 113.92,409.13 113.07,408.30 C 112.23,407.48 111.44,406.69 110.70,405.92 C 109.97,405.15 109.29,404.42 108.67,403.70 C 108.05,402.99 107.49,402.31 106.98,401.65 C 106.47,400.99 106.01,400.36 105.62,399.76 C 105.22,399.15 104.88,398.58 104.59,398.03 C 104.31,397.48 104.18,397.04 103.91,396.47 C 103.63,395.90 103.32,395.29 102.96,394.63 C 102.60,393.98 102.20,393.27 101.76,392.52 C 101.31,391.77 100.83,390.98 100.30,390.14 C 99.77,389.30 99.19,388.42 98.58,387.48 C 97.96,386.55 97.30,385.58 96.60,384.55 C 95.90,383.53 95.15,382.46 94.37,381.35 C 93.58,380.24 92.75,379.08 91.88,377.88 C 91.00,376.67 90.00,375.31 89.12,374.12 C 88.25,372.94 87.40,371.82 86.60,370.76 C 85.80,369.70 85.03,368.70 84.30,367.77 C 83.58,366.84 82.89,365.98 82.23,365.17 C 81.58,364.37 80.97,363.63 80.39,362.95 C 79.81,362.28 79.27,361.67 78.77,361.12 C 78.27,360.57 77.81,360.08 77.38,359.66 C 76.96,359.24 76.57,358.89 76.22,358.59 C 75.87,358.30 75.58,358.13 75.28,357.91 C 74.98,357.68 74.70,357.46 74.42,357.23 C 74.15,357.01 73.89,356.79 73.64,356.58 C 73.39,356.36 73.16,356.15 72.94,355.94 C 72.72,355.73 72.51,355.52 72.31,355.31 C 72.12,355.11 71.93,354.90 71.77,354.70 C 71.60,354.50 71.44,354.30 71.30,354.11 C 71.15,353.91 71.02,353.72 70.91,353.53 C 70.79,353.34 70.73,353.25 70.59,352.97 C 70.45,352.69 70.28,352.31 70.07,351.84 C 69.86,351.36 69.62,350.80 69.34,350.13 C 69.06,349.47 68.74,348.71 68.39,347.86 C 68.04,347.01 67.65,346.06 67.23,345.02 C 66.81,343.97 66.36,342.83 65.87,341.60 C 65.38,340.37 64.85,339.04 64.29,337.62 C 63.73,336.19 63.13,334.68 62.50,333.06 C 61.87,331.45 61.14,329.62 60.50,327.94 C 59.86,326.26 59.24,324.61 58.66,322.98 C 58.07,321.36 57.51,319.77 56.97,318.20 C 56.43,316.64 55.92,315.10 55.44,313.59 C 54.95,312.09 54.49,310.61 54.06,309.16 C 53.63,307.71 53.22,306.28 52.84,304.89 C 52.46,303.50 52.11,302.13 51.78,300.80 C 51.45,299.46 51.15,298.15 50.88,296.88 C 50.60,295.60 50.36,294.30 50.12,293.12 C 49.89,291.95 49.68,290.84 49.48,289.80 C 49.29,288.76 49.11,287.79 48.95,286.89 C 48.79,285.99 48.65,285.16 48.53,284.41 C 48.41,283.65 48.30,282.96 48.22,282.34 C 48.13,281.73 48.07,281.18 48.02,280.70 C 47.97,280.23 47.93,279.82 47.92,279.48 C 47.91,279.15 47.91,278.88 47.94,278.69 C 47.96,278.49 48.03,278.46 48.06,278.31 C 48.10,278.17 48.12,278.00 48.14,277.81 C 48.16,277.62 48.17,277.42 48.17,277.19 C 48.17,276.96 48.17,276.71 48.16,276.44 C 48.14,276.17 48.12,275.88 48.09,275.56 C 48.07,275.25 48.03,274.92 47.98,274.56 C 47.94,274.21 47.89,273.83 47.83,273.44 C 47.77,273.04 47.70,272.62 47.62,272.19 C 47.55,271.75 47.45,271.25 47.38,270.81 C 47.30,270.37 47.24,269.95 47.20,269.54 C 47.15,269.13 47.11,268.74 47.09,268.37 C 47.06,267.99 47.05,267.64 47.05,267.30 C 47.05,266.96 47.06,266.63 47.08,266.33 C 47.10,266.02 47.13,265.73 47.18,265.46 C 47.23,265.19 47.28,264.93 47.35,264.70 C 47.42,264.46 47.50,264.24 47.59,264.03 C 47.69,263.83 47.79,263.65 47.91,263.47 C 48.03,263.29 48.16,263.12 48.31,262.97 C 48.46,262.81 48.63,262.67 48.81,262.53 C 48.99,262.40 49.19,262.27 49.41,262.16 C 49.62,262.04 49.85,261.94 50.09,261.84 C 50.34,261.75 50.60,261.67 50.88,261.59 C 51.15,261.52 51.44,261.46 51.75,261.41 C 52.06,261.35 52.38,261.31 52.72,261.28 C 53.06,261.25 53.45,261.26 53.78,261.22 C 54.11,261.17 54.42,261.10 54.71,261.01 C 55.00,260.91 55.26,260.79 55.51,260.65 C 55.75,260.50 55.97,260.33 56.17,260.14 C 56.37,259.95 56.55,259.73 56.70,259.48 C 56.86,259.24 56.99,258.97 57.10,258.68 C 57.21,258.39 57.30,258.07 57.37,257.73 C 57.43,257.38 57.48,257.02 57.50,256.62 C 57.52,256.23 57.50,255.77 57.50,255.38 C 57.50,254.98 57.49,254.61 57.48,254.26 C 57.46,253.91 57.45,253.58 57.43,253.27 C 57.41,252.97 57.39,252.68 57.36,252.42 C 57.33,252.16 57.30,251.92 57.27,251.70 C 57.23,251.49 57.19,251.29 57.15,251.12 C 57.11,250.94 57.06,250.79 57.01,250.66 C 56.96,250.54 56.90,250.43 56.84,250.34 C 56.79,250.26 56.73,250.21 56.66,250.16 C 56.58,250.10 56.49,250.04 56.38,249.99 C 56.28,249.94 56.16,249.89 56.02,249.85 C 55.89,249.81 55.74,249.77 55.58,249.73 C 55.42,249.70 55.24,249.67 55.05,249.64 C 54.86,249.61 54.65,249.59 54.43,249.57 C 54.21,249.55 53.98,249.54 53.73,249.52 C 53.48,249.51 53.21,249.50 52.94,249.50 C 52.66,249.50 52.34,249.51 52.06,249.50 C 51.78,249.49 51.51,249.46 51.26,249.41 C 51.00,249.37 50.76,249.31 50.52,249.24 C 50.29,249.17 50.07,249.08 49.86,248.98 C 49.65,248.88 49.45,248.77 49.27,248.64 C 49.08,248.51 48.90,248.37 48.74,248.21 C 48.58,248.05 48.43,247.88 48.29,247.70 C 48.15,247.51 48.02,247.31 47.91,247.09 C 47.79,246.88 47.68,246.69 47.59,246.41 C 47.50,246.13 47.43,245.80 47.37,245.41 C 47.31,245.03 47.26,244.60 47.23,244.12 C 47.19,243.63 47.18,243.10 47.17,242.52 C 47.17,241.93 47.18,241.30 47.20,240.61 C 47.23,239.92 47.27,239.19 47.32,238.40 C 47.37,237.61 47.44,236.77 47.52,235.88 C 47.61,234.99 47.70,234.05 47.81,233.06 C 47.92,232.07 48.05,230.99 48.19,229.94 C 48.33,228.88 48.48,227.82 48.64,226.73 C 48.80,225.65 48.98,224.56 49.17,223.45 C 49.36,222.35 49.57,221.23 49.78,220.09 C 50.00,218.96 50.23,217.82 50.47,216.66 C 50.71,215.50 50.97,214.33 51.23,213.14 C 51.50,211.96 51.78,210.76 52.08,209.55 C 52.37,208.34 52.68,207.11 53.00,205.88 C 53.32,204.64 53.65,203.38 54.00,202.12 C 54.35,200.87 54.71,199.62 55.08,198.36 C 55.45,197.10 55.84,195.84 56.23,194.58 C 56.63,193.32 57.04,192.05 57.47,190.78 C 57.89,189.51 58.33,188.24 58.78,186.97 C 59.23,185.70 59.70,184.42 60.17,183.14 C 60.65,181.86 61.14,180.58 61.64,179.30 C 62.14,178.01 62.66,176.73 63.19,175.44 C 63.72,174.15 64.28,172.80 64.81,171.56 C 65.35,170.33 65.88,169.14 66.41,168.02 C 66.93,166.89 67.45,165.82 67.97,164.80 C 68.48,163.78 68.99,162.82 69.50,161.91 C 70.01,161.00 70.51,160.14 71.00,159.34 C 71.49,158.54 71.98,157.80 72.47,157.11 C 72.95,156.42 73.43,155.78 73.91,155.20 C 74.38,154.62 74.85,154.10 75.31,153.62 C 75.78,153.15 76.21,152.83 76.69,152.38 C 77.17,151.92 77.67,151.42 78.19,150.88 C 78.71,150.33 79.25,149.75 79.81,149.12 C 80.38,148.50 80.96,147.83 81.56,147.12 C 82.17,146.42 82.79,145.67 83.44,144.88 C 84.08,144.08 84.75,143.25 85.44,142.38 C 86.12,141.50 86.83,140.58 87.56,139.62 C 88.29,138.67 89.04,137.67 89.81,136.62 C 90.58,135.58 91.43,134.42 92.19,133.38 C 92.94,132.33 93.65,131.33 94.33,130.36 C 95.00,129.39 95.64,128.47 96.23,127.58 C 96.83,126.69 97.39,125.84 97.91,125.03 C 98.42,124.22 98.90,123.45 99.34,122.72 C 99.78,121.99 100.18,121.29 100.55,120.64 C 100.91,119.99 101.23,119.37 101.52,118.80 C 101.80,118.22 102.04,117.68 102.25,117.19 C 102.46,116.69 102.48,116.33 102.75,115.81 C 103.02,115.29 103.40,114.70 103.88,114.05 C 104.37,113.40 104.95,112.69 105.65,111.91 C 106.34,111.14 107.14,110.30 108.05,109.39 C 108.95,108.49 109.96,107.52 111.08,106.48 C 112.19,105.45 113.42,104.36 114.74,103.20 C 116.07,102.04 117.50,100.81 119.04,99.52 C 120.58,98.24 122.22,96.88 123.97,95.47 C 125.72,94.05 127.74,92.45 129.53,91.03 C 131.32,89.62 133.05,88.26 134.71,86.98 C 136.37,85.69 137.97,84.46 139.51,83.30 C 141.04,82.14 142.51,81.05 143.92,80.02 C 145.33,78.98 146.67,78.01 147.95,77.11 C 149.23,76.20 150.45,75.36 151.60,74.59 C 152.75,73.81 153.84,73.10 154.87,72.45 C 155.89,71.80 156.85,71.21 157.75,70.69 C 158.65,70.17 159.43,69.76 160.25,69.31 C 161.07,68.87 161.89,68.43 162.69,68.02 C 163.49,67.60 164.28,67.19 165.06,66.80 C 165.84,66.40 166.61,66.02 167.38,65.66 C 168.14,65.29 168.89,64.93 169.62,64.59 C 170.36,64.25 171.09,63.92 171.81,63.61 C 172.53,63.29 173.24,62.99 173.94,62.70 C 174.64,62.41 175.32,62.14 176.00,61.88 C 176.68,61.61 177.37,61.35 178.00,61.12 C 178.63,60.90 179.23,60.69 179.79,60.51 C 180.35,60.32 180.88,60.16 181.37,60.02 C 181.86,59.88 182.31,59.77 182.73,59.67 C 183.15,59.58 183.54,59.50 183.89,59.45 C 184.24,59.40 184.56,59.37 184.84,59.37 C 185.12,59.36 185.36,59.38 185.57,59.41 C 185.78,59.45 185.95,59.51 186.09,59.59 C 186.23,59.68 186.31,59.80 186.41,59.91 C 186.51,60.02 186.60,60.13 186.70,60.26 C 186.79,60.38 186.88,60.51 186.96,60.65 C 187.05,60.79 187.13,60.93 187.20,61.08 C 187.28,61.23 187.35,61.38 187.42,61.55 C 187.49,61.71 187.56,61.88 187.62,62.05 C 187.68,62.23 187.74,62.41 187.79,62.60 C 187.84,62.79 187.89,62.99 187.94,63.19 C 187.98,63.39 188.01,63.61 188.06,63.81 C 188.11,64.01 188.17,64.20 188.23,64.38 C 188.29,64.56 188.36,64.74 188.43,64.90 C 188.50,65.06 188.58,65.21 188.67,65.36 C 188.76,65.50 188.85,65.64 188.95,65.77 C 189.05,65.89 189.16,66.01 189.27,66.12 C 189.39,66.23 189.51,66.32 189.63,66.41 C 189.76,66.50 189.89,66.58 190.03,66.66 C 190.17,66.73 190.31,66.79 190.47,66.84 C 190.62,66.89 190.79,66.93 190.97,66.95 C 191.15,66.98 191.33,66.99 191.53,66.98 C 191.73,66.98 191.94,66.97 192.16,66.94 C 192.38,66.91 192.60,66.87 192.84,66.81 C 193.08,66.76 193.33,66.69 193.59,66.61 C 193.85,66.53 194.12,66.43 194.41,66.33 C 194.69,66.22 194.98,66.10 195.28,65.97 C 195.58,65.84 195.93,65.69 196.22,65.53 C 196.51,65.38 196.77,65.21 197.01,65.04 C 197.25,64.87 197.46,64.68 197.65,64.49 C 197.84,64.30 198.00,64.10 198.14,63.89 C 198.28,63.68 198.39,63.46 198.48,63.23 C 198.57,63.01 198.64,62.77 198.68,62.52 C 198.72,62.28 198.74,62.02 198.73,61.76 C 198.72,61.49 198.68,61.22 198.62,60.94 C 198.57,60.65 198.45,60.35 198.38,60.06 C 198.30,59.78 198.24,59.51 198.18,59.24 C 198.12,58.98 198.08,58.72 198.04,58.48 C 198.00,58.23 197.97,57.99 197.95,57.77 C 197.93,57.54 197.92,57.32 197.92,57.11 C 197.92,56.90 197.93,56.70 197.95,56.51 C 197.96,56.32 197.99,56.13 198.02,55.96 C 198.06,55.79 198.10,55.62 198.16,55.47 C 198.21,55.31 198.20,55.19 198.34,55.03 C 198.49,54.88 198.72,54.71 199.04,54.54 C 199.36,54.37 199.76,54.18 200.24,53.99 C 200.73,53.80 201.30,53.60 201.95,53.39 C 202.61,53.18 203.35,52.96 204.17,52.73 C 205.00,52.51 205.90,52.27 206.90,52.02 C 207.89,51.78 208.97,51.52 210.13,51.26 C 211.30,50.99 212.54,50.72 213.88,50.44 C 215.21,50.15 216.76,49.84 218.12,49.56 C 219.49,49.29 220.79,49.03 222.05,48.80 C 223.30,48.56 224.50,48.34 225.64,48.14 C 226.78,47.94 227.87,47.76 228.91,47.59 C 229.94,47.43 230.92,47.28 231.84,47.16 C 232.77,47.03 233.64,46.92 234.45,46.83 C 235.27,46.74 236.03,46.66 236.73,46.61 C 237.44,46.55 238.09,46.52 238.69,46.50 C 239.28,46.48 239.77,46.50 240.31,46.50 C 240.85,46.50 241.40,46.49 241.94,46.48 C 242.48,46.48 243.02,46.47 243.56,46.45 C 244.10,46.44 244.65,46.42 245.19,46.41 C 245.73,46.39 246.27,46.37 246.81,46.34 C 247.35,46.32 247.90,46.29 248.44,46.27 C 248.98,46.24 249.52,46.21 250.06,46.17 C 250.60,46.14 251.15,46.10 251.69,46.06 C 252.23,46.02 252.72,45.97 253.31,45.94 C 253.91,45.91 254.56,45.89 255.27,45.88 C 255.97,45.86 256.73,45.86 257.55,45.88 C 258.36,45.89 259.23,45.91 260.16,45.94 C 261.08,45.97 262.06,46.01 263.09,46.06 C 264.13,46.11 265.22,46.18 266.36,46.25 C 267.50,46.32 268.70,46.41 269.95,46.50 C 271.21,46.59 272.51,46.70 273.88,46.81 C 275.24,46.93 276.78,47.05 278.12,47.19 C 279.47,47.32 280.76,47.46 281.97,47.61 C 283.18,47.76 284.33,47.91 285.41,48.08 C 286.48,48.24 287.49,48.41 288.44,48.59 C 289.38,48.77 290.26,48.96 291.06,49.16 C 291.87,49.35 292.61,49.55 293.28,49.77 C 293.95,49.98 294.56,50.20 295.09,50.42 C 295.63,50.65 296.10,50.88 296.50,51.12 C 296.90,51.37 297.14,51.62 297.50,51.88 C 297.86,52.12 298.24,52.38 298.66,52.62 C 299.07,52.88 299.51,53.12 299.97,53.38 C 300.43,53.62 300.92,53.88 301.44,54.12 C 301.95,54.38 302.49,54.62 303.06,54.88 C 303.63,55.12 304.22,55.38 304.84,55.62 C 305.46,55.88 306.11,56.12 306.78,56.38 C 307.45,56.62 308.15,56.88 308.88,57.12 C 309.60,57.38 310.37,57.62 311.12,57.88 C 311.88,58.12 312.63,58.38 313.39,58.62 C 314.15,58.88 314.91,59.12 315.67,59.38 C 316.43,59.62 317.20,59.88 317.97,60.12 C 318.74,60.38 319.51,60.62 320.28,60.88 C 321.05,61.12 321.83,61.38 322.61,61.62 C 323.39,61.88 324.17,62.12 324.95,62.38 C 325.74,62.62 326.52,62.88 327.31,63.12 C 328.10,63.38 328.92,63.64 329.69,63.88 C 330.46,64.11 331.20,64.33 331.92,64.53 C 332.64,64.73 333.34,64.92 334.02,65.09 C 334.69,65.27 335.34,65.42 335.97,65.56 C 336.60,65.70 337.20,65.83 337.78,65.94 C 338.36,66.05 338.92,66.14 339.45,66.22 C 339.99,66.30 340.50,66.36 340.98,66.41 C 341.47,66.45 341.93,66.48 342.38,66.50 C 342.82,66.52 343.11,66.42 343.62,66.50 C 344.14,66.58 344.75,66.74 345.45,66.98 C 346.16,67.23 346.96,67.55 347.86,67.95 C 348.76,68.36 349.75,68.84 350.84,69.41 C 351.93,69.97 353.12,70.62 354.41,71.34 C 355.69,72.07 357.07,72.88 358.55,73.77 C 360.02,74.65 361.60,75.62 363.27,76.67 C 364.93,77.72 366.70,78.85 368.56,80.06 C 370.42,81.27 372.54,82.65 374.44,83.94 C 376.34,85.22 378.19,86.49 379.98,87.76 C 381.77,89.02 383.50,90.28 385.18,91.52 C 386.86,92.77 388.48,94.01 390.05,95.23 C 391.61,96.46 393.12,97.68 394.58,98.89 C 396.03,100.10 397.43,101.30 398.77,102.49 C 400.12,103.68 401.40,104.87 402.63,106.04 C 403.86,107.21 405.04,108.38 406.16,109.53 C 407.27,110.69 408.35,111.89 409.34,112.97 C 410.34,114.05 411.28,115.06 412.15,116.01 C 413.02,116.95 413.83,117.83 414.57,118.65 C 415.31,119.46 415.99,120.21 416.61,120.89 C 417.23,121.57 417.78,122.19 418.27,122.73 C 418.75,123.28 419.18,123.76 419.54,124.18 C 419.90,124.60 420.20,124.94 420.43,125.23 C 420.66,125.51 420.83,125.73 420.94,125.88 C 421.04,126.02 421.04,126.03 421.06,126.12 C 421.08,126.22 421.08,126.33 421.05,126.45 C 421.02,126.58 420.97,126.71 420.89,126.86 C 420.82,127.01 420.72,127.17 420.59,127.34 C 420.47,127.52 420.33,127.71 420.16,127.91 C 419.99,128.11 419.79,128.32 419.58,128.55 C 419.36,128.77 419.12,129.01 418.86,129.27 C 418.60,129.52 418.31,129.78 418.00,130.06 C 417.69,130.34 417.30,130.65 417.00,130.94 C 416.70,131.22 416.42,131.51 416.17,131.78 C 415.92,132.06 415.71,132.33 415.52,132.59 C 415.33,132.86 415.16,133.12 415.03,133.38 C 414.90,133.63 414.79,133.88 414.72,134.12 C 414.64,134.37 414.60,134.61 414.58,134.84 C 414.56,135.08 414.57,135.31 414.61,135.53 C 414.65,135.76 414.72,135.97 414.81,136.19 C 414.91,136.40 415.06,136.61 415.19,136.81 C 415.32,137.02 415.45,137.22 415.59,137.41 C 415.72,137.61 415.86,137.80 416.01,137.99 C 416.15,138.18 416.30,138.37 416.45,138.55 C 416.61,138.73 416.76,138.90 416.92,139.08 C 417.08,139.25 417.25,139.42 417.41,139.59 C 417.58,139.75 417.75,139.91 417.93,140.07 C 418.11,140.23 418.29,140.38 418.47,140.53 C 418.65,140.68 418.83,140.85 419.03,140.97 C 419.23,141.09 419.43,141.19 419.65,141.27 C 419.86,141.35 420.09,141.41 420.32,141.45 C 420.55,141.48 420.80,141.49 421.05,141.48 C 421.30,141.48 421.56,141.44 421.83,141.39 C 422.10,141.34 422.38,141.26 422.66,141.16 C 422.95,141.07 423.25,140.95 423.55,140.80 C 423.86,140.66 424.18,140.50 424.50,140.31 C 424.82,140.13 425.15,139.82 425.50,139.69 C 425.85,139.56 426.23,139.50 426.62,139.52 C 427.01,139.55 427.42,139.64 427.85,139.82 C 428.28,140.00 428.73,140.25 429.20,140.58 C 429.67,140.91 430.16,141.31 430.67,141.80 C 431.18,142.28 431.71,142.84 432.26,143.48 C 432.81,144.11 433.37,144.83 433.96,145.62 C 434.55,146.41 435.15,147.27 435.78,148.22 C 436.41,149.16 437.08,150.25 437.72,151.28 C 438.36,152.31 438.98,153.36 439.60,154.41 C 440.22,155.47 440.83,156.54 441.43,157.62 C 442.03,158.70 442.62,159.79 443.20,160.89 C 443.79,161.99 444.36,163.11 444.92,164.23 C 445.49,165.36 446.04,166.50 446.59,167.65 C 447.13,168.80 447.67,169.96 448.20,171.13 C 448.72,172.31 449.24,173.49 449.75,174.69 C 450.26,175.88 450.76,177.09 451.25,178.31 C 451.74,179.54 452.22,180.78 452.69,182.03 C 453.16,183.29 453.61,184.56 454.06,185.84 C 454.51,187.13 454.95,188.43 455.38,189.75 C 455.80,191.07 456.22,192.40 456.62,193.75 C 457.03,195.10 457.43,196.46 457.81,197.84 C 458.20,199.22 458.57,200.62 458.94,202.03 C 459.30,203.44 459.66,204.87 460.00,206.31 C 460.34,207.76 460.70,209.30 461.00,210.69 C 461.30,212.08 461.58,213.40 461.83,214.66 C 462.08,215.91 462.29,217.10 462.48,218.22 C 462.67,219.34 462.84,220.39 462.97,221.38 C 463.10,222.36 463.21,223.28 463.28,224.12 C 463.36,224.97 463.40,225.76 463.42,226.47 C 463.44,227.18 463.43,227.83 463.39,228.41 C 463.35,228.98 463.28,229.49 463.19,229.94 C 463.09,230.38 462.93,230.60 462.81,231.06 C 462.70,231.52 462.59,232.06 462.48,232.69 C 462.38,233.31 462.29,234.02 462.20,234.81 C 462.12,235.60 462.04,236.48 461.97,237.44 C 461.90,238.40 461.84,239.44 461.78,240.56 C 461.73,241.69 461.68,242.90 461.64,244.19 C 461.60,245.48 461.57,246.85 461.55,248.31 C 461.52,249.77 461.51,251.31 461.50,252.94 C 461.49,254.56 461.49,256.43 461.50,258.06 C 461.51,259.69 461.52,261.24 461.55,262.70 C 461.57,264.17 461.60,265.55 461.64,266.86 C 461.68,268.16 461.73,269.39 461.78,270.53 C 461.84,271.67 461.90,272.74 461.97,273.72 C 462.04,274.70 462.12,275.60 462.20,276.42 C 462.29,277.24 462.38,277.98 462.48,278.64 C 462.59,279.30 462.70,279.88 462.81,280.38 C 462.93,280.87 463.09,281.15 463.19,281.62 C 463.28,282.10 463.35,282.65 463.39,283.25 C 463.43,283.85 463.44,284.52 463.42,285.25 C 463.40,285.98 463.36,286.77 463.28,287.62 C 463.21,288.48 463.10,289.40 462.97,290.38 C 462.84,291.35 462.67,292.40 462.48,293.50 C 462.29,294.60 462.08,295.77 461.83,297.00 C 461.58,298.23 461.30,299.52 461.00,300.88 C 460.70,302.23 460.33,303.75 460.00,305.12 C 459.67,306.50 459.34,307.84 459.02,309.14 C 458.69,310.44 458.37,311.70 458.05,312.92 C 457.73,314.14 457.41,315.33 457.09,316.47 C 456.78,317.61 456.47,318.72 456.16,319.78 C 455.85,320.85 455.54,321.87 455.23,322.86 C 454.93,323.85 454.63,324.79 454.33,325.70 C 454.03,326.61 453.73,327.48 453.44,328.31 C 453.14,329.14 452.88,329.86 452.56,330.69 C 452.24,331.51 451.89,332.37 451.52,333.27 C 451.14,334.16 450.73,335.09 450.30,336.05 C 449.86,337.01 449.40,338.00 448.91,339.03 C 448.41,340.06 447.89,341.12 447.34,342.22 C 446.79,343.32 446.22,344.45 445.61,345.61 C 445.00,346.77 444.37,347.97 443.70,349.20 C 443.04,350.43 442.35,351.70 441.62,353.00 C 440.90,354.30 440.09,355.75 439.38,357.00 C 438.66,358.25 437.99,359.43 437.35,360.52 C 436.71,361.62 436.12,362.63 435.55,363.57 C 434.99,364.51 434.47,365.36 433.98,366.14 C 433.50,366.92 433.05,367.62 432.64,368.23 C 432.23,368.85 431.86,369.39 431.52,369.85 C 431.19,370.31 430.89,370.69 430.63,370.99 C 430.37,371.29 430.15,371.51 429.97,371.66 C 429.79,371.80 429.69,371.80 429.53,371.84 C 429.37,371.89 429.20,371.91 429.02,371.91 C 428.84,371.92 428.65,371.90 428.45,371.87 C 428.24,371.83 428.02,371.78 427.80,371.70 C 427.57,371.63 427.33,371.54 427.08,371.42 C 426.83,371.31 426.56,371.18 426.29,371.02 C 426.01,370.87 425.73,370.70 425.43,370.51 C 425.13,370.32 424.82,370.11 424.50,369.88 C 424.18,369.64 423.83,369.34 423.50,369.12 C 423.17,368.91 422.85,368.73 422.52,368.59 C 422.20,368.44 421.88,368.33 421.57,368.26 C 421.26,368.18 420.95,368.14 420.64,368.14 C 420.33,368.14 420.03,368.17 419.73,368.23 C 419.44,368.30 419.14,368.40 418.85,368.54 C 418.56,368.68 418.27,368.85 417.99,369.05 C 417.71,369.26 417.43,369.50 417.16,369.78 C 416.88,370.06 416.58,370.41 416.34,370.72 C 416.11,371.03 415.92,371.34 415.76,371.65 C 415.60,371.96 415.48,372.26 415.40,372.57 C 415.32,372.88 415.27,373.18 415.27,373.48 C 415.26,373.79 415.29,374.09 415.36,374.39 C 415.43,374.69 415.54,374.99 415.68,375.29 C 415.82,375.59 416.01,375.88 416.23,376.18 C 416.45,376.48 416.70,376.77 417.00,377.06 C 417.30,377.36 417.69,377.65 418.00,377.94 C 418.31,378.22 418.60,378.51 418.86,378.78 C 419.12,379.06 419.36,379.33 419.58,379.59 C 419.79,379.86 419.99,380.12 420.16,380.38 C 420.33,380.63 420.47,380.88 420.59,381.12 C 420.72,381.37 420.82,381.61 420.89,381.84 C 420.97,382.08 421.02,382.31 421.05,382.53 C 421.08,382.76 421.08,382.97 421.06,383.19 C 421.04,383.40 420.99,383.60 420.94,383.81 C 420.89,384.02 420.83,384.23 420.77,384.44 C 420.70,384.65 420.63,384.85 420.55,385.06 C 420.47,385.27 420.38,385.48 420.28,385.69 C 420.18,385.90 420.08,386.10 419.97,386.31 C 419.86,386.52 419.74,386.73 419.61,386.94 C 419.48,387.15 419.35,387.35 419.20,387.56 C 419.06,387.77 418.91,387.98 418.75,388.19 C 418.59,388.40 418.46,388.56 418.25,388.81 C 418.04,389.06 417.79,389.36 417.49,389.70 C 417.20,390.03 416.86,390.41 416.48,390.84 C 416.10,391.26 415.67,391.73 415.20,392.23 C 414.74,392.74 414.23,393.30 413.67,393.89 C 413.12,394.49 412.52,395.12 411.88,395.80 C 411.24,396.49 410.56,397.21 409.84,397.98 C 409.11,398.74 408.34,399.55 407.53,400.41 C 406.72,401.26 405.81,402.22 404.97,403.09 C 404.13,403.96 403.30,404.81 402.49,405.63 C 401.68,406.45 400.88,407.25 400.10,408.02 C 399.32,408.80 398.55,409.54 397.80,410.27 C 397.04,410.99 396.30,411.69 395.58,412.36 C 394.85,413.03 394.14,413.68 393.45,414.30 C 392.75,414.93 392.07,415.53 391.40,416.10 C 390.73,416.68 390.08,417.23 389.44,417.75 C 388.80,418.27 388.23,418.73 387.56,419.25 C 386.89,419.77 386.17,420.31 385.41,420.88 C 384.64,421.44 383.83,422.02 382.97,422.62 C 382.11,423.23 381.20,423.85 380.25,424.50 C 379.30,425.15 378.30,425.81 377.25,426.50 C 376.20,427.19 375.11,427.90 373.97,428.62 C 372.83,429.35 371.64,430.10 370.41,430.88 C 369.17,431.65 367.89,432.44 366.56,433.25 C 365.23,434.06 363.75,434.97 362.44,435.75 C 361.12,436.53 359.87,437.26 358.67,437.94 C 357.48,438.61 356.34,439.24 355.27,439.81 C 354.19,440.39 353.17,440.91 352.22,441.38 C 351.26,441.84 350.37,442.26 349.53,442.62 C 348.70,442.99 347.92,443.30 347.20,443.56 C 346.49,443.82 345.83,444.03 345.23,444.19 C 344.64,444.34 344.10,444.45 343.62,444.50 C 343.15,444.55 342.84,444.48 342.38,444.50 C 341.91,444.52 341.40,444.57 340.84,444.64 C 340.29,444.71 339.68,444.80 339.03,444.92 C 338.38,445.04 337.68,445.18 336.94,445.34 C 336.19,445.51 335.40,445.70 334.56,445.91 C 333.72,446.12 332.84,446.35 331.91,446.61 C 330.97,446.87 329.99,447.15 328.97,447.45 C 327.94,447.76 326.87,448.09 325.75,448.44 C 324.63,448.79 323.37,449.20 322.25,449.56 C 321.13,449.92 320.07,450.27 319.05,450.59 C 318.03,450.92 317.06,451.23 316.14,451.53 C 315.22,451.83 314.35,452.11 313.53,452.38 C 312.71,452.64 311.94,452.89 311.22,453.12 C 310.50,453.36 309.83,453.58 309.20,453.78 C 308.58,453.98 308.01,454.17 307.48,454.34 C 306.96,454.52 306.49,454.67 306.06,454.81 C 305.64,454.95 305.31,455.05 304.94,455.19 C 304.57,455.32 304.20,455.46 303.83,455.61 C 303.46,455.76 303.10,455.91 302.73,456.08 C 302.37,456.24 302.01,456.41 301.66,456.59 C 301.30,456.77 300.95,456.96 300.59,457.16 C 300.24,457.35 299.89,457.55 299.55,457.77 C 299.20,457.98 298.86,458.20 298.52,458.42 C 298.17,458.65 297.84,458.88 297.50,459.12 C 297.16,459.37 296.91,459.63 296.50,459.88 C 296.09,460.12 295.60,460.35 295.03,460.58 C 294.46,460.80 293.82,461.02 293.09,461.23 C 292.37,461.45 291.57,461.65 290.69,461.84 C 289.81,462.04 288.85,462.23 287.81,462.41 C 286.78,462.59 285.66,462.76 284.47,462.92 C 283.28,463.09 282.01,463.24 280.66,463.39 C 279.31,463.54 277.88,463.68 276.38,463.81 C 274.87,463.95 273.16,464.07 271.62,464.19 C 270.09,464.30 268.59,464.41 267.14,464.50 C 265.69,464.59 264.28,464.68 262.92,464.75 C 261.56,464.82 260.24,464.89 258.97,464.94 C 257.70,464.99 256.47,465.03 255.28,465.06 C 254.10,465.09 252.96,465.11 251.86,465.12 C 250.76,465.14 249.71,465.14 248.70,465.12 C 247.70,465.11 246.73,465.09 245.81,465.06 Z" fill="none" stroke="currentColor" stroke-width="1.5" stroke-linejoin="round" stroke-linecap="round" filter="url(#glow)" />
</svg>