<svg xmlns="http://www.w3.org/2000/svg" width="512" height="512" viewBox="130.27 183.10 250.63 172.80" preserveAspectRatio="xMidYMid meet">
  <defs>
    <filter id="glow" x="-30%" y="-30%" width="160%" height="160%">
      <feGaussianBlur in="SourceGraphic" stdDeviation="2.4" result="blur" />
      <feMerge>
        <feMergeNode in="blur" />
        <feMergeNode in="SourceGraphic" />
      </feMerge>
    </filter>
    <clipPath id="hull-clip">
      <path d="M 337.50,341.50 C 335.93,341.51 334.11,341.53 332.50,341.50 C 330.89,341.47 329.33,341.41 327.83,341.31 C 326.33,341.22 324.88,341.09 323.48,340.94 C 322.09,340.78 320.75,340.59 319.47,340.38 C 318.18,340.16 316.96,339.91 315.78,339.62 C 314.61,339.34 313.49,339.03 312.42,338.69 C 311.36,338.34 310.35,337.97 309.39,337.56 C 308.43,337.16 307.53,336.72 306.69,336.25 C 305.84,335.78 305.06,335.23 304.31,334.75 C 303.57,334.27 302.86,333.81 302.20,333.38 C 301.54,332.94 300.93,332.52 300.36,332.12 C 299.79,331.73 299.26,331.35 298.78,331.00 C 298.30,330.65 297.86,330.31 297.47,330.00 C 297.08,329.69 296.73,329.40 296.42,329.12 C 296.12,328.85 295.86,328.60 295.64,328.38 C 295.42,328.15 295.25,327.94 295.12,327.75 C 295.00,327.56 294.97,327.40 294.88,327.25 C 294.78,327.10 294.68,326.96 294.58,326.83 C 294.47,326.70 294.36,326.59 294.23,326.48 C 294.11,326.38 293.98,326.29 293.84,326.22 C 293.71,326.14 293.56,326.08 293.41,326.03 C 293.25,325.98 293.09,325.95 292.92,325.92 C 292.75,325.90 292.58,325.89 292.39,325.89 C 292.21,325.89 292.01,325.91 291.81,325.94 C 291.61,325.97 291.38,326.03 291.19,326.06 C 290.99,326.10 290.81,326.13 290.63,326.15 C 290.46,326.17 290.30,326.19 290.15,326.20 C 290.00,326.20 289.86,326.21 289.73,326.20 C 289.61,326.20 289.49,326.19 289.39,326.17 C 289.29,326.15 289.20,326.13 289.12,326.10 C 289.04,326.07 288.97,326.04 288.91,325.99 C 288.86,325.95 288.81,325.90 288.78,325.84 C 288.75,325.79 288.73,325.72 288.72,325.66 C 288.71,325.59 288.71,325.52 288.73,325.45 C 288.74,325.37 288.77,325.29 288.80,325.21 C 288.84,325.13 288.89,325.04 288.95,324.95 C 289.01,324.86 289.09,324.77 289.17,324.67 C 289.26,324.57 289.35,324.47 289.46,324.37 C 289.57,324.26 289.69,324.15 289.82,324.04 C 289.95,323.93 290.10,323.81 290.25,323.69 C 290.40,323.57 290.60,323.44 290.75,323.31 C 290.90,323.19 291.03,323.06 291.15,322.93 C 291.26,322.80 291.36,322.67 291.45,322.54 C 291.53,322.41 291.59,322.27 291.64,322.14 C 291.69,322.01 291.72,321.87 291.73,321.73 C 291.75,321.60 291.75,321.46 291.73,321.32 C 291.71,321.18 291.67,321.04 291.62,320.90 C 291.56,320.76 291.49,320.61 291.41,320.47 C 291.32,320.32 291.33,320.17 291.09,320.03 C 290.86,319.89 290.50,319.77 290.01,319.65 C 289.52,319.53 288.90,319.42 288.15,319.32 C 287.40,319.22 286.52,319.13 285.52,319.05 C 284.51,318.96 283.37,318.89 282.11,318.83 C 280.85,318.76 279.45,318.71 277.93,318.66 C 276.41,318.62 274.76,318.58 272.98,318.55 C 271.20,318.53 269.29,318.51 267.25,318.50 C 265.21,318.49 262.78,318.48 260.75,318.50 C 258.72,318.52 256.82,318.57 255.05,318.65 C 253.29,318.72 251.66,318.82 250.16,318.95 C 248.67,319.07 247.31,319.22 246.08,319.39 C 244.85,319.56 243.76,319.76 242.80,319.98 C 241.84,320.21 241.01,320.45 240.32,320.73 C 239.63,321.00 239.07,321.30 238.65,321.62 C 238.23,321.94 237.94,322.29 237.78,322.66 C 237.63,323.03 237.74,323.47 237.72,323.84 C 237.69,324.22 237.66,324.58 237.62,324.92 C 237.59,325.26 237.55,325.59 237.50,325.89 C 237.45,326.20 237.40,326.48 237.34,326.75 C 237.29,327.02 237.22,327.27 237.16,327.50 C 237.09,327.73 237.02,327.95 236.94,328.14 C 236.86,328.34 236.78,328.51 236.69,328.67 C 236.60,328.83 236.51,328.97 236.41,329.09 C 236.31,329.22 236.22,329.29 236.09,329.41 C 235.97,329.52 235.82,329.65 235.65,329.79 C 235.48,329.93 235.29,330.08 235.07,330.24 C 234.86,330.40 234.62,330.58 234.36,330.77 C 234.10,330.95 233.82,331.15 233.52,331.36 C 233.21,331.57 232.89,331.79 232.54,332.02 C 232.19,332.26 231.82,332.50 231.43,332.76 C 231.04,333.01 230.62,333.28 230.19,333.56 C 229.75,333.84 229.27,334.15 228.81,334.44 C 228.35,334.72 227.90,335.00 227.44,335.27 C 226.98,335.53 226.52,335.79 226.06,336.05 C 225.60,336.30 225.15,336.54 224.69,336.78 C 224.23,337.02 223.77,337.25 223.31,337.47 C 222.85,337.69 222.40,337.90 221.94,338.11 C 221.48,338.32 221.02,338.51 220.56,338.70 C 220.10,338.89 219.65,339.08 219.19,339.25 C 218.73,339.42 218.35,339.59 217.81,339.75 C 217.28,339.91 216.67,340.05 215.98,340.19 C 215.30,340.32 214.54,340.45 213.70,340.56 C 212.87,340.68 211.96,340.78 210.97,340.88 C 209.98,340.97 208.92,341.05 207.78,341.12 C 206.64,341.20 205.43,341.26 204.14,341.31 C 202.85,341.36 201.49,341.41 200.05,341.44 C 198.61,341.47 197.09,341.49 195.50,341.50 C 193.91,341.51 192.07,341.51 190.50,341.50 C 188.93,341.49 187.46,341.48 186.08,341.47 C 184.70,341.45 183.42,341.43 182.23,341.41 C 181.05,341.38 179.96,341.35 178.97,341.31 C 177.98,341.28 177.08,341.23 176.28,341.19 C 175.48,341.14 174.78,341.09 174.17,341.03 C 173.57,340.97 173.05,340.91 172.64,340.84 C 172.23,340.78 171.91,340.70 171.69,340.62 C 171.47,340.55 171.43,340.49 171.31,340.38 C 171.19,340.26 171.07,340.11 170.96,339.93 C 170.85,339.75 170.74,339.54 170.63,339.29 C 170.53,339.04 170.43,338.76 170.33,338.45 C 170.23,338.14 170.14,337.80 170.05,337.42 C 169.96,337.05 169.87,336.64 169.79,336.20 C 169.71,335.75 169.63,335.28 169.55,334.77 C 169.48,334.27 169.41,333.73 169.34,333.16 C 169.28,332.58 169.21,331.92 169.16,331.34 C 169.10,330.77 169.05,330.22 169.01,329.70 C 168.96,329.17 168.93,328.68 168.90,328.21 C 168.87,327.74 168.85,327.30 168.83,326.89 C 168.81,326.48 168.80,326.09 168.80,325.73 C 168.79,325.38 168.80,325.05 168.80,324.74 C 168.81,324.44 168.83,324.16 168.85,323.91 C 168.87,323.67 168.90,323.44 168.94,323.25 C 168.97,323.06 169.01,322.92 169.06,322.75 C 169.12,322.58 169.18,322.42 169.27,322.25 C 169.35,322.08 169.44,321.92 169.55,321.75 C 169.65,321.58 169.77,321.42 169.91,321.25 C 170.04,321.08 170.18,320.92 170.34,320.75 C 170.50,320.58 170.67,320.42 170.86,320.25 C 171.04,320.08 171.24,319.92 171.45,319.75 C 171.66,319.58 171.89,319.42 172.12,319.25 C 172.36,319.08 172.64,318.92 172.88,318.75 C 173.11,318.58 173.33,318.41 173.53,318.23 C 173.73,318.06 173.92,317.88 174.09,317.70 C 174.27,317.52 174.42,317.34 174.56,317.16 C 174.70,316.97 174.83,316.78 174.94,316.59 C 175.05,316.40 175.14,316.21 175.22,316.02 C 175.30,315.82 175.36,315.62 175.41,315.42 C 175.45,315.22 175.48,315.02 175.50,314.81 C 175.52,314.61 175.53,314.38 175.50,314.19 C 175.47,313.99 175.42,313.81 175.34,313.63 C 175.25,313.46 175.14,313.30 175.01,313.15 C 174.87,313.00 174.71,312.86 174.52,312.73 C 174.32,312.61 174.11,312.49 173.86,312.39 C 173.61,312.29 173.34,312.20 173.04,312.12 C 172.74,312.04 172.41,311.97 172.05,311.91 C 171.70,311.86 171.32,311.81 170.91,311.78 C 170.50,311.75 170.01,311.76 169.59,311.72 C 169.18,311.68 168.80,311.63 168.44,311.56 C 168.08,311.49 167.74,311.41 167.44,311.31 C 167.13,311.21 166.85,311.10 166.59,310.97 C 166.34,310.84 166.11,310.69 165.91,310.53 C 165.70,310.37 165.53,310.19 165.38,310.00 C 165.22,309.81 165.10,309.60 165.00,309.38 C 164.90,309.15 164.83,308.91 164.78,308.66 C 164.73,308.40 164.77,308.11 164.72,307.84 C 164.67,307.58 164.60,307.33 164.50,307.08 C 164.40,306.83 164.28,306.59 164.12,306.36 C 163.97,306.13 163.80,305.90 163.59,305.69 C 163.39,305.47 163.16,305.26 162.91,305.06 C 162.65,304.86 162.37,304.67 162.06,304.48 C 161.76,304.30 161.42,304.12 161.06,303.95 C 160.70,303.78 160.32,303.62 159.91,303.47 C 159.49,303.32 159.01,303.18 158.59,303.03 C 158.17,302.89 157.77,302.74 157.39,302.59 C 157.01,302.45 156.64,302.30 156.30,302.16 C 155.95,302.01 155.62,301.86 155.31,301.72 C 155.00,301.57 154.71,301.43 154.44,301.28 C 154.16,301.14 153.91,300.99 153.67,300.84 C 153.43,300.70 153.22,300.55 153.02,300.41 C 152.82,300.26 152.63,300.11 152.47,299.97 C 152.30,299.82 152.17,299.70 152.03,299.53 C 151.89,299.36 151.75,299.17 151.62,298.96 C 151.48,298.75 151.35,298.51 151.23,298.26 C 151.10,298.00 150.98,297.72 150.86,297.42 C 150.74,297.12 150.63,296.80 150.52,296.45 C 150.40,296.11 150.30,295.74 150.20,295.35 C 150.09,294.96 149.99,294.55 149.90,294.12 C 149.80,293.68 149.71,293.23 149.62,292.75 C 149.54,292.27 149.47,291.72 149.38,291.25 C 149.28,290.78 149.18,290.34 149.08,289.92 C 148.97,289.51 148.86,289.12 148.73,288.77 C 148.61,288.41 148.48,288.08 148.34,287.78 C 148.21,287.48 148.06,287.21 147.91,286.97 C 147.75,286.73 147.59,286.51 147.42,286.33 C 147.25,286.14 147.08,285.99 146.89,285.86 C 146.71,285.73 146.51,285.63 146.31,285.56 C 146.11,285.49 145.87,285.48 145.69,285.44 C 145.50,285.39 145.35,285.35 145.21,285.30 C 145.08,285.26 144.97,285.21 144.88,285.16 C 144.80,285.12 144.74,285.07 144.70,285.02 C 144.67,284.96 144.66,284.91 144.67,284.86 C 144.69,284.81 144.73,284.75 144.79,284.70 C 144.85,284.64 144.94,284.58 145.05,284.52 C 145.17,284.46 145.31,284.40 145.47,284.34 C 145.63,284.28 145.85,284.23 146.03,284.16 C 146.21,284.09 146.38,284.01 146.55,283.92 C 146.71,283.84 146.87,283.74 147.02,283.64 C 147.16,283.54 147.30,283.43 147.44,283.31 C 147.57,283.20 147.70,283.07 147.81,282.94 C 147.93,282.80 148.04,282.66 148.14,282.52 C 148.24,282.37 148.34,282.21 148.42,282.05 C 148.51,281.88 148.59,281.71 148.66,281.53 C 148.73,281.35 148.79,281.20 148.84,280.97 C 148.90,280.74 148.96,280.47 149.01,280.16 C 149.06,279.86 149.11,279.51 149.15,279.12 C 149.19,278.73 149.23,278.30 149.27,277.83 C 149.30,277.36 149.33,276.85 149.36,276.30 C 149.39,275.75 149.41,275.15 149.43,274.52 C 149.45,273.89 149.46,273.22 149.48,272.51 C 149.49,271.80 149.50,271.04 149.50,270.25 C 149.50,269.46 149.50,268.54 149.50,267.75 C 149.50,266.96 149.49,266.22 149.48,265.52 C 149.48,264.82 149.47,264.16 149.45,263.55 C 149.44,262.93 149.42,262.37 149.41,261.84 C 149.39,261.32 149.37,260.84 149.34,260.41 C 149.32,259.97 149.29,259.58 149.27,259.23 C 149.24,258.89 149.21,258.59 149.17,258.33 C 149.14,258.07 149.10,257.86 149.06,257.69 C 149.02,257.52 148.99,257.43 148.94,257.31 C 148.89,257.19 148.83,257.07 148.77,256.95 C 148.70,256.84 148.63,256.72 148.55,256.61 C 148.47,256.50 148.38,256.39 148.28,256.28 C 148.18,256.17 148.08,256.07 147.97,255.97 C 147.86,255.87 147.74,255.77 147.61,255.67 C 147.48,255.58 147.35,255.48 147.20,255.39 C 147.06,255.30 146.91,255.21 146.75,255.12 C 146.59,255.04 146.40,254.96 146.25,254.88 C 146.10,254.79 145.98,254.72 145.88,254.64 C 145.77,254.57 145.69,254.49 145.62,254.42 C 145.56,254.35 145.52,254.28 145.50,254.22 C 145.48,254.15 145.48,254.09 145.50,254.03 C 145.52,253.97 145.56,253.91 145.62,253.86 C 145.69,253.80 145.77,253.75 145.88,253.70 C 145.98,253.65 146.10,253.61 146.25,253.56 C 146.40,253.52 146.59,253.51 146.75,253.44 C 146.91,253.36 147.07,253.26 147.22,253.12 C 147.37,252.99 147.52,252.82 147.66,252.62 C 147.80,252.43 147.93,252.20 148.06,251.94 C 148.19,251.68 148.32,251.39 148.44,251.06 C 148.56,250.74 148.67,250.39 148.78,250.00 C 148.89,249.61 148.99,249.20 149.09,248.75 C 149.19,248.30 149.29,247.82 149.38,247.31 C 149.46,246.80 149.54,246.20 149.62,245.69 C 149.71,245.17 149.81,244.68 149.91,244.21 C 150.02,243.74 150.13,243.30 150.24,242.88 C 150.36,242.46 150.48,242.07 150.61,241.70 C 150.74,241.33 150.87,240.99 151.02,240.67 C 151.16,240.35 151.31,240.06 151.46,239.79 C 151.62,239.52 151.78,239.27 151.95,239.05 C 152.11,238.83 152.29,238.64 152.47,238.47 C 152.65,238.30 152.84,238.17 153.03,238.03 C 153.23,237.89 153.43,237.76 153.63,237.63 C 153.84,237.51 154.05,237.39 154.27,237.27 C 154.49,237.16 154.72,237.05 154.95,236.95 C 155.19,236.85 155.43,236.76 155.67,236.67 C 155.92,236.58 156.17,236.50 156.43,236.43 C 156.69,236.36 156.95,236.29 157.23,236.23 C 157.50,236.17 157.78,236.11 158.06,236.06 C 158.35,236.01 158.66,235.98 158.94,235.94 C 159.22,235.89 159.49,235.84 159.74,235.79 C 160.00,235.74 160.24,235.68 160.48,235.62 C 160.71,235.56 160.93,235.49 161.14,235.42 C 161.35,235.35 161.55,235.28 161.73,235.20 C 161.92,235.13 162.10,235.05 162.26,234.96 C 162.42,234.88 162.57,234.79 162.71,234.70 C 162.85,234.60 162.98,234.51 163.09,234.41 C 163.21,234.31 163.31,234.21 163.41,234.09 C 163.51,233.98 163.60,233.85 163.69,233.72 C 163.78,233.58 163.86,233.44 163.94,233.28 C 164.02,233.12 164.09,232.96 164.16,232.78 C 164.22,232.60 164.29,232.42 164.34,232.22 C 164.40,232.02 164.45,231.81 164.50,231.59 C 164.55,231.38 164.59,231.15 164.62,230.91 C 164.66,230.67 164.69,230.42 164.72,230.16 C 164.74,229.90 164.74,229.60 164.78,229.34 C 164.82,229.09 164.89,228.86 164.98,228.65 C 165.06,228.44 165.17,228.24 165.30,228.07 C 165.44,227.90 165.59,227.74 165.77,227.61 C 165.94,227.48 166.14,227.36 166.36,227.27 C 166.58,227.17 166.82,227.10 167.09,227.04 C 167.35,226.98 167.64,226.95 167.95,226.93 C 168.25,226.91 168.58,226.92 168.94,226.94 C 169.29,226.96 169.71,227.03 170.06,227.06 C 170.42,227.10 170.75,227.13 171.07,227.15 C 171.39,227.17 171.68,227.19 171.96,227.20 C 172.24,227.20 172.50,227.21 172.73,227.20 C 172.97,227.20 173.19,227.19 173.39,227.17 C 173.59,227.15 173.77,227.13 173.93,227.10 C 174.09,227.07 174.23,227.04 174.35,226.99 C 174.47,226.95 174.57,226.90 174.66,226.84 C 174.74,226.79 174.79,226.73 174.84,226.66 C 174.90,226.59 174.96,226.51 175.01,226.43 C 175.06,226.35 175.11,226.26 175.15,226.16 C 175.19,226.07 175.23,225.97 175.27,225.86 C 175.30,225.75 175.33,225.64 175.36,225.52 C 175.39,225.39 175.41,225.27 175.43,225.13 C 175.45,225.00 175.46,224.86 175.48,224.71 C 175.49,224.56 175.50,224.41 175.50,224.25 C 175.50,224.09 175.52,223.92 175.50,223.75 C 175.48,223.58 175.45,223.42 175.41,223.25 C 175.36,223.08 175.30,222.92 175.22,222.75 C 175.14,222.58 175.05,222.42 174.94,222.25 C 174.83,222.08 174.70,221.92 174.56,221.75 C 174.42,221.58 174.27,221.42 174.09,221.25 C 173.92,221.08 173.73,220.92 173.53,220.75 C 173.33,220.58 173.11,220.42 172.88,220.25 C 172.64,220.08 172.36,219.92 172.12,219.75 C 171.89,219.58 171.66,219.39 171.45,219.20 C 171.24,219.01 171.04,218.82 170.86,218.61 C 170.67,218.40 170.50,218.19 170.34,217.97 C 170.18,217.75 170.04,217.52 169.91,217.28 C 169.77,217.04 169.65,216.80 169.55,216.55 C 169.44,216.29 169.35,216.03 169.27,215.77 C 169.18,215.50 169.12,215.22 169.06,214.94 C 169.01,214.65 168.98,214.35 168.94,214.06 C 168.90,213.77 168.85,213.49 168.81,213.20 C 168.77,212.92 168.73,212.64 168.69,212.36 C 168.65,212.08 168.60,211.80 168.56,211.53 C 168.52,211.26 168.48,210.99 168.44,210.72 C 168.40,210.45 168.35,210.18 168.31,209.92 C 168.27,209.66 168.23,209.40 168.19,209.14 C 168.15,208.88 168.10,208.63 168.06,208.38 C 168.02,208.12 167.96,207.88 167.94,207.62 C 167.91,207.37 167.90,207.11 167.90,206.85 C 167.90,206.59 167.92,206.32 167.95,206.05 C 167.98,205.79 168.02,205.51 168.08,205.23 C 168.14,204.96 168.21,204.68 168.30,204.39 C 168.38,204.11 168.49,203.82 168.60,203.52 C 168.72,203.23 168.85,202.93 168.99,202.63 C 169.14,202.33 169.30,202.03 169.47,201.72 C 169.64,201.41 169.75,201.07 170.03,200.78 C 170.32,200.49 170.70,200.21 171.18,199.96 C 171.66,199.71 172.24,199.47 172.91,199.26 C 173.59,199.04 174.36,198.85 175.23,198.67 C 176.11,198.50 177.07,198.34 178.14,198.20 C 179.21,198.07 180.37,197.95 181.63,197.85 C 182.89,197.75 184.25,197.68 185.71,197.62 C 187.17,197.56 188.72,197.52 190.38,197.50 C 192.03,197.48 193.93,197.47 195.62,197.50 C 197.32,197.53 198.97,197.59 200.56,197.67 C 202.16,197.76 203.70,197.87 205.19,198.02 C 206.68,198.16 208.11,198.33 209.50,198.53 C 210.89,198.73 212.22,198.96 213.50,199.22 C 214.78,199.48 216.01,199.76 217.19,200.08 C 218.36,200.39 219.49,200.74 220.56,201.11 C 221.64,201.48 222.66,201.88 223.62,202.31 C 224.59,202.74 225.51,203.25 226.38,203.69 C 227.24,204.13 228.06,204.55 228.82,204.96 C 229.58,205.37 230.30,205.76 230.96,206.13 C 231.62,206.51 232.24,206.86 232.80,207.20 C 233.36,207.54 233.87,207.87 234.33,208.17 C 234.79,208.48 235.20,208.77 235.55,209.04 C 235.91,209.31 236.22,209.57 236.48,209.80 C 236.73,210.04 236.94,210.26 237.09,210.47 C 237.25,210.67 237.31,210.84 237.41,211.03 C 237.50,211.22 237.59,211.42 237.66,211.62 C 237.74,211.82 237.81,212.02 237.87,212.23 C 237.93,212.43 237.98,212.64 238.02,212.86 C 238.06,213.07 238.09,213.29 238.11,213.52 C 238.13,213.74 238.14,213.96 238.15,214.20 C 238.15,214.43 238.15,214.66 238.13,214.90 C 238.12,215.14 238.10,215.38 238.06,215.62 C 238.03,215.87 237.97,216.14 237.94,216.38 C 237.90,216.61 237.87,216.84 237.85,217.05 C 237.83,217.27 237.81,217.47 237.80,217.66 C 237.80,217.86 237.79,218.04 237.80,218.20 C 237.80,218.37 237.81,218.53 237.83,218.67 C 237.85,218.82 237.87,218.95 237.90,219.07 C 237.93,219.19 237.96,219.30 238.01,219.40 C 238.05,219.50 238.10,219.58 238.16,219.66 C 238.21,219.73 238.15,219.79 238.34,219.84 C 238.53,219.90 238.85,219.96 239.29,220.01 C 239.73,220.06 240.30,220.11 240.99,220.15 C 241.69,220.19 242.51,220.23 243.45,220.27 C 244.40,220.30 245.47,220.33 246.67,220.36 C 247.87,220.39 249.20,220.41 250.65,220.43 C 252.10,220.45 253.68,220.46 255.38,220.48 C 257.09,220.49 258.92,220.50 260.88,220.50 C 262.83,220.50 265.16,220.51 267.12,220.50 C 269.09,220.49 270.93,220.48 272.65,220.46 C 274.37,220.44 275.97,220.42 277.45,220.38 C 278.92,220.35 280.28,220.31 281.52,220.27 C 282.75,220.22 283.87,220.17 284.86,220.11 C 285.85,220.05 286.73,219.99 287.48,219.91 C 288.23,219.84 288.86,219.76 289.37,219.68 C 289.88,219.60 290.26,219.50 290.53,219.41 C 290.80,219.31 290.84,219.20 290.97,219.09 C 291.10,218.99 291.20,218.87 291.29,218.76 C 291.38,218.64 291.44,218.52 291.49,218.40 C 291.54,218.27 291.57,218.15 291.58,218.02 C 291.59,217.88 291.58,217.75 291.55,217.61 C 291.52,217.47 291.47,217.33 291.40,217.18 C 291.33,217.03 291.24,216.88 291.13,216.73 C 291.02,216.57 290.90,216.41 290.75,216.25 C 290.60,216.09 290.40,215.91 290.25,215.75 C 290.10,215.59 289.95,215.44 289.82,215.29 C 289.69,215.14 289.57,215.00 289.46,214.87 C 289.35,214.73 289.26,214.61 289.17,214.48 C 289.09,214.36 289.01,214.25 288.95,214.14 C 288.89,214.03 288.84,213.93 288.80,213.84 C 288.77,213.74 288.74,213.65 288.73,213.57 C 288.71,213.49 288.71,213.41 288.72,213.34 C 288.73,213.27 288.75,213.21 288.78,213.16 C 288.81,213.10 288.86,213.05 288.91,213.01 C 288.97,212.96 289.04,212.93 289.12,212.90 C 289.20,212.87 289.29,212.85 289.39,212.83 C 289.49,212.81 289.61,212.80 289.73,212.80 C 289.86,212.79 290.00,212.80 290.15,212.80 C 290.30,212.81 290.46,212.83 290.63,212.85 C 290.81,212.87 290.99,212.90 291.19,212.94 C 291.38,212.97 291.61,213.04 291.81,213.06 C 292.02,213.09 292.21,213.10 292.41,213.09 C 292.60,213.09 292.79,213.07 292.97,213.03 C 293.15,212.99 293.33,212.94 293.50,212.88 C 293.67,212.81 293.84,212.72 294.00,212.62 C 294.16,212.53 294.32,212.41 294.47,212.28 C 294.62,212.15 294.77,212.01 294.91,211.84 C 295.05,211.68 295.18,211.51 295.31,211.31 C 295.44,211.12 295.53,210.91 295.69,210.69 C 295.85,210.46 296.05,210.22 296.28,209.97 C 296.52,209.71 296.79,209.44 297.09,209.16 C 297.40,208.87 297.74,208.57 298.12,208.25 C 298.51,207.93 298.92,207.60 299.38,207.25 C 299.83,206.90 300.32,206.54 300.84,206.16 C 301.37,205.78 301.93,205.38 302.53,204.97 C 303.13,204.56 303.77,204.13 304.44,203.69 C 305.11,203.24 305.79,202.74 306.56,202.31 C 307.34,201.88 308.17,201.48 309.08,201.11 C 309.98,200.74 310.95,200.39 311.98,200.08 C 313.02,199.76 314.12,199.48 315.28,199.22 C 316.45,198.96 317.67,198.73 318.97,198.53 C 320.26,198.33 321.62,198.16 323.05,198.02 C 324.47,197.87 325.96,197.76 327.52,197.67 C 329.07,197.59 330.69,197.53 332.38,197.50 C 334.06,197.47 335.98,197.49 337.62,197.50 C 339.27,197.51 340.82,197.54 342.27,197.59 C 343.72,197.63 345.07,197.69 346.32,197.76 C 347.57,197.83 348.72,197.92 349.77,198.02 C 350.81,198.12 351.76,198.23 352.61,198.36 C 353.46,198.49 354.20,198.63 354.85,198.79 C 355.50,198.95 356.05,199.12 356.49,199.30 C 356.94,199.49 357.29,199.69 357.53,199.91 C 357.78,200.12 357.83,200.35 357.97,200.59 C 358.11,200.84 358.23,201.10 358.35,201.37 C 358.47,201.64 358.58,201.93 358.68,202.23 C 358.78,202.53 358.87,202.84 358.95,203.17 C 359.04,203.50 359.11,203.85 359.17,204.20 C 359.24,204.56 359.29,204.93 359.34,205.32 C 359.38,205.71 359.42,206.11 359.45,206.52 C 359.47,206.94 359.49,207.37 359.50,207.81 C 359.51,208.26 359.50,208.75 359.50,209.19 C 359.50,209.63 359.49,210.05 359.48,210.45 C 359.48,210.86 359.47,211.24 359.45,211.61 C 359.44,211.98 359.42,212.33 359.41,212.66 C 359.39,212.99 359.37,213.30 359.34,213.59 C 359.32,213.89 359.29,214.16 359.27,214.42 C 359.24,214.68 359.21,214.92 359.17,215.14 C 359.14,215.36 359.10,215.57 359.06,215.75 C 359.02,215.93 358.98,216.09 358.94,216.25 C 358.89,216.41 358.84,216.57 358.78,216.72 C 358.72,216.87 358.66,217.02 358.59,217.16 C 358.53,217.30 358.45,217.43 358.38,217.56 C 358.30,217.69 358.21,217.82 358.12,217.94 C 358.04,218.06 357.94,218.17 357.84,218.28 C 357.74,218.39 357.64,218.49 357.53,218.59 C 357.42,218.69 357.31,218.79 357.19,218.88 C 357.07,218.96 356.92,219.04 356.81,219.12 C 356.70,219.21 356.61,219.29 356.53,219.38 C 356.45,219.46 356.39,219.54 356.34,219.62 C 356.30,219.71 356.27,219.79 356.25,219.88 C 356.23,219.96 356.23,220.04 356.25,220.12 C 356.27,220.21 356.30,220.29 356.34,220.38 C 356.39,220.46 356.45,220.54 356.53,220.62 C 356.61,220.71 356.70,220.79 356.81,220.88 C 356.92,220.96 357.06,221.02 357.19,221.12 C 357.32,221.23 357.45,221.35 357.59,221.48 C 357.73,221.62 357.88,221.78 358.03,221.95 C 358.18,222.13 358.34,222.32 358.50,222.53 C 358.66,222.74 358.83,222.97 359.00,223.22 C 359.17,223.47 359.35,223.73 359.53,224.02 C 359.71,224.30 359.90,224.60 360.09,224.92 C 360.29,225.24 360.48,225.58 360.69,225.94 C 360.89,226.29 361.12,226.70 361.31,227.06 C 361.51,227.43 361.68,227.78 361.84,228.12 C 362.01,228.47 362.15,228.80 362.28,229.12 C 362.41,229.45 362.53,229.76 362.62,230.06 C 362.72,230.36 362.81,230.66 362.88,230.94 C 362.94,231.22 362.99,231.49 363.03,231.75 C 363.07,232.01 363.09,232.26 363.09,232.50 C 363.10,232.74 363.09,232.97 363.06,233.19 C 363.04,233.41 362.97,233.58 362.94,233.81 C 362.91,234.05 362.89,234.31 362.89,234.59 C 362.89,234.88 362.90,235.19 362.92,235.53 C 362.95,235.87 362.98,236.23 363.03,236.62 C 363.08,237.02 363.14,237.43 363.22,237.88 C 363.29,238.32 363.38,238.79 363.48,239.28 C 363.59,239.78 363.70,240.30 363.83,240.84 C 363.96,241.39 364.10,241.96 364.25,242.56 C 364.40,243.16 364.59,243.76 364.75,244.44 C 364.91,245.12 365.05,245.86 365.19,246.66 C 365.32,247.45 365.45,248.31 365.56,249.22 C 365.68,250.13 365.78,251.10 365.88,252.12 C 365.97,253.15 366.05,254.23 366.12,255.38 C 366.20,256.52 366.26,257.71 366.31,258.97 C 366.36,260.22 366.41,261.54 366.44,262.91 C 366.47,264.28 366.49,265.70 366.50,267.19 C 366.51,268.67 366.51,270.33 366.50,271.81 C 366.49,273.30 366.47,274.72 366.44,276.09 C 366.41,277.46 366.36,278.78 366.31,280.03 C 366.26,281.29 366.20,282.48 366.12,283.62 C 366.05,284.77 365.97,285.85 365.88,286.88 C 365.78,287.90 365.68,288.87 365.56,289.78 C 365.45,290.69 365.32,291.55 365.19,292.34 C 365.05,293.14 364.91,293.88 364.75,294.56 C 364.59,295.24 364.40,295.84 364.25,296.44 C 364.10,297.03 363.96,297.60 363.84,298.14 C 363.72,298.68 363.62,299.19 363.53,299.67 C 363.44,300.15 363.37,300.61 363.31,301.03 C 363.26,301.46 363.21,301.85 363.19,302.22 C 363.16,302.59 363.15,302.92 363.16,303.23 C 363.16,303.54 363.18,303.83 363.22,304.08 C 363.26,304.33 363.31,304.55 363.38,304.75 C 363.44,304.95 363.57,305.07 363.62,305.25 C 363.68,305.43 363.71,305.64 363.70,305.86 C 363.70,306.08 363.67,306.32 363.61,306.58 C 363.55,306.84 363.46,307.11 363.34,307.41 C 363.23,307.70 363.08,308.01 362.91,308.34 C 362.73,308.67 362.53,309.02 362.30,309.39 C 362.07,309.76 361.80,310.14 361.52,310.55 C 361.23,310.95 360.91,311.37 360.56,311.81 C 360.22,312.25 359.78,312.74 359.44,313.19 C 359.10,313.63 358.79,314.07 358.52,314.48 C 358.24,314.90 358.00,315.31 357.80,315.70 C 357.59,316.10 357.42,316.48 357.28,316.84 C 357.14,317.21 357.04,317.57 356.97,317.91 C 356.90,318.25 356.86,318.58 356.86,318.89 C 356.86,319.21 356.89,319.51 356.95,319.80 C 357.02,320.09 357.12,320.36 357.25,320.62 C 357.38,320.89 357.59,321.11 357.75,321.38 C 357.91,321.64 358.05,321.92 358.19,322.22 C 358.32,322.52 358.45,322.83 358.56,323.16 C 358.68,323.48 358.78,323.83 358.88,324.19 C 358.97,324.55 359.05,324.92 359.12,325.31 C 359.20,325.70 359.26,326.11 359.31,326.53 C 359.36,326.95 359.41,327.39 359.44,327.84 C 359.47,328.30 359.49,328.77 359.50,329.25 C 359.51,329.73 359.51,330.27 359.50,330.75 C 359.49,331.23 359.46,331.70 359.43,332.15 C 359.39,332.60 359.35,333.03 359.29,333.45 C 359.23,333.86 359.16,334.26 359.08,334.64 C 359.00,335.02 358.90,335.39 358.80,335.73 C 358.69,336.08 358.57,336.41 358.45,336.73 C 358.32,337.04 358.18,337.34 358.02,337.62 C 357.87,337.90 357.71,338.16 357.53,338.41 C 357.36,338.65 357.25,338.88 356.97,339.09 C 356.69,339.31 356.32,339.51 355.85,339.70 C 355.39,339.88 354.83,340.05 354.18,340.21 C 353.53,340.37 352.79,340.51 351.95,340.64 C 351.12,340.77 350.19,340.88 349.17,340.98 C 348.15,341.08 347.04,341.17 345.84,341.24 C 344.63,341.31 343.33,341.37 341.95,341.41 C 340.56,341.46 339.07,341.49 337.50,341.50 Z" />
    </clipPath>
  </defs>
  <path d="M 337.50,341.50 C 335.93,341.51 334.11,341.53 332.50,341.50 C 330.89,341.47 329.33,341.41 327.83,341.31 C 326.33,341.22 324.88,341.09 323.48,340.94 C 322.09,340.78 320.75,340.59 319.47,340.38 C 318.18,340.16 316.96,339.91 315.78,339.62 C 314.61,339.34 313.49,339.03 312.42,338.69 C 311.36,338.34 310.35,337.97 309.39,337.56 C 308.43,337.16 307.53,336.72 306.69,336.25 C 305.84,335.78 305.06,335.23 304.31,334.75 C 303.57,334.27 302.86,333.81 302.20,333.38 C 301.54,332.94 300.93,332.52 300.36,332.12 C 299.79,331.73 299.26,331.35 298.78,331.00 C 298.30,330.65 297.86,330.31 297.47,330.00 C 297.08,329.69 296.73,329.40 296.42,329.12 C 296.12,328.85 295.86,328.60 295.64,328.38 C 295.42,328.15 295.25,327.94 295.12,327.75 C 295.00,327.56 294.97,327.40 294.88,327.25 C 294.78,327.10 294.68,326.96 294.58,326.83 C 294.47,326.70 294.36,326.59 294.23,326.48 C 294.11,326.38 293.98,326.29 293.84,326.22 C 293.71,326.14 293.56,326.08 293.41,326.03 C 293.25,325.98 293.09,325.95 292.92,325.92 C 292.75,325.90 292.58,325.89 292.39,325.89 C 292.21,325.89 292.01,325.91 291.81,325.94 C 291.61,325.97 291.38,326.03 291.19,326.06 C 290.99,326.10 290.81,326.13 290.63,326.15 C 290.46,326.17 290.30,326.19 290.15,326.20 C 290.00,326.20 289.86,326.21 289.73,326.20 C 289.61,326.20 289.49,326.19 289.39,326.17 C 289.29,326.15 289.20,326.13 289.12,326.10 C 289.04,326.07 288.97,326.04 288.91,325.99 C 288.86,325.95 288.81,325.90 288.78,325.84 C 288.75,325.79 288.73,325.72 288.72,325.66 C 288.71,325.59 288.71,325.52 288.73,325.45 C 288.74,325.37 288.77,325.29 288.80,325.21 C 288.84,325.13 288.89,325.04 288.95,324.95 C 289.01,324.86 289.09,324.77 289.17,324.67 C 289.26,324.57 289.35,324.47 289.46,324.37 C 289.57,324.26 289.69,324.15 289.82,324.04 C 289.95,323.93 290.10,323.81 290.25,323.69 C 290.40,323.57 290.60,323.44 290.75,323.31 C 290.90,323.19 291.03,323.06 291.15,322.93 C 291.26,322.80 291.36,322.67 291.45,322.54 C 291.53,322.41 291.59,322.27 291.64,322.14 C 291.69,322.01 291.72,321.87 291.73,321.73 C 291.75,321.60 291.75,321.46 291.73,321.32 C 291.71,321.18 291.67,321.04 291.62,320.90 C 291.56,320.76 291.49,320.61 291.41,320.47 C 291.32,320.32 291.33,320.17 291.09,320.03 C 290.86,319.89 290.50,319.77 290.01,319.65 C 289.52,319.53 288.90,319.42 288.15,319.32 C 287.40,319.22 286.52,319.13 285.52,319.05 C 284.51,318.96 283.37,318.89 282.11,318.83 C 280.85,318.76 279.45,318.71 277.93,318.66 C 276.41,318.62 274.76,318.58 272.98,318.55 C 271.20,318.53 269.29,318.51 267.25,318.50 C 265.21,318.49 262.78,318.48 260.75,318.50 C 258.72,318.52 256.82,318.57 255.05,318.65 C 253.29,318.72 251.66,318.82 250.16,318.95 C 248.67,319.07 247.31,319.22 246.08,319.39 C 244.85,319.56 243.76,319.76 242.80,319.98 C 241.84,320.21 241.01,320.45 240.32,320.73 C 239.63,321.00 239.07,321.30 238.65,321.62 C 238.23,321.94 237.94,322.29 237.78,322.66 C 237.63,323.03 237.74,323.47 237.72,323.84 C 237.69,324.22 237.66,324.58 237.62,324.92 C 237.59,325.26 237.55,325.59 237.50,325.89 C 237.45,326.20 237.40,326.48 237.34,326.75 C 237.29,327.02 237.22,327.27 237.16,327.50 C 237.09,327.73 237.02,327.95 236.94,328.14 C 236.86,328.34 236.78,328.51 236.69,328.67 C 236.60,328.83 236.51,328.97 236.41,329.09 C 236.31,329.22 236.22,329.29 236.09,329.41 C 235.97,329.52 235.82,329.65 235.65,329.79 C 235.48,329.93 235.29,330.08 235.07,330.24 C 234.86,330.40 234.62,330.58 234.36,330.77 C 234.10,330.95 233.82,331.15 233.52,331.36 C 233.21,331.57 232.89,331.79 232.54,332.02 C 232.19,332.26 231.82,332.50 231.43,332.76 C 231.04,333.01 230.62,333.28 230.19,333.56 C 229.75,333.84 229.27,334.15 228.81,334.44 C 228.35,334.72 227.90,335.00 227.44,335.27 C 226.98,335.53 226.52,335.79 226.06,336.05 C 225.60,336.30 225.15,336.54 224.69,336.78 C 224.23,337.02 223.77,337.25 223.31,337.47 C 222.85,337.69 222.40,337.90 221.94,338.11 C 221.48,338.32 221.02,338.51 220.56,338.70 C 220.10,338.89 219.65,339.08 219.19,339.25 C 218.73,339.42 218.35,339.59 217.81,339.75 C 217.28,339.91 216.67,340.05 215.98,340.19 C 215.30,340.32 214.54,340.45 213.70,340.56 C 212.87,340.68 211.96,340.78 210.97,340.88 C 209.98,340.97 208.92,341.05 207.78,341.12 C 206.64,341.20 205.43,341.26 204.14,341.31 C 202.85,341.36 201.49,341.41 200.05,341.44 C 198.61,341.47 197.09,341.49 195.50,341.50 C 193.91,341.51 192.07,341.51 190.50,341.50 C 188.93,341.49 187.46,341.48 186.08,341.47 C 184.70,341.45 183.42,341.43 182.23,341.41 C 181.05,341.38 179.96,341.35 178.97,341.31 C 177.98,341.28 177.08,341.23 176.28,341.19 C 175.48,341.14 174.78,341.09 174.17,341.03 C 173.57,340.97 173.05,340.91 172.64,340.84 C 172.23,340.78 171.91,340.70 171.69,340.62 C 171.47,340.55 171.43,340.49 171.31,340.38 C 171.19,340.26 171.07,340.11 170.96,339.93 C 170.85,339.75 170.74,339.54 170.63,339.29 C 170.53,339.04 170.43,338.76 170.33,338.45 C 170.23,338.14 170.14,337.80 170.05,337.42 C 169.96,337.05 169.87,336.64 169.79,336.20 C 169.71,335.75 169.63,335.28 169.55,334.77 C 169.48,334.27 169.41,333.73 169.34,333.16 C 169.28,332.58 169.21,331.92 169.16,331.34 C 169.10,330.77 169.05,330.22 169.01,329.70 C 168.96,329.17 168.93,328.68 168.90,328.21 C 168.87,327.74 168.85,327.30 168.83,326.89 C 168.81,326.48 168.80,326.09 168.80,325.73 C 168.79,325.38 168.80,325.05 168.80,324.74 C 168.81,324.44 168.83,324.16 168.85,323.91 C 168.87,323.67 168.90,323.44 168.94,323.25 C 168.97,323.06 169.01,322.92 169.06,322.75 C 169.12,322.58 169.18,322.42 169.27,322.25 C 169.35,322.08 169.44,321.92 169.55,321.75 C 169.65,321.58 169.77,321.42 169.91,321.25 C 170.04,321.08 170.18,320.92 170.34,320.75 C 170.50,320.58 170.67,320.42 170.86,320.25 C 171.04,320.08 171.24,319.92 171.45,319.75 C 171.66,319.58 171.89,319.42 172.12,319.25 C 172.36,319.08 172.64,318.92 172.88,318.75 C 173.11,318.58 173.33,318.41 173.53,318.23 C 173.73,318.06 173.92,317.88 174.09,317.70 C 174.27,317.52 174.42,317.34 174.56,317.16 C 174.70,316.97 174.83,316.78 174.94,316.59 C 175.05,316.40 175.14,316.21 175.22,316.02 C 175.30,315.82 175.36,315.62 175.41,315.42 C 175.45,315.22 175.48,315.02 175.50,314.81 C 175.52,314.61 175.53,314.38 175.50,314.19 C 175.47,313.99 175.42,313.81 175.34,313.63 C 175.25,313.46 175.14,313.30 175.01,313.15 C 174.87,313.00 174.71,312.86 174.52,312.73 C 174.32,312.61 174.11,312.49 173.86,312.39 C 173.61,312.29 173.34,312.20 173.04,312.12 C 172.74,312.04 172.41,311.97 172.05,311.91 C 171.70,311.86 171.32,311.81 170.91,311.78 C 170.50,311.75 170.01,311.76 169.59,311.72 C 169.18,311.68 168.80,311.63 168.44,311.56 C 168.08,311.49 167.74,311.41 167.44,311.31 C 167.13,311.21 166.85,311.10 166.59,310.97 C 166.34,310.84 166.11,310.69 165.91,310.53 C 165.70,310.37 165.53,310.19 165.38,310.00 C 165.22,309.81 165.10,309.60 165.00,309.38 C 164.90,309.15 164.83,308.91 164.78,308.66 C 164.73,308.40 164.77,308.11 164.72,307.84 C 164.67,307.58 164.60,307.33 164.50,307.08 C 164.40,306.83 164.28,306.59 164.12,306.36 C 163.97,306.13 163.80,305.90 163.59,305.69 C 163.39,305.47 163.16,305.26 162.91,305.06 C 162.65,304.86 162.37,304.67 162.06,304.48 C 161.76,304.30 161.42,304.12 161.06,303.95 C 160.70,303.78 160.32,303.62 159.91,303.47 C 159.49,303.32 159.01,303.18 158.59,303.03 C 158.17,302.89 157.77,302.74 157.39,302.59 C 157.01,302.45 156.64,302.30 156.30,302.16 C 155.95,302.01 155.62,301.86 155.31,301.72 C 155.00,301.57 154.71,301.43 154.44,301.28 C 154.16,301.14 153.91,300.99 153.67,300.84 C 153.43,300.70 153.22,300.55 153.02,300.41 C 152.82,300.26 152.63,300.11 152.47,299.97 C 152.30,299.82 152.17,299.70 152.03,299.53 C 151.89,299.36 151.75,299.17 151.62,298.96 C 151.48,298.75 151.35,298.51 151.23,298.26 C 151.10,298.00 150.98,297.72 150.86,297.42 C 150.74,297.12 150.63,296.80 150.52,296.45 C 150.40,296.11 150.30,295.74 150.20,295.35 C 150.09,294.96 149.99,294.55 149.90,294.12 C 149.80,293.68 149.71,293.23 149.62,292.75 C 149.54,292.27 149.47,291.72 149.38,291.25 C 149.28,290.78 149.18,290.34 149.08,289.92 C 148.97,289.51 148.86,289.12 148.73,288.77 C 148.61,288.41 148.48,288.08 148.34,287.78 C 148.21,287.48 148.06,287.21 147.91,286.97 C 147.75,286.73 147.59,286.51 147.42,286.33 C 147.25,286.14 147.08,285.99 146.89,285.86 C 146.71,285.73 146.51,285.63 146.31,285.56 C 146.11,285.49 145.87,285.48 145.69,285.44 C 145.50,285.39 145.35,285.35 145.21,285.30 C 145.08,285.26 144.97,285.21 144.88,285.16 C 144.80,285.12 144.74,285.07 144.70,285.02 C 144.67,284.96 144.66,284.91 144.67,284.86 C 144.69,284.81 144.73,284.75 144.79,284.70 C 144.85,284.64 144.94,284.58 145.05,284.52 C 145.17,284.46 145.31,284.40 145.47,284.34 C 145.63,284.28 145.85,284.23 146.03,284.16 C 146.21,284.09 146.38,284.01 146.55,283.92 C 146.71,283.84 146.87,283.74 147.02,283.64 C 147.16,283.54 147.30,283.43 147.44,283.31 C 147.57,283.20 147.70,283.07 147.81,282.94 C 147.93,282.80 148.04,282.66 148.14,282.52 C 148.24,282.37 148.34,282.21 148.42,282.05 C 148.51,281.88 148.59,281.71 148.66,281.53 C 148.73,281.35 148.79,281.20 148.84,280.97 C 148.90,280.74 148.96,280.47 149.01,280.16 C 149.06,279.86 149.11,279.51 149.15,279.12 C 149.19,278.73 149.23,278.30 149.27,277.83 C 149.30,277.36 149.33,276.85 149.36,276.30 C 149.39,275.75 149.41,275.15 149.43,274.52 C 149.45,273.89 149.46,273.22 149.48,272.51 C 149.49,271.80 149.50,271.04 149.50,270.25 C 149.50,269.46 149.50,268.54 149.50,267.75 C 149.50,266.96 149.49,266.22 149.48,265.52 C 149.48,264.82 149.47,264.16 149.45,263.55 C 149.44,262.93 149.42,262.37 149.41,261.84 C 149.39,261.32 149.37,260.84 149.34,260.41 C 149.32,259.97 149.29,259.58 149.27,259.23 C 149.24,258.89 149.21,258.59 149.17,258.33 C 149.14,258.07 149.10,257.86 149.06,257.69 C 149.02,257.52 148.99,257.43 148.94,257.31 C 148.89,257.19 148.83,257.07 148.77,256.95 C 148.70,256.84 148.63,256.72 148.55,256.61 C 148.47,256.50 148.38,256.39 148.28,256.28 C 148.18,256.17 148.08,256.07 147.97,255.97 C 147.86,255.87 147.74,255.77 147.61,255.67 C 147.48,255.58 147.35,255.48 147.20,255.39 C 147.06,255.30 146.91,255.21 146.75,255.12 C 146.59,255.04 146.40,254.96 146.25,254.88 C 146.10,254.79 145.98,254.72 145.88,254.64 C 145.77,254.57 145.69,254.49 145.62,254.42 C 145.56,254.35 145.52,254.28 145.50,254.22 C 145.48,254.15 145.48,254.09 145.50,254.03 C 145.52,253.97 145.56,253.91 145.62,253.86 C 145.69,253.80 145.77,253.75 145.88,253.70 C 145.98,253.65 146.10,253.61 146.25,253.56 C 146.40,253.52 146.59,253.51 146.75,253.44 C 146.91,253.36 147.07,253.26 147.22,253.12 C 147.37,252.99 147.52,252.82 147.66,252.62 C 147.80,252.43 147.93,252.20 148.06,251.94 C 148.19,251.68 148.32,251.39 148.44,251.06 C 148.56,250.74 148.67,250.39 148.78,250.00 C 148.89,249.61 148.99,249.20 149.09,248.75 C 149.19,248.30 149.29,247.82 149.38,247.31 C 149.46,246.80 149.54,246.20 149.62,245.69 C 149.71,245.17 149.81,244.68 149.91,244.21 C 150.02,243.74 150.13,243.30 150.24,242.88 C 150.36,242.46 150.48,242.07 150.61,241.70 C 150.74,241.33 150.87,240.99 151.02,240.67 C 151.16,240.35 151.31,240.06 151.46,239.79 C 151.62,239.52 151.78,239.27 151.95,239.05 C 152.11,238.83 152.29,238.64 152.47,238.47 C 152.65,238.30 152.84,238.17 153.03,238.03 C 153.23,237.89 153.43,237.76 153.63,237.63 C 153.84,237.51 154.05,237.39 154.27,237.27 C 154.49,237.16 154.72,237.05 154.95,236.95 C 155.19,236.85 155.43,236.76 155.67,236.67 C 155.92,236.58 156.17,236.50 156.43,236.43 C 156.69,236.36 156.95,236.29 157.23,236.23 C 157.50,236.17 157.78,236.11 158.06,236.06 C 158.35,236.01 158.66,235.98 158.94,235.94 C 159.22,235.89 159.49,235.84 159.74,235.79 C 160.00,235.74 160.24,235.68 160.48,235.62 C 160.71,235.56 160.93,235.49 161.14,235.42 C 161.35,235.35 161.55,235.28 161.73,235.20 C 161.92,235.13 162.10,235.05 162.26,234.96 C 162.42,234.88 162.57,234.79 162.71,234.70 C 162.85,234.60 162.98,234.51 163.09,234.41 C 163.21,234.31 163.31,234.21 163.41,234.09 C 163.51,233.98 163.60,233.85 163.69,233.72 C 163.78,233.58 163.86,233.44 163.94,233.28 C 164.02,233.12 164.09,232.96 164.16,232.78 C 164.22,232.60 164.29,232.42 164.34,232.22 C 164.40,232.02 164.45,231.81 164.50,231.59 C 164.55,231.38 164.59,231.15 164.62,230.91 C 164.66,230.67 164.69,230.42 164.72,230.16 C 164.74,229.90 164.74,229.60 164.78,229.34 C 164.82,229.09 164.89,228.86 164.98,228.65 C 165.06,228.44 165.17,228.24 165.30,228.07 C 165.44,227.90 165.59,227.74 165.77,227.61 C 165.94,227.48 166.14,227.36 166.36,227.27 C 166.58,227.17 166.82,227.10 167.09,227.04 C 167.35,226.98 167.64,226.95 167.95,226.93 C 168.25,226.91 168.58,226.92 168.94,226.94 C 169.29,226.96 169.71,227.03 170.06,227.06 C 170.42,227.10 170.75,227.13 171.07,227.15 C 171.39,227.17 171.68,227.19 171.96,227.20 C 172.24,227.20 172.50,227.21 172.73,227.20 C 172.97,227.20 173.19,227.19 173.39,227.17 C 173.59,227.15 173.77,227.13 173.93,227.10 C 174.09,227.07 174.23,227.04 174.35,226.99 C 174.47,226.95 174.57,226.90 174.66,226.84 C 174.74,226.79 174.79,226.73 174.84,226.66 C 174.90,226.59 174.96,226.51 175.01,226.43 C 175.06,226.35 175.11,226.26 175.15,226.16 C 175.19,226.07 175.23,225.97 175.27,225.86 C 175.30,225.75 175.33,225.64 175.36,225.52 C 175.39,225.39 175.41,225.27 175.43,225.13 C 175.45,225.00 175.46,224.86 175.48,224.71 C 175.49,224.56 175.50,224.41 175.50,224.25 C 175.50,224.09 175.52,223.92 175.50,223.75 C 175.48,223.58 175.45,223.42 175.41,223.25 C 175.36,223.08 175.30,222.92 175.22,222.75 C 175.14,222.58 175.05,222.42 174.94,222.25 C 174.83,222.08 174.70,221.92 174.56,221.75 C 174.42,221.58 174.27,221.42 174.09,221.25 C 173.92,221.08 173.73,220.92 173.53,220.75 C 173.33,220.58 173.11,220.42 172.88,220.25 C 172.64,220.08 172.36,219.92 172.12,219.75 C 171.89,219.58 171.66,219.39 171.45,219.20 C 171.24,219.01 171.04,218.82 170.86,218.61 C 170.67,218.40 170.50,218.19 170.34,217.97 C 170.18,217.75 170.04,217.52 169.91,217.28 C 169.77,217.04 169.65,216.80 169.55,216.55 C 169.44,216.29 169.35,216.03 169.27,215.77 C 169.18,215.50 169.12,215.22 169.06,214.94 C 169.01,214.65 168.98,214.35 168.94,214.06 C 168.90,213.77 168.85,213.49 168.81,213.20 C 168.77,212.92 168.73,212.64 168.69,212.36 C 168.65,212.08 168.60,211.80 168.56,211.53 C 168.52,211.26 168.48,210.99 168.44,210.72 C 168.40,210.45 168.35,210.18 168.31,209.92 C 168.27,209.66 168.23,209.40 168.19,209.14 C 168.15,208.88 168.10,208.63 168.06,208.38 C 168.02,208.12 167.96,207.88 167.94,207.62 C 167.91,207.37 167.90,207.11 167.90,206.85 C 167.90,206.59 167.92,206.32 167.95,206.05 C 167.98,205.79 168.02,205.51 168.08,205.23 C 168.14,204.96 168.21,204.68 168.30,204.39 C 168.38,204.11 168.49,203.82 168.60,203.52 C 168.72,203.23 168.85,202.93 168.99,202.63 C 169.14,202.33 169.30,202.03 169.47,201.72 C 169.64,201.41 169.75,201.07 170.03,200.78 C 170.32,200.49 170.70,200.21 171.18,199.96 C 171.66,199.71 172.24,199.47 172.91,199.26 C 173.59,199.04 174.36,198.85 175.23,198.67 C 176.11,198.50 177.07,198.34 178.14,198.20 C 179.21,198.07 180.37,197.95 181.63,197.85 C 182.89,197.75 184.25,197.68 185.71,197.62 C 187.17,197.56 188.72,197.52 190.38,197.50 C 192.03,197.48 193.93,197.47 195.62,197.50 C 197.32,197.53 198.97,197.59 200.56,197.67 C 202.16,197.76 203.70,197.87 205.19,198.02 C 206.68,198.16 208.11,198.33 209.50,198.53 C 210.89,198.73 212.22,198.96 213.50,199.22 C 214.78,199.48 216.01,199.76 217.19,200.08 C 218.36,200.39 219.49,200.74 220.56,201.11 C 221.64,201.48 222.66,201.88 223.62,202.31 C 224.59,202.74 225.51,203.25 226.38,203.69 C 227.24,204.13 228.06,204.55 228.82,204.96 C 229.58,205.37 230.30,205.76 230.96,206.13 C 231.62,206.51 232.24,206.86 232.80,207.20 C 233.36,207.54 233.87,207.87 234.33,208.17 C 234.79,208.48 235.20,208.77 235.55,209.04 C 235.91,209.31 236.22,209.57 236.48,209.80 C 236.73,210.04 236.94,210.26 237.09,210.47 C 237.25,210.67 237.31,210.84 237.41,211.03 C 237.50,211.22 237.59,211.42 237.66,211.62 C 237.74,211.82 237.81,212.02 237.87,212.23 C 237.93,212.43 237.98,212.64 238.02,212.86 C 238.06,213.07 238.09,213.29 238.11,213.52 C 238.13,213.74 238.14,213.96 238.15,214.20 C 238.15,214.43 238.15,214.66 238.13,214.90 C 238.12,215.14 238.10,215.38 238.06,215.62 C 238.03,215.87 237.97,216.14 237.94,216.38 C 237.90,216.61 237.87,216.84 237.85,217.05 C 237.83,217.27 237.81,217.47 237.80,217.66 C 237.80,217.86 237.79,218.04 237.80,218.20 C 237.80,218.37 237.81,218.53 237.83,218.67 C 237.85,218.82 237.87,218.95 237.90,219.07 C 237.93,219.19 237.96,219.30 238.01,219.40 C 238.05,219.50 238.10,219.58 238.16,219.66 C 238.21,219.73 238.15,219.79 238.34,219.84 C 238.53,219.90 238.85,219.96 239.29,220.01 C 239.73,220.06 240.30,220.11 240.99,220.15 C 241.69,220.19 242.51,220.23 243.45,220.27 C 244.40,220.30 245.47,220.33 246.67,220.36 C 247.87,220.39 249.20,220.41 250.65,220.43 C 252.10,220.45 253.68,220.46 255.38,220.48 C 257.09,220.49 258.92,220.50 260.88,220.50 C 262.83,220.50 265.16,220.51 267.12,220.50 C 269.09,220.49 270.93,220.48 272.65,220.46 C 274.37,220.44 275.97,220.42 277.45,220.38 C 278.92,220.35 280.28,220.31 281.52,220.27 C 282.75,220.22 283.87,220.17 284.86,220.11 C 285.85,220.05 286.73,219.99 287.48,219.91 C 288.23,219.84 288.86,219.76 289.37,219.68 C 289.88,219.60 290.26,219.50 290.53,219.41 C 290.80,219.31 290.84,219.20 290.97,219.09 C 291.10,218.99 291.20,218.87 291.29,218.76 C 291.38,218.64 291.44,218.52 291.49,218.40 C 291.54,218.27 291.57,218.15 291.58,218.02 C 291.59,217.88 291.58,217.75 291.55,217.61 C 291.52,217.47 291.47,217.33 291.40,217.18 C 291.33,217.03 291.24,216.88 291.13,216.73 C 291.02,216.57 290.90,216.41 290.75,216.25 C 290.60,216.09 290.40,215.91 290.25,215.75 C 290.10,215.59 289.95,215.44 289.82,215.29 C 289.69,215.14 289.57,215.00 289.46,214.87 C 289.35,214.73 289.26,214.61 289.17,214.48 C 289.09,214.36 289.01,214.25 288.95,214.14 C 288.89,214.03 288.84,213.93 288.80,213.84 C 288.77,213.74 288.74,213.65 288.73,213.57 C 288.71,213.49 288.71,213.41 288.72,213.34 C 288.73,213.27 288.75,213.21 288.78,213.16 C 288.81,213.10 288.86,213.05 288.91,213.01 C 288.97,212.96 289.04,212.93 289.12,212.90 C 289.20,212.87 289.29,212.85 289.39,212.83 C 289.49,212.81 289.61,212.80 289.73,212.80 C 289.86,212.79 290.00,212.80 290.15,212.80 C 290.30,212.81 290.46,212.83 290.63,212.85 C 290.81,212.87 290.99,212.90 291.19,212.94 C 291.38,212.97 291.61,213.04 291.81,213.06 C 292.02,213.09 292.21,213.10 292.41,213.09 C 292.60,213.09 292.79,213.07 292.97,213.03 C 293.15,212.99 293.33,212.94 293.50,212.88 C 293.67,212.81 293.84,212.72 294.00,212.62 C 294.16,212.53 294.32,212.41 294.47,212.28 C 294.62,212.15 294.77,212.01 294.91,211.84 C 295.05,211.68 295.18,211.51 295.31,211.31 C 295.44,211.12 295.53,210.91 295.69,210.69 C 295.85,210.46 296.05,210.22 296.28,209.97 C 296.52,209.71 296.79,209.44 297.09,209.16 C 297.40,208.87 297.74,208.57 298.12,208.25 C 298.51,207.93 298.92,207.60 299.38,207.25 C 299.83,206.90 300.32,206.54 300.84,206.16 C 301.37,205.78 301.93,205.38 302.53,204.97 C 303.13,204.56 303.77,204.13 304.44,203.69 C 305.11,203.24 305.79,202.74 306.56,202.31 C 307.34,201.88 308.17,201.48 309.08,201.11 C 309.98,200.74 310.95,200.39 311.98,200.08 C 313.02,199.76 314.12,199.48 315.28,199.22 C 316.45,198.96 317.67,198.73 318.97,198.53 C 320.26,198.33 321.62,198.16 323.05,198.02 C 324.47,197.87 325.96,197.76 327.52,197.67 C 329.07,197.59 330.69,197.53 332.38,197.50 C 334.06,197.47 335.98,197.49 337.62,197.50 C 339.27,197.51 340.82,197.54 342.27,197.59 C 343.72,197.63 345.07,197.69 346.32,197.76 C 347.57,197.83 348.72,197.92 349.77,198.02 C 350.81,198.12 351.76,198.23 352.61,198.36 C 353.46,198.49 354.20,198.63 354.85,198.79 C 355.50,198.95 356.05,199.12 356.49,199.30 C 356.94,199.49 357.29,199.69 357.53,199.91 C 357.78,200.12 357.83,200.35 357.97,200.59 C 358.11,200.84 358.23,201.10 358.35,201.37 C 358.47,201.64 358.58,201.93 358.68,202.23 C 358.78,202.53 358.87,202.84 358.95,203.17 C 359.04,203.50 359.11,203.85 359.17,204.20 C 359.24,204.56 359.29,204.93 359.34,205.32 C 359.38,205.71 359.42,206.11 359.45,206.52 C 359.47,206.94 359.49,207.37 359.50,207.81 C 359.51,208.26 359.50,208.75 359.50,209.19 C 359.50,209.63 359.49,210.05 359.48,210.45 C 359.48,210.86 359.47,211.24 359.45,211.61 C 359.44,211.98 359.42,212.33 359.41,212.66 C 359.39,212.99 359.37,213.30 359.34,213.59 C 359.32,213.89 359.29,214.16 359.27,214.42 C 359.24,214.68 359.21,214.92 359.17,215.14 C 359.14,215.36 359.10,215.57 359.06,215.75 C 359.02,215.93 358.98,216.09 358.94,216.25 C 358.89,216.41 358.84,216.57 358.78,216.72 C 358.72,216.87 358.66,217.02 358.59,217.16 C 358.53,217.30 358.45,217.43 358.38,217.56 C 358.30,217.69 358.21,217.82 358.12,217.94 C 358.04,218.06 357.94,218.17 357.84,218.28 C 357.74,218.39 357.64,218.49 357.53,218.59 C 357.42,218.69 357.31,218.79 357.19,218.88 C 357.07,218.96 356.92,219.04 356.81,219.12 C 356.70,219.21 356.61,219.29 356.53,219.38 C 356.45,219.46 356.39,219.54 356.34,219.62 C 356.30,219.71 356.27,219.79 356.25,219.88 C 356.23,219.96 356.23,220.04 356.25,220.12 C 356.27,220.21 356.30,220.29 356.34,220.38 C 356.39,220.46 356.45,220.54 356.53,220.62 C 356.61,220.71 356.70,220.79 356.81,220.88 C 356.92,220.96 357.06,221.02 357.19,221.12 C 357.32,221.23 357.45,221.35 357.59,221.48 C 357.73,221.62 357.88,221.78 358.03,221.95 C 358.18,222.13 358.34,222.32 358.50,222.53 C 358.66,222.74 358.83,222.97 359.00,223.22 C 359.17,223.47 359.35,223.73 359.53,224.02 C 359.71,224.30 359.90,224.60 360.09,224.92 C 360.29,225.24 360.48,225.58 360.69,225.94 C 360.89,226.29 361.12,226.70 361.31,227.06 C 361.51,227.43 361.68,227.78 361.84,228.12 C 362.01,228.47 362.15,228.80 362.28,229.12 C 362.41,229.45 362.53,229.76 362.62,230.06 C 362.72,230.36 362.81,230.66 362.88,230.94 C 362.94,231.22 362.99,231.49 363.03,231.75 C 363.07,232.01 363.09,232.26 363.09,232.50 C 363.10,232.74 363.09,232.97 363.06,233.19 C 363.04,233.41 362.97,233.58 362.94,233.81 C 362.91,234.05 362.89,234.31 362.89,234.59 C 362.89,234.88 362.90,235.19 362.92,235.53 C 362.95,235.87 362.98,236.23 363.03,236.62 C 363.08,237.02 363.14,237.43 363.22,237.88 C 363.29,238.32 363.38,238.79 363.48,239.28 C 363.59,239.78 363.70,240.30 363.83,240.84 C 363.96,241.39 364.10,241.96 364.25,242.56 C 364.40,243.16 364.59,243.76 364.75,244.44 C 364.91,245.12 365.05,245.86 365.19,246.66 C 365.32,247.45 365.45,248.31 365.56,249.22 C 365.68,250.13 365.78,251.10 365.88,252.12 C 365.97,253.15 366.05,254.23 366.12,255.38 C 366.20,256.52 366.26,257.71 366.31,258.97 C 366.36,260.22 366.41,261.54 366.44,262.91 C 366.47,264.28 366.49,265.70 366.50,267.19 C 366.51,268.67 366.51,270.33 366.50,271.81 C 366.49,273.30 366.47,274.72 366.44,276.09 C 366.41,277.46 366.36,278.78 366.31,280.03 C 366.26,281.29 366.20,282.48 366.12,283.62 C 366.05,284.77 365.97,285.85 365.88,286.88 C 365.78,287.90 365.68,288.87 365.56,289.78 C 365.45,290.69 365.32,291.55 365.19,292.34 C 365.05,293.14 364.91,293.88 364.75,294.56 C 364.59,295.24 364.40,295.84 364.25,296.44 C 364.10,297.03 363.96,297.60 363.84,298.14 C 363.72,298.68 363.62,299.19 363.53,299.67 C 363.44,300.15 363.37,300.61 363.31,301.03 C 363.26,301.46 363.21,301.85 363.19,302.22 C 363.16,302.59 363.15,302.92 363.16,303.23 C 363.16,303.54 363.18,303.83 363.22,304.08 C 363.26,304.33 363.31,304.55 363.38,304.75 C 363.44,304.95 363.57,305.07 363.62,305.25 C 363.68,305.43 363.71,305.64 363.70,305.86 C 363.70,306.08 363.67,306.32 363.61,306.58 C 363.55,306.84 363.46,307.11 363.34,307.41 C 363.23,307.70 363.08,308.01 362.91,308.34 C 362.73,308.67 362.53,309.02 362.30,309.39 C 362.07,309.76 361.80,310.14 361.52,310.55 C 361.23,310.95 360.91,311.37 360.56,311.81 C 360.22,312.25 359.78,312.74 359.44,313.19 C 359.10,313.63 358.79,314.07 358.52,314.48 C 358.24,314.90 358.00,315.31 357.80,315.70 C 357.59,316.10 357.42,316.48 357.28,316.84 C 357.14,317.21 357.04,317.57 356.97,317.91 C 356.90,318.25 356.86,318.58 356.86,318.89 C 356.86,319.21 356.89,319.51 356.95,319.80 C 357.02,320.09 357.12,320.36 357.25,320.62 C 357.38,320.89 357.59,321.11 357.75,321.38 C 357.91,321.64 358.05,321.92 358.19,322.22 C 358.32,322.52 358.45,322.83 358.56,323.16 C 358.68,323.48 358.78,323.83 358.88,324.19 C 358.97,324.55 359.05,324.92 359.12,325.31 C 359.20,325.70 359.26,326.11 359.31,326.53 C 359.36,326.95 359.41,327.39 359.44,327.84 C 359.47,328.30 359.49,328.77 359.50,329.25 C 359.51,329.73 359.51,330.27 359.50,330.75 C 359.49,331.23 359.46,331.70 359.43,332.15 C 359.39,332.60 359.35,333.03 359.29,333.45 C 359.23,333.86 359.16,334.26 359.08,334.64 C 359.00,335.02 358.90,335.39 358.80,335.73 C 358.69,336.08 358.57,336.41 358.45,336.73 C 358.32,337.04 358.18,337.34 358.02,337.62 C 357.87,337.90 357.71,338.16 357.53,338.41 C 357.36,338.65 357.25,338.88 356.97,339.09 C 356.69,339.31 356.32,339.51 355.85,339.70 C 355.39,339.88 354.83,340.05 354.18,340.21 C 353.53,340.37 352.79,340.51 351.95,340.64 C 351.12,340.77 350.19,340.88 349.17,340.98 C 348.15,341.08 347.04,341.17 345.84,341.24 C 344.63,341.31 343.33,341.37 341.95,341.41 C 340.56,341.46 339.07,341.49 337.50,341.50 Z" stroke="none" fill="currentColor" opacity="0.11" />
  <path d="M335.98,321.28L336.02,292.69 M336.49,292.52L336.45,321.11 M335.04,321.28L335.08,292.69 M334.56,321.10L334.61,292.51 M334.78,307.93L336.08,312.11 M334.42,309.33L335.72,313.51 M333.18,310.24L334.49,314.42 M330.33,307.93L331.65,312.11 M333.79,311.86L334.97,315.46 M333.68,321.68L333.69,313.46 M337.37,321.68L337.37,313.46 M333.68,217.98L333.69,226.20 M337.37,226.20L337.37,217.98 M336.45,218.56L336.49,247.15 M335.98,218.38L336.02,246.97 M335.04,218.39L335.08,246.97 M334.56,218.56L334.61,247.15 M333.90,227.81L335.09,224.20 M332.73,227.81L333.91,224.21 M334.75,231.73L336.05,227.55 M334.39,230.33L335.69,226.15 M330.47,230.33L331.79,226.15 M192.07,306.71L193.32,310.90 M192.76,307.95L194.00,312.13 M189.59,310.24L190.84,314.41 M192.09,311.19L193.24,314.91 M191.74,311.69L192.89,315.40 M190.56,311.68L191.71,315.39 M183.48,301.70L183.52,316.28 M180.84,301.63L180.89,316.22 M181.16,308.31L181.09,324.28 M193.85,321.28L193.89,292.69 M194.36,292.52L194.32,321.11 M192.90,321.28L192.95,292.69 M192.43,321.10L192.48,292.51 M180.83,237.92L180.87,223.34 M183.51,223.28L183.46,237.86 M181.14,231.21L181.08,215.23 M192.38,231.80L193.88,227.63 M190.76,229.48L192.27,225.33 M189.22,229.48L190.73,225.33 M187.95,231.80L189.47,227.64 M191.19,227.76L192.58,224.33 M190.58,227.57L191.97,224.14 M194.29,218.56L194.33,247.15 M193.81,218.38L193.86,246.97 M192.87,218.39L192.91,246.98 M192.40,218.56L192.44,247.15 M169.22,236.63L176.35,236.58 M163.35,236.82L163.73,237.25 M169.22,303.05L176.35,303.10 M163.35,302.87L163.73,302.43 M354.14,315.89L354.14,315.89 M241.33,236.33L237.68,236.36 M237.69,261.15L241.33,261.19 M224.49,279.86L236.60,279.87 M236.60,279.87L240.52,279.86 M237.86,278.98L241.33,278.93 M241.41,276.09L237.86,276.17 M237.55,275.20L228.67,275.31 M228.91,277.14L236.67,277.05 M240.52,303.03L236.60,303.02 M237.86,303.91L241.33,303.95 M241.41,306.29L237.86,306.29 M253.12,230.93L283.10,230.93 M286.66,230.83L300.91,230.62 M300.92,308.20L285.68,307.74 M286.74,308.95L300.87,309.09 M240.59,249.95L241.53,254.49 M163.17,252.25L163.16,258.74 M163.16,258.74L163.16,269.84 M163.16,269.84L163.16,280.95 M163.16,280.95L163.17,287.43 M202.11,229.90L211.43,229.16 M202.11,309.78L211.43,310.52 M190.85,286.07L190.85,274.45 M189.14,270.92L189.14,276.92 M202.83,249.10L202.84,249.10 M202.83,249.10L202.83,249.10 M167.04,274.61L167.07,281.35 M167.04,274.61L167.07,281.35 M167.27,274.96L167.27,285.08 M167.06,281.53L167.06,274.64 M171.49,274.02L171.49,274.02 M173.86,267.13L173.86,281.57 M173.86,267.13L173.86,282.30 M300.54,280.31L301.30,284.38 M283.98,279.91L261.29,277.46 M301.30,298.12L300.54,302.18 M282.70,285.13L282.70,297.37 M261.29,305.04L278.12,304.01 M261.29,305.04L283.98,302.59 M283.05,278.05L282.70,277.70 M283.72,278.28L284.19,277.32 M282.94,279.79L288.79,279.37 M283.05,304.45L282.70,304.80 M283.72,304.22L284.19,305.18 M282.94,302.71L288.79,303.13 M260.83,286.14L260.83,296.36 M255.34,252.63L255.34,245.21 M300.54,237.89L301.30,241.96 M282.70,242.71L282.70,254.95 M287.43,237.25L298.44,238.74 M261.29,235.04L278.12,236.07 M261.29,235.04L283.98,237.49 M301.30,255.70L300.54,259.76 M261.29,262.62L278.12,261.59 M261.29,262.62L283.98,260.17 M283.05,235.62L282.70,235.28 M283.72,235.86L284.19,234.90 M282.94,237.37L288.79,236.95 M283.05,262.03L282.70,262.38 M283.72,261.80L284.19,262.75 M282.94,260.28L288.79,260.71 M260.83,243.72L260.83,253.93 M338.99,285.61L338.70,279.19 M348.24,238.19L348.38,247.32 M336.18,297.30L325.65,297.34 M336.18,297.30L321.78,297.39 M348.48,283.87L348.28,297.30 M338.52,264.51L338.47,275.18 M342.95,246.20L349.97,245.83 M328.61,242.69L328.61,242.69 M328.61,296.99L328.61,296.99 M237.24,271.50L237.25,305.62 M220.73,237.40L220.67,275.16 M213.58,200.61L219.28,201.08 M221.98,202.43L233.33,209.70 M221.38,202.41L232.04,209.79 M180.17,214.01L207.35,214.34 M207.35,214.34L181.82,213.96 M302.61,318.70L295.44,318.49 M338.98,338.06L321.64,339.00 M338.98,338.06L322.39,338.99 M344.94,336.70L353.59,329.51 M344.94,336.70L353.47,329.64 M319.21,339.02L315.35,338.62 M312.53,337.31L300.30,329.13 M349.37,320.04L355.18,320.08 M355.05,325.90L355.18,320.08 M355.19,326.02L355.16,320.06 M347.76,320.03L355.16,320.06 M342.63,320.04L331.79,320.03 M313.33,325.64L309.85,325.63 M298.19,325.62L302.77,325.63 M298.67,330.11L308.21,336.08 M314.26,339.44L317.24,339.59 M321.33,339.50L335.60,338.78 M354.25,329.68L349.27,334.29 M355.76,319.41L355.84,326.03 M308.21,203.55L298.67,209.52 M314.26,200.19L317.24,200.05 M321.33,200.14L335.60,200.86 M349.27,205.35L354.25,209.96 M355.84,213.61L355.76,220.23 M180.17,325.67L207.35,325.34 M207.35,325.34L181.82,325.72 M232.04,329.89L221.38,337.27 M233.33,329.98L221.98,337.25 M213.58,339.07L219.28,338.60 M228.85,319.67L223.89,319.76 M205.20,254.41L205.20,254.41 M205.20,253.51L205.20,253.51 M205.72,279.25L205.72,285.53 M205.95,289.46L205.95,255.06 M206.01,253.34L206.01,289.46 M205.95,289.46L205.96,252.40 M207.86,263.06L207.84,276.60 M184.57,294.73L179.72,294.29 M205.90,255.99L205.90,255.99 M205.90,269.47L205.90,269.47 M205.90,283.70L205.90,283.70 M205.90,283.70L205.90,270.21 M189.37,242.36L209.93,242.37 M189.37,242.36L208.86,242.52 M197.23,306.27L207.39,306.27 M361.26,246.61L361.26,269.84 M361.26,293.08L361.26,269.84 M162.66,300.16L173.12,299.43 M171.52,298.85L162.65,299.33 M162.66,239.52L173.11,240.25 M171.52,240.83L162.65,240.35 M172.35,301.31L179.97,301.14 M172.35,301.31L180.51,301.14 M204.82,296.00L225.67,305.08 M204.82,243.68L225.67,234.61 M243.08,228.53L288.01,228.52 M243.08,228.53L289.83,228.52 M317.84,244.21L309.29,238.79 M317.84,244.21L309.45,238.27 M243.08,311.15L288.01,311.16 M243.08,311.15L289.83,311.16 M309.45,301.41L317.84,295.47 M309.29,300.89L317.84,295.47 M208.30,241.07L221.92,235.74 M221.92,235.74L207.29,242.01 M208.14,241.09L218.42,236.12 M218.42,236.12L208.20,241.38 M217.95,236.18L208.22,241.59 M207.11,242.21L217.70,236.14 M208.30,298.61L221.92,303.94 M221.92,303.94L207.29,297.67 M208.14,298.59L218.42,303.56 M218.42,303.56L208.20,298.30 M217.95,303.50L208.22,298.10 M207.11,297.47L217.70,303.55 M360.94,250.71L360.94,259.36 M362.40,259.34L362.40,250.53 M360.94,280.29L360.94,288.94" stroke="currentColor" stroke-width="0.6" stroke-linecap="round" fill="none" opacity="0.55" clip-path="url(#hull-clip)" filter="url(#glow)" />
  <path d="M 337.50,341.50 C 335.93,341.51 334.11,341.53 332.50,341.50 C 330.89,341.47 329.33,341.41 327.83,341.31 C 326.33,341.22 324.88,341.09 323.48,340.94 C 322.09,340.78 320.75,340.59 319.47,340.38 C 318.18,340.16 316.96,339.91 315.78,339.62 C 314.61,339.34 313.49,339.03 312.42,338.69 C 311.36,338.34 310.35,337.97 309.39,337.56 C 308.43,337.16 307.53,336.72 306.69,336.25 C 305.84,335.78 305.06,335.23 304.31,334.75 C 303.57,334.27 302.86,333.81 302.20,333.38 C 301.54,332.94 300.93,332.52 300.36,332.12 C 299.79,331.73 299.26,331.35 298.78,331.00 C 298.30,330.65 297.86,330.31 297.47,330.00 C 297.08,329.69 296.73,329.40 296.42,329.12 C 296.12,328.85 295.86,328.60 295.64,328.38 C 295.42,328.15 295.25,327.94 295.12,327.75 C 295.00,327.56 294.97,327.40 294.88,327.25 C 294.78,327.10 294.68,326.96 294.58,326.83 C 294.47,326.70 294.36,326.59 294.23,326.48 C 294.11,326.38 293.98,326.29 293.84,326.22 C 293.71,326.14 293.56,326.08 293.41,326.03 C 293.25,325.98 293.09,325.95 292.92,325.92 C 292.75,325.90 292.58,325.89 292.39,325.89 C 292.21,325.89 292.01,325.91 291.81,325.94 C 291.61,325.97 291.38,326.03 291.19,326.06 C 290.99,326.10 290.81,326.13 290.63,326.15 C 290.46,326.17 290.30,326.19 290.15,326.20 C 290.00,326.20 289.86,326.21 289.73,326.20 C 289.61,326.20 289.49,326.19 289.39,326.17 C 289.29,326.15 289.20,326.13 289.12,326.10 C 289.04,326.07 288.97,326.04 288.91,325.99 C 288.86,325.95 288.81,325.90 288.78,325.84 C 288.75,325.79 288.73,325.72 288.72,325.66 C 288.71,325.59 288.71,325.52 288.73,325.45 C 288.74,325.37 288.77,325.29 288.80,325.21 C 288.84,325.13 288.89,325.04 288.95,324.95 C 289.01,324.86 289.09,324.77 289.17,324.67 C 289.26,324.57 289.35,324.47 289.46,324.37 C 289.57,324.26 289.69,324.15 289.82,324.04 C 289.95,323.93 290.10,323.81 290.25,323.69 C 290.40,323.57 290.60,323.44 290.75,323.31 C 290.90,323.19 291.03,323.06 291.15,322.93 C 291.26,322.80 291.36,322.67 291.45,322.54 C 291.53,322.41 291.59,322.27 291.64,322.14 C 291.69,322.01 291.72,321.87 291.73,321.73 C 291.75,321.60 291.75,321.46 291.73,321.32 C 291.71,321.18 291.67,321.04 291.62,320.90 C 291.56,320.76 291.49,320.61 291.41,320.47 C 291.32,320.32 291.33,320.17 291.09,320.03 C 290.86,319.89 290.50,319.77 290.01,319.65 C 289.52,319.53 288.90,319.42 288.15,319.32 C 287.40,319.22 286.52,319.13 285.52,319.05 C 284.51,318.96 283.37,318.89 282.11,318.83 C 280.85,318.76 279.45,318.71 277.93,318.66 C 276.41,318.62 274.76,318.58 272.98,318.55 C 271.20,318.53 269.29,318.51 267.25,318.50 C 265.21,318.49 262.78,318.48 260.75,318.50 C 258.72,318.52 256.82,318.57 255.05,318.65 C 253.29,318.72 251.66,318.82 250.16,318.95 C 248.67,319.07 247.31,319.22 246.08,319.39 C 244.85,319.56 243.76,319.76 242.80,319.98 C 241.84,320.21 241.01,320.45 240.32,320.73 C 239.63,321.00 239.07,321.30 238.65,321.62 C 238.23,321.94 237.94,322.29 237.78,322.66 C 237.63,323.03 237.74,323.47 237.72,323.84 C 237.69,324.22 237.66,324.58 237.62,324.92 C 237.59,325.26 237.55,325.59 237.50,325.89 C 237.45,326.20 237.40,326.48 237.34,326.75 C 237.29,327.02 237.22,327.27 237.16,327.50 C 237.09,327.73 237.02,327.95 236.94,328.14 C 236.86,328.34 236.78,328.51 236.69,328.67 C 236.60,328.83 236.51,328.97 236.41,329.09 C 236.31,329.22 236.22,329.29 236.09,329.41 C 235.97,329.52 235.82,329.65 235.65,329.79 C 235.48,329.93 235.29,330.08 235.07,330.24 C 234.86,330.40 234.62,330.58 234.36,330.77 C 234.10,330.95 233.82,331.15 233.52,331.36 C 233.21,331.57 232.89,331.79 232.54,332.02 C 232.19,332.26 231.82,332.50 231.43,332.76 C 231.04,333.01 230.62,333.28 230.19,333.56 C 229.75,333.84 229.27,334.15 228.81,334.44 C 228.35,334.72 227.90,335.00 227.44,335.27 C 226.98,335.53 226.52,335.79 226.06,336.05 C 225.60,336.30 225.15,336.54 224.69,336.78 C 224.23,337.02 223.77,337.25 223.31,337.47 C 222.85,337.69 222.40,337.90 221.94,338.11 C 221.48,338.32 221.02,338.51 220.56,338.70 C 220.10,338.89 219.65,339.08 219.19,339.25 C 218.73,339.42 218.35,339.59 217.81,339.75 C 217.28,339.91 216.67,340.05 215.98,340.19 C 215.30,340.32 214.54,340.45 213.70,340.56 C 212.87,340.68 211.96,340.78 210.97,340.88 C 209.98,340.97 208.92,341.05 207.78,341.12 C 206.64,341.20 205.43,341.26 204.14,341.31 C 202.85,341.36 201.49,341.41 200.05,341.44 C 198.61,341.47 197.09,341.49 195.50,341.50 C 193.91,341.51 192.07,341.51 190.50,341.50 C 188.93,341.49 187.46,341.48 186.08,341.47 C 184.70,341.45 183.42,341.43 182.23,341.41 C 181.05,341.38 179.96,341.35 178.97,341.31 C 177.98,341.28 177.08,341.23 176.28,341.19 C 175.48,341.14 174.78,341.09 174.17,341.03 C 173.57,340.97 173.05,340.91 172.64,340.84 C 172.23,340.78 171.91,340.70 171.69,340.62 C 171.47,340.55 171.43,340.49 171.31,340.38 C 171.19,340.26 171.07,340.11 170.96,339.93 C 170.85,339.75 170.74,339.54 170.63,339.29 C 170.53,339.04 170.43,338.76 170.33,338.45 C 170.23,338.14 170.14,337.80 170.05,337.42 C 169.96,337.05 169.87,336.64 169.79,336.20 C 169.71,335.75 169.63,335.28 169.55,334.77 C 169.48,334.27 169.41,333.73 169.34,333.16 C 169.28,332.58 169.21,331.92 169.16,331.34 C 169.10,330.77 169.05,330.22 169.01,329.70 C 168.96,329.17 168.93,328.68 168.90,328.21 C 168.87,327.74 168.85,327.30 168.83,326.89 C 168.81,326.48 168.80,326.09 168.80,325.73 C 168.79,325.38 168.80,325.05 168.80,324.74 C 168.81,324.44 168.83,324.16 168.85,323.91 C 168.87,323.67 168.90,323.44 168.94,323.25 C 168.97,323.06 169.01,322.92 169.06,322.75 C 169.12,322.58 169.18,322.42 169.27,322.25 C 169.35,322.08 169.44,321.92 169.55,321.75 C 169.65,321.58 169.77,321.42 169.91,321.25 C 170.04,321.08 170.18,320.92 170.34,320.75 C 170.50,320.58 170.67,320.42 170.86,320.25 C 171.04,320.08 171.24,319.92 171.45,319.75 C 171.66,319.58 171.89,319.42 172.12,319.25 C 172.36,319.08 172.64,318.92 172.88,318.75 C 173.11,318.58 173.33,318.41 173.53,318.23 C 173.73,318.06 173.92,317.88 174.09,317.70 C 174.27,317.52 174.42,317.34 174.56,317.16 C 174.70,316.97 174.83,316.78 174.94,316.59 C 175.05,316.40 175.14,316.21 175.22,316.02 C 175.30,315.82 175.36,315.62 175.41,315.42 C 175.45,315.22 175.48,315.02 175.50,314.81 C 175.52,314.61 175.53,314.38 175.50,314.19 C 175.47,313.99 175.42,313.81 175.34,313.63 C 175.25,313.46 175.14,313.30 175.01,313.15 C 174.87,313.00 174.71,312.86 174.52,312.73 C 174.32,312.61 174.11,312.49 173.86,312.39 C 173.61,312.29 173.34,312.20 173.04,312.12 C 172.74,312.04 172.41,311.97 172.05,311.91 C 171.70,311.86 171.32,311.81 170.91,311.78 C 170.50,311.75 170.01,311.76 169.59,311.72 C 169.18,311.68 168.80,311.63 168.44,311.56 C 168.08,311.49 167.74,311.41 167.44,311.31 C 167.13,311.21 166.85,311.10 166.59,310.97 C 166.34,310.84 166.11,310.69 165.91,310.53 C 165.70,310.37 165.53,310.19 165.38,310.00 C 165.22,309.81 165.10,309.60 165.00,309.38 C 164.90,309.15 164.83,308.91 164.78,308.66 C 164.73,308.40 164.77,308.11 164.72,307.84 C 164.67,307.58 164.60,307.33 164.50,307.08 C 164.40,306.83 164.28,306.59 164.12,306.36 C 163.97,306.13 163.80,305.90 163.59,305.69 C 163.39,305.47 163.16,305.26 162.91,305.06 C 162.65,304.86 162.37,304.67 162.06,304.48 C 161.76,304.30 161.42,304.12 161.06,303.95 C 160.70,303.78 160.32,303.62 159.91,303.47 C 159.49,303.32 159.01,303.18 158.59,303.03 C 158.17,302.89 157.77,302.74 157.39,302.59 C 157.01,302.45 156.64,302.30 156.30,302.16 C 155.95,302.01 155.62,301.86 155.31,301.72 C 155.00,301.57 154.71,301.43 154.44,301.28 C 154.16,301.14 153.91,300.99 153.67,300.84 C 153.43,300.70 153.22,300.55 153.02,300.41 C 152.82,300.26 152.63,300.11 152.47,299.97 C 152.30,299.82 152.17,299.70 152.03,299.53 C 151.89,299.36 151.75,299.17 151.62,298.96 C 151.48,298.75 151.35,298.51 151.23,298.26 C 151.10,298.00 150.98,297.72 150.86,297.42 C 150.74,297.12 150.63,296.80 150.52,296.45 C 150.40,296.11 150.30,295.74 150.20,295.35 C 150.09,294.96 149.99,294.55 149.90,294.12 C 149.80,293.68 149.71,293.23 149.62,292.75 C 149.54,292.27 149.47,291.72 149.38,291.25 C 149.28,290.78 149.18,290.34 149.08,289.92 C 148.97,289.51 148.86,289.12 148.73,288.77 C 148.61,288.41 148.48,288.08 148.34,287.78 C 148.21,287.48 148.06,287.21 147.91,286.97 C 147.75,286.73 147.59,286.51 147.42,286.33 C 147.25,286.14 147.08,285.99 146.89,285.86 C 146.71,285.73 146.51,285.63 146.31,285.56 C 146.11,285.49 145.87,285.48 145.69,285.44 C 145.50,285.39 145.35,285.35 145.21,285.30 C 145.08,285.26 144.97,285.21 144.88,285.16 C 144.80,285.12 144.74,285.07 144.70,285.02 C 144.67,284.96 144.66,284.91 144.67,284.86 C 144.69,284.81 144.73,284.75 144.79,284.70 C 144.85,284.64 144.94,284.58 145.05,284.52 C 145.17,284.46 145.31,284.40 145.47,284.34 C 145.63,284.28 145.85,284.23 146.03,284.16 C 146.21,284.09 146.38,284.01 146.55,283.92 C 146.71,283.84 146.87,283.74 147.02,283.64 C 147.16,283.54 147.30,283.43 147.44,283.31 C 147.57,283.20 147.70,283.07 147.81,282.94 C 147.93,282.80 148.04,282.66 148.14,282.52 C 148.24,282.37 148.34,282.21 148.42,282.05 C 148.51,281.88 148.59,281.71 148.66,281.53 C 148.73,281.35 148.79,281.20 148.84,280.97 C 148.90,280.74 148.96,280.47 149.01,280.16 C 149.06,279.86 149.11,279.51 149.15,279.12 C 149.19,278.73 149.23,278.30 149.27,277.83 C 149.30,277.36 149.33,276.85 149.36,276.30 C 149.39,275.75 149.41,275.15 149.43,274.52 C 149.45,273.89 149.46,273.22 149.48,272.51 C 149.49,271.80 149.50,271.04 149.50,270.25 C 149.50,269.46 149.50,268.54 149.50,267.75 C 149.50,266.96 149.49,266.22 149.48,265.52 C 149.48,264.82 149.47,264.16 149.45,263.55 C 149.44,262.93 149.42,262.37 149.41,261.84 C 149.39,261.32 149.37,260.84 149.34,260.41 C 149.32,259.97 149.29,259.58 149.27,259.23 C 149.24,258.89 149.21,258.59 149.17,258.33 C 149.14,258.07 149.10,257.86 149.06,257.69 C 149.02,257.52 148.99,257.43 148.94,257.31 C 148.89,257.19 148.83,257.07 148.77,256.95 C 148.70,256.84 148.63,256.72 148.55,256.61 C 148.47,256.50 148.38,256.39 148.28,256.28 C 148.18,256.17 148.08,256.07 147.97,255.97 C 147.86,255.87 147.74,255.77 147.61,255.67 C 147.48,255.58 147.35,255.48 147.20,255.39 C 147.06,255.30 146.91,255.21 146.75,255.12 C 146.59,255.04 146.40,254.96 146.25,254.88 C 146.10,254.79 145.98,254.72 145.88,254.64 C 145.77,254.57 145.69,254.49 145.62,254.42 C 145.56,254.35 145.52,254.28 145.50,254.22 C 145.48,254.15 145.48,254.09 145.50,254.03 C 145.52,253.97 145.56,253.91 145.62,253.86 C 145.69,253.80 145.77,253.75 145.88,253.70 C 145.98,253.65 146.10,253.61 146.25,253.56 C 146.40,253.52 146.59,253.51 146.75,253.44 C 146.91,253.36 147.07,253.26 147.22,253.12 C 147.37,252.99 147.52,252.82 147.66,252.62 C 147.80,252.43 147.93,252.20 148.06,251.94 C 148.19,251.68 148.32,251.39 148.44,251.06 C 148.56,250.74 148.67,250.39 148.78,250.00 C 148.89,249.61 148.99,249.20 149.09,248.75 C 149.19,248.30 149.29,247.82 149.38,247.31 C 149.46,246.80 149.54,246.20 149.62,245.69 C 149.71,245.17 149.81,244.68 149.91,244.21 C 150.02,243.74 150.13,243.30 150.24,242.88 C 150.36,242.46 150.48,242.07 150.61,241.70 C 150.74,241.33 150.87,240.99 151.02,240.67 C 151.16,240.35 151.31,240.06 151.46,239.79 C 151.62,239.52 151.78,239.27 151.95,239.05 C 152.11,238.83 152.29,238.64 152.47,238.47 C 152.65,238.30 152.84,238.17 153.03,238.03 C 153.23,237.89 153.43,237.76 153.63,237.63 C 153.84,237.51 154.05,237.39 154.27,237.27 C 154.49,237.16 154.72,237.05 154.95,236.95 C 155.19,236.85 155.43,236.76 155.67,236.67 C 155.92,236.58 156.17,236.50 156.43,236.43 C 156.69,236.36 156.95,236.29 157.23,236.23 C 157.50,236.17 157.78,236.11 158.06,236.06 C 158.35,236.01 158.66,235.98 158.94,235.94 C 159.22,235.89 159.49,235.84 159.74,235.79 C 160.00,235.74 160.24,235.68 160.48,235.62 C 160.71,235.56 160.93,235.49 161.14,235.42 C 161.35,235.35 161.55,235.28 161.73,235.20 C 161.92,235.13 162.10,235.05 162.26,234.96 C 162.42,234.88 162.57,234.79 162.71,234.70 C 162.85,234.60 162.98,234.51 163.09,234.41 C 163.21,234.31 163.31,234.21 163.41,234.09 C 163.51,233.98 163.60,233.85 163.69,233.72 C 163.78,233.58 163.86,233.44 163.94,233.28 C 164.02,233.12 164.09,232.96 164.16,232.78 C 164.22,232.60 164.29,232.42 164.34,232.22 C 164.40,232.02 164.45,231.81 164.50,231.59 C 164.55,231.38 164.59,231.15 164.62,230.91 C 164.66,230.67 164.69,230.42 164.72,230.16 C 164.74,229.90 164.74,229.60 164.78,229.34 C 164.82,229.09 164.89,228.86 164.98,228.65 C 165.06,228.44 165.17,228.24 165.30,228.07 C 165.44,227.90 165.59,227.74 165.77,227.61 C 165.94,227.48 166.14,227.36 166.36,227.27 C 166.58,227.17 166.82,227.10 167.09,227.04 C 167.35,226.98 167.64,226.95 167.95,226.93 C 168.25,226.91 168.58,226.92 168.94,226.94 C 169.29,226.96 169.71,227.03 170.06,227.06 C 170.42,227.10 170.75,227.13 171.07,227.15 C 171.39,227.17 171.68,227.19 171.96,227.20 C 172.24,227.20 172.50,227.21 172.73,227.20 C 172.97,227.20 173.19,227.19 173.39,227.17 C 173.59,227.15 173.77,227.13 173.93,227.10 C 174.09,227.07 174.23,227.04 174.35,226.99 C 174.47,226.95 174.57,226.90 174.66,226.84 C 174.74,226.79 174.79,226.73 174.84,226.66 C 174.90,226.59 174.96,226.51 175.01,226.43 C 175.06,226.35 175.11,226.26 175.15,226.16 C 175.19,226.07 175.23,225.97 175.27,225.86 C 175.30,225.75 175.33,225.64 175.36,225.52 C 175.39,225.39 175.41,225.27 175.43,225.13 C 175.45,225.00 175.46,224.86 175.48,224.71 C 175.49,224.56 175.50,224.41 175.50,224.25 C 175.50,224.09 175.52,223.92 175.50,223.75 C 175.48,223.58 175.45,223.42 175.41,223.25 C 175.36,223.08 175.30,222.92 175.22,222.75 C 175.14,222.58 175.05,222.42 174.94,222.25 C 174.83,222.08 174.70,221.92 174.56,221.75 C 174.42,221.58 174.27,221.42 174.09,221.25 C 173.92,221.08 173.73,220.92 173.53,220.75 C 173.33,220.58 173.11,220.42 172.88,220.25 C 172.64,220.08 172.36,219.92 172.12,219.75 C 171.89,219.58 171.66,219.39 171.45,219.20 C 171.24,219.01 171.04,218.82 170.86,218.61 C 170.67,218.40 170.50,218.19 170.34,217.97 C 170.18,217.75 170.04,217.52 169.91,217.28 C 169.77,217.04 169.65,216.80 169.55,216.55 C 169.44,216.29 169.35,216.03 169.27,215.77 C 169.18,215.50 169.12,215.22 169.06,214.94 C 169.01,214.65 168.98,214.35 168.94,214.06 C 168.90,213.77 168.85,213.49 168.81,213.20 C 168.77,212.92 168.73,212.64 168.69,212.36 C 168.65,212.08 168.60,211.80 168.56,211.53 C 168.52,211.26 168.48,210.99 168.44,210.72 C 168.40,210.45 168.35,210.18 168.31,209.92 C 168.27,209.66 168.23,209.40 168.19,209.14 C 168.15,208.88 168.10,208.63 168.06,208.38 C 168.02,208.12 167.96,207.88 167.94,207.62 C 167.91,207.37 167.90,207.11 167.90,206.85 C 167.90,206.59 167.92,206.32 167.95,206.05 C 167.98,205.79 168.02,205.51 168.08,205.23 C 168.14,204.96 168.21,204.68 168.30,204.39 C 168.38,204.11 168.49,203.82 168.60,203.52 C 168.72,203.23 168.85,202.93 168.99,202.63 C 169.14,202.33 169.30,202.03 169.47,201.72 C 169.64,201.41 169.75,201.07 170.03,200.78 C 170.32,200.49 170.70,200.21 171.18,199.96 C 171.66,199.71 172.24,199.47 172.91,199.26 C 173.59,199.04 174.36,198.85 175.23,198.67 C 176.11,198.50 177.07,198.34 178.14,198.20 C 179.21,198.07 180.37,197.95 181.63,197.85 C 182.89,197.75 184.25,197.68 185.71,197.62 C 187.17,197.56 188.72,197.52 190.38,197.50 C 192.03,197.48 193.93,197.47 195.62,197.50 C 197.32,197.53 198.97,197.59 200.56,197.67 C 202.16,197.76 203.70,197.87 205.19,198.02 C 206.68,198.16 208.11,198.33 209.50,198.53 C 210.89,198.73 212.22,198.96 213.50,199.22 C 214.78,199.48 216.01,199.76 217.19,200.08 C 218.36,200.39 219.49,200.74 220.56,201.11 C 221.64,201.48 222.66,201.88 223.62,202.31 C 224.59,202.74 225.51,203.25 226.38,203.69 C 227.24,204.13 228.06,204.55 228.82,204.96 C 229.58,205.37 230.30,205.76 230.96,206.13 C 231.62,206.51 232.24,206.86 232.80,207.20 C 233.36,207.54 233.87,207.87 234.33,208.17 C 234.79,208.48 235.20,208.77 235.55,209.04 C 235.91,209.31 236.22,209.57 236.48,209.80 C 236.73,210.04 236.94,210.26 237.09,210.47 C 237.25,210.67 237.31,210.84 237.41,211.03 C 237.50,211.22 237.59,211.42 237.66,211.62 C 237.74,211.82 237.81,212.02 237.87,212.23 C 237.93,212.43 237.98,212.64 238.02,212.86 C 238.06,213.07 238.09,213.29 238.11,213.52 C 238.13,213.74 238.14,213.96 238.15,214.20 C 238.15,214.43 238.15,214.66 238.13,214.90 C 238.12,215.14 238.10,215.38 238.06,215.62 C 238.03,215.87 237.97,216.14 237.94,216.38 C 237.90,216.61 237.87,216.84 237.85,217.05 C 237.83,217.27 237.81,217.47 237.80,217.66 C 237.80,217.86 237.79,218.04 237.80,218.20 C 237.80,218.37 237.81,218.53 237.83,218.67 C 237.85,218.82 237.87,218.95 237.90,219.07 C 237.93,219.19 237.96,219.30 238.01,219.40 C 238.05,219.50 238.10,219.58 238.16,219.66 C 238.21,219.73 238.15,219.79 238.34,219.84 C 238.53,219.90 238.85,219.96 239.29,220.01 C 239.73,220.06 240.30,220.11 240.99,220.15 C 241.69,220.19 242.51,220.23 243.45,220.27 C 244.40,220.30 245.47,220.33 246.67,220.36 C 247.87,220.39 249.20,220.41 250.65,220.43 C 252.10,220.45 253.68,220.46 255.38,220.48 C 257.09,220.49 258.92,220.50 260.88,220.50 C 262.83,220.50 265.16,220.51 267.12,220.50 C 269.09,220.49 270.93,220.48 272.65,220.46 C 274.37,220.44 275.97,220.42 277.45,220.38 C 278.92,220.35 280.28,220.31 281.52,220.27 C 282.75,220.22 283.87,220.17 284.86,220.11 C 285.85,220.05 286.73,219.99 287.48,219.91 C 288.23,219.84 288.86,219.76 289.37,219.68 C 289.88,219.60 290.26,219.50 290.53,219.41 C 290.80,219.31 290.84,219.20 290.97,219.09 C 291.10,218.99 291.20,218.87 291.29,218.76 C 291.38,218.64 291.44,218.52 291.49,218.40 C 291.54,218.27 291.57,218.15 291.58,218.02 C 291.59,217.88 291.58,217.75 291.55,217.61 C 291.52,217.47 291.47,217.33 291.40,217.18 C 291.33,217.03 291.24,216.88 291.13,216.73 C 291.02,216.57 290.90,216.41 290.75,216.25 C 290.60,216.09 290.40,215.91 290.25,215.75 C 290.10,215.59 289.95,215.44 289.82,215.29 C 289.69,215.14 289.57,215.00 289.46,214.87 C 289.35,214.73 289.26,214.61 289.17,214.48 C 289.09,214.36 289.01,214.25 288.95,214.14 C 288.89,214.03 288.84,213.93 288.80,213.84 C 288.77,213.74 288.74,213.65 288.73,213.57 C 288.71,213.49 288.71,213.41 288.72,213.34 C 288.73,213.27 288.75,213.21 288.78,213.16 C 288.81,213.10 288.86,213.05 288.91,213.01 C 288.97,212.96 289.04,212.93 289.12,212.90 C 289.20,212.87 289.29,212.85 289.39,212.83 C 289.49,212.81 289.61,212.80 289.73,212.80 C 289.86,212.79 290.00,212.80 290.15,212.80 C 290.30,212.81 290.46,212.83 290.63,212.85 C 290.81,212.87 290.99,212.90 291.19,212.94 C 291.38,212.97 291.61,213.04 291.81,213.06 C 292.02,213.09 292.21,213.10 292.41,213.09 C 292.60,213.09 292.79,213.07 292.97,213.03 C 293.15,212.99 293.33,212.94 293.50,212.88 C 293.67,212.81 293.84,212.72 294.00,212.62 C 294.16,212.53 294.32,212.41 294.47,212.28 C 294.62,212.15 294.77,212.01 294.91,211.84 C 295.05,211.68 295.18,211.51 295.31,211.31 C 295.44,211.12 295.53,210.91 295.69,210.69 C 295.85,210.46 296.05,210.22 296.28,209.97 C 296.52,209.71 296.79,209.44 297.09,209.16 C 297.40,208.87 297.74,208.57 298.12,208.25 C 298.51,207.93 298.92,207.60 299.38,207.25 C 299.83,206.90 300.32,206.54 300.84,206.16 C 301.37,205.78 301.93,205.38 302.53,204.97 C 303.13,204.56 303.77,204.13 304.44,203.69 C 305.11,203.24 305.79,202.74 306.56,202.31 C 307.34,201.88 308.17,201.48 309.08,201.11 C 309.98,200.74 310.95,200.39 311.98,200.08 C 313.02,199.76 314.12,199.48 315.28,199.22 C 316.45,198.96 317.67,198.73 318.97,198.53 C 320.26,198.33 321.62,198.16 323.05,198.02 C 324.47,197.87 325.96,197.76 327.52,197.67 C 329.07,197.59 330.69,197.53 332.38,197.50 C 334.06,197.47 335.98,197.49 337.62,197.50 C 339.27,197.51 340.82,197.54 342.27,197.59 C 343.72,197.63 345.07,197.69 346.32,197.76 C 347.57,197.83 348.72,197.92 349.77,198.02 C 350.81,198.12 351.76,198.23 352.61,198.36 C 353.46,198.49 354.20,198.63 354.85,198.79 C 355.50,198.95 356.05,199.12 356.49,199.30 C 356.94,199.49 357.29,199.69 357.53,199.91 C 357.78,200.12 357.83,200.35 357.97,200.59 C 358.11,200.84 358.23,201.10 358.35,201.37 C 358.47,201.64 358.58,201.93 358.68,202.23 C 358.78,202.53 358.87,202.84 358.95,203.17 C 359.04,203.50 359.11,203.85 359.17,204.20 C 359.24,204.56 359.29,204.93 359.34,205.32 C 359.38,205.71 359.42,206.11 359.45,206.52 C 359.47,206.94 359.49,207.37 359.50,207.81 C 359.51,208.26 359.50,208.75 359.50,209.19 C 359.50,209.63 359.49,210.05 359.48,210.45 C 359.48,210.86 359.47,211.24 359.45,211.61 C 359.44,211.98 359.42,212.33 359.41,212.66 C 359.39,212.99 359.37,213.30 359.34,213.59 C 359.32,213.89 359.29,214.16 359.27,214.42 C 359.24,214.68 359.21,214.92 359.17,215.14 C 359.14,215.36 359.10,215.57 359.06,215.75 C 359.02,215.93 358.98,216.09 358.94,216.25 C 358.89,216.41 358.84,216.57 358.78,216.72 C 358.72,216.87 358.66,217.02 358.59,217.16 C 358.53,217.30 358.45,217.43 358.38,217.56 C 358.30,217.69 358.21,217.82 358.12,217.94 C 358.04,218.06 357.94,218.17 357.84,218.28 C 357.74,218.39 357.64,218.49 357.53,218.59 C 357.42,218.69 357.31,218.79 357.19,218.88 C 357.07,218.96 356.92,219.04 356.81,219.12 C 356.70,219.21 356.61,219.29 356.53,219.38 C 356.45,219.46 356.39,219.54 356.34,219.62 C 356.30,219.71 356.27,219.79 356.25,219.88 C 356.23,219.96 356.23,220.04 356.25,220.12 C 356.27,220.21 356.30,220.29 356.34,220.38 C 356.39,220.46 356.45,220.54 356.53,220.62 C 356.61,220.71 356.70,220.79 356.81,220.88 C 356.92,220.96 357.06,221.02 357.19,221.12 C 357.32,221.23 357.45,221.35 357.59,221.48 C 357.73,221.62 357.88,221.78 358.03,221.95 C 358.18,222.13 358.34,222.32 358.50,222.53 C 358.66,222.74 358.83,222.97 359.00,223.22 C 359.17,223.47 359.35,223.73 359.53,224.02 C 359.71,224.30 359.90,224.60 360.09,224.92 C 360.29,225.24 360.48,225.58 360.69,225.94 C 360.89,226.29 361.12,226.70 361.31,227.06 C 361.51,227.43 361.68,227.78 361.84,228.12 C 362.01,228.47 362.15,228.80 362.28,229.12 C 362.41,229.45 362.53,229.76 362.62,230.06 C 362.72,230.36 362.81,230.66 362.88,230.94 C 362.94,231.22 362.99,231.49 363.03,231.75 C 363.07,232.01 363.09,232.26 363.09,232.50 C 363.10,232.74 363.09,232.97 363.06,233.19 C 363.04,233.41 362.97,233.58 362.94,233.81 C 362.91,234.05 362.89,234.31 362.89,234.59 C 362.89,234.88 362.90,235.19 362.92,235.53 C 362.95,235.87 362.98,236.23 363.03,236.62 C 363.08,237.02 363.14,237.43 363.22,237.88 C 363.29,238.32 363.38,238.79 363.48,239.28 C 363.59,239.78 363.70,240.30 363.83,240.84 C 363.96,241.39 364.10,241.96 364.25,242.56 C 364.40,243.16 364.59,243.76 364.75,244.44 C 364.91,245.12 365.05,245.86 365.19,246.66 C 365.32,247.45 365.45,248.31 365.56,249.22 C 365.68,250.13 365.78,251.10 365.88,252.12 C 365.97,253.15 366.05,254.23 366.12,255.38 C 366.20,256.52 366.26,257.71 366.31,258.97 C 366.36,260.22 366.41,261.54 366.44,262.91 C 366.47,264.28 366.49,265.70 366.50,267.19 C 366.51,268.67 366.51,270.33 366.50,271.81 C 366.49,273.30 366.47,274.72 366.44,276.09 C 366.41,277.46 366.36,278.78 366.31,280.03 C 366.26,281.29 366.20,282.48 366.12,283.62 C 366.05,284.77 365.97,285.85 365.88,286.88 C 365.78,287.90 365.68,288.87 365.56,289.78 C 365.45,290.69 365.32,291.55 365.19,292.34 C 365.05,293.14 364.91,293.88 364.75,294.56 C 364.59,295.24 364.40,295.84 364.25,296.44 C 364.10,297.03 363.96,297.60 363.84,298.14 C 363.72,298.68 363.62,299.19 363.53,299.67 C 363.44,300.15 363.37,300.61 363.31,301.03 C 363.26,301.46 363.21,301.85 363.19,302.22 C 363.16,302.59 363.15,302.92 363.16,303.23 C 363.16,303.54 363.18,303.83 363.22,304.08 C 363.26,304.33 363.31,304.55 363.38,304.75 C 363.44,304.95 363.57,305.07 363.62,305.25 C 363.68,305.43 363.71,305.64 363.70,305.86 C 363.70,306.08 363.67,306.32 363.61,306.58 C 363.55,306.84 363.46,307.11 363.34,307.41 C 363.23,307.70 363.08,308.01 362.91,308.34 C 362.73,308.67 362.53,309.02 362.30,309.39 C 362.07,309.76 361.80,310.14 361.52,310.55 C 361.23,310.95 360.91,311.37 360.56,311.81 C 360.22,312.25 359.78,312.74 359.44,313.19 C 359.10,313.63 358.79,314.07 358.52,314.48 C 358.24,314.90 358.00,315.31 357.80,315.70 C 357.59,316.10 357.42,316.48 357.28,316.84 C 357.14,317.21 357.04,317.57 356.97,317.91 C 356.90,318.25 356.86,318.58 356.86,318.89 C 356.86,319.21 356.89,319.51 356.95,319.80 C 357.02,320.09 357.12,320.36 357.25,320.62 C 357.38,320.89 357.59,321.11 357.75,321.38 C 357.91,321.64 358.05,321.92 358.19,322.22 C 358.32,322.52 358.45,322.83 358.56,323.16 C 358.68,323.48 358.78,323.83 358.88,324.19 C 358.97,324.55 359.05,324.92 359.12,325.31 C 359.20,325.70 359.26,326.11 359.31,326.53 C 359.36,326.95 359.41,327.39 359.44,327.84 C 359.47,328.30 359.49,328.77 359.50,329.25 C 359.51,329.73 359.51,330.27 359.50,330.75 C 359.49,331.23 359.46,331.70 359.43,332.15 C 359.39,332.60 359.35,333.03 359.29,333.45 C 359.23,333.86 359.16,334.26 359.08,334.64 C 359.00,335.02 358.90,335.39 358.80,335.73 C 358.69,336.08 358.57,336.41 358.45,336.73 C 358.32,337.04 358.18,337.34 358.02,337.62 C 357.87,337.90 357.71,338.16 357.53,338.41 C 357.36,338.65 357.25,338.88 356.97,339.09 C 356.69,339.31 356.32,339.51 355.85,339.70 C 355.39,339.88 354.83,340.05 354.18,340.21 C 353.53,340.37 352.79,340.51 351.95,340.64 C 351.12,340.77 350.19,340.88 349.17,340.98 C 348.15,341.08 347.04,341.17 345.84,341.24 C 344.63,341.31 343.33,341.37 341.95,341.41 C 340.56,341.46 339.07,341.49 337.50,341.50 Z" fill="none" stroke="currentColor" stroke-width="1.5" stroke-linejoin="round" stroke-linecap="round" filter="url(#glow)" />
</svg>