<svg xmlns="http://www.w3.org/2000/svg" width="512" height="512" viewBox="184.80 211.30 162.40 122.40" preserveAspectRatio="xMidYMid meet">
  <defs>
    <filter id="glow" x="-30%" y="-30%" width="160%" height="160%">
      <feGaussianBlur in="SourceGraphic" stdDeviation="2.4" result="blur" />
      <feMerge>
        <feMergeNode in="blur" />
        <feMergeNode in="SourceGraphic" />
      </feMerge>
    </filter>
    <clipPath id="hull-clip">
      <path d="M 220.88,323.50 C 219.70,323.52 218.30,323.51 217.12,323.50 C 215.95,323.49 214.84,323.46 213.80,323.43 C 212.77,323.39 211.81,323.35 210.91,323.29 C 210.02,323.23 209.20,323.16 208.45,323.08 C 207.70,323.00 207.03,322.90 206.42,322.80 C 205.82,322.69 205.28,322.57 204.82,322.45 C 204.36,322.32 203.97,322.18 203.65,322.02 C 203.33,321.87 203.08,321.71 202.91,321.53 C 202.73,321.36 202.69,321.17 202.59,320.97 C 202.50,320.76 202.41,320.54 202.34,320.30 C 202.26,320.07 202.19,319.81 202.13,319.54 C 202.07,319.27 202.02,318.98 201.98,318.67 C 201.94,318.37 201.91,318.04 201.89,317.70 C 201.87,317.36 201.86,317.01 201.85,316.63 C 201.85,316.26 201.85,315.87 201.87,315.46 C 201.88,315.05 201.90,314.63 201.94,314.19 C 201.97,313.75 202.03,313.24 202.06,312.81 C 202.09,312.38 202.11,311.98 202.12,311.61 C 202.14,311.24 202.14,310.89 202.12,310.58 C 202.11,310.26 202.09,309.98 202.06,309.72 C 202.03,309.46 201.99,309.23 201.94,309.03 C 201.89,308.83 201.82,308.66 201.75,308.52 C 201.68,308.37 201.59,308.26 201.50,308.17 C 201.41,308.09 201.30,308.03 201.19,308.00 C 201.07,307.97 200.93,308.03 200.81,308.00 C 200.70,307.97 200.59,307.91 200.48,307.83 C 200.38,307.74 200.29,307.63 200.20,307.48 C 200.12,307.34 200.04,307.17 199.97,306.97 C 199.90,306.77 199.84,306.54 199.78,306.28 C 199.73,306.02 199.68,305.74 199.64,305.42 C 199.60,305.11 199.57,304.76 199.55,304.39 C 199.52,304.02 199.51,303.62 199.50,303.19 C 199.49,302.76 199.51,302.26 199.50,301.81 C 199.49,301.37 199.46,300.93 199.42,300.52 C 199.38,300.10 199.33,299.69 199.27,299.30 C 199.20,298.90 199.12,298.52 199.03,298.16 C 198.94,297.79 198.84,297.43 198.72,297.09 C 198.60,296.75 198.47,296.42 198.33,296.11 C 198.18,295.79 198.03,295.49 197.86,295.20 C 197.69,294.91 197.51,294.64 197.31,294.38 C 197.12,294.11 196.88,293.87 196.69,293.62 C 196.50,293.38 196.33,293.15 196.17,292.92 C 196.02,292.70 195.88,292.48 195.77,292.27 C 195.65,292.05 195.55,291.85 195.47,291.66 C 195.39,291.46 195.33,291.27 195.28,291.09 C 195.24,290.91 195.21,290.74 195.20,290.58 C 195.20,290.41 195.21,290.26 195.23,290.11 C 195.26,289.96 195.31,289.82 195.38,289.69 C 195.44,289.55 195.55,289.51 195.62,289.31 C 195.70,289.12 195.78,288.86 195.84,288.53 C 195.91,288.20 195.97,287.81 196.03,287.34 C 196.09,286.88 196.14,286.35 196.19,285.75 C 196.23,285.15 196.28,284.48 196.31,283.75 C 196.35,283.02 196.38,282.21 196.41,281.34 C 196.43,280.47 196.45,279.54 196.47,278.53 C 196.48,277.53 196.49,276.45 196.50,275.31 C 196.51,274.17 196.51,272.83 196.50,271.69 C 196.49,270.55 196.48,269.47 196.47,268.47 C 196.45,267.46 196.43,266.53 196.41,265.66 C 196.38,264.79 196.35,263.98 196.31,263.25 C 196.28,262.52 196.23,261.85 196.19,261.25 C 196.14,260.65 196.09,260.12 196.03,259.66 C 195.97,259.19 195.91,258.80 195.84,258.47 C 195.78,258.14 195.70,257.88 195.62,257.69 C 195.55,257.49 195.45,257.43 195.38,257.31 C 195.30,257.19 195.24,257.08 195.19,256.97 C 195.14,256.86 195.09,256.76 195.06,256.66 C 195.03,256.56 195.01,256.46 195.00,256.38 C 194.99,256.29 194.99,256.20 195.00,256.12 C 195.01,256.05 195.03,255.97 195.06,255.91 C 195.09,255.84 195.14,255.78 195.19,255.72 C 195.24,255.66 195.30,255.61 195.38,255.56 C 195.45,255.52 195.55,255.48 195.62,255.44 C 195.70,255.39 195.77,255.35 195.83,255.30 C 195.89,255.25 195.94,255.20 195.98,255.14 C 196.03,255.09 196.07,255.03 196.09,254.97 C 196.12,254.91 196.14,254.85 196.16,254.78 C 196.17,254.72 196.17,254.65 196.17,254.58 C 196.17,254.51 196.16,254.43 196.14,254.36 C 196.12,254.28 196.10,254.21 196.06,254.12 C 196.03,254.04 195.96,253.97 195.94,253.88 C 195.91,253.78 195.90,253.67 195.91,253.55 C 195.91,253.42 195.93,253.29 195.97,253.14 C 196.01,252.99 196.06,252.83 196.12,252.66 C 196.19,252.48 196.28,252.29 196.38,252.09 C 196.47,251.89 196.59,251.68 196.72,251.45 C 196.85,251.23 196.99,250.99 197.16,250.73 C 197.32,250.48 197.49,250.22 197.69,249.94 C 197.88,249.66 198.12,249.36 198.31,249.06 C 198.51,248.77 198.68,248.47 198.84,248.17 C 199.01,247.87 199.15,247.57 199.28,247.27 C 199.41,246.96 199.53,246.65 199.62,246.34 C 199.72,246.03 199.81,245.72 199.88,245.41 C 199.94,245.09 199.99,244.77 200.03,244.45 C 200.07,244.13 200.09,243.81 200.09,243.48 C 200.10,243.16 200.09,242.83 200.06,242.50 C 200.04,242.17 199.97,241.81 199.94,241.50 C 199.91,241.19 199.89,240.90 199.88,240.62 C 199.86,240.35 199.86,240.10 199.88,239.88 C 199.89,239.65 199.91,239.44 199.94,239.25 C 199.97,239.06 200.01,238.90 200.06,238.75 C 200.11,238.60 200.18,238.48 200.25,238.38 C 200.32,238.27 200.41,238.19 200.50,238.12 C 200.59,238.06 200.70,238.02 200.81,238.00 C 200.93,237.98 201.07,238.03 201.19,238.00 C 201.30,237.97 201.41,237.90 201.50,237.80 C 201.59,237.70 201.68,237.56 201.75,237.39 C 201.82,237.22 201.89,237.02 201.94,236.78 C 201.99,236.54 202.03,236.27 202.06,235.97 C 202.09,235.66 202.11,235.33 202.12,234.95 C 202.14,234.58 202.14,234.17 202.12,233.73 C 202.11,233.29 202.09,232.82 202.06,232.31 C 202.03,231.80 201.96,231.20 201.94,230.69 C 201.92,230.17 201.91,229.68 201.93,229.21 C 201.95,228.74 201.98,228.30 202.04,227.88 C 202.10,227.46 202.17,227.07 202.27,226.70 C 202.36,226.33 202.48,225.99 202.61,225.67 C 202.74,225.35 202.90,225.06 203.07,224.79 C 203.24,224.52 203.44,224.27 203.65,224.05 C 203.86,223.83 204.09,223.64 204.34,223.47 C 204.60,223.30 204.85,223.17 205.16,223.03 C 205.46,222.89 205.80,222.77 206.18,222.65 C 206.56,222.53 206.97,222.42 207.41,222.32 C 207.86,222.22 208.34,222.13 208.86,222.05 C 209.38,221.96 209.93,221.89 210.52,221.83 C 211.10,221.76 211.73,221.71 212.38,221.66 C 213.04,221.62 213.73,221.58 214.46,221.55 C 215.19,221.53 215.95,221.51 216.75,221.50 C 217.55,221.49 218.45,221.49 219.25,221.50 C 220.05,221.51 220.82,221.52 221.55,221.54 C 222.29,221.56 222.99,221.58 223.66,221.62 C 224.33,221.65 224.97,221.69 225.58,221.73 C 226.18,221.78 226.76,221.83 227.30,221.89 C 227.84,221.95 228.35,222.01 228.82,222.09 C 229.30,222.16 229.74,222.24 230.15,222.32 C 230.56,222.40 230.94,222.50 231.28,222.59 C 231.63,222.69 231.92,222.79 232.22,222.91 C 232.52,223.02 232.80,223.15 233.06,223.30 C 233.33,223.44 233.58,223.60 233.81,223.77 C 234.05,223.93 234.27,224.12 234.47,224.31 C 234.67,224.51 234.86,224.72 235.03,224.94 C 235.20,225.16 235.36,225.39 235.50,225.64 C 235.64,225.89 235.77,226.15 235.88,226.42 C 235.98,226.70 236.08,226.98 236.16,227.28 C 236.23,227.58 236.27,227.93 236.34,228.22 C 236.42,228.51 236.50,228.77 236.60,229.01 C 236.70,229.25 236.81,229.46 236.93,229.65 C 237.05,229.84 237.18,230.00 237.33,230.14 C 237.47,230.28 237.63,230.39 237.80,230.48 C 237.96,230.57 238.14,230.64 238.34,230.68 C 238.53,230.72 238.73,230.74 238.95,230.73 C 239.16,230.72 239.39,230.68 239.62,230.62 C 239.86,230.57 240.09,230.45 240.38,230.38 C 240.66,230.30 240.97,230.22 241.31,230.16 C 241.66,230.09 242.03,230.03 242.44,229.97 C 242.84,229.91 243.28,229.86 243.75,229.81 C 244.22,229.77 244.72,229.72 245.25,229.69 C 245.78,229.65 246.34,229.62 246.94,229.59 C 247.53,229.57 248.16,229.55 248.81,229.53 C 249.47,229.52 250.16,229.51 250.88,229.50 C 251.59,229.49 252.40,229.49 253.12,229.50 C 253.85,229.51 254.54,229.52 255.20,229.55 C 255.87,229.57 256.50,229.60 257.11,229.64 C 257.72,229.68 258.29,229.73 258.84,229.78 C 259.39,229.84 259.91,229.90 260.41,229.97 C 260.90,230.04 261.36,230.12 261.80,230.20 C 262.23,230.29 262.64,230.38 263.02,230.48 C 263.39,230.59 263.74,230.70 264.06,230.81 C 264.38,230.93 264.62,231.07 264.94,231.19 C 265.26,231.30 265.60,231.41 265.97,231.52 C 266.34,231.62 266.73,231.71 267.16,231.80 C 267.58,231.88 268.03,231.96 268.50,232.03 C 268.97,232.10 269.47,232.16 270.00,232.22 C 270.53,232.27 271.08,232.32 271.66,232.36 C 272.23,232.40 272.84,232.43 273.47,232.45 C 274.10,232.48 274.76,232.49 275.44,232.50 C 276.12,232.51 276.89,232.50 277.56,232.50 C 278.24,232.50 278.88,232.50 279.48,232.50 C 280.09,232.50 280.66,232.50 281.20,232.50 C 281.74,232.50 282.25,232.50 282.72,232.50 C 283.19,232.50 283.63,232.50 284.03,232.50 C 284.43,232.50 284.80,232.50 285.14,232.50 C 285.48,232.50 285.78,232.50 286.05,232.50 C 286.32,232.50 286.55,232.50 286.75,232.50 C 286.95,232.50 287.09,232.51 287.25,232.50 C 287.41,232.49 287.56,232.46 287.70,232.43 C 287.83,232.39 287.96,232.35 288.09,232.29 C 288.21,232.23 288.32,232.16 288.42,232.08 C 288.52,232.00 288.62,231.90 288.70,231.80 C 288.79,231.69 288.86,231.57 288.93,231.45 C 289.00,231.32 289.05,231.18 289.10,231.02 C 289.15,230.87 289.19,230.71 289.22,230.53 C 289.25,230.36 289.25,230.15 289.28,229.97 C 289.31,229.78 289.35,229.60 289.39,229.42 C 289.43,229.24 289.49,229.07 289.55,228.89 C 289.61,228.72 289.67,228.54 289.75,228.38 C 289.83,228.21 289.91,228.04 290.00,227.88 C 290.09,227.71 290.19,227.55 290.30,227.39 C 290.40,227.23 290.52,227.08 290.64,226.92 C 290.76,226.77 290.89,226.62 291.03,226.47 C 291.17,226.32 291.26,226.17 291.47,226.03 C 291.68,225.89 291.94,225.77 292.27,225.65 C 292.60,225.53 292.99,225.42 293.45,225.32 C 293.90,225.22 294.41,225.13 294.98,225.05 C 295.56,224.96 296.19,224.89 296.89,224.83 C 297.59,224.76 298.35,224.71 299.16,224.66 C 299.98,224.62 300.86,224.58 301.80,224.55 C 302.75,224.53 303.75,224.51 304.81,224.50 C 305.88,224.49 307.12,224.49 308.19,224.50 C 309.25,224.51 310.25,224.53 311.20,224.55 C 312.14,224.58 313.02,224.62 313.84,224.66 C 314.65,224.71 315.41,224.76 316.11,224.83 C 316.81,224.89 317.44,224.96 318.02,225.05 C 318.59,225.13 319.10,225.22 319.55,225.32 C 320.01,225.42 320.40,225.53 320.73,225.65 C 321.06,225.77 321.32,225.89 321.53,226.03 C 321.74,226.17 321.83,226.32 321.97,226.47 C 322.11,226.62 322.24,226.78 322.36,226.95 C 322.48,227.12 322.60,227.30 322.70,227.48 C 322.81,227.67 322.91,227.86 323.00,228.06 C 323.09,228.26 323.17,228.47 323.25,228.69 C 323.33,228.90 323.39,229.13 323.45,229.36 C 323.51,229.59 323.57,229.83 323.61,230.08 C 323.65,230.33 323.69,230.58 323.72,230.84 C 323.75,231.11 323.74,231.41 323.78,231.66 C 323.82,231.91 323.88,232.14 323.95,232.34 C 324.03,232.55 324.12,232.74 324.23,232.91 C 324.35,233.07 324.48,233.22 324.62,233.34 C 324.77,233.47 324.94,233.57 325.12,233.66 C 325.31,233.74 325.51,233.80 325.73,233.84 C 325.96,233.89 326.20,233.91 326.45,233.91 C 326.71,233.91 326.99,233.89 327.28,233.84 C 327.58,233.80 327.93,233.69 328.22,233.66 C 328.51,233.62 328.78,233.61 329.02,233.62 C 329.27,233.63 329.49,233.67 329.70,233.73 C 329.90,233.79 330.08,233.87 330.23,233.98 C 330.39,234.10 330.53,234.23 330.64,234.39 C 330.75,234.55 330.85,234.74 330.91,234.95 C 330.98,235.15 331.03,235.39 331.05,235.65 C 331.08,235.91 331.08,236.19 331.06,236.50 C 331.04,236.81 330.97,237.18 330.94,237.50 C 330.90,237.82 330.88,238.13 330.86,238.42 C 330.84,238.72 330.83,239.00 330.83,239.27 C 330.83,239.53 330.83,239.79 330.84,240.03 C 330.86,240.27 330.88,240.50 330.91,240.72 C 330.93,240.93 330.97,241.14 331.02,241.33 C 331.06,241.52 331.11,241.70 331.17,241.86 C 331.23,242.02 331.30,242.17 331.38,242.31 C 331.45,242.45 331.55,242.56 331.62,242.69 C 331.70,242.81 331.77,242.94 331.83,243.06 C 331.89,243.19 331.94,243.31 331.98,243.44 C 332.03,243.56 332.07,243.69 332.09,243.81 C 332.12,243.94 332.14,244.06 332.16,244.19 C 332.17,244.31 332.17,244.44 332.17,244.56 C 332.17,244.69 332.16,244.81 332.14,244.94 C 332.12,245.06 332.10,245.19 332.06,245.31 C 332.03,245.44 331.97,245.55 331.94,245.69 C 331.91,245.82 331.89,245.97 331.89,246.12 C 331.89,246.28 331.90,246.45 331.92,246.62 C 331.95,246.80 331.98,246.99 332.03,247.19 C 332.08,247.39 332.14,247.59 332.22,247.81 C 332.29,248.03 332.38,248.26 332.48,248.50 C 332.59,248.74 332.70,248.99 332.83,249.25 C 332.96,249.51 333.10,249.78 333.25,250.06 C 333.40,250.34 333.59,250.60 333.75,250.94 C 333.91,251.28 334.07,251.66 334.22,252.09 C 334.37,252.53 334.52,253.01 334.66,253.53 C 334.80,254.06 334.93,254.63 335.06,255.25 C 335.19,255.87 335.32,256.54 335.44,257.25 C 335.56,257.96 335.67,258.72 335.78,259.53 C 335.89,260.34 335.99,261.19 336.09,262.09 C 336.19,262.99 336.29,263.94 336.38,264.94 C 336.46,265.93 336.55,267.08 336.62,268.06 C 336.70,269.05 336.76,269.97 336.81,270.84 C 336.86,271.71 336.91,272.53 336.94,273.28 C 336.97,274.04 336.99,274.73 337.00,275.38 C 337.01,276.02 337.01,276.60 337.00,277.12 C 336.99,277.65 336.97,278.12 336.94,278.53 C 336.91,278.94 336.86,279.30 336.81,279.59 C 336.76,279.89 336.70,280.13 336.62,280.31 C 336.55,280.49 336.45,280.54 336.38,280.69 C 336.30,280.83 336.22,281.00 336.16,281.19 C 336.09,281.38 336.03,281.58 335.97,281.81 C 335.91,282.04 335.86,282.29 335.81,282.56 C 335.77,282.83 335.72,283.12 335.69,283.44 C 335.65,283.75 335.62,284.08 335.59,284.44 C 335.57,284.79 335.55,285.17 335.53,285.56 C 335.52,285.96 335.51,286.38 335.50,286.81 C 335.49,287.25 335.51,287.74 335.50,288.19 C 335.49,288.64 335.47,289.07 335.44,289.50 C 335.41,289.93 335.36,290.34 335.31,290.75 C 335.26,291.16 335.20,291.55 335.12,291.94 C 335.05,292.32 334.97,292.70 334.88,293.06 C 334.78,293.43 334.68,293.78 334.56,294.12 C 334.45,294.47 334.32,294.80 334.19,295.12 C 334.05,295.45 333.91,295.76 333.75,296.06 C 333.59,296.36 333.41,296.63 333.25,296.94 C 333.09,297.24 332.95,297.57 332.81,297.91 C 332.68,298.24 332.55,298.60 332.44,298.97 C 332.32,299.34 332.22,299.72 332.12,300.12 C 332.03,300.53 331.95,300.94 331.88,301.38 C 331.80,301.81 331.74,302.26 331.69,302.72 C 331.64,303.18 331.59,303.66 331.56,304.16 C 331.53,304.65 331.51,305.16 331.50,305.69 C 331.49,306.21 331.50,306.80 331.50,307.31 C 331.50,307.82 331.49,308.31 331.48,308.76 C 331.46,309.21 331.45,309.63 331.43,310.02 C 331.41,310.42 331.39,310.78 331.36,311.11 C 331.33,311.44 331.30,311.74 331.27,312.02 C 331.23,312.29 331.19,312.53 331.15,312.74 C 331.11,312.95 331.06,313.14 331.01,313.29 C 330.96,313.44 330.90,313.56 330.84,313.66 C 330.79,313.75 330.73,313.79 330.66,313.84 C 330.58,313.90 330.50,313.94 330.40,313.98 C 330.30,314.01 330.19,314.04 330.07,314.05 C 329.95,314.07 329.82,314.08 329.67,314.08 C 329.53,314.08 329.37,314.07 329.20,314.05 C 329.04,314.03 328.86,314.00 328.66,313.96 C 328.47,313.92 328.27,313.88 328.05,313.82 C 327.84,313.76 327.61,313.70 327.38,313.62 C 327.14,313.55 326.86,313.43 326.62,313.38 C 326.39,313.32 326.16,313.29 325.94,313.30 C 325.72,313.30 325.51,313.33 325.31,313.39 C 325.11,313.45 324.93,313.54 324.75,313.66 C 324.57,313.77 324.41,313.92 324.25,314.09 C 324.09,314.27 323.95,314.47 323.81,314.70 C 323.68,314.93 323.55,315.20 323.44,315.48 C 323.32,315.77 323.22,316.09 323.12,316.44 C 323.03,316.78 323.03,317.21 322.88,317.56 C 322.72,317.91 322.48,318.24 322.17,318.55 C 321.86,318.85 321.48,319.13 321.02,319.39 C 320.55,319.65 320.02,319.88 319.41,320.09 C 318.79,320.30 318.11,320.49 317.34,320.66 C 316.58,320.82 315.74,320.96 314.83,321.08 C 313.91,321.20 312.92,321.29 311.86,321.36 C 310.79,321.43 309.65,321.48 308.44,321.50 C 307.22,321.52 305.78,321.52 304.56,321.50 C 303.35,321.48 302.21,321.45 301.14,321.39 C 300.08,321.34 299.09,321.26 298.17,321.17 C 297.26,321.08 296.42,320.97 295.66,320.84 C 294.89,320.72 294.21,320.57 293.59,320.41 C 292.98,320.24 292.45,320.06 291.98,319.86 C 291.52,319.66 291.14,319.44 290.83,319.20 C 290.52,318.97 290.28,318.71 290.12,318.44 C 289.97,318.16 290.08,317.84 289.88,317.56 C 289.67,317.29 289.33,317.03 288.88,316.80 C 288.42,316.56 287.83,316.34 287.12,316.14 C 286.42,315.94 285.58,315.76 284.62,315.59 C 283.67,315.43 282.58,315.28 281.38,315.16 C 280.17,315.03 278.83,314.92 277.38,314.83 C 275.92,314.74 274.33,314.66 272.62,314.61 C 270.92,314.55 269.08,314.52 267.12,314.50 C 265.17,314.48 262.84,314.49 260.88,314.50 C 258.91,314.51 257.07,314.52 255.35,314.54 C 253.63,314.56 252.03,314.58 250.55,314.62 C 249.08,314.65 247.72,314.69 246.48,314.73 C 245.25,314.78 244.13,314.83 243.14,314.89 C 242.15,314.95 241.27,315.01 240.52,315.09 C 239.77,315.16 239.14,315.24 238.63,315.32 C 238.12,315.40 237.74,315.50 237.47,315.59 C 237.20,315.69 237.17,315.79 237.03,315.91 C 236.89,316.02 236.76,316.15 236.62,316.28 C 236.49,316.42 236.37,316.56 236.25,316.72 C 236.13,316.88 236.02,317.04 235.91,317.22 C 235.80,317.40 235.69,317.58 235.59,317.78 C 235.49,317.98 235.40,318.19 235.31,318.41 C 235.22,318.62 235.14,318.85 235.06,319.09 C 234.98,319.33 234.91,319.58 234.84,319.84 C 234.78,320.10 234.79,320.40 234.66,320.66 C 234.52,320.91 234.31,321.15 234.02,321.37 C 233.74,321.59 233.38,321.79 232.95,321.98 C 232.51,322.16 232.00,322.33 231.42,322.48 C 230.84,322.64 230.18,322.77 229.45,322.89 C 228.72,323.01 227.92,323.11 227.04,323.20 C 226.16,323.28 225.21,323.35 224.18,323.40 C 223.15,323.45 222.05,323.48 220.88,323.50 Z" />
    </clipPath>
  </defs>
  <path d="M 220.88,323.50 C 219.70,323.52 218.30,323.51 217.12,323.50 C 215.95,323.49 214.84,323.46 213.80,323.43 C 212.77,323.39 211.81,323.35 210.91,323.29 C 210.02,323.23 209.20,323.16 208.45,323.08 C 207.70,323.00 207.03,322.90 206.42,322.80 C 205.82,322.69 205.28,322.57 204.82,322.45 C 204.36,322.32 203.97,322.18 203.65,322.02 C 203.33,321.87 203.08,321.71 202.91,321.53 C 202.73,321.36 202.69,321.17 202.59,320.97 C 202.50,320.76 202.41,320.54 202.34,320.30 C 202.26,320.07 202.19,319.81 202.13,319.54 C 202.07,319.27 202.02,318.98 201.98,318.67 C 201.94,318.37 201.91,318.04 201.89,317.70 C 201.87,317.36 201.86,317.01 201.85,316.63 C 201.85,316.26 201.85,315.87 201.87,315.46 C 201.88,315.05 201.90,314.63 201.94,314.19 C 201.97,313.75 202.03,313.24 202.06,312.81 C 202.09,312.38 202.11,311.98 202.12,311.61 C 202.14,311.24 202.14,310.89 202.12,310.58 C 202.11,310.26 202.09,309.98 202.06,309.72 C 202.03,309.46 201.99,309.23 201.94,309.03 C 201.89,308.83 201.82,308.66 201.75,308.52 C 201.68,308.37 201.59,308.26 201.50,308.17 C 201.41,308.09 201.30,308.03 201.19,308.00 C 201.07,307.97 200.93,308.03 200.81,308.00 C 200.70,307.97 200.59,307.91 200.48,307.83 C 200.38,307.74 200.29,307.63 200.20,307.48 C 200.12,307.34 200.04,307.17 199.97,306.97 C 199.90,306.77 199.84,306.54 199.78,306.28 C 199.73,306.02 199.68,305.74 199.64,305.42 C 199.60,305.11 199.57,304.76 199.55,304.39 C 199.52,304.02 199.51,303.62 199.50,303.19 C 199.49,302.76 199.51,302.26 199.50,301.81 C 199.49,301.37 199.46,300.93 199.42,300.52 C 199.38,300.10 199.33,299.69 199.27,299.30 C 199.20,298.90 199.12,298.52 199.03,298.16 C 198.94,297.79 198.84,297.43 198.72,297.09 C 198.60,296.75 198.47,296.42 198.33,296.11 C 198.18,295.79 198.03,295.49 197.86,295.20 C 197.69,294.91 197.51,294.64 197.31,294.38 C 197.12,294.11 196.88,293.87 196.69,293.62 C 196.50,293.38 196.33,293.15 196.17,292.92 C 196.02,292.70 195.88,292.48 195.77,292.27 C 195.65,292.05 195.55,291.85 195.47,291.66 C 195.39,291.46 195.33,291.27 195.28,291.09 C 195.24,290.91 195.21,290.74 195.20,290.58 C 195.20,290.41 195.21,290.26 195.23,290.11 C 195.26,289.96 195.31,289.82 195.38,289.69 C 195.44,289.55 195.55,289.51 195.62,289.31 C 195.70,289.12 195.78,288.86 195.84,288.53 C 195.91,288.20 195.97,287.81 196.03,287.34 C 196.09,286.88 196.14,286.35 196.19,285.75 C 196.23,285.15 196.28,284.48 196.31,283.75 C 196.35,283.02 196.38,282.21 196.41,281.34 C 196.43,280.47 196.45,279.54 196.47,278.53 C 196.48,277.53 196.49,276.45 196.50,275.31 C 196.51,274.17 196.51,272.83 196.50,271.69 C 196.49,270.55 196.48,269.47 196.47,268.47 C 196.45,267.46 196.43,266.53 196.41,265.66 C 196.38,264.79 196.35,263.98 196.31,263.25 C 196.28,262.52 196.23,261.85 196.19,261.25 C 196.14,260.65 196.09,260.12 196.03,259.66 C 195.97,259.19 195.91,258.80 195.84,258.47 C 195.78,258.14 195.70,257.88 195.62,257.69 C 195.55,257.49 195.45,257.43 195.38,257.31 C 195.30,257.19 195.24,257.08 195.19,256.97 C 195.14,256.86 195.09,256.76 195.06,256.66 C 195.03,256.56 195.01,256.46 195.00,256.38 C 194.99,256.29 194.99,256.20 195.00,256.12 C 195.01,256.05 195.03,255.97 195.06,255.91 C 195.09,255.84 195.14,255.78 195.19,255.72 C 195.24,255.66 195.30,255.61 195.38,255.56 C 195.45,255.52 195.55,255.48 195.62,255.44 C 195.70,255.39 195.77,255.35 195.83,255.30 C 195.89,255.25 195.94,255.20 195.98,255.14 C 196.03,255.09 196.07,255.03 196.09,254.97 C 196.12,254.91 196.14,254.85 196.16,254.78 C 196.17,254.72 196.17,254.65 196.17,254.58 C 196.17,254.51 196.16,254.43 196.14,254.36 C 196.12,254.28 196.10,254.21 196.06,254.12 C 196.03,254.04 195.96,253.97 195.94,253.88 C 195.91,253.78 195.90,253.67 195.91,253.55 C 195.91,253.42 195.93,253.29 195.97,253.14 C 196.01,252.99 196.06,252.83 196.12,252.66 C 196.19,252.48 196.28,252.29 196.38,252.09 C 196.47,251.89 196.59,251.68 196.72,251.45 C 196.85,251.23 196.99,250.99 197.16,250.73 C 197.32,250.48 197.49,250.22 197.69,249.94 C 197.88,249.66 198.12,249.36 198.31,249.06 C 198.51,248.77 198.68,248.47 198.84,248.17 C 199.01,247.87 199.15,247.57 199.28,247.27 C 199.41,246.96 199.53,246.65 199.62,246.34 C 199.72,246.03 199.81,245.72 199.88,245.41 C 199.94,245.09 199.99,244.77 200.03,244.45 C 200.07,244.13 200.09,243.81 200.09,243.48 C 200.10,243.16 200.09,242.83 200.06,242.50 C 200.04,242.17 199.97,241.81 199.94,241.50 C 199.91,241.19 199.89,240.90 199.88,240.62 C 199.86,240.35 199.86,240.10 199.88,239.88 C 199.89,239.65 199.91,239.44 199.94,239.25 C 199.97,239.06 200.01,238.90 200.06,238.75 C 200.11,238.60 200.18,238.48 200.25,238.38 C 200.32,238.27 200.41,238.19 200.50,238.12 C 200.59,238.06 200.70,238.02 200.81,238.00 C 200.93,237.98 201.07,238.03 201.19,238.00 C 201.30,237.97 201.41,237.90 201.50,237.80 C 201.59,237.70 201.68,237.56 201.75,237.39 C 201.82,237.22 201.89,237.02 201.94,236.78 C 201.99,236.54 202.03,236.27 202.06,235.97 C 202.09,235.66 202.11,235.33 202.12,234.95 C 202.14,234.58 202.14,234.17 202.12,233.73 C 202.11,233.29 202.09,232.82 202.06,232.31 C 202.03,231.80 201.96,231.20 201.94,230.69 C 201.92,230.17 201.91,229.68 201.93,229.21 C 201.95,228.74 201.98,228.30 202.04,227.88 C 202.10,227.46 202.17,227.07 202.27,226.70 C 202.36,226.33 202.48,225.99 202.61,225.67 C 202.74,225.35 202.90,225.06 203.07,224.79 C 203.24,224.52 203.44,224.27 203.65,224.05 C 203.86,223.83 204.09,223.64 204.34,223.47 C 204.60,223.30 204.85,223.17 205.16,223.03 C 205.46,222.89 205.80,222.77 206.18,222.65 C 206.56,222.53 206.97,222.42 207.41,222.32 C 207.86,222.22 208.34,222.13 208.86,222.05 C 209.38,221.96 209.93,221.89 210.52,221.83 C 211.10,221.76 211.73,221.71 212.38,221.66 C 213.04,221.62 213.73,221.58 214.46,221.55 C 215.19,221.53 215.95,221.51 216.75,221.50 C 217.55,221.49 218.45,221.49 219.25,221.50 C 220.05,221.51 220.82,221.52 221.55,221.54 C 222.29,221.56 222.99,221.58 223.66,221.62 C 224.33,221.65 224.97,221.69 225.58,221.73 C 226.18,221.78 226.76,221.83 227.30,221.89 C 227.84,221.95 228.35,222.01 228.82,222.09 C 229.30,222.16 229.74,222.24 230.15,222.32 C 230.56,222.40 230.94,222.50 231.28,222.59 C 231.63,222.69 231.92,222.79 232.22,222.91 C 232.52,223.02 232.80,223.15 233.06,223.30 C 233.33,223.44 233.58,223.60 233.81,223.77 C 234.05,223.93 234.27,224.12 234.47,224.31 C 234.67,224.51 234.86,224.72 235.03,224.94 C 235.20,225.16 235.36,225.39 235.50,225.64 C 235.64,225.89 235.77,226.15 235.88,226.42 C 235.98,226.70 236.08,226.98 236.16,227.28 C 236.23,227.58 236.27,227.93 236.34,228.22 C 236.42,228.51 236.50,228.77 236.60,229.01 C 236.70,229.25 236.81,229.46 236.93,229.65 C 237.05,229.84 237.18,230.00 237.33,230.14 C 237.47,230.28 237.63,230.39 237.80,230.48 C 237.96,230.57 238.14,230.64 238.34,230.68 C 238.53,230.72 238.73,230.74 238.95,230.73 C 239.16,230.72 239.39,230.68 239.62,230.62 C 239.86,230.57 240.09,230.45 240.38,230.38 C 240.66,230.30 240.97,230.22 241.31,230.16 C 241.66,230.09 242.03,230.03 242.44,229.97 C 242.84,229.91 243.28,229.86 243.75,229.81 C 244.22,229.77 244.72,229.72 245.25,229.69 C 245.78,229.65 246.34,229.62 246.94,229.59 C 247.53,229.57 248.16,229.55 248.81,229.53 C 249.47,229.52 250.16,229.51 250.88,229.50 C 251.59,229.49 252.40,229.49 253.12,229.50 C 253.85,229.51 254.54,229.52 255.20,229.55 C 255.87,229.57 256.50,229.60 257.11,229.64 C 257.72,229.68 258.29,229.73 258.84,229.78 C 259.39,229.84 259.91,229.90 260.41,229.97 C 260.90,230.04 261.36,230.12 261.80,230.20 C 262.23,230.29 262.64,230.38 263.02,230.48 C 263.39,230.59 263.74,230.70 264.06,230.81 C 264.38,230.93 264.62,231.07 264.94,231.19 C 265.26,231.30 265.60,231.41 265.97,231.52 C 266.34,231.62 266.73,231.71 267.16,231.80 C 267.58,231.88 268.03,231.96 268.50,232.03 C 268.97,232.10 269.47,232.16 270.00,232.22 C 270.53,232.27 271.08,232.32 271.66,232.36 C 272.23,232.40 272.84,232.43 273.47,232.45 C 274.10,232.48 274.76,232.49 275.44,232.50 C 276.12,232.51 276.89,232.50 277.56,232.50 C 278.24,232.50 278.88,232.50 279.48,232.50 C 280.09,232.50 280.66,232.50 281.20,232.50 C 281.74,232.50 282.25,232.50 282.72,232.50 C 283.19,232.50 283.63,232.50 284.03,232.50 C 284.43,232.50 284.80,232.50 285.14,232.50 C 285.48,232.50 285.78,232.50 286.05,232.50 C 286.32,232.50 286.55,232.50 286.75,232.50 C 286.95,232.50 287.09,232.51 287.25,232.50 C 287.41,232.49 287.56,232.46 287.70,232.43 C 287.83,232.39 287.96,232.35 288.09,232.29 C 288.21,232.23 288.32,232.16 288.42,232.08 C 288.52,232.00 288.62,231.90 288.70,231.80 C 288.79,231.69 288.86,231.57 288.93,231.45 C 289.00,231.32 289.05,231.18 289.10,231.02 C 289.15,230.87 289.19,230.71 289.22,230.53 C 289.25,230.36 289.25,230.15 289.28,229.97 C 289.31,229.78 289.35,229.60 289.39,229.42 C 289.43,229.24 289.49,229.07 289.55,228.89 C 289.61,228.72 289.67,228.54 289.75,228.38 C 289.83,228.21 289.91,228.04 290.00,227.88 C 290.09,227.71 290.19,227.55 290.30,227.39 C 290.40,227.23 290.52,227.08 290.64,226.92 C 290.76,226.77 290.89,226.62 291.03,226.47 C 291.17,226.32 291.26,226.17 291.47,226.03 C 291.68,225.89 291.94,225.77 292.27,225.65 C 292.60,225.53 292.99,225.42 293.45,225.32 C 293.90,225.22 294.41,225.13 294.98,225.05 C 295.56,224.96 296.19,224.89 296.89,224.83 C 297.59,224.76 298.35,224.71 299.16,224.66 C 299.98,224.62 300.86,224.58 301.80,224.55 C 302.75,224.53 303.75,224.51 304.81,224.50 C 305.88,224.49 307.12,224.49 308.19,224.50 C 309.25,224.51 310.25,224.53 311.20,224.55 C 312.14,224.58 313.02,224.62 313.84,224.66 C 314.65,224.71 315.41,224.76 316.11,224.83 C 316.81,224.89 317.44,224.96 318.02,225.05 C 318.59,225.13 319.10,225.22 319.55,225.32 C 320.01,225.42 320.40,225.53 320.73,225.65 C 321.06,225.77 321.32,225.89 321.53,226.03 C 321.74,226.17 321.83,226.32 321.97,226.47 C 322.11,226.62 322.24,226.78 322.36,226.95 C 322.48,227.12 322.60,227.30 322.70,227.48 C 322.81,227.67 322.91,227.86 323.00,228.06 C 323.09,228.26 323.17,228.47 323.25,228.69 C 323.33,228.90 323.39,229.13 323.45,229.36 C 323.51,229.59 323.57,229.83 323.61,230.08 C 323.65,230.33 323.69,230.58 323.72,230.84 C 323.75,231.11 323.74,231.41 323.78,231.66 C 323.82,231.91 323.88,232.14 323.95,232.34 C 324.03,232.55 324.12,232.74 324.23,232.91 C 324.35,233.07 324.48,233.22 324.62,233.34 C 324.77,233.47 324.94,233.57 325.12,233.66 C 325.31,233.74 325.51,233.80 325.73,233.84 C 325.96,233.89 326.20,233.91 326.45,233.91 C 326.71,233.91 326.99,233.89 327.28,233.84 C 327.58,233.80 327.93,233.69 328.22,233.66 C 328.51,233.62 328.78,233.61 329.02,233.62 C 329.27,233.63 329.49,233.67 329.70,233.73 C 329.90,233.79 330.08,233.87 330.23,233.98 C 330.39,234.10 330.53,234.23 330.64,234.39 C 330.75,234.55 330.85,234.74 330.91,234.95 C 330.98,235.15 331.03,235.39 331.05,235.65 C 331.08,235.91 331.08,236.19 331.06,236.50 C 331.04,236.81 330.97,237.18 330.94,237.50 C 330.90,237.82 330.88,238.13 330.86,238.42 C 330.84,238.72 330.83,239.00 330.83,239.27 C 330.83,239.53 330.83,239.79 330.84,240.03 C 330.86,240.27 330.88,240.50 330.91,240.72 C 330.93,240.93 330.97,241.14 331.02,241.33 C 331.06,241.52 331.11,241.70 331.17,241.86 C 331.23,242.02 331.30,242.17 331.38,242.31 C 331.45,242.45 331.55,242.56 331.62,242.69 C 331.70,242.81 331.77,242.94 331.83,243.06 C 331.89,243.19 331.94,243.31 331.98,243.44 C 332.03,243.56 332.07,243.69 332.09,243.81 C 332.12,243.94 332.14,244.06 332.16,244.19 C 332.17,244.31 332.17,244.44 332.17,244.56 C 332.17,244.69 332.16,244.81 332.14,244.94 C 332.12,245.06 332.10,245.19 332.06,245.31 C 332.03,245.44 331.97,245.55 331.94,245.69 C 331.91,245.82 331.89,245.97 331.89,246.12 C 331.89,246.28 331.90,246.45 331.92,246.62 C 331.95,246.80 331.98,246.99 332.03,247.19 C 332.08,247.39 332.14,247.59 332.22,247.81 C 332.29,248.03 332.38,248.26 332.48,248.50 C 332.59,248.74 332.70,248.99 332.83,249.25 C 332.96,249.51 333.10,249.78 333.25,250.06 C 333.40,250.34 333.59,250.60 333.75,250.94 C 333.91,251.28 334.07,251.66 334.22,252.09 C 334.37,252.53 334.52,253.01 334.66,253.53 C 334.80,254.06 334.93,254.63 335.06,255.25 C 335.19,255.87 335.32,256.54 335.44,257.25 C 335.56,257.96 335.67,258.72 335.78,259.53 C 335.89,260.34 335.99,261.19 336.09,262.09 C 336.19,262.99 336.29,263.94 336.38,264.94 C 336.46,265.93 336.55,267.08 336.62,268.06 C 336.70,269.05 336.76,269.97 336.81,270.84 C 336.86,271.71 336.91,272.53 336.94,273.28 C 336.97,274.04 336.99,274.73 337.00,275.38 C 337.01,276.02 337.01,276.60 337.00,277.12 C 336.99,277.65 336.97,278.12 336.94,278.53 C 336.91,278.94 336.86,279.30 336.81,279.59 C 336.76,279.89 336.70,280.13 336.62,280.31 C 336.55,280.49 336.45,280.54 336.38,280.69 C 336.30,280.83 336.22,281.00 336.16,281.19 C 336.09,281.38 336.03,281.58 335.97,281.81 C 335.91,282.04 335.86,282.29 335.81,282.56 C 335.77,282.83 335.72,283.12 335.69,283.44 C 335.65,283.75 335.62,284.08 335.59,284.44 C 335.57,284.79 335.55,285.17 335.53,285.56 C 335.52,285.96 335.51,286.38 335.50,286.81 C 335.49,287.25 335.51,287.74 335.50,288.19 C 335.49,288.64 335.47,289.07 335.44,289.50 C 335.41,289.93 335.36,290.34 335.31,290.75 C 335.26,291.16 335.20,291.55 335.12,291.94 C 335.05,292.32 334.97,292.70 334.88,293.06 C 334.78,293.43 334.68,293.78 334.56,294.12 C 334.45,294.47 334.32,294.80 334.19,295.12 C 334.05,295.45 333.91,295.76 333.75,296.06 C 333.59,296.36 333.41,296.63 333.25,296.94 C 333.09,297.24 332.95,297.57 332.81,297.91 C 332.68,298.24 332.55,298.60 332.44,298.97 C 332.32,299.34 332.22,299.72 332.12,300.12 C 332.03,300.53 331.95,300.94 331.88,301.38 C 331.80,301.81 331.74,302.26 331.69,302.72 C 331.64,303.18 331.59,303.66 331.56,304.16 C 331.53,304.65 331.51,305.16 331.50,305.69 C 331.49,306.21 331.50,306.80 331.50,307.31 C 331.50,307.82 331.49,308.31 331.48,308.76 C 331.46,309.21 331.45,309.63 331.43,310.02 C 331.41,310.42 331.39,310.78 331.36,311.11 C 331.33,311.44 331.30,311.74 331.27,312.02 C 331.23,312.29 331.19,312.53 331.15,312.74 C 331.11,312.95 331.06,313.14 331.01,313.29 C 330.96,313.44 330.90,313.56 330.84,313.66 C 330.79,313.75 330.73,313.79 330.66,313.84 C 330.58,313.90 330.50,313.94 330.40,313.98 C 330.30,314.01 330.19,314.04 330.07,314.05 C 329.95,314.07 329.82,314.08 329.67,314.08 C 329.53,314.08 329.37,314.07 329.20,314.05 C 329.04,314.03 328.86,314.00 328.66,313.96 C 328.47,313.92 328.27,313.88 328.05,313.82 C 327.84,313.76 327.61,313.70 327.38,313.62 C 327.14,313.55 326.86,313.43 326.62,313.38 C 326.39,313.32 326.16,313.29 325.94,313.30 C 325.72,313.30 325.51,313.33 325.31,313.39 C 325.11,313.45 324.93,313.54 324.75,313.66 C 324.57,313.77 324.41,313.92 324.25,314.09 C 324.09,314.27 323.95,314.47 323.81,314.70 C 323.68,314.93 323.55,315.20 323.44,315.48 C 323.32,315.77 323.22,316.09 323.12,316.44 C 323.03,316.78 323.03,317.21 322.88,317.56 C 322.72,317.91 322.48,318.24 322.17,318.55 C 321.86,318.85 321.48,319.13 321.02,319.39 C 320.55,319.65 320.02,319.88 319.41,320.09 C 318.79,320.30 318.11,320.49 317.34,320.66 C 316.58,320.82 315.74,320.96 314.83,321.08 C 313.91,321.20 312.92,321.29 311.86,321.36 C 310.79,321.43 309.65,321.48 308.44,321.50 C 307.22,321.52 305.78,321.52 304.56,321.50 C 303.35,321.48 302.21,321.45 301.14,321.39 C 300.08,321.34 299.09,321.26 298.17,321.17 C 297.26,321.08 296.42,320.97 295.66,320.84 C 294.89,320.72 294.21,320.57 293.59,320.41 C 292.98,320.24 292.45,320.06 291.98,319.86 C 291.52,319.66 291.14,319.44 290.83,319.20 C 290.52,318.97 290.28,318.71 290.12,318.44 C 289.97,318.16 290.08,317.84 289.88,317.56 C 289.67,317.29 289.33,317.03 288.88,316.80 C 288.42,316.56 287.83,316.34 287.12,316.14 C 286.42,315.94 285.58,315.76 284.62,315.59 C 283.67,315.43 282.58,315.28 281.38,315.16 C 280.17,315.03 278.83,314.92 277.38,314.83 C 275.92,314.74 274.33,314.66 272.62,314.61 C 270.92,314.55 269.08,314.52 267.12,314.50 C 265.17,314.48 262.84,314.49 260.88,314.50 C 258.91,314.51 257.07,314.52 255.35,314.54 C 253.63,314.56 252.03,314.58 250.55,314.62 C 249.08,314.65 247.72,314.69 246.48,314.73 C 245.25,314.78 244.13,314.83 243.14,314.89 C 242.15,314.95 241.27,315.01 240.52,315.09 C 239.77,315.16 239.14,315.24 238.63,315.32 C 238.12,315.40 237.74,315.50 237.47,315.59 C 237.20,315.69 237.17,315.79 237.03,315.91 C 236.89,316.02 236.76,316.15 236.62,316.28 C 236.49,316.42 236.37,316.56 236.25,316.72 C 236.13,316.88 236.02,317.04 235.91,317.22 C 235.80,317.40 235.69,317.58 235.59,317.78 C 235.49,317.98 235.40,318.19 235.31,318.41 C 235.22,318.62 235.14,318.85 235.06,319.09 C 234.98,319.33 234.91,319.58 234.84,319.84 C 234.78,320.10 234.79,320.40 234.66,320.66 C 234.52,320.91 234.31,321.15 234.02,321.37 C 233.74,321.59 233.38,321.79 232.95,321.98 C 232.51,322.16 232.00,322.33 231.42,322.48 C 230.84,322.64 230.18,322.77 229.45,322.89 C 228.72,323.01 227.92,323.11 227.04,323.20 C 226.16,323.28 225.21,323.35 224.18,323.40 C 223.15,323.45 222.05,323.48 220.88,323.50 Z" stroke="none" fill="currentColor" opacity="0.11" />
  <path d="M264.93,264.90L264.93,282.75 M268.64,283.04L268.67,287.72 M268.67,287.72L268.64,292.41 M268.57,282.96L268.67,287.72 M268.57,292.49L268.67,287.72 M268.58,282.97L268.67,287.72 M268.68,282.15L268.57,293.37 M272.28,293.45L268.68,293.36 M268.68,293.50L272.28,293.45 M271.22,292.80L276.70,292.78 M271.22,282.65L276.70,282.67 M275.78,284.95L268.67,284.92 M268.67,290.53L275.78,290.50 M268.59,293.31L268.67,282.09 M267.51,292.72L267.51,282.75 M267.92,252.74L274.14,252.87 M274.14,252.87L268.02,252.92 M274.14,252.87L268.02,252.92 M274.14,252.87L267.92,252.73 M267.92,252.79L274.12,252.97 M267.92,253.30L274.12,253.14 M267.92,258.20L274.13,258.03 M274.13,258.03L268.01,258.03 M272.17,253.13L268.06,253.14 M272.17,253.13L268.06,253.11 M272.17,257.81L268.06,257.80 M272.17,257.81L268.06,257.86 M267.59,252.75L267.75,258.15 M267.36,261.08L267.15,261.13 M276.41,261.09L268.19,261.18 M276.41,252.74L268.19,252.65 M246.60,302.50L246.60,302.50 M246.08,302.50L246.08,302.50 M249.58,302.50L249.58,302.50 M268.02,262.30L273.95,262.27 M268.02,262.30L273.96,262.31 M273.96,262.31L267.92,262.13 M268.44,267.31L272.96,267.39 M268.25,262.34L273.00,262.36 M258.56,302.56L258.56,302.56 M258.03,302.56L258.03,302.56 M261.54,302.56L261.54,302.56 M267.39,269.14L267.39,269.46 M267.79,274.43L267.88,274.43 M267.88,274.43L267.60,274.03 M267.69,278.25L267.69,278.23 M268.01,260.09L268.03,266.61 M267.98,288.04L268.03,294.92 M268.90,289.25L268.96,294.80 M260.56,273.83L260.40,286.16 M260.56,273.83L260.35,261.43 M278.93,249.12L266.96,249.13 M266.96,249.05L278.94,249.04 M278.93,298.63L266.96,298.63 M266.96,298.59L278.94,298.55 M278.50,260.88L268.15,260.91 M268.15,252.92L278.50,252.95 M265.35,284.07L265.46,288.57 M265.40,259.12L265.46,263.61 M268.26,278.42L268.26,296.83 M268.26,250.84L268.26,269.25 M267.24,251.57L267.18,258.82 M267.24,251.57L267.27,258.49 M267.24,251.57L267.18,258.48 M267.27,258.48L267.17,251.51 M267.17,251.51L267.17,258.50 M267.17,251.51L267.27,258.61 M267.17,251.51L267.17,258.68 M267.17,251.51L267.27,258.87 M267.17,251.51L267.17,258.98 M267.26,268.65L267.45,261.33 M267.26,268.65L267.27,262.58 M254.59,298.20L254.58,298.20 M253.47,298.30L253.48,298.20 M267.14,268.04L267.14,263.11 M267.14,268.04L267.19,262.88 M267.16,268.58L267.26,260.12 M267.16,268.58L267.14,260.23 M267.35,270.45L267.21,270.44 M267.37,277.43L267.20,277.22 M267.37,270.22L267.37,270.22 M267.35,271.47L267.35,271.47 M262.04,273.83L261.97,283.12 M240.70,295.62L240.70,291.53 M241.95,260.01L236.65,259.92 M241.95,287.65L236.65,287.74 M241.75,290.79L241.76,290.75 M241.68,290.34L241.68,290.34 M241.68,297.68L241.72,297.65 M241.80,296.41L241.76,291.73 M241.68,296.31L241.72,291.71 M241.80,297.45L241.76,297.27 M240.24,298.45L240.25,292.59 M237.36,278.11L237.64,287.57 M237.36,269.55L237.64,260.09 M224.00,267.10L223.82,258.70 M239.10,289.28L239.03,289.33 M205.56,265.92L209.35,265.81 M204.98,265.02L204.61,259.63 M204.61,259.63L205.05,266.41 M230.19,289.23L226.32,289.31 M230.19,258.43L226.32,258.35 M204.54,288.03L205.05,281.25 M211.09,258.75L223.82,258.70 M211.09,288.91L223.85,288.97 M239.03,258.33L239.11,258.39 M224.40,273.83L224.36,280.17 M235.61,289.75L229.56,289.67 M238.19,289.31L226.32,289.31 M235.61,257.91L229.56,257.98 M238.19,258.35L226.32,258.35 M258.34,243.16L254.07,243.16 M254.07,243.16L249.79,243.16 M263.31,248.72L263.17,247.52 M263.31,248.72L263.31,247.57 M244.89,246.10L244.83,247.52 M244.96,247.52L244.94,243.01 M248.62,237.14L254.07,237.16 M263.18,247.73L263.31,248.72 M244.82,248.72L244.97,247.65 M244.82,248.72L244.83,247.70 M245.00,236.35L254.07,236.51 M263.34,236.09L263.34,243.03 M244.79,243.03L244.79,236.09 M216.20,284.79L212.49,284.84 M230.33,276.37L235.76,276.38 M235.76,276.38L230.54,276.48 M235.86,289.71L235.87,277.48 M235.61,257.91L230.25,257.95 M230.33,271.29L235.76,271.28 M235.76,271.28L230.54,271.18 M235.87,270.18L235.86,257.95 M233.37,276.05L233.41,276.09 M219.76,276.42L223.68,276.44 M219.61,289.23L223.98,289.24 M241.74,251.90L241.67,255.48 M241.35,296.84L241.36,291.05 M241.38,297.31L241.37,297.31 M241.37,291.70L241.34,296.89 M241.39,289.37L241.39,289.37 M241.39,289.37L241.37,289.37 M241.25,290.12L241.36,290.09 M241.35,250.76L241.35,256.55 M241.39,250.33L241.22,251.96 M241.39,250.33L241.37,251.79 M241.39,250.33L241.21,251.74 M241.39,250.33L241.37,251.58 M241.25,250.34L241.37,251.66 M241.39,258.29L241.46,253.98 M241.39,258.29L241.39,258.29 M241.39,258.29L241.32,254.19 M241.39,258.29L241.20,254.29 M241.39,258.29L241.22,254.30 M241.39,258.29L241.37,254.31 M241.39,258.29L241.38,258.28 M241.37,254.31L241.38,258.28 M241.38,258.28L241.21,254.24 M241.28,258.29L241.12,250.34 M240.80,258.29L240.67,250.35 M273.08,284.01L273.08,291.18 M229.89,273.83L231.50,273.83 M231.50,273.83L234.46,273.83 M233.02,277.88L230.98,277.17 M233.02,269.77L230.98,270.49 M216.69,284.49L214.52,284.36 M214.40,278.25L214.39,284.24 M210.63,283.63L210.73,278.89 M212.96,282.67L217.46,282.74 M220.28,265.63L223.65,265.76 M217.18,289.71L217.31,285.39 M212.24,266.39L212.04,270.86 M211.70,271.29L211.78,266.39 M211.78,266.39L211.75,273.82 M279.52,272.71L279.39,268.86 M277.44,268.79L277.24,272.75 M313.76,285.18L305.59,285.34 M305.59,262.32L313.76,262.48 M319.58,287.23L315.25,287.23 M320.26,283.48L316.71,283.60 M320.26,264.18L316.71,264.06 M303.49,283.47L311.11,283.48 M303.49,264.19L311.11,264.18 M332.90,278.77L332.93,273.83 M332.90,278.77L332.95,273.83 M332.95,273.83L332.90,268.89 M297.69,266.58L301.03,262.35 M336.57,273.83L336.58,280.01 M311.67,293.65L311.60,289.84 M320.01,259.32L319.88,254.04 M301.54,252.50L297.99,252.41 M311.03,250.92L315.27,250.87 M298.51,256.96L303.08,256.89 M293.17,297.99L300.15,297.99 M297.12,249.74L293.17,249.67 M278.93,296.36L278.95,296.41 M278.95,290.18L278.93,290.24 M278.93,257.42L278.95,257.47 M278.95,251.25L278.93,251.29 M290.79,294.23L304.00,294.19 M304.00,294.19L293.56,294.25 M290.79,292.39L304.00,292.38 M304.00,292.38L293.57,292.34 M304.00,294.19L293.57,294.29 M304.00,294.19L296.29,294.23 M304.00,253.48L293.64,253.37 M315.87,289.69L315.66,290.02 M324.02,250.38L324.02,250.38 M319.01,300.50L311.30,300.59 M303.70,300.59L311.30,300.59 M280.06,263.76L280.08,268.64 M315.30,283.60L315.36,290.66 M315.36,257.00L315.30,264.06 M292.09,305.23L290.14,305.13 M283.20,242.43L293.72,242.43 M292.09,242.43L289.99,242.53 M289.95,305.03L289.95,300.78 M281.72,282.24L277.82,282.37 M320.58,310.62L302.28,310.62 M320.62,310.44L302.31,310.44 M284.84,239.09L289.40,238.97 M320.58,237.04L302.28,237.04 M320.62,237.22L302.31,237.22 M334.20,273.83L334.20,283.88 M334.20,273.83L334.20,263.77 M277.97,286.97L281.14,286.97 M281.14,259.52L277.97,259.52 M321.98,273.83L321.98,288.75 M321.98,258.91L321.98,273.83 M321.08,273.83L321.08,288.75 M321.08,258.91L321.08,273.83 M321.52,273.83L321.52,288.75 M321.52,258.91L321.52,273.83 M309.55,258.52L305.07,258.54 M237.57,255.95L237.75,255.70 M322.21,289.73L322.00,289.82 M322.21,257.93L322.00,257.84 M319.23,285.57L312.12,285.57 M318.60,285.09L312.82,285.09 M318.10,285.28L313.40,285.28 M313.40,285.28L318.51,285.34 M317.43,262.65L310.62,262.81 M318.10,261.89L313.39,261.89 M313.39,261.89L318.51,261.95 M318.51,261.95L312.82,262.08 M318.60,261.70L312.82,261.70 M320.13,266.98L319.88,273.83 M319.88,273.83L320.08,280.73 M320.47,267.09L320.47,270.83 M245.46,231.29L244.98,232.18 M262.46,235.26L262.87,231.67 M245.23,236.77L244.67,233.62 M263.14,233.73L262.81,236.77 M299.90,321.63L298.48,314.52 M302.62,321.63L301.18,314.52 M298.77,321.81L298.00,314.52 M303.88,321.60L304.29,314.52 M315.26,314.52L313.62,307.27 M300.90,321.60L300.93,314.52 M312.25,314.52L310.72,307.27 M308.48,314.52L307.28,307.27 M311.74,305.73L311.74,305.73 M309.48,240.72L309.28,233.43 M315.18,240.83L315.34,233.43 M316.22,240.69L315.66,233.43 M302.53,240.72L302.68,233.43 M312.71,240.78L312.32,233.43 M299.83,240.72L300.14,233.43 M314.33,240.78L313.95,233.43 M314.66,240.69L315.78,233.43 M220.43,310.82L220.73,306.17 M218.10,306.13L218.45,310.82 M217.15,302.28L216.98,302.03 M217.61,303.52L217.33,303.31 M216.33,302.82L216.70,302.54 M217.15,244.10L216.98,243.85 M217.61,245.34L217.33,245.13 M216.33,244.64L216.70,244.36 M206.54,301.35L206.54,305.48 M206.54,242.18L206.54,246.31 M201.77,299.09L207.05,298.62 M201.77,248.29L201.70,243.23 M203.37,283.42L199.58,283.38 M203.37,284.81L199.58,284.85 M331.25,312.52L331.19,305.89 M331.92,312.46L331.92,312.46 M230.67,262.44L230.75,273.83 M230.75,273.83L230.67,285.22 M199.63,290.73L206.50,290.89 M196.59,291.44L198.87,291.11 M198.00,290.47L196.16,290.41 M197.90,291.58L196.31,291.66 M313.24,233.32L317.81,233.34 M242.42,313.88L265.44,313.77 M229.01,315.45L220.76,315.04 M220.76,315.04L228.49,315.43 M260.38,258.68L256.30,258.53 M201.44,296.18L201.48,291.44 M201.46,251.57L201.48,256.22 M203.56,300.27L207.58,300.17 M213.02,300.17L212.94,296.38 M196.93,285.11L196.94,290.02 M304.88,258.82L304.87,254.07 M304.87,254.07L304.68,262.19 M304.87,293.59L304.68,285.47 M197.96,286.05L197.28,290.05 M198.19,286.38L197.28,290.05 M197.21,273.83L197.07,285.11 M214.58,273.83L206.68,280.00 M201.28,299.10L201.28,304.36 M239.17,309.57L243.25,309.59 M222.35,297.90L216.13,297.90 M222.35,297.90L215.80,297.77 M215.80,249.89L222.35,249.76 M211.32,267.03L211.23,262.11 M205.82,273.83L206.62,269.00 M205.82,273.83L206.45,269.28 M210.43,273.83L209.72,269.77 M206.62,278.66L205.82,273.83 M206.45,278.38L205.82,273.83 M208.30,277.88L209.07,273.83 M210.45,273.83L210.18,262.03 M210.18,285.63L210.45,273.83 M201.19,282.67L201.19,277.99 M201.19,264.99L201.19,269.67 M331.23,238.37L330.99,244.03 M330.90,244.70L323.75,244.72 M323.75,237.97L330.98,238.01 M331.38,303.01L331.05,312.56 M330.65,235.67L330.61,243.44 M330.61,243.44L330.59,235.76 M326.75,235.67L330.59,235.76 M331.05,312.56L330.73,303.28 M198.78,256.43L198.80,252.04 M207.01,298.61L206.92,273.83 M206.92,273.83L207.01,249.05 M331.40,244.07L331.37,238.68 M331.26,312.60L331.15,303.43 M266.97,252.03L273.77,251.88 M266.92,252.29L273.77,251.88 M224.21,255.19L234.92,255.11 M215.95,289.72L224.09,289.93" stroke="currentColor" stroke-width="0.6" stroke-linecap="round" fill="none" opacity="0.55" clip-path="url(#hull-clip)" filter="url(#glow)" />
  <path d="M 220.88,323.50 C 219.70,323.52 218.30,323.51 217.12,323.50 C 215.95,323.49 214.84,323.46 213.80,323.43 C 212.77,323.39 211.81,323.35 210.91,323.29 C 210.02,323.23 209.20,323.16 208.45,323.08 C 207.70,323.00 207.03,322.90 206.42,322.80 C 205.82,322.69 205.28,322.57 204.82,322.45 C 204.36,322.32 203.97,322.18 203.65,322.02 C 203.33,321.87 203.08,321.71 202.91,321.53 C 202.73,321.36 202.69,321.17 202.59,320.97 C 202.50,320.76 202.41,320.54 202.34,320.30 C 202.26,320.07 202.19,319.81 202.13,319.54 C 202.07,319.27 202.02,318.98 201.98,318.67 C 201.94,318.37 201.91,318.04 201.89,317.70 C 201.87,317.36 201.86,317.01 201.85,316.63 C 201.85,316.26 201.85,315.87 201.87,315.46 C 201.88,315.05 201.90,314.63 201.94,314.19 C 201.97,313.75 202.03,313.24 202.06,312.81 C 202.09,312.38 202.11,311.98 202.12,311.61 C 202.14,311.24 202.14,310.89 202.12,310.58 C 202.11,310.26 202.09,309.98 202.06,309.72 C 202.03,309.46 201.99,309.23 201.94,309.03 C 201.89,308.83 201.82,308.66 201.75,308.52 C 201.68,308.37 201.59,308.26 201.50,308.17 C 201.41,308.09 201.30,308.03 201.19,308.00 C 201.07,307.97 200.93,308.03 200.81,308.00 C 200.70,307.97 200.59,307.91 200.48,307.83 C 200.38,307.74 200.29,307.63 200.20,307.48 C 200.12,307.34 200.04,307.17 199.97,306.97 C 199.90,306.77 199.84,306.54 199.78,306.28 C 199.73,306.02 199.68,305.74 199.64,305.42 C 199.60,305.11 199.57,304.76 199.55,304.39 C 199.52,304.02 199.51,303.62 199.50,303.19 C 199.49,302.76 199.51,302.26 199.50,301.81 C 199.49,301.37 199.46,300.93 199.42,300.52 C 199.38,300.10 199.33,299.69 199.27,299.30 C 199.20,298.90 199.12,298.52 199.03,298.16 C 198.94,297.79 198.84,297.43 198.72,297.09 C 198.60,296.75 198.47,296.42 198.33,296.11 C 198.18,295.79 198.03,295.49 197.86,295.20 C 197.69,294.91 197.51,294.64 197.31,294.38 C 197.12,294.11 196.88,293.87 196.69,293.62 C 196.50,293.38 196.33,293.15 196.17,292.92 C 196.02,292.70 195.88,292.48 195.77,292.27 C 195.65,292.05 195.55,291.85 195.47,291.66 C 195.39,291.46 195.33,291.27 195.28,291.09 C 195.24,290.91 195.21,290.74 195.20,290.58 C 195.20,290.41 195.21,290.26 195.23,290.11 C 195.26,289.96 195.31,289.82 195.38,289.69 C 195.44,289.55 195.55,289.51 195.62,289.31 C 195.70,289.12 195.78,288.86 195.84,288.53 C 195.91,288.20 195.97,287.81 196.03,287.34 C 196.09,286.88 196.14,286.35 196.19,285.75 C 196.23,285.15 196.28,284.48 196.31,283.75 C 196.35,283.02 196.38,282.21 196.41,281.34 C 196.43,280.47 196.45,279.54 196.47,278.53 C 196.48,277.53 196.49,276.45 196.50,275.31 C 196.51,274.17 196.51,272.83 196.50,271.69 C 196.49,270.55 196.48,269.47 196.47,268.47 C 196.45,267.46 196.43,266.53 196.41,265.66 C 196.38,264.79 196.35,263.98 196.31,263.25 C 196.28,262.52 196.23,261.85 196.19,261.25 C 196.14,260.65 196.09,260.12 196.03,259.66 C 195.97,259.19 195.91,258.80 195.84,258.47 C 195.78,258.14 195.70,257.88 195.62,257.69 C 195.55,257.49 195.45,257.43 195.38,257.31 C 195.30,257.19 195.24,257.08 195.19,256.97 C 195.14,256.86 195.09,256.76 195.06,256.66 C 195.03,256.56 195.01,256.46 195.00,256.38 C 194.99,256.29 194.99,256.20 195.00,256.12 C 195.01,256.05 195.03,255.97 195.06,255.91 C 195.09,255.84 195.14,255.78 195.19,255.72 C 195.24,255.66 195.30,255.61 195.38,255.56 C 195.45,255.52 195.55,255.48 195.62,255.44 C 195.70,255.39 195.77,255.35 195.83,255.30 C 195.89,255.25 195.94,255.20 195.98,255.14 C 196.03,255.09 196.07,255.03 196.09,254.97 C 196.12,254.91 196.14,254.85 196.16,254.78 C 196.17,254.72 196.17,254.65 196.17,254.58 C 196.17,254.51 196.16,254.43 196.14,254.36 C 196.12,254.28 196.10,254.21 196.06,254.12 C 196.03,254.04 195.96,253.97 195.94,253.88 C 195.91,253.78 195.90,253.67 195.91,253.55 C 195.91,253.42 195.93,253.29 195.97,253.14 C 196.01,252.99 196.06,252.83 196.12,252.66 C 196.19,252.48 196.28,252.29 196.38,252.09 C 196.47,251.89 196.59,251.68 196.72,251.45 C 196.85,251.23 196.99,250.99 197.16,250.73 C 197.32,250.48 197.49,250.22 197.69,249.94 C 197.88,249.66 198.12,249.36 198.31,249.06 C 198.51,248.77 198.68,248.47 198.84,248.17 C 199.01,247.87 199.15,247.57 199.28,247.27 C 199.41,246.96 199.53,246.65 199.62,246.34 C 199.72,246.03 199.81,245.72 199.88,245.41 C 199.94,245.09 199.99,244.77 200.03,244.45 C 200.07,244.13 200.09,243.81 200.09,243.48 C 200.10,243.16 200.09,242.83 200.06,242.50 C 200.04,242.17 199.97,241.81 199.94,241.50 C 199.91,241.19 199.89,240.90 199.88,240.62 C 199.86,240.35 199.86,240.10 199.88,239.88 C 199.89,239.65 199.91,239.44 199.94,239.25 C 199.97,239.06 200.01,238.90 200.06,238.75 C 200.11,238.60 200.18,238.48 200.25,238.38 C 200.32,238.27 200.41,238.19 200.50,238.12 C 200.59,238.06 200.70,238.02 200.81,238.00 C 200.93,237.98 201.07,238.03 201.19,238.00 C 201.30,237.97 201.41,237.90 201.50,237.80 C 201.59,237.70 201.68,237.56 201.75,237.39 C 201.82,237.22 201.89,237.02 201.94,236.78 C 201.99,236.54 202.03,236.27 202.06,235.97 C 202.09,235.66 202.11,235.33 202.12,234.95 C 202.14,234.58 202.14,234.17 202.12,233.73 C 202.11,233.29 202.09,232.82 202.06,232.31 C 202.03,231.80 201.96,231.20 201.94,230.69 C 201.92,230.17 201.91,229.68 201.93,229.21 C 201.95,228.74 201.98,228.30 202.04,227.88 C 202.10,227.46 202.17,227.07 202.27,226.70 C 202.36,226.33 202.48,225.99 202.61,225.67 C 202.74,225.35 202.90,225.06 203.07,224.79 C 203.24,224.52 203.44,224.27 203.65,224.05 C 203.86,223.83 204.09,223.64 204.34,223.47 C 204.60,223.30 204.85,223.17 205.16,223.03 C 205.46,222.89 205.80,222.77 206.18,222.65 C 206.56,222.53 206.97,222.42 207.41,222.32 C 207.86,222.22 208.34,222.13 208.86,222.05 C 209.38,221.96 209.93,221.89 210.52,221.83 C 211.10,221.76 211.73,221.71 212.38,221.66 C 213.04,221.62 213.73,221.58 214.46,221.55 C 215.19,221.53 215.95,221.51 216.75,221.50 C 217.55,221.49 218.45,221.49 219.25,221.50 C 220.05,221.51 220.82,221.52 221.55,221.54 C 222.29,221.56 222.99,221.58 223.66,221.62 C 224.33,221.65 224.97,221.69 225.58,221.73 C 226.18,221.78 226.76,221.83 227.30,221.89 C 227.84,221.95 228.35,222.01 228.82,222.09 C 229.30,222.16 229.74,222.24 230.15,222.32 C 230.56,222.40 230.94,222.50 231.28,222.59 C 231.63,222.69 231.92,222.79 232.22,222.91 C 232.52,223.02 232.80,223.15 233.06,223.30 C 233.33,223.44 233.58,223.60 233.81,223.77 C 234.05,223.93 234.27,224.12 234.47,224.31 C 234.67,224.51 234.86,224.72 235.03,224.94 C 235.20,225.16 235.36,225.39 235.50,225.64 C 235.64,225.89 235.77,226.15 235.88,226.42 C 235.98,226.70 236.08,226.98 236.16,227.28 C 236.23,227.58 236.27,227.93 236.34,228.22 C 236.42,228.51 236.50,228.77 236.60,229.01 C 236.70,229.25 236.81,229.46 236.93,229.65 C 237.05,229.84 237.18,230.00 237.33,230.14 C 237.47,230.28 237.63,230.39 237.80,230.48 C 237.96,230.57 238.14,230.64 238.34,230.68 C 238.53,230.72 238.73,230.74 238.95,230.73 C 239.16,230.72 239.39,230.68 239.62,230.62 C 239.86,230.57 240.09,230.45 240.38,230.38 C 240.66,230.30 240.97,230.22 241.31,230.16 C 241.66,230.09 242.03,230.03 242.44,229.97 C 242.84,229.91 243.28,229.86 243.75,229.81 C 244.22,229.77 244.72,229.72 245.25,229.69 C 245.78,229.65 246.34,229.62 246.94,229.59 C 247.53,229.57 248.16,229.55 248.81,229.53 C 249.47,229.52 250.16,229.51 250.88,229.50 C 251.59,229.49 252.40,229.49 253.12,229.50 C 253.85,229.51 254.54,229.52 255.20,229.55 C 255.87,229.57 256.50,229.60 257.11,229.64 C 257.72,229.68 258.29,229.73 258.84,229.78 C 259.39,229.84 259.91,229.90 260.41,229.97 C 260.90,230.04 261.36,230.12 261.80,230.20 C 262.23,230.29 262.64,230.38 263.02,230.48 C 263.39,230.59 263.74,230.70 264.06,230.81 C 264.38,230.93 264.62,231.07 264.94,231.19 C 265.26,231.30 265.60,231.41 265.97,231.52 C 266.34,231.62 266.73,231.71 267.16,231.80 C 267.58,231.88 268.03,231.96 268.50,232.03 C 268.97,232.10 269.47,232.16 270.00,232.22 C 270.53,232.27 271.08,232.32 271.66,232.36 C 272.23,232.40 272.84,232.43 273.47,232.45 C 274.10,232.48 274.76,232.49 275.44,232.50 C 276.12,232.51 276.89,232.50 277.56,232.50 C 278.24,232.50 278.88,232.50 279.48,232.50 C 280.09,232.50 280.66,232.50 281.20,232.50 C 281.74,232.50 282.25,232.50 282.72,232.50 C 283.19,232.50 283.63,232.50 284.03,232.50 C 284.43,232.50 284.80,232.50 285.14,232.50 C 285.48,232.50 285.78,232.50 286.05,232.50 C 286.32,232.50 286.55,232.50 286.75,232.50 C 286.95,232.50 287.09,232.51 287.25,232.50 C 287.41,232.49 287.56,232.46 287.70,232.43 C 287.83,232.39 287.96,232.35 288.09,232.29 C 288.21,232.23 288.32,232.16 288.42,232.08 C 288.52,232.00 288.62,231.90 288.70,231.80 C 288.79,231.69 288.86,231.57 288.93,231.45 C 289.00,231.32 289.05,231.18 289.10,231.02 C 289.15,230.87 289.19,230.71 289.22,230.53 C 289.25,230.36 289.25,230.15 289.28,229.97 C 289.31,229.78 289.35,229.60 289.39,229.42 C 289.43,229.24 289.49,229.07 289.55,228.89 C 289.61,228.72 289.67,228.54 289.75,228.38 C 289.83,228.21 289.91,228.04 290.00,227.88 C 290.09,227.71 290.19,227.55 290.30,227.39 C 290.40,227.23 290.52,227.08 290.64,226.92 C 290.76,226.77 290.89,226.62 291.03,226.47 C 291.17,226.32 291.26,226.17 291.47,226.03 C 291.68,225.89 291.94,225.77 292.27,225.65 C 292.60,225.53 292.99,225.42 293.45,225.32 C 293.90,225.22 294.41,225.13 294.98,225.05 C 295.56,224.96 296.19,224.89 296.89,224.83 C 297.59,224.76 298.35,224.71 299.16,224.66 C 299.98,224.62 300.86,224.58 301.80,224.55 C 302.75,224.53 303.75,224.51 304.81,224.50 C 305.88,224.49 307.12,224.49 308.19,224.50 C 309.25,224.51 310.25,224.53 311.20,224.55 C 312.14,224.58 313.02,224.62 313.84,224.66 C 314.65,224.71 315.41,224.76 316.11,224.83 C 316.81,224.89 317.44,224.96 318.02,225.05 C 318.59,225.13 319.10,225.22 319.55,225.32 C 320.01,225.42 320.40,225.53 320.73,225.65 C 321.06,225.77 321.32,225.89 321.53,226.03 C 321.74,226.17 321.83,226.32 321.97,226.47 C 322.11,226.62 322.24,226.78 322.36,226.95 C 322.48,227.12 322.60,227.30 322.70,227.48 C 322.81,227.67 322.91,227.86 323.00,228.06 C 323.09,228.26 323.17,228.47 323.25,228.69 C 323.33,228.90 323.39,229.13 323.45,229.36 C 323.51,229.59 323.57,229.83 323.61,230.08 C 323.65,230.33 323.69,230.58 323.72,230.84 C 323.75,231.11 323.74,231.41 323.78,231.66 C 323.82,231.91 323.88,232.14 323.95,232.34 C 324.03,232.55 324.12,232.74 324.23,232.91 C 324.35,233.07 324.48,233.22 324.62,233.34 C 324.77,233.47 324.94,233.57 325.12,233.66 C 325.31,233.74 325.51,233.80 325.73,233.84 C 325.96,233.89 326.20,233.91 326.45,233.91 C 326.71,233.91 326.99,233.89 327.28,233.84 C 327.58,233.80 327.93,233.69 328.22,233.66 C 328.51,233.62 328.78,233.61 329.02,233.62 C 329.27,233.63 329.49,233.67 329.70,233.73 C 329.90,233.79 330.08,233.87 330.23,233.98 C 330.39,234.10 330.53,234.23 330.64,234.39 C 330.75,234.55 330.85,234.74 330.91,234.95 C 330.98,235.15 331.03,235.39 331.05,235.65 C 331.08,235.91 331.08,236.19 331.06,236.50 C 331.04,236.81 330.97,237.18 330.94,237.50 C 330.90,237.82 330.88,238.13 330.86,238.42 C 330.84,238.72 330.83,239.00 330.83,239.27 C 330.83,239.53 330.83,239.79 330.84,240.03 C 330.86,240.27 330.88,240.50 330.91,240.72 C 330.93,240.93 330.97,241.14 331.02,241.33 C 331.06,241.52 331.11,241.70 331.17,241.86 C 331.23,242.02 331.30,242.17 331.38,242.31 C 331.45,242.45 331.55,242.56 331.62,242.69 C 331.70,242.81 331.77,242.94 331.83,243.06 C 331.89,243.19 331.94,243.31 331.98,243.44 C 332.03,243.56 332.07,243.69 332.09,243.81 C 332.12,243.94 332.14,244.06 332.16,244.19 C 332.17,244.31 332.17,244.44 332.17,244.56 C 332.17,244.69 332.16,244.81 332.14,244.94 C 332.12,245.06 332.10,245.19 332.06,245.31 C 332.03,245.44 331.97,245.55 331.94,245.69 C 331.91,245.82 331.89,245.97 331.89,246.12 C 331.89,246.28 331.90,246.45 331.92,246.62 C 331.95,246.80 331.98,246.99 332.03,247.19 C 332.08,247.39 332.14,247.59 332.22,247.81 C 332.29,248.03 332.38,248.26 332.48,248.50 C 332.59,248.74 332.70,248.99 332.83,249.25 C 332.96,249.51 333.10,249.78 333.25,250.06 C 333.40,250.34 333.59,250.60 333.75,250.94 C 333.91,251.28 334.07,251.66 334.22,252.09 C 334.37,252.53 334.52,253.01 334.66,253.53 C 334.80,254.06 334.93,254.63 335.06,255.25 C 335.19,255.87 335.32,256.54 335.44,257.25 C 335.56,257.96 335.67,258.72 335.78,259.53 C 335.89,260.34 335.99,261.19 336.09,262.09 C 336.19,262.99 336.29,263.94 336.38,264.94 C 336.46,265.93 336.55,267.08 336.62,268.06 C 336.70,269.05 336.76,269.97 336.81,270.84 C 336.86,271.71 336.91,272.53 336.94,273.28 C 336.97,274.04 336.99,274.73 337.00,275.38 C 337.01,276.02 337.01,276.60 337.00,277.12 C 336.99,277.65 336.97,278.12 336.94,278.53 C 336.91,278.94 336.86,279.30 336.81,279.59 C 336.76,279.89 336.70,280.13 336.62,280.31 C 336.55,280.49 336.45,280.54 336.38,280.69 C 336.30,280.83 336.22,281.00 336.16,281.19 C 336.09,281.38 336.03,281.58 335.97,281.81 C 335.91,282.04 335.86,282.29 335.81,282.56 C 335.77,282.83 335.72,283.12 335.69,283.44 C 335.65,283.75 335.62,284.08 335.59,284.44 C 335.57,284.79 335.55,285.17 335.53,285.56 C 335.52,285.96 335.51,286.38 335.50,286.81 C 335.49,287.25 335.51,287.74 335.50,288.19 C 335.49,288.64 335.47,289.07 335.44,289.50 C 335.41,289.93 335.36,290.34 335.31,290.75 C 335.26,291.16 335.20,291.55 335.12,291.94 C 335.05,292.32 334.97,292.70 334.88,293.06 C 334.78,293.43 334.68,293.78 334.56,294.12 C 334.45,294.47 334.32,294.80 334.19,295.12 C 334.05,295.45 333.91,295.76 333.75,296.06 C 333.59,296.36 333.41,296.63 333.25,296.94 C 333.09,297.24 332.95,297.57 332.81,297.91 C 332.68,298.24 332.55,298.60 332.44,298.97 C 332.32,299.34 332.22,299.72 332.12,300.12 C 332.03,300.53 331.95,300.94 331.88,301.38 C 331.80,301.81 331.74,302.26 331.69,302.72 C 331.64,303.18 331.59,303.66 331.56,304.16 C 331.53,304.65 331.51,305.16 331.50,305.69 C 331.49,306.21 331.50,306.80 331.50,307.31 C 331.50,307.82 331.49,308.31 331.48,308.76 C 331.46,309.21 331.45,309.63 331.43,310.02 C 331.41,310.42 331.39,310.78 331.36,311.11 C 331.33,311.44 331.30,311.74 331.27,312.02 C 331.23,312.29 331.19,312.53 331.15,312.74 C 331.11,312.95 331.06,313.14 331.01,313.29 C 330.96,313.44 330.90,313.56 330.84,313.66 C 330.79,313.75 330.73,313.79 330.66,313.84 C 330.58,313.90 330.50,313.94 330.40,313.98 C 330.30,314.01 330.19,314.04 330.07,314.05 C 329.95,314.07 329.82,314.08 329.67,314.08 C 329.53,314.08 329.37,314.07 329.20,314.05 C 329.04,314.03 328.86,314.00 328.66,313.96 C 328.47,313.92 328.27,313.88 328.05,313.82 C 327.84,313.76 327.61,313.70 327.38,313.62 C 327.14,313.55 326.86,313.43 326.62,313.38 C 326.39,313.32 326.16,313.29 325.94,313.30 C 325.72,313.30 325.51,313.33 325.31,313.39 C 325.11,313.45 324.93,313.54 324.75,313.66 C 324.57,313.77 324.41,313.92 324.25,314.09 C 324.09,314.27 323.95,314.47 323.81,314.70 C 323.68,314.93 323.55,315.20 323.44,315.48 C 323.32,315.77 323.22,316.09 323.12,316.44 C 323.03,316.78 323.03,317.21 322.88,317.56 C 322.72,317.91 322.48,318.24 322.17,318.55 C 321.86,318.85 321.48,319.13 321.02,319.39 C 320.55,319.65 320.02,319.88 319.41,320.09 C 318.79,320.30 318.11,320.49 317.34,320.66 C 316.58,320.82 315.74,320.96 314.83,321.08 C 313.91,321.20 312.92,321.29 311.86,321.36 C 310.79,321.43 309.65,321.48 308.44,321.50 C 307.22,321.52 305.78,321.52 304.56,321.50 C 303.35,321.48 302.21,321.45 301.14,321.39 C 300.08,321.34 299.09,321.26 298.17,321.17 C 297.26,321.08 296.42,320.97 295.66,320.84 C 294.89,320.72 294.21,320.57 293.59,320.41 C 292.98,320.24 292.45,320.06 291.98,319.86 C 291.52,319.66 291.14,319.44 290.83,319.20 C 290.52,318.97 290.28,318.71 290.12,318.44 C 289.97,318.16 290.08,317.84 289.88,317.56 C 289.67,317.29 289.33,317.03 288.88,316.80 C 288.42,316.56 287.83,316.34 287.12,316.14 C 286.42,315.94 285.58,315.76 284.62,315.59 C 283.67,315.43 282.58,315.28 281.38,315.16 C 280.17,315.03 278.83,314.92 277.38,314.83 C 275.92,314.74 274.33,314.66 272.62,314.61 C 270.92,314.55 269.08,314.52 267.12,314.50 C 265.17,314.48 262.84,314.49 260.88,314.50 C 258.91,314.51 257.07,314.52 255.35,314.54 C 253.63,314.56 252.03,314.58 250.55,314.62 C 249.08,314.65 247.72,314.69 246.48,314.73 C 245.25,314.78 244.13,314.83 243.14,314.89 C 242.15,314.95 241.27,315.01 240.52,315.09 C 239.77,315.16 239.14,315.24 238.63,315.32 C 238.12,315.40 237.74,315.50 237.47,315.59 C 237.20,315.69 237.17,315.79 237.03,315.91 C 236.89,316.02 236.76,316.15 236.62,316.28 C 236.49,316.42 236.37,316.56 236.25,316.72 C 236.13,316.88 236.02,317.04 235.91,317.22 C 235.80,317.40 235.69,317.58 235.59,317.78 C 235.49,317.98 235.40,318.19 235.31,318.41 C 235.22,318.62 235.14,318.85 235.06,319.09 C 234.98,319.33 234.91,319.58 234.84,319.84 C 234.78,320.10 234.79,320.40 234.66,320.66 C 234.52,320.91 234.31,321.15 234.02,321.37 C 233.74,321.59 233.38,321.79 232.95,321.98 C 232.51,322.16 232.00,322.33 231.42,322.48 C 230.84,322.64 230.18,322.77 229.45,322.89 C 228.72,323.01 227.92,323.11 227.04,323.20 C 226.16,323.28 225.21,323.35 224.18,323.40 C 223.15,323.45 222.05,323.48 220.88,323.50 Z" fill="none" stroke="currentColor" stroke-width="1.5" stroke-linejoin="round" stroke-linecap="round" filter="url(#glow)" />
</svg>