<svg xmlns="http://www.w3.org/2000/svg" width="512" height="512" viewBox="120.65 177.26 258.04 139.90" preserveAspectRatio="xMidYMid meet">
  <defs>
    <filter id="glow" x="-30%" y="-30%" width="160%" height="160%">
      <feGaussianBlur in="SourceGraphic" stdDeviation="2.4" result="blur" />
      <feMerge>
        <feMergeNode in="blur" />
        <feMergeNode in="SourceGraphic" />
      </feMerge>
    </filter>
    <clipPath id="hull-clip">
      <path d="M 242.12,305.50 C 241.33,305.51 240.61,305.52 239.88,305.50 C 239.14,305.48 238.42,305.45 237.72,305.41 C 237.02,305.36 236.33,305.30 235.66,305.22 C 234.98,305.14 234.33,305.05 233.69,304.94 C 233.05,304.83 232.42,304.70 231.81,304.56 C 231.20,304.42 230.61,304.27 230.03,304.09 C 229.45,303.92 228.89,303.73 228.34,303.53 C 227.80,303.33 227.27,303.11 226.75,302.88 C 226.23,302.64 225.75,302.36 225.25,302.12 C 224.75,301.89 224.25,301.66 223.75,301.44 C 223.25,301.22 222.75,301.01 222.25,300.81 C 221.75,300.61 221.25,300.43 220.75,300.25 C 220.25,300.07 219.75,299.91 219.25,299.75 C 218.75,299.59 218.25,299.45 217.75,299.31 C 217.25,299.18 216.75,299.05 216.25,298.94 C 215.75,298.82 215.25,298.72 214.75,298.62 C 214.25,298.53 213.73,298.46 213.25,298.38 C 212.77,298.29 212.32,298.20 211.90,298.12 C 211.47,298.03 211.07,297.94 210.70,297.85 C 210.32,297.76 209.97,297.67 209.64,297.58 C 209.31,297.49 209.01,297.39 208.73,297.30 C 208.46,297.20 208.20,297.11 207.98,297.01 C 207.75,296.91 207.55,296.81 207.37,296.71 C 207.19,296.61 207.04,296.51 206.91,296.41 C 206.78,296.30 206.68,296.20 206.59,296.09 C 206.50,295.98 206.42,295.87 206.36,295.75 C 206.29,295.63 206.24,295.51 206.20,295.38 C 206.16,295.24 206.14,295.11 206.12,294.97 C 206.11,294.83 206.11,294.68 206.12,294.53 C 206.14,294.38 206.16,294.22 206.20,294.06 C 206.24,293.90 206.29,293.73 206.36,293.56 C 206.42,293.39 206.50,293.21 206.59,293.03 C 206.68,292.85 206.79,292.65 206.91,292.47 C 207.02,292.29 207.14,292.11 207.27,291.93 C 207.40,291.75 207.55,291.58 207.70,291.41 C 207.85,291.25 208.00,291.08 208.17,290.92 C 208.34,290.76 208.52,290.61 208.70,290.45 C 208.89,290.30 209.08,290.15 209.29,290.01 C 209.49,289.86 209.71,289.72 209.93,289.59 C 210.15,289.45 210.38,289.32 210.62,289.19 C 210.87,289.06 211.07,288.94 211.38,288.81 C 211.68,288.69 212.05,288.56 212.47,288.44 C 212.89,288.31 213.37,288.19 213.91,288.06 C 214.44,287.94 215.04,287.81 215.69,287.69 C 216.34,287.56 217.05,287.44 217.81,287.31 C 218.58,287.19 219.40,287.06 220.28,286.94 C 221.16,286.81 222.10,286.69 223.09,286.56 C 224.09,286.44 225.14,286.31 226.25,286.19 C 227.36,286.06 228.65,285.94 229.75,285.81 C 230.85,285.68 231.88,285.55 232.85,285.41 C 233.82,285.28 234.72,285.14 235.55,284.99 C 236.39,284.85 237.16,284.70 237.86,284.55 C 238.56,284.39 239.20,284.24 239.77,284.08 C 240.33,283.92 240.84,283.75 241.27,283.59 C 241.71,283.42 242.08,283.25 242.38,283.07 C 242.69,282.89 242.92,282.71 243.09,282.53 C 243.26,282.35 243.31,282.15 243.41,281.97 C 243.50,281.78 243.60,281.60 243.68,281.41 C 243.76,281.23 243.84,281.05 243.91,280.87 C 243.99,280.69 244.05,280.51 244.11,280.33 C 244.17,280.15 244.22,279.97 244.27,279.80 C 244.31,279.62 244.35,279.45 244.38,279.27 C 244.42,279.10 244.44,278.93 244.46,278.76 C 244.48,278.59 244.49,278.42 244.50,278.25 C 244.51,278.08 244.51,277.91 244.50,277.75 C 244.49,277.59 244.48,277.44 244.46,277.29 C 244.44,277.14 244.42,277.00 244.38,276.87 C 244.35,276.73 244.31,276.61 244.27,276.48 C 244.22,276.36 244.17,276.25 244.11,276.14 C 244.05,276.03 243.99,275.93 243.91,275.84 C 243.84,275.74 243.76,275.65 243.68,275.57 C 243.60,275.49 243.50,275.41 243.41,275.34 C 243.31,275.27 243.31,275.25 243.09,275.16 C 242.88,275.06 242.55,274.93 242.12,274.77 C 241.68,274.61 241.13,274.42 240.48,274.20 C 239.82,273.97 239.05,273.71 238.17,273.42 C 237.29,273.13 236.30,272.81 235.20,272.45 C 234.10,272.10 232.89,271.71 231.57,271.29 C 230.25,270.87 228.82,270.42 227.27,269.93 C 225.73,269.44 224.08,268.93 222.31,268.38 C 220.55,267.82 218.57,267.19 216.69,266.62 C 214.80,266.06 212.91,265.52 211.00,265.00 C 209.09,264.48 207.18,263.98 205.25,263.50 C 203.32,263.02 201.39,262.56 199.44,262.12 C 197.49,261.69 195.53,261.27 193.56,260.88 C 191.59,260.48 189.61,260.10 187.62,259.75 C 185.64,259.40 183.64,259.06 181.62,258.75 C 179.61,258.44 177.59,258.15 175.56,257.88 C 173.53,257.60 171.38,257.37 169.44,257.12 C 167.49,256.88 165.65,256.65 163.91,256.42 C 162.16,256.20 160.52,255.98 158.97,255.77 C 157.42,255.55 155.97,255.35 154.62,255.16 C 153.28,254.96 152.03,254.77 150.88,254.59 C 149.72,254.41 148.67,254.24 147.72,254.08 C 146.77,253.91 145.91,253.76 145.16,253.61 C 144.40,253.46 143.74,253.32 143.19,253.19 C 142.63,253.05 142.26,252.94 141.81,252.81 C 141.37,252.68 140.93,252.55 140.51,252.41 C 140.08,252.28 139.67,252.14 139.27,251.99 C 138.87,251.85 138.49,251.70 138.11,251.55 C 137.73,251.39 137.37,251.24 137.02,251.08 C 136.66,250.92 136.32,250.75 135.99,250.59 C 135.66,250.42 135.35,250.25 135.04,250.07 C 134.73,249.89 134.44,249.71 134.16,249.53 C 133.87,249.35 133.58,249.16 133.34,248.97 C 133.11,248.78 132.92,248.59 132.77,248.39 C 132.61,248.20 132.50,248.00 132.42,247.80 C 132.35,247.60 132.31,247.39 132.31,247.19 C 132.32,246.98 132.36,246.77 132.44,246.56 C 132.52,246.35 132.64,246.14 132.80,245.92 C 132.96,245.71 133.15,245.49 133.39,245.27 C 133.63,245.04 133.90,244.82 134.22,244.59 C 134.53,244.37 134.89,244.13 135.28,243.91 C 135.67,243.68 136.10,243.45 136.55,243.23 C 137.01,243.00 137.51,242.78 138.04,242.55 C 138.57,242.33 139.13,242.11 139.73,241.89 C 140.33,241.67 140.97,241.45 141.64,241.23 C 142.31,241.02 143.02,240.80 143.76,240.59 C 144.50,240.37 145.27,240.16 146.09,239.95 C 146.90,239.73 147.74,239.52 148.62,239.31 C 149.51,239.10 150.42,238.89 151.38,238.69 C 152.33,238.48 153.31,238.29 154.33,238.09 C 155.35,237.90 156.40,237.71 157.48,237.53 C 158.57,237.35 159.69,237.17 160.84,237.00 C 162.00,236.83 163.18,236.66 164.41,236.50 C 165.63,236.34 166.88,236.18 168.17,236.03 C 169.46,235.88 170.78,235.73 172.14,235.59 C 173.50,235.45 174.89,235.32 176.31,235.19 C 177.74,235.06 179.20,234.97 180.69,234.81 C 182.18,234.66 183.70,234.47 185.25,234.25 C 186.80,234.03 188.39,233.78 190.00,233.50 C 191.61,233.22 193.26,232.91 194.94,232.56 C 196.61,232.22 198.32,231.84 200.06,231.44 C 201.80,231.03 203.57,230.59 205.38,230.12 C 207.18,229.66 209.01,229.16 210.88,228.62 C 212.74,228.09 214.64,227.53 216.56,226.94 C 218.49,226.34 220.60,225.66 222.44,225.06 C 224.28,224.46 226.00,223.89 227.60,223.35 C 229.20,222.81 230.69,222.29 232.05,221.80 C 233.42,221.32 234.67,220.86 235.80,220.42 C 236.93,219.99 237.94,219.58 238.83,219.20 C 239.72,218.82 240.49,218.47 241.15,218.15 C 241.80,217.82 242.34,217.53 242.76,217.26 C 243.18,216.99 243.48,216.75 243.66,216.53 C 243.84,216.32 243.79,216.16 243.84,215.97 C 243.90,215.78 243.94,215.59 243.97,215.41 C 244.00,215.22 244.02,215.03 244.03,214.84 C 244.04,214.66 244.04,214.47 244.03,214.28 C 244.02,214.09 244.00,213.91 243.97,213.72 C 243.94,213.53 243.90,213.34 243.84,213.16 C 243.79,212.97 243.73,212.78 243.66,212.59 C 243.58,212.41 243.50,212.22 243.41,212.03 C 243.31,211.84 243.26,211.65 243.09,211.47 C 242.93,211.29 242.70,211.11 242.41,210.93 C 242.13,210.75 241.78,210.58 241.37,210.41 C 240.96,210.25 240.49,210.08 239.95,209.92 C 239.42,209.76 238.83,209.61 238.17,209.45 C 237.52,209.30 236.80,209.15 236.02,209.01 C 235.25,208.86 234.41,208.72 233.51,208.59 C 232.61,208.45 231.65,208.32 230.62,208.19 C 229.60,208.06 228.41,207.94 227.38,207.81 C 226.34,207.69 225.35,207.56 224.41,207.44 C 223.46,207.31 222.57,207.19 221.72,207.06 C 220.87,206.94 220.07,206.81 219.31,206.69 C 218.56,206.56 217.85,206.44 217.19,206.31 C 216.53,206.19 215.91,206.06 215.34,205.94 C 214.78,205.81 214.26,205.69 213.78,205.56 C 213.31,205.44 212.88,205.31 212.50,205.19 C 212.12,205.06 211.82,204.94 211.50,204.81 C 211.18,204.69 210.88,204.57 210.59,204.45 C 210.30,204.32 210.02,204.20 209.76,204.09 C 209.50,203.97 209.25,203.85 209.02,203.73 C 208.78,203.62 208.56,203.50 208.36,203.39 C 208.15,203.28 207.96,203.17 207.79,203.05 C 207.61,202.94 207.45,202.83 207.30,202.73 C 207.16,202.62 207.02,202.51 206.91,202.41 C 206.79,202.30 206.69,202.20 206.59,202.09 C 206.50,201.99 206.40,201.88 206.32,201.77 C 206.24,201.67 206.16,201.56 206.09,201.45 C 206.01,201.33 205.95,201.22 205.89,201.11 C 205.83,201.00 205.78,200.88 205.73,200.77 C 205.69,200.65 205.65,200.53 205.62,200.41 C 205.58,200.30 205.56,200.18 205.54,200.05 C 205.52,199.93 205.51,199.81 205.50,199.69 C 205.49,199.56 205.49,199.44 205.50,199.31 C 205.51,199.19 205.53,199.07 205.55,198.95 C 205.58,198.82 205.62,198.70 205.66,198.59 C 205.71,198.47 205.76,198.35 205.83,198.23 C 205.89,198.12 205.96,198.00 206.05,197.89 C 206.13,197.78 206.22,197.67 206.32,197.55 C 206.42,197.44 206.53,197.33 206.65,197.23 C 206.77,197.12 206.89,197.01 207.03,196.91 C 207.17,196.80 207.31,196.69 207.47,196.59 C 207.63,196.49 207.80,196.40 207.99,196.30 C 208.18,196.21 208.38,196.12 208.60,196.04 C 208.82,195.95 209.05,195.87 209.30,195.80 C 209.54,195.72 209.80,195.65 210.08,195.58 C 210.35,195.51 210.64,195.44 210.95,195.38 C 211.25,195.32 211.57,195.26 211.90,195.21 C 212.23,195.16 212.58,195.11 212.94,195.06 C 213.30,195.02 213.68,194.99 214.06,194.94 C 214.45,194.88 214.84,194.82 215.25,194.73 C 215.66,194.65 216.07,194.56 216.50,194.45 C 216.93,194.35 217.36,194.23 217.81,194.09 C 218.26,193.96 218.72,193.82 219.19,193.66 C 219.66,193.50 220.14,193.33 220.62,193.14 C 221.11,192.96 221.61,192.76 222.12,192.55 C 222.64,192.34 223.16,192.11 223.69,191.88 C 224.22,191.64 224.67,191.36 225.31,191.12 C 225.96,190.89 226.70,190.68 227.55,190.48 C 228.39,190.29 229.34,190.11 230.39,189.95 C 231.44,189.79 232.59,189.65 233.84,189.53 C 235.10,189.41 236.45,189.30 237.91,189.22 C 239.36,189.13 240.92,189.07 242.58,189.02 C 244.24,188.97 246.00,188.93 247.86,188.92 C 249.72,188.91 251.68,188.91 253.75,188.94 C 255.82,188.96 258.21,189.02 260.25,189.06 C 262.29,189.11 264.19,189.15 265.96,189.20 C 267.73,189.24 269.37,189.29 270.88,189.34 C 272.39,189.38 273.77,189.43 275.02,189.48 C 276.26,189.54 277.38,189.59 278.36,189.64 C 279.34,189.69 280.19,189.75 280.91,189.80 C 281.63,189.86 282.22,189.92 282.68,189.98 C 283.14,190.04 283.46,190.10 283.66,190.16 C 283.85,190.22 283.79,190.25 283.84,190.34 C 283.90,190.43 283.96,190.55 284.01,190.70 C 284.06,190.84 284.11,191.01 284.15,191.21 C 284.19,191.41 284.23,191.64 284.27,191.89 C 284.30,192.14 284.33,192.43 284.36,192.73 C 284.39,193.04 284.41,193.38 284.43,193.74 C 284.45,194.11 284.46,194.50 284.48,194.91 C 284.49,195.33 284.50,195.78 284.50,196.25 C 284.50,196.72 284.52,197.27 284.50,197.75 C 284.48,198.23 284.45,198.70 284.41,199.14 C 284.36,199.59 284.30,200.01 284.22,200.42 C 284.14,200.83 284.05,201.22 283.94,201.59 C 283.83,201.97 283.70,202.32 283.56,202.66 C 283.42,202.99 283.27,203.31 283.09,203.61 C 282.92,203.91 282.73,204.19 282.53,204.45 C 282.33,204.72 282.11,204.96 281.88,205.19 C 281.64,205.41 281.31,205.56 281.12,205.81 C 280.94,206.06 280.83,206.36 280.79,206.70 C 280.75,207.03 280.77,207.41 280.87,207.84 C 280.96,208.26 281.13,208.73 281.36,209.23 C 281.59,209.74 281.89,210.30 282.27,210.89 C 282.64,211.49 283.08,212.12 283.59,212.80 C 284.10,213.49 284.67,214.21 285.32,214.98 C 285.97,215.74 286.68,216.55 287.47,217.41 C 288.25,218.26 289.23,219.26 290.03,220.09 C 290.84,220.93 291.59,221.71 292.30,222.44 C 293.00,223.16 293.66,223.83 294.27,224.44 C 294.87,225.05 295.43,225.60 295.94,226.09 C 296.45,226.59 296.90,227.03 297.31,227.41 C 297.72,227.79 298.08,228.11 298.39,228.38 C 298.70,228.64 298.96,228.85 299.17,229.00 C 299.38,229.15 299.54,229.24 299.66,229.28 C 299.77,229.32 299.79,229.25 299.84,229.22 C 299.90,229.19 299.95,229.15 300.00,229.09 C 300.05,229.04 300.09,228.98 300.12,228.91 C 300.16,228.83 300.19,228.75 300.22,228.66 C 300.24,228.56 300.27,228.46 300.28,228.34 C 300.30,228.23 300.31,228.10 300.31,227.97 C 300.32,227.83 300.32,227.69 300.31,227.53 C 300.31,227.38 300.30,227.21 300.28,227.03 C 300.27,226.85 300.23,226.64 300.22,226.47 C 300.20,226.30 300.20,226.14 300.20,226.01 C 300.19,225.87 300.20,225.75 300.21,225.65 C 300.22,225.55 300.24,225.46 300.27,225.39 C 300.29,225.32 300.32,225.27 300.36,225.23 C 300.40,225.20 300.44,225.18 300.49,225.18 C 300.54,225.18 300.60,225.19 300.66,225.23 C 300.73,225.26 300.80,225.31 300.88,225.38 C 300.95,225.44 301.05,225.55 301.12,225.62 C 301.20,225.70 301.28,225.76 301.35,225.80 C 301.42,225.85 301.49,225.89 301.55,225.91 C 301.62,225.94 301.68,225.95 301.73,225.95 C 301.79,225.95 301.84,225.94 301.89,225.92 C 301.94,225.90 301.98,225.87 302.02,225.82 C 302.06,225.77 302.10,225.72 302.13,225.65 C 302.17,225.58 302.19,225.50 302.22,225.41 C 302.24,225.31 302.25,225.20 302.28,225.09 C 302.31,224.99 302.35,224.89 302.39,224.80 C 302.43,224.70 302.49,224.61 302.55,224.52 C 302.61,224.42 302.67,224.34 302.75,224.25 C 302.83,224.16 302.91,224.08 303.00,224.00 C 303.09,223.92 303.19,223.84 303.30,223.77 C 303.40,223.69 303.52,223.62 303.64,223.55 C 303.76,223.48 303.89,223.41 304.03,223.34 C 304.17,223.28 304.31,223.21 304.47,223.16 C 304.63,223.10 304.81,223.04 305.01,222.99 C 305.20,222.94 305.42,222.89 305.65,222.85 C 305.88,222.81 306.13,222.77 306.39,222.73 C 306.65,222.70 306.94,222.67 307.23,222.64 C 307.53,222.61 307.85,222.59 308.18,222.57 C 308.51,222.55 308.86,222.54 309.23,222.52 C 309.59,222.51 309.98,222.50 310.38,222.50 C 310.77,222.50 311.18,222.47 311.62,222.50 C 312.07,222.53 312.53,222.60 313.02,222.70 C 313.50,222.80 314.01,222.94 314.55,223.11 C 315.08,223.28 315.64,223.48 316.22,223.72 C 316.80,223.96 317.40,224.23 318.03,224.53 C 318.66,224.84 319.31,225.17 319.98,225.55 C 320.66,225.92 321.36,226.33 322.08,226.77 C 322.80,227.21 323.54,227.68 324.31,228.19 C 325.08,228.70 325.90,229.30 326.69,229.81 C 327.48,230.32 328.26,230.80 329.05,231.25 C 329.83,231.70 330.61,232.11 331.39,232.50 C 332.17,232.89 332.95,233.24 333.72,233.56 C 334.49,233.89 335.26,234.18 336.03,234.44 C 336.80,234.70 337.57,234.93 338.33,235.12 C 339.09,235.32 339.85,235.49 340.61,235.62 C 341.37,235.76 342.12,235.86 342.88,235.94 C 343.63,236.01 344.41,236.02 345.12,236.06 C 345.84,236.11 346.53,236.16 347.19,236.22 C 347.84,236.28 348.47,236.34 349.06,236.41 C 349.66,236.47 350.22,236.55 350.75,236.62 C 351.28,236.70 351.78,236.79 352.25,236.88 C 352.72,236.96 353.16,237.06 353.56,237.16 C 353.97,237.26 354.34,237.36 354.69,237.47 C 355.03,237.58 355.34,237.69 355.62,237.81 C 355.91,237.93 356.14,238.06 356.38,238.19 C 356.61,238.32 356.84,238.45 357.05,238.58 C 357.26,238.71 357.46,238.85 357.64,238.98 C 357.83,239.12 358.00,239.26 358.16,239.41 C 358.32,239.55 358.46,239.70 358.59,239.84 C 358.73,239.99 358.85,240.14 358.95,240.30 C 359.06,240.45 359.15,240.61 359.23,240.77 C 359.32,240.92 359.38,241.09 359.44,241.25 C 359.49,241.41 359.50,241.58 359.56,241.75 C 359.63,241.92 359.71,242.08 359.82,242.24 C 359.93,242.40 360.06,242.57 360.21,242.73 C 360.36,242.89 360.54,243.05 360.73,243.20 C 360.93,243.36 361.15,243.52 361.39,243.67 C 361.63,243.83 361.89,243.98 362.18,244.13 C 362.46,244.29 362.77,244.44 363.10,244.59 C 363.43,244.74 363.78,244.88 364.16,245.03 C 364.53,245.18 365.00,245.32 365.34,245.47 C 365.69,245.61 365.98,245.76 366.22,245.91 C 366.46,246.05 366.65,246.20 366.78,246.34 C 366.92,246.49 367.00,246.64 367.03,246.78 C 367.06,246.93 367.04,247.07 366.97,247.22 C 366.90,247.36 366.77,247.51 366.59,247.66 C 366.42,247.80 366.19,247.95 365.91,248.09 C 365.62,248.24 365.29,248.39 364.91,248.53 C 364.52,248.68 364.00,248.82 363.59,248.97 C 363.19,249.11 362.81,249.26 362.46,249.40 C 362.11,249.54 361.80,249.68 361.51,249.82 C 361.22,249.96 360.96,250.10 360.73,250.23 C 360.51,250.37 360.31,250.51 360.14,250.64 C 359.97,250.77 359.83,250.91 359.73,251.04 C 359.62,251.17 359.54,251.30 359.49,251.43 C 359.44,251.56 359.43,251.69 359.44,251.81 C 359.45,251.94 359.55,252.06 359.56,252.19 C 359.58,252.32 359.57,252.45 359.53,252.58 C 359.49,252.71 359.43,252.85 359.34,252.98 C 359.26,253.12 359.14,253.26 359.00,253.41 C 358.86,253.55 358.69,253.70 358.50,253.84 C 358.31,253.99 358.09,254.14 357.84,254.30 C 357.60,254.45 357.33,254.61 357.03,254.77 C 356.73,254.92 356.41,255.09 356.06,255.25 C 355.71,255.41 355.33,255.59 354.94,255.75 C 354.55,255.91 354.14,256.05 353.72,256.19 C 353.30,256.32 352.86,256.45 352.41,256.56 C 351.95,256.68 351.48,256.78 351.00,256.88 C 350.52,256.97 350.02,257.05 349.50,257.12 C 348.98,257.20 348.45,257.26 347.91,257.31 C 347.36,257.36 346.80,257.41 346.22,257.44 C 345.64,257.47 345.05,257.49 344.44,257.50 C 343.83,257.51 343.20,257.46 342.56,257.50 C 341.92,257.54 341.27,257.61 340.61,257.72 C 339.95,257.83 339.27,257.97 338.58,258.16 C 337.89,258.34 337.18,258.56 336.47,258.81 C 335.75,259.07 335.02,259.36 334.28,259.69 C 333.54,260.02 332.78,260.38 332.02,260.78 C 331.25,261.18 330.47,261.62 329.67,262.09 C 328.88,262.57 328.07,263.08 327.25,263.62 C 326.43,264.17 325.56,264.83 324.75,265.38 C 323.94,265.92 323.16,266.43 322.41,266.91 C 321.65,267.38 320.92,267.82 320.22,268.22 C 319.52,268.62 318.84,268.98 318.19,269.31 C 317.54,269.64 316.91,269.93 316.31,270.19 C 315.71,270.44 315.14,270.66 314.59,270.84 C 314.05,271.03 313.53,271.17 313.03,271.28 C 312.54,271.39 312.07,271.46 311.62,271.50 C 311.18,271.54 310.78,271.52 310.38,271.50 C 309.97,271.48 309.57,271.44 309.19,271.38 C 308.80,271.31 308.43,271.23 308.06,271.12 C 307.70,271.02 307.34,270.90 307.00,270.75 C 306.66,270.60 306.32,270.44 306.00,270.25 C 305.68,270.06 305.36,269.85 305.06,269.62 C 304.76,269.40 304.47,269.15 304.19,268.88 C 303.91,268.60 303.64,268.31 303.38,268.00 C 303.11,267.69 302.92,267.25 302.62,267.00 C 302.33,266.75 302.00,266.57 301.63,266.48 C 301.26,266.38 300.85,266.37 300.40,266.43 C 299.95,266.49 299.45,266.64 298.92,266.86 C 298.39,267.08 297.82,267.38 297.20,267.77 C 296.59,268.15 295.94,268.61 295.24,269.15 C 294.55,269.69 293.81,270.31 293.04,271.01 C 292.26,271.71 291.45,272.49 290.59,273.34 C 289.74,274.20 288.73,275.27 287.91,276.16 C 287.08,277.05 286.33,277.89 285.65,278.68 C 284.97,279.47 284.36,280.22 283.82,280.91 C 283.28,281.61 282.82,282.26 282.42,282.86 C 282.03,283.46 281.70,284.01 281.45,284.52 C 281.20,285.02 281.02,285.48 280.91,285.88 C 280.81,286.29 280.77,286.65 280.80,286.96 C 280.84,287.27 280.95,287.54 281.12,287.75 C 281.30,287.96 281.64,288.06 281.88,288.25 C 282.11,288.44 282.32,288.66 282.52,288.90 C 282.72,289.14 282.90,289.40 283.07,289.70 C 283.24,289.99 283.38,290.30 283.52,290.64 C 283.65,290.98 283.76,291.35 283.86,291.73 C 283.96,292.12 284.04,292.54 284.10,292.98 C 284.17,293.42 284.21,293.88 284.24,294.37 C 284.27,294.86 284.29,295.37 284.28,295.91 C 284.28,296.44 284.33,297.06 284.22,297.59 C 284.11,298.13 283.92,298.63 283.63,299.10 C 283.35,299.57 282.98,300.02 282.52,300.43 C 282.07,300.84 281.52,301.23 280.89,301.58 C 280.26,301.93 279.54,302.25 278.73,302.55 C 277.93,302.84 277.04,303.10 276.05,303.34 C 275.07,303.57 274.01,303.77 272.85,303.95 C 271.70,304.12 270.45,304.26 269.12,304.38 C 267.80,304.49 266.25,304.55 264.88,304.62 C 263.50,304.70 262.17,304.78 260.88,304.84 C 259.58,304.91 258.33,304.97 257.12,305.03 C 255.92,305.09 254.75,305.14 253.62,305.19 C 252.50,305.23 251.42,305.28 250.38,305.31 C 249.33,305.35 248.33,305.38 247.38,305.41 C 246.42,305.43 245.50,305.45 244.62,305.47 C 243.75,305.48 242.92,305.49 242.12,305.50 Z" />
    </clipPath>
  </defs>
  <path d="M 242.12,305.50 C 241.33,305.51 240.61,305.52 239.88,305.50 C 239.14,305.48 238.42,305.45 237.72,305.41 C 237.02,305.36 236.33,305.30 235.66,305.22 C 234.98,305.14 234.33,305.05 233.69,304.94 C 233.05,304.83 232.42,304.70 231.81,304.56 C 231.20,304.42 230.61,304.27 230.03,304.09 C 229.45,303.92 228.89,303.73 228.34,303.53 C 227.80,303.33 227.27,303.11 226.75,302.88 C 226.23,302.64 225.75,302.36 225.25,302.12 C 224.75,301.89 224.25,301.66 223.75,301.44 C 223.25,301.22 222.75,301.01 222.25,300.81 C 221.75,300.61 221.25,300.43 220.75,300.25 C 220.25,300.07 219.75,299.91 219.25,299.75 C 218.75,299.59 218.25,299.45 217.75,299.31 C 217.25,299.18 216.75,299.05 216.25,298.94 C 215.75,298.82 215.25,298.72 214.75,298.62 C 214.25,298.53 213.73,298.46 213.25,298.38 C 212.77,298.29 212.32,298.20 211.90,298.12 C 211.47,298.03 211.07,297.94 210.70,297.85 C 210.32,297.76 209.97,297.67 209.64,297.58 C 209.31,297.49 209.01,297.39 208.73,297.30 C 208.46,297.20 208.20,297.11 207.98,297.01 C 207.75,296.91 207.55,296.81 207.37,296.71 C 207.19,296.61 207.04,296.51 206.91,296.41 C 206.78,296.30 206.68,296.20 206.59,296.09 C 206.50,295.98 206.42,295.87 206.36,295.75 C 206.29,295.63 206.24,295.51 206.20,295.38 C 206.16,295.24 206.14,295.11 206.12,294.97 C 206.11,294.83 206.11,294.68 206.12,294.53 C 206.14,294.38 206.16,294.22 206.20,294.06 C 206.24,293.90 206.29,293.73 206.36,293.56 C 206.42,293.39 206.50,293.21 206.59,293.03 C 206.68,292.85 206.79,292.65 206.91,292.47 C 207.02,292.29 207.14,292.11 207.27,291.93 C 207.40,291.75 207.55,291.58 207.70,291.41 C 207.85,291.25 208.00,291.08 208.17,290.92 C 208.34,290.76 208.52,290.61 208.70,290.45 C 208.89,290.30 209.08,290.15 209.29,290.01 C 209.49,289.86 209.71,289.72 209.93,289.59 C 210.15,289.45 210.38,289.32 210.62,289.19 C 210.87,289.06 211.07,288.94 211.38,288.81 C 211.68,288.69 212.05,288.56 212.47,288.44 C 212.89,288.31 213.37,288.19 213.91,288.06 C 214.44,287.94 215.04,287.81 215.69,287.69 C 216.34,287.56 217.05,287.44 217.81,287.31 C 218.58,287.19 219.40,287.06 220.28,286.94 C 221.16,286.81 222.10,286.69 223.09,286.56 C 224.09,286.44 225.14,286.31 226.25,286.19 C 227.36,286.06 228.65,285.94 229.75,285.81 C 230.85,285.68 231.88,285.55 232.85,285.41 C 233.82,285.28 234.72,285.14 235.55,284.99 C 236.39,284.85 237.16,284.70 237.86,284.55 C 238.56,284.39 239.20,284.24 239.77,284.08 C 240.33,283.92 240.84,283.75 241.27,283.59 C 241.71,283.42 242.08,283.25 242.38,283.07 C 242.69,282.89 242.92,282.71 243.09,282.53 C 243.26,282.35 243.31,282.15 243.41,281.97 C 243.50,281.78 243.60,281.60 243.68,281.41 C 243.76,281.23 243.84,281.05 243.91,280.87 C 243.99,280.69 244.05,280.51 244.11,280.33 C 244.17,280.15 244.22,279.97 244.27,279.80 C 244.31,279.62 244.35,279.45 244.38,279.27 C 244.42,279.10 244.44,278.93 244.46,278.76 C 244.48,278.59 244.49,278.42 244.50,278.25 C 244.51,278.08 244.51,277.91 244.50,277.75 C 244.49,277.59 244.48,277.44 244.46,277.29 C 244.44,277.14 244.42,277.00 244.38,276.87 C 244.35,276.73 244.31,276.61 244.27,276.48 C 244.22,276.36 244.17,276.25 244.11,276.14 C 244.05,276.03 243.99,275.93 243.91,275.84 C 243.84,275.74 243.76,275.65 243.68,275.57 C 243.60,275.49 243.50,275.41 243.41,275.34 C 243.31,275.27 243.31,275.25 243.09,275.16 C 242.88,275.06 242.55,274.93 242.12,274.77 C 241.68,274.61 241.13,274.42 240.48,274.20 C 239.82,273.97 239.05,273.71 238.17,273.42 C 237.29,273.13 236.30,272.81 235.20,272.45 C 234.10,272.10 232.89,271.71 231.57,271.29 C 230.25,270.87 228.82,270.42 227.27,269.93 C 225.73,269.44 224.08,268.93 222.31,268.38 C 220.55,267.82 218.57,267.19 216.69,266.62 C 214.80,266.06 212.91,265.52 211.00,265.00 C 209.09,264.48 207.18,263.98 205.25,263.50 C 203.32,263.02 201.39,262.56 199.44,262.12 C 197.49,261.69 195.53,261.27 193.56,260.88 C 191.59,260.48 189.61,260.10 187.62,259.75 C 185.64,259.40 183.64,259.06 181.62,258.75 C 179.61,258.44 177.59,258.15 175.56,257.88 C 173.53,257.60 171.38,257.37 169.44,257.12 C 167.49,256.88 165.65,256.65 163.91,256.42 C 162.16,256.20 160.52,255.98 158.97,255.77 C 157.42,255.55 155.97,255.35 154.62,255.16 C 153.28,254.96 152.03,254.77 150.88,254.59 C 149.72,254.41 148.67,254.24 147.72,254.08 C 146.77,253.91 145.91,253.76 145.16,253.61 C 144.40,253.46 143.74,253.32 143.19,253.19 C 142.63,253.05 142.26,252.94 141.81,252.81 C 141.37,252.68 140.93,252.55 140.51,252.41 C 140.08,252.28 139.67,252.14 139.27,251.99 C 138.87,251.85 138.49,251.70 138.11,251.55 C 137.73,251.39 137.37,251.24 137.02,251.08 C 136.66,250.92 136.32,250.75 135.99,250.59 C 135.66,250.42 135.35,250.25 135.04,250.07 C 134.73,249.89 134.44,249.71 134.16,249.53 C 133.87,249.35 133.58,249.16 133.34,248.97 C 133.11,248.78 132.92,248.59 132.77,248.39 C 132.61,248.20 132.50,248.00 132.42,247.80 C 132.35,247.60 132.31,247.39 132.31,247.19 C 132.32,246.98 132.36,246.77 132.44,246.56 C 132.52,246.35 132.64,246.14 132.80,245.92 C 132.96,245.71 133.15,245.49 133.39,245.27 C 133.63,245.04 133.90,244.82 134.22,244.59 C 134.53,244.37 134.89,244.13 135.28,243.91 C 135.67,243.68 136.10,243.45 136.55,243.23 C 137.01,243.00 137.51,242.78 138.04,242.55 C 138.57,242.33 139.13,242.11 139.73,241.89 C 140.33,241.67 140.97,241.45 141.64,241.23 C 142.31,241.02 143.02,240.80 143.76,240.59 C 144.50,240.37 145.27,240.16 146.09,239.95 C 146.90,239.73 147.74,239.52 148.62,239.31 C 149.51,239.10 150.42,238.89 151.38,238.69 C 152.33,238.48 153.31,238.29 154.33,238.09 C 155.35,237.90 156.40,237.71 157.48,237.53 C 158.57,237.35 159.69,237.17 160.84,237.00 C 162.00,236.83 163.18,236.66 164.41,236.50 C 165.63,236.34 166.88,236.18 168.17,236.03 C 169.46,235.88 170.78,235.73 172.14,235.59 C 173.50,235.45 174.89,235.32 176.31,235.19 C 177.74,235.06 179.20,234.97 180.69,234.81 C 182.18,234.66 183.70,234.47 185.25,234.25 C 186.80,234.03 188.39,233.78 190.00,233.50 C 191.61,233.22 193.26,232.91 194.94,232.56 C 196.61,232.22 198.32,231.84 200.06,231.44 C 201.80,231.03 203.57,230.59 205.38,230.12 C 207.18,229.66 209.01,229.16 210.88,228.62 C 212.74,228.09 214.64,227.53 216.56,226.94 C 218.49,226.34 220.60,225.66 222.44,225.06 C 224.28,224.46 226.00,223.89 227.60,223.35 C 229.20,222.81 230.69,222.29 232.05,221.80 C 233.42,221.32 234.67,220.86 235.80,220.42 C 236.93,219.99 237.94,219.58 238.83,219.20 C 239.72,218.82 240.49,218.47 241.15,218.15 C 241.80,217.82 242.34,217.53 242.76,217.26 C 243.18,216.99 243.48,216.75 243.66,216.53 C 243.84,216.32 243.79,216.16 243.84,215.97 C 243.90,215.78 243.94,215.59 243.97,215.41 C 244.00,215.22 244.02,215.03 244.03,214.84 C 244.04,214.66 244.04,214.47 244.03,214.28 C 244.02,214.09 244.00,213.91 243.97,213.72 C 243.94,213.53 243.90,213.34 243.84,213.16 C 243.79,212.97 243.73,212.78 243.66,212.59 C 243.58,212.41 243.50,212.22 243.41,212.03 C 243.31,211.84 243.26,211.65 243.09,211.47 C 242.93,211.29 242.70,211.11 242.41,210.93 C 242.13,210.75 241.78,210.58 241.37,210.41 C 240.96,210.25 240.49,210.08 239.95,209.92 C 239.42,209.76 238.83,209.61 238.17,209.45 C 237.52,209.30 236.80,209.15 236.02,209.01 C 235.25,208.86 234.41,208.72 233.51,208.59 C 232.61,208.45 231.65,208.32 230.62,208.19 C 229.60,208.06 228.41,207.94 227.38,207.81 C 226.34,207.69 225.35,207.56 224.41,207.44 C 223.46,207.31 222.57,207.19 221.72,207.06 C 220.87,206.94 220.07,206.81 219.31,206.69 C 218.56,206.56 217.85,206.44 217.19,206.31 C 216.53,206.19 215.91,206.06 215.34,205.94 C 214.78,205.81 214.26,205.69 213.78,205.56 C 213.31,205.44 212.88,205.31 212.50,205.19 C 212.12,205.06 211.82,204.94 211.50,204.81 C 211.18,204.69 210.88,204.57 210.59,204.45 C 210.30,204.32 210.02,204.20 209.76,204.09 C 209.50,203.97 209.25,203.85 209.02,203.73 C 208.78,203.62 208.56,203.50 208.36,203.39 C 208.15,203.28 207.96,203.17 207.79,203.05 C 207.61,202.94 207.45,202.83 207.30,202.73 C 207.16,202.62 207.02,202.51 206.91,202.41 C 206.79,202.30 206.69,202.20 206.59,202.09 C 206.50,201.99 206.40,201.88 206.32,201.77 C 206.24,201.67 206.16,201.56 206.09,201.45 C 206.01,201.33 205.95,201.22 205.89,201.11 C 205.83,201.00 205.78,200.88 205.73,200.77 C 205.69,200.65 205.65,200.53 205.62,200.41 C 205.58,200.30 205.56,200.18 205.54,200.05 C 205.52,199.93 205.51,199.81 205.50,199.69 C 205.49,199.56 205.49,199.44 205.50,199.31 C 205.51,199.19 205.53,199.07 205.55,198.95 C 205.58,198.82 205.62,198.70 205.66,198.59 C 205.71,198.47 205.76,198.35 205.83,198.23 C 205.89,198.12 205.96,198.00 206.05,197.89 C 206.13,197.78 206.22,197.67 206.32,197.55 C 206.42,197.44 206.53,197.33 206.65,197.23 C 206.77,197.12 206.89,197.01 207.03,196.91 C 207.17,196.80 207.31,196.69 207.47,196.59 C 207.63,196.49 207.80,196.40 207.99,196.30 C 208.18,196.21 208.38,196.12 208.60,196.04 C 208.82,195.95 209.05,195.87 209.30,195.80 C 209.54,195.72 209.80,195.65 210.08,195.58 C 210.35,195.51 210.64,195.44 210.95,195.38 C 211.25,195.32 211.57,195.26 211.90,195.21 C 212.23,195.16 212.58,195.11 212.94,195.06 C 213.30,195.02 213.68,194.99 214.06,194.94 C 214.45,194.88 214.84,194.82 215.25,194.73 C 215.66,194.65 216.07,194.56 216.50,194.45 C 216.93,194.35 217.36,194.23 217.81,194.09 C 218.26,193.96 218.72,193.82 219.19,193.66 C 219.66,193.50 220.14,193.33 220.62,193.14 C 221.11,192.96 221.61,192.76 222.12,192.55 C 222.64,192.34 223.16,192.11 223.69,191.88 C 224.22,191.64 224.67,191.36 225.31,191.12 C 225.96,190.89 226.70,190.68 227.55,190.48 C 228.39,190.29 229.34,190.11 230.39,189.95 C 231.44,189.79 232.59,189.65 233.84,189.53 C 235.10,189.41 236.45,189.30 237.91,189.22 C 239.36,189.13 240.92,189.07 242.58,189.02 C 244.24,188.97 246.00,188.93 247.86,188.92 C 249.72,188.91 251.68,188.91 253.75,188.94 C 255.82,188.96 258.21,189.02 260.25,189.06 C 262.29,189.11 264.19,189.15 265.96,189.20 C 267.73,189.24 269.37,189.29 270.88,189.34 C 272.39,189.38 273.77,189.43 275.02,189.48 C 276.26,189.54 277.38,189.59 278.36,189.64 C 279.34,189.69 280.19,189.75 280.91,189.80 C 281.63,189.86 282.22,189.92 282.68,189.98 C 283.14,190.04 283.46,190.10 283.66,190.16 C 283.85,190.22 283.79,190.25 283.84,190.34 C 283.90,190.43 283.96,190.55 284.01,190.70 C 284.06,190.84 284.11,191.01 284.15,191.21 C 284.19,191.41 284.23,191.64 284.27,191.89 C 284.30,192.14 284.33,192.43 284.36,192.73 C 284.39,193.04 284.41,193.38 284.43,193.74 C 284.45,194.11 284.46,194.50 284.48,194.91 C 284.49,195.33 284.50,195.78 284.50,196.25 C 284.50,196.72 284.52,197.27 284.50,197.75 C 284.48,198.23 284.45,198.70 284.41,199.14 C 284.36,199.59 284.30,200.01 284.22,200.42 C 284.14,200.83 284.05,201.22 283.94,201.59 C 283.83,201.97 283.70,202.32 283.56,202.66 C 283.42,202.99 283.27,203.31 283.09,203.61 C 282.92,203.91 282.73,204.19 282.53,204.45 C 282.33,204.72 282.11,204.96 281.88,205.19 C 281.64,205.41 281.31,205.56 281.12,205.81 C 280.94,206.06 280.83,206.36 280.79,206.70 C 280.75,207.03 280.77,207.41 280.87,207.84 C 280.96,208.26 281.13,208.73 281.36,209.23 C 281.59,209.74 281.89,210.30 282.27,210.89 C 282.64,211.49 283.08,212.12 283.59,212.80 C 284.10,213.49 284.67,214.21 285.32,214.98 C 285.97,215.74 286.68,216.55 287.47,217.41 C 288.25,218.26 289.23,219.26 290.03,220.09 C 290.84,220.93 291.59,221.71 292.30,222.44 C 293.00,223.16 293.66,223.83 294.27,224.44 C 294.87,225.05 295.43,225.60 295.94,226.09 C 296.45,226.59 296.90,227.03 297.31,227.41 C 297.72,227.79 298.08,228.11 298.39,228.38 C 298.70,228.64 298.96,228.85 299.17,229.00 C 299.38,229.15 299.54,229.24 299.66,229.28 C 299.77,229.32 299.79,229.25 299.84,229.22 C 299.90,229.19 299.95,229.15 300.00,229.09 C 300.05,229.04 300.09,228.98 300.12,228.91 C 300.16,228.83 300.19,228.75 300.22,228.66 C 300.24,228.56 300.27,228.46 300.28,228.34 C 300.30,228.23 300.31,228.10 300.31,227.97 C 300.32,227.83 300.32,227.69 300.31,227.53 C 300.31,227.38 300.30,227.21 300.28,227.03 C 300.27,226.85 300.23,226.64 300.22,226.47 C 300.20,226.30 300.20,226.14 300.20,226.01 C 300.19,225.87 300.20,225.75 300.21,225.65 C 300.22,225.55 300.24,225.46 300.27,225.39 C 300.29,225.32 300.32,225.27 300.36,225.23 C 300.40,225.20 300.44,225.18 300.49,225.18 C 300.54,225.18 300.60,225.19 300.66,225.23 C 300.73,225.26 300.80,225.31 300.88,225.38 C 300.95,225.44 301.05,225.55 301.12,225.62 C 301.20,225.70 301.28,225.76 301.35,225.80 C 301.42,225.85 301.49,225.89 301.55,225.91 C 301.62,225.94 301.68,225.95 301.73,225.95 C 301.79,225.95 301.84,225.94 301.89,225.92 C 301.94,225.90 301.98,225.87 302.02,225.82 C 302.06,225.77 302.10,225.72 302.13,225.65 C 302.17,225.58 302.19,225.50 302.22,225.41 C 302.24,225.31 302.25,225.20 302.28,225.09 C 302.31,224.99 302.35,224.89 302.39,224.80 C 302.43,224.70 302.49,224.61 302.55,224.52 C 302.61,224.42 302.67,224.34 302.75,224.25 C 302.83,224.16 302.91,224.08 303.00,224.00 C 303.09,223.92 303.19,223.84 303.30,223.77 C 303.40,223.69 303.52,223.62 303.64,223.55 C 303.76,223.48 303.89,223.41 304.03,223.34 C 304.17,223.28 304.31,223.21 304.47,223.16 C 304.63,223.10 304.81,223.04 305.01,222.99 C 305.20,222.94 305.42,222.89 305.65,222.85 C 305.88,222.81 306.13,222.77 306.39,222.73 C 306.65,222.70 306.94,222.67 307.23,222.64 C 307.53,222.61 307.85,222.59 308.18,222.57 C 308.51,222.55 308.86,222.54 309.23,222.52 C 309.59,222.51 309.98,222.50 310.38,222.50 C 310.77,222.50 311.18,222.47 311.62,222.50 C 312.07,222.53 312.53,222.60 313.02,222.70 C 313.50,222.80 314.01,222.94 314.55,223.11 C 315.08,223.28 315.64,223.48 316.22,223.72 C 316.80,223.96 317.40,224.23 318.03,224.53 C 318.66,224.84 319.31,225.17 319.98,225.55 C 320.66,225.92 321.36,226.33 322.08,226.77 C 322.80,227.21 323.54,227.68 324.31,228.19 C 325.08,228.70 325.90,229.30 326.69,229.81 C 327.48,230.32 328.26,230.80 329.05,231.25 C 329.83,231.70 330.61,232.11 331.39,232.50 C 332.17,232.89 332.95,233.24 333.72,233.56 C 334.49,233.89 335.26,234.18 336.03,234.44 C 336.80,234.70 337.57,234.93 338.33,235.12 C 339.09,235.32 339.85,235.49 340.61,235.62 C 341.37,235.76 342.12,235.86 342.88,235.94 C 343.63,236.01 344.41,236.02 345.12,236.06 C 345.84,236.11 346.53,236.16 347.19,236.22 C 347.84,236.28 348.47,236.34 349.06,236.41 C 349.66,236.47 350.22,236.55 350.75,236.62 C 351.28,236.70 351.78,236.79 352.25,236.88 C 352.72,236.96 353.16,237.06 353.56,237.16 C 353.97,237.26 354.34,237.36 354.69,237.47 C 355.03,237.58 355.34,237.69 355.62,237.81 C 355.91,237.93 356.14,238.06 356.38,238.19 C 356.61,238.32 356.84,238.45 357.05,238.58 C 357.26,238.71 357.46,238.85 357.64,238.98 C 357.83,239.12 358.00,239.26 358.16,239.41 C 358.32,239.55 358.46,239.70 358.59,239.84 C 358.73,239.99 358.85,240.14 358.95,240.30 C 359.06,240.45 359.15,240.61 359.23,240.77 C 359.32,240.92 359.38,241.09 359.44,241.25 C 359.49,241.41 359.50,241.58 359.56,241.75 C 359.63,241.92 359.71,242.08 359.82,242.24 C 359.93,242.40 360.06,242.57 360.21,242.73 C 360.36,242.89 360.54,243.05 360.73,243.20 C 360.93,243.36 361.15,243.52 361.39,243.67 C 361.63,243.83 361.89,243.98 362.18,244.13 C 362.46,244.29 362.77,244.44 363.10,244.59 C 363.43,244.74 363.78,244.88 364.16,245.03 C 364.53,245.18 365.00,245.32 365.34,245.47 C 365.69,245.61 365.98,245.76 366.22,245.91 C 366.46,246.05 366.65,246.20 366.78,246.34 C 366.92,246.49 367.00,246.64 367.03,246.78 C 367.06,246.93 367.04,247.07 366.97,247.22 C 366.90,247.36 366.77,247.51 366.59,247.66 C 366.42,247.80 366.19,247.95 365.91,248.09 C 365.62,248.24 365.29,248.39 364.91,248.53 C 364.52,248.68 364.00,248.82 363.59,248.97 C 363.19,249.11 362.81,249.26 362.46,249.40 C 362.11,249.54 361.80,249.68 361.51,249.82 C 361.22,249.96 360.96,250.10 360.73,250.23 C 360.51,250.37 360.31,250.51 360.14,250.64 C 359.97,250.77 359.83,250.91 359.73,251.04 C 359.62,251.17 359.54,251.30 359.49,251.43 C 359.44,251.56 359.43,251.69 359.44,251.81 C 359.45,251.94 359.55,252.06 359.56,252.19 C 359.58,252.32 359.57,252.45 359.53,252.58 C 359.49,252.71 359.43,252.85 359.34,252.98 C 359.26,253.12 359.14,253.26 359.00,253.41 C 358.86,253.55 358.69,253.70 358.50,253.84 C 358.31,253.99 358.09,254.14 357.84,254.30 C 357.60,254.45 357.33,254.61 357.03,254.77 C 356.73,254.92 356.41,255.09 356.06,255.25 C 355.71,255.41 355.33,255.59 354.94,255.75 C 354.55,255.91 354.14,256.05 353.72,256.19 C 353.30,256.32 352.86,256.45 352.41,256.56 C 351.95,256.68 351.48,256.78 351.00,256.88 C 350.52,256.97 350.02,257.05 349.50,257.12 C 348.98,257.20 348.45,257.26 347.91,257.31 C 347.36,257.36 346.80,257.41 346.22,257.44 C 345.64,257.47 345.05,257.49 344.44,257.50 C 343.83,257.51 343.20,257.46 342.56,257.50 C 341.92,257.54 341.27,257.61 340.61,257.72 C 339.95,257.83 339.27,257.97 338.58,258.16 C 337.89,258.34 337.18,258.56 336.47,258.81 C 335.75,259.07 335.02,259.36 334.28,259.69 C 333.54,260.02 332.78,260.38 332.02,260.78 C 331.25,261.18 330.47,261.62 329.67,262.09 C 328.88,262.57 328.07,263.08 327.25,263.62 C 326.43,264.17 325.56,264.83 324.75,265.38 C 323.94,265.92 323.16,266.43 322.41,266.91 C 321.65,267.38 320.92,267.82 320.22,268.22 C 319.52,268.62 318.84,268.98 318.19,269.31 C 317.54,269.64 316.91,269.93 316.31,270.19 C 315.71,270.44 315.14,270.66 314.59,270.84 C 314.05,271.03 313.53,271.17 313.03,271.28 C 312.54,271.39 312.07,271.46 311.62,271.50 C 311.18,271.54 310.78,271.52 310.38,271.50 C 309.97,271.48 309.57,271.44 309.19,271.38 C 308.80,271.31 308.43,271.23 308.06,271.12 C 307.70,271.02 307.34,270.90 307.00,270.75 C 306.66,270.60 306.32,270.44 306.00,270.25 C 305.68,270.06 305.36,269.85 305.06,269.62 C 304.76,269.40 304.47,269.15 304.19,268.88 C 303.91,268.60 303.64,268.31 303.38,268.00 C 303.11,267.69 302.92,267.25 302.62,267.00 C 302.33,266.75 302.00,266.57 301.63,266.48 C 301.26,266.38 300.85,266.37 300.40,266.43 C 299.95,266.49 299.45,266.64 298.92,266.86 C 298.39,267.08 297.82,267.38 297.20,267.77 C 296.59,268.15 295.94,268.61 295.24,269.15 C 294.55,269.69 293.81,270.31 293.04,271.01 C 292.26,271.71 291.45,272.49 290.59,273.34 C 289.74,274.20 288.73,275.27 287.91,276.16 C 287.08,277.05 286.33,277.89 285.65,278.68 C 284.97,279.47 284.36,280.22 283.82,280.91 C 283.28,281.61 282.82,282.26 282.42,282.86 C 282.03,283.46 281.70,284.01 281.45,284.52 C 281.20,285.02 281.02,285.48 280.91,285.88 C 280.81,286.29 280.77,286.65 280.80,286.96 C 280.84,287.27 280.95,287.54 281.12,287.75 C 281.30,287.96 281.64,288.06 281.88,288.25 C 282.11,288.44 282.32,288.66 282.52,288.90 C 282.72,289.14 282.90,289.40 283.07,289.70 C 283.24,289.99 283.38,290.30 283.52,290.64 C 283.65,290.98 283.76,291.35 283.86,291.73 C 283.96,292.12 284.04,292.54 284.10,292.98 C 284.17,293.42 284.21,293.88 284.24,294.37 C 284.27,294.86 284.29,295.37 284.28,295.91 C 284.28,296.44 284.33,297.06 284.22,297.59 C 284.11,298.13 283.92,298.63 283.63,299.10 C 283.35,299.57 282.98,300.02 282.52,300.43 C 282.07,300.84 281.52,301.23 280.89,301.58 C 280.26,301.93 279.54,302.25 278.73,302.55 C 277.93,302.84 277.04,303.10 276.05,303.34 C 275.07,303.57 274.01,303.77 272.85,303.95 C 271.70,304.12 270.45,304.26 269.12,304.38 C 267.80,304.49 266.25,304.55 264.88,304.62 C 263.50,304.70 262.17,304.78 260.88,304.84 C 259.58,304.91 258.33,304.97 257.12,305.03 C 255.92,305.09 254.75,305.14 253.62,305.19 C 252.50,305.23 251.42,305.28 250.38,305.31 C 249.33,305.35 248.33,305.38 247.38,305.41 C 246.42,305.43 245.50,305.45 244.62,305.47 C 243.75,305.48 242.92,305.49 242.12,305.50 Z" stroke="none" fill="currentColor" opacity="0.11" />
  <path d="M192.08,245.91L198.14,245.91 M198.13,246.75L192.07,246.74 M198.19,246.63L192.14,246.64 M191.07,247.39L198.17,247.39 M198.18,248.24L191.07,248.24 M198.24,248.06L191.13,248.06 M251.40,233.90L262.15,234.17 M251.40,260.69L262.15,260.42 M336.82,239.68L330.58,240.36 M330.58,240.36L323.22,240.92 M336.82,254.91L330.58,254.23 M330.58,254.23L323.22,253.66 M228.57,270.07L242.31,274.22 M228.57,224.52L242.31,220.36 M202.03,236.36L190.86,238.01 M202.12,235.81L190.72,237.50 M202.01,235.77L190.68,237.46 M294.99,226.29L290.28,221.14 M294.99,268.30L290.28,273.45 M238.73,260.34L231.79,260.12 M231.79,260.12L219.33,259.89 M295.98,234.41L307.50,235.51 M288.33,233.43L278.42,233.18 M214.46,238.60L226.61,237.51 M226.61,237.51L233.20,236.79 M233.20,236.79L239.52,236.23 M214.46,255.99L226.61,257.08 M226.61,257.08L233.20,257.80 M233.20,257.80L239.52,258.35 M219.33,234.70L231.79,234.47 M231.79,234.47L238.73,234.25 M307.50,259.08L295.98,260.18 M288.33,261.16L278.42,261.41 M303.77,260.55L294.07,261.21 M303.77,234.04L294.07,233.38 M261.41,273.53L254.45,272.75 M261.41,221.06L254.45,221.83 M323.02,241.91L313.33,241.92 M308.93,241.92L302.20,241.92 M313.33,252.67L323.02,252.68 M308.93,252.67L302.20,252.67 M306.36,257.71L295.46,258.57 M214.81,254.06L223.37,254.07 M215.30,240.38L226.10,240.41 M215.30,254.21L226.10,254.18 M335.07,248.29L335.82,248.29 M334.71,244.02L340.72,244.52 M320.27,251.42L312.87,251.34 M312.97,242.93L320.29,242.83 M334.58,249.65L325.15,249.65 M334.86,249.65L341.47,249.65 M251.85,248.14L249.37,248.74 M251.95,269.71L239.46,268.66 M251.52,266.50L239.20,266.01 M251.67,267.25L239.36,266.81 M251.46,268.39L239.15,267.93 M239.19,266.27L251.50,266.71 M251.65,265.91L239.34,265.45 M251.46,268.20L239.14,267.72 M251.57,268.56L239.26,268.09 M229.77,267.62L237.38,267.93 M238.58,266.65L230.95,266.38 M238.58,266.65L228.76,266.29 M238.71,265.43L228.82,265.04 M228.80,265.40L238.68,265.72 M231.08,267.51L238.71,267.81 M238.71,267.81L228.88,267.43 M228.90,265.74L238.79,266.12 M229.73,265.09L243.77,265.47 M243.69,268.75L229.59,268.33 M246.57,269.82L255.21,270.51 M255.39,264.89L246.72,264.88 M255.39,229.70L246.72,229.71 M246.57,224.77L255.21,224.08 M252.08,229.60L239.56,229.54 M251.46,226.21L239.15,226.65 M251.52,228.11L239.20,228.57 M239.14,226.87L251.46,226.39 M251.57,226.01L239.26,226.48 M251.50,227.88L239.19,228.32 M239.36,227.75L251.67,227.32 M251.65,228.68L239.34,229.14 M229.82,228.97L237.44,228.72 M238.56,227.26L230.93,227.55 M238.56,227.26L228.74,227.62 M238.63,226.35L228.74,226.70 M228.74,227.00L238.61,226.58 M231.15,229.26L238.77,228.98 M238.77,228.98L228.95,229.35 M228.87,227.75L238.76,227.38 M229.73,229.50L243.77,229.12 M243.69,225.84L229.59,226.26 M286.75,253.09L286.75,249.52 M287.09,253.08L287.09,249.51 M287.42,241.53L287.42,245.10 M287.09,241.51L287.09,245.08 M286.75,241.50L286.75,245.07 M201.86,239.25L209.60,238.84 M206.38,250.72L207.11,250.72 M197.67,243.87L198.39,243.87 M249.35,250.20L249.35,243.30 M248.81,243.30L241.34,243.30 M201.12,245.17L206.59,248.98 M207.81,244.64L207.07,244.63 M165.79,251.74L179.39,251.74 M165.79,252.68L179.39,252.68 M165.93,251.92L179.50,251.91 M179.39,251.74L186.39,251.60 M165.93,252.50L179.50,252.50 M179.39,252.68L186.42,252.55 M179.50,252.50L186.54,252.36 M179.50,251.91L186.52,251.78 M165.78,242.22L179.11,242.22 M179.11,242.22L190.79,242.22 M165.78,243.17L179.11,243.17 M165.93,242.40L179.21,242.40 M179.21,242.40L190.93,242.40 M165.93,242.99L179.21,242.98 M179.21,242.98L190.86,242.99 M179.11,243.17L190.67,243.17 M170.01,255.89L161.33,253.07 M169.95,255.45L161.29,252.56 M183.17,255.69L193.50,257.56 M183.20,255.98L193.53,257.85 M183.23,256.42L193.55,258.29 M182.64,255.60L170.34,255.18 M170.51,256.47L182.74,256.87 M161.33,241.50L170.01,238.67 M169.95,239.11L161.29,242.00 M183.17,238.87L193.50,237.00 M183.20,238.58L193.53,236.71 M183.23,238.14L193.55,236.27 M182.64,238.96L170.34,239.38 M170.51,238.09L182.74,237.69 M179.22,250.57L179.15,244.39 M179.92,247.80L187.56,247.69 M179.92,246.79L187.56,246.90 M164.91,243.88L174.12,243.87 M164.91,250.77L174.12,250.77 M174.90,250.28L166.46,250.17 M166.41,244.35L174.76,244.38 M166.47,244.38L174.78,244.34 M166.51,250.57L165.84,250.55 M208.51,296.93L215.51,298.05 M208.66,292.41L215.51,293.30 M238.04,298.58L232.89,297.12 M259.72,298.77L263.20,297.45 M244.00,296.17L238.98,294.99 M242.99,300.50L235.01,300.59 M263.29,300.16L242.99,300.50 M253.08,304.66L259.88,304.59 M253.08,304.57L259.88,304.49 M253.08,304.67L259.88,304.60 M246.60,304.82L261.19,303.90 M246.60,304.76L261.19,303.89 M261.18,303.82L246.59,304.73 M208.51,197.66L215.51,196.54 M208.66,202.18L215.51,201.29 M237.72,195.90L232.52,197.03 M242.94,195.97L238.12,197.04 M238.92,196.90L243.92,195.66 M259.81,195.97L262.85,197.03 M253.08,189.93L259.88,190.00 M253.08,190.02L259.88,190.10 M253.08,189.92L259.88,189.99 M261.18,190.77L246.59,189.86 M246.60,189.77L261.19,190.68 M246.61,189.80L261.19,190.70 M298.30,252.35L308.78,250.77 M298.30,242.33L308.76,243.90 M297.77,252.81L308.68,251.16 M324.10,250.33L333.11,250.34 M324.10,250.03L333.12,250.04 M324.10,244.26L333.11,244.25 M330.85,241.72L321.21,241.72 M338.60,241.88L330.86,241.86 M338.59,241.75L330.85,241.72 M321.21,252.76L330.86,252.73 M338.60,252.70L330.86,252.73 M338.59,252.85L330.85,252.87 M346.69,243.93L340.24,243.97 M346.76,244.57L340.24,244.60 M346.69,250.66L340.24,250.62 M346.76,250.02L340.24,249.99 M330.86,242.00L321.21,241.95 M330.85,241.72L321.21,241.72 M338.59,242.02L330.86,242.00 M338.60,241.88L330.86,241.86 M338.58,242.08L330.85,242.06 M324.56,249.01L338.75,248.98 M330.86,252.59L338.59,252.56 M338.58,252.51L330.85,252.53 M338.59,252.85L330.85,252.87 M325.07,245.70L338.75,245.91 M325.07,245.70L317.13,245.35" stroke="currentColor" stroke-width="0.6" stroke-linecap="round" fill="none" opacity="0.55" clip-path="url(#hull-clip)" filter="url(#glow)" />
  <path d="M 242.12,305.50 C 241.33,305.51 240.61,305.52 239.88,305.50 C 239.14,305.48 238.42,305.45 237.72,305.41 C 237.02,305.36 236.33,305.30 235.66,305.22 C 234.98,305.14 234.33,305.05 233.69,304.94 C 233.05,304.83 232.42,304.70 231.81,304.56 C 231.20,304.42 230.61,304.27 230.03,304.09 C 229.45,303.92 228.89,303.73 228.34,303.53 C 227.80,303.33 227.27,303.11 226.75,302.88 C 226.23,302.64 225.75,302.36 225.25,302.12 C 224.75,301.89 224.25,301.66 223.75,301.44 C 223.25,301.22 222.75,301.01 222.25,300.81 C 221.75,300.61 221.25,300.43 220.75,300.25 C 220.25,300.07 219.75,299.91 219.25,299.75 C 218.75,299.59 218.25,299.45 217.75,299.31 C 217.25,299.18 216.75,299.05 216.25,298.94 C 215.75,298.82 215.25,298.72 214.75,298.62 C 214.25,298.53 213.73,298.46 213.25,298.38 C 212.77,298.29 212.32,298.20 211.90,298.12 C 211.47,298.03 211.07,297.94 210.70,297.85 C 210.32,297.76 209.97,297.67 209.64,297.58 C 209.31,297.49 209.01,297.39 208.73,297.30 C 208.46,297.20 208.20,297.11 207.98,297.01 C 207.75,296.91 207.55,296.81 207.37,296.71 C 207.19,296.61 207.04,296.51 206.91,296.41 C 206.78,296.30 206.68,296.20 206.59,296.09 C 206.50,295.98 206.42,295.87 206.36,295.75 C 206.29,295.63 206.24,295.51 206.20,295.38 C 206.16,295.24 206.14,295.11 206.12,294.97 C 206.11,294.83 206.11,294.68 206.12,294.53 C 206.14,294.38 206.16,294.22 206.20,294.06 C 206.24,293.90 206.29,293.73 206.36,293.56 C 206.42,293.39 206.50,293.21 206.59,293.03 C 206.68,292.85 206.79,292.65 206.91,292.47 C 207.02,292.29 207.14,292.11 207.27,291.93 C 207.40,291.75 207.55,291.58 207.70,291.41 C 207.85,291.25 208.00,291.08 208.17,290.92 C 208.34,290.76 208.52,290.61 208.70,290.45 C 208.89,290.30 209.08,290.15 209.29,290.01 C 209.49,289.86 209.71,289.72 209.93,289.59 C 210.15,289.45 210.38,289.32 210.62,289.19 C 210.87,289.06 211.07,288.94 211.38,288.81 C 211.68,288.69 212.05,288.56 212.47,288.44 C 212.89,288.31 213.37,288.19 213.91,288.06 C 214.44,287.94 215.04,287.81 215.69,287.69 C 216.34,287.56 217.05,287.44 217.81,287.31 C 218.58,287.19 219.40,287.06 220.28,286.94 C 221.16,286.81 222.10,286.69 223.09,286.56 C 224.09,286.44 225.14,286.31 226.25,286.19 C 227.36,286.06 228.65,285.94 229.75,285.81 C 230.85,285.68 231.88,285.55 232.85,285.41 C 233.82,285.28 234.72,285.14 235.55,284.99 C 236.39,284.85 237.16,284.70 237.86,284.55 C 238.56,284.39 239.20,284.24 239.77,284.08 C 240.33,283.92 240.84,283.75 241.27,283.59 C 241.71,283.42 242.08,283.25 242.38,283.07 C 242.69,282.89 242.92,282.71 243.09,282.53 C 243.26,282.35 243.31,282.15 243.41,281.97 C 243.50,281.78 243.60,281.60 243.68,281.41 C 243.76,281.23 243.84,281.05 243.91,280.87 C 243.99,280.69 244.05,280.51 244.11,280.33 C 244.17,280.15 244.22,279.97 244.27,279.80 C 244.31,279.62 244.35,279.45 244.38,279.27 C 244.42,279.10 244.44,278.93 244.46,278.76 C 244.48,278.59 244.49,278.42 244.50,278.25 C 244.51,278.08 244.51,277.91 244.50,277.75 C 244.49,277.59 244.48,277.44 244.46,277.29 C 244.44,277.14 244.42,277.00 244.38,276.87 C 244.35,276.73 244.31,276.61 244.27,276.48 C 244.22,276.36 244.17,276.25 244.11,276.14 C 244.05,276.03 243.99,275.93 243.91,275.84 C 243.84,275.74 243.76,275.65 243.68,275.57 C 243.60,275.49 243.50,275.41 243.41,275.34 C 243.31,275.27 243.31,275.25 243.09,275.16 C 242.88,275.06 242.55,274.93 242.12,274.77 C 241.68,274.61 241.13,274.42 240.48,274.20 C 239.82,273.97 239.05,273.71 238.17,273.42 C 237.29,273.13 236.30,272.81 235.20,272.45 C 234.10,272.10 232.89,271.71 231.57,271.29 C 230.25,270.87 228.82,270.42 227.27,269.93 C 225.73,269.44 224.08,268.93 222.31,268.38 C 220.55,267.82 218.57,267.19 216.69,266.62 C 214.80,266.06 212.91,265.52 211.00,265.00 C 209.09,264.48 207.18,263.98 205.25,263.50 C 203.32,263.02 201.39,262.56 199.44,262.12 C 197.49,261.69 195.53,261.27 193.56,260.88 C 191.59,260.48 189.61,260.10 187.62,259.75 C 185.64,259.40 183.64,259.06 181.62,258.75 C 179.61,258.44 177.59,258.15 175.56,257.88 C 173.53,257.60 171.38,257.37 169.44,257.12 C 167.49,256.88 165.65,256.65 163.91,256.42 C 162.16,256.20 160.52,255.98 158.97,255.77 C 157.42,255.55 155.97,255.35 154.62,255.16 C 153.28,254.96 152.03,254.77 150.88,254.59 C 149.72,254.41 148.67,254.24 147.72,254.08 C 146.77,253.91 145.91,253.76 145.16,253.61 C 144.40,253.46 143.74,253.32 143.19,253.19 C 142.63,253.05 142.26,252.94 141.81,252.81 C 141.37,252.68 140.93,252.55 140.51,252.41 C 140.08,252.28 139.67,252.14 139.27,251.99 C 138.87,251.85 138.49,251.70 138.11,251.55 C 137.73,251.39 137.37,251.24 137.02,251.08 C 136.66,250.92 136.32,250.75 135.99,250.59 C 135.66,250.42 135.35,250.25 135.04,250.07 C 134.73,249.89 134.44,249.71 134.16,249.53 C 133.87,249.35 133.58,249.16 133.34,248.97 C 133.11,248.78 132.92,248.59 132.77,248.39 C 132.61,248.20 132.50,248.00 132.42,247.80 C 132.35,247.60 132.31,247.39 132.31,247.19 C 132.32,246.98 132.36,246.77 132.44,246.56 C 132.52,246.35 132.64,246.14 132.80,245.92 C 132.96,245.71 133.15,245.49 133.39,245.27 C 133.63,245.04 133.90,244.82 134.22,244.59 C 134.53,244.37 134.89,244.13 135.28,243.91 C 135.67,243.68 136.10,243.45 136.55,243.23 C 137.01,243.00 137.51,242.78 138.04,242.55 C 138.57,242.33 139.13,242.11 139.73,241.89 C 140.33,241.67 140.97,241.45 141.64,241.23 C 142.31,241.02 143.02,240.80 143.76,240.59 C 144.50,240.37 145.27,240.16 146.09,239.95 C 146.90,239.73 147.74,239.52 148.62,239.31 C 149.51,239.10 150.42,238.89 151.38,238.69 C 152.33,238.48 153.31,238.29 154.33,238.09 C 155.35,237.90 156.40,237.71 157.48,237.53 C 158.57,237.35 159.69,237.17 160.84,237.00 C 162.00,236.83 163.18,236.66 164.41,236.50 C 165.63,236.34 166.88,236.18 168.17,236.03 C 169.46,235.88 170.78,235.73 172.14,235.59 C 173.50,235.45 174.89,235.32 176.31,235.19 C 177.74,235.06 179.20,234.97 180.69,234.81 C 182.18,234.66 183.70,234.47 185.25,234.25 C 186.80,234.03 188.39,233.78 190.00,233.50 C 191.61,233.22 193.26,232.91 194.94,232.56 C 196.61,232.22 198.32,231.84 200.06,231.44 C 201.80,231.03 203.57,230.59 205.38,230.12 C 207.18,229.66 209.01,229.16 210.88,228.62 C 212.74,228.09 214.64,227.53 216.56,226.94 C 218.49,226.34 220.60,225.66 222.44,225.06 C 224.28,224.46 226.00,223.89 227.60,223.35 C 229.20,222.81 230.69,222.29 232.05,221.80 C 233.42,221.32 234.67,220.86 235.80,220.42 C 236.93,219.99 237.94,219.58 238.83,219.20 C 239.72,218.82 240.49,218.47 241.15,218.15 C 241.80,217.82 242.34,217.53 242.76,217.26 C 243.18,216.99 243.48,216.75 243.66,216.53 C 243.84,216.32 243.79,216.16 243.84,215.97 C 243.90,215.78 243.94,215.59 243.97,215.41 C 244.00,215.22 244.02,215.03 244.03,214.84 C 244.04,214.66 244.04,214.47 244.03,214.28 C 244.02,214.09 244.00,213.91 243.97,213.72 C 243.94,213.53 243.90,213.34 243.84,213.16 C 243.79,212.97 243.73,212.78 243.66,212.59 C 243.58,212.41 243.50,212.22 243.41,212.03 C 243.31,211.84 243.26,211.65 243.09,211.47 C 242.93,211.29 242.70,211.11 242.41,210.93 C 242.13,210.75 241.78,210.58 241.37,210.41 C 240.96,210.25 240.49,210.08 239.95,209.92 C 239.42,209.76 238.83,209.61 238.17,209.45 C 237.52,209.30 236.80,209.15 236.02,209.01 C 235.25,208.86 234.41,208.72 233.51,208.59 C 232.61,208.45 231.65,208.32 230.62,208.19 C 229.60,208.06 228.41,207.94 227.38,207.81 C 226.34,207.69 225.35,207.56 224.41,207.44 C 223.46,207.31 222.57,207.19 221.72,207.06 C 220.87,206.94 220.07,206.81 219.31,206.69 C 218.56,206.56 217.85,206.44 217.19,206.31 C 216.53,206.19 215.91,206.06 215.34,205.94 C 214.78,205.81 214.26,205.69 213.78,205.56 C 213.31,205.44 212.88,205.31 212.50,205.19 C 212.12,205.06 211.82,204.94 211.50,204.81 C 211.18,204.69 210.88,204.57 210.59,204.45 C 210.30,204.32 210.02,204.20 209.76,204.09 C 209.50,203.97 209.25,203.85 209.02,203.73 C 208.78,203.62 208.56,203.50 208.36,203.39 C 208.15,203.28 207.96,203.17 207.79,203.05 C 207.61,202.94 207.45,202.83 207.30,202.73 C 207.16,202.62 207.02,202.51 206.91,202.41 C 206.79,202.30 206.69,202.20 206.59,202.09 C 206.50,201.99 206.40,201.88 206.32,201.77 C 206.24,201.67 206.16,201.56 206.09,201.45 C 206.01,201.33 205.95,201.22 205.89,201.11 C 205.83,201.00 205.78,200.88 205.73,200.77 C 205.69,200.65 205.65,200.53 205.62,200.41 C 205.58,200.30 205.56,200.18 205.54,200.05 C 205.52,199.93 205.51,199.81 205.50,199.69 C 205.49,199.56 205.49,199.44 205.50,199.31 C 205.51,199.19 205.53,199.07 205.55,198.95 C 205.58,198.82 205.62,198.70 205.66,198.59 C 205.71,198.47 205.76,198.35 205.83,198.23 C 205.89,198.12 205.96,198.00 206.05,197.89 C 206.13,197.78 206.22,197.67 206.32,197.55 C 206.42,197.44 206.53,197.33 206.65,197.23 C 206.77,197.12 206.89,197.01 207.03,196.91 C 207.17,196.80 207.31,196.69 207.47,196.59 C 207.63,196.49 207.80,196.40 207.99,196.30 C 208.18,196.21 208.38,196.12 208.60,196.04 C 208.82,195.95 209.05,195.87 209.30,195.80 C 209.54,195.72 209.80,195.65 210.08,195.58 C 210.35,195.51 210.64,195.44 210.95,195.38 C 211.25,195.32 211.57,195.26 211.90,195.21 C 212.23,195.16 212.58,195.11 212.94,195.06 C 213.30,195.02 213.68,194.99 214.06,194.94 C 214.45,194.88 214.84,194.82 215.25,194.73 C 215.66,194.65 216.07,194.56 216.50,194.45 C 216.93,194.35 217.36,194.23 217.81,194.09 C 218.26,193.96 218.72,193.82 219.19,193.66 C 219.66,193.50 220.14,193.33 220.62,193.14 C 221.11,192.96 221.61,192.76 222.12,192.55 C 222.64,192.34 223.16,192.11 223.69,191.88 C 224.22,191.64 224.67,191.36 225.31,191.12 C 225.96,190.89 226.70,190.68 227.55,190.48 C 228.39,190.29 229.34,190.11 230.39,189.95 C 231.44,189.79 232.59,189.65 233.84,189.53 C 235.10,189.41 236.45,189.30 237.91,189.22 C 239.36,189.13 240.92,189.07 242.58,189.02 C 244.24,188.97 246.00,188.93 247.86,188.92 C 249.72,188.91 251.68,188.91 253.75,188.94 C 255.82,188.96 258.21,189.02 260.25,189.06 C 262.29,189.11 264.19,189.15 265.96,189.20 C 267.73,189.24 269.37,189.29 270.88,189.34 C 272.39,189.38 273.77,189.43 275.02,189.48 C 276.26,189.54 277.38,189.59 278.36,189.64 C 279.34,189.69 280.19,189.75 280.91,189.80 C 281.63,189.86 282.22,189.92 282.68,189.98 C 283.14,190.04 283.46,190.10 283.66,190.16 C 283.85,190.22 283.79,190.25 283.84,190.34 C 283.90,190.43 283.96,190.55 284.01,190.70 C 284.06,190.84 284.11,191.01 284.15,191.21 C 284.19,191.41 284.23,191.64 284.27,191.89 C 284.30,192.14 284.33,192.43 284.36,192.73 C 284.39,193.04 284.41,193.38 284.43,193.74 C 284.45,194.11 284.46,194.50 284.48,194.91 C 284.49,195.33 284.50,195.78 284.50,196.25 C 284.50,196.72 284.52,197.27 284.50,197.75 C 284.48,198.23 284.45,198.70 284.41,199.14 C 284.36,199.59 284.30,200.01 284.22,200.42 C 284.14,200.83 284.05,201.22 283.94,201.59 C 283.83,201.97 283.70,202.32 283.56,202.66 C 283.42,202.99 283.27,203.31 283.09,203.61 C 282.92,203.91 282.73,204.19 282.53,204.45 C 282.33,204.72 282.11,204.96 281.88,205.19 C 281.64,205.41 281.31,205.56 281.12,205.81 C 280.94,206.06 280.83,206.36 280.79,206.70 C 280.75,207.03 280.77,207.41 280.87,207.84 C 280.96,208.26 281.13,208.73 281.36,209.23 C 281.59,209.74 281.89,210.30 282.27,210.89 C 282.64,211.49 283.08,212.12 283.59,212.80 C 284.10,213.49 284.67,214.21 285.32,214.98 C 285.97,215.74 286.68,216.55 287.47,217.41 C 288.25,218.26 289.23,219.26 290.03,220.09 C 290.84,220.93 291.59,221.71 292.30,222.44 C 293.00,223.16 293.66,223.83 294.27,224.44 C 294.87,225.05 295.43,225.60 295.94,226.09 C 296.45,226.59 296.90,227.03 297.31,227.41 C 297.72,227.79 298.08,228.11 298.39,228.38 C 298.70,228.64 298.96,228.85 299.17,229.00 C 299.38,229.15 299.54,229.24 299.66,229.28 C 299.77,229.32 299.79,229.25 299.84,229.22 C 299.90,229.19 299.95,229.15 300.00,229.09 C 300.05,229.04 300.09,228.98 300.12,228.91 C 300.16,228.83 300.19,228.75 300.22,228.66 C 300.24,228.56 300.27,228.46 300.28,228.34 C 300.30,228.23 300.31,228.10 300.31,227.97 C 300.32,227.83 300.32,227.69 300.31,227.53 C 300.31,227.38 300.30,227.21 300.28,227.03 C 300.27,226.85 300.23,226.64 300.22,226.47 C 300.20,226.30 300.20,226.14 300.20,226.01 C 300.19,225.87 300.20,225.75 300.21,225.65 C 300.22,225.55 300.24,225.46 300.27,225.39 C 300.29,225.32 300.32,225.27 300.36,225.23 C 300.40,225.20 300.44,225.18 300.49,225.18 C 300.54,225.18 300.60,225.19 300.66,225.23 C 300.73,225.26 300.80,225.31 300.88,225.38 C 300.95,225.44 301.05,225.55 301.12,225.62 C 301.20,225.70 301.28,225.76 301.35,225.80 C 301.42,225.85 301.49,225.89 301.55,225.91 C 301.62,225.94 301.68,225.95 301.73,225.95 C 301.79,225.95 301.84,225.94 301.89,225.92 C 301.94,225.90 301.98,225.87 302.02,225.82 C 302.06,225.77 302.10,225.72 302.13,225.65 C 302.17,225.58 302.19,225.50 302.22,225.41 C 302.24,225.31 302.25,225.20 302.28,225.09 C 302.31,224.99 302.35,224.89 302.39,224.80 C 302.43,224.70 302.49,224.61 302.55,224.52 C 302.61,224.42 302.67,224.34 302.75,224.25 C 302.83,224.16 302.91,224.08 303.00,224.00 C 303.09,223.92 303.19,223.84 303.30,223.77 C 303.40,223.69 303.52,223.62 303.64,223.55 C 303.76,223.48 303.89,223.41 304.03,223.34 C 304.17,223.28 304.31,223.21 304.47,223.16 C 304.63,223.10 304.81,223.04 305.01,222.99 C 305.20,222.94 305.42,222.89 305.65,222.85 C 305.88,222.81 306.13,222.77 306.39,222.73 C 306.65,222.70 306.94,222.67 307.23,222.64 C 307.53,222.61 307.85,222.59 308.18,222.57 C 308.51,222.55 308.86,222.54 309.23,222.52 C 309.59,222.51 309.98,222.50 310.38,222.50 C 310.77,222.50 311.18,222.47 311.62,222.50 C 312.07,222.53 312.53,222.60 313.02,222.70 C 313.50,222.80 314.01,222.94 314.55,223.11 C 315.08,223.28 315.64,223.48 316.22,223.72 C 316.80,223.96 317.40,224.23 318.03,224.53 C 318.66,224.84 319.31,225.17 319.98,225.55 C 320.66,225.92 321.36,226.33 322.08,226.77 C 322.80,227.21 323.54,227.68 324.31,228.19 C 325.08,228.70 325.90,229.30 326.69,229.81 C 327.48,230.32 328.26,230.80 329.05,231.25 C 329.83,231.70 330.61,232.11 331.39,232.50 C 332.17,232.89 332.95,233.24 333.72,233.56 C 334.49,233.89 335.26,234.18 336.03,234.44 C 336.80,234.70 337.57,234.93 338.33,235.12 C 339.09,235.32 339.85,235.49 340.61,235.62 C 341.37,235.76 342.12,235.86 342.88,235.94 C 343.63,236.01 344.41,236.02 345.12,236.06 C 345.84,236.11 346.53,236.16 347.19,236.22 C 347.84,236.28 348.47,236.34 349.06,236.41 C 349.66,236.47 350.22,236.55 350.75,236.62 C 351.28,236.70 351.78,236.79 352.25,236.88 C 352.72,236.96 353.16,237.06 353.56,237.16 C 353.97,237.26 354.34,237.36 354.69,237.47 C 355.03,237.58 355.34,237.69 355.62,237.81 C 355.91,237.93 356.14,238.06 356.38,238.19 C 356.61,238.32 356.84,238.45 357.05,238.58 C 357.26,238.71 357.46,238.85 357.64,238.98 C 357.83,239.12 358.00,239.26 358.16,239.41 C 358.32,239.55 358.46,239.70 358.59,239.84 C 358.73,239.99 358.85,240.14 358.95,240.30 C 359.06,240.45 359.15,240.61 359.23,240.77 C 359.32,240.92 359.38,241.09 359.44,241.25 C 359.49,241.41 359.50,241.58 359.56,241.75 C 359.63,241.92 359.71,242.08 359.82,242.24 C 359.93,242.40 360.06,242.57 360.21,242.73 C 360.36,242.89 360.54,243.05 360.73,243.20 C 360.93,243.36 361.15,243.52 361.39,243.67 C 361.63,243.83 361.89,243.98 362.18,244.13 C 362.46,244.29 362.77,244.44 363.10,244.59 C 363.43,244.74 363.78,244.88 364.16,245.03 C 364.53,245.18 365.00,245.32 365.34,245.47 C 365.69,245.61 365.98,245.76 366.22,245.91 C 366.46,246.05 366.65,246.20 366.78,246.34 C 366.92,246.49 367.00,246.64 367.03,246.78 C 367.06,246.93 367.04,247.07 366.97,247.22 C 366.90,247.36 366.77,247.51 366.59,247.66 C 366.42,247.80 366.19,247.95 365.91,248.09 C 365.62,248.24 365.29,248.39 364.91,248.53 C 364.52,248.68 364.00,248.82 363.59,248.97 C 363.19,249.11 362.81,249.26 362.46,249.40 C 362.11,249.54 361.80,249.68 361.51,249.82 C 361.22,249.96 360.96,250.10 360.73,250.23 C 360.51,250.37 360.31,250.51 360.14,250.64 C 359.97,250.77 359.83,250.91 359.73,251.04 C 359.62,251.17 359.54,251.30 359.49,251.43 C 359.44,251.56 359.43,251.69 359.44,251.81 C 359.45,251.94 359.55,252.06 359.56,252.19 C 359.58,252.32 359.57,252.45 359.53,252.58 C 359.49,252.71 359.43,252.85 359.34,252.98 C 359.26,253.12 359.14,253.26 359.00,253.41 C 358.86,253.55 358.69,253.70 358.50,253.84 C 358.31,253.99 358.09,254.14 357.84,254.30 C 357.60,254.45 357.33,254.61 357.03,254.77 C 356.73,254.92 356.41,255.09 356.06,255.25 C 355.71,255.41 355.33,255.59 354.94,255.75 C 354.55,255.91 354.14,256.05 353.72,256.19 C 353.30,256.32 352.86,256.45 352.41,256.56 C 351.95,256.68 351.48,256.78 351.00,256.88 C 350.52,256.97 350.02,257.05 349.50,257.12 C 348.98,257.20 348.45,257.26 347.91,257.31 C 347.36,257.36 346.80,257.41 346.22,257.44 C 345.64,257.47 345.05,257.49 344.44,257.50 C 343.83,257.51 343.20,257.46 342.56,257.50 C 341.92,257.54 341.27,257.61 340.61,257.72 C 339.95,257.83 339.27,257.97 338.58,258.16 C 337.89,258.34 337.18,258.56 336.47,258.81 C 335.75,259.07 335.02,259.36 334.28,259.69 C 333.54,260.02 332.78,260.38 332.02,260.78 C 331.25,261.18 330.47,261.62 329.67,262.09 C 328.88,262.57 328.07,263.08 327.25,263.62 C 326.43,264.17 325.56,264.83 324.75,265.38 C 323.94,265.92 323.16,266.43 322.41,266.91 C 321.65,267.38 320.92,267.82 320.22,268.22 C 319.52,268.62 318.84,268.98 318.19,269.31 C 317.54,269.64 316.91,269.93 316.31,270.19 C 315.71,270.44 315.14,270.66 314.59,270.84 C 314.05,271.03 313.53,271.17 313.03,271.28 C 312.54,271.39 312.07,271.46 311.62,271.50 C 311.18,271.54 310.78,271.52 310.38,271.50 C 309.97,271.48 309.57,271.44 309.19,271.38 C 308.80,271.31 308.43,271.23 308.06,271.12 C 307.70,271.02 307.34,270.90 307.00,270.75 C 306.66,270.60 306.32,270.44 306.00,270.25 C 305.68,270.06 305.36,269.85 305.06,269.62 C 304.76,269.40 304.47,269.15 304.19,268.88 C 303.91,268.60 303.64,268.31 303.38,268.00 C 303.11,267.69 302.92,267.25 302.62,267.00 C 302.33,266.75 302.00,266.57 301.63,266.48 C 301.26,266.38 300.85,266.37 300.40,266.43 C 299.95,266.49 299.45,266.64 298.92,266.86 C 298.39,267.08 297.82,267.38 297.20,267.77 C 296.59,268.15 295.94,268.61 295.24,269.15 C 294.55,269.69 293.81,270.31 293.04,271.01 C 292.26,271.71 291.45,272.49 290.59,273.34 C 289.74,274.20 288.73,275.27 287.91,276.16 C 287.08,277.05 286.33,277.89 285.65,278.68 C 284.97,279.47 284.36,280.22 283.82,280.91 C 283.28,281.61 282.82,282.26 282.42,282.86 C 282.03,283.46 281.70,284.01 281.45,284.52 C 281.20,285.02 281.02,285.48 280.91,285.88 C 280.81,286.29 280.77,286.65 280.80,286.96 C 280.84,287.27 280.95,287.54 281.12,287.75 C 281.30,287.96 281.64,288.06 281.88,288.25 C 282.11,288.44 282.32,288.66 282.52,288.90 C 282.72,289.14 282.90,289.40 283.07,289.70 C 283.24,289.99 283.38,290.30 283.52,290.64 C 283.65,290.98 283.76,291.35 283.86,291.73 C 283.96,292.12 284.04,292.54 284.10,292.98 C 284.17,293.42 284.21,293.88 284.24,294.37 C 284.27,294.86 284.29,295.37 284.28,295.91 C 284.28,296.44 284.33,297.06 284.22,297.59 C 284.11,298.13 283.92,298.63 283.63,299.10 C 283.35,299.57 282.98,300.02 282.52,300.43 C 282.07,300.84 281.52,301.23 280.89,301.58 C 280.26,301.93 279.54,302.25 278.73,302.55 C 277.93,302.84 277.04,303.10 276.05,303.34 C 275.07,303.57 274.01,303.77 272.85,303.95 C 271.70,304.12 270.45,304.26 269.12,304.38 C 267.80,304.49 266.25,304.55 264.88,304.62 C 263.50,304.70 262.17,304.78 260.88,304.84 C 259.58,304.91 258.33,304.97 257.12,305.03 C 255.92,305.09 254.75,305.14 253.62,305.19 C 252.50,305.23 251.42,305.28 250.38,305.31 C 249.33,305.35 248.33,305.38 247.38,305.41 C 246.42,305.43 245.50,305.45 244.62,305.47 C 243.75,305.48 242.92,305.49 242.12,305.50 Z" fill="none" stroke="currentColor" stroke-width="1.5" stroke-linejoin="round" stroke-linecap="round" filter="url(#glow)" />
</svg>