<svg xmlns="http://www.w3.org/2000/svg" width="512" height="512" viewBox="130.95 92.17 301.76 206.54" preserveAspectRatio="xMidYMid meet">
  <defs>
    <filter id="glow" x="-30%" y="-30%" width="160%" height="160%">
      <feGaussianBlur in="SourceGraphic" stdDeviation="2.4" result="blur" />
      <feMerge>
        <feMergeNode in="blur" />
        <feMergeNode in="SourceGraphic" />
      </feMerge>
    </filter>
    <clipPath id="hull-clip">
      <path d="M 308.50,281.50 C 308.15,281.51 307.82,281.50 307.50,281.50 C 307.18,281.50 306.88,281.49 306.60,281.48 C 306.32,281.46 306.05,281.45 305.80,281.43 C 305.56,281.41 305.32,281.39 305.11,281.36 C 304.89,281.33 304.70,281.30 304.52,281.27 C 304.33,281.23 304.17,281.19 304.02,281.15 C 303.88,281.11 303.75,281.06 303.63,281.01 C 303.52,280.96 303.42,280.90 303.34,280.84 C 303.26,280.79 303.23,280.76 303.16,280.66 C 303.09,280.55 303.01,280.40 302.92,280.20 C 302.84,280.01 302.74,279.77 302.64,279.48 C 302.54,279.20 302.43,278.87 302.31,278.50 C 302.20,278.13 302.07,277.71 301.94,277.25 C 301.80,276.79 301.66,276.28 301.52,275.73 C 301.37,275.18 301.21,274.59 301.05,273.95 C 300.88,273.32 300.71,272.63 300.53,271.91 C 300.35,271.18 300.18,270.32 299.97,269.59 C 299.76,268.87 299.53,268.19 299.28,267.56 C 299.03,266.93 298.76,266.35 298.47,265.81 C 298.18,265.28 297.86,264.79 297.53,264.34 C 297.20,263.90 296.84,263.51 296.47,263.16 C 296.09,262.81 295.70,262.51 295.28,262.25 C 294.86,261.99 294.43,261.79 293.97,261.62 C 293.51,261.46 293.03,261.35 292.53,261.28 C 292.03,261.21 291.46,261.24 290.97,261.22 C 290.48,261.19 290.02,261.16 289.59,261.12 C 289.17,261.09 288.77,261.05 288.41,261.00 C 288.04,260.95 287.71,260.90 287.41,260.84 C 287.10,260.79 286.83,260.72 286.59,260.66 C 286.35,260.59 286.15,260.52 285.97,260.44 C 285.79,260.36 285.65,260.28 285.53,260.19 C 285.42,260.10 285.33,260.01 285.28,259.91 C 285.23,259.81 285.21,259.69 285.22,259.59 C 285.23,259.50 285.27,259.40 285.35,259.32 C 285.43,259.24 285.54,259.16 285.68,259.09 C 285.82,259.01 286.00,258.95 286.20,258.89 C 286.41,258.83 286.65,258.78 286.92,258.73 C 287.19,258.69 287.50,258.65 287.84,258.62 C 288.17,258.58 288.54,258.56 288.95,258.54 C 289.35,258.52 289.78,258.51 290.25,258.50 C 290.72,258.49 291.28,258.50 291.75,258.50 C 292.22,258.50 292.66,258.49 293.07,258.48 C 293.48,258.46 293.86,258.45 294.21,258.43 C 294.56,258.41 294.88,258.39 295.17,258.36 C 295.46,258.33 295.72,258.30 295.95,258.27 C 296.18,258.23 296.38,258.19 296.55,258.15 C 296.73,258.11 296.87,258.06 296.98,258.01 C 297.09,257.96 297.17,257.90 297.22,257.84 C 297.27,257.79 297.27,257.75 297.28,257.66 C 297.29,257.56 297.28,257.44 297.26,257.29 C 297.24,257.14 297.20,256.95 297.15,256.74 C 297.10,256.53 297.03,256.29 296.95,256.02 C 296.87,255.74 296.78,255.44 296.67,255.11 C 296.56,254.78 296.44,254.42 296.30,254.02 C 296.17,253.63 296.02,253.21 295.85,252.76 C 295.69,252.31 295.51,251.82 295.31,251.31 C 295.12,250.80 294.91,250.23 294.69,249.69 C 294.47,249.15 294.24,248.60 294.00,248.06 C 293.76,247.52 293.51,246.98 293.25,246.44 C 292.99,245.90 292.72,245.35 292.44,244.81 C 292.16,244.27 291.86,243.73 291.56,243.19 C 291.26,242.65 290.95,242.10 290.62,241.56 C 290.30,241.02 289.97,240.48 289.62,239.94 C 289.28,239.40 288.93,238.85 288.56,238.31 C 288.20,237.77 287.80,237.20 287.44,236.69 C 287.07,236.17 286.72,235.69 286.38,235.23 C 286.04,234.77 285.71,234.33 285.40,233.93 C 285.08,233.52 284.78,233.15 284.48,232.80 C 284.19,232.45 283.91,232.12 283.64,231.83 C 283.37,231.53 283.11,231.26 282.87,231.02 C 282.62,230.78 282.39,230.57 282.16,230.38 C 281.94,230.20 281.73,230.04 281.53,229.91 C 281.33,229.77 281.15,229.68 280.97,229.59 C 280.79,229.50 280.62,229.43 280.46,229.37 C 280.30,229.31 280.15,229.26 280.01,229.23 C 279.87,229.19 279.73,229.18 279.61,229.17 C 279.49,229.17 279.37,229.18 279.27,229.20 C 279.16,229.23 279.06,229.27 278.98,229.32 C 278.89,229.37 278.81,229.44 278.74,229.52 C 278.67,229.61 278.61,229.70 278.56,229.81 C 278.51,229.92 278.49,230.07 278.44,230.19 C 278.39,230.30 278.32,230.41 278.25,230.52 C 278.18,230.62 278.09,230.71 278.00,230.80 C 277.91,230.88 277.80,230.96 277.69,231.03 C 277.57,231.10 277.45,231.16 277.31,231.22 C 277.18,231.27 277.03,231.32 276.88,231.36 C 276.72,231.40 276.55,231.43 276.38,231.45 C 276.20,231.48 276.01,231.49 275.81,231.50 C 275.61,231.51 275.38,231.52 275.19,231.50 C 274.99,231.48 274.81,231.45 274.65,231.40 C 274.48,231.35 274.33,231.28 274.20,231.20 C 274.06,231.11 273.94,231.01 273.83,230.89 C 273.72,230.77 273.63,230.64 273.55,230.48 C 273.47,230.33 273.40,230.16 273.35,229.98 C 273.30,229.79 273.26,229.59 273.24,229.37 C 273.22,229.15 273.21,228.91 273.22,228.66 C 273.23,228.40 273.31,228.14 273.28,227.84 C 273.25,227.55 273.17,227.22 273.03,226.88 C 272.90,226.53 272.71,226.15 272.47,225.75 C 272.23,225.35 271.94,224.92 271.59,224.47 C 271.25,224.02 270.85,223.54 270.41,223.03 C 269.96,222.53 269.46,221.99 268.91,221.44 C 268.35,220.88 267.75,220.30 267.09,219.69 C 266.44,219.08 265.73,218.44 264.97,217.78 C 264.21,217.12 263.33,216.36 262.53,215.72 C 261.73,215.07 260.93,214.47 260.15,213.91 C 259.36,213.36 258.59,212.84 257.82,212.37 C 257.05,211.89 256.30,211.46 255.55,211.08 C 254.80,210.69 254.06,210.35 253.33,210.05 C 252.60,209.75 251.88,209.49 251.16,209.27 C 250.45,209.06 249.75,208.89 249.05,208.76 C 248.36,208.63 247.68,208.54 247.00,208.50 C 246.32,208.46 245.71,208.48 245.00,208.50 C 244.29,208.52 243.55,208.55 242.77,208.59 C 241.98,208.64 241.16,208.70 240.30,208.78 C 239.43,208.86 238.53,208.95 237.59,209.06 C 236.65,209.17 235.67,209.30 234.66,209.44 C 233.64,209.58 232.58,209.73 231.48,209.91 C 230.39,210.08 229.25,210.27 228.08,210.47 C 226.90,210.67 225.69,210.89 224.44,211.12 C 223.18,211.36 221.82,211.64 220.56,211.88 C 219.31,212.11 218.10,212.33 216.92,212.53 C 215.75,212.73 214.61,212.92 213.52,213.09 C 212.42,213.27 211.36,213.42 210.34,213.56 C 209.33,213.70 208.35,213.83 207.41,213.94 C 206.47,214.05 205.57,214.14 204.70,214.22 C 203.84,214.30 203.02,214.36 202.23,214.41 C 201.45,214.45 200.71,214.48 200.00,214.50 C 199.29,214.52 198.67,214.51 198.00,214.50 C 197.33,214.49 196.65,214.47 195.97,214.44 C 195.29,214.41 194.60,214.36 193.91,214.31 C 193.21,214.26 192.52,214.20 191.81,214.12 C 191.11,214.05 190.40,213.97 189.69,213.88 C 188.97,213.78 188.26,213.68 187.53,213.56 C 186.81,213.45 186.08,213.32 185.34,213.19 C 184.61,213.05 183.87,212.91 183.12,212.75 C 182.38,212.59 181.64,212.44 180.88,212.25 C 180.11,212.06 179.32,211.83 178.51,211.59 C 177.70,211.34 176.87,211.06 176.02,210.76 C 175.18,210.45 174.31,210.12 173.42,209.77 C 172.54,209.41 171.63,209.02 170.70,208.61 C 169.78,208.20 168.83,207.76 167.87,207.29 C 166.90,206.82 165.92,206.33 164.91,205.80 C 163.91,205.28 162.89,204.73 161.84,204.16 C 160.80,203.58 159.65,202.92 158.66,202.34 C 157.66,201.77 156.74,201.22 155.89,200.70 C 155.04,200.18 154.26,199.70 153.55,199.23 C 152.84,198.77 152.20,198.34 151.62,197.94 C 151.05,197.53 150.55,197.16 150.12,196.81 C 149.70,196.47 149.34,196.15 149.05,195.86 C 148.76,195.57 148.54,195.31 148.39,195.08 C 148.24,194.85 148.16,194.64 148.16,194.47 C 148.15,194.29 148.26,194.18 148.34,194.03 C 148.43,193.88 148.54,193.72 148.66,193.55 C 148.79,193.39 148.94,193.22 149.12,193.04 C 149.29,192.86 149.49,192.68 149.70,192.48 C 149.92,192.29 150.16,192.10 150.42,191.89 C 150.68,191.69 150.97,191.48 151.27,191.26 C 151.58,191.04 151.91,190.82 152.26,190.59 C 152.61,190.36 152.98,190.12 153.38,189.88 C 153.77,189.63 154.21,189.37 154.62,189.12 C 155.04,188.88 155.46,188.63 155.88,188.39 C 156.29,188.15 156.71,187.91 157.12,187.67 C 157.54,187.43 157.96,187.20 158.38,186.97 C 158.79,186.74 159.21,186.51 159.62,186.28 C 160.04,186.05 160.46,185.83 160.88,185.61 C 161.29,185.39 161.71,185.17 162.12,184.95 C 162.54,184.74 162.96,184.52 163.38,184.31 C 163.79,184.10 164.19,183.90 164.62,183.69 C 165.06,183.48 165.51,183.27 165.98,183.06 C 166.46,182.85 166.95,182.65 167.45,182.44 C 167.96,182.23 168.49,182.02 169.03,181.81 C 169.58,181.60 170.14,181.40 170.72,181.19 C 171.30,180.98 171.90,180.77 172.52,180.56 C 173.13,180.35 173.77,180.15 174.42,179.94 C 175.08,179.73 175.75,179.52 176.44,179.31 C 177.13,179.10 177.84,178.88 178.56,178.69 C 179.29,178.49 180.03,178.31 180.80,178.14 C 181.56,177.97 182.34,177.82 183.14,177.67 C 183.94,177.53 184.76,177.40 185.59,177.28 C 186.43,177.16 187.28,177.06 188.16,176.97 C 189.03,176.88 189.92,176.80 190.83,176.73 C 191.74,176.67 192.66,176.62 193.61,176.58 C 194.55,176.54 195.52,176.51 196.50,176.50 C 197.48,176.49 198.50,176.49 199.50,176.50 C 200.50,176.51 201.51,176.54 202.52,176.58 C 203.52,176.62 204.53,176.67 205.55,176.73 C 206.56,176.80 207.58,176.88 208.59,176.97 C 209.61,177.06 210.63,177.16 211.66,177.28 C 212.68,177.40 213.71,177.53 214.73,177.67 C 215.76,177.82 216.79,177.97 217.83,178.14 C 218.86,178.31 219.90,178.49 220.94,178.69 C 221.98,178.88 223.04,179.11 224.06,179.31 C 225.08,179.51 226.08,179.70 227.06,179.88 C 228.04,180.05 229.00,180.22 229.94,180.38 C 230.88,180.53 231.79,180.68 232.69,180.81 C 233.58,180.95 234.46,181.07 235.31,181.19 C 236.17,181.30 237.00,181.41 237.81,181.50 C 238.62,181.59 239.42,181.68 240.19,181.75 C 240.96,181.82 241.71,181.89 242.44,181.94 C 243.17,181.99 243.84,182.07 244.56,182.06 C 245.28,182.06 246.01,182.01 246.75,181.91 C 247.49,181.81 248.24,181.66 249.00,181.47 C 249.76,181.28 250.53,181.04 251.31,180.75 C 252.09,180.46 252.89,180.13 253.69,179.75 C 254.49,179.37 255.30,178.94 256.12,178.47 C 256.95,177.99 257.78,177.47 258.62,176.91 C 259.47,176.34 260.32,175.72 261.19,175.06 C 262.05,174.40 262.97,173.61 263.81,172.94 C 264.66,172.26 265.48,171.61 266.27,171.00 C 267.05,170.39 267.82,169.80 268.55,169.25 C 269.28,168.70 269.98,168.18 270.66,167.69 C 271.33,167.20 271.98,166.74 272.59,166.31 C 273.21,165.89 273.80,165.49 274.36,165.12 C 274.92,164.76 275.45,164.43 275.95,164.12 C 276.46,163.82 276.93,163.55 277.38,163.31 C 277.82,163.07 278.22,162.90 278.62,162.69 C 279.03,162.47 279.42,162.24 279.80,162.01 C 280.19,161.77 280.56,161.53 280.91,161.27 C 281.27,161.02 281.62,160.76 281.95,160.48 C 282.29,160.21 282.61,159.93 282.92,159.64 C 283.23,159.35 283.53,159.05 283.82,158.74 C 284.11,158.43 284.38,158.12 284.65,157.79 C 284.91,157.46 285.17,157.13 285.41,156.78 C 285.65,156.44 285.86,156.07 286.09,155.72 C 286.32,155.36 286.56,155.01 286.79,154.65 C 287.02,154.29 287.26,153.93 287.49,153.57 C 287.73,153.21 287.96,152.85 288.20,152.48 C 288.44,152.12 288.68,151.76 288.92,151.39 C 289.16,151.02 289.40,150.66 289.65,150.29 C 289.89,149.92 290.14,149.55 290.38,149.18 C 290.63,148.81 290.88,148.44 291.12,148.06 C 291.37,147.69 291.63,147.32 291.88,146.94 C 292.12,146.56 292.35,146.18 292.58,145.80 C 292.80,145.41 293.02,145.03 293.23,144.64 C 293.45,144.25 293.65,143.86 293.84,143.47 C 294.04,143.08 294.23,142.68 294.41,142.28 C 294.59,141.88 294.76,141.48 294.92,141.08 C 295.09,140.67 295.24,140.27 295.39,139.86 C 295.54,139.45 295.68,139.04 295.81,138.62 C 295.95,138.21 296.07,137.77 296.19,137.38 C 296.30,136.98 296.40,136.61 296.49,136.26 C 296.58,135.91 296.66,135.58 296.73,135.27 C 296.79,134.97 296.85,134.68 296.89,134.42 C 296.93,134.16 296.96,133.92 296.98,133.70 C 297.00,133.49 297.01,133.29 297.01,133.12 C 297.00,132.94 296.99,132.79 296.96,132.66 C 296.93,132.54 296.89,132.43 296.84,132.34 C 296.79,132.26 296.74,132.21 296.66,132.16 C 296.57,132.10 296.46,132.05 296.34,132.01 C 296.21,131.96 296.06,131.93 295.88,131.90 C 295.71,131.87 295.51,131.85 295.30,131.83 C 295.08,131.81 294.84,131.80 294.58,131.80 C 294.32,131.79 294.03,131.80 293.73,131.80 C 293.42,131.81 293.09,131.83 292.74,131.85 C 292.39,131.87 292.02,131.90 291.62,131.94 C 291.23,131.97 290.77,132.03 290.38,132.06 C 289.98,132.10 289.61,132.12 289.26,132.13 C 288.91,132.15 288.58,132.15 288.27,132.15 C 287.97,132.14 287.68,132.13 287.42,132.11 C 287.16,132.09 286.92,132.06 286.70,132.02 C 286.49,131.98 286.29,131.93 286.12,131.87 C 285.94,131.81 285.79,131.74 285.66,131.66 C 285.54,131.59 285.43,131.50 285.34,131.41 C 285.26,131.31 285.18,131.19 285.16,131.09 C 285.13,130.99 285.14,130.90 285.19,130.81 C 285.23,130.72 285.32,130.64 285.44,130.56 C 285.56,130.48 285.71,130.41 285.91,130.34 C 286.10,130.28 286.33,130.21 286.59,130.16 C 286.86,130.10 287.16,130.05 287.50,130.00 C 287.84,129.95 288.21,129.91 288.62,129.88 C 289.04,129.84 289.48,129.81 289.97,129.78 C 290.45,129.76 291.04,129.74 291.53,129.72 C 292.02,129.70 292.49,129.67 292.92,129.64 C 293.36,129.61 293.76,129.58 294.14,129.55 C 294.52,129.51 294.87,129.48 295.19,129.44 C 295.51,129.40 295.80,129.36 296.06,129.31 C 296.33,129.27 296.56,129.22 296.77,129.17 C 296.97,129.12 297.15,129.07 297.30,129.02 C 297.45,128.96 297.57,128.90 297.66,128.84 C 297.75,128.78 297.77,128.77 297.84,128.66 C 297.92,128.55 298.00,128.39 298.09,128.19 C 298.19,127.98 298.29,127.73 298.41,127.44 C 298.52,127.14 298.65,126.80 298.78,126.41 C 298.92,126.02 299.06,125.58 299.22,125.09 C 299.38,124.61 299.54,124.08 299.72,123.50 C 299.90,122.92 300.08,122.30 300.28,121.62 C 300.48,120.95 300.69,120.23 300.91,119.47 C 301.12,118.70 301.33,117.79 301.59,117.03 C 301.85,116.27 302.14,115.57 302.46,114.93 C 302.78,114.29 303.13,113.70 303.51,113.16 C 303.89,112.63 304.30,112.15 304.73,111.73 C 305.17,111.31 305.64,110.95 306.14,110.64 C 306.64,110.33 307.17,110.08 307.73,109.88 C 308.29,109.69 308.87,109.55 309.49,109.46 C 310.11,109.38 310.76,109.35 311.44,109.38 C 312.12,109.40 312.89,109.54 313.56,109.62 C 314.24,109.71 314.88,109.80 315.49,109.88 C 316.10,109.97 316.68,110.06 317.23,110.15 C 317.77,110.24 318.29,110.33 318.77,110.42 C 319.25,110.51 319.69,110.61 320.11,110.70 C 320.52,110.80 320.91,110.89 321.26,110.99 C 321.61,111.09 321.93,111.19 322.21,111.29 C 322.50,111.39 322.75,111.49 322.97,111.59 C 323.19,111.70 323.34,111.73 323.53,111.91 C 323.72,112.08 323.91,112.33 324.10,112.65 C 324.29,112.97 324.49,113.36 324.68,113.82 C 324.87,114.28 325.07,114.82 325.27,115.42 C 325.46,116.03 325.66,116.70 325.86,117.45 C 326.06,118.20 326.26,119.02 326.46,119.91 C 326.66,120.81 326.87,121.77 327.07,122.80 C 327.27,123.84 327.48,124.95 327.69,126.12 C 327.89,127.30 328.09,128.67 328.31,129.88 C 328.53,131.08 328.76,132.24 329.01,133.35 C 329.25,134.46 329.51,135.53 329.77,136.55 C 330.04,137.58 330.32,138.55 330.61,139.48 C 330.90,140.42 331.20,141.30 331.52,142.14 C 331.83,142.98 332.15,143.77 332.49,144.52 C 332.83,145.27 333.18,145.98 333.54,146.63 C 333.90,147.29 334.27,147.90 334.66,148.47 C 335.04,149.04 335.44,149.52 335.84,150.03 C 336.25,150.54 336.66,151.03 337.09,151.51 C 337.51,151.99 337.94,152.45 338.38,152.90 C 338.82,153.35 339.27,153.78 339.73,154.20 C 340.19,154.62 340.66,155.03 341.14,155.42 C 341.62,155.81 342.11,156.19 342.60,156.55 C 343.10,156.92 343.60,157.27 344.12,157.60 C 344.63,157.94 345.15,158.26 345.69,158.56 C 346.22,158.87 346.78,159.16 347.31,159.44 C 347.85,159.72 348.38,159.98 348.91,160.23 C 349.43,160.49 349.95,160.73 350.47,160.95 C 350.98,161.18 351.49,161.39 352.00,161.59 C 352.51,161.79 353.01,161.98 353.50,162.16 C 353.99,162.33 354.48,162.49 354.97,162.64 C 355.45,162.79 355.93,162.92 356.41,163.05 C 356.88,163.17 357.35,163.28 357.81,163.38 C 358.28,163.47 358.73,163.53 359.19,163.62 C 359.64,163.72 360.10,163.82 360.55,163.92 C 361.00,164.03 361.45,164.14 361.89,164.27 C 362.34,164.39 362.78,164.52 363.22,164.66 C 363.66,164.79 364.10,164.94 364.53,165.09 C 364.97,165.25 365.40,165.41 365.83,165.58 C 366.26,165.75 366.68,165.92 367.11,166.11 C 367.53,166.29 367.96,166.49 368.38,166.69 C 368.79,166.89 369.17,167.11 369.62,167.31 C 370.08,167.51 370.58,167.70 371.12,167.88 C 371.67,168.05 372.25,168.22 372.88,168.38 C 373.50,168.53 374.17,168.68 374.88,168.81 C 375.58,168.95 376.33,169.07 377.12,169.19 C 377.92,169.30 378.75,169.41 379.62,169.50 C 380.50,169.59 381.42,169.68 382.38,169.75 C 383.33,169.82 384.33,169.89 385.38,169.94 C 386.42,169.99 387.60,170.02 388.62,170.06 C 389.65,170.11 390.62,170.15 391.53,170.20 C 392.44,170.25 393.30,170.30 394.09,170.36 C 394.89,170.41 395.63,170.47 396.31,170.53 C 396.99,170.59 397.62,170.65 398.19,170.72 C 398.76,170.78 399.27,170.85 399.72,170.92 C 400.17,170.99 400.57,171.07 400.91,171.14 C 401.24,171.22 401.53,171.29 401.75,171.38 C 401.97,171.46 402.08,171.55 402.25,171.62 C 402.42,171.70 402.61,171.78 402.80,171.84 C 402.99,171.91 403.18,171.97 403.39,172.03 C 403.60,172.09 403.81,172.14 404.03,172.19 C 404.25,172.23 404.48,172.28 404.72,172.31 C 404.96,172.35 405.20,172.38 405.45,172.41 C 405.71,172.43 405.97,172.45 406.23,172.47 C 406.50,172.48 406.78,172.49 407.06,172.50 C 407.35,172.51 407.65,172.49 407.94,172.50 C 408.22,172.51 408.50,172.54 408.77,172.57 C 409.05,172.61 409.31,172.65 409.57,172.71 C 409.83,172.77 410.08,172.84 410.33,172.92 C 410.57,173.00 410.81,173.10 411.05,173.20 C 411.28,173.31 411.51,173.43 411.73,173.55 C 411.95,173.68 412.16,173.82 412.37,173.98 C 412.57,174.13 412.77,174.29 412.97,174.47 C 413.16,174.64 413.36,174.83 413.53,175.03 C 413.71,175.23 413.87,175.45 414.02,175.68 C 414.18,175.91 414.32,176.15 414.45,176.41 C 414.57,176.67 414.69,176.95 414.80,177.23 C 414.90,177.52 415.00,177.82 415.08,178.14 C 415.16,178.46 415.23,178.79 415.29,179.13 C 415.35,179.48 415.39,179.84 415.43,180.21 C 415.46,180.58 415.49,180.97 415.50,181.38 C 415.51,181.78 415.51,182.23 415.50,182.62 C 415.49,183.02 415.48,183.40 415.45,183.77 C 415.43,184.13 415.40,184.47 415.36,184.80 C 415.32,185.12 415.27,185.43 415.22,185.72 C 415.16,186.01 415.10,186.28 415.03,186.53 C 414.96,186.78 414.88,187.02 414.80,187.23 C 414.71,187.45 414.62,187.65 414.52,187.83 C 414.41,188.01 414.30,188.17 414.19,188.31 C 414.07,188.46 413.93,188.54 413.81,188.69 C 413.70,188.83 413.59,188.99 413.48,189.17 C 413.38,189.35 413.29,189.55 413.20,189.77 C 413.12,189.98 413.04,190.22 412.97,190.47 C 412.90,190.72 412.84,190.99 412.78,191.28 C 412.73,191.57 412.68,191.88 412.64,192.20 C 412.60,192.53 412.57,192.87 412.55,193.23 C 412.52,193.60 412.51,193.98 412.50,194.38 C 412.49,194.77 412.49,195.22 412.50,195.62 C 412.51,196.03 412.52,196.41 412.55,196.78 C 412.57,197.15 412.60,197.51 412.64,197.84 C 412.68,198.18 412.73,198.51 412.78,198.81 C 412.84,199.12 412.90,199.41 412.97,199.69 C 413.04,199.96 413.12,200.22 413.20,200.47 C 413.29,200.71 413.38,200.94 413.48,201.16 C 413.59,201.37 413.70,201.57 413.81,201.75 C 413.93,201.93 414.07,202.07 414.19,202.25 C 414.30,202.43 414.41,202.63 414.52,202.84 C 414.62,203.06 414.71,203.29 414.80,203.53 C 414.88,203.78 414.96,204.04 415.03,204.31 C 415.10,204.59 415.16,204.88 415.22,205.19 C 415.27,205.49 415.32,205.82 415.36,206.16 C 415.40,206.49 415.43,206.85 415.45,207.22 C 415.48,207.59 415.49,207.97 415.50,208.38 C 415.51,208.78 415.51,209.23 415.50,209.62 C 415.49,210.02 415.46,210.41 415.43,210.77 C 415.39,211.14 415.35,211.49 415.29,211.82 C 415.23,212.15 415.16,212.47 415.08,212.77 C 415.00,213.06 414.90,213.35 414.80,213.61 C 414.69,213.87 414.57,214.12 414.45,214.35 C 414.32,214.58 414.18,214.80 414.02,214.99 C 413.87,215.19 413.71,215.37 413.53,215.53 C 413.36,215.69 413.16,215.83 412.97,215.97 C 412.78,216.11 412.58,216.23 412.38,216.35 C 412.18,216.47 411.98,216.58 411.77,216.68 C 411.57,216.78 411.36,216.87 411.14,216.95 C 410.93,217.04 410.71,217.11 410.48,217.17 C 410.26,217.24 410.04,217.29 409.80,217.34 C 409.57,217.38 409.34,217.42 409.10,217.45 C 408.86,217.47 408.62,217.49 408.38,217.50 C 408.13,217.51 407.88,217.49 407.62,217.50 C 407.38,217.51 407.12,217.52 406.88,217.55 C 406.62,217.57 406.38,217.60 406.12,217.64 C 405.88,217.68 405.62,217.73 405.38,217.78 C 405.12,217.84 404.88,217.90 404.62,217.97 C 404.38,218.04 404.12,218.12 403.88,218.20 C 403.62,218.29 403.38,218.38 403.12,218.48 C 402.88,218.59 402.62,218.70 402.38,218.81 C 402.12,218.93 401.93,219.07 401.62,219.19 C 401.32,219.31 400.97,219.42 400.56,219.53 C 400.16,219.64 399.70,219.74 399.19,219.84 C 398.68,219.94 398.11,220.04 397.50,220.12 C 396.89,220.21 396.22,220.30 395.50,220.38 C 394.78,220.45 394.01,220.53 393.19,220.59 C 392.36,220.66 391.49,220.72 390.56,220.78 C 389.64,220.84 388.66,220.89 387.62,220.94 C 386.59,220.98 385.42,221.01 384.38,221.06 C 383.33,221.11 382.32,221.18 381.34,221.25 C 380.37,221.32 379.43,221.41 378.53,221.50 C 377.63,221.59 376.77,221.70 375.94,221.81 C 375.11,221.93 374.32,222.05 373.56,222.19 C 372.81,222.32 372.09,222.47 371.41,222.62 C 370.72,222.78 370.08,222.95 369.47,223.12 C 368.86,223.30 368.29,223.49 367.75,223.69 C 367.21,223.89 366.74,224.11 366.25,224.31 C 365.76,224.51 365.28,224.70 364.81,224.88 C 364.34,225.05 363.89,225.22 363.44,225.38 C 362.99,225.53 362.55,225.68 362.12,225.81 C 361.70,225.95 361.28,226.07 360.88,226.19 C 360.47,226.30 360.07,226.41 359.69,226.50 C 359.30,226.59 358.93,226.68 358.56,226.75 C 358.20,226.82 357.84,226.89 357.50,226.94 C 357.16,226.99 356.84,227.01 356.50,227.06 C 356.16,227.11 355.82,227.18 355.47,227.25 C 355.12,227.32 354.77,227.41 354.41,227.50 C 354.05,227.59 353.68,227.70 353.31,227.81 C 352.94,227.93 352.57,228.05 352.19,228.19 C 351.81,228.32 351.42,228.47 351.03,228.62 C 350.64,228.78 350.24,228.95 349.84,229.12 C 349.44,229.30 349.04,229.49 348.62,229.69 C 348.21,229.89 347.78,230.10 347.38,230.31 C 346.97,230.52 346.57,230.73 346.18,230.95 C 345.79,231.16 345.41,231.37 345.04,231.59 C 344.67,231.80 344.31,232.02 343.95,232.23 C 343.60,232.45 343.26,232.67 342.92,232.89 C 342.59,233.11 342.26,233.33 341.95,233.55 C 341.63,233.78 341.32,234.00 341.02,234.23 C 340.73,234.45 340.44,234.68 340.16,234.91 C 339.88,235.13 339.61,235.35 339.34,235.59 C 339.07,235.83 338.81,236.09 338.54,236.35 C 338.27,236.62 338.01,236.89 337.74,237.18 C 337.48,237.47 337.21,237.77 336.95,238.08 C 336.69,238.39 336.43,238.71 336.17,239.05 C 335.91,239.38 335.65,239.73 335.40,240.09 C 335.14,240.44 334.89,240.81 334.63,241.20 C 334.38,241.58 334.13,241.97 333.88,242.38 C 333.62,242.78 333.37,243.16 333.12,243.62 C 332.88,244.09 332.63,244.61 332.39,245.17 C 332.15,245.74 331.91,246.35 331.67,247.02 C 331.43,247.68 331.20,248.39 330.97,249.16 C 330.74,249.92 330.51,250.73 330.28,251.59 C 330.05,252.46 329.83,253.37 329.61,254.33 C 329.39,255.29 329.17,256.30 328.95,257.36 C 328.74,258.42 328.52,259.53 328.31,260.69 C 328.10,261.85 327.92,263.17 327.69,264.31 C 327.46,265.46 327.20,266.54 326.93,267.55 C 326.65,268.57 326.36,269.52 326.04,270.41 C 325.72,271.30 325.38,272.13 325.02,272.89 C 324.65,273.65 324.27,274.35 323.86,274.98 C 323.45,275.62 323.02,276.19 322.57,276.70 C 322.12,277.20 321.64,277.64 321.15,278.02 C 320.65,278.40 320.13,278.72 319.59,278.97 C 319.05,279.22 318.45,279.36 317.91,279.53 C 317.36,279.71 316.82,279.87 316.30,280.02 C 315.79,280.18 315.28,280.32 314.79,280.45 C 314.30,280.57 313.82,280.69 313.36,280.80 C 312.90,280.90 312.45,281.00 312.02,281.08 C 311.58,281.16 311.16,281.23 310.76,281.29 C 310.35,281.35 309.96,281.39 309.59,281.43 C 309.21,281.46 308.85,281.49 308.50,281.50 Z" />
    </clipPath>
  </defs>
  <path d="M 308.50,281.50 C 308.15,281.51 307.82,281.50 307.50,281.50 C 307.18,281.50 306.88,281.49 306.60,281.48 C 306.32,281.46 306.05,281.45 305.80,281.43 C 305.56,281.41 305.32,281.39 305.11,281.36 C 304.89,281.33 304.70,281.30 304.52,281.27 C 304.33,281.23 304.17,281.19 304.02,281.15 C 303.88,281.11 303.75,281.06 303.63,281.01 C 303.52,280.96 303.42,280.90 303.34,280.84 C 303.26,280.79 303.23,280.76 303.16,280.66 C 303.09,280.55 303.01,280.40 302.92,280.20 C 302.84,280.01 302.74,279.77 302.64,279.48 C 302.54,279.20 302.43,278.87 302.31,278.50 C 302.20,278.13 302.07,277.71 301.94,277.25 C 301.80,276.79 301.66,276.28 301.52,275.73 C 301.37,275.18 301.21,274.59 301.05,273.95 C 300.88,273.32 300.71,272.63 300.53,271.91 C 300.35,271.18 300.18,270.32 299.97,269.59 C 299.76,268.87 299.53,268.19 299.28,267.56 C 299.03,266.93 298.76,266.35 298.47,265.81 C 298.18,265.28 297.86,264.79 297.53,264.34 C 297.20,263.90 296.84,263.51 296.47,263.16 C 296.09,262.81 295.70,262.51 295.28,262.25 C 294.86,261.99 294.43,261.79 293.97,261.62 C 293.51,261.46 293.03,261.35 292.53,261.28 C 292.03,261.21 291.46,261.24 290.97,261.22 C 290.48,261.19 290.02,261.16 289.59,261.12 C 289.17,261.09 288.77,261.05 288.41,261.00 C 288.04,260.95 287.71,260.90 287.41,260.84 C 287.10,260.79 286.83,260.72 286.59,260.66 C 286.35,260.59 286.15,260.52 285.97,260.44 C 285.79,260.36 285.65,260.28 285.53,260.19 C 285.42,260.10 285.33,260.01 285.28,259.91 C 285.23,259.81 285.21,259.69 285.22,259.59 C 285.23,259.50 285.27,259.40 285.35,259.32 C 285.43,259.24 285.54,259.16 285.68,259.09 C 285.82,259.01 286.00,258.95 286.20,258.89 C 286.41,258.83 286.65,258.78 286.92,258.73 C 287.19,258.69 287.50,258.65 287.84,258.62 C 288.17,258.58 288.54,258.56 288.95,258.54 C 289.35,258.52 289.78,258.51 290.25,258.50 C 290.72,258.49 291.28,258.50 291.75,258.50 C 292.22,258.50 292.66,258.49 293.07,258.48 C 293.48,258.46 293.86,258.45 294.21,258.43 C 294.56,258.41 294.88,258.39 295.17,258.36 C 295.46,258.33 295.72,258.30 295.95,258.27 C 296.18,258.23 296.38,258.19 296.55,258.15 C 296.73,258.11 296.87,258.06 296.98,258.01 C 297.09,257.96 297.17,257.90 297.22,257.84 C 297.27,257.79 297.27,257.75 297.28,257.66 C 297.29,257.56 297.28,257.44 297.26,257.29 C 297.24,257.14 297.20,256.95 297.15,256.74 C 297.10,256.53 297.03,256.29 296.95,256.02 C 296.87,255.74 296.78,255.44 296.67,255.11 C 296.56,254.78 296.44,254.42 296.30,254.02 C 296.17,253.63 296.02,253.21 295.85,252.76 C 295.69,252.31 295.51,251.82 295.31,251.31 C 295.12,250.80 294.91,250.23 294.69,249.69 C 294.47,249.15 294.24,248.60 294.00,248.06 C 293.76,247.52 293.51,246.98 293.25,246.44 C 292.99,245.90 292.72,245.35 292.44,244.81 C 292.16,244.27 291.86,243.73 291.56,243.19 C 291.26,242.65 290.95,242.10 290.62,241.56 C 290.30,241.02 289.97,240.48 289.62,239.94 C 289.28,239.40 288.93,238.85 288.56,238.31 C 288.20,237.77 287.80,237.20 287.44,236.69 C 287.07,236.17 286.72,235.69 286.38,235.23 C 286.04,234.77 285.71,234.33 285.40,233.93 C 285.08,233.52 284.78,233.15 284.48,232.80 C 284.19,232.45 283.91,232.12 283.64,231.83 C 283.37,231.53 283.11,231.26 282.87,231.02 C 282.62,230.78 282.39,230.57 282.16,230.38 C 281.94,230.20 281.73,230.04 281.53,229.91 C 281.33,229.77 281.15,229.68 280.97,229.59 C 280.79,229.50 280.62,229.43 280.46,229.37 C 280.30,229.31 280.15,229.26 280.01,229.23 C 279.87,229.19 279.73,229.18 279.61,229.17 C 279.49,229.17 279.37,229.18 279.27,229.20 C 279.16,229.23 279.06,229.27 278.98,229.32 C 278.89,229.37 278.81,229.44 278.74,229.52 C 278.67,229.61 278.61,229.70 278.56,229.81 C 278.51,229.92 278.49,230.07 278.44,230.19 C 278.39,230.30 278.32,230.41 278.25,230.52 C 278.18,230.62 278.09,230.71 278.00,230.80 C 277.91,230.88 277.80,230.96 277.69,231.03 C 277.57,231.10 277.45,231.16 277.31,231.22 C 277.18,231.27 277.03,231.32 276.88,231.36 C 276.72,231.40 276.55,231.43 276.38,231.45 C 276.20,231.48 276.01,231.49 275.81,231.50 C 275.61,231.51 275.38,231.52 275.19,231.50 C 274.99,231.48 274.81,231.45 274.65,231.40 C 274.48,231.35 274.33,231.28 274.20,231.20 C 274.06,231.11 273.94,231.01 273.83,230.89 C 273.72,230.77 273.63,230.64 273.55,230.48 C 273.47,230.33 273.40,230.16 273.35,229.98 C 273.30,229.79 273.26,229.59 273.24,229.37 C 273.22,229.15 273.21,228.91 273.22,228.66 C 273.23,228.40 273.31,228.14 273.28,227.84 C 273.25,227.55 273.17,227.22 273.03,226.88 C 272.90,226.53 272.71,226.15 272.47,225.75 C 272.23,225.35 271.94,224.92 271.59,224.47 C 271.25,224.02 270.85,223.54 270.41,223.03 C 269.96,222.53 269.46,221.99 268.91,221.44 C 268.35,220.88 267.75,220.30 267.09,219.69 C 266.44,219.08 265.73,218.44 264.97,217.78 C 264.21,217.12 263.33,216.36 262.53,215.72 C 261.73,215.07 260.93,214.47 260.15,213.91 C 259.36,213.36 258.59,212.84 257.82,212.37 C 257.05,211.89 256.30,211.46 255.55,211.08 C 254.80,210.69 254.06,210.35 253.33,210.05 C 252.60,209.75 251.88,209.49 251.16,209.27 C 250.45,209.06 249.75,208.89 249.05,208.76 C 248.36,208.63 247.68,208.54 247.00,208.50 C 246.32,208.46 245.71,208.48 245.00,208.50 C 244.29,208.52 243.55,208.55 242.77,208.59 C 241.98,208.64 241.16,208.70 240.30,208.78 C 239.43,208.86 238.53,208.95 237.59,209.06 C 236.65,209.17 235.67,209.30 234.66,209.44 C 233.64,209.58 232.58,209.73 231.48,209.91 C 230.39,210.08 229.25,210.27 228.08,210.47 C 226.90,210.67 225.69,210.89 224.44,211.12 C 223.18,211.36 221.82,211.64 220.56,211.88 C 219.31,212.11 218.10,212.33 216.92,212.53 C 215.75,212.73 214.61,212.92 213.52,213.09 C 212.42,213.27 211.36,213.42 210.34,213.56 C 209.33,213.70 208.35,213.83 207.41,213.94 C 206.47,214.05 205.57,214.14 204.70,214.22 C 203.84,214.30 203.02,214.36 202.23,214.41 C 201.45,214.45 200.71,214.48 200.00,214.50 C 199.29,214.52 198.67,214.51 198.00,214.50 C 197.33,214.49 196.65,214.47 195.97,214.44 C 195.29,214.41 194.60,214.36 193.91,214.31 C 193.21,214.26 192.52,214.20 191.81,214.12 C 191.11,214.05 190.40,213.97 189.69,213.88 C 188.97,213.78 188.26,213.68 187.53,213.56 C 186.81,213.45 186.08,213.32 185.34,213.19 C 184.61,213.05 183.87,212.91 183.12,212.75 C 182.38,212.59 181.64,212.44 180.88,212.25 C 180.11,212.06 179.32,211.83 178.51,211.59 C 177.70,211.34 176.87,211.06 176.02,210.76 C 175.18,210.45 174.31,210.12 173.42,209.77 C 172.54,209.41 171.63,209.02 170.70,208.61 C 169.78,208.20 168.83,207.76 167.87,207.29 C 166.90,206.82 165.92,206.33 164.91,205.80 C 163.91,205.28 162.89,204.73 161.84,204.16 C 160.80,203.58 159.65,202.92 158.66,202.34 C 157.66,201.77 156.74,201.22 155.89,200.70 C 155.04,200.18 154.26,199.70 153.55,199.23 C 152.84,198.77 152.20,198.34 151.62,197.94 C 151.05,197.53 150.55,197.16 150.12,196.81 C 149.70,196.47 149.34,196.15 149.05,195.86 C 148.76,195.57 148.54,195.31 148.39,195.08 C 148.24,194.85 148.16,194.64 148.16,194.47 C 148.15,194.29 148.26,194.18 148.34,194.03 C 148.43,193.88 148.54,193.72 148.66,193.55 C 148.79,193.39 148.94,193.22 149.12,193.04 C 149.29,192.86 149.49,192.68 149.70,192.48 C 149.92,192.29 150.16,192.10 150.42,191.89 C 150.68,191.69 150.97,191.48 151.27,191.26 C 151.58,191.04 151.91,190.82 152.26,190.59 C 152.61,190.36 152.98,190.12 153.38,189.88 C 153.77,189.63 154.21,189.37 154.62,189.12 C 155.04,188.88 155.46,188.63 155.88,188.39 C 156.29,188.15 156.71,187.91 157.12,187.67 C 157.54,187.43 157.96,187.20 158.38,186.97 C 158.79,186.74 159.21,186.51 159.62,186.28 C 160.04,186.05 160.46,185.83 160.88,185.61 C 161.29,185.39 161.71,185.17 162.12,184.95 C 162.54,184.74 162.96,184.52 163.38,184.31 C 163.79,184.10 164.19,183.90 164.62,183.69 C 165.06,183.48 165.51,183.27 165.98,183.06 C 166.46,182.85 166.95,182.65 167.45,182.44 C 167.96,182.23 168.49,182.02 169.03,181.81 C 169.58,181.60 170.14,181.40 170.72,181.19 C 171.30,180.98 171.90,180.77 172.52,180.56 C 173.13,180.35 173.77,180.15 174.42,179.94 C 175.08,179.73 175.75,179.52 176.44,179.31 C 177.13,179.10 177.84,178.88 178.56,178.69 C 179.29,178.49 180.03,178.31 180.80,178.14 C 181.56,177.97 182.34,177.82 183.14,177.67 C 183.94,177.53 184.76,177.40 185.59,177.28 C 186.43,177.16 187.28,177.06 188.16,176.97 C 189.03,176.88 189.92,176.80 190.83,176.73 C 191.74,176.67 192.66,176.62 193.61,176.58 C 194.55,176.54 195.52,176.51 196.50,176.50 C 197.48,176.49 198.50,176.49 199.50,176.50 C 200.50,176.51 201.51,176.54 202.52,176.58 C 203.52,176.62 204.53,176.67 205.55,176.73 C 206.56,176.80 207.58,176.88 208.59,176.97 C 209.61,177.06 210.63,177.16 211.66,177.28 C 212.68,177.40 213.71,177.53 214.73,177.67 C 215.76,177.82 216.79,177.97 217.83,178.14 C 218.86,178.31 219.90,178.49 220.94,178.69 C 221.98,178.88 223.04,179.11 224.06,179.31 C 225.08,179.51 226.08,179.70 227.06,179.88 C 228.04,180.05 229.00,180.22 229.94,180.38 C 230.88,180.53 231.79,180.68 232.69,180.81 C 233.58,180.95 234.46,181.07 235.31,181.19 C 236.17,181.30 237.00,181.41 237.81,181.50 C 238.62,181.59 239.42,181.68 240.19,181.75 C 240.96,181.82 241.71,181.89 242.44,181.94 C 243.17,181.99 243.84,182.07 244.56,182.06 C 245.28,182.06 246.01,182.01 246.75,181.91 C 247.49,181.81 248.24,181.66 249.00,181.47 C 249.76,181.28 250.53,181.04 251.31,180.75 C 252.09,180.46 252.89,180.13 253.69,179.75 C 254.49,179.37 255.30,178.94 256.12,178.47 C 256.95,177.99 257.78,177.47 258.62,176.91 C 259.47,176.34 260.32,175.72 261.19,175.06 C 262.05,174.40 262.97,173.61 263.81,172.94 C 264.66,172.26 265.48,171.61 266.27,171.00 C 267.05,170.39 267.82,169.80 268.55,169.25 C 269.28,168.70 269.98,168.18 270.66,167.69 C 271.33,167.20 271.98,166.74 272.59,166.31 C 273.21,165.89 273.80,165.49 274.36,165.12 C 274.92,164.76 275.45,164.43 275.95,164.12 C 276.46,163.82 276.93,163.55 277.38,163.31 C 277.82,163.07 278.22,162.90 278.62,162.69 C 279.03,162.47 279.42,162.24 279.80,162.01 C 280.19,161.77 280.56,161.53 280.91,161.27 C 281.27,161.02 281.62,160.76 281.95,160.48 C 282.29,160.21 282.61,159.93 282.92,159.64 C 283.23,159.35 283.53,159.05 283.82,158.74 C 284.11,158.43 284.38,158.12 284.65,157.79 C 284.91,157.46 285.17,157.13 285.41,156.78 C 285.65,156.44 285.86,156.07 286.09,155.72 C 286.32,155.36 286.56,155.01 286.79,154.65 C 287.02,154.29 287.26,153.93 287.49,153.57 C 287.73,153.21 287.96,152.85 288.20,152.48 C 288.44,152.12 288.68,151.76 288.92,151.39 C 289.16,151.02 289.40,150.66 289.65,150.29 C 289.89,149.92 290.14,149.55 290.38,149.18 C 290.63,148.81 290.88,148.44 291.12,148.06 C 291.37,147.69 291.63,147.32 291.88,146.94 C 292.12,146.56 292.35,146.18 292.58,145.80 C 292.80,145.41 293.02,145.03 293.23,144.64 C 293.45,144.25 293.65,143.86 293.84,143.47 C 294.04,143.08 294.23,142.68 294.41,142.28 C 294.59,141.88 294.76,141.48 294.92,141.08 C 295.09,140.67 295.24,140.27 295.39,139.86 C 295.54,139.45 295.68,139.04 295.81,138.62 C 295.95,138.21 296.07,137.77 296.19,137.38 C 296.30,136.98 296.40,136.61 296.49,136.26 C 296.58,135.91 296.66,135.58 296.73,135.27 C 296.79,134.97 296.85,134.68 296.89,134.42 C 296.93,134.16 296.96,133.92 296.98,133.70 C 297.00,133.49 297.01,133.29 297.01,133.12 C 297.00,132.94 296.99,132.79 296.96,132.66 C 296.93,132.54 296.89,132.43 296.84,132.34 C 296.79,132.26 296.74,132.21 296.66,132.16 C 296.57,132.10 296.46,132.05 296.34,132.01 C 296.21,131.96 296.06,131.93 295.88,131.90 C 295.71,131.87 295.51,131.85 295.30,131.83 C 295.08,131.81 294.84,131.80 294.58,131.80 C 294.32,131.79 294.03,131.80 293.73,131.80 C 293.42,131.81 293.09,131.83 292.74,131.85 C 292.39,131.87 292.02,131.90 291.62,131.94 C 291.23,131.97 290.77,132.03 290.38,132.06 C 289.98,132.10 289.61,132.12 289.26,132.13 C 288.91,132.15 288.58,132.15 288.27,132.15 C 287.97,132.14 287.68,132.13 287.42,132.11 C 287.16,132.09 286.92,132.06 286.70,132.02 C 286.49,131.98 286.29,131.93 286.12,131.87 C 285.94,131.81 285.79,131.74 285.66,131.66 C 285.54,131.59 285.43,131.50 285.34,131.41 C 285.26,131.31 285.18,131.19 285.16,131.09 C 285.13,130.99 285.14,130.90 285.19,130.81 C 285.23,130.72 285.32,130.64 285.44,130.56 C 285.56,130.48 285.71,130.41 285.91,130.34 C 286.10,130.28 286.33,130.21 286.59,130.16 C 286.86,130.10 287.16,130.05 287.50,130.00 C 287.84,129.95 288.21,129.91 288.62,129.88 C 289.04,129.84 289.48,129.81 289.97,129.78 C 290.45,129.76 291.04,129.74 291.53,129.72 C 292.02,129.70 292.49,129.67 292.92,129.64 C 293.36,129.61 293.76,129.58 294.14,129.55 C 294.52,129.51 294.87,129.48 295.19,129.44 C 295.51,129.40 295.80,129.36 296.06,129.31 C 296.33,129.27 296.56,129.22 296.77,129.17 C 296.97,129.12 297.15,129.07 297.30,129.02 C 297.45,128.96 297.57,128.90 297.66,128.84 C 297.75,128.78 297.77,128.77 297.84,128.66 C 297.92,128.55 298.00,128.39 298.09,128.19 C 298.19,127.98 298.29,127.73 298.41,127.44 C 298.52,127.14 298.65,126.80 298.78,126.41 C 298.92,126.02 299.06,125.58 299.22,125.09 C 299.38,124.61 299.54,124.08 299.72,123.50 C 299.90,122.92 300.08,122.30 300.28,121.62 C 300.48,120.95 300.69,120.23 300.91,119.47 C 301.12,118.70 301.33,117.79 301.59,117.03 C 301.85,116.27 302.14,115.57 302.46,114.93 C 302.78,114.29 303.13,113.70 303.51,113.16 C 303.89,112.63 304.30,112.15 304.73,111.73 C 305.17,111.31 305.64,110.95 306.14,110.64 C 306.64,110.33 307.17,110.08 307.73,109.88 C 308.29,109.69 308.87,109.55 309.49,109.46 C 310.11,109.38 310.76,109.35 311.44,109.38 C 312.12,109.40 312.89,109.54 313.56,109.62 C 314.24,109.71 314.88,109.80 315.49,109.88 C 316.10,109.97 316.68,110.06 317.23,110.15 C 317.77,110.24 318.29,110.33 318.77,110.42 C 319.25,110.51 319.69,110.61 320.11,110.70 C 320.52,110.80 320.91,110.89 321.26,110.99 C 321.61,111.09 321.93,111.19 322.21,111.29 C 322.50,111.39 322.75,111.49 322.97,111.59 C 323.19,111.70 323.34,111.73 323.53,111.91 C 323.72,112.08 323.91,112.33 324.10,112.65 C 324.29,112.97 324.49,113.36 324.68,113.82 C 324.87,114.28 325.07,114.82 325.27,115.42 C 325.46,116.03 325.66,116.70 325.86,117.45 C 326.06,118.20 326.26,119.02 326.46,119.91 C 326.66,120.81 326.87,121.77 327.07,122.80 C 327.27,123.84 327.48,124.95 327.69,126.12 C 327.89,127.30 328.09,128.67 328.31,129.88 C 328.53,131.08 328.76,132.24 329.01,133.35 C 329.25,134.46 329.51,135.53 329.77,136.55 C 330.04,137.58 330.32,138.55 330.61,139.48 C 330.90,140.42 331.20,141.30 331.52,142.14 C 331.83,142.98 332.15,143.77 332.49,144.52 C 332.83,145.27 333.18,145.98 333.54,146.63 C 333.90,147.29 334.27,147.90 334.66,148.47 C 335.04,149.04 335.44,149.52 335.84,150.03 C 336.25,150.54 336.66,151.03 337.09,151.51 C 337.51,151.99 337.94,152.45 338.38,152.90 C 338.82,153.35 339.27,153.78 339.73,154.20 C 340.19,154.62 340.66,155.03 341.14,155.42 C 341.62,155.81 342.11,156.19 342.60,156.55 C 343.10,156.92 343.60,157.27 344.12,157.60 C 344.63,157.94 345.15,158.26 345.69,158.56 C 346.22,158.87 346.78,159.16 347.31,159.44 C 347.85,159.72 348.38,159.98 348.91,160.23 C 349.43,160.49 349.95,160.73 350.47,160.95 C 350.98,161.18 351.49,161.39 352.00,161.59 C 352.51,161.79 353.01,161.98 353.50,162.16 C 353.99,162.33 354.48,162.49 354.97,162.64 C 355.45,162.79 355.93,162.92 356.41,163.05 C 356.88,163.17 357.35,163.28 357.81,163.38 C 358.28,163.47 358.73,163.53 359.19,163.62 C 359.64,163.72 360.10,163.82 360.55,163.92 C 361.00,164.03 361.45,164.14 361.89,164.27 C 362.34,164.39 362.78,164.52 363.22,164.66 C 363.66,164.79 364.10,164.94 364.53,165.09 C 364.97,165.25 365.40,165.41 365.83,165.58 C 366.26,165.75 366.68,165.92 367.11,166.11 C 367.53,166.29 367.96,166.49 368.38,166.69 C 368.79,166.89 369.17,167.11 369.62,167.31 C 370.08,167.51 370.58,167.70 371.12,167.88 C 371.67,168.05 372.25,168.22 372.88,168.38 C 373.50,168.53 374.17,168.68 374.88,168.81 C 375.58,168.95 376.33,169.07 377.12,169.19 C 377.92,169.30 378.75,169.41 379.62,169.50 C 380.50,169.59 381.42,169.68 382.38,169.75 C 383.33,169.82 384.33,169.89 385.38,169.94 C 386.42,169.99 387.60,170.02 388.62,170.06 C 389.65,170.11 390.62,170.15 391.53,170.20 C 392.44,170.25 393.30,170.30 394.09,170.36 C 394.89,170.41 395.63,170.47 396.31,170.53 C 396.99,170.59 397.62,170.65 398.19,170.72 C 398.76,170.78 399.27,170.85 399.72,170.92 C 400.17,170.99 400.57,171.07 400.91,171.14 C 401.24,171.22 401.53,171.29 401.75,171.38 C 401.97,171.46 402.08,171.55 402.25,171.62 C 402.42,171.70 402.61,171.78 402.80,171.84 C 402.99,171.91 403.18,171.97 403.39,172.03 C 403.60,172.09 403.81,172.14 404.03,172.19 C 404.25,172.23 404.48,172.28 404.72,172.31 C 404.96,172.35 405.20,172.38 405.45,172.41 C 405.71,172.43 405.97,172.45 406.23,172.47 C 406.50,172.48 406.78,172.49 407.06,172.50 C 407.35,172.51 407.65,172.49 407.94,172.50 C 408.22,172.51 408.50,172.54 408.77,172.57 C 409.05,172.61 409.31,172.65 409.57,172.71 C 409.83,172.77 410.08,172.84 410.33,172.92 C 410.57,173.00 410.81,173.10 411.05,173.20 C 411.28,173.31 411.51,173.43 411.73,173.55 C 411.95,173.68 412.16,173.82 412.37,173.98 C 412.57,174.13 412.77,174.29 412.97,174.47 C 413.16,174.64 413.36,174.83 413.53,175.03 C 413.71,175.23 413.87,175.45 414.02,175.68 C 414.18,175.91 414.32,176.15 414.45,176.41 C 414.57,176.67 414.69,176.95 414.80,177.23 C 414.90,177.52 415.00,177.82 415.08,178.14 C 415.16,178.46 415.23,178.79 415.29,179.13 C 415.35,179.48 415.39,179.84 415.43,180.21 C 415.46,180.58 415.49,180.97 415.50,181.38 C 415.51,181.78 415.51,182.23 415.50,182.62 C 415.49,183.02 415.48,183.40 415.45,183.77 C 415.43,184.13 415.40,184.47 415.36,184.80 C 415.32,185.12 415.27,185.43 415.22,185.72 C 415.16,186.01 415.10,186.28 415.03,186.53 C 414.96,186.78 414.88,187.02 414.80,187.23 C 414.71,187.45 414.62,187.65 414.52,187.83 C 414.41,188.01 414.30,188.17 414.19,188.31 C 414.07,188.46 413.93,188.54 413.81,188.69 C 413.70,188.83 413.59,188.99 413.48,189.17 C 413.38,189.35 413.29,189.55 413.20,189.77 C 413.12,189.98 413.04,190.22 412.97,190.47 C 412.90,190.72 412.84,190.99 412.78,191.28 C 412.73,191.57 412.68,191.88 412.64,192.20 C 412.60,192.53 412.57,192.87 412.55,193.23 C 412.52,193.60 412.51,193.98 412.50,194.38 C 412.49,194.77 412.49,195.22 412.50,195.62 C 412.51,196.03 412.52,196.41 412.55,196.78 C 412.57,197.15 412.60,197.51 412.64,197.84 C 412.68,198.18 412.73,198.51 412.78,198.81 C 412.84,199.12 412.90,199.41 412.97,199.69 C 413.04,199.96 413.12,200.22 413.20,200.47 C 413.29,200.71 413.38,200.94 413.48,201.16 C 413.59,201.37 413.70,201.57 413.81,201.75 C 413.93,201.93 414.07,202.07 414.19,202.25 C 414.30,202.43 414.41,202.63 414.52,202.84 C 414.62,203.06 414.71,203.29 414.80,203.53 C 414.88,203.78 414.96,204.04 415.03,204.31 C 415.10,204.59 415.16,204.88 415.22,205.19 C 415.27,205.49 415.32,205.82 415.36,206.16 C 415.40,206.49 415.43,206.85 415.45,207.22 C 415.48,207.59 415.49,207.97 415.50,208.38 C 415.51,208.78 415.51,209.23 415.50,209.62 C 415.49,210.02 415.46,210.41 415.43,210.77 C 415.39,211.14 415.35,211.49 415.29,211.82 C 415.23,212.15 415.16,212.47 415.08,212.77 C 415.00,213.06 414.90,213.35 414.80,213.61 C 414.69,213.87 414.57,214.12 414.45,214.35 C 414.32,214.58 414.18,214.80 414.02,214.99 C 413.87,215.19 413.71,215.37 413.53,215.53 C 413.36,215.69 413.16,215.83 412.97,215.97 C 412.78,216.11 412.58,216.23 412.38,216.35 C 412.18,216.47 411.98,216.58 411.77,216.68 C 411.57,216.78 411.36,216.87 411.14,216.95 C 410.93,217.04 410.71,217.11 410.48,217.17 C 410.26,217.24 410.04,217.29 409.80,217.34 C 409.57,217.38 409.34,217.42 409.10,217.45 C 408.86,217.47 408.62,217.49 408.38,217.50 C 408.13,217.51 407.88,217.49 407.62,217.50 C 407.38,217.51 407.12,217.52 406.88,217.55 C 406.62,217.57 406.38,217.60 406.12,217.64 C 405.88,217.68 405.62,217.73 405.38,217.78 C 405.12,217.84 404.88,217.90 404.62,217.97 C 404.38,218.04 404.12,218.12 403.88,218.20 C 403.62,218.29 403.38,218.38 403.12,218.48 C 402.88,218.59 402.62,218.70 402.38,218.81 C 402.12,218.93 401.93,219.07 401.62,219.19 C 401.32,219.31 400.97,219.42 400.56,219.53 C 400.16,219.64 399.70,219.74 399.19,219.84 C 398.68,219.94 398.11,220.04 397.50,220.12 C 396.89,220.21 396.22,220.30 395.50,220.38 C 394.78,220.45 394.01,220.53 393.19,220.59 C 392.36,220.66 391.49,220.72 390.56,220.78 C 389.64,220.84 388.66,220.89 387.62,220.94 C 386.59,220.98 385.42,221.01 384.38,221.06 C 383.33,221.11 382.32,221.18 381.34,221.25 C 380.37,221.32 379.43,221.41 378.53,221.50 C 377.63,221.59 376.77,221.70 375.94,221.81 C 375.11,221.93 374.32,222.05 373.56,222.19 C 372.81,222.32 372.09,222.47 371.41,222.62 C 370.72,222.78 370.08,222.95 369.47,223.12 C 368.86,223.30 368.29,223.49 367.75,223.69 C 367.21,223.89 366.74,224.11 366.25,224.31 C 365.76,224.51 365.28,224.70 364.81,224.88 C 364.34,225.05 363.89,225.22 363.44,225.38 C 362.99,225.53 362.55,225.68 362.12,225.81 C 361.70,225.95 361.28,226.07 360.88,226.19 C 360.47,226.30 360.07,226.41 359.69,226.50 C 359.30,226.59 358.93,226.68 358.56,226.75 C 358.20,226.82 357.84,226.89 357.50,226.94 C 357.16,226.99 356.84,227.01 356.50,227.06 C 356.16,227.11 355.82,227.18 355.47,227.25 C 355.12,227.32 354.77,227.41 354.41,227.50 C 354.05,227.59 353.68,227.70 353.31,227.81 C 352.94,227.93 352.57,228.05 352.19,228.19 C 351.81,228.32 351.42,228.47 351.03,228.62 C 350.64,228.78 350.24,228.95 349.84,229.12 C 349.44,229.30 349.04,229.49 348.62,229.69 C 348.21,229.89 347.78,230.10 347.38,230.31 C 346.97,230.52 346.57,230.73 346.18,230.95 C 345.79,231.16 345.41,231.37 345.04,231.59 C 344.67,231.80 344.31,232.02 343.95,232.23 C 343.60,232.45 343.26,232.67 342.92,232.89 C 342.59,233.11 342.26,233.33 341.95,233.55 C 341.63,233.78 341.32,234.00 341.02,234.23 C 340.73,234.45 340.44,234.68 340.16,234.91 C 339.88,235.13 339.61,235.35 339.34,235.59 C 339.07,235.83 338.81,236.09 338.54,236.35 C 338.27,236.62 338.01,236.89 337.74,237.18 C 337.48,237.47 337.21,237.77 336.95,238.08 C 336.69,238.39 336.43,238.71 336.17,239.05 C 335.91,239.38 335.65,239.73 335.40,240.09 C 335.14,240.44 334.89,240.81 334.63,241.20 C 334.38,241.58 334.13,241.97 333.88,242.38 C 333.62,242.78 333.37,243.16 333.12,243.62 C 332.88,244.09 332.63,244.61 332.39,245.17 C 332.15,245.74 331.91,246.35 331.67,247.02 C 331.43,247.68 331.20,248.39 330.97,249.16 C 330.74,249.92 330.51,250.73 330.28,251.59 C 330.05,252.46 329.83,253.37 329.61,254.33 C 329.39,255.29 329.17,256.30 328.95,257.36 C 328.74,258.42 328.52,259.53 328.31,260.69 C 328.10,261.85 327.92,263.17 327.69,264.31 C 327.46,265.46 327.20,266.54 326.93,267.55 C 326.65,268.57 326.36,269.52 326.04,270.41 C 325.72,271.30 325.38,272.13 325.02,272.89 C 324.65,273.65 324.27,274.35 323.86,274.98 C 323.45,275.62 323.02,276.19 322.57,276.70 C 322.12,277.20 321.64,277.64 321.15,278.02 C 320.65,278.40 320.13,278.72 319.59,278.97 C 319.05,279.22 318.45,279.36 317.91,279.53 C 317.36,279.71 316.82,279.87 316.30,280.02 C 315.79,280.18 315.28,280.32 314.79,280.45 C 314.30,280.57 313.82,280.69 313.36,280.80 C 312.90,280.90 312.45,281.00 312.02,281.08 C 311.58,281.16 311.16,281.23 310.76,281.29 C 310.35,281.35 309.96,281.39 309.59,281.43 C 309.21,281.46 308.85,281.49 308.50,281.50 Z" stroke="none" fill="currentColor" opacity="0.11" />
  <path d="M328.83,188.55L328.43,188.96 M328.83,202.77L328.43,202.36 M351.60,192.62L349.98,192.62 M349.98,193.44L351.60,193.44 M351.60,198.70L349.98,198.70 M349.98,197.88L351.60,197.88 M327.05,198.93L319.69,198.93 M327.05,192.39L319.69,192.39 M353.46,193.99L351.79,193.99 M216.97,184.75L209.51,184.45 M355.10,204.22L343.23,206.15 M216.97,206.57L209.51,206.87 M201.73,207.15L209.34,207.17 M209.34,207.17L216.79,206.95 M201.72,207.28L209.35,207.30 M209.35,207.30L216.81,207.08 M201.72,184.04L209.35,184.02 M209.34,184.15L201.73,184.17 M209.35,184.02L216.81,184.24 M209.34,184.15L216.79,184.37 M215.90,211.15L207.98,211.83 M215.91,211.18L207.99,211.85 M207.99,211.85L200.79,212.03 M200.79,212.01L207.98,211.83 M331.04,247.95L322.40,247.94 M322.16,248.04L330.95,248.04 M356.24,227.43L370.61,222.26 M392.98,214.43L384.28,217.39 M356.24,163.89L370.61,169.06 M384.28,173.93L392.98,176.89 M322.16,143.28L330.95,143.28 M322.36,143.28L330.95,143.28 M307.32,191.80L298.59,193.05 M225.10,186.94L233.45,186.85 M248.26,186.11L255.39,185.62 M255.39,185.62L273.93,184.20 M273.93,207.12L255.39,205.70 M255.39,205.70L248.26,205.21 M233.45,204.47L225.10,204.38 M215.40,189.96L224.25,189.95 M201.72,206.94L194.00,206.50 M209.32,206.96L216.77,206.74 M209.32,206.96L201.72,206.94 M208.04,210.93L215.89,210.28 M209.23,207.21L201.64,207.19 M322.09,249.03L330.65,249.02 M310.92,259.97L320.51,259.98 M310.92,259.95L320.53,259.95 M320.53,260.65L310.92,260.65 M320.51,260.62L310.92,260.64 M311.93,260.02L304.95,260.03 M311.93,260.58L304.95,260.58 M311.91,259.98L304.93,259.99 M311.91,260.61L304.93,260.61 M310.43,261.24L303.54,261.24 M310.64,261.84L318.34,261.81 M310.43,259.36L303.54,259.36 M310.64,258.76L318.34,258.79 M307.82,259.40L315.92,259.36 M307.82,261.20L315.92,261.24 M322.16,248.91L330.57,249.04 M305.78,276.56L300.86,255.53 M322.09,142.29L330.65,142.30 M310.92,130.69L320.51,130.71 M310.92,130.68L320.53,130.68 M320.53,131.38L310.92,131.38 M320.51,131.35L310.92,131.36 M311.93,130.74L304.95,130.75 M311.93,131.30L304.95,131.30 M311.91,130.71L304.93,130.72 M311.91,131.34L304.93,131.34 M310.43,131.97L303.54,131.97 M310.64,132.57L318.34,132.54 M310.43,130.09L303.54,130.09 M310.64,129.49L318.34,129.52 M307.82,130.13L315.92,130.09 M307.82,131.93L315.92,131.97 M330.57,142.29L322.16,142.42 M305.78,114.77L300.86,135.80 M253.39,194.58L253.39,194.58 M253.39,196.74L253.39,196.74 M249.87,200.28L225.29,200.30 M252.57,193.47L252.57,193.47 M252.45,193.58L252.45,193.58 M253.43,194.55L253.43,194.55 M253.43,196.78L253.43,196.78 M252.45,197.74L252.45,197.74 M252.57,197.86L252.57,197.86 M217.46,193.94L208.22,193.94 M217.46,197.38L208.22,197.38 M216.92,195.46L214.58,195.46 M214.44,195.66L216.79,195.56 M216.87,196.06L214.58,196.06 M216.92,195.86L214.58,195.86 M190.22,194.44L228.42,194.23 M190.26,198.85L228.42,199.74 M213.16,191.19L222.97,191.19 M213.16,191.12L222.95,191.12 M213.16,191.19L222.97,191.19 M213.16,200.14L222.97,200.14 M213.16,200.20L222.95,200.20 M213.16,200.14L222.97,200.14 M221.69,190.84L213.13,190.84 M221.38,191.50L213.44,191.50 M213.13,200.48L221.69,200.48 M213.44,199.82L221.38,199.82 M221.40,191.41L213.42,191.41 M221.65,190.92L213.17,190.92 M221.40,199.91L213.42,199.91 M221.65,200.40L213.17,200.40 M223.09,193.92L206.51,193.91 M223.07,193.92L206.51,193.92 M223.07,193.54L206.54,193.54 M223.09,193.54L206.54,193.54 M200.80,193.39L190.22,193.39 M200.80,193.39L190.22,193.39 M200.83,193.02L190.22,193.02 M200.83,193.02L190.22,193.02 M227.74,200.49L210.01,200.49 M210.01,200.07L227.74,200.07 M210.01,200.13L227.74,200.13 M197.39,199.71L190.27,199.22 M197.39,199.65L190.27,199.16 M197.39,200.07L190.27,199.57 M227.74,200.43L210.01,200.43 M197.39,200.00L190.27,199.51 M227.74,190.83L210.01,190.83 M227.74,190.89L210.01,190.89 M210.01,191.25L227.74,191.25 M197.39,191.32L190.27,191.81 M197.39,191.25L190.27,191.75 M190.27,192.16L197.39,191.67 M190.27,192.10L197.39,191.61 M210.01,191.19L227.74,191.19 M190.67,191.43L180.70,191.43 M180.70,192.09L190.67,192.09 M180.70,199.89L190.67,199.89 M190.67,199.23L180.70,199.23 M214.06,199.07L178.13,199.07 M214.06,192.25L178.13,192.25 M307.43,206.82L318.60,206.29 M307.43,184.50L318.60,185.03 M345.98,214.84L345.98,207.48 M345.98,176.48L345.98,183.84 M362.49,201.37L362.49,201.37 M362.62,201.50L362.62,201.50 M362.67,203.20L365.97,212.38 M366.13,212.55L372.47,215.02 M372.47,215.02L380.38,213.74 M380.55,213.85L381.97,213.53 M334.31,221.98L332.65,204.76 M362.49,189.95L362.49,189.95 M362.62,189.82L362.62,189.82 M362.67,188.12L365.97,178.95 M366.13,178.77L372.47,176.30 M380.55,177.47L381.97,177.79 M408.34,186.84L400.81,186.84 M336.35,171.51L332.44,188.48 M372.35,176.05L366.14,178.77 M362.63,189.82L362.62,189.82 M365.97,178.95L362.67,188.25 M372.35,215.27L366.14,212.55 M362.63,201.50L362.62,201.50 M365.97,212.37L362.67,203.07 M360.76,202.01L362.71,200.38 M362.71,190.94L360.76,189.31 M329.52,219.17L329.52,212.30 M329.52,179.02L329.52,172.15 M329.63,179.02L329.63,172.15 M335.53,152.86L330.90,157.49 M325.78,159.10L329.25,153.10 M326.66,159.58L330.13,153.57 M329.84,153.44L326.37,159.44 M346.59,187.96L354.50,187.96 M349.27,180.78L347.59,187.29 M354.27,180.59L352.55,187.29 M353.36,180.78L351.68,187.29 M358.31,180.78L356.63,187.29 M359.18,180.78L357.50,187.29 M339.26,179.81L337.58,186.31 M358.29,184.99L336.05,184.99 M354.50,203.36L346.59,203.36 M349.27,210.54L347.59,204.03 M354.27,210.73L352.55,204.03 M353.36,210.54L351.68,204.03 M358.31,210.54L356.63,204.03 M359.18,210.54L357.50,204.03 M339.26,211.51L337.58,205.01 M336.05,206.33L358.29,206.33 M315.64,193.19L308.15,193.19 M315.64,193.42L308.52,193.42 M315.64,198.13L308.15,198.13 M315.64,197.90L308.52,197.90 M355.97,180.57L344.11,180.57 M355.97,210.75L344.11,210.75 M303.82,204.30L295.01,205.29 M295.01,205.29L286.05,205.55 M292.85,212.89L282.34,210.69 M286.05,185.77L295.01,186.03 M295.01,186.03L303.82,187.02 M303.67,207.07L310.42,208.71 M252.83,186.56L262.46,184.77 M221.30,204.47L242.30,204.40 M252.83,204.76L262.46,206.55 M253.00,205.10L262.34,205.72 M310.42,182.61L303.67,184.25 M378.29,212.16L400.56,212.13 M221.30,186.85L242.30,186.93 M253.00,186.22L262.34,185.60 M290.90,205.74L279.12,206.22 M290.90,205.74L303.53,206.34 M280.43,206.97L290.32,207.22 M378.29,179.16L400.56,179.19 M348.99,166.57L342.19,166.60 M348.99,224.75L342.19,224.72 M361.04,203.33L370.65,201.78 M361.04,187.99L370.65,189.54 M290.90,185.58L279.12,185.10 M290.90,185.58L303.53,184.98 M280.43,184.35L290.32,184.10 M292.85,178.43L282.34,180.63 M359.23,213.40L356.32,203.02 M345.18,214.42L345.18,203.62 M343.71,214.42L343.71,203.62 M343.66,214.42L343.66,203.62 M349.42,214.12L349.42,203.60 M356.21,203.65L358.75,212.74 M337.30,204.81L339.87,214.32 M359.23,177.92L356.32,188.30 M345.18,176.90L345.18,187.70 M343.71,187.70L343.71,176.90 M343.66,176.90L343.66,187.70 M349.42,187.72L349.42,177.20 M337.30,186.51L339.87,177.00 M213.16,200.61L224.93,200.60 M218.84,190.49L227.33,190.52 M213.16,190.71L224.93,190.72 M312.95,167.93L318.75,171.90 M318.75,219.42L312.95,223.39 M337.78,185.23L334.41,187.79 M338.09,185.40L331.61,190.32 M337.78,206.09L334.41,203.53" stroke="currentColor" stroke-width="0.6" stroke-linecap="round" fill="none" opacity="0.55" clip-path="url(#hull-clip)" filter="url(#glow)" />
  <path d="M 308.50,281.50 C 308.15,281.51 307.82,281.50 307.50,281.50 C 307.18,281.50 306.88,281.49 306.60,281.48 C 306.32,281.46 306.05,281.45 305.80,281.43 C 305.56,281.41 305.32,281.39 305.11,281.36 C 304.89,281.33 304.70,281.30 304.52,281.27 C 304.33,281.23 304.17,281.19 304.02,281.15 C 303.88,281.11 303.75,281.06 303.63,281.01 C 303.52,280.96 303.42,280.90 303.34,280.84 C 303.26,280.79 303.23,280.76 303.16,280.66 C 303.09,280.55 303.01,280.40 302.92,280.20 C 302.84,280.01 302.74,279.77 302.64,279.48 C 302.54,279.20 302.43,278.87 302.31,278.50 C 302.20,278.13 302.07,277.71 301.94,277.25 C 301.80,276.79 301.66,276.28 301.52,275.73 C 301.37,275.18 301.21,274.59 301.05,273.95 C 300.88,273.32 300.71,272.63 300.53,271.91 C 300.35,271.18 300.18,270.32 299.97,269.59 C 299.76,268.87 299.53,268.19 299.28,267.56 C 299.03,266.93 298.76,266.35 298.47,265.81 C 298.18,265.28 297.86,264.79 297.53,264.34 C 297.20,263.90 296.84,263.51 296.47,263.16 C 296.09,262.81 295.70,262.51 295.28,262.25 C 294.86,261.99 294.43,261.79 293.97,261.62 C 293.51,261.46 293.03,261.35 292.53,261.28 C 292.03,261.21 291.46,261.24 290.97,261.22 C 290.48,261.19 290.02,261.16 289.59,261.12 C 289.17,261.09 288.77,261.05 288.41,261.00 C 288.04,260.95 287.71,260.90 287.41,260.84 C 287.10,260.79 286.83,260.72 286.59,260.66 C 286.35,260.59 286.15,260.52 285.97,260.44 C 285.79,260.36 285.65,260.28 285.53,260.19 C 285.42,260.10 285.33,260.01 285.28,259.91 C 285.23,259.81 285.21,259.69 285.22,259.59 C 285.23,259.50 285.27,259.40 285.35,259.32 C 285.43,259.24 285.54,259.16 285.68,259.09 C 285.82,259.01 286.00,258.95 286.20,258.89 C 286.41,258.83 286.65,258.78 286.92,258.73 C 287.19,258.69 287.50,258.65 287.84,258.62 C 288.17,258.58 288.54,258.56 288.95,258.54 C 289.35,258.52 289.78,258.51 290.25,258.50 C 290.72,258.49 291.28,258.50 291.75,258.50 C 292.22,258.50 292.66,258.49 293.07,258.48 C 293.48,258.46 293.86,258.45 294.21,258.43 C 294.56,258.41 294.88,258.39 295.17,258.36 C 295.46,258.33 295.72,258.30 295.95,258.27 C 296.18,258.23 296.38,258.19 296.55,258.15 C 296.73,258.11 296.87,258.06 296.98,258.01 C 297.09,257.96 297.17,257.90 297.22,257.84 C 297.27,257.79 297.27,257.75 297.28,257.66 C 297.29,257.56 297.28,257.44 297.26,257.29 C 297.24,257.14 297.20,256.95 297.15,256.74 C 297.10,256.53 297.03,256.29 296.95,256.02 C 296.87,255.74 296.78,255.44 296.67,255.11 C 296.56,254.78 296.44,254.42 296.30,254.02 C 296.17,253.63 296.02,253.21 295.85,252.76 C 295.69,252.31 295.51,251.82 295.31,251.31 C 295.12,250.80 294.91,250.23 294.69,249.69 C 294.47,249.15 294.24,248.60 294.00,248.06 C 293.76,247.52 293.51,246.98 293.25,246.44 C 292.99,245.90 292.72,245.35 292.44,244.81 C 292.16,244.27 291.86,243.73 291.56,243.19 C 291.26,242.65 290.95,242.10 290.62,241.56 C 290.30,241.02 289.97,240.48 289.62,239.94 C 289.28,239.40 288.93,238.85 288.56,238.31 C 288.20,237.77 287.80,237.20 287.44,236.69 C 287.07,236.17 286.72,235.69 286.38,235.23 C 286.04,234.77 285.71,234.33 285.40,233.93 C 285.08,233.52 284.78,233.15 284.48,232.80 C 284.19,232.45 283.91,232.12 283.64,231.83 C 283.37,231.53 283.11,231.26 282.87,231.02 C 282.62,230.78 282.39,230.57 282.16,230.38 C 281.94,230.20 281.73,230.04 281.53,229.91 C 281.33,229.77 281.15,229.68 280.97,229.59 C 280.79,229.50 280.62,229.43 280.46,229.37 C 280.30,229.31 280.15,229.26 280.01,229.23 C 279.87,229.19 279.73,229.18 279.61,229.17 C 279.49,229.17 279.37,229.18 279.27,229.20 C 279.16,229.23 279.06,229.27 278.98,229.32 C 278.89,229.37 278.81,229.44 278.74,229.52 C 278.67,229.61 278.61,229.70 278.56,229.81 C 278.51,229.92 278.49,230.07 278.44,230.19 C 278.39,230.30 278.32,230.41 278.25,230.52 C 278.18,230.62 278.09,230.71 278.00,230.80 C 277.91,230.88 277.80,230.96 277.69,231.03 C 277.57,231.10 277.45,231.16 277.31,231.22 C 277.18,231.27 277.03,231.32 276.88,231.36 C 276.72,231.40 276.55,231.43 276.38,231.45 C 276.20,231.48 276.01,231.49 275.81,231.50 C 275.61,231.51 275.38,231.52 275.19,231.50 C 274.99,231.48 274.81,231.45 274.65,231.40 C 274.48,231.35 274.33,231.28 274.20,231.20 C 274.06,231.11 273.94,231.01 273.83,230.89 C 273.72,230.77 273.63,230.64 273.55,230.48 C 273.47,230.33 273.40,230.16 273.35,229.98 C 273.30,229.79 273.26,229.59 273.24,229.37 C 273.22,229.15 273.21,228.91 273.22,228.66 C 273.23,228.40 273.31,228.14 273.28,227.84 C 273.25,227.55 273.17,227.22 273.03,226.88 C 272.90,226.53 272.71,226.15 272.47,225.75 C 272.23,225.35 271.94,224.92 271.59,224.47 C 271.25,224.02 270.85,223.54 270.41,223.03 C 269.96,222.53 269.46,221.99 268.91,221.44 C 268.35,220.88 267.75,220.30 267.09,219.69 C 266.44,219.08 265.73,218.44 264.97,217.78 C 264.21,217.12 263.33,216.36 262.53,215.72 C 261.73,215.07 260.93,214.47 260.15,213.91 C 259.36,213.36 258.59,212.84 257.82,212.37 C 257.05,211.89 256.30,211.46 255.55,211.08 C 254.80,210.69 254.06,210.35 253.33,210.05 C 252.60,209.75 251.88,209.49 251.16,209.27 C 250.45,209.06 249.75,208.89 249.05,208.76 C 248.36,208.63 247.68,208.54 247.00,208.50 C 246.32,208.46 245.71,208.48 245.00,208.50 C 244.29,208.52 243.55,208.55 242.77,208.59 C 241.98,208.64 241.16,208.70 240.30,208.78 C 239.43,208.86 238.53,208.95 237.59,209.06 C 236.65,209.17 235.67,209.30 234.66,209.44 C 233.64,209.58 232.58,209.73 231.48,209.91 C 230.39,210.08 229.25,210.27 228.08,210.47 C 226.90,210.67 225.69,210.89 224.44,211.12 C 223.18,211.36 221.82,211.64 220.56,211.88 C 219.31,212.11 218.10,212.33 216.92,212.53 C 215.75,212.73 214.61,212.92 213.52,213.09 C 212.42,213.27 211.36,213.42 210.34,213.56 C 209.33,213.70 208.35,213.83 207.41,213.94 C 206.47,214.05 205.57,214.14 204.70,214.22 C 203.84,214.30 203.02,214.36 202.23,214.41 C 201.45,214.45 200.71,214.48 200.00,214.50 C 199.29,214.52 198.67,214.51 198.00,214.50 C 197.33,214.49 196.65,214.47 195.97,214.44 C 195.29,214.41 194.60,214.36 193.91,214.31 C 193.21,214.26 192.52,214.20 191.81,214.12 C 191.11,214.05 190.40,213.97 189.69,213.88 C 188.97,213.78 188.26,213.68 187.53,213.56 C 186.81,213.45 186.08,213.32 185.34,213.19 C 184.61,213.05 183.87,212.91 183.12,212.75 C 182.38,212.59 181.64,212.44 180.88,212.25 C 180.11,212.06 179.32,211.83 178.51,211.59 C 177.70,211.34 176.87,211.06 176.02,210.76 C 175.18,210.45 174.31,210.12 173.42,209.77 C 172.54,209.41 171.63,209.02 170.70,208.61 C 169.78,208.20 168.83,207.76 167.87,207.29 C 166.90,206.82 165.92,206.33 164.91,205.80 C 163.91,205.28 162.89,204.73 161.84,204.16 C 160.80,203.58 159.65,202.92 158.66,202.34 C 157.66,201.77 156.74,201.22 155.89,200.70 C 155.04,200.18 154.26,199.70 153.55,199.23 C 152.84,198.77 152.20,198.34 151.62,197.94 C 151.05,197.53 150.55,197.16 150.12,196.81 C 149.70,196.47 149.34,196.15 149.05,195.86 C 148.76,195.57 148.54,195.31 148.39,195.08 C 148.24,194.85 148.16,194.64 148.16,194.47 C 148.15,194.29 148.26,194.18 148.34,194.03 C 148.43,193.88 148.54,193.72 148.66,193.55 C 148.79,193.39 148.94,193.22 149.12,193.04 C 149.29,192.86 149.49,192.68 149.70,192.48 C 149.92,192.29 150.16,192.10 150.42,191.89 C 150.68,191.69 150.97,191.48 151.27,191.26 C 151.58,191.04 151.91,190.82 152.26,190.59 C 152.61,190.36 152.98,190.12 153.38,189.88 C 153.77,189.63 154.21,189.37 154.62,189.12 C 155.04,188.88 155.46,188.63 155.88,188.39 C 156.29,188.15 156.71,187.91 157.12,187.67 C 157.54,187.43 157.96,187.20 158.38,186.97 C 158.79,186.74 159.21,186.51 159.62,186.28 C 160.04,186.05 160.46,185.83 160.88,185.61 C 161.29,185.39 161.71,185.17 162.12,184.95 C 162.54,184.74 162.96,184.52 163.38,184.31 C 163.79,184.10 164.19,183.90 164.62,183.69 C 165.06,183.48 165.51,183.27 165.98,183.06 C 166.46,182.85 166.95,182.65 167.45,182.44 C 167.96,182.23 168.49,182.02 169.03,181.81 C 169.58,181.60 170.14,181.40 170.72,181.19 C 171.30,180.98 171.90,180.77 172.52,180.56 C 173.13,180.35 173.77,180.15 174.42,179.94 C 175.08,179.73 175.75,179.52 176.44,179.31 C 177.13,179.10 177.84,178.88 178.56,178.69 C 179.29,178.49 180.03,178.31 180.80,178.14 C 181.56,177.97 182.34,177.82 183.14,177.67 C 183.94,177.53 184.76,177.40 185.59,177.28 C 186.43,177.16 187.28,177.06 188.16,176.97 C 189.03,176.88 189.92,176.80 190.83,176.73 C 191.74,176.67 192.66,176.62 193.61,176.58 C 194.55,176.54 195.52,176.51 196.50,176.50 C 197.48,176.49 198.50,176.49 199.50,176.50 C 200.50,176.51 201.51,176.54 202.52,176.58 C 203.52,176.62 204.53,176.67 205.55,176.73 C 206.56,176.80 207.58,176.88 208.59,176.97 C 209.61,177.06 210.63,177.16 211.66,177.28 C 212.68,177.40 213.71,177.53 214.73,177.67 C 215.76,177.82 216.79,177.97 217.83,178.14 C 218.86,178.31 219.90,178.49 220.94,178.69 C 221.98,178.88 223.04,179.11 224.06,179.31 C 225.08,179.51 226.08,179.70 227.06,179.88 C 228.04,180.05 229.00,180.22 229.94,180.38 C 230.88,180.53 231.79,180.68 232.69,180.81 C 233.58,180.95 234.46,181.07 235.31,181.19 C 236.17,181.30 237.00,181.41 237.81,181.50 C 238.62,181.59 239.42,181.68 240.19,181.75 C 240.96,181.82 241.71,181.89 242.44,181.94 C 243.17,181.99 243.84,182.07 244.56,182.06 C 245.28,182.06 246.01,182.01 246.75,181.91 C 247.49,181.81 248.24,181.66 249.00,181.47 C 249.76,181.28 250.53,181.04 251.31,180.75 C 252.09,180.46 252.89,180.13 253.69,179.75 C 254.49,179.37 255.30,178.94 256.12,178.47 C 256.95,177.99 257.78,177.47 258.62,176.91 C 259.47,176.34 260.32,175.72 261.19,175.06 C 262.05,174.40 262.97,173.61 263.81,172.94 C 264.66,172.26 265.48,171.61 266.27,171.00 C 267.05,170.39 267.82,169.80 268.55,169.25 C 269.28,168.70 269.98,168.18 270.66,167.69 C 271.33,167.20 271.98,166.74 272.59,166.31 C 273.21,165.89 273.80,165.49 274.36,165.12 C 274.92,164.76 275.45,164.43 275.95,164.12 C 276.46,163.82 276.93,163.55 277.38,163.31 C 277.82,163.07 278.22,162.90 278.62,162.69 C 279.03,162.47 279.42,162.24 279.80,162.01 C 280.19,161.77 280.56,161.53 280.91,161.27 C 281.27,161.02 281.62,160.76 281.95,160.48 C 282.29,160.21 282.61,159.93 282.92,159.64 C 283.23,159.35 283.53,159.05 283.82,158.74 C 284.11,158.43 284.38,158.12 284.65,157.79 C 284.91,157.46 285.17,157.13 285.41,156.78 C 285.65,156.44 285.86,156.07 286.09,155.72 C 286.32,155.36 286.56,155.01 286.79,154.65 C 287.02,154.29 287.26,153.93 287.49,153.57 C 287.73,153.21 287.96,152.85 288.20,152.48 C 288.44,152.12 288.68,151.76 288.92,151.39 C 289.16,151.02 289.40,150.66 289.65,150.29 C 289.89,149.92 290.14,149.55 290.38,149.18 C 290.63,148.81 290.88,148.44 291.12,148.06 C 291.37,147.69 291.63,147.32 291.88,146.94 C 292.12,146.56 292.35,146.18 292.58,145.80 C 292.80,145.41 293.02,145.03 293.23,144.64 C 293.45,144.25 293.65,143.86 293.84,143.47 C 294.04,143.08 294.23,142.68 294.41,142.28 C 294.59,141.88 294.76,141.48 294.92,141.08 C 295.09,140.67 295.24,140.27 295.39,139.86 C 295.54,139.45 295.68,139.04 295.81,138.62 C 295.95,138.21 296.07,137.77 296.19,137.38 C 296.30,136.98 296.40,136.61 296.49,136.26 C 296.58,135.91 296.66,135.58 296.73,135.27 C 296.79,134.97 296.85,134.68 296.89,134.42 C 296.93,134.16 296.96,133.92 296.98,133.70 C 297.00,133.49 297.01,133.29 297.01,133.12 C 297.00,132.94 296.99,132.79 296.96,132.66 C 296.93,132.54 296.89,132.43 296.84,132.34 C 296.79,132.26 296.74,132.21 296.66,132.16 C 296.57,132.10 296.46,132.05 296.34,132.01 C 296.21,131.96 296.06,131.93 295.88,131.90 C 295.71,131.87 295.51,131.85 295.30,131.83 C 295.08,131.81 294.84,131.80 294.58,131.80 C 294.32,131.79 294.03,131.80 293.73,131.80 C 293.42,131.81 293.09,131.83 292.74,131.85 C 292.39,131.87 292.02,131.90 291.62,131.94 C 291.23,131.97 290.77,132.03 290.38,132.06 C 289.98,132.10 289.61,132.12 289.26,132.13 C 288.91,132.15 288.58,132.15 288.27,132.15 C 287.97,132.14 287.68,132.13 287.42,132.11 C 287.16,132.09 286.92,132.06 286.70,132.02 C 286.49,131.98 286.29,131.93 286.12,131.87 C 285.94,131.81 285.79,131.74 285.66,131.66 C 285.54,131.59 285.43,131.50 285.34,131.41 C 285.26,131.31 285.18,131.19 285.16,131.09 C 285.13,130.99 285.14,130.90 285.19,130.81 C 285.23,130.72 285.32,130.64 285.44,130.56 C 285.56,130.48 285.71,130.41 285.91,130.34 C 286.10,130.28 286.33,130.21 286.59,130.16 C 286.86,130.10 287.16,130.05 287.50,130.00 C 287.84,129.95 288.21,129.91 288.62,129.88 C 289.04,129.84 289.48,129.81 289.97,129.78 C 290.45,129.76 291.04,129.74 291.53,129.72 C 292.02,129.70 292.49,129.67 292.92,129.64 C 293.36,129.61 293.76,129.58 294.14,129.55 C 294.52,129.51 294.87,129.48 295.19,129.44 C 295.51,129.40 295.80,129.36 296.06,129.31 C 296.33,129.27 296.56,129.22 296.77,129.17 C 296.97,129.12 297.15,129.07 297.30,129.02 C 297.45,128.96 297.57,128.90 297.66,128.84 C 297.75,128.78 297.77,128.77 297.84,128.66 C 297.92,128.55 298.00,128.39 298.09,128.19 C 298.19,127.98 298.29,127.73 298.41,127.44 C 298.52,127.14 298.65,126.80 298.78,126.41 C 298.92,126.02 299.06,125.58 299.22,125.09 C 299.38,124.61 299.54,124.08 299.72,123.50 C 299.90,122.92 300.08,122.30 300.28,121.62 C 300.48,120.95 300.69,120.23 300.91,119.47 C 301.12,118.70 301.33,117.79 301.59,117.03 C 301.85,116.27 302.14,115.57 302.46,114.93 C 302.78,114.29 303.13,113.70 303.51,113.16 C 303.89,112.63 304.30,112.15 304.73,111.73 C 305.17,111.31 305.64,110.95 306.14,110.64 C 306.64,110.33 307.17,110.08 307.73,109.88 C 308.29,109.69 308.87,109.55 309.49,109.46 C 310.11,109.38 310.76,109.35 311.44,109.38 C 312.12,109.40 312.89,109.54 313.56,109.62 C 314.24,109.71 314.88,109.80 315.49,109.88 C 316.10,109.97 316.68,110.06 317.23,110.15 C 317.77,110.24 318.29,110.33 318.77,110.42 C 319.25,110.51 319.69,110.61 320.11,110.70 C 320.52,110.80 320.91,110.89 321.26,110.99 C 321.61,111.09 321.93,111.19 322.21,111.29 C 322.50,111.39 322.75,111.49 322.97,111.59 C 323.19,111.70 323.34,111.73 323.53,111.91 C 323.72,112.08 323.91,112.33 324.10,112.65 C 324.29,112.97 324.49,113.36 324.68,113.82 C 324.87,114.28 325.07,114.82 325.27,115.42 C 325.46,116.03 325.66,116.70 325.86,117.45 C 326.06,118.20 326.26,119.02 326.46,119.91 C 326.66,120.81 326.87,121.77 327.07,122.80 C 327.27,123.84 327.48,124.95 327.69,126.12 C 327.89,127.30 328.09,128.67 328.31,129.88 C 328.53,131.08 328.76,132.24 329.01,133.35 C 329.25,134.46 329.51,135.53 329.77,136.55 C 330.04,137.58 330.32,138.55 330.61,139.48 C 330.90,140.42 331.20,141.30 331.52,142.14 C 331.83,142.98 332.15,143.77 332.49,144.52 C 332.83,145.27 333.18,145.98 333.54,146.63 C 333.90,147.29 334.27,147.90 334.66,148.47 C 335.04,149.04 335.44,149.52 335.84,150.03 C 336.25,150.54 336.66,151.03 337.09,151.51 C 337.51,151.99 337.94,152.45 338.38,152.90 C 338.82,153.35 339.27,153.78 339.73,154.20 C 340.19,154.62 340.66,155.03 341.14,155.42 C 341.62,155.81 342.11,156.19 342.60,156.55 C 343.10,156.92 343.60,157.27 344.12,157.60 C 344.63,157.94 345.15,158.26 345.69,158.56 C 346.22,158.87 346.78,159.16 347.31,159.44 C 347.85,159.72 348.38,159.98 348.91,160.23 C 349.43,160.49 349.95,160.73 350.47,160.95 C 350.98,161.18 351.49,161.39 352.00,161.59 C 352.51,161.79 353.01,161.98 353.50,162.16 C 353.99,162.33 354.48,162.49 354.97,162.64 C 355.45,162.79 355.93,162.92 356.41,163.05 C 356.88,163.17 357.35,163.28 357.81,163.38 C 358.28,163.47 358.73,163.53 359.19,163.62 C 359.64,163.72 360.10,163.82 360.55,163.92 C 361.00,164.03 361.45,164.14 361.89,164.27 C 362.34,164.39 362.78,164.52 363.22,164.66 C 363.66,164.79 364.10,164.94 364.53,165.09 C 364.97,165.25 365.40,165.41 365.83,165.58 C 366.26,165.75 366.68,165.92 367.11,166.11 C 367.53,166.29 367.96,166.49 368.38,166.69 C 368.79,166.89 369.17,167.11 369.62,167.31 C 370.08,167.51 370.58,167.70 371.12,167.88 C 371.67,168.05 372.25,168.22 372.88,168.38 C 373.50,168.53 374.17,168.68 374.88,168.81 C 375.58,168.95 376.33,169.07 377.12,169.19 C 377.92,169.30 378.75,169.41 379.62,169.50 C 380.50,169.59 381.42,169.68 382.38,169.75 C 383.33,169.82 384.33,169.89 385.38,169.94 C 386.42,169.99 387.60,170.02 388.62,170.06 C 389.65,170.11 390.62,170.15 391.53,170.20 C 392.44,170.25 393.30,170.30 394.09,170.36 C 394.89,170.41 395.63,170.47 396.31,170.53 C 396.99,170.59 397.62,170.65 398.19,170.72 C 398.76,170.78 399.27,170.85 399.72,170.92 C 400.17,170.99 400.57,171.07 400.91,171.14 C 401.24,171.22 401.53,171.29 401.75,171.38 C 401.97,171.46 402.08,171.55 402.25,171.62 C 402.42,171.70 402.61,171.78 402.80,171.84 C 402.99,171.91 403.18,171.97 403.39,172.03 C 403.60,172.09 403.81,172.14 404.03,172.19 C 404.25,172.23 404.48,172.28 404.72,172.31 C 404.96,172.35 405.20,172.38 405.45,172.41 C 405.71,172.43 405.97,172.45 406.23,172.47 C 406.50,172.48 406.78,172.49 407.06,172.50 C 407.35,172.51 407.65,172.49 407.94,172.50 C 408.22,172.51 408.50,172.54 408.77,172.57 C 409.05,172.61 409.31,172.65 409.57,172.71 C 409.83,172.77 410.08,172.84 410.33,172.92 C 410.57,173.00 410.81,173.10 411.05,173.20 C 411.28,173.31 411.51,173.43 411.73,173.55 C 411.95,173.68 412.16,173.82 412.37,173.98 C 412.57,174.13 412.77,174.29 412.97,174.47 C 413.16,174.64 413.36,174.83 413.53,175.03 C 413.71,175.23 413.87,175.45 414.02,175.68 C 414.18,175.91 414.32,176.15 414.45,176.41 C 414.57,176.67 414.69,176.95 414.80,177.23 C 414.90,177.52 415.00,177.82 415.08,178.14 C 415.16,178.46 415.23,178.79 415.29,179.13 C 415.35,179.48 415.39,179.84 415.43,180.21 C 415.46,180.58 415.49,180.97 415.50,181.38 C 415.51,181.78 415.51,182.23 415.50,182.62 C 415.49,183.02 415.48,183.40 415.45,183.77 C 415.43,184.13 415.40,184.47 415.36,184.80 C 415.32,185.12 415.27,185.43 415.22,185.72 C 415.16,186.01 415.10,186.28 415.03,186.53 C 414.96,186.78 414.88,187.02 414.80,187.23 C 414.71,187.45 414.62,187.65 414.52,187.83 C 414.41,188.01 414.30,188.17 414.19,188.31 C 414.07,188.46 413.93,188.54 413.81,188.69 C 413.70,188.83 413.59,188.99 413.48,189.17 C 413.38,189.35 413.29,189.55 413.20,189.77 C 413.12,189.98 413.04,190.22 412.97,190.47 C 412.90,190.72 412.84,190.99 412.78,191.28 C 412.73,191.57 412.68,191.88 412.64,192.20 C 412.60,192.53 412.57,192.87 412.55,193.23 C 412.52,193.60 412.51,193.98 412.50,194.38 C 412.49,194.77 412.49,195.22 412.50,195.62 C 412.51,196.03 412.52,196.41 412.55,196.78 C 412.57,197.15 412.60,197.51 412.64,197.84 C 412.68,198.18 412.73,198.51 412.78,198.81 C 412.84,199.12 412.90,199.41 412.97,199.69 C 413.04,199.96 413.12,200.22 413.20,200.47 C 413.29,200.71 413.38,200.94 413.48,201.16 C 413.59,201.37 413.70,201.57 413.81,201.75 C 413.93,201.93 414.07,202.07 414.19,202.25 C 414.30,202.43 414.41,202.63 414.52,202.84 C 414.62,203.06 414.71,203.29 414.80,203.53 C 414.88,203.78 414.96,204.04 415.03,204.31 C 415.10,204.59 415.16,204.88 415.22,205.19 C 415.27,205.49 415.32,205.82 415.36,206.16 C 415.40,206.49 415.43,206.85 415.45,207.22 C 415.48,207.59 415.49,207.97 415.50,208.38 C 415.51,208.78 415.51,209.23 415.50,209.62 C 415.49,210.02 415.46,210.41 415.43,210.77 C 415.39,211.14 415.35,211.49 415.29,211.82 C 415.23,212.15 415.16,212.47 415.08,212.77 C 415.00,213.06 414.90,213.35 414.80,213.61 C 414.69,213.87 414.57,214.12 414.45,214.35 C 414.32,214.58 414.18,214.80 414.02,214.99 C 413.87,215.19 413.71,215.37 413.53,215.53 C 413.36,215.69 413.16,215.83 412.97,215.97 C 412.78,216.11 412.58,216.23 412.38,216.35 C 412.18,216.47 411.98,216.58 411.77,216.68 C 411.57,216.78 411.36,216.87 411.14,216.95 C 410.93,217.04 410.71,217.11 410.48,217.17 C 410.26,217.24 410.04,217.29 409.80,217.34 C 409.57,217.38 409.34,217.42 409.10,217.45 C 408.86,217.47 408.62,217.49 408.38,217.50 C 408.13,217.51 407.88,217.49 407.62,217.50 C 407.38,217.51 407.12,217.52 406.88,217.55 C 406.62,217.57 406.38,217.60 406.12,217.64 C 405.88,217.68 405.62,217.73 405.38,217.78 C 405.12,217.84 404.88,217.90 404.62,217.97 C 404.38,218.04 404.12,218.12 403.88,218.20 C 403.62,218.29 403.38,218.38 403.12,218.48 C 402.88,218.59 402.62,218.70 402.38,218.81 C 402.12,218.93 401.93,219.07 401.62,219.19 C 401.32,219.31 400.97,219.42 400.56,219.53 C 400.16,219.64 399.70,219.74 399.19,219.84 C 398.68,219.94 398.11,220.04 397.50,220.12 C 396.89,220.21 396.22,220.30 395.50,220.38 C 394.78,220.45 394.01,220.53 393.19,220.59 C 392.36,220.66 391.49,220.72 390.56,220.78 C 389.64,220.84 388.66,220.89 387.62,220.94 C 386.59,220.98 385.42,221.01 384.38,221.06 C 383.33,221.11 382.32,221.18 381.34,221.25 C 380.37,221.32 379.43,221.41 378.53,221.50 C 377.63,221.59 376.77,221.70 375.94,221.81 C 375.11,221.93 374.32,222.05 373.56,222.19 C 372.81,222.32 372.09,222.47 371.41,222.62 C 370.72,222.78 370.08,222.95 369.47,223.12 C 368.86,223.30 368.29,223.49 367.75,223.69 C 367.21,223.89 366.74,224.11 366.25,224.31 C 365.76,224.51 365.28,224.70 364.81,224.88 C 364.34,225.05 363.89,225.22 363.44,225.38 C 362.99,225.53 362.55,225.68 362.12,225.81 C 361.70,225.95 361.28,226.07 360.88,226.19 C 360.47,226.30 360.07,226.41 359.69,226.50 C 359.30,226.59 358.93,226.68 358.56,226.75 C 358.20,226.82 357.84,226.89 357.50,226.94 C 357.16,226.99 356.84,227.01 356.50,227.06 C 356.16,227.11 355.82,227.18 355.47,227.25 C 355.12,227.32 354.77,227.41 354.41,227.50 C 354.05,227.59 353.68,227.70 353.31,227.81 C 352.94,227.93 352.57,228.05 352.19,228.19 C 351.81,228.32 351.42,228.47 351.03,228.62 C 350.64,228.78 350.24,228.95 349.84,229.12 C 349.44,229.30 349.04,229.49 348.62,229.69 C 348.21,229.89 347.78,230.10 347.38,230.31 C 346.97,230.52 346.57,230.73 346.18,230.95 C 345.79,231.16 345.41,231.37 345.04,231.59 C 344.67,231.80 344.31,232.02 343.95,232.23 C 343.60,232.45 343.26,232.67 342.92,232.89 C 342.59,233.11 342.26,233.33 341.95,233.55 C 341.63,233.78 341.32,234.00 341.02,234.23 C 340.73,234.45 340.44,234.68 340.16,234.91 C 339.88,235.13 339.61,235.35 339.34,235.59 C 339.07,235.83 338.81,236.09 338.54,236.35 C 338.27,236.62 338.01,236.89 337.74,237.18 C 337.48,237.47 337.21,237.77 336.95,238.08 C 336.69,238.39 336.43,238.71 336.17,239.05 C 335.91,239.38 335.65,239.73 335.40,240.09 C 335.14,240.44 334.89,240.81 334.63,241.20 C 334.38,241.58 334.13,241.97 333.88,242.38 C 333.62,242.78 333.37,243.16 333.12,243.62 C 332.88,244.09 332.63,244.61 332.39,245.17 C 332.15,245.74 331.91,246.35 331.67,247.02 C 331.43,247.68 331.20,248.39 330.97,249.16 C 330.74,249.92 330.51,250.73 330.28,251.59 C 330.05,252.46 329.83,253.37 329.61,254.33 C 329.39,255.29 329.17,256.30 328.95,257.36 C 328.74,258.42 328.52,259.53 328.31,260.69 C 328.10,261.85 327.92,263.17 327.69,264.31 C 327.46,265.46 327.20,266.54 326.93,267.55 C 326.65,268.57 326.36,269.52 326.04,270.41 C 325.72,271.30 325.38,272.13 325.02,272.89 C 324.65,273.65 324.27,274.35 323.86,274.98 C 323.45,275.62 323.02,276.19 322.57,276.70 C 322.12,277.20 321.64,277.64 321.15,278.02 C 320.65,278.40 320.13,278.72 319.59,278.97 C 319.05,279.22 318.45,279.36 317.91,279.53 C 317.36,279.71 316.82,279.87 316.30,280.02 C 315.79,280.18 315.28,280.32 314.79,280.45 C 314.30,280.57 313.82,280.69 313.36,280.80 C 312.90,280.90 312.45,281.00 312.02,281.08 C 311.58,281.16 311.16,281.23 310.76,281.29 C 310.35,281.35 309.96,281.39 309.59,281.43 C 309.21,281.46 308.85,281.49 308.50,281.50 Z" fill="none" stroke="currentColor" stroke-width="1.5" stroke-linejoin="round" stroke-linecap="round" filter="url(#glow)" />
</svg>