<svg xmlns="http://www.w3.org/2000/svg" width="512" height="512" viewBox="130.83 89.27 308.77 217.13" preserveAspectRatio="xMidYMid meet">
  <defs>
    <filter id="glow" x="-30%" y="-30%" width="160%" height="160%">
      <feGaussianBlur in="SourceGraphic" stdDeviation="2.4" result="blur" />
      <feMerge>
        <feMergeNode in="blur" />
        <feMergeNode in="SourceGraphic" />
      </feMerge>
    </filter>
    <clipPath id="hull-clip">
      <path d="M 309.28,288.28 C 308.89,288.27 308.56,288.27 308.22,288.22 C 307.88,288.17 307.55,288.08 307.23,287.97 C 306.92,287.85 306.62,287.71 306.33,287.53 C 306.04,287.35 305.76,287.15 305.50,286.91 C 305.24,286.67 304.99,286.40 304.75,286.09 C 304.51,285.79 304.29,285.46 304.08,285.09 C 303.87,284.73 303.67,284.33 303.48,283.91 C 303.30,283.48 303.13,283.02 302.97,282.53 C 302.81,282.04 302.71,281.46 302.53,280.97 C 302.35,280.48 302.15,280.02 301.91,279.59 C 301.67,279.17 301.40,278.77 301.09,278.41 C 300.79,278.04 300.46,277.71 300.09,277.41 C 299.73,277.10 299.33,276.83 298.91,276.59 C 298.48,276.35 298.02,276.15 297.53,275.97 C 297.04,275.79 296.52,275.65 295.97,275.53 C 295.42,275.42 294.83,275.33 294.22,275.28 C 293.60,275.23 292.88,275.24 292.28,275.22 C 291.68,275.19 291.12,275.16 290.61,275.12 C 290.10,275.09 289.63,275.05 289.20,275.00 C 288.78,274.95 288.40,274.90 288.06,274.84 C 287.73,274.79 287.43,274.72 287.19,274.66 C 286.94,274.59 286.74,274.52 286.58,274.44 C 286.42,274.36 286.30,274.28 286.23,274.19 C 286.16,274.10 286.14,274.01 286.16,273.91 C 286.17,273.81 286.25,273.69 286.34,273.59 C 286.43,273.49 286.55,273.40 286.70,273.31 C 286.85,273.22 287.03,273.14 287.23,273.06 C 287.44,272.98 287.67,272.91 287.94,272.84 C 288.20,272.78 288.49,272.71 288.81,272.66 C 289.13,272.60 289.48,272.55 289.86,272.50 C 290.24,272.45 290.64,272.41 291.08,272.38 C 291.51,272.34 291.98,272.31 292.47,272.28 C 292.96,272.26 293.54,272.25 294.03,272.22 C 294.52,272.19 294.98,272.14 295.40,272.09 C 295.82,272.03 296.21,271.96 296.57,271.88 C 296.93,271.80 297.25,271.71 297.55,271.61 C 297.84,271.51 298.10,271.39 298.33,271.27 C 298.56,271.14 298.75,271.00 298.91,270.85 C 299.08,270.70 299.21,270.54 299.30,270.37 C 299.40,270.19 299.47,270.01 299.50,269.81 C 299.53,269.62 299.51,269.39 299.50,269.19 C 299.49,268.98 299.48,268.78 299.46,268.59 C 299.44,268.39 299.42,268.20 299.38,268.01 C 299.35,267.82 299.31,267.63 299.27,267.45 C 299.22,267.27 299.17,267.10 299.11,266.92 C 299.05,266.75 298.99,266.58 298.91,266.41 C 298.84,266.25 298.76,266.09 298.68,265.93 C 298.60,265.77 298.50,265.62 298.41,265.47 C 298.31,265.32 298.22,265.17 298.09,265.03 C 297.96,264.89 297.81,264.76 297.62,264.64 C 297.44,264.52 297.23,264.40 297.00,264.30 C 296.77,264.19 296.51,264.09 296.22,264.00 C 295.93,263.91 295.62,263.83 295.28,263.75 C 294.94,263.67 294.58,263.61 294.19,263.55 C 293.80,263.49 293.38,263.43 292.94,263.39 C 292.49,263.35 292.03,263.31 291.53,263.28 C 291.04,263.25 290.45,263.24 289.97,263.22 C 289.48,263.19 289.04,263.16 288.62,263.12 C 288.21,263.09 287.84,263.05 287.50,263.00 C 287.16,262.95 286.86,262.90 286.59,262.84 C 286.33,262.79 286.10,262.72 285.91,262.66 C 285.71,262.59 285.56,262.52 285.44,262.44 C 285.32,262.36 285.23,262.28 285.19,262.19 C 285.14,262.10 285.13,262.01 285.16,261.91 C 285.18,261.81 285.26,261.69 285.34,261.59 C 285.43,261.49 285.55,261.40 285.69,261.31 C 285.83,261.22 285.99,261.14 286.19,261.06 C 286.38,260.98 286.60,260.91 286.84,260.84 C 287.09,260.78 287.36,260.71 287.66,260.66 C 287.95,260.60 288.28,260.55 288.62,260.50 C 288.97,260.45 289.35,260.41 289.75,260.38 C 290.15,260.34 290.58,260.31 291.03,260.28 C 291.48,260.26 292.03,260.26 292.47,260.22 C 292.91,260.17 293.31,260.10 293.68,260.01 C 294.05,259.91 294.37,259.79 294.66,259.65 C 294.95,259.50 295.21,259.33 295.42,259.14 C 295.64,258.95 295.81,258.73 295.95,258.48 C 296.09,258.24 296.19,257.97 296.26,257.68 C 296.32,257.39 296.35,257.07 296.34,256.73 C 296.32,256.38 296.27,256.02 296.19,255.62 C 296.10,255.23 295.96,254.81 295.81,254.38 C 295.66,253.94 295.48,253.48 295.27,252.99 C 295.07,252.51 294.83,252.00 294.57,251.48 C 294.31,250.95 294.02,250.40 293.70,249.83 C 293.39,249.26 293.04,248.66 292.67,248.05 C 292.30,247.43 291.90,246.79 291.48,246.13 C 291.05,245.47 290.60,244.79 290.12,244.09 C 289.64,243.38 289.13,242.65 288.59,241.91 C 288.06,241.16 287.44,240.31 286.91,239.59 C 286.37,238.88 285.86,238.21 285.38,237.60 C 284.90,236.99 284.45,236.43 284.02,235.93 C 283.60,235.43 283.20,234.98 282.83,234.58 C 282.46,234.18 282.11,233.84 281.80,233.55 C 281.48,233.26 281.19,233.02 280.93,232.84 C 280.67,232.65 280.43,232.52 280.23,232.45 C 280.02,232.37 279.84,232.35 279.69,232.38 C 279.54,232.40 279.44,232.55 279.31,232.62 C 279.18,232.70 279.05,232.78 278.91,232.84 C 278.77,232.91 278.62,232.97 278.47,233.03 C 278.32,233.09 278.16,233.14 278.00,233.19 C 277.84,233.23 277.67,233.28 277.50,233.31 C 277.33,233.35 277.15,233.38 276.97,233.41 C 276.79,233.43 276.60,233.45 276.41,233.47 C 276.21,233.48 276.02,233.49 275.81,233.50 C 275.61,233.51 275.38,233.52 275.19,233.50 C 274.99,233.48 274.81,233.45 274.65,233.40 C 274.48,233.35 274.33,233.28 274.20,233.20 C 274.06,233.11 273.94,233.01 273.83,232.89 C 273.72,232.77 273.63,232.64 273.55,232.48 C 273.47,232.33 273.40,232.16 273.35,231.98 C 273.30,231.79 273.26,231.59 273.24,231.37 C 273.22,231.15 273.21,230.91 273.22,230.66 C 273.23,230.40 273.31,230.14 273.28,229.84 C 273.25,229.55 273.17,229.23 273.05,228.89 C 272.92,228.55 272.74,228.18 272.52,227.80 C 272.29,227.41 272.01,227.00 271.69,226.56 C 271.36,226.13 270.99,225.67 270.56,225.19 C 270.14,224.71 269.66,224.20 269.14,223.67 C 268.62,223.14 268.04,222.59 267.42,222.02 C 266.80,221.44 266.13,220.84 265.41,220.22 C 264.68,219.60 263.84,218.89 263.09,218.28 C 262.35,217.67 261.63,217.10 260.93,216.57 C 260.23,216.04 259.56,215.54 258.91,215.09 C 258.27,214.63 257.64,214.21 257.05,213.83 C 256.45,213.45 255.88,213.10 255.33,212.80 C 254.78,212.49 254.26,212.22 253.76,211.99 C 253.26,211.76 252.79,211.57 252.34,211.41 C 251.89,211.26 251.46,211.14 251.06,211.06 C 250.66,210.98 250.40,210.96 249.94,210.94 C 249.48,210.91 248.93,210.91 248.30,210.92 C 247.66,210.93 246.95,210.97 246.14,211.02 C 245.34,211.07 244.45,211.13 243.47,211.22 C 242.49,211.30 241.43,211.41 240.28,211.53 C 239.13,211.65 237.90,211.79 236.58,211.95 C 235.26,212.11 233.85,212.29 232.36,212.48 C 230.87,212.68 229.29,212.89 227.62,213.12 C 225.96,213.36 224.05,213.64 222.38,213.88 C 220.70,214.11 219.09,214.33 217.55,214.53 C 216.01,214.73 214.54,214.92 213.14,215.09 C 211.74,215.27 210.41,215.42 209.16,215.56 C 207.90,215.70 206.71,215.83 205.59,215.94 C 204.48,216.05 203.43,216.14 202.45,216.22 C 201.48,216.30 200.57,216.36 199.73,216.41 C 198.90,216.45 198.13,216.48 197.44,216.50 C 196.74,216.52 196.21,216.52 195.56,216.50 C 194.91,216.48 194.24,216.45 193.55,216.39 C 192.85,216.34 192.13,216.26 191.39,216.17 C 190.65,216.08 189.88,215.97 189.09,215.84 C 188.30,215.72 187.49,215.57 186.66,215.41 C 185.82,215.24 184.96,215.06 184.08,214.86 C 183.20,214.66 182.29,214.44 181.36,214.20 C 180.43,213.97 179.48,213.71 178.50,213.44 C 177.52,213.16 176.48,212.87 175.50,212.56 C 174.52,212.26 173.55,211.94 172.60,211.62 C 171.65,211.29 170.72,210.95 169.80,210.60 C 168.89,210.25 167.99,209.89 167.11,209.52 C 166.23,209.14 165.36,208.76 164.52,208.36 C 163.67,207.96 162.84,207.55 162.02,207.13 C 161.21,206.71 160.41,206.28 159.63,205.84 C 158.85,205.39 158.09,204.94 157.34,204.47 C 156.60,204.00 155.83,203.49 155.16,203.03 C 154.48,202.57 153.86,202.13 153.30,201.70 C 152.73,201.28 152.22,200.87 151.77,200.48 C 151.31,200.10 150.91,199.73 150.56,199.38 C 150.22,199.02 149.92,198.69 149.69,198.38 C 149.45,198.06 149.27,197.76 149.14,197.48 C 149.01,197.21 148.94,196.95 148.92,196.70 C 148.90,196.46 148.94,196.24 149.03,196.03 C 149.12,195.83 149.30,195.67 149.47,195.47 C 149.64,195.27 149.84,195.07 150.07,194.85 C 150.30,194.64 150.55,194.41 150.84,194.18 C 151.12,193.95 151.43,193.70 151.77,193.45 C 152.10,193.20 152.47,192.94 152.86,192.67 C 153.25,192.40 153.67,192.12 154.12,191.84 C 154.56,191.55 155.04,191.25 155.54,190.95 C 156.04,190.64 156.57,190.32 157.12,190.00 C 157.68,189.68 158.27,189.33 158.88,189.00 C 159.48,188.67 160.12,188.34 160.78,188.02 C 161.44,187.69 162.13,187.37 162.84,187.05 C 163.56,186.73 164.30,186.41 165.06,186.09 C 165.83,185.78 166.62,185.47 167.44,185.16 C 168.26,184.85 169.10,184.54 169.97,184.23 C 170.84,183.93 171.73,183.63 172.66,183.33 C 173.58,183.03 174.53,182.73 175.50,182.44 C 176.47,182.14 177.52,181.84 178.50,181.56 C 179.48,181.29 180.45,181.03 181.41,180.80 C 182.36,180.56 183.30,180.34 184.22,180.14 C 185.14,179.94 186.05,179.76 186.94,179.59 C 187.83,179.43 188.70,179.28 189.56,179.16 C 190.42,179.03 191.27,178.92 192.09,178.83 C 192.92,178.74 193.73,178.66 194.53,178.61 C 195.33,178.55 196.11,178.52 196.88,178.50 C 197.64,178.48 198.35,178.49 199.12,178.50 C 199.90,178.51 200.70,178.54 201.52,178.58 C 202.34,178.62 203.18,178.67 204.05,178.73 C 204.91,178.80 205.80,178.88 206.72,178.97 C 207.63,179.06 208.57,179.16 209.53,179.28 C 210.49,179.40 211.48,179.53 212.48,179.67 C 213.49,179.82 214.52,179.97 215.58,180.14 C 216.63,180.31 217.71,180.49 218.81,180.69 C 219.91,180.88 221.08,181.11 222.19,181.31 C 223.29,181.51 224.38,181.70 225.44,181.88 C 226.50,182.05 227.54,182.22 228.56,182.38 C 229.58,182.53 230.58,182.68 231.56,182.81 C 232.54,182.95 233.50,183.07 234.44,183.19 C 235.38,183.30 236.29,183.41 237.19,183.50 C 238.08,183.59 238.96,183.68 239.81,183.75 C 240.67,183.82 241.50,183.89 242.31,183.94 C 243.12,183.99 243.89,184.07 244.69,184.06 C 245.49,184.05 246.29,184.00 247.11,183.89 C 247.92,183.78 248.75,183.63 249.58,183.42 C 250.41,183.22 251.25,182.96 252.09,182.66 C 252.94,182.35 253.79,182.00 254.66,181.59 C 255.52,181.19 256.39,180.74 257.27,180.23 C 258.14,179.73 259.03,179.18 259.92,178.58 C 260.82,177.98 261.72,177.33 262.62,176.62 C 263.53,175.92 264.49,175.09 265.38,174.38 C 266.26,173.66 267.10,172.98 267.91,172.34 C 268.73,171.69 269.50,171.08 270.24,170.51 C 270.98,169.93 271.69,169.39 272.36,168.89 C 273.03,168.39 273.67,167.92 274.27,167.48 C 274.87,167.05 275.43,166.65 275.96,166.29 C 276.49,165.93 276.99,165.60 277.45,165.30 C 277.90,165.01 278.33,164.75 278.72,164.53 C 279.11,164.31 279.42,164.19 279.78,163.97 C 280.14,163.75 280.51,163.50 280.88,163.21 C 281.26,162.93 281.64,162.61 282.02,162.26 C 282.41,161.91 282.80,161.52 283.20,161.11 C 283.60,160.69 284.01,160.25 284.42,159.77 C 284.83,159.29 285.25,158.77 285.68,158.23 C 286.11,157.68 286.54,157.10 286.98,156.49 C 287.42,155.88 287.86,155.24 288.31,154.56 C 288.76,153.89 289.25,153.13 289.69,152.44 C 290.12,151.75 290.54,151.07 290.93,150.41 C 291.32,149.76 291.69,149.12 292.04,148.49 C 292.39,147.87 292.71,147.26 293.02,146.67 C 293.32,146.08 293.60,145.51 293.86,144.95 C 294.12,144.40 294.36,143.86 294.57,143.34 C 294.79,142.81 294.98,142.31 295.15,141.82 C 295.32,141.33 295.47,140.86 295.59,140.41 C 295.72,139.95 295.84,139.50 295.91,139.09 C 295.98,138.68 296.01,138.30 296.01,137.95 C 296.01,137.59 295.97,137.26 295.90,136.96 C 295.83,136.66 295.72,136.39 295.58,136.14 C 295.44,135.89 295.26,135.68 295.05,135.48 C 294.83,135.29 294.59,135.13 294.30,134.99 C 294.02,134.86 293.70,134.75 293.35,134.66 C 293.00,134.58 292.61,134.53 292.19,134.50 C 291.76,134.47 291.25,134.51 290.81,134.50 C 290.38,134.49 289.97,134.48 289.59,134.46 C 289.20,134.44 288.84,134.42 288.51,134.38 C 288.17,134.35 287.86,134.31 287.58,134.27 C 287.29,134.22 287.03,134.17 286.80,134.11 C 286.56,134.05 286.35,133.99 286.16,133.91 C 285.98,133.84 285.82,133.76 285.68,133.68 C 285.54,133.60 285.43,133.50 285.34,133.41 C 285.26,133.31 285.18,133.19 285.16,133.09 C 285.13,132.99 285.15,132.90 285.20,132.81 C 285.26,132.72 285.35,132.64 285.48,132.56 C 285.62,132.48 285.79,132.41 286.00,132.34 C 286.21,132.28 286.46,132.21 286.75,132.16 C 287.04,132.10 287.37,132.05 287.73,132.00 C 288.10,131.95 288.51,131.91 288.95,131.88 C 289.40,131.84 289.88,131.81 290.41,131.78 C 290.93,131.76 291.56,131.76 292.09,131.72 C 292.62,131.68 293.12,131.61 293.59,131.53 C 294.06,131.45 294.50,131.34 294.91,131.22 C 295.31,131.09 295.69,130.95 296.03,130.78 C 296.38,130.61 296.69,130.43 296.97,130.22 C 297.25,130.01 297.50,129.78 297.72,129.53 C 297.94,129.28 298.12,129.01 298.28,128.72 C 298.44,128.43 298.56,128.11 298.66,127.78 C 298.75,127.45 298.82,127.05 298.84,126.72 C 298.87,126.39 298.86,126.07 298.81,125.78 C 298.77,125.49 298.68,125.22 298.56,124.97 C 298.44,124.72 298.29,124.49 298.09,124.28 C 297.90,124.07 297.67,123.89 297.41,123.72 C 297.14,123.55 296.84,123.41 296.50,123.28 C 296.16,123.16 295.79,123.05 295.38,122.97 C 294.96,122.89 294.52,122.82 294.03,122.78 C 293.55,122.74 292.96,122.74 292.47,122.72 C 291.98,122.70 291.51,122.67 291.08,122.64 C 290.64,122.61 290.24,122.58 289.86,122.55 C 289.48,122.51 289.13,122.48 288.81,122.44 C 288.49,122.40 288.20,122.36 287.94,122.31 C 287.67,122.27 287.44,122.22 287.23,122.17 C 287.03,122.12 286.85,122.07 286.70,122.02 C 286.55,121.96 286.43,121.90 286.34,121.84 C 286.25,121.78 286.21,121.72 286.16,121.66 C 286.10,121.59 286.05,121.53 286.02,121.47 C 285.98,121.41 285.95,121.34 285.92,121.28 C 285.90,121.22 285.88,121.16 285.88,121.09 C 285.87,121.03 285.87,120.97 285.88,120.91 C 285.88,120.84 285.90,120.78 285.92,120.72 C 285.95,120.66 285.98,120.59 286.02,120.53 C 286.05,120.47 286.10,120.41 286.16,120.34 C 286.21,120.28 286.25,120.21 286.34,120.16 C 286.44,120.10 286.57,120.04 286.73,119.99 C 286.89,119.94 287.08,119.89 287.30,119.85 C 287.53,119.81 287.79,119.77 288.08,119.73 C 288.37,119.70 288.69,119.67 289.05,119.64 C 289.40,119.61 289.79,119.59 290.21,119.57 C 290.63,119.55 291.08,119.54 291.57,119.52 C 292.06,119.51 292.57,119.50 293.12,119.50 C 293.68,119.50 294.32,119.53 294.88,119.50 C 295.43,119.47 295.96,119.40 296.47,119.30 C 296.97,119.20 297.45,119.06 297.91,118.89 C 298.36,118.72 298.79,118.52 299.19,118.28 C 299.59,118.04 299.96,117.77 300.31,117.47 C 300.66,117.16 300.98,116.83 301.28,116.45 C 301.58,116.08 301.85,115.67 302.09,115.23 C 302.34,114.79 302.56,114.32 302.75,113.81 C 302.94,113.30 303.02,112.69 303.25,112.19 C 303.48,111.68 303.78,111.22 304.14,110.80 C 304.50,110.37 304.93,109.99 305.42,109.64 C 305.91,109.29 306.47,108.99 307.09,108.72 C 307.72,108.45 308.40,108.22 309.16,108.03 C 309.91,107.84 310.73,107.69 311.61,107.58 C 312.49,107.47 313.44,107.39 314.45,107.36 C 315.47,107.33 316.54,107.33 317.69,107.38 C 318.83,107.42 320.18,107.54 321.31,107.62 C 322.45,107.71 323.50,107.79 324.48,107.88 C 325.47,107.96 326.37,108.04 327.20,108.12 C 328.03,108.21 328.79,108.29 329.47,108.38 C 330.15,108.46 330.75,108.54 331.28,108.62 C 331.81,108.71 332.26,108.79 332.64,108.88 C 333.02,108.96 333.32,109.04 333.55,109.12 C 333.77,109.21 333.92,109.29 334.00,109.38 C 334.08,109.46 334.01,109.54 334.00,109.62 C 333.99,109.71 333.96,109.78 333.92,109.86 C 333.88,109.93 333.83,110.01 333.77,110.08 C 333.70,110.15 333.62,110.22 333.53,110.28 C 333.44,110.35 333.34,110.41 333.22,110.47 C 333.10,110.53 332.97,110.59 332.83,110.64 C 332.68,110.70 332.53,110.75 332.36,110.80 C 332.19,110.85 332.01,110.89 331.81,110.94 C 331.62,110.98 331.39,111.01 331.19,111.06 C 330.98,111.11 330.78,111.17 330.59,111.23 C 330.39,111.29 330.20,111.36 330.01,111.43 C 329.82,111.50 329.63,111.58 329.45,111.67 C 329.27,111.76 329.10,111.85 328.92,111.95 C 328.75,112.05 328.58,112.16 328.41,112.27 C 328.25,112.39 328.09,112.51 327.93,112.63 C 327.77,112.76 327.62,112.89 327.47,113.03 C 327.32,113.17 327.17,113.32 327.03,113.47 C 326.89,113.62 326.77,113.78 326.65,113.95 C 326.53,114.11 326.42,114.28 326.32,114.46 C 326.22,114.64 326.13,114.82 326.05,115.02 C 325.96,115.21 325.89,115.40 325.83,115.61 C 325.76,115.81 325.71,116.02 325.66,116.24 C 325.62,116.46 325.58,116.68 325.55,116.91 C 325.53,117.14 325.51,117.38 325.50,117.62 C 325.49,117.87 325.49,118.08 325.50,118.38 C 325.51,118.67 325.54,119.02 325.58,119.41 C 325.62,119.80 325.67,120.23 325.73,120.72 C 325.80,121.20 325.88,121.73 325.97,122.31 C 326.06,122.89 326.16,123.52 326.28,124.19 C 326.40,124.86 326.53,125.58 326.67,126.34 C 326.82,127.11 326.97,127.92 327.14,128.78 C 327.31,129.64 327.49,130.55 327.69,131.50 C 327.88,132.45 328.09,133.53 328.31,134.50 C 328.54,135.47 328.77,136.42 329.02,137.34 C 329.27,138.25 329.54,139.14 329.82,140.01 C 330.10,140.87 330.39,141.71 330.70,142.52 C 331.01,143.32 331.33,144.11 331.67,144.86 C 332.01,145.61 332.36,146.34 332.73,147.04 C 333.09,147.74 333.47,148.41 333.87,149.05 C 334.26,149.70 334.67,150.32 335.09,150.91 C 335.52,151.50 335.96,152.05 336.41,152.59 C 336.85,153.14 337.31,153.67 337.77,154.18 C 338.24,154.69 338.71,155.19 339.20,155.66 C 339.68,156.14 340.17,156.60 340.67,157.05 C 341.17,157.49 341.68,157.92 342.20,158.33 C 342.72,158.74 343.25,159.13 343.79,159.51 C 344.33,159.88 344.87,160.24 345.43,160.59 C 345.99,160.93 346.55,161.25 347.12,161.56 C 347.70,161.87 348.28,162.15 348.88,162.44 C 349.47,162.73 350.09,163.01 350.72,163.30 C 351.35,163.58 351.99,163.86 352.66,164.14 C 353.32,164.42 353.99,164.70 354.69,164.97 C 355.38,165.24 356.09,165.51 356.81,165.78 C 357.54,166.05 358.28,166.32 359.03,166.58 C 359.79,166.84 360.56,167.10 361.34,167.36 C 362.13,167.62 362.93,167.87 363.75,168.12 C 364.57,168.38 365.36,168.63 366.25,168.88 C 367.14,169.12 368.09,169.35 369.09,169.58 C 370.10,169.80 371.16,170.02 372.28,170.23 C 373.40,170.45 374.58,170.65 375.81,170.84 C 377.05,171.04 378.34,171.23 379.69,171.41 C 381.04,171.59 382.44,171.76 383.91,171.92 C 385.37,172.09 386.89,172.24 388.47,172.39 C 390.05,172.54 391.68,172.68 393.38,172.81 C 395.07,172.95 396.97,173.06 398.62,173.19 C 400.28,173.31 401.83,173.44 403.29,173.57 C 404.75,173.70 406.11,173.83 407.37,173.96 C 408.63,174.09 409.79,174.23 410.86,174.36 C 411.93,174.49 412.89,174.63 413.77,174.77 C 414.64,174.90 415.41,175.04 416.09,175.18 C 416.76,175.32 417.34,175.46 417.82,175.60 C 418.30,175.74 418.68,175.89 418.97,176.03 C 419.25,176.18 419.36,176.30 419.53,176.47 C 419.71,176.64 419.87,176.83 420.02,177.04 C 420.18,177.25 420.32,177.49 420.45,177.74 C 420.57,178.00 420.69,178.28 420.80,178.58 C 420.90,178.88 421.00,179.20 421.08,179.55 C 421.16,179.89 421.23,180.26 421.29,180.65 C 421.35,181.04 421.39,181.45 421.43,181.88 C 421.46,182.32 421.49,182.77 421.50,183.25 C 421.51,183.73 421.50,184.27 421.50,184.75 C 421.50,185.23 421.49,185.68 421.48,186.10 C 421.46,186.53 421.45,186.93 421.43,187.30 C 421.41,187.68 421.39,188.03 421.36,188.36 C 421.33,188.69 421.30,188.99 421.27,189.27 C 421.23,189.54 421.19,189.80 421.15,190.02 C 421.11,190.25 421.06,190.45 421.01,190.63 C 420.96,190.81 420.90,190.96 420.84,191.09 C 420.79,191.22 420.73,191.30 420.66,191.41 C 420.58,191.51 420.49,191.61 420.39,191.72 C 420.29,191.82 420.17,191.93 420.05,192.03 C 419.92,192.14 419.78,192.24 419.62,192.34 C 419.47,192.45 419.30,192.55 419.12,192.66 C 418.95,192.76 418.75,192.86 418.55,192.97 C 418.34,193.07 418.12,193.18 417.89,193.28 C 417.66,193.39 417.41,193.49 417.16,193.59 C 416.90,193.70 416.60,193.80 416.34,193.91 C 416.09,194.02 415.85,194.13 415.63,194.26 C 415.41,194.38 415.21,194.51 415.02,194.65 C 414.84,194.79 414.67,194.93 414.52,195.08 C 414.36,195.23 414.23,195.38 414.11,195.55 C 413.99,195.71 413.89,195.88 413.80,196.05 C 413.72,196.23 413.65,196.41 413.60,196.60 C 413.55,196.79 413.52,196.99 413.50,197.19 C 413.48,197.39 413.48,197.61 413.50,197.81 C 413.52,198.01 413.55,198.21 413.60,198.40 C 413.65,198.59 413.72,198.77 413.80,198.95 C 413.89,199.12 413.99,199.29 414.11,199.45 C 414.23,199.62 414.36,199.77 414.52,199.92 C 414.67,200.07 414.84,200.21 415.02,200.35 C 415.21,200.49 415.41,200.62 415.63,200.74 C 415.85,200.87 416.09,200.98 416.34,201.09 C 416.60,201.20 416.90,201.30 417.16,201.41 C 417.41,201.51 417.66,201.61 417.89,201.72 C 418.12,201.82 418.34,201.93 418.55,202.03 C 418.75,202.14 418.95,202.24 419.12,202.34 C 419.30,202.45 419.47,202.55 419.62,202.66 C 419.78,202.76 419.92,202.86 420.05,202.97 C 420.17,203.07 420.29,203.18 420.39,203.28 C 420.49,203.39 420.58,203.49 420.66,203.59 C 420.73,203.70 420.79,203.77 420.84,203.91 C 420.90,204.04 420.95,204.20 420.99,204.40 C 421.04,204.59 421.07,204.82 421.10,205.07 C 421.13,205.32 421.15,205.61 421.17,205.92 C 421.19,206.24 421.20,206.58 421.20,206.95 C 421.21,207.33 421.20,207.73 421.20,208.16 C 421.19,208.60 421.17,209.06 421.15,209.55 C 421.13,210.05 421.10,210.57 421.06,211.12 C 421.03,211.68 420.99,212.32 420.94,212.88 C 420.88,213.43 420.82,213.95 420.74,214.45 C 420.67,214.94 420.58,215.40 420.48,215.84 C 420.38,216.27 420.26,216.67 420.14,217.05 C 420.02,217.42 419.88,217.76 419.73,218.08 C 419.59,218.39 419.43,218.68 419.26,218.93 C 419.09,219.18 418.90,219.41 418.71,219.60 C 418.52,219.80 418.31,219.96 418.09,220.09 C 417.88,220.23 417.65,220.31 417.41,220.41 C 417.16,220.50 416.90,220.59 416.62,220.66 C 416.34,220.74 416.04,220.81 415.73,220.87 C 415.41,220.93 415.08,220.98 414.73,221.02 C 414.39,221.06 414.02,221.09 413.64,221.11 C 413.26,221.13 412.86,221.14 412.45,221.15 C 412.03,221.15 411.60,221.15 411.15,221.13 C 410.70,221.12 410.23,221.10 409.75,221.06 C 409.27,221.03 408.73,220.97 408.25,220.94 C 407.77,220.90 407.31,220.88 406.88,220.86 C 406.44,220.84 406.02,220.83 405.62,220.83 C 405.23,220.83 404.85,220.83 404.50,220.84 C 404.15,220.86 403.81,220.88 403.50,220.91 C 403.19,220.93 402.90,220.97 402.62,221.02 C 402.35,221.06 402.10,221.11 401.88,221.17 C 401.65,221.23 401.44,221.30 401.25,221.38 C 401.06,221.45 400.97,221.54 400.75,221.62 C 400.53,221.71 400.26,221.78 399.94,221.86 C 399.61,221.93 399.24,222.01 398.81,222.08 C 398.39,222.15 397.91,222.22 397.38,222.28 C 396.84,222.35 396.26,222.41 395.62,222.47 C 394.99,222.53 394.30,222.59 393.56,222.64 C 392.82,222.70 392.03,222.75 391.19,222.80 C 390.34,222.85 389.45,222.89 388.50,222.94 C 387.55,222.98 386.52,223.00 385.50,223.06 C 384.48,223.13 383.45,223.22 382.41,223.33 C 381.36,223.44 380.30,223.58 379.22,223.73 C 378.14,223.89 377.05,224.08 375.94,224.28 C 374.83,224.49 373.70,224.72 372.56,224.97 C 371.42,225.22 370.27,225.50 369.09,225.80 C 367.92,226.10 366.73,226.42 365.53,226.77 C 364.33,227.11 363.11,227.48 361.88,227.88 C 360.64,228.27 359.32,228.71 358.12,229.12 C 356.93,229.54 355.78,229.95 354.68,230.37 C 353.58,230.78 352.54,231.19 351.54,231.60 C 350.54,232.01 349.60,232.42 348.70,232.83 C 347.81,233.24 346.96,233.64 346.17,234.05 C 345.38,234.45 344.64,234.86 343.95,235.26 C 343.25,235.66 342.61,236.06 342.02,236.46 C 341.43,236.86 340.89,237.26 340.41,237.66 C 339.92,238.05 339.52,238.43 339.09,238.84 C 338.67,239.25 338.25,239.68 337.85,240.12 C 337.45,240.56 337.06,241.01 336.68,241.48 C 336.30,241.94 335.93,242.43 335.58,242.92 C 335.22,243.42 334.88,243.93 334.55,244.45 C 334.21,244.98 333.89,245.52 333.59,246.07 C 333.28,246.62 332.98,247.19 332.70,247.77 C 332.41,248.36 332.14,248.95 331.88,249.56 C 331.61,250.17 331.37,250.79 331.12,251.44 C 330.88,252.08 330.65,252.74 330.42,253.42 C 330.20,254.10 329.98,254.80 329.77,255.52 C 329.55,256.23 329.35,256.97 329.16,257.72 C 328.96,258.47 328.77,259.24 328.59,260.03 C 328.41,260.82 328.24,261.63 328.08,262.45 C 327.91,263.28 327.76,264.12 327.61,264.98 C 327.46,265.85 327.32,266.73 327.19,267.62 C 327.05,268.52 326.92,269.50 326.81,270.38 C 326.71,271.25 326.62,272.07 326.55,272.85 C 326.49,273.63 326.44,274.37 326.41,275.05 C 326.39,275.74 326.38,276.39 326.39,276.98 C 326.40,277.58 326.43,278.13 326.48,278.64 C 326.54,279.15 326.61,279.61 326.70,280.02 C 326.79,280.44 326.89,280.81 327.02,281.13 C 327.15,281.46 327.30,281.74 327.47,281.97 C 327.64,282.20 327.85,282.36 328.03,282.53 C 328.22,282.71 328.40,282.87 328.59,283.02 C 328.77,283.18 328.95,283.32 329.13,283.45 C 329.31,283.57 329.49,283.69 329.67,283.80 C 329.85,283.90 330.03,284.00 330.20,284.08 C 330.38,284.16 330.55,284.23 330.73,284.29 C 330.90,284.35 331.07,284.39 331.24,284.43 C 331.41,284.46 331.58,284.49 331.75,284.50 C 331.92,284.51 332.09,284.50 332.25,284.50 C 332.41,284.50 332.56,284.51 332.70,284.52 C 332.83,284.54 332.96,284.55 333.09,284.57 C 333.21,284.59 333.32,284.61 333.42,284.64 C 333.52,284.67 333.62,284.70 333.70,284.73 C 333.79,284.77 333.86,284.81 333.93,284.85 C 334.00,284.89 334.05,284.94 334.10,284.99 C 334.15,285.04 334.19,285.10 334.22,285.16 C 334.25,285.21 334.32,285.28 334.28,285.34 C 334.24,285.41 334.15,285.48 334.00,285.55 C 333.85,285.62 333.64,285.69 333.38,285.77 C 333.11,285.84 332.79,285.92 332.41,286.00 C 332.03,286.08 331.59,286.16 331.09,286.25 C 330.60,286.34 330.05,286.42 329.44,286.52 C 328.83,286.61 328.16,286.70 327.44,286.80 C 326.71,286.89 325.93,286.99 325.09,287.09 C 324.26,287.20 323.27,287.31 322.41,287.41 C 321.54,287.50 320.72,287.59 319.92,287.67 C 319.13,287.75 318.37,287.83 317.64,287.89 C 316.91,287.96 316.22,288.01 315.56,288.06 C 314.90,288.11 314.28,288.15 313.69,288.19 C 313.10,288.22 312.54,288.25 312.02,288.27 C 311.49,288.28 311.00,288.29 310.55,288.30 C 310.09,288.30 309.67,288.29 309.28,288.28 Z" />
    </clipPath>
  </defs>
  <path d="M 309.28,288.28 C 308.89,288.27 308.56,288.27 308.22,288.22 C 307.88,288.17 307.55,288.08 307.23,287.97 C 306.92,287.85 306.62,287.71 306.33,287.53 C 306.04,287.35 305.76,287.15 305.50,286.91 C 305.24,286.67 304.99,286.40 304.75,286.09 C 304.51,285.79 304.29,285.46 304.08,285.09 C 303.87,284.73 303.67,284.33 303.48,283.91 C 303.30,283.48 303.13,283.02 302.97,282.53 C 302.81,282.04 302.71,281.46 302.53,280.97 C 302.35,280.48 302.15,280.02 301.91,279.59 C 301.67,279.17 301.40,278.77 301.09,278.41 C 300.79,278.04 300.46,277.71 300.09,277.41 C 299.73,277.10 299.33,276.83 298.91,276.59 C 298.48,276.35 298.02,276.15 297.53,275.97 C 297.04,275.79 296.52,275.65 295.97,275.53 C 295.42,275.42 294.83,275.33 294.22,275.28 C 293.60,275.23 292.88,275.24 292.28,275.22 C 291.68,275.19 291.12,275.16 290.61,275.12 C 290.10,275.09 289.63,275.05 289.20,275.00 C 288.78,274.95 288.40,274.90 288.06,274.84 C 287.73,274.79 287.43,274.72 287.19,274.66 C 286.94,274.59 286.74,274.52 286.58,274.44 C 286.42,274.36 286.30,274.28 286.23,274.19 C 286.16,274.10 286.14,274.01 286.16,273.91 C 286.17,273.81 286.25,273.69 286.34,273.59 C 286.43,273.49 286.55,273.40 286.70,273.31 C 286.85,273.22 287.03,273.14 287.23,273.06 C 287.44,272.98 287.67,272.91 287.94,272.84 C 288.20,272.78 288.49,272.71 288.81,272.66 C 289.13,272.60 289.48,272.55 289.86,272.50 C 290.24,272.45 290.64,272.41 291.08,272.38 C 291.51,272.34 291.98,272.31 292.47,272.28 C 292.96,272.26 293.54,272.25 294.03,272.22 C 294.52,272.19 294.98,272.14 295.40,272.09 C 295.82,272.03 296.21,271.96 296.57,271.88 C 296.93,271.80 297.25,271.71 297.55,271.61 C 297.84,271.51 298.10,271.39 298.33,271.27 C 298.56,271.14 298.75,271.00 298.91,270.85 C 299.08,270.70 299.21,270.54 299.30,270.37 C 299.40,270.19 299.47,270.01 299.50,269.81 C 299.53,269.62 299.51,269.39 299.50,269.19 C 299.49,268.98 299.48,268.78 299.46,268.59 C 299.44,268.39 299.42,268.20 299.38,268.01 C 299.35,267.82 299.31,267.63 299.27,267.45 C 299.22,267.27 299.17,267.10 299.11,266.92 C 299.05,266.75 298.99,266.58 298.91,266.41 C 298.84,266.25 298.76,266.09 298.68,265.93 C 298.60,265.77 298.50,265.62 298.41,265.47 C 298.31,265.32 298.22,265.17 298.09,265.03 C 297.96,264.89 297.81,264.76 297.62,264.64 C 297.44,264.52 297.23,264.40 297.00,264.30 C 296.77,264.19 296.51,264.09 296.22,264.00 C 295.93,263.91 295.62,263.83 295.28,263.75 C 294.94,263.67 294.58,263.61 294.19,263.55 C 293.80,263.49 293.38,263.43 292.94,263.39 C 292.49,263.35 292.03,263.31 291.53,263.28 C 291.04,263.25 290.45,263.24 289.97,263.22 C 289.48,263.19 289.04,263.16 288.62,263.12 C 288.21,263.09 287.84,263.05 287.50,263.00 C 287.16,262.95 286.86,262.90 286.59,262.84 C 286.33,262.79 286.10,262.72 285.91,262.66 C 285.71,262.59 285.56,262.52 285.44,262.44 C 285.32,262.36 285.23,262.28 285.19,262.19 C 285.14,262.10 285.13,262.01 285.16,261.91 C 285.18,261.81 285.26,261.69 285.34,261.59 C 285.43,261.49 285.55,261.40 285.69,261.31 C 285.83,261.22 285.99,261.14 286.19,261.06 C 286.38,260.98 286.60,260.91 286.84,260.84 C 287.09,260.78 287.36,260.71 287.66,260.66 C 287.95,260.60 288.28,260.55 288.62,260.50 C 288.97,260.45 289.35,260.41 289.75,260.38 C 290.15,260.34 290.58,260.31 291.03,260.28 C 291.48,260.26 292.03,260.26 292.47,260.22 C 292.91,260.17 293.31,260.10 293.68,260.01 C 294.05,259.91 294.37,259.79 294.66,259.65 C 294.95,259.50 295.21,259.33 295.42,259.14 C 295.64,258.95 295.81,258.73 295.95,258.48 C 296.09,258.24 296.19,257.97 296.26,257.68 C 296.32,257.39 296.35,257.07 296.34,256.73 C 296.32,256.38 296.27,256.02 296.19,255.62 C 296.10,255.23 295.96,254.81 295.81,254.38 C 295.66,253.94 295.48,253.48 295.27,252.99 C 295.07,252.51 294.83,252.00 294.57,251.48 C 294.31,250.95 294.02,250.40 293.70,249.83 C 293.39,249.26 293.04,248.66 292.67,248.05 C 292.30,247.43 291.90,246.79 291.48,246.13 C 291.05,245.47 290.60,244.79 290.12,244.09 C 289.64,243.38 289.13,242.65 288.59,241.91 C 288.06,241.16 287.44,240.31 286.91,239.59 C 286.37,238.88 285.86,238.21 285.38,237.60 C 284.90,236.99 284.45,236.43 284.02,235.93 C 283.60,235.43 283.20,234.98 282.83,234.58 C 282.46,234.18 282.11,233.84 281.80,233.55 C 281.48,233.26 281.19,233.02 280.93,232.84 C 280.67,232.65 280.43,232.52 280.23,232.45 C 280.02,232.37 279.84,232.35 279.69,232.38 C 279.54,232.40 279.44,232.55 279.31,232.62 C 279.18,232.70 279.05,232.78 278.91,232.84 C 278.77,232.91 278.62,232.97 278.47,233.03 C 278.32,233.09 278.16,233.14 278.00,233.19 C 277.84,233.23 277.67,233.28 277.50,233.31 C 277.33,233.35 277.15,233.38 276.97,233.41 C 276.79,233.43 276.60,233.45 276.41,233.47 C 276.21,233.48 276.02,233.49 275.81,233.50 C 275.61,233.51 275.38,233.52 275.19,233.50 C 274.99,233.48 274.81,233.45 274.65,233.40 C 274.48,233.35 274.33,233.28 274.20,233.20 C 274.06,233.11 273.94,233.01 273.83,232.89 C 273.72,232.77 273.63,232.64 273.55,232.48 C 273.47,232.33 273.40,232.16 273.35,231.98 C 273.30,231.79 273.26,231.59 273.24,231.37 C 273.22,231.15 273.21,230.91 273.22,230.66 C 273.23,230.40 273.31,230.14 273.28,229.84 C 273.25,229.55 273.17,229.23 273.05,228.89 C 272.92,228.55 272.74,228.18 272.52,227.80 C 272.29,227.41 272.01,227.00 271.69,226.56 C 271.36,226.13 270.99,225.67 270.56,225.19 C 270.14,224.71 269.66,224.20 269.14,223.67 C 268.62,223.14 268.04,222.59 267.42,222.02 C 266.80,221.44 266.13,220.84 265.41,220.22 C 264.68,219.60 263.84,218.89 263.09,218.28 C 262.35,217.67 261.63,217.10 260.93,216.57 C 260.23,216.04 259.56,215.54 258.91,215.09 C 258.27,214.63 257.64,214.21 257.05,213.83 C 256.45,213.45 255.88,213.10 255.33,212.80 C 254.78,212.49 254.26,212.22 253.76,211.99 C 253.26,211.76 252.79,211.57 252.34,211.41 C 251.89,211.26 251.46,211.14 251.06,211.06 C 250.66,210.98 250.40,210.96 249.94,210.94 C 249.48,210.91 248.93,210.91 248.30,210.92 C 247.66,210.93 246.95,210.97 246.14,211.02 C 245.34,211.07 244.45,211.13 243.47,211.22 C 242.49,211.30 241.43,211.41 240.28,211.53 C 239.13,211.65 237.90,211.79 236.58,211.95 C 235.26,212.11 233.85,212.29 232.36,212.48 C 230.87,212.68 229.29,212.89 227.62,213.12 C 225.96,213.36 224.05,213.64 222.38,213.88 C 220.70,214.11 219.09,214.33 217.55,214.53 C 216.01,214.73 214.54,214.92 213.14,215.09 C 211.74,215.27 210.41,215.42 209.16,215.56 C 207.90,215.70 206.71,215.83 205.59,215.94 C 204.48,216.05 203.43,216.14 202.45,216.22 C 201.48,216.30 200.57,216.36 199.73,216.41 C 198.90,216.45 198.13,216.48 197.44,216.50 C 196.74,216.52 196.21,216.52 195.56,216.50 C 194.91,216.48 194.24,216.45 193.55,216.39 C 192.85,216.34 192.13,216.26 191.39,216.17 C 190.65,216.08 189.88,215.97 189.09,215.84 C 188.30,215.72 187.49,215.57 186.66,215.41 C 185.82,215.24 184.96,215.06 184.08,214.86 C 183.20,214.66 182.29,214.44 181.36,214.20 C 180.43,213.97 179.48,213.71 178.50,213.44 C 177.52,213.16 176.48,212.87 175.50,212.56 C 174.52,212.26 173.55,211.94 172.60,211.62 C 171.65,211.29 170.72,210.95 169.80,210.60 C 168.89,210.25 167.99,209.89 167.11,209.52 C 166.23,209.14 165.36,208.76 164.52,208.36 C 163.67,207.96 162.84,207.55 162.02,207.13 C 161.21,206.71 160.41,206.28 159.63,205.84 C 158.85,205.39 158.09,204.94 157.34,204.47 C 156.60,204.00 155.83,203.49 155.16,203.03 C 154.48,202.57 153.86,202.13 153.30,201.70 C 152.73,201.28 152.22,200.87 151.77,200.48 C 151.31,200.10 150.91,199.73 150.56,199.38 C 150.22,199.02 149.92,198.69 149.69,198.38 C 149.45,198.06 149.27,197.76 149.14,197.48 C 149.01,197.21 148.94,196.95 148.92,196.70 C 148.90,196.46 148.94,196.24 149.03,196.03 C 149.12,195.83 149.30,195.67 149.47,195.47 C 149.64,195.27 149.84,195.07 150.07,194.85 C 150.30,194.64 150.55,194.41 150.84,194.18 C 151.12,193.95 151.43,193.70 151.77,193.45 C 152.10,193.20 152.47,192.94 152.86,192.67 C 153.25,192.40 153.67,192.12 154.12,191.84 C 154.56,191.55 155.04,191.25 155.54,190.95 C 156.04,190.64 156.57,190.32 157.12,190.00 C 157.68,189.68 158.27,189.33 158.88,189.00 C 159.48,188.67 160.12,188.34 160.78,188.02 C 161.44,187.69 162.13,187.37 162.84,187.05 C 163.56,186.73 164.30,186.41 165.06,186.09 C 165.83,185.78 166.62,185.47 167.44,185.16 C 168.26,184.85 169.10,184.54 169.97,184.23 C 170.84,183.93 171.73,183.63 172.66,183.33 C 173.58,183.03 174.53,182.73 175.50,182.44 C 176.47,182.14 177.52,181.84 178.50,181.56 C 179.48,181.29 180.45,181.03 181.41,180.80 C 182.36,180.56 183.30,180.34 184.22,180.14 C 185.14,179.94 186.05,179.76 186.94,179.59 C 187.83,179.43 188.70,179.28 189.56,179.16 C 190.42,179.03 191.27,178.92 192.09,178.83 C 192.92,178.74 193.73,178.66 194.53,178.61 C 195.33,178.55 196.11,178.52 196.88,178.50 C 197.64,178.48 198.35,178.49 199.12,178.50 C 199.90,178.51 200.70,178.54 201.52,178.58 C 202.34,178.62 203.18,178.67 204.05,178.73 C 204.91,178.80 205.80,178.88 206.72,178.97 C 207.63,179.06 208.57,179.16 209.53,179.28 C 210.49,179.40 211.48,179.53 212.48,179.67 C 213.49,179.82 214.52,179.97 215.58,180.14 C 216.63,180.31 217.71,180.49 218.81,180.69 C 219.91,180.88 221.08,181.11 222.19,181.31 C 223.29,181.51 224.38,181.70 225.44,181.88 C 226.50,182.05 227.54,182.22 228.56,182.38 C 229.58,182.53 230.58,182.68 231.56,182.81 C 232.54,182.95 233.50,183.07 234.44,183.19 C 235.38,183.30 236.29,183.41 237.19,183.50 C 238.08,183.59 238.96,183.68 239.81,183.75 C 240.67,183.82 241.50,183.89 242.31,183.94 C 243.12,183.99 243.89,184.07 244.69,184.06 C 245.49,184.05 246.29,184.00 247.11,183.89 C 247.92,183.78 248.75,183.63 249.58,183.42 C 250.41,183.22 251.25,182.96 252.09,182.66 C 252.94,182.35 253.79,182.00 254.66,181.59 C 255.52,181.19 256.39,180.74 257.27,180.23 C 258.14,179.73 259.03,179.18 259.92,178.58 C 260.82,177.98 261.72,177.33 262.62,176.62 C 263.53,175.92 264.49,175.09 265.38,174.38 C 266.26,173.66 267.10,172.98 267.91,172.34 C 268.73,171.69 269.50,171.08 270.24,170.51 C 270.98,169.93 271.69,169.39 272.36,168.89 C 273.03,168.39 273.67,167.92 274.27,167.48 C 274.87,167.05 275.43,166.65 275.96,166.29 C 276.49,165.93 276.99,165.60 277.45,165.30 C 277.90,165.01 278.33,164.75 278.72,164.53 C 279.11,164.31 279.42,164.19 279.78,163.97 C 280.14,163.75 280.51,163.50 280.88,163.21 C 281.26,162.93 281.64,162.61 282.02,162.26 C 282.41,161.91 282.80,161.52 283.20,161.11 C 283.60,160.69 284.01,160.25 284.42,159.77 C 284.83,159.29 285.25,158.77 285.68,158.23 C 286.11,157.68 286.54,157.10 286.98,156.49 C 287.42,155.88 287.86,155.24 288.31,154.56 C 288.76,153.89 289.25,153.13 289.69,152.44 C 290.12,151.75 290.54,151.07 290.93,150.41 C 291.32,149.76 291.69,149.12 292.04,148.49 C 292.39,147.87 292.71,147.26 293.02,146.67 C 293.32,146.08 293.60,145.51 293.86,144.95 C 294.12,144.40 294.36,143.86 294.57,143.34 C 294.79,142.81 294.98,142.31 295.15,141.82 C 295.32,141.33 295.47,140.86 295.59,140.41 C 295.72,139.95 295.84,139.50 295.91,139.09 C 295.98,138.68 296.01,138.30 296.01,137.95 C 296.01,137.59 295.97,137.26 295.90,136.96 C 295.83,136.66 295.72,136.39 295.58,136.14 C 295.44,135.89 295.26,135.68 295.05,135.48 C 294.83,135.29 294.59,135.13 294.30,134.99 C 294.02,134.86 293.70,134.75 293.35,134.66 C 293.00,134.58 292.61,134.53 292.19,134.50 C 291.76,134.47 291.25,134.51 290.81,134.50 C 290.38,134.49 289.97,134.48 289.59,134.46 C 289.20,134.44 288.84,134.42 288.51,134.38 C 288.17,134.35 287.86,134.31 287.58,134.27 C 287.29,134.22 287.03,134.17 286.80,134.11 C 286.56,134.05 286.35,133.99 286.16,133.91 C 285.98,133.84 285.82,133.76 285.68,133.68 C 285.54,133.60 285.43,133.50 285.34,133.41 C 285.26,133.31 285.18,133.19 285.16,133.09 C 285.13,132.99 285.15,132.90 285.20,132.81 C 285.26,132.72 285.35,132.64 285.48,132.56 C 285.62,132.48 285.79,132.41 286.00,132.34 C 286.21,132.28 286.46,132.21 286.75,132.16 C 287.04,132.10 287.37,132.05 287.73,132.00 C 288.10,131.95 288.51,131.91 288.95,131.88 C 289.40,131.84 289.88,131.81 290.41,131.78 C 290.93,131.76 291.56,131.76 292.09,131.72 C 292.62,131.68 293.12,131.61 293.59,131.53 C 294.06,131.45 294.50,131.34 294.91,131.22 C 295.31,131.09 295.69,130.95 296.03,130.78 C 296.38,130.61 296.69,130.43 296.97,130.22 C 297.25,130.01 297.50,129.78 297.72,129.53 C 297.94,129.28 298.12,129.01 298.28,128.72 C 298.44,128.43 298.56,128.11 298.66,127.78 C 298.75,127.45 298.82,127.05 298.84,126.72 C 298.87,126.39 298.86,126.07 298.81,125.78 C 298.77,125.49 298.68,125.22 298.56,124.97 C 298.44,124.72 298.29,124.49 298.09,124.28 C 297.90,124.07 297.67,123.89 297.41,123.72 C 297.14,123.55 296.84,123.41 296.50,123.28 C 296.16,123.16 295.79,123.05 295.38,122.97 C 294.96,122.89 294.52,122.82 294.03,122.78 C 293.55,122.74 292.96,122.74 292.47,122.72 C 291.98,122.70 291.51,122.67 291.08,122.64 C 290.64,122.61 290.24,122.58 289.86,122.55 C 289.48,122.51 289.13,122.48 288.81,122.44 C 288.49,122.40 288.20,122.36 287.94,122.31 C 287.67,122.27 287.44,122.22 287.23,122.17 C 287.03,122.12 286.85,122.07 286.70,122.02 C 286.55,121.96 286.43,121.90 286.34,121.84 C 286.25,121.78 286.21,121.72 286.16,121.66 C 286.10,121.59 286.05,121.53 286.02,121.47 C 285.98,121.41 285.95,121.34 285.92,121.28 C 285.90,121.22 285.88,121.16 285.88,121.09 C 285.87,121.03 285.87,120.97 285.88,120.91 C 285.88,120.84 285.90,120.78 285.92,120.72 C 285.95,120.66 285.98,120.59 286.02,120.53 C 286.05,120.47 286.10,120.41 286.16,120.34 C 286.21,120.28 286.25,120.21 286.34,120.16 C 286.44,120.10 286.57,120.04 286.73,119.99 C 286.89,119.94 287.08,119.89 287.30,119.85 C 287.53,119.81 287.79,119.77 288.08,119.73 C 288.37,119.70 288.69,119.67 289.05,119.64 C 289.40,119.61 289.79,119.59 290.21,119.57 C 290.63,119.55 291.08,119.54 291.57,119.52 C 292.06,119.51 292.57,119.50 293.12,119.50 C 293.68,119.50 294.32,119.53 294.88,119.50 C 295.43,119.47 295.96,119.40 296.47,119.30 C 296.97,119.20 297.45,119.06 297.91,118.89 C 298.36,118.72 298.79,118.52 299.19,118.28 C 299.59,118.04 299.96,117.77 300.31,117.47 C 300.66,117.16 300.98,116.83 301.28,116.45 C 301.58,116.08 301.85,115.67 302.09,115.23 C 302.34,114.79 302.56,114.32 302.75,113.81 C 302.94,113.30 303.02,112.69 303.25,112.19 C 303.48,111.68 303.78,111.22 304.14,110.80 C 304.50,110.37 304.93,109.99 305.42,109.64 C 305.91,109.29 306.47,108.99 307.09,108.72 C 307.72,108.45 308.40,108.22 309.16,108.03 C 309.91,107.84 310.73,107.69 311.61,107.58 C 312.49,107.47 313.44,107.39 314.45,107.36 C 315.47,107.33 316.54,107.33 317.69,107.38 C 318.83,107.42 320.18,107.54 321.31,107.62 C 322.45,107.71 323.50,107.79 324.48,107.88 C 325.47,107.96 326.37,108.04 327.20,108.12 C 328.03,108.21 328.79,108.29 329.47,108.38 C 330.15,108.46 330.75,108.54 331.28,108.62 C 331.81,108.71 332.26,108.79 332.64,108.88 C 333.02,108.96 333.32,109.04 333.55,109.12 C 333.77,109.21 333.92,109.29 334.00,109.38 C 334.08,109.46 334.01,109.54 334.00,109.62 C 333.99,109.71 333.96,109.78 333.92,109.86 C 333.88,109.93 333.83,110.01 333.77,110.08 C 333.70,110.15 333.62,110.22 333.53,110.28 C 333.44,110.35 333.34,110.41 333.22,110.47 C 333.10,110.53 332.97,110.59 332.83,110.64 C 332.68,110.70 332.53,110.75 332.36,110.80 C 332.19,110.85 332.01,110.89 331.81,110.94 C 331.62,110.98 331.39,111.01 331.19,111.06 C 330.98,111.11 330.78,111.17 330.59,111.23 C 330.39,111.29 330.20,111.36 330.01,111.43 C 329.82,111.50 329.63,111.58 329.45,111.67 C 329.27,111.76 329.10,111.85 328.92,111.95 C 328.75,112.05 328.58,112.16 328.41,112.27 C 328.25,112.39 328.09,112.51 327.93,112.63 C 327.77,112.76 327.62,112.89 327.47,113.03 C 327.32,113.17 327.17,113.32 327.03,113.47 C 326.89,113.62 326.77,113.78 326.65,113.95 C 326.53,114.11 326.42,114.28 326.32,114.46 C 326.22,114.64 326.13,114.82 326.05,115.02 C 325.96,115.21 325.89,115.40 325.83,115.61 C 325.76,115.81 325.71,116.02 325.66,116.24 C 325.62,116.46 325.58,116.68 325.55,116.91 C 325.53,117.14 325.51,117.38 325.50,117.62 C 325.49,117.87 325.49,118.08 325.50,118.38 C 325.51,118.67 325.54,119.02 325.58,119.41 C 325.62,119.80 325.67,120.23 325.73,120.72 C 325.80,121.20 325.88,121.73 325.97,122.31 C 326.06,122.89 326.16,123.52 326.28,124.19 C 326.40,124.86 326.53,125.58 326.67,126.34 C 326.82,127.11 326.97,127.92 327.14,128.78 C 327.31,129.64 327.49,130.55 327.69,131.50 C 327.88,132.45 328.09,133.53 328.31,134.50 C 328.54,135.47 328.77,136.42 329.02,137.34 C 329.27,138.25 329.54,139.14 329.82,140.01 C 330.10,140.87 330.39,141.71 330.70,142.52 C 331.01,143.32 331.33,144.11 331.67,144.86 C 332.01,145.61 332.36,146.34 332.73,147.04 C 333.09,147.74 333.47,148.41 333.87,149.05 C 334.26,149.70 334.67,150.32 335.09,150.91 C 335.52,151.50 335.96,152.05 336.41,152.59 C 336.85,153.14 337.31,153.67 337.77,154.18 C 338.24,154.69 338.71,155.19 339.20,155.66 C 339.68,156.14 340.17,156.60 340.67,157.05 C 341.17,157.49 341.68,157.92 342.20,158.33 C 342.72,158.74 343.25,159.13 343.79,159.51 C 344.33,159.88 344.87,160.24 345.43,160.59 C 345.99,160.93 346.55,161.25 347.12,161.56 C 347.70,161.87 348.28,162.15 348.88,162.44 C 349.47,162.73 350.09,163.01 350.72,163.30 C 351.35,163.58 351.99,163.86 352.66,164.14 C 353.32,164.42 353.99,164.70 354.69,164.97 C 355.38,165.24 356.09,165.51 356.81,165.78 C 357.54,166.05 358.28,166.32 359.03,166.58 C 359.79,166.84 360.56,167.10 361.34,167.36 C 362.13,167.62 362.93,167.87 363.75,168.12 C 364.57,168.38 365.36,168.63 366.25,168.88 C 367.14,169.12 368.09,169.35 369.09,169.58 C 370.10,169.80 371.16,170.02 372.28,170.23 C 373.40,170.45 374.58,170.65 375.81,170.84 C 377.05,171.04 378.34,171.23 379.69,171.41 C 381.04,171.59 382.44,171.76 383.91,171.92 C 385.37,172.09 386.89,172.24 388.47,172.39 C 390.05,172.54 391.68,172.68 393.38,172.81 C 395.07,172.95 396.97,173.06 398.62,173.19 C 400.28,173.31 401.83,173.44 403.29,173.57 C 404.75,173.70 406.11,173.83 407.37,173.96 C 408.63,174.09 409.79,174.23 410.86,174.36 C 411.93,174.49 412.89,174.63 413.77,174.77 C 414.64,174.90 415.41,175.04 416.09,175.18 C 416.76,175.32 417.34,175.46 417.82,175.60 C 418.30,175.74 418.68,175.89 418.97,176.03 C 419.25,176.18 419.36,176.30 419.53,176.47 C 419.71,176.64 419.87,176.83 420.02,177.04 C 420.18,177.25 420.32,177.49 420.45,177.74 C 420.57,178.00 420.69,178.28 420.80,178.58 C 420.90,178.88 421.00,179.20 421.08,179.55 C 421.16,179.89 421.23,180.26 421.29,180.65 C 421.35,181.04 421.39,181.45 421.43,181.88 C 421.46,182.32 421.49,182.77 421.50,183.25 C 421.51,183.73 421.50,184.27 421.50,184.75 C 421.50,185.23 421.49,185.68 421.48,186.10 C 421.46,186.53 421.45,186.93 421.43,187.30 C 421.41,187.68 421.39,188.03 421.36,188.36 C 421.33,188.69 421.30,188.99 421.27,189.27 C 421.23,189.54 421.19,189.80 421.15,190.02 C 421.11,190.25 421.06,190.45 421.01,190.63 C 420.96,190.81 420.90,190.96 420.84,191.09 C 420.79,191.22 420.73,191.30 420.66,191.41 C 420.58,191.51 420.49,191.61 420.39,191.72 C 420.29,191.82 420.17,191.93 420.05,192.03 C 419.92,192.14 419.78,192.24 419.62,192.34 C 419.47,192.45 419.30,192.55 419.12,192.66 C 418.95,192.76 418.75,192.86 418.55,192.97 C 418.34,193.07 418.12,193.18 417.89,193.28 C 417.66,193.39 417.41,193.49 417.16,193.59 C 416.90,193.70 416.60,193.80 416.34,193.91 C 416.09,194.02 415.85,194.13 415.63,194.26 C 415.41,194.38 415.21,194.51 415.02,194.65 C 414.84,194.79 414.67,194.93 414.52,195.08 C 414.36,195.23 414.23,195.38 414.11,195.55 C 413.99,195.71 413.89,195.88 413.80,196.05 C 413.72,196.23 413.65,196.41 413.60,196.60 C 413.55,196.79 413.52,196.99 413.50,197.19 C 413.48,197.39 413.48,197.61 413.50,197.81 C 413.52,198.01 413.55,198.21 413.60,198.40 C 413.65,198.59 413.72,198.77 413.80,198.95 C 413.89,199.12 413.99,199.29 414.11,199.45 C 414.23,199.62 414.36,199.77 414.52,199.92 C 414.67,200.07 414.84,200.21 415.02,200.35 C 415.21,200.49 415.41,200.62 415.63,200.74 C 415.85,200.87 416.09,200.98 416.34,201.09 C 416.60,201.20 416.90,201.30 417.16,201.41 C 417.41,201.51 417.66,201.61 417.89,201.72 C 418.12,201.82 418.34,201.93 418.55,202.03 C 418.75,202.14 418.95,202.24 419.12,202.34 C 419.30,202.45 419.47,202.55 419.62,202.66 C 419.78,202.76 419.92,202.86 420.05,202.97 C 420.17,203.07 420.29,203.18 420.39,203.28 C 420.49,203.39 420.58,203.49 420.66,203.59 C 420.73,203.70 420.79,203.77 420.84,203.91 C 420.90,204.04 420.95,204.20 420.99,204.40 C 421.04,204.59 421.07,204.82 421.10,205.07 C 421.13,205.32 421.15,205.61 421.17,205.92 C 421.19,206.24 421.20,206.58 421.20,206.95 C 421.21,207.33 421.20,207.73 421.20,208.16 C 421.19,208.60 421.17,209.06 421.15,209.55 C 421.13,210.05 421.10,210.57 421.06,211.12 C 421.03,211.68 420.99,212.32 420.94,212.88 C 420.88,213.43 420.82,213.95 420.74,214.45 C 420.67,214.94 420.58,215.40 420.48,215.84 C 420.38,216.27 420.26,216.67 420.14,217.05 C 420.02,217.42 419.88,217.76 419.73,218.08 C 419.59,218.39 419.43,218.68 419.26,218.93 C 419.09,219.18 418.90,219.41 418.71,219.60 C 418.52,219.80 418.31,219.96 418.09,220.09 C 417.88,220.23 417.65,220.31 417.41,220.41 C 417.16,220.50 416.90,220.59 416.62,220.66 C 416.34,220.74 416.04,220.81 415.73,220.87 C 415.41,220.93 415.08,220.98 414.73,221.02 C 414.39,221.06 414.02,221.09 413.64,221.11 C 413.26,221.13 412.86,221.14 412.45,221.15 C 412.03,221.15 411.60,221.15 411.15,221.13 C 410.70,221.12 410.23,221.10 409.75,221.06 C 409.27,221.03 408.73,220.97 408.25,220.94 C 407.77,220.90 407.31,220.88 406.88,220.86 C 406.44,220.84 406.02,220.83 405.62,220.83 C 405.23,220.83 404.85,220.83 404.50,220.84 C 404.15,220.86 403.81,220.88 403.50,220.91 C 403.19,220.93 402.90,220.97 402.62,221.02 C 402.35,221.06 402.10,221.11 401.88,221.17 C 401.65,221.23 401.44,221.30 401.25,221.38 C 401.06,221.45 400.97,221.54 400.75,221.62 C 400.53,221.71 400.26,221.78 399.94,221.86 C 399.61,221.93 399.24,222.01 398.81,222.08 C 398.39,222.15 397.91,222.22 397.38,222.28 C 396.84,222.35 396.26,222.41 395.62,222.47 C 394.99,222.53 394.30,222.59 393.56,222.64 C 392.82,222.70 392.03,222.75 391.19,222.80 C 390.34,222.85 389.45,222.89 388.50,222.94 C 387.55,222.98 386.52,223.00 385.50,223.06 C 384.48,223.13 383.45,223.22 382.41,223.33 C 381.36,223.44 380.30,223.58 379.22,223.73 C 378.14,223.89 377.05,224.08 375.94,224.28 C 374.83,224.49 373.70,224.72 372.56,224.97 C 371.42,225.22 370.27,225.50 369.09,225.80 C 367.92,226.10 366.73,226.42 365.53,226.77 C 364.33,227.11 363.11,227.48 361.88,227.88 C 360.64,228.27 359.32,228.71 358.12,229.12 C 356.93,229.54 355.78,229.95 354.68,230.37 C 353.58,230.78 352.54,231.19 351.54,231.60 C 350.54,232.01 349.60,232.42 348.70,232.83 C 347.81,233.24 346.96,233.64 346.17,234.05 C 345.38,234.45 344.64,234.86 343.95,235.26 C 343.25,235.66 342.61,236.06 342.02,236.46 C 341.43,236.86 340.89,237.26 340.41,237.66 C 339.92,238.05 339.52,238.43 339.09,238.84 C 338.67,239.25 338.25,239.68 337.85,240.12 C 337.45,240.56 337.06,241.01 336.68,241.48 C 336.30,241.94 335.93,242.43 335.58,242.92 C 335.22,243.42 334.88,243.93 334.55,244.45 C 334.21,244.98 333.89,245.52 333.59,246.07 C 333.28,246.62 332.98,247.19 332.70,247.77 C 332.41,248.36 332.14,248.95 331.88,249.56 C 331.61,250.17 331.37,250.79 331.12,251.44 C 330.88,252.08 330.65,252.74 330.42,253.42 C 330.20,254.10 329.98,254.80 329.77,255.52 C 329.55,256.23 329.35,256.97 329.16,257.72 C 328.96,258.47 328.77,259.24 328.59,260.03 C 328.41,260.82 328.24,261.63 328.08,262.45 C 327.91,263.28 327.76,264.12 327.61,264.98 C 327.46,265.85 327.32,266.73 327.19,267.62 C 327.05,268.52 326.92,269.50 326.81,270.38 C 326.71,271.25 326.62,272.07 326.55,272.85 C 326.49,273.63 326.44,274.37 326.41,275.05 C 326.39,275.74 326.38,276.39 326.39,276.98 C 326.40,277.58 326.43,278.13 326.48,278.64 C 326.54,279.15 326.61,279.61 326.70,280.02 C 326.79,280.44 326.89,280.81 327.02,281.13 C 327.15,281.46 327.30,281.74 327.47,281.97 C 327.64,282.20 327.85,282.36 328.03,282.53 C 328.22,282.71 328.40,282.87 328.59,283.02 C 328.77,283.18 328.95,283.32 329.13,283.45 C 329.31,283.57 329.49,283.69 329.67,283.80 C 329.85,283.90 330.03,284.00 330.20,284.08 C 330.38,284.16 330.55,284.23 330.73,284.29 C 330.90,284.35 331.07,284.39 331.24,284.43 C 331.41,284.46 331.58,284.49 331.75,284.50 C 331.92,284.51 332.09,284.50 332.25,284.50 C 332.41,284.50 332.56,284.51 332.70,284.52 C 332.83,284.54 332.96,284.55 333.09,284.57 C 333.21,284.59 333.32,284.61 333.42,284.64 C 333.52,284.67 333.62,284.70 333.70,284.73 C 333.79,284.77 333.86,284.81 333.93,284.85 C 334.00,284.89 334.05,284.94 334.10,284.99 C 334.15,285.04 334.19,285.10 334.22,285.16 C 334.25,285.21 334.32,285.28 334.28,285.34 C 334.24,285.41 334.15,285.48 334.00,285.55 C 333.85,285.62 333.64,285.69 333.38,285.77 C 333.11,285.84 332.79,285.92 332.41,286.00 C 332.03,286.08 331.59,286.16 331.09,286.25 C 330.60,286.34 330.05,286.42 329.44,286.52 C 328.83,286.61 328.16,286.70 327.44,286.80 C 326.71,286.89 325.93,286.99 325.09,287.09 C 324.26,287.20 323.27,287.31 322.41,287.41 C 321.54,287.50 320.72,287.59 319.92,287.67 C 319.13,287.75 318.37,287.83 317.64,287.89 C 316.91,287.96 316.22,288.01 315.56,288.06 C 314.90,288.11 314.28,288.15 313.69,288.19 C 313.10,288.22 312.54,288.25 312.02,288.27 C 311.49,288.28 311.00,288.29 310.55,288.30 C 310.09,288.30 309.67,288.29 309.28,288.28 Z" stroke="none" fill="currentColor" opacity="0.11" />
  <path d="M328.83,190.93L328.43,191.34 M328.83,205.16L328.43,204.75 M351.60,195.00L349.98,195.00 M349.98,195.83L351.60,195.83 M351.60,201.08L349.98,201.08 M349.98,200.26L351.60,200.26 M352.47,196.37L350.47,196.37 M353.46,196.37L351.79,196.37 M327.05,201.32L319.69,201.32 M216.97,187.13L209.51,186.84 M355.10,206.60L343.23,208.53 M216.97,208.95L209.51,209.25 M201.73,209.54L209.34,209.56 M209.34,209.56L216.79,209.34 M201.72,209.66L209.35,209.68 M209.35,209.68L216.81,209.46 M201.72,186.43L209.35,186.40 M209.34,186.53L201.73,186.55 M209.35,186.40L216.81,186.62 M209.34,186.53L216.79,186.75 M215.90,213.53L207.98,214.21 M215.91,213.56L207.99,214.24 M207.99,214.24L200.79,214.41 M200.79,214.39L207.98,214.21 M331.04,250.34L322.40,250.32 M322.16,250.43L330.95,250.43 M356.24,229.81L370.61,224.65 M392.98,216.81L384.28,219.77 M356.24,166.27L370.61,171.44 M384.28,176.31L392.98,179.28 M322.16,145.66L330.95,145.66 M322.36,145.66L330.95,145.66 M307.32,194.18L298.59,195.43 M225.10,189.32L233.45,189.24 M248.26,188.50L255.39,188.00 M255.39,188.00L273.93,186.59 M273.93,209.50L255.39,208.08 M255.39,208.08L248.26,207.59 M233.45,206.85L225.10,206.76 M215.40,192.35L224.25,192.33 M201.72,209.32L194.00,208.88 M209.32,209.34L216.77,209.13 M209.32,209.34L201.72,209.32 M208.04,213.32L215.89,212.66 M209.23,209.60L201.64,209.58 M230.40,203.78L237.34,203.76 M230.40,203.88L237.33,203.85 M237.33,203.85L244.82,203.85 M244.82,192.24L237.33,192.24 M310.92,262.35L320.51,262.37 M310.92,262.34L320.53,262.34 M320.53,263.03L310.92,263.03 M320.51,263.00L310.92,263.02 M311.93,262.40L304.95,262.41 M311.93,262.96L304.95,262.96 M311.91,262.37L304.93,262.38 M311.91,262.99L304.93,262.99 M310.43,263.62L303.54,263.62 M310.64,264.22L318.34,264.19 M310.43,261.75L303.54,261.75 M310.64,261.15L318.34,261.18 M307.82,261.79L315.92,261.74 M307.82,263.58L315.92,263.63 M322.16,251.29L330.57,251.42 M311.83,274.26L321.42,274.28 M311.83,274.25L321.44,274.25 M321.44,274.94L311.83,274.94 M321.42,274.91L311.83,274.93 M312.84,274.31L305.86,274.32 M312.84,274.87L305.86,274.87 M312.82,274.28L305.84,274.29 M312.82,274.90L305.84,274.90 M311.34,275.53L304.45,275.53 M311.55,276.13L319.25,276.10 M311.34,273.66L304.45,273.66 M311.55,273.06L319.25,273.09 M308.73,273.70L316.83,273.65 M308.73,275.49L316.83,275.54 M305.78,278.95L300.86,257.91 M310.92,133.08L320.51,133.10 M310.92,133.06L320.53,133.07 M320.53,133.76L310.92,133.76 M320.51,133.73L310.92,133.75 M311.93,133.13L304.95,133.14 M311.93,133.69L304.95,133.69 M311.91,133.09L304.93,133.10 M311.91,133.72L304.93,133.72 M310.43,134.35L303.54,134.35 M310.64,134.95L318.34,134.92 M310.43,132.47L303.54,132.48 M310.64,131.88L318.34,131.91 M307.82,132.52L315.92,132.47 M307.82,134.31L315.92,134.35 M330.57,144.68L322.16,144.81 M311.83,121.17L321.42,121.19 M311.83,121.15L321.44,121.16 M321.44,121.85L311.83,121.85 M321.42,121.82L311.83,121.84 M312.84,121.22L305.86,121.23 M312.84,121.78L305.86,121.78 M312.82,121.18L305.84,121.20 M312.82,121.81L305.84,121.81 M311.34,122.44L304.45,122.44 M311.55,123.04L319.25,123.01 M311.34,120.56L304.45,120.57 M311.55,119.97L319.25,120.00 M308.73,120.61L316.83,120.56 M308.73,122.40L316.83,122.44 M305.78,117.15L300.86,138.18 M346.62,191.65L342.34,191.65 M353.80,202.24L351.03,204.36 M351.03,204.36L353.61,202.43 M342.42,204.53L346.54,204.53 M350.82,192.14L346.88,192.12 M347.15,192.11L343.55,192.12 M343.55,204.53L347.15,204.54 M217.46,196.33L208.22,196.33 M217.46,199.76L208.22,199.76 M214.44,198.04L216.79,197.94 M190.22,196.83L228.42,196.61 M190.26,201.23L228.42,202.12 M213.16,193.57L222.97,193.57 M213.16,193.50L222.95,193.50 M213.16,193.57L222.97,193.57 M213.16,202.52L222.97,202.52 M213.16,202.59L222.95,202.59 M213.16,202.52L222.97,202.52 M221.69,193.22L213.13,193.22 M221.38,193.88L213.44,193.88 M213.13,202.87L221.69,202.87 M213.44,202.21L221.38,202.21 M221.40,193.80L213.42,193.80 M221.65,193.31L213.17,193.31 M221.40,202.29L213.42,202.29 M221.65,202.78L213.17,202.78 M223.09,196.30L206.51,196.30 M223.07,196.30L206.51,196.30 M223.07,195.93L206.54,195.93 M223.09,195.93L206.54,195.93 M200.80,195.78L190.22,195.78 M200.80,195.78L190.22,195.78 M200.83,195.41L190.22,195.41 M200.83,195.41L190.22,195.41 M227.74,202.87L210.01,202.87 M210.01,202.46L227.74,202.46 M210.01,202.52L227.74,202.52 M197.39,202.10L190.27,201.61 M197.39,202.04L190.27,201.55 M197.39,202.45L190.27,201.96 M227.74,202.81L210.01,202.81 M197.39,202.39L190.27,201.90 M227.74,193.22L210.01,193.22 M227.74,193.28L210.01,193.28 M210.01,193.63L227.74,193.63 M197.39,193.70L190.27,194.19 M197.39,193.64L190.27,194.13 M190.27,194.54L197.39,194.05 M190.27,194.48L197.39,193.99 M210.01,193.57L227.74,193.57 M190.67,193.81L180.70,193.81 M180.70,194.47L190.67,194.47 M180.70,202.28L190.67,202.28 M190.67,201.61L180.70,201.61 M214.06,201.45L178.13,201.45 M214.06,194.63L178.13,194.63 M307.43,209.20L318.60,208.67 M307.43,186.89L318.60,187.42 M345.98,217.23L345.98,209.86 M345.98,178.86L345.98,186.23 M362.49,203.75L362.49,203.75 M362.62,203.88L362.62,203.88 M362.67,205.59L365.97,214.76 M366.13,214.93L372.47,217.41 M372.47,217.41L380.38,216.12 M380.55,216.23L381.97,215.91 M334.31,224.37L332.65,207.14 M362.49,192.34L362.49,192.34 M362.62,192.20L362.62,192.20 M362.67,190.50L365.97,181.33 M366.13,181.16L372.47,178.68 M380.55,179.86L381.97,180.18 M408.34,189.22L400.81,189.22 M336.35,173.89L332.44,190.86 M362.63,192.20L362.62,192.20 M365.97,181.33L362.67,190.63 M362.63,203.88L362.62,203.88 M365.97,214.75L362.67,205.46 M360.76,204.39L362.71,202.77 M362.71,193.32L360.76,191.70 M329.52,221.55L329.52,214.69 M329.52,181.40L329.52,174.54 M329.63,181.40L329.63,174.54 M325.78,161.48L329.25,155.48 M326.66,161.97L330.13,155.95 M329.84,155.82L326.37,161.82 M346.59,190.34L354.50,190.34 M354.27,182.97L352.55,189.67 M358.29,187.38L336.05,187.38 M354.50,205.75L346.59,205.75 M354.27,213.11L352.55,206.41 M336.05,208.71L358.29,208.71 M315.64,195.58L308.15,195.58 M315.64,195.81L308.52,195.81 M315.64,200.51L308.15,200.51 M315.64,200.28L308.52,200.28 M355.97,182.95L344.11,182.95 M355.97,213.13L344.11,213.13 M303.82,206.68L295.01,207.67 M295.01,207.67L286.05,207.94 M292.85,215.27L282.34,213.08 M286.05,188.15L295.01,188.42 M295.01,188.42L303.82,189.41 M303.67,209.45L310.42,211.09 M252.83,188.94L262.46,187.15 M221.30,206.86L242.30,206.78 M252.83,207.15L262.46,208.93 M253.00,207.48L262.34,208.10 M310.42,185.00L303.67,186.64 M378.29,214.55L400.56,214.52 M221.30,189.23L242.30,189.31 M253.00,188.60L262.34,187.99 M290.90,208.13L279.12,208.61 M290.90,208.13L303.53,208.72 M280.43,209.36L290.32,209.60 M378.29,181.54L400.56,181.57 M361.04,205.72L370.65,204.16 M361.04,190.37L370.65,191.92 M290.90,187.96L279.12,187.48 M290.90,187.96L303.53,187.37 M280.43,186.73L290.32,186.48 M292.85,180.82L282.34,183.01 M359.23,215.79L356.32,205.40 M345.18,216.81L345.18,206.00 M343.71,216.81L343.71,206.00 M343.66,216.81L343.66,206.00 M349.42,216.50L349.42,205.98 M356.21,206.04L358.75,215.13 M337.30,207.20L339.87,216.71 M359.23,180.30L356.32,190.69 M345.18,179.28L345.18,190.08 M343.71,190.08L343.71,179.28 M343.66,179.28L343.66,190.09 M349.42,190.11L349.42,179.59 M337.30,188.89L339.87,179.38 M213.16,203.00L224.93,202.98 M218.84,192.87L227.33,192.90 M213.16,193.09L224.93,193.11 M312.95,170.32L318.75,174.29 M318.75,221.80L312.95,225.77 M338.09,187.78L331.61,192.70" stroke="currentColor" stroke-width="0.6" stroke-linecap="round" fill="none" opacity="0.55" clip-path="url(#hull-clip)" filter="url(#glow)" />
  <path d="M 309.28,288.28 C 308.89,288.27 308.56,288.27 308.22,288.22 C 307.88,288.17 307.55,288.08 307.23,287.97 C 306.92,287.85 306.62,287.71 306.33,287.53 C 306.04,287.35 305.76,287.15 305.50,286.91 C 305.24,286.67 304.99,286.40 304.75,286.09 C 304.51,285.79 304.29,285.46 304.08,285.09 C 303.87,284.73 303.67,284.33 303.48,283.91 C 303.30,283.48 303.13,283.02 302.97,282.53 C 302.81,282.04 302.71,281.46 302.53,280.97 C 302.35,280.48 302.15,280.02 301.91,279.59 C 301.67,279.17 301.40,278.77 301.09,278.41 C 300.79,278.04 300.46,277.71 300.09,277.41 C 299.73,277.10 299.33,276.83 298.91,276.59 C 298.48,276.35 298.02,276.15 297.53,275.97 C 297.04,275.79 296.52,275.65 295.97,275.53 C 295.42,275.42 294.83,275.33 294.22,275.28 C 293.60,275.23 292.88,275.24 292.28,275.22 C 291.68,275.19 291.12,275.16 290.61,275.12 C 290.10,275.09 289.63,275.05 289.20,275.00 C 288.78,274.95 288.40,274.90 288.06,274.84 C 287.73,274.79 287.43,274.72 287.19,274.66 C 286.94,274.59 286.74,274.52 286.58,274.44 C 286.42,274.36 286.30,274.28 286.23,274.19 C 286.16,274.10 286.14,274.01 286.16,273.91 C 286.17,273.81 286.25,273.69 286.34,273.59 C 286.43,273.49 286.55,273.40 286.70,273.31 C 286.85,273.22 287.03,273.14 287.23,273.06 C 287.44,272.98 287.67,272.91 287.94,272.84 C 288.20,272.78 288.49,272.71 288.81,272.66 C 289.13,272.60 289.48,272.55 289.86,272.50 C 290.24,272.45 290.64,272.41 291.08,272.38 C 291.51,272.34 291.98,272.31 292.47,272.28 C 292.96,272.26 293.54,272.25 294.03,272.22 C 294.52,272.19 294.98,272.14 295.40,272.09 C 295.82,272.03 296.21,271.96 296.57,271.88 C 296.93,271.80 297.25,271.71 297.55,271.61 C 297.84,271.51 298.10,271.39 298.33,271.27 C 298.56,271.14 298.75,271.00 298.91,270.85 C 299.08,270.70 299.21,270.54 299.30,270.37 C 299.40,270.19 299.47,270.01 299.50,269.81 C 299.53,269.62 299.51,269.39 299.50,269.19 C 299.49,268.98 299.48,268.78 299.46,268.59 C 299.44,268.39 299.42,268.20 299.38,268.01 C 299.35,267.82 299.31,267.63 299.27,267.45 C 299.22,267.27 299.17,267.10 299.11,266.92 C 299.05,266.75 298.99,266.58 298.91,266.41 C 298.84,266.25 298.76,266.09 298.68,265.93 C 298.60,265.77 298.50,265.62 298.41,265.47 C 298.31,265.32 298.22,265.17 298.09,265.03 C 297.96,264.89 297.81,264.76 297.62,264.64 C 297.44,264.52 297.23,264.40 297.00,264.30 C 296.77,264.19 296.51,264.09 296.22,264.00 C 295.93,263.91 295.62,263.83 295.28,263.75 C 294.94,263.67 294.58,263.61 294.19,263.55 C 293.80,263.49 293.38,263.43 292.94,263.39 C 292.49,263.35 292.03,263.31 291.53,263.28 C 291.04,263.25 290.45,263.24 289.97,263.22 C 289.48,263.19 289.04,263.16 288.62,263.12 C 288.21,263.09 287.84,263.05 287.50,263.00 C 287.16,262.95 286.86,262.90 286.59,262.84 C 286.33,262.79 286.10,262.72 285.91,262.66 C 285.71,262.59 285.56,262.52 285.44,262.44 C 285.32,262.36 285.23,262.28 285.19,262.19 C 285.14,262.10 285.13,262.01 285.16,261.91 C 285.18,261.81 285.26,261.69 285.34,261.59 C 285.43,261.49 285.55,261.40 285.69,261.31 C 285.83,261.22 285.99,261.14 286.19,261.06 C 286.38,260.98 286.60,260.91 286.84,260.84 C 287.09,260.78 287.36,260.71 287.66,260.66 C 287.95,260.60 288.28,260.55 288.62,260.50 C 288.97,260.45 289.35,260.41 289.75,260.38 C 290.15,260.34 290.58,260.31 291.03,260.28 C 291.48,260.26 292.03,260.26 292.47,260.22 C 292.91,260.17 293.31,260.10 293.68,260.01 C 294.05,259.91 294.37,259.79 294.66,259.65 C 294.95,259.50 295.21,259.33 295.42,259.14 C 295.64,258.95 295.81,258.73 295.95,258.48 C 296.09,258.24 296.19,257.97 296.26,257.68 C 296.32,257.39 296.35,257.07 296.34,256.73 C 296.32,256.38 296.27,256.02 296.19,255.62 C 296.10,255.23 295.96,254.81 295.81,254.38 C 295.66,253.94 295.48,253.48 295.27,252.99 C 295.07,252.51 294.83,252.00 294.57,251.48 C 294.31,250.95 294.02,250.40 293.70,249.83 C 293.39,249.26 293.04,248.66 292.67,248.05 C 292.30,247.43 291.90,246.79 291.48,246.13 C 291.05,245.47 290.60,244.79 290.12,244.09 C 289.64,243.38 289.13,242.65 288.59,241.91 C 288.06,241.16 287.44,240.31 286.91,239.59 C 286.37,238.88 285.86,238.21 285.38,237.60 C 284.90,236.99 284.45,236.43 284.02,235.93 C 283.60,235.43 283.20,234.98 282.83,234.58 C 282.46,234.18 282.11,233.84 281.80,233.55 C 281.48,233.26 281.19,233.02 280.93,232.84 C 280.67,232.65 280.43,232.52 280.23,232.45 C 280.02,232.37 279.84,232.35 279.69,232.38 C 279.54,232.40 279.44,232.55 279.31,232.62 C 279.18,232.70 279.05,232.78 278.91,232.84 C 278.77,232.91 278.62,232.97 278.47,233.03 C 278.32,233.09 278.16,233.14 278.00,233.19 C 277.84,233.23 277.67,233.28 277.50,233.31 C 277.33,233.35 277.15,233.38 276.97,233.41 C 276.79,233.43 276.60,233.45 276.41,233.47 C 276.21,233.48 276.02,233.49 275.81,233.50 C 275.61,233.51 275.38,233.52 275.19,233.50 C 274.99,233.48 274.81,233.45 274.65,233.40 C 274.48,233.35 274.33,233.28 274.20,233.20 C 274.06,233.11 273.94,233.01 273.83,232.89 C 273.72,232.77 273.63,232.64 273.55,232.48 C 273.47,232.33 273.40,232.16 273.35,231.98 C 273.30,231.79 273.26,231.59 273.24,231.37 C 273.22,231.15 273.21,230.91 273.22,230.66 C 273.23,230.40 273.31,230.14 273.28,229.84 C 273.25,229.55 273.17,229.23 273.05,228.89 C 272.92,228.55 272.74,228.18 272.52,227.80 C 272.29,227.41 272.01,227.00 271.69,226.56 C 271.36,226.13 270.99,225.67 270.56,225.19 C 270.14,224.71 269.66,224.20 269.14,223.67 C 268.62,223.14 268.04,222.59 267.42,222.02 C 266.80,221.44 266.13,220.84 265.41,220.22 C 264.68,219.60 263.84,218.89 263.09,218.28 C 262.35,217.67 261.63,217.10 260.93,216.57 C 260.23,216.04 259.56,215.54 258.91,215.09 C 258.27,214.63 257.64,214.21 257.05,213.83 C 256.45,213.45 255.88,213.10 255.33,212.80 C 254.78,212.49 254.26,212.22 253.76,211.99 C 253.26,211.76 252.79,211.57 252.34,211.41 C 251.89,211.26 251.46,211.14 251.06,211.06 C 250.66,210.98 250.40,210.96 249.94,210.94 C 249.48,210.91 248.93,210.91 248.30,210.92 C 247.66,210.93 246.95,210.97 246.14,211.02 C 245.34,211.07 244.45,211.13 243.47,211.22 C 242.49,211.30 241.43,211.41 240.28,211.53 C 239.13,211.65 237.90,211.79 236.58,211.95 C 235.26,212.11 233.85,212.29 232.36,212.48 C 230.87,212.68 229.29,212.89 227.62,213.12 C 225.96,213.36 224.05,213.64 222.38,213.88 C 220.70,214.11 219.09,214.33 217.55,214.53 C 216.01,214.73 214.54,214.92 213.14,215.09 C 211.74,215.27 210.41,215.42 209.16,215.56 C 207.90,215.70 206.71,215.83 205.59,215.94 C 204.48,216.05 203.43,216.14 202.45,216.22 C 201.48,216.30 200.57,216.36 199.73,216.41 C 198.90,216.45 198.13,216.48 197.44,216.50 C 196.74,216.52 196.21,216.52 195.56,216.50 C 194.91,216.48 194.24,216.45 193.55,216.39 C 192.85,216.34 192.13,216.26 191.39,216.17 C 190.65,216.08 189.88,215.97 189.09,215.84 C 188.30,215.72 187.49,215.57 186.66,215.41 C 185.82,215.24 184.96,215.06 184.08,214.86 C 183.20,214.66 182.29,214.44 181.36,214.20 C 180.43,213.97 179.48,213.71 178.50,213.44 C 177.52,213.16 176.48,212.87 175.50,212.56 C 174.52,212.26 173.55,211.94 172.60,211.62 C 171.65,211.29 170.72,210.95 169.80,210.60 C 168.89,210.25 167.99,209.89 167.11,209.52 C 166.23,209.14 165.36,208.76 164.52,208.36 C 163.67,207.96 162.84,207.55 162.02,207.13 C 161.21,206.71 160.41,206.28 159.63,205.84 C 158.85,205.39 158.09,204.94 157.34,204.47 C 156.60,204.00 155.83,203.49 155.16,203.03 C 154.48,202.57 153.86,202.13 153.30,201.70 C 152.73,201.28 152.22,200.87 151.77,200.48 C 151.31,200.10 150.91,199.73 150.56,199.38 C 150.22,199.02 149.92,198.69 149.69,198.38 C 149.45,198.06 149.27,197.76 149.14,197.48 C 149.01,197.21 148.94,196.95 148.92,196.70 C 148.90,196.46 148.94,196.24 149.03,196.03 C 149.12,195.83 149.30,195.67 149.47,195.47 C 149.64,195.27 149.84,195.07 150.07,194.85 C 150.30,194.64 150.55,194.41 150.84,194.18 C 151.12,193.95 151.43,193.70 151.77,193.45 C 152.10,193.20 152.47,192.94 152.86,192.67 C 153.25,192.40 153.67,192.12 154.12,191.84 C 154.56,191.55 155.04,191.25 155.54,190.95 C 156.04,190.64 156.57,190.32 157.12,190.00 C 157.68,189.68 158.27,189.33 158.88,189.00 C 159.48,188.67 160.12,188.34 160.78,188.02 C 161.44,187.69 162.13,187.37 162.84,187.05 C 163.56,186.73 164.30,186.41 165.06,186.09 C 165.83,185.78 166.62,185.47 167.44,185.16 C 168.26,184.85 169.10,184.54 169.97,184.23 C 170.84,183.93 171.73,183.63 172.66,183.33 C 173.58,183.03 174.53,182.73 175.50,182.44 C 176.47,182.14 177.52,181.84 178.50,181.56 C 179.48,181.29 180.45,181.03 181.41,180.80 C 182.36,180.56 183.30,180.34 184.22,180.14 C 185.14,179.94 186.05,179.76 186.94,179.59 C 187.83,179.43 188.70,179.28 189.56,179.16 C 190.42,179.03 191.27,178.92 192.09,178.83 C 192.92,178.74 193.73,178.66 194.53,178.61 C 195.33,178.55 196.11,178.52 196.88,178.50 C 197.64,178.48 198.35,178.49 199.12,178.50 C 199.90,178.51 200.70,178.54 201.52,178.58 C 202.34,178.62 203.18,178.67 204.05,178.73 C 204.91,178.80 205.80,178.88 206.72,178.97 C 207.63,179.06 208.57,179.16 209.53,179.28 C 210.49,179.40 211.48,179.53 212.48,179.67 C 213.49,179.82 214.52,179.97 215.58,180.14 C 216.63,180.31 217.71,180.49 218.81,180.69 C 219.91,180.88 221.08,181.11 222.19,181.31 C 223.29,181.51 224.38,181.70 225.44,181.88 C 226.50,182.05 227.54,182.22 228.56,182.38 C 229.58,182.53 230.58,182.68 231.56,182.81 C 232.54,182.95 233.50,183.07 234.44,183.19 C 235.38,183.30 236.29,183.41 237.19,183.50 C 238.08,183.59 238.96,183.68 239.81,183.75 C 240.67,183.82 241.50,183.89 242.31,183.94 C 243.12,183.99 243.89,184.07 244.69,184.06 C 245.49,184.05 246.29,184.00 247.11,183.89 C 247.92,183.78 248.75,183.63 249.58,183.42 C 250.41,183.22 251.25,182.96 252.09,182.66 C 252.94,182.35 253.79,182.00 254.66,181.59 C 255.52,181.19 256.39,180.74 257.27,180.23 C 258.14,179.73 259.03,179.18 259.92,178.58 C 260.82,177.98 261.72,177.33 262.62,176.62 C 263.53,175.92 264.49,175.09 265.38,174.38 C 266.26,173.66 267.10,172.98 267.91,172.34 C 268.73,171.69 269.50,171.08 270.24,170.51 C 270.98,169.93 271.69,169.39 272.36,168.89 C 273.03,168.39 273.67,167.92 274.27,167.48 C 274.87,167.05 275.43,166.65 275.96,166.29 C 276.49,165.93 276.99,165.60 277.45,165.30 C 277.90,165.01 278.33,164.75 278.72,164.53 C 279.11,164.31 279.42,164.19 279.78,163.97 C 280.14,163.75 280.51,163.50 280.88,163.21 C 281.26,162.93 281.64,162.61 282.02,162.26 C 282.41,161.91 282.80,161.52 283.20,161.11 C 283.60,160.69 284.01,160.25 284.42,159.77 C 284.83,159.29 285.25,158.77 285.68,158.23 C 286.11,157.68 286.54,157.10 286.98,156.49 C 287.42,155.88 287.86,155.24 288.31,154.56 C 288.76,153.89 289.25,153.13 289.69,152.44 C 290.12,151.75 290.54,151.07 290.93,150.41 C 291.32,149.76 291.69,149.12 292.04,148.49 C 292.39,147.87 292.71,147.26 293.02,146.67 C 293.32,146.08 293.60,145.51 293.86,144.95 C 294.12,144.40 294.36,143.86 294.57,143.34 C 294.79,142.81 294.98,142.31 295.15,141.82 C 295.32,141.33 295.47,140.86 295.59,140.41 C 295.72,139.95 295.84,139.50 295.91,139.09 C 295.98,138.68 296.01,138.30 296.01,137.95 C 296.01,137.59 295.97,137.26 295.90,136.96 C 295.83,136.66 295.72,136.39 295.58,136.14 C 295.44,135.89 295.26,135.68 295.05,135.48 C 294.83,135.29 294.59,135.13 294.30,134.99 C 294.02,134.86 293.70,134.75 293.35,134.66 C 293.00,134.58 292.61,134.53 292.19,134.50 C 291.76,134.47 291.25,134.51 290.81,134.50 C 290.38,134.49 289.97,134.48 289.59,134.46 C 289.20,134.44 288.84,134.42 288.51,134.38 C 288.17,134.35 287.86,134.31 287.58,134.27 C 287.29,134.22 287.03,134.17 286.80,134.11 C 286.56,134.05 286.35,133.99 286.16,133.91 C 285.98,133.84 285.82,133.76 285.68,133.68 C 285.54,133.60 285.43,133.50 285.34,133.41 C 285.26,133.31 285.18,133.19 285.16,133.09 C 285.13,132.99 285.15,132.90 285.20,132.81 C 285.26,132.72 285.35,132.64 285.48,132.56 C 285.62,132.48 285.79,132.41 286.00,132.34 C 286.21,132.28 286.46,132.21 286.75,132.16 C 287.04,132.10 287.37,132.05 287.73,132.00 C 288.10,131.95 288.51,131.91 288.95,131.88 C 289.40,131.84 289.88,131.81 290.41,131.78 C 290.93,131.76 291.56,131.76 292.09,131.72 C 292.62,131.68 293.12,131.61 293.59,131.53 C 294.06,131.45 294.50,131.34 294.91,131.22 C 295.31,131.09 295.69,130.95 296.03,130.78 C 296.38,130.61 296.69,130.43 296.97,130.22 C 297.25,130.01 297.50,129.78 297.72,129.53 C 297.94,129.28 298.12,129.01 298.28,128.72 C 298.44,128.43 298.56,128.11 298.66,127.78 C 298.75,127.45 298.82,127.05 298.84,126.72 C 298.87,126.39 298.86,126.07 298.81,125.78 C 298.77,125.49 298.68,125.22 298.56,124.97 C 298.44,124.72 298.29,124.49 298.09,124.28 C 297.90,124.07 297.67,123.89 297.41,123.72 C 297.14,123.55 296.84,123.41 296.50,123.28 C 296.16,123.16 295.79,123.05 295.38,122.97 C 294.96,122.89 294.52,122.82 294.03,122.78 C 293.55,122.74 292.96,122.74 292.47,122.72 C 291.98,122.70 291.51,122.67 291.08,122.64 C 290.64,122.61 290.24,122.58 289.86,122.55 C 289.48,122.51 289.13,122.48 288.81,122.44 C 288.49,122.40 288.20,122.36 287.94,122.31 C 287.67,122.27 287.44,122.22 287.23,122.17 C 287.03,122.12 286.85,122.07 286.70,122.02 C 286.55,121.96 286.43,121.90 286.34,121.84 C 286.25,121.78 286.21,121.72 286.16,121.66 C 286.10,121.59 286.05,121.53 286.02,121.47 C 285.98,121.41 285.95,121.34 285.92,121.28 C 285.90,121.22 285.88,121.16 285.88,121.09 C 285.87,121.03 285.87,120.97 285.88,120.91 C 285.88,120.84 285.90,120.78 285.92,120.72 C 285.95,120.66 285.98,120.59 286.02,120.53 C 286.05,120.47 286.10,120.41 286.16,120.34 C 286.21,120.28 286.25,120.21 286.34,120.16 C 286.44,120.10 286.57,120.04 286.73,119.99 C 286.89,119.94 287.08,119.89 287.30,119.85 C 287.53,119.81 287.79,119.77 288.08,119.73 C 288.37,119.70 288.69,119.67 289.05,119.64 C 289.40,119.61 289.79,119.59 290.21,119.57 C 290.63,119.55 291.08,119.54 291.57,119.52 C 292.06,119.51 292.57,119.50 293.12,119.50 C 293.68,119.50 294.32,119.53 294.88,119.50 C 295.43,119.47 295.96,119.40 296.47,119.30 C 296.97,119.20 297.45,119.06 297.91,118.89 C 298.36,118.72 298.79,118.52 299.19,118.28 C 299.59,118.04 299.96,117.77 300.31,117.47 C 300.66,117.16 300.98,116.83 301.28,116.45 C 301.58,116.08 301.85,115.67 302.09,115.23 C 302.34,114.79 302.56,114.32 302.75,113.81 C 302.94,113.30 303.02,112.69 303.25,112.19 C 303.48,111.68 303.78,111.22 304.14,110.80 C 304.50,110.37 304.93,109.99 305.42,109.64 C 305.91,109.29 306.47,108.99 307.09,108.72 C 307.72,108.45 308.40,108.22 309.16,108.03 C 309.91,107.84 310.73,107.69 311.61,107.58 C 312.49,107.47 313.44,107.39 314.45,107.36 C 315.47,107.33 316.54,107.33 317.69,107.38 C 318.83,107.42 320.18,107.54 321.31,107.62 C 322.45,107.71 323.50,107.79 324.48,107.88 C 325.47,107.96 326.37,108.04 327.20,108.12 C 328.03,108.21 328.79,108.29 329.47,108.38 C 330.15,108.46 330.75,108.54 331.28,108.62 C 331.81,108.71 332.26,108.79 332.64,108.88 C 333.02,108.96 333.32,109.04 333.55,109.12 C 333.77,109.21 333.92,109.29 334.00,109.38 C 334.08,109.46 334.01,109.54 334.00,109.62 C 333.99,109.71 333.96,109.78 333.92,109.86 C 333.88,109.93 333.83,110.01 333.77,110.08 C 333.70,110.15 333.62,110.22 333.53,110.28 C 333.44,110.35 333.34,110.41 333.22,110.47 C 333.10,110.53 332.97,110.59 332.83,110.64 C 332.68,110.70 332.53,110.75 332.36,110.80 C 332.19,110.85 332.01,110.89 331.81,110.94 C 331.62,110.98 331.39,111.01 331.19,111.06 C 330.98,111.11 330.78,111.17 330.59,111.23 C 330.39,111.29 330.20,111.36 330.01,111.43 C 329.82,111.50 329.63,111.58 329.45,111.67 C 329.27,111.76 329.10,111.85 328.92,111.95 C 328.75,112.05 328.58,112.16 328.41,112.27 C 328.25,112.39 328.09,112.51 327.93,112.63 C 327.77,112.76 327.62,112.89 327.47,113.03 C 327.32,113.17 327.17,113.32 327.03,113.47 C 326.89,113.62 326.77,113.78 326.65,113.95 C 326.53,114.11 326.42,114.28 326.32,114.46 C 326.22,114.64 326.13,114.82 326.05,115.02 C 325.96,115.21 325.89,115.40 325.83,115.61 C 325.76,115.81 325.71,116.02 325.66,116.24 C 325.62,116.46 325.58,116.68 325.55,116.91 C 325.53,117.14 325.51,117.38 325.50,117.62 C 325.49,117.87 325.49,118.08 325.50,118.38 C 325.51,118.67 325.54,119.02 325.58,119.41 C 325.62,119.80 325.67,120.23 325.73,120.72 C 325.80,121.20 325.88,121.73 325.97,122.31 C 326.06,122.89 326.16,123.52 326.28,124.19 C 326.40,124.86 326.53,125.58 326.67,126.34 C 326.82,127.11 326.97,127.92 327.14,128.78 C 327.31,129.64 327.49,130.55 327.69,131.50 C 327.88,132.45 328.09,133.53 328.31,134.50 C 328.54,135.47 328.77,136.42 329.02,137.34 C 329.27,138.25 329.54,139.14 329.82,140.01 C 330.10,140.87 330.39,141.71 330.70,142.52 C 331.01,143.32 331.33,144.11 331.67,144.86 C 332.01,145.61 332.36,146.34 332.73,147.04 C 333.09,147.74 333.47,148.41 333.87,149.05 C 334.26,149.70 334.67,150.32 335.09,150.91 C 335.52,151.50 335.96,152.05 336.41,152.59 C 336.85,153.14 337.31,153.67 337.77,154.18 C 338.24,154.69 338.71,155.19 339.20,155.66 C 339.68,156.14 340.17,156.60 340.67,157.05 C 341.17,157.49 341.68,157.92 342.20,158.33 C 342.72,158.74 343.25,159.13 343.79,159.51 C 344.33,159.88 344.87,160.24 345.43,160.59 C 345.99,160.93 346.55,161.25 347.12,161.56 C 347.70,161.87 348.28,162.15 348.88,162.44 C 349.47,162.73 350.09,163.01 350.72,163.30 C 351.35,163.58 351.99,163.86 352.66,164.14 C 353.32,164.42 353.99,164.70 354.69,164.97 C 355.38,165.24 356.09,165.51 356.81,165.78 C 357.54,166.05 358.28,166.32 359.03,166.58 C 359.79,166.84 360.56,167.10 361.34,167.36 C 362.13,167.62 362.93,167.87 363.75,168.12 C 364.57,168.38 365.36,168.63 366.25,168.88 C 367.14,169.12 368.09,169.35 369.09,169.58 C 370.10,169.80 371.16,170.02 372.28,170.23 C 373.40,170.45 374.58,170.65 375.81,170.84 C 377.05,171.04 378.34,171.23 379.69,171.41 C 381.04,171.59 382.44,171.76 383.91,171.92 C 385.37,172.09 386.89,172.24 388.47,172.39 C 390.05,172.54 391.68,172.68 393.38,172.81 C 395.07,172.95 396.97,173.06 398.62,173.19 C 400.28,173.31 401.83,173.44 403.29,173.57 C 404.75,173.70 406.11,173.83 407.37,173.96 C 408.63,174.09 409.79,174.23 410.86,174.36 C 411.93,174.49 412.89,174.63 413.77,174.77 C 414.64,174.90 415.41,175.04 416.09,175.18 C 416.76,175.32 417.34,175.46 417.82,175.60 C 418.30,175.74 418.68,175.89 418.97,176.03 C 419.25,176.18 419.36,176.30 419.53,176.47 C 419.71,176.64 419.87,176.83 420.02,177.04 C 420.18,177.25 420.32,177.49 420.45,177.74 C 420.57,178.00 420.69,178.28 420.80,178.58 C 420.90,178.88 421.00,179.20 421.08,179.55 C 421.16,179.89 421.23,180.26 421.29,180.65 C 421.35,181.04 421.39,181.45 421.43,181.88 C 421.46,182.32 421.49,182.77 421.50,183.25 C 421.51,183.73 421.50,184.27 421.50,184.75 C 421.50,185.23 421.49,185.68 421.48,186.10 C 421.46,186.53 421.45,186.93 421.43,187.30 C 421.41,187.68 421.39,188.03 421.36,188.36 C 421.33,188.69 421.30,188.99 421.27,189.27 C 421.23,189.54 421.19,189.80 421.15,190.02 C 421.11,190.25 421.06,190.45 421.01,190.63 C 420.96,190.81 420.90,190.96 420.84,191.09 C 420.79,191.22 420.73,191.30 420.66,191.41 C 420.58,191.51 420.49,191.61 420.39,191.72 C 420.29,191.82 420.17,191.93 420.05,192.03 C 419.92,192.14 419.78,192.24 419.62,192.34 C 419.47,192.45 419.30,192.55 419.12,192.66 C 418.95,192.76 418.75,192.86 418.55,192.97 C 418.34,193.07 418.12,193.18 417.89,193.28 C 417.66,193.39 417.41,193.49 417.16,193.59 C 416.90,193.70 416.60,193.80 416.34,193.91 C 416.09,194.02 415.85,194.13 415.63,194.26 C 415.41,194.38 415.21,194.51 415.02,194.65 C 414.84,194.79 414.67,194.93 414.52,195.08 C 414.36,195.23 414.23,195.38 414.11,195.55 C 413.99,195.71 413.89,195.88 413.80,196.05 C 413.72,196.23 413.65,196.41 413.60,196.60 C 413.55,196.79 413.52,196.99 413.50,197.19 C 413.48,197.39 413.48,197.61 413.50,197.81 C 413.52,198.01 413.55,198.21 413.60,198.40 C 413.65,198.59 413.72,198.77 413.80,198.95 C 413.89,199.12 413.99,199.29 414.11,199.45 C 414.23,199.62 414.36,199.77 414.52,199.92 C 414.67,200.07 414.84,200.21 415.02,200.35 C 415.21,200.49 415.41,200.62 415.63,200.74 C 415.85,200.87 416.09,200.98 416.34,201.09 C 416.60,201.20 416.90,201.30 417.16,201.41 C 417.41,201.51 417.66,201.61 417.89,201.72 C 418.12,201.82 418.34,201.93 418.55,202.03 C 418.75,202.14 418.95,202.24 419.12,202.34 C 419.30,202.45 419.47,202.55 419.62,202.66 C 419.78,202.76 419.92,202.86 420.05,202.97 C 420.17,203.07 420.29,203.18 420.39,203.28 C 420.49,203.39 420.58,203.49 420.66,203.59 C 420.73,203.70 420.79,203.77 420.84,203.91 C 420.90,204.04 420.95,204.20 420.99,204.40 C 421.04,204.59 421.07,204.82 421.10,205.07 C 421.13,205.32 421.15,205.61 421.17,205.92 C 421.19,206.24 421.20,206.58 421.20,206.95 C 421.21,207.33 421.20,207.73 421.20,208.16 C 421.19,208.60 421.17,209.06 421.15,209.55 C 421.13,210.05 421.10,210.57 421.06,211.12 C 421.03,211.68 420.99,212.32 420.94,212.88 C 420.88,213.43 420.82,213.95 420.74,214.45 C 420.67,214.94 420.58,215.40 420.48,215.84 C 420.38,216.27 420.26,216.67 420.14,217.05 C 420.02,217.42 419.88,217.76 419.73,218.08 C 419.59,218.39 419.43,218.68 419.26,218.93 C 419.09,219.18 418.90,219.41 418.71,219.60 C 418.52,219.80 418.31,219.96 418.09,220.09 C 417.88,220.23 417.65,220.31 417.41,220.41 C 417.16,220.50 416.90,220.59 416.62,220.66 C 416.34,220.74 416.04,220.81 415.73,220.87 C 415.41,220.93 415.08,220.98 414.73,221.02 C 414.39,221.06 414.02,221.09 413.64,221.11 C 413.26,221.13 412.86,221.14 412.45,221.15 C 412.03,221.15 411.60,221.15 411.15,221.13 C 410.70,221.12 410.23,221.10 409.75,221.06 C 409.27,221.03 408.73,220.97 408.25,220.94 C 407.77,220.90 407.31,220.88 406.88,220.86 C 406.44,220.84 406.02,220.83 405.62,220.83 C 405.23,220.83 404.85,220.83 404.50,220.84 C 404.15,220.86 403.81,220.88 403.50,220.91 C 403.19,220.93 402.90,220.97 402.62,221.02 C 402.35,221.06 402.10,221.11 401.88,221.17 C 401.65,221.23 401.44,221.30 401.25,221.38 C 401.06,221.45 400.97,221.54 400.75,221.62 C 400.53,221.71 400.26,221.78 399.94,221.86 C 399.61,221.93 399.24,222.01 398.81,222.08 C 398.39,222.15 397.91,222.22 397.38,222.28 C 396.84,222.35 396.26,222.41 395.62,222.47 C 394.99,222.53 394.30,222.59 393.56,222.64 C 392.82,222.70 392.03,222.75 391.19,222.80 C 390.34,222.85 389.45,222.89 388.50,222.94 C 387.55,222.98 386.52,223.00 385.50,223.06 C 384.48,223.13 383.45,223.22 382.41,223.33 C 381.36,223.44 380.30,223.58 379.22,223.73 C 378.14,223.89 377.05,224.08 375.94,224.28 C 374.83,224.49 373.70,224.72 372.56,224.97 C 371.42,225.22 370.27,225.50 369.09,225.80 C 367.92,226.10 366.73,226.42 365.53,226.77 C 364.33,227.11 363.11,227.48 361.88,227.88 C 360.64,228.27 359.32,228.71 358.12,229.12 C 356.93,229.54 355.78,229.95 354.68,230.37 C 353.58,230.78 352.54,231.19 351.54,231.60 C 350.54,232.01 349.60,232.42 348.70,232.83 C 347.81,233.24 346.96,233.64 346.17,234.05 C 345.38,234.45 344.64,234.86 343.95,235.26 C 343.25,235.66 342.61,236.06 342.02,236.46 C 341.43,236.86 340.89,237.26 340.41,237.66 C 339.92,238.05 339.52,238.43 339.09,238.84 C 338.67,239.25 338.25,239.68 337.85,240.12 C 337.45,240.56 337.06,241.01 336.68,241.48 C 336.30,241.94 335.93,242.43 335.58,242.92 C 335.22,243.42 334.88,243.93 334.55,244.45 C 334.21,244.98 333.89,245.52 333.59,246.07 C 333.28,246.62 332.98,247.19 332.70,247.77 C 332.41,248.36 332.14,248.95 331.88,249.56 C 331.61,250.17 331.37,250.79 331.12,251.44 C 330.88,252.08 330.65,252.74 330.42,253.42 C 330.20,254.10 329.98,254.80 329.77,255.52 C 329.55,256.23 329.35,256.97 329.16,257.72 C 328.96,258.47 328.77,259.24 328.59,260.03 C 328.41,260.82 328.24,261.63 328.08,262.45 C 327.91,263.28 327.76,264.12 327.61,264.98 C 327.46,265.85 327.32,266.73 327.19,267.62 C 327.05,268.52 326.92,269.50 326.81,270.38 C 326.71,271.25 326.62,272.07 326.55,272.85 C 326.49,273.63 326.44,274.37 326.41,275.05 C 326.39,275.74 326.38,276.39 326.39,276.98 C 326.40,277.58 326.43,278.13 326.48,278.64 C 326.54,279.15 326.61,279.61 326.70,280.02 C 326.79,280.44 326.89,280.81 327.02,281.13 C 327.15,281.46 327.30,281.74 327.47,281.97 C 327.64,282.20 327.85,282.36 328.03,282.53 C 328.22,282.71 328.40,282.87 328.59,283.02 C 328.77,283.18 328.95,283.32 329.13,283.45 C 329.31,283.57 329.49,283.69 329.67,283.80 C 329.85,283.90 330.03,284.00 330.20,284.08 C 330.38,284.16 330.55,284.23 330.73,284.29 C 330.90,284.35 331.07,284.39 331.24,284.43 C 331.41,284.46 331.58,284.49 331.75,284.50 C 331.92,284.51 332.09,284.50 332.25,284.50 C 332.41,284.50 332.56,284.51 332.70,284.52 C 332.83,284.54 332.96,284.55 333.09,284.57 C 333.21,284.59 333.32,284.61 333.42,284.64 C 333.52,284.67 333.62,284.70 333.70,284.73 C 333.79,284.77 333.86,284.81 333.93,284.85 C 334.00,284.89 334.05,284.94 334.10,284.99 C 334.15,285.04 334.19,285.10 334.22,285.16 C 334.25,285.21 334.32,285.28 334.28,285.34 C 334.24,285.41 334.15,285.48 334.00,285.55 C 333.85,285.62 333.64,285.69 333.38,285.77 C 333.11,285.84 332.79,285.92 332.41,286.00 C 332.03,286.08 331.59,286.16 331.09,286.25 C 330.60,286.34 330.05,286.42 329.44,286.52 C 328.83,286.61 328.16,286.70 327.44,286.80 C 326.71,286.89 325.93,286.99 325.09,287.09 C 324.26,287.20 323.27,287.31 322.41,287.41 C 321.54,287.50 320.72,287.59 319.92,287.67 C 319.13,287.75 318.37,287.83 317.64,287.89 C 316.91,287.96 316.22,288.01 315.56,288.06 C 314.90,288.11 314.28,288.15 313.69,288.19 C 313.10,288.22 312.54,288.25 312.02,288.27 C 311.49,288.28 311.00,288.29 310.55,288.30 C 310.09,288.30 309.67,288.29 309.28,288.28 Z" fill="none" stroke="currentColor" stroke-width="1.5" stroke-linejoin="round" stroke-linecap="round" filter="url(#glow)" />
</svg>