<svg xmlns="http://www.w3.org/2000/svg" width="512" height="512" viewBox="151.86 196.20 205.94 123.60" preserveAspectRatio="xMidYMid meet">
  <defs>
    <filter id="glow" x="-30%" y="-30%" width="160%" height="160%">
      <feGaussianBlur in="SourceGraphic" stdDeviation="2.4" result="blur" />
      <feMerge>
        <feMergeNode in="blur" />
        <feMergeNode in="SourceGraphic" />
      </feMerge>
    </filter>
    <clipPath id="hull-clip">
      <path d="M 186.75,309.50 C 186.21,309.54 185.77,309.58 185.25,309.50 C 184.73,309.42 184.20,309.26 183.65,309.02 C 183.10,308.79 182.53,308.47 181.95,308.07 C 181.36,307.67 180.76,307.20 180.14,306.64 C 179.52,306.08 178.89,305.45 178.23,304.73 C 177.58,304.02 176.91,303.23 176.23,302.35 C 175.54,301.48 174.84,300.52 174.12,299.49 C 173.40,298.46 172.66,297.35 171.91,296.16 C 171.15,294.96 170.31,293.54 169.59,292.34 C 168.88,291.15 168.21,290.03 167.59,288.98 C 166.98,287.94 166.42,286.97 165.91,286.08 C 165.40,285.18 164.94,284.37 164.53,283.62 C 164.12,282.88 163.77,282.22 163.47,281.62 C 163.17,281.03 162.92,280.52 162.72,280.08 C 162.52,279.64 162.38,279.27 162.28,278.98 C 162.19,278.70 162.15,278.48 162.16,278.34 C 162.17,278.21 162.18,278.22 162.34,278.16 C 162.50,278.09 162.76,278.02 163.11,277.95 C 163.46,277.88 163.91,277.81 164.45,277.73 C 165.00,277.66 165.64,277.58 166.38,277.50 C 167.11,277.42 167.95,277.34 168.88,277.25 C 169.80,277.16 170.83,277.08 171.95,276.98 C 173.08,276.89 174.29,276.80 175.61,276.70 C 176.92,276.61 178.34,276.51 179.84,276.41 C 181.35,276.30 183.16,276.20 184.66,276.09 C 186.15,275.99 187.54,275.89 188.81,275.80 C 190.09,275.70 191.26,275.61 192.31,275.52 C 193.37,275.42 194.32,275.34 195.16,275.25 C 195.99,275.16 196.72,275.08 197.34,275.00 C 197.96,274.92 198.47,274.84 198.88,274.77 C 199.28,274.69 199.57,274.62 199.75,274.55 C 199.93,274.48 200.01,274.41 199.97,274.34 C 199.93,274.28 199.68,274.24 199.53,274.16 C 199.38,274.08 199.22,273.98 199.05,273.86 C 198.88,273.74 198.70,273.61 198.52,273.45 C 198.33,273.30 198.14,273.13 197.94,272.94 C 197.74,272.75 197.53,272.54 197.31,272.31 C 197.10,272.09 196.87,271.84 196.64,271.58 C 196.41,271.32 196.17,271.03 195.92,270.73 C 195.67,270.43 195.42,270.12 195.16,269.78 C 194.89,269.45 194.60,269.09 194.34,268.72 C 194.09,268.35 193.85,267.97 193.63,267.57 C 193.41,267.17 193.21,266.76 193.02,266.34 C 192.84,265.91 192.67,265.47 192.52,265.02 C 192.36,264.56 192.23,264.09 192.11,263.61 C 191.99,263.13 191.89,262.63 191.80,262.12 C 191.72,261.61 191.65,261.08 191.60,260.54 C 191.55,260.00 191.52,259.44 191.50,258.88 C 191.48,258.31 191.49,257.68 191.50,257.12 C 191.51,256.57 191.52,256.04 191.53,255.53 C 191.55,255.03 191.57,254.55 191.59,254.09 C 191.62,253.64 191.65,253.21 191.69,252.81 C 191.72,252.41 191.77,252.04 191.81,251.69 C 191.86,251.34 191.91,251.02 191.97,250.72 C 192.03,250.42 192.09,250.15 192.16,249.91 C 192.22,249.66 192.30,249.44 192.38,249.25 C 192.45,249.06 192.54,248.92 192.62,248.75 C 192.71,248.58 192.81,248.42 192.91,248.26 C 193.02,248.10 193.13,247.93 193.24,247.77 C 193.36,247.61 193.48,247.45 193.61,247.30 C 193.74,247.14 193.87,246.98 194.02,246.83 C 194.16,246.67 194.31,246.52 194.46,246.37 C 194.62,246.21 194.78,246.06 194.95,245.91 C 195.11,245.76 195.29,245.62 195.47,245.47 C 195.65,245.32 195.85,245.17 196.03,245.03 C 196.21,244.89 196.39,244.77 196.57,244.65 C 196.75,244.53 196.92,244.42 197.09,244.32 C 197.25,244.22 197.42,244.13 197.58,244.05 C 197.74,243.96 197.89,243.89 198.05,243.83 C 198.20,243.76 198.35,243.71 198.49,243.66 C 198.64,243.62 198.78,243.58 198.91,243.55 C 199.05,243.53 199.18,243.51 199.31,243.50 C 199.44,243.49 199.57,243.51 199.69,243.50 C 199.80,243.49 199.91,243.48 200.02,243.47 C 200.12,243.45 200.21,243.43 200.30,243.41 C 200.38,243.38 200.46,243.35 200.53,243.31 C 200.60,243.28 200.66,243.23 200.72,243.19 C 200.77,243.14 200.82,243.09 200.86,243.03 C 200.90,242.97 200.93,242.91 200.95,242.84 C 200.98,242.78 200.99,242.70 201.00,242.62 C 201.01,242.55 201.10,242.46 201.00,242.38 C 200.90,242.29 200.70,242.21 200.41,242.12 C 200.11,242.04 199.71,241.96 199.22,241.88 C 198.72,241.79 198.13,241.71 197.44,241.62 C 196.74,241.54 195.95,241.46 195.06,241.38 C 194.17,241.29 193.18,241.21 192.09,241.12 C 191.01,241.04 189.82,240.96 188.53,240.88 C 187.24,240.79 185.86,240.71 184.38,240.62 C 182.89,240.54 181.11,240.46 179.62,240.38 C 178.14,240.29 176.74,240.21 175.45,240.13 C 174.15,240.05 172.94,239.98 171.84,239.90 C 170.73,239.82 169.71,239.75 168.80,239.67 C 167.88,239.60 167.06,239.52 166.33,239.45 C 165.60,239.38 164.97,239.31 164.43,239.24 C 163.89,239.17 163.45,239.11 163.10,239.04 C 162.75,238.97 162.50,238.91 162.34,238.84 C 162.19,238.78 162.17,238.79 162.16,238.66 C 162.14,238.52 162.18,238.31 162.26,238.02 C 162.34,237.74 162.47,237.38 162.65,236.95 C 162.83,236.51 163.05,236.00 163.33,235.42 C 163.60,234.84 163.93,234.18 164.30,233.45 C 164.67,232.72 165.09,231.92 165.55,231.04 C 166.02,230.16 166.54,229.21 167.10,228.18 C 167.67,227.15 168.28,226.05 168.94,224.88 C 169.60,223.70 170.39,222.30 171.06,221.12 C 171.73,219.95 172.36,218.85 172.95,217.82 C 173.53,216.79 174.08,215.84 174.59,214.96 C 175.09,214.08 175.56,213.28 175.98,212.55 C 176.41,211.82 176.80,211.16 177.14,210.58 C 177.49,210.00 177.79,209.49 178.05,209.05 C 178.32,208.62 178.54,208.26 178.73,207.98 C 178.91,207.69 179.05,207.48 179.16,207.34 C 179.26,207.21 179.26,207.21 179.34,207.16 C 179.43,207.10 179.54,207.04 179.68,206.99 C 179.82,206.94 179.98,206.89 180.16,206.85 C 180.35,206.81 180.56,206.77 180.80,206.73 C 181.03,206.70 181.29,206.67 181.58,206.64 C 181.86,206.61 182.17,206.59 182.51,206.57 C 182.84,206.55 183.20,206.54 183.59,206.52 C 183.97,206.51 184.38,206.50 184.81,206.50 C 185.25,206.50 185.69,206.46 186.19,206.50 C 186.69,206.54 187.23,206.62 187.81,206.75 C 188.40,206.88 189.02,207.04 189.69,207.25 C 190.35,207.46 191.06,207.71 191.81,208.00 C 192.56,208.29 193.35,208.62 194.19,209.00 C 195.02,209.38 195.90,209.79 196.81,210.25 C 197.73,210.71 198.69,211.21 199.69,211.75 C 200.69,212.29 201.73,212.88 202.81,213.50 C 203.90,214.12 205.09,214.88 206.19,215.50 C 207.29,216.12 208.36,216.71 209.41,217.25 C 210.45,217.79 211.47,218.29 212.47,218.75 C 213.46,219.21 214.43,219.62 215.38,220.00 C 216.32,220.38 217.23,220.71 218.12,221.00 C 219.02,221.29 219.88,221.54 220.72,221.75 C 221.56,221.96 222.37,222.12 223.16,222.25 C 223.94,222.38 224.70,222.46 225.44,222.50 C 226.17,222.54 226.88,222.53 227.56,222.50 C 228.24,222.47 228.89,222.41 229.52,222.31 C 230.14,222.22 230.73,222.09 231.30,221.94 C 231.86,221.78 232.40,221.59 232.91,221.38 C 233.41,221.16 233.89,220.91 234.34,220.62 C 234.79,220.34 235.22,220.03 235.61,219.69 C 236.00,219.34 236.37,218.97 236.70,218.56 C 237.04,218.16 237.35,217.72 237.62,217.25 C 237.90,216.78 238.05,216.22 238.38,215.75 C 238.70,215.28 239.10,214.84 239.57,214.43 C 240.04,214.02 240.59,213.64 241.21,213.29 C 241.83,212.94 242.53,212.62 243.30,212.33 C 244.07,212.04 244.91,211.78 245.83,211.55 C 246.75,211.32 247.74,211.12 248.80,210.95 C 249.87,210.77 251.01,210.63 252.23,210.52 C 253.44,210.41 254.73,210.33 256.09,210.28 C 257.46,210.23 259.02,210.24 260.41,210.22 C 261.79,210.19 263.12,210.16 264.39,210.12 C 265.66,210.09 266.88,210.05 268.05,210.00 C 269.21,209.95 270.32,209.90 271.38,209.84 C 272.43,209.79 273.43,209.72 274.38,209.66 C 275.32,209.59 276.21,209.52 277.05,209.44 C 277.88,209.36 278.66,209.28 279.39,209.19 C 280.12,209.10 280.79,209.01 281.41,208.91 C 282.02,208.81 282.45,208.69 283.09,208.59 C 283.74,208.50 284.46,208.40 285.27,208.32 C 286.08,208.24 286.97,208.16 287.95,208.09 C 288.92,208.01 289.97,207.95 291.11,207.89 C 292.25,207.83 293.46,207.78 294.77,207.73 C 296.07,207.69 297.45,207.65 298.91,207.62 C 300.38,207.58 301.93,207.56 303.55,207.54 C 305.18,207.52 306.89,207.51 308.69,207.50 C 310.48,207.49 312.54,207.48 314.31,207.50 C 316.08,207.52 317.75,207.55 319.32,207.60 C 320.89,207.65 322.35,207.72 323.71,207.80 C 325.07,207.89 326.33,207.99 327.48,208.11 C 328.64,208.23 329.69,208.36 330.64,208.52 C 331.59,208.67 332.44,208.84 333.18,209.02 C 333.92,209.21 334.56,209.41 335.10,209.63 C 335.64,209.85 336.07,210.09 336.41,210.34 C 336.74,210.60 336.86,210.84 337.09,211.16 C 337.33,211.47 337.57,211.83 337.82,212.23 C 338.07,212.63 338.32,213.07 338.59,213.55 C 338.85,214.04 339.12,214.57 339.39,215.14 C 339.67,215.71 339.95,216.33 340.23,216.98 C 340.52,217.64 340.82,218.34 341.12,219.09 C 341.42,219.83 341.73,220.62 342.04,221.45 C 342.35,222.27 342.67,223.15 343.00,224.06 C 343.33,224.98 343.71,226.01 344.00,226.94 C 344.29,227.87 344.53,228.78 344.73,229.66 C 344.93,230.54 345.09,231.39 345.20,232.22 C 345.32,233.05 345.38,233.85 345.41,234.62 C 345.43,235.40 345.41,236.15 345.34,236.88 C 345.28,237.60 345.17,238.30 345.02,238.97 C 344.86,239.64 344.66,240.29 344.42,240.91 C 344.18,241.53 343.89,242.12 343.56,242.69 C 343.23,243.26 342.79,243.77 342.44,244.31 C 342.08,244.85 341.75,245.40 341.44,245.94 C 341.12,246.48 340.83,247.02 340.56,247.56 C 340.29,248.10 340.04,248.65 339.81,249.19 C 339.58,249.73 339.38,250.27 339.19,250.81 C 339.00,251.35 338.83,251.90 338.69,252.44 C 338.54,252.98 338.42,253.52 338.31,254.06 C 338.21,254.60 338.12,255.15 338.06,255.69 C 338.00,256.23 337.97,256.80 337.94,257.31 C 337.90,257.83 337.88,258.31 337.86,258.77 C 337.84,259.22 337.83,259.65 337.83,260.05 C 337.83,260.45 337.83,260.82 337.84,261.16 C 337.86,261.50 337.88,261.81 337.91,262.09 C 337.93,262.38 337.97,262.63 338.02,262.86 C 338.06,263.09 338.11,263.28 338.17,263.45 C 338.23,263.62 338.30,263.76 338.38,263.88 C 338.45,263.99 338.55,264.04 338.62,264.12 C 338.70,264.21 338.77,264.29 338.83,264.38 C 338.89,264.46 338.94,264.54 338.98,264.62 C 339.03,264.71 339.07,264.79 339.09,264.88 C 339.12,264.96 339.14,265.04 339.16,265.12 C 339.17,265.21 339.17,265.29 339.17,265.38 C 339.17,265.46 339.16,265.54 339.14,265.62 C 339.12,265.71 339.10,265.79 339.06,265.88 C 339.03,265.96 338.95,266.02 338.94,266.12 C 338.92,266.23 338.93,266.37 338.97,266.53 C 339.01,266.69 339.07,266.88 339.16,267.09 C 339.24,267.31 339.36,267.55 339.50,267.81 C 339.64,268.08 339.81,268.37 340.00,268.69 C 340.19,269.01 340.41,269.35 340.66,269.72 C 340.90,270.09 341.17,270.48 341.47,270.91 C 341.77,271.33 342.09,271.78 342.44,272.25 C 342.79,272.72 343.21,273.27 343.56,273.75 C 343.91,274.23 344.24,274.68 344.55,275.11 C 344.85,275.54 345.13,275.95 345.39,276.33 C 345.65,276.71 345.88,277.07 346.09,277.41 C 346.30,277.74 346.49,278.05 346.66,278.34 C 346.82,278.63 346.96,278.90 347.08,279.14 C 347.20,279.38 347.29,279.60 347.36,279.80 C 347.43,279.99 347.48,280.16 347.50,280.31 C 347.52,280.46 347.52,280.52 347.50,280.69 C 347.48,280.85 347.45,281.05 347.39,281.30 C 347.34,281.54 347.26,281.82 347.17,282.14 C 347.08,282.46 346.97,282.82 346.84,283.22 C 346.72,283.62 346.57,284.05 346.41,284.53 C 346.24,285.01 346.06,285.52 345.86,286.08 C 345.66,286.63 345.44,287.23 345.20,287.86 C 344.97,288.49 344.71,289.16 344.44,289.88 C 344.16,290.59 343.85,291.40 343.56,292.12 C 343.28,292.85 342.99,293.54 342.72,294.20 C 342.44,294.87 342.17,295.50 341.91,296.11 C 341.64,296.72 341.38,297.29 341.12,297.84 C 340.87,298.39 340.62,298.91 340.38,299.41 C 340.13,299.90 339.89,300.36 339.66,300.80 C 339.42,301.23 339.19,301.64 338.97,302.02 C 338.74,302.39 338.53,302.74 338.31,303.06 C 338.10,303.38 337.89,303.66 337.69,303.94 C 337.49,304.21 337.30,304.48 337.12,304.73 C 336.94,304.98 336.76,305.21 336.60,305.43 C 336.44,305.65 336.29,305.86 336.14,306.05 C 336.00,306.24 335.86,306.42 335.73,306.58 C 335.61,306.74 335.49,306.89 335.38,307.02 C 335.27,307.16 335.18,307.28 335.09,307.38 C 335.00,307.49 334.92,307.58 334.84,307.66 C 334.77,307.73 334.85,307.79 334.66,307.84 C 334.46,307.90 334.14,307.96 333.68,308.01 C 333.22,308.06 332.63,308.11 331.91,308.15 C 331.19,308.19 330.34,308.23 329.36,308.27 C 328.38,308.30 327.26,308.33 326.02,308.36 C 324.77,308.39 323.39,308.41 321.88,308.43 C 320.37,308.45 318.73,308.46 316.96,308.48 C 315.19,308.49 313.29,308.50 311.25,308.50 C 309.21,308.50 306.79,308.51 304.75,308.50 C 302.71,308.49 300.79,308.48 299.00,308.47 C 297.21,308.45 295.54,308.43 294.00,308.41 C 292.46,308.38 291.04,308.35 289.75,308.31 C 288.46,308.28 287.29,308.23 286.25,308.19 C 285.21,308.14 284.29,308.09 283.50,308.03 C 282.71,307.97 282.04,307.91 281.50,307.84 C 280.96,307.78 280.54,307.70 280.25,307.62 C 279.96,307.55 280.00,307.45 279.75,307.38 C 279.50,307.30 279.17,307.22 278.75,307.16 C 278.33,307.09 277.83,307.03 277.25,306.97 C 276.67,306.91 276.00,306.86 275.25,306.81 C 274.50,306.77 273.67,306.72 272.75,306.69 C 271.83,306.65 270.83,306.62 269.75,306.59 C 268.67,306.57 267.50,306.55 266.25,306.53 C 265.00,306.52 263.67,306.51 262.25,306.50 C 260.83,306.49 259.16,306.50 257.75,306.50 C 256.34,306.50 255.01,306.49 253.77,306.48 C 252.54,306.46 251.38,306.45 250.32,306.43 C 249.26,306.41 248.28,306.39 247.39,306.36 C 246.50,306.33 245.70,306.30 244.98,306.27 C 244.27,306.23 243.64,306.19 243.10,306.15 C 242.56,306.11 242.11,306.06 241.74,306.01 C 241.38,305.96 241.10,305.90 240.91,305.84 C 240.71,305.79 240.70,305.74 240.59,305.66 C 240.48,305.57 240.37,305.46 240.25,305.33 C 240.13,305.20 240.01,305.04 239.88,304.86 C 239.74,304.68 239.61,304.48 239.47,304.25 C 239.33,304.02 239.18,303.77 239.03,303.50 C 238.88,303.23 238.72,302.93 238.56,302.61 C 238.40,302.29 238.23,301.95 238.06,301.58 C 237.89,301.21 237.71,300.82 237.53,300.41 C 237.35,299.99 237.19,299.50 236.97,299.09 C 236.75,298.68 236.50,298.30 236.21,297.95 C 235.93,297.59 235.61,297.26 235.26,296.96 C 234.91,296.66 234.52,296.39 234.11,296.14 C 233.69,295.89 233.25,295.68 232.77,295.48 C 232.29,295.29 231.77,295.13 231.23,294.99 C 230.68,294.86 230.10,294.75 229.49,294.66 C 228.88,294.58 228.24,294.53 227.56,294.50 C 226.89,294.47 226.17,294.46 225.44,294.50 C 224.71,294.54 223.95,294.62 223.17,294.73 C 222.39,294.85 221.59,295.01 220.77,295.20 C 219.94,295.40 219.09,295.63 218.22,295.91 C 217.35,296.18 216.45,296.49 215.53,296.84 C 214.61,297.20 213.67,297.59 212.70,298.02 C 211.74,298.45 210.75,298.91 209.73,299.42 C 208.72,299.93 207.68,300.48 206.62,301.06 C 205.57,301.65 204.42,302.35 203.38,302.94 C 202.33,303.52 201.32,304.07 200.34,304.58 C 199.37,305.09 198.43,305.55 197.53,305.98 C 196.63,306.41 195.77,306.80 194.94,307.16 C 194.11,307.51 193.32,307.82 192.56,308.09 C 191.81,308.37 191.09,308.60 190.41,308.80 C 189.72,308.99 189.08,309.15 188.47,309.27 C 187.86,309.38 187.29,309.46 186.75,309.50 Z" />
    </clipPath>
  </defs>
  <path d="M 186.75,309.50 C 186.21,309.54 185.77,309.58 185.25,309.50 C 184.73,309.42 184.20,309.26 183.65,309.02 C 183.10,308.79 182.53,308.47 181.95,308.07 C 181.36,307.67 180.76,307.20 180.14,306.64 C 179.52,306.08 178.89,305.45 178.23,304.73 C 177.58,304.02 176.91,303.23 176.23,302.35 C 175.54,301.48 174.84,300.52 174.12,299.49 C 173.40,298.46 172.66,297.35 171.91,296.16 C 171.15,294.96 170.31,293.54 169.59,292.34 C 168.88,291.15 168.21,290.03 167.59,288.98 C 166.98,287.94 166.42,286.97 165.91,286.08 C 165.40,285.18 164.94,284.37 164.53,283.62 C 164.12,282.88 163.77,282.22 163.47,281.62 C 163.17,281.03 162.92,280.52 162.72,280.08 C 162.52,279.64 162.38,279.27 162.28,278.98 C 162.19,278.70 162.15,278.48 162.16,278.34 C 162.17,278.21 162.18,278.22 162.34,278.16 C 162.50,278.09 162.76,278.02 163.11,277.95 C 163.46,277.88 163.91,277.81 164.45,277.73 C 165.00,277.66 165.64,277.58 166.38,277.50 C 167.11,277.42 167.95,277.34 168.88,277.25 C 169.80,277.16 170.83,277.08 171.95,276.98 C 173.08,276.89 174.29,276.80 175.61,276.70 C 176.92,276.61 178.34,276.51 179.84,276.41 C 181.35,276.30 183.16,276.20 184.66,276.09 C 186.15,275.99 187.54,275.89 188.81,275.80 C 190.09,275.70 191.26,275.61 192.31,275.52 C 193.37,275.42 194.32,275.34 195.16,275.25 C 195.99,275.16 196.72,275.08 197.34,275.00 C 197.96,274.92 198.47,274.84 198.88,274.77 C 199.28,274.69 199.57,274.62 199.75,274.55 C 199.93,274.48 200.01,274.41 199.97,274.34 C 199.93,274.28 199.68,274.24 199.53,274.16 C 199.38,274.08 199.22,273.98 199.05,273.86 C 198.88,273.74 198.70,273.61 198.52,273.45 C 198.33,273.30 198.14,273.13 197.94,272.94 C 197.74,272.75 197.53,272.54 197.31,272.31 C 197.10,272.09 196.87,271.84 196.64,271.58 C 196.41,271.32 196.17,271.03 195.92,270.73 C 195.67,270.43 195.42,270.12 195.16,269.78 C 194.89,269.45 194.60,269.09 194.34,268.72 C 194.09,268.35 193.85,267.97 193.63,267.57 C 193.41,267.17 193.21,266.76 193.02,266.34 C 192.84,265.91 192.67,265.47 192.52,265.02 C 192.36,264.56 192.23,264.09 192.11,263.61 C 191.99,263.13 191.89,262.63 191.80,262.12 C 191.72,261.61 191.65,261.08 191.60,260.54 C 191.55,260.00 191.52,259.44 191.50,258.88 C 191.48,258.31 191.49,257.68 191.50,257.12 C 191.51,256.57 191.52,256.04 191.53,255.53 C 191.55,255.03 191.57,254.55 191.59,254.09 C 191.62,253.64 191.65,253.21 191.69,252.81 C 191.72,252.41 191.77,252.04 191.81,251.69 C 191.86,251.34 191.91,251.02 191.97,250.72 C 192.03,250.42 192.09,250.15 192.16,249.91 C 192.22,249.66 192.30,249.44 192.38,249.25 C 192.45,249.06 192.54,248.92 192.62,248.75 C 192.71,248.58 192.81,248.42 192.91,248.26 C 193.02,248.10 193.13,247.93 193.24,247.77 C 193.36,247.61 193.48,247.45 193.61,247.30 C 193.74,247.14 193.87,246.98 194.02,246.83 C 194.16,246.67 194.31,246.52 194.46,246.37 C 194.62,246.21 194.78,246.06 194.95,245.91 C 195.11,245.76 195.29,245.62 195.47,245.47 C 195.65,245.32 195.85,245.17 196.03,245.03 C 196.21,244.89 196.39,244.77 196.57,244.65 C 196.75,244.53 196.92,244.42 197.09,244.32 C 197.25,244.22 197.42,244.13 197.58,244.05 C 197.74,243.96 197.89,243.89 198.05,243.83 C 198.20,243.76 198.35,243.71 198.49,243.66 C 198.64,243.62 198.78,243.58 198.91,243.55 C 199.05,243.53 199.18,243.51 199.31,243.50 C 199.44,243.49 199.57,243.51 199.69,243.50 C 199.80,243.49 199.91,243.48 200.02,243.47 C 200.12,243.45 200.21,243.43 200.30,243.41 C 200.38,243.38 200.46,243.35 200.53,243.31 C 200.60,243.28 200.66,243.23 200.72,243.19 C 200.77,243.14 200.82,243.09 200.86,243.03 C 200.90,242.97 200.93,242.91 200.95,242.84 C 200.98,242.78 200.99,242.70 201.00,242.62 C 201.01,242.55 201.10,242.46 201.00,242.38 C 200.90,242.29 200.70,242.21 200.41,242.12 C 200.11,242.04 199.71,241.96 199.22,241.88 C 198.72,241.79 198.13,241.71 197.44,241.62 C 196.74,241.54 195.95,241.46 195.06,241.38 C 194.17,241.29 193.18,241.21 192.09,241.12 C 191.01,241.04 189.82,240.96 188.53,240.88 C 187.24,240.79 185.86,240.71 184.38,240.62 C 182.89,240.54 181.11,240.46 179.62,240.38 C 178.14,240.29 176.74,240.21 175.45,240.13 C 174.15,240.05 172.94,239.98 171.84,239.90 C 170.73,239.82 169.71,239.75 168.80,239.67 C 167.88,239.60 167.06,239.52 166.33,239.45 C 165.60,239.38 164.97,239.31 164.43,239.24 C 163.89,239.17 163.45,239.11 163.10,239.04 C 162.75,238.97 162.50,238.91 162.34,238.84 C 162.19,238.78 162.17,238.79 162.16,238.66 C 162.14,238.52 162.18,238.31 162.26,238.02 C 162.34,237.74 162.47,237.38 162.65,236.95 C 162.83,236.51 163.05,236.00 163.33,235.42 C 163.60,234.84 163.93,234.18 164.30,233.45 C 164.67,232.72 165.09,231.92 165.55,231.04 C 166.02,230.16 166.54,229.21 167.10,228.18 C 167.67,227.15 168.28,226.05 168.94,224.88 C 169.60,223.70 170.39,222.30 171.06,221.12 C 171.73,219.95 172.36,218.85 172.95,217.82 C 173.53,216.79 174.08,215.84 174.59,214.96 C 175.09,214.08 175.56,213.28 175.98,212.55 C 176.41,211.82 176.80,211.16 177.14,210.58 C 177.49,210.00 177.79,209.49 178.05,209.05 C 178.32,208.62 178.54,208.26 178.73,207.98 C 178.91,207.69 179.05,207.48 179.16,207.34 C 179.26,207.21 179.26,207.21 179.34,207.16 C 179.43,207.10 179.54,207.04 179.68,206.99 C 179.82,206.94 179.98,206.89 180.16,206.85 C 180.35,206.81 180.56,206.77 180.80,206.73 C 181.03,206.70 181.29,206.67 181.58,206.64 C 181.86,206.61 182.17,206.59 182.51,206.57 C 182.84,206.55 183.20,206.54 183.59,206.52 C 183.97,206.51 184.38,206.50 184.81,206.50 C 185.25,206.50 185.69,206.46 186.19,206.50 C 186.69,206.54 187.23,206.62 187.81,206.75 C 188.40,206.88 189.02,207.04 189.69,207.25 C 190.35,207.46 191.06,207.71 191.81,208.00 C 192.56,208.29 193.35,208.62 194.19,209.00 C 195.02,209.38 195.90,209.79 196.81,210.25 C 197.73,210.71 198.69,211.21 199.69,211.75 C 200.69,212.29 201.73,212.88 202.81,213.50 C 203.90,214.12 205.09,214.88 206.19,215.50 C 207.29,216.12 208.36,216.71 209.41,217.25 C 210.45,217.79 211.47,218.29 212.47,218.75 C 213.46,219.21 214.43,219.62 215.38,220.00 C 216.32,220.38 217.23,220.71 218.12,221.00 C 219.02,221.29 219.88,221.54 220.72,221.75 C 221.56,221.96 222.37,222.12 223.16,222.25 C 223.94,222.38 224.70,222.46 225.44,222.50 C 226.17,222.54 226.88,222.53 227.56,222.50 C 228.24,222.47 228.89,222.41 229.52,222.31 C 230.14,222.22 230.73,222.09 231.30,221.94 C 231.86,221.78 232.40,221.59 232.91,221.38 C 233.41,221.16 233.89,220.91 234.34,220.62 C 234.79,220.34 235.22,220.03 235.61,219.69 C 236.00,219.34 236.37,218.97 236.70,218.56 C 237.04,218.16 237.35,217.72 237.62,217.25 C 237.90,216.78 238.05,216.22 238.38,215.75 C 238.70,215.28 239.10,214.84 239.57,214.43 C 240.04,214.02 240.59,213.64 241.21,213.29 C 241.83,212.94 242.53,212.62 243.30,212.33 C 244.07,212.04 244.91,211.78 245.83,211.55 C 246.75,211.32 247.74,211.12 248.80,210.95 C 249.87,210.77 251.01,210.63 252.23,210.52 C 253.44,210.41 254.73,210.33 256.09,210.28 C 257.46,210.23 259.02,210.24 260.41,210.22 C 261.79,210.19 263.12,210.16 264.39,210.12 C 265.66,210.09 266.88,210.05 268.05,210.00 C 269.21,209.95 270.32,209.90 271.38,209.84 C 272.43,209.79 273.43,209.72 274.38,209.66 C 275.32,209.59 276.21,209.52 277.05,209.44 C 277.88,209.36 278.66,209.28 279.39,209.19 C 280.12,209.10 280.79,209.01 281.41,208.91 C 282.02,208.81 282.45,208.69 283.09,208.59 C 283.74,208.50 284.46,208.40 285.27,208.32 C 286.08,208.24 286.97,208.16 287.95,208.09 C 288.92,208.01 289.97,207.95 291.11,207.89 C 292.25,207.83 293.46,207.78 294.77,207.73 C 296.07,207.69 297.45,207.65 298.91,207.62 C 300.38,207.58 301.93,207.56 303.55,207.54 C 305.18,207.52 306.89,207.51 308.69,207.50 C 310.48,207.49 312.54,207.48 314.31,207.50 C 316.08,207.52 317.75,207.55 319.32,207.60 C 320.89,207.65 322.35,207.72 323.71,207.80 C 325.07,207.89 326.33,207.99 327.48,208.11 C 328.64,208.23 329.69,208.36 330.64,208.52 C 331.59,208.67 332.44,208.84 333.18,209.02 C 333.92,209.21 334.56,209.41 335.10,209.63 C 335.64,209.85 336.07,210.09 336.41,210.34 C 336.74,210.60 336.86,210.84 337.09,211.16 C 337.33,211.47 337.57,211.83 337.82,212.23 C 338.07,212.63 338.32,213.07 338.59,213.55 C 338.85,214.04 339.12,214.57 339.39,215.14 C 339.67,215.71 339.95,216.33 340.23,216.98 C 340.52,217.64 340.82,218.34 341.12,219.09 C 341.42,219.83 341.73,220.62 342.04,221.45 C 342.35,222.27 342.67,223.15 343.00,224.06 C 343.33,224.98 343.71,226.01 344.00,226.94 C 344.29,227.87 344.53,228.78 344.73,229.66 C 344.93,230.54 345.09,231.39 345.20,232.22 C 345.32,233.05 345.38,233.85 345.41,234.62 C 345.43,235.40 345.41,236.15 345.34,236.88 C 345.28,237.60 345.17,238.30 345.02,238.97 C 344.86,239.64 344.66,240.29 344.42,240.91 C 344.18,241.53 343.89,242.12 343.56,242.69 C 343.23,243.26 342.79,243.77 342.44,244.31 C 342.08,244.85 341.75,245.40 341.44,245.94 C 341.12,246.48 340.83,247.02 340.56,247.56 C 340.29,248.10 340.04,248.65 339.81,249.19 C 339.58,249.73 339.38,250.27 339.19,250.81 C 339.00,251.35 338.83,251.90 338.69,252.44 C 338.54,252.98 338.42,253.52 338.31,254.06 C 338.21,254.60 338.12,255.15 338.06,255.69 C 338.00,256.23 337.97,256.80 337.94,257.31 C 337.90,257.83 337.88,258.31 337.86,258.77 C 337.84,259.22 337.83,259.65 337.83,260.05 C 337.83,260.45 337.83,260.82 337.84,261.16 C 337.86,261.50 337.88,261.81 337.91,262.09 C 337.93,262.38 337.97,262.63 338.02,262.86 C 338.06,263.09 338.11,263.28 338.17,263.45 C 338.23,263.62 338.30,263.76 338.38,263.88 C 338.45,263.99 338.55,264.04 338.62,264.12 C 338.70,264.21 338.77,264.29 338.83,264.38 C 338.89,264.46 338.94,264.54 338.98,264.62 C 339.03,264.71 339.07,264.79 339.09,264.88 C 339.12,264.96 339.14,265.04 339.16,265.12 C 339.17,265.21 339.17,265.29 339.17,265.38 C 339.17,265.46 339.16,265.54 339.14,265.62 C 339.12,265.71 339.10,265.79 339.06,265.88 C 339.03,265.96 338.95,266.02 338.94,266.12 C 338.92,266.23 338.93,266.37 338.97,266.53 C 339.01,266.69 339.07,266.88 339.16,267.09 C 339.24,267.31 339.36,267.55 339.50,267.81 C 339.64,268.08 339.81,268.37 340.00,268.69 C 340.19,269.01 340.41,269.35 340.66,269.72 C 340.90,270.09 341.17,270.48 341.47,270.91 C 341.77,271.33 342.09,271.78 342.44,272.25 C 342.79,272.72 343.21,273.27 343.56,273.75 C 343.91,274.23 344.24,274.68 344.55,275.11 C 344.85,275.54 345.13,275.95 345.39,276.33 C 345.65,276.71 345.88,277.07 346.09,277.41 C 346.30,277.74 346.49,278.05 346.66,278.34 C 346.82,278.63 346.96,278.90 347.08,279.14 C 347.20,279.38 347.29,279.60 347.36,279.80 C 347.43,279.99 347.48,280.16 347.50,280.31 C 347.52,280.46 347.52,280.52 347.50,280.69 C 347.48,280.85 347.45,281.05 347.39,281.30 C 347.34,281.54 347.26,281.82 347.17,282.14 C 347.08,282.46 346.97,282.82 346.84,283.22 C 346.72,283.62 346.57,284.05 346.41,284.53 C 346.24,285.01 346.06,285.52 345.86,286.08 C 345.66,286.63 345.44,287.23 345.20,287.86 C 344.97,288.49 344.71,289.16 344.44,289.88 C 344.16,290.59 343.85,291.40 343.56,292.12 C 343.28,292.85 342.99,293.54 342.72,294.20 C 342.44,294.87 342.17,295.50 341.91,296.11 C 341.64,296.72 341.38,297.29 341.12,297.84 C 340.87,298.39 340.62,298.91 340.38,299.41 C 340.13,299.90 339.89,300.36 339.66,300.80 C 339.42,301.23 339.19,301.64 338.97,302.02 C 338.74,302.39 338.53,302.74 338.31,303.06 C 338.10,303.38 337.89,303.66 337.69,303.94 C 337.49,304.21 337.30,304.48 337.12,304.73 C 336.94,304.98 336.76,305.21 336.60,305.43 C 336.44,305.65 336.29,305.86 336.14,306.05 C 336.00,306.24 335.86,306.42 335.73,306.58 C 335.61,306.74 335.49,306.89 335.38,307.02 C 335.27,307.16 335.18,307.28 335.09,307.38 C 335.00,307.49 334.92,307.58 334.84,307.66 C 334.77,307.73 334.85,307.79 334.66,307.84 C 334.46,307.90 334.14,307.96 333.68,308.01 C 333.22,308.06 332.63,308.11 331.91,308.15 C 331.19,308.19 330.34,308.23 329.36,308.27 C 328.38,308.30 327.26,308.33 326.02,308.36 C 324.77,308.39 323.39,308.41 321.88,308.43 C 320.37,308.45 318.73,308.46 316.96,308.48 C 315.19,308.49 313.29,308.50 311.25,308.50 C 309.21,308.50 306.79,308.51 304.75,308.50 C 302.71,308.49 300.79,308.48 299.00,308.47 C 297.21,308.45 295.54,308.43 294.00,308.41 C 292.46,308.38 291.04,308.35 289.75,308.31 C 288.46,308.28 287.29,308.23 286.25,308.19 C 285.21,308.14 284.29,308.09 283.50,308.03 C 282.71,307.97 282.04,307.91 281.50,307.84 C 280.96,307.78 280.54,307.70 280.25,307.62 C 279.96,307.55 280.00,307.45 279.75,307.38 C 279.50,307.30 279.17,307.22 278.75,307.16 C 278.33,307.09 277.83,307.03 277.25,306.97 C 276.67,306.91 276.00,306.86 275.25,306.81 C 274.50,306.77 273.67,306.72 272.75,306.69 C 271.83,306.65 270.83,306.62 269.75,306.59 C 268.67,306.57 267.50,306.55 266.25,306.53 C 265.00,306.52 263.67,306.51 262.25,306.50 C 260.83,306.49 259.16,306.50 257.75,306.50 C 256.34,306.50 255.01,306.49 253.77,306.48 C 252.54,306.46 251.38,306.45 250.32,306.43 C 249.26,306.41 248.28,306.39 247.39,306.36 C 246.50,306.33 245.70,306.30 244.98,306.27 C 244.27,306.23 243.64,306.19 243.10,306.15 C 242.56,306.11 242.11,306.06 241.74,306.01 C 241.38,305.96 241.10,305.90 240.91,305.84 C 240.71,305.79 240.70,305.74 240.59,305.66 C 240.48,305.57 240.37,305.46 240.25,305.33 C 240.13,305.20 240.01,305.04 239.88,304.86 C 239.74,304.68 239.61,304.48 239.47,304.25 C 239.33,304.02 239.18,303.77 239.03,303.50 C 238.88,303.23 238.72,302.93 238.56,302.61 C 238.40,302.29 238.23,301.95 238.06,301.58 C 237.89,301.21 237.71,300.82 237.53,300.41 C 237.35,299.99 237.19,299.50 236.97,299.09 C 236.75,298.68 236.50,298.30 236.21,297.95 C 235.93,297.59 235.61,297.26 235.26,296.96 C 234.91,296.66 234.52,296.39 234.11,296.14 C 233.69,295.89 233.25,295.68 232.77,295.48 C 232.29,295.29 231.77,295.13 231.23,294.99 C 230.68,294.86 230.10,294.75 229.49,294.66 C 228.88,294.58 228.24,294.53 227.56,294.50 C 226.89,294.47 226.17,294.46 225.44,294.50 C 224.71,294.54 223.95,294.62 223.17,294.73 C 222.39,294.85 221.59,295.01 220.77,295.20 C 219.94,295.40 219.09,295.63 218.22,295.91 C 217.35,296.18 216.45,296.49 215.53,296.84 C 214.61,297.20 213.67,297.59 212.70,298.02 C 211.74,298.45 210.75,298.91 209.73,299.42 C 208.72,299.93 207.68,300.48 206.62,301.06 C 205.57,301.65 204.42,302.35 203.38,302.94 C 202.33,303.52 201.32,304.07 200.34,304.58 C 199.37,305.09 198.43,305.55 197.53,305.98 C 196.63,306.41 195.77,306.80 194.94,307.16 C 194.11,307.51 193.32,307.82 192.56,308.09 C 191.81,308.37 191.09,308.60 190.41,308.80 C 189.72,308.99 189.08,309.15 188.47,309.27 C 187.86,309.38 187.29,309.46 186.75,309.50 Z" stroke="none" fill="currentColor" opacity="0.11" />
  <path d="M315.15,242.45L315.15,242.47 M315.15,242.47L315.15,242.40 M315.15,275.28L315.15,275.26 M315.15,275.26L315.15,275.33 M233.46,288.53L221.12,288.33 M227.48,287.40L221.87,287.38 M227.48,287.40L221.93,286.94 M331.63,283.07L327.79,290.13 M295.66,263.80L295.64,268.50 M295.07,263.83L295.05,268.47 M295.37,263.81L295.35,268.49 M294.15,269.38L288.73,269.49 M294.20,269.97L288.77,270.08 M300.00,306.37L294.59,306.38 M299.97,306.12L294.57,306.12 M260.91,276.45L240.46,285.21 M233.49,274.35L258.08,267.29 M227.24,287.02L221.91,287.39 M267.18,261.79L248.99,267.41 M248.99,267.41L266.47,262.02 M279.38,269.92L279.38,263.89 M329.86,303.39L339.65,283.47 M210.59,288.12L199.11,287.93 M188.05,306.69L208.62,293.49 M277.10,270.47L268.69,274.19 M334.28,291.63L334.29,299.91 M233.47,229.20L221.12,229.41 M227.48,230.33L221.87,230.36 M227.48,230.33L221.93,230.79 M336.97,234.64L331.48,224.21 M331.65,234.71L327.81,227.64 M295.07,253.90L295.05,249.26 M295.66,253.93L295.64,249.23 M295.37,253.92L295.35,249.24 M294.15,248.35L288.73,248.24 M294.20,247.76L288.77,247.65 M300.00,211.36L294.59,211.36 M299.97,211.61L294.57,211.61 M260.91,241.28L240.46,232.52 M233.49,243.38L258.08,250.44 M227.24,230.72L221.91,230.34 M267.18,255.94L248.99,250.32 M248.99,250.32L266.47,255.71 M279.38,247.81L279.38,253.84 M329.86,214.34L339.65,234.26 M210.59,229.61L199.11,229.80 M188.05,211.04L208.62,224.24 M268.71,243.54L277.12,247.27 M334.28,226.11L334.29,217.83 M285.93,257.61L285.91,257.58 M293.00,257.61L293.01,257.58 M291.83,254.74L291.83,248.91 M285.93,260.12L285.91,260.16 M293.00,260.12L293.01,260.16 M293.03,257.61L293.04,257.58 M285.96,257.61L285.95,257.58 M287.13,254.74L287.13,248.91 M293.03,260.12L293.05,260.16 M285.96,260.12L285.95,260.16 M336.11,302.79L345.33,283.71 M344.50,278.48L338.18,270.25 M295.63,264.45L295.61,269.16 M295.33,264.47L295.31,269.14 M294.20,270.60L288.77,270.71 M288.72,270.12L294.15,270.01 M300.03,307.01L294.62,307.01 M260.91,277.11L240.46,285.87 M233.49,275.01L258.08,267.95 M267.18,262.45L248.99,268.08 M248.99,268.08L266.47,262.68 M279.38,270.58L279.38,264.55 M325.14,306.30L315.51,306.25 M329.86,304.06L339.65,284.14 M317.52,300.41L325.30,305.41 M295.57,299.65L295.57,298.27 M295.57,270.04L295.57,271.42 M268.71,274.85L277.12,271.12 M335.98,302.96L339.36,295.99 M345.25,283.83L339.85,294.97 M335.99,302.96L339.37,295.99 M336.11,214.94L345.33,234.02 M344.50,239.25L338.18,247.49 M295.33,253.26L295.31,248.60 M295.63,253.28L295.61,248.58 M294.20,247.13L288.77,247.02 M300.03,210.72L294.62,210.72 M260.91,240.62L240.46,231.86 M233.72,235.46L239.40,233.25 M267.18,255.28L261.20,253.44 M325.14,211.43L315.51,211.48 M295.57,218.07L295.57,219.45 M295.57,247.69L295.57,246.30 M277.10,246.60L268.69,242.87 M339.36,221.74L335.98,214.77 M339.86,222.77L345.25,233.91 M339.37,221.74L335.99,214.77 M286.56,275.71L295.20,275.71 M281.43,271.78L281.43,271.78 M280.83,271.44L280.83,271.44 M280.83,270.74L280.83,270.74 M281.43,270.40L281.43,270.40 M282.73,270.40L282.73,270.40 M284.02,270.40L284.02,270.40 M285.32,270.40L285.32,270.40 M286.62,270.40L286.62,270.40 M287.92,270.40L287.92,270.40 M289.21,270.40L289.21,270.40 M290.51,270.40L290.51,270.40 M291.81,270.40L291.81,270.40 M293.71,271.44L293.71,271.44 M293.71,270.74L293.71,270.74 M293.11,270.40L293.11,270.40 M282.73,271.78L282.73,271.78 M280.83,273.92L280.83,273.92 M281.43,273.57L281.43,273.57 M280.83,274.61L280.83,274.61 M281.43,274.95L281.43,274.95 M282.73,274.95L282.73,274.95 M284.02,274.95L284.02,274.95 M285.32,274.95L285.32,274.95 M286.62,274.95L286.62,274.95 M287.92,274.95L287.92,274.95 M289.21,274.95L289.21,274.95 M290.51,274.95L290.51,274.95 M291.81,274.95L291.81,274.95 M293.71,273.92L293.71,273.92 M293.71,274.61L293.71,274.61 M293.11,274.95L293.11,274.95 M282.73,273.57L282.73,273.57 M280.13,275.05L287.40,275.05 M280.13,275.05L292.98,275.05 M287.40,275.05L292.98,275.05 M280.13,270.31L287.40,270.31 M280.13,270.31L292.98,270.31 M287.40,270.31L292.98,270.31 M294.87,274.78L286.24,274.78 M284.48,281.48L296.02,281.88 M284.48,281.48L296.57,281.90 M304.63,279.69L304.63,273.08 M304.63,279.96L304.63,273.35 M305.16,280.10L305.16,273.49 M305.69,279.96L305.69,273.35 M305.69,279.69L305.69,273.07 M277.79,278.44L304.33,278.54 M296.24,278.57L304.33,278.54 M305.07,281.84L295.00,281.85 M250.46,281.55L255.32,281.55 M267.70,281.55L262.85,281.55 M263.85,278.89L259.03,279.42 M263.50,280.08L253.29,280.06 M263.42,279.54L254.79,279.54 M263.42,279.66L254.79,279.66 M251.67,269.91L251.68,279.76 M251.67,269.91L251.68,278.06 M250.46,236.19L255.32,236.19 M267.70,236.19L262.85,236.19 M259.08,235.20L264.09,234.59 M253.22,231.76L262.11,231.75 M256.66,237.38L256.66,244.45 M251.92,250.78L251.92,257.11 M265.59,237.14L265.59,242.69 M265.59,242.69L265.59,237.14 M265.80,250.78L265.80,257.11 M255.80,243.18L255.80,237.69 M261.97,243.18L261.97,237.69 M252.13,237.14L252.13,242.69 M252.13,237.14L252.13,242.69 M252.13,251.44L252.13,257.00 M252.13,251.44L252.13,257.00 M265.60,237.14L265.60,242.69 M265.60,242.69L265.60,237.14 M265.60,251.44L265.60,257.00 M265.60,257.00L265.60,251.44 M263.42,238.18L254.79,238.18 M263.42,238.06L254.79,238.06 M251.68,237.98L251.67,247.83 M251.67,247.83L251.68,239.68 M286.56,242.02L295.20,242.02 M300.46,245.95L300.46,245.95 M301.06,246.29L301.06,246.29 M301.06,246.99L301.06,246.99 M300.46,247.33L300.46,247.33 M299.16,247.33L299.16,247.33 M297.86,247.33L297.86,247.33 M296.57,247.33L296.57,247.33 M295.27,247.33L295.27,247.33 M293.97,247.33L293.97,247.33 M292.67,247.33L292.67,247.33 M291.38,247.33L291.38,247.33 M290.08,247.33L290.08,247.33 M288.18,246.29L288.18,246.29 M288.18,246.99L288.18,246.99 M288.78,247.33L288.78,247.33 M299.16,245.95L299.16,245.95 M301.06,243.82L301.06,243.82 M300.46,244.16L300.46,244.16 M301.06,243.12L301.06,243.12 M300.46,242.78L300.46,242.78 M299.16,242.78L299.16,242.78 M297.86,242.78L297.86,242.78 M296.57,242.78L296.57,242.78 M295.27,242.78L295.27,242.78 M293.97,242.78L293.97,242.78 M292.67,242.78L292.67,242.78 M291.38,242.78L291.38,242.78 M290.08,242.78L290.08,242.78 M288.18,243.82L288.18,243.82 M288.18,243.12L288.18,243.12 M288.78,242.78L288.78,242.78 M299.16,244.16L299.16,244.16 M301.76,242.68L294.49,242.68 M301.76,242.68L288.90,242.68 M294.49,242.68L288.90,242.68 M301.76,247.42L294.49,247.42 M301.76,247.42L288.90,247.42 M294.49,247.42L288.90,247.42 M294.87,242.96L286.24,242.96 M299.31,242.98L278.99,259.04 M284.48,236.25L296.02,235.87 M284.48,236.25L296.57,235.84 M304.63,238.06L304.63,244.67 M304.63,237.78L304.63,244.39 M305.16,237.64L305.16,244.25 M305.69,237.78L305.69,244.39 M305.69,238.06L305.69,244.67 M305.07,235.89L295.00,235.88 M213.27,258.87L213.27,252.54 M213.33,258.87L213.33,252.54 M213.47,258.87L213.47,252.54 M213.53,258.87L213.53,252.54 M213.27,265.19L213.27,258.87 M213.33,258.87L213.33,265.19 M213.47,258.87L213.47,265.19 M213.53,258.87L213.53,265.19 M229.29,252.76L224.81,252.76 M228.29,252.76L223.80,252.76 M228.05,253.10L223.56,253.10 M228.05,253.67L223.56,253.67 M228.29,254.01L223.80,254.01 M229.29,254.01L224.81,254.01 M224.81,264.97L229.29,264.97 M228.29,264.97L223.80,264.97 M228.05,264.63L223.56,264.63 M228.05,264.06L223.56,264.06 M228.29,263.72L223.80,263.72 M229.29,263.72L224.81,263.72 M220.34,253.08L226.60,253.08 M220.34,264.65L226.60,264.65 M237.57,250.12L237.60,263.41 M240.69,256.59L238.57,256.57 M240.64,261.17L239.07,261.19 M240.64,261.17L238.57,261.16 M240.62,264.16L239.18,264.19 M239.18,253.55L240.62,253.61 M240.03,264.18L239.15,264.09 M221.30,258.87L221.26,253.32 M221.38,253.53L221.44,258.87 M222.19,253.75L222.23,258.87 M222.28,253.78L222.33,258.87 M222.23,258.87L222.19,263.98 M221.44,258.87L221.38,264.20 M222.33,258.87L222.28,263.95 M221.13,253.46L221.18,258.87 M221.30,258.87L221.26,264.41 M221.18,258.87L221.13,264.27 M222.41,253.81L222.46,258.87 M222.41,263.93L222.46,258.87 M223.44,254.01L223.53,258.87 M223.44,263.72L223.53,258.87 M223.56,263.70L223.65,258.87 M223.56,254.03L223.65,258.87 M223.72,263.67L223.82,258.87 M223.72,254.06L223.82,258.87 M238.16,256.05L238.16,261.68 M237.71,261.68L237.71,256.05 M238.61,256.05L238.61,261.68 M237.52,261.68L237.52,256.05 M238.79,256.05L238.79,261.68 M233.39,258.00L247.40,258.06 M247.40,259.71L233.39,259.82 M235.91,258.01L249.84,258.07 M249.84,259.71L235.91,259.81 M337.47,269.04L337.33,269.24 M335.20,269.42L329.58,271.39 M322.72,263.81L322.72,254.47 M311.64,249.49L318.02,249.49 M313.46,250.78L319.84,250.78 M311.64,268.78L318.02,268.78 M313.46,267.50L319.84,267.50 M310.60,256.06L310.60,261.39 M322.76,255.84L322.76,262.43 M320.73,263.21L320.73,254.58 M317.07,269.67L311.38,270.35 M329.40,253.68L329.56,258.87 M329.40,254.38L329.56,258.87 M329.40,263.97L329.40,258.87 M335.06,258.87L335.05,249.68 M335.05,249.68L329.37,247.50 M335.06,258.87L335.05,268.06 M335.05,268.06L329.37,270.23 M337.90,253.28L337.90,264.46 M337.89,267.21L337.89,250.52 M337.33,248.49L337.47,248.68 M306.80,281.39L316.05,281.37 M316.08,236.34L306.84,236.36 M238.19,283.70L247.43,283.68 M247.48,234.03L238.23,234.06 M276.56,241.79L276.59,257.80 M305.14,275.94L305.12,259.93 M276.59,259.93L276.56,275.94 M311.62,244.87L303.64,242.74 M303.64,242.74L308.99,244.22 M311.62,272.86L303.64,274.99 M303.64,274.99L308.99,273.51 M238.30,250.08L244.04,250.08 M238.30,267.65L244.04,267.65 M303.22,276.86L297.76,276.90 M252.63,280.37L256.97,285.69 M327.25,258.87L327.31,252.31 M256.09,238.23L261.24,237.22 M246.60,237.47L242.07,238.62 M327.25,258.87L327.31,265.42 M256.09,279.50L261.24,280.51 M249.74,248.39L263.21,248.43 M249.74,269.34L263.21,269.30 M257.88,244.85L248.73,244.98 M257.91,244.17L248.68,244.30 M257.91,243.40L248.66,243.54 M257.89,242.99L248.68,243.13 M257.88,272.88L248.73,272.75 M257.91,273.56L248.68,273.43 M257.91,274.33L248.66,274.19 M257.89,274.74L248.68,274.60 M323.47,241.98L329.16,242.01 M323.47,275.75L329.16,275.72 M314.31,273.32L304.20,274.43 M314.31,273.32L306.07,274.22 M269.16,233.34L275.30,234.14 M275.30,283.59L269.16,284.39 M249.18,257.58L240.09,257.72 M240.09,260.01L249.18,260.15" stroke="currentColor" stroke-width="0.6" stroke-linecap="round" fill="none" opacity="0.55" clip-path="url(#hull-clip)" filter="url(#glow)" />
  <path d="M 186.75,309.50 C 186.21,309.54 185.77,309.58 185.25,309.50 C 184.73,309.42 184.20,309.26 183.65,309.02 C 183.10,308.79 182.53,308.47 181.95,308.07 C 181.36,307.67 180.76,307.20 180.14,306.64 C 179.52,306.08 178.89,305.45 178.23,304.73 C 177.58,304.02 176.91,303.23 176.23,302.35 C 175.54,301.48 174.84,300.52 174.12,299.49 C 173.40,298.46 172.66,297.35 171.91,296.16 C 171.15,294.96 170.31,293.54 169.59,292.34 C 168.88,291.15 168.21,290.03 167.59,288.98 C 166.98,287.94 166.42,286.97 165.91,286.08 C 165.40,285.18 164.94,284.37 164.53,283.62 C 164.12,282.88 163.77,282.22 163.47,281.62 C 163.17,281.03 162.92,280.52 162.72,280.08 C 162.52,279.64 162.38,279.27 162.28,278.98 C 162.19,278.70 162.15,278.48 162.16,278.34 C 162.17,278.21 162.18,278.22 162.34,278.16 C 162.50,278.09 162.76,278.02 163.11,277.95 C 163.46,277.88 163.91,277.81 164.45,277.73 C 165.00,277.66 165.64,277.58 166.38,277.50 C 167.11,277.42 167.95,277.34 168.88,277.25 C 169.80,277.16 170.83,277.08 171.95,276.98 C 173.08,276.89 174.29,276.80 175.61,276.70 C 176.92,276.61 178.34,276.51 179.84,276.41 C 181.35,276.30 183.16,276.20 184.66,276.09 C 186.15,275.99 187.54,275.89 188.81,275.80 C 190.09,275.70 191.26,275.61 192.31,275.52 C 193.37,275.42 194.32,275.34 195.16,275.25 C 195.99,275.16 196.72,275.08 197.34,275.00 C 197.96,274.92 198.47,274.84 198.88,274.77 C 199.28,274.69 199.57,274.62 199.75,274.55 C 199.93,274.48 200.01,274.41 199.97,274.34 C 199.93,274.28 199.68,274.24 199.53,274.16 C 199.38,274.08 199.22,273.98 199.05,273.86 C 198.88,273.74 198.70,273.61 198.52,273.45 C 198.33,273.30 198.14,273.13 197.94,272.94 C 197.74,272.75 197.53,272.54 197.31,272.31 C 197.10,272.09 196.87,271.84 196.64,271.58 C 196.41,271.32 196.17,271.03 195.92,270.73 C 195.67,270.43 195.42,270.12 195.16,269.78 C 194.89,269.45 194.60,269.09 194.34,268.72 C 194.09,268.35 193.85,267.97 193.63,267.57 C 193.41,267.17 193.21,266.76 193.02,266.34 C 192.84,265.91 192.67,265.47 192.52,265.02 C 192.36,264.56 192.23,264.09 192.11,263.61 C 191.99,263.13 191.89,262.63 191.80,262.12 C 191.72,261.61 191.65,261.08 191.60,260.54 C 191.55,260.00 191.52,259.44 191.50,258.88 C 191.48,258.31 191.49,257.68 191.50,257.12 C 191.51,256.57 191.52,256.04 191.53,255.53 C 191.55,255.03 191.57,254.55 191.59,254.09 C 191.62,253.64 191.65,253.21 191.69,252.81 C 191.72,252.41 191.77,252.04 191.81,251.69 C 191.86,251.34 191.91,251.02 191.97,250.72 C 192.03,250.42 192.09,250.15 192.16,249.91 C 192.22,249.66 192.30,249.44 192.38,249.25 C 192.45,249.06 192.54,248.92 192.62,248.75 C 192.71,248.58 192.81,248.42 192.91,248.26 C 193.02,248.10 193.13,247.93 193.24,247.77 C 193.36,247.61 193.48,247.45 193.61,247.30 C 193.74,247.14 193.87,246.98 194.02,246.83 C 194.16,246.67 194.31,246.52 194.46,246.37 C 194.62,246.21 194.78,246.06 194.95,245.91 C 195.11,245.76 195.29,245.62 195.47,245.47 C 195.65,245.32 195.85,245.17 196.03,245.03 C 196.21,244.89 196.39,244.77 196.57,244.65 C 196.75,244.53 196.92,244.42 197.09,244.32 C 197.25,244.22 197.42,244.13 197.58,244.05 C 197.74,243.96 197.89,243.89 198.05,243.83 C 198.20,243.76 198.35,243.71 198.49,243.66 C 198.64,243.62 198.78,243.58 198.91,243.55 C 199.05,243.53 199.18,243.51 199.31,243.50 C 199.44,243.49 199.57,243.51 199.69,243.50 C 199.80,243.49 199.91,243.48 200.02,243.47 C 200.12,243.45 200.21,243.43 200.30,243.41 C 200.38,243.38 200.46,243.35 200.53,243.31 C 200.60,243.28 200.66,243.23 200.72,243.19 C 200.77,243.14 200.82,243.09 200.86,243.03 C 200.90,242.97 200.93,242.91 200.95,242.84 C 200.98,242.78 200.99,242.70 201.00,242.62 C 201.01,242.55 201.10,242.46 201.00,242.38 C 200.90,242.29 200.70,242.21 200.41,242.12 C 200.11,242.04 199.71,241.96 199.22,241.88 C 198.72,241.79 198.13,241.71 197.44,241.62 C 196.74,241.54 195.95,241.46 195.06,241.38 C 194.17,241.29 193.18,241.21 192.09,241.12 C 191.01,241.04 189.82,240.96 188.53,240.88 C 187.24,240.79 185.86,240.71 184.38,240.62 C 182.89,240.54 181.11,240.46 179.62,240.38 C 178.14,240.29 176.74,240.21 175.45,240.13 C 174.15,240.05 172.94,239.98 171.84,239.90 C 170.73,239.82 169.71,239.75 168.80,239.67 C 167.88,239.60 167.06,239.52 166.33,239.45 C 165.60,239.38 164.97,239.31 164.43,239.24 C 163.89,239.17 163.45,239.11 163.10,239.04 C 162.75,238.97 162.50,238.91 162.34,238.84 C 162.19,238.78 162.17,238.79 162.16,238.66 C 162.14,238.52 162.18,238.31 162.26,238.02 C 162.34,237.74 162.47,237.38 162.65,236.95 C 162.83,236.51 163.05,236.00 163.33,235.42 C 163.60,234.84 163.93,234.18 164.30,233.45 C 164.67,232.72 165.09,231.92 165.55,231.04 C 166.02,230.16 166.54,229.21 167.10,228.18 C 167.67,227.15 168.28,226.05 168.94,224.88 C 169.60,223.70 170.39,222.30 171.06,221.12 C 171.73,219.95 172.36,218.85 172.95,217.82 C 173.53,216.79 174.08,215.84 174.59,214.96 C 175.09,214.08 175.56,213.28 175.98,212.55 C 176.41,211.82 176.80,211.16 177.14,210.58 C 177.49,210.00 177.79,209.49 178.05,209.05 C 178.32,208.62 178.54,208.26 178.73,207.98 C 178.91,207.69 179.05,207.48 179.16,207.34 C 179.26,207.21 179.26,207.21 179.34,207.16 C 179.43,207.10 179.54,207.04 179.68,206.99 C 179.82,206.94 179.98,206.89 180.16,206.85 C 180.35,206.81 180.56,206.77 180.80,206.73 C 181.03,206.70 181.29,206.67 181.58,206.64 C 181.86,206.61 182.17,206.59 182.51,206.57 C 182.84,206.55 183.20,206.54 183.59,206.52 C 183.97,206.51 184.38,206.50 184.81,206.50 C 185.25,206.50 185.69,206.46 186.19,206.50 C 186.69,206.54 187.23,206.62 187.81,206.75 C 188.40,206.88 189.02,207.04 189.69,207.25 C 190.35,207.46 191.06,207.71 191.81,208.00 C 192.56,208.29 193.35,208.62 194.19,209.00 C 195.02,209.38 195.90,209.79 196.81,210.25 C 197.73,210.71 198.69,211.21 199.69,211.75 C 200.69,212.29 201.73,212.88 202.81,213.50 C 203.90,214.12 205.09,214.88 206.19,215.50 C 207.29,216.12 208.36,216.71 209.41,217.25 C 210.45,217.79 211.47,218.29 212.47,218.75 C 213.46,219.21 214.43,219.62 215.38,220.00 C 216.32,220.38 217.23,220.71 218.12,221.00 C 219.02,221.29 219.88,221.54 220.72,221.75 C 221.56,221.96 222.37,222.12 223.16,222.25 C 223.94,222.38 224.70,222.46 225.44,222.50 C 226.17,222.54 226.88,222.53 227.56,222.50 C 228.24,222.47 228.89,222.41 229.52,222.31 C 230.14,222.22 230.73,222.09 231.30,221.94 C 231.86,221.78 232.40,221.59 232.91,221.38 C 233.41,221.16 233.89,220.91 234.34,220.62 C 234.79,220.34 235.22,220.03 235.61,219.69 C 236.00,219.34 236.37,218.97 236.70,218.56 C 237.04,218.16 237.35,217.72 237.62,217.25 C 237.90,216.78 238.05,216.22 238.38,215.75 C 238.70,215.28 239.10,214.84 239.57,214.43 C 240.04,214.02 240.59,213.64 241.21,213.29 C 241.83,212.94 242.53,212.62 243.30,212.33 C 244.07,212.04 244.91,211.78 245.83,211.55 C 246.75,211.32 247.74,211.12 248.80,210.95 C 249.87,210.77 251.01,210.63 252.23,210.52 C 253.44,210.41 254.73,210.33 256.09,210.28 C 257.46,210.23 259.02,210.24 260.41,210.22 C 261.79,210.19 263.12,210.16 264.39,210.12 C 265.66,210.09 266.88,210.05 268.05,210.00 C 269.21,209.95 270.32,209.90 271.38,209.84 C 272.43,209.79 273.43,209.72 274.38,209.66 C 275.32,209.59 276.21,209.52 277.05,209.44 C 277.88,209.36 278.66,209.28 279.39,209.19 C 280.12,209.10 280.79,209.01 281.41,208.91 C 282.02,208.81 282.45,208.69 283.09,208.59 C 283.74,208.50 284.46,208.40 285.27,208.32 C 286.08,208.24 286.97,208.16 287.95,208.09 C 288.92,208.01 289.97,207.95 291.11,207.89 C 292.25,207.83 293.46,207.78 294.77,207.73 C 296.07,207.69 297.45,207.65 298.91,207.62 C 300.38,207.58 301.93,207.56 303.55,207.54 C 305.18,207.52 306.89,207.51 308.69,207.50 C 310.48,207.49 312.54,207.48 314.31,207.50 C 316.08,207.52 317.75,207.55 319.32,207.60 C 320.89,207.65 322.35,207.72 323.71,207.80 C 325.07,207.89 326.33,207.99 327.48,208.11 C 328.64,208.23 329.69,208.36 330.64,208.52 C 331.59,208.67 332.44,208.84 333.18,209.02 C 333.92,209.21 334.56,209.41 335.10,209.63 C 335.64,209.85 336.07,210.09 336.41,210.34 C 336.74,210.60 336.86,210.84 337.09,211.16 C 337.33,211.47 337.57,211.83 337.82,212.23 C 338.07,212.63 338.32,213.07 338.59,213.55 C 338.85,214.04 339.12,214.57 339.39,215.14 C 339.67,215.71 339.95,216.33 340.23,216.98 C 340.52,217.64 340.82,218.34 341.12,219.09 C 341.42,219.83 341.73,220.62 342.04,221.45 C 342.35,222.27 342.67,223.15 343.00,224.06 C 343.33,224.98 343.71,226.01 344.00,226.94 C 344.29,227.87 344.53,228.78 344.73,229.66 C 344.93,230.54 345.09,231.39 345.20,232.22 C 345.32,233.05 345.38,233.85 345.41,234.62 C 345.43,235.40 345.41,236.15 345.34,236.88 C 345.28,237.60 345.17,238.30 345.02,238.97 C 344.86,239.64 344.66,240.29 344.42,240.91 C 344.18,241.53 343.89,242.12 343.56,242.69 C 343.23,243.26 342.79,243.77 342.44,244.31 C 342.08,244.85 341.75,245.40 341.44,245.94 C 341.12,246.48 340.83,247.02 340.56,247.56 C 340.29,248.10 340.04,248.65 339.81,249.19 C 339.58,249.73 339.38,250.27 339.19,250.81 C 339.00,251.35 338.83,251.90 338.69,252.44 C 338.54,252.98 338.42,253.52 338.31,254.06 C 338.21,254.60 338.12,255.15 338.06,255.69 C 338.00,256.23 337.97,256.80 337.94,257.31 C 337.90,257.83 337.88,258.31 337.86,258.77 C 337.84,259.22 337.83,259.65 337.83,260.05 C 337.83,260.45 337.83,260.82 337.84,261.16 C 337.86,261.50 337.88,261.81 337.91,262.09 C 337.93,262.38 337.97,262.63 338.02,262.86 C 338.06,263.09 338.11,263.28 338.17,263.45 C 338.23,263.62 338.30,263.76 338.38,263.88 C 338.45,263.99 338.55,264.04 338.62,264.12 C 338.70,264.21 338.77,264.29 338.83,264.38 C 338.89,264.46 338.94,264.54 338.98,264.62 C 339.03,264.71 339.07,264.79 339.09,264.88 C 339.12,264.96 339.14,265.04 339.16,265.12 C 339.17,265.21 339.17,265.29 339.17,265.38 C 339.17,265.46 339.16,265.54 339.14,265.62 C 339.12,265.71 339.10,265.79 339.06,265.88 C 339.03,265.96 338.95,266.02 338.94,266.12 C 338.92,266.23 338.93,266.37 338.97,266.53 C 339.01,266.69 339.07,266.88 339.16,267.09 C 339.24,267.31 339.36,267.55 339.50,267.81 C 339.64,268.08 339.81,268.37 340.00,268.69 C 340.19,269.01 340.41,269.35 340.66,269.72 C 340.90,270.09 341.17,270.48 341.47,270.91 C 341.77,271.33 342.09,271.78 342.44,272.25 C 342.79,272.72 343.21,273.27 343.56,273.75 C 343.91,274.23 344.24,274.68 344.55,275.11 C 344.85,275.54 345.13,275.95 345.39,276.33 C 345.65,276.71 345.88,277.07 346.09,277.41 C 346.30,277.74 346.49,278.05 346.66,278.34 C 346.82,278.63 346.96,278.90 347.08,279.14 C 347.20,279.38 347.29,279.60 347.36,279.80 C 347.43,279.99 347.48,280.16 347.50,280.31 C 347.52,280.46 347.52,280.52 347.50,280.69 C 347.48,280.85 347.45,281.05 347.39,281.30 C 347.34,281.54 347.26,281.82 347.17,282.14 C 347.08,282.46 346.97,282.82 346.84,283.22 C 346.72,283.62 346.57,284.05 346.41,284.53 C 346.24,285.01 346.06,285.52 345.86,286.08 C 345.66,286.63 345.44,287.23 345.20,287.86 C 344.97,288.49 344.71,289.16 344.44,289.88 C 344.16,290.59 343.85,291.40 343.56,292.12 C 343.28,292.85 342.99,293.54 342.72,294.20 C 342.44,294.87 342.17,295.50 341.91,296.11 C 341.64,296.72 341.38,297.29 341.12,297.84 C 340.87,298.39 340.62,298.91 340.38,299.41 C 340.13,299.90 339.89,300.36 339.66,300.80 C 339.42,301.23 339.19,301.64 338.97,302.02 C 338.74,302.39 338.53,302.74 338.31,303.06 C 338.10,303.38 337.89,303.66 337.69,303.94 C 337.49,304.21 337.30,304.48 337.12,304.73 C 336.94,304.98 336.76,305.21 336.60,305.43 C 336.44,305.65 336.29,305.86 336.14,306.05 C 336.00,306.24 335.86,306.42 335.73,306.58 C 335.61,306.74 335.49,306.89 335.38,307.02 C 335.27,307.16 335.18,307.28 335.09,307.38 C 335.00,307.49 334.92,307.58 334.84,307.66 C 334.77,307.73 334.85,307.79 334.66,307.84 C 334.46,307.90 334.14,307.96 333.68,308.01 C 333.22,308.06 332.63,308.11 331.91,308.15 C 331.19,308.19 330.34,308.23 329.36,308.27 C 328.38,308.30 327.26,308.33 326.02,308.36 C 324.77,308.39 323.39,308.41 321.88,308.43 C 320.37,308.45 318.73,308.46 316.96,308.48 C 315.19,308.49 313.29,308.50 311.25,308.50 C 309.21,308.50 306.79,308.51 304.75,308.50 C 302.71,308.49 300.79,308.48 299.00,308.47 C 297.21,308.45 295.54,308.43 294.00,308.41 C 292.46,308.38 291.04,308.35 289.75,308.31 C 288.46,308.28 287.29,308.23 286.25,308.19 C 285.21,308.14 284.29,308.09 283.50,308.03 C 282.71,307.97 282.04,307.91 281.50,307.84 C 280.96,307.78 280.54,307.70 280.25,307.62 C 279.96,307.55 280.00,307.45 279.75,307.38 C 279.50,307.30 279.17,307.22 278.75,307.16 C 278.33,307.09 277.83,307.03 277.25,306.97 C 276.67,306.91 276.00,306.86 275.25,306.81 C 274.50,306.77 273.67,306.72 272.75,306.69 C 271.83,306.65 270.83,306.62 269.75,306.59 C 268.67,306.57 267.50,306.55 266.25,306.53 C 265.00,306.52 263.67,306.51 262.25,306.50 C 260.83,306.49 259.16,306.50 257.75,306.50 C 256.34,306.50 255.01,306.49 253.77,306.48 C 252.54,306.46 251.38,306.45 250.32,306.43 C 249.26,306.41 248.28,306.39 247.39,306.36 C 246.50,306.33 245.70,306.30 244.98,306.27 C 244.27,306.23 243.64,306.19 243.10,306.15 C 242.56,306.11 242.11,306.06 241.74,306.01 C 241.38,305.96 241.10,305.90 240.91,305.84 C 240.71,305.79 240.70,305.74 240.59,305.66 C 240.48,305.57 240.37,305.46 240.25,305.33 C 240.13,305.20 240.01,305.04 239.88,304.86 C 239.74,304.68 239.61,304.48 239.47,304.25 C 239.33,304.02 239.18,303.77 239.03,303.50 C 238.88,303.23 238.72,302.93 238.56,302.61 C 238.40,302.29 238.23,301.95 238.06,301.58 C 237.89,301.21 237.71,300.82 237.53,300.41 C 237.35,299.99 237.19,299.50 236.97,299.09 C 236.75,298.68 236.50,298.30 236.21,297.95 C 235.93,297.59 235.61,297.26 235.26,296.96 C 234.91,296.66 234.52,296.39 234.11,296.14 C 233.69,295.89 233.25,295.68 232.77,295.48 C 232.29,295.29 231.77,295.13 231.23,294.99 C 230.68,294.86 230.10,294.75 229.49,294.66 C 228.88,294.58 228.24,294.53 227.56,294.50 C 226.89,294.47 226.17,294.46 225.44,294.50 C 224.71,294.54 223.95,294.62 223.17,294.73 C 222.39,294.85 221.59,295.01 220.77,295.20 C 219.94,295.40 219.09,295.63 218.22,295.91 C 217.35,296.18 216.45,296.49 215.53,296.84 C 214.61,297.20 213.67,297.59 212.70,298.02 C 211.74,298.45 210.75,298.91 209.73,299.42 C 208.72,299.93 207.68,300.48 206.62,301.06 C 205.57,301.65 204.42,302.35 203.38,302.94 C 202.33,303.52 201.32,304.07 200.34,304.58 C 199.37,305.09 198.43,305.55 197.53,305.98 C 196.63,306.41 195.77,306.80 194.94,307.16 C 194.11,307.51 193.32,307.82 192.56,308.09 C 191.81,308.37 191.09,308.60 190.41,308.80 C 189.72,308.99 189.08,309.15 188.47,309.27 C 187.86,309.38 187.29,309.46 186.75,309.50 Z" fill="none" stroke="currentColor" stroke-width="1.5" stroke-linejoin="round" stroke-linecap="round" filter="url(#glow)" />
</svg>