<svg xmlns="http://www.w3.org/2000/svg" width="512" height="512" viewBox="140.14 168.86 261.21 190.27" preserveAspectRatio="xMidYMid meet">
  <defs>
    <filter id="glow" x="-30%" y="-30%" width="160%" height="160%">
      <feGaussianBlur in="SourceGraphic" stdDeviation="2.4" result="blur" />
      <feMerge>
        <feMergeNode in="blur" />
        <feMergeNode in="SourceGraphic" />
      </feMerge>
    </filter>
    <clipPath id="hull-clip">
      <path d="M 352.59,343.28 C 352.33,343.31 352.13,343.35 351.91,343.22 C 351.69,343.09 351.48,342.85 351.27,342.51 C 351.07,342.16 350.88,341.71 350.70,341.15 C 350.51,340.59 350.34,339.92 350.17,339.14 C 350.01,338.36 349.85,337.48 349.70,336.48 C 349.56,335.49 349.42,334.39 349.29,333.18 C 349.16,331.97 349.04,330.65 348.93,329.23 C 348.82,327.80 348.72,326.27 348.62,324.62 C 348.53,322.98 348.47,321.04 348.38,319.38 C 348.28,317.71 348.17,316.14 348.04,314.65 C 347.91,313.16 347.77,311.76 347.62,310.45 C 347.46,309.13 347.29,307.90 347.11,306.77 C 346.93,305.63 346.73,304.57 346.52,303.61 C 346.30,302.64 346.08,301.77 345.84,300.98 C 345.60,300.19 345.34,299.48 345.07,298.87 C 344.80,298.25 344.52,297.72 344.22,297.28 C 343.92,296.84 343.58,296.55 343.28,296.22 C 342.98,295.89 342.69,295.58 342.41,295.29 C 342.14,295.00 341.87,294.74 341.62,294.49 C 341.36,294.25 341.12,294.03 340.89,293.83 C 340.66,293.63 340.44,293.45 340.23,293.30 C 340.03,293.14 339.83,293.01 339.65,292.90 C 339.46,292.79 339.29,292.70 339.13,292.63 C 338.97,292.57 338.82,292.52 338.69,292.50 C 338.55,292.48 338.46,292.48 338.31,292.50 C 338.17,292.52 338.01,292.55 337.83,292.59 C 337.65,292.64 337.45,292.70 337.23,292.78 C 337.02,292.86 336.78,292.95 336.53,293.06 C 336.28,293.17 336.01,293.30 335.72,293.44 C 335.43,293.58 335.12,293.73 334.80,293.91 C 334.47,294.08 334.13,294.27 333.77,294.47 C 333.40,294.67 333.02,294.89 332.62,295.12 C 332.23,295.36 331.79,295.64 331.38,295.88 C 330.96,296.11 330.53,296.34 330.11,296.55 C 329.68,296.76 329.26,296.96 328.83,297.14 C 328.40,297.33 327.97,297.50 327.53,297.66 C 327.10,297.82 326.66,297.96 326.22,298.09 C 325.78,298.23 325.34,298.35 324.89,298.45 C 324.45,298.56 324.00,298.65 323.55,298.73 C 323.10,298.82 322.64,298.88 322.19,298.94 C 321.73,298.99 321.25,299.02 320.81,299.06 C 320.38,299.11 319.97,299.15 319.58,299.20 C 319.19,299.25 318.83,299.30 318.48,299.36 C 318.14,299.41 317.83,299.47 317.53,299.53 C 317.24,299.59 316.97,299.65 316.72,299.72 C 316.47,299.78 316.25,299.85 316.05,299.92 C 315.85,299.99 315.67,300.07 315.52,300.14 C 315.36,300.22 315.23,300.29 315.12,300.38 C 315.02,300.46 315.09,300.56 314.88,300.62 C 314.66,300.69 314.30,300.74 313.81,300.78 C 313.32,300.82 312.70,300.84 311.94,300.84 C 311.18,300.85 310.28,300.84 309.25,300.81 C 308.22,300.79 307.05,300.74 305.75,300.69 C 304.45,300.63 303.01,300.56 301.44,300.47 C 299.86,300.38 298.16,300.28 296.31,300.16 C 294.47,300.04 292.49,299.90 290.38,299.75 C 288.26,299.60 285.76,299.39 283.62,299.25 C 281.49,299.11 279.48,299.00 277.59,298.92 C 275.70,298.84 273.93,298.79 272.28,298.77 C 270.63,298.74 269.10,298.75 267.69,298.78 C 266.28,298.82 264.98,298.88 263.81,298.97 C 262.64,299.06 261.59,299.18 260.66,299.33 C 259.72,299.48 258.91,299.65 258.22,299.86 C 257.53,300.07 256.95,300.30 256.50,300.56 C 256.05,300.83 255.82,301.16 255.50,301.44 C 255.18,301.71 254.87,301.97 254.58,302.20 C 254.28,302.44 254.00,302.66 253.73,302.86 C 253.47,303.06 253.21,303.24 252.97,303.41 C 252.73,303.57 252.50,303.72 252.28,303.84 C 252.07,303.97 251.86,304.08 251.67,304.17 C 251.48,304.26 251.30,304.34 251.14,304.39 C 250.98,304.45 250.83,304.48 250.69,304.50 C 250.55,304.52 250.44,304.51 250.31,304.50 C 250.18,304.49 250.04,304.48 249.90,304.46 C 249.75,304.44 249.60,304.42 249.45,304.38 C 249.29,304.35 249.12,304.31 248.95,304.27 C 248.78,304.22 248.61,304.17 248.42,304.11 C 248.24,304.05 248.05,303.99 247.85,303.91 C 247.65,303.84 247.45,303.76 247.24,303.68 C 247.03,303.60 246.82,303.50 246.59,303.41 C 246.37,303.31 246.11,303.20 245.91,303.09 C 245.70,302.98 245.51,302.87 245.35,302.74 C 245.19,302.62 245.05,302.49 244.93,302.35 C 244.81,302.21 244.71,302.07 244.64,301.92 C 244.57,301.77 244.51,301.62 244.48,301.45 C 244.45,301.29 244.45,301.12 244.46,300.95 C 244.48,300.77 244.51,300.59 244.57,300.40 C 244.63,300.21 244.71,300.01 244.81,299.81 C 244.92,299.61 245.08,299.39 245.19,299.19 C 245.30,298.98 245.39,298.77 245.48,298.57 C 245.56,298.37 245.63,298.16 245.68,297.96 C 245.73,297.76 245.77,297.56 245.80,297.36 C 245.82,297.16 245.83,296.96 245.83,296.77 C 245.82,296.57 245.81,296.37 245.77,296.18 C 245.74,295.99 245.69,295.79 245.63,295.60 C 245.57,295.41 245.50,295.22 245.41,295.03 C 245.32,294.84 245.22,294.66 245.09,294.47 C 244.96,294.28 244.81,294.09 244.63,293.90 C 244.45,293.71 244.25,293.51 244.02,293.32 C 243.80,293.13 243.54,292.93 243.27,292.73 C 242.99,292.54 242.69,292.34 242.36,292.14 C 242.03,291.94 241.68,291.74 241.30,291.54 C 240.93,291.34 240.53,291.13 240.10,290.93 C 239.68,290.73 239.23,290.52 238.75,290.31 C 238.27,290.11 237.75,289.87 237.25,289.69 C 236.75,289.51 236.24,289.35 235.73,289.22 C 235.23,289.09 234.72,288.98 234.20,288.91 C 233.69,288.83 233.17,288.78 232.66,288.75 C 232.14,288.72 231.62,288.72 231.09,288.75 C 230.57,288.78 230.04,288.83 229.52,288.91 C 228.99,288.98 228.46,289.09 227.92,289.22 C 227.39,289.35 226.85,289.51 226.31,289.69 C 225.77,289.87 225.22,290.12 224.69,290.31 C 224.15,290.51 223.62,290.69 223.09,290.86 C 222.57,291.03 222.05,291.18 221.53,291.33 C 221.02,291.47 220.51,291.60 220.00,291.72 C 219.49,291.84 218.99,291.94 218.50,292.03 C 218.01,292.12 217.52,292.20 217.03,292.27 C 216.55,292.33 216.07,292.38 215.59,292.42 C 215.12,292.46 214.65,292.49 214.19,292.50 C 213.72,292.51 213.24,292.53 212.81,292.50 C 212.39,292.47 211.99,292.41 211.63,292.32 C 211.27,292.23 210.94,292.11 210.65,291.96 C 210.35,291.81 210.09,291.63 209.86,291.42 C 209.63,291.21 209.43,290.97 209.27,290.70 C 209.10,290.43 208.97,290.13 208.87,289.80 C 208.77,289.48 208.70,289.12 208.66,288.73 C 208.63,288.34 208.63,287.92 208.66,287.47 C 208.69,287.02 208.79,286.49 208.84,286.03 C 208.90,285.58 208.94,285.14 208.97,284.73 C 209.00,284.33 209.02,283.94 209.03,283.58 C 209.04,283.22 209.04,282.88 209.03,282.56 C 209.02,282.25 209.00,281.96 208.97,281.69 C 208.94,281.42 208.90,281.17 208.84,280.95 C 208.79,280.73 208.73,280.53 208.66,280.36 C 208.58,280.18 208.50,280.03 208.41,279.91 C 208.31,279.78 208.23,279.70 208.09,279.59 C 207.96,279.49 207.80,279.39 207.60,279.29 C 207.41,279.19 207.18,279.09 206.93,278.99 C 206.68,278.89 206.39,278.80 206.08,278.70 C 205.76,278.61 205.42,278.51 205.05,278.42 C 204.67,278.33 204.27,278.24 203.84,278.15 C 203.40,278.06 202.94,277.97 202.45,277.88 C 201.95,277.80 201.43,277.71 200.88,277.62 C 200.32,277.54 199.70,277.42 199.12,277.38 C 198.55,277.33 197.97,277.31 197.41,277.33 C 196.84,277.35 196.28,277.40 195.72,277.48 C 195.16,277.57 194.61,277.69 194.06,277.84 C 193.52,278.00 192.97,278.18 192.44,278.41 C 191.90,278.63 191.37,278.88 190.84,279.17 C 190.32,279.46 189.80,279.78 189.28,280.14 C 188.77,280.50 188.26,280.89 187.75,281.31 C 187.24,281.74 186.73,282.26 186.25,282.69 C 185.77,283.12 185.31,283.52 184.88,283.89 C 184.44,284.26 184.02,284.61 183.62,284.92 C 183.23,285.24 182.85,285.52 182.50,285.78 C 182.15,286.04 181.81,286.27 181.50,286.47 C 181.19,286.67 180.90,286.84 180.62,286.98 C 180.35,287.13 180.10,287.24 179.88,287.33 C 179.65,287.41 179.44,287.47 179.25,287.50 C 179.06,287.53 178.92,287.49 178.75,287.50 C 178.58,287.51 178.42,287.52 178.26,287.54 C 178.10,287.56 177.93,287.58 177.77,287.62 C 177.61,287.65 177.45,287.69 177.30,287.73 C 177.14,287.78 176.98,287.83 176.83,287.89 C 176.67,287.95 176.52,288.01 176.37,288.09 C 176.21,288.16 176.06,288.24 175.91,288.32 C 175.76,288.40 175.62,288.50 175.47,288.59 C 175.32,288.69 175.17,288.80 175.03,288.91 C 174.89,289.01 174.75,289.13 174.62,289.24 C 174.48,289.36 174.35,289.48 174.23,289.60 C 174.10,289.73 173.98,289.85 173.86,289.98 C 173.74,290.12 173.63,290.25 173.52,290.39 C 173.40,290.53 173.30,290.67 173.20,290.82 C 173.09,290.97 172.99,291.12 172.90,291.27 C 172.80,291.43 172.71,291.59 172.62,291.75 C 172.54,291.91 172.44,292.07 172.38,292.25 C 172.31,292.43 172.25,292.61 172.21,292.80 C 172.17,293.00 172.14,293.20 172.13,293.41 C 172.12,293.63 172.12,293.85 172.14,294.08 C 172.16,294.31 172.19,294.55 172.23,294.80 C 172.28,295.05 172.34,295.30 172.41,295.57 C 172.49,295.84 172.58,296.11 172.68,296.40 C 172.78,296.68 172.90,296.98 173.03,297.28 C 173.16,297.58 173.36,297.93 173.47,298.22 C 173.58,298.51 173.65,298.79 173.68,299.04 C 173.71,299.29 173.71,299.53 173.66,299.74 C 173.62,299.96 173.54,300.15 173.42,300.33 C 173.30,300.50 173.15,300.66 172.95,300.80 C 172.76,300.93 172.53,301.05 172.26,301.15 C 171.99,301.25 171.68,301.32 171.34,301.38 C 170.99,301.44 170.61,301.48 170.19,301.50 C 169.77,301.52 169.25,301.52 168.81,301.50 C 168.37,301.48 167.95,301.43 167.54,301.35 C 167.13,301.28 166.74,301.18 166.37,301.05 C 165.99,300.93 165.64,300.78 165.30,300.61 C 164.96,300.44 164.63,300.24 164.33,300.02 C 164.02,299.79 163.73,299.55 163.46,299.27 C 163.19,299.00 162.93,298.70 162.70,298.38 C 162.46,298.06 162.24,297.71 162.03,297.34 C 161.83,296.97 161.64,296.58 161.47,296.16 C 161.30,295.73 161.14,295.27 160.99,294.79 C 160.85,294.30 160.72,293.79 160.60,293.24 C 160.49,292.70 160.38,292.12 160.30,291.52 C 160.21,290.91 160.14,290.27 160.08,289.61 C 160.02,288.94 159.98,288.25 159.95,287.52 C 159.92,286.80 159.90,286.04 159.90,285.26 C 159.90,284.47 159.91,283.66 159.94,282.81 C 159.96,281.97 160.04,281.03 160.06,280.19 C 160.09,279.35 160.09,278.55 160.08,277.78 C 160.07,277.02 160.03,276.29 159.98,275.59 C 159.93,274.90 159.87,274.24 159.78,273.62 C 159.70,273.01 159.59,272.42 159.47,271.88 C 159.35,271.33 159.21,270.82 159.05,270.34 C 158.89,269.87 158.71,269.43 158.52,269.03 C 158.32,268.63 158.11,268.27 157.88,267.94 C 157.64,267.61 157.34,267.35 157.12,267.06 C 156.91,266.77 156.72,266.48 156.56,266.19 C 156.41,265.90 156.28,265.60 156.19,265.31 C 156.09,265.02 156.03,264.73 156.00,264.44 C 155.97,264.15 155.97,263.85 156.00,263.56 C 156.03,263.27 156.09,262.98 156.19,262.69 C 156.28,262.40 156.41,262.10 156.56,261.81 C 156.72,261.52 156.91,261.23 157.12,260.94 C 157.34,260.65 157.64,260.39 157.88,260.06 C 158.11,259.73 158.32,259.37 158.52,258.97 C 158.71,258.57 158.89,258.13 159.05,257.66 C 159.21,257.18 159.35,256.67 159.47,256.12 C 159.59,255.58 159.70,254.99 159.78,254.38 C 159.87,253.76 159.93,253.10 159.98,252.41 C 160.03,251.71 160.07,250.98 160.08,250.22 C 160.09,249.45 160.09,248.65 160.06,247.81 C 160.04,246.97 159.97,246.03 159.94,245.19 C 159.91,244.35 159.89,243.54 159.88,242.77 C 159.86,241.99 159.86,241.25 159.88,240.55 C 159.89,239.84 159.91,239.17 159.94,238.53 C 159.97,237.89 160.01,237.29 160.06,236.72 C 160.11,236.15 160.18,235.61 160.25,235.11 C 160.32,234.61 160.41,234.14 160.50,233.70 C 160.59,233.27 160.70,232.87 160.81,232.50 C 160.93,232.13 161.07,231.82 161.19,231.50 C 161.31,231.18 161.43,230.88 161.54,230.60 C 161.65,230.32 161.76,230.05 161.87,229.80 C 161.97,229.56 162.07,229.32 162.17,229.11 C 162.27,228.89 162.36,228.70 162.45,228.52 C 162.54,228.33 162.63,228.17 162.71,228.02 C 162.79,227.88 162.87,227.75 162.95,227.63 C 163.02,227.52 163.09,227.42 163.16,227.34 C 163.22,227.26 163.26,227.21 163.34,227.16 C 163.43,227.10 163.54,227.04 163.68,226.99 C 163.82,226.94 163.98,226.89 164.16,226.85 C 164.35,226.81 164.56,226.77 164.80,226.73 C 165.03,226.70 165.29,226.67 165.58,226.64 C 165.86,226.61 166.17,226.59 166.51,226.57 C 166.84,226.55 167.20,226.54 167.59,226.52 C 167.97,226.51 168.38,226.50 168.81,226.50 C 169.25,226.50 169.77,226.48 170.19,226.50 C 170.61,226.52 170.99,226.56 171.34,226.62 C 171.68,226.68 171.99,226.75 172.26,226.85 C 172.53,226.95 172.76,227.07 172.95,227.20 C 173.15,227.34 173.30,227.50 173.42,227.67 C 173.54,227.85 173.62,228.04 173.66,228.26 C 173.71,228.47 173.71,228.71 173.68,228.96 C 173.65,229.21 173.58,229.49 173.47,229.78 C 173.36,230.07 173.16,230.42 173.03,230.72 C 172.90,231.02 172.78,231.32 172.68,231.60 C 172.58,231.89 172.49,232.16 172.41,232.43 C 172.34,232.70 172.28,232.95 172.23,233.20 C 172.19,233.45 172.16,233.69 172.14,233.92 C 172.12,234.15 172.12,234.37 172.13,234.59 C 172.14,234.80 172.17,235.00 172.21,235.20 C 172.25,235.39 172.31,235.57 172.38,235.75 C 172.44,235.93 172.54,236.09 172.62,236.25 C 172.71,236.41 172.80,236.57 172.90,236.73 C 172.99,236.88 173.09,237.03 173.20,237.18 C 173.30,237.33 173.40,237.47 173.52,237.61 C 173.63,237.75 173.74,237.88 173.86,238.02 C 173.98,238.15 174.10,238.27 174.23,238.40 C 174.35,238.52 174.48,238.64 174.62,238.76 C 174.75,238.87 174.89,238.99 175.03,239.09 C 175.17,239.20 175.32,239.31 175.47,239.41 C 175.62,239.50 175.76,239.60 175.91,239.68 C 176.06,239.76 176.21,239.84 176.37,239.91 C 176.52,239.99 176.67,240.05 176.83,240.11 C 176.98,240.17 177.14,240.22 177.30,240.27 C 177.45,240.31 177.61,240.35 177.77,240.38 C 177.93,240.42 178.10,240.44 178.26,240.46 C 178.42,240.48 178.58,240.49 178.75,240.50 C 178.92,240.51 179.06,240.47 179.25,240.50 C 179.44,240.53 179.65,240.59 179.88,240.67 C 180.10,240.76 180.35,240.87 180.62,241.02 C 180.90,241.16 181.19,241.33 181.50,241.53 C 181.81,241.73 182.15,241.96 182.50,242.22 C 182.85,242.48 183.23,242.76 183.62,243.08 C 184.02,243.39 184.44,243.74 184.88,244.11 C 185.31,244.48 185.77,244.88 186.25,245.31 C 186.73,245.74 187.24,246.26 187.75,246.69 C 188.26,247.11 188.77,247.50 189.28,247.86 C 189.80,248.22 190.32,248.54 190.84,248.83 C 191.37,249.12 191.90,249.37 192.44,249.59 C 192.97,249.82 193.52,250.00 194.06,250.16 C 194.61,250.31 195.16,250.43 195.72,250.52 C 196.28,250.60 196.84,250.65 197.41,250.67 C 197.97,250.69 198.55,250.67 199.12,250.62 C 199.70,250.58 200.32,250.46 200.88,250.38 C 201.43,250.29 201.95,250.20 202.45,250.12 C 202.94,250.03 203.40,249.94 203.84,249.85 C 204.27,249.76 204.67,249.67 205.05,249.58 C 205.42,249.49 205.76,249.39 206.08,249.30 C 206.39,249.20 206.68,249.11 206.93,249.01 C 207.18,248.91 207.41,248.81 207.60,248.71 C 207.80,248.61 207.96,248.51 208.09,248.41 C 208.23,248.30 208.31,248.22 208.41,248.09 C 208.50,247.97 208.58,247.82 208.66,247.64 C 208.73,247.47 208.79,247.27 208.84,247.05 C 208.90,246.83 208.94,246.58 208.97,246.31 C 209.00,246.04 209.02,245.75 209.03,245.44 C 209.04,245.12 209.04,244.78 209.03,244.42 C 209.02,244.06 209.00,243.67 208.97,243.27 C 208.94,242.86 208.90,242.42 208.84,241.97 C 208.79,241.51 208.69,240.98 208.66,240.53 C 208.63,240.08 208.63,239.66 208.66,239.27 C 208.70,238.88 208.77,238.52 208.87,238.20 C 208.97,237.87 209.10,237.57 209.27,237.30 C 209.43,237.03 209.63,236.79 209.86,236.58 C 210.09,236.37 210.35,236.19 210.65,236.04 C 210.94,235.89 211.27,235.77 211.63,235.68 C 211.99,235.59 212.39,235.53 212.81,235.50 C 213.24,235.47 213.72,235.49 214.19,235.50 C 214.65,235.51 215.12,235.54 215.59,235.58 C 216.07,235.62 216.55,235.67 217.03,235.73 C 217.52,235.80 218.01,235.88 218.50,235.97 C 218.99,236.06 219.49,236.16 220.00,236.28 C 220.51,236.40 221.02,236.53 221.53,236.67 C 222.05,236.82 222.57,236.97 223.09,237.14 C 223.62,237.31 224.15,237.49 224.69,237.69 C 225.22,237.88 225.77,238.13 226.31,238.31 C 226.85,238.49 227.39,238.65 227.92,238.78 C 228.46,238.91 228.99,239.02 229.52,239.09 C 230.04,239.17 230.57,239.22 231.09,239.25 C 231.62,239.28 232.14,239.28 232.66,239.25 C 233.17,239.22 233.69,239.17 234.20,239.09 C 234.72,239.02 235.23,238.91 235.73,238.78 C 236.24,238.65 236.75,238.49 237.25,238.31 C 237.75,238.13 238.27,237.89 238.75,237.69 C 239.23,237.48 239.68,237.27 240.10,237.07 C 240.53,236.87 240.93,236.66 241.30,236.46 C 241.68,236.26 242.03,236.06 242.36,235.86 C 242.69,235.66 242.99,235.46 243.27,235.27 C 243.54,235.07 243.80,234.87 244.02,234.68 C 244.25,234.49 244.45,234.29 244.63,234.10 C 244.81,233.91 244.96,233.72 245.09,233.53 C 245.22,233.34 245.32,233.16 245.41,232.97 C 245.50,232.78 245.57,232.59 245.63,232.40 C 245.69,232.21 245.74,232.01 245.77,231.82 C 245.81,231.63 245.82,231.43 245.83,231.23 C 245.83,231.04 245.82,230.84 245.80,230.64 C 245.77,230.44 245.73,230.24 245.68,230.04 C 245.63,229.84 245.56,229.63 245.48,229.43 C 245.39,229.23 245.30,229.02 245.19,228.81 C 245.08,228.61 244.92,228.39 244.81,228.19 C 244.71,227.99 244.63,227.79 244.57,227.60 C 244.51,227.41 244.48,227.23 244.46,227.05 C 244.45,226.88 244.45,226.71 244.48,226.55 C 244.51,226.38 244.57,226.23 244.64,226.08 C 244.71,225.93 244.81,225.79 244.93,225.65 C 245.05,225.51 245.19,225.38 245.35,225.26 C 245.51,225.13 245.70,225.02 245.91,224.91 C 246.11,224.80 246.37,224.69 246.59,224.59 C 246.82,224.50 247.03,224.40 247.24,224.32 C 247.45,224.24 247.65,224.16 247.85,224.09 C 248.05,224.01 248.24,223.95 248.42,223.89 C 248.61,223.83 248.78,223.78 248.95,223.73 C 249.12,223.69 249.29,223.65 249.45,223.62 C 249.60,223.58 249.75,223.56 249.90,223.54 C 250.04,223.52 250.18,223.51 250.31,223.50 C 250.44,223.49 250.54,223.48 250.69,223.50 C 250.83,223.52 251.00,223.56 251.19,223.62 C 251.38,223.69 251.58,223.77 251.81,223.88 C 252.04,223.98 252.29,224.10 252.56,224.25 C 252.83,224.40 253.12,224.56 253.44,224.75 C 253.75,224.94 254.08,225.15 254.44,225.38 C 254.79,225.60 255.17,225.85 255.56,226.12 C 255.96,226.40 256.38,226.69 256.81,227.00 C 257.25,227.31 257.74,227.69 258.19,228.00 C 258.64,228.31 259.07,228.59 259.50,228.84 C 259.93,229.10 260.34,229.33 260.75,229.53 C 261.16,229.73 261.55,229.91 261.94,230.06 C 262.32,230.21 262.70,230.34 263.06,230.44 C 263.43,230.54 263.78,230.61 264.12,230.66 C 264.47,230.70 264.80,230.72 265.12,230.72 C 265.45,230.71 265.76,230.68 266.06,230.62 C 266.36,230.57 266.55,230.46 266.94,230.38 C 267.33,230.29 267.81,230.20 268.39,230.11 C 268.97,230.02 269.65,229.92 270.42,229.83 C 271.20,229.73 272.07,229.63 273.03,229.53 C 274.00,229.43 275.06,229.33 276.22,229.22 C 277.38,229.11 278.63,229.00 279.98,228.89 C 281.34,228.78 282.78,228.66 284.33,228.55 C 285.87,228.43 287.51,228.31 289.25,228.19 C 290.99,228.07 293.03,227.92 294.75,227.81 C 296.47,227.70 298.09,227.60 299.59,227.52 C 301.10,227.43 302.49,227.36 303.78,227.30 C 305.07,227.24 306.24,227.19 307.31,227.16 C 308.38,227.12 309.34,227.10 310.19,227.09 C 311.04,227.09 311.78,227.09 312.41,227.11 C 313.04,227.13 313.56,227.16 313.97,227.20 C 314.38,227.25 314.68,227.30 314.88,227.38 C 315.07,227.45 315.02,227.54 315.12,227.62 C 315.23,227.71 315.36,227.78 315.52,227.86 C 315.67,227.93 315.85,228.01 316.05,228.08 C 316.25,228.15 316.47,228.22 316.72,228.28 C 316.97,228.35 317.24,228.41 317.53,228.47 C 317.83,228.53 318.14,228.59 318.48,228.64 C 318.83,228.70 319.19,228.75 319.58,228.80 C 319.97,228.85 320.38,228.89 320.81,228.94 C 321.25,228.98 321.73,229.01 322.19,229.06 C 322.64,229.12 323.10,229.18 323.55,229.27 C 324.00,229.35 324.45,229.44 324.89,229.55 C 325.34,229.65 325.78,229.77 326.22,229.91 C 326.66,230.04 327.10,230.18 327.53,230.34 C 327.97,230.50 328.40,230.67 328.83,230.86 C 329.26,231.04 329.68,231.24 330.11,231.45 C 330.53,231.66 330.96,231.89 331.38,232.12 C 331.79,232.36 332.23,232.64 332.62,232.88 C 333.02,233.11 333.40,233.33 333.77,233.53 C 334.13,233.73 334.47,233.92 334.80,234.09 C 335.12,234.27 335.43,234.42 335.72,234.56 C 336.01,234.70 336.28,234.83 336.53,234.94 C 336.78,235.05 337.02,235.14 337.23,235.22 C 337.45,235.30 337.65,235.36 337.83,235.41 C 338.01,235.45 338.17,235.48 338.31,235.50 C 338.46,235.52 338.55,235.52 338.69,235.50 C 338.82,235.48 338.97,235.43 339.13,235.37 C 339.29,235.30 339.46,235.21 339.65,235.10 C 339.83,234.99 340.03,234.86 340.23,234.70 C 340.44,234.55 340.66,234.37 340.89,234.17 C 341.12,233.97 341.36,233.75 341.62,233.51 C 341.87,233.26 342.14,233.00 342.41,232.71 C 342.69,232.42 342.98,232.11 343.28,231.78 C 343.58,231.45 343.92,231.16 344.22,230.72 C 344.52,230.28 344.80,229.75 345.07,229.13 C 345.34,228.52 345.60,227.81 345.84,227.02 C 346.08,226.23 346.30,225.36 346.52,224.39 C 346.73,223.43 346.93,222.37 347.11,221.23 C 347.29,220.10 347.46,218.87 347.62,217.55 C 347.77,216.24 347.91,214.84 348.04,213.35 C 348.17,211.86 348.28,210.29 348.38,208.62 C 348.47,206.96 348.53,205.02 348.62,203.38 C 348.72,201.73 348.82,200.20 348.93,198.77 C 349.04,197.35 349.16,196.03 349.29,194.82 C 349.42,193.61 349.56,192.51 349.70,191.52 C 349.85,190.52 350.01,189.64 350.17,188.86 C 350.34,188.08 350.51,187.41 350.70,186.85 C 350.88,186.29 351.07,185.84 351.27,185.49 C 351.48,185.15 351.69,184.91 351.91,184.78 C 352.13,184.65 352.33,184.69 352.59,184.72 C 352.85,184.75 353.15,184.83 353.47,184.97 C 353.79,185.10 354.15,185.29 354.53,185.53 C 354.92,185.77 355.33,186.06 355.78,186.41 C 356.23,186.75 356.71,187.15 357.22,187.59 C 357.73,188.04 358.27,188.54 358.84,189.09 C 359.42,189.65 360.02,190.25 360.66,190.91 C 361.29,191.56 361.96,192.27 362.66,193.03 C 363.35,193.79 364.16,194.69 364.84,195.47 C 365.53,196.25 366.17,197.00 366.76,197.73 C 367.35,198.45 367.90,199.14 368.40,199.80 C 368.90,200.47 369.36,201.10 369.77,201.70 C 370.18,202.31 370.54,202.88 370.86,203.42 C 371.18,203.96 371.45,204.48 371.68,204.96 C 371.91,205.44 372.09,205.90 372.23,206.32 C 372.36,206.74 372.45,207.14 372.50,207.50 C 372.55,207.86 372.49,208.16 372.50,208.50 C 372.51,208.84 372.52,209.18 372.55,209.53 C 372.57,209.88 372.60,210.23 372.64,210.59 C 372.68,210.95 372.73,211.32 372.78,211.69 C 372.84,212.06 372.90,212.43 372.97,212.81 C 373.04,213.19 373.12,213.58 373.20,213.97 C 373.29,214.36 373.38,214.76 373.48,215.16 C 373.59,215.56 373.70,215.96 373.81,216.38 C 373.93,216.79 374.09,217.23 374.19,217.62 C 374.29,218.02 374.37,218.40 374.42,218.77 C 374.48,219.13 374.51,219.47 374.52,219.80 C 374.52,220.12 374.51,220.43 374.47,220.72 C 374.43,221.01 374.37,221.28 374.28,221.53 C 374.20,221.78 374.09,222.02 373.95,222.23 C 373.82,222.45 373.66,222.65 373.48,222.83 C 373.30,223.01 373.10,223.17 372.88,223.31 C 372.65,223.46 372.36,223.55 372.12,223.69 C 371.89,223.82 371.66,223.96 371.45,224.11 C 371.24,224.26 371.04,224.41 370.86,224.58 C 370.67,224.74 370.50,224.91 370.34,225.09 C 370.18,225.27 370.04,225.46 369.91,225.66 C 369.77,225.85 369.65,226.05 369.55,226.27 C 369.44,226.48 369.35,226.70 369.27,226.92 C 369.18,227.15 369.12,227.38 369.06,227.62 C 369.01,227.87 368.93,228.11 368.94,228.38 C 368.94,228.64 368.99,228.91 369.09,229.19 C 369.19,229.47 369.34,229.76 369.53,230.06 C 369.72,230.36 369.96,230.68 370.25,231.00 C 370.54,231.32 370.87,231.66 371.25,232.00 C 371.63,232.34 372.06,232.70 372.53,233.06 C 373.01,233.43 373.53,233.80 374.09,234.19 C 374.66,234.57 375.28,234.97 375.94,235.38 C 376.60,235.78 377.40,236.21 378.06,236.62 C 378.73,237.04 379.35,237.46 379.92,237.88 C 380.50,238.29 381.03,238.71 381.52,239.12 C 382.00,239.54 382.45,239.96 382.84,240.38 C 383.24,240.79 383.60,241.21 383.91,241.62 C 384.22,242.04 384.48,242.46 384.70,242.88 C 384.92,243.29 385.10,243.71 385.23,244.12 C 385.37,244.54 385.46,244.96 385.50,245.38 C 385.54,245.79 385.51,246.23 385.50,246.62 C 385.49,247.02 385.48,247.40 385.45,247.75 C 385.43,248.10 385.40,248.44 385.36,248.75 C 385.32,249.06 385.27,249.35 385.22,249.62 C 385.16,249.90 385.10,250.15 385.03,250.38 C 384.96,250.60 384.88,250.81 384.80,251.00 C 384.71,251.19 384.62,251.35 384.52,251.50 C 384.41,251.65 384.30,251.77 384.19,251.88 C 384.07,251.98 383.93,252.04 383.81,252.12 C 383.70,252.21 383.59,252.31 383.48,252.41 C 383.38,252.51 383.29,252.61 383.20,252.72 C 383.12,252.83 383.04,252.94 382.97,253.06 C 382.90,253.18 382.84,253.31 382.78,253.44 C 382.73,253.57 382.68,253.70 382.64,253.84 C 382.60,253.98 382.57,254.13 382.55,254.28 C 382.52,254.43 382.51,254.59 382.50,254.75 C 382.49,254.91 382.51,255.09 382.50,255.25 C 382.49,255.41 382.48,255.56 382.47,255.70 C 382.45,255.85 382.43,255.98 382.41,256.11 C 382.38,256.24 382.35,256.36 382.31,256.47 C 382.28,256.58 382.23,256.68 382.19,256.78 C 382.14,256.88 382.09,256.97 382.03,257.05 C 381.97,257.13 381.91,257.20 381.84,257.27 C 381.78,257.33 381.70,257.39 381.62,257.44 C 381.55,257.49 381.45,257.49 381.38,257.56 C 381.30,257.63 381.22,257.73 381.16,257.86 C 381.09,257.99 381.03,258.14 380.97,258.33 C 380.91,258.51 380.86,258.73 380.81,258.97 C 380.77,259.21 380.72,259.48 380.69,259.78 C 380.65,260.08 380.62,260.41 380.59,260.77 C 380.57,261.12 380.55,261.51 380.53,261.92 C 380.52,262.34 380.51,262.78 380.50,263.25 C 380.49,263.72 380.49,264.28 380.50,264.75 C 380.51,265.22 380.52,265.66 380.53,266.08 C 380.55,266.49 380.57,266.88 380.59,267.23 C 380.62,267.59 380.65,267.92 380.69,268.22 C 380.72,268.52 380.77,268.79 380.81,269.03 C 380.86,269.27 380.91,269.49 380.97,269.67 C 381.03,269.86 381.09,270.01 381.16,270.14 C 381.22,270.27 381.30,270.37 381.38,270.44 C 381.45,270.51 381.55,270.51 381.62,270.56 C 381.70,270.61 381.78,270.67 381.84,270.73 C 381.91,270.80 381.97,270.87 382.03,270.95 C 382.09,271.03 382.14,271.12 382.19,271.22 C 382.23,271.32 382.28,271.42 382.31,271.53 C 382.35,271.64 382.38,271.76 382.41,271.89 C 382.43,272.02 382.45,272.15 382.47,272.30 C 382.48,272.44 382.49,272.59 382.50,272.75 C 382.51,272.91 382.49,273.09 382.50,273.25 C 382.51,273.41 382.52,273.57 382.55,273.72 C 382.57,273.87 382.60,274.02 382.64,274.16 C 382.68,274.30 382.73,274.43 382.78,274.56 C 382.84,274.69 382.90,274.82 382.97,274.94 C 383.04,275.06 383.12,275.17 383.20,275.28 C 383.29,275.39 383.38,275.49 383.48,275.59 C 383.59,275.69 383.70,275.79 383.81,275.88 C 383.93,275.96 384.07,276.02 384.19,276.12 C 384.30,276.23 384.41,276.35 384.52,276.50 C 384.62,276.65 384.71,276.81 384.80,277.00 C 384.88,277.19 384.96,277.40 385.03,277.62 C 385.10,277.85 385.16,278.10 385.22,278.38 C 385.27,278.65 385.32,278.94 385.36,279.25 C 385.40,279.56 385.43,279.90 385.45,280.25 C 385.48,280.60 385.49,280.98 385.50,281.38 C 385.51,281.77 385.54,282.21 385.50,282.62 C 385.46,283.04 385.37,283.46 385.23,283.88 C 385.10,284.29 384.92,284.71 384.70,285.12 C 384.48,285.54 384.22,285.96 383.91,286.38 C 383.60,286.79 383.24,287.21 382.84,287.62 C 382.45,288.04 382.00,288.46 381.52,288.88 C 381.03,289.29 380.50,289.71 379.92,290.12 C 379.35,290.54 378.73,290.96 378.06,291.38 C 377.40,291.79 376.60,292.22 375.94,292.62 C 375.28,293.03 374.66,293.43 374.09,293.81 C 373.53,294.20 373.01,294.57 372.53,294.94 C 372.06,295.30 371.63,295.66 371.25,296.00 C 370.87,296.34 370.54,296.68 370.25,297.00 C 369.96,297.32 369.72,297.64 369.53,297.94 C 369.34,298.24 369.19,298.53 369.09,298.81 C 368.99,299.09 368.94,299.36 368.94,299.62 C 368.93,299.89 369.01,300.13 369.06,300.38 C 369.12,300.62 369.18,300.85 369.27,301.08 C 369.35,301.30 369.44,301.52 369.55,301.73 C 369.65,301.95 369.77,302.15 369.91,302.34 C 370.04,302.54 370.18,302.73 370.34,302.91 C 370.50,303.09 370.67,303.26 370.86,303.42 C 371.04,303.59 371.24,303.74 371.45,303.89 C 371.66,304.04 371.89,304.18 372.12,304.31 C 372.36,304.45 372.65,304.54 372.88,304.69 C 373.10,304.83 373.30,304.99 373.48,305.17 C 373.66,305.35 373.82,305.55 373.95,305.77 C 374.09,305.98 374.20,306.22 374.28,306.47 C 374.37,306.72 374.43,306.99 374.47,307.28 C 374.51,307.57 374.52,307.88 374.52,308.20 C 374.51,308.53 374.48,308.87 374.42,309.23 C 374.37,309.60 374.29,309.98 374.19,310.38 C 374.09,310.77 373.93,311.21 373.81,311.62 C 373.70,312.04 373.59,312.44 373.48,312.84 C 373.38,313.24 373.29,313.64 373.20,314.03 C 373.12,314.42 373.04,314.81 372.97,315.19 C 372.90,315.57 372.84,315.94 372.78,316.31 C 372.73,316.68 372.68,317.05 372.64,317.41 C 372.60,317.77 372.57,318.12 372.55,318.47 C 372.52,318.82 372.51,319.16 372.50,319.50 C 372.49,319.84 372.55,320.14 372.50,320.50 C 372.45,320.86 372.36,321.26 372.23,321.68 C 372.09,322.10 371.91,322.56 371.68,323.04 C 371.45,323.52 371.18,324.04 370.86,324.58 C 370.54,325.12 370.18,325.69 369.77,326.30 C 369.36,326.90 368.90,327.53 368.40,328.20 C 367.90,328.86 367.35,329.55 366.76,330.27 C 366.17,331.00 365.53,331.75 364.84,332.53 C 364.16,333.31 363.35,334.21 362.66,334.97 C 361.96,335.73 361.29,336.44 360.66,337.09 C 360.02,337.75 359.42,338.35 358.84,338.91 C 358.27,339.46 357.73,339.96 357.22,340.41 C 356.71,340.85 356.23,341.25 355.78,341.59 C 355.33,341.94 354.92,342.23 354.53,342.47 C 354.15,342.71 353.79,342.90 353.47,343.03 C 353.15,343.17 352.85,343.25 352.59,343.28 Z" />
    </clipPath>
  </defs>
  <path d="M 352.59,343.28 C 352.33,343.31 352.13,343.35 351.91,343.22 C 351.69,343.09 351.48,342.85 351.27,342.51 C 351.07,342.16 350.88,341.71 350.70,341.15 C 350.51,340.59 350.34,339.92 350.17,339.14 C 350.01,338.36 349.85,337.48 349.70,336.48 C 349.56,335.49 349.42,334.39 349.29,333.18 C 349.16,331.97 349.04,330.65 348.93,329.23 C 348.82,327.80 348.72,326.27 348.62,324.62 C 348.53,322.98 348.47,321.04 348.38,319.38 C 348.28,317.71 348.17,316.14 348.04,314.65 C 347.91,313.16 347.77,311.76 347.62,310.45 C 347.46,309.13 347.29,307.90 347.11,306.77 C 346.93,305.63 346.73,304.57 346.52,303.61 C 346.30,302.64 346.08,301.77 345.84,300.98 C 345.60,300.19 345.34,299.48 345.07,298.87 C 344.80,298.25 344.52,297.72 344.22,297.28 C 343.92,296.84 343.58,296.55 343.28,296.22 C 342.98,295.89 342.69,295.58 342.41,295.29 C 342.14,295.00 341.87,294.74 341.62,294.49 C 341.36,294.25 341.12,294.03 340.89,293.83 C 340.66,293.63 340.44,293.45 340.23,293.30 C 340.03,293.14 339.83,293.01 339.65,292.90 C 339.46,292.79 339.29,292.70 339.13,292.63 C 338.97,292.57 338.82,292.52 338.69,292.50 C 338.55,292.48 338.46,292.48 338.31,292.50 C 338.17,292.52 338.01,292.55 337.83,292.59 C 337.65,292.64 337.45,292.70 337.23,292.78 C 337.02,292.86 336.78,292.95 336.53,293.06 C 336.28,293.17 336.01,293.30 335.72,293.44 C 335.43,293.58 335.12,293.73 334.80,293.91 C 334.47,294.08 334.13,294.27 333.77,294.47 C 333.40,294.67 333.02,294.89 332.62,295.12 C 332.23,295.36 331.79,295.64 331.38,295.88 C 330.96,296.11 330.53,296.34 330.11,296.55 C 329.68,296.76 329.26,296.96 328.83,297.14 C 328.40,297.33 327.97,297.50 327.53,297.66 C 327.10,297.82 326.66,297.96 326.22,298.09 C 325.78,298.23 325.34,298.35 324.89,298.45 C 324.45,298.56 324.00,298.65 323.55,298.73 C 323.10,298.82 322.64,298.88 322.19,298.94 C 321.73,298.99 321.25,299.02 320.81,299.06 C 320.38,299.11 319.97,299.15 319.58,299.20 C 319.19,299.25 318.83,299.30 318.48,299.36 C 318.14,299.41 317.83,299.47 317.53,299.53 C 317.24,299.59 316.97,299.65 316.72,299.72 C 316.47,299.78 316.25,299.85 316.05,299.92 C 315.85,299.99 315.67,300.07 315.52,300.14 C 315.36,300.22 315.23,300.29 315.12,300.38 C 315.02,300.46 315.09,300.56 314.88,300.62 C 314.66,300.69 314.30,300.74 313.81,300.78 C 313.32,300.82 312.70,300.84 311.94,300.84 C 311.18,300.85 310.28,300.84 309.25,300.81 C 308.22,300.79 307.05,300.74 305.75,300.69 C 304.45,300.63 303.01,300.56 301.44,300.47 C 299.86,300.38 298.16,300.28 296.31,300.16 C 294.47,300.04 292.49,299.90 290.38,299.75 C 288.26,299.60 285.76,299.39 283.62,299.25 C 281.49,299.11 279.48,299.00 277.59,298.92 C 275.70,298.84 273.93,298.79 272.28,298.77 C 270.63,298.74 269.10,298.75 267.69,298.78 C 266.28,298.82 264.98,298.88 263.81,298.97 C 262.64,299.06 261.59,299.18 260.66,299.33 C 259.72,299.48 258.91,299.65 258.22,299.86 C 257.53,300.07 256.95,300.30 256.50,300.56 C 256.05,300.83 255.82,301.16 255.50,301.44 C 255.18,301.71 254.87,301.97 254.58,302.20 C 254.28,302.44 254.00,302.66 253.73,302.86 C 253.47,303.06 253.21,303.24 252.97,303.41 C 252.73,303.57 252.50,303.72 252.28,303.84 C 252.07,303.97 251.86,304.08 251.67,304.17 C 251.48,304.26 251.30,304.34 251.14,304.39 C 250.98,304.45 250.83,304.48 250.69,304.50 C 250.55,304.52 250.44,304.51 250.31,304.50 C 250.18,304.49 250.04,304.48 249.90,304.46 C 249.75,304.44 249.60,304.42 249.45,304.38 C 249.29,304.35 249.12,304.31 248.95,304.27 C 248.78,304.22 248.61,304.17 248.42,304.11 C 248.24,304.05 248.05,303.99 247.85,303.91 C 247.65,303.84 247.45,303.76 247.24,303.68 C 247.03,303.60 246.82,303.50 246.59,303.41 C 246.37,303.31 246.11,303.20 245.91,303.09 C 245.70,302.98 245.51,302.87 245.35,302.74 C 245.19,302.62 245.05,302.49 244.93,302.35 C 244.81,302.21 244.71,302.07 244.64,301.92 C 244.57,301.77 244.51,301.62 244.48,301.45 C 244.45,301.29 244.45,301.12 244.46,300.95 C 244.48,300.77 244.51,300.59 244.57,300.40 C 244.63,300.21 244.71,300.01 244.81,299.81 C 244.92,299.61 245.08,299.39 245.19,299.19 C 245.30,298.98 245.39,298.77 245.48,298.57 C 245.56,298.37 245.63,298.16 245.68,297.96 C 245.73,297.76 245.77,297.56 245.80,297.36 C 245.82,297.16 245.83,296.96 245.83,296.77 C 245.82,296.57 245.81,296.37 245.77,296.18 C 245.74,295.99 245.69,295.79 245.63,295.60 C 245.57,295.41 245.50,295.22 245.41,295.03 C 245.32,294.84 245.22,294.66 245.09,294.47 C 244.96,294.28 244.81,294.09 244.63,293.90 C 244.45,293.71 244.25,293.51 244.02,293.32 C 243.80,293.13 243.54,292.93 243.27,292.73 C 242.99,292.54 242.69,292.34 242.36,292.14 C 242.03,291.94 241.68,291.74 241.30,291.54 C 240.93,291.34 240.53,291.13 240.10,290.93 C 239.68,290.73 239.23,290.52 238.75,290.31 C 238.27,290.11 237.75,289.87 237.25,289.69 C 236.75,289.51 236.24,289.35 235.73,289.22 C 235.23,289.09 234.72,288.98 234.20,288.91 C 233.69,288.83 233.17,288.78 232.66,288.75 C 232.14,288.72 231.62,288.72 231.09,288.75 C 230.57,288.78 230.04,288.83 229.52,288.91 C 228.99,288.98 228.46,289.09 227.92,289.22 C 227.39,289.35 226.85,289.51 226.31,289.69 C 225.77,289.87 225.22,290.12 224.69,290.31 C 224.15,290.51 223.62,290.69 223.09,290.86 C 222.57,291.03 222.05,291.18 221.53,291.33 C 221.02,291.47 220.51,291.60 220.00,291.72 C 219.49,291.84 218.99,291.94 218.50,292.03 C 218.01,292.12 217.52,292.20 217.03,292.27 C 216.55,292.33 216.07,292.38 215.59,292.42 C 215.12,292.46 214.65,292.49 214.19,292.50 C 213.72,292.51 213.24,292.53 212.81,292.50 C 212.39,292.47 211.99,292.41 211.63,292.32 C 211.27,292.23 210.94,292.11 210.65,291.96 C 210.35,291.81 210.09,291.63 209.86,291.42 C 209.63,291.21 209.43,290.97 209.27,290.70 C 209.10,290.43 208.97,290.13 208.87,289.80 C 208.77,289.48 208.70,289.12 208.66,288.73 C 208.63,288.34 208.63,287.92 208.66,287.47 C 208.69,287.02 208.79,286.49 208.84,286.03 C 208.90,285.58 208.94,285.14 208.97,284.73 C 209.00,284.33 209.02,283.94 209.03,283.58 C 209.04,283.22 209.04,282.88 209.03,282.56 C 209.02,282.25 209.00,281.96 208.97,281.69 C 208.94,281.42 208.90,281.17 208.84,280.95 C 208.79,280.73 208.73,280.53 208.66,280.36 C 208.58,280.18 208.50,280.03 208.41,279.91 C 208.31,279.78 208.23,279.70 208.09,279.59 C 207.96,279.49 207.80,279.39 207.60,279.29 C 207.41,279.19 207.18,279.09 206.93,278.99 C 206.68,278.89 206.39,278.80 206.08,278.70 C 205.76,278.61 205.42,278.51 205.05,278.42 C 204.67,278.33 204.27,278.24 203.84,278.15 C 203.40,278.06 202.94,277.97 202.45,277.88 C 201.95,277.80 201.43,277.71 200.88,277.62 C 200.32,277.54 199.70,277.42 199.12,277.38 C 198.55,277.33 197.97,277.31 197.41,277.33 C 196.84,277.35 196.28,277.40 195.72,277.48 C 195.16,277.57 194.61,277.69 194.06,277.84 C 193.52,278.00 192.97,278.18 192.44,278.41 C 191.90,278.63 191.37,278.88 190.84,279.17 C 190.32,279.46 189.80,279.78 189.28,280.14 C 188.77,280.50 188.26,280.89 187.75,281.31 C 187.24,281.74 186.73,282.26 186.25,282.69 C 185.77,283.12 185.31,283.52 184.88,283.89 C 184.44,284.26 184.02,284.61 183.62,284.92 C 183.23,285.24 182.85,285.52 182.50,285.78 C 182.15,286.04 181.81,286.27 181.50,286.47 C 181.19,286.67 180.90,286.84 180.62,286.98 C 180.35,287.13 180.10,287.24 179.88,287.33 C 179.65,287.41 179.44,287.47 179.25,287.50 C 179.06,287.53 178.92,287.49 178.75,287.50 C 178.58,287.51 178.42,287.52 178.26,287.54 C 178.10,287.56 177.93,287.58 177.77,287.62 C 177.61,287.65 177.45,287.69 177.30,287.73 C 177.14,287.78 176.98,287.83 176.83,287.89 C 176.67,287.95 176.52,288.01 176.37,288.09 C 176.21,288.16 176.06,288.24 175.91,288.32 C 175.76,288.40 175.62,288.50 175.47,288.59 C 175.32,288.69 175.17,288.80 175.03,288.91 C 174.89,289.01 174.75,289.13 174.62,289.24 C 174.48,289.36 174.35,289.48 174.23,289.60 C 174.10,289.73 173.98,289.85 173.86,289.98 C 173.74,290.12 173.63,290.25 173.52,290.39 C 173.40,290.53 173.30,290.67 173.20,290.82 C 173.09,290.97 172.99,291.12 172.90,291.27 C 172.80,291.43 172.71,291.59 172.62,291.75 C 172.54,291.91 172.44,292.07 172.38,292.25 C 172.31,292.43 172.25,292.61 172.21,292.80 C 172.17,293.00 172.14,293.20 172.13,293.41 C 172.12,293.63 172.12,293.85 172.14,294.08 C 172.16,294.31 172.19,294.55 172.23,294.80 C 172.28,295.05 172.34,295.30 172.41,295.57 C 172.49,295.84 172.58,296.11 172.68,296.40 C 172.78,296.68 172.90,296.98 173.03,297.28 C 173.16,297.58 173.36,297.93 173.47,298.22 C 173.58,298.51 173.65,298.79 173.68,299.04 C 173.71,299.29 173.71,299.53 173.66,299.74 C 173.62,299.96 173.54,300.15 173.42,300.33 C 173.30,300.50 173.15,300.66 172.95,300.80 C 172.76,300.93 172.53,301.05 172.26,301.15 C 171.99,301.25 171.68,301.32 171.34,301.38 C 170.99,301.44 170.61,301.48 170.19,301.50 C 169.77,301.52 169.25,301.52 168.81,301.50 C 168.37,301.48 167.95,301.43 167.54,301.35 C 167.13,301.28 166.74,301.18 166.37,301.05 C 165.99,300.93 165.64,300.78 165.30,300.61 C 164.96,300.44 164.63,300.24 164.33,300.02 C 164.02,299.79 163.73,299.55 163.46,299.27 C 163.19,299.00 162.93,298.70 162.70,298.38 C 162.46,298.06 162.24,297.71 162.03,297.34 C 161.83,296.97 161.64,296.58 161.47,296.16 C 161.30,295.73 161.14,295.27 160.99,294.79 C 160.85,294.30 160.72,293.79 160.60,293.24 C 160.49,292.70 160.38,292.12 160.30,291.52 C 160.21,290.91 160.14,290.27 160.08,289.61 C 160.02,288.94 159.98,288.25 159.95,287.52 C 159.92,286.80 159.90,286.04 159.90,285.26 C 159.90,284.47 159.91,283.66 159.94,282.81 C 159.96,281.97 160.04,281.03 160.06,280.19 C 160.09,279.35 160.09,278.55 160.08,277.78 C 160.07,277.02 160.03,276.29 159.98,275.59 C 159.93,274.90 159.87,274.24 159.78,273.62 C 159.70,273.01 159.59,272.42 159.47,271.88 C 159.35,271.33 159.21,270.82 159.05,270.34 C 158.89,269.87 158.71,269.43 158.52,269.03 C 158.32,268.63 158.11,268.27 157.88,267.94 C 157.64,267.61 157.34,267.35 157.12,267.06 C 156.91,266.77 156.72,266.48 156.56,266.19 C 156.41,265.90 156.28,265.60 156.19,265.31 C 156.09,265.02 156.03,264.73 156.00,264.44 C 155.97,264.15 155.97,263.85 156.00,263.56 C 156.03,263.27 156.09,262.98 156.19,262.69 C 156.28,262.40 156.41,262.10 156.56,261.81 C 156.72,261.52 156.91,261.23 157.12,260.94 C 157.34,260.65 157.64,260.39 157.88,260.06 C 158.11,259.73 158.32,259.37 158.52,258.97 C 158.71,258.57 158.89,258.13 159.05,257.66 C 159.21,257.18 159.35,256.67 159.47,256.12 C 159.59,255.58 159.70,254.99 159.78,254.38 C 159.87,253.76 159.93,253.10 159.98,252.41 C 160.03,251.71 160.07,250.98 160.08,250.22 C 160.09,249.45 160.09,248.65 160.06,247.81 C 160.04,246.97 159.97,246.03 159.94,245.19 C 159.91,244.35 159.89,243.54 159.88,242.77 C 159.86,241.99 159.86,241.25 159.88,240.55 C 159.89,239.84 159.91,239.17 159.94,238.53 C 159.97,237.89 160.01,237.29 160.06,236.72 C 160.11,236.15 160.18,235.61 160.25,235.11 C 160.32,234.61 160.41,234.14 160.50,233.70 C 160.59,233.27 160.70,232.87 160.81,232.50 C 160.93,232.13 161.07,231.82 161.19,231.50 C 161.31,231.18 161.43,230.88 161.54,230.60 C 161.65,230.32 161.76,230.05 161.87,229.80 C 161.97,229.56 162.07,229.32 162.17,229.11 C 162.27,228.89 162.36,228.70 162.45,228.52 C 162.54,228.33 162.63,228.17 162.71,228.02 C 162.79,227.88 162.87,227.75 162.95,227.63 C 163.02,227.52 163.09,227.42 163.16,227.34 C 163.22,227.26 163.26,227.21 163.34,227.16 C 163.43,227.10 163.54,227.04 163.68,226.99 C 163.82,226.94 163.98,226.89 164.16,226.85 C 164.35,226.81 164.56,226.77 164.80,226.73 C 165.03,226.70 165.29,226.67 165.58,226.64 C 165.86,226.61 166.17,226.59 166.51,226.57 C 166.84,226.55 167.20,226.54 167.59,226.52 C 167.97,226.51 168.38,226.50 168.81,226.50 C 169.25,226.50 169.77,226.48 170.19,226.50 C 170.61,226.52 170.99,226.56 171.34,226.62 C 171.68,226.68 171.99,226.75 172.26,226.85 C 172.53,226.95 172.76,227.07 172.95,227.20 C 173.15,227.34 173.30,227.50 173.42,227.67 C 173.54,227.85 173.62,228.04 173.66,228.26 C 173.71,228.47 173.71,228.71 173.68,228.96 C 173.65,229.21 173.58,229.49 173.47,229.78 C 173.36,230.07 173.16,230.42 173.03,230.72 C 172.90,231.02 172.78,231.32 172.68,231.60 C 172.58,231.89 172.49,232.16 172.41,232.43 C 172.34,232.70 172.28,232.95 172.23,233.20 C 172.19,233.45 172.16,233.69 172.14,233.92 C 172.12,234.15 172.12,234.37 172.13,234.59 C 172.14,234.80 172.17,235.00 172.21,235.20 C 172.25,235.39 172.31,235.57 172.38,235.75 C 172.44,235.93 172.54,236.09 172.62,236.25 C 172.71,236.41 172.80,236.57 172.90,236.73 C 172.99,236.88 173.09,237.03 173.20,237.18 C 173.30,237.33 173.40,237.47 173.52,237.61 C 173.63,237.75 173.74,237.88 173.86,238.02 C 173.98,238.15 174.10,238.27 174.23,238.40 C 174.35,238.52 174.48,238.64 174.62,238.76 C 174.75,238.87 174.89,238.99 175.03,239.09 C 175.17,239.20 175.32,239.31 175.47,239.41 C 175.62,239.50 175.76,239.60 175.91,239.68 C 176.06,239.76 176.21,239.84 176.37,239.91 C 176.52,239.99 176.67,240.05 176.83,240.11 C 176.98,240.17 177.14,240.22 177.30,240.27 C 177.45,240.31 177.61,240.35 177.77,240.38 C 177.93,240.42 178.10,240.44 178.26,240.46 C 178.42,240.48 178.58,240.49 178.75,240.50 C 178.92,240.51 179.06,240.47 179.25,240.50 C 179.44,240.53 179.65,240.59 179.88,240.67 C 180.10,240.76 180.35,240.87 180.62,241.02 C 180.90,241.16 181.19,241.33 181.50,241.53 C 181.81,241.73 182.15,241.96 182.50,242.22 C 182.85,242.48 183.23,242.76 183.62,243.08 C 184.02,243.39 184.44,243.74 184.88,244.11 C 185.31,244.48 185.77,244.88 186.25,245.31 C 186.73,245.74 187.24,246.26 187.75,246.69 C 188.26,247.11 188.77,247.50 189.28,247.86 C 189.80,248.22 190.32,248.54 190.84,248.83 C 191.37,249.12 191.90,249.37 192.44,249.59 C 192.97,249.82 193.52,250.00 194.06,250.16 C 194.61,250.31 195.16,250.43 195.72,250.52 C 196.28,250.60 196.84,250.65 197.41,250.67 C 197.97,250.69 198.55,250.67 199.12,250.62 C 199.70,250.58 200.32,250.46 200.88,250.38 C 201.43,250.29 201.95,250.20 202.45,250.12 C 202.94,250.03 203.40,249.94 203.84,249.85 C 204.27,249.76 204.67,249.67 205.05,249.58 C 205.42,249.49 205.76,249.39 206.08,249.30 C 206.39,249.20 206.68,249.11 206.93,249.01 C 207.18,248.91 207.41,248.81 207.60,248.71 C 207.80,248.61 207.96,248.51 208.09,248.41 C 208.23,248.30 208.31,248.22 208.41,248.09 C 208.50,247.97 208.58,247.82 208.66,247.64 C 208.73,247.47 208.79,247.27 208.84,247.05 C 208.90,246.83 208.94,246.58 208.97,246.31 C 209.00,246.04 209.02,245.75 209.03,245.44 C 209.04,245.12 209.04,244.78 209.03,244.42 C 209.02,244.06 209.00,243.67 208.97,243.27 C 208.94,242.86 208.90,242.42 208.84,241.97 C 208.79,241.51 208.69,240.98 208.66,240.53 C 208.63,240.08 208.63,239.66 208.66,239.27 C 208.70,238.88 208.77,238.52 208.87,238.20 C 208.97,237.87 209.10,237.57 209.27,237.30 C 209.43,237.03 209.63,236.79 209.86,236.58 C 210.09,236.37 210.35,236.19 210.65,236.04 C 210.94,235.89 211.27,235.77 211.63,235.68 C 211.99,235.59 212.39,235.53 212.81,235.50 C 213.24,235.47 213.72,235.49 214.19,235.50 C 214.65,235.51 215.12,235.54 215.59,235.58 C 216.07,235.62 216.55,235.67 217.03,235.73 C 217.52,235.80 218.01,235.88 218.50,235.97 C 218.99,236.06 219.49,236.16 220.00,236.28 C 220.51,236.40 221.02,236.53 221.53,236.67 C 222.05,236.82 222.57,236.97 223.09,237.14 C 223.62,237.31 224.15,237.49 224.69,237.69 C 225.22,237.88 225.77,238.13 226.31,238.31 C 226.85,238.49 227.39,238.65 227.92,238.78 C 228.46,238.91 228.99,239.02 229.52,239.09 C 230.04,239.17 230.57,239.22 231.09,239.25 C 231.62,239.28 232.14,239.28 232.66,239.25 C 233.17,239.22 233.69,239.17 234.20,239.09 C 234.72,239.02 235.23,238.91 235.73,238.78 C 236.24,238.65 236.75,238.49 237.25,238.31 C 237.75,238.13 238.27,237.89 238.75,237.69 C 239.23,237.48 239.68,237.27 240.10,237.07 C 240.53,236.87 240.93,236.66 241.30,236.46 C 241.68,236.26 242.03,236.06 242.36,235.86 C 242.69,235.66 242.99,235.46 243.27,235.27 C 243.54,235.07 243.80,234.87 244.02,234.68 C 244.25,234.49 244.45,234.29 244.63,234.10 C 244.81,233.91 244.96,233.72 245.09,233.53 C 245.22,233.34 245.32,233.16 245.41,232.97 C 245.50,232.78 245.57,232.59 245.63,232.40 C 245.69,232.21 245.74,232.01 245.77,231.82 C 245.81,231.63 245.82,231.43 245.83,231.23 C 245.83,231.04 245.82,230.84 245.80,230.64 C 245.77,230.44 245.73,230.24 245.68,230.04 C 245.63,229.84 245.56,229.63 245.48,229.43 C 245.39,229.23 245.30,229.02 245.19,228.81 C 245.08,228.61 244.92,228.39 244.81,228.19 C 244.71,227.99 244.63,227.79 244.57,227.60 C 244.51,227.41 244.48,227.23 244.46,227.05 C 244.45,226.88 244.45,226.71 244.48,226.55 C 244.51,226.38 244.57,226.23 244.64,226.08 C 244.71,225.93 244.81,225.79 244.93,225.65 C 245.05,225.51 245.19,225.38 245.35,225.26 C 245.51,225.13 245.70,225.02 245.91,224.91 C 246.11,224.80 246.37,224.69 246.59,224.59 C 246.82,224.50 247.03,224.40 247.24,224.32 C 247.45,224.24 247.65,224.16 247.85,224.09 C 248.05,224.01 248.24,223.95 248.42,223.89 C 248.61,223.83 248.78,223.78 248.95,223.73 C 249.12,223.69 249.29,223.65 249.45,223.62 C 249.60,223.58 249.75,223.56 249.90,223.54 C 250.04,223.52 250.18,223.51 250.31,223.50 C 250.44,223.49 250.54,223.48 250.69,223.50 C 250.83,223.52 251.00,223.56 251.19,223.62 C 251.38,223.69 251.58,223.77 251.81,223.88 C 252.04,223.98 252.29,224.10 252.56,224.25 C 252.83,224.40 253.12,224.56 253.44,224.75 C 253.75,224.94 254.08,225.15 254.44,225.38 C 254.79,225.60 255.17,225.85 255.56,226.12 C 255.96,226.40 256.38,226.69 256.81,227.00 C 257.25,227.31 257.74,227.69 258.19,228.00 C 258.64,228.31 259.07,228.59 259.50,228.84 C 259.93,229.10 260.34,229.33 260.75,229.53 C 261.16,229.73 261.55,229.91 261.94,230.06 C 262.32,230.21 262.70,230.34 263.06,230.44 C 263.43,230.54 263.78,230.61 264.12,230.66 C 264.47,230.70 264.80,230.72 265.12,230.72 C 265.45,230.71 265.76,230.68 266.06,230.62 C 266.36,230.57 266.55,230.46 266.94,230.38 C 267.33,230.29 267.81,230.20 268.39,230.11 C 268.97,230.02 269.65,229.92 270.42,229.83 C 271.20,229.73 272.07,229.63 273.03,229.53 C 274.00,229.43 275.06,229.33 276.22,229.22 C 277.38,229.11 278.63,229.00 279.98,228.89 C 281.34,228.78 282.78,228.66 284.33,228.55 C 285.87,228.43 287.51,228.31 289.25,228.19 C 290.99,228.07 293.03,227.92 294.75,227.81 C 296.47,227.70 298.09,227.60 299.59,227.52 C 301.10,227.43 302.49,227.36 303.78,227.30 C 305.07,227.24 306.24,227.19 307.31,227.16 C 308.38,227.12 309.34,227.10 310.19,227.09 C 311.04,227.09 311.78,227.09 312.41,227.11 C 313.04,227.13 313.56,227.16 313.97,227.20 C 314.38,227.25 314.68,227.30 314.88,227.38 C 315.07,227.45 315.02,227.54 315.12,227.62 C 315.23,227.71 315.36,227.78 315.52,227.86 C 315.67,227.93 315.85,228.01 316.05,228.08 C 316.25,228.15 316.47,228.22 316.72,228.28 C 316.97,228.35 317.24,228.41 317.53,228.47 C 317.83,228.53 318.14,228.59 318.48,228.64 C 318.83,228.70 319.19,228.75 319.58,228.80 C 319.97,228.85 320.38,228.89 320.81,228.94 C 321.25,228.98 321.73,229.01 322.19,229.06 C 322.64,229.12 323.10,229.18 323.55,229.27 C 324.00,229.35 324.45,229.44 324.89,229.55 C 325.34,229.65 325.78,229.77 326.22,229.91 C 326.66,230.04 327.10,230.18 327.53,230.34 C 327.97,230.50 328.40,230.67 328.83,230.86 C 329.26,231.04 329.68,231.24 330.11,231.45 C 330.53,231.66 330.96,231.89 331.38,232.12 C 331.79,232.36 332.23,232.64 332.62,232.88 C 333.02,233.11 333.40,233.33 333.77,233.53 C 334.13,233.73 334.47,233.92 334.80,234.09 C 335.12,234.27 335.43,234.42 335.72,234.56 C 336.01,234.70 336.28,234.83 336.53,234.94 C 336.78,235.05 337.02,235.14 337.23,235.22 C 337.45,235.30 337.65,235.36 337.83,235.41 C 338.01,235.45 338.17,235.48 338.31,235.50 C 338.46,235.52 338.55,235.52 338.69,235.50 C 338.82,235.48 338.97,235.43 339.13,235.37 C 339.29,235.30 339.46,235.21 339.65,235.10 C 339.83,234.99 340.03,234.86 340.23,234.70 C 340.44,234.55 340.66,234.37 340.89,234.17 C 341.12,233.97 341.36,233.75 341.62,233.51 C 341.87,233.26 342.14,233.00 342.41,232.71 C 342.69,232.42 342.98,232.11 343.28,231.78 C 343.58,231.45 343.92,231.16 344.22,230.72 C 344.52,230.28 344.80,229.75 345.07,229.13 C 345.34,228.52 345.60,227.81 345.84,227.02 C 346.08,226.23 346.30,225.36 346.52,224.39 C 346.73,223.43 346.93,222.37 347.11,221.23 C 347.29,220.10 347.46,218.87 347.62,217.55 C 347.77,216.24 347.91,214.84 348.04,213.35 C 348.17,211.86 348.28,210.29 348.38,208.62 C 348.47,206.96 348.53,205.02 348.62,203.38 C 348.72,201.73 348.82,200.20 348.93,198.77 C 349.04,197.35 349.16,196.03 349.29,194.82 C 349.42,193.61 349.56,192.51 349.70,191.52 C 349.85,190.52 350.01,189.64 350.17,188.86 C 350.34,188.08 350.51,187.41 350.70,186.85 C 350.88,186.29 351.07,185.84 351.27,185.49 C 351.48,185.15 351.69,184.91 351.91,184.78 C 352.13,184.65 352.33,184.69 352.59,184.72 C 352.85,184.75 353.15,184.83 353.47,184.97 C 353.79,185.10 354.15,185.29 354.53,185.53 C 354.92,185.77 355.33,186.06 355.78,186.41 C 356.23,186.75 356.71,187.15 357.22,187.59 C 357.73,188.04 358.27,188.54 358.84,189.09 C 359.42,189.65 360.02,190.25 360.66,190.91 C 361.29,191.56 361.96,192.27 362.66,193.03 C 363.35,193.79 364.16,194.69 364.84,195.47 C 365.53,196.25 366.17,197.00 366.76,197.73 C 367.35,198.45 367.90,199.14 368.40,199.80 C 368.90,200.47 369.36,201.10 369.77,201.70 C 370.18,202.31 370.54,202.88 370.86,203.42 C 371.18,203.96 371.45,204.48 371.68,204.96 C 371.91,205.44 372.09,205.90 372.23,206.32 C 372.36,206.74 372.45,207.14 372.50,207.50 C 372.55,207.86 372.49,208.16 372.50,208.50 C 372.51,208.84 372.52,209.18 372.55,209.53 C 372.57,209.88 372.60,210.23 372.64,210.59 C 372.68,210.95 372.73,211.32 372.78,211.69 C 372.84,212.06 372.90,212.43 372.97,212.81 C 373.04,213.19 373.12,213.58 373.20,213.97 C 373.29,214.36 373.38,214.76 373.48,215.16 C 373.59,215.56 373.70,215.96 373.81,216.38 C 373.93,216.79 374.09,217.23 374.19,217.62 C 374.29,218.02 374.37,218.40 374.42,218.77 C 374.48,219.13 374.51,219.47 374.52,219.80 C 374.52,220.12 374.51,220.43 374.47,220.72 C 374.43,221.01 374.37,221.28 374.28,221.53 C 374.20,221.78 374.09,222.02 373.95,222.23 C 373.82,222.45 373.66,222.65 373.48,222.83 C 373.30,223.01 373.10,223.17 372.88,223.31 C 372.65,223.46 372.36,223.55 372.12,223.69 C 371.89,223.82 371.66,223.96 371.45,224.11 C 371.24,224.26 371.04,224.41 370.86,224.58 C 370.67,224.74 370.50,224.91 370.34,225.09 C 370.18,225.27 370.04,225.46 369.91,225.66 C 369.77,225.85 369.65,226.05 369.55,226.27 C 369.44,226.48 369.35,226.70 369.27,226.92 C 369.18,227.15 369.12,227.38 369.06,227.62 C 369.01,227.87 368.93,228.11 368.94,228.38 C 368.94,228.64 368.99,228.91 369.09,229.19 C 369.19,229.47 369.34,229.76 369.53,230.06 C 369.72,230.36 369.96,230.68 370.25,231.00 C 370.54,231.32 370.87,231.66 371.25,232.00 C 371.63,232.34 372.06,232.70 372.53,233.06 C 373.01,233.43 373.53,233.80 374.09,234.19 C 374.66,234.57 375.28,234.97 375.94,235.38 C 376.60,235.78 377.40,236.21 378.06,236.62 C 378.73,237.04 379.35,237.46 379.92,237.88 C 380.50,238.29 381.03,238.71 381.52,239.12 C 382.00,239.54 382.45,239.96 382.84,240.38 C 383.24,240.79 383.60,241.21 383.91,241.62 C 384.22,242.04 384.48,242.46 384.70,242.88 C 384.92,243.29 385.10,243.71 385.23,244.12 C 385.37,244.54 385.46,244.96 385.50,245.38 C 385.54,245.79 385.51,246.23 385.50,246.62 C 385.49,247.02 385.48,247.40 385.45,247.75 C 385.43,248.10 385.40,248.44 385.36,248.75 C 385.32,249.06 385.27,249.35 385.22,249.62 C 385.16,249.90 385.10,250.15 385.03,250.38 C 384.96,250.60 384.88,250.81 384.80,251.00 C 384.71,251.19 384.62,251.35 384.52,251.50 C 384.41,251.65 384.30,251.77 384.19,251.88 C 384.07,251.98 383.93,252.04 383.81,252.12 C 383.70,252.21 383.59,252.31 383.48,252.41 C 383.38,252.51 383.29,252.61 383.20,252.72 C 383.12,252.83 383.04,252.94 382.97,253.06 C 382.90,253.18 382.84,253.31 382.78,253.44 C 382.73,253.57 382.68,253.70 382.64,253.84 C 382.60,253.98 382.57,254.13 382.55,254.28 C 382.52,254.43 382.51,254.59 382.50,254.75 C 382.49,254.91 382.51,255.09 382.50,255.25 C 382.49,255.41 382.48,255.56 382.47,255.70 C 382.45,255.85 382.43,255.98 382.41,256.11 C 382.38,256.24 382.35,256.36 382.31,256.47 C 382.28,256.58 382.23,256.68 382.19,256.78 C 382.14,256.88 382.09,256.97 382.03,257.05 C 381.97,257.13 381.91,257.20 381.84,257.27 C 381.78,257.33 381.70,257.39 381.62,257.44 C 381.55,257.49 381.45,257.49 381.38,257.56 C 381.30,257.63 381.22,257.73 381.16,257.86 C 381.09,257.99 381.03,258.14 380.97,258.33 C 380.91,258.51 380.86,258.73 380.81,258.97 C 380.77,259.21 380.72,259.48 380.69,259.78 C 380.65,260.08 380.62,260.41 380.59,260.77 C 380.57,261.12 380.55,261.51 380.53,261.92 C 380.52,262.34 380.51,262.78 380.50,263.25 C 380.49,263.72 380.49,264.28 380.50,264.75 C 380.51,265.22 380.52,265.66 380.53,266.08 C 380.55,266.49 380.57,266.88 380.59,267.23 C 380.62,267.59 380.65,267.92 380.69,268.22 C 380.72,268.52 380.77,268.79 380.81,269.03 C 380.86,269.27 380.91,269.49 380.97,269.67 C 381.03,269.86 381.09,270.01 381.16,270.14 C 381.22,270.27 381.30,270.37 381.38,270.44 C 381.45,270.51 381.55,270.51 381.62,270.56 C 381.70,270.61 381.78,270.67 381.84,270.73 C 381.91,270.80 381.97,270.87 382.03,270.95 C 382.09,271.03 382.14,271.12 382.19,271.22 C 382.23,271.32 382.28,271.42 382.31,271.53 C 382.35,271.64 382.38,271.76 382.41,271.89 C 382.43,272.02 382.45,272.15 382.47,272.30 C 382.48,272.44 382.49,272.59 382.50,272.75 C 382.51,272.91 382.49,273.09 382.50,273.25 C 382.51,273.41 382.52,273.57 382.55,273.72 C 382.57,273.87 382.60,274.02 382.64,274.16 C 382.68,274.30 382.73,274.43 382.78,274.56 C 382.84,274.69 382.90,274.82 382.97,274.94 C 383.04,275.06 383.12,275.17 383.20,275.28 C 383.29,275.39 383.38,275.49 383.48,275.59 C 383.59,275.69 383.70,275.79 383.81,275.88 C 383.93,275.96 384.07,276.02 384.19,276.12 C 384.30,276.23 384.41,276.35 384.52,276.50 C 384.62,276.65 384.71,276.81 384.80,277.00 C 384.88,277.19 384.96,277.40 385.03,277.62 C 385.10,277.85 385.16,278.10 385.22,278.38 C 385.27,278.65 385.32,278.94 385.36,279.25 C 385.40,279.56 385.43,279.90 385.45,280.25 C 385.48,280.60 385.49,280.98 385.50,281.38 C 385.51,281.77 385.54,282.21 385.50,282.62 C 385.46,283.04 385.37,283.46 385.23,283.88 C 385.10,284.29 384.92,284.71 384.70,285.12 C 384.48,285.54 384.22,285.96 383.91,286.38 C 383.60,286.79 383.24,287.21 382.84,287.62 C 382.45,288.04 382.00,288.46 381.52,288.88 C 381.03,289.29 380.50,289.71 379.92,290.12 C 379.35,290.54 378.73,290.96 378.06,291.38 C 377.40,291.79 376.60,292.22 375.94,292.62 C 375.28,293.03 374.66,293.43 374.09,293.81 C 373.53,294.20 373.01,294.57 372.53,294.94 C 372.06,295.30 371.63,295.66 371.25,296.00 C 370.87,296.34 370.54,296.68 370.25,297.00 C 369.96,297.32 369.72,297.64 369.53,297.94 C 369.34,298.24 369.19,298.53 369.09,298.81 C 368.99,299.09 368.94,299.36 368.94,299.62 C 368.93,299.89 369.01,300.13 369.06,300.38 C 369.12,300.62 369.18,300.85 369.27,301.08 C 369.35,301.30 369.44,301.52 369.55,301.73 C 369.65,301.95 369.77,302.15 369.91,302.34 C 370.04,302.54 370.18,302.73 370.34,302.91 C 370.50,303.09 370.67,303.26 370.86,303.42 C 371.04,303.59 371.24,303.74 371.45,303.89 C 371.66,304.04 371.89,304.18 372.12,304.31 C 372.36,304.45 372.65,304.54 372.88,304.69 C 373.10,304.83 373.30,304.99 373.48,305.17 C 373.66,305.35 373.82,305.55 373.95,305.77 C 374.09,305.98 374.20,306.22 374.28,306.47 C 374.37,306.72 374.43,306.99 374.47,307.28 C 374.51,307.57 374.52,307.88 374.52,308.20 C 374.51,308.53 374.48,308.87 374.42,309.23 C 374.37,309.60 374.29,309.98 374.19,310.38 C 374.09,310.77 373.93,311.21 373.81,311.62 C 373.70,312.04 373.59,312.44 373.48,312.84 C 373.38,313.24 373.29,313.64 373.20,314.03 C 373.12,314.42 373.04,314.81 372.97,315.19 C 372.90,315.57 372.84,315.94 372.78,316.31 C 372.73,316.68 372.68,317.05 372.64,317.41 C 372.60,317.77 372.57,318.12 372.55,318.47 C 372.52,318.82 372.51,319.16 372.50,319.50 C 372.49,319.84 372.55,320.14 372.50,320.50 C 372.45,320.86 372.36,321.26 372.23,321.68 C 372.09,322.10 371.91,322.56 371.68,323.04 C 371.45,323.52 371.18,324.04 370.86,324.58 C 370.54,325.12 370.18,325.69 369.77,326.30 C 369.36,326.90 368.90,327.53 368.40,328.20 C 367.90,328.86 367.35,329.55 366.76,330.27 C 366.17,331.00 365.53,331.75 364.84,332.53 C 364.16,333.31 363.35,334.21 362.66,334.97 C 361.96,335.73 361.29,336.44 360.66,337.09 C 360.02,337.75 359.42,338.35 358.84,338.91 C 358.27,339.46 357.73,339.96 357.22,340.41 C 356.71,340.85 356.23,341.25 355.78,341.59 C 355.33,341.94 354.92,342.23 354.53,342.47 C 354.15,342.71 353.79,342.90 353.47,343.03 C 353.15,343.17 352.85,343.25 352.59,343.28 Z" stroke="none" fill="currentColor" opacity="0.11" />
  <path d="M191.70,259.11L198.18,258.26 M198.18,258.26L204.62,257.10 M191.70,259.11L185.19,259.71 M204.62,257.10L210.98,255.58 M185.19,259.71L178.67,260.17 M210.98,255.58L217.24,253.66 M178.67,260.17L172.14,260.53 M165.61,260.81L159.09,261.01 M191.70,269.90L185.19,269.30 M185.19,269.30L178.67,268.84 M191.70,269.90L198.18,270.75 M178.67,268.84L172.14,268.48 M198.18,270.75L204.62,271.91 M165.61,268.20L159.09,268.00 M204.62,271.91L210.98,273.43 M210.98,273.43L217.24,275.35 M246.83,248.69L229.65,254.30 M246.83,248.69L228.90,254.57 M250.65,259.47L256.92,259.47 M246.83,280.32L229.65,274.71 M246.83,280.32L228.90,274.44 M250.65,269.54L256.92,269.54 M216.72,271.25L210.51,269.45 M294.67,266.82L301.86,266.81 M294.67,262.19L301.86,262.20 M239.04,248.80L231.03,248.14 M268.43,258.05L280.53,258.05 M268.43,257.01L280.53,257.01 M268.43,270.96L280.53,270.96 M268.43,272.00L280.53,272.00 M245.86,293.17L239.47,290.39 M162.01,271.37L167.27,273.73 M245.86,235.84L239.47,238.62 M162.01,257.64L167.27,255.28 M232.72,275.14L225.81,275.49 M232.72,253.87L225.81,253.52 M295.71,241.93L283.81,244.26 M295.97,235.21L283.81,234.10 M295.94,235.63L283.81,234.22 M295.91,236.07L283.81,234.35 M295.71,287.08L283.81,284.75 M295.97,293.80L283.81,294.91 M295.94,293.38L283.81,294.79 M295.91,292.94L283.81,294.66 M243.26,256.80L242.13,261.07 M243.26,256.76L242.13,261.07 M262.65,256.23L270.90,256.28 M270.90,272.73L262.65,272.78 M253.71,257.02L244.53,260.57 M253.70,257.19L244.53,260.74 M244.27,260.59L253.45,257.04 M253.70,271.82L244.53,268.27 M253.71,271.99L244.53,268.44 M253.45,271.97L244.27,268.42 M303.27,286.84L311.52,286.84 M311.52,287.60L303.27,287.60 M311.52,282.01L303.27,282.01 M311.52,282.77L303.27,282.77 M318.27,283.92L331.01,283.92 M331.12,283.72L318.18,283.72 M331.01,285.69L318.27,285.69 M331.12,285.90L318.18,285.90 M304.45,283.05L312.16,283.05 M304.45,286.56L312.16,286.56 M304.38,282.85L312.35,282.85 M304.38,286.76L312.35,286.76 M327.92,281.62L321.92,281.62 M312.35,281.62L303.76,281.62 M312.35,281.62L303.41,281.62 M311.63,283.19L305.14,283.19 M305.80,282.99L311.84,282.99 M305.80,282.99L312.38,282.99 M327.93,283.72L318.93,283.72 M318.93,283.72L310.46,283.72 M325.18,283.72L318.93,283.72 M318.93,283.72L311.84,283.72 M305.80,283.72L311.84,283.72 M327.92,287.99L321.92,287.99 M312.35,287.99L303.77,287.99 M312.35,287.99L303.41,287.99 M311.63,286.42L305.14,286.42 M305.80,286.62L311.84,286.62 M305.80,286.62L312.38,286.62 M327.93,285.90L318.93,285.90 M318.93,285.90L310.46,285.90 M325.18,285.90L318.93,285.90 M318.93,285.90L311.84,285.90 M305.80,285.90L311.84,285.90 M322.20,278.62L318.75,281.59 M322.20,279.75L318.75,282.71 M322.29,278.55L318.80,281.55 M322.29,279.88L318.80,282.88 M324.24,281.30L327.18,277.51 M327.18,278.64L324.24,282.43 M311.52,241.41L303.27,241.41 M303.27,242.17L311.52,242.17 M303.27,246.24L311.52,246.24 M303.27,247.00L311.52,247.00 M318.27,243.32L331.01,243.32 M331.12,243.11L318.18,243.11 M318.27,245.09L331.01,245.09 M331.12,245.29L318.18,245.29 M304.45,245.96L312.16,245.96 M304.45,242.45L312.16,242.45 M304.38,246.16L312.35,246.16 M304.38,242.25L312.35,242.25 M327.92,247.39L321.92,247.39 M312.35,247.39L303.76,247.39 M312.35,247.39L303.41,247.39 M311.63,245.82L305.14,245.82 M305.80,246.02L311.84,246.02 M305.80,246.02L312.38,246.02 M325.18,245.29L318.93,245.29 M327.93,245.29L318.93,245.29 M318.93,245.29L311.84,245.29 M318.93,245.29L310.46,245.29 M311.84,245.29L305.80,245.29 M327.92,241.02L321.92,241.02 M312.35,241.02L303.77,241.02 M312.35,241.02L303.41,241.02 M311.63,242.59L305.14,242.59 M305.80,242.39L311.84,242.39 M305.80,242.39L312.38,242.39 M327.93,243.11L318.93,243.11 M318.93,243.11L310.46,243.11 M325.18,243.11L318.93,243.11 M318.93,243.11L311.84,243.11 M305.80,243.11L311.84,243.11 M322.20,250.39L318.75,247.42 M322.20,249.26L318.75,246.30 M322.29,250.46L318.80,247.46 M322.29,249.13L318.80,246.13 M324.24,247.71L327.18,251.50 M327.18,250.37L324.24,246.58 M219.97,267.58L226.86,267.58 M227.02,267.50L220.10,267.50 M220.19,267.12L227.08,267.12 M220.15,266.82L226.97,266.82 M219.97,261.43L226.86,261.43 M220.10,261.51L227.02,261.51 M220.19,261.89L227.08,261.88 M220.15,262.19L226.97,262.19 M281.70,294.04L275.35,294.04 M275.35,296.00L281.70,296.01 M275.40,296.34L281.71,296.35 M275.38,296.30L281.70,296.30 M275.36,296.18L281.70,296.18 M281.98,296.06L281.98,291.42 M281.23,290.92L281.23,295.55 M270.68,290.85L260.12,290.85 M270.68,290.49L260.12,290.49 M270.68,293.83L260.12,293.83 M260.12,293.81L270.68,293.95 M263.22,290.96L254.10,291.02 M263.20,291.05L254.13,291.14 M254.10,288.28L263.22,288.30 M251.89,290.72L272.45,290.72 M251.47,290.72L272.32,290.72 M251.01,290.93L272.32,290.93 M251.89,293.60L272.45,293.68 M251.47,293.19L272.32,293.19 M251.01,292.98L272.32,292.98 M273.37,290.49L263.09,290.49 M259.39,290.49L251.02,290.49 M273.37,292.18L263.09,292.18 M251.02,292.18L259.39,292.18 M273.35,292.14L246.21,292.20 M247.07,289.29L255.07,289.29 M255.07,289.29L272.98,289.29 M247.10,290.68L260.91,290.69 M247.10,294.36L260.91,294.36 M247.12,290.61L260.85,290.61 M247.12,294.53L260.85,294.41 M260.91,294.60L247.10,294.60 M281.70,232.71L275.38,232.71 M281.71,232.66L275.40,232.67 M281.70,233.00L275.35,233.01 M275.40,234.80L281.71,234.80 M275.38,234.85L281.70,234.85 M275.35,234.97L281.70,234.97 M275.36,235.14L281.70,235.14 M281.98,237.59L281.98,232.95 M281.23,233.46L281.23,238.09 M252.28,239.74L263.14,239.68 M270.68,235.18L260.12,235.18 M270.68,235.06L260.12,235.20 M270.68,238.16L260.12,238.16 M260.12,238.52L270.68,238.52 M263.22,240.71L254.10,240.73 M254.10,237.99L263.22,238.05 M263.20,237.96L254.13,237.87 M251.89,235.41L272.45,235.33 M251.47,235.82L272.32,235.82 M251.01,236.03L272.32,236.03 M251.89,238.29L272.45,238.29 M251.47,238.29L272.32,238.29 M251.01,238.08L272.32,238.08 M273.37,236.83L263.09,236.83 M259.39,236.83L251.02,236.83 M273.37,238.52L263.09,238.52 M251.02,238.52L259.39,238.52 M273.35,237.04L246.21,237.01 M247.10,234.65L260.91,234.65 M247.07,239.72L255.07,239.72 M255.07,239.72L272.98,239.72 M247.10,238.33L260.91,238.32 M247.12,234.48L260.85,234.60 M260.91,234.41L247.10,234.41 M247.12,238.40L260.85,238.40 M275.10,266.30L276.41,266.30 M276.41,266.30L276.70,266.30 M275.10,262.71L276.41,262.71 M276.41,262.71L276.70,262.71 M257.01,269.73L251.08,269.54 M257.01,269.65L251.12,269.46 M251.08,269.54L245.19,269.30 M245.19,269.30L239.33,269.01 M251.12,269.46L245.22,269.22 M245.22,269.22L239.37,268.93 M257.01,259.36L251.12,259.55 M251.08,259.47L257.01,259.28 M251.08,259.47L245.19,259.71 M251.12,259.55L245.22,259.79 M245.19,259.71L239.33,260.00 M245.22,259.79L239.37,260.08 M368.16,255.43L357.90,259.53 M380.23,244.72L380.23,253.20 M292.86,247.33L280.93,245.34 M368.16,273.58L357.90,269.48 M380.23,284.29L380.23,275.81 M292.86,281.68L280.93,283.67 M372.60,260.01L362.86,260.01 M372.60,255.10L362.86,255.10 M372.60,269.00L362.86,269.00 M372.60,273.91L362.86,273.91 M309.26,227.17L299.92,228.64 M299.92,230.88L316.04,230.54 M299.92,300.37L309.26,301.84 M299.92,298.13L316.04,298.47 M368.51,252.42L379.10,252.45 M368.51,253.26L379.10,253.17 M368.51,276.59L379.10,276.56 M368.51,275.75L379.10,275.84 M338.71,261.92L320.37,261.92 M320.37,261.92L304.82,261.92 M294.90,250.78L302.48,260.04 M294.55,250.41L302.13,259.67 M291.28,249.65L281.77,249.65 M291.57,248.90L281.77,248.90 M338.71,267.09L320.37,267.09 M338.71,267.84L320.37,267.84 M320.37,267.09L304.82,267.09 M294.55,278.60L302.13,269.34 M302.48,268.97L294.90,278.23 M291.28,279.36L281.77,279.36 M291.57,280.11L281.77,280.11 M379.24,246.37L364.20,246.40 M364.20,282.61L379.24,282.64 M356.29,216.16L354.12,226.66 M356.62,215.79L354.42,226.49 M361.25,216.32L360.03,227.38 M361.32,216.64L360.21,227.58 M356.29,312.85L354.12,302.35 M356.62,313.22L354.42,302.52 M361.25,312.69L360.03,301.63 M361.32,312.37L360.21,301.43 M319.17,259.48L319.17,269.43 M320.02,259.48L320.02,269.43 M332.13,287.70L326.46,291.04 M332.43,286.52L326.46,291.04 M326.46,291.04L321.84,294.26 M332.13,241.31L326.46,237.97 M332.43,242.49L326.46,237.97 M326.46,237.97L321.84,234.75 M292.85,282.67L292.85,264.50 M290.32,276.88L289.42,264.50 M293.08,285.25L275.76,288.12 M274.44,288.05L293.06,284.76 M293.28,243.72L283.92,241.45 M293.28,244.21L280.40,240.41 M293.25,294.19L282.54,294.45 M293.15,238.41L283.89,237.77 M293.34,243.55L283.99,241.23 M299.42,248.39L282.13,249.43 M280.73,250.11L299.32,248.99 M299.42,280.62L282.13,279.58 M280.73,278.90L299.32,280.02 M299.47,280.62L282.18,279.61 M299.34,280.00L280.74,278.89 M299.47,248.39L282.18,249.40 M299.34,249.01L280.74,250.12 M293.12,284.04L275.80,282.77 M293.08,285.13L274.45,283.71 M293.08,246.91L275.76,247.69 M275.76,247.69L293.06,246.05 M293.12,246.87L275.80,247.51 M275.80,247.51L293.08,245.91 M282.93,250.07L292.47,247.69 M286.39,250.38L292.71,248.79 M283.35,251.93L293.02,249.51 M283.57,278.53L293.20,277.10 M285.30,287.49L295.51,286.98 M285.55,289.15L295.37,288.66 M294.45,288.74L284.54,289.43 M294.59,290.30L284.42,291.01 M294.75,239.70L284.54,240.16 M294.50,238.14L284.55,238.60 M294.45,287.72L284.33,286.85 M294.61,286.19L284.74,285.35 M293.38,275.62L283.36,277.11 M294.65,285.79L284.70,285.12 M288.05,285.42L294.58,285.71 M294.22,235.74L284.41,235.53 M290.92,236.80L284.43,236.65 M284.26,237.42L294.20,237.63 M284.44,287.08L294.65,287.77 M367.25,304.52L367.25,325.24 M367.25,224.49L367.25,203.77 M366.24,254.73L366.24,264.50 M366.24,254.73L366.24,264.50 M366.24,264.50L366.24,274.28 M366.55,264.50L366.55,274.28 M356.14,324.99L365.08,325.40 M361.32,312.37L362.44,323.31 M356.14,204.02L365.08,203.61 M361.32,216.64L362.44,205.70 M222.17,291.29L228.92,288.36 M215.81,292.32L209.28,292.32 M222.17,237.72L228.92,240.65 M215.81,236.69L209.28,236.69 M160.52,291.58L160.52,278.85 M166.58,290.25L168.12,274.23 M162.77,293.47L162.77,273.38 M163.67,271.35L169.81,269.41 M160.52,237.43L160.52,250.15 M166.58,238.76L168.12,254.78 M162.77,235.54L162.77,255.63 M163.67,257.66L169.81,259.60 M289.64,234.11L289.64,232.25 M289.64,294.90L289.64,296.76 M286.97,281.00L288.22,283.40 M286.97,281.00L287.11,276.88 M286.21,264.50L287.11,276.88 M289.64,288.14L285.37,280.73 M287.11,276.88L285.37,280.73 M288.35,243.76L305.67,240.89 M306.99,240.96L288.37,244.25 M288.15,285.29L297.51,287.56 M288.16,284.80L301.03,288.60 M288.18,234.82L298.90,234.56 M288.28,290.60L297.54,291.24 M288.09,285.46L297.44,287.78 M291.22,240.87L287.68,247.97 M289.91,250.89L307.49,251.93 M308.81,252.61L289.88,251.49 M292.33,276.88L292.56,281.00 M290.50,283.40L292.56,281.00 M289.14,273.22L300.29,273.95 M287.78,280.95L305.36,279.65 M306.69,279.23L287.76,280.35 M287.75,280.94L305.33,279.67 M287.73,280.32L306.66,279.22 M288.31,244.97L305.63,246.24 M288.35,243.88L306.98,245.30 M289.87,250.90L307.46,251.91 M289.85,251.52L308.78,252.62 M287.93,282.10L305.25,281.32 M305.25,281.32L287.95,282.96 M291.21,264.50L295.91,252.13 M292.93,264.50L295.91,252.13 M292.93,264.50L288.88,256.63 M287.89,282.14L305.21,281.50 M305.21,281.50L287.93,283.10 M302.43,258.61L295.07,262.78 M291.82,242.01L286.34,245.78 M295.27,284.90L289.43,281.72 M295.34,284.75L289.53,281.58 M297.80,280.39L288.26,282.77 M294.34,280.09L288.02,281.68 M297.38,278.54L287.71,280.95 M297.16,250.48L287.53,251.91 M295.18,239.86L285.36,240.35 M295.43,241.52L285.21,242.03 M295.46,243.31L288.97,243.10 M298.68,243.60L288.77,243.05 M288.76,241.07L298.93,241.63 M298.85,240.58L288.93,241.28 M288.80,239.72L298.97,239.01 M296.18,290.41L286.23,290.87 M285.98,289.31L296.19,288.84 M298.65,244.67L288.78,243.83 M288.93,242.30L299.05,243.16 M287.35,253.39L297.37,251.90 M286.51,293.27L296.31,293.48 M289.80,292.21L296.30,292.36 M296.47,291.59L286.53,291.38" stroke="currentColor" stroke-width="0.6" stroke-linecap="round" fill="none" opacity="0.55" clip-path="url(#hull-clip)" filter="url(#glow)" />
  <path d="M 352.59,343.28 C 352.33,343.31 352.13,343.35 351.91,343.22 C 351.69,343.09 351.48,342.85 351.27,342.51 C 351.07,342.16 350.88,341.71 350.70,341.15 C 350.51,340.59 350.34,339.92 350.17,339.14 C 350.01,338.36 349.85,337.48 349.70,336.48 C 349.56,335.49 349.42,334.39 349.29,333.18 C 349.16,331.97 349.04,330.65 348.93,329.23 C 348.82,327.80 348.72,326.27 348.62,324.62 C 348.53,322.98 348.47,321.04 348.38,319.38 C 348.28,317.71 348.17,316.14 348.04,314.65 C 347.91,313.16 347.77,311.76 347.62,310.45 C 347.46,309.13 347.29,307.90 347.11,306.77 C 346.93,305.63 346.73,304.57 346.52,303.61 C 346.30,302.64 346.08,301.77 345.84,300.98 C 345.60,300.19 345.34,299.48 345.07,298.87 C 344.80,298.25 344.52,297.72 344.22,297.28 C 343.92,296.84 343.58,296.55 343.28,296.22 C 342.98,295.89 342.69,295.58 342.41,295.29 C 342.14,295.00 341.87,294.74 341.62,294.49 C 341.36,294.25 341.12,294.03 340.89,293.83 C 340.66,293.63 340.44,293.45 340.23,293.30 C 340.03,293.14 339.83,293.01 339.65,292.90 C 339.46,292.79 339.29,292.70 339.13,292.63 C 338.97,292.57 338.82,292.52 338.69,292.50 C 338.55,292.48 338.46,292.48 338.31,292.50 C 338.17,292.52 338.01,292.55 337.83,292.59 C 337.65,292.64 337.45,292.70 337.23,292.78 C 337.02,292.86 336.78,292.95 336.53,293.06 C 336.28,293.17 336.01,293.30 335.72,293.44 C 335.43,293.58 335.12,293.73 334.80,293.91 C 334.47,294.08 334.13,294.27 333.77,294.47 C 333.40,294.67 333.02,294.89 332.62,295.12 C 332.23,295.36 331.79,295.64 331.38,295.88 C 330.96,296.11 330.53,296.34 330.11,296.55 C 329.68,296.76 329.26,296.96 328.83,297.14 C 328.40,297.33 327.97,297.50 327.53,297.66 C 327.10,297.82 326.66,297.96 326.22,298.09 C 325.78,298.23 325.34,298.35 324.89,298.45 C 324.45,298.56 324.00,298.65 323.55,298.73 C 323.10,298.82 322.64,298.88 322.19,298.94 C 321.73,298.99 321.25,299.02 320.81,299.06 C 320.38,299.11 319.97,299.15 319.58,299.20 C 319.19,299.25 318.83,299.30 318.48,299.36 C 318.14,299.41 317.83,299.47 317.53,299.53 C 317.24,299.59 316.97,299.65 316.72,299.72 C 316.47,299.78 316.25,299.85 316.05,299.92 C 315.85,299.99 315.67,300.07 315.52,300.14 C 315.36,300.22 315.23,300.29 315.12,300.38 C 315.02,300.46 315.09,300.56 314.88,300.62 C 314.66,300.69 314.30,300.74 313.81,300.78 C 313.32,300.82 312.70,300.84 311.94,300.84 C 311.18,300.85 310.28,300.84 309.25,300.81 C 308.22,300.79 307.05,300.74 305.75,300.69 C 304.45,300.63 303.01,300.56 301.44,300.47 C 299.86,300.38 298.16,300.28 296.31,300.16 C 294.47,300.04 292.49,299.90 290.38,299.75 C 288.26,299.60 285.76,299.39 283.62,299.25 C 281.49,299.11 279.48,299.00 277.59,298.92 C 275.70,298.84 273.93,298.79 272.28,298.77 C 270.63,298.74 269.10,298.75 267.69,298.78 C 266.28,298.82 264.98,298.88 263.81,298.97 C 262.64,299.06 261.59,299.18 260.66,299.33 C 259.72,299.48 258.91,299.65 258.22,299.86 C 257.53,300.07 256.95,300.30 256.50,300.56 C 256.05,300.83 255.82,301.16 255.50,301.44 C 255.18,301.71 254.87,301.97 254.58,302.20 C 254.28,302.44 254.00,302.66 253.73,302.86 C 253.47,303.06 253.21,303.24 252.97,303.41 C 252.73,303.57 252.50,303.72 252.28,303.84 C 252.07,303.97 251.86,304.08 251.67,304.17 C 251.48,304.26 251.30,304.34 251.14,304.39 C 250.98,304.45 250.83,304.48 250.69,304.50 C 250.55,304.52 250.44,304.51 250.31,304.50 C 250.18,304.49 250.04,304.48 249.90,304.46 C 249.75,304.44 249.60,304.42 249.45,304.38 C 249.29,304.35 249.12,304.31 248.95,304.27 C 248.78,304.22 248.61,304.17 248.42,304.11 C 248.24,304.05 248.05,303.99 247.85,303.91 C 247.65,303.84 247.45,303.76 247.24,303.68 C 247.03,303.60 246.82,303.50 246.59,303.41 C 246.37,303.31 246.11,303.20 245.91,303.09 C 245.70,302.98 245.51,302.87 245.35,302.74 C 245.19,302.62 245.05,302.49 244.93,302.35 C 244.81,302.21 244.71,302.07 244.64,301.92 C 244.57,301.77 244.51,301.62 244.48,301.45 C 244.45,301.29 244.45,301.12 244.46,300.95 C 244.48,300.77 244.51,300.59 244.57,300.40 C 244.63,300.21 244.71,300.01 244.81,299.81 C 244.92,299.61 245.08,299.39 245.19,299.19 C 245.30,298.98 245.39,298.77 245.48,298.57 C 245.56,298.37 245.63,298.16 245.68,297.96 C 245.73,297.76 245.77,297.56 245.80,297.36 C 245.82,297.16 245.83,296.96 245.83,296.77 C 245.82,296.57 245.81,296.37 245.77,296.18 C 245.74,295.99 245.69,295.79 245.63,295.60 C 245.57,295.41 245.50,295.22 245.41,295.03 C 245.32,294.84 245.22,294.66 245.09,294.47 C 244.96,294.28 244.81,294.09 244.63,293.90 C 244.45,293.71 244.25,293.51 244.02,293.32 C 243.80,293.13 243.54,292.93 243.27,292.73 C 242.99,292.54 242.69,292.34 242.36,292.14 C 242.03,291.94 241.68,291.74 241.30,291.54 C 240.93,291.34 240.53,291.13 240.10,290.93 C 239.68,290.73 239.23,290.52 238.75,290.31 C 238.27,290.11 237.75,289.87 237.25,289.69 C 236.75,289.51 236.24,289.35 235.73,289.22 C 235.23,289.09 234.72,288.98 234.20,288.91 C 233.69,288.83 233.17,288.78 232.66,288.75 C 232.14,288.72 231.62,288.72 231.09,288.75 C 230.57,288.78 230.04,288.83 229.52,288.91 C 228.99,288.98 228.46,289.09 227.92,289.22 C 227.39,289.35 226.85,289.51 226.31,289.69 C 225.77,289.87 225.22,290.12 224.69,290.31 C 224.15,290.51 223.62,290.69 223.09,290.86 C 222.57,291.03 222.05,291.18 221.53,291.33 C 221.02,291.47 220.51,291.60 220.00,291.72 C 219.49,291.84 218.99,291.94 218.50,292.03 C 218.01,292.12 217.52,292.20 217.03,292.27 C 216.55,292.33 216.07,292.38 215.59,292.42 C 215.12,292.46 214.65,292.49 214.19,292.50 C 213.72,292.51 213.24,292.53 212.81,292.50 C 212.39,292.47 211.99,292.41 211.63,292.32 C 211.27,292.23 210.94,292.11 210.65,291.96 C 210.35,291.81 210.09,291.63 209.86,291.42 C 209.63,291.21 209.43,290.97 209.27,290.70 C 209.10,290.43 208.97,290.13 208.87,289.80 C 208.77,289.48 208.70,289.12 208.66,288.73 C 208.63,288.34 208.63,287.92 208.66,287.47 C 208.69,287.02 208.79,286.49 208.84,286.03 C 208.90,285.58 208.94,285.14 208.97,284.73 C 209.00,284.33 209.02,283.94 209.03,283.58 C 209.04,283.22 209.04,282.88 209.03,282.56 C 209.02,282.25 209.00,281.96 208.97,281.69 C 208.94,281.42 208.90,281.17 208.84,280.95 C 208.79,280.73 208.73,280.53 208.66,280.36 C 208.58,280.18 208.50,280.03 208.41,279.91 C 208.31,279.78 208.23,279.70 208.09,279.59 C 207.96,279.49 207.80,279.39 207.60,279.29 C 207.41,279.19 207.18,279.09 206.93,278.99 C 206.68,278.89 206.39,278.80 206.08,278.70 C 205.76,278.61 205.42,278.51 205.05,278.42 C 204.67,278.33 204.27,278.24 203.84,278.15 C 203.40,278.06 202.94,277.97 202.45,277.88 C 201.95,277.80 201.43,277.71 200.88,277.62 C 200.32,277.54 199.70,277.42 199.12,277.38 C 198.55,277.33 197.97,277.31 197.41,277.33 C 196.84,277.35 196.28,277.40 195.72,277.48 C 195.16,277.57 194.61,277.69 194.06,277.84 C 193.52,278.00 192.97,278.18 192.44,278.41 C 191.90,278.63 191.37,278.88 190.84,279.17 C 190.32,279.46 189.80,279.78 189.28,280.14 C 188.77,280.50 188.26,280.89 187.75,281.31 C 187.24,281.74 186.73,282.26 186.25,282.69 C 185.77,283.12 185.31,283.52 184.88,283.89 C 184.44,284.26 184.02,284.61 183.62,284.92 C 183.23,285.24 182.85,285.52 182.50,285.78 C 182.15,286.04 181.81,286.27 181.50,286.47 C 181.19,286.67 180.90,286.84 180.62,286.98 C 180.35,287.13 180.10,287.24 179.88,287.33 C 179.65,287.41 179.44,287.47 179.25,287.50 C 179.06,287.53 178.92,287.49 178.75,287.50 C 178.58,287.51 178.42,287.52 178.26,287.54 C 178.10,287.56 177.93,287.58 177.77,287.62 C 177.61,287.65 177.45,287.69 177.30,287.73 C 177.14,287.78 176.98,287.83 176.83,287.89 C 176.67,287.95 176.52,288.01 176.37,288.09 C 176.21,288.16 176.06,288.24 175.91,288.32 C 175.76,288.40 175.62,288.50 175.47,288.59 C 175.32,288.69 175.17,288.80 175.03,288.91 C 174.89,289.01 174.75,289.13 174.62,289.24 C 174.48,289.36 174.35,289.48 174.23,289.60 C 174.10,289.73 173.98,289.85 173.86,289.98 C 173.74,290.12 173.63,290.25 173.52,290.39 C 173.40,290.53 173.30,290.67 173.20,290.82 C 173.09,290.97 172.99,291.12 172.90,291.27 C 172.80,291.43 172.71,291.59 172.62,291.75 C 172.54,291.91 172.44,292.07 172.38,292.25 C 172.31,292.43 172.25,292.61 172.21,292.80 C 172.17,293.00 172.14,293.20 172.13,293.41 C 172.12,293.63 172.12,293.85 172.14,294.08 C 172.16,294.31 172.19,294.55 172.23,294.80 C 172.28,295.05 172.34,295.30 172.41,295.57 C 172.49,295.84 172.58,296.11 172.68,296.40 C 172.78,296.68 172.90,296.98 173.03,297.28 C 173.16,297.58 173.36,297.93 173.47,298.22 C 173.58,298.51 173.65,298.79 173.68,299.04 C 173.71,299.29 173.71,299.53 173.66,299.74 C 173.62,299.96 173.54,300.15 173.42,300.33 C 173.30,300.50 173.15,300.66 172.95,300.80 C 172.76,300.93 172.53,301.05 172.26,301.15 C 171.99,301.25 171.68,301.32 171.34,301.38 C 170.99,301.44 170.61,301.48 170.19,301.50 C 169.77,301.52 169.25,301.52 168.81,301.50 C 168.37,301.48 167.95,301.43 167.54,301.35 C 167.13,301.28 166.74,301.18 166.37,301.05 C 165.99,300.93 165.64,300.78 165.30,300.61 C 164.96,300.44 164.63,300.24 164.33,300.02 C 164.02,299.79 163.73,299.55 163.46,299.27 C 163.19,299.00 162.93,298.70 162.70,298.38 C 162.46,298.06 162.24,297.71 162.03,297.34 C 161.83,296.97 161.64,296.58 161.47,296.16 C 161.30,295.73 161.14,295.27 160.99,294.79 C 160.85,294.30 160.72,293.79 160.60,293.24 C 160.49,292.70 160.38,292.12 160.30,291.52 C 160.21,290.91 160.14,290.27 160.08,289.61 C 160.02,288.94 159.98,288.25 159.95,287.52 C 159.92,286.80 159.90,286.04 159.90,285.26 C 159.90,284.47 159.91,283.66 159.94,282.81 C 159.96,281.97 160.04,281.03 160.06,280.19 C 160.09,279.35 160.09,278.55 160.08,277.78 C 160.07,277.02 160.03,276.29 159.98,275.59 C 159.93,274.90 159.87,274.24 159.78,273.62 C 159.70,273.01 159.59,272.42 159.47,271.88 C 159.35,271.33 159.21,270.82 159.05,270.34 C 158.89,269.87 158.71,269.43 158.52,269.03 C 158.32,268.63 158.11,268.27 157.88,267.94 C 157.64,267.61 157.34,267.35 157.12,267.06 C 156.91,266.77 156.72,266.48 156.56,266.19 C 156.41,265.90 156.28,265.60 156.19,265.31 C 156.09,265.02 156.03,264.73 156.00,264.44 C 155.97,264.15 155.97,263.85 156.00,263.56 C 156.03,263.27 156.09,262.98 156.19,262.69 C 156.28,262.40 156.41,262.10 156.56,261.81 C 156.72,261.52 156.91,261.23 157.12,260.94 C 157.34,260.65 157.64,260.39 157.88,260.06 C 158.11,259.73 158.32,259.37 158.52,258.97 C 158.71,258.57 158.89,258.13 159.05,257.66 C 159.21,257.18 159.35,256.67 159.47,256.12 C 159.59,255.58 159.70,254.99 159.78,254.38 C 159.87,253.76 159.93,253.10 159.98,252.41 C 160.03,251.71 160.07,250.98 160.08,250.22 C 160.09,249.45 160.09,248.65 160.06,247.81 C 160.04,246.97 159.97,246.03 159.94,245.19 C 159.91,244.35 159.89,243.54 159.88,242.77 C 159.86,241.99 159.86,241.25 159.88,240.55 C 159.89,239.84 159.91,239.17 159.94,238.53 C 159.97,237.89 160.01,237.29 160.06,236.72 C 160.11,236.15 160.18,235.61 160.25,235.11 C 160.32,234.61 160.41,234.14 160.50,233.70 C 160.59,233.27 160.70,232.87 160.81,232.50 C 160.93,232.13 161.07,231.82 161.19,231.50 C 161.31,231.18 161.43,230.88 161.54,230.60 C 161.65,230.32 161.76,230.05 161.87,229.80 C 161.97,229.56 162.07,229.32 162.17,229.11 C 162.27,228.89 162.36,228.70 162.45,228.52 C 162.54,228.33 162.63,228.17 162.71,228.02 C 162.79,227.88 162.87,227.75 162.95,227.63 C 163.02,227.52 163.09,227.42 163.16,227.34 C 163.22,227.26 163.26,227.21 163.34,227.16 C 163.43,227.10 163.54,227.04 163.68,226.99 C 163.82,226.94 163.98,226.89 164.16,226.85 C 164.35,226.81 164.56,226.77 164.80,226.73 C 165.03,226.70 165.29,226.67 165.58,226.64 C 165.86,226.61 166.17,226.59 166.51,226.57 C 166.84,226.55 167.20,226.54 167.59,226.52 C 167.97,226.51 168.38,226.50 168.81,226.50 C 169.25,226.50 169.77,226.48 170.19,226.50 C 170.61,226.52 170.99,226.56 171.34,226.62 C 171.68,226.68 171.99,226.75 172.26,226.85 C 172.53,226.95 172.76,227.07 172.95,227.20 C 173.15,227.34 173.30,227.50 173.42,227.67 C 173.54,227.85 173.62,228.04 173.66,228.26 C 173.71,228.47 173.71,228.71 173.68,228.96 C 173.65,229.21 173.58,229.49 173.47,229.78 C 173.36,230.07 173.16,230.42 173.03,230.72 C 172.90,231.02 172.78,231.32 172.68,231.60 C 172.58,231.89 172.49,232.16 172.41,232.43 C 172.34,232.70 172.28,232.95 172.23,233.20 C 172.19,233.45 172.16,233.69 172.14,233.92 C 172.12,234.15 172.12,234.37 172.13,234.59 C 172.14,234.80 172.17,235.00 172.21,235.20 C 172.25,235.39 172.31,235.57 172.38,235.75 C 172.44,235.93 172.54,236.09 172.62,236.25 C 172.71,236.41 172.80,236.57 172.90,236.73 C 172.99,236.88 173.09,237.03 173.20,237.18 C 173.30,237.33 173.40,237.47 173.52,237.61 C 173.63,237.75 173.74,237.88 173.86,238.02 C 173.98,238.15 174.10,238.27 174.23,238.40 C 174.35,238.52 174.48,238.64 174.62,238.76 C 174.75,238.87 174.89,238.99 175.03,239.09 C 175.17,239.20 175.32,239.31 175.47,239.41 C 175.62,239.50 175.76,239.60 175.91,239.68 C 176.06,239.76 176.21,239.84 176.37,239.91 C 176.52,239.99 176.67,240.05 176.83,240.11 C 176.98,240.17 177.14,240.22 177.30,240.27 C 177.45,240.31 177.61,240.35 177.77,240.38 C 177.93,240.42 178.10,240.44 178.26,240.46 C 178.42,240.48 178.58,240.49 178.75,240.50 C 178.92,240.51 179.06,240.47 179.25,240.50 C 179.44,240.53 179.65,240.59 179.88,240.67 C 180.10,240.76 180.35,240.87 180.62,241.02 C 180.90,241.16 181.19,241.33 181.50,241.53 C 181.81,241.73 182.15,241.96 182.50,242.22 C 182.85,242.48 183.23,242.76 183.62,243.08 C 184.02,243.39 184.44,243.74 184.88,244.11 C 185.31,244.48 185.77,244.88 186.25,245.31 C 186.73,245.74 187.24,246.26 187.75,246.69 C 188.26,247.11 188.77,247.50 189.28,247.86 C 189.80,248.22 190.32,248.54 190.84,248.83 C 191.37,249.12 191.90,249.37 192.44,249.59 C 192.97,249.82 193.52,250.00 194.06,250.16 C 194.61,250.31 195.16,250.43 195.72,250.52 C 196.28,250.60 196.84,250.65 197.41,250.67 C 197.97,250.69 198.55,250.67 199.12,250.62 C 199.70,250.58 200.32,250.46 200.88,250.38 C 201.43,250.29 201.95,250.20 202.45,250.12 C 202.94,250.03 203.40,249.94 203.84,249.85 C 204.27,249.76 204.67,249.67 205.05,249.58 C 205.42,249.49 205.76,249.39 206.08,249.30 C 206.39,249.20 206.68,249.11 206.93,249.01 C 207.18,248.91 207.41,248.81 207.60,248.71 C 207.80,248.61 207.96,248.51 208.09,248.41 C 208.23,248.30 208.31,248.22 208.41,248.09 C 208.50,247.97 208.58,247.82 208.66,247.64 C 208.73,247.47 208.79,247.27 208.84,247.05 C 208.90,246.83 208.94,246.58 208.97,246.31 C 209.00,246.04 209.02,245.75 209.03,245.44 C 209.04,245.12 209.04,244.78 209.03,244.42 C 209.02,244.06 209.00,243.67 208.97,243.27 C 208.94,242.86 208.90,242.42 208.84,241.97 C 208.79,241.51 208.69,240.98 208.66,240.53 C 208.63,240.08 208.63,239.66 208.66,239.27 C 208.70,238.88 208.77,238.52 208.87,238.20 C 208.97,237.87 209.10,237.57 209.27,237.30 C 209.43,237.03 209.63,236.79 209.86,236.58 C 210.09,236.37 210.35,236.19 210.65,236.04 C 210.94,235.89 211.27,235.77 211.63,235.68 C 211.99,235.59 212.39,235.53 212.81,235.50 C 213.24,235.47 213.72,235.49 214.19,235.50 C 214.65,235.51 215.12,235.54 215.59,235.58 C 216.07,235.62 216.55,235.67 217.03,235.73 C 217.52,235.80 218.01,235.88 218.50,235.97 C 218.99,236.06 219.49,236.16 220.00,236.28 C 220.51,236.40 221.02,236.53 221.53,236.67 C 222.05,236.82 222.57,236.97 223.09,237.14 C 223.62,237.31 224.15,237.49 224.69,237.69 C 225.22,237.88 225.77,238.13 226.31,238.31 C 226.85,238.49 227.39,238.65 227.92,238.78 C 228.46,238.91 228.99,239.02 229.52,239.09 C 230.04,239.17 230.57,239.22 231.09,239.25 C 231.62,239.28 232.14,239.28 232.66,239.25 C 233.17,239.22 233.69,239.17 234.20,239.09 C 234.72,239.02 235.23,238.91 235.73,238.78 C 236.24,238.65 236.75,238.49 237.25,238.31 C 237.75,238.13 238.27,237.89 238.75,237.69 C 239.23,237.48 239.68,237.27 240.10,237.07 C 240.53,236.87 240.93,236.66 241.30,236.46 C 241.68,236.26 242.03,236.06 242.36,235.86 C 242.69,235.66 242.99,235.46 243.27,235.27 C 243.54,235.07 243.80,234.87 244.02,234.68 C 244.25,234.49 244.45,234.29 244.63,234.10 C 244.81,233.91 244.96,233.72 245.09,233.53 C 245.22,233.34 245.32,233.16 245.41,232.97 C 245.50,232.78 245.57,232.59 245.63,232.40 C 245.69,232.21 245.74,232.01 245.77,231.82 C 245.81,231.63 245.82,231.43 245.83,231.23 C 245.83,231.04 245.82,230.84 245.80,230.64 C 245.77,230.44 245.73,230.24 245.68,230.04 C 245.63,229.84 245.56,229.63 245.48,229.43 C 245.39,229.23 245.30,229.02 245.19,228.81 C 245.08,228.61 244.92,228.39 244.81,228.19 C 244.71,227.99 244.63,227.79 244.57,227.60 C 244.51,227.41 244.48,227.23 244.46,227.05 C 244.45,226.88 244.45,226.71 244.48,226.55 C 244.51,226.38 244.57,226.23 244.64,226.08 C 244.71,225.93 244.81,225.79 244.93,225.65 C 245.05,225.51 245.19,225.38 245.35,225.26 C 245.51,225.13 245.70,225.02 245.91,224.91 C 246.11,224.80 246.37,224.69 246.59,224.59 C 246.82,224.50 247.03,224.40 247.24,224.32 C 247.45,224.24 247.65,224.16 247.85,224.09 C 248.05,224.01 248.24,223.95 248.42,223.89 C 248.61,223.83 248.78,223.78 248.95,223.73 C 249.12,223.69 249.29,223.65 249.45,223.62 C 249.60,223.58 249.75,223.56 249.90,223.54 C 250.04,223.52 250.18,223.51 250.31,223.50 C 250.44,223.49 250.54,223.48 250.69,223.50 C 250.83,223.52 251.00,223.56 251.19,223.62 C 251.38,223.69 251.58,223.77 251.81,223.88 C 252.04,223.98 252.29,224.10 252.56,224.25 C 252.83,224.40 253.12,224.56 253.44,224.75 C 253.75,224.94 254.08,225.15 254.44,225.38 C 254.79,225.60 255.17,225.85 255.56,226.12 C 255.96,226.40 256.38,226.69 256.81,227.00 C 257.25,227.31 257.74,227.69 258.19,228.00 C 258.64,228.31 259.07,228.59 259.50,228.84 C 259.93,229.10 260.34,229.33 260.75,229.53 C 261.16,229.73 261.55,229.91 261.94,230.06 C 262.32,230.21 262.70,230.34 263.06,230.44 C 263.43,230.54 263.78,230.61 264.12,230.66 C 264.47,230.70 264.80,230.72 265.12,230.72 C 265.45,230.71 265.76,230.68 266.06,230.62 C 266.36,230.57 266.55,230.46 266.94,230.38 C 267.33,230.29 267.81,230.20 268.39,230.11 C 268.97,230.02 269.65,229.92 270.42,229.83 C 271.20,229.73 272.07,229.63 273.03,229.53 C 274.00,229.43 275.06,229.33 276.22,229.22 C 277.38,229.11 278.63,229.00 279.98,228.89 C 281.34,228.78 282.78,228.66 284.33,228.55 C 285.87,228.43 287.51,228.31 289.25,228.19 C 290.99,228.07 293.03,227.92 294.75,227.81 C 296.47,227.70 298.09,227.60 299.59,227.52 C 301.10,227.43 302.49,227.36 303.78,227.30 C 305.07,227.24 306.24,227.19 307.31,227.16 C 308.38,227.12 309.34,227.10 310.19,227.09 C 311.04,227.09 311.78,227.09 312.41,227.11 C 313.04,227.13 313.56,227.16 313.97,227.20 C 314.38,227.25 314.68,227.30 314.88,227.38 C 315.07,227.45 315.02,227.54 315.12,227.62 C 315.23,227.71 315.36,227.78 315.52,227.86 C 315.67,227.93 315.85,228.01 316.05,228.08 C 316.25,228.15 316.47,228.22 316.72,228.28 C 316.97,228.35 317.24,228.41 317.53,228.47 C 317.83,228.53 318.14,228.59 318.48,228.64 C 318.83,228.70 319.19,228.75 319.58,228.80 C 319.97,228.85 320.38,228.89 320.81,228.94 C 321.25,228.98 321.73,229.01 322.19,229.06 C 322.64,229.12 323.10,229.18 323.55,229.27 C 324.00,229.35 324.45,229.44 324.89,229.55 C 325.34,229.65 325.78,229.77 326.22,229.91 C 326.66,230.04 327.10,230.18 327.53,230.34 C 327.97,230.50 328.40,230.67 328.83,230.86 C 329.26,231.04 329.68,231.24 330.11,231.45 C 330.53,231.66 330.96,231.89 331.38,232.12 C 331.79,232.36 332.23,232.64 332.62,232.88 C 333.02,233.11 333.40,233.33 333.77,233.53 C 334.13,233.73 334.47,233.92 334.80,234.09 C 335.12,234.27 335.43,234.42 335.72,234.56 C 336.01,234.70 336.28,234.83 336.53,234.94 C 336.78,235.05 337.02,235.14 337.23,235.22 C 337.45,235.30 337.65,235.36 337.83,235.41 C 338.01,235.45 338.17,235.48 338.31,235.50 C 338.46,235.52 338.55,235.52 338.69,235.50 C 338.82,235.48 338.97,235.43 339.13,235.37 C 339.29,235.30 339.46,235.21 339.65,235.10 C 339.83,234.99 340.03,234.86 340.23,234.70 C 340.44,234.55 340.66,234.37 340.89,234.17 C 341.12,233.97 341.36,233.75 341.62,233.51 C 341.87,233.26 342.14,233.00 342.41,232.71 C 342.69,232.42 342.98,232.11 343.28,231.78 C 343.58,231.45 343.92,231.16 344.22,230.72 C 344.52,230.28 344.80,229.75 345.07,229.13 C 345.34,228.52 345.60,227.81 345.84,227.02 C 346.08,226.23 346.30,225.36 346.52,224.39 C 346.73,223.43 346.93,222.37 347.11,221.23 C 347.29,220.10 347.46,218.87 347.62,217.55 C 347.77,216.24 347.91,214.84 348.04,213.35 C 348.17,211.86 348.28,210.29 348.38,208.62 C 348.47,206.96 348.53,205.02 348.62,203.38 C 348.72,201.73 348.82,200.20 348.93,198.77 C 349.04,197.35 349.16,196.03 349.29,194.82 C 349.42,193.61 349.56,192.51 349.70,191.52 C 349.85,190.52 350.01,189.64 350.17,188.86 C 350.34,188.08 350.51,187.41 350.70,186.85 C 350.88,186.29 351.07,185.84 351.27,185.49 C 351.48,185.15 351.69,184.91 351.91,184.78 C 352.13,184.65 352.33,184.69 352.59,184.72 C 352.85,184.75 353.15,184.83 353.47,184.97 C 353.79,185.10 354.15,185.29 354.53,185.53 C 354.92,185.77 355.33,186.06 355.78,186.41 C 356.23,186.75 356.71,187.15 357.22,187.59 C 357.73,188.04 358.27,188.54 358.84,189.09 C 359.42,189.65 360.02,190.25 360.66,190.91 C 361.29,191.56 361.96,192.27 362.66,193.03 C 363.35,193.79 364.16,194.69 364.84,195.47 C 365.53,196.25 366.17,197.00 366.76,197.73 C 367.35,198.45 367.90,199.14 368.40,199.80 C 368.90,200.47 369.36,201.10 369.77,201.70 C 370.18,202.31 370.54,202.88 370.86,203.42 C 371.18,203.96 371.45,204.48 371.68,204.96 C 371.91,205.44 372.09,205.90 372.23,206.32 C 372.36,206.74 372.45,207.14 372.50,207.50 C 372.55,207.86 372.49,208.16 372.50,208.50 C 372.51,208.84 372.52,209.18 372.55,209.53 C 372.57,209.88 372.60,210.23 372.64,210.59 C 372.68,210.95 372.73,211.32 372.78,211.69 C 372.84,212.06 372.90,212.43 372.97,212.81 C 373.04,213.19 373.12,213.58 373.20,213.97 C 373.29,214.36 373.38,214.76 373.48,215.16 C 373.59,215.56 373.70,215.96 373.81,216.38 C 373.93,216.79 374.09,217.23 374.19,217.62 C 374.29,218.02 374.37,218.40 374.42,218.77 C 374.48,219.13 374.51,219.47 374.52,219.80 C 374.52,220.12 374.51,220.43 374.47,220.72 C 374.43,221.01 374.37,221.28 374.28,221.53 C 374.20,221.78 374.09,222.02 373.95,222.23 C 373.82,222.45 373.66,222.65 373.48,222.83 C 373.30,223.01 373.10,223.17 372.88,223.31 C 372.65,223.46 372.36,223.55 372.12,223.69 C 371.89,223.82 371.66,223.96 371.45,224.11 C 371.24,224.26 371.04,224.41 370.86,224.58 C 370.67,224.74 370.50,224.91 370.34,225.09 C 370.18,225.27 370.04,225.46 369.91,225.66 C 369.77,225.85 369.65,226.05 369.55,226.27 C 369.44,226.48 369.35,226.70 369.27,226.92 C 369.18,227.15 369.12,227.38 369.06,227.62 C 369.01,227.87 368.93,228.11 368.94,228.38 C 368.94,228.64 368.99,228.91 369.09,229.19 C 369.19,229.47 369.34,229.76 369.53,230.06 C 369.72,230.36 369.96,230.68 370.25,231.00 C 370.54,231.32 370.87,231.66 371.25,232.00 C 371.63,232.34 372.06,232.70 372.53,233.06 C 373.01,233.43 373.53,233.80 374.09,234.19 C 374.66,234.57 375.28,234.97 375.94,235.38 C 376.60,235.78 377.40,236.21 378.06,236.62 C 378.73,237.04 379.35,237.46 379.92,237.88 C 380.50,238.29 381.03,238.71 381.52,239.12 C 382.00,239.54 382.45,239.96 382.84,240.38 C 383.24,240.79 383.60,241.21 383.91,241.62 C 384.22,242.04 384.48,242.46 384.70,242.88 C 384.92,243.29 385.10,243.71 385.23,244.12 C 385.37,244.54 385.46,244.96 385.50,245.38 C 385.54,245.79 385.51,246.23 385.50,246.62 C 385.49,247.02 385.48,247.40 385.45,247.75 C 385.43,248.10 385.40,248.44 385.36,248.75 C 385.32,249.06 385.27,249.35 385.22,249.62 C 385.16,249.90 385.10,250.15 385.03,250.38 C 384.96,250.60 384.88,250.81 384.80,251.00 C 384.71,251.19 384.62,251.35 384.52,251.50 C 384.41,251.65 384.30,251.77 384.19,251.88 C 384.07,251.98 383.93,252.04 383.81,252.12 C 383.70,252.21 383.59,252.31 383.48,252.41 C 383.38,252.51 383.29,252.61 383.20,252.72 C 383.12,252.83 383.04,252.94 382.97,253.06 C 382.90,253.18 382.84,253.31 382.78,253.44 C 382.73,253.57 382.68,253.70 382.64,253.84 C 382.60,253.98 382.57,254.13 382.55,254.28 C 382.52,254.43 382.51,254.59 382.50,254.75 C 382.49,254.91 382.51,255.09 382.50,255.25 C 382.49,255.41 382.48,255.56 382.47,255.70 C 382.45,255.85 382.43,255.98 382.41,256.11 C 382.38,256.24 382.35,256.36 382.31,256.47 C 382.28,256.58 382.23,256.68 382.19,256.78 C 382.14,256.88 382.09,256.97 382.03,257.05 C 381.97,257.13 381.91,257.20 381.84,257.27 C 381.78,257.33 381.70,257.39 381.62,257.44 C 381.55,257.49 381.45,257.49 381.38,257.56 C 381.30,257.63 381.22,257.73 381.16,257.86 C 381.09,257.99 381.03,258.14 380.97,258.33 C 380.91,258.51 380.86,258.73 380.81,258.97 C 380.77,259.21 380.72,259.48 380.69,259.78 C 380.65,260.08 380.62,260.41 380.59,260.77 C 380.57,261.12 380.55,261.51 380.53,261.92 C 380.52,262.34 380.51,262.78 380.50,263.25 C 380.49,263.72 380.49,264.28 380.50,264.75 C 380.51,265.22 380.52,265.66 380.53,266.08 C 380.55,266.49 380.57,266.88 380.59,267.23 C 380.62,267.59 380.65,267.92 380.69,268.22 C 380.72,268.52 380.77,268.79 380.81,269.03 C 380.86,269.27 380.91,269.49 380.97,269.67 C 381.03,269.86 381.09,270.01 381.16,270.14 C 381.22,270.27 381.30,270.37 381.38,270.44 C 381.45,270.51 381.55,270.51 381.62,270.56 C 381.70,270.61 381.78,270.67 381.84,270.73 C 381.91,270.80 381.97,270.87 382.03,270.95 C 382.09,271.03 382.14,271.12 382.19,271.22 C 382.23,271.32 382.28,271.42 382.31,271.53 C 382.35,271.64 382.38,271.76 382.41,271.89 C 382.43,272.02 382.45,272.15 382.47,272.30 C 382.48,272.44 382.49,272.59 382.50,272.75 C 382.51,272.91 382.49,273.09 382.50,273.25 C 382.51,273.41 382.52,273.57 382.55,273.72 C 382.57,273.87 382.60,274.02 382.64,274.16 C 382.68,274.30 382.73,274.43 382.78,274.56 C 382.84,274.69 382.90,274.82 382.97,274.94 C 383.04,275.06 383.12,275.17 383.20,275.28 C 383.29,275.39 383.38,275.49 383.48,275.59 C 383.59,275.69 383.70,275.79 383.81,275.88 C 383.93,275.96 384.07,276.02 384.19,276.12 C 384.30,276.23 384.41,276.35 384.52,276.50 C 384.62,276.65 384.71,276.81 384.80,277.00 C 384.88,277.19 384.96,277.40 385.03,277.62 C 385.10,277.85 385.16,278.10 385.22,278.38 C 385.27,278.65 385.32,278.94 385.36,279.25 C 385.40,279.56 385.43,279.90 385.45,280.25 C 385.48,280.60 385.49,280.98 385.50,281.38 C 385.51,281.77 385.54,282.21 385.50,282.62 C 385.46,283.04 385.37,283.46 385.23,283.88 C 385.10,284.29 384.92,284.71 384.70,285.12 C 384.48,285.54 384.22,285.96 383.91,286.38 C 383.60,286.79 383.24,287.21 382.84,287.62 C 382.45,288.04 382.00,288.46 381.52,288.88 C 381.03,289.29 380.50,289.71 379.92,290.12 C 379.35,290.54 378.73,290.96 378.06,291.38 C 377.40,291.79 376.60,292.22 375.94,292.62 C 375.28,293.03 374.66,293.43 374.09,293.81 C 373.53,294.20 373.01,294.57 372.53,294.94 C 372.06,295.30 371.63,295.66 371.25,296.00 C 370.87,296.34 370.54,296.68 370.25,297.00 C 369.96,297.32 369.72,297.64 369.53,297.94 C 369.34,298.24 369.19,298.53 369.09,298.81 C 368.99,299.09 368.94,299.36 368.94,299.62 C 368.93,299.89 369.01,300.13 369.06,300.38 C 369.12,300.62 369.18,300.85 369.27,301.08 C 369.35,301.30 369.44,301.52 369.55,301.73 C 369.65,301.95 369.77,302.15 369.91,302.34 C 370.04,302.54 370.18,302.73 370.34,302.91 C 370.50,303.09 370.67,303.26 370.86,303.42 C 371.04,303.59 371.24,303.74 371.45,303.89 C 371.66,304.04 371.89,304.18 372.12,304.31 C 372.36,304.45 372.65,304.54 372.88,304.69 C 373.10,304.83 373.30,304.99 373.48,305.17 C 373.66,305.35 373.82,305.55 373.95,305.77 C 374.09,305.98 374.20,306.22 374.28,306.47 C 374.37,306.72 374.43,306.99 374.47,307.28 C 374.51,307.57 374.52,307.88 374.52,308.20 C 374.51,308.53 374.48,308.87 374.42,309.23 C 374.37,309.60 374.29,309.98 374.19,310.38 C 374.09,310.77 373.93,311.21 373.81,311.62 C 373.70,312.04 373.59,312.44 373.48,312.84 C 373.38,313.24 373.29,313.64 373.20,314.03 C 373.12,314.42 373.04,314.81 372.97,315.19 C 372.90,315.57 372.84,315.94 372.78,316.31 C 372.73,316.68 372.68,317.05 372.64,317.41 C 372.60,317.77 372.57,318.12 372.55,318.47 C 372.52,318.82 372.51,319.16 372.50,319.50 C 372.49,319.84 372.55,320.14 372.50,320.50 C 372.45,320.86 372.36,321.26 372.23,321.68 C 372.09,322.10 371.91,322.56 371.68,323.04 C 371.45,323.52 371.18,324.04 370.86,324.58 C 370.54,325.12 370.18,325.69 369.77,326.30 C 369.36,326.90 368.90,327.53 368.40,328.20 C 367.90,328.86 367.35,329.55 366.76,330.27 C 366.17,331.00 365.53,331.75 364.84,332.53 C 364.16,333.31 363.35,334.21 362.66,334.97 C 361.96,335.73 361.29,336.44 360.66,337.09 C 360.02,337.75 359.42,338.35 358.84,338.91 C 358.27,339.46 357.73,339.96 357.22,340.41 C 356.71,340.85 356.23,341.25 355.78,341.59 C 355.33,341.94 354.92,342.23 354.53,342.47 C 354.15,342.71 353.79,342.90 353.47,343.03 C 353.15,343.17 352.85,343.25 352.59,343.28 Z" fill="none" stroke="currentColor" stroke-width="1.5" stroke-linejoin="round" stroke-linecap="round" filter="url(#glow)" />
</svg>