<svg xmlns="http://www.w3.org/2000/svg" width="512" height="512" viewBox="97.04 183.92 357.98 155.54" preserveAspectRatio="xMidYMid meet">
  <defs>
    <filter id="glow" x="-30%" y="-30%" width="160%" height="160%">
      <feGaussianBlur in="SourceGraphic" stdDeviation="2.4" result="blur" />
      <feMerge>
        <feMergeNode in="blur" />
        <feMergeNode in="SourceGraphic" />
      </feMerge>
    </filter>
    <clipPath id="hull-clip">
      <path d="M 382.25,326.50 C 381.46,326.51 380.55,326.51 379.75,326.50 C 378.95,326.49 378.18,326.48 377.45,326.47 C 376.72,326.45 376.02,326.43 375.36,326.41 C 374.70,326.38 374.07,326.35 373.47,326.31 C 372.87,326.28 372.31,326.23 371.78,326.19 C 371.25,326.14 370.76,326.09 370.30,326.03 C 369.84,325.97 369.41,325.91 369.02,325.84 C 368.62,325.78 368.26,325.70 367.94,325.62 C 367.61,325.55 367.35,325.47 367.06,325.38 C 366.77,325.28 366.49,325.18 366.20,325.06 C 365.92,324.95 365.64,324.82 365.36,324.69 C 365.08,324.55 364.80,324.41 364.53,324.25 C 364.26,324.09 363.99,323.93 363.72,323.75 C 363.45,323.57 363.18,323.39 362.92,323.19 C 362.66,322.99 362.40,322.78 362.14,322.56 C 361.88,322.34 361.63,322.11 361.38,321.88 C 361.12,321.64 360.91,321.38 360.62,321.12 C 360.34,320.87 360.01,320.60 359.64,320.33 C 359.27,320.05 358.87,319.77 358.42,319.48 C 357.98,319.20 357.49,318.90 356.97,318.59 C 356.45,318.29 355.88,317.98 355.28,317.66 C 354.68,317.34 354.04,317.01 353.36,316.67 C 352.68,316.34 351.96,315.99 351.20,315.64 C 350.45,315.29 349.65,314.93 348.81,314.56 C 347.98,314.20 347.02,313.81 346.19,313.44 C 345.36,313.06 344.57,312.69 343.82,312.32 C 343.07,311.95 342.37,311.58 341.71,311.21 C 341.05,310.84 340.43,310.48 339.86,310.11 C 339.29,309.74 338.75,309.38 338.27,309.02 C 337.78,308.65 337.33,308.29 336.93,307.93 C 336.53,307.57 336.17,307.21 335.85,306.85 C 335.54,306.49 335.26,306.14 335.03,305.78 C 334.80,305.43 334.67,305.07 334.47,304.72 C 334.27,304.36 334.05,304.01 333.81,303.66 C 333.58,303.30 333.33,302.95 333.06,302.59 C 332.80,302.24 332.52,301.89 332.22,301.53 C 331.92,301.18 331.61,300.82 331.28,300.47 C 330.95,300.11 330.61,299.76 330.25,299.41 C 329.89,299.05 329.52,298.70 329.12,298.34 C 328.73,297.99 328.33,297.64 327.91,297.28 C 327.48,296.93 327.02,296.55 326.59,296.22 C 326.16,295.88 325.74,295.57 325.32,295.27 C 324.90,294.98 324.49,294.70 324.09,294.45 C 323.68,294.19 323.28,293.95 322.89,293.73 C 322.50,293.52 322.11,293.32 321.73,293.14 C 321.36,292.96 320.98,292.80 320.62,292.66 C 320.25,292.52 319.89,292.40 319.54,292.30 C 319.19,292.20 318.84,292.12 318.50,292.06 C 318.16,292.00 317.82,291.98 317.50,291.94 C 317.18,291.89 316.88,291.85 316.59,291.80 C 316.31,291.75 316.04,291.70 315.78,291.64 C 315.53,291.59 315.29,291.53 315.06,291.47 C 314.84,291.41 314.63,291.35 314.44,291.28 C 314.24,291.22 314.07,291.15 313.91,291.08 C 313.74,291.01 313.60,290.93 313.47,290.86 C 313.34,290.78 313.22,290.71 313.12,290.62 C 313.03,290.54 313.16,290.45 312.88,290.38 C 312.59,290.30 312.10,290.23 311.41,290.17 C 310.71,290.11 309.82,290.06 308.72,290.02 C 307.62,289.97 306.32,289.93 304.81,289.91 C 303.31,289.88 301.60,289.86 299.69,289.84 C 297.78,289.83 295.66,289.83 293.34,289.83 C 291.03,289.83 288.51,289.84 285.78,289.86 C 283.06,289.88 280.13,289.90 277.00,289.94 C 273.87,289.97 270.14,290.03 267.00,290.06 C 263.86,290.10 260.90,290.12 258.14,290.14 C 255.38,290.16 252.80,290.17 250.42,290.17 C 248.04,290.17 245.85,290.17 243.84,290.16 C 241.84,290.14 240.03,290.12 238.41,290.09 C 236.78,290.07 235.35,290.03 234.11,289.98 C 232.87,289.94 231.82,289.89 230.95,289.83 C 230.09,289.77 229.42,289.70 228.94,289.62 C 228.46,289.55 228.40,289.45 228.06,289.38 C 227.72,289.30 227.34,289.22 226.91,289.16 C 226.47,289.09 225.99,289.03 225.47,288.97 C 224.94,288.91 224.37,288.86 223.75,288.81 C 223.13,288.77 222.46,288.72 221.75,288.69 C 221.04,288.65 220.28,288.62 219.47,288.59 C 218.66,288.57 217.81,288.55 216.91,288.53 C 216.01,288.52 215.06,288.51 214.06,288.50 C 213.07,288.49 211.96,288.51 210.94,288.50 C 209.91,288.49 208.90,288.48 207.91,288.45 C 206.91,288.43 205.93,288.40 204.97,288.36 C 204.01,288.32 203.06,288.27 202.12,288.22 C 201.19,288.16 200.28,288.10 199.38,288.03 C 198.47,287.96 197.59,287.88 196.72,287.80 C 195.85,287.71 194.99,287.62 194.16,287.52 C 193.32,287.41 192.49,287.30 191.69,287.19 C 190.88,287.07 190.14,286.93 189.31,286.81 C 188.48,286.70 187.61,286.59 186.70,286.48 C 185.79,286.38 184.85,286.29 183.86,286.20 C 182.87,286.12 181.85,286.04 180.78,285.97 C 179.72,285.90 178.61,285.84 177.47,285.78 C 176.33,285.73 175.14,285.68 173.92,285.64 C 172.70,285.60 171.44,285.57 170.14,285.55 C 168.84,285.52 167.50,285.51 166.12,285.50 C 164.75,285.49 163.21,285.49 161.88,285.50 C 160.54,285.51 159.29,285.52 158.12,285.53 C 156.96,285.55 155.88,285.57 154.88,285.59 C 153.88,285.62 152.96,285.65 152.12,285.69 C 151.29,285.72 150.54,285.77 149.88,285.81 C 149.21,285.86 148.62,285.91 148.12,285.97 C 147.62,286.03 147.21,286.09 146.88,286.16 C 146.54,286.22 146.29,286.30 146.12,286.38 C 145.96,286.45 145.97,286.55 145.88,286.62 C 145.78,286.70 145.68,286.78 145.56,286.84 C 145.45,286.91 145.32,286.97 145.19,287.03 C 145.05,287.09 144.91,287.14 144.75,287.19 C 144.59,287.23 144.43,287.28 144.25,287.31 C 144.07,287.35 143.89,287.38 143.69,287.41 C 143.49,287.43 143.28,287.45 143.06,287.47 C 142.84,287.48 142.61,287.49 142.38,287.50 C 142.14,287.51 141.88,287.51 141.62,287.50 C 141.37,287.49 141.10,287.46 140.83,287.42 C 140.55,287.38 140.27,287.33 139.98,287.27 C 139.70,287.20 139.40,287.12 139.09,287.03 C 138.79,286.94 138.48,286.84 138.16,286.72 C 137.84,286.60 137.51,286.47 137.17,286.33 C 136.84,286.18 136.49,286.03 136.14,285.86 C 135.79,285.69 135.43,285.51 135.06,285.31 C 134.70,285.12 134.31,284.89 133.94,284.69 C 133.56,284.49 133.19,284.30 132.81,284.12 C 132.44,283.95 132.06,283.78 131.69,283.62 C 131.31,283.47 130.94,283.32 130.56,283.19 C 130.19,283.05 129.81,282.93 129.44,282.81 C 129.06,282.70 128.69,282.59 128.31,282.50 C 127.94,282.41 127.56,282.32 127.19,282.25 C 126.81,282.18 126.44,282.11 126.06,282.06 C 125.69,282.01 125.29,281.99 124.94,281.94 C 124.58,281.89 124.25,281.83 123.93,281.76 C 123.61,281.69 123.32,281.61 123.04,281.52 C 122.76,281.44 122.50,281.34 122.27,281.23 C 122.03,281.13 121.81,281.01 121.61,280.89 C 121.41,280.77 121.23,280.63 121.07,280.49 C 120.91,280.35 120.77,280.20 120.65,280.04 C 120.53,279.88 120.43,279.71 120.34,279.53 C 120.26,279.35 120.23,279.16 120.16,278.97 C 120.08,278.78 120.00,278.59 119.90,278.40 C 119.80,278.21 119.69,278.01 119.57,277.82 C 119.45,277.63 119.32,277.43 119.17,277.23 C 119.03,277.04 118.87,276.84 118.70,276.64 C 118.54,276.44 118.36,276.24 118.16,276.04 C 117.97,275.84 117.77,275.63 117.55,275.43 C 117.34,275.23 117.11,275.02 116.88,274.81 C 116.64,274.61 116.36,274.40 116.12,274.19 C 115.89,273.98 115.66,273.76 115.44,273.55 C 115.22,273.33 115.01,273.11 114.81,272.89 C 114.61,272.67 114.43,272.45 114.25,272.22 C 114.07,271.99 113.91,271.76 113.75,271.53 C 113.59,271.30 113.45,271.07 113.31,270.83 C 113.18,270.59 113.05,270.35 112.94,270.11 C 112.82,269.87 112.72,269.62 112.62,269.38 C 112.53,269.13 112.46,268.86 112.38,268.62 C 112.29,268.39 112.21,268.16 112.12,267.95 C 112.04,267.74 111.96,267.54 111.88,267.36 C 111.79,267.17 111.71,267.00 111.62,266.84 C 111.54,266.68 111.46,266.54 111.38,266.41 C 111.29,266.27 111.21,266.15 111.12,266.05 C 111.04,265.94 110.96,265.85 110.88,265.77 C 110.79,265.68 110.71,265.62 110.62,265.56 C 110.54,265.51 110.45,265.48 110.38,265.44 C 110.30,265.39 110.24,265.35 110.19,265.30 C 110.14,265.25 110.09,265.20 110.06,265.14 C 110.03,265.09 110.01,265.03 110.00,264.97 C 109.99,264.91 109.99,264.85 110.00,264.78 C 110.01,264.72 110.03,264.65 110.06,264.58 C 110.09,264.51 110.14,264.43 110.19,264.36 C 110.24,264.28 110.30,264.21 110.38,264.12 C 110.45,264.04 110.55,263.96 110.62,263.88 C 110.70,263.79 110.78,263.69 110.84,263.59 C 110.91,263.49 110.97,263.39 111.03,263.28 C 111.09,263.17 111.14,263.06 111.19,262.94 C 111.23,262.82 111.28,262.69 111.31,262.56 C 111.35,262.43 111.38,262.30 111.41,262.16 C 111.43,262.02 111.45,261.87 111.47,261.72 C 111.48,261.57 111.49,261.41 111.50,261.25 C 111.51,261.09 111.51,260.91 111.50,260.75 C 111.49,260.59 111.48,260.44 111.47,260.30 C 111.45,260.15 111.43,260.02 111.41,259.89 C 111.38,259.76 111.35,259.64 111.31,259.53 C 111.28,259.42 111.23,259.32 111.19,259.22 C 111.14,259.12 111.09,259.03 111.03,258.95 C 110.97,258.87 110.91,258.80 110.84,258.73 C 110.78,258.67 110.70,258.61 110.62,258.56 C 110.55,258.51 110.42,258.52 110.38,258.44 C 110.33,258.35 110.32,258.23 110.35,258.05 C 110.38,257.88 110.45,257.67 110.55,257.41 C 110.66,257.16 110.80,256.86 110.98,256.52 C 111.17,256.17 111.38,255.79 111.64,255.36 C 111.90,254.93 112.19,254.46 112.52,253.95 C 112.86,253.43 113.23,252.87 113.63,252.27 C 114.04,251.67 114.49,251.03 114.97,250.34 C 115.45,249.66 116.02,248.84 116.53,248.16 C 117.04,247.47 117.54,246.83 118.02,246.24 C 118.51,245.65 118.98,245.10 119.45,244.60 C 119.91,244.10 120.36,243.64 120.80,243.23 C 121.24,242.82 121.66,242.46 122.08,242.14 C 122.49,241.82 122.90,241.55 123.29,241.32 C 123.68,241.09 124.06,240.91 124.43,240.77 C 124.80,240.64 125.15,240.55 125.50,240.50 C 125.85,240.45 126.16,240.51 126.50,240.50 C 126.84,240.49 127.17,240.46 127.52,240.42 C 127.86,240.38 128.20,240.33 128.55,240.27 C 128.89,240.20 129.24,240.12 129.59,240.03 C 129.95,239.94 130.30,239.84 130.66,239.72 C 131.01,239.60 131.37,239.47 131.73,239.33 C 132.10,239.18 132.46,239.03 132.83,238.86 C 133.20,238.69 133.57,238.51 133.94,238.31 C 134.31,238.12 134.66,237.88 135.06,237.69 C 135.47,237.50 135.91,237.33 136.38,237.17 C 136.84,237.02 137.34,236.88 137.88,236.77 C 138.41,236.65 138.97,236.55 139.56,236.47 C 140.16,236.39 140.78,236.33 141.44,236.28 C 142.09,236.24 142.78,236.21 143.50,236.20 C 144.22,236.20 144.97,236.21 145.75,236.23 C 146.53,236.26 147.34,236.31 148.19,236.38 C 149.03,236.44 149.92,236.55 150.81,236.62 C 151.70,236.70 152.60,236.77 153.52,236.83 C 154.43,236.89 155.36,236.94 156.30,236.98 C 157.24,237.03 158.19,237.07 159.16,237.09 C 160.12,237.12 161.10,237.14 162.09,237.16 C 163.09,237.17 164.09,237.17 165.11,237.17 C 166.13,237.17 167.16,237.16 168.20,237.14 C 169.25,237.12 170.30,237.10 171.38,237.06 C 172.45,237.03 173.59,236.98 174.62,236.94 C 175.66,236.89 176.64,236.85 177.56,236.80 C 178.49,236.75 179.36,236.70 180.19,236.64 C 181.01,236.59 181.78,236.53 182.50,236.47 C 183.22,236.41 183.89,236.35 184.50,236.28 C 185.11,236.22 185.68,236.15 186.19,236.08 C 186.70,236.01 187.16,235.93 187.56,235.86 C 187.97,235.78 188.32,235.71 188.62,235.62 C 188.93,235.54 189.08,235.45 189.38,235.38 C 189.67,235.30 190.01,235.22 190.39,235.16 C 190.77,235.09 191.20,235.03 191.67,234.97 C 192.14,234.91 192.66,234.86 193.22,234.81 C 193.78,234.77 194.38,234.72 195.03,234.69 C 195.68,234.65 196.37,234.62 197.11,234.59 C 197.85,234.57 198.63,234.55 199.45,234.53 C 200.28,234.52 201.15,234.51 202.06,234.50 C 202.98,234.49 203.97,234.51 204.94,234.50 C 205.90,234.49 206.87,234.48 207.84,234.45 C 208.82,234.43 209.80,234.40 210.78,234.36 C 211.77,234.32 212.76,234.27 213.75,234.22 C 214.74,234.16 215.74,234.10 216.75,234.03 C 217.76,233.96 218.77,233.88 219.78,233.80 C 220.80,233.71 221.82,233.62 222.84,233.52 C 223.87,233.41 224.90,233.30 225.94,233.19 C 226.97,233.07 227.90,232.93 229.06,232.81 C 230.23,232.70 231.51,232.59 232.92,232.50 C 234.33,232.41 235.86,232.32 237.52,232.25 C 239.17,232.18 240.95,232.11 242.84,232.06 C 244.74,232.01 246.76,231.97 248.91,231.94 C 251.05,231.91 253.32,231.89 255.70,231.88 C 258.09,231.86 260.60,231.86 263.23,231.88 C 265.87,231.89 268.62,231.91 271.50,231.94 C 274.38,231.97 277.68,232.03 280.50,232.06 C 283.32,232.10 285.95,232.12 288.41,232.14 C 290.86,232.16 293.13,232.17 295.22,232.17 C 297.31,232.17 299.21,232.17 300.94,232.16 C 302.66,232.14 304.20,232.12 305.56,232.09 C 306.92,232.07 308.10,232.03 309.09,231.98 C 310.09,231.94 310.90,231.89 311.53,231.83 C 312.16,231.77 312.61,231.70 312.88,231.62 C 313.14,231.55 313.03,231.45 313.12,231.38 C 313.22,231.30 313.33,231.22 313.45,231.16 C 313.58,231.09 313.71,231.03 313.86,230.97 C 314.01,230.91 314.17,230.86 314.34,230.81 C 314.52,230.77 314.71,230.72 314.91,230.69 C 315.11,230.65 315.32,230.62 315.55,230.59 C 315.77,230.57 316.01,230.55 316.27,230.53 C 316.52,230.52 316.78,230.51 317.06,230.50 C 317.34,230.49 317.63,230.52 317.94,230.50 C 318.24,230.48 318.56,230.43 318.88,230.35 C 319.21,230.28 319.55,230.18 319.90,230.05 C 320.25,229.93 320.61,229.78 320.98,229.61 C 321.36,229.44 321.74,229.24 322.14,229.02 C 322.54,228.79 322.95,228.55 323.37,228.27 C 323.79,228.00 324.22,227.70 324.66,227.38 C 325.11,227.06 325.56,226.71 326.03,226.34 C 326.50,225.97 327.01,225.55 327.47,225.16 C 327.93,224.77 328.36,224.38 328.78,224.00 C 329.20,223.62 329.59,223.24 329.97,222.88 C 330.34,222.51 330.70,222.14 331.03,221.78 C 331.36,221.42 331.68,221.07 331.97,220.72 C 332.26,220.37 332.53,220.03 332.78,219.69 C 333.03,219.35 333.26,219.02 333.47,218.69 C 333.68,218.36 333.86,218.04 334.03,217.72 C 334.20,217.40 334.28,217.10 334.47,216.78 C 334.66,216.47 334.89,216.15 335.16,215.84 C 335.44,215.52 335.76,215.20 336.12,214.88 C 336.48,214.56 336.88,214.24 337.33,213.92 C 337.77,213.60 338.26,213.28 338.80,212.95 C 339.33,212.63 339.90,212.30 340.52,211.98 C 341.14,211.65 341.80,211.32 342.51,210.99 C 343.21,210.66 343.96,210.33 344.75,210.00 C 345.54,209.67 346.44,209.33 347.25,209.00 C 348.06,208.67 348.84,208.33 349.59,208.00 C 350.35,207.67 351.08,207.33 351.78,207.00 C 352.48,206.67 353.16,206.33 353.81,206.00 C 354.46,205.67 355.09,205.33 355.69,205.00 C 356.29,204.67 356.86,204.33 357.41,204.00 C 357.95,203.67 358.47,203.33 358.97,203.00 C 359.46,202.67 359.93,202.33 360.38,202.00 C 360.82,201.67 361.17,201.32 361.62,201.00 C 362.08,200.68 362.58,200.39 363.12,200.11 C 363.67,199.83 364.25,199.57 364.88,199.33 C 365.50,199.09 366.17,198.86 366.88,198.66 C 367.58,198.45 368.33,198.26 369.12,198.09 C 369.92,197.92 370.75,197.77 371.62,197.64 C 372.50,197.51 373.42,197.39 374.38,197.30 C 375.33,197.20 376.33,197.12 377.38,197.06 C 378.42,197.00 379.60,196.97 380.62,196.94 C 381.65,196.91 382.61,196.89 383.52,196.88 C 384.42,196.86 385.26,196.86 386.05,196.88 C 386.83,196.89 387.55,196.91 388.22,196.94 C 388.88,196.97 389.49,197.01 390.03,197.06 C 390.58,197.11 391.06,197.18 391.48,197.25 C 391.91,197.32 392.27,197.41 392.58,197.50 C 392.88,197.59 393.13,197.70 393.31,197.81 C 393.50,197.93 393.53,198.07 393.69,198.19 C 393.85,198.30 394.05,198.41 394.28,198.52 C 394.52,198.62 394.79,198.71 395.09,198.80 C 395.40,198.88 395.74,198.96 396.12,199.03 C 396.51,199.10 396.92,199.16 397.38,199.22 C 397.83,199.27 398.32,199.32 398.84,199.36 C 399.37,199.40 399.93,199.43 400.53,199.45 C 401.13,199.48 401.77,199.49 402.44,199.50 C 403.11,199.51 403.89,199.49 404.56,199.50 C 405.23,199.51 405.87,199.52 406.46,199.54 C 407.06,199.56 407.61,199.58 408.13,199.62 C 408.65,199.65 409.13,199.69 409.58,199.73 C 410.02,199.78 410.43,199.83 410.80,199.89 C 411.17,199.95 411.50,200.01 411.79,200.09 C 412.08,200.16 412.34,200.24 412.55,200.32 C 412.77,200.40 412.95,200.50 413.09,200.59 C 413.24,200.69 413.31,200.80 413.41,200.91 C 413.50,201.01 413.59,201.12 413.66,201.23 C 413.74,201.33 413.81,201.44 413.87,201.55 C 413.93,201.67 413.98,201.78 414.02,201.89 C 414.06,202.00 414.09,202.12 414.11,202.23 C 414.13,202.35 414.14,202.47 414.15,202.59 C 414.15,202.70 414.15,202.82 414.13,202.95 C 414.12,203.07 414.10,203.19 414.06,203.31 C 414.03,203.44 413.97,203.57 413.94,203.69 C 413.90,203.81 413.87,203.93 413.85,204.04 C 413.83,204.15 413.81,204.26 413.80,204.37 C 413.80,204.47 413.79,204.57 413.80,204.67 C 413.80,204.77 413.81,204.86 413.83,204.95 C 413.85,205.04 413.87,205.13 413.90,205.21 C 413.93,205.29 413.96,205.37 414.01,205.45 C 414.05,205.52 414.10,205.59 414.16,205.66 C 414.21,205.72 414.26,205.78 414.34,205.84 C 414.43,205.91 414.53,205.98 414.65,206.05 C 414.77,206.13 414.91,206.21 415.07,206.29 C 415.23,206.37 415.41,206.46 415.61,206.55 C 415.81,206.64 416.03,206.73 416.27,206.83 C 416.50,206.93 416.76,207.03 417.04,207.13 C 417.32,207.24 417.61,207.35 417.93,207.46 C 418.25,207.57 418.58,207.69 418.94,207.81 C 419.29,207.93 419.70,208.06 420.06,208.19 C 420.42,208.31 420.77,208.44 421.10,208.57 C 421.43,208.70 421.75,208.83 422.05,208.96 C 422.36,209.09 422.65,209.23 422.92,209.36 C 423.20,209.49 423.46,209.63 423.70,209.77 C 423.95,209.90 424.18,210.04 424.40,210.18 C 424.62,210.32 424.82,210.46 425.01,210.60 C 425.20,210.74 425.37,210.89 425.53,211.03 C 425.69,211.18 425.83,211.30 425.97,211.47 C 426.11,211.63 426.23,211.82 426.35,212.02 C 426.47,212.23 426.58,212.45 426.68,212.70 C 426.78,212.94 426.87,213.20 426.95,213.48 C 427.04,213.77 427.11,214.07 427.17,214.39 C 427.24,214.71 427.29,215.05 427.34,215.41 C 427.38,215.77 427.42,216.15 427.45,216.55 C 427.47,216.95 427.49,217.37 427.50,217.81 C 427.51,218.25 427.53,218.74 427.50,219.19 C 427.47,219.63 427.42,220.07 427.34,220.48 C 427.27,220.90 427.16,221.31 427.03,221.70 C 426.90,222.10 426.74,222.48 426.56,222.84 C 426.38,223.21 426.17,223.57 425.94,223.91 C 425.70,224.25 425.44,224.58 425.16,224.89 C 424.87,225.21 424.56,225.51 424.22,225.80 C 423.88,226.09 423.52,226.36 423.12,226.62 C 422.73,226.89 422.24,227.12 421.88,227.38 C 421.51,227.62 421.19,227.88 420.92,228.12 C 420.65,228.38 420.43,228.62 420.27,228.88 C 420.10,229.12 419.98,229.38 419.91,229.62 C 419.84,229.88 419.82,230.12 419.84,230.38 C 419.87,230.62 419.95,230.88 420.08,231.12 C 420.21,231.38 420.38,231.62 420.61,231.88 C 420.84,232.12 421.11,232.38 421.44,232.62 C 421.76,232.88 422.21,233.11 422.56,233.38 C 422.91,233.64 423.23,233.92 423.53,234.22 C 423.83,234.52 424.10,234.83 424.34,235.16 C 424.59,235.48 424.81,235.83 425.00,236.19 C 425.19,236.55 425.36,236.92 425.50,237.31 C 425.64,237.70 425.76,238.11 425.84,238.53 C 425.93,238.95 425.99,239.39 426.03,239.84 C 426.07,240.30 426.08,240.77 426.06,241.25 C 426.05,241.73 425.95,242.27 425.94,242.75 C 425.92,243.23 425.94,243.68 425.98,244.10 C 426.02,244.53 426.08,244.93 426.18,245.30 C 426.27,245.68 426.40,246.03 426.55,246.36 C 426.70,246.69 426.87,246.99 427.08,247.27 C 427.28,247.54 427.51,247.80 427.77,248.02 C 428.03,248.25 428.32,248.45 428.63,248.63 C 428.95,248.81 429.29,248.96 429.66,249.09 C 430.02,249.22 430.45,249.29 430.84,249.41 C 431.23,249.52 431.62,249.64 432.00,249.77 C 432.38,249.89 432.76,250.03 433.12,250.17 C 433.49,250.32 433.86,250.47 434.22,250.62 C 434.58,250.78 434.93,250.95 435.28,251.12 C 435.63,251.30 435.97,251.48 436.31,251.67 C 436.65,251.86 436.98,252.06 437.31,252.27 C 437.64,252.47 437.96,252.68 438.28,252.91 C 438.60,253.13 438.93,253.35 439.22,253.59 C 439.51,253.84 439.78,254.10 440.02,254.38 C 440.27,254.66 440.49,254.96 440.70,255.27 C 440.90,255.59 441.08,255.92 441.23,256.27 C 441.39,256.61 441.53,256.98 441.64,257.36 C 441.75,257.74 441.85,258.14 441.91,258.55 C 441.98,258.97 442.03,259.40 442.05,259.85 C 442.08,260.30 442.08,260.77 442.06,261.25 C 442.04,261.73 442.02,262.26 441.94,262.75 C 441.86,263.24 441.74,263.71 441.59,264.16 C 441.43,264.62 441.24,265.06 441.01,265.49 C 440.78,265.92 440.51,266.33 440.20,266.73 C 439.90,267.13 439.55,267.52 439.17,267.89 C 438.79,268.26 438.37,268.62 437.91,268.96 C 437.46,269.30 436.96,269.63 436.43,269.95 C 435.90,270.26 435.33,270.56 434.72,270.84 C 434.11,271.13 433.39,271.37 432.78,271.66 C 432.18,271.94 431.61,272.24 431.09,272.55 C 430.57,272.86 430.09,273.18 429.66,273.52 C 429.22,273.85 428.82,274.20 428.47,274.56 C 428.11,274.92 427.80,275.30 427.53,275.69 C 427.26,276.08 427.03,276.48 426.84,276.89 C 426.66,277.30 426.51,277.73 426.41,278.17 C 426.30,278.61 426.24,279.07 426.22,279.53 C 426.20,280.00 426.28,280.51 426.28,280.97 C 426.28,281.43 426.27,281.88 426.23,282.31 C 426.20,282.74 426.15,283.16 426.08,283.56 C 426.01,283.96 425.92,284.35 425.81,284.72 C 425.71,285.09 425.58,285.44 425.44,285.78 C 425.29,286.12 425.13,286.44 424.95,286.75 C 424.77,287.06 424.58,287.35 424.36,287.62 C 424.14,287.90 423.91,288.16 423.66,288.41 C 423.40,288.65 423.11,288.88 422.84,289.09 C 422.58,289.31 422.33,289.51 422.08,289.70 C 421.83,289.89 421.59,290.07 421.36,290.23 C 421.13,290.40 420.90,290.55 420.69,290.69 C 420.47,290.83 420.26,290.95 420.06,291.06 C 419.86,291.17 419.67,291.27 419.48,291.36 C 419.30,291.45 419.12,291.52 418.95,291.58 C 418.78,291.64 418.62,291.68 418.47,291.72 C 418.32,291.75 418.14,291.75 418.03,291.78 C 417.92,291.81 417.85,291.86 417.80,291.91 C 417.76,291.97 417.76,292.04 417.79,292.12 C 417.82,292.20 417.88,292.29 417.98,292.39 C 418.08,292.49 418.22,292.61 418.39,292.73 C 418.56,292.86 418.77,293.00 419.01,293.15 C 419.25,293.30 419.52,293.46 419.84,293.63 C 420.15,293.81 420.49,293.99 420.88,294.19 C 421.26,294.38 421.73,294.58 422.12,294.81 C 422.52,295.04 422.88,295.30 423.22,295.58 C 423.56,295.86 423.87,296.16 424.16,296.48 C 424.44,296.81 424.70,297.16 424.94,297.53 C 425.17,297.90 425.38,298.30 425.56,298.72 C 425.74,299.14 425.90,299.58 426.03,300.05 C 426.16,300.51 426.27,301.00 426.34,301.52 C 426.42,302.03 426.47,302.57 426.50,303.12 C 426.53,303.68 426.53,304.32 426.50,304.88 C 426.47,305.43 426.42,305.97 426.34,306.48 C 426.25,306.99 426.14,307.47 426.01,307.93 C 425.87,308.39 425.71,308.82 425.52,309.23 C 425.32,309.64 425.11,310.03 424.86,310.39 C 424.61,310.75 424.34,311.09 424.04,311.40 C 423.74,311.71 423.41,312.00 423.05,312.26 C 422.70,312.52 422.32,312.76 421.91,312.97 C 421.50,313.18 421.01,313.35 420.59,313.53 C 420.18,313.71 419.78,313.89 419.41,314.06 C 419.03,314.23 418.68,314.40 418.34,314.56 C 418.01,314.72 417.70,314.88 417.41,315.03 C 417.11,315.18 416.84,315.33 416.59,315.47 C 416.34,315.61 416.11,315.74 415.91,315.88 C 415.70,316.01 415.51,316.13 415.34,316.25 C 415.18,316.37 415.03,316.48 414.91,316.59 C 414.78,316.70 414.69,316.80 414.59,316.91 C 414.50,317.01 414.41,317.12 414.34,317.23 C 414.26,317.33 414.19,317.44 414.13,317.55 C 414.07,317.67 414.02,317.78 413.98,317.89 C 413.94,318.00 413.91,318.12 413.89,318.23 C 413.87,318.35 413.86,318.47 413.85,318.59 C 413.85,318.70 413.85,318.82 413.87,318.95 C 413.88,319.07 413.90,319.19 413.94,319.31 C 413.97,319.44 414.03,319.56 414.06,319.69 C 414.09,319.81 414.11,319.93 414.12,320.05 C 414.12,320.18 414.12,320.30 414.10,320.41 C 414.08,320.53 414.06,320.65 414.02,320.77 C 413.98,320.88 413.92,321.00 413.86,321.11 C 413.80,321.22 413.72,321.33 413.63,321.45 C 413.55,321.56 413.45,321.67 413.34,321.77 C 413.23,321.88 413.10,321.99 412.97,322.09 C 412.83,322.20 412.71,322.31 412.53,322.41 C 412.35,322.50 412.13,322.60 411.88,322.68 C 411.63,322.76 411.35,322.84 411.02,322.91 C 410.70,322.99 410.35,323.05 409.95,323.11 C 409.56,323.17 409.13,323.22 408.67,323.27 C 408.21,323.31 407.71,323.35 407.18,323.38 C 406.65,323.42 406.08,323.44 405.48,323.46 C 404.87,323.48 404.24,323.49 403.56,323.50 C 402.89,323.51 402.11,323.49 401.44,323.50 C 400.77,323.51 400.13,323.52 399.53,323.55 C 398.93,323.57 398.37,323.60 397.84,323.64 C 397.32,323.68 396.83,323.73 396.38,323.78 C 395.92,323.84 395.51,323.90 395.12,323.97 C 394.74,324.04 394.40,324.12 394.09,324.20 C 393.79,324.29 393.52,324.38 393.28,324.48 C 393.05,324.59 392.85,324.70 392.69,324.81 C 392.53,324.93 392.48,325.07 392.31,325.19 C 392.14,325.30 391.93,325.41 391.67,325.52 C 391.41,325.62 391.11,325.71 390.77,325.80 C 390.42,325.88 390.03,325.96 389.59,326.03 C 389.16,326.10 388.68,326.16 388.16,326.22 C 387.63,326.27 387.07,326.32 386.45,326.36 C 385.84,326.40 385.18,326.43 384.48,326.45 C 383.78,326.48 383.04,326.49 382.25,326.50 Z" />
    </clipPath>
  </defs>
  <path d="M 382.25,326.50 C 381.46,326.51 380.55,326.51 379.75,326.50 C 378.95,326.49 378.18,326.48 377.45,326.47 C 376.72,326.45 376.02,326.43 375.36,326.41 C 374.70,326.38 374.07,326.35 373.47,326.31 C 372.87,326.28 372.31,326.23 371.78,326.19 C 371.25,326.14 370.76,326.09 370.30,326.03 C 369.84,325.97 369.41,325.91 369.02,325.84 C 368.62,325.78 368.26,325.70 367.94,325.62 C 367.61,325.55 367.35,325.47 367.06,325.38 C 366.77,325.28 366.49,325.18 366.20,325.06 C 365.92,324.95 365.64,324.82 365.36,324.69 C 365.08,324.55 364.80,324.41 364.53,324.25 C 364.26,324.09 363.99,323.93 363.72,323.75 C 363.45,323.57 363.18,323.39 362.92,323.19 C 362.66,322.99 362.40,322.78 362.14,322.56 C 361.88,322.34 361.63,322.11 361.38,321.88 C 361.12,321.64 360.91,321.38 360.62,321.12 C 360.34,320.87 360.01,320.60 359.64,320.33 C 359.27,320.05 358.87,319.77 358.42,319.48 C 357.98,319.20 357.49,318.90 356.97,318.59 C 356.45,318.29 355.88,317.98 355.28,317.66 C 354.68,317.34 354.04,317.01 353.36,316.67 C 352.68,316.34 351.96,315.99 351.20,315.64 C 350.45,315.29 349.65,314.93 348.81,314.56 C 347.98,314.20 347.02,313.81 346.19,313.44 C 345.36,313.06 344.57,312.69 343.82,312.32 C 343.07,311.95 342.37,311.58 341.71,311.21 C 341.05,310.84 340.43,310.48 339.86,310.11 C 339.29,309.74 338.75,309.38 338.27,309.02 C 337.78,308.65 337.33,308.29 336.93,307.93 C 336.53,307.57 336.17,307.21 335.85,306.85 C 335.54,306.49 335.26,306.14 335.03,305.78 C 334.80,305.43 334.67,305.07 334.47,304.72 C 334.27,304.36 334.05,304.01 333.81,303.66 C 333.58,303.30 333.33,302.95 333.06,302.59 C 332.80,302.24 332.52,301.89 332.22,301.53 C 331.92,301.18 331.61,300.82 331.28,300.47 C 330.95,300.11 330.61,299.76 330.25,299.41 C 329.89,299.05 329.52,298.70 329.12,298.34 C 328.73,297.99 328.33,297.64 327.91,297.28 C 327.48,296.93 327.02,296.55 326.59,296.22 C 326.16,295.88 325.74,295.57 325.32,295.27 C 324.90,294.98 324.49,294.70 324.09,294.45 C 323.68,294.19 323.28,293.95 322.89,293.73 C 322.50,293.52 322.11,293.32 321.73,293.14 C 321.36,292.96 320.98,292.80 320.62,292.66 C 320.25,292.52 319.89,292.40 319.54,292.30 C 319.19,292.20 318.84,292.12 318.50,292.06 C 318.16,292.00 317.82,291.98 317.50,291.94 C 317.18,291.89 316.88,291.85 316.59,291.80 C 316.31,291.75 316.04,291.70 315.78,291.64 C 315.53,291.59 315.29,291.53 315.06,291.47 C 314.84,291.41 314.63,291.35 314.44,291.28 C 314.24,291.22 314.07,291.15 313.91,291.08 C 313.74,291.01 313.60,290.93 313.47,290.86 C 313.34,290.78 313.22,290.71 313.12,290.62 C 313.03,290.54 313.16,290.45 312.88,290.38 C 312.59,290.30 312.10,290.23 311.41,290.17 C 310.71,290.11 309.82,290.06 308.72,290.02 C 307.62,289.97 306.32,289.93 304.81,289.91 C 303.31,289.88 301.60,289.86 299.69,289.84 C 297.78,289.83 295.66,289.83 293.34,289.83 C 291.03,289.83 288.51,289.84 285.78,289.86 C 283.06,289.88 280.13,289.90 277.00,289.94 C 273.87,289.97 270.14,290.03 267.00,290.06 C 263.86,290.10 260.90,290.12 258.14,290.14 C 255.38,290.16 252.80,290.17 250.42,290.17 C 248.04,290.17 245.85,290.17 243.84,290.16 C 241.84,290.14 240.03,290.12 238.41,290.09 C 236.78,290.07 235.35,290.03 234.11,289.98 C 232.87,289.94 231.82,289.89 230.95,289.83 C 230.09,289.77 229.42,289.70 228.94,289.62 C 228.46,289.55 228.40,289.45 228.06,289.38 C 227.72,289.30 227.34,289.22 226.91,289.16 C 226.47,289.09 225.99,289.03 225.47,288.97 C 224.94,288.91 224.37,288.86 223.75,288.81 C 223.13,288.77 222.46,288.72 221.75,288.69 C 221.04,288.65 220.28,288.62 219.47,288.59 C 218.66,288.57 217.81,288.55 216.91,288.53 C 216.01,288.52 215.06,288.51 214.06,288.50 C 213.07,288.49 211.96,288.51 210.94,288.50 C 209.91,288.49 208.90,288.48 207.91,288.45 C 206.91,288.43 205.93,288.40 204.97,288.36 C 204.01,288.32 203.06,288.27 202.12,288.22 C 201.19,288.16 200.28,288.10 199.38,288.03 C 198.47,287.96 197.59,287.88 196.72,287.80 C 195.85,287.71 194.99,287.62 194.16,287.52 C 193.32,287.41 192.49,287.30 191.69,287.19 C 190.88,287.07 190.14,286.93 189.31,286.81 C 188.48,286.70 187.61,286.59 186.70,286.48 C 185.79,286.38 184.85,286.29 183.86,286.20 C 182.87,286.12 181.85,286.04 180.78,285.97 C 179.72,285.90 178.61,285.84 177.47,285.78 C 176.33,285.73 175.14,285.68 173.92,285.64 C 172.70,285.60 171.44,285.57 170.14,285.55 C 168.84,285.52 167.50,285.51 166.12,285.50 C 164.75,285.49 163.21,285.49 161.88,285.50 C 160.54,285.51 159.29,285.52 158.12,285.53 C 156.96,285.55 155.88,285.57 154.88,285.59 C 153.88,285.62 152.96,285.65 152.12,285.69 C 151.29,285.72 150.54,285.77 149.88,285.81 C 149.21,285.86 148.62,285.91 148.12,285.97 C 147.62,286.03 147.21,286.09 146.88,286.16 C 146.54,286.22 146.29,286.30 146.12,286.38 C 145.96,286.45 145.97,286.55 145.88,286.62 C 145.78,286.70 145.68,286.78 145.56,286.84 C 145.45,286.91 145.32,286.97 145.19,287.03 C 145.05,287.09 144.91,287.14 144.75,287.19 C 144.59,287.23 144.43,287.28 144.25,287.31 C 144.07,287.35 143.89,287.38 143.69,287.41 C 143.49,287.43 143.28,287.45 143.06,287.47 C 142.84,287.48 142.61,287.49 142.38,287.50 C 142.14,287.51 141.88,287.51 141.62,287.50 C 141.37,287.49 141.10,287.46 140.83,287.42 C 140.55,287.38 140.27,287.33 139.98,287.27 C 139.70,287.20 139.40,287.12 139.09,287.03 C 138.79,286.94 138.48,286.84 138.16,286.72 C 137.84,286.60 137.51,286.47 137.17,286.33 C 136.84,286.18 136.49,286.03 136.14,285.86 C 135.79,285.69 135.43,285.51 135.06,285.31 C 134.70,285.12 134.31,284.89 133.94,284.69 C 133.56,284.49 133.19,284.30 132.81,284.12 C 132.44,283.95 132.06,283.78 131.69,283.62 C 131.31,283.47 130.94,283.32 130.56,283.19 C 130.19,283.05 129.81,282.93 129.44,282.81 C 129.06,282.70 128.69,282.59 128.31,282.50 C 127.94,282.41 127.56,282.32 127.19,282.25 C 126.81,282.18 126.44,282.11 126.06,282.06 C 125.69,282.01 125.29,281.99 124.94,281.94 C 124.58,281.89 124.25,281.83 123.93,281.76 C 123.61,281.69 123.32,281.61 123.04,281.52 C 122.76,281.44 122.50,281.34 122.27,281.23 C 122.03,281.13 121.81,281.01 121.61,280.89 C 121.41,280.77 121.23,280.63 121.07,280.49 C 120.91,280.35 120.77,280.20 120.65,280.04 C 120.53,279.88 120.43,279.71 120.34,279.53 C 120.26,279.35 120.23,279.16 120.16,278.97 C 120.08,278.78 120.00,278.59 119.90,278.40 C 119.80,278.21 119.69,278.01 119.57,277.82 C 119.45,277.63 119.32,277.43 119.17,277.23 C 119.03,277.04 118.87,276.84 118.70,276.64 C 118.54,276.44 118.36,276.24 118.16,276.04 C 117.97,275.84 117.77,275.63 117.55,275.43 C 117.34,275.23 117.11,275.02 116.88,274.81 C 116.64,274.61 116.36,274.40 116.12,274.19 C 115.89,273.98 115.66,273.76 115.44,273.55 C 115.22,273.33 115.01,273.11 114.81,272.89 C 114.61,272.67 114.43,272.45 114.25,272.22 C 114.07,271.99 113.91,271.76 113.75,271.53 C 113.59,271.30 113.45,271.07 113.31,270.83 C 113.18,270.59 113.05,270.35 112.94,270.11 C 112.82,269.87 112.72,269.62 112.62,269.38 C 112.53,269.13 112.46,268.86 112.38,268.62 C 112.29,268.39 112.21,268.16 112.12,267.95 C 112.04,267.74 111.96,267.54 111.88,267.36 C 111.79,267.17 111.71,267.00 111.62,266.84 C 111.54,266.68 111.46,266.54 111.38,266.41 C 111.29,266.27 111.21,266.15 111.12,266.05 C 111.04,265.94 110.96,265.85 110.88,265.77 C 110.79,265.68 110.71,265.62 110.62,265.56 C 110.54,265.51 110.45,265.48 110.38,265.44 C 110.30,265.39 110.24,265.35 110.19,265.30 C 110.14,265.25 110.09,265.20 110.06,265.14 C 110.03,265.09 110.01,265.03 110.00,264.97 C 109.99,264.91 109.99,264.85 110.00,264.78 C 110.01,264.72 110.03,264.65 110.06,264.58 C 110.09,264.51 110.14,264.43 110.19,264.36 C 110.24,264.28 110.30,264.21 110.38,264.12 C 110.45,264.04 110.55,263.96 110.62,263.88 C 110.70,263.79 110.78,263.69 110.84,263.59 C 110.91,263.49 110.97,263.39 111.03,263.28 C 111.09,263.17 111.14,263.06 111.19,262.94 C 111.23,262.82 111.28,262.69 111.31,262.56 C 111.35,262.43 111.38,262.30 111.41,262.16 C 111.43,262.02 111.45,261.87 111.47,261.72 C 111.48,261.57 111.49,261.41 111.50,261.25 C 111.51,261.09 111.51,260.91 111.50,260.75 C 111.49,260.59 111.48,260.44 111.47,260.30 C 111.45,260.15 111.43,260.02 111.41,259.89 C 111.38,259.76 111.35,259.64 111.31,259.53 C 111.28,259.42 111.23,259.32 111.19,259.22 C 111.14,259.12 111.09,259.03 111.03,258.95 C 110.97,258.87 110.91,258.80 110.84,258.73 C 110.78,258.67 110.70,258.61 110.62,258.56 C 110.55,258.51 110.42,258.52 110.38,258.44 C 110.33,258.35 110.32,258.23 110.35,258.05 C 110.38,257.88 110.45,257.67 110.55,257.41 C 110.66,257.16 110.80,256.86 110.98,256.52 C 111.17,256.17 111.38,255.79 111.64,255.36 C 111.90,254.93 112.19,254.46 112.52,253.95 C 112.86,253.43 113.23,252.87 113.63,252.27 C 114.04,251.67 114.49,251.03 114.97,250.34 C 115.45,249.66 116.02,248.84 116.53,248.16 C 117.04,247.47 117.54,246.83 118.02,246.24 C 118.51,245.65 118.98,245.10 119.45,244.60 C 119.91,244.10 120.36,243.64 120.80,243.23 C 121.24,242.82 121.66,242.46 122.08,242.14 C 122.49,241.82 122.90,241.55 123.29,241.32 C 123.68,241.09 124.06,240.91 124.43,240.77 C 124.80,240.64 125.15,240.55 125.50,240.50 C 125.85,240.45 126.16,240.51 126.50,240.50 C 126.84,240.49 127.17,240.46 127.52,240.42 C 127.86,240.38 128.20,240.33 128.55,240.27 C 128.89,240.20 129.24,240.12 129.59,240.03 C 129.95,239.94 130.30,239.84 130.66,239.72 C 131.01,239.60 131.37,239.47 131.73,239.33 C 132.10,239.18 132.46,239.03 132.83,238.86 C 133.20,238.69 133.57,238.51 133.94,238.31 C 134.31,238.12 134.66,237.88 135.06,237.69 C 135.47,237.50 135.91,237.33 136.38,237.17 C 136.84,237.02 137.34,236.88 137.88,236.77 C 138.41,236.65 138.97,236.55 139.56,236.47 C 140.16,236.39 140.78,236.33 141.44,236.28 C 142.09,236.24 142.78,236.21 143.50,236.20 C 144.22,236.20 144.97,236.21 145.75,236.23 C 146.53,236.26 147.34,236.31 148.19,236.38 C 149.03,236.44 149.92,236.55 150.81,236.62 C 151.70,236.70 152.60,236.77 153.52,236.83 C 154.43,236.89 155.36,236.94 156.30,236.98 C 157.24,237.03 158.19,237.07 159.16,237.09 C 160.12,237.12 161.10,237.14 162.09,237.16 C 163.09,237.17 164.09,237.17 165.11,237.17 C 166.13,237.17 167.16,237.16 168.20,237.14 C 169.25,237.12 170.30,237.10 171.38,237.06 C 172.45,237.03 173.59,236.98 174.62,236.94 C 175.66,236.89 176.64,236.85 177.56,236.80 C 178.49,236.75 179.36,236.70 180.19,236.64 C 181.01,236.59 181.78,236.53 182.50,236.47 C 183.22,236.41 183.89,236.35 184.50,236.28 C 185.11,236.22 185.68,236.15 186.19,236.08 C 186.70,236.01 187.16,235.93 187.56,235.86 C 187.97,235.78 188.32,235.71 188.62,235.62 C 188.93,235.54 189.08,235.45 189.38,235.38 C 189.67,235.30 190.01,235.22 190.39,235.16 C 190.77,235.09 191.20,235.03 191.67,234.97 C 192.14,234.91 192.66,234.86 193.22,234.81 C 193.78,234.77 194.38,234.72 195.03,234.69 C 195.68,234.65 196.37,234.62 197.11,234.59 C 197.85,234.57 198.63,234.55 199.45,234.53 C 200.28,234.52 201.15,234.51 202.06,234.50 C 202.98,234.49 203.97,234.51 204.94,234.50 C 205.90,234.49 206.87,234.48 207.84,234.45 C 208.82,234.43 209.80,234.40 210.78,234.36 C 211.77,234.32 212.76,234.27 213.75,234.22 C 214.74,234.16 215.74,234.10 216.75,234.03 C 217.76,233.96 218.77,233.88 219.78,233.80 C 220.80,233.71 221.82,233.62 222.84,233.52 C 223.87,233.41 224.90,233.30 225.94,233.19 C 226.97,233.07 227.90,232.93 229.06,232.81 C 230.23,232.70 231.51,232.59 232.92,232.50 C 234.33,232.41 235.86,232.32 237.52,232.25 C 239.17,232.18 240.95,232.11 242.84,232.06 C 244.74,232.01 246.76,231.97 248.91,231.94 C 251.05,231.91 253.32,231.89 255.70,231.88 C 258.09,231.86 260.60,231.86 263.23,231.88 C 265.87,231.89 268.62,231.91 271.50,231.94 C 274.38,231.97 277.68,232.03 280.50,232.06 C 283.32,232.10 285.95,232.12 288.41,232.14 C 290.86,232.16 293.13,232.17 295.22,232.17 C 297.31,232.17 299.21,232.17 300.94,232.16 C 302.66,232.14 304.20,232.12 305.56,232.09 C 306.92,232.07 308.10,232.03 309.09,231.98 C 310.09,231.94 310.90,231.89 311.53,231.83 C 312.16,231.77 312.61,231.70 312.88,231.62 C 313.14,231.55 313.03,231.45 313.12,231.38 C 313.22,231.30 313.33,231.22 313.45,231.16 C 313.58,231.09 313.71,231.03 313.86,230.97 C 314.01,230.91 314.17,230.86 314.34,230.81 C 314.52,230.77 314.71,230.72 314.91,230.69 C 315.11,230.65 315.32,230.62 315.55,230.59 C 315.77,230.57 316.01,230.55 316.27,230.53 C 316.52,230.52 316.78,230.51 317.06,230.50 C 317.34,230.49 317.63,230.52 317.94,230.50 C 318.24,230.48 318.56,230.43 318.88,230.35 C 319.21,230.28 319.55,230.18 319.90,230.05 C 320.25,229.93 320.61,229.78 320.98,229.61 C 321.36,229.44 321.74,229.24 322.14,229.02 C 322.54,228.79 322.95,228.55 323.37,228.27 C 323.79,228.00 324.22,227.70 324.66,227.38 C 325.11,227.06 325.56,226.71 326.03,226.34 C 326.50,225.97 327.01,225.55 327.47,225.16 C 327.93,224.77 328.36,224.38 328.78,224.00 C 329.20,223.62 329.59,223.24 329.97,222.88 C 330.34,222.51 330.70,222.14 331.03,221.78 C 331.36,221.42 331.68,221.07 331.97,220.72 C 332.26,220.37 332.53,220.03 332.78,219.69 C 333.03,219.35 333.26,219.02 333.47,218.69 C 333.68,218.36 333.86,218.04 334.03,217.72 C 334.20,217.40 334.28,217.10 334.47,216.78 C 334.66,216.47 334.89,216.15 335.16,215.84 C 335.44,215.52 335.76,215.20 336.12,214.88 C 336.48,214.56 336.88,214.24 337.33,213.92 C 337.77,213.60 338.26,213.28 338.80,212.95 C 339.33,212.63 339.90,212.30 340.52,211.98 C 341.14,211.65 341.80,211.32 342.51,210.99 C 343.21,210.66 343.96,210.33 344.75,210.00 C 345.54,209.67 346.44,209.33 347.25,209.00 C 348.06,208.67 348.84,208.33 349.59,208.00 C 350.35,207.67 351.08,207.33 351.78,207.00 C 352.48,206.67 353.16,206.33 353.81,206.00 C 354.46,205.67 355.09,205.33 355.69,205.00 C 356.29,204.67 356.86,204.33 357.41,204.00 C 357.95,203.67 358.47,203.33 358.97,203.00 C 359.46,202.67 359.93,202.33 360.38,202.00 C 360.82,201.67 361.17,201.32 361.62,201.00 C 362.08,200.68 362.58,200.39 363.12,200.11 C 363.67,199.83 364.25,199.57 364.88,199.33 C 365.50,199.09 366.17,198.86 366.88,198.66 C 367.58,198.45 368.33,198.26 369.12,198.09 C 369.92,197.92 370.75,197.77 371.62,197.64 C 372.50,197.51 373.42,197.39 374.38,197.30 C 375.33,197.20 376.33,197.12 377.38,197.06 C 378.42,197.00 379.60,196.97 380.62,196.94 C 381.65,196.91 382.61,196.89 383.52,196.88 C 384.42,196.86 385.26,196.86 386.05,196.88 C 386.83,196.89 387.55,196.91 388.22,196.94 C 388.88,196.97 389.49,197.01 390.03,197.06 C 390.58,197.11 391.06,197.18 391.48,197.25 C 391.91,197.32 392.27,197.41 392.58,197.50 C 392.88,197.59 393.13,197.70 393.31,197.81 C 393.50,197.93 393.53,198.07 393.69,198.19 C 393.85,198.30 394.05,198.41 394.28,198.52 C 394.52,198.62 394.79,198.71 395.09,198.80 C 395.40,198.88 395.74,198.96 396.12,199.03 C 396.51,199.10 396.92,199.16 397.38,199.22 C 397.83,199.27 398.32,199.32 398.84,199.36 C 399.37,199.40 399.93,199.43 400.53,199.45 C 401.13,199.48 401.77,199.49 402.44,199.50 C 403.11,199.51 403.89,199.49 404.56,199.50 C 405.23,199.51 405.87,199.52 406.46,199.54 C 407.06,199.56 407.61,199.58 408.13,199.62 C 408.65,199.65 409.13,199.69 409.58,199.73 C 410.02,199.78 410.43,199.83 410.80,199.89 C 411.17,199.95 411.50,200.01 411.79,200.09 C 412.08,200.16 412.34,200.24 412.55,200.32 C 412.77,200.40 412.95,200.50 413.09,200.59 C 413.24,200.69 413.31,200.80 413.41,200.91 C 413.50,201.01 413.59,201.12 413.66,201.23 C 413.74,201.33 413.81,201.44 413.87,201.55 C 413.93,201.67 413.98,201.78 414.02,201.89 C 414.06,202.00 414.09,202.12 414.11,202.23 C 414.13,202.35 414.14,202.47 414.15,202.59 C 414.15,202.70 414.15,202.82 414.13,202.95 C 414.12,203.07 414.10,203.19 414.06,203.31 C 414.03,203.44 413.97,203.57 413.94,203.69 C 413.90,203.81 413.87,203.93 413.85,204.04 C 413.83,204.15 413.81,204.26 413.80,204.37 C 413.80,204.47 413.79,204.57 413.80,204.67 C 413.80,204.77 413.81,204.86 413.83,204.95 C 413.85,205.04 413.87,205.13 413.90,205.21 C 413.93,205.29 413.96,205.37 414.01,205.45 C 414.05,205.52 414.10,205.59 414.16,205.66 C 414.21,205.72 414.26,205.78 414.34,205.84 C 414.43,205.91 414.53,205.98 414.65,206.05 C 414.77,206.13 414.91,206.21 415.07,206.29 C 415.23,206.37 415.41,206.46 415.61,206.55 C 415.81,206.64 416.03,206.73 416.27,206.83 C 416.50,206.93 416.76,207.03 417.04,207.13 C 417.32,207.24 417.61,207.35 417.93,207.46 C 418.25,207.57 418.58,207.69 418.94,207.81 C 419.29,207.93 419.70,208.06 420.06,208.19 C 420.42,208.31 420.77,208.44 421.10,208.57 C 421.43,208.70 421.75,208.83 422.05,208.96 C 422.36,209.09 422.65,209.23 422.92,209.36 C 423.20,209.49 423.46,209.63 423.70,209.77 C 423.95,209.90 424.18,210.04 424.40,210.18 C 424.62,210.32 424.82,210.46 425.01,210.60 C 425.20,210.74 425.37,210.89 425.53,211.03 C 425.69,211.18 425.83,211.30 425.97,211.47 C 426.11,211.63 426.23,211.82 426.35,212.02 C 426.47,212.23 426.58,212.45 426.68,212.70 C 426.78,212.94 426.87,213.20 426.95,213.48 C 427.04,213.77 427.11,214.07 427.17,214.39 C 427.24,214.71 427.29,215.05 427.34,215.41 C 427.38,215.77 427.42,216.15 427.45,216.55 C 427.47,216.95 427.49,217.37 427.50,217.81 C 427.51,218.25 427.53,218.74 427.50,219.19 C 427.47,219.63 427.42,220.07 427.34,220.48 C 427.27,220.90 427.16,221.31 427.03,221.70 C 426.90,222.10 426.74,222.48 426.56,222.84 C 426.38,223.21 426.17,223.57 425.94,223.91 C 425.70,224.25 425.44,224.58 425.16,224.89 C 424.87,225.21 424.56,225.51 424.22,225.80 C 423.88,226.09 423.52,226.36 423.12,226.62 C 422.73,226.89 422.24,227.12 421.88,227.38 C 421.51,227.62 421.19,227.88 420.92,228.12 C 420.65,228.38 420.43,228.62 420.27,228.88 C 420.10,229.12 419.98,229.38 419.91,229.62 C 419.84,229.88 419.82,230.12 419.84,230.38 C 419.87,230.62 419.95,230.88 420.08,231.12 C 420.21,231.38 420.38,231.62 420.61,231.88 C 420.84,232.12 421.11,232.38 421.44,232.62 C 421.76,232.88 422.21,233.11 422.56,233.38 C 422.91,233.64 423.23,233.92 423.53,234.22 C 423.83,234.52 424.10,234.83 424.34,235.16 C 424.59,235.48 424.81,235.83 425.00,236.19 C 425.19,236.55 425.36,236.92 425.50,237.31 C 425.64,237.70 425.76,238.11 425.84,238.53 C 425.93,238.95 425.99,239.39 426.03,239.84 C 426.07,240.30 426.08,240.77 426.06,241.25 C 426.05,241.73 425.95,242.27 425.94,242.75 C 425.92,243.23 425.94,243.68 425.98,244.10 C 426.02,244.53 426.08,244.93 426.18,245.30 C 426.27,245.68 426.40,246.03 426.55,246.36 C 426.70,246.69 426.87,246.99 427.08,247.27 C 427.28,247.54 427.51,247.80 427.77,248.02 C 428.03,248.25 428.32,248.45 428.63,248.63 C 428.95,248.81 429.29,248.96 429.66,249.09 C 430.02,249.22 430.45,249.29 430.84,249.41 C 431.23,249.52 431.62,249.64 432.00,249.77 C 432.38,249.89 432.76,250.03 433.12,250.17 C 433.49,250.32 433.86,250.47 434.22,250.62 C 434.58,250.78 434.93,250.95 435.28,251.12 C 435.63,251.30 435.97,251.48 436.31,251.67 C 436.65,251.86 436.98,252.06 437.31,252.27 C 437.64,252.47 437.96,252.68 438.28,252.91 C 438.60,253.13 438.93,253.35 439.22,253.59 C 439.51,253.84 439.78,254.10 440.02,254.38 C 440.27,254.66 440.49,254.96 440.70,255.27 C 440.90,255.59 441.08,255.92 441.23,256.27 C 441.39,256.61 441.53,256.98 441.64,257.36 C 441.75,257.74 441.85,258.14 441.91,258.55 C 441.98,258.97 442.03,259.40 442.05,259.85 C 442.08,260.30 442.08,260.77 442.06,261.25 C 442.04,261.73 442.02,262.26 441.94,262.75 C 441.86,263.24 441.74,263.71 441.59,264.16 C 441.43,264.62 441.24,265.06 441.01,265.49 C 440.78,265.92 440.51,266.33 440.20,266.73 C 439.90,267.13 439.55,267.52 439.17,267.89 C 438.79,268.26 438.37,268.62 437.91,268.96 C 437.46,269.30 436.96,269.63 436.43,269.95 C 435.90,270.26 435.33,270.56 434.72,270.84 C 434.11,271.13 433.39,271.37 432.78,271.66 C 432.18,271.94 431.61,272.24 431.09,272.55 C 430.57,272.86 430.09,273.18 429.66,273.52 C 429.22,273.85 428.82,274.20 428.47,274.56 C 428.11,274.92 427.80,275.30 427.53,275.69 C 427.26,276.08 427.03,276.48 426.84,276.89 C 426.66,277.30 426.51,277.73 426.41,278.17 C 426.30,278.61 426.24,279.07 426.22,279.53 C 426.20,280.00 426.28,280.51 426.28,280.97 C 426.28,281.43 426.27,281.88 426.23,282.31 C 426.20,282.74 426.15,283.16 426.08,283.56 C 426.01,283.96 425.92,284.35 425.81,284.72 C 425.71,285.09 425.58,285.44 425.44,285.78 C 425.29,286.12 425.13,286.44 424.95,286.75 C 424.77,287.06 424.58,287.35 424.36,287.62 C 424.14,287.90 423.91,288.16 423.66,288.41 C 423.40,288.65 423.11,288.88 422.84,289.09 C 422.58,289.31 422.33,289.51 422.08,289.70 C 421.83,289.89 421.59,290.07 421.36,290.23 C 421.13,290.40 420.90,290.55 420.69,290.69 C 420.47,290.83 420.26,290.95 420.06,291.06 C 419.86,291.17 419.67,291.27 419.48,291.36 C 419.30,291.45 419.12,291.52 418.95,291.58 C 418.78,291.64 418.62,291.68 418.47,291.72 C 418.32,291.75 418.14,291.75 418.03,291.78 C 417.92,291.81 417.85,291.86 417.80,291.91 C 417.76,291.97 417.76,292.04 417.79,292.12 C 417.82,292.20 417.88,292.29 417.98,292.39 C 418.08,292.49 418.22,292.61 418.39,292.73 C 418.56,292.86 418.77,293.00 419.01,293.15 C 419.25,293.30 419.52,293.46 419.84,293.63 C 420.15,293.81 420.49,293.99 420.88,294.19 C 421.26,294.38 421.73,294.58 422.12,294.81 C 422.52,295.04 422.88,295.30 423.22,295.58 C 423.56,295.86 423.87,296.16 424.16,296.48 C 424.44,296.81 424.70,297.16 424.94,297.53 C 425.17,297.90 425.38,298.30 425.56,298.72 C 425.74,299.14 425.90,299.58 426.03,300.05 C 426.16,300.51 426.27,301.00 426.34,301.52 C 426.42,302.03 426.47,302.57 426.50,303.12 C 426.53,303.68 426.53,304.32 426.50,304.88 C 426.47,305.43 426.42,305.97 426.34,306.48 C 426.25,306.99 426.14,307.47 426.01,307.93 C 425.87,308.39 425.71,308.82 425.52,309.23 C 425.32,309.64 425.11,310.03 424.86,310.39 C 424.61,310.75 424.34,311.09 424.04,311.40 C 423.74,311.71 423.41,312.00 423.05,312.26 C 422.70,312.52 422.32,312.76 421.91,312.97 C 421.50,313.18 421.01,313.35 420.59,313.53 C 420.18,313.71 419.78,313.89 419.41,314.06 C 419.03,314.23 418.68,314.40 418.34,314.56 C 418.01,314.72 417.70,314.88 417.41,315.03 C 417.11,315.18 416.84,315.33 416.59,315.47 C 416.34,315.61 416.11,315.74 415.91,315.88 C 415.70,316.01 415.51,316.13 415.34,316.25 C 415.18,316.37 415.03,316.48 414.91,316.59 C 414.78,316.70 414.69,316.80 414.59,316.91 C 414.50,317.01 414.41,317.12 414.34,317.23 C 414.26,317.33 414.19,317.44 414.13,317.55 C 414.07,317.67 414.02,317.78 413.98,317.89 C 413.94,318.00 413.91,318.12 413.89,318.23 C 413.87,318.35 413.86,318.47 413.85,318.59 C 413.85,318.70 413.85,318.82 413.87,318.95 C 413.88,319.07 413.90,319.19 413.94,319.31 C 413.97,319.44 414.03,319.56 414.06,319.69 C 414.09,319.81 414.11,319.93 414.12,320.05 C 414.12,320.18 414.12,320.30 414.10,320.41 C 414.08,320.53 414.06,320.65 414.02,320.77 C 413.98,320.88 413.92,321.00 413.86,321.11 C 413.80,321.22 413.72,321.33 413.63,321.45 C 413.55,321.56 413.45,321.67 413.34,321.77 C 413.23,321.88 413.10,321.99 412.97,322.09 C 412.83,322.20 412.71,322.31 412.53,322.41 C 412.35,322.50 412.13,322.60 411.88,322.68 C 411.63,322.76 411.35,322.84 411.02,322.91 C 410.70,322.99 410.35,323.05 409.95,323.11 C 409.56,323.17 409.13,323.22 408.67,323.27 C 408.21,323.31 407.71,323.35 407.18,323.38 C 406.65,323.42 406.08,323.44 405.48,323.46 C 404.87,323.48 404.24,323.49 403.56,323.50 C 402.89,323.51 402.11,323.49 401.44,323.50 C 400.77,323.51 400.13,323.52 399.53,323.55 C 398.93,323.57 398.37,323.60 397.84,323.64 C 397.32,323.68 396.83,323.73 396.38,323.78 C 395.92,323.84 395.51,323.90 395.12,323.97 C 394.74,324.04 394.40,324.12 394.09,324.20 C 393.79,324.29 393.52,324.38 393.28,324.48 C 393.05,324.59 392.85,324.70 392.69,324.81 C 392.53,324.93 392.48,325.07 392.31,325.19 C 392.14,325.30 391.93,325.41 391.67,325.52 C 391.41,325.62 391.11,325.71 390.77,325.80 C 390.42,325.88 390.03,325.96 389.59,326.03 C 389.16,326.10 388.68,326.16 388.16,326.22 C 387.63,326.27 387.07,326.32 386.45,326.36 C 385.84,326.40 385.18,326.43 384.48,326.45 C 383.78,326.48 383.04,326.49 382.25,326.50 Z" stroke="none" fill="currentColor" opacity="0.11" />
  <path d="M185.64,278.36L185.64,278.36 M193.92,264.16L205.15,264.16 M193.92,262.88L205.15,262.88 M193.92,262.51L205.15,262.51 M193.92,262.51L205.15,262.51 M205.15,261.23L193.92,261.23 M193.97,270.64L205.11,270.64 M193.96,270.64L205.11,270.64 M205.11,269.36L193.96,269.36 M194.00,272.20L205.08,272.20 M194.00,272.20L205.08,272.20 M194.00,270.92L205.08,270.92 M201.65,254.79L190.00,254.79 M191.06,274.01L191.06,274.01 M215.03,281.40L215.03,255.40 M215.77,260.24L215.77,271.68 M215.77,260.56L215.77,272.00 M191.35,274.12L185.10,267.58 M184.05,257.24L197.94,257.24 M178.03,257.24L170.68,257.24 M177.78,256.93L170.68,257.24 M198.11,257.24L177.45,257.24 M203.07,260.53L189.46,260.03 M156.54,257.23L146.05,257.23 M189.46,263.52L175.65,263.02 M203.52,258.35L203.52,266.84 M156.59,260.96L166.85,260.32 M178.08,266.33L192.55,266.33 M178.08,266.33L192.97,266.33 M169.77,266.55L170.68,266.94 M176.16,266.55L175.24,266.94 M197.27,254.94L178.29,255.94 M203.52,257.53L203.07,257.43 M194.40,266.15L194.86,266.14 M216.33,253.12L216.33,242.63 M203.33,250.24L215.73,250.24 M231.37,276.13L219.25,275.47 M254.25,284.83L231.37,284.83 M254.25,284.83L243.69,284.83 M231.37,284.83L243.69,284.83 M218.44,260.39L219.16,268.98 M219.16,268.98L218.44,260.17 M217.62,269.76L151.62,261.78 M254.95,290.46L255.13,290.49 M153.50,255.48L163.88,254.58 M164.51,268.01L156.18,268.88 M230.86,281.59L214.61,281.44 M224.81,234.99L242.78,233.26 M192.34,244.04L191.64,252.26 M191.64,252.26L192.32,244.32 M191.64,271.31L192.34,279.53 M191.64,271.31L192.32,279.25 M234.38,242.37L217.93,242.71 M243.69,233.80L254.00,233.80 M243.69,289.77L254.00,289.77 M142.75,252.35L151.41,252.22 M142.75,252.21L151.41,252.08 M217.60,282.24L243.69,282.24 M144.84,242.44L134.20,242.64 M151.15,274.97L135.91,275.28 M246.36,273.74L219.00,273.75 M246.36,273.74L219.00,273.75 M244.79,273.01L253.31,273.01 M246.36,260.96L219.00,260.30 M246.36,262.61L219.00,263.27 M244.79,257.07L253.31,257.07 M246.36,249.83L219.00,249.82 M246.36,249.83L219.00,249.82 M244.79,250.56L253.31,250.56 M246.36,262.61L219.00,263.27 M246.36,260.96L219.00,260.30 M314.21,273.74L341.57,273.75 M314.21,273.74L341.57,273.75 M315.71,273.79L307.19,273.78 M314.21,262.61L341.57,263.27 M314.21,260.96L341.57,260.30 M315.71,266.50L307.19,266.50 M314.21,249.83L341.57,249.82 M314.21,249.83L341.57,249.82 M315.71,249.79L307.19,249.79 M314.21,260.96L341.57,260.30 M314.21,262.61L341.57,263.27 M384.15,274.97L403.83,274.45 M256.23,233.96L324.89,233.96 M256.23,289.61L324.89,289.61 M255.49,233.42L290.05,233.43 M290.05,233.43L324.61,233.43 M258.66,254.00L286.74,254.03 M286.74,254.03L324.61,254.04 M324.61,290.14L290.05,290.14 M290.05,290.14L255.49,290.15 M258.66,269.58L286.74,269.54 M324.61,269.54L286.74,269.54 M375.49,315.21L374.32,314.44 M355.60,312.21L363.41,315.17 M394.77,321.95L413.38,321.93 M345.15,299.74L358.86,300.75 M345.15,299.74L357.22,300.86 M345.59,298.75L358.86,298.97 M345.59,298.75L364.39,298.43 M356.76,317.24L343.76,311.32 M343.76,311.32L357.33,315.32 M343.76,311.32L358.74,311.22 M411.19,316.24L411.19,310.68 M358.73,300.76L347.23,301.42 M375.59,321.01L360.18,319.96 M400.79,317.83L411.64,317.88 M411.49,317.43L399.71,316.75 M411.64,317.41L400.82,317.42 M395.00,318.58L385.77,321.37 M396.05,318.99L386.85,322.05 M405.36,317.38L396.56,317.68 M382.76,309.79L393.10,306.22 M364.56,305.37L370.59,294.98 M411.16,310.65L411.16,316.29 M379.44,274.02L388.11,274.01 M363.42,208.41L355.61,211.38 M363.42,208.41L355.61,211.38 M345.16,223.84L358.87,222.83 M345.16,223.84L357.23,222.72 M358.74,217.09L347.19,217.99 M411.19,212.87L411.19,207.29 M358.74,212.36L343.71,212.18 M343.71,212.18L356.64,206.28 M375.52,202.39L361.98,202.65 M411.64,205.69L400.79,205.74 M411.49,206.14L399.71,206.82 M411.64,206.17L400.82,206.15 M395.00,204.99L385.77,202.20 M396.05,204.58L386.85,201.52 M405.36,206.19L396.56,205.89 M393.10,217.35L382.76,213.78 M370.59,228.59L364.56,218.20 M411.16,212.91L411.16,207.27 M205.25,236.56L189.14,237.54 M146.15,269.36L135.81,269.66 M146.15,253.34L135.81,253.44 M135.81,252.55L146.15,252.46 M140.01,249.35L150.34,249.07 M148.09,267.54L139.25,267.82" stroke="currentColor" stroke-width="0.6" stroke-linecap="round" fill="none" opacity="0.55" clip-path="url(#hull-clip)" filter="url(#glow)" />
  <path d="M 382.25,326.50 C 381.46,326.51 380.55,326.51 379.75,326.50 C 378.95,326.49 378.18,326.48 377.45,326.47 C 376.72,326.45 376.02,326.43 375.36,326.41 C 374.70,326.38 374.07,326.35 373.47,326.31 C 372.87,326.28 372.31,326.23 371.78,326.19 C 371.25,326.14 370.76,326.09 370.30,326.03 C 369.84,325.97 369.41,325.91 369.02,325.84 C 368.62,325.78 368.26,325.70 367.94,325.62 C 367.61,325.55 367.35,325.47 367.06,325.38 C 366.77,325.28 366.49,325.18 366.20,325.06 C 365.92,324.95 365.64,324.82 365.36,324.69 C 365.08,324.55 364.80,324.41 364.53,324.25 C 364.26,324.09 363.99,323.93 363.72,323.75 C 363.45,323.57 363.18,323.39 362.92,323.19 C 362.66,322.99 362.40,322.78 362.14,322.56 C 361.88,322.34 361.63,322.11 361.38,321.88 C 361.12,321.64 360.91,321.38 360.62,321.12 C 360.34,320.87 360.01,320.60 359.64,320.33 C 359.27,320.05 358.87,319.77 358.42,319.48 C 357.98,319.20 357.49,318.90 356.97,318.59 C 356.45,318.29 355.88,317.98 355.28,317.66 C 354.68,317.34 354.04,317.01 353.36,316.67 C 352.68,316.34 351.96,315.99 351.20,315.64 C 350.45,315.29 349.65,314.93 348.81,314.56 C 347.98,314.20 347.02,313.81 346.19,313.44 C 345.36,313.06 344.57,312.69 343.82,312.32 C 343.07,311.95 342.37,311.58 341.71,311.21 C 341.05,310.84 340.43,310.48 339.86,310.11 C 339.29,309.74 338.75,309.38 338.27,309.02 C 337.78,308.65 337.33,308.29 336.93,307.93 C 336.53,307.57 336.17,307.21 335.85,306.85 C 335.54,306.49 335.26,306.14 335.03,305.78 C 334.80,305.43 334.67,305.07 334.47,304.72 C 334.27,304.36 334.05,304.01 333.81,303.66 C 333.58,303.30 333.33,302.95 333.06,302.59 C 332.80,302.24 332.52,301.89 332.22,301.53 C 331.92,301.18 331.61,300.82 331.28,300.47 C 330.95,300.11 330.61,299.76 330.25,299.41 C 329.89,299.05 329.52,298.70 329.12,298.34 C 328.73,297.99 328.33,297.64 327.91,297.28 C 327.48,296.93 327.02,296.55 326.59,296.22 C 326.16,295.88 325.74,295.57 325.32,295.27 C 324.90,294.98 324.49,294.70 324.09,294.45 C 323.68,294.19 323.28,293.95 322.89,293.73 C 322.50,293.52 322.11,293.32 321.73,293.14 C 321.36,292.96 320.98,292.80 320.62,292.66 C 320.25,292.52 319.89,292.40 319.54,292.30 C 319.19,292.20 318.84,292.12 318.50,292.06 C 318.16,292.00 317.82,291.98 317.50,291.94 C 317.18,291.89 316.88,291.85 316.59,291.80 C 316.31,291.75 316.04,291.70 315.78,291.64 C 315.53,291.59 315.29,291.53 315.06,291.47 C 314.84,291.41 314.63,291.35 314.44,291.28 C 314.24,291.22 314.07,291.15 313.91,291.08 C 313.74,291.01 313.60,290.93 313.47,290.86 C 313.34,290.78 313.22,290.71 313.12,290.62 C 313.03,290.54 313.16,290.45 312.88,290.38 C 312.59,290.30 312.10,290.23 311.41,290.17 C 310.71,290.11 309.82,290.06 308.72,290.02 C 307.62,289.97 306.32,289.93 304.81,289.91 C 303.31,289.88 301.60,289.86 299.69,289.84 C 297.78,289.83 295.66,289.83 293.34,289.83 C 291.03,289.83 288.51,289.84 285.78,289.86 C 283.06,289.88 280.13,289.90 277.00,289.94 C 273.87,289.97 270.14,290.03 267.00,290.06 C 263.86,290.10 260.90,290.12 258.14,290.14 C 255.38,290.16 252.80,290.17 250.42,290.17 C 248.04,290.17 245.85,290.17 243.84,290.16 C 241.84,290.14 240.03,290.12 238.41,290.09 C 236.78,290.07 235.35,290.03 234.11,289.98 C 232.87,289.94 231.82,289.89 230.95,289.83 C 230.09,289.77 229.42,289.70 228.94,289.62 C 228.46,289.55 228.40,289.45 228.06,289.38 C 227.72,289.30 227.34,289.22 226.91,289.16 C 226.47,289.09 225.99,289.03 225.47,288.97 C 224.94,288.91 224.37,288.86 223.75,288.81 C 223.13,288.77 222.46,288.72 221.75,288.69 C 221.04,288.65 220.28,288.62 219.47,288.59 C 218.66,288.57 217.81,288.55 216.91,288.53 C 216.01,288.52 215.06,288.51 214.06,288.50 C 213.07,288.49 211.96,288.51 210.94,288.50 C 209.91,288.49 208.90,288.48 207.91,288.45 C 206.91,288.43 205.93,288.40 204.97,288.36 C 204.01,288.32 203.06,288.27 202.12,288.22 C 201.19,288.16 200.28,288.10 199.38,288.03 C 198.47,287.96 197.59,287.88 196.72,287.80 C 195.85,287.71 194.99,287.62 194.16,287.52 C 193.32,287.41 192.49,287.30 191.69,287.19 C 190.88,287.07 190.14,286.93 189.31,286.81 C 188.48,286.70 187.61,286.59 186.70,286.48 C 185.79,286.38 184.85,286.29 183.86,286.20 C 182.87,286.12 181.85,286.04 180.78,285.97 C 179.72,285.90 178.61,285.84 177.47,285.78 C 176.33,285.73 175.14,285.68 173.92,285.64 C 172.70,285.60 171.44,285.57 170.14,285.55 C 168.84,285.52 167.50,285.51 166.12,285.50 C 164.75,285.49 163.21,285.49 161.88,285.50 C 160.54,285.51 159.29,285.52 158.12,285.53 C 156.96,285.55 155.88,285.57 154.88,285.59 C 153.88,285.62 152.96,285.65 152.12,285.69 C 151.29,285.72 150.54,285.77 149.88,285.81 C 149.21,285.86 148.62,285.91 148.12,285.97 C 147.62,286.03 147.21,286.09 146.88,286.16 C 146.54,286.22 146.29,286.30 146.12,286.38 C 145.96,286.45 145.97,286.55 145.88,286.62 C 145.78,286.70 145.68,286.78 145.56,286.84 C 145.45,286.91 145.32,286.97 145.19,287.03 C 145.05,287.09 144.91,287.14 144.75,287.19 C 144.59,287.23 144.43,287.28 144.25,287.31 C 144.07,287.35 143.89,287.38 143.69,287.41 C 143.49,287.43 143.28,287.45 143.06,287.47 C 142.84,287.48 142.61,287.49 142.38,287.50 C 142.14,287.51 141.88,287.51 141.62,287.50 C 141.37,287.49 141.10,287.46 140.83,287.42 C 140.55,287.38 140.27,287.33 139.98,287.27 C 139.70,287.20 139.40,287.12 139.09,287.03 C 138.79,286.94 138.48,286.84 138.16,286.72 C 137.84,286.60 137.51,286.47 137.17,286.33 C 136.84,286.18 136.49,286.03 136.14,285.86 C 135.79,285.69 135.43,285.51 135.06,285.31 C 134.70,285.12 134.31,284.89 133.94,284.69 C 133.56,284.49 133.19,284.30 132.81,284.12 C 132.44,283.95 132.06,283.78 131.69,283.62 C 131.31,283.47 130.94,283.32 130.56,283.19 C 130.19,283.05 129.81,282.93 129.44,282.81 C 129.06,282.70 128.69,282.59 128.31,282.50 C 127.94,282.41 127.56,282.32 127.19,282.25 C 126.81,282.18 126.44,282.11 126.06,282.06 C 125.69,282.01 125.29,281.99 124.94,281.94 C 124.58,281.89 124.25,281.83 123.93,281.76 C 123.61,281.69 123.32,281.61 123.04,281.52 C 122.76,281.44 122.50,281.34 122.27,281.23 C 122.03,281.13 121.81,281.01 121.61,280.89 C 121.41,280.77 121.23,280.63 121.07,280.49 C 120.91,280.35 120.77,280.20 120.65,280.04 C 120.53,279.88 120.43,279.71 120.34,279.53 C 120.26,279.35 120.23,279.16 120.16,278.97 C 120.08,278.78 120.00,278.59 119.90,278.40 C 119.80,278.21 119.69,278.01 119.57,277.82 C 119.45,277.63 119.32,277.43 119.17,277.23 C 119.03,277.04 118.87,276.84 118.70,276.64 C 118.54,276.44 118.36,276.24 118.16,276.04 C 117.97,275.84 117.77,275.63 117.55,275.43 C 117.34,275.23 117.11,275.02 116.88,274.81 C 116.64,274.61 116.36,274.40 116.12,274.19 C 115.89,273.98 115.66,273.76 115.44,273.55 C 115.22,273.33 115.01,273.11 114.81,272.89 C 114.61,272.67 114.43,272.45 114.25,272.22 C 114.07,271.99 113.91,271.76 113.75,271.53 C 113.59,271.30 113.45,271.07 113.31,270.83 C 113.18,270.59 113.05,270.35 112.94,270.11 C 112.82,269.87 112.72,269.62 112.62,269.38 C 112.53,269.13 112.46,268.86 112.38,268.62 C 112.29,268.39 112.21,268.16 112.12,267.95 C 112.04,267.74 111.96,267.54 111.88,267.36 C 111.79,267.17 111.71,267.00 111.62,266.84 C 111.54,266.68 111.46,266.54 111.38,266.41 C 111.29,266.27 111.21,266.15 111.12,266.05 C 111.04,265.94 110.96,265.85 110.88,265.77 C 110.79,265.68 110.71,265.62 110.62,265.56 C 110.54,265.51 110.45,265.48 110.38,265.44 C 110.30,265.39 110.24,265.35 110.19,265.30 C 110.14,265.25 110.09,265.20 110.06,265.14 C 110.03,265.09 110.01,265.03 110.00,264.97 C 109.99,264.91 109.99,264.85 110.00,264.78 C 110.01,264.72 110.03,264.65 110.06,264.58 C 110.09,264.51 110.14,264.43 110.19,264.36 C 110.24,264.28 110.30,264.21 110.38,264.12 C 110.45,264.04 110.55,263.96 110.62,263.88 C 110.70,263.79 110.78,263.69 110.84,263.59 C 110.91,263.49 110.97,263.39 111.03,263.28 C 111.09,263.17 111.14,263.06 111.19,262.94 C 111.23,262.82 111.28,262.69 111.31,262.56 C 111.35,262.43 111.38,262.30 111.41,262.16 C 111.43,262.02 111.45,261.87 111.47,261.72 C 111.48,261.57 111.49,261.41 111.50,261.25 C 111.51,261.09 111.51,260.91 111.50,260.75 C 111.49,260.59 111.48,260.44 111.47,260.30 C 111.45,260.15 111.43,260.02 111.41,259.89 C 111.38,259.76 111.35,259.64 111.31,259.53 C 111.28,259.42 111.23,259.32 111.19,259.22 C 111.14,259.12 111.09,259.03 111.03,258.95 C 110.97,258.87 110.91,258.80 110.84,258.73 C 110.78,258.67 110.70,258.61 110.62,258.56 C 110.55,258.51 110.42,258.52 110.38,258.44 C 110.33,258.35 110.32,258.23 110.35,258.05 C 110.38,257.88 110.45,257.67 110.55,257.41 C 110.66,257.16 110.80,256.86 110.98,256.52 C 111.17,256.17 111.38,255.79 111.64,255.36 C 111.90,254.93 112.19,254.46 112.52,253.95 C 112.86,253.43 113.23,252.87 113.63,252.27 C 114.04,251.67 114.49,251.03 114.97,250.34 C 115.45,249.66 116.02,248.84 116.53,248.16 C 117.04,247.47 117.54,246.83 118.02,246.24 C 118.51,245.65 118.98,245.10 119.45,244.60 C 119.91,244.10 120.36,243.64 120.80,243.23 C 121.24,242.82 121.66,242.46 122.08,242.14 C 122.49,241.82 122.90,241.55 123.29,241.32 C 123.68,241.09 124.06,240.91 124.43,240.77 C 124.80,240.64 125.15,240.55 125.50,240.50 C 125.85,240.45 126.16,240.51 126.50,240.50 C 126.84,240.49 127.17,240.46 127.52,240.42 C 127.86,240.38 128.20,240.33 128.55,240.27 C 128.89,240.20 129.24,240.12 129.59,240.03 C 129.95,239.94 130.30,239.84 130.66,239.72 C 131.01,239.60 131.37,239.47 131.73,239.33 C 132.10,239.18 132.46,239.03 132.83,238.86 C 133.20,238.69 133.57,238.51 133.94,238.31 C 134.31,238.12 134.66,237.88 135.06,237.69 C 135.47,237.50 135.91,237.33 136.38,237.17 C 136.84,237.02 137.34,236.88 137.88,236.77 C 138.41,236.65 138.97,236.55 139.56,236.47 C 140.16,236.39 140.78,236.33 141.44,236.28 C 142.09,236.24 142.78,236.21 143.50,236.20 C 144.22,236.20 144.97,236.21 145.75,236.23 C 146.53,236.26 147.34,236.31 148.19,236.38 C 149.03,236.44 149.92,236.55 150.81,236.62 C 151.70,236.70 152.60,236.77 153.52,236.83 C 154.43,236.89 155.36,236.94 156.30,236.98 C 157.24,237.03 158.19,237.07 159.16,237.09 C 160.12,237.12 161.10,237.14 162.09,237.16 C 163.09,237.17 164.09,237.17 165.11,237.17 C 166.13,237.17 167.16,237.16 168.20,237.14 C 169.25,237.12 170.30,237.10 171.38,237.06 C 172.45,237.03 173.59,236.98 174.62,236.94 C 175.66,236.89 176.64,236.85 177.56,236.80 C 178.49,236.75 179.36,236.70 180.19,236.64 C 181.01,236.59 181.78,236.53 182.50,236.47 C 183.22,236.41 183.89,236.35 184.50,236.28 C 185.11,236.22 185.68,236.15 186.19,236.08 C 186.70,236.01 187.16,235.93 187.56,235.86 C 187.97,235.78 188.32,235.71 188.62,235.62 C 188.93,235.54 189.08,235.45 189.38,235.38 C 189.67,235.30 190.01,235.22 190.39,235.16 C 190.77,235.09 191.20,235.03 191.67,234.97 C 192.14,234.91 192.66,234.86 193.22,234.81 C 193.78,234.77 194.38,234.72 195.03,234.69 C 195.68,234.65 196.37,234.62 197.11,234.59 C 197.85,234.57 198.63,234.55 199.45,234.53 C 200.28,234.52 201.15,234.51 202.06,234.50 C 202.98,234.49 203.97,234.51 204.94,234.50 C 205.90,234.49 206.87,234.48 207.84,234.45 C 208.82,234.43 209.80,234.40 210.78,234.36 C 211.77,234.32 212.76,234.27 213.75,234.22 C 214.74,234.16 215.74,234.10 216.75,234.03 C 217.76,233.96 218.77,233.88 219.78,233.80 C 220.80,233.71 221.82,233.62 222.84,233.52 C 223.87,233.41 224.90,233.30 225.94,233.19 C 226.97,233.07 227.90,232.93 229.06,232.81 C 230.23,232.70 231.51,232.59 232.92,232.50 C 234.33,232.41 235.86,232.32 237.52,232.25 C 239.17,232.18 240.95,232.11 242.84,232.06 C 244.74,232.01 246.76,231.97 248.91,231.94 C 251.05,231.91 253.32,231.89 255.70,231.88 C 258.09,231.86 260.60,231.86 263.23,231.88 C 265.87,231.89 268.62,231.91 271.50,231.94 C 274.38,231.97 277.68,232.03 280.50,232.06 C 283.32,232.10 285.95,232.12 288.41,232.14 C 290.86,232.16 293.13,232.17 295.22,232.17 C 297.31,232.17 299.21,232.17 300.94,232.16 C 302.66,232.14 304.20,232.12 305.56,232.09 C 306.92,232.07 308.10,232.03 309.09,231.98 C 310.09,231.94 310.90,231.89 311.53,231.83 C 312.16,231.77 312.61,231.70 312.88,231.62 C 313.14,231.55 313.03,231.45 313.12,231.38 C 313.22,231.30 313.33,231.22 313.45,231.16 C 313.58,231.09 313.71,231.03 313.86,230.97 C 314.01,230.91 314.17,230.86 314.34,230.81 C 314.52,230.77 314.71,230.72 314.91,230.69 C 315.11,230.65 315.32,230.62 315.55,230.59 C 315.77,230.57 316.01,230.55 316.27,230.53 C 316.52,230.52 316.78,230.51 317.06,230.50 C 317.34,230.49 317.63,230.52 317.94,230.50 C 318.24,230.48 318.56,230.43 318.88,230.35 C 319.21,230.28 319.55,230.18 319.90,230.05 C 320.25,229.93 320.61,229.78 320.98,229.61 C 321.36,229.44 321.74,229.24 322.14,229.02 C 322.54,228.79 322.95,228.55 323.37,228.27 C 323.79,228.00 324.22,227.70 324.66,227.38 C 325.11,227.06 325.56,226.71 326.03,226.34 C 326.50,225.97 327.01,225.55 327.47,225.16 C 327.93,224.77 328.36,224.38 328.78,224.00 C 329.20,223.62 329.59,223.24 329.97,222.88 C 330.34,222.51 330.70,222.14 331.03,221.78 C 331.36,221.42 331.68,221.07 331.97,220.72 C 332.26,220.37 332.53,220.03 332.78,219.69 C 333.03,219.35 333.26,219.02 333.47,218.69 C 333.68,218.36 333.86,218.04 334.03,217.72 C 334.20,217.40 334.28,217.10 334.47,216.78 C 334.66,216.47 334.89,216.15 335.16,215.84 C 335.44,215.52 335.76,215.20 336.12,214.88 C 336.48,214.56 336.88,214.24 337.33,213.92 C 337.77,213.60 338.26,213.28 338.80,212.95 C 339.33,212.63 339.90,212.30 340.52,211.98 C 341.14,211.65 341.80,211.32 342.51,210.99 C 343.21,210.66 343.96,210.33 344.75,210.00 C 345.54,209.67 346.44,209.33 347.25,209.00 C 348.06,208.67 348.84,208.33 349.59,208.00 C 350.35,207.67 351.08,207.33 351.78,207.00 C 352.48,206.67 353.16,206.33 353.81,206.00 C 354.46,205.67 355.09,205.33 355.69,205.00 C 356.29,204.67 356.86,204.33 357.41,204.00 C 357.95,203.67 358.47,203.33 358.97,203.00 C 359.46,202.67 359.93,202.33 360.38,202.00 C 360.82,201.67 361.17,201.32 361.62,201.00 C 362.08,200.68 362.58,200.39 363.12,200.11 C 363.67,199.83 364.25,199.57 364.88,199.33 C 365.50,199.09 366.17,198.86 366.88,198.66 C 367.58,198.45 368.33,198.26 369.12,198.09 C 369.92,197.92 370.75,197.77 371.62,197.64 C 372.50,197.51 373.42,197.39 374.38,197.30 C 375.33,197.20 376.33,197.12 377.38,197.06 C 378.42,197.00 379.60,196.97 380.62,196.94 C 381.65,196.91 382.61,196.89 383.52,196.88 C 384.42,196.86 385.26,196.86 386.05,196.88 C 386.83,196.89 387.55,196.91 388.22,196.94 C 388.88,196.97 389.49,197.01 390.03,197.06 C 390.58,197.11 391.06,197.18 391.48,197.25 C 391.91,197.32 392.27,197.41 392.58,197.50 C 392.88,197.59 393.13,197.70 393.31,197.81 C 393.50,197.93 393.53,198.07 393.69,198.19 C 393.85,198.30 394.05,198.41 394.28,198.52 C 394.52,198.62 394.79,198.71 395.09,198.80 C 395.40,198.88 395.74,198.96 396.12,199.03 C 396.51,199.10 396.92,199.16 397.38,199.22 C 397.83,199.27 398.32,199.32 398.84,199.36 C 399.37,199.40 399.93,199.43 400.53,199.45 C 401.13,199.48 401.77,199.49 402.44,199.50 C 403.11,199.51 403.89,199.49 404.56,199.50 C 405.23,199.51 405.87,199.52 406.46,199.54 C 407.06,199.56 407.61,199.58 408.13,199.62 C 408.65,199.65 409.13,199.69 409.58,199.73 C 410.02,199.78 410.43,199.83 410.80,199.89 C 411.17,199.95 411.50,200.01 411.79,200.09 C 412.08,200.16 412.34,200.24 412.55,200.32 C 412.77,200.40 412.95,200.50 413.09,200.59 C 413.24,200.69 413.31,200.80 413.41,200.91 C 413.50,201.01 413.59,201.12 413.66,201.23 C 413.74,201.33 413.81,201.44 413.87,201.55 C 413.93,201.67 413.98,201.78 414.02,201.89 C 414.06,202.00 414.09,202.12 414.11,202.23 C 414.13,202.35 414.14,202.47 414.15,202.59 C 414.15,202.70 414.15,202.82 414.13,202.95 C 414.12,203.07 414.10,203.19 414.06,203.31 C 414.03,203.44 413.97,203.57 413.94,203.69 C 413.90,203.81 413.87,203.93 413.85,204.04 C 413.83,204.15 413.81,204.26 413.80,204.37 C 413.80,204.47 413.79,204.57 413.80,204.67 C 413.80,204.77 413.81,204.86 413.83,204.95 C 413.85,205.04 413.87,205.13 413.90,205.21 C 413.93,205.29 413.96,205.37 414.01,205.45 C 414.05,205.52 414.10,205.59 414.16,205.66 C 414.21,205.72 414.26,205.78 414.34,205.84 C 414.43,205.91 414.53,205.98 414.65,206.05 C 414.77,206.13 414.91,206.21 415.07,206.29 C 415.23,206.37 415.41,206.46 415.61,206.55 C 415.81,206.64 416.03,206.73 416.27,206.83 C 416.50,206.93 416.76,207.03 417.04,207.13 C 417.32,207.24 417.61,207.35 417.93,207.46 C 418.25,207.57 418.58,207.69 418.94,207.81 C 419.29,207.93 419.70,208.06 420.06,208.19 C 420.42,208.31 420.77,208.44 421.10,208.57 C 421.43,208.70 421.75,208.83 422.05,208.96 C 422.36,209.09 422.65,209.23 422.92,209.36 C 423.20,209.49 423.46,209.63 423.70,209.77 C 423.95,209.90 424.18,210.04 424.40,210.18 C 424.62,210.32 424.82,210.46 425.01,210.60 C 425.20,210.74 425.37,210.89 425.53,211.03 C 425.69,211.18 425.83,211.30 425.97,211.47 C 426.11,211.63 426.23,211.82 426.35,212.02 C 426.47,212.23 426.58,212.45 426.68,212.70 C 426.78,212.94 426.87,213.20 426.95,213.48 C 427.04,213.77 427.11,214.07 427.17,214.39 C 427.24,214.71 427.29,215.05 427.34,215.41 C 427.38,215.77 427.42,216.15 427.45,216.55 C 427.47,216.95 427.49,217.37 427.50,217.81 C 427.51,218.25 427.53,218.74 427.50,219.19 C 427.47,219.63 427.42,220.07 427.34,220.48 C 427.27,220.90 427.16,221.31 427.03,221.70 C 426.90,222.10 426.74,222.48 426.56,222.84 C 426.38,223.21 426.17,223.57 425.94,223.91 C 425.70,224.25 425.44,224.58 425.16,224.89 C 424.87,225.21 424.56,225.51 424.22,225.80 C 423.88,226.09 423.52,226.36 423.12,226.62 C 422.73,226.89 422.24,227.12 421.88,227.38 C 421.51,227.62 421.19,227.88 420.92,228.12 C 420.65,228.38 420.43,228.62 420.27,228.88 C 420.10,229.12 419.98,229.38 419.91,229.62 C 419.84,229.88 419.82,230.12 419.84,230.38 C 419.87,230.62 419.95,230.88 420.08,231.12 C 420.21,231.38 420.38,231.62 420.61,231.88 C 420.84,232.12 421.11,232.38 421.44,232.62 C 421.76,232.88 422.21,233.11 422.56,233.38 C 422.91,233.64 423.23,233.92 423.53,234.22 C 423.83,234.52 424.10,234.83 424.34,235.16 C 424.59,235.48 424.81,235.83 425.00,236.19 C 425.19,236.55 425.36,236.92 425.50,237.31 C 425.64,237.70 425.76,238.11 425.84,238.53 C 425.93,238.95 425.99,239.39 426.03,239.84 C 426.07,240.30 426.08,240.77 426.06,241.25 C 426.05,241.73 425.95,242.27 425.94,242.75 C 425.92,243.23 425.94,243.68 425.98,244.10 C 426.02,244.53 426.08,244.93 426.18,245.30 C 426.27,245.68 426.40,246.03 426.55,246.36 C 426.70,246.69 426.87,246.99 427.08,247.27 C 427.28,247.54 427.51,247.80 427.77,248.02 C 428.03,248.25 428.32,248.45 428.63,248.63 C 428.95,248.81 429.29,248.96 429.66,249.09 C 430.02,249.22 430.45,249.29 430.84,249.41 C 431.23,249.52 431.62,249.64 432.00,249.77 C 432.38,249.89 432.76,250.03 433.12,250.17 C 433.49,250.32 433.86,250.47 434.22,250.62 C 434.58,250.78 434.93,250.95 435.28,251.12 C 435.63,251.30 435.97,251.48 436.31,251.67 C 436.65,251.86 436.98,252.06 437.31,252.27 C 437.64,252.47 437.96,252.68 438.28,252.91 C 438.60,253.13 438.93,253.35 439.22,253.59 C 439.51,253.84 439.78,254.10 440.02,254.38 C 440.27,254.66 440.49,254.96 440.70,255.27 C 440.90,255.59 441.08,255.92 441.23,256.27 C 441.39,256.61 441.53,256.98 441.64,257.36 C 441.75,257.74 441.85,258.14 441.91,258.55 C 441.98,258.97 442.03,259.40 442.05,259.85 C 442.08,260.30 442.08,260.77 442.06,261.25 C 442.04,261.73 442.02,262.26 441.94,262.75 C 441.86,263.24 441.74,263.71 441.59,264.16 C 441.43,264.62 441.24,265.06 441.01,265.49 C 440.78,265.92 440.51,266.33 440.20,266.73 C 439.90,267.13 439.55,267.52 439.17,267.89 C 438.79,268.26 438.37,268.62 437.91,268.96 C 437.46,269.30 436.96,269.63 436.43,269.95 C 435.90,270.26 435.33,270.56 434.72,270.84 C 434.11,271.13 433.39,271.37 432.78,271.66 C 432.18,271.94 431.61,272.24 431.09,272.55 C 430.57,272.86 430.09,273.18 429.66,273.52 C 429.22,273.85 428.82,274.20 428.47,274.56 C 428.11,274.92 427.80,275.30 427.53,275.69 C 427.26,276.08 427.03,276.48 426.84,276.89 C 426.66,277.30 426.51,277.73 426.41,278.17 C 426.30,278.61 426.24,279.07 426.22,279.53 C 426.20,280.00 426.28,280.51 426.28,280.97 C 426.28,281.43 426.27,281.88 426.23,282.31 C 426.20,282.74 426.15,283.16 426.08,283.56 C 426.01,283.96 425.92,284.35 425.81,284.72 C 425.71,285.09 425.58,285.44 425.44,285.78 C 425.29,286.12 425.13,286.44 424.95,286.75 C 424.77,287.06 424.58,287.35 424.36,287.62 C 424.14,287.90 423.91,288.16 423.66,288.41 C 423.40,288.65 423.11,288.88 422.84,289.09 C 422.58,289.31 422.33,289.51 422.08,289.70 C 421.83,289.89 421.59,290.07 421.36,290.23 C 421.13,290.40 420.90,290.55 420.69,290.69 C 420.47,290.83 420.26,290.95 420.06,291.06 C 419.86,291.17 419.67,291.27 419.48,291.36 C 419.30,291.45 419.12,291.52 418.95,291.58 C 418.78,291.64 418.62,291.68 418.47,291.72 C 418.32,291.75 418.14,291.75 418.03,291.78 C 417.92,291.81 417.85,291.86 417.80,291.91 C 417.76,291.97 417.76,292.04 417.79,292.12 C 417.82,292.20 417.88,292.29 417.98,292.39 C 418.08,292.49 418.22,292.61 418.39,292.73 C 418.56,292.86 418.77,293.00 419.01,293.15 C 419.25,293.30 419.52,293.46 419.84,293.63 C 420.15,293.81 420.49,293.99 420.88,294.19 C 421.26,294.38 421.73,294.58 422.12,294.81 C 422.52,295.04 422.88,295.30 423.22,295.58 C 423.56,295.86 423.87,296.16 424.16,296.48 C 424.44,296.81 424.70,297.16 424.94,297.53 C 425.17,297.90 425.38,298.30 425.56,298.72 C 425.74,299.14 425.90,299.58 426.03,300.05 C 426.16,300.51 426.27,301.00 426.34,301.52 C 426.42,302.03 426.47,302.57 426.50,303.12 C 426.53,303.68 426.53,304.32 426.50,304.88 C 426.47,305.43 426.42,305.97 426.34,306.48 C 426.25,306.99 426.14,307.47 426.01,307.93 C 425.87,308.39 425.71,308.82 425.52,309.23 C 425.32,309.64 425.11,310.03 424.86,310.39 C 424.61,310.75 424.34,311.09 424.04,311.40 C 423.74,311.71 423.41,312.00 423.05,312.26 C 422.70,312.52 422.32,312.76 421.91,312.97 C 421.50,313.18 421.01,313.35 420.59,313.53 C 420.18,313.71 419.78,313.89 419.41,314.06 C 419.03,314.23 418.68,314.40 418.34,314.56 C 418.01,314.72 417.70,314.88 417.41,315.03 C 417.11,315.18 416.84,315.33 416.59,315.47 C 416.34,315.61 416.11,315.74 415.91,315.88 C 415.70,316.01 415.51,316.13 415.34,316.25 C 415.18,316.37 415.03,316.48 414.91,316.59 C 414.78,316.70 414.69,316.80 414.59,316.91 C 414.50,317.01 414.41,317.12 414.34,317.23 C 414.26,317.33 414.19,317.44 414.13,317.55 C 414.07,317.67 414.02,317.78 413.98,317.89 C 413.94,318.00 413.91,318.12 413.89,318.23 C 413.87,318.35 413.86,318.47 413.85,318.59 C 413.85,318.70 413.85,318.82 413.87,318.95 C 413.88,319.07 413.90,319.19 413.94,319.31 C 413.97,319.44 414.03,319.56 414.06,319.69 C 414.09,319.81 414.11,319.93 414.12,320.05 C 414.12,320.18 414.12,320.30 414.10,320.41 C 414.08,320.53 414.06,320.65 414.02,320.77 C 413.98,320.88 413.92,321.00 413.86,321.11 C 413.80,321.22 413.72,321.33 413.63,321.45 C 413.55,321.56 413.45,321.67 413.34,321.77 C 413.23,321.88 413.10,321.99 412.97,322.09 C 412.83,322.20 412.71,322.31 412.53,322.41 C 412.35,322.50 412.13,322.60 411.88,322.68 C 411.63,322.76 411.35,322.84 411.02,322.91 C 410.70,322.99 410.35,323.05 409.95,323.11 C 409.56,323.17 409.13,323.22 408.67,323.27 C 408.21,323.31 407.71,323.35 407.18,323.38 C 406.65,323.42 406.08,323.44 405.48,323.46 C 404.87,323.48 404.24,323.49 403.56,323.50 C 402.89,323.51 402.11,323.49 401.44,323.50 C 400.77,323.51 400.13,323.52 399.53,323.55 C 398.93,323.57 398.37,323.60 397.84,323.64 C 397.32,323.68 396.83,323.73 396.38,323.78 C 395.92,323.84 395.51,323.90 395.12,323.97 C 394.74,324.04 394.40,324.12 394.09,324.20 C 393.79,324.29 393.52,324.38 393.28,324.48 C 393.05,324.59 392.85,324.70 392.69,324.81 C 392.53,324.93 392.48,325.07 392.31,325.19 C 392.14,325.30 391.93,325.41 391.67,325.52 C 391.41,325.62 391.11,325.71 390.77,325.80 C 390.42,325.88 390.03,325.96 389.59,326.03 C 389.16,326.10 388.68,326.16 388.16,326.22 C 387.63,326.27 387.07,326.32 386.45,326.36 C 385.84,326.40 385.18,326.43 384.48,326.45 C 383.78,326.48 383.04,326.49 382.25,326.50 Z" fill="none" stroke="currentColor" stroke-width="1.5" stroke-linejoin="round" stroke-linecap="round" filter="url(#glow)" />
</svg>