<svg xmlns="http://www.w3.org/2000/svg" width="512" height="512" viewBox="140.85 177.50 238.65 156.00" preserveAspectRatio="xMidYMid meet">
  <defs>
    <filter id="glow" x="-30%" y="-30%" width="160%" height="160%">
      <feGaussianBlur in="SourceGraphic" stdDeviation="2.4" result="blur" />
      <feMerge>
        <feMergeNode in="blur" />
        <feMergeNode in="SourceGraphic" />
      </feMerge>
    </filter>
    <clipPath id="hull-clip">
      <path d="M 312.56,320.50 C 310.62,320.52 308.38,320.54 306.44,320.50 C 304.49,320.46 302.64,320.39 300.88,320.29 C 299.13,320.18 297.46,320.04 295.90,319.87 C 294.33,319.69 292.86,319.48 291.48,319.23 C 290.11,318.99 288.83,318.71 287.64,318.39 C 286.45,318.07 285.36,317.72 284.37,317.34 C 283.37,316.95 282.47,316.53 281.66,316.07 C 280.86,315.61 280.15,315.12 279.53,314.59 C 278.92,314.07 278.44,313.45 277.97,312.91 C 277.50,312.37 277.08,311.85 276.70,311.36 C 276.33,310.87 276.01,310.40 275.73,309.95 C 275.46,309.51 275.24,309.09 275.06,308.69 C 274.89,308.29 274.76,307.91 274.69,307.56 C 274.61,307.21 274.59,306.88 274.61,306.58 C 274.63,306.27 274.71,305.99 274.83,305.73 C 274.95,305.48 275.12,305.24 275.34,305.03 C 275.57,304.82 275.99,304.66 276.16,304.47 C 276.33,304.28 276.40,304.09 276.37,303.90 C 276.34,303.71 276.21,303.51 275.98,303.32 C 275.75,303.13 275.42,302.93 274.98,302.73 C 274.55,302.54 274.02,302.34 273.39,302.14 C 272.76,301.94 272.03,301.74 271.20,301.54 C 270.36,301.34 269.43,301.13 268.40,300.93 C 267.37,300.73 266.23,300.52 265.00,300.31 C 263.77,300.11 262.26,299.89 261.00,299.69 C 259.74,299.48 258.56,299.28 257.45,299.09 C 256.33,298.89 255.30,298.70 254.34,298.51 C 253.37,298.32 252.49,298.13 251.67,297.95 C 250.86,297.77 250.12,297.60 249.45,297.42 C 248.79,297.25 248.20,297.08 247.68,296.91 C 247.16,296.75 246.72,296.59 246.35,296.43 C 245.98,296.27 245.69,296.12 245.47,295.97 C 245.25,295.82 245.17,295.69 245.03,295.53 C 244.89,295.38 244.77,295.21 244.65,295.04 C 244.53,294.87 244.42,294.68 244.32,294.49 C 244.22,294.30 244.13,294.10 244.05,293.89 C 243.96,293.68 243.89,293.46 243.83,293.23 C 243.76,293.01 243.71,292.77 243.66,292.52 C 243.62,292.28 243.58,292.02 243.55,291.76 C 243.53,291.49 243.51,291.22 243.50,290.94 C 243.49,290.65 243.49,290.34 243.50,290.06 C 243.51,289.78 243.52,289.52 243.53,289.27 C 243.55,289.01 243.57,288.77 243.59,288.55 C 243.62,288.32 243.65,288.11 243.69,287.91 C 243.72,287.71 243.77,287.52 243.81,287.34 C 243.86,287.17 243.91,287.01 243.97,286.86 C 244.03,286.71 244.09,286.58 244.16,286.45 C 244.22,286.33 244.30,286.22 244.38,286.12 C 244.45,286.03 244.55,285.96 244.62,285.88 C 244.70,285.79 244.76,285.70 244.82,285.62 C 244.88,285.53 244.92,285.44 244.96,285.35 C 245.00,285.26 245.03,285.17 245.05,285.08 C 245.07,284.99 245.08,284.89 245.08,284.80 C 245.08,284.70 245.07,284.61 245.05,284.51 C 245.04,284.41 245.01,284.31 244.98,284.21 C 244.94,284.11 244.90,284.01 244.84,283.91 C 244.79,283.80 244.77,283.70 244.66,283.59 C 244.55,283.49 244.39,283.37 244.18,283.26 C 243.97,283.14 243.72,283.02 243.41,282.90 C 243.11,282.77 242.76,282.65 242.36,282.52 C 241.96,282.38 241.51,282.25 241.02,282.11 C 240.52,281.97 239.98,281.83 239.38,281.68 C 238.79,281.53 238.15,281.38 237.46,281.23 C 236.77,281.07 236.04,280.91 235.25,280.75 C 234.46,280.59 233.54,280.42 232.75,280.25 C 231.96,280.08 231.20,279.92 230.49,279.76 C 229.78,279.60 229.11,279.43 228.48,279.27 C 227.85,279.11 227.25,278.95 226.70,278.80 C 226.15,278.64 225.64,278.48 225.17,278.33 C 224.70,278.17 224.27,278.02 223.88,277.87 C 223.49,277.71 223.14,277.56 222.84,277.41 C 222.53,277.26 222.26,277.12 222.03,276.97 C 221.80,276.82 221.65,276.68 221.47,276.53 C 221.29,276.38 221.12,276.23 220.97,276.08 C 220.81,275.92 220.67,275.77 220.53,275.61 C 220.40,275.45 220.27,275.29 220.16,275.12 C 220.04,274.96 219.94,274.79 219.84,274.62 C 219.75,274.46 219.67,274.28 219.59,274.11 C 219.52,273.93 219.46,273.76 219.41,273.58 C 219.35,273.40 219.31,273.22 219.28,273.03 C 219.25,272.85 219.26,272.64 219.22,272.47 C 219.18,272.30 219.12,272.14 219.04,271.99 C 218.96,271.85 218.86,271.72 218.74,271.60 C 218.62,271.49 218.49,271.38 218.33,271.30 C 218.17,271.21 217.99,271.14 217.80,271.08 C 217.60,271.02 217.38,270.98 217.15,270.95 C 216.91,270.92 216.66,270.90 216.38,270.90 C 216.11,270.90 215.81,270.91 215.50,270.94 C 215.19,270.96 214.82,271.01 214.50,271.06 C 214.18,271.11 213.89,271.18 213.61,271.25 C 213.33,271.32 213.07,271.41 212.83,271.50 C 212.59,271.59 212.36,271.70 212.16,271.81 C 211.95,271.93 211.76,272.05 211.59,272.19 C 211.42,272.32 211.27,272.47 211.14,272.62 C 211.01,272.78 210.89,272.95 210.80,273.12 C 210.70,273.30 210.62,273.49 210.56,273.69 C 210.50,273.89 210.51,274.12 210.44,274.31 C 210.36,274.51 210.25,274.68 210.11,274.84 C 209.97,275.01 209.79,275.15 209.58,275.28 C 209.37,275.41 209.12,275.53 208.84,275.62 C 208.57,275.72 208.25,275.81 207.91,275.88 C 207.56,275.94 207.18,275.99 206.77,276.03 C 206.35,276.07 205.90,276.09 205.42,276.09 C 204.94,276.10 204.42,276.09 203.88,276.06 C 203.33,276.04 202.67,275.98 202.12,275.94 C 201.58,275.89 201.07,275.85 200.59,275.80 C 200.12,275.75 199.68,275.70 199.28,275.64 C 198.88,275.59 198.52,275.53 198.19,275.47 C 197.86,275.41 197.57,275.35 197.31,275.28 C 197.06,275.22 196.84,275.15 196.66,275.08 C 196.47,275.01 196.33,274.93 196.22,274.86 C 196.11,274.78 196.04,274.71 196.00,274.62 C 195.96,274.54 195.98,274.45 196.00,274.38 C 196.02,274.30 196.05,274.22 196.09,274.16 C 196.14,274.09 196.20,274.03 196.28,273.97 C 196.36,273.91 196.45,273.86 196.56,273.81 C 196.67,273.77 196.80,273.72 196.94,273.69 C 197.08,273.65 197.23,273.62 197.41,273.59 C 197.58,273.57 197.77,273.55 197.97,273.53 C 198.17,273.52 198.39,273.51 198.62,273.50 C 198.86,273.49 199.14,273.51 199.38,273.50 C 199.61,273.49 199.82,273.48 200.02,273.47 C 200.21,273.45 200.39,273.43 200.55,273.41 C 200.71,273.38 200.85,273.35 200.97,273.31 C 201.09,273.28 201.20,273.23 201.28,273.19 C 201.37,273.14 201.43,273.09 201.48,273.03 C 201.53,272.97 201.57,272.91 201.58,272.84 C 201.59,272.78 201.59,272.70 201.56,272.62 C 201.54,272.55 201.52,272.46 201.44,272.38 C 201.36,272.29 201.24,272.19 201.09,272.09 C 200.94,271.99 200.76,271.89 200.53,271.78 C 200.31,271.67 200.05,271.56 199.75,271.44 C 199.45,271.32 199.12,271.19 198.75,271.06 C 198.38,270.93 197.97,270.80 197.53,270.66 C 197.09,270.52 196.61,270.37 196.09,270.22 C 195.58,270.07 195.03,269.91 194.44,269.75 C 193.85,269.59 193.19,269.41 192.56,269.25 C 191.93,269.09 191.30,268.94 190.66,268.80 C 190.02,268.65 189.37,268.52 188.72,268.39 C 188.07,268.26 187.41,268.14 186.75,268.03 C 186.09,267.92 185.42,267.82 184.75,267.72 C 184.08,267.62 183.40,267.53 182.72,267.45 C 182.04,267.37 181.35,267.30 180.66,267.23 C 179.96,267.17 179.27,267.11 178.56,267.06 C 177.86,267.01 177.14,267.00 176.44,266.94 C 175.74,266.88 175.04,266.80 174.35,266.71 C 173.66,266.62 172.98,266.51 172.30,266.38 C 171.63,266.26 170.96,266.11 170.30,265.95 C 169.63,265.79 168.98,265.62 168.33,265.42 C 167.68,265.23 167.04,265.02 166.40,264.79 C 165.76,264.56 165.13,264.32 164.51,264.05 C 163.88,263.79 163.27,263.51 162.66,263.22 C 162.05,262.92 161.41,262.58 160.84,262.28 C 160.27,261.98 159.74,261.69 159.24,261.41 C 158.74,261.14 158.28,260.87 157.85,260.62 C 157.42,260.36 157.03,260.12 156.67,259.89 C 156.31,259.66 155.99,259.44 155.70,259.23 C 155.42,259.03 155.16,258.83 154.95,258.65 C 154.73,258.46 154.55,258.29 154.40,258.13 C 154.25,257.97 154.14,257.82 154.06,257.69 C 153.99,257.55 153.97,257.44 153.94,257.31 C 153.90,257.18 153.88,257.04 153.87,256.90 C 153.85,256.75 153.85,256.60 153.85,256.45 C 153.86,256.29 153.87,256.12 153.89,255.95 C 153.91,255.78 153.94,255.61 153.98,255.42 C 154.02,255.24 154.07,255.05 154.13,254.85 C 154.19,254.65 154.26,254.45 154.34,254.24 C 154.41,254.03 154.50,253.82 154.59,253.59 C 154.69,253.37 154.76,253.14 154.91,252.91 C 155.05,252.67 155.23,252.44 155.45,252.20 C 155.66,251.95 155.92,251.71 156.21,251.46 C 156.50,251.21 156.83,250.96 157.20,250.70 C 157.57,250.45 157.98,250.19 158.42,249.92 C 158.87,249.66 159.35,249.39 159.87,249.12 C 160.39,248.85 160.94,248.57 161.54,248.29 C 162.13,248.01 162.77,247.73 163.44,247.44 C 164.11,247.15 164.86,246.84 165.56,246.56 C 166.26,246.29 166.95,246.03 167.62,245.80 C 168.30,245.56 168.97,245.34 169.62,245.14 C 170.28,244.94 170.93,244.76 171.56,244.59 C 172.20,244.43 172.82,244.28 173.44,244.16 C 174.05,244.03 174.66,243.92 175.25,243.83 C 175.84,243.74 176.43,243.66 177.00,243.61 C 177.57,243.55 178.14,243.52 178.69,243.50 C 179.24,243.48 179.77,243.51 180.31,243.50 C 180.86,243.49 181.41,243.47 181.97,243.44 C 182.53,243.41 183.09,243.36 183.66,243.31 C 184.22,243.26 184.80,243.20 185.38,243.12 C 185.95,243.05 186.54,242.97 187.12,242.88 C 187.71,242.78 188.31,242.68 188.91,242.56 C 189.51,242.45 190.11,242.32 190.72,242.19 C 191.33,242.05 191.94,241.91 192.56,241.75 C 193.18,241.59 193.85,241.41 194.44,241.25 C 195.03,241.09 195.58,240.93 196.09,240.78 C 196.61,240.63 197.09,240.48 197.53,240.34 C 197.97,240.20 198.38,240.07 198.75,239.94 C 199.12,239.81 199.45,239.68 199.75,239.56 C 200.05,239.44 200.31,239.33 200.53,239.22 C 200.76,239.11 200.94,239.01 201.09,238.91 C 201.24,238.81 201.36,238.71 201.44,238.62 C 201.52,238.54 201.54,238.45 201.56,238.38 C 201.59,238.30 201.59,238.22 201.58,238.16 C 201.57,238.09 201.53,238.03 201.48,237.97 C 201.43,237.91 201.37,237.86 201.28,237.81 C 201.20,237.77 201.09,237.72 200.97,237.69 C 200.85,237.65 200.71,237.62 200.55,237.59 C 200.39,237.57 200.21,237.55 200.02,237.53 C 199.82,237.52 199.61,237.51 199.38,237.50 C 199.14,237.49 198.86,237.51 198.62,237.50 C 198.39,237.49 198.17,237.48 197.97,237.47 C 197.77,237.45 197.58,237.43 197.41,237.41 C 197.23,237.38 197.08,237.35 196.94,237.31 C 196.80,237.28 196.67,237.23 196.56,237.19 C 196.45,237.14 196.36,237.09 196.28,237.03 C 196.20,236.97 196.14,236.91 196.09,236.84 C 196.05,236.78 196.02,236.70 196.00,236.62 C 195.98,236.55 195.96,236.46 196.00,236.38 C 196.04,236.29 196.11,236.22 196.22,236.14 C 196.33,236.07 196.47,235.99 196.66,235.92 C 196.84,235.85 197.06,235.78 197.31,235.72 C 197.57,235.65 197.86,235.59 198.19,235.53 C 198.52,235.47 198.88,235.41 199.28,235.36 C 199.68,235.30 200.12,235.25 200.59,235.20 C 201.07,235.15 201.58,235.11 202.12,235.06 C 202.67,235.02 203.33,234.96 203.88,234.94 C 204.42,234.91 204.94,234.90 205.42,234.91 C 205.90,234.91 206.35,234.93 206.77,234.97 C 207.18,235.01 207.56,235.06 207.91,235.12 C 208.25,235.19 208.57,235.28 208.84,235.38 C 209.12,235.47 209.37,235.59 209.58,235.72 C 209.79,235.85 209.97,235.99 210.11,236.16 C 210.25,236.32 210.36,236.49 210.44,236.69 C 210.51,236.88 210.50,237.11 210.56,237.31 C 210.62,237.51 210.70,237.70 210.80,237.88 C 210.89,238.05 211.01,238.22 211.14,238.38 C 211.27,238.53 211.42,238.68 211.59,238.81 C 211.76,238.95 211.95,239.07 212.16,239.19 C 212.36,239.30 212.59,239.41 212.83,239.50 C 213.07,239.59 213.33,239.68 213.61,239.75 C 213.89,239.82 214.18,239.89 214.50,239.94 C 214.82,239.99 215.19,240.04 215.50,240.06 C 215.81,240.09 216.11,240.10 216.38,240.10 C 216.66,240.10 216.91,240.08 217.15,240.05 C 217.38,240.02 217.60,239.98 217.80,239.92 C 217.99,239.86 218.17,239.79 218.33,239.70 C 218.49,239.62 218.62,239.51 218.74,239.40 C 218.86,239.28 218.96,239.15 219.04,239.01 C 219.12,238.86 219.18,238.70 219.22,238.53 C 219.26,238.36 219.25,238.15 219.28,237.97 C 219.31,237.78 219.35,237.60 219.41,237.42 C 219.46,237.24 219.52,237.07 219.59,236.89 C 219.67,236.72 219.75,236.54 219.84,236.38 C 219.94,236.21 220.04,236.04 220.16,235.88 C 220.27,235.71 220.40,235.55 220.53,235.39 C 220.67,235.23 220.81,235.08 220.97,234.92 C 221.12,234.77 221.29,234.62 221.47,234.47 C 221.65,234.32 221.81,234.18 222.03,234.03 C 222.26,233.89 222.52,233.74 222.82,233.60 C 223.12,233.46 223.46,233.32 223.84,233.18 C 224.21,233.04 224.63,232.90 225.08,232.77 C 225.53,232.63 226.02,232.49 226.55,232.36 C 227.07,232.23 227.64,232.09 228.24,231.96 C 228.85,231.83 229.49,231.70 230.16,231.57 C 230.84,231.44 231.56,231.31 232.31,231.19 C 233.07,231.06 233.94,230.94 234.69,230.81 C 235.44,230.69 236.14,230.57 236.80,230.45 C 237.47,230.32 238.09,230.20 238.66,230.09 C 239.24,229.97 239.77,229.85 240.27,229.73 C 240.76,229.62 241.20,229.50 241.61,229.39 C 242.01,229.28 242.38,229.17 242.70,229.05 C 243.01,228.94 243.29,228.83 243.52,228.73 C 243.76,228.62 243.95,228.51 244.09,228.41 C 244.24,228.30 244.31,228.20 244.41,228.09 C 244.50,227.99 244.58,227.88 244.65,227.77 C 244.72,227.67 244.77,227.56 244.82,227.45 C 244.87,227.33 244.90,227.22 244.92,227.11 C 244.94,227.00 244.95,226.88 244.95,226.77 C 244.95,226.65 244.94,226.53 244.91,226.41 C 244.89,226.30 244.85,226.18 244.80,226.05 C 244.76,225.93 244.70,225.81 244.62,225.69 C 244.55,225.56 244.45,225.45 244.38,225.31 C 244.30,225.18 244.22,225.03 244.16,224.88 C 244.09,224.72 244.03,224.55 243.97,224.38 C 243.91,224.20 243.86,224.01 243.81,223.81 C 243.77,223.61 243.72,223.41 243.69,223.19 C 243.65,222.97 243.62,222.74 243.59,222.50 C 243.57,222.26 243.55,222.01 243.53,221.75 C 243.52,221.49 243.51,221.22 243.50,220.94 C 243.49,220.66 243.49,220.35 243.50,220.06 C 243.51,219.78 243.53,219.51 243.55,219.24 C 243.58,218.98 243.62,218.72 243.66,218.48 C 243.71,218.23 243.76,217.99 243.83,217.77 C 243.89,217.54 243.96,217.32 244.05,217.11 C 244.13,216.90 244.22,216.70 244.32,216.51 C 244.42,216.32 244.53,216.13 244.65,215.96 C 244.77,215.79 244.89,215.62 245.03,215.47 C 245.17,215.31 245.26,215.18 245.47,215.03 C 245.68,214.88 245.95,214.74 246.29,214.59 C 246.63,214.44 247.03,214.29 247.49,214.13 C 247.96,213.98 248.49,213.83 249.08,213.67 C 249.67,213.52 250.33,213.36 251.05,213.20 C 251.77,213.05 252.55,212.89 253.40,212.73 C 254.25,212.57 255.16,212.40 256.13,212.24 C 257.11,212.08 258.15,211.92 259.25,211.75 C 260.35,211.58 261.65,211.41 262.75,211.25 C 263.85,211.09 264.90,210.94 265.88,210.80 C 266.85,210.65 267.77,210.52 268.62,210.39 C 269.48,210.26 270.27,210.14 271.00,210.03 C 271.73,209.92 272.40,209.82 273.00,209.72 C 273.60,209.62 274.15,209.53 274.62,209.45 C 275.10,209.37 275.52,209.30 275.88,209.23 C 276.23,209.17 276.52,209.11 276.75,209.06 C 276.98,209.01 277.10,208.98 277.25,208.94 C 277.40,208.89 277.55,208.85 277.68,208.80 C 277.81,208.76 277.93,208.71 278.04,208.66 C 278.15,208.62 278.24,208.57 278.33,208.52 C 278.41,208.46 278.49,208.41 278.55,208.36 C 278.61,208.31 278.66,208.25 278.70,208.20 C 278.73,208.14 278.76,208.08 278.77,208.02 C 278.79,207.96 278.79,207.90 278.78,207.84 C 278.77,207.78 278.75,207.72 278.72,207.66 C 278.68,207.59 278.63,207.52 278.57,207.45 C 278.51,207.37 278.43,207.29 278.34,207.21 C 278.24,207.13 278.14,207.04 278.02,206.95 C 277.89,206.86 277.76,206.77 277.61,206.67 C 277.46,206.57 277.30,206.47 277.12,206.37 C 276.94,206.26 276.75,206.15 276.54,206.04 C 276.33,205.93 276.11,205.81 275.88,205.69 C 275.64,205.57 275.33,205.46 275.12,205.31 C 274.92,205.16 274.77,204.98 274.66,204.77 C 274.56,204.57 274.50,204.33 274.49,204.07 C 274.48,203.81 274.52,203.52 274.61,203.20 C 274.70,202.89 274.83,202.54 275.02,202.17 C 275.20,201.80 275.43,201.40 275.71,200.98 C 275.99,200.55 276.32,200.10 276.70,199.62 C 277.07,199.14 277.50,198.63 277.97,198.09 C 278.44,197.56 278.92,196.93 279.53,196.41 C 280.15,195.88 280.86,195.39 281.66,194.93 C 282.47,194.47 283.37,194.05 284.37,193.66 C 285.36,193.28 286.45,192.93 287.64,192.61 C 288.83,192.29 290.11,192.01 291.48,191.77 C 292.86,191.52 294.33,191.31 295.90,191.13 C 297.46,190.96 299.13,190.82 300.88,190.71 C 302.64,190.61 304.49,190.54 306.44,190.50 C 308.38,190.46 310.62,190.47 312.56,190.50 C 314.51,190.53 316.35,190.58 318.10,190.66 C 319.85,190.75 321.50,190.86 323.05,190.99 C 324.61,191.13 326.06,191.29 327.42,191.48 C 328.78,191.68 330.04,191.89 331.20,192.14 C 332.37,192.39 333.43,192.66 334.40,192.96 C 335.37,193.26 336.24,193.59 337.01,193.95 C 337.78,194.30 338.45,194.68 339.03,195.09 C 339.61,195.50 340.04,195.99 340.47,196.41 C 340.90,196.82 341.28,197.22 341.61,197.59 C 341.94,197.97 342.22,198.32 342.45,198.66 C 342.68,198.99 342.87,199.30 343.00,199.59 C 343.13,199.89 343.22,200.16 343.25,200.41 C 343.28,200.66 343.27,200.89 343.20,201.09 C 343.14,201.30 343.02,201.49 342.86,201.66 C 342.70,201.82 342.48,201.97 342.22,202.09 C 341.96,202.22 341.59,202.31 341.28,202.41 C 340.97,202.50 340.66,202.60 340.35,202.68 C 340.04,202.76 339.74,202.84 339.43,202.91 C 339.12,202.99 338.82,203.05 338.52,203.11 C 338.21,203.17 337.91,203.22 337.61,203.27 C 337.31,203.31 337.01,203.35 336.71,203.38 C 336.41,203.42 336.12,203.44 335.82,203.46 C 335.52,203.48 335.23,203.49 334.94,203.50 C 334.64,203.51 334.34,203.51 334.06,203.50 C 333.78,203.49 333.51,203.48 333.25,203.47 C 332.99,203.45 332.74,203.43 332.50,203.41 C 332.26,203.38 332.03,203.35 331.81,203.31 C 331.59,203.28 331.39,203.23 331.19,203.19 C 330.99,203.14 330.80,203.09 330.62,203.03 C 330.45,202.97 330.28,202.91 330.12,202.84 C 329.97,202.78 329.82,202.70 329.69,202.62 C 329.55,202.55 329.49,202.45 329.31,202.38 C 329.14,202.30 328.91,202.22 328.62,202.16 C 328.34,202.09 328.01,202.03 327.62,201.97 C 327.24,201.91 326.80,201.86 326.31,201.81 C 325.82,201.77 325.28,201.72 324.69,201.69 C 324.09,201.65 323.45,201.62 322.75,201.59 C 322.05,201.57 321.30,201.55 320.50,201.53 C 319.70,201.52 318.84,201.51 317.94,201.50 C 317.03,201.49 315.98,201.48 315.06,201.50 C 314.15,201.52 313.27,201.55 312.45,201.60 C 311.62,201.65 310.83,201.72 310.09,201.80 C 309.34,201.89 308.64,201.99 307.98,202.11 C 307.33,202.23 306.71,202.36 306.14,202.52 C 305.57,202.67 305.04,202.84 304.55,203.02 C 304.07,203.21 303.63,203.41 303.23,203.63 C 302.83,203.85 302.47,204.09 302.16,204.34 C 301.84,204.60 301.59,204.90 301.34,205.16 C 301.10,205.41 300.88,205.66 300.69,205.89 C 300.49,206.12 300.33,206.34 300.19,206.55 C 300.05,206.75 299.93,206.95 299.84,207.12 C 299.76,207.30 299.69,207.47 299.66,207.62 C 299.62,207.78 299.61,207.92 299.62,208.05 C 299.64,208.17 299.68,208.29 299.75,208.39 C 299.82,208.49 299.91,208.58 300.03,208.66 C 300.15,208.73 300.29,208.79 300.47,208.84 C 300.65,208.90 300.86,208.95 301.10,208.99 C 301.35,209.04 301.62,209.07 301.93,209.10 C 302.24,209.13 302.58,209.15 302.95,209.17 C 303.33,209.19 303.73,209.20 304.17,209.20 C 304.61,209.21 305.08,209.20 305.59,209.20 C 306.09,209.19 306.63,209.17 307.20,209.15 C 307.76,209.13 308.37,209.10 309.00,209.06 C 309.63,209.03 310.33,208.96 311.00,208.94 C 311.67,208.91 312.33,208.90 313.00,208.91 C 313.67,208.91 314.33,208.93 315.00,208.97 C 315.67,209.01 316.33,209.06 317.00,209.12 C 317.67,209.19 318.33,209.28 319.00,209.38 C 319.67,209.47 320.33,209.59 321.00,209.72 C 321.67,209.85 322.33,209.99 323.00,210.16 C 323.67,210.32 324.33,210.49 325.00,210.69 C 325.67,210.88 326.37,211.08 327.00,211.31 C 327.63,211.55 328.21,211.81 328.76,212.10 C 329.30,212.39 329.81,212.71 330.27,213.05 C 330.74,213.40 331.16,213.77 331.55,214.17 C 331.93,214.57 332.27,215.00 332.58,215.45 C 332.88,215.91 333.14,216.39 333.37,216.90 C 333.59,217.41 333.77,217.94 333.91,218.51 C 334.06,219.07 334.16,219.66 334.22,220.28 C 334.28,220.90 334.27,221.61 334.28,222.22 C 334.29,222.83 334.30,223.40 334.29,223.93 C 334.28,224.46 334.27,224.96 334.24,225.41 C 334.22,225.87 334.18,226.29 334.14,226.67 C 334.10,227.05 334.05,227.40 333.98,227.70 C 333.92,228.01 333.85,228.28 333.77,228.51 C 333.69,228.74 333.61,228.93 333.51,229.09 C 333.41,229.24 333.30,229.36 333.19,229.44 C 333.07,229.52 332.90,229.52 332.81,229.56 C 332.73,229.61 332.68,229.66 332.66,229.71 C 332.65,229.76 332.68,229.82 332.74,229.88 C 332.81,229.94 332.91,230.01 333.05,230.08 C 333.19,230.15 333.36,230.22 333.58,230.30 C 333.79,230.37 334.05,230.45 334.34,230.54 C 334.63,230.62 334.95,230.71 335.32,230.80 C 335.69,230.90 336.09,230.99 336.53,231.09 C 336.97,231.19 337.51,231.31 337.97,231.41 C 338.43,231.50 338.87,231.60 339.29,231.68 C 339.71,231.76 340.11,231.84 340.49,231.91 C 340.87,231.99 341.24,232.05 341.58,232.11 C 341.92,232.17 342.24,232.22 342.55,232.27 C 342.85,232.31 343.13,232.35 343.40,232.38 C 343.66,232.42 343.91,232.44 344.13,232.46 C 344.36,232.48 344.56,232.49 344.75,232.50 C 344.94,232.51 345.09,232.51 345.25,232.50 C 345.41,232.49 345.55,232.48 345.69,232.47 C 345.82,232.45 345.95,232.43 346.06,232.41 C 346.18,232.38 346.28,232.35 346.38,232.31 C 346.47,232.28 346.55,232.23 346.62,232.19 C 346.70,232.14 346.76,232.09 346.81,232.03 C 346.86,231.97 346.91,231.91 346.94,231.84 C 346.97,231.78 346.99,231.70 347.00,231.62 C 347.01,231.55 346.98,231.45 347.00,231.38 C 347.02,231.30 347.05,231.23 347.11,231.17 C 347.16,231.11 347.24,231.06 347.33,231.02 C 347.42,230.97 347.53,230.93 347.66,230.91 C 347.78,230.88 347.93,230.86 348.09,230.84 C 348.26,230.83 348.44,230.83 348.64,230.83 C 348.84,230.83 349.06,230.84 349.30,230.86 C 349.53,230.88 349.79,230.90 350.06,230.94 C 350.34,230.97 350.64,231.00 350.94,231.06 C 351.23,231.12 351.52,231.20 351.82,231.29 C 352.12,231.38 352.41,231.49 352.71,231.62 C 353.01,231.74 353.31,231.89 353.61,232.05 C 353.91,232.21 354.21,232.38 354.52,232.58 C 354.82,232.77 355.12,232.98 355.43,233.21 C 355.74,233.44 356.04,233.68 356.35,233.95 C 356.66,234.21 356.97,234.49 357.28,234.78 C 357.59,235.08 357.91,235.40 358.22,235.72 C 358.52,236.04 358.82,236.36 359.12,236.70 C 359.41,237.03 359.70,237.37 359.98,237.71 C 360.26,238.06 360.53,238.41 360.80,238.77 C 361.06,239.12 361.32,239.49 361.58,239.86 C 361.83,240.23 362.08,240.61 362.32,240.99 C 362.56,241.38 362.80,241.77 363.02,242.16 C 363.25,242.56 363.47,242.96 363.69,243.38 C 363.90,243.79 364.12,244.20 364.31,244.62 C 364.51,245.05 364.69,245.48 364.86,245.92 C 365.03,246.36 365.18,246.81 365.33,247.27 C 365.47,247.72 365.60,248.18 365.72,248.66 C 365.84,249.13 365.94,249.61 366.03,250.09 C 366.12,250.58 366.20,251.08 366.27,251.58 C 366.33,252.08 366.38,252.59 366.42,253.11 C 366.46,253.63 366.49,254.15 366.50,254.69 C 366.51,255.22 366.51,255.78 366.50,256.31 C 366.49,256.85 366.46,257.37 366.42,257.89 C 366.38,258.41 366.33,258.92 366.27,259.42 C 366.20,259.92 366.12,260.42 366.03,260.91 C 365.94,261.39 365.84,261.87 365.72,262.34 C 365.60,262.82 365.47,263.28 365.33,263.73 C 365.18,264.19 365.03,264.64 364.86,265.08 C 364.69,265.52 364.51,265.95 364.31,266.38 C 364.12,266.80 363.90,267.21 363.69,267.62 C 363.47,268.04 363.25,268.44 363.02,268.84 C 362.80,269.23 362.56,269.62 362.32,270.01 C 362.08,270.39 361.83,270.77 361.58,271.14 C 361.32,271.51 361.06,271.88 360.80,272.23 C 360.53,272.59 360.26,272.94 359.98,273.29 C 359.70,273.63 359.41,273.97 359.12,274.30 C 358.82,274.64 358.52,274.96 358.22,275.28 C 357.91,275.60 357.59,275.92 357.28,276.22 C 356.97,276.51 356.66,276.79 356.35,277.05 C 356.04,277.32 355.74,277.56 355.43,277.79 C 355.12,278.02 354.82,278.23 354.52,278.42 C 354.21,278.62 353.91,278.79 353.61,278.95 C 353.31,279.11 353.01,279.26 352.71,279.38 C 352.41,279.51 352.12,279.62 351.82,279.71 C 351.52,279.80 351.23,279.88 350.94,279.94 C 350.64,280.00 350.34,280.03 350.06,280.06 C 349.79,280.09 349.53,280.11 349.30,280.12 C 349.06,280.14 348.84,280.14 348.64,280.12 C 348.44,280.11 348.26,280.09 348.09,280.06 C 347.93,280.03 347.78,279.99 347.66,279.94 C 347.53,279.89 347.42,279.82 347.33,279.75 C 347.24,279.68 347.16,279.59 347.11,279.50 C 347.05,279.41 347.02,279.30 347.00,279.19 C 346.98,279.07 347.04,278.92 347.00,278.81 C 346.96,278.70 346.88,278.61 346.76,278.54 C 346.64,278.46 346.48,278.41 346.27,278.37 C 346.07,278.33 345.83,278.30 345.55,278.30 C 345.26,278.29 344.94,278.30 344.58,278.33 C 344.21,278.36 343.81,278.40 343.37,278.46 C 342.92,278.52 342.44,278.60 341.91,278.70 C 341.39,278.79 340.82,278.90 340.22,279.03 C 339.61,279.16 338.88,279.33 338.28,279.47 C 337.68,279.61 337.13,279.74 336.63,279.87 C 336.13,279.99 335.68,280.11 335.27,280.23 C 334.87,280.34 334.51,280.45 334.20,280.55 C 333.89,280.65 333.63,280.74 333.42,280.83 C 333.21,280.92 333.05,281.00 332.93,281.07 C 332.81,281.14 332.75,281.21 332.73,281.27 C 332.71,281.33 332.74,281.39 332.81,281.44 C 332.89,281.49 333.07,281.48 333.19,281.56 C 333.30,281.64 333.41,281.76 333.51,281.91 C 333.61,282.07 333.69,282.26 333.77,282.49 C 333.85,282.72 333.92,282.99 333.98,283.30 C 334.05,283.60 334.10,283.95 334.14,284.33 C 334.18,284.71 334.22,285.13 334.24,285.59 C 334.27,286.04 334.28,286.54 334.29,287.07 C 334.30,287.60 334.29,288.17 334.28,288.78 C 334.27,289.39 334.28,290.10 334.22,290.72 C 334.16,291.34 334.06,291.93 333.91,292.49 C 333.77,293.06 333.59,293.59 333.37,294.10 C 333.14,294.61 332.88,295.09 332.58,295.55 C 332.27,296.00 331.93,296.43 331.55,296.83 C 331.16,297.23 330.74,297.60 330.27,297.95 C 329.81,298.29 329.30,298.61 328.76,298.90 C 328.21,299.19 327.63,299.45 327.00,299.69 C 326.37,299.92 325.67,300.12 325.00,300.31 C 324.33,300.51 323.67,300.68 323.00,300.84 C 322.33,301.01 321.67,301.15 321.00,301.28 C 320.33,301.41 319.67,301.53 319.00,301.62 C 318.33,301.72 317.67,301.81 317.00,301.88 C 316.33,301.94 315.67,301.99 315.00,302.03 C 314.33,302.07 313.67,302.09 313.00,302.09 C 312.33,302.10 311.67,302.09 311.00,302.06 C 310.33,302.04 309.63,301.97 309.00,301.94 C 308.37,301.90 307.76,301.87 307.20,301.85 C 306.63,301.83 306.09,301.81 305.59,301.80 C 305.08,301.80 304.61,301.79 304.17,301.80 C 303.73,301.80 303.33,301.81 302.95,301.83 C 302.58,301.85 302.24,301.87 301.93,301.90 C 301.62,301.93 301.35,301.96 301.10,302.01 C 300.86,302.05 300.65,302.10 300.47,302.16 C 300.29,302.21 300.15,302.27 300.03,302.34 C 299.91,302.42 299.82,302.51 299.75,302.61 C 299.68,302.71 299.64,302.83 299.62,302.95 C 299.61,303.08 299.62,303.22 299.66,303.38 C 299.69,303.53 299.76,303.70 299.84,303.88 C 299.93,304.05 300.05,304.25 300.19,304.45 C 300.33,304.66 300.49,304.88 300.69,305.11 C 300.88,305.34 301.10,305.59 301.34,305.84 C 301.59,306.10 301.84,306.40 302.16,306.66 C 302.47,306.91 302.83,307.15 303.23,307.37 C 303.63,307.59 304.07,307.79 304.55,307.98 C 305.04,308.16 305.57,308.33 306.14,308.48 C 306.71,308.64 307.33,308.77 307.98,308.89 C 308.64,309.01 309.34,309.11 310.09,309.20 C 310.83,309.28 311.62,309.35 312.45,309.40 C 313.27,309.45 314.15,309.48 315.06,309.50 C 315.98,309.52 317.03,309.51 317.94,309.50 C 318.84,309.49 319.70,309.48 320.50,309.47 C 321.30,309.45 322.05,309.43 322.75,309.41 C 323.45,309.38 324.09,309.35 324.69,309.31 C 325.28,309.28 325.82,309.23 326.31,309.19 C 326.80,309.14 327.24,309.09 327.62,309.03 C 328.01,308.97 328.34,308.91 328.62,308.84 C 328.91,308.78 329.14,308.70 329.31,308.62 C 329.49,308.55 329.54,308.45 329.69,308.38 C 329.84,308.30 330.02,308.23 330.22,308.17 C 330.42,308.11 330.65,308.06 330.91,308.02 C 331.16,307.97 331.44,307.93 331.75,307.91 C 332.06,307.88 332.39,307.86 332.75,307.84 C 333.11,307.83 333.49,307.83 333.91,307.83 C 334.32,307.83 334.76,307.84 335.22,307.86 C 335.68,307.88 336.17,307.90 336.69,307.94 C 337.20,307.97 337.80,308.02 338.31,308.06 C 338.82,308.11 339.31,308.15 339.76,308.20 C 340.21,308.24 340.63,308.29 341.02,308.34 C 341.42,308.38 341.78,308.43 342.11,308.48 C 342.44,308.54 342.74,308.59 343.02,308.64 C 343.29,308.69 343.53,308.75 343.74,308.80 C 343.95,308.86 344.14,308.92 344.29,308.98 C 344.44,309.04 344.56,309.10 344.66,309.16 C 344.75,309.22 344.79,309.28 344.84,309.34 C 344.90,309.41 344.95,309.47 344.99,309.54 C 345.04,309.61 345.07,309.67 345.10,309.74 C 345.13,309.81 345.15,309.88 345.17,309.95 C 345.19,310.02 345.20,310.10 345.20,310.17 C 345.21,310.25 345.20,310.32 345.20,310.40 C 345.19,310.48 345.17,310.55 345.15,310.63 C 345.13,310.71 345.10,310.79 345.06,310.88 C 345.03,310.96 345.00,311.02 344.94,311.12 C 344.87,311.23 344.78,311.34 344.66,311.48 C 344.55,311.61 344.41,311.76 344.24,311.93 C 344.08,312.10 343.89,312.28 343.67,312.48 C 343.46,312.69 343.22,312.90 342.95,313.14 C 342.69,313.38 342.40,313.63 342.09,313.90 C 341.77,314.17 341.43,314.45 341.07,314.76 C 340.71,315.06 340.32,315.38 339.91,315.72 C 339.49,316.06 339.13,316.45 338.59,316.78 C 338.06,317.11 337.42,317.42 336.68,317.71 C 335.94,318.00 335.10,318.26 334.16,318.51 C 333.23,318.75 332.19,318.97 331.05,319.17 C 329.91,319.37 328.67,319.55 327.33,319.70 C 325.99,319.86 324.55,319.99 323.01,320.10 C 321.47,320.21 319.83,320.30 318.09,320.37 C 316.35,320.43 314.50,320.48 312.56,320.50 Z" />
    </clipPath>
  </defs>
  <path d="M 312.56,320.50 C 310.62,320.52 308.38,320.54 306.44,320.50 C 304.49,320.46 302.64,320.39 300.88,320.29 C 299.13,320.18 297.46,320.04 295.90,319.87 C 294.33,319.69 292.86,319.48 291.48,319.23 C 290.11,318.99 288.83,318.71 287.64,318.39 C 286.45,318.07 285.36,317.72 284.37,317.34 C 283.37,316.95 282.47,316.53 281.66,316.07 C 280.86,315.61 280.15,315.12 279.53,314.59 C 278.92,314.07 278.44,313.45 277.97,312.91 C 277.50,312.37 277.08,311.85 276.70,311.36 C 276.33,310.87 276.01,310.40 275.73,309.95 C 275.46,309.51 275.24,309.09 275.06,308.69 C 274.89,308.29 274.76,307.91 274.69,307.56 C 274.61,307.21 274.59,306.88 274.61,306.58 C 274.63,306.27 274.71,305.99 274.83,305.73 C 274.95,305.48 275.12,305.24 275.34,305.03 C 275.57,304.82 275.99,304.66 276.16,304.47 C 276.33,304.28 276.40,304.09 276.37,303.90 C 276.34,303.71 276.21,303.51 275.98,303.32 C 275.75,303.13 275.42,302.93 274.98,302.73 C 274.55,302.54 274.02,302.34 273.39,302.14 C 272.76,301.94 272.03,301.74 271.20,301.54 C 270.36,301.34 269.43,301.13 268.40,300.93 C 267.37,300.73 266.23,300.52 265.00,300.31 C 263.77,300.11 262.26,299.89 261.00,299.69 C 259.74,299.48 258.56,299.28 257.45,299.09 C 256.33,298.89 255.30,298.70 254.34,298.51 C 253.37,298.32 252.49,298.13 251.67,297.95 C 250.86,297.77 250.12,297.60 249.45,297.42 C 248.79,297.25 248.20,297.08 247.68,296.91 C 247.16,296.75 246.72,296.59 246.35,296.43 C 245.98,296.27 245.69,296.12 245.47,295.97 C 245.25,295.82 245.17,295.69 245.03,295.53 C 244.89,295.38 244.77,295.21 244.65,295.04 C 244.53,294.87 244.42,294.68 244.32,294.49 C 244.22,294.30 244.13,294.10 244.05,293.89 C 243.96,293.68 243.89,293.46 243.83,293.23 C 243.76,293.01 243.71,292.77 243.66,292.52 C 243.62,292.28 243.58,292.02 243.55,291.76 C 243.53,291.49 243.51,291.22 243.50,290.94 C 243.49,290.65 243.49,290.34 243.50,290.06 C 243.51,289.78 243.52,289.52 243.53,289.27 C 243.55,289.01 243.57,288.77 243.59,288.55 C 243.62,288.32 243.65,288.11 243.69,287.91 C 243.72,287.71 243.77,287.52 243.81,287.34 C 243.86,287.17 243.91,287.01 243.97,286.86 C 244.03,286.71 244.09,286.58 244.16,286.45 C 244.22,286.33 244.30,286.22 244.38,286.12 C 244.45,286.03 244.55,285.96 244.62,285.88 C 244.70,285.79 244.76,285.70 244.82,285.62 C 244.88,285.53 244.92,285.44 244.96,285.35 C 245.00,285.26 245.03,285.17 245.05,285.08 C 245.07,284.99 245.08,284.89 245.08,284.80 C 245.08,284.70 245.07,284.61 245.05,284.51 C 245.04,284.41 245.01,284.31 244.98,284.21 C 244.94,284.11 244.90,284.01 244.84,283.91 C 244.79,283.80 244.77,283.70 244.66,283.59 C 244.55,283.49 244.39,283.37 244.18,283.26 C 243.97,283.14 243.72,283.02 243.41,282.90 C 243.11,282.77 242.76,282.65 242.36,282.52 C 241.96,282.38 241.51,282.25 241.02,282.11 C 240.52,281.97 239.98,281.83 239.38,281.68 C 238.79,281.53 238.15,281.38 237.46,281.23 C 236.77,281.07 236.04,280.91 235.25,280.75 C 234.46,280.59 233.54,280.42 232.75,280.25 C 231.96,280.08 231.20,279.92 230.49,279.76 C 229.78,279.60 229.11,279.43 228.48,279.27 C 227.85,279.11 227.25,278.95 226.70,278.80 C 226.15,278.64 225.64,278.48 225.17,278.33 C 224.70,278.17 224.27,278.02 223.88,277.87 C 223.49,277.71 223.14,277.56 222.84,277.41 C 222.53,277.26 222.26,277.12 222.03,276.97 C 221.80,276.82 221.65,276.68 221.47,276.53 C 221.29,276.38 221.12,276.23 220.97,276.08 C 220.81,275.92 220.67,275.77 220.53,275.61 C 220.40,275.45 220.27,275.29 220.16,275.12 C 220.04,274.96 219.94,274.79 219.84,274.62 C 219.75,274.46 219.67,274.28 219.59,274.11 C 219.52,273.93 219.46,273.76 219.41,273.58 C 219.35,273.40 219.31,273.22 219.28,273.03 C 219.25,272.85 219.26,272.64 219.22,272.47 C 219.18,272.30 219.12,272.14 219.04,271.99 C 218.96,271.85 218.86,271.72 218.74,271.60 C 218.62,271.49 218.49,271.38 218.33,271.30 C 218.17,271.21 217.99,271.14 217.80,271.08 C 217.60,271.02 217.38,270.98 217.15,270.95 C 216.91,270.92 216.66,270.90 216.38,270.90 C 216.11,270.90 215.81,270.91 215.50,270.94 C 215.19,270.96 214.82,271.01 214.50,271.06 C 214.18,271.11 213.89,271.18 213.61,271.25 C 213.33,271.32 213.07,271.41 212.83,271.50 C 212.59,271.59 212.36,271.70 212.16,271.81 C 211.95,271.93 211.76,272.05 211.59,272.19 C 211.42,272.32 211.27,272.47 211.14,272.62 C 211.01,272.78 210.89,272.95 210.80,273.12 C 210.70,273.30 210.62,273.49 210.56,273.69 C 210.50,273.89 210.51,274.12 210.44,274.31 C 210.36,274.51 210.25,274.68 210.11,274.84 C 209.97,275.01 209.79,275.15 209.58,275.28 C 209.37,275.41 209.12,275.53 208.84,275.62 C 208.57,275.72 208.25,275.81 207.91,275.88 C 207.56,275.94 207.18,275.99 206.77,276.03 C 206.35,276.07 205.90,276.09 205.42,276.09 C 204.94,276.10 204.42,276.09 203.88,276.06 C 203.33,276.04 202.67,275.98 202.12,275.94 C 201.58,275.89 201.07,275.85 200.59,275.80 C 200.12,275.75 199.68,275.70 199.28,275.64 C 198.88,275.59 198.52,275.53 198.19,275.47 C 197.86,275.41 197.57,275.35 197.31,275.28 C 197.06,275.22 196.84,275.15 196.66,275.08 C 196.47,275.01 196.33,274.93 196.22,274.86 C 196.11,274.78 196.04,274.71 196.00,274.62 C 195.96,274.54 195.98,274.45 196.00,274.38 C 196.02,274.30 196.05,274.22 196.09,274.16 C 196.14,274.09 196.20,274.03 196.28,273.97 C 196.36,273.91 196.45,273.86 196.56,273.81 C 196.67,273.77 196.80,273.72 196.94,273.69 C 197.08,273.65 197.23,273.62 197.41,273.59 C 197.58,273.57 197.77,273.55 197.97,273.53 C 198.17,273.52 198.39,273.51 198.62,273.50 C 198.86,273.49 199.14,273.51 199.38,273.50 C 199.61,273.49 199.82,273.48 200.02,273.47 C 200.21,273.45 200.39,273.43 200.55,273.41 C 200.71,273.38 200.85,273.35 200.97,273.31 C 201.09,273.28 201.20,273.23 201.28,273.19 C 201.37,273.14 201.43,273.09 201.48,273.03 C 201.53,272.97 201.57,272.91 201.58,272.84 C 201.59,272.78 201.59,272.70 201.56,272.62 C 201.54,272.55 201.52,272.46 201.44,272.38 C 201.36,272.29 201.24,272.19 201.09,272.09 C 200.94,271.99 200.76,271.89 200.53,271.78 C 200.31,271.67 200.05,271.56 199.75,271.44 C 199.45,271.32 199.12,271.19 198.75,271.06 C 198.38,270.93 197.97,270.80 197.53,270.66 C 197.09,270.52 196.61,270.37 196.09,270.22 C 195.58,270.07 195.03,269.91 194.44,269.75 C 193.85,269.59 193.19,269.41 192.56,269.25 C 191.93,269.09 191.30,268.94 190.66,268.80 C 190.02,268.65 189.37,268.52 188.72,268.39 C 188.07,268.26 187.41,268.14 186.75,268.03 C 186.09,267.92 185.42,267.82 184.75,267.72 C 184.08,267.62 183.40,267.53 182.72,267.45 C 182.04,267.37 181.35,267.30 180.66,267.23 C 179.96,267.17 179.27,267.11 178.56,267.06 C 177.86,267.01 177.14,267.00 176.44,266.94 C 175.74,266.88 175.04,266.80 174.35,266.71 C 173.66,266.62 172.98,266.51 172.30,266.38 C 171.63,266.26 170.96,266.11 170.30,265.95 C 169.63,265.79 168.98,265.62 168.33,265.42 C 167.68,265.23 167.04,265.02 166.40,264.79 C 165.76,264.56 165.13,264.32 164.51,264.05 C 163.88,263.79 163.27,263.51 162.66,263.22 C 162.05,262.92 161.41,262.58 160.84,262.28 C 160.27,261.98 159.74,261.69 159.24,261.41 C 158.74,261.14 158.28,260.87 157.85,260.62 C 157.42,260.36 157.03,260.12 156.67,259.89 C 156.31,259.66 155.99,259.44 155.70,259.23 C 155.42,259.03 155.16,258.83 154.95,258.65 C 154.73,258.46 154.55,258.29 154.40,258.13 C 154.25,257.97 154.14,257.82 154.06,257.69 C 153.99,257.55 153.97,257.44 153.94,257.31 C 153.90,257.18 153.88,257.04 153.87,256.90 C 153.85,256.75 153.85,256.60 153.85,256.45 C 153.86,256.29 153.87,256.12 153.89,255.95 C 153.91,255.78 153.94,255.61 153.98,255.42 C 154.02,255.24 154.07,255.05 154.13,254.85 C 154.19,254.65 154.26,254.45 154.34,254.24 C 154.41,254.03 154.50,253.82 154.59,253.59 C 154.69,253.37 154.76,253.14 154.91,252.91 C 155.05,252.67 155.23,252.44 155.45,252.20 C 155.66,251.95 155.92,251.71 156.21,251.46 C 156.50,251.21 156.83,250.96 157.20,250.70 C 157.57,250.45 157.98,250.19 158.42,249.92 C 158.87,249.66 159.35,249.39 159.87,249.12 C 160.39,248.85 160.94,248.57 161.54,248.29 C 162.13,248.01 162.77,247.73 163.44,247.44 C 164.11,247.15 164.86,246.84 165.56,246.56 C 166.26,246.29 166.95,246.03 167.62,245.80 C 168.30,245.56 168.97,245.34 169.62,245.14 C 170.28,244.94 170.93,244.76 171.56,244.59 C 172.20,244.43 172.82,244.28 173.44,244.16 C 174.05,244.03 174.66,243.92 175.25,243.83 C 175.84,243.74 176.43,243.66 177.00,243.61 C 177.57,243.55 178.14,243.52 178.69,243.50 C 179.24,243.48 179.77,243.51 180.31,243.50 C 180.86,243.49 181.41,243.47 181.97,243.44 C 182.53,243.41 183.09,243.36 183.66,243.31 C 184.22,243.26 184.80,243.20 185.38,243.12 C 185.95,243.05 186.54,242.97 187.12,242.88 C 187.71,242.78 188.31,242.68 188.91,242.56 C 189.51,242.45 190.11,242.32 190.72,242.19 C 191.33,242.05 191.94,241.91 192.56,241.75 C 193.18,241.59 193.85,241.41 194.44,241.25 C 195.03,241.09 195.58,240.93 196.09,240.78 C 196.61,240.63 197.09,240.48 197.53,240.34 C 197.97,240.20 198.38,240.07 198.75,239.94 C 199.12,239.81 199.45,239.68 199.75,239.56 C 200.05,239.44 200.31,239.33 200.53,239.22 C 200.76,239.11 200.94,239.01 201.09,238.91 C 201.24,238.81 201.36,238.71 201.44,238.62 C 201.52,238.54 201.54,238.45 201.56,238.38 C 201.59,238.30 201.59,238.22 201.58,238.16 C 201.57,238.09 201.53,238.03 201.48,237.97 C 201.43,237.91 201.37,237.86 201.28,237.81 C 201.20,237.77 201.09,237.72 200.97,237.69 C 200.85,237.65 200.71,237.62 200.55,237.59 C 200.39,237.57 200.21,237.55 200.02,237.53 C 199.82,237.52 199.61,237.51 199.38,237.50 C 199.14,237.49 198.86,237.51 198.62,237.50 C 198.39,237.49 198.17,237.48 197.97,237.47 C 197.77,237.45 197.58,237.43 197.41,237.41 C 197.23,237.38 197.08,237.35 196.94,237.31 C 196.80,237.28 196.67,237.23 196.56,237.19 C 196.45,237.14 196.36,237.09 196.28,237.03 C 196.20,236.97 196.14,236.91 196.09,236.84 C 196.05,236.78 196.02,236.70 196.00,236.62 C 195.98,236.55 195.96,236.46 196.00,236.38 C 196.04,236.29 196.11,236.22 196.22,236.14 C 196.33,236.07 196.47,235.99 196.66,235.92 C 196.84,235.85 197.06,235.78 197.31,235.72 C 197.57,235.65 197.86,235.59 198.19,235.53 C 198.52,235.47 198.88,235.41 199.28,235.36 C 199.68,235.30 200.12,235.25 200.59,235.20 C 201.07,235.15 201.58,235.11 202.12,235.06 C 202.67,235.02 203.33,234.96 203.88,234.94 C 204.42,234.91 204.94,234.90 205.42,234.91 C 205.90,234.91 206.35,234.93 206.77,234.97 C 207.18,235.01 207.56,235.06 207.91,235.12 C 208.25,235.19 208.57,235.28 208.84,235.38 C 209.12,235.47 209.37,235.59 209.58,235.72 C 209.79,235.85 209.97,235.99 210.11,236.16 C 210.25,236.32 210.36,236.49 210.44,236.69 C 210.51,236.88 210.50,237.11 210.56,237.31 C 210.62,237.51 210.70,237.70 210.80,237.88 C 210.89,238.05 211.01,238.22 211.14,238.38 C 211.27,238.53 211.42,238.68 211.59,238.81 C 211.76,238.95 211.95,239.07 212.16,239.19 C 212.36,239.30 212.59,239.41 212.83,239.50 C 213.07,239.59 213.33,239.68 213.61,239.75 C 213.89,239.82 214.18,239.89 214.50,239.94 C 214.82,239.99 215.19,240.04 215.50,240.06 C 215.81,240.09 216.11,240.10 216.38,240.10 C 216.66,240.10 216.91,240.08 217.15,240.05 C 217.38,240.02 217.60,239.98 217.80,239.92 C 217.99,239.86 218.17,239.79 218.33,239.70 C 218.49,239.62 218.62,239.51 218.74,239.40 C 218.86,239.28 218.96,239.15 219.04,239.01 C 219.12,238.86 219.18,238.70 219.22,238.53 C 219.26,238.36 219.25,238.15 219.28,237.97 C 219.31,237.78 219.35,237.60 219.41,237.42 C 219.46,237.24 219.52,237.07 219.59,236.89 C 219.67,236.72 219.75,236.54 219.84,236.38 C 219.94,236.21 220.04,236.04 220.16,235.88 C 220.27,235.71 220.40,235.55 220.53,235.39 C 220.67,235.23 220.81,235.08 220.97,234.92 C 221.12,234.77 221.29,234.62 221.47,234.47 C 221.65,234.32 221.81,234.18 222.03,234.03 C 222.26,233.89 222.52,233.74 222.82,233.60 C 223.12,233.46 223.46,233.32 223.84,233.18 C 224.21,233.04 224.63,232.90 225.08,232.77 C 225.53,232.63 226.02,232.49 226.55,232.36 C 227.07,232.23 227.64,232.09 228.24,231.96 C 228.85,231.83 229.49,231.70 230.16,231.57 C 230.84,231.44 231.56,231.31 232.31,231.19 C 233.07,231.06 233.94,230.94 234.69,230.81 C 235.44,230.69 236.14,230.57 236.80,230.45 C 237.47,230.32 238.09,230.20 238.66,230.09 C 239.24,229.97 239.77,229.85 240.27,229.73 C 240.76,229.62 241.20,229.50 241.61,229.39 C 242.01,229.28 242.38,229.17 242.70,229.05 C 243.01,228.94 243.29,228.83 243.52,228.73 C 243.76,228.62 243.95,228.51 244.09,228.41 C 244.24,228.30 244.31,228.20 244.41,228.09 C 244.50,227.99 244.58,227.88 244.65,227.77 C 244.72,227.67 244.77,227.56 244.82,227.45 C 244.87,227.33 244.90,227.22 244.92,227.11 C 244.94,227.00 244.95,226.88 244.95,226.77 C 244.95,226.65 244.94,226.53 244.91,226.41 C 244.89,226.30 244.85,226.18 244.80,226.05 C 244.76,225.93 244.70,225.81 244.62,225.69 C 244.55,225.56 244.45,225.45 244.38,225.31 C 244.30,225.18 244.22,225.03 244.16,224.88 C 244.09,224.72 244.03,224.55 243.97,224.38 C 243.91,224.20 243.86,224.01 243.81,223.81 C 243.77,223.61 243.72,223.41 243.69,223.19 C 243.65,222.97 243.62,222.74 243.59,222.50 C 243.57,222.26 243.55,222.01 243.53,221.75 C 243.52,221.49 243.51,221.22 243.50,220.94 C 243.49,220.66 243.49,220.35 243.50,220.06 C 243.51,219.78 243.53,219.51 243.55,219.24 C 243.58,218.98 243.62,218.72 243.66,218.48 C 243.71,218.23 243.76,217.99 243.83,217.77 C 243.89,217.54 243.96,217.32 244.05,217.11 C 244.13,216.90 244.22,216.70 244.32,216.51 C 244.42,216.32 244.53,216.13 244.65,215.96 C 244.77,215.79 244.89,215.62 245.03,215.47 C 245.17,215.31 245.26,215.18 245.47,215.03 C 245.68,214.88 245.95,214.74 246.29,214.59 C 246.63,214.44 247.03,214.29 247.49,214.13 C 247.96,213.98 248.49,213.83 249.08,213.67 C 249.67,213.52 250.33,213.36 251.05,213.20 C 251.77,213.05 252.55,212.89 253.40,212.73 C 254.25,212.57 255.16,212.40 256.13,212.24 C 257.11,212.08 258.15,211.92 259.25,211.75 C 260.35,211.58 261.65,211.41 262.75,211.25 C 263.85,211.09 264.90,210.94 265.88,210.80 C 266.85,210.65 267.77,210.52 268.62,210.39 C 269.48,210.26 270.27,210.14 271.00,210.03 C 271.73,209.92 272.40,209.82 273.00,209.72 C 273.60,209.62 274.15,209.53 274.62,209.45 C 275.10,209.37 275.52,209.30 275.88,209.23 C 276.23,209.17 276.52,209.11 276.75,209.06 C 276.98,209.01 277.10,208.98 277.25,208.94 C 277.40,208.89 277.55,208.85 277.68,208.80 C 277.81,208.76 277.93,208.71 278.04,208.66 C 278.15,208.62 278.24,208.57 278.33,208.52 C 278.41,208.46 278.49,208.41 278.55,208.36 C 278.61,208.31 278.66,208.25 278.70,208.20 C 278.73,208.14 278.76,208.08 278.77,208.02 C 278.79,207.96 278.79,207.90 278.78,207.84 C 278.77,207.78 278.75,207.72 278.72,207.66 C 278.68,207.59 278.63,207.52 278.57,207.45 C 278.51,207.37 278.43,207.29 278.34,207.21 C 278.24,207.13 278.14,207.04 278.02,206.95 C 277.89,206.86 277.76,206.77 277.61,206.67 C 277.46,206.57 277.30,206.47 277.12,206.37 C 276.94,206.26 276.75,206.15 276.54,206.04 C 276.33,205.93 276.11,205.81 275.88,205.69 C 275.64,205.57 275.33,205.46 275.12,205.31 C 274.92,205.16 274.77,204.98 274.66,204.77 C 274.56,204.57 274.50,204.33 274.49,204.07 C 274.48,203.81 274.52,203.52 274.61,203.20 C 274.70,202.89 274.83,202.54 275.02,202.17 C 275.20,201.80 275.43,201.40 275.71,200.98 C 275.99,200.55 276.32,200.10 276.70,199.62 C 277.07,199.14 277.50,198.63 277.97,198.09 C 278.44,197.56 278.92,196.93 279.53,196.41 C 280.15,195.88 280.86,195.39 281.66,194.93 C 282.47,194.47 283.37,194.05 284.37,193.66 C 285.36,193.28 286.45,192.93 287.64,192.61 C 288.83,192.29 290.11,192.01 291.48,191.77 C 292.86,191.52 294.33,191.31 295.90,191.13 C 297.46,190.96 299.13,190.82 300.88,190.71 C 302.64,190.61 304.49,190.54 306.44,190.50 C 308.38,190.46 310.62,190.47 312.56,190.50 C 314.51,190.53 316.35,190.58 318.10,190.66 C 319.85,190.75 321.50,190.86 323.05,190.99 C 324.61,191.13 326.06,191.29 327.42,191.48 C 328.78,191.68 330.04,191.89 331.20,192.14 C 332.37,192.39 333.43,192.66 334.40,192.96 C 335.37,193.26 336.24,193.59 337.01,193.95 C 337.78,194.30 338.45,194.68 339.03,195.09 C 339.61,195.50 340.04,195.99 340.47,196.41 C 340.90,196.82 341.28,197.22 341.61,197.59 C 341.94,197.97 342.22,198.32 342.45,198.66 C 342.68,198.99 342.87,199.30 343.00,199.59 C 343.13,199.89 343.22,200.16 343.25,200.41 C 343.28,200.66 343.27,200.89 343.20,201.09 C 343.14,201.30 343.02,201.49 342.86,201.66 C 342.70,201.82 342.48,201.97 342.22,202.09 C 341.96,202.22 341.59,202.31 341.28,202.41 C 340.97,202.50 340.66,202.60 340.35,202.68 C 340.04,202.76 339.74,202.84 339.43,202.91 C 339.12,202.99 338.82,203.05 338.52,203.11 C 338.21,203.17 337.91,203.22 337.61,203.27 C 337.31,203.31 337.01,203.35 336.71,203.38 C 336.41,203.42 336.12,203.44 335.82,203.46 C 335.52,203.48 335.23,203.49 334.94,203.50 C 334.64,203.51 334.34,203.51 334.06,203.50 C 333.78,203.49 333.51,203.48 333.25,203.47 C 332.99,203.45 332.74,203.43 332.50,203.41 C 332.26,203.38 332.03,203.35 331.81,203.31 C 331.59,203.28 331.39,203.23 331.19,203.19 C 330.99,203.14 330.80,203.09 330.62,203.03 C 330.45,202.97 330.28,202.91 330.12,202.84 C 329.97,202.78 329.82,202.70 329.69,202.62 C 329.55,202.55 329.49,202.45 329.31,202.38 C 329.14,202.30 328.91,202.22 328.62,202.16 C 328.34,202.09 328.01,202.03 327.62,201.97 C 327.24,201.91 326.80,201.86 326.31,201.81 C 325.82,201.77 325.28,201.72 324.69,201.69 C 324.09,201.65 323.45,201.62 322.75,201.59 C 322.05,201.57 321.30,201.55 320.50,201.53 C 319.70,201.52 318.84,201.51 317.94,201.50 C 317.03,201.49 315.98,201.48 315.06,201.50 C 314.15,201.52 313.27,201.55 312.45,201.60 C 311.62,201.65 310.83,201.72 310.09,201.80 C 309.34,201.89 308.64,201.99 307.98,202.11 C 307.33,202.23 306.71,202.36 306.14,202.52 C 305.57,202.67 305.04,202.84 304.55,203.02 C 304.07,203.21 303.63,203.41 303.23,203.63 C 302.83,203.85 302.47,204.09 302.16,204.34 C 301.84,204.60 301.59,204.90 301.34,205.16 C 301.10,205.41 300.88,205.66 300.69,205.89 C 300.49,206.12 300.33,206.34 300.19,206.55 C 300.05,206.75 299.93,206.95 299.84,207.12 C 299.76,207.30 299.69,207.47 299.66,207.62 C 299.62,207.78 299.61,207.92 299.62,208.05 C 299.64,208.17 299.68,208.29 299.75,208.39 C 299.82,208.49 299.91,208.58 300.03,208.66 C 300.15,208.73 300.29,208.79 300.47,208.84 C 300.65,208.90 300.86,208.95 301.10,208.99 C 301.35,209.04 301.62,209.07 301.93,209.10 C 302.24,209.13 302.58,209.15 302.95,209.17 C 303.33,209.19 303.73,209.20 304.17,209.20 C 304.61,209.21 305.08,209.20 305.59,209.20 C 306.09,209.19 306.63,209.17 307.20,209.15 C 307.76,209.13 308.37,209.10 309.00,209.06 C 309.63,209.03 310.33,208.96 311.00,208.94 C 311.67,208.91 312.33,208.90 313.00,208.91 C 313.67,208.91 314.33,208.93 315.00,208.97 C 315.67,209.01 316.33,209.06 317.00,209.12 C 317.67,209.19 318.33,209.28 319.00,209.38 C 319.67,209.47 320.33,209.59 321.00,209.72 C 321.67,209.85 322.33,209.99 323.00,210.16 C 323.67,210.32 324.33,210.49 325.00,210.69 C 325.67,210.88 326.37,211.08 327.00,211.31 C 327.63,211.55 328.21,211.81 328.76,212.10 C 329.30,212.39 329.81,212.71 330.27,213.05 C 330.74,213.40 331.16,213.77 331.55,214.17 C 331.93,214.57 332.27,215.00 332.58,215.45 C 332.88,215.91 333.14,216.39 333.37,216.90 C 333.59,217.41 333.77,217.94 333.91,218.51 C 334.06,219.07 334.16,219.66 334.22,220.28 C 334.28,220.90 334.27,221.61 334.28,222.22 C 334.29,222.83 334.30,223.40 334.29,223.93 C 334.28,224.46 334.27,224.96 334.24,225.41 C 334.22,225.87 334.18,226.29 334.14,226.67 C 334.10,227.05 334.05,227.40 333.98,227.70 C 333.92,228.01 333.85,228.28 333.77,228.51 C 333.69,228.74 333.61,228.93 333.51,229.09 C 333.41,229.24 333.30,229.36 333.19,229.44 C 333.07,229.52 332.90,229.52 332.81,229.56 C 332.73,229.61 332.68,229.66 332.66,229.71 C 332.65,229.76 332.68,229.82 332.74,229.88 C 332.81,229.94 332.91,230.01 333.05,230.08 C 333.19,230.15 333.36,230.22 333.58,230.30 C 333.79,230.37 334.05,230.45 334.34,230.54 C 334.63,230.62 334.95,230.71 335.32,230.80 C 335.69,230.90 336.09,230.99 336.53,231.09 C 336.97,231.19 337.51,231.31 337.97,231.41 C 338.43,231.50 338.87,231.60 339.29,231.68 C 339.71,231.76 340.11,231.84 340.49,231.91 C 340.87,231.99 341.24,232.05 341.58,232.11 C 341.92,232.17 342.24,232.22 342.55,232.27 C 342.85,232.31 343.13,232.35 343.40,232.38 C 343.66,232.42 343.91,232.44 344.13,232.46 C 344.36,232.48 344.56,232.49 344.75,232.50 C 344.94,232.51 345.09,232.51 345.25,232.50 C 345.41,232.49 345.55,232.48 345.69,232.47 C 345.82,232.45 345.95,232.43 346.06,232.41 C 346.18,232.38 346.28,232.35 346.38,232.31 C 346.47,232.28 346.55,232.23 346.62,232.19 C 346.70,232.14 346.76,232.09 346.81,232.03 C 346.86,231.97 346.91,231.91 346.94,231.84 C 346.97,231.78 346.99,231.70 347.00,231.62 C 347.01,231.55 346.98,231.45 347.00,231.38 C 347.02,231.30 347.05,231.23 347.11,231.17 C 347.16,231.11 347.24,231.06 347.33,231.02 C 347.42,230.97 347.53,230.93 347.66,230.91 C 347.78,230.88 347.93,230.86 348.09,230.84 C 348.26,230.83 348.44,230.83 348.64,230.83 C 348.84,230.83 349.06,230.84 349.30,230.86 C 349.53,230.88 349.79,230.90 350.06,230.94 C 350.34,230.97 350.64,231.00 350.94,231.06 C 351.23,231.12 351.52,231.20 351.82,231.29 C 352.12,231.38 352.41,231.49 352.71,231.62 C 353.01,231.74 353.31,231.89 353.61,232.05 C 353.91,232.21 354.21,232.38 354.52,232.58 C 354.82,232.77 355.12,232.98 355.43,233.21 C 355.74,233.44 356.04,233.68 356.35,233.95 C 356.66,234.21 356.97,234.49 357.28,234.78 C 357.59,235.08 357.91,235.40 358.22,235.72 C 358.52,236.04 358.82,236.36 359.12,236.70 C 359.41,237.03 359.70,237.37 359.98,237.71 C 360.26,238.06 360.53,238.41 360.80,238.77 C 361.06,239.12 361.32,239.49 361.58,239.86 C 361.83,240.23 362.08,240.61 362.32,240.99 C 362.56,241.38 362.80,241.77 363.02,242.16 C 363.25,242.56 363.47,242.96 363.69,243.38 C 363.90,243.79 364.12,244.20 364.31,244.62 C 364.51,245.05 364.69,245.48 364.86,245.92 C 365.03,246.36 365.18,246.81 365.33,247.27 C 365.47,247.72 365.60,248.18 365.72,248.66 C 365.84,249.13 365.94,249.61 366.03,250.09 C 366.12,250.58 366.20,251.08 366.27,251.58 C 366.33,252.08 366.38,252.59 366.42,253.11 C 366.46,253.63 366.49,254.15 366.50,254.69 C 366.51,255.22 366.51,255.78 366.50,256.31 C 366.49,256.85 366.46,257.37 366.42,257.89 C 366.38,258.41 366.33,258.92 366.27,259.42 C 366.20,259.92 366.12,260.42 366.03,260.91 C 365.94,261.39 365.84,261.87 365.72,262.34 C 365.60,262.82 365.47,263.28 365.33,263.73 C 365.18,264.19 365.03,264.64 364.86,265.08 C 364.69,265.52 364.51,265.95 364.31,266.38 C 364.12,266.80 363.90,267.21 363.69,267.62 C 363.47,268.04 363.25,268.44 363.02,268.84 C 362.80,269.23 362.56,269.62 362.32,270.01 C 362.08,270.39 361.83,270.77 361.58,271.14 C 361.32,271.51 361.06,271.88 360.80,272.23 C 360.53,272.59 360.26,272.94 359.98,273.29 C 359.70,273.63 359.41,273.97 359.12,274.30 C 358.82,274.64 358.52,274.96 358.22,275.28 C 357.91,275.60 357.59,275.92 357.28,276.22 C 356.97,276.51 356.66,276.79 356.35,277.05 C 356.04,277.32 355.74,277.56 355.43,277.79 C 355.12,278.02 354.82,278.23 354.52,278.42 C 354.21,278.62 353.91,278.79 353.61,278.95 C 353.31,279.11 353.01,279.26 352.71,279.38 C 352.41,279.51 352.12,279.62 351.82,279.71 C 351.52,279.80 351.23,279.88 350.94,279.94 C 350.64,280.00 350.34,280.03 350.06,280.06 C 349.79,280.09 349.53,280.11 349.30,280.12 C 349.06,280.14 348.84,280.14 348.64,280.12 C 348.44,280.11 348.26,280.09 348.09,280.06 C 347.93,280.03 347.78,279.99 347.66,279.94 C 347.53,279.89 347.42,279.82 347.33,279.75 C 347.24,279.68 347.16,279.59 347.11,279.50 C 347.05,279.41 347.02,279.30 347.00,279.19 C 346.98,279.07 347.04,278.92 347.00,278.81 C 346.96,278.70 346.88,278.61 346.76,278.54 C 346.64,278.46 346.48,278.41 346.27,278.37 C 346.07,278.33 345.83,278.30 345.55,278.30 C 345.26,278.29 344.94,278.30 344.58,278.33 C 344.21,278.36 343.81,278.40 343.37,278.46 C 342.92,278.52 342.44,278.60 341.91,278.70 C 341.39,278.79 340.82,278.90 340.22,279.03 C 339.61,279.16 338.88,279.33 338.28,279.47 C 337.68,279.61 337.13,279.74 336.63,279.87 C 336.13,279.99 335.68,280.11 335.27,280.23 C 334.87,280.34 334.51,280.45 334.20,280.55 C 333.89,280.65 333.63,280.74 333.42,280.83 C 333.21,280.92 333.05,281.00 332.93,281.07 C 332.81,281.14 332.75,281.21 332.73,281.27 C 332.71,281.33 332.74,281.39 332.81,281.44 C 332.89,281.49 333.07,281.48 333.19,281.56 C 333.30,281.64 333.41,281.76 333.51,281.91 C 333.61,282.07 333.69,282.26 333.77,282.49 C 333.85,282.72 333.92,282.99 333.98,283.30 C 334.05,283.60 334.10,283.95 334.14,284.33 C 334.18,284.71 334.22,285.13 334.24,285.59 C 334.27,286.04 334.28,286.54 334.29,287.07 C 334.30,287.60 334.29,288.17 334.28,288.78 C 334.27,289.39 334.28,290.10 334.22,290.72 C 334.16,291.34 334.06,291.93 333.91,292.49 C 333.77,293.06 333.59,293.59 333.37,294.10 C 333.14,294.61 332.88,295.09 332.58,295.55 C 332.27,296.00 331.93,296.43 331.55,296.83 C 331.16,297.23 330.74,297.60 330.27,297.95 C 329.81,298.29 329.30,298.61 328.76,298.90 C 328.21,299.19 327.63,299.45 327.00,299.69 C 326.37,299.92 325.67,300.12 325.00,300.31 C 324.33,300.51 323.67,300.68 323.00,300.84 C 322.33,301.01 321.67,301.15 321.00,301.28 C 320.33,301.41 319.67,301.53 319.00,301.62 C 318.33,301.72 317.67,301.81 317.00,301.88 C 316.33,301.94 315.67,301.99 315.00,302.03 C 314.33,302.07 313.67,302.09 313.00,302.09 C 312.33,302.10 311.67,302.09 311.00,302.06 C 310.33,302.04 309.63,301.97 309.00,301.94 C 308.37,301.90 307.76,301.87 307.20,301.85 C 306.63,301.83 306.09,301.81 305.59,301.80 C 305.08,301.80 304.61,301.79 304.17,301.80 C 303.73,301.80 303.33,301.81 302.95,301.83 C 302.58,301.85 302.24,301.87 301.93,301.90 C 301.62,301.93 301.35,301.96 301.10,302.01 C 300.86,302.05 300.65,302.10 300.47,302.16 C 300.29,302.21 300.15,302.27 300.03,302.34 C 299.91,302.42 299.82,302.51 299.75,302.61 C 299.68,302.71 299.64,302.83 299.62,302.95 C 299.61,303.08 299.62,303.22 299.66,303.38 C 299.69,303.53 299.76,303.70 299.84,303.88 C 299.93,304.05 300.05,304.25 300.19,304.45 C 300.33,304.66 300.49,304.88 300.69,305.11 C 300.88,305.34 301.10,305.59 301.34,305.84 C 301.59,306.10 301.84,306.40 302.16,306.66 C 302.47,306.91 302.83,307.15 303.23,307.37 C 303.63,307.59 304.07,307.79 304.55,307.98 C 305.04,308.16 305.57,308.33 306.14,308.48 C 306.71,308.64 307.33,308.77 307.98,308.89 C 308.64,309.01 309.34,309.11 310.09,309.20 C 310.83,309.28 311.62,309.35 312.45,309.40 C 313.27,309.45 314.15,309.48 315.06,309.50 C 315.98,309.52 317.03,309.51 317.94,309.50 C 318.84,309.49 319.70,309.48 320.50,309.47 C 321.30,309.45 322.05,309.43 322.75,309.41 C 323.45,309.38 324.09,309.35 324.69,309.31 C 325.28,309.28 325.82,309.23 326.31,309.19 C 326.80,309.14 327.24,309.09 327.62,309.03 C 328.01,308.97 328.34,308.91 328.62,308.84 C 328.91,308.78 329.14,308.70 329.31,308.62 C 329.49,308.55 329.54,308.45 329.69,308.38 C 329.84,308.30 330.02,308.23 330.22,308.17 C 330.42,308.11 330.65,308.06 330.91,308.02 C 331.16,307.97 331.44,307.93 331.75,307.91 C 332.06,307.88 332.39,307.86 332.75,307.84 C 333.11,307.83 333.49,307.83 333.91,307.83 C 334.32,307.83 334.76,307.84 335.22,307.86 C 335.68,307.88 336.17,307.90 336.69,307.94 C 337.20,307.97 337.80,308.02 338.31,308.06 C 338.82,308.11 339.31,308.15 339.76,308.20 C 340.21,308.24 340.63,308.29 341.02,308.34 C 341.42,308.38 341.78,308.43 342.11,308.48 C 342.44,308.54 342.74,308.59 343.02,308.64 C 343.29,308.69 343.53,308.75 343.74,308.80 C 343.95,308.86 344.14,308.92 344.29,308.98 C 344.44,309.04 344.56,309.10 344.66,309.16 C 344.75,309.22 344.79,309.28 344.84,309.34 C 344.90,309.41 344.95,309.47 344.99,309.54 C 345.04,309.61 345.07,309.67 345.10,309.74 C 345.13,309.81 345.15,309.88 345.17,309.95 C 345.19,310.02 345.20,310.10 345.20,310.17 C 345.21,310.25 345.20,310.32 345.20,310.40 C 345.19,310.48 345.17,310.55 345.15,310.63 C 345.13,310.71 345.10,310.79 345.06,310.88 C 345.03,310.96 345.00,311.02 344.94,311.12 C 344.87,311.23 344.78,311.34 344.66,311.48 C 344.55,311.61 344.41,311.76 344.24,311.93 C 344.08,312.10 343.89,312.28 343.67,312.48 C 343.46,312.69 343.22,312.90 342.95,313.14 C 342.69,313.38 342.40,313.63 342.09,313.90 C 341.77,314.17 341.43,314.45 341.07,314.76 C 340.71,315.06 340.32,315.38 339.91,315.72 C 339.49,316.06 339.13,316.45 338.59,316.78 C 338.06,317.11 337.42,317.42 336.68,317.71 C 335.94,318.00 335.10,318.26 334.16,318.51 C 333.23,318.75 332.19,318.97 331.05,319.17 C 329.91,319.37 328.67,319.55 327.33,319.70 C 325.99,319.86 324.55,319.99 323.01,320.10 C 321.47,320.21 319.83,320.30 318.09,320.37 C 316.35,320.43 314.50,320.48 312.56,320.50 Z" stroke="none" fill="currentColor" opacity="0.11" />
  <path d="M316.35,243.84L308.56,243.85 M317.97,258.92L317.81,253.08 M323.33,258.92L323.33,253.08 M342.67,267.38L336.97,267.38 M336.97,244.10L342.67,244.10 M342.67,244.62L336.97,244.62 M336.21,271.39L345.32,271.39 M322.96,249.60L328.77,249.60 M328.77,262.40L322.96,262.40 M345.40,251.11L337.56,251.09 M306.54,250.69L313.49,250.69 M323.56,265.01L308.67,264.97 M324.42,251.34L308.58,251.95 M330.67,250.90L330.67,259.32 M332.79,248.50L341.22,248.52 M331.06,259.48L331.06,252.52 M331.04,259.48L331.04,252.52 M331.44,261.51L331.44,250.49 M308.13,244.07L308.13,244.07 M290.52,237.69L290.52,237.69 M294.30,237.69L294.30,237.69 M295.09,274.00L295.11,273.99 M294.17,274.08L294.17,274.08 M293.77,274.31L293.77,274.31 M295.67,265.34L289.41,265.33 M296.11,245.16L288.78,245.16 M295.48,246.67L289.39,246.67 M295.48,246.40L289.41,246.40 M311.41,243.09L316.88,243.10 M311.41,246.05L316.88,246.04 M311.41,265.95L316.85,265.93 M311.41,243.83L316.82,243.86 M308.57,270.88L316.95,270.88 M308.53,271.20L316.99,271.19 M317.60,241.72L307.91,241.72 M317.60,241.48L307.91,241.48 M317.60,270.51L307.91,270.51 M317.60,270.28L307.91,270.28 M329.21,254.10L318.95,254.21 M318.95,254.64L329.21,254.64 M318.95,255.19L329.21,255.19 M318.95,255.95L329.21,256.15 M318.47,255.40L329.60,255.40 M318.47,256.71L329.60,256.71 M317.80,264.22L326.08,264.22 M326.08,264.22L317.80,264.22 M350.40,264.20L340.77,264.20 M350.40,263.31L340.80,263.21 M350.40,247.94L340.78,247.85 M350.40,247.85L340.77,247.86 M334.95,256.61L349.68,256.52 M349.68,255.33L334.95,255.35 M333.40,258.71L349.74,258.71 M333.40,253.35L349.74,253.35 M337.68,243.88L343.54,244.44 M343.56,244.46L337.70,243.89 M343.57,243.97L337.76,243.42 M297.37,250.52L288.16,250.52 M288.16,247.83L297.37,247.83 M297.37,264.17L288.16,264.17 M288.16,261.48L297.37,261.48 M295.81,258.33L288.16,258.39 M332.41,269.97L338.19,269.34 M332.70,270.00L338.22,269.43 M332.65,242.14L338.19,242.66 M335.56,270.25L343.22,269.48 M344.10,242.69L335.53,241.82 M335.54,241.76L329.90,241.07 M335.54,241.76L343.20,242.53 M318.07,270.53L325.94,270.53 M325.94,270.53L318.07,270.51 M318.68,241.12L325.94,241.12 M318.07,241.48L326.13,241.48 M318.07,241.49L326.13,241.48 M318.66,240.91L325.94,240.91 M345.82,245.16L326.42,242.81 M323.27,259.82L323.27,252.18 M288.19,264.56L297.28,264.56 M288.17,252.22L297.30,252.22 M288.17,259.78L297.30,259.78 M297.30,260.73L288.17,260.73 M288.17,251.27L297.30,251.27 M301.53,264.22L306.92,264.22 M307.15,255.52L301.02,255.65 M307.15,255.30L301.02,255.27 M301.02,254.13L307.15,254.21 M305.55,274.30L299.65,274.30 M316.76,254.64L308.71,254.64 M308.71,255.18L316.76,255.29 M308.71,255.74L316.76,255.57 M316.76,256.33L308.71,256.49 M316.91,245.26L308.51,245.26 M316.91,265.11L308.51,265.11 M317.20,256.82L308.32,256.95 M317.20,255.64L308.32,255.64 M308.32,255.29L317.20,255.26 M317.20,254.09L308.32,254.09 M308.46,247.66L317.05,247.66 M317.06,247.50L308.46,247.50 M308.47,247.21L317.06,247.21 M308.48,264.18L317.06,264.18 M301.25,243.09L306.72,243.10 M301.25,246.05L306.72,246.04 M301.25,265.95L306.69,265.93 M301.25,243.83L306.66,243.86 M298.41,270.88L306.79,270.88 M298.38,271.20L306.83,271.19 M307.45,241.72L297.76,241.72 M307.45,241.48L297.76,241.48 M307.45,270.51L297.76,270.51 M307.45,270.28L297.76,270.28 M331.47,269.86L338.90,268.99 M331.30,243.25L338.71,244.06 M338.69,269.80L332.37,270.48 M332.08,269.73L338.41,269.04 M349.87,246.62L349.87,252.85 M349.77,252.86L349.77,246.62 M327.02,239.73L327.02,239.73 M326.97,240.19L326.89,240.16 M327.21,239.89L327.21,239.89 M346.29,269.85L338.20,270.87 M349.95,265.33L349.95,246.67 M297.70,270.81L297.60,270.88 M188.12,256.44L188.02,256.51 M185.78,259.25L185.78,259.25 M185.78,256.56L185.78,256.56 M185.72,258.74L185.72,258.74 M185.74,259.00L185.82,258.86 M190.05,260.98L190.12,261.08 M192.85,263.33L192.85,263.33 M190.17,263.33L190.17,263.33 M192.35,263.38L192.35,263.38 M192.61,263.36L192.47,263.28 M192.98,251.02L192.91,250.92 M190.17,248.68L190.17,248.68 M192.85,248.68L192.85,248.68 M190.68,248.62L190.68,248.62 M190.42,248.64L190.56,248.72 M188.12,252.63L188.02,252.70 M185.78,255.44L185.78,255.44 M185.78,252.76L185.78,252.76 M185.72,254.93L185.72,254.93 M185.74,255.19L185.82,255.05 M286.34,253.06L286.34,258.94 M232.11,252.05L232.12,252.00 M256.10,254.34L261.50,254.34 M267.27,257.60L261.90,257.60 M267.27,257.60L261.90,257.60 M267.27,254.40L261.90,254.40 M267.27,254.40L261.90,254.40 M255.70,257.60L250.33,257.60 M255.70,254.40L250.33,254.40 M255.70,254.40L250.33,254.40 M285.05,257.61L279.68,257.61 M285.05,257.61L279.68,257.61 M285.05,254.40L279.68,254.40 M285.05,254.40L279.68,254.40 M279.26,257.61L273.89,257.61 M279.26,257.61L273.89,257.61 M279.26,254.40L273.89,254.40 M279.26,254.40L273.89,254.40 M273.48,257.61L268.11,257.61 M273.48,257.61L268.11,257.61 M273.48,254.40L268.11,254.40 M273.48,254.40L268.11,254.40 M267.75,254.41L267.75,254.42 M287.71,259.86L287.70,259.85 M171.82,246.96L166.42,248.45 M164.14,249.17L157.93,251.36 M179.92,247.86L173.91,247.85 M173.91,247.85L179.92,247.86 M179.50,249.47L174.10,249.47 M179.50,262.53L174.10,262.53 M204.72,264.30L204.69,264.28 M201.41,247.70L201.44,247.72 M207.51,247.70L207.53,247.72 M198.62,264.30L198.60,264.28 M222.32,248.53L222.32,248.53 M198.41,264.19L198.41,264.19 M204.51,264.19L204.51,264.19 M207.68,266.31L207.66,266.34 M207.72,247.81L207.72,247.81 M201.63,247.81L201.63,247.81 M198.16,260.09L207.99,260.09 M198.16,260.45L207.98,260.45 M207.98,251.55L198.16,251.56 M198.66,253.57L207.99,253.57 M210.18,262.65L210.16,262.68 M210.18,262.65L210.16,262.63 M194.18,262.25L194.21,263.01 M222.01,262.63L222.07,262.60 M216.52,267.03L216.52,267.03 M217.93,267.33L218.02,267.43 M221.07,248.31L221.09,248.28 M221.12,253.33L215.57,253.39 M211.84,254.60L219.82,254.60 M226.06,260.86L226.06,266.32 M226.35,260.86L226.35,266.32 M232.35,266.32L232.38,260.86 M230.62,260.95L230.61,266.43 M281.44,269.31L287.40,269.32 M286.63,242.70L280.67,242.69 M260.73,264.99L260.72,270.95 M260.73,241.82L260.72,247.78 M308.83,268.25L316.34,268.24 M308.83,268.25L316.51,268.24 M328.43,243.73L320.93,243.74 M328.43,243.73L320.75,243.74 M320.90,268.25L328.40,268.24 M320.90,268.25L328.58,268.24 M308.13,244.07L308.13,244.07 M317.07,267.94L317.07,267.94 M329.13,267.94L329.13,267.94 M320.19,244.07L320.19,244.07 M286.68,274.65L293.55,274.65 M225.89,254.50L231.22,254.50 M225.45,264.26L243.58,264.26 M225.45,264.26L237.15,264.26 M243.58,246.50L225.45,246.50 M236.60,266.25L247.24,266.25 M224.84,259.57L224.84,266.30 M227.61,266.53L233.59,266.53 M240.15,246.39L229.29,246.39 M244.70,245.58L235.82,245.58 M278.53,268.24L278.50,261.25 M278.36,268.41L278.25,261.28 M280.61,261.72L287.46,261.72 M279.77,262.03L279.77,262.03 M279.75,262.00L279.75,262.01 M288.30,261.95L288.30,261.94 M288.32,261.93L288.32,261.92 M294.20,265.16L294.20,259.49 M278.36,243.59L278.25,250.57 M275.29,250.57L275.29,243.59 M287.46,250.28L280.61,250.28 M288.30,249.98L288.30,249.97 M288.32,250.00L288.32,249.99 M279.77,249.97L279.77,249.98 M279.75,249.99L279.75,250.00 M289.58,246.85L289.58,252.52 M261.62,261.91L268.76,261.80 M261.80,262.08L268.78,262.05 M268.31,264.16L268.31,271.01 M268.01,263.32L268.01,263.32 M268.03,263.30L268.02,263.30 M268.01,271.85L268.02,271.85 M268.03,271.87L268.04,271.87 M268.01,240.15L268.01,240.15 M268.03,240.13L268.02,240.13 M268.31,240.99L268.31,247.84 M268.01,248.68L268.02,248.68 M268.03,248.70L268.04,248.70 M261.62,250.09L268.61,250.20 M268.61,253.16L261.62,253.16 M288.52,238.39L296.15,238.39 M288.86,237.98L296.38,237.98 M293.55,237.35L286.68,237.35 M284.31,230.59L275.19,230.59 M268.31,230.06L262.67,230.06 M269.68,238.70L269.68,238.70 M274.66,233.18L260.40,233.18 M266.09,232.92L274.14,232.94 M275.19,239.83L284.31,239.83 M292.75,230.06L287.11,230.06 M258.81,270.72L258.81,261.60 M256.96,252.50L256.79,260.67 M257.13,252.49L257.10,260.53 M250.86,261.60L250.86,270.72 M258.81,256.44L258.81,247.31 M262.62,281.94L268.26,281.94 M274.66,278.83L260.40,278.83 M284.31,272.17L275.19,272.17 M275.19,281.41L284.31,281.41 M261.29,273.31L261.29,273.31 M287.06,281.94L292.70,281.94 M302.83,240.63L302.67,240.63 M302.83,240.90L302.67,240.90 M305.16,250.40L305.16,241.29 M301.96,252.40L301.96,259.74 M304.46,251.38L304.44,251.39 M304.67,251.68L304.66,251.68 M301.92,259.62L301.98,252.39 M302.83,271.10L302.67,271.10 M302.83,271.37L302.67,271.37 M296.52,251.43L296.58,260.55 M305.16,270.71L305.16,261.60 M205.19,259.11L196.08,259.33 M272.99,285.40L296.06,285.75 M296.06,226.33L273.01,226.60 M337.37,232.36L328.21,231.31 M337.37,279.65L328.21,280.69 M294.86,281.94L294.39,284.71 M294.61,230.02L294.73,232.45 M218.02,245.61L226.61,245.65 M192.38,263.52L192.27,258.66 M192.27,258.66L192.02,263.32 M282.23,276.54L277.87,279.45 M277.87,279.45L281.76,276.92 M203.80,239.23L208.47,238.93 M277.87,232.55L281.30,234.85 M277.87,232.55L281.68,235.10 M277.87,232.55L282.24,235.47 M321.53,247.49L336.11,248.70 M327.04,248.39L336.11,248.70 M336.11,263.30L327.04,263.61 M336.11,263.30L321.53,264.51 M319.92,234.95L328.52,237.03 M319.92,234.95L327.99,236.90 M260.05,280.33L271.37,279.26 M260.05,231.67L271.37,232.74 M253.79,271.65L275.71,271.38 M253.79,240.35L275.38,240.57 M268.23,233.82L260.38,232.46 M260.38,232.46L268.61,233.84 M315.02,237.51L320.26,238.88 M260.05,280.33L271.34,279.27 M260.05,231.67L271.34,232.73 M298.65,277.52L297.77,274.66 M292.82,260.98L292.96,267.17 M292.96,267.17L292.65,260.46 M292.82,251.03L293.10,244.84 M293.10,244.84L292.65,251.54 M219.43,242.97L225.36,242.50 M218.19,245.31L227.47,245.51 M219.67,245.22L227.47,245.51 M218.09,269.81L224.37,269.80 M223.72,246.41L216.13,246.20 M197.42,275.32L203.41,275.49 M197.42,275.00L203.41,274.83 M197.40,275.26L203.39,275.26 M197.42,236.68L203.41,236.51 M197.40,236.94L203.39,236.94 M197.42,237.01L203.41,237.18 M299.10,258.95L299.11,258.81 M299.03,253.16L299.04,253.02 M221.46,266.24L214.87,266.24 M214.39,265.14L221.92,265.00 M221.56,263.08L214.73,263.10 M221.91,260.32L221.91,260.32 M221.61,260.32L221.61,260.32 M221.61,260.87L221.61,260.87 M221.61,266.04L221.61,266.04 M221.61,265.49L221.61,265.49 M221.91,265.49L221.91,265.49 M214.43,260.32L214.43,260.32 M214.74,260.32L214.74,260.32 M214.74,260.87L214.74,260.87 M214.74,265.49L214.74,265.49 M214.43,265.49L214.43,265.49 M214.74,266.04L214.74,266.04 M258.80,263.14L267.38,263.53 M250.36,263.96L258.80,263.62 M241.03,263.13L249.63,263.84 M232.54,263.91L241.03,263.65 M258.80,248.87L250.24,248.41 M267.41,248.00L258.80,248.38 M241.03,248.86L232.45,248.24 M249.52,248.02L241.03,248.38 M246.48,266.35L241.03,266.62 M241.03,266.62L235.38,265.97 M267.34,242.90L267.68,244.93 M267.34,242.90L267.68,244.93 M249.92,259.97L267.36,260.06 M267.40,260.22L261.14,260.51 M271.35,257.72L276.71,258.64 M276.71,248.23L283.96,247.86 M276.71,248.23L283.70,247.77 M258.80,254.09L267.69,253.60 M258.80,254.09L249.92,253.60 M249.92,258.40L258.80,257.91 M267.69,258.40L258.80,257.91 M258.80,248.19L265.83,247.86 M258.80,263.81L251.78,264.14 M246.25,254.29L240.82,253.51 M233.08,248.46L240.76,247.75 M233.63,247.86L240.89,248.23 M240.89,248.23L233.95,247.69 M240.89,248.23L248.05,247.86 M240.89,248.23L248.07,248.02 M276.68,255.97L284.85,255.59 M267.08,255.59L258.80,256.02 M240.92,255.97L249.31,255.59 M284.66,261.07L284.44,260.59 M284.31,264.19L283.98,263.85 M284.25,263.55L283.98,263.85 M283.85,262.98L283.90,263.49 M284.09,247.99L284.61,248.53 M284.02,251.13L284.68,250.86 M283.97,249.28L283.91,248.41 M267.78,262.88L285.18,262.96 M364.60,247.33L355.41,248.22 M355.41,248.22L364.63,248.21 M358.52,263.64L366.38,263.01 M350.29,260.45L338.64,260.19 M350.33,256.11L338.70,256.35 M350.32,259.04L338.69,258.68 M348.91,259.28L338.62,259.00 M338.63,256.00L348.91,255.75 M350.29,252.95L338.70,253.32 M350.37,255.89L338.67,255.65 M348.91,256.25L338.63,256.00 M338.62,253.00L348.91,252.72 M338.72,264.83L350.03,264.98 M338.63,260.88L350.36,260.63 M338.61,260.55L348.91,260.29 M348.92,265.19L338.54,265.25 M350.15,246.95L338.73,247.16 M350.34,251.38L338.64,251.11 M348.91,251.71L338.66,251.75 M338.61,246.87L348.89,246.65 M342.89,247.30L338.62,251.29 M338.62,251.29L343.28,246.84 M338.68,260.69L343.25,265.16 M348.06,256.00L347.77,265.19 M347.79,246.81L348.06,256.00 M356.25,265.24L350.58,265.61 M165.79,254.16L173.88,253.86 M173.78,255.88L165.43,255.99 M165.42,254.92L173.79,254.84 M295.08,239.31L294.74,247.10 M295.08,239.31L294.58,247.50 M203.03,253.92L195.49,254.04 M202.93,258.14L195.69,258.01 M202.98,258.09L195.69,258.01 M196.11,253.93L203.03,253.92 M272.75,287.35L265.71,286.91 M272.79,287.06L265.64,286.61 M272.84,286.33L265.44,285.86 M272.90,285.50L265.26,285.23 M306.79,292.82L306.68,285.74 M252.88,280.98L269.68,279.90 M280.36,302.85L297.95,302.88 M280.64,301.71L286.04,301.73 M251.52,292.01L262.56,292.26 M301.65,297.42L293.94,297.63 M293.94,297.63L300.99,297.47 M295.20,302.42L277.01,302.37 M301.64,297.44L293.94,297.66 M293.94,297.66L300.98,297.43 M280.64,301.76L286.57,301.76 M280.64,301.76L286.04,301.78 M251.72,283.64L245.89,283.57 M251.55,283.71L245.89,283.84 M251.55,284.11L245.89,284.20 M251.72,283.46L245.89,283.43 M251.55,283.59L245.89,283.56 M245.89,283.56L251.72,283.63 M251.72,283.93L245.89,284.21 M251.59,291.54L245.92,291.65 M251.59,295.09L245.92,295.04 M251.59,295.48L245.89,295.38 M313.17,320.40L330.00,320.40 M338.38,317.37L343.61,312.83 M320.49,301.30L328.68,299.84 M325.89,284.82L326.56,290.42 M325.89,284.71L326.56,290.38 M320.09,288.44L325.46,288.25 M320.09,287.65L325.46,287.46 M320.09,286.86L325.46,286.67 M319.99,286.11L325.46,285.88 M266.05,258.03L275.09,258.36 M266.12,257.94L274.98,258.08 M267.46,259.54L273.25,258.99 M265.13,261.08L273.29,260.87 M273.06,261.87L265.13,262.12 M265.13,250.93L273.29,250.72 M273.06,251.72L265.13,251.97 M272.75,224.65L265.71,225.09 M272.79,224.94L265.64,225.39 M272.84,225.67L265.44,226.14 M272.90,226.50L265.26,226.77 M306.69,226.29L306.80,219.17 M252.88,231.02L269.68,232.10 M280.64,210.29L286.04,210.27 M305.14,228.90L296.62,226.65 M305.14,228.90L296.93,226.73 M301.65,214.58L293.94,214.37 M293.94,214.37L300.99,214.53 M263.17,219.68L251.52,219.99 M251.52,219.99L262.56,219.74 M295.20,209.59L277.01,209.63 M301.64,214.56L293.94,214.35 M293.94,214.35L300.98,214.57 M297.44,214.50L291.98,215.34 M280.64,210.24L286.57,210.24 M280.64,210.24L286.04,210.21 M251.55,228.45L245.89,228.43 M251.55,227.57L245.89,227.79 M251.55,228.03L245.89,228.16 M251.59,219.71L245.92,219.63 M298.33,198.96L291.77,198.96 M286.32,194.53L278.58,203.20 M285.82,194.08L277.99,202.79 M314.19,193.46L288.93,193.25 M313.14,191.53L330.00,191.57 M308.49,217.66L315.64,217.74 M320.09,225.40L325.46,225.20 M320.09,224.61L325.46,224.41 M320.09,223.82L325.46,223.62" stroke="currentColor" stroke-width="0.6" stroke-linecap="round" fill="none" opacity="0.55" clip-path="url(#hull-clip)" filter="url(#glow)" />
  <path d="M 312.56,320.50 C 310.62,320.52 308.38,320.54 306.44,320.50 C 304.49,320.46 302.64,320.39 300.88,320.29 C 299.13,320.18 297.46,320.04 295.90,319.87 C 294.33,319.69 292.86,319.48 291.48,319.23 C 290.11,318.99 288.83,318.71 287.64,318.39 C 286.45,318.07 285.36,317.72 284.37,317.34 C 283.37,316.95 282.47,316.53 281.66,316.07 C 280.86,315.61 280.15,315.12 279.53,314.59 C 278.92,314.07 278.44,313.45 277.97,312.91 C 277.50,312.37 277.08,311.85 276.70,311.36 C 276.33,310.87 276.01,310.40 275.73,309.95 C 275.46,309.51 275.24,309.09 275.06,308.69 C 274.89,308.29 274.76,307.91 274.69,307.56 C 274.61,307.21 274.59,306.88 274.61,306.58 C 274.63,306.27 274.71,305.99 274.83,305.73 C 274.95,305.48 275.12,305.24 275.34,305.03 C 275.57,304.82 275.99,304.66 276.16,304.47 C 276.33,304.28 276.40,304.09 276.37,303.90 C 276.34,303.71 276.21,303.51 275.98,303.32 C 275.75,303.13 275.42,302.93 274.98,302.73 C 274.55,302.54 274.02,302.34 273.39,302.14 C 272.76,301.94 272.03,301.74 271.20,301.54 C 270.36,301.34 269.43,301.13 268.40,300.93 C 267.37,300.73 266.23,300.52 265.00,300.31 C 263.77,300.11 262.26,299.89 261.00,299.69 C 259.74,299.48 258.56,299.28 257.45,299.09 C 256.33,298.89 255.30,298.70 254.34,298.51 C 253.37,298.32 252.49,298.13 251.67,297.95 C 250.86,297.77 250.12,297.60 249.45,297.42 C 248.79,297.25 248.20,297.08 247.68,296.91 C 247.16,296.75 246.72,296.59 246.35,296.43 C 245.98,296.27 245.69,296.12 245.47,295.97 C 245.25,295.82 245.17,295.69 245.03,295.53 C 244.89,295.38 244.77,295.21 244.65,295.04 C 244.53,294.87 244.42,294.68 244.32,294.49 C 244.22,294.30 244.13,294.10 244.05,293.89 C 243.96,293.68 243.89,293.46 243.83,293.23 C 243.76,293.01 243.71,292.77 243.66,292.52 C 243.62,292.28 243.58,292.02 243.55,291.76 C 243.53,291.49 243.51,291.22 243.50,290.94 C 243.49,290.65 243.49,290.34 243.50,290.06 C 243.51,289.78 243.52,289.52 243.53,289.27 C 243.55,289.01 243.57,288.77 243.59,288.55 C 243.62,288.32 243.65,288.11 243.69,287.91 C 243.72,287.71 243.77,287.52 243.81,287.34 C 243.86,287.17 243.91,287.01 243.97,286.86 C 244.03,286.71 244.09,286.58 244.16,286.45 C 244.22,286.33 244.30,286.22 244.38,286.12 C 244.45,286.03 244.55,285.96 244.62,285.88 C 244.70,285.79 244.76,285.70 244.82,285.62 C 244.88,285.53 244.92,285.44 244.96,285.35 C 245.00,285.26 245.03,285.17 245.05,285.08 C 245.07,284.99 245.08,284.89 245.08,284.80 C 245.08,284.70 245.07,284.61 245.05,284.51 C 245.04,284.41 245.01,284.31 244.98,284.21 C 244.94,284.11 244.90,284.01 244.84,283.91 C 244.79,283.80 244.77,283.70 244.66,283.59 C 244.55,283.49 244.39,283.37 244.18,283.26 C 243.97,283.14 243.72,283.02 243.41,282.90 C 243.11,282.77 242.76,282.65 242.36,282.52 C 241.96,282.38 241.51,282.25 241.02,282.11 C 240.52,281.97 239.98,281.83 239.38,281.68 C 238.79,281.53 238.15,281.38 237.46,281.23 C 236.77,281.07 236.04,280.91 235.25,280.75 C 234.46,280.59 233.54,280.42 232.75,280.25 C 231.96,280.08 231.20,279.92 230.49,279.76 C 229.78,279.60 229.11,279.43 228.48,279.27 C 227.85,279.11 227.25,278.95 226.70,278.80 C 226.15,278.64 225.64,278.48 225.17,278.33 C 224.70,278.17 224.27,278.02 223.88,277.87 C 223.49,277.71 223.14,277.56 222.84,277.41 C 222.53,277.26 222.26,277.12 222.03,276.97 C 221.80,276.82 221.65,276.68 221.47,276.53 C 221.29,276.38 221.12,276.23 220.97,276.08 C 220.81,275.92 220.67,275.77 220.53,275.61 C 220.40,275.45 220.27,275.29 220.16,275.12 C 220.04,274.96 219.94,274.79 219.84,274.62 C 219.75,274.46 219.67,274.28 219.59,274.11 C 219.52,273.93 219.46,273.76 219.41,273.58 C 219.35,273.40 219.31,273.22 219.28,273.03 C 219.25,272.85 219.26,272.64 219.22,272.47 C 219.18,272.30 219.12,272.14 219.04,271.99 C 218.96,271.85 218.86,271.72 218.74,271.60 C 218.62,271.49 218.49,271.38 218.33,271.30 C 218.17,271.21 217.99,271.14 217.80,271.08 C 217.60,271.02 217.38,270.98 217.15,270.95 C 216.91,270.92 216.66,270.90 216.38,270.90 C 216.11,270.90 215.81,270.91 215.50,270.94 C 215.19,270.96 214.82,271.01 214.50,271.06 C 214.18,271.11 213.89,271.18 213.61,271.25 C 213.33,271.32 213.07,271.41 212.83,271.50 C 212.59,271.59 212.36,271.70 212.16,271.81 C 211.95,271.93 211.76,272.05 211.59,272.19 C 211.42,272.32 211.27,272.47 211.14,272.62 C 211.01,272.78 210.89,272.95 210.80,273.12 C 210.70,273.30 210.62,273.49 210.56,273.69 C 210.50,273.89 210.51,274.12 210.44,274.31 C 210.36,274.51 210.25,274.68 210.11,274.84 C 209.97,275.01 209.79,275.15 209.58,275.28 C 209.37,275.41 209.12,275.53 208.84,275.62 C 208.57,275.72 208.25,275.81 207.91,275.88 C 207.56,275.94 207.18,275.99 206.77,276.03 C 206.35,276.07 205.90,276.09 205.42,276.09 C 204.94,276.10 204.42,276.09 203.88,276.06 C 203.33,276.04 202.67,275.98 202.12,275.94 C 201.58,275.89 201.07,275.85 200.59,275.80 C 200.12,275.75 199.68,275.70 199.28,275.64 C 198.88,275.59 198.52,275.53 198.19,275.47 C 197.86,275.41 197.57,275.35 197.31,275.28 C 197.06,275.22 196.84,275.15 196.66,275.08 C 196.47,275.01 196.33,274.93 196.22,274.86 C 196.11,274.78 196.04,274.71 196.00,274.62 C 195.96,274.54 195.98,274.45 196.00,274.38 C 196.02,274.30 196.05,274.22 196.09,274.16 C 196.14,274.09 196.20,274.03 196.28,273.97 C 196.36,273.91 196.45,273.86 196.56,273.81 C 196.67,273.77 196.80,273.72 196.94,273.69 C 197.08,273.65 197.23,273.62 197.41,273.59 C 197.58,273.57 197.77,273.55 197.97,273.53 C 198.17,273.52 198.39,273.51 198.62,273.50 C 198.86,273.49 199.14,273.51 199.38,273.50 C 199.61,273.49 199.82,273.48 200.02,273.47 C 200.21,273.45 200.39,273.43 200.55,273.41 C 200.71,273.38 200.85,273.35 200.97,273.31 C 201.09,273.28 201.20,273.23 201.28,273.19 C 201.37,273.14 201.43,273.09 201.48,273.03 C 201.53,272.97 201.57,272.91 201.58,272.84 C 201.59,272.78 201.59,272.70 201.56,272.62 C 201.54,272.55 201.52,272.46 201.44,272.38 C 201.36,272.29 201.24,272.19 201.09,272.09 C 200.94,271.99 200.76,271.89 200.53,271.78 C 200.31,271.67 200.05,271.56 199.75,271.44 C 199.45,271.32 199.12,271.19 198.75,271.06 C 198.38,270.93 197.97,270.80 197.53,270.66 C 197.09,270.52 196.61,270.37 196.09,270.22 C 195.58,270.07 195.03,269.91 194.44,269.75 C 193.85,269.59 193.19,269.41 192.56,269.25 C 191.93,269.09 191.30,268.94 190.66,268.80 C 190.02,268.65 189.37,268.52 188.72,268.39 C 188.07,268.26 187.41,268.14 186.75,268.03 C 186.09,267.92 185.42,267.82 184.75,267.72 C 184.08,267.62 183.40,267.53 182.72,267.45 C 182.04,267.37 181.35,267.30 180.66,267.23 C 179.96,267.17 179.27,267.11 178.56,267.06 C 177.86,267.01 177.14,267.00 176.44,266.94 C 175.74,266.88 175.04,266.80 174.35,266.71 C 173.66,266.62 172.98,266.51 172.30,266.38 C 171.63,266.26 170.96,266.11 170.30,265.95 C 169.63,265.79 168.98,265.62 168.33,265.42 C 167.68,265.23 167.04,265.02 166.40,264.79 C 165.76,264.56 165.13,264.32 164.51,264.05 C 163.88,263.79 163.27,263.51 162.66,263.22 C 162.05,262.92 161.41,262.58 160.84,262.28 C 160.27,261.98 159.74,261.69 159.24,261.41 C 158.74,261.14 158.28,260.87 157.85,260.62 C 157.42,260.36 157.03,260.12 156.67,259.89 C 156.31,259.66 155.99,259.44 155.70,259.23 C 155.42,259.03 155.16,258.83 154.95,258.65 C 154.73,258.46 154.55,258.29 154.40,258.13 C 154.25,257.97 154.14,257.82 154.06,257.69 C 153.99,257.55 153.97,257.44 153.94,257.31 C 153.90,257.18 153.88,257.04 153.87,256.90 C 153.85,256.75 153.85,256.60 153.85,256.45 C 153.86,256.29 153.87,256.12 153.89,255.95 C 153.91,255.78 153.94,255.61 153.98,255.42 C 154.02,255.24 154.07,255.05 154.13,254.85 C 154.19,254.65 154.26,254.45 154.34,254.24 C 154.41,254.03 154.50,253.82 154.59,253.59 C 154.69,253.37 154.76,253.14 154.91,252.91 C 155.05,252.67 155.23,252.44 155.45,252.20 C 155.66,251.95 155.92,251.71 156.21,251.46 C 156.50,251.21 156.83,250.96 157.20,250.70 C 157.57,250.45 157.98,250.19 158.42,249.92 C 158.87,249.66 159.35,249.39 159.87,249.12 C 160.39,248.85 160.94,248.57 161.54,248.29 C 162.13,248.01 162.77,247.73 163.44,247.44 C 164.11,247.15 164.86,246.84 165.56,246.56 C 166.26,246.29 166.95,246.03 167.62,245.80 C 168.30,245.56 168.97,245.34 169.62,245.14 C 170.28,244.94 170.93,244.76 171.56,244.59 C 172.20,244.43 172.82,244.28 173.44,244.16 C 174.05,244.03 174.66,243.92 175.25,243.83 C 175.84,243.74 176.43,243.66 177.00,243.61 C 177.57,243.55 178.14,243.52 178.69,243.50 C 179.24,243.48 179.77,243.51 180.31,243.50 C 180.86,243.49 181.41,243.47 181.97,243.44 C 182.53,243.41 183.09,243.36 183.66,243.31 C 184.22,243.26 184.80,243.20 185.38,243.12 C 185.95,243.05 186.54,242.97 187.12,242.88 C 187.71,242.78 188.31,242.68 188.91,242.56 C 189.51,242.45 190.11,242.32 190.72,242.19 C 191.33,242.05 191.94,241.91 192.56,241.75 C 193.18,241.59 193.85,241.41 194.44,241.25 C 195.03,241.09 195.58,240.93 196.09,240.78 C 196.61,240.63 197.09,240.48 197.53,240.34 C 197.97,240.20 198.38,240.07 198.75,239.94 C 199.12,239.81 199.45,239.68 199.75,239.56 C 200.05,239.44 200.31,239.33 200.53,239.22 C 200.76,239.11 200.94,239.01 201.09,238.91 C 201.24,238.81 201.36,238.71 201.44,238.62 C 201.52,238.54 201.54,238.45 201.56,238.38 C 201.59,238.30 201.59,238.22 201.58,238.16 C 201.57,238.09 201.53,238.03 201.48,237.97 C 201.43,237.91 201.37,237.86 201.28,237.81 C 201.20,237.77 201.09,237.72 200.97,237.69 C 200.85,237.65 200.71,237.62 200.55,237.59 C 200.39,237.57 200.21,237.55 200.02,237.53 C 199.82,237.52 199.61,237.51 199.38,237.50 C 199.14,237.49 198.86,237.51 198.62,237.50 C 198.39,237.49 198.17,237.48 197.97,237.47 C 197.77,237.45 197.58,237.43 197.41,237.41 C 197.23,237.38 197.08,237.35 196.94,237.31 C 196.80,237.28 196.67,237.23 196.56,237.19 C 196.45,237.14 196.36,237.09 196.28,237.03 C 196.20,236.97 196.14,236.91 196.09,236.84 C 196.05,236.78 196.02,236.70 196.00,236.62 C 195.98,236.55 195.96,236.46 196.00,236.38 C 196.04,236.29 196.11,236.22 196.22,236.14 C 196.33,236.07 196.47,235.99 196.66,235.92 C 196.84,235.85 197.06,235.78 197.31,235.72 C 197.57,235.65 197.86,235.59 198.19,235.53 C 198.52,235.47 198.88,235.41 199.28,235.36 C 199.68,235.30 200.12,235.25 200.59,235.20 C 201.07,235.15 201.58,235.11 202.12,235.06 C 202.67,235.02 203.33,234.96 203.88,234.94 C 204.42,234.91 204.94,234.90 205.42,234.91 C 205.90,234.91 206.35,234.93 206.77,234.97 C 207.18,235.01 207.56,235.06 207.91,235.12 C 208.25,235.19 208.57,235.28 208.84,235.38 C 209.12,235.47 209.37,235.59 209.58,235.72 C 209.79,235.85 209.97,235.99 210.11,236.16 C 210.25,236.32 210.36,236.49 210.44,236.69 C 210.51,236.88 210.50,237.11 210.56,237.31 C 210.62,237.51 210.70,237.70 210.80,237.88 C 210.89,238.05 211.01,238.22 211.14,238.38 C 211.27,238.53 211.42,238.68 211.59,238.81 C 211.76,238.95 211.95,239.07 212.16,239.19 C 212.36,239.30 212.59,239.41 212.83,239.50 C 213.07,239.59 213.33,239.68 213.61,239.75 C 213.89,239.82 214.18,239.89 214.50,239.94 C 214.82,239.99 215.19,240.04 215.50,240.06 C 215.81,240.09 216.11,240.10 216.38,240.10 C 216.66,240.10 216.91,240.08 217.15,240.05 C 217.38,240.02 217.60,239.98 217.80,239.92 C 217.99,239.86 218.17,239.79 218.33,239.70 C 218.49,239.62 218.62,239.51 218.74,239.40 C 218.86,239.28 218.96,239.15 219.04,239.01 C 219.12,238.86 219.18,238.70 219.22,238.53 C 219.26,238.36 219.25,238.15 219.28,237.97 C 219.31,237.78 219.35,237.60 219.41,237.42 C 219.46,237.24 219.52,237.07 219.59,236.89 C 219.67,236.72 219.75,236.54 219.84,236.38 C 219.94,236.21 220.04,236.04 220.16,235.88 C 220.27,235.71 220.40,235.55 220.53,235.39 C 220.67,235.23 220.81,235.08 220.97,234.92 C 221.12,234.77 221.29,234.62 221.47,234.47 C 221.65,234.32 221.81,234.18 222.03,234.03 C 222.26,233.89 222.52,233.74 222.82,233.60 C 223.12,233.46 223.46,233.32 223.84,233.18 C 224.21,233.04 224.63,232.90 225.08,232.77 C 225.53,232.63 226.02,232.49 226.55,232.36 C 227.07,232.23 227.64,232.09 228.24,231.96 C 228.85,231.83 229.49,231.70 230.16,231.57 C 230.84,231.44 231.56,231.31 232.31,231.19 C 233.07,231.06 233.94,230.94 234.69,230.81 C 235.44,230.69 236.14,230.57 236.80,230.45 C 237.47,230.32 238.09,230.20 238.66,230.09 C 239.24,229.97 239.77,229.85 240.27,229.73 C 240.76,229.62 241.20,229.50 241.61,229.39 C 242.01,229.28 242.38,229.17 242.70,229.05 C 243.01,228.94 243.29,228.83 243.52,228.73 C 243.76,228.62 243.95,228.51 244.09,228.41 C 244.24,228.30 244.31,228.20 244.41,228.09 C 244.50,227.99 244.58,227.88 244.65,227.77 C 244.72,227.67 244.77,227.56 244.82,227.45 C 244.87,227.33 244.90,227.22 244.92,227.11 C 244.94,227.00 244.95,226.88 244.95,226.77 C 244.95,226.65 244.94,226.53 244.91,226.41 C 244.89,226.30 244.85,226.18 244.80,226.05 C 244.76,225.93 244.70,225.81 244.62,225.69 C 244.55,225.56 244.45,225.45 244.38,225.31 C 244.30,225.18 244.22,225.03 244.16,224.88 C 244.09,224.72 244.03,224.55 243.97,224.38 C 243.91,224.20 243.86,224.01 243.81,223.81 C 243.77,223.61 243.72,223.41 243.69,223.19 C 243.65,222.97 243.62,222.74 243.59,222.50 C 243.57,222.26 243.55,222.01 243.53,221.75 C 243.52,221.49 243.51,221.22 243.50,220.94 C 243.49,220.66 243.49,220.35 243.50,220.06 C 243.51,219.78 243.53,219.51 243.55,219.24 C 243.58,218.98 243.62,218.72 243.66,218.48 C 243.71,218.23 243.76,217.99 243.83,217.77 C 243.89,217.54 243.96,217.32 244.05,217.11 C 244.13,216.90 244.22,216.70 244.32,216.51 C 244.42,216.32 244.53,216.13 244.65,215.96 C 244.77,215.79 244.89,215.62 245.03,215.47 C 245.17,215.31 245.26,215.18 245.47,215.03 C 245.68,214.88 245.95,214.74 246.29,214.59 C 246.63,214.44 247.03,214.29 247.49,214.13 C 247.96,213.98 248.49,213.83 249.08,213.67 C 249.67,213.52 250.33,213.36 251.05,213.20 C 251.77,213.05 252.55,212.89 253.40,212.73 C 254.25,212.57 255.16,212.40 256.13,212.24 C 257.11,212.08 258.15,211.92 259.25,211.75 C 260.35,211.58 261.65,211.41 262.75,211.25 C 263.85,211.09 264.90,210.94 265.88,210.80 C 266.85,210.65 267.77,210.52 268.62,210.39 C 269.48,210.26 270.27,210.14 271.00,210.03 C 271.73,209.92 272.40,209.82 273.00,209.72 C 273.60,209.62 274.15,209.53 274.62,209.45 C 275.10,209.37 275.52,209.30 275.88,209.23 C 276.23,209.17 276.52,209.11 276.75,209.06 C 276.98,209.01 277.10,208.98 277.25,208.94 C 277.40,208.89 277.55,208.85 277.68,208.80 C 277.81,208.76 277.93,208.71 278.04,208.66 C 278.15,208.62 278.24,208.57 278.33,208.52 C 278.41,208.46 278.49,208.41 278.55,208.36 C 278.61,208.31 278.66,208.25 278.70,208.20 C 278.73,208.14 278.76,208.08 278.77,208.02 C 278.79,207.96 278.79,207.90 278.78,207.84 C 278.77,207.78 278.75,207.72 278.72,207.66 C 278.68,207.59 278.63,207.52 278.57,207.45 C 278.51,207.37 278.43,207.29 278.34,207.21 C 278.24,207.13 278.14,207.04 278.02,206.95 C 277.89,206.86 277.76,206.77 277.61,206.67 C 277.46,206.57 277.30,206.47 277.12,206.37 C 276.94,206.26 276.75,206.15 276.54,206.04 C 276.33,205.93 276.11,205.81 275.88,205.69 C 275.64,205.57 275.33,205.46 275.12,205.31 C 274.92,205.16 274.77,204.98 274.66,204.77 C 274.56,204.57 274.50,204.33 274.49,204.07 C 274.48,203.81 274.52,203.52 274.61,203.20 C 274.70,202.89 274.83,202.54 275.02,202.17 C 275.20,201.80 275.43,201.40 275.71,200.98 C 275.99,200.55 276.32,200.10 276.70,199.62 C 277.07,199.14 277.50,198.63 277.97,198.09 C 278.44,197.56 278.92,196.93 279.53,196.41 C 280.15,195.88 280.86,195.39 281.66,194.93 C 282.47,194.47 283.37,194.05 284.37,193.66 C 285.36,193.28 286.45,192.93 287.64,192.61 C 288.83,192.29 290.11,192.01 291.48,191.77 C 292.86,191.52 294.33,191.31 295.90,191.13 C 297.46,190.96 299.13,190.82 300.88,190.71 C 302.64,190.61 304.49,190.54 306.44,190.50 C 308.38,190.46 310.62,190.47 312.56,190.50 C 314.51,190.53 316.35,190.58 318.10,190.66 C 319.85,190.75 321.50,190.86 323.05,190.99 C 324.61,191.13 326.06,191.29 327.42,191.48 C 328.78,191.68 330.04,191.89 331.20,192.14 C 332.37,192.39 333.43,192.66 334.40,192.96 C 335.37,193.26 336.24,193.59 337.01,193.95 C 337.78,194.30 338.45,194.68 339.03,195.09 C 339.61,195.50 340.04,195.99 340.47,196.41 C 340.90,196.82 341.28,197.22 341.61,197.59 C 341.94,197.97 342.22,198.32 342.45,198.66 C 342.68,198.99 342.87,199.30 343.00,199.59 C 343.13,199.89 343.22,200.16 343.25,200.41 C 343.28,200.66 343.27,200.89 343.20,201.09 C 343.14,201.30 343.02,201.49 342.86,201.66 C 342.70,201.82 342.48,201.97 342.22,202.09 C 341.96,202.22 341.59,202.31 341.28,202.41 C 340.97,202.50 340.66,202.60 340.35,202.68 C 340.04,202.76 339.74,202.84 339.43,202.91 C 339.12,202.99 338.82,203.05 338.52,203.11 C 338.21,203.17 337.91,203.22 337.61,203.27 C 337.31,203.31 337.01,203.35 336.71,203.38 C 336.41,203.42 336.12,203.44 335.82,203.46 C 335.52,203.48 335.23,203.49 334.94,203.50 C 334.64,203.51 334.34,203.51 334.06,203.50 C 333.78,203.49 333.51,203.48 333.25,203.47 C 332.99,203.45 332.74,203.43 332.50,203.41 C 332.26,203.38 332.03,203.35 331.81,203.31 C 331.59,203.28 331.39,203.23 331.19,203.19 C 330.99,203.14 330.80,203.09 330.62,203.03 C 330.45,202.97 330.28,202.91 330.12,202.84 C 329.97,202.78 329.82,202.70 329.69,202.62 C 329.55,202.55 329.49,202.45 329.31,202.38 C 329.14,202.30 328.91,202.22 328.62,202.16 C 328.34,202.09 328.01,202.03 327.62,201.97 C 327.24,201.91 326.80,201.86 326.31,201.81 C 325.82,201.77 325.28,201.72 324.69,201.69 C 324.09,201.65 323.45,201.62 322.75,201.59 C 322.05,201.57 321.30,201.55 320.50,201.53 C 319.70,201.52 318.84,201.51 317.94,201.50 C 317.03,201.49 315.98,201.48 315.06,201.50 C 314.15,201.52 313.27,201.55 312.45,201.60 C 311.62,201.65 310.83,201.72 310.09,201.80 C 309.34,201.89 308.64,201.99 307.98,202.11 C 307.33,202.23 306.71,202.36 306.14,202.52 C 305.57,202.67 305.04,202.84 304.55,203.02 C 304.07,203.21 303.63,203.41 303.23,203.63 C 302.83,203.85 302.47,204.09 302.16,204.34 C 301.84,204.60 301.59,204.90 301.34,205.16 C 301.10,205.41 300.88,205.66 300.69,205.89 C 300.49,206.12 300.33,206.34 300.19,206.55 C 300.05,206.75 299.93,206.95 299.84,207.12 C 299.76,207.30 299.69,207.47 299.66,207.62 C 299.62,207.78 299.61,207.92 299.62,208.05 C 299.64,208.17 299.68,208.29 299.75,208.39 C 299.82,208.49 299.91,208.58 300.03,208.66 C 300.15,208.73 300.29,208.79 300.47,208.84 C 300.65,208.90 300.86,208.95 301.10,208.99 C 301.35,209.04 301.62,209.07 301.93,209.10 C 302.24,209.13 302.58,209.15 302.95,209.17 C 303.33,209.19 303.73,209.20 304.17,209.20 C 304.61,209.21 305.08,209.20 305.59,209.20 C 306.09,209.19 306.63,209.17 307.20,209.15 C 307.76,209.13 308.37,209.10 309.00,209.06 C 309.63,209.03 310.33,208.96 311.00,208.94 C 311.67,208.91 312.33,208.90 313.00,208.91 C 313.67,208.91 314.33,208.93 315.00,208.97 C 315.67,209.01 316.33,209.06 317.00,209.12 C 317.67,209.19 318.33,209.28 319.00,209.38 C 319.67,209.47 320.33,209.59 321.00,209.72 C 321.67,209.85 322.33,209.99 323.00,210.16 C 323.67,210.32 324.33,210.49 325.00,210.69 C 325.67,210.88 326.37,211.08 327.00,211.31 C 327.63,211.55 328.21,211.81 328.76,212.10 C 329.30,212.39 329.81,212.71 330.27,213.05 C 330.74,213.40 331.16,213.77 331.55,214.17 C 331.93,214.57 332.27,215.00 332.58,215.45 C 332.88,215.91 333.14,216.39 333.37,216.90 C 333.59,217.41 333.77,217.94 333.91,218.51 C 334.06,219.07 334.16,219.66 334.22,220.28 C 334.28,220.90 334.27,221.61 334.28,222.22 C 334.29,222.83 334.30,223.40 334.29,223.93 C 334.28,224.46 334.27,224.96 334.24,225.41 C 334.22,225.87 334.18,226.29 334.14,226.67 C 334.10,227.05 334.05,227.40 333.98,227.70 C 333.92,228.01 333.85,228.28 333.77,228.51 C 333.69,228.74 333.61,228.93 333.51,229.09 C 333.41,229.24 333.30,229.36 333.19,229.44 C 333.07,229.52 332.90,229.52 332.81,229.56 C 332.73,229.61 332.68,229.66 332.66,229.71 C 332.65,229.76 332.68,229.82 332.74,229.88 C 332.81,229.94 332.91,230.01 333.05,230.08 C 333.19,230.15 333.36,230.22 333.58,230.30 C 333.79,230.37 334.05,230.45 334.34,230.54 C 334.63,230.62 334.95,230.71 335.32,230.80 C 335.69,230.90 336.09,230.99 336.53,231.09 C 336.97,231.19 337.51,231.31 337.97,231.41 C 338.43,231.50 338.87,231.60 339.29,231.68 C 339.71,231.76 340.11,231.84 340.49,231.91 C 340.87,231.99 341.24,232.05 341.58,232.11 C 341.92,232.17 342.24,232.22 342.55,232.27 C 342.85,232.31 343.13,232.35 343.40,232.38 C 343.66,232.42 343.91,232.44 344.13,232.46 C 344.36,232.48 344.56,232.49 344.75,232.50 C 344.94,232.51 345.09,232.51 345.25,232.50 C 345.41,232.49 345.55,232.48 345.69,232.47 C 345.82,232.45 345.95,232.43 346.06,232.41 C 346.18,232.38 346.28,232.35 346.38,232.31 C 346.47,232.28 346.55,232.23 346.62,232.19 C 346.70,232.14 346.76,232.09 346.81,232.03 C 346.86,231.97 346.91,231.91 346.94,231.84 C 346.97,231.78 346.99,231.70 347.00,231.62 C 347.01,231.55 346.98,231.45 347.00,231.38 C 347.02,231.30 347.05,231.23 347.11,231.17 C 347.16,231.11 347.24,231.06 347.33,231.02 C 347.42,230.97 347.53,230.93 347.66,230.91 C 347.78,230.88 347.93,230.86 348.09,230.84 C 348.26,230.83 348.44,230.83 348.64,230.83 C 348.84,230.83 349.06,230.84 349.30,230.86 C 349.53,230.88 349.79,230.90 350.06,230.94 C 350.34,230.97 350.64,231.00 350.94,231.06 C 351.23,231.12 351.52,231.20 351.82,231.29 C 352.12,231.38 352.41,231.49 352.71,231.62 C 353.01,231.74 353.31,231.89 353.61,232.05 C 353.91,232.21 354.21,232.38 354.52,232.58 C 354.82,232.77 355.12,232.98 355.43,233.21 C 355.74,233.44 356.04,233.68 356.35,233.95 C 356.66,234.21 356.97,234.49 357.28,234.78 C 357.59,235.08 357.91,235.40 358.22,235.72 C 358.52,236.04 358.82,236.36 359.12,236.70 C 359.41,237.03 359.70,237.37 359.98,237.71 C 360.26,238.06 360.53,238.41 360.80,238.77 C 361.06,239.12 361.32,239.49 361.58,239.86 C 361.83,240.23 362.08,240.61 362.32,240.99 C 362.56,241.38 362.80,241.77 363.02,242.16 C 363.25,242.56 363.47,242.96 363.69,243.38 C 363.90,243.79 364.12,244.20 364.31,244.62 C 364.51,245.05 364.69,245.48 364.86,245.92 C 365.03,246.36 365.18,246.81 365.33,247.27 C 365.47,247.72 365.60,248.18 365.72,248.66 C 365.84,249.13 365.94,249.61 366.03,250.09 C 366.12,250.58 366.20,251.08 366.27,251.58 C 366.33,252.08 366.38,252.59 366.42,253.11 C 366.46,253.63 366.49,254.15 366.50,254.69 C 366.51,255.22 366.51,255.78 366.50,256.31 C 366.49,256.85 366.46,257.37 366.42,257.89 C 366.38,258.41 366.33,258.92 366.27,259.42 C 366.20,259.92 366.12,260.42 366.03,260.91 C 365.94,261.39 365.84,261.87 365.72,262.34 C 365.60,262.82 365.47,263.28 365.33,263.73 C 365.18,264.19 365.03,264.64 364.86,265.08 C 364.69,265.52 364.51,265.95 364.31,266.38 C 364.12,266.80 363.90,267.21 363.69,267.62 C 363.47,268.04 363.25,268.44 363.02,268.84 C 362.80,269.23 362.56,269.62 362.32,270.01 C 362.08,270.39 361.83,270.77 361.58,271.14 C 361.32,271.51 361.06,271.88 360.80,272.23 C 360.53,272.59 360.26,272.94 359.98,273.29 C 359.70,273.63 359.41,273.97 359.12,274.30 C 358.82,274.64 358.52,274.96 358.22,275.28 C 357.91,275.60 357.59,275.92 357.28,276.22 C 356.97,276.51 356.66,276.79 356.35,277.05 C 356.04,277.32 355.74,277.56 355.43,277.79 C 355.12,278.02 354.82,278.23 354.52,278.42 C 354.21,278.62 353.91,278.79 353.61,278.95 C 353.31,279.11 353.01,279.26 352.71,279.38 C 352.41,279.51 352.12,279.62 351.82,279.71 C 351.52,279.80 351.23,279.88 350.94,279.94 C 350.64,280.00 350.34,280.03 350.06,280.06 C 349.79,280.09 349.53,280.11 349.30,280.12 C 349.06,280.14 348.84,280.14 348.64,280.12 C 348.44,280.11 348.26,280.09 348.09,280.06 C 347.93,280.03 347.78,279.99 347.66,279.94 C 347.53,279.89 347.42,279.82 347.33,279.75 C 347.24,279.68 347.16,279.59 347.11,279.50 C 347.05,279.41 347.02,279.30 347.00,279.19 C 346.98,279.07 347.04,278.92 347.00,278.81 C 346.96,278.70 346.88,278.61 346.76,278.54 C 346.64,278.46 346.48,278.41 346.27,278.37 C 346.07,278.33 345.83,278.30 345.55,278.30 C 345.26,278.29 344.94,278.30 344.58,278.33 C 344.21,278.36 343.81,278.40 343.37,278.46 C 342.92,278.52 342.44,278.60 341.91,278.70 C 341.39,278.79 340.82,278.90 340.22,279.03 C 339.61,279.16 338.88,279.33 338.28,279.47 C 337.68,279.61 337.13,279.74 336.63,279.87 C 336.13,279.99 335.68,280.11 335.27,280.23 C 334.87,280.34 334.51,280.45 334.20,280.55 C 333.89,280.65 333.63,280.74 333.42,280.83 C 333.21,280.92 333.05,281.00 332.93,281.07 C 332.81,281.14 332.75,281.21 332.73,281.27 C 332.71,281.33 332.74,281.39 332.81,281.44 C 332.89,281.49 333.07,281.48 333.19,281.56 C 333.30,281.64 333.41,281.76 333.51,281.91 C 333.61,282.07 333.69,282.26 333.77,282.49 C 333.85,282.72 333.92,282.99 333.98,283.30 C 334.05,283.60 334.10,283.95 334.14,284.33 C 334.18,284.71 334.22,285.13 334.24,285.59 C 334.27,286.04 334.28,286.54 334.29,287.07 C 334.30,287.60 334.29,288.17 334.28,288.78 C 334.27,289.39 334.28,290.10 334.22,290.72 C 334.16,291.34 334.06,291.93 333.91,292.49 C 333.77,293.06 333.59,293.59 333.37,294.10 C 333.14,294.61 332.88,295.09 332.58,295.55 C 332.27,296.00 331.93,296.43 331.55,296.83 C 331.16,297.23 330.74,297.60 330.27,297.95 C 329.81,298.29 329.30,298.61 328.76,298.90 C 328.21,299.19 327.63,299.45 327.00,299.69 C 326.37,299.92 325.67,300.12 325.00,300.31 C 324.33,300.51 323.67,300.68 323.00,300.84 C 322.33,301.01 321.67,301.15 321.00,301.28 C 320.33,301.41 319.67,301.53 319.00,301.62 C 318.33,301.72 317.67,301.81 317.00,301.88 C 316.33,301.94 315.67,301.99 315.00,302.03 C 314.33,302.07 313.67,302.09 313.00,302.09 C 312.33,302.10 311.67,302.09 311.00,302.06 C 310.33,302.04 309.63,301.97 309.00,301.94 C 308.37,301.90 307.76,301.87 307.20,301.85 C 306.63,301.83 306.09,301.81 305.59,301.80 C 305.08,301.80 304.61,301.79 304.17,301.80 C 303.73,301.80 303.33,301.81 302.95,301.83 C 302.58,301.85 302.24,301.87 301.93,301.90 C 301.62,301.93 301.35,301.96 301.10,302.01 C 300.86,302.05 300.65,302.10 300.47,302.16 C 300.29,302.21 300.15,302.27 300.03,302.34 C 299.91,302.42 299.82,302.51 299.75,302.61 C 299.68,302.71 299.64,302.83 299.62,302.95 C 299.61,303.08 299.62,303.22 299.66,303.38 C 299.69,303.53 299.76,303.70 299.84,303.88 C 299.93,304.05 300.05,304.25 300.19,304.45 C 300.33,304.66 300.49,304.88 300.69,305.11 C 300.88,305.34 301.10,305.59 301.34,305.84 C 301.59,306.10 301.84,306.40 302.16,306.66 C 302.47,306.91 302.83,307.15 303.23,307.37 C 303.63,307.59 304.07,307.79 304.55,307.98 C 305.04,308.16 305.57,308.33 306.14,308.48 C 306.71,308.64 307.33,308.77 307.98,308.89 C 308.64,309.01 309.34,309.11 310.09,309.20 C 310.83,309.28 311.62,309.35 312.45,309.40 C 313.27,309.45 314.15,309.48 315.06,309.50 C 315.98,309.52 317.03,309.51 317.94,309.50 C 318.84,309.49 319.70,309.48 320.50,309.47 C 321.30,309.45 322.05,309.43 322.75,309.41 C 323.45,309.38 324.09,309.35 324.69,309.31 C 325.28,309.28 325.82,309.23 326.31,309.19 C 326.80,309.14 327.24,309.09 327.62,309.03 C 328.01,308.97 328.34,308.91 328.62,308.84 C 328.91,308.78 329.14,308.70 329.31,308.62 C 329.49,308.55 329.54,308.45 329.69,308.38 C 329.84,308.30 330.02,308.23 330.22,308.17 C 330.42,308.11 330.65,308.06 330.91,308.02 C 331.16,307.97 331.44,307.93 331.75,307.91 C 332.06,307.88 332.39,307.86 332.75,307.84 C 333.11,307.83 333.49,307.83 333.91,307.83 C 334.32,307.83 334.76,307.84 335.22,307.86 C 335.68,307.88 336.17,307.90 336.69,307.94 C 337.20,307.97 337.80,308.02 338.31,308.06 C 338.82,308.11 339.31,308.15 339.76,308.20 C 340.21,308.24 340.63,308.29 341.02,308.34 C 341.42,308.38 341.78,308.43 342.11,308.48 C 342.44,308.54 342.74,308.59 343.02,308.64 C 343.29,308.69 343.53,308.75 343.74,308.80 C 343.95,308.86 344.14,308.92 344.29,308.98 C 344.44,309.04 344.56,309.10 344.66,309.16 C 344.75,309.22 344.79,309.28 344.84,309.34 C 344.90,309.41 344.95,309.47 344.99,309.54 C 345.04,309.61 345.07,309.67 345.10,309.74 C 345.13,309.81 345.15,309.88 345.17,309.95 C 345.19,310.02 345.20,310.10 345.20,310.17 C 345.21,310.25 345.20,310.32 345.20,310.40 C 345.19,310.48 345.17,310.55 345.15,310.63 C 345.13,310.71 345.10,310.79 345.06,310.88 C 345.03,310.96 345.00,311.02 344.94,311.12 C 344.87,311.23 344.78,311.34 344.66,311.48 C 344.55,311.61 344.41,311.76 344.24,311.93 C 344.08,312.10 343.89,312.28 343.67,312.48 C 343.46,312.69 343.22,312.90 342.95,313.14 C 342.69,313.38 342.40,313.63 342.09,313.90 C 341.77,314.17 341.43,314.45 341.07,314.76 C 340.71,315.06 340.32,315.38 339.91,315.72 C 339.49,316.06 339.13,316.45 338.59,316.78 C 338.06,317.11 337.42,317.42 336.68,317.71 C 335.94,318.00 335.10,318.26 334.16,318.51 C 333.23,318.75 332.19,318.97 331.05,319.17 C 329.91,319.37 328.67,319.55 327.33,319.70 C 325.99,319.86 324.55,319.99 323.01,320.10 C 321.47,320.21 319.83,320.30 318.09,320.37 C 316.35,320.43 314.50,320.48 312.56,320.50 Z" fill="none" stroke="currentColor" stroke-width="1.5" stroke-linejoin="round" stroke-linecap="round" filter="url(#glow)" />
</svg>