<svg xmlns="http://www.w3.org/2000/svg" width="512" height="512" viewBox="164.28 214.33 228.19 84.08" preserveAspectRatio="xMidYMid meet">
  <defs>
    <filter id="glow" x="-30%" y="-30%" width="160%" height="160%">
      <feGaussianBlur in="SourceGraphic" stdDeviation="2.4" result="blur" />
      <feMerge>
        <feMergeNode in="blur" />
        <feMergeNode in="SourceGraphic" />
      </feMerge>
    </filter>
    <clipPath id="hull-clip">
      <path d="M 313.25,295.50 C 313.09,295.51 312.91,295.51 312.75,295.50 C 312.59,295.49 312.44,295.47 312.30,295.44 C 312.15,295.41 312.02,295.36 311.89,295.31 C 311.76,295.26 311.64,295.20 311.53,295.12 C 311.42,295.05 311.32,294.97 311.22,294.88 C 311.12,294.78 311.03,294.68 310.95,294.56 C 310.87,294.45 310.80,294.32 310.73,294.19 C 310.67,294.05 310.61,293.91 310.56,293.75 C 310.51,293.59 310.49,293.40 310.44,293.25 C 310.39,293.10 310.33,292.98 310.27,292.88 C 310.20,292.77 310.13,292.69 310.05,292.62 C 309.97,292.56 309.88,292.52 309.78,292.50 C 309.68,292.48 309.58,292.48 309.47,292.50 C 309.36,292.52 309.24,292.56 309.11,292.62 C 308.98,292.69 308.85,292.77 308.70,292.88 C 308.56,292.98 308.41,293.10 308.25,293.25 C 308.09,293.40 307.96,293.59 307.75,293.75 C 307.54,293.91 307.29,294.05 307.00,294.19 C 306.71,294.32 306.38,294.45 306.00,294.56 C 305.62,294.68 305.21,294.78 304.75,294.88 C 304.29,294.97 303.79,295.05 303.25,295.12 C 302.71,295.20 302.12,295.26 301.50,295.31 C 300.88,295.36 300.21,295.41 299.50,295.44 C 298.79,295.47 298.04,295.49 297.25,295.50 C 296.46,295.51 295.55,295.52 294.75,295.50 C 293.95,295.48 293.18,295.45 292.44,295.41 C 291.70,295.36 290.99,295.30 290.31,295.22 C 289.64,295.14 288.99,295.05 288.38,294.94 C 287.76,294.83 287.18,294.70 286.62,294.56 C 286.07,294.42 285.55,294.27 285.06,294.09 C 284.57,293.92 284.11,293.73 283.69,293.53 C 283.26,293.33 282.86,293.11 282.50,292.88 C 282.14,292.64 281.87,292.36 281.50,292.12 C 281.13,291.89 280.73,291.67 280.30,291.47 C 279.86,291.27 279.39,291.08 278.89,290.91 C 278.39,290.73 277.85,290.58 277.28,290.44 C 276.71,290.30 276.11,290.17 275.47,290.06 C 274.83,289.95 274.16,289.86 273.45,289.78 C 272.75,289.70 272.01,289.64 271.23,289.59 C 270.46,289.55 269.65,289.52 268.81,289.50 C 267.97,289.48 267.08,289.51 266.19,289.50 C 265.30,289.49 264.40,289.48 263.48,289.45 C 262.57,289.43 261.64,289.40 260.70,289.36 C 259.76,289.32 258.81,289.27 257.84,289.22 C 256.88,289.16 255.90,289.10 254.91,289.03 C 253.91,288.96 252.91,288.88 251.89,288.80 C 250.87,288.71 249.84,288.62 248.80,288.52 C 247.75,288.41 246.70,288.30 245.62,288.19 C 244.55,288.07 243.40,287.92 242.38,287.81 C 241.35,287.71 240.38,287.62 239.47,287.55 C 238.56,287.48 237.70,287.42 236.91,287.39 C 236.11,287.36 235.37,287.34 234.69,287.34 C 234.01,287.35 233.38,287.37 232.81,287.41 C 232.24,287.45 231.73,287.50 231.28,287.58 C 230.83,287.65 230.43,287.75 230.09,287.86 C 229.76,287.97 229.47,288.10 229.25,288.25 C 229.03,288.40 228.95,288.59 228.75,288.75 C 228.55,288.91 228.32,289.05 228.05,289.19 C 227.78,289.32 227.48,289.45 227.14,289.56 C 226.80,289.68 226.43,289.78 226.03,289.88 C 225.63,289.97 225.19,290.05 224.72,290.12 C 224.25,290.20 223.74,290.26 223.20,290.31 C 222.66,290.36 222.09,290.41 221.48,290.44 C 220.88,290.47 220.24,290.49 219.56,290.50 C 218.89,290.51 218.12,290.52 217.44,290.50 C 216.75,290.48 216.09,290.43 215.45,290.36 C 214.82,290.29 214.20,290.20 213.61,290.08 C 213.02,289.96 212.45,289.82 211.91,289.66 C 211.36,289.49 210.84,289.30 210.34,289.09 C 209.85,288.88 209.37,288.65 208.92,288.39 C 208.47,288.13 208.04,287.85 207.64,287.55 C 207.24,287.24 206.86,286.91 206.50,286.56 C 206.14,286.21 205.84,285.79 205.50,285.44 C 205.16,285.08 204.83,284.74 204.48,284.42 C 204.14,284.10 203.80,283.80 203.45,283.52 C 203.11,283.23 202.76,282.97 202.41,282.72 C 202.05,282.47 201.70,282.24 201.34,282.03 C 200.99,281.82 200.63,281.63 200.27,281.45 C 199.90,281.28 199.54,281.12 199.17,280.98 C 198.80,280.85 198.43,280.73 198.06,280.62 C 197.69,280.52 197.30,280.47 196.94,280.38 C 196.58,280.28 196.23,280.18 195.91,280.08 C 195.58,279.97 195.27,279.86 194.97,279.73 C 194.67,279.61 194.39,279.48 194.12,279.34 C 193.86,279.21 193.61,279.06 193.38,278.91 C 193.14,278.75 192.92,278.59 192.72,278.42 C 192.52,278.25 192.33,278.08 192.16,277.89 C 191.98,277.71 191.83,277.51 191.69,277.31 C 191.55,277.11 191.48,276.90 191.31,276.69 C 191.15,276.48 190.95,276.26 190.70,276.05 C 190.46,275.83 190.18,275.61 189.86,275.39 C 189.54,275.17 189.18,274.95 188.78,274.72 C 188.38,274.49 187.95,274.26 187.47,274.03 C 186.99,273.80 186.48,273.57 185.92,273.33 C 185.37,273.09 184.77,272.85 184.14,272.61 C 183.51,272.37 182.84,272.12 182.12,271.88 C 181.41,271.63 180.60,271.37 179.88,271.12 C 179.15,270.88 178.46,270.63 177.79,270.38 C 177.12,270.14 176.48,269.89 175.87,269.65 C 175.25,269.40 174.67,269.16 174.11,268.92 C 173.55,268.68 173.02,268.44 172.52,268.20 C 172.01,267.96 171.54,267.73 171.09,267.49 C 170.64,267.26 170.21,267.02 169.82,266.79 C 169.43,266.56 169.06,266.32 168.72,266.09 C 168.38,265.86 168.08,265.65 167.78,265.41 C 167.49,265.16 167.21,264.90 166.95,264.62 C 166.68,264.34 166.44,264.04 166.21,263.73 C 165.98,263.41 165.77,263.08 165.58,262.73 C 165.38,262.39 165.21,262.02 165.05,261.64 C 164.89,261.26 164.74,260.86 164.62,260.45 C 164.49,260.03 164.38,259.60 164.29,259.15 C 164.20,258.70 164.12,258.23 164.06,257.75 C 164.00,257.27 163.97,256.73 163.94,256.25 C 163.91,255.77 163.89,255.30 163.88,254.85 C 163.88,254.40 163.88,253.97 163.90,253.55 C 163.92,253.14 163.94,252.74 163.98,252.36 C 164.02,251.98 164.08,251.61 164.14,251.27 C 164.20,250.92 164.28,250.59 164.37,250.27 C 164.45,249.96 164.55,249.66 164.66,249.38 C 164.77,249.10 164.90,248.84 165.03,248.59 C 165.17,248.35 165.27,248.14 165.47,247.91 C 165.67,247.67 165.91,247.42 166.21,247.16 C 166.51,246.91 166.86,246.64 167.26,246.37 C 167.66,246.09 168.11,245.81 168.61,245.52 C 169.11,245.22 169.66,244.92 170.27,244.61 C 170.87,244.30 171.52,243.98 172.23,243.65 C 172.93,243.32 173.69,242.98 174.49,242.63 C 175.30,242.29 176.15,241.93 177.06,241.56 C 177.97,241.20 179.03,240.80 179.94,240.44 C 180.84,240.07 181.70,239.72 182.50,239.38 C 183.30,239.03 184.05,238.70 184.75,238.38 C 185.45,238.05 186.09,237.74 186.69,237.44 C 187.28,237.14 187.82,236.84 188.31,236.56 C 188.80,236.28 189.24,236.01 189.62,235.75 C 190.01,235.49 190.34,235.24 190.62,235.00 C 190.91,234.76 191.14,234.53 191.31,234.31 C 191.49,234.09 191.55,233.89 191.69,233.69 C 191.83,233.49 191.98,233.29 192.16,233.11 C 192.33,232.92 192.52,232.75 192.72,232.58 C 192.92,232.41 193.14,232.25 193.38,232.09 C 193.61,231.94 193.86,231.79 194.12,231.66 C 194.39,231.52 194.67,231.39 194.97,231.27 C 195.27,231.14 195.58,231.03 195.91,230.92 C 196.23,230.82 196.58,230.72 196.94,230.62 C 197.30,230.53 197.69,230.48 198.06,230.38 C 198.43,230.27 198.80,230.15 199.17,230.02 C 199.54,229.88 199.90,229.72 200.27,229.55 C 200.63,229.37 200.99,229.18 201.34,228.97 C 201.70,228.76 202.05,228.53 202.41,228.28 C 202.76,228.03 203.11,227.77 203.45,227.48 C 203.80,227.20 204.14,226.90 204.48,226.58 C 204.83,226.26 205.16,225.92 205.50,225.56 C 205.84,225.21 206.14,224.79 206.50,224.44 C 206.86,224.09 207.24,223.76 207.64,223.45 C 208.04,223.15 208.47,222.87 208.92,222.61 C 209.37,222.35 209.85,222.12 210.34,221.91 C 210.84,221.70 211.36,221.51 211.91,221.34 C 212.45,221.18 213.02,221.04 213.61,220.92 C 214.20,220.80 214.82,220.71 215.45,220.64 C 216.09,220.57 216.75,220.52 217.44,220.50 C 218.12,220.48 218.89,220.49 219.56,220.50 C 220.24,220.51 220.88,220.53 221.48,220.56 C 222.09,220.59 222.66,220.64 223.20,220.69 C 223.74,220.74 224.25,220.80 224.72,220.88 C 225.19,220.95 225.63,221.03 226.03,221.12 C 226.43,221.22 226.80,221.32 227.14,221.44 C 227.48,221.55 227.78,221.68 228.05,221.81 C 228.32,221.95 228.55,222.09 228.75,222.25 C 228.95,222.41 229.05,222.60 229.25,222.75 C 229.45,222.90 229.69,223.04 229.97,223.16 C 230.24,223.28 230.56,223.38 230.91,223.47 C 231.26,223.56 231.64,223.63 232.06,223.69 C 232.48,223.74 232.94,223.79 233.44,223.81 C 233.93,223.84 234.46,223.85 235.03,223.84 C 235.60,223.84 236.20,223.82 236.84,223.78 C 237.48,223.74 238.16,223.69 238.88,223.62 C 239.59,223.56 240.35,223.45 241.12,223.38 C 241.90,223.30 242.70,223.22 243.52,223.16 C 244.34,223.09 245.18,223.03 246.05,222.97 C 246.91,222.91 247.80,222.86 248.72,222.81 C 249.63,222.77 250.57,222.72 251.53,222.69 C 252.49,222.65 253.48,222.62 254.48,222.59 C 255.49,222.57 256.52,222.55 257.58,222.53 C 258.63,222.52 259.71,222.51 260.81,222.50 C 261.91,222.49 263.10,222.52 264.19,222.50 C 265.27,222.48 266.31,222.45 267.31,222.39 C 268.31,222.34 269.27,222.26 270.19,222.17 C 271.10,222.08 271.98,221.97 272.81,221.84 C 273.65,221.72 274.44,221.57 275.19,221.41 C 275.94,221.24 276.65,221.06 277.31,220.86 C 277.98,220.66 278.60,220.44 279.19,220.20 C 279.77,219.97 280.31,219.71 280.81,219.44 C 281.31,219.16 281.71,218.84 282.19,218.56 C 282.67,218.29 283.17,218.03 283.69,217.80 C 284.21,217.56 284.75,217.34 285.31,217.14 C 285.88,216.94 286.46,216.76 287.06,216.59 C 287.67,216.43 288.29,216.28 288.94,216.16 C 289.58,216.03 290.25,215.92 290.94,215.83 C 291.62,215.74 292.33,215.66 293.06,215.61 C 293.79,215.55 294.54,215.52 295.31,215.50 C 296.08,215.48 296.94,215.49 297.69,215.50 C 298.44,215.51 299.15,215.53 299.81,215.56 C 300.48,215.59 301.10,215.64 301.69,215.69 C 302.27,215.74 302.81,215.80 303.31,215.88 C 303.81,215.95 304.27,216.03 304.69,216.12 C 305.10,216.22 305.48,216.32 305.81,216.44 C 306.15,216.55 306.44,216.68 306.69,216.81 C 306.94,216.95 307.15,217.09 307.31,217.25 C 307.48,217.41 307.57,217.60 307.69,217.75 C 307.81,217.90 307.93,218.02 308.05,218.12 C 308.16,218.23 308.28,218.31 308.39,218.38 C 308.50,218.44 308.61,218.48 308.72,218.50 C 308.83,218.52 308.93,218.52 309.03,218.50 C 309.13,218.48 309.23,218.44 309.33,218.38 C 309.42,218.31 309.52,218.23 309.61,218.12 C 309.70,218.02 309.79,217.90 309.88,217.75 C 309.96,217.60 310.04,217.41 310.12,217.25 C 310.21,217.09 310.31,216.95 310.41,216.81 C 310.51,216.68 310.61,216.55 310.72,216.44 C 310.83,216.32 310.94,216.22 311.06,216.12 C 311.18,216.03 311.31,215.95 311.44,215.88 C 311.57,215.80 311.70,215.74 311.84,215.69 C 311.98,215.64 312.13,215.59 312.28,215.56 C 312.43,215.53 312.59,215.51 312.75,215.50 C 312.91,215.49 313.09,215.49 313.25,215.50 C 313.41,215.51 313.57,215.53 313.72,215.56 C 313.87,215.59 314.02,215.64 314.16,215.69 C 314.30,215.74 314.43,215.80 314.56,215.88 C 314.69,215.95 314.82,216.03 314.94,216.12 C 315.06,216.22 315.17,216.32 315.28,216.44 C 315.39,216.55 315.49,216.68 315.59,216.81 C 315.69,216.95 315.79,217.09 315.88,217.25 C 315.96,217.41 315.95,217.59 316.12,217.75 C 316.30,217.91 316.58,218.05 316.95,218.19 C 317.33,218.32 317.79,218.45 318.36,218.56 C 318.92,218.68 319.59,218.78 320.34,218.88 C 321.10,218.97 321.96,219.05 322.91,219.12 C 323.86,219.20 324.90,219.26 326.05,219.31 C 327.19,219.36 328.43,219.41 329.77,219.44 C 331.10,219.47 332.53,219.49 334.06,219.50 C 335.59,219.51 337.39,219.49 338.94,219.50 C 340.49,219.51 341.96,219.53 343.36,219.56 C 344.76,219.59 346.08,219.64 347.33,219.69 C 348.58,219.74 349.75,219.80 350.84,219.88 C 351.94,219.95 352.96,220.03 353.91,220.12 C 354.85,220.22 355.72,220.32 356.52,220.44 C 357.31,220.55 358.03,220.68 358.67,220.81 C 359.32,220.95 359.88,221.09 360.38,221.25 C 360.87,221.41 361.23,221.58 361.62,221.75 C 362.02,221.92 362.40,222.08 362.77,222.25 C 363.13,222.42 363.47,222.58 363.80,222.75 C 364.12,222.92 364.43,223.08 364.72,223.25 C 365.01,223.42 365.28,223.58 365.53,223.75 C 365.78,223.92 366.02,224.08 366.23,224.25 C 366.45,224.42 366.65,224.58 366.83,224.75 C 367.01,224.92 367.17,225.08 367.31,225.25 C 367.46,225.42 367.55,225.59 367.69,225.75 C 367.83,225.91 367.98,226.07 368.14,226.22 C 368.30,226.37 368.48,226.52 368.67,226.66 C 368.86,226.80 369.07,226.93 369.28,227.06 C 369.50,227.19 369.73,227.32 369.97,227.44 C 370.21,227.56 370.47,227.67 370.73,227.78 C 371.00,227.89 371.28,227.99 371.58,228.09 C 371.87,228.19 372.18,228.29 372.50,228.38 C 372.82,228.46 373.17,228.53 373.50,228.62 C 373.83,228.72 374.16,228.83 374.48,228.95 C 374.81,229.08 375.13,229.21 375.45,229.36 C 375.77,229.51 376.09,229.67 376.41,229.84 C 376.72,230.02 377.03,230.21 377.34,230.41 C 377.65,230.61 377.96,230.82 378.27,231.05 C 378.57,231.27 378.87,231.51 379.17,231.77 C 379.47,232.02 379.77,232.28 380.06,232.56 C 380.36,232.84 380.65,233.16 380.94,233.44 C 381.22,233.71 381.50,233.98 381.77,234.23 C 382.05,234.48 382.31,234.71 382.57,234.93 C 382.83,235.15 383.08,235.36 383.33,235.55 C 383.57,235.74 383.81,235.92 384.05,236.08 C 384.28,236.24 384.51,236.39 384.73,236.52 C 384.95,236.66 385.16,236.78 385.37,236.88 C 385.57,236.99 385.77,237.08 385.97,237.16 C 386.16,237.23 386.36,237.26 386.53,237.34 C 386.71,237.43 386.87,237.53 387.02,237.65 C 387.18,237.77 387.32,237.91 387.45,238.07 C 387.57,238.23 387.69,238.41 387.80,238.61 C 387.90,238.81 388.00,239.03 388.08,239.27 C 388.16,239.50 388.23,239.76 388.29,240.04 C 388.35,240.32 388.39,240.61 388.43,240.93 C 388.46,241.25 388.49,241.58 388.50,241.94 C 388.51,242.29 388.51,242.71 388.50,243.06 C 388.49,243.42 388.47,243.76 388.44,244.08 C 388.41,244.40 388.36,244.70 388.31,244.98 C 388.26,245.27 388.20,245.53 388.12,245.78 C 388.05,246.03 387.97,246.26 387.88,246.47 C 387.78,246.68 387.68,246.87 387.56,247.05 C 387.45,247.22 387.32,247.38 387.19,247.52 C 387.05,247.65 386.91,247.77 386.75,247.88 C 386.59,247.98 386.41,248.01 386.25,248.12 C 386.09,248.24 385.95,248.38 385.81,248.55 C 385.68,248.72 385.55,248.91 385.44,249.14 C 385.32,249.37 385.22,249.62 385.12,249.91 C 385.03,250.19 384.95,250.50 384.88,250.84 C 384.80,251.18 384.74,251.55 384.69,251.95 C 384.64,252.35 384.59,252.78 384.56,253.23 C 384.53,253.69 384.51,254.17 384.50,254.69 C 384.49,255.20 384.49,255.80 384.50,256.31 C 384.51,256.83 384.53,257.31 384.56,257.77 C 384.59,258.22 384.64,258.65 384.69,259.05 C 384.74,259.45 384.80,259.82 384.88,260.16 C 384.95,260.50 385.03,260.81 385.12,261.09 C 385.22,261.38 385.32,261.63 385.44,261.86 C 385.55,262.09 385.68,262.28 385.81,262.45 C 385.95,262.62 386.09,262.76 386.25,262.88 C 386.41,262.99 386.60,263.02 386.75,263.12 C 386.90,263.23 387.05,263.35 387.18,263.49 C 387.31,263.63 387.43,263.80 387.54,263.98 C 387.65,264.16 387.74,264.36 387.83,264.58 C 387.91,264.80 387.99,265.04 388.05,265.30 C 388.11,265.56 388.16,265.83 388.20,266.13 C 388.23,266.43 388.26,266.75 388.27,267.09 C 388.29,267.42 388.29,267.78 388.28,268.16 C 388.27,268.53 388.25,268.97 388.22,269.34 C 388.19,269.72 388.15,270.07 388.10,270.40 C 388.05,270.73 388.00,271.04 387.93,271.32 C 387.86,271.61 387.79,271.87 387.70,272.11 C 387.62,272.35 387.52,272.57 387.42,272.77 C 387.32,272.96 387.21,273.14 387.09,273.29 C 386.96,273.44 386.83,273.57 386.70,273.68 C 386.56,273.79 386.41,273.87 386.25,273.94 C 386.09,274.00 385.92,274.01 385.75,274.06 C 385.58,274.12 385.39,274.19 385.20,274.28 C 385.01,274.37 384.82,274.47 384.61,274.59 C 384.40,274.71 384.19,274.85 383.97,275.00 C 383.75,275.15 383.52,275.32 383.28,275.50 C 383.04,275.68 382.80,275.88 382.55,276.09 C 382.29,276.31 382.03,276.54 381.77,276.78 C 381.50,277.03 381.22,277.29 380.94,277.56 C 380.65,277.84 380.36,278.16 380.06,278.44 C 379.76,278.72 379.46,278.99 379.14,279.25 C 378.83,279.51 378.50,279.76 378.17,280.00 C 377.84,280.24 377.50,280.47 377.16,280.69 C 376.81,280.91 376.46,281.11 376.09,281.31 C 375.73,281.51 375.36,281.70 374.98,281.88 C 374.61,282.05 374.22,282.22 373.83,282.38 C 373.43,282.53 373.03,282.68 372.62,282.81 C 372.22,282.95 371.77,283.06 371.38,283.19 C 370.98,283.32 370.60,283.45 370.25,283.58 C 369.90,283.71 369.56,283.85 369.25,283.98 C 368.94,284.12 368.65,284.26 368.38,284.41 C 368.10,284.55 367.85,284.70 367.62,284.84 C 367.40,284.99 367.19,285.14 367.00,285.30 C 366.81,285.45 366.65,285.61 366.50,285.77 C 366.35,285.92 366.23,286.09 366.12,286.25 C 366.02,286.41 365.97,286.59 365.88,286.75 C 365.78,286.91 365.67,287.06 365.55,287.20 C 365.42,287.35 365.29,287.48 365.14,287.61 C 364.99,287.74 364.83,287.86 364.66,287.97 C 364.48,288.08 364.29,288.18 364.09,288.28 C 363.89,288.38 363.68,288.47 363.45,288.55 C 363.23,288.63 362.99,288.70 362.73,288.77 C 362.48,288.83 362.22,288.89 361.94,288.94 C 361.66,288.99 361.34,289.02 361.06,289.06 C 360.78,289.11 360.52,289.15 360.27,289.20 C 360.01,289.25 359.77,289.30 359.55,289.36 C 359.32,289.41 359.11,289.47 358.91,289.53 C 358.71,289.59 358.52,289.65 358.34,289.72 C 358.17,289.78 358.01,289.85 357.86,289.92 C 357.71,289.99 357.58,290.07 357.45,290.14 C 357.33,290.22 357.22,290.29 357.12,290.38 C 357.03,290.46 357.05,290.55 356.88,290.62 C 356.70,290.70 356.42,290.78 356.05,290.84 C 355.67,290.91 355.21,290.97 354.64,291.03 C 354.08,291.09 353.41,291.14 352.66,291.19 C 351.90,291.23 351.04,291.28 350.09,291.31 C 349.14,291.35 348.10,291.38 346.95,291.41 C 345.81,291.43 344.57,291.45 343.23,291.47 C 341.90,291.48 340.47,291.49 338.94,291.50 C 337.41,291.51 335.59,291.49 334.06,291.50 C 332.53,291.51 331.10,291.53 329.77,291.56 C 328.43,291.59 327.19,291.64 326.05,291.69 C 324.90,291.74 323.86,291.80 322.91,291.88 C 321.96,291.95 321.10,292.03 320.34,292.12 C 319.59,292.22 318.92,292.32 318.36,292.44 C 317.79,292.55 317.33,292.68 316.95,292.81 C 316.58,292.95 316.30,293.09 316.12,293.25 C 315.95,293.41 315.96,293.59 315.88,293.75 C 315.79,293.91 315.69,294.05 315.59,294.19 C 315.49,294.32 315.39,294.45 315.28,294.56 C 315.17,294.68 315.06,294.78 314.94,294.88 C 314.82,294.97 314.69,295.05 314.56,295.12 C 314.43,295.20 314.30,295.26 314.16,295.31 C 314.02,295.36 313.87,295.41 313.72,295.44 C 313.57,295.47 313.41,295.49 313.25,295.50 Z" />
    </clipPath>
  </defs>
  <path d="M 313.25,295.50 C 313.09,295.51 312.91,295.51 312.75,295.50 C 312.59,295.49 312.44,295.47 312.30,295.44 C 312.15,295.41 312.02,295.36 311.89,295.31 C 311.76,295.26 311.64,295.20 311.53,295.12 C 311.42,295.05 311.32,294.97 311.22,294.88 C 311.12,294.78 311.03,294.68 310.95,294.56 C 310.87,294.45 310.80,294.32 310.73,294.19 C 310.67,294.05 310.61,293.91 310.56,293.75 C 310.51,293.59 310.49,293.40 310.44,293.25 C 310.39,293.10 310.33,292.98 310.27,292.88 C 310.20,292.77 310.13,292.69 310.05,292.62 C 309.97,292.56 309.88,292.52 309.78,292.50 C 309.68,292.48 309.58,292.48 309.47,292.50 C 309.36,292.52 309.24,292.56 309.11,292.62 C 308.98,292.69 308.85,292.77 308.70,292.88 C 308.56,292.98 308.41,293.10 308.25,293.25 C 308.09,293.40 307.96,293.59 307.75,293.75 C 307.54,293.91 307.29,294.05 307.00,294.19 C 306.71,294.32 306.38,294.45 306.00,294.56 C 305.62,294.68 305.21,294.78 304.75,294.88 C 304.29,294.97 303.79,295.05 303.25,295.12 C 302.71,295.20 302.12,295.26 301.50,295.31 C 300.88,295.36 300.21,295.41 299.50,295.44 C 298.79,295.47 298.04,295.49 297.25,295.50 C 296.46,295.51 295.55,295.52 294.75,295.50 C 293.95,295.48 293.18,295.45 292.44,295.41 C 291.70,295.36 290.99,295.30 290.31,295.22 C 289.64,295.14 288.99,295.05 288.38,294.94 C 287.76,294.83 287.18,294.70 286.62,294.56 C 286.07,294.42 285.55,294.27 285.06,294.09 C 284.57,293.92 284.11,293.73 283.69,293.53 C 283.26,293.33 282.86,293.11 282.50,292.88 C 282.14,292.64 281.87,292.36 281.50,292.12 C 281.13,291.89 280.73,291.67 280.30,291.47 C 279.86,291.27 279.39,291.08 278.89,290.91 C 278.39,290.73 277.85,290.58 277.28,290.44 C 276.71,290.30 276.11,290.17 275.47,290.06 C 274.83,289.95 274.16,289.86 273.45,289.78 C 272.75,289.70 272.01,289.64 271.23,289.59 C 270.46,289.55 269.65,289.52 268.81,289.50 C 267.97,289.48 267.08,289.51 266.19,289.50 C 265.30,289.49 264.40,289.48 263.48,289.45 C 262.57,289.43 261.64,289.40 260.70,289.36 C 259.76,289.32 258.81,289.27 257.84,289.22 C 256.88,289.16 255.90,289.10 254.91,289.03 C 253.91,288.96 252.91,288.88 251.89,288.80 C 250.87,288.71 249.84,288.62 248.80,288.52 C 247.75,288.41 246.70,288.30 245.62,288.19 C 244.55,288.07 243.40,287.92 242.38,287.81 C 241.35,287.71 240.38,287.62 239.47,287.55 C 238.56,287.48 237.70,287.42 236.91,287.39 C 236.11,287.36 235.37,287.34 234.69,287.34 C 234.01,287.35 233.38,287.37 232.81,287.41 C 232.24,287.45 231.73,287.50 231.28,287.58 C 230.83,287.65 230.43,287.75 230.09,287.86 C 229.76,287.97 229.47,288.10 229.25,288.25 C 229.03,288.40 228.95,288.59 228.75,288.75 C 228.55,288.91 228.32,289.05 228.05,289.19 C 227.78,289.32 227.48,289.45 227.14,289.56 C 226.80,289.68 226.43,289.78 226.03,289.88 C 225.63,289.97 225.19,290.05 224.72,290.12 C 224.25,290.20 223.74,290.26 223.20,290.31 C 222.66,290.36 222.09,290.41 221.48,290.44 C 220.88,290.47 220.24,290.49 219.56,290.50 C 218.89,290.51 218.12,290.52 217.44,290.50 C 216.75,290.48 216.09,290.43 215.45,290.36 C 214.82,290.29 214.20,290.20 213.61,290.08 C 213.02,289.96 212.45,289.82 211.91,289.66 C 211.36,289.49 210.84,289.30 210.34,289.09 C 209.85,288.88 209.37,288.65 208.92,288.39 C 208.47,288.13 208.04,287.85 207.64,287.55 C 207.24,287.24 206.86,286.91 206.50,286.56 C 206.14,286.21 205.84,285.79 205.50,285.44 C 205.16,285.08 204.83,284.74 204.48,284.42 C 204.14,284.10 203.80,283.80 203.45,283.52 C 203.11,283.23 202.76,282.97 202.41,282.72 C 202.05,282.47 201.70,282.24 201.34,282.03 C 200.99,281.82 200.63,281.63 200.27,281.45 C 199.90,281.28 199.54,281.12 199.17,280.98 C 198.80,280.85 198.43,280.73 198.06,280.62 C 197.69,280.52 197.30,280.47 196.94,280.38 C 196.58,280.28 196.23,280.18 195.91,280.08 C 195.58,279.97 195.27,279.86 194.97,279.73 C 194.67,279.61 194.39,279.48 194.12,279.34 C 193.86,279.21 193.61,279.06 193.38,278.91 C 193.14,278.75 192.92,278.59 192.72,278.42 C 192.52,278.25 192.33,278.08 192.16,277.89 C 191.98,277.71 191.83,277.51 191.69,277.31 C 191.55,277.11 191.48,276.90 191.31,276.69 C 191.15,276.48 190.95,276.26 190.70,276.05 C 190.46,275.83 190.18,275.61 189.86,275.39 C 189.54,275.17 189.18,274.95 188.78,274.72 C 188.38,274.49 187.95,274.26 187.47,274.03 C 186.99,273.80 186.48,273.57 185.92,273.33 C 185.37,273.09 184.77,272.85 184.14,272.61 C 183.51,272.37 182.84,272.12 182.12,271.88 C 181.41,271.63 180.60,271.37 179.88,271.12 C 179.15,270.88 178.46,270.63 177.79,270.38 C 177.12,270.14 176.48,269.89 175.87,269.65 C 175.25,269.40 174.67,269.16 174.11,268.92 C 173.55,268.68 173.02,268.44 172.52,268.20 C 172.01,267.96 171.54,267.73 171.09,267.49 C 170.64,267.26 170.21,267.02 169.82,266.79 C 169.43,266.56 169.06,266.32 168.72,266.09 C 168.38,265.86 168.08,265.65 167.78,265.41 C 167.49,265.16 167.21,264.90 166.95,264.62 C 166.68,264.34 166.44,264.04 166.21,263.73 C 165.98,263.41 165.77,263.08 165.58,262.73 C 165.38,262.39 165.21,262.02 165.05,261.64 C 164.89,261.26 164.74,260.86 164.62,260.45 C 164.49,260.03 164.38,259.60 164.29,259.15 C 164.20,258.70 164.12,258.23 164.06,257.75 C 164.00,257.27 163.97,256.73 163.94,256.25 C 163.91,255.77 163.89,255.30 163.88,254.85 C 163.88,254.40 163.88,253.97 163.90,253.55 C 163.92,253.14 163.94,252.74 163.98,252.36 C 164.02,251.98 164.08,251.61 164.14,251.27 C 164.20,250.92 164.28,250.59 164.37,250.27 C 164.45,249.96 164.55,249.66 164.66,249.38 C 164.77,249.10 164.90,248.84 165.03,248.59 C 165.17,248.35 165.27,248.14 165.47,247.91 C 165.67,247.67 165.91,247.42 166.21,247.16 C 166.51,246.91 166.86,246.64 167.26,246.37 C 167.66,246.09 168.11,245.81 168.61,245.52 C 169.11,245.22 169.66,244.92 170.27,244.61 C 170.87,244.30 171.52,243.98 172.23,243.65 C 172.93,243.32 173.69,242.98 174.49,242.63 C 175.30,242.29 176.15,241.93 177.06,241.56 C 177.97,241.20 179.03,240.80 179.94,240.44 C 180.84,240.07 181.70,239.72 182.50,239.38 C 183.30,239.03 184.05,238.70 184.75,238.38 C 185.45,238.05 186.09,237.74 186.69,237.44 C 187.28,237.14 187.82,236.84 188.31,236.56 C 188.80,236.28 189.24,236.01 189.62,235.75 C 190.01,235.49 190.34,235.24 190.62,235.00 C 190.91,234.76 191.14,234.53 191.31,234.31 C 191.49,234.09 191.55,233.89 191.69,233.69 C 191.83,233.49 191.98,233.29 192.16,233.11 C 192.33,232.92 192.52,232.75 192.72,232.58 C 192.92,232.41 193.14,232.25 193.38,232.09 C 193.61,231.94 193.86,231.79 194.12,231.66 C 194.39,231.52 194.67,231.39 194.97,231.27 C 195.27,231.14 195.58,231.03 195.91,230.92 C 196.23,230.82 196.58,230.72 196.94,230.62 C 197.30,230.53 197.69,230.48 198.06,230.38 C 198.43,230.27 198.80,230.15 199.17,230.02 C 199.54,229.88 199.90,229.72 200.27,229.55 C 200.63,229.37 200.99,229.18 201.34,228.97 C 201.70,228.76 202.05,228.53 202.41,228.28 C 202.76,228.03 203.11,227.77 203.45,227.48 C 203.80,227.20 204.14,226.90 204.48,226.58 C 204.83,226.26 205.16,225.92 205.50,225.56 C 205.84,225.21 206.14,224.79 206.50,224.44 C 206.86,224.09 207.24,223.76 207.64,223.45 C 208.04,223.15 208.47,222.87 208.92,222.61 C 209.37,222.35 209.85,222.12 210.34,221.91 C 210.84,221.70 211.36,221.51 211.91,221.34 C 212.45,221.18 213.02,221.04 213.61,220.92 C 214.20,220.80 214.82,220.71 215.45,220.64 C 216.09,220.57 216.75,220.52 217.44,220.50 C 218.12,220.48 218.89,220.49 219.56,220.50 C 220.24,220.51 220.88,220.53 221.48,220.56 C 222.09,220.59 222.66,220.64 223.20,220.69 C 223.74,220.74 224.25,220.80 224.72,220.88 C 225.19,220.95 225.63,221.03 226.03,221.12 C 226.43,221.22 226.80,221.32 227.14,221.44 C 227.48,221.55 227.78,221.68 228.05,221.81 C 228.32,221.95 228.55,222.09 228.75,222.25 C 228.95,222.41 229.05,222.60 229.25,222.75 C 229.45,222.90 229.69,223.04 229.97,223.16 C 230.24,223.28 230.56,223.38 230.91,223.47 C 231.26,223.56 231.64,223.63 232.06,223.69 C 232.48,223.74 232.94,223.79 233.44,223.81 C 233.93,223.84 234.46,223.85 235.03,223.84 C 235.60,223.84 236.20,223.82 236.84,223.78 C 237.48,223.74 238.16,223.69 238.88,223.62 C 239.59,223.56 240.35,223.45 241.12,223.38 C 241.90,223.30 242.70,223.22 243.52,223.16 C 244.34,223.09 245.18,223.03 246.05,222.97 C 246.91,222.91 247.80,222.86 248.72,222.81 C 249.63,222.77 250.57,222.72 251.53,222.69 C 252.49,222.65 253.48,222.62 254.48,222.59 C 255.49,222.57 256.52,222.55 257.58,222.53 C 258.63,222.52 259.71,222.51 260.81,222.50 C 261.91,222.49 263.10,222.52 264.19,222.50 C 265.27,222.48 266.31,222.45 267.31,222.39 C 268.31,222.34 269.27,222.26 270.19,222.17 C 271.10,222.08 271.98,221.97 272.81,221.84 C 273.65,221.72 274.44,221.57 275.19,221.41 C 275.94,221.24 276.65,221.06 277.31,220.86 C 277.98,220.66 278.60,220.44 279.19,220.20 C 279.77,219.97 280.31,219.71 280.81,219.44 C 281.31,219.16 281.71,218.84 282.19,218.56 C 282.67,218.29 283.17,218.03 283.69,217.80 C 284.21,217.56 284.75,217.34 285.31,217.14 C 285.88,216.94 286.46,216.76 287.06,216.59 C 287.67,216.43 288.29,216.28 288.94,216.16 C 289.58,216.03 290.25,215.92 290.94,215.83 C 291.62,215.74 292.33,215.66 293.06,215.61 C 293.79,215.55 294.54,215.52 295.31,215.50 C 296.08,215.48 296.94,215.49 297.69,215.50 C 298.44,215.51 299.15,215.53 299.81,215.56 C 300.48,215.59 301.10,215.64 301.69,215.69 C 302.27,215.74 302.81,215.80 303.31,215.88 C 303.81,215.95 304.27,216.03 304.69,216.12 C 305.10,216.22 305.48,216.32 305.81,216.44 C 306.15,216.55 306.44,216.68 306.69,216.81 C 306.94,216.95 307.15,217.09 307.31,217.25 C 307.48,217.41 307.57,217.60 307.69,217.75 C 307.81,217.90 307.93,218.02 308.05,218.12 C 308.16,218.23 308.28,218.31 308.39,218.38 C 308.50,218.44 308.61,218.48 308.72,218.50 C 308.83,218.52 308.93,218.52 309.03,218.50 C 309.13,218.48 309.23,218.44 309.33,218.38 C 309.42,218.31 309.52,218.23 309.61,218.12 C 309.70,218.02 309.79,217.90 309.88,217.75 C 309.96,217.60 310.04,217.41 310.12,217.25 C 310.21,217.09 310.31,216.95 310.41,216.81 C 310.51,216.68 310.61,216.55 310.72,216.44 C 310.83,216.32 310.94,216.22 311.06,216.12 C 311.18,216.03 311.31,215.95 311.44,215.88 C 311.57,215.80 311.70,215.74 311.84,215.69 C 311.98,215.64 312.13,215.59 312.28,215.56 C 312.43,215.53 312.59,215.51 312.75,215.50 C 312.91,215.49 313.09,215.49 313.25,215.50 C 313.41,215.51 313.57,215.53 313.72,215.56 C 313.87,215.59 314.02,215.64 314.16,215.69 C 314.30,215.74 314.43,215.80 314.56,215.88 C 314.69,215.95 314.82,216.03 314.94,216.12 C 315.06,216.22 315.17,216.32 315.28,216.44 C 315.39,216.55 315.49,216.68 315.59,216.81 C 315.69,216.95 315.79,217.09 315.88,217.25 C 315.96,217.41 315.95,217.59 316.12,217.75 C 316.30,217.91 316.58,218.05 316.95,218.19 C 317.33,218.32 317.79,218.45 318.36,218.56 C 318.92,218.68 319.59,218.78 320.34,218.88 C 321.10,218.97 321.96,219.05 322.91,219.12 C 323.86,219.20 324.90,219.26 326.05,219.31 C 327.19,219.36 328.43,219.41 329.77,219.44 C 331.10,219.47 332.53,219.49 334.06,219.50 C 335.59,219.51 337.39,219.49 338.94,219.50 C 340.49,219.51 341.96,219.53 343.36,219.56 C 344.76,219.59 346.08,219.64 347.33,219.69 C 348.58,219.74 349.75,219.80 350.84,219.88 C 351.94,219.95 352.96,220.03 353.91,220.12 C 354.85,220.22 355.72,220.32 356.52,220.44 C 357.31,220.55 358.03,220.68 358.67,220.81 C 359.32,220.95 359.88,221.09 360.38,221.25 C 360.87,221.41 361.23,221.58 361.62,221.75 C 362.02,221.92 362.40,222.08 362.77,222.25 C 363.13,222.42 363.47,222.58 363.80,222.75 C 364.12,222.92 364.43,223.08 364.72,223.25 C 365.01,223.42 365.28,223.58 365.53,223.75 C 365.78,223.92 366.02,224.08 366.23,224.25 C 366.45,224.42 366.65,224.58 366.83,224.75 C 367.01,224.92 367.17,225.08 367.31,225.25 C 367.46,225.42 367.55,225.59 367.69,225.75 C 367.83,225.91 367.98,226.07 368.14,226.22 C 368.30,226.37 368.48,226.52 368.67,226.66 C 368.86,226.80 369.07,226.93 369.28,227.06 C 369.50,227.19 369.73,227.32 369.97,227.44 C 370.21,227.56 370.47,227.67 370.73,227.78 C 371.00,227.89 371.28,227.99 371.58,228.09 C 371.87,228.19 372.18,228.29 372.50,228.38 C 372.82,228.46 373.17,228.53 373.50,228.62 C 373.83,228.72 374.16,228.83 374.48,228.95 C 374.81,229.08 375.13,229.21 375.45,229.36 C 375.77,229.51 376.09,229.67 376.41,229.84 C 376.72,230.02 377.03,230.21 377.34,230.41 C 377.65,230.61 377.96,230.82 378.27,231.05 C 378.57,231.27 378.87,231.51 379.17,231.77 C 379.47,232.02 379.77,232.28 380.06,232.56 C 380.36,232.84 380.65,233.16 380.94,233.44 C 381.22,233.71 381.50,233.98 381.77,234.23 C 382.05,234.48 382.31,234.71 382.57,234.93 C 382.83,235.15 383.08,235.36 383.33,235.55 C 383.57,235.74 383.81,235.92 384.05,236.08 C 384.28,236.24 384.51,236.39 384.73,236.52 C 384.95,236.66 385.16,236.78 385.37,236.88 C 385.57,236.99 385.77,237.08 385.97,237.16 C 386.16,237.23 386.36,237.26 386.53,237.34 C 386.71,237.43 386.87,237.53 387.02,237.65 C 387.18,237.77 387.32,237.91 387.45,238.07 C 387.57,238.23 387.69,238.41 387.80,238.61 C 387.90,238.81 388.00,239.03 388.08,239.27 C 388.16,239.50 388.23,239.76 388.29,240.04 C 388.35,240.32 388.39,240.61 388.43,240.93 C 388.46,241.25 388.49,241.58 388.50,241.94 C 388.51,242.29 388.51,242.71 388.50,243.06 C 388.49,243.42 388.47,243.76 388.44,244.08 C 388.41,244.40 388.36,244.70 388.31,244.98 C 388.26,245.27 388.20,245.53 388.12,245.78 C 388.05,246.03 387.97,246.26 387.88,246.47 C 387.78,246.68 387.68,246.87 387.56,247.05 C 387.45,247.22 387.32,247.38 387.19,247.52 C 387.05,247.65 386.91,247.77 386.75,247.88 C 386.59,247.98 386.41,248.01 386.25,248.12 C 386.09,248.24 385.95,248.38 385.81,248.55 C 385.68,248.72 385.55,248.91 385.44,249.14 C 385.32,249.37 385.22,249.62 385.12,249.91 C 385.03,250.19 384.95,250.50 384.88,250.84 C 384.80,251.18 384.74,251.55 384.69,251.95 C 384.64,252.35 384.59,252.78 384.56,253.23 C 384.53,253.69 384.51,254.17 384.50,254.69 C 384.49,255.20 384.49,255.80 384.50,256.31 C 384.51,256.83 384.53,257.31 384.56,257.77 C 384.59,258.22 384.64,258.65 384.69,259.05 C 384.74,259.45 384.80,259.82 384.88,260.16 C 384.95,260.50 385.03,260.81 385.12,261.09 C 385.22,261.38 385.32,261.63 385.44,261.86 C 385.55,262.09 385.68,262.28 385.81,262.45 C 385.95,262.62 386.09,262.76 386.25,262.88 C 386.41,262.99 386.60,263.02 386.75,263.12 C 386.90,263.23 387.05,263.35 387.18,263.49 C 387.31,263.63 387.43,263.80 387.54,263.98 C 387.65,264.16 387.74,264.36 387.83,264.58 C 387.91,264.80 387.99,265.04 388.05,265.30 C 388.11,265.56 388.16,265.83 388.20,266.13 C 388.23,266.43 388.26,266.75 388.27,267.09 C 388.29,267.42 388.29,267.78 388.28,268.16 C 388.27,268.53 388.25,268.97 388.22,269.34 C 388.19,269.72 388.15,270.07 388.10,270.40 C 388.05,270.73 388.00,271.04 387.93,271.32 C 387.86,271.61 387.79,271.87 387.70,272.11 C 387.62,272.35 387.52,272.57 387.42,272.77 C 387.32,272.96 387.21,273.14 387.09,273.29 C 386.96,273.44 386.83,273.57 386.70,273.68 C 386.56,273.79 386.41,273.87 386.25,273.94 C 386.09,274.00 385.92,274.01 385.75,274.06 C 385.58,274.12 385.39,274.19 385.20,274.28 C 385.01,274.37 384.82,274.47 384.61,274.59 C 384.40,274.71 384.19,274.85 383.97,275.00 C 383.75,275.15 383.52,275.32 383.28,275.50 C 383.04,275.68 382.80,275.88 382.55,276.09 C 382.29,276.31 382.03,276.54 381.77,276.78 C 381.50,277.03 381.22,277.29 380.94,277.56 C 380.65,277.84 380.36,278.16 380.06,278.44 C 379.76,278.72 379.46,278.99 379.14,279.25 C 378.83,279.51 378.50,279.76 378.17,280.00 C 377.84,280.24 377.50,280.47 377.16,280.69 C 376.81,280.91 376.46,281.11 376.09,281.31 C 375.73,281.51 375.36,281.70 374.98,281.88 C 374.61,282.05 374.22,282.22 373.83,282.38 C 373.43,282.53 373.03,282.68 372.62,282.81 C 372.22,282.95 371.77,283.06 371.38,283.19 C 370.98,283.32 370.60,283.45 370.25,283.58 C 369.90,283.71 369.56,283.85 369.25,283.98 C 368.94,284.12 368.65,284.26 368.38,284.41 C 368.10,284.55 367.85,284.70 367.62,284.84 C 367.40,284.99 367.19,285.14 367.00,285.30 C 366.81,285.45 366.65,285.61 366.50,285.77 C 366.35,285.92 366.23,286.09 366.12,286.25 C 366.02,286.41 365.97,286.59 365.88,286.75 C 365.78,286.91 365.67,287.06 365.55,287.20 C 365.42,287.35 365.29,287.48 365.14,287.61 C 364.99,287.74 364.83,287.86 364.66,287.97 C 364.48,288.08 364.29,288.18 364.09,288.28 C 363.89,288.38 363.68,288.47 363.45,288.55 C 363.23,288.63 362.99,288.70 362.73,288.77 C 362.48,288.83 362.22,288.89 361.94,288.94 C 361.66,288.99 361.34,289.02 361.06,289.06 C 360.78,289.11 360.52,289.15 360.27,289.20 C 360.01,289.25 359.77,289.30 359.55,289.36 C 359.32,289.41 359.11,289.47 358.91,289.53 C 358.71,289.59 358.52,289.65 358.34,289.72 C 358.17,289.78 358.01,289.85 357.86,289.92 C 357.71,289.99 357.58,290.07 357.45,290.14 C 357.33,290.22 357.22,290.29 357.12,290.38 C 357.03,290.46 357.05,290.55 356.88,290.62 C 356.70,290.70 356.42,290.78 356.05,290.84 C 355.67,290.91 355.21,290.97 354.64,291.03 C 354.08,291.09 353.41,291.14 352.66,291.19 C 351.90,291.23 351.04,291.28 350.09,291.31 C 349.14,291.35 348.10,291.38 346.95,291.41 C 345.81,291.43 344.57,291.45 343.23,291.47 C 341.90,291.48 340.47,291.49 338.94,291.50 C 337.41,291.51 335.59,291.49 334.06,291.50 C 332.53,291.51 331.10,291.53 329.77,291.56 C 328.43,291.59 327.19,291.64 326.05,291.69 C 324.90,291.74 323.86,291.80 322.91,291.88 C 321.96,291.95 321.10,292.03 320.34,292.12 C 319.59,292.22 318.92,292.32 318.36,292.44 C 317.79,292.55 317.33,292.68 316.95,292.81 C 316.58,292.95 316.30,293.09 316.12,293.25 C 315.95,293.41 315.96,293.59 315.88,293.75 C 315.79,293.91 315.69,294.05 315.59,294.19 C 315.49,294.32 315.39,294.45 315.28,294.56 C 315.17,294.68 315.06,294.78 314.94,294.88 C 314.82,294.97 314.69,295.05 314.56,295.12 C 314.43,295.20 314.30,295.26 314.16,295.31 C 314.02,295.36 313.87,295.41 313.72,295.44 C 313.57,295.47 313.41,295.49 313.25,295.50 Z" stroke="none" fill="currentColor" opacity="0.11" />
  <path d="M217.84,266.34L225.24,266.31 M224.35,232.26L230.02,231.78 M240.36,234.75L240.36,244.20 M240.36,244.95L240.36,236.45 M237.86,235.71L237.86,245.99 M240.81,245.99L240.81,234.75 M237.89,244.95L237.89,236.45 M239.91,246.47L239.91,234.27 M239.90,246.47L239.90,234.27 M239.90,246.48L239.90,234.26 M236.42,234.43L236.40,234.43 M238.06,246.47L238.06,234.27 M238.07,234.27L238.07,246.47 M235.57,238.92L235.57,238.92 M239.90,246.47L239.90,234.27 M239.89,246.47L239.89,234.27 M236.38,246.16L236.40,234.48 M236.41,234.43L236.39,234.43 M238.05,246.47L238.05,234.27 M238.06,234.27L238.06,246.47 M278.22,269.82L284.03,269.82 M298.85,251.29L298.83,244.07 M284.11,242.18L278.30,242.18 M290.62,269.82L296.44,269.82 M296.52,242.18L290.70,242.18 M295.88,252.72L289.27,252.72 M297.04,253.99L285.04,253.80 M293.40,254.40L293.39,254.41 M296.73,254.21L284.36,254.32 M296.80,257.76L284.64,257.53 M296.67,257.58L284.61,257.79 M297.08,254.16L284.90,254.38 M199.54,256.05L199.58,256.00 M198.11,243.60L198.03,243.47 M243.22,264.55L243.22,276.02 M243.15,277.06L243.15,264.55 M233.42,283.73L222.61,282.10 M237.10,281.13L225.43,280.10 M233.41,283.72L222.20,282.00 M226.95,263.61L226.95,263.52 M232.13,263.90L232.13,263.90 M219.14,274.67L219.14,267.93 M219.15,264.98L219.11,273.84 M234.40,279.68L241.73,280.34 M234.37,280.02L241.70,280.68 M234.50,278.54L241.83,279.20 M220.68,278.48L231.17,279.40 M220.78,277.30L231.27,278.22 M220.65,278.82L231.14,279.74 M231.27,278.26L220.78,277.34 M221.77,278.11L230.73,278.89 M230.77,278.34L221.82,277.56 M235.49,279.30L241.25,279.82 M241.30,279.27L235.54,278.75 M241.02,278.08L225.69,276.71 M219.71,267.88L219.71,274.61 M214.96,246.28L215.04,239.77 M211.58,245.96L211.58,239.77 M210.46,240.00L210.42,240.02 M210.00,234.88L210.00,247.68 M224.58,246.07L233.70,246.07 M223.55,247.10L234.21,247.10 M234.21,247.45L223.55,247.45 M223.55,245.96L234.21,245.96 M234.11,233.83L223.54,234.75 M223.65,235.97L234.22,235.05 M234.08,233.49L223.51,234.41 M234.14,234.18L223.57,234.95 M234.21,235.00L223.65,235.92 M224.58,246.62L233.70,246.62 M233.70,246.07L224.58,246.07 M220.00,247.08L231.05,247.08 M220.00,247.03L231.63,247.04 M226.80,248.10L226.80,248.10 M217.83,240.42L217.83,240.42 M233.65,228.73L223.10,230.30 M222.29,234.70L222.31,234.70 M222.05,234.68L235.80,233.48 M221.88,234.86L235.81,233.64 M233.75,230.05L223.24,231.67 M233.65,228.84L223.13,230.41 M217.65,240.39L217.65,240.38 M263.86,262.34L255.34,262.34 M252.58,229.62L263.43,229.58 M258.01,231.91L264.07,231.91 M250.77,270.52L250.85,270.36 M250.57,269.38L250.57,269.60 M250.58,271.94L250.26,271.90 M262.49,276.79L262.57,276.75 M254.01,276.79L262.21,276.75 M266.80,271.31L266.80,271.57 M265.68,271.16L265.48,270.56 M265.68,271.98L265.48,272.56 M248.68,266.55L248.43,260.16 M265.57,266.30L265.57,260.16 M250.95,275.77L250.95,275.77 M250.95,274.53L250.95,274.53 M250.95,266.35L250.95,266.35 M265.22,265.11L265.22,265.11 M265.22,266.35L265.22,266.35 M265.22,274.53L265.22,274.53 M265.22,275.77L265.22,275.77 M250.47,279.17L250.47,272.83 M262.88,262.57L253.29,262.57 M249.85,241.93L249.85,241.93 M249.85,246.38L249.85,246.38 M249.77,246.30L249.77,246.30 M249.82,239.77L249.82,232.74 M249.88,232.74L249.88,239.77 M249.70,232.73L249.70,239.77 M249.74,232.74L249.74,239.77 M249.82,240.28L249.82,240.28 M249.88,240.18L249.86,240.14 M249.86,240.14L249.84,240.11 M249.74,240.28L249.74,240.28 M265.82,259.36L265.82,253.10 M265.60,258.90L265.60,253.10 M265.38,252.79L265.38,259.22 M265.37,252.79L265.37,259.22 M264.96,262.58L264.96,262.59 M265.44,262.59L265.44,262.59 M265.44,249.41L265.44,249.41 M264.96,249.41L264.96,249.41 M267.14,246.65L267.33,246.65 M267.14,246.65L267.33,246.52 M271.56,241.36L271.56,241.36 M271.56,246.41L271.56,246.41 M271.67,242.32L271.67,242.32 M271.63,241.83L271.47,242.09 M252.63,245.30L252.65,233.57 M251.45,249.08L251.45,249.08 M256.19,241.20L256.19,246.84 M260.28,241.20L260.28,246.84 M256.19,232.23L256.19,237.87 M260.28,232.23L260.28,237.87 M267.14,238.28L267.33,238.28 M267.14,238.28L267.33,238.15 M271.56,232.99L271.56,232.99 M271.56,238.04L271.56,238.04 M271.67,233.95L271.67,233.95 M271.63,233.45L271.47,233.72 M249.48,232.69L249.48,232.69 M248.54,239.12L248.52,233.12 M277.87,258.60L286.66,258.64 M286.18,243.79L286.18,249.63 M273.71,265.24L273.78,265.26 M270.19,258.90L270.19,253.10 M271.74,263.76L271.74,263.76 M290.54,238.85L296.71,238.85 M290.53,238.82L296.72,238.82 M296.51,241.49L290.73,241.49 M289.88,238.61L297.36,238.61 M285.92,269.04L285.92,269.10 M285.97,269.07L285.92,269.06 M278.21,270.52L283.99,270.52 M284.91,242.80L277.66,242.80 M277.37,269.20L284.61,269.20 M288.90,242.96L288.90,242.90 M288.85,242.93L288.89,242.94 M304.33,244.52L304.33,244.52 M303.79,243.82L303.79,243.82 M284.11,241.49L278.33,241.49 M295.13,243.60L285.95,243.66 M296.13,264.87L286.09,264.84 M277.27,241.09L284.92,241.12 M289.78,241.09L297.43,241.12 M297.55,270.94L289.90,270.91 M294.69,250.25L294.69,261.99 M280.17,254.28L280.16,247.97 M280.16,264.03L280.17,257.72 M285.73,266.30L278.20,266.65 M278.20,266.65L285.68,266.35 M295.65,250.40L285.55,250.41 M296.13,249.24L286.06,249.28 M296.60,273.16L290.43,273.16 M296.61,273.19L290.42,273.19 M290.63,270.52L296.41,270.52 M297.26,273.40L289.78,273.40 M297.31,242.80L290.07,242.80 M298.13,267.84L298.13,256.83 M298.13,269.24L298.13,269.16 M298.13,244.50L298.13,256.83 M298.13,243.10L298.13,243.12 M289.78,269.20L297.03,269.20 M240.37,262.75L247.19,262.75 M201.95,262.06L208.96,262.06 M208.96,262.06L201.07,262.23 M201.95,262.19L208.96,262.19 M238.97,252.83L238.97,259.17 M239.02,252.77L239.02,259.23 M208.96,249.94L201.95,249.94 M201.95,249.94L209.84,249.77 M208.96,249.81L201.95,249.81 M211.52,262.06L218.53,262.06 M218.53,262.06L210.64,262.23 M211.52,262.19L218.53,262.19 M232.00,249.76L232.00,249.86 M224.54,250.49L224.54,250.49 M223.51,250.49L223.51,250.49 M224.66,250.38L224.66,250.21 M223.39,250.38L223.39,250.38 M224.54,250.10L224.54,250.10 M223.51,250.10L223.51,250.10 M226.63,250.16L226.63,250.16 M217.53,262.63L210.26,262.61 M248.65,249.38L248.63,249.40 M239.07,250.54L239.07,250.61 M219.85,261.46L219.85,261.39 M240.33,262.06L247.33,262.06 M247.33,262.06L239.44,262.23 M240.33,262.19L247.33,262.19 M247.64,252.01L247.65,259.95 M243.65,252.01L243.66,259.95 M239.66,252.01L239.67,259.95 M226.94,262.25L226.94,262.15 M234.40,261.51L234.40,261.51 M235.44,261.51L235.44,261.51 M234.28,261.63L234.28,261.79 M235.55,261.63L235.55,261.63 M234.40,261.91L234.40,261.91 M235.44,261.91L235.44,261.91 M232.31,261.85L232.31,261.85 M218.53,249.94L211.52,249.94 M211.52,249.94L219.41,249.77 M218.53,249.81L211.52,249.81 M207.96,262.63L200.69,262.61 M247.36,249.94L240.35,249.94 M240.35,249.94L248.24,249.77 M247.36,249.81L240.35,249.81 M182.90,269.62L172.14,265.43 M181.67,244.66L190.63,242.05 M181.67,244.66L194.54,240.94 M173.81,264.14L180.90,267.07 M181.67,267.34L192.53,270.56 M202.80,264.15L202.77,269.79 M197.14,241.57L197.14,241.57 M185.57,242.03L179.73,243.82 M188.68,269.31L180.23,266.78 M311.42,285.35L305.40,287.11 M291.36,285.04L298.41,286.13 M224.57,286.80L216.64,285.75 M224.57,225.21L216.64,226.27 M297.52,228.14L286.47,228.96 M308.11,238.80L301.77,238.03 M308.11,238.80L299.02,237.76 M308.11,273.21L301.76,273.98 M308.11,273.21L299.02,274.25 M302.38,280.97L312.45,280.39 M254.00,248.85L275.76,249.37 M254.00,263.16L275.76,262.64 M297.99,281.50L290.71,282.36 M297.99,281.50L287.41,282.67 M297.99,230.51L290.71,229.65 M297.99,230.51L287.41,229.34 M227.82,285.02L216.24,282.97 M227.82,227.00L216.24,229.04 M284.95,263.72L292.05,263.37 M284.95,248.30L292.05,248.64 M304.90,275.33L305.13,275.14 M222.73,282.87L233.48,283.81 M269.28,223.34L254.45,223.43 M269.00,288.64L256.71,288.60 M296.99,239.89L296.84,254.86 M297.39,240.58L297.55,255.03 M286.57,239.94L286.56,254.77 M286.58,272.11L286.71,257.14 M286.19,271.36L286.00,256.97 M208.17,262.89L231.99,262.65 M232.06,263.54L208.19,263.84 M231.92,247.82L208.09,247.82 M232.01,249.26L208.17,249.11 M232.07,248.40L208.19,248.16 M276.57,258.78L282.26,258.44 M245.48,225.32L235.52,226.55 M253.06,265.64L276.86,264.45 M280.55,263.62L293.54,262.95 M253.93,286.63L265.57,286.64 M236.84,284.98L245.83,285.97 M253.07,246.41L276.86,247.55 M280.56,248.37L293.54,249.06 M253.94,225.38L265.54,225.32 M245.63,224.21L236.84,225.53 M236.83,227.01L245.84,226.02 M298.16,229.57L287.34,228.53 M287.59,283.43L298.16,282.45 M287.59,283.43L301.44,281.85 M275.10,264.82L264.34,264.55 M303.98,273.94L298.32,273.62 M309.92,234.42L309.90,235.60 M300.26,281.60L311.02,281.67 M239.70,226.11L245.33,226.14 M193.79,238.23L187.67,238.84 M193.79,238.23L187.64,239.26 M306.73,247.78L306.66,256.00 M268.12,287.86L258.25,288.40 M256.06,252.85L263.43,252.77 M256.05,259.16L263.43,259.18 M263.43,259.18L276.89,258.61 M236.80,234.75L246.82,234.98 M246.66,277.00L237.04,277.25 M308.57,260.13L302.21,260.16 M308.58,251.90L302.23,252.10 M268.78,224.10L261.94,224.04 M268.78,224.10L262.40,224.28 M267.89,223.82L262.05,223.96 M267.89,223.82L261.66,224.43 M247.08,255.05L253.40,255.12 M249.93,252.85L267.02,252.53 M249.76,252.01L267.02,252.53 M249.91,259.13L267.02,259.41 M249.76,259.99L267.02,259.41 M236.89,251.23L236.55,250.38 M254.60,286.27L256.25,285.84 M256.25,285.84L253.35,286.93 M265.73,287.09L257.07,287.14 M294.88,261.41L282.79,261.21 M294.88,261.41L282.04,260.95 M295.40,250.57L282.95,250.97 M310.47,236.20L310.38,256.00 M310.84,277.88L310.20,278.25 M310.84,234.12L310.23,233.73 M310.84,277.88L310.71,278.10 M298.10,262.90L297.07,262.75 M285.43,260.47L286.04,260.75 M297.06,249.25L298.10,249.10 M286.03,251.24L285.41,251.53 M286.37,239.27L296.91,239.66 M286.40,272.68L296.88,272.30 M297.80,254.29L298.48,240.26 M193.96,256.22L188.30,255.99 M194.06,262.88L188.25,262.99 M188.28,252.21L194.19,252.17 M194.06,249.13L188.25,249.01 M194.24,261.42L188.24,261.64 M256.72,289.03L264.93,288.89 M258.85,285.61L245.21,285.15 M245.70,226.07L258.94,226.82 M288.39,251.54L294.05,252.09 M282.79,261.21L288.37,260.47 M265.81,259.51L250.28,259.46 M265.96,252.47L250.29,252.54 M237.97,261.08L238.17,261.17 M233.35,261.21L232.57,261.51 M233.35,261.21L233.41,261.23 M205.46,250.78L205.89,250.66 M207.66,262.71L207.91,262.88 M239.25,260.47L239.18,260.18 M239.30,260.01L239.18,260.18 M231.53,262.34L231.87,262.03 M231.53,262.34L231.30,262.68 M286.33,277.37L285.48,271.58 M264.88,289.01L258.59,289.36 M258.65,289.35L264.88,289.01 M269.12,287.67L261.35,288.48 M260.88,286.06L254.46,287.02 M269.61,286.21L261.36,288.46 M269.47,288.97L261.16,288.49 M183.35,265.15L182.39,259.56 M183.35,265.15L182.57,256.06 M183.35,265.15L182.45,255.73 M305.11,237.41L305.10,243.02 M305.11,236.90L305.16,243.08 M305.21,236.68L305.11,236.92 M230.39,258.76L224.38,258.76 M232.96,253.37L224.38,253.24 M227.83,258.12L220.39,258.29 M217.90,257.74L228.55,257.74 M228.55,254.28L217.90,254.28 M209.69,258.14L221.39,258.12 M209.80,254.08L221.23,254.05 M216.61,258.37L226.11,258.37 M226.11,253.65L216.61,253.65 M223.89,254.80L230.25,254.81 M217.88,255.05L210.70,255.05 M221.12,253.22L231.55,253.22 M291.01,238.79L290.83,250.29 M290.19,241.02L290.04,248.15 M290.45,249.60L290.45,241.21 M293.64,239.58L293.64,251.19 M292.39,273.21L292.58,261.71 M293.22,270.98L293.37,263.85 M292.96,262.40L292.96,270.79 M289.76,272.42L289.76,260.81 M280.31,235.03L286.67,235.42 M286.67,235.42L280.77,235.33 M286.46,236.14L280.39,237.07 M280.41,275.84L286.38,276.70 M286.70,276.08L280.17,275.89 M286.44,275.63L280.39,274.93 M251.49,275.79L251.49,275.79 M251.49,265.07L251.49,265.07 M264.69,275.79L264.69,275.79 M264.69,265.07L264.69,265.07 M265.33,265.19L265.33,275.64 M251.10,274.66L251.10,274.66 M265.08,266.19L265.08,266.19 M264.37,263.86L251.81,263.87 M263.65,231.77L252.35,231.77 M252.35,230.52L263.65,230.52 M263.65,230.29L252.35,230.29 M263.65,231.56L252.20,231.55 M252.35,231.53L263.65,231.53 M176.90,247.31L184.35,250.08 M176.90,247.31L183.99,251.33 M176.90,247.31L184.79,252.56 M173.05,248.57L171.29,253.93 M173.06,263.53L171.29,258.07 M172.52,256.00L173.06,263.53 M172.52,256.00L173.05,248.57 M173.66,248.05L186.92,248.03 M331.02,251.56L340.05,251.20 M325.70,291.30L333.35,289.77 M372.21,236.56L365.85,232.41 M327.06,221.34L333.35,222.45 M335.35,290.14L328.17,290.70 M335.35,290.14L328.75,290.65 M328.75,221.58L335.43,222.08 M328.26,221.58L335.43,222.08 M335.43,222.08L329.00,222.11 M372.21,275.67L365.85,279.81 M354.89,286.98L347.50,288.70 M355.04,224.34L347.52,223.42 M355.10,223.78L347.53,223.75 M355.04,224.34L347.53,223.75 M342.74,289.80L337.18,289.25 M331.49,255.36L321.39,255.02 M321.59,256.57L331.49,257.07 M331.49,257.07L321.70,257.21 M331.58,257.30L321.66,257.24 M329.02,256.46L322.90,255.99 M332.75,268.34L332.60,277.32 M350.97,252.62L351.95,252.60 M361.34,259.95L351.73,259.71 M360.70,256.04L352.45,255.95 M375.14,258.25L362.17,258.27 M362.27,253.83L375.29,253.26 M362.12,244.69L371.69,244.56 M371.67,267.43L362.12,267.21 M368.13,245.98L362.57,246.45 M362.57,265.19L369.48,265.19 M369.49,265.31L362.55,265.67 M371.19,253.67L360.94,251.61 M371.19,253.67L361.86,251.55 M371.68,267.76L362.12,268.45 M336.68,243.12L336.71,249.88 M320.90,273.57L334.50,274.99 M331.74,275.93L320.73,275.77 M332.96,259.79L320.86,259.44 M332.87,277.09L321.20,277.38 M320.99,276.76L333.59,276.64 M333.59,276.64L321.21,275.98 M331.78,234.56L320.89,235.18 M331.75,236.06L320.72,236.23 M320.89,238.36L334.51,237.32 M331.73,237.58L320.72,237.59 M320.70,251.06L328.86,251.18 M320.86,252.56L332.94,252.26 M332.85,234.86L320.89,235.18 M320.89,235.18L333.48,235.40 M333.48,235.40L321.22,235.97 M321.22,235.97L333.27,235.92 M333.86,236.69L320.72,237.59 M334.51,237.32L320.72,237.59 M340.47,238.79L340.29,250.29 M339.65,241.02L339.49,248.15 M339.91,249.60L339.91,241.21 M343.10,239.58L343.10,251.19 M341.85,273.21L342.04,261.71 M342.67,270.98L342.83,263.85 M342.42,262.40L342.42,270.79 M339.22,272.42L339.22,260.81 M372.82,233.15L372.82,238.17 M372.82,273.75L372.82,278.69 M377.11,238.28L379.40,249.94 M360.86,238.90L360.32,235.02 M383.09,249.05L383.95,241.83 M353.08,233.09L363.41,233.20 M364.04,233.28L376.22,233.24 M363.41,234.34L352.83,234.05 M363.41,234.27L353.08,233.00 M353.08,233.00L363.66,233.68 M364.98,238.43L355.52,238.47 M376.04,235.41L365.98,235.49 M375.50,234.29L366.57,234.29 M375.95,231.53L375.95,237.61 M375.08,239.16L375.05,232.84 M375.11,232.65L375.11,239.78 M383.08,262.44L384.55,267.71 M383.09,267.49L382.92,261.69 M376.66,273.08L385.47,273.08 M353.08,278.91L363.41,278.80 M364.04,278.72L376.22,278.76 M363.41,277.66L352.83,277.95 M375.50,277.71L366.57,277.71 M375.95,274.67L375.95,280.75 M375.08,279.50L375.05,273.18 M375.11,272.44L375.11,279.62 M361.53,272.15L369.75,272.19 M342.93,281.33L328.26,281.20 M347.21,260.41L347.09,274.92 M326.17,290.79L333.59,291.41 M314.90,287.31L313.93,277.43 M319.05,253.09L331.85,253.01 M326.43,234.55L333.33,234.30 M327.29,235.55L333.11,235.32 M327.29,235.55L333.19,235.56 M333.26,236.11L326.99,236.28 M326.97,276.20L333.21,276.48 M333.26,275.95L327.25,275.58 M360.85,274.14L350.28,274.11 M339.47,229.43L326.46,228.56 M326.25,228.95L339.64,230.03 M326.59,283.16L339.78,282.36 M339.47,280.93L326.44,281.21 M332.72,231.22L324.47,231.96 M332.72,231.22L325.36,231.75 M320.67,233.91L314.63,233.96 M314.63,233.96L322.81,233.67 M314.63,233.96L323.72,233.84 M332.42,233.69L325.78,233.76 M332.70,280.81L324.47,280.07 M332.70,280.81L325.36,280.27 M320.83,278.25L314.63,278.08 M314.63,278.08L322.60,278.27 M314.63,278.08L323.67,278.28 M332.49,278.15L325.55,278.48 M363.49,247.57L355.39,247.74 M363.50,249.87L355.38,249.12 M360.46,256.02L360.55,250.03 M366.23,252.05L360.22,251.85 M366.18,251.27L360.09,251.11 M360.09,261.29L366.17,260.61 M373.24,254.07L361.57,254.21 M349.46,287.40L339.43,288.10 M339.43,288.10L348.36,287.72 M339.13,280.28L355.71,279.96 M339.40,280.60L353.10,280.02 M339.47,280.18L353.10,280.02 M353.55,224.58L348.72,224.46 M353.08,232.29L338.98,231.84 M324.41,283.41L311.48,283.60 M311.64,284.20L324.59,283.91 M340.23,229.52L340.23,224.80 M340.23,224.80L340.10,229.67 M323.70,223.22L317.95,223.19 M323.70,223.22L318.07,222.97 M349.16,261.53L360.54,261.66 M360.36,252.35L349.33,251.61 M346.09,257.30L346.08,256.06 M346.09,254.72L346.08,256.06 M366.32,262.38L366.52,268.54 M369.82,250.11L369.24,242.56 M339.39,271.89L339.16,277.86 M339.16,277.86L339.50,272.39 M339.16,277.86L339.49,272.91 M339.38,240.14L339.19,234.16 M339.19,234.16L339.49,239.64 M339.19,234.16L339.49,239.13 M340.04,227.46L339.15,231.55 M339.15,231.55L339.52,226.95 M340.04,284.57L339.17,280.49 M339.17,280.49L339.51,285.08 M341.73,267.94L342.94,256.01 M323.71,258.54L330.03,258.09 M328.47,234.75L328.49,240.75 M339.67,282.74L347.88,282.75 M347.88,229.27L339.67,229.28 M339.30,230.52L347.85,230.50 M360.30,252.14L349.90,251.83 M349.89,260.15L360.29,259.90 M349.82,259.90L360.16,259.35 M332.89,278.53L345.24,278.56 M316.40,222.71L316.37,222.59 M341.61,279.31L341.65,278.70 M341.61,232.70L341.65,233.32 M333.73,257.60L334.03,257.73 M347.20,271.75L347.09,274.92 M346.69,257.17L347.07,256.53 M346.09,257.30L345.60,256.49 M347.10,237.18L347.20,240.26 M346.69,254.84L347.07,255.49 M346.09,254.72L345.60,255.54 M353.97,286.50L354.69,286.41 M353.98,225.56L354.70,225.59 M354.79,244.85L365.27,245.13 M314.65,277.96L314.76,278.22 M316.09,278.44L315.93,277.86 M315.91,277.83L315.44,279.01 M317.81,278.20L317.87,277.93 M319.31,278.77L319.14,277.87 M318.57,279.06L318.02,279.16 M320.94,278.50L320.94,278.08 M322.37,278.28L322.32,277.87 M321.77,279.10L321.20,279.16 M314.67,234.09L314.74,233.82 M314.60,234.03L315.11,233.04 M317.78,233.98L317.83,233.85 M319.31,233.18L319.28,233.95 M321.10,234.18L320.99,233.87 M322.55,233.37L322.47,233.94 M321.74,232.99L322.60,233.89 M328.76,277.95L328.16,279.01 M325.76,278.06L325.08,279.09 M317.38,270.44L331.02,268.54 M362.27,274.11L371.20,273.28 M348.62,279.45L344.02,275.44 M339.90,243.47L331.72,242.13 M331.72,269.82L339.76,269.34 M333.50,256.01L353.40,254.87 M333.54,254.97L353.31,254.86 M333.68,255.16L348.58,255.40 M348.58,255.40L333.43,254.93 M354.52,255.97L331.97,255.09 M316.09,257.63L344.26,258.38 M344.26,258.38L316.25,257.95 M344.29,258.26L316.08,257.63 M316.21,254.04L344.36,253.89 M334.85,243.53L335.07,249.24 M313.35,236.23L313.06,243.12 M307.38,248.03L314.06,247.70 M307.38,248.03L314.76,247.72 M307.38,248.03L315.43,247.70 M307.38,248.03L316.22,247.65 M327.07,247.96L317.62,247.70 M327.07,247.96L318.28,247.84 M327.07,247.96L321.08,247.74 M308.46,248.08L314.19,248.00 M314.38,249.11L308.48,248.33 M315.33,247.89L320.96,247.59 M329.99,247.94L329.25,236.30 M326.55,243.63L312.78,243.72 M312.92,242.99L313.36,236.23 M307.38,248.01L314.00,247.64 M307.38,248.01L314.83,247.76 M307.38,248.01L315.36,247.66 M327.11,247.99L318.13,247.64 M327.11,247.99L319.13,247.82 M327.11,247.99L319.50,247.65 M327.11,247.99L320.53,247.79 M327.11,247.99L321.09,247.74 M327.71,248.77L321.86,248.04 M327.71,248.77L321.98,248.62 M306.12,247.54L328.46,248.42 M321.16,247.28L315.49,248.07 M328.21,248.07L321.80,248.00 M307.63,249.31L313.78,249.49 M317.49,235.64L329.88,234.83 M317.52,248.91L329.82,247.95 M317.52,247.80L304.98,247.70 M311.84,236.47L312.04,243.08 M311.85,244.47L311.84,236.47 M326.44,247.56L320.35,247.89 M326.44,247.56L319.61,247.71 M326.44,247.56L318.95,247.85 M326.44,247.56L318.19,247.62 M326.44,247.56L317.59,247.84 M326.44,247.56L316.92,247.63 M326.44,247.56L316.27,247.88 M306.63,247.87L315.43,247.70 M306.63,247.87L314.73,247.77 M306.63,247.87L314.06,247.70 M306.63,247.87L313.46,247.84 M306.63,247.87L312.58,247.63 M306.72,245.22L315.60,246.45 M306.72,245.22L314.76,246.33 M306.72,245.22L314.23,246.45 M306.72,245.22L313.39,246.33 M306.72,245.22L312.85,246.45 M326.90,248.52L321.12,248.10 M305.31,247.54L327.74,248.42 M306.20,241.50L306.06,247.15 M317.71,248.76L305.03,247.92 M312.66,236.23L312.23,243.02 M311.39,235.16L311.72,242.63 M312.85,248.10L306.73,247.98 M306.73,247.98L314.13,247.74 M306.73,247.98L314.68,247.66 M326.40,247.97L317.03,247.87 M326.40,247.97L317.46,247.65 M326.40,247.97L318.43,247.82 M326.40,247.97L318.81,247.65 M326.40,247.97L319.82,247.79 M321.18,248.16L326.98,248.82 M337.67,249.81L336.94,235.46 M337.20,235.40L336.71,249.88 M334.78,241.10L334.78,248.88 M308.32,236.78L314.44,235.79 M314.44,235.79L308.70,236.21 M327.56,235.33L321.93,235.86 M308.35,236.06L314.24,235.57 M327.91,236.06L321.77,236.40 M317.83,249.50L330.54,249.78 M318.15,235.41L330.36,236.41 M310.27,236.42L307.17,247.51 M312.88,241.25L313.27,248.08 M313.39,236.59L307.32,236.49 M307.32,236.49L313.99,236.61 M307.32,236.49L314.69,236.60 M307.32,236.49L315.36,236.62 M307.32,236.49L316.18,236.61 M307.32,236.49L316.87,236.45 M316.87,236.45L327.01,236.33 M327.01,236.33L317.55,236.61 M327.01,236.33L318.21,236.55 M327.01,236.33L319.51,236.63 M327.01,236.33L320.27,236.61 M327.01,236.33L320.92,236.31 M326.97,239.03L319.49,237.87 M326.97,239.03L318.88,237.75 M326.97,239.03L320.14,237.73 M326.97,239.03L320.90,237.89 M328.47,248.73L305.82,249.61 M306.17,242.61L306.82,236.98 M315.37,235.87L320.97,236.51 M314.37,234.52L308.50,234.45 M308.57,235.54L314.26,235.57 M318.18,236.43L330.53,236.23 M318.18,236.43L330.72,236.46 M329.76,247.69L330.36,236.41 M313.28,248.08L312.86,241.29 M317.70,236.50L327.01,236.36 M327.01,236.36L318.25,236.46 M327.01,236.36L319.42,236.63 M327.01,236.36L320.45,236.53 M327.01,236.36L321.02,236.58 M307.34,236.44L313.57,236.50 M321.80,236.33L327.61,235.50 M306.79,242.94L306.30,236.97 M310.76,247.71L311.02,239.86 M311.02,239.86L311.50,247.61 M325.58,240.41L312.10,241.26 M312.59,248.05L312.10,241.26 M306.61,236.29L312.50,236.68 M306.61,236.29L313.38,236.48 M306.61,236.29L313.99,236.61 M306.61,236.29L314.66,236.54 M306.61,236.29L315.36,236.62 M316.18,236.45L326.30,236.35 M326.30,236.35L320.25,236.48 M326.30,236.35L319.51,236.63 M326.30,236.35L318.90,236.55 M326.30,236.35L317.61,236.80 M326.30,236.35L316.72,236.67 M326.26,239.12L317.33,237.88 M306.64,239.10L312.76,237.87 M306.64,239.10L313.32,237.97 M308.33,246.96L307.46,240.04 M327.01,235.50L321.20,235.69 M327.01,235.50L321.20,236.16 M321.05,237.03L327.01,235.50 M317.45,236.49L304.86,236.45 M317.45,235.42L330.08,236.50 M312.15,241.33L312.59,248.08 M314.76,236.48L306.64,236.31 M315.62,236.50L306.64,236.31 M306.64,236.31L314.23,236.56 M306.64,236.31L313.39,236.46 M326.41,236.43L317.49,236.60 M326.41,236.43L318.36,236.50 M326.41,236.43L318.76,236.65 M326.41,236.43L319.76,236.53 M326.80,235.80L321.09,236.27 M305.29,236.72L327.69,235.90 M327.44,236.25L321.03,236.38 M328.49,248.05L329.60,236.48 M329.60,236.48L328.01,247.81 M325.65,261.67L339.68,262.19 M340.23,260.70L340.04,261.12 M337.77,273.19L338.10,263.03 M310.84,275.38L311.10,267.55 M311.25,275.53L311.84,267.51 M312.67,275.73L312.14,268.93 M326.37,264.04L320.38,264.22 M326.37,264.04L319.60,264.29 M326.37,264.04L318.95,264.16 M326.37,264.04L318.19,264.38 M326.37,264.04L317.59,264.33 M326.37,264.04L316.82,264.34 M306.67,263.97L315.44,264.38 M306.67,263.97L314.74,264.22 M306.67,263.97L314.08,264.29 M306.67,263.97L313.46,264.17 M306.67,263.97L312.61,264.37 M315.55,265.55L306.71,266.79 M306.71,266.79L314.74,265.66 M306.71,266.79L314.23,265.55 M306.71,266.79L313.39,265.67 M306.71,266.79L312.83,265.55 M326.33,266.81L318.32,265.50 M326.33,266.81L318.84,265.56 M314.63,264.48L320.45,264.73 M311.37,269.00L311.61,275.78 M312.84,263.90L306.68,264.00 M306.68,264.00L313.49,264.17 M306.68,264.00L314.10,264.16 M306.68,264.00L314.65,264.31 M326.45,264.04L317.43,264.36 M326.45,264.04L318.43,264.18 M326.45,264.04L318.80,264.35 M326.45,264.04L319.83,264.21 M326.89,263.23L321.14,264.00 M313.83,263.43L307.77,263.77 M305.42,264.46L327.76,263.58 M328.18,264.15L318.30,264.69 M329.76,275.31L329.49,263.94 M314.48,262.13L308.60,262.11 M318.34,277.21L330.62,277.59 M318.24,263.10L330.81,264.18 M329.31,275.54L330.07,264.20 M330.07,264.20L328.72,275.47 M326.43,268.30L313.00,268.02 M315.52,264.16L307.39,263.95 M316.22,264.27L307.39,263.95 M307.39,263.95L314.08,264.29 M307.39,263.95L313.46,264.28 M327.07,264.02L317.62,264.30 M327.07,264.02L318.28,264.16 M327.07,264.02L321.08,264.26 M312.41,269.37L312.24,276.83 M327.98,263.25L321.99,263.83 M305.97,264.36L328.51,263.41 M308.57,262.14L314.44,262.21 M308.66,263.26L314.50,263.44 M318.34,277.21L305.87,277.45 M318.41,264.20L330.74,264.34 M306.36,276.06L306.03,264.98 M313.36,275.77L312.78,269.10 M312.07,276.81L312.78,269.10 M318.28,264.16L327.09,264.03 M327.09,264.03L319.54,264.33 M327.09,264.03L317.75,264.18 M327.09,264.03L321.02,264.16 M307.38,263.99L315.36,264.35 M307.38,263.99L314.83,264.26 M307.38,263.99L314.00,264.36 M307.38,263.99L313.63,264.18 M321.82,263.91L327.68,263.18 M306.05,264.65L328.46,263.58 M306.86,270.63L306.36,264.65 M337.23,274.50L336.92,262.75 M337.88,276.29L337.79,262.33 M327.40,275.55L320.99,274.99 M327.95,264.32L329.21,275.47 M328.50,264.01L329.21,275.47 M325.72,271.02L312.00,271.41 M311.99,270.62L312.50,263.99 M312.74,275.43L306.62,275.62 M306.62,275.62L313.65,275.45 M316.17,275.55L326.33,275.64 M316.86,275.39L326.33,275.64 M326.33,275.64L317.44,275.38 M326.33,275.64L318.23,275.42 M326.33,275.64L318.81,275.38 M326.33,275.64L319.53,275.38 M326.33,275.64L320.23,275.67 M319.56,274.25L326.28,272.98 M326.28,272.98L320.20,274.10 M326.28,272.98L318.79,274.13 M326.28,272.98L318.22,274.26 M328.14,265.18L328.27,272.66 M327.35,276.27L321.42,276.48 M317.74,262.46L305.09,262.24 M317.49,276.59L305.19,275.63 M329.44,275.68L328.49,264.00 M329.05,264.32L329.44,275.68 M312.59,263.92L312.16,270.71 M315.62,275.50L306.63,275.68 M314.76,275.68L306.63,275.68 M306.63,275.68L314.24,275.41 M306.63,275.68L313.43,275.55 M306.63,275.68L312.87,275.50 M326.45,275.43L316.99,275.50 M326.45,275.43L317.55,275.54 M326.45,275.43L318.39,275.48 M326.45,275.43L318.89,275.53 M326.45,275.43L319.75,275.50 M321.14,275.88L326.87,276.39 M314.62,276.29L320.26,276.27 M311.46,264.30L311.81,272.24 M312.50,263.99L312.90,272.17 M312.90,272.17L311.93,263.96 M313.28,263.92L312.86,270.95 M307.31,275.72L313.56,275.50 M307.31,275.72L313.95,275.34 M307.31,275.72L315.47,275.45 M307.31,275.72L316.03,275.33 M327.00,275.65L320.95,275.53 M327.00,275.65L320.16,275.32 M327.00,275.65L319.54,275.38 M327.00,275.65L318.81,275.38 M327.00,275.65L318.23,275.42 M327.00,275.65L317.44,275.38 M310.14,269.58L309.96,264.04 M314.31,276.79L308.41,276.02 M305.89,275.84L318.19,275.52 M318.15,276.58L330.79,275.65 M318.19,275.52L317.73,264.36 M312.91,271.46L326.48,271.31 M312.85,270.68L313.28,263.92 M315.46,275.52L307.35,275.73 M316.32,275.50L307.35,275.73 M307.35,275.73L314.93,275.45 M307.35,275.73L314.09,275.54 M307.35,275.73L313.57,275.50 M327.04,275.67L317.69,275.50 M327.04,275.67L318.19,275.33 M327.04,275.67L319.06,275.50 M327.04,275.67L319.46,275.35 M327.04,275.67L320.46,275.47 M327.04,275.67L321.02,275.42 M312.35,270.32L311.99,262.98 M327.50,276.19L321.89,275.86 M321.13,275.04L315.41,275.72 M321.89,275.86L327.51,276.59 M321.89,275.86L327.50,276.19 M318.19,275.56L330.68,275.28 M209.76,243.90L228.81,243.77 M209.76,268.14L228.81,268.38 M306.50,283.84L296.32,283.63" stroke="currentColor" stroke-width="0.6" stroke-linecap="round" fill="none" opacity="0.55" clip-path="url(#hull-clip)" filter="url(#glow)" />
  <path d="M 313.25,295.50 C 313.09,295.51 312.91,295.51 312.75,295.50 C 312.59,295.49 312.44,295.47 312.30,295.44 C 312.15,295.41 312.02,295.36 311.89,295.31 C 311.76,295.26 311.64,295.20 311.53,295.12 C 311.42,295.05 311.32,294.97 311.22,294.88 C 311.12,294.78 311.03,294.68 310.95,294.56 C 310.87,294.45 310.80,294.32 310.73,294.19 C 310.67,294.05 310.61,293.91 310.56,293.75 C 310.51,293.59 310.49,293.40 310.44,293.25 C 310.39,293.10 310.33,292.98 310.27,292.88 C 310.20,292.77 310.13,292.69 310.05,292.62 C 309.97,292.56 309.88,292.52 309.78,292.50 C 309.68,292.48 309.58,292.48 309.47,292.50 C 309.36,292.52 309.24,292.56 309.11,292.62 C 308.98,292.69 308.85,292.77 308.70,292.88 C 308.56,292.98 308.41,293.10 308.25,293.25 C 308.09,293.40 307.96,293.59 307.75,293.75 C 307.54,293.91 307.29,294.05 307.00,294.19 C 306.71,294.32 306.38,294.45 306.00,294.56 C 305.62,294.68 305.21,294.78 304.75,294.88 C 304.29,294.97 303.79,295.05 303.25,295.12 C 302.71,295.20 302.12,295.26 301.50,295.31 C 300.88,295.36 300.21,295.41 299.50,295.44 C 298.79,295.47 298.04,295.49 297.25,295.50 C 296.46,295.51 295.55,295.52 294.75,295.50 C 293.95,295.48 293.18,295.45 292.44,295.41 C 291.70,295.36 290.99,295.30 290.31,295.22 C 289.64,295.14 288.99,295.05 288.38,294.94 C 287.76,294.83 287.18,294.70 286.62,294.56 C 286.07,294.42 285.55,294.27 285.06,294.09 C 284.57,293.92 284.11,293.73 283.69,293.53 C 283.26,293.33 282.86,293.11 282.50,292.88 C 282.14,292.64 281.87,292.36 281.50,292.12 C 281.13,291.89 280.73,291.67 280.30,291.47 C 279.86,291.27 279.39,291.08 278.89,290.91 C 278.39,290.73 277.85,290.58 277.28,290.44 C 276.71,290.30 276.11,290.17 275.47,290.06 C 274.83,289.95 274.16,289.86 273.45,289.78 C 272.75,289.70 272.01,289.64 271.23,289.59 C 270.46,289.55 269.65,289.52 268.81,289.50 C 267.97,289.48 267.08,289.51 266.19,289.50 C 265.30,289.49 264.40,289.48 263.48,289.45 C 262.57,289.43 261.64,289.40 260.70,289.36 C 259.76,289.32 258.81,289.27 257.84,289.22 C 256.88,289.16 255.90,289.10 254.91,289.03 C 253.91,288.96 252.91,288.88 251.89,288.80 C 250.87,288.71 249.84,288.62 248.80,288.52 C 247.75,288.41 246.70,288.30 245.62,288.19 C 244.55,288.07 243.40,287.92 242.38,287.81 C 241.35,287.71 240.38,287.62 239.47,287.55 C 238.56,287.48 237.70,287.42 236.91,287.39 C 236.11,287.36 235.37,287.34 234.69,287.34 C 234.01,287.35 233.38,287.37 232.81,287.41 C 232.24,287.45 231.73,287.50 231.28,287.58 C 230.83,287.65 230.43,287.75 230.09,287.86 C 229.76,287.97 229.47,288.10 229.25,288.25 C 229.03,288.40 228.95,288.59 228.75,288.75 C 228.55,288.91 228.32,289.05 228.05,289.19 C 227.78,289.32 227.48,289.45 227.14,289.56 C 226.80,289.68 226.43,289.78 226.03,289.88 C 225.63,289.97 225.19,290.05 224.72,290.12 C 224.25,290.20 223.74,290.26 223.20,290.31 C 222.66,290.36 222.09,290.41 221.48,290.44 C 220.88,290.47 220.24,290.49 219.56,290.50 C 218.89,290.51 218.12,290.52 217.44,290.50 C 216.75,290.48 216.09,290.43 215.45,290.36 C 214.82,290.29 214.20,290.20 213.61,290.08 C 213.02,289.96 212.45,289.82 211.91,289.66 C 211.36,289.49 210.84,289.30 210.34,289.09 C 209.85,288.88 209.37,288.65 208.92,288.39 C 208.47,288.13 208.04,287.85 207.64,287.55 C 207.24,287.24 206.86,286.91 206.50,286.56 C 206.14,286.21 205.84,285.79 205.50,285.44 C 205.16,285.08 204.83,284.74 204.48,284.42 C 204.14,284.10 203.80,283.80 203.45,283.52 C 203.11,283.23 202.76,282.97 202.41,282.72 C 202.05,282.47 201.70,282.24 201.34,282.03 C 200.99,281.82 200.63,281.63 200.27,281.45 C 199.90,281.28 199.54,281.12 199.17,280.98 C 198.80,280.85 198.43,280.73 198.06,280.62 C 197.69,280.52 197.30,280.47 196.94,280.38 C 196.58,280.28 196.23,280.18 195.91,280.08 C 195.58,279.97 195.27,279.86 194.97,279.73 C 194.67,279.61 194.39,279.48 194.12,279.34 C 193.86,279.21 193.61,279.06 193.38,278.91 C 193.14,278.75 192.92,278.59 192.72,278.42 C 192.52,278.25 192.33,278.08 192.16,277.89 C 191.98,277.71 191.83,277.51 191.69,277.31 C 191.55,277.11 191.48,276.90 191.31,276.69 C 191.15,276.48 190.95,276.26 190.70,276.05 C 190.46,275.83 190.18,275.61 189.86,275.39 C 189.54,275.17 189.18,274.95 188.78,274.72 C 188.38,274.49 187.95,274.26 187.47,274.03 C 186.99,273.80 186.48,273.57 185.92,273.33 C 185.37,273.09 184.77,272.85 184.14,272.61 C 183.51,272.37 182.84,272.12 182.12,271.88 C 181.41,271.63 180.60,271.37 179.88,271.12 C 179.15,270.88 178.46,270.63 177.79,270.38 C 177.12,270.14 176.48,269.89 175.87,269.65 C 175.25,269.40 174.67,269.16 174.11,268.92 C 173.55,268.68 173.02,268.44 172.52,268.20 C 172.01,267.96 171.54,267.73 171.09,267.49 C 170.64,267.26 170.21,267.02 169.82,266.79 C 169.43,266.56 169.06,266.32 168.72,266.09 C 168.38,265.86 168.08,265.65 167.78,265.41 C 167.49,265.16 167.21,264.90 166.95,264.62 C 166.68,264.34 166.44,264.04 166.21,263.73 C 165.98,263.41 165.77,263.08 165.58,262.73 C 165.38,262.39 165.21,262.02 165.05,261.64 C 164.89,261.26 164.74,260.86 164.62,260.45 C 164.49,260.03 164.38,259.60 164.29,259.15 C 164.20,258.70 164.12,258.23 164.06,257.75 C 164.00,257.27 163.97,256.73 163.94,256.25 C 163.91,255.77 163.89,255.30 163.88,254.85 C 163.88,254.40 163.88,253.97 163.90,253.55 C 163.92,253.14 163.94,252.74 163.98,252.36 C 164.02,251.98 164.08,251.61 164.14,251.27 C 164.20,250.92 164.28,250.59 164.37,250.27 C 164.45,249.96 164.55,249.66 164.66,249.38 C 164.77,249.10 164.90,248.84 165.03,248.59 C 165.17,248.35 165.27,248.14 165.47,247.91 C 165.67,247.67 165.91,247.42 166.21,247.16 C 166.51,246.91 166.86,246.64 167.26,246.37 C 167.66,246.09 168.11,245.81 168.61,245.52 C 169.11,245.22 169.66,244.92 170.27,244.61 C 170.87,244.30 171.52,243.98 172.23,243.65 C 172.93,243.32 173.69,242.98 174.49,242.63 C 175.30,242.29 176.15,241.93 177.06,241.56 C 177.97,241.20 179.03,240.80 179.94,240.44 C 180.84,240.07 181.70,239.72 182.50,239.38 C 183.30,239.03 184.05,238.70 184.75,238.38 C 185.45,238.05 186.09,237.74 186.69,237.44 C 187.28,237.14 187.82,236.84 188.31,236.56 C 188.80,236.28 189.24,236.01 189.62,235.75 C 190.01,235.49 190.34,235.24 190.62,235.00 C 190.91,234.76 191.14,234.53 191.31,234.31 C 191.49,234.09 191.55,233.89 191.69,233.69 C 191.83,233.49 191.98,233.29 192.16,233.11 C 192.33,232.92 192.52,232.75 192.72,232.58 C 192.92,232.41 193.14,232.25 193.38,232.09 C 193.61,231.94 193.86,231.79 194.12,231.66 C 194.39,231.52 194.67,231.39 194.97,231.27 C 195.27,231.14 195.58,231.03 195.91,230.92 C 196.23,230.82 196.58,230.72 196.94,230.62 C 197.30,230.53 197.69,230.48 198.06,230.38 C 198.43,230.27 198.80,230.15 199.17,230.02 C 199.54,229.88 199.90,229.72 200.27,229.55 C 200.63,229.37 200.99,229.18 201.34,228.97 C 201.70,228.76 202.05,228.53 202.41,228.28 C 202.76,228.03 203.11,227.77 203.45,227.48 C 203.80,227.20 204.14,226.90 204.48,226.58 C 204.83,226.26 205.16,225.92 205.50,225.56 C 205.84,225.21 206.14,224.79 206.50,224.44 C 206.86,224.09 207.24,223.76 207.64,223.45 C 208.04,223.15 208.47,222.87 208.92,222.61 C 209.37,222.35 209.85,222.12 210.34,221.91 C 210.84,221.70 211.36,221.51 211.91,221.34 C 212.45,221.18 213.02,221.04 213.61,220.92 C 214.20,220.80 214.82,220.71 215.45,220.64 C 216.09,220.57 216.75,220.52 217.44,220.50 C 218.12,220.48 218.89,220.49 219.56,220.50 C 220.24,220.51 220.88,220.53 221.48,220.56 C 222.09,220.59 222.66,220.64 223.20,220.69 C 223.74,220.74 224.25,220.80 224.72,220.88 C 225.19,220.95 225.63,221.03 226.03,221.12 C 226.43,221.22 226.80,221.32 227.14,221.44 C 227.48,221.55 227.78,221.68 228.05,221.81 C 228.32,221.95 228.55,222.09 228.75,222.25 C 228.95,222.41 229.05,222.60 229.25,222.75 C 229.45,222.90 229.69,223.04 229.97,223.16 C 230.24,223.28 230.56,223.38 230.91,223.47 C 231.26,223.56 231.64,223.63 232.06,223.69 C 232.48,223.74 232.94,223.79 233.44,223.81 C 233.93,223.84 234.46,223.85 235.03,223.84 C 235.60,223.84 236.20,223.82 236.84,223.78 C 237.48,223.74 238.16,223.69 238.88,223.62 C 239.59,223.56 240.35,223.45 241.12,223.38 C 241.90,223.30 242.70,223.22 243.52,223.16 C 244.34,223.09 245.18,223.03 246.05,222.97 C 246.91,222.91 247.80,222.86 248.72,222.81 C 249.63,222.77 250.57,222.72 251.53,222.69 C 252.49,222.65 253.48,222.62 254.48,222.59 C 255.49,222.57 256.52,222.55 257.58,222.53 C 258.63,222.52 259.71,222.51 260.81,222.50 C 261.91,222.49 263.10,222.52 264.19,222.50 C 265.27,222.48 266.31,222.45 267.31,222.39 C 268.31,222.34 269.27,222.26 270.19,222.17 C 271.10,222.08 271.98,221.97 272.81,221.84 C 273.65,221.72 274.44,221.57 275.19,221.41 C 275.94,221.24 276.65,221.06 277.31,220.86 C 277.98,220.66 278.60,220.44 279.19,220.20 C 279.77,219.97 280.31,219.71 280.81,219.44 C 281.31,219.16 281.71,218.84 282.19,218.56 C 282.67,218.29 283.17,218.03 283.69,217.80 C 284.21,217.56 284.75,217.34 285.31,217.14 C 285.88,216.94 286.46,216.76 287.06,216.59 C 287.67,216.43 288.29,216.28 288.94,216.16 C 289.58,216.03 290.25,215.92 290.94,215.83 C 291.62,215.74 292.33,215.66 293.06,215.61 C 293.79,215.55 294.54,215.52 295.31,215.50 C 296.08,215.48 296.94,215.49 297.69,215.50 C 298.44,215.51 299.15,215.53 299.81,215.56 C 300.48,215.59 301.10,215.64 301.69,215.69 C 302.27,215.74 302.81,215.80 303.31,215.88 C 303.81,215.95 304.27,216.03 304.69,216.12 C 305.10,216.22 305.48,216.32 305.81,216.44 C 306.15,216.55 306.44,216.68 306.69,216.81 C 306.94,216.95 307.15,217.09 307.31,217.25 C 307.48,217.41 307.57,217.60 307.69,217.75 C 307.81,217.90 307.93,218.02 308.05,218.12 C 308.16,218.23 308.28,218.31 308.39,218.38 C 308.50,218.44 308.61,218.48 308.72,218.50 C 308.83,218.52 308.93,218.52 309.03,218.50 C 309.13,218.48 309.23,218.44 309.33,218.38 C 309.42,218.31 309.52,218.23 309.61,218.12 C 309.70,218.02 309.79,217.90 309.88,217.75 C 309.96,217.60 310.04,217.41 310.12,217.25 C 310.21,217.09 310.31,216.95 310.41,216.81 C 310.51,216.68 310.61,216.55 310.72,216.44 C 310.83,216.32 310.94,216.22 311.06,216.12 C 311.18,216.03 311.31,215.95 311.44,215.88 C 311.57,215.80 311.70,215.74 311.84,215.69 C 311.98,215.64 312.13,215.59 312.28,215.56 C 312.43,215.53 312.59,215.51 312.75,215.50 C 312.91,215.49 313.09,215.49 313.25,215.50 C 313.41,215.51 313.57,215.53 313.72,215.56 C 313.87,215.59 314.02,215.64 314.16,215.69 C 314.30,215.74 314.43,215.80 314.56,215.88 C 314.69,215.95 314.82,216.03 314.94,216.12 C 315.06,216.22 315.17,216.32 315.28,216.44 C 315.39,216.55 315.49,216.68 315.59,216.81 C 315.69,216.95 315.79,217.09 315.88,217.25 C 315.96,217.41 315.95,217.59 316.12,217.75 C 316.30,217.91 316.58,218.05 316.95,218.19 C 317.33,218.32 317.79,218.45 318.36,218.56 C 318.92,218.68 319.59,218.78 320.34,218.88 C 321.10,218.97 321.96,219.05 322.91,219.12 C 323.86,219.20 324.90,219.26 326.05,219.31 C 327.19,219.36 328.43,219.41 329.77,219.44 C 331.10,219.47 332.53,219.49 334.06,219.50 C 335.59,219.51 337.39,219.49 338.94,219.50 C 340.49,219.51 341.96,219.53 343.36,219.56 C 344.76,219.59 346.08,219.64 347.33,219.69 C 348.58,219.74 349.75,219.80 350.84,219.88 C 351.94,219.95 352.96,220.03 353.91,220.12 C 354.85,220.22 355.72,220.32 356.52,220.44 C 357.31,220.55 358.03,220.68 358.67,220.81 C 359.32,220.95 359.88,221.09 360.38,221.25 C 360.87,221.41 361.23,221.58 361.62,221.75 C 362.02,221.92 362.40,222.08 362.77,222.25 C 363.13,222.42 363.47,222.58 363.80,222.75 C 364.12,222.92 364.43,223.08 364.72,223.25 C 365.01,223.42 365.28,223.58 365.53,223.75 C 365.78,223.92 366.02,224.08 366.23,224.25 C 366.45,224.42 366.65,224.58 366.83,224.75 C 367.01,224.92 367.17,225.08 367.31,225.25 C 367.46,225.42 367.55,225.59 367.69,225.75 C 367.83,225.91 367.98,226.07 368.14,226.22 C 368.30,226.37 368.48,226.52 368.67,226.66 C 368.86,226.80 369.07,226.93 369.28,227.06 C 369.50,227.19 369.73,227.32 369.97,227.44 C 370.21,227.56 370.47,227.67 370.73,227.78 C 371.00,227.89 371.28,227.99 371.58,228.09 C 371.87,228.19 372.18,228.29 372.50,228.38 C 372.82,228.46 373.17,228.53 373.50,228.62 C 373.83,228.72 374.16,228.83 374.48,228.95 C 374.81,229.08 375.13,229.21 375.45,229.36 C 375.77,229.51 376.09,229.67 376.41,229.84 C 376.72,230.02 377.03,230.21 377.34,230.41 C 377.65,230.61 377.96,230.82 378.27,231.05 C 378.57,231.27 378.87,231.51 379.17,231.77 C 379.47,232.02 379.77,232.28 380.06,232.56 C 380.36,232.84 380.65,233.16 380.94,233.44 C 381.22,233.71 381.50,233.98 381.77,234.23 C 382.05,234.48 382.31,234.71 382.57,234.93 C 382.83,235.15 383.08,235.36 383.33,235.55 C 383.57,235.74 383.81,235.92 384.05,236.08 C 384.28,236.24 384.51,236.39 384.73,236.52 C 384.95,236.66 385.16,236.78 385.37,236.88 C 385.57,236.99 385.77,237.08 385.97,237.16 C 386.16,237.23 386.36,237.26 386.53,237.34 C 386.71,237.43 386.87,237.53 387.02,237.65 C 387.18,237.77 387.32,237.91 387.45,238.07 C 387.57,238.23 387.69,238.41 387.80,238.61 C 387.90,238.81 388.00,239.03 388.08,239.27 C 388.16,239.50 388.23,239.76 388.29,240.04 C 388.35,240.32 388.39,240.61 388.43,240.93 C 388.46,241.25 388.49,241.58 388.50,241.94 C 388.51,242.29 388.51,242.71 388.50,243.06 C 388.49,243.42 388.47,243.76 388.44,244.08 C 388.41,244.40 388.36,244.70 388.31,244.98 C 388.26,245.27 388.20,245.53 388.12,245.78 C 388.05,246.03 387.97,246.26 387.88,246.47 C 387.78,246.68 387.68,246.87 387.56,247.05 C 387.45,247.22 387.32,247.38 387.19,247.52 C 387.05,247.65 386.91,247.77 386.75,247.88 C 386.59,247.98 386.41,248.01 386.25,248.12 C 386.09,248.24 385.95,248.38 385.81,248.55 C 385.68,248.72 385.55,248.91 385.44,249.14 C 385.32,249.37 385.22,249.62 385.12,249.91 C 385.03,250.19 384.95,250.50 384.88,250.84 C 384.80,251.18 384.74,251.55 384.69,251.95 C 384.64,252.35 384.59,252.78 384.56,253.23 C 384.53,253.69 384.51,254.17 384.50,254.69 C 384.49,255.20 384.49,255.80 384.50,256.31 C 384.51,256.83 384.53,257.31 384.56,257.77 C 384.59,258.22 384.64,258.65 384.69,259.05 C 384.74,259.45 384.80,259.82 384.88,260.16 C 384.95,260.50 385.03,260.81 385.12,261.09 C 385.22,261.38 385.32,261.63 385.44,261.86 C 385.55,262.09 385.68,262.28 385.81,262.45 C 385.95,262.62 386.09,262.76 386.25,262.88 C 386.41,262.99 386.60,263.02 386.75,263.12 C 386.90,263.23 387.05,263.35 387.18,263.49 C 387.31,263.63 387.43,263.80 387.54,263.98 C 387.65,264.16 387.74,264.36 387.83,264.58 C 387.91,264.80 387.99,265.04 388.05,265.30 C 388.11,265.56 388.16,265.83 388.20,266.13 C 388.23,266.43 388.26,266.75 388.27,267.09 C 388.29,267.42 388.29,267.78 388.28,268.16 C 388.27,268.53 388.25,268.97 388.22,269.34 C 388.19,269.72 388.15,270.07 388.10,270.40 C 388.05,270.73 388.00,271.04 387.93,271.32 C 387.86,271.61 387.79,271.87 387.70,272.11 C 387.62,272.35 387.52,272.57 387.42,272.77 C 387.32,272.96 387.21,273.14 387.09,273.29 C 386.96,273.44 386.83,273.57 386.70,273.68 C 386.56,273.79 386.41,273.87 386.25,273.94 C 386.09,274.00 385.92,274.01 385.75,274.06 C 385.58,274.12 385.39,274.19 385.20,274.28 C 385.01,274.37 384.82,274.47 384.61,274.59 C 384.40,274.71 384.19,274.85 383.97,275.00 C 383.75,275.15 383.52,275.32 383.28,275.50 C 383.04,275.68 382.80,275.88 382.55,276.09 C 382.29,276.31 382.03,276.54 381.77,276.78 C 381.50,277.03 381.22,277.29 380.94,277.56 C 380.65,277.84 380.36,278.16 380.06,278.44 C 379.76,278.72 379.46,278.99 379.14,279.25 C 378.83,279.51 378.50,279.76 378.17,280.00 C 377.84,280.24 377.50,280.47 377.16,280.69 C 376.81,280.91 376.46,281.11 376.09,281.31 C 375.73,281.51 375.36,281.70 374.98,281.88 C 374.61,282.05 374.22,282.22 373.83,282.38 C 373.43,282.53 373.03,282.68 372.62,282.81 C 372.22,282.95 371.77,283.06 371.38,283.19 C 370.98,283.32 370.60,283.45 370.25,283.58 C 369.90,283.71 369.56,283.85 369.25,283.98 C 368.94,284.12 368.65,284.26 368.38,284.41 C 368.10,284.55 367.85,284.70 367.62,284.84 C 367.40,284.99 367.19,285.14 367.00,285.30 C 366.81,285.45 366.65,285.61 366.50,285.77 C 366.35,285.92 366.23,286.09 366.12,286.25 C 366.02,286.41 365.97,286.59 365.88,286.75 C 365.78,286.91 365.67,287.06 365.55,287.20 C 365.42,287.35 365.29,287.48 365.14,287.61 C 364.99,287.74 364.83,287.86 364.66,287.97 C 364.48,288.08 364.29,288.18 364.09,288.28 C 363.89,288.38 363.68,288.47 363.45,288.55 C 363.23,288.63 362.99,288.70 362.73,288.77 C 362.48,288.83 362.22,288.89 361.94,288.94 C 361.66,288.99 361.34,289.02 361.06,289.06 C 360.78,289.11 360.52,289.15 360.27,289.20 C 360.01,289.25 359.77,289.30 359.55,289.36 C 359.32,289.41 359.11,289.47 358.91,289.53 C 358.71,289.59 358.52,289.65 358.34,289.72 C 358.17,289.78 358.01,289.85 357.86,289.92 C 357.71,289.99 357.58,290.07 357.45,290.14 C 357.33,290.22 357.22,290.29 357.12,290.38 C 357.03,290.46 357.05,290.55 356.88,290.62 C 356.70,290.70 356.42,290.78 356.05,290.84 C 355.67,290.91 355.21,290.97 354.64,291.03 C 354.08,291.09 353.41,291.14 352.66,291.19 C 351.90,291.23 351.04,291.28 350.09,291.31 C 349.14,291.35 348.10,291.38 346.95,291.41 C 345.81,291.43 344.57,291.45 343.23,291.47 C 341.90,291.48 340.47,291.49 338.94,291.50 C 337.41,291.51 335.59,291.49 334.06,291.50 C 332.53,291.51 331.10,291.53 329.77,291.56 C 328.43,291.59 327.19,291.64 326.05,291.69 C 324.90,291.74 323.86,291.80 322.91,291.88 C 321.96,291.95 321.10,292.03 320.34,292.12 C 319.59,292.22 318.92,292.32 318.36,292.44 C 317.79,292.55 317.33,292.68 316.95,292.81 C 316.58,292.95 316.30,293.09 316.12,293.25 C 315.95,293.41 315.96,293.59 315.88,293.75 C 315.79,293.91 315.69,294.05 315.59,294.19 C 315.49,294.32 315.39,294.45 315.28,294.56 C 315.17,294.68 315.06,294.78 314.94,294.88 C 314.82,294.97 314.69,295.05 314.56,295.12 C 314.43,295.20 314.30,295.26 314.16,295.31 C 314.02,295.36 313.87,295.41 313.72,295.44 C 313.57,295.47 313.41,295.49 313.25,295.50 Z" fill="none" stroke="currentColor" stroke-width="1.5" stroke-linejoin="round" stroke-linecap="round" filter="url(#glow)" />
</svg>