<svg xmlns="http://www.w3.org/2000/svg" width="512" height="512" viewBox="49.90 221.90 165.64 67.20" preserveAspectRatio="xMidYMid meet">
  <defs>
    <filter id="glow" x="-30%" y="-30%" width="160%" height="160%">
      <feGaussianBlur in="SourceGraphic" stdDeviation="2.4" result="blur" />
      <feMerge>
        <feMergeNode in="blur" />
        <feMergeNode in="SourceGraphic" />
      </feMerge>
    </filter>
    <clipPath id="hull-clip">
      <path d="M 158.75,283.50 C 158.25,283.52 157.72,283.50 157.25,283.50 C 156.78,283.50 156.33,283.49 155.91,283.48 C 155.50,283.46 155.11,283.45 154.74,283.43 C 154.38,283.41 154.04,283.39 153.73,283.36 C 153.43,283.33 153.14,283.30 152.89,283.27 C 152.64,283.23 152.41,283.19 152.21,283.15 C 152.01,283.11 151.84,283.06 151.70,283.01 C 151.55,282.96 151.43,282.90 151.34,282.84 C 151.25,282.79 151.21,282.72 151.16,282.66 C 151.11,282.59 151.07,282.52 151.04,282.45 C 151.01,282.37 151.00,282.29 150.99,282.21 C 150.99,282.13 151.00,282.04 151.02,281.95 C 151.04,281.86 151.07,281.77 151.11,281.67 C 151.15,281.57 151.21,281.47 151.27,281.37 C 151.34,281.26 151.42,281.15 151.51,281.04 C 151.60,280.93 151.70,280.81 151.81,280.69 C 151.93,280.57 152.08,280.43 152.19,280.31 C 152.29,280.19 152.38,280.07 152.45,279.95 C 152.52,279.84 152.58,279.72 152.61,279.61 C 152.64,279.50 152.66,279.39 152.66,279.28 C 152.65,279.17 152.63,279.07 152.59,278.97 C 152.55,278.87 152.50,278.77 152.42,278.67 C 152.35,278.58 152.25,278.48 152.14,278.39 C 152.03,278.30 151.90,278.21 151.75,278.12 C 151.60,278.04 151.41,277.96 151.25,277.88 C 151.09,277.79 150.95,277.70 150.81,277.61 C 150.68,277.52 150.55,277.42 150.44,277.33 C 150.32,277.23 150.22,277.13 150.12,277.03 C 150.03,276.93 149.95,276.83 149.88,276.72 C 149.80,276.61 149.74,276.50 149.69,276.39 C 149.64,276.28 149.59,276.16 149.56,276.05 C 149.53,275.93 149.51,275.81 149.50,275.69 C 149.49,275.57 149.49,275.44 149.50,275.31 C 149.51,275.19 149.53,275.06 149.55,274.93 C 149.58,274.80 149.62,274.67 149.66,274.54 C 149.71,274.41 149.76,274.27 149.83,274.14 C 149.89,274.01 149.96,273.87 150.05,273.73 C 150.13,273.60 150.22,273.46 150.32,273.32 C 150.42,273.18 150.53,273.04 150.65,272.90 C 150.77,272.76 150.89,272.61 151.03,272.47 C 151.17,272.32 151.36,272.17 151.47,272.03 C 151.58,271.90 151.66,271.77 151.71,271.66 C 151.76,271.55 151.77,271.45 151.76,271.37 C 151.74,271.28 151.69,271.20 151.61,271.14 C 151.53,271.08 151.41,271.02 151.27,270.98 C 151.12,270.94 150.94,270.92 150.73,270.90 C 150.51,270.88 150.27,270.88 149.99,270.88 C 149.71,270.89 149.40,270.91 149.06,270.94 C 148.72,270.97 148.30,271.01 147.94,271.06 C 147.57,271.12 147.22,271.18 146.88,271.27 C 146.53,271.35 146.20,271.44 145.88,271.55 C 145.55,271.65 145.24,271.77 144.94,271.91 C 144.64,272.04 144.34,272.18 144.06,272.34 C 143.78,272.50 143.51,272.67 143.25,272.86 C 142.99,273.04 142.74,273.24 142.50,273.45 C 142.26,273.66 142.03,273.89 141.81,274.12 C 141.59,274.36 141.43,274.63 141.19,274.88 C 140.95,275.12 140.68,275.36 140.38,275.59 C 140.07,275.83 139.74,276.06 139.38,276.28 C 139.01,276.51 138.61,276.72 138.19,276.94 C 137.76,277.15 137.30,277.36 136.81,277.56 C 136.32,277.77 135.80,277.96 135.25,278.16 C 134.70,278.35 134.11,278.54 133.50,278.72 C 132.89,278.90 132.24,279.08 131.56,279.25 C 130.89,279.42 130.14,279.59 129.44,279.75 C 128.73,279.91 128.04,280.05 127.34,280.19 C 126.65,280.32 125.96,280.45 125.28,280.56 C 124.60,280.68 123.92,280.78 123.25,280.88 C 122.58,280.97 121.91,281.05 121.25,281.12 C 120.59,281.20 119.93,281.26 119.28,281.31 C 118.63,281.36 117.98,281.41 117.34,281.44 C 116.70,281.47 116.07,281.49 115.44,281.50 C 114.81,281.51 114.17,281.51 113.56,281.50 C 112.96,281.49 112.37,281.46 111.80,281.43 C 111.24,281.39 110.69,281.35 110.16,281.29 C 109.64,281.23 109.13,281.16 108.64,281.08 C 108.15,281.00 107.68,280.90 107.23,280.80 C 106.79,280.69 106.36,280.57 105.95,280.45 C 105.54,280.32 105.14,280.18 104.77,280.02 C 104.40,279.87 104.05,279.71 103.72,279.53 C 103.39,279.36 103.08,279.15 102.78,278.97 C 102.49,278.79 102.21,278.61 101.95,278.45 C 101.68,278.28 101.44,278.12 101.21,277.96 C 100.98,277.81 100.77,277.66 100.58,277.52 C 100.38,277.37 100.21,277.24 100.05,277.11 C 99.89,276.98 99.74,276.86 99.62,276.74 C 99.49,276.63 99.38,276.52 99.29,276.41 C 99.20,276.31 99.12,276.21 99.06,276.12 C 99.00,276.04 98.97,275.96 98.94,275.88 C 98.90,275.79 98.88,275.70 98.86,275.61 C 98.84,275.52 98.83,275.42 98.83,275.33 C 98.83,275.23 98.83,275.13 98.84,275.03 C 98.86,274.93 98.88,274.83 98.91,274.72 C 98.93,274.61 98.97,274.50 99.02,274.39 C 99.06,274.28 99.11,274.16 99.17,274.05 C 99.23,273.93 99.30,273.81 99.38,273.69 C 99.45,273.57 99.55,273.43 99.62,273.31 C 99.70,273.19 99.76,273.07 99.82,272.96 C 99.88,272.85 99.92,272.74 99.96,272.63 C 100.00,272.53 100.03,272.43 100.05,272.33 C 100.07,272.23 100.08,272.14 100.08,272.05 C 100.08,271.96 100.07,271.87 100.05,271.79 C 100.04,271.71 100.01,271.63 99.98,271.55 C 99.94,271.48 99.90,271.41 99.84,271.34 C 99.79,271.28 99.72,271.20 99.66,271.16 C 99.59,271.11 99.52,271.08 99.45,271.07 C 99.37,271.06 99.29,271.06 99.21,271.09 C 99.13,271.11 99.04,271.15 98.95,271.20 C 98.86,271.26 98.77,271.33 98.67,271.42 C 98.57,271.51 98.47,271.62 98.37,271.74 C 98.26,271.87 98.15,272.01 98.04,272.16 C 97.93,272.32 97.81,272.50 97.69,272.69 C 97.57,272.88 97.48,273.12 97.31,273.31 C 97.15,273.51 96.95,273.69 96.70,273.86 C 96.46,274.03 96.18,274.18 95.86,274.33 C 95.54,274.47 95.18,274.60 94.78,274.72 C 94.38,274.84 93.95,274.94 93.47,275.03 C 92.99,275.12 92.48,275.20 91.92,275.27 C 91.37,275.33 90.77,275.38 90.14,275.42 C 89.51,275.46 88.84,275.49 88.12,275.50 C 87.41,275.51 86.58,275.51 85.88,275.50 C 85.17,275.49 84.50,275.48 83.87,275.46 C 83.24,275.44 82.65,275.42 82.10,275.38 C 81.55,275.35 81.05,275.31 80.58,275.27 C 80.11,275.22 79.68,275.17 79.30,275.11 C 78.91,275.05 78.56,274.99 78.26,274.91 C 77.95,274.84 77.69,274.76 77.46,274.68 C 77.24,274.60 77.05,274.50 76.91,274.41 C 76.76,274.31 76.69,274.20 76.59,274.09 C 76.50,273.99 76.41,273.88 76.34,273.77 C 76.26,273.67 76.19,273.56 76.13,273.45 C 76.07,273.33 76.02,273.22 75.98,273.11 C 75.94,273.00 75.91,272.88 75.89,272.77 C 75.87,272.65 75.86,272.53 75.85,272.41 C 75.85,272.30 75.85,272.18 75.87,272.05 C 75.88,271.93 75.90,271.81 75.94,271.69 C 75.97,271.56 76.03,271.44 76.06,271.31 C 76.09,271.19 76.11,271.06 76.12,270.93 C 76.12,270.80 76.12,270.67 76.10,270.54 C 76.08,270.41 76.06,270.27 76.02,270.14 C 75.98,270.01 75.92,269.87 75.86,269.73 C 75.80,269.60 75.72,269.46 75.63,269.32 C 75.55,269.18 75.45,269.04 75.34,268.90 C 75.23,268.76 75.10,268.61 74.97,268.47 C 74.83,268.32 74.68,268.17 74.53,268.03 C 74.39,267.89 74.24,267.76 74.09,267.64 C 73.95,267.52 73.80,267.40 73.66,267.30 C 73.51,267.19 73.36,267.09 73.22,267.00 C 73.07,266.91 72.93,266.83 72.78,266.75 C 72.64,266.67 72.49,266.61 72.34,266.55 C 72.20,266.49 72.05,266.43 71.91,266.39 C 71.76,266.35 71.61,266.31 71.47,266.28 C 71.32,266.25 71.17,266.26 71.03,266.22 C 70.89,266.17 70.76,266.11 70.64,266.02 C 70.52,265.92 70.40,265.81 70.30,265.67 C 70.19,265.53 70.09,265.37 70.00,265.19 C 69.91,265.00 69.83,264.79 69.75,264.56 C 69.67,264.33 69.61,264.08 69.55,263.80 C 69.49,263.52 69.43,263.22 69.39,262.89 C 69.35,262.57 69.31,262.22 69.28,261.84 C 69.25,261.47 69.25,261.01 69.22,260.66 C 69.19,260.30 69.14,259.98 69.09,259.70 C 69.03,259.41 68.96,259.17 68.88,258.96 C 68.80,258.75 68.71,258.58 68.61,258.45 C 68.51,258.32 68.39,258.23 68.27,258.17 C 68.14,258.12 68.00,258.10 67.85,258.12 C 67.70,258.14 67.54,258.19 67.37,258.29 C 67.19,258.38 67.01,258.52 66.81,258.69 C 66.62,258.86 66.39,259.12 66.19,259.31 C 65.98,259.51 65.78,259.69 65.58,259.86 C 65.38,260.03 65.18,260.18 64.98,260.33 C 64.79,260.47 64.60,260.60 64.41,260.72 C 64.22,260.84 64.03,260.94 63.84,261.03 C 63.66,261.12 63.48,261.20 63.30,261.27 C 63.12,261.33 62.94,261.38 62.77,261.42 C 62.59,261.46 62.42,261.49 62.25,261.50 C 62.08,261.51 61.92,261.51 61.75,261.50 C 61.58,261.49 61.41,261.47 61.24,261.45 C 61.07,261.42 60.90,261.38 60.73,261.34 C 60.55,261.29 60.38,261.24 60.20,261.17 C 60.03,261.11 59.85,261.04 59.67,260.95 C 59.49,260.87 59.31,260.78 59.13,260.68 C 58.95,260.58 58.77,260.47 58.59,260.35 C 58.40,260.23 58.22,260.11 58.03,259.97 C 57.85,259.83 57.64,259.69 57.47,259.53 C 57.29,259.38 57.13,259.21 56.98,259.04 C 56.82,258.87 56.68,258.68 56.55,258.49 C 56.43,258.30 56.31,258.10 56.20,257.89 C 56.10,257.68 56.00,257.46 55.92,257.23 C 55.84,257.01 55.77,256.77 55.71,256.52 C 55.65,256.28 55.61,256.02 55.57,255.76 C 55.54,255.49 55.51,255.22 55.50,254.94 C 55.49,254.65 55.49,254.34 55.50,254.06 C 55.51,253.78 55.52,253.51 55.54,253.26 C 55.56,253.00 55.58,252.76 55.62,252.52 C 55.65,252.29 55.69,252.07 55.73,251.86 C 55.78,251.65 55.83,251.45 55.89,251.27 C 55.95,251.08 56.01,250.90 56.09,250.74 C 56.16,250.58 56.24,250.43 56.32,250.29 C 56.40,250.15 56.50,250.02 56.59,249.91 C 56.69,249.79 56.79,249.69 56.91,249.59 C 57.02,249.50 57.16,249.40 57.30,249.32 C 57.45,249.24 57.61,249.16 57.79,249.09 C 57.96,249.01 58.15,248.95 58.36,248.89 C 58.56,248.83 58.78,248.78 59.02,248.73 C 59.25,248.69 59.50,248.65 59.76,248.62 C 60.02,248.58 60.30,248.56 60.59,248.54 C 60.88,248.52 61.18,248.51 61.50,248.50 C 61.82,248.49 62.18,248.49 62.50,248.50 C 62.82,248.51 63.13,248.54 63.43,248.57 C 63.73,248.61 64.01,248.65 64.29,248.71 C 64.56,248.77 64.83,248.84 65.08,248.92 C 65.33,249.00 65.57,249.10 65.80,249.20 C 66.02,249.31 66.24,249.43 66.45,249.55 C 66.65,249.68 66.84,249.82 67.02,249.98 C 67.20,250.13 67.37,250.29 67.53,250.47 C 67.69,250.64 67.83,250.90 67.97,251.03 C 68.11,251.16 68.23,251.24 68.35,251.26 C 68.47,251.28 68.58,251.24 68.68,251.15 C 68.78,251.06 68.87,250.91 68.95,250.70 C 69.04,250.50 69.11,250.24 69.17,249.92 C 69.24,249.61 69.29,249.23 69.34,248.80 C 69.38,248.38 69.42,247.89 69.45,247.35 C 69.47,246.81 69.49,246.21 69.50,245.56 C 69.51,244.91 69.49,244.11 69.50,243.44 C 69.51,242.77 69.52,242.13 69.54,241.54 C 69.56,240.94 69.58,240.39 69.62,239.87 C 69.65,239.35 69.69,238.87 69.73,238.42 C 69.78,237.98 69.83,237.57 69.89,237.20 C 69.95,236.83 70.01,236.50 70.09,236.21 C 70.16,235.92 70.24,235.66 70.32,235.45 C 70.40,235.23 70.50,235.05 70.59,234.91 C 70.69,234.76 70.77,234.69 70.91,234.59 C 71.04,234.50 71.21,234.40 71.41,234.32 C 71.62,234.24 71.85,234.16 72.12,234.09 C 72.38,234.01 72.68,233.95 73.02,233.89 C 73.35,233.83 73.71,233.78 74.11,233.73 C 74.51,233.69 74.94,233.65 75.40,233.62 C 75.86,233.58 76.36,233.56 76.88,233.54 C 77.41,233.52 77.97,233.51 78.56,233.50 C 79.15,233.49 79.85,233.50 80.44,233.50 C 81.03,233.50 81.59,233.51 82.12,233.52 C 82.64,233.54 83.14,233.55 83.60,233.57 C 84.06,233.59 84.49,233.61 84.89,233.64 C 85.29,233.67 85.65,233.70 85.98,233.73 C 86.32,233.77 86.62,233.81 86.88,233.85 C 87.15,233.89 87.38,233.94 87.59,233.99 C 87.79,234.04 87.96,234.10 88.09,234.16 C 88.23,234.21 88.31,234.27 88.41,234.34 C 88.50,234.41 88.60,234.49 88.68,234.57 C 88.76,234.65 88.84,234.74 88.91,234.84 C 88.99,234.93 89.05,235.03 89.11,235.14 C 89.17,235.25 89.22,235.36 89.27,235.48 C 89.31,235.61 89.35,235.73 89.38,235.87 C 89.42,236.00 89.44,236.14 89.46,236.29 C 89.48,236.44 89.49,236.59 89.50,236.75 C 89.51,236.91 89.49,237.09 89.50,237.25 C 89.51,237.41 89.54,237.57 89.57,237.73 C 89.61,237.88 89.65,238.03 89.71,238.18 C 89.77,238.33 89.84,238.47 89.92,238.61 C 90.00,238.75 90.10,238.88 90.20,239.02 C 90.31,239.15 90.43,239.27 90.55,239.40 C 90.68,239.52 90.82,239.64 90.98,239.76 C 91.13,239.87 91.29,239.99 91.47,240.09 C 91.64,240.20 91.84,240.31 92.03,240.41 C 92.22,240.50 92.42,240.58 92.62,240.65 C 92.82,240.72 93.02,240.77 93.23,240.82 C 93.43,240.87 93.64,240.90 93.86,240.92 C 94.07,240.94 94.29,240.95 94.52,240.95 C 94.74,240.95 94.96,240.94 95.20,240.91 C 95.43,240.89 95.66,240.85 95.90,240.80 C 96.14,240.76 96.38,240.70 96.62,240.62 C 96.87,240.55 97.14,240.47 97.38,240.38 C 97.61,240.28 97.82,240.18 98.02,240.07 C 98.22,239.96 98.40,239.84 98.57,239.71 C 98.74,239.58 98.88,239.44 99.02,239.30 C 99.15,239.15 99.26,238.99 99.36,238.83 C 99.46,238.66 99.54,238.49 99.60,238.30 C 99.67,238.12 99.71,237.93 99.74,237.73 C 99.77,237.52 99.79,237.31 99.78,237.09 C 99.78,236.87 99.72,236.63 99.72,236.41 C 99.72,236.18 99.74,235.96 99.78,235.73 C 99.82,235.51 99.89,235.29 99.97,235.08 C 100.05,234.86 100.16,234.65 100.28,234.44 C 100.41,234.23 100.55,234.02 100.72,233.81 C 100.89,233.61 101.07,233.40 101.28,233.20 C 101.49,233.00 101.72,232.80 101.97,232.61 C 102.22,232.41 102.49,232.22 102.78,232.03 C 103.07,231.84 103.38,231.64 103.72,231.47 C 104.06,231.29 104.42,231.13 104.81,230.98 C 105.20,230.84 105.62,230.70 106.06,230.58 C 106.51,230.46 106.97,230.35 107.47,230.25 C 107.96,230.15 108.48,230.07 109.03,230.00 C 109.58,229.93 110.15,229.87 110.75,229.83 C 111.35,229.78 111.97,229.75 112.62,229.73 C 113.28,229.72 113.95,229.71 114.66,229.72 C 115.36,229.73 116.12,229.75 116.84,229.78 C 117.57,229.81 118.28,229.85 118.98,229.89 C 119.69,229.93 120.39,229.99 121.08,230.05 C 121.77,230.11 122.45,230.17 123.12,230.25 C 123.80,230.33 124.47,230.41 125.12,230.50 C 125.78,230.59 126.43,230.69 127.08,230.80 C 127.72,230.90 128.36,231.02 128.98,231.14 C 129.61,231.26 130.23,231.39 130.84,231.53 C 131.46,231.67 132.08,231.82 132.66,231.97 C 133.23,232.12 133.77,232.26 134.27,232.41 C 134.78,232.56 135.25,232.71 135.70,232.87 C 136.14,233.02 136.55,233.17 136.92,233.33 C 137.30,233.48 137.64,233.64 137.95,233.80 C 138.26,233.95 138.54,234.11 138.79,234.27 C 139.04,234.43 139.25,234.60 139.43,234.76 C 139.61,234.92 139.76,235.08 139.88,235.25 C 139.99,235.42 140.03,235.59 140.12,235.75 C 140.22,235.91 140.32,236.08 140.44,236.23 C 140.55,236.39 140.68,236.55 140.81,236.70 C 140.95,236.86 141.09,237.01 141.25,237.16 C 141.41,237.30 141.57,237.45 141.75,237.59 C 141.93,237.74 142.11,237.88 142.31,238.02 C 142.51,238.15 142.72,238.29 142.94,238.42 C 143.16,238.55 143.39,238.68 143.62,238.81 C 143.86,238.94 144.12,239.07 144.38,239.19 C 144.63,239.30 144.88,239.41 145.13,239.51 C 145.39,239.61 145.64,239.69 145.90,239.77 C 146.15,239.85 146.41,239.92 146.67,239.98 C 146.93,240.05 147.19,240.10 147.45,240.14 C 147.71,240.18 147.98,240.22 148.24,240.24 C 148.51,240.27 148.77,240.28 149.04,240.29 C 149.31,240.30 149.57,240.29 149.84,240.28 C 150.11,240.27 150.41,240.24 150.66,240.22 C 150.90,240.19 151.12,240.17 151.30,240.13 C 151.49,240.10 151.65,240.06 151.79,240.02 C 151.92,239.98 152.03,239.94 152.11,239.89 C 152.19,239.84 152.24,239.79 152.27,239.73 C 152.29,239.68 152.29,239.62 152.26,239.55 C 152.23,239.49 152.17,239.42 152.09,239.35 C 152.00,239.28 151.89,239.20 151.75,239.12 C 151.61,239.05 151.41,238.96 151.25,238.88 C 151.09,238.79 150.95,238.70 150.81,238.61 C 150.68,238.52 150.55,238.42 150.44,238.33 C 150.32,238.23 150.22,238.13 150.12,238.03 C 150.03,237.93 149.95,237.83 149.88,237.72 C 149.80,237.61 149.74,237.50 149.69,237.39 C 149.64,237.28 149.59,237.16 149.56,237.05 C 149.53,236.93 149.51,236.81 149.50,236.69 C 149.49,236.57 149.49,236.44 149.50,236.31 C 149.51,236.19 149.53,236.06 149.56,235.94 C 149.59,235.81 149.64,235.69 149.69,235.56 C 149.74,235.44 149.80,235.31 149.88,235.19 C 149.95,235.06 150.03,234.94 150.12,234.81 C 150.22,234.69 150.32,234.56 150.44,234.44 C 150.55,234.31 150.68,234.19 150.81,234.06 C 150.95,233.94 151.09,233.81 151.25,233.69 C 151.41,233.56 151.60,233.44 151.75,233.31 C 151.90,233.19 152.03,233.06 152.14,232.94 C 152.25,232.81 152.35,232.69 152.42,232.56 C 152.50,232.44 152.55,232.31 152.59,232.19 C 152.63,232.06 152.65,231.94 152.66,231.81 C 152.66,231.69 152.64,231.56 152.61,231.44 C 152.58,231.31 152.52,231.19 152.45,231.06 C 152.38,230.94 152.29,230.81 152.19,230.69 C 152.08,230.56 151.93,230.43 151.81,230.31 C 151.70,230.19 151.60,230.07 151.51,229.96 C 151.42,229.85 151.34,229.74 151.27,229.63 C 151.21,229.53 151.15,229.43 151.11,229.33 C 151.07,229.23 151.04,229.14 151.02,229.05 C 151.00,228.96 150.99,228.87 150.99,228.79 C 151.00,228.71 151.01,228.63 151.04,228.55 C 151.07,228.48 151.11,228.41 151.16,228.34 C 151.21,228.28 151.25,228.21 151.34,228.16 C 151.43,228.10 151.55,228.04 151.70,227.99 C 151.84,227.94 152.01,227.89 152.21,227.85 C 152.41,227.81 152.64,227.77 152.89,227.73 C 153.14,227.70 153.43,227.67 153.73,227.64 C 154.04,227.61 154.38,227.59 154.74,227.57 C 155.11,227.55 155.50,227.54 155.91,227.52 C 156.33,227.51 156.78,227.50 157.25,227.50 C 157.72,227.50 158.26,227.49 158.75,227.50 C 159.24,227.51 159.71,227.54 160.17,227.58 C 160.63,227.62 161.08,227.67 161.52,227.73 C 161.95,227.80 162.37,227.88 162.78,227.97 C 163.19,228.06 163.59,228.16 163.97,228.28 C 164.35,228.40 164.72,228.53 165.08,228.67 C 165.43,228.82 165.78,228.97 166.11,229.14 C 166.44,229.31 166.76,229.49 167.06,229.69 C 167.37,229.88 167.65,230.11 167.94,230.31 C 168.22,230.51 168.51,230.70 168.78,230.88 C 169.06,231.05 169.33,231.22 169.59,231.38 C 169.86,231.53 170.12,231.68 170.38,231.81 C 170.63,231.95 170.88,232.07 171.12,232.19 C 171.37,232.30 171.61,232.41 171.84,232.50 C 172.08,232.59 172.31,232.68 172.53,232.75 C 172.76,232.82 172.97,232.89 173.19,232.94 C 173.40,232.99 173.62,233.01 173.81,233.06 C 174.01,233.11 174.19,233.17 174.37,233.23 C 174.54,233.29 174.70,233.36 174.85,233.43 C 175.00,233.50 175.14,233.58 175.27,233.67 C 175.39,233.76 175.51,233.85 175.61,233.95 C 175.71,234.05 175.80,234.16 175.88,234.27 C 175.96,234.39 176.03,234.51 176.09,234.63 C 176.14,234.76 176.19,234.89 176.22,235.03 C 176.25,235.17 176.27,235.33 176.28,235.47 C 176.29,235.61 176.29,235.75 176.28,235.89 C 176.27,236.03 176.25,236.16 176.22,236.30 C 176.19,236.43 176.15,236.56 176.09,236.69 C 176.04,236.82 175.98,236.94 175.91,237.06 C 175.83,237.18 175.75,237.30 175.66,237.42 C 175.56,237.54 175.46,237.65 175.34,237.77 C 175.23,237.88 175.10,237.99 174.97,238.09 C 174.83,238.20 174.67,238.31 174.53,238.41 C 174.39,238.50 174.26,238.59 174.13,238.66 C 174.01,238.74 173.89,238.81 173.77,238.87 C 173.66,238.93 173.55,238.98 173.45,239.02 C 173.35,239.06 173.26,239.09 173.17,239.11 C 173.08,239.13 173.00,239.14 172.93,239.15 C 172.86,239.15 172.79,239.15 172.73,239.13 C 172.67,239.12 172.61,239.10 172.56,239.06 C 172.51,239.03 172.48,238.97 172.44,238.94 C 172.40,238.90 172.36,238.88 172.33,238.86 C 172.29,238.84 172.26,238.83 172.23,238.83 C 172.21,238.83 172.18,238.83 172.16,238.84 C 172.13,238.86 172.11,238.88 172.09,238.91 C 172.08,238.93 172.06,238.97 172.05,239.02 C 172.03,239.06 172.02,239.11 172.02,239.17 C 172.01,239.23 172.00,239.30 172.00,239.38 C 172.00,239.45 171.99,239.54 172.00,239.62 C 172.01,239.71 172.03,239.78 172.06,239.86 C 172.09,239.93 172.14,240.01 172.19,240.08 C 172.24,240.15 172.30,240.22 172.38,240.28 C 172.45,240.35 172.53,240.41 172.62,240.47 C 172.72,240.53 172.82,240.59 172.94,240.64 C 173.05,240.70 173.18,240.75 173.31,240.80 C 173.45,240.85 173.59,240.89 173.75,240.94 C 173.91,240.98 174.09,241.03 174.25,241.06 C 174.41,241.10 174.57,241.12 174.72,241.14 C 174.87,241.16 175.02,241.17 175.16,241.17 C 175.30,241.17 175.43,241.17 175.56,241.16 C 175.69,241.14 175.82,241.12 175.94,241.09 C 176.06,241.07 176.17,241.03 176.28,240.98 C 176.39,240.94 176.49,240.89 176.59,240.83 C 176.69,240.77 176.79,240.70 176.88,240.62 C 176.96,240.55 177.04,240.45 177.12,240.38 C 177.21,240.30 177.29,240.24 177.38,240.19 C 177.46,240.14 177.54,240.09 177.62,240.06 C 177.71,240.03 177.79,240.01 177.88,240.00 C 177.96,239.99 178.04,239.99 178.12,240.00 C 178.21,240.01 178.29,240.03 178.38,240.06 C 178.46,240.09 178.54,240.14 178.62,240.19 C 178.71,240.24 178.79,240.30 178.88,240.38 C 178.96,240.45 179.03,240.55 179.12,240.62 C 179.22,240.70 179.32,240.78 179.44,240.84 C 179.55,240.91 179.68,240.97 179.81,241.03 C 179.95,241.09 180.09,241.14 180.25,241.19 C 180.41,241.23 180.57,241.28 180.75,241.31 C 180.93,241.35 181.11,241.38 181.31,241.41 C 181.51,241.43 181.72,241.45 181.94,241.47 C 182.16,241.48 182.39,241.49 182.62,241.50 C 182.86,241.51 183.14,241.51 183.38,241.50 C 183.61,241.49 183.82,241.48 184.02,241.46 C 184.22,241.44 184.40,241.42 184.57,241.38 C 184.74,241.35 184.88,241.31 185.02,241.27 C 185.15,241.22 185.26,241.17 185.36,241.11 C 185.46,241.05 185.54,240.99 185.60,240.91 C 185.67,240.84 185.71,240.76 185.74,240.68 C 185.77,240.60 185.79,240.50 185.78,240.41 C 185.78,240.31 185.73,240.20 185.72,240.09 C 185.71,239.99 185.71,239.88 185.72,239.77 C 185.73,239.65 185.75,239.54 185.78,239.42 C 185.81,239.30 185.85,239.18 185.91,239.06 C 185.96,238.94 186.02,238.82 186.09,238.69 C 186.17,238.56 186.25,238.43 186.34,238.30 C 186.44,238.16 186.54,238.03 186.66,237.89 C 186.77,237.75 186.90,237.61 187.03,237.47 C 187.17,237.33 187.32,237.17 187.47,237.03 C 187.62,236.90 187.78,236.77 187.95,236.66 C 188.11,236.55 188.28,236.45 188.46,236.37 C 188.64,236.28 188.82,236.20 189.02,236.14 C 189.21,236.08 189.40,236.02 189.61,235.98 C 189.81,235.94 190.02,235.92 190.24,235.90 C 190.46,235.88 190.68,235.88 190.91,235.88 C 191.14,235.89 191.38,235.91 191.62,235.94 C 191.87,235.97 192.13,236.02 192.38,236.06 C 192.62,236.11 192.85,236.16 193.07,236.21 C 193.29,236.26 193.51,236.32 193.71,236.38 C 193.92,236.44 194.11,236.51 194.30,236.58 C 194.48,236.65 194.66,236.72 194.83,236.80 C 195.00,236.87 195.15,236.95 195.30,237.04 C 195.45,237.12 195.60,237.21 195.73,237.30 C 195.86,237.40 195.98,237.49 196.09,237.59 C 196.21,237.69 196.31,237.81 196.41,237.91 C 196.50,238.01 196.59,238.10 196.66,238.20 C 196.74,238.29 196.81,238.38 196.87,238.46 C 196.93,238.55 196.98,238.63 197.02,238.70 C 197.06,238.78 197.09,238.85 197.11,238.92 C 197.13,238.99 197.14,239.06 197.15,239.12 C 197.15,239.18 197.15,239.24 197.13,239.29 C 197.12,239.34 197.10,239.39 197.06,239.44 C 197.03,239.48 196.97,239.52 196.94,239.56 C 196.90,239.60 196.88,239.65 196.86,239.69 C 196.84,239.73 196.83,239.77 196.83,239.81 C 196.83,239.85 196.83,239.90 196.84,239.94 C 196.86,239.98 196.88,240.02 196.91,240.06 C 196.93,240.10 196.97,240.15 197.02,240.19 C 197.06,240.23 197.11,240.27 197.17,240.31 C 197.23,240.35 197.30,240.40 197.38,240.44 C 197.45,240.48 197.55,240.52 197.62,240.56 C 197.70,240.61 197.76,240.66 197.81,240.72 C 197.86,240.78 197.91,240.84 197.94,240.91 C 197.97,240.97 197.99,241.05 198.00,241.12 C 198.01,241.20 198.01,241.29 198.00,241.38 C 197.99,241.46 197.97,241.56 197.94,241.66 C 197.91,241.76 197.86,241.86 197.81,241.97 C 197.76,242.08 197.70,242.19 197.62,242.31 C 197.55,242.43 197.45,242.56 197.38,242.69 C 197.30,242.82 197.23,242.95 197.17,243.08 C 197.11,243.21 197.06,243.35 197.02,243.48 C 196.97,243.62 196.93,243.76 196.91,243.91 C 196.88,244.05 196.86,244.20 196.84,244.34 C 196.83,244.49 196.83,244.64 196.83,244.80 C 196.83,244.95 196.84,245.11 196.86,245.27 C 196.88,245.42 196.90,245.59 196.94,245.75 C 196.97,245.91 197.02,246.09 197.06,246.25 C 197.11,246.41 197.15,246.56 197.20,246.70 C 197.25,246.85 197.30,246.98 197.36,247.11 C 197.41,247.24 197.47,247.36 197.53,247.47 C 197.59,247.58 197.65,247.68 197.72,247.78 C 197.78,247.88 197.85,247.97 197.92,248.05 C 197.99,248.13 198.07,248.20 198.14,248.27 C 198.22,248.33 198.29,248.39 198.38,248.44 C 198.46,248.49 198.56,248.51 198.62,248.56 C 198.69,248.62 198.74,248.68 198.77,248.76 C 198.81,248.83 198.82,248.92 198.82,249.02 C 198.82,249.12 198.80,249.24 198.77,249.36 C 198.73,249.48 198.68,249.62 198.61,249.77 C 198.54,249.91 198.45,250.07 198.35,250.24 C 198.25,250.41 198.13,250.60 197.99,250.79 C 197.86,250.98 197.70,251.19 197.53,251.41 C 197.36,251.62 197.16,251.88 196.97,252.09 C 196.78,252.30 196.59,252.49 196.40,252.66 C 196.21,252.83 196.01,252.99 195.82,253.12 C 195.63,253.25 195.43,253.36 195.23,253.45 C 195.04,253.55 194.84,253.62 194.64,253.67 C 194.44,253.73 194.24,253.76 194.04,253.77 C 193.84,253.79 193.63,253.78 193.43,253.76 C 193.23,253.73 193.02,253.69 192.81,253.62 C 192.61,253.56 192.39,253.44 192.19,253.38 C 191.99,253.31 191.80,253.27 191.62,253.26 C 191.44,253.24 191.26,253.25 191.10,253.27 C 190.94,253.30 190.79,253.35 190.64,253.42 C 190.50,253.49 190.36,253.59 190.23,253.70 C 190.11,253.82 189.99,253.96 189.88,254.12 C 189.77,254.28 189.68,254.46 189.59,254.66 C 189.50,254.87 189.42,255.10 189.34,255.34 C 189.27,255.59 189.20,255.89 189.16,256.16 C 189.11,256.42 189.08,256.67 189.06,256.92 C 189.05,257.17 189.05,257.41 189.06,257.64 C 189.08,257.87 189.11,258.10 189.16,258.31 C 189.20,258.53 189.27,258.74 189.34,258.94 C 189.42,259.14 189.52,259.33 189.62,259.52 C 189.73,259.70 189.86,259.88 190.00,260.05 C 190.14,260.22 190.30,260.38 190.47,260.53 C 190.64,260.68 190.83,260.84 191.03,260.97 C 191.23,261.10 191.45,261.22 191.68,261.32 C 191.91,261.42 192.15,261.51 192.41,261.59 C 192.67,261.66 192.95,261.72 193.23,261.77 C 193.52,261.81 193.82,261.84 194.14,261.86 C 194.46,261.88 194.79,261.88 195.13,261.87 C 195.48,261.86 195.84,261.83 196.21,261.79 C 196.58,261.75 196.97,261.69 197.38,261.62 C 197.78,261.56 198.23,261.44 198.62,261.38 C 199.02,261.31 199.40,261.26 199.77,261.22 C 200.13,261.18 200.47,261.16 200.80,261.16 C 201.12,261.15 201.43,261.16 201.72,261.19 C 202.01,261.21 202.28,261.26 202.53,261.31 C 202.78,261.37 203.02,261.44 203.23,261.53 C 203.45,261.62 203.65,261.72 203.83,261.84 C 204.01,261.96 204.17,262.10 204.31,262.25 C 204.46,262.40 204.56,262.60 204.69,262.75 C 204.81,262.90 204.94,263.04 205.06,263.17 C 205.19,263.30 205.31,263.41 205.44,263.52 C 205.56,263.62 205.69,263.71 205.81,263.78 C 205.94,263.86 206.06,263.92 206.19,263.97 C 206.31,264.02 206.44,264.05 206.56,264.08 C 206.69,264.10 206.81,264.11 206.94,264.11 C 207.06,264.11 207.19,264.09 207.31,264.06 C 207.44,264.03 207.57,263.97 207.69,263.94 C 207.81,263.90 207.93,263.87 208.04,263.85 C 208.15,263.83 208.26,263.81 208.37,263.80 C 208.47,263.80 208.57,263.79 208.67,263.80 C 208.77,263.80 208.86,263.81 208.95,263.83 C 209.04,263.85 209.13,263.87 209.21,263.90 C 209.29,263.93 209.37,263.96 209.45,264.01 C 209.52,264.05 209.59,264.10 209.66,264.16 C 209.72,264.21 209.80,264.28 209.84,264.34 C 209.89,264.40 209.92,264.46 209.94,264.52 C 209.95,264.57 209.95,264.62 209.94,264.67 C 209.92,264.72 209.89,264.77 209.84,264.81 C 209.80,264.86 209.73,264.90 209.66,264.94 C 209.58,264.98 209.48,265.01 209.38,265.05 C 209.27,265.08 209.14,265.11 209.00,265.14 C 208.86,265.17 208.70,265.20 208.53,265.22 C 208.36,265.24 208.15,265.24 207.97,265.28 C 207.79,265.32 207.61,265.37 207.43,265.45 C 207.25,265.52 207.08,265.61 206.91,265.71 C 206.75,265.82 206.58,265.94 206.42,266.08 C 206.26,266.22 206.11,266.37 205.95,266.55 C 205.80,266.72 205.65,266.91 205.51,267.12 C 205.36,267.32 205.22,267.55 205.09,267.79 C 204.95,268.03 204.82,268.29 204.69,268.56 C 204.56,268.84 204.45,269.16 204.31,269.44 C 204.18,269.71 204.04,269.97 203.89,270.20 C 203.74,270.44 203.59,270.66 203.42,270.86 C 203.26,271.06 203.09,271.24 202.91,271.41 C 202.73,271.57 202.54,271.72 202.34,271.84 C 202.15,271.97 201.95,272.08 201.73,272.17 C 201.52,272.26 201.30,272.34 201.08,272.39 C 200.85,272.45 200.62,272.48 200.38,272.50 C 200.13,272.52 199.86,272.51 199.62,272.50 C 199.39,272.49 199.16,272.48 198.94,272.47 C 198.72,272.45 198.51,272.43 198.31,272.41 C 198.11,272.38 197.93,272.35 197.75,272.31 C 197.57,272.28 197.41,272.23 197.25,272.19 C 197.09,272.14 196.95,272.09 196.81,272.03 C 196.68,271.97 196.55,271.91 196.44,271.84 C 196.32,271.78 196.22,271.70 196.12,271.62 C 196.03,271.55 195.95,271.44 195.88,271.38 C 195.80,271.31 195.72,271.26 195.65,271.23 C 195.58,271.19 195.51,271.18 195.45,271.18 C 195.38,271.18 195.32,271.20 195.27,271.23 C 195.21,271.27 195.16,271.32 195.11,271.39 C 195.06,271.46 195.02,271.55 194.98,271.65 C 194.94,271.75 194.90,271.87 194.87,272.01 C 194.83,272.14 194.81,272.30 194.78,272.47 C 194.76,272.64 194.75,272.85 194.72,273.03 C 194.69,273.22 194.65,273.40 194.59,273.58 C 194.54,273.76 194.48,273.93 194.41,274.11 C 194.33,274.28 194.25,274.46 194.16,274.62 C 194.06,274.79 193.96,274.96 193.84,275.12 C 193.73,275.29 193.60,275.45 193.47,275.61 C 193.33,275.77 193.19,275.92 193.03,276.08 C 192.88,276.23 192.71,276.38 192.53,276.53 C 192.35,276.68 192.17,276.84 191.97,276.97 C 191.77,277.09 191.55,277.20 191.33,277.28 C 191.10,277.36 190.86,277.43 190.61,277.47 C 190.36,277.51 190.09,277.53 189.81,277.53 C 189.53,277.53 189.24,277.51 188.94,277.47 C 188.63,277.43 188.32,277.36 187.98,277.28 C 187.65,277.20 187.31,277.09 186.95,276.97 C 186.60,276.84 186.23,276.70 185.84,276.53 C 185.46,276.36 185.02,276.15 184.66,275.97 C 184.29,275.78 183.96,275.60 183.66,275.42 C 183.35,275.24 183.08,275.07 182.84,274.89 C 182.60,274.72 182.40,274.54 182.22,274.38 C 182.04,274.21 181.90,274.04 181.78,273.88 C 181.67,273.71 181.58,273.55 181.53,273.39 C 181.48,273.23 181.46,273.08 181.47,272.92 C 181.48,272.77 181.52,272.62 181.59,272.47 C 181.67,272.32 181.84,272.17 181.91,272.03 C 181.98,271.89 182.01,271.77 182.01,271.65 C 182.01,271.53 181.97,271.42 181.90,271.32 C 181.83,271.22 181.72,271.13 181.58,271.05 C 181.44,270.96 181.26,270.89 181.05,270.83 C 180.83,270.76 180.59,270.71 180.30,270.66 C 180.02,270.62 179.70,270.58 179.35,270.55 C 179.00,270.53 178.61,270.51 178.19,270.50 C 177.76,270.49 177.24,270.50 176.81,270.50 C 176.38,270.50 175.98,270.51 175.60,270.52 C 175.23,270.54 174.88,270.55 174.55,270.57 C 174.23,270.59 173.94,270.61 173.67,270.64 C 173.40,270.67 173.17,270.70 172.95,270.73 C 172.74,270.77 172.56,270.81 172.40,270.85 C 172.24,270.89 172.11,270.94 172.01,270.99 C 171.90,271.04 171.83,271.10 171.78,271.16 C 171.73,271.21 171.73,271.28 171.72,271.34 C 171.71,271.40 171.71,271.46 171.72,271.52 C 171.73,271.57 171.75,271.62 171.78,271.67 C 171.81,271.72 171.85,271.77 171.91,271.81 C 171.96,271.86 172.02,271.90 172.09,271.94 C 172.17,271.98 172.25,272.01 172.34,272.05 C 172.44,272.08 172.54,272.11 172.66,272.14 C 172.77,272.17 172.90,272.20 173.03,272.22 C 173.17,272.24 173.33,272.25 173.47,272.28 C 173.61,272.31 173.74,272.35 173.88,272.39 C 174.01,272.43 174.13,272.49 174.25,272.55 C 174.37,272.61 174.48,272.67 174.59,272.75 C 174.70,272.83 174.81,272.91 174.91,273.00 C 175.01,273.09 175.10,273.19 175.19,273.30 C 175.28,273.40 175.36,273.52 175.44,273.64 C 175.52,273.76 175.59,273.89 175.66,274.03 C 175.72,274.17 175.82,274.31 175.84,274.47 C 175.87,274.62 175.86,274.79 175.81,274.97 C 175.77,275.15 175.68,275.33 175.56,275.53 C 175.44,275.73 175.29,275.94 175.09,276.16 C 174.90,276.38 174.67,276.60 174.41,276.84 C 174.14,277.08 173.84,277.33 173.50,277.59 C 173.16,277.85 172.79,278.12 172.38,278.41 C 171.96,278.69 171.52,278.98 171.03,279.28 C 170.55,279.58 169.99,279.93 169.47,280.22 C 168.95,280.51 168.43,280.79 167.91,281.04 C 167.40,281.29 166.88,281.53 166.37,281.74 C 165.85,281.96 165.34,282.15 164.83,282.33 C 164.32,282.50 163.81,282.66 163.30,282.80 C 162.79,282.93 162.28,283.05 161.77,283.15 C 161.27,283.25 160.76,283.32 160.26,283.38 C 159.75,283.44 159.25,283.48 158.75,283.50 Z" />
    </clipPath>
  </defs>
  <path d="M 158.75,283.50 C 158.25,283.52 157.72,283.50 157.25,283.50 C 156.78,283.50 156.33,283.49 155.91,283.48 C 155.50,283.46 155.11,283.45 154.74,283.43 C 154.38,283.41 154.04,283.39 153.73,283.36 C 153.43,283.33 153.14,283.30 152.89,283.27 C 152.64,283.23 152.41,283.19 152.21,283.15 C 152.01,283.11 151.84,283.06 151.70,283.01 C 151.55,282.96 151.43,282.90 151.34,282.84 C 151.25,282.79 151.21,282.72 151.16,282.66 C 151.11,282.59 151.07,282.52 151.04,282.45 C 151.01,282.37 151.00,282.29 150.99,282.21 C 150.99,282.13 151.00,282.04 151.02,281.95 C 151.04,281.86 151.07,281.77 151.11,281.67 C 151.15,281.57 151.21,281.47 151.27,281.37 C 151.34,281.26 151.42,281.15 151.51,281.04 C 151.60,280.93 151.70,280.81 151.81,280.69 C 151.93,280.57 152.08,280.43 152.19,280.31 C 152.29,280.19 152.38,280.07 152.45,279.95 C 152.52,279.84 152.58,279.72 152.61,279.61 C 152.64,279.50 152.66,279.39 152.66,279.28 C 152.65,279.17 152.63,279.07 152.59,278.97 C 152.55,278.87 152.50,278.77 152.42,278.67 C 152.35,278.58 152.25,278.48 152.14,278.39 C 152.03,278.30 151.90,278.21 151.75,278.12 C 151.60,278.04 151.41,277.96 151.25,277.88 C 151.09,277.79 150.95,277.70 150.81,277.61 C 150.68,277.52 150.55,277.42 150.44,277.33 C 150.32,277.23 150.22,277.13 150.12,277.03 C 150.03,276.93 149.95,276.83 149.88,276.72 C 149.80,276.61 149.74,276.50 149.69,276.39 C 149.64,276.28 149.59,276.16 149.56,276.05 C 149.53,275.93 149.51,275.81 149.50,275.69 C 149.49,275.57 149.49,275.44 149.50,275.31 C 149.51,275.19 149.53,275.06 149.55,274.93 C 149.58,274.80 149.62,274.67 149.66,274.54 C 149.71,274.41 149.76,274.27 149.83,274.14 C 149.89,274.01 149.96,273.87 150.05,273.73 C 150.13,273.60 150.22,273.46 150.32,273.32 C 150.42,273.18 150.53,273.04 150.65,272.90 C 150.77,272.76 150.89,272.61 151.03,272.47 C 151.17,272.32 151.36,272.17 151.47,272.03 C 151.58,271.90 151.66,271.77 151.71,271.66 C 151.76,271.55 151.77,271.45 151.76,271.37 C 151.74,271.28 151.69,271.20 151.61,271.14 C 151.53,271.08 151.41,271.02 151.27,270.98 C 151.12,270.94 150.94,270.92 150.73,270.90 C 150.51,270.88 150.27,270.88 149.99,270.88 C 149.71,270.89 149.40,270.91 149.06,270.94 C 148.72,270.97 148.30,271.01 147.94,271.06 C 147.57,271.12 147.22,271.18 146.88,271.27 C 146.53,271.35 146.20,271.44 145.88,271.55 C 145.55,271.65 145.24,271.77 144.94,271.91 C 144.64,272.04 144.34,272.18 144.06,272.34 C 143.78,272.50 143.51,272.67 143.25,272.86 C 142.99,273.04 142.74,273.24 142.50,273.45 C 142.26,273.66 142.03,273.89 141.81,274.12 C 141.59,274.36 141.43,274.63 141.19,274.88 C 140.95,275.12 140.68,275.36 140.38,275.59 C 140.07,275.83 139.74,276.06 139.38,276.28 C 139.01,276.51 138.61,276.72 138.19,276.94 C 137.76,277.15 137.30,277.36 136.81,277.56 C 136.32,277.77 135.80,277.96 135.25,278.16 C 134.70,278.35 134.11,278.54 133.50,278.72 C 132.89,278.90 132.24,279.08 131.56,279.25 C 130.89,279.42 130.14,279.59 129.44,279.75 C 128.73,279.91 128.04,280.05 127.34,280.19 C 126.65,280.32 125.96,280.45 125.28,280.56 C 124.60,280.68 123.92,280.78 123.25,280.88 C 122.58,280.97 121.91,281.05 121.25,281.12 C 120.59,281.20 119.93,281.26 119.28,281.31 C 118.63,281.36 117.98,281.41 117.34,281.44 C 116.70,281.47 116.07,281.49 115.44,281.50 C 114.81,281.51 114.17,281.51 113.56,281.50 C 112.96,281.49 112.37,281.46 111.80,281.43 C 111.24,281.39 110.69,281.35 110.16,281.29 C 109.64,281.23 109.13,281.16 108.64,281.08 C 108.15,281.00 107.68,280.90 107.23,280.80 C 106.79,280.69 106.36,280.57 105.95,280.45 C 105.54,280.32 105.14,280.18 104.77,280.02 C 104.40,279.87 104.05,279.71 103.72,279.53 C 103.39,279.36 103.08,279.15 102.78,278.97 C 102.49,278.79 102.21,278.61 101.95,278.45 C 101.68,278.28 101.44,278.12 101.21,277.96 C 100.98,277.81 100.77,277.66 100.58,277.52 C 100.38,277.37 100.21,277.24 100.05,277.11 C 99.89,276.98 99.74,276.86 99.62,276.74 C 99.49,276.63 99.38,276.52 99.29,276.41 C 99.20,276.31 99.12,276.21 99.06,276.12 C 99.00,276.04 98.97,275.96 98.94,275.88 C 98.90,275.79 98.88,275.70 98.86,275.61 C 98.84,275.52 98.83,275.42 98.83,275.33 C 98.83,275.23 98.83,275.13 98.84,275.03 C 98.86,274.93 98.88,274.83 98.91,274.72 C 98.93,274.61 98.97,274.50 99.02,274.39 C 99.06,274.28 99.11,274.16 99.17,274.05 C 99.23,273.93 99.30,273.81 99.38,273.69 C 99.45,273.57 99.55,273.43 99.62,273.31 C 99.70,273.19 99.76,273.07 99.82,272.96 C 99.88,272.85 99.92,272.74 99.96,272.63 C 100.00,272.53 100.03,272.43 100.05,272.33 C 100.07,272.23 100.08,272.14 100.08,272.05 C 100.08,271.96 100.07,271.87 100.05,271.79 C 100.04,271.71 100.01,271.63 99.98,271.55 C 99.94,271.48 99.90,271.41 99.84,271.34 C 99.79,271.28 99.72,271.20 99.66,271.16 C 99.59,271.11 99.52,271.08 99.45,271.07 C 99.37,271.06 99.29,271.06 99.21,271.09 C 99.13,271.11 99.04,271.15 98.95,271.20 C 98.86,271.26 98.77,271.33 98.67,271.42 C 98.57,271.51 98.47,271.62 98.37,271.74 C 98.26,271.87 98.15,272.01 98.04,272.16 C 97.93,272.32 97.81,272.50 97.69,272.69 C 97.57,272.88 97.48,273.12 97.31,273.31 C 97.15,273.51 96.95,273.69 96.70,273.86 C 96.46,274.03 96.18,274.18 95.86,274.33 C 95.54,274.47 95.18,274.60 94.78,274.72 C 94.38,274.84 93.95,274.94 93.47,275.03 C 92.99,275.12 92.48,275.20 91.92,275.27 C 91.37,275.33 90.77,275.38 90.14,275.42 C 89.51,275.46 88.84,275.49 88.12,275.50 C 87.41,275.51 86.58,275.51 85.88,275.50 C 85.17,275.49 84.50,275.48 83.87,275.46 C 83.24,275.44 82.65,275.42 82.10,275.38 C 81.55,275.35 81.05,275.31 80.58,275.27 C 80.11,275.22 79.68,275.17 79.30,275.11 C 78.91,275.05 78.56,274.99 78.26,274.91 C 77.95,274.84 77.69,274.76 77.46,274.68 C 77.24,274.60 77.05,274.50 76.91,274.41 C 76.76,274.31 76.69,274.20 76.59,274.09 C 76.50,273.99 76.41,273.88 76.34,273.77 C 76.26,273.67 76.19,273.56 76.13,273.45 C 76.07,273.33 76.02,273.22 75.98,273.11 C 75.94,273.00 75.91,272.88 75.89,272.77 C 75.87,272.65 75.86,272.53 75.85,272.41 C 75.85,272.30 75.85,272.18 75.87,272.05 C 75.88,271.93 75.90,271.81 75.94,271.69 C 75.97,271.56 76.03,271.44 76.06,271.31 C 76.09,271.19 76.11,271.06 76.12,270.93 C 76.12,270.80 76.12,270.67 76.10,270.54 C 76.08,270.41 76.06,270.27 76.02,270.14 C 75.98,270.01 75.92,269.87 75.86,269.73 C 75.80,269.60 75.72,269.46 75.63,269.32 C 75.55,269.18 75.45,269.04 75.34,268.90 C 75.23,268.76 75.10,268.61 74.97,268.47 C 74.83,268.32 74.68,268.17 74.53,268.03 C 74.39,267.89 74.24,267.76 74.09,267.64 C 73.95,267.52 73.80,267.40 73.66,267.30 C 73.51,267.19 73.36,267.09 73.22,267.00 C 73.07,266.91 72.93,266.83 72.78,266.75 C 72.64,266.67 72.49,266.61 72.34,266.55 C 72.20,266.49 72.05,266.43 71.91,266.39 C 71.76,266.35 71.61,266.31 71.47,266.28 C 71.32,266.25 71.17,266.26 71.03,266.22 C 70.89,266.17 70.76,266.11 70.64,266.02 C 70.52,265.92 70.40,265.81 70.30,265.67 C 70.19,265.53 70.09,265.37 70.00,265.19 C 69.91,265.00 69.83,264.79 69.75,264.56 C 69.67,264.33 69.61,264.08 69.55,263.80 C 69.49,263.52 69.43,263.22 69.39,262.89 C 69.35,262.57 69.31,262.22 69.28,261.84 C 69.25,261.47 69.25,261.01 69.22,260.66 C 69.19,260.30 69.14,259.98 69.09,259.70 C 69.03,259.41 68.96,259.17 68.88,258.96 C 68.80,258.75 68.71,258.58 68.61,258.45 C 68.51,258.32 68.39,258.23 68.27,258.17 C 68.14,258.12 68.00,258.10 67.85,258.12 C 67.70,258.14 67.54,258.19 67.37,258.29 C 67.19,258.38 67.01,258.52 66.81,258.69 C 66.62,258.86 66.39,259.12 66.19,259.31 C 65.98,259.51 65.78,259.69 65.58,259.86 C 65.38,260.03 65.18,260.18 64.98,260.33 C 64.79,260.47 64.60,260.60 64.41,260.72 C 64.22,260.84 64.03,260.94 63.84,261.03 C 63.66,261.12 63.48,261.20 63.30,261.27 C 63.12,261.33 62.94,261.38 62.77,261.42 C 62.59,261.46 62.42,261.49 62.25,261.50 C 62.08,261.51 61.92,261.51 61.75,261.50 C 61.58,261.49 61.41,261.47 61.24,261.45 C 61.07,261.42 60.90,261.38 60.73,261.34 C 60.55,261.29 60.38,261.24 60.20,261.17 C 60.03,261.11 59.85,261.04 59.67,260.95 C 59.49,260.87 59.31,260.78 59.13,260.68 C 58.95,260.58 58.77,260.47 58.59,260.35 C 58.40,260.23 58.22,260.11 58.03,259.97 C 57.85,259.83 57.64,259.69 57.47,259.53 C 57.29,259.38 57.13,259.21 56.98,259.04 C 56.82,258.87 56.68,258.68 56.55,258.49 C 56.43,258.30 56.31,258.10 56.20,257.89 C 56.10,257.68 56.00,257.46 55.92,257.23 C 55.84,257.01 55.77,256.77 55.71,256.52 C 55.65,256.28 55.61,256.02 55.57,255.76 C 55.54,255.49 55.51,255.22 55.50,254.94 C 55.49,254.65 55.49,254.34 55.50,254.06 C 55.51,253.78 55.52,253.51 55.54,253.26 C 55.56,253.00 55.58,252.76 55.62,252.52 C 55.65,252.29 55.69,252.07 55.73,251.86 C 55.78,251.65 55.83,251.45 55.89,251.27 C 55.95,251.08 56.01,250.90 56.09,250.74 C 56.16,250.58 56.24,250.43 56.32,250.29 C 56.40,250.15 56.50,250.02 56.59,249.91 C 56.69,249.79 56.79,249.69 56.91,249.59 C 57.02,249.50 57.16,249.40 57.30,249.32 C 57.45,249.24 57.61,249.16 57.79,249.09 C 57.96,249.01 58.15,248.95 58.36,248.89 C 58.56,248.83 58.78,248.78 59.02,248.73 C 59.25,248.69 59.50,248.65 59.76,248.62 C 60.02,248.58 60.30,248.56 60.59,248.54 C 60.88,248.52 61.18,248.51 61.50,248.50 C 61.82,248.49 62.18,248.49 62.50,248.50 C 62.82,248.51 63.13,248.54 63.43,248.57 C 63.73,248.61 64.01,248.65 64.29,248.71 C 64.56,248.77 64.83,248.84 65.08,248.92 C 65.33,249.00 65.57,249.10 65.80,249.20 C 66.02,249.31 66.24,249.43 66.45,249.55 C 66.65,249.68 66.84,249.82 67.02,249.98 C 67.20,250.13 67.37,250.29 67.53,250.47 C 67.69,250.64 67.83,250.90 67.97,251.03 C 68.11,251.16 68.23,251.24 68.35,251.26 C 68.47,251.28 68.58,251.24 68.68,251.15 C 68.78,251.06 68.87,250.91 68.95,250.70 C 69.04,250.50 69.11,250.24 69.17,249.92 C 69.24,249.61 69.29,249.23 69.34,248.80 C 69.38,248.38 69.42,247.89 69.45,247.35 C 69.47,246.81 69.49,246.21 69.50,245.56 C 69.51,244.91 69.49,244.11 69.50,243.44 C 69.51,242.77 69.52,242.13 69.54,241.54 C 69.56,240.94 69.58,240.39 69.62,239.87 C 69.65,239.35 69.69,238.87 69.73,238.42 C 69.78,237.98 69.83,237.57 69.89,237.20 C 69.95,236.83 70.01,236.50 70.09,236.21 C 70.16,235.92 70.24,235.66 70.32,235.45 C 70.40,235.23 70.50,235.05 70.59,234.91 C 70.69,234.76 70.77,234.69 70.91,234.59 C 71.04,234.50 71.21,234.40 71.41,234.32 C 71.62,234.24 71.85,234.16 72.12,234.09 C 72.38,234.01 72.68,233.95 73.02,233.89 C 73.35,233.83 73.71,233.78 74.11,233.73 C 74.51,233.69 74.94,233.65 75.40,233.62 C 75.86,233.58 76.36,233.56 76.88,233.54 C 77.41,233.52 77.97,233.51 78.56,233.50 C 79.15,233.49 79.85,233.50 80.44,233.50 C 81.03,233.50 81.59,233.51 82.12,233.52 C 82.64,233.54 83.14,233.55 83.60,233.57 C 84.06,233.59 84.49,233.61 84.89,233.64 C 85.29,233.67 85.65,233.70 85.98,233.73 C 86.32,233.77 86.62,233.81 86.88,233.85 C 87.15,233.89 87.38,233.94 87.59,233.99 C 87.79,234.04 87.96,234.10 88.09,234.16 C 88.23,234.21 88.31,234.27 88.41,234.34 C 88.50,234.41 88.60,234.49 88.68,234.57 C 88.76,234.65 88.84,234.74 88.91,234.84 C 88.99,234.93 89.05,235.03 89.11,235.14 C 89.17,235.25 89.22,235.36 89.27,235.48 C 89.31,235.61 89.35,235.73 89.38,235.87 C 89.42,236.00 89.44,236.14 89.46,236.29 C 89.48,236.44 89.49,236.59 89.50,236.75 C 89.51,236.91 89.49,237.09 89.50,237.25 C 89.51,237.41 89.54,237.57 89.57,237.73 C 89.61,237.88 89.65,238.03 89.71,238.18 C 89.77,238.33 89.84,238.47 89.92,238.61 C 90.00,238.75 90.10,238.88 90.20,239.02 C 90.31,239.15 90.43,239.27 90.55,239.40 C 90.68,239.52 90.82,239.64 90.98,239.76 C 91.13,239.87 91.29,239.99 91.47,240.09 C 91.64,240.20 91.84,240.31 92.03,240.41 C 92.22,240.50 92.42,240.58 92.62,240.65 C 92.82,240.72 93.02,240.77 93.23,240.82 C 93.43,240.87 93.64,240.90 93.86,240.92 C 94.07,240.94 94.29,240.95 94.52,240.95 C 94.74,240.95 94.96,240.94 95.20,240.91 C 95.43,240.89 95.66,240.85 95.90,240.80 C 96.14,240.76 96.38,240.70 96.62,240.62 C 96.87,240.55 97.14,240.47 97.38,240.38 C 97.61,240.28 97.82,240.18 98.02,240.07 C 98.22,239.96 98.40,239.84 98.57,239.71 C 98.74,239.58 98.88,239.44 99.02,239.30 C 99.15,239.15 99.26,238.99 99.36,238.83 C 99.46,238.66 99.54,238.49 99.60,238.30 C 99.67,238.12 99.71,237.93 99.74,237.73 C 99.77,237.52 99.79,237.31 99.78,237.09 C 99.78,236.87 99.72,236.63 99.72,236.41 C 99.72,236.18 99.74,235.96 99.78,235.73 C 99.82,235.51 99.89,235.29 99.97,235.08 C 100.05,234.86 100.16,234.65 100.28,234.44 C 100.41,234.23 100.55,234.02 100.72,233.81 C 100.89,233.61 101.07,233.40 101.28,233.20 C 101.49,233.00 101.72,232.80 101.97,232.61 C 102.22,232.41 102.49,232.22 102.78,232.03 C 103.07,231.84 103.38,231.64 103.72,231.47 C 104.06,231.29 104.42,231.13 104.81,230.98 C 105.20,230.84 105.62,230.70 106.06,230.58 C 106.51,230.46 106.97,230.35 107.47,230.25 C 107.96,230.15 108.48,230.07 109.03,230.00 C 109.58,229.93 110.15,229.87 110.75,229.83 C 111.35,229.78 111.97,229.75 112.62,229.73 C 113.28,229.72 113.95,229.71 114.66,229.72 C 115.36,229.73 116.12,229.75 116.84,229.78 C 117.57,229.81 118.28,229.85 118.98,229.89 C 119.69,229.93 120.39,229.99 121.08,230.05 C 121.77,230.11 122.45,230.17 123.12,230.25 C 123.80,230.33 124.47,230.41 125.12,230.50 C 125.78,230.59 126.43,230.69 127.08,230.80 C 127.72,230.90 128.36,231.02 128.98,231.14 C 129.61,231.26 130.23,231.39 130.84,231.53 C 131.46,231.67 132.08,231.82 132.66,231.97 C 133.23,232.12 133.77,232.26 134.27,232.41 C 134.78,232.56 135.25,232.71 135.70,232.87 C 136.14,233.02 136.55,233.17 136.92,233.33 C 137.30,233.48 137.64,233.64 137.95,233.80 C 138.26,233.95 138.54,234.11 138.79,234.27 C 139.04,234.43 139.25,234.60 139.43,234.76 C 139.61,234.92 139.76,235.08 139.88,235.25 C 139.99,235.42 140.03,235.59 140.12,235.75 C 140.22,235.91 140.32,236.08 140.44,236.23 C 140.55,236.39 140.68,236.55 140.81,236.70 C 140.95,236.86 141.09,237.01 141.25,237.16 C 141.41,237.30 141.57,237.45 141.75,237.59 C 141.93,237.74 142.11,237.88 142.31,238.02 C 142.51,238.15 142.72,238.29 142.94,238.42 C 143.16,238.55 143.39,238.68 143.62,238.81 C 143.86,238.94 144.12,239.07 144.38,239.19 C 144.63,239.30 144.88,239.41 145.13,239.51 C 145.39,239.61 145.64,239.69 145.90,239.77 C 146.15,239.85 146.41,239.92 146.67,239.98 C 146.93,240.05 147.19,240.10 147.45,240.14 C 147.71,240.18 147.98,240.22 148.24,240.24 C 148.51,240.27 148.77,240.28 149.04,240.29 C 149.31,240.30 149.57,240.29 149.84,240.28 C 150.11,240.27 150.41,240.24 150.66,240.22 C 150.90,240.19 151.12,240.17 151.30,240.13 C 151.49,240.10 151.65,240.06 151.79,240.02 C 151.92,239.98 152.03,239.94 152.11,239.89 C 152.19,239.84 152.24,239.79 152.27,239.73 C 152.29,239.68 152.29,239.62 152.26,239.55 C 152.23,239.49 152.17,239.42 152.09,239.35 C 152.00,239.28 151.89,239.20 151.75,239.12 C 151.61,239.05 151.41,238.96 151.25,238.88 C 151.09,238.79 150.95,238.70 150.81,238.61 C 150.68,238.52 150.55,238.42 150.44,238.33 C 150.32,238.23 150.22,238.13 150.12,238.03 C 150.03,237.93 149.95,237.83 149.88,237.72 C 149.80,237.61 149.74,237.50 149.69,237.39 C 149.64,237.28 149.59,237.16 149.56,237.05 C 149.53,236.93 149.51,236.81 149.50,236.69 C 149.49,236.57 149.49,236.44 149.50,236.31 C 149.51,236.19 149.53,236.06 149.56,235.94 C 149.59,235.81 149.64,235.69 149.69,235.56 C 149.74,235.44 149.80,235.31 149.88,235.19 C 149.95,235.06 150.03,234.94 150.12,234.81 C 150.22,234.69 150.32,234.56 150.44,234.44 C 150.55,234.31 150.68,234.19 150.81,234.06 C 150.95,233.94 151.09,233.81 151.25,233.69 C 151.41,233.56 151.60,233.44 151.75,233.31 C 151.90,233.19 152.03,233.06 152.14,232.94 C 152.25,232.81 152.35,232.69 152.42,232.56 C 152.50,232.44 152.55,232.31 152.59,232.19 C 152.63,232.06 152.65,231.94 152.66,231.81 C 152.66,231.69 152.64,231.56 152.61,231.44 C 152.58,231.31 152.52,231.19 152.45,231.06 C 152.38,230.94 152.29,230.81 152.19,230.69 C 152.08,230.56 151.93,230.43 151.81,230.31 C 151.70,230.19 151.60,230.07 151.51,229.96 C 151.42,229.85 151.34,229.74 151.27,229.63 C 151.21,229.53 151.15,229.43 151.11,229.33 C 151.07,229.23 151.04,229.14 151.02,229.05 C 151.00,228.96 150.99,228.87 150.99,228.79 C 151.00,228.71 151.01,228.63 151.04,228.55 C 151.07,228.48 151.11,228.41 151.16,228.34 C 151.21,228.28 151.25,228.21 151.34,228.16 C 151.43,228.10 151.55,228.04 151.70,227.99 C 151.84,227.94 152.01,227.89 152.21,227.85 C 152.41,227.81 152.64,227.77 152.89,227.73 C 153.14,227.70 153.43,227.67 153.73,227.64 C 154.04,227.61 154.38,227.59 154.74,227.57 C 155.11,227.55 155.50,227.54 155.91,227.52 C 156.33,227.51 156.78,227.50 157.25,227.50 C 157.72,227.50 158.26,227.49 158.75,227.50 C 159.24,227.51 159.71,227.54 160.17,227.58 C 160.63,227.62 161.08,227.67 161.52,227.73 C 161.95,227.80 162.37,227.88 162.78,227.97 C 163.19,228.06 163.59,228.16 163.97,228.28 C 164.35,228.40 164.72,228.53 165.08,228.67 C 165.43,228.82 165.78,228.97 166.11,229.14 C 166.44,229.31 166.76,229.49 167.06,229.69 C 167.37,229.88 167.65,230.11 167.94,230.31 C 168.22,230.51 168.51,230.70 168.78,230.88 C 169.06,231.05 169.33,231.22 169.59,231.38 C 169.86,231.53 170.12,231.68 170.38,231.81 C 170.63,231.95 170.88,232.07 171.12,232.19 C 171.37,232.30 171.61,232.41 171.84,232.50 C 172.08,232.59 172.31,232.68 172.53,232.75 C 172.76,232.82 172.97,232.89 173.19,232.94 C 173.40,232.99 173.62,233.01 173.81,233.06 C 174.01,233.11 174.19,233.17 174.37,233.23 C 174.54,233.29 174.70,233.36 174.85,233.43 C 175.00,233.50 175.14,233.58 175.27,233.67 C 175.39,233.76 175.51,233.85 175.61,233.95 C 175.71,234.05 175.80,234.16 175.88,234.27 C 175.96,234.39 176.03,234.51 176.09,234.63 C 176.14,234.76 176.19,234.89 176.22,235.03 C 176.25,235.17 176.27,235.33 176.28,235.47 C 176.29,235.61 176.29,235.75 176.28,235.89 C 176.27,236.03 176.25,236.16 176.22,236.30 C 176.19,236.43 176.15,236.56 176.09,236.69 C 176.04,236.82 175.98,236.94 175.91,237.06 C 175.83,237.18 175.75,237.30 175.66,237.42 C 175.56,237.54 175.46,237.65 175.34,237.77 C 175.23,237.88 175.10,237.99 174.97,238.09 C 174.83,238.20 174.67,238.31 174.53,238.41 C 174.39,238.50 174.26,238.59 174.13,238.66 C 174.01,238.74 173.89,238.81 173.77,238.87 C 173.66,238.93 173.55,238.98 173.45,239.02 C 173.35,239.06 173.26,239.09 173.17,239.11 C 173.08,239.13 173.00,239.14 172.93,239.15 C 172.86,239.15 172.79,239.15 172.73,239.13 C 172.67,239.12 172.61,239.10 172.56,239.06 C 172.51,239.03 172.48,238.97 172.44,238.94 C 172.40,238.90 172.36,238.88 172.33,238.86 C 172.29,238.84 172.26,238.83 172.23,238.83 C 172.21,238.83 172.18,238.83 172.16,238.84 C 172.13,238.86 172.11,238.88 172.09,238.91 C 172.08,238.93 172.06,238.97 172.05,239.02 C 172.03,239.06 172.02,239.11 172.02,239.17 C 172.01,239.23 172.00,239.30 172.00,239.38 C 172.00,239.45 171.99,239.54 172.00,239.62 C 172.01,239.71 172.03,239.78 172.06,239.86 C 172.09,239.93 172.14,240.01 172.19,240.08 C 172.24,240.15 172.30,240.22 172.38,240.28 C 172.45,240.35 172.53,240.41 172.62,240.47 C 172.72,240.53 172.82,240.59 172.94,240.64 C 173.05,240.70 173.18,240.75 173.31,240.80 C 173.45,240.85 173.59,240.89 173.75,240.94 C 173.91,240.98 174.09,241.03 174.25,241.06 C 174.41,241.10 174.57,241.12 174.72,241.14 C 174.87,241.16 175.02,241.17 175.16,241.17 C 175.30,241.17 175.43,241.17 175.56,241.16 C 175.69,241.14 175.82,241.12 175.94,241.09 C 176.06,241.07 176.17,241.03 176.28,240.98 C 176.39,240.94 176.49,240.89 176.59,240.83 C 176.69,240.77 176.79,240.70 176.88,240.62 C 176.96,240.55 177.04,240.45 177.12,240.38 C 177.21,240.30 177.29,240.24 177.38,240.19 C 177.46,240.14 177.54,240.09 177.62,240.06 C 177.71,240.03 177.79,240.01 177.88,240.00 C 177.96,239.99 178.04,239.99 178.12,240.00 C 178.21,240.01 178.29,240.03 178.38,240.06 C 178.46,240.09 178.54,240.14 178.62,240.19 C 178.71,240.24 178.79,240.30 178.88,240.38 C 178.96,240.45 179.03,240.55 179.12,240.62 C 179.22,240.70 179.32,240.78 179.44,240.84 C 179.55,240.91 179.68,240.97 179.81,241.03 C 179.95,241.09 180.09,241.14 180.25,241.19 C 180.41,241.23 180.57,241.28 180.75,241.31 C 180.93,241.35 181.11,241.38 181.31,241.41 C 181.51,241.43 181.72,241.45 181.94,241.47 C 182.16,241.48 182.39,241.49 182.62,241.50 C 182.86,241.51 183.14,241.51 183.38,241.50 C 183.61,241.49 183.82,241.48 184.02,241.46 C 184.22,241.44 184.40,241.42 184.57,241.38 C 184.74,241.35 184.88,241.31 185.02,241.27 C 185.15,241.22 185.26,241.17 185.36,241.11 C 185.46,241.05 185.54,240.99 185.60,240.91 C 185.67,240.84 185.71,240.76 185.74,240.68 C 185.77,240.60 185.79,240.50 185.78,240.41 C 185.78,240.31 185.73,240.20 185.72,240.09 C 185.71,239.99 185.71,239.88 185.72,239.77 C 185.73,239.65 185.75,239.54 185.78,239.42 C 185.81,239.30 185.85,239.18 185.91,239.06 C 185.96,238.94 186.02,238.82 186.09,238.69 C 186.17,238.56 186.25,238.43 186.34,238.30 C 186.44,238.16 186.54,238.03 186.66,237.89 C 186.77,237.75 186.90,237.61 187.03,237.47 C 187.17,237.33 187.32,237.17 187.47,237.03 C 187.62,236.90 187.78,236.77 187.95,236.66 C 188.11,236.55 188.28,236.45 188.46,236.37 C 188.64,236.28 188.82,236.20 189.02,236.14 C 189.21,236.08 189.40,236.02 189.61,235.98 C 189.81,235.94 190.02,235.92 190.24,235.90 C 190.46,235.88 190.68,235.88 190.91,235.88 C 191.14,235.89 191.38,235.91 191.62,235.94 C 191.87,235.97 192.13,236.02 192.38,236.06 C 192.62,236.11 192.85,236.16 193.07,236.21 C 193.29,236.26 193.51,236.32 193.71,236.38 C 193.92,236.44 194.11,236.51 194.30,236.58 C 194.48,236.65 194.66,236.72 194.83,236.80 C 195.00,236.87 195.15,236.95 195.30,237.04 C 195.45,237.12 195.60,237.21 195.73,237.30 C 195.86,237.40 195.98,237.49 196.09,237.59 C 196.21,237.69 196.31,237.81 196.41,237.91 C 196.50,238.01 196.59,238.10 196.66,238.20 C 196.74,238.29 196.81,238.38 196.87,238.46 C 196.93,238.55 196.98,238.63 197.02,238.70 C 197.06,238.78 197.09,238.85 197.11,238.92 C 197.13,238.99 197.14,239.06 197.15,239.12 C 197.15,239.18 197.15,239.24 197.13,239.29 C 197.12,239.34 197.10,239.39 197.06,239.44 C 197.03,239.48 196.97,239.52 196.94,239.56 C 196.90,239.60 196.88,239.65 196.86,239.69 C 196.84,239.73 196.83,239.77 196.83,239.81 C 196.83,239.85 196.83,239.90 196.84,239.94 C 196.86,239.98 196.88,240.02 196.91,240.06 C 196.93,240.10 196.97,240.15 197.02,240.19 C 197.06,240.23 197.11,240.27 197.17,240.31 C 197.23,240.35 197.30,240.40 197.38,240.44 C 197.45,240.48 197.55,240.52 197.62,240.56 C 197.70,240.61 197.76,240.66 197.81,240.72 C 197.86,240.78 197.91,240.84 197.94,240.91 C 197.97,240.97 197.99,241.05 198.00,241.12 C 198.01,241.20 198.01,241.29 198.00,241.38 C 197.99,241.46 197.97,241.56 197.94,241.66 C 197.91,241.76 197.86,241.86 197.81,241.97 C 197.76,242.08 197.70,242.19 197.62,242.31 C 197.55,242.43 197.45,242.56 197.38,242.69 C 197.30,242.82 197.23,242.95 197.17,243.08 C 197.11,243.21 197.06,243.35 197.02,243.48 C 196.97,243.62 196.93,243.76 196.91,243.91 C 196.88,244.05 196.86,244.20 196.84,244.34 C 196.83,244.49 196.83,244.64 196.83,244.80 C 196.83,244.95 196.84,245.11 196.86,245.27 C 196.88,245.42 196.90,245.59 196.94,245.75 C 196.97,245.91 197.02,246.09 197.06,246.25 C 197.11,246.41 197.15,246.56 197.20,246.70 C 197.25,246.85 197.30,246.98 197.36,247.11 C 197.41,247.24 197.47,247.36 197.53,247.47 C 197.59,247.58 197.65,247.68 197.72,247.78 C 197.78,247.88 197.85,247.97 197.92,248.05 C 197.99,248.13 198.07,248.20 198.14,248.27 C 198.22,248.33 198.29,248.39 198.38,248.44 C 198.46,248.49 198.56,248.51 198.62,248.56 C 198.69,248.62 198.74,248.68 198.77,248.76 C 198.81,248.83 198.82,248.92 198.82,249.02 C 198.82,249.12 198.80,249.24 198.77,249.36 C 198.73,249.48 198.68,249.62 198.61,249.77 C 198.54,249.91 198.45,250.07 198.35,250.24 C 198.25,250.41 198.13,250.60 197.99,250.79 C 197.86,250.98 197.70,251.19 197.53,251.41 C 197.36,251.62 197.16,251.88 196.97,252.09 C 196.78,252.30 196.59,252.49 196.40,252.66 C 196.21,252.83 196.01,252.99 195.82,253.12 C 195.63,253.25 195.43,253.36 195.23,253.45 C 195.04,253.55 194.84,253.62 194.64,253.67 C 194.44,253.73 194.24,253.76 194.04,253.77 C 193.84,253.79 193.63,253.78 193.43,253.76 C 193.23,253.73 193.02,253.69 192.81,253.62 C 192.61,253.56 192.39,253.44 192.19,253.38 C 191.99,253.31 191.80,253.27 191.62,253.26 C 191.44,253.24 191.26,253.25 191.10,253.27 C 190.94,253.30 190.79,253.35 190.64,253.42 C 190.50,253.49 190.36,253.59 190.23,253.70 C 190.11,253.82 189.99,253.96 189.88,254.12 C 189.77,254.28 189.68,254.46 189.59,254.66 C 189.50,254.87 189.42,255.10 189.34,255.34 C 189.27,255.59 189.20,255.89 189.16,256.16 C 189.11,256.42 189.08,256.67 189.06,256.92 C 189.05,257.17 189.05,257.41 189.06,257.64 C 189.08,257.87 189.11,258.10 189.16,258.31 C 189.20,258.53 189.27,258.74 189.34,258.94 C 189.42,259.14 189.52,259.33 189.62,259.52 C 189.73,259.70 189.86,259.88 190.00,260.05 C 190.14,260.22 190.30,260.38 190.47,260.53 C 190.64,260.68 190.83,260.84 191.03,260.97 C 191.23,261.10 191.45,261.22 191.68,261.32 C 191.91,261.42 192.15,261.51 192.41,261.59 C 192.67,261.66 192.95,261.72 193.23,261.77 C 193.52,261.81 193.82,261.84 194.14,261.86 C 194.46,261.88 194.79,261.88 195.13,261.87 C 195.48,261.86 195.84,261.83 196.21,261.79 C 196.58,261.75 196.97,261.69 197.38,261.62 C 197.78,261.56 198.23,261.44 198.62,261.38 C 199.02,261.31 199.40,261.26 199.77,261.22 C 200.13,261.18 200.47,261.16 200.80,261.16 C 201.12,261.15 201.43,261.16 201.72,261.19 C 202.01,261.21 202.28,261.26 202.53,261.31 C 202.78,261.37 203.02,261.44 203.23,261.53 C 203.45,261.62 203.65,261.72 203.83,261.84 C 204.01,261.96 204.17,262.10 204.31,262.25 C 204.46,262.40 204.56,262.60 204.69,262.75 C 204.81,262.90 204.94,263.04 205.06,263.17 C 205.19,263.30 205.31,263.41 205.44,263.52 C 205.56,263.62 205.69,263.71 205.81,263.78 C 205.94,263.86 206.06,263.92 206.19,263.97 C 206.31,264.02 206.44,264.05 206.56,264.08 C 206.69,264.10 206.81,264.11 206.94,264.11 C 207.06,264.11 207.19,264.09 207.31,264.06 C 207.44,264.03 207.57,263.97 207.69,263.94 C 207.81,263.90 207.93,263.87 208.04,263.85 C 208.15,263.83 208.26,263.81 208.37,263.80 C 208.47,263.80 208.57,263.79 208.67,263.80 C 208.77,263.80 208.86,263.81 208.95,263.83 C 209.04,263.85 209.13,263.87 209.21,263.90 C 209.29,263.93 209.37,263.96 209.45,264.01 C 209.52,264.05 209.59,264.10 209.66,264.16 C 209.72,264.21 209.80,264.28 209.84,264.34 C 209.89,264.40 209.92,264.46 209.94,264.52 C 209.95,264.57 209.95,264.62 209.94,264.67 C 209.92,264.72 209.89,264.77 209.84,264.81 C 209.80,264.86 209.73,264.90 209.66,264.94 C 209.58,264.98 209.48,265.01 209.38,265.05 C 209.27,265.08 209.14,265.11 209.00,265.14 C 208.86,265.17 208.70,265.20 208.53,265.22 C 208.36,265.24 208.15,265.24 207.97,265.28 C 207.79,265.32 207.61,265.37 207.43,265.45 C 207.25,265.52 207.08,265.61 206.91,265.71 C 206.75,265.82 206.58,265.94 206.42,266.08 C 206.26,266.22 206.11,266.37 205.95,266.55 C 205.80,266.72 205.65,266.91 205.51,267.12 C 205.36,267.32 205.22,267.55 205.09,267.79 C 204.95,268.03 204.82,268.29 204.69,268.56 C 204.56,268.84 204.45,269.16 204.31,269.44 C 204.18,269.71 204.04,269.97 203.89,270.20 C 203.74,270.44 203.59,270.66 203.42,270.86 C 203.26,271.06 203.09,271.24 202.91,271.41 C 202.73,271.57 202.54,271.72 202.34,271.84 C 202.15,271.97 201.95,272.08 201.73,272.17 C 201.52,272.26 201.30,272.34 201.08,272.39 C 200.85,272.45 200.62,272.48 200.38,272.50 C 200.13,272.52 199.86,272.51 199.62,272.50 C 199.39,272.49 199.16,272.48 198.94,272.47 C 198.72,272.45 198.51,272.43 198.31,272.41 C 198.11,272.38 197.93,272.35 197.75,272.31 C 197.57,272.28 197.41,272.23 197.25,272.19 C 197.09,272.14 196.95,272.09 196.81,272.03 C 196.68,271.97 196.55,271.91 196.44,271.84 C 196.32,271.78 196.22,271.70 196.12,271.62 C 196.03,271.55 195.95,271.44 195.88,271.38 C 195.80,271.31 195.72,271.26 195.65,271.23 C 195.58,271.19 195.51,271.18 195.45,271.18 C 195.38,271.18 195.32,271.20 195.27,271.23 C 195.21,271.27 195.16,271.32 195.11,271.39 C 195.06,271.46 195.02,271.55 194.98,271.65 C 194.94,271.75 194.90,271.87 194.87,272.01 C 194.83,272.14 194.81,272.30 194.78,272.47 C 194.76,272.64 194.75,272.85 194.72,273.03 C 194.69,273.22 194.65,273.40 194.59,273.58 C 194.54,273.76 194.48,273.93 194.41,274.11 C 194.33,274.28 194.25,274.46 194.16,274.62 C 194.06,274.79 193.96,274.96 193.84,275.12 C 193.73,275.29 193.60,275.45 193.47,275.61 C 193.33,275.77 193.19,275.92 193.03,276.08 C 192.88,276.23 192.71,276.38 192.53,276.53 C 192.35,276.68 192.17,276.84 191.97,276.97 C 191.77,277.09 191.55,277.20 191.33,277.28 C 191.10,277.36 190.86,277.43 190.61,277.47 C 190.36,277.51 190.09,277.53 189.81,277.53 C 189.53,277.53 189.24,277.51 188.94,277.47 C 188.63,277.43 188.32,277.36 187.98,277.28 C 187.65,277.20 187.31,277.09 186.95,276.97 C 186.60,276.84 186.23,276.70 185.84,276.53 C 185.46,276.36 185.02,276.15 184.66,275.97 C 184.29,275.78 183.96,275.60 183.66,275.42 C 183.35,275.24 183.08,275.07 182.84,274.89 C 182.60,274.72 182.40,274.54 182.22,274.38 C 182.04,274.21 181.90,274.04 181.78,273.88 C 181.67,273.71 181.58,273.55 181.53,273.39 C 181.48,273.23 181.46,273.08 181.47,272.92 C 181.48,272.77 181.52,272.62 181.59,272.47 C 181.67,272.32 181.84,272.17 181.91,272.03 C 181.98,271.89 182.01,271.77 182.01,271.65 C 182.01,271.53 181.97,271.42 181.90,271.32 C 181.83,271.22 181.72,271.13 181.58,271.05 C 181.44,270.96 181.26,270.89 181.05,270.83 C 180.83,270.76 180.59,270.71 180.30,270.66 C 180.02,270.62 179.70,270.58 179.35,270.55 C 179.00,270.53 178.61,270.51 178.19,270.50 C 177.76,270.49 177.24,270.50 176.81,270.50 C 176.38,270.50 175.98,270.51 175.60,270.52 C 175.23,270.54 174.88,270.55 174.55,270.57 C 174.23,270.59 173.94,270.61 173.67,270.64 C 173.40,270.67 173.17,270.70 172.95,270.73 C 172.74,270.77 172.56,270.81 172.40,270.85 C 172.24,270.89 172.11,270.94 172.01,270.99 C 171.90,271.04 171.83,271.10 171.78,271.16 C 171.73,271.21 171.73,271.28 171.72,271.34 C 171.71,271.40 171.71,271.46 171.72,271.52 C 171.73,271.57 171.75,271.62 171.78,271.67 C 171.81,271.72 171.85,271.77 171.91,271.81 C 171.96,271.86 172.02,271.90 172.09,271.94 C 172.17,271.98 172.25,272.01 172.34,272.05 C 172.44,272.08 172.54,272.11 172.66,272.14 C 172.77,272.17 172.90,272.20 173.03,272.22 C 173.17,272.24 173.33,272.25 173.47,272.28 C 173.61,272.31 173.74,272.35 173.88,272.39 C 174.01,272.43 174.13,272.49 174.25,272.55 C 174.37,272.61 174.48,272.67 174.59,272.75 C 174.70,272.83 174.81,272.91 174.91,273.00 C 175.01,273.09 175.10,273.19 175.19,273.30 C 175.28,273.40 175.36,273.52 175.44,273.64 C 175.52,273.76 175.59,273.89 175.66,274.03 C 175.72,274.17 175.82,274.31 175.84,274.47 C 175.87,274.62 175.86,274.79 175.81,274.97 C 175.77,275.15 175.68,275.33 175.56,275.53 C 175.44,275.73 175.29,275.94 175.09,276.16 C 174.90,276.38 174.67,276.60 174.41,276.84 C 174.14,277.08 173.84,277.33 173.50,277.59 C 173.16,277.85 172.79,278.12 172.38,278.41 C 171.96,278.69 171.52,278.98 171.03,279.28 C 170.55,279.58 169.99,279.93 169.47,280.22 C 168.95,280.51 168.43,280.79 167.91,281.04 C 167.40,281.29 166.88,281.53 166.37,281.74 C 165.85,281.96 165.34,282.15 164.83,282.33 C 164.32,282.50 163.81,282.66 163.30,282.80 C 162.79,282.93 162.28,283.05 161.77,283.15 C 161.27,283.25 160.76,283.32 160.26,283.38 C 159.75,283.44 159.25,283.48 158.75,283.50 Z" stroke="none" fill="currentColor" opacity="0.11" />
  <path d="M157.20,270.42L167.84,270.42 M167.84,270.32L157.20,270.32 M167.84,272.14L157.20,272.14 M157.20,272.25L167.84,272.25 M75.67,261.49L93.64,261.47 M75.67,267.27L93.64,267.24 M75.67,249.28L93.64,249.31 M75.67,243.51L93.64,243.53 M91.75,272.36L81.67,272.36 M91.76,272.35L81.67,272.35 M91.79,272.35L81.70,272.35 M81.67,272.44L91.76,272.44 M81.70,272.44L91.79,272.44 M125.16,269.24L135.79,269.24 M135.79,269.14L125.16,269.14 M135.79,270.96L125.16,270.96 M125.16,271.07L135.79,271.07 M135.79,244.35L120.90,244.35 M135.79,244.45L120.90,244.45 M120.90,242.62L135.79,242.62 M120.90,242.52L135.79,242.52 M232.44,242.59L249.02,245.55 M232.52,241.96L249.10,244.92 M241.19,239.75L230.40,238.19 M230.31,238.82L241.11,240.38 M221.20,272.95L238.06,274.28 M221.27,272.36L238.12,273.68 M229.97,269.54L219.14,269.12 M219.07,269.72L229.91,270.13 M160.52,256.42L177.43,256.42 M177.43,255.36L160.51,255.35" stroke="currentColor" stroke-width="0.6" stroke-linecap="round" fill="none" opacity="0.55" clip-path="url(#hull-clip)" filter="url(#glow)" />
  <path d="M 158.75,283.50 C 158.25,283.52 157.72,283.50 157.25,283.50 C 156.78,283.50 156.33,283.49 155.91,283.48 C 155.50,283.46 155.11,283.45 154.74,283.43 C 154.38,283.41 154.04,283.39 153.73,283.36 C 153.43,283.33 153.14,283.30 152.89,283.27 C 152.64,283.23 152.41,283.19 152.21,283.15 C 152.01,283.11 151.84,283.06 151.70,283.01 C 151.55,282.96 151.43,282.90 151.34,282.84 C 151.25,282.79 151.21,282.72 151.16,282.66 C 151.11,282.59 151.07,282.52 151.04,282.45 C 151.01,282.37 151.00,282.29 150.99,282.21 C 150.99,282.13 151.00,282.04 151.02,281.95 C 151.04,281.86 151.07,281.77 151.11,281.67 C 151.15,281.57 151.21,281.47 151.27,281.37 C 151.34,281.26 151.42,281.15 151.51,281.04 C 151.60,280.93 151.70,280.81 151.81,280.69 C 151.93,280.57 152.08,280.43 152.19,280.31 C 152.29,280.19 152.38,280.07 152.45,279.95 C 152.52,279.84 152.58,279.72 152.61,279.61 C 152.64,279.50 152.66,279.39 152.66,279.28 C 152.65,279.17 152.63,279.07 152.59,278.97 C 152.55,278.87 152.50,278.77 152.42,278.67 C 152.35,278.58 152.25,278.48 152.14,278.39 C 152.03,278.30 151.90,278.21 151.75,278.12 C 151.60,278.04 151.41,277.96 151.25,277.88 C 151.09,277.79 150.95,277.70 150.81,277.61 C 150.68,277.52 150.55,277.42 150.44,277.33 C 150.32,277.23 150.22,277.13 150.12,277.03 C 150.03,276.93 149.95,276.83 149.88,276.72 C 149.80,276.61 149.74,276.50 149.69,276.39 C 149.64,276.28 149.59,276.16 149.56,276.05 C 149.53,275.93 149.51,275.81 149.50,275.69 C 149.49,275.57 149.49,275.44 149.50,275.31 C 149.51,275.19 149.53,275.06 149.55,274.93 C 149.58,274.80 149.62,274.67 149.66,274.54 C 149.71,274.41 149.76,274.27 149.83,274.14 C 149.89,274.01 149.96,273.87 150.05,273.73 C 150.13,273.60 150.22,273.46 150.32,273.32 C 150.42,273.18 150.53,273.04 150.65,272.90 C 150.77,272.76 150.89,272.61 151.03,272.47 C 151.17,272.32 151.36,272.17 151.47,272.03 C 151.58,271.90 151.66,271.77 151.71,271.66 C 151.76,271.55 151.77,271.45 151.76,271.37 C 151.74,271.28 151.69,271.20 151.61,271.14 C 151.53,271.08 151.41,271.02 151.27,270.98 C 151.12,270.94 150.94,270.92 150.73,270.90 C 150.51,270.88 150.27,270.88 149.99,270.88 C 149.71,270.89 149.40,270.91 149.06,270.94 C 148.72,270.97 148.30,271.01 147.94,271.06 C 147.57,271.12 147.22,271.18 146.88,271.27 C 146.53,271.35 146.20,271.44 145.88,271.55 C 145.55,271.65 145.24,271.77 144.94,271.91 C 144.64,272.04 144.34,272.18 144.06,272.34 C 143.78,272.50 143.51,272.67 143.25,272.86 C 142.99,273.04 142.74,273.24 142.50,273.45 C 142.26,273.66 142.03,273.89 141.81,274.12 C 141.59,274.36 141.43,274.63 141.19,274.88 C 140.95,275.12 140.68,275.36 140.38,275.59 C 140.07,275.83 139.74,276.06 139.38,276.28 C 139.01,276.51 138.61,276.72 138.19,276.94 C 137.76,277.15 137.30,277.36 136.81,277.56 C 136.32,277.77 135.80,277.96 135.25,278.16 C 134.70,278.35 134.11,278.54 133.50,278.72 C 132.89,278.90 132.24,279.08 131.56,279.25 C 130.89,279.42 130.14,279.59 129.44,279.75 C 128.73,279.91 128.04,280.05 127.34,280.19 C 126.65,280.32 125.96,280.45 125.28,280.56 C 124.60,280.68 123.92,280.78 123.25,280.88 C 122.58,280.97 121.91,281.05 121.25,281.12 C 120.59,281.20 119.93,281.26 119.28,281.31 C 118.63,281.36 117.98,281.41 117.34,281.44 C 116.70,281.47 116.07,281.49 115.44,281.50 C 114.81,281.51 114.17,281.51 113.56,281.50 C 112.96,281.49 112.37,281.46 111.80,281.43 C 111.24,281.39 110.69,281.35 110.16,281.29 C 109.64,281.23 109.13,281.16 108.64,281.08 C 108.15,281.00 107.68,280.90 107.23,280.80 C 106.79,280.69 106.36,280.57 105.95,280.45 C 105.54,280.32 105.14,280.18 104.77,280.02 C 104.40,279.87 104.05,279.71 103.72,279.53 C 103.39,279.36 103.08,279.15 102.78,278.97 C 102.49,278.79 102.21,278.61 101.95,278.45 C 101.68,278.28 101.44,278.12 101.21,277.96 C 100.98,277.81 100.77,277.66 100.58,277.52 C 100.38,277.37 100.21,277.24 100.05,277.11 C 99.89,276.98 99.74,276.86 99.62,276.74 C 99.49,276.63 99.38,276.52 99.29,276.41 C 99.20,276.31 99.12,276.21 99.06,276.12 C 99.00,276.04 98.97,275.96 98.94,275.88 C 98.90,275.79 98.88,275.70 98.86,275.61 C 98.84,275.52 98.83,275.42 98.83,275.33 C 98.83,275.23 98.83,275.13 98.84,275.03 C 98.86,274.93 98.88,274.83 98.91,274.72 C 98.93,274.61 98.97,274.50 99.02,274.39 C 99.06,274.28 99.11,274.16 99.17,274.05 C 99.23,273.93 99.30,273.81 99.38,273.69 C 99.45,273.57 99.55,273.43 99.62,273.31 C 99.70,273.19 99.76,273.07 99.82,272.96 C 99.88,272.85 99.92,272.74 99.96,272.63 C 100.00,272.53 100.03,272.43 100.05,272.33 C 100.07,272.23 100.08,272.14 100.08,272.05 C 100.08,271.96 100.07,271.87 100.05,271.79 C 100.04,271.71 100.01,271.63 99.98,271.55 C 99.94,271.48 99.90,271.41 99.84,271.34 C 99.79,271.28 99.72,271.20 99.66,271.16 C 99.59,271.11 99.52,271.08 99.45,271.07 C 99.37,271.06 99.29,271.06 99.21,271.09 C 99.13,271.11 99.04,271.15 98.95,271.20 C 98.86,271.26 98.77,271.33 98.67,271.42 C 98.57,271.51 98.47,271.62 98.37,271.74 C 98.26,271.87 98.15,272.01 98.04,272.16 C 97.93,272.32 97.81,272.50 97.69,272.69 C 97.57,272.88 97.48,273.12 97.31,273.31 C 97.15,273.51 96.95,273.69 96.70,273.86 C 96.46,274.03 96.18,274.18 95.86,274.33 C 95.54,274.47 95.18,274.60 94.78,274.72 C 94.38,274.84 93.95,274.94 93.47,275.03 C 92.99,275.12 92.48,275.20 91.92,275.27 C 91.37,275.33 90.77,275.38 90.14,275.42 C 89.51,275.46 88.84,275.49 88.12,275.50 C 87.41,275.51 86.58,275.51 85.88,275.50 C 85.17,275.49 84.50,275.48 83.87,275.46 C 83.24,275.44 82.65,275.42 82.10,275.38 C 81.55,275.35 81.05,275.31 80.58,275.27 C 80.11,275.22 79.68,275.17 79.30,275.11 C 78.91,275.05 78.56,274.99 78.26,274.91 C 77.95,274.84 77.69,274.76 77.46,274.68 C 77.24,274.60 77.05,274.50 76.91,274.41 C 76.76,274.31 76.69,274.20 76.59,274.09 C 76.50,273.99 76.41,273.88 76.34,273.77 C 76.26,273.67 76.19,273.56 76.13,273.45 C 76.07,273.33 76.02,273.22 75.98,273.11 C 75.94,273.00 75.91,272.88 75.89,272.77 C 75.87,272.65 75.86,272.53 75.85,272.41 C 75.85,272.30 75.85,272.18 75.87,272.05 C 75.88,271.93 75.90,271.81 75.94,271.69 C 75.97,271.56 76.03,271.44 76.06,271.31 C 76.09,271.19 76.11,271.06 76.12,270.93 C 76.12,270.80 76.12,270.67 76.10,270.54 C 76.08,270.41 76.06,270.27 76.02,270.14 C 75.98,270.01 75.92,269.87 75.86,269.73 C 75.80,269.60 75.72,269.46 75.63,269.32 C 75.55,269.18 75.45,269.04 75.34,268.90 C 75.23,268.76 75.10,268.61 74.97,268.47 C 74.83,268.32 74.68,268.17 74.53,268.03 C 74.39,267.89 74.24,267.76 74.09,267.64 C 73.95,267.52 73.80,267.40 73.66,267.30 C 73.51,267.19 73.36,267.09 73.22,267.00 C 73.07,266.91 72.93,266.83 72.78,266.75 C 72.64,266.67 72.49,266.61 72.34,266.55 C 72.20,266.49 72.05,266.43 71.91,266.39 C 71.76,266.35 71.61,266.31 71.47,266.28 C 71.32,266.25 71.17,266.26 71.03,266.22 C 70.89,266.17 70.76,266.11 70.64,266.02 C 70.52,265.92 70.40,265.81 70.30,265.67 C 70.19,265.53 70.09,265.37 70.00,265.19 C 69.91,265.00 69.83,264.79 69.75,264.56 C 69.67,264.33 69.61,264.08 69.55,263.80 C 69.49,263.52 69.43,263.22 69.39,262.89 C 69.35,262.57 69.31,262.22 69.28,261.84 C 69.25,261.47 69.25,261.01 69.22,260.66 C 69.19,260.30 69.14,259.98 69.09,259.70 C 69.03,259.41 68.96,259.17 68.88,258.96 C 68.80,258.75 68.71,258.58 68.61,258.45 C 68.51,258.32 68.39,258.23 68.27,258.17 C 68.14,258.12 68.00,258.10 67.85,258.12 C 67.70,258.14 67.54,258.19 67.37,258.29 C 67.19,258.38 67.01,258.52 66.81,258.69 C 66.62,258.86 66.39,259.12 66.19,259.31 C 65.98,259.51 65.78,259.69 65.58,259.86 C 65.38,260.03 65.18,260.18 64.98,260.33 C 64.79,260.47 64.60,260.60 64.41,260.72 C 64.22,260.84 64.03,260.94 63.84,261.03 C 63.66,261.12 63.48,261.20 63.30,261.27 C 63.12,261.33 62.94,261.38 62.77,261.42 C 62.59,261.46 62.42,261.49 62.25,261.50 C 62.08,261.51 61.92,261.51 61.75,261.50 C 61.58,261.49 61.41,261.47 61.24,261.45 C 61.07,261.42 60.90,261.38 60.73,261.34 C 60.55,261.29 60.38,261.24 60.20,261.17 C 60.03,261.11 59.85,261.04 59.67,260.95 C 59.49,260.87 59.31,260.78 59.13,260.68 C 58.95,260.58 58.77,260.47 58.59,260.35 C 58.40,260.23 58.22,260.11 58.03,259.97 C 57.85,259.83 57.64,259.69 57.47,259.53 C 57.29,259.38 57.13,259.21 56.98,259.04 C 56.82,258.87 56.68,258.68 56.55,258.49 C 56.43,258.30 56.31,258.10 56.20,257.89 C 56.10,257.68 56.00,257.46 55.92,257.23 C 55.84,257.01 55.77,256.77 55.71,256.52 C 55.65,256.28 55.61,256.02 55.57,255.76 C 55.54,255.49 55.51,255.22 55.50,254.94 C 55.49,254.65 55.49,254.34 55.50,254.06 C 55.51,253.78 55.52,253.51 55.54,253.26 C 55.56,253.00 55.58,252.76 55.62,252.52 C 55.65,252.29 55.69,252.07 55.73,251.86 C 55.78,251.65 55.83,251.45 55.89,251.27 C 55.95,251.08 56.01,250.90 56.09,250.74 C 56.16,250.58 56.24,250.43 56.32,250.29 C 56.40,250.15 56.50,250.02 56.59,249.91 C 56.69,249.79 56.79,249.69 56.91,249.59 C 57.02,249.50 57.16,249.40 57.30,249.32 C 57.45,249.24 57.61,249.16 57.79,249.09 C 57.96,249.01 58.15,248.95 58.36,248.89 C 58.56,248.83 58.78,248.78 59.02,248.73 C 59.25,248.69 59.50,248.65 59.76,248.62 C 60.02,248.58 60.30,248.56 60.59,248.54 C 60.88,248.52 61.18,248.51 61.50,248.50 C 61.82,248.49 62.18,248.49 62.50,248.50 C 62.82,248.51 63.13,248.54 63.43,248.57 C 63.73,248.61 64.01,248.65 64.29,248.71 C 64.56,248.77 64.83,248.84 65.08,248.92 C 65.33,249.00 65.57,249.10 65.80,249.20 C 66.02,249.31 66.24,249.43 66.45,249.55 C 66.65,249.68 66.84,249.82 67.02,249.98 C 67.20,250.13 67.37,250.29 67.53,250.47 C 67.69,250.64 67.83,250.90 67.97,251.03 C 68.11,251.16 68.23,251.24 68.35,251.26 C 68.47,251.28 68.58,251.24 68.68,251.15 C 68.78,251.06 68.87,250.91 68.95,250.70 C 69.04,250.50 69.11,250.24 69.17,249.92 C 69.24,249.61 69.29,249.23 69.34,248.80 C 69.38,248.38 69.42,247.89 69.45,247.35 C 69.47,246.81 69.49,246.21 69.50,245.56 C 69.51,244.91 69.49,244.11 69.50,243.44 C 69.51,242.77 69.52,242.13 69.54,241.54 C 69.56,240.94 69.58,240.39 69.62,239.87 C 69.65,239.35 69.69,238.87 69.73,238.42 C 69.78,237.98 69.83,237.57 69.89,237.20 C 69.95,236.83 70.01,236.50 70.09,236.21 C 70.16,235.92 70.24,235.66 70.32,235.45 C 70.40,235.23 70.50,235.05 70.59,234.91 C 70.69,234.76 70.77,234.69 70.91,234.59 C 71.04,234.50 71.21,234.40 71.41,234.32 C 71.62,234.24 71.85,234.16 72.12,234.09 C 72.38,234.01 72.68,233.95 73.02,233.89 C 73.35,233.83 73.71,233.78 74.11,233.73 C 74.51,233.69 74.94,233.65 75.40,233.62 C 75.86,233.58 76.36,233.56 76.88,233.54 C 77.41,233.52 77.97,233.51 78.56,233.50 C 79.15,233.49 79.85,233.50 80.44,233.50 C 81.03,233.50 81.59,233.51 82.12,233.52 C 82.64,233.54 83.14,233.55 83.60,233.57 C 84.06,233.59 84.49,233.61 84.89,233.64 C 85.29,233.67 85.65,233.70 85.98,233.73 C 86.32,233.77 86.62,233.81 86.88,233.85 C 87.15,233.89 87.38,233.94 87.59,233.99 C 87.79,234.04 87.96,234.10 88.09,234.16 C 88.23,234.21 88.31,234.27 88.41,234.34 C 88.50,234.41 88.60,234.49 88.68,234.57 C 88.76,234.65 88.84,234.74 88.91,234.84 C 88.99,234.93 89.05,235.03 89.11,235.14 C 89.17,235.25 89.22,235.36 89.27,235.48 C 89.31,235.61 89.35,235.73 89.38,235.87 C 89.42,236.00 89.44,236.14 89.46,236.29 C 89.48,236.44 89.49,236.59 89.50,236.75 C 89.51,236.91 89.49,237.09 89.50,237.25 C 89.51,237.41 89.54,237.57 89.57,237.73 C 89.61,237.88 89.65,238.03 89.71,238.18 C 89.77,238.33 89.84,238.47 89.92,238.61 C 90.00,238.75 90.10,238.88 90.20,239.02 C 90.31,239.15 90.43,239.27 90.55,239.40 C 90.68,239.52 90.82,239.64 90.98,239.76 C 91.13,239.87 91.29,239.99 91.47,240.09 C 91.64,240.20 91.84,240.31 92.03,240.41 C 92.22,240.50 92.42,240.58 92.62,240.65 C 92.82,240.72 93.02,240.77 93.23,240.82 C 93.43,240.87 93.64,240.90 93.86,240.92 C 94.07,240.94 94.29,240.95 94.52,240.95 C 94.74,240.95 94.96,240.94 95.20,240.91 C 95.43,240.89 95.66,240.85 95.90,240.80 C 96.14,240.76 96.38,240.70 96.62,240.62 C 96.87,240.55 97.14,240.47 97.38,240.38 C 97.61,240.28 97.82,240.18 98.02,240.07 C 98.22,239.96 98.40,239.84 98.57,239.71 C 98.74,239.58 98.88,239.44 99.02,239.30 C 99.15,239.15 99.26,238.99 99.36,238.83 C 99.46,238.66 99.54,238.49 99.60,238.30 C 99.67,238.12 99.71,237.93 99.74,237.73 C 99.77,237.52 99.79,237.31 99.78,237.09 C 99.78,236.87 99.72,236.63 99.72,236.41 C 99.72,236.18 99.74,235.96 99.78,235.73 C 99.82,235.51 99.89,235.29 99.97,235.08 C 100.05,234.86 100.16,234.65 100.28,234.44 C 100.41,234.23 100.55,234.02 100.72,233.81 C 100.89,233.61 101.07,233.40 101.28,233.20 C 101.49,233.00 101.72,232.80 101.97,232.61 C 102.22,232.41 102.49,232.22 102.78,232.03 C 103.07,231.84 103.38,231.64 103.72,231.47 C 104.06,231.29 104.42,231.13 104.81,230.98 C 105.20,230.84 105.62,230.70 106.06,230.58 C 106.51,230.46 106.97,230.35 107.47,230.25 C 107.96,230.15 108.48,230.07 109.03,230.00 C 109.58,229.93 110.15,229.87 110.75,229.83 C 111.35,229.78 111.97,229.75 112.62,229.73 C 113.28,229.72 113.95,229.71 114.66,229.72 C 115.36,229.73 116.12,229.75 116.84,229.78 C 117.57,229.81 118.28,229.85 118.98,229.89 C 119.69,229.93 120.39,229.99 121.08,230.05 C 121.77,230.11 122.45,230.17 123.12,230.25 C 123.80,230.33 124.47,230.41 125.12,230.50 C 125.78,230.59 126.43,230.69 127.08,230.80 C 127.72,230.90 128.36,231.02 128.98,231.14 C 129.61,231.26 130.23,231.39 130.84,231.53 C 131.46,231.67 132.08,231.82 132.66,231.97 C 133.23,232.12 133.77,232.26 134.27,232.41 C 134.78,232.56 135.25,232.71 135.70,232.87 C 136.14,233.02 136.55,233.17 136.92,233.33 C 137.30,233.48 137.64,233.64 137.95,233.80 C 138.26,233.95 138.54,234.11 138.79,234.27 C 139.04,234.43 139.25,234.60 139.43,234.76 C 139.61,234.92 139.76,235.08 139.88,235.25 C 139.99,235.42 140.03,235.59 140.12,235.75 C 140.22,235.91 140.32,236.08 140.44,236.23 C 140.55,236.39 140.68,236.55 140.81,236.70 C 140.95,236.86 141.09,237.01 141.25,237.16 C 141.41,237.30 141.57,237.45 141.75,237.59 C 141.93,237.74 142.11,237.88 142.31,238.02 C 142.51,238.15 142.72,238.29 142.94,238.42 C 143.16,238.55 143.39,238.68 143.62,238.81 C 143.86,238.94 144.12,239.07 144.38,239.19 C 144.63,239.30 144.88,239.41 145.13,239.51 C 145.39,239.61 145.64,239.69 145.90,239.77 C 146.15,239.85 146.41,239.92 146.67,239.98 C 146.93,240.05 147.19,240.10 147.45,240.14 C 147.71,240.18 147.98,240.22 148.24,240.24 C 148.51,240.27 148.77,240.28 149.04,240.29 C 149.31,240.30 149.57,240.29 149.84,240.28 C 150.11,240.27 150.41,240.24 150.66,240.22 C 150.90,240.19 151.12,240.17 151.30,240.13 C 151.49,240.10 151.65,240.06 151.79,240.02 C 151.92,239.98 152.03,239.94 152.11,239.89 C 152.19,239.84 152.24,239.79 152.27,239.73 C 152.29,239.68 152.29,239.62 152.26,239.55 C 152.23,239.49 152.17,239.42 152.09,239.35 C 152.00,239.28 151.89,239.20 151.75,239.12 C 151.61,239.05 151.41,238.96 151.25,238.88 C 151.09,238.79 150.95,238.70 150.81,238.61 C 150.68,238.52 150.55,238.42 150.44,238.33 C 150.32,238.23 150.22,238.13 150.12,238.03 C 150.03,237.93 149.95,237.83 149.88,237.72 C 149.80,237.61 149.74,237.50 149.69,237.39 C 149.64,237.28 149.59,237.16 149.56,237.05 C 149.53,236.93 149.51,236.81 149.50,236.69 C 149.49,236.57 149.49,236.44 149.50,236.31 C 149.51,236.19 149.53,236.06 149.56,235.94 C 149.59,235.81 149.64,235.69 149.69,235.56 C 149.74,235.44 149.80,235.31 149.88,235.19 C 149.95,235.06 150.03,234.94 150.12,234.81 C 150.22,234.69 150.32,234.56 150.44,234.44 C 150.55,234.31 150.68,234.19 150.81,234.06 C 150.95,233.94 151.09,233.81 151.25,233.69 C 151.41,233.56 151.60,233.44 151.75,233.31 C 151.90,233.19 152.03,233.06 152.14,232.94 C 152.25,232.81 152.35,232.69 152.42,232.56 C 152.50,232.44 152.55,232.31 152.59,232.19 C 152.63,232.06 152.65,231.94 152.66,231.81 C 152.66,231.69 152.64,231.56 152.61,231.44 C 152.58,231.31 152.52,231.19 152.45,231.06 C 152.38,230.94 152.29,230.81 152.19,230.69 C 152.08,230.56 151.93,230.43 151.81,230.31 C 151.70,230.19 151.60,230.07 151.51,229.96 C 151.42,229.85 151.34,229.74 151.27,229.63 C 151.21,229.53 151.15,229.43 151.11,229.33 C 151.07,229.23 151.04,229.14 151.02,229.05 C 151.00,228.96 150.99,228.87 150.99,228.79 C 151.00,228.71 151.01,228.63 151.04,228.55 C 151.07,228.48 151.11,228.41 151.16,228.34 C 151.21,228.28 151.25,228.21 151.34,228.16 C 151.43,228.10 151.55,228.04 151.70,227.99 C 151.84,227.94 152.01,227.89 152.21,227.85 C 152.41,227.81 152.64,227.77 152.89,227.73 C 153.14,227.70 153.43,227.67 153.73,227.64 C 154.04,227.61 154.38,227.59 154.74,227.57 C 155.11,227.55 155.50,227.54 155.91,227.52 C 156.33,227.51 156.78,227.50 157.25,227.50 C 157.72,227.50 158.26,227.49 158.75,227.50 C 159.24,227.51 159.71,227.54 160.17,227.58 C 160.63,227.62 161.08,227.67 161.52,227.73 C 161.95,227.80 162.37,227.88 162.78,227.97 C 163.19,228.06 163.59,228.16 163.97,228.28 C 164.35,228.40 164.72,228.53 165.08,228.67 C 165.43,228.82 165.78,228.97 166.11,229.14 C 166.44,229.31 166.76,229.49 167.06,229.69 C 167.37,229.88 167.65,230.11 167.94,230.31 C 168.22,230.51 168.51,230.70 168.78,230.88 C 169.06,231.05 169.33,231.22 169.59,231.38 C 169.86,231.53 170.12,231.68 170.38,231.81 C 170.63,231.95 170.88,232.07 171.12,232.19 C 171.37,232.30 171.61,232.41 171.84,232.50 C 172.08,232.59 172.31,232.68 172.53,232.75 C 172.76,232.82 172.97,232.89 173.19,232.94 C 173.40,232.99 173.62,233.01 173.81,233.06 C 174.01,233.11 174.19,233.17 174.37,233.23 C 174.54,233.29 174.70,233.36 174.85,233.43 C 175.00,233.50 175.14,233.58 175.27,233.67 C 175.39,233.76 175.51,233.85 175.61,233.95 C 175.71,234.05 175.80,234.16 175.88,234.27 C 175.96,234.39 176.03,234.51 176.09,234.63 C 176.14,234.76 176.19,234.89 176.22,235.03 C 176.25,235.17 176.27,235.33 176.28,235.47 C 176.29,235.61 176.29,235.75 176.28,235.89 C 176.27,236.03 176.25,236.16 176.22,236.30 C 176.19,236.43 176.15,236.56 176.09,236.69 C 176.04,236.82 175.98,236.94 175.91,237.06 C 175.83,237.18 175.75,237.30 175.66,237.42 C 175.56,237.54 175.46,237.65 175.34,237.77 C 175.23,237.88 175.10,237.99 174.97,238.09 C 174.83,238.20 174.67,238.31 174.53,238.41 C 174.39,238.50 174.26,238.59 174.13,238.66 C 174.01,238.74 173.89,238.81 173.77,238.87 C 173.66,238.93 173.55,238.98 173.45,239.02 C 173.35,239.06 173.26,239.09 173.17,239.11 C 173.08,239.13 173.00,239.14 172.93,239.15 C 172.86,239.15 172.79,239.15 172.73,239.13 C 172.67,239.12 172.61,239.10 172.56,239.06 C 172.51,239.03 172.48,238.97 172.44,238.94 C 172.40,238.90 172.36,238.88 172.33,238.86 C 172.29,238.84 172.26,238.83 172.23,238.83 C 172.21,238.83 172.18,238.83 172.16,238.84 C 172.13,238.86 172.11,238.88 172.09,238.91 C 172.08,238.93 172.06,238.97 172.05,239.02 C 172.03,239.06 172.02,239.11 172.02,239.17 C 172.01,239.23 172.00,239.30 172.00,239.38 C 172.00,239.45 171.99,239.54 172.00,239.62 C 172.01,239.71 172.03,239.78 172.06,239.86 C 172.09,239.93 172.14,240.01 172.19,240.08 C 172.24,240.15 172.30,240.22 172.38,240.28 C 172.45,240.35 172.53,240.41 172.62,240.47 C 172.72,240.53 172.82,240.59 172.94,240.64 C 173.05,240.70 173.18,240.75 173.31,240.80 C 173.45,240.85 173.59,240.89 173.75,240.94 C 173.91,240.98 174.09,241.03 174.25,241.06 C 174.41,241.10 174.57,241.12 174.72,241.14 C 174.87,241.16 175.02,241.17 175.16,241.17 C 175.30,241.17 175.43,241.17 175.56,241.16 C 175.69,241.14 175.82,241.12 175.94,241.09 C 176.06,241.07 176.17,241.03 176.28,240.98 C 176.39,240.94 176.49,240.89 176.59,240.83 C 176.69,240.77 176.79,240.70 176.88,240.62 C 176.96,240.55 177.04,240.45 177.12,240.38 C 177.21,240.30 177.29,240.24 177.38,240.19 C 177.46,240.14 177.54,240.09 177.62,240.06 C 177.71,240.03 177.79,240.01 177.88,240.00 C 177.96,239.99 178.04,239.99 178.12,240.00 C 178.21,240.01 178.29,240.03 178.38,240.06 C 178.46,240.09 178.54,240.14 178.62,240.19 C 178.71,240.24 178.79,240.30 178.88,240.38 C 178.96,240.45 179.03,240.55 179.12,240.62 C 179.22,240.70 179.32,240.78 179.44,240.84 C 179.55,240.91 179.68,240.97 179.81,241.03 C 179.95,241.09 180.09,241.14 180.25,241.19 C 180.41,241.23 180.57,241.28 180.75,241.31 C 180.93,241.35 181.11,241.38 181.31,241.41 C 181.51,241.43 181.72,241.45 181.94,241.47 C 182.16,241.48 182.39,241.49 182.62,241.50 C 182.86,241.51 183.14,241.51 183.38,241.50 C 183.61,241.49 183.82,241.48 184.02,241.46 C 184.22,241.44 184.40,241.42 184.57,241.38 C 184.74,241.35 184.88,241.31 185.02,241.27 C 185.15,241.22 185.26,241.17 185.36,241.11 C 185.46,241.05 185.54,240.99 185.60,240.91 C 185.67,240.84 185.71,240.76 185.74,240.68 C 185.77,240.60 185.79,240.50 185.78,240.41 C 185.78,240.31 185.73,240.20 185.72,240.09 C 185.71,239.99 185.71,239.88 185.72,239.77 C 185.73,239.65 185.75,239.54 185.78,239.42 C 185.81,239.30 185.85,239.18 185.91,239.06 C 185.96,238.94 186.02,238.82 186.09,238.69 C 186.17,238.56 186.25,238.43 186.34,238.30 C 186.44,238.16 186.54,238.03 186.66,237.89 C 186.77,237.75 186.90,237.61 187.03,237.47 C 187.17,237.33 187.32,237.17 187.47,237.03 C 187.62,236.90 187.78,236.77 187.95,236.66 C 188.11,236.55 188.28,236.45 188.46,236.37 C 188.64,236.28 188.82,236.20 189.02,236.14 C 189.21,236.08 189.40,236.02 189.61,235.98 C 189.81,235.94 190.02,235.92 190.24,235.90 C 190.46,235.88 190.68,235.88 190.91,235.88 C 191.14,235.89 191.38,235.91 191.62,235.94 C 191.87,235.97 192.13,236.02 192.38,236.06 C 192.62,236.11 192.85,236.16 193.07,236.21 C 193.29,236.26 193.51,236.32 193.71,236.38 C 193.92,236.44 194.11,236.51 194.30,236.58 C 194.48,236.65 194.66,236.72 194.83,236.80 C 195.00,236.87 195.15,236.95 195.30,237.04 C 195.45,237.12 195.60,237.21 195.73,237.30 C 195.86,237.40 195.98,237.49 196.09,237.59 C 196.21,237.69 196.31,237.81 196.41,237.91 C 196.50,238.01 196.59,238.10 196.66,238.20 C 196.74,238.29 196.81,238.38 196.87,238.46 C 196.93,238.55 196.98,238.63 197.02,238.70 C 197.06,238.78 197.09,238.85 197.11,238.92 C 197.13,238.99 197.14,239.06 197.15,239.12 C 197.15,239.18 197.15,239.24 197.13,239.29 C 197.12,239.34 197.10,239.39 197.06,239.44 C 197.03,239.48 196.97,239.52 196.94,239.56 C 196.90,239.60 196.88,239.65 196.86,239.69 C 196.84,239.73 196.83,239.77 196.83,239.81 C 196.83,239.85 196.83,239.90 196.84,239.94 C 196.86,239.98 196.88,240.02 196.91,240.06 C 196.93,240.10 196.97,240.15 197.02,240.19 C 197.06,240.23 197.11,240.27 197.17,240.31 C 197.23,240.35 197.30,240.40 197.38,240.44 C 197.45,240.48 197.55,240.52 197.62,240.56 C 197.70,240.61 197.76,240.66 197.81,240.72 C 197.86,240.78 197.91,240.84 197.94,240.91 C 197.97,240.97 197.99,241.05 198.00,241.12 C 198.01,241.20 198.01,241.29 198.00,241.38 C 197.99,241.46 197.97,241.56 197.94,241.66 C 197.91,241.76 197.86,241.86 197.81,241.97 C 197.76,242.08 197.70,242.19 197.62,242.31 C 197.55,242.43 197.45,242.56 197.38,242.69 C 197.30,242.82 197.23,242.95 197.17,243.08 C 197.11,243.21 197.06,243.35 197.02,243.48 C 196.97,243.62 196.93,243.76 196.91,243.91 C 196.88,244.05 196.86,244.20 196.84,244.34 C 196.83,244.49 196.83,244.64 196.83,244.80 C 196.83,244.95 196.84,245.11 196.86,245.27 C 196.88,245.42 196.90,245.59 196.94,245.75 C 196.97,245.91 197.02,246.09 197.06,246.25 C 197.11,246.41 197.15,246.56 197.20,246.70 C 197.25,246.85 197.30,246.98 197.36,247.11 C 197.41,247.24 197.47,247.36 197.53,247.47 C 197.59,247.58 197.65,247.68 197.72,247.78 C 197.78,247.88 197.85,247.97 197.92,248.05 C 197.99,248.13 198.07,248.20 198.14,248.27 C 198.22,248.33 198.29,248.39 198.38,248.44 C 198.46,248.49 198.56,248.51 198.62,248.56 C 198.69,248.62 198.74,248.68 198.77,248.76 C 198.81,248.83 198.82,248.92 198.82,249.02 C 198.82,249.12 198.80,249.24 198.77,249.36 C 198.73,249.48 198.68,249.62 198.61,249.77 C 198.54,249.91 198.45,250.07 198.35,250.24 C 198.25,250.41 198.13,250.60 197.99,250.79 C 197.86,250.98 197.70,251.19 197.53,251.41 C 197.36,251.62 197.16,251.88 196.97,252.09 C 196.78,252.30 196.59,252.49 196.40,252.66 C 196.21,252.83 196.01,252.99 195.82,253.12 C 195.63,253.25 195.43,253.36 195.23,253.45 C 195.04,253.55 194.84,253.62 194.64,253.67 C 194.44,253.73 194.24,253.76 194.04,253.77 C 193.84,253.79 193.63,253.78 193.43,253.76 C 193.23,253.73 193.02,253.69 192.81,253.62 C 192.61,253.56 192.39,253.44 192.19,253.38 C 191.99,253.31 191.80,253.27 191.62,253.26 C 191.44,253.24 191.26,253.25 191.10,253.27 C 190.94,253.30 190.79,253.35 190.64,253.42 C 190.50,253.49 190.36,253.59 190.23,253.70 C 190.11,253.82 189.99,253.96 189.88,254.12 C 189.77,254.28 189.68,254.46 189.59,254.66 C 189.50,254.87 189.42,255.10 189.34,255.34 C 189.27,255.59 189.20,255.89 189.16,256.16 C 189.11,256.42 189.08,256.67 189.06,256.92 C 189.05,257.17 189.05,257.41 189.06,257.64 C 189.08,257.87 189.11,258.10 189.16,258.31 C 189.20,258.53 189.27,258.74 189.34,258.94 C 189.42,259.14 189.52,259.33 189.62,259.52 C 189.73,259.70 189.86,259.88 190.00,260.05 C 190.14,260.22 190.30,260.38 190.47,260.53 C 190.64,260.68 190.83,260.84 191.03,260.97 C 191.23,261.10 191.45,261.22 191.68,261.32 C 191.91,261.42 192.15,261.51 192.41,261.59 C 192.67,261.66 192.95,261.72 193.23,261.77 C 193.52,261.81 193.82,261.84 194.14,261.86 C 194.46,261.88 194.79,261.88 195.13,261.87 C 195.48,261.86 195.84,261.83 196.21,261.79 C 196.58,261.75 196.97,261.69 197.38,261.62 C 197.78,261.56 198.23,261.44 198.62,261.38 C 199.02,261.31 199.40,261.26 199.77,261.22 C 200.13,261.18 200.47,261.16 200.80,261.16 C 201.12,261.15 201.43,261.16 201.72,261.19 C 202.01,261.21 202.28,261.26 202.53,261.31 C 202.78,261.37 203.02,261.44 203.23,261.53 C 203.45,261.62 203.65,261.72 203.83,261.84 C 204.01,261.96 204.17,262.10 204.31,262.25 C 204.46,262.40 204.56,262.60 204.69,262.75 C 204.81,262.90 204.94,263.04 205.06,263.17 C 205.19,263.30 205.31,263.41 205.44,263.52 C 205.56,263.62 205.69,263.71 205.81,263.78 C 205.94,263.86 206.06,263.92 206.19,263.97 C 206.31,264.02 206.44,264.05 206.56,264.08 C 206.69,264.10 206.81,264.11 206.94,264.11 C 207.06,264.11 207.19,264.09 207.31,264.06 C 207.44,264.03 207.57,263.97 207.69,263.94 C 207.81,263.90 207.93,263.87 208.04,263.85 C 208.15,263.83 208.26,263.81 208.37,263.80 C 208.47,263.80 208.57,263.79 208.67,263.80 C 208.77,263.80 208.86,263.81 208.95,263.83 C 209.04,263.85 209.13,263.87 209.21,263.90 C 209.29,263.93 209.37,263.96 209.45,264.01 C 209.52,264.05 209.59,264.10 209.66,264.16 C 209.72,264.21 209.80,264.28 209.84,264.34 C 209.89,264.40 209.92,264.46 209.94,264.52 C 209.95,264.57 209.95,264.62 209.94,264.67 C 209.92,264.72 209.89,264.77 209.84,264.81 C 209.80,264.86 209.73,264.90 209.66,264.94 C 209.58,264.98 209.48,265.01 209.38,265.05 C 209.27,265.08 209.14,265.11 209.00,265.14 C 208.86,265.17 208.70,265.20 208.53,265.22 C 208.36,265.24 208.15,265.24 207.97,265.28 C 207.79,265.32 207.61,265.37 207.43,265.45 C 207.25,265.52 207.08,265.61 206.91,265.71 C 206.75,265.82 206.58,265.94 206.42,266.08 C 206.26,266.22 206.11,266.37 205.95,266.55 C 205.80,266.72 205.65,266.91 205.51,267.12 C 205.36,267.32 205.22,267.55 205.09,267.79 C 204.95,268.03 204.82,268.29 204.69,268.56 C 204.56,268.84 204.45,269.16 204.31,269.44 C 204.18,269.71 204.04,269.97 203.89,270.20 C 203.74,270.44 203.59,270.66 203.42,270.86 C 203.26,271.06 203.09,271.24 202.91,271.41 C 202.73,271.57 202.54,271.72 202.34,271.84 C 202.15,271.97 201.95,272.08 201.73,272.17 C 201.52,272.26 201.30,272.34 201.08,272.39 C 200.85,272.45 200.62,272.48 200.38,272.50 C 200.13,272.52 199.86,272.51 199.62,272.50 C 199.39,272.49 199.16,272.48 198.94,272.47 C 198.72,272.45 198.51,272.43 198.31,272.41 C 198.11,272.38 197.93,272.35 197.75,272.31 C 197.57,272.28 197.41,272.23 197.25,272.19 C 197.09,272.14 196.95,272.09 196.81,272.03 C 196.68,271.97 196.55,271.91 196.44,271.84 C 196.32,271.78 196.22,271.70 196.12,271.62 C 196.03,271.55 195.95,271.44 195.88,271.38 C 195.80,271.31 195.72,271.26 195.65,271.23 C 195.58,271.19 195.51,271.18 195.45,271.18 C 195.38,271.18 195.32,271.20 195.27,271.23 C 195.21,271.27 195.16,271.32 195.11,271.39 C 195.06,271.46 195.02,271.55 194.98,271.65 C 194.94,271.75 194.90,271.87 194.87,272.01 C 194.83,272.14 194.81,272.30 194.78,272.47 C 194.76,272.64 194.75,272.85 194.72,273.03 C 194.69,273.22 194.65,273.40 194.59,273.58 C 194.54,273.76 194.48,273.93 194.41,274.11 C 194.33,274.28 194.25,274.46 194.16,274.62 C 194.06,274.79 193.96,274.96 193.84,275.12 C 193.73,275.29 193.60,275.45 193.47,275.61 C 193.33,275.77 193.19,275.92 193.03,276.08 C 192.88,276.23 192.71,276.38 192.53,276.53 C 192.35,276.68 192.17,276.84 191.97,276.97 C 191.77,277.09 191.55,277.20 191.33,277.28 C 191.10,277.36 190.86,277.43 190.61,277.47 C 190.36,277.51 190.09,277.53 189.81,277.53 C 189.53,277.53 189.24,277.51 188.94,277.47 C 188.63,277.43 188.32,277.36 187.98,277.28 C 187.65,277.20 187.31,277.09 186.95,276.97 C 186.60,276.84 186.23,276.70 185.84,276.53 C 185.46,276.36 185.02,276.15 184.66,275.97 C 184.29,275.78 183.96,275.60 183.66,275.42 C 183.35,275.24 183.08,275.07 182.84,274.89 C 182.60,274.72 182.40,274.54 182.22,274.38 C 182.04,274.21 181.90,274.04 181.78,273.88 C 181.67,273.71 181.58,273.55 181.53,273.39 C 181.48,273.23 181.46,273.08 181.47,272.92 C 181.48,272.77 181.52,272.62 181.59,272.47 C 181.67,272.32 181.84,272.17 181.91,272.03 C 181.98,271.89 182.01,271.77 182.01,271.65 C 182.01,271.53 181.97,271.42 181.90,271.32 C 181.83,271.22 181.72,271.13 181.58,271.05 C 181.44,270.96 181.26,270.89 181.05,270.83 C 180.83,270.76 180.59,270.71 180.30,270.66 C 180.02,270.62 179.70,270.58 179.35,270.55 C 179.00,270.53 178.61,270.51 178.19,270.50 C 177.76,270.49 177.24,270.50 176.81,270.50 C 176.38,270.50 175.98,270.51 175.60,270.52 C 175.23,270.54 174.88,270.55 174.55,270.57 C 174.23,270.59 173.94,270.61 173.67,270.64 C 173.40,270.67 173.17,270.70 172.95,270.73 C 172.74,270.77 172.56,270.81 172.40,270.85 C 172.24,270.89 172.11,270.94 172.01,270.99 C 171.90,271.04 171.83,271.10 171.78,271.16 C 171.73,271.21 171.73,271.28 171.72,271.34 C 171.71,271.40 171.71,271.46 171.72,271.52 C 171.73,271.57 171.75,271.62 171.78,271.67 C 171.81,271.72 171.85,271.77 171.91,271.81 C 171.96,271.86 172.02,271.90 172.09,271.94 C 172.17,271.98 172.25,272.01 172.34,272.05 C 172.44,272.08 172.54,272.11 172.66,272.14 C 172.77,272.17 172.90,272.20 173.03,272.22 C 173.17,272.24 173.33,272.25 173.47,272.28 C 173.61,272.31 173.74,272.35 173.88,272.39 C 174.01,272.43 174.13,272.49 174.25,272.55 C 174.37,272.61 174.48,272.67 174.59,272.75 C 174.70,272.83 174.81,272.91 174.91,273.00 C 175.01,273.09 175.10,273.19 175.19,273.30 C 175.28,273.40 175.36,273.52 175.44,273.64 C 175.52,273.76 175.59,273.89 175.66,274.03 C 175.72,274.17 175.82,274.31 175.84,274.47 C 175.87,274.62 175.86,274.79 175.81,274.97 C 175.77,275.15 175.68,275.33 175.56,275.53 C 175.44,275.73 175.29,275.94 175.09,276.16 C 174.90,276.38 174.67,276.60 174.41,276.84 C 174.14,277.08 173.84,277.33 173.50,277.59 C 173.16,277.85 172.79,278.12 172.38,278.41 C 171.96,278.69 171.52,278.98 171.03,279.28 C 170.55,279.58 169.99,279.93 169.47,280.22 C 168.95,280.51 168.43,280.79 167.91,281.04 C 167.40,281.29 166.88,281.53 166.37,281.74 C 165.85,281.96 165.34,282.15 164.83,282.33 C 164.32,282.50 163.81,282.66 163.30,282.80 C 162.79,282.93 162.28,283.05 161.77,283.15 C 161.27,283.25 160.76,283.32 160.26,283.38 C 159.75,283.44 159.25,283.48 158.75,283.50 Z" fill="none" stroke="currentColor" stroke-width="1.5" stroke-linejoin="round" stroke-linecap="round" filter="url(#glow)" />
</svg>