<svg xmlns="http://www.w3.org/2000/svg" width="512" height="512" viewBox="154.18 188.75 201.46 138.50" preserveAspectRatio="xMidYMid meet">
  <defs>
    <filter id="glow" x="-30%" y="-30%" width="160%" height="160%">
      <feGaussianBlur in="SourceGraphic" stdDeviation="2.4" result="blur" />
      <feMerge>
        <feMergeNode in="blur" />
        <feMergeNode in="SourceGraphic" />
      </feMerge>
    </filter>
    <clipPath id="hull-clip">
      <path d="M 229.69,315.62 C 229.56,315.57 229.47,315.45 229.31,315.38 C 229.16,315.30 228.98,315.23 228.77,315.17 C 228.55,315.11 228.32,315.06 228.05,315.02 C 227.78,314.97 227.48,314.93 227.16,314.91 C 226.83,314.88 226.48,314.86 226.09,314.84 C 225.71,314.83 225.30,314.83 224.86,314.83 C 224.42,314.83 223.95,314.84 223.45,314.86 C 222.96,314.88 222.43,314.90 221.88,314.94 C 221.32,314.97 220.74,315.03 220.12,315.06 C 219.51,315.10 218.87,315.12 218.20,315.14 C 217.53,315.16 216.84,315.17 216.11,315.17 C 215.38,315.17 214.63,315.17 213.84,315.16 C 213.06,315.14 212.25,315.12 211.41,315.09 C 210.57,315.07 209.70,315.03 208.80,314.98 C 207.90,314.94 206.97,314.89 206.02,314.83 C 205.06,314.77 204.08,314.70 203.06,314.62 C 202.05,314.55 200.92,314.46 199.94,314.38 C 198.95,314.29 198.02,314.21 197.15,314.13 C 196.27,314.05 195.46,313.98 194.70,313.90 C 193.93,313.82 193.23,313.75 192.58,313.67 C 191.93,313.60 191.33,313.52 190.80,313.45 C 190.26,313.38 189.78,313.31 189.35,313.24 C 188.93,313.17 188.56,313.11 188.24,313.04 C 187.93,312.97 187.67,312.91 187.47,312.84 C 187.27,312.78 187.17,312.72 187.03,312.66 C 186.90,312.59 186.77,312.52 186.66,312.45 C 186.54,312.38 186.44,312.31 186.34,312.23 C 186.25,312.16 186.17,312.08 186.09,312.00 C 186.02,311.92 185.96,311.84 185.91,311.75 C 185.85,311.66 185.81,311.58 185.78,311.48 C 185.75,311.39 185.73,311.30 185.72,311.20 C 185.71,311.11 185.71,311.01 185.72,310.91 C 185.73,310.80 185.82,310.69 185.78,310.59 C 185.75,310.49 185.66,310.40 185.52,310.31 C 185.37,310.22 185.17,310.14 184.92,310.06 C 184.67,309.98 184.36,309.91 184.00,309.84 C 183.64,309.78 183.22,309.71 182.75,309.66 C 182.28,309.60 181.75,309.55 181.17,309.50 C 180.59,309.45 179.96,309.41 179.27,309.38 C 178.58,309.34 177.83,309.31 177.03,309.28 C 176.23,309.26 175.27,309.25 174.47,309.22 C 173.67,309.18 172.92,309.14 172.23,309.08 C 171.54,309.02 170.91,308.95 170.33,308.86 C 169.75,308.77 169.22,308.67 168.75,308.56 C 168.28,308.45 167.86,308.33 167.50,308.19 C 167.14,308.05 166.83,307.90 166.58,307.73 C 166.33,307.57 166.13,307.39 165.98,307.20 C 165.84,307.01 165.75,306.81 165.72,306.59 C 165.68,306.38 165.67,306.12 165.78,305.91 C 165.90,305.69 166.11,305.49 166.41,305.30 C 166.72,305.12 167.12,304.95 167.62,304.79 C 168.11,304.63 168.70,304.49 169.39,304.36 C 170.08,304.23 170.86,304.12 171.73,304.02 C 172.61,303.92 173.58,303.83 174.65,303.76 C 175.71,303.69 176.88,303.63 178.13,303.59 C 179.39,303.54 180.74,303.51 182.19,303.50 C 183.63,303.49 185.37,303.51 186.81,303.50 C 188.26,303.49 189.61,303.48 190.86,303.45 C 192.11,303.43 193.27,303.40 194.33,303.36 C 195.39,303.32 196.35,303.27 197.22,303.22 C 198.09,303.16 198.86,303.10 199.53,303.03 C 200.21,302.96 200.78,302.88 201.27,302.80 C 201.75,302.71 202.13,302.62 202.42,302.52 C 202.71,302.41 202.90,302.30 203.00,302.19 C 203.10,302.07 202.98,301.93 203.00,301.81 C 203.02,301.70 203.07,301.59 203.14,301.48 C 203.21,301.38 203.30,301.29 203.42,301.20 C 203.54,301.12 203.68,301.04 203.84,300.97 C 204.01,300.90 204.20,300.84 204.41,300.78 C 204.62,300.73 204.85,300.68 205.11,300.64 C 205.37,300.60 205.65,300.57 205.95,300.55 C 206.26,300.52 206.59,300.51 206.94,300.50 C 207.29,300.49 207.70,300.51 208.06,300.50 C 208.42,300.49 208.77,300.48 209.10,300.46 C 209.43,300.44 209.75,300.42 210.05,300.38 C 210.36,300.35 210.65,300.31 210.92,300.27 C 211.20,300.22 211.46,300.17 211.70,300.11 C 211.95,300.05 212.18,299.99 212.40,299.91 C 212.62,299.84 212.82,299.76 213.01,299.68 C 213.20,299.60 213.37,299.50 213.53,299.41 C 213.69,299.31 213.84,299.20 213.97,299.09 C 214.09,298.99 214.20,298.88 214.28,298.77 C 214.36,298.65 214.43,298.54 214.47,298.42 C 214.51,298.30 214.53,298.18 214.53,298.06 C 214.53,297.94 214.51,297.82 214.47,297.69 C 214.43,297.56 214.36,297.43 214.28,297.30 C 214.20,297.16 214.09,297.03 213.97,296.89 C 213.84,296.75 213.70,296.61 213.53,296.47 C 213.36,296.33 213.18,296.17 212.97,296.03 C 212.76,295.89 212.54,295.77 212.29,295.65 C 212.04,295.53 211.78,295.42 211.49,295.32 C 211.21,295.22 210.90,295.13 210.58,295.05 C 210.25,294.96 209.91,294.89 209.55,294.83 C 209.18,294.76 208.80,294.71 208.40,294.66 C 208.00,294.62 207.57,294.58 207.13,294.55 C 206.69,294.53 206.23,294.51 205.75,294.50 C 205.27,294.49 204.72,294.51 204.25,294.50 C 203.78,294.49 203.33,294.48 202.91,294.47 C 202.48,294.45 202.09,294.43 201.72,294.41 C 201.35,294.38 201.01,294.35 200.69,294.31 C 200.37,294.28 200.08,294.23 199.81,294.19 C 199.55,294.14 199.31,294.09 199.09,294.03 C 198.88,293.97 198.69,293.91 198.53,293.84 C 198.37,293.78 198.23,293.70 198.12,293.62 C 198.02,293.55 197.98,293.46 197.88,293.38 C 197.77,293.29 197.65,293.22 197.52,293.14 C 197.38,293.07 197.22,292.99 197.05,292.92 C 196.87,292.85 196.68,292.78 196.47,292.72 C 196.26,292.65 196.03,292.59 195.78,292.53 C 195.53,292.47 195.27,292.41 194.98,292.36 C 194.70,292.30 194.40,292.25 194.08,292.20 C 193.76,292.15 193.42,292.11 193.06,292.06 C 192.71,292.02 192.33,291.98 191.94,291.94 C 191.54,291.90 191.12,291.86 190.69,291.83 C 190.25,291.79 189.79,291.76 189.31,291.73 C 188.83,291.71 188.33,291.68 187.81,291.66 C 187.29,291.63 186.75,291.61 186.19,291.59 C 185.62,291.58 185.04,291.56 184.44,291.55 C 183.83,291.53 183.21,291.52 182.56,291.52 C 181.92,291.51 181.25,291.50 180.56,291.50 C 179.88,291.50 179.12,291.52 178.44,291.50 C 177.76,291.48 177.11,291.43 176.49,291.37 C 175.87,291.30 175.29,291.21 174.73,291.10 C 174.17,290.99 173.64,290.86 173.14,290.70 C 172.64,290.55 172.17,290.37 171.73,290.17 C 171.30,289.97 170.89,289.75 170.51,289.51 C 170.13,289.26 169.78,289.00 169.46,288.71 C 169.14,288.42 168.85,288.11 168.59,287.78 C 168.33,287.45 168.11,287.06 167.91,286.72 C 167.71,286.38 167.53,286.06 167.39,285.75 C 167.25,285.44 167.13,285.15 167.05,284.88 C 166.96,284.60 166.90,284.34 166.88,284.09 C 166.85,283.85 166.85,283.62 166.88,283.41 C 166.90,283.19 166.96,282.99 167.05,282.81 C 167.13,282.63 167.25,282.46 167.39,282.31 C 167.53,282.16 167.71,282.03 167.91,281.91 C 168.11,281.79 168.28,281.71 168.59,281.59 C 168.91,281.48 169.30,281.36 169.78,281.23 C 170.26,281.11 170.82,280.97 171.47,280.83 C 172.11,280.68 172.84,280.53 173.66,280.38 C 174.47,280.22 175.36,280.05 176.34,279.88 C 177.32,279.70 178.39,279.52 179.53,279.33 C 180.68,279.14 181.91,278.94 183.22,278.73 C 184.53,278.53 185.93,278.32 187.41,278.09 C 188.89,277.87 190.63,277.62 192.09,277.41 C 193.55,277.19 194.91,276.98 196.17,276.78 C 197.43,276.58 198.59,276.40 199.64,276.22 C 200.70,276.04 201.65,275.88 202.50,275.72 C 203.35,275.56 204.10,275.42 204.75,275.28 C 205.40,275.15 205.95,275.02 206.39,274.91 C 206.84,274.79 207.18,274.69 207.42,274.59 C 207.66,274.50 207.80,274.42 207.84,274.34 C 207.88,274.27 207.73,274.21 207.66,274.16 C 207.58,274.10 207.50,274.05 207.41,274.01 C 207.32,273.96 207.23,273.93 207.12,273.90 C 207.01,273.87 206.89,273.85 206.77,273.83 C 206.64,273.81 206.50,273.80 206.36,273.80 C 206.21,273.79 206.06,273.80 205.90,273.80 C 205.74,273.81 205.56,273.83 205.38,273.85 C 205.20,273.87 205.01,273.90 204.81,273.94 C 204.61,273.97 204.40,274.04 204.19,274.06 C 203.97,274.08 203.75,274.08 203.52,274.05 C 203.30,274.03 203.06,273.98 202.82,273.91 C 202.58,273.85 202.33,273.75 202.08,273.64 C 201.82,273.53 201.56,273.39 201.30,273.23 C 201.03,273.08 200.76,272.90 200.48,272.70 C 200.20,272.49 199.91,272.27 199.62,272.02 C 199.32,271.78 199.02,271.51 198.72,271.22 C 198.41,270.93 198.07,270.62 197.78,270.28 C 197.49,269.94 197.22,269.57 196.98,269.16 C 196.73,268.76 196.51,268.33 196.30,267.87 C 196.10,267.40 195.92,266.91 195.77,266.39 C 195.61,265.87 195.47,265.32 195.36,264.73 C 195.25,264.15 195.15,263.54 195.09,262.90 C 195.02,262.26 194.97,261.58 194.95,260.88 C 194.92,260.18 194.92,259.45 194.94,258.69 C 194.96,257.93 195.01,257.07 195.06,256.31 C 195.11,255.56 195.17,254.84 195.24,254.16 C 195.31,253.49 195.39,252.85 195.48,252.24 C 195.56,251.64 195.66,251.07 195.77,250.55 C 195.87,250.02 195.99,249.53 196.11,249.08 C 196.23,248.63 196.37,248.21 196.51,247.84 C 196.65,247.46 196.80,247.12 196.96,246.82 C 197.12,246.52 197.29,246.26 197.47,246.03 C 197.65,245.81 197.83,245.65 198.03,245.47 C 198.23,245.29 198.43,245.11 198.65,244.95 C 198.86,244.78 199.09,244.62 199.32,244.46 C 199.55,244.31 199.80,244.16 200.05,244.02 C 200.30,243.87 200.56,243.74 200.83,243.61 C 201.10,243.48 201.38,243.36 201.66,243.24 C 201.95,243.13 202.25,243.02 202.55,242.91 C 202.86,242.81 203.18,242.71 203.50,242.62 C 203.82,242.54 204.29,242.47 204.50,242.38 C 204.71,242.28 204.78,242.18 204.73,242.06 C 204.68,241.95 204.51,241.82 204.20,241.69 C 203.90,241.55 203.47,241.41 202.91,241.25 C 202.35,241.09 201.66,240.93 200.84,240.75 C 200.03,240.57 199.09,240.39 198.02,240.19 C 196.95,239.99 195.75,239.78 194.42,239.56 C 193.10,239.34 191.64,239.11 190.06,238.88 C 188.48,238.64 186.54,238.37 184.94,238.12 C 183.33,237.88 181.83,237.65 180.43,237.43 C 179.03,237.21 177.73,236.99 176.54,236.79 C 175.35,236.58 174.25,236.39 173.27,236.20 C 172.28,236.02 171.39,235.84 170.61,235.67 C 169.83,235.50 169.15,235.35 168.57,235.20 C 167.99,235.05 167.52,234.90 167.15,234.77 C 166.78,234.64 166.51,234.52 166.34,234.41 C 166.18,234.29 166.20,234.21 166.16,234.09 C 166.11,233.97 166.09,233.84 166.09,233.69 C 166.09,233.54 166.11,233.37 166.16,233.19 C 166.20,233.01 166.26,232.81 166.34,232.59 C 166.43,232.38 166.53,232.15 166.66,231.91 C 166.78,231.66 166.93,231.40 167.09,231.12 C 167.26,230.85 167.45,230.56 167.66,230.25 C 167.86,229.94 168.09,229.62 168.34,229.28 C 168.59,228.94 168.84,228.55 169.16,228.22 C 169.48,227.89 169.84,227.58 170.26,227.29 C 170.67,227.00 171.14,226.74 171.65,226.49 C 172.16,226.25 172.72,226.03 173.33,225.83 C 173.94,225.63 174.59,225.45 175.30,225.30 C 176.00,225.14 176.75,225.01 177.55,224.90 C 178.36,224.79 179.20,224.70 180.10,224.63 C 181.00,224.57 181.94,224.52 182.94,224.50 C 183.93,224.48 185.08,224.51 186.06,224.50 C 187.05,224.49 187.97,224.48 188.84,224.45 C 189.71,224.43 190.53,224.40 191.28,224.36 C 192.04,224.32 192.73,224.27 193.38,224.22 C 194.02,224.16 194.60,224.10 195.12,224.03 C 195.65,223.96 196.12,223.88 196.53,223.80 C 196.94,223.71 197.30,223.62 197.59,223.52 C 197.89,223.41 198.13,223.30 198.31,223.19 C 198.49,223.07 198.53,222.93 198.69,222.81 C 198.84,222.70 199.02,222.59 199.23,222.48 C 199.45,222.38 199.68,222.29 199.95,222.20 C 200.22,222.12 200.52,222.04 200.84,221.97 C 201.17,221.90 201.52,221.84 201.91,221.78 C 202.29,221.73 202.70,221.68 203.14,221.64 C 203.58,221.60 204.05,221.57 204.55,221.55 C 205.04,221.52 205.57,221.51 206.12,221.50 C 206.68,221.49 207.32,221.50 207.88,221.50 C 208.43,221.50 208.94,221.49 209.43,221.48 C 209.92,221.46 210.37,221.45 210.79,221.43 C 211.21,221.41 211.60,221.39 211.95,221.36 C 212.31,221.33 212.63,221.30 212.92,221.27 C 213.21,221.23 213.47,221.19 213.70,221.15 C 213.92,221.11 214.11,221.06 214.27,221.01 C 214.43,220.96 214.56,220.90 214.66,220.84 C 214.75,220.79 214.80,220.72 214.84,220.66 C 214.89,220.59 214.92,220.52 214.94,220.44 C 214.95,220.36 214.95,220.28 214.94,220.19 C 214.92,220.10 214.89,220.01 214.84,219.91 C 214.80,219.81 214.73,219.70 214.66,219.59 C 214.58,219.48 214.48,219.37 214.38,219.25 C 214.27,219.13 214.14,219.01 214.00,218.88 C 213.86,218.74 213.70,218.61 213.53,218.47 C 213.36,218.33 213.17,218.17 212.97,218.03 C 212.77,217.89 212.57,217.77 212.35,217.65 C 212.14,217.53 211.91,217.42 211.68,217.32 C 211.45,217.22 211.20,217.13 210.95,217.05 C 210.70,216.96 210.44,216.89 210.17,216.83 C 209.90,216.76 209.62,216.71 209.34,216.66 C 209.05,216.62 208.75,216.58 208.45,216.55 C 208.14,216.53 207.82,216.51 207.50,216.50 C 207.18,216.49 206.81,216.51 206.50,216.50 C 206.19,216.49 205.90,216.48 205.62,216.45 C 205.35,216.43 205.10,216.40 204.88,216.36 C 204.65,216.32 204.44,216.27 204.25,216.22 C 204.06,216.16 203.90,216.10 203.75,216.03 C 203.60,215.96 203.48,215.88 203.38,215.80 C 203.27,215.71 203.19,215.62 203.12,215.52 C 203.06,215.41 203.02,215.30 203.00,215.19 C 202.98,215.07 203.10,214.93 203.00,214.81 C 202.90,214.70 202.71,214.59 202.42,214.48 C 202.13,214.38 201.75,214.29 201.27,214.20 C 200.78,214.12 200.21,214.04 199.53,213.97 C 198.86,213.90 198.09,213.84 197.22,213.78 C 196.35,213.73 195.39,213.68 194.33,213.64 C 193.27,213.60 192.11,213.57 190.86,213.55 C 189.61,213.52 188.26,213.51 186.81,213.50 C 185.37,213.49 183.63,213.52 182.19,213.50 C 180.74,213.48 179.39,213.45 178.14,213.41 C 176.89,213.36 175.73,213.30 174.67,213.22 C 173.61,213.14 172.65,213.05 171.78,212.94 C 170.91,212.83 170.14,212.70 169.47,212.56 C 168.79,212.42 168.22,212.27 167.73,212.09 C 167.25,211.92 166.87,211.73 166.58,211.53 C 166.29,211.33 166.10,211.11 166.00,210.88 C 165.90,210.64 165.95,210.36 166.00,210.12 C 166.05,209.89 166.16,209.67 166.31,209.47 C 166.47,209.27 166.68,209.08 166.94,208.91 C 167.20,208.73 167.51,208.58 167.88,208.44 C 168.24,208.30 168.66,208.17 169.12,208.06 C 169.59,207.95 170.11,207.86 170.69,207.78 C 171.26,207.70 171.89,207.64 172.56,207.59 C 173.24,207.55 173.97,207.52 174.75,207.50 C 175.53,207.48 176.47,207.51 177.25,207.50 C 178.03,207.49 178.76,207.48 179.43,207.46 C 180.10,207.44 180.72,207.42 181.29,207.38 C 181.86,207.35 182.37,207.31 182.83,207.27 C 183.29,207.22 183.69,207.17 184.05,207.11 C 184.40,207.05 184.70,206.99 184.95,206.91 C 185.19,206.84 185.38,206.76 185.52,206.68 C 185.66,206.60 185.75,206.50 185.78,206.41 C 185.81,206.31 185.73,206.20 185.72,206.09 C 185.71,205.99 185.71,205.89 185.72,205.80 C 185.73,205.70 185.75,205.61 185.78,205.52 C 185.81,205.42 185.85,205.34 185.91,205.25 C 185.96,205.16 186.02,205.08 186.09,205.00 C 186.17,204.92 186.25,204.84 186.34,204.77 C 186.44,204.69 186.54,204.62 186.66,204.55 C 186.77,204.48 186.90,204.41 187.03,204.34 C 187.17,204.28 187.23,204.22 187.47,204.16 C 187.71,204.09 188.05,204.03 188.48,203.96 C 188.91,203.89 189.43,203.83 190.05,203.76 C 190.68,203.69 191.39,203.62 192.20,203.55 C 193.01,203.48 193.92,203.40 194.92,203.33 C 195.92,203.25 197.02,203.18 198.21,203.10 C 199.40,203.02 200.69,202.95 202.07,202.87 C 203.45,202.79 204.93,202.71 206.50,202.62 C 208.07,202.54 209.93,202.46 211.50,202.38 C 213.07,202.29 214.53,202.21 215.89,202.12 C 217.25,202.04 218.51,201.96 219.67,201.88 C 220.83,201.79 221.89,201.71 222.84,201.62 C 223.80,201.54 224.65,201.46 225.41,201.38 C 226.16,201.29 226.81,201.21 227.36,201.12 C 227.91,201.04 228.36,200.96 228.70,200.88 C 229.05,200.79 229.29,200.71 229.44,200.62 C 229.58,200.54 229.51,200.43 229.56,200.38 C 229.62,200.32 229.68,200.29 229.76,200.29 C 229.83,200.29 229.92,200.31 230.02,200.37 C 230.12,200.42 230.24,200.50 230.36,200.61 C 230.48,200.72 230.62,200.85 230.77,201.02 C 230.91,201.18 231.07,201.37 231.24,201.59 C 231.41,201.80 231.60,202.05 231.79,202.32 C 231.98,202.59 232.19,202.89 232.41,203.22 C 232.62,203.55 232.89,203.95 233.09,204.28 C 233.30,204.61 233.47,204.92 233.62,205.20 C 233.78,205.49 233.90,205.75 234.00,205.98 C 234.10,206.22 234.17,206.43 234.22,206.62 C 234.27,206.82 234.29,206.98 234.28,207.12 C 234.28,207.27 234.24,207.39 234.19,207.48 C 234.13,207.58 234.05,207.65 233.94,207.70 C 233.83,207.75 233.69,207.78 233.53,207.78 C 233.37,207.78 233.15,207.72 232.97,207.72 C 232.79,207.72 232.62,207.74 232.47,207.78 C 232.31,207.82 232.17,207.89 232.03,207.97 C 231.90,208.05 231.77,208.16 231.66,208.28 C 231.54,208.41 231.44,208.55 231.34,208.72 C 231.25,208.89 231.17,209.07 231.09,209.28 C 231.02,209.49 230.96,209.72 230.91,209.97 C 230.85,210.22 230.81,210.49 230.78,210.78 C 230.75,211.07 230.76,211.42 230.72,211.72 C 230.68,212.02 230.61,212.30 230.53,212.58 C 230.45,212.85 230.34,213.11 230.22,213.36 C 230.09,213.61 229.95,213.84 229.78,214.06 C 229.61,214.28 229.43,214.49 229.22,214.69 C 229.01,214.88 228.78,215.07 228.53,215.23 C 228.28,215.40 228.01,215.56 227.72,215.70 C 227.43,215.85 227.11,215.98 226.78,216.09 C 226.45,216.21 226.05,216.30 225.72,216.41 C 225.38,216.51 225.07,216.61 224.77,216.70 C 224.47,216.80 224.18,216.89 223.92,216.98 C 223.66,217.08 223.41,217.16 223.19,217.25 C 222.96,217.34 222.75,217.42 222.56,217.50 C 222.37,217.58 222.20,217.66 222.05,217.73 C 221.89,217.81 221.76,217.88 221.64,217.95 C 221.52,218.02 221.42,218.09 221.34,218.16 C 221.26,218.22 221.21,218.28 221.16,218.34 C 221.10,218.41 221.05,218.48 221.02,218.55 C 220.98,218.62 220.95,218.69 220.92,218.77 C 220.90,218.84 220.88,218.92 220.88,219.00 C 220.87,219.08 220.87,219.16 220.88,219.25 C 220.88,219.34 220.90,219.42 220.92,219.52 C 220.95,219.61 220.98,219.70 221.02,219.80 C 221.05,219.89 221.10,219.99 221.16,220.09 C 221.21,220.20 221.25,220.31 221.34,220.41 C 221.43,220.50 221.55,220.60 221.70,220.68 C 221.84,220.76 222.01,220.84 222.21,220.91 C 222.41,220.99 222.64,221.05 222.89,221.11 C 223.14,221.17 223.43,221.22 223.73,221.27 C 224.04,221.31 224.38,221.35 224.74,221.38 C 225.11,221.42 225.50,221.44 225.91,221.46 C 226.33,221.48 226.78,221.49 227.25,221.50 C 227.72,221.51 228.24,221.53 228.75,221.50 C 229.26,221.47 229.79,221.41 230.33,221.31 C 230.87,221.22 231.42,221.09 231.98,220.94 C 232.55,220.78 233.13,220.59 233.72,220.38 C 234.31,220.16 234.91,219.91 235.53,219.62 C 236.15,219.34 236.78,219.03 237.42,218.69 C 238.07,218.34 238.72,217.97 239.39,217.56 C 240.06,217.16 240.74,216.72 241.44,216.25 C 242.13,215.78 242.82,215.22 243.56,214.75 C 244.30,214.28 245.07,213.84 245.88,213.44 C 246.68,213.03 247.51,212.66 248.38,212.31 C 249.24,211.97 250.14,211.66 251.06,211.38 C 251.99,211.09 252.95,210.84 253.94,210.62 C 254.93,210.41 255.95,210.22 257.00,210.06 C 258.05,209.91 259.14,209.78 260.25,209.69 C 261.36,209.59 262.51,209.53 263.69,209.50 C 264.86,209.47 266.17,209.51 267.31,209.50 C 268.45,209.49 269.53,209.48 270.53,209.47 C 271.54,209.45 272.47,209.43 273.34,209.41 C 274.21,209.38 275.02,209.35 275.75,209.31 C 276.48,209.28 277.15,209.23 277.75,209.19 C 278.35,209.14 278.88,209.09 279.34,209.03 C 279.81,208.97 280.20,208.91 280.53,208.84 C 280.86,208.78 281.12,208.70 281.31,208.62 C 281.51,208.55 281.49,208.46 281.69,208.38 C 281.88,208.29 282.15,208.21 282.48,208.12 C 282.82,208.04 283.23,207.96 283.70,207.88 C 284.18,207.79 284.73,207.71 285.34,207.62 C 285.96,207.54 286.65,207.46 287.41,207.38 C 288.16,207.29 288.99,207.21 289.89,207.12 C 290.79,207.04 291.76,206.96 292.80,206.88 C 293.84,206.79 294.95,206.71 296.12,206.62 C 297.30,206.54 298.64,206.45 299.88,206.38 C 301.11,206.30 302.34,206.22 303.56,206.16 C 304.78,206.09 305.99,206.03 307.19,205.97 C 308.39,205.91 309.57,205.86 310.75,205.81 C 311.93,205.77 313.09,205.72 314.25,205.69 C 315.41,205.65 316.55,205.62 317.69,205.59 C 318.82,205.57 319.95,205.55 321.06,205.53 C 322.18,205.52 323.28,205.51 324.38,205.50 C 325.47,205.49 326.60,205.49 327.62,205.50 C 328.65,205.51 329.61,205.52 330.51,205.54 C 331.41,205.56 332.25,205.58 333.02,205.62 C 333.80,205.65 334.52,205.69 335.17,205.73 C 335.83,205.78 336.42,205.83 336.95,205.89 C 337.49,205.95 337.96,206.01 338.37,206.09 C 338.78,206.16 339.13,206.24 339.41,206.32 C 339.70,206.40 339.93,206.50 340.09,206.59 C 340.26,206.69 340.31,206.77 340.41,206.91 C 340.50,207.04 340.60,207.20 340.68,207.38 C 340.76,207.57 340.84,207.78 340.91,208.02 C 340.99,208.26 341.05,208.53 341.11,208.83 C 341.17,209.12 341.22,209.45 341.27,209.80 C 341.31,210.15 341.35,210.52 341.38,210.93 C 341.42,211.33 341.44,211.77 341.46,212.23 C 341.48,212.69 341.49,213.17 341.50,213.69 C 341.51,214.20 341.49,214.76 341.50,215.31 C 341.51,215.87 341.52,216.44 341.55,217.03 C 341.57,217.62 341.60,218.22 341.64,218.84 C 341.68,219.46 341.73,220.10 341.78,220.75 C 341.84,221.40 341.90,222.07 341.97,222.75 C 342.04,223.43 342.12,224.13 342.20,224.84 C 342.29,225.56 342.38,226.29 342.48,227.03 C 342.59,227.78 342.70,228.54 342.81,229.31 C 342.93,230.09 343.08,230.93 343.19,231.69 C 343.29,232.45 343.38,233.18 343.44,233.88 C 343.50,234.57 343.54,235.24 343.56,235.88 C 343.58,236.51 343.58,237.11 343.56,237.69 C 343.54,238.26 343.50,238.80 343.44,239.31 C 343.38,239.82 343.29,240.30 343.19,240.75 C 343.08,241.20 342.96,241.61 342.81,242.00 C 342.67,242.39 342.50,242.74 342.31,243.06 C 342.12,243.39 341.88,243.65 341.69,243.94 C 341.50,244.22 341.33,244.50 341.19,244.77 C 341.04,245.03 340.92,245.29 340.81,245.55 C 340.71,245.80 340.62,246.04 340.56,246.28 C 340.50,246.52 340.46,246.75 340.44,246.97 C 340.42,247.19 340.42,247.40 340.44,247.61 C 340.46,247.82 340.50,248.01 340.56,248.20 C 340.62,248.39 340.71,248.58 340.81,248.75 C 340.92,248.92 341.07,249.05 341.19,249.25 C 341.30,249.45 341.41,249.67 341.52,249.92 C 341.62,250.17 341.71,250.46 341.80,250.77 C 341.88,251.08 341.96,251.41 342.03,251.78 C 342.10,252.15 342.16,252.54 342.22,252.97 C 342.27,253.39 342.32,253.85 342.36,254.33 C 342.40,254.81 342.43,255.32 342.45,255.86 C 342.48,256.40 342.49,256.97 342.50,257.56 C 342.51,258.16 342.51,258.84 342.50,259.44 C 342.49,260.03 342.48,260.60 342.45,261.14 C 342.43,261.68 342.40,262.19 342.36,262.67 C 342.32,263.15 342.27,263.61 342.22,264.03 C 342.16,264.46 342.10,264.85 342.03,265.22 C 341.96,265.59 341.88,265.92 341.80,266.23 C 341.71,266.54 341.62,266.83 341.52,267.08 C 341.41,267.33 341.30,267.55 341.19,267.75 C 341.07,267.95 340.92,268.08 340.81,268.25 C 340.71,268.42 340.62,268.58 340.55,268.75 C 340.48,268.92 340.42,269.08 340.39,269.25 C 340.36,269.42 340.34,269.58 340.34,269.75 C 340.35,269.92 340.37,270.08 340.41,270.25 C 340.45,270.42 340.50,270.58 340.58,270.75 C 340.65,270.92 340.75,271.08 340.86,271.25 C 340.97,271.42 341.10,271.58 341.25,271.75 C 341.40,271.92 341.59,272.08 341.75,272.25 C 341.91,272.42 342.06,272.60 342.20,272.78 C 342.35,272.96 342.48,273.15 342.61,273.34 C 342.74,273.54 342.86,273.73 342.97,273.94 C 343.08,274.14 343.18,274.35 343.28,274.56 C 343.38,274.78 343.47,274.99 343.55,275.22 C 343.63,275.44 343.70,275.67 343.77,275.91 C 343.83,276.14 343.89,276.38 343.94,276.62 C 343.99,276.87 344.04,277.06 344.06,277.38 C 344.09,277.69 344.10,278.07 344.10,278.51 C 344.10,278.95 344.08,279.45 344.05,280.02 C 344.02,280.59 343.98,281.23 343.92,281.92 C 343.86,282.62 343.79,283.38 343.70,284.20 C 343.62,285.03 343.51,285.92 343.40,286.87 C 343.28,287.82 343.15,288.83 343.01,289.91 C 342.86,290.99 342.70,292.14 342.53,293.34 C 342.36,294.55 342.21,295.96 341.97,297.16 C 341.73,298.35 341.44,299.47 341.10,300.51 C 340.76,301.55 340.37,302.51 339.93,303.40 C 339.49,304.29 339.00,305.10 338.45,305.83 C 337.91,306.56 337.32,307.22 336.67,307.80 C 336.03,308.38 335.33,308.88 334.59,309.30 C 333.84,309.73 333.04,310.08 332.20,310.35 C 331.35,310.62 330.45,310.82 329.50,310.94 C 328.55,311.06 327.53,311.03 326.50,311.06 C 325.47,311.09 324.41,311.11 323.33,311.11 C 322.24,311.11 321.13,311.10 319.98,311.08 C 318.84,311.05 317.67,311.02 316.47,310.97 C 315.27,310.92 314.04,310.86 312.78,310.78 C 311.52,310.71 310.24,310.62 308.92,310.52 C 307.61,310.41 306.26,310.30 304.89,310.17 C 303.52,310.04 302.12,309.90 300.69,309.75 C 299.26,309.60 297.76,309.41 296.31,309.25 C 294.87,309.09 293.43,308.95 292.02,308.81 C 290.60,308.68 289.19,308.55 287.80,308.44 C 286.40,308.32 285.02,308.22 283.66,308.12 C 282.29,308.03 280.93,307.95 279.59,307.88 C 278.25,307.80 276.92,307.74 275.61,307.69 C 274.29,307.64 272.99,307.59 271.70,307.56 C 270.41,307.53 269.14,307.51 267.88,307.50 C 266.61,307.49 265.34,307.53 264.12,307.50 C 262.91,307.47 261.73,307.41 260.59,307.31 C 259.45,307.22 258.35,307.09 257.28,306.94 C 256.21,306.78 255.18,306.59 254.19,306.38 C 253.19,306.16 252.23,305.91 251.31,305.62 C 250.39,305.34 249.51,305.03 248.66,304.69 C 247.81,304.34 246.99,303.97 246.22,303.56 C 245.44,303.16 244.70,302.72 244.00,302.25 C 243.30,301.78 242.66,301.22 242.00,300.75 C 241.34,300.28 240.70,299.84 240.06,299.42 C 239.43,299.01 238.80,298.62 238.19,298.27 C 237.57,297.91 236.97,297.58 236.38,297.28 C 235.78,296.98 235.20,296.71 234.62,296.47 C 234.05,296.23 233.49,296.01 232.94,295.83 C 232.39,295.64 231.84,295.49 231.31,295.36 C 230.78,295.23 230.26,295.13 229.75,295.06 C 229.24,294.99 228.73,294.97 228.25,294.94 C 227.77,294.91 227.32,294.89 226.90,294.88 C 226.47,294.88 226.07,294.88 225.70,294.90 C 225.32,294.92 224.97,294.94 224.64,294.98 C 224.31,295.02 224.01,295.08 223.73,295.14 C 223.46,295.20 223.20,295.28 222.98,295.37 C 222.75,295.45 222.55,295.55 222.37,295.66 C 222.19,295.77 222.04,295.90 221.91,296.03 C 221.78,296.17 221.67,296.32 221.59,296.47 C 221.52,296.62 221.48,296.76 221.48,296.91 C 221.47,297.06 221.50,297.21 221.55,297.37 C 221.61,297.52 221.70,297.67 221.83,297.83 C 221.95,297.98 222.11,298.14 222.30,298.30 C 222.49,298.45 222.71,298.61 222.96,298.77 C 223.21,298.93 223.50,299.10 223.82,299.26 C 224.14,299.42 224.49,299.58 224.88,299.75 C 225.26,299.92 225.73,300.07 226.12,300.25 C 226.52,300.43 226.88,300.61 227.23,300.80 C 227.57,301.00 227.89,301.20 228.18,301.41 C 228.47,301.63 228.74,301.85 228.98,302.08 C 229.23,302.31 229.45,302.55 229.64,302.80 C 229.83,303.05 230.00,303.30 230.15,303.57 C 230.29,303.84 230.41,304.11 230.51,304.40 C 230.60,304.68 230.67,304.98 230.72,305.28 C 230.76,305.58 230.75,305.93 230.78,306.22 C 230.81,306.51 230.85,306.77 230.89,307.02 C 230.93,307.26 230.99,307.48 231.05,307.67 C 231.11,307.87 231.17,308.04 231.25,308.19 C 231.33,308.34 231.41,308.46 231.50,308.56 C 231.59,308.66 231.69,308.74 231.80,308.80 C 231.90,308.85 232.02,308.88 232.14,308.89 C 232.26,308.90 232.39,308.88 232.53,308.84 C 232.67,308.80 232.84,308.69 232.97,308.66 C 233.10,308.62 233.21,308.61 233.30,308.62 C 233.39,308.64 233.46,308.68 233.52,308.75 C 233.57,308.82 233.61,308.91 233.62,309.03 C 233.64,309.15 233.64,309.30 233.62,309.47 C 233.61,309.64 233.57,309.84 233.52,310.06 C 233.46,310.29 233.39,310.54 233.30,310.81 C 233.21,311.09 233.10,311.39 232.97,311.72 C 232.84,312.05 232.68,312.45 232.53,312.78 C 232.39,313.11 232.24,313.41 232.10,313.68 C 231.96,313.95 231.82,314.20 231.68,314.41 C 231.54,314.63 231.40,314.82 231.27,314.98 C 231.13,315.15 230.99,315.28 230.86,315.39 C 230.73,315.50 230.59,315.58 230.46,315.63 C 230.33,315.69 230.20,315.71 230.07,315.71 C 229.94,315.71 229.81,315.68 229.69,315.62 Z" />
    </clipPath>
  </defs>
  <path d="M 229.69,315.62 C 229.56,315.57 229.47,315.45 229.31,315.38 C 229.16,315.30 228.98,315.23 228.77,315.17 C 228.55,315.11 228.32,315.06 228.05,315.02 C 227.78,314.97 227.48,314.93 227.16,314.91 C 226.83,314.88 226.48,314.86 226.09,314.84 C 225.71,314.83 225.30,314.83 224.86,314.83 C 224.42,314.83 223.95,314.84 223.45,314.86 C 222.96,314.88 222.43,314.90 221.88,314.94 C 221.32,314.97 220.74,315.03 220.12,315.06 C 219.51,315.10 218.87,315.12 218.20,315.14 C 217.53,315.16 216.84,315.17 216.11,315.17 C 215.38,315.17 214.63,315.17 213.84,315.16 C 213.06,315.14 212.25,315.12 211.41,315.09 C 210.57,315.07 209.70,315.03 208.80,314.98 C 207.90,314.94 206.97,314.89 206.02,314.83 C 205.06,314.77 204.08,314.70 203.06,314.62 C 202.05,314.55 200.92,314.46 199.94,314.38 C 198.95,314.29 198.02,314.21 197.15,314.13 C 196.27,314.05 195.46,313.98 194.70,313.90 C 193.93,313.82 193.23,313.75 192.58,313.67 C 191.93,313.60 191.33,313.52 190.80,313.45 C 190.26,313.38 189.78,313.31 189.35,313.24 C 188.93,313.17 188.56,313.11 188.24,313.04 C 187.93,312.97 187.67,312.91 187.47,312.84 C 187.27,312.78 187.17,312.72 187.03,312.66 C 186.90,312.59 186.77,312.52 186.66,312.45 C 186.54,312.38 186.44,312.31 186.34,312.23 C 186.25,312.16 186.17,312.08 186.09,312.00 C 186.02,311.92 185.96,311.84 185.91,311.75 C 185.85,311.66 185.81,311.58 185.78,311.48 C 185.75,311.39 185.73,311.30 185.72,311.20 C 185.71,311.11 185.71,311.01 185.72,310.91 C 185.73,310.80 185.82,310.69 185.78,310.59 C 185.75,310.49 185.66,310.40 185.52,310.31 C 185.37,310.22 185.17,310.14 184.92,310.06 C 184.67,309.98 184.36,309.91 184.00,309.84 C 183.64,309.78 183.22,309.71 182.75,309.66 C 182.28,309.60 181.75,309.55 181.17,309.50 C 180.59,309.45 179.96,309.41 179.27,309.38 C 178.58,309.34 177.83,309.31 177.03,309.28 C 176.23,309.26 175.27,309.25 174.47,309.22 C 173.67,309.18 172.92,309.14 172.23,309.08 C 171.54,309.02 170.91,308.95 170.33,308.86 C 169.75,308.77 169.22,308.67 168.75,308.56 C 168.28,308.45 167.86,308.33 167.50,308.19 C 167.14,308.05 166.83,307.90 166.58,307.73 C 166.33,307.57 166.13,307.39 165.98,307.20 C 165.84,307.01 165.75,306.81 165.72,306.59 C 165.68,306.38 165.67,306.12 165.78,305.91 C 165.90,305.69 166.11,305.49 166.41,305.30 C 166.72,305.12 167.12,304.95 167.62,304.79 C 168.11,304.63 168.70,304.49 169.39,304.36 C 170.08,304.23 170.86,304.12 171.73,304.02 C 172.61,303.92 173.58,303.83 174.65,303.76 C 175.71,303.69 176.88,303.63 178.13,303.59 C 179.39,303.54 180.74,303.51 182.19,303.50 C 183.63,303.49 185.37,303.51 186.81,303.50 C 188.26,303.49 189.61,303.48 190.86,303.45 C 192.11,303.43 193.27,303.40 194.33,303.36 C 195.39,303.32 196.35,303.27 197.22,303.22 C 198.09,303.16 198.86,303.10 199.53,303.03 C 200.21,302.96 200.78,302.88 201.27,302.80 C 201.75,302.71 202.13,302.62 202.42,302.52 C 202.71,302.41 202.90,302.30 203.00,302.19 C 203.10,302.07 202.98,301.93 203.00,301.81 C 203.02,301.70 203.07,301.59 203.14,301.48 C 203.21,301.38 203.30,301.29 203.42,301.20 C 203.54,301.12 203.68,301.04 203.84,300.97 C 204.01,300.90 204.20,300.84 204.41,300.78 C 204.62,300.73 204.85,300.68 205.11,300.64 C 205.37,300.60 205.65,300.57 205.95,300.55 C 206.26,300.52 206.59,300.51 206.94,300.50 C 207.29,300.49 207.70,300.51 208.06,300.50 C 208.42,300.49 208.77,300.48 209.10,300.46 C 209.43,300.44 209.75,300.42 210.05,300.38 C 210.36,300.35 210.65,300.31 210.92,300.27 C 211.20,300.22 211.46,300.17 211.70,300.11 C 211.95,300.05 212.18,299.99 212.40,299.91 C 212.62,299.84 212.82,299.76 213.01,299.68 C 213.20,299.60 213.37,299.50 213.53,299.41 C 213.69,299.31 213.84,299.20 213.97,299.09 C 214.09,298.99 214.20,298.88 214.28,298.77 C 214.36,298.65 214.43,298.54 214.47,298.42 C 214.51,298.30 214.53,298.18 214.53,298.06 C 214.53,297.94 214.51,297.82 214.47,297.69 C 214.43,297.56 214.36,297.43 214.28,297.30 C 214.20,297.16 214.09,297.03 213.97,296.89 C 213.84,296.75 213.70,296.61 213.53,296.47 C 213.36,296.33 213.18,296.17 212.97,296.03 C 212.76,295.89 212.54,295.77 212.29,295.65 C 212.04,295.53 211.78,295.42 211.49,295.32 C 211.21,295.22 210.90,295.13 210.58,295.05 C 210.25,294.96 209.91,294.89 209.55,294.83 C 209.18,294.76 208.80,294.71 208.40,294.66 C 208.00,294.62 207.57,294.58 207.13,294.55 C 206.69,294.53 206.23,294.51 205.75,294.50 C 205.27,294.49 204.72,294.51 204.25,294.50 C 203.78,294.49 203.33,294.48 202.91,294.47 C 202.48,294.45 202.09,294.43 201.72,294.41 C 201.35,294.38 201.01,294.35 200.69,294.31 C 200.37,294.28 200.08,294.23 199.81,294.19 C 199.55,294.14 199.31,294.09 199.09,294.03 C 198.88,293.97 198.69,293.91 198.53,293.84 C 198.37,293.78 198.23,293.70 198.12,293.62 C 198.02,293.55 197.98,293.46 197.88,293.38 C 197.77,293.29 197.65,293.22 197.52,293.14 C 197.38,293.07 197.22,292.99 197.05,292.92 C 196.87,292.85 196.68,292.78 196.47,292.72 C 196.26,292.65 196.03,292.59 195.78,292.53 C 195.53,292.47 195.27,292.41 194.98,292.36 C 194.70,292.30 194.40,292.25 194.08,292.20 C 193.76,292.15 193.42,292.11 193.06,292.06 C 192.71,292.02 192.33,291.98 191.94,291.94 C 191.54,291.90 191.12,291.86 190.69,291.83 C 190.25,291.79 189.79,291.76 189.31,291.73 C 188.83,291.71 188.33,291.68 187.81,291.66 C 187.29,291.63 186.75,291.61 186.19,291.59 C 185.62,291.58 185.04,291.56 184.44,291.55 C 183.83,291.53 183.21,291.52 182.56,291.52 C 181.92,291.51 181.25,291.50 180.56,291.50 C 179.88,291.50 179.12,291.52 178.44,291.50 C 177.76,291.48 177.11,291.43 176.49,291.37 C 175.87,291.30 175.29,291.21 174.73,291.10 C 174.17,290.99 173.64,290.86 173.14,290.70 C 172.64,290.55 172.17,290.37 171.73,290.17 C 171.30,289.97 170.89,289.75 170.51,289.51 C 170.13,289.26 169.78,289.00 169.46,288.71 C 169.14,288.42 168.85,288.11 168.59,287.78 C 168.33,287.45 168.11,287.06 167.91,286.72 C 167.71,286.38 167.53,286.06 167.39,285.75 C 167.25,285.44 167.13,285.15 167.05,284.88 C 166.96,284.60 166.90,284.34 166.88,284.09 C 166.85,283.85 166.85,283.62 166.88,283.41 C 166.90,283.19 166.96,282.99 167.05,282.81 C 167.13,282.63 167.25,282.46 167.39,282.31 C 167.53,282.16 167.71,282.03 167.91,281.91 C 168.11,281.79 168.28,281.71 168.59,281.59 C 168.91,281.48 169.30,281.36 169.78,281.23 C 170.26,281.11 170.82,280.97 171.47,280.83 C 172.11,280.68 172.84,280.53 173.66,280.38 C 174.47,280.22 175.36,280.05 176.34,279.88 C 177.32,279.70 178.39,279.52 179.53,279.33 C 180.68,279.14 181.91,278.94 183.22,278.73 C 184.53,278.53 185.93,278.32 187.41,278.09 C 188.89,277.87 190.63,277.62 192.09,277.41 C 193.55,277.19 194.91,276.98 196.17,276.78 C 197.43,276.58 198.59,276.40 199.64,276.22 C 200.70,276.04 201.65,275.88 202.50,275.72 C 203.35,275.56 204.10,275.42 204.75,275.28 C 205.40,275.15 205.95,275.02 206.39,274.91 C 206.84,274.79 207.18,274.69 207.42,274.59 C 207.66,274.50 207.80,274.42 207.84,274.34 C 207.88,274.27 207.73,274.21 207.66,274.16 C 207.58,274.10 207.50,274.05 207.41,274.01 C 207.32,273.96 207.23,273.93 207.12,273.90 C 207.01,273.87 206.89,273.85 206.77,273.83 C 206.64,273.81 206.50,273.80 206.36,273.80 C 206.21,273.79 206.06,273.80 205.90,273.80 C 205.74,273.81 205.56,273.83 205.38,273.85 C 205.20,273.87 205.01,273.90 204.81,273.94 C 204.61,273.97 204.40,274.04 204.19,274.06 C 203.97,274.08 203.75,274.08 203.52,274.05 C 203.30,274.03 203.06,273.98 202.82,273.91 C 202.58,273.85 202.33,273.75 202.08,273.64 C 201.82,273.53 201.56,273.39 201.30,273.23 C 201.03,273.08 200.76,272.90 200.48,272.70 C 200.20,272.49 199.91,272.27 199.62,272.02 C 199.32,271.78 199.02,271.51 198.72,271.22 C 198.41,270.93 198.07,270.62 197.78,270.28 C 197.49,269.94 197.22,269.57 196.98,269.16 C 196.73,268.76 196.51,268.33 196.30,267.87 C 196.10,267.40 195.92,266.91 195.77,266.39 C 195.61,265.87 195.47,265.32 195.36,264.73 C 195.25,264.15 195.15,263.54 195.09,262.90 C 195.02,262.26 194.97,261.58 194.95,260.88 C 194.92,260.18 194.92,259.45 194.94,258.69 C 194.96,257.93 195.01,257.07 195.06,256.31 C 195.11,255.56 195.17,254.84 195.24,254.16 C 195.31,253.49 195.39,252.85 195.48,252.24 C 195.56,251.64 195.66,251.07 195.77,250.55 C 195.87,250.02 195.99,249.53 196.11,249.08 C 196.23,248.63 196.37,248.21 196.51,247.84 C 196.65,247.46 196.80,247.12 196.96,246.82 C 197.12,246.52 197.29,246.26 197.47,246.03 C 197.65,245.81 197.83,245.65 198.03,245.47 C 198.23,245.29 198.43,245.11 198.65,244.95 C 198.86,244.78 199.09,244.62 199.32,244.46 C 199.55,244.31 199.80,244.16 200.05,244.02 C 200.30,243.87 200.56,243.74 200.83,243.61 C 201.10,243.48 201.38,243.36 201.66,243.24 C 201.95,243.13 202.25,243.02 202.55,242.91 C 202.86,242.81 203.18,242.71 203.50,242.62 C 203.82,242.54 204.29,242.47 204.50,242.38 C 204.71,242.28 204.78,242.18 204.73,242.06 C 204.68,241.95 204.51,241.82 204.20,241.69 C 203.90,241.55 203.47,241.41 202.91,241.25 C 202.35,241.09 201.66,240.93 200.84,240.75 C 200.03,240.57 199.09,240.39 198.02,240.19 C 196.95,239.99 195.75,239.78 194.42,239.56 C 193.10,239.34 191.64,239.11 190.06,238.88 C 188.48,238.64 186.54,238.37 184.94,238.12 C 183.33,237.88 181.83,237.65 180.43,237.43 C 179.03,237.21 177.73,236.99 176.54,236.79 C 175.35,236.58 174.25,236.39 173.27,236.20 C 172.28,236.02 171.39,235.84 170.61,235.67 C 169.83,235.50 169.15,235.35 168.57,235.20 C 167.99,235.05 167.52,234.90 167.15,234.77 C 166.78,234.64 166.51,234.52 166.34,234.41 C 166.18,234.29 166.20,234.21 166.16,234.09 C 166.11,233.97 166.09,233.84 166.09,233.69 C 166.09,233.54 166.11,233.37 166.16,233.19 C 166.20,233.01 166.26,232.81 166.34,232.59 C 166.43,232.38 166.53,232.15 166.66,231.91 C 166.78,231.66 166.93,231.40 167.09,231.12 C 167.26,230.85 167.45,230.56 167.66,230.25 C 167.86,229.94 168.09,229.62 168.34,229.28 C 168.59,228.94 168.84,228.55 169.16,228.22 C 169.48,227.89 169.84,227.58 170.26,227.29 C 170.67,227.00 171.14,226.74 171.65,226.49 C 172.16,226.25 172.72,226.03 173.33,225.83 C 173.94,225.63 174.59,225.45 175.30,225.30 C 176.00,225.14 176.75,225.01 177.55,224.90 C 178.36,224.79 179.20,224.70 180.10,224.63 C 181.00,224.57 181.94,224.52 182.94,224.50 C 183.93,224.48 185.08,224.51 186.06,224.50 C 187.05,224.49 187.97,224.48 188.84,224.45 C 189.71,224.43 190.53,224.40 191.28,224.36 C 192.04,224.32 192.73,224.27 193.38,224.22 C 194.02,224.16 194.60,224.10 195.12,224.03 C 195.65,223.96 196.12,223.88 196.53,223.80 C 196.94,223.71 197.30,223.62 197.59,223.52 C 197.89,223.41 198.13,223.30 198.31,223.19 C 198.49,223.07 198.53,222.93 198.69,222.81 C 198.84,222.70 199.02,222.59 199.23,222.48 C 199.45,222.38 199.68,222.29 199.95,222.20 C 200.22,222.12 200.52,222.04 200.84,221.97 C 201.17,221.90 201.52,221.84 201.91,221.78 C 202.29,221.73 202.70,221.68 203.14,221.64 C 203.58,221.60 204.05,221.57 204.55,221.55 C 205.04,221.52 205.57,221.51 206.12,221.50 C 206.68,221.49 207.32,221.50 207.88,221.50 C 208.43,221.50 208.94,221.49 209.43,221.48 C 209.92,221.46 210.37,221.45 210.79,221.43 C 211.21,221.41 211.60,221.39 211.95,221.36 C 212.31,221.33 212.63,221.30 212.92,221.27 C 213.21,221.23 213.47,221.19 213.70,221.15 C 213.92,221.11 214.11,221.06 214.27,221.01 C 214.43,220.96 214.56,220.90 214.66,220.84 C 214.75,220.79 214.80,220.72 214.84,220.66 C 214.89,220.59 214.92,220.52 214.94,220.44 C 214.95,220.36 214.95,220.28 214.94,220.19 C 214.92,220.10 214.89,220.01 214.84,219.91 C 214.80,219.81 214.73,219.70 214.66,219.59 C 214.58,219.48 214.48,219.37 214.38,219.25 C 214.27,219.13 214.14,219.01 214.00,218.88 C 213.86,218.74 213.70,218.61 213.53,218.47 C 213.36,218.33 213.17,218.17 212.97,218.03 C 212.77,217.89 212.57,217.77 212.35,217.65 C 212.14,217.53 211.91,217.42 211.68,217.32 C 211.45,217.22 211.20,217.13 210.95,217.05 C 210.70,216.96 210.44,216.89 210.17,216.83 C 209.90,216.76 209.62,216.71 209.34,216.66 C 209.05,216.62 208.75,216.58 208.45,216.55 C 208.14,216.53 207.82,216.51 207.50,216.50 C 207.18,216.49 206.81,216.51 206.50,216.50 C 206.19,216.49 205.90,216.48 205.62,216.45 C 205.35,216.43 205.10,216.40 204.88,216.36 C 204.65,216.32 204.44,216.27 204.25,216.22 C 204.06,216.16 203.90,216.10 203.75,216.03 C 203.60,215.96 203.48,215.88 203.38,215.80 C 203.27,215.71 203.19,215.62 203.12,215.52 C 203.06,215.41 203.02,215.30 203.00,215.19 C 202.98,215.07 203.10,214.93 203.00,214.81 C 202.90,214.70 202.71,214.59 202.42,214.48 C 202.13,214.38 201.75,214.29 201.27,214.20 C 200.78,214.12 200.21,214.04 199.53,213.97 C 198.86,213.90 198.09,213.84 197.22,213.78 C 196.35,213.73 195.39,213.68 194.33,213.64 C 193.27,213.60 192.11,213.57 190.86,213.55 C 189.61,213.52 188.26,213.51 186.81,213.50 C 185.37,213.49 183.63,213.52 182.19,213.50 C 180.74,213.48 179.39,213.45 178.14,213.41 C 176.89,213.36 175.73,213.30 174.67,213.22 C 173.61,213.14 172.65,213.05 171.78,212.94 C 170.91,212.83 170.14,212.70 169.47,212.56 C 168.79,212.42 168.22,212.27 167.73,212.09 C 167.25,211.92 166.87,211.73 166.58,211.53 C 166.29,211.33 166.10,211.11 166.00,210.88 C 165.90,210.64 165.95,210.36 166.00,210.12 C 166.05,209.89 166.16,209.67 166.31,209.47 C 166.47,209.27 166.68,209.08 166.94,208.91 C 167.20,208.73 167.51,208.58 167.88,208.44 C 168.24,208.30 168.66,208.17 169.12,208.06 C 169.59,207.95 170.11,207.86 170.69,207.78 C 171.26,207.70 171.89,207.64 172.56,207.59 C 173.24,207.55 173.97,207.52 174.75,207.50 C 175.53,207.48 176.47,207.51 177.25,207.50 C 178.03,207.49 178.76,207.48 179.43,207.46 C 180.10,207.44 180.72,207.42 181.29,207.38 C 181.86,207.35 182.37,207.31 182.83,207.27 C 183.29,207.22 183.69,207.17 184.05,207.11 C 184.40,207.05 184.70,206.99 184.95,206.91 C 185.19,206.84 185.38,206.76 185.52,206.68 C 185.66,206.60 185.75,206.50 185.78,206.41 C 185.81,206.31 185.73,206.20 185.72,206.09 C 185.71,205.99 185.71,205.89 185.72,205.80 C 185.73,205.70 185.75,205.61 185.78,205.52 C 185.81,205.42 185.85,205.34 185.91,205.25 C 185.96,205.16 186.02,205.08 186.09,205.00 C 186.17,204.92 186.25,204.84 186.34,204.77 C 186.44,204.69 186.54,204.62 186.66,204.55 C 186.77,204.48 186.90,204.41 187.03,204.34 C 187.17,204.28 187.23,204.22 187.47,204.16 C 187.71,204.09 188.05,204.03 188.48,203.96 C 188.91,203.89 189.43,203.83 190.05,203.76 C 190.68,203.69 191.39,203.62 192.20,203.55 C 193.01,203.48 193.92,203.40 194.92,203.33 C 195.92,203.25 197.02,203.18 198.21,203.10 C 199.40,203.02 200.69,202.95 202.07,202.87 C 203.45,202.79 204.93,202.71 206.50,202.62 C 208.07,202.54 209.93,202.46 211.50,202.38 C 213.07,202.29 214.53,202.21 215.89,202.12 C 217.25,202.04 218.51,201.96 219.67,201.88 C 220.83,201.79 221.89,201.71 222.84,201.62 C 223.80,201.54 224.65,201.46 225.41,201.38 C 226.16,201.29 226.81,201.21 227.36,201.12 C 227.91,201.04 228.36,200.96 228.70,200.88 C 229.05,200.79 229.29,200.71 229.44,200.62 C 229.58,200.54 229.51,200.43 229.56,200.38 C 229.62,200.32 229.68,200.29 229.76,200.29 C 229.83,200.29 229.92,200.31 230.02,200.37 C 230.12,200.42 230.24,200.50 230.36,200.61 C 230.48,200.72 230.62,200.85 230.77,201.02 C 230.91,201.18 231.07,201.37 231.24,201.59 C 231.41,201.80 231.60,202.05 231.79,202.32 C 231.98,202.59 232.19,202.89 232.41,203.22 C 232.62,203.55 232.89,203.95 233.09,204.28 C 233.30,204.61 233.47,204.92 233.62,205.20 C 233.78,205.49 233.90,205.75 234.00,205.98 C 234.10,206.22 234.17,206.43 234.22,206.62 C 234.27,206.82 234.29,206.98 234.28,207.12 C 234.28,207.27 234.24,207.39 234.19,207.48 C 234.13,207.58 234.05,207.65 233.94,207.70 C 233.83,207.75 233.69,207.78 233.53,207.78 C 233.37,207.78 233.15,207.72 232.97,207.72 C 232.79,207.72 232.62,207.74 232.47,207.78 C 232.31,207.82 232.17,207.89 232.03,207.97 C 231.90,208.05 231.77,208.16 231.66,208.28 C 231.54,208.41 231.44,208.55 231.34,208.72 C 231.25,208.89 231.17,209.07 231.09,209.28 C 231.02,209.49 230.96,209.72 230.91,209.97 C 230.85,210.22 230.81,210.49 230.78,210.78 C 230.75,211.07 230.76,211.42 230.72,211.72 C 230.68,212.02 230.61,212.30 230.53,212.58 C 230.45,212.85 230.34,213.11 230.22,213.36 C 230.09,213.61 229.95,213.84 229.78,214.06 C 229.61,214.28 229.43,214.49 229.22,214.69 C 229.01,214.88 228.78,215.07 228.53,215.23 C 228.28,215.40 228.01,215.56 227.72,215.70 C 227.43,215.85 227.11,215.98 226.78,216.09 C 226.45,216.21 226.05,216.30 225.72,216.41 C 225.38,216.51 225.07,216.61 224.77,216.70 C 224.47,216.80 224.18,216.89 223.92,216.98 C 223.66,217.08 223.41,217.16 223.19,217.25 C 222.96,217.34 222.75,217.42 222.56,217.50 C 222.37,217.58 222.20,217.66 222.05,217.73 C 221.89,217.81 221.76,217.88 221.64,217.95 C 221.52,218.02 221.42,218.09 221.34,218.16 C 221.26,218.22 221.21,218.28 221.16,218.34 C 221.10,218.41 221.05,218.48 221.02,218.55 C 220.98,218.62 220.95,218.69 220.92,218.77 C 220.90,218.84 220.88,218.92 220.88,219.00 C 220.87,219.08 220.87,219.16 220.88,219.25 C 220.88,219.34 220.90,219.42 220.92,219.52 C 220.95,219.61 220.98,219.70 221.02,219.80 C 221.05,219.89 221.10,219.99 221.16,220.09 C 221.21,220.20 221.25,220.31 221.34,220.41 C 221.43,220.50 221.55,220.60 221.70,220.68 C 221.84,220.76 222.01,220.84 222.21,220.91 C 222.41,220.99 222.64,221.05 222.89,221.11 C 223.14,221.17 223.43,221.22 223.73,221.27 C 224.04,221.31 224.38,221.35 224.74,221.38 C 225.11,221.42 225.50,221.44 225.91,221.46 C 226.33,221.48 226.78,221.49 227.25,221.50 C 227.72,221.51 228.24,221.53 228.75,221.50 C 229.26,221.47 229.79,221.41 230.33,221.31 C 230.87,221.22 231.42,221.09 231.98,220.94 C 232.55,220.78 233.13,220.59 233.72,220.38 C 234.31,220.16 234.91,219.91 235.53,219.62 C 236.15,219.34 236.78,219.03 237.42,218.69 C 238.07,218.34 238.72,217.97 239.39,217.56 C 240.06,217.16 240.74,216.72 241.44,216.25 C 242.13,215.78 242.82,215.22 243.56,214.75 C 244.30,214.28 245.07,213.84 245.88,213.44 C 246.68,213.03 247.51,212.66 248.38,212.31 C 249.24,211.97 250.14,211.66 251.06,211.38 C 251.99,211.09 252.95,210.84 253.94,210.62 C 254.93,210.41 255.95,210.22 257.00,210.06 C 258.05,209.91 259.14,209.78 260.25,209.69 C 261.36,209.59 262.51,209.53 263.69,209.50 C 264.86,209.47 266.17,209.51 267.31,209.50 C 268.45,209.49 269.53,209.48 270.53,209.47 C 271.54,209.45 272.47,209.43 273.34,209.41 C 274.21,209.38 275.02,209.35 275.75,209.31 C 276.48,209.28 277.15,209.23 277.75,209.19 C 278.35,209.14 278.88,209.09 279.34,209.03 C 279.81,208.97 280.20,208.91 280.53,208.84 C 280.86,208.78 281.12,208.70 281.31,208.62 C 281.51,208.55 281.49,208.46 281.69,208.38 C 281.88,208.29 282.15,208.21 282.48,208.12 C 282.82,208.04 283.23,207.96 283.70,207.88 C 284.18,207.79 284.73,207.71 285.34,207.62 C 285.96,207.54 286.65,207.46 287.41,207.38 C 288.16,207.29 288.99,207.21 289.89,207.12 C 290.79,207.04 291.76,206.96 292.80,206.88 C 293.84,206.79 294.95,206.71 296.12,206.62 C 297.30,206.54 298.64,206.45 299.88,206.38 C 301.11,206.30 302.34,206.22 303.56,206.16 C 304.78,206.09 305.99,206.03 307.19,205.97 C 308.39,205.91 309.57,205.86 310.75,205.81 C 311.93,205.77 313.09,205.72 314.25,205.69 C 315.41,205.65 316.55,205.62 317.69,205.59 C 318.82,205.57 319.95,205.55 321.06,205.53 C 322.18,205.52 323.28,205.51 324.38,205.50 C 325.47,205.49 326.60,205.49 327.62,205.50 C 328.65,205.51 329.61,205.52 330.51,205.54 C 331.41,205.56 332.25,205.58 333.02,205.62 C 333.80,205.65 334.52,205.69 335.17,205.73 C 335.83,205.78 336.42,205.83 336.95,205.89 C 337.49,205.95 337.96,206.01 338.37,206.09 C 338.78,206.16 339.13,206.24 339.41,206.32 C 339.70,206.40 339.93,206.50 340.09,206.59 C 340.26,206.69 340.31,206.77 340.41,206.91 C 340.50,207.04 340.60,207.20 340.68,207.38 C 340.76,207.57 340.84,207.78 340.91,208.02 C 340.99,208.26 341.05,208.53 341.11,208.83 C 341.17,209.12 341.22,209.45 341.27,209.80 C 341.31,210.15 341.35,210.52 341.38,210.93 C 341.42,211.33 341.44,211.77 341.46,212.23 C 341.48,212.69 341.49,213.17 341.50,213.69 C 341.51,214.20 341.49,214.76 341.50,215.31 C 341.51,215.87 341.52,216.44 341.55,217.03 C 341.57,217.62 341.60,218.22 341.64,218.84 C 341.68,219.46 341.73,220.10 341.78,220.75 C 341.84,221.40 341.90,222.07 341.97,222.75 C 342.04,223.43 342.12,224.13 342.20,224.84 C 342.29,225.56 342.38,226.29 342.48,227.03 C 342.59,227.78 342.70,228.54 342.81,229.31 C 342.93,230.09 343.08,230.93 343.19,231.69 C 343.29,232.45 343.38,233.18 343.44,233.88 C 343.50,234.57 343.54,235.24 343.56,235.88 C 343.58,236.51 343.58,237.11 343.56,237.69 C 343.54,238.26 343.50,238.80 343.44,239.31 C 343.38,239.82 343.29,240.30 343.19,240.75 C 343.08,241.20 342.96,241.61 342.81,242.00 C 342.67,242.39 342.50,242.74 342.31,243.06 C 342.12,243.39 341.88,243.65 341.69,243.94 C 341.50,244.22 341.33,244.50 341.19,244.77 C 341.04,245.03 340.92,245.29 340.81,245.55 C 340.71,245.80 340.62,246.04 340.56,246.28 C 340.50,246.52 340.46,246.75 340.44,246.97 C 340.42,247.19 340.42,247.40 340.44,247.61 C 340.46,247.82 340.50,248.01 340.56,248.20 C 340.62,248.39 340.71,248.58 340.81,248.75 C 340.92,248.92 341.07,249.05 341.19,249.25 C 341.30,249.45 341.41,249.67 341.52,249.92 C 341.62,250.17 341.71,250.46 341.80,250.77 C 341.88,251.08 341.96,251.41 342.03,251.78 C 342.10,252.15 342.16,252.54 342.22,252.97 C 342.27,253.39 342.32,253.85 342.36,254.33 C 342.40,254.81 342.43,255.32 342.45,255.86 C 342.48,256.40 342.49,256.97 342.50,257.56 C 342.51,258.16 342.51,258.84 342.50,259.44 C 342.49,260.03 342.48,260.60 342.45,261.14 C 342.43,261.68 342.40,262.19 342.36,262.67 C 342.32,263.15 342.27,263.61 342.22,264.03 C 342.16,264.46 342.10,264.85 342.03,265.22 C 341.96,265.59 341.88,265.92 341.80,266.23 C 341.71,266.54 341.62,266.83 341.52,267.08 C 341.41,267.33 341.30,267.55 341.19,267.75 C 341.07,267.95 340.92,268.08 340.81,268.25 C 340.71,268.42 340.62,268.58 340.55,268.75 C 340.48,268.92 340.42,269.08 340.39,269.25 C 340.36,269.42 340.34,269.58 340.34,269.75 C 340.35,269.92 340.37,270.08 340.41,270.25 C 340.45,270.42 340.50,270.58 340.58,270.75 C 340.65,270.92 340.75,271.08 340.86,271.25 C 340.97,271.42 341.10,271.58 341.25,271.75 C 341.40,271.92 341.59,272.08 341.75,272.25 C 341.91,272.42 342.06,272.60 342.20,272.78 C 342.35,272.96 342.48,273.15 342.61,273.34 C 342.74,273.54 342.86,273.73 342.97,273.94 C 343.08,274.14 343.18,274.35 343.28,274.56 C 343.38,274.78 343.47,274.99 343.55,275.22 C 343.63,275.44 343.70,275.67 343.77,275.91 C 343.83,276.14 343.89,276.38 343.94,276.62 C 343.99,276.87 344.04,277.06 344.06,277.38 C 344.09,277.69 344.10,278.07 344.10,278.51 C 344.10,278.95 344.08,279.45 344.05,280.02 C 344.02,280.59 343.98,281.23 343.92,281.92 C 343.86,282.62 343.79,283.38 343.70,284.20 C 343.62,285.03 343.51,285.92 343.40,286.87 C 343.28,287.82 343.15,288.83 343.01,289.91 C 342.86,290.99 342.70,292.14 342.53,293.34 C 342.36,294.55 342.21,295.96 341.97,297.16 C 341.73,298.35 341.44,299.47 341.10,300.51 C 340.76,301.55 340.37,302.51 339.93,303.40 C 339.49,304.29 339.00,305.10 338.45,305.83 C 337.91,306.56 337.32,307.22 336.67,307.80 C 336.03,308.38 335.33,308.88 334.59,309.30 C 333.84,309.73 333.04,310.08 332.20,310.35 C 331.35,310.62 330.45,310.82 329.50,310.94 C 328.55,311.06 327.53,311.03 326.50,311.06 C 325.47,311.09 324.41,311.11 323.33,311.11 C 322.24,311.11 321.13,311.10 319.98,311.08 C 318.84,311.05 317.67,311.02 316.47,310.97 C 315.27,310.92 314.04,310.86 312.78,310.78 C 311.52,310.71 310.24,310.62 308.92,310.52 C 307.61,310.41 306.26,310.30 304.89,310.17 C 303.52,310.04 302.12,309.90 300.69,309.75 C 299.26,309.60 297.76,309.41 296.31,309.25 C 294.87,309.09 293.43,308.95 292.02,308.81 C 290.60,308.68 289.19,308.55 287.80,308.44 C 286.40,308.32 285.02,308.22 283.66,308.12 C 282.29,308.03 280.93,307.95 279.59,307.88 C 278.25,307.80 276.92,307.74 275.61,307.69 C 274.29,307.64 272.99,307.59 271.70,307.56 C 270.41,307.53 269.14,307.51 267.88,307.50 C 266.61,307.49 265.34,307.53 264.12,307.50 C 262.91,307.47 261.73,307.41 260.59,307.31 C 259.45,307.22 258.35,307.09 257.28,306.94 C 256.21,306.78 255.18,306.59 254.19,306.38 C 253.19,306.16 252.23,305.91 251.31,305.62 C 250.39,305.34 249.51,305.03 248.66,304.69 C 247.81,304.34 246.99,303.97 246.22,303.56 C 245.44,303.16 244.70,302.72 244.00,302.25 C 243.30,301.78 242.66,301.22 242.00,300.75 C 241.34,300.28 240.70,299.84 240.06,299.42 C 239.43,299.01 238.80,298.62 238.19,298.27 C 237.57,297.91 236.97,297.58 236.38,297.28 C 235.78,296.98 235.20,296.71 234.62,296.47 C 234.05,296.23 233.49,296.01 232.94,295.83 C 232.39,295.64 231.84,295.49 231.31,295.36 C 230.78,295.23 230.26,295.13 229.75,295.06 C 229.24,294.99 228.73,294.97 228.25,294.94 C 227.77,294.91 227.32,294.89 226.90,294.88 C 226.47,294.88 226.07,294.88 225.70,294.90 C 225.32,294.92 224.97,294.94 224.64,294.98 C 224.31,295.02 224.01,295.08 223.73,295.14 C 223.46,295.20 223.20,295.28 222.98,295.37 C 222.75,295.45 222.55,295.55 222.37,295.66 C 222.19,295.77 222.04,295.90 221.91,296.03 C 221.78,296.17 221.67,296.32 221.59,296.47 C 221.52,296.62 221.48,296.76 221.48,296.91 C 221.47,297.06 221.50,297.21 221.55,297.37 C 221.61,297.52 221.70,297.67 221.83,297.83 C 221.95,297.98 222.11,298.14 222.30,298.30 C 222.49,298.45 222.71,298.61 222.96,298.77 C 223.21,298.93 223.50,299.10 223.82,299.26 C 224.14,299.42 224.49,299.58 224.88,299.75 C 225.26,299.92 225.73,300.07 226.12,300.25 C 226.52,300.43 226.88,300.61 227.23,300.80 C 227.57,301.00 227.89,301.20 228.18,301.41 C 228.47,301.63 228.74,301.85 228.98,302.08 C 229.23,302.31 229.45,302.55 229.64,302.80 C 229.83,303.05 230.00,303.30 230.15,303.57 C 230.29,303.84 230.41,304.11 230.51,304.40 C 230.60,304.68 230.67,304.98 230.72,305.28 C 230.76,305.58 230.75,305.93 230.78,306.22 C 230.81,306.51 230.85,306.77 230.89,307.02 C 230.93,307.26 230.99,307.48 231.05,307.67 C 231.11,307.87 231.17,308.04 231.25,308.19 C 231.33,308.34 231.41,308.46 231.50,308.56 C 231.59,308.66 231.69,308.74 231.80,308.80 C 231.90,308.85 232.02,308.88 232.14,308.89 C 232.26,308.90 232.39,308.88 232.53,308.84 C 232.67,308.80 232.84,308.69 232.97,308.66 C 233.10,308.62 233.21,308.61 233.30,308.62 C 233.39,308.64 233.46,308.68 233.52,308.75 C 233.57,308.82 233.61,308.91 233.62,309.03 C 233.64,309.15 233.64,309.30 233.62,309.47 C 233.61,309.64 233.57,309.84 233.52,310.06 C 233.46,310.29 233.39,310.54 233.30,310.81 C 233.21,311.09 233.10,311.39 232.97,311.72 C 232.84,312.05 232.68,312.45 232.53,312.78 C 232.39,313.11 232.24,313.41 232.10,313.68 C 231.96,313.95 231.82,314.20 231.68,314.41 C 231.54,314.63 231.40,314.82 231.27,314.98 C 231.13,315.15 230.99,315.28 230.86,315.39 C 230.73,315.50 230.59,315.58 230.46,315.63 C 230.33,315.69 230.20,315.71 230.07,315.71 C 229.94,315.71 229.81,315.68 229.69,315.62 Z" stroke="none" fill="currentColor" opacity="0.11" />
  <path d="M318.77,242.34L318.77,242.28 M318.77,275.44L318.77,275.50 M289.29,257.63L289.27,257.60 M296.42,257.63L296.43,257.60 M295.25,254.73L295.24,248.85 M289.29,260.16L289.27,260.19 M296.42,260.16L296.43,260.19 M296.46,257.63L296.47,257.60 M289.32,257.63L289.31,257.60 M290.50,254.73L290.50,248.85 M296.46,260.16L296.47,260.19 M289.32,260.16L289.31,260.19 M298.30,266.29L306.83,265.69 M289.22,264.67L298.21,264.37 M289.29,266.54L298.29,266.24 M270.26,271.46L263.34,276.38 M269.93,270.09L262.82,275.13 M256.11,281.58L270.22,270.48 M255.91,281.26L270.03,270.17 M290.50,306.34L304.79,307.34 M304.79,307.34L291.84,306.43 M304.59,268.57L297.91,264.15 M297.91,264.15L304.14,268.31 M207.00,288.38L245.42,287.90 M255.14,266.74L271.66,261.82 M290.18,261.91L298.25,261.96 M283.24,306.63L341.40,306.58 M230.42,292.49L259.07,292.49 M212.06,289.57L239.26,289.57 M270.25,300.84L264.34,296.06 M230.18,303.81L222.32,303.72 M230.17,304.63L222.32,304.53 M230.18,303.53L222.32,303.44 M279.30,271.42L276.85,264.14 M249.93,286.55L255.17,283.08 M341.05,309.70L294.96,309.37 M341.05,309.70L291.10,309.34 M305.34,306.66L290.48,306.38 M296.22,261.64L288.06,262.37 M252.50,268.10L265.28,264.03 M276.27,260.79L290.72,261.13 M207.75,288.29L219.68,288.48 M306.83,252.09L298.30,251.49 M298.21,253.41L289.22,253.11 M298.29,251.54L289.29,251.24 M270.26,246.33L263.34,241.41 M269.93,247.69L262.82,242.65 M256.11,236.21L270.22,247.30 M290.50,211.45L304.79,210.44 M304.79,210.44L291.84,211.35 M304.59,249.21L297.91,253.64 M297.91,253.64L304.14,249.48 M207.00,229.40L245.42,229.88 M219.59,230.76L201.40,230.89 M255.14,251.04L271.66,255.97 M341.40,211.20L283.24,211.15 M270.25,216.94L264.34,221.73 M230.42,225.30L259.07,225.30 M212.06,228.21L239.26,228.21 M230.18,213.16L222.32,213.25 M230.17,213.98L222.32,214.07 M230.17,214.26L222.32,214.35 M279.30,246.36L276.85,253.65 M249.93,231.23L255.17,234.70 M291.10,208.44L341.05,208.09 M341.05,208.09L294.96,208.42 M305.34,211.12L290.48,211.40 M296.22,256.15L288.06,255.41 M252.50,249.69L265.28,253.75 M276.27,256.99L290.72,256.66 M207.75,229.50L219.68,229.31 M276.86,263.60L294.06,262.44 M276.86,263.60L297.93,261.96 M242.66,270.93L253.43,268.09 M242.66,270.93L252.82,267.84 M168.66,284.67L199.41,280.67 M212.84,280.59L220.69,287.14 M220.69,287.14L213.72,281.31 M306.72,264.45L298.24,265.04 M306.83,265.45L298.29,266.05 M298.28,266.00L289.28,266.30 M269.70,270.67L262.81,275.57 M270.25,271.22L263.34,276.14 M256.05,280.46L262.81,275.57 M270.14,270.47L256.11,281.51 M290.50,306.10L304.78,307.10 M304.78,307.10L291.84,306.19 M304.59,268.33L297.91,263.90 M297.91,263.90L304.13,268.07 M206.99,288.14L245.41,287.66 M255.13,266.50L265.33,263.51 M255.13,266.50L271.65,261.58 M230.41,292.25L259.06,292.25 M212.05,289.33L239.25,289.33 M230.17,304.54L222.31,304.44 M230.17,304.38L222.31,304.28 M279.29,271.18L276.85,263.90 M249.92,286.31L255.16,282.84 M291.09,309.10L341.04,309.46 M341.04,309.46L294.95,309.13 M305.33,306.42L290.47,306.14 M296.21,261.40L288.05,262.13 M252.50,267.86L265.27,263.79 M276.26,260.55L290.72,260.89 M168.11,283.76L236.04,274.56 M276.86,254.18L294.06,255.35 M276.86,254.18L297.93,255.83 M242.66,246.85L253.43,249.69 M212.84,237.20L220.69,230.64 M220.69,230.64L213.72,236.47 M200.73,237.66L168.66,233.11 M168.66,233.11L199.97,237.40 M168.66,233.11L199.42,237.13 M306.72,253.34L298.24,252.74 M289.28,251.48L298.28,251.78 M269.70,247.11L262.81,242.22 M270.25,246.57L263.34,241.64 M262.81,242.22L256.05,237.32 M256.11,236.28L270.14,247.31 M290.50,211.69L304.78,210.68 M304.78,210.68L291.84,211.59 M304.59,249.45L297.91,253.88 M297.91,253.88L304.13,249.72 M206.99,229.64L245.41,230.12 M219.59,231.00L201.40,231.13 M255.14,251.28L271.65,256.21 M290.17,256.11L298.24,256.06 M283.23,211.39L341.40,211.44 M230.41,225.54L259.06,225.54 M212.05,228.45L239.26,228.45 M230.16,213.26L222.31,213.35 M230.16,213.42L222.31,213.51 M279.29,246.60L276.85,253.89 M249.92,231.47L255.16,234.94 M291.09,208.68L341.04,208.33 M341.04,208.33L294.95,208.66 M305.33,211.36L290.47,211.64 M296.21,256.39L288.05,255.65 M276.26,257.23L290.72,256.90 M236.04,243.22L168.11,234.03 M288.18,268.82L300.34,268.82 M288.18,269.92L300.34,269.92 M300.62,270.03L287.98,270.03 M289.93,275.89L298.64,275.89 M298.31,274.96L289.60,274.96 M287.83,281.72L299.47,282.12 M287.83,281.72L300.03,282.14 M308.16,279.91L308.16,273.23 M308.16,280.18L308.16,273.51 M308.69,280.32L308.69,273.65 M309.23,280.18L309.23,273.51 M309.23,279.90L309.23,273.23 M281.07,278.65L307.86,278.75 M299.69,278.78L307.86,278.75 M308.60,282.08L298.45,282.09 M266.65,280.30L256.35,280.28 M266.57,279.76L257.86,279.76 M266.57,279.87L257.86,279.87 M254.71,270.04L254.72,279.98 M254.71,270.04L254.72,278.26 M256.28,231.54L265.25,231.53 M259.75,237.21L259.75,244.34 M254.97,250.73L254.97,257.12 M268.98,250.73L268.98,257.12 M266.57,238.01L257.86,238.01 M266.57,237.90L257.86,237.90 M254.72,237.81L254.71,247.75 M254.71,247.75L254.72,239.52 M289.93,241.90L298.64,241.90 M298.31,242.84L289.60,242.84 M302.79,242.86L282.29,259.07 M287.83,236.07L299.47,235.68 M287.83,236.07L300.03,235.66 M308.16,237.89L308.16,244.56 M308.16,237.61L308.16,244.29 M308.69,237.47L308.69,244.15 M309.23,237.61L309.23,244.29 M309.23,237.89L309.23,244.56 M308.60,235.70L298.45,235.70 M215.96,258.89L215.96,252.51 M216.02,258.89L216.02,252.51 M216.16,258.89L216.16,252.51 M216.23,258.89L216.23,252.51 M215.96,265.27L215.96,258.89 M216.02,258.89L216.02,265.27 M216.16,258.89L216.16,265.27 M216.23,258.89L216.23,265.27 M232.13,252.73L227.60,252.73 M231.12,252.73L226.59,252.73 M230.88,253.08L226.35,253.07 M230.88,253.65L226.35,253.65 M231.12,253.99L226.59,253.99 M232.13,253.99L227.60,253.99 M227.60,265.05L232.13,265.05 M231.12,265.05L226.59,265.05 M230.88,264.71L226.35,264.71 M230.88,264.14L226.35,264.14 M231.12,263.79L226.59,263.79 M232.13,263.79L227.60,263.79 M223.10,253.06L229.41,253.06 M223.10,264.73L229.41,264.73 M240.48,250.06L240.51,263.48 M243.64,256.59L241.49,256.57 M243.59,261.21L242.00,261.23 M243.59,261.21L241.49,261.21 M243.56,264.23L242.10,264.26 M242.10,253.52L243.56,253.58 M236.27,258.02L250.40,258.08 M250.40,259.75L236.27,259.86 M238.81,258.02L252.86,258.09 M252.86,259.74L238.81,259.85 M339.01,269.55L333.34,271.53 M326.41,263.88L326.41,254.45 M315.24,249.43L321.67,249.43 M317.07,250.73L323.51,250.73 M315.24,268.90L321.67,268.90 M317.07,267.60L323.51,267.60 M326.46,255.84L326.46,262.49 M324.41,263.27L324.41,254.56 M320.72,269.79L314.97,270.48 M338.87,258.89L338.86,249.62 M338.86,249.62L333.12,247.42 M338.87,258.89L338.86,268.17 M338.86,268.17L333.12,270.36 M341.72,250.47L341.72,267.32 M341.74,253.25L341.74,264.53 M308.68,276.12L308.65,259.96 M279.86,259.96L279.84,276.12 M315.21,244.77L307.16,242.62 M315.21,273.01L307.16,275.17 M241.22,250.03L247.01,250.03 M241.22,267.76L247.01,267.76 M255.68,280.59L260.05,285.97 M330.99,258.89L331.05,252.28 M330.99,258.89L331.05,265.51 M266.36,248.36L252.76,248.32 M266.36,269.42L252.76,269.46 M260.98,244.75L251.74,244.88 M261.01,244.06L251.69,244.20 M261.01,243.28L251.67,243.42 M260.99,242.87L251.70,243.01 M260.98,273.04L251.74,272.90 M261.01,273.72L251.69,273.59 M260.99,274.91L251.70,274.78 M261.01,274.50L251.67,274.36 M272.37,233.13L278.56,233.94 M278.56,283.85L272.37,284.65 M252.20,257.60L243.03,257.74 M243.03,260.04L252.20,260.19" stroke="currentColor" stroke-width="0.6" stroke-linecap="round" fill="none" opacity="0.55" clip-path="url(#hull-clip)" filter="url(#glow)" />
  <path d="M 229.69,315.62 C 229.56,315.57 229.47,315.45 229.31,315.38 C 229.16,315.30 228.98,315.23 228.77,315.17 C 228.55,315.11 228.32,315.06 228.05,315.02 C 227.78,314.97 227.48,314.93 227.16,314.91 C 226.83,314.88 226.48,314.86 226.09,314.84 C 225.71,314.83 225.30,314.83 224.86,314.83 C 224.42,314.83 223.95,314.84 223.45,314.86 C 222.96,314.88 222.43,314.90 221.88,314.94 C 221.32,314.97 220.74,315.03 220.12,315.06 C 219.51,315.10 218.87,315.12 218.20,315.14 C 217.53,315.16 216.84,315.17 216.11,315.17 C 215.38,315.17 214.63,315.17 213.84,315.16 C 213.06,315.14 212.25,315.12 211.41,315.09 C 210.57,315.07 209.70,315.03 208.80,314.98 C 207.90,314.94 206.97,314.89 206.02,314.83 C 205.06,314.77 204.08,314.70 203.06,314.62 C 202.05,314.55 200.92,314.46 199.94,314.38 C 198.95,314.29 198.02,314.21 197.15,314.13 C 196.27,314.05 195.46,313.98 194.70,313.90 C 193.93,313.82 193.23,313.75 192.58,313.67 C 191.93,313.60 191.33,313.52 190.80,313.45 C 190.26,313.38 189.78,313.31 189.35,313.24 C 188.93,313.17 188.56,313.11 188.24,313.04 C 187.93,312.97 187.67,312.91 187.47,312.84 C 187.27,312.78 187.17,312.72 187.03,312.66 C 186.90,312.59 186.77,312.52 186.66,312.45 C 186.54,312.38 186.44,312.31 186.34,312.23 C 186.25,312.16 186.17,312.08 186.09,312.00 C 186.02,311.92 185.96,311.84 185.91,311.75 C 185.85,311.66 185.81,311.58 185.78,311.48 C 185.75,311.39 185.73,311.30 185.72,311.20 C 185.71,311.11 185.71,311.01 185.72,310.91 C 185.73,310.80 185.82,310.69 185.78,310.59 C 185.75,310.49 185.66,310.40 185.52,310.31 C 185.37,310.22 185.17,310.14 184.92,310.06 C 184.67,309.98 184.36,309.91 184.00,309.84 C 183.64,309.78 183.22,309.71 182.75,309.66 C 182.28,309.60 181.75,309.55 181.17,309.50 C 180.59,309.45 179.96,309.41 179.27,309.38 C 178.58,309.34 177.83,309.31 177.03,309.28 C 176.23,309.26 175.27,309.25 174.47,309.22 C 173.67,309.18 172.92,309.14 172.23,309.08 C 171.54,309.02 170.91,308.95 170.33,308.86 C 169.75,308.77 169.22,308.67 168.75,308.56 C 168.28,308.45 167.86,308.33 167.50,308.19 C 167.14,308.05 166.83,307.90 166.58,307.73 C 166.33,307.57 166.13,307.39 165.98,307.20 C 165.84,307.01 165.75,306.81 165.72,306.59 C 165.68,306.38 165.67,306.12 165.78,305.91 C 165.90,305.69 166.11,305.49 166.41,305.30 C 166.72,305.12 167.12,304.95 167.62,304.79 C 168.11,304.63 168.70,304.49 169.39,304.36 C 170.08,304.23 170.86,304.12 171.73,304.02 C 172.61,303.92 173.58,303.83 174.65,303.76 C 175.71,303.69 176.88,303.63 178.13,303.59 C 179.39,303.54 180.74,303.51 182.19,303.50 C 183.63,303.49 185.37,303.51 186.81,303.50 C 188.26,303.49 189.61,303.48 190.86,303.45 C 192.11,303.43 193.27,303.40 194.33,303.36 C 195.39,303.32 196.35,303.27 197.22,303.22 C 198.09,303.16 198.86,303.10 199.53,303.03 C 200.21,302.96 200.78,302.88 201.27,302.80 C 201.75,302.71 202.13,302.62 202.42,302.52 C 202.71,302.41 202.90,302.30 203.00,302.19 C 203.10,302.07 202.98,301.93 203.00,301.81 C 203.02,301.70 203.07,301.59 203.14,301.48 C 203.21,301.38 203.30,301.29 203.42,301.20 C 203.54,301.12 203.68,301.04 203.84,300.97 C 204.01,300.90 204.20,300.84 204.41,300.78 C 204.62,300.73 204.85,300.68 205.11,300.64 C 205.37,300.60 205.65,300.57 205.95,300.55 C 206.26,300.52 206.59,300.51 206.94,300.50 C 207.29,300.49 207.70,300.51 208.06,300.50 C 208.42,300.49 208.77,300.48 209.10,300.46 C 209.43,300.44 209.75,300.42 210.05,300.38 C 210.36,300.35 210.65,300.31 210.92,300.27 C 211.20,300.22 211.46,300.17 211.70,300.11 C 211.95,300.05 212.18,299.99 212.40,299.91 C 212.62,299.84 212.82,299.76 213.01,299.68 C 213.20,299.60 213.37,299.50 213.53,299.41 C 213.69,299.31 213.84,299.20 213.97,299.09 C 214.09,298.99 214.20,298.88 214.28,298.77 C 214.36,298.65 214.43,298.54 214.47,298.42 C 214.51,298.30 214.53,298.18 214.53,298.06 C 214.53,297.94 214.51,297.82 214.47,297.69 C 214.43,297.56 214.36,297.43 214.28,297.30 C 214.20,297.16 214.09,297.03 213.97,296.89 C 213.84,296.75 213.70,296.61 213.53,296.47 C 213.36,296.33 213.18,296.17 212.97,296.03 C 212.76,295.89 212.54,295.77 212.29,295.65 C 212.04,295.53 211.78,295.42 211.49,295.32 C 211.21,295.22 210.90,295.13 210.58,295.05 C 210.25,294.96 209.91,294.89 209.55,294.83 C 209.18,294.76 208.80,294.71 208.40,294.66 C 208.00,294.62 207.57,294.58 207.13,294.55 C 206.69,294.53 206.23,294.51 205.75,294.50 C 205.27,294.49 204.72,294.51 204.25,294.50 C 203.78,294.49 203.33,294.48 202.91,294.47 C 202.48,294.45 202.09,294.43 201.72,294.41 C 201.35,294.38 201.01,294.35 200.69,294.31 C 200.37,294.28 200.08,294.23 199.81,294.19 C 199.55,294.14 199.31,294.09 199.09,294.03 C 198.88,293.97 198.69,293.91 198.53,293.84 C 198.37,293.78 198.23,293.70 198.12,293.62 C 198.02,293.55 197.98,293.46 197.88,293.38 C 197.77,293.29 197.65,293.22 197.52,293.14 C 197.38,293.07 197.22,292.99 197.05,292.92 C 196.87,292.85 196.68,292.78 196.47,292.72 C 196.26,292.65 196.03,292.59 195.78,292.53 C 195.53,292.47 195.27,292.41 194.98,292.36 C 194.70,292.30 194.40,292.25 194.08,292.20 C 193.76,292.15 193.42,292.11 193.06,292.06 C 192.71,292.02 192.33,291.98 191.94,291.94 C 191.54,291.90 191.12,291.86 190.69,291.83 C 190.25,291.79 189.79,291.76 189.31,291.73 C 188.83,291.71 188.33,291.68 187.81,291.66 C 187.29,291.63 186.75,291.61 186.19,291.59 C 185.62,291.58 185.04,291.56 184.44,291.55 C 183.83,291.53 183.21,291.52 182.56,291.52 C 181.92,291.51 181.25,291.50 180.56,291.50 C 179.88,291.50 179.12,291.52 178.44,291.50 C 177.76,291.48 177.11,291.43 176.49,291.37 C 175.87,291.30 175.29,291.21 174.73,291.10 C 174.17,290.99 173.64,290.86 173.14,290.70 C 172.64,290.55 172.17,290.37 171.73,290.17 C 171.30,289.97 170.89,289.75 170.51,289.51 C 170.13,289.26 169.78,289.00 169.46,288.71 C 169.14,288.42 168.85,288.11 168.59,287.78 C 168.33,287.45 168.11,287.06 167.91,286.72 C 167.71,286.38 167.53,286.06 167.39,285.75 C 167.25,285.44 167.13,285.15 167.05,284.88 C 166.96,284.60 166.90,284.34 166.88,284.09 C 166.85,283.85 166.85,283.62 166.88,283.41 C 166.90,283.19 166.96,282.99 167.05,282.81 C 167.13,282.63 167.25,282.46 167.39,282.31 C 167.53,282.16 167.71,282.03 167.91,281.91 C 168.11,281.79 168.28,281.71 168.59,281.59 C 168.91,281.48 169.30,281.36 169.78,281.23 C 170.26,281.11 170.82,280.97 171.47,280.83 C 172.11,280.68 172.84,280.53 173.66,280.38 C 174.47,280.22 175.36,280.05 176.34,279.88 C 177.32,279.70 178.39,279.52 179.53,279.33 C 180.68,279.14 181.91,278.94 183.22,278.73 C 184.53,278.53 185.93,278.32 187.41,278.09 C 188.89,277.87 190.63,277.62 192.09,277.41 C 193.55,277.19 194.91,276.98 196.17,276.78 C 197.43,276.58 198.59,276.40 199.64,276.22 C 200.70,276.04 201.65,275.88 202.50,275.72 C 203.35,275.56 204.10,275.42 204.75,275.28 C 205.40,275.15 205.95,275.02 206.39,274.91 C 206.84,274.79 207.18,274.69 207.42,274.59 C 207.66,274.50 207.80,274.42 207.84,274.34 C 207.88,274.27 207.73,274.21 207.66,274.16 C 207.58,274.10 207.50,274.05 207.41,274.01 C 207.32,273.96 207.23,273.93 207.12,273.90 C 207.01,273.87 206.89,273.85 206.77,273.83 C 206.64,273.81 206.50,273.80 206.36,273.80 C 206.21,273.79 206.06,273.80 205.90,273.80 C 205.74,273.81 205.56,273.83 205.38,273.85 C 205.20,273.87 205.01,273.90 204.81,273.94 C 204.61,273.97 204.40,274.04 204.19,274.06 C 203.97,274.08 203.75,274.08 203.52,274.05 C 203.30,274.03 203.06,273.98 202.82,273.91 C 202.58,273.85 202.33,273.75 202.08,273.64 C 201.82,273.53 201.56,273.39 201.30,273.23 C 201.03,273.08 200.76,272.90 200.48,272.70 C 200.20,272.49 199.91,272.27 199.62,272.02 C 199.32,271.78 199.02,271.51 198.72,271.22 C 198.41,270.93 198.07,270.62 197.78,270.28 C 197.49,269.94 197.22,269.57 196.98,269.16 C 196.73,268.76 196.51,268.33 196.30,267.87 C 196.10,267.40 195.92,266.91 195.77,266.39 C 195.61,265.87 195.47,265.32 195.36,264.73 C 195.25,264.15 195.15,263.54 195.09,262.90 C 195.02,262.26 194.97,261.58 194.95,260.88 C 194.92,260.18 194.92,259.45 194.94,258.69 C 194.96,257.93 195.01,257.07 195.06,256.31 C 195.11,255.56 195.17,254.84 195.24,254.16 C 195.31,253.49 195.39,252.85 195.48,252.24 C 195.56,251.64 195.66,251.07 195.77,250.55 C 195.87,250.02 195.99,249.53 196.11,249.08 C 196.23,248.63 196.37,248.21 196.51,247.84 C 196.65,247.46 196.80,247.12 196.96,246.82 C 197.12,246.52 197.29,246.26 197.47,246.03 C 197.65,245.81 197.83,245.65 198.03,245.47 C 198.23,245.29 198.43,245.11 198.65,244.95 C 198.86,244.78 199.09,244.62 199.32,244.46 C 199.55,244.31 199.80,244.16 200.05,244.02 C 200.30,243.87 200.56,243.74 200.83,243.61 C 201.10,243.48 201.38,243.36 201.66,243.24 C 201.95,243.13 202.25,243.02 202.55,242.91 C 202.86,242.81 203.18,242.71 203.50,242.62 C 203.82,242.54 204.29,242.47 204.50,242.38 C 204.71,242.28 204.78,242.18 204.73,242.06 C 204.68,241.95 204.51,241.82 204.20,241.69 C 203.90,241.55 203.47,241.41 202.91,241.25 C 202.35,241.09 201.66,240.93 200.84,240.75 C 200.03,240.57 199.09,240.39 198.02,240.19 C 196.95,239.99 195.75,239.78 194.42,239.56 C 193.10,239.34 191.64,239.11 190.06,238.88 C 188.48,238.64 186.54,238.37 184.94,238.12 C 183.33,237.88 181.83,237.65 180.43,237.43 C 179.03,237.21 177.73,236.99 176.54,236.79 C 175.35,236.58 174.25,236.39 173.27,236.20 C 172.28,236.02 171.39,235.84 170.61,235.67 C 169.83,235.50 169.15,235.35 168.57,235.20 C 167.99,235.05 167.52,234.90 167.15,234.77 C 166.78,234.64 166.51,234.52 166.34,234.41 C 166.18,234.29 166.20,234.21 166.16,234.09 C 166.11,233.97 166.09,233.84 166.09,233.69 C 166.09,233.54 166.11,233.37 166.16,233.19 C 166.20,233.01 166.26,232.81 166.34,232.59 C 166.43,232.38 166.53,232.15 166.66,231.91 C 166.78,231.66 166.93,231.40 167.09,231.12 C 167.26,230.85 167.45,230.56 167.66,230.25 C 167.86,229.94 168.09,229.62 168.34,229.28 C 168.59,228.94 168.84,228.55 169.16,228.22 C 169.48,227.89 169.84,227.58 170.26,227.29 C 170.67,227.00 171.14,226.74 171.65,226.49 C 172.16,226.25 172.72,226.03 173.33,225.83 C 173.94,225.63 174.59,225.45 175.30,225.30 C 176.00,225.14 176.75,225.01 177.55,224.90 C 178.36,224.79 179.20,224.70 180.10,224.63 C 181.00,224.57 181.94,224.52 182.94,224.50 C 183.93,224.48 185.08,224.51 186.06,224.50 C 187.05,224.49 187.97,224.48 188.84,224.45 C 189.71,224.43 190.53,224.40 191.28,224.36 C 192.04,224.32 192.73,224.27 193.38,224.22 C 194.02,224.16 194.60,224.10 195.12,224.03 C 195.65,223.96 196.12,223.88 196.53,223.80 C 196.94,223.71 197.30,223.62 197.59,223.52 C 197.89,223.41 198.13,223.30 198.31,223.19 C 198.49,223.07 198.53,222.93 198.69,222.81 C 198.84,222.70 199.02,222.59 199.23,222.48 C 199.45,222.38 199.68,222.29 199.95,222.20 C 200.22,222.12 200.52,222.04 200.84,221.97 C 201.17,221.90 201.52,221.84 201.91,221.78 C 202.29,221.73 202.70,221.68 203.14,221.64 C 203.58,221.60 204.05,221.57 204.55,221.55 C 205.04,221.52 205.57,221.51 206.12,221.50 C 206.68,221.49 207.32,221.50 207.88,221.50 C 208.43,221.50 208.94,221.49 209.43,221.48 C 209.92,221.46 210.37,221.45 210.79,221.43 C 211.21,221.41 211.60,221.39 211.95,221.36 C 212.31,221.33 212.63,221.30 212.92,221.27 C 213.21,221.23 213.47,221.19 213.70,221.15 C 213.92,221.11 214.11,221.06 214.27,221.01 C 214.43,220.96 214.56,220.90 214.66,220.84 C 214.75,220.79 214.80,220.72 214.84,220.66 C 214.89,220.59 214.92,220.52 214.94,220.44 C 214.95,220.36 214.95,220.28 214.94,220.19 C 214.92,220.10 214.89,220.01 214.84,219.91 C 214.80,219.81 214.73,219.70 214.66,219.59 C 214.58,219.48 214.48,219.37 214.38,219.25 C 214.27,219.13 214.14,219.01 214.00,218.88 C 213.86,218.74 213.70,218.61 213.53,218.47 C 213.36,218.33 213.17,218.17 212.97,218.03 C 212.77,217.89 212.57,217.77 212.35,217.65 C 212.14,217.53 211.91,217.42 211.68,217.32 C 211.45,217.22 211.20,217.13 210.95,217.05 C 210.70,216.96 210.44,216.89 210.17,216.83 C 209.90,216.76 209.62,216.71 209.34,216.66 C 209.05,216.62 208.75,216.58 208.45,216.55 C 208.14,216.53 207.82,216.51 207.50,216.50 C 207.18,216.49 206.81,216.51 206.50,216.50 C 206.19,216.49 205.90,216.48 205.62,216.45 C 205.35,216.43 205.10,216.40 204.88,216.36 C 204.65,216.32 204.44,216.27 204.25,216.22 C 204.06,216.16 203.90,216.10 203.75,216.03 C 203.60,215.96 203.48,215.88 203.38,215.80 C 203.27,215.71 203.19,215.62 203.12,215.52 C 203.06,215.41 203.02,215.30 203.00,215.19 C 202.98,215.07 203.10,214.93 203.00,214.81 C 202.90,214.70 202.71,214.59 202.42,214.48 C 202.13,214.38 201.75,214.29 201.27,214.20 C 200.78,214.12 200.21,214.04 199.53,213.97 C 198.86,213.90 198.09,213.84 197.22,213.78 C 196.35,213.73 195.39,213.68 194.33,213.64 C 193.27,213.60 192.11,213.57 190.86,213.55 C 189.61,213.52 188.26,213.51 186.81,213.50 C 185.37,213.49 183.63,213.52 182.19,213.50 C 180.74,213.48 179.39,213.45 178.14,213.41 C 176.89,213.36 175.73,213.30 174.67,213.22 C 173.61,213.14 172.65,213.05 171.78,212.94 C 170.91,212.83 170.14,212.70 169.47,212.56 C 168.79,212.42 168.22,212.27 167.73,212.09 C 167.25,211.92 166.87,211.73 166.58,211.53 C 166.29,211.33 166.10,211.11 166.00,210.88 C 165.90,210.64 165.95,210.36 166.00,210.12 C 166.05,209.89 166.16,209.67 166.31,209.47 C 166.47,209.27 166.68,209.08 166.94,208.91 C 167.20,208.73 167.51,208.58 167.88,208.44 C 168.24,208.30 168.66,208.17 169.12,208.06 C 169.59,207.95 170.11,207.86 170.69,207.78 C 171.26,207.70 171.89,207.64 172.56,207.59 C 173.24,207.55 173.97,207.52 174.75,207.50 C 175.53,207.48 176.47,207.51 177.25,207.50 C 178.03,207.49 178.76,207.48 179.43,207.46 C 180.10,207.44 180.72,207.42 181.29,207.38 C 181.86,207.35 182.37,207.31 182.83,207.27 C 183.29,207.22 183.69,207.17 184.05,207.11 C 184.40,207.05 184.70,206.99 184.95,206.91 C 185.19,206.84 185.38,206.76 185.52,206.68 C 185.66,206.60 185.75,206.50 185.78,206.41 C 185.81,206.31 185.73,206.20 185.72,206.09 C 185.71,205.99 185.71,205.89 185.72,205.80 C 185.73,205.70 185.75,205.61 185.78,205.52 C 185.81,205.42 185.85,205.34 185.91,205.25 C 185.96,205.16 186.02,205.08 186.09,205.00 C 186.17,204.92 186.25,204.84 186.34,204.77 C 186.44,204.69 186.54,204.62 186.66,204.55 C 186.77,204.48 186.90,204.41 187.03,204.34 C 187.17,204.28 187.23,204.22 187.47,204.16 C 187.71,204.09 188.05,204.03 188.48,203.96 C 188.91,203.89 189.43,203.83 190.05,203.76 C 190.68,203.69 191.39,203.62 192.20,203.55 C 193.01,203.48 193.92,203.40 194.92,203.33 C 195.92,203.25 197.02,203.18 198.21,203.10 C 199.40,203.02 200.69,202.95 202.07,202.87 C 203.45,202.79 204.93,202.71 206.50,202.62 C 208.07,202.54 209.93,202.46 211.50,202.38 C 213.07,202.29 214.53,202.21 215.89,202.12 C 217.25,202.04 218.51,201.96 219.67,201.88 C 220.83,201.79 221.89,201.71 222.84,201.62 C 223.80,201.54 224.65,201.46 225.41,201.38 C 226.16,201.29 226.81,201.21 227.36,201.12 C 227.91,201.04 228.36,200.96 228.70,200.88 C 229.05,200.79 229.29,200.71 229.44,200.62 C 229.58,200.54 229.51,200.43 229.56,200.38 C 229.62,200.32 229.68,200.29 229.76,200.29 C 229.83,200.29 229.92,200.31 230.02,200.37 C 230.12,200.42 230.24,200.50 230.36,200.61 C 230.48,200.72 230.62,200.85 230.77,201.02 C 230.91,201.18 231.07,201.37 231.24,201.59 C 231.41,201.80 231.60,202.05 231.79,202.32 C 231.98,202.59 232.19,202.89 232.41,203.22 C 232.62,203.55 232.89,203.95 233.09,204.28 C 233.30,204.61 233.47,204.92 233.62,205.20 C 233.78,205.49 233.90,205.75 234.00,205.98 C 234.10,206.22 234.17,206.43 234.22,206.62 C 234.27,206.82 234.29,206.98 234.28,207.12 C 234.28,207.27 234.24,207.39 234.19,207.48 C 234.13,207.58 234.05,207.65 233.94,207.70 C 233.83,207.75 233.69,207.78 233.53,207.78 C 233.37,207.78 233.15,207.72 232.97,207.72 C 232.79,207.72 232.62,207.74 232.47,207.78 C 232.31,207.82 232.17,207.89 232.03,207.97 C 231.90,208.05 231.77,208.16 231.66,208.28 C 231.54,208.41 231.44,208.55 231.34,208.72 C 231.25,208.89 231.17,209.07 231.09,209.28 C 231.02,209.49 230.96,209.72 230.91,209.97 C 230.85,210.22 230.81,210.49 230.78,210.78 C 230.75,211.07 230.76,211.42 230.72,211.72 C 230.68,212.02 230.61,212.30 230.53,212.58 C 230.45,212.85 230.34,213.11 230.22,213.36 C 230.09,213.61 229.95,213.84 229.78,214.06 C 229.61,214.28 229.43,214.49 229.22,214.69 C 229.01,214.88 228.78,215.07 228.53,215.23 C 228.28,215.40 228.01,215.56 227.72,215.70 C 227.43,215.85 227.11,215.98 226.78,216.09 C 226.45,216.21 226.05,216.30 225.72,216.41 C 225.38,216.51 225.07,216.61 224.77,216.70 C 224.47,216.80 224.18,216.89 223.92,216.98 C 223.66,217.08 223.41,217.16 223.19,217.25 C 222.96,217.34 222.75,217.42 222.56,217.50 C 222.37,217.58 222.20,217.66 222.05,217.73 C 221.89,217.81 221.76,217.88 221.64,217.95 C 221.52,218.02 221.42,218.09 221.34,218.16 C 221.26,218.22 221.21,218.28 221.16,218.34 C 221.10,218.41 221.05,218.48 221.02,218.55 C 220.98,218.62 220.95,218.69 220.92,218.77 C 220.90,218.84 220.88,218.92 220.88,219.00 C 220.87,219.08 220.87,219.16 220.88,219.25 C 220.88,219.34 220.90,219.42 220.92,219.52 C 220.95,219.61 220.98,219.70 221.02,219.80 C 221.05,219.89 221.10,219.99 221.16,220.09 C 221.21,220.20 221.25,220.31 221.34,220.41 C 221.43,220.50 221.55,220.60 221.70,220.68 C 221.84,220.76 222.01,220.84 222.21,220.91 C 222.41,220.99 222.64,221.05 222.89,221.11 C 223.14,221.17 223.43,221.22 223.73,221.27 C 224.04,221.31 224.38,221.35 224.74,221.38 C 225.11,221.42 225.50,221.44 225.91,221.46 C 226.33,221.48 226.78,221.49 227.25,221.50 C 227.72,221.51 228.24,221.53 228.75,221.50 C 229.26,221.47 229.79,221.41 230.33,221.31 C 230.87,221.22 231.42,221.09 231.98,220.94 C 232.55,220.78 233.13,220.59 233.72,220.38 C 234.31,220.16 234.91,219.91 235.53,219.62 C 236.15,219.34 236.78,219.03 237.42,218.69 C 238.07,218.34 238.72,217.97 239.39,217.56 C 240.06,217.16 240.74,216.72 241.44,216.25 C 242.13,215.78 242.82,215.22 243.56,214.75 C 244.30,214.28 245.07,213.84 245.88,213.44 C 246.68,213.03 247.51,212.66 248.38,212.31 C 249.24,211.97 250.14,211.66 251.06,211.38 C 251.99,211.09 252.95,210.84 253.94,210.62 C 254.93,210.41 255.95,210.22 257.00,210.06 C 258.05,209.91 259.14,209.78 260.25,209.69 C 261.36,209.59 262.51,209.53 263.69,209.50 C 264.86,209.47 266.17,209.51 267.31,209.50 C 268.45,209.49 269.53,209.48 270.53,209.47 C 271.54,209.45 272.47,209.43 273.34,209.41 C 274.21,209.38 275.02,209.35 275.75,209.31 C 276.48,209.28 277.15,209.23 277.75,209.19 C 278.35,209.14 278.88,209.09 279.34,209.03 C 279.81,208.97 280.20,208.91 280.53,208.84 C 280.86,208.78 281.12,208.70 281.31,208.62 C 281.51,208.55 281.49,208.46 281.69,208.38 C 281.88,208.29 282.15,208.21 282.48,208.12 C 282.82,208.04 283.23,207.96 283.70,207.88 C 284.18,207.79 284.73,207.71 285.34,207.62 C 285.96,207.54 286.65,207.46 287.41,207.38 C 288.16,207.29 288.99,207.21 289.89,207.12 C 290.79,207.04 291.76,206.96 292.80,206.88 C 293.84,206.79 294.95,206.71 296.12,206.62 C 297.30,206.54 298.64,206.45 299.88,206.38 C 301.11,206.30 302.34,206.22 303.56,206.16 C 304.78,206.09 305.99,206.03 307.19,205.97 C 308.39,205.91 309.57,205.86 310.75,205.81 C 311.93,205.77 313.09,205.72 314.25,205.69 C 315.41,205.65 316.55,205.62 317.69,205.59 C 318.82,205.57 319.95,205.55 321.06,205.53 C 322.18,205.52 323.28,205.51 324.38,205.50 C 325.47,205.49 326.60,205.49 327.62,205.50 C 328.65,205.51 329.61,205.52 330.51,205.54 C 331.41,205.56 332.25,205.58 333.02,205.62 C 333.80,205.65 334.52,205.69 335.17,205.73 C 335.83,205.78 336.42,205.83 336.95,205.89 C 337.49,205.95 337.96,206.01 338.37,206.09 C 338.78,206.16 339.13,206.24 339.41,206.32 C 339.70,206.40 339.93,206.50 340.09,206.59 C 340.26,206.69 340.31,206.77 340.41,206.91 C 340.50,207.04 340.60,207.20 340.68,207.38 C 340.76,207.57 340.84,207.78 340.91,208.02 C 340.99,208.26 341.05,208.53 341.11,208.83 C 341.17,209.12 341.22,209.45 341.27,209.80 C 341.31,210.15 341.35,210.52 341.38,210.93 C 341.42,211.33 341.44,211.77 341.46,212.23 C 341.48,212.69 341.49,213.17 341.50,213.69 C 341.51,214.20 341.49,214.76 341.50,215.31 C 341.51,215.87 341.52,216.44 341.55,217.03 C 341.57,217.62 341.60,218.22 341.64,218.84 C 341.68,219.46 341.73,220.10 341.78,220.75 C 341.84,221.40 341.90,222.07 341.97,222.75 C 342.04,223.43 342.12,224.13 342.20,224.84 C 342.29,225.56 342.38,226.29 342.48,227.03 C 342.59,227.78 342.70,228.54 342.81,229.31 C 342.93,230.09 343.08,230.93 343.19,231.69 C 343.29,232.45 343.38,233.18 343.44,233.88 C 343.50,234.57 343.54,235.24 343.56,235.88 C 343.58,236.51 343.58,237.11 343.56,237.69 C 343.54,238.26 343.50,238.80 343.44,239.31 C 343.38,239.82 343.29,240.30 343.19,240.75 C 343.08,241.20 342.96,241.61 342.81,242.00 C 342.67,242.39 342.50,242.74 342.31,243.06 C 342.12,243.39 341.88,243.65 341.69,243.94 C 341.50,244.22 341.33,244.50 341.19,244.77 C 341.04,245.03 340.92,245.29 340.81,245.55 C 340.71,245.80 340.62,246.04 340.56,246.28 C 340.50,246.52 340.46,246.75 340.44,246.97 C 340.42,247.19 340.42,247.40 340.44,247.61 C 340.46,247.82 340.50,248.01 340.56,248.20 C 340.62,248.39 340.71,248.58 340.81,248.75 C 340.92,248.92 341.07,249.05 341.19,249.25 C 341.30,249.45 341.41,249.67 341.52,249.92 C 341.62,250.17 341.71,250.46 341.80,250.77 C 341.88,251.08 341.96,251.41 342.03,251.78 C 342.10,252.15 342.16,252.54 342.22,252.97 C 342.27,253.39 342.32,253.85 342.36,254.33 C 342.40,254.81 342.43,255.32 342.45,255.86 C 342.48,256.40 342.49,256.97 342.50,257.56 C 342.51,258.16 342.51,258.84 342.50,259.44 C 342.49,260.03 342.48,260.60 342.45,261.14 C 342.43,261.68 342.40,262.19 342.36,262.67 C 342.32,263.15 342.27,263.61 342.22,264.03 C 342.16,264.46 342.10,264.85 342.03,265.22 C 341.96,265.59 341.88,265.92 341.80,266.23 C 341.71,266.54 341.62,266.83 341.52,267.08 C 341.41,267.33 341.30,267.55 341.19,267.75 C 341.07,267.95 340.92,268.08 340.81,268.25 C 340.71,268.42 340.62,268.58 340.55,268.75 C 340.48,268.92 340.42,269.08 340.39,269.25 C 340.36,269.42 340.34,269.58 340.34,269.75 C 340.35,269.92 340.37,270.08 340.41,270.25 C 340.45,270.42 340.50,270.58 340.58,270.75 C 340.65,270.92 340.75,271.08 340.86,271.25 C 340.97,271.42 341.10,271.58 341.25,271.75 C 341.40,271.92 341.59,272.08 341.75,272.25 C 341.91,272.42 342.06,272.60 342.20,272.78 C 342.35,272.96 342.48,273.15 342.61,273.34 C 342.74,273.54 342.86,273.73 342.97,273.94 C 343.08,274.14 343.18,274.35 343.28,274.56 C 343.38,274.78 343.47,274.99 343.55,275.22 C 343.63,275.44 343.70,275.67 343.77,275.91 C 343.83,276.14 343.89,276.38 343.94,276.62 C 343.99,276.87 344.04,277.06 344.06,277.38 C 344.09,277.69 344.10,278.07 344.10,278.51 C 344.10,278.95 344.08,279.45 344.05,280.02 C 344.02,280.59 343.98,281.23 343.92,281.92 C 343.86,282.62 343.79,283.38 343.70,284.20 C 343.62,285.03 343.51,285.92 343.40,286.87 C 343.28,287.82 343.15,288.83 343.01,289.91 C 342.86,290.99 342.70,292.14 342.53,293.34 C 342.36,294.55 342.21,295.96 341.97,297.16 C 341.73,298.35 341.44,299.47 341.10,300.51 C 340.76,301.55 340.37,302.51 339.93,303.40 C 339.49,304.29 339.00,305.10 338.45,305.83 C 337.91,306.56 337.32,307.22 336.67,307.80 C 336.03,308.38 335.33,308.88 334.59,309.30 C 333.84,309.73 333.04,310.08 332.20,310.35 C 331.35,310.62 330.45,310.82 329.50,310.94 C 328.55,311.06 327.53,311.03 326.50,311.06 C 325.47,311.09 324.41,311.11 323.33,311.11 C 322.24,311.11 321.13,311.10 319.98,311.08 C 318.84,311.05 317.67,311.02 316.47,310.97 C 315.27,310.92 314.04,310.86 312.78,310.78 C 311.52,310.71 310.24,310.62 308.92,310.52 C 307.61,310.41 306.26,310.30 304.89,310.17 C 303.52,310.04 302.12,309.90 300.69,309.75 C 299.26,309.60 297.76,309.41 296.31,309.25 C 294.87,309.09 293.43,308.95 292.02,308.81 C 290.60,308.68 289.19,308.55 287.80,308.44 C 286.40,308.32 285.02,308.22 283.66,308.12 C 282.29,308.03 280.93,307.95 279.59,307.88 C 278.25,307.80 276.92,307.74 275.61,307.69 C 274.29,307.64 272.99,307.59 271.70,307.56 C 270.41,307.53 269.14,307.51 267.88,307.50 C 266.61,307.49 265.34,307.53 264.12,307.50 C 262.91,307.47 261.73,307.41 260.59,307.31 C 259.45,307.22 258.35,307.09 257.28,306.94 C 256.21,306.78 255.18,306.59 254.19,306.38 C 253.19,306.16 252.23,305.91 251.31,305.62 C 250.39,305.34 249.51,305.03 248.66,304.69 C 247.81,304.34 246.99,303.97 246.22,303.56 C 245.44,303.16 244.70,302.72 244.00,302.25 C 243.30,301.78 242.66,301.22 242.00,300.75 C 241.34,300.28 240.70,299.84 240.06,299.42 C 239.43,299.01 238.80,298.62 238.19,298.27 C 237.57,297.91 236.97,297.58 236.38,297.28 C 235.78,296.98 235.20,296.71 234.62,296.47 C 234.05,296.23 233.49,296.01 232.94,295.83 C 232.39,295.64 231.84,295.49 231.31,295.36 C 230.78,295.23 230.26,295.13 229.75,295.06 C 229.24,294.99 228.73,294.97 228.25,294.94 C 227.77,294.91 227.32,294.89 226.90,294.88 C 226.47,294.88 226.07,294.88 225.70,294.90 C 225.32,294.92 224.97,294.94 224.64,294.98 C 224.31,295.02 224.01,295.08 223.73,295.14 C 223.46,295.20 223.20,295.28 222.98,295.37 C 222.75,295.45 222.55,295.55 222.37,295.66 C 222.19,295.77 222.04,295.90 221.91,296.03 C 221.78,296.17 221.67,296.32 221.59,296.47 C 221.52,296.62 221.48,296.76 221.48,296.91 C 221.47,297.06 221.50,297.21 221.55,297.37 C 221.61,297.52 221.70,297.67 221.83,297.83 C 221.95,297.98 222.11,298.14 222.30,298.30 C 222.49,298.45 222.71,298.61 222.96,298.77 C 223.21,298.93 223.50,299.10 223.82,299.26 C 224.14,299.42 224.49,299.58 224.88,299.75 C 225.26,299.92 225.73,300.07 226.12,300.25 C 226.52,300.43 226.88,300.61 227.23,300.80 C 227.57,301.00 227.89,301.20 228.18,301.41 C 228.47,301.63 228.74,301.85 228.98,302.08 C 229.23,302.31 229.45,302.55 229.64,302.80 C 229.83,303.05 230.00,303.30 230.15,303.57 C 230.29,303.84 230.41,304.11 230.51,304.40 C 230.60,304.68 230.67,304.98 230.72,305.28 C 230.76,305.58 230.75,305.93 230.78,306.22 C 230.81,306.51 230.85,306.77 230.89,307.02 C 230.93,307.26 230.99,307.48 231.05,307.67 C 231.11,307.87 231.17,308.04 231.25,308.19 C 231.33,308.34 231.41,308.46 231.50,308.56 C 231.59,308.66 231.69,308.74 231.80,308.80 C 231.90,308.85 232.02,308.88 232.14,308.89 C 232.26,308.90 232.39,308.88 232.53,308.84 C 232.67,308.80 232.84,308.69 232.97,308.66 C 233.10,308.62 233.21,308.61 233.30,308.62 C 233.39,308.64 233.46,308.68 233.52,308.75 C 233.57,308.82 233.61,308.91 233.62,309.03 C 233.64,309.15 233.64,309.30 233.62,309.47 C 233.61,309.64 233.57,309.84 233.52,310.06 C 233.46,310.29 233.39,310.54 233.30,310.81 C 233.21,311.09 233.10,311.39 232.97,311.72 C 232.84,312.05 232.68,312.45 232.53,312.78 C 232.39,313.11 232.24,313.41 232.10,313.68 C 231.96,313.95 231.82,314.20 231.68,314.41 C 231.54,314.63 231.40,314.82 231.27,314.98 C 231.13,315.15 230.99,315.28 230.86,315.39 C 230.73,315.50 230.59,315.58 230.46,315.63 C 230.33,315.69 230.20,315.71 230.07,315.71 C 229.94,315.71 229.81,315.68 229.69,315.62 Z" fill="none" stroke="currentColor" stroke-width="1.5" stroke-linejoin="round" stroke-linecap="round" filter="url(#glow)" />
</svg>