<svg xmlns="http://www.w3.org/2000/svg" width="512" height="512" viewBox="105.71 216.62 271.61 88.24" preserveAspectRatio="xMidYMid meet">
  <defs>
    <filter id="glow" x="-30%" y="-30%" width="160%" height="160%">
      <feGaussianBlur in="SourceGraphic" stdDeviation="2.4" result="blur" />
      <feMerge>
        <feMergeNode in="blur" />
        <feMergeNode in="SourceGraphic" />
      </feMerge>
    </filter>
    <clipPath id="hull-clip">
      <path d="M 198.81,297.50 C 198.61,297.51 198.39,297.51 198.19,297.50 C 197.98,297.49 197.78,297.48 197.59,297.46 C 197.39,297.44 197.20,297.42 197.01,297.38 C 196.82,297.35 196.63,297.31 196.45,297.27 C 196.27,297.22 196.10,297.17 195.92,297.11 C 195.75,297.05 195.58,296.99 195.41,296.91 C 195.25,296.84 195.09,296.76 194.93,296.68 C 194.77,296.60 194.62,296.50 194.47,296.41 C 194.32,296.31 194.17,296.20 194.03,296.09 C 193.89,295.98 193.77,295.87 193.65,295.74 C 193.53,295.62 193.42,295.49 193.32,295.35 C 193.22,295.21 193.13,295.07 193.05,294.92 C 192.96,294.77 192.89,294.62 192.83,294.45 C 192.76,294.29 192.71,294.12 192.66,293.95 C 192.62,293.77 192.58,293.59 192.55,293.40 C 192.53,293.21 192.51,293.01 192.50,292.81 C 192.49,292.61 192.51,292.40 192.50,292.19 C 192.49,291.98 192.47,291.76 192.45,291.54 C 192.42,291.32 192.38,291.10 192.34,290.87 C 192.29,290.64 192.24,290.41 192.17,290.17 C 192.11,289.94 192.04,289.70 191.95,289.45 C 191.87,289.21 191.78,288.96 191.68,288.71 C 191.58,288.46 191.47,288.20 191.35,287.95 C 191.23,287.69 191.11,287.42 190.97,287.16 C 190.83,286.89 190.77,286.61 190.53,286.34 C 190.29,286.08 189.96,285.83 189.54,285.59 C 189.12,285.34 188.60,285.11 187.99,284.88 C 187.38,284.66 186.68,284.44 185.89,284.23 C 185.10,284.03 184.21,283.83 183.23,283.64 C 182.26,283.45 181.19,283.27 180.02,283.10 C 178.86,282.93 177.61,282.77 176.26,282.62 C 174.91,282.46 173.47,282.32 171.94,282.19 C 170.40,282.05 168.61,281.95 167.06,281.81 C 165.51,281.68 164.04,281.54 162.64,281.39 C 161.24,281.24 159.92,281.09 158.67,280.92 C 157.42,280.76 156.25,280.59 155.16,280.41 C 154.06,280.23 153.04,280.04 152.09,279.84 C 151.15,279.65 150.28,279.45 149.48,279.23 C 148.69,279.02 147.97,278.80 147.33,278.58 C 146.68,278.35 146.12,278.12 145.62,277.88 C 145.13,277.63 144.77,277.37 144.38,277.12 C 143.98,276.88 143.61,276.64 143.27,276.41 C 142.92,276.17 142.60,275.94 142.30,275.72 C 142.00,275.49 141.72,275.28 141.47,275.06 C 141.22,274.85 140.99,274.64 140.78,274.44 C 140.58,274.23 140.39,274.04 140.23,273.84 C 140.08,273.65 139.94,273.46 139.83,273.28 C 139.72,273.10 139.63,272.92 139.56,272.75 C 139.50,272.58 139.53,272.41 139.44,272.25 C 139.34,272.09 139.20,271.93 139.00,271.78 C 138.80,271.63 138.55,271.48 138.25,271.34 C 137.95,271.20 137.59,271.07 137.19,270.94 C 136.78,270.81 136.32,270.68 135.81,270.56 C 135.30,270.44 134.74,270.33 134.12,270.22 C 133.51,270.11 132.84,270.01 132.12,269.91 C 131.41,269.81 130.64,269.71 129.81,269.62 C 128.99,269.54 128.01,269.46 127.19,269.38 C 126.37,269.29 125.61,269.19 124.90,269.09 C 124.19,268.98 123.54,268.87 122.95,268.76 C 122.35,268.64 121.81,268.52 121.33,268.39 C 120.85,268.26 120.42,268.13 120.05,267.98 C 119.68,267.84 119.36,267.69 119.10,267.54 C 118.84,267.38 118.64,267.22 118.49,267.05 C 118.35,266.89 118.25,266.71 118.22,266.53 C 118.18,266.35 118.27,266.15 118.28,265.97 C 118.29,265.79 118.28,265.62 118.27,265.47 C 118.25,265.31 118.22,265.17 118.17,265.03 C 118.13,264.90 118.07,264.77 118.00,264.66 C 117.93,264.54 117.85,264.44 117.75,264.34 C 117.65,264.25 117.54,264.17 117.42,264.09 C 117.30,264.02 117.16,263.96 117.02,263.91 C 116.87,263.85 116.71,263.81 116.53,263.78 C 116.36,263.75 116.15,263.75 115.97,263.72 C 115.79,263.69 115.62,263.65 115.45,263.59 C 115.29,263.54 115.13,263.48 114.98,263.41 C 114.84,263.33 114.70,263.25 114.56,263.16 C 114.43,263.06 114.30,262.96 114.19,262.84 C 114.07,262.73 113.96,262.60 113.86,262.47 C 113.76,262.33 113.66,262.19 113.58,262.03 C 113.49,261.88 113.41,261.71 113.34,261.53 C 113.27,261.35 113.20,261.15 113.16,260.97 C 113.11,260.79 113.08,260.61 113.06,260.44 C 113.05,260.27 113.05,260.10 113.06,259.94 C 113.08,259.78 113.11,259.62 113.16,259.47 C 113.20,259.32 113.27,259.17 113.34,259.03 C 113.42,258.89 113.52,258.76 113.62,258.62 C 113.73,258.49 113.86,258.37 114.00,258.25 C 114.14,258.13 114.30,258.02 114.47,257.91 C 114.64,257.80 114.85,257.69 115.03,257.59 C 115.21,257.50 115.38,257.41 115.54,257.34 C 115.70,257.26 115.85,257.19 115.99,257.13 C 116.13,257.07 116.27,257.02 116.39,256.98 C 116.51,256.94 116.63,256.91 116.73,256.89 C 116.84,256.87 116.94,256.86 117.02,256.85 C 117.11,256.85 117.19,256.85 117.26,256.87 C 117.33,256.88 117.39,256.90 117.44,256.94 C 117.49,256.97 117.52,257.04 117.56,257.06 C 117.60,257.09 117.65,257.10 117.69,257.09 C 117.73,257.09 117.77,257.07 117.81,257.03 C 117.85,256.99 117.90,256.94 117.94,256.88 C 117.98,256.81 118.02,256.72 118.06,256.62 C 118.10,256.53 118.15,256.41 118.19,256.28 C 118.23,256.15 118.27,256.01 118.31,255.84 C 118.35,255.68 118.40,255.51 118.44,255.31 C 118.48,255.12 118.47,254.89 118.56,254.69 C 118.66,254.49 118.80,254.29 119.00,254.11 C 119.20,253.92 119.45,253.75 119.75,253.58 C 120.05,253.41 120.41,253.25 120.81,253.09 C 121.22,252.94 121.68,252.79 122.19,252.66 C 122.70,252.52 123.26,252.39 123.88,252.27 C 124.49,252.14 125.16,252.03 125.88,251.92 C 126.59,251.82 127.36,251.72 128.19,251.62 C 129.01,251.53 129.99,251.46 130.81,251.38 C 131.63,251.29 132.39,251.20 133.10,251.10 C 133.81,251.01 134.46,250.91 135.05,250.80 C 135.65,250.70 136.19,250.60 136.67,250.48 C 137.15,250.37 137.58,250.26 137.95,250.14 C 138.32,250.02 138.64,249.90 138.90,249.77 C 139.16,249.65 139.36,249.52 139.51,249.38 C 139.65,249.25 139.75,249.11 139.78,248.97 C 139.82,248.83 139.71,248.68 139.72,248.53 C 139.73,248.38 139.76,248.22 139.83,248.05 C 139.89,247.88 139.99,247.70 140.11,247.52 C 140.23,247.33 140.38,247.14 140.56,246.94 C 140.74,246.74 140.95,246.53 141.19,246.31 C 141.42,246.10 141.69,245.87 141.98,245.64 C 142.28,245.41 142.60,245.17 142.95,244.92 C 143.30,244.67 143.68,244.42 144.09,244.16 C 144.50,243.89 144.89,243.61 145.41,243.34 C 145.92,243.08 146.51,242.82 147.18,242.57 C 147.85,242.32 148.59,242.07 149.41,241.84 C 150.24,241.60 151.13,241.37 152.11,241.14 C 153.08,240.92 154.14,240.70 155.27,240.48 C 156.39,240.27 157.60,240.07 158.88,239.87 C 160.17,239.67 161.52,239.48 162.96,239.29 C 164.40,239.10 165.91,238.92 167.50,238.75 C 169.09,238.58 170.93,238.43 172.50,238.25 C 174.07,238.07 175.54,237.87 176.91,237.65 C 178.29,237.43 179.56,237.20 180.74,236.95 C 181.92,236.69 183.00,236.43 183.98,236.14 C 184.97,235.86 185.85,235.55 186.64,235.23 C 187.43,234.92 188.12,234.58 188.71,234.23 C 189.30,233.87 189.80,233.50 190.20,233.12 C 190.59,232.73 190.89,232.33 191.09,231.91 C 191.30,231.49 191.30,231.01 191.41,230.59 C 191.51,230.18 191.62,229.78 191.73,229.41 C 191.85,229.03 191.96,228.68 192.08,228.34 C 192.20,228.01 192.32,227.70 192.44,227.41 C 192.56,227.11 192.68,226.84 192.81,226.59 C 192.94,226.34 193.07,226.11 193.20,225.91 C 193.34,225.70 193.47,225.51 193.61,225.34 C 193.75,225.18 193.89,225.03 194.03,224.91 C 194.17,224.78 194.32,224.69 194.47,224.59 C 194.62,224.50 194.78,224.42 194.95,224.34 C 195.12,224.27 195.30,224.21 195.48,224.16 C 195.67,224.10 195.86,224.06 196.06,224.03 C 196.26,224.00 196.47,223.98 196.69,223.97 C 196.90,223.96 197.13,223.96 197.36,223.97 C 197.59,223.98 197.83,224.00 198.08,224.03 C 198.33,224.06 198.58,224.10 198.84,224.16 C 199.11,224.21 199.41,224.26 199.66,224.34 C 199.90,224.43 200.12,224.53 200.32,224.65 C 200.52,224.77 200.69,224.91 200.84,225.07 C 200.98,225.23 201.11,225.41 201.20,225.61 C 201.30,225.81 201.37,226.03 201.42,226.27 C 201.47,226.50 201.49,226.76 201.49,227.04 C 201.49,227.32 201.46,227.61 201.41,227.93 C 201.36,228.25 201.29,228.58 201.19,228.94 C 201.09,229.29 200.93,229.70 200.81,230.06 C 200.70,230.42 200.60,230.76 200.51,231.09 C 200.42,231.41 200.34,231.72 200.27,232.01 C 200.21,232.30 200.15,232.57 200.11,232.83 C 200.07,233.08 200.04,233.32 200.02,233.55 C 200.00,233.77 199.99,233.98 199.99,234.16 C 200.00,234.35 200.01,234.52 200.04,234.68 C 200.07,234.83 200.11,234.97 200.16,235.09 C 200.21,235.21 200.21,235.31 200.34,235.41 C 200.48,235.50 200.68,235.60 200.96,235.68 C 201.24,235.76 201.59,235.84 202.01,235.91 C 202.43,235.99 202.92,236.05 203.48,236.11 C 204.05,236.17 204.68,236.22 205.39,236.27 C 206.10,236.31 206.88,236.35 207.73,236.38 C 208.58,236.42 209.50,236.44 210.49,236.46 C 211.49,236.48 212.55,236.49 213.69,236.50 C 214.82,236.51 216.17,236.51 217.31,236.50 C 218.45,236.49 219.53,236.48 220.53,236.47 C 221.54,236.45 222.47,236.43 223.34,236.41 C 224.21,236.38 225.02,236.35 225.75,236.31 C 226.48,236.28 227.15,236.23 227.75,236.19 C 228.35,236.14 228.88,236.09 229.34,236.03 C 229.81,235.97 230.20,235.91 230.53,235.84 C 230.86,235.78 231.12,235.70 231.31,235.62 C 231.51,235.55 231.54,235.45 231.69,235.38 C 231.84,235.30 232.02,235.22 232.22,235.16 C 232.42,235.09 232.65,235.03 232.91,234.97 C 233.16,234.91 233.44,234.86 233.75,234.81 C 234.06,234.77 234.39,234.72 234.75,234.69 C 235.11,234.65 235.49,234.62 235.91,234.59 C 236.32,234.57 236.76,234.55 237.22,234.53 C 237.68,234.52 238.17,234.51 238.69,234.50 C 239.20,234.49 239.79,234.49 240.31,234.50 C 240.84,234.51 241.34,234.54 241.83,234.58 C 242.32,234.62 242.78,234.67 243.23,234.73 C 243.68,234.80 244.12,234.88 244.53,234.97 C 244.95,235.06 245.34,235.16 245.72,235.28 C 246.10,235.40 246.46,235.53 246.80,235.67 C 247.14,235.82 247.46,235.97 247.77,236.14 C 248.07,236.31 248.36,236.49 248.62,236.69 C 248.89,236.88 249.09,237.11 249.38,237.31 C 249.66,237.51 249.97,237.70 250.31,237.88 C 250.66,238.05 251.03,238.22 251.44,238.38 C 251.84,238.53 252.28,238.68 252.75,238.81 C 253.22,238.95 253.72,239.07 254.25,239.19 C 254.78,239.30 255.34,239.41 255.94,239.50 C 256.53,239.59 257.16,239.68 257.81,239.75 C 258.47,239.82 259.16,239.89 259.88,239.94 C 260.59,239.99 261.39,240.03 262.12,240.06 C 262.86,240.10 263.59,240.13 264.31,240.16 C 265.03,240.18 265.74,240.20 266.44,240.22 C 267.14,240.23 267.82,240.24 268.50,240.25 C 269.18,240.26 269.84,240.26 270.50,240.25 C 271.16,240.24 271.80,240.23 272.44,240.22 C 273.07,240.20 273.70,240.18 274.31,240.16 C 274.93,240.13 275.53,240.10 276.12,240.06 C 276.72,240.03 277.34,239.99 277.88,239.94 C 278.41,239.89 278.90,239.83 279.35,239.76 C 279.80,239.69 280.20,239.61 280.55,239.52 C 280.91,239.44 281.22,239.34 281.48,239.23 C 281.75,239.13 281.97,239.01 282.14,238.89 C 282.31,238.77 282.44,238.63 282.52,238.49 C 282.61,238.35 282.64,238.20 282.63,238.04 C 282.62,237.88 282.57,237.71 282.47,237.53 C 282.37,237.35 282.16,237.17 282.03,236.97 C 281.91,236.77 281.80,236.55 281.72,236.33 C 281.64,236.10 281.57,235.86 281.53,235.61 C 281.49,235.36 281.47,235.09 281.47,234.81 C 281.47,234.53 281.49,234.24 281.53,233.94 C 281.57,233.63 281.64,233.32 281.72,232.98 C 281.80,232.65 281.91,232.31 282.03,231.95 C 282.16,231.60 282.30,231.23 282.47,230.84 C 282.64,230.46 282.82,230.03 283.03,229.66 C 283.25,229.29 283.49,228.94 283.76,228.62 C 284.03,228.30 284.32,228.00 284.65,227.73 C 284.97,227.45 285.32,227.21 285.70,226.98 C 286.08,226.76 286.49,226.56 286.92,226.39 C 287.36,226.22 287.82,226.07 288.30,225.95 C 288.79,225.82 289.31,225.72 289.85,225.65 C 290.39,225.57 290.96,225.52 291.56,225.50 C 292.16,225.48 292.86,225.49 293.44,225.50 C 294.02,225.51 294.55,225.54 295.03,225.58 C 295.52,225.62 295.95,225.67 296.34,225.73 C 296.73,225.80 297.08,225.88 297.38,225.97 C 297.67,226.06 297.92,226.16 298.12,226.28 C 298.33,226.40 298.48,226.53 298.59,226.67 C 298.70,226.82 298.77,226.97 298.78,227.14 C 298.80,227.31 298.77,227.49 298.69,227.69 C 298.61,227.88 298.45,228.12 298.31,228.31 C 298.17,228.51 298.02,228.69 297.86,228.86 C 297.70,229.03 297.52,229.18 297.33,229.33 C 297.14,229.47 296.93,229.60 296.72,229.72 C 296.50,229.84 296.27,229.94 296.03,230.03 C 295.79,230.12 295.53,230.20 295.27,230.27 C 295.00,230.33 294.72,230.38 294.42,230.42 C 294.13,230.46 293.82,230.49 293.50,230.50 C 293.18,230.51 292.82,230.49 292.50,230.50 C 292.18,230.51 291.88,230.54 291.59,230.57 C 291.30,230.61 291.02,230.65 290.76,230.71 C 290.50,230.77 290.25,230.84 290.02,230.92 C 289.78,231.00 289.56,231.10 289.36,231.20 C 289.15,231.31 288.96,231.43 288.79,231.55 C 288.61,231.68 288.45,231.82 288.30,231.98 C 288.16,232.13 288.02,232.29 287.91,232.47 C 287.79,232.64 287.69,232.85 287.59,233.03 C 287.50,233.21 287.41,233.39 287.34,233.55 C 287.26,233.72 287.19,233.88 287.13,234.04 C 287.07,234.19 287.02,234.34 286.98,234.48 C 286.94,234.63 286.91,234.76 286.89,234.89 C 286.87,235.02 286.86,235.14 286.85,235.26 C 286.85,235.37 286.85,235.48 286.87,235.59 C 286.88,235.69 286.90,235.79 286.94,235.88 C 286.97,235.96 287.02,236.04 287.06,236.12 C 287.11,236.21 287.15,236.29 287.20,236.37 C 287.24,236.45 287.29,236.52 287.34,236.60 C 287.38,236.68 287.43,236.75 287.48,236.83 C 287.54,236.90 287.59,236.98 287.64,237.05 C 287.69,237.12 287.75,237.19 287.80,237.26 C 287.86,237.33 287.92,237.39 287.98,237.46 C 288.04,237.53 288.10,237.59 288.16,237.66 C 288.22,237.72 288.24,237.79 288.34,237.84 C 288.44,237.90 288.58,237.95 288.76,237.99 C 288.93,238.04 289.15,238.07 289.40,238.10 C 289.65,238.13 289.94,238.15 290.27,238.17 C 290.59,238.19 290.96,238.20 291.36,238.20 C 291.76,238.21 292.20,238.20 292.68,238.20 C 293.16,238.19 293.67,238.17 294.23,238.15 C 294.78,238.13 295.37,238.10 296.00,238.06 C 296.63,238.03 297.32,237.97 298.00,237.94 C 298.68,237.91 299.37,237.89 300.08,237.88 C 300.78,237.86 301.50,237.86 302.23,237.88 C 302.97,237.89 303.71,237.91 304.47,237.94 C 305.23,237.97 306.00,238.01 306.78,238.06 C 307.57,238.11 308.36,238.18 309.17,238.25 C 309.98,238.32 310.80,238.41 311.64,238.50 C 312.48,238.59 313.33,238.70 314.19,238.81 C 315.05,238.93 315.98,239.07 316.81,239.19 C 317.64,239.30 318.43,239.41 319.17,239.50 C 319.91,239.59 320.61,239.68 321.27,239.75 C 321.92,239.82 322.53,239.89 323.09,239.94 C 323.66,239.99 324.18,240.03 324.66,240.06 C 325.13,240.09 325.57,240.11 325.95,240.12 C 326.34,240.14 326.68,240.14 326.98,240.12 C 327.28,240.11 327.54,240.09 327.75,240.06 C 327.96,240.03 328.10,239.99 328.25,239.94 C 328.40,239.89 328.55,239.83 328.68,239.76 C 328.81,239.69 328.93,239.61 329.04,239.52 C 329.15,239.44 329.24,239.34 329.33,239.23 C 329.41,239.13 329.49,239.01 329.55,238.89 C 329.61,238.77 329.66,238.63 329.70,238.49 C 329.73,238.35 329.76,238.20 329.77,238.04 C 329.79,237.88 329.79,237.71 329.78,237.53 C 329.77,237.35 329.73,237.15 329.72,236.97 C 329.71,236.79 329.71,236.62 329.72,236.45 C 329.73,236.29 329.75,236.13 329.78,235.98 C 329.81,235.84 329.85,235.70 329.91,235.56 C 329.96,235.43 330.02,235.30 330.09,235.19 C 330.17,235.07 330.25,234.96 330.34,234.86 C 330.44,234.76 330.54,234.66 330.66,234.58 C 330.77,234.49 330.90,234.41 331.03,234.34 C 331.17,234.27 331.33,234.21 331.47,234.16 C 331.61,234.10 331.74,234.05 331.88,234.02 C 332.01,233.98 332.13,233.95 332.25,233.92 C 332.37,233.90 332.48,233.88 332.59,233.88 C 332.70,233.87 332.81,233.87 332.91,233.88 C 333.01,233.88 333.10,233.90 333.19,233.92 C 333.28,233.95 333.36,233.98 333.44,234.02 C 333.52,234.05 333.59,234.10 333.66,234.16 C 333.72,234.21 333.79,234.27 333.84,234.34 C 333.90,234.41 333.95,234.49 334.00,234.58 C 334.05,234.66 334.09,234.76 334.12,234.86 C 334.16,234.96 334.19,235.07 334.22,235.19 C 334.24,235.30 334.27,235.43 334.28,235.56 C 334.30,235.70 334.31,235.84 334.31,235.98 C 334.32,236.13 334.32,236.29 334.31,236.45 C 334.31,236.62 334.30,236.79 334.28,236.97 C 334.27,237.15 334.21,237.34 334.22,237.53 C 334.23,237.72 334.26,237.91 334.32,238.10 C 334.38,238.29 334.47,238.49 334.59,238.68 C 334.70,238.87 334.85,239.07 335.02,239.27 C 335.19,239.46 335.38,239.66 335.61,239.86 C 335.83,240.06 336.09,240.26 336.37,240.46 C 336.65,240.66 336.95,240.87 337.29,241.07 C 337.62,241.27 337.99,241.48 338.38,241.69 C 338.76,241.89 339.19,242.11 339.62,242.31 C 340.06,242.52 340.52,242.72 341.00,242.92 C 341.48,243.12 341.98,243.32 342.50,243.52 C 343.02,243.71 343.56,243.90 344.12,244.09 C 344.69,244.28 345.27,244.47 345.88,244.66 C 346.48,244.84 347.10,245.02 347.75,245.20 C 348.40,245.38 349.06,245.56 349.75,245.73 C 350.44,245.91 351.15,246.08 351.88,246.25 C 352.60,246.42 353.41,246.58 354.12,246.75 C 354.84,246.92 355.51,247.09 356.15,247.26 C 356.79,247.43 357.38,247.60 357.95,247.77 C 358.51,247.95 359.03,248.12 359.52,248.30 C 360.00,248.47 360.45,248.65 360.86,248.83 C 361.27,249.01 361.64,249.19 361.98,249.37 C 362.31,249.55 362.61,249.73 362.87,249.91 C 363.13,250.10 363.35,250.28 363.53,250.47 C 363.71,250.65 363.84,250.85 363.97,251.03 C 364.10,251.21 364.20,251.39 364.29,251.57 C 364.38,251.75 364.44,251.92 364.49,252.09 C 364.54,252.25 364.57,252.42 364.58,252.58 C 364.59,252.74 364.58,252.89 364.55,253.05 C 364.52,253.20 364.47,253.35 364.40,253.49 C 364.33,253.64 364.24,253.78 364.13,253.91 C 364.02,254.05 363.90,254.18 363.75,254.31 C 363.60,254.44 363.38,254.57 363.25,254.69 C 363.12,254.81 363.02,254.93 362.95,255.05 C 362.89,255.16 362.86,255.28 362.86,255.39 C 362.86,255.50 362.90,255.61 362.97,255.72 C 363.04,255.83 363.14,255.93 363.28,256.03 C 363.42,256.13 363.59,256.23 363.80,256.33 C 364.00,256.42 364.24,256.52 364.52,256.61 C 364.79,256.70 365.10,256.79 365.44,256.88 C 365.78,256.96 366.22,257.04 366.56,257.12 C 366.90,257.21 367.21,257.29 367.48,257.38 C 367.76,257.46 368.00,257.54 368.20,257.62 C 368.41,257.71 368.58,257.79 368.72,257.88 C 368.86,257.96 368.96,258.04 369.03,258.12 C 369.10,258.21 369.14,258.29 369.14,258.38 C 369.14,258.46 369.11,258.54 369.05,258.62 C 368.98,258.71 368.88,258.79 368.75,258.88 C 368.62,258.96 368.40,259.04 368.25,259.12 C 368.10,259.21 367.98,259.30 367.88,259.39 C 367.77,259.48 367.69,259.58 367.62,259.67 C 367.56,259.77 367.52,259.87 367.50,259.97 C 367.48,260.07 367.48,260.17 367.50,260.28 C 367.52,260.39 367.56,260.50 367.62,260.61 C 367.69,260.72 367.77,260.84 367.88,260.95 C 367.98,261.07 368.10,261.19 368.25,261.31 C 368.40,261.43 368.60,261.57 368.75,261.69 C 368.90,261.81 369.04,261.93 369.16,262.04 C 369.29,262.15 369.40,262.26 369.49,262.37 C 369.59,262.47 369.67,262.57 369.73,262.67 C 369.80,262.77 369.85,262.86 369.89,262.95 C 369.93,263.04 369.95,263.13 369.96,263.21 C 369.97,263.29 369.96,263.37 369.95,263.45 C 369.93,263.52 369.89,263.59 369.84,263.66 C 369.80,263.72 369.73,263.78 369.66,263.84 C 369.58,263.90 369.49,263.96 369.39,264.02 C 369.29,264.07 369.17,264.12 369.05,264.17 C 368.92,264.22 368.78,264.27 368.62,264.31 C 368.47,264.36 368.30,264.40 368.12,264.44 C 367.95,264.48 367.75,264.51 367.55,264.55 C 367.34,264.58 367.12,264.61 366.89,264.64 C 366.66,264.67 366.41,264.70 366.16,264.72 C 365.90,264.74 365.59,264.75 365.34,264.78 C 365.10,264.81 364.88,264.85 364.68,264.90 C 364.48,264.95 364.31,265.00 364.16,265.07 C 364.02,265.14 363.89,265.21 363.80,265.30 C 363.70,265.38 363.63,265.48 363.58,265.58 C 363.53,265.68 363.51,265.79 363.51,265.91 C 363.51,266.04 363.54,266.17 363.59,266.30 C 363.64,266.44 363.71,266.59 363.81,266.75 C 363.91,266.91 364.08,267.08 364.19,267.25 C 364.30,267.42 364.39,267.58 364.46,267.74 C 364.54,267.90 364.59,268.07 364.63,268.23 C 364.67,268.39 364.70,268.55 364.70,268.70 C 364.71,268.86 364.70,269.02 364.67,269.17 C 364.64,269.33 364.60,269.48 364.54,269.63 C 364.48,269.79 364.40,269.94 364.30,270.09 C 364.21,270.24 364.10,270.38 363.97,270.53 C 363.84,270.68 363.71,270.82 363.53,270.97 C 363.35,271.12 363.13,271.26 362.87,271.41 C 362.61,271.56 362.31,271.71 361.98,271.87 C 361.64,272.02 361.27,272.17 360.86,272.33 C 360.45,272.48 360.00,272.64 359.52,272.80 C 359.03,272.95 358.51,273.11 357.95,273.27 C 357.38,273.43 356.79,273.60 356.15,273.76 C 355.51,273.92 354.84,274.08 354.12,274.25 C 353.41,274.42 352.60,274.58 351.88,274.75 C 351.15,274.92 350.44,275.09 349.75,275.27 C 349.06,275.44 348.40,275.62 347.75,275.80 C 347.10,275.98 346.48,276.16 345.88,276.34 C 345.27,276.53 344.69,276.72 344.12,276.91 C 343.56,277.10 343.02,277.29 342.50,277.48 C 341.98,277.68 341.48,277.88 341.00,278.08 C 340.52,278.28 340.06,278.48 339.62,278.69 C 339.19,278.89 338.76,279.10 338.38,279.31 C 337.99,279.52 337.62,279.73 337.29,279.95 C 336.95,280.16 336.65,280.37 336.37,280.59 C 336.09,280.80 335.83,281.02 335.61,281.23 C 335.38,281.45 335.19,281.67 335.02,281.89 C 334.85,282.11 334.70,282.33 334.59,282.55 C 334.47,282.78 334.38,283.00 334.32,283.23 C 334.26,283.45 334.23,283.68 334.22,283.91 C 334.21,284.13 334.27,284.38 334.28,284.59 C 334.29,284.81 334.29,285.02 334.28,285.22 C 334.27,285.42 334.25,285.60 334.22,285.78 C 334.19,285.96 334.15,286.12 334.09,286.28 C 334.04,286.44 333.98,286.58 333.91,286.72 C 333.83,286.85 333.75,286.98 333.66,287.09 C 333.56,287.21 333.46,287.31 333.34,287.41 C 333.23,287.50 333.10,287.58 332.97,287.66 C 332.83,287.73 332.67,287.79 332.53,287.84 C 332.39,287.90 332.26,287.95 332.12,287.98 C 331.99,288.02 331.87,288.05 331.75,288.08 C 331.63,288.10 331.52,288.12 331.41,288.12 C 331.30,288.13 331.19,288.13 331.09,288.12 C 330.99,288.12 330.90,288.10 330.81,288.08 C 330.72,288.05 330.64,288.02 330.56,287.98 C 330.48,287.95 330.41,287.90 330.34,287.84 C 330.28,287.79 330.21,287.73 330.16,287.66 C 330.10,287.58 330.05,287.50 330.01,287.41 C 329.96,287.32 329.93,287.23 329.90,287.12 C 329.87,287.01 329.85,286.89 329.83,286.77 C 329.81,286.64 329.80,286.50 329.80,286.36 C 329.79,286.21 329.80,286.06 329.80,285.90 C 329.81,285.74 329.83,285.56 329.85,285.38 C 329.87,285.20 329.90,285.01 329.94,284.81 C 329.97,284.61 330.04,284.39 330.06,284.19 C 330.09,283.99 330.10,283.80 330.10,283.62 C 330.10,283.44 330.08,283.26 330.05,283.10 C 330.02,282.94 329.98,282.79 329.92,282.64 C 329.86,282.50 329.79,282.36 329.70,282.23 C 329.62,282.11 329.51,281.99 329.40,281.88 C 329.28,281.77 329.15,281.68 329.01,281.59 C 328.86,281.50 328.70,281.42 328.53,281.34 C 328.36,281.27 328.18,281.21 327.97,281.16 C 327.76,281.10 327.54,281.06 327.29,281.02 C 327.04,280.99 326.78,280.96 326.49,280.95 C 326.21,280.93 325.90,280.92 325.58,280.92 C 325.25,280.92 324.91,280.93 324.55,280.95 C 324.18,280.97 323.80,281.00 323.40,281.04 C 323.00,281.08 322.57,281.12 322.13,281.18 C 321.69,281.24 321.23,281.30 320.75,281.38 C 320.27,281.45 319.78,281.55 319.25,281.62 C 318.72,281.70 318.15,281.78 317.55,281.84 C 316.95,281.91 316.31,281.97 315.64,282.03 C 314.97,282.09 314.27,282.14 313.53,282.19 C 312.79,282.23 312.02,282.28 311.22,282.31 C 310.41,282.35 309.58,282.38 308.70,282.41 C 307.83,282.43 306.92,282.45 305.98,282.47 C 305.04,282.48 304.07,282.49 303.06,282.50 C 302.05,282.51 300.92,282.49 299.94,282.50 C 298.95,282.51 298.03,282.52 297.16,282.54 C 296.30,282.56 295.49,282.58 294.74,282.62 C 293.99,282.65 293.30,282.69 292.67,282.73 C 292.04,282.78 291.47,282.83 290.95,282.89 C 290.44,282.95 289.98,283.01 289.59,283.09 C 289.19,283.16 288.85,283.24 288.57,283.32 C 288.29,283.40 288.07,283.50 287.91,283.59 C 287.74,283.69 287.69,283.80 287.59,283.91 C 287.50,284.01 287.41,284.13 287.34,284.24 C 287.26,284.36 287.19,284.48 287.13,284.60 C 287.07,284.73 287.02,284.85 286.98,284.98 C 286.94,285.12 286.91,285.25 286.89,285.39 C 286.87,285.53 286.86,285.67 286.85,285.82 C 286.85,285.97 286.85,286.12 286.87,286.27 C 286.88,286.43 286.90,286.59 286.94,286.75 C 286.97,286.91 287.02,287.09 287.06,287.25 C 287.11,287.41 287.15,287.56 287.20,287.71 C 287.24,287.86 287.29,288.00 287.34,288.13 C 287.38,288.27 287.43,288.39 287.48,288.52 C 287.54,288.64 287.59,288.75 287.64,288.86 C 287.69,288.97 287.75,289.07 287.80,289.16 C 287.86,289.26 287.92,289.35 287.98,289.43 C 288.04,289.51 288.10,289.59 288.16,289.66 C 288.22,289.73 288.26,289.79 288.34,289.84 C 288.42,289.90 288.52,289.96 288.63,290.01 C 288.75,290.06 288.88,290.11 289.02,290.15 C 289.17,290.19 289.33,290.23 289.52,290.27 C 289.70,290.30 289.89,290.33 290.11,290.36 C 290.32,290.39 290.56,290.41 290.80,290.43 C 291.05,290.45 291.32,290.46 291.60,290.48 C 291.88,290.49 292.18,290.50 292.50,290.50 C 292.82,290.50 293.18,290.49 293.50,290.50 C 293.82,290.51 294.13,290.54 294.42,290.58 C 294.72,290.62 295.00,290.67 295.27,290.73 C 295.53,290.80 295.79,290.88 296.03,290.97 C 296.27,291.06 296.50,291.16 296.72,291.28 C 296.93,291.40 297.14,291.53 297.33,291.67 C 297.52,291.82 297.70,291.97 297.86,292.14 C 298.02,292.31 298.17,292.49 298.31,292.69 C 298.45,292.88 298.61,293.12 298.69,293.31 C 298.77,293.51 298.80,293.69 298.78,293.86 C 298.77,294.03 298.70,294.18 298.59,294.33 C 298.48,294.47 298.33,294.60 298.12,294.72 C 297.92,294.84 297.67,294.94 297.38,295.03 C 297.08,295.12 296.73,295.20 296.34,295.27 C 295.95,295.33 295.52,295.38 295.03,295.42 C 294.55,295.46 294.02,295.49 293.44,295.50 C 292.86,295.51 292.16,295.52 291.56,295.50 C 290.96,295.48 290.39,295.43 289.85,295.35 C 289.31,295.28 288.79,295.18 288.30,295.05 C 287.82,294.93 287.36,294.78 286.92,294.61 C 286.49,294.44 286.08,294.24 285.70,294.02 C 285.32,293.79 284.97,293.55 284.65,293.27 C 284.32,293.00 284.03,292.70 283.76,292.38 C 283.49,292.06 283.25,291.71 283.03,291.34 C 282.82,290.97 282.64,290.54 282.47,290.16 C 282.30,289.77 282.15,289.41 282.02,289.05 C 281.89,288.70 281.79,288.36 281.70,288.04 C 281.61,287.71 281.54,287.40 281.48,287.11 C 281.43,286.81 281.40,286.53 281.39,286.27 C 281.38,286.00 281.39,285.75 281.41,285.51 C 281.44,285.27 281.49,285.05 281.55,284.84 C 281.62,284.63 281.71,284.43 281.81,284.25 C 281.92,284.07 282.11,283.91 282.19,283.75 C 282.27,283.59 282.31,283.44 282.30,283.29 C 282.30,283.14 282.25,283.00 282.16,282.87 C 282.07,282.73 281.94,282.61 281.77,282.48 C 281.59,282.36 281.37,282.25 281.11,282.14 C 280.85,282.03 280.54,281.93 280.20,281.84 C 279.85,281.74 279.46,281.65 279.02,281.57 C 278.59,281.49 278.11,281.41 277.59,281.34 C 277.07,281.27 276.48,281.21 275.91,281.16 C 275.33,281.10 274.75,281.05 274.15,281.01 C 273.55,280.96 272.94,280.93 272.32,280.90 C 271.70,280.87 271.07,280.85 270.42,280.83 C 269.78,280.81 269.12,280.80 268.45,280.80 C 267.79,280.79 267.11,280.80 266.41,280.80 C 265.72,280.81 265.02,280.83 264.30,280.85 C 263.59,280.87 262.86,280.90 262.12,280.94 C 261.39,280.97 260.59,281.01 259.88,281.06 C 259.16,281.11 258.47,281.18 257.81,281.25 C 257.16,281.32 256.53,281.41 255.94,281.50 C 255.34,281.59 254.78,281.70 254.25,281.81 C 253.72,281.93 253.22,282.05 252.75,282.19 C 252.28,282.32 251.84,282.47 251.44,282.62 C 251.03,282.78 250.66,282.95 250.31,283.12 C 249.97,283.30 249.66,283.49 249.38,283.69 C 249.09,283.89 248.89,284.12 248.62,284.31 C 248.36,284.51 248.07,284.69 247.77,284.86 C 247.46,285.03 247.14,285.18 246.80,285.33 C 246.46,285.47 246.10,285.60 245.72,285.72 C 245.34,285.84 244.95,285.94 244.53,286.03 C 244.12,286.12 243.68,286.20 243.23,286.27 C 242.78,286.33 242.32,286.38 241.83,286.42 C 241.34,286.46 240.84,286.49 240.31,286.50 C 239.79,286.51 239.20,286.51 238.69,286.50 C 238.17,286.49 237.68,286.48 237.22,286.47 C 236.76,286.45 236.32,286.43 235.91,286.41 C 235.49,286.38 235.11,286.35 234.75,286.31 C 234.39,286.28 234.06,286.23 233.75,286.19 C 233.44,286.14 233.16,286.09 232.91,286.03 C 232.65,285.97 232.42,285.91 232.22,285.84 C 232.02,285.78 231.84,285.70 231.69,285.62 C 231.54,285.55 231.51,285.45 231.31,285.38 C 231.12,285.30 230.86,285.22 230.53,285.16 C 230.20,285.09 229.81,285.03 229.34,284.97 C 228.88,284.91 228.35,284.86 227.75,284.81 C 227.15,284.77 226.48,284.72 225.75,284.69 C 225.02,284.65 224.21,284.62 223.34,284.59 C 222.47,284.57 221.54,284.55 220.53,284.53 C 219.53,284.52 218.45,284.51 217.31,284.50 C 216.17,284.49 214.82,284.50 213.69,284.50 C 212.55,284.50 211.49,284.51 210.49,284.52 C 209.50,284.54 208.58,284.55 207.73,284.57 C 206.88,284.59 206.10,284.61 205.39,284.64 C 204.68,284.67 204.05,284.70 203.48,284.73 C 202.92,284.77 202.43,284.81 202.01,284.85 C 201.59,284.89 201.24,284.94 200.96,284.99 C 200.68,285.04 200.48,285.10 200.34,285.16 C 200.21,285.21 200.21,285.26 200.16,285.34 C 200.11,285.42 200.07,285.52 200.04,285.63 C 200.01,285.75 200.00,285.88 199.99,286.02 C 199.99,286.17 200.00,286.33 200.02,286.52 C 200.04,286.70 200.07,286.89 200.11,287.11 C 200.15,287.32 200.21,287.56 200.27,287.80 C 200.34,288.05 200.42,288.32 200.51,288.60 C 200.60,288.88 200.70,289.18 200.81,289.50 C 200.93,289.82 201.07,290.18 201.19,290.50 C 201.30,290.82 201.40,291.13 201.49,291.43 C 201.58,291.73 201.66,292.01 201.73,292.29 C 201.79,292.56 201.85,292.83 201.89,293.08 C 201.93,293.33 201.96,293.57 201.98,293.80 C 202.00,294.02 202.01,294.24 202.01,294.45 C 202.00,294.65 201.99,294.84 201.96,295.02 C 201.93,295.20 201.89,295.37 201.84,295.53 C 201.79,295.69 201.73,295.83 201.66,295.97 C 201.58,296.11 201.50,296.23 201.41,296.35 C 201.32,296.47 201.23,296.58 201.12,296.68 C 201.01,296.78 200.89,296.87 200.77,296.95 C 200.64,297.04 200.50,297.11 200.36,297.17 C 200.21,297.24 200.06,297.29 199.90,297.34 C 199.74,297.38 199.56,297.42 199.38,297.45 C 199.20,297.47 199.01,297.49 198.81,297.50 Z" />
    </clipPath>
  </defs>
  <path d="M 198.81,297.50 C 198.61,297.51 198.39,297.51 198.19,297.50 C 197.98,297.49 197.78,297.48 197.59,297.46 C 197.39,297.44 197.20,297.42 197.01,297.38 C 196.82,297.35 196.63,297.31 196.45,297.27 C 196.27,297.22 196.10,297.17 195.92,297.11 C 195.75,297.05 195.58,296.99 195.41,296.91 C 195.25,296.84 195.09,296.76 194.93,296.68 C 194.77,296.60 194.62,296.50 194.47,296.41 C 194.32,296.31 194.17,296.20 194.03,296.09 C 193.89,295.98 193.77,295.87 193.65,295.74 C 193.53,295.62 193.42,295.49 193.32,295.35 C 193.22,295.21 193.13,295.07 193.05,294.92 C 192.96,294.77 192.89,294.62 192.83,294.45 C 192.76,294.29 192.71,294.12 192.66,293.95 C 192.62,293.77 192.58,293.59 192.55,293.40 C 192.53,293.21 192.51,293.01 192.50,292.81 C 192.49,292.61 192.51,292.40 192.50,292.19 C 192.49,291.98 192.47,291.76 192.45,291.54 C 192.42,291.32 192.38,291.10 192.34,290.87 C 192.29,290.64 192.24,290.41 192.17,290.17 C 192.11,289.94 192.04,289.70 191.95,289.45 C 191.87,289.21 191.78,288.96 191.68,288.71 C 191.58,288.46 191.47,288.20 191.35,287.95 C 191.23,287.69 191.11,287.42 190.97,287.16 C 190.83,286.89 190.77,286.61 190.53,286.34 C 190.29,286.08 189.96,285.83 189.54,285.59 C 189.12,285.34 188.60,285.11 187.99,284.88 C 187.38,284.66 186.68,284.44 185.89,284.23 C 185.10,284.03 184.21,283.83 183.23,283.64 C 182.26,283.45 181.19,283.27 180.02,283.10 C 178.86,282.93 177.61,282.77 176.26,282.62 C 174.91,282.46 173.47,282.32 171.94,282.19 C 170.40,282.05 168.61,281.95 167.06,281.81 C 165.51,281.68 164.04,281.54 162.64,281.39 C 161.24,281.24 159.92,281.09 158.67,280.92 C 157.42,280.76 156.25,280.59 155.16,280.41 C 154.06,280.23 153.04,280.04 152.09,279.84 C 151.15,279.65 150.28,279.45 149.48,279.23 C 148.69,279.02 147.97,278.80 147.33,278.58 C 146.68,278.35 146.12,278.12 145.62,277.88 C 145.13,277.63 144.77,277.37 144.38,277.12 C 143.98,276.88 143.61,276.64 143.27,276.41 C 142.92,276.17 142.60,275.94 142.30,275.72 C 142.00,275.49 141.72,275.28 141.47,275.06 C 141.22,274.85 140.99,274.64 140.78,274.44 C 140.58,274.23 140.39,274.04 140.23,273.84 C 140.08,273.65 139.94,273.46 139.83,273.28 C 139.72,273.10 139.63,272.92 139.56,272.75 C 139.50,272.58 139.53,272.41 139.44,272.25 C 139.34,272.09 139.20,271.93 139.00,271.78 C 138.80,271.63 138.55,271.48 138.25,271.34 C 137.95,271.20 137.59,271.07 137.19,270.94 C 136.78,270.81 136.32,270.68 135.81,270.56 C 135.30,270.44 134.74,270.33 134.12,270.22 C 133.51,270.11 132.84,270.01 132.12,269.91 C 131.41,269.81 130.64,269.71 129.81,269.62 C 128.99,269.54 128.01,269.46 127.19,269.38 C 126.37,269.29 125.61,269.19 124.90,269.09 C 124.19,268.98 123.54,268.87 122.95,268.76 C 122.35,268.64 121.81,268.52 121.33,268.39 C 120.85,268.26 120.42,268.13 120.05,267.98 C 119.68,267.84 119.36,267.69 119.10,267.54 C 118.84,267.38 118.64,267.22 118.49,267.05 C 118.35,266.89 118.25,266.71 118.22,266.53 C 118.18,266.35 118.27,266.15 118.28,265.97 C 118.29,265.79 118.28,265.62 118.27,265.47 C 118.25,265.31 118.22,265.17 118.17,265.03 C 118.13,264.90 118.07,264.77 118.00,264.66 C 117.93,264.54 117.85,264.44 117.75,264.34 C 117.65,264.25 117.54,264.17 117.42,264.09 C 117.30,264.02 117.16,263.96 117.02,263.91 C 116.87,263.85 116.71,263.81 116.53,263.78 C 116.36,263.75 116.15,263.75 115.97,263.72 C 115.79,263.69 115.62,263.65 115.45,263.59 C 115.29,263.54 115.13,263.48 114.98,263.41 C 114.84,263.33 114.70,263.25 114.56,263.16 C 114.43,263.06 114.30,262.96 114.19,262.84 C 114.07,262.73 113.96,262.60 113.86,262.47 C 113.76,262.33 113.66,262.19 113.58,262.03 C 113.49,261.88 113.41,261.71 113.34,261.53 C 113.27,261.35 113.20,261.15 113.16,260.97 C 113.11,260.79 113.08,260.61 113.06,260.44 C 113.05,260.27 113.05,260.10 113.06,259.94 C 113.08,259.78 113.11,259.62 113.16,259.47 C 113.20,259.32 113.27,259.17 113.34,259.03 C 113.42,258.89 113.52,258.76 113.62,258.62 C 113.73,258.49 113.86,258.37 114.00,258.25 C 114.14,258.13 114.30,258.02 114.47,257.91 C 114.64,257.80 114.85,257.69 115.03,257.59 C 115.21,257.50 115.38,257.41 115.54,257.34 C 115.70,257.26 115.85,257.19 115.99,257.13 C 116.13,257.07 116.27,257.02 116.39,256.98 C 116.51,256.94 116.63,256.91 116.73,256.89 C 116.84,256.87 116.94,256.86 117.02,256.85 C 117.11,256.85 117.19,256.85 117.26,256.87 C 117.33,256.88 117.39,256.90 117.44,256.94 C 117.49,256.97 117.52,257.04 117.56,257.06 C 117.60,257.09 117.65,257.10 117.69,257.09 C 117.73,257.09 117.77,257.07 117.81,257.03 C 117.85,256.99 117.90,256.94 117.94,256.88 C 117.98,256.81 118.02,256.72 118.06,256.62 C 118.10,256.53 118.15,256.41 118.19,256.28 C 118.23,256.15 118.27,256.01 118.31,255.84 C 118.35,255.68 118.40,255.51 118.44,255.31 C 118.48,255.12 118.47,254.89 118.56,254.69 C 118.66,254.49 118.80,254.29 119.00,254.11 C 119.20,253.92 119.45,253.75 119.75,253.58 C 120.05,253.41 120.41,253.25 120.81,253.09 C 121.22,252.94 121.68,252.79 122.19,252.66 C 122.70,252.52 123.26,252.39 123.88,252.27 C 124.49,252.14 125.16,252.03 125.88,251.92 C 126.59,251.82 127.36,251.72 128.19,251.62 C 129.01,251.53 129.99,251.46 130.81,251.38 C 131.63,251.29 132.39,251.20 133.10,251.10 C 133.81,251.01 134.46,250.91 135.05,250.80 C 135.65,250.70 136.19,250.60 136.67,250.48 C 137.15,250.37 137.58,250.26 137.95,250.14 C 138.32,250.02 138.64,249.90 138.90,249.77 C 139.16,249.65 139.36,249.52 139.51,249.38 C 139.65,249.25 139.75,249.11 139.78,248.97 C 139.82,248.83 139.71,248.68 139.72,248.53 C 139.73,248.38 139.76,248.22 139.83,248.05 C 139.89,247.88 139.99,247.70 140.11,247.52 C 140.23,247.33 140.38,247.14 140.56,246.94 C 140.74,246.74 140.95,246.53 141.19,246.31 C 141.42,246.10 141.69,245.87 141.98,245.64 C 142.28,245.41 142.60,245.17 142.95,244.92 C 143.30,244.67 143.68,244.42 144.09,244.16 C 144.50,243.89 144.89,243.61 145.41,243.34 C 145.92,243.08 146.51,242.82 147.18,242.57 C 147.85,242.32 148.59,242.07 149.41,241.84 C 150.24,241.60 151.13,241.37 152.11,241.14 C 153.08,240.92 154.14,240.70 155.27,240.48 C 156.39,240.27 157.60,240.07 158.88,239.87 C 160.17,239.67 161.52,239.48 162.96,239.29 C 164.40,239.10 165.91,238.92 167.50,238.75 C 169.09,238.58 170.93,238.43 172.50,238.25 C 174.07,238.07 175.54,237.87 176.91,237.65 C 178.29,237.43 179.56,237.20 180.74,236.95 C 181.92,236.69 183.00,236.43 183.98,236.14 C 184.97,235.86 185.85,235.55 186.64,235.23 C 187.43,234.92 188.12,234.58 188.71,234.23 C 189.30,233.87 189.80,233.50 190.20,233.12 C 190.59,232.73 190.89,232.33 191.09,231.91 C 191.30,231.49 191.30,231.01 191.41,230.59 C 191.51,230.18 191.62,229.78 191.73,229.41 C 191.85,229.03 191.96,228.68 192.08,228.34 C 192.20,228.01 192.32,227.70 192.44,227.41 C 192.56,227.11 192.68,226.84 192.81,226.59 C 192.94,226.34 193.07,226.11 193.20,225.91 C 193.34,225.70 193.47,225.51 193.61,225.34 C 193.75,225.18 193.89,225.03 194.03,224.91 C 194.17,224.78 194.32,224.69 194.47,224.59 C 194.62,224.50 194.78,224.42 194.95,224.34 C 195.12,224.27 195.30,224.21 195.48,224.16 C 195.67,224.10 195.86,224.06 196.06,224.03 C 196.26,224.00 196.47,223.98 196.69,223.97 C 196.90,223.96 197.13,223.96 197.36,223.97 C 197.59,223.98 197.83,224.00 198.08,224.03 C 198.33,224.06 198.58,224.10 198.84,224.16 C 199.11,224.21 199.41,224.26 199.66,224.34 C 199.90,224.43 200.12,224.53 200.32,224.65 C 200.52,224.77 200.69,224.91 200.84,225.07 C 200.98,225.23 201.11,225.41 201.20,225.61 C 201.30,225.81 201.37,226.03 201.42,226.27 C 201.47,226.50 201.49,226.76 201.49,227.04 C 201.49,227.32 201.46,227.61 201.41,227.93 C 201.36,228.25 201.29,228.58 201.19,228.94 C 201.09,229.29 200.93,229.70 200.81,230.06 C 200.70,230.42 200.60,230.76 200.51,231.09 C 200.42,231.41 200.34,231.72 200.27,232.01 C 200.21,232.30 200.15,232.57 200.11,232.83 C 200.07,233.08 200.04,233.32 200.02,233.55 C 200.00,233.77 199.99,233.98 199.99,234.16 C 200.00,234.35 200.01,234.52 200.04,234.68 C 200.07,234.83 200.11,234.97 200.16,235.09 C 200.21,235.21 200.21,235.31 200.34,235.41 C 200.48,235.50 200.68,235.60 200.96,235.68 C 201.24,235.76 201.59,235.84 202.01,235.91 C 202.43,235.99 202.92,236.05 203.48,236.11 C 204.05,236.17 204.68,236.22 205.39,236.27 C 206.10,236.31 206.88,236.35 207.73,236.38 C 208.58,236.42 209.50,236.44 210.49,236.46 C 211.49,236.48 212.55,236.49 213.69,236.50 C 214.82,236.51 216.17,236.51 217.31,236.50 C 218.45,236.49 219.53,236.48 220.53,236.47 C 221.54,236.45 222.47,236.43 223.34,236.41 C 224.21,236.38 225.02,236.35 225.75,236.31 C 226.48,236.28 227.15,236.23 227.75,236.19 C 228.35,236.14 228.88,236.09 229.34,236.03 C 229.81,235.97 230.20,235.91 230.53,235.84 C 230.86,235.78 231.12,235.70 231.31,235.62 C 231.51,235.55 231.54,235.45 231.69,235.38 C 231.84,235.30 232.02,235.22 232.22,235.16 C 232.42,235.09 232.65,235.03 232.91,234.97 C 233.16,234.91 233.44,234.86 233.75,234.81 C 234.06,234.77 234.39,234.72 234.75,234.69 C 235.11,234.65 235.49,234.62 235.91,234.59 C 236.32,234.57 236.76,234.55 237.22,234.53 C 237.68,234.52 238.17,234.51 238.69,234.50 C 239.20,234.49 239.79,234.49 240.31,234.50 C 240.84,234.51 241.34,234.54 241.83,234.58 C 242.32,234.62 242.78,234.67 243.23,234.73 C 243.68,234.80 244.12,234.88 244.53,234.97 C 244.95,235.06 245.34,235.16 245.72,235.28 C 246.10,235.40 246.46,235.53 246.80,235.67 C 247.14,235.82 247.46,235.97 247.77,236.14 C 248.07,236.31 248.36,236.49 248.62,236.69 C 248.89,236.88 249.09,237.11 249.38,237.31 C 249.66,237.51 249.97,237.70 250.31,237.88 C 250.66,238.05 251.03,238.22 251.44,238.38 C 251.84,238.53 252.28,238.68 252.75,238.81 C 253.22,238.95 253.72,239.07 254.25,239.19 C 254.78,239.30 255.34,239.41 255.94,239.50 C 256.53,239.59 257.16,239.68 257.81,239.75 C 258.47,239.82 259.16,239.89 259.88,239.94 C 260.59,239.99 261.39,240.03 262.12,240.06 C 262.86,240.10 263.59,240.13 264.31,240.16 C 265.03,240.18 265.74,240.20 266.44,240.22 C 267.14,240.23 267.82,240.24 268.50,240.25 C 269.18,240.26 269.84,240.26 270.50,240.25 C 271.16,240.24 271.80,240.23 272.44,240.22 C 273.07,240.20 273.70,240.18 274.31,240.16 C 274.93,240.13 275.53,240.10 276.12,240.06 C 276.72,240.03 277.34,239.99 277.88,239.94 C 278.41,239.89 278.90,239.83 279.35,239.76 C 279.80,239.69 280.20,239.61 280.55,239.52 C 280.91,239.44 281.22,239.34 281.48,239.23 C 281.75,239.13 281.97,239.01 282.14,238.89 C 282.31,238.77 282.44,238.63 282.52,238.49 C 282.61,238.35 282.64,238.20 282.63,238.04 C 282.62,237.88 282.57,237.71 282.47,237.53 C 282.37,237.35 282.16,237.17 282.03,236.97 C 281.91,236.77 281.80,236.55 281.72,236.33 C 281.64,236.10 281.57,235.86 281.53,235.61 C 281.49,235.36 281.47,235.09 281.47,234.81 C 281.47,234.53 281.49,234.24 281.53,233.94 C 281.57,233.63 281.64,233.32 281.72,232.98 C 281.80,232.65 281.91,232.31 282.03,231.95 C 282.16,231.60 282.30,231.23 282.47,230.84 C 282.64,230.46 282.82,230.03 283.03,229.66 C 283.25,229.29 283.49,228.94 283.76,228.62 C 284.03,228.30 284.32,228.00 284.65,227.73 C 284.97,227.45 285.32,227.21 285.70,226.98 C 286.08,226.76 286.49,226.56 286.92,226.39 C 287.36,226.22 287.82,226.07 288.30,225.95 C 288.79,225.82 289.31,225.72 289.85,225.65 C 290.39,225.57 290.96,225.52 291.56,225.50 C 292.16,225.48 292.86,225.49 293.44,225.50 C 294.02,225.51 294.55,225.54 295.03,225.58 C 295.52,225.62 295.95,225.67 296.34,225.73 C 296.73,225.80 297.08,225.88 297.38,225.97 C 297.67,226.06 297.92,226.16 298.12,226.28 C 298.33,226.40 298.48,226.53 298.59,226.67 C 298.70,226.82 298.77,226.97 298.78,227.14 C 298.80,227.31 298.77,227.49 298.69,227.69 C 298.61,227.88 298.45,228.12 298.31,228.31 C 298.17,228.51 298.02,228.69 297.86,228.86 C 297.70,229.03 297.52,229.18 297.33,229.33 C 297.14,229.47 296.93,229.60 296.72,229.72 C 296.50,229.84 296.27,229.94 296.03,230.03 C 295.79,230.12 295.53,230.20 295.27,230.27 C 295.00,230.33 294.72,230.38 294.42,230.42 C 294.13,230.46 293.82,230.49 293.50,230.50 C 293.18,230.51 292.82,230.49 292.50,230.50 C 292.18,230.51 291.88,230.54 291.59,230.57 C 291.30,230.61 291.02,230.65 290.76,230.71 C 290.50,230.77 290.25,230.84 290.02,230.92 C 289.78,231.00 289.56,231.10 289.36,231.20 C 289.15,231.31 288.96,231.43 288.79,231.55 C 288.61,231.68 288.45,231.82 288.30,231.98 C 288.16,232.13 288.02,232.29 287.91,232.47 C 287.79,232.64 287.69,232.85 287.59,233.03 C 287.50,233.21 287.41,233.39 287.34,233.55 C 287.26,233.72 287.19,233.88 287.13,234.04 C 287.07,234.19 287.02,234.34 286.98,234.48 C 286.94,234.63 286.91,234.76 286.89,234.89 C 286.87,235.02 286.86,235.14 286.85,235.26 C 286.85,235.37 286.85,235.48 286.87,235.59 C 286.88,235.69 286.90,235.79 286.94,235.88 C 286.97,235.96 287.02,236.04 287.06,236.12 C 287.11,236.21 287.15,236.29 287.20,236.37 C 287.24,236.45 287.29,236.52 287.34,236.60 C 287.38,236.68 287.43,236.75 287.48,236.83 C 287.54,236.90 287.59,236.98 287.64,237.05 C 287.69,237.12 287.75,237.19 287.80,237.26 C 287.86,237.33 287.92,237.39 287.98,237.46 C 288.04,237.53 288.10,237.59 288.16,237.66 C 288.22,237.72 288.24,237.79 288.34,237.84 C 288.44,237.90 288.58,237.95 288.76,237.99 C 288.93,238.04 289.15,238.07 289.40,238.10 C 289.65,238.13 289.94,238.15 290.27,238.17 C 290.59,238.19 290.96,238.20 291.36,238.20 C 291.76,238.21 292.20,238.20 292.68,238.20 C 293.16,238.19 293.67,238.17 294.23,238.15 C 294.78,238.13 295.37,238.10 296.00,238.06 C 296.63,238.03 297.32,237.97 298.00,237.94 C 298.68,237.91 299.37,237.89 300.08,237.88 C 300.78,237.86 301.50,237.86 302.23,237.88 C 302.97,237.89 303.71,237.91 304.47,237.94 C 305.23,237.97 306.00,238.01 306.78,238.06 C 307.57,238.11 308.36,238.18 309.17,238.25 C 309.98,238.32 310.80,238.41 311.64,238.50 C 312.48,238.59 313.33,238.70 314.19,238.81 C 315.05,238.93 315.98,239.07 316.81,239.19 C 317.64,239.30 318.43,239.41 319.17,239.50 C 319.91,239.59 320.61,239.68 321.27,239.75 C 321.92,239.82 322.53,239.89 323.09,239.94 C 323.66,239.99 324.18,240.03 324.66,240.06 C 325.13,240.09 325.57,240.11 325.95,240.12 C 326.34,240.14 326.68,240.14 326.98,240.12 C 327.28,240.11 327.54,240.09 327.75,240.06 C 327.96,240.03 328.10,239.99 328.25,239.94 C 328.40,239.89 328.55,239.83 328.68,239.76 C 328.81,239.69 328.93,239.61 329.04,239.52 C 329.15,239.44 329.24,239.34 329.33,239.23 C 329.41,239.13 329.49,239.01 329.55,238.89 C 329.61,238.77 329.66,238.63 329.70,238.49 C 329.73,238.35 329.76,238.20 329.77,238.04 C 329.79,237.88 329.79,237.71 329.78,237.53 C 329.77,237.35 329.73,237.15 329.72,236.97 C 329.71,236.79 329.71,236.62 329.72,236.45 C 329.73,236.29 329.75,236.13 329.78,235.98 C 329.81,235.84 329.85,235.70 329.91,235.56 C 329.96,235.43 330.02,235.30 330.09,235.19 C 330.17,235.07 330.25,234.96 330.34,234.86 C 330.44,234.76 330.54,234.66 330.66,234.58 C 330.77,234.49 330.90,234.41 331.03,234.34 C 331.17,234.27 331.33,234.21 331.47,234.16 C 331.61,234.10 331.74,234.05 331.88,234.02 C 332.01,233.98 332.13,233.95 332.25,233.92 C 332.37,233.90 332.48,233.88 332.59,233.88 C 332.70,233.87 332.81,233.87 332.91,233.88 C 333.01,233.88 333.10,233.90 333.19,233.92 C 333.28,233.95 333.36,233.98 333.44,234.02 C 333.52,234.05 333.59,234.10 333.66,234.16 C 333.72,234.21 333.79,234.27 333.84,234.34 C 333.90,234.41 333.95,234.49 334.00,234.58 C 334.05,234.66 334.09,234.76 334.12,234.86 C 334.16,234.96 334.19,235.07 334.22,235.19 C 334.24,235.30 334.27,235.43 334.28,235.56 C 334.30,235.70 334.31,235.84 334.31,235.98 C 334.32,236.13 334.32,236.29 334.31,236.45 C 334.31,236.62 334.30,236.79 334.28,236.97 C 334.27,237.15 334.21,237.34 334.22,237.53 C 334.23,237.72 334.26,237.91 334.32,238.10 C 334.38,238.29 334.47,238.49 334.59,238.68 C 334.70,238.87 334.85,239.07 335.02,239.27 C 335.19,239.46 335.38,239.66 335.61,239.86 C 335.83,240.06 336.09,240.26 336.37,240.46 C 336.65,240.66 336.95,240.87 337.29,241.07 C 337.62,241.27 337.99,241.48 338.38,241.69 C 338.76,241.89 339.19,242.11 339.62,242.31 C 340.06,242.52 340.52,242.72 341.00,242.92 C 341.48,243.12 341.98,243.32 342.50,243.52 C 343.02,243.71 343.56,243.90 344.12,244.09 C 344.69,244.28 345.27,244.47 345.88,244.66 C 346.48,244.84 347.10,245.02 347.75,245.20 C 348.40,245.38 349.06,245.56 349.75,245.73 C 350.44,245.91 351.15,246.08 351.88,246.25 C 352.60,246.42 353.41,246.58 354.12,246.75 C 354.84,246.92 355.51,247.09 356.15,247.26 C 356.79,247.43 357.38,247.60 357.95,247.77 C 358.51,247.95 359.03,248.12 359.52,248.30 C 360.00,248.47 360.45,248.65 360.86,248.83 C 361.27,249.01 361.64,249.19 361.98,249.37 C 362.31,249.55 362.61,249.73 362.87,249.91 C 363.13,250.10 363.35,250.28 363.53,250.47 C 363.71,250.65 363.84,250.85 363.97,251.03 C 364.10,251.21 364.20,251.39 364.29,251.57 C 364.38,251.75 364.44,251.92 364.49,252.09 C 364.54,252.25 364.57,252.42 364.58,252.58 C 364.59,252.74 364.58,252.89 364.55,253.05 C 364.52,253.20 364.47,253.35 364.40,253.49 C 364.33,253.64 364.24,253.78 364.13,253.91 C 364.02,254.05 363.90,254.18 363.75,254.31 C 363.60,254.44 363.38,254.57 363.25,254.69 C 363.12,254.81 363.02,254.93 362.95,255.05 C 362.89,255.16 362.86,255.28 362.86,255.39 C 362.86,255.50 362.90,255.61 362.97,255.72 C 363.04,255.83 363.14,255.93 363.28,256.03 C 363.42,256.13 363.59,256.23 363.80,256.33 C 364.00,256.42 364.24,256.52 364.52,256.61 C 364.79,256.70 365.10,256.79 365.44,256.88 C 365.78,256.96 366.22,257.04 366.56,257.12 C 366.90,257.21 367.21,257.29 367.48,257.38 C 367.76,257.46 368.00,257.54 368.20,257.62 C 368.41,257.71 368.58,257.79 368.72,257.88 C 368.86,257.96 368.96,258.04 369.03,258.12 C 369.10,258.21 369.14,258.29 369.14,258.38 C 369.14,258.46 369.11,258.54 369.05,258.62 C 368.98,258.71 368.88,258.79 368.75,258.88 C 368.62,258.96 368.40,259.04 368.25,259.12 C 368.10,259.21 367.98,259.30 367.88,259.39 C 367.77,259.48 367.69,259.58 367.62,259.67 C 367.56,259.77 367.52,259.87 367.50,259.97 C 367.48,260.07 367.48,260.17 367.50,260.28 C 367.52,260.39 367.56,260.50 367.62,260.61 C 367.69,260.72 367.77,260.84 367.88,260.95 C 367.98,261.07 368.10,261.19 368.25,261.31 C 368.40,261.43 368.60,261.57 368.75,261.69 C 368.90,261.81 369.04,261.93 369.16,262.04 C 369.29,262.15 369.40,262.26 369.49,262.37 C 369.59,262.47 369.67,262.57 369.73,262.67 C 369.80,262.77 369.85,262.86 369.89,262.95 C 369.93,263.04 369.95,263.13 369.96,263.21 C 369.97,263.29 369.96,263.37 369.95,263.45 C 369.93,263.52 369.89,263.59 369.84,263.66 C 369.80,263.72 369.73,263.78 369.66,263.84 C 369.58,263.90 369.49,263.96 369.39,264.02 C 369.29,264.07 369.17,264.12 369.05,264.17 C 368.92,264.22 368.78,264.27 368.62,264.31 C 368.47,264.36 368.30,264.40 368.12,264.44 C 367.95,264.48 367.75,264.51 367.55,264.55 C 367.34,264.58 367.12,264.61 366.89,264.64 C 366.66,264.67 366.41,264.70 366.16,264.72 C 365.90,264.74 365.59,264.75 365.34,264.78 C 365.10,264.81 364.88,264.85 364.68,264.90 C 364.48,264.95 364.31,265.00 364.16,265.07 C 364.02,265.14 363.89,265.21 363.80,265.30 C 363.70,265.38 363.63,265.48 363.58,265.58 C 363.53,265.68 363.51,265.79 363.51,265.91 C 363.51,266.04 363.54,266.17 363.59,266.30 C 363.64,266.44 363.71,266.59 363.81,266.75 C 363.91,266.91 364.08,267.08 364.19,267.25 C 364.30,267.42 364.39,267.58 364.46,267.74 C 364.54,267.90 364.59,268.07 364.63,268.23 C 364.67,268.39 364.70,268.55 364.70,268.70 C 364.71,268.86 364.70,269.02 364.67,269.17 C 364.64,269.33 364.60,269.48 364.54,269.63 C 364.48,269.79 364.40,269.94 364.30,270.09 C 364.21,270.24 364.10,270.38 363.97,270.53 C 363.84,270.68 363.71,270.82 363.53,270.97 C 363.35,271.12 363.13,271.26 362.87,271.41 C 362.61,271.56 362.31,271.71 361.98,271.87 C 361.64,272.02 361.27,272.17 360.86,272.33 C 360.45,272.48 360.00,272.64 359.52,272.80 C 359.03,272.95 358.51,273.11 357.95,273.27 C 357.38,273.43 356.79,273.60 356.15,273.76 C 355.51,273.92 354.84,274.08 354.12,274.25 C 353.41,274.42 352.60,274.58 351.88,274.75 C 351.15,274.92 350.44,275.09 349.75,275.27 C 349.06,275.44 348.40,275.62 347.75,275.80 C 347.10,275.98 346.48,276.16 345.88,276.34 C 345.27,276.53 344.69,276.72 344.12,276.91 C 343.56,277.10 343.02,277.29 342.50,277.48 C 341.98,277.68 341.48,277.88 341.00,278.08 C 340.52,278.28 340.06,278.48 339.62,278.69 C 339.19,278.89 338.76,279.10 338.38,279.31 C 337.99,279.52 337.62,279.73 337.29,279.95 C 336.95,280.16 336.65,280.37 336.37,280.59 C 336.09,280.80 335.83,281.02 335.61,281.23 C 335.38,281.45 335.19,281.67 335.02,281.89 C 334.85,282.11 334.70,282.33 334.59,282.55 C 334.47,282.78 334.38,283.00 334.32,283.23 C 334.26,283.45 334.23,283.68 334.22,283.91 C 334.21,284.13 334.27,284.38 334.28,284.59 C 334.29,284.81 334.29,285.02 334.28,285.22 C 334.27,285.42 334.25,285.60 334.22,285.78 C 334.19,285.96 334.15,286.12 334.09,286.28 C 334.04,286.44 333.98,286.58 333.91,286.72 C 333.83,286.85 333.75,286.98 333.66,287.09 C 333.56,287.21 333.46,287.31 333.34,287.41 C 333.23,287.50 333.10,287.58 332.97,287.66 C 332.83,287.73 332.67,287.79 332.53,287.84 C 332.39,287.90 332.26,287.95 332.12,287.98 C 331.99,288.02 331.87,288.05 331.75,288.08 C 331.63,288.10 331.52,288.12 331.41,288.12 C 331.30,288.13 331.19,288.13 331.09,288.12 C 330.99,288.12 330.90,288.10 330.81,288.08 C 330.72,288.05 330.64,288.02 330.56,287.98 C 330.48,287.95 330.41,287.90 330.34,287.84 C 330.28,287.79 330.21,287.73 330.16,287.66 C 330.10,287.58 330.05,287.50 330.01,287.41 C 329.96,287.32 329.93,287.23 329.90,287.12 C 329.87,287.01 329.85,286.89 329.83,286.77 C 329.81,286.64 329.80,286.50 329.80,286.36 C 329.79,286.21 329.80,286.06 329.80,285.90 C 329.81,285.74 329.83,285.56 329.85,285.38 C 329.87,285.20 329.90,285.01 329.94,284.81 C 329.97,284.61 330.04,284.39 330.06,284.19 C 330.09,283.99 330.10,283.80 330.10,283.62 C 330.10,283.44 330.08,283.26 330.05,283.10 C 330.02,282.94 329.98,282.79 329.92,282.64 C 329.86,282.50 329.79,282.36 329.70,282.23 C 329.62,282.11 329.51,281.99 329.40,281.88 C 329.28,281.77 329.15,281.68 329.01,281.59 C 328.86,281.50 328.70,281.42 328.53,281.34 C 328.36,281.27 328.18,281.21 327.97,281.16 C 327.76,281.10 327.54,281.06 327.29,281.02 C 327.04,280.99 326.78,280.96 326.49,280.95 C 326.21,280.93 325.90,280.92 325.58,280.92 C 325.25,280.92 324.91,280.93 324.55,280.95 C 324.18,280.97 323.80,281.00 323.40,281.04 C 323.00,281.08 322.57,281.12 322.13,281.18 C 321.69,281.24 321.23,281.30 320.75,281.38 C 320.27,281.45 319.78,281.55 319.25,281.62 C 318.72,281.70 318.15,281.78 317.55,281.84 C 316.95,281.91 316.31,281.97 315.64,282.03 C 314.97,282.09 314.27,282.14 313.53,282.19 C 312.79,282.23 312.02,282.28 311.22,282.31 C 310.41,282.35 309.58,282.38 308.70,282.41 C 307.83,282.43 306.92,282.45 305.98,282.47 C 305.04,282.48 304.07,282.49 303.06,282.50 C 302.05,282.51 300.92,282.49 299.94,282.50 C 298.95,282.51 298.03,282.52 297.16,282.54 C 296.30,282.56 295.49,282.58 294.74,282.62 C 293.99,282.65 293.30,282.69 292.67,282.73 C 292.04,282.78 291.47,282.83 290.95,282.89 C 290.44,282.95 289.98,283.01 289.59,283.09 C 289.19,283.16 288.85,283.24 288.57,283.32 C 288.29,283.40 288.07,283.50 287.91,283.59 C 287.74,283.69 287.69,283.80 287.59,283.91 C 287.50,284.01 287.41,284.13 287.34,284.24 C 287.26,284.36 287.19,284.48 287.13,284.60 C 287.07,284.73 287.02,284.85 286.98,284.98 C 286.94,285.12 286.91,285.25 286.89,285.39 C 286.87,285.53 286.86,285.67 286.85,285.82 C 286.85,285.97 286.85,286.12 286.87,286.27 C 286.88,286.43 286.90,286.59 286.94,286.75 C 286.97,286.91 287.02,287.09 287.06,287.25 C 287.11,287.41 287.15,287.56 287.20,287.71 C 287.24,287.86 287.29,288.00 287.34,288.13 C 287.38,288.27 287.43,288.39 287.48,288.52 C 287.54,288.64 287.59,288.75 287.64,288.86 C 287.69,288.97 287.75,289.07 287.80,289.16 C 287.86,289.26 287.92,289.35 287.98,289.43 C 288.04,289.51 288.10,289.59 288.16,289.66 C 288.22,289.73 288.26,289.79 288.34,289.84 C 288.42,289.90 288.52,289.96 288.63,290.01 C 288.75,290.06 288.88,290.11 289.02,290.15 C 289.17,290.19 289.33,290.23 289.52,290.27 C 289.70,290.30 289.89,290.33 290.11,290.36 C 290.32,290.39 290.56,290.41 290.80,290.43 C 291.05,290.45 291.32,290.46 291.60,290.48 C 291.88,290.49 292.18,290.50 292.50,290.50 C 292.82,290.50 293.18,290.49 293.50,290.50 C 293.82,290.51 294.13,290.54 294.42,290.58 C 294.72,290.62 295.00,290.67 295.27,290.73 C 295.53,290.80 295.79,290.88 296.03,290.97 C 296.27,291.06 296.50,291.16 296.72,291.28 C 296.93,291.40 297.14,291.53 297.33,291.67 C 297.52,291.82 297.70,291.97 297.86,292.14 C 298.02,292.31 298.17,292.49 298.31,292.69 C 298.45,292.88 298.61,293.12 298.69,293.31 C 298.77,293.51 298.80,293.69 298.78,293.86 C 298.77,294.03 298.70,294.18 298.59,294.33 C 298.48,294.47 298.33,294.60 298.12,294.72 C 297.92,294.84 297.67,294.94 297.38,295.03 C 297.08,295.12 296.73,295.20 296.34,295.27 C 295.95,295.33 295.52,295.38 295.03,295.42 C 294.55,295.46 294.02,295.49 293.44,295.50 C 292.86,295.51 292.16,295.52 291.56,295.50 C 290.96,295.48 290.39,295.43 289.85,295.35 C 289.31,295.28 288.79,295.18 288.30,295.05 C 287.82,294.93 287.36,294.78 286.92,294.61 C 286.49,294.44 286.08,294.24 285.70,294.02 C 285.32,293.79 284.97,293.55 284.65,293.27 C 284.32,293.00 284.03,292.70 283.76,292.38 C 283.49,292.06 283.25,291.71 283.03,291.34 C 282.82,290.97 282.64,290.54 282.47,290.16 C 282.30,289.77 282.15,289.41 282.02,289.05 C 281.89,288.70 281.79,288.36 281.70,288.04 C 281.61,287.71 281.54,287.40 281.48,287.11 C 281.43,286.81 281.40,286.53 281.39,286.27 C 281.38,286.00 281.39,285.75 281.41,285.51 C 281.44,285.27 281.49,285.05 281.55,284.84 C 281.62,284.63 281.71,284.43 281.81,284.25 C 281.92,284.07 282.11,283.91 282.19,283.75 C 282.27,283.59 282.31,283.44 282.30,283.29 C 282.30,283.14 282.25,283.00 282.16,282.87 C 282.07,282.73 281.94,282.61 281.77,282.48 C 281.59,282.36 281.37,282.25 281.11,282.14 C 280.85,282.03 280.54,281.93 280.20,281.84 C 279.85,281.74 279.46,281.65 279.02,281.57 C 278.59,281.49 278.11,281.41 277.59,281.34 C 277.07,281.27 276.48,281.21 275.91,281.16 C 275.33,281.10 274.75,281.05 274.15,281.01 C 273.55,280.96 272.94,280.93 272.32,280.90 C 271.70,280.87 271.07,280.85 270.42,280.83 C 269.78,280.81 269.12,280.80 268.45,280.80 C 267.79,280.79 267.11,280.80 266.41,280.80 C 265.72,280.81 265.02,280.83 264.30,280.85 C 263.59,280.87 262.86,280.90 262.12,280.94 C 261.39,280.97 260.59,281.01 259.88,281.06 C 259.16,281.11 258.47,281.18 257.81,281.25 C 257.16,281.32 256.53,281.41 255.94,281.50 C 255.34,281.59 254.78,281.70 254.25,281.81 C 253.72,281.93 253.22,282.05 252.75,282.19 C 252.28,282.32 251.84,282.47 251.44,282.62 C 251.03,282.78 250.66,282.95 250.31,283.12 C 249.97,283.30 249.66,283.49 249.38,283.69 C 249.09,283.89 248.89,284.12 248.62,284.31 C 248.36,284.51 248.07,284.69 247.77,284.86 C 247.46,285.03 247.14,285.18 246.80,285.33 C 246.46,285.47 246.10,285.60 245.72,285.72 C 245.34,285.84 244.95,285.94 244.53,286.03 C 244.12,286.12 243.68,286.20 243.23,286.27 C 242.78,286.33 242.32,286.38 241.83,286.42 C 241.34,286.46 240.84,286.49 240.31,286.50 C 239.79,286.51 239.20,286.51 238.69,286.50 C 238.17,286.49 237.68,286.48 237.22,286.47 C 236.76,286.45 236.32,286.43 235.91,286.41 C 235.49,286.38 235.11,286.35 234.75,286.31 C 234.39,286.28 234.06,286.23 233.75,286.19 C 233.44,286.14 233.16,286.09 232.91,286.03 C 232.65,285.97 232.42,285.91 232.22,285.84 C 232.02,285.78 231.84,285.70 231.69,285.62 C 231.54,285.55 231.51,285.45 231.31,285.38 C 231.12,285.30 230.86,285.22 230.53,285.16 C 230.20,285.09 229.81,285.03 229.34,284.97 C 228.88,284.91 228.35,284.86 227.75,284.81 C 227.15,284.77 226.48,284.72 225.75,284.69 C 225.02,284.65 224.21,284.62 223.34,284.59 C 222.47,284.57 221.54,284.55 220.53,284.53 C 219.53,284.52 218.45,284.51 217.31,284.50 C 216.17,284.49 214.82,284.50 213.69,284.50 C 212.55,284.50 211.49,284.51 210.49,284.52 C 209.50,284.54 208.58,284.55 207.73,284.57 C 206.88,284.59 206.10,284.61 205.39,284.64 C 204.68,284.67 204.05,284.70 203.48,284.73 C 202.92,284.77 202.43,284.81 202.01,284.85 C 201.59,284.89 201.24,284.94 200.96,284.99 C 200.68,285.04 200.48,285.10 200.34,285.16 C 200.21,285.21 200.21,285.26 200.16,285.34 C 200.11,285.42 200.07,285.52 200.04,285.63 C 200.01,285.75 200.00,285.88 199.99,286.02 C 199.99,286.17 200.00,286.33 200.02,286.52 C 200.04,286.70 200.07,286.89 200.11,287.11 C 200.15,287.32 200.21,287.56 200.27,287.80 C 200.34,288.05 200.42,288.32 200.51,288.60 C 200.60,288.88 200.70,289.18 200.81,289.50 C 200.93,289.82 201.07,290.18 201.19,290.50 C 201.30,290.82 201.40,291.13 201.49,291.43 C 201.58,291.73 201.66,292.01 201.73,292.29 C 201.79,292.56 201.85,292.83 201.89,293.08 C 201.93,293.33 201.96,293.57 201.98,293.80 C 202.00,294.02 202.01,294.24 202.01,294.45 C 202.00,294.65 201.99,294.84 201.96,295.02 C 201.93,295.20 201.89,295.37 201.84,295.53 C 201.79,295.69 201.73,295.83 201.66,295.97 C 201.58,296.11 201.50,296.23 201.41,296.35 C 201.32,296.47 201.23,296.58 201.12,296.68 C 201.01,296.78 200.89,296.87 200.77,296.95 C 200.64,297.04 200.50,297.11 200.36,297.17 C 200.21,297.24 200.06,297.29 199.90,297.34 C 199.74,297.38 199.56,297.42 199.38,297.45 C 199.20,297.47 199.01,297.49 198.81,297.50 Z" stroke="none" fill="currentColor" opacity="0.11" />
  <path d="M238.33,276.24L230.80,276.30 M230.80,276.33L238.33,276.24 M238.33,274.49L230.80,274.49 M238.33,274.52L230.80,274.52 M238.33,275.07L230.80,275.07 M238.33,278.03L230.80,277.97 M230.80,277.94L238.33,278.03 M238.33,279.78L230.80,279.78 M238.33,279.75L230.80,279.75 M238.33,279.20L230.80,279.20 M245.80,252.05L252.67,251.04 M295.56,250.66L267.04,248.99 M267.15,250.58L255.17,247.41 M254.54,249.56L246.05,248.54 M226.54,250.81L226.35,260.99 M245.80,269.92L252.67,270.93 M295.56,271.32L267.04,272.99 M267.15,271.39L255.17,274.57 M254.54,272.41L246.05,273.44 M226.35,260.99L226.54,271.17 M264.21,252.48L263.70,260.99 M264.21,269.50L263.70,260.99 M274.20,242.11L281.86,241.46 M281.86,241.46L293.34,240.45 M282.25,241.29L289.31,240.78 M282.25,280.69L289.31,281.20 M293.18,282.79L274.12,281.35 M193.87,293.48L191.11,285.15 M197.80,295.61L194.77,285.62 M199.13,285.96L202.57,296.08 M193.87,228.52L191.11,236.86 M197.80,226.40L194.77,236.39 M199.13,236.05L202.57,225.93 M303.61,260.14L311.30,260.29 M311.30,260.29L303.70,260.29 M303.70,260.29L311.30,260.28 M303.70,260.17L311.30,260.29 M311.36,255.14L303.63,254.79 M311.36,255.14L303.70,254.95 M311.30,254.75L303.70,254.95 M311.30,254.51L303.61,254.77 M311.30,254.51L303.70,254.75 M303.70,254.75L311.30,254.75 M311.30,254.75L303.61,254.77 M311.30,261.69L303.70,261.69 M303.70,261.69L311.30,261.69 M311.30,261.69L303.61,261.83 M311.36,266.83L303.70,266.84 M303.61,267.21L311.30,267.47 M311.30,267.47L303.70,267.22 M303.70,267.22L311.30,267.22 M311.30,267.22L303.61,267.21 M341.94,257.96L350.68,258.30 M341.94,264.01L350.68,263.68 M184.26,270.21L184.17,270.21 M132.62,252.28L132.72,252.29 M132.62,270.05L132.72,270.05 M342.91,251.70L334.51,251.11 M334.52,250.00L342.91,250.45 M345.05,245.82L338.33,241.19 M338.58,242.84L345.27,247.54 M342.91,270.27L334.51,270.87 M334.52,271.98L342.91,271.53 M253.45,273.28L241.34,273.17 M253.45,273.35L241.34,273.23 M234.54,263.26L231.22,263.48 M253.16,263.43L249.83,263.66 M250.20,262.38L248.46,262.49 M232.94,272.63L239.62,272.69 M241.32,272.36L232.31,272.27 M261.25,273.43L251.75,273.33 M264.86,273.18L255.35,273.09 M227.26,249.63L227.03,261.69 M262.73,250.25L259.41,250.42 M263.25,262.38L254.22,262.51 M263.03,262.22L254.08,262.36 M263.30,262.95L254.23,263.09 M263.12,263.15L254.10,263.28 M254.08,262.36L246.15,262.39 M254.10,263.28L246.15,263.32 M254.22,262.51L246.29,262.55 M254.23,263.09L246.28,263.13 M246.15,262.39L239.48,262.09 M246.15,263.32L239.40,263.01 M246.28,263.13L239.52,262.81 M246.29,262.55L239.57,262.24 M264.00,261.25L255.38,261.49 M264.12,261.76L255.42,262.01 M255.24,261.45L247.82,261.38 M247.82,261.38L241.17,260.99 M255.38,261.49L247.95,261.42 M247.95,261.42L241.27,261.03 M255.42,262.01L247.97,261.94 M247.97,261.94L241.24,261.55 M257.82,249.96L255.22,250.20 M183.27,248.66L183.27,248.65 M183.27,248.64L183.27,248.63 M217.49,248.63L217.48,248.63 M218.51,249.65L218.51,249.65 M217.50,273.05L217.56,273.07 M183.27,273.07L183.30,273.08 M217.70,271.95L217.38,272.27 M196.46,269.41L204.56,269.41 M196.46,269.75L204.56,269.75 M196.46,270.08L204.56,270.08 M196.46,270.22L204.56,270.22 M210.89,269.73L190.13,269.73 M183.84,269.92L194.56,269.92 M208.65,273.58L190.54,273.58 M190.54,248.40L208.65,248.40 M247.67,250.94L236.50,250.94 M247.72,253.13L245.60,260.85 M245.60,260.85L247.50,253.83 M258.80,260.51L230.30,260.51 M230.30,258.16L258.80,258.16 M258.80,263.80L230.30,263.80 M230.30,261.45L258.80,261.45 M230.61,263.24L230.61,270.85 M230.61,263.24L230.61,251.11 M230.61,270.85L230.61,251.11 M258.56,251.11L258.56,270.85 M258.56,270.85L258.56,252.33 M258.56,270.85L258.56,263.24 M235.77,273.22L233.82,273.22 M233.20,273.84L235.16,273.84 M233.42,273.19L235.38,273.19 M233.16,271.27L235.11,271.27 M235.77,248.73L233.82,248.73 M235.16,248.11L233.20,248.11 M235.38,248.77L233.48,248.76 M235.11,250.69L233.16,250.75 M228.94,265.16L230.30,264.84 M189.73,246.99L197.27,246.22 M242.63,275.71L249.03,274.74 M249.03,274.74L241.98,276.73 M188.61,274.57L196.76,275.14 M188.61,274.57L197.50,275.13 M188.69,247.40L196.76,246.83 M188.69,247.40L197.50,246.85 M187.89,268.53L177.82,267.51 M177.82,267.51L186.39,268.37 M186.39,254.13L177.82,254.99 M177.82,254.99L187.89,253.97 M292.88,275.65L302.45,273.06 M292.88,246.32L302.45,248.92 M332.36,243.75L323.30,243.95 M334.56,243.78L323.56,243.92 M334.56,243.78L323.42,243.96 M323.42,243.96L334.06,243.71 M323.31,243.91L333.25,243.67 M347.06,249.12L338.85,246.11 M347.06,249.12L339.20,245.96 M315.70,243.41L329.41,243.40 M273.41,248.31L267.97,249.35 M245.23,270.13L261.91,273.87 M269.18,274.45L261.82,274.25 M269.29,247.63L261.82,247.65 M316.40,257.10L307.24,257.18 M338.51,271.75L326.88,271.88 M338.51,250.22L326.88,250.10 M356.06,271.41L330.74,276.28 M356.06,250.57L330.74,245.70 M324.04,274.83L309.89,275.02 M323.26,278.09L332.36,278.22 M315.70,278.56L329.41,278.57 M356.81,274.66L362.77,271.94 M283.33,280.78L275.22,280.13 M303.38,281.88L292.40,281.30 M287.84,280.42L295.12,280.97 M362.77,250.04L356.81,247.32 M351.17,247.77L356.66,248.14 M283.33,241.20L275.22,241.85 M303.38,240.09L292.40,240.67 M287.84,241.55L295.12,241.00 M171.56,279.92L164.59,279.00 M171.56,279.92L164.63,279.09 M140.83,274.34L140.61,274.35 M172.48,273.31L168.75,279.88 M168.75,279.88L162.97,274.97 M168.75,279.88L165.34,275.48 M162.33,277.42L172.40,278.19 M209.54,278.77L192.42,277.10 M202.31,279.40L192.91,278.21 M164.59,242.98L171.56,242.05 M171.56,242.05L164.63,242.88 M219.09,237.25L226.33,236.67 M209.54,243.21L192.42,244.87 M202.31,242.58L192.91,243.76 M140.83,247.64L140.61,247.63 M141.86,247.90L149.89,242.07 M172.48,248.66L168.75,242.09 M168.75,242.09L162.97,247.00 M168.75,242.09L165.34,246.50 M162.33,244.55L172.40,243.79" stroke="currentColor" stroke-width="0.6" stroke-linecap="round" fill="none" opacity="0.55" clip-path="url(#hull-clip)" filter="url(#glow)" />
  <path d="M 198.81,297.50 C 198.61,297.51 198.39,297.51 198.19,297.50 C 197.98,297.49 197.78,297.48 197.59,297.46 C 197.39,297.44 197.20,297.42 197.01,297.38 C 196.82,297.35 196.63,297.31 196.45,297.27 C 196.27,297.22 196.10,297.17 195.92,297.11 C 195.75,297.05 195.58,296.99 195.41,296.91 C 195.25,296.84 195.09,296.76 194.93,296.68 C 194.77,296.60 194.62,296.50 194.47,296.41 C 194.32,296.31 194.17,296.20 194.03,296.09 C 193.89,295.98 193.77,295.87 193.65,295.74 C 193.53,295.62 193.42,295.49 193.32,295.35 C 193.22,295.21 193.13,295.07 193.05,294.92 C 192.96,294.77 192.89,294.62 192.83,294.45 C 192.76,294.29 192.71,294.12 192.66,293.95 C 192.62,293.77 192.58,293.59 192.55,293.40 C 192.53,293.21 192.51,293.01 192.50,292.81 C 192.49,292.61 192.51,292.40 192.50,292.19 C 192.49,291.98 192.47,291.76 192.45,291.54 C 192.42,291.32 192.38,291.10 192.34,290.87 C 192.29,290.64 192.24,290.41 192.17,290.17 C 192.11,289.94 192.04,289.70 191.95,289.45 C 191.87,289.21 191.78,288.96 191.68,288.71 C 191.58,288.46 191.47,288.20 191.35,287.95 C 191.23,287.69 191.11,287.42 190.97,287.16 C 190.83,286.89 190.77,286.61 190.53,286.34 C 190.29,286.08 189.96,285.83 189.54,285.59 C 189.12,285.34 188.60,285.11 187.99,284.88 C 187.38,284.66 186.68,284.44 185.89,284.23 C 185.10,284.03 184.21,283.83 183.23,283.64 C 182.26,283.45 181.19,283.27 180.02,283.10 C 178.86,282.93 177.61,282.77 176.26,282.62 C 174.91,282.46 173.47,282.32 171.94,282.19 C 170.40,282.05 168.61,281.95 167.06,281.81 C 165.51,281.68 164.04,281.54 162.64,281.39 C 161.24,281.24 159.92,281.09 158.67,280.92 C 157.42,280.76 156.25,280.59 155.16,280.41 C 154.06,280.23 153.04,280.04 152.09,279.84 C 151.15,279.65 150.28,279.45 149.48,279.23 C 148.69,279.02 147.97,278.80 147.33,278.58 C 146.68,278.35 146.12,278.12 145.62,277.88 C 145.13,277.63 144.77,277.37 144.38,277.12 C 143.98,276.88 143.61,276.64 143.27,276.41 C 142.92,276.17 142.60,275.94 142.30,275.72 C 142.00,275.49 141.72,275.28 141.47,275.06 C 141.22,274.85 140.99,274.64 140.78,274.44 C 140.58,274.23 140.39,274.04 140.23,273.84 C 140.08,273.65 139.94,273.46 139.83,273.28 C 139.72,273.10 139.63,272.92 139.56,272.75 C 139.50,272.58 139.53,272.41 139.44,272.25 C 139.34,272.09 139.20,271.93 139.00,271.78 C 138.80,271.63 138.55,271.48 138.25,271.34 C 137.95,271.20 137.59,271.07 137.19,270.94 C 136.78,270.81 136.32,270.68 135.81,270.56 C 135.30,270.44 134.74,270.33 134.12,270.22 C 133.51,270.11 132.84,270.01 132.12,269.91 C 131.41,269.81 130.64,269.71 129.81,269.62 C 128.99,269.54 128.01,269.46 127.19,269.38 C 126.37,269.29 125.61,269.19 124.90,269.09 C 124.19,268.98 123.54,268.87 122.95,268.76 C 122.35,268.64 121.81,268.52 121.33,268.39 C 120.85,268.26 120.42,268.13 120.05,267.98 C 119.68,267.84 119.36,267.69 119.10,267.54 C 118.84,267.38 118.64,267.22 118.49,267.05 C 118.35,266.89 118.25,266.71 118.22,266.53 C 118.18,266.35 118.27,266.15 118.28,265.97 C 118.29,265.79 118.28,265.62 118.27,265.47 C 118.25,265.31 118.22,265.17 118.17,265.03 C 118.13,264.90 118.07,264.77 118.00,264.66 C 117.93,264.54 117.85,264.44 117.75,264.34 C 117.65,264.25 117.54,264.17 117.42,264.09 C 117.30,264.02 117.16,263.96 117.02,263.91 C 116.87,263.85 116.71,263.81 116.53,263.78 C 116.36,263.75 116.15,263.75 115.97,263.72 C 115.79,263.69 115.62,263.65 115.45,263.59 C 115.29,263.54 115.13,263.48 114.98,263.41 C 114.84,263.33 114.70,263.25 114.56,263.16 C 114.43,263.06 114.30,262.96 114.19,262.84 C 114.07,262.73 113.96,262.60 113.86,262.47 C 113.76,262.33 113.66,262.19 113.58,262.03 C 113.49,261.88 113.41,261.71 113.34,261.53 C 113.27,261.35 113.20,261.15 113.16,260.97 C 113.11,260.79 113.08,260.61 113.06,260.44 C 113.05,260.27 113.05,260.10 113.06,259.94 C 113.08,259.78 113.11,259.62 113.16,259.47 C 113.20,259.32 113.27,259.17 113.34,259.03 C 113.42,258.89 113.52,258.76 113.62,258.62 C 113.73,258.49 113.86,258.37 114.00,258.25 C 114.14,258.13 114.30,258.02 114.47,257.91 C 114.64,257.80 114.85,257.69 115.03,257.59 C 115.21,257.50 115.38,257.41 115.54,257.34 C 115.70,257.26 115.85,257.19 115.99,257.13 C 116.13,257.07 116.27,257.02 116.39,256.98 C 116.51,256.94 116.63,256.91 116.73,256.89 C 116.84,256.87 116.94,256.86 117.02,256.85 C 117.11,256.85 117.19,256.85 117.26,256.87 C 117.33,256.88 117.39,256.90 117.44,256.94 C 117.49,256.97 117.52,257.04 117.56,257.06 C 117.60,257.09 117.65,257.10 117.69,257.09 C 117.73,257.09 117.77,257.07 117.81,257.03 C 117.85,256.99 117.90,256.94 117.94,256.88 C 117.98,256.81 118.02,256.72 118.06,256.62 C 118.10,256.53 118.15,256.41 118.19,256.28 C 118.23,256.15 118.27,256.01 118.31,255.84 C 118.35,255.68 118.40,255.51 118.44,255.31 C 118.48,255.12 118.47,254.89 118.56,254.69 C 118.66,254.49 118.80,254.29 119.00,254.11 C 119.20,253.92 119.45,253.75 119.75,253.58 C 120.05,253.41 120.41,253.25 120.81,253.09 C 121.22,252.94 121.68,252.79 122.19,252.66 C 122.70,252.52 123.26,252.39 123.88,252.27 C 124.49,252.14 125.16,252.03 125.88,251.92 C 126.59,251.82 127.36,251.72 128.19,251.62 C 129.01,251.53 129.99,251.46 130.81,251.38 C 131.63,251.29 132.39,251.20 133.10,251.10 C 133.81,251.01 134.46,250.91 135.05,250.80 C 135.65,250.70 136.19,250.60 136.67,250.48 C 137.15,250.37 137.58,250.26 137.95,250.14 C 138.32,250.02 138.64,249.90 138.90,249.77 C 139.16,249.65 139.36,249.52 139.51,249.38 C 139.65,249.25 139.75,249.11 139.78,248.97 C 139.82,248.83 139.71,248.68 139.72,248.53 C 139.73,248.38 139.76,248.22 139.83,248.05 C 139.89,247.88 139.99,247.70 140.11,247.52 C 140.23,247.33 140.38,247.14 140.56,246.94 C 140.74,246.74 140.95,246.53 141.19,246.31 C 141.42,246.10 141.69,245.87 141.98,245.64 C 142.28,245.41 142.60,245.17 142.95,244.92 C 143.30,244.67 143.68,244.42 144.09,244.16 C 144.50,243.89 144.89,243.61 145.41,243.34 C 145.92,243.08 146.51,242.82 147.18,242.57 C 147.85,242.32 148.59,242.07 149.41,241.84 C 150.24,241.60 151.13,241.37 152.11,241.14 C 153.08,240.92 154.14,240.70 155.27,240.48 C 156.39,240.27 157.60,240.07 158.88,239.87 C 160.17,239.67 161.52,239.48 162.96,239.29 C 164.40,239.10 165.91,238.92 167.50,238.75 C 169.09,238.58 170.93,238.43 172.50,238.25 C 174.07,238.07 175.54,237.87 176.91,237.65 C 178.29,237.43 179.56,237.20 180.74,236.95 C 181.92,236.69 183.00,236.43 183.98,236.14 C 184.97,235.86 185.85,235.55 186.64,235.23 C 187.43,234.92 188.12,234.58 188.71,234.23 C 189.30,233.87 189.80,233.50 190.20,233.12 C 190.59,232.73 190.89,232.33 191.09,231.91 C 191.30,231.49 191.30,231.01 191.41,230.59 C 191.51,230.18 191.62,229.78 191.73,229.41 C 191.85,229.03 191.96,228.68 192.08,228.34 C 192.20,228.01 192.32,227.70 192.44,227.41 C 192.56,227.11 192.68,226.84 192.81,226.59 C 192.94,226.34 193.07,226.11 193.20,225.91 C 193.34,225.70 193.47,225.51 193.61,225.34 C 193.75,225.18 193.89,225.03 194.03,224.91 C 194.17,224.78 194.32,224.69 194.47,224.59 C 194.62,224.50 194.78,224.42 194.95,224.34 C 195.12,224.27 195.30,224.21 195.48,224.16 C 195.67,224.10 195.86,224.06 196.06,224.03 C 196.26,224.00 196.47,223.98 196.69,223.97 C 196.90,223.96 197.13,223.96 197.36,223.97 C 197.59,223.98 197.83,224.00 198.08,224.03 C 198.33,224.06 198.58,224.10 198.84,224.16 C 199.11,224.21 199.41,224.26 199.66,224.34 C 199.90,224.43 200.12,224.53 200.32,224.65 C 200.52,224.77 200.69,224.91 200.84,225.07 C 200.98,225.23 201.11,225.41 201.20,225.61 C 201.30,225.81 201.37,226.03 201.42,226.27 C 201.47,226.50 201.49,226.76 201.49,227.04 C 201.49,227.32 201.46,227.61 201.41,227.93 C 201.36,228.25 201.29,228.58 201.19,228.94 C 201.09,229.29 200.93,229.70 200.81,230.06 C 200.70,230.42 200.60,230.76 200.51,231.09 C 200.42,231.41 200.34,231.72 200.27,232.01 C 200.21,232.30 200.15,232.57 200.11,232.83 C 200.07,233.08 200.04,233.32 200.02,233.55 C 200.00,233.77 199.99,233.98 199.99,234.16 C 200.00,234.35 200.01,234.52 200.04,234.68 C 200.07,234.83 200.11,234.97 200.16,235.09 C 200.21,235.21 200.21,235.31 200.34,235.41 C 200.48,235.50 200.68,235.60 200.96,235.68 C 201.24,235.76 201.59,235.84 202.01,235.91 C 202.43,235.99 202.92,236.05 203.48,236.11 C 204.05,236.17 204.68,236.22 205.39,236.27 C 206.10,236.31 206.88,236.35 207.73,236.38 C 208.58,236.42 209.50,236.44 210.49,236.46 C 211.49,236.48 212.55,236.49 213.69,236.50 C 214.82,236.51 216.17,236.51 217.31,236.50 C 218.45,236.49 219.53,236.48 220.53,236.47 C 221.54,236.45 222.47,236.43 223.34,236.41 C 224.21,236.38 225.02,236.35 225.75,236.31 C 226.48,236.28 227.15,236.23 227.75,236.19 C 228.35,236.14 228.88,236.09 229.34,236.03 C 229.81,235.97 230.20,235.91 230.53,235.84 C 230.86,235.78 231.12,235.70 231.31,235.62 C 231.51,235.55 231.54,235.45 231.69,235.38 C 231.84,235.30 232.02,235.22 232.22,235.16 C 232.42,235.09 232.65,235.03 232.91,234.97 C 233.16,234.91 233.44,234.86 233.75,234.81 C 234.06,234.77 234.39,234.72 234.75,234.69 C 235.11,234.65 235.49,234.62 235.91,234.59 C 236.32,234.57 236.76,234.55 237.22,234.53 C 237.68,234.52 238.17,234.51 238.69,234.50 C 239.20,234.49 239.79,234.49 240.31,234.50 C 240.84,234.51 241.34,234.54 241.83,234.58 C 242.32,234.62 242.78,234.67 243.23,234.73 C 243.68,234.80 244.12,234.88 244.53,234.97 C 244.95,235.06 245.34,235.16 245.72,235.28 C 246.10,235.40 246.46,235.53 246.80,235.67 C 247.14,235.82 247.46,235.97 247.77,236.14 C 248.07,236.31 248.36,236.49 248.62,236.69 C 248.89,236.88 249.09,237.11 249.38,237.31 C 249.66,237.51 249.97,237.70 250.31,237.88 C 250.66,238.05 251.03,238.22 251.44,238.38 C 251.84,238.53 252.28,238.68 252.75,238.81 C 253.22,238.95 253.72,239.07 254.25,239.19 C 254.78,239.30 255.34,239.41 255.94,239.50 C 256.53,239.59 257.16,239.68 257.81,239.75 C 258.47,239.82 259.16,239.89 259.88,239.94 C 260.59,239.99 261.39,240.03 262.12,240.06 C 262.86,240.10 263.59,240.13 264.31,240.16 C 265.03,240.18 265.74,240.20 266.44,240.22 C 267.14,240.23 267.82,240.24 268.50,240.25 C 269.18,240.26 269.84,240.26 270.50,240.25 C 271.16,240.24 271.80,240.23 272.44,240.22 C 273.07,240.20 273.70,240.18 274.31,240.16 C 274.93,240.13 275.53,240.10 276.12,240.06 C 276.72,240.03 277.34,239.99 277.88,239.94 C 278.41,239.89 278.90,239.83 279.35,239.76 C 279.80,239.69 280.20,239.61 280.55,239.52 C 280.91,239.44 281.22,239.34 281.48,239.23 C 281.75,239.13 281.97,239.01 282.14,238.89 C 282.31,238.77 282.44,238.63 282.52,238.49 C 282.61,238.35 282.64,238.20 282.63,238.04 C 282.62,237.88 282.57,237.71 282.47,237.53 C 282.37,237.35 282.16,237.17 282.03,236.97 C 281.91,236.77 281.80,236.55 281.72,236.33 C 281.64,236.10 281.57,235.86 281.53,235.61 C 281.49,235.36 281.47,235.09 281.47,234.81 C 281.47,234.53 281.49,234.24 281.53,233.94 C 281.57,233.63 281.64,233.32 281.72,232.98 C 281.80,232.65 281.91,232.31 282.03,231.95 C 282.16,231.60 282.30,231.23 282.47,230.84 C 282.64,230.46 282.82,230.03 283.03,229.66 C 283.25,229.29 283.49,228.94 283.76,228.62 C 284.03,228.30 284.32,228.00 284.65,227.73 C 284.97,227.45 285.32,227.21 285.70,226.98 C 286.08,226.76 286.49,226.56 286.92,226.39 C 287.36,226.22 287.82,226.07 288.30,225.95 C 288.79,225.82 289.31,225.72 289.85,225.65 C 290.39,225.57 290.96,225.52 291.56,225.50 C 292.16,225.48 292.86,225.49 293.44,225.50 C 294.02,225.51 294.55,225.54 295.03,225.58 C 295.52,225.62 295.95,225.67 296.34,225.73 C 296.73,225.80 297.08,225.88 297.38,225.97 C 297.67,226.06 297.92,226.16 298.12,226.28 C 298.33,226.40 298.48,226.53 298.59,226.67 C 298.70,226.82 298.77,226.97 298.78,227.14 C 298.80,227.31 298.77,227.49 298.69,227.69 C 298.61,227.88 298.45,228.12 298.31,228.31 C 298.17,228.51 298.02,228.69 297.86,228.86 C 297.70,229.03 297.52,229.18 297.33,229.33 C 297.14,229.47 296.93,229.60 296.72,229.72 C 296.50,229.84 296.27,229.94 296.03,230.03 C 295.79,230.12 295.53,230.20 295.27,230.27 C 295.00,230.33 294.72,230.38 294.42,230.42 C 294.13,230.46 293.82,230.49 293.50,230.50 C 293.18,230.51 292.82,230.49 292.50,230.50 C 292.18,230.51 291.88,230.54 291.59,230.57 C 291.30,230.61 291.02,230.65 290.76,230.71 C 290.50,230.77 290.25,230.84 290.02,230.92 C 289.78,231.00 289.56,231.10 289.36,231.20 C 289.15,231.31 288.96,231.43 288.79,231.55 C 288.61,231.68 288.45,231.82 288.30,231.98 C 288.16,232.13 288.02,232.29 287.91,232.47 C 287.79,232.64 287.69,232.85 287.59,233.03 C 287.50,233.21 287.41,233.39 287.34,233.55 C 287.26,233.72 287.19,233.88 287.13,234.04 C 287.07,234.19 287.02,234.34 286.98,234.48 C 286.94,234.63 286.91,234.76 286.89,234.89 C 286.87,235.02 286.86,235.14 286.85,235.26 C 286.85,235.37 286.85,235.48 286.87,235.59 C 286.88,235.69 286.90,235.79 286.94,235.88 C 286.97,235.96 287.02,236.04 287.06,236.12 C 287.11,236.21 287.15,236.29 287.20,236.37 C 287.24,236.45 287.29,236.52 287.34,236.60 C 287.38,236.68 287.43,236.75 287.48,236.83 C 287.54,236.90 287.59,236.98 287.64,237.05 C 287.69,237.12 287.75,237.19 287.80,237.26 C 287.86,237.33 287.92,237.39 287.98,237.46 C 288.04,237.53 288.10,237.59 288.16,237.66 C 288.22,237.72 288.24,237.79 288.34,237.84 C 288.44,237.90 288.58,237.95 288.76,237.99 C 288.93,238.04 289.15,238.07 289.40,238.10 C 289.65,238.13 289.94,238.15 290.27,238.17 C 290.59,238.19 290.96,238.20 291.36,238.20 C 291.76,238.21 292.20,238.20 292.68,238.20 C 293.16,238.19 293.67,238.17 294.23,238.15 C 294.78,238.13 295.37,238.10 296.00,238.06 C 296.63,238.03 297.32,237.97 298.00,237.94 C 298.68,237.91 299.37,237.89 300.08,237.88 C 300.78,237.86 301.50,237.86 302.23,237.88 C 302.97,237.89 303.71,237.91 304.47,237.94 C 305.23,237.97 306.00,238.01 306.78,238.06 C 307.57,238.11 308.36,238.18 309.17,238.25 C 309.98,238.32 310.80,238.41 311.64,238.50 C 312.48,238.59 313.33,238.70 314.19,238.81 C 315.05,238.93 315.98,239.07 316.81,239.19 C 317.64,239.30 318.43,239.41 319.17,239.50 C 319.91,239.59 320.61,239.68 321.27,239.75 C 321.92,239.82 322.53,239.89 323.09,239.94 C 323.66,239.99 324.18,240.03 324.66,240.06 C 325.13,240.09 325.57,240.11 325.95,240.12 C 326.34,240.14 326.68,240.14 326.98,240.12 C 327.28,240.11 327.54,240.09 327.75,240.06 C 327.96,240.03 328.10,239.99 328.25,239.94 C 328.40,239.89 328.55,239.83 328.68,239.76 C 328.81,239.69 328.93,239.61 329.04,239.52 C 329.15,239.44 329.24,239.34 329.33,239.23 C 329.41,239.13 329.49,239.01 329.55,238.89 C 329.61,238.77 329.66,238.63 329.70,238.49 C 329.73,238.35 329.76,238.20 329.77,238.04 C 329.79,237.88 329.79,237.71 329.78,237.53 C 329.77,237.35 329.73,237.15 329.72,236.97 C 329.71,236.79 329.71,236.62 329.72,236.45 C 329.73,236.29 329.75,236.13 329.78,235.98 C 329.81,235.84 329.85,235.70 329.91,235.56 C 329.96,235.43 330.02,235.30 330.09,235.19 C 330.17,235.07 330.25,234.96 330.34,234.86 C 330.44,234.76 330.54,234.66 330.66,234.58 C 330.77,234.49 330.90,234.41 331.03,234.34 C 331.17,234.27 331.33,234.21 331.47,234.16 C 331.61,234.10 331.74,234.05 331.88,234.02 C 332.01,233.98 332.13,233.95 332.25,233.92 C 332.37,233.90 332.48,233.88 332.59,233.88 C 332.70,233.87 332.81,233.87 332.91,233.88 C 333.01,233.88 333.10,233.90 333.19,233.92 C 333.28,233.95 333.36,233.98 333.44,234.02 C 333.52,234.05 333.59,234.10 333.66,234.16 C 333.72,234.21 333.79,234.27 333.84,234.34 C 333.90,234.41 333.95,234.49 334.00,234.58 C 334.05,234.66 334.09,234.76 334.12,234.86 C 334.16,234.96 334.19,235.07 334.22,235.19 C 334.24,235.30 334.27,235.43 334.28,235.56 C 334.30,235.70 334.31,235.84 334.31,235.98 C 334.32,236.13 334.32,236.29 334.31,236.45 C 334.31,236.62 334.30,236.79 334.28,236.97 C 334.27,237.15 334.21,237.34 334.22,237.53 C 334.23,237.72 334.26,237.91 334.32,238.10 C 334.38,238.29 334.47,238.49 334.59,238.68 C 334.70,238.87 334.85,239.07 335.02,239.27 C 335.19,239.46 335.38,239.66 335.61,239.86 C 335.83,240.06 336.09,240.26 336.37,240.46 C 336.65,240.66 336.95,240.87 337.29,241.07 C 337.62,241.27 337.99,241.48 338.38,241.69 C 338.76,241.89 339.19,242.11 339.62,242.31 C 340.06,242.52 340.52,242.72 341.00,242.92 C 341.48,243.12 341.98,243.32 342.50,243.52 C 343.02,243.71 343.56,243.90 344.12,244.09 C 344.69,244.28 345.27,244.47 345.88,244.66 C 346.48,244.84 347.10,245.02 347.75,245.20 C 348.40,245.38 349.06,245.56 349.75,245.73 C 350.44,245.91 351.15,246.08 351.88,246.25 C 352.60,246.42 353.41,246.58 354.12,246.75 C 354.84,246.92 355.51,247.09 356.15,247.26 C 356.79,247.43 357.38,247.60 357.95,247.77 C 358.51,247.95 359.03,248.12 359.52,248.30 C 360.00,248.47 360.45,248.65 360.86,248.83 C 361.27,249.01 361.64,249.19 361.98,249.37 C 362.31,249.55 362.61,249.73 362.87,249.91 C 363.13,250.10 363.35,250.28 363.53,250.47 C 363.71,250.65 363.84,250.85 363.97,251.03 C 364.10,251.21 364.20,251.39 364.29,251.57 C 364.38,251.75 364.44,251.92 364.49,252.09 C 364.54,252.25 364.57,252.42 364.58,252.58 C 364.59,252.74 364.58,252.89 364.55,253.05 C 364.52,253.20 364.47,253.35 364.40,253.49 C 364.33,253.64 364.24,253.78 364.13,253.91 C 364.02,254.05 363.90,254.18 363.75,254.31 C 363.60,254.44 363.38,254.57 363.25,254.69 C 363.12,254.81 363.02,254.93 362.95,255.05 C 362.89,255.16 362.86,255.28 362.86,255.39 C 362.86,255.50 362.90,255.61 362.97,255.72 C 363.04,255.83 363.14,255.93 363.28,256.03 C 363.42,256.13 363.59,256.23 363.80,256.33 C 364.00,256.42 364.24,256.52 364.52,256.61 C 364.79,256.70 365.10,256.79 365.44,256.88 C 365.78,256.96 366.22,257.04 366.56,257.12 C 366.90,257.21 367.21,257.29 367.48,257.38 C 367.76,257.46 368.00,257.54 368.20,257.62 C 368.41,257.71 368.58,257.79 368.72,257.88 C 368.86,257.96 368.96,258.04 369.03,258.12 C 369.10,258.21 369.14,258.29 369.14,258.38 C 369.14,258.46 369.11,258.54 369.05,258.62 C 368.98,258.71 368.88,258.79 368.75,258.88 C 368.62,258.96 368.40,259.04 368.25,259.12 C 368.10,259.21 367.98,259.30 367.88,259.39 C 367.77,259.48 367.69,259.58 367.62,259.67 C 367.56,259.77 367.52,259.87 367.50,259.97 C 367.48,260.07 367.48,260.17 367.50,260.28 C 367.52,260.39 367.56,260.50 367.62,260.61 C 367.69,260.72 367.77,260.84 367.88,260.95 C 367.98,261.07 368.10,261.19 368.25,261.31 C 368.40,261.43 368.60,261.57 368.75,261.69 C 368.90,261.81 369.04,261.93 369.16,262.04 C 369.29,262.15 369.40,262.26 369.49,262.37 C 369.59,262.47 369.67,262.57 369.73,262.67 C 369.80,262.77 369.85,262.86 369.89,262.95 C 369.93,263.04 369.95,263.13 369.96,263.21 C 369.97,263.29 369.96,263.37 369.95,263.45 C 369.93,263.52 369.89,263.59 369.84,263.66 C 369.80,263.72 369.73,263.78 369.66,263.84 C 369.58,263.90 369.49,263.96 369.39,264.02 C 369.29,264.07 369.17,264.12 369.05,264.17 C 368.92,264.22 368.78,264.27 368.62,264.31 C 368.47,264.36 368.30,264.40 368.12,264.44 C 367.95,264.48 367.75,264.51 367.55,264.55 C 367.34,264.58 367.12,264.61 366.89,264.64 C 366.66,264.67 366.41,264.70 366.16,264.72 C 365.90,264.74 365.59,264.75 365.34,264.78 C 365.10,264.81 364.88,264.85 364.68,264.90 C 364.48,264.95 364.31,265.00 364.16,265.07 C 364.02,265.14 363.89,265.21 363.80,265.30 C 363.70,265.38 363.63,265.48 363.58,265.58 C 363.53,265.68 363.51,265.79 363.51,265.91 C 363.51,266.04 363.54,266.17 363.59,266.30 C 363.64,266.44 363.71,266.59 363.81,266.75 C 363.91,266.91 364.08,267.08 364.19,267.25 C 364.30,267.42 364.39,267.58 364.46,267.74 C 364.54,267.90 364.59,268.07 364.63,268.23 C 364.67,268.39 364.70,268.55 364.70,268.70 C 364.71,268.86 364.70,269.02 364.67,269.17 C 364.64,269.33 364.60,269.48 364.54,269.63 C 364.48,269.79 364.40,269.94 364.30,270.09 C 364.21,270.24 364.10,270.38 363.97,270.53 C 363.84,270.68 363.71,270.82 363.53,270.97 C 363.35,271.12 363.13,271.26 362.87,271.41 C 362.61,271.56 362.31,271.71 361.98,271.87 C 361.64,272.02 361.27,272.17 360.86,272.33 C 360.45,272.48 360.00,272.64 359.52,272.80 C 359.03,272.95 358.51,273.11 357.95,273.27 C 357.38,273.43 356.79,273.60 356.15,273.76 C 355.51,273.92 354.84,274.08 354.12,274.25 C 353.41,274.42 352.60,274.58 351.88,274.75 C 351.15,274.92 350.44,275.09 349.75,275.27 C 349.06,275.44 348.40,275.62 347.75,275.80 C 347.10,275.98 346.48,276.16 345.88,276.34 C 345.27,276.53 344.69,276.72 344.12,276.91 C 343.56,277.10 343.02,277.29 342.50,277.48 C 341.98,277.68 341.48,277.88 341.00,278.08 C 340.52,278.28 340.06,278.48 339.62,278.69 C 339.19,278.89 338.76,279.10 338.38,279.31 C 337.99,279.52 337.62,279.73 337.29,279.95 C 336.95,280.16 336.65,280.37 336.37,280.59 C 336.09,280.80 335.83,281.02 335.61,281.23 C 335.38,281.45 335.19,281.67 335.02,281.89 C 334.85,282.11 334.70,282.33 334.59,282.55 C 334.47,282.78 334.38,283.00 334.32,283.23 C 334.26,283.45 334.23,283.68 334.22,283.91 C 334.21,284.13 334.27,284.38 334.28,284.59 C 334.29,284.81 334.29,285.02 334.28,285.22 C 334.27,285.42 334.25,285.60 334.22,285.78 C 334.19,285.96 334.15,286.12 334.09,286.28 C 334.04,286.44 333.98,286.58 333.91,286.72 C 333.83,286.85 333.75,286.98 333.66,287.09 C 333.56,287.21 333.46,287.31 333.34,287.41 C 333.23,287.50 333.10,287.58 332.97,287.66 C 332.83,287.73 332.67,287.79 332.53,287.84 C 332.39,287.90 332.26,287.95 332.12,287.98 C 331.99,288.02 331.87,288.05 331.75,288.08 C 331.63,288.10 331.52,288.12 331.41,288.12 C 331.30,288.13 331.19,288.13 331.09,288.12 C 330.99,288.12 330.90,288.10 330.81,288.08 C 330.72,288.05 330.64,288.02 330.56,287.98 C 330.48,287.95 330.41,287.90 330.34,287.84 C 330.28,287.79 330.21,287.73 330.16,287.66 C 330.10,287.58 330.05,287.50 330.01,287.41 C 329.96,287.32 329.93,287.23 329.90,287.12 C 329.87,287.01 329.85,286.89 329.83,286.77 C 329.81,286.64 329.80,286.50 329.80,286.36 C 329.79,286.21 329.80,286.06 329.80,285.90 C 329.81,285.74 329.83,285.56 329.85,285.38 C 329.87,285.20 329.90,285.01 329.94,284.81 C 329.97,284.61 330.04,284.39 330.06,284.19 C 330.09,283.99 330.10,283.80 330.10,283.62 C 330.10,283.44 330.08,283.26 330.05,283.10 C 330.02,282.94 329.98,282.79 329.92,282.64 C 329.86,282.50 329.79,282.36 329.70,282.23 C 329.62,282.11 329.51,281.99 329.40,281.88 C 329.28,281.77 329.15,281.68 329.01,281.59 C 328.86,281.50 328.70,281.42 328.53,281.34 C 328.36,281.27 328.18,281.21 327.97,281.16 C 327.76,281.10 327.54,281.06 327.29,281.02 C 327.04,280.99 326.78,280.96 326.49,280.95 C 326.21,280.93 325.90,280.92 325.58,280.92 C 325.25,280.92 324.91,280.93 324.55,280.95 C 324.18,280.97 323.80,281.00 323.40,281.04 C 323.00,281.08 322.57,281.12 322.13,281.18 C 321.69,281.24 321.23,281.30 320.75,281.38 C 320.27,281.45 319.78,281.55 319.25,281.62 C 318.72,281.70 318.15,281.78 317.55,281.84 C 316.95,281.91 316.31,281.97 315.64,282.03 C 314.97,282.09 314.27,282.14 313.53,282.19 C 312.79,282.23 312.02,282.28 311.22,282.31 C 310.41,282.35 309.58,282.38 308.70,282.41 C 307.83,282.43 306.92,282.45 305.98,282.47 C 305.04,282.48 304.07,282.49 303.06,282.50 C 302.05,282.51 300.92,282.49 299.94,282.50 C 298.95,282.51 298.03,282.52 297.16,282.54 C 296.30,282.56 295.49,282.58 294.74,282.62 C 293.99,282.65 293.30,282.69 292.67,282.73 C 292.04,282.78 291.47,282.83 290.95,282.89 C 290.44,282.95 289.98,283.01 289.59,283.09 C 289.19,283.16 288.85,283.24 288.57,283.32 C 288.29,283.40 288.07,283.50 287.91,283.59 C 287.74,283.69 287.69,283.80 287.59,283.91 C 287.50,284.01 287.41,284.13 287.34,284.24 C 287.26,284.36 287.19,284.48 287.13,284.60 C 287.07,284.73 287.02,284.85 286.98,284.98 C 286.94,285.12 286.91,285.25 286.89,285.39 C 286.87,285.53 286.86,285.67 286.85,285.82 C 286.85,285.97 286.85,286.12 286.87,286.27 C 286.88,286.43 286.90,286.59 286.94,286.75 C 286.97,286.91 287.02,287.09 287.06,287.25 C 287.11,287.41 287.15,287.56 287.20,287.71 C 287.24,287.86 287.29,288.00 287.34,288.13 C 287.38,288.27 287.43,288.39 287.48,288.52 C 287.54,288.64 287.59,288.75 287.64,288.86 C 287.69,288.97 287.75,289.07 287.80,289.16 C 287.86,289.26 287.92,289.35 287.98,289.43 C 288.04,289.51 288.10,289.59 288.16,289.66 C 288.22,289.73 288.26,289.79 288.34,289.84 C 288.42,289.90 288.52,289.96 288.63,290.01 C 288.75,290.06 288.88,290.11 289.02,290.15 C 289.17,290.19 289.33,290.23 289.52,290.27 C 289.70,290.30 289.89,290.33 290.11,290.36 C 290.32,290.39 290.56,290.41 290.80,290.43 C 291.05,290.45 291.32,290.46 291.60,290.48 C 291.88,290.49 292.18,290.50 292.50,290.50 C 292.82,290.50 293.18,290.49 293.50,290.50 C 293.82,290.51 294.13,290.54 294.42,290.58 C 294.72,290.62 295.00,290.67 295.27,290.73 C 295.53,290.80 295.79,290.88 296.03,290.97 C 296.27,291.06 296.50,291.16 296.72,291.28 C 296.93,291.40 297.14,291.53 297.33,291.67 C 297.52,291.82 297.70,291.97 297.86,292.14 C 298.02,292.31 298.17,292.49 298.31,292.69 C 298.45,292.88 298.61,293.12 298.69,293.31 C 298.77,293.51 298.80,293.69 298.78,293.86 C 298.77,294.03 298.70,294.18 298.59,294.33 C 298.48,294.47 298.33,294.60 298.12,294.72 C 297.92,294.84 297.67,294.94 297.38,295.03 C 297.08,295.12 296.73,295.20 296.34,295.27 C 295.95,295.33 295.52,295.38 295.03,295.42 C 294.55,295.46 294.02,295.49 293.44,295.50 C 292.86,295.51 292.16,295.52 291.56,295.50 C 290.96,295.48 290.39,295.43 289.85,295.35 C 289.31,295.28 288.79,295.18 288.30,295.05 C 287.82,294.93 287.36,294.78 286.92,294.61 C 286.49,294.44 286.08,294.24 285.70,294.02 C 285.32,293.79 284.97,293.55 284.65,293.27 C 284.32,293.00 284.03,292.70 283.76,292.38 C 283.49,292.06 283.25,291.71 283.03,291.34 C 282.82,290.97 282.64,290.54 282.47,290.16 C 282.30,289.77 282.15,289.41 282.02,289.05 C 281.89,288.70 281.79,288.36 281.70,288.04 C 281.61,287.71 281.54,287.40 281.48,287.11 C 281.43,286.81 281.40,286.53 281.39,286.27 C 281.38,286.00 281.39,285.75 281.41,285.51 C 281.44,285.27 281.49,285.05 281.55,284.84 C 281.62,284.63 281.71,284.43 281.81,284.25 C 281.92,284.07 282.11,283.91 282.19,283.75 C 282.27,283.59 282.31,283.44 282.30,283.29 C 282.30,283.14 282.25,283.00 282.16,282.87 C 282.07,282.73 281.94,282.61 281.77,282.48 C 281.59,282.36 281.37,282.25 281.11,282.14 C 280.85,282.03 280.54,281.93 280.20,281.84 C 279.85,281.74 279.46,281.65 279.02,281.57 C 278.59,281.49 278.11,281.41 277.59,281.34 C 277.07,281.27 276.48,281.21 275.91,281.16 C 275.33,281.10 274.75,281.05 274.15,281.01 C 273.55,280.96 272.94,280.93 272.32,280.90 C 271.70,280.87 271.07,280.85 270.42,280.83 C 269.78,280.81 269.12,280.80 268.45,280.80 C 267.79,280.79 267.11,280.80 266.41,280.80 C 265.72,280.81 265.02,280.83 264.30,280.85 C 263.59,280.87 262.86,280.90 262.12,280.94 C 261.39,280.97 260.59,281.01 259.88,281.06 C 259.16,281.11 258.47,281.18 257.81,281.25 C 257.16,281.32 256.53,281.41 255.94,281.50 C 255.34,281.59 254.78,281.70 254.25,281.81 C 253.72,281.93 253.22,282.05 252.75,282.19 C 252.28,282.32 251.84,282.47 251.44,282.62 C 251.03,282.78 250.66,282.95 250.31,283.12 C 249.97,283.30 249.66,283.49 249.38,283.69 C 249.09,283.89 248.89,284.12 248.62,284.31 C 248.36,284.51 248.07,284.69 247.77,284.86 C 247.46,285.03 247.14,285.18 246.80,285.33 C 246.46,285.47 246.10,285.60 245.72,285.72 C 245.34,285.84 244.95,285.94 244.53,286.03 C 244.12,286.12 243.68,286.20 243.23,286.27 C 242.78,286.33 242.32,286.38 241.83,286.42 C 241.34,286.46 240.84,286.49 240.31,286.50 C 239.79,286.51 239.20,286.51 238.69,286.50 C 238.17,286.49 237.68,286.48 237.22,286.47 C 236.76,286.45 236.32,286.43 235.91,286.41 C 235.49,286.38 235.11,286.35 234.75,286.31 C 234.39,286.28 234.06,286.23 233.75,286.19 C 233.44,286.14 233.16,286.09 232.91,286.03 C 232.65,285.97 232.42,285.91 232.22,285.84 C 232.02,285.78 231.84,285.70 231.69,285.62 C 231.54,285.55 231.51,285.45 231.31,285.38 C 231.12,285.30 230.86,285.22 230.53,285.16 C 230.20,285.09 229.81,285.03 229.34,284.97 C 228.88,284.91 228.35,284.86 227.75,284.81 C 227.15,284.77 226.48,284.72 225.75,284.69 C 225.02,284.65 224.21,284.62 223.34,284.59 C 222.47,284.57 221.54,284.55 220.53,284.53 C 219.53,284.52 218.45,284.51 217.31,284.50 C 216.17,284.49 214.82,284.50 213.69,284.50 C 212.55,284.50 211.49,284.51 210.49,284.52 C 209.50,284.54 208.58,284.55 207.73,284.57 C 206.88,284.59 206.10,284.61 205.39,284.64 C 204.68,284.67 204.05,284.70 203.48,284.73 C 202.92,284.77 202.43,284.81 202.01,284.85 C 201.59,284.89 201.24,284.94 200.96,284.99 C 200.68,285.04 200.48,285.10 200.34,285.16 C 200.21,285.21 200.21,285.26 200.16,285.34 C 200.11,285.42 200.07,285.52 200.04,285.63 C 200.01,285.75 200.00,285.88 199.99,286.02 C 199.99,286.17 200.00,286.33 200.02,286.52 C 200.04,286.70 200.07,286.89 200.11,287.11 C 200.15,287.32 200.21,287.56 200.27,287.80 C 200.34,288.05 200.42,288.32 200.51,288.60 C 200.60,288.88 200.70,289.18 200.81,289.50 C 200.93,289.82 201.07,290.18 201.19,290.50 C 201.30,290.82 201.40,291.13 201.49,291.43 C 201.58,291.73 201.66,292.01 201.73,292.29 C 201.79,292.56 201.85,292.83 201.89,293.08 C 201.93,293.33 201.96,293.57 201.98,293.80 C 202.00,294.02 202.01,294.24 202.01,294.45 C 202.00,294.65 201.99,294.84 201.96,295.02 C 201.93,295.20 201.89,295.37 201.84,295.53 C 201.79,295.69 201.73,295.83 201.66,295.97 C 201.58,296.11 201.50,296.23 201.41,296.35 C 201.32,296.47 201.23,296.58 201.12,296.68 C 201.01,296.78 200.89,296.87 200.77,296.95 C 200.64,297.04 200.50,297.11 200.36,297.17 C 200.21,297.24 200.06,297.29 199.90,297.34 C 199.74,297.38 199.56,297.42 199.38,297.45 C 199.20,297.47 199.01,297.49 198.81,297.50 Z" fill="none" stroke="currentColor" stroke-width="1.5" stroke-linejoin="round" stroke-linecap="round" filter="url(#glow)" />
</svg>