<svg xmlns="http://www.w3.org/2000/svg" width="512" height="512" viewBox="132.77 216.62 244.55 88.24" preserveAspectRatio="xMidYMid meet">
  <defs>
    <filter id="glow" x="-30%" y="-30%" width="160%" height="160%">
      <feGaussianBlur in="SourceGraphic" stdDeviation="2.4" result="blur" />
      <feMerge>
        <feMergeNode in="blur" />
        <feMergeNode in="SourceGraphic" />
      </feMerge>
    </filter>
    <clipPath id="hull-clip">
      <path d="M 198.81,297.50 C 198.61,297.51 198.39,297.51 198.19,297.50 C 197.98,297.49 197.78,297.48 197.59,297.46 C 197.39,297.44 197.20,297.42 197.01,297.38 C 196.82,297.35 196.63,297.31 196.45,297.27 C 196.27,297.22 196.10,297.17 195.92,297.11 C 195.75,297.05 195.58,296.99 195.41,296.91 C 195.25,296.84 195.09,296.76 194.93,296.68 C 194.77,296.60 194.62,296.50 194.47,296.41 C 194.32,296.31 194.17,296.20 194.03,296.09 C 193.89,295.98 193.77,295.87 193.65,295.74 C 193.53,295.62 193.42,295.49 193.32,295.35 C 193.22,295.21 193.13,295.07 193.05,294.92 C 192.96,294.77 192.89,294.62 192.83,294.45 C 192.76,294.29 192.71,294.12 192.66,293.95 C 192.62,293.77 192.58,293.59 192.55,293.40 C 192.53,293.21 192.51,293.01 192.50,292.81 C 192.49,292.61 192.51,292.40 192.50,292.19 C 192.49,291.98 192.47,291.76 192.45,291.54 C 192.42,291.32 192.38,291.10 192.34,290.87 C 192.29,290.64 192.24,290.41 192.17,290.17 C 192.11,289.94 192.04,289.70 191.95,289.45 C 191.87,289.21 191.78,288.96 191.68,288.71 C 191.58,288.46 191.47,288.20 191.35,287.95 C 191.23,287.69 191.11,287.42 190.97,287.16 C 190.83,286.89 190.77,286.61 190.53,286.34 C 190.29,286.08 189.96,285.83 189.54,285.59 C 189.12,285.34 188.60,285.11 187.99,284.88 C 187.38,284.66 186.68,284.44 185.89,284.23 C 185.10,284.03 184.21,283.83 183.23,283.64 C 182.26,283.45 181.19,283.27 180.02,283.10 C 178.86,282.93 177.61,282.77 176.26,282.62 C 174.91,282.46 173.47,282.32 171.94,282.19 C 170.40,282.05 168.61,281.95 167.06,281.81 C 165.51,281.68 164.04,281.54 162.63,281.38 C 161.23,281.23 159.90,281.07 158.65,280.90 C 157.39,280.73 156.21,280.55 155.11,280.36 C 154.00,280.17 152.97,279.97 152.02,279.77 C 151.06,279.56 150.18,279.34 149.37,279.12 C 148.56,278.89 147.82,278.66 147.16,278.41 C 146.50,278.17 145.92,277.92 145.41,277.66 C 144.89,277.39 144.50,277.11 144.09,276.84 C 143.69,276.58 143.31,276.33 142.97,276.08 C 142.62,275.83 142.31,275.59 142.03,275.36 C 141.75,275.13 141.50,274.90 141.28,274.69 C 141.06,274.47 140.88,274.26 140.72,274.06 C 140.56,273.86 140.44,273.67 140.34,273.48 C 140.25,273.30 140.19,273.12 140.16,272.95 C 140.12,272.78 140.12,272.62 140.16,272.47 C 140.19,272.32 140.28,272.17 140.34,272.03 C 140.41,271.89 140.48,271.76 140.56,271.64 C 140.64,271.52 140.72,271.40 140.81,271.30 C 140.90,271.19 140.99,271.09 141.09,271.00 C 141.19,270.91 141.30,270.83 141.41,270.75 C 141.52,270.67 141.63,270.61 141.75,270.55 C 141.87,270.49 141.99,270.43 142.12,270.39 C 142.26,270.35 142.39,270.31 142.53,270.28 C 142.67,270.25 142.84,270.25 142.97,270.22 C 143.10,270.19 143.22,270.14 143.32,270.09 C 143.42,270.03 143.51,269.96 143.59,269.88 C 143.66,269.80 143.72,269.71 143.77,269.61 C 143.81,269.51 143.84,269.39 143.86,269.27 C 143.88,269.14 143.88,269.00 143.87,268.85 C 143.86,268.70 143.83,268.54 143.79,268.37 C 143.75,268.19 143.69,268.01 143.62,267.81 C 143.56,267.62 143.45,267.41 143.38,267.19 C 143.30,266.97 143.22,266.74 143.16,266.50 C 143.09,266.26 143.03,266.01 142.97,265.75 C 142.91,265.49 142.86,265.22 142.81,264.94 C 142.77,264.66 142.72,264.36 142.69,264.06 C 142.65,263.76 142.62,263.45 142.59,263.12 C 142.57,262.80 142.55,262.47 142.53,262.12 C 142.52,261.78 142.51,261.43 142.50,261.06 C 142.49,260.70 142.49,260.30 142.50,259.94 C 142.51,259.57 142.52,259.22 142.53,258.88 C 142.55,258.53 142.57,258.20 142.59,257.88 C 142.62,257.55 142.65,257.24 142.69,256.94 C 142.72,256.64 142.77,256.34 142.81,256.06 C 142.86,255.78 142.91,255.51 142.97,255.25 C 143.03,254.99 143.09,254.74 143.16,254.50 C 143.22,254.26 143.30,254.03 143.38,253.81 C 143.45,253.59 143.56,253.38 143.62,253.19 C 143.69,252.99 143.75,252.81 143.79,252.63 C 143.83,252.46 143.86,252.30 143.87,252.15 C 143.88,252.00 143.88,251.86 143.86,251.73 C 143.84,251.61 143.81,251.49 143.77,251.39 C 143.72,251.29 143.66,251.20 143.59,251.12 C 143.51,251.04 143.42,250.97 143.32,250.91 C 143.22,250.86 143.10,250.81 142.97,250.78 C 142.84,250.75 142.67,250.75 142.53,250.72 C 142.39,250.69 142.26,250.65 142.12,250.61 C 141.99,250.57 141.87,250.51 141.75,250.45 C 141.63,250.39 141.52,250.33 141.41,250.25 C 141.30,250.17 141.19,250.09 141.09,250.00 C 140.99,249.91 140.90,249.81 140.81,249.70 C 140.72,249.60 140.64,249.48 140.56,249.36 C 140.48,249.24 140.41,249.11 140.34,248.97 C 140.28,248.83 140.19,248.68 140.16,248.53 C 140.12,248.38 140.11,248.22 140.12,248.06 C 140.14,247.90 140.18,247.73 140.25,247.56 C 140.32,247.39 140.41,247.21 140.53,247.03 C 140.65,246.85 140.80,246.66 140.97,246.47 C 141.14,246.28 141.34,246.08 141.56,245.88 C 141.79,245.67 142.04,245.46 142.31,245.25 C 142.59,245.04 142.89,244.82 143.22,244.59 C 143.55,244.37 143.84,244.13 144.28,243.91 C 144.72,243.68 145.25,243.45 145.87,243.23 C 146.48,243.00 147.19,242.78 147.98,242.55 C 148.77,242.33 149.64,242.11 150.61,241.89 C 151.57,241.67 152.63,241.45 153.77,241.23 C 154.90,241.02 156.13,240.80 157.45,240.59 C 158.76,240.37 160.16,240.16 161.65,239.95 C 163.14,239.73 164.71,239.52 166.38,239.31 C 168.04,239.10 169.98,238.91 171.62,238.69 C 173.27,238.46 174.82,238.23 176.26,237.98 C 177.70,237.73 179.04,237.46 180.27,237.18 C 181.51,236.90 182.64,236.61 183.67,236.30 C 184.70,235.99 185.63,235.67 186.45,235.33 C 187.28,234.99 188.00,234.64 188.62,234.27 C 189.24,233.91 189.75,233.53 190.16,233.13 C 190.58,232.74 190.89,232.33 191.09,231.91 C 191.30,231.48 191.30,231.01 191.41,230.59 C 191.51,230.18 191.62,229.78 191.73,229.41 C 191.85,229.03 191.96,228.68 192.08,228.34 C 192.20,228.01 192.32,227.70 192.44,227.41 C 192.56,227.11 192.68,226.84 192.81,226.59 C 192.94,226.34 193.07,226.11 193.20,225.91 C 193.34,225.70 193.47,225.51 193.61,225.34 C 193.75,225.18 193.89,225.03 194.03,224.91 C 194.17,224.78 194.32,224.69 194.47,224.59 C 194.62,224.50 194.78,224.42 194.95,224.34 C 195.12,224.27 195.30,224.21 195.48,224.16 C 195.67,224.10 195.86,224.06 196.06,224.03 C 196.26,224.00 196.47,223.98 196.69,223.97 C 196.90,223.96 197.13,223.96 197.36,223.97 C 197.59,223.98 197.83,224.00 198.08,224.03 C 198.33,224.06 198.58,224.10 198.84,224.16 C 199.11,224.21 199.41,224.26 199.66,224.34 C 199.90,224.43 200.12,224.53 200.32,224.65 C 200.52,224.77 200.69,224.91 200.84,225.07 C 200.98,225.23 201.11,225.41 201.20,225.61 C 201.30,225.81 201.37,226.03 201.42,226.27 C 201.47,226.50 201.49,226.76 201.49,227.04 C 201.49,227.32 201.46,227.61 201.41,227.93 C 201.36,228.25 201.29,228.58 201.19,228.94 C 201.09,229.29 200.93,229.70 200.81,230.06 C 200.70,230.42 200.60,230.76 200.51,231.09 C 200.42,231.41 200.34,231.72 200.27,232.01 C 200.21,232.30 200.15,232.57 200.11,232.83 C 200.07,233.08 200.04,233.32 200.02,233.55 C 200.00,233.77 199.99,233.98 199.99,234.16 C 200.00,234.35 200.01,234.52 200.04,234.68 C 200.07,234.83 200.11,234.97 200.16,235.09 C 200.21,235.21 200.21,235.31 200.34,235.41 C 200.48,235.50 200.68,235.60 200.96,235.68 C 201.24,235.76 201.59,235.84 202.01,235.91 C 202.43,235.99 202.92,236.05 203.48,236.11 C 204.05,236.17 204.68,236.22 205.39,236.27 C 206.10,236.31 206.88,236.35 207.73,236.38 C 208.58,236.42 209.50,236.44 210.49,236.46 C 211.49,236.48 212.55,236.49 213.69,236.50 C 214.82,236.51 216.17,236.51 217.31,236.50 C 218.45,236.49 219.53,236.48 220.53,236.47 C 221.54,236.45 222.47,236.43 223.34,236.41 C 224.21,236.38 225.02,236.35 225.75,236.31 C 226.48,236.28 227.15,236.23 227.75,236.19 C 228.35,236.14 228.88,236.09 229.34,236.03 C 229.81,235.97 230.20,235.91 230.53,235.84 C 230.86,235.78 231.12,235.70 231.31,235.62 C 231.51,235.55 231.54,235.45 231.69,235.38 C 231.84,235.30 232.02,235.22 232.22,235.16 C 232.42,235.09 232.65,235.03 232.91,234.97 C 233.16,234.91 233.44,234.86 233.75,234.81 C 234.06,234.77 234.39,234.72 234.75,234.69 C 235.11,234.65 235.49,234.62 235.91,234.59 C 236.32,234.57 236.76,234.55 237.22,234.53 C 237.68,234.52 238.17,234.51 238.69,234.50 C 239.20,234.49 239.79,234.49 240.31,234.50 C 240.84,234.51 241.34,234.54 241.83,234.58 C 242.32,234.62 242.78,234.67 243.23,234.73 C 243.68,234.80 244.12,234.88 244.53,234.97 C 244.95,235.06 245.34,235.16 245.72,235.28 C 246.10,235.40 246.46,235.53 246.80,235.67 C 247.14,235.82 247.46,235.97 247.77,236.14 C 248.07,236.31 248.36,236.49 248.62,236.69 C 248.89,236.88 249.07,237.11 249.38,237.31 C 249.68,237.51 250.03,237.70 250.44,237.88 C 250.84,238.05 251.30,238.22 251.81,238.38 C 252.32,238.53 252.89,238.68 253.50,238.81 C 254.11,238.95 254.78,239.07 255.50,239.19 C 256.22,239.30 256.99,239.41 257.81,239.50 C 258.64,239.59 259.51,239.68 260.44,239.75 C 261.36,239.82 262.34,239.89 263.38,239.94 C 264.41,239.99 265.59,240.03 266.62,240.06 C 267.66,240.10 268.64,240.13 269.57,240.15 C 270.50,240.17 271.38,240.19 272.21,240.20 C 273.04,240.20 273.82,240.21 274.55,240.20 C 275.27,240.20 275.95,240.19 276.58,240.17 C 277.20,240.15 277.78,240.13 278.30,240.10 C 278.83,240.07 279.30,240.04 279.73,239.99 C 280.15,239.95 280.52,239.90 280.84,239.84 C 281.17,239.79 281.41,239.73 281.66,239.66 C 281.90,239.59 282.12,239.51 282.30,239.43 C 282.49,239.35 282.65,239.26 282.79,239.16 C 282.92,239.07 283.03,238.97 283.11,238.86 C 283.19,238.75 283.24,238.64 283.27,238.52 C 283.29,238.39 283.29,238.27 283.26,238.13 C 283.23,238.00 283.17,237.86 283.09,237.71 C 283.00,237.56 282.89,237.41 282.75,237.25 C 282.61,237.09 282.39,236.93 282.25,236.75 C 282.11,236.57 281.98,236.37 281.88,236.16 C 281.78,235.95 281.70,235.73 281.65,235.49 C 281.59,235.25 281.56,235.00 281.55,234.73 C 281.54,234.47 281.55,234.19 281.58,233.89 C 281.61,233.60 281.67,233.29 281.74,232.96 C 281.82,232.64 281.92,232.30 282.04,231.95 C 282.16,231.59 282.30,231.23 282.47,230.84 C 282.63,230.46 282.82,230.03 283.03,229.66 C 283.25,229.29 283.49,228.94 283.76,228.62 C 284.03,228.30 284.32,228.00 284.65,227.73 C 284.97,227.45 285.32,227.21 285.70,226.98 C 286.08,226.76 286.49,226.56 286.92,226.39 C 287.36,226.22 287.82,226.07 288.30,225.95 C 288.79,225.82 289.31,225.72 289.85,225.65 C 290.39,225.57 290.96,225.52 291.56,225.50 C 292.16,225.48 292.86,225.49 293.44,225.50 C 294.02,225.51 294.55,225.54 295.03,225.58 C 295.52,225.62 295.95,225.67 296.34,225.73 C 296.73,225.80 297.08,225.88 297.38,225.97 C 297.67,226.06 297.92,226.16 298.12,226.28 C 298.33,226.40 298.48,226.53 298.59,226.67 C 298.70,226.82 298.77,226.97 298.78,227.14 C 298.80,227.31 298.77,227.49 298.69,227.69 C 298.61,227.88 298.45,228.12 298.31,228.31 C 298.17,228.51 298.02,228.69 297.86,228.86 C 297.70,229.03 297.52,229.18 297.33,229.33 C 297.14,229.47 296.93,229.60 296.72,229.72 C 296.50,229.84 296.27,229.94 296.03,230.03 C 295.79,230.12 295.53,230.20 295.27,230.27 C 295.00,230.33 294.72,230.38 294.42,230.42 C 294.13,230.46 293.82,230.49 293.50,230.50 C 293.18,230.51 292.82,230.49 292.50,230.50 C 292.18,230.51 291.88,230.54 291.59,230.59 C 291.30,230.63 291.02,230.69 290.76,230.76 C 290.50,230.83 290.25,230.92 290.02,231.02 C 289.78,231.12 289.56,231.23 289.36,231.36 C 289.15,231.49 288.96,231.63 288.79,231.79 C 288.61,231.95 288.45,232.12 288.30,232.30 C 288.16,232.49 288.02,232.69 287.91,232.91 C 287.79,233.12 287.68,233.37 287.59,233.59 C 287.50,233.82 287.42,234.03 287.36,234.23 C 287.29,234.44 287.24,234.64 287.20,234.83 C 287.16,235.02 287.14,235.20 287.12,235.38 C 287.11,235.55 287.11,235.72 287.12,235.88 C 287.14,236.03 287.16,236.18 287.20,236.33 C 287.24,236.47 287.29,236.61 287.36,236.73 C 287.42,236.86 287.50,236.98 287.59,237.09 C 287.68,237.21 287.75,237.31 287.91,237.41 C 288.06,237.50 288.27,237.60 288.54,237.68 C 288.80,237.76 289.12,237.84 289.49,237.91 C 289.86,237.99 290.29,238.05 290.77,238.11 C 291.24,238.17 291.77,238.22 292.36,238.27 C 292.94,238.31 293.58,238.35 294.27,238.38 C 294.96,238.42 295.71,238.44 296.51,238.46 C 297.31,238.48 298.16,238.49 299.06,238.50 C 299.97,238.51 300.99,238.49 301.94,238.50 C 302.88,238.51 303.82,238.52 304.73,238.53 C 305.65,238.55 306.56,238.57 307.45,238.59 C 308.35,238.62 309.23,238.65 310.09,238.69 C 310.96,238.72 311.82,238.77 312.66,238.81 C 313.50,238.86 314.33,238.91 315.14,238.97 C 315.96,239.03 316.76,239.09 317.55,239.16 C 318.34,239.22 319.11,239.30 319.88,239.38 C 320.64,239.45 321.42,239.55 322.12,239.62 C 322.83,239.70 323.49,239.76 324.10,239.82 C 324.71,239.88 325.28,239.92 325.80,239.96 C 326.33,240.00 326.80,240.03 327.23,240.05 C 327.67,240.07 328.05,240.08 328.39,240.08 C 328.73,240.08 329.02,240.07 329.27,240.05 C 329.52,240.04 329.73,240.01 329.88,239.98 C 330.04,239.94 330.15,239.90 330.22,239.84 C 330.29,239.79 330.27,239.72 330.28,239.66 C 330.30,239.60 330.30,239.54 330.30,239.48 C 330.31,239.42 330.30,239.36 330.29,239.30 C 330.28,239.25 330.26,239.19 330.23,239.14 C 330.21,239.09 330.18,239.04 330.14,238.98 C 330.10,238.93 330.06,238.88 330.01,238.84 C 329.96,238.79 329.90,238.74 329.84,238.70 C 329.77,238.65 329.70,238.61 329.62,238.56 C 329.55,238.52 329.45,238.48 329.38,238.44 C 329.30,238.39 329.23,238.34 329.17,238.28 C 329.11,238.22 329.06,238.16 329.02,238.09 C 328.97,238.03 328.93,237.95 328.91,237.88 C 328.88,237.80 328.86,237.71 328.84,237.62 C 328.83,237.54 328.83,237.44 328.83,237.34 C 328.83,237.24 328.84,237.14 328.86,237.03 C 328.88,236.92 328.90,236.81 328.94,236.69 C 328.97,236.57 329.01,236.43 329.06,236.31 C 329.11,236.19 329.17,236.07 329.23,235.96 C 329.29,235.85 329.36,235.74 329.43,235.63 C 329.50,235.53 329.58,235.43 329.67,235.33 C 329.76,235.23 329.85,235.14 329.95,235.05 C 330.05,234.96 330.16,234.87 330.27,234.79 C 330.39,234.71 330.51,234.63 330.63,234.55 C 330.76,234.48 330.89,234.41 331.03,234.34 C 331.17,234.28 331.33,234.21 331.47,234.16 C 331.61,234.10 331.74,234.05 331.88,234.02 C 332.01,233.98 332.13,233.95 332.25,233.92 C 332.37,233.90 332.48,233.88 332.59,233.88 C 332.70,233.87 332.81,233.87 332.91,233.88 C 333.01,233.88 333.10,233.90 333.19,233.92 C 333.28,233.95 333.36,233.98 333.44,234.02 C 333.52,234.05 333.59,234.10 333.66,234.16 C 333.72,234.21 333.79,234.27 333.84,234.34 C 333.90,234.42 333.95,234.51 334.00,234.61 C 334.05,234.71 334.09,234.83 334.12,234.95 C 334.16,235.08 334.19,235.22 334.22,235.38 C 334.24,235.53 334.27,235.70 334.28,235.88 C 334.30,236.05 334.31,236.25 334.31,236.45 C 334.32,236.66 334.32,236.88 334.31,237.11 C 334.31,237.34 334.30,237.59 334.28,237.84 C 334.27,238.10 334.18,238.39 334.22,238.66 C 334.26,238.92 334.37,239.19 334.54,239.45 C 334.71,239.70 334.94,239.96 335.24,240.21 C 335.54,240.46 335.90,240.71 336.33,240.95 C 336.75,241.20 337.24,241.44 337.80,241.67 C 338.35,241.91 338.97,242.14 339.65,242.37 C 340.33,242.60 341.07,242.82 341.88,243.04 C 342.69,243.26 343.56,243.48 344.50,243.69 C 345.44,243.90 346.54,244.10 347.50,244.31 C 348.46,244.52 349.37,244.73 350.24,244.95 C 351.11,245.16 351.94,245.37 352.73,245.59 C 353.51,245.80 354.25,246.02 354.95,246.23 C 355.65,246.45 356.31,246.67 356.92,246.89 C 357.54,247.11 358.11,247.33 358.63,247.55 C 359.16,247.78 359.64,248.00 360.09,248.23 C 360.53,248.45 360.93,248.68 361.28,248.91 C 361.64,249.13 361.93,249.37 362.22,249.59 C 362.50,249.82 362.76,250.04 362.98,250.27 C 363.21,250.49 363.41,250.71 363.58,250.92 C 363.75,251.14 363.89,251.35 364.00,251.56 C 364.11,251.77 364.20,251.98 364.25,252.19 C 364.30,252.39 364.33,252.60 364.33,252.80 C 364.33,253.00 364.29,253.20 364.23,253.39 C 364.17,253.59 364.09,253.78 363.97,253.97 C 363.85,254.16 363.65,254.36 363.53,254.53 C 363.41,254.71 363.32,254.87 363.26,255.02 C 363.19,255.18 363.16,255.32 363.15,255.45 C 363.14,255.57 363.16,255.69 363.20,255.80 C 363.25,255.90 363.32,256.00 363.42,256.08 C 363.52,256.16 363.65,256.23 363.80,256.29 C 363.96,256.35 364.14,256.39 364.35,256.43 C 364.56,256.46 364.80,256.49 365.06,256.50 C 365.33,256.51 365.66,256.50 365.94,256.50 C 366.21,256.50 366.48,256.51 366.73,256.52 C 366.98,256.54 367.21,256.55 367.43,256.57 C 367.65,256.59 367.86,256.61 368.05,256.64 C 368.24,256.67 368.42,256.70 368.58,256.73 C 368.74,256.77 368.89,256.81 369.02,256.85 C 369.16,256.89 369.28,256.94 369.38,256.99 C 369.49,257.04 369.58,257.10 369.66,257.16 C 369.73,257.21 369.80,257.28 369.84,257.34 C 369.89,257.41 369.93,257.47 369.95,257.54 C 369.96,257.61 369.97,257.67 369.96,257.74 C 369.95,257.81 369.93,257.88 369.89,257.95 C 369.85,258.02 369.80,258.10 369.73,258.17 C 369.67,258.25 369.59,258.32 369.49,258.40 C 369.40,258.48 369.29,258.55 369.16,258.63 C 369.04,258.71 368.90,258.79 368.75,258.88 C 368.60,258.96 368.40,259.04 368.25,259.12 C 368.10,259.21 367.98,259.30 367.88,259.39 C 367.77,259.48 367.69,259.58 367.62,259.67 C 367.56,259.77 367.52,259.87 367.50,259.97 C 367.48,260.07 367.48,260.17 367.50,260.28 C 367.52,260.39 367.56,260.50 367.62,260.61 C 367.69,260.72 367.77,260.84 367.88,260.95 C 367.98,261.07 368.10,261.19 368.25,261.31 C 368.40,261.43 368.60,261.57 368.75,261.69 C 368.90,261.81 369.04,261.93 369.16,262.04 C 369.29,262.15 369.40,262.26 369.49,262.37 C 369.59,262.47 369.67,262.57 369.73,262.67 C 369.80,262.77 369.85,262.86 369.89,262.95 C 369.93,263.04 369.95,263.13 369.96,263.21 C 369.97,263.29 369.96,263.37 369.95,263.45 C 369.93,263.52 369.89,263.59 369.84,263.66 C 369.80,263.72 369.73,263.78 369.66,263.84 C 369.58,263.90 369.49,263.96 369.39,264.02 C 369.29,264.07 369.17,264.12 369.05,264.17 C 368.92,264.22 368.78,264.27 368.62,264.31 C 368.47,264.36 368.30,264.40 368.12,264.44 C 367.95,264.48 367.75,264.51 367.55,264.55 C 367.34,264.58 367.12,264.61 366.89,264.64 C 366.66,264.67 366.41,264.70 366.16,264.72 C 365.90,264.74 365.59,264.75 365.34,264.78 C 365.10,264.81 364.88,264.85 364.68,264.90 C 364.48,264.95 364.31,265.00 364.16,265.07 C 364.02,265.14 363.89,265.21 363.80,265.30 C 363.70,265.38 363.63,265.48 363.58,265.58 C 363.53,265.68 363.51,265.79 363.51,265.91 C 363.51,266.04 363.54,266.17 363.59,266.30 C 363.64,266.44 363.71,266.59 363.81,266.75 C 363.91,266.91 364.08,267.08 364.19,267.25 C 364.30,267.42 364.39,267.58 364.46,267.74 C 364.54,267.90 364.59,268.07 364.63,268.23 C 364.67,268.39 364.70,268.55 364.70,268.70 C 364.71,268.86 364.70,269.02 364.67,269.17 C 364.64,269.33 364.60,269.48 364.54,269.63 C 364.48,269.79 364.40,269.94 364.30,270.09 C 364.21,270.24 364.10,270.38 363.97,270.53 C 363.84,270.68 363.74,270.81 363.53,270.97 C 363.32,271.12 363.04,271.29 362.70,271.46 C 362.35,271.63 361.94,271.82 361.46,272.01 C 360.98,272.20 360.44,272.40 359.83,272.61 C 359.22,272.82 358.54,273.04 357.80,273.27 C 357.05,273.49 356.24,273.73 355.37,273.98 C 354.49,274.22 353.55,274.48 352.54,274.74 C 351.53,275.01 350.45,275.28 349.31,275.56 C 348.17,275.85 346.82,276.14 345.69,276.44 C 344.56,276.73 343.51,277.03 342.53,277.33 C 341.56,277.63 340.66,277.93 339.84,278.23 C 339.03,278.54 338.29,278.85 337.62,279.16 C 336.96,279.47 336.38,279.78 335.88,280.09 C 335.37,280.41 334.94,280.73 334.59,281.05 C 334.24,281.37 333.97,281.69 333.78,282.02 C 333.59,282.34 333.47,282.67 333.44,283.00 C 333.40,283.33 333.53,283.68 333.56,284.00 C 333.59,284.32 333.61,284.61 333.62,284.89 C 333.64,285.17 333.64,285.43 333.62,285.67 C 333.61,285.91 333.59,286.14 333.56,286.34 C 333.53,286.55 333.49,286.74 333.44,286.91 C 333.39,287.08 333.32,287.23 333.25,287.36 C 333.18,287.49 333.09,287.61 333.00,287.70 C 332.91,287.80 332.80,287.88 332.69,287.94 C 332.57,288.00 332.43,288.03 332.31,288.06 C 332.19,288.10 332.07,288.13 331.96,288.15 C 331.85,288.17 331.74,288.19 331.63,288.20 C 331.53,288.20 331.43,288.21 331.33,288.20 C 331.23,288.20 331.14,288.19 331.05,288.17 C 330.96,288.15 330.87,288.13 330.79,288.10 C 330.71,288.07 330.63,288.04 330.55,287.99 C 330.48,287.95 330.41,287.90 330.34,287.84 C 330.28,287.79 330.21,287.73 330.16,287.66 C 330.10,287.58 330.05,287.49 330.02,287.39 C 329.98,287.29 329.95,287.17 329.92,287.05 C 329.90,286.92 329.88,286.78 329.88,286.62 C 329.87,286.47 329.87,286.30 329.88,286.12 C 329.88,285.95 329.90,285.75 329.92,285.55 C 329.95,285.34 329.98,285.12 330.02,284.89 C 330.05,284.66 330.10,284.41 330.16,284.16 C 330.21,283.90 330.39,283.59 330.34,283.34 C 330.29,283.10 330.13,282.87 329.85,282.66 C 329.57,282.46 329.18,282.28 328.68,282.12 C 328.18,281.96 327.56,281.82 326.83,281.70 C 326.10,281.59 325.25,281.49 324.30,281.42 C 323.34,281.35 322.27,281.30 321.09,281.27 C 319.90,281.25 318.61,281.24 317.20,281.26 C 315.79,281.27 314.26,281.31 312.62,281.38 C 310.99,281.44 309.02,281.54 307.38,281.62 C 305.73,281.71 304.18,281.80 302.74,281.88 C 301.30,281.97 299.96,282.06 298.73,282.15 C 297.49,282.24 296.36,282.33 295.33,282.42 C 294.30,282.51 293.37,282.61 292.55,282.70 C 291.72,282.80 291.00,282.89 290.38,282.99 C 289.76,283.09 289.25,283.19 288.84,283.29 C 288.42,283.39 288.11,283.49 287.91,283.59 C 287.70,283.70 287.69,283.80 287.59,283.91 C 287.50,284.01 287.41,284.13 287.34,284.24 C 287.26,284.36 287.19,284.48 287.13,284.60 C 287.07,284.73 287.02,284.85 286.98,284.98 C 286.94,285.12 286.91,285.25 286.89,285.39 C 286.87,285.53 286.86,285.67 286.85,285.82 C 286.85,285.97 286.85,286.12 286.87,286.27 C 286.88,286.43 286.90,286.59 286.94,286.75 C 286.97,286.91 287.02,287.09 287.06,287.25 C 287.11,287.41 287.15,287.56 287.20,287.71 C 287.24,287.86 287.29,288.00 287.34,288.13 C 287.38,288.27 287.43,288.39 287.48,288.52 C 287.54,288.64 287.59,288.75 287.64,288.86 C 287.69,288.97 287.75,289.07 287.80,289.16 C 287.86,289.26 287.92,289.35 287.98,289.43 C 288.04,289.51 288.10,289.59 288.16,289.66 C 288.22,289.73 288.26,289.79 288.34,289.84 C 288.42,289.90 288.52,289.96 288.63,290.01 C 288.75,290.06 288.88,290.11 289.02,290.15 C 289.17,290.19 289.33,290.23 289.52,290.27 C 289.70,290.30 289.89,290.33 290.11,290.36 C 290.32,290.39 290.56,290.41 290.80,290.43 C 291.05,290.45 291.32,290.46 291.60,290.48 C 291.88,290.49 292.18,290.50 292.50,290.50 C 292.82,290.50 293.18,290.49 293.50,290.50 C 293.82,290.51 294.13,290.54 294.43,290.57 C 294.73,290.61 295.01,290.65 295.29,290.71 C 295.56,290.77 295.83,290.84 296.08,290.92 C 296.33,291.00 296.57,291.10 296.80,291.20 C 297.02,291.31 297.24,291.43 297.45,291.55 C 297.65,291.68 297.84,291.82 298.02,291.98 C 298.20,292.13 298.37,292.29 298.53,292.47 C 298.69,292.64 298.87,292.85 298.97,293.03 C 299.07,293.21 299.11,293.38 299.11,293.53 C 299.11,293.69 299.05,293.83 298.95,293.97 C 298.85,294.10 298.70,294.23 298.50,294.34 C 298.30,294.46 298.05,294.56 297.75,294.66 C 297.45,294.75 297.10,294.83 296.70,294.91 C 296.30,294.98 295.86,295.04 295.36,295.09 C 294.86,295.15 294.32,295.19 293.72,295.22 C 293.12,295.25 292.40,295.29 291.78,295.28 C 291.16,295.28 290.58,295.24 290.02,295.19 C 289.46,295.13 288.92,295.05 288.42,294.94 C 287.92,294.83 287.45,294.69 287.00,294.53 C 286.55,294.37 286.14,294.18 285.75,293.97 C 285.36,293.76 285.00,293.52 284.67,293.25 C 284.34,292.98 284.04,292.69 283.77,292.38 C 283.49,292.06 283.25,291.71 283.03,291.34 C 282.82,290.97 282.64,290.54 282.47,290.16 C 282.30,289.77 282.15,289.41 282.02,289.05 C 281.89,288.70 281.79,288.36 281.70,288.04 C 281.61,287.71 281.54,287.40 281.48,287.11 C 281.43,286.81 281.40,286.53 281.39,286.27 C 281.38,286.00 281.39,285.75 281.41,285.51 C 281.44,285.27 281.49,285.05 281.55,284.84 C 281.62,284.63 281.71,284.43 281.81,284.25 C 281.92,284.07 282.08,283.91 282.19,283.75 C 282.29,283.59 282.37,283.44 282.43,283.29 C 282.49,283.14 282.52,283.00 282.54,282.87 C 282.55,282.73 282.55,282.61 282.52,282.48 C 282.49,282.36 282.43,282.25 282.36,282.14 C 282.29,282.03 282.19,281.93 282.07,281.84 C 281.95,281.74 281.81,281.65 281.65,281.57 C 281.49,281.49 281.30,281.41 281.09,281.34 C 280.89,281.27 280.69,281.21 280.41,281.16 C 280.12,281.10 279.79,281.05 279.40,281.01 C 279.01,280.96 278.57,280.93 278.07,280.90 C 277.57,280.87 277.02,280.85 276.42,280.83 C 275.82,280.81 275.16,280.80 274.45,280.80 C 273.74,280.79 272.98,280.80 272.16,280.80 C 271.35,280.81 270.48,280.83 269.55,280.85 C 268.63,280.87 267.65,280.90 266.62,280.94 C 265.60,280.97 264.41,281.01 263.38,281.06 C 262.34,281.11 261.36,281.18 260.44,281.25 C 259.51,281.32 258.64,281.41 257.81,281.50 C 256.99,281.59 256.22,281.70 255.50,281.81 C 254.78,281.93 254.11,282.05 253.50,282.19 C 252.89,282.32 252.32,282.47 251.81,282.62 C 251.30,282.78 250.84,282.95 250.44,283.12 C 250.03,283.30 249.68,283.49 249.38,283.69 C 249.07,283.89 248.89,284.12 248.62,284.31 C 248.36,284.51 248.07,284.69 247.77,284.86 C 247.46,285.03 247.14,285.18 246.80,285.33 C 246.46,285.47 246.10,285.60 245.72,285.72 C 245.34,285.84 244.95,285.94 244.53,286.03 C 244.12,286.12 243.68,286.20 243.23,286.27 C 242.78,286.33 242.32,286.38 241.83,286.42 C 241.34,286.46 240.84,286.49 240.31,286.50 C 239.79,286.51 239.20,286.51 238.69,286.50 C 238.17,286.49 237.68,286.48 237.22,286.47 C 236.76,286.45 236.32,286.43 235.91,286.41 C 235.49,286.38 235.11,286.35 234.75,286.31 C 234.39,286.28 234.06,286.23 233.75,286.19 C 233.44,286.14 233.16,286.09 232.91,286.03 C 232.65,285.97 232.42,285.91 232.22,285.84 C 232.02,285.78 231.84,285.70 231.69,285.62 C 231.54,285.55 231.51,285.45 231.31,285.38 C 231.12,285.30 230.86,285.22 230.53,285.16 C 230.20,285.09 229.81,285.03 229.34,284.97 C 228.88,284.91 228.35,284.86 227.75,284.81 C 227.15,284.77 226.48,284.72 225.75,284.69 C 225.02,284.65 224.21,284.62 223.34,284.59 C 222.47,284.57 221.54,284.55 220.53,284.53 C 219.53,284.52 218.45,284.51 217.31,284.50 C 216.17,284.49 214.82,284.50 213.69,284.50 C 212.55,284.50 211.49,284.51 210.49,284.52 C 209.50,284.54 208.58,284.55 207.73,284.57 C 206.88,284.59 206.10,284.61 205.39,284.64 C 204.68,284.67 204.05,284.70 203.48,284.73 C 202.92,284.77 202.43,284.81 202.01,284.85 C 201.59,284.89 201.24,284.94 200.96,284.99 C 200.68,285.04 200.48,285.10 200.34,285.16 C 200.21,285.21 200.21,285.26 200.16,285.34 C 200.11,285.42 200.07,285.52 200.04,285.63 C 200.01,285.75 200.00,285.88 199.99,286.02 C 199.99,286.17 200.00,286.33 200.02,286.52 C 200.04,286.70 200.07,286.89 200.11,287.11 C 200.15,287.32 200.21,287.56 200.27,287.80 C 200.34,288.05 200.42,288.32 200.51,288.60 C 200.60,288.88 200.70,289.18 200.81,289.50 C 200.93,289.82 201.07,290.18 201.19,290.50 C 201.30,290.82 201.40,291.13 201.49,291.43 C 201.58,291.73 201.66,292.01 201.73,292.29 C 201.79,292.56 201.85,292.83 201.89,293.08 C 201.93,293.33 201.96,293.57 201.98,293.80 C 202.00,294.02 202.01,294.24 202.01,294.45 C 202.00,294.65 201.99,294.84 201.96,295.02 C 201.93,295.20 201.89,295.37 201.84,295.53 C 201.79,295.69 201.73,295.83 201.66,295.97 C 201.58,296.11 201.50,296.23 201.41,296.35 C 201.32,296.47 201.23,296.58 201.12,296.68 C 201.01,296.78 200.89,296.87 200.77,296.95 C 200.64,297.04 200.50,297.11 200.36,297.17 C 200.21,297.24 200.06,297.29 199.90,297.34 C 199.74,297.38 199.56,297.42 199.38,297.45 C 199.20,297.47 199.01,297.49 198.81,297.50 Z" />
    </clipPath>
  </defs>
  <path d="M 198.81,297.50 C 198.61,297.51 198.39,297.51 198.19,297.50 C 197.98,297.49 197.78,297.48 197.59,297.46 C 197.39,297.44 197.20,297.42 197.01,297.38 C 196.82,297.35 196.63,297.31 196.45,297.27 C 196.27,297.22 196.10,297.17 195.92,297.11 C 195.75,297.05 195.58,296.99 195.41,296.91 C 195.25,296.84 195.09,296.76 194.93,296.68 C 194.77,296.60 194.62,296.50 194.47,296.41 C 194.32,296.31 194.17,296.20 194.03,296.09 C 193.89,295.98 193.77,295.87 193.65,295.74 C 193.53,295.62 193.42,295.49 193.32,295.35 C 193.22,295.21 193.13,295.07 193.05,294.92 C 192.96,294.77 192.89,294.62 192.83,294.45 C 192.76,294.29 192.71,294.12 192.66,293.95 C 192.62,293.77 192.58,293.59 192.55,293.40 C 192.53,293.21 192.51,293.01 192.50,292.81 C 192.49,292.61 192.51,292.40 192.50,292.19 C 192.49,291.98 192.47,291.76 192.45,291.54 C 192.42,291.32 192.38,291.10 192.34,290.87 C 192.29,290.64 192.24,290.41 192.17,290.17 C 192.11,289.94 192.04,289.70 191.95,289.45 C 191.87,289.21 191.78,288.96 191.68,288.71 C 191.58,288.46 191.47,288.20 191.35,287.95 C 191.23,287.69 191.11,287.42 190.97,287.16 C 190.83,286.89 190.77,286.61 190.53,286.34 C 190.29,286.08 189.96,285.83 189.54,285.59 C 189.12,285.34 188.60,285.11 187.99,284.88 C 187.38,284.66 186.68,284.44 185.89,284.23 C 185.10,284.03 184.21,283.83 183.23,283.64 C 182.26,283.45 181.19,283.27 180.02,283.10 C 178.86,282.93 177.61,282.77 176.26,282.62 C 174.91,282.46 173.47,282.32 171.94,282.19 C 170.40,282.05 168.61,281.95 167.06,281.81 C 165.51,281.68 164.04,281.54 162.63,281.38 C 161.23,281.23 159.90,281.07 158.65,280.90 C 157.39,280.73 156.21,280.55 155.11,280.36 C 154.00,280.17 152.97,279.97 152.02,279.77 C 151.06,279.56 150.18,279.34 149.37,279.12 C 148.56,278.89 147.82,278.66 147.16,278.41 C 146.50,278.17 145.92,277.92 145.41,277.66 C 144.89,277.39 144.50,277.11 144.09,276.84 C 143.69,276.58 143.31,276.33 142.97,276.08 C 142.62,275.83 142.31,275.59 142.03,275.36 C 141.75,275.13 141.50,274.90 141.28,274.69 C 141.06,274.47 140.88,274.26 140.72,274.06 C 140.56,273.86 140.44,273.67 140.34,273.48 C 140.25,273.30 140.19,273.12 140.16,272.95 C 140.12,272.78 140.12,272.62 140.16,272.47 C 140.19,272.32 140.28,272.17 140.34,272.03 C 140.41,271.89 140.48,271.76 140.56,271.64 C 140.64,271.52 140.72,271.40 140.81,271.30 C 140.90,271.19 140.99,271.09 141.09,271.00 C 141.19,270.91 141.30,270.83 141.41,270.75 C 141.52,270.67 141.63,270.61 141.75,270.55 C 141.87,270.49 141.99,270.43 142.12,270.39 C 142.26,270.35 142.39,270.31 142.53,270.28 C 142.67,270.25 142.84,270.25 142.97,270.22 C 143.10,270.19 143.22,270.14 143.32,270.09 C 143.42,270.03 143.51,269.96 143.59,269.88 C 143.66,269.80 143.72,269.71 143.77,269.61 C 143.81,269.51 143.84,269.39 143.86,269.27 C 143.88,269.14 143.88,269.00 143.87,268.85 C 143.86,268.70 143.83,268.54 143.79,268.37 C 143.75,268.19 143.69,268.01 143.62,267.81 C 143.56,267.62 143.45,267.41 143.38,267.19 C 143.30,266.97 143.22,266.74 143.16,266.50 C 143.09,266.26 143.03,266.01 142.97,265.75 C 142.91,265.49 142.86,265.22 142.81,264.94 C 142.77,264.66 142.72,264.36 142.69,264.06 C 142.65,263.76 142.62,263.45 142.59,263.12 C 142.57,262.80 142.55,262.47 142.53,262.12 C 142.52,261.78 142.51,261.43 142.50,261.06 C 142.49,260.70 142.49,260.30 142.50,259.94 C 142.51,259.57 142.52,259.22 142.53,258.88 C 142.55,258.53 142.57,258.20 142.59,257.88 C 142.62,257.55 142.65,257.24 142.69,256.94 C 142.72,256.64 142.77,256.34 142.81,256.06 C 142.86,255.78 142.91,255.51 142.97,255.25 C 143.03,254.99 143.09,254.74 143.16,254.50 C 143.22,254.26 143.30,254.03 143.38,253.81 C 143.45,253.59 143.56,253.38 143.62,253.19 C 143.69,252.99 143.75,252.81 143.79,252.63 C 143.83,252.46 143.86,252.30 143.87,252.15 C 143.88,252.00 143.88,251.86 143.86,251.73 C 143.84,251.61 143.81,251.49 143.77,251.39 C 143.72,251.29 143.66,251.20 143.59,251.12 C 143.51,251.04 143.42,250.97 143.32,250.91 C 143.22,250.86 143.10,250.81 142.97,250.78 C 142.84,250.75 142.67,250.75 142.53,250.72 C 142.39,250.69 142.26,250.65 142.12,250.61 C 141.99,250.57 141.87,250.51 141.75,250.45 C 141.63,250.39 141.52,250.33 141.41,250.25 C 141.30,250.17 141.19,250.09 141.09,250.00 C 140.99,249.91 140.90,249.81 140.81,249.70 C 140.72,249.60 140.64,249.48 140.56,249.36 C 140.48,249.24 140.41,249.11 140.34,248.97 C 140.28,248.83 140.19,248.68 140.16,248.53 C 140.12,248.38 140.11,248.22 140.12,248.06 C 140.14,247.90 140.18,247.73 140.25,247.56 C 140.32,247.39 140.41,247.21 140.53,247.03 C 140.65,246.85 140.80,246.66 140.97,246.47 C 141.14,246.28 141.34,246.08 141.56,245.88 C 141.79,245.67 142.04,245.46 142.31,245.25 C 142.59,245.04 142.89,244.82 143.22,244.59 C 143.55,244.37 143.84,244.13 144.28,243.91 C 144.72,243.68 145.25,243.45 145.87,243.23 C 146.48,243.00 147.19,242.78 147.98,242.55 C 148.77,242.33 149.64,242.11 150.61,241.89 C 151.57,241.67 152.63,241.45 153.77,241.23 C 154.90,241.02 156.13,240.80 157.45,240.59 C 158.76,240.37 160.16,240.16 161.65,239.95 C 163.14,239.73 164.71,239.52 166.38,239.31 C 168.04,239.10 169.98,238.91 171.62,238.69 C 173.27,238.46 174.82,238.23 176.26,237.98 C 177.70,237.73 179.04,237.46 180.27,237.18 C 181.51,236.90 182.64,236.61 183.67,236.30 C 184.70,235.99 185.63,235.67 186.45,235.33 C 187.28,234.99 188.00,234.64 188.62,234.27 C 189.24,233.91 189.75,233.53 190.16,233.13 C 190.58,232.74 190.89,232.33 191.09,231.91 C 191.30,231.48 191.30,231.01 191.41,230.59 C 191.51,230.18 191.62,229.78 191.73,229.41 C 191.85,229.03 191.96,228.68 192.08,228.34 C 192.20,228.01 192.32,227.70 192.44,227.41 C 192.56,227.11 192.68,226.84 192.81,226.59 C 192.94,226.34 193.07,226.11 193.20,225.91 C 193.34,225.70 193.47,225.51 193.61,225.34 C 193.75,225.18 193.89,225.03 194.03,224.91 C 194.17,224.78 194.32,224.69 194.47,224.59 C 194.62,224.50 194.78,224.42 194.95,224.34 C 195.12,224.27 195.30,224.21 195.48,224.16 C 195.67,224.10 195.86,224.06 196.06,224.03 C 196.26,224.00 196.47,223.98 196.69,223.97 C 196.90,223.96 197.13,223.96 197.36,223.97 C 197.59,223.98 197.83,224.00 198.08,224.03 C 198.33,224.06 198.58,224.10 198.84,224.16 C 199.11,224.21 199.41,224.26 199.66,224.34 C 199.90,224.43 200.12,224.53 200.32,224.65 C 200.52,224.77 200.69,224.91 200.84,225.07 C 200.98,225.23 201.11,225.41 201.20,225.61 C 201.30,225.81 201.37,226.03 201.42,226.27 C 201.47,226.50 201.49,226.76 201.49,227.04 C 201.49,227.32 201.46,227.61 201.41,227.93 C 201.36,228.25 201.29,228.58 201.19,228.94 C 201.09,229.29 200.93,229.70 200.81,230.06 C 200.70,230.42 200.60,230.76 200.51,231.09 C 200.42,231.41 200.34,231.72 200.27,232.01 C 200.21,232.30 200.15,232.57 200.11,232.83 C 200.07,233.08 200.04,233.32 200.02,233.55 C 200.00,233.77 199.99,233.98 199.99,234.16 C 200.00,234.35 200.01,234.52 200.04,234.68 C 200.07,234.83 200.11,234.97 200.16,235.09 C 200.21,235.21 200.21,235.31 200.34,235.41 C 200.48,235.50 200.68,235.60 200.96,235.68 C 201.24,235.76 201.59,235.84 202.01,235.91 C 202.43,235.99 202.92,236.05 203.48,236.11 C 204.05,236.17 204.68,236.22 205.39,236.27 C 206.10,236.31 206.88,236.35 207.73,236.38 C 208.58,236.42 209.50,236.44 210.49,236.46 C 211.49,236.48 212.55,236.49 213.69,236.50 C 214.82,236.51 216.17,236.51 217.31,236.50 C 218.45,236.49 219.53,236.48 220.53,236.47 C 221.54,236.45 222.47,236.43 223.34,236.41 C 224.21,236.38 225.02,236.35 225.75,236.31 C 226.48,236.28 227.15,236.23 227.75,236.19 C 228.35,236.14 228.88,236.09 229.34,236.03 C 229.81,235.97 230.20,235.91 230.53,235.84 C 230.86,235.78 231.12,235.70 231.31,235.62 C 231.51,235.55 231.54,235.45 231.69,235.38 C 231.84,235.30 232.02,235.22 232.22,235.16 C 232.42,235.09 232.65,235.03 232.91,234.97 C 233.16,234.91 233.44,234.86 233.75,234.81 C 234.06,234.77 234.39,234.72 234.75,234.69 C 235.11,234.65 235.49,234.62 235.91,234.59 C 236.32,234.57 236.76,234.55 237.22,234.53 C 237.68,234.52 238.17,234.51 238.69,234.50 C 239.20,234.49 239.79,234.49 240.31,234.50 C 240.84,234.51 241.34,234.54 241.83,234.58 C 242.32,234.62 242.78,234.67 243.23,234.73 C 243.68,234.80 244.12,234.88 244.53,234.97 C 244.95,235.06 245.34,235.16 245.72,235.28 C 246.10,235.40 246.46,235.53 246.80,235.67 C 247.14,235.82 247.46,235.97 247.77,236.14 C 248.07,236.31 248.36,236.49 248.62,236.69 C 248.89,236.88 249.07,237.11 249.38,237.31 C 249.68,237.51 250.03,237.70 250.44,237.88 C 250.84,238.05 251.30,238.22 251.81,238.38 C 252.32,238.53 252.89,238.68 253.50,238.81 C 254.11,238.95 254.78,239.07 255.50,239.19 C 256.22,239.30 256.99,239.41 257.81,239.50 C 258.64,239.59 259.51,239.68 260.44,239.75 C 261.36,239.82 262.34,239.89 263.38,239.94 C 264.41,239.99 265.59,240.03 266.62,240.06 C 267.66,240.10 268.64,240.13 269.57,240.15 C 270.50,240.17 271.38,240.19 272.21,240.20 C 273.04,240.20 273.82,240.21 274.55,240.20 C 275.27,240.20 275.95,240.19 276.58,240.17 C 277.20,240.15 277.78,240.13 278.30,240.10 C 278.83,240.07 279.30,240.04 279.73,239.99 C 280.15,239.95 280.52,239.90 280.84,239.84 C 281.17,239.79 281.41,239.73 281.66,239.66 C 281.90,239.59 282.12,239.51 282.30,239.43 C 282.49,239.35 282.65,239.26 282.79,239.16 C 282.92,239.07 283.03,238.97 283.11,238.86 C 283.19,238.75 283.24,238.64 283.27,238.52 C 283.29,238.39 283.29,238.27 283.26,238.13 C 283.23,238.00 283.17,237.86 283.09,237.71 C 283.00,237.56 282.89,237.41 282.75,237.25 C 282.61,237.09 282.39,236.93 282.25,236.75 C 282.11,236.57 281.98,236.37 281.88,236.16 C 281.78,235.95 281.70,235.73 281.65,235.49 C 281.59,235.25 281.56,235.00 281.55,234.73 C 281.54,234.47 281.55,234.19 281.58,233.89 C 281.61,233.60 281.67,233.29 281.74,232.96 C 281.82,232.64 281.92,232.30 282.04,231.95 C 282.16,231.59 282.30,231.23 282.47,230.84 C 282.63,230.46 282.82,230.03 283.03,229.66 C 283.25,229.29 283.49,228.94 283.76,228.62 C 284.03,228.30 284.32,228.00 284.65,227.73 C 284.97,227.45 285.32,227.21 285.70,226.98 C 286.08,226.76 286.49,226.56 286.92,226.39 C 287.36,226.22 287.82,226.07 288.30,225.95 C 288.79,225.82 289.31,225.72 289.85,225.65 C 290.39,225.57 290.96,225.52 291.56,225.50 C 292.16,225.48 292.86,225.49 293.44,225.50 C 294.02,225.51 294.55,225.54 295.03,225.58 C 295.52,225.62 295.95,225.67 296.34,225.73 C 296.73,225.80 297.08,225.88 297.38,225.97 C 297.67,226.06 297.92,226.16 298.12,226.28 C 298.33,226.40 298.48,226.53 298.59,226.67 C 298.70,226.82 298.77,226.97 298.78,227.14 C 298.80,227.31 298.77,227.49 298.69,227.69 C 298.61,227.88 298.45,228.12 298.31,228.31 C 298.17,228.51 298.02,228.69 297.86,228.86 C 297.70,229.03 297.52,229.18 297.33,229.33 C 297.14,229.47 296.93,229.60 296.72,229.72 C 296.50,229.84 296.27,229.94 296.03,230.03 C 295.79,230.12 295.53,230.20 295.27,230.27 C 295.00,230.33 294.72,230.38 294.42,230.42 C 294.13,230.46 293.82,230.49 293.50,230.50 C 293.18,230.51 292.82,230.49 292.50,230.50 C 292.18,230.51 291.88,230.54 291.59,230.59 C 291.30,230.63 291.02,230.69 290.76,230.76 C 290.50,230.83 290.25,230.92 290.02,231.02 C 289.78,231.12 289.56,231.23 289.36,231.36 C 289.15,231.49 288.96,231.63 288.79,231.79 C 288.61,231.95 288.45,232.12 288.30,232.30 C 288.16,232.49 288.02,232.69 287.91,232.91 C 287.79,233.12 287.68,233.37 287.59,233.59 C 287.50,233.82 287.42,234.03 287.36,234.23 C 287.29,234.44 287.24,234.64 287.20,234.83 C 287.16,235.02 287.14,235.20 287.12,235.38 C 287.11,235.55 287.11,235.72 287.12,235.88 C 287.14,236.03 287.16,236.18 287.20,236.33 C 287.24,236.47 287.29,236.61 287.36,236.73 C 287.42,236.86 287.50,236.98 287.59,237.09 C 287.68,237.21 287.75,237.31 287.91,237.41 C 288.06,237.50 288.27,237.60 288.54,237.68 C 288.80,237.76 289.12,237.84 289.49,237.91 C 289.86,237.99 290.29,238.05 290.77,238.11 C 291.24,238.17 291.77,238.22 292.36,238.27 C 292.94,238.31 293.58,238.35 294.27,238.38 C 294.96,238.42 295.71,238.44 296.51,238.46 C 297.31,238.48 298.16,238.49 299.06,238.50 C 299.97,238.51 300.99,238.49 301.94,238.50 C 302.88,238.51 303.82,238.52 304.73,238.53 C 305.65,238.55 306.56,238.57 307.45,238.59 C 308.35,238.62 309.23,238.65 310.09,238.69 C 310.96,238.72 311.82,238.77 312.66,238.81 C 313.50,238.86 314.33,238.91 315.14,238.97 C 315.96,239.03 316.76,239.09 317.55,239.16 C 318.34,239.22 319.11,239.30 319.88,239.38 C 320.64,239.45 321.42,239.55 322.12,239.62 C 322.83,239.70 323.49,239.76 324.10,239.82 C 324.71,239.88 325.28,239.92 325.80,239.96 C 326.33,240.00 326.80,240.03 327.23,240.05 C 327.67,240.07 328.05,240.08 328.39,240.08 C 328.73,240.08 329.02,240.07 329.27,240.05 C 329.52,240.04 329.73,240.01 329.88,239.98 C 330.04,239.94 330.15,239.90 330.22,239.84 C 330.29,239.79 330.27,239.72 330.28,239.66 C 330.30,239.60 330.30,239.54 330.30,239.48 C 330.31,239.42 330.30,239.36 330.29,239.30 C 330.28,239.25 330.26,239.19 330.23,239.14 C 330.21,239.09 330.18,239.04 330.14,238.98 C 330.10,238.93 330.06,238.88 330.01,238.84 C 329.96,238.79 329.90,238.74 329.84,238.70 C 329.77,238.65 329.70,238.61 329.62,238.56 C 329.55,238.52 329.45,238.48 329.38,238.44 C 329.30,238.39 329.23,238.34 329.17,238.28 C 329.11,238.22 329.06,238.16 329.02,238.09 C 328.97,238.03 328.93,237.95 328.91,237.88 C 328.88,237.80 328.86,237.71 328.84,237.62 C 328.83,237.54 328.83,237.44 328.83,237.34 C 328.83,237.24 328.84,237.14 328.86,237.03 C 328.88,236.92 328.90,236.81 328.94,236.69 C 328.97,236.57 329.01,236.43 329.06,236.31 C 329.11,236.19 329.17,236.07 329.23,235.96 C 329.29,235.85 329.36,235.74 329.43,235.63 C 329.50,235.53 329.58,235.43 329.67,235.33 C 329.76,235.23 329.85,235.14 329.95,235.05 C 330.05,234.96 330.16,234.87 330.27,234.79 C 330.39,234.71 330.51,234.63 330.63,234.55 C 330.76,234.48 330.89,234.41 331.03,234.34 C 331.17,234.28 331.33,234.21 331.47,234.16 C 331.61,234.10 331.74,234.05 331.88,234.02 C 332.01,233.98 332.13,233.95 332.25,233.92 C 332.37,233.90 332.48,233.88 332.59,233.88 C 332.70,233.87 332.81,233.87 332.91,233.88 C 333.01,233.88 333.10,233.90 333.19,233.92 C 333.28,233.95 333.36,233.98 333.44,234.02 C 333.52,234.05 333.59,234.10 333.66,234.16 C 333.72,234.21 333.79,234.27 333.84,234.34 C 333.90,234.42 333.95,234.51 334.00,234.61 C 334.05,234.71 334.09,234.83 334.12,234.95 C 334.16,235.08 334.19,235.22 334.22,235.38 C 334.24,235.53 334.27,235.70 334.28,235.88 C 334.30,236.05 334.31,236.25 334.31,236.45 C 334.32,236.66 334.32,236.88 334.31,237.11 C 334.31,237.34 334.30,237.59 334.28,237.84 C 334.27,238.10 334.18,238.39 334.22,238.66 C 334.26,238.92 334.37,239.19 334.54,239.45 C 334.71,239.70 334.94,239.96 335.24,240.21 C 335.54,240.46 335.90,240.71 336.33,240.95 C 336.75,241.20 337.24,241.44 337.80,241.67 C 338.35,241.91 338.97,242.14 339.65,242.37 C 340.33,242.60 341.07,242.82 341.88,243.04 C 342.69,243.26 343.56,243.48 344.50,243.69 C 345.44,243.90 346.54,244.10 347.50,244.31 C 348.46,244.52 349.37,244.73 350.24,244.95 C 351.11,245.16 351.94,245.37 352.73,245.59 C 353.51,245.80 354.25,246.02 354.95,246.23 C 355.65,246.45 356.31,246.67 356.92,246.89 C 357.54,247.11 358.11,247.33 358.63,247.55 C 359.16,247.78 359.64,248.00 360.09,248.23 C 360.53,248.45 360.93,248.68 361.28,248.91 C 361.64,249.13 361.93,249.37 362.22,249.59 C 362.50,249.82 362.76,250.04 362.98,250.27 C 363.21,250.49 363.41,250.71 363.58,250.92 C 363.75,251.14 363.89,251.35 364.00,251.56 C 364.11,251.77 364.20,251.98 364.25,252.19 C 364.30,252.39 364.33,252.60 364.33,252.80 C 364.33,253.00 364.29,253.20 364.23,253.39 C 364.17,253.59 364.09,253.78 363.97,253.97 C 363.85,254.16 363.65,254.36 363.53,254.53 C 363.41,254.71 363.32,254.87 363.26,255.02 C 363.19,255.18 363.16,255.32 363.15,255.45 C 363.14,255.57 363.16,255.69 363.20,255.80 C 363.25,255.90 363.32,256.00 363.42,256.08 C 363.52,256.16 363.65,256.23 363.80,256.29 C 363.96,256.35 364.14,256.39 364.35,256.43 C 364.56,256.46 364.80,256.49 365.06,256.50 C 365.33,256.51 365.66,256.50 365.94,256.50 C 366.21,256.50 366.48,256.51 366.73,256.52 C 366.98,256.54 367.21,256.55 367.43,256.57 C 367.65,256.59 367.86,256.61 368.05,256.64 C 368.24,256.67 368.42,256.70 368.58,256.73 C 368.74,256.77 368.89,256.81 369.02,256.85 C 369.16,256.89 369.28,256.94 369.38,256.99 C 369.49,257.04 369.58,257.10 369.66,257.16 C 369.73,257.21 369.80,257.28 369.84,257.34 C 369.89,257.41 369.93,257.47 369.95,257.54 C 369.96,257.61 369.97,257.67 369.96,257.74 C 369.95,257.81 369.93,257.88 369.89,257.95 C 369.85,258.02 369.80,258.10 369.73,258.17 C 369.67,258.25 369.59,258.32 369.49,258.40 C 369.40,258.48 369.29,258.55 369.16,258.63 C 369.04,258.71 368.90,258.79 368.75,258.88 C 368.60,258.96 368.40,259.04 368.25,259.12 C 368.10,259.21 367.98,259.30 367.88,259.39 C 367.77,259.48 367.69,259.58 367.62,259.67 C 367.56,259.77 367.52,259.87 367.50,259.97 C 367.48,260.07 367.48,260.17 367.50,260.28 C 367.52,260.39 367.56,260.50 367.62,260.61 C 367.69,260.72 367.77,260.84 367.88,260.95 C 367.98,261.07 368.10,261.19 368.25,261.31 C 368.40,261.43 368.60,261.57 368.75,261.69 C 368.90,261.81 369.04,261.93 369.16,262.04 C 369.29,262.15 369.40,262.26 369.49,262.37 C 369.59,262.47 369.67,262.57 369.73,262.67 C 369.80,262.77 369.85,262.86 369.89,262.95 C 369.93,263.04 369.95,263.13 369.96,263.21 C 369.97,263.29 369.96,263.37 369.95,263.45 C 369.93,263.52 369.89,263.59 369.84,263.66 C 369.80,263.72 369.73,263.78 369.66,263.84 C 369.58,263.90 369.49,263.96 369.39,264.02 C 369.29,264.07 369.17,264.12 369.05,264.17 C 368.92,264.22 368.78,264.27 368.62,264.31 C 368.47,264.36 368.30,264.40 368.12,264.44 C 367.95,264.48 367.75,264.51 367.55,264.55 C 367.34,264.58 367.12,264.61 366.89,264.64 C 366.66,264.67 366.41,264.70 366.16,264.72 C 365.90,264.74 365.59,264.75 365.34,264.78 C 365.10,264.81 364.88,264.85 364.68,264.90 C 364.48,264.95 364.31,265.00 364.16,265.07 C 364.02,265.14 363.89,265.21 363.80,265.30 C 363.70,265.38 363.63,265.48 363.58,265.58 C 363.53,265.68 363.51,265.79 363.51,265.91 C 363.51,266.04 363.54,266.17 363.59,266.30 C 363.64,266.44 363.71,266.59 363.81,266.75 C 363.91,266.91 364.08,267.08 364.19,267.25 C 364.30,267.42 364.39,267.58 364.46,267.74 C 364.54,267.90 364.59,268.07 364.63,268.23 C 364.67,268.39 364.70,268.55 364.70,268.70 C 364.71,268.86 364.70,269.02 364.67,269.17 C 364.64,269.33 364.60,269.48 364.54,269.63 C 364.48,269.79 364.40,269.94 364.30,270.09 C 364.21,270.24 364.10,270.38 363.97,270.53 C 363.84,270.68 363.74,270.81 363.53,270.97 C 363.32,271.12 363.04,271.29 362.70,271.46 C 362.35,271.63 361.94,271.82 361.46,272.01 C 360.98,272.20 360.44,272.40 359.83,272.61 C 359.22,272.82 358.54,273.04 357.80,273.27 C 357.05,273.49 356.24,273.73 355.37,273.98 C 354.49,274.22 353.55,274.48 352.54,274.74 C 351.53,275.01 350.45,275.28 349.31,275.56 C 348.17,275.85 346.82,276.14 345.69,276.44 C 344.56,276.73 343.51,277.03 342.53,277.33 C 341.56,277.63 340.66,277.93 339.84,278.23 C 339.03,278.54 338.29,278.85 337.62,279.16 C 336.96,279.47 336.38,279.78 335.88,280.09 C 335.37,280.41 334.94,280.73 334.59,281.05 C 334.24,281.37 333.97,281.69 333.78,282.02 C 333.59,282.34 333.47,282.67 333.44,283.00 C 333.40,283.33 333.53,283.68 333.56,284.00 C 333.59,284.32 333.61,284.61 333.62,284.89 C 333.64,285.17 333.64,285.43 333.62,285.67 C 333.61,285.91 333.59,286.14 333.56,286.34 C 333.53,286.55 333.49,286.74 333.44,286.91 C 333.39,287.08 333.32,287.23 333.25,287.36 C 333.18,287.49 333.09,287.61 333.00,287.70 C 332.91,287.80 332.80,287.88 332.69,287.94 C 332.57,288.00 332.43,288.03 332.31,288.06 C 332.19,288.10 332.07,288.13 331.96,288.15 C 331.85,288.17 331.74,288.19 331.63,288.20 C 331.53,288.20 331.43,288.21 331.33,288.20 C 331.23,288.20 331.14,288.19 331.05,288.17 C 330.96,288.15 330.87,288.13 330.79,288.10 C 330.71,288.07 330.63,288.04 330.55,287.99 C 330.48,287.95 330.41,287.90 330.34,287.84 C 330.28,287.79 330.21,287.73 330.16,287.66 C 330.10,287.58 330.05,287.49 330.02,287.39 C 329.98,287.29 329.95,287.17 329.92,287.05 C 329.90,286.92 329.88,286.78 329.88,286.62 C 329.87,286.47 329.87,286.30 329.88,286.12 C 329.88,285.95 329.90,285.75 329.92,285.55 C 329.95,285.34 329.98,285.12 330.02,284.89 C 330.05,284.66 330.10,284.41 330.16,284.16 C 330.21,283.90 330.39,283.59 330.34,283.34 C 330.29,283.10 330.13,282.87 329.85,282.66 C 329.57,282.46 329.18,282.28 328.68,282.12 C 328.18,281.96 327.56,281.82 326.83,281.70 C 326.10,281.59 325.25,281.49 324.30,281.42 C 323.34,281.35 322.27,281.30 321.09,281.27 C 319.90,281.25 318.61,281.24 317.20,281.26 C 315.79,281.27 314.26,281.31 312.62,281.38 C 310.99,281.44 309.02,281.54 307.38,281.62 C 305.73,281.71 304.18,281.80 302.74,281.88 C 301.30,281.97 299.96,282.06 298.73,282.15 C 297.49,282.24 296.36,282.33 295.33,282.42 C 294.30,282.51 293.37,282.61 292.55,282.70 C 291.72,282.80 291.00,282.89 290.38,282.99 C 289.76,283.09 289.25,283.19 288.84,283.29 C 288.42,283.39 288.11,283.49 287.91,283.59 C 287.70,283.70 287.69,283.80 287.59,283.91 C 287.50,284.01 287.41,284.13 287.34,284.24 C 287.26,284.36 287.19,284.48 287.13,284.60 C 287.07,284.73 287.02,284.85 286.98,284.98 C 286.94,285.12 286.91,285.25 286.89,285.39 C 286.87,285.53 286.86,285.67 286.85,285.82 C 286.85,285.97 286.85,286.12 286.87,286.27 C 286.88,286.43 286.90,286.59 286.94,286.75 C 286.97,286.91 287.02,287.09 287.06,287.25 C 287.11,287.41 287.15,287.56 287.20,287.71 C 287.24,287.86 287.29,288.00 287.34,288.13 C 287.38,288.27 287.43,288.39 287.48,288.52 C 287.54,288.64 287.59,288.75 287.64,288.86 C 287.69,288.97 287.75,289.07 287.80,289.16 C 287.86,289.26 287.92,289.35 287.98,289.43 C 288.04,289.51 288.10,289.59 288.16,289.66 C 288.22,289.73 288.26,289.79 288.34,289.84 C 288.42,289.90 288.52,289.96 288.63,290.01 C 288.75,290.06 288.88,290.11 289.02,290.15 C 289.17,290.19 289.33,290.23 289.52,290.27 C 289.70,290.30 289.89,290.33 290.11,290.36 C 290.32,290.39 290.56,290.41 290.80,290.43 C 291.05,290.45 291.32,290.46 291.60,290.48 C 291.88,290.49 292.18,290.50 292.50,290.50 C 292.82,290.50 293.18,290.49 293.50,290.50 C 293.82,290.51 294.13,290.54 294.43,290.57 C 294.73,290.61 295.01,290.65 295.29,290.71 C 295.56,290.77 295.83,290.84 296.08,290.92 C 296.33,291.00 296.57,291.10 296.80,291.20 C 297.02,291.31 297.24,291.43 297.45,291.55 C 297.65,291.68 297.84,291.82 298.02,291.98 C 298.20,292.13 298.37,292.29 298.53,292.47 C 298.69,292.64 298.87,292.85 298.97,293.03 C 299.07,293.21 299.11,293.38 299.11,293.53 C 299.11,293.69 299.05,293.83 298.95,293.97 C 298.85,294.10 298.70,294.23 298.50,294.34 C 298.30,294.46 298.05,294.56 297.75,294.66 C 297.45,294.75 297.10,294.83 296.70,294.91 C 296.30,294.98 295.86,295.04 295.36,295.09 C 294.86,295.15 294.32,295.19 293.72,295.22 C 293.12,295.25 292.40,295.29 291.78,295.28 C 291.16,295.28 290.58,295.24 290.02,295.19 C 289.46,295.13 288.92,295.05 288.42,294.94 C 287.92,294.83 287.45,294.69 287.00,294.53 C 286.55,294.37 286.14,294.18 285.75,293.97 C 285.36,293.76 285.00,293.52 284.67,293.25 C 284.34,292.98 284.04,292.69 283.77,292.38 C 283.49,292.06 283.25,291.71 283.03,291.34 C 282.82,290.97 282.64,290.54 282.47,290.16 C 282.30,289.77 282.15,289.41 282.02,289.05 C 281.89,288.70 281.79,288.36 281.70,288.04 C 281.61,287.71 281.54,287.40 281.48,287.11 C 281.43,286.81 281.40,286.53 281.39,286.27 C 281.38,286.00 281.39,285.75 281.41,285.51 C 281.44,285.27 281.49,285.05 281.55,284.84 C 281.62,284.63 281.71,284.43 281.81,284.25 C 281.92,284.07 282.08,283.91 282.19,283.75 C 282.29,283.59 282.37,283.44 282.43,283.29 C 282.49,283.14 282.52,283.00 282.54,282.87 C 282.55,282.73 282.55,282.61 282.52,282.48 C 282.49,282.36 282.43,282.25 282.36,282.14 C 282.29,282.03 282.19,281.93 282.07,281.84 C 281.95,281.74 281.81,281.65 281.65,281.57 C 281.49,281.49 281.30,281.41 281.09,281.34 C 280.89,281.27 280.69,281.21 280.41,281.16 C 280.12,281.10 279.79,281.05 279.40,281.01 C 279.01,280.96 278.57,280.93 278.07,280.90 C 277.57,280.87 277.02,280.85 276.42,280.83 C 275.82,280.81 275.16,280.80 274.45,280.80 C 273.74,280.79 272.98,280.80 272.16,280.80 C 271.35,280.81 270.48,280.83 269.55,280.85 C 268.63,280.87 267.65,280.90 266.62,280.94 C 265.60,280.97 264.41,281.01 263.38,281.06 C 262.34,281.11 261.36,281.18 260.44,281.25 C 259.51,281.32 258.64,281.41 257.81,281.50 C 256.99,281.59 256.22,281.70 255.50,281.81 C 254.78,281.93 254.11,282.05 253.50,282.19 C 252.89,282.32 252.32,282.47 251.81,282.62 C 251.30,282.78 250.84,282.95 250.44,283.12 C 250.03,283.30 249.68,283.49 249.38,283.69 C 249.07,283.89 248.89,284.12 248.62,284.31 C 248.36,284.51 248.07,284.69 247.77,284.86 C 247.46,285.03 247.14,285.18 246.80,285.33 C 246.46,285.47 246.10,285.60 245.72,285.72 C 245.34,285.84 244.95,285.94 244.53,286.03 C 244.12,286.12 243.68,286.20 243.23,286.27 C 242.78,286.33 242.32,286.38 241.83,286.42 C 241.34,286.46 240.84,286.49 240.31,286.50 C 239.79,286.51 239.20,286.51 238.69,286.50 C 238.17,286.49 237.68,286.48 237.22,286.47 C 236.76,286.45 236.32,286.43 235.91,286.41 C 235.49,286.38 235.11,286.35 234.75,286.31 C 234.39,286.28 234.06,286.23 233.75,286.19 C 233.44,286.14 233.16,286.09 232.91,286.03 C 232.65,285.97 232.42,285.91 232.22,285.84 C 232.02,285.78 231.84,285.70 231.69,285.62 C 231.54,285.55 231.51,285.45 231.31,285.38 C 231.12,285.30 230.86,285.22 230.53,285.16 C 230.20,285.09 229.81,285.03 229.34,284.97 C 228.88,284.91 228.35,284.86 227.75,284.81 C 227.15,284.77 226.48,284.72 225.75,284.69 C 225.02,284.65 224.21,284.62 223.34,284.59 C 222.47,284.57 221.54,284.55 220.53,284.53 C 219.53,284.52 218.45,284.51 217.31,284.50 C 216.17,284.49 214.82,284.50 213.69,284.50 C 212.55,284.50 211.49,284.51 210.49,284.52 C 209.50,284.54 208.58,284.55 207.73,284.57 C 206.88,284.59 206.10,284.61 205.39,284.64 C 204.68,284.67 204.05,284.70 203.48,284.73 C 202.92,284.77 202.43,284.81 202.01,284.85 C 201.59,284.89 201.24,284.94 200.96,284.99 C 200.68,285.04 200.48,285.10 200.34,285.16 C 200.21,285.21 200.21,285.26 200.16,285.34 C 200.11,285.42 200.07,285.52 200.04,285.63 C 200.01,285.75 200.00,285.88 199.99,286.02 C 199.99,286.17 200.00,286.33 200.02,286.52 C 200.04,286.70 200.07,286.89 200.11,287.11 C 200.15,287.32 200.21,287.56 200.27,287.80 C 200.34,288.05 200.42,288.32 200.51,288.60 C 200.60,288.88 200.70,289.18 200.81,289.50 C 200.93,289.82 201.07,290.18 201.19,290.50 C 201.30,290.82 201.40,291.13 201.49,291.43 C 201.58,291.73 201.66,292.01 201.73,292.29 C 201.79,292.56 201.85,292.83 201.89,293.08 C 201.93,293.33 201.96,293.57 201.98,293.80 C 202.00,294.02 202.01,294.24 202.01,294.45 C 202.00,294.65 201.99,294.84 201.96,295.02 C 201.93,295.20 201.89,295.37 201.84,295.53 C 201.79,295.69 201.73,295.83 201.66,295.97 C 201.58,296.11 201.50,296.23 201.41,296.35 C 201.32,296.47 201.23,296.58 201.12,296.68 C 201.01,296.78 200.89,296.87 200.77,296.95 C 200.64,297.04 200.50,297.11 200.36,297.17 C 200.21,297.24 200.06,297.29 199.90,297.34 C 199.74,297.38 199.56,297.42 199.38,297.45 C 199.20,297.47 199.01,297.49 198.81,297.50 Z" stroke="none" fill="currentColor" opacity="0.11" />
  <path d="M238.33,276.24L230.80,276.30 M230.80,276.33L238.33,276.24 M238.33,274.49L230.80,274.49 M238.33,274.52L230.80,274.52 M238.33,275.07L230.80,275.07 M238.33,278.03L230.80,277.97 M230.80,277.94L238.33,278.03 M238.33,279.78L230.80,279.78 M238.33,279.75L230.80,279.75 M238.33,279.20L230.80,279.20 M245.80,252.05L252.67,251.04 M295.56,250.66L267.04,248.99 M267.15,250.58L255.17,247.41 M254.54,249.56L246.05,248.54 M226.54,250.81L226.35,260.99 M245.80,269.92L252.67,270.93 M295.56,271.32L267.04,272.99 M267.15,271.39L255.17,274.57 M254.54,272.41L246.05,273.44 M226.35,260.99L226.54,271.17 M264.21,252.48L263.70,260.99 M264.21,269.50L263.70,260.99 M274.20,242.11L281.86,241.46 M281.86,241.46L293.34,240.45 M282.25,241.29L289.31,240.78 M282.25,280.69L289.31,281.20 M293.18,282.79L274.12,281.35 M193.87,293.48L191.11,285.15 M197.80,295.61L194.77,285.62 M199.13,285.96L202.57,296.08 M193.87,228.52L191.11,236.86 M197.80,226.40L194.77,236.39 M199.13,236.05L202.57,225.93 M197.63,258.03L197.63,263.90 M303.61,260.14L311.30,260.29 M311.30,260.29L303.70,260.29 M303.70,260.29L311.30,260.28 M303.70,260.17L311.30,260.29 M311.36,255.14L303.63,254.79 M311.36,255.14L303.70,254.95 M311.30,254.75L303.70,254.95 M311.30,254.51L303.61,254.77 M311.30,254.51L303.70,254.75 M303.70,254.75L311.30,254.75 M311.30,254.75L303.61,254.77 M311.30,261.69L303.70,261.69 M303.70,261.69L311.30,261.69 M311.30,261.69L303.61,261.83 M311.36,266.83L303.70,266.84 M303.61,267.21L311.30,267.47 M311.30,267.47L303.70,267.22 M303.70,267.22L311.30,267.22 M311.30,267.22L303.61,267.21 M341.94,257.96L350.68,258.30 M341.94,264.01L350.68,263.68 M148.00,254.08L176.13,254.08 M176.13,267.85L148.00,267.86 M253.45,273.28L241.34,273.17 M253.45,273.35L241.34,273.23 M234.54,263.26L231.22,263.48 M253.16,263.43L249.83,263.66 M250.20,262.38L248.46,262.49 M232.94,272.63L239.62,272.69 M241.32,272.36L232.31,272.27 M261.25,273.43L251.75,273.33 M264.86,273.18L255.35,273.09 M227.26,249.63L227.03,261.69 M262.73,250.25L259.41,250.42 M263.25,262.38L254.22,262.51 M263.03,262.22L254.08,262.36 M263.30,262.95L254.23,263.09 M263.12,263.15L254.10,263.28 M254.08,262.36L246.15,262.39 M254.10,263.28L246.15,263.32 M254.22,262.51L246.29,262.55 M254.23,263.09L246.28,263.13 M246.15,262.39L239.48,262.09 M246.15,263.32L239.40,263.01 M246.28,263.13L239.52,262.81 M246.29,262.55L239.57,262.24 M264.00,261.25L255.38,261.49 M264.12,261.76L255.42,262.01 M255.24,261.45L247.82,261.38 M247.82,261.38L241.17,260.99 M255.38,261.49L247.95,261.42 M247.95,261.42L241.27,261.03 M255.42,262.01L247.97,261.94 M247.97,261.94L241.24,261.55 M257.82,249.96L255.22,250.20 M183.27,248.66L183.27,248.65 M183.27,248.64L183.27,248.63 M217.49,248.63L217.48,248.63 M218.51,249.65L218.51,249.65 M217.50,273.05L217.56,273.07 M183.27,273.07L183.30,273.08 M217.70,271.95L217.38,272.27 M196.46,269.41L204.56,269.41 M196.46,269.75L204.56,269.75 M196.46,270.08L204.56,270.08 M196.46,270.22L204.56,270.22 M210.89,269.73L190.13,269.73 M183.84,269.92L194.56,269.92 M208.65,273.58L190.54,273.58 M190.54,248.40L208.65,248.40 M247.67,250.94L236.50,250.94 M247.72,253.13L245.60,260.85 M245.60,260.85L247.50,253.83 M259.71,256.74L258.88,256.74 M259.34,265.21L258.50,265.21 M228.31,265.21L227.47,265.21 M227.93,256.74L227.10,256.74 M258.80,260.51L230.30,260.51 M230.30,258.16L258.80,258.16 M258.80,263.80L230.30,263.80 M230.30,261.45L258.80,261.45 M230.61,263.24L230.61,270.85 M230.61,263.24L230.61,251.11 M230.61,270.85L230.61,251.11 M258.56,251.11L258.56,270.85 M258.56,270.85L258.56,252.33 M258.56,270.85L258.56,263.24 M235.77,273.22L233.82,273.22 M233.20,273.84L235.16,273.84 M233.42,273.19L235.38,273.19 M233.16,271.27L235.11,271.27 M235.77,248.73L233.82,248.73 M235.16,248.11L233.20,248.11 M235.38,248.77L233.48,248.76 M235.11,250.69L233.16,250.75 M228.94,265.16L230.30,264.84 M230.30,257.13L230.54,257.57 M189.73,246.99L197.27,246.22 M199.42,248.57L193.27,249.09 M193.27,272.91L199.42,273.43 M242.63,275.71L249.03,274.74 M249.03,274.74L241.98,276.73 M188.61,274.57L196.76,275.14 M188.61,274.57L197.50,275.13 M188.69,247.40L196.76,246.83 M188.69,247.40L197.50,246.85 M187.89,268.53L177.82,267.51 M177.82,267.51L186.39,268.37 M186.39,254.13L177.82,254.99 M177.82,254.99L187.89,253.97 M292.88,275.65L302.45,273.06 M292.88,246.32L302.45,248.92 M332.36,243.75L323.30,243.95 M334.56,243.78L323.56,243.92 M334.56,243.78L323.42,243.96 M323.42,243.96L334.06,243.71 M323.31,243.91L333.25,243.67 M347.06,249.12L338.85,246.11 M347.06,249.12L339.20,245.96 M315.70,243.41L329.41,243.40 M273.41,248.31L267.97,249.35 M245.23,270.13L261.91,273.87 M269.18,274.45L261.82,274.25 M269.29,247.63L261.82,247.65 M316.40,257.10L307.24,257.18 M338.51,271.75L326.88,271.88 M338.51,250.22L326.88,250.10 M356.06,271.41L330.74,276.28 M356.06,250.57L330.74,245.70 M326.38,273.62L320.48,272.97 M324.04,274.83L309.89,275.02 M323.26,278.09L332.36,278.22 M315.70,278.56L329.41,278.57 M356.81,274.66L362.77,271.94 M283.33,280.78L275.22,280.13 M303.38,281.88L292.40,281.30 M287.84,280.42L295.12,280.97 M362.77,250.04L356.81,247.32 M351.17,247.77L356.66,248.14 M283.33,241.20L275.22,241.85 M303.38,240.09L292.40,240.67 M287.84,241.55L295.12,241.00 M171.56,279.92L164.59,279.00 M171.56,279.92L164.63,279.09 M140.83,274.34L140.61,274.35 M172.48,273.31L168.75,279.88 M168.75,279.88L162.97,274.97 M168.75,279.88L165.34,275.48 M162.33,277.42L172.40,278.19 M209.54,278.77L192.42,277.10 M202.31,279.40L192.91,278.21 M164.59,242.98L171.56,242.05 M171.56,242.05L164.63,242.88 M212.44,237.72L217.97,237.33 M219.09,237.25L226.33,236.67 M209.54,243.21L192.42,244.87 M202.31,242.58L192.91,243.76 M140.83,247.64L140.61,247.63 M141.86,247.90L149.89,242.07 M172.48,248.66L168.75,242.09 M168.75,242.09L162.97,247.00 M168.75,242.09L165.34,246.50 M162.33,244.55L172.40,243.79" stroke="currentColor" stroke-width="0.6" stroke-linecap="round" fill="none" opacity="0.55" clip-path="url(#hull-clip)" filter="url(#glow)" />
  <path d="M 198.81,297.50 C 198.61,297.51 198.39,297.51 198.19,297.50 C 197.98,297.49 197.78,297.48 197.59,297.46 C 197.39,297.44 197.20,297.42 197.01,297.38 C 196.82,297.35 196.63,297.31 196.45,297.27 C 196.27,297.22 196.10,297.17 195.92,297.11 C 195.75,297.05 195.58,296.99 195.41,296.91 C 195.25,296.84 195.09,296.76 194.93,296.68 C 194.77,296.60 194.62,296.50 194.47,296.41 C 194.32,296.31 194.17,296.20 194.03,296.09 C 193.89,295.98 193.77,295.87 193.65,295.74 C 193.53,295.62 193.42,295.49 193.32,295.35 C 193.22,295.21 193.13,295.07 193.05,294.92 C 192.96,294.77 192.89,294.62 192.83,294.45 C 192.76,294.29 192.71,294.12 192.66,293.95 C 192.62,293.77 192.58,293.59 192.55,293.40 C 192.53,293.21 192.51,293.01 192.50,292.81 C 192.49,292.61 192.51,292.40 192.50,292.19 C 192.49,291.98 192.47,291.76 192.45,291.54 C 192.42,291.32 192.38,291.10 192.34,290.87 C 192.29,290.64 192.24,290.41 192.17,290.17 C 192.11,289.94 192.04,289.70 191.95,289.45 C 191.87,289.21 191.78,288.96 191.68,288.71 C 191.58,288.46 191.47,288.20 191.35,287.95 C 191.23,287.69 191.11,287.42 190.97,287.16 C 190.83,286.89 190.77,286.61 190.53,286.34 C 190.29,286.08 189.96,285.83 189.54,285.59 C 189.12,285.34 188.60,285.11 187.99,284.88 C 187.38,284.66 186.68,284.44 185.89,284.23 C 185.10,284.03 184.21,283.83 183.23,283.64 C 182.26,283.45 181.19,283.27 180.02,283.10 C 178.86,282.93 177.61,282.77 176.26,282.62 C 174.91,282.46 173.47,282.32 171.94,282.19 C 170.40,282.05 168.61,281.95 167.06,281.81 C 165.51,281.68 164.04,281.54 162.63,281.38 C 161.23,281.23 159.90,281.07 158.65,280.90 C 157.39,280.73 156.21,280.55 155.11,280.36 C 154.00,280.17 152.97,279.97 152.02,279.77 C 151.06,279.56 150.18,279.34 149.37,279.12 C 148.56,278.89 147.82,278.66 147.16,278.41 C 146.50,278.17 145.92,277.92 145.41,277.66 C 144.89,277.39 144.50,277.11 144.09,276.84 C 143.69,276.58 143.31,276.33 142.97,276.08 C 142.62,275.83 142.31,275.59 142.03,275.36 C 141.75,275.13 141.50,274.90 141.28,274.69 C 141.06,274.47 140.88,274.26 140.72,274.06 C 140.56,273.86 140.44,273.67 140.34,273.48 C 140.25,273.30 140.19,273.12 140.16,272.95 C 140.12,272.78 140.12,272.62 140.16,272.47 C 140.19,272.32 140.28,272.17 140.34,272.03 C 140.41,271.89 140.48,271.76 140.56,271.64 C 140.64,271.52 140.72,271.40 140.81,271.30 C 140.90,271.19 140.99,271.09 141.09,271.00 C 141.19,270.91 141.30,270.83 141.41,270.75 C 141.52,270.67 141.63,270.61 141.75,270.55 C 141.87,270.49 141.99,270.43 142.12,270.39 C 142.26,270.35 142.39,270.31 142.53,270.28 C 142.67,270.25 142.84,270.25 142.97,270.22 C 143.10,270.19 143.22,270.14 143.32,270.09 C 143.42,270.03 143.51,269.96 143.59,269.88 C 143.66,269.80 143.72,269.71 143.77,269.61 C 143.81,269.51 143.84,269.39 143.86,269.27 C 143.88,269.14 143.88,269.00 143.87,268.85 C 143.86,268.70 143.83,268.54 143.79,268.37 C 143.75,268.19 143.69,268.01 143.62,267.81 C 143.56,267.62 143.45,267.41 143.38,267.19 C 143.30,266.97 143.22,266.74 143.16,266.50 C 143.09,266.26 143.03,266.01 142.97,265.75 C 142.91,265.49 142.86,265.22 142.81,264.94 C 142.77,264.66 142.72,264.36 142.69,264.06 C 142.65,263.76 142.62,263.45 142.59,263.12 C 142.57,262.80 142.55,262.47 142.53,262.12 C 142.52,261.78 142.51,261.43 142.50,261.06 C 142.49,260.70 142.49,260.30 142.50,259.94 C 142.51,259.57 142.52,259.22 142.53,258.88 C 142.55,258.53 142.57,258.20 142.59,257.88 C 142.62,257.55 142.65,257.24 142.69,256.94 C 142.72,256.64 142.77,256.34 142.81,256.06 C 142.86,255.78 142.91,255.51 142.97,255.25 C 143.03,254.99 143.09,254.74 143.16,254.50 C 143.22,254.26 143.30,254.03 143.38,253.81 C 143.45,253.59 143.56,253.38 143.62,253.19 C 143.69,252.99 143.75,252.81 143.79,252.63 C 143.83,252.46 143.86,252.30 143.87,252.15 C 143.88,252.00 143.88,251.86 143.86,251.73 C 143.84,251.61 143.81,251.49 143.77,251.39 C 143.72,251.29 143.66,251.20 143.59,251.12 C 143.51,251.04 143.42,250.97 143.32,250.91 C 143.22,250.86 143.10,250.81 142.97,250.78 C 142.84,250.75 142.67,250.75 142.53,250.72 C 142.39,250.69 142.26,250.65 142.12,250.61 C 141.99,250.57 141.87,250.51 141.75,250.45 C 141.63,250.39 141.52,250.33 141.41,250.25 C 141.30,250.17 141.19,250.09 141.09,250.00 C 140.99,249.91 140.90,249.81 140.81,249.70 C 140.72,249.60 140.64,249.48 140.56,249.36 C 140.48,249.24 140.41,249.11 140.34,248.97 C 140.28,248.83 140.19,248.68 140.16,248.53 C 140.12,248.38 140.11,248.22 140.12,248.06 C 140.14,247.90 140.18,247.73 140.25,247.56 C 140.32,247.39 140.41,247.21 140.53,247.03 C 140.65,246.85 140.80,246.66 140.97,246.47 C 141.14,246.28 141.34,246.08 141.56,245.88 C 141.79,245.67 142.04,245.46 142.31,245.25 C 142.59,245.04 142.89,244.82 143.22,244.59 C 143.55,244.37 143.84,244.13 144.28,243.91 C 144.72,243.68 145.25,243.45 145.87,243.23 C 146.48,243.00 147.19,242.78 147.98,242.55 C 148.77,242.33 149.64,242.11 150.61,241.89 C 151.57,241.67 152.63,241.45 153.77,241.23 C 154.90,241.02 156.13,240.80 157.45,240.59 C 158.76,240.37 160.16,240.16 161.65,239.95 C 163.14,239.73 164.71,239.52 166.38,239.31 C 168.04,239.10 169.98,238.91 171.62,238.69 C 173.27,238.46 174.82,238.23 176.26,237.98 C 177.70,237.73 179.04,237.46 180.27,237.18 C 181.51,236.90 182.64,236.61 183.67,236.30 C 184.70,235.99 185.63,235.67 186.45,235.33 C 187.28,234.99 188.00,234.64 188.62,234.27 C 189.24,233.91 189.75,233.53 190.16,233.13 C 190.58,232.74 190.89,232.33 191.09,231.91 C 191.30,231.48 191.30,231.01 191.41,230.59 C 191.51,230.18 191.62,229.78 191.73,229.41 C 191.85,229.03 191.96,228.68 192.08,228.34 C 192.20,228.01 192.32,227.70 192.44,227.41 C 192.56,227.11 192.68,226.84 192.81,226.59 C 192.94,226.34 193.07,226.11 193.20,225.91 C 193.34,225.70 193.47,225.51 193.61,225.34 C 193.75,225.18 193.89,225.03 194.03,224.91 C 194.17,224.78 194.32,224.69 194.47,224.59 C 194.62,224.50 194.78,224.42 194.95,224.34 C 195.12,224.27 195.30,224.21 195.48,224.16 C 195.67,224.10 195.86,224.06 196.06,224.03 C 196.26,224.00 196.47,223.98 196.69,223.97 C 196.90,223.96 197.13,223.96 197.36,223.97 C 197.59,223.98 197.83,224.00 198.08,224.03 C 198.33,224.06 198.58,224.10 198.84,224.16 C 199.11,224.21 199.41,224.26 199.66,224.34 C 199.90,224.43 200.12,224.53 200.32,224.65 C 200.52,224.77 200.69,224.91 200.84,225.07 C 200.98,225.23 201.11,225.41 201.20,225.61 C 201.30,225.81 201.37,226.03 201.42,226.27 C 201.47,226.50 201.49,226.76 201.49,227.04 C 201.49,227.32 201.46,227.61 201.41,227.93 C 201.36,228.25 201.29,228.58 201.19,228.94 C 201.09,229.29 200.93,229.70 200.81,230.06 C 200.70,230.42 200.60,230.76 200.51,231.09 C 200.42,231.41 200.34,231.72 200.27,232.01 C 200.21,232.30 200.15,232.57 200.11,232.83 C 200.07,233.08 200.04,233.32 200.02,233.55 C 200.00,233.77 199.99,233.98 199.99,234.16 C 200.00,234.35 200.01,234.52 200.04,234.68 C 200.07,234.83 200.11,234.97 200.16,235.09 C 200.21,235.21 200.21,235.31 200.34,235.41 C 200.48,235.50 200.68,235.60 200.96,235.68 C 201.24,235.76 201.59,235.84 202.01,235.91 C 202.43,235.99 202.92,236.05 203.48,236.11 C 204.05,236.17 204.68,236.22 205.39,236.27 C 206.10,236.31 206.88,236.35 207.73,236.38 C 208.58,236.42 209.50,236.44 210.49,236.46 C 211.49,236.48 212.55,236.49 213.69,236.50 C 214.82,236.51 216.17,236.51 217.31,236.50 C 218.45,236.49 219.53,236.48 220.53,236.47 C 221.54,236.45 222.47,236.43 223.34,236.41 C 224.21,236.38 225.02,236.35 225.75,236.31 C 226.48,236.28 227.15,236.23 227.75,236.19 C 228.35,236.14 228.88,236.09 229.34,236.03 C 229.81,235.97 230.20,235.91 230.53,235.84 C 230.86,235.78 231.12,235.70 231.31,235.62 C 231.51,235.55 231.54,235.45 231.69,235.38 C 231.84,235.30 232.02,235.22 232.22,235.16 C 232.42,235.09 232.65,235.03 232.91,234.97 C 233.16,234.91 233.44,234.86 233.75,234.81 C 234.06,234.77 234.39,234.72 234.75,234.69 C 235.11,234.65 235.49,234.62 235.91,234.59 C 236.32,234.57 236.76,234.55 237.22,234.53 C 237.68,234.52 238.17,234.51 238.69,234.50 C 239.20,234.49 239.79,234.49 240.31,234.50 C 240.84,234.51 241.34,234.54 241.83,234.58 C 242.32,234.62 242.78,234.67 243.23,234.73 C 243.68,234.80 244.12,234.88 244.53,234.97 C 244.95,235.06 245.34,235.16 245.72,235.28 C 246.10,235.40 246.46,235.53 246.80,235.67 C 247.14,235.82 247.46,235.97 247.77,236.14 C 248.07,236.31 248.36,236.49 248.62,236.69 C 248.89,236.88 249.07,237.11 249.38,237.31 C 249.68,237.51 250.03,237.70 250.44,237.88 C 250.84,238.05 251.30,238.22 251.81,238.38 C 252.32,238.53 252.89,238.68 253.50,238.81 C 254.11,238.95 254.78,239.07 255.50,239.19 C 256.22,239.30 256.99,239.41 257.81,239.50 C 258.64,239.59 259.51,239.68 260.44,239.75 C 261.36,239.82 262.34,239.89 263.38,239.94 C 264.41,239.99 265.59,240.03 266.62,240.06 C 267.66,240.10 268.64,240.13 269.57,240.15 C 270.50,240.17 271.38,240.19 272.21,240.20 C 273.04,240.20 273.82,240.21 274.55,240.20 C 275.27,240.20 275.95,240.19 276.58,240.17 C 277.20,240.15 277.78,240.13 278.30,240.10 C 278.83,240.07 279.30,240.04 279.73,239.99 C 280.15,239.95 280.52,239.90 280.84,239.84 C 281.17,239.79 281.41,239.73 281.66,239.66 C 281.90,239.59 282.12,239.51 282.30,239.43 C 282.49,239.35 282.65,239.26 282.79,239.16 C 282.92,239.07 283.03,238.97 283.11,238.86 C 283.19,238.75 283.24,238.64 283.27,238.52 C 283.29,238.39 283.29,238.27 283.26,238.13 C 283.23,238.00 283.17,237.86 283.09,237.71 C 283.00,237.56 282.89,237.41 282.75,237.25 C 282.61,237.09 282.39,236.93 282.25,236.75 C 282.11,236.57 281.98,236.37 281.88,236.16 C 281.78,235.95 281.70,235.73 281.65,235.49 C 281.59,235.25 281.56,235.00 281.55,234.73 C 281.54,234.47 281.55,234.19 281.58,233.89 C 281.61,233.60 281.67,233.29 281.74,232.96 C 281.82,232.64 281.92,232.30 282.04,231.95 C 282.16,231.59 282.30,231.23 282.47,230.84 C 282.63,230.46 282.82,230.03 283.03,229.66 C 283.25,229.29 283.49,228.94 283.76,228.62 C 284.03,228.30 284.32,228.00 284.65,227.73 C 284.97,227.45 285.32,227.21 285.70,226.98 C 286.08,226.76 286.49,226.56 286.92,226.39 C 287.36,226.22 287.82,226.07 288.30,225.95 C 288.79,225.82 289.31,225.72 289.85,225.65 C 290.39,225.57 290.96,225.52 291.56,225.50 C 292.16,225.48 292.86,225.49 293.44,225.50 C 294.02,225.51 294.55,225.54 295.03,225.58 C 295.52,225.62 295.95,225.67 296.34,225.73 C 296.73,225.80 297.08,225.88 297.38,225.97 C 297.67,226.06 297.92,226.16 298.12,226.28 C 298.33,226.40 298.48,226.53 298.59,226.67 C 298.70,226.82 298.77,226.97 298.78,227.14 C 298.80,227.31 298.77,227.49 298.69,227.69 C 298.61,227.88 298.45,228.12 298.31,228.31 C 298.17,228.51 298.02,228.69 297.86,228.86 C 297.70,229.03 297.52,229.18 297.33,229.33 C 297.14,229.47 296.93,229.60 296.72,229.72 C 296.50,229.84 296.27,229.94 296.03,230.03 C 295.79,230.12 295.53,230.20 295.27,230.27 C 295.00,230.33 294.72,230.38 294.42,230.42 C 294.13,230.46 293.82,230.49 293.50,230.50 C 293.18,230.51 292.82,230.49 292.50,230.50 C 292.18,230.51 291.88,230.54 291.59,230.59 C 291.30,230.63 291.02,230.69 290.76,230.76 C 290.50,230.83 290.25,230.92 290.02,231.02 C 289.78,231.12 289.56,231.23 289.36,231.36 C 289.15,231.49 288.96,231.63 288.79,231.79 C 288.61,231.95 288.45,232.12 288.30,232.30 C 288.16,232.49 288.02,232.69 287.91,232.91 C 287.79,233.12 287.68,233.37 287.59,233.59 C 287.50,233.82 287.42,234.03 287.36,234.23 C 287.29,234.44 287.24,234.64 287.20,234.83 C 287.16,235.02 287.14,235.20 287.12,235.38 C 287.11,235.55 287.11,235.72 287.12,235.88 C 287.14,236.03 287.16,236.18 287.20,236.33 C 287.24,236.47 287.29,236.61 287.36,236.73 C 287.42,236.86 287.50,236.98 287.59,237.09 C 287.68,237.21 287.75,237.31 287.91,237.41 C 288.06,237.50 288.27,237.60 288.54,237.68 C 288.80,237.76 289.12,237.84 289.49,237.91 C 289.86,237.99 290.29,238.05 290.77,238.11 C 291.24,238.17 291.77,238.22 292.36,238.27 C 292.94,238.31 293.58,238.35 294.27,238.38 C 294.96,238.42 295.71,238.44 296.51,238.46 C 297.31,238.48 298.16,238.49 299.06,238.50 C 299.97,238.51 300.99,238.49 301.94,238.50 C 302.88,238.51 303.82,238.52 304.73,238.53 C 305.65,238.55 306.56,238.57 307.45,238.59 C 308.35,238.62 309.23,238.65 310.09,238.69 C 310.96,238.72 311.82,238.77 312.66,238.81 C 313.50,238.86 314.33,238.91 315.14,238.97 C 315.96,239.03 316.76,239.09 317.55,239.16 C 318.34,239.22 319.11,239.30 319.88,239.38 C 320.64,239.45 321.42,239.55 322.12,239.62 C 322.83,239.70 323.49,239.76 324.10,239.82 C 324.71,239.88 325.28,239.92 325.80,239.96 C 326.33,240.00 326.80,240.03 327.23,240.05 C 327.67,240.07 328.05,240.08 328.39,240.08 C 328.73,240.08 329.02,240.07 329.27,240.05 C 329.52,240.04 329.73,240.01 329.88,239.98 C 330.04,239.94 330.15,239.90 330.22,239.84 C 330.29,239.79 330.27,239.72 330.28,239.66 C 330.30,239.60 330.30,239.54 330.30,239.48 C 330.31,239.42 330.30,239.36 330.29,239.30 C 330.28,239.25 330.26,239.19 330.23,239.14 C 330.21,239.09 330.18,239.04 330.14,238.98 C 330.10,238.93 330.06,238.88 330.01,238.84 C 329.96,238.79 329.90,238.74 329.84,238.70 C 329.77,238.65 329.70,238.61 329.62,238.56 C 329.55,238.52 329.45,238.48 329.38,238.44 C 329.30,238.39 329.23,238.34 329.17,238.28 C 329.11,238.22 329.06,238.16 329.02,238.09 C 328.97,238.03 328.93,237.95 328.91,237.88 C 328.88,237.80 328.86,237.71 328.84,237.62 C 328.83,237.54 328.83,237.44 328.83,237.34 C 328.83,237.24 328.84,237.14 328.86,237.03 C 328.88,236.92 328.90,236.81 328.94,236.69 C 328.97,236.57 329.01,236.43 329.06,236.31 C 329.11,236.19 329.17,236.07 329.23,235.96 C 329.29,235.85 329.36,235.74 329.43,235.63 C 329.50,235.53 329.58,235.43 329.67,235.33 C 329.76,235.23 329.85,235.14 329.95,235.05 C 330.05,234.96 330.16,234.87 330.27,234.79 C 330.39,234.71 330.51,234.63 330.63,234.55 C 330.76,234.48 330.89,234.41 331.03,234.34 C 331.17,234.28 331.33,234.21 331.47,234.16 C 331.61,234.10 331.74,234.05 331.88,234.02 C 332.01,233.98 332.13,233.95 332.25,233.92 C 332.37,233.90 332.48,233.88 332.59,233.88 C 332.70,233.87 332.81,233.87 332.91,233.88 C 333.01,233.88 333.10,233.90 333.19,233.92 C 333.28,233.95 333.36,233.98 333.44,234.02 C 333.52,234.05 333.59,234.10 333.66,234.16 C 333.72,234.21 333.79,234.27 333.84,234.34 C 333.90,234.42 333.95,234.51 334.00,234.61 C 334.05,234.71 334.09,234.83 334.12,234.95 C 334.16,235.08 334.19,235.22 334.22,235.38 C 334.24,235.53 334.27,235.70 334.28,235.88 C 334.30,236.05 334.31,236.25 334.31,236.45 C 334.32,236.66 334.32,236.88 334.31,237.11 C 334.31,237.34 334.30,237.59 334.28,237.84 C 334.27,238.10 334.18,238.39 334.22,238.66 C 334.26,238.92 334.37,239.19 334.54,239.45 C 334.71,239.70 334.94,239.96 335.24,240.21 C 335.54,240.46 335.90,240.71 336.33,240.95 C 336.75,241.20 337.24,241.44 337.80,241.67 C 338.35,241.91 338.97,242.14 339.65,242.37 C 340.33,242.60 341.07,242.82 341.88,243.04 C 342.69,243.26 343.56,243.48 344.50,243.69 C 345.44,243.90 346.54,244.10 347.50,244.31 C 348.46,244.52 349.37,244.73 350.24,244.95 C 351.11,245.16 351.94,245.37 352.73,245.59 C 353.51,245.80 354.25,246.02 354.95,246.23 C 355.65,246.45 356.31,246.67 356.92,246.89 C 357.54,247.11 358.11,247.33 358.63,247.55 C 359.16,247.78 359.64,248.00 360.09,248.23 C 360.53,248.45 360.93,248.68 361.28,248.91 C 361.64,249.13 361.93,249.37 362.22,249.59 C 362.50,249.82 362.76,250.04 362.98,250.27 C 363.21,250.49 363.41,250.71 363.58,250.92 C 363.75,251.14 363.89,251.35 364.00,251.56 C 364.11,251.77 364.20,251.98 364.25,252.19 C 364.30,252.39 364.33,252.60 364.33,252.80 C 364.33,253.00 364.29,253.20 364.23,253.39 C 364.17,253.59 364.09,253.78 363.97,253.97 C 363.85,254.16 363.65,254.36 363.53,254.53 C 363.41,254.71 363.32,254.87 363.26,255.02 C 363.19,255.18 363.16,255.32 363.15,255.45 C 363.14,255.57 363.16,255.69 363.20,255.80 C 363.25,255.90 363.32,256.00 363.42,256.08 C 363.52,256.16 363.65,256.23 363.80,256.29 C 363.96,256.35 364.14,256.39 364.35,256.43 C 364.56,256.46 364.80,256.49 365.06,256.50 C 365.33,256.51 365.66,256.50 365.94,256.50 C 366.21,256.50 366.48,256.51 366.73,256.52 C 366.98,256.54 367.21,256.55 367.43,256.57 C 367.65,256.59 367.86,256.61 368.05,256.64 C 368.24,256.67 368.42,256.70 368.58,256.73 C 368.74,256.77 368.89,256.81 369.02,256.85 C 369.16,256.89 369.28,256.94 369.38,256.99 C 369.49,257.04 369.58,257.10 369.66,257.16 C 369.73,257.21 369.80,257.28 369.84,257.34 C 369.89,257.41 369.93,257.47 369.95,257.54 C 369.96,257.61 369.97,257.67 369.96,257.74 C 369.95,257.81 369.93,257.88 369.89,257.95 C 369.85,258.02 369.80,258.10 369.73,258.17 C 369.67,258.25 369.59,258.32 369.49,258.40 C 369.40,258.48 369.29,258.55 369.16,258.63 C 369.04,258.71 368.90,258.79 368.75,258.88 C 368.60,258.96 368.40,259.04 368.25,259.12 C 368.10,259.21 367.98,259.30 367.88,259.39 C 367.77,259.48 367.69,259.58 367.62,259.67 C 367.56,259.77 367.52,259.87 367.50,259.97 C 367.48,260.07 367.48,260.17 367.50,260.28 C 367.52,260.39 367.56,260.50 367.62,260.61 C 367.69,260.72 367.77,260.84 367.88,260.95 C 367.98,261.07 368.10,261.19 368.25,261.31 C 368.40,261.43 368.60,261.57 368.75,261.69 C 368.90,261.81 369.04,261.93 369.16,262.04 C 369.29,262.15 369.40,262.26 369.49,262.37 C 369.59,262.47 369.67,262.57 369.73,262.67 C 369.80,262.77 369.85,262.86 369.89,262.95 C 369.93,263.04 369.95,263.13 369.96,263.21 C 369.97,263.29 369.96,263.37 369.95,263.45 C 369.93,263.52 369.89,263.59 369.84,263.66 C 369.80,263.72 369.73,263.78 369.66,263.84 C 369.58,263.90 369.49,263.96 369.39,264.02 C 369.29,264.07 369.17,264.12 369.05,264.17 C 368.92,264.22 368.78,264.27 368.62,264.31 C 368.47,264.36 368.30,264.40 368.12,264.44 C 367.95,264.48 367.75,264.51 367.55,264.55 C 367.34,264.58 367.12,264.61 366.89,264.64 C 366.66,264.67 366.41,264.70 366.16,264.72 C 365.90,264.74 365.59,264.75 365.34,264.78 C 365.10,264.81 364.88,264.85 364.68,264.90 C 364.48,264.95 364.31,265.00 364.16,265.07 C 364.02,265.14 363.89,265.21 363.80,265.30 C 363.70,265.38 363.63,265.48 363.58,265.58 C 363.53,265.68 363.51,265.79 363.51,265.91 C 363.51,266.04 363.54,266.17 363.59,266.30 C 363.64,266.44 363.71,266.59 363.81,266.75 C 363.91,266.91 364.08,267.08 364.19,267.25 C 364.30,267.42 364.39,267.58 364.46,267.74 C 364.54,267.90 364.59,268.07 364.63,268.23 C 364.67,268.39 364.70,268.55 364.70,268.70 C 364.71,268.86 364.70,269.02 364.67,269.17 C 364.64,269.33 364.60,269.48 364.54,269.63 C 364.48,269.79 364.40,269.94 364.30,270.09 C 364.21,270.24 364.10,270.38 363.97,270.53 C 363.84,270.68 363.74,270.81 363.53,270.97 C 363.32,271.12 363.04,271.29 362.70,271.46 C 362.35,271.63 361.94,271.82 361.46,272.01 C 360.98,272.20 360.44,272.40 359.83,272.61 C 359.22,272.82 358.54,273.04 357.80,273.27 C 357.05,273.49 356.24,273.73 355.37,273.98 C 354.49,274.22 353.55,274.48 352.54,274.74 C 351.53,275.01 350.45,275.28 349.31,275.56 C 348.17,275.85 346.82,276.14 345.69,276.44 C 344.56,276.73 343.51,277.03 342.53,277.33 C 341.56,277.63 340.66,277.93 339.84,278.23 C 339.03,278.54 338.29,278.85 337.62,279.16 C 336.96,279.47 336.38,279.78 335.88,280.09 C 335.37,280.41 334.94,280.73 334.59,281.05 C 334.24,281.37 333.97,281.69 333.78,282.02 C 333.59,282.34 333.47,282.67 333.44,283.00 C 333.40,283.33 333.53,283.68 333.56,284.00 C 333.59,284.32 333.61,284.61 333.62,284.89 C 333.64,285.17 333.64,285.43 333.62,285.67 C 333.61,285.91 333.59,286.14 333.56,286.34 C 333.53,286.55 333.49,286.74 333.44,286.91 C 333.39,287.08 333.32,287.23 333.25,287.36 C 333.18,287.49 333.09,287.61 333.00,287.70 C 332.91,287.80 332.80,287.88 332.69,287.94 C 332.57,288.00 332.43,288.03 332.31,288.06 C 332.19,288.10 332.07,288.13 331.96,288.15 C 331.85,288.17 331.74,288.19 331.63,288.20 C 331.53,288.20 331.43,288.21 331.33,288.20 C 331.23,288.20 331.14,288.19 331.05,288.17 C 330.96,288.15 330.87,288.13 330.79,288.10 C 330.71,288.07 330.63,288.04 330.55,287.99 C 330.48,287.95 330.41,287.90 330.34,287.84 C 330.28,287.79 330.21,287.73 330.16,287.66 C 330.10,287.58 330.05,287.49 330.02,287.39 C 329.98,287.29 329.95,287.17 329.92,287.05 C 329.90,286.92 329.88,286.78 329.88,286.62 C 329.87,286.47 329.87,286.30 329.88,286.12 C 329.88,285.95 329.90,285.75 329.92,285.55 C 329.95,285.34 329.98,285.12 330.02,284.89 C 330.05,284.66 330.10,284.41 330.16,284.16 C 330.21,283.90 330.39,283.59 330.34,283.34 C 330.29,283.10 330.13,282.87 329.85,282.66 C 329.57,282.46 329.18,282.28 328.68,282.12 C 328.18,281.96 327.56,281.82 326.83,281.70 C 326.10,281.59 325.25,281.49 324.30,281.42 C 323.34,281.35 322.27,281.30 321.09,281.27 C 319.90,281.25 318.61,281.24 317.20,281.26 C 315.79,281.27 314.26,281.31 312.62,281.38 C 310.99,281.44 309.02,281.54 307.38,281.62 C 305.73,281.71 304.18,281.80 302.74,281.88 C 301.30,281.97 299.96,282.06 298.73,282.15 C 297.49,282.24 296.36,282.33 295.33,282.42 C 294.30,282.51 293.37,282.61 292.55,282.70 C 291.72,282.80 291.00,282.89 290.38,282.99 C 289.76,283.09 289.25,283.19 288.84,283.29 C 288.42,283.39 288.11,283.49 287.91,283.59 C 287.70,283.70 287.69,283.80 287.59,283.91 C 287.50,284.01 287.41,284.13 287.34,284.24 C 287.26,284.36 287.19,284.48 287.13,284.60 C 287.07,284.73 287.02,284.85 286.98,284.98 C 286.94,285.12 286.91,285.25 286.89,285.39 C 286.87,285.53 286.86,285.67 286.85,285.82 C 286.85,285.97 286.85,286.12 286.87,286.27 C 286.88,286.43 286.90,286.59 286.94,286.75 C 286.97,286.91 287.02,287.09 287.06,287.25 C 287.11,287.41 287.15,287.56 287.20,287.71 C 287.24,287.86 287.29,288.00 287.34,288.13 C 287.38,288.27 287.43,288.39 287.48,288.52 C 287.54,288.64 287.59,288.75 287.64,288.86 C 287.69,288.97 287.75,289.07 287.80,289.16 C 287.86,289.26 287.92,289.35 287.98,289.43 C 288.04,289.51 288.10,289.59 288.16,289.66 C 288.22,289.73 288.26,289.79 288.34,289.84 C 288.42,289.90 288.52,289.96 288.63,290.01 C 288.75,290.06 288.88,290.11 289.02,290.15 C 289.17,290.19 289.33,290.23 289.52,290.27 C 289.70,290.30 289.89,290.33 290.11,290.36 C 290.32,290.39 290.56,290.41 290.80,290.43 C 291.05,290.45 291.32,290.46 291.60,290.48 C 291.88,290.49 292.18,290.50 292.50,290.50 C 292.82,290.50 293.18,290.49 293.50,290.50 C 293.82,290.51 294.13,290.54 294.43,290.57 C 294.73,290.61 295.01,290.65 295.29,290.71 C 295.56,290.77 295.83,290.84 296.08,290.92 C 296.33,291.00 296.57,291.10 296.80,291.20 C 297.02,291.31 297.24,291.43 297.45,291.55 C 297.65,291.68 297.84,291.82 298.02,291.98 C 298.20,292.13 298.37,292.29 298.53,292.47 C 298.69,292.64 298.87,292.85 298.97,293.03 C 299.07,293.21 299.11,293.38 299.11,293.53 C 299.11,293.69 299.05,293.83 298.95,293.97 C 298.85,294.10 298.70,294.23 298.50,294.34 C 298.30,294.46 298.05,294.56 297.75,294.66 C 297.45,294.75 297.10,294.83 296.70,294.91 C 296.30,294.98 295.86,295.04 295.36,295.09 C 294.86,295.15 294.32,295.19 293.72,295.22 C 293.12,295.25 292.40,295.29 291.78,295.28 C 291.16,295.28 290.58,295.24 290.02,295.19 C 289.46,295.13 288.92,295.05 288.42,294.94 C 287.92,294.83 287.45,294.69 287.00,294.53 C 286.55,294.37 286.14,294.18 285.75,293.97 C 285.36,293.76 285.00,293.52 284.67,293.25 C 284.34,292.98 284.04,292.69 283.77,292.38 C 283.49,292.06 283.25,291.71 283.03,291.34 C 282.82,290.97 282.64,290.54 282.47,290.16 C 282.30,289.77 282.15,289.41 282.02,289.05 C 281.89,288.70 281.79,288.36 281.70,288.04 C 281.61,287.71 281.54,287.40 281.48,287.11 C 281.43,286.81 281.40,286.53 281.39,286.27 C 281.38,286.00 281.39,285.75 281.41,285.51 C 281.44,285.27 281.49,285.05 281.55,284.84 C 281.62,284.63 281.71,284.43 281.81,284.25 C 281.92,284.07 282.08,283.91 282.19,283.75 C 282.29,283.59 282.37,283.44 282.43,283.29 C 282.49,283.14 282.52,283.00 282.54,282.87 C 282.55,282.73 282.55,282.61 282.52,282.48 C 282.49,282.36 282.43,282.25 282.36,282.14 C 282.29,282.03 282.19,281.93 282.07,281.84 C 281.95,281.74 281.81,281.65 281.65,281.57 C 281.49,281.49 281.30,281.41 281.09,281.34 C 280.89,281.27 280.69,281.21 280.41,281.16 C 280.12,281.10 279.79,281.05 279.40,281.01 C 279.01,280.96 278.57,280.93 278.07,280.90 C 277.57,280.87 277.02,280.85 276.42,280.83 C 275.82,280.81 275.16,280.80 274.45,280.80 C 273.74,280.79 272.98,280.80 272.16,280.80 C 271.35,280.81 270.48,280.83 269.55,280.85 C 268.63,280.87 267.65,280.90 266.62,280.94 C 265.60,280.97 264.41,281.01 263.38,281.06 C 262.34,281.11 261.36,281.18 260.44,281.25 C 259.51,281.32 258.64,281.41 257.81,281.50 C 256.99,281.59 256.22,281.70 255.50,281.81 C 254.78,281.93 254.11,282.05 253.50,282.19 C 252.89,282.32 252.32,282.47 251.81,282.62 C 251.30,282.78 250.84,282.95 250.44,283.12 C 250.03,283.30 249.68,283.49 249.38,283.69 C 249.07,283.89 248.89,284.12 248.62,284.31 C 248.36,284.51 248.07,284.69 247.77,284.86 C 247.46,285.03 247.14,285.18 246.80,285.33 C 246.46,285.47 246.10,285.60 245.72,285.72 C 245.34,285.84 244.95,285.94 244.53,286.03 C 244.12,286.12 243.68,286.20 243.23,286.27 C 242.78,286.33 242.32,286.38 241.83,286.42 C 241.34,286.46 240.84,286.49 240.31,286.50 C 239.79,286.51 239.20,286.51 238.69,286.50 C 238.17,286.49 237.68,286.48 237.22,286.47 C 236.76,286.45 236.32,286.43 235.91,286.41 C 235.49,286.38 235.11,286.35 234.75,286.31 C 234.39,286.28 234.06,286.23 233.75,286.19 C 233.44,286.14 233.16,286.09 232.91,286.03 C 232.65,285.97 232.42,285.91 232.22,285.84 C 232.02,285.78 231.84,285.70 231.69,285.62 C 231.54,285.55 231.51,285.45 231.31,285.38 C 231.12,285.30 230.86,285.22 230.53,285.16 C 230.20,285.09 229.81,285.03 229.34,284.97 C 228.88,284.91 228.35,284.86 227.75,284.81 C 227.15,284.77 226.48,284.72 225.75,284.69 C 225.02,284.65 224.21,284.62 223.34,284.59 C 222.47,284.57 221.54,284.55 220.53,284.53 C 219.53,284.52 218.45,284.51 217.31,284.50 C 216.17,284.49 214.82,284.50 213.69,284.50 C 212.55,284.50 211.49,284.51 210.49,284.52 C 209.50,284.54 208.58,284.55 207.73,284.57 C 206.88,284.59 206.10,284.61 205.39,284.64 C 204.68,284.67 204.05,284.70 203.48,284.73 C 202.92,284.77 202.43,284.81 202.01,284.85 C 201.59,284.89 201.24,284.94 200.96,284.99 C 200.68,285.04 200.48,285.10 200.34,285.16 C 200.21,285.21 200.21,285.26 200.16,285.34 C 200.11,285.42 200.07,285.52 200.04,285.63 C 200.01,285.75 200.00,285.88 199.99,286.02 C 199.99,286.17 200.00,286.33 200.02,286.52 C 200.04,286.70 200.07,286.89 200.11,287.11 C 200.15,287.32 200.21,287.56 200.27,287.80 C 200.34,288.05 200.42,288.32 200.51,288.60 C 200.60,288.88 200.70,289.18 200.81,289.50 C 200.93,289.82 201.07,290.18 201.19,290.50 C 201.30,290.82 201.40,291.13 201.49,291.43 C 201.58,291.73 201.66,292.01 201.73,292.29 C 201.79,292.56 201.85,292.83 201.89,293.08 C 201.93,293.33 201.96,293.57 201.98,293.80 C 202.00,294.02 202.01,294.24 202.01,294.45 C 202.00,294.65 201.99,294.84 201.96,295.02 C 201.93,295.20 201.89,295.37 201.84,295.53 C 201.79,295.69 201.73,295.83 201.66,295.97 C 201.58,296.11 201.50,296.23 201.41,296.35 C 201.32,296.47 201.23,296.58 201.12,296.68 C 201.01,296.78 200.89,296.87 200.77,296.95 C 200.64,297.04 200.50,297.11 200.36,297.17 C 200.21,297.24 200.06,297.29 199.90,297.34 C 199.74,297.38 199.56,297.42 199.38,297.45 C 199.20,297.47 199.01,297.49 198.81,297.50 Z" fill="none" stroke="currentColor" stroke-width="1.5" stroke-linejoin="round" stroke-linecap="round" filter="url(#glow)" />
</svg>