<svg xmlns="http://www.w3.org/2000/svg" width="512" height="512" viewBox="122.68 122.73 343.89 288.84" preserveAspectRatio="xMidYMid meet">
  <defs>
    <filter id="glow" x="-30%" y="-30%" width="160%" height="160%">
      <feGaussianBlur in="SourceGraphic" stdDeviation="2.4" result="blur" />
      <feMerge>
        <feMergeNode in="blur" />
        <feMergeNode in="SourceGraphic" />
      </feMerge>
    </filter>
    <clipPath id="hull-clip">
      <path d="M 305.88,387.50 C 305.24,387.64 304.68,387.50 304.12,387.50 C 303.57,387.50 303.06,387.49 302.57,387.48 C 302.08,387.46 301.63,387.45 301.21,387.43 C 300.79,387.41 300.40,387.39 300.05,387.36 C 299.69,387.33 299.37,387.30 299.08,387.27 C 298.79,387.23 298.53,387.19 298.30,387.15 C 298.08,387.11 297.89,387.06 297.73,387.01 C 297.57,386.96 297.44,386.90 297.34,386.84 C 297.25,386.79 297.19,386.86 297.16,386.66 C 297.12,386.45 297.11,386.10 297.13,385.60 C 297.15,385.11 297.20,384.46 297.27,383.68 C 297.35,382.89 297.45,381.96 297.58,380.89 C 297.71,379.82 297.86,378.60 298.05,377.23 C 298.23,375.87 298.44,374.36 298.68,372.71 C 298.92,371.06 299.18,369.26 299.48,367.32 C 299.77,365.38 300.09,363.29 300.44,361.06 C 300.79,358.83 301.21,356.17 301.56,353.94 C 301.91,351.71 302.23,349.62 302.52,347.68 C 302.82,345.74 303.08,343.94 303.32,342.29 C 303.56,340.64 303.77,339.13 303.95,337.77 C 304.14,336.40 304.29,335.18 304.42,334.11 C 304.55,333.04 304.65,332.11 304.73,331.32 C 304.80,330.54 304.85,329.89 304.87,329.40 C 304.89,328.90 304.88,328.55 304.84,328.34 C 304.81,328.14 304.76,328.22 304.66,328.16 C 304.55,328.10 304.40,328.04 304.20,327.98 C 304.01,327.93 303.77,327.88 303.48,327.83 C 303.20,327.78 302.87,327.73 302.50,327.69 C 302.13,327.64 301.71,327.60 301.25,327.56 C 300.79,327.52 300.28,327.49 299.73,327.45 C 299.18,327.42 298.59,327.39 297.95,327.36 C 297.32,327.33 296.63,327.30 295.91,327.28 C 295.18,327.26 294.32,327.25 293.59,327.22 C 292.87,327.19 292.20,327.15 291.58,327.11 C 290.96,327.07 290.38,327.01 289.86,326.95 C 289.34,326.89 288.86,326.83 288.44,326.75 C 288.01,326.67 287.64,326.59 287.31,326.50 C 286.99,326.41 286.71,326.31 286.48,326.20 C 286.26,326.10 286.08,325.98 285.95,325.86 C 285.83,325.74 285.75,325.61 285.72,325.47 C 285.69,325.33 285.71,325.17 285.78,325.03 C 285.85,324.89 285.96,324.77 286.12,324.65 C 286.27,324.53 286.48,324.42 286.73,324.32 C 286.98,324.22 287.27,324.13 287.61,324.05 C 287.95,323.96 288.33,323.89 288.77,323.83 C 289.20,323.76 289.67,323.71 290.20,323.66 C 290.72,323.62 291.29,323.58 291.90,323.55 C 292.51,323.53 293.17,323.51 293.88,323.50 C 294.58,323.49 295.42,323.51 296.12,323.50 C 296.83,323.49 297.50,323.48 298.13,323.46 C 298.76,323.44 299.35,323.42 299.90,323.38 C 300.45,323.35 300.95,323.31 301.42,323.27 C 301.89,323.22 302.32,323.17 302.70,323.11 C 303.09,323.05 303.44,322.99 303.74,322.91 C 304.05,322.84 304.31,322.76 304.54,322.68 C 304.76,322.60 304.95,322.50 305.09,322.41 C 305.24,322.31 305.31,322.21 305.41,322.09 C 305.50,321.98 305.60,321.86 305.68,321.73 C 305.76,321.60 305.84,321.45 305.91,321.30 C 305.99,321.15 306.05,321.00 306.11,320.83 C 306.17,320.66 306.22,320.48 306.27,320.30 C 306.31,320.11 306.35,319.92 306.38,319.71 C 306.42,319.51 306.44,319.29 306.46,319.07 C 306.48,318.85 306.49,318.62 306.50,318.38 C 306.51,318.13 306.52,317.87 306.50,317.62 C 306.48,317.38 306.45,317.13 306.40,316.88 C 306.35,316.64 306.28,316.39 306.20,316.15 C 306.11,315.90 306.01,315.66 305.89,315.42 C 305.77,315.18 305.64,314.94 305.48,314.70 C 305.33,314.46 305.16,314.23 304.98,313.99 C 304.79,313.76 304.59,313.52 304.37,313.29 C 304.15,313.06 303.91,312.82 303.66,312.59 C 303.40,312.36 303.16,312.14 302.84,311.91 C 302.53,311.68 302.17,311.44 301.77,311.21 C 301.37,310.98 300.93,310.74 300.45,310.51 C 299.96,310.27 299.43,310.04 298.86,309.80 C 298.29,309.56 297.67,309.32 297.02,309.08 C 296.36,308.84 295.66,308.60 294.91,308.35 C 294.17,308.11 293.38,307.86 292.55,307.62 C 291.73,307.37 290.85,307.12 289.94,306.88 C 289.02,306.63 287.99,306.36 287.06,306.12 C 286.13,305.89 285.23,305.67 284.36,305.47 C 283.49,305.27 282.64,305.08 281.83,304.91 C 281.01,304.73 280.23,304.58 279.47,304.44 C 278.71,304.30 277.98,304.17 277.28,304.06 C 276.58,303.95 275.91,303.86 275.27,303.78 C 274.62,303.70 274.01,303.64 273.42,303.59 C 272.84,303.55 272.28,303.52 271.75,303.50 C 271.22,303.48 270.73,303.49 270.25,303.50 C 269.77,303.51 269.31,303.52 268.88,303.53 C 268.44,303.55 268.02,303.57 267.62,303.59 C 267.23,303.62 266.85,303.65 266.50,303.69 C 266.15,303.72 265.81,303.77 265.50,303.81 C 265.19,303.86 264.90,303.91 264.62,303.97 C 264.35,304.03 264.10,304.09 263.88,304.16 C 263.65,304.22 263.44,304.30 263.25,304.38 C 263.06,304.45 262.99,304.55 262.75,304.62 C 262.51,304.70 262.18,304.76 261.78,304.81 C 261.38,304.86 260.90,304.91 260.34,304.94 C 259.79,304.97 259.15,304.99 258.44,305.00 C 257.72,305.01 256.93,305.01 256.06,305.00 C 255.19,304.99 254.24,304.97 253.22,304.94 C 252.19,304.91 251.09,304.86 249.91,304.81 C 248.72,304.76 247.46,304.70 246.12,304.62 C 244.79,304.55 243.23,304.46 241.88,304.38 C 240.52,304.29 239.24,304.19 238.02,304.09 C 236.79,303.99 235.64,303.89 234.55,303.78 C 233.46,303.67 232.43,303.56 231.47,303.44 C 230.51,303.32 229.61,303.19 228.78,303.06 C 227.95,302.93 227.18,302.80 226.48,302.66 C 225.78,302.52 225.15,302.37 224.58,302.22 C 224.01,302.07 223.50,301.91 223.06,301.75 C 222.62,301.59 222.32,301.43 221.94,301.25 C 221.56,301.07 221.18,300.88 220.80,300.67 C 220.41,300.47 220.03,300.25 219.64,300.02 C 219.25,299.78 218.86,299.54 218.47,299.28 C 218.08,299.02 217.68,298.75 217.28,298.47 C 216.88,298.18 216.48,297.89 216.08,297.58 C 215.67,297.27 215.27,296.95 214.86,296.61 C 214.45,296.27 214.04,295.92 213.62,295.56 C 213.21,295.20 212.82,294.80 212.38,294.44 C 211.93,294.07 211.45,293.72 210.94,293.38 C 210.43,293.03 209.89,292.70 209.31,292.38 C 208.74,292.05 208.14,291.74 207.50,291.44 C 206.86,291.14 206.20,290.84 205.50,290.56 C 204.80,290.28 204.07,290.01 203.31,289.75 C 202.55,289.49 201.76,289.24 200.94,289.00 C 200.11,288.76 199.26,288.53 198.38,288.31 C 197.49,288.09 196.53,287.90 195.62,287.69 C 194.72,287.48 193.84,287.26 192.97,287.05 C 192.10,286.83 191.24,286.61 190.41,286.39 C 189.57,286.17 188.74,285.95 187.94,285.72 C 187.13,285.49 186.34,285.26 185.56,285.03 C 184.79,284.80 184.03,284.57 183.28,284.33 C 182.54,284.09 181.81,283.85 181.09,283.61 C 180.38,283.37 179.68,283.12 179.00,282.88 C 178.32,282.63 177.63,282.36 177.00,282.12 C 176.37,281.89 175.78,281.68 175.23,281.48 C 174.67,281.28 174.16,281.10 173.68,280.93 C 173.20,280.76 172.76,280.62 172.36,280.48 C 171.96,280.35 171.59,280.24 171.27,280.14 C 170.94,280.04 170.65,279.96 170.40,279.90 C 170.15,279.83 169.93,279.79 169.76,279.76 C 169.58,279.73 169.44,279.71 169.34,279.72 C 169.24,279.72 169.20,279.75 169.16,279.78 C 169.11,279.81 169.08,279.84 169.07,279.88 C 169.06,279.92 169.06,279.97 169.09,280.02 C 169.11,280.08 169.15,280.14 169.20,280.20 C 169.26,280.27 169.33,280.34 169.42,280.42 C 169.51,280.50 169.62,280.59 169.74,280.68 C 169.87,280.77 170.01,280.87 170.16,280.98 C 170.32,281.08 170.50,281.19 170.69,281.31 C 170.88,281.43 171.10,281.54 171.31,281.69 C 171.52,281.83 171.74,282.00 171.95,282.19 C 172.17,282.38 172.39,282.58 172.61,282.81 C 172.83,283.04 173.05,283.29 173.28,283.56 C 173.51,283.83 173.74,284.12 173.97,284.44 C 174.20,284.75 174.43,285.08 174.67,285.44 C 174.91,285.79 175.15,286.17 175.39,286.56 C 175.63,286.96 175.88,287.38 176.12,287.81 C 176.37,288.25 176.66,288.76 176.88,289.19 C 177.09,289.62 177.26,290.02 177.40,290.40 C 177.54,290.77 177.63,291.12 177.70,291.45 C 177.76,291.77 177.78,292.06 177.77,292.33 C 177.75,292.60 177.70,292.83 177.61,293.05 C 177.52,293.26 177.39,293.44 177.23,293.60 C 177.06,293.76 176.86,293.89 176.62,293.99 C 176.38,294.10 176.10,294.17 175.78,294.22 C 175.46,294.27 175.09,294.31 174.72,294.28 C 174.35,294.26 173.96,294.18 173.56,294.06 C 173.16,293.94 172.74,293.78 172.31,293.56 C 171.88,293.35 171.43,293.09 170.97,292.78 C 170.51,292.47 170.03,292.12 169.53,291.72 C 169.04,291.32 168.53,290.87 168.00,290.38 C 167.47,289.88 166.93,289.34 166.38,288.75 C 165.82,288.16 165.24,287.53 164.66,286.84 C 164.07,286.16 163.43,285.36 162.84,284.66 C 162.25,283.96 161.68,283.29 161.12,282.65 C 160.56,282.01 160.01,281.40 159.48,280.82 C 158.94,280.24 158.43,279.69 157.92,279.17 C 157.42,278.65 156.93,278.16 156.45,277.70 C 155.98,277.24 155.52,276.81 155.07,276.41 C 154.62,276.01 154.19,275.64 153.77,275.30 C 153.36,274.96 152.95,274.65 152.56,274.38 C 152.17,274.10 151.79,273.87 151.44,273.62 C 151.08,273.38 150.75,273.15 150.44,272.92 C 150.12,272.70 149.83,272.48 149.56,272.27 C 149.29,272.05 149.04,271.85 148.81,271.66 C 148.58,271.46 148.38,271.27 148.19,271.09 C 148.00,270.91 147.83,270.74 147.69,270.58 C 147.54,270.41 147.42,270.26 147.31,270.11 C 147.21,269.96 147.12,269.82 147.06,269.69 C 147.00,269.55 146.97,269.44 146.94,269.31 C 146.90,269.18 146.87,269.05 146.84,268.91 C 146.82,268.77 146.80,268.62 146.78,268.47 C 146.77,268.32 146.76,268.16 146.75,268.00 C 146.74,267.84 146.74,267.67 146.75,267.50 C 146.76,267.33 146.77,267.15 146.78,266.97 C 146.80,266.79 146.82,266.60 146.84,266.41 C 146.87,266.21 146.90,266.02 146.94,265.81 C 146.97,265.61 147.01,265.39 147.06,265.19 C 147.12,264.98 147.19,264.78 147.27,264.59 C 147.36,264.39 147.46,264.20 147.57,264.01 C 147.68,263.82 147.81,263.63 147.95,263.45 C 148.10,263.27 148.25,263.10 148.42,262.92 C 148.59,262.75 148.78,262.58 148.98,262.41 C 149.18,262.25 149.39,262.09 149.62,261.93 C 149.85,261.77 150.09,261.62 150.34,261.47 C 150.60,261.32 150.86,261.22 151.16,261.03 C 151.45,260.85 151.77,260.62 152.12,260.35 C 152.46,260.08 152.83,259.78 153.23,259.43 C 153.62,259.08 154.04,258.69 154.48,258.27 C 154.93,257.84 155.40,257.37 155.89,256.86 C 156.38,256.35 156.90,255.80 157.45,255.21 C 157.99,254.62 158.56,253.99 159.15,253.32 C 159.74,252.65 160.36,251.94 161.00,251.19 C 161.64,250.44 162.35,249.55 163.00,248.81 C 163.65,248.07 164.28,247.38 164.90,246.74 C 165.51,246.10 166.11,245.51 166.70,244.98 C 167.28,244.44 167.84,243.95 168.39,243.52 C 168.94,243.08 169.47,242.69 169.98,242.36 C 170.50,242.02 171.00,241.74 171.48,241.51 C 171.96,241.27 172.42,241.09 172.87,240.96 C 173.31,240.83 173.74,240.75 174.16,240.72 C 174.57,240.69 174.99,240.74 175.34,240.78 C 175.70,240.82 176.02,240.89 176.30,240.98 C 176.59,241.06 176.83,241.17 177.04,241.30 C 177.25,241.44 177.42,241.59 177.55,241.77 C 177.68,241.94 177.77,242.14 177.83,242.36 C 177.88,242.58 177.90,242.82 177.88,243.09 C 177.86,243.35 177.81,243.64 177.71,243.95 C 177.62,244.25 177.48,244.58 177.31,244.94 C 177.14,245.29 176.90,245.70 176.69,246.06 C 176.48,246.42 176.27,246.77 176.06,247.09 C 175.85,247.42 175.65,247.73 175.44,248.03 C 175.23,248.33 175.02,248.61 174.81,248.88 C 174.60,249.14 174.40,249.39 174.19,249.62 C 173.98,249.86 173.77,250.08 173.56,250.28 C 173.35,250.48 173.15,250.67 172.94,250.84 C 172.73,251.02 172.52,251.17 172.31,251.31 C 172.10,251.45 171.88,251.57 171.69,251.69 C 171.49,251.81 171.31,251.93 171.15,252.04 C 170.98,252.15 170.83,252.26 170.70,252.37 C 170.56,252.47 170.44,252.57 170.33,252.67 C 170.22,252.77 170.13,252.86 170.05,252.95 C 169.97,253.04 169.90,253.13 169.85,253.21 C 169.80,253.29 169.76,253.37 169.74,253.45 C 169.72,253.52 169.71,253.59 169.72,253.66 C 169.73,253.72 169.73,253.80 169.78,253.84 C 169.83,253.89 169.92,253.92 170.04,253.93 C 170.16,253.94 170.31,253.94 170.49,253.91 C 170.68,253.89 170.89,253.85 171.14,253.80 C 171.39,253.74 171.67,253.67 171.98,253.58 C 172.30,253.49 172.64,253.38 173.02,253.26 C 173.40,253.13 173.81,252.99 174.26,252.84 C 174.70,252.68 175.18,252.50 175.69,252.31 C 176.20,252.12 176.74,251.90 177.31,251.69 C 177.88,251.48 178.48,251.27 179.11,251.06 C 179.74,250.85 180.39,250.65 181.08,250.44 C 181.76,250.23 182.48,250.02 183.22,249.81 C 183.96,249.60 184.73,249.40 185.53,249.19 C 186.33,248.98 187.16,248.77 188.02,248.56 C 188.87,248.35 189.76,248.15 190.67,247.94 C 191.59,247.73 192.53,247.52 193.50,247.31 C 194.47,247.10 195.53,246.91 196.50,246.69 C 197.47,246.46 198.41,246.22 199.33,245.97 C 200.24,245.71 201.13,245.44 201.98,245.16 C 202.84,244.87 203.67,244.57 204.47,244.25 C 205.27,243.93 206.04,243.60 206.78,243.25 C 207.52,242.90 208.24,242.54 208.92,242.16 C 209.61,241.78 210.26,241.38 210.89,240.97 C 211.52,240.56 212.12,240.13 212.69,239.69 C 213.26,239.24 213.78,238.75 214.31,238.31 C 214.84,237.88 215.36,237.46 215.88,237.06 C 216.39,236.67 216.89,236.29 217.38,235.94 C 217.86,235.58 218.34,235.25 218.81,234.94 C 219.28,234.62 219.74,234.33 220.19,234.06 C 220.64,233.79 221.07,233.54 221.50,233.31 C 221.93,233.08 222.34,232.88 222.75,232.69 C 223.16,232.50 223.55,232.33 223.94,232.19 C 224.32,232.04 224.62,231.93 225.06,231.81 C 225.50,231.69 226.00,231.58 226.56,231.47 C 227.12,231.36 227.75,231.26 228.44,231.16 C 229.12,231.06 229.88,230.96 230.69,230.88 C 231.50,230.79 232.38,230.70 233.31,230.62 C 234.25,230.55 235.25,230.47 236.31,230.41 C 237.38,230.34 238.50,230.28 239.69,230.22 C 240.88,230.16 242.12,230.11 243.44,230.06 C 244.75,230.02 246.25,229.97 247.56,229.94 C 248.87,229.90 250.12,229.88 251.30,229.86 C 252.48,229.84 253.59,229.83 254.64,229.83 C 255.69,229.83 256.67,229.83 257.59,229.84 C 258.51,229.86 259.37,229.88 260.16,229.91 C 260.95,229.93 261.67,229.97 262.33,230.02 C 262.99,230.06 263.58,230.11 264.11,230.17 C 264.64,230.23 265.10,230.30 265.50,230.38 C 265.90,230.45 266.11,230.56 266.50,230.62 C 266.89,230.69 267.33,230.73 267.83,230.75 C 268.33,230.77 268.88,230.77 269.48,230.75 C 270.09,230.73 270.75,230.69 271.47,230.62 C 272.18,230.56 272.96,230.48 273.78,230.38 C 274.61,230.27 275.49,230.15 276.42,230.00 C 277.36,229.85 278.35,229.69 279.39,229.50 C 280.43,229.31 281.53,229.10 282.69,228.88 C 283.84,228.65 285.16,228.38 286.31,228.12 C 287.46,227.87 288.56,227.62 289.60,227.37 C 290.64,227.11 291.63,226.86 292.55,226.60 C 293.48,226.35 294.36,226.09 295.17,225.83 C 295.99,225.57 296.75,225.31 297.45,225.05 C 298.16,224.79 298.81,224.52 299.40,224.26 C 299.99,223.99 300.53,223.73 301.01,223.46 C 301.49,223.19 301.91,222.93 302.28,222.66 C 302.65,222.39 302.93,222.11 303.22,221.84 C 303.51,221.57 303.79,221.31 304.04,221.04 C 304.29,220.77 304.53,220.51 304.74,220.24 C 304.96,219.98 305.15,219.71 305.33,219.45 C 305.50,219.19 305.66,218.93 305.80,218.67 C 305.93,218.41 306.05,218.15 306.15,217.90 C 306.25,217.64 306.32,217.39 306.38,217.13 C 306.44,216.88 306.48,216.63 306.50,216.38 C 306.52,216.12 306.51,215.87 306.50,215.62 C 306.49,215.38 306.46,215.15 306.43,214.93 C 306.39,214.71 306.35,214.49 306.29,214.29 C 306.23,214.08 306.16,213.89 306.08,213.70 C 306.00,213.52 305.90,213.34 305.80,213.17 C 305.69,213.00 305.57,212.85 305.45,212.70 C 305.32,212.55 305.18,212.40 305.02,212.27 C 304.87,212.14 304.71,212.02 304.53,211.91 C 304.36,211.79 304.18,211.69 303.97,211.59 C 303.75,211.50 303.51,211.41 303.24,211.34 C 302.97,211.26 302.68,211.19 302.35,211.13 C 302.03,211.07 301.68,211.02 301.30,210.98 C 300.92,210.94 300.51,210.91 300.08,210.89 C 299.64,210.87 299.18,210.86 298.70,210.85 C 298.21,210.85 297.69,210.85 297.15,210.87 C 296.61,210.88 296.04,210.90 295.44,210.94 C 294.84,210.97 294.15,211.03 293.56,211.06 C 292.97,211.09 292.42,211.11 291.90,211.12 C 291.38,211.12 290.89,211.12 290.45,211.10 C 290.00,211.08 289.58,211.06 289.20,211.02 C 288.82,210.98 288.48,210.92 288.17,210.86 C 287.86,210.80 287.59,210.72 287.35,210.63 C 287.11,210.55 286.91,210.45 286.74,210.34 C 286.57,210.23 286.44,210.10 286.34,209.97 C 286.25,209.83 286.21,209.67 286.16,209.53 C 286.10,209.39 286.05,209.26 286.02,209.12 C 285.98,208.99 285.95,208.87 285.92,208.75 C 285.90,208.63 285.88,208.52 285.88,208.41 C 285.87,208.30 285.87,208.19 285.88,208.09 C 285.88,207.99 285.90,207.90 285.92,207.81 C 285.95,207.72 285.98,207.64 286.02,207.56 C 286.05,207.48 286.10,207.41 286.16,207.34 C 286.21,207.28 286.27,207.21 286.34,207.16 C 286.41,207.10 286.49,207.05 286.57,207.01 C 286.65,206.96 286.74,206.93 286.84,206.90 C 286.93,206.87 287.03,206.85 287.14,206.83 C 287.25,206.81 287.36,206.80 287.48,206.80 C 287.61,206.79 287.73,206.80 287.87,206.80 C 288.00,206.81 288.14,206.83 288.29,206.85 C 288.44,206.87 288.59,206.90 288.75,206.94 C 288.91,206.97 289.06,207.03 289.25,207.06 C 289.44,207.10 289.67,207.13 289.91,207.15 C 290.16,207.17 290.44,207.19 290.74,207.20 C 291.05,207.20 291.38,207.21 291.73,207.20 C 292.09,207.20 292.48,207.19 292.89,207.17 C 293.30,207.15 293.74,207.13 294.21,207.10 C 294.68,207.07 295.17,207.04 295.70,206.99 C 296.22,206.95 296.77,206.90 297.34,206.84 C 297.92,206.79 298.61,206.87 299.16,206.66 C 299.70,206.45 300.18,206.09 300.60,205.59 C 301.02,205.08 301.38,204.43 301.68,203.63 C 301.98,202.83 302.21,201.89 302.39,200.80 C 302.57,199.70 302.68,198.46 302.73,197.08 C 302.79,195.69 302.78,194.16 302.71,192.48 C 302.64,190.80 302.51,188.97 302.32,186.99 C 302.13,185.02 301.88,182.89 301.56,180.62 C 301.25,178.36 300.79,175.64 300.44,173.38 C 300.09,171.11 299.77,168.98 299.48,167.01 C 299.18,165.03 298.92,163.20 298.68,161.52 C 298.44,159.84 298.23,158.31 298.05,156.92 C 297.86,155.54 297.71,154.30 297.58,153.20 C 297.45,152.11 297.35,151.17 297.27,150.37 C 297.20,149.57 297.15,148.92 297.13,148.41 C 297.11,147.91 297.12,147.55 297.16,147.34 C 297.19,147.13 297.25,147.21 297.34,147.16 C 297.44,147.10 297.57,147.05 297.74,147.01 C 297.91,146.96 298.11,146.93 298.35,146.90 C 298.59,146.87 298.86,146.85 299.17,146.83 C 299.48,146.81 299.82,146.80 300.20,146.80 C 300.58,146.79 301.00,146.80 301.45,146.80 C 301.89,146.81 302.38,146.83 302.90,146.85 C 303.42,146.87 303.97,146.90 304.56,146.94 C 305.15,146.97 305.76,146.88 306.44,147.06 C 307.11,147.24 307.84,147.56 308.62,148.01 C 309.39,148.46 310.22,149.05 311.10,149.77 C 311.98,150.50 312.91,151.36 313.89,152.36 C 314.87,153.36 315.90,154.49 316.98,155.77 C 318.07,157.04 319.20,158.45 320.38,159.99 C 321.57,161.54 322.80,163.22 324.09,165.04 C 325.37,166.86 326.71,168.81 328.09,170.91 C 329.48,173.00 331.07,175.46 332.41,177.59 C 333.75,179.72 334.99,181.75 336.13,183.68 C 337.28,185.61 338.32,187.44 339.27,189.16 C 340.22,190.89 341.07,192.52 341.83,194.05 C 342.58,195.57 343.24,197.00 343.80,198.33 C 344.36,199.65 344.82,200.88 345.18,202.01 C 345.54,203.13 345.81,204.16 345.98,205.09 C 346.14,206.01 346.21,206.84 346.19,207.56 C 346.16,208.29 345.93,208.85 345.81,209.44 C 345.70,210.03 345.60,210.59 345.51,211.12 C 345.42,211.64 345.34,212.14 345.27,212.60 C 345.21,213.06 345.15,213.49 345.11,213.89 C 345.07,214.29 345.04,214.65 345.02,214.98 C 345.00,215.32 344.99,215.62 344.99,215.88 C 345.00,216.15 345.01,216.38 345.04,216.59 C 345.07,216.79 345.11,216.96 345.16,217.09 C 345.21,217.23 345.25,217.29 345.34,217.41 C 345.44,217.52 345.56,217.64 345.71,217.77 C 345.86,217.90 346.05,218.05 346.26,218.20 C 346.47,218.35 346.71,218.50 346.98,218.67 C 347.26,218.84 347.56,219.02 347.89,219.20 C 348.22,219.39 348.58,219.58 348.98,219.79 C 349.37,219.99 349.79,220.21 350.24,220.43 C 350.69,220.65 351.18,220.88 351.69,221.12 C 352.20,221.37 352.76,221.64 353.31,221.88 C 353.86,222.11 354.43,222.33 355.00,222.53 C 355.57,222.73 356.16,222.92 356.75,223.09 C 357.34,223.27 357.95,223.42 358.56,223.56 C 359.18,223.70 359.80,223.83 360.44,223.94 C 361.07,224.05 361.72,224.14 362.38,224.22 C 363.03,224.30 363.70,224.36 364.38,224.41 C 365.05,224.45 365.74,224.48 366.44,224.50 C 367.14,224.52 367.85,224.49 368.56,224.50 C 369.28,224.51 369.99,224.54 370.72,224.58 C 371.44,224.62 372.17,224.67 372.91,224.73 C 373.64,224.80 374.38,224.88 375.12,224.97 C 375.87,225.06 376.62,225.16 377.38,225.28 C 378.13,225.40 378.89,225.53 379.66,225.67 C 380.42,225.82 381.19,225.97 381.97,226.14 C 382.74,226.31 383.53,226.49 384.31,226.69 C 385.10,226.88 385.94,227.10 386.69,227.31 C 387.44,227.52 388.15,227.73 388.81,227.94 C 389.48,228.15 390.10,228.35 390.69,228.56 C 391.27,228.77 391.81,228.98 392.31,229.19 C 392.81,229.40 393.27,229.60 393.69,229.81 C 394.10,230.02 394.48,230.23 394.81,230.44 C 395.15,230.65 395.44,230.85 395.69,231.06 C 395.94,231.27 396.15,231.48 396.31,231.69 C 396.48,231.90 396.55,232.12 396.69,232.31 C 396.83,232.51 396.98,232.68 397.16,232.84 C 397.33,233.01 397.52,233.15 397.72,233.28 C 397.92,233.41 398.14,233.53 398.38,233.62 C 398.61,233.72 398.86,233.81 399.12,233.88 C 399.39,233.94 399.67,233.99 399.97,234.03 C 400.27,234.07 400.58,234.09 400.91,234.09 C 401.23,234.10 401.58,234.09 401.94,234.06 C 402.30,234.04 402.71,233.97 403.06,233.94 C 403.42,233.90 403.76,233.88 404.08,233.86 C 404.40,233.84 404.70,233.83 404.98,233.83 C 405.27,233.83 405.53,233.83 405.78,233.84 C 406.03,233.86 406.26,233.88 406.47,233.91 C 406.68,233.93 406.87,233.97 407.05,234.02 C 407.22,234.06 407.38,234.11 407.52,234.17 C 407.65,234.23 407.77,234.30 407.88,234.38 C 407.98,234.45 407.97,234.55 408.12,234.62 C 408.28,234.70 408.52,234.78 408.83,234.84 C 409.14,234.91 409.52,234.97 409.98,235.03 C 410.45,235.09 410.98,235.14 411.59,235.19 C 412.21,235.23 412.89,235.28 413.66,235.31 C 414.42,235.35 415.26,235.38 416.17,235.41 C 417.09,235.43 418.08,235.45 419.14,235.47 C 420.21,235.48 421.35,235.49 422.56,235.50 C 423.78,235.51 425.22,235.49 426.44,235.50 C 427.65,235.51 428.80,235.52 429.87,235.54 C 430.94,235.56 431.93,235.58 432.85,235.62 C 433.77,235.65 434.62,235.69 435.39,235.73 C 436.16,235.78 436.86,235.83 437.48,235.89 C 438.11,235.95 438.66,236.01 439.13,236.09 C 439.61,236.16 440.01,236.24 440.34,236.32 C 440.66,236.40 440.92,236.50 441.09,236.59 C 441.27,236.69 441.31,236.75 441.41,236.91 C 441.50,237.06 441.60,237.27 441.68,237.54 C 441.76,237.80 441.84,238.12 441.91,238.49 C 441.99,238.86 442.05,239.29 442.11,239.77 C 442.17,240.24 442.22,240.77 442.27,241.36 C 442.31,241.94 442.35,242.58 442.38,243.27 C 442.42,243.96 442.44,244.71 442.46,245.51 C 442.48,246.31 442.49,247.16 442.50,248.06 C 442.51,248.97 442.51,250.03 442.50,250.94 C 442.49,251.84 442.48,252.69 442.46,253.49 C 442.44,254.29 442.42,255.04 442.38,255.73 C 442.35,256.42 442.31,257.06 442.27,257.64 C 442.22,258.23 442.17,258.76 442.11,259.23 C 442.05,259.71 441.99,260.14 441.91,260.51 C 441.84,260.88 441.76,261.20 441.68,261.46 C 441.60,261.73 441.50,261.94 441.41,262.09 C 441.31,262.25 441.27,262.31 441.09,262.41 C 440.92,262.50 440.66,262.60 440.34,262.68 C 440.01,262.76 439.61,262.84 439.13,262.91 C 438.66,262.99 438.11,263.05 437.48,263.11 C 436.86,263.17 436.16,263.22 435.39,263.27 C 434.62,263.31 433.77,263.35 432.85,263.38 C 431.93,263.42 430.94,263.44 429.87,263.46 C 428.80,263.48 427.65,263.49 426.44,263.50 C 425.22,263.51 423.78,263.50 422.56,263.50 C 421.35,263.50 420.21,263.51 419.15,263.52 C 418.09,263.54 417.10,263.55 416.20,263.57 C 415.29,263.59 414.46,263.61 413.70,263.64 C 412.95,263.67 412.27,263.70 411.67,263.73 C 411.07,263.77 410.55,263.81 410.10,263.85 C 409.65,263.89 409.29,263.94 408.99,263.99 C 408.70,264.04 408.48,264.10 408.34,264.16 C 408.20,264.21 408.21,264.27 408.16,264.34 C 408.10,264.42 408.05,264.50 408.02,264.59 C 407.98,264.69 407.95,264.79 407.92,264.91 C 407.90,265.02 407.88,265.15 407.88,265.28 C 407.87,265.42 407.87,265.56 407.88,265.72 C 407.88,265.88 407.90,266.04 407.92,266.22 C 407.95,266.40 407.98,266.58 408.02,266.78 C 408.05,266.98 408.10,267.19 408.16,267.41 C 408.21,267.62 408.20,267.88 408.34,268.09 C 408.48,268.31 408.70,268.51 408.99,268.70 C 409.29,268.88 409.65,269.05 410.10,269.21 C 410.55,269.37 411.07,269.51 411.67,269.64 C 412.27,269.77 412.95,269.88 413.70,269.98 C 414.46,270.08 415.29,270.17 416.20,270.24 C 417.10,270.31 418.09,270.37 419.15,270.41 C 420.21,270.46 421.35,270.49 422.56,270.50 C 423.78,270.51 425.22,270.49 426.44,270.50 C 427.65,270.51 428.80,270.53 429.87,270.55 C 430.94,270.58 431.93,270.62 432.85,270.66 C 433.77,270.71 434.62,270.76 435.39,270.83 C 436.16,270.89 436.86,270.96 437.48,271.05 C 438.11,271.13 438.66,271.22 439.13,271.32 C 439.61,271.42 440.01,271.53 440.34,271.65 C 440.66,271.77 440.92,271.89 441.09,272.03 C 441.27,272.17 441.31,272.27 441.41,272.47 C 441.50,272.66 441.60,272.90 441.68,273.20 C 441.76,273.49 441.84,273.82 441.91,274.21 C 441.99,274.60 442.05,275.03 442.11,275.52 C 442.17,276.00 442.22,276.53 442.27,277.11 C 442.31,277.69 442.35,278.32 442.38,278.99 C 442.42,279.67 442.44,280.39 442.46,281.16 C 442.48,281.94 442.49,282.76 442.50,283.62 C 442.51,284.49 442.51,285.51 442.50,286.38 C 442.49,287.24 442.47,288.06 442.45,288.84 C 442.42,289.61 442.38,290.33 442.34,291.01 C 442.29,291.68 442.24,292.31 442.17,292.89 C 442.11,293.47 442.04,294.00 441.95,294.48 C 441.87,294.97 441.78,295.40 441.68,295.79 C 441.58,296.18 441.47,296.51 441.35,296.80 C 441.23,297.10 441.11,297.34 440.97,297.53 C 440.83,297.73 440.75,297.83 440.53,297.97 C 440.32,298.10 440.03,298.23 439.68,298.34 C 439.33,298.45 438.90,298.55 438.41,298.63 C 437.92,298.72 437.36,298.80 436.73,298.86 C 436.11,298.92 435.41,298.98 434.64,299.02 C 433.87,299.06 433.04,299.08 432.13,299.10 C 431.23,299.12 430.25,299.12 429.21,299.12 C 428.17,299.11 427.06,299.09 425.88,299.06 C 424.69,299.03 423.30,298.97 422.12,298.94 C 420.95,298.90 419.84,298.88 418.81,298.86 C 417.78,298.84 416.82,298.83 415.94,298.83 C 415.05,298.83 414.24,298.83 413.50,298.84 C 412.76,298.86 412.09,298.88 411.50,298.91 C 410.91,298.93 410.39,298.97 409.94,299.02 C 409.49,299.06 409.11,299.11 408.81,299.17 C 408.51,299.23 408.28,299.30 408.12,299.38 C 407.97,299.45 407.98,299.55 407.88,299.62 C 407.77,299.70 407.65,299.78 407.52,299.84 C 407.38,299.91 407.22,299.97 407.05,300.03 C 406.87,300.09 406.68,300.14 406.47,300.19 C 406.26,300.23 406.03,300.28 405.78,300.31 C 405.53,300.35 405.27,300.38 404.98,300.41 C 404.70,300.43 404.40,300.45 404.08,300.47 C 403.76,300.48 403.42,300.49 403.06,300.50 C 402.71,300.51 402.30,300.49 401.94,300.50 C 401.58,300.51 401.23,300.53 400.91,300.56 C 400.58,300.59 400.27,300.64 399.97,300.69 C 399.67,300.74 399.39,300.80 399.12,300.88 C 398.86,300.95 398.61,301.03 398.38,301.12 C 398.14,301.22 397.92,301.32 397.72,301.44 C 397.52,301.55 397.33,301.68 397.16,301.81 C 396.98,301.95 396.83,302.09 396.69,302.25 C 396.55,302.41 396.48,302.58 396.31,302.75 C 396.15,302.92 395.95,303.09 395.70,303.27 C 395.46,303.44 395.18,303.62 394.86,303.80 C 394.54,303.98 394.18,304.16 393.78,304.34 C 393.38,304.53 392.95,304.72 392.47,304.91 C 391.99,305.10 391.48,305.29 390.92,305.48 C 390.37,305.68 389.77,305.88 389.14,306.08 C 388.51,306.28 387.84,306.48 387.12,306.69 C 386.41,306.89 385.63,307.11 384.88,307.31 C 384.12,307.51 383.36,307.70 382.59,307.88 C 381.83,308.05 381.06,308.22 380.28,308.38 C 379.51,308.53 378.72,308.68 377.94,308.81 C 377.15,308.95 376.36,309.07 375.56,309.19 C 374.77,309.30 373.96,309.41 373.16,309.50 C 372.35,309.59 371.54,309.68 370.72,309.75 C 369.90,309.82 369.08,309.89 368.25,309.94 C 367.42,309.99 366.56,310.01 365.75,310.06 C 364.94,310.11 364.16,310.18 363.41,310.25 C 362.65,310.32 361.92,310.41 361.22,310.50 C 360.52,310.59 359.84,310.70 359.19,310.81 C 358.54,310.93 357.91,311.05 357.31,311.19 C 356.71,311.32 356.14,311.47 355.59,311.62 C 355.05,311.78 354.53,311.95 354.03,312.12 C 353.54,312.30 353.07,312.49 352.62,312.69 C 352.18,312.89 351.77,313.11 351.38,313.31 C 350.98,313.52 350.60,313.72 350.24,313.91 C 349.88,314.11 349.55,314.30 349.23,314.49 C 348.91,314.68 348.61,314.87 348.33,315.05 C 348.05,315.23 347.79,315.40 347.55,315.58 C 347.31,315.75 347.08,315.92 346.88,316.09 C 346.68,316.25 346.50,316.41 346.34,316.57 C 346.17,316.73 346.03,316.88 345.91,317.03 C 345.78,317.18 345.68,317.30 345.59,317.47 C 345.50,317.64 345.43,317.84 345.37,318.07 C 345.31,318.30 345.26,318.55 345.23,318.84 C 345.19,319.12 345.18,319.43 345.17,319.77 C 345.17,320.10 345.18,320.47 345.20,320.86 C 345.23,321.25 345.27,321.67 345.32,322.12 C 345.37,322.56 345.44,323.04 345.52,323.54 C 345.61,324.04 345.70,324.57 345.81,325.12 C 345.92,325.68 346.16,326.19 346.19,326.88 C 346.21,327.56 346.14,328.36 345.96,329.26 C 345.79,330.16 345.51,331.16 345.13,332.27 C 344.76,333.38 344.28,334.60 343.70,335.92 C 343.13,337.24 342.45,338.67 341.67,340.20 C 340.89,341.74 340.02,343.37 339.04,345.12 C 338.06,346.86 336.98,348.71 335.80,350.66 C 334.63,352.62 333.35,354.68 331.97,356.84 C 330.59,359.01 328.95,361.53 327.53,363.66 C 326.11,365.79 324.74,367.77 323.43,369.62 C 322.12,371.46 320.86,373.17 319.66,374.73 C 318.46,376.29 317.32,377.71 316.23,378.98 C 315.15,380.26 314.12,381.40 313.14,382.39 C 312.17,383.38 311.25,384.24 310.38,384.95 C 309.52,385.65 308.71,386.22 307.96,386.65 C 307.21,387.07 306.51,387.36 305.88,387.50 Z" />
    </clipPath>
  </defs>
  <path d="M 305.88,387.50 C 305.24,387.64 304.68,387.50 304.12,387.50 C 303.57,387.50 303.06,387.49 302.57,387.48 C 302.08,387.46 301.63,387.45 301.21,387.43 C 300.79,387.41 300.40,387.39 300.05,387.36 C 299.69,387.33 299.37,387.30 299.08,387.27 C 298.79,387.23 298.53,387.19 298.30,387.15 C 298.08,387.11 297.89,387.06 297.73,387.01 C 297.57,386.96 297.44,386.90 297.34,386.84 C 297.25,386.79 297.19,386.86 297.16,386.66 C 297.12,386.45 297.11,386.10 297.13,385.60 C 297.15,385.11 297.20,384.46 297.27,383.68 C 297.35,382.89 297.45,381.96 297.58,380.89 C 297.71,379.82 297.86,378.60 298.05,377.23 C 298.23,375.87 298.44,374.36 298.68,372.71 C 298.92,371.06 299.18,369.26 299.48,367.32 C 299.77,365.38 300.09,363.29 300.44,361.06 C 300.79,358.83 301.21,356.17 301.56,353.94 C 301.91,351.71 302.23,349.62 302.52,347.68 C 302.82,345.74 303.08,343.94 303.32,342.29 C 303.56,340.64 303.77,339.13 303.95,337.77 C 304.14,336.40 304.29,335.18 304.42,334.11 C 304.55,333.04 304.65,332.11 304.73,331.32 C 304.80,330.54 304.85,329.89 304.87,329.40 C 304.89,328.90 304.88,328.55 304.84,328.34 C 304.81,328.14 304.76,328.22 304.66,328.16 C 304.55,328.10 304.40,328.04 304.20,327.98 C 304.01,327.93 303.77,327.88 303.48,327.83 C 303.20,327.78 302.87,327.73 302.50,327.69 C 302.13,327.64 301.71,327.60 301.25,327.56 C 300.79,327.52 300.28,327.49 299.73,327.45 C 299.18,327.42 298.59,327.39 297.95,327.36 C 297.32,327.33 296.63,327.30 295.91,327.28 C 295.18,327.26 294.32,327.25 293.59,327.22 C 292.87,327.19 292.20,327.15 291.58,327.11 C 290.96,327.07 290.38,327.01 289.86,326.95 C 289.34,326.89 288.86,326.83 288.44,326.75 C 288.01,326.67 287.64,326.59 287.31,326.50 C 286.99,326.41 286.71,326.31 286.48,326.20 C 286.26,326.10 286.08,325.98 285.95,325.86 C 285.83,325.74 285.75,325.61 285.72,325.47 C 285.69,325.33 285.71,325.17 285.78,325.03 C 285.85,324.89 285.96,324.77 286.12,324.65 C 286.27,324.53 286.48,324.42 286.73,324.32 C 286.98,324.22 287.27,324.13 287.61,324.05 C 287.95,323.96 288.33,323.89 288.77,323.83 C 289.20,323.76 289.67,323.71 290.20,323.66 C 290.72,323.62 291.29,323.58 291.90,323.55 C 292.51,323.53 293.17,323.51 293.88,323.50 C 294.58,323.49 295.42,323.51 296.12,323.50 C 296.83,323.49 297.50,323.48 298.13,323.46 C 298.76,323.44 299.35,323.42 299.90,323.38 C 300.45,323.35 300.95,323.31 301.42,323.27 C 301.89,323.22 302.32,323.17 302.70,323.11 C 303.09,323.05 303.44,322.99 303.74,322.91 C 304.05,322.84 304.31,322.76 304.54,322.68 C 304.76,322.60 304.95,322.50 305.09,322.41 C 305.24,322.31 305.31,322.21 305.41,322.09 C 305.50,321.98 305.60,321.86 305.68,321.73 C 305.76,321.60 305.84,321.45 305.91,321.30 C 305.99,321.15 306.05,321.00 306.11,320.83 C 306.17,320.66 306.22,320.48 306.27,320.30 C 306.31,320.11 306.35,319.92 306.38,319.71 C 306.42,319.51 306.44,319.29 306.46,319.07 C 306.48,318.85 306.49,318.62 306.50,318.38 C 306.51,318.13 306.52,317.87 306.50,317.62 C 306.48,317.38 306.45,317.13 306.40,316.88 C 306.35,316.64 306.28,316.39 306.20,316.15 C 306.11,315.90 306.01,315.66 305.89,315.42 C 305.77,315.18 305.64,314.94 305.48,314.70 C 305.33,314.46 305.16,314.23 304.98,313.99 C 304.79,313.76 304.59,313.52 304.37,313.29 C 304.15,313.06 303.91,312.82 303.66,312.59 C 303.40,312.36 303.16,312.14 302.84,311.91 C 302.53,311.68 302.17,311.44 301.77,311.21 C 301.37,310.98 300.93,310.74 300.45,310.51 C 299.96,310.27 299.43,310.04 298.86,309.80 C 298.29,309.56 297.67,309.32 297.02,309.08 C 296.36,308.84 295.66,308.60 294.91,308.35 C 294.17,308.11 293.38,307.86 292.55,307.62 C 291.73,307.37 290.85,307.12 289.94,306.88 C 289.02,306.63 287.99,306.36 287.06,306.12 C 286.13,305.89 285.23,305.67 284.36,305.47 C 283.49,305.27 282.64,305.08 281.83,304.91 C 281.01,304.73 280.23,304.58 279.47,304.44 C 278.71,304.30 277.98,304.17 277.28,304.06 C 276.58,303.95 275.91,303.86 275.27,303.78 C 274.62,303.70 274.01,303.64 273.42,303.59 C 272.84,303.55 272.28,303.52 271.75,303.50 C 271.22,303.48 270.73,303.49 270.25,303.50 C 269.77,303.51 269.31,303.52 268.88,303.53 C 268.44,303.55 268.02,303.57 267.62,303.59 C 267.23,303.62 266.85,303.65 266.50,303.69 C 266.15,303.72 265.81,303.77 265.50,303.81 C 265.19,303.86 264.90,303.91 264.62,303.97 C 264.35,304.03 264.10,304.09 263.88,304.16 C 263.65,304.22 263.44,304.30 263.25,304.38 C 263.06,304.45 262.99,304.55 262.75,304.62 C 262.51,304.70 262.18,304.76 261.78,304.81 C 261.38,304.86 260.90,304.91 260.34,304.94 C 259.79,304.97 259.15,304.99 258.44,305.00 C 257.72,305.01 256.93,305.01 256.06,305.00 C 255.19,304.99 254.24,304.97 253.22,304.94 C 252.19,304.91 251.09,304.86 249.91,304.81 C 248.72,304.76 247.46,304.70 246.12,304.62 C 244.79,304.55 243.23,304.46 241.88,304.38 C 240.52,304.29 239.24,304.19 238.02,304.09 C 236.79,303.99 235.64,303.89 234.55,303.78 C 233.46,303.67 232.43,303.56 231.47,303.44 C 230.51,303.32 229.61,303.19 228.78,303.06 C 227.95,302.93 227.18,302.80 226.48,302.66 C 225.78,302.52 225.15,302.37 224.58,302.22 C 224.01,302.07 223.50,301.91 223.06,301.75 C 222.62,301.59 222.32,301.43 221.94,301.25 C 221.56,301.07 221.18,300.88 220.80,300.67 C 220.41,300.47 220.03,300.25 219.64,300.02 C 219.25,299.78 218.86,299.54 218.47,299.28 C 218.08,299.02 217.68,298.75 217.28,298.47 C 216.88,298.18 216.48,297.89 216.08,297.58 C 215.67,297.27 215.27,296.95 214.86,296.61 C 214.45,296.27 214.04,295.92 213.62,295.56 C 213.21,295.20 212.82,294.80 212.38,294.44 C 211.93,294.07 211.45,293.72 210.94,293.38 C 210.43,293.03 209.89,292.70 209.31,292.38 C 208.74,292.05 208.14,291.74 207.50,291.44 C 206.86,291.14 206.20,290.84 205.50,290.56 C 204.80,290.28 204.07,290.01 203.31,289.75 C 202.55,289.49 201.76,289.24 200.94,289.00 C 200.11,288.76 199.26,288.53 198.38,288.31 C 197.49,288.09 196.53,287.90 195.62,287.69 C 194.72,287.48 193.84,287.26 192.97,287.05 C 192.10,286.83 191.24,286.61 190.41,286.39 C 189.57,286.17 188.74,285.95 187.94,285.72 C 187.13,285.49 186.34,285.26 185.56,285.03 C 184.79,284.80 184.03,284.57 183.28,284.33 C 182.54,284.09 181.81,283.85 181.09,283.61 C 180.38,283.37 179.68,283.12 179.00,282.88 C 178.32,282.63 177.63,282.36 177.00,282.12 C 176.37,281.89 175.78,281.68 175.23,281.48 C 174.67,281.28 174.16,281.10 173.68,280.93 C 173.20,280.76 172.76,280.62 172.36,280.48 C 171.96,280.35 171.59,280.24 171.27,280.14 C 170.94,280.04 170.65,279.96 170.40,279.90 C 170.15,279.83 169.93,279.79 169.76,279.76 C 169.58,279.73 169.44,279.71 169.34,279.72 C 169.24,279.72 169.20,279.75 169.16,279.78 C 169.11,279.81 169.08,279.84 169.07,279.88 C 169.06,279.92 169.06,279.97 169.09,280.02 C 169.11,280.08 169.15,280.14 169.20,280.20 C 169.26,280.27 169.33,280.34 169.42,280.42 C 169.51,280.50 169.62,280.59 169.74,280.68 C 169.87,280.77 170.01,280.87 170.16,280.98 C 170.32,281.08 170.50,281.19 170.69,281.31 C 170.88,281.43 171.10,281.54 171.31,281.69 C 171.52,281.83 171.74,282.00 171.95,282.19 C 172.17,282.38 172.39,282.58 172.61,282.81 C 172.83,283.04 173.05,283.29 173.28,283.56 C 173.51,283.83 173.74,284.12 173.97,284.44 C 174.20,284.75 174.43,285.08 174.67,285.44 C 174.91,285.79 175.15,286.17 175.39,286.56 C 175.63,286.96 175.88,287.38 176.12,287.81 C 176.37,288.25 176.66,288.76 176.88,289.19 C 177.09,289.62 177.26,290.02 177.40,290.40 C 177.54,290.77 177.63,291.12 177.70,291.45 C 177.76,291.77 177.78,292.06 177.77,292.33 C 177.75,292.60 177.70,292.83 177.61,293.05 C 177.52,293.26 177.39,293.44 177.23,293.60 C 177.06,293.76 176.86,293.89 176.62,293.99 C 176.38,294.10 176.10,294.17 175.78,294.22 C 175.46,294.27 175.09,294.31 174.72,294.28 C 174.35,294.26 173.96,294.18 173.56,294.06 C 173.16,293.94 172.74,293.78 172.31,293.56 C 171.88,293.35 171.43,293.09 170.97,292.78 C 170.51,292.47 170.03,292.12 169.53,291.72 C 169.04,291.32 168.53,290.87 168.00,290.38 C 167.47,289.88 166.93,289.34 166.38,288.75 C 165.82,288.16 165.24,287.53 164.66,286.84 C 164.07,286.16 163.43,285.36 162.84,284.66 C 162.25,283.96 161.68,283.29 161.12,282.65 C 160.56,282.01 160.01,281.40 159.48,280.82 C 158.94,280.24 158.43,279.69 157.92,279.17 C 157.42,278.65 156.93,278.16 156.45,277.70 C 155.98,277.24 155.52,276.81 155.07,276.41 C 154.62,276.01 154.19,275.64 153.77,275.30 C 153.36,274.96 152.95,274.65 152.56,274.38 C 152.17,274.10 151.79,273.87 151.44,273.62 C 151.08,273.38 150.75,273.15 150.44,272.92 C 150.12,272.70 149.83,272.48 149.56,272.27 C 149.29,272.05 149.04,271.85 148.81,271.66 C 148.58,271.46 148.38,271.27 148.19,271.09 C 148.00,270.91 147.83,270.74 147.69,270.58 C 147.54,270.41 147.42,270.26 147.31,270.11 C 147.21,269.96 147.12,269.82 147.06,269.69 C 147.00,269.55 146.97,269.44 146.94,269.31 C 146.90,269.18 146.87,269.05 146.84,268.91 C 146.82,268.77 146.80,268.62 146.78,268.47 C 146.77,268.32 146.76,268.16 146.75,268.00 C 146.74,267.84 146.74,267.67 146.75,267.50 C 146.76,267.33 146.77,267.15 146.78,266.97 C 146.80,266.79 146.82,266.60 146.84,266.41 C 146.87,266.21 146.90,266.02 146.94,265.81 C 146.97,265.61 147.01,265.39 147.06,265.19 C 147.12,264.98 147.19,264.78 147.27,264.59 C 147.36,264.39 147.46,264.20 147.57,264.01 C 147.68,263.82 147.81,263.63 147.95,263.45 C 148.10,263.27 148.25,263.10 148.42,262.92 C 148.59,262.75 148.78,262.58 148.98,262.41 C 149.18,262.25 149.39,262.09 149.62,261.93 C 149.85,261.77 150.09,261.62 150.34,261.47 C 150.60,261.32 150.86,261.22 151.16,261.03 C 151.45,260.85 151.77,260.62 152.12,260.35 C 152.46,260.08 152.83,259.78 153.23,259.43 C 153.62,259.08 154.04,258.69 154.48,258.27 C 154.93,257.84 155.40,257.37 155.89,256.86 C 156.38,256.35 156.90,255.80 157.45,255.21 C 157.99,254.62 158.56,253.99 159.15,253.32 C 159.74,252.65 160.36,251.94 161.00,251.19 C 161.64,250.44 162.35,249.55 163.00,248.81 C 163.65,248.07 164.28,247.38 164.90,246.74 C 165.51,246.10 166.11,245.51 166.70,244.98 C 167.28,244.44 167.84,243.95 168.39,243.52 C 168.94,243.08 169.47,242.69 169.98,242.36 C 170.50,242.02 171.00,241.74 171.48,241.51 C 171.96,241.27 172.42,241.09 172.87,240.96 C 173.31,240.83 173.74,240.75 174.16,240.72 C 174.57,240.69 174.99,240.74 175.34,240.78 C 175.70,240.82 176.02,240.89 176.30,240.98 C 176.59,241.06 176.83,241.17 177.04,241.30 C 177.25,241.44 177.42,241.59 177.55,241.77 C 177.68,241.94 177.77,242.14 177.83,242.36 C 177.88,242.58 177.90,242.82 177.88,243.09 C 177.86,243.35 177.81,243.64 177.71,243.95 C 177.62,244.25 177.48,244.58 177.31,244.94 C 177.14,245.29 176.90,245.70 176.69,246.06 C 176.48,246.42 176.27,246.77 176.06,247.09 C 175.85,247.42 175.65,247.73 175.44,248.03 C 175.23,248.33 175.02,248.61 174.81,248.88 C 174.60,249.14 174.40,249.39 174.19,249.62 C 173.98,249.86 173.77,250.08 173.56,250.28 C 173.35,250.48 173.15,250.67 172.94,250.84 C 172.73,251.02 172.52,251.17 172.31,251.31 C 172.10,251.45 171.88,251.57 171.69,251.69 C 171.49,251.81 171.31,251.93 171.15,252.04 C 170.98,252.15 170.83,252.26 170.70,252.37 C 170.56,252.47 170.44,252.57 170.33,252.67 C 170.22,252.77 170.13,252.86 170.05,252.95 C 169.97,253.04 169.90,253.13 169.85,253.21 C 169.80,253.29 169.76,253.37 169.74,253.45 C 169.72,253.52 169.71,253.59 169.72,253.66 C 169.73,253.72 169.73,253.80 169.78,253.84 C 169.83,253.89 169.92,253.92 170.04,253.93 C 170.16,253.94 170.31,253.94 170.49,253.91 C 170.68,253.89 170.89,253.85 171.14,253.80 C 171.39,253.74 171.67,253.67 171.98,253.58 C 172.30,253.49 172.64,253.38 173.02,253.26 C 173.40,253.13 173.81,252.99 174.26,252.84 C 174.70,252.68 175.18,252.50 175.69,252.31 C 176.20,252.12 176.74,251.90 177.31,251.69 C 177.88,251.48 178.48,251.27 179.11,251.06 C 179.74,250.85 180.39,250.65 181.08,250.44 C 181.76,250.23 182.48,250.02 183.22,249.81 C 183.96,249.60 184.73,249.40 185.53,249.19 C 186.33,248.98 187.16,248.77 188.02,248.56 C 188.87,248.35 189.76,248.15 190.67,247.94 C 191.59,247.73 192.53,247.52 193.50,247.31 C 194.47,247.10 195.53,246.91 196.50,246.69 C 197.47,246.46 198.41,246.22 199.33,245.97 C 200.24,245.71 201.13,245.44 201.98,245.16 C 202.84,244.87 203.67,244.57 204.47,244.25 C 205.27,243.93 206.04,243.60 206.78,243.25 C 207.52,242.90 208.24,242.54 208.92,242.16 C 209.61,241.78 210.26,241.38 210.89,240.97 C 211.52,240.56 212.12,240.13 212.69,239.69 C 213.26,239.24 213.78,238.75 214.31,238.31 C 214.84,237.88 215.36,237.46 215.88,237.06 C 216.39,236.67 216.89,236.29 217.38,235.94 C 217.86,235.58 218.34,235.25 218.81,234.94 C 219.28,234.62 219.74,234.33 220.19,234.06 C 220.64,233.79 221.07,233.54 221.50,233.31 C 221.93,233.08 222.34,232.88 222.75,232.69 C 223.16,232.50 223.55,232.33 223.94,232.19 C 224.32,232.04 224.62,231.93 225.06,231.81 C 225.50,231.69 226.00,231.58 226.56,231.47 C 227.12,231.36 227.75,231.26 228.44,231.16 C 229.12,231.06 229.88,230.96 230.69,230.88 C 231.50,230.79 232.38,230.70 233.31,230.62 C 234.25,230.55 235.25,230.47 236.31,230.41 C 237.38,230.34 238.50,230.28 239.69,230.22 C 240.88,230.16 242.12,230.11 243.44,230.06 C 244.75,230.02 246.25,229.97 247.56,229.94 C 248.87,229.90 250.12,229.88 251.30,229.86 C 252.48,229.84 253.59,229.83 254.64,229.83 C 255.69,229.83 256.67,229.83 257.59,229.84 C 258.51,229.86 259.37,229.88 260.16,229.91 C 260.95,229.93 261.67,229.97 262.33,230.02 C 262.99,230.06 263.58,230.11 264.11,230.17 C 264.64,230.23 265.10,230.30 265.50,230.38 C 265.90,230.45 266.11,230.56 266.50,230.62 C 266.89,230.69 267.33,230.73 267.83,230.75 C 268.33,230.77 268.88,230.77 269.48,230.75 C 270.09,230.73 270.75,230.69 271.47,230.62 C 272.18,230.56 272.96,230.48 273.78,230.38 C 274.61,230.27 275.49,230.15 276.42,230.00 C 277.36,229.85 278.35,229.69 279.39,229.50 C 280.43,229.31 281.53,229.10 282.69,228.88 C 283.84,228.65 285.16,228.38 286.31,228.12 C 287.46,227.87 288.56,227.62 289.60,227.37 C 290.64,227.11 291.63,226.86 292.55,226.60 C 293.48,226.35 294.36,226.09 295.17,225.83 C 295.99,225.57 296.75,225.31 297.45,225.05 C 298.16,224.79 298.81,224.52 299.40,224.26 C 299.99,223.99 300.53,223.73 301.01,223.46 C 301.49,223.19 301.91,222.93 302.28,222.66 C 302.65,222.39 302.93,222.11 303.22,221.84 C 303.51,221.57 303.79,221.31 304.04,221.04 C 304.29,220.77 304.53,220.51 304.74,220.24 C 304.96,219.98 305.15,219.71 305.33,219.45 C 305.50,219.19 305.66,218.93 305.80,218.67 C 305.93,218.41 306.05,218.15 306.15,217.90 C 306.25,217.64 306.32,217.39 306.38,217.13 C 306.44,216.88 306.48,216.63 306.50,216.38 C 306.52,216.12 306.51,215.87 306.50,215.62 C 306.49,215.38 306.46,215.15 306.43,214.93 C 306.39,214.71 306.35,214.49 306.29,214.29 C 306.23,214.08 306.16,213.89 306.08,213.70 C 306.00,213.52 305.90,213.34 305.80,213.17 C 305.69,213.00 305.57,212.85 305.45,212.70 C 305.32,212.55 305.18,212.40 305.02,212.27 C 304.87,212.14 304.71,212.02 304.53,211.91 C 304.36,211.79 304.18,211.69 303.97,211.59 C 303.75,211.50 303.51,211.41 303.24,211.34 C 302.97,211.26 302.68,211.19 302.35,211.13 C 302.03,211.07 301.68,211.02 301.30,210.98 C 300.92,210.94 300.51,210.91 300.08,210.89 C 299.64,210.87 299.18,210.86 298.70,210.85 C 298.21,210.85 297.69,210.85 297.15,210.87 C 296.61,210.88 296.04,210.90 295.44,210.94 C 294.84,210.97 294.15,211.03 293.56,211.06 C 292.97,211.09 292.42,211.11 291.90,211.12 C 291.38,211.12 290.89,211.12 290.45,211.10 C 290.00,211.08 289.58,211.06 289.20,211.02 C 288.82,210.98 288.48,210.92 288.17,210.86 C 287.86,210.80 287.59,210.72 287.35,210.63 C 287.11,210.55 286.91,210.45 286.74,210.34 C 286.57,210.23 286.44,210.10 286.34,209.97 C 286.25,209.83 286.21,209.67 286.16,209.53 C 286.10,209.39 286.05,209.26 286.02,209.12 C 285.98,208.99 285.95,208.87 285.92,208.75 C 285.90,208.63 285.88,208.52 285.88,208.41 C 285.87,208.30 285.87,208.19 285.88,208.09 C 285.88,207.99 285.90,207.90 285.92,207.81 C 285.95,207.72 285.98,207.64 286.02,207.56 C 286.05,207.48 286.10,207.41 286.16,207.34 C 286.21,207.28 286.27,207.21 286.34,207.16 C 286.41,207.10 286.49,207.05 286.57,207.01 C 286.65,206.96 286.74,206.93 286.84,206.90 C 286.93,206.87 287.03,206.85 287.14,206.83 C 287.25,206.81 287.36,206.80 287.48,206.80 C 287.61,206.79 287.73,206.80 287.87,206.80 C 288.00,206.81 288.14,206.83 288.29,206.85 C 288.44,206.87 288.59,206.90 288.75,206.94 C 288.91,206.97 289.06,207.03 289.25,207.06 C 289.44,207.10 289.67,207.13 289.91,207.15 C 290.16,207.17 290.44,207.19 290.74,207.20 C 291.05,207.20 291.38,207.21 291.73,207.20 C 292.09,207.20 292.48,207.19 292.89,207.17 C 293.30,207.15 293.74,207.13 294.21,207.10 C 294.68,207.07 295.17,207.04 295.70,206.99 C 296.22,206.95 296.77,206.90 297.34,206.84 C 297.92,206.79 298.61,206.87 299.16,206.66 C 299.70,206.45 300.18,206.09 300.60,205.59 C 301.02,205.08 301.38,204.43 301.68,203.63 C 301.98,202.83 302.21,201.89 302.39,200.80 C 302.57,199.70 302.68,198.46 302.73,197.08 C 302.79,195.69 302.78,194.16 302.71,192.48 C 302.64,190.80 302.51,188.97 302.32,186.99 C 302.13,185.02 301.88,182.89 301.56,180.62 C 301.25,178.36 300.79,175.64 300.44,173.38 C 300.09,171.11 299.77,168.98 299.48,167.01 C 299.18,165.03 298.92,163.20 298.68,161.52 C 298.44,159.84 298.23,158.31 298.05,156.92 C 297.86,155.54 297.71,154.30 297.58,153.20 C 297.45,152.11 297.35,151.17 297.27,150.37 C 297.20,149.57 297.15,148.92 297.13,148.41 C 297.11,147.91 297.12,147.55 297.16,147.34 C 297.19,147.13 297.25,147.21 297.34,147.16 C 297.44,147.10 297.57,147.05 297.74,147.01 C 297.91,146.96 298.11,146.93 298.35,146.90 C 298.59,146.87 298.86,146.85 299.17,146.83 C 299.48,146.81 299.82,146.80 300.20,146.80 C 300.58,146.79 301.00,146.80 301.45,146.80 C 301.89,146.81 302.38,146.83 302.90,146.85 C 303.42,146.87 303.97,146.90 304.56,146.94 C 305.15,146.97 305.76,146.88 306.44,147.06 C 307.11,147.24 307.84,147.56 308.62,148.01 C 309.39,148.46 310.22,149.05 311.10,149.77 C 311.98,150.50 312.91,151.36 313.89,152.36 C 314.87,153.36 315.90,154.49 316.98,155.77 C 318.07,157.04 319.20,158.45 320.38,159.99 C 321.57,161.54 322.80,163.22 324.09,165.04 C 325.37,166.86 326.71,168.81 328.09,170.91 C 329.48,173.00 331.07,175.46 332.41,177.59 C 333.75,179.72 334.99,181.75 336.13,183.68 C 337.28,185.61 338.32,187.44 339.27,189.16 C 340.22,190.89 341.07,192.52 341.83,194.05 C 342.58,195.57 343.24,197.00 343.80,198.33 C 344.36,199.65 344.82,200.88 345.18,202.01 C 345.54,203.13 345.81,204.16 345.98,205.09 C 346.14,206.01 346.21,206.84 346.19,207.56 C 346.16,208.29 345.93,208.85 345.81,209.44 C 345.70,210.03 345.60,210.59 345.51,211.12 C 345.42,211.64 345.34,212.14 345.27,212.60 C 345.21,213.06 345.15,213.49 345.11,213.89 C 345.07,214.29 345.04,214.65 345.02,214.98 C 345.00,215.32 344.99,215.62 344.99,215.88 C 345.00,216.15 345.01,216.38 345.04,216.59 C 345.07,216.79 345.11,216.96 345.16,217.09 C 345.21,217.23 345.25,217.29 345.34,217.41 C 345.44,217.52 345.56,217.64 345.71,217.77 C 345.86,217.90 346.05,218.05 346.26,218.20 C 346.47,218.35 346.71,218.50 346.98,218.67 C 347.26,218.84 347.56,219.02 347.89,219.20 C 348.22,219.39 348.58,219.58 348.98,219.79 C 349.37,219.99 349.79,220.21 350.24,220.43 C 350.69,220.65 351.18,220.88 351.69,221.12 C 352.20,221.37 352.76,221.64 353.31,221.88 C 353.86,222.11 354.43,222.33 355.00,222.53 C 355.57,222.73 356.16,222.92 356.75,223.09 C 357.34,223.27 357.95,223.42 358.56,223.56 C 359.18,223.70 359.80,223.83 360.44,223.94 C 361.07,224.05 361.72,224.14 362.38,224.22 C 363.03,224.30 363.70,224.36 364.38,224.41 C 365.05,224.45 365.74,224.48 366.44,224.50 C 367.14,224.52 367.85,224.49 368.56,224.50 C 369.28,224.51 369.99,224.54 370.72,224.58 C 371.44,224.62 372.17,224.67 372.91,224.73 C 373.64,224.80 374.38,224.88 375.12,224.97 C 375.87,225.06 376.62,225.16 377.38,225.28 C 378.13,225.40 378.89,225.53 379.66,225.67 C 380.42,225.82 381.19,225.97 381.97,226.14 C 382.74,226.31 383.53,226.49 384.31,226.69 C 385.10,226.88 385.94,227.10 386.69,227.31 C 387.44,227.52 388.15,227.73 388.81,227.94 C 389.48,228.15 390.10,228.35 390.69,228.56 C 391.27,228.77 391.81,228.98 392.31,229.19 C 392.81,229.40 393.27,229.60 393.69,229.81 C 394.10,230.02 394.48,230.23 394.81,230.44 C 395.15,230.65 395.44,230.85 395.69,231.06 C 395.94,231.27 396.15,231.48 396.31,231.69 C 396.48,231.90 396.55,232.12 396.69,232.31 C 396.83,232.51 396.98,232.68 397.16,232.84 C 397.33,233.01 397.52,233.15 397.72,233.28 C 397.92,233.41 398.14,233.53 398.38,233.62 C 398.61,233.72 398.86,233.81 399.12,233.88 C 399.39,233.94 399.67,233.99 399.97,234.03 C 400.27,234.07 400.58,234.09 400.91,234.09 C 401.23,234.10 401.58,234.09 401.94,234.06 C 402.30,234.04 402.71,233.97 403.06,233.94 C 403.42,233.90 403.76,233.88 404.08,233.86 C 404.40,233.84 404.70,233.83 404.98,233.83 C 405.27,233.83 405.53,233.83 405.78,233.84 C 406.03,233.86 406.26,233.88 406.47,233.91 C 406.68,233.93 406.87,233.97 407.05,234.02 C 407.22,234.06 407.38,234.11 407.52,234.17 C 407.65,234.23 407.77,234.30 407.88,234.38 C 407.98,234.45 407.97,234.55 408.12,234.62 C 408.28,234.70 408.52,234.78 408.83,234.84 C 409.14,234.91 409.52,234.97 409.98,235.03 C 410.45,235.09 410.98,235.14 411.59,235.19 C 412.21,235.23 412.89,235.28 413.66,235.31 C 414.42,235.35 415.26,235.38 416.17,235.41 C 417.09,235.43 418.08,235.45 419.14,235.47 C 420.21,235.48 421.35,235.49 422.56,235.50 C 423.78,235.51 425.22,235.49 426.44,235.50 C 427.65,235.51 428.80,235.52 429.87,235.54 C 430.94,235.56 431.93,235.58 432.85,235.62 C 433.77,235.65 434.62,235.69 435.39,235.73 C 436.16,235.78 436.86,235.83 437.48,235.89 C 438.11,235.95 438.66,236.01 439.13,236.09 C 439.61,236.16 440.01,236.24 440.34,236.32 C 440.66,236.40 440.92,236.50 441.09,236.59 C 441.27,236.69 441.31,236.75 441.41,236.91 C 441.50,237.06 441.60,237.27 441.68,237.54 C 441.76,237.80 441.84,238.12 441.91,238.49 C 441.99,238.86 442.05,239.29 442.11,239.77 C 442.17,240.24 442.22,240.77 442.27,241.36 C 442.31,241.94 442.35,242.58 442.38,243.27 C 442.42,243.96 442.44,244.71 442.46,245.51 C 442.48,246.31 442.49,247.16 442.50,248.06 C 442.51,248.97 442.51,250.03 442.50,250.94 C 442.49,251.84 442.48,252.69 442.46,253.49 C 442.44,254.29 442.42,255.04 442.38,255.73 C 442.35,256.42 442.31,257.06 442.27,257.64 C 442.22,258.23 442.17,258.76 442.11,259.23 C 442.05,259.71 441.99,260.14 441.91,260.51 C 441.84,260.88 441.76,261.20 441.68,261.46 C 441.60,261.73 441.50,261.94 441.41,262.09 C 441.31,262.25 441.27,262.31 441.09,262.41 C 440.92,262.50 440.66,262.60 440.34,262.68 C 440.01,262.76 439.61,262.84 439.13,262.91 C 438.66,262.99 438.11,263.05 437.48,263.11 C 436.86,263.17 436.16,263.22 435.39,263.27 C 434.62,263.31 433.77,263.35 432.85,263.38 C 431.93,263.42 430.94,263.44 429.87,263.46 C 428.80,263.48 427.65,263.49 426.44,263.50 C 425.22,263.51 423.78,263.50 422.56,263.50 C 421.35,263.50 420.21,263.51 419.15,263.52 C 418.09,263.54 417.10,263.55 416.20,263.57 C 415.29,263.59 414.46,263.61 413.70,263.64 C 412.95,263.67 412.27,263.70 411.67,263.73 C 411.07,263.77 410.55,263.81 410.10,263.85 C 409.65,263.89 409.29,263.94 408.99,263.99 C 408.70,264.04 408.48,264.10 408.34,264.16 C 408.20,264.21 408.21,264.27 408.16,264.34 C 408.10,264.42 408.05,264.50 408.02,264.59 C 407.98,264.69 407.95,264.79 407.92,264.91 C 407.90,265.02 407.88,265.15 407.88,265.28 C 407.87,265.42 407.87,265.56 407.88,265.72 C 407.88,265.88 407.90,266.04 407.92,266.22 C 407.95,266.40 407.98,266.58 408.02,266.78 C 408.05,266.98 408.10,267.19 408.16,267.41 C 408.21,267.62 408.20,267.88 408.34,268.09 C 408.48,268.31 408.70,268.51 408.99,268.70 C 409.29,268.88 409.65,269.05 410.10,269.21 C 410.55,269.37 411.07,269.51 411.67,269.64 C 412.27,269.77 412.95,269.88 413.70,269.98 C 414.46,270.08 415.29,270.17 416.20,270.24 C 417.10,270.31 418.09,270.37 419.15,270.41 C 420.21,270.46 421.35,270.49 422.56,270.50 C 423.78,270.51 425.22,270.49 426.44,270.50 C 427.65,270.51 428.80,270.53 429.87,270.55 C 430.94,270.58 431.93,270.62 432.85,270.66 C 433.77,270.71 434.62,270.76 435.39,270.83 C 436.16,270.89 436.86,270.96 437.48,271.05 C 438.11,271.13 438.66,271.22 439.13,271.32 C 439.61,271.42 440.01,271.53 440.34,271.65 C 440.66,271.77 440.92,271.89 441.09,272.03 C 441.27,272.17 441.31,272.27 441.41,272.47 C 441.50,272.66 441.60,272.90 441.68,273.20 C 441.76,273.49 441.84,273.82 441.91,274.21 C 441.99,274.60 442.05,275.03 442.11,275.52 C 442.17,276.00 442.22,276.53 442.27,277.11 C 442.31,277.69 442.35,278.32 442.38,278.99 C 442.42,279.67 442.44,280.39 442.46,281.16 C 442.48,281.94 442.49,282.76 442.50,283.62 C 442.51,284.49 442.51,285.51 442.50,286.38 C 442.49,287.24 442.47,288.06 442.45,288.84 C 442.42,289.61 442.38,290.33 442.34,291.01 C 442.29,291.68 442.24,292.31 442.17,292.89 C 442.11,293.47 442.04,294.00 441.95,294.48 C 441.87,294.97 441.78,295.40 441.68,295.79 C 441.58,296.18 441.47,296.51 441.35,296.80 C 441.23,297.10 441.11,297.34 440.97,297.53 C 440.83,297.73 440.75,297.83 440.53,297.97 C 440.32,298.10 440.03,298.23 439.68,298.34 C 439.33,298.45 438.90,298.55 438.41,298.63 C 437.92,298.72 437.36,298.80 436.73,298.86 C 436.11,298.92 435.41,298.98 434.64,299.02 C 433.87,299.06 433.04,299.08 432.13,299.10 C 431.23,299.12 430.25,299.12 429.21,299.12 C 428.17,299.11 427.06,299.09 425.88,299.06 C 424.69,299.03 423.30,298.97 422.12,298.94 C 420.95,298.90 419.84,298.88 418.81,298.86 C 417.78,298.84 416.82,298.83 415.94,298.83 C 415.05,298.83 414.24,298.83 413.50,298.84 C 412.76,298.86 412.09,298.88 411.50,298.91 C 410.91,298.93 410.39,298.97 409.94,299.02 C 409.49,299.06 409.11,299.11 408.81,299.17 C 408.51,299.23 408.28,299.30 408.12,299.38 C 407.97,299.45 407.98,299.55 407.88,299.62 C 407.77,299.70 407.65,299.78 407.52,299.84 C 407.38,299.91 407.22,299.97 407.05,300.03 C 406.87,300.09 406.68,300.14 406.47,300.19 C 406.26,300.23 406.03,300.28 405.78,300.31 C 405.53,300.35 405.27,300.38 404.98,300.41 C 404.70,300.43 404.40,300.45 404.08,300.47 C 403.76,300.48 403.42,300.49 403.06,300.50 C 402.71,300.51 402.30,300.49 401.94,300.50 C 401.58,300.51 401.23,300.53 400.91,300.56 C 400.58,300.59 400.27,300.64 399.97,300.69 C 399.67,300.74 399.39,300.80 399.12,300.88 C 398.86,300.95 398.61,301.03 398.38,301.12 C 398.14,301.22 397.92,301.32 397.72,301.44 C 397.52,301.55 397.33,301.68 397.16,301.81 C 396.98,301.95 396.83,302.09 396.69,302.25 C 396.55,302.41 396.48,302.58 396.31,302.75 C 396.15,302.92 395.95,303.09 395.70,303.27 C 395.46,303.44 395.18,303.62 394.86,303.80 C 394.54,303.98 394.18,304.16 393.78,304.34 C 393.38,304.53 392.95,304.72 392.47,304.91 C 391.99,305.10 391.48,305.29 390.92,305.48 C 390.37,305.68 389.77,305.88 389.14,306.08 C 388.51,306.28 387.84,306.48 387.12,306.69 C 386.41,306.89 385.63,307.11 384.88,307.31 C 384.12,307.51 383.36,307.70 382.59,307.88 C 381.83,308.05 381.06,308.22 380.28,308.38 C 379.51,308.53 378.72,308.68 377.94,308.81 C 377.15,308.95 376.36,309.07 375.56,309.19 C 374.77,309.30 373.96,309.41 373.16,309.50 C 372.35,309.59 371.54,309.68 370.72,309.75 C 369.90,309.82 369.08,309.89 368.25,309.94 C 367.42,309.99 366.56,310.01 365.75,310.06 C 364.94,310.11 364.16,310.18 363.41,310.25 C 362.65,310.32 361.92,310.41 361.22,310.50 C 360.52,310.59 359.84,310.70 359.19,310.81 C 358.54,310.93 357.91,311.05 357.31,311.19 C 356.71,311.32 356.14,311.47 355.59,311.62 C 355.05,311.78 354.53,311.95 354.03,312.12 C 353.54,312.30 353.07,312.49 352.62,312.69 C 352.18,312.89 351.77,313.11 351.38,313.31 C 350.98,313.52 350.60,313.72 350.24,313.91 C 349.88,314.11 349.55,314.30 349.23,314.49 C 348.91,314.68 348.61,314.87 348.33,315.05 C 348.05,315.23 347.79,315.40 347.55,315.58 C 347.31,315.75 347.08,315.92 346.88,316.09 C 346.68,316.25 346.50,316.41 346.34,316.57 C 346.17,316.73 346.03,316.88 345.91,317.03 C 345.78,317.18 345.68,317.30 345.59,317.47 C 345.50,317.64 345.43,317.84 345.37,318.07 C 345.31,318.30 345.26,318.55 345.23,318.84 C 345.19,319.12 345.18,319.43 345.17,319.77 C 345.17,320.10 345.18,320.47 345.20,320.86 C 345.23,321.25 345.27,321.67 345.32,322.12 C 345.37,322.56 345.44,323.04 345.52,323.54 C 345.61,324.04 345.70,324.57 345.81,325.12 C 345.92,325.68 346.16,326.19 346.19,326.88 C 346.21,327.56 346.14,328.36 345.96,329.26 C 345.79,330.16 345.51,331.16 345.13,332.27 C 344.76,333.38 344.28,334.60 343.70,335.92 C 343.13,337.24 342.45,338.67 341.67,340.20 C 340.89,341.74 340.02,343.37 339.04,345.12 C 338.06,346.86 336.98,348.71 335.80,350.66 C 334.63,352.62 333.35,354.68 331.97,356.84 C 330.59,359.01 328.95,361.53 327.53,363.66 C 326.11,365.79 324.74,367.77 323.43,369.62 C 322.12,371.46 320.86,373.17 319.66,374.73 C 318.46,376.29 317.32,377.71 316.23,378.98 C 315.15,380.26 314.12,381.40 313.14,382.39 C 312.17,383.38 311.25,384.24 310.38,384.95 C 309.52,385.65 308.71,386.22 307.96,386.65 C 307.21,387.07 306.51,387.36 305.88,387.50 Z" stroke="none" fill="currentColor" opacity="0.11" />
  <path d="M242.96,257.22L232.39,258.87 M239.98,257.40L252.88,255.60 M237.21,258.37L247.15,257.03 M247.15,257.03L232.77,259.09 M233.72,259.07L247.55,257.14 M247.58,257.63L233.37,259.61 M232.39,276.55L242.96,278.19 M239.98,278.02L252.88,279.81 M247.15,278.38L237.21,277.05 M247.15,278.38L232.77,276.32 M233.72,276.34L247.55,278.27 M247.58,277.79L233.37,275.80 M224.81,259.59L233.89,258.20 M224.81,275.82L233.89,277.21 M236.61,262.24L249.54,262.87 M249.72,272.55L236.61,273.18 M233.05,259.02L241.51,258.06 M253.51,255.60L241.45,257.37 M233.05,276.40L241.51,277.35 M253.51,279.81L241.45,278.04 M226.85,276.65L236.49,276.66 M226.15,276.63L236.49,276.66 M236.50,275.26L226.61,275.26 M226.85,258.77L236.49,258.75 M226.15,258.78L236.49,258.75 M236.50,260.15L226.61,260.16 M370.79,264.04L370.78,259.97 M370.79,271.37L370.78,275.44 M336.22,235.32L349.05,234.62 M349.05,234.62L369.52,234.88 M369.52,234.88L349.04,235.57 M380.40,234.84L396.15,234.29 M267.83,243.35L259.05,233.76 M349.05,300.85L369.52,300.60 M369.52,300.60L349.04,299.84 M375.48,308.95L396.95,304.33 M375.48,308.95L396.97,304.41 M267.83,292.06L259.05,301.66 M396.45,294.34L384.94,294.18 M348.86,280.23L344.11,291.86 M348.85,280.24L344.10,291.88 M384.45,294.51L396.47,294.30 M384.54,294.35L396.44,294.09 M399.93,291.87L399.93,284.37 M396.40,281.66L384.94,281.66 M396.45,241.07L384.94,241.24 M348.86,255.18L344.11,243.56 M348.85,255.17L344.10,243.53 M344.23,238.25L353.29,237.85 M384.45,240.90L396.47,241.11 M384.54,241.07L396.44,241.32 M399.93,243.54L399.93,251.04 M396.40,253.75L384.94,253.75 M286.81,248.46L283.58,256.45 M286.81,248.46L283.33,257.59 M283.58,278.96L286.81,286.95 M286.81,286.95L283.33,277.83 M344.76,296.20L346.51,286.63 M346.51,286.63L348.32,276.79 M348.32,276.79L348.32,268.63 M315.68,241.68L342.64,242.79 M325.08,281.27L311.42,281.74 M310.79,281.82L297.10,284.08 M311.00,281.79L296.89,284.11 M311.42,281.74L335.95,280.92 M315.68,293.74L342.64,292.62 M300.95,256.14L300.71,256.06 M300.95,256.14L296.14,255.95 M302.96,259.24L302.96,267.71 M300.95,279.27L300.71,279.35 M300.95,279.27L296.14,279.46 M303.41,259.00L303.47,267.71 M303.47,267.71L303.41,276.41 M349.33,254.85L340.68,238.28 M349.33,280.56L340.68,297.13 M350.69,280.75L342.84,296.63 M329.42,276.03L307.75,275.91 M329.18,275.79L307.99,275.67 M329.18,269.51L307.99,269.51 M307.75,266.14L329.42,266.14 M307.99,265.90L329.18,265.90 M307.75,259.50L329.42,259.38 M307.99,259.74L329.18,259.62 M268.58,255.03L268.58,244.77 M268.18,233.72L260.31,230.94 M260.31,230.94L268.31,233.76 M268.76,233.87L276.71,235.59 M270.46,231.71L259.40,230.75 M353.84,236.79L371.29,236.33 M380.17,235.98L393.39,235.47 M336.22,235.87L323.57,235.94 M336.23,236.03L323.54,236.16 M268.58,290.64L268.58,280.38 M314.19,297.82L323.68,298.09 M323.68,298.09L336.23,298.44 M349.31,299.68L336.23,299.38 M323.57,299.48L336.22,299.54 M353.84,298.63L371.29,299.09 M333.41,263.36L333.41,272.13 M308.12,252.35L299.00,250.92 M296.01,267.71L296.56,251.31 M296.01,267.71L296.94,284.10 M272.66,252.39L267.04,247.78 M272.20,248.62L287.90,245.91 M287.90,245.91L269.26,249.68 M269.26,249.68L288.08,245.38 M287.77,259.63L271.73,256.10 M267.98,250.45L272.20,248.62 M271.73,256.10L267.55,255.71 M288.52,260.11L268.70,256.30 M268.70,256.30L288.51,259.69 M272.20,280.56L287.90,277.85 M287.90,277.85L269.26,281.62 M269.26,281.62L288.08,277.32 M287.77,291.57L271.73,288.04 M267.98,282.38L272.20,280.56 M271.73,288.04L267.55,287.65 M288.52,292.05L268.70,288.24 M268.70,288.24L288.51,291.63 M324.19,262.90L338.08,266.86 M311.27,264.60L297.50,263.73 M287.25,248.43L285.13,256.71 M287.25,248.43L285.26,256.73 M287.25,286.99L285.13,278.70 M287.25,286.99L285.26,278.68 M276.71,231.53L295.24,227.20 M364.07,227.62L322.11,227.42 M307.95,219.89L298.83,226.90 M340.97,239.83L349.25,254.85 M333.68,235.78L314.03,236.26 M285.13,256.71L285.46,267.71 M285.46,267.71L285.13,278.70 M294.53,254.55L293.01,239.35 M324.19,272.51L338.08,268.55 M311.27,270.81L297.50,271.68 M276.71,303.88L295.24,308.21 M364.07,307.79L322.11,307.99 M307.95,315.52L298.83,308.51 M340.97,295.58L349.25,280.56 M314.03,299.15L333.68,299.63 M294.53,280.86L293.01,296.06 M321.33,225.88L314.30,223.13 M314.45,226.11L324.08,227.89 M314.30,222.53L323.32,227.11 M321.33,309.53L314.30,312.29 M314.45,309.31L324.08,307.52 M314.30,312.88L323.32,308.31 M263.56,296.80L284.22,298.44 M263.73,238.61L284.02,236.98 M272.03,276.53L269.99,280.94 M326.82,225.40L333.37,228.83 M326.82,310.01L333.37,306.59 M347.88,266.65L355.60,266.36 M347.88,268.47L355.60,268.77 M370.66,268.76L382.76,268.54 M370.66,266.37L382.76,266.59 M370.49,268.86L382.66,268.62 M370.49,266.27L382.66,266.50 M350.30,257.67L350.30,267.56 M350.30,267.56L350.14,277.46 M220.34,250.97L220.34,236.83 M220.34,252.48L220.34,238.34 M220.34,254.20L220.34,240.05 M220.34,255.71L220.34,241.56 M220.34,257.21L220.34,243.06 M220.34,258.72L220.34,244.57 M220.34,258.78L220.34,246.09 M220.34,258.93L220.34,247.59 M220.34,258.82L220.34,249.65 M220.34,259.07L220.34,251.16 M220.34,298.59L220.34,284.44 M220.34,297.08L220.34,282.93 M220.34,295.36L220.34,281.21 M220.34,293.85L220.34,279.70 M220.34,292.35L220.34,278.20 M220.34,290.84L220.34,276.69 M220.34,289.33L220.34,276.63 M220.34,287.82L220.34,276.48 M220.34,285.76L220.34,276.60 M220.34,284.25L220.34,276.34 M254.52,254.86L230.56,257.82 M230.56,257.82L216.66,259.64 M254.52,280.55L230.56,277.60 M230.56,277.60L216.66,275.77 M208.44,244.65L226.59,235.81 M289.44,240.47L301.98,244.66 M302.07,243.95L289.73,239.69 M302.14,243.70L289.77,239.62 M302.16,243.66L289.77,239.62 M248.55,231.12L258.72,230.30 M215.61,247.58L192.70,255.58 M215.59,247.67L192.70,255.58 M191.39,255.95L182.05,257.41 M182.05,257.41L168.40,259.54 M168.39,259.62L153.77,261.82 M168.40,259.54L153.77,261.82 M168.39,275.79L153.77,273.59 M182.05,278.01L168.40,275.88 M153.77,273.59L168.40,275.88 M258.72,305.11L248.55,304.29 M209.55,291.44L219.27,300.10 M192.70,279.84L215.61,287.84 M192.70,279.84L215.59,287.74 M219.50,299.24L219.50,288.00 M219.27,235.31L209.55,243.97 M208.44,290.77L226.59,299.60 M289.44,294.94L301.98,290.76 M302.07,291.46L289.73,295.72 M302.14,291.71L289.77,295.80 M302.16,291.76L289.77,295.80 M204.06,262.77L195.68,262.78 M204.06,272.64L195.68,272.63 M246.05,258.40L257.87,254.56 M242.40,258.94L242.41,267.71 M242.41,267.71L242.40,276.47 M257.87,280.85L246.05,277.01 M208.23,246.84L191.61,253.25 M215.51,245.13L224.72,240.63 M224.51,240.44L215.53,246.32 M215.53,246.32L226.45,235.46 M215.53,246.32L226.04,235.48 M226.04,235.48L215.53,246.34 M226.64,233.13L219.73,235.54 M226.63,234.85L219.73,235.54 M226.49,235.00L219.79,236.01 M220.01,236.85L213.71,245.46 M219.33,235.82L213.05,245.17 M213.05,245.17L219.43,236.40 M191.61,282.16L208.23,288.57 M215.51,290.29L224.72,294.79 M226.45,299.95L215.53,289.09 M215.53,289.09L226.04,299.93 M226.04,299.93L215.53,289.07 M226.64,302.28L219.73,299.87 M226.63,300.56L219.73,299.87 M226.49,300.41L219.79,299.41 M219.33,299.59L213.05,290.24 M213.05,290.24L219.43,299.01 M213.71,289.95L220.01,298.56 M226.59,232.34L219.74,234.94 M335.67,290.66L337.47,281.90 M354.85,296.66L344.43,292.88 M344.67,293.14L354.99,296.91 M209.74,269.61L209.74,262.11 M228.28,269.85L234.09,269.80 M228.28,265.57L234.09,265.62 M335.67,244.76L337.47,253.51 M265.97,247.87L258.69,246.41 M265.97,287.54L258.62,288.94 M291.68,254.37L256.18,255.72 M256.18,255.72L300.62,254.03 M256.18,237.83L291.69,244.83 M298.39,246.15L256.18,237.83 M298.39,246.15L256.18,238.38 M291.68,281.04L256.18,279.69 M256.18,279.69L300.62,281.38 M256.18,297.58L291.69,290.58 M298.39,289.27L256.18,297.58 M298.39,289.27L256.18,297.04 M259.05,233.76L259.05,267.71 M259.05,267.71L259.05,301.66 M259.10,267.71L259.11,230.64 M259.10,267.71L259.11,304.77 M289.44,241.12L302.01,244.65 M258.80,234.06L258.90,244.43 M215.68,249.28L191.93,256.70 M221.33,235.09L209.45,244.61 M237.59,302.64L258.85,305.28 M258.90,290.98L258.85,301.35 M289.44,294.49L302.01,290.76 M226.79,302.92L219.84,299.46 M255.70,236.40L277.99,236.28 M255.70,299.01L277.99,299.13 M316.96,239.25L316.71,239.52 M344.10,239.43L344.25,260.83 M316.64,237.98L305.05,238.53 M357.47,310.77L365.45,310.01 M321.31,309.93L308.81,314.86 M314.45,336.66L307.31,375.44 M308.63,315.15L321.33,309.90 M306.61,325.30L305.71,334.07 M315.61,368.71L319.91,356.97 M334.43,317.92L331.32,326.51 M328.54,360.80L318.64,360.85 M340.33,319.53L348.22,305.98 M310.80,311.60L309.45,319.68 M307.33,333.10L308.63,325.31 M308.26,327.10L315.75,326.17 M357.47,224.64L365.45,225.40 M321.31,225.48L308.81,220.56 M314.45,198.76L307.31,159.97 M308.62,220.27L321.32,225.51 M306.61,210.11L305.71,201.34 M312.30,172.53L315.83,184.38 M318.65,174.05L328.60,174.10 M340.33,215.88L348.22,229.43 M331.12,180.93L321.40,180.99 M308.27,208.31L315.75,209.25 M395.94,276.36L395.94,259.05 M396.24,276.15L396.24,259.25 M395.17,259.30L395.27,247.60 M395.35,287.84L395.36,247.57 M344.09,295.98L344.25,274.59 M316.61,295.33L343.45,295.14 M305.13,295.90L316.64,298.12 M343.45,295.14L316.64,298.12 M316.64,298.12L305.06,295.68 M320.31,294.22L312.75,294.19 M312.75,294.61L320.34,294.65 M312.75,295.46L320.26,295.49 M312.75,295.89L320.15,295.91 M326.00,297.48L335.92,297.48 M335.92,297.90L326.00,297.90 M326.00,296.63L335.92,296.63 M335.92,296.20L326.00,296.20" stroke="currentColor" stroke-width="0.6" stroke-linecap="round" fill="none" opacity="0.55" clip-path="url(#hull-clip)" filter="url(#glow)" />
  <path d="M 305.88,387.50 C 305.24,387.64 304.68,387.50 304.12,387.50 C 303.57,387.50 303.06,387.49 302.57,387.48 C 302.08,387.46 301.63,387.45 301.21,387.43 C 300.79,387.41 300.40,387.39 300.05,387.36 C 299.69,387.33 299.37,387.30 299.08,387.27 C 298.79,387.23 298.53,387.19 298.30,387.15 C 298.08,387.11 297.89,387.06 297.73,387.01 C 297.57,386.96 297.44,386.90 297.34,386.84 C 297.25,386.79 297.19,386.86 297.16,386.66 C 297.12,386.45 297.11,386.10 297.13,385.60 C 297.15,385.11 297.20,384.46 297.27,383.68 C 297.35,382.89 297.45,381.96 297.58,380.89 C 297.71,379.82 297.86,378.60 298.05,377.23 C 298.23,375.87 298.44,374.36 298.68,372.71 C 298.92,371.06 299.18,369.26 299.48,367.32 C 299.77,365.38 300.09,363.29 300.44,361.06 C 300.79,358.83 301.21,356.17 301.56,353.94 C 301.91,351.71 302.23,349.62 302.52,347.68 C 302.82,345.74 303.08,343.94 303.32,342.29 C 303.56,340.64 303.77,339.13 303.95,337.77 C 304.14,336.40 304.29,335.18 304.42,334.11 C 304.55,333.04 304.65,332.11 304.73,331.32 C 304.80,330.54 304.85,329.89 304.87,329.40 C 304.89,328.90 304.88,328.55 304.84,328.34 C 304.81,328.14 304.76,328.22 304.66,328.16 C 304.55,328.10 304.40,328.04 304.20,327.98 C 304.01,327.93 303.77,327.88 303.48,327.83 C 303.20,327.78 302.87,327.73 302.50,327.69 C 302.13,327.64 301.71,327.60 301.25,327.56 C 300.79,327.52 300.28,327.49 299.73,327.45 C 299.18,327.42 298.59,327.39 297.95,327.36 C 297.32,327.33 296.63,327.30 295.91,327.28 C 295.18,327.26 294.32,327.25 293.59,327.22 C 292.87,327.19 292.20,327.15 291.58,327.11 C 290.96,327.07 290.38,327.01 289.86,326.95 C 289.34,326.89 288.86,326.83 288.44,326.75 C 288.01,326.67 287.64,326.59 287.31,326.50 C 286.99,326.41 286.71,326.31 286.48,326.20 C 286.26,326.10 286.08,325.98 285.95,325.86 C 285.83,325.74 285.75,325.61 285.72,325.47 C 285.69,325.33 285.71,325.17 285.78,325.03 C 285.85,324.89 285.96,324.77 286.12,324.65 C 286.27,324.53 286.48,324.42 286.73,324.32 C 286.98,324.22 287.27,324.13 287.61,324.05 C 287.95,323.96 288.33,323.89 288.77,323.83 C 289.20,323.76 289.67,323.71 290.20,323.66 C 290.72,323.62 291.29,323.58 291.90,323.55 C 292.51,323.53 293.17,323.51 293.88,323.50 C 294.58,323.49 295.42,323.51 296.12,323.50 C 296.83,323.49 297.50,323.48 298.13,323.46 C 298.76,323.44 299.35,323.42 299.90,323.38 C 300.45,323.35 300.95,323.31 301.42,323.27 C 301.89,323.22 302.32,323.17 302.70,323.11 C 303.09,323.05 303.44,322.99 303.74,322.91 C 304.05,322.84 304.31,322.76 304.54,322.68 C 304.76,322.60 304.95,322.50 305.09,322.41 C 305.24,322.31 305.31,322.21 305.41,322.09 C 305.50,321.98 305.60,321.86 305.68,321.73 C 305.76,321.60 305.84,321.45 305.91,321.30 C 305.99,321.15 306.05,321.00 306.11,320.83 C 306.17,320.66 306.22,320.48 306.27,320.30 C 306.31,320.11 306.35,319.92 306.38,319.71 C 306.42,319.51 306.44,319.29 306.46,319.07 C 306.48,318.85 306.49,318.62 306.50,318.38 C 306.51,318.13 306.52,317.87 306.50,317.62 C 306.48,317.38 306.45,317.13 306.40,316.88 C 306.35,316.64 306.28,316.39 306.20,316.15 C 306.11,315.90 306.01,315.66 305.89,315.42 C 305.77,315.18 305.64,314.94 305.48,314.70 C 305.33,314.46 305.16,314.23 304.98,313.99 C 304.79,313.76 304.59,313.52 304.37,313.29 C 304.15,313.06 303.91,312.82 303.66,312.59 C 303.40,312.36 303.16,312.14 302.84,311.91 C 302.53,311.68 302.17,311.44 301.77,311.21 C 301.37,310.98 300.93,310.74 300.45,310.51 C 299.96,310.27 299.43,310.04 298.86,309.80 C 298.29,309.56 297.67,309.32 297.02,309.08 C 296.36,308.84 295.66,308.60 294.91,308.35 C 294.17,308.11 293.38,307.86 292.55,307.62 C 291.73,307.37 290.85,307.12 289.94,306.88 C 289.02,306.63 287.99,306.36 287.06,306.12 C 286.13,305.89 285.23,305.67 284.36,305.47 C 283.49,305.27 282.64,305.08 281.83,304.91 C 281.01,304.73 280.23,304.58 279.47,304.44 C 278.71,304.30 277.98,304.17 277.28,304.06 C 276.58,303.95 275.91,303.86 275.27,303.78 C 274.62,303.70 274.01,303.64 273.42,303.59 C 272.84,303.55 272.28,303.52 271.75,303.50 C 271.22,303.48 270.73,303.49 270.25,303.50 C 269.77,303.51 269.31,303.52 268.88,303.53 C 268.44,303.55 268.02,303.57 267.62,303.59 C 267.23,303.62 266.85,303.65 266.50,303.69 C 266.15,303.72 265.81,303.77 265.50,303.81 C 265.19,303.86 264.90,303.91 264.62,303.97 C 264.35,304.03 264.10,304.09 263.88,304.16 C 263.65,304.22 263.44,304.30 263.25,304.38 C 263.06,304.45 262.99,304.55 262.75,304.62 C 262.51,304.70 262.18,304.76 261.78,304.81 C 261.38,304.86 260.90,304.91 260.34,304.94 C 259.79,304.97 259.15,304.99 258.44,305.00 C 257.72,305.01 256.93,305.01 256.06,305.00 C 255.19,304.99 254.24,304.97 253.22,304.94 C 252.19,304.91 251.09,304.86 249.91,304.81 C 248.72,304.76 247.46,304.70 246.12,304.62 C 244.79,304.55 243.23,304.46 241.88,304.38 C 240.52,304.29 239.24,304.19 238.02,304.09 C 236.79,303.99 235.64,303.89 234.55,303.78 C 233.46,303.67 232.43,303.56 231.47,303.44 C 230.51,303.32 229.61,303.19 228.78,303.06 C 227.95,302.93 227.18,302.80 226.48,302.66 C 225.78,302.52 225.15,302.37 224.58,302.22 C 224.01,302.07 223.50,301.91 223.06,301.75 C 222.62,301.59 222.32,301.43 221.94,301.25 C 221.56,301.07 221.18,300.88 220.80,300.67 C 220.41,300.47 220.03,300.25 219.64,300.02 C 219.25,299.78 218.86,299.54 218.47,299.28 C 218.08,299.02 217.68,298.75 217.28,298.47 C 216.88,298.18 216.48,297.89 216.08,297.58 C 215.67,297.27 215.27,296.95 214.86,296.61 C 214.45,296.27 214.04,295.92 213.62,295.56 C 213.21,295.20 212.82,294.80 212.38,294.44 C 211.93,294.07 211.45,293.72 210.94,293.38 C 210.43,293.03 209.89,292.70 209.31,292.38 C 208.74,292.05 208.14,291.74 207.50,291.44 C 206.86,291.14 206.20,290.84 205.50,290.56 C 204.80,290.28 204.07,290.01 203.31,289.75 C 202.55,289.49 201.76,289.24 200.94,289.00 C 200.11,288.76 199.26,288.53 198.38,288.31 C 197.49,288.09 196.53,287.90 195.62,287.69 C 194.72,287.48 193.84,287.26 192.97,287.05 C 192.10,286.83 191.24,286.61 190.41,286.39 C 189.57,286.17 188.74,285.95 187.94,285.72 C 187.13,285.49 186.34,285.26 185.56,285.03 C 184.79,284.80 184.03,284.57 183.28,284.33 C 182.54,284.09 181.81,283.85 181.09,283.61 C 180.38,283.37 179.68,283.12 179.00,282.88 C 178.32,282.63 177.63,282.36 177.00,282.12 C 176.37,281.89 175.78,281.68 175.23,281.48 C 174.67,281.28 174.16,281.10 173.68,280.93 C 173.20,280.76 172.76,280.62 172.36,280.48 C 171.96,280.35 171.59,280.24 171.27,280.14 C 170.94,280.04 170.65,279.96 170.40,279.90 C 170.15,279.83 169.93,279.79 169.76,279.76 C 169.58,279.73 169.44,279.71 169.34,279.72 C 169.24,279.72 169.20,279.75 169.16,279.78 C 169.11,279.81 169.08,279.84 169.07,279.88 C 169.06,279.92 169.06,279.97 169.09,280.02 C 169.11,280.08 169.15,280.14 169.20,280.20 C 169.26,280.27 169.33,280.34 169.42,280.42 C 169.51,280.50 169.62,280.59 169.74,280.68 C 169.87,280.77 170.01,280.87 170.16,280.98 C 170.32,281.08 170.50,281.19 170.69,281.31 C 170.88,281.43 171.10,281.54 171.31,281.69 C 171.52,281.83 171.74,282.00 171.95,282.19 C 172.17,282.38 172.39,282.58 172.61,282.81 C 172.83,283.04 173.05,283.29 173.28,283.56 C 173.51,283.83 173.74,284.12 173.97,284.44 C 174.20,284.75 174.43,285.08 174.67,285.44 C 174.91,285.79 175.15,286.17 175.39,286.56 C 175.63,286.96 175.88,287.38 176.12,287.81 C 176.37,288.25 176.66,288.76 176.88,289.19 C 177.09,289.62 177.26,290.02 177.40,290.40 C 177.54,290.77 177.63,291.12 177.70,291.45 C 177.76,291.77 177.78,292.06 177.77,292.33 C 177.75,292.60 177.70,292.83 177.61,293.05 C 177.52,293.26 177.39,293.44 177.23,293.60 C 177.06,293.76 176.86,293.89 176.62,293.99 C 176.38,294.10 176.10,294.17 175.78,294.22 C 175.46,294.27 175.09,294.31 174.72,294.28 C 174.35,294.26 173.96,294.18 173.56,294.06 C 173.16,293.94 172.74,293.78 172.31,293.56 C 171.88,293.35 171.43,293.09 170.97,292.78 C 170.51,292.47 170.03,292.12 169.53,291.72 C 169.04,291.32 168.53,290.87 168.00,290.38 C 167.47,289.88 166.93,289.34 166.38,288.75 C 165.82,288.16 165.24,287.53 164.66,286.84 C 164.07,286.16 163.43,285.36 162.84,284.66 C 162.25,283.96 161.68,283.29 161.12,282.65 C 160.56,282.01 160.01,281.40 159.48,280.82 C 158.94,280.24 158.43,279.69 157.92,279.17 C 157.42,278.65 156.93,278.16 156.45,277.70 C 155.98,277.24 155.52,276.81 155.07,276.41 C 154.62,276.01 154.19,275.64 153.77,275.30 C 153.36,274.96 152.95,274.65 152.56,274.38 C 152.17,274.10 151.79,273.87 151.44,273.62 C 151.08,273.38 150.75,273.15 150.44,272.92 C 150.12,272.70 149.83,272.48 149.56,272.27 C 149.29,272.05 149.04,271.85 148.81,271.66 C 148.58,271.46 148.38,271.27 148.19,271.09 C 148.00,270.91 147.83,270.74 147.69,270.58 C 147.54,270.41 147.42,270.26 147.31,270.11 C 147.21,269.96 147.12,269.82 147.06,269.69 C 147.00,269.55 146.97,269.44 146.94,269.31 C 146.90,269.18 146.87,269.05 146.84,268.91 C 146.82,268.77 146.80,268.62 146.78,268.47 C 146.77,268.32 146.76,268.16 146.75,268.00 C 146.74,267.84 146.74,267.67 146.75,267.50 C 146.76,267.33 146.77,267.15 146.78,266.97 C 146.80,266.79 146.82,266.60 146.84,266.41 C 146.87,266.21 146.90,266.02 146.94,265.81 C 146.97,265.61 147.01,265.39 147.06,265.19 C 147.12,264.98 147.19,264.78 147.27,264.59 C 147.36,264.39 147.46,264.20 147.57,264.01 C 147.68,263.82 147.81,263.63 147.95,263.45 C 148.10,263.27 148.25,263.10 148.42,262.92 C 148.59,262.75 148.78,262.58 148.98,262.41 C 149.18,262.25 149.39,262.09 149.62,261.93 C 149.85,261.77 150.09,261.62 150.34,261.47 C 150.60,261.32 150.86,261.22 151.16,261.03 C 151.45,260.85 151.77,260.62 152.12,260.35 C 152.46,260.08 152.83,259.78 153.23,259.43 C 153.62,259.08 154.04,258.69 154.48,258.27 C 154.93,257.84 155.40,257.37 155.89,256.86 C 156.38,256.35 156.90,255.80 157.45,255.21 C 157.99,254.62 158.56,253.99 159.15,253.32 C 159.74,252.65 160.36,251.94 161.00,251.19 C 161.64,250.44 162.35,249.55 163.00,248.81 C 163.65,248.07 164.28,247.38 164.90,246.74 C 165.51,246.10 166.11,245.51 166.70,244.98 C 167.28,244.44 167.84,243.95 168.39,243.52 C 168.94,243.08 169.47,242.69 169.98,242.36 C 170.50,242.02 171.00,241.74 171.48,241.51 C 171.96,241.27 172.42,241.09 172.87,240.96 C 173.31,240.83 173.74,240.75 174.16,240.72 C 174.57,240.69 174.99,240.74 175.34,240.78 C 175.70,240.82 176.02,240.89 176.30,240.98 C 176.59,241.06 176.83,241.17 177.04,241.30 C 177.25,241.44 177.42,241.59 177.55,241.77 C 177.68,241.94 177.77,242.14 177.83,242.36 C 177.88,242.58 177.90,242.82 177.88,243.09 C 177.86,243.35 177.81,243.64 177.71,243.95 C 177.62,244.25 177.48,244.58 177.31,244.94 C 177.14,245.29 176.90,245.70 176.69,246.06 C 176.48,246.42 176.27,246.77 176.06,247.09 C 175.85,247.42 175.65,247.73 175.44,248.03 C 175.23,248.33 175.02,248.61 174.81,248.88 C 174.60,249.14 174.40,249.39 174.19,249.62 C 173.98,249.86 173.77,250.08 173.56,250.28 C 173.35,250.48 173.15,250.67 172.94,250.84 C 172.73,251.02 172.52,251.17 172.31,251.31 C 172.10,251.45 171.88,251.57 171.69,251.69 C 171.49,251.81 171.31,251.93 171.15,252.04 C 170.98,252.15 170.83,252.26 170.70,252.37 C 170.56,252.47 170.44,252.57 170.33,252.67 C 170.22,252.77 170.13,252.86 170.05,252.95 C 169.97,253.04 169.90,253.13 169.85,253.21 C 169.80,253.29 169.76,253.37 169.74,253.45 C 169.72,253.52 169.71,253.59 169.72,253.66 C 169.73,253.72 169.73,253.80 169.78,253.84 C 169.83,253.89 169.92,253.92 170.04,253.93 C 170.16,253.94 170.31,253.94 170.49,253.91 C 170.68,253.89 170.89,253.85 171.14,253.80 C 171.39,253.74 171.67,253.67 171.98,253.58 C 172.30,253.49 172.64,253.38 173.02,253.26 C 173.40,253.13 173.81,252.99 174.26,252.84 C 174.70,252.68 175.18,252.50 175.69,252.31 C 176.20,252.12 176.74,251.90 177.31,251.69 C 177.88,251.48 178.48,251.27 179.11,251.06 C 179.74,250.85 180.39,250.65 181.08,250.44 C 181.76,250.23 182.48,250.02 183.22,249.81 C 183.96,249.60 184.73,249.40 185.53,249.19 C 186.33,248.98 187.16,248.77 188.02,248.56 C 188.87,248.35 189.76,248.15 190.67,247.94 C 191.59,247.73 192.53,247.52 193.50,247.31 C 194.47,247.10 195.53,246.91 196.50,246.69 C 197.47,246.46 198.41,246.22 199.33,245.97 C 200.24,245.71 201.13,245.44 201.98,245.16 C 202.84,244.87 203.67,244.57 204.47,244.25 C 205.27,243.93 206.04,243.60 206.78,243.25 C 207.52,242.90 208.24,242.54 208.92,242.16 C 209.61,241.78 210.26,241.38 210.89,240.97 C 211.52,240.56 212.12,240.13 212.69,239.69 C 213.26,239.24 213.78,238.75 214.31,238.31 C 214.84,237.88 215.36,237.46 215.88,237.06 C 216.39,236.67 216.89,236.29 217.38,235.94 C 217.86,235.58 218.34,235.25 218.81,234.94 C 219.28,234.62 219.74,234.33 220.19,234.06 C 220.64,233.79 221.07,233.54 221.50,233.31 C 221.93,233.08 222.34,232.88 222.75,232.69 C 223.16,232.50 223.55,232.33 223.94,232.19 C 224.32,232.04 224.62,231.93 225.06,231.81 C 225.50,231.69 226.00,231.58 226.56,231.47 C 227.12,231.36 227.75,231.26 228.44,231.16 C 229.12,231.06 229.88,230.96 230.69,230.88 C 231.50,230.79 232.38,230.70 233.31,230.62 C 234.25,230.55 235.25,230.47 236.31,230.41 C 237.38,230.34 238.50,230.28 239.69,230.22 C 240.88,230.16 242.12,230.11 243.44,230.06 C 244.75,230.02 246.25,229.97 247.56,229.94 C 248.87,229.90 250.12,229.88 251.30,229.86 C 252.48,229.84 253.59,229.83 254.64,229.83 C 255.69,229.83 256.67,229.83 257.59,229.84 C 258.51,229.86 259.37,229.88 260.16,229.91 C 260.95,229.93 261.67,229.97 262.33,230.02 C 262.99,230.06 263.58,230.11 264.11,230.17 C 264.64,230.23 265.10,230.30 265.50,230.38 C 265.90,230.45 266.11,230.56 266.50,230.62 C 266.89,230.69 267.33,230.73 267.83,230.75 C 268.33,230.77 268.88,230.77 269.48,230.75 C 270.09,230.73 270.75,230.69 271.47,230.62 C 272.18,230.56 272.96,230.48 273.78,230.38 C 274.61,230.27 275.49,230.15 276.42,230.00 C 277.36,229.85 278.35,229.69 279.39,229.50 C 280.43,229.31 281.53,229.10 282.69,228.88 C 283.84,228.65 285.16,228.38 286.31,228.12 C 287.46,227.87 288.56,227.62 289.60,227.37 C 290.64,227.11 291.63,226.86 292.55,226.60 C 293.48,226.35 294.36,226.09 295.17,225.83 C 295.99,225.57 296.75,225.31 297.45,225.05 C 298.16,224.79 298.81,224.52 299.40,224.26 C 299.99,223.99 300.53,223.73 301.01,223.46 C 301.49,223.19 301.91,222.93 302.28,222.66 C 302.65,222.39 302.93,222.11 303.22,221.84 C 303.51,221.57 303.79,221.31 304.04,221.04 C 304.29,220.77 304.53,220.51 304.74,220.24 C 304.96,219.98 305.15,219.71 305.33,219.45 C 305.50,219.19 305.66,218.93 305.80,218.67 C 305.93,218.41 306.05,218.15 306.15,217.90 C 306.25,217.64 306.32,217.39 306.38,217.13 C 306.44,216.88 306.48,216.63 306.50,216.38 C 306.52,216.12 306.51,215.87 306.50,215.62 C 306.49,215.38 306.46,215.15 306.43,214.93 C 306.39,214.71 306.35,214.49 306.29,214.29 C 306.23,214.08 306.16,213.89 306.08,213.70 C 306.00,213.52 305.90,213.34 305.80,213.17 C 305.69,213.00 305.57,212.85 305.45,212.70 C 305.32,212.55 305.18,212.40 305.02,212.27 C 304.87,212.14 304.71,212.02 304.53,211.91 C 304.36,211.79 304.18,211.69 303.97,211.59 C 303.75,211.50 303.51,211.41 303.24,211.34 C 302.97,211.26 302.68,211.19 302.35,211.13 C 302.03,211.07 301.68,211.02 301.30,210.98 C 300.92,210.94 300.51,210.91 300.08,210.89 C 299.64,210.87 299.18,210.86 298.70,210.85 C 298.21,210.85 297.69,210.85 297.15,210.87 C 296.61,210.88 296.04,210.90 295.44,210.94 C 294.84,210.97 294.15,211.03 293.56,211.06 C 292.97,211.09 292.42,211.11 291.90,211.12 C 291.38,211.12 290.89,211.12 290.45,211.10 C 290.00,211.08 289.58,211.06 289.20,211.02 C 288.82,210.98 288.48,210.92 288.17,210.86 C 287.86,210.80 287.59,210.72 287.35,210.63 C 287.11,210.55 286.91,210.45 286.74,210.34 C 286.57,210.23 286.44,210.10 286.34,209.97 C 286.25,209.83 286.21,209.67 286.16,209.53 C 286.10,209.39 286.05,209.26 286.02,209.12 C 285.98,208.99 285.95,208.87 285.92,208.75 C 285.90,208.63 285.88,208.52 285.88,208.41 C 285.87,208.30 285.87,208.19 285.88,208.09 C 285.88,207.99 285.90,207.90 285.92,207.81 C 285.95,207.72 285.98,207.64 286.02,207.56 C 286.05,207.48 286.10,207.41 286.16,207.34 C 286.21,207.28 286.27,207.21 286.34,207.16 C 286.41,207.10 286.49,207.05 286.57,207.01 C 286.65,206.96 286.74,206.93 286.84,206.90 C 286.93,206.87 287.03,206.85 287.14,206.83 C 287.25,206.81 287.36,206.80 287.48,206.80 C 287.61,206.79 287.73,206.80 287.87,206.80 C 288.00,206.81 288.14,206.83 288.29,206.85 C 288.44,206.87 288.59,206.90 288.75,206.94 C 288.91,206.97 289.06,207.03 289.25,207.06 C 289.44,207.10 289.67,207.13 289.91,207.15 C 290.16,207.17 290.44,207.19 290.74,207.20 C 291.05,207.20 291.38,207.21 291.73,207.20 C 292.09,207.20 292.48,207.19 292.89,207.17 C 293.30,207.15 293.74,207.13 294.21,207.10 C 294.68,207.07 295.17,207.04 295.70,206.99 C 296.22,206.95 296.77,206.90 297.34,206.84 C 297.92,206.79 298.61,206.87 299.16,206.66 C 299.70,206.45 300.18,206.09 300.60,205.59 C 301.02,205.08 301.38,204.43 301.68,203.63 C 301.98,202.83 302.21,201.89 302.39,200.80 C 302.57,199.70 302.68,198.46 302.73,197.08 C 302.79,195.69 302.78,194.16 302.71,192.48 C 302.64,190.80 302.51,188.97 302.32,186.99 C 302.13,185.02 301.88,182.89 301.56,180.62 C 301.25,178.36 300.79,175.64 300.44,173.38 C 300.09,171.11 299.77,168.98 299.48,167.01 C 299.18,165.03 298.92,163.20 298.68,161.52 C 298.44,159.84 298.23,158.31 298.05,156.92 C 297.86,155.54 297.71,154.30 297.58,153.20 C 297.45,152.11 297.35,151.17 297.27,150.37 C 297.20,149.57 297.15,148.92 297.13,148.41 C 297.11,147.91 297.12,147.55 297.16,147.34 C 297.19,147.13 297.25,147.21 297.34,147.16 C 297.44,147.10 297.57,147.05 297.74,147.01 C 297.91,146.96 298.11,146.93 298.35,146.90 C 298.59,146.87 298.86,146.85 299.17,146.83 C 299.48,146.81 299.82,146.80 300.20,146.80 C 300.58,146.79 301.00,146.80 301.45,146.80 C 301.89,146.81 302.38,146.83 302.90,146.85 C 303.42,146.87 303.97,146.90 304.56,146.94 C 305.15,146.97 305.76,146.88 306.44,147.06 C 307.11,147.24 307.84,147.56 308.62,148.01 C 309.39,148.46 310.22,149.05 311.10,149.77 C 311.98,150.50 312.91,151.36 313.89,152.36 C 314.87,153.36 315.90,154.49 316.98,155.77 C 318.07,157.04 319.20,158.45 320.38,159.99 C 321.57,161.54 322.80,163.22 324.09,165.04 C 325.37,166.86 326.71,168.81 328.09,170.91 C 329.48,173.00 331.07,175.46 332.41,177.59 C 333.75,179.72 334.99,181.75 336.13,183.68 C 337.28,185.61 338.32,187.44 339.27,189.16 C 340.22,190.89 341.07,192.52 341.83,194.05 C 342.58,195.57 343.24,197.00 343.80,198.33 C 344.36,199.65 344.82,200.88 345.18,202.01 C 345.54,203.13 345.81,204.16 345.98,205.09 C 346.14,206.01 346.21,206.84 346.19,207.56 C 346.16,208.29 345.93,208.85 345.81,209.44 C 345.70,210.03 345.60,210.59 345.51,211.12 C 345.42,211.64 345.34,212.14 345.27,212.60 C 345.21,213.06 345.15,213.49 345.11,213.89 C 345.07,214.29 345.04,214.65 345.02,214.98 C 345.00,215.32 344.99,215.62 344.99,215.88 C 345.00,216.15 345.01,216.38 345.04,216.59 C 345.07,216.79 345.11,216.96 345.16,217.09 C 345.21,217.23 345.25,217.29 345.34,217.41 C 345.44,217.52 345.56,217.64 345.71,217.77 C 345.86,217.90 346.05,218.05 346.26,218.20 C 346.47,218.35 346.71,218.50 346.98,218.67 C 347.26,218.84 347.56,219.02 347.89,219.20 C 348.22,219.39 348.58,219.58 348.98,219.79 C 349.37,219.99 349.79,220.21 350.24,220.43 C 350.69,220.65 351.18,220.88 351.69,221.12 C 352.20,221.37 352.76,221.64 353.31,221.88 C 353.86,222.11 354.43,222.33 355.00,222.53 C 355.57,222.73 356.16,222.92 356.75,223.09 C 357.34,223.27 357.95,223.42 358.56,223.56 C 359.18,223.70 359.80,223.83 360.44,223.94 C 361.07,224.05 361.72,224.14 362.38,224.22 C 363.03,224.30 363.70,224.36 364.38,224.41 C 365.05,224.45 365.74,224.48 366.44,224.50 C 367.14,224.52 367.85,224.49 368.56,224.50 C 369.28,224.51 369.99,224.54 370.72,224.58 C 371.44,224.62 372.17,224.67 372.91,224.73 C 373.64,224.80 374.38,224.88 375.12,224.97 C 375.87,225.06 376.62,225.16 377.38,225.28 C 378.13,225.40 378.89,225.53 379.66,225.67 C 380.42,225.82 381.19,225.97 381.97,226.14 C 382.74,226.31 383.53,226.49 384.31,226.69 C 385.10,226.88 385.94,227.10 386.69,227.31 C 387.44,227.52 388.15,227.73 388.81,227.94 C 389.48,228.15 390.10,228.35 390.69,228.56 C 391.27,228.77 391.81,228.98 392.31,229.19 C 392.81,229.40 393.27,229.60 393.69,229.81 C 394.10,230.02 394.48,230.23 394.81,230.44 C 395.15,230.65 395.44,230.85 395.69,231.06 C 395.94,231.27 396.15,231.48 396.31,231.69 C 396.48,231.90 396.55,232.12 396.69,232.31 C 396.83,232.51 396.98,232.68 397.16,232.84 C 397.33,233.01 397.52,233.15 397.72,233.28 C 397.92,233.41 398.14,233.53 398.38,233.62 C 398.61,233.72 398.86,233.81 399.12,233.88 C 399.39,233.94 399.67,233.99 399.97,234.03 C 400.27,234.07 400.58,234.09 400.91,234.09 C 401.23,234.10 401.58,234.09 401.94,234.06 C 402.30,234.04 402.71,233.97 403.06,233.94 C 403.42,233.90 403.76,233.88 404.08,233.86 C 404.40,233.84 404.70,233.83 404.98,233.83 C 405.27,233.83 405.53,233.83 405.78,233.84 C 406.03,233.86 406.26,233.88 406.47,233.91 C 406.68,233.93 406.87,233.97 407.05,234.02 C 407.22,234.06 407.38,234.11 407.52,234.17 C 407.65,234.23 407.77,234.30 407.88,234.38 C 407.98,234.45 407.97,234.55 408.12,234.62 C 408.28,234.70 408.52,234.78 408.83,234.84 C 409.14,234.91 409.52,234.97 409.98,235.03 C 410.45,235.09 410.98,235.14 411.59,235.19 C 412.21,235.23 412.89,235.28 413.66,235.31 C 414.42,235.35 415.26,235.38 416.17,235.41 C 417.09,235.43 418.08,235.45 419.14,235.47 C 420.21,235.48 421.35,235.49 422.56,235.50 C 423.78,235.51 425.22,235.49 426.44,235.50 C 427.65,235.51 428.80,235.52 429.87,235.54 C 430.94,235.56 431.93,235.58 432.85,235.62 C 433.77,235.65 434.62,235.69 435.39,235.73 C 436.16,235.78 436.86,235.83 437.48,235.89 C 438.11,235.95 438.66,236.01 439.13,236.09 C 439.61,236.16 440.01,236.24 440.34,236.32 C 440.66,236.40 440.92,236.50 441.09,236.59 C 441.27,236.69 441.31,236.75 441.41,236.91 C 441.50,237.06 441.60,237.27 441.68,237.54 C 441.76,237.80 441.84,238.12 441.91,238.49 C 441.99,238.86 442.05,239.29 442.11,239.77 C 442.17,240.24 442.22,240.77 442.27,241.36 C 442.31,241.94 442.35,242.58 442.38,243.27 C 442.42,243.96 442.44,244.71 442.46,245.51 C 442.48,246.31 442.49,247.16 442.50,248.06 C 442.51,248.97 442.51,250.03 442.50,250.94 C 442.49,251.84 442.48,252.69 442.46,253.49 C 442.44,254.29 442.42,255.04 442.38,255.73 C 442.35,256.42 442.31,257.06 442.27,257.64 C 442.22,258.23 442.17,258.76 442.11,259.23 C 442.05,259.71 441.99,260.14 441.91,260.51 C 441.84,260.88 441.76,261.20 441.68,261.46 C 441.60,261.73 441.50,261.94 441.41,262.09 C 441.31,262.25 441.27,262.31 441.09,262.41 C 440.92,262.50 440.66,262.60 440.34,262.68 C 440.01,262.76 439.61,262.84 439.13,262.91 C 438.66,262.99 438.11,263.05 437.48,263.11 C 436.86,263.17 436.16,263.22 435.39,263.27 C 434.62,263.31 433.77,263.35 432.85,263.38 C 431.93,263.42 430.94,263.44 429.87,263.46 C 428.80,263.48 427.65,263.49 426.44,263.50 C 425.22,263.51 423.78,263.50 422.56,263.50 C 421.35,263.50 420.21,263.51 419.15,263.52 C 418.09,263.54 417.10,263.55 416.20,263.57 C 415.29,263.59 414.46,263.61 413.70,263.64 C 412.95,263.67 412.27,263.70 411.67,263.73 C 411.07,263.77 410.55,263.81 410.10,263.85 C 409.65,263.89 409.29,263.94 408.99,263.99 C 408.70,264.04 408.48,264.10 408.34,264.16 C 408.20,264.21 408.21,264.27 408.16,264.34 C 408.10,264.42 408.05,264.50 408.02,264.59 C 407.98,264.69 407.95,264.79 407.92,264.91 C 407.90,265.02 407.88,265.15 407.88,265.28 C 407.87,265.42 407.87,265.56 407.88,265.72 C 407.88,265.88 407.90,266.04 407.92,266.22 C 407.95,266.40 407.98,266.58 408.02,266.78 C 408.05,266.98 408.10,267.19 408.16,267.41 C 408.21,267.62 408.20,267.88 408.34,268.09 C 408.48,268.31 408.70,268.51 408.99,268.70 C 409.29,268.88 409.65,269.05 410.10,269.21 C 410.55,269.37 411.07,269.51 411.67,269.64 C 412.27,269.77 412.95,269.88 413.70,269.98 C 414.46,270.08 415.29,270.17 416.20,270.24 C 417.10,270.31 418.09,270.37 419.15,270.41 C 420.21,270.46 421.35,270.49 422.56,270.50 C 423.78,270.51 425.22,270.49 426.44,270.50 C 427.65,270.51 428.80,270.53 429.87,270.55 C 430.94,270.58 431.93,270.62 432.85,270.66 C 433.77,270.71 434.62,270.76 435.39,270.83 C 436.16,270.89 436.86,270.96 437.48,271.05 C 438.11,271.13 438.66,271.22 439.13,271.32 C 439.61,271.42 440.01,271.53 440.34,271.65 C 440.66,271.77 440.92,271.89 441.09,272.03 C 441.27,272.17 441.31,272.27 441.41,272.47 C 441.50,272.66 441.60,272.90 441.68,273.20 C 441.76,273.49 441.84,273.82 441.91,274.21 C 441.99,274.60 442.05,275.03 442.11,275.52 C 442.17,276.00 442.22,276.53 442.27,277.11 C 442.31,277.69 442.35,278.32 442.38,278.99 C 442.42,279.67 442.44,280.39 442.46,281.16 C 442.48,281.94 442.49,282.76 442.50,283.62 C 442.51,284.49 442.51,285.51 442.50,286.38 C 442.49,287.24 442.47,288.06 442.45,288.84 C 442.42,289.61 442.38,290.33 442.34,291.01 C 442.29,291.68 442.24,292.31 442.17,292.89 C 442.11,293.47 442.04,294.00 441.95,294.48 C 441.87,294.97 441.78,295.40 441.68,295.79 C 441.58,296.18 441.47,296.51 441.35,296.80 C 441.23,297.10 441.11,297.34 440.97,297.53 C 440.83,297.73 440.75,297.83 440.53,297.97 C 440.32,298.10 440.03,298.23 439.68,298.34 C 439.33,298.45 438.90,298.55 438.41,298.63 C 437.92,298.72 437.36,298.80 436.73,298.86 C 436.11,298.92 435.41,298.98 434.64,299.02 C 433.87,299.06 433.04,299.08 432.13,299.10 C 431.23,299.12 430.25,299.12 429.21,299.12 C 428.17,299.11 427.06,299.09 425.88,299.06 C 424.69,299.03 423.30,298.97 422.12,298.94 C 420.95,298.90 419.84,298.88 418.81,298.86 C 417.78,298.84 416.82,298.83 415.94,298.83 C 415.05,298.83 414.24,298.83 413.50,298.84 C 412.76,298.86 412.09,298.88 411.50,298.91 C 410.91,298.93 410.39,298.97 409.94,299.02 C 409.49,299.06 409.11,299.11 408.81,299.17 C 408.51,299.23 408.28,299.30 408.12,299.38 C 407.97,299.45 407.98,299.55 407.88,299.62 C 407.77,299.70 407.65,299.78 407.52,299.84 C 407.38,299.91 407.22,299.97 407.05,300.03 C 406.87,300.09 406.68,300.14 406.47,300.19 C 406.26,300.23 406.03,300.28 405.78,300.31 C 405.53,300.35 405.27,300.38 404.98,300.41 C 404.70,300.43 404.40,300.45 404.08,300.47 C 403.76,300.48 403.42,300.49 403.06,300.50 C 402.71,300.51 402.30,300.49 401.94,300.50 C 401.58,300.51 401.23,300.53 400.91,300.56 C 400.58,300.59 400.27,300.64 399.97,300.69 C 399.67,300.74 399.39,300.80 399.12,300.88 C 398.86,300.95 398.61,301.03 398.38,301.12 C 398.14,301.22 397.92,301.32 397.72,301.44 C 397.52,301.55 397.33,301.68 397.16,301.81 C 396.98,301.95 396.83,302.09 396.69,302.25 C 396.55,302.41 396.48,302.58 396.31,302.75 C 396.15,302.92 395.95,303.09 395.70,303.27 C 395.46,303.44 395.18,303.62 394.86,303.80 C 394.54,303.98 394.18,304.16 393.78,304.34 C 393.38,304.53 392.95,304.72 392.47,304.91 C 391.99,305.10 391.48,305.29 390.92,305.48 C 390.37,305.68 389.77,305.88 389.14,306.08 C 388.51,306.28 387.84,306.48 387.12,306.69 C 386.41,306.89 385.63,307.11 384.88,307.31 C 384.12,307.51 383.36,307.70 382.59,307.88 C 381.83,308.05 381.06,308.22 380.28,308.38 C 379.51,308.53 378.72,308.68 377.94,308.81 C 377.15,308.95 376.36,309.07 375.56,309.19 C 374.77,309.30 373.96,309.41 373.16,309.50 C 372.35,309.59 371.54,309.68 370.72,309.75 C 369.90,309.82 369.08,309.89 368.25,309.94 C 367.42,309.99 366.56,310.01 365.75,310.06 C 364.94,310.11 364.16,310.18 363.41,310.25 C 362.65,310.32 361.92,310.41 361.22,310.50 C 360.52,310.59 359.84,310.70 359.19,310.81 C 358.54,310.93 357.91,311.05 357.31,311.19 C 356.71,311.32 356.14,311.47 355.59,311.62 C 355.05,311.78 354.53,311.95 354.03,312.12 C 353.54,312.30 353.07,312.49 352.62,312.69 C 352.18,312.89 351.77,313.11 351.38,313.31 C 350.98,313.52 350.60,313.72 350.24,313.91 C 349.88,314.11 349.55,314.30 349.23,314.49 C 348.91,314.68 348.61,314.87 348.33,315.05 C 348.05,315.23 347.79,315.40 347.55,315.58 C 347.31,315.75 347.08,315.92 346.88,316.09 C 346.68,316.25 346.50,316.41 346.34,316.57 C 346.17,316.73 346.03,316.88 345.91,317.03 C 345.78,317.18 345.68,317.30 345.59,317.47 C 345.50,317.64 345.43,317.84 345.37,318.07 C 345.31,318.30 345.26,318.55 345.23,318.84 C 345.19,319.12 345.18,319.43 345.17,319.77 C 345.17,320.10 345.18,320.47 345.20,320.86 C 345.23,321.25 345.27,321.67 345.32,322.12 C 345.37,322.56 345.44,323.04 345.52,323.54 C 345.61,324.04 345.70,324.57 345.81,325.12 C 345.92,325.68 346.16,326.19 346.19,326.88 C 346.21,327.56 346.14,328.36 345.96,329.26 C 345.79,330.16 345.51,331.16 345.13,332.27 C 344.76,333.38 344.28,334.60 343.70,335.92 C 343.13,337.24 342.45,338.67 341.67,340.20 C 340.89,341.74 340.02,343.37 339.04,345.12 C 338.06,346.86 336.98,348.71 335.80,350.66 C 334.63,352.62 333.35,354.68 331.97,356.84 C 330.59,359.01 328.95,361.53 327.53,363.66 C 326.11,365.79 324.74,367.77 323.43,369.62 C 322.12,371.46 320.86,373.17 319.66,374.73 C 318.46,376.29 317.32,377.71 316.23,378.98 C 315.15,380.26 314.12,381.40 313.14,382.39 C 312.17,383.38 311.25,384.24 310.38,384.95 C 309.52,385.65 308.71,386.22 307.96,386.65 C 307.21,387.07 306.51,387.36 305.88,387.50 Z" fill="none" stroke="currentColor" stroke-width="1.5" stroke-linejoin="round" stroke-linecap="round" filter="url(#glow)" />
</svg>