<svg xmlns="http://www.w3.org/2000/svg" width="512" height="512" viewBox="141.25 104.20 222.44 139.55" preserveAspectRatio="xMidYMid meet">
  <defs>
    <filter id="glow" x="-30%" y="-30%" width="160%" height="160%">
      <feGaussianBlur in="SourceGraphic" stdDeviation="2.4" result="blur" />
      <feMerge>
        <feMergeNode in="blur" />
        <feMergeNode in="SourceGraphic" />
      </feMerge>
    </filter>
    <clipPath id="hull-clip">
      <path d="M 300.06,232.06 C 299.06,232.03 297.93,231.99 296.94,231.94 C 295.94,231.88 294.99,231.82 294.09,231.73 C 293.19,231.65 292.34,231.56 291.53,231.45 C 290.72,231.35 289.96,231.23 289.25,231.09 C 288.54,230.96 287.87,230.82 287.25,230.66 C 286.63,230.50 286.06,230.33 285.53,230.14 C 285.01,229.96 284.53,229.76 284.09,229.55 C 283.66,229.34 283.28,229.11 282.94,228.88 C 282.60,228.64 282.34,228.36 282.06,228.12 C 281.78,227.89 281.51,227.67 281.25,227.47 C 280.99,227.27 280.74,227.08 280.50,226.91 C 280.26,226.73 280.03,226.58 279.81,226.44 C 279.59,226.30 279.39,226.17 279.19,226.06 C 278.99,225.95 278.80,225.86 278.62,225.78 C 278.45,225.70 278.28,225.64 278.12,225.59 C 277.97,225.55 277.82,225.52 277.69,225.50 C 277.55,225.48 277.43,225.51 277.31,225.50 C 277.20,225.49 277.09,225.48 276.99,225.46 C 276.89,225.44 276.81,225.42 276.73,225.38 C 276.65,225.35 276.58,225.31 276.52,225.27 C 276.45,225.22 276.40,225.17 276.36,225.11 C 276.32,225.05 276.28,224.99 276.26,224.91 C 276.23,224.84 276.22,224.76 276.21,224.68 C 276.20,224.60 276.21,224.50 276.22,224.41 C 276.23,224.31 276.27,224.20 276.28,224.09 C 276.29,223.99 276.30,223.89 276.30,223.78 C 276.29,223.68 276.28,223.57 276.27,223.47 C 276.25,223.36 276.22,223.26 276.19,223.16 C 276.15,223.05 276.11,222.95 276.06,222.84 C 276.01,222.74 275.96,222.64 275.89,222.53 C 275.83,222.43 275.75,222.32 275.67,222.22 C 275.59,222.11 275.50,222.01 275.41,221.91 C 275.31,221.80 275.25,221.74 275.09,221.59 C 274.94,221.44 274.74,221.25 274.49,221.01 C 274.24,220.77 273.95,220.48 273.60,220.15 C 273.26,219.82 272.86,219.44 272.42,219.02 C 271.98,218.59 271.49,218.12 270.95,217.61 C 270.42,217.10 269.83,216.54 269.20,215.93 C 268.56,215.32 267.88,214.67 267.15,213.98 C 266.42,213.28 265.64,212.54 264.81,211.75 C 263.99,210.96 263.03,210.04 262.19,209.25 C 261.35,208.46 260.55,207.71 259.78,207.00 C 259.02,206.29 258.29,205.62 257.59,205.00 C 256.90,204.38 256.24,203.79 255.62,203.25 C 255.01,202.71 254.42,202.21 253.88,201.75 C 253.33,201.29 252.82,200.88 252.34,200.50 C 251.87,200.12 251.43,199.79 251.03,199.50 C 250.63,199.21 250.27,198.96 249.94,198.75 C 249.61,198.54 249.39,198.41 249.06,198.25 C 248.73,198.09 248.37,197.93 247.97,197.78 C 247.57,197.63 247.13,197.48 246.66,197.34 C 246.18,197.20 245.67,197.07 245.12,196.94 C 244.58,196.81 243.99,196.68 243.38,196.56 C 242.76,196.44 242.10,196.33 241.41,196.22 C 240.71,196.11 239.98,196.01 239.22,195.91 C 238.45,195.81 237.65,195.71 236.81,195.62 C 235.97,195.54 235.10,195.48 234.19,195.38 C 233.27,195.27 232.31,195.15 231.31,195.00 C 230.31,194.85 229.27,194.69 228.19,194.50 C 227.10,194.31 225.98,194.10 224.81,193.88 C 223.65,193.65 222.44,193.40 221.19,193.12 C 219.94,192.85 218.65,192.56 217.31,192.25 C 215.98,191.94 214.60,191.60 213.19,191.25 C 211.77,190.90 210.31,190.52 208.81,190.12 C 207.31,189.73 205.64,189.26 204.19,188.88 C 202.74,188.49 201.39,188.13 200.12,187.80 C 198.86,187.47 197.70,187.16 196.62,186.89 C 195.55,186.62 194.57,186.37 193.69,186.16 C 192.80,185.94 192.01,185.75 191.31,185.59 C 190.61,185.43 190.01,185.30 189.50,185.20 C 188.99,185.10 188.57,185.03 188.25,184.98 C 187.93,184.94 187.70,184.92 187.56,184.94 C 187.43,184.95 187.51,185.04 187.44,185.06 C 187.37,185.09 187.28,185.10 187.16,185.09 C 187.04,185.09 186.89,185.07 186.72,185.03 C 186.55,184.99 186.35,184.94 186.12,184.88 C 185.90,184.81 185.65,184.72 185.38,184.62 C 185.10,184.53 184.80,184.41 184.47,184.28 C 184.14,184.15 183.79,184.01 183.41,183.84 C 183.03,183.68 182.62,183.51 182.19,183.31 C 181.76,183.12 181.25,182.90 180.81,182.69 C 180.37,182.48 179.95,182.27 179.55,182.06 C 179.14,181.85 178.76,181.65 178.39,181.44 C 178.02,181.23 177.67,181.02 177.34,180.81 C 177.01,180.60 176.70,180.40 176.41,180.19 C 176.11,179.98 175.84,179.77 175.58,179.56 C 175.32,179.35 175.08,179.15 174.86,178.94 C 174.64,178.73 174.43,178.52 174.25,178.31 C 174.07,178.10 173.95,177.88 173.75,177.69 C 173.55,177.49 173.31,177.31 173.03,177.14 C 172.76,176.97 172.44,176.82 172.09,176.67 C 171.74,176.53 171.36,176.40 170.94,176.28 C 170.52,176.16 170.06,176.06 169.56,175.97 C 169.07,175.88 168.54,175.80 167.97,175.73 C 167.40,175.67 166.80,175.62 166.16,175.58 C 165.52,175.54 164.84,175.51 164.12,175.50 C 163.41,175.49 162.58,175.50 161.88,175.50 C 161.17,175.50 160.50,175.49 159.88,175.48 C 159.26,175.46 158.68,175.45 158.15,175.43 C 157.61,175.41 157.12,175.39 156.67,175.36 C 156.22,175.33 155.82,175.30 155.45,175.27 C 155.09,175.23 154.77,175.19 154.49,175.15 C 154.21,175.11 153.98,175.06 153.79,175.01 C 153.60,174.96 153.45,174.90 153.34,174.84 C 153.24,174.79 153.21,174.72 153.16,174.66 C 153.10,174.59 153.05,174.53 153.02,174.47 C 152.98,174.41 152.95,174.34 152.92,174.28 C 152.90,174.22 152.88,174.16 152.88,174.09 C 152.87,174.03 152.87,173.97 152.88,173.91 C 152.88,173.84 152.90,173.78 152.92,173.72 C 152.95,173.66 152.98,173.59 153.02,173.53 C 153.05,173.47 153.10,173.41 153.16,173.34 C 153.21,173.28 153.24,173.21 153.34,173.16 C 153.45,173.10 153.60,173.04 153.79,172.99 C 153.98,172.94 154.21,172.89 154.49,172.85 C 154.77,172.81 155.09,172.77 155.45,172.73 C 155.82,172.70 156.22,172.67 156.67,172.64 C 157.12,172.61 157.61,172.59 158.15,172.57 C 158.68,172.55 159.26,172.54 159.88,172.52 C 160.50,172.51 161.17,172.50 161.88,172.50 C 162.58,172.50 163.41,172.51 164.12,172.50 C 164.84,172.49 165.52,172.46 166.16,172.42 C 166.80,172.38 167.40,172.33 167.97,172.27 C 168.54,172.20 169.07,172.12 169.56,172.03 C 170.06,171.94 170.52,171.84 170.94,171.72 C 171.36,171.60 171.74,171.47 172.09,171.33 C 172.44,171.18 172.76,171.03 173.03,170.86 C 173.31,170.69 173.55,170.51 173.75,170.31 C 173.95,170.12 174.07,169.89 174.25,169.69 C 174.43,169.48 174.62,169.28 174.83,169.08 C 175.03,168.88 175.25,168.68 175.48,168.48 C 175.72,168.29 175.96,168.10 176.22,167.91 C 176.48,167.72 176.75,167.53 177.03,167.34 C 177.32,167.16 177.61,166.98 177.92,166.80 C 178.23,166.62 178.55,166.44 178.89,166.27 C 179.23,166.09 179.58,165.92 179.94,165.75 C 180.30,165.58 180.66,165.42 181.06,165.25 C 181.46,165.08 181.89,164.92 182.34,164.75 C 182.80,164.58 183.28,164.42 183.78,164.25 C 184.29,164.08 184.82,163.92 185.38,163.75 C 185.93,163.58 186.52,163.42 187.12,163.25 C 187.73,163.08 188.37,162.92 189.03,162.75 C 189.69,162.58 190.38,162.42 191.09,162.25 C 191.81,162.08 192.55,161.92 193.31,161.75 C 194.08,161.58 194.94,161.41 195.69,161.25 C 196.43,161.09 197.13,160.94 197.79,160.79 C 198.44,160.64 199.05,160.50 199.62,160.37 C 200.18,160.23 200.70,160.11 201.17,159.98 C 201.64,159.86 202.07,159.75 202.45,159.64 C 202.83,159.53 203.17,159.43 203.46,159.34 C 203.75,159.24 204.00,159.15 204.20,159.07 C 204.39,158.99 204.55,158.91 204.66,158.84 C 204.76,158.77 204.79,158.73 204.84,158.66 C 204.90,158.59 204.95,158.51 204.98,158.42 C 205.02,158.34 205.05,158.24 205.08,158.14 C 205.10,158.04 205.12,157.93 205.12,157.81 C 205.13,157.70 205.13,157.57 205.12,157.44 C 205.12,157.30 205.10,157.16 205.08,157.02 C 205.05,156.87 205.02,156.71 204.98,156.55 C 204.95,156.38 204.90,156.21 204.84,156.03 C 204.79,155.85 204.65,155.64 204.66,155.47 C 204.66,155.29 204.74,155.13 204.88,154.98 C 205.03,154.82 205.24,154.68 205.52,154.55 C 205.81,154.43 206.16,154.31 206.58,154.20 C 207.00,154.10 207.49,154.00 208.05,153.92 C 208.61,153.84 209.23,153.77 209.93,153.71 C 210.63,153.65 211.39,153.61 212.23,153.57 C 213.06,153.54 213.96,153.51 214.94,153.50 C 215.91,153.49 217.05,153.50 218.06,153.50 C 219.08,153.50 220.06,153.49 221.02,153.48 C 221.97,153.48 222.90,153.47 223.80,153.45 C 224.70,153.44 225.57,153.42 226.41,153.41 C 227.25,153.39 228.06,153.37 228.84,153.34 C 229.63,153.32 230.38,153.29 231.11,153.27 C 231.84,153.24 232.53,153.21 233.20,153.17 C 233.87,153.14 234.51,153.10 235.12,153.06 C 235.74,153.02 236.31,152.98 236.88,152.94 C 237.44,152.89 237.99,152.84 238.52,152.78 C 239.04,152.72 239.55,152.66 240.05,152.59 C 240.54,152.53 241.01,152.45 241.47,152.38 C 241.92,152.30 242.36,152.21 242.78,152.12 C 243.20,152.04 243.60,151.94 243.98,151.84 C 244.37,151.74 244.73,151.64 245.08,151.53 C 245.42,151.42 245.75,151.31 246.06,151.19 C 246.37,151.07 246.60,150.99 246.94,150.81 C 247.28,150.63 247.67,150.39 248.12,150.10 C 248.56,149.81 249.06,149.46 249.60,149.05 C 250.15,148.65 250.74,148.19 251.39,147.67 C 252.04,147.15 252.74,146.58 253.48,145.95 C 254.23,145.32 255.03,144.64 255.88,143.90 C 256.73,143.16 257.63,142.36 258.59,141.51 C 259.54,140.65 260.54,139.75 261.59,138.78 C 262.65,137.82 263.87,136.68 264.91,135.72 C 265.94,134.76 266.90,133.85 267.80,133.00 C 268.69,132.15 269.51,131.36 270.27,130.62 C 271.02,129.89 271.70,129.21 272.31,128.59 C 272.92,127.97 273.47,127.41 273.94,126.91 C 274.41,126.40 274.81,125.95 275.14,125.56 C 275.47,125.17 275.73,124.84 275.92,124.56 C 276.11,124.29 276.23,124.07 276.28,123.91 C 276.33,123.74 276.23,123.69 276.22,123.59 C 276.21,123.50 276.20,123.40 276.21,123.32 C 276.22,123.24 276.23,123.16 276.26,123.09 C 276.28,123.01 276.32,122.95 276.36,122.89 C 276.40,122.83 276.45,122.78 276.52,122.73 C 276.58,122.69 276.65,122.65 276.73,122.62 C 276.81,122.58 276.89,122.56 276.99,122.54 C 277.09,122.52 277.20,122.51 277.31,122.50 C 277.43,122.49 277.55,122.52 277.69,122.50 C 277.83,122.48 277.98,122.45 278.14,122.41 C 278.30,122.36 278.48,122.30 278.67,122.22 C 278.86,122.14 279.07,122.05 279.28,121.94 C 279.50,121.83 279.73,121.70 279.97,121.56 C 280.21,121.42 280.47,121.27 280.73,121.09 C 281.00,120.92 281.28,120.73 281.58,120.53 C 281.87,120.33 282.18,120.11 282.50,119.88 C 282.82,119.64 283.13,119.36 283.50,119.12 C 283.87,118.89 284.28,118.66 284.73,118.45 C 285.18,118.24 285.67,118.04 286.20,117.86 C 286.73,117.67 287.30,117.50 287.91,117.34 C 288.51,117.18 289.16,117.04 289.84,116.91 C 290.53,116.77 291.25,116.65 292.02,116.55 C 292.78,116.44 293.58,116.35 294.42,116.27 C 295.26,116.18 296.14,116.12 297.06,116.06 C 297.98,116.01 299.02,115.97 299.94,115.94 C 300.85,115.90 301.73,115.88 302.56,115.86 C 303.40,115.84 304.19,115.83 304.94,115.83 C 305.69,115.83 306.40,115.83 307.06,115.84 C 307.73,115.86 308.35,115.88 308.94,115.91 C 309.52,115.93 310.06,115.97 310.56,116.02 C 311.06,116.06 311.52,116.11 311.94,116.17 C 312.35,116.23 312.73,116.30 313.06,116.38 C 313.40,116.45 313.65,116.54 313.94,116.62 C 314.22,116.71 314.49,116.80 314.76,116.90 C 315.02,116.99 315.28,117.09 315.52,117.20 C 315.77,117.30 316.01,117.40 316.23,117.52 C 316.46,117.63 316.68,117.74 316.89,117.86 C 317.10,117.98 317.30,118.10 317.49,118.23 C 317.68,118.35 317.87,118.48 318.04,118.62 C 318.21,118.75 318.38,118.89 318.53,119.03 C 318.69,119.17 318.79,119.25 318.97,119.47 C 319.15,119.69 319.36,119.98 319.60,120.35 C 319.85,120.72 320.12,121.16 320.43,121.68 C 320.74,122.20 321.08,122.79 321.45,123.45 C 321.83,124.12 322.23,124.86 322.67,125.67 C 323.11,126.49 323.58,127.37 324.09,128.34 C 324.59,129.30 325.13,130.33 325.70,131.45 C 326.26,132.56 326.87,133.74 327.50,135.00 C 328.13,136.26 328.84,137.71 329.50,139.00 C 330.16,140.29 330.83,141.53 331.48,142.73 C 332.14,143.93 332.80,145.09 333.45,146.20 C 334.11,147.32 334.76,148.38 335.41,149.41 C 336.05,150.43 336.70,151.41 337.34,152.34 C 337.99,153.28 338.63,154.17 339.27,155.02 C 339.90,155.86 340.54,156.66 341.17,157.42 C 341.80,158.18 342.43,158.89 343.06,159.56 C 343.69,160.23 344.35,160.83 344.94,161.44 C 345.53,162.05 346.08,162.65 346.59,163.23 C 347.11,163.82 347.59,164.39 348.03,164.95 C 348.47,165.51 348.88,166.06 349.25,166.59 C 349.62,167.13 349.95,167.65 350.25,168.16 C 350.55,168.66 350.81,169.16 351.03,169.64 C 351.26,170.12 351.44,170.59 351.59,171.05 C 351.74,171.50 351.86,171.95 351.94,172.38 C 352.02,172.80 352.07,173.19 352.06,173.62 C 352.06,174.06 352.01,174.51 351.92,174.98 C 351.83,175.46 351.70,175.95 351.52,176.45 C 351.34,176.96 351.11,177.49 350.84,178.03 C 350.58,178.58 350.26,179.14 349.91,179.72 C 349.55,180.30 349.15,180.90 348.70,181.52 C 348.26,182.13 347.77,182.77 347.23,183.42 C 346.70,184.08 346.12,184.75 345.50,185.44 C 344.88,186.13 344.17,186.81 343.50,187.56 C 342.83,188.32 342.16,189.11 341.48,189.95 C 340.81,190.79 340.13,191.68 339.45,192.61 C 338.77,193.54 338.09,194.51 337.41,195.53 C 336.72,196.55 336.03,197.61 335.34,198.72 C 334.65,199.83 333.96,200.98 333.27,202.17 C 332.57,203.37 331.87,204.61 331.17,205.89 C 330.47,207.17 329.77,208.50 329.06,209.88 C 328.36,211.25 327.62,212.79 326.94,214.12 C 326.25,215.46 325.59,216.72 324.95,217.90 C 324.30,219.08 323.68,220.18 323.09,221.20 C 322.49,222.21 321.91,223.15 321.36,224.02 C 320.81,224.88 320.27,225.66 319.77,226.36 C 319.26,227.06 318.77,227.68 318.30,228.23 C 317.84,228.77 317.40,229.23 316.98,229.62 C 316.56,230.00 316.16,230.31 315.78,230.53 C 315.40,230.76 315.12,230.83 314.72,230.97 C 314.32,231.10 313.88,231.23 313.40,231.34 C 312.92,231.45 312.39,231.55 311.82,231.63 C 311.25,231.72 310.64,231.80 309.98,231.86 C 309.33,231.92 308.63,231.98 307.89,232.02 C 307.15,232.06 306.37,232.08 305.54,232.10 C 304.71,232.12 303.84,232.12 302.93,232.12 C 302.02,232.11 301.06,232.09 300.06,232.06 Z" />
    </clipPath>
  </defs>
  <path d="M 300.06,232.06 C 299.06,232.03 297.93,231.99 296.94,231.94 C 295.94,231.88 294.99,231.82 294.09,231.73 C 293.19,231.65 292.34,231.56 291.53,231.45 C 290.72,231.35 289.96,231.23 289.25,231.09 C 288.54,230.96 287.87,230.82 287.25,230.66 C 286.63,230.50 286.06,230.33 285.53,230.14 C 285.01,229.96 284.53,229.76 284.09,229.55 C 283.66,229.34 283.28,229.11 282.94,228.88 C 282.60,228.64 282.34,228.36 282.06,228.12 C 281.78,227.89 281.51,227.67 281.25,227.47 C 280.99,227.27 280.74,227.08 280.50,226.91 C 280.26,226.73 280.03,226.58 279.81,226.44 C 279.59,226.30 279.39,226.17 279.19,226.06 C 278.99,225.95 278.80,225.86 278.62,225.78 C 278.45,225.70 278.28,225.64 278.12,225.59 C 277.97,225.55 277.82,225.52 277.69,225.50 C 277.55,225.48 277.43,225.51 277.31,225.50 C 277.20,225.49 277.09,225.48 276.99,225.46 C 276.89,225.44 276.81,225.42 276.73,225.38 C 276.65,225.35 276.58,225.31 276.52,225.27 C 276.45,225.22 276.40,225.17 276.36,225.11 C 276.32,225.05 276.28,224.99 276.26,224.91 C 276.23,224.84 276.22,224.76 276.21,224.68 C 276.20,224.60 276.21,224.50 276.22,224.41 C 276.23,224.31 276.27,224.20 276.28,224.09 C 276.29,223.99 276.30,223.89 276.30,223.78 C 276.29,223.68 276.28,223.57 276.27,223.47 C 276.25,223.36 276.22,223.26 276.19,223.16 C 276.15,223.05 276.11,222.95 276.06,222.84 C 276.01,222.74 275.96,222.64 275.89,222.53 C 275.83,222.43 275.75,222.32 275.67,222.22 C 275.59,222.11 275.50,222.01 275.41,221.91 C 275.31,221.80 275.25,221.74 275.09,221.59 C 274.94,221.44 274.74,221.25 274.49,221.01 C 274.24,220.77 273.95,220.48 273.60,220.15 C 273.26,219.82 272.86,219.44 272.42,219.02 C 271.98,218.59 271.49,218.12 270.95,217.61 C 270.42,217.10 269.83,216.54 269.20,215.93 C 268.56,215.32 267.88,214.67 267.15,213.98 C 266.42,213.28 265.64,212.54 264.81,211.75 C 263.99,210.96 263.03,210.04 262.19,209.25 C 261.35,208.46 260.55,207.71 259.78,207.00 C 259.02,206.29 258.29,205.62 257.59,205.00 C 256.90,204.38 256.24,203.79 255.62,203.25 C 255.01,202.71 254.42,202.21 253.88,201.75 C 253.33,201.29 252.82,200.88 252.34,200.50 C 251.87,200.12 251.43,199.79 251.03,199.50 C 250.63,199.21 250.27,198.96 249.94,198.75 C 249.61,198.54 249.39,198.41 249.06,198.25 C 248.73,198.09 248.37,197.93 247.97,197.78 C 247.57,197.63 247.13,197.48 246.66,197.34 C 246.18,197.20 245.67,197.07 245.12,196.94 C 244.58,196.81 243.99,196.68 243.38,196.56 C 242.76,196.44 242.10,196.33 241.41,196.22 C 240.71,196.11 239.98,196.01 239.22,195.91 C 238.45,195.81 237.65,195.71 236.81,195.62 C 235.97,195.54 235.10,195.48 234.19,195.38 C 233.27,195.27 232.31,195.15 231.31,195.00 C 230.31,194.85 229.27,194.69 228.19,194.50 C 227.10,194.31 225.98,194.10 224.81,193.88 C 223.65,193.65 222.44,193.40 221.19,193.12 C 219.94,192.85 218.65,192.56 217.31,192.25 C 215.98,191.94 214.60,191.60 213.19,191.25 C 211.77,190.90 210.31,190.52 208.81,190.12 C 207.31,189.73 205.64,189.26 204.19,188.88 C 202.74,188.49 201.39,188.13 200.12,187.80 C 198.86,187.47 197.70,187.16 196.62,186.89 C 195.55,186.62 194.57,186.37 193.69,186.16 C 192.80,185.94 192.01,185.75 191.31,185.59 C 190.61,185.43 190.01,185.30 189.50,185.20 C 188.99,185.10 188.57,185.03 188.25,184.98 C 187.93,184.94 187.70,184.92 187.56,184.94 C 187.43,184.95 187.51,185.04 187.44,185.06 C 187.37,185.09 187.28,185.10 187.16,185.09 C 187.04,185.09 186.89,185.07 186.72,185.03 C 186.55,184.99 186.35,184.94 186.12,184.88 C 185.90,184.81 185.65,184.72 185.38,184.62 C 185.10,184.53 184.80,184.41 184.47,184.28 C 184.14,184.15 183.79,184.01 183.41,183.84 C 183.03,183.68 182.62,183.51 182.19,183.31 C 181.76,183.12 181.25,182.90 180.81,182.69 C 180.37,182.48 179.95,182.27 179.55,182.06 C 179.14,181.85 178.76,181.65 178.39,181.44 C 178.02,181.23 177.67,181.02 177.34,180.81 C 177.01,180.60 176.70,180.40 176.41,180.19 C 176.11,179.98 175.84,179.77 175.58,179.56 C 175.32,179.35 175.08,179.15 174.86,178.94 C 174.64,178.73 174.43,178.52 174.25,178.31 C 174.07,178.10 173.95,177.88 173.75,177.69 C 173.55,177.49 173.31,177.31 173.03,177.14 C 172.76,176.97 172.44,176.82 172.09,176.67 C 171.74,176.53 171.36,176.40 170.94,176.28 C 170.52,176.16 170.06,176.06 169.56,175.97 C 169.07,175.88 168.54,175.80 167.97,175.73 C 167.40,175.67 166.80,175.62 166.16,175.58 C 165.52,175.54 164.84,175.51 164.12,175.50 C 163.41,175.49 162.58,175.50 161.88,175.50 C 161.17,175.50 160.50,175.49 159.88,175.48 C 159.26,175.46 158.68,175.45 158.15,175.43 C 157.61,175.41 157.12,175.39 156.67,175.36 C 156.22,175.33 155.82,175.30 155.45,175.27 C 155.09,175.23 154.77,175.19 154.49,175.15 C 154.21,175.11 153.98,175.06 153.79,175.01 C 153.60,174.96 153.45,174.90 153.34,174.84 C 153.24,174.79 153.21,174.72 153.16,174.66 C 153.10,174.59 153.05,174.53 153.02,174.47 C 152.98,174.41 152.95,174.34 152.92,174.28 C 152.90,174.22 152.88,174.16 152.88,174.09 C 152.87,174.03 152.87,173.97 152.88,173.91 C 152.88,173.84 152.90,173.78 152.92,173.72 C 152.95,173.66 152.98,173.59 153.02,173.53 C 153.05,173.47 153.10,173.41 153.16,173.34 C 153.21,173.28 153.24,173.21 153.34,173.16 C 153.45,173.10 153.60,173.04 153.79,172.99 C 153.98,172.94 154.21,172.89 154.49,172.85 C 154.77,172.81 155.09,172.77 155.45,172.73 C 155.82,172.70 156.22,172.67 156.67,172.64 C 157.12,172.61 157.61,172.59 158.15,172.57 C 158.68,172.55 159.26,172.54 159.88,172.52 C 160.50,172.51 161.17,172.50 161.88,172.50 C 162.58,172.50 163.41,172.51 164.12,172.50 C 164.84,172.49 165.52,172.46 166.16,172.42 C 166.80,172.38 167.40,172.33 167.97,172.27 C 168.54,172.20 169.07,172.12 169.56,172.03 C 170.06,171.94 170.52,171.84 170.94,171.72 C 171.36,171.60 171.74,171.47 172.09,171.33 C 172.44,171.18 172.76,171.03 173.03,170.86 C 173.31,170.69 173.55,170.51 173.75,170.31 C 173.95,170.12 174.07,169.89 174.25,169.69 C 174.43,169.48 174.62,169.28 174.83,169.08 C 175.03,168.88 175.25,168.68 175.48,168.48 C 175.72,168.29 175.96,168.10 176.22,167.91 C 176.48,167.72 176.75,167.53 177.03,167.34 C 177.32,167.16 177.61,166.98 177.92,166.80 C 178.23,166.62 178.55,166.44 178.89,166.27 C 179.23,166.09 179.58,165.92 179.94,165.75 C 180.30,165.58 180.66,165.42 181.06,165.25 C 181.46,165.08 181.89,164.92 182.34,164.75 C 182.80,164.58 183.28,164.42 183.78,164.25 C 184.29,164.08 184.82,163.92 185.38,163.75 C 185.93,163.58 186.52,163.42 187.12,163.25 C 187.73,163.08 188.37,162.92 189.03,162.75 C 189.69,162.58 190.38,162.42 191.09,162.25 C 191.81,162.08 192.55,161.92 193.31,161.75 C 194.08,161.58 194.94,161.41 195.69,161.25 C 196.43,161.09 197.13,160.94 197.79,160.79 C 198.44,160.64 199.05,160.50 199.62,160.37 C 200.18,160.23 200.70,160.11 201.17,159.98 C 201.64,159.86 202.07,159.75 202.45,159.64 C 202.83,159.53 203.17,159.43 203.46,159.34 C 203.75,159.24 204.00,159.15 204.20,159.07 C 204.39,158.99 204.55,158.91 204.66,158.84 C 204.76,158.77 204.79,158.73 204.84,158.66 C 204.90,158.59 204.95,158.51 204.98,158.42 C 205.02,158.34 205.05,158.24 205.08,158.14 C 205.10,158.04 205.12,157.93 205.12,157.81 C 205.13,157.70 205.13,157.57 205.12,157.44 C 205.12,157.30 205.10,157.16 205.08,157.02 C 205.05,156.87 205.02,156.71 204.98,156.55 C 204.95,156.38 204.90,156.21 204.84,156.03 C 204.79,155.85 204.65,155.64 204.66,155.47 C 204.66,155.29 204.74,155.13 204.88,154.98 C 205.03,154.82 205.24,154.68 205.52,154.55 C 205.81,154.43 206.16,154.31 206.58,154.20 C 207.00,154.10 207.49,154.00 208.05,153.92 C 208.61,153.84 209.23,153.77 209.93,153.71 C 210.63,153.65 211.39,153.61 212.23,153.57 C 213.06,153.54 213.96,153.51 214.94,153.50 C 215.91,153.49 217.05,153.50 218.06,153.50 C 219.08,153.50 220.06,153.49 221.02,153.48 C 221.97,153.48 222.90,153.47 223.80,153.45 C 224.70,153.44 225.57,153.42 226.41,153.41 C 227.25,153.39 228.06,153.37 228.84,153.34 C 229.63,153.32 230.38,153.29 231.11,153.27 C 231.84,153.24 232.53,153.21 233.20,153.17 C 233.87,153.14 234.51,153.10 235.12,153.06 C 235.74,153.02 236.31,152.98 236.88,152.94 C 237.44,152.89 237.99,152.84 238.52,152.78 C 239.04,152.72 239.55,152.66 240.05,152.59 C 240.54,152.53 241.01,152.45 241.47,152.38 C 241.92,152.30 242.36,152.21 242.78,152.12 C 243.20,152.04 243.60,151.94 243.98,151.84 C 244.37,151.74 244.73,151.64 245.08,151.53 C 245.42,151.42 245.75,151.31 246.06,151.19 C 246.37,151.07 246.60,150.99 246.94,150.81 C 247.28,150.63 247.67,150.39 248.12,150.10 C 248.56,149.81 249.06,149.46 249.60,149.05 C 250.15,148.65 250.74,148.19 251.39,147.67 C 252.04,147.15 252.74,146.58 253.48,145.95 C 254.23,145.32 255.03,144.64 255.88,143.90 C 256.73,143.16 257.63,142.36 258.59,141.51 C 259.54,140.65 260.54,139.75 261.59,138.78 C 262.65,137.82 263.87,136.68 264.91,135.72 C 265.94,134.76 266.90,133.85 267.80,133.00 C 268.69,132.15 269.51,131.36 270.27,130.62 C 271.02,129.89 271.70,129.21 272.31,128.59 C 272.92,127.97 273.47,127.41 273.94,126.91 C 274.41,126.40 274.81,125.95 275.14,125.56 C 275.47,125.17 275.73,124.84 275.92,124.56 C 276.11,124.29 276.23,124.07 276.28,123.91 C 276.33,123.74 276.23,123.69 276.22,123.59 C 276.21,123.50 276.20,123.40 276.21,123.32 C 276.22,123.24 276.23,123.16 276.26,123.09 C 276.28,123.01 276.32,122.95 276.36,122.89 C 276.40,122.83 276.45,122.78 276.52,122.73 C 276.58,122.69 276.65,122.65 276.73,122.62 C 276.81,122.58 276.89,122.56 276.99,122.54 C 277.09,122.52 277.20,122.51 277.31,122.50 C 277.43,122.49 277.55,122.52 277.69,122.50 C 277.83,122.48 277.98,122.45 278.14,122.41 C 278.30,122.36 278.48,122.30 278.67,122.22 C 278.86,122.14 279.07,122.05 279.28,121.94 C 279.50,121.83 279.73,121.70 279.97,121.56 C 280.21,121.42 280.47,121.27 280.73,121.09 C 281.00,120.92 281.28,120.73 281.58,120.53 C 281.87,120.33 282.18,120.11 282.50,119.88 C 282.82,119.64 283.13,119.36 283.50,119.12 C 283.87,118.89 284.28,118.66 284.73,118.45 C 285.18,118.24 285.67,118.04 286.20,117.86 C 286.73,117.67 287.30,117.50 287.91,117.34 C 288.51,117.18 289.16,117.04 289.84,116.91 C 290.53,116.77 291.25,116.65 292.02,116.55 C 292.78,116.44 293.58,116.35 294.42,116.27 C 295.26,116.18 296.14,116.12 297.06,116.06 C 297.98,116.01 299.02,115.97 299.94,115.94 C 300.85,115.90 301.73,115.88 302.56,115.86 C 303.40,115.84 304.19,115.83 304.94,115.83 C 305.69,115.83 306.40,115.83 307.06,115.84 C 307.73,115.86 308.35,115.88 308.94,115.91 C 309.52,115.93 310.06,115.97 310.56,116.02 C 311.06,116.06 311.52,116.11 311.94,116.17 C 312.35,116.23 312.73,116.30 313.06,116.38 C 313.40,116.45 313.65,116.54 313.94,116.62 C 314.22,116.71 314.49,116.80 314.76,116.90 C 315.02,116.99 315.28,117.09 315.52,117.20 C 315.77,117.30 316.01,117.40 316.23,117.52 C 316.46,117.63 316.68,117.74 316.89,117.86 C 317.10,117.98 317.30,118.10 317.49,118.23 C 317.68,118.35 317.87,118.48 318.04,118.62 C 318.21,118.75 318.38,118.89 318.53,119.03 C 318.69,119.17 318.79,119.25 318.97,119.47 C 319.15,119.69 319.36,119.98 319.60,120.35 C 319.85,120.72 320.12,121.16 320.43,121.68 C 320.74,122.20 321.08,122.79 321.45,123.45 C 321.83,124.12 322.23,124.86 322.67,125.67 C 323.11,126.49 323.58,127.37 324.09,128.34 C 324.59,129.30 325.13,130.33 325.70,131.45 C 326.26,132.56 326.87,133.74 327.50,135.00 C 328.13,136.26 328.84,137.71 329.50,139.00 C 330.16,140.29 330.83,141.53 331.48,142.73 C 332.14,143.93 332.80,145.09 333.45,146.20 C 334.11,147.32 334.76,148.38 335.41,149.41 C 336.05,150.43 336.70,151.41 337.34,152.34 C 337.99,153.28 338.63,154.17 339.27,155.02 C 339.90,155.86 340.54,156.66 341.17,157.42 C 341.80,158.18 342.43,158.89 343.06,159.56 C 343.69,160.23 344.35,160.83 344.94,161.44 C 345.53,162.05 346.08,162.65 346.59,163.23 C 347.11,163.82 347.59,164.39 348.03,164.95 C 348.47,165.51 348.88,166.06 349.25,166.59 C 349.62,167.13 349.95,167.65 350.25,168.16 C 350.55,168.66 350.81,169.16 351.03,169.64 C 351.26,170.12 351.44,170.59 351.59,171.05 C 351.74,171.50 351.86,171.95 351.94,172.38 C 352.02,172.80 352.07,173.19 352.06,173.62 C 352.06,174.06 352.01,174.51 351.92,174.98 C 351.83,175.46 351.70,175.95 351.52,176.45 C 351.34,176.96 351.11,177.49 350.84,178.03 C 350.58,178.58 350.26,179.14 349.91,179.72 C 349.55,180.30 349.15,180.90 348.70,181.52 C 348.26,182.13 347.77,182.77 347.23,183.42 C 346.70,184.08 346.12,184.75 345.50,185.44 C 344.88,186.13 344.17,186.81 343.50,187.56 C 342.83,188.32 342.16,189.11 341.48,189.95 C 340.81,190.79 340.13,191.68 339.45,192.61 C 338.77,193.54 338.09,194.51 337.41,195.53 C 336.72,196.55 336.03,197.61 335.34,198.72 C 334.65,199.83 333.96,200.98 333.27,202.17 C 332.57,203.37 331.87,204.61 331.17,205.89 C 330.47,207.17 329.77,208.50 329.06,209.88 C 328.36,211.25 327.62,212.79 326.94,214.12 C 326.25,215.46 325.59,216.72 324.95,217.90 C 324.30,219.08 323.68,220.18 323.09,221.20 C 322.49,222.21 321.91,223.15 321.36,224.02 C 320.81,224.88 320.27,225.66 319.77,226.36 C 319.26,227.06 318.77,227.68 318.30,228.23 C 317.84,228.77 317.40,229.23 316.98,229.62 C 316.56,230.00 316.16,230.31 315.78,230.53 C 315.40,230.76 315.12,230.83 314.72,230.97 C 314.32,231.10 313.88,231.23 313.40,231.34 C 312.92,231.45 312.39,231.55 311.82,231.63 C 311.25,231.72 310.64,231.80 309.98,231.86 C 309.33,231.92 308.63,231.98 307.89,232.02 C 307.15,232.06 306.37,232.08 305.54,232.10 C 304.71,232.12 303.84,232.12 302.93,232.12 C 302.02,232.11 301.06,232.09 300.06,232.06 Z" stroke="none" fill="currentColor" opacity="0.11" />
  <path d="M261.69,181.61L239.71,181.58 M261.69,167.52L239.70,167.56 M226.42,182.49L226.43,182.44 M249.94,179.69L263.06,179.71 M249.94,169.45L239.72,169.47 M216.93,179.57L228.51,179.51 M239.79,179.47L249.79,179.52 M216.93,169.57L228.51,169.63 M239.79,169.66L249.79,169.61 M242.72,182.87L259.87,182.90 M259.78,166.44L249.95,166.49 M236.41,153.72L245.65,154.18 M153.74,173.99L171.86,173.26 M153.73,173.97L171.86,173.25 M153.73,175.15L171.86,175.87 M170.91,174.56L156.30,174.39 M170.91,174.56L156.30,174.77 M170.17,175.71L159.01,175.20 M159.01,175.20L170.17,175.71 M170.17,173.27L159.02,173.70 M159.02,173.90L170.18,173.45 M260.49,192.73L260.49,183.38 M272.62,164.40L279.67,164.37 M279.44,164.37L272.40,164.40 M279.56,163.85L272.51,163.89 M272.62,185.21L279.67,185.18 M279.44,185.18L272.40,185.21 M279.56,184.66L272.51,184.70 M275.51,174.57L275.52,165.30 M275.52,183.84L275.51,174.57 M217.98,157.04L226.48,155.24 M303.71,226.19L295.04,225.22 M270.08,217.07L256.77,204.39 M273.50,204.92L258.36,204.71 M340.02,189.68L343.85,183.43 M321.59,192.28L297.92,226.60 M295.18,228.25L286.89,229.73 M277.60,207.50L290.62,207.50 M277.60,210.60L290.62,210.60 M303.71,122.95L295.04,123.93 M270.08,132.07L256.77,144.75 M277.57,125.70L269.85,132.64 M273.62,144.21L258.49,144.43 M340.02,159.46L343.85,165.71 M297.92,122.55L321.59,156.86 M295.18,120.89L286.89,119.41 M277.60,138.50L290.62,138.50 M277.60,141.60L290.62,141.60 M323.44,155.21L334.40,155.45 M309.39,160.84L318.73,156.40 M318.73,192.74L309.39,188.30 M331.39,167.31L342.67,167.35 M331.39,166.64L343.17,166.70 M331.39,166.64L342.48,166.67 M331.39,181.83L342.67,181.80 M343.17,182.44L331.39,182.50 M342.48,182.47L331.39,182.50 M337.27,168.71L337.27,180.43 M334.74,180.26L334.74,168.88 M307.65,153.73L322.43,152.97 M337.47,155.94L328.26,156.06 M307.65,195.41L322.43,196.17 M328.26,193.08L337.47,193.20 M263.74,158.64L279.47,159.19 M259.37,149.90L280.85,150.34 M259.37,199.39L280.84,198.71 M248.69,151.36L255.84,146.25 M248.69,197.79L255.84,202.90 M196.36,178.73L206.43,178.74 M196.38,174.51L206.46,174.53 M196.36,170.37L206.43,170.40 M196.37,174.59L206.44,174.60 M223.45,161.78L223.45,173.58" stroke="currentColor" stroke-width="0.6" stroke-linecap="round" fill="none" opacity="0.55" clip-path="url(#hull-clip)" filter="url(#glow)" />
  <path d="M 300.06,232.06 C 299.06,232.03 297.93,231.99 296.94,231.94 C 295.94,231.88 294.99,231.82 294.09,231.73 C 293.19,231.65 292.34,231.56 291.53,231.45 C 290.72,231.35 289.96,231.23 289.25,231.09 C 288.54,230.96 287.87,230.82 287.25,230.66 C 286.63,230.50 286.06,230.33 285.53,230.14 C 285.01,229.96 284.53,229.76 284.09,229.55 C 283.66,229.34 283.28,229.11 282.94,228.88 C 282.60,228.64 282.34,228.36 282.06,228.12 C 281.78,227.89 281.51,227.67 281.25,227.47 C 280.99,227.27 280.74,227.08 280.50,226.91 C 280.26,226.73 280.03,226.58 279.81,226.44 C 279.59,226.30 279.39,226.17 279.19,226.06 C 278.99,225.95 278.80,225.86 278.62,225.78 C 278.45,225.70 278.28,225.64 278.12,225.59 C 277.97,225.55 277.82,225.52 277.69,225.50 C 277.55,225.48 277.43,225.51 277.31,225.50 C 277.20,225.49 277.09,225.48 276.99,225.46 C 276.89,225.44 276.81,225.42 276.73,225.38 C 276.65,225.35 276.58,225.31 276.52,225.27 C 276.45,225.22 276.40,225.17 276.36,225.11 C 276.32,225.05 276.28,224.99 276.26,224.91 C 276.23,224.84 276.22,224.76 276.21,224.68 C 276.20,224.60 276.21,224.50 276.22,224.41 C 276.23,224.31 276.27,224.20 276.28,224.09 C 276.29,223.99 276.30,223.89 276.30,223.78 C 276.29,223.68 276.28,223.57 276.27,223.47 C 276.25,223.36 276.22,223.26 276.19,223.16 C 276.15,223.05 276.11,222.95 276.06,222.84 C 276.01,222.74 275.96,222.64 275.89,222.53 C 275.83,222.43 275.75,222.32 275.67,222.22 C 275.59,222.11 275.50,222.01 275.41,221.91 C 275.31,221.80 275.25,221.74 275.09,221.59 C 274.94,221.44 274.74,221.25 274.49,221.01 C 274.24,220.77 273.95,220.48 273.60,220.15 C 273.26,219.82 272.86,219.44 272.42,219.02 C 271.98,218.59 271.49,218.12 270.95,217.61 C 270.42,217.10 269.83,216.54 269.20,215.93 C 268.56,215.32 267.88,214.67 267.15,213.98 C 266.42,213.28 265.64,212.54 264.81,211.75 C 263.99,210.96 263.03,210.04 262.19,209.25 C 261.35,208.46 260.55,207.71 259.78,207.00 C 259.02,206.29 258.29,205.62 257.59,205.00 C 256.90,204.38 256.24,203.79 255.62,203.25 C 255.01,202.71 254.42,202.21 253.88,201.75 C 253.33,201.29 252.82,200.88 252.34,200.50 C 251.87,200.12 251.43,199.79 251.03,199.50 C 250.63,199.21 250.27,198.96 249.94,198.75 C 249.61,198.54 249.39,198.41 249.06,198.25 C 248.73,198.09 248.37,197.93 247.97,197.78 C 247.57,197.63 247.13,197.48 246.66,197.34 C 246.18,197.20 245.67,197.07 245.12,196.94 C 244.58,196.81 243.99,196.68 243.38,196.56 C 242.76,196.44 242.10,196.33 241.41,196.22 C 240.71,196.11 239.98,196.01 239.22,195.91 C 238.45,195.81 237.65,195.71 236.81,195.62 C 235.97,195.54 235.10,195.48 234.19,195.38 C 233.27,195.27 232.31,195.15 231.31,195.00 C 230.31,194.85 229.27,194.69 228.19,194.50 C 227.10,194.31 225.98,194.10 224.81,193.88 C 223.65,193.65 222.44,193.40 221.19,193.12 C 219.94,192.85 218.65,192.56 217.31,192.25 C 215.98,191.94 214.60,191.60 213.19,191.25 C 211.77,190.90 210.31,190.52 208.81,190.12 C 207.31,189.73 205.64,189.26 204.19,188.88 C 202.74,188.49 201.39,188.13 200.12,187.80 C 198.86,187.47 197.70,187.16 196.62,186.89 C 195.55,186.62 194.57,186.37 193.69,186.16 C 192.80,185.94 192.01,185.75 191.31,185.59 C 190.61,185.43 190.01,185.30 189.50,185.20 C 188.99,185.10 188.57,185.03 188.25,184.98 C 187.93,184.94 187.70,184.92 187.56,184.94 C 187.43,184.95 187.51,185.04 187.44,185.06 C 187.37,185.09 187.28,185.10 187.16,185.09 C 187.04,185.09 186.89,185.07 186.72,185.03 C 186.55,184.99 186.35,184.94 186.12,184.88 C 185.90,184.81 185.65,184.72 185.38,184.62 C 185.10,184.53 184.80,184.41 184.47,184.28 C 184.14,184.15 183.79,184.01 183.41,183.84 C 183.03,183.68 182.62,183.51 182.19,183.31 C 181.76,183.12 181.25,182.90 180.81,182.69 C 180.37,182.48 179.95,182.27 179.55,182.06 C 179.14,181.85 178.76,181.65 178.39,181.44 C 178.02,181.23 177.67,181.02 177.34,180.81 C 177.01,180.60 176.70,180.40 176.41,180.19 C 176.11,179.98 175.84,179.77 175.58,179.56 C 175.32,179.35 175.08,179.15 174.86,178.94 C 174.64,178.73 174.43,178.52 174.25,178.31 C 174.07,178.10 173.95,177.88 173.75,177.69 C 173.55,177.49 173.31,177.31 173.03,177.14 C 172.76,176.97 172.44,176.82 172.09,176.67 C 171.74,176.53 171.36,176.40 170.94,176.28 C 170.52,176.16 170.06,176.06 169.56,175.97 C 169.07,175.88 168.54,175.80 167.97,175.73 C 167.40,175.67 166.80,175.62 166.16,175.58 C 165.52,175.54 164.84,175.51 164.12,175.50 C 163.41,175.49 162.58,175.50 161.88,175.50 C 161.17,175.50 160.50,175.49 159.88,175.48 C 159.26,175.46 158.68,175.45 158.15,175.43 C 157.61,175.41 157.12,175.39 156.67,175.36 C 156.22,175.33 155.82,175.30 155.45,175.27 C 155.09,175.23 154.77,175.19 154.49,175.15 C 154.21,175.11 153.98,175.06 153.79,175.01 C 153.60,174.96 153.45,174.90 153.34,174.84 C 153.24,174.79 153.21,174.72 153.16,174.66 C 153.10,174.59 153.05,174.53 153.02,174.47 C 152.98,174.41 152.95,174.34 152.92,174.28 C 152.90,174.22 152.88,174.16 152.88,174.09 C 152.87,174.03 152.87,173.97 152.88,173.91 C 152.88,173.84 152.90,173.78 152.92,173.72 C 152.95,173.66 152.98,173.59 153.02,173.53 C 153.05,173.47 153.10,173.41 153.16,173.34 C 153.21,173.28 153.24,173.21 153.34,173.16 C 153.45,173.10 153.60,173.04 153.79,172.99 C 153.98,172.94 154.21,172.89 154.49,172.85 C 154.77,172.81 155.09,172.77 155.45,172.73 C 155.82,172.70 156.22,172.67 156.67,172.64 C 157.12,172.61 157.61,172.59 158.15,172.57 C 158.68,172.55 159.26,172.54 159.88,172.52 C 160.50,172.51 161.17,172.50 161.88,172.50 C 162.58,172.50 163.41,172.51 164.12,172.50 C 164.84,172.49 165.52,172.46 166.16,172.42 C 166.80,172.38 167.40,172.33 167.97,172.27 C 168.54,172.20 169.07,172.12 169.56,172.03 C 170.06,171.94 170.52,171.84 170.94,171.72 C 171.36,171.60 171.74,171.47 172.09,171.33 C 172.44,171.18 172.76,171.03 173.03,170.86 C 173.31,170.69 173.55,170.51 173.75,170.31 C 173.95,170.12 174.07,169.89 174.25,169.69 C 174.43,169.48 174.62,169.28 174.83,169.08 C 175.03,168.88 175.25,168.68 175.48,168.48 C 175.72,168.29 175.96,168.10 176.22,167.91 C 176.48,167.72 176.75,167.53 177.03,167.34 C 177.32,167.16 177.61,166.98 177.92,166.80 C 178.23,166.62 178.55,166.44 178.89,166.27 C 179.23,166.09 179.58,165.92 179.94,165.75 C 180.30,165.58 180.66,165.42 181.06,165.25 C 181.46,165.08 181.89,164.92 182.34,164.75 C 182.80,164.58 183.28,164.42 183.78,164.25 C 184.29,164.08 184.82,163.92 185.38,163.75 C 185.93,163.58 186.52,163.42 187.12,163.25 C 187.73,163.08 188.37,162.92 189.03,162.75 C 189.69,162.58 190.38,162.42 191.09,162.25 C 191.81,162.08 192.55,161.92 193.31,161.75 C 194.08,161.58 194.94,161.41 195.69,161.25 C 196.43,161.09 197.13,160.94 197.79,160.79 C 198.44,160.64 199.05,160.50 199.62,160.37 C 200.18,160.23 200.70,160.11 201.17,159.98 C 201.64,159.86 202.07,159.75 202.45,159.64 C 202.83,159.53 203.17,159.43 203.46,159.34 C 203.75,159.24 204.00,159.15 204.20,159.07 C 204.39,158.99 204.55,158.91 204.66,158.84 C 204.76,158.77 204.79,158.73 204.84,158.66 C 204.90,158.59 204.95,158.51 204.98,158.42 C 205.02,158.34 205.05,158.24 205.08,158.14 C 205.10,158.04 205.12,157.93 205.12,157.81 C 205.13,157.70 205.13,157.57 205.12,157.44 C 205.12,157.30 205.10,157.16 205.08,157.02 C 205.05,156.87 205.02,156.71 204.98,156.55 C 204.95,156.38 204.90,156.21 204.84,156.03 C 204.79,155.85 204.65,155.64 204.66,155.47 C 204.66,155.29 204.74,155.13 204.88,154.98 C 205.03,154.82 205.24,154.68 205.52,154.55 C 205.81,154.43 206.16,154.31 206.58,154.20 C 207.00,154.10 207.49,154.00 208.05,153.92 C 208.61,153.84 209.23,153.77 209.93,153.71 C 210.63,153.65 211.39,153.61 212.23,153.57 C 213.06,153.54 213.96,153.51 214.94,153.50 C 215.91,153.49 217.05,153.50 218.06,153.50 C 219.08,153.50 220.06,153.49 221.02,153.48 C 221.97,153.48 222.90,153.47 223.80,153.45 C 224.70,153.44 225.57,153.42 226.41,153.41 C 227.25,153.39 228.06,153.37 228.84,153.34 C 229.63,153.32 230.38,153.29 231.11,153.27 C 231.84,153.24 232.53,153.21 233.20,153.17 C 233.87,153.14 234.51,153.10 235.12,153.06 C 235.74,153.02 236.31,152.98 236.88,152.94 C 237.44,152.89 237.99,152.84 238.52,152.78 C 239.04,152.72 239.55,152.66 240.05,152.59 C 240.54,152.53 241.01,152.45 241.47,152.38 C 241.92,152.30 242.36,152.21 242.78,152.12 C 243.20,152.04 243.60,151.94 243.98,151.84 C 244.37,151.74 244.73,151.64 245.08,151.53 C 245.42,151.42 245.75,151.31 246.06,151.19 C 246.37,151.07 246.60,150.99 246.94,150.81 C 247.28,150.63 247.67,150.39 248.12,150.10 C 248.56,149.81 249.06,149.46 249.60,149.05 C 250.15,148.65 250.74,148.19 251.39,147.67 C 252.04,147.15 252.74,146.58 253.48,145.95 C 254.23,145.32 255.03,144.64 255.88,143.90 C 256.73,143.16 257.63,142.36 258.59,141.51 C 259.54,140.65 260.54,139.75 261.59,138.78 C 262.65,137.82 263.87,136.68 264.91,135.72 C 265.94,134.76 266.90,133.85 267.80,133.00 C 268.69,132.15 269.51,131.36 270.27,130.62 C 271.02,129.89 271.70,129.21 272.31,128.59 C 272.92,127.97 273.47,127.41 273.94,126.91 C 274.41,126.40 274.81,125.95 275.14,125.56 C 275.47,125.17 275.73,124.84 275.92,124.56 C 276.11,124.29 276.23,124.07 276.28,123.91 C 276.33,123.74 276.23,123.69 276.22,123.59 C 276.21,123.50 276.20,123.40 276.21,123.32 C 276.22,123.24 276.23,123.16 276.26,123.09 C 276.28,123.01 276.32,122.95 276.36,122.89 C 276.40,122.83 276.45,122.78 276.52,122.73 C 276.58,122.69 276.65,122.65 276.73,122.62 C 276.81,122.58 276.89,122.56 276.99,122.54 C 277.09,122.52 277.20,122.51 277.31,122.50 C 277.43,122.49 277.55,122.52 277.69,122.50 C 277.83,122.48 277.98,122.45 278.14,122.41 C 278.30,122.36 278.48,122.30 278.67,122.22 C 278.86,122.14 279.07,122.05 279.28,121.94 C 279.50,121.83 279.73,121.70 279.97,121.56 C 280.21,121.42 280.47,121.27 280.73,121.09 C 281.00,120.92 281.28,120.73 281.58,120.53 C 281.87,120.33 282.18,120.11 282.50,119.88 C 282.82,119.64 283.13,119.36 283.50,119.12 C 283.87,118.89 284.28,118.66 284.73,118.45 C 285.18,118.24 285.67,118.04 286.20,117.86 C 286.73,117.67 287.30,117.50 287.91,117.34 C 288.51,117.18 289.16,117.04 289.84,116.91 C 290.53,116.77 291.25,116.65 292.02,116.55 C 292.78,116.44 293.58,116.35 294.42,116.27 C 295.26,116.18 296.14,116.12 297.06,116.06 C 297.98,116.01 299.02,115.97 299.94,115.94 C 300.85,115.90 301.73,115.88 302.56,115.86 C 303.40,115.84 304.19,115.83 304.94,115.83 C 305.69,115.83 306.40,115.83 307.06,115.84 C 307.73,115.86 308.35,115.88 308.94,115.91 C 309.52,115.93 310.06,115.97 310.56,116.02 C 311.06,116.06 311.52,116.11 311.94,116.17 C 312.35,116.23 312.73,116.30 313.06,116.38 C 313.40,116.45 313.65,116.54 313.94,116.62 C 314.22,116.71 314.49,116.80 314.76,116.90 C 315.02,116.99 315.28,117.09 315.52,117.20 C 315.77,117.30 316.01,117.40 316.23,117.52 C 316.46,117.63 316.68,117.74 316.89,117.86 C 317.10,117.98 317.30,118.10 317.49,118.23 C 317.68,118.35 317.87,118.48 318.04,118.62 C 318.21,118.75 318.38,118.89 318.53,119.03 C 318.69,119.17 318.79,119.25 318.97,119.47 C 319.15,119.69 319.36,119.98 319.60,120.35 C 319.85,120.72 320.12,121.16 320.43,121.68 C 320.74,122.20 321.08,122.79 321.45,123.45 C 321.83,124.12 322.23,124.86 322.67,125.67 C 323.11,126.49 323.58,127.37 324.09,128.34 C 324.59,129.30 325.13,130.33 325.70,131.45 C 326.26,132.56 326.87,133.74 327.50,135.00 C 328.13,136.26 328.84,137.71 329.50,139.00 C 330.16,140.29 330.83,141.53 331.48,142.73 C 332.14,143.93 332.80,145.09 333.45,146.20 C 334.11,147.32 334.76,148.38 335.41,149.41 C 336.05,150.43 336.70,151.41 337.34,152.34 C 337.99,153.28 338.63,154.17 339.27,155.02 C 339.90,155.86 340.54,156.66 341.17,157.42 C 341.80,158.18 342.43,158.89 343.06,159.56 C 343.69,160.23 344.35,160.83 344.94,161.44 C 345.53,162.05 346.08,162.65 346.59,163.23 C 347.11,163.82 347.59,164.39 348.03,164.95 C 348.47,165.51 348.88,166.06 349.25,166.59 C 349.62,167.13 349.95,167.65 350.25,168.16 C 350.55,168.66 350.81,169.16 351.03,169.64 C 351.26,170.12 351.44,170.59 351.59,171.05 C 351.74,171.50 351.86,171.95 351.94,172.38 C 352.02,172.80 352.07,173.19 352.06,173.62 C 352.06,174.06 352.01,174.51 351.92,174.98 C 351.83,175.46 351.70,175.95 351.52,176.45 C 351.34,176.96 351.11,177.49 350.84,178.03 C 350.58,178.58 350.26,179.14 349.91,179.72 C 349.55,180.30 349.15,180.90 348.70,181.52 C 348.26,182.13 347.77,182.77 347.23,183.42 C 346.70,184.08 346.12,184.75 345.50,185.44 C 344.88,186.13 344.17,186.81 343.50,187.56 C 342.83,188.32 342.16,189.11 341.48,189.95 C 340.81,190.79 340.13,191.68 339.45,192.61 C 338.77,193.54 338.09,194.51 337.41,195.53 C 336.72,196.55 336.03,197.61 335.34,198.72 C 334.65,199.83 333.96,200.98 333.27,202.17 C 332.57,203.37 331.87,204.61 331.17,205.89 C 330.47,207.17 329.77,208.50 329.06,209.88 C 328.36,211.25 327.62,212.79 326.94,214.12 C 326.25,215.46 325.59,216.72 324.95,217.90 C 324.30,219.08 323.68,220.18 323.09,221.20 C 322.49,222.21 321.91,223.15 321.36,224.02 C 320.81,224.88 320.27,225.66 319.77,226.36 C 319.26,227.06 318.77,227.68 318.30,228.23 C 317.84,228.77 317.40,229.23 316.98,229.62 C 316.56,230.00 316.16,230.31 315.78,230.53 C 315.40,230.76 315.12,230.83 314.72,230.97 C 314.32,231.10 313.88,231.23 313.40,231.34 C 312.92,231.45 312.39,231.55 311.82,231.63 C 311.25,231.72 310.64,231.80 309.98,231.86 C 309.33,231.92 308.63,231.98 307.89,232.02 C 307.15,232.06 306.37,232.08 305.54,232.10 C 304.71,232.12 303.84,232.12 302.93,232.12 C 302.02,232.11 301.06,232.09 300.06,232.06 Z" fill="none" stroke="currentColor" stroke-width="1.5" stroke-linejoin="round" stroke-linecap="round" filter="url(#glow)" />
</svg>