<svg xmlns="http://www.w3.org/2000/svg" width="512" height="512" viewBox="83.58 194.97 341.83 131.00" preserveAspectRatio="xMidYMid meet">
  <defs>
    <filter id="glow" x="-30%" y="-30%" width="160%" height="160%">
      <feGaussianBlur in="SourceGraphic" stdDeviation="2.4" result="blur" />
      <feMerge>
        <feMergeNode in="blur" />
        <feMergeNode in="SourceGraphic" />
      </feMerge>
    </filter>
    <clipPath id="hull-clip">
      <path d="M 335.38,315.06 C 333.78,315.04 332.17,314.98 330.62,314.94 C 329.08,314.89 327.56,314.84 326.08,314.78 C 324.60,314.72 323.15,314.66 321.73,314.59 C 320.32,314.53 318.94,314.45 317.59,314.38 C 316.25,314.30 314.93,314.21 313.66,314.12 C 312.38,314.04 311.13,313.94 309.92,313.84 C 308.71,313.74 307.53,313.64 306.39,313.53 C 305.25,313.42 304.14,313.31 303.06,313.19 C 301.99,313.07 300.94,312.94 299.94,312.81 C 298.94,312.69 297.98,312.56 297.06,312.44 C 296.15,312.31 295.27,312.19 294.44,312.06 C 293.60,311.94 292.81,311.81 292.06,311.69 C 291.31,311.56 290.60,311.44 289.94,311.31 C 289.27,311.19 288.65,311.06 288.06,310.94 C 287.48,310.81 286.94,310.69 286.44,310.56 C 285.94,310.44 285.48,310.31 285.06,310.19 C 284.65,310.06 284.30,309.92 283.94,309.81 C 283.58,309.70 283.23,309.60 282.91,309.52 C 282.58,309.43 282.27,309.36 281.97,309.30 C 281.67,309.24 281.39,309.19 281.12,309.16 C 280.86,309.12 280.61,309.10 280.38,309.09 C 280.14,309.09 279.92,309.09 279.72,309.11 C 279.52,309.13 279.33,309.16 279.16,309.20 C 278.98,309.25 278.83,309.30 278.69,309.38 C 278.55,309.45 278.45,309.55 278.31,309.62 C 278.18,309.70 278.03,309.78 277.88,309.84 C 277.72,309.91 277.55,309.97 277.38,310.03 C 277.20,310.09 277.01,310.14 276.81,310.19 C 276.61,310.23 276.41,310.28 276.19,310.31 C 275.97,310.35 275.74,310.38 275.50,310.41 C 275.26,310.43 275.01,310.45 274.75,310.47 C 274.49,310.48 274.22,310.49 273.94,310.50 C 273.66,310.51 273.52,310.55 273.06,310.50 C 272.61,310.45 271.99,310.34 271.22,310.19 C 270.44,310.03 269.51,309.82 268.41,309.56 C 267.31,309.30 266.05,308.99 264.62,308.62 C 263.20,308.26 261.62,307.84 259.88,307.38 C 258.13,306.91 256.22,306.39 254.16,305.81 C 252.09,305.24 249.86,304.61 247.47,303.94 C 245.08,303.26 242.53,302.53 239.81,301.75 C 237.10,300.97 233.96,300.05 231.19,299.25 C 228.41,298.45 225.74,297.69 223.17,296.97 C 220.60,296.24 218.13,295.56 215.77,294.91 C 213.40,294.26 211.13,293.64 208.97,293.06 C 206.80,292.48 204.74,291.94 202.78,291.44 C 200.82,290.93 198.96,290.46 197.20,290.03 C 195.45,289.60 193.79,289.20 192.23,288.84 C 190.68,288.48 189.23,288.16 187.88,287.88 C 186.52,287.59 185.32,287.37 184.12,287.12 C 182.93,286.88 181.80,286.65 180.73,286.42 C 179.66,286.20 178.65,285.98 177.70,285.77 C 176.75,285.55 175.86,285.35 175.03,285.16 C 174.20,284.96 173.43,284.77 172.72,284.59 C 172.01,284.41 171.36,284.24 170.77,284.08 C 170.17,283.91 169.64,283.76 169.17,283.61 C 168.70,283.46 168.29,283.32 167.94,283.19 C 167.59,283.05 167.35,282.93 167.06,282.81 C 166.77,282.70 166.48,282.59 166.19,282.48 C 165.90,282.38 165.60,282.29 165.31,282.20 C 165.02,282.12 164.73,282.04 164.44,281.97 C 164.15,281.90 163.85,281.84 163.56,281.78 C 163.27,281.73 162.98,281.68 162.69,281.64 C 162.40,281.60 162.10,281.57 161.81,281.55 C 161.52,281.52 161.23,281.51 160.94,281.50 C 160.65,281.49 160.43,281.53 160.06,281.50 C 159.69,281.47 159.24,281.41 158.70,281.33 C 158.17,281.24 157.55,281.13 156.86,280.98 C 156.16,280.84 155.39,280.67 154.53,280.47 C 153.67,280.27 152.74,280.04 151.72,279.78 C 150.70,279.52 149.60,279.24 148.42,278.92 C 147.24,278.61 145.98,278.26 144.64,277.89 C 143.30,277.52 141.88,277.12 140.38,276.69 C 138.87,276.26 137.16,275.75 135.62,275.31 C 134.09,274.88 132.61,274.46 131.17,274.06 C 129.74,273.67 128.35,273.29 127.02,272.94 C 125.68,272.58 124.39,272.25 123.16,271.94 C 121.92,271.62 120.73,271.33 119.59,271.06 C 118.46,270.79 117.37,270.54 116.33,270.31 C 115.29,270.08 114.30,269.88 113.36,269.69 C 112.42,269.50 111.53,269.33 110.69,269.19 C 109.85,269.04 109.07,268.94 108.31,268.81 C 107.56,268.68 106.83,268.54 106.15,268.40 C 105.46,268.25 104.81,268.10 104.20,267.95 C 103.58,267.79 103.00,267.62 102.45,267.45 C 101.91,267.28 101.40,267.11 100.92,266.92 C 100.45,266.74 100.01,266.55 99.60,266.35 C 99.20,266.15 98.83,265.95 98.49,265.74 C 98.16,265.53 97.86,265.32 97.59,265.09 C 97.33,264.87 97.12,264.63 96.91,264.41 C 96.69,264.18 96.49,263.97 96.30,263.76 C 96.12,263.55 95.95,263.35 95.79,263.15 C 95.63,262.95 95.49,262.76 95.36,262.58 C 95.23,262.39 95.12,262.22 95.02,262.05 C 94.92,261.88 94.83,261.71 94.76,261.55 C 94.69,261.40 94.63,261.25 94.59,261.10 C 94.54,260.96 94.51,260.82 94.50,260.69 C 94.49,260.56 94.49,260.44 94.50,260.31 C 94.51,260.18 94.54,260.04 94.59,259.90 C 94.63,259.75 94.69,259.60 94.76,259.45 C 94.83,259.29 94.92,259.12 95.02,258.95 C 95.12,258.78 95.23,258.61 95.36,258.42 C 95.49,258.24 95.63,258.05 95.79,257.85 C 95.95,257.65 96.12,257.45 96.30,257.24 C 96.49,257.03 96.69,256.82 96.91,256.59 C 97.12,256.37 97.32,256.13 97.59,255.91 C 97.87,255.68 98.19,255.46 98.55,255.24 C 98.92,255.02 99.33,254.81 99.79,254.60 C 100.25,254.39 100.75,254.19 101.30,253.98 C 101.85,253.78 102.44,253.58 103.08,253.39 C 103.72,253.20 104.40,253.01 105.13,252.82 C 105.86,252.63 106.64,252.45 107.46,252.27 C 108.28,252.10 109.15,251.92 110.06,251.75 C 110.98,251.58 111.95,251.43 112.94,251.25 C 113.92,251.07 114.94,250.87 115.98,250.66 C 117.03,250.44 118.10,250.21 119.20,249.97 C 120.30,249.72 121.43,249.46 122.59,249.19 C 123.75,248.91 124.94,248.62 126.16,248.31 C 127.37,248.01 128.62,247.68 129.89,247.34 C 131.16,247.01 132.47,246.65 133.80,246.28 C 135.13,245.91 136.49,245.53 137.88,245.12 C 139.26,244.72 140.76,244.27 142.12,243.88 C 143.49,243.48 144.81,243.10 146.08,242.75 C 147.35,242.40 148.57,242.06 149.73,241.75 C 150.90,241.44 152.02,241.15 153.09,240.88 C 154.16,240.60 155.18,240.35 156.16,240.12 C 157.13,239.90 158.05,239.69 158.92,239.50 C 159.79,239.31 160.62,239.15 161.39,239.00 C 162.16,238.85 162.89,238.73 163.56,238.62 C 164.24,238.52 164.79,238.47 165.44,238.38 C 166.09,238.28 166.77,238.17 167.47,238.05 C 168.17,237.92 168.90,237.79 169.66,237.64 C 170.41,237.49 171.19,237.33 172.00,237.16 C 172.81,236.98 173.64,236.79 174.50,236.59 C 175.36,236.39 176.24,236.18 177.16,235.95 C 178.07,235.73 179.01,235.49 179.97,235.23 C 180.93,234.98 181.92,234.72 182.94,234.44 C 183.95,234.16 184.90,233.89 186.06,233.56 C 187.23,233.24 188.51,232.88 189.92,232.48 C 191.33,232.09 192.86,231.66 194.52,231.20 C 196.17,230.74 197.95,230.25 199.84,229.72 C 201.74,229.19 203.76,228.63 205.91,228.03 C 208.05,227.43 210.32,226.80 212.70,226.14 C 215.09,225.48 217.60,224.78 220.23,224.05 C 222.87,223.32 225.62,222.55 228.50,221.75 C 231.38,220.95 234.67,220.03 237.50,219.25 C 240.33,218.47 243.00,217.74 245.50,217.06 C 248.00,216.39 250.33,215.76 252.50,215.19 C 254.67,214.61 256.67,214.09 258.50,213.62 C 260.33,213.16 262.00,212.74 263.50,212.38 C 265.00,212.01 266.33,211.70 267.50,211.44 C 268.67,211.18 269.67,210.97 270.50,210.81 C 271.33,210.66 272.00,210.55 272.50,210.50 C 273.00,210.45 273.18,210.49 273.50,210.50 C 273.82,210.51 274.13,210.52 274.42,210.53 C 274.72,210.55 275.00,210.57 275.27,210.59 C 275.53,210.62 275.79,210.65 276.03,210.69 C 276.27,210.72 276.50,210.77 276.72,210.81 C 276.93,210.86 277.14,210.91 277.33,210.97 C 277.52,211.03 277.70,211.09 277.86,211.16 C 278.02,211.22 278.17,211.30 278.31,211.38 C 278.45,211.45 278.55,211.55 278.69,211.62 C 278.83,211.70 278.98,211.75 279.14,211.80 C 279.30,211.84 279.48,211.87 279.67,211.89 C 279.86,211.91 280.07,211.91 280.28,211.91 C 280.50,211.90 280.73,211.88 280.97,211.84 C 281.21,211.81 281.47,211.76 281.73,211.70 C 282.00,211.64 282.28,211.57 282.58,211.48 C 282.87,211.40 283.18,211.30 283.50,211.19 C 283.82,211.08 284.09,210.94 284.50,210.81 C 284.91,210.68 285.39,210.55 285.95,210.42 C 286.51,210.29 287.15,210.15 287.86,210.02 C 288.57,209.88 289.36,209.74 290.22,209.59 C 291.08,209.45 292.02,209.30 293.03,209.16 C 294.04,209.01 295.13,208.86 296.30,208.70 C 297.46,208.55 298.70,208.39 300.02,208.23 C 301.33,208.08 302.72,207.91 304.19,207.75 C 305.65,207.59 307.27,207.40 308.81,207.25 C 310.35,207.10 311.89,206.96 313.42,206.83 C 314.96,206.70 316.49,206.59 318.02,206.48 C 319.54,206.38 321.07,206.29 322.59,206.22 C 324.12,206.14 325.64,206.08 327.16,206.03 C 328.67,205.98 330.19,205.95 331.70,205.92 C 333.22,205.90 334.73,205.89 336.23,205.89 C 337.74,205.89 339.25,205.91 340.75,205.94 C 342.25,205.97 343.76,206.01 345.25,206.06 C 346.74,206.12 348.23,206.19 349.70,206.28 C 351.18,206.37 352.65,206.47 354.11,206.59 C 355.57,206.71 357.02,206.85 358.47,207.00 C 359.91,207.15 361.35,207.32 362.78,207.50 C 364.21,207.68 365.63,207.88 367.05,208.09 C 368.46,208.31 369.87,208.54 371.27,208.78 C 372.66,209.03 374.05,209.29 375.44,209.56 C 376.82,209.84 378.23,210.15 379.56,210.44 C 380.90,210.73 382.20,211.01 383.45,211.30 C 384.71,211.58 385.93,211.86 387.11,212.14 C 388.29,212.42 389.43,212.70 390.53,212.97 C 391.63,213.24 392.70,213.51 393.72,213.78 C 394.74,214.05 395.73,214.32 396.67,214.58 C 397.62,214.84 398.52,215.10 399.39,215.36 C 400.26,215.62 401.09,215.87 401.88,216.12 C 402.66,216.38 403.42,216.63 404.12,216.88 C 404.83,217.12 405.50,217.35 406.13,217.57 C 406.76,217.79 407.35,218.01 407.90,218.21 C 408.45,218.42 408.95,218.61 409.42,218.80 C 409.89,218.98 410.32,219.16 410.70,219.33 C 411.09,219.50 411.44,219.65 411.74,219.80 C 412.05,219.95 412.31,220.10 412.54,220.23 C 412.76,220.36 412.95,220.48 413.09,220.59 C 413.24,220.71 413.31,220.80 413.41,220.91 C 413.50,221.01 413.60,221.12 413.68,221.23 C 413.76,221.33 413.84,221.44 413.91,221.55 C 413.99,221.67 414.05,221.78 414.11,221.89 C 414.17,222.00 414.22,222.12 414.27,222.23 C 414.31,222.35 414.35,222.47 414.38,222.59 C 414.42,222.70 414.44,222.82 414.46,222.95 C 414.48,223.07 414.49,223.19 414.50,223.31 C 414.51,223.44 414.51,223.55 414.50,223.69 C 414.49,223.82 414.47,223.97 414.44,224.12 C 414.41,224.28 414.36,224.45 414.31,224.62 C 414.26,224.80 414.20,224.99 414.12,225.19 C 414.05,225.39 413.97,225.59 413.88,225.81 C 413.78,226.03 413.68,226.26 413.56,226.50 C 413.45,226.74 413.32,226.99 413.19,227.25 C 413.05,227.51 412.91,227.78 412.75,228.06 C 412.59,228.34 412.41,228.63 412.25,228.94 C 412.09,229.24 411.95,229.57 411.81,229.91 C 411.68,230.24 411.55,230.60 411.44,230.97 C 411.32,231.34 411.22,231.72 411.12,232.12 C 411.03,232.53 410.95,232.94 410.88,233.38 C 410.80,233.81 410.74,234.26 410.69,234.72 C 410.64,235.18 410.59,235.66 410.56,236.16 C 410.53,236.65 410.51,237.16 410.50,237.69 C 410.49,238.21 410.52,238.78 410.50,239.31 C 410.48,239.84 410.44,240.36 410.38,240.88 C 410.31,241.39 410.23,241.89 410.12,242.38 C 410.02,242.86 409.90,243.34 409.75,243.81 C 409.60,244.28 409.44,244.74 409.25,245.19 C 409.06,245.64 408.85,246.07 408.62,246.50 C 408.40,246.93 408.15,247.34 407.88,247.75 C 407.60,248.16 407.31,248.55 407.00,248.94 C 406.69,249.32 406.31,249.68 406.00,250.06 C 405.69,250.45 405.40,250.84 405.12,251.25 C 404.85,251.66 404.60,252.07 404.38,252.50 C 404.15,252.93 403.94,253.36 403.75,253.81 C 403.56,254.26 403.40,254.72 403.25,255.19 C 403.10,255.66 402.98,256.14 402.88,256.62 C 402.77,257.11 402.69,257.61 402.62,258.12 C 402.56,258.64 402.52,259.16 402.50,259.69 C 402.48,260.22 402.48,260.78 402.50,261.31 C 402.52,261.84 402.56,262.36 402.62,262.88 C 402.69,263.39 402.77,263.89 402.88,264.38 C 402.98,264.86 403.10,265.34 403.25,265.81 C 403.40,266.28 403.56,266.74 403.75,267.19 C 403.94,267.64 404.15,268.07 404.38,268.50 C 404.60,268.93 404.85,269.34 405.12,269.75 C 405.40,270.16 405.69,270.55 406.00,270.94 C 406.31,271.32 406.69,271.68 407.00,272.06 C 407.31,272.45 407.60,272.84 407.88,273.25 C 408.15,273.66 408.40,274.07 408.62,274.50 C 408.85,274.93 409.06,275.36 409.25,275.81 C 409.44,276.26 409.60,276.72 409.75,277.19 C 409.90,277.66 410.02,278.14 410.12,278.62 C 410.23,279.11 410.31,279.61 410.38,280.12 C 410.44,280.64 410.48,281.16 410.50,281.69 C 410.52,282.22 410.49,282.79 410.50,283.31 C 410.51,283.84 410.53,284.34 410.56,284.83 C 410.59,285.32 410.64,285.78 410.69,286.23 C 410.74,286.68 410.80,287.12 410.88,287.53 C 410.95,287.95 411.03,288.34 411.12,288.72 C 411.22,289.10 411.32,289.46 411.44,289.80 C 411.55,290.14 411.68,290.46 411.81,290.77 C 411.95,291.07 412.09,291.36 412.25,291.62 C 412.41,291.89 412.59,292.13 412.75,292.38 C 412.91,292.62 413.05,292.86 413.19,293.09 C 413.32,293.33 413.45,293.56 413.56,293.78 C 413.68,294.01 413.78,294.22 413.88,294.44 C 413.97,294.65 414.05,294.86 414.12,295.06 C 414.20,295.27 414.26,295.46 414.31,295.66 C 414.36,295.85 414.41,296.04 414.44,296.22 C 414.47,296.40 414.49,296.58 414.50,296.75 C 414.51,296.92 414.51,297.08 414.50,297.25 C 414.49,297.42 414.46,297.58 414.41,297.74 C 414.37,297.90 414.31,298.07 414.24,298.23 C 414.17,298.39 414.08,298.55 413.98,298.70 C 413.88,298.86 413.77,299.02 413.64,299.17 C 413.51,299.33 413.37,299.48 413.21,299.63 C 413.05,299.79 412.88,299.94 412.70,300.09 C 412.51,300.24 412.31,300.38 412.09,300.53 C 411.88,300.68 411.66,300.82 411.41,300.97 C 411.15,301.12 410.87,301.27 410.55,301.43 C 410.24,301.59 409.90,301.75 409.54,301.91 C 409.17,302.08 408.78,302.25 408.36,302.42 C 407.94,302.60 407.49,302.77 407.02,302.95 C 406.54,303.13 406.04,303.32 405.51,303.51 C 404.98,303.70 404.42,303.89 403.84,304.09 C 403.25,304.28 402.64,304.48 402.00,304.69 C 401.36,304.89 400.73,305.10 400.00,305.31 C 399.27,305.53 398.47,305.75 397.61,305.98 C 396.75,306.22 395.82,306.46 394.83,306.70 C 393.84,306.95 392.78,307.21 391.66,307.47 C 390.53,307.73 389.35,308.00 388.09,308.28 C 386.84,308.56 385.52,308.85 384.14,309.14 C 382.76,309.43 381.31,309.74 379.80,310.05 C 378.28,310.36 376.71,310.67 375.06,311.00 C 373.42,311.33 371.64,311.69 369.94,312.00 C 368.24,312.31 366.54,312.60 364.86,312.86 C 363.17,313.12 361.50,313.36 359.83,313.58 C 358.16,313.79 356.50,313.99 354.84,314.16 C 353.19,314.33 351.54,314.47 349.91,314.59 C 348.27,314.72 346.64,314.82 345.02,314.89 C 343.39,314.97 341.78,315.02 340.17,315.05 C 338.57,315.08 336.97,315.08 335.38,315.06 Z" />
    </clipPath>
  </defs>
  <path d="M 335.38,315.06 C 333.78,315.04 332.17,314.98 330.62,314.94 C 329.08,314.89 327.56,314.84 326.08,314.78 C 324.60,314.72 323.15,314.66 321.73,314.59 C 320.32,314.53 318.94,314.45 317.59,314.38 C 316.25,314.30 314.93,314.21 313.66,314.12 C 312.38,314.04 311.13,313.94 309.92,313.84 C 308.71,313.74 307.53,313.64 306.39,313.53 C 305.25,313.42 304.14,313.31 303.06,313.19 C 301.99,313.07 300.94,312.94 299.94,312.81 C 298.94,312.69 297.98,312.56 297.06,312.44 C 296.15,312.31 295.27,312.19 294.44,312.06 C 293.60,311.94 292.81,311.81 292.06,311.69 C 291.31,311.56 290.60,311.44 289.94,311.31 C 289.27,311.19 288.65,311.06 288.06,310.94 C 287.48,310.81 286.94,310.69 286.44,310.56 C 285.94,310.44 285.48,310.31 285.06,310.19 C 284.65,310.06 284.30,309.92 283.94,309.81 C 283.58,309.70 283.23,309.60 282.91,309.52 C 282.58,309.43 282.27,309.36 281.97,309.30 C 281.67,309.24 281.39,309.19 281.12,309.16 C 280.86,309.12 280.61,309.10 280.38,309.09 C 280.14,309.09 279.92,309.09 279.72,309.11 C 279.52,309.13 279.33,309.16 279.16,309.20 C 278.98,309.25 278.83,309.30 278.69,309.38 C 278.55,309.45 278.45,309.55 278.31,309.62 C 278.18,309.70 278.03,309.78 277.88,309.84 C 277.72,309.91 277.55,309.97 277.38,310.03 C 277.20,310.09 277.01,310.14 276.81,310.19 C 276.61,310.23 276.41,310.28 276.19,310.31 C 275.97,310.35 275.74,310.38 275.50,310.41 C 275.26,310.43 275.01,310.45 274.75,310.47 C 274.49,310.48 274.22,310.49 273.94,310.50 C 273.66,310.51 273.52,310.55 273.06,310.50 C 272.61,310.45 271.99,310.34 271.22,310.19 C 270.44,310.03 269.51,309.82 268.41,309.56 C 267.31,309.30 266.05,308.99 264.62,308.62 C 263.20,308.26 261.62,307.84 259.88,307.38 C 258.13,306.91 256.22,306.39 254.16,305.81 C 252.09,305.24 249.86,304.61 247.47,303.94 C 245.08,303.26 242.53,302.53 239.81,301.75 C 237.10,300.97 233.96,300.05 231.19,299.25 C 228.41,298.45 225.74,297.69 223.17,296.97 C 220.60,296.24 218.13,295.56 215.77,294.91 C 213.40,294.26 211.13,293.64 208.97,293.06 C 206.80,292.48 204.74,291.94 202.78,291.44 C 200.82,290.93 198.96,290.46 197.20,290.03 C 195.45,289.60 193.79,289.20 192.23,288.84 C 190.68,288.48 189.23,288.16 187.88,287.88 C 186.52,287.59 185.32,287.37 184.12,287.12 C 182.93,286.88 181.80,286.65 180.73,286.42 C 179.66,286.20 178.65,285.98 177.70,285.77 C 176.75,285.55 175.86,285.35 175.03,285.16 C 174.20,284.96 173.43,284.77 172.72,284.59 C 172.01,284.41 171.36,284.24 170.77,284.08 C 170.17,283.91 169.64,283.76 169.17,283.61 C 168.70,283.46 168.29,283.32 167.94,283.19 C 167.59,283.05 167.35,282.93 167.06,282.81 C 166.77,282.70 166.48,282.59 166.19,282.48 C 165.90,282.38 165.60,282.29 165.31,282.20 C 165.02,282.12 164.73,282.04 164.44,281.97 C 164.15,281.90 163.85,281.84 163.56,281.78 C 163.27,281.73 162.98,281.68 162.69,281.64 C 162.40,281.60 162.10,281.57 161.81,281.55 C 161.52,281.52 161.23,281.51 160.94,281.50 C 160.65,281.49 160.43,281.53 160.06,281.50 C 159.69,281.47 159.24,281.41 158.70,281.33 C 158.17,281.24 157.55,281.13 156.86,280.98 C 156.16,280.84 155.39,280.67 154.53,280.47 C 153.67,280.27 152.74,280.04 151.72,279.78 C 150.70,279.52 149.60,279.24 148.42,278.92 C 147.24,278.61 145.98,278.26 144.64,277.89 C 143.30,277.52 141.88,277.12 140.38,276.69 C 138.87,276.26 137.16,275.75 135.62,275.31 C 134.09,274.88 132.61,274.46 131.17,274.06 C 129.74,273.67 128.35,273.29 127.02,272.94 C 125.68,272.58 124.39,272.25 123.16,271.94 C 121.92,271.62 120.73,271.33 119.59,271.06 C 118.46,270.79 117.37,270.54 116.33,270.31 C 115.29,270.08 114.30,269.88 113.36,269.69 C 112.42,269.50 111.53,269.33 110.69,269.19 C 109.85,269.04 109.07,268.94 108.31,268.81 C 107.56,268.68 106.83,268.54 106.15,268.40 C 105.46,268.25 104.81,268.10 104.20,267.95 C 103.58,267.79 103.00,267.62 102.45,267.45 C 101.91,267.28 101.40,267.11 100.92,266.92 C 100.45,266.74 100.01,266.55 99.60,266.35 C 99.20,266.15 98.83,265.95 98.49,265.74 C 98.16,265.53 97.86,265.32 97.59,265.09 C 97.33,264.87 97.12,264.63 96.91,264.41 C 96.69,264.18 96.49,263.97 96.30,263.76 C 96.12,263.55 95.95,263.35 95.79,263.15 C 95.63,262.95 95.49,262.76 95.36,262.58 C 95.23,262.39 95.12,262.22 95.02,262.05 C 94.92,261.88 94.83,261.71 94.76,261.55 C 94.69,261.40 94.63,261.25 94.59,261.10 C 94.54,260.96 94.51,260.82 94.50,260.69 C 94.49,260.56 94.49,260.44 94.50,260.31 C 94.51,260.18 94.54,260.04 94.59,259.90 C 94.63,259.75 94.69,259.60 94.76,259.45 C 94.83,259.29 94.92,259.12 95.02,258.95 C 95.12,258.78 95.23,258.61 95.36,258.42 C 95.49,258.24 95.63,258.05 95.79,257.85 C 95.95,257.65 96.12,257.45 96.30,257.24 C 96.49,257.03 96.69,256.82 96.91,256.59 C 97.12,256.37 97.32,256.13 97.59,255.91 C 97.87,255.68 98.19,255.46 98.55,255.24 C 98.92,255.02 99.33,254.81 99.79,254.60 C 100.25,254.39 100.75,254.19 101.30,253.98 C 101.85,253.78 102.44,253.58 103.08,253.39 C 103.72,253.20 104.40,253.01 105.13,252.82 C 105.86,252.63 106.64,252.45 107.46,252.27 C 108.28,252.10 109.15,251.92 110.06,251.75 C 110.98,251.58 111.95,251.43 112.94,251.25 C 113.92,251.07 114.94,250.87 115.98,250.66 C 117.03,250.44 118.10,250.21 119.20,249.97 C 120.30,249.72 121.43,249.46 122.59,249.19 C 123.75,248.91 124.94,248.62 126.16,248.31 C 127.37,248.01 128.62,247.68 129.89,247.34 C 131.16,247.01 132.47,246.65 133.80,246.28 C 135.13,245.91 136.49,245.53 137.88,245.12 C 139.26,244.72 140.76,244.27 142.12,243.88 C 143.49,243.48 144.81,243.10 146.08,242.75 C 147.35,242.40 148.57,242.06 149.73,241.75 C 150.90,241.44 152.02,241.15 153.09,240.88 C 154.16,240.60 155.18,240.35 156.16,240.12 C 157.13,239.90 158.05,239.69 158.92,239.50 C 159.79,239.31 160.62,239.15 161.39,239.00 C 162.16,238.85 162.89,238.73 163.56,238.62 C 164.24,238.52 164.79,238.47 165.44,238.38 C 166.09,238.28 166.77,238.17 167.47,238.05 C 168.17,237.92 168.90,237.79 169.66,237.64 C 170.41,237.49 171.19,237.33 172.00,237.16 C 172.81,236.98 173.64,236.79 174.50,236.59 C 175.36,236.39 176.24,236.18 177.16,235.95 C 178.07,235.73 179.01,235.49 179.97,235.23 C 180.93,234.98 181.92,234.72 182.94,234.44 C 183.95,234.16 184.90,233.89 186.06,233.56 C 187.23,233.24 188.51,232.88 189.92,232.48 C 191.33,232.09 192.86,231.66 194.52,231.20 C 196.17,230.74 197.95,230.25 199.84,229.72 C 201.74,229.19 203.76,228.63 205.91,228.03 C 208.05,227.43 210.32,226.80 212.70,226.14 C 215.09,225.48 217.60,224.78 220.23,224.05 C 222.87,223.32 225.62,222.55 228.50,221.75 C 231.38,220.95 234.67,220.03 237.50,219.25 C 240.33,218.47 243.00,217.74 245.50,217.06 C 248.00,216.39 250.33,215.76 252.50,215.19 C 254.67,214.61 256.67,214.09 258.50,213.62 C 260.33,213.16 262.00,212.74 263.50,212.38 C 265.00,212.01 266.33,211.70 267.50,211.44 C 268.67,211.18 269.67,210.97 270.50,210.81 C 271.33,210.66 272.00,210.55 272.50,210.50 C 273.00,210.45 273.18,210.49 273.50,210.50 C 273.82,210.51 274.13,210.52 274.42,210.53 C 274.72,210.55 275.00,210.57 275.27,210.59 C 275.53,210.62 275.79,210.65 276.03,210.69 C 276.27,210.72 276.50,210.77 276.72,210.81 C 276.93,210.86 277.14,210.91 277.33,210.97 C 277.52,211.03 277.70,211.09 277.86,211.16 C 278.02,211.22 278.17,211.30 278.31,211.38 C 278.45,211.45 278.55,211.55 278.69,211.62 C 278.83,211.70 278.98,211.75 279.14,211.80 C 279.30,211.84 279.48,211.87 279.67,211.89 C 279.86,211.91 280.07,211.91 280.28,211.91 C 280.50,211.90 280.73,211.88 280.97,211.84 C 281.21,211.81 281.47,211.76 281.73,211.70 C 282.00,211.64 282.28,211.57 282.58,211.48 C 282.87,211.40 283.18,211.30 283.50,211.19 C 283.82,211.08 284.09,210.94 284.50,210.81 C 284.91,210.68 285.39,210.55 285.95,210.42 C 286.51,210.29 287.15,210.15 287.86,210.02 C 288.57,209.88 289.36,209.74 290.22,209.59 C 291.08,209.45 292.02,209.30 293.03,209.16 C 294.04,209.01 295.13,208.86 296.30,208.70 C 297.46,208.55 298.70,208.39 300.02,208.23 C 301.33,208.08 302.72,207.91 304.19,207.75 C 305.65,207.59 307.27,207.40 308.81,207.25 C 310.35,207.10 311.89,206.96 313.42,206.83 C 314.96,206.70 316.49,206.59 318.02,206.48 C 319.54,206.38 321.07,206.29 322.59,206.22 C 324.12,206.14 325.64,206.08 327.16,206.03 C 328.67,205.98 330.19,205.95 331.70,205.92 C 333.22,205.90 334.73,205.89 336.23,205.89 C 337.74,205.89 339.25,205.91 340.75,205.94 C 342.25,205.97 343.76,206.01 345.25,206.06 C 346.74,206.12 348.23,206.19 349.70,206.28 C 351.18,206.37 352.65,206.47 354.11,206.59 C 355.57,206.71 357.02,206.85 358.47,207.00 C 359.91,207.15 361.35,207.32 362.78,207.50 C 364.21,207.68 365.63,207.88 367.05,208.09 C 368.46,208.31 369.87,208.54 371.27,208.78 C 372.66,209.03 374.05,209.29 375.44,209.56 C 376.82,209.84 378.23,210.15 379.56,210.44 C 380.90,210.73 382.20,211.01 383.45,211.30 C 384.71,211.58 385.93,211.86 387.11,212.14 C 388.29,212.42 389.43,212.70 390.53,212.97 C 391.63,213.24 392.70,213.51 393.72,213.78 C 394.74,214.05 395.73,214.32 396.67,214.58 C 397.62,214.84 398.52,215.10 399.39,215.36 C 400.26,215.62 401.09,215.87 401.88,216.12 C 402.66,216.38 403.42,216.63 404.12,216.88 C 404.83,217.12 405.50,217.35 406.13,217.57 C 406.76,217.79 407.35,218.01 407.90,218.21 C 408.45,218.42 408.95,218.61 409.42,218.80 C 409.89,218.98 410.32,219.16 410.70,219.33 C 411.09,219.50 411.44,219.65 411.74,219.80 C 412.05,219.95 412.31,220.10 412.54,220.23 C 412.76,220.36 412.95,220.48 413.09,220.59 C 413.24,220.71 413.31,220.80 413.41,220.91 C 413.50,221.01 413.60,221.12 413.68,221.23 C 413.76,221.33 413.84,221.44 413.91,221.55 C 413.99,221.67 414.05,221.78 414.11,221.89 C 414.17,222.00 414.22,222.12 414.27,222.23 C 414.31,222.35 414.35,222.47 414.38,222.59 C 414.42,222.70 414.44,222.82 414.46,222.95 C 414.48,223.07 414.49,223.19 414.50,223.31 C 414.51,223.44 414.51,223.55 414.50,223.69 C 414.49,223.82 414.47,223.97 414.44,224.12 C 414.41,224.28 414.36,224.45 414.31,224.62 C 414.26,224.80 414.20,224.99 414.12,225.19 C 414.05,225.39 413.97,225.59 413.88,225.81 C 413.78,226.03 413.68,226.26 413.56,226.50 C 413.45,226.74 413.32,226.99 413.19,227.25 C 413.05,227.51 412.91,227.78 412.75,228.06 C 412.59,228.34 412.41,228.63 412.25,228.94 C 412.09,229.24 411.95,229.57 411.81,229.91 C 411.68,230.24 411.55,230.60 411.44,230.97 C 411.32,231.34 411.22,231.72 411.12,232.12 C 411.03,232.53 410.95,232.94 410.88,233.38 C 410.80,233.81 410.74,234.26 410.69,234.72 C 410.64,235.18 410.59,235.66 410.56,236.16 C 410.53,236.65 410.51,237.16 410.50,237.69 C 410.49,238.21 410.52,238.78 410.50,239.31 C 410.48,239.84 410.44,240.36 410.38,240.88 C 410.31,241.39 410.23,241.89 410.12,242.38 C 410.02,242.86 409.90,243.34 409.75,243.81 C 409.60,244.28 409.44,244.74 409.25,245.19 C 409.06,245.64 408.85,246.07 408.62,246.50 C 408.40,246.93 408.15,247.34 407.88,247.75 C 407.60,248.16 407.31,248.55 407.00,248.94 C 406.69,249.32 406.31,249.68 406.00,250.06 C 405.69,250.45 405.40,250.84 405.12,251.25 C 404.85,251.66 404.60,252.07 404.38,252.50 C 404.15,252.93 403.94,253.36 403.75,253.81 C 403.56,254.26 403.40,254.72 403.25,255.19 C 403.10,255.66 402.98,256.14 402.88,256.62 C 402.77,257.11 402.69,257.61 402.62,258.12 C 402.56,258.64 402.52,259.16 402.50,259.69 C 402.48,260.22 402.48,260.78 402.50,261.31 C 402.52,261.84 402.56,262.36 402.62,262.88 C 402.69,263.39 402.77,263.89 402.88,264.38 C 402.98,264.86 403.10,265.34 403.25,265.81 C 403.40,266.28 403.56,266.74 403.75,267.19 C 403.94,267.64 404.15,268.07 404.38,268.50 C 404.60,268.93 404.85,269.34 405.12,269.75 C 405.40,270.16 405.69,270.55 406.00,270.94 C 406.31,271.32 406.69,271.68 407.00,272.06 C 407.31,272.45 407.60,272.84 407.88,273.25 C 408.15,273.66 408.40,274.07 408.62,274.50 C 408.85,274.93 409.06,275.36 409.25,275.81 C 409.44,276.26 409.60,276.72 409.75,277.19 C 409.90,277.66 410.02,278.14 410.12,278.62 C 410.23,279.11 410.31,279.61 410.38,280.12 C 410.44,280.64 410.48,281.16 410.50,281.69 C 410.52,282.22 410.49,282.79 410.50,283.31 C 410.51,283.84 410.53,284.34 410.56,284.83 C 410.59,285.32 410.64,285.78 410.69,286.23 C 410.74,286.68 410.80,287.12 410.88,287.53 C 410.95,287.95 411.03,288.34 411.12,288.72 C 411.22,289.10 411.32,289.46 411.44,289.80 C 411.55,290.14 411.68,290.46 411.81,290.77 C 411.95,291.07 412.09,291.36 412.25,291.62 C 412.41,291.89 412.59,292.13 412.75,292.38 C 412.91,292.62 413.05,292.86 413.19,293.09 C 413.32,293.33 413.45,293.56 413.56,293.78 C 413.68,294.01 413.78,294.22 413.88,294.44 C 413.97,294.65 414.05,294.86 414.12,295.06 C 414.20,295.27 414.26,295.46 414.31,295.66 C 414.36,295.85 414.41,296.04 414.44,296.22 C 414.47,296.40 414.49,296.58 414.50,296.75 C 414.51,296.92 414.51,297.08 414.50,297.25 C 414.49,297.42 414.46,297.58 414.41,297.74 C 414.37,297.90 414.31,298.07 414.24,298.23 C 414.17,298.39 414.08,298.55 413.98,298.70 C 413.88,298.86 413.77,299.02 413.64,299.17 C 413.51,299.33 413.37,299.48 413.21,299.63 C 413.05,299.79 412.88,299.94 412.70,300.09 C 412.51,300.24 412.31,300.38 412.09,300.53 C 411.88,300.68 411.66,300.82 411.41,300.97 C 411.15,301.12 410.87,301.27 410.55,301.43 C 410.24,301.59 409.90,301.75 409.54,301.91 C 409.17,302.08 408.78,302.25 408.36,302.42 C 407.94,302.60 407.49,302.77 407.02,302.95 C 406.54,303.13 406.04,303.32 405.51,303.51 C 404.98,303.70 404.42,303.89 403.84,304.09 C 403.25,304.28 402.64,304.48 402.00,304.69 C 401.36,304.89 400.73,305.10 400.00,305.31 C 399.27,305.53 398.47,305.75 397.61,305.98 C 396.75,306.22 395.82,306.46 394.83,306.70 C 393.84,306.95 392.78,307.21 391.66,307.47 C 390.53,307.73 389.35,308.00 388.09,308.28 C 386.84,308.56 385.52,308.85 384.14,309.14 C 382.76,309.43 381.31,309.74 379.80,310.05 C 378.28,310.36 376.71,310.67 375.06,311.00 C 373.42,311.33 371.64,311.69 369.94,312.00 C 368.24,312.31 366.54,312.60 364.86,312.86 C 363.17,313.12 361.50,313.36 359.83,313.58 C 358.16,313.79 356.50,313.99 354.84,314.16 C 353.19,314.33 351.54,314.47 349.91,314.59 C 348.27,314.72 346.64,314.82 345.02,314.89 C 343.39,314.97 341.78,315.02 340.17,315.05 C 338.57,315.08 336.97,315.08 335.38,315.06 Z" stroke="none" fill="currentColor" opacity="0.11" />
  <path d="M192.44,280.30L207.93,284.45 M193.23,282.67L206.07,286.11 M179.02,241.74L168.87,244.46 M179.02,241.74L189.18,239.02 M179.06,241.87L189.21,239.15 M189.28,239.39L179.12,242.11 M179.41,243.18L189.56,240.46 M179.46,243.38L189.62,240.66 M179.41,243.19L189.57,240.47 M179.06,241.87L168.90,244.59 M168.97,244.83L179.12,242.11 M179.41,243.18L169.25,245.90 M169.31,246.10L179.46,243.38 M207.93,237.41L192.44,241.56 M206.07,235.74L193.23,239.19 M192.59,246.76L192.59,246.76 M192.10,245.00L192.10,245.00 M190.10,247.43L190.10,247.43 M189.64,245.66L189.64,245.66 M213.02,242.12L213.02,242.12 M213.01,240.29L213.01,240.29 M210.45,242.12L210.45,242.12 M210.46,240.29L210.46,240.29 M199.33,236.29L189.18,239.02 M199.37,236.43L189.21,239.15 M189.28,239.39L199.43,236.67 M199.72,237.74L189.56,240.46 M189.62,240.66L199.77,237.94 M199.72,237.75L189.57,240.47 M179.02,280.12L189.18,282.84 M179.02,280.12L168.87,277.40 M179.06,279.99L168.90,277.27 M168.97,277.03L179.12,279.75 M179.41,278.68L169.25,275.96 M179.46,278.48L169.31,275.76 M179.41,278.67L169.26,275.95 M179.06,279.99L189.21,282.71 M189.28,282.47L179.12,279.75 M179.41,278.68L189.56,281.40 M189.62,281.20L179.46,278.48 M187.62,242.85L172.13,247.00 M185.76,241.19L172.91,244.63 M210.45,279.74L210.45,279.74 M210.46,281.57L210.46,281.57 M213.02,279.74L213.02,279.74 M213.01,281.57L213.01,281.57 M190.10,274.43L190.10,274.43 M189.64,276.20L189.64,276.20 M192.59,275.09L192.59,275.09 M192.10,276.86L192.10,276.86 M172.09,252.26L172.09,252.26 M171.60,250.49L171.60,250.49 M169.60,252.92L169.60,252.92 M169.14,251.15L169.14,251.15 M169.60,268.94L169.60,268.94 M169.14,270.71L169.14,270.71 M172.09,269.60L172.09,269.60 M171.60,271.37L171.60,271.37 M172.13,274.86L187.62,279.01 M172.91,277.23L185.76,280.67 M185.38,260.93L185.38,246.43 M198.22,244.30L198.22,260.93 M185.38,260.93L185.38,275.43 M198.22,277.56L198.22,260.93 M206.91,260.93L211.08,244.26 M206.91,260.93L211.08,244.26 M206.91,260.93L211.08,277.60 M206.91,260.93L211.08,277.60 M196.17,257.70L196.17,246.28 M178.69,257.70L178.69,247.45 M175.80,260.93L175.81,250.84 M196.17,275.57L196.17,264.16 M178.69,274.41L178.69,264.16 M175.80,260.93L175.81,271.01 M217.16,260.93L217.16,244.27 M217.16,260.93L217.16,277.59 M208.96,260.70L218.74,260.70 M208.96,260.70L165.22,260.70 M202.17,242.91L202.17,260.93 M202.17,260.93L202.17,278.95 M201.82,243.04L201.82,260.93 M201.82,260.93L201.82,278.82 M196.56,244.95L196.56,260.93 M196.56,260.93L196.56,276.91 M196.21,245.08L196.21,260.93 M196.21,260.93L196.21,276.78 M214.37,241.62L214.38,260.82 M214.02,241.62L214.03,260.82 M208.81,260.93L208.81,241.18 M208.81,260.93L208.81,280.68 M208.45,260.93L208.46,241.27 M208.45,260.93L208.46,280.59 M184.70,247.68L184.70,260.93 M184.70,260.93L184.70,274.18 M184.35,247.77L184.34,260.93 M184.34,260.93L184.35,274.09 M179.09,249.18L179.09,260.93 M179.09,260.93L179.09,272.68 M178.73,249.27L178.73,260.93 M178.73,260.93L178.73,272.58 M214.37,280.24L214.38,261.04 M214.02,280.24L214.03,261.04 M199.33,285.56L189.18,282.84 M199.37,285.43L189.21,282.71 M189.28,282.47L199.43,285.19 M199.72,284.12L189.56,281.40 M199.77,283.92L189.62,281.20 M199.72,284.11L189.57,281.39 M365.16,260.94L367.12,268.74 M312.84,257.54L303.99,257.67 M318.77,250.91L305.61,250.91 M362.32,286.35L339.34,286.34 M359.31,293.31L350.75,293.93 M350.75,281.14L359.31,281.50 M350.75,228.55L359.31,227.93 M359.31,240.72L350.75,240.36 M318.92,263.70L328.67,263.70 M338.66,242.42L338.66,279.44 M337.68,249.82L337.57,274.83 M316.79,264.38L325.56,264.37 M252.18,270.69L241.69,267.12 M252.25,251.15L241.69,254.74 M283.24,241.83L275.55,244.48 M283.24,241.83L295.98,237.56 M287.24,240.62L275.55,244.16 M256.91,274.49L279.73,274.50 M277.78,268.52L285.61,268.77 M285.58,253.48L276.89,253.33 M302.79,255.51L293.08,255.49 M251.55,248.91L259.32,241.36 M239.95,262.10L239.88,262.07 M239.85,262.20L239.88,262.20 M239.88,262.20L239.87,262.20 M239.88,259.79L239.95,259.76 M155.34,263.79L155.31,263.82 M176.58,271.49L197.77,277.17 M176.58,271.49L192.82,275.84 M176.58,271.49L191.44,275.47 M176.58,250.37L191.44,246.39 M176.58,250.37L192.82,246.02 M176.58,250.37L196.40,245.06 M176.58,250.37L197.77,244.69 M188.78,274.58L172.35,270.15 M216.90,256.81L216.90,264.99 M216.97,260.93L216.74,243.92 M274.65,236.27L288.05,234.63 M274.65,285.58L288.05,287.23 M256.00,220.27L244.34,222.96 M256.00,301.59L244.34,298.90 M375.42,223.15L351.57,219.82 M351.57,219.82L379.36,224.02 M351.69,302.85L381.33,297.90 M351.69,302.85L375.42,298.71 M315.30,208.56L329.18,208.34 M315.30,313.30L329.18,313.52 M185.27,236.45L193.14,233.06 M211.40,227.53L225.21,224.27 M185.27,285.41L193.14,288.80 M211.40,294.33L225.21,297.59 M223.27,226.17L232.76,223.99 M232.76,297.87L223.27,295.69 M182.91,238.54L227.37,228.79 M182.91,283.32L227.37,293.07 M162.43,242.32L207.41,232.99 M215.79,231.16L231.44,228.00 M220.89,230.36L230.48,228.61 M220.89,230.36L213.02,232.14 M162.43,279.54L207.41,288.87 M215.79,290.70L231.44,293.86 M230.48,293.25L220.89,291.50 M220.89,291.50L213.02,289.72 M147.38,268.05L136.29,265.82 M133.88,253.18L144.65,250.21 M115.65,262.87L107.30,262.10 M144.65,271.66L133.88,268.68 M108.36,259.62L116.80,258.96 M133.68,250.10L123.36,252.39 M138.00,261.37L142.32,261.94 M157.40,261.62L149.89,261.62 M149.34,274.13L149.82,276.13 M105.51,260.05L117.50,255.39 M156.62,277.43L148.74,275.86 M156.69,244.47L148.74,246.04" stroke="currentColor" stroke-width="0.6" stroke-linecap="round" fill="none" opacity="0.55" clip-path="url(#hull-clip)" filter="url(#glow)" />
  <path d="M 335.38,315.06 C 333.78,315.04 332.17,314.98 330.62,314.94 C 329.08,314.89 327.56,314.84 326.08,314.78 C 324.60,314.72 323.15,314.66 321.73,314.59 C 320.32,314.53 318.94,314.45 317.59,314.38 C 316.25,314.30 314.93,314.21 313.66,314.12 C 312.38,314.04 311.13,313.94 309.92,313.84 C 308.71,313.74 307.53,313.64 306.39,313.53 C 305.25,313.42 304.14,313.31 303.06,313.19 C 301.99,313.07 300.94,312.94 299.94,312.81 C 298.94,312.69 297.98,312.56 297.06,312.44 C 296.15,312.31 295.27,312.19 294.44,312.06 C 293.60,311.94 292.81,311.81 292.06,311.69 C 291.31,311.56 290.60,311.44 289.94,311.31 C 289.27,311.19 288.65,311.06 288.06,310.94 C 287.48,310.81 286.94,310.69 286.44,310.56 C 285.94,310.44 285.48,310.31 285.06,310.19 C 284.65,310.06 284.30,309.92 283.94,309.81 C 283.58,309.70 283.23,309.60 282.91,309.52 C 282.58,309.43 282.27,309.36 281.97,309.30 C 281.67,309.24 281.39,309.19 281.12,309.16 C 280.86,309.12 280.61,309.10 280.38,309.09 C 280.14,309.09 279.92,309.09 279.72,309.11 C 279.52,309.13 279.33,309.16 279.16,309.20 C 278.98,309.25 278.83,309.30 278.69,309.38 C 278.55,309.45 278.45,309.55 278.31,309.62 C 278.18,309.70 278.03,309.78 277.88,309.84 C 277.72,309.91 277.55,309.97 277.38,310.03 C 277.20,310.09 277.01,310.14 276.81,310.19 C 276.61,310.23 276.41,310.28 276.19,310.31 C 275.97,310.35 275.74,310.38 275.50,310.41 C 275.26,310.43 275.01,310.45 274.75,310.47 C 274.49,310.48 274.22,310.49 273.94,310.50 C 273.66,310.51 273.52,310.55 273.06,310.50 C 272.61,310.45 271.99,310.34 271.22,310.19 C 270.44,310.03 269.51,309.82 268.41,309.56 C 267.31,309.30 266.05,308.99 264.62,308.62 C 263.20,308.26 261.62,307.84 259.88,307.38 C 258.13,306.91 256.22,306.39 254.16,305.81 C 252.09,305.24 249.86,304.61 247.47,303.94 C 245.08,303.26 242.53,302.53 239.81,301.75 C 237.10,300.97 233.96,300.05 231.19,299.25 C 228.41,298.45 225.74,297.69 223.17,296.97 C 220.60,296.24 218.13,295.56 215.77,294.91 C 213.40,294.26 211.13,293.64 208.97,293.06 C 206.80,292.48 204.74,291.94 202.78,291.44 C 200.82,290.93 198.96,290.46 197.20,290.03 C 195.45,289.60 193.79,289.20 192.23,288.84 C 190.68,288.48 189.23,288.16 187.88,287.88 C 186.52,287.59 185.32,287.37 184.12,287.12 C 182.93,286.88 181.80,286.65 180.73,286.42 C 179.66,286.20 178.65,285.98 177.70,285.77 C 176.75,285.55 175.86,285.35 175.03,285.16 C 174.20,284.96 173.43,284.77 172.72,284.59 C 172.01,284.41 171.36,284.24 170.77,284.08 C 170.17,283.91 169.64,283.76 169.17,283.61 C 168.70,283.46 168.29,283.32 167.94,283.19 C 167.59,283.05 167.35,282.93 167.06,282.81 C 166.77,282.70 166.48,282.59 166.19,282.48 C 165.90,282.38 165.60,282.29 165.31,282.20 C 165.02,282.12 164.73,282.04 164.44,281.97 C 164.15,281.90 163.85,281.84 163.56,281.78 C 163.27,281.73 162.98,281.68 162.69,281.64 C 162.40,281.60 162.10,281.57 161.81,281.55 C 161.52,281.52 161.23,281.51 160.94,281.50 C 160.65,281.49 160.43,281.53 160.06,281.50 C 159.69,281.47 159.24,281.41 158.70,281.33 C 158.17,281.24 157.55,281.13 156.86,280.98 C 156.16,280.84 155.39,280.67 154.53,280.47 C 153.67,280.27 152.74,280.04 151.72,279.78 C 150.70,279.52 149.60,279.24 148.42,278.92 C 147.24,278.61 145.98,278.26 144.64,277.89 C 143.30,277.52 141.88,277.12 140.38,276.69 C 138.87,276.26 137.16,275.75 135.62,275.31 C 134.09,274.88 132.61,274.46 131.17,274.06 C 129.74,273.67 128.35,273.29 127.02,272.94 C 125.68,272.58 124.39,272.25 123.16,271.94 C 121.92,271.62 120.73,271.33 119.59,271.06 C 118.46,270.79 117.37,270.54 116.33,270.31 C 115.29,270.08 114.30,269.88 113.36,269.69 C 112.42,269.50 111.53,269.33 110.69,269.19 C 109.85,269.04 109.07,268.94 108.31,268.81 C 107.56,268.68 106.83,268.54 106.15,268.40 C 105.46,268.25 104.81,268.10 104.20,267.95 C 103.58,267.79 103.00,267.62 102.45,267.45 C 101.91,267.28 101.40,267.11 100.92,266.92 C 100.45,266.74 100.01,266.55 99.60,266.35 C 99.20,266.15 98.83,265.95 98.49,265.74 C 98.16,265.53 97.86,265.32 97.59,265.09 C 97.33,264.87 97.12,264.63 96.91,264.41 C 96.69,264.18 96.49,263.97 96.30,263.76 C 96.12,263.55 95.95,263.35 95.79,263.15 C 95.63,262.95 95.49,262.76 95.36,262.58 C 95.23,262.39 95.12,262.22 95.02,262.05 C 94.92,261.88 94.83,261.71 94.76,261.55 C 94.69,261.40 94.63,261.25 94.59,261.10 C 94.54,260.96 94.51,260.82 94.50,260.69 C 94.49,260.56 94.49,260.44 94.50,260.31 C 94.51,260.18 94.54,260.04 94.59,259.90 C 94.63,259.75 94.69,259.60 94.76,259.45 C 94.83,259.29 94.92,259.12 95.02,258.95 C 95.12,258.78 95.23,258.61 95.36,258.42 C 95.49,258.24 95.63,258.05 95.79,257.85 C 95.95,257.65 96.12,257.45 96.30,257.24 C 96.49,257.03 96.69,256.82 96.91,256.59 C 97.12,256.37 97.32,256.13 97.59,255.91 C 97.87,255.68 98.19,255.46 98.55,255.24 C 98.92,255.02 99.33,254.81 99.79,254.60 C 100.25,254.39 100.75,254.19 101.30,253.98 C 101.85,253.78 102.44,253.58 103.08,253.39 C 103.72,253.20 104.40,253.01 105.13,252.82 C 105.86,252.63 106.64,252.45 107.46,252.27 C 108.28,252.10 109.15,251.92 110.06,251.75 C 110.98,251.58 111.95,251.43 112.94,251.25 C 113.92,251.07 114.94,250.87 115.98,250.66 C 117.03,250.44 118.10,250.21 119.20,249.97 C 120.30,249.72 121.43,249.46 122.59,249.19 C 123.75,248.91 124.94,248.62 126.16,248.31 C 127.37,248.01 128.62,247.68 129.89,247.34 C 131.16,247.01 132.47,246.65 133.80,246.28 C 135.13,245.91 136.49,245.53 137.88,245.12 C 139.26,244.72 140.76,244.27 142.12,243.88 C 143.49,243.48 144.81,243.10 146.08,242.75 C 147.35,242.40 148.57,242.06 149.73,241.75 C 150.90,241.44 152.02,241.15 153.09,240.88 C 154.16,240.60 155.18,240.35 156.16,240.12 C 157.13,239.90 158.05,239.69 158.92,239.50 C 159.79,239.31 160.62,239.15 161.39,239.00 C 162.16,238.85 162.89,238.73 163.56,238.62 C 164.24,238.52 164.79,238.47 165.44,238.38 C 166.09,238.28 166.77,238.17 167.47,238.05 C 168.17,237.92 168.90,237.79 169.66,237.64 C 170.41,237.49 171.19,237.33 172.00,237.16 C 172.81,236.98 173.64,236.79 174.50,236.59 C 175.36,236.39 176.24,236.18 177.16,235.95 C 178.07,235.73 179.01,235.49 179.97,235.23 C 180.93,234.98 181.92,234.72 182.94,234.44 C 183.95,234.16 184.90,233.89 186.06,233.56 C 187.23,233.24 188.51,232.88 189.92,232.48 C 191.33,232.09 192.86,231.66 194.52,231.20 C 196.17,230.74 197.95,230.25 199.84,229.72 C 201.74,229.19 203.76,228.63 205.91,228.03 C 208.05,227.43 210.32,226.80 212.70,226.14 C 215.09,225.48 217.60,224.78 220.23,224.05 C 222.87,223.32 225.62,222.55 228.50,221.75 C 231.38,220.95 234.67,220.03 237.50,219.25 C 240.33,218.47 243.00,217.74 245.50,217.06 C 248.00,216.39 250.33,215.76 252.50,215.19 C 254.67,214.61 256.67,214.09 258.50,213.62 C 260.33,213.16 262.00,212.74 263.50,212.38 C 265.00,212.01 266.33,211.70 267.50,211.44 C 268.67,211.18 269.67,210.97 270.50,210.81 C 271.33,210.66 272.00,210.55 272.50,210.50 C 273.00,210.45 273.18,210.49 273.50,210.50 C 273.82,210.51 274.13,210.52 274.42,210.53 C 274.72,210.55 275.00,210.57 275.27,210.59 C 275.53,210.62 275.79,210.65 276.03,210.69 C 276.27,210.72 276.50,210.77 276.72,210.81 C 276.93,210.86 277.14,210.91 277.33,210.97 C 277.52,211.03 277.70,211.09 277.86,211.16 C 278.02,211.22 278.17,211.30 278.31,211.38 C 278.45,211.45 278.55,211.55 278.69,211.62 C 278.83,211.70 278.98,211.75 279.14,211.80 C 279.30,211.84 279.48,211.87 279.67,211.89 C 279.86,211.91 280.07,211.91 280.28,211.91 C 280.50,211.90 280.73,211.88 280.97,211.84 C 281.21,211.81 281.47,211.76 281.73,211.70 C 282.00,211.64 282.28,211.57 282.58,211.48 C 282.87,211.40 283.18,211.30 283.50,211.19 C 283.82,211.08 284.09,210.94 284.50,210.81 C 284.91,210.68 285.39,210.55 285.95,210.42 C 286.51,210.29 287.15,210.15 287.86,210.02 C 288.57,209.88 289.36,209.74 290.22,209.59 C 291.08,209.45 292.02,209.30 293.03,209.16 C 294.04,209.01 295.13,208.86 296.30,208.70 C 297.46,208.55 298.70,208.39 300.02,208.23 C 301.33,208.08 302.72,207.91 304.19,207.75 C 305.65,207.59 307.27,207.40 308.81,207.25 C 310.35,207.10 311.89,206.96 313.42,206.83 C 314.96,206.70 316.49,206.59 318.02,206.48 C 319.54,206.38 321.07,206.29 322.59,206.22 C 324.12,206.14 325.64,206.08 327.16,206.03 C 328.67,205.98 330.19,205.95 331.70,205.92 C 333.22,205.90 334.73,205.89 336.23,205.89 C 337.74,205.89 339.25,205.91 340.75,205.94 C 342.25,205.97 343.76,206.01 345.25,206.06 C 346.74,206.12 348.23,206.19 349.70,206.28 C 351.18,206.37 352.65,206.47 354.11,206.59 C 355.57,206.71 357.02,206.85 358.47,207.00 C 359.91,207.15 361.35,207.32 362.78,207.50 C 364.21,207.68 365.63,207.88 367.05,208.09 C 368.46,208.31 369.87,208.54 371.27,208.78 C 372.66,209.03 374.05,209.29 375.44,209.56 C 376.82,209.84 378.23,210.15 379.56,210.44 C 380.90,210.73 382.20,211.01 383.45,211.30 C 384.71,211.58 385.93,211.86 387.11,212.14 C 388.29,212.42 389.43,212.70 390.53,212.97 C 391.63,213.24 392.70,213.51 393.72,213.78 C 394.74,214.05 395.73,214.32 396.67,214.58 C 397.62,214.84 398.52,215.10 399.39,215.36 C 400.26,215.62 401.09,215.87 401.88,216.12 C 402.66,216.38 403.42,216.63 404.12,216.88 C 404.83,217.12 405.50,217.35 406.13,217.57 C 406.76,217.79 407.35,218.01 407.90,218.21 C 408.45,218.42 408.95,218.61 409.42,218.80 C 409.89,218.98 410.32,219.16 410.70,219.33 C 411.09,219.50 411.44,219.65 411.74,219.80 C 412.05,219.95 412.31,220.10 412.54,220.23 C 412.76,220.36 412.95,220.48 413.09,220.59 C 413.24,220.71 413.31,220.80 413.41,220.91 C 413.50,221.01 413.60,221.12 413.68,221.23 C 413.76,221.33 413.84,221.44 413.91,221.55 C 413.99,221.67 414.05,221.78 414.11,221.89 C 414.17,222.00 414.22,222.12 414.27,222.23 C 414.31,222.35 414.35,222.47 414.38,222.59 C 414.42,222.70 414.44,222.82 414.46,222.95 C 414.48,223.07 414.49,223.19 414.50,223.31 C 414.51,223.44 414.51,223.55 414.50,223.69 C 414.49,223.82 414.47,223.97 414.44,224.12 C 414.41,224.28 414.36,224.45 414.31,224.62 C 414.26,224.80 414.20,224.99 414.12,225.19 C 414.05,225.39 413.97,225.59 413.88,225.81 C 413.78,226.03 413.68,226.26 413.56,226.50 C 413.45,226.74 413.32,226.99 413.19,227.25 C 413.05,227.51 412.91,227.78 412.75,228.06 C 412.59,228.34 412.41,228.63 412.25,228.94 C 412.09,229.24 411.95,229.57 411.81,229.91 C 411.68,230.24 411.55,230.60 411.44,230.97 C 411.32,231.34 411.22,231.72 411.12,232.12 C 411.03,232.53 410.95,232.94 410.88,233.38 C 410.80,233.81 410.74,234.26 410.69,234.72 C 410.64,235.18 410.59,235.66 410.56,236.16 C 410.53,236.65 410.51,237.16 410.50,237.69 C 410.49,238.21 410.52,238.78 410.50,239.31 C 410.48,239.84 410.44,240.36 410.38,240.88 C 410.31,241.39 410.23,241.89 410.12,242.38 C 410.02,242.86 409.90,243.34 409.75,243.81 C 409.60,244.28 409.44,244.74 409.25,245.19 C 409.06,245.64 408.85,246.07 408.62,246.50 C 408.40,246.93 408.15,247.34 407.88,247.75 C 407.60,248.16 407.31,248.55 407.00,248.94 C 406.69,249.32 406.31,249.68 406.00,250.06 C 405.69,250.45 405.40,250.84 405.12,251.25 C 404.85,251.66 404.60,252.07 404.38,252.50 C 404.15,252.93 403.94,253.36 403.75,253.81 C 403.56,254.26 403.40,254.72 403.25,255.19 C 403.10,255.66 402.98,256.14 402.88,256.62 C 402.77,257.11 402.69,257.61 402.62,258.12 C 402.56,258.64 402.52,259.16 402.50,259.69 C 402.48,260.22 402.48,260.78 402.50,261.31 C 402.52,261.84 402.56,262.36 402.62,262.88 C 402.69,263.39 402.77,263.89 402.88,264.38 C 402.98,264.86 403.10,265.34 403.25,265.81 C 403.40,266.28 403.56,266.74 403.75,267.19 C 403.94,267.64 404.15,268.07 404.38,268.50 C 404.60,268.93 404.85,269.34 405.12,269.75 C 405.40,270.16 405.69,270.55 406.00,270.94 C 406.31,271.32 406.69,271.68 407.00,272.06 C 407.31,272.45 407.60,272.84 407.88,273.25 C 408.15,273.66 408.40,274.07 408.62,274.50 C 408.85,274.93 409.06,275.36 409.25,275.81 C 409.44,276.26 409.60,276.72 409.75,277.19 C 409.90,277.66 410.02,278.14 410.12,278.62 C 410.23,279.11 410.31,279.61 410.38,280.12 C 410.44,280.64 410.48,281.16 410.50,281.69 C 410.52,282.22 410.49,282.79 410.50,283.31 C 410.51,283.84 410.53,284.34 410.56,284.83 C 410.59,285.32 410.64,285.78 410.69,286.23 C 410.74,286.68 410.80,287.12 410.88,287.53 C 410.95,287.95 411.03,288.34 411.12,288.72 C 411.22,289.10 411.32,289.46 411.44,289.80 C 411.55,290.14 411.68,290.46 411.81,290.77 C 411.95,291.07 412.09,291.36 412.25,291.62 C 412.41,291.89 412.59,292.13 412.75,292.38 C 412.91,292.62 413.05,292.86 413.19,293.09 C 413.32,293.33 413.45,293.56 413.56,293.78 C 413.68,294.01 413.78,294.22 413.88,294.44 C 413.97,294.65 414.05,294.86 414.12,295.06 C 414.20,295.27 414.26,295.46 414.31,295.66 C 414.36,295.85 414.41,296.04 414.44,296.22 C 414.47,296.40 414.49,296.58 414.50,296.75 C 414.51,296.92 414.51,297.08 414.50,297.25 C 414.49,297.42 414.46,297.58 414.41,297.74 C 414.37,297.90 414.31,298.07 414.24,298.23 C 414.17,298.39 414.08,298.55 413.98,298.70 C 413.88,298.86 413.77,299.02 413.64,299.17 C 413.51,299.33 413.37,299.48 413.21,299.63 C 413.05,299.79 412.88,299.94 412.70,300.09 C 412.51,300.24 412.31,300.38 412.09,300.53 C 411.88,300.68 411.66,300.82 411.41,300.97 C 411.15,301.12 410.87,301.27 410.55,301.43 C 410.24,301.59 409.90,301.75 409.54,301.91 C 409.17,302.08 408.78,302.25 408.36,302.42 C 407.94,302.60 407.49,302.77 407.02,302.95 C 406.54,303.13 406.04,303.32 405.51,303.51 C 404.98,303.70 404.42,303.89 403.84,304.09 C 403.25,304.28 402.64,304.48 402.00,304.69 C 401.36,304.89 400.73,305.10 400.00,305.31 C 399.27,305.53 398.47,305.75 397.61,305.98 C 396.75,306.22 395.82,306.46 394.83,306.70 C 393.84,306.95 392.78,307.21 391.66,307.47 C 390.53,307.73 389.35,308.00 388.09,308.28 C 386.84,308.56 385.52,308.85 384.14,309.14 C 382.76,309.43 381.31,309.74 379.80,310.05 C 378.28,310.36 376.71,310.67 375.06,311.00 C 373.42,311.33 371.64,311.69 369.94,312.00 C 368.24,312.31 366.54,312.60 364.86,312.86 C 363.17,313.12 361.50,313.36 359.83,313.58 C 358.16,313.79 356.50,313.99 354.84,314.16 C 353.19,314.33 351.54,314.47 349.91,314.59 C 348.27,314.72 346.64,314.82 345.02,314.89 C 343.39,314.97 341.78,315.02 340.17,315.05 C 338.57,315.08 336.97,315.08 335.38,315.06 Z" fill="none" stroke="currentColor" stroke-width="1.5" stroke-linejoin="round" stroke-linecap="round" filter="url(#glow)" />
</svg>