<svg xmlns="http://www.w3.org/2000/svg" width="512" height="512" viewBox="131.32 216.61 249.95 74.88" preserveAspectRatio="xMidYMid meet">
  <defs>
    <filter id="glow" x="-30%" y="-30%" width="160%" height="160%">
      <feGaussianBlur in="SourceGraphic" stdDeviation="2.4" result="blur" />
      <feMerge>
        <feMergeNode in="blur" />
        <feMergeNode in="SourceGraphic" />
      </feMerge>
    </filter>
    <clipPath id="hull-clip">
      <path d="M 239.81,285.06 C 237.01,285.03 233.99,284.99 231.19,284.94 C 228.38,284.88 225.65,284.82 222.98,284.73 C 220.32,284.65 217.73,284.56 215.20,284.45 C 212.68,284.35 210.23,284.23 207.84,284.09 C 205.46,283.96 203.15,283.82 200.91,283.66 C 198.66,283.50 196.49,283.33 194.39,283.14 C 192.29,282.96 190.26,282.76 188.30,282.55 C 186.34,282.34 184.45,282.11 182.62,281.88 C 180.80,281.64 179.06,281.37 177.38,281.12 C 175.69,280.88 174.07,280.63 172.52,280.39 C 170.96,280.15 169.47,279.91 168.05,279.67 C 166.62,279.43 165.26,279.20 163.97,278.97 C 162.67,278.74 161.45,278.51 160.28,278.28 C 159.12,278.05 158.02,277.83 156.98,277.61 C 155.95,277.39 154.98,277.17 154.08,276.95 C 153.17,276.74 152.34,276.52 151.56,276.31 C 150.79,276.10 150.12,275.89 149.44,275.69 C 148.76,275.48 148.11,275.28 147.49,275.09 C 146.87,274.89 146.29,274.70 145.73,274.51 C 145.17,274.32 144.64,274.13 144.14,273.95 C 143.64,273.77 143.17,273.60 142.73,273.42 C 142.30,273.25 141.89,273.08 141.51,272.91 C 141.13,272.75 140.78,272.59 140.46,272.43 C 140.14,272.27 139.85,272.12 139.59,271.97 C 139.33,271.82 139.10,271.67 138.91,271.53 C 138.72,271.39 138.57,271.25 138.45,271.11 C 138.34,270.97 138.27,270.84 138.23,270.70 C 138.20,270.57 138.21,270.44 138.25,270.31 C 138.29,270.18 138.38,270.06 138.50,269.94 C 138.62,269.82 138.78,269.70 138.98,269.58 C 139.18,269.46 139.42,269.35 139.70,269.23 C 139.98,269.12 140.30,269.01 140.66,268.91 C 141.01,268.80 141.42,268.69 141.84,268.59 C 142.27,268.49 142.73,268.40 143.22,268.31 C 143.71,268.22 144.23,268.14 144.78,268.06 C 145.33,267.98 145.92,267.91 146.53,267.84 C 147.15,267.78 147.79,267.71 148.47,267.66 C 149.15,267.60 149.85,267.55 150.59,267.50 C 151.33,267.45 152.10,267.41 152.91,267.38 C 153.71,267.34 154.54,267.31 155.41,267.28 C 156.27,267.26 157.29,267.25 158.09,267.22 C 158.89,267.19 159.60,267.15 160.20,267.09 C 160.81,267.04 161.32,266.98 161.73,266.91 C 162.15,266.83 162.47,266.75 162.69,266.66 C 162.91,266.56 163.03,266.46 163.06,266.34 C 163.09,266.23 163.02,266.10 162.86,265.97 C 162.70,265.83 162.43,265.69 162.08,265.53 C 161.72,265.38 161.27,265.21 160.72,265.03 C 160.17,264.85 159.41,264.66 158.78,264.47 C 158.15,264.28 157.54,264.09 156.95,263.89 C 156.36,263.70 155.79,263.50 155.23,263.30 C 154.68,263.10 154.14,262.89 153.62,262.69 C 153.11,262.48 152.61,262.27 152.12,262.06 C 151.64,261.85 151.18,261.64 150.73,261.42 C 150.29,261.21 149.86,260.99 149.45,260.77 C 149.04,260.54 148.65,260.32 148.28,260.09 C 147.91,259.87 147.55,259.63 147.22,259.41 C 146.89,259.18 146.58,258.97 146.29,258.76 C 146.00,258.55 145.74,258.35 145.49,258.15 C 145.25,257.95 145.03,257.76 144.83,257.58 C 144.63,257.39 144.45,257.22 144.30,257.05 C 144.14,256.88 144.01,256.71 143.90,256.55 C 143.79,256.40 143.70,256.25 143.63,256.10 C 143.57,255.96 143.52,255.82 143.50,255.69 C 143.48,255.56 143.49,255.44 143.50,255.31 C 143.51,255.19 143.52,255.07 143.54,254.95 C 143.56,254.82 143.58,254.70 143.62,254.59 C 143.65,254.47 143.69,254.35 143.73,254.23 C 143.78,254.12 143.83,254.00 143.89,253.89 C 143.95,253.78 144.01,253.67 144.09,253.55 C 144.16,253.44 144.24,253.33 144.32,253.23 C 144.40,253.12 144.50,253.01 144.59,252.91 C 144.69,252.80 144.75,252.71 144.91,252.59 C 145.06,252.48 145.26,252.35 145.52,252.20 C 145.77,252.06 146.07,251.90 146.42,251.73 C 146.77,251.57 147.17,251.38 147.62,251.19 C 148.08,250.99 148.58,250.78 149.12,250.56 C 149.67,250.34 150.27,250.11 150.92,249.86 C 151.57,249.61 152.27,249.35 153.02,249.08 C 153.76,248.80 154.56,248.52 155.41,248.22 C 156.25,247.92 157.33,247.58 158.09,247.28 C 158.86,246.98 159.50,246.70 160.02,246.44 C 160.53,246.17 160.91,245.92 161.17,245.69 C 161.43,245.45 161.56,245.23 161.56,245.03 C 161.57,244.83 161.44,244.64 161.19,244.47 C 160.93,244.30 160.55,244.14 160.05,244.00 C 159.54,243.86 158.90,243.73 158.14,243.62 C 157.38,243.52 156.49,243.42 155.47,243.34 C 154.45,243.27 153.11,243.22 152.03,243.16 C 150.95,243.09 149.93,243.03 148.97,242.97 C 148.01,242.91 147.11,242.84 146.28,242.78 C 145.45,242.72 144.68,242.66 143.97,242.59 C 143.26,242.53 142.61,242.47 142.03,242.41 C 141.45,242.34 140.93,242.28 140.47,242.22 C 140.01,242.16 139.61,242.09 139.28,242.03 C 138.95,241.97 138.68,241.91 138.47,241.84 C 138.26,241.78 138.15,241.72 138.03,241.66 C 137.91,241.59 137.81,241.52 137.73,241.44 C 137.66,241.36 137.61,241.28 137.58,241.19 C 137.55,241.10 137.54,241.01 137.56,240.91 C 137.58,240.81 137.62,240.70 137.69,240.59 C 137.75,240.48 137.84,240.37 137.95,240.25 C 138.07,240.13 138.20,240.01 138.36,239.88 C 138.52,239.74 138.70,239.61 138.91,239.47 C 139.11,239.33 139.33,239.18 139.59,239.03 C 139.85,238.88 140.14,238.73 140.46,238.57 C 140.78,238.41 141.13,238.25 141.51,238.09 C 141.89,237.92 142.30,237.75 142.73,237.58 C 143.17,237.40 143.64,237.23 144.14,237.05 C 144.64,236.87 145.17,236.68 145.73,236.49 C 146.29,236.30 146.87,236.11 147.49,235.91 C 148.11,235.72 148.76,235.52 149.44,235.31 C 150.12,235.11 150.79,234.90 151.56,234.69 C 152.34,234.48 153.17,234.26 154.08,234.05 C 154.98,233.83 155.95,233.61 156.98,233.39 C 158.02,233.17 159.12,232.95 160.28,232.72 C 161.45,232.49 162.67,232.26 163.97,232.03 C 165.26,231.80 166.62,231.57 168.05,231.33 C 169.47,231.09 170.96,230.85 172.52,230.61 C 174.07,230.37 175.69,230.12 177.38,229.88 C 179.06,229.63 180.85,229.37 182.62,229.12 C 184.40,228.88 186.21,228.65 188.05,228.42 C 189.88,228.20 191.75,227.98 193.64,227.77 C 195.53,227.55 197.46,227.35 199.41,227.16 C 201.36,226.96 203.34,226.77 205.34,226.59 C 207.35,226.41 209.39,226.24 211.45,226.08 C 213.52,225.91 215.61,225.76 217.73,225.61 C 219.86,225.46 222.01,225.32 224.19,225.19 C 226.37,225.05 228.71,224.93 230.81,224.81 C 232.91,224.69 234.90,224.58 236.78,224.47 C 238.66,224.36 240.43,224.26 242.09,224.16 C 243.76,224.06 245.31,223.96 246.75,223.88 C 248.19,223.79 249.53,223.70 250.75,223.62 C 251.97,223.55 253.09,223.47 254.09,223.41 C 255.10,223.34 255.99,223.28 256.78,223.22 C 257.57,223.16 258.24,223.11 258.81,223.06 C 259.38,223.02 259.76,222.97 260.19,222.94 C 260.61,222.90 261.01,222.88 261.37,222.87 C 261.73,222.85 262.06,222.85 262.35,222.85 C 262.65,222.86 262.91,222.87 263.14,222.89 C 263.37,222.91 263.57,222.94 263.73,222.98 C 263.90,223.02 264.03,223.07 264.13,223.13 C 264.23,223.19 264.30,223.26 264.34,223.34 C 264.37,223.41 264.37,223.50 264.34,223.59 C 264.31,223.69 264.20,223.80 264.16,223.91 C 264.11,224.01 264.09,224.11 264.08,224.20 C 264.07,224.30 264.08,224.39 264.11,224.48 C 264.14,224.58 264.18,224.66 264.25,224.75 C 264.32,224.84 264.40,224.92 264.50,225.00 C 264.60,225.08 264.72,225.16 264.86,225.23 C 265.00,225.31 265.15,225.38 265.33,225.45 C 265.50,225.52 265.70,225.59 265.91,225.66 C 266.12,225.72 266.26,225.79 266.59,225.84 C 266.92,225.90 267.35,225.96 267.88,226.01 C 268.41,226.06 269.04,226.11 269.77,226.15 C 270.50,226.19 271.33,226.23 272.27,226.27 C 273.20,226.30 274.23,226.33 275.36,226.36 C 276.49,226.39 277.72,226.41 279.05,226.43 C 280.39,226.45 281.82,226.46 283.35,226.48 C 284.88,226.49 286.52,226.50 288.25,226.50 C 289.98,226.50 291.91,226.49 293.75,226.50 C 295.59,226.51 297.42,226.52 299.27,226.55 C 301.11,226.57 302.95,226.60 304.80,226.64 C 306.64,226.68 308.49,226.73 310.34,226.78 C 312.20,226.84 314.05,226.90 315.91,226.97 C 317.76,227.04 319.62,227.12 321.48,227.20 C 323.35,227.29 325.21,227.38 327.08,227.48 C 328.95,227.59 330.82,227.70 332.69,227.81 C 334.56,227.93 336.51,228.06 338.31,228.19 C 340.11,228.31 341.84,228.44 343.49,228.57 C 345.14,228.70 346.72,228.83 348.23,228.96 C 349.73,229.09 351.16,229.23 352.52,229.36 C 353.87,229.49 355.15,229.63 356.36,229.77 C 357.57,229.90 358.70,230.04 359.76,230.18 C 360.82,230.32 361.80,230.46 362.71,230.60 C 363.62,230.74 364.46,230.89 365.22,231.03 C 365.98,231.18 366.64,231.32 367.28,231.47 C 367.92,231.61 368.52,231.76 369.06,231.91 C 369.61,232.05 370.11,232.20 370.56,232.34 C 371.02,232.49 371.42,232.64 371.78,232.78 C 372.14,232.93 372.45,233.07 372.72,233.22 C 372.98,233.36 373.20,233.51 373.38,233.66 C 373.55,233.80 373.67,233.95 373.75,234.09 C 373.83,234.24 373.86,234.39 373.84,234.53 C 373.83,234.68 373.75,234.82 373.66,234.97 C 373.56,235.12 373.44,235.26 373.29,235.41 C 373.14,235.56 372.95,235.71 372.74,235.87 C 372.53,236.02 372.29,236.17 372.02,236.33 C 371.74,236.48 371.44,236.64 371.11,236.80 C 370.78,236.95 370.42,237.11 370.02,237.27 C 369.63,237.43 369.21,237.60 368.76,237.76 C 368.31,237.92 367.82,238.08 367.31,238.25 C 366.80,238.42 366.31,238.59 365.69,238.75 C 365.07,238.91 364.36,239.06 363.58,239.20 C 362.79,239.35 361.93,239.48 360.98,239.61 C 360.04,239.74 359.01,239.86 357.91,239.97 C 356.80,240.08 355.61,240.18 354.34,240.28 C 353.08,240.38 351.73,240.47 350.30,240.55 C 348.87,240.63 347.36,240.70 345.77,240.77 C 344.17,240.83 342.50,240.89 340.75,240.94 C 339.00,240.99 336.99,241.02 335.25,241.06 C 333.51,241.11 331.86,241.16 330.30,241.21 C 328.75,241.26 327.29,241.32 325.91,241.38 C 324.54,241.44 323.26,241.51 322.08,241.58 C 320.89,241.65 319.80,241.72 318.80,241.80 C 317.80,241.87 316.89,241.95 316.07,242.04 C 315.25,242.12 314.53,242.21 313.90,242.30 C 313.27,242.40 312.73,242.49 312.28,242.59 C 311.83,242.69 311.54,242.79 311.22,242.91 C 310.89,243.02 310.60,243.15 310.34,243.29 C 310.07,243.43 309.84,243.58 309.63,243.74 C 309.43,243.90 309.25,244.08 309.11,244.27 C 308.96,244.45 308.85,244.65 308.77,244.86 C 308.68,245.07 308.63,245.29 308.60,245.52 C 308.58,245.76 308.58,246.00 308.62,246.26 C 308.65,246.51 308.72,246.78 308.81,247.06 C 308.91,247.34 309.07,247.64 309.19,247.94 C 309.30,248.23 309.41,248.54 309.52,248.84 C 309.62,249.15 309.71,249.46 309.80,249.78 C 309.88,250.10 309.96,250.42 310.03,250.75 C 310.10,251.08 310.16,251.41 310.22,251.75 C 310.27,252.09 310.32,252.43 310.36,252.78 C 310.40,253.13 310.43,253.48 310.45,253.84 C 310.48,254.20 310.49,254.57 310.50,254.94 C 310.51,255.31 310.51,255.70 310.50,256.06 C 310.49,256.43 310.48,256.79 310.45,257.14 C 310.43,257.49 310.40,257.84 310.36,258.17 C 310.32,258.51 310.27,258.84 310.22,259.16 C 310.16,259.48 310.10,259.79 310.03,260.09 C 309.96,260.40 309.88,260.70 309.80,260.98 C 309.71,261.27 309.62,261.55 309.52,261.83 C 309.41,262.10 309.30,262.37 309.19,262.62 C 309.07,262.88 308.93,263.13 308.81,263.38 C 308.70,263.62 308.60,263.85 308.51,264.07 C 308.42,264.29 308.34,264.51 308.27,264.71 C 308.21,264.92 308.15,265.11 308.11,265.30 C 308.07,265.48 308.04,265.66 308.02,265.83 C 308.00,266.00 307.99,266.15 307.99,266.30 C 308.00,266.45 308.01,266.60 308.04,266.73 C 308.07,266.86 308.11,266.98 308.16,267.09 C 308.21,267.21 308.15,267.30 308.34,267.41 C 308.53,267.51 308.85,267.61 309.29,267.71 C 309.73,267.81 310.30,267.91 310.99,268.01 C 311.69,268.11 312.51,268.20 313.45,268.30 C 314.40,268.39 315.47,268.49 316.67,268.58 C 317.87,268.67 319.20,268.76 320.65,268.85 C 322.10,268.94 323.68,269.03 325.38,269.12 C 327.09,269.20 328.92,269.29 330.88,269.38 C 332.83,269.46 335.14,269.54 337.12,269.62 C 339.11,269.71 341.01,269.81 342.81,269.91 C 344.61,270.01 346.32,270.11 347.94,270.22 C 349.55,270.33 351.07,270.44 352.50,270.56 C 353.93,270.68 355.26,270.81 356.50,270.94 C 357.74,271.07 358.89,271.20 359.94,271.34 C 360.99,271.48 361.95,271.63 362.81,271.78 C 363.68,271.93 364.45,272.09 365.12,272.25 C 365.80,272.41 366.32,272.59 366.88,272.75 C 367.43,272.91 367.95,273.07 368.45,273.23 C 368.94,273.38 369.40,273.53 369.84,273.68 C 370.27,273.83 370.67,273.97 371.05,274.11 C 371.42,274.25 371.76,274.38 372.08,274.52 C 372.39,274.65 372.68,274.77 372.93,274.90 C 373.18,275.02 373.41,275.14 373.60,275.26 C 373.80,275.37 373.96,275.49 374.09,275.59 C 374.23,275.70 374.31,275.80 374.41,275.91 C 374.50,276.01 374.58,276.11 374.66,276.22 C 374.73,276.32 374.79,276.43 374.84,276.53 C 374.90,276.64 374.94,276.74 374.97,276.84 C 375.00,276.95 375.02,277.05 375.03,277.16 C 375.04,277.26 375.04,277.36 375.03,277.47 C 375.02,277.57 375.00,277.68 374.97,277.78 C 374.94,277.89 374.90,277.99 374.84,278.09 C 374.79,278.20 374.87,278.30 374.66,278.41 C 374.44,278.52 374.07,278.63 373.54,278.76 C 373.01,278.88 372.33,279.01 371.49,279.15 C 370.65,279.29 369.66,279.43 368.52,279.58 C 367.37,279.73 366.07,279.88 364.61,280.05 C 363.15,280.21 361.54,280.38 359.77,280.55 C 358.01,280.73 356.08,280.91 354.01,281.10 C 351.93,281.29 349.70,281.49 347.31,281.69 C 344.93,281.89 342.18,282.11 339.69,282.31 C 337.19,282.51 334.74,282.70 332.34,282.88 C 329.94,283.05 327.59,283.22 325.28,283.38 C 322.97,283.53 320.71,283.68 318.50,283.81 C 316.29,283.95 314.12,284.07 312.00,284.19 C 309.88,284.30 307.81,284.41 305.78,284.50 C 303.76,284.59 301.78,284.68 299.84,284.75 C 297.91,284.82 296.03,284.89 294.19,284.94 C 292.35,284.99 290.67,285.03 288.81,285.06 C 286.95,285.10 285.03,285.13 283.03,285.16 C 281.04,285.18 278.97,285.20 276.84,285.22 C 274.71,285.23 272.52,285.24 270.25,285.25 C 267.98,285.26 265.65,285.26 263.25,285.25 C 260.85,285.24 258.38,285.23 255.84,285.22 C 253.31,285.20 250.70,285.18 248.03,285.16 C 245.36,285.13 242.62,285.10 239.81,285.06 Z" />
    </clipPath>
  </defs>
  <path d="M 239.81,285.06 C 237.01,285.03 233.99,284.99 231.19,284.94 C 228.38,284.88 225.65,284.82 222.98,284.73 C 220.32,284.65 217.73,284.56 215.20,284.45 C 212.68,284.35 210.23,284.23 207.84,284.09 C 205.46,283.96 203.15,283.82 200.91,283.66 C 198.66,283.50 196.49,283.33 194.39,283.14 C 192.29,282.96 190.26,282.76 188.30,282.55 C 186.34,282.34 184.45,282.11 182.62,281.88 C 180.80,281.64 179.06,281.37 177.38,281.12 C 175.69,280.88 174.07,280.63 172.52,280.39 C 170.96,280.15 169.47,279.91 168.05,279.67 C 166.62,279.43 165.26,279.20 163.97,278.97 C 162.67,278.74 161.45,278.51 160.28,278.28 C 159.12,278.05 158.02,277.83 156.98,277.61 C 155.95,277.39 154.98,277.17 154.08,276.95 C 153.17,276.74 152.34,276.52 151.56,276.31 C 150.79,276.10 150.12,275.89 149.44,275.69 C 148.76,275.48 148.11,275.28 147.49,275.09 C 146.87,274.89 146.29,274.70 145.73,274.51 C 145.17,274.32 144.64,274.13 144.14,273.95 C 143.64,273.77 143.17,273.60 142.73,273.42 C 142.30,273.25 141.89,273.08 141.51,272.91 C 141.13,272.75 140.78,272.59 140.46,272.43 C 140.14,272.27 139.85,272.12 139.59,271.97 C 139.33,271.82 139.10,271.67 138.91,271.53 C 138.72,271.39 138.57,271.25 138.45,271.11 C 138.34,270.97 138.27,270.84 138.23,270.70 C 138.20,270.57 138.21,270.44 138.25,270.31 C 138.29,270.18 138.38,270.06 138.50,269.94 C 138.62,269.82 138.78,269.70 138.98,269.58 C 139.18,269.46 139.42,269.35 139.70,269.23 C 139.98,269.12 140.30,269.01 140.66,268.91 C 141.01,268.80 141.42,268.69 141.84,268.59 C 142.27,268.49 142.73,268.40 143.22,268.31 C 143.71,268.22 144.23,268.14 144.78,268.06 C 145.33,267.98 145.92,267.91 146.53,267.84 C 147.15,267.78 147.79,267.71 148.47,267.66 C 149.15,267.60 149.85,267.55 150.59,267.50 C 151.33,267.45 152.10,267.41 152.91,267.38 C 153.71,267.34 154.54,267.31 155.41,267.28 C 156.27,267.26 157.29,267.25 158.09,267.22 C 158.89,267.19 159.60,267.15 160.20,267.09 C 160.81,267.04 161.32,266.98 161.73,266.91 C 162.15,266.83 162.47,266.75 162.69,266.66 C 162.91,266.56 163.03,266.46 163.06,266.34 C 163.09,266.23 163.02,266.10 162.86,265.97 C 162.70,265.83 162.43,265.69 162.08,265.53 C 161.72,265.38 161.27,265.21 160.72,265.03 C 160.17,264.85 159.41,264.66 158.78,264.47 C 158.15,264.28 157.54,264.09 156.95,263.89 C 156.36,263.70 155.79,263.50 155.23,263.30 C 154.68,263.10 154.14,262.89 153.62,262.69 C 153.11,262.48 152.61,262.27 152.12,262.06 C 151.64,261.85 151.18,261.64 150.73,261.42 C 150.29,261.21 149.86,260.99 149.45,260.77 C 149.04,260.54 148.65,260.32 148.28,260.09 C 147.91,259.87 147.55,259.63 147.22,259.41 C 146.89,259.18 146.58,258.97 146.29,258.76 C 146.00,258.55 145.74,258.35 145.49,258.15 C 145.25,257.95 145.03,257.76 144.83,257.58 C 144.63,257.39 144.45,257.22 144.30,257.05 C 144.14,256.88 144.01,256.71 143.90,256.55 C 143.79,256.40 143.70,256.25 143.63,256.10 C 143.57,255.96 143.52,255.82 143.50,255.69 C 143.48,255.56 143.49,255.44 143.50,255.31 C 143.51,255.19 143.52,255.07 143.54,254.95 C 143.56,254.82 143.58,254.70 143.62,254.59 C 143.65,254.47 143.69,254.35 143.73,254.23 C 143.78,254.12 143.83,254.00 143.89,253.89 C 143.95,253.78 144.01,253.67 144.09,253.55 C 144.16,253.44 144.24,253.33 144.32,253.23 C 144.40,253.12 144.50,253.01 144.59,252.91 C 144.69,252.80 144.75,252.71 144.91,252.59 C 145.06,252.48 145.26,252.35 145.52,252.20 C 145.77,252.06 146.07,251.90 146.42,251.73 C 146.77,251.57 147.17,251.38 147.62,251.19 C 148.08,250.99 148.58,250.78 149.12,250.56 C 149.67,250.34 150.27,250.11 150.92,249.86 C 151.57,249.61 152.27,249.35 153.02,249.08 C 153.76,248.80 154.56,248.52 155.41,248.22 C 156.25,247.92 157.33,247.58 158.09,247.28 C 158.86,246.98 159.50,246.70 160.02,246.44 C 160.53,246.17 160.91,245.92 161.17,245.69 C 161.43,245.45 161.56,245.23 161.56,245.03 C 161.57,244.83 161.44,244.64 161.19,244.47 C 160.93,244.30 160.55,244.14 160.05,244.00 C 159.54,243.86 158.90,243.73 158.14,243.62 C 157.38,243.52 156.49,243.42 155.47,243.34 C 154.45,243.27 153.11,243.22 152.03,243.16 C 150.95,243.09 149.93,243.03 148.97,242.97 C 148.01,242.91 147.11,242.84 146.28,242.78 C 145.45,242.72 144.68,242.66 143.97,242.59 C 143.26,242.53 142.61,242.47 142.03,242.41 C 141.45,242.34 140.93,242.28 140.47,242.22 C 140.01,242.16 139.61,242.09 139.28,242.03 C 138.95,241.97 138.68,241.91 138.47,241.84 C 138.26,241.78 138.15,241.72 138.03,241.66 C 137.91,241.59 137.81,241.52 137.73,241.44 C 137.66,241.36 137.61,241.28 137.58,241.19 C 137.55,241.10 137.54,241.01 137.56,240.91 C 137.58,240.81 137.62,240.70 137.69,240.59 C 137.75,240.48 137.84,240.37 137.95,240.25 C 138.07,240.13 138.20,240.01 138.36,239.88 C 138.52,239.74 138.70,239.61 138.91,239.47 C 139.11,239.33 139.33,239.18 139.59,239.03 C 139.85,238.88 140.14,238.73 140.46,238.57 C 140.78,238.41 141.13,238.25 141.51,238.09 C 141.89,237.92 142.30,237.75 142.73,237.58 C 143.17,237.40 143.64,237.23 144.14,237.05 C 144.64,236.87 145.17,236.68 145.73,236.49 C 146.29,236.30 146.87,236.11 147.49,235.91 C 148.11,235.72 148.76,235.52 149.44,235.31 C 150.12,235.11 150.79,234.90 151.56,234.69 C 152.34,234.48 153.17,234.26 154.08,234.05 C 154.98,233.83 155.95,233.61 156.98,233.39 C 158.02,233.17 159.12,232.95 160.28,232.72 C 161.45,232.49 162.67,232.26 163.97,232.03 C 165.26,231.80 166.62,231.57 168.05,231.33 C 169.47,231.09 170.96,230.85 172.52,230.61 C 174.07,230.37 175.69,230.12 177.38,229.88 C 179.06,229.63 180.85,229.37 182.62,229.12 C 184.40,228.88 186.21,228.65 188.05,228.42 C 189.88,228.20 191.75,227.98 193.64,227.77 C 195.53,227.55 197.46,227.35 199.41,227.16 C 201.36,226.96 203.34,226.77 205.34,226.59 C 207.35,226.41 209.39,226.24 211.45,226.08 C 213.52,225.91 215.61,225.76 217.73,225.61 C 219.86,225.46 222.01,225.32 224.19,225.19 C 226.37,225.05 228.71,224.93 230.81,224.81 C 232.91,224.69 234.90,224.58 236.78,224.47 C 238.66,224.36 240.43,224.26 242.09,224.16 C 243.76,224.06 245.31,223.96 246.75,223.88 C 248.19,223.79 249.53,223.70 250.75,223.62 C 251.97,223.55 253.09,223.47 254.09,223.41 C 255.10,223.34 255.99,223.28 256.78,223.22 C 257.57,223.16 258.24,223.11 258.81,223.06 C 259.38,223.02 259.76,222.97 260.19,222.94 C 260.61,222.90 261.01,222.88 261.37,222.87 C 261.73,222.85 262.06,222.85 262.35,222.85 C 262.65,222.86 262.91,222.87 263.14,222.89 C 263.37,222.91 263.57,222.94 263.73,222.98 C 263.90,223.02 264.03,223.07 264.13,223.13 C 264.23,223.19 264.30,223.26 264.34,223.34 C 264.37,223.41 264.37,223.50 264.34,223.59 C 264.31,223.69 264.20,223.80 264.16,223.91 C 264.11,224.01 264.09,224.11 264.08,224.20 C 264.07,224.30 264.08,224.39 264.11,224.48 C 264.14,224.58 264.18,224.66 264.25,224.75 C 264.32,224.84 264.40,224.92 264.50,225.00 C 264.60,225.08 264.72,225.16 264.86,225.23 C 265.00,225.31 265.15,225.38 265.33,225.45 C 265.50,225.52 265.70,225.59 265.91,225.66 C 266.12,225.72 266.26,225.79 266.59,225.84 C 266.92,225.90 267.35,225.96 267.88,226.01 C 268.41,226.06 269.04,226.11 269.77,226.15 C 270.50,226.19 271.33,226.23 272.27,226.27 C 273.20,226.30 274.23,226.33 275.36,226.36 C 276.49,226.39 277.72,226.41 279.05,226.43 C 280.39,226.45 281.82,226.46 283.35,226.48 C 284.88,226.49 286.52,226.50 288.25,226.50 C 289.98,226.50 291.91,226.49 293.75,226.50 C 295.59,226.51 297.42,226.52 299.27,226.55 C 301.11,226.57 302.95,226.60 304.80,226.64 C 306.64,226.68 308.49,226.73 310.34,226.78 C 312.20,226.84 314.05,226.90 315.91,226.97 C 317.76,227.04 319.62,227.12 321.48,227.20 C 323.35,227.29 325.21,227.38 327.08,227.48 C 328.95,227.59 330.82,227.70 332.69,227.81 C 334.56,227.93 336.51,228.06 338.31,228.19 C 340.11,228.31 341.84,228.44 343.49,228.57 C 345.14,228.70 346.72,228.83 348.23,228.96 C 349.73,229.09 351.16,229.23 352.52,229.36 C 353.87,229.49 355.15,229.63 356.36,229.77 C 357.57,229.90 358.70,230.04 359.76,230.18 C 360.82,230.32 361.80,230.46 362.71,230.60 C 363.62,230.74 364.46,230.89 365.22,231.03 C 365.98,231.18 366.64,231.32 367.28,231.47 C 367.92,231.61 368.52,231.76 369.06,231.91 C 369.61,232.05 370.11,232.20 370.56,232.34 C 371.02,232.49 371.42,232.64 371.78,232.78 C 372.14,232.93 372.45,233.07 372.72,233.22 C 372.98,233.36 373.20,233.51 373.38,233.66 C 373.55,233.80 373.67,233.95 373.75,234.09 C 373.83,234.24 373.86,234.39 373.84,234.53 C 373.83,234.68 373.75,234.82 373.66,234.97 C 373.56,235.12 373.44,235.26 373.29,235.41 C 373.14,235.56 372.95,235.71 372.74,235.87 C 372.53,236.02 372.29,236.17 372.02,236.33 C 371.74,236.48 371.44,236.64 371.11,236.80 C 370.78,236.95 370.42,237.11 370.02,237.27 C 369.63,237.43 369.21,237.60 368.76,237.76 C 368.31,237.92 367.82,238.08 367.31,238.25 C 366.80,238.42 366.31,238.59 365.69,238.75 C 365.07,238.91 364.36,239.06 363.58,239.20 C 362.79,239.35 361.93,239.48 360.98,239.61 C 360.04,239.74 359.01,239.86 357.91,239.97 C 356.80,240.08 355.61,240.18 354.34,240.28 C 353.08,240.38 351.73,240.47 350.30,240.55 C 348.87,240.63 347.36,240.70 345.77,240.77 C 344.17,240.83 342.50,240.89 340.75,240.94 C 339.00,240.99 336.99,241.02 335.25,241.06 C 333.51,241.11 331.86,241.16 330.30,241.21 C 328.75,241.26 327.29,241.32 325.91,241.38 C 324.54,241.44 323.26,241.51 322.08,241.58 C 320.89,241.65 319.80,241.72 318.80,241.80 C 317.80,241.87 316.89,241.95 316.07,242.04 C 315.25,242.12 314.53,242.21 313.90,242.30 C 313.27,242.40 312.73,242.49 312.28,242.59 C 311.83,242.69 311.54,242.79 311.22,242.91 C 310.89,243.02 310.60,243.15 310.34,243.29 C 310.07,243.43 309.84,243.58 309.63,243.74 C 309.43,243.90 309.25,244.08 309.11,244.27 C 308.96,244.45 308.85,244.65 308.77,244.86 C 308.68,245.07 308.63,245.29 308.60,245.52 C 308.58,245.76 308.58,246.00 308.62,246.26 C 308.65,246.51 308.72,246.78 308.81,247.06 C 308.91,247.34 309.07,247.64 309.19,247.94 C 309.30,248.23 309.41,248.54 309.52,248.84 C 309.62,249.15 309.71,249.46 309.80,249.78 C 309.88,250.10 309.96,250.42 310.03,250.75 C 310.10,251.08 310.16,251.41 310.22,251.75 C 310.27,252.09 310.32,252.43 310.36,252.78 C 310.40,253.13 310.43,253.48 310.45,253.84 C 310.48,254.20 310.49,254.57 310.50,254.94 C 310.51,255.31 310.51,255.70 310.50,256.06 C 310.49,256.43 310.48,256.79 310.45,257.14 C 310.43,257.49 310.40,257.84 310.36,258.17 C 310.32,258.51 310.27,258.84 310.22,259.16 C 310.16,259.48 310.10,259.79 310.03,260.09 C 309.96,260.40 309.88,260.70 309.80,260.98 C 309.71,261.27 309.62,261.55 309.52,261.83 C 309.41,262.10 309.30,262.37 309.19,262.62 C 309.07,262.88 308.93,263.13 308.81,263.38 C 308.70,263.62 308.60,263.85 308.51,264.07 C 308.42,264.29 308.34,264.51 308.27,264.71 C 308.21,264.92 308.15,265.11 308.11,265.30 C 308.07,265.48 308.04,265.66 308.02,265.83 C 308.00,266.00 307.99,266.15 307.99,266.30 C 308.00,266.45 308.01,266.60 308.04,266.73 C 308.07,266.86 308.11,266.98 308.16,267.09 C 308.21,267.21 308.15,267.30 308.34,267.41 C 308.53,267.51 308.85,267.61 309.29,267.71 C 309.73,267.81 310.30,267.91 310.99,268.01 C 311.69,268.11 312.51,268.20 313.45,268.30 C 314.40,268.39 315.47,268.49 316.67,268.58 C 317.87,268.67 319.20,268.76 320.65,268.85 C 322.10,268.94 323.68,269.03 325.38,269.12 C 327.09,269.20 328.92,269.29 330.88,269.38 C 332.83,269.46 335.14,269.54 337.12,269.62 C 339.11,269.71 341.01,269.81 342.81,269.91 C 344.61,270.01 346.32,270.11 347.94,270.22 C 349.55,270.33 351.07,270.44 352.50,270.56 C 353.93,270.68 355.26,270.81 356.50,270.94 C 357.74,271.07 358.89,271.20 359.94,271.34 C 360.99,271.48 361.95,271.63 362.81,271.78 C 363.68,271.93 364.45,272.09 365.12,272.25 C 365.80,272.41 366.32,272.59 366.88,272.75 C 367.43,272.91 367.95,273.07 368.45,273.23 C 368.94,273.38 369.40,273.53 369.84,273.68 C 370.27,273.83 370.67,273.97 371.05,274.11 C 371.42,274.25 371.76,274.38 372.08,274.52 C 372.39,274.65 372.68,274.77 372.93,274.90 C 373.18,275.02 373.41,275.14 373.60,275.26 C 373.80,275.37 373.96,275.49 374.09,275.59 C 374.23,275.70 374.31,275.80 374.41,275.91 C 374.50,276.01 374.58,276.11 374.66,276.22 C 374.73,276.32 374.79,276.43 374.84,276.53 C 374.90,276.64 374.94,276.74 374.97,276.84 C 375.00,276.95 375.02,277.05 375.03,277.16 C 375.04,277.26 375.04,277.36 375.03,277.47 C 375.02,277.57 375.00,277.68 374.97,277.78 C 374.94,277.89 374.90,277.99 374.84,278.09 C 374.79,278.20 374.87,278.30 374.66,278.41 C 374.44,278.52 374.07,278.63 373.54,278.76 C 373.01,278.88 372.33,279.01 371.49,279.15 C 370.65,279.29 369.66,279.43 368.52,279.58 C 367.37,279.73 366.07,279.88 364.61,280.05 C 363.15,280.21 361.54,280.38 359.77,280.55 C 358.01,280.73 356.08,280.91 354.01,281.10 C 351.93,281.29 349.70,281.49 347.31,281.69 C 344.93,281.89 342.18,282.11 339.69,282.31 C 337.19,282.51 334.74,282.70 332.34,282.88 C 329.94,283.05 327.59,283.22 325.28,283.38 C 322.97,283.53 320.71,283.68 318.50,283.81 C 316.29,283.95 314.12,284.07 312.00,284.19 C 309.88,284.30 307.81,284.41 305.78,284.50 C 303.76,284.59 301.78,284.68 299.84,284.75 C 297.91,284.82 296.03,284.89 294.19,284.94 C 292.35,284.99 290.67,285.03 288.81,285.06 C 286.95,285.10 285.03,285.13 283.03,285.16 C 281.04,285.18 278.97,285.20 276.84,285.22 C 274.71,285.23 272.52,285.24 270.25,285.25 C 267.98,285.26 265.65,285.26 263.25,285.25 C 260.85,285.24 258.38,285.23 255.84,285.22 C 253.31,285.20 250.70,285.18 248.03,285.16 C 245.36,285.13 242.62,285.10 239.81,285.06 Z" stroke="none" fill="currentColor" opacity="0.11" />
  <path d="M302.67,252.63L302.67,259.39 M302.83,252.61L302.83,259.41 M302.82,252.62L302.82,259.40 M300.86,267.72L300.87,267.99 M300.68,267.43L300.64,267.67 M300.68,244.59L300.64,244.35 M300.86,244.30L300.87,244.03 M303.45,252.59L303.45,259.43 M303.63,252.55L303.63,259.47 M303.60,252.59L303.60,259.42 M295.89,252.47L295.89,259.53 M297.38,252.47L297.38,259.54 M297.79,264.44L304.56,262.60 M297.38,259.89L297.38,252.11 M266.64,262.51L261.10,264.68 M266.64,262.52L261.11,264.68 M261.10,264.68L255.36,266.25 M266.66,262.56L261.12,264.72 M255.36,266.25L249.43,266.51 M261.11,264.68L255.37,266.25 M255.37,266.25L249.44,266.52 M261.12,264.72L255.38,266.30 M249.44,266.56L255.38,266.30 M266.69,262.62L261.14,264.78 M249.44,266.63L255.39,266.36 M261.14,264.78L255.39,266.36 M249.44,266.67L255.39,266.40 M266.70,262.66L261.15,264.83 M255.39,266.40L261.15,264.83 M249.44,266.67L255.39,266.40 M255.39,266.40L261.14,264.83 M261.14,264.83L266.70,262.65 M281.22,252.56L271.64,252.75 M271.76,259.13L281.01,258.94 M260.58,259.35L269.12,260.13 M269.12,260.13L260.39,259.33 M256.52,260.22L256.55,248.62 M267.32,258.42L275.00,258.50 M244.16,252.60L242.73,260.11 M242.73,260.11L244.34,251.65 M254.10,250.23L245.18,249.21 M245.18,249.21L253.24,250.11 M249.73,247.96L249.73,262.95 M248.51,262.95L248.51,247.96 M251.45,247.96L251.45,262.95 M250.23,262.95L250.23,247.96 M251.15,262.80L244.84,262.80 M255.12,262.80L244.84,262.80 M244.84,248.11L255.12,248.11 M255.12,248.11L245.48,248.11 M267.66,255.09L275.04,255.10 M267.66,254.94L275.06,254.94 M267.65,254.57L275.04,254.57 M275.01,254.85L267.65,254.85 M267.65,254.43L275.05,254.43 M266.79,260.34L276.45,260.34 M266.79,260.34L276.45,260.34 M254.86,253.34L254.65,253.34 M274.16,258.35L256.20,258.35 M267.54,258.35L261.51,258.35 M262.57,259.45L270.43,259.45 M254.86,259.37L254.65,259.37 M291.78,269.87L301.40,270.07 M283.50,280.53L272.71,281.07 M315.68,279.82L323.82,279.73 M315.68,279.76L323.82,279.67 M342.11,279.33L349.48,279.16 M342.12,279.39L349.49,279.22 M349.49,279.22L356.82,279.03 M349.55,281.69L356.86,281.13 M291.82,268.99L314.78,273.50 M314.78,273.50L330.41,274.78 M302.24,283.80L318.78,282.99 M318.78,282.99L333.80,281.89 M356.52,276.43L349.29,276.16 M349.29,276.16L342.08,275.81 M315.76,273.32L307.83,272.15 M354.91,272.24L348.08,271.94 M345.40,271.94L334.70,271.47 M348.08,271.94L337.22,271.55 M334.70,271.47L324.01,271.01 M337.22,271.55L326.36,271.16 M324.01,271.01L313.30,270.55 M323.95,272.02L313.26,271.56 M352.16,277.25L334.03,276.65 M352.16,277.25L371.09,277.62 M370.82,278.97L352.12,279.81 M262.81,234.16L256.61,234.32 M256.61,234.32L248.17,234.60 M262.81,234.41L256.61,234.57 M256.61,234.57L248.17,234.85 M315.76,238.68L307.83,239.85 M298.27,243.58L277.28,242.81 M301.63,241.45L309.44,241.12 M281.17,238.83L279.76,237.20 M323.82,232.28L315.69,232.18 M323.82,232.34L315.68,232.24 M315.77,227.98L323.91,228.42 M291.82,243.01L314.78,238.50 M314.78,238.50L330.41,237.22 M302.24,228.18L318.78,229.01 M318.78,229.01L333.80,230.11 M356.52,235.57L349.29,235.84 M349.29,235.84L342.08,236.19 M354.91,239.76L348.08,240.06 M352.11,234.76L371.05,234.39 M352.11,234.76L333.98,235.35 M370.78,233.03L352.08,232.20 M255.88,243.25L280.74,253.51 M280.74,253.51L260.97,245.36 M244.82,269.21L252.04,268.98 M268.99,263.20L260.91,266.50 M256.12,243.52L280.71,253.65 M280.71,253.65L260.91,245.51 M260.91,245.51L268.99,248.80 M252.04,243.02L244.82,242.79 M200.25,274.35L204.27,278.65 M200.53,238.53L204.41,234.28 M200.53,273.48L204.41,277.72 M216.89,228.45L224.46,228.66 M213.15,238.87L206.10,239.35 M206.10,239.35L197.41,239.93 M197.41,239.93L183.10,240.82 M180.45,235.48L176.08,239.12 M152.09,242.76L144.57,241.90 M152.09,242.76L160.39,243.07 M160.39,243.07L169.41,243.07 M169.41,243.07L177.70,242.89 M216.89,283.55L224.46,283.34 M213.15,273.13L206.10,272.65 M206.10,272.65L197.41,272.07 M197.41,272.07L183.10,271.18 M180.45,276.52L176.08,272.88 M152.10,269.24L144.58,270.10 M152.10,269.24L160.38,268.93 M160.38,268.93L169.41,268.93 M169.41,268.93L177.70,269.11 M236.04,248.37L203.93,247.48 M203.93,247.39L235.98,248.28 M203.91,247.42L235.75,248.30 M235.40,248.35L203.88,247.60 M203.88,247.51L235.34,248.26 M203.86,247.54L235.11,248.27 M234.79,248.32L203.77,247.60 M203.77,247.51L234.73,248.23 M203.75,247.54L234.50,248.24 M236.04,263.63L203.93,264.52 M203.93,264.61L235.98,263.72 M203.91,264.58L235.75,263.70 M235.40,263.65L203.88,264.40 M203.88,264.49L235.34,263.75 M203.86,264.46L235.11,263.73 M234.79,263.68L203.77,264.40 M203.77,264.49L234.73,263.78 M203.75,264.46L234.50,263.76 M236.19,280.51L242.80,279.38 M235.96,280.32L242.50,279.22 M242.80,279.38L250.03,276.88 M227.76,276.80L224.25,276.93 M236.19,231.49L242.80,232.62 M235.96,231.68L242.50,232.78 M242.80,232.62L250.03,235.11 M227.76,235.20L224.25,235.07 M220.95,251.73L221.41,260.11 M220.95,251.73L221.45,260.89 M227.60,253.29L234.05,253.29 M227.60,253.25L234.05,253.25 M237.75,258.41L238.72,258.41 M227.82,258.41L228.80,258.41" stroke="currentColor" stroke-width="0.6" stroke-linecap="round" fill="none" opacity="0.55" clip-path="url(#hull-clip)" filter="url(#glow)" />
  <path d="M 239.81,285.06 C 237.01,285.03 233.99,284.99 231.19,284.94 C 228.38,284.88 225.65,284.82 222.98,284.73 C 220.32,284.65 217.73,284.56 215.20,284.45 C 212.68,284.35 210.23,284.23 207.84,284.09 C 205.46,283.96 203.15,283.82 200.91,283.66 C 198.66,283.50 196.49,283.33 194.39,283.14 C 192.29,282.96 190.26,282.76 188.30,282.55 C 186.34,282.34 184.45,282.11 182.62,281.88 C 180.80,281.64 179.06,281.37 177.38,281.12 C 175.69,280.88 174.07,280.63 172.52,280.39 C 170.96,280.15 169.47,279.91 168.05,279.67 C 166.62,279.43 165.26,279.20 163.97,278.97 C 162.67,278.74 161.45,278.51 160.28,278.28 C 159.12,278.05 158.02,277.83 156.98,277.61 C 155.95,277.39 154.98,277.17 154.08,276.95 C 153.17,276.74 152.34,276.52 151.56,276.31 C 150.79,276.10 150.12,275.89 149.44,275.69 C 148.76,275.48 148.11,275.28 147.49,275.09 C 146.87,274.89 146.29,274.70 145.73,274.51 C 145.17,274.32 144.64,274.13 144.14,273.95 C 143.64,273.77 143.17,273.60 142.73,273.42 C 142.30,273.25 141.89,273.08 141.51,272.91 C 141.13,272.75 140.78,272.59 140.46,272.43 C 140.14,272.27 139.85,272.12 139.59,271.97 C 139.33,271.82 139.10,271.67 138.91,271.53 C 138.72,271.39 138.57,271.25 138.45,271.11 C 138.34,270.97 138.27,270.84 138.23,270.70 C 138.20,270.57 138.21,270.44 138.25,270.31 C 138.29,270.18 138.38,270.06 138.50,269.94 C 138.62,269.82 138.78,269.70 138.98,269.58 C 139.18,269.46 139.42,269.35 139.70,269.23 C 139.98,269.12 140.30,269.01 140.66,268.91 C 141.01,268.80 141.42,268.69 141.84,268.59 C 142.27,268.49 142.73,268.40 143.22,268.31 C 143.71,268.22 144.23,268.14 144.78,268.06 C 145.33,267.98 145.92,267.91 146.53,267.84 C 147.15,267.78 147.79,267.71 148.47,267.66 C 149.15,267.60 149.85,267.55 150.59,267.50 C 151.33,267.45 152.10,267.41 152.91,267.38 C 153.71,267.34 154.54,267.31 155.41,267.28 C 156.27,267.26 157.29,267.25 158.09,267.22 C 158.89,267.19 159.60,267.15 160.20,267.09 C 160.81,267.04 161.32,266.98 161.73,266.91 C 162.15,266.83 162.47,266.75 162.69,266.66 C 162.91,266.56 163.03,266.46 163.06,266.34 C 163.09,266.23 163.02,266.10 162.86,265.97 C 162.70,265.83 162.43,265.69 162.08,265.53 C 161.72,265.38 161.27,265.21 160.72,265.03 C 160.17,264.85 159.41,264.66 158.78,264.47 C 158.15,264.28 157.54,264.09 156.95,263.89 C 156.36,263.70 155.79,263.50 155.23,263.30 C 154.68,263.10 154.14,262.89 153.62,262.69 C 153.11,262.48 152.61,262.27 152.12,262.06 C 151.64,261.85 151.18,261.64 150.73,261.42 C 150.29,261.21 149.86,260.99 149.45,260.77 C 149.04,260.54 148.65,260.32 148.28,260.09 C 147.91,259.87 147.55,259.63 147.22,259.41 C 146.89,259.18 146.58,258.97 146.29,258.76 C 146.00,258.55 145.74,258.35 145.49,258.15 C 145.25,257.95 145.03,257.76 144.83,257.58 C 144.63,257.39 144.45,257.22 144.30,257.05 C 144.14,256.88 144.01,256.71 143.90,256.55 C 143.79,256.40 143.70,256.25 143.63,256.10 C 143.57,255.96 143.52,255.82 143.50,255.69 C 143.48,255.56 143.49,255.44 143.50,255.31 C 143.51,255.19 143.52,255.07 143.54,254.95 C 143.56,254.82 143.58,254.70 143.62,254.59 C 143.65,254.47 143.69,254.35 143.73,254.23 C 143.78,254.12 143.83,254.00 143.89,253.89 C 143.95,253.78 144.01,253.67 144.09,253.55 C 144.16,253.44 144.24,253.33 144.32,253.23 C 144.40,253.12 144.50,253.01 144.59,252.91 C 144.69,252.80 144.75,252.71 144.91,252.59 C 145.06,252.48 145.26,252.35 145.52,252.20 C 145.77,252.06 146.07,251.90 146.42,251.73 C 146.77,251.57 147.17,251.38 147.62,251.19 C 148.08,250.99 148.58,250.78 149.12,250.56 C 149.67,250.34 150.27,250.11 150.92,249.86 C 151.57,249.61 152.27,249.35 153.02,249.08 C 153.76,248.80 154.56,248.52 155.41,248.22 C 156.25,247.92 157.33,247.58 158.09,247.28 C 158.86,246.98 159.50,246.70 160.02,246.44 C 160.53,246.17 160.91,245.92 161.17,245.69 C 161.43,245.45 161.56,245.23 161.56,245.03 C 161.57,244.83 161.44,244.64 161.19,244.47 C 160.93,244.30 160.55,244.14 160.05,244.00 C 159.54,243.86 158.90,243.73 158.14,243.62 C 157.38,243.52 156.49,243.42 155.47,243.34 C 154.45,243.27 153.11,243.22 152.03,243.16 C 150.95,243.09 149.93,243.03 148.97,242.97 C 148.01,242.91 147.11,242.84 146.28,242.78 C 145.45,242.72 144.68,242.66 143.97,242.59 C 143.26,242.53 142.61,242.47 142.03,242.41 C 141.45,242.34 140.93,242.28 140.47,242.22 C 140.01,242.16 139.61,242.09 139.28,242.03 C 138.95,241.97 138.68,241.91 138.47,241.84 C 138.26,241.78 138.15,241.72 138.03,241.66 C 137.91,241.59 137.81,241.52 137.73,241.44 C 137.66,241.36 137.61,241.28 137.58,241.19 C 137.55,241.10 137.54,241.01 137.56,240.91 C 137.58,240.81 137.62,240.70 137.69,240.59 C 137.75,240.48 137.84,240.37 137.95,240.25 C 138.07,240.13 138.20,240.01 138.36,239.88 C 138.52,239.74 138.70,239.61 138.91,239.47 C 139.11,239.33 139.33,239.18 139.59,239.03 C 139.85,238.88 140.14,238.73 140.46,238.57 C 140.78,238.41 141.13,238.25 141.51,238.09 C 141.89,237.92 142.30,237.75 142.73,237.58 C 143.17,237.40 143.64,237.23 144.14,237.05 C 144.64,236.87 145.17,236.68 145.73,236.49 C 146.29,236.30 146.87,236.11 147.49,235.91 C 148.11,235.72 148.76,235.52 149.44,235.31 C 150.12,235.11 150.79,234.90 151.56,234.69 C 152.34,234.48 153.17,234.26 154.08,234.05 C 154.98,233.83 155.95,233.61 156.98,233.39 C 158.02,233.17 159.12,232.95 160.28,232.72 C 161.45,232.49 162.67,232.26 163.97,232.03 C 165.26,231.80 166.62,231.57 168.05,231.33 C 169.47,231.09 170.96,230.85 172.52,230.61 C 174.07,230.37 175.69,230.12 177.38,229.88 C 179.06,229.63 180.85,229.37 182.62,229.12 C 184.40,228.88 186.21,228.65 188.05,228.42 C 189.88,228.20 191.75,227.98 193.64,227.77 C 195.53,227.55 197.46,227.35 199.41,227.16 C 201.36,226.96 203.34,226.77 205.34,226.59 C 207.35,226.41 209.39,226.24 211.45,226.08 C 213.52,225.91 215.61,225.76 217.73,225.61 C 219.86,225.46 222.01,225.32 224.19,225.19 C 226.37,225.05 228.71,224.93 230.81,224.81 C 232.91,224.69 234.90,224.58 236.78,224.47 C 238.66,224.36 240.43,224.26 242.09,224.16 C 243.76,224.06 245.31,223.96 246.75,223.88 C 248.19,223.79 249.53,223.70 250.75,223.62 C 251.97,223.55 253.09,223.47 254.09,223.41 C 255.10,223.34 255.99,223.28 256.78,223.22 C 257.57,223.16 258.24,223.11 258.81,223.06 C 259.38,223.02 259.76,222.97 260.19,222.94 C 260.61,222.90 261.01,222.88 261.37,222.87 C 261.73,222.85 262.06,222.85 262.35,222.85 C 262.65,222.86 262.91,222.87 263.14,222.89 C 263.37,222.91 263.57,222.94 263.73,222.98 C 263.90,223.02 264.03,223.07 264.13,223.13 C 264.23,223.19 264.30,223.26 264.34,223.34 C 264.37,223.41 264.37,223.50 264.34,223.59 C 264.31,223.69 264.20,223.80 264.16,223.91 C 264.11,224.01 264.09,224.11 264.08,224.20 C 264.07,224.30 264.08,224.39 264.11,224.48 C 264.14,224.58 264.18,224.66 264.25,224.75 C 264.32,224.84 264.40,224.92 264.50,225.00 C 264.60,225.08 264.72,225.16 264.86,225.23 C 265.00,225.31 265.15,225.38 265.33,225.45 C 265.50,225.52 265.70,225.59 265.91,225.66 C 266.12,225.72 266.26,225.79 266.59,225.84 C 266.92,225.90 267.35,225.96 267.88,226.01 C 268.41,226.06 269.04,226.11 269.77,226.15 C 270.50,226.19 271.33,226.23 272.27,226.27 C 273.20,226.30 274.23,226.33 275.36,226.36 C 276.49,226.39 277.72,226.41 279.05,226.43 C 280.39,226.45 281.82,226.46 283.35,226.48 C 284.88,226.49 286.52,226.50 288.25,226.50 C 289.98,226.50 291.91,226.49 293.75,226.50 C 295.59,226.51 297.42,226.52 299.27,226.55 C 301.11,226.57 302.95,226.60 304.80,226.64 C 306.64,226.68 308.49,226.73 310.34,226.78 C 312.20,226.84 314.05,226.90 315.91,226.97 C 317.76,227.04 319.62,227.12 321.48,227.20 C 323.35,227.29 325.21,227.38 327.08,227.48 C 328.95,227.59 330.82,227.70 332.69,227.81 C 334.56,227.93 336.51,228.06 338.31,228.19 C 340.11,228.31 341.84,228.44 343.49,228.57 C 345.14,228.70 346.72,228.83 348.23,228.96 C 349.73,229.09 351.16,229.23 352.52,229.36 C 353.87,229.49 355.15,229.63 356.36,229.77 C 357.57,229.90 358.70,230.04 359.76,230.18 C 360.82,230.32 361.80,230.46 362.71,230.60 C 363.62,230.74 364.46,230.89 365.22,231.03 C 365.98,231.18 366.64,231.32 367.28,231.47 C 367.92,231.61 368.52,231.76 369.06,231.91 C 369.61,232.05 370.11,232.20 370.56,232.34 C 371.02,232.49 371.42,232.64 371.78,232.78 C 372.14,232.93 372.45,233.07 372.72,233.22 C 372.98,233.36 373.20,233.51 373.38,233.66 C 373.55,233.80 373.67,233.95 373.75,234.09 C 373.83,234.24 373.86,234.39 373.84,234.53 C 373.83,234.68 373.75,234.82 373.66,234.97 C 373.56,235.12 373.44,235.26 373.29,235.41 C 373.14,235.56 372.95,235.71 372.74,235.87 C 372.53,236.02 372.29,236.17 372.02,236.33 C 371.74,236.48 371.44,236.64 371.11,236.80 C 370.78,236.95 370.42,237.11 370.02,237.27 C 369.63,237.43 369.21,237.60 368.76,237.76 C 368.31,237.92 367.82,238.08 367.31,238.25 C 366.80,238.42 366.31,238.59 365.69,238.75 C 365.07,238.91 364.36,239.06 363.58,239.20 C 362.79,239.35 361.93,239.48 360.98,239.61 C 360.04,239.74 359.01,239.86 357.91,239.97 C 356.80,240.08 355.61,240.18 354.34,240.28 C 353.08,240.38 351.73,240.47 350.30,240.55 C 348.87,240.63 347.36,240.70 345.77,240.77 C 344.17,240.83 342.50,240.89 340.75,240.94 C 339.00,240.99 336.99,241.02 335.25,241.06 C 333.51,241.11 331.86,241.16 330.30,241.21 C 328.75,241.26 327.29,241.32 325.91,241.38 C 324.54,241.44 323.26,241.51 322.08,241.58 C 320.89,241.65 319.80,241.72 318.80,241.80 C 317.80,241.87 316.89,241.95 316.07,242.04 C 315.25,242.12 314.53,242.21 313.90,242.30 C 313.27,242.40 312.73,242.49 312.28,242.59 C 311.83,242.69 311.54,242.79 311.22,242.91 C 310.89,243.02 310.60,243.15 310.34,243.29 C 310.07,243.43 309.84,243.58 309.63,243.74 C 309.43,243.90 309.25,244.08 309.11,244.27 C 308.96,244.45 308.85,244.65 308.77,244.86 C 308.68,245.07 308.63,245.29 308.60,245.52 C 308.58,245.76 308.58,246.00 308.62,246.26 C 308.65,246.51 308.72,246.78 308.81,247.06 C 308.91,247.34 309.07,247.64 309.19,247.94 C 309.30,248.23 309.41,248.54 309.52,248.84 C 309.62,249.15 309.71,249.46 309.80,249.78 C 309.88,250.10 309.96,250.42 310.03,250.75 C 310.10,251.08 310.16,251.41 310.22,251.75 C 310.27,252.09 310.32,252.43 310.36,252.78 C 310.40,253.13 310.43,253.48 310.45,253.84 C 310.48,254.20 310.49,254.57 310.50,254.94 C 310.51,255.31 310.51,255.70 310.50,256.06 C 310.49,256.43 310.48,256.79 310.45,257.14 C 310.43,257.49 310.40,257.84 310.36,258.17 C 310.32,258.51 310.27,258.84 310.22,259.16 C 310.16,259.48 310.10,259.79 310.03,260.09 C 309.96,260.40 309.88,260.70 309.80,260.98 C 309.71,261.27 309.62,261.55 309.52,261.83 C 309.41,262.10 309.30,262.37 309.19,262.62 C 309.07,262.88 308.93,263.13 308.81,263.38 C 308.70,263.62 308.60,263.85 308.51,264.07 C 308.42,264.29 308.34,264.51 308.27,264.71 C 308.21,264.92 308.15,265.11 308.11,265.30 C 308.07,265.48 308.04,265.66 308.02,265.83 C 308.00,266.00 307.99,266.15 307.99,266.30 C 308.00,266.45 308.01,266.60 308.04,266.73 C 308.07,266.86 308.11,266.98 308.16,267.09 C 308.21,267.21 308.15,267.30 308.34,267.41 C 308.53,267.51 308.85,267.61 309.29,267.71 C 309.73,267.81 310.30,267.91 310.99,268.01 C 311.69,268.11 312.51,268.20 313.45,268.30 C 314.40,268.39 315.47,268.49 316.67,268.58 C 317.87,268.67 319.20,268.76 320.65,268.85 C 322.10,268.94 323.68,269.03 325.38,269.12 C 327.09,269.20 328.92,269.29 330.88,269.38 C 332.83,269.46 335.14,269.54 337.12,269.62 C 339.11,269.71 341.01,269.81 342.81,269.91 C 344.61,270.01 346.32,270.11 347.94,270.22 C 349.55,270.33 351.07,270.44 352.50,270.56 C 353.93,270.68 355.26,270.81 356.50,270.94 C 357.74,271.07 358.89,271.20 359.94,271.34 C 360.99,271.48 361.95,271.63 362.81,271.78 C 363.68,271.93 364.45,272.09 365.12,272.25 C 365.80,272.41 366.32,272.59 366.88,272.75 C 367.43,272.91 367.95,273.07 368.45,273.23 C 368.94,273.38 369.40,273.53 369.84,273.68 C 370.27,273.83 370.67,273.97 371.05,274.11 C 371.42,274.25 371.76,274.38 372.08,274.52 C 372.39,274.65 372.68,274.77 372.93,274.90 C 373.18,275.02 373.41,275.14 373.60,275.26 C 373.80,275.37 373.96,275.49 374.09,275.59 C 374.23,275.70 374.31,275.80 374.41,275.91 C 374.50,276.01 374.58,276.11 374.66,276.22 C 374.73,276.32 374.79,276.43 374.84,276.53 C 374.90,276.64 374.94,276.74 374.97,276.84 C 375.00,276.95 375.02,277.05 375.03,277.16 C 375.04,277.26 375.04,277.36 375.03,277.47 C 375.02,277.57 375.00,277.68 374.97,277.78 C 374.94,277.89 374.90,277.99 374.84,278.09 C 374.79,278.20 374.87,278.30 374.66,278.41 C 374.44,278.52 374.07,278.63 373.54,278.76 C 373.01,278.88 372.33,279.01 371.49,279.15 C 370.65,279.29 369.66,279.43 368.52,279.58 C 367.37,279.73 366.07,279.88 364.61,280.05 C 363.15,280.21 361.54,280.38 359.77,280.55 C 358.01,280.73 356.08,280.91 354.01,281.10 C 351.93,281.29 349.70,281.49 347.31,281.69 C 344.93,281.89 342.18,282.11 339.69,282.31 C 337.19,282.51 334.74,282.70 332.34,282.88 C 329.94,283.05 327.59,283.22 325.28,283.38 C 322.97,283.53 320.71,283.68 318.50,283.81 C 316.29,283.95 314.12,284.07 312.00,284.19 C 309.88,284.30 307.81,284.41 305.78,284.50 C 303.76,284.59 301.78,284.68 299.84,284.75 C 297.91,284.82 296.03,284.89 294.19,284.94 C 292.35,284.99 290.67,285.03 288.81,285.06 C 286.95,285.10 285.03,285.13 283.03,285.16 C 281.04,285.18 278.97,285.20 276.84,285.22 C 274.71,285.23 272.52,285.24 270.25,285.25 C 267.98,285.26 265.65,285.26 263.25,285.25 C 260.85,285.24 258.38,285.23 255.84,285.22 C 253.31,285.20 250.70,285.18 248.03,285.16 C 245.36,285.13 242.62,285.10 239.81,285.06 Z" fill="none" stroke="currentColor" stroke-width="1.5" stroke-linejoin="round" stroke-linecap="round" filter="url(#glow)" />
</svg>