<svg xmlns="http://www.w3.org/2000/svg" width="512" height="512" viewBox="120.81 176.37 264.69 157.52" preserveAspectRatio="xMidYMid meet">
  <defs>
    <filter id="glow" x="-30%" y="-30%" width="160%" height="160%">
      <feGaussianBlur in="SourceGraphic" stdDeviation="2.4" result="blur" />
      <feMerge>
        <feMergeNode in="blur" />
        <feMergeNode in="SourceGraphic" />
      </feMerge>
    </filter>
    <clipPath id="hull-clip">
      <path d="M 333.50,320.62 C 331.93,320.56 330.06,320.46 328.50,320.38 C 326.94,320.29 325.48,320.19 324.12,320.09 C 322.77,319.99 321.52,319.89 320.38,319.78 C 319.23,319.67 318.19,319.56 317.25,319.44 C 316.31,319.32 315.48,319.19 314.75,319.06 C 314.02,318.93 313.40,318.80 312.88,318.66 C 312.35,318.52 311.94,318.37 311.62,318.22 C 311.31,318.07 311.10,317.91 311.00,317.75 C 310.90,317.59 310.98,317.41 311.00,317.25 C 311.02,317.09 311.07,316.94 311.13,316.80 C 311.20,316.67 311.29,316.54 311.40,316.41 C 311.51,316.29 311.64,316.18 311.80,316.08 C 311.95,315.98 312.13,315.88 312.33,315.80 C 312.53,315.71 312.75,315.64 312.99,315.57 C 313.24,315.50 313.50,315.45 313.79,315.40 C 314.08,315.35 314.39,315.31 314.72,315.28 C 315.05,315.25 315.47,315.25 315.78,315.22 C 316.09,315.19 316.35,315.15 316.56,315.09 C 316.78,315.04 316.94,314.98 317.06,314.91 C 317.18,314.83 317.26,314.75 317.28,314.66 C 317.31,314.56 317.29,314.46 317.22,314.34 C 317.15,314.23 317.04,314.10 316.88,313.97 C 316.71,313.83 316.51,313.69 316.25,313.53 C 315.99,313.38 315.69,313.21 315.34,313.03 C 314.99,312.85 314.54,312.65 314.16,312.47 C 313.77,312.28 313.41,312.10 313.05,311.91 C 312.70,311.73 312.36,311.55 312.04,311.37 C 311.71,311.19 311.40,311.01 311.11,310.83 C 310.81,310.65 310.53,310.47 310.27,310.30 C 310.00,310.12 309.75,309.95 309.51,309.77 C 309.27,309.60 309.05,309.43 308.84,309.26 C 308.63,309.09 308.43,308.92 308.25,308.75 C 308.07,308.58 308.02,308.43 307.75,308.25 C 307.48,308.07 307.10,307.86 306.62,307.64 C 306.15,307.42 305.56,307.18 304.88,306.92 C 304.19,306.66 303.40,306.39 302.50,306.09 C 301.60,305.80 300.60,305.49 299.50,305.16 C 298.40,304.83 297.19,304.48 295.88,304.11 C 294.56,303.74 293.15,303.36 291.62,302.95 C 290.10,302.55 288.48,302.13 286.75,301.69 C 285.02,301.25 283.01,300.74 281.25,300.31 C 279.49,299.88 277.79,299.47 276.17,299.09 C 274.55,298.71 273.00,298.36 271.52,298.03 C 270.03,297.70 268.62,297.40 267.28,297.12 C 265.94,296.85 264.67,296.60 263.47,296.38 C 262.27,296.15 261.14,295.95 260.08,295.78 C 259.02,295.61 258.03,295.46 257.11,295.34 C 256.19,295.22 255.34,295.13 254.56,295.06 C 253.78,294.99 253.15,294.99 252.44,294.94 C 251.73,294.89 251.01,294.82 250.30,294.75 C 249.58,294.68 248.86,294.59 248.14,294.50 C 247.42,294.41 246.70,294.30 245.97,294.19 C 245.24,294.07 244.51,293.95 243.78,293.81 C 243.05,293.68 242.32,293.53 241.58,293.38 C 240.84,293.22 240.10,293.05 239.36,292.88 C 238.62,292.70 237.87,292.51 237.12,292.31 C 236.38,292.11 235.60,291.88 234.88,291.69 C 234.15,291.49 233.46,291.31 232.80,291.14 C 232.13,290.97 231.50,290.82 230.89,290.67 C 230.28,290.53 229.71,290.40 229.16,290.28 C 228.61,290.16 228.09,290.06 227.59,289.97 C 227.10,289.88 226.64,289.80 226.20,289.73 C 225.77,289.67 225.36,289.62 224.98,289.58 C 224.61,289.54 224.26,289.51 223.94,289.50 C 223.62,289.49 223.35,289.51 223.06,289.50 C 222.77,289.49 222.48,289.48 222.19,289.45 C 221.90,289.43 221.60,289.40 221.31,289.36 C 221.02,289.32 220.73,289.27 220.44,289.22 C 220.15,289.16 219.85,289.10 219.56,289.03 C 219.27,288.96 218.98,288.88 218.69,288.80 C 218.40,288.71 218.10,288.62 217.81,288.52 C 217.52,288.41 217.23,288.30 216.94,288.19 C 216.65,288.07 216.35,287.93 216.06,287.81 C 215.78,287.70 215.50,287.59 215.23,287.50 C 214.97,287.41 214.71,287.32 214.45,287.25 C 214.20,287.18 213.96,287.11 213.72,287.06 C 213.48,287.01 213.25,286.97 213.03,286.94 C 212.81,286.91 212.60,286.89 212.39,286.88 C 212.18,286.86 211.99,286.86 211.80,286.88 C 211.61,286.89 211.42,286.91 211.25,286.94 C 211.08,286.97 210.95,287.06 210.75,287.06 C 210.55,287.07 210.33,287.03 210.08,286.95 C 209.83,286.88 209.54,286.76 209.23,286.61 C 208.92,286.46 208.59,286.26 208.22,286.03 C 207.85,285.80 207.46,285.53 207.03,285.22 C 206.61,284.91 206.15,284.56 205.67,284.17 C 205.19,283.78 204.68,283.36 204.14,282.89 C 203.60,282.42 203.03,281.92 202.44,281.38 C 201.84,280.83 201.16,280.17 200.56,279.62 C 199.97,279.08 199.41,278.57 198.88,278.09 C 198.34,277.62 197.84,277.18 197.38,276.78 C 196.91,276.38 196.47,276.02 196.06,275.69 C 195.66,275.36 195.28,275.07 194.94,274.81 C 194.59,274.56 194.28,274.34 194.00,274.16 C 193.72,273.97 193.47,273.83 193.25,273.72 C 193.03,273.61 192.84,273.54 192.69,273.50 C 192.53,273.46 192.44,273.51 192.31,273.50 C 192.18,273.49 192.05,273.47 191.91,273.44 C 191.77,273.41 191.62,273.36 191.47,273.31 C 191.32,273.26 191.16,273.20 191.00,273.12 C 190.84,273.05 190.67,272.97 190.50,272.88 C 190.33,272.78 190.15,272.68 189.97,272.56 C 189.79,272.45 189.60,272.32 189.41,272.19 C 189.21,272.05 189.02,271.91 188.81,271.75 C 188.61,271.59 188.47,271.42 188.19,271.25 C 187.90,271.08 187.54,270.90 187.09,270.72 C 186.65,270.54 186.13,270.35 185.53,270.16 C 184.93,269.96 184.26,269.77 183.50,269.56 C 182.74,269.36 181.91,269.15 181.00,268.94 C 180.09,268.72 179.10,268.51 178.03,268.28 C 176.96,268.06 175.82,267.83 174.59,267.59 C 173.37,267.36 172.07,267.12 170.69,266.88 C 169.31,266.63 167.73,266.38 166.31,266.12 C 164.90,265.87 163.52,265.61 162.20,265.35 C 160.87,265.09 159.58,264.82 158.34,264.55 C 157.09,264.29 155.89,264.01 154.73,263.73 C 153.58,263.46 152.46,263.18 151.39,262.89 C 150.32,262.61 149.29,262.32 148.30,262.02 C 147.32,261.73 146.38,261.43 145.48,261.13 C 144.58,260.83 143.72,260.53 142.91,260.22 C 142.09,259.91 141.31,259.58 140.59,259.28 C 139.88,258.98 139.22,258.69 138.62,258.41 C 138.03,258.12 137.48,257.85 137.00,257.59 C 136.52,257.33 136.09,257.08 135.72,256.84 C 135.35,256.60 135.04,256.38 134.78,256.16 C 134.53,255.94 134.33,255.73 134.19,255.53 C 134.05,255.33 133.96,255.15 133.94,254.97 C 133.91,254.79 133.94,254.62 134.03,254.47 C 134.12,254.31 134.29,254.18 134.47,254.03 C 134.64,253.88 134.85,253.73 135.09,253.57 C 135.32,253.41 135.59,253.25 135.88,253.09 C 136.18,252.92 136.50,252.75 136.86,252.58 C 137.21,252.40 137.60,252.23 138.02,252.05 C 138.43,251.87 138.88,251.68 139.35,251.49 C 139.83,251.30 140.33,251.11 140.87,250.91 C 141.40,250.72 141.97,250.52 142.56,250.31 C 143.16,250.11 143.78,249.89 144.44,249.69 C 145.10,249.48 145.79,249.28 146.52,249.08 C 147.24,248.88 148.00,248.68 148.80,248.48 C 149.59,248.29 150.42,248.10 151.28,247.91 C 152.14,247.72 153.04,247.53 153.97,247.34 C 154.90,247.16 155.86,246.98 156.86,246.80 C 157.86,246.62 158.89,246.44 159.95,246.27 C 161.02,246.09 162.12,245.92 163.25,245.75 C 164.38,245.58 165.62,245.42 166.75,245.25 C 167.88,245.08 168.97,244.92 170.02,244.75 C 171.07,244.58 172.08,244.42 173.05,244.25 C 174.02,244.08 174.95,243.92 175.84,243.75 C 176.74,243.58 177.59,243.42 178.41,243.25 C 179.22,243.08 180.00,242.92 180.73,242.75 C 181.47,242.58 182.17,242.42 182.83,242.25 C 183.49,242.08 184.11,241.92 184.69,241.75 C 185.27,241.58 185.76,241.45 186.31,241.25 C 186.87,241.05 187.43,240.83 188.02,240.58 C 188.60,240.33 189.19,240.04 189.80,239.73 C 190.40,239.42 191.02,239.09 191.66,238.72 C 192.29,238.35 192.93,237.96 193.59,237.53 C 194.25,237.11 194.92,236.65 195.61,236.17 C 196.29,235.69 196.99,235.18 197.70,234.64 C 198.41,234.10 199.14,233.53 199.88,232.94 C 200.61,232.34 201.33,231.67 202.12,231.06 C 202.92,230.46 203.76,229.87 204.64,229.30 C 205.52,228.73 206.45,228.17 207.42,227.64 C 208.39,227.11 209.41,226.59 210.47,226.09 C 211.53,225.60 212.63,225.12 213.78,224.66 C 214.93,224.20 216.12,223.75 217.36,223.33 C 218.60,222.90 219.88,222.50 221.20,222.11 C 222.53,221.72 223.90,221.35 225.31,221.00 C 226.73,220.65 228.28,220.32 229.69,220.00 C 231.10,219.68 232.46,219.39 233.78,219.11 C 235.10,218.83 236.37,218.57 237.59,218.33 C 238.82,218.09 239.99,217.86 241.12,217.66 C 242.26,217.45 243.34,217.26 244.38,217.09 C 245.41,216.92 246.40,216.77 247.34,216.64 C 248.29,216.51 249.18,216.39 250.03,216.30 C 250.88,216.20 251.68,216.12 252.44,216.06 C 253.19,216.00 253.85,215.99 254.56,215.94 C 255.28,215.89 255.99,215.82 256.72,215.75 C 257.44,215.68 258.17,215.59 258.91,215.50 C 259.64,215.41 260.38,215.30 261.12,215.19 C 261.87,215.07 262.62,214.95 263.38,214.81 C 264.13,214.68 264.89,214.53 265.66,214.38 C 266.42,214.22 267.19,214.05 267.97,213.88 C 268.74,213.70 269.53,213.51 270.31,213.31 C 271.10,213.11 271.88,212.90 272.69,212.69 C 273.49,212.48 274.32,212.26 275.16,212.05 C 275.99,211.83 276.85,211.61 277.72,211.39 C 278.59,211.17 279.47,210.95 280.38,210.72 C 281.28,210.49 282.19,210.26 283.12,210.03 C 284.06,209.80 285.01,209.57 285.97,209.33 C 286.93,209.09 287.91,208.85 288.91,208.61 C 289.90,208.37 290.91,208.12 291.94,207.88 C 292.96,207.63 294.08,207.37 295.06,207.12 C 296.05,206.88 296.98,206.64 297.86,206.41 C 298.74,206.17 299.56,205.94 300.33,205.72 C 301.10,205.49 301.81,205.28 302.47,205.06 C 303.13,204.85 303.73,204.64 304.28,204.44 C 304.83,204.23 305.33,204.04 305.77,203.84 C 306.21,203.65 306.59,203.46 306.92,203.28 C 307.25,203.10 307.53,202.92 307.75,202.75 C 307.97,202.58 308.07,202.41 308.25,202.25 C 308.43,202.09 308.61,201.92 308.81,201.77 C 309.01,201.61 309.22,201.45 309.44,201.30 C 309.66,201.14 309.89,200.99 310.12,200.84 C 310.36,200.70 310.61,200.55 310.88,200.41 C 311.14,200.26 311.41,200.12 311.69,199.98 C 311.97,199.85 312.26,199.71 312.56,199.58 C 312.86,199.45 313.18,199.32 313.50,199.19 C 313.82,199.06 314.19,198.93 314.50,198.81 C 314.81,198.69 315.10,198.57 315.38,198.45 C 315.65,198.34 315.90,198.22 316.12,198.11 C 316.35,198.00 316.56,197.89 316.75,197.78 C 316.94,197.67 317.10,197.57 317.25,197.47 C 317.40,197.37 317.52,197.27 317.62,197.17 C 317.73,197.08 317.81,196.98 317.88,196.89 C 317.94,196.80 317.98,196.71 318.00,196.62 C 318.02,196.54 318.02,196.45 318.00,196.38 C 317.98,196.30 317.95,196.23 317.89,196.17 C 317.84,196.11 317.76,196.06 317.67,196.02 C 317.58,195.97 317.47,195.93 317.34,195.91 C 317.22,195.88 317.07,195.86 316.91,195.84 C 316.74,195.83 316.56,195.83 316.36,195.83 C 316.16,195.83 315.94,195.84 315.70,195.86 C 315.47,195.88 315.21,195.90 314.94,195.94 C 314.66,195.97 314.33,196.04 314.06,196.06 C 313.79,196.09 313.54,196.10 313.31,196.09 C 313.08,196.09 312.88,196.07 312.69,196.03 C 312.50,195.99 312.33,195.94 312.19,195.88 C 312.04,195.81 311.92,195.72 311.81,195.62 C 311.71,195.53 311.62,195.41 311.56,195.28 C 311.50,195.15 311.46,195.01 311.44,194.84 C 311.42,194.68 311.42,194.51 311.44,194.31 C 311.46,194.12 311.51,193.88 311.56,193.69 C 311.61,193.49 311.68,193.32 311.75,193.16 C 311.82,192.99 311.91,192.85 312.00,192.72 C 312.09,192.59 312.20,192.47 312.31,192.38 C 312.43,192.28 312.55,192.19 312.69,192.12 C 312.82,192.06 312.97,192.01 313.12,191.97 C 313.28,191.93 313.45,191.91 313.62,191.91 C 313.80,191.90 313.99,191.91 314.19,191.94 C 314.39,191.96 314.59,192.03 314.81,192.06 C 315.03,192.10 315.26,192.12 315.50,192.14 C 315.74,192.16 315.99,192.17 316.25,192.17 C 316.51,192.17 316.78,192.17 317.06,192.16 C 317.34,192.14 317.64,192.12 317.94,192.09 C 318.24,192.07 318.55,192.03 318.88,191.98 C 319.20,191.94 319.53,191.89 319.88,191.83 C 320.22,191.77 320.57,191.70 320.94,191.62 C 321.30,191.55 321.69,191.45 322.06,191.38 C 322.43,191.30 322.80,191.23 323.17,191.17 C 323.54,191.11 323.90,191.06 324.27,191.02 C 324.63,190.97 324.99,190.93 325.34,190.91 C 325.70,190.88 326.05,190.86 326.41,190.84 C 326.76,190.83 327.11,190.83 327.45,190.83 C 327.80,190.83 328.14,190.84 328.48,190.86 C 328.83,190.88 329.16,190.90 329.50,190.94 C 329.84,190.97 330.17,191.03 330.50,191.06 C 330.83,191.10 331.15,191.12 331.47,191.14 C 331.79,191.16 332.10,191.17 332.41,191.17 C 332.71,191.17 333.02,191.17 333.31,191.16 C 333.61,191.14 333.90,191.12 334.19,191.09 C 334.47,191.07 334.76,191.03 335.03,190.98 C 335.31,190.94 335.58,190.89 335.84,190.83 C 336.11,190.77 336.37,190.70 336.62,190.62 C 336.88,190.55 337.11,190.45 337.38,190.38 C 337.64,190.30 337.91,190.22 338.20,190.16 C 338.49,190.09 338.79,190.03 339.11,189.97 C 339.42,189.91 339.75,189.86 340.09,189.81 C 340.43,189.77 340.79,189.72 341.16,189.69 C 341.52,189.65 341.90,189.62 342.30,189.59 C 342.69,189.57 343.10,189.55 343.52,189.53 C 343.93,189.52 344.37,189.51 344.81,189.50 C 345.26,189.49 345.75,189.49 346.19,189.50 C 346.62,189.51 347.04,189.53 347.43,189.55 C 347.82,189.58 348.19,189.62 348.54,189.66 C 348.89,189.71 349.21,189.76 349.52,189.83 C 349.82,189.89 350.10,189.96 350.36,190.05 C 350.62,190.13 350.86,190.22 351.07,190.32 C 351.29,190.42 351.48,190.53 351.65,190.65 C 351.82,190.77 351.97,190.89 352.09,191.03 C 352.22,191.17 352.31,191.32 352.41,191.47 C 352.50,191.62 352.58,191.76 352.65,191.91 C 352.72,192.06 352.77,192.21 352.82,192.37 C 352.87,192.52 352.90,192.67 352.92,192.83 C 352.94,192.98 352.95,193.14 352.95,193.30 C 352.95,193.45 352.94,193.61 352.91,193.77 C 352.89,193.93 352.85,194.10 352.80,194.26 C 352.76,194.42 352.70,194.58 352.62,194.75 C 352.55,194.92 352.44,195.09 352.38,195.25 C 352.31,195.41 352.27,195.57 352.24,195.73 C 352.22,195.88 352.21,196.03 352.23,196.18 C 352.24,196.33 352.27,196.47 352.33,196.61 C 352.38,196.75 352.45,196.88 352.55,197.02 C 352.64,197.15 352.75,197.27 352.88,197.40 C 353.01,197.52 353.17,197.64 353.34,197.76 C 353.51,197.87 353.70,197.99 353.91,198.09 C 354.12,198.20 354.34,198.27 354.59,198.41 C 354.84,198.55 355.11,198.72 355.41,198.94 C 355.70,199.15 356.01,199.40 356.34,199.69 C 356.68,199.97 357.03,200.30 357.41,200.66 C 357.78,201.02 358.18,201.41 358.59,201.84 C 359.01,202.28 359.45,202.74 359.91,203.25 C 360.36,203.76 360.84,204.30 361.34,204.88 C 361.84,205.45 362.36,206.07 362.91,206.72 C 363.45,207.37 364.07,208.12 364.59,208.78 C 365.12,209.44 365.60,210.07 366.04,210.68 C 366.48,211.29 366.88,211.86 367.24,212.41 C 367.60,212.96 367.92,213.49 368.20,213.98 C 368.48,214.48 368.72,214.95 368.92,215.39 C 369.12,215.83 369.28,216.25 369.40,216.63 C 369.52,217.02 369.60,217.38 369.63,217.71 C 369.67,218.04 369.67,218.35 369.62,218.62 C 369.58,218.90 369.46,219.14 369.38,219.38 C 369.29,219.61 369.20,219.83 369.10,220.04 C 369.01,220.25 368.91,220.44 368.80,220.62 C 368.70,220.80 368.60,220.96 368.48,221.11 C 368.37,221.26 368.26,221.39 368.14,221.52 C 368.02,221.64 367.90,221.74 367.77,221.84 C 367.65,221.93 367.52,222.01 367.38,222.07 C 367.25,222.13 367.11,222.18 366.97,222.22 C 366.83,222.25 366.70,222.27 366.53,222.28 C 366.36,222.29 366.17,222.30 365.96,222.29 C 365.75,222.28 365.51,222.27 365.26,222.24 C 365.00,222.22 364.72,222.18 364.42,222.14 C 364.12,222.10 363.80,222.05 363.45,221.98 C 363.11,221.92 362.74,221.85 362.35,221.77 C 361.96,221.69 361.55,221.61 361.12,221.51 C 360.68,221.41 360.23,221.30 359.75,221.19 C 359.27,221.07 358.74,220.95 358.25,220.81 C 357.76,220.67 357.29,220.52 356.83,220.34 C 356.37,220.17 355.92,219.98 355.48,219.78 C 355.05,219.58 354.63,219.36 354.22,219.12 C 353.81,218.89 353.41,218.64 353.03,218.38 C 352.65,218.11 352.28,217.83 351.92,217.53 C 351.57,217.23 351.22,216.92 350.89,216.59 C 350.56,216.27 350.24,215.92 349.94,215.56 C 349.63,215.20 349.34,214.78 349.06,214.44 C 348.78,214.10 348.51,213.79 348.26,213.51 C 348.00,213.23 347.76,212.99 347.52,212.77 C 347.29,212.56 347.07,212.38 346.86,212.23 C 346.65,212.09 346.45,211.97 346.27,211.89 C 346.08,211.81 345.90,211.76 345.74,211.74 C 345.58,211.73 345.43,211.74 345.29,211.79 C 345.15,211.84 345.02,211.92 344.91,212.03 C 344.79,212.14 344.66,212.29 344.59,212.47 C 344.53,212.64 344.50,212.85 344.52,213.08 C 344.53,213.31 344.58,213.57 344.67,213.86 C 344.76,214.15 344.89,214.47 345.06,214.81 C 345.23,215.16 345.44,215.53 345.69,215.94 C 345.93,216.34 346.22,216.77 346.55,217.23 C 346.87,217.70 347.24,218.18 347.64,218.70 C 348.04,219.22 348.49,219.77 348.97,220.34 C 349.45,220.92 350.01,221.58 350.53,222.16 C 351.05,222.73 351.58,223.28 352.10,223.80 C 352.63,224.33 353.15,224.82 353.68,225.29 C 354.21,225.76 354.74,226.20 355.27,226.61 C 355.80,227.02 356.33,227.41 356.86,227.77 C 357.39,228.12 357.93,228.45 358.46,228.76 C 359.00,229.06 359.53,229.34 360.07,229.59 C 360.61,229.83 361.15,230.06 361.69,230.25 C 362.23,230.44 362.79,230.58 363.31,230.75 C 363.83,230.92 364.33,231.10 364.80,231.29 C 365.28,231.48 365.73,231.67 366.16,231.87 C 366.60,232.07 367.00,232.27 367.39,232.48 C 367.78,232.70 368.14,232.92 368.48,233.14 C 368.83,233.37 369.15,233.60 369.45,233.84 C 369.74,234.07 370.02,234.32 370.27,234.57 C 370.53,234.82 370.76,235.08 370.97,235.34 C 371.18,235.61 371.37,235.89 371.53,236.16 C 371.70,236.43 371.84,236.70 371.95,236.97 C 372.07,237.24 372.16,237.51 372.23,237.78 C 372.30,238.05 372.35,238.32 372.38,238.59 C 372.40,238.86 372.40,239.14 372.38,239.41 C 372.35,239.68 372.30,239.95 372.23,240.22 C 372.16,240.49 372.07,240.76 371.95,241.03 C 371.84,241.30 371.70,241.57 371.53,241.84 C 371.37,242.11 371.17,242.40 370.97,242.66 C 370.76,242.91 370.54,243.15 370.30,243.38 C 370.07,243.61 369.81,243.82 369.54,244.02 C 369.27,244.22 368.98,244.41 368.67,244.58 C 368.37,244.75 368.04,244.90 367.70,245.05 C 367.36,245.19 367.01,245.32 366.63,245.43 C 366.26,245.54 365.87,245.64 365.46,245.73 C 365.05,245.81 364.63,245.88 364.19,245.94 C 363.75,245.99 363.26,246.02 362.81,246.06 C 362.36,246.11 361.93,246.16 361.50,246.22 C 361.07,246.28 360.66,246.34 360.25,246.41 C 359.84,246.47 359.45,246.55 359.06,246.62 C 358.68,246.70 358.30,246.79 357.94,246.88 C 357.57,246.96 357.22,247.06 356.88,247.16 C 356.53,247.26 356.20,247.36 355.88,247.47 C 355.55,247.58 355.24,247.69 354.94,247.81 C 354.64,247.93 354.34,248.06 354.06,248.19 C 353.78,248.31 353.51,248.44 353.26,248.57 C 353.00,248.70 352.76,248.83 352.52,248.96 C 352.29,249.09 352.07,249.23 351.86,249.36 C 351.65,249.49 351.45,249.63 351.27,249.77 C 351.08,249.90 350.90,250.04 350.74,250.18 C 350.58,250.32 350.43,250.46 350.29,250.60 C 350.15,250.74 350.02,250.89 349.91,251.03 C 349.79,251.18 349.69,251.32 349.59,251.47 C 349.50,251.62 349.40,251.77 349.32,251.93 C 349.24,252.09 349.16,252.25 349.09,252.41 C 349.01,252.58 348.95,252.75 348.89,252.92 C 348.83,253.10 348.78,253.27 348.73,253.45 C 348.69,253.63 348.65,253.82 348.62,254.01 C 348.58,254.20 348.56,254.39 348.54,254.59 C 348.52,254.78 348.51,254.98 348.50,255.19 C 348.49,255.39 348.49,255.61 348.50,255.81 C 348.51,256.02 348.52,256.22 348.54,256.41 C 348.56,256.61 348.58,256.80 348.62,256.99 C 348.65,257.18 348.69,257.37 348.73,257.55 C 348.78,257.73 348.83,257.90 348.89,258.08 C 348.95,258.25 349.01,258.42 349.09,258.59 C 349.16,258.75 349.24,258.91 349.32,259.07 C 349.40,259.23 349.50,259.38 349.59,259.53 C 349.69,259.68 349.79,259.82 349.91,259.97 C 350.02,260.11 350.15,260.26 350.29,260.40 C 350.43,260.54 350.58,260.68 350.74,260.82 C 350.90,260.96 351.08,261.10 351.27,261.23 C 351.45,261.37 351.65,261.51 351.86,261.64 C 352.07,261.77 352.29,261.91 352.52,262.04 C 352.76,262.17 353.00,262.30 353.26,262.43 C 353.51,262.56 353.78,262.69 354.06,262.81 C 354.34,262.94 354.64,263.07 354.94,263.19 C 355.24,263.31 355.55,263.42 355.88,263.53 C 356.20,263.64 356.53,263.74 356.88,263.84 C 357.22,263.94 357.57,264.04 357.94,264.12 C 358.30,264.21 358.68,264.30 359.06,264.38 C 359.45,264.45 359.84,264.53 360.25,264.59 C 360.66,264.66 361.07,264.72 361.50,264.78 C 361.93,264.84 362.36,264.89 362.81,264.94 C 363.26,264.98 363.75,265.01 364.19,265.06 C 364.63,265.12 365.05,265.19 365.46,265.27 C 365.87,265.36 366.26,265.46 366.63,265.57 C 367.01,265.68 367.36,265.81 367.70,265.95 C 368.04,266.10 368.37,266.25 368.67,266.42 C 368.98,266.59 369.27,266.78 369.54,266.98 C 369.81,267.18 370.07,267.39 370.30,267.62 C 370.54,267.85 370.76,268.09 370.97,268.34 C 371.17,268.60 371.37,268.89 371.53,269.16 C 371.70,269.43 371.84,269.70 371.95,269.97 C 372.07,270.24 372.16,270.51 372.23,270.78 C 372.30,271.05 372.35,271.32 372.38,271.59 C 372.40,271.86 372.40,272.14 372.38,272.41 C 372.35,272.68 372.30,272.95 372.23,273.22 C 372.16,273.49 372.07,273.76 371.95,274.03 C 371.84,274.30 371.70,274.57 371.53,274.84 C 371.37,275.11 371.18,275.39 370.97,275.66 C 370.76,275.92 370.53,276.18 370.27,276.43 C 370.02,276.68 369.74,276.93 369.45,277.16 C 369.15,277.40 368.83,277.63 368.48,277.86 C 368.14,278.08 367.78,278.30 367.39,278.52 C 367.00,278.73 366.60,278.93 366.16,279.13 C 365.73,279.33 365.28,279.52 364.80,279.71 C 364.33,279.90 363.83,280.08 363.31,280.25 C 362.79,280.42 362.21,280.57 361.69,280.75 C 361.16,280.93 360.65,281.13 360.15,281.35 C 359.65,281.57 359.17,281.80 358.70,282.05 C 358.23,282.31 357.77,282.57 357.33,282.86 C 356.89,283.14 356.46,283.45 356.05,283.77 C 355.63,284.08 355.24,284.42 354.85,284.77 C 354.47,285.13 354.10,285.50 353.74,285.88 C 353.39,286.27 353.05,286.67 352.72,287.09 C 352.39,287.51 352.09,287.99 351.78,288.41 C 351.48,288.82 351.18,289.22 350.88,289.60 C 350.59,289.98 350.30,290.34 350.02,290.68 C 349.74,291.02 349.47,291.34 349.20,291.64 C 348.94,291.94 348.68,292.22 348.42,292.48 C 348.17,292.75 347.92,292.99 347.68,293.21 C 347.44,293.43 347.20,293.64 346.98,293.82 C 346.75,294.00 346.53,294.17 346.31,294.31 C 346.10,294.46 345.88,294.56 345.69,294.69 C 345.50,294.82 345.33,294.95 345.18,295.09 C 345.03,295.22 344.90,295.36 344.79,295.51 C 344.68,295.65 344.59,295.80 344.52,295.95 C 344.44,296.11 344.39,296.26 344.36,296.42 C 344.33,296.58 344.31,296.75 344.32,296.91 C 344.33,297.08 344.35,297.25 344.40,297.43 C 344.44,297.61 344.51,297.79 344.59,297.97 C 344.68,298.15 344.79,298.38 344.91,298.53 C 345.02,298.68 345.15,298.80 345.29,298.88 C 345.43,298.96 345.58,299.01 345.74,299.02 C 345.90,299.04 346.08,299.01 346.27,298.95 C 346.45,298.89 346.65,298.80 346.86,298.67 C 347.07,298.54 347.29,298.38 347.52,298.18 C 347.76,297.98 348.00,297.75 348.26,297.48 C 348.51,297.21 348.78,296.90 349.06,296.56 C 349.34,296.22 349.63,295.80 349.94,295.44 C 350.24,295.08 350.56,294.73 350.89,294.41 C 351.22,294.08 351.57,293.77 351.92,293.47 C 352.28,293.17 352.65,292.89 353.03,292.62 C 353.41,292.36 353.81,292.11 354.22,291.88 C 354.63,291.64 355.05,291.42 355.48,291.22 C 355.92,291.02 356.37,290.83 356.83,290.66 C 357.29,290.48 357.76,290.33 358.25,290.19 C 358.74,290.05 359.27,289.93 359.75,289.81 C 360.23,289.70 360.68,289.59 361.11,289.48 C 361.54,289.38 361.95,289.29 362.33,289.20 C 362.71,289.12 363.07,289.04 363.41,288.97 C 363.74,288.90 364.05,288.84 364.34,288.78 C 364.63,288.73 364.90,288.68 365.14,288.64 C 365.38,288.60 365.60,288.57 365.80,288.55 C 365.99,288.52 366.16,288.51 366.31,288.50 C 366.46,288.49 366.56,288.49 366.69,288.50 C 366.81,288.51 366.93,288.54 367.05,288.57 C 367.18,288.61 367.30,288.65 367.41,288.71 C 367.53,288.77 367.65,288.84 367.77,288.92 C 367.88,289.00 368.00,289.10 368.11,289.20 C 368.22,289.31 368.33,289.43 368.45,289.55 C 368.56,289.68 368.67,289.82 368.77,289.98 C 368.88,290.13 368.99,290.29 369.09,290.47 C 369.20,290.64 369.33,290.82 369.41,291.03 C 369.48,291.25 369.52,291.49 369.52,291.76 C 369.53,292.03 369.50,292.32 369.45,292.65 C 369.39,292.97 369.30,293.32 369.17,293.70 C 369.05,294.08 368.89,294.49 368.70,294.92 C 368.51,295.36 368.29,295.82 368.04,296.30 C 367.79,296.79 367.50,297.31 367.18,297.85 C 366.86,298.39 366.51,298.96 366.12,299.56 C 365.74,300.16 365.27,300.84 364.88,301.44 C 364.48,302.03 364.09,302.60 363.73,303.13 C 363.36,303.67 363.01,304.17 362.68,304.65 C 362.35,305.12 362.03,305.57 361.73,305.98 C 361.44,306.40 361.15,306.79 360.89,307.14 C 360.63,307.50 360.38,307.82 360.15,308.12 C 359.92,308.41 359.70,308.68 359.51,308.91 C 359.31,309.15 359.13,309.36 358.97,309.53 C 358.81,309.71 358.68,309.83 358.53,309.97 C 358.38,310.11 358.22,310.25 358.05,310.39 C 357.88,310.53 357.70,310.66 357.52,310.80 C 357.33,310.93 357.14,311.06 356.94,311.19 C 356.74,311.32 356.53,311.44 356.31,311.56 C 356.10,311.68 355.87,311.80 355.64,311.92 C 355.41,312.04 355.17,312.15 354.92,312.27 C 354.67,312.38 354.42,312.49 354.16,312.59 C 353.89,312.70 353.59,312.80 353.34,312.91 C 353.09,313.01 352.86,313.11 352.66,313.22 C 352.45,313.32 352.26,313.43 352.09,313.53 C 351.93,313.64 351.78,313.74 351.66,313.84 C 351.53,313.95 351.43,314.05 351.34,314.16 C 351.26,314.26 351.20,314.36 351.16,314.47 C 351.11,314.57 351.09,314.68 351.09,314.78 C 351.09,314.89 351.11,314.99 351.16,315.09 C 351.20,315.20 351.28,315.31 351.34,315.41 C 351.41,315.50 351.47,315.59 351.53,315.67 C 351.59,315.75 351.66,315.83 351.72,315.89 C 351.78,315.96 351.84,316.01 351.91,316.06 C 351.97,316.11 352.03,316.15 352.09,316.19 C 352.16,316.22 352.22,316.25 352.28,316.27 C 352.34,316.28 352.41,316.29 352.47,316.30 C 352.53,316.30 352.59,316.29 352.66,316.28 C 352.72,316.27 352.79,316.22 352.84,316.22 C 352.90,316.21 352.94,316.22 352.97,316.25 C 353.00,316.28 353.02,316.32 353.03,316.38 C 353.04,316.43 353.04,316.51 353.03,316.59 C 353.02,316.68 353.00,316.79 352.97,316.91 C 352.94,317.03 352.90,317.16 352.84,317.31 C 352.79,317.46 352.73,317.63 352.66,317.81 C 352.58,317.99 352.50,318.19 352.41,318.41 C 352.31,318.62 352.30,318.88 352.09,319.09 C 351.89,319.30 351.59,319.49 351.20,319.66 C 350.80,319.83 350.30,319.99 349.71,320.12 C 349.12,320.25 348.43,320.36 347.64,320.45 C 346.85,320.55 345.97,320.62 344.98,320.67 C 344.00,320.73 342.92,320.76 341.74,320.77 C 340.56,320.79 339.29,320.78 337.91,320.76 C 336.54,320.73 335.07,320.69 333.50,320.62 Z" />
    </clipPath>
  </defs>
  <path d="M 333.50,320.62 C 331.93,320.56 330.06,320.46 328.50,320.38 C 326.94,320.29 325.48,320.19 324.12,320.09 C 322.77,319.99 321.52,319.89 320.38,319.78 C 319.23,319.67 318.19,319.56 317.25,319.44 C 316.31,319.32 315.48,319.19 314.75,319.06 C 314.02,318.93 313.40,318.80 312.88,318.66 C 312.35,318.52 311.94,318.37 311.62,318.22 C 311.31,318.07 311.10,317.91 311.00,317.75 C 310.90,317.59 310.98,317.41 311.00,317.25 C 311.02,317.09 311.07,316.94 311.13,316.80 C 311.20,316.67 311.29,316.54 311.40,316.41 C 311.51,316.29 311.64,316.18 311.80,316.08 C 311.95,315.98 312.13,315.88 312.33,315.80 C 312.53,315.71 312.75,315.64 312.99,315.57 C 313.24,315.50 313.50,315.45 313.79,315.40 C 314.08,315.35 314.39,315.31 314.72,315.28 C 315.05,315.25 315.47,315.25 315.78,315.22 C 316.09,315.19 316.35,315.15 316.56,315.09 C 316.78,315.04 316.94,314.98 317.06,314.91 C 317.18,314.83 317.26,314.75 317.28,314.66 C 317.31,314.56 317.29,314.46 317.22,314.34 C 317.15,314.23 317.04,314.10 316.88,313.97 C 316.71,313.83 316.51,313.69 316.25,313.53 C 315.99,313.38 315.69,313.21 315.34,313.03 C 314.99,312.85 314.54,312.65 314.16,312.47 C 313.77,312.28 313.41,312.10 313.05,311.91 C 312.70,311.73 312.36,311.55 312.04,311.37 C 311.71,311.19 311.40,311.01 311.11,310.83 C 310.81,310.65 310.53,310.47 310.27,310.30 C 310.00,310.12 309.75,309.95 309.51,309.77 C 309.27,309.60 309.05,309.43 308.84,309.26 C 308.63,309.09 308.43,308.92 308.25,308.75 C 308.07,308.58 308.02,308.43 307.75,308.25 C 307.48,308.07 307.10,307.86 306.62,307.64 C 306.15,307.42 305.56,307.18 304.88,306.92 C 304.19,306.66 303.40,306.39 302.50,306.09 C 301.60,305.80 300.60,305.49 299.50,305.16 C 298.40,304.83 297.19,304.48 295.88,304.11 C 294.56,303.74 293.15,303.36 291.62,302.95 C 290.10,302.55 288.48,302.13 286.75,301.69 C 285.02,301.25 283.01,300.74 281.25,300.31 C 279.49,299.88 277.79,299.47 276.17,299.09 C 274.55,298.71 273.00,298.36 271.52,298.03 C 270.03,297.70 268.62,297.40 267.28,297.12 C 265.94,296.85 264.67,296.60 263.47,296.38 C 262.27,296.15 261.14,295.95 260.08,295.78 C 259.02,295.61 258.03,295.46 257.11,295.34 C 256.19,295.22 255.34,295.13 254.56,295.06 C 253.78,294.99 253.15,294.99 252.44,294.94 C 251.73,294.89 251.01,294.82 250.30,294.75 C 249.58,294.68 248.86,294.59 248.14,294.50 C 247.42,294.41 246.70,294.30 245.97,294.19 C 245.24,294.07 244.51,293.95 243.78,293.81 C 243.05,293.68 242.32,293.53 241.58,293.38 C 240.84,293.22 240.10,293.05 239.36,292.88 C 238.62,292.70 237.87,292.51 237.12,292.31 C 236.38,292.11 235.60,291.88 234.88,291.69 C 234.15,291.49 233.46,291.31 232.80,291.14 C 232.13,290.97 231.50,290.82 230.89,290.67 C 230.28,290.53 229.71,290.40 229.16,290.28 C 228.61,290.16 228.09,290.06 227.59,289.97 C 227.10,289.88 226.64,289.80 226.20,289.73 C 225.77,289.67 225.36,289.62 224.98,289.58 C 224.61,289.54 224.26,289.51 223.94,289.50 C 223.62,289.49 223.35,289.51 223.06,289.50 C 222.77,289.49 222.48,289.48 222.19,289.45 C 221.90,289.43 221.60,289.40 221.31,289.36 C 221.02,289.32 220.73,289.27 220.44,289.22 C 220.15,289.16 219.85,289.10 219.56,289.03 C 219.27,288.96 218.98,288.88 218.69,288.80 C 218.40,288.71 218.10,288.62 217.81,288.52 C 217.52,288.41 217.23,288.30 216.94,288.19 C 216.65,288.07 216.35,287.93 216.06,287.81 C 215.78,287.70 215.50,287.59 215.23,287.50 C 214.97,287.41 214.71,287.32 214.45,287.25 C 214.20,287.18 213.96,287.11 213.72,287.06 C 213.48,287.01 213.25,286.97 213.03,286.94 C 212.81,286.91 212.60,286.89 212.39,286.88 C 212.18,286.86 211.99,286.86 211.80,286.88 C 211.61,286.89 211.42,286.91 211.25,286.94 C 211.08,286.97 210.95,287.06 210.75,287.06 C 210.55,287.07 210.33,287.03 210.08,286.95 C 209.83,286.88 209.54,286.76 209.23,286.61 C 208.92,286.46 208.59,286.26 208.22,286.03 C 207.85,285.80 207.46,285.53 207.03,285.22 C 206.61,284.91 206.15,284.56 205.67,284.17 C 205.19,283.78 204.68,283.36 204.14,282.89 C 203.60,282.42 203.03,281.92 202.44,281.38 C 201.84,280.83 201.16,280.17 200.56,279.62 C 199.97,279.08 199.41,278.57 198.88,278.09 C 198.34,277.62 197.84,277.18 197.38,276.78 C 196.91,276.38 196.47,276.02 196.06,275.69 C 195.66,275.36 195.28,275.07 194.94,274.81 C 194.59,274.56 194.28,274.34 194.00,274.16 C 193.72,273.97 193.47,273.83 193.25,273.72 C 193.03,273.61 192.84,273.54 192.69,273.50 C 192.53,273.46 192.44,273.51 192.31,273.50 C 192.18,273.49 192.05,273.47 191.91,273.44 C 191.77,273.41 191.62,273.36 191.47,273.31 C 191.32,273.26 191.16,273.20 191.00,273.12 C 190.84,273.05 190.67,272.97 190.50,272.88 C 190.33,272.78 190.15,272.68 189.97,272.56 C 189.79,272.45 189.60,272.32 189.41,272.19 C 189.21,272.05 189.02,271.91 188.81,271.75 C 188.61,271.59 188.47,271.42 188.19,271.25 C 187.90,271.08 187.54,270.90 187.09,270.72 C 186.65,270.54 186.13,270.35 185.53,270.16 C 184.93,269.96 184.26,269.77 183.50,269.56 C 182.74,269.36 181.91,269.15 181.00,268.94 C 180.09,268.72 179.10,268.51 178.03,268.28 C 176.96,268.06 175.82,267.83 174.59,267.59 C 173.37,267.36 172.07,267.12 170.69,266.88 C 169.31,266.63 167.73,266.38 166.31,266.12 C 164.90,265.87 163.52,265.61 162.20,265.35 C 160.87,265.09 159.58,264.82 158.34,264.55 C 157.09,264.29 155.89,264.01 154.73,263.73 C 153.58,263.46 152.46,263.18 151.39,262.89 C 150.32,262.61 149.29,262.32 148.30,262.02 C 147.32,261.73 146.38,261.43 145.48,261.13 C 144.58,260.83 143.72,260.53 142.91,260.22 C 142.09,259.91 141.31,259.58 140.59,259.28 C 139.88,258.98 139.22,258.69 138.62,258.41 C 138.03,258.12 137.48,257.85 137.00,257.59 C 136.52,257.33 136.09,257.08 135.72,256.84 C 135.35,256.60 135.04,256.38 134.78,256.16 C 134.53,255.94 134.33,255.73 134.19,255.53 C 134.05,255.33 133.96,255.15 133.94,254.97 C 133.91,254.79 133.94,254.62 134.03,254.47 C 134.12,254.31 134.29,254.18 134.47,254.03 C 134.64,253.88 134.85,253.73 135.09,253.57 C 135.32,253.41 135.59,253.25 135.88,253.09 C 136.18,252.92 136.50,252.75 136.86,252.58 C 137.21,252.40 137.60,252.23 138.02,252.05 C 138.43,251.87 138.88,251.68 139.35,251.49 C 139.83,251.30 140.33,251.11 140.87,250.91 C 141.40,250.72 141.97,250.52 142.56,250.31 C 143.16,250.11 143.78,249.89 144.44,249.69 C 145.10,249.48 145.79,249.28 146.52,249.08 C 147.24,248.88 148.00,248.68 148.80,248.48 C 149.59,248.29 150.42,248.10 151.28,247.91 C 152.14,247.72 153.04,247.53 153.97,247.34 C 154.90,247.16 155.86,246.98 156.86,246.80 C 157.86,246.62 158.89,246.44 159.95,246.27 C 161.02,246.09 162.12,245.92 163.25,245.75 C 164.38,245.58 165.62,245.42 166.75,245.25 C 167.88,245.08 168.97,244.92 170.02,244.75 C 171.07,244.58 172.08,244.42 173.05,244.25 C 174.02,244.08 174.95,243.92 175.84,243.75 C 176.74,243.58 177.59,243.42 178.41,243.25 C 179.22,243.08 180.00,242.92 180.73,242.75 C 181.47,242.58 182.17,242.42 182.83,242.25 C 183.49,242.08 184.11,241.92 184.69,241.75 C 185.27,241.58 185.76,241.45 186.31,241.25 C 186.87,241.05 187.43,240.83 188.02,240.58 C 188.60,240.33 189.19,240.04 189.80,239.73 C 190.40,239.42 191.02,239.09 191.66,238.72 C 192.29,238.35 192.93,237.96 193.59,237.53 C 194.25,237.11 194.92,236.65 195.61,236.17 C 196.29,235.69 196.99,235.18 197.70,234.64 C 198.41,234.10 199.14,233.53 199.88,232.94 C 200.61,232.34 201.33,231.67 202.12,231.06 C 202.92,230.46 203.76,229.87 204.64,229.30 C 205.52,228.73 206.45,228.17 207.42,227.64 C 208.39,227.11 209.41,226.59 210.47,226.09 C 211.53,225.60 212.63,225.12 213.78,224.66 C 214.93,224.20 216.12,223.75 217.36,223.33 C 218.60,222.90 219.88,222.50 221.20,222.11 C 222.53,221.72 223.90,221.35 225.31,221.00 C 226.73,220.65 228.28,220.32 229.69,220.00 C 231.10,219.68 232.46,219.39 233.78,219.11 C 235.10,218.83 236.37,218.57 237.59,218.33 C 238.82,218.09 239.99,217.86 241.12,217.66 C 242.26,217.45 243.34,217.26 244.38,217.09 C 245.41,216.92 246.40,216.77 247.34,216.64 C 248.29,216.51 249.18,216.39 250.03,216.30 C 250.88,216.20 251.68,216.12 252.44,216.06 C 253.19,216.00 253.85,215.99 254.56,215.94 C 255.28,215.89 255.99,215.82 256.72,215.75 C 257.44,215.68 258.17,215.59 258.91,215.50 C 259.64,215.41 260.38,215.30 261.12,215.19 C 261.87,215.07 262.62,214.95 263.38,214.81 C 264.13,214.68 264.89,214.53 265.66,214.38 C 266.42,214.22 267.19,214.05 267.97,213.88 C 268.74,213.70 269.53,213.51 270.31,213.31 C 271.10,213.11 271.88,212.90 272.69,212.69 C 273.49,212.48 274.32,212.26 275.16,212.05 C 275.99,211.83 276.85,211.61 277.72,211.39 C 278.59,211.17 279.47,210.95 280.38,210.72 C 281.28,210.49 282.19,210.26 283.12,210.03 C 284.06,209.80 285.01,209.57 285.97,209.33 C 286.93,209.09 287.91,208.85 288.91,208.61 C 289.90,208.37 290.91,208.12 291.94,207.88 C 292.96,207.63 294.08,207.37 295.06,207.12 C 296.05,206.88 296.98,206.64 297.86,206.41 C 298.74,206.17 299.56,205.94 300.33,205.72 C 301.10,205.49 301.81,205.28 302.47,205.06 C 303.13,204.85 303.73,204.64 304.28,204.44 C 304.83,204.23 305.33,204.04 305.77,203.84 C 306.21,203.65 306.59,203.46 306.92,203.28 C 307.25,203.10 307.53,202.92 307.75,202.75 C 307.97,202.58 308.07,202.41 308.25,202.25 C 308.43,202.09 308.61,201.92 308.81,201.77 C 309.01,201.61 309.22,201.45 309.44,201.30 C 309.66,201.14 309.89,200.99 310.12,200.84 C 310.36,200.70 310.61,200.55 310.88,200.41 C 311.14,200.26 311.41,200.12 311.69,199.98 C 311.97,199.85 312.26,199.71 312.56,199.58 C 312.86,199.45 313.18,199.32 313.50,199.19 C 313.82,199.06 314.19,198.93 314.50,198.81 C 314.81,198.69 315.10,198.57 315.38,198.45 C 315.65,198.34 315.90,198.22 316.12,198.11 C 316.35,198.00 316.56,197.89 316.75,197.78 C 316.94,197.67 317.10,197.57 317.25,197.47 C 317.40,197.37 317.52,197.27 317.62,197.17 C 317.73,197.08 317.81,196.98 317.88,196.89 C 317.94,196.80 317.98,196.71 318.00,196.62 C 318.02,196.54 318.02,196.45 318.00,196.38 C 317.98,196.30 317.95,196.23 317.89,196.17 C 317.84,196.11 317.76,196.06 317.67,196.02 C 317.58,195.97 317.47,195.93 317.34,195.91 C 317.22,195.88 317.07,195.86 316.91,195.84 C 316.74,195.83 316.56,195.83 316.36,195.83 C 316.16,195.83 315.94,195.84 315.70,195.86 C 315.47,195.88 315.21,195.90 314.94,195.94 C 314.66,195.97 314.33,196.04 314.06,196.06 C 313.79,196.09 313.54,196.10 313.31,196.09 C 313.08,196.09 312.88,196.07 312.69,196.03 C 312.50,195.99 312.33,195.94 312.19,195.88 C 312.04,195.81 311.92,195.72 311.81,195.62 C 311.71,195.53 311.62,195.41 311.56,195.28 C 311.50,195.15 311.46,195.01 311.44,194.84 C 311.42,194.68 311.42,194.51 311.44,194.31 C 311.46,194.12 311.51,193.88 311.56,193.69 C 311.61,193.49 311.68,193.32 311.75,193.16 C 311.82,192.99 311.91,192.85 312.00,192.72 C 312.09,192.59 312.20,192.47 312.31,192.38 C 312.43,192.28 312.55,192.19 312.69,192.12 C 312.82,192.06 312.97,192.01 313.12,191.97 C 313.28,191.93 313.45,191.91 313.62,191.91 C 313.80,191.90 313.99,191.91 314.19,191.94 C 314.39,191.96 314.59,192.03 314.81,192.06 C 315.03,192.10 315.26,192.12 315.50,192.14 C 315.74,192.16 315.99,192.17 316.25,192.17 C 316.51,192.17 316.78,192.17 317.06,192.16 C 317.34,192.14 317.64,192.12 317.94,192.09 C 318.24,192.07 318.55,192.03 318.88,191.98 C 319.20,191.94 319.53,191.89 319.88,191.83 C 320.22,191.77 320.57,191.70 320.94,191.62 C 321.30,191.55 321.69,191.45 322.06,191.38 C 322.43,191.30 322.80,191.23 323.17,191.17 C 323.54,191.11 323.90,191.06 324.27,191.02 C 324.63,190.97 324.99,190.93 325.34,190.91 C 325.70,190.88 326.05,190.86 326.41,190.84 C 326.76,190.83 327.11,190.83 327.45,190.83 C 327.80,190.83 328.14,190.84 328.48,190.86 C 328.83,190.88 329.16,190.90 329.50,190.94 C 329.84,190.97 330.17,191.03 330.50,191.06 C 330.83,191.10 331.15,191.12 331.47,191.14 C 331.79,191.16 332.10,191.17 332.41,191.17 C 332.71,191.17 333.02,191.17 333.31,191.16 C 333.61,191.14 333.90,191.12 334.19,191.09 C 334.47,191.07 334.76,191.03 335.03,190.98 C 335.31,190.94 335.58,190.89 335.84,190.83 C 336.11,190.77 336.37,190.70 336.62,190.62 C 336.88,190.55 337.11,190.45 337.38,190.38 C 337.64,190.30 337.91,190.22 338.20,190.16 C 338.49,190.09 338.79,190.03 339.11,189.97 C 339.42,189.91 339.75,189.86 340.09,189.81 C 340.43,189.77 340.79,189.72 341.16,189.69 C 341.52,189.65 341.90,189.62 342.30,189.59 C 342.69,189.57 343.10,189.55 343.52,189.53 C 343.93,189.52 344.37,189.51 344.81,189.50 C 345.26,189.49 345.75,189.49 346.19,189.50 C 346.62,189.51 347.04,189.53 347.43,189.55 C 347.82,189.58 348.19,189.62 348.54,189.66 C 348.89,189.71 349.21,189.76 349.52,189.83 C 349.82,189.89 350.10,189.96 350.36,190.05 C 350.62,190.13 350.86,190.22 351.07,190.32 C 351.29,190.42 351.48,190.53 351.65,190.65 C 351.82,190.77 351.97,190.89 352.09,191.03 C 352.22,191.17 352.31,191.32 352.41,191.47 C 352.50,191.62 352.58,191.76 352.65,191.91 C 352.72,192.06 352.77,192.21 352.82,192.37 C 352.87,192.52 352.90,192.67 352.92,192.83 C 352.94,192.98 352.95,193.14 352.95,193.30 C 352.95,193.45 352.94,193.61 352.91,193.77 C 352.89,193.93 352.85,194.10 352.80,194.26 C 352.76,194.42 352.70,194.58 352.62,194.75 C 352.55,194.92 352.44,195.09 352.38,195.25 C 352.31,195.41 352.27,195.57 352.24,195.73 C 352.22,195.88 352.21,196.03 352.23,196.18 C 352.24,196.33 352.27,196.47 352.33,196.61 C 352.38,196.75 352.45,196.88 352.55,197.02 C 352.64,197.15 352.75,197.27 352.88,197.40 C 353.01,197.52 353.17,197.64 353.34,197.76 C 353.51,197.87 353.70,197.99 353.91,198.09 C 354.12,198.20 354.34,198.27 354.59,198.41 C 354.84,198.55 355.11,198.72 355.41,198.94 C 355.70,199.15 356.01,199.40 356.34,199.69 C 356.68,199.97 357.03,200.30 357.41,200.66 C 357.78,201.02 358.18,201.41 358.59,201.84 C 359.01,202.28 359.45,202.74 359.91,203.25 C 360.36,203.76 360.84,204.30 361.34,204.88 C 361.84,205.45 362.36,206.07 362.91,206.72 C 363.45,207.37 364.07,208.12 364.59,208.78 C 365.12,209.44 365.60,210.07 366.04,210.68 C 366.48,211.29 366.88,211.86 367.24,212.41 C 367.60,212.96 367.92,213.49 368.20,213.98 C 368.48,214.48 368.72,214.95 368.92,215.39 C 369.12,215.83 369.28,216.25 369.40,216.63 C 369.52,217.02 369.60,217.38 369.63,217.71 C 369.67,218.04 369.67,218.35 369.62,218.62 C 369.58,218.90 369.46,219.14 369.38,219.38 C 369.29,219.61 369.20,219.83 369.10,220.04 C 369.01,220.25 368.91,220.44 368.80,220.62 C 368.70,220.80 368.60,220.96 368.48,221.11 C 368.37,221.26 368.26,221.39 368.14,221.52 C 368.02,221.64 367.90,221.74 367.77,221.84 C 367.65,221.93 367.52,222.01 367.38,222.07 C 367.25,222.13 367.11,222.18 366.97,222.22 C 366.83,222.25 366.70,222.27 366.53,222.28 C 366.36,222.29 366.17,222.30 365.96,222.29 C 365.75,222.28 365.51,222.27 365.26,222.24 C 365.00,222.22 364.72,222.18 364.42,222.14 C 364.12,222.10 363.80,222.05 363.45,221.98 C 363.11,221.92 362.74,221.85 362.35,221.77 C 361.96,221.69 361.55,221.61 361.12,221.51 C 360.68,221.41 360.23,221.30 359.75,221.19 C 359.27,221.07 358.74,220.95 358.25,220.81 C 357.76,220.67 357.29,220.52 356.83,220.34 C 356.37,220.17 355.92,219.98 355.48,219.78 C 355.05,219.58 354.63,219.36 354.22,219.12 C 353.81,218.89 353.41,218.64 353.03,218.38 C 352.65,218.11 352.28,217.83 351.92,217.53 C 351.57,217.23 351.22,216.92 350.89,216.59 C 350.56,216.27 350.24,215.92 349.94,215.56 C 349.63,215.20 349.34,214.78 349.06,214.44 C 348.78,214.10 348.51,213.79 348.26,213.51 C 348.00,213.23 347.76,212.99 347.52,212.77 C 347.29,212.56 347.07,212.38 346.86,212.23 C 346.65,212.09 346.45,211.97 346.27,211.89 C 346.08,211.81 345.90,211.76 345.74,211.74 C 345.58,211.73 345.43,211.74 345.29,211.79 C 345.15,211.84 345.02,211.92 344.91,212.03 C 344.79,212.14 344.66,212.29 344.59,212.47 C 344.53,212.64 344.50,212.85 344.52,213.08 C 344.53,213.31 344.58,213.57 344.67,213.86 C 344.76,214.15 344.89,214.47 345.06,214.81 C 345.23,215.16 345.44,215.53 345.69,215.94 C 345.93,216.34 346.22,216.77 346.55,217.23 C 346.87,217.70 347.24,218.18 347.64,218.70 C 348.04,219.22 348.49,219.77 348.97,220.34 C 349.45,220.92 350.01,221.58 350.53,222.16 C 351.05,222.73 351.58,223.28 352.10,223.80 C 352.63,224.33 353.15,224.82 353.68,225.29 C 354.21,225.76 354.74,226.20 355.27,226.61 C 355.80,227.02 356.33,227.41 356.86,227.77 C 357.39,228.12 357.93,228.45 358.46,228.76 C 359.00,229.06 359.53,229.34 360.07,229.59 C 360.61,229.83 361.15,230.06 361.69,230.25 C 362.23,230.44 362.79,230.58 363.31,230.75 C 363.83,230.92 364.33,231.10 364.80,231.29 C 365.28,231.48 365.73,231.67 366.16,231.87 C 366.60,232.07 367.00,232.27 367.39,232.48 C 367.78,232.70 368.14,232.92 368.48,233.14 C 368.83,233.37 369.15,233.60 369.45,233.84 C 369.74,234.07 370.02,234.32 370.27,234.57 C 370.53,234.82 370.76,235.08 370.97,235.34 C 371.18,235.61 371.37,235.89 371.53,236.16 C 371.70,236.43 371.84,236.70 371.95,236.97 C 372.07,237.24 372.16,237.51 372.23,237.78 C 372.30,238.05 372.35,238.32 372.38,238.59 C 372.40,238.86 372.40,239.14 372.38,239.41 C 372.35,239.68 372.30,239.95 372.23,240.22 C 372.16,240.49 372.07,240.76 371.95,241.03 C 371.84,241.30 371.70,241.57 371.53,241.84 C 371.37,242.11 371.17,242.40 370.97,242.66 C 370.76,242.91 370.54,243.15 370.30,243.38 C 370.07,243.61 369.81,243.82 369.54,244.02 C 369.27,244.22 368.98,244.41 368.67,244.58 C 368.37,244.75 368.04,244.90 367.70,245.05 C 367.36,245.19 367.01,245.32 366.63,245.43 C 366.26,245.54 365.87,245.64 365.46,245.73 C 365.05,245.81 364.63,245.88 364.19,245.94 C 363.75,245.99 363.26,246.02 362.81,246.06 C 362.36,246.11 361.93,246.16 361.50,246.22 C 361.07,246.28 360.66,246.34 360.25,246.41 C 359.84,246.47 359.45,246.55 359.06,246.62 C 358.68,246.70 358.30,246.79 357.94,246.88 C 357.57,246.96 357.22,247.06 356.88,247.16 C 356.53,247.26 356.20,247.36 355.88,247.47 C 355.55,247.58 355.24,247.69 354.94,247.81 C 354.64,247.93 354.34,248.06 354.06,248.19 C 353.78,248.31 353.51,248.44 353.26,248.57 C 353.00,248.70 352.76,248.83 352.52,248.96 C 352.29,249.09 352.07,249.23 351.86,249.36 C 351.65,249.49 351.45,249.63 351.27,249.77 C 351.08,249.90 350.90,250.04 350.74,250.18 C 350.58,250.32 350.43,250.46 350.29,250.60 C 350.15,250.74 350.02,250.89 349.91,251.03 C 349.79,251.18 349.69,251.32 349.59,251.47 C 349.50,251.62 349.40,251.77 349.32,251.93 C 349.24,252.09 349.16,252.25 349.09,252.41 C 349.01,252.58 348.95,252.75 348.89,252.92 C 348.83,253.10 348.78,253.27 348.73,253.45 C 348.69,253.63 348.65,253.82 348.62,254.01 C 348.58,254.20 348.56,254.39 348.54,254.59 C 348.52,254.78 348.51,254.98 348.50,255.19 C 348.49,255.39 348.49,255.61 348.50,255.81 C 348.51,256.02 348.52,256.22 348.54,256.41 C 348.56,256.61 348.58,256.80 348.62,256.99 C 348.65,257.18 348.69,257.37 348.73,257.55 C 348.78,257.73 348.83,257.90 348.89,258.08 C 348.95,258.25 349.01,258.42 349.09,258.59 C 349.16,258.75 349.24,258.91 349.32,259.07 C 349.40,259.23 349.50,259.38 349.59,259.53 C 349.69,259.68 349.79,259.82 349.91,259.97 C 350.02,260.11 350.15,260.26 350.29,260.40 C 350.43,260.54 350.58,260.68 350.74,260.82 C 350.90,260.96 351.08,261.10 351.27,261.23 C 351.45,261.37 351.65,261.51 351.86,261.64 C 352.07,261.77 352.29,261.91 352.52,262.04 C 352.76,262.17 353.00,262.30 353.26,262.43 C 353.51,262.56 353.78,262.69 354.06,262.81 C 354.34,262.94 354.64,263.07 354.94,263.19 C 355.24,263.31 355.55,263.42 355.88,263.53 C 356.20,263.64 356.53,263.74 356.88,263.84 C 357.22,263.94 357.57,264.04 357.94,264.12 C 358.30,264.21 358.68,264.30 359.06,264.38 C 359.45,264.45 359.84,264.53 360.25,264.59 C 360.66,264.66 361.07,264.72 361.50,264.78 C 361.93,264.84 362.36,264.89 362.81,264.94 C 363.26,264.98 363.75,265.01 364.19,265.06 C 364.63,265.12 365.05,265.19 365.46,265.27 C 365.87,265.36 366.26,265.46 366.63,265.57 C 367.01,265.68 367.36,265.81 367.70,265.95 C 368.04,266.10 368.37,266.25 368.67,266.42 C 368.98,266.59 369.27,266.78 369.54,266.98 C 369.81,267.18 370.07,267.39 370.30,267.62 C 370.54,267.85 370.76,268.09 370.97,268.34 C 371.17,268.60 371.37,268.89 371.53,269.16 C 371.70,269.43 371.84,269.70 371.95,269.97 C 372.07,270.24 372.16,270.51 372.23,270.78 C 372.30,271.05 372.35,271.32 372.38,271.59 C 372.40,271.86 372.40,272.14 372.38,272.41 C 372.35,272.68 372.30,272.95 372.23,273.22 C 372.16,273.49 372.07,273.76 371.95,274.03 C 371.84,274.30 371.70,274.57 371.53,274.84 C 371.37,275.11 371.18,275.39 370.97,275.66 C 370.76,275.92 370.53,276.18 370.27,276.43 C 370.02,276.68 369.74,276.93 369.45,277.16 C 369.15,277.40 368.83,277.63 368.48,277.86 C 368.14,278.08 367.78,278.30 367.39,278.52 C 367.00,278.73 366.60,278.93 366.16,279.13 C 365.73,279.33 365.28,279.52 364.80,279.71 C 364.33,279.90 363.83,280.08 363.31,280.25 C 362.79,280.42 362.21,280.57 361.69,280.75 C 361.16,280.93 360.65,281.13 360.15,281.35 C 359.65,281.57 359.17,281.80 358.70,282.05 C 358.23,282.31 357.77,282.57 357.33,282.86 C 356.89,283.14 356.46,283.45 356.05,283.77 C 355.63,284.08 355.24,284.42 354.85,284.77 C 354.47,285.13 354.10,285.50 353.74,285.88 C 353.39,286.27 353.05,286.67 352.72,287.09 C 352.39,287.51 352.09,287.99 351.78,288.41 C 351.48,288.82 351.18,289.22 350.88,289.60 C 350.59,289.98 350.30,290.34 350.02,290.68 C 349.74,291.02 349.47,291.34 349.20,291.64 C 348.94,291.94 348.68,292.22 348.42,292.48 C 348.17,292.75 347.92,292.99 347.68,293.21 C 347.44,293.43 347.20,293.64 346.98,293.82 C 346.75,294.00 346.53,294.17 346.31,294.31 C 346.10,294.46 345.88,294.56 345.69,294.69 C 345.50,294.82 345.33,294.95 345.18,295.09 C 345.03,295.22 344.90,295.36 344.79,295.51 C 344.68,295.65 344.59,295.80 344.52,295.95 C 344.44,296.11 344.39,296.26 344.36,296.42 C 344.33,296.58 344.31,296.75 344.32,296.91 C 344.33,297.08 344.35,297.25 344.40,297.43 C 344.44,297.61 344.51,297.79 344.59,297.97 C 344.68,298.15 344.79,298.38 344.91,298.53 C 345.02,298.68 345.15,298.80 345.29,298.88 C 345.43,298.96 345.58,299.01 345.74,299.02 C 345.90,299.04 346.08,299.01 346.27,298.95 C 346.45,298.89 346.65,298.80 346.86,298.67 C 347.07,298.54 347.29,298.38 347.52,298.18 C 347.76,297.98 348.00,297.75 348.26,297.48 C 348.51,297.21 348.78,296.90 349.06,296.56 C 349.34,296.22 349.63,295.80 349.94,295.44 C 350.24,295.08 350.56,294.73 350.89,294.41 C 351.22,294.08 351.57,293.77 351.92,293.47 C 352.28,293.17 352.65,292.89 353.03,292.62 C 353.41,292.36 353.81,292.11 354.22,291.88 C 354.63,291.64 355.05,291.42 355.48,291.22 C 355.92,291.02 356.37,290.83 356.83,290.66 C 357.29,290.48 357.76,290.33 358.25,290.19 C 358.74,290.05 359.27,289.93 359.75,289.81 C 360.23,289.70 360.68,289.59 361.11,289.48 C 361.54,289.38 361.95,289.29 362.33,289.20 C 362.71,289.12 363.07,289.04 363.41,288.97 C 363.74,288.90 364.05,288.84 364.34,288.78 C 364.63,288.73 364.90,288.68 365.14,288.64 C 365.38,288.60 365.60,288.57 365.80,288.55 C 365.99,288.52 366.16,288.51 366.31,288.50 C 366.46,288.49 366.56,288.49 366.69,288.50 C 366.81,288.51 366.93,288.54 367.05,288.57 C 367.18,288.61 367.30,288.65 367.41,288.71 C 367.53,288.77 367.65,288.84 367.77,288.92 C 367.88,289.00 368.00,289.10 368.11,289.20 C 368.22,289.31 368.33,289.43 368.45,289.55 C 368.56,289.68 368.67,289.82 368.77,289.98 C 368.88,290.13 368.99,290.29 369.09,290.47 C 369.20,290.64 369.33,290.82 369.41,291.03 C 369.48,291.25 369.52,291.49 369.52,291.76 C 369.53,292.03 369.50,292.32 369.45,292.65 C 369.39,292.97 369.30,293.32 369.17,293.70 C 369.05,294.08 368.89,294.49 368.70,294.92 C 368.51,295.36 368.29,295.82 368.04,296.30 C 367.79,296.79 367.50,297.31 367.18,297.85 C 366.86,298.39 366.51,298.96 366.12,299.56 C 365.74,300.16 365.27,300.84 364.88,301.44 C 364.48,302.03 364.09,302.60 363.73,303.13 C 363.36,303.67 363.01,304.17 362.68,304.65 C 362.35,305.12 362.03,305.57 361.73,305.98 C 361.44,306.40 361.15,306.79 360.89,307.14 C 360.63,307.50 360.38,307.82 360.15,308.12 C 359.92,308.41 359.70,308.68 359.51,308.91 C 359.31,309.15 359.13,309.36 358.97,309.53 C 358.81,309.71 358.68,309.83 358.53,309.97 C 358.38,310.11 358.22,310.25 358.05,310.39 C 357.88,310.53 357.70,310.66 357.52,310.80 C 357.33,310.93 357.14,311.06 356.94,311.19 C 356.74,311.32 356.53,311.44 356.31,311.56 C 356.10,311.68 355.87,311.80 355.64,311.92 C 355.41,312.04 355.17,312.15 354.92,312.27 C 354.67,312.38 354.42,312.49 354.16,312.59 C 353.89,312.70 353.59,312.80 353.34,312.91 C 353.09,313.01 352.86,313.11 352.66,313.22 C 352.45,313.32 352.26,313.43 352.09,313.53 C 351.93,313.64 351.78,313.74 351.66,313.84 C 351.53,313.95 351.43,314.05 351.34,314.16 C 351.26,314.26 351.20,314.36 351.16,314.47 C 351.11,314.57 351.09,314.68 351.09,314.78 C 351.09,314.89 351.11,314.99 351.16,315.09 C 351.20,315.20 351.28,315.31 351.34,315.41 C 351.41,315.50 351.47,315.59 351.53,315.67 C 351.59,315.75 351.66,315.83 351.72,315.89 C 351.78,315.96 351.84,316.01 351.91,316.06 C 351.97,316.11 352.03,316.15 352.09,316.19 C 352.16,316.22 352.22,316.25 352.28,316.27 C 352.34,316.28 352.41,316.29 352.47,316.30 C 352.53,316.30 352.59,316.29 352.66,316.28 C 352.72,316.27 352.79,316.22 352.84,316.22 C 352.90,316.21 352.94,316.22 352.97,316.25 C 353.00,316.28 353.02,316.32 353.03,316.38 C 353.04,316.43 353.04,316.51 353.03,316.59 C 353.02,316.68 353.00,316.79 352.97,316.91 C 352.94,317.03 352.90,317.16 352.84,317.31 C 352.79,317.46 352.73,317.63 352.66,317.81 C 352.58,317.99 352.50,318.19 352.41,318.41 C 352.31,318.62 352.30,318.88 352.09,319.09 C 351.89,319.30 351.59,319.49 351.20,319.66 C 350.80,319.83 350.30,319.99 349.71,320.12 C 349.12,320.25 348.43,320.36 347.64,320.45 C 346.85,320.55 345.97,320.62 344.98,320.67 C 344.00,320.73 342.92,320.76 341.74,320.77 C 340.56,320.79 339.29,320.78 337.91,320.76 C 336.54,320.73 335.07,320.69 333.50,320.62 Z" stroke="none" fill="currentColor" opacity="0.11" />
  <path d="M236.14,246.25L227.55,246.26 M216.35,247.23L206.28,247.05 M216.33,247.24L206.29,247.07 M216.27,247.25L206.29,247.08 M206.29,247.07L216.33,247.24 M280.99,260.42L288.94,259.23 M252.23,267.39L261.51,267.39 M252.23,267.39L261.51,267.39 M249.82,263.74L243.52,263.74 M262.77,240.97L262.77,246.99 M236.14,265.75L227.55,265.74 M216.27,264.75L206.29,264.92 M216.33,264.76L206.29,264.93 M206.29,264.93L216.33,264.76 M196.30,272.14L215.58,272.41 M215.58,273.92L215.58,282.34 M208.38,283.38L215.58,283.61 M196.30,239.86L215.58,239.59 M215.58,238.08L215.58,229.66 M208.38,228.62L215.58,228.39 M193.02,240.04L200.57,233.42 M193.02,271.96L200.57,278.58 M305.90,259.78L298.51,261.87 M254.28,229.61L248.30,231.25 M264.74,239.64L256.83,235.46 M254.28,282.39L248.30,280.75 M264.74,272.36L256.83,276.54 M215.58,228.37L208.70,228.34 M215.58,283.63L208.70,283.66 M267.26,238.21L284.75,239.00 M255.70,235.66L249.48,236.79 M267.26,273.79L284.75,273.00 M255.70,276.34L249.48,275.21 M298.51,250.13L305.90,252.22 M305.44,239.65L300.14,235.91 M305.44,272.35L300.14,276.09 M206.87,239.31L215.46,238.86 M206.87,272.69L215.46,273.14 M255.49,231.44L249.14,232.89 M222.25,252.69L264.36,253.02 M264.52,258.99L222.25,259.26 M222.25,259.26L264.76,259.21 M222.25,252.69L264.76,252.79 M259.75,262.88L252.93,262.75 M259.75,262.88L253.07,262.75 M316.42,294.52L310.38,294.52 M238.12,246.37L248.81,246.37 M238.13,246.40L248.79,246.40 M238.13,247.55L248.79,247.55 M238.12,247.59L248.81,247.59 M238.12,242.30L248.81,242.30 M238.13,242.34L248.79,242.34 M238.13,243.49L248.79,243.49 M238.12,243.52L248.81,243.52 M248.87,265.69L238.18,265.69 M248.85,265.66L238.19,265.66 M248.85,264.51L238.19,264.51 M248.87,264.47L238.18,264.47 M248.87,269.76L238.18,269.76 M248.85,269.72L238.19,269.72 M248.85,268.57L238.19,268.57 M248.87,268.54L238.18,268.54 M319.95,233.81L340.86,233.81 M334.13,240.80L319.95,240.80 M311.96,243.22L311.96,250.37 M311.96,250.85L311.96,247.03 M311.96,247.18L311.96,251.92 M312.57,250.98L312.57,247.16 M312.65,251.06L312.65,247.23 M311.96,268.78L311.96,261.63 M311.96,261.15L311.96,264.97 M311.96,264.82L311.96,260.08 M312.57,264.84L312.57,261.02 M312.65,264.77L312.65,260.94 M330.05,247.60L310.50,245.21 M329.29,247.50L310.50,245.21 M285.19,237.59L275.81,237.19 M319.95,277.85L340.86,277.84 M319.95,269.94L338.79,269.94 M319.88,279.35L341.22,279.50 M334.13,270.87L319.95,270.87 M297.20,216.60L291.59,220.84 M291.73,220.22L296.69,216.55 M270.39,285.02L263.65,283.95 M263.65,281.84L271.45,283.07 M260.44,274.93L267.84,276.23 M267.77,276.79L260.51,275.60 M260.50,276.00L267.75,277.20 M260.53,275.95L267.79,277.16 M256.96,281.92L262.90,282.96 M262.91,280.51L256.96,279.56 M246.56,276.48L238.61,275.11 M246.56,276.48L238.62,275.13 M238.62,275.13L246.53,276.33 M238.62,274.54L246.53,275.80 M238.62,274.54L246.55,275.98 M246.55,275.98L238.61,274.66 M238.45,275.68L246.36,276.95 M272.92,266.17L271.50,272.69 M267.37,265.40L266.47,272.00 M269.55,274.84L271.43,264.31 M273.01,269.28L271.59,275.85 M267.61,278.11L269.44,267.60 M265.23,288.11L271.99,288.50 M222.69,281.09L236.55,283.62 M296.83,260.94L296.86,261.08 M296.86,250.92L296.83,251.06 M285.11,249.31L285.08,249.26 M286.42,261.52L286.42,261.52 M286.30,261.52L286.30,261.52 M286.29,250.06L286.29,250.06 M286.44,250.06L286.44,250.06 M286.32,261.19L286.32,255.01 M286.30,255.01L286.30,261.19 M286.21,255.03L286.21,261.17 M285.33,255.03L285.33,261.17 M285.33,255.03L285.33,261.17 M285.35,255.03L285.35,261.17 M288.82,255.01L288.82,261.19 M262.81,241.05L262.84,238.03 M262.81,270.95L262.84,273.97 M272.92,245.83L271.50,239.31 M267.37,246.60L266.47,240.00 M266.56,236.85L267.46,243.49 M273.02,242.72L271.59,236.15 M269.32,244.54L267.46,233.96 M271.68,244.22L269.75,233.63 M267.61,233.89L269.34,244.37 M268.78,229.38L261.11,230.52 M271.78,228.91L261.11,230.52 M263.28,229.66L257.02,230.50 M270.39,226.98L263.62,228.02 M255.31,235.52L262.05,234.44 M260.43,236.27L267.84,235.02 M267.76,234.80L260.51,236.01 M260.50,236.26L267.75,235.06 M260.53,236.58L267.79,235.40 M256.98,232.91L262.92,231.88 M262.91,231.49L256.96,232.44 M262.86,229.07L256.85,229.99 M238.45,236.35L246.36,235.07 M246.57,236.07L238.61,237.38 M246.57,236.07L238.62,237.48 M238.62,237.48L246.53,236.22 M238.62,236.89L246.53,235.68 M238.62,236.89L246.55,235.55 M246.55,235.55L238.61,236.92 M238.61,236.92L246.53,235.68 M265.23,223.89L271.95,223.50 M222.69,230.91L236.55,228.38 M262.35,224.80L274.48,223.87 M220.02,229.75L238.14,227.03 M222.98,229.11L238.14,227.03 M238.14,227.03L231.01,228.29 M231.01,228.29L237.82,227.06 M228.73,222.67L238.62,226.03 M345.66,242.52L328.45,242.37 M325.17,232.30L341.46,231.60 M345.91,242.26L358.29,242.51 M345.82,247.99L356.55,247.01 M345.82,247.99L358.70,246.84 M345.66,269.48L328.45,269.63 M325.18,279.70L341.46,280.40 M345.90,269.74L358.29,269.49 M312.35,245.74L305.54,245.45 M314.20,232.46L323.86,231.84 M320.56,236.39L314.46,236.64 M319.70,226.71L316.38,232.14 M290.91,235.88L284.80,235.87 M299.13,235.87L293.02,235.88 M312.35,266.26L305.54,266.55 M314.20,279.54L323.86,280.16 M314.46,275.36L320.56,275.61 M319.70,285.29L316.38,279.86 M290.91,276.12L284.80,276.13 M299.13,276.13L293.02,276.12 M346.31,203.62L341.76,199.30 M346.31,203.12L341.76,199.30 M313.43,240.12L299.17,239.28 M299.17,239.28L314.91,240.10 M305.60,245.39L309.50,250.18 M312.43,237.31L290.09,236.56 M309.48,205.65L301.97,211.47 M271.45,231.91L278.40,226.86 M267.52,233.47L259.43,234.83 M341.76,199.30L346.31,203.35 M278.10,226.97L309.45,202.82 M278.22,226.83L309.45,202.82 M299.78,239.57L314.91,240.15 M352.09,192.35L344.07,192.27 M292.33,239.37L309.73,248.17 M346.31,308.38L341.76,312.70 M346.31,308.88L341.76,312.70 M313.43,271.88L299.17,272.72 M299.17,272.72L314.91,271.90 M305.61,266.61L309.50,261.82 M312.43,274.69L290.09,275.44 M309.48,306.35L301.98,300.53 M271.44,280.09L278.40,285.14 M267.52,278.53L259.43,277.17 M341.76,312.70L346.31,308.65 M278.10,285.03L309.44,309.18 M278.22,285.17L309.44,309.18 M299.78,272.43L314.91,271.86" stroke="currentColor" stroke-width="0.6" stroke-linecap="round" fill="none" opacity="0.55" clip-path="url(#hull-clip)" filter="url(#glow)" />
  <path d="M 333.50,320.62 C 331.93,320.56 330.06,320.46 328.50,320.38 C 326.94,320.29 325.48,320.19 324.12,320.09 C 322.77,319.99 321.52,319.89 320.38,319.78 C 319.23,319.67 318.19,319.56 317.25,319.44 C 316.31,319.32 315.48,319.19 314.75,319.06 C 314.02,318.93 313.40,318.80 312.88,318.66 C 312.35,318.52 311.94,318.37 311.62,318.22 C 311.31,318.07 311.10,317.91 311.00,317.75 C 310.90,317.59 310.98,317.41 311.00,317.25 C 311.02,317.09 311.07,316.94 311.13,316.80 C 311.20,316.67 311.29,316.54 311.40,316.41 C 311.51,316.29 311.64,316.18 311.80,316.08 C 311.95,315.98 312.13,315.88 312.33,315.80 C 312.53,315.71 312.75,315.64 312.99,315.57 C 313.24,315.50 313.50,315.45 313.79,315.40 C 314.08,315.35 314.39,315.31 314.72,315.28 C 315.05,315.25 315.47,315.25 315.78,315.22 C 316.09,315.19 316.35,315.15 316.56,315.09 C 316.78,315.04 316.94,314.98 317.06,314.91 C 317.18,314.83 317.26,314.75 317.28,314.66 C 317.31,314.56 317.29,314.46 317.22,314.34 C 317.15,314.23 317.04,314.10 316.88,313.97 C 316.71,313.83 316.51,313.69 316.25,313.53 C 315.99,313.38 315.69,313.21 315.34,313.03 C 314.99,312.85 314.54,312.65 314.16,312.47 C 313.77,312.28 313.41,312.10 313.05,311.91 C 312.70,311.73 312.36,311.55 312.04,311.37 C 311.71,311.19 311.40,311.01 311.11,310.83 C 310.81,310.65 310.53,310.47 310.27,310.30 C 310.00,310.12 309.75,309.95 309.51,309.77 C 309.27,309.60 309.05,309.43 308.84,309.26 C 308.63,309.09 308.43,308.92 308.25,308.75 C 308.07,308.58 308.02,308.43 307.75,308.25 C 307.48,308.07 307.10,307.86 306.62,307.64 C 306.15,307.42 305.56,307.18 304.88,306.92 C 304.19,306.66 303.40,306.39 302.50,306.09 C 301.60,305.80 300.60,305.49 299.50,305.16 C 298.40,304.83 297.19,304.48 295.88,304.11 C 294.56,303.74 293.15,303.36 291.62,302.95 C 290.10,302.55 288.48,302.13 286.75,301.69 C 285.02,301.25 283.01,300.74 281.25,300.31 C 279.49,299.88 277.79,299.47 276.17,299.09 C 274.55,298.71 273.00,298.36 271.52,298.03 C 270.03,297.70 268.62,297.40 267.28,297.12 C 265.94,296.85 264.67,296.60 263.47,296.38 C 262.27,296.15 261.14,295.95 260.08,295.78 C 259.02,295.61 258.03,295.46 257.11,295.34 C 256.19,295.22 255.34,295.13 254.56,295.06 C 253.78,294.99 253.15,294.99 252.44,294.94 C 251.73,294.89 251.01,294.82 250.30,294.75 C 249.58,294.68 248.86,294.59 248.14,294.50 C 247.42,294.41 246.70,294.30 245.97,294.19 C 245.24,294.07 244.51,293.95 243.78,293.81 C 243.05,293.68 242.32,293.53 241.58,293.38 C 240.84,293.22 240.10,293.05 239.36,292.88 C 238.62,292.70 237.87,292.51 237.12,292.31 C 236.38,292.11 235.60,291.88 234.88,291.69 C 234.15,291.49 233.46,291.31 232.80,291.14 C 232.13,290.97 231.50,290.82 230.89,290.67 C 230.28,290.53 229.71,290.40 229.16,290.28 C 228.61,290.16 228.09,290.06 227.59,289.97 C 227.10,289.88 226.64,289.80 226.20,289.73 C 225.77,289.67 225.36,289.62 224.98,289.58 C 224.61,289.54 224.26,289.51 223.94,289.50 C 223.62,289.49 223.35,289.51 223.06,289.50 C 222.77,289.49 222.48,289.48 222.19,289.45 C 221.90,289.43 221.60,289.40 221.31,289.36 C 221.02,289.32 220.73,289.27 220.44,289.22 C 220.15,289.16 219.85,289.10 219.56,289.03 C 219.27,288.96 218.98,288.88 218.69,288.80 C 218.40,288.71 218.10,288.62 217.81,288.52 C 217.52,288.41 217.23,288.30 216.94,288.19 C 216.65,288.07 216.35,287.93 216.06,287.81 C 215.78,287.70 215.50,287.59 215.23,287.50 C 214.97,287.41 214.71,287.32 214.45,287.25 C 214.20,287.18 213.96,287.11 213.72,287.06 C 213.48,287.01 213.25,286.97 213.03,286.94 C 212.81,286.91 212.60,286.89 212.39,286.88 C 212.18,286.86 211.99,286.86 211.80,286.88 C 211.61,286.89 211.42,286.91 211.25,286.94 C 211.08,286.97 210.95,287.06 210.75,287.06 C 210.55,287.07 210.33,287.03 210.08,286.95 C 209.83,286.88 209.54,286.76 209.23,286.61 C 208.92,286.46 208.59,286.26 208.22,286.03 C 207.85,285.80 207.46,285.53 207.03,285.22 C 206.61,284.91 206.15,284.56 205.67,284.17 C 205.19,283.78 204.68,283.36 204.14,282.89 C 203.60,282.42 203.03,281.92 202.44,281.38 C 201.84,280.83 201.16,280.17 200.56,279.62 C 199.97,279.08 199.41,278.57 198.88,278.09 C 198.34,277.62 197.84,277.18 197.38,276.78 C 196.91,276.38 196.47,276.02 196.06,275.69 C 195.66,275.36 195.28,275.07 194.94,274.81 C 194.59,274.56 194.28,274.34 194.00,274.16 C 193.72,273.97 193.47,273.83 193.25,273.72 C 193.03,273.61 192.84,273.54 192.69,273.50 C 192.53,273.46 192.44,273.51 192.31,273.50 C 192.18,273.49 192.05,273.47 191.91,273.44 C 191.77,273.41 191.62,273.36 191.47,273.31 C 191.32,273.26 191.16,273.20 191.00,273.12 C 190.84,273.05 190.67,272.97 190.50,272.88 C 190.33,272.78 190.15,272.68 189.97,272.56 C 189.79,272.45 189.60,272.32 189.41,272.19 C 189.21,272.05 189.02,271.91 188.81,271.75 C 188.61,271.59 188.47,271.42 188.19,271.25 C 187.90,271.08 187.54,270.90 187.09,270.72 C 186.65,270.54 186.13,270.35 185.53,270.16 C 184.93,269.96 184.26,269.77 183.50,269.56 C 182.74,269.36 181.91,269.15 181.00,268.94 C 180.09,268.72 179.10,268.51 178.03,268.28 C 176.96,268.06 175.82,267.83 174.59,267.59 C 173.37,267.36 172.07,267.12 170.69,266.88 C 169.31,266.63 167.73,266.38 166.31,266.12 C 164.90,265.87 163.52,265.61 162.20,265.35 C 160.87,265.09 159.58,264.82 158.34,264.55 C 157.09,264.29 155.89,264.01 154.73,263.73 C 153.58,263.46 152.46,263.18 151.39,262.89 C 150.32,262.61 149.29,262.32 148.30,262.02 C 147.32,261.73 146.38,261.43 145.48,261.13 C 144.58,260.83 143.72,260.53 142.91,260.22 C 142.09,259.91 141.31,259.58 140.59,259.28 C 139.88,258.98 139.22,258.69 138.62,258.41 C 138.03,258.12 137.48,257.85 137.00,257.59 C 136.52,257.33 136.09,257.08 135.72,256.84 C 135.35,256.60 135.04,256.38 134.78,256.16 C 134.53,255.94 134.33,255.73 134.19,255.53 C 134.05,255.33 133.96,255.15 133.94,254.97 C 133.91,254.79 133.94,254.62 134.03,254.47 C 134.12,254.31 134.29,254.18 134.47,254.03 C 134.64,253.88 134.85,253.73 135.09,253.57 C 135.32,253.41 135.59,253.25 135.88,253.09 C 136.18,252.92 136.50,252.75 136.86,252.58 C 137.21,252.40 137.60,252.23 138.02,252.05 C 138.43,251.87 138.88,251.68 139.35,251.49 C 139.83,251.30 140.33,251.11 140.87,250.91 C 141.40,250.72 141.97,250.52 142.56,250.31 C 143.16,250.11 143.78,249.89 144.44,249.69 C 145.10,249.48 145.79,249.28 146.52,249.08 C 147.24,248.88 148.00,248.68 148.80,248.48 C 149.59,248.29 150.42,248.10 151.28,247.91 C 152.14,247.72 153.04,247.53 153.97,247.34 C 154.90,247.16 155.86,246.98 156.86,246.80 C 157.86,246.62 158.89,246.44 159.95,246.27 C 161.02,246.09 162.12,245.92 163.25,245.75 C 164.38,245.58 165.62,245.42 166.75,245.25 C 167.88,245.08 168.97,244.92 170.02,244.75 C 171.07,244.58 172.08,244.42 173.05,244.25 C 174.02,244.08 174.95,243.92 175.84,243.75 C 176.74,243.58 177.59,243.42 178.41,243.25 C 179.22,243.08 180.00,242.92 180.73,242.75 C 181.47,242.58 182.17,242.42 182.83,242.25 C 183.49,242.08 184.11,241.92 184.69,241.75 C 185.27,241.58 185.76,241.45 186.31,241.25 C 186.87,241.05 187.43,240.83 188.02,240.58 C 188.60,240.33 189.19,240.04 189.80,239.73 C 190.40,239.42 191.02,239.09 191.66,238.72 C 192.29,238.35 192.93,237.96 193.59,237.53 C 194.25,237.11 194.92,236.65 195.61,236.17 C 196.29,235.69 196.99,235.18 197.70,234.64 C 198.41,234.10 199.14,233.53 199.88,232.94 C 200.61,232.34 201.33,231.67 202.12,231.06 C 202.92,230.46 203.76,229.87 204.64,229.30 C 205.52,228.73 206.45,228.17 207.42,227.64 C 208.39,227.11 209.41,226.59 210.47,226.09 C 211.53,225.60 212.63,225.12 213.78,224.66 C 214.93,224.20 216.12,223.75 217.36,223.33 C 218.60,222.90 219.88,222.50 221.20,222.11 C 222.53,221.72 223.90,221.35 225.31,221.00 C 226.73,220.65 228.28,220.32 229.69,220.00 C 231.10,219.68 232.46,219.39 233.78,219.11 C 235.10,218.83 236.37,218.57 237.59,218.33 C 238.82,218.09 239.99,217.86 241.12,217.66 C 242.26,217.45 243.34,217.26 244.38,217.09 C 245.41,216.92 246.40,216.77 247.34,216.64 C 248.29,216.51 249.18,216.39 250.03,216.30 C 250.88,216.20 251.68,216.12 252.44,216.06 C 253.19,216.00 253.85,215.99 254.56,215.94 C 255.28,215.89 255.99,215.82 256.72,215.75 C 257.44,215.68 258.17,215.59 258.91,215.50 C 259.64,215.41 260.38,215.30 261.12,215.19 C 261.87,215.07 262.62,214.95 263.38,214.81 C 264.13,214.68 264.89,214.53 265.66,214.38 C 266.42,214.22 267.19,214.05 267.97,213.88 C 268.74,213.70 269.53,213.51 270.31,213.31 C 271.10,213.11 271.88,212.90 272.69,212.69 C 273.49,212.48 274.32,212.26 275.16,212.05 C 275.99,211.83 276.85,211.61 277.72,211.39 C 278.59,211.17 279.47,210.95 280.38,210.72 C 281.28,210.49 282.19,210.26 283.12,210.03 C 284.06,209.80 285.01,209.57 285.97,209.33 C 286.93,209.09 287.91,208.85 288.91,208.61 C 289.90,208.37 290.91,208.12 291.94,207.88 C 292.96,207.63 294.08,207.37 295.06,207.12 C 296.05,206.88 296.98,206.64 297.86,206.41 C 298.74,206.17 299.56,205.94 300.33,205.72 C 301.10,205.49 301.81,205.28 302.47,205.06 C 303.13,204.85 303.73,204.64 304.28,204.44 C 304.83,204.23 305.33,204.04 305.77,203.84 C 306.21,203.65 306.59,203.46 306.92,203.28 C 307.25,203.10 307.53,202.92 307.75,202.75 C 307.97,202.58 308.07,202.41 308.25,202.25 C 308.43,202.09 308.61,201.92 308.81,201.77 C 309.01,201.61 309.22,201.45 309.44,201.30 C 309.66,201.14 309.89,200.99 310.12,200.84 C 310.36,200.70 310.61,200.55 310.88,200.41 C 311.14,200.26 311.41,200.12 311.69,199.98 C 311.97,199.85 312.26,199.71 312.56,199.58 C 312.86,199.45 313.18,199.32 313.50,199.19 C 313.82,199.06 314.19,198.93 314.50,198.81 C 314.81,198.69 315.10,198.57 315.38,198.45 C 315.65,198.34 315.90,198.22 316.12,198.11 C 316.35,198.00 316.56,197.89 316.75,197.78 C 316.94,197.67 317.10,197.57 317.25,197.47 C 317.40,197.37 317.52,197.27 317.62,197.17 C 317.73,197.08 317.81,196.98 317.88,196.89 C 317.94,196.80 317.98,196.71 318.00,196.62 C 318.02,196.54 318.02,196.45 318.00,196.38 C 317.98,196.30 317.95,196.23 317.89,196.17 C 317.84,196.11 317.76,196.06 317.67,196.02 C 317.58,195.97 317.47,195.93 317.34,195.91 C 317.22,195.88 317.07,195.86 316.91,195.84 C 316.74,195.83 316.56,195.83 316.36,195.83 C 316.16,195.83 315.94,195.84 315.70,195.86 C 315.47,195.88 315.21,195.90 314.94,195.94 C 314.66,195.97 314.33,196.04 314.06,196.06 C 313.79,196.09 313.54,196.10 313.31,196.09 C 313.08,196.09 312.88,196.07 312.69,196.03 C 312.50,195.99 312.33,195.94 312.19,195.88 C 312.04,195.81 311.92,195.72 311.81,195.62 C 311.71,195.53 311.62,195.41 311.56,195.28 C 311.50,195.15 311.46,195.01 311.44,194.84 C 311.42,194.68 311.42,194.51 311.44,194.31 C 311.46,194.12 311.51,193.88 311.56,193.69 C 311.61,193.49 311.68,193.32 311.75,193.16 C 311.82,192.99 311.91,192.85 312.00,192.72 C 312.09,192.59 312.20,192.47 312.31,192.38 C 312.43,192.28 312.55,192.19 312.69,192.12 C 312.82,192.06 312.97,192.01 313.12,191.97 C 313.28,191.93 313.45,191.91 313.62,191.91 C 313.80,191.90 313.99,191.91 314.19,191.94 C 314.39,191.96 314.59,192.03 314.81,192.06 C 315.03,192.10 315.26,192.12 315.50,192.14 C 315.74,192.16 315.99,192.17 316.25,192.17 C 316.51,192.17 316.78,192.17 317.06,192.16 C 317.34,192.14 317.64,192.12 317.94,192.09 C 318.24,192.07 318.55,192.03 318.88,191.98 C 319.20,191.94 319.53,191.89 319.88,191.83 C 320.22,191.77 320.57,191.70 320.94,191.62 C 321.30,191.55 321.69,191.45 322.06,191.38 C 322.43,191.30 322.80,191.23 323.17,191.17 C 323.54,191.11 323.90,191.06 324.27,191.02 C 324.63,190.97 324.99,190.93 325.34,190.91 C 325.70,190.88 326.05,190.86 326.41,190.84 C 326.76,190.83 327.11,190.83 327.45,190.83 C 327.80,190.83 328.14,190.84 328.48,190.86 C 328.83,190.88 329.16,190.90 329.50,190.94 C 329.84,190.97 330.17,191.03 330.50,191.06 C 330.83,191.10 331.15,191.12 331.47,191.14 C 331.79,191.16 332.10,191.17 332.41,191.17 C 332.71,191.17 333.02,191.17 333.31,191.16 C 333.61,191.14 333.90,191.12 334.19,191.09 C 334.47,191.07 334.76,191.03 335.03,190.98 C 335.31,190.94 335.58,190.89 335.84,190.83 C 336.11,190.77 336.37,190.70 336.62,190.62 C 336.88,190.55 337.11,190.45 337.38,190.38 C 337.64,190.30 337.91,190.22 338.20,190.16 C 338.49,190.09 338.79,190.03 339.11,189.97 C 339.42,189.91 339.75,189.86 340.09,189.81 C 340.43,189.77 340.79,189.72 341.16,189.69 C 341.52,189.65 341.90,189.62 342.30,189.59 C 342.69,189.57 343.10,189.55 343.52,189.53 C 343.93,189.52 344.37,189.51 344.81,189.50 C 345.26,189.49 345.75,189.49 346.19,189.50 C 346.62,189.51 347.04,189.53 347.43,189.55 C 347.82,189.58 348.19,189.62 348.54,189.66 C 348.89,189.71 349.21,189.76 349.52,189.83 C 349.82,189.89 350.10,189.96 350.36,190.05 C 350.62,190.13 350.86,190.22 351.07,190.32 C 351.29,190.42 351.48,190.53 351.65,190.65 C 351.82,190.77 351.97,190.89 352.09,191.03 C 352.22,191.17 352.31,191.32 352.41,191.47 C 352.50,191.62 352.58,191.76 352.65,191.91 C 352.72,192.06 352.77,192.21 352.82,192.37 C 352.87,192.52 352.90,192.67 352.92,192.83 C 352.94,192.98 352.95,193.14 352.95,193.30 C 352.95,193.45 352.94,193.61 352.91,193.77 C 352.89,193.93 352.85,194.10 352.80,194.26 C 352.76,194.42 352.70,194.58 352.62,194.75 C 352.55,194.92 352.44,195.09 352.38,195.25 C 352.31,195.41 352.27,195.57 352.24,195.73 C 352.22,195.88 352.21,196.03 352.23,196.18 C 352.24,196.33 352.27,196.47 352.33,196.61 C 352.38,196.75 352.45,196.88 352.55,197.02 C 352.64,197.15 352.75,197.27 352.88,197.40 C 353.01,197.52 353.17,197.64 353.34,197.76 C 353.51,197.87 353.70,197.99 353.91,198.09 C 354.12,198.20 354.34,198.27 354.59,198.41 C 354.84,198.55 355.11,198.72 355.41,198.94 C 355.70,199.15 356.01,199.40 356.34,199.69 C 356.68,199.97 357.03,200.30 357.41,200.66 C 357.78,201.02 358.18,201.41 358.59,201.84 C 359.01,202.28 359.45,202.74 359.91,203.25 C 360.36,203.76 360.84,204.30 361.34,204.88 C 361.84,205.45 362.36,206.07 362.91,206.72 C 363.45,207.37 364.07,208.12 364.59,208.78 C 365.12,209.44 365.60,210.07 366.04,210.68 C 366.48,211.29 366.88,211.86 367.24,212.41 C 367.60,212.96 367.92,213.49 368.20,213.98 C 368.48,214.48 368.72,214.95 368.92,215.39 C 369.12,215.83 369.28,216.25 369.40,216.63 C 369.52,217.02 369.60,217.38 369.63,217.71 C 369.67,218.04 369.67,218.35 369.62,218.62 C 369.58,218.90 369.46,219.14 369.38,219.38 C 369.29,219.61 369.20,219.83 369.10,220.04 C 369.01,220.25 368.91,220.44 368.80,220.62 C 368.70,220.80 368.60,220.96 368.48,221.11 C 368.37,221.26 368.26,221.39 368.14,221.52 C 368.02,221.64 367.90,221.74 367.77,221.84 C 367.65,221.93 367.52,222.01 367.38,222.07 C 367.25,222.13 367.11,222.18 366.97,222.22 C 366.83,222.25 366.70,222.27 366.53,222.28 C 366.36,222.29 366.17,222.30 365.96,222.29 C 365.75,222.28 365.51,222.27 365.26,222.24 C 365.00,222.22 364.72,222.18 364.42,222.14 C 364.12,222.10 363.80,222.05 363.45,221.98 C 363.11,221.92 362.74,221.85 362.35,221.77 C 361.96,221.69 361.55,221.61 361.12,221.51 C 360.68,221.41 360.23,221.30 359.75,221.19 C 359.27,221.07 358.74,220.95 358.25,220.81 C 357.76,220.67 357.29,220.52 356.83,220.34 C 356.37,220.17 355.92,219.98 355.48,219.78 C 355.05,219.58 354.63,219.36 354.22,219.12 C 353.81,218.89 353.41,218.64 353.03,218.38 C 352.65,218.11 352.28,217.83 351.92,217.53 C 351.57,217.23 351.22,216.92 350.89,216.59 C 350.56,216.27 350.24,215.92 349.94,215.56 C 349.63,215.20 349.34,214.78 349.06,214.44 C 348.78,214.10 348.51,213.79 348.26,213.51 C 348.00,213.23 347.76,212.99 347.52,212.77 C 347.29,212.56 347.07,212.38 346.86,212.23 C 346.65,212.09 346.45,211.97 346.27,211.89 C 346.08,211.81 345.90,211.76 345.74,211.74 C 345.58,211.73 345.43,211.74 345.29,211.79 C 345.15,211.84 345.02,211.92 344.91,212.03 C 344.79,212.14 344.66,212.29 344.59,212.47 C 344.53,212.64 344.50,212.85 344.52,213.08 C 344.53,213.31 344.58,213.57 344.67,213.86 C 344.76,214.15 344.89,214.47 345.06,214.81 C 345.23,215.16 345.44,215.53 345.69,215.94 C 345.93,216.34 346.22,216.77 346.55,217.23 C 346.87,217.70 347.24,218.18 347.64,218.70 C 348.04,219.22 348.49,219.77 348.97,220.34 C 349.45,220.92 350.01,221.58 350.53,222.16 C 351.05,222.73 351.58,223.28 352.10,223.80 C 352.63,224.33 353.15,224.82 353.68,225.29 C 354.21,225.76 354.74,226.20 355.27,226.61 C 355.80,227.02 356.33,227.41 356.86,227.77 C 357.39,228.12 357.93,228.45 358.46,228.76 C 359.00,229.06 359.53,229.34 360.07,229.59 C 360.61,229.83 361.15,230.06 361.69,230.25 C 362.23,230.44 362.79,230.58 363.31,230.75 C 363.83,230.92 364.33,231.10 364.80,231.29 C 365.28,231.48 365.73,231.67 366.16,231.87 C 366.60,232.07 367.00,232.27 367.39,232.48 C 367.78,232.70 368.14,232.92 368.48,233.14 C 368.83,233.37 369.15,233.60 369.45,233.84 C 369.74,234.07 370.02,234.32 370.27,234.57 C 370.53,234.82 370.76,235.08 370.97,235.34 C 371.18,235.61 371.37,235.89 371.53,236.16 C 371.70,236.43 371.84,236.70 371.95,236.97 C 372.07,237.24 372.16,237.51 372.23,237.78 C 372.30,238.05 372.35,238.32 372.38,238.59 C 372.40,238.86 372.40,239.14 372.38,239.41 C 372.35,239.68 372.30,239.95 372.23,240.22 C 372.16,240.49 372.07,240.76 371.95,241.03 C 371.84,241.30 371.70,241.57 371.53,241.84 C 371.37,242.11 371.17,242.40 370.97,242.66 C 370.76,242.91 370.54,243.15 370.30,243.38 C 370.07,243.61 369.81,243.82 369.54,244.02 C 369.27,244.22 368.98,244.41 368.67,244.58 C 368.37,244.75 368.04,244.90 367.70,245.05 C 367.36,245.19 367.01,245.32 366.63,245.43 C 366.26,245.54 365.87,245.64 365.46,245.73 C 365.05,245.81 364.63,245.88 364.19,245.94 C 363.75,245.99 363.26,246.02 362.81,246.06 C 362.36,246.11 361.93,246.16 361.50,246.22 C 361.07,246.28 360.66,246.34 360.25,246.41 C 359.84,246.47 359.45,246.55 359.06,246.62 C 358.68,246.70 358.30,246.79 357.94,246.88 C 357.57,246.96 357.22,247.06 356.88,247.16 C 356.53,247.26 356.20,247.36 355.88,247.47 C 355.55,247.58 355.24,247.69 354.94,247.81 C 354.64,247.93 354.34,248.06 354.06,248.19 C 353.78,248.31 353.51,248.44 353.26,248.57 C 353.00,248.70 352.76,248.83 352.52,248.96 C 352.29,249.09 352.07,249.23 351.86,249.36 C 351.65,249.49 351.45,249.63 351.27,249.77 C 351.08,249.90 350.90,250.04 350.74,250.18 C 350.58,250.32 350.43,250.46 350.29,250.60 C 350.15,250.74 350.02,250.89 349.91,251.03 C 349.79,251.18 349.69,251.32 349.59,251.47 C 349.50,251.62 349.40,251.77 349.32,251.93 C 349.24,252.09 349.16,252.25 349.09,252.41 C 349.01,252.58 348.95,252.75 348.89,252.92 C 348.83,253.10 348.78,253.27 348.73,253.45 C 348.69,253.63 348.65,253.82 348.62,254.01 C 348.58,254.20 348.56,254.39 348.54,254.59 C 348.52,254.78 348.51,254.98 348.50,255.19 C 348.49,255.39 348.49,255.61 348.50,255.81 C 348.51,256.02 348.52,256.22 348.54,256.41 C 348.56,256.61 348.58,256.80 348.62,256.99 C 348.65,257.18 348.69,257.37 348.73,257.55 C 348.78,257.73 348.83,257.90 348.89,258.08 C 348.95,258.25 349.01,258.42 349.09,258.59 C 349.16,258.75 349.24,258.91 349.32,259.07 C 349.40,259.23 349.50,259.38 349.59,259.53 C 349.69,259.68 349.79,259.82 349.91,259.97 C 350.02,260.11 350.15,260.26 350.29,260.40 C 350.43,260.54 350.58,260.68 350.74,260.82 C 350.90,260.96 351.08,261.10 351.27,261.23 C 351.45,261.37 351.65,261.51 351.86,261.64 C 352.07,261.77 352.29,261.91 352.52,262.04 C 352.76,262.17 353.00,262.30 353.26,262.43 C 353.51,262.56 353.78,262.69 354.06,262.81 C 354.34,262.94 354.64,263.07 354.94,263.19 C 355.24,263.31 355.55,263.42 355.88,263.53 C 356.20,263.64 356.53,263.74 356.88,263.84 C 357.22,263.94 357.57,264.04 357.94,264.12 C 358.30,264.21 358.68,264.30 359.06,264.38 C 359.45,264.45 359.84,264.53 360.25,264.59 C 360.66,264.66 361.07,264.72 361.50,264.78 C 361.93,264.84 362.36,264.89 362.81,264.94 C 363.26,264.98 363.75,265.01 364.19,265.06 C 364.63,265.12 365.05,265.19 365.46,265.27 C 365.87,265.36 366.26,265.46 366.63,265.57 C 367.01,265.68 367.36,265.81 367.70,265.95 C 368.04,266.10 368.37,266.25 368.67,266.42 C 368.98,266.59 369.27,266.78 369.54,266.98 C 369.81,267.18 370.07,267.39 370.30,267.62 C 370.54,267.85 370.76,268.09 370.97,268.34 C 371.17,268.60 371.37,268.89 371.53,269.16 C 371.70,269.43 371.84,269.70 371.95,269.97 C 372.07,270.24 372.16,270.51 372.23,270.78 C 372.30,271.05 372.35,271.32 372.38,271.59 C 372.40,271.86 372.40,272.14 372.38,272.41 C 372.35,272.68 372.30,272.95 372.23,273.22 C 372.16,273.49 372.07,273.76 371.95,274.03 C 371.84,274.30 371.70,274.57 371.53,274.84 C 371.37,275.11 371.18,275.39 370.97,275.66 C 370.76,275.92 370.53,276.18 370.27,276.43 C 370.02,276.68 369.74,276.93 369.45,277.16 C 369.15,277.40 368.83,277.63 368.48,277.86 C 368.14,278.08 367.78,278.30 367.39,278.52 C 367.00,278.73 366.60,278.93 366.16,279.13 C 365.73,279.33 365.28,279.52 364.80,279.71 C 364.33,279.90 363.83,280.08 363.31,280.25 C 362.79,280.42 362.21,280.57 361.69,280.75 C 361.16,280.93 360.65,281.13 360.15,281.35 C 359.65,281.57 359.17,281.80 358.70,282.05 C 358.23,282.31 357.77,282.57 357.33,282.86 C 356.89,283.14 356.46,283.45 356.05,283.77 C 355.63,284.08 355.24,284.42 354.85,284.77 C 354.47,285.13 354.10,285.50 353.74,285.88 C 353.39,286.27 353.05,286.67 352.72,287.09 C 352.39,287.51 352.09,287.99 351.78,288.41 C 351.48,288.82 351.18,289.22 350.88,289.60 C 350.59,289.98 350.30,290.34 350.02,290.68 C 349.74,291.02 349.47,291.34 349.20,291.64 C 348.94,291.94 348.68,292.22 348.42,292.48 C 348.17,292.75 347.92,292.99 347.68,293.21 C 347.44,293.43 347.20,293.64 346.98,293.82 C 346.75,294.00 346.53,294.17 346.31,294.31 C 346.10,294.46 345.88,294.56 345.69,294.69 C 345.50,294.82 345.33,294.95 345.18,295.09 C 345.03,295.22 344.90,295.36 344.79,295.51 C 344.68,295.65 344.59,295.80 344.52,295.95 C 344.44,296.11 344.39,296.26 344.36,296.42 C 344.33,296.58 344.31,296.75 344.32,296.91 C 344.33,297.08 344.35,297.25 344.40,297.43 C 344.44,297.61 344.51,297.79 344.59,297.97 C 344.68,298.15 344.79,298.38 344.91,298.53 C 345.02,298.68 345.15,298.80 345.29,298.88 C 345.43,298.96 345.58,299.01 345.74,299.02 C 345.90,299.04 346.08,299.01 346.27,298.95 C 346.45,298.89 346.65,298.80 346.86,298.67 C 347.07,298.54 347.29,298.38 347.52,298.18 C 347.76,297.98 348.00,297.75 348.26,297.48 C 348.51,297.21 348.78,296.90 349.06,296.56 C 349.34,296.22 349.63,295.80 349.94,295.44 C 350.24,295.08 350.56,294.73 350.89,294.41 C 351.22,294.08 351.57,293.77 351.92,293.47 C 352.28,293.17 352.65,292.89 353.03,292.62 C 353.41,292.36 353.81,292.11 354.22,291.88 C 354.63,291.64 355.05,291.42 355.48,291.22 C 355.92,291.02 356.37,290.83 356.83,290.66 C 357.29,290.48 357.76,290.33 358.25,290.19 C 358.74,290.05 359.27,289.93 359.75,289.81 C 360.23,289.70 360.68,289.59 361.11,289.48 C 361.54,289.38 361.95,289.29 362.33,289.20 C 362.71,289.12 363.07,289.04 363.41,288.97 C 363.74,288.90 364.05,288.84 364.34,288.78 C 364.63,288.73 364.90,288.68 365.14,288.64 C 365.38,288.60 365.60,288.57 365.80,288.55 C 365.99,288.52 366.16,288.51 366.31,288.50 C 366.46,288.49 366.56,288.49 366.69,288.50 C 366.81,288.51 366.93,288.54 367.05,288.57 C 367.18,288.61 367.30,288.65 367.41,288.71 C 367.53,288.77 367.65,288.84 367.77,288.92 C 367.88,289.00 368.00,289.10 368.11,289.20 C 368.22,289.31 368.33,289.43 368.45,289.55 C 368.56,289.68 368.67,289.82 368.77,289.98 C 368.88,290.13 368.99,290.29 369.09,290.47 C 369.20,290.64 369.33,290.82 369.41,291.03 C 369.48,291.25 369.52,291.49 369.52,291.76 C 369.53,292.03 369.50,292.32 369.45,292.65 C 369.39,292.97 369.30,293.32 369.17,293.70 C 369.05,294.08 368.89,294.49 368.70,294.92 C 368.51,295.36 368.29,295.82 368.04,296.30 C 367.79,296.79 367.50,297.31 367.18,297.85 C 366.86,298.39 366.51,298.96 366.12,299.56 C 365.74,300.16 365.27,300.84 364.88,301.44 C 364.48,302.03 364.09,302.60 363.73,303.13 C 363.36,303.67 363.01,304.17 362.68,304.65 C 362.35,305.12 362.03,305.57 361.73,305.98 C 361.44,306.40 361.15,306.79 360.89,307.14 C 360.63,307.50 360.38,307.82 360.15,308.12 C 359.92,308.41 359.70,308.68 359.51,308.91 C 359.31,309.15 359.13,309.36 358.97,309.53 C 358.81,309.71 358.68,309.83 358.53,309.97 C 358.38,310.11 358.22,310.25 358.05,310.39 C 357.88,310.53 357.70,310.66 357.52,310.80 C 357.33,310.93 357.14,311.06 356.94,311.19 C 356.74,311.32 356.53,311.44 356.31,311.56 C 356.10,311.68 355.87,311.80 355.64,311.92 C 355.41,312.04 355.17,312.15 354.92,312.27 C 354.67,312.38 354.42,312.49 354.16,312.59 C 353.89,312.70 353.59,312.80 353.34,312.91 C 353.09,313.01 352.86,313.11 352.66,313.22 C 352.45,313.32 352.26,313.43 352.09,313.53 C 351.93,313.64 351.78,313.74 351.66,313.84 C 351.53,313.95 351.43,314.05 351.34,314.16 C 351.26,314.26 351.20,314.36 351.16,314.47 C 351.11,314.57 351.09,314.68 351.09,314.78 C 351.09,314.89 351.11,314.99 351.16,315.09 C 351.20,315.20 351.28,315.31 351.34,315.41 C 351.41,315.50 351.47,315.59 351.53,315.67 C 351.59,315.75 351.66,315.83 351.72,315.89 C 351.78,315.96 351.84,316.01 351.91,316.06 C 351.97,316.11 352.03,316.15 352.09,316.19 C 352.16,316.22 352.22,316.25 352.28,316.27 C 352.34,316.28 352.41,316.29 352.47,316.30 C 352.53,316.30 352.59,316.29 352.66,316.28 C 352.72,316.27 352.79,316.22 352.84,316.22 C 352.90,316.21 352.94,316.22 352.97,316.25 C 353.00,316.28 353.02,316.32 353.03,316.38 C 353.04,316.43 353.04,316.51 353.03,316.59 C 353.02,316.68 353.00,316.79 352.97,316.91 C 352.94,317.03 352.90,317.16 352.84,317.31 C 352.79,317.46 352.73,317.63 352.66,317.81 C 352.58,317.99 352.50,318.19 352.41,318.41 C 352.31,318.62 352.30,318.88 352.09,319.09 C 351.89,319.30 351.59,319.49 351.20,319.66 C 350.80,319.83 350.30,319.99 349.71,320.12 C 349.12,320.25 348.43,320.36 347.64,320.45 C 346.85,320.55 345.97,320.62 344.98,320.67 C 344.00,320.73 342.92,320.76 341.74,320.77 C 340.56,320.79 339.29,320.78 337.91,320.76 C 336.54,320.73 335.07,320.69 333.50,320.62 Z" fill="none" stroke="currentColor" stroke-width="1.5" stroke-linejoin="round" stroke-linecap="round" filter="url(#glow)" />
</svg>