<svg xmlns="http://www.w3.org/2000/svg" width="512" height="512" viewBox="111.12 219.50 269.91 72.00" preserveAspectRatio="xMidYMid meet">
  <defs>
    <filter id="glow" x="-30%" y="-30%" width="160%" height="160%">
      <feGaussianBlur in="SourceGraphic" stdDeviation="2.4" result="blur" />
      <feMerge>
        <feMergeNode in="blur" />
        <feMergeNode in="SourceGraphic" />
      </feMerge>
    </filter>
    <clipPath id="hull-clip">
      <path d="M 246.38,285.50 C 244.15,285.50 241.88,285.52 239.62,285.50 C 237.37,285.48 235.10,285.45 232.83,285.39 C 230.55,285.34 228.27,285.26 225.98,285.17 C 223.70,285.08 221.40,284.97 219.09,284.84 C 216.79,284.72 214.48,284.57 212.16,284.41 C 209.84,284.24 207.51,284.06 205.17,283.86 C 202.84,283.66 200.49,283.44 198.14,283.20 C 195.79,282.97 193.43,282.71 191.06,282.44 C 188.70,282.16 186.21,281.85 183.94,281.56 C 181.67,281.28 179.50,280.99 177.44,280.72 C 175.38,280.44 173.42,280.17 171.56,279.91 C 169.71,279.64 167.96,279.38 166.31,279.12 C 164.67,278.87 163.12,278.62 161.69,278.38 C 160.25,278.13 158.92,277.89 157.69,277.66 C 156.46,277.42 155.33,277.19 154.31,276.97 C 153.29,276.74 152.38,276.53 151.56,276.31 C 150.75,276.10 150.12,275.89 149.44,275.69 C 148.76,275.48 148.11,275.28 147.49,275.09 C 146.87,274.89 146.29,274.70 145.73,274.51 C 145.17,274.32 144.64,274.13 144.14,273.95 C 143.64,273.77 143.17,273.60 142.73,273.42 C 142.30,273.25 141.89,273.08 141.51,272.91 C 141.13,272.75 140.78,272.59 140.46,272.43 C 140.14,272.27 139.85,272.12 139.59,271.97 C 139.33,271.82 139.10,271.67 138.91,271.53 C 138.72,271.39 138.57,271.25 138.45,271.11 C 138.34,270.97 138.27,270.84 138.23,270.70 C 138.20,270.57 138.21,270.44 138.25,270.31 C 138.29,270.18 138.38,270.06 138.50,269.94 C 138.62,269.82 138.78,269.70 138.98,269.58 C 139.18,269.46 139.42,269.35 139.70,269.23 C 139.98,269.12 140.30,269.01 140.66,268.91 C 141.01,268.80 141.42,268.69 141.84,268.59 C 142.27,268.50 142.73,268.40 143.21,268.32 C 143.70,268.24 144.21,268.16 144.76,268.09 C 145.30,268.01 145.88,267.95 146.48,267.89 C 147.09,267.83 147.73,267.78 148.39,267.73 C 149.06,267.69 149.75,267.65 150.48,267.62 C 151.20,267.58 151.96,267.56 152.74,267.54 C 153.53,267.52 154.34,267.51 155.19,267.50 C 156.03,267.49 156.99,267.51 157.81,267.50 C 158.63,267.49 159.39,267.48 160.09,267.47 C 160.80,267.45 161.44,267.43 162.03,267.41 C 162.62,267.38 163.15,267.35 163.62,267.31 C 164.10,267.28 164.52,267.23 164.88,267.19 C 165.23,267.14 165.54,267.09 165.78,267.03 C 166.03,266.97 166.21,266.91 166.34,266.84 C 166.47,266.78 166.55,266.70 166.56,266.62 C 166.58,266.55 166.51,266.46 166.44,266.38 C 166.36,266.29 166.25,266.20 166.11,266.11 C 165.97,266.02 165.79,265.92 165.58,265.83 C 165.37,265.73 165.12,265.63 164.84,265.53 C 164.57,265.43 164.25,265.33 163.91,265.22 C 163.56,265.11 163.18,265.00 162.77,264.89 C 162.35,264.78 161.90,264.66 161.42,264.55 C 160.94,264.43 160.42,264.31 159.88,264.19 C 159.33,264.07 158.69,263.94 158.12,263.81 C 157.56,263.68 157.01,263.55 156.47,263.41 C 155.93,263.27 155.41,263.12 154.91,262.97 C 154.40,262.82 153.91,262.66 153.44,262.50 C 152.96,262.34 152.51,262.17 152.06,262.00 C 151.62,261.83 151.19,261.65 150.78,261.47 C 150.37,261.29 149.97,261.10 149.59,260.91 C 149.21,260.71 148.85,260.52 148.50,260.31 C 148.15,260.11 147.88,259.88 147.50,259.69 C 147.12,259.49 146.70,259.31 146.23,259.14 C 145.77,258.97 145.26,258.82 144.70,258.67 C 144.15,258.53 143.55,258.40 142.91,258.28 C 142.26,258.16 141.58,258.06 140.84,257.97 C 140.11,257.88 139.34,257.80 138.52,257.73 C 137.70,257.67 136.83,257.62 135.92,257.58 C 135.01,257.54 134.06,257.51 133.06,257.50 C 132.07,257.49 130.92,257.50 129.94,257.50 C 128.95,257.50 128.03,257.49 127.16,257.48 C 126.30,257.46 125.49,257.45 124.74,257.43 C 123.99,257.41 123.30,257.39 122.67,257.36 C 122.04,257.33 121.47,257.30 120.95,257.27 C 120.44,257.23 119.98,257.19 119.59,257.15 C 119.19,257.11 118.85,257.06 118.57,257.01 C 118.29,256.96 118.07,256.90 117.91,256.84 C 117.74,256.79 117.68,256.72 117.59,256.66 C 117.50,256.59 117.42,256.52 117.36,256.45 C 117.29,256.38 117.24,256.31 117.20,256.23 C 117.16,256.16 117.14,256.08 117.12,256.00 C 117.11,255.92 117.11,255.84 117.12,255.75 C 117.14,255.66 117.16,255.58 117.20,255.48 C 117.24,255.39 117.29,255.30 117.36,255.20 C 117.42,255.11 117.50,255.01 117.59,254.91 C 117.68,254.80 117.74,254.69 117.91,254.59 C 118.07,254.50 118.29,254.40 118.57,254.32 C 118.85,254.24 119.19,254.16 119.59,254.09 C 119.98,254.01 120.44,253.95 120.95,253.89 C 121.47,253.83 122.04,253.78 122.67,253.73 C 123.30,253.69 123.99,253.65 124.74,253.62 C 125.49,253.58 126.30,253.56 127.16,253.54 C 128.03,253.52 128.95,253.51 129.94,253.50 C 130.92,253.49 132.07,253.51 133.06,253.50 C 134.06,253.49 135.01,253.46 135.92,253.42 C 136.83,253.38 137.70,253.33 138.52,253.27 C 139.34,253.20 140.11,253.12 140.84,253.03 C 141.58,252.94 142.26,252.84 142.91,252.72 C 143.55,252.60 144.15,252.47 144.70,252.33 C 145.26,252.18 145.77,252.03 146.23,251.86 C 146.70,251.69 147.12,251.51 147.50,251.31 C 147.88,251.12 148.15,250.89 148.50,250.69 C 148.85,250.48 149.21,250.29 149.59,250.09 C 149.97,249.90 150.37,249.71 150.78,249.53 C 151.19,249.35 151.62,249.17 152.06,249.00 C 152.51,248.83 152.96,248.66 153.44,248.50 C 153.91,248.34 154.40,248.18 154.91,248.03 C 155.41,247.88 155.93,247.73 156.47,247.59 C 157.01,247.45 157.56,247.32 158.12,247.19 C 158.69,247.06 159.33,246.93 159.88,246.81 C 160.42,246.69 160.94,246.57 161.42,246.45 C 161.90,246.34 162.35,246.22 162.77,246.11 C 163.18,246.00 163.56,245.89 163.91,245.78 C 164.25,245.67 164.57,245.57 164.84,245.47 C 165.12,245.37 165.37,245.27 165.58,245.17 C 165.79,245.08 165.97,244.98 166.11,244.89 C 166.25,244.80 166.36,244.71 166.44,244.62 C 166.51,244.54 166.58,244.45 166.56,244.38 C 166.55,244.30 166.47,244.22 166.34,244.16 C 166.21,244.09 166.03,244.03 165.78,243.97 C 165.54,243.91 165.23,243.86 164.88,243.81 C 164.52,243.77 164.10,243.72 163.62,243.69 C 163.15,243.65 162.62,243.62 162.03,243.59 C 161.44,243.57 160.80,243.55 160.09,243.53 C 159.39,243.52 158.63,243.51 157.81,243.50 C 156.99,243.49 156.03,243.51 155.19,243.50 C 154.34,243.49 153.53,243.48 152.74,243.46 C 151.96,243.44 151.20,243.42 150.48,243.38 C 149.75,243.35 149.06,243.31 148.39,243.27 C 147.73,243.22 147.09,243.17 146.48,243.11 C 145.88,243.05 145.30,242.99 144.76,242.91 C 144.21,242.84 143.70,242.76 143.21,242.68 C 142.73,242.60 142.27,242.50 141.84,242.41 C 141.42,242.31 141.01,242.20 140.66,242.09 C 140.30,241.99 139.98,241.88 139.70,241.77 C 139.42,241.65 139.18,241.54 138.98,241.42 C 138.78,241.30 138.62,241.18 138.50,241.06 C 138.38,240.94 138.29,240.82 138.25,240.69 C 138.21,240.56 138.20,240.43 138.23,240.30 C 138.27,240.16 138.34,240.03 138.45,239.89 C 138.57,239.75 138.72,239.61 138.91,239.47 C 139.10,239.33 139.33,239.18 139.59,239.03 C 139.85,238.88 140.14,238.73 140.46,238.57 C 140.78,238.41 141.13,238.25 141.51,238.09 C 141.89,237.92 142.30,237.75 142.73,237.58 C 143.17,237.40 143.64,237.23 144.14,237.05 C 144.64,236.87 145.17,236.68 145.73,236.49 C 146.29,236.30 146.87,236.11 147.49,235.91 C 148.11,235.72 148.76,235.52 149.44,235.31 C 150.12,235.11 150.75,234.90 151.56,234.69 C 152.37,234.47 153.28,234.26 154.30,234.03 C 155.31,233.81 156.42,233.58 157.64,233.34 C 158.86,233.11 160.17,232.87 161.59,232.62 C 163.01,232.38 164.53,232.13 166.16,231.88 C 167.78,231.62 169.50,231.36 171.33,231.09 C 173.15,230.83 175.08,230.56 177.11,230.28 C 179.14,230.01 181.27,229.72 183.50,229.44 C 185.73,229.15 188.19,228.84 190.50,228.56 C 192.81,228.29 195.09,228.03 197.34,227.80 C 199.60,227.56 201.83,227.34 204.03,227.14 C 206.23,226.94 208.41,226.76 210.56,226.59 C 212.71,226.43 214.84,226.28 216.94,226.16 C 219.04,226.03 221.11,225.92 223.16,225.83 C 225.20,225.74 227.22,225.66 229.22,225.61 C 231.21,225.55 233.18,225.52 235.12,225.50 C 237.07,225.48 238.94,225.50 240.88,225.50 C 242.81,225.50 244.76,225.51 246.72,225.52 C 248.68,225.52 250.66,225.53 252.66,225.55 C 254.65,225.56 256.66,225.58 258.69,225.59 C 260.71,225.61 262.76,225.63 264.81,225.66 C 266.87,225.68 268.94,225.71 271.03,225.73 C 273.12,225.76 275.22,225.79 277.34,225.83 C 279.46,225.86 281.60,225.90 283.75,225.94 C 285.90,225.98 288.10,226.02 290.25,226.06 C 292.40,226.11 294.53,226.16 296.64,226.22 C 298.75,226.28 300.85,226.34 302.92,226.41 C 305.00,226.47 307.05,226.55 309.09,226.62 C 311.13,226.70 313.15,226.79 315.16,226.88 C 317.16,226.96 319.14,227.06 321.11,227.16 C 323.08,227.26 325.02,227.36 326.95,227.47 C 328.88,227.58 330.79,227.69 332.69,227.81 C 334.58,227.93 336.51,228.06 338.31,228.19 C 340.11,228.31 341.84,228.44 343.49,228.57 C 345.14,228.70 346.72,228.83 348.23,228.96 C 349.73,229.09 351.16,229.23 352.52,229.36 C 353.87,229.49 355.15,229.63 356.36,229.77 C 357.57,229.90 358.70,230.04 359.76,230.18 C 360.82,230.32 361.80,230.46 362.71,230.60 C 363.62,230.74 364.46,230.89 365.22,231.03 C 365.98,231.18 366.64,231.32 367.28,231.47 C 367.92,231.61 368.52,231.76 369.06,231.91 C 369.61,232.05 370.11,232.20 370.56,232.34 C 371.02,232.49 371.42,232.64 371.78,232.78 C 372.14,232.93 372.45,233.07 372.72,233.22 C 372.98,233.36 373.20,233.51 373.38,233.66 C 373.55,233.80 373.67,233.95 373.75,234.09 C 373.83,234.24 373.86,234.39 373.84,234.53 C 373.83,234.68 373.75,234.82 373.66,234.97 C 373.56,235.12 373.44,235.26 373.29,235.41 C 373.14,235.56 372.95,235.71 372.74,235.87 C 372.53,236.02 372.29,236.17 372.02,236.33 C 371.74,236.48 371.44,236.64 371.11,236.80 C 370.78,236.95 370.42,237.11 370.02,237.27 C 369.63,237.43 369.21,237.60 368.76,237.76 C 368.31,237.92 367.82,238.08 367.31,238.25 C 366.80,238.42 366.31,238.59 365.69,238.75 C 365.07,238.91 364.36,239.06 363.58,239.20 C 362.79,239.35 361.93,239.48 360.98,239.61 C 360.04,239.74 359.01,239.86 357.91,239.97 C 356.80,240.08 355.61,240.18 354.34,240.28 C 353.08,240.38 351.73,240.47 350.30,240.55 C 348.87,240.63 347.36,240.70 345.77,240.77 C 344.17,240.83 342.50,240.89 340.75,240.94 C 339.00,240.99 337.02,241.02 335.25,241.06 C 333.48,241.11 331.79,241.16 330.16,241.22 C 328.53,241.28 326.96,241.34 325.47,241.41 C 323.97,241.47 322.55,241.55 321.19,241.62 C 319.83,241.70 318.54,241.79 317.31,241.88 C 316.09,241.96 314.93,242.06 313.84,242.16 C 312.76,242.26 311.73,242.36 310.78,242.47 C 309.83,242.58 308.94,242.69 308.12,242.81 C 307.31,242.93 306.58,243.06 305.88,243.19 C 305.17,243.31 304.52,243.44 303.92,243.56 C 303.32,243.69 302.77,243.81 302.27,243.94 C 301.76,244.06 301.31,244.19 300.91,244.31 C 300.50,244.44 300.15,244.56 299.84,244.69 C 299.54,244.81 299.28,244.94 299.08,245.06 C 298.87,245.19 298.72,245.31 298.61,245.44 C 298.50,245.56 298.45,245.69 298.44,245.81 C 298.43,245.94 298.55,246.07 298.56,246.19 C 298.57,246.30 298.55,246.41 298.49,246.51 C 298.44,246.61 298.35,246.69 298.23,246.77 C 298.11,246.85 297.95,246.92 297.77,246.98 C 297.58,247.05 297.36,247.10 297.11,247.14 C 296.86,247.18 296.57,247.22 296.26,247.24 C 295.94,247.27 295.59,247.28 295.21,247.29 C 294.83,247.30 294.42,247.29 293.97,247.28 C 293.52,247.27 292.98,247.23 292.53,247.22 C 292.08,247.20 291.67,247.19 291.28,247.19 C 290.90,247.18 290.54,247.18 290.22,247.19 C 289.90,247.19 289.60,247.20 289.34,247.22 C 289.08,247.23 288.85,247.26 288.66,247.28 C 288.46,247.31 288.29,247.34 288.16,247.38 C 288.02,247.41 287.92,247.45 287.84,247.50 C 287.77,247.55 287.73,247.60 287.72,247.66 C 287.71,247.71 287.74,247.78 287.78,247.84 C 287.83,247.91 287.90,247.97 287.99,248.04 C 288.09,248.11 288.21,248.17 288.35,248.24 C 288.50,248.31 288.67,248.38 288.86,248.45 C 289.05,248.52 289.27,248.60 289.52,248.67 C 289.76,248.75 290.03,248.82 290.32,248.90 C 290.61,248.98 290.93,249.05 291.27,249.13 C 291.62,249.21 291.98,249.29 292.38,249.38 C 292.77,249.46 293.22,249.54 293.62,249.62 C 294.03,249.71 294.43,249.81 294.82,249.91 C 295.21,250.02 295.59,250.13 295.96,250.24 C 296.33,250.36 296.69,250.48 297.05,250.61 C 297.40,250.74 297.74,250.87 298.08,251.02 C 298.41,251.16 298.74,251.31 299.05,251.46 C 299.37,251.62 299.68,251.78 299.98,251.95 C 300.27,252.11 300.56,252.29 300.84,252.47 C 301.12,252.65 301.41,252.84 301.66,253.03 C 301.90,253.22 302.12,253.41 302.31,253.59 C 302.51,253.78 302.67,253.97 302.81,254.16 C 302.95,254.34 303.07,254.53 303.16,254.72 C 303.24,254.91 303.31,255.09 303.34,255.28 C 303.38,255.47 303.39,255.66 303.38,255.84 C 303.36,256.03 303.32,256.22 303.25,256.41 C 303.18,256.59 303.09,256.78 302.97,256.97 C 302.85,257.16 302.70,257.35 302.53,257.53 C 302.36,257.71 302.17,257.89 301.95,258.07 C 301.73,258.25 301.48,258.42 301.21,258.59 C 300.94,258.75 300.65,258.92 300.33,259.08 C 300.01,259.24 299.67,259.39 299.30,259.55 C 298.93,259.70 298.54,259.85 298.12,259.99 C 297.70,260.14 297.26,260.28 296.79,260.41 C 296.32,260.55 295.83,260.68 295.31,260.81 C 294.80,260.94 294.20,261.07 293.69,261.19 C 293.18,261.31 292.71,261.43 292.27,261.55 C 291.83,261.66 291.42,261.78 291.05,261.89 C 290.67,262.00 290.34,262.11 290.03,262.22 C 289.73,262.33 289.46,262.43 289.22,262.53 C 288.98,262.63 288.78,262.73 288.61,262.83 C 288.44,262.92 288.30,263.02 288.20,263.11 C 288.10,263.20 288.03,263.29 288.00,263.38 C 287.97,263.46 287.97,263.55 288.00,263.62 C 288.03,263.70 288.09,263.77 288.17,263.83 C 288.26,263.89 288.37,263.94 288.52,263.98 C 288.66,264.03 288.83,264.07 289.03,264.09 C 289.23,264.12 289.46,264.14 289.72,264.16 C 289.98,264.17 290.26,264.17 290.58,264.17 C 290.89,264.17 291.24,264.16 291.61,264.14 C 291.98,264.12 292.38,264.10 292.81,264.06 C 293.24,264.03 293.76,263.97 294.19,263.94 C 294.61,263.91 295.01,263.89 295.38,263.88 C 295.74,263.86 296.07,263.86 296.38,263.88 C 296.68,263.89 296.95,263.91 297.19,263.94 C 297.43,263.97 297.64,264.01 297.81,264.06 C 297.99,264.11 298.14,264.18 298.25,264.25 C 298.36,264.32 298.45,264.41 298.50,264.50 C 298.55,264.59 298.57,264.70 298.56,264.81 C 298.55,264.93 298.43,265.06 298.44,265.19 C 298.45,265.31 298.50,265.44 298.61,265.56 C 298.72,265.69 298.87,265.81 299.08,265.94 C 299.28,266.06 299.54,266.19 299.84,266.31 C 300.15,266.44 300.50,266.56 300.91,266.69 C 301.31,266.81 301.76,266.94 302.27,267.06 C 302.77,267.19 303.32,267.31 303.92,267.44 C 304.52,267.56 305.17,267.69 305.88,267.81 C 306.58,267.94 307.31,268.07 308.12,268.19 C 308.94,268.31 309.82,268.42 310.77,268.53 C 311.71,268.64 312.72,268.74 313.80,268.84 C 314.87,268.94 316.01,269.04 317.22,269.12 C 318.42,269.21 319.70,269.30 321.03,269.38 C 322.37,269.45 323.77,269.53 325.23,269.59 C 326.70,269.66 328.23,269.72 329.83,269.78 C 331.42,269.84 333.09,269.89 334.81,269.94 C 336.54,269.98 338.47,270.01 340.19,270.06 C 341.90,270.11 343.54,270.17 345.11,270.23 C 346.67,270.30 348.16,270.37 349.58,270.45 C 350.99,270.53 352.33,270.62 353.59,270.72 C 354.86,270.82 356.04,270.92 357.16,271.03 C 358.27,271.14 359.30,271.26 360.27,271.39 C 361.23,271.52 362.11,271.65 362.92,271.80 C 363.73,271.94 364.47,272.09 365.12,272.25 C 365.78,272.41 366.32,272.59 366.88,272.75 C 367.43,272.91 367.95,273.07 368.45,273.23 C 368.94,273.38 369.40,273.53 369.84,273.68 C 370.27,273.83 370.67,273.97 371.05,274.11 C 371.42,274.25 371.76,274.38 372.08,274.52 C 372.39,274.65 372.68,274.77 372.93,274.90 C 373.18,275.02 373.41,275.14 373.60,275.26 C 373.80,275.37 373.96,275.49 374.09,275.59 C 374.23,275.70 374.31,275.80 374.41,275.91 C 374.50,276.01 374.58,276.11 374.66,276.22 C 374.73,276.32 374.79,276.43 374.84,276.53 C 374.90,276.64 374.94,276.74 374.97,276.84 C 375.00,276.95 375.02,277.05 375.03,277.16 C 375.04,277.26 375.04,277.36 375.03,277.47 C 375.02,277.57 375.00,277.68 374.97,277.78 C 374.94,277.89 374.90,277.99 374.84,278.09 C 374.79,278.20 374.87,278.30 374.66,278.41 C 374.44,278.52 374.07,278.63 373.54,278.76 C 373.01,278.88 372.33,279.01 371.49,279.15 C 370.65,279.29 369.66,279.43 368.52,279.58 C 367.37,279.73 366.07,279.88 364.61,280.05 C 363.15,280.21 361.54,280.38 359.77,280.55 C 358.01,280.73 356.08,280.91 354.01,281.10 C 351.93,281.29 349.70,281.49 347.31,281.69 C 344.93,281.89 342.18,282.11 339.69,282.31 C 337.19,282.51 334.74,282.70 332.34,282.88 C 329.94,283.05 327.59,283.22 325.28,283.38 C 322.97,283.53 320.71,283.68 318.50,283.81 C 316.29,283.95 314.12,284.07 312.00,284.19 C 309.88,284.30 307.81,284.41 305.78,284.50 C 303.76,284.59 301.78,284.68 299.84,284.75 C 297.91,284.82 296.03,284.89 294.19,284.94 C 292.35,284.99 290.63,285.02 288.81,285.06 C 286.99,285.10 285.14,285.14 283.27,285.17 C 281.39,285.21 279.48,285.24 277.55,285.27 C 275.61,285.29 273.65,285.32 271.66,285.34 C 269.66,285.37 267.64,285.39 265.59,285.41 C 263.54,285.42 261.47,285.44 259.36,285.45 C 257.25,285.47 255.12,285.48 252.95,285.48 C 250.79,285.49 248.60,285.50 246.38,285.50 Z" />
    </clipPath>
  </defs>
  <path d="M 246.38,285.50 C 244.15,285.50 241.88,285.52 239.62,285.50 C 237.37,285.48 235.10,285.45 232.83,285.39 C 230.55,285.34 228.27,285.26 225.98,285.17 C 223.70,285.08 221.40,284.97 219.09,284.84 C 216.79,284.72 214.48,284.57 212.16,284.41 C 209.84,284.24 207.51,284.06 205.17,283.86 C 202.84,283.66 200.49,283.44 198.14,283.20 C 195.79,282.97 193.43,282.71 191.06,282.44 C 188.70,282.16 186.21,281.85 183.94,281.56 C 181.67,281.28 179.50,280.99 177.44,280.72 C 175.38,280.44 173.42,280.17 171.56,279.91 C 169.71,279.64 167.96,279.38 166.31,279.12 C 164.67,278.87 163.12,278.62 161.69,278.38 C 160.25,278.13 158.92,277.89 157.69,277.66 C 156.46,277.42 155.33,277.19 154.31,276.97 C 153.29,276.74 152.38,276.53 151.56,276.31 C 150.75,276.10 150.12,275.89 149.44,275.69 C 148.76,275.48 148.11,275.28 147.49,275.09 C 146.87,274.89 146.29,274.70 145.73,274.51 C 145.17,274.32 144.64,274.13 144.14,273.95 C 143.64,273.77 143.17,273.60 142.73,273.42 C 142.30,273.25 141.89,273.08 141.51,272.91 C 141.13,272.75 140.78,272.59 140.46,272.43 C 140.14,272.27 139.85,272.12 139.59,271.97 C 139.33,271.82 139.10,271.67 138.91,271.53 C 138.72,271.39 138.57,271.25 138.45,271.11 C 138.34,270.97 138.27,270.84 138.23,270.70 C 138.20,270.57 138.21,270.44 138.25,270.31 C 138.29,270.18 138.38,270.06 138.50,269.94 C 138.62,269.82 138.78,269.70 138.98,269.58 C 139.18,269.46 139.42,269.35 139.70,269.23 C 139.98,269.12 140.30,269.01 140.66,268.91 C 141.01,268.80 141.42,268.69 141.84,268.59 C 142.27,268.50 142.73,268.40 143.21,268.32 C 143.70,268.24 144.21,268.16 144.76,268.09 C 145.30,268.01 145.88,267.95 146.48,267.89 C 147.09,267.83 147.73,267.78 148.39,267.73 C 149.06,267.69 149.75,267.65 150.48,267.62 C 151.20,267.58 151.96,267.56 152.74,267.54 C 153.53,267.52 154.34,267.51 155.19,267.50 C 156.03,267.49 156.99,267.51 157.81,267.50 C 158.63,267.49 159.39,267.48 160.09,267.47 C 160.80,267.45 161.44,267.43 162.03,267.41 C 162.62,267.38 163.15,267.35 163.62,267.31 C 164.10,267.28 164.52,267.23 164.88,267.19 C 165.23,267.14 165.54,267.09 165.78,267.03 C 166.03,266.97 166.21,266.91 166.34,266.84 C 166.47,266.78 166.55,266.70 166.56,266.62 C 166.58,266.55 166.51,266.46 166.44,266.38 C 166.36,266.29 166.25,266.20 166.11,266.11 C 165.97,266.02 165.79,265.92 165.58,265.83 C 165.37,265.73 165.12,265.63 164.84,265.53 C 164.57,265.43 164.25,265.33 163.91,265.22 C 163.56,265.11 163.18,265.00 162.77,264.89 C 162.35,264.78 161.90,264.66 161.42,264.55 C 160.94,264.43 160.42,264.31 159.88,264.19 C 159.33,264.07 158.69,263.94 158.12,263.81 C 157.56,263.68 157.01,263.55 156.47,263.41 C 155.93,263.27 155.41,263.12 154.91,262.97 C 154.40,262.82 153.91,262.66 153.44,262.50 C 152.96,262.34 152.51,262.17 152.06,262.00 C 151.62,261.83 151.19,261.65 150.78,261.47 C 150.37,261.29 149.97,261.10 149.59,260.91 C 149.21,260.71 148.85,260.52 148.50,260.31 C 148.15,260.11 147.88,259.88 147.50,259.69 C 147.12,259.49 146.70,259.31 146.23,259.14 C 145.77,258.97 145.26,258.82 144.70,258.67 C 144.15,258.53 143.55,258.40 142.91,258.28 C 142.26,258.16 141.58,258.06 140.84,257.97 C 140.11,257.88 139.34,257.80 138.52,257.73 C 137.70,257.67 136.83,257.62 135.92,257.58 C 135.01,257.54 134.06,257.51 133.06,257.50 C 132.07,257.49 130.92,257.50 129.94,257.50 C 128.95,257.50 128.03,257.49 127.16,257.48 C 126.30,257.46 125.49,257.45 124.74,257.43 C 123.99,257.41 123.30,257.39 122.67,257.36 C 122.04,257.33 121.47,257.30 120.95,257.27 C 120.44,257.23 119.98,257.19 119.59,257.15 C 119.19,257.11 118.85,257.06 118.57,257.01 C 118.29,256.96 118.07,256.90 117.91,256.84 C 117.74,256.79 117.68,256.72 117.59,256.66 C 117.50,256.59 117.42,256.52 117.36,256.45 C 117.29,256.38 117.24,256.31 117.20,256.23 C 117.16,256.16 117.14,256.08 117.12,256.00 C 117.11,255.92 117.11,255.84 117.12,255.75 C 117.14,255.66 117.16,255.58 117.20,255.48 C 117.24,255.39 117.29,255.30 117.36,255.20 C 117.42,255.11 117.50,255.01 117.59,254.91 C 117.68,254.80 117.74,254.69 117.91,254.59 C 118.07,254.50 118.29,254.40 118.57,254.32 C 118.85,254.24 119.19,254.16 119.59,254.09 C 119.98,254.01 120.44,253.95 120.95,253.89 C 121.47,253.83 122.04,253.78 122.67,253.73 C 123.30,253.69 123.99,253.65 124.74,253.62 C 125.49,253.58 126.30,253.56 127.16,253.54 C 128.03,253.52 128.95,253.51 129.94,253.50 C 130.92,253.49 132.07,253.51 133.06,253.50 C 134.06,253.49 135.01,253.46 135.92,253.42 C 136.83,253.38 137.70,253.33 138.52,253.27 C 139.34,253.20 140.11,253.12 140.84,253.03 C 141.58,252.94 142.26,252.84 142.91,252.72 C 143.55,252.60 144.15,252.47 144.70,252.33 C 145.26,252.18 145.77,252.03 146.23,251.86 C 146.70,251.69 147.12,251.51 147.50,251.31 C 147.88,251.12 148.15,250.89 148.50,250.69 C 148.85,250.48 149.21,250.29 149.59,250.09 C 149.97,249.90 150.37,249.71 150.78,249.53 C 151.19,249.35 151.62,249.17 152.06,249.00 C 152.51,248.83 152.96,248.66 153.44,248.50 C 153.91,248.34 154.40,248.18 154.91,248.03 C 155.41,247.88 155.93,247.73 156.47,247.59 C 157.01,247.45 157.56,247.32 158.12,247.19 C 158.69,247.06 159.33,246.93 159.88,246.81 C 160.42,246.69 160.94,246.57 161.42,246.45 C 161.90,246.34 162.35,246.22 162.77,246.11 C 163.18,246.00 163.56,245.89 163.91,245.78 C 164.25,245.67 164.57,245.57 164.84,245.47 C 165.12,245.37 165.37,245.27 165.58,245.17 C 165.79,245.08 165.97,244.98 166.11,244.89 C 166.25,244.80 166.36,244.71 166.44,244.62 C 166.51,244.54 166.58,244.45 166.56,244.38 C 166.55,244.30 166.47,244.22 166.34,244.16 C 166.21,244.09 166.03,244.03 165.78,243.97 C 165.54,243.91 165.23,243.86 164.88,243.81 C 164.52,243.77 164.10,243.72 163.62,243.69 C 163.15,243.65 162.62,243.62 162.03,243.59 C 161.44,243.57 160.80,243.55 160.09,243.53 C 159.39,243.52 158.63,243.51 157.81,243.50 C 156.99,243.49 156.03,243.51 155.19,243.50 C 154.34,243.49 153.53,243.48 152.74,243.46 C 151.96,243.44 151.20,243.42 150.48,243.38 C 149.75,243.35 149.06,243.31 148.39,243.27 C 147.73,243.22 147.09,243.17 146.48,243.11 C 145.88,243.05 145.30,242.99 144.76,242.91 C 144.21,242.84 143.70,242.76 143.21,242.68 C 142.73,242.60 142.27,242.50 141.84,242.41 C 141.42,242.31 141.01,242.20 140.66,242.09 C 140.30,241.99 139.98,241.88 139.70,241.77 C 139.42,241.65 139.18,241.54 138.98,241.42 C 138.78,241.30 138.62,241.18 138.50,241.06 C 138.38,240.94 138.29,240.82 138.25,240.69 C 138.21,240.56 138.20,240.43 138.23,240.30 C 138.27,240.16 138.34,240.03 138.45,239.89 C 138.57,239.75 138.72,239.61 138.91,239.47 C 139.10,239.33 139.33,239.18 139.59,239.03 C 139.85,238.88 140.14,238.73 140.46,238.57 C 140.78,238.41 141.13,238.25 141.51,238.09 C 141.89,237.92 142.30,237.75 142.73,237.58 C 143.17,237.40 143.64,237.23 144.14,237.05 C 144.64,236.87 145.17,236.68 145.73,236.49 C 146.29,236.30 146.87,236.11 147.49,235.91 C 148.11,235.72 148.76,235.52 149.44,235.31 C 150.12,235.11 150.75,234.90 151.56,234.69 C 152.37,234.47 153.28,234.26 154.30,234.03 C 155.31,233.81 156.42,233.58 157.64,233.34 C 158.86,233.11 160.17,232.87 161.59,232.62 C 163.01,232.38 164.53,232.13 166.16,231.88 C 167.78,231.62 169.50,231.36 171.33,231.09 C 173.15,230.83 175.08,230.56 177.11,230.28 C 179.14,230.01 181.27,229.72 183.50,229.44 C 185.73,229.15 188.19,228.84 190.50,228.56 C 192.81,228.29 195.09,228.03 197.34,227.80 C 199.60,227.56 201.83,227.34 204.03,227.14 C 206.23,226.94 208.41,226.76 210.56,226.59 C 212.71,226.43 214.84,226.28 216.94,226.16 C 219.04,226.03 221.11,225.92 223.16,225.83 C 225.20,225.74 227.22,225.66 229.22,225.61 C 231.21,225.55 233.18,225.52 235.12,225.50 C 237.07,225.48 238.94,225.50 240.88,225.50 C 242.81,225.50 244.76,225.51 246.72,225.52 C 248.68,225.52 250.66,225.53 252.66,225.55 C 254.65,225.56 256.66,225.58 258.69,225.59 C 260.71,225.61 262.76,225.63 264.81,225.66 C 266.87,225.68 268.94,225.71 271.03,225.73 C 273.12,225.76 275.22,225.79 277.34,225.83 C 279.46,225.86 281.60,225.90 283.75,225.94 C 285.90,225.98 288.10,226.02 290.25,226.06 C 292.40,226.11 294.53,226.16 296.64,226.22 C 298.75,226.28 300.85,226.34 302.92,226.41 C 305.00,226.47 307.05,226.55 309.09,226.62 C 311.13,226.70 313.15,226.79 315.16,226.88 C 317.16,226.96 319.14,227.06 321.11,227.16 C 323.08,227.26 325.02,227.36 326.95,227.47 C 328.88,227.58 330.79,227.69 332.69,227.81 C 334.58,227.93 336.51,228.06 338.31,228.19 C 340.11,228.31 341.84,228.44 343.49,228.57 C 345.14,228.70 346.72,228.83 348.23,228.96 C 349.73,229.09 351.16,229.23 352.52,229.36 C 353.87,229.49 355.15,229.63 356.36,229.77 C 357.57,229.90 358.70,230.04 359.76,230.18 C 360.82,230.32 361.80,230.46 362.71,230.60 C 363.62,230.74 364.46,230.89 365.22,231.03 C 365.98,231.18 366.64,231.32 367.28,231.47 C 367.92,231.61 368.52,231.76 369.06,231.91 C 369.61,232.05 370.11,232.20 370.56,232.34 C 371.02,232.49 371.42,232.64 371.78,232.78 C 372.14,232.93 372.45,233.07 372.72,233.22 C 372.98,233.36 373.20,233.51 373.38,233.66 C 373.55,233.80 373.67,233.95 373.75,234.09 C 373.83,234.24 373.86,234.39 373.84,234.53 C 373.83,234.68 373.75,234.82 373.66,234.97 C 373.56,235.12 373.44,235.26 373.29,235.41 C 373.14,235.56 372.95,235.71 372.74,235.87 C 372.53,236.02 372.29,236.17 372.02,236.33 C 371.74,236.48 371.44,236.64 371.11,236.80 C 370.78,236.95 370.42,237.11 370.02,237.27 C 369.63,237.43 369.21,237.60 368.76,237.76 C 368.31,237.92 367.82,238.08 367.31,238.25 C 366.80,238.42 366.31,238.59 365.69,238.75 C 365.07,238.91 364.36,239.06 363.58,239.20 C 362.79,239.35 361.93,239.48 360.98,239.61 C 360.04,239.74 359.01,239.86 357.91,239.97 C 356.80,240.08 355.61,240.18 354.34,240.28 C 353.08,240.38 351.73,240.47 350.30,240.55 C 348.87,240.63 347.36,240.70 345.77,240.77 C 344.17,240.83 342.50,240.89 340.75,240.94 C 339.00,240.99 337.02,241.02 335.25,241.06 C 333.48,241.11 331.79,241.16 330.16,241.22 C 328.53,241.28 326.96,241.34 325.47,241.41 C 323.97,241.47 322.55,241.55 321.19,241.62 C 319.83,241.70 318.54,241.79 317.31,241.88 C 316.09,241.96 314.93,242.06 313.84,242.16 C 312.76,242.26 311.73,242.36 310.78,242.47 C 309.83,242.58 308.94,242.69 308.12,242.81 C 307.31,242.93 306.58,243.06 305.88,243.19 C 305.17,243.31 304.52,243.44 303.92,243.56 C 303.32,243.69 302.77,243.81 302.27,243.94 C 301.76,244.06 301.31,244.19 300.91,244.31 C 300.50,244.44 300.15,244.56 299.84,244.69 C 299.54,244.81 299.28,244.94 299.08,245.06 C 298.87,245.19 298.72,245.31 298.61,245.44 C 298.50,245.56 298.45,245.69 298.44,245.81 C 298.43,245.94 298.55,246.07 298.56,246.19 C 298.57,246.30 298.55,246.41 298.49,246.51 C 298.44,246.61 298.35,246.69 298.23,246.77 C 298.11,246.85 297.95,246.92 297.77,246.98 C 297.58,247.05 297.36,247.10 297.11,247.14 C 296.86,247.18 296.57,247.22 296.26,247.24 C 295.94,247.27 295.59,247.28 295.21,247.29 C 294.83,247.30 294.42,247.29 293.97,247.28 C 293.52,247.27 292.98,247.23 292.53,247.22 C 292.08,247.20 291.67,247.19 291.28,247.19 C 290.90,247.18 290.54,247.18 290.22,247.19 C 289.90,247.19 289.60,247.20 289.34,247.22 C 289.08,247.23 288.85,247.26 288.66,247.28 C 288.46,247.31 288.29,247.34 288.16,247.38 C 288.02,247.41 287.92,247.45 287.84,247.50 C 287.77,247.55 287.73,247.60 287.72,247.66 C 287.71,247.71 287.74,247.78 287.78,247.84 C 287.83,247.91 287.90,247.97 287.99,248.04 C 288.09,248.11 288.21,248.17 288.35,248.24 C 288.50,248.31 288.67,248.38 288.86,248.45 C 289.05,248.52 289.27,248.60 289.52,248.67 C 289.76,248.75 290.03,248.82 290.32,248.90 C 290.61,248.98 290.93,249.05 291.27,249.13 C 291.62,249.21 291.98,249.29 292.38,249.38 C 292.77,249.46 293.22,249.54 293.62,249.62 C 294.03,249.71 294.43,249.81 294.82,249.91 C 295.21,250.02 295.59,250.13 295.96,250.24 C 296.33,250.36 296.69,250.48 297.05,250.61 C 297.40,250.74 297.74,250.87 298.08,251.02 C 298.41,251.16 298.74,251.31 299.05,251.46 C 299.37,251.62 299.68,251.78 299.98,251.95 C 300.27,252.11 300.56,252.29 300.84,252.47 C 301.12,252.65 301.41,252.84 301.66,253.03 C 301.90,253.22 302.12,253.41 302.31,253.59 C 302.51,253.78 302.67,253.97 302.81,254.16 C 302.95,254.34 303.07,254.53 303.16,254.72 C 303.24,254.91 303.31,255.09 303.34,255.28 C 303.38,255.47 303.39,255.66 303.38,255.84 C 303.36,256.03 303.32,256.22 303.25,256.41 C 303.18,256.59 303.09,256.78 302.97,256.97 C 302.85,257.16 302.70,257.35 302.53,257.53 C 302.36,257.71 302.17,257.89 301.95,258.07 C 301.73,258.25 301.48,258.42 301.21,258.59 C 300.94,258.75 300.65,258.92 300.33,259.08 C 300.01,259.24 299.67,259.39 299.30,259.55 C 298.93,259.70 298.54,259.85 298.12,259.99 C 297.70,260.14 297.26,260.28 296.79,260.41 C 296.32,260.55 295.83,260.68 295.31,260.81 C 294.80,260.94 294.20,261.07 293.69,261.19 C 293.18,261.31 292.71,261.43 292.27,261.55 C 291.83,261.66 291.42,261.78 291.05,261.89 C 290.67,262.00 290.34,262.11 290.03,262.22 C 289.73,262.33 289.46,262.43 289.22,262.53 C 288.98,262.63 288.78,262.73 288.61,262.83 C 288.44,262.92 288.30,263.02 288.20,263.11 C 288.10,263.20 288.03,263.29 288.00,263.38 C 287.97,263.46 287.97,263.55 288.00,263.62 C 288.03,263.70 288.09,263.77 288.17,263.83 C 288.26,263.89 288.37,263.94 288.52,263.98 C 288.66,264.03 288.83,264.07 289.03,264.09 C 289.23,264.12 289.46,264.14 289.72,264.16 C 289.98,264.17 290.26,264.17 290.58,264.17 C 290.89,264.17 291.24,264.16 291.61,264.14 C 291.98,264.12 292.38,264.10 292.81,264.06 C 293.24,264.03 293.76,263.97 294.19,263.94 C 294.61,263.91 295.01,263.89 295.38,263.88 C 295.74,263.86 296.07,263.86 296.38,263.88 C 296.68,263.89 296.95,263.91 297.19,263.94 C 297.43,263.97 297.64,264.01 297.81,264.06 C 297.99,264.11 298.14,264.18 298.25,264.25 C 298.36,264.32 298.45,264.41 298.50,264.50 C 298.55,264.59 298.57,264.70 298.56,264.81 C 298.55,264.93 298.43,265.06 298.44,265.19 C 298.45,265.31 298.50,265.44 298.61,265.56 C 298.72,265.69 298.87,265.81 299.08,265.94 C 299.28,266.06 299.54,266.19 299.84,266.31 C 300.15,266.44 300.50,266.56 300.91,266.69 C 301.31,266.81 301.76,266.94 302.27,267.06 C 302.77,267.19 303.32,267.31 303.92,267.44 C 304.52,267.56 305.17,267.69 305.88,267.81 C 306.58,267.94 307.31,268.07 308.12,268.19 C 308.94,268.31 309.82,268.42 310.77,268.53 C 311.71,268.64 312.72,268.74 313.80,268.84 C 314.87,268.94 316.01,269.04 317.22,269.12 C 318.42,269.21 319.70,269.30 321.03,269.38 C 322.37,269.45 323.77,269.53 325.23,269.59 C 326.70,269.66 328.23,269.72 329.83,269.78 C 331.42,269.84 333.09,269.89 334.81,269.94 C 336.54,269.98 338.47,270.01 340.19,270.06 C 341.90,270.11 343.54,270.17 345.11,270.23 C 346.67,270.30 348.16,270.37 349.58,270.45 C 350.99,270.53 352.33,270.62 353.59,270.72 C 354.86,270.82 356.04,270.92 357.16,271.03 C 358.27,271.14 359.30,271.26 360.27,271.39 C 361.23,271.52 362.11,271.65 362.92,271.80 C 363.73,271.94 364.47,272.09 365.12,272.25 C 365.78,272.41 366.32,272.59 366.88,272.75 C 367.43,272.91 367.95,273.07 368.45,273.23 C 368.94,273.38 369.40,273.53 369.84,273.68 C 370.27,273.83 370.67,273.97 371.05,274.11 C 371.42,274.25 371.76,274.38 372.08,274.52 C 372.39,274.65 372.68,274.77 372.93,274.90 C 373.18,275.02 373.41,275.14 373.60,275.26 C 373.80,275.37 373.96,275.49 374.09,275.59 C 374.23,275.70 374.31,275.80 374.41,275.91 C 374.50,276.01 374.58,276.11 374.66,276.22 C 374.73,276.32 374.79,276.43 374.84,276.53 C 374.90,276.64 374.94,276.74 374.97,276.84 C 375.00,276.95 375.02,277.05 375.03,277.16 C 375.04,277.26 375.04,277.36 375.03,277.47 C 375.02,277.57 375.00,277.68 374.97,277.78 C 374.94,277.89 374.90,277.99 374.84,278.09 C 374.79,278.20 374.87,278.30 374.66,278.41 C 374.44,278.52 374.07,278.63 373.54,278.76 C 373.01,278.88 372.33,279.01 371.49,279.15 C 370.65,279.29 369.66,279.43 368.52,279.58 C 367.37,279.73 366.07,279.88 364.61,280.05 C 363.15,280.21 361.54,280.38 359.77,280.55 C 358.01,280.73 356.08,280.91 354.01,281.10 C 351.93,281.29 349.70,281.49 347.31,281.69 C 344.93,281.89 342.18,282.11 339.69,282.31 C 337.19,282.51 334.74,282.70 332.34,282.88 C 329.94,283.05 327.59,283.22 325.28,283.38 C 322.97,283.53 320.71,283.68 318.50,283.81 C 316.29,283.95 314.12,284.07 312.00,284.19 C 309.88,284.30 307.81,284.41 305.78,284.50 C 303.76,284.59 301.78,284.68 299.84,284.75 C 297.91,284.82 296.03,284.89 294.19,284.94 C 292.35,284.99 290.63,285.02 288.81,285.06 C 286.99,285.10 285.14,285.14 283.27,285.17 C 281.39,285.21 279.48,285.24 277.55,285.27 C 275.61,285.29 273.65,285.32 271.66,285.34 C 269.66,285.37 267.64,285.39 265.59,285.41 C 263.54,285.42 261.47,285.44 259.36,285.45 C 257.25,285.47 255.12,285.48 252.95,285.48 C 250.79,285.49 248.60,285.50 246.38,285.50 Z" stroke="none" fill="currentColor" opacity="0.11" />
  <path d="M281.22,252.56L271.64,252.75 M271.76,259.13L281.01,258.94 M260.58,259.35L269.12,260.13 M269.12,260.13L260.39,259.33 M256.52,260.22L256.55,248.62 M267.32,258.42L275.00,258.50 M244.16,252.60L242.73,260.11 M242.73,260.11L244.34,251.65 M254.10,250.23L245.18,249.21 M245.18,249.21L253.24,250.11 M249.73,247.96L249.73,262.95 M248.51,262.95L248.51,247.96 M251.45,247.96L251.45,262.95 M250.23,262.95L250.23,247.96 M255.12,262.80L244.84,262.80 M244.84,248.11L255.12,248.11 M255.12,248.11L245.48,248.11 M267.66,255.09L275.04,255.10 M267.66,254.94L275.06,254.94 M267.65,254.57L275.04,254.57 M275.01,254.85L267.65,254.85 M267.65,254.43L275.05,254.43 M266.79,260.34L276.45,260.34 M266.79,260.34L276.45,260.34 M254.86,253.34L254.65,253.34 M274.16,258.35L256.20,258.35 M262.57,259.45L270.43,259.45 M254.86,259.37L254.65,259.37 M291.78,269.87L301.40,270.07 M283.50,280.53L272.71,281.07 M315.68,279.82L323.82,279.73 M315.68,279.76L323.82,279.67 M342.11,279.33L349.48,279.16 M342.12,279.39L349.49,279.22 M349.49,279.22L356.82,279.03 M349.55,281.69L356.86,281.13 M291.82,268.99L314.78,273.50 M314.78,273.50L330.41,274.78 M302.24,283.80L318.78,282.99 M318.78,282.99L333.80,281.89 M356.52,276.43L349.29,276.16 M349.29,276.16L342.08,275.81 M315.76,273.32L307.83,272.15 M354.91,272.24L348.08,271.94 M345.40,271.94L334.70,271.47 M348.08,271.94L337.22,271.55 M334.70,271.47L324.01,271.01 M337.22,271.55L326.36,271.16 M324.01,271.01L313.30,270.55 M323.95,272.02L313.26,271.56 M352.16,277.25L334.03,276.65 M352.16,277.25L371.09,277.62 M370.82,278.97L352.12,279.81 M256.61,234.32L248.17,234.60 M256.61,234.57L248.17,234.85 M315.76,238.68L307.83,239.85 M298.27,243.58L277.28,242.81 M301.63,241.45L309.44,241.12 M281.17,238.83L279.76,237.20 M323.82,232.28L315.69,232.18 M323.82,232.34L315.68,232.24 M315.77,227.98L323.91,228.42 M291.82,243.01L314.78,238.50 M314.78,238.50L330.41,237.22 M302.24,228.18L318.78,229.01 M318.78,229.01L333.80,230.11 M356.52,235.57L349.29,235.84 M349.29,235.84L342.08,236.19 M354.91,239.76L348.08,240.06 M352.11,234.76L371.05,234.39 M352.11,234.76L333.98,235.35 M370.78,233.03L352.08,232.20 M255.88,243.25L280.74,253.51 M280.74,253.51L260.97,245.36 M244.82,269.21L252.04,268.98 M268.99,263.20L260.91,266.50 M256.12,243.52L280.71,253.65 M280.71,253.65L260.91,245.51 M260.91,245.51L268.99,248.80 M252.04,243.02L244.82,242.79 M189.49,259.54L184.61,261.59 M184.61,250.41L189.49,252.47 M189.02,259.34L184.09,261.43 M184.09,250.58L189.02,252.66 M188.07,258.94L183.15,261.03 M188.07,253.06L183.15,250.97 M188.55,259.14L183.62,261.23 M183.62,250.78L188.55,252.86 M188.25,259.02L178.71,259.02 M178.71,260.14L188.25,260.14 M178.71,260.22L188.25,260.22 M178.71,260.33L188.25,260.33 M188.25,252.98L178.71,252.98 M178.71,251.86L188.25,251.86 M188.25,251.78L178.71,251.78 M178.71,251.67L188.25,251.67 M180.37,260.36L187.05,257.54 M187.05,254.46L180.37,251.64 M190.16,253.15L184.56,250.78 M184.56,261.22L190.16,258.85 M161.18,258.05L173.26,258.05 M161.18,253.96L173.26,253.95 M188.25,258.77L180.01,258.82 M188.25,258.19L178.71,258.19 M188.25,253.24L180.01,253.18 M188.25,253.81L178.71,253.81 M188.25,258.59L178.71,258.59 M178.71,258.86L188.25,258.86 M178.71,258.01L188.25,258.01 M188.25,253.41L178.71,253.41 M178.71,253.14L188.25,253.14 M188.25,253.99L178.71,253.99 M174.36,254.65L183.87,254.66 M173.97,253.66L182.11,253.67 M165.61,252.48L171.96,250.97 M173.81,251.36L186.63,251.38 M176.69,253.63L186.62,252.16 M167.54,253.99L160.80,254.05 M174.36,257.35L183.87,257.34 M173.97,258.34L182.11,258.33 M167.54,258.01L160.80,257.95 M176.69,258.37L186.62,259.84 M165.61,259.52L171.96,261.03 M173.81,260.64L186.63,260.62 M172.68,250.63L165.59,252.26 M172.68,261.37L165.59,259.74 M176.63,253.72L186.77,252.13 M186.77,252.13L176.94,253.66 M167.53,254.09L160.75,254.10 M176.63,258.28L186.77,259.87 M186.77,259.87L176.94,258.34 M167.53,257.91L160.75,257.90 M172.10,257.42L163.26,257.69 M172.10,257.42L163.38,257.65 M174.23,258.12L181.86,258.12 M172.10,254.58L163.26,254.31 M172.10,254.58L163.38,254.35 M174.23,253.88L181.86,253.88 M175.57,254.80L163.45,254.81 M162.68,254.76L170.34,254.76 M163.45,257.20L175.57,257.20 M162.68,257.24L170.34,257.24 M168.84,257.89L175.57,257.89 M168.84,254.12L175.57,254.11 M216.89,228.45L224.46,228.66 M213.15,238.87L206.10,239.35 M206.10,239.35L197.41,239.93 M197.41,239.93L183.10,240.82 M152.09,242.76L144.57,241.90 M152.09,242.76L160.39,243.07 M160.39,243.07L169.41,243.07 M169.41,243.07L177.70,242.89 M216.89,283.55L224.46,283.34 M213.15,273.13L206.10,272.65 M206.10,272.65L197.41,272.07 M197.41,272.07L183.10,271.18 M152.10,269.24L144.58,270.10 M152.10,269.24L160.38,268.93 M160.38,268.93L169.41,268.93 M169.41,268.93L177.70,269.11 M236.04,248.37L203.93,247.48 M203.93,247.39L235.98,248.28 M203.91,247.42L235.75,248.30 M235.40,248.35L203.88,247.60 M203.88,247.51L235.34,248.26 M203.86,247.54L235.11,248.27 M234.79,248.32L203.77,247.60 M203.77,247.51L234.73,248.23 M203.75,247.54L234.50,248.24 M236.04,263.63L203.93,264.52 M203.93,264.61L235.98,263.72 M203.91,264.58L235.75,263.70 M235.40,263.65L203.88,264.40 M203.88,264.49L235.34,263.75 M203.86,264.46L235.11,263.73 M234.79,263.68L203.77,264.40 M203.77,264.49L234.73,263.78 M203.75,264.46L234.50,263.76 M236.19,280.51L242.80,279.38 M235.96,280.32L242.50,279.22 M242.80,279.38L250.03,276.88 M236.19,231.49L242.80,232.62 M235.96,231.68L242.50,232.78 M242.80,232.62L250.03,235.11 M220.95,251.73L221.41,260.11 M220.95,251.73L221.45,260.89 M227.60,253.29L234.05,253.29 M227.60,253.25L234.05,253.25 M237.75,258.41L238.72,258.41 M227.82,258.41L228.80,258.41" stroke="currentColor" stroke-width="0.6" stroke-linecap="round" fill="none" opacity="0.55" clip-path="url(#hull-clip)" filter="url(#glow)" />
  <path d="M 246.38,285.50 C 244.15,285.50 241.88,285.52 239.62,285.50 C 237.37,285.48 235.10,285.45 232.83,285.39 C 230.55,285.34 228.27,285.26 225.98,285.17 C 223.70,285.08 221.40,284.97 219.09,284.84 C 216.79,284.72 214.48,284.57 212.16,284.41 C 209.84,284.24 207.51,284.06 205.17,283.86 C 202.84,283.66 200.49,283.44 198.14,283.20 C 195.79,282.97 193.43,282.71 191.06,282.44 C 188.70,282.16 186.21,281.85 183.94,281.56 C 181.67,281.28 179.50,280.99 177.44,280.72 C 175.38,280.44 173.42,280.17 171.56,279.91 C 169.71,279.64 167.96,279.38 166.31,279.12 C 164.67,278.87 163.12,278.62 161.69,278.38 C 160.25,278.13 158.92,277.89 157.69,277.66 C 156.46,277.42 155.33,277.19 154.31,276.97 C 153.29,276.74 152.38,276.53 151.56,276.31 C 150.75,276.10 150.12,275.89 149.44,275.69 C 148.76,275.48 148.11,275.28 147.49,275.09 C 146.87,274.89 146.29,274.70 145.73,274.51 C 145.17,274.32 144.64,274.13 144.14,273.95 C 143.64,273.77 143.17,273.60 142.73,273.42 C 142.30,273.25 141.89,273.08 141.51,272.91 C 141.13,272.75 140.78,272.59 140.46,272.43 C 140.14,272.27 139.85,272.12 139.59,271.97 C 139.33,271.82 139.10,271.67 138.91,271.53 C 138.72,271.39 138.57,271.25 138.45,271.11 C 138.34,270.97 138.27,270.84 138.23,270.70 C 138.20,270.57 138.21,270.44 138.25,270.31 C 138.29,270.18 138.38,270.06 138.50,269.94 C 138.62,269.82 138.78,269.70 138.98,269.58 C 139.18,269.46 139.42,269.35 139.70,269.23 C 139.98,269.12 140.30,269.01 140.66,268.91 C 141.01,268.80 141.42,268.69 141.84,268.59 C 142.27,268.50 142.73,268.40 143.21,268.32 C 143.70,268.24 144.21,268.16 144.76,268.09 C 145.30,268.01 145.88,267.95 146.48,267.89 C 147.09,267.83 147.73,267.78 148.39,267.73 C 149.06,267.69 149.75,267.65 150.48,267.62 C 151.20,267.58 151.96,267.56 152.74,267.54 C 153.53,267.52 154.34,267.51 155.19,267.50 C 156.03,267.49 156.99,267.51 157.81,267.50 C 158.63,267.49 159.39,267.48 160.09,267.47 C 160.80,267.45 161.44,267.43 162.03,267.41 C 162.62,267.38 163.15,267.35 163.62,267.31 C 164.10,267.28 164.52,267.23 164.88,267.19 C 165.23,267.14 165.54,267.09 165.78,267.03 C 166.03,266.97 166.21,266.91 166.34,266.84 C 166.47,266.78 166.55,266.70 166.56,266.62 C 166.58,266.55 166.51,266.46 166.44,266.38 C 166.36,266.29 166.25,266.20 166.11,266.11 C 165.97,266.02 165.79,265.92 165.58,265.83 C 165.37,265.73 165.12,265.63 164.84,265.53 C 164.57,265.43 164.25,265.33 163.91,265.22 C 163.56,265.11 163.18,265.00 162.77,264.89 C 162.35,264.78 161.90,264.66 161.42,264.55 C 160.94,264.43 160.42,264.31 159.88,264.19 C 159.33,264.07 158.69,263.94 158.12,263.81 C 157.56,263.68 157.01,263.55 156.47,263.41 C 155.93,263.27 155.41,263.12 154.91,262.97 C 154.40,262.82 153.91,262.66 153.44,262.50 C 152.96,262.34 152.51,262.17 152.06,262.00 C 151.62,261.83 151.19,261.65 150.78,261.47 C 150.37,261.29 149.97,261.10 149.59,260.91 C 149.21,260.71 148.85,260.52 148.50,260.31 C 148.15,260.11 147.88,259.88 147.50,259.69 C 147.12,259.49 146.70,259.31 146.23,259.14 C 145.77,258.97 145.26,258.82 144.70,258.67 C 144.15,258.53 143.55,258.40 142.91,258.28 C 142.26,258.16 141.58,258.06 140.84,257.97 C 140.11,257.88 139.34,257.80 138.52,257.73 C 137.70,257.67 136.83,257.62 135.92,257.58 C 135.01,257.54 134.06,257.51 133.06,257.50 C 132.07,257.49 130.92,257.50 129.94,257.50 C 128.95,257.50 128.03,257.49 127.16,257.48 C 126.30,257.46 125.49,257.45 124.74,257.43 C 123.99,257.41 123.30,257.39 122.67,257.36 C 122.04,257.33 121.47,257.30 120.95,257.27 C 120.44,257.23 119.98,257.19 119.59,257.15 C 119.19,257.11 118.85,257.06 118.57,257.01 C 118.29,256.96 118.07,256.90 117.91,256.84 C 117.74,256.79 117.68,256.72 117.59,256.66 C 117.50,256.59 117.42,256.52 117.36,256.45 C 117.29,256.38 117.24,256.31 117.20,256.23 C 117.16,256.16 117.14,256.08 117.12,256.00 C 117.11,255.92 117.11,255.84 117.12,255.75 C 117.14,255.66 117.16,255.58 117.20,255.48 C 117.24,255.39 117.29,255.30 117.36,255.20 C 117.42,255.11 117.50,255.01 117.59,254.91 C 117.68,254.80 117.74,254.69 117.91,254.59 C 118.07,254.50 118.29,254.40 118.57,254.32 C 118.85,254.24 119.19,254.16 119.59,254.09 C 119.98,254.01 120.44,253.95 120.95,253.89 C 121.47,253.83 122.04,253.78 122.67,253.73 C 123.30,253.69 123.99,253.65 124.74,253.62 C 125.49,253.58 126.30,253.56 127.16,253.54 C 128.03,253.52 128.95,253.51 129.94,253.50 C 130.92,253.49 132.07,253.51 133.06,253.50 C 134.06,253.49 135.01,253.46 135.92,253.42 C 136.83,253.38 137.70,253.33 138.52,253.27 C 139.34,253.20 140.11,253.12 140.84,253.03 C 141.58,252.94 142.26,252.84 142.91,252.72 C 143.55,252.60 144.15,252.47 144.70,252.33 C 145.26,252.18 145.77,252.03 146.23,251.86 C 146.70,251.69 147.12,251.51 147.50,251.31 C 147.88,251.12 148.15,250.89 148.50,250.69 C 148.85,250.48 149.21,250.29 149.59,250.09 C 149.97,249.90 150.37,249.71 150.78,249.53 C 151.19,249.35 151.62,249.17 152.06,249.00 C 152.51,248.83 152.96,248.66 153.44,248.50 C 153.91,248.34 154.40,248.18 154.91,248.03 C 155.41,247.88 155.93,247.73 156.47,247.59 C 157.01,247.45 157.56,247.32 158.12,247.19 C 158.69,247.06 159.33,246.93 159.88,246.81 C 160.42,246.69 160.94,246.57 161.42,246.45 C 161.90,246.34 162.35,246.22 162.77,246.11 C 163.18,246.00 163.56,245.89 163.91,245.78 C 164.25,245.67 164.57,245.57 164.84,245.47 C 165.12,245.37 165.37,245.27 165.58,245.17 C 165.79,245.08 165.97,244.98 166.11,244.89 C 166.25,244.80 166.36,244.71 166.44,244.62 C 166.51,244.54 166.58,244.45 166.56,244.38 C 166.55,244.30 166.47,244.22 166.34,244.16 C 166.21,244.09 166.03,244.03 165.78,243.97 C 165.54,243.91 165.23,243.86 164.88,243.81 C 164.52,243.77 164.10,243.72 163.62,243.69 C 163.15,243.65 162.62,243.62 162.03,243.59 C 161.44,243.57 160.80,243.55 160.09,243.53 C 159.39,243.52 158.63,243.51 157.81,243.50 C 156.99,243.49 156.03,243.51 155.19,243.50 C 154.34,243.49 153.53,243.48 152.74,243.46 C 151.96,243.44 151.20,243.42 150.48,243.38 C 149.75,243.35 149.06,243.31 148.39,243.27 C 147.73,243.22 147.09,243.17 146.48,243.11 C 145.88,243.05 145.30,242.99 144.76,242.91 C 144.21,242.84 143.70,242.76 143.21,242.68 C 142.73,242.60 142.27,242.50 141.84,242.41 C 141.42,242.31 141.01,242.20 140.66,242.09 C 140.30,241.99 139.98,241.88 139.70,241.77 C 139.42,241.65 139.18,241.54 138.98,241.42 C 138.78,241.30 138.62,241.18 138.50,241.06 C 138.38,240.94 138.29,240.82 138.25,240.69 C 138.21,240.56 138.20,240.43 138.23,240.30 C 138.27,240.16 138.34,240.03 138.45,239.89 C 138.57,239.75 138.72,239.61 138.91,239.47 C 139.10,239.33 139.33,239.18 139.59,239.03 C 139.85,238.88 140.14,238.73 140.46,238.57 C 140.78,238.41 141.13,238.25 141.51,238.09 C 141.89,237.92 142.30,237.75 142.73,237.58 C 143.17,237.40 143.64,237.23 144.14,237.05 C 144.64,236.87 145.17,236.68 145.73,236.49 C 146.29,236.30 146.87,236.11 147.49,235.91 C 148.11,235.72 148.76,235.52 149.44,235.31 C 150.12,235.11 150.75,234.90 151.56,234.69 C 152.37,234.47 153.28,234.26 154.30,234.03 C 155.31,233.81 156.42,233.58 157.64,233.34 C 158.86,233.11 160.17,232.87 161.59,232.62 C 163.01,232.38 164.53,232.13 166.16,231.88 C 167.78,231.62 169.50,231.36 171.33,231.09 C 173.15,230.83 175.08,230.56 177.11,230.28 C 179.14,230.01 181.27,229.72 183.50,229.44 C 185.73,229.15 188.19,228.84 190.50,228.56 C 192.81,228.29 195.09,228.03 197.34,227.80 C 199.60,227.56 201.83,227.34 204.03,227.14 C 206.23,226.94 208.41,226.76 210.56,226.59 C 212.71,226.43 214.84,226.28 216.94,226.16 C 219.04,226.03 221.11,225.92 223.16,225.83 C 225.20,225.74 227.22,225.66 229.22,225.61 C 231.21,225.55 233.18,225.52 235.12,225.50 C 237.07,225.48 238.94,225.50 240.88,225.50 C 242.81,225.50 244.76,225.51 246.72,225.52 C 248.68,225.52 250.66,225.53 252.66,225.55 C 254.65,225.56 256.66,225.58 258.69,225.59 C 260.71,225.61 262.76,225.63 264.81,225.66 C 266.87,225.68 268.94,225.71 271.03,225.73 C 273.12,225.76 275.22,225.79 277.34,225.83 C 279.46,225.86 281.60,225.90 283.75,225.94 C 285.90,225.98 288.10,226.02 290.25,226.06 C 292.40,226.11 294.53,226.16 296.64,226.22 C 298.75,226.28 300.85,226.34 302.92,226.41 C 305.00,226.47 307.05,226.55 309.09,226.62 C 311.13,226.70 313.15,226.79 315.16,226.88 C 317.16,226.96 319.14,227.06 321.11,227.16 C 323.08,227.26 325.02,227.36 326.95,227.47 C 328.88,227.58 330.79,227.69 332.69,227.81 C 334.58,227.93 336.51,228.06 338.31,228.19 C 340.11,228.31 341.84,228.44 343.49,228.57 C 345.14,228.70 346.72,228.83 348.23,228.96 C 349.73,229.09 351.16,229.23 352.52,229.36 C 353.87,229.49 355.15,229.63 356.36,229.77 C 357.57,229.90 358.70,230.04 359.76,230.18 C 360.82,230.32 361.80,230.46 362.71,230.60 C 363.62,230.74 364.46,230.89 365.22,231.03 C 365.98,231.18 366.64,231.32 367.28,231.47 C 367.92,231.61 368.52,231.76 369.06,231.91 C 369.61,232.05 370.11,232.20 370.56,232.34 C 371.02,232.49 371.42,232.64 371.78,232.78 C 372.14,232.93 372.45,233.07 372.72,233.22 C 372.98,233.36 373.20,233.51 373.38,233.66 C 373.55,233.80 373.67,233.95 373.75,234.09 C 373.83,234.24 373.86,234.39 373.84,234.53 C 373.83,234.68 373.75,234.82 373.66,234.97 C 373.56,235.12 373.44,235.26 373.29,235.41 C 373.14,235.56 372.95,235.71 372.74,235.87 C 372.53,236.02 372.29,236.17 372.02,236.33 C 371.74,236.48 371.44,236.64 371.11,236.80 C 370.78,236.95 370.42,237.11 370.02,237.27 C 369.63,237.43 369.21,237.60 368.76,237.76 C 368.31,237.92 367.82,238.08 367.31,238.25 C 366.80,238.42 366.31,238.59 365.69,238.75 C 365.07,238.91 364.36,239.06 363.58,239.20 C 362.79,239.35 361.93,239.48 360.98,239.61 C 360.04,239.74 359.01,239.86 357.91,239.97 C 356.80,240.08 355.61,240.18 354.34,240.28 C 353.08,240.38 351.73,240.47 350.30,240.55 C 348.87,240.63 347.36,240.70 345.77,240.77 C 344.17,240.83 342.50,240.89 340.75,240.94 C 339.00,240.99 337.02,241.02 335.25,241.06 C 333.48,241.11 331.79,241.16 330.16,241.22 C 328.53,241.28 326.96,241.34 325.47,241.41 C 323.97,241.47 322.55,241.55 321.19,241.62 C 319.83,241.70 318.54,241.79 317.31,241.88 C 316.09,241.96 314.93,242.06 313.84,242.16 C 312.76,242.26 311.73,242.36 310.78,242.47 C 309.83,242.58 308.94,242.69 308.12,242.81 C 307.31,242.93 306.58,243.06 305.88,243.19 C 305.17,243.31 304.52,243.44 303.92,243.56 C 303.32,243.69 302.77,243.81 302.27,243.94 C 301.76,244.06 301.31,244.19 300.91,244.31 C 300.50,244.44 300.15,244.56 299.84,244.69 C 299.54,244.81 299.28,244.94 299.08,245.06 C 298.87,245.19 298.72,245.31 298.61,245.44 C 298.50,245.56 298.45,245.69 298.44,245.81 C 298.43,245.94 298.55,246.07 298.56,246.19 C 298.57,246.30 298.55,246.41 298.49,246.51 C 298.44,246.61 298.35,246.69 298.23,246.77 C 298.11,246.85 297.95,246.92 297.77,246.98 C 297.58,247.05 297.36,247.10 297.11,247.14 C 296.86,247.18 296.57,247.22 296.26,247.24 C 295.94,247.27 295.59,247.28 295.21,247.29 C 294.83,247.30 294.42,247.29 293.97,247.28 C 293.52,247.27 292.98,247.23 292.53,247.22 C 292.08,247.20 291.67,247.19 291.28,247.19 C 290.90,247.18 290.54,247.18 290.22,247.19 C 289.90,247.19 289.60,247.20 289.34,247.22 C 289.08,247.23 288.85,247.26 288.66,247.28 C 288.46,247.31 288.29,247.34 288.16,247.38 C 288.02,247.41 287.92,247.45 287.84,247.50 C 287.77,247.55 287.73,247.60 287.72,247.66 C 287.71,247.71 287.74,247.78 287.78,247.84 C 287.83,247.91 287.90,247.97 287.99,248.04 C 288.09,248.11 288.21,248.17 288.35,248.24 C 288.50,248.31 288.67,248.38 288.86,248.45 C 289.05,248.52 289.27,248.60 289.52,248.67 C 289.76,248.75 290.03,248.82 290.32,248.90 C 290.61,248.98 290.93,249.05 291.27,249.13 C 291.62,249.21 291.98,249.29 292.38,249.38 C 292.77,249.46 293.22,249.54 293.62,249.62 C 294.03,249.71 294.43,249.81 294.82,249.91 C 295.21,250.02 295.59,250.13 295.96,250.24 C 296.33,250.36 296.69,250.48 297.05,250.61 C 297.40,250.74 297.74,250.87 298.08,251.02 C 298.41,251.16 298.74,251.31 299.05,251.46 C 299.37,251.62 299.68,251.78 299.98,251.95 C 300.27,252.11 300.56,252.29 300.84,252.47 C 301.12,252.65 301.41,252.84 301.66,253.03 C 301.90,253.22 302.12,253.41 302.31,253.59 C 302.51,253.78 302.67,253.97 302.81,254.16 C 302.95,254.34 303.07,254.53 303.16,254.72 C 303.24,254.91 303.31,255.09 303.34,255.28 C 303.38,255.47 303.39,255.66 303.38,255.84 C 303.36,256.03 303.32,256.22 303.25,256.41 C 303.18,256.59 303.09,256.78 302.97,256.97 C 302.85,257.16 302.70,257.35 302.53,257.53 C 302.36,257.71 302.17,257.89 301.95,258.07 C 301.73,258.25 301.48,258.42 301.21,258.59 C 300.94,258.75 300.65,258.92 300.33,259.08 C 300.01,259.24 299.67,259.39 299.30,259.55 C 298.93,259.70 298.54,259.85 298.12,259.99 C 297.70,260.14 297.26,260.28 296.79,260.41 C 296.32,260.55 295.83,260.68 295.31,260.81 C 294.80,260.94 294.20,261.07 293.69,261.19 C 293.18,261.31 292.71,261.43 292.27,261.55 C 291.83,261.66 291.42,261.78 291.05,261.89 C 290.67,262.00 290.34,262.11 290.03,262.22 C 289.73,262.33 289.46,262.43 289.22,262.53 C 288.98,262.63 288.78,262.73 288.61,262.83 C 288.44,262.92 288.30,263.02 288.20,263.11 C 288.10,263.20 288.03,263.29 288.00,263.38 C 287.97,263.46 287.97,263.55 288.00,263.62 C 288.03,263.70 288.09,263.77 288.17,263.83 C 288.26,263.89 288.37,263.94 288.52,263.98 C 288.66,264.03 288.83,264.07 289.03,264.09 C 289.23,264.12 289.46,264.14 289.72,264.16 C 289.98,264.17 290.26,264.17 290.58,264.17 C 290.89,264.17 291.24,264.16 291.61,264.14 C 291.98,264.12 292.38,264.10 292.81,264.06 C 293.24,264.03 293.76,263.97 294.19,263.94 C 294.61,263.91 295.01,263.89 295.38,263.88 C 295.74,263.86 296.07,263.86 296.38,263.88 C 296.68,263.89 296.95,263.91 297.19,263.94 C 297.43,263.97 297.64,264.01 297.81,264.06 C 297.99,264.11 298.14,264.18 298.25,264.25 C 298.36,264.32 298.45,264.41 298.50,264.50 C 298.55,264.59 298.57,264.70 298.56,264.81 C 298.55,264.93 298.43,265.06 298.44,265.19 C 298.45,265.31 298.50,265.44 298.61,265.56 C 298.72,265.69 298.87,265.81 299.08,265.94 C 299.28,266.06 299.54,266.19 299.84,266.31 C 300.15,266.44 300.50,266.56 300.91,266.69 C 301.31,266.81 301.76,266.94 302.27,267.06 C 302.77,267.19 303.32,267.31 303.92,267.44 C 304.52,267.56 305.17,267.69 305.88,267.81 C 306.58,267.94 307.31,268.07 308.12,268.19 C 308.94,268.31 309.82,268.42 310.77,268.53 C 311.71,268.64 312.72,268.74 313.80,268.84 C 314.87,268.94 316.01,269.04 317.22,269.12 C 318.42,269.21 319.70,269.30 321.03,269.38 C 322.37,269.45 323.77,269.53 325.23,269.59 C 326.70,269.66 328.23,269.72 329.83,269.78 C 331.42,269.84 333.09,269.89 334.81,269.94 C 336.54,269.98 338.47,270.01 340.19,270.06 C 341.90,270.11 343.54,270.17 345.11,270.23 C 346.67,270.30 348.16,270.37 349.58,270.45 C 350.99,270.53 352.33,270.62 353.59,270.72 C 354.86,270.82 356.04,270.92 357.16,271.03 C 358.27,271.14 359.30,271.26 360.27,271.39 C 361.23,271.52 362.11,271.65 362.92,271.80 C 363.73,271.94 364.47,272.09 365.12,272.25 C 365.78,272.41 366.32,272.59 366.88,272.75 C 367.43,272.91 367.95,273.07 368.45,273.23 C 368.94,273.38 369.40,273.53 369.84,273.68 C 370.27,273.83 370.67,273.97 371.05,274.11 C 371.42,274.25 371.76,274.38 372.08,274.52 C 372.39,274.65 372.68,274.77 372.93,274.90 C 373.18,275.02 373.41,275.14 373.60,275.26 C 373.80,275.37 373.96,275.49 374.09,275.59 C 374.23,275.70 374.31,275.80 374.41,275.91 C 374.50,276.01 374.58,276.11 374.66,276.22 C 374.73,276.32 374.79,276.43 374.84,276.53 C 374.90,276.64 374.94,276.74 374.97,276.84 C 375.00,276.95 375.02,277.05 375.03,277.16 C 375.04,277.26 375.04,277.36 375.03,277.47 C 375.02,277.57 375.00,277.68 374.97,277.78 C 374.94,277.89 374.90,277.99 374.84,278.09 C 374.79,278.20 374.87,278.30 374.66,278.41 C 374.44,278.52 374.07,278.63 373.54,278.76 C 373.01,278.88 372.33,279.01 371.49,279.15 C 370.65,279.29 369.66,279.43 368.52,279.58 C 367.37,279.73 366.07,279.88 364.61,280.05 C 363.15,280.21 361.54,280.38 359.77,280.55 C 358.01,280.73 356.08,280.91 354.01,281.10 C 351.93,281.29 349.70,281.49 347.31,281.69 C 344.93,281.89 342.18,282.11 339.69,282.31 C 337.19,282.51 334.74,282.70 332.34,282.88 C 329.94,283.05 327.59,283.22 325.28,283.38 C 322.97,283.53 320.71,283.68 318.50,283.81 C 316.29,283.95 314.12,284.07 312.00,284.19 C 309.88,284.30 307.81,284.41 305.78,284.50 C 303.76,284.59 301.78,284.68 299.84,284.75 C 297.91,284.82 296.03,284.89 294.19,284.94 C 292.35,284.99 290.63,285.02 288.81,285.06 C 286.99,285.10 285.14,285.14 283.27,285.17 C 281.39,285.21 279.48,285.24 277.55,285.27 C 275.61,285.29 273.65,285.32 271.66,285.34 C 269.66,285.37 267.64,285.39 265.59,285.41 C 263.54,285.42 261.47,285.44 259.36,285.45 C 257.25,285.47 255.12,285.48 252.95,285.48 C 250.79,285.49 248.60,285.50 246.38,285.50 Z" fill="none" stroke="currentColor" stroke-width="1.5" stroke-linejoin="round" stroke-linecap="round" filter="url(#glow)" />
</svg>