<svg xmlns="http://www.w3.org/2000/svg" width="512" height="512" viewBox="51.10 137.38 409.02 235.44" preserveAspectRatio="xMidYMid meet">
  <defs>
    <filter id="glow" x="-30%" y="-30%" width="160%" height="160%">
      <feGaussianBlur in="SourceGraphic" stdDeviation="2.4" result="blur" />
      <feMerge>
        <feMergeNode in="blur" />
        <feMergeNode in="SourceGraphic" />
      </feMerge>
    </filter>
    <clipPath id="hull-clip">
      <path d="M 348.19,353.06 C 346.50,353.03 344.50,352.99 342.81,352.94 C 341.13,352.88 339.55,352.82 338.07,352.74 C 336.60,352.67 335.23,352.58 333.96,352.48 C 332.70,352.38 331.54,352.26 330.48,352.14 C 329.43,352.02 328.48,351.88 327.64,351.73 C 326.80,351.59 326.06,351.43 325.43,351.26 C 324.80,351.09 324.27,350.90 323.85,350.71 C 323.43,350.52 323.12,350.31 322.91,350.09 C 322.70,349.88 322.75,349.67 322.59,349.41 C 322.44,349.14 322.24,348.83 321.98,348.48 C 321.73,348.14 321.43,347.75 321.08,347.33 C 320.73,346.90 320.33,346.44 319.88,345.94 C 319.42,345.43 318.92,344.89 318.38,344.31 C 317.83,343.73 317.23,343.11 316.58,342.45 C 315.93,341.79 315.23,341.10 314.48,340.36 C 313.74,339.62 312.94,338.85 312.09,338.03 C 311.25,337.22 310.26,336.27 309.41,335.47 C 308.56,334.67 307.75,333.92 306.99,333.23 C 306.23,332.53 305.52,331.89 304.85,331.30 C 304.18,330.72 303.56,330.18 302.98,329.70 C 302.41,329.22 301.88,328.80 301.39,328.42 C 300.90,328.05 300.46,327.73 300.07,327.46 C 299.68,327.19 299.33,326.98 299.02,326.82 C 298.72,326.66 298.46,326.55 298.25,326.50 C 298.04,326.45 297.92,326.52 297.75,326.50 C 297.58,326.48 297.41,326.45 297.23,326.41 C 297.06,326.36 296.88,326.30 296.70,326.22 C 296.52,326.14 296.34,326.05 296.16,325.94 C 295.97,325.83 295.78,325.70 295.59,325.56 C 295.40,325.42 295.21,325.27 295.02,325.09 C 294.82,324.92 294.62,324.73 294.42,324.53 C 294.22,324.33 294.02,324.11 293.81,323.88 C 293.61,323.64 293.46,323.41 293.19,323.12 C 292.91,322.84 292.57,322.52 292.16,322.16 C 291.74,321.80 291.27,321.40 290.72,320.97 C 290.17,320.54 289.56,320.07 288.88,319.56 C 288.19,319.06 287.44,318.52 286.62,317.94 C 285.81,317.36 284.92,316.74 283.97,316.09 C 283.02,315.44 281.99,314.76 280.91,314.03 C 279.82,313.31 278.66,312.55 277.44,311.75 C 276.21,310.95 274.85,310.07 273.56,309.25 C 272.27,308.43 270.98,307.63 269.69,306.84 C 268.40,306.06 267.10,305.29 265.81,304.53 C 264.52,303.78 263.23,303.04 261.94,302.31 C 260.65,301.59 259.35,300.88 258.06,300.19 C 256.77,299.49 255.48,298.82 254.19,298.16 C 252.90,297.49 251.60,296.85 250.31,296.22 C 249.02,295.59 247.73,294.97 246.44,294.38 C 245.15,293.78 243.92,293.20 242.56,292.62 C 241.21,292.05 239.78,291.47 238.30,290.91 C 236.81,290.34 235.26,289.78 233.64,289.22 C 232.02,288.66 230.34,288.11 228.59,287.56 C 226.85,287.02 225.03,286.47 223.16,285.94 C 221.28,285.40 219.34,284.87 217.33,284.34 C 215.32,283.82 213.25,283.30 211.11,282.78 C 208.97,282.27 206.77,281.76 204.50,281.25 C 202.23,280.74 199.69,280.21 197.50,279.75 C 195.31,279.29 193.25,278.86 191.34,278.46 C 189.42,278.07 187.64,277.71 186.01,277.38 C 184.37,277.06 182.87,276.77 181.52,276.52 C 180.16,276.26 178.94,276.04 177.86,275.86 C 176.78,275.68 175.84,275.53 175.04,275.41 C 174.24,275.30 173.58,275.22 173.05,275.18 C 172.53,275.14 172.15,275.13 171.91,275.16 C 171.66,275.18 171.68,275.28 171.59,275.34 C 171.50,275.41 171.43,275.48 171.37,275.55 C 171.31,275.63 171.26,275.71 171.23,275.79 C 171.19,275.87 171.18,275.96 171.17,276.05 C 171.17,276.14 171.18,276.23 171.20,276.33 C 171.23,276.43 171.27,276.53 171.32,276.63 C 171.37,276.74 171.44,276.85 171.52,276.96 C 171.61,277.07 171.70,277.19 171.81,277.31 C 171.92,277.43 172.08,277.56 172.19,277.69 C 172.30,277.81 172.39,277.94 172.48,278.07 C 172.56,278.20 172.63,278.33 172.68,278.46 C 172.73,278.59 172.77,278.73 172.80,278.86 C 172.82,278.99 172.83,279.13 172.83,279.27 C 172.82,279.40 172.81,279.54 172.77,279.68 C 172.74,279.82 172.69,279.96 172.63,280.10 C 172.57,280.24 172.50,280.39 172.41,280.53 C 172.32,280.68 172.22,280.83 172.09,280.97 C 171.96,281.10 171.81,281.23 171.63,281.34 C 171.45,281.45 171.25,281.55 171.02,281.63 C 170.80,281.72 170.54,281.80 170.27,281.86 C 169.99,281.92 169.69,281.98 169.36,282.02 C 169.03,282.06 168.68,282.08 168.30,282.10 C 167.93,282.12 167.53,282.12 167.10,282.12 C 166.68,282.11 166.23,282.09 165.75,282.06 C 165.27,282.03 164.72,281.98 164.25,281.94 C 163.78,281.89 163.34,281.85 162.92,281.80 C 162.51,281.75 162.12,281.70 161.77,281.64 C 161.41,281.59 161.08,281.53 160.78,281.47 C 160.48,281.41 160.21,281.35 159.97,281.28 C 159.73,281.22 159.51,281.15 159.33,281.08 C 159.14,281.01 158.99,280.93 158.86,280.86 C 158.73,280.78 158.63,280.71 158.56,280.62 C 158.49,280.54 158.52,280.45 158.44,280.38 C 158.35,280.30 158.22,280.23 158.05,280.17 C 157.87,280.11 157.65,280.06 157.39,280.02 C 157.13,279.97 156.82,279.93 156.47,279.91 C 156.12,279.88 155.72,279.86 155.28,279.84 C 154.84,279.83 154.36,279.83 153.83,279.83 C 153.30,279.83 152.73,279.84 152.11,279.86 C 151.49,279.88 150.83,279.90 150.12,279.94 C 149.42,279.97 148.58,280.03 147.88,280.06 C 147.17,280.09 146.52,280.11 145.91,280.11 C 145.30,280.11 144.73,280.10 144.22,280.08 C 143.70,280.05 143.23,280.02 142.81,279.97 C 142.39,279.92 142.02,279.86 141.69,279.78 C 141.36,279.71 141.08,279.62 140.84,279.52 C 140.61,279.41 140.42,279.30 140.28,279.17 C 140.14,279.04 140.05,278.90 140.00,278.75 C 139.95,278.60 139.94,278.41 140.00,278.25 C 140.06,278.09 140.17,277.95 140.34,277.81 C 140.52,277.68 140.74,277.55 141.03,277.44 C 141.32,277.32 141.66,277.22 142.06,277.12 C 142.46,277.03 142.92,276.95 143.44,276.88 C 143.95,276.80 144.53,276.74 145.16,276.69 C 145.79,276.64 146.47,276.59 147.22,276.56 C 147.96,276.53 148.77,276.51 149.62,276.50 C 150.48,276.49 151.52,276.51 152.38,276.50 C 153.23,276.49 154.02,276.47 154.75,276.44 C 155.48,276.41 156.15,276.36 156.75,276.31 C 157.35,276.26 157.90,276.20 158.38,276.12 C 158.85,276.05 159.27,275.97 159.62,275.88 C 159.98,275.78 160.27,275.68 160.50,275.56 C 160.73,275.45 160.90,275.32 161.00,275.19 C 161.10,275.05 161.15,274.91 161.12,274.75 C 161.10,274.59 161.11,274.43 160.88,274.25 C 160.64,274.07 160.25,273.87 159.70,273.66 C 159.16,273.44 158.46,273.21 157.61,272.97 C 156.76,272.72 155.75,272.46 154.59,272.19 C 153.43,271.91 152.12,271.62 150.66,271.31 C 149.19,271.01 147.57,270.68 145.80,270.34 C 144.02,270.01 142.10,269.65 140.02,269.28 C 137.93,268.91 135.70,268.53 133.31,268.12 C 130.92,267.72 128.09,267.27 125.69,266.88 C 123.28,266.48 121.01,266.12 118.88,265.78 C 116.74,265.44 114.74,265.13 112.88,264.84 C 111.01,264.56 109.28,264.30 107.69,264.06 C 106.09,263.83 104.64,263.62 103.31,263.44 C 101.99,263.26 100.80,263.10 99.75,262.97 C 98.70,262.84 97.78,262.73 97.00,262.66 C 96.22,262.58 95.57,262.53 95.06,262.50 C 94.55,262.47 94.34,262.52 93.94,262.50 C 93.54,262.48 93.11,262.45 92.66,262.41 C 92.20,262.36 91.72,262.30 91.22,262.22 C 90.71,262.14 90.18,262.05 89.62,261.94 C 89.07,261.83 88.48,261.70 87.88,261.56 C 87.27,261.42 86.63,261.27 85.97,261.09 C 85.31,260.92 84.62,260.73 83.91,260.53 C 83.19,260.33 82.45,260.11 81.69,259.88 C 80.92,259.64 80.06,259.36 79.31,259.12 C 78.57,258.89 77.87,258.66 77.23,258.45 C 76.58,258.23 75.98,258.03 75.43,257.84 C 74.88,257.64 74.38,257.46 73.92,257.30 C 73.47,257.13 73.06,256.97 72.70,256.83 C 72.35,256.68 72.04,256.55 71.77,256.43 C 71.51,256.31 71.30,256.20 71.13,256.10 C 70.97,256.00 70.85,255.92 70.78,255.84 C 70.71,255.77 70.73,255.72 70.72,255.66 C 70.71,255.59 70.72,255.52 70.73,255.45 C 70.75,255.38 70.78,255.31 70.83,255.23 C 70.87,255.16 70.93,255.08 71.00,255.00 C 71.07,254.92 71.15,254.84 71.25,254.75 C 71.35,254.66 71.46,254.58 71.58,254.48 C 71.70,254.39 71.84,254.30 71.98,254.20 C 72.13,254.11 72.29,254.01 72.47,253.91 C 72.64,253.80 72.82,253.70 73.03,253.59 C 73.25,253.49 73.49,253.37 73.76,253.26 C 74.03,253.14 74.32,253.02 74.65,252.90 C 74.97,252.77 75.32,252.65 75.70,252.52 C 76.08,252.38 76.49,252.25 76.92,252.11 C 77.36,251.97 77.82,251.83 78.30,251.68 C 78.79,251.53 79.31,251.38 79.85,251.23 C 80.39,251.07 80.96,250.91 81.56,250.75 C 82.16,250.59 82.83,250.41 83.44,250.25 C 84.05,250.09 84.64,249.95 85.22,249.81 C 85.80,249.68 86.36,249.55 86.91,249.44 C 87.45,249.32 87.98,249.22 88.50,249.12 C 89.02,249.03 89.52,248.95 90.00,248.88 C 90.48,248.80 90.95,248.74 91.41,248.69 C 91.86,248.64 92.30,248.59 92.72,248.56 C 93.14,248.53 93.55,248.51 93.94,248.50 C 94.33,248.49 94.55,248.53 95.06,248.50 C 95.57,248.47 96.22,248.42 97.00,248.34 C 97.78,248.27 98.70,248.16 99.75,248.03 C 100.80,247.90 101.99,247.74 103.31,247.56 C 104.64,247.38 106.09,247.17 107.69,246.94 C 109.28,246.70 111.01,246.44 112.88,246.16 C 114.74,245.87 116.74,245.56 118.88,245.22 C 121.01,244.88 123.28,244.52 125.69,244.12 C 128.09,243.73 130.92,243.28 133.31,242.88 C 135.70,242.47 137.93,242.09 140.02,241.72 C 142.10,241.35 144.02,240.99 145.80,240.66 C 147.57,240.32 149.19,239.99 150.66,239.69 C 152.12,239.38 153.43,239.09 154.59,238.81 C 155.75,238.54 156.76,238.28 157.61,238.03 C 158.46,237.79 159.16,237.56 159.70,237.34 C 160.25,237.13 160.64,236.93 160.88,236.75 C 161.11,236.57 161.11,236.41 161.12,236.25 C 161.14,236.09 161.10,235.94 160.99,235.80 C 160.88,235.67 160.71,235.54 160.48,235.41 C 160.24,235.29 159.94,235.18 159.58,235.08 C 159.21,234.98 158.79,234.88 158.30,234.80 C 157.81,234.71 157.25,234.64 156.63,234.57 C 156.01,234.50 155.33,234.45 154.59,234.40 C 153.84,234.35 153.03,234.31 152.16,234.28 C 151.28,234.25 150.22,234.25 149.34,234.22 C 148.47,234.19 147.65,234.15 146.89,234.11 C 146.13,234.07 145.43,234.01 144.80,233.95 C 144.16,233.89 143.58,233.83 143.06,233.75 C 142.54,233.67 142.09,233.59 141.69,233.50 C 141.29,233.41 140.95,233.31 140.67,233.20 C 140.39,233.10 140.17,232.98 140.02,232.86 C 139.86,232.74 139.76,232.61 139.72,232.47 C 139.68,232.33 139.71,232.17 139.78,232.03 C 139.85,231.90 139.96,231.77 140.12,231.66 C 140.27,231.55 140.48,231.45 140.73,231.37 C 140.98,231.28 141.27,231.20 141.61,231.14 C 141.95,231.08 142.33,231.02 142.77,230.98 C 143.20,230.94 143.67,230.92 144.20,230.90 C 144.72,230.88 145.29,230.88 145.90,230.88 C 146.51,230.89 147.17,230.91 147.88,230.94 C 148.58,230.97 149.42,231.03 150.12,231.06 C 150.83,231.10 151.49,231.12 152.11,231.14 C 152.73,231.16 153.30,231.17 153.83,231.17 C 154.36,231.17 154.84,231.17 155.28,231.16 C 155.72,231.14 156.12,231.12 156.47,231.09 C 156.82,231.07 157.13,231.03 157.39,230.98 C 157.65,230.94 157.87,230.89 158.05,230.83 C 158.22,230.77 158.35,230.70 158.44,230.62 C 158.52,230.55 158.49,230.46 158.56,230.38 C 158.63,230.29 158.73,230.22 158.86,230.14 C 158.99,230.07 159.14,229.99 159.33,229.92 C 159.51,229.85 159.73,229.78 159.97,229.72 C 160.21,229.65 160.48,229.59 160.78,229.53 C 161.08,229.47 161.41,229.41 161.77,229.36 C 162.12,229.30 162.51,229.25 162.92,229.20 C 163.34,229.15 163.78,229.11 164.25,229.06 C 164.72,229.02 165.27,228.97 165.75,228.94 C 166.23,228.91 166.68,228.89 167.10,228.88 C 167.53,228.88 167.93,228.88 168.30,228.90 C 168.68,228.92 169.03,228.94 169.36,228.98 C 169.69,229.02 169.99,229.08 170.27,229.14 C 170.54,229.20 170.80,229.28 171.02,229.37 C 171.25,229.45 171.45,229.55 171.63,229.66 C 171.81,229.77 171.96,229.90 172.09,230.03 C 172.22,230.17 172.32,230.32 172.41,230.47 C 172.50,230.61 172.57,230.76 172.63,230.90 C 172.69,231.04 172.74,231.18 172.77,231.32 C 172.81,231.46 172.82,231.60 172.83,231.73 C 172.83,231.87 172.82,232.01 172.80,232.14 C 172.77,232.27 172.73,232.41 172.68,232.54 C 172.63,232.67 172.56,232.80 172.48,232.93 C 172.39,233.06 172.30,233.19 172.19,233.31 C 172.08,233.44 171.92,233.57 171.81,233.69 C 171.71,233.81 171.62,233.92 171.55,234.02 C 171.49,234.13 171.44,234.23 171.41,234.32 C 171.39,234.41 171.38,234.50 171.39,234.58 C 171.40,234.66 171.43,234.73 171.48,234.80 C 171.54,234.86 171.61,234.92 171.70,234.98 C 171.79,235.03 171.89,235.08 172.02,235.12 C 172.15,235.16 172.30,235.19 172.47,235.22 C 172.64,235.25 172.75,235.28 173.03,235.28 C 173.32,235.28 173.70,235.26 174.18,235.21 C 174.66,235.17 175.24,235.10 175.91,235.01 C 176.59,234.92 177.36,234.81 178.23,234.67 C 179.11,234.54 180.07,234.38 181.14,234.20 C 182.21,234.02 183.37,233.82 184.63,233.60 C 185.89,233.38 187.25,233.13 188.71,232.87 C 190.17,232.60 191.72,232.31 193.38,232.00 C 195.03,231.69 196.94,231.33 198.62,231.00 C 200.31,230.67 201.93,230.36 203.48,230.05 C 205.04,229.74 206.53,229.43 207.95,229.14 C 209.38,228.85 210.74,228.56 212.03,228.28 C 213.33,228.00 214.55,227.73 215.72,227.47 C 216.88,227.21 217.98,226.95 219.02,226.70 C 220.05,226.46 221.02,226.22 221.92,225.98 C 222.83,225.75 223.66,225.53 224.44,225.31 C 225.21,225.10 225.83,224.91 226.56,224.69 C 227.29,224.46 228.05,224.22 228.83,223.95 C 229.61,223.69 230.41,223.41 231.23,223.11 C 232.06,222.81 232.91,222.49 233.78,222.16 C 234.65,221.82 235.55,221.47 236.47,221.09 C 237.39,220.72 238.33,220.33 239.30,219.92 C 240.26,219.51 241.25,219.09 242.27,218.64 C 243.28,218.20 244.32,217.73 245.38,217.25 C 246.43,216.77 247.53,216.27 248.62,215.75 C 249.72,215.23 250.83,214.69 251.95,214.12 C 253.08,213.56 254.21,212.98 255.36,212.38 C 256.51,211.77 257.67,211.15 258.84,210.50 C 260.02,209.85 261.21,209.19 262.41,208.50 C 263.61,207.81 264.82,207.10 266.05,206.38 C 267.27,205.65 268.51,204.90 269.77,204.12 C 271.02,203.35 272.28,202.56 273.56,201.75 C 274.84,200.94 276.21,200.05 277.44,199.25 C 278.66,198.45 279.82,197.69 280.91,196.97 C 281.99,196.24 283.02,195.56 283.97,194.91 C 284.92,194.26 285.81,193.64 286.62,193.06 C 287.44,192.48 288.19,191.94 288.88,191.44 C 289.56,190.93 290.17,190.46 290.72,190.03 C 291.27,189.60 291.74,189.20 292.16,188.84 C 292.57,188.48 292.91,188.16 293.19,187.88 C 293.46,187.59 293.60,187.36 293.81,187.12 C 294.02,186.89 294.24,186.66 294.45,186.45 C 294.67,186.24 294.89,186.04 295.11,185.86 C 295.33,185.67 295.55,185.50 295.78,185.34 C 296.01,185.18 296.24,185.04 296.47,184.91 C 296.70,184.77 296.93,184.65 297.17,184.55 C 297.41,184.44 297.65,184.35 297.89,184.27 C 298.13,184.18 298.38,184.12 298.62,184.06 C 298.87,184.01 299.09,184.03 299.38,183.94 C 299.66,183.85 299.98,183.71 300.34,183.52 C 300.69,183.34 301.08,183.10 301.51,182.82 C 301.93,182.54 302.39,182.21 302.89,181.83 C 303.39,181.45 303.92,181.02 304.48,180.55 C 305.05,180.07 305.65,179.55 306.29,178.98 C 306.93,178.40 307.60,177.79 308.30,177.12 C 309.01,176.45 309.75,175.73 310.53,174.97 C 311.31,174.20 312.20,173.31 312.97,172.53 C 313.74,171.76 314.46,171.02 315.14,170.31 C 315.82,169.61 316.46,168.94 317.05,168.31 C 317.64,167.68 318.18,167.09 318.69,166.53 C 319.19,165.97 319.65,165.45 320.06,164.97 C 320.48,164.48 320.85,164.04 321.17,163.62 C 321.50,163.21 321.78,162.84 322.02,162.50 C 322.25,162.16 322.45,161.86 322.59,161.59 C 322.74,161.33 322.76,161.13 322.91,160.91 C 323.05,160.69 323.24,160.48 323.48,160.27 C 323.71,160.07 323.99,159.88 324.30,159.70 C 324.62,159.51 324.99,159.34 325.39,159.17 C 325.80,159.01 326.24,158.85 326.73,158.70 C 327.23,158.56 327.76,158.42 328.34,158.29 C 328.91,158.16 329.53,158.04 330.20,157.93 C 330.86,157.82 331.56,157.72 332.31,157.62 C 333.06,157.53 333.88,157.45 334.69,157.38 C 335.50,157.30 336.33,157.24 337.19,157.19 C 338.04,157.14 338.92,157.09 339.81,157.06 C 340.71,157.03 341.62,157.01 342.56,157.00 C 343.50,156.99 344.46,156.99 345.44,157.00 C 346.42,157.01 347.42,157.03 348.44,157.06 C 349.46,157.09 350.50,157.14 351.56,157.19 C 352.62,157.24 353.71,157.30 354.81,157.38 C 355.92,157.45 357.13,157.54 358.19,157.62 C 359.24,157.71 360.23,157.81 361.15,157.91 C 362.07,158.02 362.92,158.13 363.70,158.24 C 364.48,158.36 365.19,158.48 365.83,158.61 C 366.47,158.74 367.04,158.87 367.55,159.02 C 368.05,159.16 368.49,159.31 368.85,159.46 C 369.22,159.62 369.51,159.78 369.74,159.95 C 369.97,160.11 370.13,160.29 370.22,160.47 C 370.31,160.65 370.22,160.79 370.28,161.03 C 370.34,161.27 370.44,161.57 370.59,161.93 C 370.73,162.29 370.91,162.70 371.13,163.16 C 371.36,163.63 371.62,164.15 371.92,164.73 C 372.23,165.31 372.57,165.95 372.95,166.64 C 373.34,167.33 373.76,168.08 374.23,168.88 C 374.69,169.69 375.20,170.55 375.74,171.46 C 376.29,172.38 376.87,173.35 377.50,174.38 C 378.13,175.40 378.84,176.58 379.50,177.62 C 380.16,178.67 380.81,179.67 381.45,180.64 C 382.10,181.61 382.73,182.53 383.36,183.42 C 383.99,184.31 384.61,185.16 385.22,185.97 C 385.83,186.78 386.43,187.55 387.03,188.28 C 387.63,189.01 388.22,189.71 388.80,190.36 C 389.38,191.01 389.95,191.63 390.52,192.20 C 391.08,192.78 391.64,193.32 392.19,193.81 C 392.74,194.31 393.23,194.67 393.81,195.19 C 394.40,195.70 395.03,196.28 395.70,196.91 C 396.38,197.54 397.10,198.22 397.86,198.97 C 398.62,199.71 399.43,200.52 400.28,201.38 C 401.13,202.23 402.03,203.15 402.97,204.12 C 403.91,205.10 404.89,206.13 405.92,207.22 C 406.95,208.31 408.02,209.45 409.14,210.66 C 410.26,211.86 411.42,213.12 412.62,214.44 C 413.83,215.76 415.20,217.27 416.38,218.56 C 417.55,219.86 418.65,221.07 419.67,222.20 C 420.70,223.34 421.64,224.39 422.52,225.36 C 423.39,226.33 424.18,227.22 424.91,228.03 C 425.63,228.84 426.27,229.57 426.84,230.22 C 427.41,230.87 427.91,231.43 428.33,231.92 C 428.75,232.41 429.09,232.82 429.36,233.14 C 429.63,233.47 429.82,233.71 429.94,233.88 C 430.05,234.04 430.03,234.04 430.06,234.12 C 430.10,234.21 430.12,234.28 430.14,234.36 C 430.16,234.43 430.17,234.51 430.17,234.58 C 430.17,234.65 430.17,234.72 430.16,234.78 C 430.14,234.85 430.12,234.91 430.09,234.97 C 430.07,235.03 430.03,235.09 429.98,235.14 C 429.94,235.20 429.89,235.25 429.83,235.30 C 429.77,235.35 429.70,235.39 429.62,235.44 C 429.55,235.48 429.43,235.50 429.38,235.56 C 429.32,235.62 429.29,235.70 429.30,235.80 C 429.30,235.89 429.33,236.01 429.39,236.14 C 429.45,236.27 429.54,236.42 429.66,236.59 C 429.77,236.76 429.92,236.95 430.09,237.16 C 430.27,237.36 430.47,237.59 430.70,237.83 C 430.93,238.07 431.20,238.33 431.48,238.61 C 431.77,238.89 432.09,239.18 432.44,239.50 C 432.78,239.82 433.20,240.15 433.56,240.50 C 433.92,240.85 434.27,241.21 434.61,241.58 C 434.95,241.95 435.27,242.34 435.58,242.73 C 435.89,243.13 436.18,243.54 436.47,243.97 C 436.75,244.39 437.02,244.83 437.28,245.28 C 437.54,245.73 437.78,246.20 438.02,246.67 C 438.25,247.15 438.47,247.64 438.67,248.14 C 438.88,248.64 439.07,249.16 439.25,249.69 C 439.43,250.22 439.60,250.78 439.75,251.31 C 439.90,251.85 440.02,252.37 440.12,252.89 C 440.23,253.41 440.31,253.92 440.38,254.42 C 440.44,254.92 440.48,255.42 440.50,255.91 C 440.52,256.39 440.52,256.87 440.50,257.34 C 440.48,257.82 440.44,258.28 440.38,258.73 C 440.31,259.19 440.23,259.64 440.12,260.08 C 440.02,260.52 439.90,260.95 439.75,261.38 C 439.60,261.80 439.43,262.21 439.25,262.62 C 439.07,263.04 438.88,263.44 438.67,263.84 C 438.47,264.24 438.25,264.64 438.02,265.03 C 437.78,265.42 437.54,265.81 437.28,266.19 C 437.02,266.57 436.75,266.94 436.47,267.31 C 436.18,267.68 435.89,268.05 435.58,268.41 C 435.27,268.77 434.95,269.12 434.61,269.47 C 434.27,269.82 433.92,270.16 433.56,270.50 C 433.20,270.84 432.78,271.18 432.44,271.50 C 432.09,271.82 431.77,272.11 431.48,272.39 C 431.20,272.67 430.93,272.93 430.70,273.17 C 430.47,273.41 430.27,273.64 430.09,273.84 C 429.92,274.05 429.77,274.24 429.66,274.41 C 429.54,274.58 429.45,274.73 429.39,274.86 C 429.33,274.99 429.30,275.11 429.30,275.20 C 429.29,275.30 429.32,275.38 429.38,275.44 C 429.43,275.50 429.55,275.52 429.62,275.56 C 429.70,275.61 429.77,275.65 429.83,275.70 C 429.89,275.75 429.94,275.80 429.98,275.86 C 430.03,275.91 430.07,275.97 430.09,276.03 C 430.12,276.09 430.14,276.15 430.16,276.22 C 430.17,276.28 430.17,276.35 430.17,276.42 C 430.17,276.49 430.16,276.57 430.14,276.64 C 430.12,276.72 430.10,276.79 430.06,276.88 C 430.03,276.96 429.99,277.03 429.94,277.12 C 429.88,277.22 429.81,277.32 429.72,277.44 C 429.63,277.55 429.53,277.68 429.41,277.81 C 429.29,277.95 429.15,278.09 429.00,278.25 C 428.85,278.41 428.68,278.57 428.50,278.75 C 428.32,278.93 428.12,279.11 427.91,279.31 C 427.69,279.51 427.46,279.72 427.22,279.94 C 426.97,280.16 426.71,280.39 426.44,280.62 C 426.16,280.86 425.84,281.12 425.56,281.38 C 425.28,281.62 425.02,281.88 424.77,282.12 C 424.51,282.38 424.27,282.62 424.05,282.88 C 423.82,283.12 423.61,283.38 423.41,283.62 C 423.21,283.88 423.02,284.12 422.84,284.38 C 422.67,284.62 422.51,284.88 422.36,285.12 C 422.21,285.38 422.08,285.62 421.95,285.88 C 421.83,286.12 421.72,286.38 421.62,286.62 C 421.53,286.88 421.46,287.14 421.38,287.38 C 421.29,287.61 421.20,287.84 421.10,288.05 C 421.01,288.27 420.91,288.47 420.80,288.66 C 420.70,288.86 420.60,289.04 420.48,289.20 C 420.37,289.37 420.26,289.53 420.14,289.67 C 420.02,289.82 419.90,289.95 419.77,290.07 C 419.65,290.19 419.52,290.30 419.38,290.40 C 419.25,290.50 419.11,290.58 418.97,290.66 C 418.83,290.73 418.71,290.73 418.53,290.84 C 418.35,290.95 418.13,291.11 417.88,291.31 C 417.62,291.52 417.33,291.77 417.00,292.06 C 416.67,292.36 416.31,292.70 415.91,293.09 C 415.51,293.48 415.07,293.92 414.59,294.41 C 414.12,294.89 413.61,295.42 413.06,296.00 C 412.52,296.58 411.93,297.20 411.31,297.88 C 410.69,298.55 410.04,299.27 409.34,300.03 C 408.65,300.80 407.88,301.68 407.16,302.47 C 406.44,303.26 405.73,304.04 405.02,304.79 C 404.32,305.54 403.63,306.28 402.95,306.99 C 402.26,307.71 401.59,308.40 400.92,309.08 C 400.26,309.75 399.60,310.41 398.95,311.05 C 398.31,311.68 397.67,312.30 397.04,312.90 C 396.41,313.50 395.79,314.07 395.18,314.63 C 394.57,315.19 393.97,315.73 393.38,316.25 C 392.78,316.77 392.21,317.23 391.62,317.75 C 391.04,318.27 390.47,318.82 389.89,319.39 C 389.32,319.96 388.74,320.55 388.17,321.17 C 387.60,321.79 387.03,322.43 386.47,323.09 C 385.90,323.76 385.34,324.45 384.78,325.16 C 384.22,325.87 383.66,326.60 383.11,327.36 C 382.55,328.12 382.00,328.90 381.45,329.70 C 380.90,330.51 380.36,331.34 379.81,332.19 C 379.27,333.04 378.69,333.99 378.19,334.81 C 377.68,335.64 377.21,336.41 376.78,337.12 C 376.35,337.84 375.95,338.51 375.59,339.12 C 375.23,339.74 374.91,340.30 374.62,340.81 C 374.34,341.32 374.09,341.78 373.88,342.19 C 373.66,342.59 373.48,342.95 373.34,343.25 C 373.20,343.55 373.10,343.80 373.03,344.00 C 372.96,344.20 372.93,344.34 372.94,344.44 C 372.94,344.53 373.03,344.52 373.06,344.56 C 373.09,344.61 373.11,344.65 373.12,344.70 C 373.14,344.75 373.14,344.80 373.12,344.86 C 373.11,344.91 373.09,344.97 373.06,345.03 C 373.03,345.09 372.99,345.15 372.94,345.22 C 372.89,345.28 372.82,345.35 372.75,345.42 C 372.68,345.49 372.59,345.57 372.50,345.64 C 372.41,345.72 372.30,345.79 372.19,345.88 C 372.07,345.96 371.93,346.03 371.81,346.12 C 371.70,346.22 371.59,346.32 371.48,346.42 C 371.38,346.53 371.29,346.64 371.20,346.77 C 371.12,346.89 371.04,347.02 370.97,347.16 C 370.90,347.29 370.84,347.44 370.78,347.59 C 370.73,347.75 370.68,347.91 370.64,348.08 C 370.60,348.25 370.57,348.42 370.55,348.61 C 370.52,348.79 370.51,348.99 370.50,349.19 C 370.49,349.39 370.51,349.61 370.50,349.81 C 370.49,350.01 370.47,350.20 370.45,350.38 C 370.42,350.56 370.38,350.74 370.34,350.90 C 370.29,351.06 370.24,351.21 370.17,351.36 C 370.11,351.50 370.04,351.64 369.95,351.77 C 369.87,351.89 369.78,352.01 369.68,352.12 C 369.58,352.23 369.47,352.32 369.35,352.41 C 369.23,352.50 369.11,352.58 368.97,352.66 C 368.83,352.73 368.78,352.79 368.53,352.84 C 368.28,352.90 367.93,352.95 367.48,352.99 C 367.02,353.04 366.46,353.07 365.80,353.10 C 365.14,353.13 364.38,353.15 363.52,353.17 C 362.65,353.19 361.68,353.20 360.61,353.20 C 359.54,353.21 358.36,353.20 357.09,353.20 C 355.81,353.19 354.43,353.17 352.95,353.15 C 351.46,353.13 349.88,353.10 348.19,353.06 Z" />
    </clipPath>
  </defs>
  <path d="M 348.19,353.06 C 346.50,353.03 344.50,352.99 342.81,352.94 C 341.13,352.88 339.55,352.82 338.07,352.74 C 336.60,352.67 335.23,352.58 333.96,352.48 C 332.70,352.38 331.54,352.26 330.48,352.14 C 329.43,352.02 328.48,351.88 327.64,351.73 C 326.80,351.59 326.06,351.43 325.43,351.26 C 324.80,351.09 324.27,350.90 323.85,350.71 C 323.43,350.52 323.12,350.31 322.91,350.09 C 322.70,349.88 322.75,349.67 322.59,349.41 C 322.44,349.14 322.24,348.83 321.98,348.48 C 321.73,348.14 321.43,347.75 321.08,347.33 C 320.73,346.90 320.33,346.44 319.88,345.94 C 319.42,345.43 318.92,344.89 318.38,344.31 C 317.83,343.73 317.23,343.11 316.58,342.45 C 315.93,341.79 315.23,341.10 314.48,340.36 C 313.74,339.62 312.94,338.85 312.09,338.03 C 311.25,337.22 310.26,336.27 309.41,335.47 C 308.56,334.67 307.75,333.92 306.99,333.23 C 306.23,332.53 305.52,331.89 304.85,331.30 C 304.18,330.72 303.56,330.18 302.98,329.70 C 302.41,329.22 301.88,328.80 301.39,328.42 C 300.90,328.05 300.46,327.73 300.07,327.46 C 299.68,327.19 299.33,326.98 299.02,326.82 C 298.72,326.66 298.46,326.55 298.25,326.50 C 298.04,326.45 297.92,326.52 297.75,326.50 C 297.58,326.48 297.41,326.45 297.23,326.41 C 297.06,326.36 296.88,326.30 296.70,326.22 C 296.52,326.14 296.34,326.05 296.16,325.94 C 295.97,325.83 295.78,325.70 295.59,325.56 C 295.40,325.42 295.21,325.27 295.02,325.09 C 294.82,324.92 294.62,324.73 294.42,324.53 C 294.22,324.33 294.02,324.11 293.81,323.88 C 293.61,323.64 293.46,323.41 293.19,323.12 C 292.91,322.84 292.57,322.52 292.16,322.16 C 291.74,321.80 291.27,321.40 290.72,320.97 C 290.17,320.54 289.56,320.07 288.88,319.56 C 288.19,319.06 287.44,318.52 286.62,317.94 C 285.81,317.36 284.92,316.74 283.97,316.09 C 283.02,315.44 281.99,314.76 280.91,314.03 C 279.82,313.31 278.66,312.55 277.44,311.75 C 276.21,310.95 274.85,310.07 273.56,309.25 C 272.27,308.43 270.98,307.63 269.69,306.84 C 268.40,306.06 267.10,305.29 265.81,304.53 C 264.52,303.78 263.23,303.04 261.94,302.31 C 260.65,301.59 259.35,300.88 258.06,300.19 C 256.77,299.49 255.48,298.82 254.19,298.16 C 252.90,297.49 251.60,296.85 250.31,296.22 C 249.02,295.59 247.73,294.97 246.44,294.38 C 245.15,293.78 243.92,293.20 242.56,292.62 C 241.21,292.05 239.78,291.47 238.30,290.91 C 236.81,290.34 235.26,289.78 233.64,289.22 C 232.02,288.66 230.34,288.11 228.59,287.56 C 226.85,287.02 225.03,286.47 223.16,285.94 C 221.28,285.40 219.34,284.87 217.33,284.34 C 215.32,283.82 213.25,283.30 211.11,282.78 C 208.97,282.27 206.77,281.76 204.50,281.25 C 202.23,280.74 199.69,280.21 197.50,279.75 C 195.31,279.29 193.25,278.86 191.34,278.46 C 189.42,278.07 187.64,277.71 186.01,277.38 C 184.37,277.06 182.87,276.77 181.52,276.52 C 180.16,276.26 178.94,276.04 177.86,275.86 C 176.78,275.68 175.84,275.53 175.04,275.41 C 174.24,275.30 173.58,275.22 173.05,275.18 C 172.53,275.14 172.15,275.13 171.91,275.16 C 171.66,275.18 171.68,275.28 171.59,275.34 C 171.50,275.41 171.43,275.48 171.37,275.55 C 171.31,275.63 171.26,275.71 171.23,275.79 C 171.19,275.87 171.18,275.96 171.17,276.05 C 171.17,276.14 171.18,276.23 171.20,276.33 C 171.23,276.43 171.27,276.53 171.32,276.63 C 171.37,276.74 171.44,276.85 171.52,276.96 C 171.61,277.07 171.70,277.19 171.81,277.31 C 171.92,277.43 172.08,277.56 172.19,277.69 C 172.30,277.81 172.39,277.94 172.48,278.07 C 172.56,278.20 172.63,278.33 172.68,278.46 C 172.73,278.59 172.77,278.73 172.80,278.86 C 172.82,278.99 172.83,279.13 172.83,279.27 C 172.82,279.40 172.81,279.54 172.77,279.68 C 172.74,279.82 172.69,279.96 172.63,280.10 C 172.57,280.24 172.50,280.39 172.41,280.53 C 172.32,280.68 172.22,280.83 172.09,280.97 C 171.96,281.10 171.81,281.23 171.63,281.34 C 171.45,281.45 171.25,281.55 171.02,281.63 C 170.80,281.72 170.54,281.80 170.27,281.86 C 169.99,281.92 169.69,281.98 169.36,282.02 C 169.03,282.06 168.68,282.08 168.30,282.10 C 167.93,282.12 167.53,282.12 167.10,282.12 C 166.68,282.11 166.23,282.09 165.75,282.06 C 165.27,282.03 164.72,281.98 164.25,281.94 C 163.78,281.89 163.34,281.85 162.92,281.80 C 162.51,281.75 162.12,281.70 161.77,281.64 C 161.41,281.59 161.08,281.53 160.78,281.47 C 160.48,281.41 160.21,281.35 159.97,281.28 C 159.73,281.22 159.51,281.15 159.33,281.08 C 159.14,281.01 158.99,280.93 158.86,280.86 C 158.73,280.78 158.63,280.71 158.56,280.62 C 158.49,280.54 158.52,280.45 158.44,280.38 C 158.35,280.30 158.22,280.23 158.05,280.17 C 157.87,280.11 157.65,280.06 157.39,280.02 C 157.13,279.97 156.82,279.93 156.47,279.91 C 156.12,279.88 155.72,279.86 155.28,279.84 C 154.84,279.83 154.36,279.83 153.83,279.83 C 153.30,279.83 152.73,279.84 152.11,279.86 C 151.49,279.88 150.83,279.90 150.12,279.94 C 149.42,279.97 148.58,280.03 147.88,280.06 C 147.17,280.09 146.52,280.11 145.91,280.11 C 145.30,280.11 144.73,280.10 144.22,280.08 C 143.70,280.05 143.23,280.02 142.81,279.97 C 142.39,279.92 142.02,279.86 141.69,279.78 C 141.36,279.71 141.08,279.62 140.84,279.52 C 140.61,279.41 140.42,279.30 140.28,279.17 C 140.14,279.04 140.05,278.90 140.00,278.75 C 139.95,278.60 139.94,278.41 140.00,278.25 C 140.06,278.09 140.17,277.95 140.34,277.81 C 140.52,277.68 140.74,277.55 141.03,277.44 C 141.32,277.32 141.66,277.22 142.06,277.12 C 142.46,277.03 142.92,276.95 143.44,276.88 C 143.95,276.80 144.53,276.74 145.16,276.69 C 145.79,276.64 146.47,276.59 147.22,276.56 C 147.96,276.53 148.77,276.51 149.62,276.50 C 150.48,276.49 151.52,276.51 152.38,276.50 C 153.23,276.49 154.02,276.47 154.75,276.44 C 155.48,276.41 156.15,276.36 156.75,276.31 C 157.35,276.26 157.90,276.20 158.38,276.12 C 158.85,276.05 159.27,275.97 159.62,275.88 C 159.98,275.78 160.27,275.68 160.50,275.56 C 160.73,275.45 160.90,275.32 161.00,275.19 C 161.10,275.05 161.15,274.91 161.12,274.75 C 161.10,274.59 161.11,274.43 160.88,274.25 C 160.64,274.07 160.25,273.87 159.70,273.66 C 159.16,273.44 158.46,273.21 157.61,272.97 C 156.76,272.72 155.75,272.46 154.59,272.19 C 153.43,271.91 152.12,271.62 150.66,271.31 C 149.19,271.01 147.57,270.68 145.80,270.34 C 144.02,270.01 142.10,269.65 140.02,269.28 C 137.93,268.91 135.70,268.53 133.31,268.12 C 130.92,267.72 128.09,267.27 125.69,266.88 C 123.28,266.48 121.01,266.12 118.88,265.78 C 116.74,265.44 114.74,265.13 112.88,264.84 C 111.01,264.56 109.28,264.30 107.69,264.06 C 106.09,263.83 104.64,263.62 103.31,263.44 C 101.99,263.26 100.80,263.10 99.75,262.97 C 98.70,262.84 97.78,262.73 97.00,262.66 C 96.22,262.58 95.57,262.53 95.06,262.50 C 94.55,262.47 94.34,262.52 93.94,262.50 C 93.54,262.48 93.11,262.45 92.66,262.41 C 92.20,262.36 91.72,262.30 91.22,262.22 C 90.71,262.14 90.18,262.05 89.62,261.94 C 89.07,261.83 88.48,261.70 87.88,261.56 C 87.27,261.42 86.63,261.27 85.97,261.09 C 85.31,260.92 84.62,260.73 83.91,260.53 C 83.19,260.33 82.45,260.11 81.69,259.88 C 80.92,259.64 80.06,259.36 79.31,259.12 C 78.57,258.89 77.87,258.66 77.23,258.45 C 76.58,258.23 75.98,258.03 75.43,257.84 C 74.88,257.64 74.38,257.46 73.92,257.30 C 73.47,257.13 73.06,256.97 72.70,256.83 C 72.35,256.68 72.04,256.55 71.77,256.43 C 71.51,256.31 71.30,256.20 71.13,256.10 C 70.97,256.00 70.85,255.92 70.78,255.84 C 70.71,255.77 70.73,255.72 70.72,255.66 C 70.71,255.59 70.72,255.52 70.73,255.45 C 70.75,255.38 70.78,255.31 70.83,255.23 C 70.87,255.16 70.93,255.08 71.00,255.00 C 71.07,254.92 71.15,254.84 71.25,254.75 C 71.35,254.66 71.46,254.58 71.58,254.48 C 71.70,254.39 71.84,254.30 71.98,254.20 C 72.13,254.11 72.29,254.01 72.47,253.91 C 72.64,253.80 72.82,253.70 73.03,253.59 C 73.25,253.49 73.49,253.37 73.76,253.26 C 74.03,253.14 74.32,253.02 74.65,252.90 C 74.97,252.77 75.32,252.65 75.70,252.52 C 76.08,252.38 76.49,252.25 76.92,252.11 C 77.36,251.97 77.82,251.83 78.30,251.68 C 78.79,251.53 79.31,251.38 79.85,251.23 C 80.39,251.07 80.96,250.91 81.56,250.75 C 82.16,250.59 82.83,250.41 83.44,250.25 C 84.05,250.09 84.64,249.95 85.22,249.81 C 85.80,249.68 86.36,249.55 86.91,249.44 C 87.45,249.32 87.98,249.22 88.50,249.12 C 89.02,249.03 89.52,248.95 90.00,248.88 C 90.48,248.80 90.95,248.74 91.41,248.69 C 91.86,248.64 92.30,248.59 92.72,248.56 C 93.14,248.53 93.55,248.51 93.94,248.50 C 94.33,248.49 94.55,248.53 95.06,248.50 C 95.57,248.47 96.22,248.42 97.00,248.34 C 97.78,248.27 98.70,248.16 99.75,248.03 C 100.80,247.90 101.99,247.74 103.31,247.56 C 104.64,247.38 106.09,247.17 107.69,246.94 C 109.28,246.70 111.01,246.44 112.88,246.16 C 114.74,245.87 116.74,245.56 118.88,245.22 C 121.01,244.88 123.28,244.52 125.69,244.12 C 128.09,243.73 130.92,243.28 133.31,242.88 C 135.70,242.47 137.93,242.09 140.02,241.72 C 142.10,241.35 144.02,240.99 145.80,240.66 C 147.57,240.32 149.19,239.99 150.66,239.69 C 152.12,239.38 153.43,239.09 154.59,238.81 C 155.75,238.54 156.76,238.28 157.61,238.03 C 158.46,237.79 159.16,237.56 159.70,237.34 C 160.25,237.13 160.64,236.93 160.88,236.75 C 161.11,236.57 161.11,236.41 161.12,236.25 C 161.14,236.09 161.10,235.94 160.99,235.80 C 160.88,235.67 160.71,235.54 160.48,235.41 C 160.24,235.29 159.94,235.18 159.58,235.08 C 159.21,234.98 158.79,234.88 158.30,234.80 C 157.81,234.71 157.25,234.64 156.63,234.57 C 156.01,234.50 155.33,234.45 154.59,234.40 C 153.84,234.35 153.03,234.31 152.16,234.28 C 151.28,234.25 150.22,234.25 149.34,234.22 C 148.47,234.19 147.65,234.15 146.89,234.11 C 146.13,234.07 145.43,234.01 144.80,233.95 C 144.16,233.89 143.58,233.83 143.06,233.75 C 142.54,233.67 142.09,233.59 141.69,233.50 C 141.29,233.41 140.95,233.31 140.67,233.20 C 140.39,233.10 140.17,232.98 140.02,232.86 C 139.86,232.74 139.76,232.61 139.72,232.47 C 139.68,232.33 139.71,232.17 139.78,232.03 C 139.85,231.90 139.96,231.77 140.12,231.66 C 140.27,231.55 140.48,231.45 140.73,231.37 C 140.98,231.28 141.27,231.20 141.61,231.14 C 141.95,231.08 142.33,231.02 142.77,230.98 C 143.20,230.94 143.67,230.92 144.20,230.90 C 144.72,230.88 145.29,230.88 145.90,230.88 C 146.51,230.89 147.17,230.91 147.88,230.94 C 148.58,230.97 149.42,231.03 150.12,231.06 C 150.83,231.10 151.49,231.12 152.11,231.14 C 152.73,231.16 153.30,231.17 153.83,231.17 C 154.36,231.17 154.84,231.17 155.28,231.16 C 155.72,231.14 156.12,231.12 156.47,231.09 C 156.82,231.07 157.13,231.03 157.39,230.98 C 157.65,230.94 157.87,230.89 158.05,230.83 C 158.22,230.77 158.35,230.70 158.44,230.62 C 158.52,230.55 158.49,230.46 158.56,230.38 C 158.63,230.29 158.73,230.22 158.86,230.14 C 158.99,230.07 159.14,229.99 159.33,229.92 C 159.51,229.85 159.73,229.78 159.97,229.72 C 160.21,229.65 160.48,229.59 160.78,229.53 C 161.08,229.47 161.41,229.41 161.77,229.36 C 162.12,229.30 162.51,229.25 162.92,229.20 C 163.34,229.15 163.78,229.11 164.25,229.06 C 164.72,229.02 165.27,228.97 165.75,228.94 C 166.23,228.91 166.68,228.89 167.10,228.88 C 167.53,228.88 167.93,228.88 168.30,228.90 C 168.68,228.92 169.03,228.94 169.36,228.98 C 169.69,229.02 169.99,229.08 170.27,229.14 C 170.54,229.20 170.80,229.28 171.02,229.37 C 171.25,229.45 171.45,229.55 171.63,229.66 C 171.81,229.77 171.96,229.90 172.09,230.03 C 172.22,230.17 172.32,230.32 172.41,230.47 C 172.50,230.61 172.57,230.76 172.63,230.90 C 172.69,231.04 172.74,231.18 172.77,231.32 C 172.81,231.46 172.82,231.60 172.83,231.73 C 172.83,231.87 172.82,232.01 172.80,232.14 C 172.77,232.27 172.73,232.41 172.68,232.54 C 172.63,232.67 172.56,232.80 172.48,232.93 C 172.39,233.06 172.30,233.19 172.19,233.31 C 172.08,233.44 171.92,233.57 171.81,233.69 C 171.71,233.81 171.62,233.92 171.55,234.02 C 171.49,234.13 171.44,234.23 171.41,234.32 C 171.39,234.41 171.38,234.50 171.39,234.58 C 171.40,234.66 171.43,234.73 171.48,234.80 C 171.54,234.86 171.61,234.92 171.70,234.98 C 171.79,235.03 171.89,235.08 172.02,235.12 C 172.15,235.16 172.30,235.19 172.47,235.22 C 172.64,235.25 172.75,235.28 173.03,235.28 C 173.32,235.28 173.70,235.26 174.18,235.21 C 174.66,235.17 175.24,235.10 175.91,235.01 C 176.59,234.92 177.36,234.81 178.23,234.67 C 179.11,234.54 180.07,234.38 181.14,234.20 C 182.21,234.02 183.37,233.82 184.63,233.60 C 185.89,233.38 187.25,233.13 188.71,232.87 C 190.17,232.60 191.72,232.31 193.38,232.00 C 195.03,231.69 196.94,231.33 198.62,231.00 C 200.31,230.67 201.93,230.36 203.48,230.05 C 205.04,229.74 206.53,229.43 207.95,229.14 C 209.38,228.85 210.74,228.56 212.03,228.28 C 213.33,228.00 214.55,227.73 215.72,227.47 C 216.88,227.21 217.98,226.95 219.02,226.70 C 220.05,226.46 221.02,226.22 221.92,225.98 C 222.83,225.75 223.66,225.53 224.44,225.31 C 225.21,225.10 225.83,224.91 226.56,224.69 C 227.29,224.46 228.05,224.22 228.83,223.95 C 229.61,223.69 230.41,223.41 231.23,223.11 C 232.06,222.81 232.91,222.49 233.78,222.16 C 234.65,221.82 235.55,221.47 236.47,221.09 C 237.39,220.72 238.33,220.33 239.30,219.92 C 240.26,219.51 241.25,219.09 242.27,218.64 C 243.28,218.20 244.32,217.73 245.38,217.25 C 246.43,216.77 247.53,216.27 248.62,215.75 C 249.72,215.23 250.83,214.69 251.95,214.12 C 253.08,213.56 254.21,212.98 255.36,212.38 C 256.51,211.77 257.67,211.15 258.84,210.50 C 260.02,209.85 261.21,209.19 262.41,208.50 C 263.61,207.81 264.82,207.10 266.05,206.38 C 267.27,205.65 268.51,204.90 269.77,204.12 C 271.02,203.35 272.28,202.56 273.56,201.75 C 274.84,200.94 276.21,200.05 277.44,199.25 C 278.66,198.45 279.82,197.69 280.91,196.97 C 281.99,196.24 283.02,195.56 283.97,194.91 C 284.92,194.26 285.81,193.64 286.62,193.06 C 287.44,192.48 288.19,191.94 288.88,191.44 C 289.56,190.93 290.17,190.46 290.72,190.03 C 291.27,189.60 291.74,189.20 292.16,188.84 C 292.57,188.48 292.91,188.16 293.19,187.88 C 293.46,187.59 293.60,187.36 293.81,187.12 C 294.02,186.89 294.24,186.66 294.45,186.45 C 294.67,186.24 294.89,186.04 295.11,185.86 C 295.33,185.67 295.55,185.50 295.78,185.34 C 296.01,185.18 296.24,185.04 296.47,184.91 C 296.70,184.77 296.93,184.65 297.17,184.55 C 297.41,184.44 297.65,184.35 297.89,184.27 C 298.13,184.18 298.38,184.12 298.62,184.06 C 298.87,184.01 299.09,184.03 299.38,183.94 C 299.66,183.85 299.98,183.71 300.34,183.52 C 300.69,183.34 301.08,183.10 301.51,182.82 C 301.93,182.54 302.39,182.21 302.89,181.83 C 303.39,181.45 303.92,181.02 304.48,180.55 C 305.05,180.07 305.65,179.55 306.29,178.98 C 306.93,178.40 307.60,177.79 308.30,177.12 C 309.01,176.45 309.75,175.73 310.53,174.97 C 311.31,174.20 312.20,173.31 312.97,172.53 C 313.74,171.76 314.46,171.02 315.14,170.31 C 315.82,169.61 316.46,168.94 317.05,168.31 C 317.64,167.68 318.18,167.09 318.69,166.53 C 319.19,165.97 319.65,165.45 320.06,164.97 C 320.48,164.48 320.85,164.04 321.17,163.62 C 321.50,163.21 321.78,162.84 322.02,162.50 C 322.25,162.16 322.45,161.86 322.59,161.59 C 322.74,161.33 322.76,161.13 322.91,160.91 C 323.05,160.69 323.24,160.48 323.48,160.27 C 323.71,160.07 323.99,159.88 324.30,159.70 C 324.62,159.51 324.99,159.34 325.39,159.17 C 325.80,159.01 326.24,158.85 326.73,158.70 C 327.23,158.56 327.76,158.42 328.34,158.29 C 328.91,158.16 329.53,158.04 330.20,157.93 C 330.86,157.82 331.56,157.72 332.31,157.62 C 333.06,157.53 333.88,157.45 334.69,157.38 C 335.50,157.30 336.33,157.24 337.19,157.19 C 338.04,157.14 338.92,157.09 339.81,157.06 C 340.71,157.03 341.62,157.01 342.56,157.00 C 343.50,156.99 344.46,156.99 345.44,157.00 C 346.42,157.01 347.42,157.03 348.44,157.06 C 349.46,157.09 350.50,157.14 351.56,157.19 C 352.62,157.24 353.71,157.30 354.81,157.38 C 355.92,157.45 357.13,157.54 358.19,157.62 C 359.24,157.71 360.23,157.81 361.15,157.91 C 362.07,158.02 362.92,158.13 363.70,158.24 C 364.48,158.36 365.19,158.48 365.83,158.61 C 366.47,158.74 367.04,158.87 367.55,159.02 C 368.05,159.16 368.49,159.31 368.85,159.46 C 369.22,159.62 369.51,159.78 369.74,159.95 C 369.97,160.11 370.13,160.29 370.22,160.47 C 370.31,160.65 370.22,160.79 370.28,161.03 C 370.34,161.27 370.44,161.57 370.59,161.93 C 370.73,162.29 370.91,162.70 371.13,163.16 C 371.36,163.63 371.62,164.15 371.92,164.73 C 372.23,165.31 372.57,165.95 372.95,166.64 C 373.34,167.33 373.76,168.08 374.23,168.88 C 374.69,169.69 375.20,170.55 375.74,171.46 C 376.29,172.38 376.87,173.35 377.50,174.38 C 378.13,175.40 378.84,176.58 379.50,177.62 C 380.16,178.67 380.81,179.67 381.45,180.64 C 382.10,181.61 382.73,182.53 383.36,183.42 C 383.99,184.31 384.61,185.16 385.22,185.97 C 385.83,186.78 386.43,187.55 387.03,188.28 C 387.63,189.01 388.22,189.71 388.80,190.36 C 389.38,191.01 389.95,191.63 390.52,192.20 C 391.08,192.78 391.64,193.32 392.19,193.81 C 392.74,194.31 393.23,194.67 393.81,195.19 C 394.40,195.70 395.03,196.28 395.70,196.91 C 396.38,197.54 397.10,198.22 397.86,198.97 C 398.62,199.71 399.43,200.52 400.28,201.38 C 401.13,202.23 402.03,203.15 402.97,204.12 C 403.91,205.10 404.89,206.13 405.92,207.22 C 406.95,208.31 408.02,209.45 409.14,210.66 C 410.26,211.86 411.42,213.12 412.62,214.44 C 413.83,215.76 415.20,217.27 416.38,218.56 C 417.55,219.86 418.65,221.07 419.67,222.20 C 420.70,223.34 421.64,224.39 422.52,225.36 C 423.39,226.33 424.18,227.22 424.91,228.03 C 425.63,228.84 426.27,229.57 426.84,230.22 C 427.41,230.87 427.91,231.43 428.33,231.92 C 428.75,232.41 429.09,232.82 429.36,233.14 C 429.63,233.47 429.82,233.71 429.94,233.88 C 430.05,234.04 430.03,234.04 430.06,234.12 C 430.10,234.21 430.12,234.28 430.14,234.36 C 430.16,234.43 430.17,234.51 430.17,234.58 C 430.17,234.65 430.17,234.72 430.16,234.78 C 430.14,234.85 430.12,234.91 430.09,234.97 C 430.07,235.03 430.03,235.09 429.98,235.14 C 429.94,235.20 429.89,235.25 429.83,235.30 C 429.77,235.35 429.70,235.39 429.62,235.44 C 429.55,235.48 429.43,235.50 429.38,235.56 C 429.32,235.62 429.29,235.70 429.30,235.80 C 429.30,235.89 429.33,236.01 429.39,236.14 C 429.45,236.27 429.54,236.42 429.66,236.59 C 429.77,236.76 429.92,236.95 430.09,237.16 C 430.27,237.36 430.47,237.59 430.70,237.83 C 430.93,238.07 431.20,238.33 431.48,238.61 C 431.77,238.89 432.09,239.18 432.44,239.50 C 432.78,239.82 433.20,240.15 433.56,240.50 C 433.92,240.85 434.27,241.21 434.61,241.58 C 434.95,241.95 435.27,242.34 435.58,242.73 C 435.89,243.13 436.18,243.54 436.47,243.97 C 436.75,244.39 437.02,244.83 437.28,245.28 C 437.54,245.73 437.78,246.20 438.02,246.67 C 438.25,247.15 438.47,247.64 438.67,248.14 C 438.88,248.64 439.07,249.16 439.25,249.69 C 439.43,250.22 439.60,250.78 439.75,251.31 C 439.90,251.85 440.02,252.37 440.12,252.89 C 440.23,253.41 440.31,253.92 440.38,254.42 C 440.44,254.92 440.48,255.42 440.50,255.91 C 440.52,256.39 440.52,256.87 440.50,257.34 C 440.48,257.82 440.44,258.28 440.38,258.73 C 440.31,259.19 440.23,259.64 440.12,260.08 C 440.02,260.52 439.90,260.95 439.75,261.38 C 439.60,261.80 439.43,262.21 439.25,262.62 C 439.07,263.04 438.88,263.44 438.67,263.84 C 438.47,264.24 438.25,264.64 438.02,265.03 C 437.78,265.42 437.54,265.81 437.28,266.19 C 437.02,266.57 436.75,266.94 436.47,267.31 C 436.18,267.68 435.89,268.05 435.58,268.41 C 435.27,268.77 434.95,269.12 434.61,269.47 C 434.27,269.82 433.92,270.16 433.56,270.50 C 433.20,270.84 432.78,271.18 432.44,271.50 C 432.09,271.82 431.77,272.11 431.48,272.39 C 431.20,272.67 430.93,272.93 430.70,273.17 C 430.47,273.41 430.27,273.64 430.09,273.84 C 429.92,274.05 429.77,274.24 429.66,274.41 C 429.54,274.58 429.45,274.73 429.39,274.86 C 429.33,274.99 429.30,275.11 429.30,275.20 C 429.29,275.30 429.32,275.38 429.38,275.44 C 429.43,275.50 429.55,275.52 429.62,275.56 C 429.70,275.61 429.77,275.65 429.83,275.70 C 429.89,275.75 429.94,275.80 429.98,275.86 C 430.03,275.91 430.07,275.97 430.09,276.03 C 430.12,276.09 430.14,276.15 430.16,276.22 C 430.17,276.28 430.17,276.35 430.17,276.42 C 430.17,276.49 430.16,276.57 430.14,276.64 C 430.12,276.72 430.10,276.79 430.06,276.88 C 430.03,276.96 429.99,277.03 429.94,277.12 C 429.88,277.22 429.81,277.32 429.72,277.44 C 429.63,277.55 429.53,277.68 429.41,277.81 C 429.29,277.95 429.15,278.09 429.00,278.25 C 428.85,278.41 428.68,278.57 428.50,278.75 C 428.32,278.93 428.12,279.11 427.91,279.31 C 427.69,279.51 427.46,279.72 427.22,279.94 C 426.97,280.16 426.71,280.39 426.44,280.62 C 426.16,280.86 425.84,281.12 425.56,281.38 C 425.28,281.62 425.02,281.88 424.77,282.12 C 424.51,282.38 424.27,282.62 424.05,282.88 C 423.82,283.12 423.61,283.38 423.41,283.62 C 423.21,283.88 423.02,284.12 422.84,284.38 C 422.67,284.62 422.51,284.88 422.36,285.12 C 422.21,285.38 422.08,285.62 421.95,285.88 C 421.83,286.12 421.72,286.38 421.62,286.62 C 421.53,286.88 421.46,287.14 421.38,287.38 C 421.29,287.61 421.20,287.84 421.10,288.05 C 421.01,288.27 420.91,288.47 420.80,288.66 C 420.70,288.86 420.60,289.04 420.48,289.20 C 420.37,289.37 420.26,289.53 420.14,289.67 C 420.02,289.82 419.90,289.95 419.77,290.07 C 419.65,290.19 419.52,290.30 419.38,290.40 C 419.25,290.50 419.11,290.58 418.97,290.66 C 418.83,290.73 418.71,290.73 418.53,290.84 C 418.35,290.95 418.13,291.11 417.88,291.31 C 417.62,291.52 417.33,291.77 417.00,292.06 C 416.67,292.36 416.31,292.70 415.91,293.09 C 415.51,293.48 415.07,293.92 414.59,294.41 C 414.12,294.89 413.61,295.42 413.06,296.00 C 412.52,296.58 411.93,297.20 411.31,297.88 C 410.69,298.55 410.04,299.27 409.34,300.03 C 408.65,300.80 407.88,301.68 407.16,302.47 C 406.44,303.26 405.73,304.04 405.02,304.79 C 404.32,305.54 403.63,306.28 402.95,306.99 C 402.26,307.71 401.59,308.40 400.92,309.08 C 400.26,309.75 399.60,310.41 398.95,311.05 C 398.31,311.68 397.67,312.30 397.04,312.90 C 396.41,313.50 395.79,314.07 395.18,314.63 C 394.57,315.19 393.97,315.73 393.38,316.25 C 392.78,316.77 392.21,317.23 391.62,317.75 C 391.04,318.27 390.47,318.82 389.89,319.39 C 389.32,319.96 388.74,320.55 388.17,321.17 C 387.60,321.79 387.03,322.43 386.47,323.09 C 385.90,323.76 385.34,324.45 384.78,325.16 C 384.22,325.87 383.66,326.60 383.11,327.36 C 382.55,328.12 382.00,328.90 381.45,329.70 C 380.90,330.51 380.36,331.34 379.81,332.19 C 379.27,333.04 378.69,333.99 378.19,334.81 C 377.68,335.64 377.21,336.41 376.78,337.12 C 376.35,337.84 375.95,338.51 375.59,339.12 C 375.23,339.74 374.91,340.30 374.62,340.81 C 374.34,341.32 374.09,341.78 373.88,342.19 C 373.66,342.59 373.48,342.95 373.34,343.25 C 373.20,343.55 373.10,343.80 373.03,344.00 C 372.96,344.20 372.93,344.34 372.94,344.44 C 372.94,344.53 373.03,344.52 373.06,344.56 C 373.09,344.61 373.11,344.65 373.12,344.70 C 373.14,344.75 373.14,344.80 373.12,344.86 C 373.11,344.91 373.09,344.97 373.06,345.03 C 373.03,345.09 372.99,345.15 372.94,345.22 C 372.89,345.28 372.82,345.35 372.75,345.42 C 372.68,345.49 372.59,345.57 372.50,345.64 C 372.41,345.72 372.30,345.79 372.19,345.88 C 372.07,345.96 371.93,346.03 371.81,346.12 C 371.70,346.22 371.59,346.32 371.48,346.42 C 371.38,346.53 371.29,346.64 371.20,346.77 C 371.12,346.89 371.04,347.02 370.97,347.16 C 370.90,347.29 370.84,347.44 370.78,347.59 C 370.73,347.75 370.68,347.91 370.64,348.08 C 370.60,348.25 370.57,348.42 370.55,348.61 C 370.52,348.79 370.51,348.99 370.50,349.19 C 370.49,349.39 370.51,349.61 370.50,349.81 C 370.49,350.01 370.47,350.20 370.45,350.38 C 370.42,350.56 370.38,350.74 370.34,350.90 C 370.29,351.06 370.24,351.21 370.17,351.36 C 370.11,351.50 370.04,351.64 369.95,351.77 C 369.87,351.89 369.78,352.01 369.68,352.12 C 369.58,352.23 369.47,352.32 369.35,352.41 C 369.23,352.50 369.11,352.58 368.97,352.66 C 368.83,352.73 368.78,352.79 368.53,352.84 C 368.28,352.90 367.93,352.95 367.48,352.99 C 367.02,353.04 366.46,353.07 365.80,353.10 C 365.14,353.13 364.38,353.15 363.52,353.17 C 362.65,353.19 361.68,353.20 360.61,353.20 C 359.54,353.21 358.36,353.20 357.09,353.20 C 355.81,353.19 354.43,353.17 352.95,353.15 C 351.46,353.13 349.88,353.10 348.19,353.06 Z" stroke="none" fill="currentColor" opacity="0.11" />
  <path d="M349.20,246.95L349.20,265.04 M350.17,265.04L350.17,246.95 M389.48,265.59L389.48,255.74 M389.48,255.74L389.48,245.90 M287.70,264.35L287.70,264.35 M287.70,264.35L287.70,264.35 M275.24,270.03L287.40,270.03 M275.61,267.28L275.58,282.26 M275.61,267.66L275.61,282.26 M287.48,266.90L287.48,282.26 M278.79,282.42L278.44,281.61 M284.30,282.42L284.65,281.61 M274.79,266.48L288.30,266.48 M288.27,269.78L274.79,269.78 M387.25,256.90L387.25,236.32 M385.99,275.73L386.79,236.31 M385.99,275.73L386.54,236.29 M255.62,277.29L267.98,279.74 M267.98,279.74L268.00,269.08 M269.29,280.36L269.96,277.15 M269.96,234.84L269.29,231.64 M255.62,234.71L267.98,232.25 M267.98,232.25L268.00,242.91 M205.94,267.22L205.94,267.22 M224.00,267.22L224.00,267.22 M214.97,267.22L214.97,267.22 M216.49,248.50L189.00,248.51 M191.81,244.49L214.75,244.48 M405.22,245.40L390.86,245.37 M389.19,222.61L392.45,234.06 M405.22,266.59L390.86,266.62 M389.19,289.38L392.45,277.93 M278.65,206.89L261.47,216.38 M278.65,305.10L261.47,295.61 M285.84,219.66L300.33,218.75 M275.21,206.47L296.65,199.99 M285.84,292.33L300.33,293.24 M275.21,305.52L296.65,312.00 M354.82,243.89L330.85,243.89 M330.85,243.89L359.64,243.89 M326.03,268.10L354.82,268.10 M354.82,268.10L330.85,268.10 M419.90,251.28L419.90,260.71 M398.59,289.83L408.78,289.66 M268.40,214.25L277.82,214.43 M268.40,297.74L277.82,297.56 M253.49,229.17L263.26,228.62 M290.48,224.76L308.62,224.38 M290.48,224.76L315.77,224.45 M253.49,282.82L263.26,283.37 M290.48,287.23L308.62,287.61 M290.48,287.23L315.77,287.54 M278.06,246.02L278.09,256.00 M278.06,265.97L278.09,256.00 M365.80,308.37L365.60,294.20 M332.60,281.37L332.60,290.61 M353.08,221.62L353.08,230.63 M381.24,186.37L365.91,183.33 M303.17,187.40L323.20,191.29 M272.02,208.46L257.09,215.13 M301.82,200.30L316.83,196.23 M249.22,216.48L270.14,208.45 M274.62,207.49L288.44,205.17 M274.82,208.27L288.44,205.17 M274.72,207.28L288.53,203.07 M301.97,201.61L316.83,196.23 M274.62,207.49L255.46,223.25 M384.02,212.68L392.32,213.26 M381.24,325.62L365.79,328.82 M303.17,324.77L323.20,320.70 M272.02,303.53L257.09,296.86 M301.82,311.69L316.83,315.76 M270.14,303.54L249.22,295.51 M274.62,304.50L288.44,306.82 M274.82,303.72L288.44,306.82 M274.72,304.71L288.53,308.92 M301.97,310.38L316.83,315.76 M274.62,304.50L255.46,288.74 M384.02,299.31L392.32,298.73 M234.97,237.10L245.28,230.83 M234.97,274.89L245.28,281.16 M236.51,276.14L246.39,284.96 M236.51,276.14L245.95,283.29 M339.18,351.52L327.37,352.70 M303.95,327.97L321.07,345.18 M351.92,333.17L385.11,320.76 M385.11,320.76L357.92,331.20 M329.36,160.16L355.16,159.78 M324.73,158.70L350.32,157.16 M174.55,239.81L212.64,233.07 M145.16,243.51L129.73,246.10 M174.55,272.18L212.64,278.93 M145.16,268.48L129.73,265.89 M196.16,232.68L208.67,230.24 M211.54,229.22L210.18,229.93 M159.08,272.58L183.80,277.26 M177.57,249.52L191.87,248.36 M224.53,263.31L212.11,263.32 M223.83,262.27L193.46,262.24 M192.22,262.23L169.50,261.31 M223.83,249.83L193.46,249.85 M192.22,249.87L169.50,250.78 M221.48,233.13L218.95,233.13 M194.94,267.22L194.94,267.22 M145.58,262.82L155.03,264.23 M155.08,263.87L145.63,262.50 M145.58,249.17L155.03,247.76 M145.63,249.49L155.08,248.12 M154.91,260.23L165.15,262.00 M236.07,225.74L221.40,229.37 M236.07,225.74L220.19,229.40 M220.19,229.40L234.53,226.10 M234.97,274.89L245.27,281.16 M234.97,237.10L245.27,230.83 M138.42,262.83L129.38,262.36 M92.27,256.00L110.98,256.04 M242.06,228.69L229.44,232.86 M129.38,249.63L138.42,249.17 M92.27,256.00L110.98,255.95" stroke="currentColor" stroke-width="0.6" stroke-linecap="round" fill="none" opacity="0.55" clip-path="url(#hull-clip)" filter="url(#glow)" />
  <path d="M 348.19,353.06 C 346.50,353.03 344.50,352.99 342.81,352.94 C 341.13,352.88 339.55,352.82 338.07,352.74 C 336.60,352.67 335.23,352.58 333.96,352.48 C 332.70,352.38 331.54,352.26 330.48,352.14 C 329.43,352.02 328.48,351.88 327.64,351.73 C 326.80,351.59 326.06,351.43 325.43,351.26 C 324.80,351.09 324.27,350.90 323.85,350.71 C 323.43,350.52 323.12,350.31 322.91,350.09 C 322.70,349.88 322.75,349.67 322.59,349.41 C 322.44,349.14 322.24,348.83 321.98,348.48 C 321.73,348.14 321.43,347.75 321.08,347.33 C 320.73,346.90 320.33,346.44 319.88,345.94 C 319.42,345.43 318.92,344.89 318.38,344.31 C 317.83,343.73 317.23,343.11 316.58,342.45 C 315.93,341.79 315.23,341.10 314.48,340.36 C 313.74,339.62 312.94,338.85 312.09,338.03 C 311.25,337.22 310.26,336.27 309.41,335.47 C 308.56,334.67 307.75,333.92 306.99,333.23 C 306.23,332.53 305.52,331.89 304.85,331.30 C 304.18,330.72 303.56,330.18 302.98,329.70 C 302.41,329.22 301.88,328.80 301.39,328.42 C 300.90,328.05 300.46,327.73 300.07,327.46 C 299.68,327.19 299.33,326.98 299.02,326.82 C 298.72,326.66 298.46,326.55 298.25,326.50 C 298.04,326.45 297.92,326.52 297.75,326.50 C 297.58,326.48 297.41,326.45 297.23,326.41 C 297.06,326.36 296.88,326.30 296.70,326.22 C 296.52,326.14 296.34,326.05 296.16,325.94 C 295.97,325.83 295.78,325.70 295.59,325.56 C 295.40,325.42 295.21,325.27 295.02,325.09 C 294.82,324.92 294.62,324.73 294.42,324.53 C 294.22,324.33 294.02,324.11 293.81,323.88 C 293.61,323.64 293.46,323.41 293.19,323.12 C 292.91,322.84 292.57,322.52 292.16,322.16 C 291.74,321.80 291.27,321.40 290.72,320.97 C 290.17,320.54 289.56,320.07 288.88,319.56 C 288.19,319.06 287.44,318.52 286.62,317.94 C 285.81,317.36 284.92,316.74 283.97,316.09 C 283.02,315.44 281.99,314.76 280.91,314.03 C 279.82,313.31 278.66,312.55 277.44,311.75 C 276.21,310.95 274.85,310.07 273.56,309.25 C 272.27,308.43 270.98,307.63 269.69,306.84 C 268.40,306.06 267.10,305.29 265.81,304.53 C 264.52,303.78 263.23,303.04 261.94,302.31 C 260.65,301.59 259.35,300.88 258.06,300.19 C 256.77,299.49 255.48,298.82 254.19,298.16 C 252.90,297.49 251.60,296.85 250.31,296.22 C 249.02,295.59 247.73,294.97 246.44,294.38 C 245.15,293.78 243.92,293.20 242.56,292.62 C 241.21,292.05 239.78,291.47 238.30,290.91 C 236.81,290.34 235.26,289.78 233.64,289.22 C 232.02,288.66 230.34,288.11 228.59,287.56 C 226.85,287.02 225.03,286.47 223.16,285.94 C 221.28,285.40 219.34,284.87 217.33,284.34 C 215.32,283.82 213.25,283.30 211.11,282.78 C 208.97,282.27 206.77,281.76 204.50,281.25 C 202.23,280.74 199.69,280.21 197.50,279.75 C 195.31,279.29 193.25,278.86 191.34,278.46 C 189.42,278.07 187.64,277.71 186.01,277.38 C 184.37,277.06 182.87,276.77 181.52,276.52 C 180.16,276.26 178.94,276.04 177.86,275.86 C 176.78,275.68 175.84,275.53 175.04,275.41 C 174.24,275.30 173.58,275.22 173.05,275.18 C 172.53,275.14 172.15,275.13 171.91,275.16 C 171.66,275.18 171.68,275.28 171.59,275.34 C 171.50,275.41 171.43,275.48 171.37,275.55 C 171.31,275.63 171.26,275.71 171.23,275.79 C 171.19,275.87 171.18,275.96 171.17,276.05 C 171.17,276.14 171.18,276.23 171.20,276.33 C 171.23,276.43 171.27,276.53 171.32,276.63 C 171.37,276.74 171.44,276.85 171.52,276.96 C 171.61,277.07 171.70,277.19 171.81,277.31 C 171.92,277.43 172.08,277.56 172.19,277.69 C 172.30,277.81 172.39,277.94 172.48,278.07 C 172.56,278.20 172.63,278.33 172.68,278.46 C 172.73,278.59 172.77,278.73 172.80,278.86 C 172.82,278.99 172.83,279.13 172.83,279.27 C 172.82,279.40 172.81,279.54 172.77,279.68 C 172.74,279.82 172.69,279.96 172.63,280.10 C 172.57,280.24 172.50,280.39 172.41,280.53 C 172.32,280.68 172.22,280.83 172.09,280.97 C 171.96,281.10 171.81,281.23 171.63,281.34 C 171.45,281.45 171.25,281.55 171.02,281.63 C 170.80,281.72 170.54,281.80 170.27,281.86 C 169.99,281.92 169.69,281.98 169.36,282.02 C 169.03,282.06 168.68,282.08 168.30,282.10 C 167.93,282.12 167.53,282.12 167.10,282.12 C 166.68,282.11 166.23,282.09 165.75,282.06 C 165.27,282.03 164.72,281.98 164.25,281.94 C 163.78,281.89 163.34,281.85 162.92,281.80 C 162.51,281.75 162.12,281.70 161.77,281.64 C 161.41,281.59 161.08,281.53 160.78,281.47 C 160.48,281.41 160.21,281.35 159.97,281.28 C 159.73,281.22 159.51,281.15 159.33,281.08 C 159.14,281.01 158.99,280.93 158.86,280.86 C 158.73,280.78 158.63,280.71 158.56,280.62 C 158.49,280.54 158.52,280.45 158.44,280.38 C 158.35,280.30 158.22,280.23 158.05,280.17 C 157.87,280.11 157.65,280.06 157.39,280.02 C 157.13,279.97 156.82,279.93 156.47,279.91 C 156.12,279.88 155.72,279.86 155.28,279.84 C 154.84,279.83 154.36,279.83 153.83,279.83 C 153.30,279.83 152.73,279.84 152.11,279.86 C 151.49,279.88 150.83,279.90 150.12,279.94 C 149.42,279.97 148.58,280.03 147.88,280.06 C 147.17,280.09 146.52,280.11 145.91,280.11 C 145.30,280.11 144.73,280.10 144.22,280.08 C 143.70,280.05 143.23,280.02 142.81,279.97 C 142.39,279.92 142.02,279.86 141.69,279.78 C 141.36,279.71 141.08,279.62 140.84,279.52 C 140.61,279.41 140.42,279.30 140.28,279.17 C 140.14,279.04 140.05,278.90 140.00,278.75 C 139.95,278.60 139.94,278.41 140.00,278.25 C 140.06,278.09 140.17,277.95 140.34,277.81 C 140.52,277.68 140.74,277.55 141.03,277.44 C 141.32,277.32 141.66,277.22 142.06,277.12 C 142.46,277.03 142.92,276.95 143.44,276.88 C 143.95,276.80 144.53,276.74 145.16,276.69 C 145.79,276.64 146.47,276.59 147.22,276.56 C 147.96,276.53 148.77,276.51 149.62,276.50 C 150.48,276.49 151.52,276.51 152.38,276.50 C 153.23,276.49 154.02,276.47 154.75,276.44 C 155.48,276.41 156.15,276.36 156.75,276.31 C 157.35,276.26 157.90,276.20 158.38,276.12 C 158.85,276.05 159.27,275.97 159.62,275.88 C 159.98,275.78 160.27,275.68 160.50,275.56 C 160.73,275.45 160.90,275.32 161.00,275.19 C 161.10,275.05 161.15,274.91 161.12,274.75 C 161.10,274.59 161.11,274.43 160.88,274.25 C 160.64,274.07 160.25,273.87 159.70,273.66 C 159.16,273.44 158.46,273.21 157.61,272.97 C 156.76,272.72 155.75,272.46 154.59,272.19 C 153.43,271.91 152.12,271.62 150.66,271.31 C 149.19,271.01 147.57,270.68 145.80,270.34 C 144.02,270.01 142.10,269.65 140.02,269.28 C 137.93,268.91 135.70,268.53 133.31,268.12 C 130.92,267.72 128.09,267.27 125.69,266.88 C 123.28,266.48 121.01,266.12 118.88,265.78 C 116.74,265.44 114.74,265.13 112.88,264.84 C 111.01,264.56 109.28,264.30 107.69,264.06 C 106.09,263.83 104.64,263.62 103.31,263.44 C 101.99,263.26 100.80,263.10 99.75,262.97 C 98.70,262.84 97.78,262.73 97.00,262.66 C 96.22,262.58 95.57,262.53 95.06,262.50 C 94.55,262.47 94.34,262.52 93.94,262.50 C 93.54,262.48 93.11,262.45 92.66,262.41 C 92.20,262.36 91.72,262.30 91.22,262.22 C 90.71,262.14 90.18,262.05 89.62,261.94 C 89.07,261.83 88.48,261.70 87.88,261.56 C 87.27,261.42 86.63,261.27 85.97,261.09 C 85.31,260.92 84.62,260.73 83.91,260.53 C 83.19,260.33 82.45,260.11 81.69,259.88 C 80.92,259.64 80.06,259.36 79.31,259.12 C 78.57,258.89 77.87,258.66 77.23,258.45 C 76.58,258.23 75.98,258.03 75.43,257.84 C 74.88,257.64 74.38,257.46 73.92,257.30 C 73.47,257.13 73.06,256.97 72.70,256.83 C 72.35,256.68 72.04,256.55 71.77,256.43 C 71.51,256.31 71.30,256.20 71.13,256.10 C 70.97,256.00 70.85,255.92 70.78,255.84 C 70.71,255.77 70.73,255.72 70.72,255.66 C 70.71,255.59 70.72,255.52 70.73,255.45 C 70.75,255.38 70.78,255.31 70.83,255.23 C 70.87,255.16 70.93,255.08 71.00,255.00 C 71.07,254.92 71.15,254.84 71.25,254.75 C 71.35,254.66 71.46,254.58 71.58,254.48 C 71.70,254.39 71.84,254.30 71.98,254.20 C 72.13,254.11 72.29,254.01 72.47,253.91 C 72.64,253.80 72.82,253.70 73.03,253.59 C 73.25,253.49 73.49,253.37 73.76,253.26 C 74.03,253.14 74.32,253.02 74.65,252.90 C 74.97,252.77 75.32,252.65 75.70,252.52 C 76.08,252.38 76.49,252.25 76.92,252.11 C 77.36,251.97 77.82,251.83 78.30,251.68 C 78.79,251.53 79.31,251.38 79.85,251.23 C 80.39,251.07 80.96,250.91 81.56,250.75 C 82.16,250.59 82.83,250.41 83.44,250.25 C 84.05,250.09 84.64,249.95 85.22,249.81 C 85.80,249.68 86.36,249.55 86.91,249.44 C 87.45,249.32 87.98,249.22 88.50,249.12 C 89.02,249.03 89.52,248.95 90.00,248.88 C 90.48,248.80 90.95,248.74 91.41,248.69 C 91.86,248.64 92.30,248.59 92.72,248.56 C 93.14,248.53 93.55,248.51 93.94,248.50 C 94.33,248.49 94.55,248.53 95.06,248.50 C 95.57,248.47 96.22,248.42 97.00,248.34 C 97.78,248.27 98.70,248.16 99.75,248.03 C 100.80,247.90 101.99,247.74 103.31,247.56 C 104.64,247.38 106.09,247.17 107.69,246.94 C 109.28,246.70 111.01,246.44 112.88,246.16 C 114.74,245.87 116.74,245.56 118.88,245.22 C 121.01,244.88 123.28,244.52 125.69,244.12 C 128.09,243.73 130.92,243.28 133.31,242.88 C 135.70,242.47 137.93,242.09 140.02,241.72 C 142.10,241.35 144.02,240.99 145.80,240.66 C 147.57,240.32 149.19,239.99 150.66,239.69 C 152.12,239.38 153.43,239.09 154.59,238.81 C 155.75,238.54 156.76,238.28 157.61,238.03 C 158.46,237.79 159.16,237.56 159.70,237.34 C 160.25,237.13 160.64,236.93 160.88,236.75 C 161.11,236.57 161.11,236.41 161.12,236.25 C 161.14,236.09 161.10,235.94 160.99,235.80 C 160.88,235.67 160.71,235.54 160.48,235.41 C 160.24,235.29 159.94,235.18 159.58,235.08 C 159.21,234.98 158.79,234.88 158.30,234.80 C 157.81,234.71 157.25,234.64 156.63,234.57 C 156.01,234.50 155.33,234.45 154.59,234.40 C 153.84,234.35 153.03,234.31 152.16,234.28 C 151.28,234.25 150.22,234.25 149.34,234.22 C 148.47,234.19 147.65,234.15 146.89,234.11 C 146.13,234.07 145.43,234.01 144.80,233.95 C 144.16,233.89 143.58,233.83 143.06,233.75 C 142.54,233.67 142.09,233.59 141.69,233.50 C 141.29,233.41 140.95,233.31 140.67,233.20 C 140.39,233.10 140.17,232.98 140.02,232.86 C 139.86,232.74 139.76,232.61 139.72,232.47 C 139.68,232.33 139.71,232.17 139.78,232.03 C 139.85,231.90 139.96,231.77 140.12,231.66 C 140.27,231.55 140.48,231.45 140.73,231.37 C 140.98,231.28 141.27,231.20 141.61,231.14 C 141.95,231.08 142.33,231.02 142.77,230.98 C 143.20,230.94 143.67,230.92 144.20,230.90 C 144.72,230.88 145.29,230.88 145.90,230.88 C 146.51,230.89 147.17,230.91 147.88,230.94 C 148.58,230.97 149.42,231.03 150.12,231.06 C 150.83,231.10 151.49,231.12 152.11,231.14 C 152.73,231.16 153.30,231.17 153.83,231.17 C 154.36,231.17 154.84,231.17 155.28,231.16 C 155.72,231.14 156.12,231.12 156.47,231.09 C 156.82,231.07 157.13,231.03 157.39,230.98 C 157.65,230.94 157.87,230.89 158.05,230.83 C 158.22,230.77 158.35,230.70 158.44,230.62 C 158.52,230.55 158.49,230.46 158.56,230.38 C 158.63,230.29 158.73,230.22 158.86,230.14 C 158.99,230.07 159.14,229.99 159.33,229.92 C 159.51,229.85 159.73,229.78 159.97,229.72 C 160.21,229.65 160.48,229.59 160.78,229.53 C 161.08,229.47 161.41,229.41 161.77,229.36 C 162.12,229.30 162.51,229.25 162.92,229.20 C 163.34,229.15 163.78,229.11 164.25,229.06 C 164.72,229.02 165.27,228.97 165.75,228.94 C 166.23,228.91 166.68,228.89 167.10,228.88 C 167.53,228.88 167.93,228.88 168.30,228.90 C 168.68,228.92 169.03,228.94 169.36,228.98 C 169.69,229.02 169.99,229.08 170.27,229.14 C 170.54,229.20 170.80,229.28 171.02,229.37 C 171.25,229.45 171.45,229.55 171.63,229.66 C 171.81,229.77 171.96,229.90 172.09,230.03 C 172.22,230.17 172.32,230.32 172.41,230.47 C 172.50,230.61 172.57,230.76 172.63,230.90 C 172.69,231.04 172.74,231.18 172.77,231.32 C 172.81,231.46 172.82,231.60 172.83,231.73 C 172.83,231.87 172.82,232.01 172.80,232.14 C 172.77,232.27 172.73,232.41 172.68,232.54 C 172.63,232.67 172.56,232.80 172.48,232.93 C 172.39,233.06 172.30,233.19 172.19,233.31 C 172.08,233.44 171.92,233.57 171.81,233.69 C 171.71,233.81 171.62,233.92 171.55,234.02 C 171.49,234.13 171.44,234.23 171.41,234.32 C 171.39,234.41 171.38,234.50 171.39,234.58 C 171.40,234.66 171.43,234.73 171.48,234.80 C 171.54,234.86 171.61,234.92 171.70,234.98 C 171.79,235.03 171.89,235.08 172.02,235.12 C 172.15,235.16 172.30,235.19 172.47,235.22 C 172.64,235.25 172.75,235.28 173.03,235.28 C 173.32,235.28 173.70,235.26 174.18,235.21 C 174.66,235.17 175.24,235.10 175.91,235.01 C 176.59,234.92 177.36,234.81 178.23,234.67 C 179.11,234.54 180.07,234.38 181.14,234.20 C 182.21,234.02 183.37,233.82 184.63,233.60 C 185.89,233.38 187.25,233.13 188.71,232.87 C 190.17,232.60 191.72,232.31 193.38,232.00 C 195.03,231.69 196.94,231.33 198.62,231.00 C 200.31,230.67 201.93,230.36 203.48,230.05 C 205.04,229.74 206.53,229.43 207.95,229.14 C 209.38,228.85 210.74,228.56 212.03,228.28 C 213.33,228.00 214.55,227.73 215.72,227.47 C 216.88,227.21 217.98,226.95 219.02,226.70 C 220.05,226.46 221.02,226.22 221.92,225.98 C 222.83,225.75 223.66,225.53 224.44,225.31 C 225.21,225.10 225.83,224.91 226.56,224.69 C 227.29,224.46 228.05,224.22 228.83,223.95 C 229.61,223.69 230.41,223.41 231.23,223.11 C 232.06,222.81 232.91,222.49 233.78,222.16 C 234.65,221.82 235.55,221.47 236.47,221.09 C 237.39,220.72 238.33,220.33 239.30,219.92 C 240.26,219.51 241.25,219.09 242.27,218.64 C 243.28,218.20 244.32,217.73 245.38,217.25 C 246.43,216.77 247.53,216.27 248.62,215.75 C 249.72,215.23 250.83,214.69 251.95,214.12 C 253.08,213.56 254.21,212.98 255.36,212.38 C 256.51,211.77 257.67,211.15 258.84,210.50 C 260.02,209.85 261.21,209.19 262.41,208.50 C 263.61,207.81 264.82,207.10 266.05,206.38 C 267.27,205.65 268.51,204.90 269.77,204.12 C 271.02,203.35 272.28,202.56 273.56,201.75 C 274.84,200.94 276.21,200.05 277.44,199.25 C 278.66,198.45 279.82,197.69 280.91,196.97 C 281.99,196.24 283.02,195.56 283.97,194.91 C 284.92,194.26 285.81,193.64 286.62,193.06 C 287.44,192.48 288.19,191.94 288.88,191.44 C 289.56,190.93 290.17,190.46 290.72,190.03 C 291.27,189.60 291.74,189.20 292.16,188.84 C 292.57,188.48 292.91,188.16 293.19,187.88 C 293.46,187.59 293.60,187.36 293.81,187.12 C 294.02,186.89 294.24,186.66 294.45,186.45 C 294.67,186.24 294.89,186.04 295.11,185.86 C 295.33,185.67 295.55,185.50 295.78,185.34 C 296.01,185.18 296.24,185.04 296.47,184.91 C 296.70,184.77 296.93,184.65 297.17,184.55 C 297.41,184.44 297.65,184.35 297.89,184.27 C 298.13,184.18 298.38,184.12 298.62,184.06 C 298.87,184.01 299.09,184.03 299.38,183.94 C 299.66,183.85 299.98,183.71 300.34,183.52 C 300.69,183.34 301.08,183.10 301.51,182.82 C 301.93,182.54 302.39,182.21 302.89,181.83 C 303.39,181.45 303.92,181.02 304.48,180.55 C 305.05,180.07 305.65,179.55 306.29,178.98 C 306.93,178.40 307.60,177.79 308.30,177.12 C 309.01,176.45 309.75,175.73 310.53,174.97 C 311.31,174.20 312.20,173.31 312.97,172.53 C 313.74,171.76 314.46,171.02 315.14,170.31 C 315.82,169.61 316.46,168.94 317.05,168.31 C 317.64,167.68 318.18,167.09 318.69,166.53 C 319.19,165.97 319.65,165.45 320.06,164.97 C 320.48,164.48 320.85,164.04 321.17,163.62 C 321.50,163.21 321.78,162.84 322.02,162.50 C 322.25,162.16 322.45,161.86 322.59,161.59 C 322.74,161.33 322.76,161.13 322.91,160.91 C 323.05,160.69 323.24,160.48 323.48,160.27 C 323.71,160.07 323.99,159.88 324.30,159.70 C 324.62,159.51 324.99,159.34 325.39,159.17 C 325.80,159.01 326.24,158.85 326.73,158.70 C 327.23,158.56 327.76,158.42 328.34,158.29 C 328.91,158.16 329.53,158.04 330.20,157.93 C 330.86,157.82 331.56,157.72 332.31,157.62 C 333.06,157.53 333.88,157.45 334.69,157.38 C 335.50,157.30 336.33,157.24 337.19,157.19 C 338.04,157.14 338.92,157.09 339.81,157.06 C 340.71,157.03 341.62,157.01 342.56,157.00 C 343.50,156.99 344.46,156.99 345.44,157.00 C 346.42,157.01 347.42,157.03 348.44,157.06 C 349.46,157.09 350.50,157.14 351.56,157.19 C 352.62,157.24 353.71,157.30 354.81,157.38 C 355.92,157.45 357.13,157.54 358.19,157.62 C 359.24,157.71 360.23,157.81 361.15,157.91 C 362.07,158.02 362.92,158.13 363.70,158.24 C 364.48,158.36 365.19,158.48 365.83,158.61 C 366.47,158.74 367.04,158.87 367.55,159.02 C 368.05,159.16 368.49,159.31 368.85,159.46 C 369.22,159.62 369.51,159.78 369.74,159.95 C 369.97,160.11 370.13,160.29 370.22,160.47 C 370.31,160.65 370.22,160.79 370.28,161.03 C 370.34,161.27 370.44,161.57 370.59,161.93 C 370.73,162.29 370.91,162.70 371.13,163.16 C 371.36,163.63 371.62,164.15 371.92,164.73 C 372.23,165.31 372.57,165.95 372.95,166.64 C 373.34,167.33 373.76,168.08 374.23,168.88 C 374.69,169.69 375.20,170.55 375.74,171.46 C 376.29,172.38 376.87,173.35 377.50,174.38 C 378.13,175.40 378.84,176.58 379.50,177.62 C 380.16,178.67 380.81,179.67 381.45,180.64 C 382.10,181.61 382.73,182.53 383.36,183.42 C 383.99,184.31 384.61,185.16 385.22,185.97 C 385.83,186.78 386.43,187.55 387.03,188.28 C 387.63,189.01 388.22,189.71 388.80,190.36 C 389.38,191.01 389.95,191.63 390.52,192.20 C 391.08,192.78 391.64,193.32 392.19,193.81 C 392.74,194.31 393.23,194.67 393.81,195.19 C 394.40,195.70 395.03,196.28 395.70,196.91 C 396.38,197.54 397.10,198.22 397.86,198.97 C 398.62,199.71 399.43,200.52 400.28,201.38 C 401.13,202.23 402.03,203.15 402.97,204.12 C 403.91,205.10 404.89,206.13 405.92,207.22 C 406.95,208.31 408.02,209.45 409.14,210.66 C 410.26,211.86 411.42,213.12 412.62,214.44 C 413.83,215.76 415.20,217.27 416.38,218.56 C 417.55,219.86 418.65,221.07 419.67,222.20 C 420.70,223.34 421.64,224.39 422.52,225.36 C 423.39,226.33 424.18,227.22 424.91,228.03 C 425.63,228.84 426.27,229.57 426.84,230.22 C 427.41,230.87 427.91,231.43 428.33,231.92 C 428.75,232.41 429.09,232.82 429.36,233.14 C 429.63,233.47 429.82,233.71 429.94,233.88 C 430.05,234.04 430.03,234.04 430.06,234.12 C 430.10,234.21 430.12,234.28 430.14,234.36 C 430.16,234.43 430.17,234.51 430.17,234.58 C 430.17,234.65 430.17,234.72 430.16,234.78 C 430.14,234.85 430.12,234.91 430.09,234.97 C 430.07,235.03 430.03,235.09 429.98,235.14 C 429.94,235.20 429.89,235.25 429.83,235.30 C 429.77,235.35 429.70,235.39 429.62,235.44 C 429.55,235.48 429.43,235.50 429.38,235.56 C 429.32,235.62 429.29,235.70 429.30,235.80 C 429.30,235.89 429.33,236.01 429.39,236.14 C 429.45,236.27 429.54,236.42 429.66,236.59 C 429.77,236.76 429.92,236.95 430.09,237.16 C 430.27,237.36 430.47,237.59 430.70,237.83 C 430.93,238.07 431.20,238.33 431.48,238.61 C 431.77,238.89 432.09,239.18 432.44,239.50 C 432.78,239.82 433.20,240.15 433.56,240.50 C 433.92,240.85 434.27,241.21 434.61,241.58 C 434.95,241.95 435.27,242.34 435.58,242.73 C 435.89,243.13 436.18,243.54 436.47,243.97 C 436.75,244.39 437.02,244.83 437.28,245.28 C 437.54,245.73 437.78,246.20 438.02,246.67 C 438.25,247.15 438.47,247.64 438.67,248.14 C 438.88,248.64 439.07,249.16 439.25,249.69 C 439.43,250.22 439.60,250.78 439.75,251.31 C 439.90,251.85 440.02,252.37 440.12,252.89 C 440.23,253.41 440.31,253.92 440.38,254.42 C 440.44,254.92 440.48,255.42 440.50,255.91 C 440.52,256.39 440.52,256.87 440.50,257.34 C 440.48,257.82 440.44,258.28 440.38,258.73 C 440.31,259.19 440.23,259.64 440.12,260.08 C 440.02,260.52 439.90,260.95 439.75,261.38 C 439.60,261.80 439.43,262.21 439.25,262.62 C 439.07,263.04 438.88,263.44 438.67,263.84 C 438.47,264.24 438.25,264.64 438.02,265.03 C 437.78,265.42 437.54,265.81 437.28,266.19 C 437.02,266.57 436.75,266.94 436.47,267.31 C 436.18,267.68 435.89,268.05 435.58,268.41 C 435.27,268.77 434.95,269.12 434.61,269.47 C 434.27,269.82 433.92,270.16 433.56,270.50 C 433.20,270.84 432.78,271.18 432.44,271.50 C 432.09,271.82 431.77,272.11 431.48,272.39 C 431.20,272.67 430.93,272.93 430.70,273.17 C 430.47,273.41 430.27,273.64 430.09,273.84 C 429.92,274.05 429.77,274.24 429.66,274.41 C 429.54,274.58 429.45,274.73 429.39,274.86 C 429.33,274.99 429.30,275.11 429.30,275.20 C 429.29,275.30 429.32,275.38 429.38,275.44 C 429.43,275.50 429.55,275.52 429.62,275.56 C 429.70,275.61 429.77,275.65 429.83,275.70 C 429.89,275.75 429.94,275.80 429.98,275.86 C 430.03,275.91 430.07,275.97 430.09,276.03 C 430.12,276.09 430.14,276.15 430.16,276.22 C 430.17,276.28 430.17,276.35 430.17,276.42 C 430.17,276.49 430.16,276.57 430.14,276.64 C 430.12,276.72 430.10,276.79 430.06,276.88 C 430.03,276.96 429.99,277.03 429.94,277.12 C 429.88,277.22 429.81,277.32 429.72,277.44 C 429.63,277.55 429.53,277.68 429.41,277.81 C 429.29,277.95 429.15,278.09 429.00,278.25 C 428.85,278.41 428.68,278.57 428.50,278.75 C 428.32,278.93 428.12,279.11 427.91,279.31 C 427.69,279.51 427.46,279.72 427.22,279.94 C 426.97,280.16 426.71,280.39 426.44,280.62 C 426.16,280.86 425.84,281.12 425.56,281.38 C 425.28,281.62 425.02,281.88 424.77,282.12 C 424.51,282.38 424.27,282.62 424.05,282.88 C 423.82,283.12 423.61,283.38 423.41,283.62 C 423.21,283.88 423.02,284.12 422.84,284.38 C 422.67,284.62 422.51,284.88 422.36,285.12 C 422.21,285.38 422.08,285.62 421.95,285.88 C 421.83,286.12 421.72,286.38 421.62,286.62 C 421.53,286.88 421.46,287.14 421.38,287.38 C 421.29,287.61 421.20,287.84 421.10,288.05 C 421.01,288.27 420.91,288.47 420.80,288.66 C 420.70,288.86 420.60,289.04 420.48,289.20 C 420.37,289.37 420.26,289.53 420.14,289.67 C 420.02,289.82 419.90,289.95 419.77,290.07 C 419.65,290.19 419.52,290.30 419.38,290.40 C 419.25,290.50 419.11,290.58 418.97,290.66 C 418.83,290.73 418.71,290.73 418.53,290.84 C 418.35,290.95 418.13,291.11 417.88,291.31 C 417.62,291.52 417.33,291.77 417.00,292.06 C 416.67,292.36 416.31,292.70 415.91,293.09 C 415.51,293.48 415.07,293.92 414.59,294.41 C 414.12,294.89 413.61,295.42 413.06,296.00 C 412.52,296.58 411.93,297.20 411.31,297.88 C 410.69,298.55 410.04,299.27 409.34,300.03 C 408.65,300.80 407.88,301.68 407.16,302.47 C 406.44,303.26 405.73,304.04 405.02,304.79 C 404.32,305.54 403.63,306.28 402.95,306.99 C 402.26,307.71 401.59,308.40 400.92,309.08 C 400.26,309.75 399.60,310.41 398.95,311.05 C 398.31,311.68 397.67,312.30 397.04,312.90 C 396.41,313.50 395.79,314.07 395.18,314.63 C 394.57,315.19 393.97,315.73 393.38,316.25 C 392.78,316.77 392.21,317.23 391.62,317.75 C 391.04,318.27 390.47,318.82 389.89,319.39 C 389.32,319.96 388.74,320.55 388.17,321.17 C 387.60,321.79 387.03,322.43 386.47,323.09 C 385.90,323.76 385.34,324.45 384.78,325.16 C 384.22,325.87 383.66,326.60 383.11,327.36 C 382.55,328.12 382.00,328.90 381.45,329.70 C 380.90,330.51 380.36,331.34 379.81,332.19 C 379.27,333.04 378.69,333.99 378.19,334.81 C 377.68,335.64 377.21,336.41 376.78,337.12 C 376.35,337.84 375.95,338.51 375.59,339.12 C 375.23,339.74 374.91,340.30 374.62,340.81 C 374.34,341.32 374.09,341.78 373.88,342.19 C 373.66,342.59 373.48,342.95 373.34,343.25 C 373.20,343.55 373.10,343.80 373.03,344.00 C 372.96,344.20 372.93,344.34 372.94,344.44 C 372.94,344.53 373.03,344.52 373.06,344.56 C 373.09,344.61 373.11,344.65 373.12,344.70 C 373.14,344.75 373.14,344.80 373.12,344.86 C 373.11,344.91 373.09,344.97 373.06,345.03 C 373.03,345.09 372.99,345.15 372.94,345.22 C 372.89,345.28 372.82,345.35 372.75,345.42 C 372.68,345.49 372.59,345.57 372.50,345.64 C 372.41,345.72 372.30,345.79 372.19,345.88 C 372.07,345.96 371.93,346.03 371.81,346.12 C 371.70,346.22 371.59,346.32 371.48,346.42 C 371.38,346.53 371.29,346.64 371.20,346.77 C 371.12,346.89 371.04,347.02 370.97,347.16 C 370.90,347.29 370.84,347.44 370.78,347.59 C 370.73,347.75 370.68,347.91 370.64,348.08 C 370.60,348.25 370.57,348.42 370.55,348.61 C 370.52,348.79 370.51,348.99 370.50,349.19 C 370.49,349.39 370.51,349.61 370.50,349.81 C 370.49,350.01 370.47,350.20 370.45,350.38 C 370.42,350.56 370.38,350.74 370.34,350.90 C 370.29,351.06 370.24,351.21 370.17,351.36 C 370.11,351.50 370.04,351.64 369.95,351.77 C 369.87,351.89 369.78,352.01 369.68,352.12 C 369.58,352.23 369.47,352.32 369.35,352.41 C 369.23,352.50 369.11,352.58 368.97,352.66 C 368.83,352.73 368.78,352.79 368.53,352.84 C 368.28,352.90 367.93,352.95 367.48,352.99 C 367.02,353.04 366.46,353.07 365.80,353.10 C 365.14,353.13 364.38,353.15 363.52,353.17 C 362.65,353.19 361.68,353.20 360.61,353.20 C 359.54,353.21 358.36,353.20 357.09,353.20 C 355.81,353.19 354.43,353.17 352.95,353.15 C 351.46,353.13 349.88,353.10 348.19,353.06 Z" fill="none" stroke="currentColor" stroke-width="1.5" stroke-linejoin="round" stroke-linecap="round" filter="url(#glow)" />
</svg>