<svg xmlns="http://www.w3.org/2000/svg" width="512" height="512" viewBox="153.90 195.40 218.76 151.20" preserveAspectRatio="xMidYMid meet">
  <defs>
    <filter id="glow" x="-30%" y="-30%" width="160%" height="160%">
      <feGaussianBlur in="SourceGraphic" stdDeviation="2.4" result="blur" />
      <feMerge>
        <feMergeNode in="blur" />
        <feMergeNode in="SourceGraphic" />
      </feMerge>
    </filter>
    <clipPath id="hull-clip">
      <path d="M 302.75,333.62 C 301.64,333.55 300.43,333.54 299.25,333.38 C 298.07,333.21 296.86,332.97 295.64,332.64 C 294.42,332.32 293.18,331.91 291.92,331.42 C 290.66,330.93 289.39,330.37 288.09,329.72 C 286.80,329.07 285.49,328.34 284.16,327.53 C 282.83,326.72 281.48,325.83 280.11,324.86 C 278.74,323.89 277.36,322.84 275.95,321.70 C 274.55,320.57 273.13,319.36 271.69,318.06 C 270.25,316.77 268.70,315.24 267.31,313.94 C 265.93,312.64 264.61,311.41 263.38,310.27 C 262.14,309.12 260.97,308.04 259.88,307.05 C 258.78,306.05 257.76,305.13 256.81,304.28 C 255.86,303.43 254.99,302.66 254.19,301.97 C 253.39,301.27 252.66,300.65 252.00,300.11 C 251.34,299.57 250.76,299.10 250.25,298.70 C 249.74,298.31 249.30,297.99 248.94,297.75 C 248.57,297.51 248.39,297.41 248.06,297.25 C 247.73,297.09 247.37,296.93 246.97,296.78 C 246.57,296.63 246.13,296.48 245.66,296.34 C 245.18,296.20 244.67,296.07 244.12,295.94 C 243.58,295.81 242.99,295.68 242.38,295.56 C 241.76,295.44 241.10,295.33 240.41,295.22 C 239.71,295.11 238.98,295.01 238.22,294.91 C 237.45,294.81 236.65,294.71 235.81,294.62 C 234.97,294.54 234.09,294.47 233.19,294.38 C 232.29,294.28 231.36,294.17 230.41,294.05 C 229.45,293.92 228.47,293.79 227.47,293.64 C 226.46,293.49 225.43,293.33 224.38,293.16 C 223.32,292.98 222.23,292.79 221.12,292.59 C 220.02,292.39 218.88,292.18 217.72,291.95 C 216.56,291.73 215.37,291.49 214.16,291.23 C 212.94,290.98 211.70,290.72 210.44,290.44 C 209.17,290.16 207.81,289.85 206.56,289.56 C 205.32,289.28 204.11,289.00 202.95,288.73 C 201.79,288.47 200.68,288.21 199.61,287.95 C 198.54,287.70 197.51,287.46 196.53,287.22 C 195.55,286.98 194.61,286.75 193.72,286.53 C 192.83,286.31 191.98,286.10 191.17,285.89 C 190.37,285.68 189.61,285.49 188.89,285.30 C 188.17,285.11 187.50,284.92 186.88,284.75 C 186.25,284.58 185.70,284.42 185.12,284.25 C 184.55,284.08 184.00,283.92 183.45,283.75 C 182.91,283.58 182.38,283.42 181.86,283.25 C 181.34,283.08 180.84,282.92 180.34,282.75 C 179.85,282.58 179.37,282.42 178.91,282.25 C 178.44,282.08 177.99,281.92 177.55,281.75 C 177.11,281.58 176.68,281.42 176.27,281.25 C 175.85,281.08 175.45,280.92 175.06,280.75 C 174.67,280.58 174.30,280.42 173.94,280.25 C 173.58,280.08 173.23,279.92 172.90,279.76 C 172.57,279.60 172.25,279.43 171.95,279.27 C 171.64,279.11 171.35,278.95 171.08,278.80 C 170.80,278.64 170.54,278.48 170.30,278.33 C 170.05,278.17 169.82,278.02 169.60,277.87 C 169.38,277.71 169.18,277.56 168.99,277.41 C 168.80,277.26 168.63,277.12 168.47,276.97 C 168.31,276.82 168.17,276.69 168.03,276.53 C 167.89,276.37 167.77,276.20 167.65,276.02 C 167.53,275.84 167.42,275.65 167.32,275.45 C 167.22,275.24 167.13,275.02 167.05,274.80 C 166.96,274.57 166.89,274.33 166.83,274.08 C 166.76,273.83 166.71,273.56 166.66,273.29 C 166.62,273.01 166.58,272.73 166.55,272.43 C 166.53,272.13 166.51,271.82 166.50,271.50 C 166.49,271.18 166.49,270.82 166.50,270.50 C 166.51,270.18 166.53,269.87 166.55,269.57 C 166.58,269.27 166.62,268.99 166.66,268.71 C 166.71,268.44 166.76,268.17 166.83,267.92 C 166.89,267.67 166.96,267.43 167.05,267.20 C 167.13,266.98 167.22,266.76 167.32,266.55 C 167.42,266.35 167.53,266.16 167.65,265.98 C 167.77,265.80 167.89,265.63 168.03,265.47 C 168.17,265.31 168.31,265.18 168.47,265.03 C 168.63,264.88 168.81,264.74 169.01,264.59 C 169.20,264.44 169.42,264.29 169.65,264.13 C 169.88,263.98 170.13,263.83 170.39,263.67 C 170.65,263.52 170.94,263.36 171.23,263.20 C 171.53,263.05 171.85,262.89 172.18,262.73 C 172.51,262.57 172.86,262.40 173.23,262.24 C 173.59,262.08 173.98,261.92 174.38,261.75 C 174.77,261.58 175.11,261.43 175.62,261.25 C 176.14,261.07 176.74,260.86 177.44,260.64 C 178.14,260.42 178.93,260.18 179.81,259.92 C 180.70,259.66 181.68,259.39 182.75,259.09 C 183.82,258.80 184.99,258.49 186.25,258.16 C 187.51,257.83 188.86,257.48 190.31,257.11 C 191.76,256.74 193.30,256.36 194.94,255.95 C 196.57,255.55 198.30,255.13 200.12,254.69 C 201.95,254.25 204.03,253.74 205.88,253.31 C 207.72,252.88 209.49,252.47 211.19,252.09 C 212.89,251.71 214.51,251.36 216.06,251.03 C 217.61,250.70 219.09,250.40 220.50,250.12 C 221.91,249.85 223.24,249.60 224.50,249.38 C 225.76,249.15 226.95,248.95 228.06,248.78 C 229.18,248.61 230.22,248.46 231.19,248.34 C 232.16,248.22 233.05,248.13 233.88,248.06 C 234.70,247.99 235.41,247.98 236.12,247.94 C 236.84,247.89 237.52,247.84 238.16,247.79 C 238.81,247.74 239.42,247.68 239.99,247.62 C 240.57,247.56 241.11,247.49 241.61,247.42 C 242.11,247.35 242.58,247.28 243.02,247.20 C 243.45,247.13 243.85,247.05 244.21,246.96 C 244.57,246.88 244.90,246.79 245.20,246.70 C 245.49,246.60 245.75,246.51 245.97,246.41 C 246.19,246.31 246.28,246.26 246.53,246.09 C 246.79,245.93 247.11,245.69 247.49,245.40 C 247.88,245.10 248.33,244.74 248.85,244.32 C 249.37,243.90 249.96,243.41 250.61,242.86 C 251.26,242.31 251.98,241.69 252.77,241.02 C 253.55,240.34 254.40,239.60 255.32,238.79 C 256.24,237.98 257.22,237.11 258.27,236.18 C 259.32,235.25 260.44,234.25 261.62,233.19 C 262.81,232.13 264.21,230.87 265.38,229.81 C 266.54,228.76 267.62,227.77 268.62,226.84 C 269.62,225.92 270.54,225.07 271.38,224.28 C 272.21,223.49 272.96,222.78 273.62,222.12 C 274.29,221.47 274.88,220.89 275.38,220.38 C 275.88,219.86 276.29,219.41 276.62,219.03 C 276.96,218.65 277.21,218.34 277.38,218.09 C 277.54,217.85 277.62,217.67 277.62,217.56 C 277.62,217.45 277.45,217.48 277.38,217.44 C 277.30,217.39 277.23,217.35 277.16,217.30 C 277.10,217.26 277.04,217.21 276.99,217.16 C 276.94,217.12 276.90,217.07 276.86,217.02 C 276.82,216.96 276.79,216.91 276.77,216.86 C 276.74,216.81 276.72,216.75 276.71,216.70 C 276.70,216.64 276.69,216.58 276.70,216.52 C 276.70,216.46 276.70,216.40 276.72,216.34 C 276.73,216.28 276.75,216.21 276.78,216.16 C 276.81,216.10 276.85,216.04 276.90,215.99 C 276.95,215.94 277.00,215.89 277.07,215.85 C 277.14,215.81 277.21,215.77 277.30,215.73 C 277.38,215.70 277.48,215.67 277.58,215.64 C 277.68,215.61 277.79,215.59 277.91,215.57 C 278.04,215.55 278.17,215.54 278.30,215.52 C 278.44,215.51 278.59,215.50 278.75,215.50 C 278.91,215.50 279.08,215.52 279.25,215.50 C 279.42,215.48 279.61,215.45 279.80,215.41 C 279.99,215.36 280.18,215.30 280.39,215.22 C 280.60,215.14 280.81,215.05 281.03,214.94 C 281.25,214.83 281.48,214.70 281.72,214.56 C 281.96,214.42 282.20,214.27 282.45,214.09 C 282.71,213.92 282.97,213.73 283.23,213.53 C 283.50,213.33 283.78,213.11 284.06,212.88 C 284.35,212.64 284.60,212.36 284.94,212.12 C 285.28,211.89 285.67,211.66 286.11,211.44 C 286.55,211.22 287.04,211.01 287.58,210.81 C 288.12,210.61 288.71,210.43 289.34,210.25 C 289.98,210.07 290.67,209.91 291.41,209.75 C 292.14,209.59 292.93,209.45 293.77,209.31 C 294.60,209.18 295.49,209.05 296.42,208.94 C 297.36,208.82 298.34,208.72 299.38,208.62 C 300.41,208.53 301.59,208.45 302.62,208.38 C 303.66,208.30 304.64,208.24 305.58,208.19 C 306.51,208.14 307.40,208.09 308.23,208.06 C 309.07,208.03 309.86,208.01 310.59,208.00 C 311.33,207.99 312.02,207.99 312.66,208.00 C 313.29,208.01 313.88,208.03 314.42,208.06 C 314.96,208.09 315.45,208.14 315.89,208.19 C 316.33,208.24 316.72,208.30 317.06,208.38 C 317.40,208.45 317.65,208.54 317.94,208.62 C 318.22,208.71 318.50,208.80 318.77,208.90 C 319.05,208.99 319.31,209.09 319.57,209.20 C 319.83,209.30 320.08,209.40 320.33,209.52 C 320.57,209.63 320.81,209.74 321.05,209.86 C 321.28,209.98 321.51,210.10 321.73,210.23 C 321.95,210.35 322.16,210.48 322.37,210.62 C 322.57,210.75 322.77,210.89 322.97,211.03 C 323.16,211.17 323.31,211.24 323.53,211.47 C 323.76,211.70 324.02,212.02 324.32,212.43 C 324.62,212.84 324.96,213.33 325.34,213.91 C 325.71,214.50 326.13,215.17 326.58,215.92 C 327.03,216.68 327.52,217.52 328.05,218.45 C 328.57,219.38 329.14,220.40 329.74,221.51 C 330.35,222.61 330.99,223.81 331.66,225.09 C 332.34,226.37 333.06,227.73 333.81,229.19 C 334.57,230.64 335.41,232.33 336.19,233.81 C 336.97,235.29 337.74,236.72 338.50,238.08 C 339.26,239.44 340.01,240.74 340.75,241.98 C 341.49,243.23 342.22,244.41 342.94,245.53 C 343.66,246.65 344.36,247.72 345.06,248.72 C 345.76,249.72 346.45,250.66 347.12,251.55 C 347.80,252.43 348.47,253.25 349.12,254.02 C 349.78,254.78 350.43,255.48 351.06,256.12 C 351.70,256.77 352.35,257.30 352.94,257.88 C 353.53,258.45 354.08,259.03 354.59,259.59 C 355.11,260.16 355.59,260.72 356.03,261.28 C 356.47,261.84 356.88,262.39 357.25,262.94 C 357.62,263.48 357.95,264.03 358.25,264.56 C 358.55,265.10 358.81,265.63 359.03,266.16 C 359.26,266.68 359.44,267.20 359.59,267.72 C 359.74,268.23 359.86,268.74 359.94,269.25 C 360.02,269.76 360.07,270.24 360.06,270.75 C 360.06,271.26 360.01,271.78 359.92,272.31 C 359.83,272.84 359.70,273.39 359.52,273.94 C 359.34,274.49 359.11,275.05 358.84,275.62 C 358.58,276.20 358.26,276.78 357.91,277.38 C 357.55,277.97 357.15,278.57 356.70,279.19 C 356.26,279.80 355.77,280.43 355.23,281.06 C 354.70,281.70 354.12,282.34 353.50,283.00 C 352.88,283.66 352.17,284.28 351.50,285.00 C 350.83,285.72 350.14,286.50 349.45,287.33 C 348.76,288.16 348.07,289.04 347.36,289.98 C 346.65,290.92 345.94,291.92 345.22,292.97 C 344.50,294.02 343.77,295.12 343.03,296.28 C 342.29,297.44 341.55,298.65 340.80,299.92 C 340.04,301.19 339.28,302.51 338.52,303.89 C 337.75,305.27 336.97,306.70 336.19,308.19 C 335.40,309.67 334.56,311.36 333.81,312.81 C 333.06,314.27 332.35,315.63 331.68,316.91 C 331.01,318.19 330.38,319.39 329.79,320.49 C 329.20,321.60 328.65,322.62 328.14,323.55 C 327.63,324.48 327.16,325.32 326.73,326.08 C 326.31,326.83 325.92,327.50 325.57,328.09 C 325.22,328.67 324.92,329.16 324.65,329.57 C 324.38,329.98 324.15,330.30 323.97,330.53 C 323.78,330.76 323.69,330.83 323.53,330.97 C 323.38,331.11 323.21,331.25 323.04,331.38 C 322.87,331.52 322.68,331.65 322.49,331.77 C 322.30,331.90 322.10,332.02 321.89,332.14 C 321.68,332.26 321.46,332.37 321.23,332.48 C 321.01,332.60 320.77,332.70 320.52,332.80 C 320.28,332.91 320.02,333.01 319.76,333.10 C 319.49,333.20 319.22,333.29 318.94,333.38 C 318.65,333.46 318.41,333.55 318.06,333.62 C 317.72,333.70 317.32,333.76 316.86,333.81 C 316.40,333.86 315.89,333.91 315.33,333.94 C 314.76,333.97 314.14,333.99 313.47,334.00 C 312.79,334.01 312.07,334.01 311.28,334.00 C 310.50,333.99 309.66,333.97 308.77,333.94 C 307.87,333.91 306.92,333.86 305.92,333.81 C 304.92,333.76 303.86,333.70 302.75,333.62 Z" />
    </clipPath>
  </defs>
  <path d="M 302.75,333.62 C 301.64,333.55 300.43,333.54 299.25,333.38 C 298.07,333.21 296.86,332.97 295.64,332.64 C 294.42,332.32 293.18,331.91 291.92,331.42 C 290.66,330.93 289.39,330.37 288.09,329.72 C 286.80,329.07 285.49,328.34 284.16,327.53 C 282.83,326.72 281.48,325.83 280.11,324.86 C 278.74,323.89 277.36,322.84 275.95,321.70 C 274.55,320.57 273.13,319.36 271.69,318.06 C 270.25,316.77 268.70,315.24 267.31,313.94 C 265.93,312.64 264.61,311.41 263.38,310.27 C 262.14,309.12 260.97,308.04 259.88,307.05 C 258.78,306.05 257.76,305.13 256.81,304.28 C 255.86,303.43 254.99,302.66 254.19,301.97 C 253.39,301.27 252.66,300.65 252.00,300.11 C 251.34,299.57 250.76,299.10 250.25,298.70 C 249.74,298.31 249.30,297.99 248.94,297.75 C 248.57,297.51 248.39,297.41 248.06,297.25 C 247.73,297.09 247.37,296.93 246.97,296.78 C 246.57,296.63 246.13,296.48 245.66,296.34 C 245.18,296.20 244.67,296.07 244.12,295.94 C 243.58,295.81 242.99,295.68 242.38,295.56 C 241.76,295.44 241.10,295.33 240.41,295.22 C 239.71,295.11 238.98,295.01 238.22,294.91 C 237.45,294.81 236.65,294.71 235.81,294.62 C 234.97,294.54 234.09,294.47 233.19,294.38 C 232.29,294.28 231.36,294.17 230.41,294.05 C 229.45,293.92 228.47,293.79 227.47,293.64 C 226.46,293.49 225.43,293.33 224.38,293.16 C 223.32,292.98 222.23,292.79 221.12,292.59 C 220.02,292.39 218.88,292.18 217.72,291.95 C 216.56,291.73 215.37,291.49 214.16,291.23 C 212.94,290.98 211.70,290.72 210.44,290.44 C 209.17,290.16 207.81,289.85 206.56,289.56 C 205.32,289.28 204.11,289.00 202.95,288.73 C 201.79,288.47 200.68,288.21 199.61,287.95 C 198.54,287.70 197.51,287.46 196.53,287.22 C 195.55,286.98 194.61,286.75 193.72,286.53 C 192.83,286.31 191.98,286.10 191.17,285.89 C 190.37,285.68 189.61,285.49 188.89,285.30 C 188.17,285.11 187.50,284.92 186.88,284.75 C 186.25,284.58 185.70,284.42 185.12,284.25 C 184.55,284.08 184.00,283.92 183.45,283.75 C 182.91,283.58 182.38,283.42 181.86,283.25 C 181.34,283.08 180.84,282.92 180.34,282.75 C 179.85,282.58 179.37,282.42 178.91,282.25 C 178.44,282.08 177.99,281.92 177.55,281.75 C 177.11,281.58 176.68,281.42 176.27,281.25 C 175.85,281.08 175.45,280.92 175.06,280.75 C 174.67,280.58 174.30,280.42 173.94,280.25 C 173.58,280.08 173.23,279.92 172.90,279.76 C 172.57,279.60 172.25,279.43 171.95,279.27 C 171.64,279.11 171.35,278.95 171.08,278.80 C 170.80,278.64 170.54,278.48 170.30,278.33 C 170.05,278.17 169.82,278.02 169.60,277.87 C 169.38,277.71 169.18,277.56 168.99,277.41 C 168.80,277.26 168.63,277.12 168.47,276.97 C 168.31,276.82 168.17,276.69 168.03,276.53 C 167.89,276.37 167.77,276.20 167.65,276.02 C 167.53,275.84 167.42,275.65 167.32,275.45 C 167.22,275.24 167.13,275.02 167.05,274.80 C 166.96,274.57 166.89,274.33 166.83,274.08 C 166.76,273.83 166.71,273.56 166.66,273.29 C 166.62,273.01 166.58,272.73 166.55,272.43 C 166.53,272.13 166.51,271.82 166.50,271.50 C 166.49,271.18 166.49,270.82 166.50,270.50 C 166.51,270.18 166.53,269.87 166.55,269.57 C 166.58,269.27 166.62,268.99 166.66,268.71 C 166.71,268.44 166.76,268.17 166.83,267.92 C 166.89,267.67 166.96,267.43 167.05,267.20 C 167.13,266.98 167.22,266.76 167.32,266.55 C 167.42,266.35 167.53,266.16 167.65,265.98 C 167.77,265.80 167.89,265.63 168.03,265.47 C 168.17,265.31 168.31,265.18 168.47,265.03 C 168.63,264.88 168.81,264.74 169.01,264.59 C 169.20,264.44 169.42,264.29 169.65,264.13 C 169.88,263.98 170.13,263.83 170.39,263.67 C 170.65,263.52 170.94,263.36 171.23,263.20 C 171.53,263.05 171.85,262.89 172.18,262.73 C 172.51,262.57 172.86,262.40 173.23,262.24 C 173.59,262.08 173.98,261.92 174.38,261.75 C 174.77,261.58 175.11,261.43 175.62,261.25 C 176.14,261.07 176.74,260.86 177.44,260.64 C 178.14,260.42 178.93,260.18 179.81,259.92 C 180.70,259.66 181.68,259.39 182.75,259.09 C 183.82,258.80 184.99,258.49 186.25,258.16 C 187.51,257.83 188.86,257.48 190.31,257.11 C 191.76,256.74 193.30,256.36 194.94,255.95 C 196.57,255.55 198.30,255.13 200.12,254.69 C 201.95,254.25 204.03,253.74 205.88,253.31 C 207.72,252.88 209.49,252.47 211.19,252.09 C 212.89,251.71 214.51,251.36 216.06,251.03 C 217.61,250.70 219.09,250.40 220.50,250.12 C 221.91,249.85 223.24,249.60 224.50,249.38 C 225.76,249.15 226.95,248.95 228.06,248.78 C 229.18,248.61 230.22,248.46 231.19,248.34 C 232.16,248.22 233.05,248.13 233.88,248.06 C 234.70,247.99 235.41,247.98 236.12,247.94 C 236.84,247.89 237.52,247.84 238.16,247.79 C 238.81,247.74 239.42,247.68 239.99,247.62 C 240.57,247.56 241.11,247.49 241.61,247.42 C 242.11,247.35 242.58,247.28 243.02,247.20 C 243.45,247.13 243.85,247.05 244.21,246.96 C 244.57,246.88 244.90,246.79 245.20,246.70 C 245.49,246.60 245.75,246.51 245.97,246.41 C 246.19,246.31 246.28,246.26 246.53,246.09 C 246.79,245.93 247.11,245.69 247.49,245.40 C 247.88,245.10 248.33,244.74 248.85,244.32 C 249.37,243.90 249.96,243.41 250.61,242.86 C 251.26,242.31 251.98,241.69 252.77,241.02 C 253.55,240.34 254.40,239.60 255.32,238.79 C 256.24,237.98 257.22,237.11 258.27,236.18 C 259.32,235.25 260.44,234.25 261.62,233.19 C 262.81,232.13 264.21,230.87 265.38,229.81 C 266.54,228.76 267.62,227.77 268.62,226.84 C 269.62,225.92 270.54,225.07 271.38,224.28 C 272.21,223.49 272.96,222.78 273.62,222.12 C 274.29,221.47 274.88,220.89 275.38,220.38 C 275.88,219.86 276.29,219.41 276.62,219.03 C 276.96,218.65 277.21,218.34 277.38,218.09 C 277.54,217.85 277.62,217.67 277.62,217.56 C 277.62,217.45 277.45,217.48 277.38,217.44 C 277.30,217.39 277.23,217.35 277.16,217.30 C 277.10,217.26 277.04,217.21 276.99,217.16 C 276.94,217.12 276.90,217.07 276.86,217.02 C 276.82,216.96 276.79,216.91 276.77,216.86 C 276.74,216.81 276.72,216.75 276.71,216.70 C 276.70,216.64 276.69,216.58 276.70,216.52 C 276.70,216.46 276.70,216.40 276.72,216.34 C 276.73,216.28 276.75,216.21 276.78,216.16 C 276.81,216.10 276.85,216.04 276.90,215.99 C 276.95,215.94 277.00,215.89 277.07,215.85 C 277.14,215.81 277.21,215.77 277.30,215.73 C 277.38,215.70 277.48,215.67 277.58,215.64 C 277.68,215.61 277.79,215.59 277.91,215.57 C 278.04,215.55 278.17,215.54 278.30,215.52 C 278.44,215.51 278.59,215.50 278.75,215.50 C 278.91,215.50 279.08,215.52 279.25,215.50 C 279.42,215.48 279.61,215.45 279.80,215.41 C 279.99,215.36 280.18,215.30 280.39,215.22 C 280.60,215.14 280.81,215.05 281.03,214.94 C 281.25,214.83 281.48,214.70 281.72,214.56 C 281.96,214.42 282.20,214.27 282.45,214.09 C 282.71,213.92 282.97,213.73 283.23,213.53 C 283.50,213.33 283.78,213.11 284.06,212.88 C 284.35,212.64 284.60,212.36 284.94,212.12 C 285.28,211.89 285.67,211.66 286.11,211.44 C 286.55,211.22 287.04,211.01 287.58,210.81 C 288.12,210.61 288.71,210.43 289.34,210.25 C 289.98,210.07 290.67,209.91 291.41,209.75 C 292.14,209.59 292.93,209.45 293.77,209.31 C 294.60,209.18 295.49,209.05 296.42,208.94 C 297.36,208.82 298.34,208.72 299.38,208.62 C 300.41,208.53 301.59,208.45 302.62,208.38 C 303.66,208.30 304.64,208.24 305.58,208.19 C 306.51,208.14 307.40,208.09 308.23,208.06 C 309.07,208.03 309.86,208.01 310.59,208.00 C 311.33,207.99 312.02,207.99 312.66,208.00 C 313.29,208.01 313.88,208.03 314.42,208.06 C 314.96,208.09 315.45,208.14 315.89,208.19 C 316.33,208.24 316.72,208.30 317.06,208.38 C 317.40,208.45 317.65,208.54 317.94,208.62 C 318.22,208.71 318.50,208.80 318.77,208.90 C 319.05,208.99 319.31,209.09 319.57,209.20 C 319.83,209.30 320.08,209.40 320.33,209.52 C 320.57,209.63 320.81,209.74 321.05,209.86 C 321.28,209.98 321.51,210.10 321.73,210.23 C 321.95,210.35 322.16,210.48 322.37,210.62 C 322.57,210.75 322.77,210.89 322.97,211.03 C 323.16,211.17 323.31,211.24 323.53,211.47 C 323.76,211.70 324.02,212.02 324.32,212.43 C 324.62,212.84 324.96,213.33 325.34,213.91 C 325.71,214.50 326.13,215.17 326.58,215.92 C 327.03,216.68 327.52,217.52 328.05,218.45 C 328.57,219.38 329.14,220.40 329.74,221.51 C 330.35,222.61 330.99,223.81 331.66,225.09 C 332.34,226.37 333.06,227.73 333.81,229.19 C 334.57,230.64 335.41,232.33 336.19,233.81 C 336.97,235.29 337.74,236.72 338.50,238.08 C 339.26,239.44 340.01,240.74 340.75,241.98 C 341.49,243.23 342.22,244.41 342.94,245.53 C 343.66,246.65 344.36,247.72 345.06,248.72 C 345.76,249.72 346.45,250.66 347.12,251.55 C 347.80,252.43 348.47,253.25 349.12,254.02 C 349.78,254.78 350.43,255.48 351.06,256.12 C 351.70,256.77 352.35,257.30 352.94,257.88 C 353.53,258.45 354.08,259.03 354.59,259.59 C 355.11,260.16 355.59,260.72 356.03,261.28 C 356.47,261.84 356.88,262.39 357.25,262.94 C 357.62,263.48 357.95,264.03 358.25,264.56 C 358.55,265.10 358.81,265.63 359.03,266.16 C 359.26,266.68 359.44,267.20 359.59,267.72 C 359.74,268.23 359.86,268.74 359.94,269.25 C 360.02,269.76 360.07,270.24 360.06,270.75 C 360.06,271.26 360.01,271.78 359.92,272.31 C 359.83,272.84 359.70,273.39 359.52,273.94 C 359.34,274.49 359.11,275.05 358.84,275.62 C 358.58,276.20 358.26,276.78 357.91,277.38 C 357.55,277.97 357.15,278.57 356.70,279.19 C 356.26,279.80 355.77,280.43 355.23,281.06 C 354.70,281.70 354.12,282.34 353.50,283.00 C 352.88,283.66 352.17,284.28 351.50,285.00 C 350.83,285.72 350.14,286.50 349.45,287.33 C 348.76,288.16 348.07,289.04 347.36,289.98 C 346.65,290.92 345.94,291.92 345.22,292.97 C 344.50,294.02 343.77,295.12 343.03,296.28 C 342.29,297.44 341.55,298.65 340.80,299.92 C 340.04,301.19 339.28,302.51 338.52,303.89 C 337.75,305.27 336.97,306.70 336.19,308.19 C 335.40,309.67 334.56,311.36 333.81,312.81 C 333.06,314.27 332.35,315.63 331.68,316.91 C 331.01,318.19 330.38,319.39 329.79,320.49 C 329.20,321.60 328.65,322.62 328.14,323.55 C 327.63,324.48 327.16,325.32 326.73,326.08 C 326.31,326.83 325.92,327.50 325.57,328.09 C 325.22,328.67 324.92,329.16 324.65,329.57 C 324.38,329.98 324.15,330.30 323.97,330.53 C 323.78,330.76 323.69,330.83 323.53,330.97 C 323.38,331.11 323.21,331.25 323.04,331.38 C 322.87,331.52 322.68,331.65 322.49,331.77 C 322.30,331.90 322.10,332.02 321.89,332.14 C 321.68,332.26 321.46,332.37 321.23,332.48 C 321.01,332.60 320.77,332.70 320.52,332.80 C 320.28,332.91 320.02,333.01 319.76,333.10 C 319.49,333.20 319.22,333.29 318.94,333.38 C 318.65,333.46 318.41,333.55 318.06,333.62 C 317.72,333.70 317.32,333.76 316.86,333.81 C 316.40,333.86 315.89,333.91 315.33,333.94 C 314.76,333.97 314.14,333.99 313.47,334.00 C 312.79,334.01 312.07,334.01 311.28,334.00 C 310.50,333.99 309.66,333.97 308.77,333.94 C 307.87,333.91 306.92,333.86 305.92,333.81 C 304.92,333.76 303.86,333.70 302.75,333.62 Z" stroke="none" fill="currentColor" opacity="0.11" />
  <path d="M255.83,262.50L255.83,262.50 M262.16,279.24L238.36,279.20 M227.84,280.08L223.96,280.08 M262.16,263.99L238.36,264.03 M223.98,280.19L224.00,280.13 M228.04,280.20L222.81,280.23 M249.44,277.15L263.64,277.17 M249.44,266.07L238.38,266.09 M238.38,266.09L232.82,266.11 M213.71,277.02L226.24,276.96 M238.46,276.92L249.28,276.98 M232.24,278.88L238.36,278.90 M232.24,279.04L238.36,279.07 M213.71,266.20L226.24,266.27 M238.46,266.30L249.28,266.25 M232.24,264.35L238.36,264.33 M228.17,256.00L226.14,255.86 M241.62,280.59L260.19,280.62 M232.65,278.19L238.36,278.29 M228.46,254.74L228.46,254.74 M228.19,254.74L228.19,254.74 M255.10,262.70L255.10,262.70 M259.49,262.70L259.49,262.70 M260.45,259.27L260.45,259.27 M260.09,262.82L249.45,262.86 M234.80,249.05L244.80,249.54 M246.01,248.60L239.24,248.48 M243.61,249.56L235.24,248.64 M257.73,252.15L263.40,252.51 M285.33,245.49L285.41,245.62 M285.42,254.29L285.44,254.92 M251.07,253.59L249.71,254.12 M285.33,297.74L285.41,297.61 M285.44,288.31L285.42,288.94 M249.71,289.10L251.07,289.64 M188.21,258.75L182.76,260.36 M189.96,258.39L182.68,260.47 M237.33,249.17L244.29,249.00 M188.21,284.48L182.76,282.87 M189.96,284.84L182.68,282.79 M237.33,294.05L244.29,294.22 M221.59,266.37L227.12,265.37 M221.59,276.86L227.12,277.86 M260.86,291.27L260.86,281.15 M259.72,290.39L259.72,281.39 M241.18,281.16L241.18,290.62 M246.49,281.29L251.49,281.26 M246.49,290.56L251.49,290.59 M280.74,259.86L275.87,259.86 M275.87,260.81L280.74,260.81 M280.74,283.37L275.87,283.37 M275.87,282.42L280.74,282.42 M279.65,260.81L275.77,260.82 M279.71,260.17L275.84,260.17 M279.65,282.46L275.77,282.45 M279.71,283.10L275.84,283.11 M273.99,260.61L281.62,260.57 M281.37,260.57L273.75,260.61 M281.50,260.01L273.87,260.05 M273.99,283.13L281.62,283.09 M281.37,283.09L273.75,283.13 M281.50,282.54L273.87,282.58 M277.12,271.61L277.13,261.58 M277.13,261.58L277.12,270.26 M277.12,272.96L277.13,281.65 M277.13,281.65L277.12,271.61 M255.17,259.86L260.22,259.86 M255.67,259.86L261.26,259.86 M261.26,260.81L255.67,260.81 M255.17,260.81L260.22,260.81 M255.17,283.37L260.22,283.37 M255.67,283.37L261.26,283.37 M260.22,282.42L255.17,282.42 M255.67,282.42L261.26,282.42 M262.84,259.93L256.37,259.89 M262.63,260.14L256.16,260.10 M262.96,283.24L256.49,283.20 M262.63,282.90L256.16,282.86 M271.01,258.81L250.30,258.53 M250.30,284.70L271.01,284.42 M271.02,259.04L250.30,258.72 M250.30,284.51L271.02,284.19 M238.09,282.71L242.74,282.70 M245.41,259.93L238.07,259.89 M245.21,260.14L237.87,260.10 M237.94,283.19L245.29,283.23 M283.45,294.61L280.55,294.61 M283.90,294.43L281.01,294.43 M280.10,294.43L282.99,294.43 M284.06,293.48L281.16,293.48 M283.21,293.15L280.31,293.15 M283.45,250.13L280.55,250.13 M283.90,249.96L281.01,249.96 M280.10,249.96L282.99,249.96 M284.06,249.00L281.16,249.00 M283.21,248.67L280.31,248.67 M203.68,272.19L200.57,272.19 M204.02,272.06L200.92,272.06 M200.76,271.07L203.86,271.07 M222.58,256.51L217.45,257.32 M214.85,252.64L224.05,250.69 M307.64,327.48L298.25,326.43 M303.61,327.01L298.25,326.43 M271.24,317.61L256.84,303.89 M269.24,307.11L263.85,307.03 M274.43,312.33L269.37,312.05 M268.63,312.01L273.71,312.30 M274.94,304.46L258.56,304.23 M303.35,329.06L305.95,333.54 M346.94,287.97L351.08,281.20 M326.99,290.78L301.38,327.92 M298.40,329.71L289.44,331.32 M291.76,308.61L284.94,308.61 M270.57,309.42L264.16,309.29 M264.16,308.57L270.57,308.44 M270.59,308.36L263.98,308.51 M263.98,309.35L270.59,309.50 M270.57,309.42L264.16,309.29 M264.16,308.57L270.57,308.44 M270.59,308.36L263.98,308.51 M263.98,309.35L270.59,309.50 M279.38,307.25L293.47,307.25 M279.38,310.61L293.47,310.61 M323.36,286.63L328.46,289.45 M340.35,288.94L334.51,285.90 M303.61,216.22L298.25,216.80 M307.64,215.74L298.25,216.80 M271.24,225.62L256.84,239.34 M279.35,218.72L270.99,226.23 M282.66,215.44L286.30,212.35 M269.38,236.11L263.99,236.19 M274.57,230.89L269.50,231.17 M268.77,231.21L273.85,230.91 M275.07,238.76L258.69,238.99 M346.94,255.26L351.08,262.03 M301.38,215.31L326.99,252.45 M298.24,213.53L291.61,211.98 M298.40,213.52L289.44,211.91 M281.26,233.44L288.05,233.44 M281.26,234.86L288.05,234.86 M288.05,233.76L281.23,233.76 M288.05,234.54L281.23,234.54 M270.57,234.74L264.16,234.61 M264.16,233.89L270.57,233.76 M270.59,233.68L263.98,233.83 M263.98,234.67L270.59,234.82 M270.57,234.74L264.16,234.61 M264.16,233.89L270.57,233.76 M270.59,233.68L263.98,233.83 M263.98,234.67L270.59,234.82 M279.38,232.57L293.47,232.57 M279.38,235.93L293.47,235.93 M340.35,254.29L334.51,257.33 M328.99,250.66L340.86,250.92 M323.90,259.68L318.77,260.29 M302.90,253.92L297.76,253.65 M302.85,253.85L297.76,253.59 M313.78,256.75L323.90,251.94 M323.87,251.96L316.82,253.81 M293.74,258.58L298.03,256.36 M323.90,283.54L318.77,282.93 M302.90,289.31L297.76,289.58 M323.87,291.27L316.82,289.41 M323.90,291.28L313.78,286.48 M298.03,286.87L293.74,284.64 M293.28,260.04L293.29,259.97 M293.28,283.18L293.29,283.26 M337.60,263.76L349.81,263.79 M337.60,263.03L350.35,263.10 M337.60,263.03L349.60,263.06 M344.74,262.27L335.93,262.37 M335.92,262.12L344.74,262.03 M337.60,279.47L349.81,279.43 M350.35,280.13L337.60,280.20 M349.60,280.16L337.60,280.20 M344.74,280.96L335.93,280.86 M344.74,281.20L335.92,281.11 M343.97,265.27L343.97,277.95 M341.22,277.78L341.22,265.45 M332.66,259.53L333.61,252.93 M332.66,283.70L333.61,290.30 M329.26,255.59L328.97,262.59 M328.97,280.63L329.26,287.63 M339.25,269.23L332.11,269.24 M332.11,273.98L339.25,273.99 M311.90,249.06L327.90,248.24 M344.17,251.45L334.21,251.58 M311.90,294.17L327.90,294.99 M334.21,291.64L344.17,291.78 M264.37,254.37L281.40,254.97 M259.65,244.91L282.90,245.39 M259.65,298.48L282.89,297.74 M285.58,297.39L285.34,288.27 M288.24,234.45L287.52,240.22 M287.81,302.97L288.84,308.60 M288.24,308.78L287.52,303.01 M220.55,254.21L229.62,252.23 M229.62,252.23L234.85,250.98 M239.08,249.83L245.37,247.80 M248.09,246.49L255.83,240.96 M190.03,267.56L190.02,267.70 M218.47,262.44L225.71,262.01 M220.55,289.01L229.62,291.00 M229.62,291.00L234.85,292.25 M239.08,293.39L245.37,295.43 M248.09,296.74L255.83,302.28 M218.47,280.78L225.71,281.22 M287.45,284.39L282.24,284.42 M253.51,249.13L259.47,249.80 M239.48,248.97L245.24,248.76 M266.38,250.84L271.59,251.36 M175.40,265.22L180.07,262.49 M180.89,268.36L187.89,268.29 M180.69,280.83L175.21,277.90 M266.38,292.39L271.59,291.86 M259.47,293.43L253.51,294.10 M191.45,276.11L202.35,276.12 M191.48,271.55L202.38,271.57 M207.43,276.13L215.43,276.16 M207.46,271.59L215.47,271.64 M191.71,271.69L197.14,271.72 M191.68,275.94L197.10,275.98 M191.45,267.07L202.35,267.10 M191.46,271.63L202.36,271.65 M207.43,267.11L215.43,267.11 M207.44,271.65L215.46,271.63 M191.70,271.49L197.12,271.48 M191.68,267.24L197.10,267.22 M220.76,257.77L220.77,270.54" stroke="currentColor" stroke-width="0.6" stroke-linecap="round" fill="none" opacity="0.55" clip-path="url(#hull-clip)" filter="url(#glow)" />
  <path d="M 302.75,333.62 C 301.64,333.55 300.43,333.54 299.25,333.38 C 298.07,333.21 296.86,332.97 295.64,332.64 C 294.42,332.32 293.18,331.91 291.92,331.42 C 290.66,330.93 289.39,330.37 288.09,329.72 C 286.80,329.07 285.49,328.34 284.16,327.53 C 282.83,326.72 281.48,325.83 280.11,324.86 C 278.74,323.89 277.36,322.84 275.95,321.70 C 274.55,320.57 273.13,319.36 271.69,318.06 C 270.25,316.77 268.70,315.24 267.31,313.94 C 265.93,312.64 264.61,311.41 263.38,310.27 C 262.14,309.12 260.97,308.04 259.88,307.05 C 258.78,306.05 257.76,305.13 256.81,304.28 C 255.86,303.43 254.99,302.66 254.19,301.97 C 253.39,301.27 252.66,300.65 252.00,300.11 C 251.34,299.57 250.76,299.10 250.25,298.70 C 249.74,298.31 249.30,297.99 248.94,297.75 C 248.57,297.51 248.39,297.41 248.06,297.25 C 247.73,297.09 247.37,296.93 246.97,296.78 C 246.57,296.63 246.13,296.48 245.66,296.34 C 245.18,296.20 244.67,296.07 244.12,295.94 C 243.58,295.81 242.99,295.68 242.38,295.56 C 241.76,295.44 241.10,295.33 240.41,295.22 C 239.71,295.11 238.98,295.01 238.22,294.91 C 237.45,294.81 236.65,294.71 235.81,294.62 C 234.97,294.54 234.09,294.47 233.19,294.38 C 232.29,294.28 231.36,294.17 230.41,294.05 C 229.45,293.92 228.47,293.79 227.47,293.64 C 226.46,293.49 225.43,293.33 224.38,293.16 C 223.32,292.98 222.23,292.79 221.12,292.59 C 220.02,292.39 218.88,292.18 217.72,291.95 C 216.56,291.73 215.37,291.49 214.16,291.23 C 212.94,290.98 211.70,290.72 210.44,290.44 C 209.17,290.16 207.81,289.85 206.56,289.56 C 205.32,289.28 204.11,289.00 202.95,288.73 C 201.79,288.47 200.68,288.21 199.61,287.95 C 198.54,287.70 197.51,287.46 196.53,287.22 C 195.55,286.98 194.61,286.75 193.72,286.53 C 192.83,286.31 191.98,286.10 191.17,285.89 C 190.37,285.68 189.61,285.49 188.89,285.30 C 188.17,285.11 187.50,284.92 186.88,284.75 C 186.25,284.58 185.70,284.42 185.12,284.25 C 184.55,284.08 184.00,283.92 183.45,283.75 C 182.91,283.58 182.38,283.42 181.86,283.25 C 181.34,283.08 180.84,282.92 180.34,282.75 C 179.85,282.58 179.37,282.42 178.91,282.25 C 178.44,282.08 177.99,281.92 177.55,281.75 C 177.11,281.58 176.68,281.42 176.27,281.25 C 175.85,281.08 175.45,280.92 175.06,280.75 C 174.67,280.58 174.30,280.42 173.94,280.25 C 173.58,280.08 173.23,279.92 172.90,279.76 C 172.57,279.60 172.25,279.43 171.95,279.27 C 171.64,279.11 171.35,278.95 171.08,278.80 C 170.80,278.64 170.54,278.48 170.30,278.33 C 170.05,278.17 169.82,278.02 169.60,277.87 C 169.38,277.71 169.18,277.56 168.99,277.41 C 168.80,277.26 168.63,277.12 168.47,276.97 C 168.31,276.82 168.17,276.69 168.03,276.53 C 167.89,276.37 167.77,276.20 167.65,276.02 C 167.53,275.84 167.42,275.65 167.32,275.45 C 167.22,275.24 167.13,275.02 167.05,274.80 C 166.96,274.57 166.89,274.33 166.83,274.08 C 166.76,273.83 166.71,273.56 166.66,273.29 C 166.62,273.01 166.58,272.73 166.55,272.43 C 166.53,272.13 166.51,271.82 166.50,271.50 C 166.49,271.18 166.49,270.82 166.50,270.50 C 166.51,270.18 166.53,269.87 166.55,269.57 C 166.58,269.27 166.62,268.99 166.66,268.71 C 166.71,268.44 166.76,268.17 166.83,267.92 C 166.89,267.67 166.96,267.43 167.05,267.20 C 167.13,266.98 167.22,266.76 167.32,266.55 C 167.42,266.35 167.53,266.16 167.65,265.98 C 167.77,265.80 167.89,265.63 168.03,265.47 C 168.17,265.31 168.31,265.18 168.47,265.03 C 168.63,264.88 168.81,264.74 169.01,264.59 C 169.20,264.44 169.42,264.29 169.65,264.13 C 169.88,263.98 170.13,263.83 170.39,263.67 C 170.65,263.52 170.94,263.36 171.23,263.20 C 171.53,263.05 171.85,262.89 172.18,262.73 C 172.51,262.57 172.86,262.40 173.23,262.24 C 173.59,262.08 173.98,261.92 174.38,261.75 C 174.77,261.58 175.11,261.43 175.62,261.25 C 176.14,261.07 176.74,260.86 177.44,260.64 C 178.14,260.42 178.93,260.18 179.81,259.92 C 180.70,259.66 181.68,259.39 182.75,259.09 C 183.82,258.80 184.99,258.49 186.25,258.16 C 187.51,257.83 188.86,257.48 190.31,257.11 C 191.76,256.74 193.30,256.36 194.94,255.95 C 196.57,255.55 198.30,255.13 200.12,254.69 C 201.95,254.25 204.03,253.74 205.88,253.31 C 207.72,252.88 209.49,252.47 211.19,252.09 C 212.89,251.71 214.51,251.36 216.06,251.03 C 217.61,250.70 219.09,250.40 220.50,250.12 C 221.91,249.85 223.24,249.60 224.50,249.38 C 225.76,249.15 226.95,248.95 228.06,248.78 C 229.18,248.61 230.22,248.46 231.19,248.34 C 232.16,248.22 233.05,248.13 233.88,248.06 C 234.70,247.99 235.41,247.98 236.12,247.94 C 236.84,247.89 237.52,247.84 238.16,247.79 C 238.81,247.74 239.42,247.68 239.99,247.62 C 240.57,247.56 241.11,247.49 241.61,247.42 C 242.11,247.35 242.58,247.28 243.02,247.20 C 243.45,247.13 243.85,247.05 244.21,246.96 C 244.57,246.88 244.90,246.79 245.20,246.70 C 245.49,246.60 245.75,246.51 245.97,246.41 C 246.19,246.31 246.28,246.26 246.53,246.09 C 246.79,245.93 247.11,245.69 247.49,245.40 C 247.88,245.10 248.33,244.74 248.85,244.32 C 249.37,243.90 249.96,243.41 250.61,242.86 C 251.26,242.31 251.98,241.69 252.77,241.02 C 253.55,240.34 254.40,239.60 255.32,238.79 C 256.24,237.98 257.22,237.11 258.27,236.18 C 259.32,235.25 260.44,234.25 261.62,233.19 C 262.81,232.13 264.21,230.87 265.38,229.81 C 266.54,228.76 267.62,227.77 268.62,226.84 C 269.62,225.92 270.54,225.07 271.38,224.28 C 272.21,223.49 272.96,222.78 273.62,222.12 C 274.29,221.47 274.88,220.89 275.38,220.38 C 275.88,219.86 276.29,219.41 276.62,219.03 C 276.96,218.65 277.21,218.34 277.38,218.09 C 277.54,217.85 277.62,217.67 277.62,217.56 C 277.62,217.45 277.45,217.48 277.38,217.44 C 277.30,217.39 277.23,217.35 277.16,217.30 C 277.10,217.26 277.04,217.21 276.99,217.16 C 276.94,217.12 276.90,217.07 276.86,217.02 C 276.82,216.96 276.79,216.91 276.77,216.86 C 276.74,216.81 276.72,216.75 276.71,216.70 C 276.70,216.64 276.69,216.58 276.70,216.52 C 276.70,216.46 276.70,216.40 276.72,216.34 C 276.73,216.28 276.75,216.21 276.78,216.16 C 276.81,216.10 276.85,216.04 276.90,215.99 C 276.95,215.94 277.00,215.89 277.07,215.85 C 277.14,215.81 277.21,215.77 277.30,215.73 C 277.38,215.70 277.48,215.67 277.58,215.64 C 277.68,215.61 277.79,215.59 277.91,215.57 C 278.04,215.55 278.17,215.54 278.30,215.52 C 278.44,215.51 278.59,215.50 278.75,215.50 C 278.91,215.50 279.08,215.52 279.25,215.50 C 279.42,215.48 279.61,215.45 279.80,215.41 C 279.99,215.36 280.18,215.30 280.39,215.22 C 280.60,215.14 280.81,215.05 281.03,214.94 C 281.25,214.83 281.48,214.70 281.72,214.56 C 281.96,214.42 282.20,214.27 282.45,214.09 C 282.71,213.92 282.97,213.73 283.23,213.53 C 283.50,213.33 283.78,213.11 284.06,212.88 C 284.35,212.64 284.60,212.36 284.94,212.12 C 285.28,211.89 285.67,211.66 286.11,211.44 C 286.55,211.22 287.04,211.01 287.58,210.81 C 288.12,210.61 288.71,210.43 289.34,210.25 C 289.98,210.07 290.67,209.91 291.41,209.75 C 292.14,209.59 292.93,209.45 293.77,209.31 C 294.60,209.18 295.49,209.05 296.42,208.94 C 297.36,208.82 298.34,208.72 299.38,208.62 C 300.41,208.53 301.59,208.45 302.62,208.38 C 303.66,208.30 304.64,208.24 305.58,208.19 C 306.51,208.14 307.40,208.09 308.23,208.06 C 309.07,208.03 309.86,208.01 310.59,208.00 C 311.33,207.99 312.02,207.99 312.66,208.00 C 313.29,208.01 313.88,208.03 314.42,208.06 C 314.96,208.09 315.45,208.14 315.89,208.19 C 316.33,208.24 316.72,208.30 317.06,208.38 C 317.40,208.45 317.65,208.54 317.94,208.62 C 318.22,208.71 318.50,208.80 318.77,208.90 C 319.05,208.99 319.31,209.09 319.57,209.20 C 319.83,209.30 320.08,209.40 320.33,209.52 C 320.57,209.63 320.81,209.74 321.05,209.86 C 321.28,209.98 321.51,210.10 321.73,210.23 C 321.95,210.35 322.16,210.48 322.37,210.62 C 322.57,210.75 322.77,210.89 322.97,211.03 C 323.16,211.17 323.31,211.24 323.53,211.47 C 323.76,211.70 324.02,212.02 324.32,212.43 C 324.62,212.84 324.96,213.33 325.34,213.91 C 325.71,214.50 326.13,215.17 326.58,215.92 C 327.03,216.68 327.52,217.52 328.05,218.45 C 328.57,219.38 329.14,220.40 329.74,221.51 C 330.35,222.61 330.99,223.81 331.66,225.09 C 332.34,226.37 333.06,227.73 333.81,229.19 C 334.57,230.64 335.41,232.33 336.19,233.81 C 336.97,235.29 337.74,236.72 338.50,238.08 C 339.26,239.44 340.01,240.74 340.75,241.98 C 341.49,243.23 342.22,244.41 342.94,245.53 C 343.66,246.65 344.36,247.72 345.06,248.72 C 345.76,249.72 346.45,250.66 347.12,251.55 C 347.80,252.43 348.47,253.25 349.12,254.02 C 349.78,254.78 350.43,255.48 351.06,256.12 C 351.70,256.77 352.35,257.30 352.94,257.88 C 353.53,258.45 354.08,259.03 354.59,259.59 C 355.11,260.16 355.59,260.72 356.03,261.28 C 356.47,261.84 356.88,262.39 357.25,262.94 C 357.62,263.48 357.95,264.03 358.25,264.56 C 358.55,265.10 358.81,265.63 359.03,266.16 C 359.26,266.68 359.44,267.20 359.59,267.72 C 359.74,268.23 359.86,268.74 359.94,269.25 C 360.02,269.76 360.07,270.24 360.06,270.75 C 360.06,271.26 360.01,271.78 359.92,272.31 C 359.83,272.84 359.70,273.39 359.52,273.94 C 359.34,274.49 359.11,275.05 358.84,275.62 C 358.58,276.20 358.26,276.78 357.91,277.38 C 357.55,277.97 357.15,278.57 356.70,279.19 C 356.26,279.80 355.77,280.43 355.23,281.06 C 354.70,281.70 354.12,282.34 353.50,283.00 C 352.88,283.66 352.17,284.28 351.50,285.00 C 350.83,285.72 350.14,286.50 349.45,287.33 C 348.76,288.16 348.07,289.04 347.36,289.98 C 346.65,290.92 345.94,291.92 345.22,292.97 C 344.50,294.02 343.77,295.12 343.03,296.28 C 342.29,297.44 341.55,298.65 340.80,299.92 C 340.04,301.19 339.28,302.51 338.52,303.89 C 337.75,305.27 336.97,306.70 336.19,308.19 C 335.40,309.67 334.56,311.36 333.81,312.81 C 333.06,314.27 332.35,315.63 331.68,316.91 C 331.01,318.19 330.38,319.39 329.79,320.49 C 329.20,321.60 328.65,322.62 328.14,323.55 C 327.63,324.48 327.16,325.32 326.73,326.08 C 326.31,326.83 325.92,327.50 325.57,328.09 C 325.22,328.67 324.92,329.16 324.65,329.57 C 324.38,329.98 324.15,330.30 323.97,330.53 C 323.78,330.76 323.69,330.83 323.53,330.97 C 323.38,331.11 323.21,331.25 323.04,331.38 C 322.87,331.52 322.68,331.65 322.49,331.77 C 322.30,331.90 322.10,332.02 321.89,332.14 C 321.68,332.26 321.46,332.37 321.23,332.48 C 321.01,332.60 320.77,332.70 320.52,332.80 C 320.28,332.91 320.02,333.01 319.76,333.10 C 319.49,333.20 319.22,333.29 318.94,333.38 C 318.65,333.46 318.41,333.55 318.06,333.62 C 317.72,333.70 317.32,333.76 316.86,333.81 C 316.40,333.86 315.89,333.91 315.33,333.94 C 314.76,333.97 314.14,333.99 313.47,334.00 C 312.79,334.01 312.07,334.01 311.28,334.00 C 310.50,333.99 309.66,333.97 308.77,333.94 C 307.87,333.91 306.92,333.86 305.92,333.81 C 304.92,333.76 303.86,333.70 302.75,333.62 Z" fill="none" stroke="currentColor" stroke-width="1.5" stroke-linejoin="round" stroke-linecap="round" filter="url(#glow)" />
</svg>