<svg xmlns="http://www.w3.org/2000/svg" width="512" height="512" viewBox="72.10 113.10 270.55 172.80" preserveAspectRatio="xMidYMid meet">
  <defs>
    <filter id="glow" x="-30%" y="-30%" width="160%" height="160%">
      <feGaussianBlur in="SourceGraphic" stdDeviation="2.4" result="blur" />
      <feMerge>
        <feMergeNode in="blur" />
        <feMergeNode in="SourceGraphic" />
      </feMerge>
    </filter>
    <clipPath id="hull-clip">
      <path d="M 277.50,271.50 C 276.53,271.51 275.44,271.51 274.50,271.50 C 273.56,271.49 272.68,271.48 271.86,271.47 C 271.04,271.45 270.28,271.43 269.58,271.41 C 268.88,271.38 268.24,271.35 267.66,271.31 C 267.08,271.28 266.55,271.23 266.09,271.19 C 265.63,271.14 265.23,271.09 264.89,271.03 C 264.55,270.97 264.27,270.91 264.05,270.84 C 263.83,270.78 263.66,270.70 263.56,270.62 C 263.46,270.55 263.51,270.45 263.44,270.38 C 263.37,270.30 263.28,270.22 263.16,270.16 C 263.04,270.09 262.89,270.03 262.72,269.97 C 262.55,269.91 262.35,269.86 262.12,269.81 C 261.90,269.77 261.65,269.72 261.38,269.69 C 261.10,269.65 260.80,269.62 260.47,269.59 C 260.14,269.57 259.79,269.55 259.41,269.53 C 259.03,269.52 258.62,269.51 258.19,269.50 C 257.76,269.49 257.22,269.50 256.81,269.50 C 256.41,269.50 256.05,269.49 255.75,269.48 C 255.45,269.48 255.20,269.47 255.00,269.45 C 254.80,269.44 254.66,269.42 254.56,269.41 C 254.47,269.39 254.43,269.37 254.44,269.34 C 254.45,269.32 254.51,269.29 254.62,269.27 C 254.74,269.24 254.91,269.21 255.12,269.17 C 255.34,269.14 255.61,269.10 255.94,269.06 C 256.26,269.02 256.71,268.99 257.06,268.94 C 257.41,268.88 257.73,268.82 258.02,268.74 C 258.32,268.67 258.58,268.58 258.82,268.48 C 259.06,268.38 259.27,268.26 259.45,268.14 C 259.64,268.02 259.79,267.88 259.92,267.73 C 260.05,267.59 260.15,267.43 260.23,267.26 C 260.30,267.09 260.35,266.90 260.37,266.71 C 260.39,266.52 260.38,266.31 260.34,266.09 C 260.31,265.88 260.24,265.66 260.16,265.41 C 260.07,265.15 259.96,264.87 259.82,264.55 C 259.68,264.24 259.52,263.90 259.34,263.54 C 259.15,263.17 258.94,262.78 258.70,262.36 C 258.47,261.94 258.21,261.49 257.92,261.02 C 257.64,260.54 257.33,260.04 256.99,259.51 C 256.66,258.98 256.30,258.42 255.91,257.84 C 255.53,257.25 255.12,256.64 254.69,256.00 C 254.25,255.36 253.77,254.66 253.31,254.00 C 252.85,253.34 252.38,252.69 251.91,252.05 C 251.44,251.42 250.97,250.79 250.49,250.16 C 250.01,249.54 249.53,248.93 249.05,248.33 C 248.56,247.73 248.07,247.13 247.58,246.55 C 247.08,245.96 246.59,245.39 246.09,244.82 C 245.58,244.25 245.08,243.70 244.57,243.15 C 244.06,242.60 243.55,242.06 243.03,241.53 C 242.51,241.00 241.98,240.47 241.47,239.97 C 240.96,239.47 240.46,238.99 239.98,238.52 C 239.49,238.06 239.02,237.62 238.55,237.20 C 238.09,236.77 237.64,236.37 237.20,235.98 C 236.76,235.60 236.34,235.24 235.92,234.89 C 235.51,234.55 235.10,234.22 234.71,233.91 C 234.32,233.61 233.94,233.32 233.57,233.05 C 233.20,232.79 232.85,232.54 232.50,232.31 C 232.15,232.08 231.88,231.88 231.50,231.69 C 231.12,231.49 230.69,231.31 230.22,231.14 C 229.74,230.97 229.22,230.82 228.66,230.67 C 228.09,230.53 227.47,230.40 226.81,230.28 C 226.15,230.16 225.44,230.06 224.69,229.97 C 223.93,229.88 223.13,229.80 222.28,229.73 C 221.43,229.67 220.54,229.62 219.59,229.58 C 218.65,229.54 217.66,229.51 216.62,229.50 C 215.59,229.49 214.47,229.51 213.38,229.50 C 212.28,229.49 211.18,229.47 210.08,229.44 C 208.97,229.41 207.86,229.36 206.73,229.31 C 205.61,229.26 204.48,229.20 203.34,229.12 C 202.21,229.05 201.06,228.97 199.91,228.88 C 198.75,228.78 197.59,228.68 196.42,228.56 C 195.25,228.45 194.08,228.32 192.89,228.19 C 191.71,228.05 190.51,227.91 189.31,227.75 C 188.11,227.59 186.84,227.40 185.69,227.25 C 184.54,227.10 183.44,226.96 182.41,226.83 C 181.37,226.70 180.39,226.59 179.47,226.48 C 178.55,226.38 177.68,226.29 176.88,226.22 C 176.07,226.14 175.32,226.08 174.62,226.03 C 173.93,225.98 173.30,225.95 172.72,225.92 C 172.14,225.90 171.62,225.89 171.16,225.89 C 170.69,225.89 170.29,225.91 169.94,225.94 C 169.59,225.97 169.37,226.03 169.06,226.06 C 168.76,226.10 168.44,226.12 168.11,226.14 C 167.78,226.16 167.43,226.17 167.08,226.17 C 166.72,226.17 166.35,226.17 165.97,226.16 C 165.59,226.14 165.19,226.12 164.78,226.09 C 164.37,226.07 163.95,226.03 163.52,225.98 C 163.08,225.94 162.63,225.89 162.17,225.83 C 161.71,225.77 161.24,225.70 160.75,225.62 C 160.26,225.55 159.72,225.46 159.25,225.38 C 158.78,225.29 158.34,225.21 157.92,225.12 C 157.51,225.04 157.12,224.96 156.77,224.88 C 156.41,224.79 156.08,224.71 155.78,224.62 C 155.48,224.54 155.21,224.46 154.97,224.38 C 154.73,224.29 154.51,224.21 154.33,224.12 C 154.14,224.04 153.99,223.96 153.86,223.88 C 153.73,223.79 153.63,223.71 153.56,223.62 C 153.49,223.54 153.50,223.46 153.44,223.38 C 153.38,223.29 153.29,223.21 153.19,223.12 C 153.08,223.04 152.96,222.96 152.81,222.88 C 152.67,222.79 152.50,222.71 152.31,222.62 C 152.12,222.54 151.92,222.46 151.69,222.38 C 151.46,222.29 151.21,222.21 150.94,222.12 C 150.67,222.04 150.38,221.96 150.06,221.88 C 149.75,221.79 149.42,221.71 149.06,221.62 C 148.71,221.54 148.30,221.45 147.94,221.38 C 147.57,221.30 147.22,221.23 146.88,221.16 C 146.54,221.10 146.21,221.04 145.90,220.99 C 145.58,220.94 145.28,220.90 144.98,220.86 C 144.69,220.82 144.41,220.79 144.14,220.77 C 143.87,220.74 143.61,220.72 143.37,220.71 C 143.12,220.70 142.89,220.69 142.66,220.70 C 142.44,220.70 142.23,220.70 142.03,220.72 C 141.83,220.73 141.65,220.74 141.47,220.78 C 141.29,220.82 141.12,220.87 140.95,220.94 C 140.79,221.01 140.63,221.09 140.48,221.19 C 140.34,221.29 140.20,221.40 140.06,221.53 C 139.93,221.66 139.80,221.81 139.69,221.97 C 139.57,222.13 139.46,222.31 139.36,222.50 C 139.26,222.69 139.16,222.90 139.08,223.12 C 138.99,223.35 138.91,223.59 138.84,223.84 C 138.77,224.10 138.73,224.40 138.66,224.66 C 138.58,224.91 138.50,225.15 138.41,225.37 C 138.32,225.59 138.23,225.79 138.12,225.98 C 138.01,226.16 137.89,226.33 137.77,226.48 C 137.64,226.64 137.50,226.77 137.36,226.89 C 137.21,227.01 137.06,227.11 136.90,227.20 C 136.74,227.28 136.56,227.35 136.38,227.40 C 136.20,227.45 136.01,227.48 135.81,227.50 C 135.61,227.52 135.39,227.50 135.19,227.50 C 134.98,227.50 134.77,227.49 134.57,227.48 C 134.37,227.46 134.16,227.45 133.96,227.43 C 133.76,227.41 133.56,227.39 133.36,227.36 C 133.16,227.33 132.96,227.30 132.77,227.27 C 132.57,227.23 132.37,227.19 132.18,227.15 C 131.99,227.11 131.79,227.06 131.60,227.01 C 131.41,226.96 131.22,226.90 131.03,226.84 C 130.84,226.79 130.64,226.72 130.47,226.66 C 130.30,226.60 130.15,226.54 130.02,226.48 C 129.89,226.42 129.79,226.36 129.70,226.30 C 129.61,226.25 129.54,226.19 129.48,226.14 C 129.43,226.09 129.40,226.04 129.39,225.98 C 129.38,225.93 129.39,225.88 129.41,225.84 C 129.44,225.79 129.49,225.74 129.55,225.70 C 129.62,225.65 129.71,225.61 129.81,225.56 C 129.92,225.52 130.07,225.49 130.19,225.44 C 130.30,225.39 130.41,225.33 130.52,225.27 C 130.62,225.20 130.71,225.13 130.80,225.05 C 130.88,224.97 130.96,224.88 131.03,224.78 C 131.10,224.68 131.16,224.58 131.22,224.47 C 131.27,224.36 131.32,224.24 131.36,224.11 C 131.40,223.98 131.43,223.85 131.45,223.70 C 131.48,223.56 131.49,223.41 131.50,223.25 C 131.51,223.09 131.51,222.92 131.50,222.75 C 131.49,222.58 131.48,222.42 131.46,222.26 C 131.44,222.10 131.42,221.93 131.38,221.77 C 131.35,221.61 131.31,221.45 131.27,221.30 C 131.22,221.14 131.17,220.98 131.11,220.83 C 131.05,220.67 130.99,220.52 130.91,220.37 C 130.84,220.21 130.76,220.06 130.68,219.91 C 130.60,219.76 130.50,219.62 130.41,219.47 C 130.31,219.32 130.24,219.18 130.09,219.03 C 129.95,218.89 129.76,218.74 129.52,218.60 C 129.29,218.46 129.01,218.32 128.70,218.18 C 128.38,218.04 128.01,217.90 127.61,217.77 C 127.20,217.63 126.76,217.49 126.27,217.36 C 125.77,217.23 125.24,217.09 124.66,216.96 C 124.09,216.83 123.47,216.70 122.80,216.57 C 122.14,216.44 121.44,216.31 120.69,216.19 C 119.94,216.06 119.10,215.95 118.31,215.81 C 117.52,215.67 116.73,215.52 115.94,215.36 C 115.15,215.20 114.35,215.02 113.56,214.83 C 112.77,214.64 111.98,214.43 111.19,214.22 C 110.40,214.00 109.60,213.77 108.81,213.53 C 108.02,213.29 107.23,213.03 106.44,212.77 C 105.65,212.50 104.85,212.22 104.06,211.92 C 103.27,211.63 102.48,211.32 101.69,211.00 C 100.90,210.68 100.07,210.32 99.31,210.00 C 98.56,209.68 97.84,209.36 97.16,209.05 C 96.49,208.75 95.85,208.45 95.24,208.16 C 94.64,207.88 94.07,207.60 93.55,207.33 C 93.02,207.06 92.53,206.80 92.08,206.55 C 91.63,206.30 91.21,206.05 90.84,205.82 C 90.46,205.59 90.12,205.36 89.82,205.15 C 89.52,204.93 89.26,204.73 89.03,204.53 C 88.81,204.33 88.64,204.16 88.47,203.97 C 88.29,203.78 88.13,203.59 87.98,203.40 C 87.82,203.21 87.68,203.01 87.55,202.82 C 87.43,202.63 87.31,202.43 87.20,202.23 C 87.10,202.04 87.00,201.84 86.92,201.64 C 86.84,201.44 86.77,201.24 86.71,201.04 C 86.65,200.84 86.61,200.63 86.57,200.43 C 86.54,200.23 86.51,200.02 86.50,199.81 C 86.49,199.61 86.49,199.39 86.50,199.19 C 86.51,198.98 86.54,198.77 86.57,198.57 C 86.61,198.37 86.65,198.16 86.71,197.96 C 86.77,197.76 86.84,197.56 86.92,197.36 C 87.00,197.16 87.10,196.96 87.20,196.77 C 87.31,196.57 87.43,196.37 87.55,196.18 C 87.68,195.99 87.82,195.79 87.98,195.60 C 88.13,195.41 88.29,195.22 88.47,195.03 C 88.64,194.84 88.81,194.67 89.03,194.47 C 89.26,194.27 89.52,194.07 89.82,193.85 C 90.12,193.64 90.46,193.41 90.84,193.18 C 91.21,192.95 91.63,192.70 92.08,192.45 C 92.53,192.20 93.02,191.94 93.55,191.67 C 94.07,191.40 94.64,191.12 95.24,190.84 C 95.85,190.55 96.49,190.25 97.16,189.95 C 97.84,189.64 98.56,189.32 99.31,189.00 C 100.07,188.68 100.90,188.32 101.69,188.00 C 102.48,187.68 103.27,187.37 104.06,187.08 C 104.85,186.78 105.65,186.50 106.44,186.23 C 107.23,185.97 108.02,185.71 108.81,185.47 C 109.60,185.23 110.40,185.00 111.19,184.78 C 111.98,184.57 112.77,184.36 113.56,184.17 C 114.35,183.98 115.15,183.80 115.94,183.64 C 116.73,183.48 117.52,183.33 118.31,183.19 C 119.10,183.05 119.94,182.94 120.69,182.81 C 121.44,182.69 122.14,182.56 122.80,182.43 C 123.47,182.30 124.09,182.17 124.66,182.04 C 125.24,181.91 125.77,181.77 126.27,181.64 C 126.76,181.51 127.20,181.37 127.61,181.23 C 128.01,181.10 128.38,180.96 128.70,180.82 C 129.01,180.68 129.29,180.54 129.52,180.40 C 129.76,180.26 129.95,180.11 130.09,179.97 C 130.24,179.82 130.31,179.68 130.41,179.53 C 130.50,179.38 130.60,179.24 130.68,179.09 C 130.76,178.94 130.84,178.79 130.91,178.63 C 130.99,178.48 131.05,178.33 131.11,178.17 C 131.17,178.02 131.22,177.86 131.27,177.70 C 131.31,177.55 131.35,177.39 131.38,177.23 C 131.42,177.07 131.44,176.90 131.46,176.74 C 131.48,176.58 131.49,176.42 131.50,176.25 C 131.51,176.08 131.51,175.91 131.50,175.75 C 131.49,175.59 131.48,175.44 131.46,175.29 C 131.44,175.14 131.42,175.00 131.38,174.87 C 131.35,174.73 131.31,174.61 131.27,174.48 C 131.22,174.36 131.17,174.25 131.11,174.14 C 131.05,174.03 130.99,173.93 130.91,173.84 C 130.84,173.74 130.76,173.65 130.68,173.57 C 130.60,173.49 130.50,173.41 130.41,173.34 C 130.31,173.27 130.17,173.22 130.09,173.16 C 130.02,173.10 129.98,173.04 129.96,172.98 C 129.95,172.92 129.96,172.86 130.01,172.80 C 130.05,172.75 130.13,172.69 130.23,172.64 C 130.34,172.59 130.48,172.54 130.64,172.48 C 130.81,172.43 131.00,172.38 131.23,172.34 C 131.45,172.29 131.71,172.24 131.99,172.20 C 132.28,172.15 132.59,172.11 132.94,172.06 C 133.28,172.02 133.71,171.96 134.06,171.94 C 134.42,171.92 134.76,171.92 135.08,171.94 C 135.40,171.96 135.70,172.00 135.98,172.06 C 136.27,172.12 136.53,172.21 136.78,172.31 C 137.03,172.42 137.26,172.54 137.47,172.69 C 137.68,172.83 137.87,173.00 138.05,173.19 C 138.22,173.38 138.38,173.58 138.52,173.81 C 138.65,174.04 138.77,174.29 138.88,174.56 C 138.98,174.83 138.97,175.18 139.12,175.44 C 139.28,175.70 139.50,175.93 139.80,176.12 C 140.09,176.32 140.46,176.49 140.89,176.62 C 141.33,176.76 141.83,176.86 142.41,176.94 C 142.98,177.01 143.63,177.05 144.34,177.06 C 145.06,177.07 145.85,177.05 146.70,177.00 C 147.56,176.95 148.49,176.86 149.48,176.75 C 150.48,176.64 151.55,176.49 152.69,176.31 C 153.83,176.14 155.15,175.89 156.31,175.69 C 157.48,175.49 158.60,175.30 159.69,175.12 C 160.77,174.95 161.81,174.78 162.81,174.62 C 163.81,174.47 164.77,174.32 165.69,174.19 C 166.60,174.05 167.48,173.93 168.31,173.81 C 169.15,173.70 169.94,173.59 170.69,173.50 C 171.44,173.41 172.15,173.32 172.81,173.25 C 173.48,173.18 174.10,173.11 174.69,173.06 C 175.27,173.01 175.80,172.96 176.31,172.94 C 176.82,172.92 177.30,172.92 177.75,172.95 C 178.20,172.98 178.61,173.03 179.00,173.11 C 179.39,173.18 179.74,173.28 180.06,173.41 C 180.39,173.53 180.68,173.67 180.94,173.84 C 181.20,174.01 181.43,174.21 181.62,174.42 C 181.82,174.64 181.99,174.88 182.12,175.14 C 182.26,175.40 182.36,175.69 182.44,176.00 C 182.51,176.31 182.50,176.69 182.56,177.00 C 182.62,177.31 182.70,177.60 182.80,177.86 C 182.89,178.12 183.01,178.36 183.14,178.58 C 183.27,178.79 183.42,178.99 183.59,179.16 C 183.76,179.33 183.95,179.47 184.16,179.59 C 184.36,179.72 184.59,179.82 184.83,179.89 C 185.07,179.97 185.33,180.02 185.61,180.05 C 185.89,180.08 186.18,180.08 186.50,180.06 C 186.82,180.04 187.18,179.98 187.50,179.94 C 187.82,179.89 188.12,179.85 188.40,179.80 C 188.68,179.76 188.95,179.71 189.20,179.66 C 189.44,179.62 189.68,179.57 189.89,179.52 C 190.11,179.46 190.30,179.41 190.48,179.36 C 190.67,179.31 190.83,179.25 190.98,179.20 C 191.12,179.14 191.25,179.08 191.37,179.02 C 191.48,178.96 191.58,178.90 191.66,178.84 C 191.74,178.78 191.79,178.74 191.84,178.66 C 191.90,178.57 191.95,178.46 191.99,178.32 C 192.04,178.18 192.07,178.02 192.10,177.84 C 192.13,177.65 192.15,177.44 192.17,177.20 C 192.19,176.97 192.20,176.71 192.20,176.42 C 192.21,176.14 192.20,175.83 192.20,175.49 C 192.19,175.16 192.17,174.80 192.15,174.41 C 192.13,174.03 192.10,173.62 192.06,173.19 C 192.03,172.75 191.97,172.25 191.94,171.81 C 191.91,171.38 191.89,170.97 191.88,170.59 C 191.88,170.20 191.88,169.84 191.90,169.51 C 191.92,169.17 191.94,168.86 191.98,168.58 C 192.02,168.29 192.08,168.03 192.14,167.80 C 192.20,167.56 192.28,167.35 192.37,167.16 C 192.45,166.98 192.55,166.82 192.66,166.68 C 192.77,166.54 192.90,166.43 193.03,166.34 C 193.17,166.26 193.33,166.18 193.47,166.16 C 193.61,166.13 193.74,166.15 193.86,166.20 C 193.98,166.26 194.10,166.35 194.20,166.48 C 194.31,166.62 194.41,166.79 194.50,167.00 C 194.59,167.21 194.67,167.46 194.75,167.75 C 194.83,168.04 194.89,168.37 194.95,168.73 C 195.01,169.10 195.07,169.51 195.11,169.95 C 195.15,170.40 195.19,170.88 195.22,171.41 C 195.25,171.93 195.24,172.57 195.28,173.09 C 195.32,173.62 195.38,174.11 195.45,174.56 C 195.53,175.02 195.62,175.43 195.73,175.81 C 195.85,176.19 195.98,176.54 196.12,176.84 C 196.27,177.15 196.44,177.42 196.62,177.66 C 196.81,177.89 197.01,178.09 197.23,178.25 C 197.46,178.41 197.70,178.54 197.95,178.62 C 198.21,178.71 198.49,178.77 198.78,178.78 C 199.08,178.80 199.42,178.76 199.72,178.72 C 200.02,178.68 200.30,178.61 200.57,178.52 C 200.84,178.44 201.10,178.33 201.34,178.20 C 201.58,178.06 201.80,177.91 202.02,177.73 C 202.23,177.56 202.43,177.36 202.61,177.14 C 202.79,176.92 202.96,176.68 203.12,176.41 C 203.27,176.15 203.41,175.86 203.54,175.55 C 203.67,175.25 203.78,174.92 203.88,174.56 C 203.97,174.21 203.99,173.79 204.12,173.44 C 204.26,173.09 204.46,172.76 204.70,172.45 C 204.95,172.15 205.25,171.87 205.61,171.61 C 205.97,171.35 206.38,171.12 206.84,170.91 C 207.31,170.70 207.83,170.51 208.41,170.34 C 208.98,170.18 209.61,170.04 210.30,169.92 C 210.98,169.80 211.72,169.71 212.52,169.64 C 213.31,169.57 214.16,169.52 215.06,169.50 C 215.97,169.48 217.02,169.51 217.94,169.50 C 218.86,169.49 219.74,169.46 220.58,169.42 C 221.42,169.38 222.22,169.33 222.98,169.27 C 223.75,169.20 224.47,169.12 225.16,169.03 C 225.84,168.94 226.49,168.84 227.09,168.72 C 227.70,168.60 228.27,168.47 228.80,168.33 C 229.33,168.18 229.82,168.03 230.27,167.86 C 230.72,167.69 231.13,167.51 231.50,167.31 C 231.87,167.12 232.15,166.92 232.50,166.69 C 232.85,166.46 233.20,166.21 233.57,165.95 C 233.94,165.68 234.32,165.39 234.71,165.09 C 235.10,164.78 235.51,164.45 235.92,164.11 C 236.34,163.76 236.76,163.40 237.20,163.02 C 237.64,162.63 238.09,162.23 238.55,161.80 C 239.02,161.38 239.49,160.94 239.98,160.48 C 240.46,160.01 240.96,159.53 241.47,159.03 C 241.98,158.53 242.51,158.01 243.03,157.47 C 243.55,156.93 244.08,156.37 244.60,155.79 C 245.13,155.21 245.65,154.61 246.18,153.99 C 246.71,153.37 247.24,152.74 247.77,152.08 C 248.30,151.42 248.83,150.74 249.36,150.05 C 249.89,149.35 250.43,148.63 250.96,147.90 C 251.50,147.16 252.03,146.41 252.57,145.63 C 253.11,144.86 253.65,144.06 254.19,143.25 C 254.73,142.44 255.31,141.54 255.81,140.75 C 256.32,139.96 256.79,139.23 257.23,138.54 C 257.66,137.85 258.06,137.21 258.43,136.62 C 258.80,136.02 259.13,135.48 259.42,134.98 C 259.72,134.49 259.98,134.04 260.20,133.64 C 260.43,133.24 260.62,132.89 260.77,132.59 C 260.93,132.28 261.05,132.03 261.13,131.82 C 261.22,131.61 261.27,131.45 261.28,131.34 C 261.30,131.23 261.26,131.22 261.22,131.16 C 261.18,131.10 261.11,131.04 261.02,130.98 C 260.94,130.92 260.83,130.86 260.70,130.80 C 260.56,130.75 260.41,130.69 260.23,130.64 C 260.06,130.59 259.86,130.54 259.64,130.48 C 259.42,130.43 259.18,130.38 258.91,130.34 C 258.65,130.29 258.36,130.24 258.05,130.20 C 257.75,130.15 257.42,130.11 257.06,130.06 C 256.71,130.02 256.26,129.98 255.94,129.94 C 255.61,129.90 255.34,129.86 255.12,129.83 C 254.91,129.79 254.74,129.76 254.62,129.73 C 254.51,129.71 254.45,129.68 254.44,129.66 C 254.43,129.63 254.47,129.61 254.56,129.59 C 254.66,129.58 254.80,129.56 255.00,129.55 C 255.20,129.53 255.45,129.52 255.75,129.52 C 256.05,129.51 256.41,129.50 256.81,129.50 C 257.22,129.50 257.76,129.51 258.19,129.50 C 258.62,129.49 259.03,129.48 259.41,129.47 C 259.79,129.45 260.14,129.43 260.47,129.41 C 260.80,129.38 261.10,129.35 261.38,129.31 C 261.65,129.28 261.90,129.23 262.12,129.19 C 262.35,129.14 262.55,129.09 262.72,129.03 C 262.89,128.97 263.04,128.91 263.16,128.84 C 263.28,128.78 263.37,128.70 263.44,128.62 C 263.51,128.55 263.46,128.45 263.56,128.38 C 263.66,128.30 263.83,128.22 264.05,128.16 C 264.27,128.09 264.55,128.03 264.89,127.97 C 265.23,127.91 265.63,127.86 266.09,127.81 C 266.55,127.77 267.08,127.72 267.66,127.69 C 268.24,127.65 268.88,127.62 269.58,127.59 C 270.28,127.57 271.04,127.55 271.86,127.53 C 272.68,127.52 273.56,127.51 274.50,127.50 C 275.44,127.49 276.53,127.49 277.50,127.50 C 278.47,127.51 279.40,127.52 280.30,127.53 C 281.20,127.55 282.06,127.57 282.89,127.59 C 283.72,127.62 284.52,127.65 285.28,127.69 C 286.04,127.72 286.77,127.77 287.47,127.81 C 288.16,127.86 288.83,127.91 289.45,127.97 C 290.08,128.03 290.67,128.09 291.23,128.16 C 291.79,128.22 292.32,128.30 292.81,128.38 C 293.30,128.45 293.75,128.53 294.19,128.62 C 294.63,128.72 295.05,128.83 295.46,128.95 C 295.87,129.06 296.26,129.19 296.63,129.34 C 297.01,129.48 297.36,129.63 297.70,129.80 C 298.04,129.96 298.37,130.14 298.67,130.33 C 298.98,130.52 299.27,130.72 299.54,130.93 C 299.81,131.14 300.07,131.37 300.30,131.60 C 300.54,131.84 300.76,132.08 300.97,132.34 C 301.17,132.60 301.31,132.79 301.53,133.16 C 301.75,133.52 302.00,133.98 302.29,134.52 C 302.57,135.07 302.89,135.71 303.24,136.45 C 303.59,137.18 303.98,138.00 304.39,138.92 C 304.81,139.84 305.25,140.85 305.73,141.95 C 306.21,143.06 306.73,144.25 307.27,145.54 C 307.82,146.83 308.40,148.21 309.01,149.68 C 309.62,151.15 310.26,152.72 310.94,154.38 C 311.61,156.03 312.38,157.96 313.06,159.62 C 313.74,161.29 314.40,162.88 315.03,164.38 C 315.66,165.88 316.27,167.29 316.84,168.62 C 317.42,169.96 317.97,171.21 318.50,172.38 C 319.03,173.54 319.53,174.62 320.00,175.62 C 320.47,176.62 320.92,177.54 321.34,178.38 C 321.77,179.21 322.16,179.96 322.53,180.62 C 322.90,181.29 323.24,181.88 323.56,182.38 C 323.88,182.88 324.16,183.19 324.44,183.62 C 324.71,184.06 324.97,184.51 325.22,184.97 C 325.46,185.43 325.69,185.91 325.91,186.41 C 326.12,186.90 326.32,187.41 326.50,187.94 C 326.68,188.46 326.85,189.01 327.00,189.56 C 327.15,190.12 327.29,190.69 327.41,191.28 C 327.53,191.87 327.63,192.47 327.72,193.09 C 327.81,193.71 327.88,194.35 327.94,195.00 C 327.99,195.65 328.03,196.36 328.06,197.00 C 328.10,197.64 328.13,198.26 328.16,198.86 C 328.18,199.46 328.20,200.03 328.22,200.58 C 328.23,201.13 328.24,201.65 328.25,202.16 C 328.26,202.66 328.26,203.14 328.25,203.59 C 328.24,204.05 328.23,204.48 328.22,204.89 C 328.20,205.30 328.18,205.68 328.16,206.05 C 328.13,206.41 328.10,206.75 328.06,207.06 C 328.03,207.38 327.99,207.64 327.94,207.94 C 327.88,208.24 327.81,208.54 327.72,208.86 C 327.63,209.17 327.53,209.50 327.41,209.83 C 327.29,210.16 327.15,210.50 327.00,210.84 C 326.85,211.19 326.68,211.54 326.50,211.91 C 326.32,212.27 326.12,212.64 325.91,213.02 C 325.69,213.39 325.46,213.78 325.22,214.17 C 324.97,214.57 324.71,214.97 324.44,215.38 C 324.16,215.78 323.89,216.11 323.56,216.62 C 323.24,217.14 322.89,217.74 322.50,218.44 C 322.11,219.14 321.70,219.93 321.25,220.81 C 320.80,221.70 320.32,222.68 319.81,223.75 C 319.30,224.82 318.76,225.99 318.19,227.25 C 317.61,228.51 317.01,229.86 316.38,231.31 C 315.74,232.76 315.07,234.30 314.38,235.94 C 313.68,237.57 312.95,239.30 312.19,241.12 C 311.43,242.95 310.56,245.07 309.81,246.88 C 309.06,248.68 308.36,250.37 307.70,251.95 C 307.03,253.52 306.41,254.99 305.84,256.34 C 305.26,257.69 304.73,258.92 304.23,260.05 C 303.74,261.17 303.30,262.18 302.89,263.08 C 302.49,263.98 302.12,264.76 301.80,265.43 C 301.49,266.10 301.21,266.66 300.98,267.10 C 300.74,267.55 300.55,267.88 300.41,268.09 C 300.26,268.31 300.22,268.30 300.09,268.41 C 299.97,268.51 299.82,268.61 299.65,268.71 C 299.48,268.81 299.29,268.91 299.07,269.01 C 298.86,269.11 298.62,269.20 298.36,269.30 C 298.10,269.39 297.82,269.49 297.52,269.58 C 297.21,269.67 296.89,269.76 296.54,269.85 C 296.19,269.94 295.82,270.03 295.43,270.12 C 295.04,270.20 294.62,270.29 294.19,270.38 C 293.75,270.46 293.30,270.55 292.81,270.62 C 292.32,270.70 291.79,270.78 291.23,270.84 C 290.67,270.91 290.08,270.97 289.45,271.03 C 288.83,271.09 288.16,271.14 287.47,271.19 C 286.77,271.23 286.04,271.28 285.28,271.31 C 284.52,271.35 283.72,271.38 282.89,271.41 C 282.06,271.43 281.20,271.45 280.30,271.47 C 279.40,271.48 278.47,271.49 277.50,271.50 Z" />
    </clipPath>
  </defs>
  <path d="M 277.50,271.50 C 276.53,271.51 275.44,271.51 274.50,271.50 C 273.56,271.49 272.68,271.48 271.86,271.47 C 271.04,271.45 270.28,271.43 269.58,271.41 C 268.88,271.38 268.24,271.35 267.66,271.31 C 267.08,271.28 266.55,271.23 266.09,271.19 C 265.63,271.14 265.23,271.09 264.89,271.03 C 264.55,270.97 264.27,270.91 264.05,270.84 C 263.83,270.78 263.66,270.70 263.56,270.62 C 263.46,270.55 263.51,270.45 263.44,270.38 C 263.37,270.30 263.28,270.22 263.16,270.16 C 263.04,270.09 262.89,270.03 262.72,269.97 C 262.55,269.91 262.35,269.86 262.12,269.81 C 261.90,269.77 261.65,269.72 261.38,269.69 C 261.10,269.65 260.80,269.62 260.47,269.59 C 260.14,269.57 259.79,269.55 259.41,269.53 C 259.03,269.52 258.62,269.51 258.19,269.50 C 257.76,269.49 257.22,269.50 256.81,269.50 C 256.41,269.50 256.05,269.49 255.75,269.48 C 255.45,269.48 255.20,269.47 255.00,269.45 C 254.80,269.44 254.66,269.42 254.56,269.41 C 254.47,269.39 254.43,269.37 254.44,269.34 C 254.45,269.32 254.51,269.29 254.62,269.27 C 254.74,269.24 254.91,269.21 255.12,269.17 C 255.34,269.14 255.61,269.10 255.94,269.06 C 256.26,269.02 256.71,268.99 257.06,268.94 C 257.41,268.88 257.73,268.82 258.02,268.74 C 258.32,268.67 258.58,268.58 258.82,268.48 C 259.06,268.38 259.27,268.26 259.45,268.14 C 259.64,268.02 259.79,267.88 259.92,267.73 C 260.05,267.59 260.15,267.43 260.23,267.26 C 260.30,267.09 260.35,266.90 260.37,266.71 C 260.39,266.52 260.38,266.31 260.34,266.09 C 260.31,265.88 260.24,265.66 260.16,265.41 C 260.07,265.15 259.96,264.87 259.82,264.55 C 259.68,264.24 259.52,263.90 259.34,263.54 C 259.15,263.17 258.94,262.78 258.70,262.36 C 258.47,261.94 258.21,261.49 257.92,261.02 C 257.64,260.54 257.33,260.04 256.99,259.51 C 256.66,258.98 256.30,258.42 255.91,257.84 C 255.53,257.25 255.12,256.64 254.69,256.00 C 254.25,255.36 253.77,254.66 253.31,254.00 C 252.85,253.34 252.38,252.69 251.91,252.05 C 251.44,251.42 250.97,250.79 250.49,250.16 C 250.01,249.54 249.53,248.93 249.05,248.33 C 248.56,247.73 248.07,247.13 247.58,246.55 C 247.08,245.96 246.59,245.39 246.09,244.82 C 245.58,244.25 245.08,243.70 244.57,243.15 C 244.06,242.60 243.55,242.06 243.03,241.53 C 242.51,241.00 241.98,240.47 241.47,239.97 C 240.96,239.47 240.46,238.99 239.98,238.52 C 239.49,238.06 239.02,237.62 238.55,237.20 C 238.09,236.77 237.64,236.37 237.20,235.98 C 236.76,235.60 236.34,235.24 235.92,234.89 C 235.51,234.55 235.10,234.22 234.71,233.91 C 234.32,233.61 233.94,233.32 233.57,233.05 C 233.20,232.79 232.85,232.54 232.50,232.31 C 232.15,232.08 231.88,231.88 231.50,231.69 C 231.12,231.49 230.69,231.31 230.22,231.14 C 229.74,230.97 229.22,230.82 228.66,230.67 C 228.09,230.53 227.47,230.40 226.81,230.28 C 226.15,230.16 225.44,230.06 224.69,229.97 C 223.93,229.88 223.13,229.80 222.28,229.73 C 221.43,229.67 220.54,229.62 219.59,229.58 C 218.65,229.54 217.66,229.51 216.62,229.50 C 215.59,229.49 214.47,229.51 213.38,229.50 C 212.28,229.49 211.18,229.47 210.08,229.44 C 208.97,229.41 207.86,229.36 206.73,229.31 C 205.61,229.26 204.48,229.20 203.34,229.12 C 202.21,229.05 201.06,228.97 199.91,228.88 C 198.75,228.78 197.59,228.68 196.42,228.56 C 195.25,228.45 194.08,228.32 192.89,228.19 C 191.71,228.05 190.51,227.91 189.31,227.75 C 188.11,227.59 186.84,227.40 185.69,227.25 C 184.54,227.10 183.44,226.96 182.41,226.83 C 181.37,226.70 180.39,226.59 179.47,226.48 C 178.55,226.38 177.68,226.29 176.88,226.22 C 176.07,226.14 175.32,226.08 174.62,226.03 C 173.93,225.98 173.30,225.95 172.72,225.92 C 172.14,225.90 171.62,225.89 171.16,225.89 C 170.69,225.89 170.29,225.91 169.94,225.94 C 169.59,225.97 169.37,226.03 169.06,226.06 C 168.76,226.10 168.44,226.12 168.11,226.14 C 167.78,226.16 167.43,226.17 167.08,226.17 C 166.72,226.17 166.35,226.17 165.97,226.16 C 165.59,226.14 165.19,226.12 164.78,226.09 C 164.37,226.07 163.95,226.03 163.52,225.98 C 163.08,225.94 162.63,225.89 162.17,225.83 C 161.71,225.77 161.24,225.70 160.75,225.62 C 160.26,225.55 159.72,225.46 159.25,225.38 C 158.78,225.29 158.34,225.21 157.92,225.12 C 157.51,225.04 157.12,224.96 156.77,224.88 C 156.41,224.79 156.08,224.71 155.78,224.62 C 155.48,224.54 155.21,224.46 154.97,224.38 C 154.73,224.29 154.51,224.21 154.33,224.12 C 154.14,224.04 153.99,223.96 153.86,223.88 C 153.73,223.79 153.63,223.71 153.56,223.62 C 153.49,223.54 153.50,223.46 153.44,223.38 C 153.38,223.29 153.29,223.21 153.19,223.12 C 153.08,223.04 152.96,222.96 152.81,222.88 C 152.67,222.79 152.50,222.71 152.31,222.62 C 152.12,222.54 151.92,222.46 151.69,222.38 C 151.46,222.29 151.21,222.21 150.94,222.12 C 150.67,222.04 150.38,221.96 150.06,221.88 C 149.75,221.79 149.42,221.71 149.06,221.62 C 148.71,221.54 148.30,221.45 147.94,221.38 C 147.57,221.30 147.22,221.23 146.88,221.16 C 146.54,221.10 146.21,221.04 145.90,220.99 C 145.58,220.94 145.28,220.90 144.98,220.86 C 144.69,220.82 144.41,220.79 144.14,220.77 C 143.87,220.74 143.61,220.72 143.37,220.71 C 143.12,220.70 142.89,220.69 142.66,220.70 C 142.44,220.70 142.23,220.70 142.03,220.72 C 141.83,220.73 141.65,220.74 141.47,220.78 C 141.29,220.82 141.12,220.87 140.95,220.94 C 140.79,221.01 140.63,221.09 140.48,221.19 C 140.34,221.29 140.20,221.40 140.06,221.53 C 139.93,221.66 139.80,221.81 139.69,221.97 C 139.57,222.13 139.46,222.31 139.36,222.50 C 139.26,222.69 139.16,222.90 139.08,223.12 C 138.99,223.35 138.91,223.59 138.84,223.84 C 138.77,224.10 138.73,224.40 138.66,224.66 C 138.58,224.91 138.50,225.15 138.41,225.37 C 138.32,225.59 138.23,225.79 138.12,225.98 C 138.01,226.16 137.89,226.33 137.77,226.48 C 137.64,226.64 137.50,226.77 137.36,226.89 C 137.21,227.01 137.06,227.11 136.90,227.20 C 136.74,227.28 136.56,227.35 136.38,227.40 C 136.20,227.45 136.01,227.48 135.81,227.50 C 135.61,227.52 135.39,227.50 135.19,227.50 C 134.98,227.50 134.77,227.49 134.57,227.48 C 134.37,227.46 134.16,227.45 133.96,227.43 C 133.76,227.41 133.56,227.39 133.36,227.36 C 133.16,227.33 132.96,227.30 132.77,227.27 C 132.57,227.23 132.37,227.19 132.18,227.15 C 131.99,227.11 131.79,227.06 131.60,227.01 C 131.41,226.96 131.22,226.90 131.03,226.84 C 130.84,226.79 130.64,226.72 130.47,226.66 C 130.30,226.60 130.15,226.54 130.02,226.48 C 129.89,226.42 129.79,226.36 129.70,226.30 C 129.61,226.25 129.54,226.19 129.48,226.14 C 129.43,226.09 129.40,226.04 129.39,225.98 C 129.38,225.93 129.39,225.88 129.41,225.84 C 129.44,225.79 129.49,225.74 129.55,225.70 C 129.62,225.65 129.71,225.61 129.81,225.56 C 129.92,225.52 130.07,225.49 130.19,225.44 C 130.30,225.39 130.41,225.33 130.52,225.27 C 130.62,225.20 130.71,225.13 130.80,225.05 C 130.88,224.97 130.96,224.88 131.03,224.78 C 131.10,224.68 131.16,224.58 131.22,224.47 C 131.27,224.36 131.32,224.24 131.36,224.11 C 131.40,223.98 131.43,223.85 131.45,223.70 C 131.48,223.56 131.49,223.41 131.50,223.25 C 131.51,223.09 131.51,222.92 131.50,222.75 C 131.49,222.58 131.48,222.42 131.46,222.26 C 131.44,222.10 131.42,221.93 131.38,221.77 C 131.35,221.61 131.31,221.45 131.27,221.30 C 131.22,221.14 131.17,220.98 131.11,220.83 C 131.05,220.67 130.99,220.52 130.91,220.37 C 130.84,220.21 130.76,220.06 130.68,219.91 C 130.60,219.76 130.50,219.62 130.41,219.47 C 130.31,219.32 130.24,219.18 130.09,219.03 C 129.95,218.89 129.76,218.74 129.52,218.60 C 129.29,218.46 129.01,218.32 128.70,218.18 C 128.38,218.04 128.01,217.90 127.61,217.77 C 127.20,217.63 126.76,217.49 126.27,217.36 C 125.77,217.23 125.24,217.09 124.66,216.96 C 124.09,216.83 123.47,216.70 122.80,216.57 C 122.14,216.44 121.44,216.31 120.69,216.19 C 119.94,216.06 119.10,215.95 118.31,215.81 C 117.52,215.67 116.73,215.52 115.94,215.36 C 115.15,215.20 114.35,215.02 113.56,214.83 C 112.77,214.64 111.98,214.43 111.19,214.22 C 110.40,214.00 109.60,213.77 108.81,213.53 C 108.02,213.29 107.23,213.03 106.44,212.77 C 105.65,212.50 104.85,212.22 104.06,211.92 C 103.27,211.63 102.48,211.32 101.69,211.00 C 100.90,210.68 100.07,210.32 99.31,210.00 C 98.56,209.68 97.84,209.36 97.16,209.05 C 96.49,208.75 95.85,208.45 95.24,208.16 C 94.64,207.88 94.07,207.60 93.55,207.33 C 93.02,207.06 92.53,206.80 92.08,206.55 C 91.63,206.30 91.21,206.05 90.84,205.82 C 90.46,205.59 90.12,205.36 89.82,205.15 C 89.52,204.93 89.26,204.73 89.03,204.53 C 88.81,204.33 88.64,204.16 88.47,203.97 C 88.29,203.78 88.13,203.59 87.98,203.40 C 87.82,203.21 87.68,203.01 87.55,202.82 C 87.43,202.63 87.31,202.43 87.20,202.23 C 87.10,202.04 87.00,201.84 86.92,201.64 C 86.84,201.44 86.77,201.24 86.71,201.04 C 86.65,200.84 86.61,200.63 86.57,200.43 C 86.54,200.23 86.51,200.02 86.50,199.81 C 86.49,199.61 86.49,199.39 86.50,199.19 C 86.51,198.98 86.54,198.77 86.57,198.57 C 86.61,198.37 86.65,198.16 86.71,197.96 C 86.77,197.76 86.84,197.56 86.92,197.36 C 87.00,197.16 87.10,196.96 87.20,196.77 C 87.31,196.57 87.43,196.37 87.55,196.18 C 87.68,195.99 87.82,195.79 87.98,195.60 C 88.13,195.41 88.29,195.22 88.47,195.03 C 88.64,194.84 88.81,194.67 89.03,194.47 C 89.26,194.27 89.52,194.07 89.82,193.85 C 90.12,193.64 90.46,193.41 90.84,193.18 C 91.21,192.95 91.63,192.70 92.08,192.45 C 92.53,192.20 93.02,191.94 93.55,191.67 C 94.07,191.40 94.64,191.12 95.24,190.84 C 95.85,190.55 96.49,190.25 97.16,189.95 C 97.84,189.64 98.56,189.32 99.31,189.00 C 100.07,188.68 100.90,188.32 101.69,188.00 C 102.48,187.68 103.27,187.37 104.06,187.08 C 104.85,186.78 105.65,186.50 106.44,186.23 C 107.23,185.97 108.02,185.71 108.81,185.47 C 109.60,185.23 110.40,185.00 111.19,184.78 C 111.98,184.57 112.77,184.36 113.56,184.17 C 114.35,183.98 115.15,183.80 115.94,183.64 C 116.73,183.48 117.52,183.33 118.31,183.19 C 119.10,183.05 119.94,182.94 120.69,182.81 C 121.44,182.69 122.14,182.56 122.80,182.43 C 123.47,182.30 124.09,182.17 124.66,182.04 C 125.24,181.91 125.77,181.77 126.27,181.64 C 126.76,181.51 127.20,181.37 127.61,181.23 C 128.01,181.10 128.38,180.96 128.70,180.82 C 129.01,180.68 129.29,180.54 129.52,180.40 C 129.76,180.26 129.95,180.11 130.09,179.97 C 130.24,179.82 130.31,179.68 130.41,179.53 C 130.50,179.38 130.60,179.24 130.68,179.09 C 130.76,178.94 130.84,178.79 130.91,178.63 C 130.99,178.48 131.05,178.33 131.11,178.17 C 131.17,178.02 131.22,177.86 131.27,177.70 C 131.31,177.55 131.35,177.39 131.38,177.23 C 131.42,177.07 131.44,176.90 131.46,176.74 C 131.48,176.58 131.49,176.42 131.50,176.25 C 131.51,176.08 131.51,175.91 131.50,175.75 C 131.49,175.59 131.48,175.44 131.46,175.29 C 131.44,175.14 131.42,175.00 131.38,174.87 C 131.35,174.73 131.31,174.61 131.27,174.48 C 131.22,174.36 131.17,174.25 131.11,174.14 C 131.05,174.03 130.99,173.93 130.91,173.84 C 130.84,173.74 130.76,173.65 130.68,173.57 C 130.60,173.49 130.50,173.41 130.41,173.34 C 130.31,173.27 130.17,173.22 130.09,173.16 C 130.02,173.10 129.98,173.04 129.96,172.98 C 129.95,172.92 129.96,172.86 130.01,172.80 C 130.05,172.75 130.13,172.69 130.23,172.64 C 130.34,172.59 130.48,172.54 130.64,172.48 C 130.81,172.43 131.00,172.38 131.23,172.34 C 131.45,172.29 131.71,172.24 131.99,172.20 C 132.28,172.15 132.59,172.11 132.94,172.06 C 133.28,172.02 133.71,171.96 134.06,171.94 C 134.42,171.92 134.76,171.92 135.08,171.94 C 135.40,171.96 135.70,172.00 135.98,172.06 C 136.27,172.12 136.53,172.21 136.78,172.31 C 137.03,172.42 137.26,172.54 137.47,172.69 C 137.68,172.83 137.87,173.00 138.05,173.19 C 138.22,173.38 138.38,173.58 138.52,173.81 C 138.65,174.04 138.77,174.29 138.88,174.56 C 138.98,174.83 138.97,175.18 139.12,175.44 C 139.28,175.70 139.50,175.93 139.80,176.12 C 140.09,176.32 140.46,176.49 140.89,176.62 C 141.33,176.76 141.83,176.86 142.41,176.94 C 142.98,177.01 143.63,177.05 144.34,177.06 C 145.06,177.07 145.85,177.05 146.70,177.00 C 147.56,176.95 148.49,176.86 149.48,176.75 C 150.48,176.64 151.55,176.49 152.69,176.31 C 153.83,176.14 155.15,175.89 156.31,175.69 C 157.48,175.49 158.60,175.30 159.69,175.12 C 160.77,174.95 161.81,174.78 162.81,174.62 C 163.81,174.47 164.77,174.32 165.69,174.19 C 166.60,174.05 167.48,173.93 168.31,173.81 C 169.15,173.70 169.94,173.59 170.69,173.50 C 171.44,173.41 172.15,173.32 172.81,173.25 C 173.48,173.18 174.10,173.11 174.69,173.06 C 175.27,173.01 175.80,172.96 176.31,172.94 C 176.82,172.92 177.30,172.92 177.75,172.95 C 178.20,172.98 178.61,173.03 179.00,173.11 C 179.39,173.18 179.74,173.28 180.06,173.41 C 180.39,173.53 180.68,173.67 180.94,173.84 C 181.20,174.01 181.43,174.21 181.62,174.42 C 181.82,174.64 181.99,174.88 182.12,175.14 C 182.26,175.40 182.36,175.69 182.44,176.00 C 182.51,176.31 182.50,176.69 182.56,177.00 C 182.62,177.31 182.70,177.60 182.80,177.86 C 182.89,178.12 183.01,178.36 183.14,178.58 C 183.27,178.79 183.42,178.99 183.59,179.16 C 183.76,179.33 183.95,179.47 184.16,179.59 C 184.36,179.72 184.59,179.82 184.83,179.89 C 185.07,179.97 185.33,180.02 185.61,180.05 C 185.89,180.08 186.18,180.08 186.50,180.06 C 186.82,180.04 187.18,179.98 187.50,179.94 C 187.82,179.89 188.12,179.85 188.40,179.80 C 188.68,179.76 188.95,179.71 189.20,179.66 C 189.44,179.62 189.68,179.57 189.89,179.52 C 190.11,179.46 190.30,179.41 190.48,179.36 C 190.67,179.31 190.83,179.25 190.98,179.20 C 191.12,179.14 191.25,179.08 191.37,179.02 C 191.48,178.96 191.58,178.90 191.66,178.84 C 191.74,178.78 191.79,178.74 191.84,178.66 C 191.90,178.57 191.95,178.46 191.99,178.32 C 192.04,178.18 192.07,178.02 192.10,177.84 C 192.13,177.65 192.15,177.44 192.17,177.20 C 192.19,176.97 192.20,176.71 192.20,176.42 C 192.21,176.14 192.20,175.83 192.20,175.49 C 192.19,175.16 192.17,174.80 192.15,174.41 C 192.13,174.03 192.10,173.62 192.06,173.19 C 192.03,172.75 191.97,172.25 191.94,171.81 C 191.91,171.38 191.89,170.97 191.88,170.59 C 191.88,170.20 191.88,169.84 191.90,169.51 C 191.92,169.17 191.94,168.86 191.98,168.58 C 192.02,168.29 192.08,168.03 192.14,167.80 C 192.20,167.56 192.28,167.35 192.37,167.16 C 192.45,166.98 192.55,166.82 192.66,166.68 C 192.77,166.54 192.90,166.43 193.03,166.34 C 193.17,166.26 193.33,166.18 193.47,166.16 C 193.61,166.13 193.74,166.15 193.86,166.20 C 193.98,166.26 194.10,166.35 194.20,166.48 C 194.31,166.62 194.41,166.79 194.50,167.00 C 194.59,167.21 194.67,167.46 194.75,167.75 C 194.83,168.04 194.89,168.37 194.95,168.73 C 195.01,169.10 195.07,169.51 195.11,169.95 C 195.15,170.40 195.19,170.88 195.22,171.41 C 195.25,171.93 195.24,172.57 195.28,173.09 C 195.32,173.62 195.38,174.11 195.45,174.56 C 195.53,175.02 195.62,175.43 195.73,175.81 C 195.85,176.19 195.98,176.54 196.12,176.84 C 196.27,177.15 196.44,177.42 196.62,177.66 C 196.81,177.89 197.01,178.09 197.23,178.25 C 197.46,178.41 197.70,178.54 197.95,178.62 C 198.21,178.71 198.49,178.77 198.78,178.78 C 199.08,178.80 199.42,178.76 199.72,178.72 C 200.02,178.68 200.30,178.61 200.57,178.52 C 200.84,178.44 201.10,178.33 201.34,178.20 C 201.58,178.06 201.80,177.91 202.02,177.73 C 202.23,177.56 202.43,177.36 202.61,177.14 C 202.79,176.92 202.96,176.68 203.12,176.41 C 203.27,176.15 203.41,175.86 203.54,175.55 C 203.67,175.25 203.78,174.92 203.88,174.56 C 203.97,174.21 203.99,173.79 204.12,173.44 C 204.26,173.09 204.46,172.76 204.70,172.45 C 204.95,172.15 205.25,171.87 205.61,171.61 C 205.97,171.35 206.38,171.12 206.84,170.91 C 207.31,170.70 207.83,170.51 208.41,170.34 C 208.98,170.18 209.61,170.04 210.30,169.92 C 210.98,169.80 211.72,169.71 212.52,169.64 C 213.31,169.57 214.16,169.52 215.06,169.50 C 215.97,169.48 217.02,169.51 217.94,169.50 C 218.86,169.49 219.74,169.46 220.58,169.42 C 221.42,169.38 222.22,169.33 222.98,169.27 C 223.75,169.20 224.47,169.12 225.16,169.03 C 225.84,168.94 226.49,168.84 227.09,168.72 C 227.70,168.60 228.27,168.47 228.80,168.33 C 229.33,168.18 229.82,168.03 230.27,167.86 C 230.72,167.69 231.13,167.51 231.50,167.31 C 231.87,167.12 232.15,166.92 232.50,166.69 C 232.85,166.46 233.20,166.21 233.57,165.95 C 233.94,165.68 234.32,165.39 234.71,165.09 C 235.10,164.78 235.51,164.45 235.92,164.11 C 236.34,163.76 236.76,163.40 237.20,163.02 C 237.64,162.63 238.09,162.23 238.55,161.80 C 239.02,161.38 239.49,160.94 239.98,160.48 C 240.46,160.01 240.96,159.53 241.47,159.03 C 241.98,158.53 242.51,158.01 243.03,157.47 C 243.55,156.93 244.08,156.37 244.60,155.79 C 245.13,155.21 245.65,154.61 246.18,153.99 C 246.71,153.37 247.24,152.74 247.77,152.08 C 248.30,151.42 248.83,150.74 249.36,150.05 C 249.89,149.35 250.43,148.63 250.96,147.90 C 251.50,147.16 252.03,146.41 252.57,145.63 C 253.11,144.86 253.65,144.06 254.19,143.25 C 254.73,142.44 255.31,141.54 255.81,140.75 C 256.32,139.96 256.79,139.23 257.23,138.54 C 257.66,137.85 258.06,137.21 258.43,136.62 C 258.80,136.02 259.13,135.48 259.42,134.98 C 259.72,134.49 259.98,134.04 260.20,133.64 C 260.43,133.24 260.62,132.89 260.77,132.59 C 260.93,132.28 261.05,132.03 261.13,131.82 C 261.22,131.61 261.27,131.45 261.28,131.34 C 261.30,131.23 261.26,131.22 261.22,131.16 C 261.18,131.10 261.11,131.04 261.02,130.98 C 260.94,130.92 260.83,130.86 260.70,130.80 C 260.56,130.75 260.41,130.69 260.23,130.64 C 260.06,130.59 259.86,130.54 259.64,130.48 C 259.42,130.43 259.18,130.38 258.91,130.34 C 258.65,130.29 258.36,130.24 258.05,130.20 C 257.75,130.15 257.42,130.11 257.06,130.06 C 256.71,130.02 256.26,129.98 255.94,129.94 C 255.61,129.90 255.34,129.86 255.12,129.83 C 254.91,129.79 254.74,129.76 254.62,129.73 C 254.51,129.71 254.45,129.68 254.44,129.66 C 254.43,129.63 254.47,129.61 254.56,129.59 C 254.66,129.58 254.80,129.56 255.00,129.55 C 255.20,129.53 255.45,129.52 255.75,129.52 C 256.05,129.51 256.41,129.50 256.81,129.50 C 257.22,129.50 257.76,129.51 258.19,129.50 C 258.62,129.49 259.03,129.48 259.41,129.47 C 259.79,129.45 260.14,129.43 260.47,129.41 C 260.80,129.38 261.10,129.35 261.38,129.31 C 261.65,129.28 261.90,129.23 262.12,129.19 C 262.35,129.14 262.55,129.09 262.72,129.03 C 262.89,128.97 263.04,128.91 263.16,128.84 C 263.28,128.78 263.37,128.70 263.44,128.62 C 263.51,128.55 263.46,128.45 263.56,128.38 C 263.66,128.30 263.83,128.22 264.05,128.16 C 264.27,128.09 264.55,128.03 264.89,127.97 C 265.23,127.91 265.63,127.86 266.09,127.81 C 266.55,127.77 267.08,127.72 267.66,127.69 C 268.24,127.65 268.88,127.62 269.58,127.59 C 270.28,127.57 271.04,127.55 271.86,127.53 C 272.68,127.52 273.56,127.51 274.50,127.50 C 275.44,127.49 276.53,127.49 277.50,127.50 C 278.47,127.51 279.40,127.52 280.30,127.53 C 281.20,127.55 282.06,127.57 282.89,127.59 C 283.72,127.62 284.52,127.65 285.28,127.69 C 286.04,127.72 286.77,127.77 287.47,127.81 C 288.16,127.86 288.83,127.91 289.45,127.97 C 290.08,128.03 290.67,128.09 291.23,128.16 C 291.79,128.22 292.32,128.30 292.81,128.38 C 293.30,128.45 293.75,128.53 294.19,128.62 C 294.63,128.72 295.05,128.83 295.46,128.95 C 295.87,129.06 296.26,129.19 296.63,129.34 C 297.01,129.48 297.36,129.63 297.70,129.80 C 298.04,129.96 298.37,130.14 298.67,130.33 C 298.98,130.52 299.27,130.72 299.54,130.93 C 299.81,131.14 300.07,131.37 300.30,131.60 C 300.54,131.84 300.76,132.08 300.97,132.34 C 301.17,132.60 301.31,132.79 301.53,133.16 C 301.75,133.52 302.00,133.98 302.29,134.52 C 302.57,135.07 302.89,135.71 303.24,136.45 C 303.59,137.18 303.98,138.00 304.39,138.92 C 304.81,139.84 305.25,140.85 305.73,141.95 C 306.21,143.06 306.73,144.25 307.27,145.54 C 307.82,146.83 308.40,148.21 309.01,149.68 C 309.62,151.15 310.26,152.72 310.94,154.38 C 311.61,156.03 312.38,157.96 313.06,159.62 C 313.74,161.29 314.40,162.88 315.03,164.38 C 315.66,165.88 316.27,167.29 316.84,168.62 C 317.42,169.96 317.97,171.21 318.50,172.38 C 319.03,173.54 319.53,174.62 320.00,175.62 C 320.47,176.62 320.92,177.54 321.34,178.38 C 321.77,179.21 322.16,179.96 322.53,180.62 C 322.90,181.29 323.24,181.88 323.56,182.38 C 323.88,182.88 324.16,183.19 324.44,183.62 C 324.71,184.06 324.97,184.51 325.22,184.97 C 325.46,185.43 325.69,185.91 325.91,186.41 C 326.12,186.90 326.32,187.41 326.50,187.94 C 326.68,188.46 326.85,189.01 327.00,189.56 C 327.15,190.12 327.29,190.69 327.41,191.28 C 327.53,191.87 327.63,192.47 327.72,193.09 C 327.81,193.71 327.88,194.35 327.94,195.00 C 327.99,195.65 328.03,196.36 328.06,197.00 C 328.10,197.64 328.13,198.26 328.16,198.86 C 328.18,199.46 328.20,200.03 328.22,200.58 C 328.23,201.13 328.24,201.65 328.25,202.16 C 328.26,202.66 328.26,203.14 328.25,203.59 C 328.24,204.05 328.23,204.48 328.22,204.89 C 328.20,205.30 328.18,205.68 328.16,206.05 C 328.13,206.41 328.10,206.75 328.06,207.06 C 328.03,207.38 327.99,207.64 327.94,207.94 C 327.88,208.24 327.81,208.54 327.72,208.86 C 327.63,209.17 327.53,209.50 327.41,209.83 C 327.29,210.16 327.15,210.50 327.00,210.84 C 326.85,211.19 326.68,211.54 326.50,211.91 C 326.32,212.27 326.12,212.64 325.91,213.02 C 325.69,213.39 325.46,213.78 325.22,214.17 C 324.97,214.57 324.71,214.97 324.44,215.38 C 324.16,215.78 323.89,216.11 323.56,216.62 C 323.24,217.14 322.89,217.74 322.50,218.44 C 322.11,219.14 321.70,219.93 321.25,220.81 C 320.80,221.70 320.32,222.68 319.81,223.75 C 319.30,224.82 318.76,225.99 318.19,227.25 C 317.61,228.51 317.01,229.86 316.38,231.31 C 315.74,232.76 315.07,234.30 314.38,235.94 C 313.68,237.57 312.95,239.30 312.19,241.12 C 311.43,242.95 310.56,245.07 309.81,246.88 C 309.06,248.68 308.36,250.37 307.70,251.95 C 307.03,253.52 306.41,254.99 305.84,256.34 C 305.26,257.69 304.73,258.92 304.23,260.05 C 303.74,261.17 303.30,262.18 302.89,263.08 C 302.49,263.98 302.12,264.76 301.80,265.43 C 301.49,266.10 301.21,266.66 300.98,267.10 C 300.74,267.55 300.55,267.88 300.41,268.09 C 300.26,268.31 300.22,268.30 300.09,268.41 C 299.97,268.51 299.82,268.61 299.65,268.71 C 299.48,268.81 299.29,268.91 299.07,269.01 C 298.86,269.11 298.62,269.20 298.36,269.30 C 298.10,269.39 297.82,269.49 297.52,269.58 C 297.21,269.67 296.89,269.76 296.54,269.85 C 296.19,269.94 295.82,270.03 295.43,270.12 C 295.04,270.20 294.62,270.29 294.19,270.38 C 293.75,270.46 293.30,270.55 292.81,270.62 C 292.32,270.70 291.79,270.78 291.23,270.84 C 290.67,270.91 290.08,270.97 289.45,271.03 C 288.83,271.09 288.16,271.14 287.47,271.19 C 286.77,271.23 286.04,271.28 285.28,271.31 C 284.52,271.35 283.72,271.38 282.89,271.41 C 282.06,271.43 281.20,271.45 280.30,271.47 C 279.40,271.48 278.47,271.49 277.50,271.50 Z" stroke="none" fill="currentColor" opacity="0.11" />
  <path d="M229.92,190.75L218.75,190.75 M138.39,209.88L133.91,208.09 M143.67,212.64L163.91,215.14 M163.91,184.82L143.67,187.31 M210.44,219.77L177.59,216.13 M182.98,180.94L204.63,179.57 M179.36,210.71L187.25,205.71 M187.25,194.24L179.36,189.25 M173.19,205.34L165.28,205.32 M178.26,210.66L207.77,213.69 M130.70,185.09L132.12,173.61 M138.74,172.51L141.22,183.79 M228.64,210.15L222.61,210.27 M138.55,227.55L140.86,216.33 M138.71,227.53L141.19,216.29 M128.07,208.78L102.18,207.64 M129.27,183.66L129.20,186.88 M193.83,190.94L182.34,190.80 M94.46,203.11L94.46,196.90 M117.42,190.45L127.28,190.39 M281.14,217.83L280.95,225.37 M280.95,225.37L280.95,218.61 M282.39,217.69L282.49,225.03 M281.86,217.82L282.50,225.37 M282.50,225.37L282.50,218.61 M281.20,224.95L281.20,231.73 M281.37,225.12L281.37,231.90 M282.25,224.97L282.25,231.76 M281.14,182.18L280.95,174.63 M280.95,174.63L280.95,181.39 M282.39,182.31L282.49,174.98 M282.50,181.39L282.50,174.64 M282.50,174.64L281.86,182.19 M281.20,175.05L281.20,168.27 M281.37,174.88L281.37,168.10 M282.25,175.03L282.25,168.25 M118.28,184.73L126.53,183.07 M287.25,197.65L286.30,204.94 M255.42,207.73L255.39,192.29 M255.50,191.27L255.38,192.38 M320.80,197.91L320.80,204.23 M320.77,189.54L320.80,197.91 M320.80,197.91L320.80,205.48 M320.80,197.91L320.77,210.46 M271.50,191.57L278.01,191.57 M271.50,191.57L277.83,191.57 M287.74,186.70L298.98,186.67 M287.74,186.70L303.14,186.66 M287.74,186.70L299.48,185.84 M299.48,185.84L287.49,186.80 M287.47,213.19L299.48,214.17 M299.48,214.17L287.74,213.30 M287.74,213.30L298.98,213.34 M287.74,213.30L303.14,213.35 M223.21,227.40L216.47,226.82 M252.46,269.58L261.89,269.58 M261.89,269.41L252.46,269.42 M220.23,224.13L238.58,224.07 M237.96,224.08L220.04,224.10 M287.63,236.47L287.96,229.87 M291.88,270.42L280.39,271.15 M288.51,270.63L280.39,271.15 M267.65,253.73L274.14,254.07 M267.65,249.83L274.14,249.48 M275.62,252.76L264.12,252.71 M275.62,250.80L264.12,250.84 M267.22,252.62L275.74,253.03 M275.04,252.98L266.56,252.60 M275.74,250.52L267.22,250.93 M275.04,250.57L266.56,250.96 M290.46,249.40L282.99,249.37 M289.15,249.32L282.44,249.32 M290.46,254.16L282.99,254.18 M289.15,254.24L282.44,254.24 M307.60,248.96L304.97,255.25 M268.21,223.23L261.89,224.42 M262.04,226.01L268.51,224.74 M310.82,225.09L312.46,219.52 M256.64,255.20L262.30,264.33 M254.47,251.34L249.57,243.79 M240.74,235.74L234.75,231.42 M223.21,172.60L216.47,173.19 M282.48,136.67L286.86,141.50 M220.04,175.90L237.96,175.92 M238.58,175.93L220.23,175.87 M280.18,163.18L280.18,163.18 M277.48,179.90L277.47,179.89 M287.63,163.54L287.96,170.14 M267.65,150.18L274.14,150.52 M267.65,146.28L274.14,145.93 M275.62,149.21L264.12,149.16 M275.62,147.25L264.12,147.29 M267.22,149.07L275.73,149.48 M275.04,149.43L266.56,149.05 M275.73,146.97L267.22,147.38 M275.04,147.02L266.56,147.41 M290.45,145.85L282.98,145.82 M289.15,145.77L282.44,145.77 M290.45,150.61L282.98,150.63 M289.15,150.69L282.44,150.69 M307.60,151.05L304.97,144.76 M268.51,175.27L262.04,174.00 M268.42,175.57L261.98,174.32 M268.21,176.78L261.89,175.58 M310.82,174.92L312.46,180.48 M256.64,144.80L262.30,135.67 M254.47,148.67L249.57,156.21 M240.74,164.27L234.75,168.59 M229.16,170.84L223.62,173.42" stroke="currentColor" stroke-width="0.6" stroke-linecap="round" fill="none" opacity="0.55" clip-path="url(#hull-clip)" filter="url(#glow)" />
  <path d="M 277.50,271.50 C 276.53,271.51 275.44,271.51 274.50,271.50 C 273.56,271.49 272.68,271.48 271.86,271.47 C 271.04,271.45 270.28,271.43 269.58,271.41 C 268.88,271.38 268.24,271.35 267.66,271.31 C 267.08,271.28 266.55,271.23 266.09,271.19 C 265.63,271.14 265.23,271.09 264.89,271.03 C 264.55,270.97 264.27,270.91 264.05,270.84 C 263.83,270.78 263.66,270.70 263.56,270.62 C 263.46,270.55 263.51,270.45 263.44,270.38 C 263.37,270.30 263.28,270.22 263.16,270.16 C 263.04,270.09 262.89,270.03 262.72,269.97 C 262.55,269.91 262.35,269.86 262.12,269.81 C 261.90,269.77 261.65,269.72 261.38,269.69 C 261.10,269.65 260.80,269.62 260.47,269.59 C 260.14,269.57 259.79,269.55 259.41,269.53 C 259.03,269.52 258.62,269.51 258.19,269.50 C 257.76,269.49 257.22,269.50 256.81,269.50 C 256.41,269.50 256.05,269.49 255.75,269.48 C 255.45,269.48 255.20,269.47 255.00,269.45 C 254.80,269.44 254.66,269.42 254.56,269.41 C 254.47,269.39 254.43,269.37 254.44,269.34 C 254.45,269.32 254.51,269.29 254.62,269.27 C 254.74,269.24 254.91,269.21 255.12,269.17 C 255.34,269.14 255.61,269.10 255.94,269.06 C 256.26,269.02 256.71,268.99 257.06,268.94 C 257.41,268.88 257.73,268.82 258.02,268.74 C 258.32,268.67 258.58,268.58 258.82,268.48 C 259.06,268.38 259.27,268.26 259.45,268.14 C 259.64,268.02 259.79,267.88 259.92,267.73 C 260.05,267.59 260.15,267.43 260.23,267.26 C 260.30,267.09 260.35,266.90 260.37,266.71 C 260.39,266.52 260.38,266.31 260.34,266.09 C 260.31,265.88 260.24,265.66 260.16,265.41 C 260.07,265.15 259.96,264.87 259.82,264.55 C 259.68,264.24 259.52,263.90 259.34,263.54 C 259.15,263.17 258.94,262.78 258.70,262.36 C 258.47,261.94 258.21,261.49 257.92,261.02 C 257.64,260.54 257.33,260.04 256.99,259.51 C 256.66,258.98 256.30,258.42 255.91,257.84 C 255.53,257.25 255.12,256.64 254.69,256.00 C 254.25,255.36 253.77,254.66 253.31,254.00 C 252.85,253.34 252.38,252.69 251.91,252.05 C 251.44,251.42 250.97,250.79 250.49,250.16 C 250.01,249.54 249.53,248.93 249.05,248.33 C 248.56,247.73 248.07,247.13 247.58,246.55 C 247.08,245.96 246.59,245.39 246.09,244.82 C 245.58,244.25 245.08,243.70 244.57,243.15 C 244.06,242.60 243.55,242.06 243.03,241.53 C 242.51,241.00 241.98,240.47 241.47,239.97 C 240.96,239.47 240.46,238.99 239.98,238.52 C 239.49,238.06 239.02,237.62 238.55,237.20 C 238.09,236.77 237.64,236.37 237.20,235.98 C 236.76,235.60 236.34,235.24 235.92,234.89 C 235.51,234.55 235.10,234.22 234.71,233.91 C 234.32,233.61 233.94,233.32 233.57,233.05 C 233.20,232.79 232.85,232.54 232.50,232.31 C 232.15,232.08 231.88,231.88 231.50,231.69 C 231.12,231.49 230.69,231.31 230.22,231.14 C 229.74,230.97 229.22,230.82 228.66,230.67 C 228.09,230.53 227.47,230.40 226.81,230.28 C 226.15,230.16 225.44,230.06 224.69,229.97 C 223.93,229.88 223.13,229.80 222.28,229.73 C 221.43,229.67 220.54,229.62 219.59,229.58 C 218.65,229.54 217.66,229.51 216.62,229.50 C 215.59,229.49 214.47,229.51 213.38,229.50 C 212.28,229.49 211.18,229.47 210.08,229.44 C 208.97,229.41 207.86,229.36 206.73,229.31 C 205.61,229.26 204.48,229.20 203.34,229.12 C 202.21,229.05 201.06,228.97 199.91,228.88 C 198.75,228.78 197.59,228.68 196.42,228.56 C 195.25,228.45 194.08,228.32 192.89,228.19 C 191.71,228.05 190.51,227.91 189.31,227.75 C 188.11,227.59 186.84,227.40 185.69,227.25 C 184.54,227.10 183.44,226.96 182.41,226.83 C 181.37,226.70 180.39,226.59 179.47,226.48 C 178.55,226.38 177.68,226.29 176.88,226.22 C 176.07,226.14 175.32,226.08 174.62,226.03 C 173.93,225.98 173.30,225.95 172.72,225.92 C 172.14,225.90 171.62,225.89 171.16,225.89 C 170.69,225.89 170.29,225.91 169.94,225.94 C 169.59,225.97 169.37,226.03 169.06,226.06 C 168.76,226.10 168.44,226.12 168.11,226.14 C 167.78,226.16 167.43,226.17 167.08,226.17 C 166.72,226.17 166.35,226.17 165.97,226.16 C 165.59,226.14 165.19,226.12 164.78,226.09 C 164.37,226.07 163.95,226.03 163.52,225.98 C 163.08,225.94 162.63,225.89 162.17,225.83 C 161.71,225.77 161.24,225.70 160.75,225.62 C 160.26,225.55 159.72,225.46 159.25,225.38 C 158.78,225.29 158.34,225.21 157.92,225.12 C 157.51,225.04 157.12,224.96 156.77,224.88 C 156.41,224.79 156.08,224.71 155.78,224.62 C 155.48,224.54 155.21,224.46 154.97,224.38 C 154.73,224.29 154.51,224.21 154.33,224.12 C 154.14,224.04 153.99,223.96 153.86,223.88 C 153.73,223.79 153.63,223.71 153.56,223.62 C 153.49,223.54 153.50,223.46 153.44,223.38 C 153.38,223.29 153.29,223.21 153.19,223.12 C 153.08,223.04 152.96,222.96 152.81,222.88 C 152.67,222.79 152.50,222.71 152.31,222.62 C 152.12,222.54 151.92,222.46 151.69,222.38 C 151.46,222.29 151.21,222.21 150.94,222.12 C 150.67,222.04 150.38,221.96 150.06,221.88 C 149.75,221.79 149.42,221.71 149.06,221.62 C 148.71,221.54 148.30,221.45 147.94,221.38 C 147.57,221.30 147.22,221.23 146.88,221.16 C 146.54,221.10 146.21,221.04 145.90,220.99 C 145.58,220.94 145.28,220.90 144.98,220.86 C 144.69,220.82 144.41,220.79 144.14,220.77 C 143.87,220.74 143.61,220.72 143.37,220.71 C 143.12,220.70 142.89,220.69 142.66,220.70 C 142.44,220.70 142.23,220.70 142.03,220.72 C 141.83,220.73 141.65,220.74 141.47,220.78 C 141.29,220.82 141.12,220.87 140.95,220.94 C 140.79,221.01 140.63,221.09 140.48,221.19 C 140.34,221.29 140.20,221.40 140.06,221.53 C 139.93,221.66 139.80,221.81 139.69,221.97 C 139.57,222.13 139.46,222.31 139.36,222.50 C 139.26,222.69 139.16,222.90 139.08,223.12 C 138.99,223.35 138.91,223.59 138.84,223.84 C 138.77,224.10 138.73,224.40 138.66,224.66 C 138.58,224.91 138.50,225.15 138.41,225.37 C 138.32,225.59 138.23,225.79 138.12,225.98 C 138.01,226.16 137.89,226.33 137.77,226.48 C 137.64,226.64 137.50,226.77 137.36,226.89 C 137.21,227.01 137.06,227.11 136.90,227.20 C 136.74,227.28 136.56,227.35 136.38,227.40 C 136.20,227.45 136.01,227.48 135.81,227.50 C 135.61,227.52 135.39,227.50 135.19,227.50 C 134.98,227.50 134.77,227.49 134.57,227.48 C 134.37,227.46 134.16,227.45 133.96,227.43 C 133.76,227.41 133.56,227.39 133.36,227.36 C 133.16,227.33 132.96,227.30 132.77,227.27 C 132.57,227.23 132.37,227.19 132.18,227.15 C 131.99,227.11 131.79,227.06 131.60,227.01 C 131.41,226.96 131.22,226.90 131.03,226.84 C 130.84,226.79 130.64,226.72 130.47,226.66 C 130.30,226.60 130.15,226.54 130.02,226.48 C 129.89,226.42 129.79,226.36 129.70,226.30 C 129.61,226.25 129.54,226.19 129.48,226.14 C 129.43,226.09 129.40,226.04 129.39,225.98 C 129.38,225.93 129.39,225.88 129.41,225.84 C 129.44,225.79 129.49,225.74 129.55,225.70 C 129.62,225.65 129.71,225.61 129.81,225.56 C 129.92,225.52 130.07,225.49 130.19,225.44 C 130.30,225.39 130.41,225.33 130.52,225.27 C 130.62,225.20 130.71,225.13 130.80,225.05 C 130.88,224.97 130.96,224.88 131.03,224.78 C 131.10,224.68 131.16,224.58 131.22,224.47 C 131.27,224.36 131.32,224.24 131.36,224.11 C 131.40,223.98 131.43,223.85 131.45,223.70 C 131.48,223.56 131.49,223.41 131.50,223.25 C 131.51,223.09 131.51,222.92 131.50,222.75 C 131.49,222.58 131.48,222.42 131.46,222.26 C 131.44,222.10 131.42,221.93 131.38,221.77 C 131.35,221.61 131.31,221.45 131.27,221.30 C 131.22,221.14 131.17,220.98 131.11,220.83 C 131.05,220.67 130.99,220.52 130.91,220.37 C 130.84,220.21 130.76,220.06 130.68,219.91 C 130.60,219.76 130.50,219.62 130.41,219.47 C 130.31,219.32 130.24,219.18 130.09,219.03 C 129.95,218.89 129.76,218.74 129.52,218.60 C 129.29,218.46 129.01,218.32 128.70,218.18 C 128.38,218.04 128.01,217.90 127.61,217.77 C 127.20,217.63 126.76,217.49 126.27,217.36 C 125.77,217.23 125.24,217.09 124.66,216.96 C 124.09,216.83 123.47,216.70 122.80,216.57 C 122.14,216.44 121.44,216.31 120.69,216.19 C 119.94,216.06 119.10,215.95 118.31,215.81 C 117.52,215.67 116.73,215.52 115.94,215.36 C 115.15,215.20 114.35,215.02 113.56,214.83 C 112.77,214.64 111.98,214.43 111.19,214.22 C 110.40,214.00 109.60,213.77 108.81,213.53 C 108.02,213.29 107.23,213.03 106.44,212.77 C 105.65,212.50 104.85,212.22 104.06,211.92 C 103.27,211.63 102.48,211.32 101.69,211.00 C 100.90,210.68 100.07,210.32 99.31,210.00 C 98.56,209.68 97.84,209.36 97.16,209.05 C 96.49,208.75 95.85,208.45 95.24,208.16 C 94.64,207.88 94.07,207.60 93.55,207.33 C 93.02,207.06 92.53,206.80 92.08,206.55 C 91.63,206.30 91.21,206.05 90.84,205.82 C 90.46,205.59 90.12,205.36 89.82,205.15 C 89.52,204.93 89.26,204.73 89.03,204.53 C 88.81,204.33 88.64,204.16 88.47,203.97 C 88.29,203.78 88.13,203.59 87.98,203.40 C 87.82,203.21 87.68,203.01 87.55,202.82 C 87.43,202.63 87.31,202.43 87.20,202.23 C 87.10,202.04 87.00,201.84 86.92,201.64 C 86.84,201.44 86.77,201.24 86.71,201.04 C 86.65,200.84 86.61,200.63 86.57,200.43 C 86.54,200.23 86.51,200.02 86.50,199.81 C 86.49,199.61 86.49,199.39 86.50,199.19 C 86.51,198.98 86.54,198.77 86.57,198.57 C 86.61,198.37 86.65,198.16 86.71,197.96 C 86.77,197.76 86.84,197.56 86.92,197.36 C 87.00,197.16 87.10,196.96 87.20,196.77 C 87.31,196.57 87.43,196.37 87.55,196.18 C 87.68,195.99 87.82,195.79 87.98,195.60 C 88.13,195.41 88.29,195.22 88.47,195.03 C 88.64,194.84 88.81,194.67 89.03,194.47 C 89.26,194.27 89.52,194.07 89.82,193.85 C 90.12,193.64 90.46,193.41 90.84,193.18 C 91.21,192.95 91.63,192.70 92.08,192.45 C 92.53,192.20 93.02,191.94 93.55,191.67 C 94.07,191.40 94.64,191.12 95.24,190.84 C 95.85,190.55 96.49,190.25 97.16,189.95 C 97.84,189.64 98.56,189.32 99.31,189.00 C 100.07,188.68 100.90,188.32 101.69,188.00 C 102.48,187.68 103.27,187.37 104.06,187.08 C 104.85,186.78 105.65,186.50 106.44,186.23 C 107.23,185.97 108.02,185.71 108.81,185.47 C 109.60,185.23 110.40,185.00 111.19,184.78 C 111.98,184.57 112.77,184.36 113.56,184.17 C 114.35,183.98 115.15,183.80 115.94,183.64 C 116.73,183.48 117.52,183.33 118.31,183.19 C 119.10,183.05 119.94,182.94 120.69,182.81 C 121.44,182.69 122.14,182.56 122.80,182.43 C 123.47,182.30 124.09,182.17 124.66,182.04 C 125.24,181.91 125.77,181.77 126.27,181.64 C 126.76,181.51 127.20,181.37 127.61,181.23 C 128.01,181.10 128.38,180.96 128.70,180.82 C 129.01,180.68 129.29,180.54 129.52,180.40 C 129.76,180.26 129.95,180.11 130.09,179.97 C 130.24,179.82 130.31,179.68 130.41,179.53 C 130.50,179.38 130.60,179.24 130.68,179.09 C 130.76,178.94 130.84,178.79 130.91,178.63 C 130.99,178.48 131.05,178.33 131.11,178.17 C 131.17,178.02 131.22,177.86 131.27,177.70 C 131.31,177.55 131.35,177.39 131.38,177.23 C 131.42,177.07 131.44,176.90 131.46,176.74 C 131.48,176.58 131.49,176.42 131.50,176.25 C 131.51,176.08 131.51,175.91 131.50,175.75 C 131.49,175.59 131.48,175.44 131.46,175.29 C 131.44,175.14 131.42,175.00 131.38,174.87 C 131.35,174.73 131.31,174.61 131.27,174.48 C 131.22,174.36 131.17,174.25 131.11,174.14 C 131.05,174.03 130.99,173.93 130.91,173.84 C 130.84,173.74 130.76,173.65 130.68,173.57 C 130.60,173.49 130.50,173.41 130.41,173.34 C 130.31,173.27 130.17,173.22 130.09,173.16 C 130.02,173.10 129.98,173.04 129.96,172.98 C 129.95,172.92 129.96,172.86 130.01,172.80 C 130.05,172.75 130.13,172.69 130.23,172.64 C 130.34,172.59 130.48,172.54 130.64,172.48 C 130.81,172.43 131.00,172.38 131.23,172.34 C 131.45,172.29 131.71,172.24 131.99,172.20 C 132.28,172.15 132.59,172.11 132.94,172.06 C 133.28,172.02 133.71,171.96 134.06,171.94 C 134.42,171.92 134.76,171.92 135.08,171.94 C 135.40,171.96 135.70,172.00 135.98,172.06 C 136.27,172.12 136.53,172.21 136.78,172.31 C 137.03,172.42 137.26,172.54 137.47,172.69 C 137.68,172.83 137.87,173.00 138.05,173.19 C 138.22,173.38 138.38,173.58 138.52,173.81 C 138.65,174.04 138.77,174.29 138.88,174.56 C 138.98,174.83 138.97,175.18 139.12,175.44 C 139.28,175.70 139.50,175.93 139.80,176.12 C 140.09,176.32 140.46,176.49 140.89,176.62 C 141.33,176.76 141.83,176.86 142.41,176.94 C 142.98,177.01 143.63,177.05 144.34,177.06 C 145.06,177.07 145.85,177.05 146.70,177.00 C 147.56,176.95 148.49,176.86 149.48,176.75 C 150.48,176.64 151.55,176.49 152.69,176.31 C 153.83,176.14 155.15,175.89 156.31,175.69 C 157.48,175.49 158.60,175.30 159.69,175.12 C 160.77,174.95 161.81,174.78 162.81,174.62 C 163.81,174.47 164.77,174.32 165.69,174.19 C 166.60,174.05 167.48,173.93 168.31,173.81 C 169.15,173.70 169.94,173.59 170.69,173.50 C 171.44,173.41 172.15,173.32 172.81,173.25 C 173.48,173.18 174.10,173.11 174.69,173.06 C 175.27,173.01 175.80,172.96 176.31,172.94 C 176.82,172.92 177.30,172.92 177.75,172.95 C 178.20,172.98 178.61,173.03 179.00,173.11 C 179.39,173.18 179.74,173.28 180.06,173.41 C 180.39,173.53 180.68,173.67 180.94,173.84 C 181.20,174.01 181.43,174.21 181.62,174.42 C 181.82,174.64 181.99,174.88 182.12,175.14 C 182.26,175.40 182.36,175.69 182.44,176.00 C 182.51,176.31 182.50,176.69 182.56,177.00 C 182.62,177.31 182.70,177.60 182.80,177.86 C 182.89,178.12 183.01,178.36 183.14,178.58 C 183.27,178.79 183.42,178.99 183.59,179.16 C 183.76,179.33 183.95,179.47 184.16,179.59 C 184.36,179.72 184.59,179.82 184.83,179.89 C 185.07,179.97 185.33,180.02 185.61,180.05 C 185.89,180.08 186.18,180.08 186.50,180.06 C 186.82,180.04 187.18,179.98 187.50,179.94 C 187.82,179.89 188.12,179.85 188.40,179.80 C 188.68,179.76 188.95,179.71 189.20,179.66 C 189.44,179.62 189.68,179.57 189.89,179.52 C 190.11,179.46 190.30,179.41 190.48,179.36 C 190.67,179.31 190.83,179.25 190.98,179.20 C 191.12,179.14 191.25,179.08 191.37,179.02 C 191.48,178.96 191.58,178.90 191.66,178.84 C 191.74,178.78 191.79,178.74 191.84,178.66 C 191.90,178.57 191.95,178.46 191.99,178.32 C 192.04,178.18 192.07,178.02 192.10,177.84 C 192.13,177.65 192.15,177.44 192.17,177.20 C 192.19,176.97 192.20,176.71 192.20,176.42 C 192.21,176.14 192.20,175.83 192.20,175.49 C 192.19,175.16 192.17,174.80 192.15,174.41 C 192.13,174.03 192.10,173.62 192.06,173.19 C 192.03,172.75 191.97,172.25 191.94,171.81 C 191.91,171.38 191.89,170.97 191.88,170.59 C 191.88,170.20 191.88,169.84 191.90,169.51 C 191.92,169.17 191.94,168.86 191.98,168.58 C 192.02,168.29 192.08,168.03 192.14,167.80 C 192.20,167.56 192.28,167.35 192.37,167.16 C 192.45,166.98 192.55,166.82 192.66,166.68 C 192.77,166.54 192.90,166.43 193.03,166.34 C 193.17,166.26 193.33,166.18 193.47,166.16 C 193.61,166.13 193.74,166.15 193.86,166.20 C 193.98,166.26 194.10,166.35 194.20,166.48 C 194.31,166.62 194.41,166.79 194.50,167.00 C 194.59,167.21 194.67,167.46 194.75,167.75 C 194.83,168.04 194.89,168.37 194.95,168.73 C 195.01,169.10 195.07,169.51 195.11,169.95 C 195.15,170.40 195.19,170.88 195.22,171.41 C 195.25,171.93 195.24,172.57 195.28,173.09 C 195.32,173.62 195.38,174.11 195.45,174.56 C 195.53,175.02 195.62,175.43 195.73,175.81 C 195.85,176.19 195.98,176.54 196.12,176.84 C 196.27,177.15 196.44,177.42 196.62,177.66 C 196.81,177.89 197.01,178.09 197.23,178.25 C 197.46,178.41 197.70,178.54 197.95,178.62 C 198.21,178.71 198.49,178.77 198.78,178.78 C 199.08,178.80 199.42,178.76 199.72,178.72 C 200.02,178.68 200.30,178.61 200.57,178.52 C 200.84,178.44 201.10,178.33 201.34,178.20 C 201.58,178.06 201.80,177.91 202.02,177.73 C 202.23,177.56 202.43,177.36 202.61,177.14 C 202.79,176.92 202.96,176.68 203.12,176.41 C 203.27,176.15 203.41,175.86 203.54,175.55 C 203.67,175.25 203.78,174.92 203.88,174.56 C 203.97,174.21 203.99,173.79 204.12,173.44 C 204.26,173.09 204.46,172.76 204.70,172.45 C 204.95,172.15 205.25,171.87 205.61,171.61 C 205.97,171.35 206.38,171.12 206.84,170.91 C 207.31,170.70 207.83,170.51 208.41,170.34 C 208.98,170.18 209.61,170.04 210.30,169.92 C 210.98,169.80 211.72,169.71 212.52,169.64 C 213.31,169.57 214.16,169.52 215.06,169.50 C 215.97,169.48 217.02,169.51 217.94,169.50 C 218.86,169.49 219.74,169.46 220.58,169.42 C 221.42,169.38 222.22,169.33 222.98,169.27 C 223.75,169.20 224.47,169.12 225.16,169.03 C 225.84,168.94 226.49,168.84 227.09,168.72 C 227.70,168.60 228.27,168.47 228.80,168.33 C 229.33,168.18 229.82,168.03 230.27,167.86 C 230.72,167.69 231.13,167.51 231.50,167.31 C 231.87,167.12 232.15,166.92 232.50,166.69 C 232.85,166.46 233.20,166.21 233.57,165.95 C 233.94,165.68 234.32,165.39 234.71,165.09 C 235.10,164.78 235.51,164.45 235.92,164.11 C 236.34,163.76 236.76,163.40 237.20,163.02 C 237.64,162.63 238.09,162.23 238.55,161.80 C 239.02,161.38 239.49,160.94 239.98,160.48 C 240.46,160.01 240.96,159.53 241.47,159.03 C 241.98,158.53 242.51,158.01 243.03,157.47 C 243.55,156.93 244.08,156.37 244.60,155.79 C 245.13,155.21 245.65,154.61 246.18,153.99 C 246.71,153.37 247.24,152.74 247.77,152.08 C 248.30,151.42 248.83,150.74 249.36,150.05 C 249.89,149.35 250.43,148.63 250.96,147.90 C 251.50,147.16 252.03,146.41 252.57,145.63 C 253.11,144.86 253.65,144.06 254.19,143.25 C 254.73,142.44 255.31,141.54 255.81,140.75 C 256.32,139.96 256.79,139.23 257.23,138.54 C 257.66,137.85 258.06,137.21 258.43,136.62 C 258.80,136.02 259.13,135.48 259.42,134.98 C 259.72,134.49 259.98,134.04 260.20,133.64 C 260.43,133.24 260.62,132.89 260.77,132.59 C 260.93,132.28 261.05,132.03 261.13,131.82 C 261.22,131.61 261.27,131.45 261.28,131.34 C 261.30,131.23 261.26,131.22 261.22,131.16 C 261.18,131.10 261.11,131.04 261.02,130.98 C 260.94,130.92 260.83,130.86 260.70,130.80 C 260.56,130.75 260.41,130.69 260.23,130.64 C 260.06,130.59 259.86,130.54 259.64,130.48 C 259.42,130.43 259.18,130.38 258.91,130.34 C 258.65,130.29 258.36,130.24 258.05,130.20 C 257.75,130.15 257.42,130.11 257.06,130.06 C 256.71,130.02 256.26,129.98 255.94,129.94 C 255.61,129.90 255.34,129.86 255.12,129.83 C 254.91,129.79 254.74,129.76 254.62,129.73 C 254.51,129.71 254.45,129.68 254.44,129.66 C 254.43,129.63 254.47,129.61 254.56,129.59 C 254.66,129.58 254.80,129.56 255.00,129.55 C 255.20,129.53 255.45,129.52 255.75,129.52 C 256.05,129.51 256.41,129.50 256.81,129.50 C 257.22,129.50 257.76,129.51 258.19,129.50 C 258.62,129.49 259.03,129.48 259.41,129.47 C 259.79,129.45 260.14,129.43 260.47,129.41 C 260.80,129.38 261.10,129.35 261.38,129.31 C 261.65,129.28 261.90,129.23 262.12,129.19 C 262.35,129.14 262.55,129.09 262.72,129.03 C 262.89,128.97 263.04,128.91 263.16,128.84 C 263.28,128.78 263.37,128.70 263.44,128.62 C 263.51,128.55 263.46,128.45 263.56,128.38 C 263.66,128.30 263.83,128.22 264.05,128.16 C 264.27,128.09 264.55,128.03 264.89,127.97 C 265.23,127.91 265.63,127.86 266.09,127.81 C 266.55,127.77 267.08,127.72 267.66,127.69 C 268.24,127.65 268.88,127.62 269.58,127.59 C 270.28,127.57 271.04,127.55 271.86,127.53 C 272.68,127.52 273.56,127.51 274.50,127.50 C 275.44,127.49 276.53,127.49 277.50,127.50 C 278.47,127.51 279.40,127.52 280.30,127.53 C 281.20,127.55 282.06,127.57 282.89,127.59 C 283.72,127.62 284.52,127.65 285.28,127.69 C 286.04,127.72 286.77,127.77 287.47,127.81 C 288.16,127.86 288.83,127.91 289.45,127.97 C 290.08,128.03 290.67,128.09 291.23,128.16 C 291.79,128.22 292.32,128.30 292.81,128.38 C 293.30,128.45 293.75,128.53 294.19,128.62 C 294.63,128.72 295.05,128.83 295.46,128.95 C 295.87,129.06 296.26,129.19 296.63,129.34 C 297.01,129.48 297.36,129.63 297.70,129.80 C 298.04,129.96 298.37,130.14 298.67,130.33 C 298.98,130.52 299.27,130.72 299.54,130.93 C 299.81,131.14 300.07,131.37 300.30,131.60 C 300.54,131.84 300.76,132.08 300.97,132.34 C 301.17,132.60 301.31,132.79 301.53,133.16 C 301.75,133.52 302.00,133.98 302.29,134.52 C 302.57,135.07 302.89,135.71 303.24,136.45 C 303.59,137.18 303.98,138.00 304.39,138.92 C 304.81,139.84 305.25,140.85 305.73,141.95 C 306.21,143.06 306.73,144.25 307.27,145.54 C 307.82,146.83 308.40,148.21 309.01,149.68 C 309.62,151.15 310.26,152.72 310.94,154.38 C 311.61,156.03 312.38,157.96 313.06,159.62 C 313.74,161.29 314.40,162.88 315.03,164.38 C 315.66,165.88 316.27,167.29 316.84,168.62 C 317.42,169.96 317.97,171.21 318.50,172.38 C 319.03,173.54 319.53,174.62 320.00,175.62 C 320.47,176.62 320.92,177.54 321.34,178.38 C 321.77,179.21 322.16,179.96 322.53,180.62 C 322.90,181.29 323.24,181.88 323.56,182.38 C 323.88,182.88 324.16,183.19 324.44,183.62 C 324.71,184.06 324.97,184.51 325.22,184.97 C 325.46,185.43 325.69,185.91 325.91,186.41 C 326.12,186.90 326.32,187.41 326.50,187.94 C 326.68,188.46 326.85,189.01 327.00,189.56 C 327.15,190.12 327.29,190.69 327.41,191.28 C 327.53,191.87 327.63,192.47 327.72,193.09 C 327.81,193.71 327.88,194.35 327.94,195.00 C 327.99,195.65 328.03,196.36 328.06,197.00 C 328.10,197.64 328.13,198.26 328.16,198.86 C 328.18,199.46 328.20,200.03 328.22,200.58 C 328.23,201.13 328.24,201.65 328.25,202.16 C 328.26,202.66 328.26,203.14 328.25,203.59 C 328.24,204.05 328.23,204.48 328.22,204.89 C 328.20,205.30 328.18,205.68 328.16,206.05 C 328.13,206.41 328.10,206.75 328.06,207.06 C 328.03,207.38 327.99,207.64 327.94,207.94 C 327.88,208.24 327.81,208.54 327.72,208.86 C 327.63,209.17 327.53,209.50 327.41,209.83 C 327.29,210.16 327.15,210.50 327.00,210.84 C 326.85,211.19 326.68,211.54 326.50,211.91 C 326.32,212.27 326.12,212.64 325.91,213.02 C 325.69,213.39 325.46,213.78 325.22,214.17 C 324.97,214.57 324.71,214.97 324.44,215.38 C 324.16,215.78 323.89,216.11 323.56,216.62 C 323.24,217.14 322.89,217.74 322.50,218.44 C 322.11,219.14 321.70,219.93 321.25,220.81 C 320.80,221.70 320.32,222.68 319.81,223.75 C 319.30,224.82 318.76,225.99 318.19,227.25 C 317.61,228.51 317.01,229.86 316.38,231.31 C 315.74,232.76 315.07,234.30 314.38,235.94 C 313.68,237.57 312.95,239.30 312.19,241.12 C 311.43,242.95 310.56,245.07 309.81,246.88 C 309.06,248.68 308.36,250.37 307.70,251.95 C 307.03,253.52 306.41,254.99 305.84,256.34 C 305.26,257.69 304.73,258.92 304.23,260.05 C 303.74,261.17 303.30,262.18 302.89,263.08 C 302.49,263.98 302.12,264.76 301.80,265.43 C 301.49,266.10 301.21,266.66 300.98,267.10 C 300.74,267.55 300.55,267.88 300.41,268.09 C 300.26,268.31 300.22,268.30 300.09,268.41 C 299.97,268.51 299.82,268.61 299.65,268.71 C 299.48,268.81 299.29,268.91 299.07,269.01 C 298.86,269.11 298.62,269.20 298.36,269.30 C 298.10,269.39 297.82,269.49 297.52,269.58 C 297.21,269.67 296.89,269.76 296.54,269.85 C 296.19,269.94 295.82,270.03 295.43,270.12 C 295.04,270.20 294.62,270.29 294.19,270.38 C 293.75,270.46 293.30,270.55 292.81,270.62 C 292.32,270.70 291.79,270.78 291.23,270.84 C 290.67,270.91 290.08,270.97 289.45,271.03 C 288.83,271.09 288.16,271.14 287.47,271.19 C 286.77,271.23 286.04,271.28 285.28,271.31 C 284.52,271.35 283.72,271.38 282.89,271.41 C 282.06,271.43 281.20,271.45 280.30,271.47 C 279.40,271.48 278.47,271.49 277.50,271.50 Z" fill="none" stroke="currentColor" stroke-width="1.5" stroke-linejoin="round" stroke-linecap="round" filter="url(#glow)" />
</svg>