<svg xmlns="http://www.w3.org/2000/svg" width="512" height="512" viewBox="107.72 219.50 273.31 72.00" preserveAspectRatio="xMidYMid meet">
  <defs>
    <filter id="glow" x="-30%" y="-30%" width="160%" height="160%">
      <feGaussianBlur in="SourceGraphic" stdDeviation="2.4" result="blur" />
      <feMerge>
        <feMergeNode in="blur" />
        <feMergeNode in="SourceGraphic" />
      </feMerge>
    </filter>
    <clipPath id="hull-clip">
      <path d="M 246.38,285.50 C 244.15,285.50 241.85,285.51 239.62,285.50 C 237.40,285.49 235.19,285.46 233.00,285.42 C 230.81,285.38 228.65,285.33 226.50,285.27 C 224.35,285.20 222.23,285.12 220.12,285.03 C 218.02,284.94 215.94,284.84 213.88,284.72 C 211.81,284.60 209.77,284.47 207.75,284.33 C 205.73,284.18 203.73,284.03 201.75,283.86 C 199.77,283.69 197.81,283.51 195.88,283.31 C 193.94,283.12 191.97,282.89 190.12,282.69 C 188.28,282.48 186.50,282.28 184.80,282.08 C 183.09,281.88 181.46,281.68 179.89,281.48 C 178.33,281.29 176.83,281.10 175.41,280.91 C 173.98,280.72 172.63,280.53 171.34,280.34 C 170.06,280.16 168.85,279.98 167.70,279.80 C 166.56,279.62 165.49,279.44 164.48,279.27 C 163.48,279.09 162.55,278.92 161.69,278.75 C 160.83,278.58 160.09,278.42 159.31,278.25 C 158.53,278.08 157.76,277.90 157.01,277.71 C 156.25,277.52 155.51,277.33 154.77,277.13 C 154.04,276.93 153.32,276.73 152.61,276.52 C 151.90,276.30 151.20,276.08 150.52,275.86 C 149.83,275.63 149.15,275.40 148.49,275.16 C 147.83,274.93 147.18,274.68 146.54,274.43 C 145.90,274.18 145.27,273.92 144.66,273.66 C 144.04,273.39 143.39,273.10 142.84,272.84 C 142.30,272.58 141.82,272.33 141.41,272.09 C 140.99,271.85 140.64,271.62 140.34,271.41 C 140.05,271.19 139.82,270.98 139.66,270.78 C 139.49,270.58 139.39,270.40 139.34,270.22 C 139.30,270.04 139.32,269.88 139.41,269.72 C 139.49,269.56 139.64,269.42 139.84,269.28 C 140.05,269.15 140.32,269.02 140.66,268.91 C 140.99,268.79 141.42,268.69 141.84,268.59 C 142.27,268.50 142.73,268.40 143.21,268.32 C 143.70,268.24 144.21,268.16 144.76,268.09 C 145.30,268.01 145.88,267.95 146.48,267.89 C 147.09,267.83 147.73,267.78 148.39,267.73 C 149.06,267.69 149.75,267.65 150.48,267.62 C 151.20,267.58 151.96,267.56 152.74,267.54 C 153.53,267.52 154.34,267.51 155.19,267.50 C 156.03,267.49 156.99,267.51 157.81,267.50 C 158.63,267.49 159.39,267.48 160.09,267.47 C 160.80,267.45 161.44,267.43 162.03,267.41 C 162.62,267.38 163.15,267.35 163.62,267.31 C 164.10,267.28 164.52,267.23 164.88,267.19 C 165.23,267.14 165.54,267.09 165.78,267.03 C 166.03,266.97 166.21,266.91 166.34,266.84 C 166.47,266.78 166.55,266.70 166.56,266.62 C 166.58,266.55 166.49,266.45 166.44,266.38 C 166.39,266.30 166.32,266.22 166.25,266.16 C 166.18,266.09 166.09,266.03 166.00,265.97 C 165.91,265.91 165.80,265.86 165.69,265.81 C 165.57,265.77 165.45,265.72 165.31,265.69 C 165.18,265.65 165.03,265.62 164.88,265.59 C 164.72,265.57 164.55,265.55 164.38,265.53 C 164.20,265.52 164.01,265.51 163.81,265.50 C 163.61,265.49 163.42,265.52 163.19,265.50 C 162.95,265.48 162.68,265.45 162.39,265.39 C 162.10,265.34 161.77,265.26 161.42,265.17 C 161.07,265.08 160.69,264.97 160.28,264.84 C 159.87,264.72 159.43,264.57 158.97,264.41 C 158.50,264.24 158.01,264.06 157.48,263.86 C 156.96,263.66 156.41,263.44 155.83,263.20 C 155.25,262.97 154.64,262.71 154.00,262.44 C 153.36,262.16 152.71,261.84 152.00,261.56 C 151.29,261.29 150.55,261.03 149.76,260.79 C 148.97,260.55 148.14,260.32 147.27,260.12 C 146.40,259.91 145.50,259.72 144.55,259.55 C 143.60,259.37 142.61,259.22 141.58,259.08 C 140.55,258.94 139.48,258.82 138.37,258.71 C 137.26,258.61 136.11,258.52 134.91,258.45 C 133.72,258.37 132.49,258.32 131.22,258.28 C 129.95,258.24 128.51,258.25 127.28,258.22 C 126.05,258.18 124.91,258.14 123.84,258.08 C 122.78,258.02 121.80,257.95 120.91,257.86 C 120.01,257.77 119.20,257.67 118.47,257.56 C 117.74,257.45 117.09,257.33 116.53,257.19 C 115.97,257.05 115.49,256.90 115.09,256.73 C 114.70,256.57 114.39,256.39 114.16,256.20 C 113.93,256.01 113.78,255.81 113.72,255.59 C 113.66,255.38 113.68,255.12 113.78,254.91 C 113.88,254.69 114.06,254.49 114.32,254.30 C 114.58,254.12 114.92,253.95 115.34,253.79 C 115.75,253.63 116.25,253.49 116.83,253.36 C 117.40,253.23 118.06,253.12 118.80,253.02 C 119.53,252.92 120.35,252.83 121.24,252.76 C 122.14,252.69 123.11,252.63 124.16,252.59 C 125.22,252.54 126.35,252.51 127.56,252.50 C 128.77,252.49 130.21,252.51 131.44,252.50 C 132.67,252.49 133.83,252.47 134.94,252.44 C 136.04,252.41 137.08,252.36 138.06,252.31 C 139.04,252.26 139.96,252.20 140.81,252.12 C 141.67,252.05 142.46,251.97 143.19,251.88 C 143.92,251.78 144.58,251.68 145.19,251.56 C 145.79,251.45 146.33,251.32 146.81,251.19 C 147.29,251.05 147.71,250.91 148.06,250.75 C 148.42,250.59 148.63,250.41 148.94,250.25 C 149.25,250.09 149.58,249.92 149.92,249.77 C 150.27,249.61 150.63,249.45 151.02,249.30 C 151.40,249.14 151.80,248.99 152.22,248.84 C 152.64,248.70 153.08,248.55 153.53,248.41 C 153.99,248.26 154.46,248.12 154.95,247.98 C 155.45,247.85 155.96,247.71 156.48,247.58 C 157.01,247.45 157.56,247.32 158.12,247.19 C 158.69,247.06 159.33,246.93 159.88,246.81 C 160.42,246.69 160.94,246.57 161.42,246.45 C 161.90,246.34 162.35,246.22 162.77,246.11 C 163.18,246.00 163.56,245.89 163.91,245.78 C 164.25,245.67 164.57,245.57 164.84,245.47 C 165.12,245.37 165.37,245.27 165.58,245.17 C 165.79,245.08 165.97,244.98 166.11,244.89 C 166.25,244.80 166.36,244.71 166.44,244.62 C 166.51,244.54 166.58,244.45 166.56,244.38 C 166.55,244.30 166.47,244.22 166.34,244.16 C 166.21,244.09 166.03,244.03 165.78,243.97 C 165.54,243.91 165.23,243.86 164.88,243.81 C 164.52,243.77 164.10,243.72 163.62,243.69 C 163.15,243.65 162.62,243.62 162.03,243.59 C 161.44,243.57 160.80,243.55 160.09,243.53 C 159.39,243.52 158.63,243.51 157.81,243.50 C 156.99,243.49 156.03,243.51 155.19,243.50 C 154.34,243.49 153.53,243.48 152.74,243.46 C 151.96,243.44 151.20,243.42 150.48,243.38 C 149.75,243.35 149.06,243.31 148.39,243.27 C 147.73,243.22 147.09,243.17 146.48,243.11 C 145.88,243.05 145.30,242.99 144.76,242.91 C 144.21,242.84 143.70,242.76 143.21,242.68 C 142.73,242.60 142.27,242.50 141.84,242.41 C 141.42,242.31 141.01,242.20 140.66,242.09 C 140.30,241.99 139.98,241.88 139.70,241.77 C 139.42,241.65 139.18,241.54 138.98,241.42 C 138.78,241.30 138.62,241.18 138.50,241.06 C 138.38,240.94 138.29,240.82 138.25,240.69 C 138.21,240.56 138.20,240.43 138.23,240.30 C 138.27,240.16 138.34,240.03 138.45,239.89 C 138.57,239.75 138.72,239.61 138.91,239.47 C 139.10,239.33 139.33,239.18 139.59,239.03 C 139.85,238.88 140.14,238.73 140.46,238.57 C 140.78,238.41 141.13,238.25 141.51,238.09 C 141.89,237.92 142.30,237.75 142.73,237.58 C 143.17,237.40 143.64,237.23 144.14,237.05 C 144.64,236.87 145.17,236.68 145.73,236.49 C 146.29,236.30 146.87,236.11 147.49,235.91 C 148.11,235.72 148.76,235.52 149.44,235.31 C 150.12,235.11 150.75,234.90 151.56,234.69 C 152.37,234.47 153.28,234.26 154.30,234.03 C 155.31,233.81 156.42,233.58 157.64,233.34 C 158.86,233.11 160.17,232.87 161.59,232.62 C 163.01,232.38 164.53,232.13 166.16,231.88 C 167.78,231.62 169.50,231.36 171.33,231.09 C 173.15,230.83 175.08,230.56 177.11,230.28 C 179.14,230.01 181.27,229.72 183.50,229.44 C 185.73,229.15 188.20,228.84 190.50,228.56 C 192.80,228.29 195.07,228.03 197.31,227.80 C 199.55,227.56 201.76,227.34 203.94,227.14 C 206.11,226.94 208.26,226.76 210.38,226.59 C 212.49,226.43 214.57,226.28 216.62,226.16 C 218.68,226.03 220.70,225.92 222.69,225.83 C 224.68,225.74 226.64,225.66 228.56,225.61 C 230.49,225.55 232.39,225.52 234.25,225.50 C 236.11,225.48 237.89,225.50 239.75,225.50 C 241.61,225.50 243.49,225.51 245.41,225.52 C 247.32,225.52 249.26,225.53 251.22,225.55 C 253.18,225.56 255.17,225.58 257.19,225.59 C 259.20,225.61 261.24,225.63 263.31,225.66 C 265.38,225.68 267.47,225.71 269.59,225.73 C 271.71,225.76 273.86,225.79 276.03,225.83 C 278.20,225.86 280.40,225.90 282.62,225.94 C 284.85,225.98 287.15,226.02 289.38,226.06 C 291.60,226.11 293.80,226.16 295.98,226.22 C 298.16,226.28 300.32,226.34 302.45,226.41 C 304.59,226.47 306.70,226.55 308.78,226.62 C 310.87,226.70 312.93,226.79 314.97,226.88 C 317.01,226.96 319.02,227.06 321.02,227.16 C 323.01,227.26 324.98,227.36 326.92,227.47 C 328.87,227.58 330.79,227.69 332.69,227.81 C 334.59,227.93 336.51,228.06 338.31,228.19 C 340.11,228.31 341.84,228.44 343.49,228.57 C 345.14,228.70 346.72,228.83 348.23,228.96 C 349.73,229.09 351.16,229.23 352.52,229.36 C 353.87,229.49 355.15,229.63 356.36,229.77 C 357.57,229.90 358.70,230.04 359.76,230.18 C 360.82,230.32 361.80,230.46 362.71,230.60 C 363.62,230.74 364.46,230.89 365.22,231.03 C 365.98,231.18 366.64,231.32 367.28,231.47 C 367.92,231.61 368.52,231.76 369.06,231.91 C 369.61,232.05 370.11,232.20 370.56,232.34 C 371.02,232.49 371.42,232.64 371.78,232.78 C 372.14,232.93 372.45,233.07 372.72,233.22 C 372.98,233.36 373.20,233.51 373.38,233.66 C 373.55,233.80 373.67,233.95 373.75,234.09 C 373.83,234.24 373.86,234.39 373.84,234.53 C 373.83,234.68 373.75,234.82 373.66,234.97 C 373.56,235.12 373.44,235.26 373.29,235.41 C 373.14,235.56 372.95,235.71 372.74,235.87 C 372.53,236.02 372.29,236.17 372.02,236.33 C 371.74,236.48 371.44,236.64 371.11,236.80 C 370.78,236.95 370.42,237.11 370.02,237.27 C 369.63,237.43 369.21,237.60 368.76,237.76 C 368.31,237.92 367.82,238.08 367.31,238.25 C 366.80,238.42 366.31,238.59 365.69,238.75 C 365.07,238.91 364.36,239.06 363.58,239.20 C 362.79,239.35 361.93,239.48 360.98,239.61 C 360.04,239.74 359.01,239.86 357.91,239.97 C 356.80,240.08 355.61,240.18 354.34,240.28 C 353.08,240.38 351.73,240.47 350.30,240.55 C 348.87,240.63 347.36,240.70 345.77,240.77 C 344.17,240.83 342.50,240.89 340.75,240.94 C 339.00,240.99 337.02,241.02 335.25,241.06 C 333.48,241.11 331.79,241.16 330.16,241.22 C 328.53,241.28 326.96,241.34 325.47,241.41 C 323.97,241.47 322.55,241.55 321.19,241.62 C 319.83,241.70 318.54,241.79 317.31,241.88 C 316.09,241.96 314.93,242.06 313.84,242.16 C 312.76,242.26 311.73,242.36 310.78,242.47 C 309.83,242.58 308.94,242.69 308.12,242.81 C 307.31,242.93 306.58,243.06 305.88,243.19 C 305.17,243.31 304.52,243.44 303.92,243.56 C 303.32,243.69 302.77,243.81 302.27,243.94 C 301.76,244.06 301.31,244.19 300.91,244.31 C 300.50,244.44 300.15,244.56 299.84,244.69 C 299.54,244.81 299.28,244.94 299.08,245.06 C 298.87,245.19 298.72,245.31 298.61,245.44 C 298.50,245.56 298.45,245.69 298.44,245.81 C 298.43,245.94 298.55,246.07 298.56,246.19 C 298.57,246.30 298.55,246.41 298.49,246.51 C 298.44,246.61 298.35,246.69 298.23,246.77 C 298.11,246.85 297.95,246.92 297.77,246.98 C 297.58,247.05 297.36,247.10 297.11,247.14 C 296.86,247.18 296.57,247.22 296.26,247.24 C 295.94,247.27 295.59,247.28 295.21,247.29 C 294.83,247.30 294.42,247.29 293.97,247.28 C 293.52,247.27 292.98,247.23 292.53,247.22 C 292.08,247.20 291.67,247.19 291.28,247.19 C 290.90,247.18 290.54,247.18 290.22,247.19 C 289.90,247.19 289.60,247.20 289.34,247.22 C 289.08,247.23 288.85,247.26 288.66,247.28 C 288.46,247.31 288.29,247.34 288.16,247.38 C 288.02,247.41 287.92,247.45 287.84,247.50 C 287.77,247.55 287.73,247.60 287.72,247.66 C 287.71,247.71 287.74,247.78 287.78,247.84 C 287.83,247.91 287.90,247.97 287.99,248.04 C 288.09,248.11 288.21,248.17 288.35,248.24 C 288.50,248.31 288.67,248.38 288.86,248.45 C 289.05,248.52 289.27,248.60 289.52,248.67 C 289.76,248.75 290.03,248.82 290.32,248.90 C 290.61,248.98 290.93,249.05 291.27,249.13 C 291.62,249.21 291.98,249.29 292.38,249.38 C 292.77,249.46 293.22,249.54 293.62,249.62 C 294.03,249.71 294.43,249.81 294.82,249.91 C 295.21,250.02 295.59,250.13 295.96,250.24 C 296.33,250.36 296.69,250.48 297.05,250.61 C 297.40,250.74 297.74,250.87 298.08,251.02 C 298.41,251.16 298.74,251.31 299.05,251.46 C 299.37,251.62 299.68,251.78 299.98,251.95 C 300.27,252.11 300.56,252.29 300.84,252.47 C 301.12,252.65 301.41,252.84 301.66,253.03 C 301.90,253.22 302.12,253.41 302.31,253.59 C 302.51,253.78 302.67,253.97 302.81,254.16 C 302.95,254.34 303.07,254.53 303.16,254.72 C 303.24,254.91 303.31,255.09 303.34,255.28 C 303.38,255.47 303.39,255.66 303.38,255.84 C 303.36,256.03 303.32,256.22 303.25,256.41 C 303.18,256.59 303.09,256.78 302.97,256.97 C 302.85,257.16 302.70,257.35 302.53,257.53 C 302.36,257.71 302.17,257.89 301.95,258.07 C 301.73,258.25 301.48,258.42 301.21,258.59 C 300.94,258.75 300.65,258.92 300.33,259.08 C 300.01,259.24 299.67,259.39 299.30,259.55 C 298.93,259.70 298.54,259.85 298.12,259.99 C 297.70,260.14 297.26,260.28 296.79,260.41 C 296.32,260.55 295.83,260.68 295.31,260.81 C 294.80,260.94 294.20,261.07 293.69,261.19 C 293.18,261.31 292.71,261.43 292.27,261.55 C 291.83,261.66 291.42,261.78 291.05,261.89 C 290.67,262.00 290.34,262.11 290.03,262.22 C 289.73,262.33 289.46,262.43 289.22,262.53 C 288.98,262.63 288.78,262.73 288.61,262.83 C 288.44,262.92 288.30,263.02 288.20,263.11 C 288.10,263.20 288.03,263.29 288.00,263.38 C 287.97,263.46 287.97,263.55 288.00,263.62 C 288.03,263.70 288.09,263.77 288.17,263.83 C 288.26,263.89 288.37,263.94 288.52,263.98 C 288.66,264.03 288.83,264.07 289.03,264.09 C 289.23,264.12 289.46,264.14 289.72,264.16 C 289.98,264.17 290.26,264.17 290.58,264.17 C 290.89,264.17 291.24,264.16 291.61,264.14 C 291.98,264.12 292.38,264.10 292.81,264.06 C 293.24,264.03 293.76,263.97 294.19,263.94 C 294.61,263.91 295.01,263.89 295.38,263.88 C 295.74,263.86 296.07,263.86 296.38,263.88 C 296.68,263.89 296.95,263.91 297.19,263.94 C 297.43,263.97 297.64,264.01 297.81,264.06 C 297.99,264.11 298.14,264.18 298.25,264.25 C 298.36,264.32 298.45,264.41 298.50,264.50 C 298.55,264.59 298.57,264.70 298.56,264.81 C 298.55,264.93 298.43,265.06 298.44,265.19 C 298.45,265.31 298.50,265.44 298.61,265.56 C 298.72,265.69 298.87,265.81 299.08,265.94 C 299.28,266.06 299.54,266.19 299.84,266.31 C 300.15,266.44 300.50,266.56 300.91,266.69 C 301.31,266.81 301.76,266.94 302.27,267.06 C 302.77,267.19 303.32,267.31 303.92,267.44 C 304.52,267.56 305.17,267.69 305.88,267.81 C 306.58,267.94 307.31,268.07 308.12,268.19 C 308.94,268.31 309.82,268.42 310.77,268.53 C 311.71,268.64 312.72,268.74 313.80,268.84 C 314.87,268.94 316.01,269.04 317.22,269.12 C 318.42,269.21 319.70,269.30 321.03,269.38 C 322.37,269.45 323.77,269.53 325.23,269.59 C 326.70,269.66 328.23,269.72 329.83,269.78 C 331.42,269.84 333.09,269.89 334.81,269.94 C 336.54,269.98 338.47,270.01 340.19,270.06 C 341.90,270.11 343.54,270.17 345.11,270.23 C 346.67,270.30 348.16,270.37 349.58,270.45 C 350.99,270.53 352.33,270.62 353.59,270.72 C 354.86,270.82 356.04,270.92 357.16,271.03 C 358.27,271.14 359.30,271.26 360.27,271.39 C 361.23,271.52 362.11,271.65 362.92,271.80 C 363.73,271.94 364.47,272.09 365.12,272.25 C 365.78,272.41 366.32,272.59 366.88,272.75 C 367.43,272.91 367.95,273.07 368.45,273.23 C 368.94,273.38 369.40,273.53 369.84,273.68 C 370.27,273.83 370.67,273.97 371.05,274.11 C 371.42,274.25 371.76,274.38 372.08,274.52 C 372.39,274.65 372.68,274.77 372.93,274.90 C 373.18,275.02 373.41,275.14 373.60,275.26 C 373.80,275.37 373.96,275.49 374.09,275.59 C 374.23,275.70 374.31,275.80 374.41,275.91 C 374.50,276.01 374.58,276.11 374.66,276.22 C 374.73,276.32 374.79,276.43 374.84,276.53 C 374.90,276.64 374.94,276.74 374.97,276.84 C 375.00,276.95 375.02,277.05 375.03,277.16 C 375.04,277.26 375.04,277.36 375.03,277.47 C 375.02,277.57 375.00,277.68 374.97,277.78 C 374.94,277.89 374.90,277.99 374.84,278.09 C 374.79,278.20 374.87,278.30 374.66,278.41 C 374.44,278.52 374.07,278.63 373.54,278.76 C 373.01,278.88 372.33,279.01 371.49,279.15 C 370.65,279.29 369.66,279.43 368.52,279.58 C 367.37,279.73 366.07,279.88 364.61,280.05 C 363.15,280.21 361.54,280.38 359.77,280.55 C 358.01,280.73 356.08,280.91 354.01,281.10 C 351.93,281.29 349.70,281.49 347.31,281.69 C 344.93,281.89 342.18,282.11 339.69,282.31 C 337.19,282.51 334.74,282.70 332.34,282.88 C 329.94,283.05 327.59,283.22 325.28,283.38 C 322.97,283.53 320.71,283.68 318.50,283.81 C 316.29,283.95 314.12,284.07 312.00,284.19 C 309.88,284.30 307.81,284.41 305.78,284.50 C 303.76,284.59 301.78,284.68 299.84,284.75 C 297.91,284.82 296.03,284.89 294.19,284.94 C 292.35,284.99 290.63,285.02 288.81,285.06 C 286.99,285.10 285.14,285.14 283.27,285.17 C 281.39,285.21 279.48,285.24 277.55,285.27 C 275.61,285.29 273.65,285.32 271.66,285.34 C 269.66,285.37 267.64,285.39 265.59,285.41 C 263.54,285.42 261.47,285.44 259.36,285.45 C 257.25,285.47 255.12,285.48 252.95,285.48 C 250.79,285.49 248.60,285.50 246.38,285.50 Z" />
    </clipPath>
  </defs>
  <path d="M 246.38,285.50 C 244.15,285.50 241.85,285.51 239.62,285.50 C 237.40,285.49 235.19,285.46 233.00,285.42 C 230.81,285.38 228.65,285.33 226.50,285.27 C 224.35,285.20 222.23,285.12 220.12,285.03 C 218.02,284.94 215.94,284.84 213.88,284.72 C 211.81,284.60 209.77,284.47 207.75,284.33 C 205.73,284.18 203.73,284.03 201.75,283.86 C 199.77,283.69 197.81,283.51 195.88,283.31 C 193.94,283.12 191.97,282.89 190.12,282.69 C 188.28,282.48 186.50,282.28 184.80,282.08 C 183.09,281.88 181.46,281.68 179.89,281.48 C 178.33,281.29 176.83,281.10 175.41,280.91 C 173.98,280.72 172.63,280.53 171.34,280.34 C 170.06,280.16 168.85,279.98 167.70,279.80 C 166.56,279.62 165.49,279.44 164.48,279.27 C 163.48,279.09 162.55,278.92 161.69,278.75 C 160.83,278.58 160.09,278.42 159.31,278.25 C 158.53,278.08 157.76,277.90 157.01,277.71 C 156.25,277.52 155.51,277.33 154.77,277.13 C 154.04,276.93 153.32,276.73 152.61,276.52 C 151.90,276.30 151.20,276.08 150.52,275.86 C 149.83,275.63 149.15,275.40 148.49,275.16 C 147.83,274.93 147.18,274.68 146.54,274.43 C 145.90,274.18 145.27,273.92 144.66,273.66 C 144.04,273.39 143.39,273.10 142.84,272.84 C 142.30,272.58 141.82,272.33 141.41,272.09 C 140.99,271.85 140.64,271.62 140.34,271.41 C 140.05,271.19 139.82,270.98 139.66,270.78 C 139.49,270.58 139.39,270.40 139.34,270.22 C 139.30,270.04 139.32,269.88 139.41,269.72 C 139.49,269.56 139.64,269.42 139.84,269.28 C 140.05,269.15 140.32,269.02 140.66,268.91 C 140.99,268.79 141.42,268.69 141.84,268.59 C 142.27,268.50 142.73,268.40 143.21,268.32 C 143.70,268.24 144.21,268.16 144.76,268.09 C 145.30,268.01 145.88,267.95 146.48,267.89 C 147.09,267.83 147.73,267.78 148.39,267.73 C 149.06,267.69 149.75,267.65 150.48,267.62 C 151.20,267.58 151.96,267.56 152.74,267.54 C 153.53,267.52 154.34,267.51 155.19,267.50 C 156.03,267.49 156.99,267.51 157.81,267.50 C 158.63,267.49 159.39,267.48 160.09,267.47 C 160.80,267.45 161.44,267.43 162.03,267.41 C 162.62,267.38 163.15,267.35 163.62,267.31 C 164.10,267.28 164.52,267.23 164.88,267.19 C 165.23,267.14 165.54,267.09 165.78,267.03 C 166.03,266.97 166.21,266.91 166.34,266.84 C 166.47,266.78 166.55,266.70 166.56,266.62 C 166.58,266.55 166.49,266.45 166.44,266.38 C 166.39,266.30 166.32,266.22 166.25,266.16 C 166.18,266.09 166.09,266.03 166.00,265.97 C 165.91,265.91 165.80,265.86 165.69,265.81 C 165.57,265.77 165.45,265.72 165.31,265.69 C 165.18,265.65 165.03,265.62 164.88,265.59 C 164.72,265.57 164.55,265.55 164.38,265.53 C 164.20,265.52 164.01,265.51 163.81,265.50 C 163.61,265.49 163.42,265.52 163.19,265.50 C 162.95,265.48 162.68,265.45 162.39,265.39 C 162.10,265.34 161.77,265.26 161.42,265.17 C 161.07,265.08 160.69,264.97 160.28,264.84 C 159.87,264.72 159.43,264.57 158.97,264.41 C 158.50,264.24 158.01,264.06 157.48,263.86 C 156.96,263.66 156.41,263.44 155.83,263.20 C 155.25,262.97 154.64,262.71 154.00,262.44 C 153.36,262.16 152.71,261.84 152.00,261.56 C 151.29,261.29 150.55,261.03 149.76,260.79 C 148.97,260.55 148.14,260.32 147.27,260.12 C 146.40,259.91 145.50,259.72 144.55,259.55 C 143.60,259.37 142.61,259.22 141.58,259.08 C 140.55,258.94 139.48,258.82 138.37,258.71 C 137.26,258.61 136.11,258.52 134.91,258.45 C 133.72,258.37 132.49,258.32 131.22,258.28 C 129.95,258.24 128.51,258.25 127.28,258.22 C 126.05,258.18 124.91,258.14 123.84,258.08 C 122.78,258.02 121.80,257.95 120.91,257.86 C 120.01,257.77 119.20,257.67 118.47,257.56 C 117.74,257.45 117.09,257.33 116.53,257.19 C 115.97,257.05 115.49,256.90 115.09,256.73 C 114.70,256.57 114.39,256.39 114.16,256.20 C 113.93,256.01 113.78,255.81 113.72,255.59 C 113.66,255.38 113.68,255.12 113.78,254.91 C 113.88,254.69 114.06,254.49 114.32,254.30 C 114.58,254.12 114.92,253.95 115.34,253.79 C 115.75,253.63 116.25,253.49 116.83,253.36 C 117.40,253.23 118.06,253.12 118.80,253.02 C 119.53,252.92 120.35,252.83 121.24,252.76 C 122.14,252.69 123.11,252.63 124.16,252.59 C 125.22,252.54 126.35,252.51 127.56,252.50 C 128.77,252.49 130.21,252.51 131.44,252.50 C 132.67,252.49 133.83,252.47 134.94,252.44 C 136.04,252.41 137.08,252.36 138.06,252.31 C 139.04,252.26 139.96,252.20 140.81,252.12 C 141.67,252.05 142.46,251.97 143.19,251.88 C 143.92,251.78 144.58,251.68 145.19,251.56 C 145.79,251.45 146.33,251.32 146.81,251.19 C 147.29,251.05 147.71,250.91 148.06,250.75 C 148.42,250.59 148.63,250.41 148.94,250.25 C 149.25,250.09 149.58,249.92 149.92,249.77 C 150.27,249.61 150.63,249.45 151.02,249.30 C 151.40,249.14 151.80,248.99 152.22,248.84 C 152.64,248.70 153.08,248.55 153.53,248.41 C 153.99,248.26 154.46,248.12 154.95,247.98 C 155.45,247.85 155.96,247.71 156.48,247.58 C 157.01,247.45 157.56,247.32 158.12,247.19 C 158.69,247.06 159.33,246.93 159.88,246.81 C 160.42,246.69 160.94,246.57 161.42,246.45 C 161.90,246.34 162.35,246.22 162.77,246.11 C 163.18,246.00 163.56,245.89 163.91,245.78 C 164.25,245.67 164.57,245.57 164.84,245.47 C 165.12,245.37 165.37,245.27 165.58,245.17 C 165.79,245.08 165.97,244.98 166.11,244.89 C 166.25,244.80 166.36,244.71 166.44,244.62 C 166.51,244.54 166.58,244.45 166.56,244.38 C 166.55,244.30 166.47,244.22 166.34,244.16 C 166.21,244.09 166.03,244.03 165.78,243.97 C 165.54,243.91 165.23,243.86 164.88,243.81 C 164.52,243.77 164.10,243.72 163.62,243.69 C 163.15,243.65 162.62,243.62 162.03,243.59 C 161.44,243.57 160.80,243.55 160.09,243.53 C 159.39,243.52 158.63,243.51 157.81,243.50 C 156.99,243.49 156.03,243.51 155.19,243.50 C 154.34,243.49 153.53,243.48 152.74,243.46 C 151.96,243.44 151.20,243.42 150.48,243.38 C 149.75,243.35 149.06,243.31 148.39,243.27 C 147.73,243.22 147.09,243.17 146.48,243.11 C 145.88,243.05 145.30,242.99 144.76,242.91 C 144.21,242.84 143.70,242.76 143.21,242.68 C 142.73,242.60 142.27,242.50 141.84,242.41 C 141.42,242.31 141.01,242.20 140.66,242.09 C 140.30,241.99 139.98,241.88 139.70,241.77 C 139.42,241.65 139.18,241.54 138.98,241.42 C 138.78,241.30 138.62,241.18 138.50,241.06 C 138.38,240.94 138.29,240.82 138.25,240.69 C 138.21,240.56 138.20,240.43 138.23,240.30 C 138.27,240.16 138.34,240.03 138.45,239.89 C 138.57,239.75 138.72,239.61 138.91,239.47 C 139.10,239.33 139.33,239.18 139.59,239.03 C 139.85,238.88 140.14,238.73 140.46,238.57 C 140.78,238.41 141.13,238.25 141.51,238.09 C 141.89,237.92 142.30,237.75 142.73,237.58 C 143.17,237.40 143.64,237.23 144.14,237.05 C 144.64,236.87 145.17,236.68 145.73,236.49 C 146.29,236.30 146.87,236.11 147.49,235.91 C 148.11,235.72 148.76,235.52 149.44,235.31 C 150.12,235.11 150.75,234.90 151.56,234.69 C 152.37,234.47 153.28,234.26 154.30,234.03 C 155.31,233.81 156.42,233.58 157.64,233.34 C 158.86,233.11 160.17,232.87 161.59,232.62 C 163.01,232.38 164.53,232.13 166.16,231.88 C 167.78,231.62 169.50,231.36 171.33,231.09 C 173.15,230.83 175.08,230.56 177.11,230.28 C 179.14,230.01 181.27,229.72 183.50,229.44 C 185.73,229.15 188.20,228.84 190.50,228.56 C 192.80,228.29 195.07,228.03 197.31,227.80 C 199.55,227.56 201.76,227.34 203.94,227.14 C 206.11,226.94 208.26,226.76 210.38,226.59 C 212.49,226.43 214.57,226.28 216.62,226.16 C 218.68,226.03 220.70,225.92 222.69,225.83 C 224.68,225.74 226.64,225.66 228.56,225.61 C 230.49,225.55 232.39,225.52 234.25,225.50 C 236.11,225.48 237.89,225.50 239.75,225.50 C 241.61,225.50 243.49,225.51 245.41,225.52 C 247.32,225.52 249.26,225.53 251.22,225.55 C 253.18,225.56 255.17,225.58 257.19,225.59 C 259.20,225.61 261.24,225.63 263.31,225.66 C 265.38,225.68 267.47,225.71 269.59,225.73 C 271.71,225.76 273.86,225.79 276.03,225.83 C 278.20,225.86 280.40,225.90 282.62,225.94 C 284.85,225.98 287.15,226.02 289.38,226.06 C 291.60,226.11 293.80,226.16 295.98,226.22 C 298.16,226.28 300.32,226.34 302.45,226.41 C 304.59,226.47 306.70,226.55 308.78,226.62 C 310.87,226.70 312.93,226.79 314.97,226.88 C 317.01,226.96 319.02,227.06 321.02,227.16 C 323.01,227.26 324.98,227.36 326.92,227.47 C 328.87,227.58 330.79,227.69 332.69,227.81 C 334.59,227.93 336.51,228.06 338.31,228.19 C 340.11,228.31 341.84,228.44 343.49,228.57 C 345.14,228.70 346.72,228.83 348.23,228.96 C 349.73,229.09 351.16,229.23 352.52,229.36 C 353.87,229.49 355.15,229.63 356.36,229.77 C 357.57,229.90 358.70,230.04 359.76,230.18 C 360.82,230.32 361.80,230.46 362.71,230.60 C 363.62,230.74 364.46,230.89 365.22,231.03 C 365.98,231.18 366.64,231.32 367.28,231.47 C 367.92,231.61 368.52,231.76 369.06,231.91 C 369.61,232.05 370.11,232.20 370.56,232.34 C 371.02,232.49 371.42,232.64 371.78,232.78 C 372.14,232.93 372.45,233.07 372.72,233.22 C 372.98,233.36 373.20,233.51 373.38,233.66 C 373.55,233.80 373.67,233.95 373.75,234.09 C 373.83,234.24 373.86,234.39 373.84,234.53 C 373.83,234.68 373.75,234.82 373.66,234.97 C 373.56,235.12 373.44,235.26 373.29,235.41 C 373.14,235.56 372.95,235.71 372.74,235.87 C 372.53,236.02 372.29,236.17 372.02,236.33 C 371.74,236.48 371.44,236.64 371.11,236.80 C 370.78,236.95 370.42,237.11 370.02,237.27 C 369.63,237.43 369.21,237.60 368.76,237.76 C 368.31,237.92 367.82,238.08 367.31,238.25 C 366.80,238.42 366.31,238.59 365.69,238.75 C 365.07,238.91 364.36,239.06 363.58,239.20 C 362.79,239.35 361.93,239.48 360.98,239.61 C 360.04,239.74 359.01,239.86 357.91,239.97 C 356.80,240.08 355.61,240.18 354.34,240.28 C 353.08,240.38 351.73,240.47 350.30,240.55 C 348.87,240.63 347.36,240.70 345.77,240.77 C 344.17,240.83 342.50,240.89 340.75,240.94 C 339.00,240.99 337.02,241.02 335.25,241.06 C 333.48,241.11 331.79,241.16 330.16,241.22 C 328.53,241.28 326.96,241.34 325.47,241.41 C 323.97,241.47 322.55,241.55 321.19,241.62 C 319.83,241.70 318.54,241.79 317.31,241.88 C 316.09,241.96 314.93,242.06 313.84,242.16 C 312.76,242.26 311.73,242.36 310.78,242.47 C 309.83,242.58 308.94,242.69 308.12,242.81 C 307.31,242.93 306.58,243.06 305.88,243.19 C 305.17,243.31 304.52,243.44 303.92,243.56 C 303.32,243.69 302.77,243.81 302.27,243.94 C 301.76,244.06 301.31,244.19 300.91,244.31 C 300.50,244.44 300.15,244.56 299.84,244.69 C 299.54,244.81 299.28,244.94 299.08,245.06 C 298.87,245.19 298.72,245.31 298.61,245.44 C 298.50,245.56 298.45,245.69 298.44,245.81 C 298.43,245.94 298.55,246.07 298.56,246.19 C 298.57,246.30 298.55,246.41 298.49,246.51 C 298.44,246.61 298.35,246.69 298.23,246.77 C 298.11,246.85 297.95,246.92 297.77,246.98 C 297.58,247.05 297.36,247.10 297.11,247.14 C 296.86,247.18 296.57,247.22 296.26,247.24 C 295.94,247.27 295.59,247.28 295.21,247.29 C 294.83,247.30 294.42,247.29 293.97,247.28 C 293.52,247.27 292.98,247.23 292.53,247.22 C 292.08,247.20 291.67,247.19 291.28,247.19 C 290.90,247.18 290.54,247.18 290.22,247.19 C 289.90,247.19 289.60,247.20 289.34,247.22 C 289.08,247.23 288.85,247.26 288.66,247.28 C 288.46,247.31 288.29,247.34 288.16,247.38 C 288.02,247.41 287.92,247.45 287.84,247.50 C 287.77,247.55 287.73,247.60 287.72,247.66 C 287.71,247.71 287.74,247.78 287.78,247.84 C 287.83,247.91 287.90,247.97 287.99,248.04 C 288.09,248.11 288.21,248.17 288.35,248.24 C 288.50,248.31 288.67,248.38 288.86,248.45 C 289.05,248.52 289.27,248.60 289.52,248.67 C 289.76,248.75 290.03,248.82 290.32,248.90 C 290.61,248.98 290.93,249.05 291.27,249.13 C 291.62,249.21 291.98,249.29 292.38,249.38 C 292.77,249.46 293.22,249.54 293.62,249.62 C 294.03,249.71 294.43,249.81 294.82,249.91 C 295.21,250.02 295.59,250.13 295.96,250.24 C 296.33,250.36 296.69,250.48 297.05,250.61 C 297.40,250.74 297.74,250.87 298.08,251.02 C 298.41,251.16 298.74,251.31 299.05,251.46 C 299.37,251.62 299.68,251.78 299.98,251.95 C 300.27,252.11 300.56,252.29 300.84,252.47 C 301.12,252.65 301.41,252.84 301.66,253.03 C 301.90,253.22 302.12,253.41 302.31,253.59 C 302.51,253.78 302.67,253.97 302.81,254.16 C 302.95,254.34 303.07,254.53 303.16,254.72 C 303.24,254.91 303.31,255.09 303.34,255.28 C 303.38,255.47 303.39,255.66 303.38,255.84 C 303.36,256.03 303.32,256.22 303.25,256.41 C 303.18,256.59 303.09,256.78 302.97,256.97 C 302.85,257.16 302.70,257.35 302.53,257.53 C 302.36,257.71 302.17,257.89 301.95,258.07 C 301.73,258.25 301.48,258.42 301.21,258.59 C 300.94,258.75 300.65,258.92 300.33,259.08 C 300.01,259.24 299.67,259.39 299.30,259.55 C 298.93,259.70 298.54,259.85 298.12,259.99 C 297.70,260.14 297.26,260.28 296.79,260.41 C 296.32,260.55 295.83,260.68 295.31,260.81 C 294.80,260.94 294.20,261.07 293.69,261.19 C 293.18,261.31 292.71,261.43 292.27,261.55 C 291.83,261.66 291.42,261.78 291.05,261.89 C 290.67,262.00 290.34,262.11 290.03,262.22 C 289.73,262.33 289.46,262.43 289.22,262.53 C 288.98,262.63 288.78,262.73 288.61,262.83 C 288.44,262.92 288.30,263.02 288.20,263.11 C 288.10,263.20 288.03,263.29 288.00,263.38 C 287.97,263.46 287.97,263.55 288.00,263.62 C 288.03,263.70 288.09,263.77 288.17,263.83 C 288.26,263.89 288.37,263.94 288.52,263.98 C 288.66,264.03 288.83,264.07 289.03,264.09 C 289.23,264.12 289.46,264.14 289.72,264.16 C 289.98,264.17 290.26,264.17 290.58,264.17 C 290.89,264.17 291.24,264.16 291.61,264.14 C 291.98,264.12 292.38,264.10 292.81,264.06 C 293.24,264.03 293.76,263.97 294.19,263.94 C 294.61,263.91 295.01,263.89 295.38,263.88 C 295.74,263.86 296.07,263.86 296.38,263.88 C 296.68,263.89 296.95,263.91 297.19,263.94 C 297.43,263.97 297.64,264.01 297.81,264.06 C 297.99,264.11 298.14,264.18 298.25,264.25 C 298.36,264.32 298.45,264.41 298.50,264.50 C 298.55,264.59 298.57,264.70 298.56,264.81 C 298.55,264.93 298.43,265.06 298.44,265.19 C 298.45,265.31 298.50,265.44 298.61,265.56 C 298.72,265.69 298.87,265.81 299.08,265.94 C 299.28,266.06 299.54,266.19 299.84,266.31 C 300.15,266.44 300.50,266.56 300.91,266.69 C 301.31,266.81 301.76,266.94 302.27,267.06 C 302.77,267.19 303.32,267.31 303.92,267.44 C 304.52,267.56 305.17,267.69 305.88,267.81 C 306.58,267.94 307.31,268.07 308.12,268.19 C 308.94,268.31 309.82,268.42 310.77,268.53 C 311.71,268.64 312.72,268.74 313.80,268.84 C 314.87,268.94 316.01,269.04 317.22,269.12 C 318.42,269.21 319.70,269.30 321.03,269.38 C 322.37,269.45 323.77,269.53 325.23,269.59 C 326.70,269.66 328.23,269.72 329.83,269.78 C 331.42,269.84 333.09,269.89 334.81,269.94 C 336.54,269.98 338.47,270.01 340.19,270.06 C 341.90,270.11 343.54,270.17 345.11,270.23 C 346.67,270.30 348.16,270.37 349.58,270.45 C 350.99,270.53 352.33,270.62 353.59,270.72 C 354.86,270.82 356.04,270.92 357.16,271.03 C 358.27,271.14 359.30,271.26 360.27,271.39 C 361.23,271.52 362.11,271.65 362.92,271.80 C 363.73,271.94 364.47,272.09 365.12,272.25 C 365.78,272.41 366.32,272.59 366.88,272.75 C 367.43,272.91 367.95,273.07 368.45,273.23 C 368.94,273.38 369.40,273.53 369.84,273.68 C 370.27,273.83 370.67,273.97 371.05,274.11 C 371.42,274.25 371.76,274.38 372.08,274.52 C 372.39,274.65 372.68,274.77 372.93,274.90 C 373.18,275.02 373.41,275.14 373.60,275.26 C 373.80,275.37 373.96,275.49 374.09,275.59 C 374.23,275.70 374.31,275.80 374.41,275.91 C 374.50,276.01 374.58,276.11 374.66,276.22 C 374.73,276.32 374.79,276.43 374.84,276.53 C 374.90,276.64 374.94,276.74 374.97,276.84 C 375.00,276.95 375.02,277.05 375.03,277.16 C 375.04,277.26 375.04,277.36 375.03,277.47 C 375.02,277.57 375.00,277.68 374.97,277.78 C 374.94,277.89 374.90,277.99 374.84,278.09 C 374.79,278.20 374.87,278.30 374.66,278.41 C 374.44,278.52 374.07,278.63 373.54,278.76 C 373.01,278.88 372.33,279.01 371.49,279.15 C 370.65,279.29 369.66,279.43 368.52,279.58 C 367.37,279.73 366.07,279.88 364.61,280.05 C 363.15,280.21 361.54,280.38 359.77,280.55 C 358.01,280.73 356.08,280.91 354.01,281.10 C 351.93,281.29 349.70,281.49 347.31,281.69 C 344.93,281.89 342.18,282.11 339.69,282.31 C 337.19,282.51 334.74,282.70 332.34,282.88 C 329.94,283.05 327.59,283.22 325.28,283.38 C 322.97,283.53 320.71,283.68 318.50,283.81 C 316.29,283.95 314.12,284.07 312.00,284.19 C 309.88,284.30 307.81,284.41 305.78,284.50 C 303.76,284.59 301.78,284.68 299.84,284.75 C 297.91,284.82 296.03,284.89 294.19,284.94 C 292.35,284.99 290.63,285.02 288.81,285.06 C 286.99,285.10 285.14,285.14 283.27,285.17 C 281.39,285.21 279.48,285.24 277.55,285.27 C 275.61,285.29 273.65,285.32 271.66,285.34 C 269.66,285.37 267.64,285.39 265.59,285.41 C 263.54,285.42 261.47,285.44 259.36,285.45 C 257.25,285.47 255.12,285.48 252.95,285.48 C 250.79,285.49 248.60,285.50 246.38,285.50 Z" stroke="none" fill="currentColor" opacity="0.11" />
  <path d="M281.22,252.56L271.64,252.75 M271.76,259.13L281.01,258.94 M260.58,259.35L269.12,260.13 M269.12,260.13L260.39,259.33 M256.52,260.22L256.55,248.62 M267.32,258.42L275.00,258.50 M244.16,252.60L242.73,260.11 M242.73,260.11L244.34,251.65 M254.10,250.23L245.18,249.21 M245.18,249.21L253.24,250.11 M249.73,247.96L249.73,262.95 M248.51,262.95L248.51,247.96 M251.45,247.96L251.45,262.95 M250.23,262.95L250.23,247.96 M255.12,262.80L244.84,262.80 M244.84,248.11L255.12,248.11 M255.12,248.11L245.48,248.11 M254.86,253.34L254.65,253.34 M274.16,258.35L256.20,258.35 M262.57,259.45L270.43,259.45 M254.86,259.37L254.65,259.37 M291.78,269.87L301.40,270.07 M283.50,280.53L272.71,281.07 M315.68,279.82L323.82,279.73 M315.68,279.76L323.82,279.67 M342.11,279.33L349.48,279.16 M342.12,279.39L349.49,279.22 M349.49,279.22L356.82,279.03 M349.55,281.69L356.86,281.13 M291.82,268.99L314.78,273.50 M314.78,273.50L330.41,274.78 M302.24,283.80L318.78,282.99 M318.78,282.99L333.80,281.89 M356.52,276.43L349.29,276.16 M349.29,276.16L342.08,275.81 M315.76,273.32L307.83,272.15 M354.91,272.24L348.08,271.94 M345.40,271.94L334.70,271.47 M348.08,271.94L337.22,271.55 M334.70,271.47L324.01,271.01 M337.22,271.55L326.36,271.16 M324.01,271.01L313.30,270.55 M323.95,272.02L313.26,271.56 M352.16,277.25L334.03,276.65 M352.16,277.25L371.09,277.62 M370.82,278.97L352.12,279.81 M256.61,234.32L248.17,234.60 M256.61,234.57L248.17,234.85 M315.76,238.68L307.83,239.85 M298.27,243.58L277.28,242.81 M301.63,241.45L309.44,241.12 M281.17,238.83L279.76,237.20 M323.82,232.28L315.69,232.18 M323.82,232.34L315.68,232.24 M315.77,227.98L323.91,228.42 M291.82,243.01L314.78,238.50 M314.78,238.50L330.41,237.22 M302.24,228.18L318.78,229.01 M318.78,229.01L333.80,230.11 M356.52,235.57L349.29,235.84 M349.29,235.84L342.08,236.19 M354.91,239.76L348.08,240.06 M352.11,234.76L371.05,234.39 M352.11,234.76L333.98,235.35 M370.78,233.03L352.08,232.20 M255.88,243.25L280.74,253.51 M280.74,253.51L260.97,245.36 M244.82,269.21L252.04,268.98 M268.99,263.20L260.91,266.50 M256.12,243.52L280.71,253.65 M280.71,253.65L260.91,245.51 M260.91,245.51L268.99,248.80 M252.04,243.02L244.82,242.79 M171.59,254.57L181.18,254.57 M181.18,257.43L171.59,257.43 M169.43,255.27L190.42,255.31 M181.82,254.73L170.27,254.78 M169.43,255.24L190.45,255.24 M183.55,253.59L190.45,253.59 M183.61,253.49L190.42,253.49 M190.42,258.51L183.61,258.51 M190.45,258.41L183.55,258.41 M190.45,256.76L169.43,256.76 M181.82,257.28L170.26,257.27 M190.42,256.70L169.43,256.73 M171.63,255.38L156.37,255.40 M171.63,256.60L156.37,256.60 M171.59,255.30L156.32,255.33 M171.59,256.68L156.32,256.68 M170.23,258.85L180.53,258.84 M180.53,257.54L170.23,257.54 M180.53,257.54L167.60,257.54 M167.60,254.46L180.53,254.46 M170.23,254.46L180.53,254.46 M180.53,253.16L170.23,253.15 M164.05,256.65L171.32,256.65 M171.32,256.96L164.05,256.96 M171.32,256.96L162.26,256.96 M162.28,257.09L171.32,257.09 M171.32,257.01L158.30,257.02 M171.32,257.09L158.29,257.09 M171.32,256.72L157.68,256.72 M171.32,255.36L164.05,255.36 M171.32,255.04L164.05,255.04 M171.32,255.04L162.25,255.04 M162.24,254.98L171.32,254.99 M162.28,254.91L171.32,254.91 M171.32,254.99L158.30,254.98 M171.32,254.91L158.29,254.91 M171.32,255.28L157.68,255.28 M187.88,259.34L181.12,259.34 M181.12,253.62L187.98,253.62 M187.88,258.38L181.02,258.38 M181.12,252.66L187.88,252.66 M190.96,258.18L181.50,258.18 M190.95,253.82L181.50,253.82 M168.36,258.06L153.28,258.05 M168.81,259.36L185.66,259.30 M180.52,258.49L187.19,258.57 M187.19,258.57L180.61,258.49 M168.36,253.94L153.28,253.95 M168.81,252.64L185.66,252.70 M180.52,253.52L187.19,253.43 M187.19,253.43L180.61,253.52 M172.55,251.52L182.87,251.51 M182.87,251.51L171.74,251.48 M172.55,260.48L182.87,260.50 M182.87,260.50L171.74,260.52 M162.65,254.04L180.37,253.94 M180.64,254.36L188.11,254.35 M162.65,257.97L180.37,258.06 M180.64,257.64L188.11,257.65 M180.17,252.46L170.33,252.46 M180.99,252.46L172.40,252.46 M180.17,259.54L170.33,259.54 M180.99,259.54L172.40,259.54 M182.96,253.67L169.22,253.67 M180.18,253.67L170.32,253.67 M180.18,258.33L170.32,258.33 M182.96,258.33L169.22,258.33 M178.90,252.03L170.24,252.03 M178.90,259.97L170.24,259.97 M158.14,256.37L168.53,256.37 M158.14,255.63L168.53,255.63 M172.42,258.85L180.97,258.85 M172.42,253.15L180.97,253.15 M216.89,228.45L224.46,228.66 M213.15,238.87L206.10,239.35 M206.10,239.35L197.41,239.93 M197.41,239.93L183.10,240.82 M152.09,242.76L144.57,241.90 M152.09,242.76L160.39,243.07 M160.39,243.07L169.41,243.07 M169.41,243.07L177.70,242.89 M216.89,283.55L224.46,283.34 M213.15,273.13L206.10,272.65 M206.10,272.65L197.41,272.07 M197.41,272.07L183.10,271.18 M152.10,269.24L144.58,270.10 M152.10,269.24L160.38,268.93 M160.38,268.93L169.41,268.93 M169.41,268.93L177.70,269.11 M236.04,248.37L203.93,247.48 M203.93,247.39L235.98,248.28 M203.91,247.42L235.75,248.30 M235.40,248.35L203.88,247.60 M203.88,247.51L235.34,248.26 M203.86,247.54L235.11,248.27 M234.79,248.32L203.77,247.60 M203.77,247.51L234.73,248.23 M203.75,247.54L234.50,248.24 M236.04,263.63L203.93,264.52 M203.93,264.61L235.98,263.72 M203.91,264.58L235.75,263.70 M235.40,263.65L203.88,264.40 M203.88,264.49L235.34,263.75 M203.86,264.46L235.11,263.73 M234.79,263.68L203.77,264.40 M203.77,264.49L234.73,263.78 M203.75,264.46L234.50,263.76 M236.19,280.51L242.80,279.38 M235.96,280.32L242.50,279.22 M242.80,279.38L250.03,276.88 M236.19,231.49L242.80,232.62 M235.96,231.68L242.50,232.78 M242.80,232.62L250.03,235.11 M220.95,251.73L221.41,260.11 M220.95,251.73L221.45,260.89 M227.60,253.29L234.05,253.29 M227.60,253.25L234.05,253.25 M237.75,258.41L238.72,258.41 M227.82,258.41L228.80,258.41" stroke="currentColor" stroke-width="0.6" stroke-linecap="round" fill="none" opacity="0.55" clip-path="url(#hull-clip)" filter="url(#glow)" />
  <path d="M 246.38,285.50 C 244.15,285.50 241.85,285.51 239.62,285.50 C 237.40,285.49 235.19,285.46 233.00,285.42 C 230.81,285.38 228.65,285.33 226.50,285.27 C 224.35,285.20 222.23,285.12 220.12,285.03 C 218.02,284.94 215.94,284.84 213.88,284.72 C 211.81,284.60 209.77,284.47 207.75,284.33 C 205.73,284.18 203.73,284.03 201.75,283.86 C 199.77,283.69 197.81,283.51 195.88,283.31 C 193.94,283.12 191.97,282.89 190.12,282.69 C 188.28,282.48 186.50,282.28 184.80,282.08 C 183.09,281.88 181.46,281.68 179.89,281.48 C 178.33,281.29 176.83,281.10 175.41,280.91 C 173.98,280.72 172.63,280.53 171.34,280.34 C 170.06,280.16 168.85,279.98 167.70,279.80 C 166.56,279.62 165.49,279.44 164.48,279.27 C 163.48,279.09 162.55,278.92 161.69,278.75 C 160.83,278.58 160.09,278.42 159.31,278.25 C 158.53,278.08 157.76,277.90 157.01,277.71 C 156.25,277.52 155.51,277.33 154.77,277.13 C 154.04,276.93 153.32,276.73 152.61,276.52 C 151.90,276.30 151.20,276.08 150.52,275.86 C 149.83,275.63 149.15,275.40 148.49,275.16 C 147.83,274.93 147.18,274.68 146.54,274.43 C 145.90,274.18 145.27,273.92 144.66,273.66 C 144.04,273.39 143.39,273.10 142.84,272.84 C 142.30,272.58 141.82,272.33 141.41,272.09 C 140.99,271.85 140.64,271.62 140.34,271.41 C 140.05,271.19 139.82,270.98 139.66,270.78 C 139.49,270.58 139.39,270.40 139.34,270.22 C 139.30,270.04 139.32,269.88 139.41,269.72 C 139.49,269.56 139.64,269.42 139.84,269.28 C 140.05,269.15 140.32,269.02 140.66,268.91 C 140.99,268.79 141.42,268.69 141.84,268.59 C 142.27,268.50 142.73,268.40 143.21,268.32 C 143.70,268.24 144.21,268.16 144.76,268.09 C 145.30,268.01 145.88,267.95 146.48,267.89 C 147.09,267.83 147.73,267.78 148.39,267.73 C 149.06,267.69 149.75,267.65 150.48,267.62 C 151.20,267.58 151.96,267.56 152.74,267.54 C 153.53,267.52 154.34,267.51 155.19,267.50 C 156.03,267.49 156.99,267.51 157.81,267.50 C 158.63,267.49 159.39,267.48 160.09,267.47 C 160.80,267.45 161.44,267.43 162.03,267.41 C 162.62,267.38 163.15,267.35 163.62,267.31 C 164.10,267.28 164.52,267.23 164.88,267.19 C 165.23,267.14 165.54,267.09 165.78,267.03 C 166.03,266.97 166.21,266.91 166.34,266.84 C 166.47,266.78 166.55,266.70 166.56,266.62 C 166.58,266.55 166.49,266.45 166.44,266.38 C 166.39,266.30 166.32,266.22 166.25,266.16 C 166.18,266.09 166.09,266.03 166.00,265.97 C 165.91,265.91 165.80,265.86 165.69,265.81 C 165.57,265.77 165.45,265.72 165.31,265.69 C 165.18,265.65 165.03,265.62 164.88,265.59 C 164.72,265.57 164.55,265.55 164.38,265.53 C 164.20,265.52 164.01,265.51 163.81,265.50 C 163.61,265.49 163.42,265.52 163.19,265.50 C 162.95,265.48 162.68,265.45 162.39,265.39 C 162.10,265.34 161.77,265.26 161.42,265.17 C 161.07,265.08 160.69,264.97 160.28,264.84 C 159.87,264.72 159.43,264.57 158.97,264.41 C 158.50,264.24 158.01,264.06 157.48,263.86 C 156.96,263.66 156.41,263.44 155.83,263.20 C 155.25,262.97 154.64,262.71 154.00,262.44 C 153.36,262.16 152.71,261.84 152.00,261.56 C 151.29,261.29 150.55,261.03 149.76,260.79 C 148.97,260.55 148.14,260.32 147.27,260.12 C 146.40,259.91 145.50,259.72 144.55,259.55 C 143.60,259.37 142.61,259.22 141.58,259.08 C 140.55,258.94 139.48,258.82 138.37,258.71 C 137.26,258.61 136.11,258.52 134.91,258.45 C 133.72,258.37 132.49,258.32 131.22,258.28 C 129.95,258.24 128.51,258.25 127.28,258.22 C 126.05,258.18 124.91,258.14 123.84,258.08 C 122.78,258.02 121.80,257.95 120.91,257.86 C 120.01,257.77 119.20,257.67 118.47,257.56 C 117.74,257.45 117.09,257.33 116.53,257.19 C 115.97,257.05 115.49,256.90 115.09,256.73 C 114.70,256.57 114.39,256.39 114.16,256.20 C 113.93,256.01 113.78,255.81 113.72,255.59 C 113.66,255.38 113.68,255.12 113.78,254.91 C 113.88,254.69 114.06,254.49 114.32,254.30 C 114.58,254.12 114.92,253.95 115.34,253.79 C 115.75,253.63 116.25,253.49 116.83,253.36 C 117.40,253.23 118.06,253.12 118.80,253.02 C 119.53,252.92 120.35,252.83 121.24,252.76 C 122.14,252.69 123.11,252.63 124.16,252.59 C 125.22,252.54 126.35,252.51 127.56,252.50 C 128.77,252.49 130.21,252.51 131.44,252.50 C 132.67,252.49 133.83,252.47 134.94,252.44 C 136.04,252.41 137.08,252.36 138.06,252.31 C 139.04,252.26 139.96,252.20 140.81,252.12 C 141.67,252.05 142.46,251.97 143.19,251.88 C 143.92,251.78 144.58,251.68 145.19,251.56 C 145.79,251.45 146.33,251.32 146.81,251.19 C 147.29,251.05 147.71,250.91 148.06,250.75 C 148.42,250.59 148.63,250.41 148.94,250.25 C 149.25,250.09 149.58,249.92 149.92,249.77 C 150.27,249.61 150.63,249.45 151.02,249.30 C 151.40,249.14 151.80,248.99 152.22,248.84 C 152.64,248.70 153.08,248.55 153.53,248.41 C 153.99,248.26 154.46,248.12 154.95,247.98 C 155.45,247.85 155.96,247.71 156.48,247.58 C 157.01,247.45 157.56,247.32 158.12,247.19 C 158.69,247.06 159.33,246.93 159.88,246.81 C 160.42,246.69 160.94,246.57 161.42,246.45 C 161.90,246.34 162.35,246.22 162.77,246.11 C 163.18,246.00 163.56,245.89 163.91,245.78 C 164.25,245.67 164.57,245.57 164.84,245.47 C 165.12,245.37 165.37,245.27 165.58,245.17 C 165.79,245.08 165.97,244.98 166.11,244.89 C 166.25,244.80 166.36,244.71 166.44,244.62 C 166.51,244.54 166.58,244.45 166.56,244.38 C 166.55,244.30 166.47,244.22 166.34,244.16 C 166.21,244.09 166.03,244.03 165.78,243.97 C 165.54,243.91 165.23,243.86 164.88,243.81 C 164.52,243.77 164.10,243.72 163.62,243.69 C 163.15,243.65 162.62,243.62 162.03,243.59 C 161.44,243.57 160.80,243.55 160.09,243.53 C 159.39,243.52 158.63,243.51 157.81,243.50 C 156.99,243.49 156.03,243.51 155.19,243.50 C 154.34,243.49 153.53,243.48 152.74,243.46 C 151.96,243.44 151.20,243.42 150.48,243.38 C 149.75,243.35 149.06,243.31 148.39,243.27 C 147.73,243.22 147.09,243.17 146.48,243.11 C 145.88,243.05 145.30,242.99 144.76,242.91 C 144.21,242.84 143.70,242.76 143.21,242.68 C 142.73,242.60 142.27,242.50 141.84,242.41 C 141.42,242.31 141.01,242.20 140.66,242.09 C 140.30,241.99 139.98,241.88 139.70,241.77 C 139.42,241.65 139.18,241.54 138.98,241.42 C 138.78,241.30 138.62,241.18 138.50,241.06 C 138.38,240.94 138.29,240.82 138.25,240.69 C 138.21,240.56 138.20,240.43 138.23,240.30 C 138.27,240.16 138.34,240.03 138.45,239.89 C 138.57,239.75 138.72,239.61 138.91,239.47 C 139.10,239.33 139.33,239.18 139.59,239.03 C 139.85,238.88 140.14,238.73 140.46,238.57 C 140.78,238.41 141.13,238.25 141.51,238.09 C 141.89,237.92 142.30,237.75 142.73,237.58 C 143.17,237.40 143.64,237.23 144.14,237.05 C 144.64,236.87 145.17,236.68 145.73,236.49 C 146.29,236.30 146.87,236.11 147.49,235.91 C 148.11,235.72 148.76,235.52 149.44,235.31 C 150.12,235.11 150.75,234.90 151.56,234.69 C 152.37,234.47 153.28,234.26 154.30,234.03 C 155.31,233.81 156.42,233.58 157.64,233.34 C 158.86,233.11 160.17,232.87 161.59,232.62 C 163.01,232.38 164.53,232.13 166.16,231.88 C 167.78,231.62 169.50,231.36 171.33,231.09 C 173.15,230.83 175.08,230.56 177.11,230.28 C 179.14,230.01 181.27,229.72 183.50,229.44 C 185.73,229.15 188.20,228.84 190.50,228.56 C 192.80,228.29 195.07,228.03 197.31,227.80 C 199.55,227.56 201.76,227.34 203.94,227.14 C 206.11,226.94 208.26,226.76 210.38,226.59 C 212.49,226.43 214.57,226.28 216.62,226.16 C 218.68,226.03 220.70,225.92 222.69,225.83 C 224.68,225.74 226.64,225.66 228.56,225.61 C 230.49,225.55 232.39,225.52 234.25,225.50 C 236.11,225.48 237.89,225.50 239.75,225.50 C 241.61,225.50 243.49,225.51 245.41,225.52 C 247.32,225.52 249.26,225.53 251.22,225.55 C 253.18,225.56 255.17,225.58 257.19,225.59 C 259.20,225.61 261.24,225.63 263.31,225.66 C 265.38,225.68 267.47,225.71 269.59,225.73 C 271.71,225.76 273.86,225.79 276.03,225.83 C 278.20,225.86 280.40,225.90 282.62,225.94 C 284.85,225.98 287.15,226.02 289.38,226.06 C 291.60,226.11 293.80,226.16 295.98,226.22 C 298.16,226.28 300.32,226.34 302.45,226.41 C 304.59,226.47 306.70,226.55 308.78,226.62 C 310.87,226.70 312.93,226.79 314.97,226.88 C 317.01,226.96 319.02,227.06 321.02,227.16 C 323.01,227.26 324.98,227.36 326.92,227.47 C 328.87,227.58 330.79,227.69 332.69,227.81 C 334.59,227.93 336.51,228.06 338.31,228.19 C 340.11,228.31 341.84,228.44 343.49,228.57 C 345.14,228.70 346.72,228.83 348.23,228.96 C 349.73,229.09 351.16,229.23 352.52,229.36 C 353.87,229.49 355.15,229.63 356.36,229.77 C 357.57,229.90 358.70,230.04 359.76,230.18 C 360.82,230.32 361.80,230.46 362.71,230.60 C 363.62,230.74 364.46,230.89 365.22,231.03 C 365.98,231.18 366.64,231.32 367.28,231.47 C 367.92,231.61 368.52,231.76 369.06,231.91 C 369.61,232.05 370.11,232.20 370.56,232.34 C 371.02,232.49 371.42,232.64 371.78,232.78 C 372.14,232.93 372.45,233.07 372.72,233.22 C 372.98,233.36 373.20,233.51 373.38,233.66 C 373.55,233.80 373.67,233.95 373.75,234.09 C 373.83,234.24 373.86,234.39 373.84,234.53 C 373.83,234.68 373.75,234.82 373.66,234.97 C 373.56,235.12 373.44,235.26 373.29,235.41 C 373.14,235.56 372.95,235.71 372.74,235.87 C 372.53,236.02 372.29,236.17 372.02,236.33 C 371.74,236.48 371.44,236.64 371.11,236.80 C 370.78,236.95 370.42,237.11 370.02,237.27 C 369.63,237.43 369.21,237.60 368.76,237.76 C 368.31,237.92 367.82,238.08 367.31,238.25 C 366.80,238.42 366.31,238.59 365.69,238.75 C 365.07,238.91 364.36,239.06 363.58,239.20 C 362.79,239.35 361.93,239.48 360.98,239.61 C 360.04,239.74 359.01,239.86 357.91,239.97 C 356.80,240.08 355.61,240.18 354.34,240.28 C 353.08,240.38 351.73,240.47 350.30,240.55 C 348.87,240.63 347.36,240.70 345.77,240.77 C 344.17,240.83 342.50,240.89 340.75,240.94 C 339.00,240.99 337.02,241.02 335.25,241.06 C 333.48,241.11 331.79,241.16 330.16,241.22 C 328.53,241.28 326.96,241.34 325.47,241.41 C 323.97,241.47 322.55,241.55 321.19,241.62 C 319.83,241.70 318.54,241.79 317.31,241.88 C 316.09,241.96 314.93,242.06 313.84,242.16 C 312.76,242.26 311.73,242.36 310.78,242.47 C 309.83,242.58 308.94,242.69 308.12,242.81 C 307.31,242.93 306.58,243.06 305.88,243.19 C 305.17,243.31 304.52,243.44 303.92,243.56 C 303.32,243.69 302.77,243.81 302.27,243.94 C 301.76,244.06 301.31,244.19 300.91,244.31 C 300.50,244.44 300.15,244.56 299.84,244.69 C 299.54,244.81 299.28,244.94 299.08,245.06 C 298.87,245.19 298.72,245.31 298.61,245.44 C 298.50,245.56 298.45,245.69 298.44,245.81 C 298.43,245.94 298.55,246.07 298.56,246.19 C 298.57,246.30 298.55,246.41 298.49,246.51 C 298.44,246.61 298.35,246.69 298.23,246.77 C 298.11,246.85 297.95,246.92 297.77,246.98 C 297.58,247.05 297.36,247.10 297.11,247.14 C 296.86,247.18 296.57,247.22 296.26,247.24 C 295.94,247.27 295.59,247.28 295.21,247.29 C 294.83,247.30 294.42,247.29 293.97,247.28 C 293.52,247.27 292.98,247.23 292.53,247.22 C 292.08,247.20 291.67,247.19 291.28,247.19 C 290.90,247.18 290.54,247.18 290.22,247.19 C 289.90,247.19 289.60,247.20 289.34,247.22 C 289.08,247.23 288.85,247.26 288.66,247.28 C 288.46,247.31 288.29,247.34 288.16,247.38 C 288.02,247.41 287.92,247.45 287.84,247.50 C 287.77,247.55 287.73,247.60 287.72,247.66 C 287.71,247.71 287.74,247.78 287.78,247.84 C 287.83,247.91 287.90,247.97 287.99,248.04 C 288.09,248.11 288.21,248.17 288.35,248.24 C 288.50,248.31 288.67,248.38 288.86,248.45 C 289.05,248.52 289.27,248.60 289.52,248.67 C 289.76,248.75 290.03,248.82 290.32,248.90 C 290.61,248.98 290.93,249.05 291.27,249.13 C 291.62,249.21 291.98,249.29 292.38,249.38 C 292.77,249.46 293.22,249.54 293.62,249.62 C 294.03,249.71 294.43,249.81 294.82,249.91 C 295.21,250.02 295.59,250.13 295.96,250.24 C 296.33,250.36 296.69,250.48 297.05,250.61 C 297.40,250.74 297.74,250.87 298.08,251.02 C 298.41,251.16 298.74,251.31 299.05,251.46 C 299.37,251.62 299.68,251.78 299.98,251.95 C 300.27,252.11 300.56,252.29 300.84,252.47 C 301.12,252.65 301.41,252.84 301.66,253.03 C 301.90,253.22 302.12,253.41 302.31,253.59 C 302.51,253.78 302.67,253.97 302.81,254.16 C 302.95,254.34 303.07,254.53 303.16,254.72 C 303.24,254.91 303.31,255.09 303.34,255.28 C 303.38,255.47 303.39,255.66 303.38,255.84 C 303.36,256.03 303.32,256.22 303.25,256.41 C 303.18,256.59 303.09,256.78 302.97,256.97 C 302.85,257.16 302.70,257.35 302.53,257.53 C 302.36,257.71 302.17,257.89 301.95,258.07 C 301.73,258.25 301.48,258.42 301.21,258.59 C 300.94,258.75 300.65,258.92 300.33,259.08 C 300.01,259.24 299.67,259.39 299.30,259.55 C 298.93,259.70 298.54,259.85 298.12,259.99 C 297.70,260.14 297.26,260.28 296.79,260.41 C 296.32,260.55 295.83,260.68 295.31,260.81 C 294.80,260.94 294.20,261.07 293.69,261.19 C 293.18,261.31 292.71,261.43 292.27,261.55 C 291.83,261.66 291.42,261.78 291.05,261.89 C 290.67,262.00 290.34,262.11 290.03,262.22 C 289.73,262.33 289.46,262.43 289.22,262.53 C 288.98,262.63 288.78,262.73 288.61,262.83 C 288.44,262.92 288.30,263.02 288.20,263.11 C 288.10,263.20 288.03,263.29 288.00,263.38 C 287.97,263.46 287.97,263.55 288.00,263.62 C 288.03,263.70 288.09,263.77 288.17,263.83 C 288.26,263.89 288.37,263.94 288.52,263.98 C 288.66,264.03 288.83,264.07 289.03,264.09 C 289.23,264.12 289.46,264.14 289.72,264.16 C 289.98,264.17 290.26,264.17 290.58,264.17 C 290.89,264.17 291.24,264.16 291.61,264.14 C 291.98,264.12 292.38,264.10 292.81,264.06 C 293.24,264.03 293.76,263.97 294.19,263.94 C 294.61,263.91 295.01,263.89 295.38,263.88 C 295.74,263.86 296.07,263.86 296.38,263.88 C 296.68,263.89 296.95,263.91 297.19,263.94 C 297.43,263.97 297.64,264.01 297.81,264.06 C 297.99,264.11 298.14,264.18 298.25,264.25 C 298.36,264.32 298.45,264.41 298.50,264.50 C 298.55,264.59 298.57,264.70 298.56,264.81 C 298.55,264.93 298.43,265.06 298.44,265.19 C 298.45,265.31 298.50,265.44 298.61,265.56 C 298.72,265.69 298.87,265.81 299.08,265.94 C 299.28,266.06 299.54,266.19 299.84,266.31 C 300.15,266.44 300.50,266.56 300.91,266.69 C 301.31,266.81 301.76,266.94 302.27,267.06 C 302.77,267.19 303.32,267.31 303.92,267.44 C 304.52,267.56 305.17,267.69 305.88,267.81 C 306.58,267.94 307.31,268.07 308.12,268.19 C 308.94,268.31 309.82,268.42 310.77,268.53 C 311.71,268.64 312.72,268.74 313.80,268.84 C 314.87,268.94 316.01,269.04 317.22,269.12 C 318.42,269.21 319.70,269.30 321.03,269.38 C 322.37,269.45 323.77,269.53 325.23,269.59 C 326.70,269.66 328.23,269.72 329.83,269.78 C 331.42,269.84 333.09,269.89 334.81,269.94 C 336.54,269.98 338.47,270.01 340.19,270.06 C 341.90,270.11 343.54,270.17 345.11,270.23 C 346.67,270.30 348.16,270.37 349.58,270.45 C 350.99,270.53 352.33,270.62 353.59,270.72 C 354.86,270.82 356.04,270.92 357.16,271.03 C 358.27,271.14 359.30,271.26 360.27,271.39 C 361.23,271.52 362.11,271.65 362.92,271.80 C 363.73,271.94 364.47,272.09 365.12,272.25 C 365.78,272.41 366.32,272.59 366.88,272.75 C 367.43,272.91 367.95,273.07 368.45,273.23 C 368.94,273.38 369.40,273.53 369.84,273.68 C 370.27,273.83 370.67,273.97 371.05,274.11 C 371.42,274.25 371.76,274.38 372.08,274.52 C 372.39,274.65 372.68,274.77 372.93,274.90 C 373.18,275.02 373.41,275.14 373.60,275.26 C 373.80,275.37 373.96,275.49 374.09,275.59 C 374.23,275.70 374.31,275.80 374.41,275.91 C 374.50,276.01 374.58,276.11 374.66,276.22 C 374.73,276.32 374.79,276.43 374.84,276.53 C 374.90,276.64 374.94,276.74 374.97,276.84 C 375.00,276.95 375.02,277.05 375.03,277.16 C 375.04,277.26 375.04,277.36 375.03,277.47 C 375.02,277.57 375.00,277.68 374.97,277.78 C 374.94,277.89 374.90,277.99 374.84,278.09 C 374.79,278.20 374.87,278.30 374.66,278.41 C 374.44,278.52 374.07,278.63 373.54,278.76 C 373.01,278.88 372.33,279.01 371.49,279.15 C 370.65,279.29 369.66,279.43 368.52,279.58 C 367.37,279.73 366.07,279.88 364.61,280.05 C 363.15,280.21 361.54,280.38 359.77,280.55 C 358.01,280.73 356.08,280.91 354.01,281.10 C 351.93,281.29 349.70,281.49 347.31,281.69 C 344.93,281.89 342.18,282.11 339.69,282.31 C 337.19,282.51 334.74,282.70 332.34,282.88 C 329.94,283.05 327.59,283.22 325.28,283.38 C 322.97,283.53 320.71,283.68 318.50,283.81 C 316.29,283.95 314.12,284.07 312.00,284.19 C 309.88,284.30 307.81,284.41 305.78,284.50 C 303.76,284.59 301.78,284.68 299.84,284.75 C 297.91,284.82 296.03,284.89 294.19,284.94 C 292.35,284.99 290.63,285.02 288.81,285.06 C 286.99,285.10 285.14,285.14 283.27,285.17 C 281.39,285.21 279.48,285.24 277.55,285.27 C 275.61,285.29 273.65,285.32 271.66,285.34 C 269.66,285.37 267.64,285.39 265.59,285.41 C 263.54,285.42 261.47,285.44 259.36,285.45 C 257.25,285.47 255.12,285.48 252.95,285.48 C 250.79,285.49 248.60,285.50 246.38,285.50 Z" fill="none" stroke="currentColor" stroke-width="1.5" stroke-linejoin="round" stroke-linecap="round" filter="url(#glow)" />
</svg>