<svg xmlns="http://www.w3.org/2000/svg" width="512" height="512" viewBox="142.12 195.40 230.54 151.20" preserveAspectRatio="xMidYMid meet">
  <defs>
    <filter id="glow" x="-30%" y="-30%" width="160%" height="160%">
      <feGaussianBlur in="SourceGraphic" stdDeviation="2.4" result="blur" />
      <feMerge>
        <feMergeNode in="blur" />
        <feMergeNode in="SourceGraphic" />
      </feMerge>
    </filter>
    <clipPath id="hull-clip">
      <path d="M 302.75,333.62 C 301.64,333.55 300.43,333.54 299.25,333.38 C 298.07,333.21 296.86,332.97 295.64,332.64 C 294.42,332.32 293.18,331.91 291.92,331.42 C 290.66,330.93 289.39,330.37 288.09,329.72 C 286.80,329.07 285.49,328.34 284.16,327.53 C 282.83,326.72 281.48,325.83 280.11,324.86 C 278.74,323.89 277.36,322.84 275.95,321.70 C 274.55,320.57 273.13,319.36 271.69,318.06 C 270.25,316.77 268.70,315.24 267.31,313.94 C 265.93,312.64 264.61,311.41 263.38,310.27 C 262.14,309.12 260.97,308.04 259.88,307.05 C 258.78,306.05 257.76,305.13 256.81,304.28 C 255.86,303.43 254.99,302.66 254.19,301.97 C 253.39,301.27 252.66,300.65 252.00,300.11 C 251.34,299.57 250.76,299.10 250.25,298.70 C 249.74,298.31 249.30,297.99 248.94,297.75 C 248.57,297.51 248.39,297.41 248.06,297.25 C 247.73,297.09 247.37,296.93 246.97,296.78 C 246.57,296.63 246.13,296.48 245.66,296.34 C 245.18,296.20 244.67,296.07 244.12,295.94 C 243.58,295.81 242.99,295.68 242.38,295.56 C 241.76,295.44 241.10,295.33 240.41,295.22 C 239.71,295.11 238.98,295.01 238.22,294.91 C 237.45,294.81 236.65,294.71 235.81,294.62 C 234.97,294.54 234.09,294.47 233.19,294.38 C 232.29,294.28 231.36,294.17 230.41,294.05 C 229.45,293.92 228.47,293.79 227.47,293.64 C 226.46,293.49 225.43,293.33 224.38,293.16 C 223.32,292.98 222.23,292.79 221.12,292.59 C 220.02,292.39 218.88,292.18 217.72,291.95 C 216.56,291.73 215.37,291.49 214.16,291.23 C 212.94,290.98 211.70,290.72 210.44,290.44 C 209.17,290.16 207.83,289.86 206.56,289.56 C 205.29,289.27 204.04,288.97 202.81,288.67 C 201.58,288.37 200.38,288.07 199.19,287.77 C 198.00,287.46 196.83,287.15 195.69,286.84 C 194.54,286.53 193.42,286.22 192.31,285.91 C 191.21,285.59 190.12,285.27 189.06,284.95 C 188.00,284.63 186.96,284.31 185.94,283.98 C 184.92,283.66 183.92,283.33 182.94,283.00 C 181.96,282.67 180.97,282.33 180.06,282.00 C 179.15,281.67 178.29,281.35 177.47,281.03 C 176.65,280.71 175.88,280.40 175.16,280.09 C 174.43,279.79 173.76,279.48 173.12,279.19 C 172.49,278.89 171.91,278.60 171.38,278.31 C 170.84,278.03 170.35,277.74 169.91,277.47 C 169.46,277.19 169.07,276.92 168.72,276.66 C 168.37,276.39 168.07,276.13 167.81,275.88 C 167.56,275.62 167.41,275.36 167.19,275.12 C 166.96,274.89 166.73,274.67 166.48,274.46 C 166.23,274.25 165.96,274.06 165.68,273.88 C 165.40,273.70 165.11,273.54 164.80,273.39 C 164.49,273.24 164.17,273.11 163.83,272.98 C 163.49,272.86 163.14,272.76 162.77,272.66 C 162.41,272.57 162.03,272.49 161.63,272.43 C 161.24,272.37 160.83,272.32 160.41,272.28 C 159.98,272.25 159.50,272.24 159.09,272.22 C 158.68,272.19 158.30,272.16 157.95,272.12 C 157.60,272.09 157.28,272.05 156.98,272.00 C 156.69,271.95 156.42,271.90 156.19,271.84 C 155.95,271.79 155.74,271.72 155.56,271.66 C 155.38,271.59 155.23,271.52 155.11,271.44 C 154.99,271.36 154.89,271.28 154.83,271.19 C 154.76,271.10 154.73,271.01 154.72,270.91 C 154.71,270.81 154.74,270.69 154.78,270.59 C 154.83,270.50 154.90,270.40 154.99,270.32 C 155.09,270.24 155.21,270.16 155.35,270.09 C 155.50,270.01 155.67,269.95 155.86,269.89 C 156.05,269.83 156.27,269.78 156.52,269.73 C 156.76,269.69 157.03,269.65 157.32,269.62 C 157.61,269.58 157.93,269.56 158.27,269.54 C 158.62,269.52 158.98,269.51 159.38,269.50 C 159.77,269.49 160.22,269.52 160.62,269.50 C 161.03,269.48 161.42,269.45 161.80,269.41 C 162.17,269.36 162.54,269.30 162.89,269.22 C 163.24,269.14 163.58,269.05 163.91,268.94 C 164.23,268.83 164.54,268.70 164.84,268.56 C 165.14,268.42 165.43,268.27 165.70,268.09 C 165.98,267.92 166.24,267.73 166.48,267.53 C 166.73,267.33 166.97,267.11 167.19,266.88 C 167.41,266.64 167.58,266.37 167.81,266.12 C 168.04,265.88 168.29,265.63 168.56,265.39 C 168.83,265.15 169.12,264.91 169.44,264.67 C 169.75,264.43 170.08,264.20 170.44,263.97 C 170.79,263.74 171.17,263.51 171.56,263.28 C 171.96,263.05 172.38,262.83 172.81,262.61 C 173.25,262.39 173.71,262.17 174.19,261.95 C 174.67,261.74 175.17,261.52 175.69,261.31 C 176.21,261.10 176.80,260.88 177.31,260.69 C 177.82,260.49 178.30,260.32 178.75,260.16 C 179.20,259.99 179.61,259.85 180.00,259.72 C 180.39,259.59 180.74,259.47 181.06,259.38 C 181.39,259.28 181.68,259.19 181.94,259.12 C 182.20,259.06 182.43,259.01 182.62,258.97 C 182.82,258.93 182.99,258.91 183.12,258.91 C 183.26,258.90 183.36,258.91 183.44,258.94 C 183.51,258.96 183.41,259.05 183.56,259.06 C 183.71,259.07 183.97,259.05 184.33,259.00 C 184.69,258.95 185.16,258.86 185.73,258.75 C 186.31,258.64 186.99,258.49 187.78,258.31 C 188.57,258.14 189.47,257.93 190.47,257.69 C 191.47,257.45 192.58,257.18 193.80,256.88 C 195.01,256.57 196.34,256.24 197.77,255.88 C 199.20,255.51 200.73,255.11 202.38,254.69 C 204.02,254.26 205.95,253.74 207.62,253.31 C 209.30,252.88 210.91,252.47 212.44,252.09 C 213.97,251.71 215.43,251.36 216.81,251.03 C 218.20,250.70 219.51,250.40 220.75,250.12 C 221.99,249.85 223.16,249.60 224.25,249.38 C 225.34,249.15 226.36,248.95 227.31,248.78 C 228.26,248.61 229.14,248.46 229.94,248.34 C 230.74,248.22 231.47,248.13 232.12,248.06 C 232.78,247.99 233.32,247.98 233.88,247.94 C 234.43,247.90 234.96,247.86 235.47,247.83 C 235.97,247.79 236.45,247.76 236.91,247.73 C 237.36,247.71 237.79,247.68 238.19,247.66 C 238.59,247.63 238.96,247.61 239.31,247.59 C 239.66,247.58 239.98,247.56 240.28,247.55 C 240.58,247.53 240.85,247.52 241.09,247.52 C 241.34,247.51 241.56,247.50 241.75,247.50 C 241.94,247.50 242.07,247.51 242.25,247.50 C 242.43,247.49 242.61,247.46 242.81,247.42 C 243.01,247.38 243.22,247.33 243.44,247.27 C 243.66,247.20 243.89,247.12 244.12,247.03 C 244.36,246.94 244.61,246.84 244.88,246.72 C 245.14,246.60 245.41,246.47 245.69,246.33 C 245.97,246.18 246.26,246.03 246.56,245.86 C 246.86,245.69 247.18,245.51 247.50,245.31 C 247.82,245.12 248.12,244.95 248.50,244.69 C 248.88,244.43 249.31,244.12 249.79,243.76 C 250.27,243.40 250.79,242.99 251.37,242.52 C 251.94,242.06 252.56,241.55 253.23,240.98 C 253.90,240.42 254.62,239.81 255.39,239.14 C 256.16,238.48 256.97,237.76 257.84,236.99 C 258.70,236.23 259.61,235.41 260.57,234.54 C 261.53,233.67 262.54,232.75 263.59,231.78 C 264.65,230.81 265.88,229.68 266.91,228.72 C 267.94,227.76 268.89,226.86 269.77,226.02 C 270.65,225.19 271.46,224.41 272.20,223.70 C 272.93,222.98 273.59,222.33 274.17,221.73 C 274.76,221.14 275.27,220.61 275.70,220.14 C 276.14,219.67 276.50,219.26 276.79,218.91 C 277.08,218.57 277.29,218.28 277.43,218.05 C 277.57,217.83 277.63,217.67 277.62,217.56 C 277.62,217.46 277.45,217.48 277.38,217.44 C 277.30,217.39 277.23,217.35 277.16,217.30 C 277.10,217.26 277.04,217.21 276.99,217.16 C 276.94,217.12 276.90,217.07 276.86,217.02 C 276.82,216.96 276.79,216.91 276.77,216.86 C 276.74,216.81 276.72,216.75 276.71,216.70 C 276.70,216.64 276.69,216.58 276.70,216.52 C 276.70,216.46 276.70,216.40 276.72,216.34 C 276.73,216.28 276.75,216.21 276.78,216.16 C 276.81,216.10 276.85,216.04 276.90,215.99 C 276.95,215.94 277.00,215.89 277.07,215.85 C 277.14,215.81 277.21,215.77 277.30,215.73 C 277.38,215.70 277.48,215.67 277.58,215.64 C 277.68,215.61 277.79,215.59 277.91,215.57 C 278.04,215.55 278.17,215.54 278.30,215.52 C 278.44,215.51 278.59,215.50 278.75,215.50 C 278.91,215.50 279.08,215.52 279.25,215.50 C 279.42,215.48 279.61,215.45 279.80,215.41 C 279.99,215.36 280.18,215.30 280.39,215.22 C 280.60,215.14 280.81,215.05 281.03,214.94 C 281.25,214.83 281.48,214.70 281.72,214.56 C 281.96,214.42 282.20,214.27 282.45,214.09 C 282.71,213.92 282.97,213.73 283.23,213.53 C 283.50,213.33 283.78,213.11 284.06,212.88 C 284.35,212.64 284.60,212.36 284.94,212.12 C 285.28,211.89 285.67,211.66 286.11,211.44 C 286.55,211.22 287.04,211.01 287.58,210.81 C 288.12,210.61 288.71,210.43 289.34,210.25 C 289.98,210.07 290.67,209.91 291.41,209.75 C 292.14,209.59 292.93,209.45 293.77,209.31 C 294.60,209.18 295.49,209.05 296.42,208.94 C 297.36,208.82 298.34,208.72 299.38,208.62 C 300.41,208.53 301.59,208.45 302.62,208.38 C 303.66,208.30 304.64,208.24 305.58,208.19 C 306.51,208.14 307.40,208.09 308.23,208.06 C 309.07,208.03 309.86,208.01 310.59,208.00 C 311.33,207.99 312.02,207.99 312.66,208.00 C 313.29,208.01 313.88,208.03 314.42,208.06 C 314.96,208.09 315.45,208.14 315.89,208.19 C 316.33,208.24 316.72,208.30 317.06,208.38 C 317.40,208.45 317.65,208.54 317.94,208.62 C 318.22,208.71 318.50,208.80 318.77,208.90 C 319.05,208.99 319.31,209.09 319.57,209.20 C 319.83,209.30 320.08,209.40 320.33,209.52 C 320.57,209.63 320.81,209.74 321.05,209.86 C 321.28,209.98 321.51,210.10 321.73,210.23 C 321.95,210.35 322.16,210.48 322.37,210.62 C 322.57,210.75 322.77,210.89 322.97,211.03 C 323.16,211.17 323.31,211.24 323.53,211.47 C 323.76,211.70 324.02,212.02 324.32,212.43 C 324.62,212.84 324.96,213.33 325.34,213.91 C 325.71,214.50 326.13,215.17 326.58,215.92 C 327.03,216.68 327.52,217.52 328.05,218.45 C 328.57,219.38 329.14,220.40 329.74,221.51 C 330.35,222.61 330.99,223.81 331.66,225.09 C 332.34,226.37 333.06,227.73 333.81,229.19 C 334.57,230.64 335.41,232.33 336.19,233.81 C 336.97,235.29 337.74,236.72 338.50,238.08 C 339.26,239.44 340.01,240.74 340.75,241.98 C 341.49,243.23 342.22,244.41 342.94,245.53 C 343.66,246.65 344.36,247.72 345.06,248.72 C 345.76,249.72 346.45,250.66 347.12,251.55 C 347.80,252.43 348.47,253.25 349.12,254.02 C 349.78,254.78 350.43,255.48 351.06,256.12 C 351.70,256.77 352.35,257.30 352.94,257.88 C 353.53,258.45 354.08,259.03 354.59,259.59 C 355.11,260.16 355.59,260.72 356.03,261.28 C 356.47,261.84 356.88,262.39 357.25,262.94 C 357.62,263.48 357.95,264.03 358.25,264.56 C 358.55,265.10 358.81,265.63 359.03,266.16 C 359.26,266.68 359.44,267.20 359.59,267.72 C 359.74,268.23 359.86,268.74 359.94,269.25 C 360.02,269.76 360.07,270.24 360.06,270.75 C 360.06,271.26 360.01,271.78 359.92,272.31 C 359.83,272.84 359.70,273.39 359.52,273.94 C 359.34,274.49 359.11,275.05 358.84,275.62 C 358.58,276.20 358.26,276.78 357.91,277.38 C 357.55,277.97 357.15,278.57 356.70,279.19 C 356.26,279.80 355.77,280.43 355.23,281.06 C 354.70,281.70 354.12,282.34 353.50,283.00 C 352.88,283.66 352.17,284.28 351.50,285.00 C 350.83,285.72 350.14,286.50 349.45,287.33 C 348.76,288.16 348.07,289.04 347.36,289.98 C 346.65,290.92 345.94,291.92 345.22,292.97 C 344.50,294.02 343.77,295.12 343.03,296.28 C 342.29,297.44 341.55,298.65 340.80,299.92 C 340.04,301.19 339.28,302.51 338.52,303.89 C 337.75,305.27 336.97,306.70 336.19,308.19 C 335.40,309.67 334.56,311.36 333.81,312.81 C 333.06,314.27 332.35,315.63 331.68,316.91 C 331.01,318.19 330.38,319.39 329.79,320.49 C 329.20,321.60 328.65,322.62 328.14,323.55 C 327.63,324.48 327.16,325.32 326.73,326.08 C 326.31,326.83 325.92,327.50 325.57,328.09 C 325.22,328.67 324.92,329.16 324.65,329.57 C 324.38,329.98 324.15,330.30 323.97,330.53 C 323.78,330.76 323.69,330.83 323.53,330.97 C 323.38,331.11 323.21,331.25 323.04,331.38 C 322.87,331.52 322.68,331.65 322.49,331.77 C 322.30,331.90 322.10,332.02 321.89,332.14 C 321.68,332.26 321.46,332.37 321.23,332.48 C 321.01,332.60 320.77,332.70 320.52,332.80 C 320.28,332.91 320.02,333.01 319.76,333.10 C 319.49,333.20 319.22,333.29 318.94,333.38 C 318.65,333.46 318.41,333.55 318.06,333.62 C 317.72,333.70 317.32,333.76 316.86,333.81 C 316.40,333.86 315.89,333.91 315.33,333.94 C 314.76,333.97 314.14,333.99 313.47,334.00 C 312.79,334.01 312.07,334.01 311.28,334.00 C 310.50,333.99 309.66,333.97 308.77,333.94 C 307.87,333.91 306.92,333.86 305.92,333.81 C 304.92,333.76 303.86,333.70 302.75,333.62 Z" />
    </clipPath>
  </defs>
  <path d="M 302.75,333.62 C 301.64,333.55 300.43,333.54 299.25,333.38 C 298.07,333.21 296.86,332.97 295.64,332.64 C 294.42,332.32 293.18,331.91 291.92,331.42 C 290.66,330.93 289.39,330.37 288.09,329.72 C 286.80,329.07 285.49,328.34 284.16,327.53 C 282.83,326.72 281.48,325.83 280.11,324.86 C 278.74,323.89 277.36,322.84 275.95,321.70 C 274.55,320.57 273.13,319.36 271.69,318.06 C 270.25,316.77 268.70,315.24 267.31,313.94 C 265.93,312.64 264.61,311.41 263.38,310.27 C 262.14,309.12 260.97,308.04 259.88,307.05 C 258.78,306.05 257.76,305.13 256.81,304.28 C 255.86,303.43 254.99,302.66 254.19,301.97 C 253.39,301.27 252.66,300.65 252.00,300.11 C 251.34,299.57 250.76,299.10 250.25,298.70 C 249.74,298.31 249.30,297.99 248.94,297.75 C 248.57,297.51 248.39,297.41 248.06,297.25 C 247.73,297.09 247.37,296.93 246.97,296.78 C 246.57,296.63 246.13,296.48 245.66,296.34 C 245.18,296.20 244.67,296.07 244.12,295.94 C 243.58,295.81 242.99,295.68 242.38,295.56 C 241.76,295.44 241.10,295.33 240.41,295.22 C 239.71,295.11 238.98,295.01 238.22,294.91 C 237.45,294.81 236.65,294.71 235.81,294.62 C 234.97,294.54 234.09,294.47 233.19,294.38 C 232.29,294.28 231.36,294.17 230.41,294.05 C 229.45,293.92 228.47,293.79 227.47,293.64 C 226.46,293.49 225.43,293.33 224.38,293.16 C 223.32,292.98 222.23,292.79 221.12,292.59 C 220.02,292.39 218.88,292.18 217.72,291.95 C 216.56,291.73 215.37,291.49 214.16,291.23 C 212.94,290.98 211.70,290.72 210.44,290.44 C 209.17,290.16 207.83,289.86 206.56,289.56 C 205.29,289.27 204.04,288.97 202.81,288.67 C 201.58,288.37 200.38,288.07 199.19,287.77 C 198.00,287.46 196.83,287.15 195.69,286.84 C 194.54,286.53 193.42,286.22 192.31,285.91 C 191.21,285.59 190.12,285.27 189.06,284.95 C 188.00,284.63 186.96,284.31 185.94,283.98 C 184.92,283.66 183.92,283.33 182.94,283.00 C 181.96,282.67 180.97,282.33 180.06,282.00 C 179.15,281.67 178.29,281.35 177.47,281.03 C 176.65,280.71 175.88,280.40 175.16,280.09 C 174.43,279.79 173.76,279.48 173.12,279.19 C 172.49,278.89 171.91,278.60 171.38,278.31 C 170.84,278.03 170.35,277.74 169.91,277.47 C 169.46,277.19 169.07,276.92 168.72,276.66 C 168.37,276.39 168.07,276.13 167.81,275.88 C 167.56,275.62 167.41,275.36 167.19,275.12 C 166.96,274.89 166.73,274.67 166.48,274.46 C 166.23,274.25 165.96,274.06 165.68,273.88 C 165.40,273.70 165.11,273.54 164.80,273.39 C 164.49,273.24 164.17,273.11 163.83,272.98 C 163.49,272.86 163.14,272.76 162.77,272.66 C 162.41,272.57 162.03,272.49 161.63,272.43 C 161.24,272.37 160.83,272.32 160.41,272.28 C 159.98,272.25 159.50,272.24 159.09,272.22 C 158.68,272.19 158.30,272.16 157.95,272.12 C 157.60,272.09 157.28,272.05 156.98,272.00 C 156.69,271.95 156.42,271.90 156.19,271.84 C 155.95,271.79 155.74,271.72 155.56,271.66 C 155.38,271.59 155.23,271.52 155.11,271.44 C 154.99,271.36 154.89,271.28 154.83,271.19 C 154.76,271.10 154.73,271.01 154.72,270.91 C 154.71,270.81 154.74,270.69 154.78,270.59 C 154.83,270.50 154.90,270.40 154.99,270.32 C 155.09,270.24 155.21,270.16 155.35,270.09 C 155.50,270.01 155.67,269.95 155.86,269.89 C 156.05,269.83 156.27,269.78 156.52,269.73 C 156.76,269.69 157.03,269.65 157.32,269.62 C 157.61,269.58 157.93,269.56 158.27,269.54 C 158.62,269.52 158.98,269.51 159.38,269.50 C 159.77,269.49 160.22,269.52 160.62,269.50 C 161.03,269.48 161.42,269.45 161.80,269.41 C 162.17,269.36 162.54,269.30 162.89,269.22 C 163.24,269.14 163.58,269.05 163.91,268.94 C 164.23,268.83 164.54,268.70 164.84,268.56 C 165.14,268.42 165.43,268.27 165.70,268.09 C 165.98,267.92 166.24,267.73 166.48,267.53 C 166.73,267.33 166.97,267.11 167.19,266.88 C 167.41,266.64 167.58,266.37 167.81,266.12 C 168.04,265.88 168.29,265.63 168.56,265.39 C 168.83,265.15 169.12,264.91 169.44,264.67 C 169.75,264.43 170.08,264.20 170.44,263.97 C 170.79,263.74 171.17,263.51 171.56,263.28 C 171.96,263.05 172.38,262.83 172.81,262.61 C 173.25,262.39 173.71,262.17 174.19,261.95 C 174.67,261.74 175.17,261.52 175.69,261.31 C 176.21,261.10 176.80,260.88 177.31,260.69 C 177.82,260.49 178.30,260.32 178.75,260.16 C 179.20,259.99 179.61,259.85 180.00,259.72 C 180.39,259.59 180.74,259.47 181.06,259.38 C 181.39,259.28 181.68,259.19 181.94,259.12 C 182.20,259.06 182.43,259.01 182.62,258.97 C 182.82,258.93 182.99,258.91 183.12,258.91 C 183.26,258.90 183.36,258.91 183.44,258.94 C 183.51,258.96 183.41,259.05 183.56,259.06 C 183.71,259.07 183.97,259.05 184.33,259.00 C 184.69,258.95 185.16,258.86 185.73,258.75 C 186.31,258.64 186.99,258.49 187.78,258.31 C 188.57,258.14 189.47,257.93 190.47,257.69 C 191.47,257.45 192.58,257.18 193.80,256.88 C 195.01,256.57 196.34,256.24 197.77,255.88 C 199.20,255.51 200.73,255.11 202.38,254.69 C 204.02,254.26 205.95,253.74 207.62,253.31 C 209.30,252.88 210.91,252.47 212.44,252.09 C 213.97,251.71 215.43,251.36 216.81,251.03 C 218.20,250.70 219.51,250.40 220.75,250.12 C 221.99,249.85 223.16,249.60 224.25,249.38 C 225.34,249.15 226.36,248.95 227.31,248.78 C 228.26,248.61 229.14,248.46 229.94,248.34 C 230.74,248.22 231.47,248.13 232.12,248.06 C 232.78,247.99 233.32,247.98 233.88,247.94 C 234.43,247.90 234.96,247.86 235.47,247.83 C 235.97,247.79 236.45,247.76 236.91,247.73 C 237.36,247.71 237.79,247.68 238.19,247.66 C 238.59,247.63 238.96,247.61 239.31,247.59 C 239.66,247.58 239.98,247.56 240.28,247.55 C 240.58,247.53 240.85,247.52 241.09,247.52 C 241.34,247.51 241.56,247.50 241.75,247.50 C 241.94,247.50 242.07,247.51 242.25,247.50 C 242.43,247.49 242.61,247.46 242.81,247.42 C 243.01,247.38 243.22,247.33 243.44,247.27 C 243.66,247.20 243.89,247.12 244.12,247.03 C 244.36,246.94 244.61,246.84 244.88,246.72 C 245.14,246.60 245.41,246.47 245.69,246.33 C 245.97,246.18 246.26,246.03 246.56,245.86 C 246.86,245.69 247.18,245.51 247.50,245.31 C 247.82,245.12 248.12,244.95 248.50,244.69 C 248.88,244.43 249.31,244.12 249.79,243.76 C 250.27,243.40 250.79,242.99 251.37,242.52 C 251.94,242.06 252.56,241.55 253.23,240.98 C 253.90,240.42 254.62,239.81 255.39,239.14 C 256.16,238.48 256.97,237.76 257.84,236.99 C 258.70,236.23 259.61,235.41 260.57,234.54 C 261.53,233.67 262.54,232.75 263.59,231.78 C 264.65,230.81 265.88,229.68 266.91,228.72 C 267.94,227.76 268.89,226.86 269.77,226.02 C 270.65,225.19 271.46,224.41 272.20,223.70 C 272.93,222.98 273.59,222.33 274.17,221.73 C 274.76,221.14 275.27,220.61 275.70,220.14 C 276.14,219.67 276.50,219.26 276.79,218.91 C 277.08,218.57 277.29,218.28 277.43,218.05 C 277.57,217.83 277.63,217.67 277.62,217.56 C 277.62,217.46 277.45,217.48 277.38,217.44 C 277.30,217.39 277.23,217.35 277.16,217.30 C 277.10,217.26 277.04,217.21 276.99,217.16 C 276.94,217.12 276.90,217.07 276.86,217.02 C 276.82,216.96 276.79,216.91 276.77,216.86 C 276.74,216.81 276.72,216.75 276.71,216.70 C 276.70,216.64 276.69,216.58 276.70,216.52 C 276.70,216.46 276.70,216.40 276.72,216.34 C 276.73,216.28 276.75,216.21 276.78,216.16 C 276.81,216.10 276.85,216.04 276.90,215.99 C 276.95,215.94 277.00,215.89 277.07,215.85 C 277.14,215.81 277.21,215.77 277.30,215.73 C 277.38,215.70 277.48,215.67 277.58,215.64 C 277.68,215.61 277.79,215.59 277.91,215.57 C 278.04,215.55 278.17,215.54 278.30,215.52 C 278.44,215.51 278.59,215.50 278.75,215.50 C 278.91,215.50 279.08,215.52 279.25,215.50 C 279.42,215.48 279.61,215.45 279.80,215.41 C 279.99,215.36 280.18,215.30 280.39,215.22 C 280.60,215.14 280.81,215.05 281.03,214.94 C 281.25,214.83 281.48,214.70 281.72,214.56 C 281.96,214.42 282.20,214.27 282.45,214.09 C 282.71,213.92 282.97,213.73 283.23,213.53 C 283.50,213.33 283.78,213.11 284.06,212.88 C 284.35,212.64 284.60,212.36 284.94,212.12 C 285.28,211.89 285.67,211.66 286.11,211.44 C 286.55,211.22 287.04,211.01 287.58,210.81 C 288.12,210.61 288.71,210.43 289.34,210.25 C 289.98,210.07 290.67,209.91 291.41,209.75 C 292.14,209.59 292.93,209.45 293.77,209.31 C 294.60,209.18 295.49,209.05 296.42,208.94 C 297.36,208.82 298.34,208.72 299.38,208.62 C 300.41,208.53 301.59,208.45 302.62,208.38 C 303.66,208.30 304.64,208.24 305.58,208.19 C 306.51,208.14 307.40,208.09 308.23,208.06 C 309.07,208.03 309.86,208.01 310.59,208.00 C 311.33,207.99 312.02,207.99 312.66,208.00 C 313.29,208.01 313.88,208.03 314.42,208.06 C 314.96,208.09 315.45,208.14 315.89,208.19 C 316.33,208.24 316.72,208.30 317.06,208.38 C 317.40,208.45 317.65,208.54 317.94,208.62 C 318.22,208.71 318.50,208.80 318.77,208.90 C 319.05,208.99 319.31,209.09 319.57,209.20 C 319.83,209.30 320.08,209.40 320.33,209.52 C 320.57,209.63 320.81,209.74 321.05,209.86 C 321.28,209.98 321.51,210.10 321.73,210.23 C 321.95,210.35 322.16,210.48 322.37,210.62 C 322.57,210.75 322.77,210.89 322.97,211.03 C 323.16,211.17 323.31,211.24 323.53,211.47 C 323.76,211.70 324.02,212.02 324.32,212.43 C 324.62,212.84 324.96,213.33 325.34,213.91 C 325.71,214.50 326.13,215.17 326.58,215.92 C 327.03,216.68 327.52,217.52 328.05,218.45 C 328.57,219.38 329.14,220.40 329.74,221.51 C 330.35,222.61 330.99,223.81 331.66,225.09 C 332.34,226.37 333.06,227.73 333.81,229.19 C 334.57,230.64 335.41,232.33 336.19,233.81 C 336.97,235.29 337.74,236.72 338.50,238.08 C 339.26,239.44 340.01,240.74 340.75,241.98 C 341.49,243.23 342.22,244.41 342.94,245.53 C 343.66,246.65 344.36,247.72 345.06,248.72 C 345.76,249.72 346.45,250.66 347.12,251.55 C 347.80,252.43 348.47,253.25 349.12,254.02 C 349.78,254.78 350.43,255.48 351.06,256.12 C 351.70,256.77 352.35,257.30 352.94,257.88 C 353.53,258.45 354.08,259.03 354.59,259.59 C 355.11,260.16 355.59,260.72 356.03,261.28 C 356.47,261.84 356.88,262.39 357.25,262.94 C 357.62,263.48 357.95,264.03 358.25,264.56 C 358.55,265.10 358.81,265.63 359.03,266.16 C 359.26,266.68 359.44,267.20 359.59,267.72 C 359.74,268.23 359.86,268.74 359.94,269.25 C 360.02,269.76 360.07,270.24 360.06,270.75 C 360.06,271.26 360.01,271.78 359.92,272.31 C 359.83,272.84 359.70,273.39 359.52,273.94 C 359.34,274.49 359.11,275.05 358.84,275.62 C 358.58,276.20 358.26,276.78 357.91,277.38 C 357.55,277.97 357.15,278.57 356.70,279.19 C 356.26,279.80 355.77,280.43 355.23,281.06 C 354.70,281.70 354.12,282.34 353.50,283.00 C 352.88,283.66 352.17,284.28 351.50,285.00 C 350.83,285.72 350.14,286.50 349.45,287.33 C 348.76,288.16 348.07,289.04 347.36,289.98 C 346.65,290.92 345.94,291.92 345.22,292.97 C 344.50,294.02 343.77,295.12 343.03,296.28 C 342.29,297.44 341.55,298.65 340.80,299.92 C 340.04,301.19 339.28,302.51 338.52,303.89 C 337.75,305.27 336.97,306.70 336.19,308.19 C 335.40,309.67 334.56,311.36 333.81,312.81 C 333.06,314.27 332.35,315.63 331.68,316.91 C 331.01,318.19 330.38,319.39 329.79,320.49 C 329.20,321.60 328.65,322.62 328.14,323.55 C 327.63,324.48 327.16,325.32 326.73,326.08 C 326.31,326.83 325.92,327.50 325.57,328.09 C 325.22,328.67 324.92,329.16 324.65,329.57 C 324.38,329.98 324.15,330.30 323.97,330.53 C 323.78,330.76 323.69,330.83 323.53,330.97 C 323.38,331.11 323.21,331.25 323.04,331.38 C 322.87,331.52 322.68,331.65 322.49,331.77 C 322.30,331.90 322.10,332.02 321.89,332.14 C 321.68,332.26 321.46,332.37 321.23,332.48 C 321.01,332.60 320.77,332.70 320.52,332.80 C 320.28,332.91 320.02,333.01 319.76,333.10 C 319.49,333.20 319.22,333.29 318.94,333.38 C 318.65,333.46 318.41,333.55 318.06,333.62 C 317.72,333.70 317.32,333.76 316.86,333.81 C 316.40,333.86 315.89,333.91 315.33,333.94 C 314.76,333.97 314.14,333.99 313.47,334.00 C 312.79,334.01 312.07,334.01 311.28,334.00 C 310.50,333.99 309.66,333.97 308.77,333.94 C 307.87,333.91 306.92,333.86 305.92,333.81 C 304.92,333.76 303.86,333.70 302.75,333.62 Z" stroke="none" fill="currentColor" opacity="0.11" />
  <path d="M262.16,279.24L238.36,279.20 M227.84,280.08L223.96,280.08 M262.16,263.99L238.36,264.03 M223.98,280.19L224.00,280.13 M228.04,280.20L222.81,280.23 M249.44,277.15L263.64,277.17 M249.44,266.07L238.38,266.09 M238.38,266.09L232.82,266.11 M213.71,277.02L226.24,276.96 M238.46,276.92L249.28,276.98 M232.24,278.88L238.36,278.90 M232.24,279.04L238.36,279.07 M213.71,266.20L226.24,266.27 M238.46,266.30L249.28,266.25 M232.24,264.35L238.36,264.33 M228.17,256.00L226.14,255.86 M241.62,280.59L260.19,280.62 M232.65,278.19L238.36,278.29 M228.46,254.74L228.46,254.74 M228.19,254.74L228.19,254.74 M260.45,259.27L260.45,259.27 M260.09,262.82L249.45,262.86 M234.80,249.05L244.80,249.54 M246.01,248.60L239.24,248.48 M243.61,249.56L235.24,248.64 M257.73,252.15L263.40,252.51 M285.33,245.49L285.41,245.62 M285.42,254.29L285.44,254.92 M251.07,253.59L249.71,254.12 M285.33,297.74L285.41,297.61 M285.44,288.31L285.42,288.94 M249.71,289.10L251.07,289.64 M188.21,258.75L182.76,260.36 M189.96,258.39L182.68,260.47 M237.33,249.17L244.29,249.00 M188.21,284.48L182.76,282.87 M189.96,284.84L182.68,282.79 M237.33,294.05L244.29,294.22 M221.59,266.37L227.12,265.37 M221.59,276.86L227.12,277.86 M176.27,272.81L181.80,272.81 M176.27,272.83L181.80,272.83 M176.27,273.28L181.80,273.28 M176.27,273.32L181.80,273.32 M176.27,273.36L181.80,273.36 M176.27,270.39L181.80,270.39 M181.80,270.38L176.27,270.38 M176.27,269.93L181.80,269.93 M181.80,269.89L176.27,269.89 M176.27,269.85L181.80,269.85 M168.46,272.01L158.96,272.01 M168.46,272.01L158.96,272.01 M168.46,271.20L158.96,271.20 M168.46,271.20L158.96,271.20 M181.80,272.49L176.27,272.49 M181.80,270.71L176.27,270.71 M171.49,272.53L176.75,272.53 M171.49,270.68L176.75,270.68 M181.80,272.65L176.27,272.65 M176.27,272.76L181.80,272.76 M176.27,272.42L181.80,272.42 M181.80,270.55L176.27,270.55 M176.27,270.44L181.80,270.44 M181.80,270.79L176.27,270.79 M260.86,291.27L260.86,281.15 M259.72,290.39L259.72,281.39 M241.18,281.16L241.18,290.62 M272.72,281.38L272.72,271.61 M272.72,261.85L272.72,269.72 M282.95,258.97L275.33,258.83 M299.41,271.61L299.41,265.99 M299.45,271.61L299.45,266.01 M255.67,259.86L261.26,259.86 M261.26,260.81L255.67,260.81 M255.67,283.37L261.26,283.37 M255.67,282.42L261.26,282.42 M262.84,259.93L256.37,259.89 M262.63,260.14L256.16,260.10 M262.96,283.24L256.49,283.20 M262.63,282.90L256.16,282.86 M271.01,258.81L250.30,258.53 M250.30,284.70L271.01,284.42 M271.02,259.04L250.30,258.72 M250.30,284.51L271.02,284.19 M238.09,282.71L242.74,282.70 M245.41,259.93L238.07,259.89 M245.21,260.14L237.87,260.10 M237.94,283.19L245.29,283.23 M283.45,294.61L280.55,294.61 M283.90,294.43L281.01,294.43 M280.10,294.43L282.99,294.43 M284.06,293.48L281.16,293.48 M283.21,293.15L280.31,293.15 M283.45,250.13L280.55,250.13 M283.90,249.96L281.01,249.96 M280.10,249.96L282.99,249.96 M284.06,249.00L281.16,249.00 M283.21,248.67L280.31,248.67 M203.68,272.19L200.57,272.19 M204.02,272.06L200.92,272.06 M200.76,271.07L203.86,271.07 M222.58,256.51L217.45,257.32 M214.85,252.64L224.05,250.69 M307.64,327.48L298.25,326.43 M303.61,327.01L298.25,326.43 M271.24,317.61L256.84,303.89 M269.24,307.11L263.85,307.03 M274.94,304.46L258.56,304.23 M303.35,329.06L305.95,333.54 M346.94,287.97L351.08,281.20 M326.99,290.78L301.38,327.92 M298.40,329.71L289.44,331.32 M291.76,308.61L284.94,308.61 M270.57,309.42L264.16,309.29 M264.16,308.57L270.57,308.44 M270.59,308.36L263.98,308.51 M263.98,309.35L270.59,309.50 M270.57,309.42L264.16,309.29 M264.16,308.57L270.57,308.44 M270.59,308.36L263.98,308.51 M263.98,309.35L270.59,309.50 M279.38,307.25L293.47,307.25 M279.38,310.61L293.47,310.61 M323.36,286.63L328.46,289.45 M340.35,288.94L334.51,285.90 M303.61,216.22L298.25,216.80 M307.64,215.74L298.25,216.80 M271.24,225.62L256.84,239.34 M279.35,218.72L270.99,226.23 M282.66,215.44L286.30,212.35 M269.38,236.11L263.99,236.19 M275.07,238.76L258.69,238.99 M346.94,255.26L351.08,262.03 M301.38,215.31L326.99,252.45 M298.24,213.53L291.61,211.98 M298.40,213.52L289.44,211.91 M281.26,233.44L288.05,233.44 M281.26,234.86L288.05,234.86 M288.05,233.76L281.23,233.76 M288.05,234.54L281.23,234.54 M270.57,234.74L264.16,234.61 M264.16,233.89L270.57,233.76 M270.59,233.68L263.98,233.83 M263.98,234.67L270.59,234.82 M270.57,234.74L264.16,234.61 M264.16,233.89L270.57,233.76 M270.59,233.68L263.98,233.83 M263.98,234.67L270.59,234.82 M279.38,232.57L293.47,232.57 M279.38,235.93L293.47,235.93 M340.35,254.29L334.51,257.33 M328.99,250.66L340.86,250.92 M323.90,259.68L318.77,260.29 M302.90,253.92L297.76,253.65 M313.78,256.75L323.90,251.94 M323.87,251.96L316.82,253.81 M323.90,283.54L318.77,282.93 M302.90,289.31L297.76,289.58 M323.87,291.27L316.82,289.41 M323.90,291.28L313.78,286.48 M293.28,260.04L293.29,259.97 M293.28,283.18L293.29,283.26 M337.60,263.76L349.81,263.79 M337.60,263.03L350.35,263.10 M337.60,263.03L349.60,263.06 M344.74,262.27L335.93,262.37 M335.92,262.12L344.74,262.03 M337.60,279.47L349.81,279.43 M350.35,280.13L337.60,280.20 M349.60,280.16L337.60,280.20 M344.74,280.96L335.93,280.86 M344.74,281.20L335.92,281.11 M343.97,265.27L343.97,277.95 M341.22,277.78L341.22,265.45 M332.66,259.53L333.61,252.93 M332.66,283.70L333.61,290.30 M329.26,255.59L328.97,262.59 M328.97,280.63L329.26,287.63 M339.25,269.23L332.11,269.24 M332.11,273.98L339.25,273.99 M311.90,249.06L327.90,248.24 M344.17,251.45L334.21,251.58 M311.90,294.17L327.90,294.99 M334.21,291.64L344.17,291.78 M264.37,254.37L281.40,254.97 M259.65,244.91L282.90,245.39 M259.65,298.48L282.89,297.74 M285.58,297.39L285.34,288.27 M288.24,234.45L287.52,240.22 M287.81,302.97L288.84,308.60 M288.24,308.78L287.52,303.01 M220.55,254.21L229.62,252.23 M229.62,252.23L234.85,250.98 M239.08,249.83L245.37,247.80 M248.09,246.49L255.83,240.96 M218.47,262.44L225.71,262.01 M220.55,289.01L229.62,291.00 M229.62,291.00L234.85,292.25 M239.08,293.39L245.37,295.43 M248.09,296.74L255.83,302.28 M218.47,280.78L225.71,281.22 M287.45,284.39L282.24,284.42 M253.51,249.13L259.47,249.80 M239.48,248.97L245.24,248.76 M266.38,250.84L271.59,251.36 M175.40,265.22L180.07,262.49 M180.89,268.36L187.89,268.29 M180.69,280.83L175.21,277.90 M266.38,292.39L271.59,291.86 M259.47,293.43L253.51,294.10 M191.45,276.11L202.35,276.12 M191.48,271.55L202.38,271.57 M207.43,276.13L215.43,276.16 M207.46,271.59L215.47,271.64 M191.71,271.69L197.14,271.72 M191.68,275.94L197.10,275.98 M191.45,267.07L202.35,267.10 M191.46,271.63L202.36,271.65 M207.43,267.11L215.43,267.11 M207.44,271.65L215.46,271.63 M191.70,271.49L197.12,271.48 M191.68,267.24L197.10,267.22 M220.76,257.77L220.77,270.54" stroke="currentColor" stroke-width="0.6" stroke-linecap="round" fill="none" opacity="0.55" clip-path="url(#hull-clip)" filter="url(#glow)" />
  <path d="M 302.75,333.62 C 301.64,333.55 300.43,333.54 299.25,333.38 C 298.07,333.21 296.86,332.97 295.64,332.64 C 294.42,332.32 293.18,331.91 291.92,331.42 C 290.66,330.93 289.39,330.37 288.09,329.72 C 286.80,329.07 285.49,328.34 284.16,327.53 C 282.83,326.72 281.48,325.83 280.11,324.86 C 278.74,323.89 277.36,322.84 275.95,321.70 C 274.55,320.57 273.13,319.36 271.69,318.06 C 270.25,316.77 268.70,315.24 267.31,313.94 C 265.93,312.64 264.61,311.41 263.38,310.27 C 262.14,309.12 260.97,308.04 259.88,307.05 C 258.78,306.05 257.76,305.13 256.81,304.28 C 255.86,303.43 254.99,302.66 254.19,301.97 C 253.39,301.27 252.66,300.65 252.00,300.11 C 251.34,299.57 250.76,299.10 250.25,298.70 C 249.74,298.31 249.30,297.99 248.94,297.75 C 248.57,297.51 248.39,297.41 248.06,297.25 C 247.73,297.09 247.37,296.93 246.97,296.78 C 246.57,296.63 246.13,296.48 245.66,296.34 C 245.18,296.20 244.67,296.07 244.12,295.94 C 243.58,295.81 242.99,295.68 242.38,295.56 C 241.76,295.44 241.10,295.33 240.41,295.22 C 239.71,295.11 238.98,295.01 238.22,294.91 C 237.45,294.81 236.65,294.71 235.81,294.62 C 234.97,294.54 234.09,294.47 233.19,294.38 C 232.29,294.28 231.36,294.17 230.41,294.05 C 229.45,293.92 228.47,293.79 227.47,293.64 C 226.46,293.49 225.43,293.33 224.38,293.16 C 223.32,292.98 222.23,292.79 221.12,292.59 C 220.02,292.39 218.88,292.18 217.72,291.95 C 216.56,291.73 215.37,291.49 214.16,291.23 C 212.94,290.98 211.70,290.72 210.44,290.44 C 209.17,290.16 207.83,289.86 206.56,289.56 C 205.29,289.27 204.04,288.97 202.81,288.67 C 201.58,288.37 200.38,288.07 199.19,287.77 C 198.00,287.46 196.83,287.15 195.69,286.84 C 194.54,286.53 193.42,286.22 192.31,285.91 C 191.21,285.59 190.12,285.27 189.06,284.95 C 188.00,284.63 186.96,284.31 185.94,283.98 C 184.92,283.66 183.92,283.33 182.94,283.00 C 181.96,282.67 180.97,282.33 180.06,282.00 C 179.15,281.67 178.29,281.35 177.47,281.03 C 176.65,280.71 175.88,280.40 175.16,280.09 C 174.43,279.79 173.76,279.48 173.12,279.19 C 172.49,278.89 171.91,278.60 171.38,278.31 C 170.84,278.03 170.35,277.74 169.91,277.47 C 169.46,277.19 169.07,276.92 168.72,276.66 C 168.37,276.39 168.07,276.13 167.81,275.88 C 167.56,275.62 167.41,275.36 167.19,275.12 C 166.96,274.89 166.73,274.67 166.48,274.46 C 166.23,274.25 165.96,274.06 165.68,273.88 C 165.40,273.70 165.11,273.54 164.80,273.39 C 164.49,273.24 164.17,273.11 163.83,272.98 C 163.49,272.86 163.14,272.76 162.77,272.66 C 162.41,272.57 162.03,272.49 161.63,272.43 C 161.24,272.37 160.83,272.32 160.41,272.28 C 159.98,272.25 159.50,272.24 159.09,272.22 C 158.68,272.19 158.30,272.16 157.95,272.12 C 157.60,272.09 157.28,272.05 156.98,272.00 C 156.69,271.95 156.42,271.90 156.19,271.84 C 155.95,271.79 155.74,271.72 155.56,271.66 C 155.38,271.59 155.23,271.52 155.11,271.44 C 154.99,271.36 154.89,271.28 154.83,271.19 C 154.76,271.10 154.73,271.01 154.72,270.91 C 154.71,270.81 154.74,270.69 154.78,270.59 C 154.83,270.50 154.90,270.40 154.99,270.32 C 155.09,270.24 155.21,270.16 155.35,270.09 C 155.50,270.01 155.67,269.95 155.86,269.89 C 156.05,269.83 156.27,269.78 156.52,269.73 C 156.76,269.69 157.03,269.65 157.32,269.62 C 157.61,269.58 157.93,269.56 158.27,269.54 C 158.62,269.52 158.98,269.51 159.38,269.50 C 159.77,269.49 160.22,269.52 160.62,269.50 C 161.03,269.48 161.42,269.45 161.80,269.41 C 162.17,269.36 162.54,269.30 162.89,269.22 C 163.24,269.14 163.58,269.05 163.91,268.94 C 164.23,268.83 164.54,268.70 164.84,268.56 C 165.14,268.42 165.43,268.27 165.70,268.09 C 165.98,267.92 166.24,267.73 166.48,267.53 C 166.73,267.33 166.97,267.11 167.19,266.88 C 167.41,266.64 167.58,266.37 167.81,266.12 C 168.04,265.88 168.29,265.63 168.56,265.39 C 168.83,265.15 169.12,264.91 169.44,264.67 C 169.75,264.43 170.08,264.20 170.44,263.97 C 170.79,263.74 171.17,263.51 171.56,263.28 C 171.96,263.05 172.38,262.83 172.81,262.61 C 173.25,262.39 173.71,262.17 174.19,261.95 C 174.67,261.74 175.17,261.52 175.69,261.31 C 176.21,261.10 176.80,260.88 177.31,260.69 C 177.82,260.49 178.30,260.32 178.75,260.16 C 179.20,259.99 179.61,259.85 180.00,259.72 C 180.39,259.59 180.74,259.47 181.06,259.38 C 181.39,259.28 181.68,259.19 181.94,259.12 C 182.20,259.06 182.43,259.01 182.62,258.97 C 182.82,258.93 182.99,258.91 183.12,258.91 C 183.26,258.90 183.36,258.91 183.44,258.94 C 183.51,258.96 183.41,259.05 183.56,259.06 C 183.71,259.07 183.97,259.05 184.33,259.00 C 184.69,258.95 185.16,258.86 185.73,258.75 C 186.31,258.64 186.99,258.49 187.78,258.31 C 188.57,258.14 189.47,257.93 190.47,257.69 C 191.47,257.45 192.58,257.18 193.80,256.88 C 195.01,256.57 196.34,256.24 197.77,255.88 C 199.20,255.51 200.73,255.11 202.38,254.69 C 204.02,254.26 205.95,253.74 207.62,253.31 C 209.30,252.88 210.91,252.47 212.44,252.09 C 213.97,251.71 215.43,251.36 216.81,251.03 C 218.20,250.70 219.51,250.40 220.75,250.12 C 221.99,249.85 223.16,249.60 224.25,249.38 C 225.34,249.15 226.36,248.95 227.31,248.78 C 228.26,248.61 229.14,248.46 229.94,248.34 C 230.74,248.22 231.47,248.13 232.12,248.06 C 232.78,247.99 233.32,247.98 233.88,247.94 C 234.43,247.90 234.96,247.86 235.47,247.83 C 235.97,247.79 236.45,247.76 236.91,247.73 C 237.36,247.71 237.79,247.68 238.19,247.66 C 238.59,247.63 238.96,247.61 239.31,247.59 C 239.66,247.58 239.98,247.56 240.28,247.55 C 240.58,247.53 240.85,247.52 241.09,247.52 C 241.34,247.51 241.56,247.50 241.75,247.50 C 241.94,247.50 242.07,247.51 242.25,247.50 C 242.43,247.49 242.61,247.46 242.81,247.42 C 243.01,247.38 243.22,247.33 243.44,247.27 C 243.66,247.20 243.89,247.12 244.12,247.03 C 244.36,246.94 244.61,246.84 244.88,246.72 C 245.14,246.60 245.41,246.47 245.69,246.33 C 245.97,246.18 246.26,246.03 246.56,245.86 C 246.86,245.69 247.18,245.51 247.50,245.31 C 247.82,245.12 248.12,244.95 248.50,244.69 C 248.88,244.43 249.31,244.12 249.79,243.76 C 250.27,243.40 250.79,242.99 251.37,242.52 C 251.94,242.06 252.56,241.55 253.23,240.98 C 253.90,240.42 254.62,239.81 255.39,239.14 C 256.16,238.48 256.97,237.76 257.84,236.99 C 258.70,236.23 259.61,235.41 260.57,234.54 C 261.53,233.67 262.54,232.75 263.59,231.78 C 264.65,230.81 265.88,229.68 266.91,228.72 C 267.94,227.76 268.89,226.86 269.77,226.02 C 270.65,225.19 271.46,224.41 272.20,223.70 C 272.93,222.98 273.59,222.33 274.17,221.73 C 274.76,221.14 275.27,220.61 275.70,220.14 C 276.14,219.67 276.50,219.26 276.79,218.91 C 277.08,218.57 277.29,218.28 277.43,218.05 C 277.57,217.83 277.63,217.67 277.62,217.56 C 277.62,217.46 277.45,217.48 277.38,217.44 C 277.30,217.39 277.23,217.35 277.16,217.30 C 277.10,217.26 277.04,217.21 276.99,217.16 C 276.94,217.12 276.90,217.07 276.86,217.02 C 276.82,216.96 276.79,216.91 276.77,216.86 C 276.74,216.81 276.72,216.75 276.71,216.70 C 276.70,216.64 276.69,216.58 276.70,216.52 C 276.70,216.46 276.70,216.40 276.72,216.34 C 276.73,216.28 276.75,216.21 276.78,216.16 C 276.81,216.10 276.85,216.04 276.90,215.99 C 276.95,215.94 277.00,215.89 277.07,215.85 C 277.14,215.81 277.21,215.77 277.30,215.73 C 277.38,215.70 277.48,215.67 277.58,215.64 C 277.68,215.61 277.79,215.59 277.91,215.57 C 278.04,215.55 278.17,215.54 278.30,215.52 C 278.44,215.51 278.59,215.50 278.75,215.50 C 278.91,215.50 279.08,215.52 279.25,215.50 C 279.42,215.48 279.61,215.45 279.80,215.41 C 279.99,215.36 280.18,215.30 280.39,215.22 C 280.60,215.14 280.81,215.05 281.03,214.94 C 281.25,214.83 281.48,214.70 281.72,214.56 C 281.96,214.42 282.20,214.27 282.45,214.09 C 282.71,213.92 282.97,213.73 283.23,213.53 C 283.50,213.33 283.78,213.11 284.06,212.88 C 284.35,212.64 284.60,212.36 284.94,212.12 C 285.28,211.89 285.67,211.66 286.11,211.44 C 286.55,211.22 287.04,211.01 287.58,210.81 C 288.12,210.61 288.71,210.43 289.34,210.25 C 289.98,210.07 290.67,209.91 291.41,209.75 C 292.14,209.59 292.93,209.45 293.77,209.31 C 294.60,209.18 295.49,209.05 296.42,208.94 C 297.36,208.82 298.34,208.72 299.38,208.62 C 300.41,208.53 301.59,208.45 302.62,208.38 C 303.66,208.30 304.64,208.24 305.58,208.19 C 306.51,208.14 307.40,208.09 308.23,208.06 C 309.07,208.03 309.86,208.01 310.59,208.00 C 311.33,207.99 312.02,207.99 312.66,208.00 C 313.29,208.01 313.88,208.03 314.42,208.06 C 314.96,208.09 315.45,208.14 315.89,208.19 C 316.33,208.24 316.72,208.30 317.06,208.38 C 317.40,208.45 317.65,208.54 317.94,208.62 C 318.22,208.71 318.50,208.80 318.77,208.90 C 319.05,208.99 319.31,209.09 319.57,209.20 C 319.83,209.30 320.08,209.40 320.33,209.52 C 320.57,209.63 320.81,209.74 321.05,209.86 C 321.28,209.98 321.51,210.10 321.73,210.23 C 321.95,210.35 322.16,210.48 322.37,210.62 C 322.57,210.75 322.77,210.89 322.97,211.03 C 323.16,211.17 323.31,211.24 323.53,211.47 C 323.76,211.70 324.02,212.02 324.32,212.43 C 324.62,212.84 324.96,213.33 325.34,213.91 C 325.71,214.50 326.13,215.17 326.58,215.92 C 327.03,216.68 327.52,217.52 328.05,218.45 C 328.57,219.38 329.14,220.40 329.74,221.51 C 330.35,222.61 330.99,223.81 331.66,225.09 C 332.34,226.37 333.06,227.73 333.81,229.19 C 334.57,230.64 335.41,232.33 336.19,233.81 C 336.97,235.29 337.74,236.72 338.50,238.08 C 339.26,239.44 340.01,240.74 340.75,241.98 C 341.49,243.23 342.22,244.41 342.94,245.53 C 343.66,246.65 344.36,247.72 345.06,248.72 C 345.76,249.72 346.45,250.66 347.12,251.55 C 347.80,252.43 348.47,253.25 349.12,254.02 C 349.78,254.78 350.43,255.48 351.06,256.12 C 351.70,256.77 352.35,257.30 352.94,257.88 C 353.53,258.45 354.08,259.03 354.59,259.59 C 355.11,260.16 355.59,260.72 356.03,261.28 C 356.47,261.84 356.88,262.39 357.25,262.94 C 357.62,263.48 357.95,264.03 358.25,264.56 C 358.55,265.10 358.81,265.63 359.03,266.16 C 359.26,266.68 359.44,267.20 359.59,267.72 C 359.74,268.23 359.86,268.74 359.94,269.25 C 360.02,269.76 360.07,270.24 360.06,270.75 C 360.06,271.26 360.01,271.78 359.92,272.31 C 359.83,272.84 359.70,273.39 359.52,273.94 C 359.34,274.49 359.11,275.05 358.84,275.62 C 358.58,276.20 358.26,276.78 357.91,277.38 C 357.55,277.97 357.15,278.57 356.70,279.19 C 356.26,279.80 355.77,280.43 355.23,281.06 C 354.70,281.70 354.12,282.34 353.50,283.00 C 352.88,283.66 352.17,284.28 351.50,285.00 C 350.83,285.72 350.14,286.50 349.45,287.33 C 348.76,288.16 348.07,289.04 347.36,289.98 C 346.65,290.92 345.94,291.92 345.22,292.97 C 344.50,294.02 343.77,295.12 343.03,296.28 C 342.29,297.44 341.55,298.65 340.80,299.92 C 340.04,301.19 339.28,302.51 338.52,303.89 C 337.75,305.27 336.97,306.70 336.19,308.19 C 335.40,309.67 334.56,311.36 333.81,312.81 C 333.06,314.27 332.35,315.63 331.68,316.91 C 331.01,318.19 330.38,319.39 329.79,320.49 C 329.20,321.60 328.65,322.62 328.14,323.55 C 327.63,324.48 327.16,325.32 326.73,326.08 C 326.31,326.83 325.92,327.50 325.57,328.09 C 325.22,328.67 324.92,329.16 324.65,329.57 C 324.38,329.98 324.15,330.30 323.97,330.53 C 323.78,330.76 323.69,330.83 323.53,330.97 C 323.38,331.11 323.21,331.25 323.04,331.38 C 322.87,331.52 322.68,331.65 322.49,331.77 C 322.30,331.90 322.10,332.02 321.89,332.14 C 321.68,332.26 321.46,332.37 321.23,332.48 C 321.01,332.60 320.77,332.70 320.52,332.80 C 320.28,332.91 320.02,333.01 319.76,333.10 C 319.49,333.20 319.22,333.29 318.94,333.38 C 318.65,333.46 318.41,333.55 318.06,333.62 C 317.72,333.70 317.32,333.76 316.86,333.81 C 316.40,333.86 315.89,333.91 315.33,333.94 C 314.76,333.97 314.14,333.99 313.47,334.00 C 312.79,334.01 312.07,334.01 311.28,334.00 C 310.50,333.99 309.66,333.97 308.77,333.94 C 307.87,333.91 306.92,333.86 305.92,333.81 C 304.92,333.76 303.86,333.70 302.75,333.62 Z" fill="none" stroke="currentColor" stroke-width="1.5" stroke-linejoin="round" stroke-linecap="round" filter="url(#glow)" />
</svg>