<svg xmlns="http://www.w3.org/2000/svg" width="512" height="512" viewBox="104.66 199.15 268.28 113.65" preserveAspectRatio="xMidYMid meet">
  <defs>
    <filter id="glow" x="-30%" y="-30%" width="160%" height="160%">
      <feGaussianBlur in="SourceGraphic" stdDeviation="2.4" result="blur" />
      <feMerge>
        <feMergeNode in="blur" />
        <feMergeNode in="SourceGraphic" />
      </feMerge>
    </filter>
    <clipPath id="hull-clip">
      <path d="M 204.81,305.06 C 203.98,305.03 203.01,304.98 202.19,304.94 C 201.37,304.89 200.60,304.85 199.89,304.80 C 199.18,304.75 198.52,304.70 197.92,304.64 C 197.32,304.59 196.77,304.53 196.28,304.47 C 195.79,304.41 195.35,304.35 194.97,304.28 C 194.59,304.22 194.26,304.15 193.98,304.08 C 193.71,304.01 193.49,303.93 193.33,303.86 C 193.16,303.78 193.05,303.71 193.00,303.62 C 192.95,303.54 192.98,303.45 193.00,303.38 C 193.02,303.30 193.07,303.22 193.15,303.15 C 193.22,303.08 193.32,303.01 193.45,302.95 C 193.57,302.88 193.72,302.82 193.89,302.77 C 194.06,302.71 194.26,302.66 194.48,302.61 C 194.71,302.56 194.95,302.52 195.23,302.48 C 195.50,302.44 195.80,302.40 196.12,302.37 C 196.44,302.33 196.79,302.31 197.16,302.28 C 197.53,302.26 198.05,302.30 198.34,302.22 C 198.63,302.14 198.82,302.00 198.89,301.80 C 198.97,301.60 198.93,301.34 198.80,301.02 C 198.66,300.70 198.41,300.32 198.06,299.88 C 197.71,299.43 197.25,298.93 196.69,298.38 C 196.12,297.82 195.45,297.20 194.67,296.52 C 193.89,295.84 193.01,295.10 192.02,294.30 C 191.02,293.50 189.92,292.64 188.72,291.72 C 187.51,290.80 186.14,289.73 184.78,288.78 C 183.42,287.83 182.01,286.92 180.55,286.04 C 179.10,285.16 177.59,284.31 176.04,283.49 C 174.49,282.68 172.88,281.89 171.23,281.14 C 169.58,280.39 167.89,279.67 166.14,278.98 C 164.39,278.30 162.60,277.64 160.76,277.02 C 158.92,276.40 157.02,275.81 155.09,275.26 C 153.15,274.70 151.16,274.18 149.12,273.69 C 147.09,273.20 144.83,272.75 142.88,272.31 C 140.92,271.88 139.09,271.47 137.38,271.09 C 135.68,270.70 134.10,270.34 132.65,270.01 C 131.20,269.67 129.87,269.36 128.67,269.08 C 127.47,268.79 126.40,268.53 125.45,268.30 C 124.51,268.06 123.69,267.85 122.99,267.66 C 122.30,267.48 121.73,267.32 121.29,267.18 C 120.85,267.04 120.53,266.93 120.34,266.84 C 120.15,266.76 120.21,266.72 120.16,266.66 C 120.11,266.60 120.07,266.54 120.05,266.48 C 120.02,266.43 120.01,266.38 120.02,266.33 C 120.02,266.28 120.03,266.23 120.06,266.19 C 120.09,266.14 120.13,266.10 120.19,266.06 C 120.24,266.02 120.31,265.99 120.39,265.95 C 120.47,265.92 120.57,265.89 120.67,265.86 C 120.78,265.83 120.90,265.80 121.03,265.78 C 121.16,265.76 121.33,265.74 121.47,265.72 C 121.61,265.69 121.73,265.67 121.85,265.63 C 121.97,265.60 122.08,265.56 122.18,265.52 C 122.28,265.48 122.37,265.44 122.45,265.39 C 122.54,265.34 122.61,265.29 122.67,265.23 C 122.74,265.18 122.79,265.12 122.84,265.05 C 122.88,264.99 122.92,264.92 122.95,264.85 C 122.97,264.78 122.99,264.70 123.00,264.62 C 123.01,264.55 123.02,264.45 123.00,264.38 C 122.98,264.30 122.93,264.22 122.86,264.16 C 122.79,264.09 122.70,264.03 122.58,263.97 C 122.46,263.91 122.32,263.86 122.16,263.81 C 121.99,263.77 121.80,263.72 121.59,263.69 C 121.38,263.65 121.15,263.62 120.89,263.59 C 120.63,263.57 120.35,263.55 120.05,263.53 C 119.74,263.52 119.41,263.51 119.06,263.50 C 118.71,263.49 118.29,263.50 117.94,263.50 C 117.58,263.50 117.25,263.49 116.93,263.48 C 116.61,263.46 116.32,263.45 116.04,263.43 C 115.76,263.41 115.50,263.39 115.27,263.36 C 115.03,263.33 114.81,263.30 114.61,263.27 C 114.41,263.23 114.23,263.19 114.07,263.15 C 113.91,263.11 113.77,263.06 113.65,263.01 C 113.53,262.96 113.43,262.90 113.34,262.84 C 113.26,262.79 113.21,262.75 113.16,262.66 C 113.10,262.56 113.04,262.44 112.99,262.29 C 112.94,262.14 112.89,261.95 112.85,261.74 C 112.81,261.53 112.77,261.29 112.73,261.02 C 112.70,260.74 112.67,260.44 112.64,260.11 C 112.61,259.78 112.59,259.42 112.57,259.02 C 112.55,258.63 112.54,258.21 112.52,257.76 C 112.51,257.31 112.50,256.82 112.50,256.31 C 112.50,255.80 112.50,255.20 112.50,254.69 C 112.50,254.18 112.51,253.69 112.52,253.24 C 112.54,252.79 112.55,252.37 112.57,251.98 C 112.59,251.58 112.61,251.22 112.64,250.89 C 112.67,250.56 112.70,250.26 112.73,249.98 C 112.77,249.71 112.81,249.47 112.85,249.26 C 112.89,249.05 112.94,248.86 112.99,248.71 C 113.04,248.56 113.10,248.44 113.16,248.34 C 113.21,248.25 113.26,248.21 113.34,248.16 C 113.43,248.10 113.53,248.04 113.65,247.99 C 113.77,247.94 113.91,247.89 114.07,247.85 C 114.23,247.81 114.41,247.77 114.61,247.73 C 114.81,247.70 115.03,247.67 115.27,247.64 C 115.50,247.61 115.76,247.59 116.04,247.57 C 116.32,247.55 116.61,247.54 116.93,247.52 C 117.25,247.51 117.58,247.50 117.94,247.50 C 118.29,247.50 118.72,247.51 119.06,247.50 C 119.41,247.49 119.73,247.47 120.02,247.44 C 120.30,247.41 120.57,247.36 120.80,247.31 C 121.03,247.26 121.23,247.20 121.41,247.12 C 121.58,247.05 121.73,246.97 121.84,246.88 C 121.96,246.78 122.05,246.68 122.11,246.56 C 122.17,246.45 122.20,246.32 122.20,246.19 C 122.21,246.05 122.18,245.91 122.12,245.75 C 122.07,245.59 121.89,245.42 121.88,245.25 C 121.86,245.08 121.93,244.89 122.06,244.70 C 122.20,244.51 122.41,244.32 122.69,244.11 C 122.97,243.90 123.32,243.69 123.75,243.47 C 124.18,243.25 124.68,243.02 125.25,242.78 C 125.82,242.54 126.47,242.30 127.19,242.05 C 127.91,241.79 128.70,241.53 129.56,241.27 C 130.43,241.00 131.36,240.72 132.38,240.44 C 133.39,240.15 134.58,239.84 135.62,239.56 C 136.67,239.29 137.67,239.03 138.62,238.80 C 139.58,238.56 140.50,238.34 141.38,238.14 C 142.25,237.94 143.08,237.76 143.88,237.59 C 144.67,237.43 145.42,237.28 146.12,237.16 C 146.83,237.03 147.50,236.92 148.12,236.83 C 148.75,236.74 149.33,236.66 149.88,236.61 C 150.42,236.55 150.92,236.52 151.38,236.50 C 151.83,236.48 152.19,236.51 152.62,236.50 C 153.06,236.49 153.51,236.46 153.97,236.42 C 154.43,236.38 154.91,236.33 155.41,236.27 C 155.90,236.20 156.41,236.12 156.94,236.03 C 157.46,235.94 158.01,235.84 158.56,235.72 C 159.12,235.60 159.69,235.47 160.28,235.33 C 160.87,235.18 161.47,235.03 162.09,234.86 C 162.71,234.69 163.35,234.51 164.00,234.31 C 164.65,234.12 165.30,233.94 166.00,233.69 C 166.70,233.43 167.44,233.13 168.21,232.79 C 168.98,232.44 169.79,232.05 170.63,231.62 C 171.48,231.18 172.35,230.70 173.27,230.17 C 174.18,229.64 175.13,229.07 176.11,228.45 C 177.09,227.83 178.11,227.17 179.16,226.46 C 180.22,225.75 181.31,225.00 182.43,224.20 C 183.55,223.39 184.71,222.55 185.91,221.66 C 187.10,220.76 188.47,219.72 189.59,218.84 C 190.72,217.96 191.75,217.14 192.67,216.38 C 193.60,215.61 194.42,214.90 195.14,214.25 C 195.86,213.60 196.48,213.01 197.00,212.47 C 197.52,211.93 197.93,211.45 198.25,211.03 C 198.57,210.61 198.78,210.24 198.89,209.94 C 199.00,209.63 199.01,209.38 198.92,209.19 C 198.83,208.99 198.64,208.86 198.34,208.78 C 198.05,208.70 197.53,208.74 197.16,208.72 C 196.79,208.69 196.44,208.67 196.12,208.63 C 195.80,208.60 195.50,208.56 195.23,208.52 C 194.95,208.48 194.71,208.44 194.48,208.39 C 194.26,208.34 194.06,208.29 193.89,208.23 C 193.72,208.18 193.57,208.12 193.45,208.05 C 193.32,207.99 193.22,207.92 193.15,207.85 C 193.07,207.78 193.02,207.70 193.00,207.62 C 192.98,207.55 192.95,207.46 193.00,207.38 C 193.05,207.29 193.16,207.22 193.33,207.14 C 193.49,207.07 193.71,206.99 193.98,206.92 C 194.26,206.85 194.59,206.78 194.97,206.72 C 195.35,206.65 195.79,206.59 196.28,206.53 C 196.77,206.47 197.32,206.41 197.92,206.36 C 198.52,206.30 199.18,206.25 199.89,206.20 C 200.60,206.15 201.37,206.11 202.19,206.06 C 203.01,206.02 203.98,205.97 204.81,205.94 C 205.65,205.91 206.44,205.89 207.19,205.88 C 207.94,205.86 208.65,205.86 209.31,205.88 C 209.98,205.89 210.60,205.91 211.19,205.94 C 211.77,205.97 212.31,206.01 212.81,206.06 C 213.31,206.11 213.77,206.18 214.19,206.25 C 214.60,206.32 214.98,206.41 215.31,206.50 C 215.65,206.59 215.94,206.70 216.19,206.81 C 216.44,206.93 216.57,207.06 216.81,207.19 C 217.05,207.31 217.33,207.44 217.64,207.56 C 217.95,207.69 218.29,207.81 218.67,207.94 C 219.05,208.06 219.46,208.19 219.91,208.31 C 220.35,208.44 220.83,208.56 221.34,208.69 C 221.86,208.81 222.40,208.94 222.98,209.06 C 223.57,209.19 224.18,209.31 224.83,209.44 C 225.48,209.56 226.16,209.69 226.88,209.81 C 227.59,209.94 228.41,210.07 229.12,210.19 C 229.84,210.30 230.52,210.41 231.16,210.52 C 231.80,210.62 232.40,210.71 232.97,210.80 C 233.54,210.88 234.07,210.96 234.56,211.03 C 235.06,211.10 235.52,211.16 235.94,211.22 C 236.36,211.27 236.74,211.32 237.09,211.36 C 237.44,211.40 237.76,211.43 238.03,211.45 C 238.31,211.48 238.55,211.49 238.75,211.50 C 238.95,211.51 239.09,211.51 239.25,211.50 C 239.41,211.49 239.57,211.48 239.72,211.45 C 239.87,211.43 240.02,211.40 240.16,211.36 C 240.30,211.32 240.43,211.27 240.56,211.22 C 240.69,211.16 240.82,211.10 240.94,211.03 C 241.06,210.96 241.17,210.88 241.28,210.80 C 241.39,210.71 241.49,210.62 241.59,210.52 C 241.69,210.41 241.79,210.30 241.88,210.19 C 241.96,210.07 241.89,209.92 242.12,209.81 C 242.36,209.70 242.76,209.61 243.31,209.53 C 243.86,209.45 244.57,209.39 245.44,209.34 C 246.30,209.30 247.32,209.27 248.50,209.25 C 249.68,209.23 251.01,209.23 252.50,209.25 C 253.99,209.27 255.64,209.30 257.44,209.34 C 259.24,209.39 261.20,209.45 263.31,209.53 C 265.43,209.61 267.70,209.70 270.12,209.81 C 272.55,209.92 275.39,210.07 277.88,210.19 C 280.36,210.31 282.74,210.42 285.03,210.53 C 287.32,210.64 289.51,210.74 291.59,210.84 C 293.68,210.94 295.67,211.04 297.56,211.12 C 299.45,211.21 301.24,211.30 302.94,211.38 C 304.63,211.45 306.22,211.53 307.72,211.59 C 309.21,211.66 310.61,211.72 311.91,211.78 C 313.20,211.84 314.40,211.89 315.50,211.94 C 316.60,211.98 317.54,212.00 318.50,212.06 C 319.46,212.12 320.38,212.20 321.27,212.30 C 322.15,212.39 322.99,212.51 323.80,212.64 C 324.60,212.77 325.37,212.92 326.09,213.09 C 326.82,213.26 327.51,213.45 328.16,213.66 C 328.80,213.86 329.41,214.09 329.98,214.33 C 330.55,214.57 331.09,214.83 331.58,215.11 C 332.07,215.39 332.52,215.68 332.94,216.00 C 333.35,216.32 333.67,216.68 334.06,217.00 C 334.46,217.32 334.87,217.62 335.30,217.91 C 335.73,218.19 336.17,218.46 336.64,218.72 C 337.11,218.97 337.59,219.21 338.09,219.44 C 338.60,219.66 339.12,219.87 339.66,220.06 C 340.20,220.26 340.75,220.43 341.33,220.59 C 341.90,220.76 342.50,220.90 343.11,221.03 C 343.72,221.16 344.35,221.28 345.00,221.38 C 345.65,221.47 346.37,221.55 347.00,221.62 C 347.63,221.70 348.22,221.76 348.78,221.81 C 349.34,221.86 349.86,221.91 350.34,221.94 C 350.83,221.97 351.28,221.99 351.69,222.00 C 352.10,222.01 352.47,222.01 352.81,222.00 C 353.15,221.99 353.45,221.97 353.72,221.94 C 353.98,221.91 354.21,221.86 354.41,221.81 C 354.60,221.76 354.76,221.70 354.88,221.62 C 354.99,221.55 355.02,221.43 355.12,221.38 C 355.23,221.32 355.37,221.28 355.52,221.27 C 355.68,221.26 355.86,221.28 356.07,221.32 C 356.28,221.36 356.51,221.43 356.77,221.52 C 357.02,221.61 357.30,221.72 357.61,221.86 C 357.92,222.00 358.25,222.16 358.60,222.35 C 358.96,222.54 359.34,222.75 359.74,222.99 C 360.15,223.23 360.58,223.49 361.03,223.78 C 361.49,224.07 362.01,224.41 362.47,224.72 C 362.92,225.02 363.36,225.32 363.77,225.61 C 364.17,225.90 364.56,226.18 364.92,226.45 C 365.28,226.73 365.62,226.99 365.94,227.25 C 366.25,227.51 366.54,227.76 366.81,228.00 C 367.08,228.24 367.33,228.48 367.55,228.70 C 367.77,228.93 367.97,229.15 368.14,229.36 C 368.32,229.57 368.47,229.77 368.59,229.97 C 368.72,230.16 368.94,230.36 368.91,230.53 C 368.87,230.71 368.69,230.87 368.37,231.02 C 368.05,231.18 367.58,231.32 366.98,231.45 C 366.37,231.57 365.62,231.69 364.73,231.80 C 363.85,231.90 362.81,232.00 361.64,232.08 C 360.47,232.16 359.15,232.23 357.70,232.29 C 356.24,232.35 354.64,232.39 352.90,232.43 C 351.16,232.46 349.27,232.49 347.25,232.50 C 345.23,232.51 342.79,232.50 340.75,232.50 C 338.71,232.50 336.81,232.51 335.04,232.52 C 333.27,232.54 331.63,232.55 330.12,232.57 C 328.61,232.59 327.23,232.61 325.98,232.64 C 324.74,232.67 323.62,232.70 322.64,232.73 C 321.66,232.77 320.81,232.81 320.09,232.85 C 319.37,232.89 318.78,232.94 318.32,232.99 C 317.86,233.04 317.54,233.10 317.34,233.16 C 317.15,233.21 317.20,233.26 317.16,233.34 C 317.12,233.43 317.10,233.53 317.10,233.65 C 317.11,233.77 317.13,233.91 317.18,234.07 C 317.23,234.23 317.30,234.41 317.39,234.61 C 317.48,234.81 317.60,235.03 317.73,235.27 C 317.87,235.50 318.03,235.76 318.21,236.04 C 318.39,236.32 318.60,236.61 318.82,236.93 C 319.05,237.25 319.29,237.58 319.56,237.94 C 319.83,238.29 320.17,238.71 320.44,239.06 C 320.71,239.42 320.95,239.76 321.17,240.08 C 321.39,240.40 321.59,240.70 321.77,240.98 C 321.94,241.27 322.09,241.53 322.22,241.78 C 322.35,242.03 322.45,242.26 322.53,242.47 C 322.61,242.68 322.67,242.87 322.70,243.05 C 322.74,243.22 322.75,243.38 322.73,243.52 C 322.72,243.65 322.68,243.77 322.62,243.88 C 322.57,243.98 322.45,244.04 322.38,244.12 C 322.30,244.21 322.24,244.31 322.19,244.41 C 322.14,244.51 322.09,244.61 322.06,244.72 C 322.03,244.83 322.01,244.94 322.00,245.06 C 321.99,245.18 321.99,245.31 322.00,245.44 C 322.01,245.57 322.03,245.70 322.06,245.84 C 322.09,245.98 322.14,246.13 322.19,246.28 C 322.24,246.43 322.30,246.59 322.38,246.75 C 322.45,246.91 322.55,247.06 322.62,247.25 C 322.70,247.44 322.78,247.65 322.84,247.89 C 322.91,248.13 322.97,248.39 323.03,248.67 C 323.09,248.96 323.14,249.26 323.19,249.59 C 323.23,249.92 323.28,250.28 323.31,250.66 C 323.35,251.03 323.38,251.43 323.41,251.86 C 323.43,252.28 323.45,252.73 323.47,253.20 C 323.48,253.67 323.49,254.17 323.50,254.69 C 323.51,255.21 323.51,255.79 323.50,256.31 C 323.49,256.83 323.48,257.33 323.47,257.80 C 323.45,258.27 323.43,258.72 323.41,259.14 C 323.38,259.57 323.35,259.97 323.31,260.34 C 323.28,260.72 323.23,261.08 323.19,261.41 C 323.14,261.74 323.09,262.04 323.03,262.33 C 322.97,262.61 322.91,262.87 322.84,263.11 C 322.78,263.35 322.70,263.56 322.62,263.75 C 322.55,263.94 322.45,264.09 322.38,264.25 C 322.30,264.41 322.24,264.57 322.19,264.72 C 322.14,264.87 322.09,265.02 322.06,265.16 C 322.03,265.30 322.01,265.43 322.00,265.56 C 321.99,265.69 321.99,265.82 322.00,265.94 C 322.01,266.06 322.03,266.17 322.06,266.28 C 322.09,266.39 322.14,266.49 322.19,266.59 C 322.24,266.69 322.30,266.79 322.38,266.88 C 322.45,266.96 322.56,267.02 322.62,267.12 C 322.69,267.23 322.73,267.35 322.74,267.49 C 322.76,267.63 322.75,267.80 322.73,267.98 C 322.70,268.16 322.65,268.36 322.58,268.58 C 322.51,268.80 322.41,269.04 322.30,269.30 C 322.18,269.56 322.04,269.83 321.88,270.13 C 321.72,270.43 321.54,270.75 321.34,271.09 C 321.13,271.42 320.90,271.78 320.66,272.16 C 320.41,272.53 319.96,272.97 319.84,273.34 C 319.73,273.72 319.77,274.07 319.96,274.40 C 320.15,274.73 320.50,275.04 321.01,275.32 C 321.51,275.61 322.17,275.87 322.98,276.11 C 323.80,276.35 324.77,276.57 325.89,276.77 C 327.01,276.96 328.29,277.14 329.73,277.29 C 331.16,277.44 332.75,277.57 334.49,277.68 C 336.24,277.79 338.13,277.87 340.19,277.94 C 342.24,278.00 344.75,278.01 346.81,278.06 C 348.88,278.11 350.80,278.17 352.57,278.24 C 354.35,278.31 355.98,278.39 357.46,278.48 C 358.95,278.56 360.29,278.66 361.48,278.77 C 362.68,278.87 363.73,278.99 364.64,279.11 C 365.55,279.23 366.31,279.37 366.93,279.51 C 367.55,279.65 368.02,279.80 368.35,279.96 C 368.68,280.12 368.87,280.29 368.91,280.47 C 368.95,280.65 368.72,280.83 368.59,281.03 C 368.46,281.23 368.31,281.44 368.12,281.66 C 367.94,281.88 367.73,282.10 367.50,282.34 C 367.27,282.58 367.01,282.83 366.72,283.09 C 366.43,283.35 366.12,283.62 365.78,283.91 C 365.44,284.19 365.08,284.48 364.69,284.78 C 364.30,285.08 363.88,285.40 363.44,285.72 C 362.99,286.04 362.53,286.38 362.03,286.72 C 361.54,287.06 360.96,287.46 360.47,287.78 C 359.98,288.11 359.52,288.40 359.10,288.66 C 358.68,288.93 358.29,289.16 357.93,289.37 C 357.57,289.57 357.25,289.75 356.95,289.89 C 356.66,290.04 356.40,290.15 356.17,290.23 C 355.94,290.32 355.75,290.37 355.59,290.40 C 355.42,290.42 355.29,290.42 355.20,290.38 C 355.10,290.35 355.03,290.28 355.00,290.19 C 354.97,290.09 355.04,289.92 355.00,289.81 C 354.96,289.70 354.87,289.60 354.73,289.52 C 354.60,289.43 354.42,289.36 354.20,289.30 C 353.98,289.24 353.72,289.19 353.41,289.16 C 353.10,289.12 352.74,289.10 352.34,289.09 C 351.95,289.09 351.50,289.09 351.02,289.11 C 350.53,289.13 350.00,289.16 349.42,289.20 C 348.85,289.25 348.23,289.30 347.56,289.38 C 346.90,289.45 346.12,289.53 345.44,289.62 C 344.75,289.72 344.08,289.84 343.44,289.97 C 342.79,290.10 342.17,290.24 341.56,290.41 C 340.96,290.57 340.38,290.74 339.81,290.94 C 339.25,291.13 338.71,291.34 338.19,291.56 C 337.67,291.79 337.17,292.03 336.69,292.28 C 336.21,292.54 335.75,292.81 335.31,293.09 C 334.88,293.38 334.46,293.68 334.06,294.00 C 333.67,294.32 333.41,294.68 332.94,295.00 C 332.47,295.32 331.90,295.61 331.23,295.89 C 330.57,296.17 329.81,296.43 328.95,296.67 C 328.10,296.91 327.14,297.14 326.09,297.34 C 325.04,297.55 323.90,297.74 322.66,297.91 C 321.41,298.08 320.08,298.23 318.64,298.36 C 317.21,298.49 315.67,298.61 314.05,298.70 C 312.42,298.80 310.70,298.88 308.88,298.94 C 307.05,299.00 304.96,299.02 303.12,299.06 C 301.29,299.10 299.53,299.15 297.84,299.19 C 296.16,299.23 294.56,299.27 293.03,299.31 C 291.51,299.35 290.06,299.40 288.69,299.44 C 287.32,299.48 286.03,299.52 284.81,299.56 C 283.60,299.60 282.46,299.65 281.41,299.69 C 280.35,299.73 279.37,299.77 278.47,299.81 C 277.57,299.85 276.74,299.90 276.00,299.94 C 275.26,299.98 274.63,300.02 274.00,300.06 C 273.37,300.11 272.77,300.15 272.20,300.20 C 271.64,300.25 271.11,300.30 270.61,300.36 C 270.11,300.41 269.65,300.47 269.22,300.53 C 268.79,300.59 268.39,300.65 268.03,300.72 C 267.67,300.78 267.34,300.85 267.05,300.92 C 266.75,300.99 266.49,301.07 266.27,301.14 C 266.04,301.22 265.85,301.29 265.69,301.38 C 265.53,301.46 265.48,301.55 265.31,301.62 C 265.14,301.70 264.92,301.78 264.66,301.84 C 264.39,301.91 264.08,301.97 263.72,302.03 C 263.36,302.09 262.95,302.14 262.50,302.19 C 262.05,302.23 261.55,302.28 261.00,302.31 C 260.45,302.35 259.86,302.38 259.22,302.41 C 258.58,302.43 257.89,302.45 257.16,302.47 C 256.42,302.48 255.64,302.49 254.81,302.50 C 253.98,302.51 253.01,302.51 252.19,302.50 C 251.36,302.49 250.59,302.48 249.86,302.45 C 249.13,302.43 248.46,302.40 247.83,302.36 C 247.20,302.32 246.62,302.27 246.09,302.22 C 245.57,302.16 245.09,302.10 244.66,302.03 C 244.23,301.96 243.85,301.88 243.52,301.80 C 243.18,301.71 242.90,301.62 242.67,301.52 C 242.44,301.41 242.26,301.30 242.12,301.19 C 241.99,301.07 241.96,300.93 241.88,300.81 C 241.79,300.70 241.69,300.59 241.59,300.48 C 241.49,300.38 241.39,300.29 241.28,300.20 C 241.17,300.12 241.06,300.04 240.94,299.97 C 240.82,299.90 240.69,299.84 240.56,299.78 C 240.43,299.73 240.30,299.68 240.16,299.64 C 240.02,299.60 239.87,299.57 239.72,299.55 C 239.57,299.52 239.41,299.51 239.25,299.50 C 239.09,299.49 238.95,299.49 238.75,299.50 C 238.55,299.51 238.31,299.52 238.03,299.55 C 237.76,299.57 237.44,299.60 237.09,299.64 C 236.74,299.68 236.36,299.73 235.94,299.78 C 235.52,299.84 235.06,299.90 234.56,299.97 C 234.07,300.04 233.54,300.12 232.97,300.20 C 232.40,300.29 231.80,300.38 231.16,300.48 C 230.52,300.59 229.84,300.70 229.12,300.81 C 228.41,300.93 227.59,301.06 226.88,301.19 C 226.16,301.31 225.48,301.44 224.83,301.56 C 224.18,301.69 223.57,301.81 222.98,301.94 C 222.40,302.06 221.86,302.19 221.34,302.31 C 220.83,302.44 220.35,302.56 219.91,302.69 C 219.46,302.81 219.05,302.94 218.67,303.06 C 218.29,303.19 217.95,303.31 217.64,303.44 C 217.33,303.56 217.05,303.69 216.81,303.81 C 216.57,303.94 216.44,304.07 216.19,304.19 C 215.94,304.30 215.65,304.41 215.31,304.50 C 214.98,304.59 214.60,304.68 214.19,304.75 C 213.77,304.82 213.31,304.89 212.81,304.94 C 212.31,304.99 211.77,305.03 211.19,305.06 C 210.60,305.09 209.98,305.11 209.31,305.12 C 208.65,305.14 207.94,305.14 207.19,305.12 C 206.44,305.11 205.65,305.09 204.81,305.06 Z" />
    </clipPath>
  </defs>
  <path d="M 204.81,305.06 C 203.98,305.03 203.01,304.98 202.19,304.94 C 201.37,304.89 200.60,304.85 199.89,304.80 C 199.18,304.75 198.52,304.70 197.92,304.64 C 197.32,304.59 196.77,304.53 196.28,304.47 C 195.79,304.41 195.35,304.35 194.97,304.28 C 194.59,304.22 194.26,304.15 193.98,304.08 C 193.71,304.01 193.49,303.93 193.33,303.86 C 193.16,303.78 193.05,303.71 193.00,303.62 C 192.95,303.54 192.98,303.45 193.00,303.38 C 193.02,303.30 193.07,303.22 193.15,303.15 C 193.22,303.08 193.32,303.01 193.45,302.95 C 193.57,302.88 193.72,302.82 193.89,302.77 C 194.06,302.71 194.26,302.66 194.48,302.61 C 194.71,302.56 194.95,302.52 195.23,302.48 C 195.50,302.44 195.80,302.40 196.12,302.37 C 196.44,302.33 196.79,302.31 197.16,302.28 C 197.53,302.26 198.05,302.30 198.34,302.22 C 198.63,302.14 198.82,302.00 198.89,301.80 C 198.97,301.60 198.93,301.34 198.80,301.02 C 198.66,300.70 198.41,300.32 198.06,299.88 C 197.71,299.43 197.25,298.93 196.69,298.38 C 196.12,297.82 195.45,297.20 194.67,296.52 C 193.89,295.84 193.01,295.10 192.02,294.30 C 191.02,293.50 189.92,292.64 188.72,291.72 C 187.51,290.80 186.14,289.73 184.78,288.78 C 183.42,287.83 182.01,286.92 180.55,286.04 C 179.10,285.16 177.59,284.31 176.04,283.49 C 174.49,282.68 172.88,281.89 171.23,281.14 C 169.58,280.39 167.89,279.67 166.14,278.98 C 164.39,278.30 162.60,277.64 160.76,277.02 C 158.92,276.40 157.02,275.81 155.09,275.26 C 153.15,274.70 151.16,274.18 149.12,273.69 C 147.09,273.20 144.83,272.75 142.88,272.31 C 140.92,271.88 139.09,271.47 137.38,271.09 C 135.68,270.70 134.10,270.34 132.65,270.01 C 131.20,269.67 129.87,269.36 128.67,269.08 C 127.47,268.79 126.40,268.53 125.45,268.30 C 124.51,268.06 123.69,267.85 122.99,267.66 C 122.30,267.48 121.73,267.32 121.29,267.18 C 120.85,267.04 120.53,266.93 120.34,266.84 C 120.15,266.76 120.21,266.72 120.16,266.66 C 120.11,266.60 120.07,266.54 120.05,266.48 C 120.02,266.43 120.01,266.38 120.02,266.33 C 120.02,266.28 120.03,266.23 120.06,266.19 C 120.09,266.14 120.13,266.10 120.19,266.06 C 120.24,266.02 120.31,265.99 120.39,265.95 C 120.47,265.92 120.57,265.89 120.67,265.86 C 120.78,265.83 120.90,265.80 121.03,265.78 C 121.16,265.76 121.33,265.74 121.47,265.72 C 121.61,265.69 121.73,265.67 121.85,265.63 C 121.97,265.60 122.08,265.56 122.18,265.52 C 122.28,265.48 122.37,265.44 122.45,265.39 C 122.54,265.34 122.61,265.29 122.67,265.23 C 122.74,265.18 122.79,265.12 122.84,265.05 C 122.88,264.99 122.92,264.92 122.95,264.85 C 122.97,264.78 122.99,264.70 123.00,264.62 C 123.01,264.55 123.02,264.45 123.00,264.38 C 122.98,264.30 122.93,264.22 122.86,264.16 C 122.79,264.09 122.70,264.03 122.58,263.97 C 122.46,263.91 122.32,263.86 122.16,263.81 C 121.99,263.77 121.80,263.72 121.59,263.69 C 121.38,263.65 121.15,263.62 120.89,263.59 C 120.63,263.57 120.35,263.55 120.05,263.53 C 119.74,263.52 119.41,263.51 119.06,263.50 C 118.71,263.49 118.29,263.50 117.94,263.50 C 117.58,263.50 117.25,263.49 116.93,263.48 C 116.61,263.46 116.32,263.45 116.04,263.43 C 115.76,263.41 115.50,263.39 115.27,263.36 C 115.03,263.33 114.81,263.30 114.61,263.27 C 114.41,263.23 114.23,263.19 114.07,263.15 C 113.91,263.11 113.77,263.06 113.65,263.01 C 113.53,262.96 113.43,262.90 113.34,262.84 C 113.26,262.79 113.21,262.75 113.16,262.66 C 113.10,262.56 113.04,262.44 112.99,262.29 C 112.94,262.14 112.89,261.95 112.85,261.74 C 112.81,261.53 112.77,261.29 112.73,261.02 C 112.70,260.74 112.67,260.44 112.64,260.11 C 112.61,259.78 112.59,259.42 112.57,259.02 C 112.55,258.63 112.54,258.21 112.52,257.76 C 112.51,257.31 112.50,256.82 112.50,256.31 C 112.50,255.80 112.50,255.20 112.50,254.69 C 112.50,254.18 112.51,253.69 112.52,253.24 C 112.54,252.79 112.55,252.37 112.57,251.98 C 112.59,251.58 112.61,251.22 112.64,250.89 C 112.67,250.56 112.70,250.26 112.73,249.98 C 112.77,249.71 112.81,249.47 112.85,249.26 C 112.89,249.05 112.94,248.86 112.99,248.71 C 113.04,248.56 113.10,248.44 113.16,248.34 C 113.21,248.25 113.26,248.21 113.34,248.16 C 113.43,248.10 113.53,248.04 113.65,247.99 C 113.77,247.94 113.91,247.89 114.07,247.85 C 114.23,247.81 114.41,247.77 114.61,247.73 C 114.81,247.70 115.03,247.67 115.27,247.64 C 115.50,247.61 115.76,247.59 116.04,247.57 C 116.32,247.55 116.61,247.54 116.93,247.52 C 117.25,247.51 117.58,247.50 117.94,247.50 C 118.29,247.50 118.72,247.51 119.06,247.50 C 119.41,247.49 119.73,247.47 120.02,247.44 C 120.30,247.41 120.57,247.36 120.80,247.31 C 121.03,247.26 121.23,247.20 121.41,247.12 C 121.58,247.05 121.73,246.97 121.84,246.88 C 121.96,246.78 122.05,246.68 122.11,246.56 C 122.17,246.45 122.20,246.32 122.20,246.19 C 122.21,246.05 122.18,245.91 122.12,245.75 C 122.07,245.59 121.89,245.42 121.88,245.25 C 121.86,245.08 121.93,244.89 122.06,244.70 C 122.20,244.51 122.41,244.32 122.69,244.11 C 122.97,243.90 123.32,243.69 123.75,243.47 C 124.18,243.25 124.68,243.02 125.25,242.78 C 125.82,242.54 126.47,242.30 127.19,242.05 C 127.91,241.79 128.70,241.53 129.56,241.27 C 130.43,241.00 131.36,240.72 132.38,240.44 C 133.39,240.15 134.58,239.84 135.62,239.56 C 136.67,239.29 137.67,239.03 138.62,238.80 C 139.58,238.56 140.50,238.34 141.38,238.14 C 142.25,237.94 143.08,237.76 143.88,237.59 C 144.67,237.43 145.42,237.28 146.12,237.16 C 146.83,237.03 147.50,236.92 148.12,236.83 C 148.75,236.74 149.33,236.66 149.88,236.61 C 150.42,236.55 150.92,236.52 151.38,236.50 C 151.83,236.48 152.19,236.51 152.62,236.50 C 153.06,236.49 153.51,236.46 153.97,236.42 C 154.43,236.38 154.91,236.33 155.41,236.27 C 155.90,236.20 156.41,236.12 156.94,236.03 C 157.46,235.94 158.01,235.84 158.56,235.72 C 159.12,235.60 159.69,235.47 160.28,235.33 C 160.87,235.18 161.47,235.03 162.09,234.86 C 162.71,234.69 163.35,234.51 164.00,234.31 C 164.65,234.12 165.30,233.94 166.00,233.69 C 166.70,233.43 167.44,233.13 168.21,232.79 C 168.98,232.44 169.79,232.05 170.63,231.62 C 171.48,231.18 172.35,230.70 173.27,230.17 C 174.18,229.64 175.13,229.07 176.11,228.45 C 177.09,227.83 178.11,227.17 179.16,226.46 C 180.22,225.75 181.31,225.00 182.43,224.20 C 183.55,223.39 184.71,222.55 185.91,221.66 C 187.10,220.76 188.47,219.72 189.59,218.84 C 190.72,217.96 191.75,217.14 192.67,216.38 C 193.60,215.61 194.42,214.90 195.14,214.25 C 195.86,213.60 196.48,213.01 197.00,212.47 C 197.52,211.93 197.93,211.45 198.25,211.03 C 198.57,210.61 198.78,210.24 198.89,209.94 C 199.00,209.63 199.01,209.38 198.92,209.19 C 198.83,208.99 198.64,208.86 198.34,208.78 C 198.05,208.70 197.53,208.74 197.16,208.72 C 196.79,208.69 196.44,208.67 196.12,208.63 C 195.80,208.60 195.50,208.56 195.23,208.52 C 194.95,208.48 194.71,208.44 194.48,208.39 C 194.26,208.34 194.06,208.29 193.89,208.23 C 193.72,208.18 193.57,208.12 193.45,208.05 C 193.32,207.99 193.22,207.92 193.15,207.85 C 193.07,207.78 193.02,207.70 193.00,207.62 C 192.98,207.55 192.95,207.46 193.00,207.38 C 193.05,207.29 193.16,207.22 193.33,207.14 C 193.49,207.07 193.71,206.99 193.98,206.92 C 194.26,206.85 194.59,206.78 194.97,206.72 C 195.35,206.65 195.79,206.59 196.28,206.53 C 196.77,206.47 197.32,206.41 197.92,206.36 C 198.52,206.30 199.18,206.25 199.89,206.20 C 200.60,206.15 201.37,206.11 202.19,206.06 C 203.01,206.02 203.98,205.97 204.81,205.94 C 205.65,205.91 206.44,205.89 207.19,205.88 C 207.94,205.86 208.65,205.86 209.31,205.88 C 209.98,205.89 210.60,205.91 211.19,205.94 C 211.77,205.97 212.31,206.01 212.81,206.06 C 213.31,206.11 213.77,206.18 214.19,206.25 C 214.60,206.32 214.98,206.41 215.31,206.50 C 215.65,206.59 215.94,206.70 216.19,206.81 C 216.44,206.93 216.57,207.06 216.81,207.19 C 217.05,207.31 217.33,207.44 217.64,207.56 C 217.95,207.69 218.29,207.81 218.67,207.94 C 219.05,208.06 219.46,208.19 219.91,208.31 C 220.35,208.44 220.83,208.56 221.34,208.69 C 221.86,208.81 222.40,208.94 222.98,209.06 C 223.57,209.19 224.18,209.31 224.83,209.44 C 225.48,209.56 226.16,209.69 226.88,209.81 C 227.59,209.94 228.41,210.07 229.12,210.19 C 229.84,210.30 230.52,210.41 231.16,210.52 C 231.80,210.62 232.40,210.71 232.97,210.80 C 233.54,210.88 234.07,210.96 234.56,211.03 C 235.06,211.10 235.52,211.16 235.94,211.22 C 236.36,211.27 236.74,211.32 237.09,211.36 C 237.44,211.40 237.76,211.43 238.03,211.45 C 238.31,211.48 238.55,211.49 238.75,211.50 C 238.95,211.51 239.09,211.51 239.25,211.50 C 239.41,211.49 239.57,211.48 239.72,211.45 C 239.87,211.43 240.02,211.40 240.16,211.36 C 240.30,211.32 240.43,211.27 240.56,211.22 C 240.69,211.16 240.82,211.10 240.94,211.03 C 241.06,210.96 241.17,210.88 241.28,210.80 C 241.39,210.71 241.49,210.62 241.59,210.52 C 241.69,210.41 241.79,210.30 241.88,210.19 C 241.96,210.07 241.89,209.92 242.12,209.81 C 242.36,209.70 242.76,209.61 243.31,209.53 C 243.86,209.45 244.57,209.39 245.44,209.34 C 246.30,209.30 247.32,209.27 248.50,209.25 C 249.68,209.23 251.01,209.23 252.50,209.25 C 253.99,209.27 255.64,209.30 257.44,209.34 C 259.24,209.39 261.20,209.45 263.31,209.53 C 265.43,209.61 267.70,209.70 270.12,209.81 C 272.55,209.92 275.39,210.07 277.88,210.19 C 280.36,210.31 282.74,210.42 285.03,210.53 C 287.32,210.64 289.51,210.74 291.59,210.84 C 293.68,210.94 295.67,211.04 297.56,211.12 C 299.45,211.21 301.24,211.30 302.94,211.38 C 304.63,211.45 306.22,211.53 307.72,211.59 C 309.21,211.66 310.61,211.72 311.91,211.78 C 313.20,211.84 314.40,211.89 315.50,211.94 C 316.60,211.98 317.54,212.00 318.50,212.06 C 319.46,212.12 320.38,212.20 321.27,212.30 C 322.15,212.39 322.99,212.51 323.80,212.64 C 324.60,212.77 325.37,212.92 326.09,213.09 C 326.82,213.26 327.51,213.45 328.16,213.66 C 328.80,213.86 329.41,214.09 329.98,214.33 C 330.55,214.57 331.09,214.83 331.58,215.11 C 332.07,215.39 332.52,215.68 332.94,216.00 C 333.35,216.32 333.67,216.68 334.06,217.00 C 334.46,217.32 334.87,217.62 335.30,217.91 C 335.73,218.19 336.17,218.46 336.64,218.72 C 337.11,218.97 337.59,219.21 338.09,219.44 C 338.60,219.66 339.12,219.87 339.66,220.06 C 340.20,220.26 340.75,220.43 341.33,220.59 C 341.90,220.76 342.50,220.90 343.11,221.03 C 343.72,221.16 344.35,221.28 345.00,221.38 C 345.65,221.47 346.37,221.55 347.00,221.62 C 347.63,221.70 348.22,221.76 348.78,221.81 C 349.34,221.86 349.86,221.91 350.34,221.94 C 350.83,221.97 351.28,221.99 351.69,222.00 C 352.10,222.01 352.47,222.01 352.81,222.00 C 353.15,221.99 353.45,221.97 353.72,221.94 C 353.98,221.91 354.21,221.86 354.41,221.81 C 354.60,221.76 354.76,221.70 354.88,221.62 C 354.99,221.55 355.02,221.43 355.12,221.38 C 355.23,221.32 355.37,221.28 355.52,221.27 C 355.68,221.26 355.86,221.28 356.07,221.32 C 356.28,221.36 356.51,221.43 356.77,221.52 C 357.02,221.61 357.30,221.72 357.61,221.86 C 357.92,222.00 358.25,222.16 358.60,222.35 C 358.96,222.54 359.34,222.75 359.74,222.99 C 360.15,223.23 360.58,223.49 361.03,223.78 C 361.49,224.07 362.01,224.41 362.47,224.72 C 362.92,225.02 363.36,225.32 363.77,225.61 C 364.17,225.90 364.56,226.18 364.92,226.45 C 365.28,226.73 365.62,226.99 365.94,227.25 C 366.25,227.51 366.54,227.76 366.81,228.00 C 367.08,228.24 367.33,228.48 367.55,228.70 C 367.77,228.93 367.97,229.15 368.14,229.36 C 368.32,229.57 368.47,229.77 368.59,229.97 C 368.72,230.16 368.94,230.36 368.91,230.53 C 368.87,230.71 368.69,230.87 368.37,231.02 C 368.05,231.18 367.58,231.32 366.98,231.45 C 366.37,231.57 365.62,231.69 364.73,231.80 C 363.85,231.90 362.81,232.00 361.64,232.08 C 360.47,232.16 359.15,232.23 357.70,232.29 C 356.24,232.35 354.64,232.39 352.90,232.43 C 351.16,232.46 349.27,232.49 347.25,232.50 C 345.23,232.51 342.79,232.50 340.75,232.50 C 338.71,232.50 336.81,232.51 335.04,232.52 C 333.27,232.54 331.63,232.55 330.12,232.57 C 328.61,232.59 327.23,232.61 325.98,232.64 C 324.74,232.67 323.62,232.70 322.64,232.73 C 321.66,232.77 320.81,232.81 320.09,232.85 C 319.37,232.89 318.78,232.94 318.32,232.99 C 317.86,233.04 317.54,233.10 317.34,233.16 C 317.15,233.21 317.20,233.26 317.16,233.34 C 317.12,233.43 317.10,233.53 317.10,233.65 C 317.11,233.77 317.13,233.91 317.18,234.07 C 317.23,234.23 317.30,234.41 317.39,234.61 C 317.48,234.81 317.60,235.03 317.73,235.27 C 317.87,235.50 318.03,235.76 318.21,236.04 C 318.39,236.32 318.60,236.61 318.82,236.93 C 319.05,237.25 319.29,237.58 319.56,237.94 C 319.83,238.29 320.17,238.71 320.44,239.06 C 320.71,239.42 320.95,239.76 321.17,240.08 C 321.39,240.40 321.59,240.70 321.77,240.98 C 321.94,241.27 322.09,241.53 322.22,241.78 C 322.35,242.03 322.45,242.26 322.53,242.47 C 322.61,242.68 322.67,242.87 322.70,243.05 C 322.74,243.22 322.75,243.38 322.73,243.52 C 322.72,243.65 322.68,243.77 322.62,243.88 C 322.57,243.98 322.45,244.04 322.38,244.12 C 322.30,244.21 322.24,244.31 322.19,244.41 C 322.14,244.51 322.09,244.61 322.06,244.72 C 322.03,244.83 322.01,244.94 322.00,245.06 C 321.99,245.18 321.99,245.31 322.00,245.44 C 322.01,245.57 322.03,245.70 322.06,245.84 C 322.09,245.98 322.14,246.13 322.19,246.28 C 322.24,246.43 322.30,246.59 322.38,246.75 C 322.45,246.91 322.55,247.06 322.62,247.25 C 322.70,247.44 322.78,247.65 322.84,247.89 C 322.91,248.13 322.97,248.39 323.03,248.67 C 323.09,248.96 323.14,249.26 323.19,249.59 C 323.23,249.92 323.28,250.28 323.31,250.66 C 323.35,251.03 323.38,251.43 323.41,251.86 C 323.43,252.28 323.45,252.73 323.47,253.20 C 323.48,253.67 323.49,254.17 323.50,254.69 C 323.51,255.21 323.51,255.79 323.50,256.31 C 323.49,256.83 323.48,257.33 323.47,257.80 C 323.45,258.27 323.43,258.72 323.41,259.14 C 323.38,259.57 323.35,259.97 323.31,260.34 C 323.28,260.72 323.23,261.08 323.19,261.41 C 323.14,261.74 323.09,262.04 323.03,262.33 C 322.97,262.61 322.91,262.87 322.84,263.11 C 322.78,263.35 322.70,263.56 322.62,263.75 C 322.55,263.94 322.45,264.09 322.38,264.25 C 322.30,264.41 322.24,264.57 322.19,264.72 C 322.14,264.87 322.09,265.02 322.06,265.16 C 322.03,265.30 322.01,265.43 322.00,265.56 C 321.99,265.69 321.99,265.82 322.00,265.94 C 322.01,266.06 322.03,266.17 322.06,266.28 C 322.09,266.39 322.14,266.49 322.19,266.59 C 322.24,266.69 322.30,266.79 322.38,266.88 C 322.45,266.96 322.56,267.02 322.62,267.12 C 322.69,267.23 322.73,267.35 322.74,267.49 C 322.76,267.63 322.75,267.80 322.73,267.98 C 322.70,268.16 322.65,268.36 322.58,268.58 C 322.51,268.80 322.41,269.04 322.30,269.30 C 322.18,269.56 322.04,269.83 321.88,270.13 C 321.72,270.43 321.54,270.75 321.34,271.09 C 321.13,271.42 320.90,271.78 320.66,272.16 C 320.41,272.53 319.96,272.97 319.84,273.34 C 319.73,273.72 319.77,274.07 319.96,274.40 C 320.15,274.73 320.50,275.04 321.01,275.32 C 321.51,275.61 322.17,275.87 322.98,276.11 C 323.80,276.35 324.77,276.57 325.89,276.77 C 327.01,276.96 328.29,277.14 329.73,277.29 C 331.16,277.44 332.75,277.57 334.49,277.68 C 336.24,277.79 338.13,277.87 340.19,277.94 C 342.24,278.00 344.75,278.01 346.81,278.06 C 348.88,278.11 350.80,278.17 352.57,278.24 C 354.35,278.31 355.98,278.39 357.46,278.48 C 358.95,278.56 360.29,278.66 361.48,278.77 C 362.68,278.87 363.73,278.99 364.64,279.11 C 365.55,279.23 366.31,279.37 366.93,279.51 C 367.55,279.65 368.02,279.80 368.35,279.96 C 368.68,280.12 368.87,280.29 368.91,280.47 C 368.95,280.65 368.72,280.83 368.59,281.03 C 368.46,281.23 368.31,281.44 368.12,281.66 C 367.94,281.88 367.73,282.10 367.50,282.34 C 367.27,282.58 367.01,282.83 366.72,283.09 C 366.43,283.35 366.12,283.62 365.78,283.91 C 365.44,284.19 365.08,284.48 364.69,284.78 C 364.30,285.08 363.88,285.40 363.44,285.72 C 362.99,286.04 362.53,286.38 362.03,286.72 C 361.54,287.06 360.96,287.46 360.47,287.78 C 359.98,288.11 359.52,288.40 359.10,288.66 C 358.68,288.93 358.29,289.16 357.93,289.37 C 357.57,289.57 357.25,289.75 356.95,289.89 C 356.66,290.04 356.40,290.15 356.17,290.23 C 355.94,290.32 355.75,290.37 355.59,290.40 C 355.42,290.42 355.29,290.42 355.20,290.38 C 355.10,290.35 355.03,290.28 355.00,290.19 C 354.97,290.09 355.04,289.92 355.00,289.81 C 354.96,289.70 354.87,289.60 354.73,289.52 C 354.60,289.43 354.42,289.36 354.20,289.30 C 353.98,289.24 353.72,289.19 353.41,289.16 C 353.10,289.12 352.74,289.10 352.34,289.09 C 351.95,289.09 351.50,289.09 351.02,289.11 C 350.53,289.13 350.00,289.16 349.42,289.20 C 348.85,289.25 348.23,289.30 347.56,289.38 C 346.90,289.45 346.12,289.53 345.44,289.62 C 344.75,289.72 344.08,289.84 343.44,289.97 C 342.79,290.10 342.17,290.24 341.56,290.41 C 340.96,290.57 340.38,290.74 339.81,290.94 C 339.25,291.13 338.71,291.34 338.19,291.56 C 337.67,291.79 337.17,292.03 336.69,292.28 C 336.21,292.54 335.75,292.81 335.31,293.09 C 334.88,293.38 334.46,293.68 334.06,294.00 C 333.67,294.32 333.41,294.68 332.94,295.00 C 332.47,295.32 331.90,295.61 331.23,295.89 C 330.57,296.17 329.81,296.43 328.95,296.67 C 328.10,296.91 327.14,297.14 326.09,297.34 C 325.04,297.55 323.90,297.74 322.66,297.91 C 321.41,298.08 320.08,298.23 318.64,298.36 C 317.21,298.49 315.67,298.61 314.05,298.70 C 312.42,298.80 310.70,298.88 308.88,298.94 C 307.05,299.00 304.96,299.02 303.12,299.06 C 301.29,299.10 299.53,299.15 297.84,299.19 C 296.16,299.23 294.56,299.27 293.03,299.31 C 291.51,299.35 290.06,299.40 288.69,299.44 C 287.32,299.48 286.03,299.52 284.81,299.56 C 283.60,299.60 282.46,299.65 281.41,299.69 C 280.35,299.73 279.37,299.77 278.47,299.81 C 277.57,299.85 276.74,299.90 276.00,299.94 C 275.26,299.98 274.63,300.02 274.00,300.06 C 273.37,300.11 272.77,300.15 272.20,300.20 C 271.64,300.25 271.11,300.30 270.61,300.36 C 270.11,300.41 269.65,300.47 269.22,300.53 C 268.79,300.59 268.39,300.65 268.03,300.72 C 267.67,300.78 267.34,300.85 267.05,300.92 C 266.75,300.99 266.49,301.07 266.27,301.14 C 266.04,301.22 265.85,301.29 265.69,301.38 C 265.53,301.46 265.48,301.55 265.31,301.62 C 265.14,301.70 264.92,301.78 264.66,301.84 C 264.39,301.91 264.08,301.97 263.72,302.03 C 263.36,302.09 262.95,302.14 262.50,302.19 C 262.05,302.23 261.55,302.28 261.00,302.31 C 260.45,302.35 259.86,302.38 259.22,302.41 C 258.58,302.43 257.89,302.45 257.16,302.47 C 256.42,302.48 255.64,302.49 254.81,302.50 C 253.98,302.51 253.01,302.51 252.19,302.50 C 251.36,302.49 250.59,302.48 249.86,302.45 C 249.13,302.43 248.46,302.40 247.83,302.36 C 247.20,302.32 246.62,302.27 246.09,302.22 C 245.57,302.16 245.09,302.10 244.66,302.03 C 244.23,301.96 243.85,301.88 243.52,301.80 C 243.18,301.71 242.90,301.62 242.67,301.52 C 242.44,301.41 242.26,301.30 242.12,301.19 C 241.99,301.07 241.96,300.93 241.88,300.81 C 241.79,300.70 241.69,300.59 241.59,300.48 C 241.49,300.38 241.39,300.29 241.28,300.20 C 241.17,300.12 241.06,300.04 240.94,299.97 C 240.82,299.90 240.69,299.84 240.56,299.78 C 240.43,299.73 240.30,299.68 240.16,299.64 C 240.02,299.60 239.87,299.57 239.72,299.55 C 239.57,299.52 239.41,299.51 239.25,299.50 C 239.09,299.49 238.95,299.49 238.75,299.50 C 238.55,299.51 238.31,299.52 238.03,299.55 C 237.76,299.57 237.44,299.60 237.09,299.64 C 236.74,299.68 236.36,299.73 235.94,299.78 C 235.52,299.84 235.06,299.90 234.56,299.97 C 234.07,300.04 233.54,300.12 232.97,300.20 C 232.40,300.29 231.80,300.38 231.16,300.48 C 230.52,300.59 229.84,300.70 229.12,300.81 C 228.41,300.93 227.59,301.06 226.88,301.19 C 226.16,301.31 225.48,301.44 224.83,301.56 C 224.18,301.69 223.57,301.81 222.98,301.94 C 222.40,302.06 221.86,302.19 221.34,302.31 C 220.83,302.44 220.35,302.56 219.91,302.69 C 219.46,302.81 219.05,302.94 218.67,303.06 C 218.29,303.19 217.95,303.31 217.64,303.44 C 217.33,303.56 217.05,303.69 216.81,303.81 C 216.57,303.94 216.44,304.07 216.19,304.19 C 215.94,304.30 215.65,304.41 215.31,304.50 C 214.98,304.59 214.60,304.68 214.19,304.75 C 213.77,304.82 213.31,304.89 212.81,304.94 C 212.31,304.99 211.77,305.03 211.19,305.06 C 210.60,305.09 209.98,305.11 209.31,305.12 C 208.65,305.14 207.94,305.14 207.19,305.12 C 206.44,305.11 205.65,305.09 204.81,305.06 Z" stroke="none" fill="currentColor" opacity="0.11" />
  <path d="M187.34,272.52L187.34,264.47 M178.30,267.00L186.12,267.04 M178.25,264.19L178.14,264.22 M182.74,272.72L182.74,272.72 M182.74,272.72L182.74,272.72 M187.52,247.90L187.48,247.75 M179.52,265.08L179.52,266.95 M213.55,262.09L197.31,262.09 M213.55,249.85L197.31,249.85 M195.35,251.88L195.35,251.89 M215.57,260.50L196.73,260.50 M215.57,261.16L196.73,261.16 M215.23,260.18L197.75,260.18 M151.54,264.23L144.22,264.30 M151.54,247.73L144.22,247.66 M143.99,261.02L151.23,261.02 M143.99,250.98L151.23,250.98 M151.23,250.94L143.99,250.94 M136.90,261.05L144.06,261.05 M136.90,261.05L143.73,261.14 M176.89,262.75L176.79,260.22 M176.96,251.74L176.86,249.20 M176.96,249.11L176.86,249.11 M177.09,249.02L177.05,249.15 M176.08,260.22L175.99,262.75 M175.92,251.74L176.01,249.20 M176.01,249.11L175.92,249.11 M175.78,249.02L175.82,249.15 M176.97,262.75L176.97,262.76 M177.25,248.86L177.25,248.86 M159.85,265.87L159.85,265.84 M156.33,265.87L156.33,265.87 M160.41,265.92L160.35,263.23 M128.58,264.72L149.32,268.13 M152.85,264.49L118.20,262.41 M154.39,268.96L143.54,267.16 M115.98,262.36L127.55,263.50 M118.07,252.37L118.07,259.58 M145.79,255.67L145.77,248.09 M145.74,248.08L145.77,255.69 M120.34,249.41L134.16,249.20 M144.10,265.92L149.57,265.24 M150.59,242.96L141.06,244.47 M168.32,251.88L156.41,251.84 M164.62,257.60L173.46,258.95 M155.01,263.96L154.92,261.42 M154.92,250.54L155.01,248.00 M154.20,261.42L154.11,263.96 M154.11,248.00L154.20,250.54 M179.58,260.94L188.90,260.94 M179.57,260.91L188.90,260.91 M177.78,261.29L188.87,261.29 M184.67,281.58L193.05,277.82 M189.77,273.06L193.30,278.55 M184.67,230.43L193.16,234.24 M189.77,238.93L193.30,233.45 M161.61,265.87L175.64,267.37 M161.05,265.30L169.83,266.47 M161.05,265.30L178.34,267.03 M161.61,246.10L175.64,244.57 M169.83,245.45L161.02,246.51 M192.44,239.85L197.43,235.69 M184.71,242.23L192.57,240.06 M151.14,270.10L140.07,267.67 M151.14,270.10L143.86,268.60 M141.86,269.11L151.01,271.34 M151.14,270.10L143.87,268.83 M151.14,270.10L140.59,267.96 M151.14,270.10L136.33,267.10 M151.14,270.10L132.35,266.20 M134.41,267.75L151.60,271.88 M151.60,271.88L141.56,269.49 M134.41,267.75L143.04,270.06 M151.22,269.96L134.90,266.82 M151.22,269.96L136.35,267.02 M151.22,269.96L140.12,267.55 M134.44,267.60L141.86,269.29 M141.89,268.99L151.03,271.34 M151.22,269.96L143.92,268.69 M151.22,269.96L140.43,267.96 M151.22,269.96L136.35,267.02 M151.22,269.96L132.37,266.10 M134.44,267.60L143.05,269.94 M134.44,267.60L151.65,271.72 M151.65,271.72L141.58,269.34 M151.24,271.83L144.87,270.56 M197.43,276.27L192.44,272.11 M184.71,269.73L192.57,271.89 M134.45,244.42L151.08,240.41 M151.14,241.85L140.07,244.29 M151.14,241.85L143.86,243.36 M151.14,241.85L143.87,243.14 M148.72,237.91L139.36,240.40 M151.22,241.97L136.31,244.70 M151.22,241.97L134.90,245.12 M151.22,241.97L140.13,244.44 M151.22,241.97L143.87,243.22 M141.89,242.96L151.11,240.57 M151.22,241.97L140.40,243.89 M151.22,241.97L136.31,244.70 M134.45,244.53L143.11,242.38 M151.53,240.41L141.59,242.67 M151.33,239.95L144.86,241.33 M144.15,267.01L134.12,264.97 M134.12,264.97L143.53,266.83 M143.94,267.39L134.93,265.59 M143.94,267.39L134.47,265.50 M134.13,246.97L143.53,245.12 M134.13,246.97L144.19,244.92 M143.94,244.57L134.93,246.37 M143.94,244.57L134.47,246.46 M155.38,268.34L170.78,269.20 M155.38,268.34L166.97,269.05 M174.35,269.15L159.39,268.46 M175.30,279.66L155.54,274.63 M174.49,274.81L155.91,270.95 M175.44,277.46L155.47,272.88 M163.29,268.30L169.54,268.52 M156.06,269.81L174.93,272.80 M189.08,269.00L175.28,268.80 M185.83,243.39L199.99,237.99 M185.84,268.57L200.13,273.99 M175.85,261.25L184.03,265.02 M176.00,261.47L184.03,265.02 M184.02,246.94L176.00,250.51 M184.02,246.94L175.84,250.69 M203.71,269.95L185.84,268.57 M204.80,245.76L192.34,248.69 M192.33,263.27L204.81,266.20 M114.14,262.39L126.65,263.15 M128.14,263.28L115.23,262.52 M114.13,249.62L126.65,248.82 M128.15,248.68L115.22,249.46 M128.14,263.28L152.97,264.53 M128.15,248.68L152.98,247.43 M176.42,236.70L200.81,232.43 M200.81,279.54L176.43,275.24 M134.69,263.29L128.27,263.04 M185.83,243.39L203.72,241.93 M231.75,284.02L212.57,284.08 M215.11,283.06L230.77,283.05 M216.38,228.77L230.79,228.89 M215.18,230.60L230.78,230.25 M154.12,261.99L173.70,263.39 M163.09,254.29L154.32,252.20 M163.09,254.29L154.64,252.29 M163.09,257.66L154.64,259.66 M163.09,257.66L154.33,259.77 M178.35,267.15L165.48,266.02 M165.50,245.98L178.36,244.72 M179.88,277.15L189.61,268.84 M181.63,281.09L176.48,275.53 M174.95,272.05L175.00,269.74 M175.01,271.89L175.00,269.74 M179.88,234.85L189.61,243.15 M175.00,242.26L175.01,240.12 M188.99,234.75L181.12,235.96 M181.12,235.96L200.86,232.50 M181.12,235.96L201.15,232.36 M133.96,267.92L151.14,270.10 M151.14,270.10L134.41,267.75 M151.14,270.10L136.67,268.35 M133.96,267.92L147.47,269.46 M133.68,267.75L151.22,269.96 M134.44,267.60L151.22,269.96 M188.99,277.21L181.08,275.94 M181.08,275.94L201.14,279.59 M133.93,244.14L151.14,241.85 M134.45,244.42L151.14,241.85 M151.14,241.85L136.68,243.68 M151.14,241.85L137.72,243.52 M133.93,244.14L147.46,242.49 M133.93,244.14L140.37,243.80 M151.22,241.97L134.45,244.53 M168.50,271.36L168.60,268.51 M174.39,273.88L159.29,271.08 M174.90,270.31L174.97,274.77 M175.05,270.19L174.97,274.77 M175.05,270.19L174.83,274.37 M173.64,268.01L158.42,268.17 M155.89,271.13L175.19,273.04 M157.04,271.20L175.19,273.04 M174.83,274.37L166.54,273.10 M133.99,247.52L126.39,248.28 M134.07,264.63L126.89,263.74 M134.07,264.63L126.21,263.65 M169.05,267.52L159.55,266.93 M169.07,244.39L159.45,244.94 M133.99,247.52L141.05,246.82 M141.05,246.82L150.18,245.94 M134.07,264.63L151.55,266.10 M134.07,264.63L150.18,266.02 M160.36,262.14L153.26,261.55 M168.90,263.71L161.30,263.23 M175.50,251.64L190.53,249.04 M161.31,248.75L168.90,248.26 M186.19,248.37L176.21,248.40 M186.19,248.37L177.17,248.38 M177.17,263.58L186.19,263.59 M176.21,263.56L186.19,263.59 M200.85,251.87L217.37,250.95 M207.21,251.45L217.37,250.95 M200.85,260.09L217.37,261.01 M217.37,261.01L207.21,260.51 M175.27,241.82L175.18,237.01 M175.15,269.93L174.97,274.77 M172.04,243.53L172.24,255.98 M175.84,243.61L189.56,241.78 M215.35,272.10L228.95,267.90 M228.95,267.90L215.76,271.95 M215.33,239.89L228.95,244.05 M215.76,240.01L228.95,244.05 M234.12,283.68L216.25,283.86 M220.22,279.70L227.61,279.70 M211.44,283.96L203.79,284.07 M231.77,280.14L212.59,280.15 M231.77,280.34L213.41,280.47 M231.75,284.02L216.44,283.95 M231.77,280.14L216.33,280.26 M213.46,283.72L231.74,283.97 M229.40,281.47L215.48,281.26 M215.48,281.26L229.03,280.86 M208.00,268.70L195.99,268.76 M204.37,268.11L210.97,268.19 M191.22,277.10L199.97,277.36 M200.74,274.31L191.77,274.52 M200.75,275.00L190.60,275.04 M190.60,275.04L200.18,274.99 M198.53,274.83L212.12,275.80 M198.03,274.87L212.12,275.80 M198.03,274.87L193.09,270.38 M190.68,272.61L195.60,277.24 M229.04,231.20L216.37,230.98 M216.37,230.98L229.32,230.31 M230.60,229.56L216.33,229.32 M216.33,229.32L230.35,229.48 M230.32,230.96L215.02,230.84 M230.67,230.33L215.02,230.84 M231.77,231.82L212.59,231.81 M231.77,231.61L213.44,231.52 M231.74,228.02L216.52,228.18 M231.77,231.82L216.33,231.69 M220.22,232.26L227.61,232.26 M191.22,234.86L199.97,234.60 M200.74,237.65L191.86,237.42 M200.75,236.96L190.58,236.93 M190.58,236.93L200.18,236.97 M198.53,237.13L212.12,236.16 M212.12,236.16L198.03,237.09 M198.03,237.09L193.09,241.58 M195.60,234.72L190.69,239.24 M208.00,243.26L195.99,243.20 M204.37,243.85L210.97,243.76 M153.11,237.56L134.48,241.61 M153.11,274.39L134.48,270.35 M204.35,271.67L211.40,271.61 M204.35,240.28L211.40,240.35 M191.74,240.35L201.09,240.25 M211.39,239.77L204.84,239.91 M211.39,239.77L204.36,239.92 M212.58,227.43L231.87,227.36 M226.44,228.90L216.06,228.86 M205.12,251.65L196.49,251.66 M205.12,260.28L196.49,260.28 M171.92,263.58L171.92,243.32 M188.96,277.64L194.69,274.64 M190.54,275.70L184.67,278.62 M181.69,277.53L188.20,273.24 M168.40,245.54L178.97,245.86 M168.40,245.54L179.06,245.92 M178.97,245.84L171.65,245.75 M169.58,245.51L178.95,245.84 M169.58,245.53L178.96,245.84 M171.64,245.50L178.97,245.83 M170.39,245.70L178.95,245.84 M172.23,245.71L178.97,245.83 M171.84,253.48L170.27,244.09 M161.06,246.16L178.52,244.42 M178.47,244.65L160.71,246.22 M161.31,265.81L178.52,267.53 M178.47,267.30L160.95,265.76 M143.25,266.72L134.37,265.98 M175.45,277.46L168.59,276.68 M156.57,274.40L173.86,277.51 M156.57,274.40L175.03,277.52 M155.54,268.52L174.55,272.25 M174.54,242.72L189.78,241.82 M190.14,234.50L199.95,234.11 M203.84,241.40L214.03,241.40 M190.14,277.46L199.95,277.85 M203.84,270.55L214.03,270.56 M187.91,234.29L181.03,235.40 M200.16,274.54L185.62,269.08 M186.42,256.22L177.18,256.22 M176.48,258.98L186.69,259.08 M186.42,256.25L177.18,256.24 M204.96,270.12L211.98,268.99 M211.98,242.97L204.97,241.84 M163.43,255.21L170.37,255.21 M170.00,245.86L160.82,245.86 M174.58,236.29L156.07,240.77 M175.45,234.48L155.56,239.27 M175.45,234.24L155.55,239.09 M175.47,234.75L155.57,239.54 M173.45,236.77L157.28,240.79 M157.26,240.84L173.41,236.79 M155.89,242.26L155.85,244.97 M156.04,242.00L156.08,244.71 M157.84,239.08L165.17,237.99 M157.83,239.30L165.18,238.25 M175.01,242.31L165.32,240.26 M188.00,242.06L184.10,247.22 M187.17,241.26L199.19,240.66 M187.15,239.97L199.21,239.82 M186.98,240.71L199.19,240.66 M229.73,265.17L215.23,265.15 M231.35,260.21L243.39,259.91 M231.70,251.65L231.23,251.77 M243.77,251.60L243.45,251.78 M243.77,260.35L243.44,260.19 M254.34,272.51L261.46,272.90 M254.34,272.51L261.08,273.01 M244.81,270.61L236.47,267.93 M236.47,267.93L244.37,270.26 M279.42,259.56L279.16,259.50 M279.16,252.46L279.42,252.40 M275.01,239.85L275.18,239.77 M230.66,276.44L243.72,276.30 M275.18,272.19L275.01,272.11 M192.96,277.00L183.12,268.24 M244.12,270.31L234.29,268.70 M237.16,277.90L228.86,278.29 M216.19,266.56L222.82,266.49 M247.02,246.36L252.74,249.72 M247.15,265.67L252.76,262.27 M221.15,248.96L210.44,248.99 M210.41,250.26L221.09,250.26 M241.43,250.19L224.43,250.29 M241.43,250.19L223.67,250.22 M241.43,249.10L224.60,248.94 M241.43,249.10L223.45,248.88 M224.79,263.29L241.43,262.86 M224.15,262.99L241.43,262.86 M210.44,262.96L221.40,262.88 M228.72,261.77L241.43,261.76 M241.43,261.76L224.63,261.67 M241.43,261.76L223.67,261.73 M229.73,246.79L215.32,246.84 M254.47,239.45L261.08,238.95 M254.47,239.45L261.46,239.06 M244.81,241.35L236.47,244.03 M236.47,244.03L244.37,241.69 M230.66,235.52L243.72,235.66 M192.95,234.95L183.06,243.72 M247.18,241.31L263.76,240.54 M247.06,230.95L273.56,230.88 M247.06,281.01L273.54,281.06 M187.28,260.75L180.13,258.68 M187.23,251.12L180.58,253.48 M187.23,251.12L180.20,253.23 M180.20,253.23L187.82,250.89 M199.47,260.92L199.70,260.91 M199.70,251.05L199.47,251.04 M216.60,258.74L225.29,258.52 M216.61,258.18L225.03,257.97 M263.00,276.41L253.75,280.37 M253.75,280.37L263.37,276.15 M253.75,280.37L260.95,278.44 M260.95,278.44L248.57,280.99 M246.25,280.52L253.11,280.49 M225.16,253.81L216.53,253.24 M224.79,254.63L216.82,254.79 M224.98,254.41L216.82,254.79 M224.78,255.18L216.81,255.35 M224.94,255.06L216.81,255.35 M197.58,245.97L205.91,245.84 M197.58,265.99L205.91,266.12 M216.19,266.56L227.57,267.15 M234.18,268.84L244.57,270.61 M191.51,277.84L180.39,268.80 M214.75,276.71L233.13,268.72 M233.13,268.72L215.19,276.48 M245.11,261.34L231.65,261.23 M245.24,260.44L232.01,260.40 M245.24,260.44L231.61,260.28 M232.01,251.54L245.25,251.49 M245.25,251.49L231.65,251.63 M260.94,233.58L253.67,231.65 M187.32,245.01L180.93,243.99 M187.96,245.09L180.93,243.99 M216.20,245.36L227.58,244.79 M234.18,243.11L244.57,241.34 M191.51,234.12L180.35,243.21 M180.35,243.21L191.93,233.59 M233.10,243.65L214.76,235.40 M214.76,235.40L201.17,233.07 M272.50,242.78L272.68,255.98 M272.50,269.18L272.68,255.98 M256.30,241.86L249.21,241.78 M256.95,241.24L270.05,241.20 M259.48,241.24L270.05,241.20 M221.74,269.87L218.25,273.72 M273.33,247.96L274.38,255.98 M274.38,255.98L273.25,247.50 M273.33,264.00L274.38,255.98 M274.38,255.98L273.25,264.46 M218.19,238.16L221.74,242.09 M300.08,239.54L290.94,239.46 M291.28,272.41L300.11,272.43 M290.98,272.77L300.11,272.43 M189.37,260.60L180.52,258.53 M189.37,260.60L181.07,258.62 M205.47,250.49L192.94,250.48 M192.94,250.48L209.43,250.21 M205.47,261.47L192.94,261.47 M192.94,261.47L209.44,261.74 M189.48,251.38L180.58,253.48 M189.48,251.38L181.06,253.33 M226.82,265.70L210.90,265.67 M226.82,265.70L210.91,264.60 M210.91,264.60L227.07,265.38 M227.03,246.50L210.90,246.29 M197.47,265.54L205.93,266.09 M197.47,246.41L206.38,246.32 M201.07,279.36L214.44,278.96 M237.20,278.28L228.89,278.50 M296.56,248.90L311.93,248.97 M308.36,253.57L299.90,253.55 M299.90,258.41L308.33,258.44 M317.29,258.40L314.04,263.94 M298.84,258.14L296.35,264.43 M296.15,247.70L298.83,253.81 M306.31,254.72L315.82,254.16 M299.96,253.69L315.76,253.91 M315.76,253.91L308.70,253.81 M305.55,247.59L312.42,247.95 M312.42,247.95L296.75,247.62 M312.42,247.95L295.73,247.50 M312.42,264.01L295.77,264.42 M312.42,264.01L296.75,264.34 M312.42,264.01L305.55,264.36 M315.76,258.07L308.70,258.14 M315.76,258.07L299.96,258.27 M315.82,257.86L306.10,257.21 M303.91,259.15L310.62,259.13 M304.39,260.51L311.17,260.40 M304.80,261.31L311.56,261.20 M305.16,262.13L311.96,262.00 M305.99,263.80L312.76,263.61 M305.55,262.95L312.36,262.80 M305.97,263.17L312.60,263.13 M313.27,248.14L293.88,247.17 M313.56,248.15L294.11,247.59 M294.11,264.33L313.60,263.81 M314.16,264.62L294.11,264.33 M302.58,252.82L310.29,252.80 M303.94,247.98L313.31,248.34 M304.35,248.11L313.31,248.34 M313.31,248.34L303.22,248.32 M302.60,259.17L310.30,259.16 M304.35,263.83L313.24,263.52 M303.98,263.95L313.24,263.52 M313.24,263.52L303.22,263.64 M304.71,263.79L297.50,263.58 M299.41,259.89L306.59,259.94 M304.70,248.17L297.50,248.39 M299.41,252.07L306.59,252.02 M299.58,258.06L296.75,264.16 M306.20,254.94L314.60,254.53 M306.20,257.11L314.57,257.44 M306.30,264.78L299.22,264.03 M305.98,253.66L298.91,253.74 M301.00,251.08L312.59,252.01 M298.90,258.24L306.04,258.23 M312.32,258.33L301.06,261.03 M301.06,261.03L312.52,257.99 M297.77,253.60L305.98,253.66 M297.68,253.83L306.07,253.78 M297.79,258.45L306.04,258.23 M298.90,258.24L305.91,258.27 M307.05,246.41L300.31,246.32 M307.13,265.57L300.29,265.60 M293.61,246.24L300.63,245.99 M293.61,246.24L302.34,246.05 M307.14,265.93L294.83,265.98 M294.83,265.98L309.32,265.14 M293.48,265.61L300.62,265.97 M293.48,265.61L302.36,265.90 M304.62,246.92L314.39,246.98 M313.84,247.26L294.73,247.06 M304.62,265.04L314.39,264.98 M313.84,264.70L294.73,264.89 M303.54,265.91L293.62,265.51 M303.34,265.74L294.68,265.74 M304.07,265.74L293.40,265.80 M304.29,246.94L314.39,246.98 M303.24,246.94L313.51,246.81 M303.94,246.90L313.51,246.81 M294.80,247.09L312.52,247.10 M312.47,247.14L305.37,247.12 M303.34,246.22L294.74,246.22 M304.07,246.22L293.54,246.11 M304.07,246.22L293.40,246.16 M303.54,246.12L293.63,246.45 M304.29,265.02L314.39,264.98 M303.94,265.06L313.51,265.15 M305.41,264.84L312.47,264.82 M294.79,264.87L309.36,264.74 M294.79,264.87L309.15,264.96 M294.79,264.87L307.18,264.86 M306.75,257.31L297.57,257.57 M306.70,254.64L297.44,254.33 M306.70,255.98L297.68,258.15 M307.73,255.62L297.64,253.84 M297.64,253.84L306.70,255.98 M317.41,253.57L314.08,248.00 M300.08,258.27L315.92,258.05 M315.92,258.05L308.84,258.15 M305.69,264.36L312.58,264.02 M312.58,264.02L296.87,264.33 M312.58,264.02L295.85,264.45 M312.58,247.94L295.90,247.55 M312.58,247.94L296.87,247.63 M312.58,247.94L305.69,247.60 M315.92,253.89L308.84,253.82 M315.92,253.89L300.08,253.69 M305.69,264.36L309.14,258.28 M305.69,247.60L309.14,253.68 M295.91,249.16L312.58,248.08 M295.91,249.16L314.16,247.78 M295.92,262.81L314.11,264.46 M295.92,262.81L312.58,263.87 M299.58,252.07L306.76,252.02 M299.58,259.89L306.76,259.94 M297.20,258.01L294.61,264.14 M296.53,257.60L293.65,264.78 M298.77,252.93L306.53,253.04 M298.74,259.00L306.53,258.91 M297.70,258.20L295.23,264.30 M298.51,258.65L293.59,264.27 M297.71,258.36L305.92,258.30 M297.48,258.16L306.02,258.15 M297.73,253.51L306.05,253.62 M305.87,253.72L298.61,253.81 M297.79,253.49L305.99,253.87 M305.99,253.87L298.53,253.50 M293.78,265.72L302.46,265.91 M314.11,246.13L305.53,246.01 M304.20,264.98L314.11,264.46 M303.52,265.00L314.11,264.46 M303.16,265.03L313.51,265.17 M313.51,265.17L293.59,265.48 M294.80,264.88L312.52,264.86 M312.64,264.83L305.53,264.85 M303.29,265.74L294.67,265.75 M304.02,265.74L293.49,265.85 M304.02,265.74L293.36,265.80 M303.48,246.06L293.59,246.47 M293.59,246.47L313.48,246.78 M303.29,246.21L294.61,246.21 M304.02,246.22L293.49,246.10 M304.02,246.22L293.36,246.15 M303.52,246.96L314.12,247.28 M294.32,246.91L302.32,247.10 M294.32,246.91L305.57,247.11 M294.79,247.08L309.38,247.21 M294.79,247.08L309.16,247.08 M294.79,247.08L307.21,247.02 M306.61,254.68L297.48,254.39 M306.58,257.28L297.35,257.63 M303.91,252.24L310.69,252.35 M303.83,252.81L310.54,252.83 M304.31,251.45L311.09,251.55 M304.72,250.65L311.49,250.75 M305.09,249.83L311.89,249.96 M305.48,249.01L312.29,249.15 M305.90,248.79L312.53,248.83 M313.68,264.59L293.65,264.78 M310.67,253.94L303.37,252.97 M314.12,264.58L294.06,264.37 M294.06,247.63L313.59,248.14 M302.50,259.14L310.28,259.15 M303.89,263.98L313.29,263.61 M304.31,263.85L313.29,263.61 M313.29,263.61L303.16,263.65 M305.98,264.21L312.89,263.40 M302.54,252.79L310.29,252.81 M312.74,248.53L305.98,247.75 M304.31,248.12L313.18,248.44 M303.99,248.03L313.18,248.44 M313.18,248.44L303.16,248.31 M314.10,257.01L306.12,257.40 M306.12,254.55L314.10,254.95 M293.85,248.06L304.63,248.03 M304.67,271.20L315.86,274.31 M314.55,274.52L303.80,271.27 M322.23,267.10L307.48,268.67 M317.36,272.28L304.28,272.12 M304.32,273.12L318.16,272.14 M318.60,271.11L304.13,271.31 M282.66,261.30L282.73,261.54 M282.66,250.66L282.73,250.42 M282.67,262.33L282.73,261.58 M282.67,262.33L282.65,261.58 M282.67,249.63L282.73,250.38 M282.67,249.63L282.65,250.38 M281.87,249.56L282.01,255.98 M281.87,262.40L282.01,255.98 M282.59,268.87L282.60,270.99 M282.54,262.76L282.49,263.00 M282.98,249.25L282.67,249.63 M282.60,240.97L282.59,243.09 M282.54,249.20L282.49,248.96 M304.45,241.08L317.03,239.13 M304.58,240.71L315.74,237.60 M317.18,239.06L322.59,243.20 M318.59,240.89L303.99,240.52 M316.84,239.45L304.26,239.80 M296.07,245.01L315.39,245.41 M316.74,268.39L296.86,270.37 M296.86,270.37L282.27,270.65 M281.39,262.93L291.38,262.85 M281.39,262.93L291.46,263.03 M316.74,243.56L296.86,241.58 M296.86,241.58L282.30,241.31 M281.48,249.06L291.38,249.10 M281.48,249.06L291.46,248.93 M316.85,243.14L296.26,241.35 M281.49,249.15L281.49,255.98 M281.48,262.81L281.49,255.98 M296.13,266.30L315.62,266.81 M289.19,266.99L281.49,267.48 M289.19,266.99L282.42,267.50 M316.81,268.73L296.86,270.37 M317.08,266.93L291.29,266.80 M293.24,267.02L316.90,266.89 M316.81,243.22L296.86,241.58 M317.07,245.03L291.29,245.15 M289.19,244.97L281.49,244.48 M289.19,244.97L282.41,244.46 M293.24,244.92L316.72,245.14 M293.24,244.92L316.95,245.04 M295.71,266.98L288.58,266.99 M288.58,266.99L295.68,267.02 M295.96,244.97L288.58,244.95 M288.58,244.95L295.69,244.97 M316.13,244.99L296.20,245.04 M316.08,266.89L296.19,266.96 M282.22,270.74L288.89,269.60 M288.89,269.60L282.37,270.72 M295.81,245.80L316.27,245.01 M296.24,245.57L316.27,245.01 M292.15,244.88L285.22,244.82 M292.16,267.08L285.13,267.14 M320.50,255.97L319.88,262.54 M320.50,255.97L319.88,249.41 M309.62,255.74L318.52,255.71 M309.64,256.24L318.53,256.25 M309.65,255.71L318.61,255.73 M309.65,256.25L318.54,256.26 M289.43,265.30L281.44,265.69 M289.43,246.67L281.44,246.27 M281.30,246.01L288.19,245.97 M281.30,265.95L288.19,265.99 M293.08,253.44L283.87,253.28 M244.41,255.62L244.50,255.81 M235.02,255.62L234.93,255.81 M246.65,255.98L246.69,255.70 M233.86,256.66L233.71,256.58 M190.58,251.33L190.53,260.49 M254.65,269.31L261.84,268.80 M254.66,269.48L268.76,269.55 M266.99,243.21L275.98,242.91 M287.89,276.25L292.43,273.32 M287.89,235.71L292.43,238.64 M275.40,243.90L282.67,244.10 M282.67,267.85L275.40,268.05 M272.51,263.73L261.91,266.99 M261.91,266.99L285.90,260.73 M261.91,266.99L285.36,260.94 M261.91,266.99L280.64,261.78 M261.91,266.99L279.72,262.14 M261.90,244.99L285.38,250.99 M261.90,244.99L280.65,250.18 M261.90,244.99L279.72,249.82 M272.60,248.26L261.90,244.99 M261.91,266.99L290.31,259.74 M269.83,260.73L259.73,268.07 M267.95,270.72L292.93,270.84 M267.95,270.03L253.95,270.71 M267.95,241.22L254.01,241.17 M267.94,241.42L254.01,241.13 M267.94,241.42L292.97,241.19 M268.00,241.24L293.80,241.24 M268.82,269.59L261.88,269.49 M269.21,242.48L281.66,242.45 M261.91,242.40L268.81,242.47 M292.08,272.30L280.11,272.48 M280.11,272.48L263.47,272.71 M292.07,239.64L280.11,239.47 M280.11,239.47L263.47,239.25 M294.42,251.49L291.11,245.64 M294.30,260.40L291.00,266.15 M294.70,259.70L291.00,266.15 M268.55,261.13L260.85,261.08 M268.55,250.82L260.86,250.87 M270.33,251.65L259.73,243.87 M290.57,245.32L283.49,245.37 M290.57,266.62L283.50,266.58 M290.47,245.56L277.65,245.63 M273.20,275.51L280.77,276.43 M268.75,269.86L254.51,269.59 M253.93,271.64L261.88,271.04 M253.93,240.32L261.88,240.92 M268.74,266.29L260.49,268.23 M268.75,245.65L260.47,243.71 M287.07,260.23L279.56,261.87 M261.86,266.94L273.79,263.16 M261.86,266.94L272.64,263.39 M260.47,243.71L282.91,243.80 M270.42,261.00L292.43,258.23 M270.42,250.95L292.43,253.71 M254.38,255.97L254.12,268.17 M254.12,243.78L254.38,255.97 M293.25,252.19L273.78,248.81 M293.25,252.19L279.55,250.09 M293.25,252.19L280.95,250.29 M293.25,252.19L286.08,251.62 M260.49,268.23L270.42,261.00 M270.42,250.95L260.47,243.71 M275.95,238.24L263.13,238.12 M311.66,276.50L298.71,276.43 M297.16,276.75L265.27,284.60 M254.86,294.32L239.76,278.71 M239.76,278.71L253.68,293.33 M239.76,278.71L254.63,294.20 M272.70,294.77L287.91,289.87 M272.70,294.77L289.52,289.32 M257.61,296.65L264.28,298.20 M274.67,289.64L285.28,286.24 M274.67,289.64L286.49,285.81 M274.67,289.64L290.49,284.65 M295.51,289.19L270.72,296.75 M269.75,283.69L255.89,286.53 M311.56,277.22L298.73,277.24 M295.05,277.96L282.94,280.91 M282.94,280.91L271.14,283.90 M268.06,284.62L258.58,287.04 M278.15,280.83L256.38,286.25 M268.23,283.35L256.38,286.25 M272.92,274.33L280.91,274.35 M289.57,289.33L272.69,294.68 M272.69,294.68L286.94,290.31 M278.65,281.54L269.75,283.69 M276.13,277.71L287.41,277.06 M306.24,277.42L298.73,277.09 M313.99,275.59L297.55,275.49 M290.23,275.57L297.52,275.47 M305.67,286.89L296.50,289.62 M257.47,297.12L264.21,298.77 M257.19,275.55L265.20,284.79 M297.42,275.38L314.00,275.41 M290.08,276.05L315.97,275.59 M298.71,235.53L311.99,235.50 M297.16,235.21L265.27,227.36 M269.76,228.23L256.01,225.22 M314.56,228.49L305.05,225.65 M254.86,217.64L239.76,233.25 M239.76,233.25L254.63,217.76 M239.76,233.25L253.68,218.63 M272.70,217.19L287.91,222.09 M272.70,217.19L289.53,222.63 M274.85,222.36L285.28,225.72 M274.85,222.36L286.49,226.15 M274.85,222.36L290.49,227.31 M257.61,215.30L264.28,213.76 M314.63,236.67L290.05,236.24 M298.71,235.72L312.22,235.60 M258.58,224.92L268.06,227.34 M271.14,228.06L282.94,231.04 M282.94,231.04L295.05,234.00 M278.05,231.09L256.42,225.70 M268.23,228.61L256.42,225.70 M289.57,222.62L272.69,217.28 M272.69,217.28L286.94,221.64 M314.74,228.48L305.28,225.70 M307.69,236.56L315.31,236.56 M307.69,236.56L297.55,236.49 M306.24,234.54L298.73,234.87 M278.07,230.08L271.14,228.06 M290.23,236.39L297.52,236.49 M305.67,225.06L296.50,222.34 M257.47,214.84L264.21,213.18 M290.36,236.59L314.76,236.29 M314.72,236.93L290.31,236.49 M314.00,236.55L297.42,236.56 M313.97,271.80L307.41,272.02 M314.02,270.78L306.98,270.67 M314.02,270.78L305.85,270.61 M304.97,274.14L313.76,274.30 M311.72,275.09L303.73,275.27 M284.39,243.74L311.99,243.22 M305.84,241.34L314.06,241.17 M306.98,241.29L314.06,241.17 M280.51,270.93L289.72,271.21 M244.98,268.45L230.78,268.43 M245.01,243.60L230.78,243.53 M256.18,243.50L263.97,243.52 M280.91,263.73L273.80,263.66 M280.26,263.72L272.79,263.79 M279.90,240.50L272.89,240.52 M279.89,271.45L272.89,271.44 M273.31,237.98L274.01,238.07 M274.79,271.65L264.62,271.57 M280.57,276.13L271.55,276.17 M230.66,234.93L245.06,235.13 M260.48,229.38L268.55,229.30 M254.31,236.72L260.20,234.49 M260.16,236.68L266.30,234.53 M265.44,276.84L259.88,274.62 M259.08,276.95L253.45,274.71 M250.40,272.44L253.87,274.77 M257.78,278.12L262.84,280.16 M268.56,282.66L260.48,282.58 M278.82,271.38L271.94,271.32 M278.82,240.58L271.94,240.63 M278.66,242.00L273.03,242.16 M278.80,259.15L273.37,258.93 M273.37,256.30L278.75,256.26 M273.36,255.65L278.75,255.59 M252.18,230.33L268.47,230.33 M282.17,217.06L277.53,212.54 M282.05,217.49L277.37,212.77 M278.53,217.04L273.52,212.16 M278.41,217.48L273.36,212.39 M274.93,217.01L269.93,212.13 M274.81,217.44L269.77,212.35 M265.87,211.72L270.97,217.31 M311.92,224.69L311.16,216.11 M294.27,229.37L275.75,229.44 M249.14,211.09L259.90,211.64 M327.56,216.99L331.46,224.46 M244.34,230.92L237.82,230.79 M265.19,227.03L249.27,227.17 M265.19,227.03L247.85,227.20 M265.14,227.02L247.93,227.23 M293.34,219.83L283.36,218.37 M284.60,224.44L295.32,223.64 M246.85,223.23L253.59,223.31 M330.21,223.21L327.41,217.02 M322.94,225.05L329.84,225.98 M311.96,218.00L312.24,224.40 M269.90,219.11L277.85,219.05 M274.09,220.94L263.13,221.07 M291.75,227.31L273.32,227.93 M260.01,211.48L249.72,211.58 M327.62,217.00L331.85,225.02 M324.32,215.56L314.44,214.93 M294.74,212.18L307.43,212.78 M314.07,225.97L329.93,226.15 M260.01,211.66L249.72,211.74 M246.58,223.48L260.01,223.57 M268.28,230.28L252.24,230.28 M273.22,231.11L252.18,230.78 M252.18,230.78L268.48,230.95 M251.89,234.59L268.78,234.65 M252.18,281.09L268.47,281.07 M252.18,230.87L268.47,230.88 M252.18,281.63L268.47,281.63 M277.53,299.42L282.17,294.90 M277.37,299.19L282.05,294.47 M273.52,299.80L278.53,294.92 M273.36,299.57L278.41,294.49 M269.93,299.84L274.93,294.96 M269.77,299.61L274.81,294.52 M270.97,294.65L265.87,300.24 M263.78,289.20L293.07,289.18 M263.78,288.36L292.54,288.31 M264.15,296.65L293.44,296.59 M264.15,295.81L292.91,295.68 M275.83,282.53L295.22,282.65 M248.97,300.86L259.90,300.33 M264.09,286.89L287.17,286.82 M264.09,286.93L287.16,286.91 M264.09,286.96L287.16,286.91 M248.05,284.78L265.37,284.95 M249.28,284.73L265.53,284.92 M248.01,284.77L265.53,284.92 M246.86,288.78L253.65,288.65 M274.09,291.02L263.13,290.89 M260.01,300.47L249.72,300.38 M246.58,288.48L260.01,288.39 M329.93,285.33L313.98,285.11 M327.56,294.98L331.46,287.52 M299.86,286.78L287.17,286.82 M299.86,286.82L287.16,286.91 M330.21,288.75L327.39,294.67 M293.33,292.13L283.46,293.62 M283.46,293.62L292.68,292.30 M311.96,293.95L312.29,287.43 M327.42,295.00L331.48,286.99 M294.74,299.78L307.43,299.18 M331.62,287.06L312.29,287.45 M273.11,281.65L252.24,281.67 M247.24,281.15L273.28,281.38 M252.35,281.07L273.28,280.86 M252.35,281.07L268.44,281.09 M287.36,233.88L276.75,231.61 M287.36,233.88L273.39,230.83 M273.44,237.82L274.79,237.79 M273.44,274.14L274.79,274.17 M287.30,236.81L294.48,236.89 M288.03,236.24L273.56,234.03 M288.03,236.24L274.51,234.12 M286.41,275.09L274.72,275.01 M288.03,275.72L274.51,277.81 M288.03,275.72L273.49,277.98 M276.37,234.92L285.88,234.96 M294.69,274.47L274.99,274.42 M287.78,236.13L275.92,233.70 M271.10,234.63L264.30,234.44 M264.30,234.44L271.26,234.61 M198.82,251.13L192.30,251.08 M198.86,260.81L192.28,260.90 M204.07,261.66L195.75,261.79 M204.07,250.36L195.75,250.12 M215.23,263.69L229.05,263.80 M249.42,259.51L249.29,252.66 M248.57,259.31L248.40,252.34 M231.81,259.85L231.48,259.34 M245.58,255.98L245.40,249.24 M232.02,260.19L244.13,260.07 M231.62,251.68L244.14,251.78 M247.64,266.18L236.82,266.30 M250.19,266.35L256.38,262.94 M247.64,245.78L236.82,245.65 M250.43,245.63L256.36,248.99 M246.10,245.54L239.20,245.59 M227.57,267.15L216.69,266.10 M216.44,238.54L216.47,235.16 M192.33,229.12L210.71,212.55 M218.86,209.40L209.53,208.62 M241.88,222.37L248.05,226.90 M187.83,230.05L173.91,232.64 M215.94,231.92L228.85,231.65 M211.28,231.96L200.44,231.87 M211.28,231.96L195.75,231.69 M227.18,215.31L237.01,222.67 M234.77,230.12L225.74,229.94 M263.61,232.95L241.07,232.47 M241.07,232.47L264.04,232.88 M241.07,232.47L248.94,234.98 M237.91,231.69L229.19,231.77 M201.60,235.56L221.73,235.35 M235.21,225.54L241.17,229.79 M183.44,233.21L190.84,233.09 M183.44,233.21L208.92,232.81 M190.84,233.09L208.92,232.81 M193.29,232.81L207.91,232.62 M193.29,232.81L204.30,232.65 M189.09,231.01L182.69,232.16 M225.82,215.50L236.10,224.63 M205.50,230.58L195.56,230.48 M247.87,229.97L229.84,230.32 M212.91,230.23L206.02,230.39 M202.47,222.48L210.64,212.98 M210.64,212.98L202.14,222.80 M229.04,226.10L226.71,218.34 M221.43,222.41L236.79,223.40 M221.60,222.29L236.79,223.40 M187.85,230.32L173.96,233.55 M189.26,231.14L174.84,234.03 M198.12,213.32L203.53,209.54 M217.64,212.02L223.87,214.91 M227.38,226.68L239.87,227.16 M229.66,226.71L221.82,226.62 M202.05,229.94L201.86,223.68 M193.10,228.50L201.89,223.76 M193.10,228.50L202.10,223.70 M260.43,225.58L272.61,226.04 M272.20,230.31L278.57,233.24 M257.48,221.63L248.74,220.93 M254.96,227.95L263.33,231.35 M246.67,225.15L256.52,229.30 M272.46,226.99L254.34,226.46 M234.02,217.95L244.64,218.81 M225.90,216.00L235.32,223.22 M264.71,232.92L257.21,229.78 M247.53,220.35L257.49,221.13 M272.70,226.56L260.42,226.13 M247.93,225.60L256.42,228.86 M247.93,225.60L255.88,228.39 M235.38,223.41L224.96,215.77 M263.99,214.55L253.48,213.69 M295.31,221.66L301.13,226.89 M272.69,227.33L280.20,227.63 M357.58,225.16L363.20,228.18 M349.06,230.45L363.47,231.02 M303.13,228.95L309.88,229.19 M328.49,228.50L348.37,229.36 M278.60,233.41L305.87,233.10 M233.81,222.59L242.59,222.79 M242.59,222.79L235.00,215.88 M234.29,223.31L222.08,223.35 M221.24,222.31L213.22,222.34 M200.27,222.52L211.12,212.60 M211.12,212.60L199.49,222.98 M200.33,222.78L213.17,222.92 M230.13,212.17L217.52,212.17 M210.67,213.21L202.63,213.03 M235.29,223.57L235.19,215.83 M243.87,225.17L236.76,225.88 M212.60,222.78L221.41,222.77 M221.41,213.23L214.78,213.23 M221.41,226.62L207.46,226.45 M216.44,273.42L216.47,276.80 M218.00,298.89L231.94,288.36 M221.23,289.65L213.21,289.63 M218.89,302.55L209.56,303.33 M211.76,300.56L225.53,299.87 M261.91,279.44L248.89,285.10 M211.16,299.42L200.26,289.44 M211.16,299.42L199.48,288.97 M213.18,289.06L200.33,289.19 M233.62,286.82L225.83,287.01 M225.77,282.02L234.78,281.67 M227.20,297.88L237.11,289.70 M183.47,278.76L190.86,278.88 M183.47,278.76L208.95,279.16 M190.86,278.88L208.95,279.16 M193.32,279.16L204.33,279.32 M193.32,279.16L207.75,279.37 M186.21,279.34L207.75,279.37 M207.75,279.37L189.22,279.27 M194.79,280.87L206.29,281.40 M227.21,296.53L236.65,289.65 M227.21,296.53L237.02,289.32 M229.87,281.64L247.89,281.99 M212.94,281.74L206.06,281.57 M264.06,279.11L241.10,279.49 M241.10,279.49L263.65,278.96 M215.84,279.88L228.40,280.14 M215.84,279.88L228.88,280.32 M199.50,276.98L211.32,278.44 M201.64,276.37L211.30,276.81 M201.64,276.37L211.87,276.83 M201.64,276.37L221.76,276.61 M215.04,299.60L201.75,288.57 M235.24,286.41L241.22,282.17 M210.77,299.08L202.17,289.16 M221.43,289.55L236.83,288.95 M221.51,288.02L240.39,287.32 M187.85,281.62L173.97,278.39 M174.84,277.91L189.26,280.81 M223.85,297.04L217.72,299.88 M227.37,285.28L239.87,284.81 M229.66,285.25L221.82,285.34 M201.88,288.19L193.10,283.45 M222.08,288.61L234.28,288.66 M242.58,289.19L233.81,289.38 M242.58,289.19L234.99,296.10 M300.88,285.57L294.44,287.46 M263.46,280.58L254.46,284.24 M261.84,290.12L245.93,291.50 M245.93,291.50L262.12,289.82 M257.48,290.38L248.67,291.08 M248.11,286.81L260.44,286.43 M246.99,286.73L256.53,282.69 M225.64,295.71L235.29,288.67 M244.64,293.17L234.01,294.02 M225.89,295.96L235.32,288.75 M264.71,279.07L257.21,282.21 M278.61,278.59L305.87,278.91 M247.53,291.64L257.48,290.86 M272.70,285.43L260.42,285.85 M256.42,283.12L247.95,286.37 M253.47,298.29L263.98,297.44 M302.12,284.35L295.64,289.03 M302.12,284.35L294.98,288.69 M303.15,283.53L295.93,288.08 M293.32,291.31L300.94,285.51 M347.19,290.11L338.61,290.77 M349.06,281.59L363.47,281.03 M307.43,278.92L314.26,279.00 M309.88,282.82L303.13,283.07 M342.92,279.34L352.29,279.46 M328.48,283.53L348.37,282.68 M230.11,299.79L217.51,299.89 M210.66,298.74L202.62,298.92 M235.29,288.40L235.04,295.86 M249.05,286.44L236.73,285.52 M243.87,286.80L236.76,286.09 M210.79,295.62L221.42,295.62" stroke="currentColor" stroke-width="0.6" stroke-linecap="round" fill="none" opacity="0.55" clip-path="url(#hull-clip)" filter="url(#glow)" />
  <path d="M 204.81,305.06 C 203.98,305.03 203.01,304.98 202.19,304.94 C 201.37,304.89 200.60,304.85 199.89,304.80 C 199.18,304.75 198.52,304.70 197.92,304.64 C 197.32,304.59 196.77,304.53 196.28,304.47 C 195.79,304.41 195.35,304.35 194.97,304.28 C 194.59,304.22 194.26,304.15 193.98,304.08 C 193.71,304.01 193.49,303.93 193.33,303.86 C 193.16,303.78 193.05,303.71 193.00,303.62 C 192.95,303.54 192.98,303.45 193.00,303.38 C 193.02,303.30 193.07,303.22 193.15,303.15 C 193.22,303.08 193.32,303.01 193.45,302.95 C 193.57,302.88 193.72,302.82 193.89,302.77 C 194.06,302.71 194.26,302.66 194.48,302.61 C 194.71,302.56 194.95,302.52 195.23,302.48 C 195.50,302.44 195.80,302.40 196.12,302.37 C 196.44,302.33 196.79,302.31 197.16,302.28 C 197.53,302.26 198.05,302.30 198.34,302.22 C 198.63,302.14 198.82,302.00 198.89,301.80 C 198.97,301.60 198.93,301.34 198.80,301.02 C 198.66,300.70 198.41,300.32 198.06,299.88 C 197.71,299.43 197.25,298.93 196.69,298.38 C 196.12,297.82 195.45,297.20 194.67,296.52 C 193.89,295.84 193.01,295.10 192.02,294.30 C 191.02,293.50 189.92,292.64 188.72,291.72 C 187.51,290.80 186.14,289.73 184.78,288.78 C 183.42,287.83 182.01,286.92 180.55,286.04 C 179.10,285.16 177.59,284.31 176.04,283.49 C 174.49,282.68 172.88,281.89 171.23,281.14 C 169.58,280.39 167.89,279.67 166.14,278.98 C 164.39,278.30 162.60,277.64 160.76,277.02 C 158.92,276.40 157.02,275.81 155.09,275.26 C 153.15,274.70 151.16,274.18 149.12,273.69 C 147.09,273.20 144.83,272.75 142.88,272.31 C 140.92,271.88 139.09,271.47 137.38,271.09 C 135.68,270.70 134.10,270.34 132.65,270.01 C 131.20,269.67 129.87,269.36 128.67,269.08 C 127.47,268.79 126.40,268.53 125.45,268.30 C 124.51,268.06 123.69,267.85 122.99,267.66 C 122.30,267.48 121.73,267.32 121.29,267.18 C 120.85,267.04 120.53,266.93 120.34,266.84 C 120.15,266.76 120.21,266.72 120.16,266.66 C 120.11,266.60 120.07,266.54 120.05,266.48 C 120.02,266.43 120.01,266.38 120.02,266.33 C 120.02,266.28 120.03,266.23 120.06,266.19 C 120.09,266.14 120.13,266.10 120.19,266.06 C 120.24,266.02 120.31,265.99 120.39,265.95 C 120.47,265.92 120.57,265.89 120.67,265.86 C 120.78,265.83 120.90,265.80 121.03,265.78 C 121.16,265.76 121.33,265.74 121.47,265.72 C 121.61,265.69 121.73,265.67 121.85,265.63 C 121.97,265.60 122.08,265.56 122.18,265.52 C 122.28,265.48 122.37,265.44 122.45,265.39 C 122.54,265.34 122.61,265.29 122.67,265.23 C 122.74,265.18 122.79,265.12 122.84,265.05 C 122.88,264.99 122.92,264.92 122.95,264.85 C 122.97,264.78 122.99,264.70 123.00,264.62 C 123.01,264.55 123.02,264.45 123.00,264.38 C 122.98,264.30 122.93,264.22 122.86,264.16 C 122.79,264.09 122.70,264.03 122.58,263.97 C 122.46,263.91 122.32,263.86 122.16,263.81 C 121.99,263.77 121.80,263.72 121.59,263.69 C 121.38,263.65 121.15,263.62 120.89,263.59 C 120.63,263.57 120.35,263.55 120.05,263.53 C 119.74,263.52 119.41,263.51 119.06,263.50 C 118.71,263.49 118.29,263.50 117.94,263.50 C 117.58,263.50 117.25,263.49 116.93,263.48 C 116.61,263.46 116.32,263.45 116.04,263.43 C 115.76,263.41 115.50,263.39 115.27,263.36 C 115.03,263.33 114.81,263.30 114.61,263.27 C 114.41,263.23 114.23,263.19 114.07,263.15 C 113.91,263.11 113.77,263.06 113.65,263.01 C 113.53,262.96 113.43,262.90 113.34,262.84 C 113.26,262.79 113.21,262.75 113.16,262.66 C 113.10,262.56 113.04,262.44 112.99,262.29 C 112.94,262.14 112.89,261.95 112.85,261.74 C 112.81,261.53 112.77,261.29 112.73,261.02 C 112.70,260.74 112.67,260.44 112.64,260.11 C 112.61,259.78 112.59,259.42 112.57,259.02 C 112.55,258.63 112.54,258.21 112.52,257.76 C 112.51,257.31 112.50,256.82 112.50,256.31 C 112.50,255.80 112.50,255.20 112.50,254.69 C 112.50,254.18 112.51,253.69 112.52,253.24 C 112.54,252.79 112.55,252.37 112.57,251.98 C 112.59,251.58 112.61,251.22 112.64,250.89 C 112.67,250.56 112.70,250.26 112.73,249.98 C 112.77,249.71 112.81,249.47 112.85,249.26 C 112.89,249.05 112.94,248.86 112.99,248.71 C 113.04,248.56 113.10,248.44 113.16,248.34 C 113.21,248.25 113.26,248.21 113.34,248.16 C 113.43,248.10 113.53,248.04 113.65,247.99 C 113.77,247.94 113.91,247.89 114.07,247.85 C 114.23,247.81 114.41,247.77 114.61,247.73 C 114.81,247.70 115.03,247.67 115.27,247.64 C 115.50,247.61 115.76,247.59 116.04,247.57 C 116.32,247.55 116.61,247.54 116.93,247.52 C 117.25,247.51 117.58,247.50 117.94,247.50 C 118.29,247.50 118.72,247.51 119.06,247.50 C 119.41,247.49 119.73,247.47 120.02,247.44 C 120.30,247.41 120.57,247.36 120.80,247.31 C 121.03,247.26 121.23,247.20 121.41,247.12 C 121.58,247.05 121.73,246.97 121.84,246.88 C 121.96,246.78 122.05,246.68 122.11,246.56 C 122.17,246.45 122.20,246.32 122.20,246.19 C 122.21,246.05 122.18,245.91 122.12,245.75 C 122.07,245.59 121.89,245.42 121.88,245.25 C 121.86,245.08 121.93,244.89 122.06,244.70 C 122.20,244.51 122.41,244.32 122.69,244.11 C 122.97,243.90 123.32,243.69 123.75,243.47 C 124.18,243.25 124.68,243.02 125.25,242.78 C 125.82,242.54 126.47,242.30 127.19,242.05 C 127.91,241.79 128.70,241.53 129.56,241.27 C 130.43,241.00 131.36,240.72 132.38,240.44 C 133.39,240.15 134.58,239.84 135.62,239.56 C 136.67,239.29 137.67,239.03 138.62,238.80 C 139.58,238.56 140.50,238.34 141.38,238.14 C 142.25,237.94 143.08,237.76 143.88,237.59 C 144.67,237.43 145.42,237.28 146.12,237.16 C 146.83,237.03 147.50,236.92 148.12,236.83 C 148.75,236.74 149.33,236.66 149.88,236.61 C 150.42,236.55 150.92,236.52 151.38,236.50 C 151.83,236.48 152.19,236.51 152.62,236.50 C 153.06,236.49 153.51,236.46 153.97,236.42 C 154.43,236.38 154.91,236.33 155.41,236.27 C 155.90,236.20 156.41,236.12 156.94,236.03 C 157.46,235.94 158.01,235.84 158.56,235.72 C 159.12,235.60 159.69,235.47 160.28,235.33 C 160.87,235.18 161.47,235.03 162.09,234.86 C 162.71,234.69 163.35,234.51 164.00,234.31 C 164.65,234.12 165.30,233.94 166.00,233.69 C 166.70,233.43 167.44,233.13 168.21,232.79 C 168.98,232.44 169.79,232.05 170.63,231.62 C 171.48,231.18 172.35,230.70 173.27,230.17 C 174.18,229.64 175.13,229.07 176.11,228.45 C 177.09,227.83 178.11,227.17 179.16,226.46 C 180.22,225.75 181.31,225.00 182.43,224.20 C 183.55,223.39 184.71,222.55 185.91,221.66 C 187.10,220.76 188.47,219.72 189.59,218.84 C 190.72,217.96 191.75,217.14 192.67,216.38 C 193.60,215.61 194.42,214.90 195.14,214.25 C 195.86,213.60 196.48,213.01 197.00,212.47 C 197.52,211.93 197.93,211.45 198.25,211.03 C 198.57,210.61 198.78,210.24 198.89,209.94 C 199.00,209.63 199.01,209.38 198.92,209.19 C 198.83,208.99 198.64,208.86 198.34,208.78 C 198.05,208.70 197.53,208.74 197.16,208.72 C 196.79,208.69 196.44,208.67 196.12,208.63 C 195.80,208.60 195.50,208.56 195.23,208.52 C 194.95,208.48 194.71,208.44 194.48,208.39 C 194.26,208.34 194.06,208.29 193.89,208.23 C 193.72,208.18 193.57,208.12 193.45,208.05 C 193.32,207.99 193.22,207.92 193.15,207.85 C 193.07,207.78 193.02,207.70 193.00,207.62 C 192.98,207.55 192.95,207.46 193.00,207.38 C 193.05,207.29 193.16,207.22 193.33,207.14 C 193.49,207.07 193.71,206.99 193.98,206.92 C 194.26,206.85 194.59,206.78 194.97,206.72 C 195.35,206.65 195.79,206.59 196.28,206.53 C 196.77,206.47 197.32,206.41 197.92,206.36 C 198.52,206.30 199.18,206.25 199.89,206.20 C 200.60,206.15 201.37,206.11 202.19,206.06 C 203.01,206.02 203.98,205.97 204.81,205.94 C 205.65,205.91 206.44,205.89 207.19,205.88 C 207.94,205.86 208.65,205.86 209.31,205.88 C 209.98,205.89 210.60,205.91 211.19,205.94 C 211.77,205.97 212.31,206.01 212.81,206.06 C 213.31,206.11 213.77,206.18 214.19,206.25 C 214.60,206.32 214.98,206.41 215.31,206.50 C 215.65,206.59 215.94,206.70 216.19,206.81 C 216.44,206.93 216.57,207.06 216.81,207.19 C 217.05,207.31 217.33,207.44 217.64,207.56 C 217.95,207.69 218.29,207.81 218.67,207.94 C 219.05,208.06 219.46,208.19 219.91,208.31 C 220.35,208.44 220.83,208.56 221.34,208.69 C 221.86,208.81 222.40,208.94 222.98,209.06 C 223.57,209.19 224.18,209.31 224.83,209.44 C 225.48,209.56 226.16,209.69 226.88,209.81 C 227.59,209.94 228.41,210.07 229.12,210.19 C 229.84,210.30 230.52,210.41 231.16,210.52 C 231.80,210.62 232.40,210.71 232.97,210.80 C 233.54,210.88 234.07,210.96 234.56,211.03 C 235.06,211.10 235.52,211.16 235.94,211.22 C 236.36,211.27 236.74,211.32 237.09,211.36 C 237.44,211.40 237.76,211.43 238.03,211.45 C 238.31,211.48 238.55,211.49 238.75,211.50 C 238.95,211.51 239.09,211.51 239.25,211.50 C 239.41,211.49 239.57,211.48 239.72,211.45 C 239.87,211.43 240.02,211.40 240.16,211.36 C 240.30,211.32 240.43,211.27 240.56,211.22 C 240.69,211.16 240.82,211.10 240.94,211.03 C 241.06,210.96 241.17,210.88 241.28,210.80 C 241.39,210.71 241.49,210.62 241.59,210.52 C 241.69,210.41 241.79,210.30 241.88,210.19 C 241.96,210.07 241.89,209.92 242.12,209.81 C 242.36,209.70 242.76,209.61 243.31,209.53 C 243.86,209.45 244.57,209.39 245.44,209.34 C 246.30,209.30 247.32,209.27 248.50,209.25 C 249.68,209.23 251.01,209.23 252.50,209.25 C 253.99,209.27 255.64,209.30 257.44,209.34 C 259.24,209.39 261.20,209.45 263.31,209.53 C 265.43,209.61 267.70,209.70 270.12,209.81 C 272.55,209.92 275.39,210.07 277.88,210.19 C 280.36,210.31 282.74,210.42 285.03,210.53 C 287.32,210.64 289.51,210.74 291.59,210.84 C 293.68,210.94 295.67,211.04 297.56,211.12 C 299.45,211.21 301.24,211.30 302.94,211.38 C 304.63,211.45 306.22,211.53 307.72,211.59 C 309.21,211.66 310.61,211.72 311.91,211.78 C 313.20,211.84 314.40,211.89 315.50,211.94 C 316.60,211.98 317.54,212.00 318.50,212.06 C 319.46,212.12 320.38,212.20 321.27,212.30 C 322.15,212.39 322.99,212.51 323.80,212.64 C 324.60,212.77 325.37,212.92 326.09,213.09 C 326.82,213.26 327.51,213.45 328.16,213.66 C 328.80,213.86 329.41,214.09 329.98,214.33 C 330.55,214.57 331.09,214.83 331.58,215.11 C 332.07,215.39 332.52,215.68 332.94,216.00 C 333.35,216.32 333.67,216.68 334.06,217.00 C 334.46,217.32 334.87,217.62 335.30,217.91 C 335.73,218.19 336.17,218.46 336.64,218.72 C 337.11,218.97 337.59,219.21 338.09,219.44 C 338.60,219.66 339.12,219.87 339.66,220.06 C 340.20,220.26 340.75,220.43 341.33,220.59 C 341.90,220.76 342.50,220.90 343.11,221.03 C 343.72,221.16 344.35,221.28 345.00,221.38 C 345.65,221.47 346.37,221.55 347.00,221.62 C 347.63,221.70 348.22,221.76 348.78,221.81 C 349.34,221.86 349.86,221.91 350.34,221.94 C 350.83,221.97 351.28,221.99 351.69,222.00 C 352.10,222.01 352.47,222.01 352.81,222.00 C 353.15,221.99 353.45,221.97 353.72,221.94 C 353.98,221.91 354.21,221.86 354.41,221.81 C 354.60,221.76 354.76,221.70 354.88,221.62 C 354.99,221.55 355.02,221.43 355.12,221.38 C 355.23,221.32 355.37,221.28 355.52,221.27 C 355.68,221.26 355.86,221.28 356.07,221.32 C 356.28,221.36 356.51,221.43 356.77,221.52 C 357.02,221.61 357.30,221.72 357.61,221.86 C 357.92,222.00 358.25,222.16 358.60,222.35 C 358.96,222.54 359.34,222.75 359.74,222.99 C 360.15,223.23 360.58,223.49 361.03,223.78 C 361.49,224.07 362.01,224.41 362.47,224.72 C 362.92,225.02 363.36,225.32 363.77,225.61 C 364.17,225.90 364.56,226.18 364.92,226.45 C 365.28,226.73 365.62,226.99 365.94,227.25 C 366.25,227.51 366.54,227.76 366.81,228.00 C 367.08,228.24 367.33,228.48 367.55,228.70 C 367.77,228.93 367.97,229.15 368.14,229.36 C 368.32,229.57 368.47,229.77 368.59,229.97 C 368.72,230.16 368.94,230.36 368.91,230.53 C 368.87,230.71 368.69,230.87 368.37,231.02 C 368.05,231.18 367.58,231.32 366.98,231.45 C 366.37,231.57 365.62,231.69 364.73,231.80 C 363.85,231.90 362.81,232.00 361.64,232.08 C 360.47,232.16 359.15,232.23 357.70,232.29 C 356.24,232.35 354.64,232.39 352.90,232.43 C 351.16,232.46 349.27,232.49 347.25,232.50 C 345.23,232.51 342.79,232.50 340.75,232.50 C 338.71,232.50 336.81,232.51 335.04,232.52 C 333.27,232.54 331.63,232.55 330.12,232.57 C 328.61,232.59 327.23,232.61 325.98,232.64 C 324.74,232.67 323.62,232.70 322.64,232.73 C 321.66,232.77 320.81,232.81 320.09,232.85 C 319.37,232.89 318.78,232.94 318.32,232.99 C 317.86,233.04 317.54,233.10 317.34,233.16 C 317.15,233.21 317.20,233.26 317.16,233.34 C 317.12,233.43 317.10,233.53 317.10,233.65 C 317.11,233.77 317.13,233.91 317.18,234.07 C 317.23,234.23 317.30,234.41 317.39,234.61 C 317.48,234.81 317.60,235.03 317.73,235.27 C 317.87,235.50 318.03,235.76 318.21,236.04 C 318.39,236.32 318.60,236.61 318.82,236.93 C 319.05,237.25 319.29,237.58 319.56,237.94 C 319.83,238.29 320.17,238.71 320.44,239.06 C 320.71,239.42 320.95,239.76 321.17,240.08 C 321.39,240.40 321.59,240.70 321.77,240.98 C 321.94,241.27 322.09,241.53 322.22,241.78 C 322.35,242.03 322.45,242.26 322.53,242.47 C 322.61,242.68 322.67,242.87 322.70,243.05 C 322.74,243.22 322.75,243.38 322.73,243.52 C 322.72,243.65 322.68,243.77 322.62,243.88 C 322.57,243.98 322.45,244.04 322.38,244.12 C 322.30,244.21 322.24,244.31 322.19,244.41 C 322.14,244.51 322.09,244.61 322.06,244.72 C 322.03,244.83 322.01,244.94 322.00,245.06 C 321.99,245.18 321.99,245.31 322.00,245.44 C 322.01,245.57 322.03,245.70 322.06,245.84 C 322.09,245.98 322.14,246.13 322.19,246.28 C 322.24,246.43 322.30,246.59 322.38,246.75 C 322.45,246.91 322.55,247.06 322.62,247.25 C 322.70,247.44 322.78,247.65 322.84,247.89 C 322.91,248.13 322.97,248.39 323.03,248.67 C 323.09,248.96 323.14,249.26 323.19,249.59 C 323.23,249.92 323.28,250.28 323.31,250.66 C 323.35,251.03 323.38,251.43 323.41,251.86 C 323.43,252.28 323.45,252.73 323.47,253.20 C 323.48,253.67 323.49,254.17 323.50,254.69 C 323.51,255.21 323.51,255.79 323.50,256.31 C 323.49,256.83 323.48,257.33 323.47,257.80 C 323.45,258.27 323.43,258.72 323.41,259.14 C 323.38,259.57 323.35,259.97 323.31,260.34 C 323.28,260.72 323.23,261.08 323.19,261.41 C 323.14,261.74 323.09,262.04 323.03,262.33 C 322.97,262.61 322.91,262.87 322.84,263.11 C 322.78,263.35 322.70,263.56 322.62,263.75 C 322.55,263.94 322.45,264.09 322.38,264.25 C 322.30,264.41 322.24,264.57 322.19,264.72 C 322.14,264.87 322.09,265.02 322.06,265.16 C 322.03,265.30 322.01,265.43 322.00,265.56 C 321.99,265.69 321.99,265.82 322.00,265.94 C 322.01,266.06 322.03,266.17 322.06,266.28 C 322.09,266.39 322.14,266.49 322.19,266.59 C 322.24,266.69 322.30,266.79 322.38,266.88 C 322.45,266.96 322.56,267.02 322.62,267.12 C 322.69,267.23 322.73,267.35 322.74,267.49 C 322.76,267.63 322.75,267.80 322.73,267.98 C 322.70,268.16 322.65,268.36 322.58,268.58 C 322.51,268.80 322.41,269.04 322.30,269.30 C 322.18,269.56 322.04,269.83 321.88,270.13 C 321.72,270.43 321.54,270.75 321.34,271.09 C 321.13,271.42 320.90,271.78 320.66,272.16 C 320.41,272.53 319.96,272.97 319.84,273.34 C 319.73,273.72 319.77,274.07 319.96,274.40 C 320.15,274.73 320.50,275.04 321.01,275.32 C 321.51,275.61 322.17,275.87 322.98,276.11 C 323.80,276.35 324.77,276.57 325.89,276.77 C 327.01,276.96 328.29,277.14 329.73,277.29 C 331.16,277.44 332.75,277.57 334.49,277.68 C 336.24,277.79 338.13,277.87 340.19,277.94 C 342.24,278.00 344.75,278.01 346.81,278.06 C 348.88,278.11 350.80,278.17 352.57,278.24 C 354.35,278.31 355.98,278.39 357.46,278.48 C 358.95,278.56 360.29,278.66 361.48,278.77 C 362.68,278.87 363.73,278.99 364.64,279.11 C 365.55,279.23 366.31,279.37 366.93,279.51 C 367.55,279.65 368.02,279.80 368.35,279.96 C 368.68,280.12 368.87,280.29 368.91,280.47 C 368.95,280.65 368.72,280.83 368.59,281.03 C 368.46,281.23 368.31,281.44 368.12,281.66 C 367.94,281.88 367.73,282.10 367.50,282.34 C 367.27,282.58 367.01,282.83 366.72,283.09 C 366.43,283.35 366.12,283.62 365.78,283.91 C 365.44,284.19 365.08,284.48 364.69,284.78 C 364.30,285.08 363.88,285.40 363.44,285.72 C 362.99,286.04 362.53,286.38 362.03,286.72 C 361.54,287.06 360.96,287.46 360.47,287.78 C 359.98,288.11 359.52,288.40 359.10,288.66 C 358.68,288.93 358.29,289.16 357.93,289.37 C 357.57,289.57 357.25,289.75 356.95,289.89 C 356.66,290.04 356.40,290.15 356.17,290.23 C 355.94,290.32 355.75,290.37 355.59,290.40 C 355.42,290.42 355.29,290.42 355.20,290.38 C 355.10,290.35 355.03,290.28 355.00,290.19 C 354.97,290.09 355.04,289.92 355.00,289.81 C 354.96,289.70 354.87,289.60 354.73,289.52 C 354.60,289.43 354.42,289.36 354.20,289.30 C 353.98,289.24 353.72,289.19 353.41,289.16 C 353.10,289.12 352.74,289.10 352.34,289.09 C 351.95,289.09 351.50,289.09 351.02,289.11 C 350.53,289.13 350.00,289.16 349.42,289.20 C 348.85,289.25 348.23,289.30 347.56,289.38 C 346.90,289.45 346.12,289.53 345.44,289.62 C 344.75,289.72 344.08,289.84 343.44,289.97 C 342.79,290.10 342.17,290.24 341.56,290.41 C 340.96,290.57 340.38,290.74 339.81,290.94 C 339.25,291.13 338.71,291.34 338.19,291.56 C 337.67,291.79 337.17,292.03 336.69,292.28 C 336.21,292.54 335.75,292.81 335.31,293.09 C 334.88,293.38 334.46,293.68 334.06,294.00 C 333.67,294.32 333.41,294.68 332.94,295.00 C 332.47,295.32 331.90,295.61 331.23,295.89 C 330.57,296.17 329.81,296.43 328.95,296.67 C 328.10,296.91 327.14,297.14 326.09,297.34 C 325.04,297.55 323.90,297.74 322.66,297.91 C 321.41,298.08 320.08,298.23 318.64,298.36 C 317.21,298.49 315.67,298.61 314.05,298.70 C 312.42,298.80 310.70,298.88 308.88,298.94 C 307.05,299.00 304.96,299.02 303.12,299.06 C 301.29,299.10 299.53,299.15 297.84,299.19 C 296.16,299.23 294.56,299.27 293.03,299.31 C 291.51,299.35 290.06,299.40 288.69,299.44 C 287.32,299.48 286.03,299.52 284.81,299.56 C 283.60,299.60 282.46,299.65 281.41,299.69 C 280.35,299.73 279.37,299.77 278.47,299.81 C 277.57,299.85 276.74,299.90 276.00,299.94 C 275.26,299.98 274.63,300.02 274.00,300.06 C 273.37,300.11 272.77,300.15 272.20,300.20 C 271.64,300.25 271.11,300.30 270.61,300.36 C 270.11,300.41 269.65,300.47 269.22,300.53 C 268.79,300.59 268.39,300.65 268.03,300.72 C 267.67,300.78 267.34,300.85 267.05,300.92 C 266.75,300.99 266.49,301.07 266.27,301.14 C 266.04,301.22 265.85,301.29 265.69,301.38 C 265.53,301.46 265.48,301.55 265.31,301.62 C 265.14,301.70 264.92,301.78 264.66,301.84 C 264.39,301.91 264.08,301.97 263.72,302.03 C 263.36,302.09 262.95,302.14 262.50,302.19 C 262.05,302.23 261.55,302.28 261.00,302.31 C 260.45,302.35 259.86,302.38 259.22,302.41 C 258.58,302.43 257.89,302.45 257.16,302.47 C 256.42,302.48 255.64,302.49 254.81,302.50 C 253.98,302.51 253.01,302.51 252.19,302.50 C 251.36,302.49 250.59,302.48 249.86,302.45 C 249.13,302.43 248.46,302.40 247.83,302.36 C 247.20,302.32 246.62,302.27 246.09,302.22 C 245.57,302.16 245.09,302.10 244.66,302.03 C 244.23,301.96 243.85,301.88 243.52,301.80 C 243.18,301.71 242.90,301.62 242.67,301.52 C 242.44,301.41 242.26,301.30 242.12,301.19 C 241.99,301.07 241.96,300.93 241.88,300.81 C 241.79,300.70 241.69,300.59 241.59,300.48 C 241.49,300.38 241.39,300.29 241.28,300.20 C 241.17,300.12 241.06,300.04 240.94,299.97 C 240.82,299.90 240.69,299.84 240.56,299.78 C 240.43,299.73 240.30,299.68 240.16,299.64 C 240.02,299.60 239.87,299.57 239.72,299.55 C 239.57,299.52 239.41,299.51 239.25,299.50 C 239.09,299.49 238.95,299.49 238.75,299.50 C 238.55,299.51 238.31,299.52 238.03,299.55 C 237.76,299.57 237.44,299.60 237.09,299.64 C 236.74,299.68 236.36,299.73 235.94,299.78 C 235.52,299.84 235.06,299.90 234.56,299.97 C 234.07,300.04 233.54,300.12 232.97,300.20 C 232.40,300.29 231.80,300.38 231.16,300.48 C 230.52,300.59 229.84,300.70 229.12,300.81 C 228.41,300.93 227.59,301.06 226.88,301.19 C 226.16,301.31 225.48,301.44 224.83,301.56 C 224.18,301.69 223.57,301.81 222.98,301.94 C 222.40,302.06 221.86,302.19 221.34,302.31 C 220.83,302.44 220.35,302.56 219.91,302.69 C 219.46,302.81 219.05,302.94 218.67,303.06 C 218.29,303.19 217.95,303.31 217.64,303.44 C 217.33,303.56 217.05,303.69 216.81,303.81 C 216.57,303.94 216.44,304.07 216.19,304.19 C 215.94,304.30 215.65,304.41 215.31,304.50 C 214.98,304.59 214.60,304.68 214.19,304.75 C 213.77,304.82 213.31,304.89 212.81,304.94 C 212.31,304.99 211.77,305.03 211.19,305.06 C 210.60,305.09 209.98,305.11 209.31,305.12 C 208.65,305.14 207.94,305.14 207.19,305.12 C 206.44,305.11 205.65,305.09 204.81,305.06 Z" fill="none" stroke="currentColor" stroke-width="1.5" stroke-linejoin="round" stroke-linecap="round" filter="url(#glow)" />
</svg>