<svg xmlns="http://www.w3.org/2000/svg" width="512" height="512" viewBox="103.60 180.60 291.16 142.80" preserveAspectRatio="xMidYMid meet">
  <defs>
    <filter id="glow" x="-30%" y="-30%" width="160%" height="160%">
      <feGaussianBlur in="SourceGraphic" stdDeviation="2.4" result="blur" />
      <feMerge>
        <feMergeNode in="blur" />
        <feMergeNode in="SourceGraphic" />
      </feMerge>
    </filter>
    <clipPath id="hull-clip">
      <path d="M 242.62,311.50 C 241.60,311.51 240.41,311.55 239.38,311.50 C 238.34,311.45 237.36,311.34 236.44,311.19 C 235.51,311.03 234.64,310.82 233.81,310.56 C 232.99,310.30 232.22,309.99 231.50,309.62 C 230.78,309.26 230.11,308.84 229.50,308.38 C 228.89,307.91 228.32,307.39 227.81,306.81 C 227.30,306.24 226.84,305.61 226.44,304.94 C 226.03,304.26 225.68,303.53 225.38,302.75 C 225.07,301.97 224.88,301.02 224.62,300.25 C 224.37,299.48 224.12,298.77 223.86,298.12 C 223.60,297.48 223.34,296.90 223.08,296.38 C 222.82,295.85 222.55,295.40 222.28,295.00 C 222.01,294.60 221.74,294.27 221.47,294.00 C 221.20,293.73 220.92,293.52 220.64,293.38 C 220.36,293.23 220.08,293.15 219.80,293.12 C 219.51,293.10 219.23,293.15 218.94,293.25 C 218.65,293.35 218.37,293.60 218.06,293.75 C 217.75,293.90 217.42,294.04 217.08,294.17 C 216.73,294.30 216.37,294.41 215.98,294.52 C 215.60,294.62 215.20,294.71 214.78,294.78 C 214.36,294.86 213.92,294.92 213.47,294.97 C 213.01,295.02 212.54,295.05 212.05,295.08 C 211.55,295.10 211.04,295.11 210.52,295.11 C 209.99,295.11 209.44,295.09 208.88,295.06 C 208.31,295.03 207.67,294.98 207.12,294.94 C 206.58,294.89 206.09,294.84 205.63,294.79 C 205.18,294.74 204.77,294.68 204.40,294.62 C 204.03,294.56 203.70,294.49 203.42,294.42 C 203.14,294.35 202.90,294.28 202.70,294.20 C 202.51,294.13 202.35,294.05 202.24,293.96 C 202.13,293.88 202.06,293.79 202.04,293.70 C 202.01,293.60 202.03,293.51 202.09,293.41 C 202.15,293.31 202.31,293.24 202.41,293.09 C 202.50,292.95 202.60,292.76 202.68,292.52 C 202.76,292.29 202.84,292.01 202.91,291.70 C 202.99,291.38 203.05,291.01 203.11,290.61 C 203.17,290.20 203.22,289.76 203.27,289.27 C 203.31,288.77 203.35,288.24 203.38,287.66 C 203.42,287.09 203.44,286.47 203.46,285.80 C 203.48,285.14 203.49,284.44 203.50,283.69 C 203.51,282.94 203.51,282.07 203.50,281.31 C 203.49,280.56 203.47,279.84 203.45,279.16 C 203.42,278.49 203.38,277.85 203.34,277.24 C 203.29,276.64 203.24,276.07 203.17,275.55 C 203.11,275.02 203.04,274.53 202.95,274.08 C 202.87,273.63 202.78,273.21 202.68,272.84 C 202.58,272.46 202.47,272.12 202.35,271.82 C 202.23,271.52 202.11,271.26 201.97,271.03 C 201.83,270.81 201.68,270.64 201.53,270.47 C 201.38,270.29 201.23,270.13 201.08,269.98 C 200.92,269.84 200.77,269.70 200.61,269.58 C 200.45,269.46 200.29,269.35 200.12,269.25 C 199.96,269.15 199.79,269.07 199.62,269.00 C 199.46,268.93 199.28,268.87 199.11,268.83 C 198.93,268.78 198.76,268.75 198.58,268.73 C 198.40,268.72 198.22,268.71 198.03,268.72 C 197.85,268.73 197.64,268.75 197.47,268.78 C 197.30,268.81 197.14,268.85 196.99,268.90 C 196.85,268.95 196.72,269.00 196.60,269.07 C 196.49,269.14 196.38,269.21 196.30,269.30 C 196.21,269.38 196.14,269.48 196.08,269.58 C 196.02,269.68 195.98,269.79 195.95,269.91 C 195.92,270.04 195.90,270.17 195.90,270.30 C 195.90,270.44 195.91,270.59 195.94,270.75 C 195.96,270.91 196.03,271.08 196.06,271.25 C 196.10,271.42 196.13,271.59 196.15,271.76 C 196.17,271.93 196.19,272.10 196.20,272.27 C 196.20,272.45 196.21,272.62 196.20,272.80 C 196.20,272.97 196.19,273.15 196.17,273.33 C 196.15,273.51 196.13,273.69 196.10,273.87 C 196.07,274.05 196.04,274.23 195.99,274.41 C 195.95,274.60 195.90,274.78 195.84,274.97 C 195.79,275.15 195.78,275.36 195.66,275.53 C 195.53,275.71 195.34,275.87 195.09,276.02 C 194.83,276.18 194.51,276.32 194.13,276.45 C 193.75,276.57 193.31,276.69 192.80,276.80 C 192.29,276.90 191.71,277.00 191.08,277.08 C 190.44,277.16 189.74,277.23 188.98,277.29 C 188.21,277.35 187.38,277.39 186.49,277.43 C 185.60,277.46 184.64,277.49 183.62,277.50 C 182.61,277.51 181.39,277.51 180.38,277.50 C 179.36,277.49 178.40,277.48 177.52,277.47 C 176.63,277.45 175.80,277.43 175.05,277.41 C 174.29,277.38 173.60,277.35 172.97,277.31 C 172.34,277.28 171.78,277.23 171.28,277.19 C 170.78,277.14 170.35,277.09 169.98,277.03 C 169.62,276.97 169.32,276.91 169.08,276.84 C 168.84,276.78 168.67,276.70 168.56,276.62 C 168.46,276.55 168.49,276.45 168.44,276.38 C 168.39,276.30 168.33,276.22 168.27,276.16 C 168.20,276.09 168.13,276.03 168.05,275.97 C 167.97,275.91 167.88,275.86 167.78,275.81 C 167.68,275.77 167.58,275.72 167.47,275.69 C 167.36,275.65 167.24,275.62 167.11,275.59 C 166.98,275.57 166.85,275.55 166.70,275.53 C 166.56,275.52 166.41,275.51 166.25,275.50 C 166.09,275.49 165.92,275.51 165.75,275.50 C 165.58,275.49 165.42,275.48 165.25,275.45 C 165.08,275.43 164.92,275.40 164.75,275.36 C 164.58,275.32 164.42,275.27 164.25,275.22 C 164.08,275.16 163.92,275.10 163.75,275.03 C 163.58,274.96 163.42,274.88 163.25,274.80 C 163.08,274.71 162.92,274.62 162.75,274.52 C 162.58,274.41 162.42,274.30 162.25,274.19 C 162.08,274.07 161.97,273.93 161.75,273.81 C 161.53,273.69 161.25,273.57 160.92,273.45 C 160.59,273.34 160.21,273.22 159.77,273.11 C 159.33,273.00 158.83,272.89 158.28,272.78 C 157.73,272.67 157.13,272.57 156.47,272.47 C 155.81,272.37 155.10,272.27 154.33,272.17 C 153.56,272.08 152.74,271.98 151.86,271.89 C 150.98,271.80 150.05,271.71 149.06,271.62 C 148.08,271.54 146.93,271.47 145.94,271.38 C 144.94,271.28 143.99,271.18 143.08,271.06 C 142.17,270.95 141.30,270.82 140.48,270.69 C 139.66,270.55 138.89,270.41 138.16,270.25 C 137.42,270.09 136.74,269.93 136.09,269.75 C 135.45,269.57 134.85,269.39 134.30,269.19 C 133.74,268.99 133.23,268.78 132.77,268.56 C 132.30,268.34 131.88,268.11 131.50,267.88 C 131.12,267.64 130.84,267.36 130.50,267.12 C 130.16,266.89 129.82,266.67 129.47,266.47 C 129.12,266.27 128.77,266.08 128.41,265.91 C 128.05,265.73 127.68,265.58 127.31,265.44 C 126.94,265.30 126.57,265.17 126.19,265.06 C 125.81,264.95 125.42,264.86 125.03,264.78 C 124.64,264.70 124.24,264.64 123.84,264.59 C 123.44,264.55 123.04,264.52 122.62,264.50 C 122.21,264.48 121.76,264.51 121.38,264.50 C 120.99,264.49 120.63,264.48 120.30,264.47 C 119.97,264.45 119.66,264.43 119.39,264.41 C 119.12,264.38 118.87,264.35 118.66,264.31 C 118.44,264.28 118.25,264.23 118.09,264.19 C 117.93,264.14 117.80,264.09 117.70,264.03 C 117.60,263.97 117.53,263.91 117.48,263.84 C 117.44,263.78 117.42,263.70 117.44,263.62 C 117.45,263.55 117.51,263.45 117.56,263.38 C 117.62,263.30 117.69,263.22 117.77,263.15 C 117.86,263.08 117.96,263.01 118.07,262.95 C 118.18,262.88 118.31,262.82 118.45,262.77 C 118.60,262.71 118.75,262.66 118.92,262.61 C 119.09,262.56 119.28,262.52 119.48,262.48 C 119.68,262.44 119.89,262.40 120.12,262.37 C 120.35,262.33 120.59,262.31 120.84,262.28 C 121.10,262.26 121.43,262.26 121.66,262.22 C 121.88,262.17 122.05,262.10 122.18,262.01 C 122.31,261.91 122.38,261.79 122.41,261.65 C 122.44,261.50 122.43,261.33 122.36,261.14 C 122.29,260.95 122.18,260.73 122.02,260.48 C 121.85,260.24 121.64,259.97 121.38,259.68 C 121.12,259.39 120.82,259.07 120.46,258.73 C 120.11,258.38 119.70,258.02 119.25,257.62 C 118.80,257.23 118.19,256.79 117.75,256.38 C 117.31,255.96 116.94,255.54 116.62,255.12 C 116.31,254.71 116.06,254.29 115.88,253.88 C 115.69,253.46 115.56,253.04 115.50,252.62 C 115.44,252.21 115.44,251.79 115.50,251.38 C 115.56,250.96 115.69,250.54 115.88,250.12 C 116.06,249.71 116.31,249.29 116.62,248.88 C 116.94,248.46 117.31,248.04 117.75,247.62 C 118.19,247.21 118.80,246.77 119.25,246.38 C 119.70,245.98 120.11,245.62 120.46,245.27 C 120.82,244.93 121.12,244.61 121.38,244.32 C 121.64,244.03 121.85,243.76 122.02,243.52 C 122.18,243.27 122.29,243.05 122.36,242.86 C 122.43,242.67 122.44,242.50 122.41,242.35 C 122.38,242.21 122.31,242.09 122.18,241.99 C 122.05,241.90 121.88,241.83 121.66,241.78 C 121.43,241.74 121.10,241.74 120.84,241.72 C 120.59,241.69 120.35,241.67 120.12,241.63 C 119.89,241.60 119.68,241.56 119.48,241.52 C 119.28,241.48 119.09,241.44 118.92,241.39 C 118.75,241.34 118.60,241.29 118.45,241.23 C 118.31,241.18 118.18,241.12 118.07,241.05 C 117.96,240.99 117.86,240.92 117.77,240.85 C 117.69,240.78 117.62,240.70 117.56,240.62 C 117.51,240.55 117.45,240.45 117.44,240.38 C 117.42,240.30 117.44,240.22 117.48,240.16 C 117.53,240.09 117.60,240.03 117.70,239.97 C 117.80,239.91 117.93,239.86 118.09,239.81 C 118.25,239.77 118.44,239.72 118.66,239.69 C 118.87,239.65 119.12,239.62 119.39,239.59 C 119.66,239.57 119.97,239.55 120.30,239.53 C 120.63,239.52 120.99,239.51 121.38,239.50 C 121.76,239.49 122.22,239.52 122.62,239.50 C 123.03,239.48 123.43,239.45 123.83,239.41 C 124.22,239.36 124.61,239.30 124.98,239.22 C 125.36,239.14 125.73,239.05 126.09,238.94 C 126.46,238.83 126.81,238.70 127.16,238.56 C 127.50,238.42 127.84,238.27 128.17,238.09 C 128.50,237.92 128.83,237.73 129.14,237.53 C 129.46,237.33 129.76,237.11 130.06,236.88 C 130.36,236.64 130.60,236.36 130.94,236.12 C 131.28,235.89 131.66,235.66 132.09,235.44 C 132.53,235.22 133.01,235.01 133.53,234.81 C 134.06,234.61 134.63,234.43 135.25,234.25 C 135.87,234.07 136.54,233.91 137.25,233.75 C 137.96,233.59 138.72,233.45 139.53,233.31 C 140.34,233.18 141.19,233.05 142.09,232.94 C 142.99,232.82 143.94,232.72 144.94,232.62 C 145.93,232.53 147.07,232.46 148.06,232.38 C 149.05,232.29 149.99,232.20 150.88,232.11 C 151.76,232.02 152.59,231.92 153.38,231.83 C 154.16,231.73 154.89,231.63 155.56,231.53 C 156.24,231.43 156.86,231.33 157.44,231.22 C 158.01,231.11 158.53,231.00 159.00,230.89 C 159.47,230.78 159.89,230.66 160.25,230.55 C 160.61,230.43 160.93,230.31 161.19,230.19 C 161.45,230.07 161.61,229.93 161.81,229.81 C 162.02,229.70 162.22,229.59 162.42,229.48 C 162.62,229.38 162.82,229.29 163.02,229.20 C 163.21,229.12 163.40,229.04 163.59,228.97 C 163.78,228.90 163.97,228.84 164.16,228.78 C 164.34,228.73 164.52,228.68 164.70,228.64 C 164.88,228.60 165.06,228.57 165.23,228.55 C 165.41,228.52 165.58,228.51 165.75,228.50 C 165.92,228.49 166.09,228.51 166.25,228.50 C 166.41,228.49 166.56,228.48 166.70,228.47 C 166.85,228.45 166.98,228.43 167.11,228.41 C 167.24,228.38 167.36,228.35 167.47,228.31 C 167.58,228.28 167.68,228.23 167.78,228.19 C 167.88,228.14 167.97,228.09 168.05,228.03 C 168.13,227.97 168.20,227.91 168.27,227.84 C 168.33,227.78 168.39,227.70 168.44,227.62 C 168.49,227.55 168.51,227.45 168.56,227.38 C 168.61,227.30 168.67,227.22 168.73,227.16 C 168.80,227.09 168.87,227.03 168.95,226.97 C 169.03,226.91 169.12,226.86 169.22,226.81 C 169.32,226.77 169.42,226.72 169.53,226.69 C 169.64,226.65 169.76,226.62 169.89,226.59 C 170.02,226.57 170.15,226.55 170.30,226.53 C 170.44,226.52 170.59,226.51 170.75,226.50 C 170.91,226.49 171.09,226.51 171.25,226.50 C 171.41,226.49 171.56,226.48 171.70,226.47 C 171.85,226.45 171.98,226.43 172.11,226.41 C 172.24,226.38 172.36,226.35 172.47,226.31 C 172.58,226.28 172.68,226.23 172.78,226.19 C 172.88,226.14 172.97,226.09 173.05,226.03 C 173.13,225.97 173.20,225.91 173.27,225.84 C 173.33,225.78 173.39,225.70 173.44,225.62 C 173.49,225.55 173.47,225.45 173.56,225.38 C 173.66,225.30 173.80,225.24 174.00,225.19 C 174.20,225.14 174.45,225.09 174.75,225.06 C 175.05,225.03 175.41,225.01 175.81,225.00 C 176.22,224.99 176.68,224.99 177.19,225.00 C 177.70,225.01 178.26,225.03 178.88,225.06 C 179.49,225.09 180.16,225.14 180.88,225.19 C 181.59,225.24 182.36,225.30 183.19,225.38 C 184.01,225.45 184.99,225.54 185.81,225.62 C 186.64,225.71 187.41,225.80 188.13,225.90 C 188.86,225.99 189.53,226.09 190.15,226.20 C 190.77,226.30 191.34,226.40 191.86,226.52 C 192.38,226.63 192.85,226.74 193.27,226.86 C 193.68,226.98 194.05,227.10 194.37,227.23 C 194.68,227.35 194.95,227.48 195.16,227.62 C 195.38,227.75 195.54,227.89 195.66,228.03 C 195.77,228.17 195.79,228.32 195.84,228.47 C 195.90,228.62 195.95,228.77 195.99,228.93 C 196.04,229.09 196.07,229.25 196.10,229.41 C 196.13,229.58 196.15,229.75 196.17,229.92 C 196.19,230.10 196.20,230.27 196.20,230.45 C 196.21,230.63 196.20,230.82 196.20,231.01 C 196.19,231.20 196.17,231.39 196.15,231.59 C 196.13,231.78 196.10,231.98 196.06,232.19 C 196.03,232.39 195.96,232.62 195.94,232.81 C 195.91,233.01 195.90,233.19 195.90,233.37 C 195.90,233.54 195.92,233.70 195.95,233.85 C 195.98,234.00 196.02,234.14 196.08,234.27 C 196.14,234.39 196.21,234.51 196.30,234.61 C 196.38,234.71 196.49,234.80 196.60,234.88 C 196.72,234.96 196.85,235.03 196.99,235.09 C 197.14,235.14 197.30,235.19 197.47,235.22 C 197.64,235.25 197.86,235.27 198.03,235.28 C 198.21,235.29 198.37,235.30 198.52,235.30 C 198.66,235.29 198.80,235.28 198.92,235.27 C 199.04,235.25 199.15,235.22 199.25,235.19 C 199.35,235.15 199.43,235.11 199.50,235.06 C 199.57,235.01 199.63,234.96 199.67,234.89 C 199.72,234.83 199.75,234.75 199.77,234.67 C 199.78,234.59 199.79,234.50 199.78,234.41 C 199.77,234.31 199.73,234.20 199.72,234.09 C 199.71,233.99 199.71,233.89 199.73,233.79 C 199.74,233.69 199.77,233.59 199.80,233.49 C 199.84,233.39 199.89,233.30 199.95,233.20 C 200.01,233.11 200.09,233.01 200.17,232.92 C 200.26,232.83 200.35,232.74 200.46,232.65 C 200.57,232.56 200.69,232.47 200.82,232.38 C 200.95,232.30 201.10,232.21 201.25,232.12 C 201.40,232.04 201.59,232.00 201.75,231.88 C 201.91,231.75 202.05,231.58 202.19,231.36 C 202.32,231.14 202.45,230.88 202.56,230.58 C 202.68,230.27 202.78,229.92 202.88,229.53 C 202.97,229.14 203.05,228.70 203.12,228.22 C 203.20,227.74 203.26,227.21 203.31,226.64 C 203.36,226.07 203.41,225.46 203.44,224.80 C 203.47,224.14 203.49,223.43 203.50,222.69 C 203.51,221.94 203.51,221.06 203.50,220.31 C 203.49,219.56 203.48,218.85 203.45,218.19 C 203.43,217.52 203.40,216.90 203.36,216.31 C 203.32,215.73 203.27,215.19 203.22,214.69 C 203.16,214.19 203.10,213.73 203.03,213.31 C 202.96,212.90 202.88,212.52 202.80,212.19 C 202.71,211.85 202.62,211.56 202.52,211.31 C 202.41,211.06 202.30,210.85 202.19,210.69 C 202.07,210.52 201.89,210.43 201.81,210.31 C 201.73,210.19 201.70,210.08 201.71,209.98 C 201.72,209.87 201.78,209.77 201.88,209.68 C 201.99,209.59 202.13,209.50 202.33,209.42 C 202.52,209.34 202.76,209.27 203.05,209.20 C 203.33,209.14 203.66,209.08 204.04,209.02 C 204.42,208.97 204.84,208.92 205.30,208.88 C 205.77,208.84 206.29,208.81 206.84,208.78 C 207.40,208.75 208.07,208.73 208.66,208.72 C 209.24,208.71 209.81,208.71 210.35,208.73 C 210.90,208.74 211.42,208.77 211.93,208.80 C 212.44,208.84 212.92,208.89 213.39,208.95 C 213.86,209.01 214.31,209.09 214.73,209.17 C 215.16,209.26 215.57,209.35 215.96,209.46 C 216.35,209.57 216.72,209.69 217.07,209.82 C 217.42,209.95 217.75,210.10 218.06,210.25 C 218.37,210.40 218.65,210.65 218.94,210.75 C 219.23,210.85 219.51,210.90 219.80,210.88 C 220.08,210.85 220.36,210.77 220.64,210.62 C 220.92,210.48 221.20,210.27 221.47,210.00 C 221.74,209.73 222.01,209.40 222.28,209.00 C 222.55,208.60 222.82,208.15 223.08,207.62 C 223.34,207.10 223.60,206.52 223.86,205.88 C 224.12,205.23 224.37,204.52 224.62,203.75 C 224.88,202.98 225.07,202.03 225.38,201.25 C 225.68,200.47 226.03,199.74 226.44,199.06 C 226.84,198.39 227.30,197.76 227.81,197.19 C 228.32,196.61 228.89,196.09 229.50,195.62 C 230.11,195.16 230.78,194.74 231.50,194.38 C 232.22,194.01 232.99,193.70 233.81,193.44 C 234.64,193.18 235.51,192.97 236.44,192.81 C 237.36,192.66 238.34,192.55 239.38,192.50 C 240.41,192.45 241.60,192.49 242.62,192.50 C 243.65,192.51 244.61,192.52 245.52,192.55 C 246.42,192.57 247.26,192.60 248.05,192.64 C 248.83,192.68 249.55,192.73 250.22,192.78 C 250.88,192.84 251.49,192.90 252.03,192.97 C 252.58,193.04 253.06,193.12 253.48,193.20 C 253.91,193.29 254.27,193.38 254.58,193.48 C 254.88,193.59 255.13,193.70 255.31,193.81 C 255.50,193.93 255.55,194.07 255.69,194.19 C 255.82,194.31 255.96,194.42 256.11,194.53 C 256.26,194.64 256.41,194.74 256.58,194.84 C 256.74,194.94 256.91,195.04 257.09,195.12 C 257.27,195.21 257.46,195.30 257.66,195.38 C 257.85,195.45 258.05,195.53 258.27,195.59 C 258.48,195.66 258.70,195.72 258.92,195.78 C 259.15,195.84 259.38,195.89 259.62,195.94 C 259.87,195.98 260.05,196.02 260.38,196.06 C 260.70,196.11 261.10,196.16 261.58,196.22 C 262.05,196.28 262.61,196.34 263.23,196.41 C 263.86,196.47 264.57,196.55 265.34,196.62 C 266.12,196.70 266.98,196.79 267.91,196.88 C 268.84,196.96 269.84,197.06 270.92,197.16 C 272.00,197.26 273.16,197.36 274.39,197.47 C 275.62,197.58 276.93,197.69 278.31,197.81 C 279.70,197.93 281.30,198.07 282.69,198.19 C 284.08,198.30 285.39,198.41 286.64,198.52 C 287.89,198.62 289.07,198.71 290.17,198.80 C 291.28,198.88 292.32,198.96 293.28,199.03 C 294.25,199.10 295.14,199.16 295.97,199.22 C 296.79,199.27 297.55,199.32 298.23,199.36 C 298.92,199.40 299.53,199.43 300.08,199.45 C 300.62,199.48 301.10,199.49 301.50,199.50 C 301.90,199.51 302.18,199.51 302.50,199.50 C 302.82,199.49 303.12,199.48 303.41,199.47 C 303.69,199.45 303.96,199.43 304.22,199.41 C 304.47,199.38 304.71,199.35 304.94,199.31 C 305.16,199.28 305.37,199.23 305.56,199.19 C 305.76,199.14 305.93,199.09 306.09,199.03 C 306.26,198.97 306.40,198.91 306.53,198.84 C 306.66,198.78 306.78,198.70 306.88,198.62 C 306.97,198.55 306.98,198.45 307.12,198.38 C 307.27,198.30 307.47,198.24 307.73,198.19 C 308.00,198.14 308.32,198.09 308.70,198.06 C 309.09,198.03 309.53,198.01 310.03,198.00 C 310.53,197.99 311.10,197.99 311.72,198.00 C 312.34,198.01 313.02,198.03 313.77,198.06 C 314.51,198.09 315.31,198.14 316.17,198.19 C 317.03,198.24 317.96,198.30 318.94,198.38 C 319.92,198.45 321.07,198.54 322.06,198.62 C 323.05,198.71 323.99,198.80 324.87,198.90 C 325.75,198.99 326.58,199.09 327.35,199.20 C 328.13,199.30 328.85,199.40 329.52,199.52 C 330.18,199.63 330.80,199.74 331.36,199.86 C 331.92,199.98 332.43,200.10 332.88,200.23 C 333.34,200.35 333.74,200.48 334.09,200.62 C 334.43,200.75 334.73,200.89 334.97,201.03 C 335.21,201.17 335.33,201.27 335.53,201.47 C 335.74,201.67 335.96,201.93 336.20,202.25 C 336.45,202.57 336.71,202.94 336.98,203.38 C 337.26,203.81 337.56,204.30 337.88,204.84 C 338.19,205.39 338.52,205.99 338.88,206.66 C 339.23,207.32 339.60,208.04 339.98,208.81 C 340.37,209.59 340.78,210.42 341.20,211.31 C 341.63,212.20 342.07,213.15 342.53,214.16 C 342.99,215.16 343.47,216.35 343.97,217.34 C 344.47,218.34 344.99,219.26 345.54,220.12 C 346.08,220.97 346.65,221.76 347.24,222.48 C 347.83,223.19 348.44,223.84 349.08,224.42 C 349.71,225.00 350.37,225.51 351.05,225.95 C 351.73,226.39 352.43,226.77 353.15,227.07 C 353.87,227.37 354.62,227.61 355.38,227.77 C 356.15,227.94 356.94,228.04 357.75,228.06 C 358.56,228.09 359.46,227.97 360.25,227.94 C 361.04,227.91 361.78,227.89 362.48,227.88 C 363.18,227.86 363.84,227.86 364.45,227.88 C 365.07,227.89 365.63,227.91 366.16,227.94 C 366.68,227.97 367.16,228.01 367.59,228.06 C 368.03,228.11 368.42,228.18 368.77,228.25 C 369.11,228.32 369.41,228.41 369.67,228.50 C 369.93,228.59 370.14,228.70 370.31,228.81 C 370.48,228.93 370.55,229.07 370.69,229.19 C 370.83,229.31 370.98,229.43 371.15,229.54 C 371.32,229.65 371.50,229.76 371.70,229.87 C 371.89,229.97 372.10,230.07 372.33,230.17 C 372.55,230.27 372.79,230.36 373.05,230.45 C 373.30,230.54 373.57,230.63 373.85,230.71 C 374.13,230.79 374.43,230.87 374.74,230.95 C 375.05,231.02 375.38,231.09 375.72,231.16 C 376.06,231.22 376.45,231.28 376.78,231.34 C 377.11,231.41 377.42,231.47 377.70,231.53 C 377.99,231.59 378.25,231.66 378.48,231.72 C 378.72,231.78 378.93,231.84 379.12,231.91 C 379.32,231.97 379.48,232.03 379.62,232.09 C 379.77,232.16 379.89,232.22 379.98,232.28 C 380.08,232.34 380.15,232.41 380.20,232.47 C 380.25,232.53 380.28,232.59 380.28,232.66 C 380.28,232.72 380.28,232.78 380.22,232.84 C 380.16,232.91 380.07,232.98 379.94,233.05 C 379.81,233.12 379.64,233.19 379.44,233.27 C 379.23,233.34 378.99,233.42 378.72,233.50 C 378.44,233.58 378.13,233.66 377.78,233.75 C 377.43,233.84 377.05,233.92 376.62,234.02 C 376.20,234.11 375.74,234.20 375.25,234.30 C 374.76,234.39 374.22,234.49 373.66,234.59 C 373.09,234.70 372.39,234.78 371.84,234.91 C 371.30,235.04 370.82,235.19 370.39,235.38 C 369.97,235.56 369.60,235.77 369.30,236.00 C 368.99,236.23 368.75,236.49 368.56,236.78 C 368.38,237.07 368.25,237.38 368.19,237.72 C 368.12,238.06 368.12,238.42 368.17,238.81 C 368.23,239.20 368.34,239.62 368.52,240.06 C 368.69,240.51 368.92,240.97 369.22,241.47 C 369.51,241.96 369.92,242.54 370.28,243.03 C 370.64,243.53 371.00,243.99 371.36,244.44 C 371.72,244.88 372.09,245.30 372.45,245.69 C 372.82,246.08 373.19,246.44 373.56,246.78 C 373.93,247.12 374.31,247.43 374.69,247.72 C 375.07,248.01 375.45,248.27 375.83,248.50 C 376.21,248.73 376.60,248.94 376.98,249.12 C 377.37,249.31 377.76,249.46 378.16,249.59 C 378.55,249.72 378.98,249.80 379.34,249.91 C 379.71,250.01 380.05,250.12 380.36,250.23 C 380.67,250.35 380.95,250.46 381.20,250.58 C 381.46,250.70 381.68,250.82 381.88,250.94 C 382.07,251.06 382.24,251.18 382.38,251.31 C 382.51,251.44 382.62,251.57 382.70,251.70 C 382.78,251.84 382.84,251.97 382.86,252.11 C 382.88,252.25 382.88,252.39 382.84,252.53 C 382.81,252.67 382.73,252.83 382.66,252.97 C 382.58,253.11 382.49,253.23 382.38,253.35 C 382.28,253.47 382.16,253.58 382.02,253.68 C 381.89,253.78 381.74,253.87 381.58,253.95 C 381.42,254.04 381.24,254.11 381.05,254.17 C 380.86,254.24 380.65,254.29 380.43,254.34 C 380.21,254.38 379.98,254.42 379.73,254.45 C 379.48,254.47 379.21,254.49 378.94,254.50 C 378.66,254.51 378.36,254.46 378.06,254.50 C 377.76,254.54 377.46,254.61 377.15,254.71 C 376.84,254.82 376.52,254.96 376.20,255.13 C 375.87,255.31 375.54,255.52 375.20,255.77 C 374.87,256.01 374.52,256.29 374.17,256.61 C 373.82,256.93 373.46,257.28 373.10,257.66 C 372.74,258.05 372.37,258.47 371.99,258.93 C 371.62,259.39 371.23,259.88 370.84,260.41 C 370.45,260.93 369.99,261.56 369.66,262.09 C 369.32,262.63 369.05,263.13 368.84,263.61 C 368.64,264.09 368.49,264.53 368.41,264.95 C 368.32,265.37 368.30,265.76 368.34,266.12 C 368.39,266.49 368.49,266.82 368.66,267.12 C 368.82,267.43 369.05,267.71 369.34,267.95 C 369.64,268.20 369.99,268.42 370.41,268.61 C 370.82,268.80 371.30,268.96 371.84,269.09 C 372.39,269.23 373.09,269.30 373.66,269.41 C 374.22,269.51 374.76,269.61 375.25,269.70 C 375.74,269.80 376.20,269.89 376.62,269.98 C 377.05,270.08 377.43,270.16 377.78,270.25 C 378.13,270.34 378.44,270.42 378.72,270.50 C 378.99,270.58 379.23,270.66 379.44,270.73 C 379.64,270.81 379.81,270.88 379.94,270.95 C 380.07,271.02 380.16,271.09 380.22,271.16 C 380.28,271.22 380.28,271.28 380.28,271.34 C 380.28,271.41 380.25,271.47 380.20,271.53 C 380.15,271.59 380.08,271.66 379.98,271.72 C 379.89,271.78 379.77,271.84 379.62,271.91 C 379.48,271.97 379.32,272.03 379.12,272.09 C 378.93,272.16 378.72,272.22 378.48,272.28 C 378.25,272.34 377.99,272.41 377.70,272.47 C 377.42,272.53 377.11,272.59 376.78,272.66 C 376.45,272.72 376.06,272.78 375.72,272.84 C 375.38,272.91 375.06,272.97 374.76,273.04 C 374.45,273.11 374.17,273.17 373.90,273.24 C 373.63,273.31 373.38,273.38 373.14,273.45 C 372.90,273.52 372.69,273.60 372.48,273.67 C 372.28,273.75 372.10,273.82 371.93,273.90 C 371.76,273.98 371.61,274.05 371.48,274.13 C 371.34,274.21 371.23,274.29 371.12,274.38 C 371.02,274.46 371.01,274.55 370.88,274.62 C 370.74,274.70 370.56,274.78 370.33,274.84 C 370.10,274.91 369.82,274.97 369.48,275.03 C 369.15,275.09 368.77,275.14 368.34,275.19 C 367.91,275.23 367.43,275.28 366.91,275.31 C 366.38,275.35 365.80,275.38 365.17,275.41 C 364.54,275.43 363.87,275.45 363.14,275.47 C 362.41,275.48 361.64,275.49 360.81,275.50 C 359.99,275.51 359.04,275.43 358.19,275.50 C 357.33,275.57 356.49,275.72 355.67,275.94 C 354.85,276.16 354.05,276.45 353.27,276.81 C 352.48,277.18 351.72,277.61 350.97,278.12 C 350.22,278.64 349.49,279.22 348.78,279.88 C 348.07,280.53 347.38,281.26 346.70,282.06 C 346.03,282.86 345.37,283.74 344.73,284.69 C 344.10,285.64 343.48,286.66 342.88,287.75 C 342.27,288.84 341.73,290.15 341.12,291.25 C 340.52,292.35 339.90,293.39 339.25,294.36 C 338.60,295.33 337.94,296.24 337.25,297.08 C 336.56,297.92 335.85,298.70 335.12,299.41 C 334.40,300.12 333.65,300.76 332.88,301.34 C 332.10,301.92 331.31,302.44 330.50,302.89 C 329.69,303.34 328.85,303.73 328.00,304.05 C 327.15,304.37 326.27,304.62 325.38,304.81 C 324.48,305.00 323.50,305.07 322.62,305.19 C 321.75,305.30 320.92,305.41 320.14,305.52 C 319.36,305.62 318.62,305.71 317.92,305.80 C 317.23,305.88 316.58,305.96 315.97,306.03 C 315.36,306.10 314.80,306.16 314.28,306.22 C 313.76,306.27 313.29,306.32 312.86,306.36 C 312.43,306.40 312.04,306.43 311.70,306.45 C 311.36,306.48 311.07,306.49 310.81,306.50 C 310.56,306.51 310.39,306.51 310.19,306.50 C 309.99,306.49 309.79,306.48 309.61,306.47 C 309.42,306.45 309.25,306.43 309.08,306.41 C 308.91,306.38 308.75,306.35 308.59,306.31 C 308.44,306.28 308.29,306.23 308.16,306.19 C 308.02,306.14 307.89,306.09 307.77,306.03 C 307.64,305.97 307.53,305.91 307.42,305.84 C 307.32,305.78 307.22,305.70 307.12,305.62 C 307.03,305.55 307.04,305.45 306.88,305.38 C 306.71,305.30 306.46,305.24 306.12,305.19 C 305.79,305.14 305.38,305.09 304.88,305.06 C 304.38,305.03 303.79,305.01 303.12,305.00 C 302.46,304.99 301.71,304.99 300.88,305.00 C 300.04,305.01 299.12,305.03 298.12,305.06 C 297.12,305.09 296.04,305.14 294.88,305.19 C 293.71,305.24 292.46,305.30 291.12,305.38 C 289.79,305.45 288.24,305.54 286.88,305.62 C 285.51,305.71 284.19,305.79 282.92,305.88 C 281.65,305.96 280.43,306.04 279.27,306.12 C 278.10,306.21 276.98,306.29 275.91,306.38 C 274.84,306.46 273.82,306.54 272.84,306.62 C 271.87,306.71 270.95,306.79 270.08,306.88 C 269.21,306.96 268.38,307.04 267.61,307.12 C 266.84,307.21 266.11,307.29 265.44,307.38 C 264.76,307.46 264.16,307.54 263.56,307.62 C 262.97,307.71 262.41,307.80 261.88,307.89 C 261.34,307.98 260.84,308.08 260.38,308.17 C 259.91,308.27 259.47,308.37 259.06,308.47 C 258.66,308.57 258.28,308.67 257.94,308.78 C 257.59,308.89 257.28,309.00 257.00,309.11 C 256.72,309.22 256.47,309.34 256.25,309.45 C 256.03,309.57 255.84,309.69 255.69,309.81 C 255.53,309.93 255.50,310.07 255.31,310.19 C 255.13,310.30 254.88,310.41 254.58,310.52 C 254.27,310.62 253.91,310.71 253.48,310.80 C 253.06,310.88 252.58,310.96 252.03,311.03 C 251.49,311.10 250.88,311.16 250.22,311.22 C 249.55,311.27 248.83,311.32 248.05,311.36 C 247.26,311.40 246.42,311.43 245.52,311.45 C 244.61,311.48 243.65,311.49 242.62,311.50 Z" />
    </clipPath>
  </defs>
  <path d="M 242.62,311.50 C 241.60,311.51 240.41,311.55 239.38,311.50 C 238.34,311.45 237.36,311.34 236.44,311.19 C 235.51,311.03 234.64,310.82 233.81,310.56 C 232.99,310.30 232.22,309.99 231.50,309.62 C 230.78,309.26 230.11,308.84 229.50,308.38 C 228.89,307.91 228.32,307.39 227.81,306.81 C 227.30,306.24 226.84,305.61 226.44,304.94 C 226.03,304.26 225.68,303.53 225.38,302.75 C 225.07,301.97 224.88,301.02 224.62,300.25 C 224.37,299.48 224.12,298.77 223.86,298.12 C 223.60,297.48 223.34,296.90 223.08,296.38 C 222.82,295.85 222.55,295.40 222.28,295.00 C 222.01,294.60 221.74,294.27 221.47,294.00 C 221.20,293.73 220.92,293.52 220.64,293.38 C 220.36,293.23 220.08,293.15 219.80,293.12 C 219.51,293.10 219.23,293.15 218.94,293.25 C 218.65,293.35 218.37,293.60 218.06,293.75 C 217.75,293.90 217.42,294.04 217.08,294.17 C 216.73,294.30 216.37,294.41 215.98,294.52 C 215.60,294.62 215.20,294.71 214.78,294.78 C 214.36,294.86 213.92,294.92 213.47,294.97 C 213.01,295.02 212.54,295.05 212.05,295.08 C 211.55,295.10 211.04,295.11 210.52,295.11 C 209.99,295.11 209.44,295.09 208.88,295.06 C 208.31,295.03 207.67,294.98 207.12,294.94 C 206.58,294.89 206.09,294.84 205.63,294.79 C 205.18,294.74 204.77,294.68 204.40,294.62 C 204.03,294.56 203.70,294.49 203.42,294.42 C 203.14,294.35 202.90,294.28 202.70,294.20 C 202.51,294.13 202.35,294.05 202.24,293.96 C 202.13,293.88 202.06,293.79 202.04,293.70 C 202.01,293.60 202.03,293.51 202.09,293.41 C 202.15,293.31 202.31,293.24 202.41,293.09 C 202.50,292.95 202.60,292.76 202.68,292.52 C 202.76,292.29 202.84,292.01 202.91,291.70 C 202.99,291.38 203.05,291.01 203.11,290.61 C 203.17,290.20 203.22,289.76 203.27,289.27 C 203.31,288.77 203.35,288.24 203.38,287.66 C 203.42,287.09 203.44,286.47 203.46,285.80 C 203.48,285.14 203.49,284.44 203.50,283.69 C 203.51,282.94 203.51,282.07 203.50,281.31 C 203.49,280.56 203.47,279.84 203.45,279.16 C 203.42,278.49 203.38,277.85 203.34,277.24 C 203.29,276.64 203.24,276.07 203.17,275.55 C 203.11,275.02 203.04,274.53 202.95,274.08 C 202.87,273.63 202.78,273.21 202.68,272.84 C 202.58,272.46 202.47,272.12 202.35,271.82 C 202.23,271.52 202.11,271.26 201.97,271.03 C 201.83,270.81 201.68,270.64 201.53,270.47 C 201.38,270.29 201.23,270.13 201.08,269.98 C 200.92,269.84 200.77,269.70 200.61,269.58 C 200.45,269.46 200.29,269.35 200.12,269.25 C 199.96,269.15 199.79,269.07 199.62,269.00 C 199.46,268.93 199.28,268.87 199.11,268.83 C 198.93,268.78 198.76,268.75 198.58,268.73 C 198.40,268.72 198.22,268.71 198.03,268.72 C 197.85,268.73 197.64,268.75 197.47,268.78 C 197.30,268.81 197.14,268.85 196.99,268.90 C 196.85,268.95 196.72,269.00 196.60,269.07 C 196.49,269.14 196.38,269.21 196.30,269.30 C 196.21,269.38 196.14,269.48 196.08,269.58 C 196.02,269.68 195.98,269.79 195.95,269.91 C 195.92,270.04 195.90,270.17 195.90,270.30 C 195.90,270.44 195.91,270.59 195.94,270.75 C 195.96,270.91 196.03,271.08 196.06,271.25 C 196.10,271.42 196.13,271.59 196.15,271.76 C 196.17,271.93 196.19,272.10 196.20,272.27 C 196.20,272.45 196.21,272.62 196.20,272.80 C 196.20,272.97 196.19,273.15 196.17,273.33 C 196.15,273.51 196.13,273.69 196.10,273.87 C 196.07,274.05 196.04,274.23 195.99,274.41 C 195.95,274.60 195.90,274.78 195.84,274.97 C 195.79,275.15 195.78,275.36 195.66,275.53 C 195.53,275.71 195.34,275.87 195.09,276.02 C 194.83,276.18 194.51,276.32 194.13,276.45 C 193.75,276.57 193.31,276.69 192.80,276.80 C 192.29,276.90 191.71,277.00 191.08,277.08 C 190.44,277.16 189.74,277.23 188.98,277.29 C 188.21,277.35 187.38,277.39 186.49,277.43 C 185.60,277.46 184.64,277.49 183.62,277.50 C 182.61,277.51 181.39,277.51 180.38,277.50 C 179.36,277.49 178.40,277.48 177.52,277.47 C 176.63,277.45 175.80,277.43 175.05,277.41 C 174.29,277.38 173.60,277.35 172.97,277.31 C 172.34,277.28 171.78,277.23 171.28,277.19 C 170.78,277.14 170.35,277.09 169.98,277.03 C 169.62,276.97 169.32,276.91 169.08,276.84 C 168.84,276.78 168.67,276.70 168.56,276.62 C 168.46,276.55 168.49,276.45 168.44,276.38 C 168.39,276.30 168.33,276.22 168.27,276.16 C 168.20,276.09 168.13,276.03 168.05,275.97 C 167.97,275.91 167.88,275.86 167.78,275.81 C 167.68,275.77 167.58,275.72 167.47,275.69 C 167.36,275.65 167.24,275.62 167.11,275.59 C 166.98,275.57 166.85,275.55 166.70,275.53 C 166.56,275.52 166.41,275.51 166.25,275.50 C 166.09,275.49 165.92,275.51 165.75,275.50 C 165.58,275.49 165.42,275.48 165.25,275.45 C 165.08,275.43 164.92,275.40 164.75,275.36 C 164.58,275.32 164.42,275.27 164.25,275.22 C 164.08,275.16 163.92,275.10 163.75,275.03 C 163.58,274.96 163.42,274.88 163.25,274.80 C 163.08,274.71 162.92,274.62 162.75,274.52 C 162.58,274.41 162.42,274.30 162.25,274.19 C 162.08,274.07 161.97,273.93 161.75,273.81 C 161.53,273.69 161.25,273.57 160.92,273.45 C 160.59,273.34 160.21,273.22 159.77,273.11 C 159.33,273.00 158.83,272.89 158.28,272.78 C 157.73,272.67 157.13,272.57 156.47,272.47 C 155.81,272.37 155.10,272.27 154.33,272.17 C 153.56,272.08 152.74,271.98 151.86,271.89 C 150.98,271.80 150.05,271.71 149.06,271.62 C 148.08,271.54 146.93,271.47 145.94,271.38 C 144.94,271.28 143.99,271.18 143.08,271.06 C 142.17,270.95 141.30,270.82 140.48,270.69 C 139.66,270.55 138.89,270.41 138.16,270.25 C 137.42,270.09 136.74,269.93 136.09,269.75 C 135.45,269.57 134.85,269.39 134.30,269.19 C 133.74,268.99 133.23,268.78 132.77,268.56 C 132.30,268.34 131.88,268.11 131.50,267.88 C 131.12,267.64 130.84,267.36 130.50,267.12 C 130.16,266.89 129.82,266.67 129.47,266.47 C 129.12,266.27 128.77,266.08 128.41,265.91 C 128.05,265.73 127.68,265.58 127.31,265.44 C 126.94,265.30 126.57,265.17 126.19,265.06 C 125.81,264.95 125.42,264.86 125.03,264.78 C 124.64,264.70 124.24,264.64 123.84,264.59 C 123.44,264.55 123.04,264.52 122.62,264.50 C 122.21,264.48 121.76,264.51 121.38,264.50 C 120.99,264.49 120.63,264.48 120.30,264.47 C 119.97,264.45 119.66,264.43 119.39,264.41 C 119.12,264.38 118.87,264.35 118.66,264.31 C 118.44,264.28 118.25,264.23 118.09,264.19 C 117.93,264.14 117.80,264.09 117.70,264.03 C 117.60,263.97 117.53,263.91 117.48,263.84 C 117.44,263.78 117.42,263.70 117.44,263.62 C 117.45,263.55 117.51,263.45 117.56,263.38 C 117.62,263.30 117.69,263.22 117.77,263.15 C 117.86,263.08 117.96,263.01 118.07,262.95 C 118.18,262.88 118.31,262.82 118.45,262.77 C 118.60,262.71 118.75,262.66 118.92,262.61 C 119.09,262.56 119.28,262.52 119.48,262.48 C 119.68,262.44 119.89,262.40 120.12,262.37 C 120.35,262.33 120.59,262.31 120.84,262.28 C 121.10,262.26 121.43,262.26 121.66,262.22 C 121.88,262.17 122.05,262.10 122.18,262.01 C 122.31,261.91 122.38,261.79 122.41,261.65 C 122.44,261.50 122.43,261.33 122.36,261.14 C 122.29,260.95 122.18,260.73 122.02,260.48 C 121.85,260.24 121.64,259.97 121.38,259.68 C 121.12,259.39 120.82,259.07 120.46,258.73 C 120.11,258.38 119.70,258.02 119.25,257.62 C 118.80,257.23 118.19,256.79 117.75,256.38 C 117.31,255.96 116.94,255.54 116.62,255.12 C 116.31,254.71 116.06,254.29 115.88,253.88 C 115.69,253.46 115.56,253.04 115.50,252.62 C 115.44,252.21 115.44,251.79 115.50,251.38 C 115.56,250.96 115.69,250.54 115.88,250.12 C 116.06,249.71 116.31,249.29 116.62,248.88 C 116.94,248.46 117.31,248.04 117.75,247.62 C 118.19,247.21 118.80,246.77 119.25,246.38 C 119.70,245.98 120.11,245.62 120.46,245.27 C 120.82,244.93 121.12,244.61 121.38,244.32 C 121.64,244.03 121.85,243.76 122.02,243.52 C 122.18,243.27 122.29,243.05 122.36,242.86 C 122.43,242.67 122.44,242.50 122.41,242.35 C 122.38,242.21 122.31,242.09 122.18,241.99 C 122.05,241.90 121.88,241.83 121.66,241.78 C 121.43,241.74 121.10,241.74 120.84,241.72 C 120.59,241.69 120.35,241.67 120.12,241.63 C 119.89,241.60 119.68,241.56 119.48,241.52 C 119.28,241.48 119.09,241.44 118.92,241.39 C 118.75,241.34 118.60,241.29 118.45,241.23 C 118.31,241.18 118.18,241.12 118.07,241.05 C 117.96,240.99 117.86,240.92 117.77,240.85 C 117.69,240.78 117.62,240.70 117.56,240.62 C 117.51,240.55 117.45,240.45 117.44,240.38 C 117.42,240.30 117.44,240.22 117.48,240.16 C 117.53,240.09 117.60,240.03 117.70,239.97 C 117.80,239.91 117.93,239.86 118.09,239.81 C 118.25,239.77 118.44,239.72 118.66,239.69 C 118.87,239.65 119.12,239.62 119.39,239.59 C 119.66,239.57 119.97,239.55 120.30,239.53 C 120.63,239.52 120.99,239.51 121.38,239.50 C 121.76,239.49 122.22,239.52 122.62,239.50 C 123.03,239.48 123.43,239.45 123.83,239.41 C 124.22,239.36 124.61,239.30 124.98,239.22 C 125.36,239.14 125.73,239.05 126.09,238.94 C 126.46,238.83 126.81,238.70 127.16,238.56 C 127.50,238.42 127.84,238.27 128.17,238.09 C 128.50,237.92 128.83,237.73 129.14,237.53 C 129.46,237.33 129.76,237.11 130.06,236.88 C 130.36,236.64 130.60,236.36 130.94,236.12 C 131.28,235.89 131.66,235.66 132.09,235.44 C 132.53,235.22 133.01,235.01 133.53,234.81 C 134.06,234.61 134.63,234.43 135.25,234.25 C 135.87,234.07 136.54,233.91 137.25,233.75 C 137.96,233.59 138.72,233.45 139.53,233.31 C 140.34,233.18 141.19,233.05 142.09,232.94 C 142.99,232.82 143.94,232.72 144.94,232.62 C 145.93,232.53 147.07,232.46 148.06,232.38 C 149.05,232.29 149.99,232.20 150.88,232.11 C 151.76,232.02 152.59,231.92 153.38,231.83 C 154.16,231.73 154.89,231.63 155.56,231.53 C 156.24,231.43 156.86,231.33 157.44,231.22 C 158.01,231.11 158.53,231.00 159.00,230.89 C 159.47,230.78 159.89,230.66 160.25,230.55 C 160.61,230.43 160.93,230.31 161.19,230.19 C 161.45,230.07 161.61,229.93 161.81,229.81 C 162.02,229.70 162.22,229.59 162.42,229.48 C 162.62,229.38 162.82,229.29 163.02,229.20 C 163.21,229.12 163.40,229.04 163.59,228.97 C 163.78,228.90 163.97,228.84 164.16,228.78 C 164.34,228.73 164.52,228.68 164.70,228.64 C 164.88,228.60 165.06,228.57 165.23,228.55 C 165.41,228.52 165.58,228.51 165.75,228.50 C 165.92,228.49 166.09,228.51 166.25,228.50 C 166.41,228.49 166.56,228.48 166.70,228.47 C 166.85,228.45 166.98,228.43 167.11,228.41 C 167.24,228.38 167.36,228.35 167.47,228.31 C 167.58,228.28 167.68,228.23 167.78,228.19 C 167.88,228.14 167.97,228.09 168.05,228.03 C 168.13,227.97 168.20,227.91 168.27,227.84 C 168.33,227.78 168.39,227.70 168.44,227.62 C 168.49,227.55 168.51,227.45 168.56,227.38 C 168.61,227.30 168.67,227.22 168.73,227.16 C 168.80,227.09 168.87,227.03 168.95,226.97 C 169.03,226.91 169.12,226.86 169.22,226.81 C 169.32,226.77 169.42,226.72 169.53,226.69 C 169.64,226.65 169.76,226.62 169.89,226.59 C 170.02,226.57 170.15,226.55 170.30,226.53 C 170.44,226.52 170.59,226.51 170.75,226.50 C 170.91,226.49 171.09,226.51 171.25,226.50 C 171.41,226.49 171.56,226.48 171.70,226.47 C 171.85,226.45 171.98,226.43 172.11,226.41 C 172.24,226.38 172.36,226.35 172.47,226.31 C 172.58,226.28 172.68,226.23 172.78,226.19 C 172.88,226.14 172.97,226.09 173.05,226.03 C 173.13,225.97 173.20,225.91 173.27,225.84 C 173.33,225.78 173.39,225.70 173.44,225.62 C 173.49,225.55 173.47,225.45 173.56,225.38 C 173.66,225.30 173.80,225.24 174.00,225.19 C 174.20,225.14 174.45,225.09 174.75,225.06 C 175.05,225.03 175.41,225.01 175.81,225.00 C 176.22,224.99 176.68,224.99 177.19,225.00 C 177.70,225.01 178.26,225.03 178.88,225.06 C 179.49,225.09 180.16,225.14 180.88,225.19 C 181.59,225.24 182.36,225.30 183.19,225.38 C 184.01,225.45 184.99,225.54 185.81,225.62 C 186.64,225.71 187.41,225.80 188.13,225.90 C 188.86,225.99 189.53,226.09 190.15,226.20 C 190.77,226.30 191.34,226.40 191.86,226.52 C 192.38,226.63 192.85,226.74 193.27,226.86 C 193.68,226.98 194.05,227.10 194.37,227.23 C 194.68,227.35 194.95,227.48 195.16,227.62 C 195.38,227.75 195.54,227.89 195.66,228.03 C 195.77,228.17 195.79,228.32 195.84,228.47 C 195.90,228.62 195.95,228.77 195.99,228.93 C 196.04,229.09 196.07,229.25 196.10,229.41 C 196.13,229.58 196.15,229.75 196.17,229.92 C 196.19,230.10 196.20,230.27 196.20,230.45 C 196.21,230.63 196.20,230.82 196.20,231.01 C 196.19,231.20 196.17,231.39 196.15,231.59 C 196.13,231.78 196.10,231.98 196.06,232.19 C 196.03,232.39 195.96,232.62 195.94,232.81 C 195.91,233.01 195.90,233.19 195.90,233.37 C 195.90,233.54 195.92,233.70 195.95,233.85 C 195.98,234.00 196.02,234.14 196.08,234.27 C 196.14,234.39 196.21,234.51 196.30,234.61 C 196.38,234.71 196.49,234.80 196.60,234.88 C 196.72,234.96 196.85,235.03 196.99,235.09 C 197.14,235.14 197.30,235.19 197.47,235.22 C 197.64,235.25 197.86,235.27 198.03,235.28 C 198.21,235.29 198.37,235.30 198.52,235.30 C 198.66,235.29 198.80,235.28 198.92,235.27 C 199.04,235.25 199.15,235.22 199.25,235.19 C 199.35,235.15 199.43,235.11 199.50,235.06 C 199.57,235.01 199.63,234.96 199.67,234.89 C 199.72,234.83 199.75,234.75 199.77,234.67 C 199.78,234.59 199.79,234.50 199.78,234.41 C 199.77,234.31 199.73,234.20 199.72,234.09 C 199.71,233.99 199.71,233.89 199.73,233.79 C 199.74,233.69 199.77,233.59 199.80,233.49 C 199.84,233.39 199.89,233.30 199.95,233.20 C 200.01,233.11 200.09,233.01 200.17,232.92 C 200.26,232.83 200.35,232.74 200.46,232.65 C 200.57,232.56 200.69,232.47 200.82,232.38 C 200.95,232.30 201.10,232.21 201.25,232.12 C 201.40,232.04 201.59,232.00 201.75,231.88 C 201.91,231.75 202.05,231.58 202.19,231.36 C 202.32,231.14 202.45,230.88 202.56,230.58 C 202.68,230.27 202.78,229.92 202.88,229.53 C 202.97,229.14 203.05,228.70 203.12,228.22 C 203.20,227.74 203.26,227.21 203.31,226.64 C 203.36,226.07 203.41,225.46 203.44,224.80 C 203.47,224.14 203.49,223.43 203.50,222.69 C 203.51,221.94 203.51,221.06 203.50,220.31 C 203.49,219.56 203.48,218.85 203.45,218.19 C 203.43,217.52 203.40,216.90 203.36,216.31 C 203.32,215.73 203.27,215.19 203.22,214.69 C 203.16,214.19 203.10,213.73 203.03,213.31 C 202.96,212.90 202.88,212.52 202.80,212.19 C 202.71,211.85 202.62,211.56 202.52,211.31 C 202.41,211.06 202.30,210.85 202.19,210.69 C 202.07,210.52 201.89,210.43 201.81,210.31 C 201.73,210.19 201.70,210.08 201.71,209.98 C 201.72,209.87 201.78,209.77 201.88,209.68 C 201.99,209.59 202.13,209.50 202.33,209.42 C 202.52,209.34 202.76,209.27 203.05,209.20 C 203.33,209.14 203.66,209.08 204.04,209.02 C 204.42,208.97 204.84,208.92 205.30,208.88 C 205.77,208.84 206.29,208.81 206.84,208.78 C 207.40,208.75 208.07,208.73 208.66,208.72 C 209.24,208.71 209.81,208.71 210.35,208.73 C 210.90,208.74 211.42,208.77 211.93,208.80 C 212.44,208.84 212.92,208.89 213.39,208.95 C 213.86,209.01 214.31,209.09 214.73,209.17 C 215.16,209.26 215.57,209.35 215.96,209.46 C 216.35,209.57 216.72,209.69 217.07,209.82 C 217.42,209.95 217.75,210.10 218.06,210.25 C 218.37,210.40 218.65,210.65 218.94,210.75 C 219.23,210.85 219.51,210.90 219.80,210.88 C 220.08,210.85 220.36,210.77 220.64,210.62 C 220.92,210.48 221.20,210.27 221.47,210.00 C 221.74,209.73 222.01,209.40 222.28,209.00 C 222.55,208.60 222.82,208.15 223.08,207.62 C 223.34,207.10 223.60,206.52 223.86,205.88 C 224.12,205.23 224.37,204.52 224.62,203.75 C 224.88,202.98 225.07,202.03 225.38,201.25 C 225.68,200.47 226.03,199.74 226.44,199.06 C 226.84,198.39 227.30,197.76 227.81,197.19 C 228.32,196.61 228.89,196.09 229.50,195.62 C 230.11,195.16 230.78,194.74 231.50,194.38 C 232.22,194.01 232.99,193.70 233.81,193.44 C 234.64,193.18 235.51,192.97 236.44,192.81 C 237.36,192.66 238.34,192.55 239.38,192.50 C 240.41,192.45 241.60,192.49 242.62,192.50 C 243.65,192.51 244.61,192.52 245.52,192.55 C 246.42,192.57 247.26,192.60 248.05,192.64 C 248.83,192.68 249.55,192.73 250.22,192.78 C 250.88,192.84 251.49,192.90 252.03,192.97 C 252.58,193.04 253.06,193.12 253.48,193.20 C 253.91,193.29 254.27,193.38 254.58,193.48 C 254.88,193.59 255.13,193.70 255.31,193.81 C 255.50,193.93 255.55,194.07 255.69,194.19 C 255.82,194.31 255.96,194.42 256.11,194.53 C 256.26,194.64 256.41,194.74 256.58,194.84 C 256.74,194.94 256.91,195.04 257.09,195.12 C 257.27,195.21 257.46,195.30 257.66,195.38 C 257.85,195.45 258.05,195.53 258.27,195.59 C 258.48,195.66 258.70,195.72 258.92,195.78 C 259.15,195.84 259.38,195.89 259.62,195.94 C 259.87,195.98 260.05,196.02 260.38,196.06 C 260.70,196.11 261.10,196.16 261.58,196.22 C 262.05,196.28 262.61,196.34 263.23,196.41 C 263.86,196.47 264.57,196.55 265.34,196.62 C 266.12,196.70 266.98,196.79 267.91,196.88 C 268.84,196.96 269.84,197.06 270.92,197.16 C 272.00,197.26 273.16,197.36 274.39,197.47 C 275.62,197.58 276.93,197.69 278.31,197.81 C 279.70,197.93 281.30,198.07 282.69,198.19 C 284.08,198.30 285.39,198.41 286.64,198.52 C 287.89,198.62 289.07,198.71 290.17,198.80 C 291.28,198.88 292.32,198.96 293.28,199.03 C 294.25,199.10 295.14,199.16 295.97,199.22 C 296.79,199.27 297.55,199.32 298.23,199.36 C 298.92,199.40 299.53,199.43 300.08,199.45 C 300.62,199.48 301.10,199.49 301.50,199.50 C 301.90,199.51 302.18,199.51 302.50,199.50 C 302.82,199.49 303.12,199.48 303.41,199.47 C 303.69,199.45 303.96,199.43 304.22,199.41 C 304.47,199.38 304.71,199.35 304.94,199.31 C 305.16,199.28 305.37,199.23 305.56,199.19 C 305.76,199.14 305.93,199.09 306.09,199.03 C 306.26,198.97 306.40,198.91 306.53,198.84 C 306.66,198.78 306.78,198.70 306.88,198.62 C 306.97,198.55 306.98,198.45 307.12,198.38 C 307.27,198.30 307.47,198.24 307.73,198.19 C 308.00,198.14 308.32,198.09 308.70,198.06 C 309.09,198.03 309.53,198.01 310.03,198.00 C 310.53,197.99 311.10,197.99 311.72,198.00 C 312.34,198.01 313.02,198.03 313.77,198.06 C 314.51,198.09 315.31,198.14 316.17,198.19 C 317.03,198.24 317.96,198.30 318.94,198.38 C 319.92,198.45 321.07,198.54 322.06,198.62 C 323.05,198.71 323.99,198.80 324.87,198.90 C 325.75,198.99 326.58,199.09 327.35,199.20 C 328.13,199.30 328.85,199.40 329.52,199.52 C 330.18,199.63 330.80,199.74 331.36,199.86 C 331.92,199.98 332.43,200.10 332.88,200.23 C 333.34,200.35 333.74,200.48 334.09,200.62 C 334.43,200.75 334.73,200.89 334.97,201.03 C 335.21,201.17 335.33,201.27 335.53,201.47 C 335.74,201.67 335.96,201.93 336.20,202.25 C 336.45,202.57 336.71,202.94 336.98,203.38 C 337.26,203.81 337.56,204.30 337.88,204.84 C 338.19,205.39 338.52,205.99 338.88,206.66 C 339.23,207.32 339.60,208.04 339.98,208.81 C 340.37,209.59 340.78,210.42 341.20,211.31 C 341.63,212.20 342.07,213.15 342.53,214.16 C 342.99,215.16 343.47,216.35 343.97,217.34 C 344.47,218.34 344.99,219.26 345.54,220.12 C 346.08,220.97 346.65,221.76 347.24,222.48 C 347.83,223.19 348.44,223.84 349.08,224.42 C 349.71,225.00 350.37,225.51 351.05,225.95 C 351.73,226.39 352.43,226.77 353.15,227.07 C 353.87,227.37 354.62,227.61 355.38,227.77 C 356.15,227.94 356.94,228.04 357.75,228.06 C 358.56,228.09 359.46,227.97 360.25,227.94 C 361.04,227.91 361.78,227.89 362.48,227.88 C 363.18,227.86 363.84,227.86 364.45,227.88 C 365.07,227.89 365.63,227.91 366.16,227.94 C 366.68,227.97 367.16,228.01 367.59,228.06 C 368.03,228.11 368.42,228.18 368.77,228.25 C 369.11,228.32 369.41,228.41 369.67,228.50 C 369.93,228.59 370.14,228.70 370.31,228.81 C 370.48,228.93 370.55,229.07 370.69,229.19 C 370.83,229.31 370.98,229.43 371.15,229.54 C 371.32,229.65 371.50,229.76 371.70,229.87 C 371.89,229.97 372.10,230.07 372.33,230.17 C 372.55,230.27 372.79,230.36 373.05,230.45 C 373.30,230.54 373.57,230.63 373.85,230.71 C 374.13,230.79 374.43,230.87 374.74,230.95 C 375.05,231.02 375.38,231.09 375.72,231.16 C 376.06,231.22 376.45,231.28 376.78,231.34 C 377.11,231.41 377.42,231.47 377.70,231.53 C 377.99,231.59 378.25,231.66 378.48,231.72 C 378.72,231.78 378.93,231.84 379.12,231.91 C 379.32,231.97 379.48,232.03 379.62,232.09 C 379.77,232.16 379.89,232.22 379.98,232.28 C 380.08,232.34 380.15,232.41 380.20,232.47 C 380.25,232.53 380.28,232.59 380.28,232.66 C 380.28,232.72 380.28,232.78 380.22,232.84 C 380.16,232.91 380.07,232.98 379.94,233.05 C 379.81,233.12 379.64,233.19 379.44,233.27 C 379.23,233.34 378.99,233.42 378.72,233.50 C 378.44,233.58 378.13,233.66 377.78,233.75 C 377.43,233.84 377.05,233.92 376.62,234.02 C 376.20,234.11 375.74,234.20 375.25,234.30 C 374.76,234.39 374.22,234.49 373.66,234.59 C 373.09,234.70 372.39,234.78 371.84,234.91 C 371.30,235.04 370.82,235.19 370.39,235.38 C 369.97,235.56 369.60,235.77 369.30,236.00 C 368.99,236.23 368.75,236.49 368.56,236.78 C 368.38,237.07 368.25,237.38 368.19,237.72 C 368.12,238.06 368.12,238.42 368.17,238.81 C 368.23,239.20 368.34,239.62 368.52,240.06 C 368.69,240.51 368.92,240.97 369.22,241.47 C 369.51,241.96 369.92,242.54 370.28,243.03 C 370.64,243.53 371.00,243.99 371.36,244.44 C 371.72,244.88 372.09,245.30 372.45,245.69 C 372.82,246.08 373.19,246.44 373.56,246.78 C 373.93,247.12 374.31,247.43 374.69,247.72 C 375.07,248.01 375.45,248.27 375.83,248.50 C 376.21,248.73 376.60,248.94 376.98,249.12 C 377.37,249.31 377.76,249.46 378.16,249.59 C 378.55,249.72 378.98,249.80 379.34,249.91 C 379.71,250.01 380.05,250.12 380.36,250.23 C 380.67,250.35 380.95,250.46 381.20,250.58 C 381.46,250.70 381.68,250.82 381.88,250.94 C 382.07,251.06 382.24,251.18 382.38,251.31 C 382.51,251.44 382.62,251.57 382.70,251.70 C 382.78,251.84 382.84,251.97 382.86,252.11 C 382.88,252.25 382.88,252.39 382.84,252.53 C 382.81,252.67 382.73,252.83 382.66,252.97 C 382.58,253.11 382.49,253.23 382.38,253.35 C 382.28,253.47 382.16,253.58 382.02,253.68 C 381.89,253.78 381.74,253.87 381.58,253.95 C 381.42,254.04 381.24,254.11 381.05,254.17 C 380.86,254.24 380.65,254.29 380.43,254.34 C 380.21,254.38 379.98,254.42 379.73,254.45 C 379.48,254.47 379.21,254.49 378.94,254.50 C 378.66,254.51 378.36,254.46 378.06,254.50 C 377.76,254.54 377.46,254.61 377.15,254.71 C 376.84,254.82 376.52,254.96 376.20,255.13 C 375.87,255.31 375.54,255.52 375.20,255.77 C 374.87,256.01 374.52,256.29 374.17,256.61 C 373.82,256.93 373.46,257.28 373.10,257.66 C 372.74,258.05 372.37,258.47 371.99,258.93 C 371.62,259.39 371.23,259.88 370.84,260.41 C 370.45,260.93 369.99,261.56 369.66,262.09 C 369.32,262.63 369.05,263.13 368.84,263.61 C 368.64,264.09 368.49,264.53 368.41,264.95 C 368.32,265.37 368.30,265.76 368.34,266.12 C 368.39,266.49 368.49,266.82 368.66,267.12 C 368.82,267.43 369.05,267.71 369.34,267.95 C 369.64,268.20 369.99,268.42 370.41,268.61 C 370.82,268.80 371.30,268.96 371.84,269.09 C 372.39,269.23 373.09,269.30 373.66,269.41 C 374.22,269.51 374.76,269.61 375.25,269.70 C 375.74,269.80 376.20,269.89 376.62,269.98 C 377.05,270.08 377.43,270.16 377.78,270.25 C 378.13,270.34 378.44,270.42 378.72,270.50 C 378.99,270.58 379.23,270.66 379.44,270.73 C 379.64,270.81 379.81,270.88 379.94,270.95 C 380.07,271.02 380.16,271.09 380.22,271.16 C 380.28,271.22 380.28,271.28 380.28,271.34 C 380.28,271.41 380.25,271.47 380.20,271.53 C 380.15,271.59 380.08,271.66 379.98,271.72 C 379.89,271.78 379.77,271.84 379.62,271.91 C 379.48,271.97 379.32,272.03 379.12,272.09 C 378.93,272.16 378.72,272.22 378.48,272.28 C 378.25,272.34 377.99,272.41 377.70,272.47 C 377.42,272.53 377.11,272.59 376.78,272.66 C 376.45,272.72 376.06,272.78 375.72,272.84 C 375.38,272.91 375.06,272.97 374.76,273.04 C 374.45,273.11 374.17,273.17 373.90,273.24 C 373.63,273.31 373.38,273.38 373.14,273.45 C 372.90,273.52 372.69,273.60 372.48,273.67 C 372.28,273.75 372.10,273.82 371.93,273.90 C 371.76,273.98 371.61,274.05 371.48,274.13 C 371.34,274.21 371.23,274.29 371.12,274.38 C 371.02,274.46 371.01,274.55 370.88,274.62 C 370.74,274.70 370.56,274.78 370.33,274.84 C 370.10,274.91 369.82,274.97 369.48,275.03 C 369.15,275.09 368.77,275.14 368.34,275.19 C 367.91,275.23 367.43,275.28 366.91,275.31 C 366.38,275.35 365.80,275.38 365.17,275.41 C 364.54,275.43 363.87,275.45 363.14,275.47 C 362.41,275.48 361.64,275.49 360.81,275.50 C 359.99,275.51 359.04,275.43 358.19,275.50 C 357.33,275.57 356.49,275.72 355.67,275.94 C 354.85,276.16 354.05,276.45 353.27,276.81 C 352.48,277.18 351.72,277.61 350.97,278.12 C 350.22,278.64 349.49,279.22 348.78,279.88 C 348.07,280.53 347.38,281.26 346.70,282.06 C 346.03,282.86 345.37,283.74 344.73,284.69 C 344.10,285.64 343.48,286.66 342.88,287.75 C 342.27,288.84 341.73,290.15 341.12,291.25 C 340.52,292.35 339.90,293.39 339.25,294.36 C 338.60,295.33 337.94,296.24 337.25,297.08 C 336.56,297.92 335.85,298.70 335.12,299.41 C 334.40,300.12 333.65,300.76 332.88,301.34 C 332.10,301.92 331.31,302.44 330.50,302.89 C 329.69,303.34 328.85,303.73 328.00,304.05 C 327.15,304.37 326.27,304.62 325.38,304.81 C 324.48,305.00 323.50,305.07 322.62,305.19 C 321.75,305.30 320.92,305.41 320.14,305.52 C 319.36,305.62 318.62,305.71 317.92,305.80 C 317.23,305.88 316.58,305.96 315.97,306.03 C 315.36,306.10 314.80,306.16 314.28,306.22 C 313.76,306.27 313.29,306.32 312.86,306.36 C 312.43,306.40 312.04,306.43 311.70,306.45 C 311.36,306.48 311.07,306.49 310.81,306.50 C 310.56,306.51 310.39,306.51 310.19,306.50 C 309.99,306.49 309.79,306.48 309.61,306.47 C 309.42,306.45 309.25,306.43 309.08,306.41 C 308.91,306.38 308.75,306.35 308.59,306.31 C 308.44,306.28 308.29,306.23 308.16,306.19 C 308.02,306.14 307.89,306.09 307.77,306.03 C 307.64,305.97 307.53,305.91 307.42,305.84 C 307.32,305.78 307.22,305.70 307.12,305.62 C 307.03,305.55 307.04,305.45 306.88,305.38 C 306.71,305.30 306.46,305.24 306.12,305.19 C 305.79,305.14 305.38,305.09 304.88,305.06 C 304.38,305.03 303.79,305.01 303.12,305.00 C 302.46,304.99 301.71,304.99 300.88,305.00 C 300.04,305.01 299.12,305.03 298.12,305.06 C 297.12,305.09 296.04,305.14 294.88,305.19 C 293.71,305.24 292.46,305.30 291.12,305.38 C 289.79,305.45 288.24,305.54 286.88,305.62 C 285.51,305.71 284.19,305.79 282.92,305.88 C 281.65,305.96 280.43,306.04 279.27,306.12 C 278.10,306.21 276.98,306.29 275.91,306.38 C 274.84,306.46 273.82,306.54 272.84,306.62 C 271.87,306.71 270.95,306.79 270.08,306.88 C 269.21,306.96 268.38,307.04 267.61,307.12 C 266.84,307.21 266.11,307.29 265.44,307.38 C 264.76,307.46 264.16,307.54 263.56,307.62 C 262.97,307.71 262.41,307.80 261.88,307.89 C 261.34,307.98 260.84,308.08 260.38,308.17 C 259.91,308.27 259.47,308.37 259.06,308.47 C 258.66,308.57 258.28,308.67 257.94,308.78 C 257.59,308.89 257.28,309.00 257.00,309.11 C 256.72,309.22 256.47,309.34 256.25,309.45 C 256.03,309.57 255.84,309.69 255.69,309.81 C 255.53,309.93 255.50,310.07 255.31,310.19 C 255.13,310.30 254.88,310.41 254.58,310.52 C 254.27,310.62 253.91,310.71 253.48,310.80 C 253.06,310.88 252.58,310.96 252.03,311.03 C 251.49,311.10 250.88,311.16 250.22,311.22 C 249.55,311.27 248.83,311.32 248.05,311.36 C 247.26,311.40 246.42,311.43 245.52,311.45 C 244.61,311.48 243.65,311.49 242.62,311.50 Z" stroke="none" fill="currentColor" opacity="0.11" />
  <path d="M236.83,259.93L224.23,259.80 M223.28,243.32L208.37,243.25 M206.49,244.85L223.28,244.98 M208.50,244.01L223.28,243.94 M223.47,244.35L208.56,244.26 M236.83,244.85L224.23,244.98 M234.11,250.52L223.55,250.52 M238.08,260.33L238.08,252.40 M238.11,259.73L238.23,252.40 M238.08,259.71L238.23,252.40 M223.28,261.46L208.37,261.53 M206.49,259.93L223.28,259.80 M223.28,260.84L208.50,260.77 M208.56,260.52L223.47,260.43 M236.83,259.93L224.23,259.80 M234.11,254.28L223.55,254.28 M238.08,244.48L238.08,252.40 M238.11,245.07L238.23,252.40 M238.08,245.09L238.23,252.40 M236.83,244.88L224.23,245.00 M217.57,258.36L225.68,258.36 M213.79,258.36L205.40,258.38 M225.68,246.45L217.57,246.45 M213.79,246.45L205.40,246.42 M237.24,262.77L206.01,262.79 M237.49,262.67L237.50,258.63 M237.94,263.01L205.05,263.01 M205.75,262.69L205.78,258.87 M237.05,264.73L237.09,260.17 M236.93,260.09L206.30,260.05 M206.19,264.76L206.18,260.45 M237.49,242.11L237.50,246.15 M237.24,242.01L206.01,241.99 M205.78,245.91L205.75,242.09 M237.94,241.77L205.05,241.78 M237.05,240.05L237.09,244.61 M236.93,244.69L206.30,244.73 M206.19,240.03L206.18,244.33 M213.93,262.40L206.56,262.41 M206.54,262.50L213.99,262.50 M206.46,262.03L214.01,262.01 M215.77,263.74L234.66,263.73 M215.75,264.28L234.75,264.24 M234.83,263.88L214.83,263.88 M213.60,263.97L205.75,263.97 M214.93,263.75L234.72,263.75 M205.72,263.88L213.57,263.88 M213.67,263.74L205.82,263.75 M206.92,242.17L214.69,242.58 M206.90,242.08L214.76,242.47 M234.80,240.79L216.52,240.76 M234.72,241.31L216.53,241.30 M206.82,242.56L214.77,242.97 M206.56,242.37L213.93,242.38 M206.54,242.28L213.99,242.28 M206.46,242.75L214.01,242.77 M215.77,241.04L234.66,241.05 M215.75,240.51L234.75,240.54 M234.83,240.91L214.83,240.90 M213.60,240.81L205.75,240.81 M205.72,240.90L213.57,240.91 M234.72,241.03L214.93,241.03 M213.67,241.04L205.82,241.03 M214.69,262.21L206.92,262.61 M206.82,262.22L214.77,261.81 M206.90,262.70L214.76,262.31 M216.53,263.48L234.72,263.47 M216.52,264.02L234.80,263.99 M217.57,257.82L225.68,257.82 M230.02,256.21L237.10,256.18 M217.57,246.99L225.68,246.99 M230.02,248.59L237.10,248.62 M157.03,241.89L165.40,245.57 M188.88,245.17L197.17,241.21 M189.50,244.71L197.76,240.76 M190.85,245.26L197.16,241.23 M191.40,244.81L197.70,240.79 M197.51,244.64L202.36,242.40 M162.49,244.64L157.62,242.33 M152.90,243.56L152.90,246.34 M188.88,259.67L197.17,263.63 M189.50,260.13L197.76,264.08 M190.85,259.58L197.16,263.61 M191.40,260.03L197.70,264.05 M162.30,264.05L168.59,260.03 M162.84,263.61L169.15,259.58 M171.12,259.67L162.83,263.63 M152.90,261.28L152.90,258.50 M197.51,260.21L202.36,262.45 M162.49,260.21L157.64,262.45 M156.76,258.53L157.24,261.19 M157.03,262.95L165.40,259.27 M124.94,249.21L135.21,240.07 M143.68,242.26L159.89,242.26 M143.24,242.24L159.89,242.26 M160.51,241.91L154.31,239.20 M152.21,238.87L136.79,238.87 M143.24,242.24L136.31,239.22 M136.31,239.22L142.94,242.13 M133.46,240.31L123.50,248.30 M135.23,239.86L139.48,244.92 M123.32,249.03L134.63,249.02 M135.12,249.41L125.59,249.34 M124.94,255.63L135.21,264.78 M143.24,262.61L159.89,262.59 M143.68,262.59L159.89,262.59 M160.51,262.94L154.31,265.64 M152.21,265.97L136.79,265.97 M143.24,262.61L136.31,265.62 M136.31,265.62L142.94,262.72 M135.41,266.00L143.10,262.83 M135.23,264.98L139.84,259.61 M134.63,255.82L123.32,255.82 M133.46,264.54L123.50,256.54 M125.34,255.97L135.22,255.95 M146.15,239.38L154.15,239.43 M154.26,239.53L146.22,239.51 M154.20,239.27L146.18,239.18 M136.38,239.79L145.27,239.75 M136.38,265.06L145.27,265.09 M149.20,245.40L161.26,245.38 M149.20,245.59L161.27,245.59 M149.10,259.31L161.27,259.26 M161.26,259.47L149.08,259.52 M118.01,248.24L130.34,238.73 M118.01,256.60L130.34,266.12 M185.73,227.79L175.87,227.79 M174.19,228.98L159.36,235.77 M154.13,237.80L135.95,237.79 M174.19,275.87L159.36,269.07 M154.13,267.04L135.95,267.05 M206.82,235.93L198.92,235.93 M206.82,268.92L198.93,268.91 M196.35,256.91L190.55,256.91 M196.35,247.93L190.55,247.94 M165.73,255.14L183.77,255.12 M165.73,249.70L183.77,249.73 M171.01,255.30L183.79,255.30 M171.01,249.55L183.79,249.55 M191.51,241.09L200.69,241.07 M200.69,263.77L191.51,263.75 M161.30,263.74L168.34,263.75 M208.08,239.38L208.08,239.38 M208.08,265.46L208.08,265.46 M208.26,240.61L208.26,252.42 M208.26,264.23L208.26,252.42 M179.99,263.99L167.03,263.99 M179.99,240.86L167.03,240.86 M183.14,250.80L171.70,250.81 M183.12,251.04L171.71,251.04 M183.12,251.04L169.61,251.01 M183.10,251.21L169.20,251.25 M183.19,253.61L169.20,253.60 M169.61,253.84L183.12,253.80 M171.71,253.80L183.12,253.80 M171.70,254.04L183.14,254.04 M161.30,241.10L168.34,241.10 M153.65,270.69L146.29,266.71 M165.97,241.39L152.78,241.44 M153.65,234.16L146.29,238.14 M163.86,253.82L151.89,253.83 M163.83,251.03L151.87,251.01 M212.44,252.42L212.45,237.87 M212.44,252.42L212.45,266.97 M160.33,252.42L160.34,241.13 M158.47,245.23L158.51,252.42 M158.51,252.42L158.47,259.61 M131.30,238.29L118.08,248.26 M122.75,247.96L135.57,240.50 M169.72,262.74L162.62,262.74 M169.72,242.11L162.62,242.11 M131.30,266.56L118.08,256.59 M122.75,256.89L135.57,264.34 M214.94,240.73L207.45,240.77 M211.16,264.08L203.71,263.96 M150.78,236.94L144.20,236.94 M139.85,265.93L149.34,265.91 M140.78,267.00L149.36,266.99 M140.18,270.12L151.20,271.26 M140.18,270.12L151.10,271.26 M151.10,271.26L140.26,270.10 M151.64,272.32L139.58,270.97 M149.34,238.94L139.85,238.92 M149.36,237.85L140.78,237.84 M151.20,233.68L140.18,234.82 M140.18,234.82L151.10,233.68 M151.10,233.68L140.26,234.84 M151.61,232.59L139.55,233.94 M183.66,274.15L176.36,274.15 M177.25,260.12L182.30,239.78 M177.18,260.04L182.30,239.78 M182.73,260.12L177.68,239.78 M182.21,260.17L177.25,239.78 M175.92,239.83L175.92,231.95 M176.31,230.70L183.62,230.70 M176.31,230.70L183.62,230.70 M181.77,249.20L166.85,249.56 M178.43,249.43L167.18,249.43 M178.43,255.42L167.18,255.42 M175.08,253.37L187.52,253.36 M263.56,224.41L260.95,232.31 M261.40,224.35L258.70,232.20 M263.56,280.44L260.95,272.53 M261.40,280.50L258.70,272.65 M261.40,224.35L258.70,232.20 M261.40,280.50L258.70,272.65 M340.75,265.55L351.76,265.52 M220.12,275.07L226.50,277.63 M226.50,277.63L247.00,271.65 M367.32,249.28L358.04,235.57 M358.29,235.54L367.59,249.26 M364.62,235.51L374.33,249.22 M358.04,235.57L367.32,249.28 M220.55,265.43L205.13,265.43 M220.59,265.67L205.13,265.67 M366.82,257.65L366.83,247.20 M376.87,251.17L369.15,251.14 M369.15,253.70L376.87,253.67 M284.49,233.29L275.46,233.25 M260.79,233.40L274.84,233.44 M294.06,233.69L314.81,234.39 M284.47,230.79L275.16,230.64 M294.06,271.16L314.81,270.45 M274.84,271.41L260.79,271.45 M284.47,274.05L275.16,274.21 M284.47,230.79L275.16,230.64 M284.56,233.21L284.64,225.12 M284.47,274.05L275.16,274.21 M284.56,271.64L284.64,279.72 M315.32,270.53L285.46,272.10 M285.46,272.10L276.76,272.55 M276.76,272.55L250.44,273.93 M315.58,270.30L316.90,252.42 M243.34,252.42L243.34,261.45 M315.58,270.30L316.90,252.42 M315.58,234.55L316.90,252.42 M315.32,234.31L284.14,232.68 M284.14,232.68L275.43,232.23 M275.43,232.23L250.44,230.92 M316.90,252.42L315.58,234.55 M243.34,252.42L243.34,243.39 M245.19,245.43L245.19,245.44 M244.85,245.23L262.61,245.22 M245.19,245.43L262.65,245.42 M262.65,245.42L274.32,245.42 M262.61,245.22L274.33,245.23 M274.32,245.42L283.03,245.42 M283.03,245.42L309.63,245.42 M283.04,245.22L309.63,245.22 M245.06,259.21L245.06,259.19 M245.06,259.21L245.05,252.42 M244.85,259.55L244.86,252.42 M243.58,243.41L243.59,252.42 M243.34,243.39L243.44,252.42 M243.34,261.45L243.44,252.42 M309.63,259.57L283.02,259.56 M283.02,259.56L274.31,259.56 M283.00,259.37L274.29,259.36 M274.31,259.56L262.61,259.56 M262.61,259.56L244.85,259.55 M262.65,259.37L245.19,259.34 M245.19,259.33L245.19,259.34 M245.06,245.56L245.05,252.42 M244.86,252.42L244.85,245.23 M285.44,271.86L276.75,272.31 M276.76,272.55L285.46,272.10 M315.32,270.53L285.46,272.10 M276.76,272.55L250.44,273.93 M275.43,232.23L284.14,232.68 M275.43,232.23L250.44,230.92 M243.23,261.73L243.21,252.42 M243.23,243.11L243.21,252.42 M208.21,243.37L208.21,252.42 M213.95,247.53L213.94,257.31 M225.94,243.30L225.94,252.42 M225.94,252.42L225.93,261.55 M208.21,261.47L208.21,252.42 M208.14,239.64L208.21,239.56 M208.39,239.39L208.38,239.40 M208.14,265.21L208.21,265.29 M208.39,265.45L208.38,265.45 M226.50,227.22L247.00,233.19 M367.32,255.57L358.04,269.28 M367.32,255.57L358.04,269.28 M358.29,269.30L367.59,255.59 M364.62,269.34L374.33,255.62 M274.41,229.98L348.37,229.98 M274.41,274.87L348.37,274.86 M354.15,239.23L339.22,239.24 M339.22,239.24L315.41,239.23 M251.19,222.43L260.07,222.72 M251.13,228.74L258.29,229.23 M251.14,228.53L258.34,229.01 M258.94,223.61L256.81,229.56 M251.19,222.43L260.07,222.72 M243.33,234.08L250.54,235.48 M317.17,245.13L315.63,234.86 M316.93,245.11L315.38,234.76 M315.38,234.76L250.18,231.35 M316.93,245.11L272.90,239.42 M273.00,239.67L316.94,245.36 M260.77,236.28L247.19,236.27 M260.77,236.04L247.31,236.03 M317.17,245.13L315.63,234.86 M273.00,239.67L316.94,245.36 M260.77,236.28L247.19,236.27 M317.17,245.12L315.58,234.54 M250.40,230.92L315.34,234.32 M315.33,234.31L250.40,230.92 M272.89,239.42L316.93,245.11 M260.77,236.04L247.31,236.03 M274.41,229.98L348.37,229.98 M354.15,265.61L339.22,265.61 M339.22,265.61L315.41,265.62 M251.19,282.41L260.07,282.12 M251.22,282.22L260.05,281.91 M258.29,275.62L251.13,276.11 M251.19,282.41L260.07,282.12 M243.16,270.71L250.54,269.36 M243.16,270.71L250.54,269.36 M317.17,259.71L315.63,269.99 M316.93,259.74L315.38,270.09 M316.93,259.74L272.90,265.43 M273.00,265.17L316.94,259.49 M260.77,268.57L247.19,268.58 M315.34,270.53L250.40,273.93 M315.33,270.53L250.40,273.93 M315.38,270.09L250.18,273.50 M315.58,270.31L317.17,259.72 M250.40,273.93L315.34,270.53 M315.33,270.53L250.40,273.93 M315.36,270.31L250.33,273.72 M316.94,259.49L273.00,265.17 M260.77,268.57L247.19,268.58 M274.41,274.87L348.37,274.86 M360.56,243.82L320.61,243.82 M360.42,243.56L320.47,243.56 M315.93,237.87L316.57,246.77 M315.70,237.74L316.37,247.00 M316.57,258.07L315.93,266.98 M360.56,261.02L320.61,261.03 M320.47,261.28L360.42,261.28 M363.53,266.06L315.77,269.62 M363.53,238.78L315.77,235.23 M315.70,267.11L316.37,257.85 M377.92,251.21L368.14,251.20 M377.92,253.64L368.14,253.64 M377.92,253.64L368.14,253.64 M217.74,244.64L225.62,239.00 M217.74,260.20L225.62,265.84 M295.24,273.05L315.75,271.85 M295.24,231.79L315.75,232.99 M355.47,234.89L277.24,234.90 M355.50,235.18L277.22,235.17 M355.51,235.31L277.20,235.31 M356.50,232.69L283.89,232.69 M356.59,232.89L283.88,232.87 M356.50,233.15L283.85,233.15 M355.47,234.74L277.24,234.75 M355.50,235.03L277.22,235.02 M355.51,235.16L277.20,235.16 M356.50,232.54L283.89,232.54 M356.59,232.74L283.88,232.72 M356.50,233.00L283.85,233.00 M355.47,269.95L277.24,269.94 M355.50,269.67L277.22,269.67 M355.51,269.54L277.20,269.54 M356.50,272.15L283.89,272.15 M356.59,271.96L283.88,271.97 M356.50,271.70L283.85,271.70 M355.47,270.10L277.24,270.09 M355.50,269.82L277.22,269.82 M355.51,269.69L277.20,269.69 M356.50,272.30L283.89,272.30 M356.59,272.11L283.88,272.12 M356.50,271.85L283.85,271.85 M266.34,275.72L273.15,275.34 M320.91,275.12L298.23,276.62 M211.42,261.22L225.22,261.14 M285.53,280.52L288.05,274.11 M285.17,281.12L262.01,281.89 M263.23,282.70L279.41,282.15 M279.49,282.31L263.00,282.86 M279.48,282.10L262.99,282.64 M285.53,280.52L288.05,274.11 M288.05,274.11L259.77,274.99 M285.53,280.52L261.87,281.31 M259.77,274.99L261.87,281.31 M285.17,281.12L262.01,281.89 M263.22,282.43L279.33,281.90 M263.23,282.70L279.41,282.15 M279.49,282.31L263.00,282.86 M285.69,224.56L288.08,231.03 M285.34,223.95L262.20,222.72 M288.61,232.90L259.19,231.22 M263.43,221.94L279.60,222.81 M279.68,222.65L263.21,221.77 M279.67,222.86L263.20,221.98 M285.69,224.56L288.08,231.03 M285.69,224.56L262.06,223.29 M259.83,229.57L262.06,223.29 M285.35,223.95L262.20,222.72 M263.44,221.94L279.60,222.81 M279.68,222.65L263.21,221.77 M245.61,254.99L252.80,254.99 M255.33,254.99L357.07,254.99 M357.30,261.98L246.21,261.98 M357.08,261.98L246.40,261.98 M245.61,249.85L252.80,249.85 M255.33,249.85L357.07,249.85 M357.30,242.87L246.21,242.87 M357.08,242.87L246.40,242.87 M248.26,261.49L355.34,261.49 M354.05,260.49L340.37,260.49 M248.26,257.10L357.70,257.10 M250.50,258.15L266.55,258.15 M248.26,243.36L355.34,243.36 M354.05,244.35L340.37,244.35 M248.26,247.74L357.70,247.74 M250.50,246.70L266.55,246.70 M251.97,266.69L291.55,266.69 M291.55,266.69L331.14,266.69 M251.97,266.18L291.55,266.14 M291.55,266.14L331.14,266.11 M331.14,266.11L341.77,266.08 M331.14,266.69L341.82,266.69 M341.77,266.08L357.03,263.25 M341.82,266.69L356.52,263.93 M341.68,266.69L351.68,265.18 M251.97,261.98L244.40,261.98 M251.97,261.98L291.55,261.98 M291.55,261.98L331.14,261.98 M244.89,261.98L250.44,261.98 M251.96,262.18L291.55,262.18 M291.55,262.18L331.14,262.18 M331.14,261.98L341.82,261.98 M332.59,261.98L342.83,261.98 M341.82,261.98L357.80,261.98 M345.80,261.98L352.98,261.98 M251.97,238.15L291.55,238.15 M291.55,238.15L331.14,238.15 M251.97,238.67L291.55,238.70 M291.55,238.70L331.14,238.74 M331.14,238.74L341.77,238.77 M331.14,238.15L341.82,238.15 M341.77,238.77L357.03,241.60 M341.82,238.15L356.52,240.92 M341.68,238.15L351.68,239.67 M251.97,242.86L244.40,242.86 M251.97,242.86L291.55,242.86 M291.55,242.86L331.14,242.86 M244.89,242.86L250.44,242.86 M251.96,242.66L291.55,242.66 M291.55,242.66L331.14,242.66 M331.14,242.86L341.82,242.86 M332.59,242.86L342.83,242.86 M341.82,242.86L357.80,242.86 M345.80,242.86L352.98,242.86 M207.84,293.13L208.16,276.56 M207.84,293.13L208.11,272.94 M208.11,231.90L207.83,211.72 M207.83,211.72L208.16,228.28 M333.05,223.28L336.97,229.69 M336.88,229.59L333.07,223.28 M337.10,236.42L280.31,235.53 M269.21,219.95L269.22,233.58 M269.08,219.95L269.08,233.60 M269.50,219.92L269.49,233.56 M339.60,222.65L269.96,219.63 M331.52,222.89L316.24,222.77 M266.43,210.23L262.98,222.99 M342.68,227.84L348.61,236.44 M348.48,236.46L342.45,227.94 M346.58,238.52L333.49,238.49 M331.76,237.72L263.12,237.52 M337.07,213.09L272.10,208.67 M342.04,227.57L335.15,227.34 M266.18,210.14L262.71,222.94 M266.03,210.11L262.56,222.94 M267.20,208.08L300.08,208.53 M267.20,208.08L301.48,208.55 M300.08,219.63L267.20,220.07 M301.48,219.61L267.20,220.07 M323.30,204.91L316.39,204.21 M313.37,206.96L313.42,217.48 M333.78,224.29L323.14,223.92 M334.21,224.29L323.14,223.92 M334.21,224.29L323.14,223.92 M333.79,224.28L323.14,223.92 M327.62,205.24L316.39,204.21 M263.53,208.03L312.16,207.99 M312.17,207.98L263.53,207.98 M312.07,215.42L272.56,215.42 M312.06,215.09L272.59,215.09 M338.15,227.01L270.77,226.98 M338.16,226.97L270.77,226.97 M312.10,208.49L263.99,208.51 M263.99,208.23L312.06,208.27 M263.98,208.11L312.12,208.11 M264.22,226.02L262.29,210.54 M264.36,225.96L262.44,210.49 M264.63,225.90L262.72,210.44 M270.34,214.29L272.64,221.29 M270.31,214.35L272.64,221.32 M308.42,204.79L258.10,200.79 M308.44,204.51L258.08,200.51 M308.46,204.37L258.07,200.39 M253.38,202.38L253.30,211.68 M253.79,202.48L253.74,211.71 M253.53,202.40L253.46,211.67 M256.88,221.75L250.23,225.09 M256.74,221.52L250.09,224.85 M256.67,221.40L250.02,224.74 M251.23,228.46L335.18,228.46 M251.20,228.74L335.16,228.74 M251.18,228.90L335.15,228.90 M336.90,229.59L343.86,229.59 M336.88,229.87L343.89,229.87 M336.87,230.04L343.90,230.04 M345.91,226.86L339.98,214.53 M339.87,214.58L345.78,226.89 M339.65,214.74L345.52,226.99 M249.29,197.39L235.99,197.43 M245.92,199.12L239.11,199.11 M237.25,216.99L244.07,217.01 M230.95,208.42L252.37,208.69 M230.95,208.42L252.34,208.84 M252.34,208.84L231.04,208.37 M232.32,218.50L249.27,218.47 M232.82,203.11L251.86,203.36 M318.60,204.83L325.39,205.43 M322.02,223.47L328.84,223.48 M335.01,214.84L312.50,214.79 M332.55,209.75L312.76,209.65 M313.34,209.82L331.60,209.90 M332.66,210.00L312.77,209.95 M270.75,208.97L270.75,219.20 M270.86,219.20L270.86,208.97 M273.54,212.62L285.67,212.62 M273.62,212.62L285.74,212.62 M273.65,212.53L285.79,212.53 M273.62,212.43L285.75,212.43 M273.54,212.43L285.68,212.43 M273.54,212.41L285.67,212.41 M273.62,212.41L285.75,212.41 M273.65,212.32L285.79,212.32 M273.62,212.22L285.75,212.22 M273.54,212.22L285.67,212.22 M287.50,214.80L292.78,214.80 M293.37,214.80L288.09,214.80 M315.39,265.59L335.79,265.61 M315.41,265.61L335.86,265.62 M336.65,273.77L317.33,275.44 M315.40,239.23L335.79,239.23 M315.41,239.23L335.86,239.23 M366.61,243.82L320.48,243.82 M366.61,261.03L320.48,261.03 M353.23,266.79L338.88,267.86 M338.91,267.89L315.78,269.62 M353.23,238.05L338.88,236.98 M338.91,236.96L315.78,235.23 M316.37,257.85L315.69,267.11 M316.78,252.42L315.53,269.38 M316.78,252.42L315.53,235.46 M316.37,247.00L315.69,237.74 M267.20,296.76L300.08,296.32 M267.20,296.76L301.48,296.29 M300.08,285.22L267.20,284.77 M301.48,285.24L267.20,284.77 M316.39,300.63L323.30,299.93 M313.37,297.89L313.42,287.37 M334.21,280.55L323.14,280.93 M333.78,280.56L323.14,280.93 M333.79,280.56L323.14,280.92 M334.21,280.55L323.14,280.92 M327.62,299.61L316.39,300.63 M248.73,306.72L236.42,306.79 M249.29,307.45L235.99,307.42 M245.92,305.73L239.11,305.73 M237.26,287.84L244.07,287.83 M230.95,296.43L252.37,296.16 M230.95,296.43L252.35,296.01 M252.35,296.01L231.04,296.47 M232.32,286.35L249.27,286.38 M232.81,301.74L251.85,301.48 M318.59,300.01L325.38,299.41 M322.02,281.48L328.83,281.47 M335.01,290.02L312.51,290.07 M332.55,295.10L312.76,295.18 M313.34,295.01L331.61,294.95 M332.66,294.85L312.76,294.89 M270.75,285.65L270.75,295.88 M270.86,295.88L270.86,285.65 M273.54,289.30L285.67,289.30 M273.62,289.30L285.74,289.30 M273.65,289.20L285.79,289.21 M273.62,289.11L285.75,289.11 M273.54,289.11L285.68,289.11 M273.54,289.09L285.67,289.09 M273.62,289.09L285.75,289.09 M273.65,289.00L285.79,289.00 M273.62,288.90L285.75,288.90 M273.54,288.90L285.67,288.90 M287.50,291.48L292.78,291.48 M293.37,291.48L288.09,291.48 M311.92,289.43L272.56,289.43 M311.91,289.75L272.59,289.75 M338.15,277.84L270.77,277.87 M338.16,277.88L270.77,277.88 M263.53,296.81L312.12,296.86 M312.12,296.87L263.53,296.87 M308.42,300.06L258.10,304.06 M308.44,300.34L258.08,304.34 M308.46,300.47L258.07,304.46 M253.38,302.47L253.30,293.17 M253.79,302.37L253.74,293.14 M253.53,302.45L253.46,293.18 M256.88,283.09L250.23,279.76 M256.74,283.33L250.09,279.99 M256.67,283.44L250.02,280.10 M251.18,275.95L335.15,275.94 M251.20,276.11L335.16,276.11 M251.23,276.38L335.18,276.38 M336.90,275.25L343.86,275.25 M336.88,274.97L343.89,274.97 M336.87,274.81L343.90,274.81 M345.91,277.99L339.98,290.31 M339.87,290.26L345.78,277.96 M339.65,290.10L345.52,277.86 M270.34,290.55L272.64,283.56 M270.31,290.50L272.64,283.52 M312.01,296.36L263.99,296.34 M263.99,296.61L312.01,296.58 M263.98,296.73L312.02,296.73 M264.22,278.83L262.29,294.31 M264.36,278.89L262.44,294.36 M264.63,278.95L262.72,294.40 M333.05,281.57L336.97,275.15 M336.88,275.25L333.07,281.56 M337.10,268.42L280.38,269.32 M269.21,284.89L269.22,271.27 M269.08,284.89L269.08,271.25 M269.50,284.93L269.49,271.28 M339.60,282.20L269.96,285.22 M331.52,281.95L316.24,282.08 M266.43,294.61L262.98,281.85 M263.12,267.32L331.76,267.13 M342.68,277.01L348.61,268.40 M348.48,268.39L342.45,276.90 M346.58,266.33L333.49,266.35 M337.07,291.76L272.10,296.17 M342.04,277.27L335.15,277.51 M266.18,294.70L262.71,281.90 M266.03,294.74L262.56,281.91 M337.84,295.85L344.77,281.72 M345.90,279.43L353.23,264.21 M250.73,273.03L261.55,263.71 M286.53,299.32L297.43,298.54 M301.42,298.25L319.55,297.12 M345.92,279.44L353.21,264.20 M332.58,263.88L263.26,263.11 M250.72,273.04L261.57,263.70 M235.69,303.76L254.45,303.97 M244.82,243.48L249.00,237.18 M273.29,240.66L312.56,245.69 M261.48,236.74L249.50,236.74 M258.93,248.56L249.78,248.56 M249.84,245.16L259.37,245.19 M244.82,261.36L249.00,267.67 M249.28,267.74L261.46,267.74 M273.29,264.18L312.56,259.16 M272.80,264.67L316.53,258.93 M258.94,259.98L249.64,259.99 M258.93,256.29L249.78,256.28 M249.84,259.69L259.37,259.66 M251.67,256.11L247.06,255.65 M251.67,256.11L264.49,256.11 M251.67,260.18L247.06,260.64 M251.67,260.18L264.49,260.18 M224.75,252.42L224.67,260.44 M225.93,261.55L225.94,252.42 M225.94,243.30L225.94,252.42" stroke="currentColor" stroke-width="0.6" stroke-linecap="round" fill="none" opacity="0.55" clip-path="url(#hull-clip)" filter="url(#glow)" />
  <path d="M 242.62,311.50 C 241.60,311.51 240.41,311.55 239.38,311.50 C 238.34,311.45 237.36,311.34 236.44,311.19 C 235.51,311.03 234.64,310.82 233.81,310.56 C 232.99,310.30 232.22,309.99 231.50,309.62 C 230.78,309.26 230.11,308.84 229.50,308.38 C 228.89,307.91 228.32,307.39 227.81,306.81 C 227.30,306.24 226.84,305.61 226.44,304.94 C 226.03,304.26 225.68,303.53 225.38,302.75 C 225.07,301.97 224.88,301.02 224.62,300.25 C 224.37,299.48 224.12,298.77 223.86,298.12 C 223.60,297.48 223.34,296.90 223.08,296.38 C 222.82,295.85 222.55,295.40 222.28,295.00 C 222.01,294.60 221.74,294.27 221.47,294.00 C 221.20,293.73 220.92,293.52 220.64,293.38 C 220.36,293.23 220.08,293.15 219.80,293.12 C 219.51,293.10 219.23,293.15 218.94,293.25 C 218.65,293.35 218.37,293.60 218.06,293.75 C 217.75,293.90 217.42,294.04 217.08,294.17 C 216.73,294.30 216.37,294.41 215.98,294.52 C 215.60,294.62 215.20,294.71 214.78,294.78 C 214.36,294.86 213.92,294.92 213.47,294.97 C 213.01,295.02 212.54,295.05 212.05,295.08 C 211.55,295.10 211.04,295.11 210.52,295.11 C 209.99,295.11 209.44,295.09 208.88,295.06 C 208.31,295.03 207.67,294.98 207.12,294.94 C 206.58,294.89 206.09,294.84 205.63,294.79 C 205.18,294.74 204.77,294.68 204.40,294.62 C 204.03,294.56 203.70,294.49 203.42,294.42 C 203.14,294.35 202.90,294.28 202.70,294.20 C 202.51,294.13 202.35,294.05 202.24,293.96 C 202.13,293.88 202.06,293.79 202.04,293.70 C 202.01,293.60 202.03,293.51 202.09,293.41 C 202.15,293.31 202.31,293.24 202.41,293.09 C 202.50,292.95 202.60,292.76 202.68,292.52 C 202.76,292.29 202.84,292.01 202.91,291.70 C 202.99,291.38 203.05,291.01 203.11,290.61 C 203.17,290.20 203.22,289.76 203.27,289.27 C 203.31,288.77 203.35,288.24 203.38,287.66 C 203.42,287.09 203.44,286.47 203.46,285.80 C 203.48,285.14 203.49,284.44 203.50,283.69 C 203.51,282.94 203.51,282.07 203.50,281.31 C 203.49,280.56 203.47,279.84 203.45,279.16 C 203.42,278.49 203.38,277.85 203.34,277.24 C 203.29,276.64 203.24,276.07 203.17,275.55 C 203.11,275.02 203.04,274.53 202.95,274.08 C 202.87,273.63 202.78,273.21 202.68,272.84 C 202.58,272.46 202.47,272.12 202.35,271.82 C 202.23,271.52 202.11,271.26 201.97,271.03 C 201.83,270.81 201.68,270.64 201.53,270.47 C 201.38,270.29 201.23,270.13 201.08,269.98 C 200.92,269.84 200.77,269.70 200.61,269.58 C 200.45,269.46 200.29,269.35 200.12,269.25 C 199.96,269.15 199.79,269.07 199.62,269.00 C 199.46,268.93 199.28,268.87 199.11,268.83 C 198.93,268.78 198.76,268.75 198.58,268.73 C 198.40,268.72 198.22,268.71 198.03,268.72 C 197.85,268.73 197.64,268.75 197.47,268.78 C 197.30,268.81 197.14,268.85 196.99,268.90 C 196.85,268.95 196.72,269.00 196.60,269.07 C 196.49,269.14 196.38,269.21 196.30,269.30 C 196.21,269.38 196.14,269.48 196.08,269.58 C 196.02,269.68 195.98,269.79 195.95,269.91 C 195.92,270.04 195.90,270.17 195.90,270.30 C 195.90,270.44 195.91,270.59 195.94,270.75 C 195.96,270.91 196.03,271.08 196.06,271.25 C 196.10,271.42 196.13,271.59 196.15,271.76 C 196.17,271.93 196.19,272.10 196.20,272.27 C 196.20,272.45 196.21,272.62 196.20,272.80 C 196.20,272.97 196.19,273.15 196.17,273.33 C 196.15,273.51 196.13,273.69 196.10,273.87 C 196.07,274.05 196.04,274.23 195.99,274.41 C 195.95,274.60 195.90,274.78 195.84,274.97 C 195.79,275.15 195.78,275.36 195.66,275.53 C 195.53,275.71 195.34,275.87 195.09,276.02 C 194.83,276.18 194.51,276.32 194.13,276.45 C 193.75,276.57 193.31,276.69 192.80,276.80 C 192.29,276.90 191.71,277.00 191.08,277.08 C 190.44,277.16 189.74,277.23 188.98,277.29 C 188.21,277.35 187.38,277.39 186.49,277.43 C 185.60,277.46 184.64,277.49 183.62,277.50 C 182.61,277.51 181.39,277.51 180.38,277.50 C 179.36,277.49 178.40,277.48 177.52,277.47 C 176.63,277.45 175.80,277.43 175.05,277.41 C 174.29,277.38 173.60,277.35 172.97,277.31 C 172.34,277.28 171.78,277.23 171.28,277.19 C 170.78,277.14 170.35,277.09 169.98,277.03 C 169.62,276.97 169.32,276.91 169.08,276.84 C 168.84,276.78 168.67,276.70 168.56,276.62 C 168.46,276.55 168.49,276.45 168.44,276.38 C 168.39,276.30 168.33,276.22 168.27,276.16 C 168.20,276.09 168.13,276.03 168.05,275.97 C 167.97,275.91 167.88,275.86 167.78,275.81 C 167.68,275.77 167.58,275.72 167.47,275.69 C 167.36,275.65 167.24,275.62 167.11,275.59 C 166.98,275.57 166.85,275.55 166.70,275.53 C 166.56,275.52 166.41,275.51 166.25,275.50 C 166.09,275.49 165.92,275.51 165.75,275.50 C 165.58,275.49 165.42,275.48 165.25,275.45 C 165.08,275.43 164.92,275.40 164.75,275.36 C 164.58,275.32 164.42,275.27 164.25,275.22 C 164.08,275.16 163.92,275.10 163.75,275.03 C 163.58,274.96 163.42,274.88 163.25,274.80 C 163.08,274.71 162.92,274.62 162.75,274.52 C 162.58,274.41 162.42,274.30 162.25,274.19 C 162.08,274.07 161.97,273.93 161.75,273.81 C 161.53,273.69 161.25,273.57 160.92,273.45 C 160.59,273.34 160.21,273.22 159.77,273.11 C 159.33,273.00 158.83,272.89 158.28,272.78 C 157.73,272.67 157.13,272.57 156.47,272.47 C 155.81,272.37 155.10,272.27 154.33,272.17 C 153.56,272.08 152.74,271.98 151.86,271.89 C 150.98,271.80 150.05,271.71 149.06,271.62 C 148.08,271.54 146.93,271.47 145.94,271.38 C 144.94,271.28 143.99,271.18 143.08,271.06 C 142.17,270.95 141.30,270.82 140.48,270.69 C 139.66,270.55 138.89,270.41 138.16,270.25 C 137.42,270.09 136.74,269.93 136.09,269.75 C 135.45,269.57 134.85,269.39 134.30,269.19 C 133.74,268.99 133.23,268.78 132.77,268.56 C 132.30,268.34 131.88,268.11 131.50,267.88 C 131.12,267.64 130.84,267.36 130.50,267.12 C 130.16,266.89 129.82,266.67 129.47,266.47 C 129.12,266.27 128.77,266.08 128.41,265.91 C 128.05,265.73 127.68,265.58 127.31,265.44 C 126.94,265.30 126.57,265.17 126.19,265.06 C 125.81,264.95 125.42,264.86 125.03,264.78 C 124.64,264.70 124.24,264.64 123.84,264.59 C 123.44,264.55 123.04,264.52 122.62,264.50 C 122.21,264.48 121.76,264.51 121.38,264.50 C 120.99,264.49 120.63,264.48 120.30,264.47 C 119.97,264.45 119.66,264.43 119.39,264.41 C 119.12,264.38 118.87,264.35 118.66,264.31 C 118.44,264.28 118.25,264.23 118.09,264.19 C 117.93,264.14 117.80,264.09 117.70,264.03 C 117.60,263.97 117.53,263.91 117.48,263.84 C 117.44,263.78 117.42,263.70 117.44,263.62 C 117.45,263.55 117.51,263.45 117.56,263.38 C 117.62,263.30 117.69,263.22 117.77,263.15 C 117.86,263.08 117.96,263.01 118.07,262.95 C 118.18,262.88 118.31,262.82 118.45,262.77 C 118.60,262.71 118.75,262.66 118.92,262.61 C 119.09,262.56 119.28,262.52 119.48,262.48 C 119.68,262.44 119.89,262.40 120.12,262.37 C 120.35,262.33 120.59,262.31 120.84,262.28 C 121.10,262.26 121.43,262.26 121.66,262.22 C 121.88,262.17 122.05,262.10 122.18,262.01 C 122.31,261.91 122.38,261.79 122.41,261.65 C 122.44,261.50 122.43,261.33 122.36,261.14 C 122.29,260.95 122.18,260.73 122.02,260.48 C 121.85,260.24 121.64,259.97 121.38,259.68 C 121.12,259.39 120.82,259.07 120.46,258.73 C 120.11,258.38 119.70,258.02 119.25,257.62 C 118.80,257.23 118.19,256.79 117.75,256.38 C 117.31,255.96 116.94,255.54 116.62,255.12 C 116.31,254.71 116.06,254.29 115.88,253.88 C 115.69,253.46 115.56,253.04 115.50,252.62 C 115.44,252.21 115.44,251.79 115.50,251.38 C 115.56,250.96 115.69,250.54 115.88,250.12 C 116.06,249.71 116.31,249.29 116.62,248.88 C 116.94,248.46 117.31,248.04 117.75,247.62 C 118.19,247.21 118.80,246.77 119.25,246.38 C 119.70,245.98 120.11,245.62 120.46,245.27 C 120.82,244.93 121.12,244.61 121.38,244.32 C 121.64,244.03 121.85,243.76 122.02,243.52 C 122.18,243.27 122.29,243.05 122.36,242.86 C 122.43,242.67 122.44,242.50 122.41,242.35 C 122.38,242.21 122.31,242.09 122.18,241.99 C 122.05,241.90 121.88,241.83 121.66,241.78 C 121.43,241.74 121.10,241.74 120.84,241.72 C 120.59,241.69 120.35,241.67 120.12,241.63 C 119.89,241.60 119.68,241.56 119.48,241.52 C 119.28,241.48 119.09,241.44 118.92,241.39 C 118.75,241.34 118.60,241.29 118.45,241.23 C 118.31,241.18 118.18,241.12 118.07,241.05 C 117.96,240.99 117.86,240.92 117.77,240.85 C 117.69,240.78 117.62,240.70 117.56,240.62 C 117.51,240.55 117.45,240.45 117.44,240.38 C 117.42,240.30 117.44,240.22 117.48,240.16 C 117.53,240.09 117.60,240.03 117.70,239.97 C 117.80,239.91 117.93,239.86 118.09,239.81 C 118.25,239.77 118.44,239.72 118.66,239.69 C 118.87,239.65 119.12,239.62 119.39,239.59 C 119.66,239.57 119.97,239.55 120.30,239.53 C 120.63,239.52 120.99,239.51 121.38,239.50 C 121.76,239.49 122.22,239.52 122.62,239.50 C 123.03,239.48 123.43,239.45 123.83,239.41 C 124.22,239.36 124.61,239.30 124.98,239.22 C 125.36,239.14 125.73,239.05 126.09,238.94 C 126.46,238.83 126.81,238.70 127.16,238.56 C 127.50,238.42 127.84,238.27 128.17,238.09 C 128.50,237.92 128.83,237.73 129.14,237.53 C 129.46,237.33 129.76,237.11 130.06,236.88 C 130.36,236.64 130.60,236.36 130.94,236.12 C 131.28,235.89 131.66,235.66 132.09,235.44 C 132.53,235.22 133.01,235.01 133.53,234.81 C 134.06,234.61 134.63,234.43 135.25,234.25 C 135.87,234.07 136.54,233.91 137.25,233.75 C 137.96,233.59 138.72,233.45 139.53,233.31 C 140.34,233.18 141.19,233.05 142.09,232.94 C 142.99,232.82 143.94,232.72 144.94,232.62 C 145.93,232.53 147.07,232.46 148.06,232.38 C 149.05,232.29 149.99,232.20 150.88,232.11 C 151.76,232.02 152.59,231.92 153.38,231.83 C 154.16,231.73 154.89,231.63 155.56,231.53 C 156.24,231.43 156.86,231.33 157.44,231.22 C 158.01,231.11 158.53,231.00 159.00,230.89 C 159.47,230.78 159.89,230.66 160.25,230.55 C 160.61,230.43 160.93,230.31 161.19,230.19 C 161.45,230.07 161.61,229.93 161.81,229.81 C 162.02,229.70 162.22,229.59 162.42,229.48 C 162.62,229.38 162.82,229.29 163.02,229.20 C 163.21,229.12 163.40,229.04 163.59,228.97 C 163.78,228.90 163.97,228.84 164.16,228.78 C 164.34,228.73 164.52,228.68 164.70,228.64 C 164.88,228.60 165.06,228.57 165.23,228.55 C 165.41,228.52 165.58,228.51 165.75,228.50 C 165.92,228.49 166.09,228.51 166.25,228.50 C 166.41,228.49 166.56,228.48 166.70,228.47 C 166.85,228.45 166.98,228.43 167.11,228.41 C 167.24,228.38 167.36,228.35 167.47,228.31 C 167.58,228.28 167.68,228.23 167.78,228.19 C 167.88,228.14 167.97,228.09 168.05,228.03 C 168.13,227.97 168.20,227.91 168.27,227.84 C 168.33,227.78 168.39,227.70 168.44,227.62 C 168.49,227.55 168.51,227.45 168.56,227.38 C 168.61,227.30 168.67,227.22 168.73,227.16 C 168.80,227.09 168.87,227.03 168.95,226.97 C 169.03,226.91 169.12,226.86 169.22,226.81 C 169.32,226.77 169.42,226.72 169.53,226.69 C 169.64,226.65 169.76,226.62 169.89,226.59 C 170.02,226.57 170.15,226.55 170.30,226.53 C 170.44,226.52 170.59,226.51 170.75,226.50 C 170.91,226.49 171.09,226.51 171.25,226.50 C 171.41,226.49 171.56,226.48 171.70,226.47 C 171.85,226.45 171.98,226.43 172.11,226.41 C 172.24,226.38 172.36,226.35 172.47,226.31 C 172.58,226.28 172.68,226.23 172.78,226.19 C 172.88,226.14 172.97,226.09 173.05,226.03 C 173.13,225.97 173.20,225.91 173.27,225.84 C 173.33,225.78 173.39,225.70 173.44,225.62 C 173.49,225.55 173.47,225.45 173.56,225.38 C 173.66,225.30 173.80,225.24 174.00,225.19 C 174.20,225.14 174.45,225.09 174.75,225.06 C 175.05,225.03 175.41,225.01 175.81,225.00 C 176.22,224.99 176.68,224.99 177.19,225.00 C 177.70,225.01 178.26,225.03 178.88,225.06 C 179.49,225.09 180.16,225.14 180.88,225.19 C 181.59,225.24 182.36,225.30 183.19,225.38 C 184.01,225.45 184.99,225.54 185.81,225.62 C 186.64,225.71 187.41,225.80 188.13,225.90 C 188.86,225.99 189.53,226.09 190.15,226.20 C 190.77,226.30 191.34,226.40 191.86,226.52 C 192.38,226.63 192.85,226.74 193.27,226.86 C 193.68,226.98 194.05,227.10 194.37,227.23 C 194.68,227.35 194.95,227.48 195.16,227.62 C 195.38,227.75 195.54,227.89 195.66,228.03 C 195.77,228.17 195.79,228.32 195.84,228.47 C 195.90,228.62 195.95,228.77 195.99,228.93 C 196.04,229.09 196.07,229.25 196.10,229.41 C 196.13,229.58 196.15,229.75 196.17,229.92 C 196.19,230.10 196.20,230.27 196.20,230.45 C 196.21,230.63 196.20,230.82 196.20,231.01 C 196.19,231.20 196.17,231.39 196.15,231.59 C 196.13,231.78 196.10,231.98 196.06,232.19 C 196.03,232.39 195.96,232.62 195.94,232.81 C 195.91,233.01 195.90,233.19 195.90,233.37 C 195.90,233.54 195.92,233.70 195.95,233.85 C 195.98,234.00 196.02,234.14 196.08,234.27 C 196.14,234.39 196.21,234.51 196.30,234.61 C 196.38,234.71 196.49,234.80 196.60,234.88 C 196.72,234.96 196.85,235.03 196.99,235.09 C 197.14,235.14 197.30,235.19 197.47,235.22 C 197.64,235.25 197.86,235.27 198.03,235.28 C 198.21,235.29 198.37,235.30 198.52,235.30 C 198.66,235.29 198.80,235.28 198.92,235.27 C 199.04,235.25 199.15,235.22 199.25,235.19 C 199.35,235.15 199.43,235.11 199.50,235.06 C 199.57,235.01 199.63,234.96 199.67,234.89 C 199.72,234.83 199.75,234.75 199.77,234.67 C 199.78,234.59 199.79,234.50 199.78,234.41 C 199.77,234.31 199.73,234.20 199.72,234.09 C 199.71,233.99 199.71,233.89 199.73,233.79 C 199.74,233.69 199.77,233.59 199.80,233.49 C 199.84,233.39 199.89,233.30 199.95,233.20 C 200.01,233.11 200.09,233.01 200.17,232.92 C 200.26,232.83 200.35,232.74 200.46,232.65 C 200.57,232.56 200.69,232.47 200.82,232.38 C 200.95,232.30 201.10,232.21 201.25,232.12 C 201.40,232.04 201.59,232.00 201.75,231.88 C 201.91,231.75 202.05,231.58 202.19,231.36 C 202.32,231.14 202.45,230.88 202.56,230.58 C 202.68,230.27 202.78,229.92 202.88,229.53 C 202.97,229.14 203.05,228.70 203.12,228.22 C 203.20,227.74 203.26,227.21 203.31,226.64 C 203.36,226.07 203.41,225.46 203.44,224.80 C 203.47,224.14 203.49,223.43 203.50,222.69 C 203.51,221.94 203.51,221.06 203.50,220.31 C 203.49,219.56 203.48,218.85 203.45,218.19 C 203.43,217.52 203.40,216.90 203.36,216.31 C 203.32,215.73 203.27,215.19 203.22,214.69 C 203.16,214.19 203.10,213.73 203.03,213.31 C 202.96,212.90 202.88,212.52 202.80,212.19 C 202.71,211.85 202.62,211.56 202.52,211.31 C 202.41,211.06 202.30,210.85 202.19,210.69 C 202.07,210.52 201.89,210.43 201.81,210.31 C 201.73,210.19 201.70,210.08 201.71,209.98 C 201.72,209.87 201.78,209.77 201.88,209.68 C 201.99,209.59 202.13,209.50 202.33,209.42 C 202.52,209.34 202.76,209.27 203.05,209.20 C 203.33,209.14 203.66,209.08 204.04,209.02 C 204.42,208.97 204.84,208.92 205.30,208.88 C 205.77,208.84 206.29,208.81 206.84,208.78 C 207.40,208.75 208.07,208.73 208.66,208.72 C 209.24,208.71 209.81,208.71 210.35,208.73 C 210.90,208.74 211.42,208.77 211.93,208.80 C 212.44,208.84 212.92,208.89 213.39,208.95 C 213.86,209.01 214.31,209.09 214.73,209.17 C 215.16,209.26 215.57,209.35 215.96,209.46 C 216.35,209.57 216.72,209.69 217.07,209.82 C 217.42,209.95 217.75,210.10 218.06,210.25 C 218.37,210.40 218.65,210.65 218.94,210.75 C 219.23,210.85 219.51,210.90 219.80,210.88 C 220.08,210.85 220.36,210.77 220.64,210.62 C 220.92,210.48 221.20,210.27 221.47,210.00 C 221.74,209.73 222.01,209.40 222.28,209.00 C 222.55,208.60 222.82,208.15 223.08,207.62 C 223.34,207.10 223.60,206.52 223.86,205.88 C 224.12,205.23 224.37,204.52 224.62,203.75 C 224.88,202.98 225.07,202.03 225.38,201.25 C 225.68,200.47 226.03,199.74 226.44,199.06 C 226.84,198.39 227.30,197.76 227.81,197.19 C 228.32,196.61 228.89,196.09 229.50,195.62 C 230.11,195.16 230.78,194.74 231.50,194.38 C 232.22,194.01 232.99,193.70 233.81,193.44 C 234.64,193.18 235.51,192.97 236.44,192.81 C 237.36,192.66 238.34,192.55 239.38,192.50 C 240.41,192.45 241.60,192.49 242.62,192.50 C 243.65,192.51 244.61,192.52 245.52,192.55 C 246.42,192.57 247.26,192.60 248.05,192.64 C 248.83,192.68 249.55,192.73 250.22,192.78 C 250.88,192.84 251.49,192.90 252.03,192.97 C 252.58,193.04 253.06,193.12 253.48,193.20 C 253.91,193.29 254.27,193.38 254.58,193.48 C 254.88,193.59 255.13,193.70 255.31,193.81 C 255.50,193.93 255.55,194.07 255.69,194.19 C 255.82,194.31 255.96,194.42 256.11,194.53 C 256.26,194.64 256.41,194.74 256.58,194.84 C 256.74,194.94 256.91,195.04 257.09,195.12 C 257.27,195.21 257.46,195.30 257.66,195.38 C 257.85,195.45 258.05,195.53 258.27,195.59 C 258.48,195.66 258.70,195.72 258.92,195.78 C 259.15,195.84 259.38,195.89 259.62,195.94 C 259.87,195.98 260.05,196.02 260.38,196.06 C 260.70,196.11 261.10,196.16 261.58,196.22 C 262.05,196.28 262.61,196.34 263.23,196.41 C 263.86,196.47 264.57,196.55 265.34,196.62 C 266.12,196.70 266.98,196.79 267.91,196.88 C 268.84,196.96 269.84,197.06 270.92,197.16 C 272.00,197.26 273.16,197.36 274.39,197.47 C 275.62,197.58 276.93,197.69 278.31,197.81 C 279.70,197.93 281.30,198.07 282.69,198.19 C 284.08,198.30 285.39,198.41 286.64,198.52 C 287.89,198.62 289.07,198.71 290.17,198.80 C 291.28,198.88 292.32,198.96 293.28,199.03 C 294.25,199.10 295.14,199.16 295.97,199.22 C 296.79,199.27 297.55,199.32 298.23,199.36 C 298.92,199.40 299.53,199.43 300.08,199.45 C 300.62,199.48 301.10,199.49 301.50,199.50 C 301.90,199.51 302.18,199.51 302.50,199.50 C 302.82,199.49 303.12,199.48 303.41,199.47 C 303.69,199.45 303.96,199.43 304.22,199.41 C 304.47,199.38 304.71,199.35 304.94,199.31 C 305.16,199.28 305.37,199.23 305.56,199.19 C 305.76,199.14 305.93,199.09 306.09,199.03 C 306.26,198.97 306.40,198.91 306.53,198.84 C 306.66,198.78 306.78,198.70 306.88,198.62 C 306.97,198.55 306.98,198.45 307.12,198.38 C 307.27,198.30 307.47,198.24 307.73,198.19 C 308.00,198.14 308.32,198.09 308.70,198.06 C 309.09,198.03 309.53,198.01 310.03,198.00 C 310.53,197.99 311.10,197.99 311.72,198.00 C 312.34,198.01 313.02,198.03 313.77,198.06 C 314.51,198.09 315.31,198.14 316.17,198.19 C 317.03,198.24 317.96,198.30 318.94,198.38 C 319.92,198.45 321.07,198.54 322.06,198.62 C 323.05,198.71 323.99,198.80 324.87,198.90 C 325.75,198.99 326.58,199.09 327.35,199.20 C 328.13,199.30 328.85,199.40 329.52,199.52 C 330.18,199.63 330.80,199.74 331.36,199.86 C 331.92,199.98 332.43,200.10 332.88,200.23 C 333.34,200.35 333.74,200.48 334.09,200.62 C 334.43,200.75 334.73,200.89 334.97,201.03 C 335.21,201.17 335.33,201.27 335.53,201.47 C 335.74,201.67 335.96,201.93 336.20,202.25 C 336.45,202.57 336.71,202.94 336.98,203.38 C 337.26,203.81 337.56,204.30 337.88,204.84 C 338.19,205.39 338.52,205.99 338.88,206.66 C 339.23,207.32 339.60,208.04 339.98,208.81 C 340.37,209.59 340.78,210.42 341.20,211.31 C 341.63,212.20 342.07,213.15 342.53,214.16 C 342.99,215.16 343.47,216.35 343.97,217.34 C 344.47,218.34 344.99,219.26 345.54,220.12 C 346.08,220.97 346.65,221.76 347.24,222.48 C 347.83,223.19 348.44,223.84 349.08,224.42 C 349.71,225.00 350.37,225.51 351.05,225.95 C 351.73,226.39 352.43,226.77 353.15,227.07 C 353.87,227.37 354.62,227.61 355.38,227.77 C 356.15,227.94 356.94,228.04 357.75,228.06 C 358.56,228.09 359.46,227.97 360.25,227.94 C 361.04,227.91 361.78,227.89 362.48,227.88 C 363.18,227.86 363.84,227.86 364.45,227.88 C 365.07,227.89 365.63,227.91 366.16,227.94 C 366.68,227.97 367.16,228.01 367.59,228.06 C 368.03,228.11 368.42,228.18 368.77,228.25 C 369.11,228.32 369.41,228.41 369.67,228.50 C 369.93,228.59 370.14,228.70 370.31,228.81 C 370.48,228.93 370.55,229.07 370.69,229.19 C 370.83,229.31 370.98,229.43 371.15,229.54 C 371.32,229.65 371.50,229.76 371.70,229.87 C 371.89,229.97 372.10,230.07 372.33,230.17 C 372.55,230.27 372.79,230.36 373.05,230.45 C 373.30,230.54 373.57,230.63 373.85,230.71 C 374.13,230.79 374.43,230.87 374.74,230.95 C 375.05,231.02 375.38,231.09 375.72,231.16 C 376.06,231.22 376.45,231.28 376.78,231.34 C 377.11,231.41 377.42,231.47 377.70,231.53 C 377.99,231.59 378.25,231.66 378.48,231.72 C 378.72,231.78 378.93,231.84 379.12,231.91 C 379.32,231.97 379.48,232.03 379.62,232.09 C 379.77,232.16 379.89,232.22 379.98,232.28 C 380.08,232.34 380.15,232.41 380.20,232.47 C 380.25,232.53 380.28,232.59 380.28,232.66 C 380.28,232.72 380.28,232.78 380.22,232.84 C 380.16,232.91 380.07,232.98 379.94,233.05 C 379.81,233.12 379.64,233.19 379.44,233.27 C 379.23,233.34 378.99,233.42 378.72,233.50 C 378.44,233.58 378.13,233.66 377.78,233.75 C 377.43,233.84 377.05,233.92 376.62,234.02 C 376.20,234.11 375.74,234.20 375.25,234.30 C 374.76,234.39 374.22,234.49 373.66,234.59 C 373.09,234.70 372.39,234.78 371.84,234.91 C 371.30,235.04 370.82,235.19 370.39,235.38 C 369.97,235.56 369.60,235.77 369.30,236.00 C 368.99,236.23 368.75,236.49 368.56,236.78 C 368.38,237.07 368.25,237.38 368.19,237.72 C 368.12,238.06 368.12,238.42 368.17,238.81 C 368.23,239.20 368.34,239.62 368.52,240.06 C 368.69,240.51 368.92,240.97 369.22,241.47 C 369.51,241.96 369.92,242.54 370.28,243.03 C 370.64,243.53 371.00,243.99 371.36,244.44 C 371.72,244.88 372.09,245.30 372.45,245.69 C 372.82,246.08 373.19,246.44 373.56,246.78 C 373.93,247.12 374.31,247.43 374.69,247.72 C 375.07,248.01 375.45,248.27 375.83,248.50 C 376.21,248.73 376.60,248.94 376.98,249.12 C 377.37,249.31 377.76,249.46 378.16,249.59 C 378.55,249.72 378.98,249.80 379.34,249.91 C 379.71,250.01 380.05,250.12 380.36,250.23 C 380.67,250.35 380.95,250.46 381.20,250.58 C 381.46,250.70 381.68,250.82 381.88,250.94 C 382.07,251.06 382.24,251.18 382.38,251.31 C 382.51,251.44 382.62,251.57 382.70,251.70 C 382.78,251.84 382.84,251.97 382.86,252.11 C 382.88,252.25 382.88,252.39 382.84,252.53 C 382.81,252.67 382.73,252.83 382.66,252.97 C 382.58,253.11 382.49,253.23 382.38,253.35 C 382.28,253.47 382.16,253.58 382.02,253.68 C 381.89,253.78 381.74,253.87 381.58,253.95 C 381.42,254.04 381.24,254.11 381.05,254.17 C 380.86,254.24 380.65,254.29 380.43,254.34 C 380.21,254.38 379.98,254.42 379.73,254.45 C 379.48,254.47 379.21,254.49 378.94,254.50 C 378.66,254.51 378.36,254.46 378.06,254.50 C 377.76,254.54 377.46,254.61 377.15,254.71 C 376.84,254.82 376.52,254.96 376.20,255.13 C 375.87,255.31 375.54,255.52 375.20,255.77 C 374.87,256.01 374.52,256.29 374.17,256.61 C 373.82,256.93 373.46,257.28 373.10,257.66 C 372.74,258.05 372.37,258.47 371.99,258.93 C 371.62,259.39 371.23,259.88 370.84,260.41 C 370.45,260.93 369.99,261.56 369.66,262.09 C 369.32,262.63 369.05,263.13 368.84,263.61 C 368.64,264.09 368.49,264.53 368.41,264.95 C 368.32,265.37 368.30,265.76 368.34,266.12 C 368.39,266.49 368.49,266.82 368.66,267.12 C 368.82,267.43 369.05,267.71 369.34,267.95 C 369.64,268.20 369.99,268.42 370.41,268.61 C 370.82,268.80 371.30,268.96 371.84,269.09 C 372.39,269.23 373.09,269.30 373.66,269.41 C 374.22,269.51 374.76,269.61 375.25,269.70 C 375.74,269.80 376.20,269.89 376.62,269.98 C 377.05,270.08 377.43,270.16 377.78,270.25 C 378.13,270.34 378.44,270.42 378.72,270.50 C 378.99,270.58 379.23,270.66 379.44,270.73 C 379.64,270.81 379.81,270.88 379.94,270.95 C 380.07,271.02 380.16,271.09 380.22,271.16 C 380.28,271.22 380.28,271.28 380.28,271.34 C 380.28,271.41 380.25,271.47 380.20,271.53 C 380.15,271.59 380.08,271.66 379.98,271.72 C 379.89,271.78 379.77,271.84 379.62,271.91 C 379.48,271.97 379.32,272.03 379.12,272.09 C 378.93,272.16 378.72,272.22 378.48,272.28 C 378.25,272.34 377.99,272.41 377.70,272.47 C 377.42,272.53 377.11,272.59 376.78,272.66 C 376.45,272.72 376.06,272.78 375.72,272.84 C 375.38,272.91 375.06,272.97 374.76,273.04 C 374.45,273.11 374.17,273.17 373.90,273.24 C 373.63,273.31 373.38,273.38 373.14,273.45 C 372.90,273.52 372.69,273.60 372.48,273.67 C 372.28,273.75 372.10,273.82 371.93,273.90 C 371.76,273.98 371.61,274.05 371.48,274.13 C 371.34,274.21 371.23,274.29 371.12,274.38 C 371.02,274.46 371.01,274.55 370.88,274.62 C 370.74,274.70 370.56,274.78 370.33,274.84 C 370.10,274.91 369.82,274.97 369.48,275.03 C 369.15,275.09 368.77,275.14 368.34,275.19 C 367.91,275.23 367.43,275.28 366.91,275.31 C 366.38,275.35 365.80,275.38 365.17,275.41 C 364.54,275.43 363.87,275.45 363.14,275.47 C 362.41,275.48 361.64,275.49 360.81,275.50 C 359.99,275.51 359.04,275.43 358.19,275.50 C 357.33,275.57 356.49,275.72 355.67,275.94 C 354.85,276.16 354.05,276.45 353.27,276.81 C 352.48,277.18 351.72,277.61 350.97,278.12 C 350.22,278.64 349.49,279.22 348.78,279.88 C 348.07,280.53 347.38,281.26 346.70,282.06 C 346.03,282.86 345.37,283.74 344.73,284.69 C 344.10,285.64 343.48,286.66 342.88,287.75 C 342.27,288.84 341.73,290.15 341.12,291.25 C 340.52,292.35 339.90,293.39 339.25,294.36 C 338.60,295.33 337.94,296.24 337.25,297.08 C 336.56,297.92 335.85,298.70 335.12,299.41 C 334.40,300.12 333.65,300.76 332.88,301.34 C 332.10,301.92 331.31,302.44 330.50,302.89 C 329.69,303.34 328.85,303.73 328.00,304.05 C 327.15,304.37 326.27,304.62 325.38,304.81 C 324.48,305.00 323.50,305.07 322.62,305.19 C 321.75,305.30 320.92,305.41 320.14,305.52 C 319.36,305.62 318.62,305.71 317.92,305.80 C 317.23,305.88 316.58,305.96 315.97,306.03 C 315.36,306.10 314.80,306.16 314.28,306.22 C 313.76,306.27 313.29,306.32 312.86,306.36 C 312.43,306.40 312.04,306.43 311.70,306.45 C 311.36,306.48 311.07,306.49 310.81,306.50 C 310.56,306.51 310.39,306.51 310.19,306.50 C 309.99,306.49 309.79,306.48 309.61,306.47 C 309.42,306.45 309.25,306.43 309.08,306.41 C 308.91,306.38 308.75,306.35 308.59,306.31 C 308.44,306.28 308.29,306.23 308.16,306.19 C 308.02,306.14 307.89,306.09 307.77,306.03 C 307.64,305.97 307.53,305.91 307.42,305.84 C 307.32,305.78 307.22,305.70 307.12,305.62 C 307.03,305.55 307.04,305.45 306.88,305.38 C 306.71,305.30 306.46,305.24 306.12,305.19 C 305.79,305.14 305.38,305.09 304.88,305.06 C 304.38,305.03 303.79,305.01 303.12,305.00 C 302.46,304.99 301.71,304.99 300.88,305.00 C 300.04,305.01 299.12,305.03 298.12,305.06 C 297.12,305.09 296.04,305.14 294.88,305.19 C 293.71,305.24 292.46,305.30 291.12,305.38 C 289.79,305.45 288.24,305.54 286.88,305.62 C 285.51,305.71 284.19,305.79 282.92,305.88 C 281.65,305.96 280.43,306.04 279.27,306.12 C 278.10,306.21 276.98,306.29 275.91,306.38 C 274.84,306.46 273.82,306.54 272.84,306.62 C 271.87,306.71 270.95,306.79 270.08,306.88 C 269.21,306.96 268.38,307.04 267.61,307.12 C 266.84,307.21 266.11,307.29 265.44,307.38 C 264.76,307.46 264.16,307.54 263.56,307.62 C 262.97,307.71 262.41,307.80 261.88,307.89 C 261.34,307.98 260.84,308.08 260.38,308.17 C 259.91,308.27 259.47,308.37 259.06,308.47 C 258.66,308.57 258.28,308.67 257.94,308.78 C 257.59,308.89 257.28,309.00 257.00,309.11 C 256.72,309.22 256.47,309.34 256.25,309.45 C 256.03,309.57 255.84,309.69 255.69,309.81 C 255.53,309.93 255.50,310.07 255.31,310.19 C 255.13,310.30 254.88,310.41 254.58,310.52 C 254.27,310.62 253.91,310.71 253.48,310.80 C 253.06,310.88 252.58,310.96 252.03,311.03 C 251.49,311.10 250.88,311.16 250.22,311.22 C 249.55,311.27 248.83,311.32 248.05,311.36 C 247.26,311.40 246.42,311.43 245.52,311.45 C 244.61,311.48 243.65,311.49 242.62,311.50 Z" fill="none" stroke="currentColor" stroke-width="1.5" stroke-linejoin="round" stroke-linecap="round" filter="url(#glow)" />
</svg>