<svg xmlns="http://www.w3.org/2000/svg" width="512" height="512" viewBox="115.45 158.23 278.85 171.24" preserveAspectRatio="xMidYMid meet">
  <defs>
    <filter id="glow" x="-30%" y="-30%" width="160%" height="160%">
      <feGaussianBlur in="SourceGraphic" stdDeviation="2.4" result="blur" />
      <feMerge>
        <feMergeNode in="blur" />
        <feMergeNode in="SourceGraphic" />
      </feMerge>
    </filter>
    <clipPath id="hull-clip">
      <path d="M 323.94,315.06 C 322.37,315.03 320.58,314.98 319.06,314.94 C 317.54,314.89 316.12,314.85 314.80,314.80 C 313.49,314.76 312.27,314.71 311.16,314.66 C 310.05,314.62 309.05,314.57 308.14,314.52 C 307.24,314.46 306.43,314.41 305.73,314.36 C 305.04,314.31 304.44,314.25 303.95,314.20 C 303.45,314.14 303.06,314.08 302.77,314.02 C 302.49,313.96 302.30,313.90 302.22,313.84 C 302.14,313.78 302.28,313.73 302.28,313.66 C 302.28,313.58 302.27,313.48 302.23,313.38 C 302.20,313.27 302.15,313.14 302.08,313.00 C 302.01,312.86 301.92,312.70 301.81,312.53 C 301.71,312.36 301.58,312.17 301.44,311.97 C 301.29,311.77 301.13,311.55 300.95,311.31 C 300.77,311.08 300.58,310.83 300.36,310.56 C 300.14,310.30 299.91,310.02 299.66,309.72 C 299.40,309.42 299.18,309.10 298.84,308.78 C 298.51,308.46 298.10,308.13 297.63,307.79 C 297.16,307.45 296.63,307.10 296.02,306.74 C 295.42,306.38 294.75,306.02 294.02,305.64 C 293.28,305.26 292.48,304.88 291.61,304.48 C 290.74,304.09 289.81,303.69 288.80,303.27 C 287.80,302.86 286.74,302.44 285.60,302.01 C 284.47,301.58 283.27,301.14 282.00,300.69 C 280.73,300.24 279.29,299.74 278.00,299.31 C 276.71,298.89 275.47,298.49 274.28,298.12 C 273.09,297.76 271.94,297.43 270.84,297.12 C 269.74,296.82 268.69,296.55 267.69,296.31 C 266.68,296.07 265.72,295.86 264.81,295.69 C 263.90,295.51 263.04,295.36 262.22,295.25 C 261.40,295.14 260.63,295.05 259.91,295.00 C 259.18,294.95 258.51,294.93 257.88,294.94 C 257.24,294.95 256.96,295.10 256.12,295.06 C 255.29,295.02 254.21,294.90 252.88,294.69 C 251.54,294.48 249.96,294.19 248.12,293.81 C 246.29,293.44 244.21,292.98 241.88,292.44 C 239.54,291.90 236.96,291.27 234.12,290.56 C 231.29,289.85 228.21,289.06 224.88,288.19 C 221.54,287.31 217.96,286.35 214.12,285.31 C 210.29,284.27 206.21,283.15 201.88,281.94 C 197.54,280.73 192.42,279.28 188.12,278.06 C 183.83,276.85 179.82,275.71 176.09,274.64 C 172.37,273.58 168.93,272.59 165.78,271.67 C 162.63,270.76 159.77,269.92 157.19,269.16 C 154.61,268.39 152.32,267.71 150.31,267.09 C 148.31,266.48 146.59,265.95 145.16,265.48 C 143.72,265.02 142.58,264.64 141.72,264.33 C 140.86,264.02 140.29,263.78 140.00,263.62 C 139.71,263.47 139.97,263.45 140.00,263.38 C 140.03,263.30 140.08,263.22 140.16,263.15 C 140.25,263.08 140.36,263.01 140.49,262.95 C 140.63,262.88 140.79,262.82 140.98,262.77 C 141.18,262.71 141.39,262.66 141.64,262.61 C 141.89,262.56 142.16,262.52 142.46,262.48 C 142.76,262.44 143.09,262.40 143.45,262.37 C 143.80,262.33 144.18,262.31 144.59,262.28 C 145.00,262.26 145.51,262.25 145.91,262.22 C 146.30,262.19 146.65,262.15 146.95,262.11 C 147.26,262.07 147.52,262.01 147.73,261.95 C 147.95,261.89 148.12,261.83 148.25,261.75 C 148.38,261.67 148.46,261.59 148.50,261.50 C 148.54,261.41 148.53,261.31 148.48,261.20 C 148.43,261.10 148.34,260.98 148.20,260.86 C 148.07,260.74 147.88,260.61 147.66,260.47 C 147.43,260.33 147.12,260.17 146.84,260.03 C 146.57,259.89 146.28,259.77 145.99,259.65 C 145.70,259.53 145.40,259.42 145.10,259.32 C 144.80,259.22 144.49,259.13 144.17,259.05 C 143.86,258.96 143.53,258.89 143.20,258.83 C 142.87,258.76 142.54,258.71 142.20,258.66 C 141.85,258.62 141.50,258.58 141.15,258.55 C 140.79,258.53 140.43,258.51 140.06,258.50 C 139.69,258.49 139.29,258.51 138.94,258.50 C 138.59,258.49 138.27,258.48 137.97,258.47 C 137.67,258.45 137.40,258.43 137.16,258.41 C 136.91,258.38 136.69,258.35 136.50,258.31 C 136.31,258.28 136.14,258.23 136.00,258.19 C 135.86,258.14 135.74,258.09 135.66,258.03 C 135.57,257.97 135.51,257.91 135.47,257.84 C 135.43,257.78 135.42,257.70 135.44,257.62 C 135.45,257.55 135.49,257.45 135.56,257.38 C 135.64,257.30 135.75,257.22 135.89,257.16 C 136.03,257.09 136.21,257.03 136.42,256.97 C 136.63,256.91 136.88,256.86 137.16,256.81 C 137.43,256.77 137.75,256.72 138.09,256.69 C 138.44,256.65 138.82,256.62 139.23,256.59 C 139.65,256.57 140.10,256.55 140.58,256.53 C 141.06,256.52 141.58,256.51 142.12,256.50 C 142.67,256.49 143.32,256.50 143.88,256.50 C 144.43,256.50 144.94,256.49 145.43,256.48 C 145.92,256.46 146.37,256.45 146.79,256.43 C 147.21,256.41 147.60,256.39 147.95,256.36 C 148.31,256.33 148.63,256.30 148.92,256.27 C 149.21,256.23 149.47,256.19 149.70,256.15 C 149.92,256.11 150.11,256.06 150.27,256.01 C 150.43,255.96 150.56,255.90 150.66,255.84 C 150.75,255.79 150.84,255.73 150.84,255.66 C 150.85,255.58 150.79,255.50 150.66,255.41 C 150.54,255.32 150.36,255.23 150.12,255.12 C 149.87,255.01 149.57,254.89 149.20,254.77 C 148.84,254.64 148.41,254.50 147.92,254.36 C 147.43,254.21 146.88,254.06 146.27,253.90 C 145.66,253.74 144.99,253.56 144.26,253.38 C 143.52,253.20 142.73,253.01 141.88,252.81 C 141.02,252.61 139.98,252.42 139.12,252.19 C 138.27,251.96 137.47,251.70 136.73,251.43 C 135.99,251.15 135.30,250.86 134.68,250.54 C 134.06,250.22 133.49,249.88 132.98,249.52 C 132.48,249.15 132.03,248.77 131.64,248.36 C 131.25,247.95 130.92,247.52 130.65,247.07 C 130.38,246.62 130.16,246.14 130.01,245.65 C 129.85,245.15 129.76,244.63 129.72,244.09 C 129.68,243.55 129.71,242.94 129.78,242.41 C 129.86,241.87 129.99,241.36 130.17,240.88 C 130.36,240.39 130.60,239.93 130.89,239.50 C 131.18,239.07 131.53,238.66 131.94,238.28 C 132.34,237.90 132.80,237.55 133.31,237.22 C 133.83,236.89 134.39,236.59 135.02,236.31 C 135.64,236.04 136.32,235.79 137.05,235.56 C 137.78,235.34 138.57,235.14 139.41,234.97 C 140.25,234.80 141.26,234.67 142.09,234.53 C 142.92,234.39 143.69,234.25 144.39,234.11 C 145.09,233.97 145.73,233.84 146.30,233.70 C 146.87,233.57 147.37,233.44 147.81,233.31 C 148.25,233.18 148.63,233.06 148.94,232.94 C 149.25,232.82 149.49,232.70 149.67,232.58 C 149.85,232.46 149.97,232.35 150.02,232.23 C 150.07,232.12 150.05,232.01 149.97,231.91 C 149.89,231.80 149.70,231.69 149.53,231.59 C 149.36,231.50 149.17,231.40 148.96,231.32 C 148.75,231.24 148.51,231.16 148.26,231.09 C 148.00,231.01 147.72,230.95 147.42,230.89 C 147.12,230.83 146.80,230.78 146.45,230.73 C 146.11,230.69 145.74,230.65 145.35,230.62 C 144.96,230.58 144.55,230.56 144.12,230.54 C 143.68,230.52 143.23,230.51 142.75,230.50 C 142.27,230.49 141.72,230.51 141.25,230.50 C 140.78,230.49 140.34,230.48 139.92,230.47 C 139.51,230.45 139.12,230.43 138.77,230.41 C 138.41,230.38 138.08,230.35 137.78,230.31 C 137.48,230.28 137.21,230.23 136.97,230.19 C 136.73,230.14 136.51,230.09 136.33,230.03 C 136.14,229.97 135.99,229.91 135.86,229.84 C 135.73,229.78 135.63,229.70 135.56,229.62 C 135.49,229.55 135.45,229.45 135.44,229.38 C 135.43,229.30 135.46,229.22 135.52,229.16 C 135.58,229.09 135.67,229.03 135.80,228.97 C 135.92,228.91 136.09,228.86 136.28,228.81 C 136.48,228.77 136.71,228.72 136.97,228.69 C 137.23,228.65 137.53,228.62 137.86,228.59 C 138.19,228.57 138.55,228.55 138.95,228.53 C 139.35,228.52 139.78,228.51 140.25,228.50 C 140.72,228.49 141.27,228.51 141.75,228.50 C 142.23,228.49 142.68,228.48 143.12,228.46 C 143.55,228.44 143.96,228.42 144.35,228.38 C 144.74,228.35 145.11,228.31 145.45,228.27 C 145.80,228.22 146.12,228.17 146.42,228.11 C 146.72,228.05 147.00,227.99 147.26,227.91 C 147.51,227.84 147.75,227.76 147.96,227.68 C 148.17,227.60 148.36,227.50 148.53,227.41 C 148.70,227.31 148.83,227.20 148.97,227.09 C 149.10,226.99 149.23,226.89 149.34,226.80 C 149.46,226.70 149.56,226.61 149.66,226.52 C 149.75,226.42 149.83,226.34 149.91,226.25 C 149.98,226.16 150.04,226.08 150.09,226.00 C 150.15,225.92 150.19,225.84 150.22,225.77 C 150.25,225.69 150.27,225.62 150.28,225.55 C 150.29,225.48 150.29,225.41 150.28,225.34 C 150.27,225.28 150.26,225.21 150.22,225.16 C 150.17,225.10 150.10,225.04 150.01,224.99 C 149.91,224.94 149.79,224.89 149.65,224.85 C 149.50,224.81 149.33,224.77 149.14,224.73 C 148.95,224.70 148.73,224.67 148.48,224.64 C 148.24,224.61 147.97,224.59 147.68,224.57 C 147.39,224.55 147.07,224.54 146.73,224.52 C 146.38,224.51 146.02,224.50 145.62,224.50 C 145.23,224.50 144.76,224.51 144.38,224.50 C 143.99,224.49 143.63,224.48 143.30,224.47 C 142.97,224.45 142.66,224.43 142.39,224.41 C 142.12,224.38 141.87,224.35 141.66,224.31 C 141.44,224.28 141.25,224.23 141.09,224.19 C 140.93,224.14 140.80,224.09 140.70,224.03 C 140.60,223.97 140.53,223.91 140.48,223.84 C 140.44,223.78 140.42,223.70 140.44,223.62 C 140.45,223.55 140.32,223.51 140.56,223.38 C 140.81,223.24 141.26,223.05 141.91,222.81 C 142.56,222.57 143.41,222.28 144.47,221.94 C 145.53,221.59 146.79,221.20 148.25,220.75 C 149.71,220.30 151.38,219.80 153.25,219.25 C 155.12,218.70 157.19,218.09 159.47,217.44 C 161.74,216.78 164.22,216.07 166.91,215.31 C 169.59,214.55 172.47,213.74 175.56,212.88 C 178.65,212.01 182.27,211.01 185.44,210.12 C 188.60,209.24 191.64,208.39 194.55,207.58 C 197.46,206.76 200.24,205.98 202.89,205.23 C 205.54,204.49 208.07,203.77 210.47,203.09 C 212.87,202.41 215.14,201.77 217.28,201.16 C 219.42,200.54 221.44,199.97 223.33,199.42 C 225.22,198.88 226.98,198.37 228.61,197.89 C 230.24,197.41 231.75,196.97 233.12,196.56 C 234.50,196.15 235.67,195.79 236.88,195.44 C 238.08,195.09 239.25,194.77 240.38,194.47 C 241.50,194.17 242.58,193.90 243.62,193.66 C 244.67,193.41 245.67,193.19 246.62,193.00 C 247.58,192.81 248.50,192.64 249.38,192.50 C 250.25,192.36 251.08,192.24 251.88,192.16 C 252.67,192.07 253.42,192.01 254.12,191.97 C 254.83,191.93 255.50,191.92 256.12,191.94 C 256.75,191.95 257.25,192.05 257.88,192.06 C 258.50,192.08 259.16,192.07 259.86,192.03 C 260.56,191.99 261.30,191.93 262.08,191.84 C 262.86,191.76 263.67,191.64 264.53,191.50 C 265.39,191.36 266.28,191.19 267.22,191.00 C 268.15,190.81 269.13,190.59 270.14,190.34 C 271.15,190.10 272.21,189.83 273.30,189.53 C 274.39,189.23 275.52,188.91 276.69,188.56 C 277.86,188.21 279.16,187.82 280.31,187.44 C 281.47,187.06 282.57,186.67 283.62,186.28 C 284.68,185.89 285.68,185.49 286.62,185.09 C 287.57,184.69 288.47,184.29 289.31,183.88 C 290.16,183.46 290.95,183.05 291.69,182.62 C 292.43,182.20 293.11,181.78 293.75,181.34 C 294.39,180.91 294.97,180.47 295.50,180.03 C 296.03,179.59 296.51,179.14 296.94,178.69 C 297.36,178.23 297.57,177.74 298.06,177.31 C 298.55,176.88 299.16,176.48 299.89,176.11 C 300.62,175.74 301.46,175.39 302.42,175.08 C 303.38,174.76 304.46,174.48 305.66,174.22 C 306.85,173.96 308.16,173.73 309.59,173.53 C 311.02,173.33 312.57,173.16 314.23,173.02 C 315.90,172.87 317.68,172.76 319.58,172.67 C 321.48,172.59 323.49,172.53 325.62,172.50 C 327.76,172.47 330.27,172.49 332.38,172.50 C 334.48,172.51 336.45,172.52 338.28,172.53 C 340.11,172.55 341.80,172.57 343.34,172.59 C 344.89,172.62 346.30,172.65 347.56,172.69 C 348.83,172.72 349.95,172.77 350.94,172.81 C 351.92,172.86 352.77,172.91 353.47,172.97 C 354.17,173.03 354.73,173.09 355.16,173.16 C 355.58,173.22 355.86,173.30 356.00,173.38 C 356.14,173.45 356.04,173.54 356.00,173.62 C 355.96,173.71 355.89,173.78 355.78,173.86 C 355.67,173.93 355.53,174.01 355.34,174.08 C 355.16,174.15 354.94,174.22 354.69,174.28 C 354.43,174.35 354.14,174.41 353.81,174.47 C 353.48,174.53 353.12,174.59 352.72,174.64 C 352.32,174.70 351.88,174.75 351.41,174.80 C 350.93,174.85 350.42,174.89 349.88,174.94 C 349.33,174.98 348.67,175.02 348.12,175.06 C 347.58,175.11 347.06,175.15 346.59,175.20 C 346.11,175.24 345.67,175.29 345.26,175.34 C 344.85,175.38 344.48,175.43 344.14,175.48 C 343.80,175.54 343.50,175.59 343.23,175.64 C 342.97,175.69 342.74,175.75 342.54,175.80 C 342.34,175.86 342.18,175.92 342.05,175.98 C 341.93,176.04 341.84,176.10 341.78,176.16 C 341.73,176.22 341.68,176.23 341.72,176.34 C 341.75,176.46 341.84,176.62 341.98,176.83 C 342.13,177.04 342.33,177.30 342.58,177.61 C 342.83,177.92 343.14,178.28 343.50,178.69 C 343.86,179.10 344.28,179.55 344.75,180.06 C 345.22,180.57 345.75,181.13 346.33,181.73 C 346.91,182.34 347.54,183.00 348.23,183.70 C 348.92,184.41 349.67,185.16 350.47,185.97 C 351.27,186.77 352.22,187.72 353.03,188.53 C 353.84,189.34 354.61,190.10 355.34,190.81 C 356.07,191.53 356.76,192.19 357.41,192.81 C 358.05,193.43 358.66,194.01 359.22,194.53 C 359.78,195.06 360.30,195.54 360.78,195.97 C 361.26,196.40 361.70,196.79 362.09,197.12 C 362.49,197.46 362.84,197.76 363.16,198.00 C 363.47,198.24 363.74,198.44 363.97,198.59 C 364.20,198.74 364.36,198.80 364.53,198.91 C 364.71,199.01 364.87,199.12 365.02,199.23 C 365.18,199.33 365.32,199.44 365.45,199.55 C 365.57,199.67 365.69,199.78 365.80,199.89 C 365.90,200.00 366.00,200.12 366.08,200.23 C 366.16,200.35 366.23,200.47 366.29,200.59 C 366.35,200.70 366.39,200.82 366.43,200.95 C 366.46,201.07 366.49,201.19 366.50,201.31 C 366.51,201.44 366.49,201.56 366.50,201.69 C 366.51,201.81 366.52,201.93 366.54,202.05 C 366.56,202.18 366.58,202.30 366.62,202.41 C 366.65,202.53 366.69,202.65 366.73,202.77 C 366.78,202.88 366.83,203.00 366.89,203.11 C 366.95,203.22 367.01,203.33 367.09,203.45 C 367.16,203.56 367.24,203.67 367.32,203.77 C 367.40,203.88 367.50,203.99 367.59,204.09 C 367.69,204.20 367.78,204.29 367.91,204.41 C 368.03,204.52 368.18,204.64 368.36,204.77 C 368.53,204.89 368.73,205.03 368.95,205.17 C 369.17,205.32 369.42,205.47 369.69,205.62 C 369.96,205.78 370.25,205.95 370.56,206.12 C 370.88,206.30 371.22,206.48 371.58,206.67 C 371.94,206.86 372.33,207.06 372.73,207.27 C 373.14,207.47 373.58,207.68 374.03,207.91 C 374.49,208.13 375.02,208.37 375.47,208.59 C 375.91,208.82 376.33,209.03 376.70,209.23 C 377.08,209.44 377.42,209.64 377.73,209.83 C 378.04,210.02 378.32,210.20 378.56,210.38 C 378.80,210.55 379.01,210.72 379.19,210.88 C 379.36,211.03 379.50,211.18 379.61,211.33 C 379.72,211.47 379.79,211.61 379.83,211.73 C 379.87,211.86 379.87,211.98 379.84,212.09 C 379.82,212.21 379.74,212.31 379.66,212.41 C 379.57,212.50 379.47,212.60 379.35,212.68 C 379.23,212.76 379.09,212.84 378.93,212.91 C 378.77,212.99 378.59,213.05 378.39,213.11 C 378.19,213.17 377.97,213.22 377.73,213.27 C 377.50,213.31 377.24,213.35 376.96,213.38 C 376.68,213.42 376.39,213.44 376.07,213.46 C 375.75,213.48 375.42,213.49 375.06,213.50 C 374.71,213.51 374.30,213.49 373.94,213.50 C 373.57,213.51 373.22,213.52 372.88,213.53 C 372.53,213.55 372.20,213.57 371.88,213.59 C 371.55,213.62 371.24,213.65 370.94,213.69 C 370.64,213.72 370.34,213.77 370.06,213.81 C 369.78,213.86 369.51,213.91 369.25,213.97 C 368.99,214.03 368.74,214.09 368.50,214.16 C 368.26,214.22 368.03,214.30 367.81,214.38 C 367.59,214.45 367.39,214.54 367.19,214.62 C 366.99,214.71 366.79,214.80 366.61,214.89 C 366.42,214.98 366.25,215.08 366.08,215.17 C 365.91,215.27 365.75,215.37 365.59,215.47 C 365.44,215.57 365.29,215.67 365.16,215.78 C 365.02,215.89 364.89,216.00 364.77,216.11 C 364.64,216.22 364.53,216.34 364.42,216.45 C 364.32,216.57 364.22,216.69 364.12,216.81 C 364.03,216.93 363.99,217.06 363.88,217.19 C 363.76,217.31 363.63,217.43 363.46,217.55 C 363.30,217.68 363.10,217.80 362.88,217.91 C 362.66,218.03 362.42,218.15 362.14,218.27 C 361.87,218.38 361.56,218.50 361.23,218.61 C 360.90,218.72 360.55,218.83 360.16,218.95 C 359.78,219.06 359.37,219.17 358.93,219.27 C 358.49,219.38 358.02,219.49 357.53,219.59 C 357.04,219.70 356.46,219.80 355.97,219.91 C 355.48,220.01 355.03,220.11 354.61,220.20 C 354.19,220.30 353.80,220.39 353.45,220.48 C 353.10,220.58 352.78,220.66 352.50,220.75 C 352.22,220.84 351.97,220.92 351.75,221.00 C 351.53,221.08 351.35,221.16 351.20,221.23 C 351.05,221.31 350.94,221.38 350.86,221.45 C 350.78,221.52 350.73,221.59 350.72,221.66 C 350.71,221.72 350.71,221.77 350.78,221.84 C 350.85,221.92 350.96,222.00 351.12,222.09 C 351.29,222.19 351.49,222.29 351.75,222.41 C 352.01,222.52 352.31,222.65 352.66,222.78 C 353.01,222.92 353.40,223.06 353.84,223.22 C 354.29,223.38 354.78,223.54 355.31,223.72 C 355.85,223.90 356.43,224.08 357.06,224.28 C 357.69,224.48 358.37,224.69 359.09,224.91 C 359.82,225.12 360.68,225.32 361.41,225.59 C 362.13,225.87 362.81,226.18 363.45,226.54 C 364.08,226.90 364.67,227.30 365.21,227.74 C 365.75,228.19 366.25,228.67 366.70,229.20 C 367.15,229.73 367.56,230.31 367.92,230.92 C 368.28,231.54 368.60,232.20 368.87,232.90 C 369.14,233.60 369.36,234.35 369.54,235.13 C 369.72,235.92 369.85,236.75 369.94,237.62 C 370.02,238.50 370.03,239.49 370.06,240.38 C 370.10,241.26 370.13,242.12 370.15,242.95 C 370.17,243.77 370.19,244.57 370.20,245.34 C 370.20,246.10 370.21,246.84 370.20,247.55 C 370.20,248.25 370.19,248.93 370.17,249.58 C 370.15,250.23 370.13,250.84 370.10,251.43 C 370.07,252.02 370.04,252.57 369.99,253.10 C 369.95,253.63 369.90,254.13 369.84,254.59 C 369.79,255.06 369.76,255.48 369.66,255.91 C 369.55,256.33 369.41,256.74 369.22,257.14 C 369.03,257.54 368.80,257.92 368.53,258.30 C 368.26,258.67 367.95,259.03 367.59,259.38 C 367.24,259.72 366.84,260.05 366.41,260.38 C 365.97,260.70 365.49,261.00 364.97,261.30 C 364.45,261.59 363.89,261.87 363.28,262.14 C 362.68,262.41 362.03,262.66 361.34,262.91 C 360.66,263.15 359.81,263.37 359.16,263.59 C 358.50,263.82 357.92,264.04 357.42,264.25 C 356.92,264.46 356.49,264.67 356.14,264.88 C 355.79,265.08 355.51,265.28 355.31,265.47 C 355.11,265.66 354.99,265.85 354.94,266.03 C 354.89,266.21 354.91,266.39 355.02,266.56 C 355.12,266.73 355.29,266.90 355.55,267.06 C 355.80,267.22 356.13,267.38 356.53,267.53 C 356.93,267.68 357.50,267.82 357.97,267.97 C 358.43,268.12 358.88,268.26 359.32,268.41 C 359.76,268.56 360.18,268.71 360.59,268.87 C 360.99,269.02 361.39,269.17 361.77,269.33 C 362.14,269.48 362.51,269.64 362.86,269.80 C 363.21,269.95 363.55,270.11 363.87,270.27 C 364.19,270.43 364.50,270.60 364.79,270.76 C 365.08,270.92 365.36,271.08 365.62,271.25 C 365.89,271.42 366.11,271.59 366.38,271.75 C 366.64,271.91 366.91,272.05 367.19,272.19 C 367.47,272.32 367.76,272.45 368.06,272.56 C 368.36,272.68 368.68,272.78 369.00,272.88 C 369.32,272.97 369.66,273.05 370.00,273.12 C 370.34,273.20 370.70,273.26 371.06,273.31 C 371.43,273.36 371.80,273.41 372.19,273.44 C 372.57,273.47 372.97,273.49 373.38,273.50 C 373.78,273.51 374.23,273.50 374.62,273.50 C 375.02,273.50 375.39,273.51 375.74,273.52 C 376.09,273.54 376.42,273.55 376.73,273.57 C 377.03,273.59 377.32,273.61 377.58,273.64 C 377.84,273.67 378.08,273.70 378.30,273.73 C 378.51,273.77 378.71,273.81 378.88,273.85 C 379.06,273.89 379.21,273.94 379.34,273.99 C 379.46,274.04 379.57,274.10 379.66,274.16 C 379.74,274.21 379.79,274.28 379.84,274.34 C 379.90,274.41 379.94,274.48 379.97,274.56 C 380.00,274.64 380.02,274.72 380.03,274.81 C 380.04,274.90 380.04,274.99 380.03,275.09 C 380.02,275.19 380.00,275.30 379.97,275.41 C 379.94,275.52 379.90,275.63 379.84,275.75 C 379.79,275.87 379.73,275.99 379.66,276.12 C 379.58,276.26 379.50,276.39 379.41,276.53 C 379.31,276.67 379.22,276.82 379.09,276.97 C 378.97,277.12 378.83,277.26 378.66,277.41 C 378.50,277.56 378.32,277.71 378.12,277.87 C 377.92,278.02 377.69,278.17 377.45,278.33 C 377.21,278.48 376.95,278.64 376.67,278.80 C 376.39,278.95 376.09,279.11 375.77,279.27 C 375.45,279.43 375.12,279.60 374.76,279.76 C 374.40,279.92 374.02,280.08 373.62,280.25 C 373.23,280.42 372.77,280.58 372.38,280.75 C 371.98,280.92 371.60,281.10 371.24,281.29 C 370.88,281.48 370.55,281.67 370.23,281.87 C 369.91,282.07 369.61,282.27 369.33,282.48 C 369.05,282.70 368.79,282.92 368.55,283.14 C 368.31,283.37 368.08,283.60 367.88,283.84 C 367.68,284.07 367.50,284.32 367.34,284.57 C 367.17,284.82 367.03,285.08 366.91,285.34 C 366.78,285.61 366.70,285.90 366.59,286.16 C 366.49,286.41 366.38,286.65 366.27,286.88 C 366.15,287.10 366.04,287.31 365.92,287.50 C 365.80,287.69 365.68,287.87 365.56,288.03 C 365.44,288.19 365.32,288.34 365.19,288.47 C 365.06,288.60 364.93,288.71 364.80,288.81 C 364.66,288.91 364.53,288.99 364.39,289.06 C 364.25,289.13 364.11,289.18 363.97,289.22 C 363.83,289.26 363.72,289.21 363.53,289.28 C 363.34,289.35 363.11,289.48 362.83,289.66 C 362.55,289.83 362.23,290.06 361.86,290.34 C 361.49,290.62 361.08,290.96 360.62,291.34 C 360.17,291.73 359.67,292.17 359.12,292.66 C 358.58,293.15 357.99,293.69 357.36,294.28 C 356.73,294.88 356.05,295.52 355.33,296.22 C 354.61,296.92 353.84,297.67 353.03,298.47 C 352.22,299.27 351.27,300.23 350.47,301.03 C 349.67,301.84 348.92,302.59 348.23,303.30 C 347.54,304.00 346.91,304.66 346.33,305.27 C 345.75,305.87 345.22,306.43 344.75,306.94 C 344.28,307.45 343.86,307.90 343.50,308.31 C 343.14,308.72 342.83,309.08 342.58,309.39 C 342.33,309.70 342.13,309.96 341.98,310.17 C 341.84,310.38 341.75,310.54 341.72,310.66 C 341.68,310.77 341.76,310.79 341.78,310.84 C 341.80,310.90 341.83,310.95 341.85,310.99 C 341.88,311.04 341.90,311.07 341.93,311.10 C 341.96,311.13 341.99,311.15 342.02,311.17 C 342.05,311.19 342.08,311.20 342.11,311.20 C 342.14,311.21 342.18,311.20 342.21,311.20 C 342.25,311.19 342.28,311.17 342.32,311.15 C 342.36,311.13 342.40,311.10 342.44,311.06 C 342.48,311.03 342.51,310.97 342.56,310.94 C 342.62,310.91 342.69,310.89 342.78,310.88 C 342.87,310.86 342.97,310.86 343.09,310.88 C 343.21,310.89 343.35,310.91 343.50,310.94 C 343.65,310.97 343.82,311.01 344.00,311.06 C 344.18,311.11 344.38,311.18 344.59,311.25 C 344.81,311.32 345.04,311.41 345.28,311.50 C 345.53,311.59 345.79,311.70 346.06,311.81 C 346.34,311.93 346.65,312.07 346.94,312.19 C 347.23,312.30 347.51,312.41 347.80,312.50 C 348.08,312.59 348.36,312.68 348.64,312.75 C 348.92,312.82 349.20,312.89 349.47,312.94 C 349.74,312.99 350.01,313.03 350.28,313.06 C 350.55,313.09 350.82,313.11 351.08,313.12 C 351.34,313.14 351.60,313.14 351.86,313.12 C 352.12,313.11 352.37,313.09 352.62,313.06 C 352.88,313.03 353.14,312.97 353.38,312.94 C 353.61,312.90 353.83,312.87 354.04,312.85 C 354.25,312.83 354.44,312.81 354.62,312.80 C 354.80,312.80 354.96,312.79 355.11,312.80 C 355.26,312.80 355.39,312.81 355.52,312.83 C 355.64,312.85 355.74,312.87 355.84,312.90 C 355.93,312.93 356.01,312.96 356.07,313.01 C 356.13,313.05 356.18,313.10 356.22,313.16 C 356.25,313.21 356.30,313.28 356.28,313.34 C 356.26,313.41 356.20,313.47 356.09,313.53 C 355.99,313.59 355.84,313.66 355.66,313.72 C 355.47,313.78 355.24,313.84 354.97,313.91 C 354.70,313.97 354.39,314.03 354.03,314.09 C 353.68,314.16 353.28,314.22 352.84,314.28 C 352.41,314.34 351.93,314.41 351.41,314.47 C 350.89,314.53 350.32,314.59 349.72,314.66 C 349.11,314.72 348.49,314.79 347.78,314.84 C 347.07,314.90 346.31,314.95 345.48,314.99 C 344.65,315.04 343.76,315.07 342.80,315.10 C 341.85,315.13 340.84,315.15 339.77,315.17 C 338.69,315.19 337.56,315.20 336.36,315.20 C 335.16,315.21 333.90,315.20 332.59,315.20 C 331.27,315.19 329.89,315.17 328.45,315.15 C 327.00,315.13 325.50,315.10 323.94,315.06 Z" />
    </clipPath>
  </defs>
  <path d="M 323.94,315.06 C 322.37,315.03 320.58,314.98 319.06,314.94 C 317.54,314.89 316.12,314.85 314.80,314.80 C 313.49,314.76 312.27,314.71 311.16,314.66 C 310.05,314.62 309.05,314.57 308.14,314.52 C 307.24,314.46 306.43,314.41 305.73,314.36 C 305.04,314.31 304.44,314.25 303.95,314.20 C 303.45,314.14 303.06,314.08 302.77,314.02 C 302.49,313.96 302.30,313.90 302.22,313.84 C 302.14,313.78 302.28,313.73 302.28,313.66 C 302.28,313.58 302.27,313.48 302.23,313.38 C 302.20,313.27 302.15,313.14 302.08,313.00 C 302.01,312.86 301.92,312.70 301.81,312.53 C 301.71,312.36 301.58,312.17 301.44,311.97 C 301.29,311.77 301.13,311.55 300.95,311.31 C 300.77,311.08 300.58,310.83 300.36,310.56 C 300.14,310.30 299.91,310.02 299.66,309.72 C 299.40,309.42 299.18,309.10 298.84,308.78 C 298.51,308.46 298.10,308.13 297.63,307.79 C 297.16,307.45 296.63,307.10 296.02,306.74 C 295.42,306.38 294.75,306.02 294.02,305.64 C 293.28,305.26 292.48,304.88 291.61,304.48 C 290.74,304.09 289.81,303.69 288.80,303.27 C 287.80,302.86 286.74,302.44 285.60,302.01 C 284.47,301.58 283.27,301.14 282.00,300.69 C 280.73,300.24 279.29,299.74 278.00,299.31 C 276.71,298.89 275.47,298.49 274.28,298.12 C 273.09,297.76 271.94,297.43 270.84,297.12 C 269.74,296.82 268.69,296.55 267.69,296.31 C 266.68,296.07 265.72,295.86 264.81,295.69 C 263.90,295.51 263.04,295.36 262.22,295.25 C 261.40,295.14 260.63,295.05 259.91,295.00 C 259.18,294.95 258.51,294.93 257.88,294.94 C 257.24,294.95 256.96,295.10 256.12,295.06 C 255.29,295.02 254.21,294.90 252.88,294.69 C 251.54,294.48 249.96,294.19 248.12,293.81 C 246.29,293.44 244.21,292.98 241.88,292.44 C 239.54,291.90 236.96,291.27 234.12,290.56 C 231.29,289.85 228.21,289.06 224.88,288.19 C 221.54,287.31 217.96,286.35 214.12,285.31 C 210.29,284.27 206.21,283.15 201.88,281.94 C 197.54,280.73 192.42,279.28 188.12,278.06 C 183.83,276.85 179.82,275.71 176.09,274.64 C 172.37,273.58 168.93,272.59 165.78,271.67 C 162.63,270.76 159.77,269.92 157.19,269.16 C 154.61,268.39 152.32,267.71 150.31,267.09 C 148.31,266.48 146.59,265.95 145.16,265.48 C 143.72,265.02 142.58,264.64 141.72,264.33 C 140.86,264.02 140.29,263.78 140.00,263.62 C 139.71,263.47 139.97,263.45 140.00,263.38 C 140.03,263.30 140.08,263.22 140.16,263.15 C 140.25,263.08 140.36,263.01 140.49,262.95 C 140.63,262.88 140.79,262.82 140.98,262.77 C 141.18,262.71 141.39,262.66 141.64,262.61 C 141.89,262.56 142.16,262.52 142.46,262.48 C 142.76,262.44 143.09,262.40 143.45,262.37 C 143.80,262.33 144.18,262.31 144.59,262.28 C 145.00,262.26 145.51,262.25 145.91,262.22 C 146.30,262.19 146.65,262.15 146.95,262.11 C 147.26,262.07 147.52,262.01 147.73,261.95 C 147.95,261.89 148.12,261.83 148.25,261.75 C 148.38,261.67 148.46,261.59 148.50,261.50 C 148.54,261.41 148.53,261.31 148.48,261.20 C 148.43,261.10 148.34,260.98 148.20,260.86 C 148.07,260.74 147.88,260.61 147.66,260.47 C 147.43,260.33 147.12,260.17 146.84,260.03 C 146.57,259.89 146.28,259.77 145.99,259.65 C 145.70,259.53 145.40,259.42 145.10,259.32 C 144.80,259.22 144.49,259.13 144.17,259.05 C 143.86,258.96 143.53,258.89 143.20,258.83 C 142.87,258.76 142.54,258.71 142.20,258.66 C 141.85,258.62 141.50,258.58 141.15,258.55 C 140.79,258.53 140.43,258.51 140.06,258.50 C 139.69,258.49 139.29,258.51 138.94,258.50 C 138.59,258.49 138.27,258.48 137.97,258.47 C 137.67,258.45 137.40,258.43 137.16,258.41 C 136.91,258.38 136.69,258.35 136.50,258.31 C 136.31,258.28 136.14,258.23 136.00,258.19 C 135.86,258.14 135.74,258.09 135.66,258.03 C 135.57,257.97 135.51,257.91 135.47,257.84 C 135.43,257.78 135.42,257.70 135.44,257.62 C 135.45,257.55 135.49,257.45 135.56,257.38 C 135.64,257.30 135.75,257.22 135.89,257.16 C 136.03,257.09 136.21,257.03 136.42,256.97 C 136.63,256.91 136.88,256.86 137.16,256.81 C 137.43,256.77 137.75,256.72 138.09,256.69 C 138.44,256.65 138.82,256.62 139.23,256.59 C 139.65,256.57 140.10,256.55 140.58,256.53 C 141.06,256.52 141.58,256.51 142.12,256.50 C 142.67,256.49 143.32,256.50 143.88,256.50 C 144.43,256.50 144.94,256.49 145.43,256.48 C 145.92,256.46 146.37,256.45 146.79,256.43 C 147.21,256.41 147.60,256.39 147.95,256.36 C 148.31,256.33 148.63,256.30 148.92,256.27 C 149.21,256.23 149.47,256.19 149.70,256.15 C 149.92,256.11 150.11,256.06 150.27,256.01 C 150.43,255.96 150.56,255.90 150.66,255.84 C 150.75,255.79 150.84,255.73 150.84,255.66 C 150.85,255.58 150.79,255.50 150.66,255.41 C 150.54,255.32 150.36,255.23 150.12,255.12 C 149.87,255.01 149.57,254.89 149.20,254.77 C 148.84,254.64 148.41,254.50 147.92,254.36 C 147.43,254.21 146.88,254.06 146.27,253.90 C 145.66,253.74 144.99,253.56 144.26,253.38 C 143.52,253.20 142.73,253.01 141.88,252.81 C 141.02,252.61 139.98,252.42 139.12,252.19 C 138.27,251.96 137.47,251.70 136.73,251.43 C 135.99,251.15 135.30,250.86 134.68,250.54 C 134.06,250.22 133.49,249.88 132.98,249.52 C 132.48,249.15 132.03,248.77 131.64,248.36 C 131.25,247.95 130.92,247.52 130.65,247.07 C 130.38,246.62 130.16,246.14 130.01,245.65 C 129.85,245.15 129.76,244.63 129.72,244.09 C 129.68,243.55 129.71,242.94 129.78,242.41 C 129.86,241.87 129.99,241.36 130.17,240.88 C 130.36,240.39 130.60,239.93 130.89,239.50 C 131.18,239.07 131.53,238.66 131.94,238.28 C 132.34,237.90 132.80,237.55 133.31,237.22 C 133.83,236.89 134.39,236.59 135.02,236.31 C 135.64,236.04 136.32,235.79 137.05,235.56 C 137.78,235.34 138.57,235.14 139.41,234.97 C 140.25,234.80 141.26,234.67 142.09,234.53 C 142.92,234.39 143.69,234.25 144.39,234.11 C 145.09,233.97 145.73,233.84 146.30,233.70 C 146.87,233.57 147.37,233.44 147.81,233.31 C 148.25,233.18 148.63,233.06 148.94,232.94 C 149.25,232.82 149.49,232.70 149.67,232.58 C 149.85,232.46 149.97,232.35 150.02,232.23 C 150.07,232.12 150.05,232.01 149.97,231.91 C 149.89,231.80 149.70,231.69 149.53,231.59 C 149.36,231.50 149.17,231.40 148.96,231.32 C 148.75,231.24 148.51,231.16 148.26,231.09 C 148.00,231.01 147.72,230.95 147.42,230.89 C 147.12,230.83 146.80,230.78 146.45,230.73 C 146.11,230.69 145.74,230.65 145.35,230.62 C 144.96,230.58 144.55,230.56 144.12,230.54 C 143.68,230.52 143.23,230.51 142.75,230.50 C 142.27,230.49 141.72,230.51 141.25,230.50 C 140.78,230.49 140.34,230.48 139.92,230.47 C 139.51,230.45 139.12,230.43 138.77,230.41 C 138.41,230.38 138.08,230.35 137.78,230.31 C 137.48,230.28 137.21,230.23 136.97,230.19 C 136.73,230.14 136.51,230.09 136.33,230.03 C 136.14,229.97 135.99,229.91 135.86,229.84 C 135.73,229.78 135.63,229.70 135.56,229.62 C 135.49,229.55 135.45,229.45 135.44,229.38 C 135.43,229.30 135.46,229.22 135.52,229.16 C 135.58,229.09 135.67,229.03 135.80,228.97 C 135.92,228.91 136.09,228.86 136.28,228.81 C 136.48,228.77 136.71,228.72 136.97,228.69 C 137.23,228.65 137.53,228.62 137.86,228.59 C 138.19,228.57 138.55,228.55 138.95,228.53 C 139.35,228.52 139.78,228.51 140.25,228.50 C 140.72,228.49 141.27,228.51 141.75,228.50 C 142.23,228.49 142.68,228.48 143.12,228.46 C 143.55,228.44 143.96,228.42 144.35,228.38 C 144.74,228.35 145.11,228.31 145.45,228.27 C 145.80,228.22 146.12,228.17 146.42,228.11 C 146.72,228.05 147.00,227.99 147.26,227.91 C 147.51,227.84 147.75,227.76 147.96,227.68 C 148.17,227.60 148.36,227.50 148.53,227.41 C 148.70,227.31 148.83,227.20 148.97,227.09 C 149.10,226.99 149.23,226.89 149.34,226.80 C 149.46,226.70 149.56,226.61 149.66,226.52 C 149.75,226.42 149.83,226.34 149.91,226.25 C 149.98,226.16 150.04,226.08 150.09,226.00 C 150.15,225.92 150.19,225.84 150.22,225.77 C 150.25,225.69 150.27,225.62 150.28,225.55 C 150.29,225.48 150.29,225.41 150.28,225.34 C 150.27,225.28 150.26,225.21 150.22,225.16 C 150.17,225.10 150.10,225.04 150.01,224.99 C 149.91,224.94 149.79,224.89 149.65,224.85 C 149.50,224.81 149.33,224.77 149.14,224.73 C 148.95,224.70 148.73,224.67 148.48,224.64 C 148.24,224.61 147.97,224.59 147.68,224.57 C 147.39,224.55 147.07,224.54 146.73,224.52 C 146.38,224.51 146.02,224.50 145.62,224.50 C 145.23,224.50 144.76,224.51 144.38,224.50 C 143.99,224.49 143.63,224.48 143.30,224.47 C 142.97,224.45 142.66,224.43 142.39,224.41 C 142.12,224.38 141.87,224.35 141.66,224.31 C 141.44,224.28 141.25,224.23 141.09,224.19 C 140.93,224.14 140.80,224.09 140.70,224.03 C 140.60,223.97 140.53,223.91 140.48,223.84 C 140.44,223.78 140.42,223.70 140.44,223.62 C 140.45,223.55 140.32,223.51 140.56,223.38 C 140.81,223.24 141.26,223.05 141.91,222.81 C 142.56,222.57 143.41,222.28 144.47,221.94 C 145.53,221.59 146.79,221.20 148.25,220.75 C 149.71,220.30 151.38,219.80 153.25,219.25 C 155.12,218.70 157.19,218.09 159.47,217.44 C 161.74,216.78 164.22,216.07 166.91,215.31 C 169.59,214.55 172.47,213.74 175.56,212.88 C 178.65,212.01 182.27,211.01 185.44,210.12 C 188.60,209.24 191.64,208.39 194.55,207.58 C 197.46,206.76 200.24,205.98 202.89,205.23 C 205.54,204.49 208.07,203.77 210.47,203.09 C 212.87,202.41 215.14,201.77 217.28,201.16 C 219.42,200.54 221.44,199.97 223.33,199.42 C 225.22,198.88 226.98,198.37 228.61,197.89 C 230.24,197.41 231.75,196.97 233.12,196.56 C 234.50,196.15 235.67,195.79 236.88,195.44 C 238.08,195.09 239.25,194.77 240.38,194.47 C 241.50,194.17 242.58,193.90 243.62,193.66 C 244.67,193.41 245.67,193.19 246.62,193.00 C 247.58,192.81 248.50,192.64 249.38,192.50 C 250.25,192.36 251.08,192.24 251.88,192.16 C 252.67,192.07 253.42,192.01 254.12,191.97 C 254.83,191.93 255.50,191.92 256.12,191.94 C 256.75,191.95 257.25,192.05 257.88,192.06 C 258.50,192.08 259.16,192.07 259.86,192.03 C 260.56,191.99 261.30,191.93 262.08,191.84 C 262.86,191.76 263.67,191.64 264.53,191.50 C 265.39,191.36 266.28,191.19 267.22,191.00 C 268.15,190.81 269.13,190.59 270.14,190.34 C 271.15,190.10 272.21,189.83 273.30,189.53 C 274.39,189.23 275.52,188.91 276.69,188.56 C 277.86,188.21 279.16,187.82 280.31,187.44 C 281.47,187.06 282.57,186.67 283.62,186.28 C 284.68,185.89 285.68,185.49 286.62,185.09 C 287.57,184.69 288.47,184.29 289.31,183.88 C 290.16,183.46 290.95,183.05 291.69,182.62 C 292.43,182.20 293.11,181.78 293.75,181.34 C 294.39,180.91 294.97,180.47 295.50,180.03 C 296.03,179.59 296.51,179.14 296.94,178.69 C 297.36,178.23 297.57,177.74 298.06,177.31 C 298.55,176.88 299.16,176.48 299.89,176.11 C 300.62,175.74 301.46,175.39 302.42,175.08 C 303.38,174.76 304.46,174.48 305.66,174.22 C 306.85,173.96 308.16,173.73 309.59,173.53 C 311.02,173.33 312.57,173.16 314.23,173.02 C 315.90,172.87 317.68,172.76 319.58,172.67 C 321.48,172.59 323.49,172.53 325.62,172.50 C 327.76,172.47 330.27,172.49 332.38,172.50 C 334.48,172.51 336.45,172.52 338.28,172.53 C 340.11,172.55 341.80,172.57 343.34,172.59 C 344.89,172.62 346.30,172.65 347.56,172.69 C 348.83,172.72 349.95,172.77 350.94,172.81 C 351.92,172.86 352.77,172.91 353.47,172.97 C 354.17,173.03 354.73,173.09 355.16,173.16 C 355.58,173.22 355.86,173.30 356.00,173.38 C 356.14,173.45 356.04,173.54 356.00,173.62 C 355.96,173.71 355.89,173.78 355.78,173.86 C 355.67,173.93 355.53,174.01 355.34,174.08 C 355.16,174.15 354.94,174.22 354.69,174.28 C 354.43,174.35 354.14,174.41 353.81,174.47 C 353.48,174.53 353.12,174.59 352.72,174.64 C 352.32,174.70 351.88,174.75 351.41,174.80 C 350.93,174.85 350.42,174.89 349.88,174.94 C 349.33,174.98 348.67,175.02 348.12,175.06 C 347.58,175.11 347.06,175.15 346.59,175.20 C 346.11,175.24 345.67,175.29 345.26,175.34 C 344.85,175.38 344.48,175.43 344.14,175.48 C 343.80,175.54 343.50,175.59 343.23,175.64 C 342.97,175.69 342.74,175.75 342.54,175.80 C 342.34,175.86 342.18,175.92 342.05,175.98 C 341.93,176.04 341.84,176.10 341.78,176.16 C 341.73,176.22 341.68,176.23 341.72,176.34 C 341.75,176.46 341.84,176.62 341.98,176.83 C 342.13,177.04 342.33,177.30 342.58,177.61 C 342.83,177.92 343.14,178.28 343.50,178.69 C 343.86,179.10 344.28,179.55 344.75,180.06 C 345.22,180.57 345.75,181.13 346.33,181.73 C 346.91,182.34 347.54,183.00 348.23,183.70 C 348.92,184.41 349.67,185.16 350.47,185.97 C 351.27,186.77 352.22,187.72 353.03,188.53 C 353.84,189.34 354.61,190.10 355.34,190.81 C 356.07,191.53 356.76,192.19 357.41,192.81 C 358.05,193.43 358.66,194.01 359.22,194.53 C 359.78,195.06 360.30,195.54 360.78,195.97 C 361.26,196.40 361.70,196.79 362.09,197.12 C 362.49,197.46 362.84,197.76 363.16,198.00 C 363.47,198.24 363.74,198.44 363.97,198.59 C 364.20,198.74 364.36,198.80 364.53,198.91 C 364.71,199.01 364.87,199.12 365.02,199.23 C 365.18,199.33 365.32,199.44 365.45,199.55 C 365.57,199.67 365.69,199.78 365.80,199.89 C 365.90,200.00 366.00,200.12 366.08,200.23 C 366.16,200.35 366.23,200.47 366.29,200.59 C 366.35,200.70 366.39,200.82 366.43,200.95 C 366.46,201.07 366.49,201.19 366.50,201.31 C 366.51,201.44 366.49,201.56 366.50,201.69 C 366.51,201.81 366.52,201.93 366.54,202.05 C 366.56,202.18 366.58,202.30 366.62,202.41 C 366.65,202.53 366.69,202.65 366.73,202.77 C 366.78,202.88 366.83,203.00 366.89,203.11 C 366.95,203.22 367.01,203.33 367.09,203.45 C 367.16,203.56 367.24,203.67 367.32,203.77 C 367.40,203.88 367.50,203.99 367.59,204.09 C 367.69,204.20 367.78,204.29 367.91,204.41 C 368.03,204.52 368.18,204.64 368.36,204.77 C 368.53,204.89 368.73,205.03 368.95,205.17 C 369.17,205.32 369.42,205.47 369.69,205.62 C 369.96,205.78 370.25,205.95 370.56,206.12 C 370.88,206.30 371.22,206.48 371.58,206.67 C 371.94,206.86 372.33,207.06 372.73,207.27 C 373.14,207.47 373.58,207.68 374.03,207.91 C 374.49,208.13 375.02,208.37 375.47,208.59 C 375.91,208.82 376.33,209.03 376.70,209.23 C 377.08,209.44 377.42,209.64 377.73,209.83 C 378.04,210.02 378.32,210.20 378.56,210.38 C 378.80,210.55 379.01,210.72 379.19,210.88 C 379.36,211.03 379.50,211.18 379.61,211.33 C 379.72,211.47 379.79,211.61 379.83,211.73 C 379.87,211.86 379.87,211.98 379.84,212.09 C 379.82,212.21 379.74,212.31 379.66,212.41 C 379.57,212.50 379.47,212.60 379.35,212.68 C 379.23,212.76 379.09,212.84 378.93,212.91 C 378.77,212.99 378.59,213.05 378.39,213.11 C 378.19,213.17 377.97,213.22 377.73,213.27 C 377.50,213.31 377.24,213.35 376.96,213.38 C 376.68,213.42 376.39,213.44 376.07,213.46 C 375.75,213.48 375.42,213.49 375.06,213.50 C 374.71,213.51 374.30,213.49 373.94,213.50 C 373.57,213.51 373.22,213.52 372.88,213.53 C 372.53,213.55 372.20,213.57 371.88,213.59 C 371.55,213.62 371.24,213.65 370.94,213.69 C 370.64,213.72 370.34,213.77 370.06,213.81 C 369.78,213.86 369.51,213.91 369.25,213.97 C 368.99,214.03 368.74,214.09 368.50,214.16 C 368.26,214.22 368.03,214.30 367.81,214.38 C 367.59,214.45 367.39,214.54 367.19,214.62 C 366.99,214.71 366.79,214.80 366.61,214.89 C 366.42,214.98 366.25,215.08 366.08,215.17 C 365.91,215.27 365.75,215.37 365.59,215.47 C 365.44,215.57 365.29,215.67 365.16,215.78 C 365.02,215.89 364.89,216.00 364.77,216.11 C 364.64,216.22 364.53,216.34 364.42,216.45 C 364.32,216.57 364.22,216.69 364.12,216.81 C 364.03,216.93 363.99,217.06 363.88,217.19 C 363.76,217.31 363.63,217.43 363.46,217.55 C 363.30,217.68 363.10,217.80 362.88,217.91 C 362.66,218.03 362.42,218.15 362.14,218.27 C 361.87,218.38 361.56,218.50 361.23,218.61 C 360.90,218.72 360.55,218.83 360.16,218.95 C 359.78,219.06 359.37,219.17 358.93,219.27 C 358.49,219.38 358.02,219.49 357.53,219.59 C 357.04,219.70 356.46,219.80 355.97,219.91 C 355.48,220.01 355.03,220.11 354.61,220.20 C 354.19,220.30 353.80,220.39 353.45,220.48 C 353.10,220.58 352.78,220.66 352.50,220.75 C 352.22,220.84 351.97,220.92 351.75,221.00 C 351.53,221.08 351.35,221.16 351.20,221.23 C 351.05,221.31 350.94,221.38 350.86,221.45 C 350.78,221.52 350.73,221.59 350.72,221.66 C 350.71,221.72 350.71,221.77 350.78,221.84 C 350.85,221.92 350.96,222.00 351.12,222.09 C 351.29,222.19 351.49,222.29 351.75,222.41 C 352.01,222.52 352.31,222.65 352.66,222.78 C 353.01,222.92 353.40,223.06 353.84,223.22 C 354.29,223.38 354.78,223.54 355.31,223.72 C 355.85,223.90 356.43,224.08 357.06,224.28 C 357.69,224.48 358.37,224.69 359.09,224.91 C 359.82,225.12 360.68,225.32 361.41,225.59 C 362.13,225.87 362.81,226.18 363.45,226.54 C 364.08,226.90 364.67,227.30 365.21,227.74 C 365.75,228.19 366.25,228.67 366.70,229.20 C 367.15,229.73 367.56,230.31 367.92,230.92 C 368.28,231.54 368.60,232.20 368.87,232.90 C 369.14,233.60 369.36,234.35 369.54,235.13 C 369.72,235.92 369.85,236.75 369.94,237.62 C 370.02,238.50 370.03,239.49 370.06,240.38 C 370.10,241.26 370.13,242.12 370.15,242.95 C 370.17,243.77 370.19,244.57 370.20,245.34 C 370.20,246.10 370.21,246.84 370.20,247.55 C 370.20,248.25 370.19,248.93 370.17,249.58 C 370.15,250.23 370.13,250.84 370.10,251.43 C 370.07,252.02 370.04,252.57 369.99,253.10 C 369.95,253.63 369.90,254.13 369.84,254.59 C 369.79,255.06 369.76,255.48 369.66,255.91 C 369.55,256.33 369.41,256.74 369.22,257.14 C 369.03,257.54 368.80,257.92 368.53,258.30 C 368.26,258.67 367.95,259.03 367.59,259.38 C 367.24,259.72 366.84,260.05 366.41,260.38 C 365.97,260.70 365.49,261.00 364.97,261.30 C 364.45,261.59 363.89,261.87 363.28,262.14 C 362.68,262.41 362.03,262.66 361.34,262.91 C 360.66,263.15 359.81,263.37 359.16,263.59 C 358.50,263.82 357.92,264.04 357.42,264.25 C 356.92,264.46 356.49,264.67 356.14,264.88 C 355.79,265.08 355.51,265.28 355.31,265.47 C 355.11,265.66 354.99,265.85 354.94,266.03 C 354.89,266.21 354.91,266.39 355.02,266.56 C 355.12,266.73 355.29,266.90 355.55,267.06 C 355.80,267.22 356.13,267.38 356.53,267.53 C 356.93,267.68 357.50,267.82 357.97,267.97 C 358.43,268.12 358.88,268.26 359.32,268.41 C 359.76,268.56 360.18,268.71 360.59,268.87 C 360.99,269.02 361.39,269.17 361.77,269.33 C 362.14,269.48 362.51,269.64 362.86,269.80 C 363.21,269.95 363.55,270.11 363.87,270.27 C 364.19,270.43 364.50,270.60 364.79,270.76 C 365.08,270.92 365.36,271.08 365.62,271.25 C 365.89,271.42 366.11,271.59 366.38,271.75 C 366.64,271.91 366.91,272.05 367.19,272.19 C 367.47,272.32 367.76,272.45 368.06,272.56 C 368.36,272.68 368.68,272.78 369.00,272.88 C 369.32,272.97 369.66,273.05 370.00,273.12 C 370.34,273.20 370.70,273.26 371.06,273.31 C 371.43,273.36 371.80,273.41 372.19,273.44 C 372.57,273.47 372.97,273.49 373.38,273.50 C 373.78,273.51 374.23,273.50 374.62,273.50 C 375.02,273.50 375.39,273.51 375.74,273.52 C 376.09,273.54 376.42,273.55 376.73,273.57 C 377.03,273.59 377.32,273.61 377.58,273.64 C 377.84,273.67 378.08,273.70 378.30,273.73 C 378.51,273.77 378.71,273.81 378.88,273.85 C 379.06,273.89 379.21,273.94 379.34,273.99 C 379.46,274.04 379.57,274.10 379.66,274.16 C 379.74,274.21 379.79,274.28 379.84,274.34 C 379.90,274.41 379.94,274.48 379.97,274.56 C 380.00,274.64 380.02,274.72 380.03,274.81 C 380.04,274.90 380.04,274.99 380.03,275.09 C 380.02,275.19 380.00,275.30 379.97,275.41 C 379.94,275.52 379.90,275.63 379.84,275.75 C 379.79,275.87 379.73,275.99 379.66,276.12 C 379.58,276.26 379.50,276.39 379.41,276.53 C 379.31,276.67 379.22,276.82 379.09,276.97 C 378.97,277.12 378.83,277.26 378.66,277.41 C 378.50,277.56 378.32,277.71 378.12,277.87 C 377.92,278.02 377.69,278.17 377.45,278.33 C 377.21,278.48 376.95,278.64 376.67,278.80 C 376.39,278.95 376.09,279.11 375.77,279.27 C 375.45,279.43 375.12,279.60 374.76,279.76 C 374.40,279.92 374.02,280.08 373.62,280.25 C 373.23,280.42 372.77,280.58 372.38,280.75 C 371.98,280.92 371.60,281.10 371.24,281.29 C 370.88,281.48 370.55,281.67 370.23,281.87 C 369.91,282.07 369.61,282.27 369.33,282.48 C 369.05,282.70 368.79,282.92 368.55,283.14 C 368.31,283.37 368.08,283.60 367.88,283.84 C 367.68,284.07 367.50,284.32 367.34,284.57 C 367.17,284.82 367.03,285.08 366.91,285.34 C 366.78,285.61 366.70,285.90 366.59,286.16 C 366.49,286.41 366.38,286.65 366.27,286.88 C 366.15,287.10 366.04,287.31 365.92,287.50 C 365.80,287.69 365.68,287.87 365.56,288.03 C 365.44,288.19 365.32,288.34 365.19,288.47 C 365.06,288.60 364.93,288.71 364.80,288.81 C 364.66,288.91 364.53,288.99 364.39,289.06 C 364.25,289.13 364.11,289.18 363.97,289.22 C 363.83,289.26 363.72,289.21 363.53,289.28 C 363.34,289.35 363.11,289.48 362.83,289.66 C 362.55,289.83 362.23,290.06 361.86,290.34 C 361.49,290.62 361.08,290.96 360.62,291.34 C 360.17,291.73 359.67,292.17 359.12,292.66 C 358.58,293.15 357.99,293.69 357.36,294.28 C 356.73,294.88 356.05,295.52 355.33,296.22 C 354.61,296.92 353.84,297.67 353.03,298.47 C 352.22,299.27 351.27,300.23 350.47,301.03 C 349.67,301.84 348.92,302.59 348.23,303.30 C 347.54,304.00 346.91,304.66 346.33,305.27 C 345.75,305.87 345.22,306.43 344.75,306.94 C 344.28,307.45 343.86,307.90 343.50,308.31 C 343.14,308.72 342.83,309.08 342.58,309.39 C 342.33,309.70 342.13,309.96 341.98,310.17 C 341.84,310.38 341.75,310.54 341.72,310.66 C 341.68,310.77 341.76,310.79 341.78,310.84 C 341.80,310.90 341.83,310.95 341.85,310.99 C 341.88,311.04 341.90,311.07 341.93,311.10 C 341.96,311.13 341.99,311.15 342.02,311.17 C 342.05,311.19 342.08,311.20 342.11,311.20 C 342.14,311.21 342.18,311.20 342.21,311.20 C 342.25,311.19 342.28,311.17 342.32,311.15 C 342.36,311.13 342.40,311.10 342.44,311.06 C 342.48,311.03 342.51,310.97 342.56,310.94 C 342.62,310.91 342.69,310.89 342.78,310.88 C 342.87,310.86 342.97,310.86 343.09,310.88 C 343.21,310.89 343.35,310.91 343.50,310.94 C 343.65,310.97 343.82,311.01 344.00,311.06 C 344.18,311.11 344.38,311.18 344.59,311.25 C 344.81,311.32 345.04,311.41 345.28,311.50 C 345.53,311.59 345.79,311.70 346.06,311.81 C 346.34,311.93 346.65,312.07 346.94,312.19 C 347.23,312.30 347.51,312.41 347.80,312.50 C 348.08,312.59 348.36,312.68 348.64,312.75 C 348.92,312.82 349.20,312.89 349.47,312.94 C 349.74,312.99 350.01,313.03 350.28,313.06 C 350.55,313.09 350.82,313.11 351.08,313.12 C 351.34,313.14 351.60,313.14 351.86,313.12 C 352.12,313.11 352.37,313.09 352.62,313.06 C 352.88,313.03 353.14,312.97 353.38,312.94 C 353.61,312.90 353.83,312.87 354.04,312.85 C 354.25,312.83 354.44,312.81 354.62,312.80 C 354.80,312.80 354.96,312.79 355.11,312.80 C 355.26,312.80 355.39,312.81 355.52,312.83 C 355.64,312.85 355.74,312.87 355.84,312.90 C 355.93,312.93 356.01,312.96 356.07,313.01 C 356.13,313.05 356.18,313.10 356.22,313.16 C 356.25,313.21 356.30,313.28 356.28,313.34 C 356.26,313.41 356.20,313.47 356.09,313.53 C 355.99,313.59 355.84,313.66 355.66,313.72 C 355.47,313.78 355.24,313.84 354.97,313.91 C 354.70,313.97 354.39,314.03 354.03,314.09 C 353.68,314.16 353.28,314.22 352.84,314.28 C 352.41,314.34 351.93,314.41 351.41,314.47 C 350.89,314.53 350.32,314.59 349.72,314.66 C 349.11,314.72 348.49,314.79 347.78,314.84 C 347.07,314.90 346.31,314.95 345.48,314.99 C 344.65,315.04 343.76,315.07 342.80,315.10 C 341.85,315.13 340.84,315.15 339.77,315.17 C 338.69,315.19 337.56,315.20 336.36,315.20 C 335.16,315.21 333.90,315.20 332.59,315.20 C 331.27,315.19 329.89,315.17 328.45,315.15 C 327.00,315.13 325.50,315.10 323.94,315.06 Z" stroke="none" fill="currentColor" opacity="0.11" />
  <path d="M229.03,227.69L232.00,227.69 M229.37,227.71L232.32,227.69 M228.97,224.92L231.94,224.92 M229.05,224.95L232.02,224.95 M229.28,224.90L232.26,224.92 M232.34,224.95L229.37,224.95 M232.32,224.92L229.35,224.92 M229.29,224.92L232.26,224.92 M211.38,256.23L217.89,256.23 M192.71,256.80L192.63,256.73 M224.41,256.23L230.92,256.23 M199.22,256.80L199.15,256.73 M205.74,256.80L205.67,256.73 M184.49,235.15L177.98,235.09 M184.49,235.15L177.91,235.08 M177.98,235.09L184.26,235.17 M221.01,225.87L221.12,232.53 M195.61,239.25L195.61,247.11 M195.27,247.11L195.27,239.25 M195.61,252.08L195.61,249.48 M195.55,252.01L195.55,249.42 M195.34,249.42L195.34,252.01 M195.28,249.48L195.28,252.08 M202.13,239.25L202.13,247.11 M201.79,247.11L201.79,239.25 M202.13,252.08L202.13,249.48 M202.06,252.01L202.06,249.42 M201.86,249.42L201.86,252.01 M201.79,249.48L201.79,252.08 M208.64,239.25L208.64,247.11 M208.30,247.11L208.30,239.25 M208.64,252.08L208.64,249.48 M208.57,252.01L208.57,249.42 M208.37,249.42L208.37,252.01 M208.30,249.48L208.30,252.08 M223.59,255.13L231.64,255.14 M190.38,238.59L191.42,240.11 M185.30,236.11L177.24,236.11 M186.45,232.44L186.45,232.36 M186.20,232.44L186.20,232.36 M184.42,249.97L177.06,250.02 M185.20,238.21L177.08,238.21 M177.08,238.21L185.42,238.30 M272.17,271.05L272.17,272.87 M324.94,262.22L324.94,254.16 M324.98,250.05L324.98,238.23 M326.90,238.23L326.90,250.05 M324.94,226.05L324.94,234.11 M326.94,234.11L326.94,226.05 M324.59,258.92L324.59,244.14 M324.59,229.36L324.59,244.14 M318.55,271.84L308.95,271.84 M308.77,272.06L318.74,272.06 M318.73,272.29L308.77,272.29 M322.05,214.43L309.20,214.43 M318.29,214.43L309.20,214.43 M336.72,227.28L336.72,227.28 M330.37,222.65L329.08,224.77 M352.79,256.42L366.96,256.38 M330.90,226.40L330.90,226.40 M329.08,225.29L329.08,225.29 M329.27,225.43L329.27,225.43 M331.09,226.55L331.09,226.55 M328.94,244.14L328.94,252.26 M343.77,231.85L338.02,231.84 M338.24,231.38L344.50,231.42 M345.33,231.39L345.33,231.39 M345.29,231.86L345.29,231.86 M343.79,256.50L338.05,256.51 M345.29,256.42L345.29,256.42 M345.62,256.05L345.57,256.05 M346.28,256.06L358.08,256.06 M302.58,223.80L302.58,216.21 M302.58,215.58L302.58,219.25 M302.61,215.61L302.61,219.28 M302.95,231.64L302.95,224.55 M302.58,225.10L302.58,231.79 M302.58,256.64L302.58,263.17 M302.58,265.46L302.58,272.06 M302.58,272.69L302.58,269.02 M302.61,272.67L302.61,268.50 M300.58,223.80L300.58,216.21 M300.58,215.58L300.58,219.25 M300.55,215.61L300.55,219.28 M300.21,215.83L300.21,223.73 M300.58,225.10L300.58,231.64 M300.58,256.64L300.58,263.17 M300.58,265.46L300.58,272.06 M300.58,272.69L300.58,269.02 M300.55,272.67L300.55,268.50 M301.33,231.86L301.33,256.41 M301.81,231.86L301.81,256.41 M283.24,214.80L295.58,214.80 M295.58,214.91L283.24,214.91 M295.58,214.89L283.24,214.89 M298.77,211.94L298.77,211.94 M298.80,212.21L298.80,212.21 M299.01,212.38L299.01,212.38 M299.28,212.36L299.28,212.36 M299.46,212.14L299.46,212.14 M299.43,211.87L299.34,211.76 M280.84,213.93L297.99,213.93 M279.32,227.39L285.64,227.39 M263.28,238.85L264.09,237.62 M261.89,248.97L261.89,239.31 M261.89,240.88L261.89,247.40 M261.91,240.88L261.91,247.40 M262.40,240.88L262.40,247.40 M262.38,240.88L262.38,247.40 M324.31,230.43L316.54,230.43 M316.54,230.43L307.83,230.43 M264.60,260.23L264.60,267.53 M264.58,260.58L264.58,267.18 M264.60,260.58L264.60,267.18 M264.60,227.70L264.60,221.10 M264.58,227.69L264.58,221.10 M283.25,273.49L295.58,273.49 M295.58,273.40L283.25,273.40 M299.39,276.01L299.39,276.01 M280.84,274.34L297.99,274.34 M299.50,260.88L293.17,260.88 M277.46,231.86L277.46,256.41 M276.98,256.41L276.98,231.86 M278.24,264.47L278.24,272.06 M278.24,272.69L278.24,269.02 M278.26,272.67L278.26,268.50 M278.24,263.17L278.24,256.49 M278.24,215.58L278.24,219.74 M278.26,215.61L278.26,219.77 M276.23,264.16L276.23,272.06 M276.23,272.69L276.23,269.02 M276.21,272.67L276.21,268.50 M276.23,263.17L276.23,256.64 M276.23,231.64L276.23,225.10 M276.23,223.96L276.23,216.08 M276.23,215.58L276.23,219.74 M276.21,215.61L276.21,219.77 M329.78,259.56L329.71,252.90 M278.60,267.95L278.60,261.48 M278.60,261.48L278.60,267.88 M302.95,267.95L302.95,261.48 M302.95,261.48L302.95,267.88 M300.21,261.48L300.21,267.88 M300.21,261.48L300.21,267.95 M278.60,220.33L278.60,226.79 M278.60,220.39L278.60,226.79 M302.95,220.33L302.95,226.79 M302.95,220.39L302.95,226.79 M300.21,226.79L300.21,220.39 M300.21,226.79L300.21,220.33 M274.28,236.79L266.73,236.82 M274.32,236.83L266.73,236.86 M274.28,234.77L266.73,234.79 M274.32,234.81L266.73,234.84 M274.28,251.48L266.73,251.46 M274.32,251.44L266.73,251.42 M274.28,253.51L266.73,253.48 M274.32,253.47L266.73,253.44 M287.36,258.91L301.07,258.91 M287.36,258.91L294.25,258.91 M301.07,258.91L294.25,258.91 M281.19,260.77L307.92,260.77 M274.04,255.83L266.59,255.85 M281.19,227.51L307.92,227.51 M274.25,232.47L266.78,232.49 M247.17,254.77L247.17,264.55 M247.19,254.18L247.20,255.04 M258.13,252.99L258.13,252.99 M247.67,252.99L254.08,252.99 M249.94,252.53L249.94,252.53 M247.20,255.50L247.19,254.18 M247.83,255.03L247.83,254.18 M247.17,254.77L247.17,264.55 M247.86,264.55L247.86,254.77 M247.85,255.46L247.86,262.04 M247.83,261.98L247.83,255.52 M242.94,252.50L242.94,252.52 M260.94,252.52L260.93,252.50 M237.77,255.07L245.37,255.08 M259.25,262.02L259.25,254.62 M259.09,222.95L250.52,222.95 M260.65,235.31L254.05,235.31 M236.05,229.10L245.53,229.10 M236.05,228.96L245.53,228.96 M245.53,229.26L236.05,229.26 M236.05,228.98L245.53,228.98 M245.53,229.27L236.05,229.27 M236.05,223.34L245.53,223.34 M236.05,229.27L245.53,229.27 M233.48,229.12L248.07,229.12 M233.48,229.22L248.07,229.22 M248.22,223.60L233.34,223.60 M233.34,223.38L248.22,223.38 M259.86,235.28L259.86,224.24 M265.96,215.33L265.96,217.01 M272.50,274.22L272.50,271.19 M273.47,272.53L273.46,274.42 M265.29,271.78L265.40,275.01 M260.93,247.94L260.98,240.33 M260.71,240.33L260.66,247.94 M260.61,240.02L260.61,240.02 M254.05,237.05L260.33,237.05 M258.46,247.62L258.46,240.67 M247.63,240.67L247.63,247.62 M260.33,251.22L254.05,251.22 M249.74,251.23L258.25,251.22 M253.74,244.14L253.68,237.68 M277.04,244.14L277.10,252.23 M277.25,236.26L277.10,244.14 M331.34,263.63L288.01,263.70 M369.15,251.15L369.16,259.23 M331.34,224.65L288.01,224.58 M369.15,237.13L369.16,229.04 M367.51,204.86L379.98,210.17 M345.00,203.47L337.92,203.30 M367.51,283.41L379.98,278.10 M345.00,284.81L337.92,284.98 M270.89,229.53L261.11,229.64 M270.89,229.53L260.24,229.72 M270.89,258.75L260.24,258.56 M270.89,258.75L261.11,258.64 M256.19,274.93L244.16,271.64 M321.31,311.68L329.62,311.68 M321.31,176.59L329.62,176.60 M368.65,237.10L368.68,230.49 M355.53,247.62L329.65,248.66 M369.87,248.68L369.87,239.60 M368.60,248.82L368.60,239.45 M287.99,254.03L303.54,257.20 M309.91,229.66L287.98,234.24 M309.91,258.62L287.99,254.03 M326.39,234.94L356.19,236.58 M249.18,249.66L241.58,251.44 M331.10,233.84L301.71,233.67 M331.10,254.44L301.71,254.61 M347.52,234.51L335.42,234.24 M347.48,234.31L354.31,234.07 M368.36,237.32L367.97,229.77 M354.31,254.21L347.48,253.97 M367.97,258.51L368.36,250.96 M320.98,241.06L312.69,241.10 M303.35,241.04L292.74,240.95 M312.69,247.17L320.98,247.21 M303.35,247.24L292.74,247.33 M326.22,234.76L356.34,235.55 M241.64,251.39L248.85,249.59 M248.85,238.72L241.59,236.84 M331.10,233.93L310.52,230.57 M331.10,254.35L310.52,257.71 M307.25,236.02L319.33,236.26 M307.25,236.02L319.70,236.24 M342.31,229.41L342.88,229.35 M366.43,229.31L359.14,228.63 M352.99,228.00L333.37,226.14 M333.37,226.14L349.97,227.76 M333.37,226.14L343.75,227.11 M333.37,262.13L343.75,261.16 M333.37,262.13L349.97,260.52 M333.37,262.13L352.99,260.28 M366.43,258.96L359.14,259.65 M367.70,255.21L351.83,255.23 M293.31,265.16L303.38,265.30 M293.31,223.12L303.38,222.98 M349.23,275.12L354.42,275.05 M354.42,213.16L349.23,213.09 M307.79,295.50L301.34,287.00 M314.62,314.84L333.30,314.46 M310.65,313.50L327.15,313.50 M327.15,313.64L310.65,313.63 M310.65,313.91L327.15,313.91 M302.05,313.90L309.00,313.94 M309.00,313.94L315.96,313.98 M310.65,174.81L327.15,174.80 M310.65,174.94L327.15,174.94 M310.65,174.53L327.15,174.53 M302.05,174.56L309.00,174.56 M309.00,174.56L315.96,174.56 M314.62,173.63L333.30,174.00 M369.40,213.71L378.59,213.82 M339.96,176.89L350.84,187.06 M322.08,176.20L333.39,176.21 M329.05,183.70L329.04,175.31 M335.49,196.89L356.02,196.91 M354.72,196.86L330.81,197.13 M350.77,187.38L360.83,196.82 M306.85,201.83L328.33,201.93 M262.74,194.23L252.61,205.25 M252.55,205.32L261.12,194.22 M369.40,274.57L378.59,274.45 M339.96,311.38L350.84,301.22 M329.05,304.58L329.04,312.97 M335.49,291.38L356.02,291.36 M329.64,291.30L355.38,291.35 M354.72,291.41L330.81,291.32 M350.77,300.89L360.83,291.46 M306.85,286.45L328.33,286.35 M262.74,294.04L252.61,283.03 M299.88,297.21L252.53,282.97 M252.55,282.96L261.12,294.05 M333.33,174.36L322.23,174.42 M308.51,203.39L333.58,202.84 M348.90,219.96L333.11,220.54 M348.90,219.96L332.88,220.53 M372.52,208.05L365.39,204.79 M336.67,204.10L352.68,216.83 M353.44,216.56L336.67,203.68 M353.72,219.64L368.25,213.08 M337.78,203.07L353.43,202.99 M378.97,214.13L369.60,214.05 M367.42,204.92L373.60,207.77 M352.07,203.16L364.13,208.32 M372.69,208.13L361.25,202.94 M308.51,285.07L333.58,285.44 M372.52,280.23L365.39,283.49 M353.34,271.92L336.67,284.60 M337.78,285.21L353.43,285.28 M378.97,274.15L369.60,274.22 M367.42,283.35L373.60,280.50 M352.07,285.11L364.13,279.96 M353.68,268.78L367.47,275.08 M361.25,285.34L372.69,280.14 M258.30,234.90L269.73,234.88 M259.27,234.54L269.73,234.88 M259.27,234.54L269.71,234.98 M258.30,253.37L269.77,253.41 M369.27,260.03L333.79,270.76 M339.83,220.43L362.92,218.28 M339.83,267.85L362.92,269.99 M244.07,216.71L256.75,212.62 M259.26,206.44L242.86,210.94 M240.72,216.44L237.84,209.60 M237.84,209.60L240.26,215.49 M338.18,299.81L316.21,299.56 M338.18,188.47L316.21,188.72 M308.51,311.01L303.37,301.42 M332.50,302.06L328.13,310.63 M308.51,177.27L303.37,186.86 M332.50,186.22L328.13,177.65 M252.53,205.30L299.88,191.07 M322.23,313.86L333.33,313.92 M333.58,188.14L337.44,176.26 M337.39,176.20L350.22,188.07 M333.58,300.13L337.44,312.02 M356.43,216.81L367.38,213.04 M237.48,209.67L240.93,217.41 M337.40,312.09L350.22,300.20 M368.11,212.43L356.99,212.43 M356.99,275.85L368.11,275.85 M359.02,289.72L364.24,289.71 M361.53,215.10L366.83,215.11 M277.96,263.64L285.33,266.05 M278.05,224.44L285.27,222.09 M278.38,225.46L285.58,223.15 M276.94,262.10L269.51,261.88 M278.25,265.29L268.56,265.29 M269.50,226.28L277.21,226.00 M269.51,226.40L276.94,226.18 M268.57,223.00L278.25,222.99 M317.38,305.45L325.75,305.28 M276.59,263.15L269.56,262.97 M269.56,225.31L276.59,225.13 M291.52,273.52L318.41,273.52 M318.41,273.52L289.25,273.46 M316.16,288.32L295.33,288.34 M316.16,288.32L297.67,288.39 M326.64,296.76L336.84,297.06 M206.46,210.65L237.11,201.73 M163.41,245.94L171.54,245.97 M163.38,245.30L171.55,245.30 M163.41,242.33L171.54,242.31 M163.38,242.97L171.55,242.98 M165.52,254.78L166.17,261.46 M196.61,258.23L207.75,259.31 M140.15,224.91L150.13,224.89 M244.30,261.06L240.86,279.09 M244.30,227.22L240.86,209.18 M225.55,242.75L228.71,243.97 M146.88,259.25L136.83,259.23 M146.88,229.03L136.83,229.04 M192.50,214.63L206.42,210.36 M230.10,259.48L226.09,269.93 M206.05,237.39L218.78,237.39 M206.03,232.12L218.76,232.12 M260.36,292.23L252.78,283.84 M174.49,252.07L167.21,251.50 M174.49,236.20L167.21,236.77 M190.29,222.45L193.69,228.35 M190.29,265.82L193.69,259.93 M236.19,291.34L192.42,278.99 M192.41,279.01L249.63,295.06 M148.66,224.59L164.93,219.84 M148.66,263.69L164.93,268.44 M235.01,197.73L250.90,193.18 M253.05,192.85L245.37,194.65 M253.06,192.81L261.81,193.74 M231.64,202.99L235.01,197.73 M235.01,290.55L250.90,295.10 M253.05,295.42L245.37,293.63 M253.04,295.35L261.80,294.56 M231.64,285.29L235.01,290.55 M164.03,252.94L135.72,250.39 M164.03,235.34L135.72,237.89 M192.57,231.95L174.51,232.55 M245.71,262.79L238.31,262.07 M245.71,225.48L238.31,226.20 M134.76,250.07L165.35,251.76 M165.35,236.51L134.76,238.20 M230.73,244.14L237.66,244.14 M237.66,244.14L230.73,244.14 M237.70,244.14L230.69,244.14 M237.70,244.14L230.69,244.14 M185.77,268.78L168.39,262.67 M185.77,219.49L168.39,225.60 M251.78,263.45L193.85,258.38 M241.44,242.26L251.95,242.22 M169.77,247.36L169.86,240.58 M184.06,241.60L184.06,248.21 M185.69,241.59L185.69,248.21 M180.81,248.21L180.81,241.60 M182.44,241.60L182.44,248.21" stroke="currentColor" stroke-width="0.6" stroke-linecap="round" fill="none" opacity="0.55" clip-path="url(#hull-clip)" filter="url(#glow)" />
  <path d="M 323.94,315.06 C 322.37,315.03 320.58,314.98 319.06,314.94 C 317.54,314.89 316.12,314.85 314.80,314.80 C 313.49,314.76 312.27,314.71 311.16,314.66 C 310.05,314.62 309.05,314.57 308.14,314.52 C 307.24,314.46 306.43,314.41 305.73,314.36 C 305.04,314.31 304.44,314.25 303.95,314.20 C 303.45,314.14 303.06,314.08 302.77,314.02 C 302.49,313.96 302.30,313.90 302.22,313.84 C 302.14,313.78 302.28,313.73 302.28,313.66 C 302.28,313.58 302.27,313.48 302.23,313.38 C 302.20,313.27 302.15,313.14 302.08,313.00 C 302.01,312.86 301.92,312.70 301.81,312.53 C 301.71,312.36 301.58,312.17 301.44,311.97 C 301.29,311.77 301.13,311.55 300.95,311.31 C 300.77,311.08 300.58,310.83 300.36,310.56 C 300.14,310.30 299.91,310.02 299.66,309.72 C 299.40,309.42 299.18,309.10 298.84,308.78 C 298.51,308.46 298.10,308.13 297.63,307.79 C 297.16,307.45 296.63,307.10 296.02,306.74 C 295.42,306.38 294.75,306.02 294.02,305.64 C 293.28,305.26 292.48,304.88 291.61,304.48 C 290.74,304.09 289.81,303.69 288.80,303.27 C 287.80,302.86 286.74,302.44 285.60,302.01 C 284.47,301.58 283.27,301.14 282.00,300.69 C 280.73,300.24 279.29,299.74 278.00,299.31 C 276.71,298.89 275.47,298.49 274.28,298.12 C 273.09,297.76 271.94,297.43 270.84,297.12 C 269.74,296.82 268.69,296.55 267.69,296.31 C 266.68,296.07 265.72,295.86 264.81,295.69 C 263.90,295.51 263.04,295.36 262.22,295.25 C 261.40,295.14 260.63,295.05 259.91,295.00 C 259.18,294.95 258.51,294.93 257.88,294.94 C 257.24,294.95 256.96,295.10 256.12,295.06 C 255.29,295.02 254.21,294.90 252.88,294.69 C 251.54,294.48 249.96,294.19 248.12,293.81 C 246.29,293.44 244.21,292.98 241.88,292.44 C 239.54,291.90 236.96,291.27 234.12,290.56 C 231.29,289.85 228.21,289.06 224.88,288.19 C 221.54,287.31 217.96,286.35 214.12,285.31 C 210.29,284.27 206.21,283.15 201.88,281.94 C 197.54,280.73 192.42,279.28 188.12,278.06 C 183.83,276.85 179.82,275.71 176.09,274.64 C 172.37,273.58 168.93,272.59 165.78,271.67 C 162.63,270.76 159.77,269.92 157.19,269.16 C 154.61,268.39 152.32,267.71 150.31,267.09 C 148.31,266.48 146.59,265.95 145.16,265.48 C 143.72,265.02 142.58,264.64 141.72,264.33 C 140.86,264.02 140.29,263.78 140.00,263.62 C 139.71,263.47 139.97,263.45 140.00,263.38 C 140.03,263.30 140.08,263.22 140.16,263.15 C 140.25,263.08 140.36,263.01 140.49,262.95 C 140.63,262.88 140.79,262.82 140.98,262.77 C 141.18,262.71 141.39,262.66 141.64,262.61 C 141.89,262.56 142.16,262.52 142.46,262.48 C 142.76,262.44 143.09,262.40 143.45,262.37 C 143.80,262.33 144.18,262.31 144.59,262.28 C 145.00,262.26 145.51,262.25 145.91,262.22 C 146.30,262.19 146.65,262.15 146.95,262.11 C 147.26,262.07 147.52,262.01 147.73,261.95 C 147.95,261.89 148.12,261.83 148.25,261.75 C 148.38,261.67 148.46,261.59 148.50,261.50 C 148.54,261.41 148.53,261.31 148.48,261.20 C 148.43,261.10 148.34,260.98 148.20,260.86 C 148.07,260.74 147.88,260.61 147.66,260.47 C 147.43,260.33 147.12,260.17 146.84,260.03 C 146.57,259.89 146.28,259.77 145.99,259.65 C 145.70,259.53 145.40,259.42 145.10,259.32 C 144.80,259.22 144.49,259.13 144.17,259.05 C 143.86,258.96 143.53,258.89 143.20,258.83 C 142.87,258.76 142.54,258.71 142.20,258.66 C 141.85,258.62 141.50,258.58 141.15,258.55 C 140.79,258.53 140.43,258.51 140.06,258.50 C 139.69,258.49 139.29,258.51 138.94,258.50 C 138.59,258.49 138.27,258.48 137.97,258.47 C 137.67,258.45 137.40,258.43 137.16,258.41 C 136.91,258.38 136.69,258.35 136.50,258.31 C 136.31,258.28 136.14,258.23 136.00,258.19 C 135.86,258.14 135.74,258.09 135.66,258.03 C 135.57,257.97 135.51,257.91 135.47,257.84 C 135.43,257.78 135.42,257.70 135.44,257.62 C 135.45,257.55 135.49,257.45 135.56,257.38 C 135.64,257.30 135.75,257.22 135.89,257.16 C 136.03,257.09 136.21,257.03 136.42,256.97 C 136.63,256.91 136.88,256.86 137.16,256.81 C 137.43,256.77 137.75,256.72 138.09,256.69 C 138.44,256.65 138.82,256.62 139.23,256.59 C 139.65,256.57 140.10,256.55 140.58,256.53 C 141.06,256.52 141.58,256.51 142.12,256.50 C 142.67,256.49 143.32,256.50 143.88,256.50 C 144.43,256.50 144.94,256.49 145.43,256.48 C 145.92,256.46 146.37,256.45 146.79,256.43 C 147.21,256.41 147.60,256.39 147.95,256.36 C 148.31,256.33 148.63,256.30 148.92,256.27 C 149.21,256.23 149.47,256.19 149.70,256.15 C 149.92,256.11 150.11,256.06 150.27,256.01 C 150.43,255.96 150.56,255.90 150.66,255.84 C 150.75,255.79 150.84,255.73 150.84,255.66 C 150.85,255.58 150.79,255.50 150.66,255.41 C 150.54,255.32 150.36,255.23 150.12,255.12 C 149.87,255.01 149.57,254.89 149.20,254.77 C 148.84,254.64 148.41,254.50 147.92,254.36 C 147.43,254.21 146.88,254.06 146.27,253.90 C 145.66,253.74 144.99,253.56 144.26,253.38 C 143.52,253.20 142.73,253.01 141.88,252.81 C 141.02,252.61 139.98,252.42 139.12,252.19 C 138.27,251.96 137.47,251.70 136.73,251.43 C 135.99,251.15 135.30,250.86 134.68,250.54 C 134.06,250.22 133.49,249.88 132.98,249.52 C 132.48,249.15 132.03,248.77 131.64,248.36 C 131.25,247.95 130.92,247.52 130.65,247.07 C 130.38,246.62 130.16,246.14 130.01,245.65 C 129.85,245.15 129.76,244.63 129.72,244.09 C 129.68,243.55 129.71,242.94 129.78,242.41 C 129.86,241.87 129.99,241.36 130.17,240.88 C 130.36,240.39 130.60,239.93 130.89,239.50 C 131.18,239.07 131.53,238.66 131.94,238.28 C 132.34,237.90 132.80,237.55 133.31,237.22 C 133.83,236.89 134.39,236.59 135.02,236.31 C 135.64,236.04 136.32,235.79 137.05,235.56 C 137.78,235.34 138.57,235.14 139.41,234.97 C 140.25,234.80 141.26,234.67 142.09,234.53 C 142.92,234.39 143.69,234.25 144.39,234.11 C 145.09,233.97 145.73,233.84 146.30,233.70 C 146.87,233.57 147.37,233.44 147.81,233.31 C 148.25,233.18 148.63,233.06 148.94,232.94 C 149.25,232.82 149.49,232.70 149.67,232.58 C 149.85,232.46 149.97,232.35 150.02,232.23 C 150.07,232.12 150.05,232.01 149.97,231.91 C 149.89,231.80 149.70,231.69 149.53,231.59 C 149.36,231.50 149.17,231.40 148.96,231.32 C 148.75,231.24 148.51,231.16 148.26,231.09 C 148.00,231.01 147.72,230.95 147.42,230.89 C 147.12,230.83 146.80,230.78 146.45,230.73 C 146.11,230.69 145.74,230.65 145.35,230.62 C 144.96,230.58 144.55,230.56 144.12,230.54 C 143.68,230.52 143.23,230.51 142.75,230.50 C 142.27,230.49 141.72,230.51 141.25,230.50 C 140.78,230.49 140.34,230.48 139.92,230.47 C 139.51,230.45 139.12,230.43 138.77,230.41 C 138.41,230.38 138.08,230.35 137.78,230.31 C 137.48,230.28 137.21,230.23 136.97,230.19 C 136.73,230.14 136.51,230.09 136.33,230.03 C 136.14,229.97 135.99,229.91 135.86,229.84 C 135.73,229.78 135.63,229.70 135.56,229.62 C 135.49,229.55 135.45,229.45 135.44,229.38 C 135.43,229.30 135.46,229.22 135.52,229.16 C 135.58,229.09 135.67,229.03 135.80,228.97 C 135.92,228.91 136.09,228.86 136.28,228.81 C 136.48,228.77 136.71,228.72 136.97,228.69 C 137.23,228.65 137.53,228.62 137.86,228.59 C 138.19,228.57 138.55,228.55 138.95,228.53 C 139.35,228.52 139.78,228.51 140.25,228.50 C 140.72,228.49 141.27,228.51 141.75,228.50 C 142.23,228.49 142.68,228.48 143.12,228.46 C 143.55,228.44 143.96,228.42 144.35,228.38 C 144.74,228.35 145.11,228.31 145.45,228.27 C 145.80,228.22 146.12,228.17 146.42,228.11 C 146.72,228.05 147.00,227.99 147.26,227.91 C 147.51,227.84 147.75,227.76 147.96,227.68 C 148.17,227.60 148.36,227.50 148.53,227.41 C 148.70,227.31 148.83,227.20 148.97,227.09 C 149.10,226.99 149.23,226.89 149.34,226.80 C 149.46,226.70 149.56,226.61 149.66,226.52 C 149.75,226.42 149.83,226.34 149.91,226.25 C 149.98,226.16 150.04,226.08 150.09,226.00 C 150.15,225.92 150.19,225.84 150.22,225.77 C 150.25,225.69 150.27,225.62 150.28,225.55 C 150.29,225.48 150.29,225.41 150.28,225.34 C 150.27,225.28 150.26,225.21 150.22,225.16 C 150.17,225.10 150.10,225.04 150.01,224.99 C 149.91,224.94 149.79,224.89 149.65,224.85 C 149.50,224.81 149.33,224.77 149.14,224.73 C 148.95,224.70 148.73,224.67 148.48,224.64 C 148.24,224.61 147.97,224.59 147.68,224.57 C 147.39,224.55 147.07,224.54 146.73,224.52 C 146.38,224.51 146.02,224.50 145.62,224.50 C 145.23,224.50 144.76,224.51 144.38,224.50 C 143.99,224.49 143.63,224.48 143.30,224.47 C 142.97,224.45 142.66,224.43 142.39,224.41 C 142.12,224.38 141.87,224.35 141.66,224.31 C 141.44,224.28 141.25,224.23 141.09,224.19 C 140.93,224.14 140.80,224.09 140.70,224.03 C 140.60,223.97 140.53,223.91 140.48,223.84 C 140.44,223.78 140.42,223.70 140.44,223.62 C 140.45,223.55 140.32,223.51 140.56,223.38 C 140.81,223.24 141.26,223.05 141.91,222.81 C 142.56,222.57 143.41,222.28 144.47,221.94 C 145.53,221.59 146.79,221.20 148.25,220.75 C 149.71,220.30 151.38,219.80 153.25,219.25 C 155.12,218.70 157.19,218.09 159.47,217.44 C 161.74,216.78 164.22,216.07 166.91,215.31 C 169.59,214.55 172.47,213.74 175.56,212.88 C 178.65,212.01 182.27,211.01 185.44,210.12 C 188.60,209.24 191.64,208.39 194.55,207.58 C 197.46,206.76 200.24,205.98 202.89,205.23 C 205.54,204.49 208.07,203.77 210.47,203.09 C 212.87,202.41 215.14,201.77 217.28,201.16 C 219.42,200.54 221.44,199.97 223.33,199.42 C 225.22,198.88 226.98,198.37 228.61,197.89 C 230.24,197.41 231.75,196.97 233.12,196.56 C 234.50,196.15 235.67,195.79 236.88,195.44 C 238.08,195.09 239.25,194.77 240.38,194.47 C 241.50,194.17 242.58,193.90 243.62,193.66 C 244.67,193.41 245.67,193.19 246.62,193.00 C 247.58,192.81 248.50,192.64 249.38,192.50 C 250.25,192.36 251.08,192.24 251.88,192.16 C 252.67,192.07 253.42,192.01 254.12,191.97 C 254.83,191.93 255.50,191.92 256.12,191.94 C 256.75,191.95 257.25,192.05 257.88,192.06 C 258.50,192.08 259.16,192.07 259.86,192.03 C 260.56,191.99 261.30,191.93 262.08,191.84 C 262.86,191.76 263.67,191.64 264.53,191.50 C 265.39,191.36 266.28,191.19 267.22,191.00 C 268.15,190.81 269.13,190.59 270.14,190.34 C 271.15,190.10 272.21,189.83 273.30,189.53 C 274.39,189.23 275.52,188.91 276.69,188.56 C 277.86,188.21 279.16,187.82 280.31,187.44 C 281.47,187.06 282.57,186.67 283.62,186.28 C 284.68,185.89 285.68,185.49 286.62,185.09 C 287.57,184.69 288.47,184.29 289.31,183.88 C 290.16,183.46 290.95,183.05 291.69,182.62 C 292.43,182.20 293.11,181.78 293.75,181.34 C 294.39,180.91 294.97,180.47 295.50,180.03 C 296.03,179.59 296.51,179.14 296.94,178.69 C 297.36,178.23 297.57,177.74 298.06,177.31 C 298.55,176.88 299.16,176.48 299.89,176.11 C 300.62,175.74 301.46,175.39 302.42,175.08 C 303.38,174.76 304.46,174.48 305.66,174.22 C 306.85,173.96 308.16,173.73 309.59,173.53 C 311.02,173.33 312.57,173.16 314.23,173.02 C 315.90,172.87 317.68,172.76 319.58,172.67 C 321.48,172.59 323.49,172.53 325.62,172.50 C 327.76,172.47 330.27,172.49 332.38,172.50 C 334.48,172.51 336.45,172.52 338.28,172.53 C 340.11,172.55 341.80,172.57 343.34,172.59 C 344.89,172.62 346.30,172.65 347.56,172.69 C 348.83,172.72 349.95,172.77 350.94,172.81 C 351.92,172.86 352.77,172.91 353.47,172.97 C 354.17,173.03 354.73,173.09 355.16,173.16 C 355.58,173.22 355.86,173.30 356.00,173.38 C 356.14,173.45 356.04,173.54 356.00,173.62 C 355.96,173.71 355.89,173.78 355.78,173.86 C 355.67,173.93 355.53,174.01 355.34,174.08 C 355.16,174.15 354.94,174.22 354.69,174.28 C 354.43,174.35 354.14,174.41 353.81,174.47 C 353.48,174.53 353.12,174.59 352.72,174.64 C 352.32,174.70 351.88,174.75 351.41,174.80 C 350.93,174.85 350.42,174.89 349.88,174.94 C 349.33,174.98 348.67,175.02 348.12,175.06 C 347.58,175.11 347.06,175.15 346.59,175.20 C 346.11,175.24 345.67,175.29 345.26,175.34 C 344.85,175.38 344.48,175.43 344.14,175.48 C 343.80,175.54 343.50,175.59 343.23,175.64 C 342.97,175.69 342.74,175.75 342.54,175.80 C 342.34,175.86 342.18,175.92 342.05,175.98 C 341.93,176.04 341.84,176.10 341.78,176.16 C 341.73,176.22 341.68,176.23 341.72,176.34 C 341.75,176.46 341.84,176.62 341.98,176.83 C 342.13,177.04 342.33,177.30 342.58,177.61 C 342.83,177.92 343.14,178.28 343.50,178.69 C 343.86,179.10 344.28,179.55 344.75,180.06 C 345.22,180.57 345.75,181.13 346.33,181.73 C 346.91,182.34 347.54,183.00 348.23,183.70 C 348.92,184.41 349.67,185.16 350.47,185.97 C 351.27,186.77 352.22,187.72 353.03,188.53 C 353.84,189.34 354.61,190.10 355.34,190.81 C 356.07,191.53 356.76,192.19 357.41,192.81 C 358.05,193.43 358.66,194.01 359.22,194.53 C 359.78,195.06 360.30,195.54 360.78,195.97 C 361.26,196.40 361.70,196.79 362.09,197.12 C 362.49,197.46 362.84,197.76 363.16,198.00 C 363.47,198.24 363.74,198.44 363.97,198.59 C 364.20,198.74 364.36,198.80 364.53,198.91 C 364.71,199.01 364.87,199.12 365.02,199.23 C 365.18,199.33 365.32,199.44 365.45,199.55 C 365.57,199.67 365.69,199.78 365.80,199.89 C 365.90,200.00 366.00,200.12 366.08,200.23 C 366.16,200.35 366.23,200.47 366.29,200.59 C 366.35,200.70 366.39,200.82 366.43,200.95 C 366.46,201.07 366.49,201.19 366.50,201.31 C 366.51,201.44 366.49,201.56 366.50,201.69 C 366.51,201.81 366.52,201.93 366.54,202.05 C 366.56,202.18 366.58,202.30 366.62,202.41 C 366.65,202.53 366.69,202.65 366.73,202.77 C 366.78,202.88 366.83,203.00 366.89,203.11 C 366.95,203.22 367.01,203.33 367.09,203.45 C 367.16,203.56 367.24,203.67 367.32,203.77 C 367.40,203.88 367.50,203.99 367.59,204.09 C 367.69,204.20 367.78,204.29 367.91,204.41 C 368.03,204.52 368.18,204.64 368.36,204.77 C 368.53,204.89 368.73,205.03 368.95,205.17 C 369.17,205.32 369.42,205.47 369.69,205.62 C 369.96,205.78 370.25,205.95 370.56,206.12 C 370.88,206.30 371.22,206.48 371.58,206.67 C 371.94,206.86 372.33,207.06 372.73,207.27 C 373.14,207.47 373.58,207.68 374.03,207.91 C 374.49,208.13 375.02,208.37 375.47,208.59 C 375.91,208.82 376.33,209.03 376.70,209.23 C 377.08,209.44 377.42,209.64 377.73,209.83 C 378.04,210.02 378.32,210.20 378.56,210.38 C 378.80,210.55 379.01,210.72 379.19,210.88 C 379.36,211.03 379.50,211.18 379.61,211.33 C 379.72,211.47 379.79,211.61 379.83,211.73 C 379.87,211.86 379.87,211.98 379.84,212.09 C 379.82,212.21 379.74,212.31 379.66,212.41 C 379.57,212.50 379.47,212.60 379.35,212.68 C 379.23,212.76 379.09,212.84 378.93,212.91 C 378.77,212.99 378.59,213.05 378.39,213.11 C 378.19,213.17 377.97,213.22 377.73,213.27 C 377.50,213.31 377.24,213.35 376.96,213.38 C 376.68,213.42 376.39,213.44 376.07,213.46 C 375.75,213.48 375.42,213.49 375.06,213.50 C 374.71,213.51 374.30,213.49 373.94,213.50 C 373.57,213.51 373.22,213.52 372.88,213.53 C 372.53,213.55 372.20,213.57 371.88,213.59 C 371.55,213.62 371.24,213.65 370.94,213.69 C 370.64,213.72 370.34,213.77 370.06,213.81 C 369.78,213.86 369.51,213.91 369.25,213.97 C 368.99,214.03 368.74,214.09 368.50,214.16 C 368.26,214.22 368.03,214.30 367.81,214.38 C 367.59,214.45 367.39,214.54 367.19,214.62 C 366.99,214.71 366.79,214.80 366.61,214.89 C 366.42,214.98 366.25,215.08 366.08,215.17 C 365.91,215.27 365.75,215.37 365.59,215.47 C 365.44,215.57 365.29,215.67 365.16,215.78 C 365.02,215.89 364.89,216.00 364.77,216.11 C 364.64,216.22 364.53,216.34 364.42,216.45 C 364.32,216.57 364.22,216.69 364.12,216.81 C 364.03,216.93 363.99,217.06 363.88,217.19 C 363.76,217.31 363.63,217.43 363.46,217.55 C 363.30,217.68 363.10,217.80 362.88,217.91 C 362.66,218.03 362.42,218.15 362.14,218.27 C 361.87,218.38 361.56,218.50 361.23,218.61 C 360.90,218.72 360.55,218.83 360.16,218.95 C 359.78,219.06 359.37,219.17 358.93,219.27 C 358.49,219.38 358.02,219.49 357.53,219.59 C 357.04,219.70 356.46,219.80 355.97,219.91 C 355.48,220.01 355.03,220.11 354.61,220.20 C 354.19,220.30 353.80,220.39 353.45,220.48 C 353.10,220.58 352.78,220.66 352.50,220.75 C 352.22,220.84 351.97,220.92 351.75,221.00 C 351.53,221.08 351.35,221.16 351.20,221.23 C 351.05,221.31 350.94,221.38 350.86,221.45 C 350.78,221.52 350.73,221.59 350.72,221.66 C 350.71,221.72 350.71,221.77 350.78,221.84 C 350.85,221.92 350.96,222.00 351.12,222.09 C 351.29,222.19 351.49,222.29 351.75,222.41 C 352.01,222.52 352.31,222.65 352.66,222.78 C 353.01,222.92 353.40,223.06 353.84,223.22 C 354.29,223.38 354.78,223.54 355.31,223.72 C 355.85,223.90 356.43,224.08 357.06,224.28 C 357.69,224.48 358.37,224.69 359.09,224.91 C 359.82,225.12 360.68,225.32 361.41,225.59 C 362.13,225.87 362.81,226.18 363.45,226.54 C 364.08,226.90 364.67,227.30 365.21,227.74 C 365.75,228.19 366.25,228.67 366.70,229.20 C 367.15,229.73 367.56,230.31 367.92,230.92 C 368.28,231.54 368.60,232.20 368.87,232.90 C 369.14,233.60 369.36,234.35 369.54,235.13 C 369.72,235.92 369.85,236.75 369.94,237.62 C 370.02,238.50 370.03,239.49 370.06,240.38 C 370.10,241.26 370.13,242.12 370.15,242.95 C 370.17,243.77 370.19,244.57 370.20,245.34 C 370.20,246.10 370.21,246.84 370.20,247.55 C 370.20,248.25 370.19,248.93 370.17,249.58 C 370.15,250.23 370.13,250.84 370.10,251.43 C 370.07,252.02 370.04,252.57 369.99,253.10 C 369.95,253.63 369.90,254.13 369.84,254.59 C 369.79,255.06 369.76,255.48 369.66,255.91 C 369.55,256.33 369.41,256.74 369.22,257.14 C 369.03,257.54 368.80,257.92 368.53,258.30 C 368.26,258.67 367.95,259.03 367.59,259.38 C 367.24,259.72 366.84,260.05 366.41,260.38 C 365.97,260.70 365.49,261.00 364.97,261.30 C 364.45,261.59 363.89,261.87 363.28,262.14 C 362.68,262.41 362.03,262.66 361.34,262.91 C 360.66,263.15 359.81,263.37 359.16,263.59 C 358.50,263.82 357.92,264.04 357.42,264.25 C 356.92,264.46 356.49,264.67 356.14,264.88 C 355.79,265.08 355.51,265.28 355.31,265.47 C 355.11,265.66 354.99,265.85 354.94,266.03 C 354.89,266.21 354.91,266.39 355.02,266.56 C 355.12,266.73 355.29,266.90 355.55,267.06 C 355.80,267.22 356.13,267.38 356.53,267.53 C 356.93,267.68 357.50,267.82 357.97,267.97 C 358.43,268.12 358.88,268.26 359.32,268.41 C 359.76,268.56 360.18,268.71 360.59,268.87 C 360.99,269.02 361.39,269.17 361.77,269.33 C 362.14,269.48 362.51,269.64 362.86,269.80 C 363.21,269.95 363.55,270.11 363.87,270.27 C 364.19,270.43 364.50,270.60 364.79,270.76 C 365.08,270.92 365.36,271.08 365.62,271.25 C 365.89,271.42 366.11,271.59 366.38,271.75 C 366.64,271.91 366.91,272.05 367.19,272.19 C 367.47,272.32 367.76,272.45 368.06,272.56 C 368.36,272.68 368.68,272.78 369.00,272.88 C 369.32,272.97 369.66,273.05 370.00,273.12 C 370.34,273.20 370.70,273.26 371.06,273.31 C 371.43,273.36 371.80,273.41 372.19,273.44 C 372.57,273.47 372.97,273.49 373.38,273.50 C 373.78,273.51 374.23,273.50 374.62,273.50 C 375.02,273.50 375.39,273.51 375.74,273.52 C 376.09,273.54 376.42,273.55 376.73,273.57 C 377.03,273.59 377.32,273.61 377.58,273.64 C 377.84,273.67 378.08,273.70 378.30,273.73 C 378.51,273.77 378.71,273.81 378.88,273.85 C 379.06,273.89 379.21,273.94 379.34,273.99 C 379.46,274.04 379.57,274.10 379.66,274.16 C 379.74,274.21 379.79,274.28 379.84,274.34 C 379.90,274.41 379.94,274.48 379.97,274.56 C 380.00,274.64 380.02,274.72 380.03,274.81 C 380.04,274.90 380.04,274.99 380.03,275.09 C 380.02,275.19 380.00,275.30 379.97,275.41 C 379.94,275.52 379.90,275.63 379.84,275.75 C 379.79,275.87 379.73,275.99 379.66,276.12 C 379.58,276.26 379.50,276.39 379.41,276.53 C 379.31,276.67 379.22,276.82 379.09,276.97 C 378.97,277.12 378.83,277.26 378.66,277.41 C 378.50,277.56 378.32,277.71 378.12,277.87 C 377.92,278.02 377.69,278.17 377.45,278.33 C 377.21,278.48 376.95,278.64 376.67,278.80 C 376.39,278.95 376.09,279.11 375.77,279.27 C 375.45,279.43 375.12,279.60 374.76,279.76 C 374.40,279.92 374.02,280.08 373.62,280.25 C 373.23,280.42 372.77,280.58 372.38,280.75 C 371.98,280.92 371.60,281.10 371.24,281.29 C 370.88,281.48 370.55,281.67 370.23,281.87 C 369.91,282.07 369.61,282.27 369.33,282.48 C 369.05,282.70 368.79,282.92 368.55,283.14 C 368.31,283.37 368.08,283.60 367.88,283.84 C 367.68,284.07 367.50,284.32 367.34,284.57 C 367.17,284.82 367.03,285.08 366.91,285.34 C 366.78,285.61 366.70,285.90 366.59,286.16 C 366.49,286.41 366.38,286.65 366.27,286.88 C 366.15,287.10 366.04,287.31 365.92,287.50 C 365.80,287.69 365.68,287.87 365.56,288.03 C 365.44,288.19 365.32,288.34 365.19,288.47 C 365.06,288.60 364.93,288.71 364.80,288.81 C 364.66,288.91 364.53,288.99 364.39,289.06 C 364.25,289.13 364.11,289.18 363.97,289.22 C 363.83,289.26 363.72,289.21 363.53,289.28 C 363.34,289.35 363.11,289.48 362.83,289.66 C 362.55,289.83 362.23,290.06 361.86,290.34 C 361.49,290.62 361.08,290.96 360.62,291.34 C 360.17,291.73 359.67,292.17 359.12,292.66 C 358.58,293.15 357.99,293.69 357.36,294.28 C 356.73,294.88 356.05,295.52 355.33,296.22 C 354.61,296.92 353.84,297.67 353.03,298.47 C 352.22,299.27 351.27,300.23 350.47,301.03 C 349.67,301.84 348.92,302.59 348.23,303.30 C 347.54,304.00 346.91,304.66 346.33,305.27 C 345.75,305.87 345.22,306.43 344.75,306.94 C 344.28,307.45 343.86,307.90 343.50,308.31 C 343.14,308.72 342.83,309.08 342.58,309.39 C 342.33,309.70 342.13,309.96 341.98,310.17 C 341.84,310.38 341.75,310.54 341.72,310.66 C 341.68,310.77 341.76,310.79 341.78,310.84 C 341.80,310.90 341.83,310.95 341.85,310.99 C 341.88,311.04 341.90,311.07 341.93,311.10 C 341.96,311.13 341.99,311.15 342.02,311.17 C 342.05,311.19 342.08,311.20 342.11,311.20 C 342.14,311.21 342.18,311.20 342.21,311.20 C 342.25,311.19 342.28,311.17 342.32,311.15 C 342.36,311.13 342.40,311.10 342.44,311.06 C 342.48,311.03 342.51,310.97 342.56,310.94 C 342.62,310.91 342.69,310.89 342.78,310.88 C 342.87,310.86 342.97,310.86 343.09,310.88 C 343.21,310.89 343.35,310.91 343.50,310.94 C 343.65,310.97 343.82,311.01 344.00,311.06 C 344.18,311.11 344.38,311.18 344.59,311.25 C 344.81,311.32 345.04,311.41 345.28,311.50 C 345.53,311.59 345.79,311.70 346.06,311.81 C 346.34,311.93 346.65,312.07 346.94,312.19 C 347.23,312.30 347.51,312.41 347.80,312.50 C 348.08,312.59 348.36,312.68 348.64,312.75 C 348.92,312.82 349.20,312.89 349.47,312.94 C 349.74,312.99 350.01,313.03 350.28,313.06 C 350.55,313.09 350.82,313.11 351.08,313.12 C 351.34,313.14 351.60,313.14 351.86,313.12 C 352.12,313.11 352.37,313.09 352.62,313.06 C 352.88,313.03 353.14,312.97 353.38,312.94 C 353.61,312.90 353.83,312.87 354.04,312.85 C 354.25,312.83 354.44,312.81 354.62,312.80 C 354.80,312.80 354.96,312.79 355.11,312.80 C 355.26,312.80 355.39,312.81 355.52,312.83 C 355.64,312.85 355.74,312.87 355.84,312.90 C 355.93,312.93 356.01,312.96 356.07,313.01 C 356.13,313.05 356.18,313.10 356.22,313.16 C 356.25,313.21 356.30,313.28 356.28,313.34 C 356.26,313.41 356.20,313.47 356.09,313.53 C 355.99,313.59 355.84,313.66 355.66,313.72 C 355.47,313.78 355.24,313.84 354.97,313.91 C 354.70,313.97 354.39,314.03 354.03,314.09 C 353.68,314.16 353.28,314.22 352.84,314.28 C 352.41,314.34 351.93,314.41 351.41,314.47 C 350.89,314.53 350.32,314.59 349.72,314.66 C 349.11,314.72 348.49,314.79 347.78,314.84 C 347.07,314.90 346.31,314.95 345.48,314.99 C 344.65,315.04 343.76,315.07 342.80,315.10 C 341.85,315.13 340.84,315.15 339.77,315.17 C 338.69,315.19 337.56,315.20 336.36,315.20 C 335.16,315.21 333.90,315.20 332.59,315.20 C 331.27,315.19 329.89,315.17 328.45,315.15 C 327.00,315.13 325.50,315.10 323.94,315.06 Z" fill="none" stroke="currentColor" stroke-width="1.5" stroke-linejoin="round" stroke-linecap="round" filter="url(#glow)" />
</svg>