<svg xmlns="http://www.w3.org/2000/svg" width="512" height="512" viewBox="106.96 176.58 305.70 150.46" preserveAspectRatio="xMidYMid meet">
  <defs>
    <filter id="glow" x="-30%" y="-30%" width="160%" height="160%">
      <feGaussianBlur in="SourceGraphic" stdDeviation="2.4" result="blur" />
      <feMerge>
        <feMergeNode in="blur" />
        <feMergeNode in="SourceGraphic" />
      </feMerge>
    </filter>
    <clipPath id="hull-clip">
      <path d="M 252.62,314.50 C 251.60,314.51 250.40,314.51 249.38,314.50 C 248.35,314.49 247.39,314.46 246.49,314.43 C 245.59,314.39 244.75,314.35 243.98,314.29 C 243.20,314.23 242.48,314.16 241.83,314.08 C 241.17,314.00 240.58,313.90 240.05,313.80 C 239.51,313.69 239.04,313.57 238.63,313.45 C 238.22,313.32 237.87,313.18 237.59,313.02 C 237.30,312.87 237.07,312.71 236.91,312.53 C 236.74,312.36 236.70,312.19 236.59,311.97 C 236.49,311.75 236.38,311.49 236.27,311.20 C 236.15,310.91 236.04,310.59 235.92,310.23 C 235.80,309.88 235.68,309.49 235.56,309.06 C 235.44,308.64 235.32,308.18 235.19,307.69 C 235.06,307.20 234.93,306.67 234.80,306.11 C 234.66,305.55 234.53,304.96 234.39,304.33 C 234.25,303.70 234.11,303.04 233.97,302.34 C 233.83,301.65 233.69,300.83 233.53,300.16 C 233.37,299.49 233.19,298.87 232.99,298.32 C 232.80,297.77 232.58,297.27 232.35,296.84 C 232.12,296.40 231.87,296.02 231.61,295.70 C 231.35,295.38 231.06,295.12 230.77,294.92 C 230.47,294.72 230.15,294.58 229.82,294.49 C 229.49,294.41 229.14,294.38 228.77,294.41 C 228.41,294.45 228.02,294.54 227.62,294.69 C 227.23,294.84 226.80,295.12 226.38,295.31 C 225.95,295.51 225.52,295.68 225.08,295.84 C 224.64,296.01 224.19,296.15 223.73,296.28 C 223.28,296.41 222.82,296.53 222.34,296.62 C 221.87,296.72 221.39,296.81 220.91,296.88 C 220.42,296.94 219.92,296.99 219.42,297.03 C 218.92,297.07 218.41,297.09 217.89,297.09 C 217.37,297.10 216.85,297.09 216.31,297.06 C 215.78,297.04 215.19,296.98 214.69,296.94 C 214.19,296.89 213.73,296.84 213.30,296.79 C 212.88,296.74 212.50,296.68 212.16,296.62 C 211.82,296.56 211.52,296.49 211.27,296.42 C 211.01,296.35 210.79,296.28 210.61,296.20 C 210.43,296.13 210.29,296.05 210.20,295.96 C 210.10,295.88 210.04,295.79 210.02,295.70 C 210.01,295.60 210.03,295.51 210.09,295.41 C 210.16,295.31 210.31,295.24 210.41,295.09 C 210.50,294.94 210.60,294.75 210.68,294.51 C 210.76,294.27 210.84,293.98 210.91,293.65 C 210.99,293.32 211.05,292.94 211.11,292.52 C 211.17,292.09 211.22,291.62 211.27,291.11 C 211.31,290.60 211.35,290.04 211.38,289.43 C 211.42,288.82 211.44,288.17 211.46,287.48 C 211.48,286.78 211.49,286.04 211.50,285.25 C 211.51,284.46 211.51,283.54 211.50,282.75 C 211.49,281.96 211.48,281.22 211.45,280.53 C 211.43,279.84 211.40,279.19 211.36,278.59 C 211.32,277.99 211.27,277.44 211.22,276.94 C 211.16,276.43 211.10,275.97 211.03,275.56 C 210.96,275.15 210.88,274.79 210.80,274.47 C 210.71,274.15 210.62,273.88 210.52,273.66 C 210.41,273.43 210.30,273.26 210.19,273.12 C 210.07,272.99 209.93,272.96 209.81,272.88 C 209.70,272.79 209.59,272.70 209.49,272.62 C 209.39,272.53 209.31,272.44 209.23,272.35 C 209.15,272.26 209.08,272.17 209.02,272.08 C 208.95,271.99 208.90,271.89 208.86,271.80 C 208.82,271.70 208.78,271.61 208.76,271.51 C 208.73,271.41 208.72,271.31 208.71,271.21 C 208.70,271.11 208.71,271.01 208.72,270.91 C 208.73,270.80 208.78,270.69 208.78,270.59 C 208.79,270.50 208.78,270.41 208.75,270.33 C 208.72,270.25 208.68,270.17 208.62,270.11 C 208.57,270.04 208.49,269.99 208.41,269.94 C 208.32,269.89 208.21,269.85 208.09,269.81 C 207.97,269.78 207.84,269.75 207.69,269.73 C 207.54,269.72 207.37,269.71 207.19,269.70 C 207.01,269.70 206.81,269.71 206.59,269.72 C 206.38,269.73 206.12,269.74 205.91,269.78 C 205.69,269.82 205.49,269.89 205.30,269.97 C 205.11,270.05 204.93,270.16 204.77,270.28 C 204.60,270.41 204.45,270.55 204.31,270.72 C 204.17,270.89 204.05,271.07 203.94,271.28 C 203.83,271.49 203.73,271.72 203.64,271.97 C 203.55,272.22 203.48,272.49 203.42,272.78 C 203.36,273.07 203.32,273.39 203.28,273.72 C 203.25,274.05 203.30,274.45 203.22,274.78 C 203.14,275.12 203.00,275.43 202.80,275.73 C 202.61,276.02 202.35,276.30 202.04,276.55 C 201.73,276.81 201.35,277.05 200.92,277.27 C 200.49,277.48 200.00,277.68 199.45,277.86 C 198.90,278.04 198.30,278.20 197.63,278.34 C 196.97,278.48 196.24,278.60 195.46,278.70 C 194.68,278.80 193.84,278.88 192.94,278.94 C 192.04,279.00 191.00,279.04 190.06,279.06 C 189.13,279.09 188.22,279.09 187.33,279.08 C 186.44,279.07 185.58,279.03 184.73,278.98 C 183.89,278.93 183.08,278.87 182.28,278.78 C 181.49,278.70 180.72,278.59 179.97,278.47 C 179.22,278.35 178.50,278.21 177.80,278.05 C 177.10,277.89 176.42,277.71 175.77,277.52 C 175.11,277.32 174.48,277.11 173.88,276.88 C 173.27,276.64 172.74,276.36 172.12,276.12 C 171.51,275.89 170.86,275.66 170.19,275.44 C 169.51,275.22 168.80,275.01 168.06,274.81 C 167.32,274.61 166.55,274.43 165.75,274.25 C 164.95,274.07 164.11,273.91 163.25,273.75 C 162.39,273.59 161.49,273.45 160.56,273.31 C 159.64,273.18 158.68,273.05 157.69,272.94 C 156.70,272.82 155.68,272.72 154.62,272.62 C 153.57,272.53 152.41,272.47 151.38,272.38 C 150.34,272.28 149.36,272.18 148.42,272.06 C 147.49,271.95 146.60,271.82 145.77,271.69 C 144.93,271.55 144.14,271.41 143.41,271.25 C 142.67,271.09 141.98,270.93 141.34,270.75 C 140.71,270.57 140.12,270.39 139.58,270.19 C 139.04,269.99 138.55,269.78 138.11,269.56 C 137.67,269.34 137.28,269.11 136.94,268.88 C 136.60,268.64 136.37,268.36 136.06,268.12 C 135.76,267.89 135.44,267.66 135.11,267.45 C 134.78,267.24 134.43,267.04 134.08,266.86 C 133.72,266.67 133.35,266.50 132.97,266.34 C 132.59,266.18 132.19,266.04 131.78,265.91 C 131.37,265.77 130.95,265.65 130.52,265.55 C 130.08,265.44 129.63,265.35 129.17,265.27 C 128.71,265.18 128.24,265.12 127.75,265.06 C 127.26,265.01 126.70,264.98 126.25,264.94 C 125.80,264.89 125.40,264.85 125.05,264.80 C 124.71,264.76 124.41,264.71 124.16,264.66 C 123.92,264.62 123.72,264.57 123.58,264.52 C 123.43,264.46 123.34,264.41 123.30,264.36 C 123.25,264.31 123.26,264.25 123.32,264.20 C 123.38,264.14 123.49,264.08 123.65,264.02 C 123.81,263.96 124.02,263.90 124.28,263.84 C 124.54,263.78 124.96,263.74 125.22,263.66 C 125.48,263.57 125.69,263.46 125.85,263.32 C 126.01,263.18 126.12,263.02 126.18,262.84 C 126.24,262.65 126.25,262.44 126.20,262.20 C 126.16,261.97 126.07,261.71 125.92,261.42 C 125.78,261.14 125.58,260.83 125.34,260.49 C 125.09,260.16 124.79,259.80 124.45,259.41 C 124.10,259.03 123.70,258.62 123.25,258.19 C 122.80,257.75 122.19,257.27 121.75,256.81 C 121.31,256.35 120.94,255.90 120.62,255.44 C 120.31,254.98 120.06,254.52 119.88,254.06 C 119.69,253.60 119.56,253.15 119.50,252.69 C 119.44,252.23 119.44,251.77 119.50,251.31 C 119.56,250.85 119.69,250.40 119.88,249.94 C 120.06,249.48 120.31,249.02 120.62,248.56 C 120.94,248.10 121.31,247.65 121.75,247.19 C 122.19,246.73 122.80,246.24 123.25,245.81 C 123.70,245.38 124.11,244.98 124.46,244.60 C 124.82,244.23 125.12,243.88 125.38,243.55 C 125.64,243.23 125.85,242.94 126.02,242.67 C 126.18,242.40 126.29,242.17 126.36,241.95 C 126.43,241.74 126.44,241.56 126.41,241.40 C 126.38,241.24 126.31,241.11 126.18,241.01 C 126.05,240.90 125.88,240.83 125.66,240.78 C 125.43,240.73 125.10,240.74 124.84,240.72 C 124.59,240.69 124.35,240.67 124.12,240.63 C 123.89,240.60 123.68,240.56 123.48,240.52 C 123.28,240.48 123.09,240.44 122.92,240.39 C 122.75,240.34 122.60,240.29 122.45,240.23 C 122.31,240.18 122.18,240.12 122.07,240.05 C 121.96,239.99 121.86,239.92 121.77,239.85 C 121.69,239.78 121.62,239.70 121.56,239.62 C 121.51,239.55 121.45,239.45 121.44,239.38 C 121.42,239.30 121.44,239.22 121.48,239.16 C 121.53,239.09 121.60,239.03 121.70,238.97 C 121.80,238.91 121.93,238.86 122.09,238.81 C 122.25,238.77 122.44,238.72 122.66,238.69 C 122.87,238.65 123.12,238.62 123.39,238.59 C 123.66,238.57 123.97,238.55 124.30,238.53 C 124.63,238.52 124.99,238.51 125.38,238.50 C 125.76,238.49 126.21,238.52 126.62,238.50 C 127.04,238.48 127.44,238.45 127.84,238.41 C 128.24,238.36 128.64,238.30 129.03,238.22 C 129.42,238.14 129.81,238.05 130.19,237.94 C 130.57,237.83 130.94,237.70 131.31,237.56 C 131.68,237.42 132.05,237.27 132.41,237.09 C 132.77,236.92 133.12,236.73 133.47,236.53 C 133.82,236.33 134.16,236.11 134.50,235.88 C 134.84,235.64 135.12,235.36 135.50,235.12 C 135.88,234.89 136.30,234.66 136.77,234.44 C 137.23,234.22 137.74,234.01 138.30,233.81 C 138.85,233.61 139.45,233.43 140.09,233.25 C 140.74,233.07 141.42,232.91 142.16,232.75 C 142.89,232.59 143.66,232.45 144.48,232.31 C 145.30,232.18 146.17,232.05 147.08,231.94 C 147.99,231.82 148.94,231.72 149.94,231.62 C 150.93,231.53 152.04,231.47 153.06,231.38 C 154.08,231.28 155.08,231.17 156.06,231.05 C 157.04,230.92 158.00,230.79 158.94,230.64 C 159.88,230.49 160.79,230.33 161.69,230.16 C 162.58,229.98 163.46,229.79 164.31,229.59 C 165.17,229.39 166.00,229.18 166.81,228.95 C 167.62,228.73 168.42,228.49 169.19,228.23 C 169.96,227.98 170.71,227.72 171.44,227.44 C 172.17,227.16 172.84,226.83 173.56,226.56 C 174.28,226.29 175.02,226.05 175.77,225.83 C 176.51,225.61 177.27,225.41 178.05,225.23 C 178.82,225.06 179.61,224.91 180.41,224.78 C 181.21,224.65 182.02,224.55 182.84,224.47 C 183.67,224.39 184.51,224.33 185.36,224.30 C 186.21,224.26 187.08,224.25 187.95,224.27 C 188.83,224.28 189.72,224.32 190.62,224.38 C 191.53,224.43 192.51,224.53 193.38,224.62 C 194.24,224.72 195.04,224.83 195.79,224.96 C 196.54,225.09 197.23,225.23 197.87,225.38 C 198.50,225.54 199.08,225.71 199.61,225.89 C 200.13,226.07 200.60,226.27 201.02,226.48 C 201.43,226.70 201.79,226.92 202.09,227.16 C 202.39,227.40 202.63,227.66 202.82,227.93 C 203.01,228.20 203.14,228.48 203.22,228.78 C 203.30,229.08 203.25,229.42 203.28,229.72 C 203.31,230.02 203.35,230.30 203.41,230.56 C 203.46,230.83 203.52,231.08 203.59,231.31 C 203.67,231.55 203.75,231.77 203.84,231.97 C 203.94,232.17 204.04,232.36 204.16,232.53 C 204.27,232.70 204.40,232.86 204.53,233.00 C 204.67,233.14 204.81,233.27 204.97,233.38 C 205.12,233.48 205.29,233.58 205.47,233.66 C 205.65,233.73 205.85,233.80 206.03,233.84 C 206.22,233.89 206.40,233.91 206.58,233.92 C 206.76,233.93 206.93,233.92 207.11,233.89 C 207.28,233.86 207.46,233.82 207.62,233.75 C 207.79,233.68 207.96,233.60 208.12,233.50 C 208.29,233.40 208.45,233.28 208.61,233.14 C 208.77,233.00 208.92,232.85 209.08,232.67 C 209.23,232.50 209.38,232.30 209.53,232.09 C 209.68,231.88 209.83,231.67 209.97,231.41 C 210.11,231.14 210.23,230.84 210.35,230.51 C 210.47,230.17 210.58,229.80 210.68,229.40 C 210.78,228.99 210.87,228.55 210.95,228.08 C 211.04,227.60 211.11,227.09 211.17,226.55 C 211.24,226.00 211.29,225.42 211.34,224.80 C 211.38,224.19 211.42,223.54 211.45,222.85 C 211.47,222.17 211.49,221.44 211.50,220.69 C 211.51,219.93 211.51,219.06 211.50,218.31 C 211.49,217.56 211.48,216.85 211.45,216.19 C 211.43,215.52 211.40,214.90 211.36,214.31 C 211.32,213.73 211.27,213.19 211.22,212.69 C 211.16,212.19 211.10,211.73 211.03,211.31 C 210.96,210.90 210.88,210.52 210.80,210.19 C 210.71,209.85 210.62,209.56 210.52,209.31 C 210.41,209.06 210.30,208.85 210.19,208.69 C 210.07,208.52 209.90,208.43 209.81,208.31 C 209.73,208.19 209.68,208.07 209.68,207.96 C 209.68,207.85 209.71,207.74 209.79,207.63 C 209.87,207.53 209.98,207.43 210.14,207.33 C 210.30,207.23 210.50,207.14 210.73,207.05 C 210.97,206.96 211.25,206.87 211.57,206.79 C 211.89,206.71 212.25,206.63 212.65,206.55 C 213.05,206.48 213.49,206.41 213.97,206.34 C 214.45,206.28 215.01,206.20 215.53,206.16 C 216.05,206.11 216.56,206.08 217.07,206.07 C 217.58,206.06 218.08,206.06 218.59,206.09 C 219.09,206.11 219.58,206.15 220.08,206.20 C 220.57,206.26 221.06,206.33 221.55,206.42 C 222.03,206.51 222.51,206.62 222.99,206.74 C 223.47,206.87 223.94,207.01 224.41,207.16 C 224.88,207.32 225.35,207.50 225.81,207.69 C 226.27,207.88 226.75,208.17 227.19,208.31 C 227.63,208.46 228.05,208.55 228.45,208.57 C 228.85,208.60 229.23,208.56 229.59,208.46 C 229.95,208.36 230.29,208.20 230.61,207.98 C 230.93,207.76 231.23,207.48 231.52,207.14 C 231.80,206.80 232.06,206.39 232.30,205.93 C 232.55,205.46 232.77,204.94 232.98,204.35 C 233.18,203.76 233.37,203.12 233.53,202.41 C 233.70,201.70 233.83,200.82 233.97,200.09 C 234.11,199.36 234.24,198.68 234.38,198.03 C 234.51,197.39 234.63,196.78 234.75,196.22 C 234.87,195.66 234.98,195.14 235.09,194.66 C 235.20,194.18 235.31,193.74 235.41,193.34 C 235.51,192.95 235.60,192.59 235.69,192.28 C 235.78,191.97 235.86,191.70 235.94,191.47 C 236.02,191.24 236.09,191.05 236.16,190.91 C 236.22,190.76 236.27,190.69 236.34,190.59 C 236.41,190.49 236.49,190.40 236.58,190.31 C 236.66,190.22 236.76,190.14 236.86,190.06 C 236.96,189.98 237.07,189.91 237.19,189.84 C 237.30,189.78 237.43,189.71 237.56,189.66 C 237.70,189.60 237.84,189.55 237.98,189.50 C 238.13,189.45 238.29,189.41 238.45,189.38 C 238.62,189.34 238.79,189.31 238.97,189.28 C 239.15,189.26 239.30,189.24 239.53,189.22 C 239.77,189.20 240.05,189.18 240.38,189.17 C 240.70,189.16 241.08,189.15 241.50,189.14 C 241.92,189.13 242.39,189.13 242.91,189.12 C 243.42,189.12 243.98,189.12 244.59,189.12 C 245.20,189.13 245.86,189.13 246.56,189.14 C 247.27,189.15 248.02,189.16 248.81,189.17 C 249.61,189.18 250.45,189.20 251.34,189.22 C 252.23,189.24 253.27,189.25 254.16,189.28 C 255.05,189.31 255.89,189.34 256.68,189.38 C 257.47,189.42 258.22,189.47 258.91,189.52 C 259.61,189.58 260.26,189.64 260.86,189.70 C 261.46,189.77 262.01,189.84 262.52,189.92 C 263.02,190.00 263.48,190.09 263.88,190.18 C 264.29,190.27 264.65,190.37 264.96,190.48 C 265.27,190.58 265.54,190.69 265.75,190.81 C 265.96,190.93 266.08,191.07 266.25,191.19 C 266.42,191.31 266.60,191.42 266.78,191.53 C 266.96,191.64 267.15,191.74 267.34,191.84 C 267.54,191.94 267.73,192.04 267.94,192.12 C 268.14,192.21 268.35,192.30 268.56,192.38 C 268.78,192.45 268.99,192.53 269.22,192.59 C 269.44,192.66 269.67,192.72 269.91,192.78 C 270.14,192.84 270.38,192.89 270.62,192.94 C 270.87,192.98 271.04,193.02 271.38,193.06 C 271.71,193.11 272.12,193.16 272.61,193.22 C 273.10,193.28 273.67,193.34 274.33,193.41 C 274.98,193.47 275.72,193.55 276.53,193.62 C 277.35,193.70 278.24,193.79 279.22,193.88 C 280.20,193.96 281.25,194.06 282.39,194.16 C 283.53,194.26 284.75,194.36 286.05,194.47 C 287.35,194.58 288.73,194.69 290.19,194.81 C 291.65,194.93 293.35,195.07 294.81,195.19 C 296.28,195.30 297.67,195.41 298.98,195.52 C 300.30,195.62 301.54,195.71 302.70,195.80 C 303.87,195.88 304.96,195.96 305.97,196.03 C 306.98,196.10 307.92,196.16 308.78,196.22 C 309.64,196.27 310.43,196.32 311.14,196.36 C 311.85,196.40 312.49,196.43 313.05,196.45 C 313.61,196.48 314.09,196.49 314.50,196.50 C 314.91,196.51 315.18,196.51 315.50,196.50 C 315.82,196.49 316.13,196.48 316.42,196.47 C 316.72,196.45 317.00,196.43 317.27,196.41 C 317.53,196.38 317.79,196.35 318.03,196.31 C 318.27,196.28 318.50,196.23 318.72,196.19 C 318.93,196.14 319.14,196.09 319.33,196.03 C 319.52,195.97 319.70,195.91 319.86,195.84 C 320.02,195.78 320.17,195.70 320.31,195.62 C 320.45,195.55 320.50,195.45 320.69,195.38 C 320.88,195.30 321.12,195.24 321.44,195.19 C 321.75,195.14 322.12,195.09 322.56,195.06 C 323.00,195.03 323.50,195.01 324.06,195.00 C 324.62,194.99 325.25,194.99 325.94,195.00 C 326.62,195.01 327.38,195.03 328.19,195.06 C 329.00,195.09 329.88,195.14 330.81,195.19 C 331.75,195.24 332.75,195.30 333.81,195.38 C 334.88,195.45 336.12,195.54 337.19,195.62 C 338.25,195.71 339.25,195.80 340.20,195.90 C 341.14,195.99 342.02,196.09 342.84,196.20 C 343.65,196.30 344.41,196.40 345.11,196.52 C 345.81,196.63 346.44,196.74 347.02,196.86 C 347.59,196.98 348.10,197.10 348.55,197.23 C 349.01,197.35 349.40,197.48 349.73,197.62 C 350.06,197.75 350.32,197.89 350.53,198.03 C 350.74,198.17 350.80,198.26 350.97,198.47 C 351.14,198.68 351.33,198.95 351.55,199.28 C 351.76,199.61 352.00,200.01 352.27,200.47 C 352.53,200.93 352.82,201.45 353.12,202.03 C 353.43,202.61 353.77,203.26 354.12,203.97 C 354.48,204.68 354.86,205.45 355.27,206.28 C 355.67,207.11 356.10,208.01 356.55,208.97 C 357.00,209.93 357.47,210.95 357.97,212.03 C 358.47,213.11 358.99,214.40 359.53,215.47 C 360.07,216.54 360.64,217.54 361.23,218.46 C 361.81,219.38 362.42,220.23 363.05,221.01 C 363.69,221.78 364.34,222.48 365.02,223.11 C 365.69,223.74 366.39,224.29 367.11,224.77 C 367.83,225.24 368.57,225.65 369.34,225.98 C 370.10,226.31 370.89,226.56 371.70,226.74 C 372.50,226.92 373.33,227.03 374.19,227.06 C 375.04,227.10 375.98,226.97 376.81,226.94 C 377.64,226.91 378.42,226.89 379.16,226.88 C 379.89,226.86 380.58,226.86 381.22,226.88 C 381.86,226.89 382.45,226.91 383.00,226.94 C 383.55,226.97 384.05,227.01 384.50,227.06 C 384.95,227.11 385.36,227.18 385.72,227.25 C 386.08,227.32 386.39,227.41 386.66,227.50 C 386.92,227.59 387.14,227.70 387.31,227.81 C 387.48,227.93 387.55,228.07 387.69,228.19 C 387.83,228.30 387.98,228.41 388.14,228.52 C 388.30,228.62 388.48,228.71 388.67,228.80 C 388.86,228.88 389.07,228.96 389.28,229.03 C 389.50,229.10 389.73,229.16 389.97,229.22 C 390.21,229.27 390.47,229.32 390.73,229.36 C 391.00,229.40 391.28,229.43 391.58,229.45 C 391.87,229.48 392.18,229.49 392.50,229.50 C 392.82,229.51 393.18,229.50 393.50,229.50 C 393.82,229.50 394.12,229.51 394.40,229.52 C 394.68,229.54 394.95,229.55 395.20,229.57 C 395.44,229.59 395.68,229.61 395.89,229.64 C 396.11,229.67 396.30,229.70 396.48,229.73 C 396.67,229.77 396.83,229.81 396.98,229.85 C 397.12,229.89 397.25,229.94 397.37,229.99 C 397.48,230.04 397.58,230.10 397.66,230.16 C 397.74,230.21 397.83,230.27 397.84,230.34 C 397.86,230.41 397.82,230.49 397.74,230.57 C 397.66,230.65 397.53,230.74 397.35,230.84 C 397.17,230.93 396.95,231.03 396.67,231.14 C 396.40,231.25 396.07,231.36 395.70,231.48 C 395.33,231.61 394.91,231.73 394.45,231.87 C 393.98,232.00 393.46,232.14 392.90,232.29 C 392.33,232.44 391.72,232.59 391.06,232.75 C 390.40,232.91 389.57,233.06 388.94,233.25 C 388.30,233.44 387.74,233.67 387.26,233.91 C 386.77,234.16 386.36,234.44 386.02,234.74 C 385.69,235.05 385.42,235.38 385.23,235.73 C 385.05,236.09 384.93,236.48 384.89,236.89 C 384.85,237.30 384.88,237.74 384.99,238.21 C 385.10,238.68 385.28,239.17 385.54,239.70 C 385.80,240.22 386.13,240.77 386.53,241.34 C 386.94,241.92 387.50,242.59 387.97,243.16 C 388.43,243.72 388.88,244.25 389.32,244.74 C 389.76,245.23 390.18,245.69 390.59,246.10 C 390.99,246.52 391.39,246.89 391.77,247.23 C 392.14,247.57 392.51,247.88 392.86,248.14 C 393.21,248.40 393.55,248.63 393.87,248.82 C 394.19,249.01 394.50,249.16 394.79,249.27 C 395.08,249.39 395.36,249.46 395.62,249.50 C 395.89,249.54 396.14,249.49 396.38,249.50 C 396.61,249.51 396.84,249.53 397.05,249.55 C 397.27,249.58 397.47,249.62 397.66,249.66 C 397.86,249.71 398.04,249.76 398.20,249.83 C 398.37,249.89 398.53,249.96 398.67,250.05 C 398.82,250.13 398.95,250.22 399.07,250.32 C 399.19,250.42 399.30,250.53 399.40,250.65 C 399.50,250.77 399.58,250.89 399.66,251.03 C 399.73,251.17 399.79,251.33 399.84,251.47 C 399.90,251.61 399.95,251.74 399.98,251.88 C 400.02,252.01 400.05,252.13 400.08,252.25 C 400.10,252.37 400.12,252.48 400.12,252.59 C 400.13,252.70 400.13,252.81 400.12,252.91 C 400.12,253.01 400.10,253.10 400.08,253.19 C 400.05,253.28 400.02,253.36 399.98,253.44 C 399.95,253.52 399.90,253.59 399.84,253.66 C 399.79,253.72 399.73,253.79 399.66,253.84 C 399.58,253.90 399.49,253.96 399.38,254.01 C 399.28,254.06 399.16,254.11 399.02,254.15 C 398.89,254.19 398.74,254.23 398.58,254.27 C 398.42,254.30 398.24,254.33 398.05,254.36 C 397.86,254.39 397.65,254.41 397.43,254.43 C 397.21,254.45 396.98,254.46 396.73,254.48 C 396.48,254.49 396.21,254.50 395.94,254.50 C 395.66,254.50 395.36,254.46 395.06,254.50 C 394.76,254.54 394.46,254.61 394.15,254.73 C 393.84,254.84 393.52,254.99 393.20,255.18 C 392.87,255.37 392.54,255.60 392.20,255.86 C 391.87,256.12 391.52,256.43 391.17,256.77 C 390.82,257.11 390.46,257.48 390.10,257.90 C 389.74,258.31 389.37,258.77 388.99,259.26 C 388.62,259.75 388.23,260.28 387.84,260.84 C 387.45,261.41 386.99,262.08 386.66,262.66 C 386.33,263.23 386.06,263.77 385.87,264.29 C 385.67,264.80 385.54,265.29 385.48,265.74 C 385.41,266.20 385.42,266.62 385.48,267.02 C 385.55,267.41 385.69,267.77 385.89,268.11 C 386.09,268.44 386.36,268.75 386.70,269.02 C 387.03,269.30 387.43,269.54 387.90,269.76 C 388.37,269.97 388.90,270.16 389.50,270.31 C 390.10,270.47 390.88,270.57 391.50,270.69 C 392.12,270.81 392.70,270.93 393.23,271.04 C 393.76,271.15 394.24,271.26 394.68,271.37 C 395.12,271.47 395.51,271.57 395.86,271.67 C 396.21,271.77 396.51,271.86 396.77,271.95 C 397.02,272.04 397.23,272.13 397.40,272.21 C 397.56,272.29 397.68,272.37 397.76,272.45 C 397.83,272.52 397.86,272.59 397.84,272.66 C 397.83,272.72 397.73,272.79 397.66,272.84 C 397.58,272.90 397.49,272.96 397.38,273.01 C 397.28,273.06 397.16,273.11 397.02,273.15 C 396.89,273.19 396.74,273.23 396.58,273.27 C 396.42,273.30 396.24,273.33 396.05,273.36 C 395.86,273.39 395.65,273.41 395.43,273.43 C 395.21,273.45 394.98,273.46 394.73,273.48 C 394.48,273.49 394.21,273.50 393.94,273.50 C 393.66,273.50 393.34,273.49 393.06,273.50 C 392.78,273.51 392.51,273.52 392.25,273.55 C 391.99,273.57 391.74,273.60 391.50,273.64 C 391.26,273.68 391.03,273.73 390.81,273.78 C 390.59,273.84 390.39,273.90 390.19,273.97 C 389.99,274.04 389.80,274.12 389.62,274.20 C 389.45,274.29 389.28,274.38 389.12,274.48 C 388.97,274.59 388.82,274.70 388.69,274.81 C 388.55,274.93 388.49,275.07 388.31,275.19 C 388.14,275.30 387.91,275.41 387.64,275.52 C 387.37,275.62 387.04,275.71 386.67,275.80 C 386.30,275.88 385.88,275.96 385.41,276.03 C 384.93,276.10 384.41,276.16 383.84,276.22 C 383.27,276.27 382.65,276.32 381.98,276.36 C 381.32,276.40 380.60,276.43 379.83,276.45 C 379.06,276.48 378.24,276.49 377.38,276.50 C 376.51,276.51 375.52,276.42 374.62,276.50 C 373.73,276.58 372.85,276.73 371.98,276.97 C 371.12,277.20 370.28,277.52 369.45,277.91 C 368.63,278.30 367.82,278.77 367.03,279.31 C 366.24,279.86 365.47,280.48 364.72,281.19 C 363.97,281.89 363.23,282.67 362.52,283.53 C 361.80,284.39 361.10,285.33 360.42,286.34 C 359.74,287.36 359.08,288.45 358.44,289.62 C 357.79,290.80 357.21,292.20 356.56,293.38 C 355.91,294.55 355.23,295.66 354.53,296.70 C 353.83,297.74 353.10,298.71 352.34,299.61 C 351.59,300.51 350.81,301.34 350.00,302.09 C 349.19,302.85 348.36,303.54 347.50,304.16 C 346.64,304.77 345.76,305.32 344.84,305.80 C 343.93,306.27 342.99,306.68 342.03,307.02 C 341.07,307.35 340.08,307.62 339.06,307.81 C 338.05,308.01 336.93,308.08 335.94,308.19 C 334.95,308.30 334.01,308.40 333.12,308.48 C 332.24,308.57 331.41,308.64 330.62,308.70 C 329.84,308.76 329.11,308.81 328.44,308.84 C 327.76,308.88 327.14,308.90 326.56,308.91 C 325.99,308.91 325.47,308.91 325.00,308.89 C 324.53,308.87 324.11,308.84 323.75,308.80 C 323.39,308.75 323.07,308.70 322.81,308.62 C 322.55,308.55 322.46,308.45 322.19,308.38 C 321.91,308.30 321.57,308.23 321.16,308.17 C 320.74,308.11 320.27,308.06 319.72,308.02 C 319.17,307.97 318.56,307.93 317.88,307.91 C 317.19,307.88 316.44,307.86 315.62,307.84 C 314.81,307.83 313.92,307.83 312.97,307.83 C 312.02,307.83 310.99,307.84 309.91,307.86 C 308.82,307.88 307.66,307.90 306.44,307.94 C 305.21,307.97 303.83,308.02 302.56,308.06 C 301.30,308.11 300.07,308.15 298.86,308.20 C 297.65,308.25 296.48,308.30 295.33,308.36 C 294.18,308.41 293.06,308.47 291.97,308.53 C 290.88,308.59 289.82,308.65 288.78,308.72 C 287.75,308.78 286.74,308.85 285.77,308.92 C 284.79,308.99 283.84,309.07 282.92,309.14 C 282.00,309.22 281.11,309.29 280.25,309.38 C 279.39,309.46 278.54,309.54 277.75,309.62 C 276.96,309.71 276.20,309.81 275.48,309.91 C 274.77,310.01 274.09,310.11 273.45,310.22 C 272.82,310.33 272.22,310.44 271.66,310.56 C 271.10,310.68 270.58,310.81 270.09,310.94 C 269.61,311.07 269.17,311.20 268.77,311.34 C 268.36,311.48 268.00,311.63 267.67,311.78 C 267.35,311.93 267.06,312.09 266.81,312.25 C 266.57,312.41 266.45,312.59 266.19,312.75 C 265.92,312.91 265.61,313.05 265.23,313.19 C 264.86,313.32 264.43,313.45 263.95,313.56 C 263.47,313.68 262.93,313.78 262.34,313.88 C 261.75,313.97 261.11,314.05 260.41,314.12 C 259.71,314.20 258.95,314.26 258.14,314.31 C 257.33,314.36 256.47,314.41 255.55,314.44 C 254.63,314.47 253.65,314.49 252.62,314.50 Z" />
    </clipPath>
  </defs>
  <path d="M 252.62,314.50 C 251.60,314.51 250.40,314.51 249.38,314.50 C 248.35,314.49 247.39,314.46 246.49,314.43 C 245.59,314.39 244.75,314.35 243.98,314.29 C 243.20,314.23 242.48,314.16 241.83,314.08 C 241.17,314.00 240.58,313.90 240.05,313.80 C 239.51,313.69 239.04,313.57 238.63,313.45 C 238.22,313.32 237.87,313.18 237.59,313.02 C 237.30,312.87 237.07,312.71 236.91,312.53 C 236.74,312.36 236.70,312.19 236.59,311.97 C 236.49,311.75 236.38,311.49 236.27,311.20 C 236.15,310.91 236.04,310.59 235.92,310.23 C 235.80,309.88 235.68,309.49 235.56,309.06 C 235.44,308.64 235.32,308.18 235.19,307.69 C 235.06,307.20 234.93,306.67 234.80,306.11 C 234.66,305.55 234.53,304.96 234.39,304.33 C 234.25,303.70 234.11,303.04 233.97,302.34 C 233.83,301.65 233.69,300.83 233.53,300.16 C 233.37,299.49 233.19,298.87 232.99,298.32 C 232.80,297.77 232.58,297.27 232.35,296.84 C 232.12,296.40 231.87,296.02 231.61,295.70 C 231.35,295.38 231.06,295.12 230.77,294.92 C 230.47,294.72 230.15,294.58 229.82,294.49 C 229.49,294.41 229.14,294.38 228.77,294.41 C 228.41,294.45 228.02,294.54 227.62,294.69 C 227.23,294.84 226.80,295.12 226.38,295.31 C 225.95,295.51 225.52,295.68 225.08,295.84 C 224.64,296.01 224.19,296.15 223.73,296.28 C 223.28,296.41 222.82,296.53 222.34,296.62 C 221.87,296.72 221.39,296.81 220.91,296.88 C 220.42,296.94 219.92,296.99 219.42,297.03 C 218.92,297.07 218.41,297.09 217.89,297.09 C 217.37,297.10 216.85,297.09 216.31,297.06 C 215.78,297.04 215.19,296.98 214.69,296.94 C 214.19,296.89 213.73,296.84 213.30,296.79 C 212.88,296.74 212.50,296.68 212.16,296.62 C 211.82,296.56 211.52,296.49 211.27,296.42 C 211.01,296.35 210.79,296.28 210.61,296.20 C 210.43,296.13 210.29,296.05 210.20,295.96 C 210.10,295.88 210.04,295.79 210.02,295.70 C 210.01,295.60 210.03,295.51 210.09,295.41 C 210.16,295.31 210.31,295.24 210.41,295.09 C 210.50,294.94 210.60,294.75 210.68,294.51 C 210.76,294.27 210.84,293.98 210.91,293.65 C 210.99,293.32 211.05,292.94 211.11,292.52 C 211.17,292.09 211.22,291.62 211.27,291.11 C 211.31,290.60 211.35,290.04 211.38,289.43 C 211.42,288.82 211.44,288.17 211.46,287.48 C 211.48,286.78 211.49,286.04 211.50,285.25 C 211.51,284.46 211.51,283.54 211.50,282.75 C 211.49,281.96 211.48,281.22 211.45,280.53 C 211.43,279.84 211.40,279.19 211.36,278.59 C 211.32,277.99 211.27,277.44 211.22,276.94 C 211.16,276.43 211.10,275.97 211.03,275.56 C 210.96,275.15 210.88,274.79 210.80,274.47 C 210.71,274.15 210.62,273.88 210.52,273.66 C 210.41,273.43 210.30,273.26 210.19,273.12 C 210.07,272.99 209.93,272.96 209.81,272.88 C 209.70,272.79 209.59,272.70 209.49,272.62 C 209.39,272.53 209.31,272.44 209.23,272.35 C 209.15,272.26 209.08,272.17 209.02,272.08 C 208.95,271.99 208.90,271.89 208.86,271.80 C 208.82,271.70 208.78,271.61 208.76,271.51 C 208.73,271.41 208.72,271.31 208.71,271.21 C 208.70,271.11 208.71,271.01 208.72,270.91 C 208.73,270.80 208.78,270.69 208.78,270.59 C 208.79,270.50 208.78,270.41 208.75,270.33 C 208.72,270.25 208.68,270.17 208.62,270.11 C 208.57,270.04 208.49,269.99 208.41,269.94 C 208.32,269.89 208.21,269.85 208.09,269.81 C 207.97,269.78 207.84,269.75 207.69,269.73 C 207.54,269.72 207.37,269.71 207.19,269.70 C 207.01,269.70 206.81,269.71 206.59,269.72 C 206.38,269.73 206.12,269.74 205.91,269.78 C 205.69,269.82 205.49,269.89 205.30,269.97 C 205.11,270.05 204.93,270.16 204.77,270.28 C 204.60,270.41 204.45,270.55 204.31,270.72 C 204.17,270.89 204.05,271.07 203.94,271.28 C 203.83,271.49 203.73,271.72 203.64,271.97 C 203.55,272.22 203.48,272.49 203.42,272.78 C 203.36,273.07 203.32,273.39 203.28,273.72 C 203.25,274.05 203.30,274.45 203.22,274.78 C 203.14,275.12 203.00,275.43 202.80,275.73 C 202.61,276.02 202.35,276.30 202.04,276.55 C 201.73,276.81 201.35,277.05 200.92,277.27 C 200.49,277.48 200.00,277.68 199.45,277.86 C 198.90,278.04 198.30,278.20 197.63,278.34 C 196.97,278.48 196.24,278.60 195.46,278.70 C 194.68,278.80 193.84,278.88 192.94,278.94 C 192.04,279.00 191.00,279.04 190.06,279.06 C 189.13,279.09 188.22,279.09 187.33,279.08 C 186.44,279.07 185.58,279.03 184.73,278.98 C 183.89,278.93 183.08,278.87 182.28,278.78 C 181.49,278.70 180.72,278.59 179.97,278.47 C 179.22,278.35 178.50,278.21 177.80,278.05 C 177.10,277.89 176.42,277.71 175.77,277.52 C 175.11,277.32 174.48,277.11 173.88,276.88 C 173.27,276.64 172.74,276.36 172.12,276.12 C 171.51,275.89 170.86,275.66 170.19,275.44 C 169.51,275.22 168.80,275.01 168.06,274.81 C 167.32,274.61 166.55,274.43 165.75,274.25 C 164.95,274.07 164.11,273.91 163.25,273.75 C 162.39,273.59 161.49,273.45 160.56,273.31 C 159.64,273.18 158.68,273.05 157.69,272.94 C 156.70,272.82 155.68,272.72 154.62,272.62 C 153.57,272.53 152.41,272.47 151.38,272.38 C 150.34,272.28 149.36,272.18 148.42,272.06 C 147.49,271.95 146.60,271.82 145.77,271.69 C 144.93,271.55 144.14,271.41 143.41,271.25 C 142.67,271.09 141.98,270.93 141.34,270.75 C 140.71,270.57 140.12,270.39 139.58,270.19 C 139.04,269.99 138.55,269.78 138.11,269.56 C 137.67,269.34 137.28,269.11 136.94,268.88 C 136.60,268.64 136.37,268.36 136.06,268.12 C 135.76,267.89 135.44,267.66 135.11,267.45 C 134.78,267.24 134.43,267.04 134.08,266.86 C 133.72,266.67 133.35,266.50 132.97,266.34 C 132.59,266.18 132.19,266.04 131.78,265.91 C 131.37,265.77 130.95,265.65 130.52,265.55 C 130.08,265.44 129.63,265.35 129.17,265.27 C 128.71,265.18 128.24,265.12 127.75,265.06 C 127.26,265.01 126.70,264.98 126.25,264.94 C 125.80,264.89 125.40,264.85 125.05,264.80 C 124.71,264.76 124.41,264.71 124.16,264.66 C 123.92,264.62 123.72,264.57 123.58,264.52 C 123.43,264.46 123.34,264.41 123.30,264.36 C 123.25,264.31 123.26,264.25 123.32,264.20 C 123.38,264.14 123.49,264.08 123.65,264.02 C 123.81,263.96 124.02,263.90 124.28,263.84 C 124.54,263.78 124.96,263.74 125.22,263.66 C 125.48,263.57 125.69,263.46 125.85,263.32 C 126.01,263.18 126.12,263.02 126.18,262.84 C 126.24,262.65 126.25,262.44 126.20,262.20 C 126.16,261.97 126.07,261.71 125.92,261.42 C 125.78,261.14 125.58,260.83 125.34,260.49 C 125.09,260.16 124.79,259.80 124.45,259.41 C 124.10,259.03 123.70,258.62 123.25,258.19 C 122.80,257.75 122.19,257.27 121.75,256.81 C 121.31,256.35 120.94,255.90 120.62,255.44 C 120.31,254.98 120.06,254.52 119.88,254.06 C 119.69,253.60 119.56,253.15 119.50,252.69 C 119.44,252.23 119.44,251.77 119.50,251.31 C 119.56,250.85 119.69,250.40 119.88,249.94 C 120.06,249.48 120.31,249.02 120.62,248.56 C 120.94,248.10 121.31,247.65 121.75,247.19 C 122.19,246.73 122.80,246.24 123.25,245.81 C 123.70,245.38 124.11,244.98 124.46,244.60 C 124.82,244.23 125.12,243.88 125.38,243.55 C 125.64,243.23 125.85,242.94 126.02,242.67 C 126.18,242.40 126.29,242.17 126.36,241.95 C 126.43,241.74 126.44,241.56 126.41,241.40 C 126.38,241.24 126.31,241.11 126.18,241.01 C 126.05,240.90 125.88,240.83 125.66,240.78 C 125.43,240.73 125.10,240.74 124.84,240.72 C 124.59,240.69 124.35,240.67 124.12,240.63 C 123.89,240.60 123.68,240.56 123.48,240.52 C 123.28,240.48 123.09,240.44 122.92,240.39 C 122.75,240.34 122.60,240.29 122.45,240.23 C 122.31,240.18 122.18,240.12 122.07,240.05 C 121.96,239.99 121.86,239.92 121.77,239.85 C 121.69,239.78 121.62,239.70 121.56,239.62 C 121.51,239.55 121.45,239.45 121.44,239.38 C 121.42,239.30 121.44,239.22 121.48,239.16 C 121.53,239.09 121.60,239.03 121.70,238.97 C 121.80,238.91 121.93,238.86 122.09,238.81 C 122.25,238.77 122.44,238.72 122.66,238.69 C 122.87,238.65 123.12,238.62 123.39,238.59 C 123.66,238.57 123.97,238.55 124.30,238.53 C 124.63,238.52 124.99,238.51 125.38,238.50 C 125.76,238.49 126.21,238.52 126.62,238.50 C 127.04,238.48 127.44,238.45 127.84,238.41 C 128.24,238.36 128.64,238.30 129.03,238.22 C 129.42,238.14 129.81,238.05 130.19,237.94 C 130.57,237.83 130.94,237.70 131.31,237.56 C 131.68,237.42 132.05,237.27 132.41,237.09 C 132.77,236.92 133.12,236.73 133.47,236.53 C 133.82,236.33 134.16,236.11 134.50,235.88 C 134.84,235.64 135.12,235.36 135.50,235.12 C 135.88,234.89 136.30,234.66 136.77,234.44 C 137.23,234.22 137.74,234.01 138.30,233.81 C 138.85,233.61 139.45,233.43 140.09,233.25 C 140.74,233.07 141.42,232.91 142.16,232.75 C 142.89,232.59 143.66,232.45 144.48,232.31 C 145.30,232.18 146.17,232.05 147.08,231.94 C 147.99,231.82 148.94,231.72 149.94,231.62 C 150.93,231.53 152.04,231.47 153.06,231.38 C 154.08,231.28 155.08,231.17 156.06,231.05 C 157.04,230.92 158.00,230.79 158.94,230.64 C 159.88,230.49 160.79,230.33 161.69,230.16 C 162.58,229.98 163.46,229.79 164.31,229.59 C 165.17,229.39 166.00,229.18 166.81,228.95 C 167.62,228.73 168.42,228.49 169.19,228.23 C 169.96,227.98 170.71,227.72 171.44,227.44 C 172.17,227.16 172.84,226.83 173.56,226.56 C 174.28,226.29 175.02,226.05 175.77,225.83 C 176.51,225.61 177.27,225.41 178.05,225.23 C 178.82,225.06 179.61,224.91 180.41,224.78 C 181.21,224.65 182.02,224.55 182.84,224.47 C 183.67,224.39 184.51,224.33 185.36,224.30 C 186.21,224.26 187.08,224.25 187.95,224.27 C 188.83,224.28 189.72,224.32 190.62,224.38 C 191.53,224.43 192.51,224.53 193.38,224.62 C 194.24,224.72 195.04,224.83 195.79,224.96 C 196.54,225.09 197.23,225.23 197.87,225.38 C 198.50,225.54 199.08,225.71 199.61,225.89 C 200.13,226.07 200.60,226.27 201.02,226.48 C 201.43,226.70 201.79,226.92 202.09,227.16 C 202.39,227.40 202.63,227.66 202.82,227.93 C 203.01,228.20 203.14,228.48 203.22,228.78 C 203.30,229.08 203.25,229.42 203.28,229.72 C 203.31,230.02 203.35,230.30 203.41,230.56 C 203.46,230.83 203.52,231.08 203.59,231.31 C 203.67,231.55 203.75,231.77 203.84,231.97 C 203.94,232.17 204.04,232.36 204.16,232.53 C 204.27,232.70 204.40,232.86 204.53,233.00 C 204.67,233.14 204.81,233.27 204.97,233.38 C 205.12,233.48 205.29,233.58 205.47,233.66 C 205.65,233.73 205.85,233.80 206.03,233.84 C 206.22,233.89 206.40,233.91 206.58,233.92 C 206.76,233.93 206.93,233.92 207.11,233.89 C 207.28,233.86 207.46,233.82 207.62,233.75 C 207.79,233.68 207.96,233.60 208.12,233.50 C 208.29,233.40 208.45,233.28 208.61,233.14 C 208.77,233.00 208.92,232.85 209.08,232.67 C 209.23,232.50 209.38,232.30 209.53,232.09 C 209.68,231.88 209.83,231.67 209.97,231.41 C 210.11,231.14 210.23,230.84 210.35,230.51 C 210.47,230.17 210.58,229.80 210.68,229.40 C 210.78,228.99 210.87,228.55 210.95,228.08 C 211.04,227.60 211.11,227.09 211.17,226.55 C 211.24,226.00 211.29,225.42 211.34,224.80 C 211.38,224.19 211.42,223.54 211.45,222.85 C 211.47,222.17 211.49,221.44 211.50,220.69 C 211.51,219.93 211.51,219.06 211.50,218.31 C 211.49,217.56 211.48,216.85 211.45,216.19 C 211.43,215.52 211.40,214.90 211.36,214.31 C 211.32,213.73 211.27,213.19 211.22,212.69 C 211.16,212.19 211.10,211.73 211.03,211.31 C 210.96,210.90 210.88,210.52 210.80,210.19 C 210.71,209.85 210.62,209.56 210.52,209.31 C 210.41,209.06 210.30,208.85 210.19,208.69 C 210.07,208.52 209.90,208.43 209.81,208.31 C 209.73,208.19 209.68,208.07 209.68,207.96 C 209.68,207.85 209.71,207.74 209.79,207.63 C 209.87,207.53 209.98,207.43 210.14,207.33 C 210.30,207.23 210.50,207.14 210.73,207.05 C 210.97,206.96 211.25,206.87 211.57,206.79 C 211.89,206.71 212.25,206.63 212.65,206.55 C 213.05,206.48 213.49,206.41 213.97,206.34 C 214.45,206.28 215.01,206.20 215.53,206.16 C 216.05,206.11 216.56,206.08 217.07,206.07 C 217.58,206.06 218.08,206.06 218.59,206.09 C 219.09,206.11 219.58,206.15 220.08,206.20 C 220.57,206.26 221.06,206.33 221.55,206.42 C 222.03,206.51 222.51,206.62 222.99,206.74 C 223.47,206.87 223.94,207.01 224.41,207.16 C 224.88,207.32 225.35,207.50 225.81,207.69 C 226.27,207.88 226.75,208.17 227.19,208.31 C 227.63,208.46 228.05,208.55 228.45,208.57 C 228.85,208.60 229.23,208.56 229.59,208.46 C 229.95,208.36 230.29,208.20 230.61,207.98 C 230.93,207.76 231.23,207.48 231.52,207.14 C 231.80,206.80 232.06,206.39 232.30,205.93 C 232.55,205.46 232.77,204.94 232.98,204.35 C 233.18,203.76 233.37,203.12 233.53,202.41 C 233.70,201.70 233.83,200.82 233.97,200.09 C 234.11,199.36 234.24,198.68 234.38,198.03 C 234.51,197.39 234.63,196.78 234.75,196.22 C 234.87,195.66 234.98,195.14 235.09,194.66 C 235.20,194.18 235.31,193.74 235.41,193.34 C 235.51,192.95 235.60,192.59 235.69,192.28 C 235.78,191.97 235.86,191.70 235.94,191.47 C 236.02,191.24 236.09,191.05 236.16,190.91 C 236.22,190.76 236.27,190.69 236.34,190.59 C 236.41,190.49 236.49,190.40 236.58,190.31 C 236.66,190.22 236.76,190.14 236.86,190.06 C 236.96,189.98 237.07,189.91 237.19,189.84 C 237.30,189.78 237.43,189.71 237.56,189.66 C 237.70,189.60 237.84,189.55 237.98,189.50 C 238.13,189.45 238.29,189.41 238.45,189.38 C 238.62,189.34 238.79,189.31 238.97,189.28 C 239.15,189.26 239.30,189.24 239.53,189.22 C 239.77,189.20 240.05,189.18 240.38,189.17 C 240.70,189.16 241.08,189.15 241.50,189.14 C 241.92,189.13 242.39,189.13 242.91,189.12 C 243.42,189.12 243.98,189.12 244.59,189.12 C 245.20,189.13 245.86,189.13 246.56,189.14 C 247.27,189.15 248.02,189.16 248.81,189.17 C 249.61,189.18 250.45,189.20 251.34,189.22 C 252.23,189.24 253.27,189.25 254.16,189.28 C 255.05,189.31 255.89,189.34 256.68,189.38 C 257.47,189.42 258.22,189.47 258.91,189.52 C 259.61,189.58 260.26,189.64 260.86,189.70 C 261.46,189.77 262.01,189.84 262.52,189.92 C 263.02,190.00 263.48,190.09 263.88,190.18 C 264.29,190.27 264.65,190.37 264.96,190.48 C 265.27,190.58 265.54,190.69 265.75,190.81 C 265.96,190.93 266.08,191.07 266.25,191.19 C 266.42,191.31 266.60,191.42 266.78,191.53 C 266.96,191.64 267.15,191.74 267.34,191.84 C 267.54,191.94 267.73,192.04 267.94,192.12 C 268.14,192.21 268.35,192.30 268.56,192.38 C 268.78,192.45 268.99,192.53 269.22,192.59 C 269.44,192.66 269.67,192.72 269.91,192.78 C 270.14,192.84 270.38,192.89 270.62,192.94 C 270.87,192.98 271.04,193.02 271.38,193.06 C 271.71,193.11 272.12,193.16 272.61,193.22 C 273.10,193.28 273.67,193.34 274.33,193.41 C 274.98,193.47 275.72,193.55 276.53,193.62 C 277.35,193.70 278.24,193.79 279.22,193.88 C 280.20,193.96 281.25,194.06 282.39,194.16 C 283.53,194.26 284.75,194.36 286.05,194.47 C 287.35,194.58 288.73,194.69 290.19,194.81 C 291.65,194.93 293.35,195.07 294.81,195.19 C 296.28,195.30 297.67,195.41 298.98,195.52 C 300.30,195.62 301.54,195.71 302.70,195.80 C 303.87,195.88 304.96,195.96 305.97,196.03 C 306.98,196.10 307.92,196.16 308.78,196.22 C 309.64,196.27 310.43,196.32 311.14,196.36 C 311.85,196.40 312.49,196.43 313.05,196.45 C 313.61,196.48 314.09,196.49 314.50,196.50 C 314.91,196.51 315.18,196.51 315.50,196.50 C 315.82,196.49 316.13,196.48 316.42,196.47 C 316.72,196.45 317.00,196.43 317.27,196.41 C 317.53,196.38 317.79,196.35 318.03,196.31 C 318.27,196.28 318.50,196.23 318.72,196.19 C 318.93,196.14 319.14,196.09 319.33,196.03 C 319.52,195.97 319.70,195.91 319.86,195.84 C 320.02,195.78 320.17,195.70 320.31,195.62 C 320.45,195.55 320.50,195.45 320.69,195.38 C 320.88,195.30 321.12,195.24 321.44,195.19 C 321.75,195.14 322.12,195.09 322.56,195.06 C 323.00,195.03 323.50,195.01 324.06,195.00 C 324.62,194.99 325.25,194.99 325.94,195.00 C 326.62,195.01 327.38,195.03 328.19,195.06 C 329.00,195.09 329.88,195.14 330.81,195.19 C 331.75,195.24 332.75,195.30 333.81,195.38 C 334.88,195.45 336.12,195.54 337.19,195.62 C 338.25,195.71 339.25,195.80 340.20,195.90 C 341.14,195.99 342.02,196.09 342.84,196.20 C 343.65,196.30 344.41,196.40 345.11,196.52 C 345.81,196.63 346.44,196.74 347.02,196.86 C 347.59,196.98 348.10,197.10 348.55,197.23 C 349.01,197.35 349.40,197.48 349.73,197.62 C 350.06,197.75 350.32,197.89 350.53,198.03 C 350.74,198.17 350.80,198.26 350.97,198.47 C 351.14,198.68 351.33,198.95 351.55,199.28 C 351.76,199.61 352.00,200.01 352.27,200.47 C 352.53,200.93 352.82,201.45 353.12,202.03 C 353.43,202.61 353.77,203.26 354.12,203.97 C 354.48,204.68 354.86,205.45 355.27,206.28 C 355.67,207.11 356.10,208.01 356.55,208.97 C 357.00,209.93 357.47,210.95 357.97,212.03 C 358.47,213.11 358.99,214.40 359.53,215.47 C 360.07,216.54 360.64,217.54 361.23,218.46 C 361.81,219.38 362.42,220.23 363.05,221.01 C 363.69,221.78 364.34,222.48 365.02,223.11 C 365.69,223.74 366.39,224.29 367.11,224.77 C 367.83,225.24 368.57,225.65 369.34,225.98 C 370.10,226.31 370.89,226.56 371.70,226.74 C 372.50,226.92 373.33,227.03 374.19,227.06 C 375.04,227.10 375.98,226.97 376.81,226.94 C 377.64,226.91 378.42,226.89 379.16,226.88 C 379.89,226.86 380.58,226.86 381.22,226.88 C 381.86,226.89 382.45,226.91 383.00,226.94 C 383.55,226.97 384.05,227.01 384.50,227.06 C 384.95,227.11 385.36,227.18 385.72,227.25 C 386.08,227.32 386.39,227.41 386.66,227.50 C 386.92,227.59 387.14,227.70 387.31,227.81 C 387.48,227.93 387.55,228.07 387.69,228.19 C 387.83,228.30 387.98,228.41 388.14,228.52 C 388.30,228.62 388.48,228.71 388.67,228.80 C 388.86,228.88 389.07,228.96 389.28,229.03 C 389.50,229.10 389.73,229.16 389.97,229.22 C 390.21,229.27 390.47,229.32 390.73,229.36 C 391.00,229.40 391.28,229.43 391.58,229.45 C 391.87,229.48 392.18,229.49 392.50,229.50 C 392.82,229.51 393.18,229.50 393.50,229.50 C 393.82,229.50 394.12,229.51 394.40,229.52 C 394.68,229.54 394.95,229.55 395.20,229.57 C 395.44,229.59 395.68,229.61 395.89,229.64 C 396.11,229.67 396.30,229.70 396.48,229.73 C 396.67,229.77 396.83,229.81 396.98,229.85 C 397.12,229.89 397.25,229.94 397.37,229.99 C 397.48,230.04 397.58,230.10 397.66,230.16 C 397.74,230.21 397.83,230.27 397.84,230.34 C 397.86,230.41 397.82,230.49 397.74,230.57 C 397.66,230.65 397.53,230.74 397.35,230.84 C 397.17,230.93 396.95,231.03 396.67,231.14 C 396.40,231.25 396.07,231.36 395.70,231.48 C 395.33,231.61 394.91,231.73 394.45,231.87 C 393.98,232.00 393.46,232.14 392.90,232.29 C 392.33,232.44 391.72,232.59 391.06,232.75 C 390.40,232.91 389.57,233.06 388.94,233.25 C 388.30,233.44 387.74,233.67 387.26,233.91 C 386.77,234.16 386.36,234.44 386.02,234.74 C 385.69,235.05 385.42,235.38 385.23,235.73 C 385.05,236.09 384.93,236.48 384.89,236.89 C 384.85,237.30 384.88,237.74 384.99,238.21 C 385.10,238.68 385.28,239.17 385.54,239.70 C 385.80,240.22 386.13,240.77 386.53,241.34 C 386.94,241.92 387.50,242.59 387.97,243.16 C 388.43,243.72 388.88,244.25 389.32,244.74 C 389.76,245.23 390.18,245.69 390.59,246.10 C 390.99,246.52 391.39,246.89 391.77,247.23 C 392.14,247.57 392.51,247.88 392.86,248.14 C 393.21,248.40 393.55,248.63 393.87,248.82 C 394.19,249.01 394.50,249.16 394.79,249.27 C 395.08,249.39 395.36,249.46 395.62,249.50 C 395.89,249.54 396.14,249.49 396.38,249.50 C 396.61,249.51 396.84,249.53 397.05,249.55 C 397.27,249.58 397.47,249.62 397.66,249.66 C 397.86,249.71 398.04,249.76 398.20,249.83 C 398.37,249.89 398.53,249.96 398.67,250.05 C 398.82,250.13 398.95,250.22 399.07,250.32 C 399.19,250.42 399.30,250.53 399.40,250.65 C 399.50,250.77 399.58,250.89 399.66,251.03 C 399.73,251.17 399.79,251.33 399.84,251.47 C 399.90,251.61 399.95,251.74 399.98,251.88 C 400.02,252.01 400.05,252.13 400.08,252.25 C 400.10,252.37 400.12,252.48 400.12,252.59 C 400.13,252.70 400.13,252.81 400.12,252.91 C 400.12,253.01 400.10,253.10 400.08,253.19 C 400.05,253.28 400.02,253.36 399.98,253.44 C 399.95,253.52 399.90,253.59 399.84,253.66 C 399.79,253.72 399.73,253.79 399.66,253.84 C 399.58,253.90 399.49,253.96 399.38,254.01 C 399.28,254.06 399.16,254.11 399.02,254.15 C 398.89,254.19 398.74,254.23 398.58,254.27 C 398.42,254.30 398.24,254.33 398.05,254.36 C 397.86,254.39 397.65,254.41 397.43,254.43 C 397.21,254.45 396.98,254.46 396.73,254.48 C 396.48,254.49 396.21,254.50 395.94,254.50 C 395.66,254.50 395.36,254.46 395.06,254.50 C 394.76,254.54 394.46,254.61 394.15,254.73 C 393.84,254.84 393.52,254.99 393.20,255.18 C 392.87,255.37 392.54,255.60 392.20,255.86 C 391.87,256.12 391.52,256.43 391.17,256.77 C 390.82,257.11 390.46,257.48 390.10,257.90 C 389.74,258.31 389.37,258.77 388.99,259.26 C 388.62,259.75 388.23,260.28 387.84,260.84 C 387.45,261.41 386.99,262.08 386.66,262.66 C 386.33,263.23 386.06,263.77 385.87,264.29 C 385.67,264.80 385.54,265.29 385.48,265.74 C 385.41,266.20 385.42,266.62 385.48,267.02 C 385.55,267.41 385.69,267.77 385.89,268.11 C 386.09,268.44 386.36,268.75 386.70,269.02 C 387.03,269.30 387.43,269.54 387.90,269.76 C 388.37,269.97 388.90,270.16 389.50,270.31 C 390.10,270.47 390.88,270.57 391.50,270.69 C 392.12,270.81 392.70,270.93 393.23,271.04 C 393.76,271.15 394.24,271.26 394.68,271.37 C 395.12,271.47 395.51,271.57 395.86,271.67 C 396.21,271.77 396.51,271.86 396.77,271.95 C 397.02,272.04 397.23,272.13 397.40,272.21 C 397.56,272.29 397.68,272.37 397.76,272.45 C 397.83,272.52 397.86,272.59 397.84,272.66 C 397.83,272.72 397.73,272.79 397.66,272.84 C 397.58,272.90 397.49,272.96 397.38,273.01 C 397.28,273.06 397.16,273.11 397.02,273.15 C 396.89,273.19 396.74,273.23 396.58,273.27 C 396.42,273.30 396.24,273.33 396.05,273.36 C 395.86,273.39 395.65,273.41 395.43,273.43 C 395.21,273.45 394.98,273.46 394.73,273.48 C 394.48,273.49 394.21,273.50 393.94,273.50 C 393.66,273.50 393.34,273.49 393.06,273.50 C 392.78,273.51 392.51,273.52 392.25,273.55 C 391.99,273.57 391.74,273.60 391.50,273.64 C 391.26,273.68 391.03,273.73 390.81,273.78 C 390.59,273.84 390.39,273.90 390.19,273.97 C 389.99,274.04 389.80,274.12 389.62,274.20 C 389.45,274.29 389.28,274.38 389.12,274.48 C 388.97,274.59 388.82,274.70 388.69,274.81 C 388.55,274.93 388.49,275.07 388.31,275.19 C 388.14,275.30 387.91,275.41 387.64,275.52 C 387.37,275.62 387.04,275.71 386.67,275.80 C 386.30,275.88 385.88,275.96 385.41,276.03 C 384.93,276.10 384.41,276.16 383.84,276.22 C 383.27,276.27 382.65,276.32 381.98,276.36 C 381.32,276.40 380.60,276.43 379.83,276.45 C 379.06,276.48 378.24,276.49 377.38,276.50 C 376.51,276.51 375.52,276.42 374.62,276.50 C 373.73,276.58 372.85,276.73 371.98,276.97 C 371.12,277.20 370.28,277.52 369.45,277.91 C 368.63,278.30 367.82,278.77 367.03,279.31 C 366.24,279.86 365.47,280.48 364.72,281.19 C 363.97,281.89 363.23,282.67 362.52,283.53 C 361.80,284.39 361.10,285.33 360.42,286.34 C 359.74,287.36 359.08,288.45 358.44,289.62 C 357.79,290.80 357.21,292.20 356.56,293.38 C 355.91,294.55 355.23,295.66 354.53,296.70 C 353.83,297.74 353.10,298.71 352.34,299.61 C 351.59,300.51 350.81,301.34 350.00,302.09 C 349.19,302.85 348.36,303.54 347.50,304.16 C 346.64,304.77 345.76,305.32 344.84,305.80 C 343.93,306.27 342.99,306.68 342.03,307.02 C 341.07,307.35 340.08,307.62 339.06,307.81 C 338.05,308.01 336.93,308.08 335.94,308.19 C 334.95,308.30 334.01,308.40 333.12,308.48 C 332.24,308.57 331.41,308.64 330.62,308.70 C 329.84,308.76 329.11,308.81 328.44,308.84 C 327.76,308.88 327.14,308.90 326.56,308.91 C 325.99,308.91 325.47,308.91 325.00,308.89 C 324.53,308.87 324.11,308.84 323.75,308.80 C 323.39,308.75 323.07,308.70 322.81,308.62 C 322.55,308.55 322.46,308.45 322.19,308.38 C 321.91,308.30 321.57,308.23 321.16,308.17 C 320.74,308.11 320.27,308.06 319.72,308.02 C 319.17,307.97 318.56,307.93 317.88,307.91 C 317.19,307.88 316.44,307.86 315.62,307.84 C 314.81,307.83 313.92,307.83 312.97,307.83 C 312.02,307.83 310.99,307.84 309.91,307.86 C 308.82,307.88 307.66,307.90 306.44,307.94 C 305.21,307.97 303.83,308.02 302.56,308.06 C 301.30,308.11 300.07,308.15 298.86,308.20 C 297.65,308.25 296.48,308.30 295.33,308.36 C 294.18,308.41 293.06,308.47 291.97,308.53 C 290.88,308.59 289.82,308.65 288.78,308.72 C 287.75,308.78 286.74,308.85 285.77,308.92 C 284.79,308.99 283.84,309.07 282.92,309.14 C 282.00,309.22 281.11,309.29 280.25,309.38 C 279.39,309.46 278.54,309.54 277.75,309.62 C 276.96,309.71 276.20,309.81 275.48,309.91 C 274.77,310.01 274.09,310.11 273.45,310.22 C 272.82,310.33 272.22,310.44 271.66,310.56 C 271.10,310.68 270.58,310.81 270.09,310.94 C 269.61,311.07 269.17,311.20 268.77,311.34 C 268.36,311.48 268.00,311.63 267.67,311.78 C 267.35,311.93 267.06,312.09 266.81,312.25 C 266.57,312.41 266.45,312.59 266.19,312.75 C 265.92,312.91 265.61,313.05 265.23,313.19 C 264.86,313.32 264.43,313.45 263.95,313.56 C 263.47,313.68 262.93,313.78 262.34,313.88 C 261.75,313.97 261.11,314.05 260.41,314.12 C 259.71,314.20 258.95,314.26 258.14,314.31 C 257.33,314.36 256.47,314.41 255.55,314.44 C 254.63,314.47 253.65,314.49 252.62,314.50 Z" stroke="none" fill="currentColor" opacity="0.11" />
  <path d="M246.69,260.13L233.44,260.00 M232.44,242.67L216.76,242.59 M214.79,244.28L232.44,244.41 M216.90,243.39L232.44,243.32 M232.64,243.75L216.96,243.65 M246.69,244.28L233.44,244.41 M243.84,250.24L232.72,250.24 M248.01,260.55L248.01,252.22 M248.04,259.93L248.17,252.22 M248.00,259.90L248.17,252.22 M232.44,261.74L216.76,261.82 M214.79,260.13L232.44,260.00 M232.44,261.09L216.90,261.02 M216.96,260.75L232.64,260.66 M246.69,260.13L233.44,260.00 M243.84,254.19L232.72,254.19 M248.01,243.88L248.01,252.22 M248.04,244.51L248.17,252.22 M248.00,244.53L248.17,252.22 M246.69,244.30L233.44,244.43 M226.43,258.48L234.97,258.48 M222.47,258.48L213.63,258.51 M234.97,245.96L226.43,245.96 M222.47,245.96L213.63,245.93 M247.12,263.12L214.27,263.14 M247.39,263.01L247.40,258.77 M247.86,263.38L213.27,263.37 M214.01,263.03L214.03,259.02 M246.93,265.18L246.96,260.39 M246.80,260.30L214.59,260.26 M214.46,265.21L214.46,260.68 M247.39,241.40L247.40,245.64 M247.12,241.29L214.27,241.27 M214.03,245.39L214.01,241.38 M247.86,241.03L213.27,241.04 M246.93,239.23L246.96,244.02 M246.80,244.10L214.59,244.15 M214.46,239.20L214.46,243.73 M222.61,262.73L214.86,262.74 M214.84,262.84L222.68,262.84 M214.75,262.34L222.69,262.32 M224.54,264.14L244.41,264.13 M224.53,264.70L244.50,264.67 M244.58,264.28L223.55,264.29 M222.26,264.38L214.00,264.39 M223.66,264.16L244.47,264.15 M213.97,264.29L222.23,264.28 M222.34,264.14L214.08,264.15 M215.24,241.45L223.41,241.88 M215.21,241.36L223.48,241.78 M244.56,240.01L225.33,239.97 M244.47,240.55L225.34,240.54 M215.13,241.86L223.50,242.30 M214.86,241.67L222.61,241.68 M214.84,241.57L222.68,241.57 M214.75,242.07L222.69,242.09 M224.54,240.27L244.41,240.28 M224.53,239.70L244.50,239.74 M244.58,240.12L223.55,240.12 M222.26,240.03L214.00,240.02 M213.97,240.12L222.23,240.13 M244.47,240.26L223.66,240.25 M222.34,240.26L214.08,240.26 M223.41,262.53L215.24,262.95 M215.13,262.54L223.50,262.11 M215.21,263.05L223.48,262.63 M225.34,263.87L244.47,263.86 M225.33,264.43L244.56,264.40 M226.43,257.91L234.97,257.91 M239.53,256.22L246.97,256.19 M226.43,246.52L234.97,246.52 M239.53,248.21L246.97,248.24 M162.77,241.16L171.57,245.03 M196.26,244.61L204.98,240.45 M196.92,244.13L205.60,239.97 M198.33,244.71L204.97,240.47 M198.91,244.23L205.54,240.01 M205.34,244.05L210.44,241.69 M168.50,244.05L163.39,241.62 M158.42,242.92L158.42,245.85 M196.26,259.86L204.98,264.03 M196.92,260.35L205.60,264.50 M198.33,259.77L204.97,264.01 M198.91,260.24L205.54,264.47 M168.31,264.47L174.93,260.24 M168.87,264.01L175.51,259.77 M177.58,259.86L168.86,264.03 M158.42,261.56L158.42,258.63 M205.34,260.42L210.44,262.78 M168.50,260.42L163.41,262.78 M162.49,258.67L162.98,261.46 M162.77,263.31L171.57,259.44 M129.02,248.86L139.82,239.24 M148.73,241.55L165.78,241.54 M148.26,241.53L165.78,241.54 M166.42,241.18L159.90,238.33 M157.70,237.99L141.48,237.99 M148.26,241.53L140.98,238.36 M140.98,238.36L147.95,241.41 M137.98,239.49L127.50,247.91 M139.84,239.03L144.31,244.35 M127.31,248.67L139.21,248.66 M139.73,249.07L129.71,249.00 M129.02,255.61L139.82,265.23 M148.26,262.95L165.78,262.93 M148.73,262.93L165.78,262.93 M166.42,263.29L159.90,266.14 M157.70,266.49L141.48,266.49 M148.26,262.95L140.98,266.12 M140.98,266.12L147.95,263.06 M140.03,266.52L148.11,263.18 M139.84,265.45L144.69,259.80 M139.21,255.82L127.31,255.81 M137.98,264.98L127.50,256.57 M129.44,255.97L139.83,255.94 M151.32,238.52L159.74,238.57 M159.85,238.68L151.40,238.66 M159.79,238.41L151.35,238.31 M141.05,238.95L150.40,238.91 M141.05,265.52L150.40,265.56 M154.53,244.85L167.22,244.83 M154.53,245.05L167.23,245.05 M154.42,259.48L167.23,259.42 M167.22,259.65L154.41,259.71 M121.73,247.84L134.70,237.84 M121.73,256.63L134.70,266.64 M192.95,226.34L182.58,226.33 M180.81,227.58L165.21,234.72 M159.71,236.86L140.60,236.85 M180.81,276.90L165.21,269.75 M159.71,267.62L140.60,267.62 M215.13,234.89L206.82,234.89 M215.13,269.58L206.83,269.58 M204.12,256.96L198.02,256.96 M204.12,247.52L198.02,247.52 M171.91,255.10L190.89,255.08 M171.92,249.38L190.89,249.40 M177.47,255.26L190.91,255.26 M177.47,249.22L190.91,249.21 M199.03,240.32L208.68,240.30 M208.68,264.17L199.03,264.15 M167.26,264.14L174.66,264.15 M216.45,238.53L216.46,238.53 M216.45,265.95L216.46,265.95 M216.64,239.82L216.65,252.24 M216.64,264.66L216.65,252.24 M186.91,264.40L173.28,264.40 M186.91,240.08L173.28,240.08 M190.23,250.53L178.20,250.54 M190.20,250.79L178.21,250.79 M190.20,250.79L176.00,250.75 M190.19,250.96L175.57,251.00 M190.27,253.49L175.57,253.48 M176.00,253.73L190.20,253.69 M178.21,253.69L190.20,253.69 M178.20,253.94L190.23,253.94 M167.26,240.33L174.66,240.33 M159.21,271.45L151.47,267.26 M172.16,240.63L158.30,240.68 M159.21,233.03L151.47,237.21 M169.95,253.71L157.36,253.72 M169.92,250.77L157.34,250.75 M221.04,252.24L221.05,236.94 M221.04,252.24L221.05,267.54 M166.24,252.24L166.25,240.36 M164.28,244.68L164.32,252.24 M164.32,252.24L164.28,259.80 M135.71,237.37L121.81,247.86 M126.72,247.54L140.20,239.70 M176.11,263.09L168.64,263.09 M176.11,241.39L168.64,241.39 M135.71,267.11L121.81,256.62 M126.72,256.94L140.20,264.78 M223.67,239.94L215.79,239.98 M219.69,264.50L211.86,264.37 M156.19,235.96L149.28,235.96 M144.70,266.44L154.68,266.42 M145.68,267.57L154.70,267.56 M145.04,270.85L156.63,272.05 M145.04,270.85L156.53,272.05 M156.53,272.05L145.13,270.83 M157.09,273.16L144.42,271.74 M154.68,238.05L144.70,238.04 M154.70,236.91L145.68,236.91 M156.63,232.52L145.04,233.73 M145.04,233.73L156.53,232.52 M156.53,232.52L145.13,233.75 M157.06,231.38L144.39,232.80 M190.77,275.08L183.10,275.09 M184.03,260.33L189.35,238.94 M183.96,260.25L189.35,238.94 M189.80,260.33L184.49,238.94 M189.25,260.38L184.03,238.94 M182.64,239.00L182.63,230.70 M183.05,229.39L190.73,229.39 M183.05,229.39L190.73,229.39 M188.78,248.85L173.10,249.23 M185.27,249.09L173.44,249.09 M185.27,255.39L173.44,255.39 M181.75,253.23L194.83,253.22 M274.81,222.78L272.06,231.09 M272.53,222.71L269.69,230.97 M274.80,281.70L272.06,273.39 M272.53,281.77L269.69,273.51 M272.53,222.71L269.69,230.97 M272.53,281.77L269.69,273.51 M355.99,266.05L367.57,266.01 M229.11,276.06L235.83,278.75 M235.83,278.75L257.39,272.46 M383.93,248.93L374.17,234.51 M374.43,234.49L384.21,248.91 M381.09,234.45L391.31,248.87 M374.17,234.51L383.93,248.93 M229.57,265.92L213.35,265.92 M229.61,266.17L213.35,266.17 M383.40,257.73L383.41,246.74 M393.97,250.92L385.85,250.89 M385.85,253.59L393.97,253.55 M296.81,232.11L287.32,232.08 M271.90,232.23L286.66,232.27 M306.88,232.54L328.70,233.28 M296.80,229.49L287.01,229.33 M306.88,271.94L328.70,271.20 M286.66,272.21L271.90,272.25 M296.80,274.99L287.01,275.15 M296.80,229.49L287.01,229.33 M296.89,232.03L296.97,223.53 M296.80,274.99L287.01,275.15 M296.89,272.45L296.97,280.95 M329.24,271.28L297.83,272.93 M297.83,272.93L288.69,273.40 M288.69,273.40L261.01,274.85 M329.51,271.04L330.90,252.24 M253.54,252.24L253.54,261.74 M329.51,271.04L330.90,252.24 M329.52,233.44L330.90,252.24 M329.24,233.19L296.44,231.47 M296.44,231.47L287.29,231.00 M287.29,231.00L261.01,229.62 M330.90,252.24L329.51,233.44 M253.54,252.24L253.54,242.74 M255.49,244.89L255.48,244.90 M255.13,244.67L273.80,244.67 M255.49,244.89L273.84,244.87 M273.84,244.87L286.12,244.88 M273.80,244.67L286.13,244.67 M286.12,244.88L295.28,244.87 M295.28,244.87L323.25,244.87 M295.29,244.67L323.26,244.67 M255.35,259.38L255.35,259.36 M255.35,259.38L255.34,252.24 M255.13,259.73L255.14,252.24 M253.79,242.76L253.80,252.24 M253.54,242.74L253.65,252.24 M253.54,261.74L253.65,252.24 M323.25,259.75L295.27,259.75 M295.27,259.75L286.11,259.75 M295.25,259.54L286.09,259.54 M286.11,259.75L273.80,259.74 M273.80,259.74L255.13,259.73 M273.85,259.54L255.49,259.51 M255.48,259.50L255.49,259.51 M255.35,245.02L255.34,252.24 M255.14,252.24L255.13,244.67 M297.82,272.68L288.68,273.15 M288.69,273.40L297.83,272.93 M329.24,271.28L297.83,272.93 M288.69,273.40L261.00,274.85 M287.29,231.00L296.44,231.47 M287.29,231.00L261.00,229.62 M253.42,262.03L253.40,252.24 M253.42,242.45L253.40,252.24 M216.59,242.72L216.59,252.24 M222.63,247.10L222.62,257.38 M235.24,242.64L235.24,252.24 M235.24,252.24L235.23,261.83 M216.59,261.76L216.59,252.24 M216.52,238.79L216.59,238.71 M216.78,238.53L216.77,238.54 M216.52,265.69L216.59,265.77 M216.78,265.94L216.77,265.94 M235.83,225.73L257.39,232.02 M383.93,255.55L374.17,269.97 M383.93,255.55L374.17,269.97 M374.43,269.99L384.21,255.57 M381.09,270.03L391.31,255.61 M286.22,228.63L364.00,228.64 M286.22,275.84L364.00,275.84 M370.08,238.37L354.38,238.37 M354.38,238.37L329.33,238.36 M261.80,220.70L271.14,221.00 M261.73,227.33L269.26,227.84 M261.74,227.11L269.32,227.62 M269.95,221.94L267.71,228.19 M261.80,220.70L271.14,221.00 M253.52,232.94L261.11,234.42 M331.19,244.57L329.57,233.77 M330.93,244.55L329.30,233.66 M329.30,233.66L260.73,230.07 M330.93,244.55L284.62,238.56 M284.73,238.83L330.94,244.81 M271.87,235.26L257.59,235.25 M271.87,235.01L257.72,234.99 M331.19,244.57L329.57,233.77 M284.73,238.83L330.94,244.81 M271.87,235.26L257.59,235.25 M331.19,244.56L329.52,233.43 M260.96,229.62L329.26,233.20 M329.25,233.19L260.97,229.62 M284.62,238.56L330.93,244.55 M271.87,235.01L257.72,235.00 M286.22,228.63L364.00,228.64 M370.08,266.11L354.38,266.11 M354.38,266.11L329.33,266.11 M261.80,283.78L271.14,283.47 M261.83,283.57L271.11,283.25 M269.26,276.63L261.73,277.15 M261.80,283.78L271.14,283.47 M253.34,271.47L261.11,270.05 M253.34,271.47L261.11,270.05 M331.19,259.90L329.57,270.71 M330.93,259.93L329.30,270.81 M330.93,259.93L284.62,265.92 M284.73,265.65L330.94,259.67 M271.87,269.22L257.59,269.23 M329.26,271.28L260.96,274.86 M329.25,271.28L260.97,274.85 M329.30,270.81L260.73,274.40 M329.52,271.05L331.19,259.92 M260.96,274.86L329.26,271.28 M329.25,271.28L260.97,274.85 M329.28,271.05L260.89,274.63 M330.94,259.67L284.73,265.65 M271.87,269.22L257.59,269.23 M286.22,275.84L364.00,275.84 M376.81,243.19L334.80,243.19 M376.67,242.92L334.65,242.92 M329.88,236.93L330.55,246.29 M329.64,236.79L330.34,246.53 M330.55,258.18L329.88,267.55 M376.81,261.28L334.80,261.29 M334.65,261.56L376.67,261.56 M379.95,266.58L329.72,270.32 M379.95,237.89L329.72,234.15 M329.64,267.68L330.34,257.95 M395.08,250.96L384.79,250.96 M395.08,253.52L384.79,253.52 M395.08,253.52L384.79,253.51 M226.62,244.05L234.90,238.13 M226.62,260.42L234.90,266.35 M308.12,273.94L329.70,272.67 M308.12,230.54L329.70,231.80 M371.47,233.80L289.19,233.81 M371.49,234.10L289.17,234.10 M371.51,234.24L289.15,234.24 M372.55,231.49L296.19,231.49 M372.64,231.70L296.18,231.68 M372.55,231.97L296.15,231.96 M371.47,233.64L289.19,233.65 M371.49,233.94L289.17,233.94 M371.51,234.08L289.15,234.08 M372.55,231.33L296.19,231.33 M372.64,231.54L296.18,231.52 M372.55,231.81L296.15,231.81 M371.47,270.67L289.19,270.66 M371.49,270.38L289.17,270.38 M371.51,270.24L289.15,270.24 M372.55,272.99L296.19,272.99 M372.64,272.78L296.18,272.80 M372.55,272.51L296.15,272.51 M371.47,270.83L289.19,270.82 M371.49,270.54L289.17,270.54 M371.51,270.40L289.15,270.40 M372.55,273.15L296.19,273.14 M372.64,272.94L296.18,272.96 M372.55,272.67L296.15,272.67 M277.73,276.74L284.88,276.34 M335.12,276.11L311.27,277.68 M219.97,261.49L234.48,261.41 M297.91,281.79L300.56,275.05 M297.54,282.42L273.17,283.23 M274.45,284.08L291.47,283.51 M291.55,283.67L274.21,284.25 M291.55,283.45L274.21,284.02 M297.91,281.79L300.56,275.05 M300.56,275.05L270.82,275.98 M297.91,281.79L273.03,282.62 M270.82,275.98L273.03,282.62 M297.54,282.42L273.17,283.23 M274.45,283.80L291.38,283.24 M274.45,284.08L291.47,283.51 M291.55,283.67L274.21,284.25 M298.08,222.94L300.59,229.73 M297.72,222.30L273.37,220.99 M301.15,231.70L270.20,229.94 M274.67,220.17L291.68,221.09 M291.76,220.92L274.44,220.00 M291.75,221.15L274.42,220.22 M298.08,222.94L300.59,229.73 M298.08,222.94L273.22,221.60 M270.88,228.20L273.22,221.60 M297.72,222.30L273.37,220.99 M274.67,220.17L291.68,221.09 M291.76,220.92L274.44,220.00 M262.62,267.25L275.66,267.25 M275.66,267.25L288.71,267.25 M262.62,266.70L275.66,266.67 M275.66,266.67L288.71,266.63 M288.71,266.63L299.89,266.60 M288.71,267.25L299.94,267.24 M299.89,266.60L315.93,263.62 M299.94,267.24L315.40,264.34 M299.79,267.25L310.30,265.65 M262.62,262.29L254.66,262.29 M262.62,262.29L275.66,262.29 M275.66,262.29L288.71,262.29 M255.17,262.29L261.01,262.29 M262.60,262.50L275.66,262.50 M275.66,262.50L288.71,262.50 M288.71,262.29L299.94,262.29 M290.23,262.29L301.00,262.29 M299.94,262.29L316.74,262.29 M304.13,262.29L311.67,262.29 M262.62,237.23L275.66,237.23 M275.66,237.23L288.71,237.23 M262.62,237.77L275.66,237.81 M275.66,237.81L288.71,237.84 M288.71,237.84L299.89,237.88 M288.71,237.23L299.94,237.23 M299.89,237.88L315.93,240.86 M299.94,237.23L315.40,240.14 M299.79,237.23L310.30,238.82 M262.62,242.18L254.66,242.18 M262.62,242.18L275.66,242.18 M275.66,242.18L288.71,242.18 M255.17,242.18L261.01,242.18 M262.60,241.97L275.66,241.97 M275.66,241.97L288.71,241.97 M288.71,242.18L299.94,242.18 M290.23,242.18L301.00,242.18 M299.94,242.18L316.74,242.18 M304.13,242.18L311.67,242.18 M255.93,254.94L263.49,254.94 M266.15,254.94L315.94,254.94 M316.18,262.29L256.56,262.29 M315.95,262.29L256.75,262.29 M255.93,249.53L263.49,249.53 M266.15,249.53L315.94,249.53 M316.18,242.19L256.56,242.19 M315.95,242.19L256.75,242.19 M258.72,261.77L314.11,261.77 M258.72,257.16L316.61,257.16 M258.72,242.70L314.11,242.70 M258.72,247.32L316.61,247.32 M333.94,264.41L372.14,264.43 M333.94,240.07L372.16,240.08 M216.20,295.05L216.54,277.63 M216.20,295.05L216.49,273.81 M216.49,230.66L216.20,209.43 M216.20,209.43L216.54,226.84 M347.89,221.59L352.01,228.33 M351.92,228.23L347.91,221.59 M352.15,235.41L292.43,234.47 M280.75,218.09L280.75,232.42 M280.61,218.09L280.61,232.44 M281.05,218.05L281.05,232.40 M354.78,220.92L281.53,217.75 M346.28,221.18L330.21,221.05 M277.82,207.87L274.20,221.29 M358.01,226.38L364.25,235.43 M364.12,235.45L357.78,226.49 M362.12,237.61L348.35,237.59 M346.53,236.77L274.34,236.57 M352.12,210.87L283.79,206.23 M357.34,226.10L350.10,225.86 M277.55,207.77L273.91,221.23 M277.40,207.73L273.76,221.23 M278.63,205.61L313.21,206.07 M278.63,205.61L314.68,206.10 M313.21,217.75L278.63,218.22 M314.68,217.73L278.63,218.22 M337.63,202.27L330.36,201.54 M327.19,204.42L327.24,215.49 M348.66,222.65L337.46,222.26 M349.11,222.65L337.46,222.26 M349.11,222.65L337.46,222.26 M348.66,222.64L337.46,222.26 M342.18,202.62L330.36,201.54 M274.77,205.55L325.92,205.50 M325.93,205.49L274.78,205.49 M325.83,213.32L284.27,213.32 M325.81,212.98L284.30,212.98 M353.25,225.51L282.39,225.48 M353.26,225.46L282.39,225.46 M325.86,206.03L275.25,206.05 M275.25,205.76L325.81,205.80 M275.25,205.64L325.87,205.64 M275.50,224.47L273.47,208.19 M275.64,224.40L273.63,208.13 M275.93,224.34L273.92,208.09 M281.93,212.14L284.35,219.49 M281.90,212.19L284.35,219.53 M321.98,202.14L269.07,197.93 M322.01,201.85L269.04,197.64 M322.02,201.70L269.03,197.51 M264.10,199.60L264.01,209.39 M264.53,199.71L264.47,209.42 M264.25,199.63L264.18,209.38 M267.78,219.98L260.79,223.49 M267.63,219.73L260.64,223.24 M267.56,219.61L260.56,223.13 M261.84,227.04L350.12,227.04 M261.81,227.33L350.10,227.33 M261.79,227.50L350.10,227.50 M351.94,228.23L359.26,228.23 M351.92,228.52L359.28,228.52 M351.91,228.69L359.29,228.69 M361.41,225.35L355.18,212.39 M355.06,212.44L361.27,225.38 M354.83,212.61L361.00,225.49 M259.80,194.36L245.81,194.40 M256.26,196.18L249.09,196.17 M247.14,214.98L254.31,214.99 M240.50,205.96L263.03,206.24 M240.50,205.96L263.01,206.40 M263.01,206.40L240.60,205.91 M241.95,216.56L259.77,216.53 M242.48,200.38L262.50,200.64 M332.69,202.19L339.83,202.81 M336.29,221.79L343.46,221.80 M349.94,212.72L326.27,212.66 M347.36,207.36L326.55,207.26 M327.16,207.44L346.37,207.52 M347.48,207.63L326.56,207.57 M282.37,206.53L282.37,217.30 M282.48,217.30L282.48,206.53 M285.30,210.38L298.06,210.38 M285.38,210.38L298.14,210.38 M285.42,210.28L298.18,210.28 M285.38,210.18L298.14,210.18 M285.30,210.18L298.06,210.18 M285.30,210.16L298.06,210.16 M285.38,210.16L298.14,210.16 M285.42,210.06L298.18,210.06 M285.38,209.96L298.14,209.96 M285.30,209.96L298.06,209.96 M299.98,212.67L305.54,212.67 M306.16,212.67L300.60,212.67 M329.31,266.08L350.77,266.11 M329.33,266.11L350.85,266.11 M351.67,274.69L331.35,276.44 M329.32,238.36L350.77,238.37 M329.33,238.37L350.85,238.36 M383.18,243.19L334.67,243.19 M383.18,261.28L334.67,261.28 M369.11,267.35L354.02,268.48 M354.05,268.50L329.72,270.32 M369.11,237.12L354.02,236.00 M354.05,235.97L329.72,234.16 M330.34,257.95L329.63,267.68 M330.77,252.24L329.47,270.07 M330.77,252.24L329.47,234.40 M330.34,246.53L329.63,236.79 M278.63,298.87L313.21,298.40 M278.63,298.87L314.68,298.38 M313.21,286.73L278.63,286.26 M314.68,286.75L278.63,286.26 M330.36,302.94L337.63,302.20 M327.19,300.06L327.24,288.99 M349.11,281.82L337.46,282.22 M348.66,281.83L337.46,282.22 M348.66,281.83L337.46,282.21 M349.11,281.82L337.46,282.21 M342.18,301.86L330.36,302.94 M259.21,309.34L246.26,309.41 M259.80,310.11L245.81,310.07 M256.26,308.30L249.09,308.30 M247.14,289.48L254.31,289.47 M240.51,298.52L263.03,298.23 M240.51,298.52L263.01,298.08 M263.01,298.08L240.60,298.57 M241.95,287.92L259.77,287.95 M242.47,304.10L262.49,303.84 M332.68,302.29L339.82,301.66 M336.28,282.79L343.45,282.78 M349.95,291.78L326.28,291.83 M347.36,297.13L326.55,297.21 M327.16,297.03L346.37,296.96 M347.48,296.86L326.55,296.90 M282.37,287.18L282.37,297.94 M282.48,297.94L282.48,287.18 M285.30,291.02L298.06,291.02 M285.38,291.02L298.14,291.02 M285.42,290.92L298.18,290.92 M285.38,290.82L298.14,290.82 M285.30,290.82L298.06,290.82 M285.30,290.80L298.06,290.80 M285.38,290.80L298.14,290.80 M285.42,290.70L298.18,290.70 M285.38,290.60L298.14,290.61 M285.30,290.60L298.06,290.61 M299.98,293.31L305.54,293.31 M306.16,293.31L300.60,293.31 M325.67,291.15L284.27,291.16 M325.65,291.50L284.30,291.50 M353.25,278.97L282.39,279.00 M353.26,279.01L282.39,279.01 M274.77,298.92L325.87,298.97 M325.87,298.98L274.78,298.98 M321.98,302.34L269.07,306.54 M322.01,302.63L269.04,306.84 M322.02,302.77L269.03,306.97 M264.10,304.87L264.01,295.09 M264.53,304.76L264.47,295.06 M264.25,304.85L264.18,295.10 M267.78,284.49L260.79,280.98 M267.63,284.74L260.64,281.23 M267.56,284.86L260.56,281.35 M261.79,276.98L350.10,276.98 M261.81,277.15L350.10,277.15 M261.84,277.44L350.12,277.44 M351.94,276.25L359.26,276.25 M351.92,275.96L359.28,275.95 M351.91,275.78L359.29,275.78 M361.41,279.12L355.18,292.09 M355.06,292.03L361.27,279.10 M354.83,291.87L361.00,278.99 M281.93,292.34L284.35,284.98 M281.90,292.28L284.35,284.95 M325.75,298.44L275.25,298.42 M275.25,298.71L325.76,298.68 M275.25,298.84L325.77,298.84 M275.50,280.01L273.47,296.29 M275.64,280.07L273.63,296.34 M275.93,280.13L273.92,296.39 M347.89,282.89L352.01,276.14 M351.92,276.25L347.91,282.88 M352.15,269.07L292.49,270.01 M280.75,286.39L280.75,272.06 M280.61,286.39L280.61,272.03 M281.05,286.43L281.05,272.07 M354.78,283.55L281.53,286.73 M346.28,283.30L330.21,283.42 M277.82,296.61L274.20,283.19 M274.34,267.91L346.53,267.70 M358.01,278.09L364.25,269.05 M364.12,269.03L357.78,277.99 M362.12,266.86L348.35,266.89 M352.12,293.61L283.79,298.25 M357.34,278.37L350.10,278.62 M277.55,296.71L273.91,283.24 M277.40,296.74L273.76,283.25 M352.92,297.91L360.21,283.05 M361.40,280.65L369.11,264.63 M261.32,273.91L272.69,264.10 M298.96,301.56L310.42,300.74 M314.62,300.44L333.69,299.25 M361.42,280.65L369.09,264.62 M347.39,264.29L274.49,263.48 M261.30,273.92L272.71,264.10 M245.49,306.23L265.22,306.46 M255.09,242.84L259.49,236.21 M285.04,239.87L326.34,245.16 M272.61,235.74L260.02,235.74 M269.94,248.17L260.31,248.18 M260.37,244.60L270.40,244.63 M255.09,261.64L259.49,268.27 M259.79,268.35L272.60,268.35 M285.04,264.61L326.34,259.32 M284.52,265.12L330.51,259.08 M269.95,260.19L260.16,260.19 M269.94,256.30L260.31,256.30 M260.37,259.88L270.40,259.85 M262.30,256.12L257.45,255.63 M262.30,256.12L275.78,256.12 M262.30,260.39L257.45,260.88 M262.30,260.39L275.78,260.39 M233.99,252.24L233.91,260.67 M235.23,261.83L235.24,252.24 M235.24,242.64L235.24,252.24" stroke="currentColor" stroke-width="0.6" stroke-linecap="round" fill="none" opacity="0.55" clip-path="url(#hull-clip)" filter="url(#glow)" />
  <path d="M 252.62,314.50 C 251.60,314.51 250.40,314.51 249.38,314.50 C 248.35,314.49 247.39,314.46 246.49,314.43 C 245.59,314.39 244.75,314.35 243.98,314.29 C 243.20,314.23 242.48,314.16 241.83,314.08 C 241.17,314.00 240.58,313.90 240.05,313.80 C 239.51,313.69 239.04,313.57 238.63,313.45 C 238.22,313.32 237.87,313.18 237.59,313.02 C 237.30,312.87 237.07,312.71 236.91,312.53 C 236.74,312.36 236.70,312.19 236.59,311.97 C 236.49,311.75 236.38,311.49 236.27,311.20 C 236.15,310.91 236.04,310.59 235.92,310.23 C 235.80,309.88 235.68,309.49 235.56,309.06 C 235.44,308.64 235.32,308.18 235.19,307.69 C 235.06,307.20 234.93,306.67 234.80,306.11 C 234.66,305.55 234.53,304.96 234.39,304.33 C 234.25,303.70 234.11,303.04 233.97,302.34 C 233.83,301.65 233.69,300.83 233.53,300.16 C 233.37,299.49 233.19,298.87 232.99,298.32 C 232.80,297.77 232.58,297.27 232.35,296.84 C 232.12,296.40 231.87,296.02 231.61,295.70 C 231.35,295.38 231.06,295.12 230.77,294.92 C 230.47,294.72 230.15,294.58 229.82,294.49 C 229.49,294.41 229.14,294.38 228.77,294.41 C 228.41,294.45 228.02,294.54 227.62,294.69 C 227.23,294.84 226.80,295.12 226.38,295.31 C 225.95,295.51 225.52,295.68 225.08,295.84 C 224.64,296.01 224.19,296.15 223.73,296.28 C 223.28,296.41 222.82,296.53 222.34,296.62 C 221.87,296.72 221.39,296.81 220.91,296.88 C 220.42,296.94 219.92,296.99 219.42,297.03 C 218.92,297.07 218.41,297.09 217.89,297.09 C 217.37,297.10 216.85,297.09 216.31,297.06 C 215.78,297.04 215.19,296.98 214.69,296.94 C 214.19,296.89 213.73,296.84 213.30,296.79 C 212.88,296.74 212.50,296.68 212.16,296.62 C 211.82,296.56 211.52,296.49 211.27,296.42 C 211.01,296.35 210.79,296.28 210.61,296.20 C 210.43,296.13 210.29,296.05 210.20,295.96 C 210.10,295.88 210.04,295.79 210.02,295.70 C 210.01,295.60 210.03,295.51 210.09,295.41 C 210.16,295.31 210.31,295.24 210.41,295.09 C 210.50,294.94 210.60,294.75 210.68,294.51 C 210.76,294.27 210.84,293.98 210.91,293.65 C 210.99,293.32 211.05,292.94 211.11,292.52 C 211.17,292.09 211.22,291.62 211.27,291.11 C 211.31,290.60 211.35,290.04 211.38,289.43 C 211.42,288.82 211.44,288.17 211.46,287.48 C 211.48,286.78 211.49,286.04 211.50,285.25 C 211.51,284.46 211.51,283.54 211.50,282.75 C 211.49,281.96 211.48,281.22 211.45,280.53 C 211.43,279.84 211.40,279.19 211.36,278.59 C 211.32,277.99 211.27,277.44 211.22,276.94 C 211.16,276.43 211.10,275.97 211.03,275.56 C 210.96,275.15 210.88,274.79 210.80,274.47 C 210.71,274.15 210.62,273.88 210.52,273.66 C 210.41,273.43 210.30,273.26 210.19,273.12 C 210.07,272.99 209.93,272.96 209.81,272.88 C 209.70,272.79 209.59,272.70 209.49,272.62 C 209.39,272.53 209.31,272.44 209.23,272.35 C 209.15,272.26 209.08,272.17 209.02,272.08 C 208.95,271.99 208.90,271.89 208.86,271.80 C 208.82,271.70 208.78,271.61 208.76,271.51 C 208.73,271.41 208.72,271.31 208.71,271.21 C 208.70,271.11 208.71,271.01 208.72,270.91 C 208.73,270.80 208.78,270.69 208.78,270.59 C 208.79,270.50 208.78,270.41 208.75,270.33 C 208.72,270.25 208.68,270.17 208.62,270.11 C 208.57,270.04 208.49,269.99 208.41,269.94 C 208.32,269.89 208.21,269.85 208.09,269.81 C 207.97,269.78 207.84,269.75 207.69,269.73 C 207.54,269.72 207.37,269.71 207.19,269.70 C 207.01,269.70 206.81,269.71 206.59,269.72 C 206.38,269.73 206.12,269.74 205.91,269.78 C 205.69,269.82 205.49,269.89 205.30,269.97 C 205.11,270.05 204.93,270.16 204.77,270.28 C 204.60,270.41 204.45,270.55 204.31,270.72 C 204.17,270.89 204.05,271.07 203.94,271.28 C 203.83,271.49 203.73,271.72 203.64,271.97 C 203.55,272.22 203.48,272.49 203.42,272.78 C 203.36,273.07 203.32,273.39 203.28,273.72 C 203.25,274.05 203.30,274.45 203.22,274.78 C 203.14,275.12 203.00,275.43 202.80,275.73 C 202.61,276.02 202.35,276.30 202.04,276.55 C 201.73,276.81 201.35,277.05 200.92,277.27 C 200.49,277.48 200.00,277.68 199.45,277.86 C 198.90,278.04 198.30,278.20 197.63,278.34 C 196.97,278.48 196.24,278.60 195.46,278.70 C 194.68,278.80 193.84,278.88 192.94,278.94 C 192.04,279.00 191.00,279.04 190.06,279.06 C 189.13,279.09 188.22,279.09 187.33,279.08 C 186.44,279.07 185.58,279.03 184.73,278.98 C 183.89,278.93 183.08,278.87 182.28,278.78 C 181.49,278.70 180.72,278.59 179.97,278.47 C 179.22,278.35 178.50,278.21 177.80,278.05 C 177.10,277.89 176.42,277.71 175.77,277.52 C 175.11,277.32 174.48,277.11 173.88,276.88 C 173.27,276.64 172.74,276.36 172.12,276.12 C 171.51,275.89 170.86,275.66 170.19,275.44 C 169.51,275.22 168.80,275.01 168.06,274.81 C 167.32,274.61 166.55,274.43 165.75,274.25 C 164.95,274.07 164.11,273.91 163.25,273.75 C 162.39,273.59 161.49,273.45 160.56,273.31 C 159.64,273.18 158.68,273.05 157.69,272.94 C 156.70,272.82 155.68,272.72 154.62,272.62 C 153.57,272.53 152.41,272.47 151.38,272.38 C 150.34,272.28 149.36,272.18 148.42,272.06 C 147.49,271.95 146.60,271.82 145.77,271.69 C 144.93,271.55 144.14,271.41 143.41,271.25 C 142.67,271.09 141.98,270.93 141.34,270.75 C 140.71,270.57 140.12,270.39 139.58,270.19 C 139.04,269.99 138.55,269.78 138.11,269.56 C 137.67,269.34 137.28,269.11 136.94,268.88 C 136.60,268.64 136.37,268.36 136.06,268.12 C 135.76,267.89 135.44,267.66 135.11,267.45 C 134.78,267.24 134.43,267.04 134.08,266.86 C 133.72,266.67 133.35,266.50 132.97,266.34 C 132.59,266.18 132.19,266.04 131.78,265.91 C 131.37,265.77 130.95,265.65 130.52,265.55 C 130.08,265.44 129.63,265.35 129.17,265.27 C 128.71,265.18 128.24,265.12 127.75,265.06 C 127.26,265.01 126.70,264.98 126.25,264.94 C 125.80,264.89 125.40,264.85 125.05,264.80 C 124.71,264.76 124.41,264.71 124.16,264.66 C 123.92,264.62 123.72,264.57 123.58,264.52 C 123.43,264.46 123.34,264.41 123.30,264.36 C 123.25,264.31 123.26,264.25 123.32,264.20 C 123.38,264.14 123.49,264.08 123.65,264.02 C 123.81,263.96 124.02,263.90 124.28,263.84 C 124.54,263.78 124.96,263.74 125.22,263.66 C 125.48,263.57 125.69,263.46 125.85,263.32 C 126.01,263.18 126.12,263.02 126.18,262.84 C 126.24,262.65 126.25,262.44 126.20,262.20 C 126.16,261.97 126.07,261.71 125.92,261.42 C 125.78,261.14 125.58,260.83 125.34,260.49 C 125.09,260.16 124.79,259.80 124.45,259.41 C 124.10,259.03 123.70,258.62 123.25,258.19 C 122.80,257.75 122.19,257.27 121.75,256.81 C 121.31,256.35 120.94,255.90 120.62,255.44 C 120.31,254.98 120.06,254.52 119.88,254.06 C 119.69,253.60 119.56,253.15 119.50,252.69 C 119.44,252.23 119.44,251.77 119.50,251.31 C 119.56,250.85 119.69,250.40 119.88,249.94 C 120.06,249.48 120.31,249.02 120.62,248.56 C 120.94,248.10 121.31,247.65 121.75,247.19 C 122.19,246.73 122.80,246.24 123.25,245.81 C 123.70,245.38 124.11,244.98 124.46,244.60 C 124.82,244.23 125.12,243.88 125.38,243.55 C 125.64,243.23 125.85,242.94 126.02,242.67 C 126.18,242.40 126.29,242.17 126.36,241.95 C 126.43,241.74 126.44,241.56 126.41,241.40 C 126.38,241.24 126.31,241.11 126.18,241.01 C 126.05,240.90 125.88,240.83 125.66,240.78 C 125.43,240.73 125.10,240.74 124.84,240.72 C 124.59,240.69 124.35,240.67 124.12,240.63 C 123.89,240.60 123.68,240.56 123.48,240.52 C 123.28,240.48 123.09,240.44 122.92,240.39 C 122.75,240.34 122.60,240.29 122.45,240.23 C 122.31,240.18 122.18,240.12 122.07,240.05 C 121.96,239.99 121.86,239.92 121.77,239.85 C 121.69,239.78 121.62,239.70 121.56,239.62 C 121.51,239.55 121.45,239.45 121.44,239.38 C 121.42,239.30 121.44,239.22 121.48,239.16 C 121.53,239.09 121.60,239.03 121.70,238.97 C 121.80,238.91 121.93,238.86 122.09,238.81 C 122.25,238.77 122.44,238.72 122.66,238.69 C 122.87,238.65 123.12,238.62 123.39,238.59 C 123.66,238.57 123.97,238.55 124.30,238.53 C 124.63,238.52 124.99,238.51 125.38,238.50 C 125.76,238.49 126.21,238.52 126.62,238.50 C 127.04,238.48 127.44,238.45 127.84,238.41 C 128.24,238.36 128.64,238.30 129.03,238.22 C 129.42,238.14 129.81,238.05 130.19,237.94 C 130.57,237.83 130.94,237.70 131.31,237.56 C 131.68,237.42 132.05,237.27 132.41,237.09 C 132.77,236.92 133.12,236.73 133.47,236.53 C 133.82,236.33 134.16,236.11 134.50,235.88 C 134.84,235.64 135.12,235.36 135.50,235.12 C 135.88,234.89 136.30,234.66 136.77,234.44 C 137.23,234.22 137.74,234.01 138.30,233.81 C 138.85,233.61 139.45,233.43 140.09,233.25 C 140.74,233.07 141.42,232.91 142.16,232.75 C 142.89,232.59 143.66,232.45 144.48,232.31 C 145.30,232.18 146.17,232.05 147.08,231.94 C 147.99,231.82 148.94,231.72 149.94,231.62 C 150.93,231.53 152.04,231.47 153.06,231.38 C 154.08,231.28 155.08,231.17 156.06,231.05 C 157.04,230.92 158.00,230.79 158.94,230.64 C 159.88,230.49 160.79,230.33 161.69,230.16 C 162.58,229.98 163.46,229.79 164.31,229.59 C 165.17,229.39 166.00,229.18 166.81,228.95 C 167.62,228.73 168.42,228.49 169.19,228.23 C 169.96,227.98 170.71,227.72 171.44,227.44 C 172.17,227.16 172.84,226.83 173.56,226.56 C 174.28,226.29 175.02,226.05 175.77,225.83 C 176.51,225.61 177.27,225.41 178.05,225.23 C 178.82,225.06 179.61,224.91 180.41,224.78 C 181.21,224.65 182.02,224.55 182.84,224.47 C 183.67,224.39 184.51,224.33 185.36,224.30 C 186.21,224.26 187.08,224.25 187.95,224.27 C 188.83,224.28 189.72,224.32 190.62,224.38 C 191.53,224.43 192.51,224.53 193.38,224.62 C 194.24,224.72 195.04,224.83 195.79,224.96 C 196.54,225.09 197.23,225.23 197.87,225.38 C 198.50,225.54 199.08,225.71 199.61,225.89 C 200.13,226.07 200.60,226.27 201.02,226.48 C 201.43,226.70 201.79,226.92 202.09,227.16 C 202.39,227.40 202.63,227.66 202.82,227.93 C 203.01,228.20 203.14,228.48 203.22,228.78 C 203.30,229.08 203.25,229.42 203.28,229.72 C 203.31,230.02 203.35,230.30 203.41,230.56 C 203.46,230.83 203.52,231.08 203.59,231.31 C 203.67,231.55 203.75,231.77 203.84,231.97 C 203.94,232.17 204.04,232.36 204.16,232.53 C 204.27,232.70 204.40,232.86 204.53,233.00 C 204.67,233.14 204.81,233.27 204.97,233.38 C 205.12,233.48 205.29,233.58 205.47,233.66 C 205.65,233.73 205.85,233.80 206.03,233.84 C 206.22,233.89 206.40,233.91 206.58,233.92 C 206.76,233.93 206.93,233.92 207.11,233.89 C 207.28,233.86 207.46,233.82 207.62,233.75 C 207.79,233.68 207.96,233.60 208.12,233.50 C 208.29,233.40 208.45,233.28 208.61,233.14 C 208.77,233.00 208.92,232.85 209.08,232.67 C 209.23,232.50 209.38,232.30 209.53,232.09 C 209.68,231.88 209.83,231.67 209.97,231.41 C 210.11,231.14 210.23,230.84 210.35,230.51 C 210.47,230.17 210.58,229.80 210.68,229.40 C 210.78,228.99 210.87,228.55 210.95,228.08 C 211.04,227.60 211.11,227.09 211.17,226.55 C 211.24,226.00 211.29,225.42 211.34,224.80 C 211.38,224.19 211.42,223.54 211.45,222.85 C 211.47,222.17 211.49,221.44 211.50,220.69 C 211.51,219.93 211.51,219.06 211.50,218.31 C 211.49,217.56 211.48,216.85 211.45,216.19 C 211.43,215.52 211.40,214.90 211.36,214.31 C 211.32,213.73 211.27,213.19 211.22,212.69 C 211.16,212.19 211.10,211.73 211.03,211.31 C 210.96,210.90 210.88,210.52 210.80,210.19 C 210.71,209.85 210.62,209.56 210.52,209.31 C 210.41,209.06 210.30,208.85 210.19,208.69 C 210.07,208.52 209.90,208.43 209.81,208.31 C 209.73,208.19 209.68,208.07 209.68,207.96 C 209.68,207.85 209.71,207.74 209.79,207.63 C 209.87,207.53 209.98,207.43 210.14,207.33 C 210.30,207.23 210.50,207.14 210.73,207.05 C 210.97,206.96 211.25,206.87 211.57,206.79 C 211.89,206.71 212.25,206.63 212.65,206.55 C 213.05,206.48 213.49,206.41 213.97,206.34 C 214.45,206.28 215.01,206.20 215.53,206.16 C 216.05,206.11 216.56,206.08 217.07,206.07 C 217.58,206.06 218.08,206.06 218.59,206.09 C 219.09,206.11 219.58,206.15 220.08,206.20 C 220.57,206.26 221.06,206.33 221.55,206.42 C 222.03,206.51 222.51,206.62 222.99,206.74 C 223.47,206.87 223.94,207.01 224.41,207.16 C 224.88,207.32 225.35,207.50 225.81,207.69 C 226.27,207.88 226.75,208.17 227.19,208.31 C 227.63,208.46 228.05,208.55 228.45,208.57 C 228.85,208.60 229.23,208.56 229.59,208.46 C 229.95,208.36 230.29,208.20 230.61,207.98 C 230.93,207.76 231.23,207.48 231.52,207.14 C 231.80,206.80 232.06,206.39 232.30,205.93 C 232.55,205.46 232.77,204.94 232.98,204.35 C 233.18,203.76 233.37,203.12 233.53,202.41 C 233.70,201.70 233.83,200.82 233.97,200.09 C 234.11,199.36 234.24,198.68 234.38,198.03 C 234.51,197.39 234.63,196.78 234.75,196.22 C 234.87,195.66 234.98,195.14 235.09,194.66 C 235.20,194.18 235.31,193.74 235.41,193.34 C 235.51,192.95 235.60,192.59 235.69,192.28 C 235.78,191.97 235.86,191.70 235.94,191.47 C 236.02,191.24 236.09,191.05 236.16,190.91 C 236.22,190.76 236.27,190.69 236.34,190.59 C 236.41,190.49 236.49,190.40 236.58,190.31 C 236.66,190.22 236.76,190.14 236.86,190.06 C 236.96,189.98 237.07,189.91 237.19,189.84 C 237.30,189.78 237.43,189.71 237.56,189.66 C 237.70,189.60 237.84,189.55 237.98,189.50 C 238.13,189.45 238.29,189.41 238.45,189.38 C 238.62,189.34 238.79,189.31 238.97,189.28 C 239.15,189.26 239.30,189.24 239.53,189.22 C 239.77,189.20 240.05,189.18 240.38,189.17 C 240.70,189.16 241.08,189.15 241.50,189.14 C 241.92,189.13 242.39,189.13 242.91,189.12 C 243.42,189.12 243.98,189.12 244.59,189.12 C 245.20,189.13 245.86,189.13 246.56,189.14 C 247.27,189.15 248.02,189.16 248.81,189.17 C 249.61,189.18 250.45,189.20 251.34,189.22 C 252.23,189.24 253.27,189.25 254.16,189.28 C 255.05,189.31 255.89,189.34 256.68,189.38 C 257.47,189.42 258.22,189.47 258.91,189.52 C 259.61,189.58 260.26,189.64 260.86,189.70 C 261.46,189.77 262.01,189.84 262.52,189.92 C 263.02,190.00 263.48,190.09 263.88,190.18 C 264.29,190.27 264.65,190.37 264.96,190.48 C 265.27,190.58 265.54,190.69 265.75,190.81 C 265.96,190.93 266.08,191.07 266.25,191.19 C 266.42,191.31 266.60,191.42 266.78,191.53 C 266.96,191.64 267.15,191.74 267.34,191.84 C 267.54,191.94 267.73,192.04 267.94,192.12 C 268.14,192.21 268.35,192.30 268.56,192.38 C 268.78,192.45 268.99,192.53 269.22,192.59 C 269.44,192.66 269.67,192.72 269.91,192.78 C 270.14,192.84 270.38,192.89 270.62,192.94 C 270.87,192.98 271.04,193.02 271.38,193.06 C 271.71,193.11 272.12,193.16 272.61,193.22 C 273.10,193.28 273.67,193.34 274.33,193.41 C 274.98,193.47 275.72,193.55 276.53,193.62 C 277.35,193.70 278.24,193.79 279.22,193.88 C 280.20,193.96 281.25,194.06 282.39,194.16 C 283.53,194.26 284.75,194.36 286.05,194.47 C 287.35,194.58 288.73,194.69 290.19,194.81 C 291.65,194.93 293.35,195.07 294.81,195.19 C 296.28,195.30 297.67,195.41 298.98,195.52 C 300.30,195.62 301.54,195.71 302.70,195.80 C 303.87,195.88 304.96,195.96 305.97,196.03 C 306.98,196.10 307.92,196.16 308.78,196.22 C 309.64,196.27 310.43,196.32 311.14,196.36 C 311.85,196.40 312.49,196.43 313.05,196.45 C 313.61,196.48 314.09,196.49 314.50,196.50 C 314.91,196.51 315.18,196.51 315.50,196.50 C 315.82,196.49 316.13,196.48 316.42,196.47 C 316.72,196.45 317.00,196.43 317.27,196.41 C 317.53,196.38 317.79,196.35 318.03,196.31 C 318.27,196.28 318.50,196.23 318.72,196.19 C 318.93,196.14 319.14,196.09 319.33,196.03 C 319.52,195.97 319.70,195.91 319.86,195.84 C 320.02,195.78 320.17,195.70 320.31,195.62 C 320.45,195.55 320.50,195.45 320.69,195.38 C 320.88,195.30 321.12,195.24 321.44,195.19 C 321.75,195.14 322.12,195.09 322.56,195.06 C 323.00,195.03 323.50,195.01 324.06,195.00 C 324.62,194.99 325.25,194.99 325.94,195.00 C 326.62,195.01 327.38,195.03 328.19,195.06 C 329.00,195.09 329.88,195.14 330.81,195.19 C 331.75,195.24 332.75,195.30 333.81,195.38 C 334.88,195.45 336.12,195.54 337.19,195.62 C 338.25,195.71 339.25,195.80 340.20,195.90 C 341.14,195.99 342.02,196.09 342.84,196.20 C 343.65,196.30 344.41,196.40 345.11,196.52 C 345.81,196.63 346.44,196.74 347.02,196.86 C 347.59,196.98 348.10,197.10 348.55,197.23 C 349.01,197.35 349.40,197.48 349.73,197.62 C 350.06,197.75 350.32,197.89 350.53,198.03 C 350.74,198.17 350.80,198.26 350.97,198.47 C 351.14,198.68 351.33,198.95 351.55,199.28 C 351.76,199.61 352.00,200.01 352.27,200.47 C 352.53,200.93 352.82,201.45 353.12,202.03 C 353.43,202.61 353.77,203.26 354.12,203.97 C 354.48,204.68 354.86,205.45 355.27,206.28 C 355.67,207.11 356.10,208.01 356.55,208.97 C 357.00,209.93 357.47,210.95 357.97,212.03 C 358.47,213.11 358.99,214.40 359.53,215.47 C 360.07,216.54 360.64,217.54 361.23,218.46 C 361.81,219.38 362.42,220.23 363.05,221.01 C 363.69,221.78 364.34,222.48 365.02,223.11 C 365.69,223.74 366.39,224.29 367.11,224.77 C 367.83,225.24 368.57,225.65 369.34,225.98 C 370.10,226.31 370.89,226.56 371.70,226.74 C 372.50,226.92 373.33,227.03 374.19,227.06 C 375.04,227.10 375.98,226.97 376.81,226.94 C 377.64,226.91 378.42,226.89 379.16,226.88 C 379.89,226.86 380.58,226.86 381.22,226.88 C 381.86,226.89 382.45,226.91 383.00,226.94 C 383.55,226.97 384.05,227.01 384.50,227.06 C 384.95,227.11 385.36,227.18 385.72,227.25 C 386.08,227.32 386.39,227.41 386.66,227.50 C 386.92,227.59 387.14,227.70 387.31,227.81 C 387.48,227.93 387.55,228.07 387.69,228.19 C 387.83,228.30 387.98,228.41 388.14,228.52 C 388.30,228.62 388.48,228.71 388.67,228.80 C 388.86,228.88 389.07,228.96 389.28,229.03 C 389.50,229.10 389.73,229.16 389.97,229.22 C 390.21,229.27 390.47,229.32 390.73,229.36 C 391.00,229.40 391.28,229.43 391.58,229.45 C 391.87,229.48 392.18,229.49 392.50,229.50 C 392.82,229.51 393.18,229.50 393.50,229.50 C 393.82,229.50 394.12,229.51 394.40,229.52 C 394.68,229.54 394.95,229.55 395.20,229.57 C 395.44,229.59 395.68,229.61 395.89,229.64 C 396.11,229.67 396.30,229.70 396.48,229.73 C 396.67,229.77 396.83,229.81 396.98,229.85 C 397.12,229.89 397.25,229.94 397.37,229.99 C 397.48,230.04 397.58,230.10 397.66,230.16 C 397.74,230.21 397.83,230.27 397.84,230.34 C 397.86,230.41 397.82,230.49 397.74,230.57 C 397.66,230.65 397.53,230.74 397.35,230.84 C 397.17,230.93 396.95,231.03 396.67,231.14 C 396.40,231.25 396.07,231.36 395.70,231.48 C 395.33,231.61 394.91,231.73 394.45,231.87 C 393.98,232.00 393.46,232.14 392.90,232.29 C 392.33,232.44 391.72,232.59 391.06,232.75 C 390.40,232.91 389.57,233.06 388.94,233.25 C 388.30,233.44 387.74,233.67 387.26,233.91 C 386.77,234.16 386.36,234.44 386.02,234.74 C 385.69,235.05 385.42,235.38 385.23,235.73 C 385.05,236.09 384.93,236.48 384.89,236.89 C 384.85,237.30 384.88,237.74 384.99,238.21 C 385.10,238.68 385.28,239.17 385.54,239.70 C 385.80,240.22 386.13,240.77 386.53,241.34 C 386.94,241.92 387.50,242.59 387.97,243.16 C 388.43,243.72 388.88,244.25 389.32,244.74 C 389.76,245.23 390.18,245.69 390.59,246.10 C 390.99,246.52 391.39,246.89 391.77,247.23 C 392.14,247.57 392.51,247.88 392.86,248.14 C 393.21,248.40 393.55,248.63 393.87,248.82 C 394.19,249.01 394.50,249.16 394.79,249.27 C 395.08,249.39 395.36,249.46 395.62,249.50 C 395.89,249.54 396.14,249.49 396.38,249.50 C 396.61,249.51 396.84,249.53 397.05,249.55 C 397.27,249.58 397.47,249.62 397.66,249.66 C 397.86,249.71 398.04,249.76 398.20,249.83 C 398.37,249.89 398.53,249.96 398.67,250.05 C 398.82,250.13 398.95,250.22 399.07,250.32 C 399.19,250.42 399.30,250.53 399.40,250.65 C 399.50,250.77 399.58,250.89 399.66,251.03 C 399.73,251.17 399.79,251.33 399.84,251.47 C 399.90,251.61 399.95,251.74 399.98,251.88 C 400.02,252.01 400.05,252.13 400.08,252.25 C 400.10,252.37 400.12,252.48 400.12,252.59 C 400.13,252.70 400.13,252.81 400.12,252.91 C 400.12,253.01 400.10,253.10 400.08,253.19 C 400.05,253.28 400.02,253.36 399.98,253.44 C 399.95,253.52 399.90,253.59 399.84,253.66 C 399.79,253.72 399.73,253.79 399.66,253.84 C 399.58,253.90 399.49,253.96 399.38,254.01 C 399.28,254.06 399.16,254.11 399.02,254.15 C 398.89,254.19 398.74,254.23 398.58,254.27 C 398.42,254.30 398.24,254.33 398.05,254.36 C 397.86,254.39 397.65,254.41 397.43,254.43 C 397.21,254.45 396.98,254.46 396.73,254.48 C 396.48,254.49 396.21,254.50 395.94,254.50 C 395.66,254.50 395.36,254.46 395.06,254.50 C 394.76,254.54 394.46,254.61 394.15,254.73 C 393.84,254.84 393.52,254.99 393.20,255.18 C 392.87,255.37 392.54,255.60 392.20,255.86 C 391.87,256.12 391.52,256.43 391.17,256.77 C 390.82,257.11 390.46,257.48 390.10,257.90 C 389.74,258.31 389.37,258.77 388.99,259.26 C 388.62,259.75 388.23,260.28 387.84,260.84 C 387.45,261.41 386.99,262.08 386.66,262.66 C 386.33,263.23 386.06,263.77 385.87,264.29 C 385.67,264.80 385.54,265.29 385.48,265.74 C 385.41,266.20 385.42,266.62 385.48,267.02 C 385.55,267.41 385.69,267.77 385.89,268.11 C 386.09,268.44 386.36,268.75 386.70,269.02 C 387.03,269.30 387.43,269.54 387.90,269.76 C 388.37,269.97 388.90,270.16 389.50,270.31 C 390.10,270.47 390.88,270.57 391.50,270.69 C 392.12,270.81 392.70,270.93 393.23,271.04 C 393.76,271.15 394.24,271.26 394.68,271.37 C 395.12,271.47 395.51,271.57 395.86,271.67 C 396.21,271.77 396.51,271.86 396.77,271.95 C 397.02,272.04 397.23,272.13 397.40,272.21 C 397.56,272.29 397.68,272.37 397.76,272.45 C 397.83,272.52 397.86,272.59 397.84,272.66 C 397.83,272.72 397.73,272.79 397.66,272.84 C 397.58,272.90 397.49,272.96 397.38,273.01 C 397.28,273.06 397.16,273.11 397.02,273.15 C 396.89,273.19 396.74,273.23 396.58,273.27 C 396.42,273.30 396.24,273.33 396.05,273.36 C 395.86,273.39 395.65,273.41 395.43,273.43 C 395.21,273.45 394.98,273.46 394.73,273.48 C 394.48,273.49 394.21,273.50 393.94,273.50 C 393.66,273.50 393.34,273.49 393.06,273.50 C 392.78,273.51 392.51,273.52 392.25,273.55 C 391.99,273.57 391.74,273.60 391.50,273.64 C 391.26,273.68 391.03,273.73 390.81,273.78 C 390.59,273.84 390.39,273.90 390.19,273.97 C 389.99,274.04 389.80,274.12 389.62,274.20 C 389.45,274.29 389.28,274.38 389.12,274.48 C 388.97,274.59 388.82,274.70 388.69,274.81 C 388.55,274.93 388.49,275.07 388.31,275.19 C 388.14,275.30 387.91,275.41 387.64,275.52 C 387.37,275.62 387.04,275.71 386.67,275.80 C 386.30,275.88 385.88,275.96 385.41,276.03 C 384.93,276.10 384.41,276.16 383.84,276.22 C 383.27,276.27 382.65,276.32 381.98,276.36 C 381.32,276.40 380.60,276.43 379.83,276.45 C 379.06,276.48 378.24,276.49 377.38,276.50 C 376.51,276.51 375.52,276.42 374.62,276.50 C 373.73,276.58 372.85,276.73 371.98,276.97 C 371.12,277.20 370.28,277.52 369.45,277.91 C 368.63,278.30 367.82,278.77 367.03,279.31 C 366.24,279.86 365.47,280.48 364.72,281.19 C 363.97,281.89 363.23,282.67 362.52,283.53 C 361.80,284.39 361.10,285.33 360.42,286.34 C 359.74,287.36 359.08,288.45 358.44,289.62 C 357.79,290.80 357.21,292.20 356.56,293.38 C 355.91,294.55 355.23,295.66 354.53,296.70 C 353.83,297.74 353.10,298.71 352.34,299.61 C 351.59,300.51 350.81,301.34 350.00,302.09 C 349.19,302.85 348.36,303.54 347.50,304.16 C 346.64,304.77 345.76,305.32 344.84,305.80 C 343.93,306.27 342.99,306.68 342.03,307.02 C 341.07,307.35 340.08,307.62 339.06,307.81 C 338.05,308.01 336.93,308.08 335.94,308.19 C 334.95,308.30 334.01,308.40 333.12,308.48 C 332.24,308.57 331.41,308.64 330.62,308.70 C 329.84,308.76 329.11,308.81 328.44,308.84 C 327.76,308.88 327.14,308.90 326.56,308.91 C 325.99,308.91 325.47,308.91 325.00,308.89 C 324.53,308.87 324.11,308.84 323.75,308.80 C 323.39,308.75 323.07,308.70 322.81,308.62 C 322.55,308.55 322.46,308.45 322.19,308.38 C 321.91,308.30 321.57,308.23 321.16,308.17 C 320.74,308.11 320.27,308.06 319.72,308.02 C 319.17,307.97 318.56,307.93 317.88,307.91 C 317.19,307.88 316.44,307.86 315.62,307.84 C 314.81,307.83 313.92,307.83 312.97,307.83 C 312.02,307.83 310.99,307.84 309.91,307.86 C 308.82,307.88 307.66,307.90 306.44,307.94 C 305.21,307.97 303.83,308.02 302.56,308.06 C 301.30,308.11 300.07,308.15 298.86,308.20 C 297.65,308.25 296.48,308.30 295.33,308.36 C 294.18,308.41 293.06,308.47 291.97,308.53 C 290.88,308.59 289.82,308.65 288.78,308.72 C 287.75,308.78 286.74,308.85 285.77,308.92 C 284.79,308.99 283.84,309.07 282.92,309.14 C 282.00,309.22 281.11,309.29 280.25,309.38 C 279.39,309.46 278.54,309.54 277.75,309.62 C 276.96,309.71 276.20,309.81 275.48,309.91 C 274.77,310.01 274.09,310.11 273.45,310.22 C 272.82,310.33 272.22,310.44 271.66,310.56 C 271.10,310.68 270.58,310.81 270.09,310.94 C 269.61,311.07 269.17,311.20 268.77,311.34 C 268.36,311.48 268.00,311.63 267.67,311.78 C 267.35,311.93 267.06,312.09 266.81,312.25 C 266.57,312.41 266.45,312.59 266.19,312.75 C 265.92,312.91 265.61,313.05 265.23,313.19 C 264.86,313.32 264.43,313.45 263.95,313.56 C 263.47,313.68 262.93,313.78 262.34,313.88 C 261.75,313.97 261.11,314.05 260.41,314.12 C 259.71,314.20 258.95,314.26 258.14,314.31 C 257.33,314.36 256.47,314.41 255.55,314.44 C 254.63,314.47 253.65,314.49 252.62,314.50 Z" fill="none" stroke="currentColor" stroke-width="1.5" stroke-linejoin="round" stroke-linecap="round" filter="url(#glow)" />
</svg>