<svg xmlns="http://www.w3.org/2000/svg" width="512" height="512" viewBox="115.45 158.23 278.85 171.24" preserveAspectRatio="xMidYMid meet">
  <defs>
    <filter id="glow" x="-30%" y="-30%" width="160%" height="160%">
      <feGaussianBlur in="SourceGraphic" stdDeviation="2.4" result="blur" />
      <feMerge>
        <feMergeNode in="blur" />
        <feMergeNode in="SourceGraphic" />
      </feMerge>
    </filter>
    <clipPath id="hull-clip">
      <path d="M 323.94,315.06 C 322.37,315.03 320.58,314.99 319.06,314.94 C 317.54,314.89 316.13,314.83 314.82,314.77 C 313.51,314.71 312.31,314.64 311.21,314.57 C 310.11,314.50 309.12,314.42 308.23,314.33 C 307.35,314.24 306.57,314.15 305.89,314.05 C 305.21,313.95 304.64,313.84 304.18,313.73 C 303.71,313.61 303.36,313.49 303.10,313.37 C 302.85,313.24 302.70,313.11 302.66,312.97 C 302.61,312.83 302.80,312.68 302.84,312.53 C 302.89,312.38 302.92,312.22 302.94,312.06 C 302.95,311.90 302.95,311.73 302.94,311.56 C 302.92,311.39 302.89,311.21 302.84,311.03 C 302.80,310.85 302.73,310.66 302.66,310.47 C 302.58,310.28 302.48,310.08 302.38,309.88 C 302.27,309.67 302.14,309.46 302.00,309.25 C 301.86,309.04 301.70,308.82 301.53,308.59 C 301.36,308.37 301.24,308.15 300.97,307.91 C 300.70,307.66 300.36,307.40 299.93,307.13 C 299.50,306.86 299.00,306.57 298.41,306.27 C 297.83,305.97 297.17,305.66 296.42,305.33 C 295.68,305.00 294.86,304.65 293.95,304.30 C 293.05,303.94 292.07,303.57 291.01,303.18 C 289.95,302.79 288.81,302.39 287.59,301.98 C 286.37,301.56 285.07,301.13 283.69,300.69 C 282.31,300.24 280.72,299.74 279.31,299.31 C 277.91,298.89 276.56,298.49 275.27,298.12 C 273.97,297.76 272.73,297.43 271.55,297.12 C 270.36,296.82 269.23,296.55 268.16,296.31 C 267.08,296.07 266.06,295.86 265.09,295.69 C 264.13,295.51 263.22,295.36 262.36,295.25 C 261.50,295.14 260.70,295.05 259.95,295.00 C 259.21,294.95 258.51,294.93 257.88,294.94 C 257.24,294.95 256.96,295.10 256.12,295.06 C 255.29,295.02 254.21,294.90 252.88,294.69 C 251.54,294.48 249.96,294.19 248.12,293.81 C 246.29,293.44 244.21,292.98 241.88,292.44 C 239.54,291.90 236.96,291.27 234.12,290.56 C 231.29,289.85 228.21,289.06 224.88,288.19 C 221.54,287.31 217.96,286.35 214.12,285.31 C 210.29,284.27 206.21,283.15 201.88,281.94 C 197.54,280.73 192.42,279.28 188.12,278.06 C 183.83,276.85 179.82,275.71 176.09,274.64 C 172.37,273.58 168.93,272.59 165.78,271.67 C 162.63,270.76 159.77,269.92 157.19,269.16 C 154.61,268.39 152.32,267.71 150.31,267.09 C 148.31,266.48 146.59,265.95 145.16,265.48 C 143.72,265.02 142.58,264.64 141.72,264.33 C 140.86,264.02 140.29,263.78 140.00,263.62 C 139.71,263.47 139.97,263.45 140.00,263.38 C 140.03,263.30 140.08,263.22 140.16,263.15 C 140.25,263.08 140.36,263.01 140.49,262.95 C 140.63,262.88 140.79,262.82 140.98,262.77 C 141.18,262.71 141.39,262.66 141.64,262.61 C 141.89,262.56 142.16,262.52 142.46,262.48 C 142.76,262.44 143.09,262.40 143.45,262.37 C 143.80,262.33 144.18,262.31 144.59,262.28 C 145.00,262.26 145.51,262.25 145.91,262.22 C 146.30,262.19 146.65,262.15 146.95,262.11 C 147.26,262.07 147.52,262.01 147.73,261.95 C 147.95,261.89 148.12,261.83 148.25,261.75 C 148.38,261.67 148.46,261.59 148.50,261.50 C 148.54,261.41 148.53,261.31 148.48,261.20 C 148.43,261.10 148.34,260.98 148.20,260.86 C 148.07,260.74 147.88,260.61 147.66,260.47 C 147.43,260.33 147.12,260.17 146.84,260.03 C 146.57,259.89 146.28,259.77 145.99,259.65 C 145.70,259.53 145.40,259.42 145.10,259.32 C 144.80,259.22 144.49,259.13 144.17,259.05 C 143.86,258.96 143.53,258.89 143.20,258.83 C 142.87,258.76 142.54,258.71 142.20,258.66 C 141.85,258.62 141.50,258.58 141.15,258.55 C 140.79,258.53 140.43,258.51 140.06,258.50 C 139.69,258.49 139.29,258.51 138.94,258.50 C 138.59,258.49 138.27,258.48 137.97,258.47 C 137.67,258.45 137.40,258.43 137.16,258.41 C 136.91,258.38 136.69,258.35 136.50,258.31 C 136.31,258.28 136.14,258.23 136.00,258.19 C 135.86,258.14 135.74,258.09 135.66,258.03 C 135.57,257.97 135.51,257.91 135.47,257.84 C 135.43,257.78 135.42,257.70 135.44,257.62 C 135.45,257.55 135.49,257.45 135.56,257.38 C 135.64,257.30 135.75,257.22 135.89,257.16 C 136.03,257.09 136.21,257.03 136.42,256.97 C 136.63,256.91 136.88,256.86 137.16,256.81 C 137.43,256.77 137.75,256.72 138.09,256.69 C 138.44,256.65 138.82,256.62 139.23,256.59 C 139.65,256.57 140.10,256.55 140.58,256.53 C 141.06,256.52 141.58,256.51 142.12,256.50 C 142.67,256.49 143.32,256.50 143.88,256.50 C 144.43,256.50 144.94,256.49 145.43,256.48 C 145.92,256.46 146.37,256.45 146.79,256.43 C 147.21,256.41 147.60,256.39 147.95,256.36 C 148.31,256.33 148.63,256.30 148.92,256.27 C 149.21,256.23 149.47,256.19 149.70,256.15 C 149.92,256.11 150.11,256.06 150.27,256.01 C 150.43,255.96 150.56,255.90 150.66,255.84 C 150.75,255.79 150.84,255.73 150.84,255.66 C 150.85,255.58 150.79,255.50 150.66,255.41 C 150.54,255.32 150.36,255.23 150.12,255.12 C 149.87,255.01 149.57,254.89 149.20,254.77 C 148.84,254.64 148.41,254.50 147.92,254.36 C 147.43,254.21 146.88,254.06 146.27,253.90 C 145.66,253.74 144.99,253.56 144.26,253.38 C 143.52,253.20 142.73,253.01 141.88,252.81 C 141.02,252.61 139.98,252.42 139.12,252.19 C 138.27,251.96 137.47,251.70 136.73,251.43 C 135.99,251.15 135.30,250.86 134.68,250.54 C 134.06,250.22 133.49,249.88 132.98,249.52 C 132.48,249.15 132.03,248.77 131.64,248.36 C 131.25,247.95 130.92,247.52 130.65,247.07 C 130.38,246.62 130.16,246.14 130.01,245.65 C 129.85,245.15 129.76,244.63 129.72,244.09 C 129.68,243.55 129.71,242.94 129.78,242.41 C 129.86,241.87 129.99,241.36 130.17,240.88 C 130.36,240.39 130.60,239.93 130.89,239.50 C 131.18,239.07 131.53,238.66 131.94,238.28 C 132.34,237.90 132.80,237.55 133.31,237.22 C 133.83,236.89 134.39,236.59 135.02,236.31 C 135.64,236.04 136.32,235.79 137.05,235.56 C 137.78,235.34 138.57,235.14 139.41,234.97 C 140.25,234.80 141.26,234.67 142.09,234.53 C 142.92,234.39 143.69,234.25 144.39,234.11 C 145.09,233.97 145.73,233.84 146.30,233.70 C 146.87,233.57 147.37,233.44 147.81,233.31 C 148.25,233.18 148.63,233.06 148.94,232.94 C 149.25,232.82 149.49,232.70 149.67,232.58 C 149.85,232.46 149.97,232.35 150.02,232.23 C 150.07,232.12 150.05,232.01 149.97,231.91 C 149.89,231.80 149.70,231.69 149.53,231.59 C 149.36,231.50 149.17,231.40 148.96,231.32 C 148.75,231.24 148.51,231.16 148.26,231.09 C 148.00,231.01 147.72,230.95 147.42,230.89 C 147.12,230.83 146.80,230.78 146.45,230.73 C 146.11,230.69 145.74,230.65 145.35,230.62 C 144.96,230.58 144.55,230.56 144.12,230.54 C 143.68,230.52 143.23,230.51 142.75,230.50 C 142.27,230.49 141.72,230.51 141.25,230.50 C 140.78,230.49 140.34,230.48 139.92,230.47 C 139.51,230.45 139.12,230.43 138.77,230.41 C 138.41,230.38 138.08,230.35 137.78,230.31 C 137.48,230.28 137.21,230.23 136.97,230.19 C 136.73,230.14 136.51,230.09 136.33,230.03 C 136.14,229.97 135.99,229.91 135.86,229.84 C 135.73,229.78 135.63,229.70 135.56,229.62 C 135.49,229.55 135.45,229.45 135.44,229.38 C 135.43,229.30 135.46,229.22 135.52,229.16 C 135.58,229.09 135.67,229.03 135.80,228.97 C 135.92,228.91 136.09,228.86 136.28,228.81 C 136.48,228.77 136.71,228.72 136.97,228.69 C 137.23,228.65 137.53,228.62 137.86,228.59 C 138.19,228.57 138.55,228.55 138.95,228.53 C 139.35,228.52 139.78,228.51 140.25,228.50 C 140.72,228.49 141.27,228.51 141.75,228.50 C 142.23,228.49 142.68,228.48 143.12,228.46 C 143.55,228.44 143.96,228.42 144.35,228.38 C 144.74,228.35 145.11,228.31 145.45,228.27 C 145.80,228.22 146.12,228.17 146.42,228.11 C 146.72,228.05 147.00,227.99 147.26,227.91 C 147.51,227.84 147.75,227.76 147.96,227.68 C 148.17,227.60 148.36,227.50 148.53,227.41 C 148.70,227.31 148.83,227.20 148.97,227.09 C 149.10,226.99 149.23,226.89 149.34,226.80 C 149.46,226.70 149.56,226.61 149.66,226.52 C 149.75,226.42 149.83,226.34 149.91,226.25 C 149.98,226.16 150.04,226.08 150.09,226.00 C 150.15,225.92 150.19,225.84 150.22,225.77 C 150.25,225.69 150.27,225.62 150.28,225.55 C 150.29,225.48 150.29,225.41 150.28,225.34 C 150.27,225.28 150.26,225.21 150.22,225.16 C 150.17,225.10 150.10,225.04 150.01,224.99 C 149.91,224.94 149.79,224.89 149.65,224.85 C 149.50,224.81 149.33,224.77 149.14,224.73 C 148.95,224.70 148.73,224.67 148.48,224.64 C 148.24,224.61 147.97,224.59 147.68,224.57 C 147.39,224.55 147.07,224.54 146.73,224.52 C 146.38,224.51 146.02,224.50 145.62,224.50 C 145.23,224.50 144.76,224.51 144.38,224.50 C 143.99,224.49 143.63,224.48 143.30,224.47 C 142.97,224.45 142.66,224.43 142.39,224.41 C 142.12,224.38 141.87,224.35 141.66,224.31 C 141.44,224.28 141.25,224.23 141.09,224.19 C 140.93,224.14 140.80,224.09 140.70,224.03 C 140.60,223.97 140.53,223.91 140.48,223.84 C 140.44,223.78 140.42,223.70 140.44,223.62 C 140.45,223.55 140.31,223.51 140.56,223.38 C 140.82,223.24 141.28,223.04 141.95,222.80 C 142.63,222.55 143.51,222.25 144.61,221.89 C 145.71,221.53 147.01,221.12 148.53,220.66 C 150.05,220.19 151.78,219.67 153.72,219.09 C 155.66,218.52 157.81,217.89 160.17,217.20 C 162.53,216.52 165.11,215.78 167.89,214.98 C 170.67,214.19 173.67,213.34 176.88,212.44 C 180.08,211.53 183.85,210.48 187.12,209.56 C 190.40,208.64 193.53,207.76 196.52,206.92 C 199.50,206.08 202.35,205.28 205.05,204.52 C 207.75,203.75 210.30,203.03 212.72,202.34 C 215.13,201.66 217.40,201.01 219.53,200.41 C 221.66,199.80 223.64,199.23 225.48,198.70 C 227.33,198.17 229.02,197.68 230.58,197.23 C 232.13,196.78 233.54,196.37 234.81,196.00 C 236.08,195.63 237.10,195.31 238.19,195.00 C 239.28,194.69 240.34,194.40 241.36,194.14 C 242.38,193.88 243.37,193.64 244.33,193.42 C 245.28,193.21 246.21,193.01 247.09,192.84 C 247.98,192.67 248.84,192.53 249.66,192.41 C 250.48,192.28 251.26,192.18 252.02,192.11 C 252.77,192.03 253.49,191.98 254.17,191.95 C 254.86,191.92 255.51,191.92 256.12,191.94 C 256.74,191.96 257.24,192.05 257.88,192.06 C 258.51,192.07 259.21,192.05 259.95,192.00 C 260.70,191.95 261.50,191.86 262.36,191.75 C 263.22,191.64 264.13,191.49 265.09,191.31 C 266.06,191.14 267.08,190.93 268.16,190.69 C 269.23,190.45 270.36,190.18 271.55,189.88 C 272.73,189.57 273.97,189.24 275.27,188.88 C 276.56,188.51 277.91,188.11 279.31,187.69 C 280.72,187.26 282.31,186.76 283.69,186.31 C 285.07,185.87 286.37,185.44 287.59,185.02 C 288.81,184.61 289.95,184.21 291.01,183.82 C 292.07,183.43 293.05,183.06 293.95,182.70 C 294.86,182.35 295.68,182.00 296.42,181.67 C 297.17,181.34 297.83,181.03 298.41,180.73 C 299.00,180.43 299.50,180.14 299.93,179.87 C 300.36,179.60 300.70,179.34 300.97,179.09 C 301.24,178.85 301.36,178.63 301.53,178.41 C 301.70,178.18 301.86,177.96 302.00,177.75 C 302.14,177.54 302.27,177.33 302.38,177.12 C 302.48,176.92 302.58,176.72 302.66,176.53 C 302.73,176.34 302.80,176.15 302.84,175.97 C 302.89,175.79 302.92,175.61 302.94,175.44 C 302.95,175.27 302.95,175.10 302.94,174.94 C 302.92,174.78 302.89,174.62 302.84,174.47 C 302.80,174.32 302.57,174.17 302.66,174.03 C 302.74,173.89 302.96,173.77 303.34,173.65 C 303.71,173.53 304.22,173.42 304.88,173.32 C 305.54,173.22 306.35,173.13 307.30,173.05 C 308.25,172.96 309.34,172.89 310.58,172.83 C 311.82,172.76 313.20,172.71 314.73,172.66 C 316.25,172.62 317.93,172.58 319.74,172.55 C 321.56,172.53 323.52,172.51 325.62,172.50 C 327.73,172.49 330.27,172.49 332.38,172.50 C 334.48,172.51 336.45,172.52 338.28,172.53 C 340.11,172.55 341.80,172.57 343.34,172.59 C 344.89,172.62 346.30,172.65 347.56,172.69 C 348.83,172.72 349.95,172.77 350.94,172.81 C 351.92,172.86 352.77,172.91 353.47,172.97 C 354.17,173.03 354.73,173.09 355.16,173.16 C 355.58,173.22 355.86,173.30 356.00,173.38 C 356.14,173.45 356.04,173.54 356.00,173.62 C 355.96,173.71 355.89,173.78 355.78,173.86 C 355.67,173.93 355.53,174.01 355.34,174.08 C 355.16,174.15 354.94,174.22 354.69,174.28 C 354.43,174.35 354.14,174.41 353.81,174.47 C 353.48,174.53 353.12,174.59 352.72,174.64 C 352.32,174.70 351.88,174.75 351.41,174.80 C 350.93,174.85 350.42,174.89 349.88,174.94 C 349.33,174.98 348.67,175.02 348.12,175.06 C 347.58,175.11 347.06,175.15 346.59,175.20 C 346.11,175.24 345.67,175.29 345.26,175.34 C 344.85,175.38 344.48,175.43 344.14,175.48 C 343.80,175.54 343.50,175.59 343.23,175.64 C 342.97,175.69 342.74,175.75 342.54,175.80 C 342.34,175.86 342.18,175.92 342.05,175.98 C 341.93,176.04 341.84,176.10 341.78,176.16 C 341.73,176.22 341.68,176.23 341.72,176.34 C 341.75,176.46 341.84,176.62 341.98,176.83 C 342.13,177.04 342.33,177.30 342.58,177.61 C 342.83,177.92 343.14,178.28 343.50,178.69 C 343.86,179.10 344.28,179.55 344.75,180.06 C 345.22,180.57 345.75,181.13 346.33,181.73 C 346.91,182.34 347.54,183.00 348.23,183.70 C 348.92,184.41 349.67,185.16 350.47,185.97 C 351.27,186.77 352.22,187.72 353.03,188.53 C 353.84,189.34 354.61,190.10 355.34,190.81 C 356.07,191.53 356.76,192.19 357.41,192.81 C 358.05,193.43 358.66,194.01 359.22,194.53 C 359.78,195.06 360.30,195.54 360.78,195.97 C 361.26,196.40 361.70,196.79 362.09,197.12 C 362.49,197.46 362.84,197.76 363.16,198.00 C 363.47,198.24 363.74,198.44 363.97,198.59 C 364.20,198.74 364.36,198.80 364.53,198.91 C 364.71,199.01 364.87,199.12 365.02,199.23 C 365.18,199.33 365.32,199.44 365.45,199.55 C 365.57,199.67 365.69,199.78 365.80,199.89 C 365.90,200.00 366.00,200.12 366.08,200.23 C 366.16,200.35 366.23,200.47 366.29,200.59 C 366.35,200.70 366.39,200.82 366.43,200.95 C 366.46,201.07 366.49,201.19 366.50,201.31 C 366.51,201.44 366.49,201.56 366.50,201.69 C 366.51,201.81 366.52,201.93 366.54,202.05 C 366.56,202.18 366.58,202.30 366.62,202.41 C 366.65,202.53 366.69,202.65 366.73,202.77 C 366.78,202.88 366.83,203.00 366.89,203.11 C 366.95,203.22 367.01,203.33 367.09,203.45 C 367.16,203.56 367.24,203.67 367.32,203.77 C 367.40,203.88 367.50,203.99 367.59,204.09 C 367.69,204.20 367.78,204.29 367.91,204.41 C 368.03,204.52 368.18,204.64 368.36,204.77 C 368.53,204.89 368.73,205.03 368.95,205.17 C 369.17,205.32 369.42,205.47 369.69,205.62 C 369.96,205.78 370.25,205.95 370.56,206.12 C 370.88,206.30 371.22,206.48 371.58,206.67 C 371.94,206.86 372.33,207.06 372.73,207.27 C 373.14,207.47 373.58,207.68 374.03,207.91 C 374.49,208.13 375.02,208.37 375.47,208.59 C 375.91,208.82 376.33,209.03 376.70,209.23 C 377.08,209.44 377.42,209.64 377.73,209.83 C 378.04,210.02 378.32,210.20 378.56,210.38 C 378.80,210.55 379.01,210.72 379.19,210.88 C 379.36,211.03 379.50,211.18 379.61,211.33 C 379.72,211.47 379.79,211.61 379.83,211.73 C 379.87,211.86 379.87,211.98 379.84,212.09 C 379.82,212.21 379.74,212.31 379.66,212.41 C 379.57,212.50 379.47,212.60 379.35,212.68 C 379.23,212.76 379.09,212.84 378.93,212.91 C 378.77,212.99 378.59,213.05 378.39,213.11 C 378.19,213.17 377.97,213.22 377.73,213.27 C 377.50,213.31 377.24,213.35 376.96,213.38 C 376.68,213.42 376.39,213.44 376.07,213.46 C 375.75,213.48 375.42,213.49 375.06,213.50 C 374.71,213.51 374.30,213.49 373.94,213.50 C 373.57,213.51 373.22,213.52 372.88,213.53 C 372.53,213.55 372.20,213.57 371.88,213.59 C 371.55,213.62 371.24,213.65 370.94,213.69 C 370.64,213.72 370.34,213.77 370.06,213.81 C 369.78,213.86 369.51,213.91 369.25,213.97 C 368.99,214.03 368.74,214.09 368.50,214.16 C 368.26,214.22 368.03,214.30 367.81,214.38 C 367.59,214.45 367.39,214.54 367.19,214.62 C 366.99,214.71 366.79,214.80 366.61,214.89 C 366.42,214.98 366.25,215.08 366.08,215.17 C 365.91,215.27 365.75,215.37 365.59,215.47 C 365.44,215.57 365.29,215.67 365.16,215.78 C 365.02,215.89 364.89,216.00 364.77,216.11 C 364.64,216.22 364.53,216.34 364.42,216.45 C 364.32,216.57 364.22,216.69 364.12,216.81 C 364.03,216.93 363.99,217.06 363.88,217.19 C 363.76,217.31 363.63,217.43 363.46,217.55 C 363.30,217.68 363.10,217.80 362.88,217.91 C 362.66,218.03 362.42,218.15 362.14,218.27 C 361.87,218.38 361.56,218.50 361.23,218.61 C 360.90,218.72 360.55,218.83 360.16,218.95 C 359.78,219.06 359.37,219.17 358.93,219.27 C 358.49,219.38 358.02,219.49 357.53,219.59 C 357.04,219.70 356.46,219.80 355.97,219.91 C 355.48,220.01 355.03,220.11 354.61,220.20 C 354.19,220.30 353.80,220.39 353.45,220.48 C 353.10,220.58 352.78,220.66 352.50,220.75 C 352.22,220.84 351.97,220.92 351.75,221.00 C 351.53,221.08 351.35,221.16 351.20,221.23 C 351.05,221.31 350.94,221.38 350.86,221.45 C 350.78,221.52 350.73,221.59 350.72,221.66 C 350.71,221.72 350.71,221.77 350.78,221.84 C 350.85,221.92 350.96,222.00 351.12,222.09 C 351.27,222.18 351.48,222.27 351.73,222.38 C 351.98,222.49 352.27,222.61 352.61,222.73 C 352.95,222.86 353.33,223.00 353.77,223.14 C 354.20,223.29 354.67,223.44 355.20,223.60 C 355.72,223.76 356.29,223.94 356.90,224.12 C 357.51,224.30 358.17,224.49 358.88,224.69 C 359.58,224.89 360.42,225.10 361.12,225.31 C 361.83,225.52 362.49,225.73 363.10,225.95 C 363.71,226.16 364.28,226.37 364.80,226.59 C 365.33,226.80 365.80,227.02 366.23,227.23 C 366.67,227.45 367.05,227.67 367.39,227.89 C 367.73,228.11 368.02,228.33 368.27,228.55 C 368.52,228.78 368.73,229.00 368.88,229.23 C 369.04,229.45 369.15,229.68 369.22,229.91 C 369.29,230.13 369.26,230.37 369.28,230.59 C 369.31,230.81 369.33,231.02 369.37,231.23 C 369.40,231.43 369.44,231.62 369.48,231.80 C 369.52,231.99 369.56,232.16 369.61,232.33 C 369.66,232.49 369.71,232.65 369.77,232.80 C 369.82,232.94 369.88,233.08 369.95,233.21 C 370.01,233.34 370.08,233.46 370.15,233.57 C 370.22,233.68 370.30,233.78 370.38,233.88 C 370.45,233.97 370.55,234.04 370.62,234.12 C 370.70,234.21 370.76,234.30 370.81,234.39 C 370.86,234.48 370.91,234.58 370.94,234.67 C 370.97,234.77 370.99,234.87 371.00,234.97 C 371.01,235.07 371.01,235.17 371.00,235.28 C 370.99,235.39 370.97,235.50 370.94,235.61 C 370.91,235.72 370.86,235.84 370.81,235.95 C 370.76,236.07 370.70,236.19 370.62,236.31 C 370.55,236.43 370.45,236.54 370.38,236.69 C 370.30,236.84 370.22,237.01 370.16,237.20 C 370.09,237.40 370.03,237.62 369.97,237.86 C 369.91,238.10 369.86,238.37 369.81,238.66 C 369.77,238.95 369.72,239.26 369.69,239.59 C 369.65,239.93 369.62,240.29 369.59,240.67 C 369.57,241.05 369.55,241.46 369.53,241.89 C 369.52,242.32 369.51,242.77 369.50,243.25 C 369.49,243.73 369.49,244.28 369.50,244.75 C 369.51,245.22 369.52,245.67 369.53,246.09 C 369.55,246.52 369.57,246.91 369.59,247.28 C 369.62,247.65 369.65,247.99 369.69,248.31 C 369.72,248.63 369.77,248.92 369.81,249.19 C 369.86,249.45 369.91,249.69 369.97,249.91 C 370.03,250.12 370.09,250.31 370.16,250.47 C 370.22,250.63 370.30,250.77 370.38,250.88 C 370.45,250.98 370.55,251.04 370.62,251.12 C 370.70,251.21 370.76,251.29 370.81,251.38 C 370.86,251.46 370.91,251.54 370.94,251.62 C 370.97,251.71 370.99,251.79 371.00,251.88 C 371.01,251.96 371.01,252.04 371.00,252.12 C 370.99,252.21 370.97,252.29 370.94,252.38 C 370.91,252.46 370.86,252.54 370.81,252.62 C 370.76,252.71 370.70,252.79 370.62,252.88 C 370.55,252.96 370.45,253.03 370.38,253.12 C 370.30,253.22 370.22,253.32 370.16,253.44 C 370.09,253.55 370.03,253.68 369.97,253.81 C 369.91,253.95 369.86,254.09 369.81,254.25 C 369.77,254.41 369.72,254.57 369.69,254.75 C 369.65,254.93 369.62,255.11 369.59,255.31 C 369.57,255.51 369.55,255.72 369.53,255.94 C 369.52,256.16 369.51,256.39 369.50,256.62 C 369.49,256.86 369.55,257.12 369.50,257.38 C 369.45,257.62 369.36,257.88 369.22,258.12 C 369.08,258.38 368.89,258.62 368.66,258.88 C 368.42,259.12 368.14,259.38 367.81,259.62 C 367.48,259.88 367.11,260.12 366.69,260.38 C 366.27,260.62 365.80,260.88 365.28,261.12 C 364.77,261.38 364.20,261.62 363.59,261.88 C 362.98,262.12 362.33,262.38 361.62,262.62 C 360.92,262.88 360.05,263.13 359.38,263.38 C 358.70,263.62 358.11,263.86 357.59,264.09 C 357.07,264.32 356.62,264.54 356.26,264.76 C 355.89,264.98 355.60,265.19 355.39,265.39 C 355.18,265.60 355.04,265.79 354.98,265.98 C 354.93,266.18 354.94,266.36 355.04,266.54 C 355.13,266.72 355.31,266.89 355.55,267.05 C 355.80,267.22 356.13,267.38 356.53,267.53 C 356.93,267.68 357.50,267.82 357.97,267.97 C 358.43,268.12 358.88,268.26 359.32,268.41 C 359.76,268.56 360.18,268.71 360.59,268.87 C 360.99,269.02 361.39,269.17 361.77,269.33 C 362.14,269.48 362.51,269.64 362.86,269.80 C 363.21,269.95 363.55,270.11 363.87,270.27 C 364.19,270.43 364.50,270.60 364.79,270.76 C 365.08,270.92 365.36,271.08 365.62,271.25 C 365.89,271.42 366.11,271.59 366.38,271.75 C 366.64,271.91 366.91,272.05 367.19,272.19 C 367.47,272.32 367.76,272.45 368.06,272.56 C 368.36,272.68 368.68,272.78 369.00,272.88 C 369.32,272.97 369.66,273.05 370.00,273.12 C 370.34,273.20 370.70,273.26 371.06,273.31 C 371.43,273.36 371.80,273.41 372.19,273.44 C 372.57,273.47 372.97,273.49 373.38,273.50 C 373.78,273.51 374.23,273.50 374.62,273.50 C 375.02,273.50 375.39,273.51 375.74,273.52 C 376.09,273.54 376.42,273.55 376.73,273.57 C 377.03,273.59 377.32,273.61 377.58,273.64 C 377.84,273.67 378.08,273.70 378.30,273.73 C 378.51,273.77 378.71,273.81 378.88,273.85 C 379.06,273.89 379.21,273.94 379.34,273.99 C 379.46,274.04 379.57,274.10 379.66,274.16 C 379.74,274.21 379.79,274.28 379.84,274.34 C 379.90,274.41 379.94,274.48 379.97,274.56 C 380.00,274.64 380.02,274.72 380.03,274.81 C 380.04,274.90 380.04,274.99 380.03,275.09 C 380.02,275.19 380.00,275.30 379.97,275.41 C 379.94,275.52 379.90,275.63 379.84,275.75 C 379.79,275.87 379.73,275.99 379.66,276.12 C 379.58,276.26 379.50,276.39 379.41,276.53 C 379.31,276.67 379.22,276.82 379.09,276.97 C 378.97,277.12 378.83,277.26 378.66,277.41 C 378.50,277.56 378.32,277.71 378.12,277.87 C 377.92,278.02 377.69,278.17 377.45,278.33 C 377.21,278.48 376.95,278.64 376.67,278.80 C 376.39,278.95 376.09,279.11 375.77,279.27 C 375.45,279.43 375.12,279.60 374.76,279.76 C 374.40,279.92 374.02,280.08 373.62,280.25 C 373.23,280.42 372.77,280.58 372.38,280.75 C 371.98,280.92 371.60,281.10 371.24,281.29 C 370.88,281.48 370.55,281.67 370.23,281.87 C 369.91,282.07 369.61,282.27 369.33,282.48 C 369.05,282.70 368.79,282.92 368.55,283.14 C 368.31,283.37 368.08,283.60 367.88,283.84 C 367.68,284.07 367.50,284.32 367.34,284.57 C 367.17,284.82 367.03,285.08 366.91,285.34 C 366.78,285.61 366.70,285.90 366.59,286.16 C 366.49,286.41 366.38,286.65 366.27,286.88 C 366.15,287.10 366.04,287.31 365.92,287.50 C 365.80,287.69 365.68,287.87 365.56,288.03 C 365.44,288.19 365.32,288.34 365.19,288.47 C 365.06,288.60 364.93,288.71 364.80,288.81 C 364.66,288.91 364.53,288.99 364.39,289.06 C 364.25,289.13 364.11,289.18 363.97,289.22 C 363.83,289.26 363.72,289.21 363.53,289.28 C 363.34,289.35 363.11,289.48 362.83,289.66 C 362.55,289.83 362.23,290.06 361.86,290.34 C 361.49,290.62 361.08,290.96 360.62,291.34 C 360.17,291.73 359.67,292.17 359.12,292.66 C 358.58,293.15 357.99,293.69 357.36,294.28 C 356.73,294.88 356.05,295.52 355.33,296.22 C 354.61,296.92 353.84,297.67 353.03,298.47 C 352.22,299.27 351.27,300.23 350.47,301.03 C 349.67,301.84 348.92,302.59 348.23,303.30 C 347.54,304.00 346.91,304.66 346.33,305.27 C 345.75,305.87 345.22,306.43 344.75,306.94 C 344.28,307.45 343.86,307.90 343.50,308.31 C 343.14,308.72 342.83,309.08 342.58,309.39 C 342.33,309.70 342.13,309.96 341.98,310.17 C 341.84,310.38 341.75,310.54 341.72,310.66 C 341.68,310.77 341.76,310.79 341.78,310.84 C 341.80,310.90 341.83,310.95 341.85,310.99 C 341.88,311.04 341.90,311.07 341.93,311.10 C 341.96,311.13 341.99,311.15 342.02,311.17 C 342.05,311.19 342.08,311.20 342.11,311.20 C 342.14,311.21 342.18,311.20 342.21,311.20 C 342.25,311.19 342.28,311.17 342.32,311.15 C 342.36,311.13 342.40,311.10 342.44,311.06 C 342.48,311.03 342.51,310.97 342.56,310.94 C 342.62,310.91 342.69,310.89 342.78,310.88 C 342.87,310.86 342.97,310.86 343.09,310.88 C 343.21,310.89 343.35,310.91 343.50,310.94 C 343.65,310.97 343.82,311.01 344.00,311.06 C 344.18,311.11 344.38,311.18 344.59,311.25 C 344.81,311.32 345.04,311.41 345.28,311.50 C 345.53,311.59 345.79,311.70 346.06,311.81 C 346.34,311.93 346.65,312.07 346.94,312.19 C 347.23,312.30 347.51,312.41 347.80,312.50 C 348.08,312.59 348.36,312.68 348.64,312.75 C 348.92,312.82 349.20,312.89 349.47,312.94 C 349.74,312.99 350.01,313.03 350.28,313.06 C 350.55,313.09 350.82,313.11 351.08,313.12 C 351.34,313.14 351.60,313.14 351.86,313.12 C 352.12,313.11 352.37,313.09 352.62,313.06 C 352.88,313.03 353.14,312.97 353.38,312.94 C 353.61,312.90 353.83,312.87 354.04,312.85 C 354.25,312.83 354.44,312.81 354.62,312.80 C 354.80,312.80 354.96,312.79 355.11,312.80 C 355.26,312.80 355.39,312.81 355.52,312.83 C 355.64,312.85 355.74,312.87 355.84,312.90 C 355.93,312.93 356.01,312.96 356.07,313.01 C 356.13,313.05 356.18,313.10 356.22,313.16 C 356.25,313.21 356.30,313.28 356.28,313.34 C 356.26,313.41 356.20,313.47 356.09,313.53 C 355.99,313.59 355.84,313.66 355.66,313.72 C 355.47,313.78 355.24,313.84 354.97,313.91 C 354.70,313.97 354.39,314.03 354.03,314.09 C 353.68,314.16 353.28,314.22 352.84,314.28 C 352.41,314.34 351.93,314.41 351.41,314.47 C 350.89,314.53 350.32,314.59 349.72,314.66 C 349.11,314.72 348.49,314.79 347.78,314.84 C 347.07,314.90 346.31,314.95 345.48,314.99 C 344.65,315.04 343.76,315.07 342.80,315.10 C 341.85,315.13 340.84,315.15 339.77,315.17 C 338.69,315.19 337.56,315.20 336.36,315.20 C 335.16,315.21 333.90,315.20 332.59,315.20 C 331.27,315.19 329.89,315.17 328.45,315.15 C 327.00,315.13 325.50,315.10 323.94,315.06 Z" />
    </clipPath>
  </defs>
  <path d="M 323.94,315.06 C 322.37,315.03 320.58,314.99 319.06,314.94 C 317.54,314.89 316.13,314.83 314.82,314.77 C 313.51,314.71 312.31,314.64 311.21,314.57 C 310.11,314.50 309.12,314.42 308.23,314.33 C 307.35,314.24 306.57,314.15 305.89,314.05 C 305.21,313.95 304.64,313.84 304.18,313.73 C 303.71,313.61 303.36,313.49 303.10,313.37 C 302.85,313.24 302.70,313.11 302.66,312.97 C 302.61,312.83 302.80,312.68 302.84,312.53 C 302.89,312.38 302.92,312.22 302.94,312.06 C 302.95,311.90 302.95,311.73 302.94,311.56 C 302.92,311.39 302.89,311.21 302.84,311.03 C 302.80,310.85 302.73,310.66 302.66,310.47 C 302.58,310.28 302.48,310.08 302.38,309.88 C 302.27,309.67 302.14,309.46 302.00,309.25 C 301.86,309.04 301.70,308.82 301.53,308.59 C 301.36,308.37 301.24,308.15 300.97,307.91 C 300.70,307.66 300.36,307.40 299.93,307.13 C 299.50,306.86 299.00,306.57 298.41,306.27 C 297.83,305.97 297.17,305.66 296.42,305.33 C 295.68,305.00 294.86,304.65 293.95,304.30 C 293.05,303.94 292.07,303.57 291.01,303.18 C 289.95,302.79 288.81,302.39 287.59,301.98 C 286.37,301.56 285.07,301.13 283.69,300.69 C 282.31,300.24 280.72,299.74 279.31,299.31 C 277.91,298.89 276.56,298.49 275.27,298.12 C 273.97,297.76 272.73,297.43 271.55,297.12 C 270.36,296.82 269.23,296.55 268.16,296.31 C 267.08,296.07 266.06,295.86 265.09,295.69 C 264.13,295.51 263.22,295.36 262.36,295.25 C 261.50,295.14 260.70,295.05 259.95,295.00 C 259.21,294.95 258.51,294.93 257.88,294.94 C 257.24,294.95 256.96,295.10 256.12,295.06 C 255.29,295.02 254.21,294.90 252.88,294.69 C 251.54,294.48 249.96,294.19 248.12,293.81 C 246.29,293.44 244.21,292.98 241.88,292.44 C 239.54,291.90 236.96,291.27 234.12,290.56 C 231.29,289.85 228.21,289.06 224.88,288.19 C 221.54,287.31 217.96,286.35 214.12,285.31 C 210.29,284.27 206.21,283.15 201.88,281.94 C 197.54,280.73 192.42,279.28 188.12,278.06 C 183.83,276.85 179.82,275.71 176.09,274.64 C 172.37,273.58 168.93,272.59 165.78,271.67 C 162.63,270.76 159.77,269.92 157.19,269.16 C 154.61,268.39 152.32,267.71 150.31,267.09 C 148.31,266.48 146.59,265.95 145.16,265.48 C 143.72,265.02 142.58,264.64 141.72,264.33 C 140.86,264.02 140.29,263.78 140.00,263.62 C 139.71,263.47 139.97,263.45 140.00,263.38 C 140.03,263.30 140.08,263.22 140.16,263.15 C 140.25,263.08 140.36,263.01 140.49,262.95 C 140.63,262.88 140.79,262.82 140.98,262.77 C 141.18,262.71 141.39,262.66 141.64,262.61 C 141.89,262.56 142.16,262.52 142.46,262.48 C 142.76,262.44 143.09,262.40 143.45,262.37 C 143.80,262.33 144.18,262.31 144.59,262.28 C 145.00,262.26 145.51,262.25 145.91,262.22 C 146.30,262.19 146.65,262.15 146.95,262.11 C 147.26,262.07 147.52,262.01 147.73,261.95 C 147.95,261.89 148.12,261.83 148.25,261.75 C 148.38,261.67 148.46,261.59 148.50,261.50 C 148.54,261.41 148.53,261.31 148.48,261.20 C 148.43,261.10 148.34,260.98 148.20,260.86 C 148.07,260.74 147.88,260.61 147.66,260.47 C 147.43,260.33 147.12,260.17 146.84,260.03 C 146.57,259.89 146.28,259.77 145.99,259.65 C 145.70,259.53 145.40,259.42 145.10,259.32 C 144.80,259.22 144.49,259.13 144.17,259.05 C 143.86,258.96 143.53,258.89 143.20,258.83 C 142.87,258.76 142.54,258.71 142.20,258.66 C 141.85,258.62 141.50,258.58 141.15,258.55 C 140.79,258.53 140.43,258.51 140.06,258.50 C 139.69,258.49 139.29,258.51 138.94,258.50 C 138.59,258.49 138.27,258.48 137.97,258.47 C 137.67,258.45 137.40,258.43 137.16,258.41 C 136.91,258.38 136.69,258.35 136.50,258.31 C 136.31,258.28 136.14,258.23 136.00,258.19 C 135.86,258.14 135.74,258.09 135.66,258.03 C 135.57,257.97 135.51,257.91 135.47,257.84 C 135.43,257.78 135.42,257.70 135.44,257.62 C 135.45,257.55 135.49,257.45 135.56,257.38 C 135.64,257.30 135.75,257.22 135.89,257.16 C 136.03,257.09 136.21,257.03 136.42,256.97 C 136.63,256.91 136.88,256.86 137.16,256.81 C 137.43,256.77 137.75,256.72 138.09,256.69 C 138.44,256.65 138.82,256.62 139.23,256.59 C 139.65,256.57 140.10,256.55 140.58,256.53 C 141.06,256.52 141.58,256.51 142.12,256.50 C 142.67,256.49 143.32,256.50 143.88,256.50 C 144.43,256.50 144.94,256.49 145.43,256.48 C 145.92,256.46 146.37,256.45 146.79,256.43 C 147.21,256.41 147.60,256.39 147.95,256.36 C 148.31,256.33 148.63,256.30 148.92,256.27 C 149.21,256.23 149.47,256.19 149.70,256.15 C 149.92,256.11 150.11,256.06 150.27,256.01 C 150.43,255.96 150.56,255.90 150.66,255.84 C 150.75,255.79 150.84,255.73 150.84,255.66 C 150.85,255.58 150.79,255.50 150.66,255.41 C 150.54,255.32 150.36,255.23 150.12,255.12 C 149.87,255.01 149.57,254.89 149.20,254.77 C 148.84,254.64 148.41,254.50 147.92,254.36 C 147.43,254.21 146.88,254.06 146.27,253.90 C 145.66,253.74 144.99,253.56 144.26,253.38 C 143.52,253.20 142.73,253.01 141.88,252.81 C 141.02,252.61 139.98,252.42 139.12,252.19 C 138.27,251.96 137.47,251.70 136.73,251.43 C 135.99,251.15 135.30,250.86 134.68,250.54 C 134.06,250.22 133.49,249.88 132.98,249.52 C 132.48,249.15 132.03,248.77 131.64,248.36 C 131.25,247.95 130.92,247.52 130.65,247.07 C 130.38,246.62 130.16,246.14 130.01,245.65 C 129.85,245.15 129.76,244.63 129.72,244.09 C 129.68,243.55 129.71,242.94 129.78,242.41 C 129.86,241.87 129.99,241.36 130.17,240.88 C 130.36,240.39 130.60,239.93 130.89,239.50 C 131.18,239.07 131.53,238.66 131.94,238.28 C 132.34,237.90 132.80,237.55 133.31,237.22 C 133.83,236.89 134.39,236.59 135.02,236.31 C 135.64,236.04 136.32,235.79 137.05,235.56 C 137.78,235.34 138.57,235.14 139.41,234.97 C 140.25,234.80 141.26,234.67 142.09,234.53 C 142.92,234.39 143.69,234.25 144.39,234.11 C 145.09,233.97 145.73,233.84 146.30,233.70 C 146.87,233.57 147.37,233.44 147.81,233.31 C 148.25,233.18 148.63,233.06 148.94,232.94 C 149.25,232.82 149.49,232.70 149.67,232.58 C 149.85,232.46 149.97,232.35 150.02,232.23 C 150.07,232.12 150.05,232.01 149.97,231.91 C 149.89,231.80 149.70,231.69 149.53,231.59 C 149.36,231.50 149.17,231.40 148.96,231.32 C 148.75,231.24 148.51,231.16 148.26,231.09 C 148.00,231.01 147.72,230.95 147.42,230.89 C 147.12,230.83 146.80,230.78 146.45,230.73 C 146.11,230.69 145.74,230.65 145.35,230.62 C 144.96,230.58 144.55,230.56 144.12,230.54 C 143.68,230.52 143.23,230.51 142.75,230.50 C 142.27,230.49 141.72,230.51 141.25,230.50 C 140.78,230.49 140.34,230.48 139.92,230.47 C 139.51,230.45 139.12,230.43 138.77,230.41 C 138.41,230.38 138.08,230.35 137.78,230.31 C 137.48,230.28 137.21,230.23 136.97,230.19 C 136.73,230.14 136.51,230.09 136.33,230.03 C 136.14,229.97 135.99,229.91 135.86,229.84 C 135.73,229.78 135.63,229.70 135.56,229.62 C 135.49,229.55 135.45,229.45 135.44,229.38 C 135.43,229.30 135.46,229.22 135.52,229.16 C 135.58,229.09 135.67,229.03 135.80,228.97 C 135.92,228.91 136.09,228.86 136.28,228.81 C 136.48,228.77 136.71,228.72 136.97,228.69 C 137.23,228.65 137.53,228.62 137.86,228.59 C 138.19,228.57 138.55,228.55 138.95,228.53 C 139.35,228.52 139.78,228.51 140.25,228.50 C 140.72,228.49 141.27,228.51 141.75,228.50 C 142.23,228.49 142.68,228.48 143.12,228.46 C 143.55,228.44 143.96,228.42 144.35,228.38 C 144.74,228.35 145.11,228.31 145.45,228.27 C 145.80,228.22 146.12,228.17 146.42,228.11 C 146.72,228.05 147.00,227.99 147.26,227.91 C 147.51,227.84 147.75,227.76 147.96,227.68 C 148.17,227.60 148.36,227.50 148.53,227.41 C 148.70,227.31 148.83,227.20 148.97,227.09 C 149.10,226.99 149.23,226.89 149.34,226.80 C 149.46,226.70 149.56,226.61 149.66,226.52 C 149.75,226.42 149.83,226.34 149.91,226.25 C 149.98,226.16 150.04,226.08 150.09,226.00 C 150.15,225.92 150.19,225.84 150.22,225.77 C 150.25,225.69 150.27,225.62 150.28,225.55 C 150.29,225.48 150.29,225.41 150.28,225.34 C 150.27,225.28 150.26,225.21 150.22,225.16 C 150.17,225.10 150.10,225.04 150.01,224.99 C 149.91,224.94 149.79,224.89 149.65,224.85 C 149.50,224.81 149.33,224.77 149.14,224.73 C 148.95,224.70 148.73,224.67 148.48,224.64 C 148.24,224.61 147.97,224.59 147.68,224.57 C 147.39,224.55 147.07,224.54 146.73,224.52 C 146.38,224.51 146.02,224.50 145.62,224.50 C 145.23,224.50 144.76,224.51 144.38,224.50 C 143.99,224.49 143.63,224.48 143.30,224.47 C 142.97,224.45 142.66,224.43 142.39,224.41 C 142.12,224.38 141.87,224.35 141.66,224.31 C 141.44,224.28 141.25,224.23 141.09,224.19 C 140.93,224.14 140.80,224.09 140.70,224.03 C 140.60,223.97 140.53,223.91 140.48,223.84 C 140.44,223.78 140.42,223.70 140.44,223.62 C 140.45,223.55 140.31,223.51 140.56,223.38 C 140.82,223.24 141.28,223.04 141.95,222.80 C 142.63,222.55 143.51,222.25 144.61,221.89 C 145.71,221.53 147.01,221.12 148.53,220.66 C 150.05,220.19 151.78,219.67 153.72,219.09 C 155.66,218.52 157.81,217.89 160.17,217.20 C 162.53,216.52 165.11,215.78 167.89,214.98 C 170.67,214.19 173.67,213.34 176.88,212.44 C 180.08,211.53 183.85,210.48 187.12,209.56 C 190.40,208.64 193.53,207.76 196.52,206.92 C 199.50,206.08 202.35,205.28 205.05,204.52 C 207.75,203.75 210.30,203.03 212.72,202.34 C 215.13,201.66 217.40,201.01 219.53,200.41 C 221.66,199.80 223.64,199.23 225.48,198.70 C 227.33,198.17 229.02,197.68 230.58,197.23 C 232.13,196.78 233.54,196.37 234.81,196.00 C 236.08,195.63 237.10,195.31 238.19,195.00 C 239.28,194.69 240.34,194.40 241.36,194.14 C 242.38,193.88 243.37,193.64 244.33,193.42 C 245.28,193.21 246.21,193.01 247.09,192.84 C 247.98,192.67 248.84,192.53 249.66,192.41 C 250.48,192.28 251.26,192.18 252.02,192.11 C 252.77,192.03 253.49,191.98 254.17,191.95 C 254.86,191.92 255.51,191.92 256.12,191.94 C 256.74,191.96 257.24,192.05 257.88,192.06 C 258.51,192.07 259.21,192.05 259.95,192.00 C 260.70,191.95 261.50,191.86 262.36,191.75 C 263.22,191.64 264.13,191.49 265.09,191.31 C 266.06,191.14 267.08,190.93 268.16,190.69 C 269.23,190.45 270.36,190.18 271.55,189.88 C 272.73,189.57 273.97,189.24 275.27,188.88 C 276.56,188.51 277.91,188.11 279.31,187.69 C 280.72,187.26 282.31,186.76 283.69,186.31 C 285.07,185.87 286.37,185.44 287.59,185.02 C 288.81,184.61 289.95,184.21 291.01,183.82 C 292.07,183.43 293.05,183.06 293.95,182.70 C 294.86,182.35 295.68,182.00 296.42,181.67 C 297.17,181.34 297.83,181.03 298.41,180.73 C 299.00,180.43 299.50,180.14 299.93,179.87 C 300.36,179.60 300.70,179.34 300.97,179.09 C 301.24,178.85 301.36,178.63 301.53,178.41 C 301.70,178.18 301.86,177.96 302.00,177.75 C 302.14,177.54 302.27,177.33 302.38,177.12 C 302.48,176.92 302.58,176.72 302.66,176.53 C 302.73,176.34 302.80,176.15 302.84,175.97 C 302.89,175.79 302.92,175.61 302.94,175.44 C 302.95,175.27 302.95,175.10 302.94,174.94 C 302.92,174.78 302.89,174.62 302.84,174.47 C 302.80,174.32 302.57,174.17 302.66,174.03 C 302.74,173.89 302.96,173.77 303.34,173.65 C 303.71,173.53 304.22,173.42 304.88,173.32 C 305.54,173.22 306.35,173.13 307.30,173.05 C 308.25,172.96 309.34,172.89 310.58,172.83 C 311.82,172.76 313.20,172.71 314.73,172.66 C 316.25,172.62 317.93,172.58 319.74,172.55 C 321.56,172.53 323.52,172.51 325.62,172.50 C 327.73,172.49 330.27,172.49 332.38,172.50 C 334.48,172.51 336.45,172.52 338.28,172.53 C 340.11,172.55 341.80,172.57 343.34,172.59 C 344.89,172.62 346.30,172.65 347.56,172.69 C 348.83,172.72 349.95,172.77 350.94,172.81 C 351.92,172.86 352.77,172.91 353.47,172.97 C 354.17,173.03 354.73,173.09 355.16,173.16 C 355.58,173.22 355.86,173.30 356.00,173.38 C 356.14,173.45 356.04,173.54 356.00,173.62 C 355.96,173.71 355.89,173.78 355.78,173.86 C 355.67,173.93 355.53,174.01 355.34,174.08 C 355.16,174.15 354.94,174.22 354.69,174.28 C 354.43,174.35 354.14,174.41 353.81,174.47 C 353.48,174.53 353.12,174.59 352.72,174.64 C 352.32,174.70 351.88,174.75 351.41,174.80 C 350.93,174.85 350.42,174.89 349.88,174.94 C 349.33,174.98 348.67,175.02 348.12,175.06 C 347.58,175.11 347.06,175.15 346.59,175.20 C 346.11,175.24 345.67,175.29 345.26,175.34 C 344.85,175.38 344.48,175.43 344.14,175.48 C 343.80,175.54 343.50,175.59 343.23,175.64 C 342.97,175.69 342.74,175.75 342.54,175.80 C 342.34,175.86 342.18,175.92 342.05,175.98 C 341.93,176.04 341.84,176.10 341.78,176.16 C 341.73,176.22 341.68,176.23 341.72,176.34 C 341.75,176.46 341.84,176.62 341.98,176.83 C 342.13,177.04 342.33,177.30 342.58,177.61 C 342.83,177.92 343.14,178.28 343.50,178.69 C 343.86,179.10 344.28,179.55 344.75,180.06 C 345.22,180.57 345.75,181.13 346.33,181.73 C 346.91,182.34 347.54,183.00 348.23,183.70 C 348.92,184.41 349.67,185.16 350.47,185.97 C 351.27,186.77 352.22,187.72 353.03,188.53 C 353.84,189.34 354.61,190.10 355.34,190.81 C 356.07,191.53 356.76,192.19 357.41,192.81 C 358.05,193.43 358.66,194.01 359.22,194.53 C 359.78,195.06 360.30,195.54 360.78,195.97 C 361.26,196.40 361.70,196.79 362.09,197.12 C 362.49,197.46 362.84,197.76 363.16,198.00 C 363.47,198.24 363.74,198.44 363.97,198.59 C 364.20,198.74 364.36,198.80 364.53,198.91 C 364.71,199.01 364.87,199.12 365.02,199.23 C 365.18,199.33 365.32,199.44 365.45,199.55 C 365.57,199.67 365.69,199.78 365.80,199.89 C 365.90,200.00 366.00,200.12 366.08,200.23 C 366.16,200.35 366.23,200.47 366.29,200.59 C 366.35,200.70 366.39,200.82 366.43,200.95 C 366.46,201.07 366.49,201.19 366.50,201.31 C 366.51,201.44 366.49,201.56 366.50,201.69 C 366.51,201.81 366.52,201.93 366.54,202.05 C 366.56,202.18 366.58,202.30 366.62,202.41 C 366.65,202.53 366.69,202.65 366.73,202.77 C 366.78,202.88 366.83,203.00 366.89,203.11 C 366.95,203.22 367.01,203.33 367.09,203.45 C 367.16,203.56 367.24,203.67 367.32,203.77 C 367.40,203.88 367.50,203.99 367.59,204.09 C 367.69,204.20 367.78,204.29 367.91,204.41 C 368.03,204.52 368.18,204.64 368.36,204.77 C 368.53,204.89 368.73,205.03 368.95,205.17 C 369.17,205.32 369.42,205.47 369.69,205.62 C 369.96,205.78 370.25,205.95 370.56,206.12 C 370.88,206.30 371.22,206.48 371.58,206.67 C 371.94,206.86 372.33,207.06 372.73,207.27 C 373.14,207.47 373.58,207.68 374.03,207.91 C 374.49,208.13 375.02,208.37 375.47,208.59 C 375.91,208.82 376.33,209.03 376.70,209.23 C 377.08,209.44 377.42,209.64 377.73,209.83 C 378.04,210.02 378.32,210.20 378.56,210.38 C 378.80,210.55 379.01,210.72 379.19,210.88 C 379.36,211.03 379.50,211.18 379.61,211.33 C 379.72,211.47 379.79,211.61 379.83,211.73 C 379.87,211.86 379.87,211.98 379.84,212.09 C 379.82,212.21 379.74,212.31 379.66,212.41 C 379.57,212.50 379.47,212.60 379.35,212.68 C 379.23,212.76 379.09,212.84 378.93,212.91 C 378.77,212.99 378.59,213.05 378.39,213.11 C 378.19,213.17 377.97,213.22 377.73,213.27 C 377.50,213.31 377.24,213.35 376.96,213.38 C 376.68,213.42 376.39,213.44 376.07,213.46 C 375.75,213.48 375.42,213.49 375.06,213.50 C 374.71,213.51 374.30,213.49 373.94,213.50 C 373.57,213.51 373.22,213.52 372.88,213.53 C 372.53,213.55 372.20,213.57 371.88,213.59 C 371.55,213.62 371.24,213.65 370.94,213.69 C 370.64,213.72 370.34,213.77 370.06,213.81 C 369.78,213.86 369.51,213.91 369.25,213.97 C 368.99,214.03 368.74,214.09 368.50,214.16 C 368.26,214.22 368.03,214.30 367.81,214.38 C 367.59,214.45 367.39,214.54 367.19,214.62 C 366.99,214.71 366.79,214.80 366.61,214.89 C 366.42,214.98 366.25,215.08 366.08,215.17 C 365.91,215.27 365.75,215.37 365.59,215.47 C 365.44,215.57 365.29,215.67 365.16,215.78 C 365.02,215.89 364.89,216.00 364.77,216.11 C 364.64,216.22 364.53,216.34 364.42,216.45 C 364.32,216.57 364.22,216.69 364.12,216.81 C 364.03,216.93 363.99,217.06 363.88,217.19 C 363.76,217.31 363.63,217.43 363.46,217.55 C 363.30,217.68 363.10,217.80 362.88,217.91 C 362.66,218.03 362.42,218.15 362.14,218.27 C 361.87,218.38 361.56,218.50 361.23,218.61 C 360.90,218.72 360.55,218.83 360.16,218.95 C 359.78,219.06 359.37,219.17 358.93,219.27 C 358.49,219.38 358.02,219.49 357.53,219.59 C 357.04,219.70 356.46,219.80 355.97,219.91 C 355.48,220.01 355.03,220.11 354.61,220.20 C 354.19,220.30 353.80,220.39 353.45,220.48 C 353.10,220.58 352.78,220.66 352.50,220.75 C 352.22,220.84 351.97,220.92 351.75,221.00 C 351.53,221.08 351.35,221.16 351.20,221.23 C 351.05,221.31 350.94,221.38 350.86,221.45 C 350.78,221.52 350.73,221.59 350.72,221.66 C 350.71,221.72 350.71,221.77 350.78,221.84 C 350.85,221.92 350.96,222.00 351.12,222.09 C 351.27,222.18 351.48,222.27 351.73,222.38 C 351.98,222.49 352.27,222.61 352.61,222.73 C 352.95,222.86 353.33,223.00 353.77,223.14 C 354.20,223.29 354.67,223.44 355.20,223.60 C 355.72,223.76 356.29,223.94 356.90,224.12 C 357.51,224.30 358.17,224.49 358.88,224.69 C 359.58,224.89 360.42,225.10 361.12,225.31 C 361.83,225.52 362.49,225.73 363.10,225.95 C 363.71,226.16 364.28,226.37 364.80,226.59 C 365.33,226.80 365.80,227.02 366.23,227.23 C 366.67,227.45 367.05,227.67 367.39,227.89 C 367.73,228.11 368.02,228.33 368.27,228.55 C 368.52,228.78 368.73,229.00 368.88,229.23 C 369.04,229.45 369.15,229.68 369.22,229.91 C 369.29,230.13 369.26,230.37 369.28,230.59 C 369.31,230.81 369.33,231.02 369.37,231.23 C 369.40,231.43 369.44,231.62 369.48,231.80 C 369.52,231.99 369.56,232.16 369.61,232.33 C 369.66,232.49 369.71,232.65 369.77,232.80 C 369.82,232.94 369.88,233.08 369.95,233.21 C 370.01,233.34 370.08,233.46 370.15,233.57 C 370.22,233.68 370.30,233.78 370.38,233.88 C 370.45,233.97 370.55,234.04 370.62,234.12 C 370.70,234.21 370.76,234.30 370.81,234.39 C 370.86,234.48 370.91,234.58 370.94,234.67 C 370.97,234.77 370.99,234.87 371.00,234.97 C 371.01,235.07 371.01,235.17 371.00,235.28 C 370.99,235.39 370.97,235.50 370.94,235.61 C 370.91,235.72 370.86,235.84 370.81,235.95 C 370.76,236.07 370.70,236.19 370.62,236.31 C 370.55,236.43 370.45,236.54 370.38,236.69 C 370.30,236.84 370.22,237.01 370.16,237.20 C 370.09,237.40 370.03,237.62 369.97,237.86 C 369.91,238.10 369.86,238.37 369.81,238.66 C 369.77,238.95 369.72,239.26 369.69,239.59 C 369.65,239.93 369.62,240.29 369.59,240.67 C 369.57,241.05 369.55,241.46 369.53,241.89 C 369.52,242.32 369.51,242.77 369.50,243.25 C 369.49,243.73 369.49,244.28 369.50,244.75 C 369.51,245.22 369.52,245.67 369.53,246.09 C 369.55,246.52 369.57,246.91 369.59,247.28 C 369.62,247.65 369.65,247.99 369.69,248.31 C 369.72,248.63 369.77,248.92 369.81,249.19 C 369.86,249.45 369.91,249.69 369.97,249.91 C 370.03,250.12 370.09,250.31 370.16,250.47 C 370.22,250.63 370.30,250.77 370.38,250.88 C 370.45,250.98 370.55,251.04 370.62,251.12 C 370.70,251.21 370.76,251.29 370.81,251.38 C 370.86,251.46 370.91,251.54 370.94,251.62 C 370.97,251.71 370.99,251.79 371.00,251.88 C 371.01,251.96 371.01,252.04 371.00,252.12 C 370.99,252.21 370.97,252.29 370.94,252.38 C 370.91,252.46 370.86,252.54 370.81,252.62 C 370.76,252.71 370.70,252.79 370.62,252.88 C 370.55,252.96 370.45,253.03 370.38,253.12 C 370.30,253.22 370.22,253.32 370.16,253.44 C 370.09,253.55 370.03,253.68 369.97,253.81 C 369.91,253.95 369.86,254.09 369.81,254.25 C 369.77,254.41 369.72,254.57 369.69,254.75 C 369.65,254.93 369.62,255.11 369.59,255.31 C 369.57,255.51 369.55,255.72 369.53,255.94 C 369.52,256.16 369.51,256.39 369.50,256.62 C 369.49,256.86 369.55,257.12 369.50,257.38 C 369.45,257.62 369.36,257.88 369.22,258.12 C 369.08,258.38 368.89,258.62 368.66,258.88 C 368.42,259.12 368.14,259.38 367.81,259.62 C 367.48,259.88 367.11,260.12 366.69,260.38 C 366.27,260.62 365.80,260.88 365.28,261.12 C 364.77,261.38 364.20,261.62 363.59,261.88 C 362.98,262.12 362.33,262.38 361.62,262.62 C 360.92,262.88 360.05,263.13 359.38,263.38 C 358.70,263.62 358.11,263.86 357.59,264.09 C 357.07,264.32 356.62,264.54 356.26,264.76 C 355.89,264.98 355.60,265.19 355.39,265.39 C 355.18,265.60 355.04,265.79 354.98,265.98 C 354.93,266.18 354.94,266.36 355.04,266.54 C 355.13,266.72 355.31,266.89 355.55,267.05 C 355.80,267.22 356.13,267.38 356.53,267.53 C 356.93,267.68 357.50,267.82 357.97,267.97 C 358.43,268.12 358.88,268.26 359.32,268.41 C 359.76,268.56 360.18,268.71 360.59,268.87 C 360.99,269.02 361.39,269.17 361.77,269.33 C 362.14,269.48 362.51,269.64 362.86,269.80 C 363.21,269.95 363.55,270.11 363.87,270.27 C 364.19,270.43 364.50,270.60 364.79,270.76 C 365.08,270.92 365.36,271.08 365.62,271.25 C 365.89,271.42 366.11,271.59 366.38,271.75 C 366.64,271.91 366.91,272.05 367.19,272.19 C 367.47,272.32 367.76,272.45 368.06,272.56 C 368.36,272.68 368.68,272.78 369.00,272.88 C 369.32,272.97 369.66,273.05 370.00,273.12 C 370.34,273.20 370.70,273.26 371.06,273.31 C 371.43,273.36 371.80,273.41 372.19,273.44 C 372.57,273.47 372.97,273.49 373.38,273.50 C 373.78,273.51 374.23,273.50 374.62,273.50 C 375.02,273.50 375.39,273.51 375.74,273.52 C 376.09,273.54 376.42,273.55 376.73,273.57 C 377.03,273.59 377.32,273.61 377.58,273.64 C 377.84,273.67 378.08,273.70 378.30,273.73 C 378.51,273.77 378.71,273.81 378.88,273.85 C 379.06,273.89 379.21,273.94 379.34,273.99 C 379.46,274.04 379.57,274.10 379.66,274.16 C 379.74,274.21 379.79,274.28 379.84,274.34 C 379.90,274.41 379.94,274.48 379.97,274.56 C 380.00,274.64 380.02,274.72 380.03,274.81 C 380.04,274.90 380.04,274.99 380.03,275.09 C 380.02,275.19 380.00,275.30 379.97,275.41 C 379.94,275.52 379.90,275.63 379.84,275.75 C 379.79,275.87 379.73,275.99 379.66,276.12 C 379.58,276.26 379.50,276.39 379.41,276.53 C 379.31,276.67 379.22,276.82 379.09,276.97 C 378.97,277.12 378.83,277.26 378.66,277.41 C 378.50,277.56 378.32,277.71 378.12,277.87 C 377.92,278.02 377.69,278.17 377.45,278.33 C 377.21,278.48 376.95,278.64 376.67,278.80 C 376.39,278.95 376.09,279.11 375.77,279.27 C 375.45,279.43 375.12,279.60 374.76,279.76 C 374.40,279.92 374.02,280.08 373.62,280.25 C 373.23,280.42 372.77,280.58 372.38,280.75 C 371.98,280.92 371.60,281.10 371.24,281.29 C 370.88,281.48 370.55,281.67 370.23,281.87 C 369.91,282.07 369.61,282.27 369.33,282.48 C 369.05,282.70 368.79,282.92 368.55,283.14 C 368.31,283.37 368.08,283.60 367.88,283.84 C 367.68,284.07 367.50,284.32 367.34,284.57 C 367.17,284.82 367.03,285.08 366.91,285.34 C 366.78,285.61 366.70,285.90 366.59,286.16 C 366.49,286.41 366.38,286.65 366.27,286.88 C 366.15,287.10 366.04,287.31 365.92,287.50 C 365.80,287.69 365.68,287.87 365.56,288.03 C 365.44,288.19 365.32,288.34 365.19,288.47 C 365.06,288.60 364.93,288.71 364.80,288.81 C 364.66,288.91 364.53,288.99 364.39,289.06 C 364.25,289.13 364.11,289.18 363.97,289.22 C 363.83,289.26 363.72,289.21 363.53,289.28 C 363.34,289.35 363.11,289.48 362.83,289.66 C 362.55,289.83 362.23,290.06 361.86,290.34 C 361.49,290.62 361.08,290.96 360.62,291.34 C 360.17,291.73 359.67,292.17 359.12,292.66 C 358.58,293.15 357.99,293.69 357.36,294.28 C 356.73,294.88 356.05,295.52 355.33,296.22 C 354.61,296.92 353.84,297.67 353.03,298.47 C 352.22,299.27 351.27,300.23 350.47,301.03 C 349.67,301.84 348.92,302.59 348.23,303.30 C 347.54,304.00 346.91,304.66 346.33,305.27 C 345.75,305.87 345.22,306.43 344.75,306.94 C 344.28,307.45 343.86,307.90 343.50,308.31 C 343.14,308.72 342.83,309.08 342.58,309.39 C 342.33,309.70 342.13,309.96 341.98,310.17 C 341.84,310.38 341.75,310.54 341.72,310.66 C 341.68,310.77 341.76,310.79 341.78,310.84 C 341.80,310.90 341.83,310.95 341.85,310.99 C 341.88,311.04 341.90,311.07 341.93,311.10 C 341.96,311.13 341.99,311.15 342.02,311.17 C 342.05,311.19 342.08,311.20 342.11,311.20 C 342.14,311.21 342.18,311.20 342.21,311.20 C 342.25,311.19 342.28,311.17 342.32,311.15 C 342.36,311.13 342.40,311.10 342.44,311.06 C 342.48,311.03 342.51,310.97 342.56,310.94 C 342.62,310.91 342.69,310.89 342.78,310.88 C 342.87,310.86 342.97,310.86 343.09,310.88 C 343.21,310.89 343.35,310.91 343.50,310.94 C 343.65,310.97 343.82,311.01 344.00,311.06 C 344.18,311.11 344.38,311.18 344.59,311.25 C 344.81,311.32 345.04,311.41 345.28,311.50 C 345.53,311.59 345.79,311.70 346.06,311.81 C 346.34,311.93 346.65,312.07 346.94,312.19 C 347.23,312.30 347.51,312.41 347.80,312.50 C 348.08,312.59 348.36,312.68 348.64,312.75 C 348.92,312.82 349.20,312.89 349.47,312.94 C 349.74,312.99 350.01,313.03 350.28,313.06 C 350.55,313.09 350.82,313.11 351.08,313.12 C 351.34,313.14 351.60,313.14 351.86,313.12 C 352.12,313.11 352.37,313.09 352.62,313.06 C 352.88,313.03 353.14,312.97 353.38,312.94 C 353.61,312.90 353.83,312.87 354.04,312.85 C 354.25,312.83 354.44,312.81 354.62,312.80 C 354.80,312.80 354.96,312.79 355.11,312.80 C 355.26,312.80 355.39,312.81 355.52,312.83 C 355.64,312.85 355.74,312.87 355.84,312.90 C 355.93,312.93 356.01,312.96 356.07,313.01 C 356.13,313.05 356.18,313.10 356.22,313.16 C 356.25,313.21 356.30,313.28 356.28,313.34 C 356.26,313.41 356.20,313.47 356.09,313.53 C 355.99,313.59 355.84,313.66 355.66,313.72 C 355.47,313.78 355.24,313.84 354.97,313.91 C 354.70,313.97 354.39,314.03 354.03,314.09 C 353.68,314.16 353.28,314.22 352.84,314.28 C 352.41,314.34 351.93,314.41 351.41,314.47 C 350.89,314.53 350.32,314.59 349.72,314.66 C 349.11,314.72 348.49,314.79 347.78,314.84 C 347.07,314.90 346.31,314.95 345.48,314.99 C 344.65,315.04 343.76,315.07 342.80,315.10 C 341.85,315.13 340.84,315.15 339.77,315.17 C 338.69,315.19 337.56,315.20 336.36,315.20 C 335.16,315.21 333.90,315.20 332.59,315.20 C 331.27,315.19 329.89,315.17 328.45,315.15 C 327.00,315.13 325.50,315.10 323.94,315.06 Z" stroke="none" fill="currentColor" opacity="0.11" />
  <path d="M229.03,227.69L232.00,227.69 M229.37,227.71L232.32,227.69 M228.97,224.92L231.94,224.92 M229.05,224.95L232.02,224.95 M229.28,224.90L232.26,224.92 M232.34,224.95L229.37,224.95 M232.32,224.92L229.35,224.92 M229.29,224.92L232.26,224.92 M211.38,256.23L217.89,256.23 M192.71,256.80L192.63,256.73 M224.41,256.23L230.92,256.23 M199.22,256.80L199.15,256.73 M205.74,256.80L205.67,256.73 M184.49,235.15L177.98,235.09 M184.49,235.15L177.91,235.08 M177.98,235.09L184.26,235.17 M221.01,225.87L221.12,232.53 M195.61,239.25L195.61,247.11 M195.27,247.11L195.27,239.25 M195.61,252.08L195.61,249.48 M195.55,252.01L195.55,249.42 M195.34,249.42L195.34,252.01 M195.28,249.48L195.28,252.08 M202.13,239.25L202.13,247.11 M201.79,247.11L201.79,239.25 M202.13,252.08L202.13,249.48 M202.06,252.01L202.06,249.42 M201.86,249.42L201.86,252.01 M201.79,249.48L201.79,252.08 M208.64,239.25L208.64,247.11 M208.30,247.11L208.30,239.25 M208.64,252.08L208.64,249.48 M208.57,252.01L208.57,249.42 M208.37,249.42L208.37,252.01 M208.30,249.48L208.30,252.08 M223.59,255.13L231.64,255.14 M190.38,238.59L191.42,240.11 M185.30,236.11L177.24,236.11 M186.45,232.44L186.45,232.36 M186.20,232.44L186.20,232.36 M184.42,249.97L177.06,250.02 M185.20,238.21L177.08,238.21 M177.08,238.21L185.42,238.30 M273.21,227.87L273.21,234.59 M273.21,227.87L273.21,234.59 M270.73,227.87L270.73,234.59 M270.73,227.87L270.73,234.59 M270.77,234.59L270.77,227.87 M273.21,227.87L273.21,221.15 M273.21,227.87L273.21,221.15 M270.73,221.15L270.73,227.87 M270.73,227.87L270.73,221.15 M270.77,221.15L270.77,227.87 M254.42,236.25L254.37,238.05 M287.75,255.69L298.21,255.83 M315.39,232.59L304.94,232.44 M315.39,255.69L304.94,255.83 M287.75,232.59L298.21,232.44 M326.91,224.95L326.94,221.82 M319.50,268.14L312.91,268.15 M319.50,268.14L305.20,268.15 M312.91,268.15L305.20,268.15 M322.33,265.99L322.30,269.04 M317.42,266.71L310.10,266.83 M341.53,259.41L351.83,259.57 M335.54,227.56L335.49,227.59 M334.54,237.58L334.57,244.14 M293.59,235.33L293.60,254.30 M293.60,254.30L293.55,233.98 M301.07,257.26L307.92,257.23 M307.92,257.21L314.78,257.14 M322.73,226.37L304.77,226.37 M304.77,261.91L322.73,261.91 M302.58,267.99L302.61,263.59 M300.55,266.46L300.58,263.32 M300.55,221.82L300.58,224.95 M302.58,220.28L302.61,224.68 M286.67,217.56L279.72,217.50 M286.71,217.80L279.47,217.72 M286.71,270.48L299.32,270.56 M297.78,274.52L297.81,271.44 M296.58,271.41L282.20,271.40 M284.80,239.30L284.80,248.97 M277.23,240.79L277.18,247.49 M282.06,240.18L282.06,248.10 M237.77,255.07L245.37,255.08 M236.08,228.98L245.56,228.96 M231.37,229.73L229.70,229.73 M234.22,230.22L247.45,230.22 M247.45,230.20L234.22,230.20 M233.95,222.87L247.85,222.87 M234.39,230.20L247.19,230.20 M248.14,229.18L233.51,229.06 M248.10,229.18L233.50,229.06 M268.29,219.61L268.29,216.88 M256.37,219.61L256.37,216.88 M264.73,219.63L264.67,217.76 M274.77,220.37L274.77,235.00 M263.53,269.20L263.53,270.42 M269.85,263.28L269.85,256.80 M269.90,256.43L269.90,263.54 M271.26,271.92L271.26,271.92 M278.08,237.06L277.19,238.46 M278.43,219.82L278.60,227.75 M278.85,269.89L277.99,271.43 M271.84,270.65L272.06,253.65 M272.24,253.64L272.09,266.44 M271.02,235.13L271.44,235.10 M269.16,235.69L269.26,235.66 M253.74,244.14L253.68,237.68 M277.04,244.14L277.10,252.23 M277.25,236.26L277.10,244.14 M331.34,263.63L288.01,263.70 M369.15,251.15L369.16,259.23 M331.34,224.65L288.01,224.58 M369.15,237.13L369.16,229.04 M367.51,204.86L379.98,210.17 M345.00,203.47L337.92,203.30 M367.51,283.41L379.98,278.10 M345.00,284.81L337.92,284.98 M270.89,229.53L261.11,229.64 M270.89,229.53L260.24,229.72 M270.89,258.75L260.24,258.56 M270.89,258.75L261.11,258.64 M256.19,274.93L244.16,271.64 M284.64,283.38L284.81,273.68 M362.40,251.16L354.33,251.16 M342.31,229.41L342.88,229.35 M366.43,229.31L359.14,228.63 M352.99,228.00L333.37,226.14 M333.37,226.14L349.97,227.76 M333.37,226.14L343.75,227.11 M333.37,262.13L343.75,261.16 M333.37,262.13L349.97,260.52 M333.37,262.13L352.99,260.28 M366.43,258.96L359.14,259.65 M367.70,255.21L351.83,255.23 M293.31,265.16L303.38,265.30 M293.31,223.12L303.38,222.98 M349.23,275.12L354.42,275.05 M354.42,213.16L349.23,213.09 M307.79,295.50L301.34,287.00 M314.62,314.84L333.30,314.46 M310.65,313.50L327.15,313.50 M327.15,313.64L310.65,313.63 M310.65,313.91L327.15,313.91 M302.05,313.90L309.00,313.94 M309.00,313.94L315.96,313.98 M310.65,174.81L327.15,174.80 M310.65,174.94L327.15,174.94 M310.65,174.53L327.15,174.53 M302.05,174.56L309.00,174.56 M309.00,174.56L315.96,174.56 M314.62,173.63L333.30,174.00 M369.40,213.71L378.59,213.82 M339.96,176.89L350.84,187.06 M322.08,176.20L333.39,176.21 M329.05,183.70L329.04,175.31 M335.49,196.89L356.02,196.91 M354.72,196.86L330.81,197.13 M350.77,187.38L360.83,196.82 M306.85,201.83L328.33,201.93 M262.74,194.23L252.61,205.25 M252.55,205.32L261.12,194.22 M369.40,274.57L378.59,274.45 M339.96,311.38L350.84,301.22 M329.05,304.58L329.04,312.97 M335.49,291.38L356.02,291.36 M329.64,291.30L355.38,291.35 M354.72,291.41L330.81,291.32 M350.77,300.89L360.83,291.46 M306.85,286.45L328.33,286.35 M262.74,294.04L252.61,283.03 M299.88,297.21L252.53,282.97 M252.55,282.96L261.12,294.05 M333.33,174.36L322.23,174.42 M308.51,203.39L333.58,202.84 M348.90,219.96L333.11,220.54 M348.90,219.96L332.88,220.53 M372.52,208.05L365.39,204.79 M336.67,204.10L352.68,216.83 M353.44,216.56L336.67,203.68 M353.72,219.64L368.25,213.08 M337.78,203.07L353.43,202.99 M378.97,214.13L369.60,214.05 M367.42,204.92L373.60,207.77 M352.07,203.16L364.13,208.32 M372.69,208.13L361.25,202.94 M308.51,285.07L333.58,285.44 M372.52,280.23L365.39,283.49 M353.34,271.92L336.67,284.60 M337.78,285.21L353.43,285.28 M378.97,274.15L369.60,274.22 M367.42,283.35L373.60,280.50 M352.07,285.11L364.13,279.96 M353.68,268.78L367.47,275.08 M361.25,285.34L372.69,280.14 M258.30,234.90L269.73,234.88 M259.27,234.54L269.73,234.88 M259.27,234.54L269.71,234.98 M258.30,253.37L269.77,253.41 M369.27,260.03L333.79,270.76 M339.83,220.43L362.92,218.28 M339.83,267.85L362.92,269.99 M244.07,216.71L256.75,212.62 M259.26,206.44L242.86,210.94 M240.72,216.44L237.84,209.60 M237.84,209.60L240.26,215.49 M338.18,299.81L316.21,299.56 M338.18,188.47L316.21,188.72 M308.51,311.01L303.37,301.42 M332.50,302.06L328.13,310.63 M308.51,177.27L303.37,186.86 M332.50,186.22L328.13,177.65 M252.53,205.30L299.88,191.07 M322.23,313.86L333.33,313.92 M333.58,188.14L337.44,176.26 M337.39,176.20L350.22,188.07 M333.58,300.13L337.44,312.02 M356.43,216.81L367.38,213.04 M237.48,209.67L240.93,217.41 M337.40,312.09L350.22,300.20 M368.11,212.43L356.99,212.43 M356.99,275.85L368.11,275.85 M359.02,289.72L364.24,289.71 M361.53,215.10L366.83,215.11 M277.96,263.64L285.33,266.05 M278.05,224.44L285.27,222.09 M278.38,225.46L285.58,223.15 M276.94,262.10L269.51,261.88 M278.25,265.29L268.56,265.29 M269.50,226.28L277.21,226.00 M269.51,226.40L276.94,226.18 M268.57,223.00L278.25,222.99 M317.38,305.45L325.75,305.28 M276.59,263.15L269.56,262.97 M269.56,225.31L276.59,225.13 M291.52,273.52L318.41,273.52 M318.41,273.52L289.25,273.46 M316.16,288.32L295.33,288.34 M316.16,288.32L297.67,288.39 M326.64,296.76L336.84,297.06 M206.46,210.65L237.11,201.73 M163.41,245.94L171.54,245.97 M163.38,245.30L171.55,245.30 M163.41,242.33L171.54,242.31 M163.38,242.97L171.55,242.98 M165.52,254.78L166.17,261.46 M196.61,258.23L207.75,259.31 M140.15,224.91L150.13,224.89 M244.30,261.06L240.86,279.09 M244.30,227.22L240.86,209.18 M225.55,242.75L228.71,243.97 M146.88,259.25L136.83,259.23 M146.88,229.03L136.83,229.04 M192.50,214.63L206.42,210.36 M206.05,237.39L218.78,237.39 M206.03,232.12L218.76,232.12 M260.36,292.23L252.78,283.84 M174.49,252.07L167.21,251.50 M174.49,236.20L167.21,236.77 M190.29,222.45L193.69,228.35 M190.29,265.82L193.69,259.93 M236.19,291.34L192.42,278.99 M192.41,279.01L249.63,295.06 M148.66,224.59L164.93,219.84 M148.66,263.69L164.93,268.44 M235.01,197.73L250.90,193.18 M253.05,192.85L245.37,194.65 M253.06,192.81L261.81,193.74 M231.64,202.99L235.01,197.73 M235.01,290.55L250.90,295.10 M253.05,295.42L245.37,293.63 M253.04,295.35L261.80,294.56 M231.64,285.29L235.01,290.55 M164.03,252.94L135.72,250.39 M164.03,235.34L135.72,237.89 M192.57,231.95L174.51,232.55 M245.71,262.79L238.31,262.07 M245.71,225.48L238.31,226.20 M134.76,250.07L165.35,251.76 M165.35,236.51L134.76,238.20 M230.73,244.14L237.66,244.14 M237.66,244.14L230.73,244.14 M237.70,244.14L230.69,244.14 M237.70,244.14L230.69,244.14 M185.77,268.78L168.39,262.67 M185.77,219.49L168.39,225.60 M251.78,263.45L193.85,258.38 M241.44,242.26L251.95,242.22 M169.77,247.36L169.86,240.58 M184.06,241.60L184.06,248.21 M185.69,241.59L185.69,248.21 M180.81,248.21L180.81,241.60 M182.44,241.60L182.44,248.21" stroke="currentColor" stroke-width="0.6" stroke-linecap="round" fill="none" opacity="0.55" clip-path="url(#hull-clip)" filter="url(#glow)" />
  <path d="M 323.94,315.06 C 322.37,315.03 320.58,314.99 319.06,314.94 C 317.54,314.89 316.13,314.83 314.82,314.77 C 313.51,314.71 312.31,314.64 311.21,314.57 C 310.11,314.50 309.12,314.42 308.23,314.33 C 307.35,314.24 306.57,314.15 305.89,314.05 C 305.21,313.95 304.64,313.84 304.18,313.73 C 303.71,313.61 303.36,313.49 303.10,313.37 C 302.85,313.24 302.70,313.11 302.66,312.97 C 302.61,312.83 302.80,312.68 302.84,312.53 C 302.89,312.38 302.92,312.22 302.94,312.06 C 302.95,311.90 302.95,311.73 302.94,311.56 C 302.92,311.39 302.89,311.21 302.84,311.03 C 302.80,310.85 302.73,310.66 302.66,310.47 C 302.58,310.28 302.48,310.08 302.38,309.88 C 302.27,309.67 302.14,309.46 302.00,309.25 C 301.86,309.04 301.70,308.82 301.53,308.59 C 301.36,308.37 301.24,308.15 300.97,307.91 C 300.70,307.66 300.36,307.40 299.93,307.13 C 299.50,306.86 299.00,306.57 298.41,306.27 C 297.83,305.97 297.17,305.66 296.42,305.33 C 295.68,305.00 294.86,304.65 293.95,304.30 C 293.05,303.94 292.07,303.57 291.01,303.18 C 289.95,302.79 288.81,302.39 287.59,301.98 C 286.37,301.56 285.07,301.13 283.69,300.69 C 282.31,300.24 280.72,299.74 279.31,299.31 C 277.91,298.89 276.56,298.49 275.27,298.12 C 273.97,297.76 272.73,297.43 271.55,297.12 C 270.36,296.82 269.23,296.55 268.16,296.31 C 267.08,296.07 266.06,295.86 265.09,295.69 C 264.13,295.51 263.22,295.36 262.36,295.25 C 261.50,295.14 260.70,295.05 259.95,295.00 C 259.21,294.95 258.51,294.93 257.88,294.94 C 257.24,294.95 256.96,295.10 256.12,295.06 C 255.29,295.02 254.21,294.90 252.88,294.69 C 251.54,294.48 249.96,294.19 248.12,293.81 C 246.29,293.44 244.21,292.98 241.88,292.44 C 239.54,291.90 236.96,291.27 234.12,290.56 C 231.29,289.85 228.21,289.06 224.88,288.19 C 221.54,287.31 217.96,286.35 214.12,285.31 C 210.29,284.27 206.21,283.15 201.88,281.94 C 197.54,280.73 192.42,279.28 188.12,278.06 C 183.83,276.85 179.82,275.71 176.09,274.64 C 172.37,273.58 168.93,272.59 165.78,271.67 C 162.63,270.76 159.77,269.92 157.19,269.16 C 154.61,268.39 152.32,267.71 150.31,267.09 C 148.31,266.48 146.59,265.95 145.16,265.48 C 143.72,265.02 142.58,264.64 141.72,264.33 C 140.86,264.02 140.29,263.78 140.00,263.62 C 139.71,263.47 139.97,263.45 140.00,263.38 C 140.03,263.30 140.08,263.22 140.16,263.15 C 140.25,263.08 140.36,263.01 140.49,262.95 C 140.63,262.88 140.79,262.82 140.98,262.77 C 141.18,262.71 141.39,262.66 141.64,262.61 C 141.89,262.56 142.16,262.52 142.46,262.48 C 142.76,262.44 143.09,262.40 143.45,262.37 C 143.80,262.33 144.18,262.31 144.59,262.28 C 145.00,262.26 145.51,262.25 145.91,262.22 C 146.30,262.19 146.65,262.15 146.95,262.11 C 147.26,262.07 147.52,262.01 147.73,261.95 C 147.95,261.89 148.12,261.83 148.25,261.75 C 148.38,261.67 148.46,261.59 148.50,261.50 C 148.54,261.41 148.53,261.31 148.48,261.20 C 148.43,261.10 148.34,260.98 148.20,260.86 C 148.07,260.74 147.88,260.61 147.66,260.47 C 147.43,260.33 147.12,260.17 146.84,260.03 C 146.57,259.89 146.28,259.77 145.99,259.65 C 145.70,259.53 145.40,259.42 145.10,259.32 C 144.80,259.22 144.49,259.13 144.17,259.05 C 143.86,258.96 143.53,258.89 143.20,258.83 C 142.87,258.76 142.54,258.71 142.20,258.66 C 141.85,258.62 141.50,258.58 141.15,258.55 C 140.79,258.53 140.43,258.51 140.06,258.50 C 139.69,258.49 139.29,258.51 138.94,258.50 C 138.59,258.49 138.27,258.48 137.97,258.47 C 137.67,258.45 137.40,258.43 137.16,258.41 C 136.91,258.38 136.69,258.35 136.50,258.31 C 136.31,258.28 136.14,258.23 136.00,258.19 C 135.86,258.14 135.74,258.09 135.66,258.03 C 135.57,257.97 135.51,257.91 135.47,257.84 C 135.43,257.78 135.42,257.70 135.44,257.62 C 135.45,257.55 135.49,257.45 135.56,257.38 C 135.64,257.30 135.75,257.22 135.89,257.16 C 136.03,257.09 136.21,257.03 136.42,256.97 C 136.63,256.91 136.88,256.86 137.16,256.81 C 137.43,256.77 137.75,256.72 138.09,256.69 C 138.44,256.65 138.82,256.62 139.23,256.59 C 139.65,256.57 140.10,256.55 140.58,256.53 C 141.06,256.52 141.58,256.51 142.12,256.50 C 142.67,256.49 143.32,256.50 143.88,256.50 C 144.43,256.50 144.94,256.49 145.43,256.48 C 145.92,256.46 146.37,256.45 146.79,256.43 C 147.21,256.41 147.60,256.39 147.95,256.36 C 148.31,256.33 148.63,256.30 148.92,256.27 C 149.21,256.23 149.47,256.19 149.70,256.15 C 149.92,256.11 150.11,256.06 150.27,256.01 C 150.43,255.96 150.56,255.90 150.66,255.84 C 150.75,255.79 150.84,255.73 150.84,255.66 C 150.85,255.58 150.79,255.50 150.66,255.41 C 150.54,255.32 150.36,255.23 150.12,255.12 C 149.87,255.01 149.57,254.89 149.20,254.77 C 148.84,254.64 148.41,254.50 147.92,254.36 C 147.43,254.21 146.88,254.06 146.27,253.90 C 145.66,253.74 144.99,253.56 144.26,253.38 C 143.52,253.20 142.73,253.01 141.88,252.81 C 141.02,252.61 139.98,252.42 139.12,252.19 C 138.27,251.96 137.47,251.70 136.73,251.43 C 135.99,251.15 135.30,250.86 134.68,250.54 C 134.06,250.22 133.49,249.88 132.98,249.52 C 132.48,249.15 132.03,248.77 131.64,248.36 C 131.25,247.95 130.92,247.52 130.65,247.07 C 130.38,246.62 130.16,246.14 130.01,245.65 C 129.85,245.15 129.76,244.63 129.72,244.09 C 129.68,243.55 129.71,242.94 129.78,242.41 C 129.86,241.87 129.99,241.36 130.17,240.88 C 130.36,240.39 130.60,239.93 130.89,239.50 C 131.18,239.07 131.53,238.66 131.94,238.28 C 132.34,237.90 132.80,237.55 133.31,237.22 C 133.83,236.89 134.39,236.59 135.02,236.31 C 135.64,236.04 136.32,235.79 137.05,235.56 C 137.78,235.34 138.57,235.14 139.41,234.97 C 140.25,234.80 141.26,234.67 142.09,234.53 C 142.92,234.39 143.69,234.25 144.39,234.11 C 145.09,233.97 145.73,233.84 146.30,233.70 C 146.87,233.57 147.37,233.44 147.81,233.31 C 148.25,233.18 148.63,233.06 148.94,232.94 C 149.25,232.82 149.49,232.70 149.67,232.58 C 149.85,232.46 149.97,232.35 150.02,232.23 C 150.07,232.12 150.05,232.01 149.97,231.91 C 149.89,231.80 149.70,231.69 149.53,231.59 C 149.36,231.50 149.17,231.40 148.96,231.32 C 148.75,231.24 148.51,231.16 148.26,231.09 C 148.00,231.01 147.72,230.95 147.42,230.89 C 147.12,230.83 146.80,230.78 146.45,230.73 C 146.11,230.69 145.74,230.65 145.35,230.62 C 144.96,230.58 144.55,230.56 144.12,230.54 C 143.68,230.52 143.23,230.51 142.75,230.50 C 142.27,230.49 141.72,230.51 141.25,230.50 C 140.78,230.49 140.34,230.48 139.92,230.47 C 139.51,230.45 139.12,230.43 138.77,230.41 C 138.41,230.38 138.08,230.35 137.78,230.31 C 137.48,230.28 137.21,230.23 136.97,230.19 C 136.73,230.14 136.51,230.09 136.33,230.03 C 136.14,229.97 135.99,229.91 135.86,229.84 C 135.73,229.78 135.63,229.70 135.56,229.62 C 135.49,229.55 135.45,229.45 135.44,229.38 C 135.43,229.30 135.46,229.22 135.52,229.16 C 135.58,229.09 135.67,229.03 135.80,228.97 C 135.92,228.91 136.09,228.86 136.28,228.81 C 136.48,228.77 136.71,228.72 136.97,228.69 C 137.23,228.65 137.53,228.62 137.86,228.59 C 138.19,228.57 138.55,228.55 138.95,228.53 C 139.35,228.52 139.78,228.51 140.25,228.50 C 140.72,228.49 141.27,228.51 141.75,228.50 C 142.23,228.49 142.68,228.48 143.12,228.46 C 143.55,228.44 143.96,228.42 144.35,228.38 C 144.74,228.35 145.11,228.31 145.45,228.27 C 145.80,228.22 146.12,228.17 146.42,228.11 C 146.72,228.05 147.00,227.99 147.26,227.91 C 147.51,227.84 147.75,227.76 147.96,227.68 C 148.17,227.60 148.36,227.50 148.53,227.41 C 148.70,227.31 148.83,227.20 148.97,227.09 C 149.10,226.99 149.23,226.89 149.34,226.80 C 149.46,226.70 149.56,226.61 149.66,226.52 C 149.75,226.42 149.83,226.34 149.91,226.25 C 149.98,226.16 150.04,226.08 150.09,226.00 C 150.15,225.92 150.19,225.84 150.22,225.77 C 150.25,225.69 150.27,225.62 150.28,225.55 C 150.29,225.48 150.29,225.41 150.28,225.34 C 150.27,225.28 150.26,225.21 150.22,225.16 C 150.17,225.10 150.10,225.04 150.01,224.99 C 149.91,224.94 149.79,224.89 149.65,224.85 C 149.50,224.81 149.33,224.77 149.14,224.73 C 148.95,224.70 148.73,224.67 148.48,224.64 C 148.24,224.61 147.97,224.59 147.68,224.57 C 147.39,224.55 147.07,224.54 146.73,224.52 C 146.38,224.51 146.02,224.50 145.62,224.50 C 145.23,224.50 144.76,224.51 144.38,224.50 C 143.99,224.49 143.63,224.48 143.30,224.47 C 142.97,224.45 142.66,224.43 142.39,224.41 C 142.12,224.38 141.87,224.35 141.66,224.31 C 141.44,224.28 141.25,224.23 141.09,224.19 C 140.93,224.14 140.80,224.09 140.70,224.03 C 140.60,223.97 140.53,223.91 140.48,223.84 C 140.44,223.78 140.42,223.70 140.44,223.62 C 140.45,223.55 140.31,223.51 140.56,223.38 C 140.82,223.24 141.28,223.04 141.95,222.80 C 142.63,222.55 143.51,222.25 144.61,221.89 C 145.71,221.53 147.01,221.12 148.53,220.66 C 150.05,220.19 151.78,219.67 153.72,219.09 C 155.66,218.52 157.81,217.89 160.17,217.20 C 162.53,216.52 165.11,215.78 167.89,214.98 C 170.67,214.19 173.67,213.34 176.88,212.44 C 180.08,211.53 183.85,210.48 187.12,209.56 C 190.40,208.64 193.53,207.76 196.52,206.92 C 199.50,206.08 202.35,205.28 205.05,204.52 C 207.75,203.75 210.30,203.03 212.72,202.34 C 215.13,201.66 217.40,201.01 219.53,200.41 C 221.66,199.80 223.64,199.23 225.48,198.70 C 227.33,198.17 229.02,197.68 230.58,197.23 C 232.13,196.78 233.54,196.37 234.81,196.00 C 236.08,195.63 237.10,195.31 238.19,195.00 C 239.28,194.69 240.34,194.40 241.36,194.14 C 242.38,193.88 243.37,193.64 244.33,193.42 C 245.28,193.21 246.21,193.01 247.09,192.84 C 247.98,192.67 248.84,192.53 249.66,192.41 C 250.48,192.28 251.26,192.18 252.02,192.11 C 252.77,192.03 253.49,191.98 254.17,191.95 C 254.86,191.92 255.51,191.92 256.12,191.94 C 256.74,191.96 257.24,192.05 257.88,192.06 C 258.51,192.07 259.21,192.05 259.95,192.00 C 260.70,191.95 261.50,191.86 262.36,191.75 C 263.22,191.64 264.13,191.49 265.09,191.31 C 266.06,191.14 267.08,190.93 268.16,190.69 C 269.23,190.45 270.36,190.18 271.55,189.88 C 272.73,189.57 273.97,189.24 275.27,188.88 C 276.56,188.51 277.91,188.11 279.31,187.69 C 280.72,187.26 282.31,186.76 283.69,186.31 C 285.07,185.87 286.37,185.44 287.59,185.02 C 288.81,184.61 289.95,184.21 291.01,183.82 C 292.07,183.43 293.05,183.06 293.95,182.70 C 294.86,182.35 295.68,182.00 296.42,181.67 C 297.17,181.34 297.83,181.03 298.41,180.73 C 299.00,180.43 299.50,180.14 299.93,179.87 C 300.36,179.60 300.70,179.34 300.97,179.09 C 301.24,178.85 301.36,178.63 301.53,178.41 C 301.70,178.18 301.86,177.96 302.00,177.75 C 302.14,177.54 302.27,177.33 302.38,177.12 C 302.48,176.92 302.58,176.72 302.66,176.53 C 302.73,176.34 302.80,176.15 302.84,175.97 C 302.89,175.79 302.92,175.61 302.94,175.44 C 302.95,175.27 302.95,175.10 302.94,174.94 C 302.92,174.78 302.89,174.62 302.84,174.47 C 302.80,174.32 302.57,174.17 302.66,174.03 C 302.74,173.89 302.96,173.77 303.34,173.65 C 303.71,173.53 304.22,173.42 304.88,173.32 C 305.54,173.22 306.35,173.13 307.30,173.05 C 308.25,172.96 309.34,172.89 310.58,172.83 C 311.82,172.76 313.20,172.71 314.73,172.66 C 316.25,172.62 317.93,172.58 319.74,172.55 C 321.56,172.53 323.52,172.51 325.62,172.50 C 327.73,172.49 330.27,172.49 332.38,172.50 C 334.48,172.51 336.45,172.52 338.28,172.53 C 340.11,172.55 341.80,172.57 343.34,172.59 C 344.89,172.62 346.30,172.65 347.56,172.69 C 348.83,172.72 349.95,172.77 350.94,172.81 C 351.92,172.86 352.77,172.91 353.47,172.97 C 354.17,173.03 354.73,173.09 355.16,173.16 C 355.58,173.22 355.86,173.30 356.00,173.38 C 356.14,173.45 356.04,173.54 356.00,173.62 C 355.96,173.71 355.89,173.78 355.78,173.86 C 355.67,173.93 355.53,174.01 355.34,174.08 C 355.16,174.15 354.94,174.22 354.69,174.28 C 354.43,174.35 354.14,174.41 353.81,174.47 C 353.48,174.53 353.12,174.59 352.72,174.64 C 352.32,174.70 351.88,174.75 351.41,174.80 C 350.93,174.85 350.42,174.89 349.88,174.94 C 349.33,174.98 348.67,175.02 348.12,175.06 C 347.58,175.11 347.06,175.15 346.59,175.20 C 346.11,175.24 345.67,175.29 345.26,175.34 C 344.85,175.38 344.48,175.43 344.14,175.48 C 343.80,175.54 343.50,175.59 343.23,175.64 C 342.97,175.69 342.74,175.75 342.54,175.80 C 342.34,175.86 342.18,175.92 342.05,175.98 C 341.93,176.04 341.84,176.10 341.78,176.16 C 341.73,176.22 341.68,176.23 341.72,176.34 C 341.75,176.46 341.84,176.62 341.98,176.83 C 342.13,177.04 342.33,177.30 342.58,177.61 C 342.83,177.92 343.14,178.28 343.50,178.69 C 343.86,179.10 344.28,179.55 344.75,180.06 C 345.22,180.57 345.75,181.13 346.33,181.73 C 346.91,182.34 347.54,183.00 348.23,183.70 C 348.92,184.41 349.67,185.16 350.47,185.97 C 351.27,186.77 352.22,187.72 353.03,188.53 C 353.84,189.34 354.61,190.10 355.34,190.81 C 356.07,191.53 356.76,192.19 357.41,192.81 C 358.05,193.43 358.66,194.01 359.22,194.53 C 359.78,195.06 360.30,195.54 360.78,195.97 C 361.26,196.40 361.70,196.79 362.09,197.12 C 362.49,197.46 362.84,197.76 363.16,198.00 C 363.47,198.24 363.74,198.44 363.97,198.59 C 364.20,198.74 364.36,198.80 364.53,198.91 C 364.71,199.01 364.87,199.12 365.02,199.23 C 365.18,199.33 365.32,199.44 365.45,199.55 C 365.57,199.67 365.69,199.78 365.80,199.89 C 365.90,200.00 366.00,200.12 366.08,200.23 C 366.16,200.35 366.23,200.47 366.29,200.59 C 366.35,200.70 366.39,200.82 366.43,200.95 C 366.46,201.07 366.49,201.19 366.50,201.31 C 366.51,201.44 366.49,201.56 366.50,201.69 C 366.51,201.81 366.52,201.93 366.54,202.05 C 366.56,202.18 366.58,202.30 366.62,202.41 C 366.65,202.53 366.69,202.65 366.73,202.77 C 366.78,202.88 366.83,203.00 366.89,203.11 C 366.95,203.22 367.01,203.33 367.09,203.45 C 367.16,203.56 367.24,203.67 367.32,203.77 C 367.40,203.88 367.50,203.99 367.59,204.09 C 367.69,204.20 367.78,204.29 367.91,204.41 C 368.03,204.52 368.18,204.64 368.36,204.77 C 368.53,204.89 368.73,205.03 368.95,205.17 C 369.17,205.32 369.42,205.47 369.69,205.62 C 369.96,205.78 370.25,205.95 370.56,206.12 C 370.88,206.30 371.22,206.48 371.58,206.67 C 371.94,206.86 372.33,207.06 372.73,207.27 C 373.14,207.47 373.58,207.68 374.03,207.91 C 374.49,208.13 375.02,208.37 375.47,208.59 C 375.91,208.82 376.33,209.03 376.70,209.23 C 377.08,209.44 377.42,209.64 377.73,209.83 C 378.04,210.02 378.32,210.20 378.56,210.38 C 378.80,210.55 379.01,210.72 379.19,210.88 C 379.36,211.03 379.50,211.18 379.61,211.33 C 379.72,211.47 379.79,211.61 379.83,211.73 C 379.87,211.86 379.87,211.98 379.84,212.09 C 379.82,212.21 379.74,212.31 379.66,212.41 C 379.57,212.50 379.47,212.60 379.35,212.68 C 379.23,212.76 379.09,212.84 378.93,212.91 C 378.77,212.99 378.59,213.05 378.39,213.11 C 378.19,213.17 377.97,213.22 377.73,213.27 C 377.50,213.31 377.24,213.35 376.96,213.38 C 376.68,213.42 376.39,213.44 376.07,213.46 C 375.75,213.48 375.42,213.49 375.06,213.50 C 374.71,213.51 374.30,213.49 373.94,213.50 C 373.57,213.51 373.22,213.52 372.88,213.53 C 372.53,213.55 372.20,213.57 371.88,213.59 C 371.55,213.62 371.24,213.65 370.94,213.69 C 370.64,213.72 370.34,213.77 370.06,213.81 C 369.78,213.86 369.51,213.91 369.25,213.97 C 368.99,214.03 368.74,214.09 368.50,214.16 C 368.26,214.22 368.03,214.30 367.81,214.38 C 367.59,214.45 367.39,214.54 367.19,214.62 C 366.99,214.71 366.79,214.80 366.61,214.89 C 366.42,214.98 366.25,215.08 366.08,215.17 C 365.91,215.27 365.75,215.37 365.59,215.47 C 365.44,215.57 365.29,215.67 365.16,215.78 C 365.02,215.89 364.89,216.00 364.77,216.11 C 364.64,216.22 364.53,216.34 364.42,216.45 C 364.32,216.57 364.22,216.69 364.12,216.81 C 364.03,216.93 363.99,217.06 363.88,217.19 C 363.76,217.31 363.63,217.43 363.46,217.55 C 363.30,217.68 363.10,217.80 362.88,217.91 C 362.66,218.03 362.42,218.15 362.14,218.27 C 361.87,218.38 361.56,218.50 361.23,218.61 C 360.90,218.72 360.55,218.83 360.16,218.95 C 359.78,219.06 359.37,219.17 358.93,219.27 C 358.49,219.38 358.02,219.49 357.53,219.59 C 357.04,219.70 356.46,219.80 355.97,219.91 C 355.48,220.01 355.03,220.11 354.61,220.20 C 354.19,220.30 353.80,220.39 353.45,220.48 C 353.10,220.58 352.78,220.66 352.50,220.75 C 352.22,220.84 351.97,220.92 351.75,221.00 C 351.53,221.08 351.35,221.16 351.20,221.23 C 351.05,221.31 350.94,221.38 350.86,221.45 C 350.78,221.52 350.73,221.59 350.72,221.66 C 350.71,221.72 350.71,221.77 350.78,221.84 C 350.85,221.92 350.96,222.00 351.12,222.09 C 351.27,222.18 351.48,222.27 351.73,222.38 C 351.98,222.49 352.27,222.61 352.61,222.73 C 352.95,222.86 353.33,223.00 353.77,223.14 C 354.20,223.29 354.67,223.44 355.20,223.60 C 355.72,223.76 356.29,223.94 356.90,224.12 C 357.51,224.30 358.17,224.49 358.88,224.69 C 359.58,224.89 360.42,225.10 361.12,225.31 C 361.83,225.52 362.49,225.73 363.10,225.95 C 363.71,226.16 364.28,226.37 364.80,226.59 C 365.33,226.80 365.80,227.02 366.23,227.23 C 366.67,227.45 367.05,227.67 367.39,227.89 C 367.73,228.11 368.02,228.33 368.27,228.55 C 368.52,228.78 368.73,229.00 368.88,229.23 C 369.04,229.45 369.15,229.68 369.22,229.91 C 369.29,230.13 369.26,230.37 369.28,230.59 C 369.31,230.81 369.33,231.02 369.37,231.23 C 369.40,231.43 369.44,231.62 369.48,231.80 C 369.52,231.99 369.56,232.16 369.61,232.33 C 369.66,232.49 369.71,232.65 369.77,232.80 C 369.82,232.94 369.88,233.08 369.95,233.21 C 370.01,233.34 370.08,233.46 370.15,233.57 C 370.22,233.68 370.30,233.78 370.38,233.88 C 370.45,233.97 370.55,234.04 370.62,234.12 C 370.70,234.21 370.76,234.30 370.81,234.39 C 370.86,234.48 370.91,234.58 370.94,234.67 C 370.97,234.77 370.99,234.87 371.00,234.97 C 371.01,235.07 371.01,235.17 371.00,235.28 C 370.99,235.39 370.97,235.50 370.94,235.61 C 370.91,235.72 370.86,235.84 370.81,235.95 C 370.76,236.07 370.70,236.19 370.62,236.31 C 370.55,236.43 370.45,236.54 370.38,236.69 C 370.30,236.84 370.22,237.01 370.16,237.20 C 370.09,237.40 370.03,237.62 369.97,237.86 C 369.91,238.10 369.86,238.37 369.81,238.66 C 369.77,238.95 369.72,239.26 369.69,239.59 C 369.65,239.93 369.62,240.29 369.59,240.67 C 369.57,241.05 369.55,241.46 369.53,241.89 C 369.52,242.32 369.51,242.77 369.50,243.25 C 369.49,243.73 369.49,244.28 369.50,244.75 C 369.51,245.22 369.52,245.67 369.53,246.09 C 369.55,246.52 369.57,246.91 369.59,247.28 C 369.62,247.65 369.65,247.99 369.69,248.31 C 369.72,248.63 369.77,248.92 369.81,249.19 C 369.86,249.45 369.91,249.69 369.97,249.91 C 370.03,250.12 370.09,250.31 370.16,250.47 C 370.22,250.63 370.30,250.77 370.38,250.88 C 370.45,250.98 370.55,251.04 370.62,251.12 C 370.70,251.21 370.76,251.29 370.81,251.38 C 370.86,251.46 370.91,251.54 370.94,251.62 C 370.97,251.71 370.99,251.79 371.00,251.88 C 371.01,251.96 371.01,252.04 371.00,252.12 C 370.99,252.21 370.97,252.29 370.94,252.38 C 370.91,252.46 370.86,252.54 370.81,252.62 C 370.76,252.71 370.70,252.79 370.62,252.88 C 370.55,252.96 370.45,253.03 370.38,253.12 C 370.30,253.22 370.22,253.32 370.16,253.44 C 370.09,253.55 370.03,253.68 369.97,253.81 C 369.91,253.95 369.86,254.09 369.81,254.25 C 369.77,254.41 369.72,254.57 369.69,254.75 C 369.65,254.93 369.62,255.11 369.59,255.31 C 369.57,255.51 369.55,255.72 369.53,255.94 C 369.52,256.16 369.51,256.39 369.50,256.62 C 369.49,256.86 369.55,257.12 369.50,257.38 C 369.45,257.62 369.36,257.88 369.22,258.12 C 369.08,258.38 368.89,258.62 368.66,258.88 C 368.42,259.12 368.14,259.38 367.81,259.62 C 367.48,259.88 367.11,260.12 366.69,260.38 C 366.27,260.62 365.80,260.88 365.28,261.12 C 364.77,261.38 364.20,261.62 363.59,261.88 C 362.98,262.12 362.33,262.38 361.62,262.62 C 360.92,262.88 360.05,263.13 359.38,263.38 C 358.70,263.62 358.11,263.86 357.59,264.09 C 357.07,264.32 356.62,264.54 356.26,264.76 C 355.89,264.98 355.60,265.19 355.39,265.39 C 355.18,265.60 355.04,265.79 354.98,265.98 C 354.93,266.18 354.94,266.36 355.04,266.54 C 355.13,266.72 355.31,266.89 355.55,267.05 C 355.80,267.22 356.13,267.38 356.53,267.53 C 356.93,267.68 357.50,267.82 357.97,267.97 C 358.43,268.12 358.88,268.26 359.32,268.41 C 359.76,268.56 360.18,268.71 360.59,268.87 C 360.99,269.02 361.39,269.17 361.77,269.33 C 362.14,269.48 362.51,269.64 362.86,269.80 C 363.21,269.95 363.55,270.11 363.87,270.27 C 364.19,270.43 364.50,270.60 364.79,270.76 C 365.08,270.92 365.36,271.08 365.62,271.25 C 365.89,271.42 366.11,271.59 366.38,271.75 C 366.64,271.91 366.91,272.05 367.19,272.19 C 367.47,272.32 367.76,272.45 368.06,272.56 C 368.36,272.68 368.68,272.78 369.00,272.88 C 369.32,272.97 369.66,273.05 370.00,273.12 C 370.34,273.20 370.70,273.26 371.06,273.31 C 371.43,273.36 371.80,273.41 372.19,273.44 C 372.57,273.47 372.97,273.49 373.38,273.50 C 373.78,273.51 374.23,273.50 374.62,273.50 C 375.02,273.50 375.39,273.51 375.74,273.52 C 376.09,273.54 376.42,273.55 376.73,273.57 C 377.03,273.59 377.32,273.61 377.58,273.64 C 377.84,273.67 378.08,273.70 378.30,273.73 C 378.51,273.77 378.71,273.81 378.88,273.85 C 379.06,273.89 379.21,273.94 379.34,273.99 C 379.46,274.04 379.57,274.10 379.66,274.16 C 379.74,274.21 379.79,274.28 379.84,274.34 C 379.90,274.41 379.94,274.48 379.97,274.56 C 380.00,274.64 380.02,274.72 380.03,274.81 C 380.04,274.90 380.04,274.99 380.03,275.09 C 380.02,275.19 380.00,275.30 379.97,275.41 C 379.94,275.52 379.90,275.63 379.84,275.75 C 379.79,275.87 379.73,275.99 379.66,276.12 C 379.58,276.26 379.50,276.39 379.41,276.53 C 379.31,276.67 379.22,276.82 379.09,276.97 C 378.97,277.12 378.83,277.26 378.66,277.41 C 378.50,277.56 378.32,277.71 378.12,277.87 C 377.92,278.02 377.69,278.17 377.45,278.33 C 377.21,278.48 376.95,278.64 376.67,278.80 C 376.39,278.95 376.09,279.11 375.77,279.27 C 375.45,279.43 375.12,279.60 374.76,279.76 C 374.40,279.92 374.02,280.08 373.62,280.25 C 373.23,280.42 372.77,280.58 372.38,280.75 C 371.98,280.92 371.60,281.10 371.24,281.29 C 370.88,281.48 370.55,281.67 370.23,281.87 C 369.91,282.07 369.61,282.27 369.33,282.48 C 369.05,282.70 368.79,282.92 368.55,283.14 C 368.31,283.37 368.08,283.60 367.88,283.84 C 367.68,284.07 367.50,284.32 367.34,284.57 C 367.17,284.82 367.03,285.08 366.91,285.34 C 366.78,285.61 366.70,285.90 366.59,286.16 C 366.49,286.41 366.38,286.65 366.27,286.88 C 366.15,287.10 366.04,287.31 365.92,287.50 C 365.80,287.69 365.68,287.87 365.56,288.03 C 365.44,288.19 365.32,288.34 365.19,288.47 C 365.06,288.60 364.93,288.71 364.80,288.81 C 364.66,288.91 364.53,288.99 364.39,289.06 C 364.25,289.13 364.11,289.18 363.97,289.22 C 363.83,289.26 363.72,289.21 363.53,289.28 C 363.34,289.35 363.11,289.48 362.83,289.66 C 362.55,289.83 362.23,290.06 361.86,290.34 C 361.49,290.62 361.08,290.96 360.62,291.34 C 360.17,291.73 359.67,292.17 359.12,292.66 C 358.58,293.15 357.99,293.69 357.36,294.28 C 356.73,294.88 356.05,295.52 355.33,296.22 C 354.61,296.92 353.84,297.67 353.03,298.47 C 352.22,299.27 351.27,300.23 350.47,301.03 C 349.67,301.84 348.92,302.59 348.23,303.30 C 347.54,304.00 346.91,304.66 346.33,305.27 C 345.75,305.87 345.22,306.43 344.75,306.94 C 344.28,307.45 343.86,307.90 343.50,308.31 C 343.14,308.72 342.83,309.08 342.58,309.39 C 342.33,309.70 342.13,309.96 341.98,310.17 C 341.84,310.38 341.75,310.54 341.72,310.66 C 341.68,310.77 341.76,310.79 341.78,310.84 C 341.80,310.90 341.83,310.95 341.85,310.99 C 341.88,311.04 341.90,311.07 341.93,311.10 C 341.96,311.13 341.99,311.15 342.02,311.17 C 342.05,311.19 342.08,311.20 342.11,311.20 C 342.14,311.21 342.18,311.20 342.21,311.20 C 342.25,311.19 342.28,311.17 342.32,311.15 C 342.36,311.13 342.40,311.10 342.44,311.06 C 342.48,311.03 342.51,310.97 342.56,310.94 C 342.62,310.91 342.69,310.89 342.78,310.88 C 342.87,310.86 342.97,310.86 343.09,310.88 C 343.21,310.89 343.35,310.91 343.50,310.94 C 343.65,310.97 343.82,311.01 344.00,311.06 C 344.18,311.11 344.38,311.18 344.59,311.25 C 344.81,311.32 345.04,311.41 345.28,311.50 C 345.53,311.59 345.79,311.70 346.06,311.81 C 346.34,311.93 346.65,312.07 346.94,312.19 C 347.23,312.30 347.51,312.41 347.80,312.50 C 348.08,312.59 348.36,312.68 348.64,312.75 C 348.92,312.82 349.20,312.89 349.47,312.94 C 349.74,312.99 350.01,313.03 350.28,313.06 C 350.55,313.09 350.82,313.11 351.08,313.12 C 351.34,313.14 351.60,313.14 351.86,313.12 C 352.12,313.11 352.37,313.09 352.62,313.06 C 352.88,313.03 353.14,312.97 353.38,312.94 C 353.61,312.90 353.83,312.87 354.04,312.85 C 354.25,312.83 354.44,312.81 354.62,312.80 C 354.80,312.80 354.96,312.79 355.11,312.80 C 355.26,312.80 355.39,312.81 355.52,312.83 C 355.64,312.85 355.74,312.87 355.84,312.90 C 355.93,312.93 356.01,312.96 356.07,313.01 C 356.13,313.05 356.18,313.10 356.22,313.16 C 356.25,313.21 356.30,313.28 356.28,313.34 C 356.26,313.41 356.20,313.47 356.09,313.53 C 355.99,313.59 355.84,313.66 355.66,313.72 C 355.47,313.78 355.24,313.84 354.97,313.91 C 354.70,313.97 354.39,314.03 354.03,314.09 C 353.68,314.16 353.28,314.22 352.84,314.28 C 352.41,314.34 351.93,314.41 351.41,314.47 C 350.89,314.53 350.32,314.59 349.72,314.66 C 349.11,314.72 348.49,314.79 347.78,314.84 C 347.07,314.90 346.31,314.95 345.48,314.99 C 344.65,315.04 343.76,315.07 342.80,315.10 C 341.85,315.13 340.84,315.15 339.77,315.17 C 338.69,315.19 337.56,315.20 336.36,315.20 C 335.16,315.21 333.90,315.20 332.59,315.20 C 331.27,315.19 329.89,315.17 328.45,315.15 C 327.00,315.13 325.50,315.10 323.94,315.06 Z" fill="none" stroke="currentColor" stroke-width="1.5" stroke-linejoin="round" stroke-linecap="round" filter="url(#glow)" />
</svg>