<svg xmlns="http://www.w3.org/2000/svg" width="512" height="512" viewBox="124.54 182.95 274.48 167.51" preserveAspectRatio="xMidYMid meet">
  <defs>
    <filter id="glow" x="-30%" y="-30%" width="160%" height="160%">
      <feGaussianBlur in="SourceGraphic" stdDeviation="2.4" result="blur" />
      <feMerge>
        <feMergeNode in="blur" />
        <feMergeNode in="SourceGraphic" />
      </feMerge>
    </filter>
    <clipPath id="hull-clip">
      <path d="M 248.50,335.62 C 248.17,335.56 247.82,335.45 247.50,335.38 C 247.18,335.30 246.89,335.24 246.61,335.19 C 246.33,335.14 246.07,335.09 245.83,335.06 C 245.59,335.03 245.36,335.01 245.16,335.00 C 244.95,334.99 244.76,334.99 244.59,335.00 C 244.42,335.01 244.27,335.03 244.14,335.06 C 244.01,335.09 243.89,335.14 243.80,335.19 C 243.70,335.24 243.62,335.30 243.56,335.38 C 243.50,335.45 243.53,335.55 243.44,335.62 C 243.35,335.70 243.21,335.78 243.03,335.84 C 242.85,335.91 242.62,335.97 242.34,336.03 C 242.07,336.09 241.74,336.14 241.38,336.19 C 241.01,336.23 240.59,336.28 240.12,336.31 C 239.66,336.35 239.15,336.38 238.59,336.41 C 238.04,336.43 237.43,336.45 236.78,336.47 C 236.13,336.48 235.43,336.49 234.69,336.50 C 233.94,336.51 233.06,336.52 232.31,336.50 C 231.56,336.48 230.85,336.45 230.18,336.40 C 229.51,336.35 228.88,336.28 228.29,336.20 C 227.70,336.11 227.15,336.01 226.64,335.89 C 226.13,335.77 225.66,335.64 225.23,335.48 C 224.81,335.33 224.42,335.16 224.07,334.98 C 223.72,334.79 223.42,334.59 223.15,334.37 C 222.88,334.15 222.65,333.91 222.47,333.66 C 222.28,333.40 222.16,333.11 222.03,332.84 C 221.90,332.58 221.79,332.32 221.70,332.06 C 221.61,331.81 221.54,331.56 221.48,331.31 C 221.43,331.07 221.39,330.83 221.38,330.59 C 221.36,330.36 221.36,330.13 221.38,329.91 C 221.39,329.68 221.43,329.46 221.48,329.25 C 221.54,329.04 221.61,328.83 221.70,328.62 C 221.79,328.42 221.90,328.22 222.03,328.03 C 222.16,327.84 222.31,327.64 222.47,327.47 C 222.63,327.30 222.80,327.14 222.98,327.01 C 223.16,326.87 223.35,326.75 223.55,326.65 C 223.76,326.55 223.98,326.46 224.20,326.39 C 224.43,326.32 224.67,326.27 224.92,326.23 C 225.17,326.20 225.44,326.18 225.71,326.18 C 225.99,326.18 226.27,326.19 226.57,326.23 C 226.87,326.26 227.18,326.31 227.50,326.38 C 227.82,326.44 228.18,326.55 228.50,326.62 C 228.82,326.70 229.12,326.76 229.40,326.82 C 229.68,326.88 229.95,326.92 230.20,326.96 C 230.44,327.00 230.68,327.03 230.89,327.05 C 231.11,327.07 231.30,327.08 231.48,327.08 C 231.67,327.08 231.83,327.07 231.98,327.05 C 232.12,327.04 232.25,327.01 232.37,326.98 C 232.48,326.94 232.58,326.90 232.66,326.84 C 232.74,326.79 232.79,326.73 232.84,326.66 C 232.89,326.58 232.93,326.50 232.96,326.41 C 232.99,326.32 233.00,326.23 233.01,326.12 C 233.01,326.01 233.00,325.89 232.98,325.77 C 232.96,325.64 232.93,325.50 232.89,325.36 C 232.85,325.21 232.79,325.06 232.73,324.90 C 232.66,324.74 232.58,324.56 232.49,324.38 C 232.40,324.20 232.30,324.01 232.19,323.81 C 232.07,323.61 231.92,323.39 231.81,323.19 C 231.70,322.98 231.61,322.78 231.52,322.59 C 231.44,322.39 231.37,322.20 231.32,322.01 C 231.27,321.82 231.23,321.63 231.20,321.45 C 231.18,321.27 231.17,321.10 231.17,320.92 C 231.18,320.75 231.19,320.58 231.23,320.41 C 231.26,320.25 231.31,320.09 231.37,319.93 C 231.43,319.77 231.50,319.62 231.59,319.47 C 231.68,319.32 231.86,319.16 231.91,319.03 C 231.95,318.90 231.93,318.80 231.85,318.71 C 231.77,318.62 231.63,318.56 231.43,318.51 C 231.23,318.46 230.96,318.43 230.64,318.42 C 230.32,318.41 229.93,318.42 229.48,318.45 C 229.04,318.48 228.53,318.53 227.96,318.60 C 227.39,318.67 226.76,318.76 226.07,318.87 C 225.38,318.98 224.63,319.10 223.81,319.25 C 223.00,319.40 222.05,319.61 221.19,319.75 C 220.32,319.89 219.47,320.01 218.62,320.11 C 217.78,320.21 216.95,320.28 216.12,320.33 C 215.30,320.38 214.49,320.40 213.69,320.41 C 212.89,320.41 212.09,320.39 211.31,320.34 C 210.53,320.30 209.76,320.23 209.00,320.14 C 208.24,320.05 207.49,319.93 206.75,319.80 C 206.01,319.66 205.28,319.50 204.56,319.31 C 203.84,319.13 203.11,318.87 202.44,318.69 C 201.76,318.51 201.11,318.36 200.50,318.23 C 199.89,318.11 199.30,318.02 198.75,317.95 C 198.20,317.89 197.68,317.85 197.19,317.84 C 196.70,317.84 196.24,317.86 195.81,317.91 C 195.39,317.96 194.99,318.03 194.62,318.14 C 194.26,318.25 193.93,318.38 193.62,318.55 C 193.32,318.71 193.05,318.90 192.81,319.12 C 192.57,319.35 192.39,319.64 192.19,319.88 C 191.99,320.11 191.79,320.33 191.61,320.53 C 191.42,320.73 191.25,320.92 191.08,321.09 C 190.91,321.27 190.75,321.42 190.59,321.56 C 190.44,321.70 190.29,321.83 190.16,321.94 C 190.02,322.05 189.89,322.14 189.77,322.22 C 189.64,322.30 189.53,322.36 189.42,322.41 C 189.32,322.45 189.22,322.48 189.12,322.50 C 189.03,322.52 188.96,322.51 188.88,322.50 C 188.79,322.49 188.69,322.46 188.59,322.42 C 188.49,322.38 188.39,322.33 188.28,322.27 C 188.17,322.20 188.06,322.12 187.94,322.03 C 187.82,321.94 187.69,321.84 187.56,321.72 C 187.43,321.60 187.30,321.47 187.16,321.33 C 187.02,321.18 186.87,321.03 186.72,320.86 C 186.57,320.69 186.41,320.51 186.25,320.31 C 186.09,320.12 185.97,319.89 185.75,319.69 C 185.53,319.49 185.25,319.30 184.92,319.12 C 184.59,318.95 184.21,318.78 183.77,318.62 C 183.33,318.47 182.83,318.32 182.28,318.19 C 181.73,318.05 181.13,317.93 180.47,317.81 C 179.81,317.70 179.10,317.59 178.33,317.50 C 177.56,317.41 176.74,317.32 175.86,317.25 C 174.98,317.18 174.05,317.11 173.06,317.06 C 172.08,317.01 170.95,316.98 169.94,316.94 C 168.92,316.89 167.94,316.84 166.98,316.78 C 166.03,316.72 165.10,316.66 164.20,316.59 C 163.30,316.53 162.43,316.45 161.59,316.38 C 160.75,316.30 159.94,316.21 159.16,316.12 C 158.37,316.04 157.62,315.94 156.89,315.84 C 156.16,315.74 155.47,315.64 154.80,315.53 C 154.13,315.42 153.49,315.31 152.88,315.19 C 152.26,315.07 151.69,314.95 151.12,314.81 C 150.56,314.68 150.02,314.53 149.49,314.37 C 148.97,314.21 148.46,314.04 147.98,313.85 C 147.49,313.67 147.02,313.47 146.58,313.27 C 146.13,313.06 145.70,312.84 145.30,312.61 C 144.89,312.38 144.50,312.14 144.13,311.88 C 143.76,311.63 143.42,311.36 143.09,311.09 C 142.76,310.81 142.45,310.52 142.16,310.22 C 141.87,309.92 141.60,309.78 141.34,309.28 C 141.09,308.78 140.85,308.09 140.63,307.21 C 140.41,306.33 140.21,305.26 140.02,304.01 C 139.84,302.75 139.67,301.31 139.52,299.67 C 139.36,298.04 139.23,296.21 139.11,294.20 C 138.99,292.19 138.89,289.99 138.80,287.60 C 138.72,285.21 138.65,282.63 138.60,279.87 C 138.55,277.10 138.52,274.14 138.50,271.00 C 138.48,267.86 138.48,264.15 138.50,261.00 C 138.52,257.85 138.57,254.89 138.63,252.12 C 138.70,249.34 138.79,246.75 138.90,244.35 C 139.01,241.95 139.14,239.73 139.30,237.70 C 139.45,235.67 139.63,233.83 139.83,232.17 C 140.03,230.51 140.25,229.04 140.49,227.76 C 140.74,226.47 141.00,225.37 141.29,224.46 C 141.58,223.55 141.89,222.82 142.22,222.28 C 142.55,221.74 142.85,221.56 143.28,221.22 C 143.71,220.88 144.21,220.55 144.79,220.24 C 145.37,219.93 146.02,219.63 146.74,219.35 C 147.47,219.07 148.27,218.80 149.14,218.55 C 150.01,218.29 150.96,218.05 151.98,217.83 C 153.01,217.60 154.10,217.39 155.27,217.20 C 156.44,217.00 157.69,216.82 159.01,216.65 C 160.33,216.48 161.72,216.33 163.19,216.19 C 164.65,216.05 166.36,215.94 167.81,215.81 C 169.27,215.68 170.64,215.55 171.92,215.41 C 173.21,215.27 174.40,215.12 175.52,214.97 C 176.63,214.82 177.65,214.66 178.59,214.50 C 179.53,214.34 180.39,214.17 181.16,214.00 C 181.92,213.83 182.61,213.65 183.20,213.47 C 183.80,213.29 184.31,213.10 184.73,212.91 C 185.16,212.71 185.50,212.52 185.75,212.31 C 186.00,212.11 186.07,211.87 186.25,211.69 C 186.43,211.51 186.62,211.36 186.83,211.23 C 187.03,211.11 187.25,211.02 187.48,210.95 C 187.72,210.89 187.96,210.85 188.22,210.84 C 188.48,210.84 188.75,210.86 189.03,210.91 C 189.32,210.96 189.61,211.03 189.92,211.14 C 190.23,211.25 190.55,211.38 190.89,211.55 C 191.23,211.71 191.58,211.90 191.94,212.12 C 192.30,212.35 192.67,212.65 193.06,212.88 C 193.45,213.10 193.86,213.29 194.28,213.45 C 194.70,213.62 195.14,213.75 195.59,213.86 C 196.05,213.97 196.52,214.04 197.00,214.09 C 197.48,214.14 197.98,214.16 198.50,214.16 C 199.02,214.15 199.55,214.11 200.09,214.05 C 200.64,213.98 201.20,213.89 201.78,213.77 C 202.36,213.64 202.95,213.49 203.56,213.31 C 204.17,213.13 204.83,212.88 205.44,212.69 C 206.04,212.49 206.62,212.31 207.19,212.14 C 207.75,211.97 208.29,211.82 208.81,211.67 C 209.33,211.53 209.83,211.40 210.31,211.28 C 210.79,211.16 211.25,211.06 211.69,210.97 C 212.12,210.88 212.54,210.80 212.94,210.73 C 213.33,210.67 213.71,210.62 214.06,210.58 C 214.42,210.54 214.75,210.51 215.06,210.50 C 215.38,210.49 215.66,210.51 215.94,210.50 C 216.21,210.49 216.48,210.47 216.73,210.45 C 216.98,210.42 217.21,210.38 217.43,210.34 C 217.65,210.29 217.86,210.24 218.05,210.17 C 218.24,210.11 218.42,210.04 218.58,209.95 C 218.74,209.87 218.89,209.78 219.02,209.68 C 219.16,209.58 219.28,209.47 219.38,209.35 C 219.49,209.23 219.58,209.11 219.66,208.97 C 219.73,208.83 219.77,208.67 219.84,208.53 C 219.91,208.39 219.99,208.25 220.08,208.11 C 220.16,207.97 220.26,207.84 220.36,207.70 C 220.46,207.57 220.57,207.44 220.69,207.31 C 220.80,207.18 220.93,207.06 221.06,206.94 C 221.20,206.82 221.34,206.70 221.48,206.58 C 221.63,206.46 221.79,206.35 221.95,206.23 C 222.12,206.12 222.29,206.01 222.47,205.91 C 222.65,205.80 222.84,205.68 223.03,205.59 C 223.23,205.50 223.43,205.43 223.63,205.37 C 223.84,205.31 224.05,205.26 224.27,205.23 C 224.49,205.19 224.72,205.18 224.95,205.17 C 225.19,205.17 225.43,205.18 225.67,205.20 C 225.92,205.23 226.17,205.27 226.43,205.32 C 226.69,205.37 226.95,205.44 227.23,205.52 C 227.50,205.61 227.78,205.70 228.06,205.81 C 228.35,205.92 228.62,206.07 228.94,206.19 C 229.25,206.30 229.58,206.41 229.94,206.52 C 230.29,206.62 230.67,206.71 231.06,206.80 C 231.46,206.88 231.88,206.96 232.31,207.03 C 232.75,207.10 233.21,207.16 233.69,207.22 C 234.17,207.27 234.67,207.32 235.19,207.36 C 235.71,207.40 236.25,207.43 236.81,207.45 C 237.38,207.48 237.96,207.49 238.56,207.50 C 239.17,207.51 239.83,207.51 240.44,207.50 C 241.04,207.49 241.62,207.48 242.19,207.45 C 242.75,207.43 243.29,207.40 243.81,207.36 C 244.33,207.32 244.83,207.27 245.31,207.22 C 245.79,207.16 246.25,207.10 246.69,207.03 C 247.12,206.96 247.54,206.88 247.94,206.80 C 248.33,206.71 248.71,206.62 249.06,206.52 C 249.42,206.41 249.75,206.30 250.06,206.19 C 250.38,206.07 250.66,205.93 250.94,205.81 C 251.22,205.70 251.49,205.59 251.75,205.50 C 252.01,205.41 252.26,205.32 252.50,205.25 C 252.74,205.18 252.97,205.11 253.19,205.06 C 253.41,205.01 253.61,204.97 253.81,204.94 C 254.01,204.91 254.20,204.89 254.38,204.88 C 254.55,204.86 254.72,204.86 254.88,204.88 C 255.03,204.89 255.18,204.91 255.31,204.94 C 255.45,204.97 255.56,205.01 255.69,205.06 C 255.81,205.11 255.94,205.18 256.06,205.25 C 256.19,205.32 256.31,205.41 256.44,205.50 C 256.56,205.59 256.69,205.70 256.81,205.81 C 256.94,205.93 257.06,206.05 257.19,206.19 C 257.31,206.32 257.44,206.47 257.56,206.62 C 257.69,206.78 257.81,206.95 257.94,207.12 C 258.06,207.30 258.19,207.49 258.31,207.69 C 258.44,207.89 258.55,208.12 258.69,208.31 C 258.82,208.51 258.96,208.69 259.11,208.86 C 259.26,209.03 259.41,209.18 259.58,209.33 C 259.74,209.47 259.91,209.60 260.09,209.72 C 260.27,209.84 260.46,209.94 260.66,210.03 C 260.85,210.12 261.05,210.20 261.27,210.27 C 261.48,210.33 261.70,210.38 261.92,210.42 C 262.15,210.46 262.38,210.49 262.62,210.50 C 262.87,210.51 263.14,210.51 263.38,210.50 C 263.61,210.49 263.84,210.46 264.05,210.43 C 264.27,210.39 264.47,210.35 264.66,210.29 C 264.86,210.23 265.04,210.16 265.20,210.08 C 265.37,210.00 265.53,209.90 265.67,209.80 C 265.82,209.69 265.95,209.57 266.07,209.45 C 266.19,209.32 266.30,209.18 266.40,209.02 C 266.50,208.87 266.58,208.71 266.66,208.53 C 266.73,208.36 266.78,208.15 266.84,207.97 C 266.91,207.79 266.98,207.62 267.05,207.45 C 267.12,207.29 267.19,207.13 267.27,206.98 C 267.34,206.84 267.42,206.70 267.50,206.56 C 267.58,206.43 267.66,206.30 267.75,206.19 C 267.84,206.07 267.92,205.96 268.02,205.86 C 268.11,205.76 268.20,205.66 268.30,205.58 C 268.39,205.49 268.49,205.41 268.59,205.34 C 268.70,205.27 268.76,205.22 268.91,205.16 C 269.06,205.10 269.25,205.04 269.49,204.98 C 269.73,204.92 270.02,204.86 270.35,204.80 C 270.68,204.75 271.06,204.69 271.48,204.64 C 271.91,204.59 272.38,204.54 272.89,204.48 C 273.40,204.43 273.96,204.38 274.57,204.34 C 275.18,204.29 275.83,204.24 276.52,204.20 C 277.22,204.15 277.96,204.11 278.75,204.06 C 279.54,204.02 280.38,203.99 281.25,203.94 C 282.12,203.88 283.02,203.82 283.95,203.73 C 284.89,203.65 285.86,203.56 286.86,203.45 C 287.86,203.35 288.90,203.23 289.97,203.09 C 291.04,202.96 292.14,202.82 293.28,202.66 C 294.42,202.50 295.59,202.33 296.80,202.14 C 298.00,201.96 299.24,201.76 300.52,201.55 C 301.79,201.34 303.10,201.11 304.44,200.88 C 305.78,200.64 307.22,200.36 308.56,200.12 C 309.90,199.89 311.20,199.66 312.47,199.45 C 313.73,199.24 314.96,199.04 316.16,198.86 C 317.35,198.67 318.51,198.50 319.62,198.34 C 320.74,198.18 321.83,198.04 322.88,197.91 C 323.92,197.77 324.93,197.65 325.91,197.55 C 326.88,197.44 327.82,197.35 328.72,197.27 C 329.62,197.18 330.48,197.12 331.31,197.06 C 332.14,197.01 332.91,196.96 333.69,196.94 C 334.46,196.91 335.22,196.90 335.97,196.91 C 336.71,196.91 337.44,196.93 338.16,196.97 C 338.87,197.01 339.57,197.06 340.25,197.12 C 340.93,197.19 341.60,197.28 342.25,197.38 C 342.90,197.47 343.54,197.59 344.16,197.72 C 344.78,197.85 345.38,197.99 345.97,198.16 C 346.56,198.32 347.13,198.49 347.69,198.69 C 348.24,198.88 348.80,199.11 349.31,199.31 C 349.83,199.52 350.32,199.71 350.78,199.91 C 351.24,200.10 351.68,200.29 352.09,200.47 C 352.51,200.65 352.89,200.83 353.25,201.00 C 353.61,201.17 353.94,201.34 354.25,201.50 C 354.56,201.66 354.84,201.82 355.09,201.97 C 355.35,202.12 355.58,202.27 355.78,202.41 C 355.98,202.55 356.16,202.68 356.31,202.81 C 356.46,202.94 356.55,203.07 356.69,203.19 C 356.82,203.30 356.97,203.41 357.12,203.52 C 357.28,203.62 357.45,203.71 357.62,203.80 C 357.80,203.88 357.99,203.96 358.19,204.03 C 358.39,204.10 358.59,204.16 358.81,204.22 C 359.03,204.27 359.26,204.32 359.50,204.36 C 359.74,204.40 359.99,204.43 360.25,204.45 C 360.51,204.48 360.78,204.49 361.06,204.50 C 361.34,204.51 361.66,204.49 361.94,204.50 C 362.22,204.51 362.49,204.52 362.74,204.54 C 363.00,204.56 363.24,204.58 363.48,204.62 C 363.71,204.65 363.93,204.69 364.14,204.73 C 364.35,204.78 364.55,204.83 364.73,204.89 C 364.92,204.95 365.10,205.01 365.26,205.09 C 365.42,205.16 365.57,205.24 365.71,205.32 C 365.85,205.40 365.98,205.50 366.09,205.59 C 366.21,205.69 366.31,205.78 366.41,205.91 C 366.50,206.03 366.58,206.17 366.66,206.33 C 366.73,206.49 366.79,206.66 366.84,206.86 C 366.90,207.05 366.94,207.27 366.97,207.50 C 367.00,207.73 367.02,207.98 367.03,208.25 C 367.04,208.52 367.04,208.80 367.03,209.11 C 367.02,209.41 367.00,209.74 366.97,210.08 C 366.94,210.42 366.90,210.78 366.84,211.16 C 366.79,211.53 366.66,211.96 366.66,212.34 C 366.65,212.73 366.70,213.10 366.80,213.47 C 366.90,213.83 367.05,214.19 367.27,214.53 C 367.48,214.88 367.74,215.21 368.06,215.53 C 368.38,215.85 368.76,216.17 369.19,216.47 C 369.62,216.77 370.10,217.06 370.64,217.34 C 371.18,217.62 371.77,217.90 372.42,218.16 C 373.07,218.42 373.77,218.67 374.53,218.91 C 375.29,219.15 376.21,219.34 376.97,219.59 C 377.73,219.85 378.43,220.13 379.09,220.43 C 379.74,220.73 380.34,221.06 380.88,221.41 C 381.43,221.77 381.92,222.14 382.36,222.55 C 382.80,222.95 383.18,223.38 383.52,223.83 C 383.85,224.28 384.13,224.76 384.35,225.26 C 384.58,225.76 384.75,226.29 384.87,226.84 C 384.99,227.39 385.05,227.96 385.06,228.56 C 385.07,229.16 385.01,229.83 384.94,230.44 C 384.86,231.05 384.75,231.64 384.61,232.22 C 384.47,232.80 384.29,233.36 384.08,233.91 C 383.87,234.45 383.62,234.98 383.34,235.50 C 383.07,236.02 382.75,236.52 382.41,237.00 C 382.06,237.48 381.68,237.95 381.27,238.41 C 380.85,238.86 380.40,239.30 379.92,239.72 C 379.44,240.14 378.92,240.55 378.38,240.94 C 377.83,241.33 377.17,241.61 376.62,242.06 C 376.08,242.52 375.57,243.05 375.09,243.67 C 374.62,244.29 374.18,244.99 373.78,245.77 C 373.38,246.54 373.02,247.40 372.69,248.34 C 372.36,249.28 372.07,250.30 371.81,251.41 C 371.56,252.51 371.34,253.69 371.16,254.95 C 370.97,256.22 370.83,257.56 370.72,258.98 C 370.61,260.41 370.54,261.91 370.50,263.50 C 370.46,265.09 370.46,266.91 370.50,268.50 C 370.54,270.09 370.61,271.59 370.72,273.02 C 370.83,274.44 370.97,275.78 371.16,277.05 C 371.34,278.31 371.56,279.49 371.81,280.59 C 372.07,281.70 372.36,282.72 372.69,283.66 C 373.02,284.60 373.38,285.46 373.78,286.23 C 374.18,287.01 374.62,287.71 375.09,288.33 C 375.57,288.95 376.08,289.48 376.62,289.94 C 377.17,290.39 377.83,290.67 378.38,291.06 C 378.92,291.45 379.44,291.86 379.92,292.28 C 380.40,292.70 380.85,293.14 381.27,293.59 C 381.68,294.05 382.06,294.52 382.41,295.00 C 382.75,295.48 383.07,295.98 383.34,296.50 C 383.62,297.02 383.87,297.55 384.08,298.09 C 384.29,298.64 384.47,299.20 384.61,299.78 C 384.75,300.36 384.86,300.95 384.94,301.56 C 385.01,302.17 385.07,302.84 385.06,303.44 C 385.05,304.04 384.99,304.61 384.87,305.16 C 384.75,305.71 384.58,306.24 384.35,306.74 C 384.13,307.24 383.85,307.72 383.52,308.17 C 383.18,308.62 382.80,309.05 382.36,309.45 C 381.92,309.86 381.43,310.23 380.88,310.59 C 380.34,310.94 379.74,311.27 379.09,311.57 C 378.43,311.87 377.73,312.15 376.97,312.41 C 376.21,312.66 375.29,312.87 374.53,313.09 C 373.77,313.32 373.07,313.53 372.42,313.73 C 371.77,313.94 371.18,314.14 370.64,314.33 C 370.10,314.52 369.62,314.70 369.19,314.88 C 368.76,315.05 368.38,315.22 368.06,315.38 C 367.74,315.53 367.48,315.68 367.27,315.83 C 367.05,315.97 366.90,316.11 366.80,316.23 C 366.70,316.36 366.65,316.48 366.66,316.59 C 366.66,316.71 366.79,316.78 366.84,316.91 C 366.90,317.03 366.95,317.17 366.98,317.33 C 367.02,317.49 367.05,317.66 367.08,317.86 C 367.10,318.05 367.12,318.27 367.12,318.50 C 367.13,318.73 367.13,318.98 367.12,319.25 C 367.12,319.52 367.10,319.80 367.08,320.11 C 367.05,320.41 367.02,320.74 366.98,321.08 C 366.95,321.42 366.90,321.78 366.84,322.16 C 366.79,322.53 366.73,322.97 366.66,323.34 C 366.58,323.71 366.49,324.06 366.38,324.38 C 366.28,324.70 366.16,325.00 366.02,325.27 C 365.89,325.55 365.74,325.79 365.58,326.02 C 365.42,326.24 365.24,326.44 365.05,326.61 C 364.86,326.78 364.65,326.93 364.43,327.05 C 364.21,327.18 363.98,327.28 363.73,327.35 C 363.48,327.43 363.21,327.48 362.94,327.50 C 362.66,327.52 362.38,327.48 362.06,327.50 C 361.75,327.52 361.41,327.56 361.05,327.62 C 360.68,327.69 360.30,327.77 359.89,327.88 C 359.48,327.98 359.05,328.10 358.59,328.25 C 358.14,328.40 357.66,328.56 357.16,328.75 C 356.65,328.94 356.13,329.15 355.58,329.38 C 355.03,329.60 354.46,329.85 353.86,330.12 C 353.26,330.40 352.64,330.69 352.00,331.00 C 351.36,331.31 350.68,331.69 350.00,332.00 C 349.32,332.31 348.64,332.60 347.94,332.86 C 347.24,333.12 346.53,333.36 345.81,333.58 C 345.09,333.79 344.36,333.99 343.62,334.16 C 342.89,334.33 342.14,334.47 341.38,334.59 C 340.61,334.72 339.84,334.82 339.06,334.89 C 338.28,334.97 337.49,335.02 336.69,335.05 C 335.89,335.08 335.07,335.08 334.25,335.06 C 333.43,335.04 332.60,334.99 331.75,334.94 C 330.90,334.88 330.02,334.82 329.12,334.73 C 328.23,334.65 327.31,334.56 326.38,334.45 C 325.44,334.35 324.48,334.23 323.50,334.09 C 322.52,333.96 321.52,333.82 320.50,333.66 C 319.48,333.50 318.44,333.33 317.38,333.14 C 316.31,332.96 315.23,332.76 314.12,332.55 C 313.02,332.34 311.90,332.11 310.75,331.88 C 309.60,331.64 308.40,331.36 307.25,331.12 C 306.10,330.89 304.97,330.67 303.86,330.47 C 302.75,330.27 301.65,330.08 300.58,329.91 C 299.50,329.73 298.45,329.58 297.41,329.44 C 296.37,329.30 295.35,329.17 294.34,329.06 C 293.34,328.95 292.36,328.86 291.39,328.78 C 290.42,328.70 289.48,328.64 288.55,328.59 C 287.62,328.55 286.71,328.52 285.81,328.50 C 284.92,328.48 284.02,328.51 283.19,328.50 C 282.35,328.49 281.55,328.48 280.79,328.46 C 280.03,328.44 279.30,328.42 278.62,328.38 C 277.93,328.35 277.28,328.31 276.67,328.27 C 276.06,328.22 275.49,328.17 274.95,328.11 C 274.42,328.05 273.92,327.99 273.46,327.91 C 273.00,327.84 272.58,327.76 272.20,327.68 C 271.81,327.60 271.46,327.50 271.16,327.41 C 270.85,327.31 270.60,327.21 270.34,327.09 C 270.09,326.98 269.85,326.84 269.63,326.70 C 269.41,326.55 269.21,326.39 269.02,326.21 C 268.84,326.04 268.67,325.85 268.52,325.64 C 268.36,325.44 268.23,325.22 268.11,324.98 C 267.99,324.75 267.89,324.50 267.80,324.24 C 267.72,323.98 267.65,323.70 267.60,323.41 C 267.55,323.12 267.52,322.82 267.50,322.50 C 267.48,322.18 267.50,321.82 267.50,321.50 C 267.50,321.18 267.49,320.88 267.48,320.60 C 267.46,320.32 267.45,320.05 267.43,319.80 C 267.41,319.56 267.39,319.32 267.36,319.11 C 267.33,318.89 267.30,318.70 267.27,318.52 C 267.23,318.33 267.19,318.17 267.15,318.02 C 267.11,317.88 267.06,317.75 267.01,317.63 C 266.96,317.52 266.90,317.42 266.84,317.34 C 266.79,317.26 266.76,317.21 266.66,317.16 C 266.55,317.10 266.39,317.04 266.20,316.99 C 266.00,316.94 265.75,316.89 265.46,316.85 C 265.17,316.81 264.83,316.77 264.45,316.73 C 264.07,316.70 263.64,316.67 263.17,316.64 C 262.70,316.61 262.18,316.59 261.62,316.57 C 261.05,316.55 260.44,316.54 259.79,316.52 C 259.13,316.51 258.43,316.50 257.69,316.50 C 256.94,316.50 256.06,316.49 255.31,316.50 C 254.57,316.51 253.87,316.52 253.22,316.53 C 252.57,316.55 251.96,316.57 251.41,316.59 C 250.85,316.62 250.34,316.65 249.88,316.69 C 249.41,316.72 248.99,316.77 248.62,316.81 C 248.26,316.86 247.93,316.91 247.66,316.97 C 247.38,317.03 247.15,317.09 246.97,317.16 C 246.79,317.22 246.65,317.30 246.56,317.38 C 246.47,317.45 246.49,317.55 246.44,317.62 C 246.39,317.70 246.33,317.78 246.26,317.85 C 246.19,317.92 246.11,317.99 246.02,318.05 C 245.94,318.12 245.84,318.18 245.73,318.23 C 245.63,318.29 245.51,318.34 245.39,318.39 C 245.27,318.44 245.13,318.48 244.99,318.52 C 244.85,318.56 244.70,318.60 244.54,318.63 C 244.38,318.67 244.21,318.69 244.03,318.72 C 243.85,318.74 243.64,318.76 243.47,318.78 C 243.30,318.80 243.15,318.83 243.02,318.85 C 242.89,318.88 242.79,318.90 242.70,318.93 C 242.61,318.96 242.54,318.99 242.48,319.02 C 242.43,319.05 242.40,319.08 242.39,319.11 C 242.38,319.14 242.39,319.18 242.41,319.21 C 242.44,319.25 242.49,319.28 242.55,319.32 C 242.62,319.36 242.71,319.40 242.81,319.44 C 242.92,319.48 243.07,319.51 243.19,319.56 C 243.30,319.62 243.41,319.69 243.50,319.78 C 243.59,319.87 243.68,319.97 243.75,320.09 C 243.82,320.21 243.89,320.35 243.94,320.50 C 243.99,320.65 244.03,320.82 244.06,321.00 C 244.09,321.18 244.11,321.38 244.12,321.59 C 244.14,321.81 244.14,322.04 244.12,322.28 C 244.11,322.53 244.09,322.79 244.06,323.06 C 244.03,323.34 243.95,323.67 243.94,323.94 C 243.92,324.21 243.93,324.45 243.96,324.68 C 243.99,324.90 244.05,325.11 244.13,325.29 C 244.21,325.47 244.32,325.63 244.45,325.77 C 244.58,325.90 244.74,326.02 244.92,326.11 C 245.10,326.20 245.31,326.27 245.54,326.32 C 245.77,326.37 246.02,326.39 246.30,326.40 C 246.58,326.40 246.89,326.38 247.22,326.34 C 247.55,326.30 247.93,326.20 248.28,326.16 C 248.63,326.11 248.97,326.09 249.31,326.08 C 249.65,326.07 249.98,326.08 250.31,326.11 C 250.64,326.14 250.96,326.18 251.28,326.25 C 251.60,326.32 251.91,326.40 252.22,326.50 C 252.53,326.60 252.83,326.72 253.12,326.86 C 253.42,327.00 253.71,327.15 254.00,327.33 C 254.29,327.50 254.57,327.70 254.84,327.91 C 255.12,328.12 255.42,328.36 255.66,328.59 C 255.89,328.82 256.10,329.05 256.27,329.28 C 256.43,329.51 256.57,329.74 256.67,329.97 C 256.77,330.20 256.84,330.43 256.88,330.66 C 256.91,330.89 256.91,331.11 256.88,331.34 C 256.84,331.57 256.77,331.80 256.67,332.03 C 256.57,332.26 256.43,332.49 256.27,332.72 C 256.10,332.95 255.89,333.18 255.66,333.41 C 255.42,333.64 255.12,333.88 254.84,334.09 C 254.57,334.30 254.29,334.49 254.01,334.66 C 253.73,334.83 253.44,334.99 253.15,335.12 C 252.86,335.25 252.56,335.36 252.27,335.45 C 251.97,335.55 251.67,335.62 251.36,335.67 C 251.05,335.73 250.74,335.76 250.43,335.77 C 250.12,335.79 249.80,335.78 249.48,335.76 C 249.15,335.73 248.83,335.69 248.50,335.62 Z" />
    </clipPath>
  </defs>
  <path d="M 248.50,335.62 C 248.17,335.56 247.82,335.45 247.50,335.38 C 247.18,335.30 246.89,335.24 246.61,335.19 C 246.33,335.14 246.07,335.09 245.83,335.06 C 245.59,335.03 245.36,335.01 245.16,335.00 C 244.95,334.99 244.76,334.99 244.59,335.00 C 244.42,335.01 244.27,335.03 244.14,335.06 C 244.01,335.09 243.89,335.14 243.80,335.19 C 243.70,335.24 243.62,335.30 243.56,335.38 C 243.50,335.45 243.53,335.55 243.44,335.62 C 243.35,335.70 243.21,335.78 243.03,335.84 C 242.85,335.91 242.62,335.97 242.34,336.03 C 242.07,336.09 241.74,336.14 241.38,336.19 C 241.01,336.23 240.59,336.28 240.12,336.31 C 239.66,336.35 239.15,336.38 238.59,336.41 C 238.04,336.43 237.43,336.45 236.78,336.47 C 236.13,336.48 235.43,336.49 234.69,336.50 C 233.94,336.51 233.06,336.52 232.31,336.50 C 231.56,336.48 230.85,336.45 230.18,336.40 C 229.51,336.35 228.88,336.28 228.29,336.20 C 227.70,336.11 227.15,336.01 226.64,335.89 C 226.13,335.77 225.66,335.64 225.23,335.48 C 224.81,335.33 224.42,335.16 224.07,334.98 C 223.72,334.79 223.42,334.59 223.15,334.37 C 222.88,334.15 222.65,333.91 222.47,333.66 C 222.28,333.40 222.16,333.11 222.03,332.84 C 221.90,332.58 221.79,332.32 221.70,332.06 C 221.61,331.81 221.54,331.56 221.48,331.31 C 221.43,331.07 221.39,330.83 221.38,330.59 C 221.36,330.36 221.36,330.13 221.38,329.91 C 221.39,329.68 221.43,329.46 221.48,329.25 C 221.54,329.04 221.61,328.83 221.70,328.62 C 221.79,328.42 221.90,328.22 222.03,328.03 C 222.16,327.84 222.31,327.64 222.47,327.47 C 222.63,327.30 222.80,327.14 222.98,327.01 C 223.16,326.87 223.35,326.75 223.55,326.65 C 223.76,326.55 223.98,326.46 224.20,326.39 C 224.43,326.32 224.67,326.27 224.92,326.23 C 225.17,326.20 225.44,326.18 225.71,326.18 C 225.99,326.18 226.27,326.19 226.57,326.23 C 226.87,326.26 227.18,326.31 227.50,326.38 C 227.82,326.44 228.18,326.55 228.50,326.62 C 228.82,326.70 229.12,326.76 229.40,326.82 C 229.68,326.88 229.95,326.92 230.20,326.96 C 230.44,327.00 230.68,327.03 230.89,327.05 C 231.11,327.07 231.30,327.08 231.48,327.08 C 231.67,327.08 231.83,327.07 231.98,327.05 C 232.12,327.04 232.25,327.01 232.37,326.98 C 232.48,326.94 232.58,326.90 232.66,326.84 C 232.74,326.79 232.79,326.73 232.84,326.66 C 232.89,326.58 232.93,326.50 232.96,326.41 C 232.99,326.32 233.00,326.23 233.01,326.12 C 233.01,326.01 233.00,325.89 232.98,325.77 C 232.96,325.64 232.93,325.50 232.89,325.36 C 232.85,325.21 232.79,325.06 232.73,324.90 C 232.66,324.74 232.58,324.56 232.49,324.38 C 232.40,324.20 232.30,324.01 232.19,323.81 C 232.07,323.61 231.92,323.39 231.81,323.19 C 231.70,322.98 231.61,322.78 231.52,322.59 C 231.44,322.39 231.37,322.20 231.32,322.01 C 231.27,321.82 231.23,321.63 231.20,321.45 C 231.18,321.27 231.17,321.10 231.17,320.92 C 231.18,320.75 231.19,320.58 231.23,320.41 C 231.26,320.25 231.31,320.09 231.37,319.93 C 231.43,319.77 231.50,319.62 231.59,319.47 C 231.68,319.32 231.86,319.16 231.91,319.03 C 231.95,318.90 231.93,318.80 231.85,318.71 C 231.77,318.62 231.63,318.56 231.43,318.51 C 231.23,318.46 230.96,318.43 230.64,318.42 C 230.32,318.41 229.93,318.42 229.48,318.45 C 229.04,318.48 228.53,318.53 227.96,318.60 C 227.39,318.67 226.76,318.76 226.07,318.87 C 225.38,318.98 224.63,319.10 223.81,319.25 C 223.00,319.40 222.05,319.61 221.19,319.75 C 220.32,319.89 219.47,320.01 218.62,320.11 C 217.78,320.21 216.95,320.28 216.12,320.33 C 215.30,320.38 214.49,320.40 213.69,320.41 C 212.89,320.41 212.09,320.39 211.31,320.34 C 210.53,320.30 209.76,320.23 209.00,320.14 C 208.24,320.05 207.49,319.93 206.75,319.80 C 206.01,319.66 205.28,319.50 204.56,319.31 C 203.84,319.13 203.11,318.87 202.44,318.69 C 201.76,318.51 201.11,318.36 200.50,318.23 C 199.89,318.11 199.30,318.02 198.75,317.95 C 198.20,317.89 197.68,317.85 197.19,317.84 C 196.70,317.84 196.24,317.86 195.81,317.91 C 195.39,317.96 194.99,318.03 194.62,318.14 C 194.26,318.25 193.93,318.38 193.62,318.55 C 193.32,318.71 193.05,318.90 192.81,319.12 C 192.57,319.35 192.39,319.64 192.19,319.88 C 191.99,320.11 191.79,320.33 191.61,320.53 C 191.42,320.73 191.25,320.92 191.08,321.09 C 190.91,321.27 190.75,321.42 190.59,321.56 C 190.44,321.70 190.29,321.83 190.16,321.94 C 190.02,322.05 189.89,322.14 189.77,322.22 C 189.64,322.30 189.53,322.36 189.42,322.41 C 189.32,322.45 189.22,322.48 189.12,322.50 C 189.03,322.52 188.96,322.51 188.88,322.50 C 188.79,322.49 188.69,322.46 188.59,322.42 C 188.49,322.38 188.39,322.33 188.28,322.27 C 188.17,322.20 188.06,322.12 187.94,322.03 C 187.82,321.94 187.69,321.84 187.56,321.72 C 187.43,321.60 187.30,321.47 187.16,321.33 C 187.02,321.18 186.87,321.03 186.72,320.86 C 186.57,320.69 186.41,320.51 186.25,320.31 C 186.09,320.12 185.97,319.89 185.75,319.69 C 185.53,319.49 185.25,319.30 184.92,319.12 C 184.59,318.95 184.21,318.78 183.77,318.62 C 183.33,318.47 182.83,318.32 182.28,318.19 C 181.73,318.05 181.13,317.93 180.47,317.81 C 179.81,317.70 179.10,317.59 178.33,317.50 C 177.56,317.41 176.74,317.32 175.86,317.25 C 174.98,317.18 174.05,317.11 173.06,317.06 C 172.08,317.01 170.95,316.98 169.94,316.94 C 168.92,316.89 167.94,316.84 166.98,316.78 C 166.03,316.72 165.10,316.66 164.20,316.59 C 163.30,316.53 162.43,316.45 161.59,316.38 C 160.75,316.30 159.94,316.21 159.16,316.12 C 158.37,316.04 157.62,315.94 156.89,315.84 C 156.16,315.74 155.47,315.64 154.80,315.53 C 154.13,315.42 153.49,315.31 152.88,315.19 C 152.26,315.07 151.69,314.95 151.12,314.81 C 150.56,314.68 150.02,314.53 149.49,314.37 C 148.97,314.21 148.46,314.04 147.98,313.85 C 147.49,313.67 147.02,313.47 146.58,313.27 C 146.13,313.06 145.70,312.84 145.30,312.61 C 144.89,312.38 144.50,312.14 144.13,311.88 C 143.76,311.63 143.42,311.36 143.09,311.09 C 142.76,310.81 142.45,310.52 142.16,310.22 C 141.87,309.92 141.60,309.78 141.34,309.28 C 141.09,308.78 140.85,308.09 140.63,307.21 C 140.41,306.33 140.21,305.26 140.02,304.01 C 139.84,302.75 139.67,301.31 139.52,299.67 C 139.36,298.04 139.23,296.21 139.11,294.20 C 138.99,292.19 138.89,289.99 138.80,287.60 C 138.72,285.21 138.65,282.63 138.60,279.87 C 138.55,277.10 138.52,274.14 138.50,271.00 C 138.48,267.86 138.48,264.15 138.50,261.00 C 138.52,257.85 138.57,254.89 138.63,252.12 C 138.70,249.34 138.79,246.75 138.90,244.35 C 139.01,241.95 139.14,239.73 139.30,237.70 C 139.45,235.67 139.63,233.83 139.83,232.17 C 140.03,230.51 140.25,229.04 140.49,227.76 C 140.74,226.47 141.00,225.37 141.29,224.46 C 141.58,223.55 141.89,222.82 142.22,222.28 C 142.55,221.74 142.85,221.56 143.28,221.22 C 143.71,220.88 144.21,220.55 144.79,220.24 C 145.37,219.93 146.02,219.63 146.74,219.35 C 147.47,219.07 148.27,218.80 149.14,218.55 C 150.01,218.29 150.96,218.05 151.98,217.83 C 153.01,217.60 154.10,217.39 155.27,217.20 C 156.44,217.00 157.69,216.82 159.01,216.65 C 160.33,216.48 161.72,216.33 163.19,216.19 C 164.65,216.05 166.36,215.94 167.81,215.81 C 169.27,215.68 170.64,215.55 171.92,215.41 C 173.21,215.27 174.40,215.12 175.52,214.97 C 176.63,214.82 177.65,214.66 178.59,214.50 C 179.53,214.34 180.39,214.17 181.16,214.00 C 181.92,213.83 182.61,213.65 183.20,213.47 C 183.80,213.29 184.31,213.10 184.73,212.91 C 185.16,212.71 185.50,212.52 185.75,212.31 C 186.00,212.11 186.07,211.87 186.25,211.69 C 186.43,211.51 186.62,211.36 186.83,211.23 C 187.03,211.11 187.25,211.02 187.48,210.95 C 187.72,210.89 187.96,210.85 188.22,210.84 C 188.48,210.84 188.75,210.86 189.03,210.91 C 189.32,210.96 189.61,211.03 189.92,211.14 C 190.23,211.25 190.55,211.38 190.89,211.55 C 191.23,211.71 191.58,211.90 191.94,212.12 C 192.30,212.35 192.67,212.65 193.06,212.88 C 193.45,213.10 193.86,213.29 194.28,213.45 C 194.70,213.62 195.14,213.75 195.59,213.86 C 196.05,213.97 196.52,214.04 197.00,214.09 C 197.48,214.14 197.98,214.16 198.50,214.16 C 199.02,214.15 199.55,214.11 200.09,214.05 C 200.64,213.98 201.20,213.89 201.78,213.77 C 202.36,213.64 202.95,213.49 203.56,213.31 C 204.17,213.13 204.83,212.88 205.44,212.69 C 206.04,212.49 206.62,212.31 207.19,212.14 C 207.75,211.97 208.29,211.82 208.81,211.67 C 209.33,211.53 209.83,211.40 210.31,211.28 C 210.79,211.16 211.25,211.06 211.69,210.97 C 212.12,210.88 212.54,210.80 212.94,210.73 C 213.33,210.67 213.71,210.62 214.06,210.58 C 214.42,210.54 214.75,210.51 215.06,210.50 C 215.38,210.49 215.66,210.51 215.94,210.50 C 216.21,210.49 216.48,210.47 216.73,210.45 C 216.98,210.42 217.21,210.38 217.43,210.34 C 217.65,210.29 217.86,210.24 218.05,210.17 C 218.24,210.11 218.42,210.04 218.58,209.95 C 218.74,209.87 218.89,209.78 219.02,209.68 C 219.16,209.58 219.28,209.47 219.38,209.35 C 219.49,209.23 219.58,209.11 219.66,208.97 C 219.73,208.83 219.77,208.67 219.84,208.53 C 219.91,208.39 219.99,208.25 220.08,208.11 C 220.16,207.97 220.26,207.84 220.36,207.70 C 220.46,207.57 220.57,207.44 220.69,207.31 C 220.80,207.18 220.93,207.06 221.06,206.94 C 221.20,206.82 221.34,206.70 221.48,206.58 C 221.63,206.46 221.79,206.35 221.95,206.23 C 222.12,206.12 222.29,206.01 222.47,205.91 C 222.65,205.80 222.84,205.68 223.03,205.59 C 223.23,205.50 223.43,205.43 223.63,205.37 C 223.84,205.31 224.05,205.26 224.27,205.23 C 224.49,205.19 224.72,205.18 224.95,205.17 C 225.19,205.17 225.43,205.18 225.67,205.20 C 225.92,205.23 226.17,205.27 226.43,205.32 C 226.69,205.37 226.95,205.44 227.23,205.52 C 227.50,205.61 227.78,205.70 228.06,205.81 C 228.35,205.92 228.62,206.07 228.94,206.19 C 229.25,206.30 229.58,206.41 229.94,206.52 C 230.29,206.62 230.67,206.71 231.06,206.80 C 231.46,206.88 231.88,206.96 232.31,207.03 C 232.75,207.10 233.21,207.16 233.69,207.22 C 234.17,207.27 234.67,207.32 235.19,207.36 C 235.71,207.40 236.25,207.43 236.81,207.45 C 237.38,207.48 237.96,207.49 238.56,207.50 C 239.17,207.51 239.83,207.51 240.44,207.50 C 241.04,207.49 241.62,207.48 242.19,207.45 C 242.75,207.43 243.29,207.40 243.81,207.36 C 244.33,207.32 244.83,207.27 245.31,207.22 C 245.79,207.16 246.25,207.10 246.69,207.03 C 247.12,206.96 247.54,206.88 247.94,206.80 C 248.33,206.71 248.71,206.62 249.06,206.52 C 249.42,206.41 249.75,206.30 250.06,206.19 C 250.38,206.07 250.66,205.93 250.94,205.81 C 251.22,205.70 251.49,205.59 251.75,205.50 C 252.01,205.41 252.26,205.32 252.50,205.25 C 252.74,205.18 252.97,205.11 253.19,205.06 C 253.41,205.01 253.61,204.97 253.81,204.94 C 254.01,204.91 254.20,204.89 254.38,204.88 C 254.55,204.86 254.72,204.86 254.88,204.88 C 255.03,204.89 255.18,204.91 255.31,204.94 C 255.45,204.97 255.56,205.01 255.69,205.06 C 255.81,205.11 255.94,205.18 256.06,205.25 C 256.19,205.32 256.31,205.41 256.44,205.50 C 256.56,205.59 256.69,205.70 256.81,205.81 C 256.94,205.93 257.06,206.05 257.19,206.19 C 257.31,206.32 257.44,206.47 257.56,206.62 C 257.69,206.78 257.81,206.95 257.94,207.12 C 258.06,207.30 258.19,207.49 258.31,207.69 C 258.44,207.89 258.55,208.12 258.69,208.31 C 258.82,208.51 258.96,208.69 259.11,208.86 C 259.26,209.03 259.41,209.18 259.58,209.33 C 259.74,209.47 259.91,209.60 260.09,209.72 C 260.27,209.84 260.46,209.94 260.66,210.03 C 260.85,210.12 261.05,210.20 261.27,210.27 C 261.48,210.33 261.70,210.38 261.92,210.42 C 262.15,210.46 262.38,210.49 262.62,210.50 C 262.87,210.51 263.14,210.51 263.38,210.50 C 263.61,210.49 263.84,210.46 264.05,210.43 C 264.27,210.39 264.47,210.35 264.66,210.29 C 264.86,210.23 265.04,210.16 265.20,210.08 C 265.37,210.00 265.53,209.90 265.67,209.80 C 265.82,209.69 265.95,209.57 266.07,209.45 C 266.19,209.32 266.30,209.18 266.40,209.02 C 266.50,208.87 266.58,208.71 266.66,208.53 C 266.73,208.36 266.78,208.15 266.84,207.97 C 266.91,207.79 266.98,207.62 267.05,207.45 C 267.12,207.29 267.19,207.13 267.27,206.98 C 267.34,206.84 267.42,206.70 267.50,206.56 C 267.58,206.43 267.66,206.30 267.75,206.19 C 267.84,206.07 267.92,205.96 268.02,205.86 C 268.11,205.76 268.20,205.66 268.30,205.58 C 268.39,205.49 268.49,205.41 268.59,205.34 C 268.70,205.27 268.76,205.22 268.91,205.16 C 269.06,205.10 269.25,205.04 269.49,204.98 C 269.73,204.92 270.02,204.86 270.35,204.80 C 270.68,204.75 271.06,204.69 271.48,204.64 C 271.91,204.59 272.38,204.54 272.89,204.48 C 273.40,204.43 273.96,204.38 274.57,204.34 C 275.18,204.29 275.83,204.24 276.52,204.20 C 277.22,204.15 277.96,204.11 278.75,204.06 C 279.54,204.02 280.38,203.99 281.25,203.94 C 282.12,203.88 283.02,203.82 283.95,203.73 C 284.89,203.65 285.86,203.56 286.86,203.45 C 287.86,203.35 288.90,203.23 289.97,203.09 C 291.04,202.96 292.14,202.82 293.28,202.66 C 294.42,202.50 295.59,202.33 296.80,202.14 C 298.00,201.96 299.24,201.76 300.52,201.55 C 301.79,201.34 303.10,201.11 304.44,200.88 C 305.78,200.64 307.22,200.36 308.56,200.12 C 309.90,199.89 311.20,199.66 312.47,199.45 C 313.73,199.24 314.96,199.04 316.16,198.86 C 317.35,198.67 318.51,198.50 319.62,198.34 C 320.74,198.18 321.83,198.04 322.88,197.91 C 323.92,197.77 324.93,197.65 325.91,197.55 C 326.88,197.44 327.82,197.35 328.72,197.27 C 329.62,197.18 330.48,197.12 331.31,197.06 C 332.14,197.01 332.91,196.96 333.69,196.94 C 334.46,196.91 335.22,196.90 335.97,196.91 C 336.71,196.91 337.44,196.93 338.16,196.97 C 338.87,197.01 339.57,197.06 340.25,197.12 C 340.93,197.19 341.60,197.28 342.25,197.38 C 342.90,197.47 343.54,197.59 344.16,197.72 C 344.78,197.85 345.38,197.99 345.97,198.16 C 346.56,198.32 347.13,198.49 347.69,198.69 C 348.24,198.88 348.80,199.11 349.31,199.31 C 349.83,199.52 350.32,199.71 350.78,199.91 C 351.24,200.10 351.68,200.29 352.09,200.47 C 352.51,200.65 352.89,200.83 353.25,201.00 C 353.61,201.17 353.94,201.34 354.25,201.50 C 354.56,201.66 354.84,201.82 355.09,201.97 C 355.35,202.12 355.58,202.27 355.78,202.41 C 355.98,202.55 356.16,202.68 356.31,202.81 C 356.46,202.94 356.55,203.07 356.69,203.19 C 356.82,203.30 356.97,203.41 357.12,203.52 C 357.28,203.62 357.45,203.71 357.62,203.80 C 357.80,203.88 357.99,203.96 358.19,204.03 C 358.39,204.10 358.59,204.16 358.81,204.22 C 359.03,204.27 359.26,204.32 359.50,204.36 C 359.74,204.40 359.99,204.43 360.25,204.45 C 360.51,204.48 360.78,204.49 361.06,204.50 C 361.34,204.51 361.66,204.49 361.94,204.50 C 362.22,204.51 362.49,204.52 362.74,204.54 C 363.00,204.56 363.24,204.58 363.48,204.62 C 363.71,204.65 363.93,204.69 364.14,204.73 C 364.35,204.78 364.55,204.83 364.73,204.89 C 364.92,204.95 365.10,205.01 365.26,205.09 C 365.42,205.16 365.57,205.24 365.71,205.32 C 365.85,205.40 365.98,205.50 366.09,205.59 C 366.21,205.69 366.31,205.78 366.41,205.91 C 366.50,206.03 366.58,206.17 366.66,206.33 C 366.73,206.49 366.79,206.66 366.84,206.86 C 366.90,207.05 366.94,207.27 366.97,207.50 C 367.00,207.73 367.02,207.98 367.03,208.25 C 367.04,208.52 367.04,208.80 367.03,209.11 C 367.02,209.41 367.00,209.74 366.97,210.08 C 366.94,210.42 366.90,210.78 366.84,211.16 C 366.79,211.53 366.66,211.96 366.66,212.34 C 366.65,212.73 366.70,213.10 366.80,213.47 C 366.90,213.83 367.05,214.19 367.27,214.53 C 367.48,214.88 367.74,215.21 368.06,215.53 C 368.38,215.85 368.76,216.17 369.19,216.47 C 369.62,216.77 370.10,217.06 370.64,217.34 C 371.18,217.62 371.77,217.90 372.42,218.16 C 373.07,218.42 373.77,218.67 374.53,218.91 C 375.29,219.15 376.21,219.34 376.97,219.59 C 377.73,219.85 378.43,220.13 379.09,220.43 C 379.74,220.73 380.34,221.06 380.88,221.41 C 381.43,221.77 381.92,222.14 382.36,222.55 C 382.80,222.95 383.18,223.38 383.52,223.83 C 383.85,224.28 384.13,224.76 384.35,225.26 C 384.58,225.76 384.75,226.29 384.87,226.84 C 384.99,227.39 385.05,227.96 385.06,228.56 C 385.07,229.16 385.01,229.83 384.94,230.44 C 384.86,231.05 384.75,231.64 384.61,232.22 C 384.47,232.80 384.29,233.36 384.08,233.91 C 383.87,234.45 383.62,234.98 383.34,235.50 C 383.07,236.02 382.75,236.52 382.41,237.00 C 382.06,237.48 381.68,237.95 381.27,238.41 C 380.85,238.86 380.40,239.30 379.92,239.72 C 379.44,240.14 378.92,240.55 378.38,240.94 C 377.83,241.33 377.17,241.61 376.62,242.06 C 376.08,242.52 375.57,243.05 375.09,243.67 C 374.62,244.29 374.18,244.99 373.78,245.77 C 373.38,246.54 373.02,247.40 372.69,248.34 C 372.36,249.28 372.07,250.30 371.81,251.41 C 371.56,252.51 371.34,253.69 371.16,254.95 C 370.97,256.22 370.83,257.56 370.72,258.98 C 370.61,260.41 370.54,261.91 370.50,263.50 C 370.46,265.09 370.46,266.91 370.50,268.50 C 370.54,270.09 370.61,271.59 370.72,273.02 C 370.83,274.44 370.97,275.78 371.16,277.05 C 371.34,278.31 371.56,279.49 371.81,280.59 C 372.07,281.70 372.36,282.72 372.69,283.66 C 373.02,284.60 373.38,285.46 373.78,286.23 C 374.18,287.01 374.62,287.71 375.09,288.33 C 375.57,288.95 376.08,289.48 376.62,289.94 C 377.17,290.39 377.83,290.67 378.38,291.06 C 378.92,291.45 379.44,291.86 379.92,292.28 C 380.40,292.70 380.85,293.14 381.27,293.59 C 381.68,294.05 382.06,294.52 382.41,295.00 C 382.75,295.48 383.07,295.98 383.34,296.50 C 383.62,297.02 383.87,297.55 384.08,298.09 C 384.29,298.64 384.47,299.20 384.61,299.78 C 384.75,300.36 384.86,300.95 384.94,301.56 C 385.01,302.17 385.07,302.84 385.06,303.44 C 385.05,304.04 384.99,304.61 384.87,305.16 C 384.75,305.71 384.58,306.24 384.35,306.74 C 384.13,307.24 383.85,307.72 383.52,308.17 C 383.18,308.62 382.80,309.05 382.36,309.45 C 381.92,309.86 381.43,310.23 380.88,310.59 C 380.34,310.94 379.74,311.27 379.09,311.57 C 378.43,311.87 377.73,312.15 376.97,312.41 C 376.21,312.66 375.29,312.87 374.53,313.09 C 373.77,313.32 373.07,313.53 372.42,313.73 C 371.77,313.94 371.18,314.14 370.64,314.33 C 370.10,314.52 369.62,314.70 369.19,314.88 C 368.76,315.05 368.38,315.22 368.06,315.38 C 367.74,315.53 367.48,315.68 367.27,315.83 C 367.05,315.97 366.90,316.11 366.80,316.23 C 366.70,316.36 366.65,316.48 366.66,316.59 C 366.66,316.71 366.79,316.78 366.84,316.91 C 366.90,317.03 366.95,317.17 366.98,317.33 C 367.02,317.49 367.05,317.66 367.08,317.86 C 367.10,318.05 367.12,318.27 367.12,318.50 C 367.13,318.73 367.13,318.98 367.12,319.25 C 367.12,319.52 367.10,319.80 367.08,320.11 C 367.05,320.41 367.02,320.74 366.98,321.08 C 366.95,321.42 366.90,321.78 366.84,322.16 C 366.79,322.53 366.73,322.97 366.66,323.34 C 366.58,323.71 366.49,324.06 366.38,324.38 C 366.28,324.70 366.16,325.00 366.02,325.27 C 365.89,325.55 365.74,325.79 365.58,326.02 C 365.42,326.24 365.24,326.44 365.05,326.61 C 364.86,326.78 364.65,326.93 364.43,327.05 C 364.21,327.18 363.98,327.28 363.73,327.35 C 363.48,327.43 363.21,327.48 362.94,327.50 C 362.66,327.52 362.38,327.48 362.06,327.50 C 361.75,327.52 361.41,327.56 361.05,327.62 C 360.68,327.69 360.30,327.77 359.89,327.88 C 359.48,327.98 359.05,328.10 358.59,328.25 C 358.14,328.40 357.66,328.56 357.16,328.75 C 356.65,328.94 356.13,329.15 355.58,329.38 C 355.03,329.60 354.46,329.85 353.86,330.12 C 353.26,330.40 352.64,330.69 352.00,331.00 C 351.36,331.31 350.68,331.69 350.00,332.00 C 349.32,332.31 348.64,332.60 347.94,332.86 C 347.24,333.12 346.53,333.36 345.81,333.58 C 345.09,333.79 344.36,333.99 343.62,334.16 C 342.89,334.33 342.14,334.47 341.38,334.59 C 340.61,334.72 339.84,334.82 339.06,334.89 C 338.28,334.97 337.49,335.02 336.69,335.05 C 335.89,335.08 335.07,335.08 334.25,335.06 C 333.43,335.04 332.60,334.99 331.75,334.94 C 330.90,334.88 330.02,334.82 329.12,334.73 C 328.23,334.65 327.31,334.56 326.38,334.45 C 325.44,334.35 324.48,334.23 323.50,334.09 C 322.52,333.96 321.52,333.82 320.50,333.66 C 319.48,333.50 318.44,333.33 317.38,333.14 C 316.31,332.96 315.23,332.76 314.12,332.55 C 313.02,332.34 311.90,332.11 310.75,331.88 C 309.60,331.64 308.40,331.36 307.25,331.12 C 306.10,330.89 304.97,330.67 303.86,330.47 C 302.75,330.27 301.65,330.08 300.58,329.91 C 299.50,329.73 298.45,329.58 297.41,329.44 C 296.37,329.30 295.35,329.17 294.34,329.06 C 293.34,328.95 292.36,328.86 291.39,328.78 C 290.42,328.70 289.48,328.64 288.55,328.59 C 287.62,328.55 286.71,328.52 285.81,328.50 C 284.92,328.48 284.02,328.51 283.19,328.50 C 282.35,328.49 281.55,328.48 280.79,328.46 C 280.03,328.44 279.30,328.42 278.62,328.38 C 277.93,328.35 277.28,328.31 276.67,328.27 C 276.06,328.22 275.49,328.17 274.95,328.11 C 274.42,328.05 273.92,327.99 273.46,327.91 C 273.00,327.84 272.58,327.76 272.20,327.68 C 271.81,327.60 271.46,327.50 271.16,327.41 C 270.85,327.31 270.60,327.21 270.34,327.09 C 270.09,326.98 269.85,326.84 269.63,326.70 C 269.41,326.55 269.21,326.39 269.02,326.21 C 268.84,326.04 268.67,325.85 268.52,325.64 C 268.36,325.44 268.23,325.22 268.11,324.98 C 267.99,324.75 267.89,324.50 267.80,324.24 C 267.72,323.98 267.65,323.70 267.60,323.41 C 267.55,323.12 267.52,322.82 267.50,322.50 C 267.48,322.18 267.50,321.82 267.50,321.50 C 267.50,321.18 267.49,320.88 267.48,320.60 C 267.46,320.32 267.45,320.05 267.43,319.80 C 267.41,319.56 267.39,319.32 267.36,319.11 C 267.33,318.89 267.30,318.70 267.27,318.52 C 267.23,318.33 267.19,318.17 267.15,318.02 C 267.11,317.88 267.06,317.75 267.01,317.63 C 266.96,317.52 266.90,317.42 266.84,317.34 C 266.79,317.26 266.76,317.21 266.66,317.16 C 266.55,317.10 266.39,317.04 266.20,316.99 C 266.00,316.94 265.75,316.89 265.46,316.85 C 265.17,316.81 264.83,316.77 264.45,316.73 C 264.07,316.70 263.64,316.67 263.17,316.64 C 262.70,316.61 262.18,316.59 261.62,316.57 C 261.05,316.55 260.44,316.54 259.79,316.52 C 259.13,316.51 258.43,316.50 257.69,316.50 C 256.94,316.50 256.06,316.49 255.31,316.50 C 254.57,316.51 253.87,316.52 253.22,316.53 C 252.57,316.55 251.96,316.57 251.41,316.59 C 250.85,316.62 250.34,316.65 249.88,316.69 C 249.41,316.72 248.99,316.77 248.62,316.81 C 248.26,316.86 247.93,316.91 247.66,316.97 C 247.38,317.03 247.15,317.09 246.97,317.16 C 246.79,317.22 246.65,317.30 246.56,317.38 C 246.47,317.45 246.49,317.55 246.44,317.62 C 246.39,317.70 246.33,317.78 246.26,317.85 C 246.19,317.92 246.11,317.99 246.02,318.05 C 245.94,318.12 245.84,318.18 245.73,318.23 C 245.63,318.29 245.51,318.34 245.39,318.39 C 245.27,318.44 245.13,318.48 244.99,318.52 C 244.85,318.56 244.70,318.60 244.54,318.63 C 244.38,318.67 244.21,318.69 244.03,318.72 C 243.85,318.74 243.64,318.76 243.47,318.78 C 243.30,318.80 243.15,318.83 243.02,318.85 C 242.89,318.88 242.79,318.90 242.70,318.93 C 242.61,318.96 242.54,318.99 242.48,319.02 C 242.43,319.05 242.40,319.08 242.39,319.11 C 242.38,319.14 242.39,319.18 242.41,319.21 C 242.44,319.25 242.49,319.28 242.55,319.32 C 242.62,319.36 242.71,319.40 242.81,319.44 C 242.92,319.48 243.07,319.51 243.19,319.56 C 243.30,319.62 243.41,319.69 243.50,319.78 C 243.59,319.87 243.68,319.97 243.75,320.09 C 243.82,320.21 243.89,320.35 243.94,320.50 C 243.99,320.65 244.03,320.82 244.06,321.00 C 244.09,321.18 244.11,321.38 244.12,321.59 C 244.14,321.81 244.14,322.04 244.12,322.28 C 244.11,322.53 244.09,322.79 244.06,323.06 C 244.03,323.34 243.95,323.67 243.94,323.94 C 243.92,324.21 243.93,324.45 243.96,324.68 C 243.99,324.90 244.05,325.11 244.13,325.29 C 244.21,325.47 244.32,325.63 244.45,325.77 C 244.58,325.90 244.74,326.02 244.92,326.11 C 245.10,326.20 245.31,326.27 245.54,326.32 C 245.77,326.37 246.02,326.39 246.30,326.40 C 246.58,326.40 246.89,326.38 247.22,326.34 C 247.55,326.30 247.93,326.20 248.28,326.16 C 248.63,326.11 248.97,326.09 249.31,326.08 C 249.65,326.07 249.98,326.08 250.31,326.11 C 250.64,326.14 250.96,326.18 251.28,326.25 C 251.60,326.32 251.91,326.40 252.22,326.50 C 252.53,326.60 252.83,326.72 253.12,326.86 C 253.42,327.00 253.71,327.15 254.00,327.33 C 254.29,327.50 254.57,327.70 254.84,327.91 C 255.12,328.12 255.42,328.36 255.66,328.59 C 255.89,328.82 256.10,329.05 256.27,329.28 C 256.43,329.51 256.57,329.74 256.67,329.97 C 256.77,330.20 256.84,330.43 256.88,330.66 C 256.91,330.89 256.91,331.11 256.88,331.34 C 256.84,331.57 256.77,331.80 256.67,332.03 C 256.57,332.26 256.43,332.49 256.27,332.72 C 256.10,332.95 255.89,333.18 255.66,333.41 C 255.42,333.64 255.12,333.88 254.84,334.09 C 254.57,334.30 254.29,334.49 254.01,334.66 C 253.73,334.83 253.44,334.99 253.15,335.12 C 252.86,335.25 252.56,335.36 252.27,335.45 C 251.97,335.55 251.67,335.62 251.36,335.67 C 251.05,335.73 250.74,335.76 250.43,335.77 C 250.12,335.79 249.80,335.78 249.48,335.76 C 249.15,335.73 248.83,335.69 248.50,335.62 Z" stroke="none" fill="currentColor" opacity="0.11" />
  <path d="M330.51,298.26L330.51,307.38 M329.78,298.26L329.78,307.38 M347.57,307.89L329.97,307.89 M329.97,307.89L347.57,307.89 M329.97,309.46L347.57,309.46 M347.14,307.48L347.14,307.48 M347.34,307.71L347.34,307.71 M347.31,308.01L347.31,308.01 M346.67,308.01L346.67,308.01 M346.63,307.71L346.63,307.71 M330.51,307.48L330.51,307.48 M330.71,307.71L330.71,307.71 M330.68,308.01L330.68,308.01 M330.43,308.19L330.43,308.19 M330.00,307.71L330.00,307.71 M306.66,234.99L306.66,225.88 M307.40,234.99L307.40,225.88 M289.61,225.37L307.21,225.37 M307.21,225.37L289.61,225.37 M307.21,223.80L289.61,223.80 M290.03,225.77L290.03,225.77 M289.83,225.55L289.83,225.55 M289.86,225.24L289.86,225.24 M290.51,225.24L290.51,225.24 M290.54,225.55L290.54,225.55 M306.67,225.77L306.67,225.77 M306.46,225.55L306.46,225.55 M306.50,225.24L306.50,225.24 M306.74,225.07L306.74,225.07 M307.17,225.55L307.17,225.55 M290.32,298.26L290.32,307.38 M289.58,298.26L289.58,307.38 M307.37,307.89L289.77,307.89 M289.77,307.89L307.37,307.89 M289.77,309.46L307.37,309.46 M306.95,307.48L306.95,307.48 M307.15,307.71L307.15,307.71 M307.12,308.01L307.12,308.01 M306.47,308.01L306.47,308.01 M306.44,307.71L306.44,307.71 M290.31,307.48L290.31,307.48 M290.52,307.71L290.52,307.71 M290.48,308.01L290.48,308.01 M290.24,308.19L290.24,308.19 M289.81,307.71L289.81,307.71 M346.76,234.99L346.76,225.88 M347.50,234.99L347.50,225.88 M329.71,225.37L347.31,225.37 M347.31,225.37L329.71,225.37 M347.31,223.80L329.71,223.80 M330.13,225.77L330.13,225.77 M329.93,225.55L329.93,225.55 M329.96,225.24L329.96,225.24 M330.61,225.24L330.61,225.24 M330.64,225.55L330.64,225.55 M346.77,225.77L346.77,225.77 M346.56,225.55L346.56,225.55 M346.60,225.24L346.60,225.24 M346.84,225.07L346.84,225.07 M347.27,225.55L347.27,225.55 M261.98,233.23L258.78,227.69 M262.16,233.54L262.16,233.54 M261.98,233.23L258.78,227.69 M258.60,227.38L258.60,227.38 M257.09,280.82L257.43,280.88 M259.47,280.78L259.47,280.79 M257.09,280.78L257.43,280.82 M251.65,280.82L251.31,280.88 M249.27,280.78L249.27,280.79 M251.65,280.78L251.31,280.82 M156.90,248.18L156.90,266.57 M156.90,284.95L156.90,266.57 M183.35,264.59L171.32,249.05 M183.35,268.31L171.32,283.86 M209.29,281.21L209.29,249.32 M209.29,281.21L209.29,249.32 M213.71,281.21L213.71,249.32 M209.95,247.45L215.55,247.45 M215.55,248.40L209.95,248.40 M209.95,282.07L215.55,282.07 M215.55,283.03L209.95,283.03 M360.27,226.24L360.55,226.50 M352.67,226.56L353.08,226.98 M324.66,226.55L324.25,226.97 M312.54,226.55L312.95,226.97 M283.35,226.74L283.24,227.40 M283.26,227.52L283.35,227.25 M360.27,306.79L360.55,306.53 M352.67,306.46L353.08,306.05 M324.66,306.48L324.25,306.06 M312.54,306.48L312.95,306.06 M283.35,306.29L283.24,305.63 M283.26,305.51L283.35,305.78 M280.56,301.60L280.58,302.21 M280.63,283.48L281.21,283.48 M264.51,236.84L264.51,236.76 M257.32,226.47L257.60,227.85 M222.21,227.96L222.41,227.71 M292.26,283.87L283.77,283.88 M284.01,284.13L292.19,284.15 M283.66,295.34L290.24,299.90 M290.33,299.62L283.94,295.19 M292.26,283.87L308.71,295.01 M292.19,284.15L308.25,295.14 M349.53,299.71L322.70,299.87 M349.56,290.77L339.13,284.01 M308.54,283.94L339.13,284.01 M339.05,284.24L309.46,284.54 M322.70,299.87L306.73,289.30 M322.77,299.63L307.80,289.43 M292.26,249.26L283.77,249.25 M284.01,249.00L292.19,248.98 M283.66,237.80L290.24,233.24 M290.33,233.51L283.94,237.94 M292.26,249.26L308.71,238.12 M292.19,248.98L308.25,237.99 M349.53,233.43L322.70,233.26 M349.56,242.36L339.13,249.12 M308.54,249.19L339.13,249.12 M339.05,248.89L309.46,248.59 M322.70,233.26L306.73,243.83 M322.77,233.50L307.80,243.71 M354.84,253.36L354.84,264.78 M354.84,264.78L354.84,256.95 M346.35,279.80L346.35,268.38 M222.95,246.92L222.95,246.95 M222.95,246.95L222.95,246.93 M349.71,299.90L322.49,299.90 M322.49,299.90L306.40,289.21 M349.71,233.31L322.49,233.31 M322.49,233.31L306.40,244.01 M242.37,295.16L234.42,295.11 M241.35,292.11L241.10,291.99 M240.57,291.48L240.79,291.66 M191.62,297.12L207.64,303.56 M194.96,311.18L140.73,300.88 M214.94,318.80L214.65,317.17 M268.38,316.03L296.49,316.06 M296.49,316.06L330.17,316.10 M330.17,316.10L347.03,316.11 M165.66,266.56L165.66,288.09 M191.62,236.01L207.64,229.57 M194.96,221.95L140.74,232.26 M165.66,266.56L165.66,245.04 M209.33,268.86L190.78,266.86 M210.76,242.50L211.13,256.03 M206.85,239.27L192.33,242.07 M192.33,242.07L180.54,244.35 M207.45,259.83L192.55,259.86 M190.69,258.94L180.08,245.91 M214.86,235.65L206.50,237.15 M206.50,237.15L191.78,239.78 M191.78,239.78L175.10,242.77 M213.16,235.35L191.44,239.38 M171.69,243.07L191.44,239.38 M385.26,296.47L385.27,307.96 M385.23,296.47L385.29,309.64 M371.42,287.36L384.55,295.22 M370.72,286.12L370.72,266.56 M384.64,307.37L364.52,307.72 M383.28,311.59L383.39,311.44 M384.64,307.37L384.46,307.85 M267.63,316.07L267.63,326.68 M316.24,333.18L335.19,336.35 M356.15,316.12L348.05,316.11 M385.23,236.66L385.29,223.49 M385.27,225.17L385.26,236.66 M371.42,245.77L384.55,237.91 M370.72,247.01L370.72,266.56 M383.39,221.69L383.28,221.55 M384.64,225.76L384.46,225.28 M317.41,217.01L291.51,217.02 M317.41,217.01L347.03,217.01 M348.05,217.01L356.15,217.01 M316.01,199.99L335.19,196.79 M268.56,205.80L277.14,204.44 M278.08,204.31L290.18,204.21 M291.14,204.15L316.01,199.99 M301.97,215.24L284.06,215.00 M320.31,217.23L353.94,217.32 M284.06,215.00L275.14,214.88 M320.31,217.23L285.05,217.14 M321.36,218.17L285.06,218.17 M321.36,218.17L346.40,218.17 M268.38,217.02L291.51,217.02 M267.70,210.98L267.62,211.04 M267.07,211.43L267.17,211.49 M289.63,271.26L289.63,279.01 M262.85,212.23L262.85,212.23 M262.85,212.23L266.58,212.23 M266.77,212.23L266.77,212.23 M266.77,212.23L266.77,212.23 M298.04,265.36L298.04,280.70 M298.04,265.36L290.57,265.36 M298.53,265.36L298.53,265.36 M290.13,265.36L290.09,265.36 M267.52,212.23L275.14,214.88 M365.69,327.10L356.99,327.10 M365.69,206.03L356.99,206.03 M257.94,206.22L260.32,212.51 M222.11,206.22L219.74,212.51 M279.25,316.64L279.25,312.84 M139.62,284.65L139.62,266.56 M139.54,266.56L139.54,286.31 M139.54,286.31L139.54,293.97 M139.54,239.16L139.54,246.65 M139.54,246.65L139.54,266.56 M139.62,248.48L139.62,266.56 M362.76,266.53L362.95,307.61 M214.45,316.06L214.65,317.17 M176.39,307.77L168.76,304.50 M160.63,302.17L152.67,302.02 M213.29,217.16L217.38,212.08 M176.39,225.36L168.76,228.64 M152.67,231.11L160.63,230.96 M156.03,285.08L156.03,266.64 M156.03,266.64L156.03,248.05 M141.21,260.58L141.21,272.55 M140.58,260.58L140.58,272.72 M361.22,346.54L361.20,343.76 M361.21,344.59L361.20,341.80 M358.97,345.06L358.98,347.84 M356.73,346.56L356.72,343.77 M356.73,344.60L356.71,341.82 M357.69,347.48L357.72,352.39 M358.97,348.67L359.00,353.58 M355.02,352.65L354.94,352.47 M357.09,352.65L357.16,352.47 M355.02,357.64L354.95,357.82 M357.09,357.64L357.16,357.82 M366.65,377.68L366.65,369.67 M353.27,359.56L353.41,352.98 M360.99,189.11L361.01,186.32 M358.76,187.80L358.77,185.02 M356.52,186.30L356.51,189.09 M357.48,185.38L357.51,180.47 M358.76,184.19L358.79,179.28 M356.87,180.23L356.95,180.41 M354.73,180.41L354.81,180.23 M354.81,175.24L354.73,175.06 M356.87,175.24L356.95,175.06 M366.44,163.21L366.43,155.19 M353.05,173.32L353.20,179.90 M293.34,346.55L293.33,343.76 M293.34,344.59L293.32,341.81 M291.09,345.07L291.11,347.85 M288.86,346.57L288.84,343.78 M288.85,344.61L288.84,341.83 M289.82,347.49L289.85,352.40 M291.09,348.68L291.13,353.59 M287.15,352.66L287.07,352.48 M289.21,352.66L289.29,352.48 M287.15,357.65L287.07,357.83 M289.21,357.65L289.29,357.83 M298.78,377.69L298.78,369.68 M285.39,359.57L285.54,352.99 M293.33,189.11L293.34,186.33 M291.09,187.81L291.10,185.03 M288.86,186.31L288.85,189.10 M289.81,185.39L289.85,180.48 M291.09,184.19L291.13,179.29 M289.21,180.24L289.28,180.42 M287.07,180.42L287.15,180.24 M287.14,175.25L287.07,175.07 M289.21,175.25L289.28,175.07 M298.77,163.22L298.77,155.20 M285.39,173.33L285.54,179.91 M191.55,344.28L191.54,341.49 M191.54,342.32L191.53,339.54 M189.30,342.79L189.31,345.58 M187.07,344.29L187.05,341.51 M187.06,342.34L187.05,339.55 M188.02,345.22L188.05,350.13 M189.30,346.41L189.34,351.32 M191.48,350.05L191.40,349.87 M193.54,350.05L193.62,349.87 M189.85,351.44L190.02,351.51 M190.02,353.58L189.85,353.64 M191.48,355.04L191.40,355.22 M193.54,355.04L193.62,355.22 M195.00,353.58L195.17,353.64 M189.73,356.96L189.87,350.38 M191.62,190.67L191.62,193.43 M189.40,190.17L189.39,187.41 M187.14,188.69L187.15,191.46 M188.09,187.78L188.09,182.90 M189.37,186.59L189.37,181.71 M193.66,182.93L193.72,183.13 M191.50,183.13L191.60,182.93 M190.13,179.41L189.95,179.36 M191.59,177.95L191.50,177.78 M193.66,177.95L193.72,177.78 M195.12,179.41L195.27,179.36 M189.82,176.04L189.97,182.62 M237.12,327.71L237.90,333.66 M237.90,333.66L238.36,327.71 M255.37,332.47L255.54,332.54 M255.62,332.62L255.45,332.55 M255.54,330.62L255.37,330.55 M255.62,330.54L255.45,330.47 M254.46,331.98L254.87,332.12 M254.66,332.44L254.46,332.32 M254.44,332.00L254.81,332.16 M254.81,331.15L254.44,330.98 M254.66,330.73L254.46,330.65 M254.87,331.19L254.46,331.00 M253.67,331.93L253.40,331.80 M253.67,331.11L253.40,330.99 M253.72,331.98L253.45,331.84 M253.72,331.06L253.45,330.94 M254.77,329.59L254.91,329.68 M254.82,329.62L254.98,329.72 M254.82,330.40L254.99,330.47 M254.92,330.55L254.75,330.47 M254.44,330.55L254.21,330.45 M254.21,332.51L254.44,332.61 M254.76,332.53L254.92,332.61 M254.82,332.60L254.99,332.68 M254.98,333.44L254.83,333.38 M254.91,333.48L254.77,333.41 M254.16,330.83L253.93,330.73 M254.22,330.78L253.98,330.68 M254.16,331.03L253.92,330.92 M254.16,332.18L253.93,332.09 M254.22,332.24L253.98,332.14 M254.16,331.99L253.92,331.88 M249.16,330.39L248.92,330.32 M249.16,332.94L248.92,332.86 M248.98,330.21L248.73,330.13 M248.98,333.12L248.74,333.05 M255.07,328.77L255.21,328.84 M255.07,334.22L255.21,334.29 M249.96,330.11L249.70,330.00 M252.13,329.24L252.43,329.41 M249.96,332.86L249.70,332.74 M252.13,333.74L252.43,333.83 M252.83,334.61L252.65,334.52 M252.83,334.61L252.65,334.54 M254.64,334.52L254.82,334.61 M254.82,334.61L254.61,334.54 M252.83,328.59L252.65,328.52 M252.83,328.59L252.65,328.48 M254.64,328.52L254.82,328.59 M254.82,328.59L254.61,328.49 M252.93,332.76L253.23,332.96 M252.93,330.13L253.23,330.20 M249.45,333.95L249.28,333.87 M249.45,329.21L249.28,329.13 M249.82,333.16L249.58,333.05 M249.46,333.14L249.29,333.06 M249.46,330.02L249.29,329.94 M249.82,330.04L249.58,329.93 M253.62,331.16L253.86,331.24 M253.62,331.65L253.86,331.73 M255.37,332.47L255.54,332.54 M255.62,332.62L255.45,332.55 M255.54,330.62L255.37,330.55 M255.62,330.54L255.45,330.47 M254.46,331.98L254.87,332.12 M254.66,332.44L254.46,332.32 M254.44,332.00L254.81,332.16 M254.81,331.15L254.44,330.98 M254.66,330.73L254.46,330.65 M254.87,331.19L254.46,331.00 M253.67,331.93L253.40,331.80 M253.67,331.11L253.40,330.99 M253.72,331.98L253.45,331.84 M253.72,331.06L253.45,330.94 M254.77,329.59L254.91,329.68 M254.82,329.62L254.98,329.72 M254.82,330.40L254.99,330.47 M254.92,330.55L254.75,330.47 M254.44,330.55L254.21,330.45 M254.21,332.51L254.44,332.61 M254.76,332.53L254.92,332.61 M254.82,332.60L254.99,332.68 M254.98,333.44L254.83,333.38 M254.91,333.48L254.77,333.41 M254.16,330.83L253.93,330.73 M254.22,330.78L253.98,330.68 M254.16,331.03L253.92,330.92 M254.16,332.18L253.93,332.09 M254.22,332.24L253.98,332.14 M254.16,331.99L253.92,331.88 M249.16,330.39L248.92,330.32 M249.16,332.94L248.92,332.86 M248.98,330.21L248.73,330.13 M248.98,333.12L248.74,333.05 M255.07,328.77L255.21,328.84 M255.07,334.22L255.21,334.29 M249.96,330.11L249.70,330.00 M252.13,329.24L252.43,329.41 M249.96,332.86L249.70,332.74 M252.13,333.74L252.43,333.83 M252.83,334.61L252.65,334.52 M252.83,334.61L252.65,334.54 M254.64,334.52L254.82,334.61 M254.82,334.61L254.61,334.54 M252.83,328.59L252.65,328.52 M252.83,328.59L252.65,328.48 M254.64,328.52L254.82,328.59 M254.82,328.59L254.61,328.49 M252.93,332.76L253.23,332.96 M252.93,330.13L253.23,330.20 M249.45,333.95L249.28,333.87 M249.45,329.21L249.28,329.13 M249.82,333.16L249.58,333.05 M249.46,333.14L249.29,333.06 M249.46,330.02L249.29,329.94 M249.82,330.04L249.58,329.93 M253.62,331.16L253.86,331.24 M253.62,331.65L253.86,331.73 M245.23,334.99L244.91,334.85 M245.23,328.27L244.90,328.13 M231.69,328.26L231.37,328.12 M231.70,334.98L231.37,334.83 M225.86,210.29L224.83,208.72 M255.27,208.72L254.31,208.74 M224.79,208.71L225.70,208.72 M256.82,208.71L256.82,208.71 M256.82,208.71L256.82,208.71 M254.20,209.75L255.21,208.71 M256.82,216.05L256.63,216.10 M363.37,266.57L361.99,226.85 M363.37,266.57L361.95,225.79 M346.43,300.60L358.76,300.59 M346.43,301.98L358.76,301.98 M346.43,231.08L358.76,231.07 M346.43,232.47L358.76,232.46 M356.05,291.96L349.29,291.98 M349.30,294.44L356.05,294.43 M349.28,293.96L356.04,293.95 M356.05,238.62L349.29,238.64 M349.30,241.10L356.05,241.09 M364.92,292.43L355.97,292.45 M364.92,292.75L355.97,292.76 M364.93,293.78L355.97,293.79 M364.93,294.10L355.97,294.11 M364.92,239.15L355.97,239.17 M364.92,239.47L355.97,239.48 M364.93,240.49L355.97,240.51 M364.93,240.82L355.97,240.83 M233.27,297.62L240.51,297.62 M238.32,297.51L232.02,297.51 M201.14,282.30L201.14,297.51 M199.12,294.77L189.28,295.62 M199.52,295.15L188.91,296.05 M196.55,292.03L188.58,292.66 M199.53,294.34L199.53,285.48 M199.12,285.06L189.28,284.20 M199.52,284.68L188.91,283.78 M196.55,287.80L188.58,287.17 M203.49,286.25L203.49,293.61 M203.11,286.25L203.11,293.61 M202.12,286.63L202.12,293.23 M197.56,296.99L197.56,282.88 M201.14,235.69L201.14,250.90 M199.12,248.16L189.28,249.02 M199.52,248.54L188.91,249.44 M196.55,245.42L188.58,246.05 M199.53,247.74L199.53,238.88 M199.12,238.45L189.28,237.60 M199.52,238.07L188.91,237.17 M196.55,241.19L188.58,240.56 M203.49,239.64L203.49,247.01 M203.11,239.65L203.11,247.00 M202.12,240.02L202.12,246.62 M197.56,250.39L197.56,236.28 M274.40,224.15L274.49,217.58 M305.69,290.27L298.20,285.02 M177.35,228.57L177.17,305.70 M147.83,291.26L147.88,283.92 M168.94,315.03L176.14,314.94 M142.52,305.61L141.79,296.09 M141.77,293.64L142.57,283.52 M140.79,305.79L140.06,296.28 M140.04,293.90L140.85,283.72 M140.96,279.56L140.96,253.57 M143.53,281.50L143.53,251.63 M169.45,302.16L168.84,308.71 M148.25,278.32L148.25,254.82 M148.22,279.04L156.79,279.04 M167.96,309.48L148.72,304.38 M176.14,218.19L168.94,218.10 M142.52,227.52L141.79,237.04 M141.77,239.50L142.57,249.61 M140.79,227.34L140.06,236.85 M140.04,239.22L140.85,249.41 M169.45,230.97L168.84,224.42 M156.79,254.09L148.22,254.09 M167.96,223.65L148.72,228.74 M208.03,240.41L208.49,256.80" stroke="currentColor" stroke-width="0.6" stroke-linecap="round" fill="none" opacity="0.55" clip-path="url(#hull-clip)" filter="url(#glow)" />
  <path d="M 248.50,335.62 C 248.17,335.56 247.82,335.45 247.50,335.38 C 247.18,335.30 246.89,335.24 246.61,335.19 C 246.33,335.14 246.07,335.09 245.83,335.06 C 245.59,335.03 245.36,335.01 245.16,335.00 C 244.95,334.99 244.76,334.99 244.59,335.00 C 244.42,335.01 244.27,335.03 244.14,335.06 C 244.01,335.09 243.89,335.14 243.80,335.19 C 243.70,335.24 243.62,335.30 243.56,335.38 C 243.50,335.45 243.53,335.55 243.44,335.62 C 243.35,335.70 243.21,335.78 243.03,335.84 C 242.85,335.91 242.62,335.97 242.34,336.03 C 242.07,336.09 241.74,336.14 241.38,336.19 C 241.01,336.23 240.59,336.28 240.12,336.31 C 239.66,336.35 239.15,336.38 238.59,336.41 C 238.04,336.43 237.43,336.45 236.78,336.47 C 236.13,336.48 235.43,336.49 234.69,336.50 C 233.94,336.51 233.06,336.52 232.31,336.50 C 231.56,336.48 230.85,336.45 230.18,336.40 C 229.51,336.35 228.88,336.28 228.29,336.20 C 227.70,336.11 227.15,336.01 226.64,335.89 C 226.13,335.77 225.66,335.64 225.23,335.48 C 224.81,335.33 224.42,335.16 224.07,334.98 C 223.72,334.79 223.42,334.59 223.15,334.37 C 222.88,334.15 222.65,333.91 222.47,333.66 C 222.28,333.40 222.16,333.11 222.03,332.84 C 221.90,332.58 221.79,332.32 221.70,332.06 C 221.61,331.81 221.54,331.56 221.48,331.31 C 221.43,331.07 221.39,330.83 221.38,330.59 C 221.36,330.36 221.36,330.13 221.38,329.91 C 221.39,329.68 221.43,329.46 221.48,329.25 C 221.54,329.04 221.61,328.83 221.70,328.62 C 221.79,328.42 221.90,328.22 222.03,328.03 C 222.16,327.84 222.31,327.64 222.47,327.47 C 222.63,327.30 222.80,327.14 222.98,327.01 C 223.16,326.87 223.35,326.75 223.55,326.65 C 223.76,326.55 223.98,326.46 224.20,326.39 C 224.43,326.32 224.67,326.27 224.92,326.23 C 225.17,326.20 225.44,326.18 225.71,326.18 C 225.99,326.18 226.27,326.19 226.57,326.23 C 226.87,326.26 227.18,326.31 227.50,326.38 C 227.82,326.44 228.18,326.55 228.50,326.62 C 228.82,326.70 229.12,326.76 229.40,326.82 C 229.68,326.88 229.95,326.92 230.20,326.96 C 230.44,327.00 230.68,327.03 230.89,327.05 C 231.11,327.07 231.30,327.08 231.48,327.08 C 231.67,327.08 231.83,327.07 231.98,327.05 C 232.12,327.04 232.25,327.01 232.37,326.98 C 232.48,326.94 232.58,326.90 232.66,326.84 C 232.74,326.79 232.79,326.73 232.84,326.66 C 232.89,326.58 232.93,326.50 232.96,326.41 C 232.99,326.32 233.00,326.23 233.01,326.12 C 233.01,326.01 233.00,325.89 232.98,325.77 C 232.96,325.64 232.93,325.50 232.89,325.36 C 232.85,325.21 232.79,325.06 232.73,324.90 C 232.66,324.74 232.58,324.56 232.49,324.38 C 232.40,324.20 232.30,324.01 232.19,323.81 C 232.07,323.61 231.92,323.39 231.81,323.19 C 231.70,322.98 231.61,322.78 231.52,322.59 C 231.44,322.39 231.37,322.20 231.32,322.01 C 231.27,321.82 231.23,321.63 231.20,321.45 C 231.18,321.27 231.17,321.10 231.17,320.92 C 231.18,320.75 231.19,320.58 231.23,320.41 C 231.26,320.25 231.31,320.09 231.37,319.93 C 231.43,319.77 231.50,319.62 231.59,319.47 C 231.68,319.32 231.86,319.16 231.91,319.03 C 231.95,318.90 231.93,318.80 231.85,318.71 C 231.77,318.62 231.63,318.56 231.43,318.51 C 231.23,318.46 230.96,318.43 230.64,318.42 C 230.32,318.41 229.93,318.42 229.48,318.45 C 229.04,318.48 228.53,318.53 227.96,318.60 C 227.39,318.67 226.76,318.76 226.07,318.87 C 225.38,318.98 224.63,319.10 223.81,319.25 C 223.00,319.40 222.05,319.61 221.19,319.75 C 220.32,319.89 219.47,320.01 218.62,320.11 C 217.78,320.21 216.95,320.28 216.12,320.33 C 215.30,320.38 214.49,320.40 213.69,320.41 C 212.89,320.41 212.09,320.39 211.31,320.34 C 210.53,320.30 209.76,320.23 209.00,320.14 C 208.24,320.05 207.49,319.93 206.75,319.80 C 206.01,319.66 205.28,319.50 204.56,319.31 C 203.84,319.13 203.11,318.87 202.44,318.69 C 201.76,318.51 201.11,318.36 200.50,318.23 C 199.89,318.11 199.30,318.02 198.75,317.95 C 198.20,317.89 197.68,317.85 197.19,317.84 C 196.70,317.84 196.24,317.86 195.81,317.91 C 195.39,317.96 194.99,318.03 194.62,318.14 C 194.26,318.25 193.93,318.38 193.62,318.55 C 193.32,318.71 193.05,318.90 192.81,319.12 C 192.57,319.35 192.39,319.64 192.19,319.88 C 191.99,320.11 191.79,320.33 191.61,320.53 C 191.42,320.73 191.25,320.92 191.08,321.09 C 190.91,321.27 190.75,321.42 190.59,321.56 C 190.44,321.70 190.29,321.83 190.16,321.94 C 190.02,322.05 189.89,322.14 189.77,322.22 C 189.64,322.30 189.53,322.36 189.42,322.41 C 189.32,322.45 189.22,322.48 189.12,322.50 C 189.03,322.52 188.96,322.51 188.88,322.50 C 188.79,322.49 188.69,322.46 188.59,322.42 C 188.49,322.38 188.39,322.33 188.28,322.27 C 188.17,322.20 188.06,322.12 187.94,322.03 C 187.82,321.94 187.69,321.84 187.56,321.72 C 187.43,321.60 187.30,321.47 187.16,321.33 C 187.02,321.18 186.87,321.03 186.72,320.86 C 186.57,320.69 186.41,320.51 186.25,320.31 C 186.09,320.12 185.97,319.89 185.75,319.69 C 185.53,319.49 185.25,319.30 184.92,319.12 C 184.59,318.95 184.21,318.78 183.77,318.62 C 183.33,318.47 182.83,318.32 182.28,318.19 C 181.73,318.05 181.13,317.93 180.47,317.81 C 179.81,317.70 179.10,317.59 178.33,317.50 C 177.56,317.41 176.74,317.32 175.86,317.25 C 174.98,317.18 174.05,317.11 173.06,317.06 C 172.08,317.01 170.95,316.98 169.94,316.94 C 168.92,316.89 167.94,316.84 166.98,316.78 C 166.03,316.72 165.10,316.66 164.20,316.59 C 163.30,316.53 162.43,316.45 161.59,316.38 C 160.75,316.30 159.94,316.21 159.16,316.12 C 158.37,316.04 157.62,315.94 156.89,315.84 C 156.16,315.74 155.47,315.64 154.80,315.53 C 154.13,315.42 153.49,315.31 152.88,315.19 C 152.26,315.07 151.69,314.95 151.12,314.81 C 150.56,314.68 150.02,314.53 149.49,314.37 C 148.97,314.21 148.46,314.04 147.98,313.85 C 147.49,313.67 147.02,313.47 146.58,313.27 C 146.13,313.06 145.70,312.84 145.30,312.61 C 144.89,312.38 144.50,312.14 144.13,311.88 C 143.76,311.63 143.42,311.36 143.09,311.09 C 142.76,310.81 142.45,310.52 142.16,310.22 C 141.87,309.92 141.60,309.78 141.34,309.28 C 141.09,308.78 140.85,308.09 140.63,307.21 C 140.41,306.33 140.21,305.26 140.02,304.01 C 139.84,302.75 139.67,301.31 139.52,299.67 C 139.36,298.04 139.23,296.21 139.11,294.20 C 138.99,292.19 138.89,289.99 138.80,287.60 C 138.72,285.21 138.65,282.63 138.60,279.87 C 138.55,277.10 138.52,274.14 138.50,271.00 C 138.48,267.86 138.48,264.15 138.50,261.00 C 138.52,257.85 138.57,254.89 138.63,252.12 C 138.70,249.34 138.79,246.75 138.90,244.35 C 139.01,241.95 139.14,239.73 139.30,237.70 C 139.45,235.67 139.63,233.83 139.83,232.17 C 140.03,230.51 140.25,229.04 140.49,227.76 C 140.74,226.47 141.00,225.37 141.29,224.46 C 141.58,223.55 141.89,222.82 142.22,222.28 C 142.55,221.74 142.85,221.56 143.28,221.22 C 143.71,220.88 144.21,220.55 144.79,220.24 C 145.37,219.93 146.02,219.63 146.74,219.35 C 147.47,219.07 148.27,218.80 149.14,218.55 C 150.01,218.29 150.96,218.05 151.98,217.83 C 153.01,217.60 154.10,217.39 155.27,217.20 C 156.44,217.00 157.69,216.82 159.01,216.65 C 160.33,216.48 161.72,216.33 163.19,216.19 C 164.65,216.05 166.36,215.94 167.81,215.81 C 169.27,215.68 170.64,215.55 171.92,215.41 C 173.21,215.27 174.40,215.12 175.52,214.97 C 176.63,214.82 177.65,214.66 178.59,214.50 C 179.53,214.34 180.39,214.17 181.16,214.00 C 181.92,213.83 182.61,213.65 183.20,213.47 C 183.80,213.29 184.31,213.10 184.73,212.91 C 185.16,212.71 185.50,212.52 185.75,212.31 C 186.00,212.11 186.07,211.87 186.25,211.69 C 186.43,211.51 186.62,211.36 186.83,211.23 C 187.03,211.11 187.25,211.02 187.48,210.95 C 187.72,210.89 187.96,210.85 188.22,210.84 C 188.48,210.84 188.75,210.86 189.03,210.91 C 189.32,210.96 189.61,211.03 189.92,211.14 C 190.23,211.25 190.55,211.38 190.89,211.55 C 191.23,211.71 191.58,211.90 191.94,212.12 C 192.30,212.35 192.67,212.65 193.06,212.88 C 193.45,213.10 193.86,213.29 194.28,213.45 C 194.70,213.62 195.14,213.75 195.59,213.86 C 196.05,213.97 196.52,214.04 197.00,214.09 C 197.48,214.14 197.98,214.16 198.50,214.16 C 199.02,214.15 199.55,214.11 200.09,214.05 C 200.64,213.98 201.20,213.89 201.78,213.77 C 202.36,213.64 202.95,213.49 203.56,213.31 C 204.17,213.13 204.83,212.88 205.44,212.69 C 206.04,212.49 206.62,212.31 207.19,212.14 C 207.75,211.97 208.29,211.82 208.81,211.67 C 209.33,211.53 209.83,211.40 210.31,211.28 C 210.79,211.16 211.25,211.06 211.69,210.97 C 212.12,210.88 212.54,210.80 212.94,210.73 C 213.33,210.67 213.71,210.62 214.06,210.58 C 214.42,210.54 214.75,210.51 215.06,210.50 C 215.38,210.49 215.66,210.51 215.94,210.50 C 216.21,210.49 216.48,210.47 216.73,210.45 C 216.98,210.42 217.21,210.38 217.43,210.34 C 217.65,210.29 217.86,210.24 218.05,210.17 C 218.24,210.11 218.42,210.04 218.58,209.95 C 218.74,209.87 218.89,209.78 219.02,209.68 C 219.16,209.58 219.28,209.47 219.38,209.35 C 219.49,209.23 219.58,209.11 219.66,208.97 C 219.73,208.83 219.77,208.67 219.84,208.53 C 219.91,208.39 219.99,208.25 220.08,208.11 C 220.16,207.97 220.26,207.84 220.36,207.70 C 220.46,207.57 220.57,207.44 220.69,207.31 C 220.80,207.18 220.93,207.06 221.06,206.94 C 221.20,206.82 221.34,206.70 221.48,206.58 C 221.63,206.46 221.79,206.35 221.95,206.23 C 222.12,206.12 222.29,206.01 222.47,205.91 C 222.65,205.80 222.84,205.68 223.03,205.59 C 223.23,205.50 223.43,205.43 223.63,205.37 C 223.84,205.31 224.05,205.26 224.27,205.23 C 224.49,205.19 224.72,205.18 224.95,205.17 C 225.19,205.17 225.43,205.18 225.67,205.20 C 225.92,205.23 226.17,205.27 226.43,205.32 C 226.69,205.37 226.95,205.44 227.23,205.52 C 227.50,205.61 227.78,205.70 228.06,205.81 C 228.35,205.92 228.62,206.07 228.94,206.19 C 229.25,206.30 229.58,206.41 229.94,206.52 C 230.29,206.62 230.67,206.71 231.06,206.80 C 231.46,206.88 231.88,206.96 232.31,207.03 C 232.75,207.10 233.21,207.16 233.69,207.22 C 234.17,207.27 234.67,207.32 235.19,207.36 C 235.71,207.40 236.25,207.43 236.81,207.45 C 237.38,207.48 237.96,207.49 238.56,207.50 C 239.17,207.51 239.83,207.51 240.44,207.50 C 241.04,207.49 241.62,207.48 242.19,207.45 C 242.75,207.43 243.29,207.40 243.81,207.36 C 244.33,207.32 244.83,207.27 245.31,207.22 C 245.79,207.16 246.25,207.10 246.69,207.03 C 247.12,206.96 247.54,206.88 247.94,206.80 C 248.33,206.71 248.71,206.62 249.06,206.52 C 249.42,206.41 249.75,206.30 250.06,206.19 C 250.38,206.07 250.66,205.93 250.94,205.81 C 251.22,205.70 251.49,205.59 251.75,205.50 C 252.01,205.41 252.26,205.32 252.50,205.25 C 252.74,205.18 252.97,205.11 253.19,205.06 C 253.41,205.01 253.61,204.97 253.81,204.94 C 254.01,204.91 254.20,204.89 254.38,204.88 C 254.55,204.86 254.72,204.86 254.88,204.88 C 255.03,204.89 255.18,204.91 255.31,204.94 C 255.45,204.97 255.56,205.01 255.69,205.06 C 255.81,205.11 255.94,205.18 256.06,205.25 C 256.19,205.32 256.31,205.41 256.44,205.50 C 256.56,205.59 256.69,205.70 256.81,205.81 C 256.94,205.93 257.06,206.05 257.19,206.19 C 257.31,206.32 257.44,206.47 257.56,206.62 C 257.69,206.78 257.81,206.95 257.94,207.12 C 258.06,207.30 258.19,207.49 258.31,207.69 C 258.44,207.89 258.55,208.12 258.69,208.31 C 258.82,208.51 258.96,208.69 259.11,208.86 C 259.26,209.03 259.41,209.18 259.58,209.33 C 259.74,209.47 259.91,209.60 260.09,209.72 C 260.27,209.84 260.46,209.94 260.66,210.03 C 260.85,210.12 261.05,210.20 261.27,210.27 C 261.48,210.33 261.70,210.38 261.92,210.42 C 262.15,210.46 262.38,210.49 262.62,210.50 C 262.87,210.51 263.14,210.51 263.38,210.50 C 263.61,210.49 263.84,210.46 264.05,210.43 C 264.27,210.39 264.47,210.35 264.66,210.29 C 264.86,210.23 265.04,210.16 265.20,210.08 C 265.37,210.00 265.53,209.90 265.67,209.80 C 265.82,209.69 265.95,209.57 266.07,209.45 C 266.19,209.32 266.30,209.18 266.40,209.02 C 266.50,208.87 266.58,208.71 266.66,208.53 C 266.73,208.36 266.78,208.15 266.84,207.97 C 266.91,207.79 266.98,207.62 267.05,207.45 C 267.12,207.29 267.19,207.13 267.27,206.98 C 267.34,206.84 267.42,206.70 267.50,206.56 C 267.58,206.43 267.66,206.30 267.75,206.19 C 267.84,206.07 267.92,205.96 268.02,205.86 C 268.11,205.76 268.20,205.66 268.30,205.58 C 268.39,205.49 268.49,205.41 268.59,205.34 C 268.70,205.27 268.76,205.22 268.91,205.16 C 269.06,205.10 269.25,205.04 269.49,204.98 C 269.73,204.92 270.02,204.86 270.35,204.80 C 270.68,204.75 271.06,204.69 271.48,204.64 C 271.91,204.59 272.38,204.54 272.89,204.48 C 273.40,204.43 273.96,204.38 274.57,204.34 C 275.18,204.29 275.83,204.24 276.52,204.20 C 277.22,204.15 277.96,204.11 278.75,204.06 C 279.54,204.02 280.38,203.99 281.25,203.94 C 282.12,203.88 283.02,203.82 283.95,203.73 C 284.89,203.65 285.86,203.56 286.86,203.45 C 287.86,203.35 288.90,203.23 289.97,203.09 C 291.04,202.96 292.14,202.82 293.28,202.66 C 294.42,202.50 295.59,202.33 296.80,202.14 C 298.00,201.96 299.24,201.76 300.52,201.55 C 301.79,201.34 303.10,201.11 304.44,200.88 C 305.78,200.64 307.22,200.36 308.56,200.12 C 309.90,199.89 311.20,199.66 312.47,199.45 C 313.73,199.24 314.96,199.04 316.16,198.86 C 317.35,198.67 318.51,198.50 319.62,198.34 C 320.74,198.18 321.83,198.04 322.88,197.91 C 323.92,197.77 324.93,197.65 325.91,197.55 C 326.88,197.44 327.82,197.35 328.72,197.27 C 329.62,197.18 330.48,197.12 331.31,197.06 C 332.14,197.01 332.91,196.96 333.69,196.94 C 334.46,196.91 335.22,196.90 335.97,196.91 C 336.71,196.91 337.44,196.93 338.16,196.97 C 338.87,197.01 339.57,197.06 340.25,197.12 C 340.93,197.19 341.60,197.28 342.25,197.38 C 342.90,197.47 343.54,197.59 344.16,197.72 C 344.78,197.85 345.38,197.99 345.97,198.16 C 346.56,198.32 347.13,198.49 347.69,198.69 C 348.24,198.88 348.80,199.11 349.31,199.31 C 349.83,199.52 350.32,199.71 350.78,199.91 C 351.24,200.10 351.68,200.29 352.09,200.47 C 352.51,200.65 352.89,200.83 353.25,201.00 C 353.61,201.17 353.94,201.34 354.25,201.50 C 354.56,201.66 354.84,201.82 355.09,201.97 C 355.35,202.12 355.58,202.27 355.78,202.41 C 355.98,202.55 356.16,202.68 356.31,202.81 C 356.46,202.94 356.55,203.07 356.69,203.19 C 356.82,203.30 356.97,203.41 357.12,203.52 C 357.28,203.62 357.45,203.71 357.62,203.80 C 357.80,203.88 357.99,203.96 358.19,204.03 C 358.39,204.10 358.59,204.16 358.81,204.22 C 359.03,204.27 359.26,204.32 359.50,204.36 C 359.74,204.40 359.99,204.43 360.25,204.45 C 360.51,204.48 360.78,204.49 361.06,204.50 C 361.34,204.51 361.66,204.49 361.94,204.50 C 362.22,204.51 362.49,204.52 362.74,204.54 C 363.00,204.56 363.24,204.58 363.48,204.62 C 363.71,204.65 363.93,204.69 364.14,204.73 C 364.35,204.78 364.55,204.83 364.73,204.89 C 364.92,204.95 365.10,205.01 365.26,205.09 C 365.42,205.16 365.57,205.24 365.71,205.32 C 365.85,205.40 365.98,205.50 366.09,205.59 C 366.21,205.69 366.31,205.78 366.41,205.91 C 366.50,206.03 366.58,206.17 366.66,206.33 C 366.73,206.49 366.79,206.66 366.84,206.86 C 366.90,207.05 366.94,207.27 366.97,207.50 C 367.00,207.73 367.02,207.98 367.03,208.25 C 367.04,208.52 367.04,208.80 367.03,209.11 C 367.02,209.41 367.00,209.74 366.97,210.08 C 366.94,210.42 366.90,210.78 366.84,211.16 C 366.79,211.53 366.66,211.96 366.66,212.34 C 366.65,212.73 366.70,213.10 366.80,213.47 C 366.90,213.83 367.05,214.19 367.27,214.53 C 367.48,214.88 367.74,215.21 368.06,215.53 C 368.38,215.85 368.76,216.17 369.19,216.47 C 369.62,216.77 370.10,217.06 370.64,217.34 C 371.18,217.62 371.77,217.90 372.42,218.16 C 373.07,218.42 373.77,218.67 374.53,218.91 C 375.29,219.15 376.21,219.34 376.97,219.59 C 377.73,219.85 378.43,220.13 379.09,220.43 C 379.74,220.73 380.34,221.06 380.88,221.41 C 381.43,221.77 381.92,222.14 382.36,222.55 C 382.80,222.95 383.18,223.38 383.52,223.83 C 383.85,224.28 384.13,224.76 384.35,225.26 C 384.58,225.76 384.75,226.29 384.87,226.84 C 384.99,227.39 385.05,227.96 385.06,228.56 C 385.07,229.16 385.01,229.83 384.94,230.44 C 384.86,231.05 384.75,231.64 384.61,232.22 C 384.47,232.80 384.29,233.36 384.08,233.91 C 383.87,234.45 383.62,234.98 383.34,235.50 C 383.07,236.02 382.75,236.52 382.41,237.00 C 382.06,237.48 381.68,237.95 381.27,238.41 C 380.85,238.86 380.40,239.30 379.92,239.72 C 379.44,240.14 378.92,240.55 378.38,240.94 C 377.83,241.33 377.17,241.61 376.62,242.06 C 376.08,242.52 375.57,243.05 375.09,243.67 C 374.62,244.29 374.18,244.99 373.78,245.77 C 373.38,246.54 373.02,247.40 372.69,248.34 C 372.36,249.28 372.07,250.30 371.81,251.41 C 371.56,252.51 371.34,253.69 371.16,254.95 C 370.97,256.22 370.83,257.56 370.72,258.98 C 370.61,260.41 370.54,261.91 370.50,263.50 C 370.46,265.09 370.46,266.91 370.50,268.50 C 370.54,270.09 370.61,271.59 370.72,273.02 C 370.83,274.44 370.97,275.78 371.16,277.05 C 371.34,278.31 371.56,279.49 371.81,280.59 C 372.07,281.70 372.36,282.72 372.69,283.66 C 373.02,284.60 373.38,285.46 373.78,286.23 C 374.18,287.01 374.62,287.71 375.09,288.33 C 375.57,288.95 376.08,289.48 376.62,289.94 C 377.17,290.39 377.83,290.67 378.38,291.06 C 378.92,291.45 379.44,291.86 379.92,292.28 C 380.40,292.70 380.85,293.14 381.27,293.59 C 381.68,294.05 382.06,294.52 382.41,295.00 C 382.75,295.48 383.07,295.98 383.34,296.50 C 383.62,297.02 383.87,297.55 384.08,298.09 C 384.29,298.64 384.47,299.20 384.61,299.78 C 384.75,300.36 384.86,300.95 384.94,301.56 C 385.01,302.17 385.07,302.84 385.06,303.44 C 385.05,304.04 384.99,304.61 384.87,305.16 C 384.75,305.71 384.58,306.24 384.35,306.74 C 384.13,307.24 383.85,307.72 383.52,308.17 C 383.18,308.62 382.80,309.05 382.36,309.45 C 381.92,309.86 381.43,310.23 380.88,310.59 C 380.34,310.94 379.74,311.27 379.09,311.57 C 378.43,311.87 377.73,312.15 376.97,312.41 C 376.21,312.66 375.29,312.87 374.53,313.09 C 373.77,313.32 373.07,313.53 372.42,313.73 C 371.77,313.94 371.18,314.14 370.64,314.33 C 370.10,314.52 369.62,314.70 369.19,314.88 C 368.76,315.05 368.38,315.22 368.06,315.38 C 367.74,315.53 367.48,315.68 367.27,315.83 C 367.05,315.97 366.90,316.11 366.80,316.23 C 366.70,316.36 366.65,316.48 366.66,316.59 C 366.66,316.71 366.79,316.78 366.84,316.91 C 366.90,317.03 366.95,317.17 366.98,317.33 C 367.02,317.49 367.05,317.66 367.08,317.86 C 367.10,318.05 367.12,318.27 367.12,318.50 C 367.13,318.73 367.13,318.98 367.12,319.25 C 367.12,319.52 367.10,319.80 367.08,320.11 C 367.05,320.41 367.02,320.74 366.98,321.08 C 366.95,321.42 366.90,321.78 366.84,322.16 C 366.79,322.53 366.73,322.97 366.66,323.34 C 366.58,323.71 366.49,324.06 366.38,324.38 C 366.28,324.70 366.16,325.00 366.02,325.27 C 365.89,325.55 365.74,325.79 365.58,326.02 C 365.42,326.24 365.24,326.44 365.05,326.61 C 364.86,326.78 364.65,326.93 364.43,327.05 C 364.21,327.18 363.98,327.28 363.73,327.35 C 363.48,327.43 363.21,327.48 362.94,327.50 C 362.66,327.52 362.38,327.48 362.06,327.50 C 361.75,327.52 361.41,327.56 361.05,327.62 C 360.68,327.69 360.30,327.77 359.89,327.88 C 359.48,327.98 359.05,328.10 358.59,328.25 C 358.14,328.40 357.66,328.56 357.16,328.75 C 356.65,328.94 356.13,329.15 355.58,329.38 C 355.03,329.60 354.46,329.85 353.86,330.12 C 353.26,330.40 352.64,330.69 352.00,331.00 C 351.36,331.31 350.68,331.69 350.00,332.00 C 349.32,332.31 348.64,332.60 347.94,332.86 C 347.24,333.12 346.53,333.36 345.81,333.58 C 345.09,333.79 344.36,333.99 343.62,334.16 C 342.89,334.33 342.14,334.47 341.38,334.59 C 340.61,334.72 339.84,334.82 339.06,334.89 C 338.28,334.97 337.49,335.02 336.69,335.05 C 335.89,335.08 335.07,335.08 334.25,335.06 C 333.43,335.04 332.60,334.99 331.75,334.94 C 330.90,334.88 330.02,334.82 329.12,334.73 C 328.23,334.65 327.31,334.56 326.38,334.45 C 325.44,334.35 324.48,334.23 323.50,334.09 C 322.52,333.96 321.52,333.82 320.50,333.66 C 319.48,333.50 318.44,333.33 317.38,333.14 C 316.31,332.96 315.23,332.76 314.12,332.55 C 313.02,332.34 311.90,332.11 310.75,331.88 C 309.60,331.64 308.40,331.36 307.25,331.12 C 306.10,330.89 304.97,330.67 303.86,330.47 C 302.75,330.27 301.65,330.08 300.58,329.91 C 299.50,329.73 298.45,329.58 297.41,329.44 C 296.37,329.30 295.35,329.17 294.34,329.06 C 293.34,328.95 292.36,328.86 291.39,328.78 C 290.42,328.70 289.48,328.64 288.55,328.59 C 287.62,328.55 286.71,328.52 285.81,328.50 C 284.92,328.48 284.02,328.51 283.19,328.50 C 282.35,328.49 281.55,328.48 280.79,328.46 C 280.03,328.44 279.30,328.42 278.62,328.38 C 277.93,328.35 277.28,328.31 276.67,328.27 C 276.06,328.22 275.49,328.17 274.95,328.11 C 274.42,328.05 273.92,327.99 273.46,327.91 C 273.00,327.84 272.58,327.76 272.20,327.68 C 271.81,327.60 271.46,327.50 271.16,327.41 C 270.85,327.31 270.60,327.21 270.34,327.09 C 270.09,326.98 269.85,326.84 269.63,326.70 C 269.41,326.55 269.21,326.39 269.02,326.21 C 268.84,326.04 268.67,325.85 268.52,325.64 C 268.36,325.44 268.23,325.22 268.11,324.98 C 267.99,324.75 267.89,324.50 267.80,324.24 C 267.72,323.98 267.65,323.70 267.60,323.41 C 267.55,323.12 267.52,322.82 267.50,322.50 C 267.48,322.18 267.50,321.82 267.50,321.50 C 267.50,321.18 267.49,320.88 267.48,320.60 C 267.46,320.32 267.45,320.05 267.43,319.80 C 267.41,319.56 267.39,319.32 267.36,319.11 C 267.33,318.89 267.30,318.70 267.27,318.52 C 267.23,318.33 267.19,318.17 267.15,318.02 C 267.11,317.88 267.06,317.75 267.01,317.63 C 266.96,317.52 266.90,317.42 266.84,317.34 C 266.79,317.26 266.76,317.21 266.66,317.16 C 266.55,317.10 266.39,317.04 266.20,316.99 C 266.00,316.94 265.75,316.89 265.46,316.85 C 265.17,316.81 264.83,316.77 264.45,316.73 C 264.07,316.70 263.64,316.67 263.17,316.64 C 262.70,316.61 262.18,316.59 261.62,316.57 C 261.05,316.55 260.44,316.54 259.79,316.52 C 259.13,316.51 258.43,316.50 257.69,316.50 C 256.94,316.50 256.06,316.49 255.31,316.50 C 254.57,316.51 253.87,316.52 253.22,316.53 C 252.57,316.55 251.96,316.57 251.41,316.59 C 250.85,316.62 250.34,316.65 249.88,316.69 C 249.41,316.72 248.99,316.77 248.62,316.81 C 248.26,316.86 247.93,316.91 247.66,316.97 C 247.38,317.03 247.15,317.09 246.97,317.16 C 246.79,317.22 246.65,317.30 246.56,317.38 C 246.47,317.45 246.49,317.55 246.44,317.62 C 246.39,317.70 246.33,317.78 246.26,317.85 C 246.19,317.92 246.11,317.99 246.02,318.05 C 245.94,318.12 245.84,318.18 245.73,318.23 C 245.63,318.29 245.51,318.34 245.39,318.39 C 245.27,318.44 245.13,318.48 244.99,318.52 C 244.85,318.56 244.70,318.60 244.54,318.63 C 244.38,318.67 244.21,318.69 244.03,318.72 C 243.85,318.74 243.64,318.76 243.47,318.78 C 243.30,318.80 243.15,318.83 243.02,318.85 C 242.89,318.88 242.79,318.90 242.70,318.93 C 242.61,318.96 242.54,318.99 242.48,319.02 C 242.43,319.05 242.40,319.08 242.39,319.11 C 242.38,319.14 242.39,319.18 242.41,319.21 C 242.44,319.25 242.49,319.28 242.55,319.32 C 242.62,319.36 242.71,319.40 242.81,319.44 C 242.92,319.48 243.07,319.51 243.19,319.56 C 243.30,319.62 243.41,319.69 243.50,319.78 C 243.59,319.87 243.68,319.97 243.75,320.09 C 243.82,320.21 243.89,320.35 243.94,320.50 C 243.99,320.65 244.03,320.82 244.06,321.00 C 244.09,321.18 244.11,321.38 244.12,321.59 C 244.14,321.81 244.14,322.04 244.12,322.28 C 244.11,322.53 244.09,322.79 244.06,323.06 C 244.03,323.34 243.95,323.67 243.94,323.94 C 243.92,324.21 243.93,324.45 243.96,324.68 C 243.99,324.90 244.05,325.11 244.13,325.29 C 244.21,325.47 244.32,325.63 244.45,325.77 C 244.58,325.90 244.74,326.02 244.92,326.11 C 245.10,326.20 245.31,326.27 245.54,326.32 C 245.77,326.37 246.02,326.39 246.30,326.40 C 246.58,326.40 246.89,326.38 247.22,326.34 C 247.55,326.30 247.93,326.20 248.28,326.16 C 248.63,326.11 248.97,326.09 249.31,326.08 C 249.65,326.07 249.98,326.08 250.31,326.11 C 250.64,326.14 250.96,326.18 251.28,326.25 C 251.60,326.32 251.91,326.40 252.22,326.50 C 252.53,326.60 252.83,326.72 253.12,326.86 C 253.42,327.00 253.71,327.15 254.00,327.33 C 254.29,327.50 254.57,327.70 254.84,327.91 C 255.12,328.12 255.42,328.36 255.66,328.59 C 255.89,328.82 256.10,329.05 256.27,329.28 C 256.43,329.51 256.57,329.74 256.67,329.97 C 256.77,330.20 256.84,330.43 256.88,330.66 C 256.91,330.89 256.91,331.11 256.88,331.34 C 256.84,331.57 256.77,331.80 256.67,332.03 C 256.57,332.26 256.43,332.49 256.27,332.72 C 256.10,332.95 255.89,333.18 255.66,333.41 C 255.42,333.64 255.12,333.88 254.84,334.09 C 254.57,334.30 254.29,334.49 254.01,334.66 C 253.73,334.83 253.44,334.99 253.15,335.12 C 252.86,335.25 252.56,335.36 252.27,335.45 C 251.97,335.55 251.67,335.62 251.36,335.67 C 251.05,335.73 250.74,335.76 250.43,335.77 C 250.12,335.79 249.80,335.78 249.48,335.76 C 249.15,335.73 248.83,335.69 248.50,335.62 Z" fill="none" stroke="currentColor" stroke-width="1.5" stroke-linejoin="round" stroke-linecap="round" filter="url(#glow)" />
</svg>