<svg xmlns="http://www.w3.org/2000/svg" width="512" height="512" viewBox="122.50 196.50 208.00 120.00" preserveAspectRatio="xMidYMid meet">
  <defs>
    <filter id="glow" x="-30%" y="-30%" width="160%" height="160%">
      <feGaussianBlur in="SourceGraphic" stdDeviation="2.4" result="blur" />
      <feMerge>
        <feMergeNode in="blur" />
        <feMergeNode in="SourceGraphic" />
      </feMerge>
    </filter>
    <clipPath id="hull-clip">
      <path d="M 262.12,306.50 C 259.49,306.51 256.50,306.51 253.88,306.50 C 251.25,306.49 248.74,306.48 246.36,306.45 C 243.98,306.43 241.72,306.40 239.58,306.36 C 237.44,306.32 235.42,306.27 233.53,306.22 C 231.64,306.16 229.87,306.10 228.22,306.03 C 226.57,305.96 225.04,305.88 223.64,305.80 C 222.24,305.71 220.96,305.62 219.80,305.52 C 218.64,305.41 217.60,305.30 216.69,305.19 C 215.77,305.07 215.22,304.94 214.31,304.81 C 213.41,304.69 212.39,304.56 211.25,304.44 C 210.11,304.31 208.86,304.19 207.50,304.06 C 206.14,303.94 204.66,303.81 203.06,303.69 C 201.47,303.56 199.76,303.44 197.94,303.31 C 196.11,303.19 194.18,303.06 192.12,302.94 C 190.07,302.81 187.91,302.69 185.62,302.56 C 183.34,302.44 180.95,302.31 178.44,302.19 C 175.93,302.06 173.05,301.94 170.56,301.81 C 168.08,301.68 165.73,301.55 163.52,301.42 C 161.30,301.29 159.23,301.15 157.30,301.02 C 155.36,300.88 153.57,300.74 151.91,300.59 C 150.25,300.45 148.73,300.30 147.34,300.16 C 145.96,300.01 144.72,299.86 143.61,299.70 C 142.50,299.55 141.53,299.39 140.70,299.23 C 139.87,299.08 139.18,298.91 138.62,298.75 C 138.07,298.59 137.77,298.44 137.38,298.25 C 136.98,298.06 136.62,297.84 136.27,297.60 C 135.93,297.36 135.61,297.10 135.32,296.80 C 135.03,296.51 134.76,296.20 134.52,295.86 C 134.27,295.52 134.05,295.15 133.86,294.77 C 133.67,294.38 133.50,293.96 133.35,293.52 C 133.21,293.08 133.09,292.62 132.99,292.13 C 132.90,291.64 132.83,291.13 132.78,290.59 C 132.74,290.06 132.71,289.45 132.72,288.91 C 132.73,288.37 132.76,287.85 132.82,287.35 C 132.88,286.86 132.97,286.38 133.09,285.93 C 133.20,285.48 133.35,285.05 133.52,284.64 C 133.69,284.23 133.88,283.85 134.11,283.48 C 134.33,283.12 134.59,282.78 134.87,282.46 C 135.15,282.14 135.45,281.85 135.79,281.57 C 136.12,281.30 136.49,281.04 136.88,280.81 C 137.26,280.58 137.73,280.49 138.12,280.19 C 138.52,279.88 138.88,279.48 139.22,278.98 C 139.56,278.49 139.87,277.89 140.16,277.20 C 140.44,276.51 140.70,275.73 140.94,274.84 C 141.17,273.96 141.38,272.98 141.56,271.91 C 141.74,270.83 141.90,269.66 142.03,268.39 C 142.16,267.12 142.27,265.76 142.34,264.30 C 142.42,262.84 142.47,261.28 142.50,259.62 C 142.53,257.97 142.53,256.03 142.50,254.38 C 142.47,252.72 142.42,251.16 142.34,249.69 C 142.27,248.22 142.16,246.84 142.03,245.56 C 141.90,244.28 141.74,243.09 141.56,242.00 C 141.38,240.91 141.17,239.91 140.94,239.00 C 140.70,238.09 140.44,237.28 140.16,236.56 C 139.87,235.84 139.56,235.22 139.22,234.69 C 138.88,234.16 138.52,233.72 138.12,233.38 C 137.73,233.03 137.27,232.89 136.88,232.62 C 136.48,232.36 136.12,232.07 135.78,231.77 C 135.44,231.46 135.13,231.14 134.84,230.80 C 134.56,230.46 134.30,230.10 134.06,229.72 C 133.83,229.34 133.62,228.95 133.44,228.53 C 133.26,228.12 133.10,227.68 132.97,227.23 C 132.84,226.78 132.73,226.32 132.66,225.83 C 132.58,225.34 132.53,224.84 132.50,224.31 C 132.47,223.79 132.48,223.20 132.50,222.69 C 132.52,222.17 132.56,221.68 132.62,221.21 C 132.68,220.74 132.75,220.30 132.85,219.88 C 132.95,219.46 133.07,219.07 133.20,218.70 C 133.34,218.33 133.50,217.99 133.67,217.67 C 133.85,217.35 134.04,217.06 134.26,216.79 C 134.47,216.52 134.71,216.27 134.96,216.05 C 135.21,215.83 135.49,215.64 135.78,215.47 C 136.07,215.30 136.37,215.17 136.72,215.03 C 137.07,214.89 137.45,214.76 137.88,214.62 C 138.30,214.49 138.76,214.37 139.25,214.25 C 139.74,214.13 140.28,214.02 140.84,213.91 C 141.41,213.80 142.02,213.69 142.66,213.59 C 143.30,213.49 143.97,213.40 144.69,213.31 C 145.40,213.22 146.15,213.14 146.94,213.06 C 147.72,212.98 148.55,212.91 149.41,212.84 C 150.27,212.78 151.08,212.73 152.09,212.66 C 153.11,212.58 154.24,212.50 155.48,212.41 C 156.73,212.31 158.10,212.21 159.58,212.09 C 161.06,211.98 162.66,211.85 164.38,211.72 C 166.09,211.58 167.92,211.44 169.88,211.28 C 171.83,211.12 173.89,210.96 176.08,210.78 C 178.26,210.60 180.57,210.42 182.98,210.22 C 185.40,210.02 187.94,209.81 190.59,209.59 C 193.25,209.38 196.15,209.12 198.91,208.91 C 201.67,208.69 204.41,208.49 207.15,208.30 C 209.88,208.12 212.61,207.95 215.32,207.79 C 218.03,207.63 220.73,207.49 223.42,207.36 C 226.11,207.23 228.79,207.12 231.45,207.02 C 234.12,206.92 236.77,206.83 239.41,206.76 C 242.06,206.69 244.69,206.63 247.30,206.59 C 249.92,206.54 252.53,206.51 255.12,206.50 C 257.72,206.49 260.41,206.49 262.88,206.50 C 265.34,206.51 267.70,206.53 269.94,206.56 C 272.18,206.59 274.30,206.64 276.31,206.69 C 278.32,206.74 280.22,206.80 282.00,206.88 C 283.78,206.95 285.45,207.03 287.00,207.12 C 288.55,207.22 289.99,207.32 291.31,207.44 C 292.64,207.55 293.84,207.68 294.94,207.81 C 296.03,207.95 297.01,208.09 297.88,208.25 C 298.74,208.41 299.40,208.58 300.12,208.75 C 300.85,208.92 301.54,209.08 302.20,209.25 C 302.87,209.42 303.50,209.58 304.11,209.75 C 304.72,209.92 305.29,210.08 305.84,210.25 C 306.39,210.42 306.91,210.58 307.41,210.75 C 307.90,210.92 308.36,211.08 308.80,211.25 C 309.23,211.42 309.64,211.58 310.02,211.75 C 310.39,211.92 310.74,212.08 311.06,212.25 C 311.38,212.42 311.66,212.58 311.94,212.75 C 312.22,212.92 312.49,213.09 312.74,213.26 C 313.00,213.43 313.24,213.60 313.48,213.77 C 313.71,213.95 313.93,214.12 314.14,214.30 C 314.35,214.47 314.55,214.65 314.73,214.83 C 314.92,215.01 315.10,215.19 315.26,215.37 C 315.42,215.55 315.57,215.73 315.71,215.91 C 315.85,216.10 315.98,216.28 316.09,216.47 C 316.21,216.65 316.31,216.83 316.41,217.03 C 316.50,217.24 316.60,217.46 316.68,217.70 C 316.76,217.93 316.84,218.19 316.91,218.46 C 316.99,218.73 317.05,219.02 317.11,219.33 C 317.17,219.63 317.22,219.96 317.27,220.30 C 317.31,220.64 317.35,220.99 317.38,221.37 C 317.42,221.74 317.44,222.13 317.46,222.54 C 317.48,222.95 317.49,223.37 317.50,223.81 C 317.51,224.25 317.51,224.73 317.50,225.19 C 317.49,225.64 317.47,226.09 317.44,226.53 C 317.41,226.97 317.36,227.41 317.31,227.84 C 317.26,228.28 317.20,228.70 317.12,229.12 C 317.05,229.55 316.97,229.96 316.88,230.38 C 316.78,230.79 316.68,231.19 316.56,231.59 C 316.45,231.99 316.32,232.39 316.19,232.78 C 316.05,233.17 315.91,233.56 315.75,233.94 C 315.59,234.32 315.40,234.69 315.25,235.06 C 315.10,235.44 314.96,235.81 314.83,236.19 C 314.70,236.56 314.59,236.94 314.48,237.31 C 314.38,237.69 314.29,238.06 314.22,238.44 C 314.14,238.81 314.08,239.19 314.03,239.56 C 313.98,239.94 313.95,240.31 313.92,240.69 C 313.90,241.06 313.89,241.44 313.89,241.81 C 313.89,242.19 313.91,242.56 313.94,242.94 C 313.97,243.31 314.03,243.70 314.06,244.06 C 314.10,244.42 314.12,244.77 314.14,245.09 C 314.16,245.42 314.17,245.73 314.17,246.03 C 314.17,246.33 314.17,246.61 314.16,246.88 C 314.14,247.14 314.12,247.39 314.09,247.62 C 314.07,247.86 314.03,248.08 313.98,248.28 C 313.94,248.48 313.89,248.67 313.83,248.84 C 313.77,249.02 313.70,249.17 313.62,249.31 C 313.55,249.45 313.44,249.57 313.38,249.69 C 313.31,249.81 313.27,249.92 313.24,250.02 C 313.22,250.13 313.21,250.23 313.23,250.32 C 313.24,250.41 313.27,250.50 313.33,250.58 C 313.38,250.66 313.45,250.73 313.55,250.80 C 313.64,250.86 313.75,250.92 313.88,250.98 C 314.01,251.03 314.17,251.08 314.34,251.12 C 314.51,251.16 314.70,251.19 314.91,251.22 C 315.12,251.25 315.37,251.26 315.59,251.28 C 315.82,251.31 316.03,251.34 316.23,251.38 C 316.44,251.41 316.64,251.45 316.83,251.50 C 317.02,251.55 317.20,251.60 317.38,251.66 C 317.55,251.71 317.72,251.78 317.88,251.84 C 318.03,251.91 318.18,251.98 318.33,252.06 C 318.47,252.14 318.61,252.22 318.73,252.31 C 318.86,252.40 318.98,252.49 319.09,252.59 C 319.21,252.69 319.31,252.75 319.41,252.91 C 319.50,253.07 319.60,253.28 319.68,253.55 C 319.76,253.83 319.84,254.15 319.91,254.54 C 319.99,254.92 320.05,255.36 320.11,255.86 C 320.17,256.36 320.22,256.91 320.27,257.52 C 320.31,258.12 320.35,258.79 320.38,259.51 C 320.42,260.23 320.44,261.00 320.46,261.84 C 320.48,262.67 320.49,263.56 320.50,264.50 C 320.51,265.44 320.51,266.55 320.50,267.50 C 320.49,268.45 320.47,269.34 320.44,270.17 C 320.41,271.01 320.36,271.79 320.31,272.52 C 320.26,273.24 320.20,273.91 320.12,274.53 C 320.05,275.15 319.97,275.71 319.88,276.22 C 319.78,276.73 319.68,277.18 319.56,277.58 C 319.45,277.98 319.32,278.32 319.19,278.61 C 319.05,278.90 318.91,279.13 318.75,279.31 C 318.59,279.49 318.40,279.53 318.25,279.69 C 318.10,279.84 317.96,280.02 317.83,280.23 C 317.70,280.45 317.59,280.68 317.48,280.95 C 317.38,281.22 317.29,281.52 317.22,281.84 C 317.14,282.17 317.08,282.52 317.03,282.91 C 316.98,283.29 316.95,283.70 316.92,284.14 C 316.90,284.58 316.89,285.05 316.89,285.55 C 316.89,286.04 316.91,286.57 316.94,287.12 C 316.97,287.68 317.03,288.32 317.06,288.88 C 317.10,289.43 317.13,289.96 317.16,290.45 C 317.18,290.95 317.20,291.42 317.22,291.86 C 317.23,292.30 317.24,292.71 317.25,293.09 C 317.26,293.48 317.26,293.83 317.25,294.16 C 317.24,294.48 317.23,294.78 317.22,295.05 C 317.20,295.32 317.18,295.55 317.16,295.77 C 317.13,295.98 317.10,296.16 317.06,296.31 C 317.03,296.47 316.99,296.56 316.94,296.69 C 316.88,296.81 316.82,296.94 316.74,297.07 C 316.67,297.20 316.58,297.33 316.48,297.46 C 316.38,297.59 316.26,297.73 316.14,297.86 C 316.02,297.99 315.88,298.13 315.73,298.27 C 315.59,298.40 315.43,298.54 315.26,298.68 C 315.09,298.82 314.90,298.96 314.71,299.10 C 314.52,299.24 314.31,299.39 314.09,299.53 C 313.88,299.68 313.67,299.82 313.41,299.97 C 313.14,300.12 312.83,300.27 312.49,300.43 C 312.15,300.59 311.77,300.75 311.35,300.91 C 310.93,301.08 310.48,301.25 309.98,301.42 C 309.49,301.60 308.96,301.77 308.39,301.95 C 307.82,302.13 307.21,302.32 306.57,302.51 C 305.93,302.70 305.24,302.89 304.52,303.09 C 303.80,303.28 303.05,303.48 302.25,303.69 C 301.45,303.89 300.70,304.12 299.75,304.31 C 298.80,304.51 297.72,304.69 296.53,304.86 C 295.34,305.03 294.03,305.18 292.59,305.33 C 291.16,305.47 289.61,305.60 287.94,305.72 C 286.27,305.84 284.47,305.94 282.56,306.03 C 280.65,306.12 278.62,306.20 276.47,306.27 C 274.32,306.33 272.05,306.38 269.66,306.42 C 267.27,306.46 264.76,306.49 262.12,306.50 Z" />
    </clipPath>
  </defs>
  <path d="M 262.12,306.50 C 259.49,306.51 256.50,306.51 253.88,306.50 C 251.25,306.49 248.74,306.48 246.36,306.45 C 243.98,306.43 241.72,306.40 239.58,306.36 C 237.44,306.32 235.42,306.27 233.53,306.22 C 231.64,306.16 229.87,306.10 228.22,306.03 C 226.57,305.96 225.04,305.88 223.64,305.80 C 222.24,305.71 220.96,305.62 219.80,305.52 C 218.64,305.41 217.60,305.30 216.69,305.19 C 215.77,305.07 215.22,304.94 214.31,304.81 C 213.41,304.69 212.39,304.56 211.25,304.44 C 210.11,304.31 208.86,304.19 207.50,304.06 C 206.14,303.94 204.66,303.81 203.06,303.69 C 201.47,303.56 199.76,303.44 197.94,303.31 C 196.11,303.19 194.18,303.06 192.12,302.94 C 190.07,302.81 187.91,302.69 185.62,302.56 C 183.34,302.44 180.95,302.31 178.44,302.19 C 175.93,302.06 173.05,301.94 170.56,301.81 C 168.08,301.68 165.73,301.55 163.52,301.42 C 161.30,301.29 159.23,301.15 157.30,301.02 C 155.36,300.88 153.57,300.74 151.91,300.59 C 150.25,300.45 148.73,300.30 147.34,300.16 C 145.96,300.01 144.72,299.86 143.61,299.70 C 142.50,299.55 141.53,299.39 140.70,299.23 C 139.87,299.08 139.18,298.91 138.62,298.75 C 138.07,298.59 137.77,298.44 137.38,298.25 C 136.98,298.06 136.62,297.84 136.27,297.60 C 135.93,297.36 135.61,297.10 135.32,296.80 C 135.03,296.51 134.76,296.20 134.52,295.86 C 134.27,295.52 134.05,295.15 133.86,294.77 C 133.67,294.38 133.50,293.96 133.35,293.52 C 133.21,293.08 133.09,292.62 132.99,292.13 C 132.90,291.64 132.83,291.13 132.78,290.59 C 132.74,290.06 132.71,289.45 132.72,288.91 C 132.73,288.37 132.76,287.85 132.82,287.35 C 132.88,286.86 132.97,286.38 133.09,285.93 C 133.20,285.48 133.35,285.05 133.52,284.64 C 133.69,284.23 133.88,283.85 134.11,283.48 C 134.33,283.12 134.59,282.78 134.87,282.46 C 135.15,282.14 135.45,281.85 135.79,281.57 C 136.12,281.30 136.49,281.04 136.88,280.81 C 137.26,280.58 137.73,280.49 138.12,280.19 C 138.52,279.88 138.88,279.48 139.22,278.98 C 139.56,278.49 139.87,277.89 140.16,277.20 C 140.44,276.51 140.70,275.73 140.94,274.84 C 141.17,273.96 141.38,272.98 141.56,271.91 C 141.74,270.83 141.90,269.66 142.03,268.39 C 142.16,267.12 142.27,265.76 142.34,264.30 C 142.42,262.84 142.47,261.28 142.50,259.62 C 142.53,257.97 142.53,256.03 142.50,254.38 C 142.47,252.72 142.42,251.16 142.34,249.69 C 142.27,248.22 142.16,246.84 142.03,245.56 C 141.90,244.28 141.74,243.09 141.56,242.00 C 141.38,240.91 141.17,239.91 140.94,239.00 C 140.70,238.09 140.44,237.28 140.16,236.56 C 139.87,235.84 139.56,235.22 139.22,234.69 C 138.88,234.16 138.52,233.72 138.12,233.38 C 137.73,233.03 137.27,232.89 136.88,232.62 C 136.48,232.36 136.12,232.07 135.78,231.77 C 135.44,231.46 135.13,231.14 134.84,230.80 C 134.56,230.46 134.30,230.10 134.06,229.72 C 133.83,229.34 133.62,228.95 133.44,228.53 C 133.26,228.12 133.10,227.68 132.97,227.23 C 132.84,226.78 132.73,226.32 132.66,225.83 C 132.58,225.34 132.53,224.84 132.50,224.31 C 132.47,223.79 132.48,223.20 132.50,222.69 C 132.52,222.17 132.56,221.68 132.62,221.21 C 132.68,220.74 132.75,220.30 132.85,219.88 C 132.95,219.46 133.07,219.07 133.20,218.70 C 133.34,218.33 133.50,217.99 133.67,217.67 C 133.85,217.35 134.04,217.06 134.26,216.79 C 134.47,216.52 134.71,216.27 134.96,216.05 C 135.21,215.83 135.49,215.64 135.78,215.47 C 136.07,215.30 136.37,215.17 136.72,215.03 C 137.07,214.89 137.45,214.76 137.88,214.62 C 138.30,214.49 138.76,214.37 139.25,214.25 C 139.74,214.13 140.28,214.02 140.84,213.91 C 141.41,213.80 142.02,213.69 142.66,213.59 C 143.30,213.49 143.97,213.40 144.69,213.31 C 145.40,213.22 146.15,213.14 146.94,213.06 C 147.72,212.98 148.55,212.91 149.41,212.84 C 150.27,212.78 151.08,212.73 152.09,212.66 C 153.11,212.58 154.24,212.50 155.48,212.41 C 156.73,212.31 158.10,212.21 159.58,212.09 C 161.06,211.98 162.66,211.85 164.38,211.72 C 166.09,211.58 167.92,211.44 169.88,211.28 C 171.83,211.12 173.89,210.96 176.08,210.78 C 178.26,210.60 180.57,210.42 182.98,210.22 C 185.40,210.02 187.94,209.81 190.59,209.59 C 193.25,209.38 196.15,209.12 198.91,208.91 C 201.67,208.69 204.41,208.49 207.15,208.30 C 209.88,208.12 212.61,207.95 215.32,207.79 C 218.03,207.63 220.73,207.49 223.42,207.36 C 226.11,207.23 228.79,207.12 231.45,207.02 C 234.12,206.92 236.77,206.83 239.41,206.76 C 242.06,206.69 244.69,206.63 247.30,206.59 C 249.92,206.54 252.53,206.51 255.12,206.50 C 257.72,206.49 260.41,206.49 262.88,206.50 C 265.34,206.51 267.70,206.53 269.94,206.56 C 272.18,206.59 274.30,206.64 276.31,206.69 C 278.32,206.74 280.22,206.80 282.00,206.88 C 283.78,206.95 285.45,207.03 287.00,207.12 C 288.55,207.22 289.99,207.32 291.31,207.44 C 292.64,207.55 293.84,207.68 294.94,207.81 C 296.03,207.95 297.01,208.09 297.88,208.25 C 298.74,208.41 299.40,208.58 300.12,208.75 C 300.85,208.92 301.54,209.08 302.20,209.25 C 302.87,209.42 303.50,209.58 304.11,209.75 C 304.72,209.92 305.29,210.08 305.84,210.25 C 306.39,210.42 306.91,210.58 307.41,210.75 C 307.90,210.92 308.36,211.08 308.80,211.25 C 309.23,211.42 309.64,211.58 310.02,211.75 C 310.39,211.92 310.74,212.08 311.06,212.25 C 311.38,212.42 311.66,212.58 311.94,212.75 C 312.22,212.92 312.49,213.09 312.74,213.26 C 313.00,213.43 313.24,213.60 313.48,213.77 C 313.71,213.95 313.93,214.12 314.14,214.30 C 314.35,214.47 314.55,214.65 314.73,214.83 C 314.92,215.01 315.10,215.19 315.26,215.37 C 315.42,215.55 315.57,215.73 315.71,215.91 C 315.85,216.10 315.98,216.28 316.09,216.47 C 316.21,216.65 316.31,216.83 316.41,217.03 C 316.50,217.24 316.60,217.46 316.68,217.70 C 316.76,217.93 316.84,218.19 316.91,218.46 C 316.99,218.73 317.05,219.02 317.11,219.33 C 317.17,219.63 317.22,219.96 317.27,220.30 C 317.31,220.64 317.35,220.99 317.38,221.37 C 317.42,221.74 317.44,222.13 317.46,222.54 C 317.48,222.95 317.49,223.37 317.50,223.81 C 317.51,224.25 317.51,224.73 317.50,225.19 C 317.49,225.64 317.47,226.09 317.44,226.53 C 317.41,226.97 317.36,227.41 317.31,227.84 C 317.26,228.28 317.20,228.70 317.12,229.12 C 317.05,229.55 316.97,229.96 316.88,230.38 C 316.78,230.79 316.68,231.19 316.56,231.59 C 316.45,231.99 316.32,232.39 316.19,232.78 C 316.05,233.17 315.91,233.56 315.75,233.94 C 315.59,234.32 315.40,234.69 315.25,235.06 C 315.10,235.44 314.96,235.81 314.83,236.19 C 314.70,236.56 314.59,236.94 314.48,237.31 C 314.38,237.69 314.29,238.06 314.22,238.44 C 314.14,238.81 314.08,239.19 314.03,239.56 C 313.98,239.94 313.95,240.31 313.92,240.69 C 313.90,241.06 313.89,241.44 313.89,241.81 C 313.89,242.19 313.91,242.56 313.94,242.94 C 313.97,243.31 314.03,243.70 314.06,244.06 C 314.10,244.42 314.12,244.77 314.14,245.09 C 314.16,245.42 314.17,245.73 314.17,246.03 C 314.17,246.33 314.17,246.61 314.16,246.88 C 314.14,247.14 314.12,247.39 314.09,247.62 C 314.07,247.86 314.03,248.08 313.98,248.28 C 313.94,248.48 313.89,248.67 313.83,248.84 C 313.77,249.02 313.70,249.17 313.62,249.31 C 313.55,249.45 313.44,249.57 313.38,249.69 C 313.31,249.81 313.27,249.92 313.24,250.02 C 313.22,250.13 313.21,250.23 313.23,250.32 C 313.24,250.41 313.27,250.50 313.33,250.58 C 313.38,250.66 313.45,250.73 313.55,250.80 C 313.64,250.86 313.75,250.92 313.88,250.98 C 314.01,251.03 314.17,251.08 314.34,251.12 C 314.51,251.16 314.70,251.19 314.91,251.22 C 315.12,251.25 315.37,251.26 315.59,251.28 C 315.82,251.31 316.03,251.34 316.23,251.38 C 316.44,251.41 316.64,251.45 316.83,251.50 C 317.02,251.55 317.20,251.60 317.38,251.66 C 317.55,251.71 317.72,251.78 317.88,251.84 C 318.03,251.91 318.18,251.98 318.33,252.06 C 318.47,252.14 318.61,252.22 318.73,252.31 C 318.86,252.40 318.98,252.49 319.09,252.59 C 319.21,252.69 319.31,252.75 319.41,252.91 C 319.50,253.07 319.60,253.28 319.68,253.55 C 319.76,253.83 319.84,254.15 319.91,254.54 C 319.99,254.92 320.05,255.36 320.11,255.86 C 320.17,256.36 320.22,256.91 320.27,257.52 C 320.31,258.12 320.35,258.79 320.38,259.51 C 320.42,260.23 320.44,261.00 320.46,261.84 C 320.48,262.67 320.49,263.56 320.50,264.50 C 320.51,265.44 320.51,266.55 320.50,267.50 C 320.49,268.45 320.47,269.34 320.44,270.17 C 320.41,271.01 320.36,271.79 320.31,272.52 C 320.26,273.24 320.20,273.91 320.12,274.53 C 320.05,275.15 319.97,275.71 319.88,276.22 C 319.78,276.73 319.68,277.18 319.56,277.58 C 319.45,277.98 319.32,278.32 319.19,278.61 C 319.05,278.90 318.91,279.13 318.75,279.31 C 318.59,279.49 318.40,279.53 318.25,279.69 C 318.10,279.84 317.96,280.02 317.83,280.23 C 317.70,280.45 317.59,280.68 317.48,280.95 C 317.38,281.22 317.29,281.52 317.22,281.84 C 317.14,282.17 317.08,282.52 317.03,282.91 C 316.98,283.29 316.95,283.70 316.92,284.14 C 316.90,284.58 316.89,285.05 316.89,285.55 C 316.89,286.04 316.91,286.57 316.94,287.12 C 316.97,287.68 317.03,288.32 317.06,288.88 C 317.10,289.43 317.13,289.96 317.16,290.45 C 317.18,290.95 317.20,291.42 317.22,291.86 C 317.23,292.30 317.24,292.71 317.25,293.09 C 317.26,293.48 317.26,293.83 317.25,294.16 C 317.24,294.48 317.23,294.78 317.22,295.05 C 317.20,295.32 317.18,295.55 317.16,295.77 C 317.13,295.98 317.10,296.16 317.06,296.31 C 317.03,296.47 316.99,296.56 316.94,296.69 C 316.88,296.81 316.82,296.94 316.74,297.07 C 316.67,297.20 316.58,297.33 316.48,297.46 C 316.38,297.59 316.26,297.73 316.14,297.86 C 316.02,297.99 315.88,298.13 315.73,298.27 C 315.59,298.40 315.43,298.54 315.26,298.68 C 315.09,298.82 314.90,298.96 314.71,299.10 C 314.52,299.24 314.31,299.39 314.09,299.53 C 313.88,299.68 313.67,299.82 313.41,299.97 C 313.14,300.12 312.83,300.27 312.49,300.43 C 312.15,300.59 311.77,300.75 311.35,300.91 C 310.93,301.08 310.48,301.25 309.98,301.42 C 309.49,301.60 308.96,301.77 308.39,301.95 C 307.82,302.13 307.21,302.32 306.57,302.51 C 305.93,302.70 305.24,302.89 304.52,303.09 C 303.80,303.28 303.05,303.48 302.25,303.69 C 301.45,303.89 300.70,304.12 299.75,304.31 C 298.80,304.51 297.72,304.69 296.53,304.86 C 295.34,305.03 294.03,305.18 292.59,305.33 C 291.16,305.47 289.61,305.60 287.94,305.72 C 286.27,305.84 284.47,305.94 282.56,306.03 C 280.65,306.12 278.62,306.20 276.47,306.27 C 274.32,306.33 272.05,306.38 269.66,306.42 C 267.27,306.46 264.76,306.49 262.12,306.50 Z" stroke="none" fill="currentColor" opacity="0.11" />
  <path d="M261.13,272.86L261.13,272.86 M261.28,272.93L261.28,272.93 M260.97,272.93L260.97,272.93 M260.90,273.09L260.90,273.09 M261.35,273.09L261.35,273.09 M261.28,273.24L261.28,273.24 M261.13,273.31L261.13,273.31 M250.42,263.71L250.42,263.71 M264.41,276.67L264.41,276.67 M267.41,276.67L267.41,276.67 M270.18,276.95L259.64,276.95 M270.19,277.25L259.64,277.25 M270.19,277.55L259.64,277.55 M270.19,277.55L259.64,277.55 M276.32,276.98L287.57,276.98 M205.64,261.81L198.26,269.43 M205.75,261.87L198.36,269.49 M205.37,261.47L198.00,269.07 M214.89,253.85L206.70,253.85 M214.89,253.33L206.74,253.33 M214.84,253.37L206.67,253.37 M204.50,254.09L195.96,254.09 M204.50,254.08L196.04,254.08 M204.49,253.60L196.05,253.60 M204.49,253.61L195.97,253.61 M214.64,252.81L206.66,252.81 M214.68,252.92L206.69,252.92 M214.62,252.37L206.74,252.37 M205.89,252.49L198.22,244.70 M205.86,252.57L198.19,244.79 M206.19,252.14L198.53,244.36 M194.85,243.99L194.85,249.92 M194.88,244.02L194.88,249.87 M194.40,244.00L194.40,249.91 M194.37,243.97L194.37,249.96 M264.48,241.33L264.48,241.33 M264.48,241.57L264.48,241.57 M264.62,241.33L264.62,241.33 M264.48,241.33L264.48,241.33 M264.69,241.45L264.69,241.45 M264.62,241.57L264.62,241.57 M264.62,241.33L264.62,241.33 M264.69,241.45L264.69,241.45 M264.62,241.57L264.62,241.57 M264.48,241.57L264.48,241.57 M251.73,241.33L251.73,241.33 M251.73,241.57L251.73,241.57 M251.59,241.33L251.59,241.33 M251.73,241.33L251.73,241.33 M251.52,241.45L251.52,241.45 M251.59,241.57L251.59,241.57 M251.59,241.33L251.59,241.33 M251.52,241.45L251.52,241.45 M251.59,241.57L251.59,241.57 M251.73,241.57L251.73,241.57 M287.27,275.72L287.27,275.72 M287.43,275.66L287.43,275.66 M287.21,275.88L287.21,275.88 M287.27,276.04L287.27,276.04 M287.58,275.72L287.58,275.72 M287.58,276.04L287.58,276.04 M287.65,275.88L287.65,275.88 M268.77,275.72L268.77,275.72 M268.61,275.66L268.61,275.66 M268.83,275.88L268.83,275.88 M268.77,276.04L268.77,276.04 M268.45,275.72L268.45,275.72 M268.45,276.04L268.45,276.04 M268.39,275.88L268.39,275.88 M287.27,238.53L287.27,238.53 M287.43,238.59L287.43,238.59 M287.21,238.37L287.21,238.37 M287.27,238.21L287.27,238.21 M287.58,238.53L287.58,238.53 M287.58,238.21L287.58,238.21 M287.65,238.37L287.65,238.37 M268.77,238.53L268.77,238.53 M268.61,238.59L268.61,238.59 M268.45,238.53L268.45,238.53 M268.83,238.37L268.83,238.37 M268.77,238.21L268.77,238.21 M268.39,238.37L268.39,238.37 M268.45,238.21L268.45,238.21 M245.68,258.50L245.68,258.50 M245.84,258.43L245.84,258.43 M245.61,258.66L245.61,258.66 M245.68,258.81L245.68,258.81 M245.68,258.81L245.68,258.81 M245.61,258.66L245.61,258.66 M245.68,258.50L245.68,258.50 M245.84,258.43L245.84,258.43 M245.99,258.81L245.99,258.81 M246.06,258.66L246.06,258.66 M245.99,258.50L245.99,258.50 M245.99,258.50L245.99,258.50 M245.99,258.81L245.99,258.81 M246.06,258.66L246.06,258.66 M225.50,258.50L225.50,258.50 M225.35,258.43L225.35,258.43 M225.19,258.50L225.19,258.50 M225.12,258.66L225.12,258.66 M225.50,258.81L225.50,258.81 M225.57,258.66L225.57,258.66 M225.50,258.81L225.50,258.81 M225.57,258.66L225.57,258.66 M225.50,258.50L225.50,258.50 M225.19,258.81L225.19,258.81 M225.19,258.81L225.19,258.81 M225.12,258.66L225.12,258.66 M225.19,258.50L225.19,258.50 M225.35,258.43L225.35,258.43 M227.59,240.10L227.59,240.10 M227.43,240.17L227.43,240.17 M227.66,239.95L227.66,239.95 M227.59,239.79L227.59,239.79 M227.59,239.79L227.59,239.79 M227.66,239.95L227.66,239.95 M227.59,240.10L227.59,240.10 M227.43,240.17L227.43,240.17 M227.28,239.79L227.28,239.79 M227.21,239.95L227.21,239.95 M227.28,240.10L227.28,240.10 M227.28,240.10L227.28,240.10 M227.28,239.79L227.28,239.79 M227.21,239.95L227.21,239.95 M243.59,240.10L243.59,240.10 M243.75,240.17L243.75,240.17 M243.91,240.10L243.91,240.10 M243.97,239.95L243.97,239.95 M243.59,239.79L243.59,239.79 M243.53,239.95L243.53,239.95 M243.59,239.79L243.59,239.79 M243.53,239.95L243.53,239.95 M243.59,240.10L243.59,240.10 M243.91,239.79L243.91,239.79 M243.91,239.79L243.91,239.79 M243.97,239.95L243.97,239.95 M243.91,240.10L243.91,240.10 M243.75,240.17L243.75,240.17 M207.59,262.25L217.00,262.25 M207.63,262.15L217.04,262.15 M207.70,264.67L217.04,264.67 M207.65,264.57L217.00,264.57 M203.57,264.25L200.19,267.67 M203.59,264.33L200.25,267.71 M200.25,273.75L200.25,267.71 M200.19,273.75L200.19,267.67 M202.67,273.75L202.67,268.71 M202.53,273.75L202.53,268.67 M217.46,248.46L207.27,248.46 M217.50,248.36L207.31,248.36 M205.98,247.85L202.53,244.35 M206.09,247.78L202.67,244.31 M200.19,245.35L204.39,249.61 M200.25,245.31L204.41,249.54 M217.48,250.87L207.22,250.87 M217.43,250.77L207.18,250.77 M202.53,239.28L202.53,244.35 M202.67,239.28L202.67,244.31 M200.19,239.28L200.19,245.35 M200.25,239.28L200.25,245.31 M167.16,237.58L163.14,239.80 M163.37,242.85L163.37,257.12 M163.39,242.85L163.39,257.12 M163.63,242.85L163.63,257.12 M163.64,242.85L163.64,257.12 M163.57,242.85L163.57,257.12 M179.03,237.58L167.16,237.58 M180.30,257.12L180.31,241.31 M180.26,241.31L180.29,257.12 M180.23,257.12L180.23,241.31 M180.23,257.12L180.23,272.94 M180.30,257.12L180.31,272.94 M180.29,257.12L180.26,272.94 M163.14,274.45L167.16,276.67 M163.39,271.40L163.39,257.12 M163.37,271.40L163.37,257.12 M163.63,271.40L163.63,257.12 M163.64,271.40L163.64,257.12 M163.57,271.40L163.57,257.12 M167.16,276.67L179.03,276.67 M167.14,276.60L179.00,276.63 M179.00,276.43L167.20,276.41 M198.63,274.68L198.63,268.96 M199.28,267.37L206.52,260.02 M208.69,271.71L216.78,263.68 M262.28,273.23L258.39,273.23 M160.42,276.81L144.32,276.77 M160.82,277.71L145.06,277.70 M145.06,276.03L160.99,276.04 M160.41,238.30L144.50,238.31 M160.99,238.21L145.06,238.21 M160.82,236.54L145.06,236.55 M160.76,236.44L144.99,236.45 M305.79,268.40L305.79,262.76 M305.79,262.76L305.79,257.12 M305.79,257.12L305.79,251.49 M305.79,251.49L305.79,245.85 M207.06,276.58L207.06,271.53 M207.11,276.50L207.11,271.60 M271.65,278.73L271.65,235.52 M271.65,278.73L271.65,248.87 M271.65,248.87L271.65,265.38 M207.06,237.67L207.06,242.72 M207.11,242.65L207.11,237.74 M160.42,237.42L144.32,237.46 M229.18,263.08L229.18,263.08 M229.24,263.23L229.24,263.23 M229.39,262.87L229.39,262.87 M229.53,262.93L229.53,262.93 M229.59,263.08L229.59,263.08 M229.53,263.23L229.53,263.23 M229.39,263.29L229.39,263.29 M229.39,272.00L229.39,272.00 M229.53,271.94L229.53,271.94 M229.59,271.79L229.59,271.79 M229.53,271.64L229.53,271.64 M229.39,271.58L229.39,271.58 M229.24,271.64L229.24,271.64 M229.18,271.79L229.18,271.79 M194.07,240.01L194.07,238.58 M207.15,276.72L207.15,271.43 M207.11,237.35L207.11,242.99 M207.17,242.97L207.17,237.36 M237.62,239.73L251.34,239.66 M251.34,242.57L237.62,242.50 M250.55,280.59L235.37,280.59 M235.37,263.16L250.55,263.16 M257.20,262.24L256.72,268.82 M256.72,268.82L257.20,262.14 M256.68,247.96L235.40,287.23 M235.40,287.23L256.70,247.85 M265.03,230.10L239.51,230.09 M236.76,230.10L226.17,230.20 M226.15,221.83L247.02,216.59 M218.74,225.00L214.99,228.55 M218.06,230.28L224.91,230.21 M261.99,230.91L238.92,230.90 M271.14,251.51L267.73,247.12 M266.71,244.32L266.51,237.28 M313.12,227.89L313.11,250.73 M265.47,281.25L253.38,281.25 M265.41,266.43L253.37,266.44 M222.96,257.94L213.31,257.94 M250.58,258.36L223.48,258.36 M223.87,257.94L250.88,257.94 M222.96,257.72L213.31,257.72 M250.58,257.30L223.48,257.30 M223.87,257.72L250.88,257.72 M257.26,264.21L260.89,252.90 M276.66,252.35L262.13,252.32 M254.91,297.29L233.91,297.17 M271.26,244.42L264.01,245.09 M256.48,246.65L261.63,246.53 M255.67,246.43L238.93,246.43 M298.24,248.77L292.21,248.67 M298.24,240.88L292.21,240.79 M298.24,238.30L292.21,238.21 M298.24,230.42L292.21,230.33 M249.45,236.69L201.51,236.69 M249.45,244.98L201.51,244.98 M257.18,245.37L257.18,234.18 M263.59,234.19L256.85,234.18 M263.59,234.19L256.29,234.19 M206.17,243.73L206.17,238.36 M255.30,240.22L250.43,240.22 M255.20,240.22L250.40,240.22 M255.30,239.38L250.43,239.38 M250.40,239.38L255.20,239.38 M250.42,241.04L255.15,241.04 M255.15,241.88L250.42,241.88 M197.88,239.77L191.28,239.74 M197.88,242.42L191.28,242.46 M260.00,230.93L264.99,230.94 M243.16,296.29L256.09,296.22 M256.13,295.29L233.67,295.41 M256.13,295.29L264.96,292.38 M264.96,292.38L277.20,290.65 M264.96,292.38L282.79,292.34 M267.52,230.37L263.38,230.54 M296.54,227.79L293.48,228.66 M292.50,290.41L292.45,283.32 M282.97,283.87L237.30,283.65 M278.88,296.32L254.13,296.17 M282.93,283.69L286.75,280.10 M140.17,279.79L146.73,279.77 M282.83,283.69L237.30,283.31 M155.68,296.78L146.93,296.75 M146.93,283.40L155.68,283.37 M145.44,296.48L139.23,296.00 M284.94,307.31L265.53,307.23 M224.41,305.96L235.97,306.77 M243.51,306.79L235.97,306.77 M292.50,223.91L292.45,231.00 M282.97,230.38L237.30,230.60 M254.13,218.08L278.88,217.93 M286.75,234.14L282.93,230.55 M146.73,234.48L140.17,234.46 M282.83,230.56L237.29,230.94 M224.41,208.29L235.97,207.48 M243.51,207.46L235.97,207.48" stroke="currentColor" stroke-width="0.6" stroke-linecap="round" fill="none" opacity="0.55" clip-path="url(#hull-clip)" filter="url(#glow)" />
  <path d="M 262.12,306.50 C 259.49,306.51 256.50,306.51 253.88,306.50 C 251.25,306.49 248.74,306.48 246.36,306.45 C 243.98,306.43 241.72,306.40 239.58,306.36 C 237.44,306.32 235.42,306.27 233.53,306.22 C 231.64,306.16 229.87,306.10 228.22,306.03 C 226.57,305.96 225.04,305.88 223.64,305.80 C 222.24,305.71 220.96,305.62 219.80,305.52 C 218.64,305.41 217.60,305.30 216.69,305.19 C 215.77,305.07 215.22,304.94 214.31,304.81 C 213.41,304.69 212.39,304.56 211.25,304.44 C 210.11,304.31 208.86,304.19 207.50,304.06 C 206.14,303.94 204.66,303.81 203.06,303.69 C 201.47,303.56 199.76,303.44 197.94,303.31 C 196.11,303.19 194.18,303.06 192.12,302.94 C 190.07,302.81 187.91,302.69 185.62,302.56 C 183.34,302.44 180.95,302.31 178.44,302.19 C 175.93,302.06 173.05,301.94 170.56,301.81 C 168.08,301.68 165.73,301.55 163.52,301.42 C 161.30,301.29 159.23,301.15 157.30,301.02 C 155.36,300.88 153.57,300.74 151.91,300.59 C 150.25,300.45 148.73,300.30 147.34,300.16 C 145.96,300.01 144.72,299.86 143.61,299.70 C 142.50,299.55 141.53,299.39 140.70,299.23 C 139.87,299.08 139.18,298.91 138.62,298.75 C 138.07,298.59 137.77,298.44 137.38,298.25 C 136.98,298.06 136.62,297.84 136.27,297.60 C 135.93,297.36 135.61,297.10 135.32,296.80 C 135.03,296.51 134.76,296.20 134.52,295.86 C 134.27,295.52 134.05,295.15 133.86,294.77 C 133.67,294.38 133.50,293.96 133.35,293.52 C 133.21,293.08 133.09,292.62 132.99,292.13 C 132.90,291.64 132.83,291.13 132.78,290.59 C 132.74,290.06 132.71,289.45 132.72,288.91 C 132.73,288.37 132.76,287.85 132.82,287.35 C 132.88,286.86 132.97,286.38 133.09,285.93 C 133.20,285.48 133.35,285.05 133.52,284.64 C 133.69,284.23 133.88,283.85 134.11,283.48 C 134.33,283.12 134.59,282.78 134.87,282.46 C 135.15,282.14 135.45,281.85 135.79,281.57 C 136.12,281.30 136.49,281.04 136.88,280.81 C 137.26,280.58 137.73,280.49 138.12,280.19 C 138.52,279.88 138.88,279.48 139.22,278.98 C 139.56,278.49 139.87,277.89 140.16,277.20 C 140.44,276.51 140.70,275.73 140.94,274.84 C 141.17,273.96 141.38,272.98 141.56,271.91 C 141.74,270.83 141.90,269.66 142.03,268.39 C 142.16,267.12 142.27,265.76 142.34,264.30 C 142.42,262.84 142.47,261.28 142.50,259.62 C 142.53,257.97 142.53,256.03 142.50,254.38 C 142.47,252.72 142.42,251.16 142.34,249.69 C 142.27,248.22 142.16,246.84 142.03,245.56 C 141.90,244.28 141.74,243.09 141.56,242.00 C 141.38,240.91 141.17,239.91 140.94,239.00 C 140.70,238.09 140.44,237.28 140.16,236.56 C 139.87,235.84 139.56,235.22 139.22,234.69 C 138.88,234.16 138.52,233.72 138.12,233.38 C 137.73,233.03 137.27,232.89 136.88,232.62 C 136.48,232.36 136.12,232.07 135.78,231.77 C 135.44,231.46 135.13,231.14 134.84,230.80 C 134.56,230.46 134.30,230.10 134.06,229.72 C 133.83,229.34 133.62,228.95 133.44,228.53 C 133.26,228.12 133.10,227.68 132.97,227.23 C 132.84,226.78 132.73,226.32 132.66,225.83 C 132.58,225.34 132.53,224.84 132.50,224.31 C 132.47,223.79 132.48,223.20 132.50,222.69 C 132.52,222.17 132.56,221.68 132.62,221.21 C 132.68,220.74 132.75,220.30 132.85,219.88 C 132.95,219.46 133.07,219.07 133.20,218.70 C 133.34,218.33 133.50,217.99 133.67,217.67 C 133.85,217.35 134.04,217.06 134.26,216.79 C 134.47,216.52 134.71,216.27 134.96,216.05 C 135.21,215.83 135.49,215.64 135.78,215.47 C 136.07,215.30 136.37,215.17 136.72,215.03 C 137.07,214.89 137.45,214.76 137.88,214.62 C 138.30,214.49 138.76,214.37 139.25,214.25 C 139.74,214.13 140.28,214.02 140.84,213.91 C 141.41,213.80 142.02,213.69 142.66,213.59 C 143.30,213.49 143.97,213.40 144.69,213.31 C 145.40,213.22 146.15,213.14 146.94,213.06 C 147.72,212.98 148.55,212.91 149.41,212.84 C 150.27,212.78 151.08,212.73 152.09,212.66 C 153.11,212.58 154.24,212.50 155.48,212.41 C 156.73,212.31 158.10,212.21 159.58,212.09 C 161.06,211.98 162.66,211.85 164.38,211.72 C 166.09,211.58 167.92,211.44 169.88,211.28 C 171.83,211.12 173.89,210.96 176.08,210.78 C 178.26,210.60 180.57,210.42 182.98,210.22 C 185.40,210.02 187.94,209.81 190.59,209.59 C 193.25,209.38 196.15,209.12 198.91,208.91 C 201.67,208.69 204.41,208.49 207.15,208.30 C 209.88,208.12 212.61,207.95 215.32,207.79 C 218.03,207.63 220.73,207.49 223.42,207.36 C 226.11,207.23 228.79,207.12 231.45,207.02 C 234.12,206.92 236.77,206.83 239.41,206.76 C 242.06,206.69 244.69,206.63 247.30,206.59 C 249.92,206.54 252.53,206.51 255.12,206.50 C 257.72,206.49 260.41,206.49 262.88,206.50 C 265.34,206.51 267.70,206.53 269.94,206.56 C 272.18,206.59 274.30,206.64 276.31,206.69 C 278.32,206.74 280.22,206.80 282.00,206.88 C 283.78,206.95 285.45,207.03 287.00,207.12 C 288.55,207.22 289.99,207.32 291.31,207.44 C 292.64,207.55 293.84,207.68 294.94,207.81 C 296.03,207.95 297.01,208.09 297.88,208.25 C 298.74,208.41 299.40,208.58 300.12,208.75 C 300.85,208.92 301.54,209.08 302.20,209.25 C 302.87,209.42 303.50,209.58 304.11,209.75 C 304.72,209.92 305.29,210.08 305.84,210.25 C 306.39,210.42 306.91,210.58 307.41,210.75 C 307.90,210.92 308.36,211.08 308.80,211.25 C 309.23,211.42 309.64,211.58 310.02,211.75 C 310.39,211.92 310.74,212.08 311.06,212.25 C 311.38,212.42 311.66,212.58 311.94,212.75 C 312.22,212.92 312.49,213.09 312.74,213.26 C 313.00,213.43 313.24,213.60 313.48,213.77 C 313.71,213.95 313.93,214.12 314.14,214.30 C 314.35,214.47 314.55,214.65 314.73,214.83 C 314.92,215.01 315.10,215.19 315.26,215.37 C 315.42,215.55 315.57,215.73 315.71,215.91 C 315.85,216.10 315.98,216.28 316.09,216.47 C 316.21,216.65 316.31,216.83 316.41,217.03 C 316.50,217.24 316.60,217.46 316.68,217.70 C 316.76,217.93 316.84,218.19 316.91,218.46 C 316.99,218.73 317.05,219.02 317.11,219.33 C 317.17,219.63 317.22,219.96 317.27,220.30 C 317.31,220.64 317.35,220.99 317.38,221.37 C 317.42,221.74 317.44,222.13 317.46,222.54 C 317.48,222.95 317.49,223.37 317.50,223.81 C 317.51,224.25 317.51,224.73 317.50,225.19 C 317.49,225.64 317.47,226.09 317.44,226.53 C 317.41,226.97 317.36,227.41 317.31,227.84 C 317.26,228.28 317.20,228.70 317.12,229.12 C 317.05,229.55 316.97,229.96 316.88,230.38 C 316.78,230.79 316.68,231.19 316.56,231.59 C 316.45,231.99 316.32,232.39 316.19,232.78 C 316.05,233.17 315.91,233.56 315.75,233.94 C 315.59,234.32 315.40,234.69 315.25,235.06 C 315.10,235.44 314.96,235.81 314.83,236.19 C 314.70,236.56 314.59,236.94 314.48,237.31 C 314.38,237.69 314.29,238.06 314.22,238.44 C 314.14,238.81 314.08,239.19 314.03,239.56 C 313.98,239.94 313.95,240.31 313.92,240.69 C 313.90,241.06 313.89,241.44 313.89,241.81 C 313.89,242.19 313.91,242.56 313.94,242.94 C 313.97,243.31 314.03,243.70 314.06,244.06 C 314.10,244.42 314.12,244.77 314.14,245.09 C 314.16,245.42 314.17,245.73 314.17,246.03 C 314.17,246.33 314.17,246.61 314.16,246.88 C 314.14,247.14 314.12,247.39 314.09,247.62 C 314.07,247.86 314.03,248.08 313.98,248.28 C 313.94,248.48 313.89,248.67 313.83,248.84 C 313.77,249.02 313.70,249.17 313.62,249.31 C 313.55,249.45 313.44,249.57 313.38,249.69 C 313.31,249.81 313.27,249.92 313.24,250.02 C 313.22,250.13 313.21,250.23 313.23,250.32 C 313.24,250.41 313.27,250.50 313.33,250.58 C 313.38,250.66 313.45,250.73 313.55,250.80 C 313.64,250.86 313.75,250.92 313.88,250.98 C 314.01,251.03 314.17,251.08 314.34,251.12 C 314.51,251.16 314.70,251.19 314.91,251.22 C 315.12,251.25 315.37,251.26 315.59,251.28 C 315.82,251.31 316.03,251.34 316.23,251.38 C 316.44,251.41 316.64,251.45 316.83,251.50 C 317.02,251.55 317.20,251.60 317.38,251.66 C 317.55,251.71 317.72,251.78 317.88,251.84 C 318.03,251.91 318.18,251.98 318.33,252.06 C 318.47,252.14 318.61,252.22 318.73,252.31 C 318.86,252.40 318.98,252.49 319.09,252.59 C 319.21,252.69 319.31,252.75 319.41,252.91 C 319.50,253.07 319.60,253.28 319.68,253.55 C 319.76,253.83 319.84,254.15 319.91,254.54 C 319.99,254.92 320.05,255.36 320.11,255.86 C 320.17,256.36 320.22,256.91 320.27,257.52 C 320.31,258.12 320.35,258.79 320.38,259.51 C 320.42,260.23 320.44,261.00 320.46,261.84 C 320.48,262.67 320.49,263.56 320.50,264.50 C 320.51,265.44 320.51,266.55 320.50,267.50 C 320.49,268.45 320.47,269.34 320.44,270.17 C 320.41,271.01 320.36,271.79 320.31,272.52 C 320.26,273.24 320.20,273.91 320.12,274.53 C 320.05,275.15 319.97,275.71 319.88,276.22 C 319.78,276.73 319.68,277.18 319.56,277.58 C 319.45,277.98 319.32,278.32 319.19,278.61 C 319.05,278.90 318.91,279.13 318.75,279.31 C 318.59,279.49 318.40,279.53 318.25,279.69 C 318.10,279.84 317.96,280.02 317.83,280.23 C 317.70,280.45 317.59,280.68 317.48,280.95 C 317.38,281.22 317.29,281.52 317.22,281.84 C 317.14,282.17 317.08,282.52 317.03,282.91 C 316.98,283.29 316.95,283.70 316.92,284.14 C 316.90,284.58 316.89,285.05 316.89,285.55 C 316.89,286.04 316.91,286.57 316.94,287.12 C 316.97,287.68 317.03,288.32 317.06,288.88 C 317.10,289.43 317.13,289.96 317.16,290.45 C 317.18,290.95 317.20,291.42 317.22,291.86 C 317.23,292.30 317.24,292.71 317.25,293.09 C 317.26,293.48 317.26,293.83 317.25,294.16 C 317.24,294.48 317.23,294.78 317.22,295.05 C 317.20,295.32 317.18,295.55 317.16,295.77 C 317.13,295.98 317.10,296.16 317.06,296.31 C 317.03,296.47 316.99,296.56 316.94,296.69 C 316.88,296.81 316.82,296.94 316.74,297.07 C 316.67,297.20 316.58,297.33 316.48,297.46 C 316.38,297.59 316.26,297.73 316.14,297.86 C 316.02,297.99 315.88,298.13 315.73,298.27 C 315.59,298.40 315.43,298.54 315.26,298.68 C 315.09,298.82 314.90,298.96 314.71,299.10 C 314.52,299.24 314.31,299.39 314.09,299.53 C 313.88,299.68 313.67,299.82 313.41,299.97 C 313.14,300.12 312.83,300.27 312.49,300.43 C 312.15,300.59 311.77,300.75 311.35,300.91 C 310.93,301.08 310.48,301.25 309.98,301.42 C 309.49,301.60 308.96,301.77 308.39,301.95 C 307.82,302.13 307.21,302.32 306.57,302.51 C 305.93,302.70 305.24,302.89 304.52,303.09 C 303.80,303.28 303.05,303.48 302.25,303.69 C 301.45,303.89 300.70,304.12 299.75,304.31 C 298.80,304.51 297.72,304.69 296.53,304.86 C 295.34,305.03 294.03,305.18 292.59,305.33 C 291.16,305.47 289.61,305.60 287.94,305.72 C 286.27,305.84 284.47,305.94 282.56,306.03 C 280.65,306.12 278.62,306.20 276.47,306.27 C 274.32,306.33 272.05,306.38 269.66,306.42 C 267.27,306.46 264.76,306.49 262.12,306.50 Z" fill="none" stroke="currentColor" stroke-width="1.5" stroke-linejoin="round" stroke-linecap="round" filter="url(#glow)" />
</svg>