<svg xmlns="http://www.w3.org/2000/svg" width="512" height="512" viewBox="38.88 203.45 327.74 113.51" preserveAspectRatio="xMidYMid meet">
  <defs>
    <filter id="glow" x="-30%" y="-30%" width="160%" height="160%">
      <feGaussianBlur in="SourceGraphic" stdDeviation="2.4" result="blur" />
      <feMerge>
        <feMergeNode in="blur" />
        <feMergeNode in="SourceGraphic" />
      </feMerge>
    </filter>
    <clipPath id="hull-clip">
      <path d="M 181.25,307.50 C 179.21,307.51 176.79,307.51 174.75,307.50 C 172.71,307.49 170.78,307.48 168.98,307.47 C 167.18,307.45 165.51,307.43 163.95,307.41 C 162.40,307.38 160.97,307.35 159.66,307.31 C 158.35,307.28 157.16,307.23 156.09,307.19 C 155.03,307.14 154.09,307.09 153.27,307.03 C 152.45,306.97 151.75,306.91 151.17,306.84 C 150.60,306.78 150.14,306.70 149.81,306.62 C 149.48,306.55 149.43,306.45 149.19,306.38 C 148.94,306.30 148.65,306.22 148.33,306.16 C 148.00,306.09 147.64,306.03 147.23,305.97 C 146.83,305.91 146.39,305.86 145.91,305.81 C 145.42,305.77 144.90,305.72 144.34,305.69 C 143.78,305.65 143.18,305.62 142.55,305.59 C 141.91,305.57 141.23,305.55 140.52,305.53 C 139.80,305.52 139.04,305.51 138.25,305.50 C 137.46,305.49 136.61,305.52 135.75,305.50 C 134.89,305.48 133.99,305.44 133.06,305.38 C 132.14,305.31 131.18,305.23 130.19,305.12 C 129.20,305.02 128.18,304.90 127.12,304.75 C 126.07,304.60 124.99,304.44 123.88,304.25 C 122.76,304.06 121.61,303.85 120.44,303.62 C 119.26,303.40 118.05,303.15 116.81,302.88 C 115.57,302.60 114.30,302.31 113.00,302.00 C 111.70,301.69 110.29,301.34 109.00,301.00 C 107.71,300.66 106.45,300.32 105.24,299.98 C 104.03,299.63 102.86,299.28 101.73,298.93 C 100.60,298.58 99.50,298.22 98.45,297.86 C 97.40,297.50 96.39,297.13 95.42,296.77 C 94.45,296.40 93.52,296.02 92.63,295.65 C 91.74,295.27 90.89,294.89 90.09,294.51 C 89.28,294.12 88.51,293.74 87.78,293.34 C 87.05,292.95 86.37,292.54 85.72,292.16 C 85.07,291.77 84.45,291.40 83.87,291.04 C 83.29,290.68 82.74,290.33 82.23,289.99 C 81.71,289.65 81.24,289.33 80.80,289.02 C 80.36,288.70 79.95,288.40 79.58,288.11 C 79.21,287.82 78.87,287.54 78.57,287.27 C 78.27,287.01 78.00,286.75 77.77,286.51 C 77.54,286.26 77.35,286.03 77.19,285.81 C 77.03,285.59 76.93,285.40 76.81,285.19 C 76.69,284.97 76.58,284.75 76.48,284.52 C 76.37,284.30 76.27,284.06 76.18,283.82 C 76.09,283.58 76.00,283.33 75.92,283.08 C 75.84,282.82 75.77,282.56 75.70,282.30 C 75.64,282.03 75.58,281.76 75.52,281.48 C 75.47,281.20 75.42,280.91 75.38,280.62 C 75.34,280.32 75.31,280.02 75.28,279.72 C 75.25,279.41 75.29,279.08 75.22,278.78 C 75.15,278.48 75.04,278.19 74.88,277.91 C 74.73,277.64 74.52,277.37 74.27,277.12 C 74.02,276.86 73.73,276.62 73.39,276.39 C 73.05,276.16 72.67,275.94 72.23,275.73 C 71.80,275.53 71.33,275.33 70.80,275.15 C 70.28,274.96 69.71,274.79 69.10,274.63 C 68.49,274.47 67.83,274.32 67.12,274.19 C 66.42,274.05 65.59,273.94 64.88,273.81 C 64.16,273.69 63.48,273.56 62.84,273.44 C 62.20,273.31 61.60,273.19 61.03,273.06 C 60.46,272.94 59.93,272.81 59.44,272.69 C 58.94,272.56 58.48,272.44 58.06,272.31 C 57.64,272.19 57.26,272.06 56.91,271.94 C 56.56,271.81 56.24,271.69 55.97,271.56 C 55.69,271.44 55.45,271.31 55.25,271.19 C 55.05,271.06 54.92,270.93 54.75,270.81 C 54.58,270.69 54.40,270.58 54.23,270.48 C 54.05,270.37 53.87,270.27 53.68,270.18 C 53.49,270.09 53.30,270.00 53.11,269.92 C 52.92,269.84 52.72,269.77 52.52,269.70 C 52.31,269.64 52.11,269.58 51.90,269.52 C 51.69,269.47 51.48,269.42 51.26,269.38 C 51.04,269.34 50.82,269.31 50.59,269.28 C 50.37,269.25 50.11,269.24 49.91,269.22 C 49.70,269.19 49.51,269.17 49.35,269.13 C 49.19,269.10 49.05,269.06 48.93,269.02 C 48.81,268.98 48.71,268.94 48.64,268.89 C 48.57,268.84 48.51,268.79 48.48,268.73 C 48.45,268.68 48.45,268.62 48.46,268.55 C 48.48,268.49 48.51,268.42 48.57,268.35 C 48.63,268.28 48.71,268.20 48.81,268.12 C 48.92,268.05 49.08,267.98 49.19,267.88 C 49.30,267.77 49.39,267.64 49.47,267.48 C 49.55,267.33 49.61,267.15 49.66,266.95 C 49.70,266.75 49.73,266.53 49.75,266.28 C 49.77,266.03 49.77,265.76 49.75,265.47 C 49.73,265.17 49.70,264.86 49.66,264.52 C 49.61,264.17 49.55,263.81 49.47,263.42 C 49.39,263.03 49.30,262.62 49.19,262.19 C 49.08,261.75 48.92,261.27 48.81,260.81 C 48.71,260.36 48.62,259.91 48.55,259.47 C 48.48,259.03 48.42,258.59 48.39,258.16 C 48.36,257.72 48.34,257.30 48.34,256.88 C 48.35,256.45 48.37,256.04 48.41,255.62 C 48.45,255.21 48.50,254.81 48.58,254.41 C 48.65,254.01 48.75,253.61 48.86,253.22 C 48.97,252.83 49.10,252.44 49.25,252.06 C 49.40,251.68 49.52,251.31 49.75,250.94 C 49.98,250.56 50.27,250.19 50.63,249.82 C 50.99,249.45 51.41,249.08 51.90,248.71 C 52.38,248.34 52.93,247.98 53.55,247.61 C 54.16,247.24 54.84,246.88 55.58,246.52 C 56.32,246.15 57.12,245.79 57.99,245.43 C 58.86,245.07 59.79,244.71 60.79,244.35 C 61.79,243.99 62.85,243.64 63.97,243.28 C 65.09,242.93 66.39,242.55 67.53,242.22 C 68.67,241.88 69.76,241.57 70.80,241.27 C 71.85,240.98 72.84,240.70 73.79,240.45 C 74.74,240.19 75.63,239.95 76.48,239.73 C 77.33,239.52 78.14,239.32 78.89,239.14 C 79.64,238.96 80.35,238.80 81.01,238.66 C 81.67,238.52 82.27,238.40 82.84,238.30 C 83.40,238.20 83.91,238.12 84.38,238.06 C 84.84,238.00 85.23,237.98 85.62,237.94 C 86.02,237.89 86.40,237.84 86.76,237.79 C 87.12,237.74 87.45,237.68 87.77,237.62 C 88.09,237.56 88.39,237.49 88.67,237.42 C 88.95,237.35 89.21,237.28 89.45,237.20 C 89.69,237.13 89.92,237.05 90.12,236.96 C 90.32,236.88 90.50,236.79 90.66,236.70 C 90.83,236.60 90.97,236.51 91.09,236.41 C 91.22,236.31 91.31,236.22 91.41,236.09 C 91.50,235.97 91.59,235.83 91.66,235.66 C 91.74,235.50 91.81,235.32 91.87,235.12 C 91.93,234.92 91.98,234.69 92.02,234.45 C 92.06,234.21 92.09,233.95 92.11,233.67 C 92.13,233.39 92.14,233.09 92.15,232.77 C 92.15,232.45 92.15,232.12 92.13,231.76 C 92.12,231.40 92.10,231.02 92.06,230.62 C 92.03,230.23 91.97,229.78 91.94,229.38 C 91.90,228.97 91.88,228.59 91.86,228.22 C 91.84,227.85 91.83,227.49 91.83,227.16 C 91.83,226.82 91.83,226.49 91.84,226.19 C 91.86,225.88 91.88,225.59 91.91,225.31 C 91.93,225.04 91.97,224.78 92.02,224.53 C 92.06,224.29 92.11,224.06 92.17,223.84 C 92.23,223.63 92.30,223.43 92.38,223.25 C 92.45,223.07 92.53,222.92 92.62,222.75 C 92.72,222.58 92.82,222.42 92.93,222.26 C 93.04,222.10 93.16,221.93 93.29,221.77 C 93.42,221.61 93.56,221.45 93.70,221.30 C 93.85,221.14 94.01,220.98 94.17,220.83 C 94.34,220.67 94.51,220.52 94.70,220.37 C 94.88,220.21 95.07,220.06 95.27,219.91 C 95.48,219.76 95.69,219.62 95.91,219.47 C 96.13,219.32 96.29,219.18 96.59,219.03 C 96.90,218.88 97.27,218.73 97.73,218.57 C 98.18,218.41 98.70,218.25 99.30,218.09 C 99.90,217.92 100.58,217.75 101.33,217.58 C 102.08,217.40 102.90,217.23 103.80,217.05 C 104.69,216.87 105.67,216.68 106.71,216.49 C 107.76,216.30 108.88,216.11 110.07,215.91 C 111.26,215.72 112.53,215.52 113.88,215.31 C 115.22,215.11 116.62,214.88 118.12,214.69 C 119.63,214.49 121.22,214.32 122.91,214.16 C 124.59,213.99 126.36,213.85 128.22,213.72 C 130.08,213.59 132.03,213.47 134.06,213.38 C 136.10,213.28 138.22,213.19 140.44,213.12 C 142.65,213.06 144.95,213.01 147.34,212.97 C 149.73,212.93 152.21,212.91 154.78,212.91 C 157.35,212.90 160.01,212.91 162.75,212.94 C 165.49,212.96 168.52,212.97 171.25,213.06 C 173.98,213.15 176.60,213.29 179.11,213.47 C 181.62,213.65 184.03,213.88 186.33,214.16 C 188.63,214.43 190.82,214.76 192.91,215.12 C 194.99,215.49 196.97,215.91 198.84,216.38 C 200.72,216.84 202.48,217.35 204.14,217.91 C 205.80,218.46 207.35,219.07 208.80,219.72 C 210.24,220.37 211.58,221.07 212.81,221.81 C 214.04,222.56 215.05,223.48 216.19,224.19 C 217.33,224.89 218.48,225.51 219.64,226.05 C 220.80,226.58 221.98,227.03 223.17,227.39 C 224.36,227.75 225.57,228.03 226.78,228.22 C 228.00,228.41 229.23,228.51 230.47,228.53 C 231.71,228.55 232.97,228.48 234.23,228.33 C 235.50,228.17 236.78,227.93 238.08,227.61 C 239.37,227.28 240.68,226.87 242.00,226.38 C 243.32,225.88 244.72,225.17 246.00,224.62 C 247.28,224.08 248.51,223.58 249.69,223.11 C 250.86,222.64 251.99,222.22 253.06,221.83 C 254.14,221.44 255.16,221.09 256.12,220.78 C 257.09,220.47 258.01,220.20 258.88,219.97 C 259.74,219.74 260.55,219.54 261.31,219.39 C 262.07,219.24 262.78,219.12 263.44,219.05 C 264.09,218.97 264.70,218.93 265.25,218.94 C 265.80,218.94 266.16,218.99 266.75,219.06 C 267.34,219.13 268.01,219.23 268.77,219.36 C 269.52,219.49 270.37,219.64 271.30,219.83 C 272.23,220.01 273.24,220.23 274.34,220.47 C 275.45,220.71 276.63,220.98 277.91,221.28 C 279.18,221.58 280.54,221.91 281.98,222.27 C 283.43,222.62 284.96,223.01 286.58,223.42 C 288.20,223.84 289.90,224.28 291.69,224.75 C 293.48,225.22 295.49,225.76 297.31,226.25 C 299.14,226.74 300.91,227.23 302.64,227.70 C 304.37,228.18 306.04,228.65 307.67,229.11 C 309.30,229.57 310.88,230.02 312.41,230.47 C 313.93,230.91 315.41,231.35 316.84,231.78 C 318.27,232.21 319.65,232.63 320.98,233.05 C 322.32,233.46 323.60,233.87 324.83,234.27 C 326.06,234.66 327.24,235.05 328.38,235.44 C 329.51,235.82 330.60,236.21 331.62,236.56 C 332.65,236.92 333.62,237.26 334.53,237.58 C 335.44,237.90 336.30,238.20 337.09,238.48 C 337.89,238.77 338.63,239.03 339.31,239.28 C 339.99,239.53 340.62,239.76 341.19,239.97 C 341.76,240.18 342.27,240.37 342.72,240.55 C 343.17,240.72 343.57,240.88 343.91,241.02 C 344.24,241.15 344.53,241.27 344.75,241.38 C 344.97,241.48 345.09,241.54 345.25,241.62 C 345.41,241.71 345.56,241.80 345.70,241.89 C 345.85,241.98 345.98,242.08 346.11,242.17 C 346.24,242.27 346.36,242.37 346.47,242.47 C 346.58,242.57 346.68,242.67 346.78,242.78 C 346.88,242.89 346.97,243.00 347.05,243.11 C 347.13,243.22 347.20,243.34 347.27,243.45 C 347.33,243.57 347.39,243.69 347.44,243.81 C 347.49,243.93 347.56,244.08 347.56,244.19 C 347.57,244.30 347.53,244.40 347.45,244.48 C 347.38,244.57 347.26,244.64 347.11,244.70 C 346.96,244.76 346.76,244.81 346.53,244.84 C 346.30,244.88 346.03,244.90 345.72,244.91 C 345.41,244.91 345.06,244.91 344.67,244.89 C 344.28,244.87 343.86,244.84 343.39,244.80 C 342.92,244.75 342.42,244.70 341.88,244.62 C 341.33,244.55 340.70,244.45 340.12,244.38 C 339.55,244.30 338.98,244.23 338.42,244.17 C 337.86,244.11 337.31,244.06 336.77,244.02 C 336.22,243.97 335.68,243.93 335.16,243.91 C 334.63,243.88 334.11,243.86 333.59,243.84 C 333.08,243.83 332.58,243.83 332.08,243.83 C 331.58,243.83 331.09,243.84 330.61,243.86 C 330.13,243.88 329.65,243.90 329.19,243.94 C 328.72,243.97 328.25,244.03 327.81,244.06 C 327.38,244.10 326.96,244.12 326.56,244.14 C 326.17,244.16 325.79,244.17 325.44,244.17 C 325.08,244.17 324.75,244.17 324.44,244.16 C 324.12,244.14 323.83,244.12 323.56,244.09 C 323.29,244.07 323.04,244.03 322.81,243.98 C 322.58,243.94 322.38,243.89 322.19,243.83 C 322.00,243.77 321.83,243.70 321.69,243.62 C 321.54,243.55 321.46,243.45 321.31,243.38 C 321.17,243.30 321.00,243.23 320.80,243.16 C 320.61,243.10 320.40,243.04 320.16,242.99 C 319.93,242.94 319.67,242.90 319.39,242.86 C 319.11,242.82 318.81,242.79 318.48,242.77 C 318.16,242.74 317.81,242.72 317.45,242.71 C 317.08,242.70 316.69,242.69 316.27,242.70 C 315.86,242.70 315.43,242.70 314.97,242.72 C 314.51,242.73 313.95,242.75 313.53,242.78 C 313.11,242.81 312.75,242.85 312.45,242.89 C 312.15,242.93 311.91,242.99 311.73,243.05 C 311.55,243.11 311.43,243.17 311.38,243.25 C 311.32,243.33 311.32,243.41 311.38,243.50 C 311.43,243.59 311.55,243.69 311.73,243.80 C 311.91,243.90 312.15,244.02 312.45,244.14 C 312.75,244.26 313.11,244.39 313.53,244.53 C 313.95,244.67 314.50,244.83 314.97,244.97 C 315.43,245.10 315.88,245.23 316.32,245.34 C 316.76,245.45 317.18,245.55 317.59,245.63 C 317.99,245.72 318.39,245.80 318.77,245.86 C 319.14,245.92 319.51,245.98 319.86,246.02 C 320.21,246.06 320.55,246.08 320.87,246.10 C 321.19,246.12 321.50,246.12 321.79,246.12 C 322.08,246.11 322.36,246.09 322.62,246.06 C 322.89,246.03 323.11,245.96 323.38,245.94 C 323.64,245.91 323.91,245.90 324.20,245.91 C 324.49,245.91 324.79,245.93 325.11,245.97 C 325.42,246.01 325.75,246.06 326.09,246.12 C 326.43,246.19 326.79,246.28 327.16,246.38 C 327.52,246.47 327.90,246.59 328.30,246.72 C 328.69,246.85 329.10,246.99 329.52,247.16 C 329.93,247.32 330.37,247.49 330.81,247.69 C 331.26,247.88 331.73,248.12 332.19,248.31 C 332.64,248.51 333.09,248.69 333.53,248.86 C 333.97,249.03 334.41,249.18 334.84,249.33 C 335.28,249.47 335.70,249.60 336.12,249.72 C 336.55,249.84 336.96,249.94 337.38,250.03 C 337.79,250.12 338.19,250.20 338.59,250.27 C 338.99,250.33 339.39,250.38 339.78,250.42 C 340.17,250.46 340.56,250.49 340.94,250.50 C 341.32,250.51 341.68,250.48 342.06,250.50 C 342.45,250.52 342.84,250.55 343.24,250.60 C 343.64,250.65 344.06,250.72 344.48,250.80 C 344.90,250.89 345.33,250.99 345.77,251.11 C 346.20,251.23 346.65,251.36 347.11,251.52 C 347.57,251.67 348.03,251.84 348.51,252.02 C 348.98,252.21 349.47,252.41 349.96,252.63 C 350.45,252.85 350.96,253.09 351.47,253.34 C 351.98,253.60 352.55,253.89 353.03,254.16 C 353.51,254.42 353.95,254.69 354.34,254.95 C 354.74,255.22 355.09,255.48 355.41,255.73 C 355.72,255.99 355.99,256.25 356.22,256.50 C 356.45,256.75 356.64,257.00 356.78,257.25 C 356.93,257.50 357.03,257.74 357.09,257.98 C 357.16,258.23 357.18,258.47 357.16,258.70 C 357.14,258.94 357.07,259.17 356.97,259.41 C 356.86,259.64 356.69,259.87 356.53,260.09 C 356.37,260.32 356.20,260.53 356.01,260.74 C 355.82,260.95 355.62,261.15 355.40,261.35 C 355.18,261.55 354.95,261.74 354.70,261.92 C 354.46,262.11 354.20,262.28 353.92,262.45 C 353.65,262.62 353.36,262.79 353.05,262.95 C 352.75,263.10 352.43,263.25 352.10,263.40 C 351.77,263.54 351.42,263.68 351.06,263.81 C 350.70,263.94 350.32,264.07 349.94,264.19 C 349.55,264.31 349.16,264.42 348.77,264.53 C 348.37,264.64 347.96,264.74 347.55,264.84 C 347.13,264.94 346.71,265.04 346.28,265.12 C 345.85,265.21 345.41,265.30 344.97,265.38 C 344.52,265.45 344.07,265.53 343.61,265.59 C 343.15,265.66 342.68,265.72 342.20,265.78 C 341.73,265.84 341.24,265.89 340.75,265.94 C 340.26,265.98 339.73,266.01 339.25,266.06 C 338.77,266.11 338.30,266.17 337.84,266.23 C 337.39,266.30 336.95,266.37 336.53,266.45 C 336.11,266.53 335.70,266.62 335.31,266.72 C 334.92,266.82 334.55,266.92 334.19,267.03 C 333.83,267.14 333.48,267.26 333.16,267.39 C 332.83,267.52 332.52,267.65 332.22,267.80 C 331.92,267.94 331.64,268.09 331.38,268.25 C 331.11,268.41 330.89,268.59 330.62,268.75 C 330.36,268.91 330.09,269.05 329.81,269.19 C 329.53,269.32 329.24,269.45 328.94,269.56 C 328.64,269.68 328.32,269.78 328.00,269.88 C 327.68,269.97 327.34,270.05 327.00,270.12 C 326.66,270.20 326.30,270.26 325.94,270.31 C 325.57,270.36 325.20,270.41 324.81,270.44 C 324.43,270.47 324.03,270.49 323.62,270.50 C 323.22,270.51 322.79,270.49 322.38,270.50 C 321.96,270.51 321.54,270.52 321.12,270.55 C 320.71,270.57 320.29,270.60 319.88,270.64 C 319.46,270.68 319.04,270.73 318.62,270.78 C 318.21,270.84 317.79,270.90 317.38,270.97 C 316.96,271.04 316.54,271.12 316.12,271.20 C 315.71,271.29 315.29,271.38 314.88,271.48 C 314.46,271.59 314.04,271.70 313.62,271.81 C 313.21,271.93 312.67,272.08 312.38,272.19 C 312.08,272.30 311.91,272.39 311.86,272.47 C 311.81,272.55 311.88,272.61 312.08,272.66 C 312.27,272.70 312.59,272.73 313.03,272.75 C 313.47,272.77 314.03,272.77 314.72,272.75 C 315.40,272.73 316.21,272.70 317.14,272.66 C 318.07,272.61 319.12,272.55 320.30,272.47 C 321.47,272.39 322.77,272.30 324.19,272.19 C 325.61,272.08 327.36,271.93 328.81,271.81 C 330.27,271.70 331.63,271.60 332.91,271.51 C 334.19,271.42 335.39,271.34 336.49,271.27 C 337.60,271.21 338.62,271.15 339.55,271.11 C 340.48,271.07 341.32,271.04 342.08,271.02 C 342.83,271.00 343.50,270.99 344.09,270.99 C 344.67,271.00 345.16,271.01 345.57,271.04 C 345.98,271.07 346.30,271.11 346.53,271.16 C 346.76,271.21 346.85,271.27 346.97,271.34 C 347.08,271.42 347.17,271.50 347.22,271.59 C 347.27,271.69 347.29,271.79 347.28,271.91 C 347.27,272.02 347.23,272.15 347.16,272.28 C 347.08,272.42 346.98,272.56 346.84,272.72 C 346.71,272.88 346.54,273.04 346.34,273.22 C 346.15,273.40 345.92,273.58 345.66,273.78 C 345.40,273.98 345.10,274.19 344.78,274.41 C 344.46,274.62 344.19,274.84 343.72,275.09 C 343.25,275.35 342.67,275.63 341.98,275.93 C 341.28,276.23 340.48,276.56 339.55,276.91 C 338.63,277.27 337.60,277.64 336.45,278.05 C 335.31,278.45 334.05,278.88 332.67,279.33 C 331.30,279.78 329.81,280.26 328.21,280.76 C 326.61,281.26 324.90,281.79 323.07,282.34 C 321.24,282.89 319.30,283.46 317.25,284.06 C 315.20,284.66 312.82,285.33 310.75,285.94 C 308.68,286.54 306.71,287.13 304.83,287.70 C 302.95,288.27 301.17,288.83 299.48,289.36 C 297.80,289.89 296.21,290.41 294.72,290.91 C 293.23,291.40 291.83,291.88 290.53,292.34 C 289.23,292.80 288.03,293.25 286.92,293.67 C 285.82,294.10 284.80,294.50 283.89,294.89 C 282.98,295.28 282.16,295.65 281.44,296.00 C 280.72,296.35 280.27,296.68 279.56,297.00 C 278.85,297.32 278.05,297.63 277.17,297.92 C 276.29,298.22 275.32,298.50 274.27,298.77 C 273.21,299.03 272.07,299.29 270.84,299.53 C 269.62,299.77 268.30,300.00 266.91,300.22 C 265.51,300.43 264.02,300.64 262.45,300.83 C 260.88,301.02 259.23,301.20 257.48,301.36 C 255.74,301.52 253.91,301.67 252.00,301.81 C 250.09,301.95 247.92,302.07 246.00,302.19 C 244.08,302.31 242.24,302.43 240.48,302.55 C 238.73,302.66 237.05,302.78 235.45,302.89 C 233.86,303.00 232.34,303.11 230.91,303.22 C 229.47,303.33 228.12,303.43 226.84,303.53 C 225.57,303.63 224.38,303.73 223.27,303.83 C 222.15,303.92 221.12,304.02 220.17,304.11 C 219.22,304.20 218.35,304.29 217.56,304.38 C 216.77,304.46 216.11,304.54 215.44,304.62 C 214.76,304.71 214.12,304.79 213.52,304.88 C 212.91,304.96 212.34,305.04 211.80,305.12 C 211.26,305.21 210.75,305.29 210.28,305.38 C 209.81,305.46 209.37,305.54 208.97,305.62 C 208.57,305.71 208.20,305.79 207.86,305.88 C 207.52,305.96 207.22,306.04 206.95,306.12 C 206.68,306.21 206.45,306.29 206.25,306.38 C 206.05,306.46 206.04,306.55 205.75,306.62 C 205.46,306.70 205.04,306.78 204.50,306.84 C 203.96,306.91 203.29,306.97 202.50,307.03 C 201.71,307.09 200.79,307.14 199.75,307.19 C 198.71,307.23 197.54,307.28 196.25,307.31 C 194.96,307.35 193.54,307.38 192.00,307.41 C 190.46,307.43 188.79,307.45 187.00,307.47 C 185.21,307.48 183.29,307.49 181.25,307.50 Z" />
    </clipPath>
  </defs>
  <path d="M 181.25,307.50 C 179.21,307.51 176.79,307.51 174.75,307.50 C 172.71,307.49 170.78,307.48 168.98,307.47 C 167.18,307.45 165.51,307.43 163.95,307.41 C 162.40,307.38 160.97,307.35 159.66,307.31 C 158.35,307.28 157.16,307.23 156.09,307.19 C 155.03,307.14 154.09,307.09 153.27,307.03 C 152.45,306.97 151.75,306.91 151.17,306.84 C 150.60,306.78 150.14,306.70 149.81,306.62 C 149.48,306.55 149.43,306.45 149.19,306.38 C 148.94,306.30 148.65,306.22 148.33,306.16 C 148.00,306.09 147.64,306.03 147.23,305.97 C 146.83,305.91 146.39,305.86 145.91,305.81 C 145.42,305.77 144.90,305.72 144.34,305.69 C 143.78,305.65 143.18,305.62 142.55,305.59 C 141.91,305.57 141.23,305.55 140.52,305.53 C 139.80,305.52 139.04,305.51 138.25,305.50 C 137.46,305.49 136.61,305.52 135.75,305.50 C 134.89,305.48 133.99,305.44 133.06,305.38 C 132.14,305.31 131.18,305.23 130.19,305.12 C 129.20,305.02 128.18,304.90 127.12,304.75 C 126.07,304.60 124.99,304.44 123.88,304.25 C 122.76,304.06 121.61,303.85 120.44,303.62 C 119.26,303.40 118.05,303.15 116.81,302.88 C 115.57,302.60 114.30,302.31 113.00,302.00 C 111.70,301.69 110.29,301.34 109.00,301.00 C 107.71,300.66 106.45,300.32 105.24,299.98 C 104.03,299.63 102.86,299.28 101.73,298.93 C 100.60,298.58 99.50,298.22 98.45,297.86 C 97.40,297.50 96.39,297.13 95.42,296.77 C 94.45,296.40 93.52,296.02 92.63,295.65 C 91.74,295.27 90.89,294.89 90.09,294.51 C 89.28,294.12 88.51,293.74 87.78,293.34 C 87.05,292.95 86.37,292.54 85.72,292.16 C 85.07,291.77 84.45,291.40 83.87,291.04 C 83.29,290.68 82.74,290.33 82.23,289.99 C 81.71,289.65 81.24,289.33 80.80,289.02 C 80.36,288.70 79.95,288.40 79.58,288.11 C 79.21,287.82 78.87,287.54 78.57,287.27 C 78.27,287.01 78.00,286.75 77.77,286.51 C 77.54,286.26 77.35,286.03 77.19,285.81 C 77.03,285.59 76.93,285.40 76.81,285.19 C 76.69,284.97 76.58,284.75 76.48,284.52 C 76.37,284.30 76.27,284.06 76.18,283.82 C 76.09,283.58 76.00,283.33 75.92,283.08 C 75.84,282.82 75.77,282.56 75.70,282.30 C 75.64,282.03 75.58,281.76 75.52,281.48 C 75.47,281.20 75.42,280.91 75.38,280.62 C 75.34,280.32 75.31,280.02 75.28,279.72 C 75.25,279.41 75.29,279.08 75.22,278.78 C 75.15,278.48 75.04,278.19 74.88,277.91 C 74.73,277.64 74.52,277.37 74.27,277.12 C 74.02,276.86 73.73,276.62 73.39,276.39 C 73.05,276.16 72.67,275.94 72.23,275.73 C 71.80,275.53 71.33,275.33 70.80,275.15 C 70.28,274.96 69.71,274.79 69.10,274.63 C 68.49,274.47 67.83,274.32 67.12,274.19 C 66.42,274.05 65.59,273.94 64.88,273.81 C 64.16,273.69 63.48,273.56 62.84,273.44 C 62.20,273.31 61.60,273.19 61.03,273.06 C 60.46,272.94 59.93,272.81 59.44,272.69 C 58.94,272.56 58.48,272.44 58.06,272.31 C 57.64,272.19 57.26,272.06 56.91,271.94 C 56.56,271.81 56.24,271.69 55.97,271.56 C 55.69,271.44 55.45,271.31 55.25,271.19 C 55.05,271.06 54.92,270.93 54.75,270.81 C 54.58,270.69 54.40,270.58 54.23,270.48 C 54.05,270.37 53.87,270.27 53.68,270.18 C 53.49,270.09 53.30,270.00 53.11,269.92 C 52.92,269.84 52.72,269.77 52.52,269.70 C 52.31,269.64 52.11,269.58 51.90,269.52 C 51.69,269.47 51.48,269.42 51.26,269.38 C 51.04,269.34 50.82,269.31 50.59,269.28 C 50.37,269.25 50.11,269.24 49.91,269.22 C 49.70,269.19 49.51,269.17 49.35,269.13 C 49.19,269.10 49.05,269.06 48.93,269.02 C 48.81,268.98 48.71,268.94 48.64,268.89 C 48.57,268.84 48.51,268.79 48.48,268.73 C 48.45,268.68 48.45,268.62 48.46,268.55 C 48.48,268.49 48.51,268.42 48.57,268.35 C 48.63,268.28 48.71,268.20 48.81,268.12 C 48.92,268.05 49.08,267.98 49.19,267.88 C 49.30,267.77 49.39,267.64 49.47,267.48 C 49.55,267.33 49.61,267.15 49.66,266.95 C 49.70,266.75 49.73,266.53 49.75,266.28 C 49.77,266.03 49.77,265.76 49.75,265.47 C 49.73,265.17 49.70,264.86 49.66,264.52 C 49.61,264.17 49.55,263.81 49.47,263.42 C 49.39,263.03 49.30,262.62 49.19,262.19 C 49.08,261.75 48.92,261.27 48.81,260.81 C 48.71,260.36 48.62,259.91 48.55,259.47 C 48.48,259.03 48.42,258.59 48.39,258.16 C 48.36,257.72 48.34,257.30 48.34,256.88 C 48.35,256.45 48.37,256.04 48.41,255.62 C 48.45,255.21 48.50,254.81 48.58,254.41 C 48.65,254.01 48.75,253.61 48.86,253.22 C 48.97,252.83 49.10,252.44 49.25,252.06 C 49.40,251.68 49.52,251.31 49.75,250.94 C 49.98,250.56 50.27,250.19 50.63,249.82 C 50.99,249.45 51.41,249.08 51.90,248.71 C 52.38,248.34 52.93,247.98 53.55,247.61 C 54.16,247.24 54.84,246.88 55.58,246.52 C 56.32,246.15 57.12,245.79 57.99,245.43 C 58.86,245.07 59.79,244.71 60.79,244.35 C 61.79,243.99 62.85,243.64 63.97,243.28 C 65.09,242.93 66.39,242.55 67.53,242.22 C 68.67,241.88 69.76,241.57 70.80,241.27 C 71.85,240.98 72.84,240.70 73.79,240.45 C 74.74,240.19 75.63,239.95 76.48,239.73 C 77.33,239.52 78.14,239.32 78.89,239.14 C 79.64,238.96 80.35,238.80 81.01,238.66 C 81.67,238.52 82.27,238.40 82.84,238.30 C 83.40,238.20 83.91,238.12 84.38,238.06 C 84.84,238.00 85.23,237.98 85.62,237.94 C 86.02,237.89 86.40,237.84 86.76,237.79 C 87.12,237.74 87.45,237.68 87.77,237.62 C 88.09,237.56 88.39,237.49 88.67,237.42 C 88.95,237.35 89.21,237.28 89.45,237.20 C 89.69,237.13 89.92,237.05 90.12,236.96 C 90.32,236.88 90.50,236.79 90.66,236.70 C 90.83,236.60 90.97,236.51 91.09,236.41 C 91.22,236.31 91.31,236.22 91.41,236.09 C 91.50,235.97 91.59,235.83 91.66,235.66 C 91.74,235.50 91.81,235.32 91.87,235.12 C 91.93,234.92 91.98,234.69 92.02,234.45 C 92.06,234.21 92.09,233.95 92.11,233.67 C 92.13,233.39 92.14,233.09 92.15,232.77 C 92.15,232.45 92.15,232.12 92.13,231.76 C 92.12,231.40 92.10,231.02 92.06,230.62 C 92.03,230.23 91.97,229.78 91.94,229.38 C 91.90,228.97 91.88,228.59 91.86,228.22 C 91.84,227.85 91.83,227.49 91.83,227.16 C 91.83,226.82 91.83,226.49 91.84,226.19 C 91.86,225.88 91.88,225.59 91.91,225.31 C 91.93,225.04 91.97,224.78 92.02,224.53 C 92.06,224.29 92.11,224.06 92.17,223.84 C 92.23,223.63 92.30,223.43 92.38,223.25 C 92.45,223.07 92.53,222.92 92.62,222.75 C 92.72,222.58 92.82,222.42 92.93,222.26 C 93.04,222.10 93.16,221.93 93.29,221.77 C 93.42,221.61 93.56,221.45 93.70,221.30 C 93.85,221.14 94.01,220.98 94.17,220.83 C 94.34,220.67 94.51,220.52 94.70,220.37 C 94.88,220.21 95.07,220.06 95.27,219.91 C 95.48,219.76 95.69,219.62 95.91,219.47 C 96.13,219.32 96.29,219.18 96.59,219.03 C 96.90,218.88 97.27,218.73 97.73,218.57 C 98.18,218.41 98.70,218.25 99.30,218.09 C 99.90,217.92 100.58,217.75 101.33,217.58 C 102.08,217.40 102.90,217.23 103.80,217.05 C 104.69,216.87 105.67,216.68 106.71,216.49 C 107.76,216.30 108.88,216.11 110.07,215.91 C 111.26,215.72 112.53,215.52 113.88,215.31 C 115.22,215.11 116.62,214.88 118.12,214.69 C 119.63,214.49 121.22,214.32 122.91,214.16 C 124.59,213.99 126.36,213.85 128.22,213.72 C 130.08,213.59 132.03,213.47 134.06,213.38 C 136.10,213.28 138.22,213.19 140.44,213.12 C 142.65,213.06 144.95,213.01 147.34,212.97 C 149.73,212.93 152.21,212.91 154.78,212.91 C 157.35,212.90 160.01,212.91 162.75,212.94 C 165.49,212.96 168.52,212.97 171.25,213.06 C 173.98,213.15 176.60,213.29 179.11,213.47 C 181.62,213.65 184.03,213.88 186.33,214.16 C 188.63,214.43 190.82,214.76 192.91,215.12 C 194.99,215.49 196.97,215.91 198.84,216.38 C 200.72,216.84 202.48,217.35 204.14,217.91 C 205.80,218.46 207.35,219.07 208.80,219.72 C 210.24,220.37 211.58,221.07 212.81,221.81 C 214.04,222.56 215.05,223.48 216.19,224.19 C 217.33,224.89 218.48,225.51 219.64,226.05 C 220.80,226.58 221.98,227.03 223.17,227.39 C 224.36,227.75 225.57,228.03 226.78,228.22 C 228.00,228.41 229.23,228.51 230.47,228.53 C 231.71,228.55 232.97,228.48 234.23,228.33 C 235.50,228.17 236.78,227.93 238.08,227.61 C 239.37,227.28 240.68,226.87 242.00,226.38 C 243.32,225.88 244.72,225.17 246.00,224.62 C 247.28,224.08 248.51,223.58 249.69,223.11 C 250.86,222.64 251.99,222.22 253.06,221.83 C 254.14,221.44 255.16,221.09 256.12,220.78 C 257.09,220.47 258.01,220.20 258.88,219.97 C 259.74,219.74 260.55,219.54 261.31,219.39 C 262.07,219.24 262.78,219.12 263.44,219.05 C 264.09,218.97 264.70,218.93 265.25,218.94 C 265.80,218.94 266.16,218.99 266.75,219.06 C 267.34,219.13 268.01,219.23 268.77,219.36 C 269.52,219.49 270.37,219.64 271.30,219.83 C 272.23,220.01 273.24,220.23 274.34,220.47 C 275.45,220.71 276.63,220.98 277.91,221.28 C 279.18,221.58 280.54,221.91 281.98,222.27 C 283.43,222.62 284.96,223.01 286.58,223.42 C 288.20,223.84 289.90,224.28 291.69,224.75 C 293.48,225.22 295.49,225.76 297.31,226.25 C 299.14,226.74 300.91,227.23 302.64,227.70 C 304.37,228.18 306.04,228.65 307.67,229.11 C 309.30,229.57 310.88,230.02 312.41,230.47 C 313.93,230.91 315.41,231.35 316.84,231.78 C 318.27,232.21 319.65,232.63 320.98,233.05 C 322.32,233.46 323.60,233.87 324.83,234.27 C 326.06,234.66 327.24,235.05 328.38,235.44 C 329.51,235.82 330.60,236.21 331.62,236.56 C 332.65,236.92 333.62,237.26 334.53,237.58 C 335.44,237.90 336.30,238.20 337.09,238.48 C 337.89,238.77 338.63,239.03 339.31,239.28 C 339.99,239.53 340.62,239.76 341.19,239.97 C 341.76,240.18 342.27,240.37 342.72,240.55 C 343.17,240.72 343.57,240.88 343.91,241.02 C 344.24,241.15 344.53,241.27 344.75,241.38 C 344.97,241.48 345.09,241.54 345.25,241.62 C 345.41,241.71 345.56,241.80 345.70,241.89 C 345.85,241.98 345.98,242.08 346.11,242.17 C 346.24,242.27 346.36,242.37 346.47,242.47 C 346.58,242.57 346.68,242.67 346.78,242.78 C 346.88,242.89 346.97,243.00 347.05,243.11 C 347.13,243.22 347.20,243.34 347.27,243.45 C 347.33,243.57 347.39,243.69 347.44,243.81 C 347.49,243.93 347.56,244.08 347.56,244.19 C 347.57,244.30 347.53,244.40 347.45,244.48 C 347.38,244.57 347.26,244.64 347.11,244.70 C 346.96,244.76 346.76,244.81 346.53,244.84 C 346.30,244.88 346.03,244.90 345.72,244.91 C 345.41,244.91 345.06,244.91 344.67,244.89 C 344.28,244.87 343.86,244.84 343.39,244.80 C 342.92,244.75 342.42,244.70 341.88,244.62 C 341.33,244.55 340.70,244.45 340.12,244.38 C 339.55,244.30 338.98,244.23 338.42,244.17 C 337.86,244.11 337.31,244.06 336.77,244.02 C 336.22,243.97 335.68,243.93 335.16,243.91 C 334.63,243.88 334.11,243.86 333.59,243.84 C 333.08,243.83 332.58,243.83 332.08,243.83 C 331.58,243.83 331.09,243.84 330.61,243.86 C 330.13,243.88 329.65,243.90 329.19,243.94 C 328.72,243.97 328.25,244.03 327.81,244.06 C 327.38,244.10 326.96,244.12 326.56,244.14 C 326.17,244.16 325.79,244.17 325.44,244.17 C 325.08,244.17 324.75,244.17 324.44,244.16 C 324.12,244.14 323.83,244.12 323.56,244.09 C 323.29,244.07 323.04,244.03 322.81,243.98 C 322.58,243.94 322.38,243.89 322.19,243.83 C 322.00,243.77 321.83,243.70 321.69,243.62 C 321.54,243.55 321.46,243.45 321.31,243.38 C 321.17,243.30 321.00,243.23 320.80,243.16 C 320.61,243.10 320.40,243.04 320.16,242.99 C 319.93,242.94 319.67,242.90 319.39,242.86 C 319.11,242.82 318.81,242.79 318.48,242.77 C 318.16,242.74 317.81,242.72 317.45,242.71 C 317.08,242.70 316.69,242.69 316.27,242.70 C 315.86,242.70 315.43,242.70 314.97,242.72 C 314.51,242.73 313.95,242.75 313.53,242.78 C 313.11,242.81 312.75,242.85 312.45,242.89 C 312.15,242.93 311.91,242.99 311.73,243.05 C 311.55,243.11 311.43,243.17 311.38,243.25 C 311.32,243.33 311.32,243.41 311.38,243.50 C 311.43,243.59 311.55,243.69 311.73,243.80 C 311.91,243.90 312.15,244.02 312.45,244.14 C 312.75,244.26 313.11,244.39 313.53,244.53 C 313.95,244.67 314.50,244.83 314.97,244.97 C 315.43,245.10 315.88,245.23 316.32,245.34 C 316.76,245.45 317.18,245.55 317.59,245.63 C 317.99,245.72 318.39,245.80 318.77,245.86 C 319.14,245.92 319.51,245.98 319.86,246.02 C 320.21,246.06 320.55,246.08 320.87,246.10 C 321.19,246.12 321.50,246.12 321.79,246.12 C 322.08,246.11 322.36,246.09 322.62,246.06 C 322.89,246.03 323.11,245.96 323.38,245.94 C 323.64,245.91 323.91,245.90 324.20,245.91 C 324.49,245.91 324.79,245.93 325.11,245.97 C 325.42,246.01 325.75,246.06 326.09,246.12 C 326.43,246.19 326.79,246.28 327.16,246.38 C 327.52,246.47 327.90,246.59 328.30,246.72 C 328.69,246.85 329.10,246.99 329.52,247.16 C 329.93,247.32 330.37,247.49 330.81,247.69 C 331.26,247.88 331.73,248.12 332.19,248.31 C 332.64,248.51 333.09,248.69 333.53,248.86 C 333.97,249.03 334.41,249.18 334.84,249.33 C 335.28,249.47 335.70,249.60 336.12,249.72 C 336.55,249.84 336.96,249.94 337.38,250.03 C 337.79,250.12 338.19,250.20 338.59,250.27 C 338.99,250.33 339.39,250.38 339.78,250.42 C 340.17,250.46 340.56,250.49 340.94,250.50 C 341.32,250.51 341.68,250.48 342.06,250.50 C 342.45,250.52 342.84,250.55 343.24,250.60 C 343.64,250.65 344.06,250.72 344.48,250.80 C 344.90,250.89 345.33,250.99 345.77,251.11 C 346.20,251.23 346.65,251.36 347.11,251.52 C 347.57,251.67 348.03,251.84 348.51,252.02 C 348.98,252.21 349.47,252.41 349.96,252.63 C 350.45,252.85 350.96,253.09 351.47,253.34 C 351.98,253.60 352.55,253.89 353.03,254.16 C 353.51,254.42 353.95,254.69 354.34,254.95 C 354.74,255.22 355.09,255.48 355.41,255.73 C 355.72,255.99 355.99,256.25 356.22,256.50 C 356.45,256.75 356.64,257.00 356.78,257.25 C 356.93,257.50 357.03,257.74 357.09,257.98 C 357.16,258.23 357.18,258.47 357.16,258.70 C 357.14,258.94 357.07,259.17 356.97,259.41 C 356.86,259.64 356.69,259.87 356.53,260.09 C 356.37,260.32 356.20,260.53 356.01,260.74 C 355.82,260.95 355.62,261.15 355.40,261.35 C 355.18,261.55 354.95,261.74 354.70,261.92 C 354.46,262.11 354.20,262.28 353.92,262.45 C 353.65,262.62 353.36,262.79 353.05,262.95 C 352.75,263.10 352.43,263.25 352.10,263.40 C 351.77,263.54 351.42,263.68 351.06,263.81 C 350.70,263.94 350.32,264.07 349.94,264.19 C 349.55,264.31 349.16,264.42 348.77,264.53 C 348.37,264.64 347.96,264.74 347.55,264.84 C 347.13,264.94 346.71,265.04 346.28,265.12 C 345.85,265.21 345.41,265.30 344.97,265.38 C 344.52,265.45 344.07,265.53 343.61,265.59 C 343.15,265.66 342.68,265.72 342.20,265.78 C 341.73,265.84 341.24,265.89 340.75,265.94 C 340.26,265.98 339.73,266.01 339.25,266.06 C 338.77,266.11 338.30,266.17 337.84,266.23 C 337.39,266.30 336.95,266.37 336.53,266.45 C 336.11,266.53 335.70,266.62 335.31,266.72 C 334.92,266.82 334.55,266.92 334.19,267.03 C 333.83,267.14 333.48,267.26 333.16,267.39 C 332.83,267.52 332.52,267.65 332.22,267.80 C 331.92,267.94 331.64,268.09 331.38,268.25 C 331.11,268.41 330.89,268.59 330.62,268.75 C 330.36,268.91 330.09,269.05 329.81,269.19 C 329.53,269.32 329.24,269.45 328.94,269.56 C 328.64,269.68 328.32,269.78 328.00,269.88 C 327.68,269.97 327.34,270.05 327.00,270.12 C 326.66,270.20 326.30,270.26 325.94,270.31 C 325.57,270.36 325.20,270.41 324.81,270.44 C 324.43,270.47 324.03,270.49 323.62,270.50 C 323.22,270.51 322.79,270.49 322.38,270.50 C 321.96,270.51 321.54,270.52 321.12,270.55 C 320.71,270.57 320.29,270.60 319.88,270.64 C 319.46,270.68 319.04,270.73 318.62,270.78 C 318.21,270.84 317.79,270.90 317.38,270.97 C 316.96,271.04 316.54,271.12 316.12,271.20 C 315.71,271.29 315.29,271.38 314.88,271.48 C 314.46,271.59 314.04,271.70 313.62,271.81 C 313.21,271.93 312.67,272.08 312.38,272.19 C 312.08,272.30 311.91,272.39 311.86,272.47 C 311.81,272.55 311.88,272.61 312.08,272.66 C 312.27,272.70 312.59,272.73 313.03,272.75 C 313.47,272.77 314.03,272.77 314.72,272.75 C 315.40,272.73 316.21,272.70 317.14,272.66 C 318.07,272.61 319.12,272.55 320.30,272.47 C 321.47,272.39 322.77,272.30 324.19,272.19 C 325.61,272.08 327.36,271.93 328.81,271.81 C 330.27,271.70 331.63,271.60 332.91,271.51 C 334.19,271.42 335.39,271.34 336.49,271.27 C 337.60,271.21 338.62,271.15 339.55,271.11 C 340.48,271.07 341.32,271.04 342.08,271.02 C 342.83,271.00 343.50,270.99 344.09,270.99 C 344.67,271.00 345.16,271.01 345.57,271.04 C 345.98,271.07 346.30,271.11 346.53,271.16 C 346.76,271.21 346.85,271.27 346.97,271.34 C 347.08,271.42 347.17,271.50 347.22,271.59 C 347.27,271.69 347.29,271.79 347.28,271.91 C 347.27,272.02 347.23,272.15 347.16,272.28 C 347.08,272.42 346.98,272.56 346.84,272.72 C 346.71,272.88 346.54,273.04 346.34,273.22 C 346.15,273.40 345.92,273.58 345.66,273.78 C 345.40,273.98 345.10,274.19 344.78,274.41 C 344.46,274.62 344.19,274.84 343.72,275.09 C 343.25,275.35 342.67,275.63 341.98,275.93 C 341.28,276.23 340.48,276.56 339.55,276.91 C 338.63,277.27 337.60,277.64 336.45,278.05 C 335.31,278.45 334.05,278.88 332.67,279.33 C 331.30,279.78 329.81,280.26 328.21,280.76 C 326.61,281.26 324.90,281.79 323.07,282.34 C 321.24,282.89 319.30,283.46 317.25,284.06 C 315.20,284.66 312.82,285.33 310.75,285.94 C 308.68,286.54 306.71,287.13 304.83,287.70 C 302.95,288.27 301.17,288.83 299.48,289.36 C 297.80,289.89 296.21,290.41 294.72,290.91 C 293.23,291.40 291.83,291.88 290.53,292.34 C 289.23,292.80 288.03,293.25 286.92,293.67 C 285.82,294.10 284.80,294.50 283.89,294.89 C 282.98,295.28 282.16,295.65 281.44,296.00 C 280.72,296.35 280.27,296.68 279.56,297.00 C 278.85,297.32 278.05,297.63 277.17,297.92 C 276.29,298.22 275.32,298.50 274.27,298.77 C 273.21,299.03 272.07,299.29 270.84,299.53 C 269.62,299.77 268.30,300.00 266.91,300.22 C 265.51,300.43 264.02,300.64 262.45,300.83 C 260.88,301.02 259.23,301.20 257.48,301.36 C 255.74,301.52 253.91,301.67 252.00,301.81 C 250.09,301.95 247.92,302.07 246.00,302.19 C 244.08,302.31 242.24,302.43 240.48,302.55 C 238.73,302.66 237.05,302.78 235.45,302.89 C 233.86,303.00 232.34,303.11 230.91,303.22 C 229.47,303.33 228.12,303.43 226.84,303.53 C 225.57,303.63 224.38,303.73 223.27,303.83 C 222.15,303.92 221.12,304.02 220.17,304.11 C 219.22,304.20 218.35,304.29 217.56,304.38 C 216.77,304.46 216.11,304.54 215.44,304.62 C 214.76,304.71 214.12,304.79 213.52,304.88 C 212.91,304.96 212.34,305.04 211.80,305.12 C 211.26,305.21 210.75,305.29 210.28,305.38 C 209.81,305.46 209.37,305.54 208.97,305.62 C 208.57,305.71 208.20,305.79 207.86,305.88 C 207.52,305.96 207.22,306.04 206.95,306.12 C 206.68,306.21 206.45,306.29 206.25,306.38 C 206.05,306.46 206.04,306.55 205.75,306.62 C 205.46,306.70 205.04,306.78 204.50,306.84 C 203.96,306.91 203.29,306.97 202.50,307.03 C 201.71,307.09 200.79,307.14 199.75,307.19 C 198.71,307.23 197.54,307.28 196.25,307.31 C 194.96,307.35 193.54,307.38 192.00,307.41 C 190.46,307.43 188.79,307.45 187.00,307.47 C 185.21,307.48 183.29,307.49 181.25,307.50 Z" stroke="none" fill="currentColor" opacity="0.11" />
  <path d="M139.66,262.85L139.66,254.50 M139.66,262.85L139.66,254.50 M165.39,245.78L165.39,245.52 M146.90,243.83L157.21,243.83 M144.86,273.37L144.95,258.68 M159.49,265.42L149.23,264.97 M149.23,264.97L158.59,265.30 M150.50,271.48L150.71,271.01 M150.50,271.48L150.79,271.12 M151.41,270.33L151.65,270.03 M151.65,270.03L151.33,270.45 M280.40,262.83L260.41,262.45 M251.51,262.62L241.91,263.09 M250.79,262.87L241.42,263.35 M250.15,262.14L241.00,262.61 M280.40,254.47L260.41,254.85 M251.51,254.68L241.91,254.20 M250.79,254.42L241.42,253.95 M250.15,255.16L241.00,254.69 M261.14,262.20L251.51,262.62 M260.41,262.45L250.79,262.87 M259.77,261.71L250.15,262.14 M261.14,255.10L251.51,254.68 M260.41,254.85L250.79,254.42 M259.77,255.58L250.15,255.16 M270.78,291.79L252.93,284.43 M269.65,297.30L282.04,293.87 M296.45,289.99L310.02,286.00 M281.02,279.26L303.83,277.00 M344.32,273.07L330.40,273.87 M287.52,281.63L278.17,280.54 M287.65,281.03L278.30,279.94 M270.65,225.55L252.80,232.91 M296.32,227.36L309.88,231.37 M281.91,223.47L269.52,219.99 M280.89,238.01L303.70,240.31 M344.18,244.31L330.27,243.49 M278.04,236.77L287.38,235.69 M278.16,237.36L287.51,236.27 M256.37,281.67L268.23,281.67 M268.23,281.65L256.15,281.65 M253.69,281.30L279.66,281.38 M269.02,280.76L254.73,280.80 M253.69,281.25L279.70,281.24 M271.16,279.68L279.70,279.68 M271.23,279.66L279.66,279.66 M279.66,284.42L271.23,284.42 M279.70,284.25L271.16,284.25 M279.70,282.69L253.69,282.69 M269.02,283.18L254.72,283.17 M279.66,282.70L253.69,282.68 M256.42,280.41L237.54,280.43 M256.42,281.57L237.54,281.57 M256.37,280.40L237.47,280.42 M256.37,281.70L237.47,281.70 M254.68,285.05L267.42,284.98 M254.68,285.06L267.42,285.01 M267.42,283.20L251.43,283.19 M251.43,280.27L267.42,280.28 M254.68,280.86L267.42,280.84 M254.68,280.85L267.42,280.83 M256.04,284.04L247.14,284.05 M256.04,284.04L247.04,284.05 M256.04,283.35L244.83,283.35 M244.84,283.25L256.04,283.25 M256.04,282.55L239.92,282.56 M256.04,282.69L239.91,282.69 M256.04,282.28L239.16,282.28 M256.04,282.52L247.04,282.53 M247.04,282.52L256.04,282.51 M256.04,280.64L239.92,280.63 M256.04,280.63L239.91,280.62 M256.04,280.92L239.16,280.92 M276.52,286.54L268.15,286.54 M268.15,281.12L276.64,281.12 M280.33,277.05L268.62,276.96 M280.33,277.09L268.62,277.00 M253.82,278.85L265.44,278.82 M252.37,278.61L233.71,278.61 M252.93,282.42L273.78,282.36 M267.41,282.65L275.66,282.69 M275.66,282.69L267.53,282.73 M252.37,274.72L233.71,274.72 M252.93,276.05L273.78,276.11 M267.41,277.94L275.66,277.82 M275.66,277.82L267.53,278.02 M276.17,282.77L267.44,282.66 M257.56,277.89L270.32,277.88 M270.32,277.88L256.55,277.84 M270.54,284.02L256.54,284.07 M257.56,286.38L270.32,286.40 M270.32,286.40L256.55,286.40 M245.31,278.45L267.23,278.35 M267.56,278.92L276.81,278.94 M245.31,282.17L267.23,282.25 M267.56,282.02L276.81,282.07 M269.85,272.44L279.35,272.47 M266.98,272.46L254.80,272.46 M266.98,279.17L254.80,279.17 M267.99,279.73L257.37,279.73 M270.43,273.99L253.43,273.99 M266.99,273.62L254.80,273.62 M266.99,278.03L254.80,278.03 M254.79,278.67L265.41,278.67 M265.41,278.65L254.70,278.65 M239.72,280.88L252.58,280.94 M257.39,273.70L267.97,273.70 M277.11,278.05L267.52,278.05 M267.59,277.74L277.11,277.74 M268.23,234.74L256.37,234.74 M268.23,234.76L256.15,234.76 M253.69,233.72L279.66,233.71 M269.02,233.23L254.73,233.28 M253.69,233.71L279.70,233.72 M271.16,232.16L279.70,232.15 M271.23,231.99L279.66,231.98 M279.66,236.74L271.23,236.75 M279.70,236.72L271.16,236.72 M279.70,235.16L253.69,235.16 M269.02,235.65L254.72,235.64 M279.66,235.02L253.69,235.10 M256.42,234.81L237.54,234.83 M256.42,235.97L237.54,235.97 M256.37,234.68L237.47,234.70 M256.37,235.98L237.47,235.98 M254.68,235.55L267.42,235.58 M267.42,235.56L254.68,235.54 M267.42,236.13L251.43,236.13 M251.43,233.22L267.42,233.21 M267.42,231.39L254.78,231.33 M267.42,231.42L254.68,231.36 M247.04,233.88L256.04,233.88 M247.04,233.89L256.04,233.89 M256.04,235.76L239.92,235.77 M256.04,235.78L239.91,235.78 M256.04,235.49L239.16,235.49 M256.04,232.36L247.14,232.36 M256.04,232.36L247.04,232.35 M256.04,233.05L244.81,233.06 M244.80,233.16L256.04,233.17 M244.84,233.15L256.04,233.16 M256.04,233.85L239.92,233.84 M256.04,233.71L239.91,233.72 M256.04,234.13L239.16,234.13 M276.52,235.28L268.03,235.28 M268.15,229.86L276.52,229.86 M280.32,239.35L268.62,239.45 M280.32,239.31L268.62,239.40 M253.82,237.55L265.44,237.58 M252.37,241.68L233.71,241.68 M252.93,240.36L273.78,240.29 M267.41,238.46L275.66,238.58 M275.66,238.58L267.53,238.38 M252.37,237.79L233.71,237.79 M252.93,233.98L273.78,234.04 M267.41,233.75L275.66,233.72 M275.66,233.72L267.53,233.67 M267.44,233.74L276.19,233.64 M270.54,232.38L256.54,232.33 M257.56,230.03L270.32,230.01 M270.32,230.01L256.55,230.00 M257.56,238.52L270.32,238.52 M270.32,238.52L256.55,238.57 M245.31,234.23L267.23,234.15 M267.56,234.38L276.81,234.33 M245.31,237.95L267.23,238.06 M267.56,237.48L276.81,237.46 M269.85,243.97L279.35,243.93 M266.98,237.23L254.80,237.24 M267.99,236.68L257.37,236.68 M266.98,243.94L254.80,243.94 M266.99,238.37L254.80,238.37 M266.99,242.78L254.80,242.78 M270.43,242.41L253.43,242.41 M254.79,237.73L265.41,237.73 M265.41,237.75L254.70,237.75 M239.72,235.52L252.58,235.46 M257.39,242.70L267.97,242.70 M277.11,238.36L267.53,238.36 M267.56,238.66L277.11,238.66 M220.55,270.61L177.98,269.28 M177.98,269.28L165.40,270.13 M165.40,275.22L177.98,274.09 M177.98,248.02L220.55,246.68 M177.98,248.02L165.40,247.17 M165.40,242.08L177.98,243.21 M244.63,267.80L228.12,267.95 M208.55,264.97L179.19,265.50 M236.71,263.82L245.03,265.20 M245.03,265.20L229.38,265.07 M228.12,249.35L244.63,249.50 M208.55,252.32L179.19,251.80 M245.03,252.10L236.71,253.48 M245.03,252.10L229.38,252.22 M190.28,269.09L164.61,267.36 M190.28,269.06L164.81,267.36 M190.32,268.66L164.84,266.92 M195.32,249.67L170.86,250.50 M195.36,249.83L170.89,250.69 M212.70,264.66L237.79,262.03 M212.60,264.68L237.50,262.08 M212.57,264.11L237.47,261.48 M205.81,264.65L217.33,265.17 M205.81,264.65L192.47,264.50 M192.47,252.80L205.81,252.64 M205.81,252.64L217.33,252.13 M153.87,278.24L163.33,273.54 M153.87,239.06L163.33,243.76 M186.40,273.77L164.93,281.29 M189.90,273.19L170.83,281.87 M186.40,243.53L164.93,236.00 M189.90,244.10L170.83,235.42 M165.45,271.47L173.60,271.24 M165.45,245.83L173.60,246.05 M181.61,265.06L174.49,269.29 M181.61,252.24L174.49,248.00 M54.40,248.24L56.03,247.69 M56.03,269.60L54.40,269.06 M84.99,292.70L92.19,295.81 M84.99,264.04L92.19,260.15 M201.07,249.44L207.91,249.88 M273.47,251.24L238.30,248.38 M115.10,266.13L113.43,273.83 M115.10,266.13L121.96,258.89 M141.32,248.25L149.88,245.48 M155.17,245.97L159.00,248.24 M160.82,271.48L139.09,273.45 M114.54,282.06L113.43,273.83 M141.32,302.94L149.88,306.96 M273.23,299.69L238.22,303.01 M113.30,274.09L115.20,281.77 M121.47,289.34L131.46,296.05 M155.25,308.16L159.00,307.10 M159.00,307.10L193.80,306.53 M127.44,262.43L127.47,265.45 M127.47,265.45L127.47,271.70 M127.47,275.57L127.49,283.32 M127.49,283.32L127.47,289.16 M127.47,289.16L127.44,291.69 M268.77,294.55L268.70,285.01 M268.70,285.01L268.77,273.34 M268.79,255.71L268.65,254.56 M117.70,228.73L97.84,228.75 M117.69,251.62L97.84,251.63 M97.84,250.21L117.70,249.72 M117.69,249.54L97.84,249.51 M109.50,218.24L104.70,218.18 M136.42,213.49L127.66,214.71 M127.66,214.71L108.40,217.21 M98.85,218.62L108.40,217.21 M109.52,261.04L104.75,261.30 M101.78,261.24L98.89,260.65 M98.89,260.65L111.69,262.62 M145.84,266.70L137.54,265.59 M111.69,262.62L137.54,265.59 M207.22,218.15L180.46,216.41 M135.89,216.90L127.92,217.86 M120.10,218.64L127.92,217.86 M127.65,217.53L111.24,219.52 M111.24,219.52L103.40,220.34 M103.90,258.75L114.54,260.18 M200.16,265.04L207.25,261.55 M184.48,262.99L205.72,261.91 M94.13,258.15L98.04,260.10 M119.61,219.05L127.48,218.25 M127.48,218.25L147.53,218.19 M95.54,224.67L98.48,225.72 M98.89,228.43L98.89,250.56 M98.49,253.30L95.54,254.66 M95.36,253.62L99.68,252.46 M199.82,222.90L199.82,221.37 M104.51,248.12L104.49,249.35 M104.48,245.88L104.49,233.65 M104.48,249.16L104.48,247.83 M104.50,231.40L104.49,230.06 M103.97,230.44L103.95,229.46 M103.95,231.15L103.95,229.46 M104.47,249.51L104.46,250.92 M104.48,245.57L104.47,233.49 M103.97,233.64L103.97,245.49 M124.42,246.54L112.05,247.19 M112.77,248.31L112.77,230.90 M113.25,248.31L113.26,230.91 M112.77,248.31L112.77,230.90 M113.25,248.31L113.26,230.91 M112.77,248.31L112.77,230.90 M113.25,248.31L113.26,230.91 M112.77,248.31L112.77,230.90 M113.25,248.31L113.26,230.91 M112.77,248.31L112.77,230.90 M113.25,248.31L113.26,230.91 M151.34,258.65L151.34,266.55 M173.29,265.64L151.40,264.50 M151.40,264.50L141.47,266.21 M179.54,265.17L178.88,273.58 M151.34,250.74L151.34,258.65 M151.40,252.80L173.29,251.65 M151.40,252.80L141.47,251.08 M179.54,252.13L178.88,243.72 M297.80,262.27L283.11,262.23 M297.80,255.02L283.11,255.06" stroke="currentColor" stroke-width="0.6" stroke-linecap="round" fill="none" opacity="0.55" clip-path="url(#hull-clip)" filter="url(#glow)" />
  <path d="M 181.25,307.50 C 179.21,307.51 176.79,307.51 174.75,307.50 C 172.71,307.49 170.78,307.48 168.98,307.47 C 167.18,307.45 165.51,307.43 163.95,307.41 C 162.40,307.38 160.97,307.35 159.66,307.31 C 158.35,307.28 157.16,307.23 156.09,307.19 C 155.03,307.14 154.09,307.09 153.27,307.03 C 152.45,306.97 151.75,306.91 151.17,306.84 C 150.60,306.78 150.14,306.70 149.81,306.62 C 149.48,306.55 149.43,306.45 149.19,306.38 C 148.94,306.30 148.65,306.22 148.33,306.16 C 148.00,306.09 147.64,306.03 147.23,305.97 C 146.83,305.91 146.39,305.86 145.91,305.81 C 145.42,305.77 144.90,305.72 144.34,305.69 C 143.78,305.65 143.18,305.62 142.55,305.59 C 141.91,305.57 141.23,305.55 140.52,305.53 C 139.80,305.52 139.04,305.51 138.25,305.50 C 137.46,305.49 136.61,305.52 135.75,305.50 C 134.89,305.48 133.99,305.44 133.06,305.38 C 132.14,305.31 131.18,305.23 130.19,305.12 C 129.20,305.02 128.18,304.90 127.12,304.75 C 126.07,304.60 124.99,304.44 123.88,304.25 C 122.76,304.06 121.61,303.85 120.44,303.62 C 119.26,303.40 118.05,303.15 116.81,302.88 C 115.57,302.60 114.30,302.31 113.00,302.00 C 111.70,301.69 110.29,301.34 109.00,301.00 C 107.71,300.66 106.45,300.32 105.24,299.98 C 104.03,299.63 102.86,299.28 101.73,298.93 C 100.60,298.58 99.50,298.22 98.45,297.86 C 97.40,297.50 96.39,297.13 95.42,296.77 C 94.45,296.40 93.52,296.02 92.63,295.65 C 91.74,295.27 90.89,294.89 90.09,294.51 C 89.28,294.12 88.51,293.74 87.78,293.34 C 87.05,292.95 86.37,292.54 85.72,292.16 C 85.07,291.77 84.45,291.40 83.87,291.04 C 83.29,290.68 82.74,290.33 82.23,289.99 C 81.71,289.65 81.24,289.33 80.80,289.02 C 80.36,288.70 79.95,288.40 79.58,288.11 C 79.21,287.82 78.87,287.54 78.57,287.27 C 78.27,287.01 78.00,286.75 77.77,286.51 C 77.54,286.26 77.35,286.03 77.19,285.81 C 77.03,285.59 76.93,285.40 76.81,285.19 C 76.69,284.97 76.58,284.75 76.48,284.52 C 76.37,284.30 76.27,284.06 76.18,283.82 C 76.09,283.58 76.00,283.33 75.92,283.08 C 75.84,282.82 75.77,282.56 75.70,282.30 C 75.64,282.03 75.58,281.76 75.52,281.48 C 75.47,281.20 75.42,280.91 75.38,280.62 C 75.34,280.32 75.31,280.02 75.28,279.72 C 75.25,279.41 75.29,279.08 75.22,278.78 C 75.15,278.48 75.04,278.19 74.88,277.91 C 74.73,277.64 74.52,277.37 74.27,277.12 C 74.02,276.86 73.73,276.62 73.39,276.39 C 73.05,276.16 72.67,275.94 72.23,275.73 C 71.80,275.53 71.33,275.33 70.80,275.15 C 70.28,274.96 69.71,274.79 69.10,274.63 C 68.49,274.47 67.83,274.32 67.12,274.19 C 66.42,274.05 65.59,273.94 64.88,273.81 C 64.16,273.69 63.48,273.56 62.84,273.44 C 62.20,273.31 61.60,273.19 61.03,273.06 C 60.46,272.94 59.93,272.81 59.44,272.69 C 58.94,272.56 58.48,272.44 58.06,272.31 C 57.64,272.19 57.26,272.06 56.91,271.94 C 56.56,271.81 56.24,271.69 55.97,271.56 C 55.69,271.44 55.45,271.31 55.25,271.19 C 55.05,271.06 54.92,270.93 54.75,270.81 C 54.58,270.69 54.40,270.58 54.23,270.48 C 54.05,270.37 53.87,270.27 53.68,270.18 C 53.49,270.09 53.30,270.00 53.11,269.92 C 52.92,269.84 52.72,269.77 52.52,269.70 C 52.31,269.64 52.11,269.58 51.90,269.52 C 51.69,269.47 51.48,269.42 51.26,269.38 C 51.04,269.34 50.82,269.31 50.59,269.28 C 50.37,269.25 50.11,269.24 49.91,269.22 C 49.70,269.19 49.51,269.17 49.35,269.13 C 49.19,269.10 49.05,269.06 48.93,269.02 C 48.81,268.98 48.71,268.94 48.64,268.89 C 48.57,268.84 48.51,268.79 48.48,268.73 C 48.45,268.68 48.45,268.62 48.46,268.55 C 48.48,268.49 48.51,268.42 48.57,268.35 C 48.63,268.28 48.71,268.20 48.81,268.12 C 48.92,268.05 49.08,267.98 49.19,267.88 C 49.30,267.77 49.39,267.64 49.47,267.48 C 49.55,267.33 49.61,267.15 49.66,266.95 C 49.70,266.75 49.73,266.53 49.75,266.28 C 49.77,266.03 49.77,265.76 49.75,265.47 C 49.73,265.17 49.70,264.86 49.66,264.52 C 49.61,264.17 49.55,263.81 49.47,263.42 C 49.39,263.03 49.30,262.62 49.19,262.19 C 49.08,261.75 48.92,261.27 48.81,260.81 C 48.71,260.36 48.62,259.91 48.55,259.47 C 48.48,259.03 48.42,258.59 48.39,258.16 C 48.36,257.72 48.34,257.30 48.34,256.88 C 48.35,256.45 48.37,256.04 48.41,255.62 C 48.45,255.21 48.50,254.81 48.58,254.41 C 48.65,254.01 48.75,253.61 48.86,253.22 C 48.97,252.83 49.10,252.44 49.25,252.06 C 49.40,251.68 49.52,251.31 49.75,250.94 C 49.98,250.56 50.27,250.19 50.63,249.82 C 50.99,249.45 51.41,249.08 51.90,248.71 C 52.38,248.34 52.93,247.98 53.55,247.61 C 54.16,247.24 54.84,246.88 55.58,246.52 C 56.32,246.15 57.12,245.79 57.99,245.43 C 58.86,245.07 59.79,244.71 60.79,244.35 C 61.79,243.99 62.85,243.64 63.97,243.28 C 65.09,242.93 66.39,242.55 67.53,242.22 C 68.67,241.88 69.76,241.57 70.80,241.27 C 71.85,240.98 72.84,240.70 73.79,240.45 C 74.74,240.19 75.63,239.95 76.48,239.73 C 77.33,239.52 78.14,239.32 78.89,239.14 C 79.64,238.96 80.35,238.80 81.01,238.66 C 81.67,238.52 82.27,238.40 82.84,238.30 C 83.40,238.20 83.91,238.12 84.38,238.06 C 84.84,238.00 85.23,237.98 85.62,237.94 C 86.02,237.89 86.40,237.84 86.76,237.79 C 87.12,237.74 87.45,237.68 87.77,237.62 C 88.09,237.56 88.39,237.49 88.67,237.42 C 88.95,237.35 89.21,237.28 89.45,237.20 C 89.69,237.13 89.92,237.05 90.12,236.96 C 90.32,236.88 90.50,236.79 90.66,236.70 C 90.83,236.60 90.97,236.51 91.09,236.41 C 91.22,236.31 91.31,236.22 91.41,236.09 C 91.50,235.97 91.59,235.83 91.66,235.66 C 91.74,235.50 91.81,235.32 91.87,235.12 C 91.93,234.92 91.98,234.69 92.02,234.45 C 92.06,234.21 92.09,233.95 92.11,233.67 C 92.13,233.39 92.14,233.09 92.15,232.77 C 92.15,232.45 92.15,232.12 92.13,231.76 C 92.12,231.40 92.10,231.02 92.06,230.62 C 92.03,230.23 91.97,229.78 91.94,229.38 C 91.90,228.97 91.88,228.59 91.86,228.22 C 91.84,227.85 91.83,227.49 91.83,227.16 C 91.83,226.82 91.83,226.49 91.84,226.19 C 91.86,225.88 91.88,225.59 91.91,225.31 C 91.93,225.04 91.97,224.78 92.02,224.53 C 92.06,224.29 92.11,224.06 92.17,223.84 C 92.23,223.63 92.30,223.43 92.38,223.25 C 92.45,223.07 92.53,222.92 92.62,222.75 C 92.72,222.58 92.82,222.42 92.93,222.26 C 93.04,222.10 93.16,221.93 93.29,221.77 C 93.42,221.61 93.56,221.45 93.70,221.30 C 93.85,221.14 94.01,220.98 94.17,220.83 C 94.34,220.67 94.51,220.52 94.70,220.37 C 94.88,220.21 95.07,220.06 95.27,219.91 C 95.48,219.76 95.69,219.62 95.91,219.47 C 96.13,219.32 96.29,219.18 96.59,219.03 C 96.90,218.88 97.27,218.73 97.73,218.57 C 98.18,218.41 98.70,218.25 99.30,218.09 C 99.90,217.92 100.58,217.75 101.33,217.58 C 102.08,217.40 102.90,217.23 103.80,217.05 C 104.69,216.87 105.67,216.68 106.71,216.49 C 107.76,216.30 108.88,216.11 110.07,215.91 C 111.26,215.72 112.53,215.52 113.88,215.31 C 115.22,215.11 116.62,214.88 118.12,214.69 C 119.63,214.49 121.22,214.32 122.91,214.16 C 124.59,213.99 126.36,213.85 128.22,213.72 C 130.08,213.59 132.03,213.47 134.06,213.38 C 136.10,213.28 138.22,213.19 140.44,213.12 C 142.65,213.06 144.95,213.01 147.34,212.97 C 149.73,212.93 152.21,212.91 154.78,212.91 C 157.35,212.90 160.01,212.91 162.75,212.94 C 165.49,212.96 168.52,212.97 171.25,213.06 C 173.98,213.15 176.60,213.29 179.11,213.47 C 181.62,213.65 184.03,213.88 186.33,214.16 C 188.63,214.43 190.82,214.76 192.91,215.12 C 194.99,215.49 196.97,215.91 198.84,216.38 C 200.72,216.84 202.48,217.35 204.14,217.91 C 205.80,218.46 207.35,219.07 208.80,219.72 C 210.24,220.37 211.58,221.07 212.81,221.81 C 214.04,222.56 215.05,223.48 216.19,224.19 C 217.33,224.89 218.48,225.51 219.64,226.05 C 220.80,226.58 221.98,227.03 223.17,227.39 C 224.36,227.75 225.57,228.03 226.78,228.22 C 228.00,228.41 229.23,228.51 230.47,228.53 C 231.71,228.55 232.97,228.48 234.23,228.33 C 235.50,228.17 236.78,227.93 238.08,227.61 C 239.37,227.28 240.68,226.87 242.00,226.38 C 243.32,225.88 244.72,225.17 246.00,224.62 C 247.28,224.08 248.51,223.58 249.69,223.11 C 250.86,222.64 251.99,222.22 253.06,221.83 C 254.14,221.44 255.16,221.09 256.12,220.78 C 257.09,220.47 258.01,220.20 258.88,219.97 C 259.74,219.74 260.55,219.54 261.31,219.39 C 262.07,219.24 262.78,219.12 263.44,219.05 C 264.09,218.97 264.70,218.93 265.25,218.94 C 265.80,218.94 266.16,218.99 266.75,219.06 C 267.34,219.13 268.01,219.23 268.77,219.36 C 269.52,219.49 270.37,219.64 271.30,219.83 C 272.23,220.01 273.24,220.23 274.34,220.47 C 275.45,220.71 276.63,220.98 277.91,221.28 C 279.18,221.58 280.54,221.91 281.98,222.27 C 283.43,222.62 284.96,223.01 286.58,223.42 C 288.20,223.84 289.90,224.28 291.69,224.75 C 293.48,225.22 295.49,225.76 297.31,226.25 C 299.14,226.74 300.91,227.23 302.64,227.70 C 304.37,228.18 306.04,228.65 307.67,229.11 C 309.30,229.57 310.88,230.02 312.41,230.47 C 313.93,230.91 315.41,231.35 316.84,231.78 C 318.27,232.21 319.65,232.63 320.98,233.05 C 322.32,233.46 323.60,233.87 324.83,234.27 C 326.06,234.66 327.24,235.05 328.38,235.44 C 329.51,235.82 330.60,236.21 331.62,236.56 C 332.65,236.92 333.62,237.26 334.53,237.58 C 335.44,237.90 336.30,238.20 337.09,238.48 C 337.89,238.77 338.63,239.03 339.31,239.28 C 339.99,239.53 340.62,239.76 341.19,239.97 C 341.76,240.18 342.27,240.37 342.72,240.55 C 343.17,240.72 343.57,240.88 343.91,241.02 C 344.24,241.15 344.53,241.27 344.75,241.38 C 344.97,241.48 345.09,241.54 345.25,241.62 C 345.41,241.71 345.56,241.80 345.70,241.89 C 345.85,241.98 345.98,242.08 346.11,242.17 C 346.24,242.27 346.36,242.37 346.47,242.47 C 346.58,242.57 346.68,242.67 346.78,242.78 C 346.88,242.89 346.97,243.00 347.05,243.11 C 347.13,243.22 347.20,243.34 347.27,243.45 C 347.33,243.57 347.39,243.69 347.44,243.81 C 347.49,243.93 347.56,244.08 347.56,244.19 C 347.57,244.30 347.53,244.40 347.45,244.48 C 347.38,244.57 347.26,244.64 347.11,244.70 C 346.96,244.76 346.76,244.81 346.53,244.84 C 346.30,244.88 346.03,244.90 345.72,244.91 C 345.41,244.91 345.06,244.91 344.67,244.89 C 344.28,244.87 343.86,244.84 343.39,244.80 C 342.92,244.75 342.42,244.70 341.88,244.62 C 341.33,244.55 340.70,244.45 340.12,244.38 C 339.55,244.30 338.98,244.23 338.42,244.17 C 337.86,244.11 337.31,244.06 336.77,244.02 C 336.22,243.97 335.68,243.93 335.16,243.91 C 334.63,243.88 334.11,243.86 333.59,243.84 C 333.08,243.83 332.58,243.83 332.08,243.83 C 331.58,243.83 331.09,243.84 330.61,243.86 C 330.13,243.88 329.65,243.90 329.19,243.94 C 328.72,243.97 328.25,244.03 327.81,244.06 C 327.38,244.10 326.96,244.12 326.56,244.14 C 326.17,244.16 325.79,244.17 325.44,244.17 C 325.08,244.17 324.75,244.17 324.44,244.16 C 324.12,244.14 323.83,244.12 323.56,244.09 C 323.29,244.07 323.04,244.03 322.81,243.98 C 322.58,243.94 322.38,243.89 322.19,243.83 C 322.00,243.77 321.83,243.70 321.69,243.62 C 321.54,243.55 321.46,243.45 321.31,243.38 C 321.17,243.30 321.00,243.23 320.80,243.16 C 320.61,243.10 320.40,243.04 320.16,242.99 C 319.93,242.94 319.67,242.90 319.39,242.86 C 319.11,242.82 318.81,242.79 318.48,242.77 C 318.16,242.74 317.81,242.72 317.45,242.71 C 317.08,242.70 316.69,242.69 316.27,242.70 C 315.86,242.70 315.43,242.70 314.97,242.72 C 314.51,242.73 313.95,242.75 313.53,242.78 C 313.11,242.81 312.75,242.85 312.45,242.89 C 312.15,242.93 311.91,242.99 311.73,243.05 C 311.55,243.11 311.43,243.17 311.38,243.25 C 311.32,243.33 311.32,243.41 311.38,243.50 C 311.43,243.59 311.55,243.69 311.73,243.80 C 311.91,243.90 312.15,244.02 312.45,244.14 C 312.75,244.26 313.11,244.39 313.53,244.53 C 313.95,244.67 314.50,244.83 314.97,244.97 C 315.43,245.10 315.88,245.23 316.32,245.34 C 316.76,245.45 317.18,245.55 317.59,245.63 C 317.99,245.72 318.39,245.80 318.77,245.86 C 319.14,245.92 319.51,245.98 319.86,246.02 C 320.21,246.06 320.55,246.08 320.87,246.10 C 321.19,246.12 321.50,246.12 321.79,246.12 C 322.08,246.11 322.36,246.09 322.62,246.06 C 322.89,246.03 323.11,245.96 323.38,245.94 C 323.64,245.91 323.91,245.90 324.20,245.91 C 324.49,245.91 324.79,245.93 325.11,245.97 C 325.42,246.01 325.75,246.06 326.09,246.12 C 326.43,246.19 326.79,246.28 327.16,246.38 C 327.52,246.47 327.90,246.59 328.30,246.72 C 328.69,246.85 329.10,246.99 329.52,247.16 C 329.93,247.32 330.37,247.49 330.81,247.69 C 331.26,247.88 331.73,248.12 332.19,248.31 C 332.64,248.51 333.09,248.69 333.53,248.86 C 333.97,249.03 334.41,249.18 334.84,249.33 C 335.28,249.47 335.70,249.60 336.12,249.72 C 336.55,249.84 336.96,249.94 337.38,250.03 C 337.79,250.12 338.19,250.20 338.59,250.27 C 338.99,250.33 339.39,250.38 339.78,250.42 C 340.17,250.46 340.56,250.49 340.94,250.50 C 341.32,250.51 341.68,250.48 342.06,250.50 C 342.45,250.52 342.84,250.55 343.24,250.60 C 343.64,250.65 344.06,250.72 344.48,250.80 C 344.90,250.89 345.33,250.99 345.77,251.11 C 346.20,251.23 346.65,251.36 347.11,251.52 C 347.57,251.67 348.03,251.84 348.51,252.02 C 348.98,252.21 349.47,252.41 349.96,252.63 C 350.45,252.85 350.96,253.09 351.47,253.34 C 351.98,253.60 352.55,253.89 353.03,254.16 C 353.51,254.42 353.95,254.69 354.34,254.95 C 354.74,255.22 355.09,255.48 355.41,255.73 C 355.72,255.99 355.99,256.25 356.22,256.50 C 356.45,256.75 356.64,257.00 356.78,257.25 C 356.93,257.50 357.03,257.74 357.09,257.98 C 357.16,258.23 357.18,258.47 357.16,258.70 C 357.14,258.94 357.07,259.17 356.97,259.41 C 356.86,259.64 356.69,259.87 356.53,260.09 C 356.37,260.32 356.20,260.53 356.01,260.74 C 355.82,260.95 355.62,261.15 355.40,261.35 C 355.18,261.55 354.95,261.74 354.70,261.92 C 354.46,262.11 354.20,262.28 353.92,262.45 C 353.65,262.62 353.36,262.79 353.05,262.95 C 352.75,263.10 352.43,263.25 352.10,263.40 C 351.77,263.54 351.42,263.68 351.06,263.81 C 350.70,263.94 350.32,264.07 349.94,264.19 C 349.55,264.31 349.16,264.42 348.77,264.53 C 348.37,264.64 347.96,264.74 347.55,264.84 C 347.13,264.94 346.71,265.04 346.28,265.12 C 345.85,265.21 345.41,265.30 344.97,265.38 C 344.52,265.45 344.07,265.53 343.61,265.59 C 343.15,265.66 342.68,265.72 342.20,265.78 C 341.73,265.84 341.24,265.89 340.75,265.94 C 340.26,265.98 339.73,266.01 339.25,266.06 C 338.77,266.11 338.30,266.17 337.84,266.23 C 337.39,266.30 336.95,266.37 336.53,266.45 C 336.11,266.53 335.70,266.62 335.31,266.72 C 334.92,266.82 334.55,266.92 334.19,267.03 C 333.83,267.14 333.48,267.26 333.16,267.39 C 332.83,267.52 332.52,267.65 332.22,267.80 C 331.92,267.94 331.64,268.09 331.38,268.25 C 331.11,268.41 330.89,268.59 330.62,268.75 C 330.36,268.91 330.09,269.05 329.81,269.19 C 329.53,269.32 329.24,269.45 328.94,269.56 C 328.64,269.68 328.32,269.78 328.00,269.88 C 327.68,269.97 327.34,270.05 327.00,270.12 C 326.66,270.20 326.30,270.26 325.94,270.31 C 325.57,270.36 325.20,270.41 324.81,270.44 C 324.43,270.47 324.03,270.49 323.62,270.50 C 323.22,270.51 322.79,270.49 322.38,270.50 C 321.96,270.51 321.54,270.52 321.12,270.55 C 320.71,270.57 320.29,270.60 319.88,270.64 C 319.46,270.68 319.04,270.73 318.62,270.78 C 318.21,270.84 317.79,270.90 317.38,270.97 C 316.96,271.04 316.54,271.12 316.12,271.20 C 315.71,271.29 315.29,271.38 314.88,271.48 C 314.46,271.59 314.04,271.70 313.62,271.81 C 313.21,271.93 312.67,272.08 312.38,272.19 C 312.08,272.30 311.91,272.39 311.86,272.47 C 311.81,272.55 311.88,272.61 312.08,272.66 C 312.27,272.70 312.59,272.73 313.03,272.75 C 313.47,272.77 314.03,272.77 314.72,272.75 C 315.40,272.73 316.21,272.70 317.14,272.66 C 318.07,272.61 319.12,272.55 320.30,272.47 C 321.47,272.39 322.77,272.30 324.19,272.19 C 325.61,272.08 327.36,271.93 328.81,271.81 C 330.27,271.70 331.63,271.60 332.91,271.51 C 334.19,271.42 335.39,271.34 336.49,271.27 C 337.60,271.21 338.62,271.15 339.55,271.11 C 340.48,271.07 341.32,271.04 342.08,271.02 C 342.83,271.00 343.50,270.99 344.09,270.99 C 344.67,271.00 345.16,271.01 345.57,271.04 C 345.98,271.07 346.30,271.11 346.53,271.16 C 346.76,271.21 346.85,271.27 346.97,271.34 C 347.08,271.42 347.17,271.50 347.22,271.59 C 347.27,271.69 347.29,271.79 347.28,271.91 C 347.27,272.02 347.23,272.15 347.16,272.28 C 347.08,272.42 346.98,272.56 346.84,272.72 C 346.71,272.88 346.54,273.04 346.34,273.22 C 346.15,273.40 345.92,273.58 345.66,273.78 C 345.40,273.98 345.10,274.19 344.78,274.41 C 344.46,274.62 344.19,274.84 343.72,275.09 C 343.25,275.35 342.67,275.63 341.98,275.93 C 341.28,276.23 340.48,276.56 339.55,276.91 C 338.63,277.27 337.60,277.64 336.45,278.05 C 335.31,278.45 334.05,278.88 332.67,279.33 C 331.30,279.78 329.81,280.26 328.21,280.76 C 326.61,281.26 324.90,281.79 323.07,282.34 C 321.24,282.89 319.30,283.46 317.25,284.06 C 315.20,284.66 312.82,285.33 310.75,285.94 C 308.68,286.54 306.71,287.13 304.83,287.70 C 302.95,288.27 301.17,288.83 299.48,289.36 C 297.80,289.89 296.21,290.41 294.72,290.91 C 293.23,291.40 291.83,291.88 290.53,292.34 C 289.23,292.80 288.03,293.25 286.92,293.67 C 285.82,294.10 284.80,294.50 283.89,294.89 C 282.98,295.28 282.16,295.65 281.44,296.00 C 280.72,296.35 280.27,296.68 279.56,297.00 C 278.85,297.32 278.05,297.63 277.17,297.92 C 276.29,298.22 275.32,298.50 274.27,298.77 C 273.21,299.03 272.07,299.29 270.84,299.53 C 269.62,299.77 268.30,300.00 266.91,300.22 C 265.51,300.43 264.02,300.64 262.45,300.83 C 260.88,301.02 259.23,301.20 257.48,301.36 C 255.74,301.52 253.91,301.67 252.00,301.81 C 250.09,301.95 247.92,302.07 246.00,302.19 C 244.08,302.31 242.24,302.43 240.48,302.55 C 238.73,302.66 237.05,302.78 235.45,302.89 C 233.86,303.00 232.34,303.11 230.91,303.22 C 229.47,303.33 228.12,303.43 226.84,303.53 C 225.57,303.63 224.38,303.73 223.27,303.83 C 222.15,303.92 221.12,304.02 220.17,304.11 C 219.22,304.20 218.35,304.29 217.56,304.38 C 216.77,304.46 216.11,304.54 215.44,304.62 C 214.76,304.71 214.12,304.79 213.52,304.88 C 212.91,304.96 212.34,305.04 211.80,305.12 C 211.26,305.21 210.75,305.29 210.28,305.38 C 209.81,305.46 209.37,305.54 208.97,305.62 C 208.57,305.71 208.20,305.79 207.86,305.88 C 207.52,305.96 207.22,306.04 206.95,306.12 C 206.68,306.21 206.45,306.29 206.25,306.38 C 206.05,306.46 206.04,306.55 205.75,306.62 C 205.46,306.70 205.04,306.78 204.50,306.84 C 203.96,306.91 203.29,306.97 202.50,307.03 C 201.71,307.09 200.79,307.14 199.75,307.19 C 198.71,307.23 197.54,307.28 196.25,307.31 C 194.96,307.35 193.54,307.38 192.00,307.41 C 190.46,307.43 188.79,307.45 187.00,307.47 C 185.21,307.48 183.29,307.49 181.25,307.50 Z" fill="none" stroke="currentColor" stroke-width="1.5" stroke-linejoin="round" stroke-linecap="round" filter="url(#glow)" />
</svg>